<?xml version="1.0" encoding="utf-8" standalone="no"?>
<!DOCTYPE svg PUBLIC "-//W3C//DTD SVG 1.1//EN"
  "http://www.w3.org/Graphics/SVG/1.1/DTD/svg11.dtd">
<svg xmlns:xlink="http://www.w3.org/1999/xlink" width="426.027812pt" height="325.986375pt" viewBox="0 0 426.027812 325.986375" xmlns="http://www.w3.org/2000/svg" version="1.1">
 <metadata>
  <rdf:RDF xmlns:dc="http://purl.org/dc/elements/1.1/" xmlns:cc="http://creativecommons.org/ns#" xmlns:rdf="http://www.w3.org/1999/02/22-rdf-syntax-ns#">
   <cc:Work>
    <dc:type rdf:resource="http://purl.org/dc/dcmitype/StillImage"/>
    <dc:date>2024-07-11T14:24:53.758679</dc:date>
    <dc:format>image/svg+xml</dc:format>
    <dc:creator>
     <cc:Agent>
      <dc:title>Matplotlib v3.7.1, https://matplotlib.org/</dc:title>
     </cc:Agent>
    </dc:creator>
   </cc:Work>
  </rdf:RDF>
 </metadata>
 <defs>
  <style type="text/css">*{stroke-linejoin: round; stroke-linecap: butt}</style>
 </defs>
 <g id="figure_1">
  <g id="patch_1">
   <path d="M 0 325.986375 
L 426.027812 325.986375 
L 426.027812 0 
L 0 0 
z
" style="fill: #ffffff"/>
  </g>
  <g id="axes_1">
   <g id="patch_2">
    <path d="M 55.345313 288.430125 
L 412.465312 288.430125 
L 412.465312 22.318125 
L 55.345313 22.318125 
z
" style="fill: #ffffff"/>
   </g>
   <g id="matplotlib.axis_1">
    <g id="xtick_1">
     <g id="line2d_1">
      <defs>
       <path id="m2e36e62c43" d="M 0 0 
L 0 3.5 
" style="stroke: #000000; stroke-width: 0.8"/>
      </defs>
      <g>
       <use xlink:href="#m2e36e62c43" x="55.345312" y="288.430125" style="stroke: #000000; stroke-width: 0.8"/>
      </g>
     </g>
     <g id="text_1">
      <!-- 6 -->
      <g transform="translate(52.164062 303.028562) scale(0.1 -0.1)">
       <defs>
        <path id="DejaVuSans-36" d="M 2113 2584 
Q 1688 2584 1439 2293 
Q 1191 2003 1191 1497 
Q 1191 994 1439 701 
Q 1688 409 2113 409 
Q 2538 409 2786 701 
Q 3034 994 3034 1497 
Q 3034 2003 2786 2293 
Q 2538 2584 2113 2584 
z
M 3366 4563 
L 3366 3988 
Q 3128 4100 2886 4159 
Q 2644 4219 2406 4219 
Q 1781 4219 1451 3797 
Q 1122 3375 1075 2522 
Q 1259 2794 1537 2939 
Q 1816 3084 2150 3084 
Q 2853 3084 3261 2657 
Q 3669 2231 3669 1497 
Q 3669 778 3244 343 
Q 2819 -91 2113 -91 
Q 1303 -91 875 529 
Q 447 1150 447 2328 
Q 447 3434 972 4092 
Q 1497 4750 2381 4750 
Q 2619 4750 2861 4703 
Q 3103 4656 3366 4563 
z
" transform="scale(0.015625)"/>
       </defs>
       <use xlink:href="#DejaVuSans-36"/>
      </g>
     </g>
    </g>
    <g id="xtick_2">
     <g id="line2d_2">
      <g>
       <use xlink:href="#m2e36e62c43" x="114.865312" y="288.430125" style="stroke: #000000; stroke-width: 0.8"/>
      </g>
     </g>
     <g id="text_2">
      <!-- 7 -->
      <g transform="translate(111.684062 303.028562) scale(0.1 -0.1)">
       <defs>
        <path id="DejaVuSans-37" d="M 525 4666 
L 3525 4666 
L 3525 4397 
L 1831 0 
L 1172 0 
L 2766 4134 
L 525 4134 
L 525 4666 
z
" transform="scale(0.015625)"/>
       </defs>
       <use xlink:href="#DejaVuSans-37"/>
      </g>
     </g>
    </g>
    <g id="xtick_3">
     <g id="line2d_3">
      <g>
       <use xlink:href="#m2e36e62c43" x="174.385312" y="288.430125" style="stroke: #000000; stroke-width: 0.8"/>
      </g>
     </g>
     <g id="text_3">
      <!-- 8 -->
      <g transform="translate(171.204062 303.028562) scale(0.1 -0.1)">
       <defs>
        <path id="DejaVuSans-38" d="M 2034 2216 
Q 1584 2216 1326 1975 
Q 1069 1734 1069 1313 
Q 1069 891 1326 650 
Q 1584 409 2034 409 
Q 2484 409 2743 651 
Q 3003 894 3003 1313 
Q 3003 1734 2745 1975 
Q 2488 2216 2034 2216 
z
M 1403 2484 
Q 997 2584 770 2862 
Q 544 3141 544 3541 
Q 544 4100 942 4425 
Q 1341 4750 2034 4750 
Q 2731 4750 3128 4425 
Q 3525 4100 3525 3541 
Q 3525 3141 3298 2862 
Q 3072 2584 2669 2484 
Q 3125 2378 3379 2068 
Q 3634 1759 3634 1313 
Q 3634 634 3220 271 
Q 2806 -91 2034 -91 
Q 1263 -91 848 271 
Q 434 634 434 1313 
Q 434 1759 690 2068 
Q 947 2378 1403 2484 
z
M 1172 3481 
Q 1172 3119 1398 2916 
Q 1625 2713 2034 2713 
Q 2441 2713 2670 2916 
Q 2900 3119 2900 3481 
Q 2900 3844 2670 4047 
Q 2441 4250 2034 4250 
Q 1625 4250 1398 4047 
Q 1172 3844 1172 3481 
z
" transform="scale(0.015625)"/>
       </defs>
       <use xlink:href="#DejaVuSans-38"/>
      </g>
     </g>
    </g>
    <g id="xtick_4">
     <g id="line2d_4">
      <g>
       <use xlink:href="#m2e36e62c43" x="233.905312" y="288.430125" style="stroke: #000000; stroke-width: 0.8"/>
      </g>
     </g>
     <g id="text_4">
      <!-- 9 -->
      <g transform="translate(230.724062 303.028562) scale(0.1 -0.1)">
       <defs>
        <path id="DejaVuSans-39" d="M 703 97 
L 703 672 
Q 941 559 1184 500 
Q 1428 441 1663 441 
Q 2288 441 2617 861 
Q 2947 1281 2994 2138 
Q 2813 1869 2534 1725 
Q 2256 1581 1919 1581 
Q 1219 1581 811 2004 
Q 403 2428 403 3163 
Q 403 3881 828 4315 
Q 1253 4750 1959 4750 
Q 2769 4750 3195 4129 
Q 3622 3509 3622 2328 
Q 3622 1225 3098 567 
Q 2575 -91 1691 -91 
Q 1453 -91 1209 -44 
Q 966 3 703 97 
z
M 1959 2075 
Q 2384 2075 2632 2365 
Q 2881 2656 2881 3163 
Q 2881 3666 2632 3958 
Q 2384 4250 1959 4250 
Q 1534 4250 1286 3958 
Q 1038 3666 1038 3163 
Q 1038 2656 1286 2365 
Q 1534 2075 1959 2075 
z
" transform="scale(0.015625)"/>
       </defs>
       <use xlink:href="#DejaVuSans-39"/>
      </g>
     </g>
    </g>
    <g id="xtick_5">
     <g id="line2d_5">
      <g>
       <use xlink:href="#m2e36e62c43" x="293.425312" y="288.430125" style="stroke: #000000; stroke-width: 0.8"/>
      </g>
     </g>
     <g id="text_5">
      <!-- 10 -->
      <g transform="translate(287.062812 303.028562) scale(0.1 -0.1)">
       <defs>
        <path id="DejaVuSans-31" d="M 794 531 
L 1825 531 
L 1825 4091 
L 703 3866 
L 703 4441 
L 1819 4666 
L 2450 4666 
L 2450 531 
L 3481 531 
L 3481 0 
L 794 0 
L 794 531 
z
" transform="scale(0.015625)"/>
        <path id="DejaVuSans-30" d="M 2034 4250 
Q 1547 4250 1301 3770 
Q 1056 3291 1056 2328 
Q 1056 1369 1301 889 
Q 1547 409 2034 409 
Q 2525 409 2770 889 
Q 3016 1369 3016 2328 
Q 3016 3291 2770 3770 
Q 2525 4250 2034 4250 
z
M 2034 4750 
Q 2819 4750 3233 4129 
Q 3647 3509 3647 2328 
Q 3647 1150 3233 529 
Q 2819 -91 2034 -91 
Q 1250 -91 836 529 
Q 422 1150 422 2328 
Q 422 3509 836 4129 
Q 1250 4750 2034 4750 
z
" transform="scale(0.015625)"/>
       </defs>
       <use xlink:href="#DejaVuSans-31"/>
       <use xlink:href="#DejaVuSans-30" x="63.623047"/>
      </g>
     </g>
    </g>
    <g id="xtick_6">
     <g id="line2d_6">
      <g>
       <use xlink:href="#m2e36e62c43" x="352.945312" y="288.430125" style="stroke: #000000; stroke-width: 0.8"/>
      </g>
     </g>
     <g id="text_6">
      <!-- 11 -->
      <g transform="translate(346.582812 303.028562) scale(0.1 -0.1)">
       <use xlink:href="#DejaVuSans-31"/>
       <use xlink:href="#DejaVuSans-31" x="63.623047"/>
      </g>
     </g>
    </g>
    <g id="xtick_7">
     <g id="line2d_7">
      <g>
       <use xlink:href="#m2e36e62c43" x="412.465312" y="288.430125" style="stroke: #000000; stroke-width: 0.8"/>
      </g>
     </g>
     <g id="text_7">
      <!-- 12 -->
      <g transform="translate(406.102812 303.028562) scale(0.1 -0.1)">
       <defs>
        <path id="DejaVuSans-32" d="M 1228 531 
L 3431 531 
L 3431 0 
L 469 0 
L 469 531 
Q 828 903 1448 1529 
Q 2069 2156 2228 2338 
Q 2531 2678 2651 2914 
Q 2772 3150 2772 3378 
Q 2772 3750 2511 3984 
Q 2250 4219 1831 4219 
Q 1534 4219 1204 4116 
Q 875 4013 500 3803 
L 500 4441 
Q 881 4594 1212 4672 
Q 1544 4750 1819 4750 
Q 2544 4750 2975 4387 
Q 3406 4025 3406 3419 
Q 3406 3131 3298 2873 
Q 3191 2616 2906 2266 
Q 2828 2175 2409 1742 
Q 1991 1309 1228 531 
z
" transform="scale(0.015625)"/>
       </defs>
       <use xlink:href="#DejaVuSans-31"/>
       <use xlink:href="#DejaVuSans-32" x="63.623047"/>
      </g>
     </g>
    </g>
    <g id="text_8">
     <!-- Distance -->
     <g transform="translate(212.042812 316.706687) scale(0.1 -0.1)">
      <defs>
       <path id="DejaVuSans-44" d="M 1259 4147 
L 1259 519 
L 2022 519 
Q 2988 519 3436 956 
Q 3884 1394 3884 2338 
Q 3884 3275 3436 3711 
Q 2988 4147 2022 4147 
L 1259 4147 
z
M 628 4666 
L 1925 4666 
Q 3281 4666 3915 4102 
Q 4550 3538 4550 2338 
Q 4550 1131 3912 565 
Q 3275 0 1925 0 
L 628 0 
L 628 4666 
z
" transform="scale(0.015625)"/>
       <path id="DejaVuSans-69" d="M 603 3500 
L 1178 3500 
L 1178 0 
L 603 0 
L 603 3500 
z
M 603 4863 
L 1178 4863 
L 1178 4134 
L 603 4134 
L 603 4863 
z
" transform="scale(0.015625)"/>
       <path id="DejaVuSans-73" d="M 2834 3397 
L 2834 2853 
Q 2591 2978 2328 3040 
Q 2066 3103 1784 3103 
Q 1356 3103 1142 2972 
Q 928 2841 928 2578 
Q 928 2378 1081 2264 
Q 1234 2150 1697 2047 
L 1894 2003 
Q 2506 1872 2764 1633 
Q 3022 1394 3022 966 
Q 3022 478 2636 193 
Q 2250 -91 1575 -91 
Q 1294 -91 989 -36 
Q 684 19 347 128 
L 347 722 
Q 666 556 975 473 
Q 1284 391 1588 391 
Q 1994 391 2212 530 
Q 2431 669 2431 922 
Q 2431 1156 2273 1281 
Q 2116 1406 1581 1522 
L 1381 1569 
Q 847 1681 609 1914 
Q 372 2147 372 2553 
Q 372 3047 722 3315 
Q 1072 3584 1716 3584 
Q 2034 3584 2315 3537 
Q 2597 3491 2834 3397 
z
" transform="scale(0.015625)"/>
       <path id="DejaVuSans-74" d="M 1172 4494 
L 1172 3500 
L 2356 3500 
L 2356 3053 
L 1172 3053 
L 1172 1153 
Q 1172 725 1289 603 
Q 1406 481 1766 481 
L 2356 481 
L 2356 0 
L 1766 0 
Q 1100 0 847 248 
Q 594 497 594 1153 
L 594 3053 
L 172 3053 
L 172 3500 
L 594 3500 
L 594 4494 
L 1172 4494 
z
" transform="scale(0.015625)"/>
       <path id="DejaVuSans-61" d="M 2194 1759 
Q 1497 1759 1228 1600 
Q 959 1441 959 1056 
Q 959 750 1161 570 
Q 1363 391 1709 391 
Q 2188 391 2477 730 
Q 2766 1069 2766 1631 
L 2766 1759 
L 2194 1759 
z
M 3341 1997 
L 3341 0 
L 2766 0 
L 2766 531 
Q 2569 213 2275 61 
Q 1981 -91 1556 -91 
Q 1019 -91 701 211 
Q 384 513 384 1019 
Q 384 1609 779 1909 
Q 1175 2209 1959 2209 
L 2766 2209 
L 2766 2266 
Q 2766 2663 2505 2880 
Q 2244 3097 1772 3097 
Q 1472 3097 1187 3025 
Q 903 2953 641 2809 
L 641 3341 
Q 956 3463 1253 3523 
Q 1550 3584 1831 3584 
Q 2591 3584 2966 3190 
Q 3341 2797 3341 1997 
z
" transform="scale(0.015625)"/>
       <path id="DejaVuSans-6e" d="M 3513 2113 
L 3513 0 
L 2938 0 
L 2938 2094 
Q 2938 2591 2744 2837 
Q 2550 3084 2163 3084 
Q 1697 3084 1428 2787 
Q 1159 2491 1159 1978 
L 1159 0 
L 581 0 
L 581 3500 
L 1159 3500 
L 1159 2956 
Q 1366 3272 1645 3428 
Q 1925 3584 2291 3584 
Q 2894 3584 3203 3211 
Q 3513 2838 3513 2113 
z
" transform="scale(0.015625)"/>
       <path id="DejaVuSans-63" d="M 3122 3366 
L 3122 2828 
Q 2878 2963 2633 3030 
Q 2388 3097 2138 3097 
Q 1578 3097 1268 2742 
Q 959 2388 959 1747 
Q 959 1106 1268 751 
Q 1578 397 2138 397 
Q 2388 397 2633 464 
Q 2878 531 3122 666 
L 3122 134 
Q 2881 22 2623 -34 
Q 2366 -91 2075 -91 
Q 1284 -91 818 406 
Q 353 903 353 1747 
Q 353 2603 823 3093 
Q 1294 3584 2113 3584 
Q 2378 3584 2631 3529 
Q 2884 3475 3122 3366 
z
" transform="scale(0.015625)"/>
       <path id="DejaVuSans-65" d="M 3597 1894 
L 3597 1613 
L 953 1613 
Q 991 1019 1311 708 
Q 1631 397 2203 397 
Q 2534 397 2845 478 
Q 3156 559 3463 722 
L 3463 178 
Q 3153 47 2828 -22 
Q 2503 -91 2169 -91 
Q 1331 -91 842 396 
Q 353 884 353 1716 
Q 353 2575 817 3079 
Q 1281 3584 2069 3584 
Q 2775 3584 3186 3129 
Q 3597 2675 3597 1894 
z
M 3022 2063 
Q 3016 2534 2758 2815 
Q 2500 3097 2075 3097 
Q 1594 3097 1305 2825 
Q 1016 2553 972 2059 
L 3022 2063 
z
" transform="scale(0.015625)"/>
      </defs>
      <use xlink:href="#DejaVuSans-44"/>
      <use xlink:href="#DejaVuSans-69" x="77.001953"/>
      <use xlink:href="#DejaVuSans-73" x="104.785156"/>
      <use xlink:href="#DejaVuSans-74" x="156.884766"/>
      <use xlink:href="#DejaVuSans-61" x="196.09375"/>
      <use xlink:href="#DejaVuSans-6e" x="257.373047"/>
      <use xlink:href="#DejaVuSans-63" x="320.751953"/>
      <use xlink:href="#DejaVuSans-65" x="375.732422"/>
     </g>
    </g>
   </g>
   <g id="matplotlib.axis_2">
    <g id="ytick_1">
     <g id="line2d_8">
      <defs>
       <path id="m046f801f59" d="M 0 0 
L -3.5 0 
" style="stroke: #000000; stroke-width: 0.8"/>
      </defs>
      <g>
       <use xlink:href="#m046f801f59" x="55.345313" y="288.430125" style="stroke: #000000; stroke-width: 0.8"/>
      </g>
     </g>
     <g id="text_9">
      <!-- −100 -->
      <g transform="translate(20.878125 292.229344) scale(0.1 -0.1)">
       <defs>
        <path id="DejaVuSans-2212" d="M 678 2272 
L 4684 2272 
L 4684 1741 
L 678 1741 
L 678 2272 
z
" transform="scale(0.015625)"/>
       </defs>
       <use xlink:href="#DejaVuSans-2212"/>
       <use xlink:href="#DejaVuSans-31" x="83.789062"/>
       <use xlink:href="#DejaVuSans-30" x="147.412109"/>
       <use xlink:href="#DejaVuSans-30" x="211.035156"/>
      </g>
     </g>
    </g>
    <g id="ytick_2">
     <g id="line2d_9">
      <g>
       <use xlink:href="#m046f801f59" x="55.345313" y="255.166125" style="stroke: #000000; stroke-width: 0.8"/>
      </g>
     </g>
     <g id="text_10">
      <!-- −75 -->
      <g transform="translate(27.240625 258.965344) scale(0.1 -0.1)">
       <defs>
        <path id="DejaVuSans-35" d="M 691 4666 
L 3169 4666 
L 3169 4134 
L 1269 4134 
L 1269 2991 
Q 1406 3038 1543 3061 
Q 1681 3084 1819 3084 
Q 2600 3084 3056 2656 
Q 3513 2228 3513 1497 
Q 3513 744 3044 326 
Q 2575 -91 1722 -91 
Q 1428 -91 1123 -41 
Q 819 9 494 109 
L 494 744 
Q 775 591 1075 516 
Q 1375 441 1709 441 
Q 2250 441 2565 725 
Q 2881 1009 2881 1497 
Q 2881 1984 2565 2268 
Q 2250 2553 1709 2553 
Q 1456 2553 1204 2497 
Q 953 2441 691 2322 
L 691 4666 
z
" transform="scale(0.015625)"/>
       </defs>
       <use xlink:href="#DejaVuSans-2212"/>
       <use xlink:href="#DejaVuSans-37" x="83.789062"/>
       <use xlink:href="#DejaVuSans-35" x="147.412109"/>
      </g>
     </g>
    </g>
    <g id="ytick_3">
     <g id="line2d_10">
      <g>
       <use xlink:href="#m046f801f59" x="55.345313" y="221.902125" style="stroke: #000000; stroke-width: 0.8"/>
      </g>
     </g>
     <g id="text_11">
      <!-- −50 -->
      <g transform="translate(27.240625 225.701344) scale(0.1 -0.1)">
       <use xlink:href="#DejaVuSans-2212"/>
       <use xlink:href="#DejaVuSans-35" x="83.789062"/>
       <use xlink:href="#DejaVuSans-30" x="147.412109"/>
      </g>
     </g>
    </g>
    <g id="ytick_4">
     <g id="line2d_11">
      <g>
       <use xlink:href="#m046f801f59" x="55.345313" y="188.638125" style="stroke: #000000; stroke-width: 0.8"/>
      </g>
     </g>
     <g id="text_12">
      <!-- −25 -->
      <g transform="translate(27.240625 192.437344) scale(0.1 -0.1)">
       <use xlink:href="#DejaVuSans-2212"/>
       <use xlink:href="#DejaVuSans-32" x="83.789062"/>
       <use xlink:href="#DejaVuSans-35" x="147.412109"/>
      </g>
     </g>
    </g>
    <g id="ytick_5">
     <g id="line2d_12">
      <g>
       <use xlink:href="#m046f801f59" x="55.345313" y="155.374125" style="stroke: #000000; stroke-width: 0.8"/>
      </g>
     </g>
     <g id="text_13">
      <!-- 0 -->
      <g transform="translate(41.982813 159.173344) scale(0.1 -0.1)">
       <use xlink:href="#DejaVuSans-30"/>
      </g>
     </g>
    </g>
    <g id="ytick_6">
     <g id="line2d_13">
      <g>
       <use xlink:href="#m046f801f59" x="55.345313" y="122.110125" style="stroke: #000000; stroke-width: 0.8"/>
      </g>
     </g>
     <g id="text_14">
      <!-- 25 -->
      <g transform="translate(35.620313 125.909344) scale(0.1 -0.1)">
       <use xlink:href="#DejaVuSans-32"/>
       <use xlink:href="#DejaVuSans-35" x="63.623047"/>
      </g>
     </g>
    </g>
    <g id="ytick_7">
     <g id="line2d_14">
      <g>
       <use xlink:href="#m046f801f59" x="55.345313" y="88.846125" style="stroke: #000000; stroke-width: 0.8"/>
      </g>
     </g>
     <g id="text_15">
      <!-- 50 -->
      <g transform="translate(35.620313 92.645344) scale(0.1 -0.1)">
       <use xlink:href="#DejaVuSans-35"/>
       <use xlink:href="#DejaVuSans-30" x="63.623047"/>
      </g>
     </g>
    </g>
    <g id="ytick_8">
     <g id="line2d_15">
      <g>
       <use xlink:href="#m046f801f59" x="55.345313" y="55.582125" style="stroke: #000000; stroke-width: 0.8"/>
      </g>
     </g>
     <g id="text_16">
      <!-- 75 -->
      <g transform="translate(35.620313 59.381344) scale(0.1 -0.1)">
       <use xlink:href="#DejaVuSans-37"/>
       <use xlink:href="#DejaVuSans-35" x="63.623047"/>
      </g>
     </g>
    </g>
    <g id="ytick_9">
     <g id="line2d_16">
      <g>
       <use xlink:href="#m046f801f59" x="55.345313" y="22.318125" style="stroke: #000000; stroke-width: 0.8"/>
      </g>
     </g>
     <g id="text_17">
      <!-- 100 -->
      <g transform="translate(29.257813 26.117344) scale(0.1 -0.1)">
       <use xlink:href="#DejaVuSans-31"/>
       <use xlink:href="#DejaVuSans-30" x="63.623047"/>
       <use xlink:href="#DejaVuSans-30" x="127.246094"/>
      </g>
     </g>
    </g>
    <g id="text_18">
     <!-- Angle -->
     <g transform="translate(14.798438 169.603031) rotate(-90) scale(0.1 -0.1)">
      <defs>
       <path id="DejaVuSans-41" d="M 2188 4044 
L 1331 1722 
L 3047 1722 
L 2188 4044 
z
M 1831 4666 
L 2547 4666 
L 4325 0 
L 3669 0 
L 3244 1197 
L 1141 1197 
L 716 0 
L 50 0 
L 1831 4666 
z
" transform="scale(0.015625)"/>
       <path id="DejaVuSans-67" d="M 2906 1791 
Q 2906 2416 2648 2759 
Q 2391 3103 1925 3103 
Q 1463 3103 1205 2759 
Q 947 2416 947 1791 
Q 947 1169 1205 825 
Q 1463 481 1925 481 
Q 2391 481 2648 825 
Q 2906 1169 2906 1791 
z
M 3481 434 
Q 3481 -459 3084 -895 
Q 2688 -1331 1869 -1331 
Q 1566 -1331 1297 -1286 
Q 1028 -1241 775 -1147 
L 775 -588 
Q 1028 -725 1275 -790 
Q 1522 -856 1778 -856 
Q 2344 -856 2625 -561 
Q 2906 -266 2906 331 
L 2906 616 
Q 2728 306 2450 153 
Q 2172 0 1784 0 
Q 1141 0 747 490 
Q 353 981 353 1791 
Q 353 2603 747 3093 
Q 1141 3584 1784 3584 
Q 2172 3584 2450 3431 
Q 2728 3278 2906 2969 
L 2906 3500 
L 3481 3500 
L 3481 434 
z
" transform="scale(0.015625)"/>
       <path id="DejaVuSans-6c" d="M 603 4863 
L 1178 4863 
L 1178 0 
L 603 0 
L 603 4863 
z
" transform="scale(0.015625)"/>
      </defs>
      <use xlink:href="#DejaVuSans-41"/>
      <use xlink:href="#DejaVuSans-6e" x="68.408203"/>
      <use xlink:href="#DejaVuSans-67" x="131.787109"/>
      <use xlink:href="#DejaVuSans-6c" x="195.263672"/>
      <use xlink:href="#DejaVuSans-65" x="223.046875"/>
     </g>
    </g>
   </g>
   <g id="PathCollection_1"/>
   <g id="PathCollection_2">
    <path d="M 55.345312 198.251047 
L 57.081415 196.160135 
L 59.703971 193.485643 
L 62.708179 190.81115 
L 64.313351 189.473904 
L 67.930128 186.799411 
L 72.035415 184.124919 
L 76.988949 181.305517 
L 82.039893 178.775934 
L 87.810767 176.26971 
L 91.751816 174.764195 
L 98.632585 172.468015 
L 105.847131 170.516042 
L 113.061676 168.964977 
L 120.276222 167.788968 
L 127.490767 166.932404 
L 134.705312 166.3353 
L 141.919858 165.95523 
L 152.741676 165.653395 
L 163.563494 165.372569 
L 170.77804 164.892516 
L 177.336414 164.066226 
L 177.992585 163.933019 
L 182.533501 162.728979 
L 185.03506 161.391733 
L 185.821853 160.054487 
L 185.398939 158.717241 
L 184.059226 157.379994 
L 181.599858 155.769206 
L 177.318325 153.368256 
L 170.77804 149.726006 
L 166.154013 146.682024 
L 162.726463 144.007532 
L 159.866324 141.33304 
L 157.467198 138.658547 
L 155.541833 135.984055 
L 154.02442 133.309562 
L 152.944777 130.63507 
L 152.209037 127.960577 
L 151.848967 125.286085 
L 151.865052 122.611592 
L 152.24799 119.9371 
L 152.972833 117.262607 
L 153.989191 114.588115 
L 155.368251 111.913622 
L 157.067697 109.23913 
L 159.083309 106.564638 
L 161.433055 103.890145 
L 164.189108 101.215653 
L 167.170767 98.709278 
L 169.108272 97.203914 
L 173.058813 94.529421 
L 177.992585 91.658698 
L 182.702807 89.180437 
L 192.421676 84.634153 
L 199.636222 81.479068 
L 206.87588 78.482467 
L 214.065313 75.743633 
L 221.279858 73.374718 
L 227.292435 71.796236 
L 228.494403 71.505921 
L 233.998602 70.458989 
L 235.708949 70.169781 
L 239.316222 69.685137 
L 246.530767 69.047781 
L 253.745312 68.706561 
L 275.388949 68.062223 
L 282.603494 67.489343 
L 291.180411 66.447251 
L 311.461676 63.562762 
L 315.068949 63.216376 
L 318.676222 62.985791 
L 322.283494 62.893469 
L 325.890767 62.964824 
L 329.49804 63.230076 
L 333.336483 63.772758 
L 336.712585 64.480439 
L 340.319858 65.546233 
L 343.927131 66.956816 
L 348.216375 69.121743 
L 352.588662 71.796236 
L 358.383202 75.807974 
L 369.863605 83.831452 
L 379.999858 90.743366 
L 383.607131 93.461985 
L 386.414809 95.866668 
L 388.981049 98.54116 
L 390.821676 101.066458 
L 390.920868 101.215653 
L 391.67062 102.552899 
L 392.265353 103.890145 
L 392.710461 105.227391 
L 393.010889 106.564638 
L 393.171026 107.901884 
L 393.194635 109.23913 
L 393.084774 110.576376 
L 392.843733 111.913622 
L 392.472974 113.250869 
L 391.973071 114.588115 
L 390.821676 116.846007 
L 389.718472 118.599854 
L 387.584901 121.274346 
L 384.96475 123.948839 
L 381.853927 126.623331 
L 378.289211 129.297823 
L 372.785313 132.960242 
L 367.923707 135.984055 
L 358.356222 141.90735 
L 354.748949 144.307354 
L 351.141676 146.928495 
L 348.187529 149.356517 
L 345.513298 152.031009 
L 344.451784 153.368256 
L 343.604033 154.705502 
L 342.991413 156.042748 
L 342.642405 157.379994 
L 342.57494 158.717241 
L 342.799623 160.054487 
L 343.31802 161.391733 
L 344.113616 162.728979 
L 345.134022 164.066226 
L 347.534403 166.499956 
L 349.273304 168.077964 
L 360.284333 177.438688 
L 365.570767 182.4627 
L 368.523843 185.462165 
L 373.360957 190.81115 
L 375.555772 193.485643 
L 378.462522 197.497381 
L 380.052059 200.171874 
L 381.416242 202.846366 
L 382.441619 205.520859 
L 383.135343 208.195351 
L 383.503723 210.869844 
L 383.549294 213.544336 
L 383.267674 216.218829 
L 382.644236 218.893321 
L 381.650466 221.567813 
L 380.239793 224.242306 
L 378.478845 226.916798 
L 376.22659 229.591291 
L 374.977428 230.928537 
L 372.052998 233.60303 
L 368.655263 236.277522 
L 364.787541 238.952014 
L 360.440555 241.626507 
L 354.748949 244.728789 
L 350.238028 246.975492 
L 343.927131 249.82165 
L 336.712585 252.751273 
L 329.49804 255.385328 
L 322.283494 257.786029 
L 311.461676 261.078831 
L 300.639858 264.03669 
L 293.425312 265.785082 
L 286.210767 267.303238 
L 278.996222 268.525275 
L 271.781676 269.429299 
L 264.567131 270.012879 
L 257.352585 270.322464 
L 250.13804 270.425384 
L 235.708949 270.334214 
L 196.028949 269.978607 
L 177.992585 269.814715 
L 170.77804 269.601087 
L 163.563494 269.196489 
L 156.348949 268.493788 
L 149.134403 267.44883 
L 141.919858 265.998593 
L 134.705312 264.146335 
L 126.750062 261.6852 
L 119.079247 259.010708 
L 104.076831 253.661723 
L 98.632585 251.906199 
L 91.084212 249.649984 
L 80.596222 246.549468 
L 74.05493 244.300999 
L 70.684921 242.963753 
L 67.69079 241.626507 
L 65.031967 240.289261 
L 62.559858 238.882002 
L 58.952585 236.456824 
L 57.037618 234.940276 
L 55.345312 233.372598 
L 55.345312 233.372598 
" clip-path="url(#p9c0bd36306)" style="fill: none; stroke: #dbe9f6; stroke-width: 1.5"/>
   </g>
   <g id="PathCollection_3">
    <path d="M 65.614622 222.90506 
L 64.847908 221.567813 
L 64.236584 220.230567 
L 63.768384 218.893321 
L 63.432924 217.556075 
L 63.22158 216.218829 
L 63.127385 214.881582 
L 63.144941 213.544336 
L 63.270351 212.20709 
L 63.501168 210.869844 
L 63.83637 209.532597 
L 64.27635 208.195351 
L 64.822937 206.858105 
L 65.479439 205.520859 
L 66.167131 204.326202 
L 66.245949 204.183612 
L 67.085102 202.846366 
L 68.041182 201.50912 
L 69.122836 200.171874 
L 69.774403 199.445364 
L 70.310815 198.834628 
L 71.600482 197.497381 
L 73.037669 196.160135 
L 73.381676 195.86269 
L 74.58029 194.822889 
L 76.272379 193.485643 
L 76.988949 192.958969 
L 78.105627 192.148396 
L 80.102492 190.81115 
L 80.596222 190.499064 
L 82.264573 189.473904 
L 84.203494 188.368749 
L 84.6285 188.136658 
L 87.202021 186.799411 
L 87.810767 186.498024 
L 90.030838 185.462165 
L 91.41804 184.844442 
L 93.159848 184.124919 
L 95.025312 183.381021 
L 96.65648 182.787673 
L 98.632585 182.085912 
L 100.630259 181.450427 
L 102.239858 180.944945 
L 105.255684 180.11318 
L 105.847131 179.950349 
L 109.454403 179.084039 
L 110.974077 178.775934 
L 113.061676 178.345792 
L 116.668949 177.732955 
L 118.840219 177.438688 
L 120.276222 177.237278 
L 123.883494 176.849606 
L 127.490767 176.57624 
L 131.09804 176.409446 
L 134.705312 176.342542 
L 138.312585 176.368889 
L 141.919858 176.480719 
L 145.527131 176.66786 
L 149.134403 176.916541 
L 152.741676 177.20857 
L 155.417015 177.438688 
L 156.348949 177.517408 
L 159.956222 177.809599 
L 163.563494 178.070262 
L 167.170767 178.27719 
L 170.77804 178.414719 
L 174.385312 178.475955 
L 177.992585 178.463193 
L 181.599858 178.386546 
L 185.207131 178.261403 
L 188.814403 178.1056 
L 192.421676 177.936965 
L 196.028949 177.771612 
L 199.636222 177.622985 
L 203.243494 177.501491 
L 205.863991 177.438688 
L 206.850767 177.412769 
L 210.45804 177.361404 
L 214.065312 177.35425 
L 217.672585 177.391399 
L 219.848843 177.438688 
L 221.279858 177.468781 
L 224.887131 177.579082 
L 228.494403 177.721487 
L 232.101676 177.891356 
L 235.708949 178.083997 
L 239.316222 178.295052 
L 242.923494 178.520744 
L 246.530767 178.757932 
L 246.80466 178.775934 
L 250.13804 178.985888 
L 253.745312 179.217571 
L 257.352585 179.451789 
L 260.959858 179.685019 
L 264.567131 179.912356 
L 267.941958 180.11318 
L 268.174403 180.126315 
L 271.781676 180.307283 
L 275.388949 180.462052 
L 278.996222 180.583233 
L 282.603494 180.665271 
L 286.210767 180.706007 
L 289.81804 180.708023 
L 293.425312 180.679442 
L 297.032585 180.634041 
L 300.639858 180.5907 
L 304.247131 180.572476 
L 307.854403 180.605659 
L 311.461676 180.719135 
L 315.068949 180.944251 
L 318.676222 181.315203 
L 319.569524 181.450427 
L 322.283494 181.853421 
L 325.890767 182.607058 
L 326.549259 182.787673 
L 329.49804 183.606273 
L 330.966464 184.124919 
L 333.105312 184.90438 
L 334.36347 185.462165 
L 336.712585 186.556239 
L 337.159838 186.799411 
L 339.503641 188.136658 
L 340.319858 188.632924 
L 341.556271 189.473904 
L 343.383565 190.81115 
L 343.927131 191.236016 
L 345.012755 192.148396 
L 346.484322 193.485643 
L 347.534403 194.526316 
L 347.822796 194.822889 
L 349.036269 196.160135 
L 350.136012 197.497381 
L 351.125941 198.834628 
L 351.141676 198.857921 
L 352.031058 200.171874 
L 352.833979 201.50912 
L 353.536095 202.846366 
L 354.138793 204.183612 
L 354.643103 205.520859 
L 354.748949 205.866462 
L 355.063698 206.858105 
L 355.387933 208.195351 
L 355.610606 209.532597 
L 355.730987 210.869844 
L 355.747987 212.20709 
L 355.66012 213.544336 
L 355.465459 214.881582 
L 355.161589 216.218829 
L 354.748949 217.545247 
L 354.745717 217.556075 
L 354.240767 218.893321 
L 353.622421 220.230567 
L 352.886072 221.567813 
L 352.026345 222.90506 
L 351.141676 224.103597 
L 351.041787 224.242306 
L 349.967676 225.579552 
L 348.756775 226.916798 
L 347.534403 228.125371 
L 347.405883 228.254045 
L 345.956517 229.591291 
L 344.350359 230.928537 
L 343.927131 231.255982 
L 342.62386 232.265783 
L 340.740947 233.60303 
L 340.319858 233.883767 
L 338.723816 234.940276 
L 336.712585 236.170709 
L 336.535547 236.277522 
L 334.202624 237.614768 
L 333.105312 238.206088 
L 331.692996 238.952014 
L 329.49804 240.047881 
L 329.00237 240.289261 
L 326.130755 241.626507 
L 325.890767 241.734149 
L 323.070641 242.963753 
L 322.283494 243.294267 
L 319.809409 244.300999 
L 318.676222 244.748043 
L 316.341079 245.638246 
L 315.068949 246.111314 
L 312.656841 246.975492 
L 311.461676 247.395502 
L 308.742568 248.312738 
L 307.854403 248.608073 
L 304.574461 249.649984 
L 304.247131 249.752927 
L 300.639858 250.833942 
L 300.097507 250.987231 
L 297.032585 251.849954 
L 295.222619 252.324477 
L 293.425312 252.795113 
L 289.827426 253.661723 
L 289.81804 253.663987 
L 286.210767 254.462208 
L 283.491206 254.998969 
L 282.603494 255.174973 
L 278.996222 255.808564 
L 275.509545 256.336215 
L 275.388949 256.354596 
L 271.781676 256.827007 
L 268.174403 257.220604 
L 264.567131 257.543988 
L 262.807021 257.673462 
L 260.959858 257.810666 
L 257.352585 258.03028 
L 253.745312 258.210498 
L 250.13804 258.361598 
L 246.530767 258.492498 
L 242.923494 258.61037 
L 239.316222 258.720504 
L 235.708949 258.826401 
L 232.101676 258.930036 
L 229.26594 259.010708 
L 228.494403 259.033152 
L 224.887131 259.138405 
L 221.279858 259.24181 
L 217.672585 259.342493 
L 214.065313 259.439404 
L 210.45804 259.53132 
L 206.850767 259.616754 
L 203.243494 259.693797 
L 199.636222 259.759916 
L 196.028949 259.811759 
L 192.421676 259.84497 
L 188.814403 259.854041 
L 185.207131 259.832218 
L 181.599858 259.771448 
L 177.992585 259.662387 
L 174.385312 259.49445 
L 170.77804 259.255927 
L 168.011956 259.010708 
L 167.170767 258.93724 
L 163.563494 258.535389 
L 159.956222 258.026896 
L 157.890647 257.673462 
L 156.348949 257.408043 
L 152.741676 256.673216 
L 151.308381 256.336215 
L 149.134403 255.81577 
L 146.131758 254.998969 
L 145.527131 254.830586 
L 141.919858 253.725781 
L 141.724768 253.661723 
L 138.312585 252.511947 
L 137.785059 252.324477 
L 134.705312 251.203422 
L 134.129143 250.987231 
L 131.09804 249.82837 
L 130.63576 249.649984 
L 127.490767 248.423793 
L 127.20307 248.312738 
L 123.883494 247.03199 
L 123.73305 246.975492 
L 120.276222 245.693347 
L 120.121465 245.638246 
L 116.668949 244.43778 
L 116.255375 244.300999 
L 113.061676 243.278647 
L 112.025027 242.963753 
L 109.454403 242.21184 
L 107.359922 241.626507 
L 105.847131 241.219658 
L 102.289878 240.289261 
L 102.239858 240.276619 
L 98.632585 239.373638 
L 96.988237 238.952014 
L 95.025313 238.457937 
L 91.865205 237.614768 
L 91.41804 237.495928 
L 87.810767 236.457974 
L 87.240406 236.277522 
L 84.203494 235.291962 
L 83.234123 234.940276 
L 80.596222 233.936975 
L 79.811209 233.60303 
L 76.988949 232.313476 
L 76.894859 232.265783 
L 74.429787 230.928537 
L 73.381676 230.294661 
L 72.313986 229.591291 
L 70.507488 228.254045 
L 69.774403 227.639434 
L 68.962835 226.916798 
L 67.64997 225.579552 
L 66.544121 224.242306 
L 66.167131 223.70782 
L 65.614622 222.90506 
z
" clip-path="url(#p9c0bd36306)" style="fill: none; stroke: #bad6eb; stroke-width: 1.5"/>
    <path d="M 177.93609 130.63507 
L 177.151005 129.297823 
L 176.549359 127.960577 
L 176.116799 126.623331 
L 175.841333 125.286085 
L 175.713145 123.948839 
L 175.724447 122.611592 
L 175.869361 121.274346 
L 176.143838 119.9371 
L 176.545608 118.599854 
L 177.074174 117.262607 
L 177.730836 115.925361 
L 177.992585 115.476263 
L 178.48987 114.588115 
L 179.358681 113.250869 
L 180.356242 111.913622 
L 181.49013 110.576376 
L 181.599858 110.458503 
L 182.700735 109.23913 
L 184.044791 107.901884 
L 185.207131 106.854872 
L 185.521892 106.564638 
L 187.082723 105.227391 
L 188.804983 103.890145 
L 188.814403 103.883221 
L 190.595357 102.552899 
L 192.421676 101.305339 
L 192.551843 101.215653 
L 194.588868 99.878406 
L 196.028949 98.998564 
L 196.77739 98.54116 
L 199.086663 97.203914 
L 199.636222 96.899802 
L 201.520486 95.866668 
L 203.243494 94.97037 
L 204.109 94.529421 
L 206.850767 93.192768 
L 206.852024 93.192175 
L 209.759402 91.854929 
L 210.45804 91.54401 
L 212.880562 90.517683 
L 214.065313 90.028197 
L 216.258677 89.180437 
L 217.672585 88.643383 
L 219.969004 87.84319 
L 221.279858 87.390906 
L 224.13769 86.505944 
L 224.887131 86.274434 
L 228.494403 85.293853 
L 229.030207 85.168698 
L 232.101676 84.44397 
L 235.245849 83.831452 
L 235.708949 83.739661 
L 239.316222 83.157254 
L 242.923494 82.709267 
L 245.28201 82.494205 
L 246.530767 82.376437 
L 250.13804 82.144426 
L 253.745312 82.005142 
L 257.352585 81.940027 
L 260.959858 81.928979 
L 264.567131 81.950539 
L 268.174403 81.982579 
L 271.781676 82.003535 
L 275.388949 81.994066 
L 278.996222 81.938933 
L 282.603494 81.828785 
L 286.210767 81.661533 
L 289.81804 81.443088 
L 293.425312 81.187371 
L 293.837481 81.156959 
L 297.032585 80.911273 
L 300.639858 80.647388 
L 304.247131 80.428822 
L 307.854403 80.291039 
L 311.461676 80.270981 
L 315.068949 80.405637 
L 318.676222 80.730691 
L 321.502622 81.156959 
L 322.283494 81.277888 
L 325.890767 82.069583 
L 327.366966 82.494205 
L 329.49804 83.12557 
L 331.445461 83.831452 
L 333.105312 84.451774 
L 334.757361 85.168698 
L 336.712585 86.04472 
L 337.63456 86.505944 
L 340.220726 87.84319 
L 340.319858 87.895903 
L 342.558744 89.180437 
L 343.927131 89.999668 
L 344.748892 90.517683 
L 346.786412 91.854929 
L 347.534403 92.369482 
L 348.696132 93.192175 
L 350.480198 94.529421 
L 351.141676 95.05665 
L 352.147836 95.866668 
L 353.691779 97.203914 
L 354.748949 98.202728 
L 355.109247 98.54116 
L 356.408727 99.878406 
L 357.563432 101.215653 
L 358.356222 102.266879 
L 358.57616 102.552899 
L 359.457397 103.890145 
L 360.179401 105.227391 
L 360.739666 106.564638 
L 361.136118 107.901884 
L 361.36707 109.23913 
L 361.431176 110.576376 
L 361.327384 111.913622 
L 361.054899 113.250869 
L 360.613155 114.588115 
L 360.001785 115.925361 
L 359.220603 117.262607 
L 358.356222 118.478878 
L 358.272514 118.599854 
L 357.189859 119.9371 
L 355.943982 121.274346 
L 354.748949 122.411077 
L 354.54235 122.611592 
L 353.023215 123.948839 
L 351.349259 125.286085 
L 351.141676 125.440394 
L 349.56832 126.623331 
L 347.646567 127.960577 
L 347.534403 128.034613 
L 345.623634 129.297823 
L 343.927131 130.353445 
L 343.470466 130.63507 
L 341.20559 131.972316 
L 340.319858 132.474588 
L 338.812833 133.309562 
L 336.712585 134.429131 
L 336.288778 134.646808 
L 333.615794 135.984055 
L 333.105312 136.234262 
L 330.763001 137.321301 
L 329.49804 137.897274 
L 327.704433 138.658547 
L 325.890767 139.418717 
L 324.390606 139.995793 
L 322.283494 140.801582 
L 320.746674 141.33304 
L 318.676222 142.049756 
L 316.667243 142.670286 
L 315.068949 143.168012 
L 312.01365 144.007532 
L 311.461676 144.161587 
L 307.854403 145.054361 
L 306.524954 145.344778 
L 304.247131 145.854201 
L 300.639858 146.56543 
L 299.988237 146.682024 
L 297.032585 147.227702 
L 293.425312 147.825375 
L 292.157598 148.019271 
L 289.81804 148.39146 
L 286.210767 148.918548 
L 282.916544 149.356517 
L 282.603494 149.400199 
L 278.996222 149.866669 
L 275.388949 150.278016 
L 271.781676 150.63013 
L 271.000852 150.693763 
L 268.174403 150.93889 
L 264.567131 151.177483 
L 260.959858 151.335408 
L 257.352585 151.409408 
L 253.745312 151.397691 
L 250.13804 151.299878 
L 246.530767 151.116747 
L 242.923494 150.849826 
L 241.311448 150.693763 
L 239.316222 150.518405 
L 235.708949 150.128794 
L 232.101676 149.668305 
L 229.974479 149.356517 
L 228.494403 149.155152 
L 224.887131 148.602405 
L 221.487368 148.019271 
L 221.279858 147.985538 
L 217.672585 147.344184 
L 214.312226 146.682024 
L 214.065313 146.634858 
L 210.45804 145.889001 
L 208.068422 145.344778 
L 206.850767 145.069213 
L 203.243494 144.174059 
L 202.626664 144.007532 
L 199.636222 143.183007 
L 197.954654 142.670286 
L 196.028949 142.057577 
L 193.967532 141.33304 
L 192.421676 140.752959 
L 190.587251 139.995793 
L 188.814403 139.195182 
L 187.725539 138.658547 
L 185.303823 137.321301 
L 185.207131 137.261971 
L 183.26563 135.984055 
L 181.599858 134.692116 
L 181.544543 134.646808 
L 180.102646 133.309562 
L 178.908242 131.972316 
L 177.992585 130.714403 
L 177.93609 130.63507 
z
" clip-path="url(#p9c0bd36306)" style="fill: none; stroke: #bad6eb; stroke-width: 1.5"/>
   </g>
   <g id="PathCollection_4">
    <path d="M 76.388526 217.556075 
L 75.861517 216.218829 
L 75.510587 214.881582 
L 75.324338 213.544336 
L 75.293588 212.20709 
L 75.41126 210.869844 
L 75.67231 209.532597 
L 76.073668 208.195351 
L 76.614206 206.858105 
L 76.988949 206.12004 
L 77.292244 205.520859 
L 78.105514 204.183612 
L 79.059481 202.846366 
L 80.159731 201.50912 
L 80.596222 201.037624 
L 81.410839 200.171874 
L 82.817005 198.834628 
L 84.203494 197.652125 
L 84.390987 197.497381 
L 86.149743 196.160135 
L 87.810767 195.012884 
L 88.099927 194.822889 
L 90.280386 193.485643 
L 91.41804 192.83797 
L 92.714225 192.148396 
L 95.025312 190.998057 
L 95.434427 190.81115 
L 98.521028 189.473904 
L 98.632585 189.427616 
L 102.092363 188.136658 
L 102.239858 188.083621 
L 105.847131 186.937465 
L 106.35292 186.799411 
L 109.454403 185.969212 
L 111.730829 185.462165 
L 113.061676 185.168113 
L 116.668949 184.52311 
L 119.580248 184.124919 
L 120.276222 184.028843 
L 123.883494 183.675366 
L 127.490767 183.462308 
L 131.09804 183.383135 
L 134.705312 183.43081 
L 138.312585 183.596132 
L 141.919858 183.865969 
L 144.564536 184.124919 
L 145.527131 184.220591 
L 149.134403 184.6316 
L 152.741676 185.070133 
L 156.027981 185.462165 
L 156.348949 185.500647 
L 159.956222 185.883494 
L 163.563494 186.194048 
L 167.170767 186.414244 
L 170.77804 186.538208 
L 174.385312 186.571817 
L 177.992585 186.530276 
L 181.599858 186.434717 
L 185.207131 186.308795 
L 188.814403 186.175965 
L 192.421676 186.05762 
L 196.028949 185.972033 
L 199.636222 185.933871 
L 203.243494 185.954047 
L 206.850767 186.039753 
L 210.45804 186.194574 
L 214.065313 186.418676 
L 217.672585 186.709096 
L 218.622833 186.799411 
L 221.279858 187.051659 
L 224.887131 187.441487 
L 228.494403 187.872356 
L 230.58511 188.136658 
L 232.101676 188.328513 
L 235.708949 188.797463 
L 239.316222 189.280436 
L 240.76346 189.473904 
L 242.923494 189.762996 
L 246.530767 190.244268 
L 250.13804 190.728211 
L 250.771431 190.81115 
L 253.745312 191.202638 
L 257.352585 191.673969 
L 260.959858 192.140637 
L 261.023181 192.148396 
L 264.567131 192.587437 
L 268.174403 193.014365 
L 271.781676 193.409502 
L 272.581969 193.485643 
L 275.388949 193.756054 
L 278.996222 194.044524 
L 282.603494 194.266442 
L 286.210767 194.418548 
L 289.81804 194.505833 
L 293.425312 194.542509 
L 297.032585 194.551797 
L 300.639858 194.564874 
L 304.247131 194.619587 
L 307.854403 194.759448 
L 308.706232 194.822889 
L 311.461676 195.035421 
L 315.068949 195.504488 
L 318.341769 196.160135 
L 318.676222 196.231792 
L 322.283494 197.31589 
L 322.740473 197.497381 
L 325.783359 198.834628 
L 325.890767 198.887285 
L 328.013575 200.171874 
L 329.49804 201.210956 
L 329.861291 201.50912 
L 331.294922 202.846366 
L 332.499951 204.183612 
L 333.105312 204.990083 
L 333.465762 205.520859 
L 334.209833 206.858105 
L 334.783785 208.195351 
L 335.194859 209.532597 
L 335.449129 210.869844 
L 335.551542 212.20709 
L 335.50594 213.544336 
L 335.315077 214.881582 
L 334.980621 216.218829 
L 334.503153 217.556075 
L 333.882151 218.893321 
L 333.115967 220.230567 
L 333.105312 220.246274 
L 332.186553 221.567813 
L 331.109957 222.90506 
L 329.882445 224.242306 
L 329.49804 224.617285 
L 328.477572 225.579552 
L 326.909207 226.916798 
L 325.890767 227.709285 
L 325.160571 228.254045 
L 323.222849 229.591291 
L 322.283494 230.194149 
L 321.082734 230.928537 
L 318.750142 232.265783 
L 318.676222 232.305973 
L 316.163094 233.60303 
L 315.068949 234.140298 
L 313.344163 234.940276 
L 311.461676 235.778555 
L 310.270792 236.277522 
L 307.854403 237.257147 
L 306.914062 237.614768 
L 304.247131 238.602496 
L 303.238599 238.952014 
L 300.639858 239.83357 
L 299.200639 240.289261 
L 297.032585 240.96376 
L 294.74308 241.626507 
L 293.425312 242.002319 
L 289.81804 242.955407 
L 289.783842 242.963753 
L 286.210767 243.822615 
L 284.042777 244.300999 
L 282.603494 244.613892 
L 278.996222 245.329686 
L 277.289956 245.638246 
L 275.388949 245.975757 
L 271.781676 246.557091 
L 268.917393 246.975492 
L 268.174403 247.081731 
L 264.567131 247.555421 
L 260.959858 247.98727 
L 258.015665 248.312738 
L 257.352585 248.384327 
L 253.745312 248.754005 
L 250.13804 249.100884 
L 246.530767 249.428865 
L 243.995554 249.649984 
L 242.923494 249.741812 
L 239.316222 250.04335 
L 235.708949 250.331708 
L 232.101676 250.607004 
L 228.494403 250.868961 
L 226.797325 250.987231 
L 224.887131 251.119854 
L 221.279858 251.358606 
L 217.672585 251.58173 
L 214.065313 251.787994 
L 210.45804 251.975834 
L 206.850767 252.143205 
L 203.243494 252.287403 
L 202.111988 252.324477 
L 199.636222 252.407007 
L 196.028949 252.49542 
L 192.421676 252.545833 
L 188.814403 252.551179 
L 185.207131 252.503069 
L 181.599858 252.391772 
L 180.278431 252.324477 
L 177.992585 252.208801 
L 174.385312 251.942419 
L 170.77804 251.57809 
L 167.170767 251.102216 
L 166.46111 250.987231 
L 163.563494 250.508384 
L 159.956222 249.780135 
L 159.400366 249.649984 
L 156.348949 248.913324 
L 154.180442 248.312738 
L 152.741676 247.900044 
L 149.836238 246.975492 
L 149.134403 246.743888 
L 146.019805 245.638246 
L 145.527131 245.457322 
L 142.514864 244.300999 
L 141.919858 244.06626 
L 139.173637 242.963753 
L 138.312585 242.612158 
L 135.880059 241.626507 
L 134.705312 241.148725 
L 132.525801 240.289261 
L 131.09804 239.732183 
L 128.993236 238.952014 
L 127.490767 238.408247 
L 125.14541 237.614768 
L 123.883494 237.202097 
L 120.830786 236.277522 
L 120.276222 236.116043 
L 116.668949 235.139897 
L 115.884589 234.940276 
L 113.061676 234.247623 
L 110.330916 233.60303 
L 109.454403 233.401841 
L 105.847131 232.575912 
L 104.530661 232.265783 
L 102.239858 231.729044 
L 99.060342 230.928537 
L 98.632585 230.819367 
L 95.025312 229.80366 
L 94.352325 229.591291 
L 91.41804 228.618573 
L 90.450726 228.254045 
L 87.810767 227.180555 
L 87.239167 226.916798 
L 84.608972 225.579552 
L 84.203494 225.349261 
L 82.462706 224.242306 
L 80.668391 222.90506 
L 80.596222 222.84345 
L 79.229729 221.567813 
L 78.051462 220.230567 
L 77.107666 218.893321 
L 76.988949 218.682315 
L 76.388526 217.556075 
z
" clip-path="url(#p9c0bd36306)" style="fill: none; stroke: #89bedc; stroke-width: 1.5"/>
    <path d="M 195.502313 126.623331 
L 194.734499 125.286085 
L 194.207262 123.948839 
L 193.900671 122.611592 
L 193.79798 121.274346 
L 193.88538 119.9371 
L 194.151784 118.599854 
L 194.588654 117.262607 
L 195.189855 115.925361 
L 195.951571 114.588115 
L 196.028949 114.475363 
L 196.865542 113.250869 
L 197.931372 111.913622 
L 199.15059 110.576376 
L 199.636222 110.100595 
L 200.522018 109.23913 
L 202.044783 107.901884 
L 203.243494 106.943602 
L 203.726906 106.564638 
L 205.571354 105.227391 
L 206.850767 104.368932 
L 207.588547 103.890145 
L 209.78864 102.552899 
L 210.45804 102.168983 
L 212.203718 101.215653 
L 214.065313 100.254715 
L 214.844205 99.878406 
L 217.672585 98.575146 
L 217.752954 98.54116 
L 221.033007 97.203914 
L 221.279858 97.106534 
L 224.7827 95.866668 
L 224.887131 95.830618 
L 228.494403 94.73702 
L 229.301061 94.529421 
L 232.101676 93.817604 
L 235.108589 93.192175 
L 235.708949 93.067791 
L 239.316222 92.477796 
L 242.923494 92.042795 
L 245.250675 91.854929 
L 246.530767 91.750274 
L 250.13804 91.58794 
L 253.745312 91.542338 
L 257.352585 91.595953 
L 260.959858 91.729257 
L 263.340013 91.854929 
L 264.567131 91.920753 
L 268.174403 92.148255 
L 271.781676 92.391427 
L 275.388949 92.63116 
L 278.996222 92.852063 
L 282.603494 93.044107 
L 285.951686 93.192175 
L 286.210767 93.204094 
L 289.81804 93.337319 
L 293.425312 93.455875 
L 297.032585 93.580723 
L 300.639858 93.740384 
L 304.247131 93.969657 
L 307.854403 94.307784 
L 309.527526 94.529421 
L 311.461676 94.802056 
L 315.068949 95.498364 
L 316.527227 95.866668 
L 318.676222 96.451236 
L 320.883826 97.203914 
L 322.283494 97.724595 
L 324.115368 98.54116 
L 325.890767 99.418563 
L 326.695874 99.878406 
L 328.787956 101.215653 
L 329.49804 101.733812 
L 330.504614 102.552899 
L 331.913338 103.890145 
L 333.07518 105.227391 
L 333.105312 105.270321 
L 333.949236 106.564638 
L 334.601735 107.901884 
L 335.037786 109.23913 
L 335.261161 110.576376 
L 335.27569 111.913622 
L 335.085048 113.250869 
L 334.692564 114.588115 
L 334.101069 115.925361 
L 333.312781 117.262607 
L 333.105312 117.54482 
L 332.305904 118.599854 
L 331.096161 119.9371 
L 329.690697 121.274346 
L 329.49804 121.436129 
L 328.035895 122.611592 
L 326.173386 123.948839 
L 325.890767 124.133523 
L 324.025219 125.286085 
L 322.283494 126.270805 
L 321.617514 126.623331 
L 318.887943 127.960577 
L 318.676222 128.057734 
L 315.760263 129.297823 
L 315.068949 129.574516 
L 312.19443 130.63507 
L 311.461676 130.891477 
L 308.10331 131.972316 
L 307.854403 132.048843 
L 304.247131 133.074876 
L 303.359385 133.309562 
L 300.639858 134.000501 
L 297.912266 134.646808 
L 297.032585 134.848438 
L 293.425312 135.631317 
L 291.714303 135.984055 
L 289.81804 136.364185 
L 286.210767 137.052424 
L 284.733701 137.321301 
L 282.603494 137.700388 
L 278.996222 138.305685 
L 276.736568 138.658547 
L 275.388949 138.865568 
L 271.781676 139.374737 
L 268.174403 139.823498 
L 266.568814 139.995793 
L 264.567131 140.208919 
L 260.959858 140.523539 
L 257.352585 140.760056 
L 253.745312 140.915271 
L 250.13804 140.987118 
L 246.530767 140.974362 
L 242.923494 140.876197 
L 239.316222 140.691819 
L 235.708949 140.420032 
L 232.101676 140.058887 
L 231.594997 139.995793 
L 228.494403 139.610346 
L 224.887131 139.065992 
L 222.598648 138.658547 
L 221.279858 138.418296 
L 217.672585 137.656414 
L 216.283612 137.321301 
L 214.065313 136.758204 
L 211.388405 135.984055 
L 210.45804 135.694581 
L 207.465576 134.646808 
L 206.850767 134.409315 
L 204.290066 133.309562 
L 203.243494 132.799109 
L 201.699993 131.972316 
L 199.636222 130.672884 
L 199.580831 130.63507 
L 197.895425 129.297823 
L 196.543823 127.960577 
L 196.028949 127.318206 
L 195.502313 126.623331 
z
" clip-path="url(#p9c0bd36306)" style="fill: none; stroke: #89bedc; stroke-width: 1.5"/>
   </g>
   <g id="PathCollection_5">
    <path d="M 87.581879 213.544336 
L 87.274312 212.20709 
L 87.18493 210.869844 
L 87.301626 209.532597 
L 87.615047 208.195351 
L 87.810767 207.678177 
L 88.133369 206.858105 
L 88.852895 205.520859 
L 89.760215 204.183612 
L 90.854765 202.846366 
L 91.41804 202.257711 
L 92.178842 201.50912 
L 93.731657 200.171874 
L 95.025312 199.182896 
L 95.519182 198.834628 
L 97.615955 197.497381 
L 98.632585 196.905739 
L 100.052953 196.160135 
L 102.239858 195.100811 
L 102.892015 194.822889 
L 105.847131 193.644875 
L 106.314839 193.485643 
L 109.454403 192.472531 
L 110.674394 192.148396 
L 113.061676 191.539459 
L 116.668949 190.816968 
L 116.708791 190.81115 
L 120.276222 190.302476 
L 123.883494 189.972959 
L 127.490767 189.822401 
L 131.09804 189.843411 
L 134.705312 190.024547 
L 138.312585 190.347777 
L 141.919858 190.786467 
L 142.094603 190.81115 
L 145.527131 191.31673 
L 149.134403 191.880154 
L 150.909785 192.148396 
L 152.741676 192.432767 
L 156.348949 192.92277 
L 159.956222 193.307361 
L 162.417714 193.485643 
L 163.563494 193.568389 
L 167.170767 193.702059 
L 170.77804 193.719038 
L 174.385312 193.642937 
L 177.992585 193.502477 
L 178.334926 193.485643 
L 181.599858 193.327788 
L 185.207131 193.147505 
L 188.814403 192.987936 
L 192.421676 192.871647 
L 196.028949 192.816933 
L 199.636222 192.837583 
L 203.243494 192.942786 
L 206.850767 193.137143 
L 210.45804 193.420823 
L 211.102774 193.485643 
L 214.065313 193.78792 
L 217.672585 194.231226 
L 221.279858 194.740975 
L 221.814244 194.822889 
L 224.887131 195.30334 
L 228.494403 195.907735 
L 229.945912 196.160135 
L 232.101676 196.54418 
L 235.708949 197.204805 
L 237.283622 197.497381 
L 239.316222 197.886962 
L 242.923494 198.588568 
L 244.180541 198.834628 
L 246.530767 199.313911 
L 250.13804 200.062114 
L 250.668397 200.171874 
L 253.745312 200.842961 
L 256.762225 201.50912 
L 257.352585 201.647879 
L 260.959858 202.482452 
L 262.568443 202.846366 
L 264.567131 203.332244 
L 268.174403 204.173116 
L 268.223597 204.183612 
L 271.781676 205.004558 
L 274.264785 205.520859 
L 275.388949 205.775761 
L 278.996222 206.476573 
L 281.352896 206.858105 
L 282.603494 207.081244 
L 286.210767 207.601074 
L 289.81804 208.032839 
L 291.357423 208.195351 
L 293.425312 208.444393 
L 297.032585 208.900641 
L 300.639858 209.484618 
L 300.858593 209.532597 
L 304.247131 210.459692 
L 305.284361 210.869844 
L 307.756974 212.20709 
L 307.854403 212.284549 
L 309.025463 213.544336 
L 309.707731 214.881582 
L 309.91096 216.218829 
L 309.705636 217.556075 
L 309.148907 218.893321 
L 308.286817 220.230567 
L 307.854403 220.729608 
L 307.04142 221.567813 
L 305.469542 222.90506 
L 304.247131 223.805966 
L 303.592454 224.242306 
L 301.330148 225.579552 
L 300.639858 225.948986 
L 298.670866 226.916798 
L 297.032585 227.661035 
L 295.633847 228.254045 
L 293.425312 229.123893 
L 292.177121 229.591291 
L 289.81804 230.414349 
L 288.295834 230.928537 
L 286.210767 231.585638 
L 284.014879 232.265783 
L 282.603494 232.6738 
L 279.365556 233.60303 
L 278.996222 233.701966 
L 275.388949 234.666462 
L 274.375277 234.940276 
L 271.781676 235.588584 
L 269.036914 236.277522 
L 268.174403 236.478359 
L 264.567131 237.322144 
L 263.317743 237.614768 
L 260.959858 238.126635 
L 257.352585 238.897439 
L 257.097066 238.952014 
L 253.745312 239.61859 
L 250.244015 240.289261 
L 250.13804 240.308309 
L 246.530767 240.950003 
L 242.923494 241.558761 
L 242.511275 241.626507 
L 239.316222 242.124748 
L 235.708949 242.655703 
L 233.49904 242.963753 
L 232.101676 243.150652 
L 228.494403 243.609027 
L 224.887131 244.033885 
L 222.444057 244.300999 
L 221.279858 244.424807 
L 217.672585 244.781179 
L 214.065313 245.103023 
L 210.45804 245.388887 
L 206.850767 245.636497 
L 206.820464 245.638246 
L 203.243494 245.84285 
L 199.636222 246.002927 
L 196.028949 246.110943 
L 192.421676 246.159698 
L 188.814403 246.140503 
L 185.207131 246.043171 
L 181.599858 245.856093 
L 178.873918 245.638246 
L 177.992585 245.566195 
L 174.385312 245.158638 
L 170.77804 244.620097 
L 169.063404 244.300999 
L 167.170767 243.933948 
L 163.563494 243.088788 
L 163.101496 242.963753 
L 159.956222 242.070215 
L 158.570684 241.626507 
L 156.348949 240.878616 
L 154.738809 240.289261 
L 152.741676 239.523212 
L 151.325199 238.952014 
L 149.134403 238.033618 
L 148.153063 237.614768 
L 145.527131 236.464391 
L 145.095109 236.277522 
L 142.034739 234.940276 
L 141.919858 234.889741 
L 138.832412 233.60303 
L 138.312585 233.38896 
L 135.353012 232.265783 
L 134.705312 232.026478 
L 131.405022 230.928537 
L 131.09804 230.830058 
L 127.490767 229.794534 
L 126.701365 229.591291 
L 123.883494 228.892562 
L 121.043878 228.254045 
L 120.276222 228.086431 
L 116.668949 227.333133 
L 114.654323 226.916798 
L 113.061676 226.589297 
L 109.454403 225.811077 
L 108.468968 225.579552 
L 105.847131 224.944785 
L 103.293991 224.242306 
L 102.239858 223.935002 
L 99.204269 222.90506 
L 98.632585 222.692767 
L 96.042899 221.567813 
L 95.025312 221.065132 
L 93.568734 220.230567 
L 91.601203 218.893321 
L 91.41804 218.744827 
L 90.127893 217.556075 
L 88.988739 216.218829 
L 88.142957 214.881582 
L 87.810767 214.120057 
L 87.581879 213.544336 
z
" clip-path="url(#p9c0bd36306)" style="fill: none; stroke: #539ecd; stroke-width: 1.5"/>
    <path d="M 213.686693 123.948839 
L 212.694549 122.611592 
L 212.04533 121.274346 
L 211.710453 119.9371 
L 211.665121 118.599854 
L 211.888124 117.262607 
L 212.361633 115.925361 
L 213.071 114.588115 
L 214.004575 113.250869 
L 214.065313 113.180537 
L 215.22426 111.913622 
L 216.665316 110.576376 
L 217.672585 109.761603 
L 218.372205 109.23913 
L 220.383661 107.901884 
L 221.279858 107.362467 
L 222.752625 106.564638 
L 224.887131 105.503596 
L 225.522633 105.227391 
L 228.494403 104.026798 
L 228.895138 103.890145 
L 232.101676 102.861104 
L 233.29109 102.552899 
L 235.708949 101.956213 
L 239.316222 101.278785 
L 239.803505 101.215653 
L 242.923494 100.825205 
L 246.530767 100.565735 
L 250.13804 100.485746 
L 253.745312 100.569952 
L 257.352585 100.799991 
L 260.959858 101.154867 
L 261.450679 101.215653 
L 264.567131 101.630552 
L 268.174403 102.192204 
L 270.295846 102.552899 
L 271.781676 102.82983 
L 275.388949 103.532724 
L 277.189157 103.890145 
L 278.996222 104.292573 
L 282.603494 105.102804 
L 283.164414 105.227391 
L 286.210767 106.009018 
L 288.338721 106.564638 
L 289.81804 107.025667 
L 292.538324 107.901884 
L 293.425312 108.258972 
L 295.732476 109.23913 
L 297.032585 109.980511 
L 298.00194 110.576376 
L 299.486077 111.913622 
L 300.308563 113.250869 
L 300.54495 114.588115 
L 300.252362 115.925361 
L 299.473424 117.262607 
L 298.239001 118.599854 
L 297.032585 119.561813 
L 296.561545 119.9371 
L 294.43057 121.274346 
L 293.425312 121.797393 
L 291.863178 122.611592 
L 289.81804 123.519 
L 288.853133 123.948839 
L 286.210767 124.97004 
L 285.392916 125.286085 
L 282.603494 126.236295 
L 281.45511 126.623331 
L 278.996222 127.364199 
L 276.961499 127.960577 
L 275.388949 128.37797 
L 271.781676 129.288156 
L 271.74084 129.297823 
L 268.174403 130.070626 
L 265.263259 130.63507 
L 264.567131 130.760203 
L 260.959858 131.326311 
L 257.352585 131.787166 
L 255.440354 131.972316 
L 253.745312 132.126952 
L 250.13804 132.341935 
L 246.530767 132.433485 
L 242.923494 132.395788 
L 239.316222 132.222734 
L 236.449649 131.972316 
L 235.708949 131.904066 
L 232.101676 131.413723 
L 228.494403 130.75024 
L 227.995691 130.63507 
L 224.887131 129.844532 
L 223.133809 129.297823 
L 221.279858 128.641007 
L 219.659759 127.960577 
L 217.672585 126.974687 
L 217.058108 126.623331 
L 215.133806 125.286085 
L 214.065313 124.328903 
L 213.686693 123.948839 
z
" clip-path="url(#p9c0bd36306)" style="fill: none; stroke: #539ecd; stroke-width: 1.5"/>
   </g>
   <g id="PathCollection_6">
    <path d="M 101.711214 210.869844 
L 101.483758 209.532597 
L 101.602986 208.195351 
L 102.047384 206.858105 
L 102.239858 206.519837 
L 102.886153 205.520859 
L 104.087007 204.183612 
L 105.60268 202.846366 
L 105.847131 202.667984 
L 107.718331 201.50912 
L 109.454403 200.580314 
L 110.396033 200.171874 
L 113.061676 199.148695 
L 114.137469 198.834628 
L 116.668949 198.166698 
L 120.276222 197.511949 
L 120.424503 197.497381 
L 123.883494 197.184323 
L 127.490767 197.119062 
L 131.09804 197.296843 
L 132.971639 197.497381 
L 134.705312 197.703337 
L 138.312585 198.301629 
L 141.075266 198.834628 
L 141.919858 199.012426 
L 145.527131 199.781369 
L 147.554972 200.171874 
L 149.134403 200.492318 
L 152.741676 201.068403 
L 156.348949 201.44224 
L 157.694517 201.50912 
L 159.956222 201.622482 
L 163.563494 201.616631 
L 165.998199 201.50912 
L 167.170767 201.462406 
L 170.77804 201.209346 
L 174.385312 200.891513 
L 177.992585 200.5466 
L 181.599858 200.208947 
L 182.039008 200.171874 
L 185.207131 199.916545 
L 188.814403 199.68692 
L 192.421676 199.540182 
L 196.028949 199.492603 
L 199.636222 199.555209 
L 203.243494 199.733553 
L 206.850767 200.027732 
L 208.14575 200.171874 
L 210.45804 200.439235 
L 214.065313 200.957662 
L 217.336951 201.50912 
L 217.672585 201.568342 
L 221.279858 202.273867 
L 223.975307 202.846366 
L 224.887131 203.050803 
L 228.494403 203.903276 
L 229.635366 204.183612 
L 232.101676 204.830767 
L 234.644357 205.520859 
L 235.708949 205.833442 
L 239.100785 206.858105 
L 239.316222 206.929615 
L 242.923494 208.156032 
L 243.036898 208.195351 
L 246.47426 209.532597 
L 246.530767 209.557696 
L 249.4474 210.869844 
L 250.13804 211.233789 
L 251.983384 212.20709 
L 253.745312 213.327886 
L 254.090951 213.544336 
L 255.82514 214.881582 
L 257.147008 216.218829 
L 257.352585 216.512034 
L 258.119139 217.556075 
L 258.706502 218.893321 
L 258.905794 220.230567 
L 258.718251 221.567813 
L 258.138113 222.90506 
L 257.352585 223.973782 
L 257.163421 224.242306 
L 255.829162 225.579552 
L 254.064547 226.916798 
L 253.745312 227.112648 
L 251.912151 228.254045 
L 250.13804 229.164946 
L 249.305722 229.591291 
L 246.530767 230.79801 
L 246.225105 230.928537 
L 242.923494 232.153472 
L 242.610659 232.265783 
L 239.316222 233.313318 
L 238.361499 233.60303 
L 235.708949 234.327815 
L 233.328809 234.940276 
L 232.101676 235.228775 
L 228.494403 236.024783 
L 227.26303 236.277522 
L 224.887131 236.730183 
L 221.279858 237.359859 
L 219.675577 237.614768 
L 217.672585 237.914601 
L 214.065313 238.398632 
L 210.45804 238.820161 
L 209.132653 238.952014 
L 206.850767 239.169612 
L 203.243494 239.44738 
L 199.636222 239.651572 
L 196.028949 239.774522 
L 192.421676 239.806694 
L 188.814403 239.736706 
L 185.207131 239.551502 
L 181.599858 239.236764 
L 179.34403 238.952014 
L 177.992585 238.771337 
L 174.385312 238.131261 
L 172.079315 237.614768 
L 170.77804 237.302104 
L 167.222703 236.277522 
L 167.170767 236.261362 
L 163.563494 234.980577 
L 163.460713 234.940276 
L 160.279341 233.60303 
L 159.956222 233.456725 
L 157.44854 232.265783 
L 156.348949 231.709096 
L 154.819133 230.928537 
L 152.741676 229.818539 
L 152.302565 229.591291 
L 149.798626 228.254045 
L 149.134403 227.890202 
L 147.191014 226.916798 
L 145.527131 226.087615 
L 144.3625 225.579552 
L 141.919858 224.539965 
L 141.085617 224.242306 
L 138.312585 223.287235 
L 136.937725 222.90506 
L 134.705312 222.30607 
L 131.226607 221.567813 
L 131.09804 221.5412 
L 127.490767 220.88472 
L 123.883494 220.300724 
L 123.46386 220.230567 
L 120.276222 219.684269 
L 116.668949 219.00374 
L 116.175267 218.893321 
L 113.061676 218.139992 
L 111.099925 217.556075 
L 109.454403 217.000747 
L 107.60132 216.218829 
L 105.847131 215.32628 
L 105.140443 214.881582 
L 103.484316 213.544336 
L 102.32154 212.20709 
L 102.239858 212.054856 
L 101.711214 210.869844 
z
" clip-path="url(#p9c0bd36306)" style="fill: none; stroke: #2b7bba; stroke-width: 1.5"/>
   </g>
   <g id="PathCollection_7">
    <path d="M 167.112602 224.242306 
L 165.869218 222.90506 
L 164.905768 221.567813 
L 164.239114 220.230567 
L 163.898819 218.893321 
L 163.930854 217.556075 
L 164.403164 216.218829 
L 165.414149 214.881582 
L 167.105829 213.544336 
L 167.170767 213.507386 
L 169.522092 212.20709 
L 170.77804 211.68485 
L 172.851096 210.869844 
L 174.385312 210.379846 
L 177.295572 209.532597 
L 177.992585 209.359446 
L 181.599858 208.569145 
L 183.699273 208.195351 
L 185.207131 207.95556 
L 188.814403 207.529989 
L 192.421676 207.27458 
L 196.028949 207.200158 
L 199.636222 207.311788 
L 203.243494 207.607695 
L 206.850767 208.079206 
L 207.517144 208.195351 
L 210.45804 208.758674 
L 213.765862 209.532597 
L 214.065313 209.610906 
L 217.672585 210.693821 
L 218.203171 210.869844 
L 221.279858 212.036308 
L 221.698611 212.20709 
L 224.489541 213.544336 
L 224.887131 213.776661 
L 226.678394 214.881582 
L 228.354519 216.218829 
L 228.494403 216.376257 
L 229.501325 217.556075 
L 230.168382 218.893321 
L 230.3613 220.230567 
L 230.076787 221.567813 
L 229.30687 222.90506 
L 228.494403 223.764821 
L 228.018695 224.242306 
L 226.155077 225.579552 
L 224.887131 226.28282 
L 223.656447 226.916798 
L 221.279858 227.91309 
L 220.38632 228.254045 
L 217.672585 229.130225 
L 216.064865 229.591291 
L 214.065313 230.091123 
L 210.45804 230.868272 
L 210.121731 230.928537 
L 206.850767 231.453861 
L 203.243494 231.903121 
L 199.636222 232.211858 
L 198.380692 232.265783 
L 196.028949 232.358915 
L 192.421676 232.346031 
L 190.846324 232.265783 
L 188.814403 232.151568 
L 185.207131 231.742554 
L 181.599858 231.107197 
L 180.851505 230.928537 
L 177.992585 230.156089 
L 176.33091 229.591291 
L 174.385312 228.83113 
L 173.12855 228.254045 
L 170.77804 226.998937 
L 170.639448 226.916798 
L 168.715846 225.579552 
L 167.170767 224.292646 
L 167.112602 224.242306 
z
" clip-path="url(#p9c0bd36306)" style="fill: none; stroke: #0b559f; stroke-width: 1.5"/>
   </g>
   <g id="PathCollection_8"/>
   <g id="patch_3">
    <path d="M 55.345313 288.430125 
L 55.345313 22.318125 
" style="fill: none; stroke: #000000; stroke-width: 0.8; stroke-linejoin: miter; stroke-linecap: square"/>
   </g>
   <g id="patch_4">
    <path d="M 412.465312 288.430125 
L 412.465312 22.318125 
" style="fill: none; stroke: #000000; stroke-width: 0.8; stroke-linejoin: miter; stroke-linecap: square"/>
   </g>
   <g id="patch_5">
    <path d="M 55.345312 288.430125 
L 412.465312 288.430125 
" style="fill: none; stroke: #000000; stroke-width: 0.8; stroke-linejoin: miter; stroke-linecap: square"/>
   </g>
   <g id="patch_6">
    <path d="M 55.345312 22.318125 
L 412.465312 22.318125 
" style="fill: none; stroke: #000000; stroke-width: 0.8; stroke-linejoin: miter; stroke-linecap: square"/>
   </g>
   <g id="text_19">
    <!-- All -->
    <g transform="translate(226.467188 16.318125) scale(0.12 -0.12)">
     <use xlink:href="#DejaVuSans-41"/>
     <use xlink:href="#DejaVuSans-6c" x="68.408203"/>
     <use xlink:href="#DejaVuSans-6c" x="96.191406"/>
    </g>
   </g>
  </g>
 </g>
 <defs>
  <clipPath id="p9c0bd36306">
   <rect x="55.345313" y="22.318125" width="357.12" height="266.112"/>
  </clipPath>
 </defs>
</svg>
