<?xml version="1.0" encoding="utf-8" standalone="no"?>
<!DOCTYPE svg PUBLIC "-//W3C//DTD SVG 1.1//EN"
  "http://www.w3.org/Graphics/SVG/1.1/DTD/svg11.dtd">
<svg xmlns:xlink="http://www.w3.org/1999/xlink" width="408.104375pt" height="325.7745pt" viewBox="0 0 408.104375 325.7745" xmlns="http://www.w3.org/2000/svg" version="1.1">
 <metadata>
  <rdf:RDF xmlns:dc="http://purl.org/dc/elements/1.1/" xmlns:cc="http://creativecommons.org/ns#" xmlns:rdf="http://www.w3.org/1999/02/22-rdf-syntax-ns#">
   <cc:Work>
    <dc:type rdf:resource="http://purl.org/dc/dcmitype/StillImage"/>
    <dc:date>2024-07-12T12:30:30.295883</dc:date>
    <dc:format>image/svg+xml</dc:format>
    <dc:creator>
     <cc:Agent>
      <dc:title>Matplotlib v3.5.3, https://matplotlib.org/</dc:title>
     </cc:Agent>
    </dc:creator>
   </cc:Work>
  </rdf:RDF>
 </metadata>
 <defs>
  <style type="text/css">*{stroke-linejoin: round; stroke-linecap: butt}</style>
 </defs>
 <g id="figure_1">
  <g id="patch_1">
   <path d="M 0 325.7745 
L 408.104375 325.7745 
L 408.104375 0 
L 0 0 
z
" style="fill: #ffffff"/>
  </g>
  <g id="axes_1">
   <g id="patch_2">
    <path d="M 34.240625 288.21825 
L 391.360625 288.21825 
L 391.360625 22.10625 
L 34.240625 22.10625 
z
" style="fill: #ffffff"/>
   </g>
   <g id="matplotlib.axis_1">
    <g id="xtick_1">
     <g id="line2d_1">
      <defs>
       <path id="m783727715d" d="M 0 0 
L 0 3.5 
" style="stroke: #000000; stroke-width: 0.8"/>
      </defs>
      <g>
       <use xlink:href="#m783727715d" x="34.240625" y="288.21825" style="stroke: #000000; stroke-width: 0.8"/>
      </g>
     </g>
     <g id="text_1">
      <!-- 0 -->
      <g transform="translate(31.059375 302.816687)scale(0.1 -0.1)">
       <defs>
        <path id="DejaVuSans-30" d="M 2034 4250 
Q 1547 4250 1301 3770 
Q 1056 3291 1056 2328 
Q 1056 1369 1301 889 
Q 1547 409 2034 409 
Q 2525 409 2770 889 
Q 3016 1369 3016 2328 
Q 3016 3291 2770 3770 
Q 2525 4250 2034 4250 
z
M 2034 4750 
Q 2819 4750 3233 4129 
Q 3647 3509 3647 2328 
Q 3647 1150 3233 529 
Q 2819 -91 2034 -91 
Q 1250 -91 836 529 
Q 422 1150 422 2328 
Q 422 3509 836 4129 
Q 1250 4750 2034 4750 
z
" transform="scale(0.015625)"/>
       </defs>
       <use xlink:href="#DejaVuSans-30"/>
      </g>
     </g>
    </g>
    <g id="xtick_2">
     <g id="line2d_2">
      <g>
       <use xlink:href="#m783727715d" x="105.664625" y="288.21825" style="stroke: #000000; stroke-width: 0.8"/>
      </g>
     </g>
     <g id="text_2">
      <!-- 20 -->
      <g transform="translate(99.302125 302.816687)scale(0.1 -0.1)">
       <defs>
        <path id="DejaVuSans-32" d="M 1228 531 
L 3431 531 
L 3431 0 
L 469 0 
L 469 531 
Q 828 903 1448 1529 
Q 2069 2156 2228 2338 
Q 2531 2678 2651 2914 
Q 2772 3150 2772 3378 
Q 2772 3750 2511 3984 
Q 2250 4219 1831 4219 
Q 1534 4219 1204 4116 
Q 875 4013 500 3803 
L 500 4441 
Q 881 4594 1212 4672 
Q 1544 4750 1819 4750 
Q 2544 4750 2975 4387 
Q 3406 4025 3406 3419 
Q 3406 3131 3298 2873 
Q 3191 2616 2906 2266 
Q 2828 2175 2409 1742 
Q 1991 1309 1228 531 
z
" transform="scale(0.015625)"/>
       </defs>
       <use xlink:href="#DejaVuSans-32"/>
       <use xlink:href="#DejaVuSans-30" x="63.623047"/>
      </g>
     </g>
    </g>
    <g id="xtick_3">
     <g id="line2d_3">
      <g>
       <use xlink:href="#m783727715d" x="177.088625" y="288.21825" style="stroke: #000000; stroke-width: 0.8"/>
      </g>
     </g>
     <g id="text_3">
      <!-- 40 -->
      <g transform="translate(170.726125 302.816687)scale(0.1 -0.1)">
       <defs>
        <path id="DejaVuSans-34" d="M 2419 4116 
L 825 1625 
L 2419 1625 
L 2419 4116 
z
M 2253 4666 
L 3047 4666 
L 3047 1625 
L 3713 1625 
L 3713 1100 
L 3047 1100 
L 3047 0 
L 2419 0 
L 2419 1100 
L 313 1100 
L 313 1709 
L 2253 4666 
z
" transform="scale(0.015625)"/>
       </defs>
       <use xlink:href="#DejaVuSans-34"/>
       <use xlink:href="#DejaVuSans-30" x="63.623047"/>
      </g>
     </g>
    </g>
    <g id="xtick_4">
     <g id="line2d_4">
      <g>
       <use xlink:href="#m783727715d" x="248.512625" y="288.21825" style="stroke: #000000; stroke-width: 0.8"/>
      </g>
     </g>
     <g id="text_4">
      <!-- 60 -->
      <g transform="translate(242.150125 302.816687)scale(0.1 -0.1)">
       <defs>
        <path id="DejaVuSans-36" d="M 2113 2584 
Q 1688 2584 1439 2293 
Q 1191 2003 1191 1497 
Q 1191 994 1439 701 
Q 1688 409 2113 409 
Q 2538 409 2786 701 
Q 3034 994 3034 1497 
Q 3034 2003 2786 2293 
Q 2538 2584 2113 2584 
z
M 3366 4563 
L 3366 3988 
Q 3128 4100 2886 4159 
Q 2644 4219 2406 4219 
Q 1781 4219 1451 3797 
Q 1122 3375 1075 2522 
Q 1259 2794 1537 2939 
Q 1816 3084 2150 3084 
Q 2853 3084 3261 2657 
Q 3669 2231 3669 1497 
Q 3669 778 3244 343 
Q 2819 -91 2113 -91 
Q 1303 -91 875 529 
Q 447 1150 447 2328 
Q 447 3434 972 4092 
Q 1497 4750 2381 4750 
Q 2619 4750 2861 4703 
Q 3103 4656 3366 4563 
z
" transform="scale(0.015625)"/>
       </defs>
       <use xlink:href="#DejaVuSans-36"/>
       <use xlink:href="#DejaVuSans-30" x="63.623047"/>
      </g>
     </g>
    </g>
    <g id="xtick_5">
     <g id="line2d_5">
      <g>
       <use xlink:href="#m783727715d" x="319.936625" y="288.21825" style="stroke: #000000; stroke-width: 0.8"/>
      </g>
     </g>
     <g id="text_5">
      <!-- 80 -->
      <g transform="translate(313.574125 302.816687)scale(0.1 -0.1)">
       <defs>
        <path id="DejaVuSans-38" d="M 2034 2216 
Q 1584 2216 1326 1975 
Q 1069 1734 1069 1313 
Q 1069 891 1326 650 
Q 1584 409 2034 409 
Q 2484 409 2743 651 
Q 3003 894 3003 1313 
Q 3003 1734 2745 1975 
Q 2488 2216 2034 2216 
z
M 1403 2484 
Q 997 2584 770 2862 
Q 544 3141 544 3541 
Q 544 4100 942 4425 
Q 1341 4750 2034 4750 
Q 2731 4750 3128 4425 
Q 3525 4100 3525 3541 
Q 3525 3141 3298 2862 
Q 3072 2584 2669 2484 
Q 3125 2378 3379 2068 
Q 3634 1759 3634 1313 
Q 3634 634 3220 271 
Q 2806 -91 2034 -91 
Q 1263 -91 848 271 
Q 434 634 434 1313 
Q 434 1759 690 2068 
Q 947 2378 1403 2484 
z
M 1172 3481 
Q 1172 3119 1398 2916 
Q 1625 2713 2034 2713 
Q 2441 2713 2670 2916 
Q 2900 3119 2900 3481 
Q 2900 3844 2670 4047 
Q 2441 4250 2034 4250 
Q 1625 4250 1398 4047 
Q 1172 3844 1172 3481 
z
" transform="scale(0.015625)"/>
       </defs>
       <use xlink:href="#DejaVuSans-38"/>
       <use xlink:href="#DejaVuSans-30" x="63.623047"/>
      </g>
     </g>
    </g>
    <g id="xtick_6">
     <g id="line2d_6">
      <g>
       <use xlink:href="#m783727715d" x="391.360625" y="288.21825" style="stroke: #000000; stroke-width: 0.8"/>
      </g>
     </g>
     <g id="text_6">
      <!-- 100 -->
      <g transform="translate(381.816875 302.816687)scale(0.1 -0.1)">
       <defs>
        <path id="DejaVuSans-31" d="M 794 531 
L 1825 531 
L 1825 4091 
L 703 3866 
L 703 4441 
L 1819 4666 
L 2450 4666 
L 2450 531 
L 3481 531 
L 3481 0 
L 794 0 
L 794 531 
z
" transform="scale(0.015625)"/>
       </defs>
       <use xlink:href="#DejaVuSans-31"/>
       <use xlink:href="#DejaVuSans-30" x="63.623047"/>
       <use xlink:href="#DejaVuSans-30" x="127.246094"/>
      </g>
     </g>
    </g>
    <g id="text_7">
     <!-- axialRotation -->
     <g transform="translate(180.024844 316.494812)scale(0.1 -0.1)">
      <defs>
       <path id="DejaVuSans-61" d="M 2194 1759 
Q 1497 1759 1228 1600 
Q 959 1441 959 1056 
Q 959 750 1161 570 
Q 1363 391 1709 391 
Q 2188 391 2477 730 
Q 2766 1069 2766 1631 
L 2766 1759 
L 2194 1759 
z
M 3341 1997 
L 3341 0 
L 2766 0 
L 2766 531 
Q 2569 213 2275 61 
Q 1981 -91 1556 -91 
Q 1019 -91 701 211 
Q 384 513 384 1019 
Q 384 1609 779 1909 
Q 1175 2209 1959 2209 
L 2766 2209 
L 2766 2266 
Q 2766 2663 2505 2880 
Q 2244 3097 1772 3097 
Q 1472 3097 1187 3025 
Q 903 2953 641 2809 
L 641 3341 
Q 956 3463 1253 3523 
Q 1550 3584 1831 3584 
Q 2591 3584 2966 3190 
Q 3341 2797 3341 1997 
z
" transform="scale(0.015625)"/>
       <path id="DejaVuSans-78" d="M 3513 3500 
L 2247 1797 
L 3578 0 
L 2900 0 
L 1881 1375 
L 863 0 
L 184 0 
L 1544 1831 
L 300 3500 
L 978 3500 
L 1906 2253 
L 2834 3500 
L 3513 3500 
z
" transform="scale(0.015625)"/>
       <path id="DejaVuSans-69" d="M 603 3500 
L 1178 3500 
L 1178 0 
L 603 0 
L 603 3500 
z
M 603 4863 
L 1178 4863 
L 1178 4134 
L 603 4134 
L 603 4863 
z
" transform="scale(0.015625)"/>
       <path id="DejaVuSans-6c" d="M 603 4863 
L 1178 4863 
L 1178 0 
L 603 0 
L 603 4863 
z
" transform="scale(0.015625)"/>
       <path id="DejaVuSans-52" d="M 2841 2188 
Q 3044 2119 3236 1894 
Q 3428 1669 3622 1275 
L 4263 0 
L 3584 0 
L 2988 1197 
Q 2756 1666 2539 1819 
Q 2322 1972 1947 1972 
L 1259 1972 
L 1259 0 
L 628 0 
L 628 4666 
L 2053 4666 
Q 2853 4666 3247 4331 
Q 3641 3997 3641 3322 
Q 3641 2881 3436 2590 
Q 3231 2300 2841 2188 
z
M 1259 4147 
L 1259 2491 
L 2053 2491 
Q 2509 2491 2742 2702 
Q 2975 2913 2975 3322 
Q 2975 3731 2742 3939 
Q 2509 4147 2053 4147 
L 1259 4147 
z
" transform="scale(0.015625)"/>
       <path id="DejaVuSans-6f" d="M 1959 3097 
Q 1497 3097 1228 2736 
Q 959 2375 959 1747 
Q 959 1119 1226 758 
Q 1494 397 1959 397 
Q 2419 397 2687 759 
Q 2956 1122 2956 1747 
Q 2956 2369 2687 2733 
Q 2419 3097 1959 3097 
z
M 1959 3584 
Q 2709 3584 3137 3096 
Q 3566 2609 3566 1747 
Q 3566 888 3137 398 
Q 2709 -91 1959 -91 
Q 1206 -91 779 398 
Q 353 888 353 1747 
Q 353 2609 779 3096 
Q 1206 3584 1959 3584 
z
" transform="scale(0.015625)"/>
       <path id="DejaVuSans-74" d="M 1172 4494 
L 1172 3500 
L 2356 3500 
L 2356 3053 
L 1172 3053 
L 1172 1153 
Q 1172 725 1289 603 
Q 1406 481 1766 481 
L 2356 481 
L 2356 0 
L 1766 0 
Q 1100 0 847 248 
Q 594 497 594 1153 
L 594 3053 
L 172 3053 
L 172 3500 
L 594 3500 
L 594 4494 
L 1172 4494 
z
" transform="scale(0.015625)"/>
       <path id="DejaVuSans-6e" d="M 3513 2113 
L 3513 0 
L 2938 0 
L 2938 2094 
Q 2938 2591 2744 2837 
Q 2550 3084 2163 3084 
Q 1697 3084 1428 2787 
Q 1159 2491 1159 1978 
L 1159 0 
L 581 0 
L 581 3500 
L 1159 3500 
L 1159 2956 
Q 1366 3272 1645 3428 
Q 1925 3584 2291 3584 
Q 2894 3584 3203 3211 
Q 3513 2838 3513 2113 
z
" transform="scale(0.015625)"/>
      </defs>
      <use xlink:href="#DejaVuSans-61"/>
      <use xlink:href="#DejaVuSans-78" x="61.279297"/>
      <use xlink:href="#DejaVuSans-69" x="120.458984"/>
      <use xlink:href="#DejaVuSans-61" x="148.242188"/>
      <use xlink:href="#DejaVuSans-6c" x="209.521484"/>
      <use xlink:href="#DejaVuSans-52" x="237.304688"/>
      <use xlink:href="#DejaVuSans-6f" x="302.287109"/>
      <use xlink:href="#DejaVuSans-74" x="363.46875"/>
      <use xlink:href="#DejaVuSans-61" x="402.677734"/>
      <use xlink:href="#DejaVuSans-74" x="463.957031"/>
      <use xlink:href="#DejaVuSans-69" x="503.166016"/>
      <use xlink:href="#DejaVuSans-6f" x="530.949219"/>
      <use xlink:href="#DejaVuSans-6e" x="592.130859"/>
     </g>
    </g>
   </g>
   <g id="matplotlib.axis_2">
    <g id="ytick_1">
     <g id="line2d_7">
      <defs>
       <path id="m35ed65f110" d="M 0 0 
L -3.5 0 
" style="stroke: #000000; stroke-width: 0.8"/>
      </defs>
      <g>
       <use xlink:href="#m35ed65f110" x="34.240625" y="288.21825" style="stroke: #000000; stroke-width: 0.8"/>
      </g>
     </g>
     <g id="text_8">
      <!-- 0 -->
      <g transform="translate(20.878125 292.017469)scale(0.1 -0.1)">
       <use xlink:href="#DejaVuSans-30"/>
      </g>
     </g>
    </g>
    <g id="ytick_2">
     <g id="line2d_8">
      <g>
       <use xlink:href="#m35ed65f110" x="34.240625" y="243.86625" style="stroke: #000000; stroke-width: 0.8"/>
      </g>
     </g>
     <g id="text_9">
      <!-- 1 -->
      <g transform="translate(20.878125 247.665469)scale(0.1 -0.1)">
       <use xlink:href="#DejaVuSans-31"/>
      </g>
     </g>
    </g>
    <g id="ytick_3">
     <g id="line2d_9">
      <g>
       <use xlink:href="#m35ed65f110" x="34.240625" y="199.51425" style="stroke: #000000; stroke-width: 0.8"/>
      </g>
     </g>
     <g id="text_10">
      <!-- 2 -->
      <g transform="translate(20.878125 203.313469)scale(0.1 -0.1)">
       <use xlink:href="#DejaVuSans-32"/>
      </g>
     </g>
    </g>
    <g id="ytick_4">
     <g id="line2d_10">
      <g>
       <use xlink:href="#m35ed65f110" x="34.240625" y="155.16225" style="stroke: #000000; stroke-width: 0.8"/>
      </g>
     </g>
     <g id="text_11">
      <!-- 3 -->
      <g transform="translate(20.878125 158.961469)scale(0.1 -0.1)">
       <defs>
        <path id="DejaVuSans-33" d="M 2597 2516 
Q 3050 2419 3304 2112 
Q 3559 1806 3559 1356 
Q 3559 666 3084 287 
Q 2609 -91 1734 -91 
Q 1441 -91 1130 -33 
Q 819 25 488 141 
L 488 750 
Q 750 597 1062 519 
Q 1375 441 1716 441 
Q 2309 441 2620 675 
Q 2931 909 2931 1356 
Q 2931 1769 2642 2001 
Q 2353 2234 1838 2234 
L 1294 2234 
L 1294 2753 
L 1863 2753 
Q 2328 2753 2575 2939 
Q 2822 3125 2822 3475 
Q 2822 3834 2567 4026 
Q 2313 4219 1838 4219 
Q 1578 4219 1281 4162 
Q 984 4106 628 3988 
L 628 4550 
Q 988 4650 1302 4700 
Q 1616 4750 1894 4750 
Q 2613 4750 3031 4423 
Q 3450 4097 3450 3541 
Q 3450 3153 3228 2886 
Q 3006 2619 2597 2516 
z
" transform="scale(0.015625)"/>
       </defs>
       <use xlink:href="#DejaVuSans-33"/>
      </g>
     </g>
    </g>
    <g id="ytick_5">
     <g id="line2d_11">
      <g>
       <use xlink:href="#m35ed65f110" x="34.240625" y="110.81025" style="stroke: #000000; stroke-width: 0.8"/>
      </g>
     </g>
     <g id="text_12">
      <!-- 4 -->
      <g transform="translate(20.878125 114.609469)scale(0.1 -0.1)">
       <use xlink:href="#DejaVuSans-34"/>
      </g>
     </g>
    </g>
    <g id="ytick_6">
     <g id="line2d_12">
      <g>
       <use xlink:href="#m35ed65f110" x="34.240625" y="66.45825" style="stroke: #000000; stroke-width: 0.8"/>
      </g>
     </g>
     <g id="text_13">
      <!-- 5 -->
      <g transform="translate(20.878125 70.257469)scale(0.1 -0.1)">
       <defs>
        <path id="DejaVuSans-35" d="M 691 4666 
L 3169 4666 
L 3169 4134 
L 1269 4134 
L 1269 2991 
Q 1406 3038 1543 3061 
Q 1681 3084 1819 3084 
Q 2600 3084 3056 2656 
Q 3513 2228 3513 1497 
Q 3513 744 3044 326 
Q 2575 -91 1722 -91 
Q 1428 -91 1123 -41 
Q 819 9 494 109 
L 494 744 
Q 775 591 1075 516 
Q 1375 441 1709 441 
Q 2250 441 2565 725 
Q 2881 1009 2881 1497 
Q 2881 1984 2565 2268 
Q 2250 2553 1709 2553 
Q 1456 2553 1204 2497 
Q 953 2441 691 2322 
L 691 4666 
z
" transform="scale(0.015625)"/>
       </defs>
       <use xlink:href="#DejaVuSans-35"/>
      </g>
     </g>
    </g>
    <g id="ytick_7">
     <g id="line2d_13">
      <g>
       <use xlink:href="#m35ed65f110" x="34.240625" y="22.10625" style="stroke: #000000; stroke-width: 0.8"/>
      </g>
     </g>
     <g id="text_14">
      <!-- 6 -->
      <g transform="translate(20.878125 25.905469)scale(0.1 -0.1)">
       <use xlink:href="#DejaVuSans-36"/>
      </g>
     </g>
    </g>
    <g id="text_15">
     <!-- zShift -->
     <g transform="translate(14.798438 169.151312)rotate(-90)scale(0.1 -0.1)">
      <defs>
       <path id="DejaVuSans-7a" d="M 353 3500 
L 3084 3500 
L 3084 2975 
L 922 459 
L 3084 459 
L 3084 0 
L 275 0 
L 275 525 
L 2438 3041 
L 353 3041 
L 353 3500 
z
" transform="scale(0.015625)"/>
       <path id="DejaVuSans-53" d="M 3425 4513 
L 3425 3897 
Q 3066 4069 2747 4153 
Q 2428 4238 2131 4238 
Q 1616 4238 1336 4038 
Q 1056 3838 1056 3469 
Q 1056 3159 1242 3001 
Q 1428 2844 1947 2747 
L 2328 2669 
Q 3034 2534 3370 2195 
Q 3706 1856 3706 1288 
Q 3706 609 3251 259 
Q 2797 -91 1919 -91 
Q 1588 -91 1214 -16 
Q 841 59 441 206 
L 441 856 
Q 825 641 1194 531 
Q 1563 422 1919 422 
Q 2459 422 2753 634 
Q 3047 847 3047 1241 
Q 3047 1584 2836 1778 
Q 2625 1972 2144 2069 
L 1759 2144 
Q 1053 2284 737 2584 
Q 422 2884 422 3419 
Q 422 4038 858 4394 
Q 1294 4750 2059 4750 
Q 2388 4750 2728 4690 
Q 3069 4631 3425 4513 
z
" transform="scale(0.015625)"/>
       <path id="DejaVuSans-68" d="M 3513 2113 
L 3513 0 
L 2938 0 
L 2938 2094 
Q 2938 2591 2744 2837 
Q 2550 3084 2163 3084 
Q 1697 3084 1428 2787 
Q 1159 2491 1159 1978 
L 1159 0 
L 581 0 
L 581 4863 
L 1159 4863 
L 1159 2956 
Q 1366 3272 1645 3428 
Q 1925 3584 2291 3584 
Q 2894 3584 3203 3211 
Q 3513 2838 3513 2113 
z
" transform="scale(0.015625)"/>
       <path id="DejaVuSans-66" d="M 2375 4863 
L 2375 4384 
L 1825 4384 
Q 1516 4384 1395 4259 
Q 1275 4134 1275 3809 
L 1275 3500 
L 2222 3500 
L 2222 3053 
L 1275 3053 
L 1275 0 
L 697 0 
L 697 3053 
L 147 3053 
L 147 3500 
L 697 3500 
L 697 3744 
Q 697 4328 969 4595 
Q 1241 4863 1831 4863 
L 2375 4863 
z
" transform="scale(0.015625)"/>
      </defs>
      <use xlink:href="#DejaVuSans-7a"/>
      <use xlink:href="#DejaVuSans-53" x="52.490234"/>
      <use xlink:href="#DejaVuSans-68" x="115.966797"/>
      <use xlink:href="#DejaVuSans-69" x="179.345703"/>
      <use xlink:href="#DejaVuSans-66" x="207.128906"/>
      <use xlink:href="#DejaVuSans-74" x="240.583984"/>
     </g>
    </g>
   </g>
   <g id="PathCollection_1"/>
   <g id="PathCollection_2">
    <path d="M 145.52263 288.21825 
L 145.519217 288.190702 
L 145.125331 285.55713 
L 144.820753 282.89601 
L 144.589017 280.23489 
L 144.414117 277.57377 
L 144.283558 274.91265 
L 144.187452 272.25153 
L 144.1179 269.59041 
L 144.068578 266.92929 
L 144.029907 263.82465 
L 144.008409 261.16353 
L 143.994401 258.50241 
L 143.985521 255.84129 
L 143.980002 253.18017 
L 143.976597 250.51905 
L 143.97449 247.85793 
L 143.973196 245.19681 
L 143.972448 242.53569 
L 143.972092 239.87457 
L 143.972005 237.21345 
L 143.972063 234.55233 
L 143.972142 231.89121 
L 143.972152 229.23009 
L 143.972063 226.56897 
L 143.971911 223.90785 
L 143.971755 220.80321 
L 143.971714 218.14209 
L 143.971773 215.48097 
L 143.971878 212.81985 
L 143.971923 210.15873 
L 143.971787 207.49761 
L 143.971346 204.83649 
L 143.970452 202.17537 
L 143.968857 199.51425 
L 143.966066 196.85313 
L 143.961151 194.19201 
L 143.952506 191.53089 
L 143.937558 188.86977 
L 143.912412 186.20865 
L 143.8714 183.54753 
L 143.806557 180.88641 
L 143.707014 178.22529 
L 143.697905 178.067086 
L 143.468516 175.12065 
L 143.162787 172.45953 
L 142.737044 169.79841 
L 142.160248 167.13729 
L 141.912305 166.269204 
L 141.24103 164.47617 
L 140.126705 162.050265 
L 139.995772 161.81505 
L 138.341105 159.210927 
L 138.302554 159.15393 
L 136.519793 156.663781 
L 136.403425 156.49281 
L 134.734193 154.006985 
L 134.626981 153.83169 
L 133.102086 151.17057 
L 132.948593 150.873901 
L 131.807265 148.50945 
L 131.162993 146.899784 
L 130.744783 145.84833 
L 129.851006 143.18721 
L 129.341681 141.275116 
L 129.125451 140.52609 
L 128.476448 137.86497 
L 127.977639 135.20385 
L 127.556081 132.23789 
L 127.532773 132.09921 
L 127.16458 129.43809 
L 126.883297 126.77697 
L 126.66973 124.11585 
L 126.509056 121.45473 
L 126.389631 118.79361 
L 126.302202 116.13249 
L 126.23937 113.47137 
L 126.195222 110.81025 
L 126.165057 108.14913 
L 126.145186 105.48801 
L 126.132792 102.82689 
L 126.12584 100.16577 
L 126.123037 97.50465 
L 126.123819 94.84353 
L 126.128352 92.18241 
L 126.137534 89.52129 
L 126.156365 86.41665 
L 126.182329 83.75553 
L 126.220977 81.09441 
L 126.276838 78.43329 
L 126.355742 75.77217 
L 126.465164 73.11105 
L 126.614693 70.44993 
L 126.816676 67.78881 
L 127.08715 65.12769 
L 127.447205 62.46657 
L 127.556081 61.81757 
L 127.848285 59.80545 
L 128.352439 57.14433 
L 129.025751 54.48321 
L 129.341681 53.461121 
L 129.841912 51.82209 
L 130.883843 49.16097 
L 131.162993 48.553184 
L 132.207133 46.49985 
L 132.948593 45.241343 
L 134.29513 43.39521 
L 134.734193 42.823791 
L 136.519793 40.895484 
L 136.689107 40.73409 
L 138.341105 39.032429 
L 139.244824 38.07297 
L 140.126705 36.974006 
L 141.111535 35.41185 
L 141.912305 33.824299 
L 142.30219 32.75073 
L 143.065556 30.08961 
L 143.689974 27.42849 
L 143.697905 27.389069 
L 144.096882 24.76737 
L 144.488483 22.10625 
" clip-path="url(#p5cc121b984)" style="fill: none; stroke: #dbe9f6; stroke-width: 1.5"/>
    <path d="M 280.07862 22.10625 
L 280.082033 22.133798 
L 280.475919 24.76737 
L 280.780497 27.42849 
L 281.012233 30.08961 
L 281.187133 32.75073 
L 281.317692 35.41185 
L 281.413798 38.07297 
L 281.48335 40.73409 
L 281.532672 43.39521 
L 281.571343 46.49985 
L 281.592841 49.16097 
L 281.606849 51.82209 
L 281.61573 54.48321 
L 281.621248 57.14433 
L 281.624653 59.80545 
L 281.626761 62.46657 
L 281.628057 65.12769 
L 281.628809 67.78881 
L 281.629174 70.44993 
L 281.629282 73.11105 
L 281.629271 75.77217 
L 281.629293 78.43329 
L 281.629493 81.09441 
L 281.630009 83.75553 
L 281.631002 86.41665 
L 281.633155 89.52129 
L 281.636523 92.18241 
L 281.642462 94.84353 
L 281.652865 97.50465 
L 281.670702 100.16577 
L 281.700406 102.82689 
L 281.748345 105.48801 
L 281.823386 108.14913 
L 281.903345 110.014965 
L 281.949538 110.81025 
L 282.176578 113.47137 
L 282.500283 116.13249 
L 282.948971 118.79361 
L 283.554138 121.45473 
L 283.688945 121.906785 
L 284.548449 124.11585 
L 285.474545 126.064518 
L 285.88133 126.77697 
L 287.260145 128.902146 
L 287.626575 129.43809 
L 289.081457 131.457594 
L 289.517871 132.09921 
L 290.867057 134.095148 
L 291.526449 135.20385 
L 292.652657 137.262394 
L 292.959255 137.86497 
L 294.157827 140.52609 
L 294.438257 141.253757 
L 295.181797 143.18721 
L 295.998572 145.84833 
L 296.259569 146.875719 
L 296.711561 148.50945 
L 297.305745 151.17057 
L 297.763028 153.83169 
L 298.045169 155.92675 
L 298.136862 156.49281 
L 298.489004 159.15393 
L 298.757806 161.81505 
L 298.96163 164.47617 
L 299.114701 167.13729 
L 299.228222 169.79841 
L 299.311115 172.45953 
L 299.370523 175.12065 
L 299.417722 178.22529 
L 299.444363 180.88641 
L 299.461976 183.54753 
L 299.473287 186.20865 
L 299.480372 188.86977 
L 299.484741 191.53089 
L 299.487421 194.19201 
L 299.489039 196.85313 
L 299.489935 199.51425 
L 299.49026 202.17537 
L 299.490056 204.83649 
L 299.489298 207.49761 
L 299.487863 210.15873 
L 299.485465 212.81985 
L 299.481546 215.48097 
L 299.475175 218.14209 
L 299.464944 220.80321 
L 299.445465 223.90785 
L 299.419219 226.56897 
L 299.380422 229.23009 
L 299.324485 231.89121 
L 299.245544 234.55233 
L 299.136103 237.21345 
L 298.986565 239.87457 
L 298.784578 242.53569 
L 298.514102 245.19681 
L 298.154046 247.85793 
L 298.045169 248.506934 
L 297.752966 250.51905 
L 297.248811 253.18017 
L 296.575499 255.84129 
L 296.259569 256.863379 
L 295.759338 258.50241 
L 294.717407 261.16353 
L 294.438257 261.771316 
L 293.394117 263.82465 
L 292.652657 265.083157 
L 291.30612 266.92929 
L 290.867057 267.500709 
L 289.081457 269.429016 
L 288.912143 269.59041 
L 287.260145 271.292071 
L 286.356426 272.25153 
L 285.474545 273.350494 
L 284.489715 274.91265 
L 283.688945 276.500201 
L 283.29906 277.57377 
L 282.535694 280.23489 
L 281.911276 282.89601 
L 281.903345 282.935431 
L 281.504368 285.55713 
L 281.112767 288.21825 
" clip-path="url(#p5cc121b984)" style="fill: none; stroke: #dbe9f6; stroke-width: 1.5"/>
   </g>
   <g id="PathCollection_3">
    <path d="M 149.196905 288.21825 
L 149.090417 287.584983 
L 148.73011 285.55713 
L 148.361917 282.89601 
L 148.081618 280.23489 
L 147.870141 277.57377 
L 147.712488 274.91265 
L 147.596706 272.25153 
L 147.513194 269.59041 
L 147.454231 266.92929 
L 147.408272 263.82465 
L 147.382898 261.16353 
L 147.36647 258.50241 
L 147.356112 255.84129 
L 147.349693 253.18017 
L 147.345731 250.51905 
L 147.343278 247.85793 
L 147.341783 245.19681 
L 147.340944 242.53569 
L 147.340577 239.87457 
L 147.340524 237.21345 
L 147.34062 234.55233 
L 147.34071 231.89121 
L 147.340692 229.23009 
L 147.34055 226.56897 
L 147.340347 223.90785 
L 147.340171 220.80321 
L 147.340158 218.14209 
L 147.340276 215.48097 
L 147.340447 212.81985 
L 147.340547 210.15873 
L 147.340461 207.49761 
L 147.340113 204.83649 
L 147.339453 202.17537 
L 147.338389 199.51425 
L 147.336671 196.85313 
L 147.333753 194.19201 
L 147.328652 191.53089 
L 147.319799 188.86977 
L 147.30487 186.20865 
L 147.304817 186.202797 
L 147.275823 183.54753 
L 147.230109 180.88641 
L 147.16034 178.22529 
L 147.035276 175.12065 
L 146.875759 172.45953 
L 146.650387 169.79841 
L 146.338288 167.13729 
L 145.913646 164.47617 
L 145.519217 162.614124 
L 145.302917 161.81505 
L 144.38175 159.15393 
L 143.697905 157.591145 
L 143.095019 156.49281 
L 141.912305 154.670956 
L 141.297066 153.83169 
L 140.126705 152.379762 
L 139.179116 151.17057 
L 138.341105 150.124368 
L 137.207568 148.50945 
L 136.519793 147.475116 
L 135.589053 145.84833 
L 134.734193 144.15414 
L 134.297035 143.18721 
L 133.270827 140.52609 
L 132.948593 139.524215 
L 132.432686 137.86497 
L 131.763417 135.20385 
L 131.169164 132.09921 
L 131.162993 132.059088 
L 130.731618 129.43809 
L 130.395916 126.77697 
L 130.140746 124.11585 
L 129.948784 121.45473 
L 129.806277 118.79361 
L 129.7022 116.13249 
L 129.627677 113.47137 
L 129.575582 110.81025 
L 129.540237 108.14913 
L 129.517194 105.48801 
L 129.50308 102.82689 
L 129.495507 100.16577 
L 129.493036 97.50465 
L 129.495167 94.84353 
L 129.502343 92.18241 
L 129.515964 89.52129 
L 129.54323 86.41665 
L 129.580373 83.75553 
L 129.635265 81.09441 
L 129.714185 78.43329 
L 129.825233 75.77217 
L 129.978815 73.11105 
L 130.18832 70.44993 
L 130.471054 67.78881 
L 130.849584 65.12769 
L 131.162993 63.424878 
L 131.335818 62.46657 
L 131.944467 59.80545 
L 132.75581 57.14433 
L 132.948593 56.616839 
L 133.824602 54.48321 
L 134.734193 52.694123 
L 135.280292 51.82209 
L 136.519793 50.071946 
L 137.361422 49.16097 
L 138.341105 48.13637 
L 140.126705 46.617101 
L 140.270756 46.49985 
L 141.912305 44.994063 
L 143.320864 43.39521 
L 143.697905 42.869193 
L 144.787306 40.73409 
L 145.519217 38.87015 
L 145.747773 38.07297 
L 146.358308 35.41185 
L 146.851479 32.75073 
L 147.277822 30.08961 
L 147.304817 29.908942 
L 147.61893 27.42849 
L 147.971802 24.76737 
L 148.374115 22.10625 
" clip-path="url(#p5cc121b984)" style="fill: none; stroke: #bad6eb; stroke-width: 1.5"/>
    <path d="M 276.404345 22.10625 
L 276.510833 22.739517 
L 276.87114 24.76737 
L 277.239333 27.42849 
L 277.519632 30.08961 
L 277.731109 32.75073 
L 277.888762 35.41185 
L 278.004544 38.07297 
L 278.088056 40.73409 
L 278.147019 43.39521 
L 278.192978 46.49985 
L 278.218352 49.16097 
L 278.23478 51.82209 
L 278.245138 54.48321 
L 278.251557 57.14433 
L 278.255519 59.80545 
L 278.257972 62.46657 
L 278.259469 65.12769 
L 278.26031 67.78881 
L 278.260683 70.44993 
L 278.26075 73.11105 
L 278.260684 75.77217 
L 278.260658 78.43329 
L 278.260807 81.09441 
L 278.261215 83.75553 
L 278.261938 86.41665 
L 278.26334 89.52129 
L 278.265379 92.18241 
L 278.26889 94.84353 
L 278.275034 97.50465 
L 278.285611 100.16577 
L 278.296433 101.799717 
L 278.304576 102.82689 
L 278.338493 105.48801 
L 278.391294 108.14913 
L 278.47113 110.81025 
L 278.588745 113.47137 
L 278.75797 116.13249 
L 278.996226 118.79361 
L 279.325139 121.45473 
L 279.771468 124.11585 
L 280.082033 125.522723 
L 280.435828 126.77697 
L 281.397165 129.43809 
L 281.903345 130.557305 
L 282.775104 132.09921 
L 283.688945 133.457996 
L 284.998127 135.20385 
L 285.474545 135.780849 
L 287.117691 137.86497 
L 287.260145 138.043407 
L 288.977427 140.52609 
L 289.081457 140.686352 
L 290.473357 143.18721 
L 290.867057 143.996934 
L 291.674605 145.84833 
L 292.620512 148.50945 
L 292.652657 148.614582 
L 293.410714 151.17057 
L 294.025879 153.83169 
L 294.438257 156.106557 
L 294.512554 156.49281 
L 294.932047 159.15393 
L 295.25294 161.81505 
L 295.496488 164.47617 
L 295.679347 167.13729 
L 295.814771 169.79841 
L 295.913408 172.45953 
L 295.98384 175.12065 
L 296.039504 178.22529 
L 296.07072 180.88641 
L 296.091221 183.54753 
L 296.104304 186.20865 
L 296.112462 188.86977 
L 296.117483 191.53089 
L 296.120558 194.19201 
L 296.122397 196.85313 
L 296.123367 199.51425 
L 296.12362 202.17537 
L 296.12319 204.83649 
L 296.122019 207.49761 
L 296.119906 210.15873 
L 296.116411 212.81985 
L 296.110706 215.48097 
L 296.101449 218.14209 
L 296.086649 220.80321 
L 296.058659 223.90785 
L 296.021203 226.56897 
L 295.966148 229.23009 
L 295.887144 231.89121 
L 295.776055 234.55233 
L 295.622453 237.21345 
L 295.412938 239.87457 
L 295.130199 242.53569 
L 294.751668 245.19681 
L 294.438257 246.899628 
L 294.265433 247.85793 
L 293.656784 250.51905 
L 292.84544 253.18017 
L 292.652657 253.707661 
L 291.776648 255.84129 
L 290.867057 257.630378 
L 290.320958 258.50241 
L 289.081457 260.252554 
L 288.239828 261.16353 
L 287.260145 262.18813 
L 285.474545 263.707399 
L 285.330494 263.82465 
L 283.688945 265.330437 
L 282.280386 266.92929 
L 281.903345 267.455307 
L 280.813944 269.59041 
L 280.082033 271.45435 
L 279.853477 272.25153 
L 279.242942 274.91265 
L 278.749771 277.57377 
L 278.323428 280.23489 
L 278.296433 280.415558 
L 277.98232 282.89601 
L 277.629448 285.55713 
L 277.227135 288.21825 
" clip-path="url(#p5cc121b984)" style="fill: none; stroke: #bad6eb; stroke-width: 1.5"/>
   </g>
   <g id="PathCollection_4">
    <path d="M 152.12031 288.21825 
L 151.535229 285.55713 
L 151.085036 282.89601 
L 150.876017 281.303941 
L 150.73572 280.23489 
L 150.466045 277.57377 
L 150.265451 274.91265 
L 150.11854 272.25153 
L 150.012935 269.59041 
L 149.938674 266.92929 
L 149.88108 263.82465 
L 149.84946 261.16353 
L 149.829091 258.50241 
L 149.816295 255.84129 
L 149.808379 253.18017 
L 149.80349 250.51905 
L 149.800464 247.85793 
L 149.798635 245.19681 
L 149.797637 242.53569 
L 149.797236 239.87457 
L 149.797218 237.21345 
L 149.797358 234.55233 
L 149.797459 231.89121 
L 149.797403 229.23009 
L 149.797188 226.56897 
L 149.796917 223.90785 
L 149.796711 220.80321 
L 149.796734 218.14209 
L 149.796925 215.48097 
L 149.79717 212.81985 
L 149.797311 210.15873 
L 149.797225 207.49761 
L 149.796864 204.83649 
L 149.796241 202.17537 
L 149.795349 199.51425 
L 149.794044 196.85313 
L 149.791916 194.19201 
L 149.788187 191.53089 
L 149.781634 188.86977 
L 149.770498 186.20865 
L 149.752359 183.54753 
L 149.723934 180.88641 
L 149.680797 178.22529 
L 149.603913 175.12065 
L 149.506266 172.45953 
L 149.368684 169.79841 
L 149.178555 167.13729 
L 149.090417 166.212802 
L 148.90118 164.47617 
L 148.516612 161.81505 
L 148.007486 159.15393 
L 147.338095 156.49281 
L 147.304817 156.384467 
L 146.314782 153.83169 
L 145.519217 152.203298 
L 144.87626 151.17057 
L 143.697905 149.556075 
L 142.815153 148.50945 
L 141.912305 147.524957 
L 140.432157 145.84833 
L 140.126705 145.505862 
L 138.397288 143.18721 
L 138.341105 143.106961 
L 136.878648 140.52609 
L 136.519793 139.798023 
L 135.714128 137.86497 
L 134.81037 135.20385 
L 134.734193 134.933682 
L 134.009692 132.09921 
L 133.488816 129.43809 
L 133.086681 126.77697 
L 132.948593 125.604527 
L 132.771468 124.11585 
L 132.529612 121.45473 
L 132.350404 118.79361 
L 132.219871 116.13249 
L 132.126735 113.47137 
L 132.061926 110.81025 
L 132.018225 108.14913 
L 131.989989 105.48801 
L 131.972978 102.82689 
L 131.964245 100.16577 
L 131.962104 97.50465 
L 131.966121 94.84353 
L 131.977126 92.18241 
L 131.997225 89.52129 
L 132.036815 86.41665 
L 132.090273 83.75553 
L 132.168823 81.09441 
L 132.28125 78.43329 
L 132.438865 75.77217 
L 132.656188 73.11105 
L 132.948593 70.478366 
L 132.951803 70.44993 
L 133.340752 67.78881 
L 133.862292 65.12769 
L 134.55775 62.46657 
L 134.734193 61.916939 
L 135.533534 59.80545 
L 136.519793 57.745093 
L 136.896517 57.14433 
L 138.341105 55.152667 
L 139.01978 54.48321 
L 140.126705 53.446742 
L 141.912305 52.142689 
L 142.372768 51.82209 
L 143.697905 50.811934 
L 145.321612 49.16097 
L 145.519217 48.920614 
L 146.871443 46.49985 
L 147.304817 45.488756 
L 147.951557 43.39521 
L 148.582746 40.73409 
L 149.080779 38.07297 
L 149.090417 38.012587 
L 149.447849 35.41185 
L 149.779512 32.75073 
L 150.107833 30.08961 
L 150.463532 27.42849 
L 150.876017 24.786944 
L 150.879121 24.76737 
L 151.382409 22.10625 
" clip-path="url(#p5cc121b984)" style="fill: none; stroke: #89bedc; stroke-width: 1.5"/>
    <path d="M 273.48094 22.10625 
L 274.066021 24.76737 
L 274.516214 27.42849 
L 274.725233 29.020559 
L 274.86553 30.08961 
L 275.135205 32.75073 
L 275.335799 35.41185 
L 275.48271 38.07297 
L 275.588315 40.73409 
L 275.662576 43.39521 
L 275.72017 46.49985 
L 275.75179 49.16097 
L 275.772159 51.82209 
L 275.784955 54.48321 
L 275.792872 57.14433 
L 275.79776 59.80545 
L 275.800786 62.46657 
L 275.802616 65.12769 
L 275.803616 67.78881 
L 275.804022 70.44993 
L 275.804051 73.11105 
L 275.803934 75.77217 
L 275.803883 78.43329 
L 275.804042 81.09441 
L 275.804462 83.75553 
L 275.805133 86.41665 
L 275.806275 89.52129 
L 275.807794 92.18241 
L 275.810349 94.84353 
L 275.814858 97.50465 
L 275.822715 100.16577 
L 275.835879 102.82689 
L 275.857031 105.48801 
L 275.889802 108.14913 
L 275.939072 110.81025 
L 276.011298 113.47137 
L 276.114833 116.13249 
L 276.260226 118.79361 
L 276.460531 121.45473 
L 276.510833 121.959534 
L 276.756757 124.11585 
L 277.16 126.77697 
L 277.69308 129.43809 
L 278.296433 131.749702 
L 278.410401 132.09921 
L 279.695508 135.20385 
L 280.082033 135.951019 
L 281.342902 137.86497 
L 281.903345 138.597481 
L 283.5875 140.52609 
L 283.688945 140.633947 
L 285.474545 142.638612 
L 285.896389 143.18721 
L 287.260145 145.040991 
L 287.747504 145.84833 
L 289.081457 148.340888 
L 289.157864 148.50945 
L 290.21186 151.17057 
L 290.867057 153.221648 
L 291.044815 153.83169 
L 291.687829 156.49281 
L 292.186982 159.15393 
L 292.571833 161.81505 
L 292.652657 162.529984 
L 292.875146 164.47617 
L 293.105476 167.13729 
L 293.275719 169.79841 
L 293.399376 172.45953 
L 293.487366 175.12065 
L 293.556587 178.22529 
L 293.595194 180.88641 
L 293.620415 183.54753 
L 293.636435 186.20865 
L 293.646391 188.86977 
L 293.652513 191.53089 
L 293.656256 194.19201 
L 293.65847 196.85313 
L 293.659578 199.51425 
L 293.659747 202.17537 
L 293.659 204.83649 
L 293.657228 207.49761 
L 293.654121 210.15873 
L 293.649004 212.81985 
L 293.640663 215.48097 
L 293.627153 218.14209 
L 293.605642 220.80321 
L 293.56519 223.90785 
L 293.511359 226.56897 
L 293.432618 229.23009 
L 293.320093 231.89121 
L 293.162429 234.55233 
L 292.945082 237.21345 
L 292.652657 239.84622 
L 292.649456 239.87457 
L 292.260502 242.53569 
L 291.73896 245.19681 
L 291.043501 247.85793 
L 290.867057 248.407563 
L 290.067717 250.51905 
L 289.081457 252.579407 
L 288.704733 253.18017 
L 287.260145 255.171833 
L 286.58147 255.84129 
L 285.474545 256.877758 
L 283.688945 258.181811 
L 283.228482 258.50241 
L 281.903345 259.512566 
L 280.279638 261.16353 
L 280.082033 261.403886 
L 278.729807 263.82465 
L 278.296433 264.835744 
L 277.649693 266.92929 
L 277.018504 269.59041 
L 276.520471 272.25153 
L 276.510833 272.311913 
L 276.153401 274.91265 
L 275.821738 277.57377 
L 275.493417 280.23489 
L 275.137718 282.89601 
L 274.725233 285.537556 
L 274.722129 285.55713 
L 274.218841 288.21825 
" clip-path="url(#p5cc121b984)" style="fill: none; stroke: #89bedc; stroke-width: 1.5"/>
   </g>
   <g id="PathCollection_5">
    <path d="M 155.155065 288.21825 
L 154.482929 286.277088 
L 154.279741 285.55713 
L 153.675744 282.89601 
L 153.214115 280.23489 
L 152.865055 277.57377 
L 152.697329 275.871861 
L 152.609663 274.91265 
L 152.429301 272.25153 
L 152.299968 269.59041 
L 152.209303 266.92929 
L 152.139269 263.82465 
L 152.100992 261.16353 
L 152.076432 258.50241 
L 152.061047 255.84129 
L 152.051537 253.18017 
L 152.045661 250.51905 
L 152.042027 247.85793 
L 152.03985 245.19681 
L 152.038696 242.53569 
L 152.038271 239.87457 
L 152.038297 237.21345 
L 152.038484 234.55233 
L 152.038589 231.89121 
L 152.03848 229.23009 
L 152.038181 226.56897 
L 152.037835 223.90785 
L 152.037609 220.80321 
L 152.037681 218.14209 
L 152.037957 215.48097 
L 152.038278 212.81985 
L 152.038452 210.15873 
L 152.038347 207.49761 
L 152.037945 204.83649 
L 152.037322 202.17537 
L 152.036549 199.51425 
L 152.035559 196.85313 
L 152.03403 194.19201 
L 152.031313 191.53089 
L 152.026408 188.86977 
L 152.017945 186.20865 
L 152.004129 183.54753 
L 151.98259 180.88641 
L 151.950165 178.22529 
L 151.892875 175.12065 
L 151.820632 172.45953 
L 151.719418 169.79841 
L 151.580314 167.13729 
L 151.392617 164.47617 
L 151.143579 161.81505 
L 150.876017 159.61237 
L 150.815738 159.15393 
L 150.377067 156.49281 
L 149.80942 153.83169 
L 149.090417 151.218067 
L 149.074341 151.17057 
L 147.993198 148.50945 
L 147.304817 147.146875 
L 146.428081 145.84833 
L 145.519217 144.685316 
L 144.049415 143.18721 
L 143.697905 142.854467 
L 141.912305 141.129994 
L 141.386274 140.52609 
L 140.126705 139.010494 
L 139.395049 137.86497 
L 138.341105 136.003378 
L 137.986106 135.20385 
L 136.844838 132.09921 
L 136.519793 130.995837 
L 136.131807 129.43809 
L 135.606888 126.77697 
L 135.204009 124.11585 
L 134.898961 121.45473 
L 134.734193 119.533885 
L 134.674604 118.79361 
L 134.516654 116.13249 
L 134.404236 113.47137 
L 134.326295 110.81025 
L 134.274014 108.14913 
L 134.240516 105.48801 
L 134.220661 102.82689 
L 134.21095 100.16577 
L 134.209484 97.50465 
L 134.21597 94.84353 
L 134.231736 92.18241 
L 134.259755 89.52129 
L 134.31427 86.41665 
L 134.387374 83.75553 
L 134.494302 81.09441 
L 134.646807 78.43329 
L 134.734193 77.326025 
L 134.867776 75.77217 
L 135.179802 73.11105 
L 135.604578 70.44993 
L 136.176814 67.78881 
L 136.519793 66.549305 
L 137.01893 65.12769 
L 138.217098 62.46657 
L 138.341105 62.237471 
L 140.126705 59.930386 
L 140.275768 59.80545 
L 141.912305 58.530266 
L 143.697905 57.501444 
L 144.310033 57.14433 
L 145.519217 56.38553 
L 147.304817 54.643482 
L 147.410378 54.48321 
L 148.866248 51.82209 
L 149.090417 51.304664 
L 149.771528 49.16097 
L 150.430662 46.49985 
L 150.876017 44.192113 
L 151.009268 43.39521 
L 151.388017 40.73409 
L 151.71717 38.07297 
L 152.024561 35.41185 
L 152.337684 32.75073 
L 152.685289 30.08961 
L 152.697329 30.010102 
L 153.127133 27.42849 
L 153.684298 24.76737 
L 154.405729 22.10625 
" clip-path="url(#p5cc121b984)" style="fill: none; stroke: #539ecd; stroke-width: 1.5"/>
    <path d="M 270.446185 22.10625 
L 271.118321 24.047412 
L 271.321509 24.76737 
L 271.925506 27.42849 
L 272.387135 30.08961 
L 272.736195 32.75073 
L 272.903921 34.452639 
L 272.991587 35.41185 
L 273.171949 38.07297 
L 273.301282 40.73409 
L 273.391947 43.39521 
L 273.461981 46.49985 
L 273.500258 49.16097 
L 273.524818 51.82209 
L 273.540203 54.48321 
L 273.549713 57.14433 
L 273.55559 59.80545 
L 273.559224 62.46657 
L 273.561401 65.12769 
L 273.562557 67.78881 
L 273.562986 70.44993 
L 273.562969 73.11105 
L 273.5628 75.77217 
L 273.562735 78.43329 
L 273.562924 81.09441 
L 273.563384 83.75553 
L 273.564042 86.41665 
L 273.564995 89.52129 
L 273.566115 92.18241 
L 273.567951 94.84353 
L 273.571269 97.50465 
L 273.577189 100.16577 
L 273.587212 102.82689 
L 273.603305 105.48801 
L 273.628075 108.14913 
L 273.665007 110.81025 
L 273.718732 113.47137 
L 273.795255 116.13249 
L 273.902119 118.79361 
L 274.048528 121.45473 
L 274.245502 124.11585 
L 274.50617 126.77697 
L 274.725233 128.517541 
L 274.850923 129.43809 
L 275.308977 132.09921 
L 276.015703 135.20385 
L 276.510833 136.910148 
L 276.854519 137.86497 
L 278.041749 140.52609 
L 278.296433 141.006323 
L 279.855678 143.18721 
L 280.082033 143.463358 
L 281.903345 145.292979 
L 282.469619 145.84833 
L 283.688945 147.023842 
L 284.966567 148.50945 
L 285.474545 149.134476 
L 286.730137 151.17057 
L 287.260145 152.149451 
L 287.971536 153.83169 
L 288.896619 156.49281 
L 289.081457 157.141253 
L 289.566588 159.15393 
L 290.069283 161.81505 
L 290.454314 164.47617 
L 290.74513 167.13729 
L 290.867057 168.6291 
L 290.956782 169.79841 
L 291.106378 172.45953 
L 291.212562 175.12065 
L 291.295798 178.22529 
L 291.342015 180.88641 
L 291.372076 183.54753 
L 291.391095 186.20865 
L 291.402887 188.86977 
L 291.410132 191.53089 
L 291.414554 194.19201 
L 291.417136 196.85313 
L 291.418355 199.51425 
L 291.418385 202.17537 
L 291.41723 204.83649 
L 291.414718 207.49761 
L 291.41039 210.15873 
L 291.403289 212.81985 
L 291.391721 215.48097 
L 291.373024 218.14209 
L 291.343362 220.80321 
L 291.287847 223.90785 
L 291.214314 226.56897 
L 291.107165 229.23009 
L 290.954548 231.89121 
L 290.867057 232.999513 
L 290.733528 234.55233 
L 290.421472 237.21345 
L 289.996684 239.87457 
L 289.424441 242.53569 
L 289.081457 243.775209 
L 288.582323 245.19681 
L 287.384153 247.85793 
L 287.260145 248.087031 
L 285.474545 250.394115 
L 285.325483 250.51905 
L 283.688945 251.794234 
L 281.903345 252.823056 
L 281.291218 253.18017 
L 280.082033 253.93897 
L 278.296433 255.681018 
L 278.190872 255.84129 
L 276.735002 258.50241 
L 276.510833 259.019836 
L 275.829722 261.16353 
L 275.170588 263.82465 
L 274.725233 266.132387 
L 274.591982 266.92929 
L 274.213233 269.59041 
L 273.88408 272.25153 
L 273.576689 274.91265 
L 273.263566 277.57377 
L 272.915961 280.23489 
L 272.903921 280.314398 
L 272.474117 282.89601 
L 271.916952 285.55713 
L 271.195521 288.21825 
" clip-path="url(#p5cc121b984)" style="fill: none; stroke: #539ecd; stroke-width: 1.5"/>
   </g>
   <g id="PathCollection_6">
    <path d="M 160.48035 288.21825 
L 159.875441 287.942292 
L 158.054129 285.854901 
L 157.900663 285.55713 
L 156.78433 282.89601 
L 156.268529 281.321683 
L 156.010529 280.23489 
L 155.523087 277.57377 
L 155.159673 274.91265 
L 154.893449 272.25153 
L 154.702416 269.59041 
L 154.568586 266.92929 
L 154.482929 264.353852 
L 154.468085 263.82465 
L 154.420475 261.16353 
L 154.390032 258.50241 
L 154.371008 255.84129 
L 154.359253 253.18017 
L 154.351983 250.51905 
L 154.347496 247.85793 
L 154.344837 245.19681 
L 154.343472 242.53569 
L 154.34302 239.87457 
L 154.343108 237.21345 
L 154.343356 234.55233 
L 154.343456 231.89121 
L 154.343267 229.23009 
L 154.342847 226.56897 
L 154.342403 223.90785 
L 154.342157 220.80321 
L 154.342303 218.14209 
L 154.342699 215.48097 
L 154.343121 212.81985 
L 154.343326 210.15873 
L 154.343174 207.49761 
L 154.342688 204.83649 
L 154.34202 202.17537 
L 154.341326 199.51425 
L 154.340605 196.85313 
L 154.339586 194.19201 
L 154.33769 191.53089 
L 154.334058 188.86977 
L 154.3276 186.20865 
L 154.316995 183.54753 
L 154.300581 180.88641 
L 154.276156 178.22529 
L 154.233508 175.12065 
L 154.180191 172.45953 
L 154.105925 169.79841 
L 154.004376 167.13729 
L 153.868135 164.47617 
L 153.688684 161.81505 
L 153.456234 159.15393 
L 153.159412 156.49281 
L 152.784875 153.83169 
L 152.697329 153.304456 
L 152.331398 151.17057 
L 151.765501 148.50945 
L 151.055297 145.84833 
L 150.876017 145.258421 
L 150.089191 143.18721 
L 149.090417 141.051367 
L 148.740156 140.52609 
L 147.304817 138.643401 
L 146.418733 137.86497 
L 145.519217 137.120973 
L 143.697905 135.774248 
L 143.082729 135.20385 
L 141.912305 134.04003 
L 140.577058 132.09921 
L 140.126705 131.34065 
L 139.346797 129.43809 
L 138.459979 126.77697 
L 138.341105 126.331673 
L 137.89392 124.11585 
L 137.483426 121.45473 
L 137.176605 118.79361 
L 136.952083 116.13249 
L 136.791762 113.47137 
L 136.680554 110.81025 
L 136.606146 108.14913 
L 136.558804 105.48801 
L 136.531237 102.82689 
L 136.519793 100.425231 
L 136.518741 100.16577 
L 136.518507 97.50465 
L 136.519793 97.171661 
L 136.530386 94.84353 
L 136.557341 92.18241 
L 136.604172 89.52129 
L 136.69437 86.41665 
L 136.814677 83.75553 
L 136.990098 81.09441 
L 137.239759 78.43329 
L 137.588214 75.77217 
L 138.066787 73.11105 
L 138.341105 71.955533 
L 138.847647 70.44993 
L 140.017086 67.78881 
L 140.126705 67.587159 
L 141.912305 65.584888 
L 142.682156 65.12769 
L 143.697905 64.578176 
L 145.519217 63.949676 
L 147.304817 63.121912 
L 148.038241 62.46657 
L 149.090417 61.423219 
L 150.003379 59.80545 
L 150.876017 57.930837 
L 151.139031 57.14433 
L 151.90615 54.48321 
L 152.508618 51.82209 
L 152.697329 50.82069 
L 152.988295 49.16097 
L 153.383002 46.49985 
L 153.768534 43.39521 
L 154.06168 40.73409 
L 154.345415 38.07297 
L 154.482929 36.855231 
L 154.674058 35.41185 
L 155.081136 32.75073 
L 155.58099 30.08961 
L 156.220477 27.42849 
L 156.268529 27.268356 
L 157.371748 24.76737 
L 158.054129 23.563172 
L 159.661492 22.10625 
" clip-path="url(#p5cc121b984)" style="fill: none; stroke: #2b7bba; stroke-width: 1.5"/>
    <path d="M 164.735245 22.10625 
L 165.232241 22.245997 
L 167.053553 22.570751 
L 168.839153 22.426149 
L 169.73749 22.10625 
" clip-path="url(#p5cc121b984)" style="fill: none; stroke: #2b7bba; stroke-width: 1.5"/>
    <path d="M 170.510177 288.21825 
L 168.839153 287.783626 
L 167.053553 287.820463 
L 165.395347 288.21825 
" clip-path="url(#p5cc121b984)" style="fill: none; stroke: #2b7bba; stroke-width: 1.5"/>
    <path d="M 184.016679 22.10625 
L 184.980977 22.373243 
L 186.766577 22.313054 
L 187.379568 22.10625 
" clip-path="url(#p5cc121b984)" style="fill: none; stroke: #2b7bba; stroke-width: 1.5"/>
    <path d="M 188.033383 288.21825 
L 186.766577 287.92106 
L 184.980977 288.074925 
L 184.597371 288.21825 
" clip-path="url(#p5cc121b984)" style="fill: none; stroke: #2b7bba; stroke-width: 1.5"/>
    <path d="M 201.879211 22.10625 
L 202.944113 22.386296 
L 204.729713 22.290874 
L 205.257245 22.10625 
" clip-path="url(#p5cc121b984)" style="fill: none; stroke: #2b7bba; stroke-width: 1.5"/>
    <path d="M 205.884468 288.21825 
L 204.729713 287.930649 
L 202.944113 288.049508 
L 202.477671 288.21825 
" clip-path="url(#p5cc121b984)" style="fill: none; stroke: #2b7bba; stroke-width: 1.5"/>
    <path d="M 219.716782 22.10625 
L 220.871537 22.393851 
L 222.657137 22.274992 
L 223.123579 22.10625 
" clip-path="url(#p5cc121b984)" style="fill: none; stroke: #2b7bba; stroke-width: 1.5"/>
    <path d="M 223.722039 288.21825 
L 222.657137 287.938204 
L 220.871537 288.033626 
L 220.344005 288.21825 
" clip-path="url(#p5cc121b984)" style="fill: none; stroke: #2b7bba; stroke-width: 1.5"/>
    <path d="M 237.567867 22.10625 
L 238.834673 22.40344 
L 240.620273 22.249575 
L 241.003879 22.10625 
" clip-path="url(#p5cc121b984)" style="fill: none; stroke: #2b7bba; stroke-width: 1.5"/>
    <path d="M 241.584571 288.21825 
L 240.620273 287.951257 
L 238.834673 288.011446 
L 238.221682 288.21825 
" clip-path="url(#p5cc121b984)" style="fill: none; stroke: #2b7bba; stroke-width: 1.5"/>
    <path d="M 255.091073 22.10625 
L 256.762097 22.540874 
L 258.547697 22.504037 
L 260.205903 22.10625 
" clip-path="url(#p5cc121b984)" style="fill: none; stroke: #2b7bba; stroke-width: 1.5"/>
    <path d="M 260.866005 288.21825 
L 260.369009 288.078503 
L 258.547697 287.753749 
L 256.762097 287.898351 
L 255.86376 288.21825 
" clip-path="url(#p5cc121b984)" style="fill: none; stroke: #2b7bba; stroke-width: 1.5"/>
    <path d="M 265.1209 22.10625 
L 265.725809 22.382208 
L 267.547121 24.469599 
L 267.700587 24.76737 
L 268.81692 27.42849 
L 269.332721 29.002817 
L 269.590721 30.08961 
L 270.078163 32.75073 
L 270.441577 35.41185 
L 270.707801 38.07297 
L 270.898834 40.73409 
L 271.032664 43.39521 
L 271.118321 45.970647 
L 271.133165 46.49985 
L 271.180775 49.16097 
L 271.211218 51.82209 
L 271.230243 54.48321 
L 271.241997 57.14433 
L 271.249267 59.80545 
L 271.253755 62.46657 
L 271.256414 65.12769 
L 271.257781 67.78881 
L 271.258235 70.44993 
L 271.258154 73.11105 
L 271.257921 75.77217 
L 271.257852 78.43329 
L 271.258105 81.09441 
L 271.258652 83.75553 
L 271.25934 86.41665 
L 271.260153 89.52129 
L 271.260929 92.18241 
L 271.26216 94.84353 
L 271.264528 97.50465 
L 271.268971 100.16577 
L 271.27665 102.82689 
L 271.288985 105.48801 
L 271.307791 108.14913 
L 271.335504 110.81025 
L 271.375409 113.47137 
L 271.431824 116.13249 
L 271.510168 118.79361 
L 271.616956 121.45473 
L 271.759775 124.11585 
L 271.947341 126.77697 
L 272.189683 129.43809 
L 272.498471 132.09921 
L 272.903921 134.843862 
L 272.958696 135.20385 
L 273.4443 137.86497 
L 274.054893 140.52609 
L 274.725233 142.886808 
L 274.829298 143.18721 
L 275.902372 145.84833 
L 276.510833 147.10537 
L 277.499092 148.50945 
L 278.296433 149.509796 
L 280.082033 151.007702 
L 280.29572 151.17057 
L 281.903345 152.386881 
L 283.451688 153.83169 
L 283.688945 154.068754 
L 285.304748 156.49281 
L 285.474545 156.786215 
L 286.416174 159.15393 
L 287.260145 161.782187 
L 287.268165 161.81505 
L 287.784 164.47617 
L 288.175628 167.13729 
L 288.467432 169.79841 
L 288.680268 172.45953 
L 288.831801 175.12065 
L 288.950667 178.22529 
L 289.016574 180.88641 
L 289.059337 183.54753 
L 289.081457 185.728413 
L 289.085599 186.20865 
L 289.09981 188.86977 
L 289.108537 191.53089 
L 289.113851 194.19201 
L 289.116906 196.85313 
L 289.118239 199.51425 
L 289.118034 202.17537 
L 289.116257 204.83649 
L 289.112639 207.49761 
L 289.106495 210.15873 
L 289.096442 212.81985 
L 289.081457 215.257176 
L 289.079835 215.48097 
L 289.048775 218.14209 
L 288.999652 220.80321 
L 288.908067 223.90785 
L 288.787169 226.56897 
L 288.611445 229.23009 
L 288.361631 231.89121 
L 288.013102 234.55233 
L 287.534493 237.21345 
L 287.260145 238.369063 
L 286.753622 239.87457 
L 285.584172 242.53569 
L 285.474545 242.737355 
L 283.688945 244.739619 
L 282.919102 245.19681 
L 281.903345 245.746328 
L 280.082033 246.374827 
L 278.296433 247.20259 
L 277.56301 247.85793 
L 276.510833 248.901282 
L 275.597871 250.51905 
L 274.725233 252.393663 
L 274.462219 253.18017 
L 273.6951 255.84129 
L 273.092632 258.50241 
L 272.903921 259.50381 
L 272.612955 261.16353 
L 272.218248 263.82465 
L 271.832716 266.92929 
L 271.53957 269.59041 
L 271.255835 272.25153 
L 271.118321 273.469269 
L 270.927192 274.91265 
L 270.520114 277.57377 
L 270.02026 280.23489 
L 269.380773 282.89601 
L 269.332721 283.056144 
L 268.229502 285.55713 
L 267.547121 286.761328 
L 265.939758 288.21825 
" clip-path="url(#p5cc121b984)" style="fill: none; stroke: #2b7bba; stroke-width: 1.5"/>
   </g>
   <g id="PathCollection_7">
    <path d="M 139.975291 113.47137 
L 139.816732 110.81025 
L 139.71123 108.14913 
L 139.644935 105.48801 
L 139.607515 102.82689 
L 139.592244 100.16577 
L 139.59613 97.50465 
L 139.620029 94.84353 
L 139.668741 92.18241 
L 139.751113 89.52129 
L 139.907528 86.41665 
L 140.114226 83.75553 
L 140.126705 83.642831 
L 140.603445 81.09441 
L 141.303585 78.43329 
L 141.912305 76.734735 
L 142.754867 75.77217 
L 143.697905 74.920058 
L 145.519217 74.762769 
L 147.304817 75.147385 
L 149.090417 75.032309 
L 150.859729 73.11105 
L 150.876017 73.093104 
L 152.007305 70.44993 
L 152.697329 68.653336 
L 152.939956 67.78881 
L 153.66317 65.12769 
L 154.287494 62.46657 
L 154.482929 61.546799 
L 154.848868 59.80545 
L 155.34012 57.14433 
L 155.751673 54.48321 
L 156.09648 51.82209 
L 156.268529 50.303988 
L 156.433249 49.16097 
L 156.78542 46.49985 
L 157.172867 43.39521 
L 157.51751 40.73409 
L 157.908252 38.07297 
L 158.054129 37.257104 
L 158.628043 35.41185 
L 159.692585 32.75073 
L 159.875441 32.397426 
L 161.661041 31.299372 
L 163.446641 31.751495 
L 165.126873 32.75073 
L 165.232241 32.832449 
L 167.053553 33.845713 
L 168.839153 33.619933 
L 169.796856 32.75073 
L 170.624753 32.172142 
L 172.410353 30.272501 
L 172.586833 30.08961 
L 174.231665 28.765101 
L 176.017265 27.918796 
L 177.802865 27.927102 
L 179.588465 28.76305 
L 181.305546 30.08961 
L 181.409777 30.192222 
L 183.195377 31.988576 
L 184.374839 32.75073 
L 184.980977 33.266977 
L 186.766577 33.290552 
L 187.400006 32.75073 
L 188.587889 31.970965 
L 190.373489 30.112484 
L 190.396127 30.08961 
L 192.159089 28.704381 
L 193.944689 27.89712 
L 195.766001 27.953833 
L 197.551601 28.833821 
L 199.158799 30.08961 
L 199.337201 30.267263 
L 201.122801 32.051555 
L 202.253212 32.75073 
L 202.944113 33.314031 
L 204.729713 33.239992 
L 205.279754 32.75073 
L 206.515313 31.90479 
L 208.247813 30.08961 
L 208.300913 30.046112 
L 210.122225 28.635124 
L 211.907825 27.874817 
L 213.693425 27.974584 
L 215.479025 28.882536 
L 217.010989 30.08961 
L 217.300337 30.380386 
L 219.085937 32.144137 
L 220.111921 32.75073 
L 220.871537 33.342325 
L 222.657137 33.203144 
L 223.146427 32.75073 
L 224.478449 31.803545 
L 226.099783 30.08961 
L 226.264049 29.953921 
L 228.049649 28.590234 
L 229.835249 27.861718 
L 231.656561 28.008194 
L 233.442161 28.957154 
L 234.866636 30.08961 
L 235.227761 30.455806 
L 237.013361 32.204437 
L 237.984989 32.75073 
L 238.834673 33.380064 
L 240.620273 33.143264 
L 241.029138 32.75073 
L 242.405873 31.734926 
L 243.954616 30.08961 
L 244.191473 29.89306 
L 246.012785 28.525788 
L 247.798385 27.847169 
L 249.583985 28.038613 
L 251.369585 29.024087 
L 252.680268 30.08961 
L 253.190897 30.619585 
L 254.976497 32.411819 
L 255.530331 32.75073 
L 256.762097 33.74379 
L 258.547697 33.811218 
L 260.282751 32.75073 
L 260.369009 32.710086 
L 262.154609 31.693959 
L 263.940209 31.483396 
L 265.429892 32.75073 
L 265.725809 33.076421 
L 266.530905 35.41185 
L 267.208578 38.07297 
L 267.547121 39.914775 
L 267.636162 40.73409 
L 267.839282 43.39521 
L 267.99528 46.49985 
L 268.079927 49.16097 
L 268.133907 51.82209 
L 268.167595 54.48321 
L 268.188422 57.14433 
L 268.201315 59.80545 
L 268.209246 62.46657 
L 268.213869 65.12769 
L 268.216137 67.78881 
L 268.216777 70.44993 
L 268.216521 73.11105 
L 268.216088 75.77217 
L 268.216028 78.43329 
L 268.216556 81.09441 
L 268.217522 83.75553 
L 268.218555 86.41665 
L 268.219426 89.52129 
L 268.219898 92.18241 
L 268.220612 94.84353 
L 268.222429 97.50465 
L 268.226415 100.16577 
L 268.233679 102.82689 
L 268.245372 105.48801 
L 268.262866 108.14913 
L 268.28807 110.81025 
L 268.323756 113.47137 
L 268.373762 116.13249 
L 268.44301 118.79361 
L 268.537377 121.45473 
L 268.663532 124.11585 
L 268.828888 126.77697 
L 269.041725 129.43809 
L 269.311488 132.09921 
L 269.332721 132.275414 
L 269.607094 135.20385 
L 269.917233 137.86497 
L 270.294008 140.52609 
L 270.746447 143.18721 
L 271.118321 145.089463 
L 271.260743 145.84833 
L 271.809515 148.50945 
L 272.44751 151.17057 
L 272.903921 152.923046 
L 273.196145 153.83169 
L 274.113581 156.49281 
L 274.725233 158.131899 
L 275.404523 159.15393 
L 276.510833 160.724842 
L 278.296433 161.505634 
L 280.082033 161.777504 
L 280.162483 161.81505 
L 281.903345 162.714957 
L 283.223072 164.47617 
L 283.688945 165.217901 
L 284.290402 167.13729 
L 284.935734 169.79841 
L 285.421158 172.45953 
L 285.474545 172.864146 
L 285.658104 175.12065 
L 285.827763 178.22529 
L 285.921506 180.88641 
L 285.982068 183.54753 
L 286.020138 186.20865 
L 286.043663 188.86977 
L 286.058114 191.53089 
L 286.066881 194.19201 
L 286.071786 196.85313 
L 286.073628 199.51425 
L 286.072626 202.17537 
L 286.068626 204.83649 
L 286.060993 207.49761 
L 286.048224 210.15873 
L 286.027388 212.81985 
L 285.993535 215.48097 
L 285.939143 218.14209 
L 285.85362 220.80321 
L 285.695312 223.90785 
L 285.487813 226.56897 
L 285.474545 226.688632 
L 284.99843 229.23009 
L 284.297952 231.89121 
L 283.688945 233.590269 
L 282.84667 234.55233 
L 281.903345 235.404639 
L 280.082033 235.561895 
L 278.296433 235.177273 
L 276.510833 235.292325 
L 274.741566 237.21345 
L 274.725233 237.231446 
L 273.593952 239.87457 
L 272.903921 241.671174 
L 272.661295 242.53569 
L 271.938081 245.19681 
L 271.313756 247.85793 
L 271.118321 248.777702 
L 270.752382 250.51905 
L 270.26113 253.18017 
L 269.849577 255.84129 
L 269.50477 258.50241 
L 269.332721 260.020512 
L 269.168001 261.16353 
L 268.81583 263.82465 
L 268.428383 266.92929 
L 268.08374 269.59041 
L 267.692998 272.25153 
L 267.547121 273.067396 
L 266.973207 274.91265 
L 265.908665 277.57377 
L 265.725809 277.927074 
L 263.940209 279.025128 
L 262.154609 278.573005 
L 260.474377 277.57377 
L 260.369009 277.492051 
L 258.547697 276.478787 
L 256.762097 276.704567 
L 255.804394 277.57377 
L 254.976497 278.152358 
L 253.190897 280.051999 
L 253.014417 280.23489 
L 251.369585 281.559399 
L 249.583985 282.405704 
L 247.798385 282.397398 
L 246.012785 281.56145 
L 244.295704 280.23489 
L 244.191473 280.132278 
L 242.405873 278.335924 
L 241.226411 277.57377 
L 240.620273 277.057523 
L 238.834673 277.033948 
L 238.201244 277.57377 
L 237.013361 278.353535 
L 235.227761 280.212016 
L 235.205123 280.23489 
L 233.442161 281.620119 
L 231.656561 282.42738 
L 229.835249 282.370667 
L 228.049649 281.490679 
L 226.442451 280.23489 
L 226.264049 280.057237 
L 224.478449 278.272945 
L 223.348038 277.57377 
L 222.657137 277.010469 
L 220.871537 277.084508 
L 220.321496 277.57377 
L 219.085937 278.41971 
L 217.353437 280.23489 
L 217.300337 280.278388 
L 215.479025 281.689376 
L 213.693425 282.449683 
L 211.907825 282.349916 
L 210.122225 281.441964 
L 208.590261 280.23489 
L 208.300913 279.944114 
L 206.515313 278.180363 
L 205.489329 277.57377 
L 204.729713 276.982175 
L 202.944113 277.121356 
L 202.454823 277.57377 
L 201.122801 278.520955 
L 199.501467 280.23489 
L 199.337201 280.370579 
L 197.551601 281.734266 
L 195.766001 282.462782 
L 193.944689 282.316306 
L 192.159089 281.367346 
L 190.734614 280.23489 
L 190.373489 279.868694 
L 188.587889 278.120063 
L 187.616261 277.57377 
L 186.766577 276.944436 
L 184.980977 277.181236 
L 184.572112 277.57377 
L 183.195377 278.589574 
L 181.646634 280.23489 
L 181.409777 280.43144 
L 179.588465 281.798712 
L 177.802865 282.477331 
L 176.017265 282.285887 
L 174.231665 281.300413 
L 172.920982 280.23489 
L 172.410353 279.704915 
L 170.624753 277.912681 
L 170.070919 277.57377 
L 168.839153 276.58071 
L 167.053553 276.513282 
L 165.318499 277.57377 
L 165.232241 277.614414 
L 163.446641 278.630541 
L 161.661041 278.841104 
L 160.171358 277.57377 
L 159.875441 277.248079 
L 159.070345 274.91265 
L 158.392672 272.25153 
L 158.054129 270.409725 
L 157.965088 269.59041 
L 157.761968 266.92929 
L 157.60597 263.82465 
L 157.521323 261.16353 
L 157.467343 258.50241 
L 157.433655 255.84129 
L 157.412828 253.18017 
L 157.399935 250.51905 
L 157.392004 247.85793 
L 157.387382 245.19681 
L 157.385115 242.53569 
L 157.384478 239.87457 
L 157.384741 237.21345 
L 157.385188 234.55233 
L 157.385279 231.89121 
L 157.384812 229.23009 
L 157.383968 226.56897 
L 157.383167 223.90785 
L 157.382833 220.80321 
L 157.383229 218.14209 
L 157.384036 215.48097 
L 157.384809 212.81985 
L 157.385115 210.15873 
L 157.384759 207.49761 
L 157.383878 204.83649 
L 157.382844 202.17537 
L 157.38202 199.51425 
L 157.381501 196.85313 
L 157.38095 194.19201 
L 157.379613 191.53089 
L 157.376473 188.86977 
L 157.370426 186.20865 
L 157.360345 183.54753 
L 157.344963 180.88641 
L 157.322589 178.22529 
L 157.284319 175.12065 
L 157.237013 172.45953 
L 157.171356 169.79841 
L 157.081619 167.13729 
L 156.961256 164.47617 
L 156.802982 161.81505 
L 156.598679 159.15393 
L 156.33912 156.49281 
L 156.268529 155.887559 
L 156.084323 153.83169 
L 155.794341 151.17057 
L 155.44081 148.50945 
L 155.014536 145.84833 
L 154.507344 143.18721 
L 154.482929 143.066443 
L 153.984504 140.52609 
L 153.376289 137.86497 
L 152.697329 135.262063 
L 152.678807 135.20385 
L 151.650656 132.09921 
L 150.876017 130.032777 
L 150.485906 129.43809 
L 149.090417 127.439213 
L 147.566667 126.77697 
L 147.304817 126.662113 
L 145.519217 126.334628 
L 143.697905 125.424545 
L 142.691081 124.11585 
L 141.912305 122.913313 
L 141.436047 121.45473 
L 140.7617 118.79361 
L 140.252027 116.13249 
L 140.126705 115.232449 
L 139.975291 113.47137 
z
" clip-path="url(#p5cc121b984)" style="fill: none; stroke: #0b559f; stroke-width: 1.5"/>
   </g>
   <g id="PathCollection_8"/>
   <g id="patch_3">
    <path d="M 34.240625 288.21825 
L 34.240625 22.10625 
" style="fill: none; stroke: #000000; stroke-width: 0.8; stroke-linejoin: miter; stroke-linecap: square"/>
   </g>
   <g id="patch_4">
    <path d="M 391.360625 288.21825 
L 391.360625 22.10625 
" style="fill: none; stroke: #000000; stroke-width: 0.8; stroke-linejoin: miter; stroke-linecap: square"/>
   </g>
   <g id="patch_5">
    <path d="M 34.240625 288.21825 
L 391.360625 288.21825 
" style="fill: none; stroke: #000000; stroke-width: 0.8; stroke-linejoin: miter; stroke-linecap: square"/>
   </g>
   <g id="patch_6">
    <path d="M 34.240625 22.10625 
L 391.360625 22.10625 
" style="fill: none; stroke: #000000; stroke-width: 0.8; stroke-linejoin: miter; stroke-linecap: square"/>
   </g>
   <g id="text_16">
    <!-- 6.9_cross_-43.0 -->
    <g transform="translate(166.181563 16.10625)scale(0.12 -0.12)">
     <defs>
      <path id="DejaVuSans-2e" d="M 684 794 
L 1344 794 
L 1344 0 
L 684 0 
L 684 794 
z
" transform="scale(0.015625)"/>
      <path id="DejaVuSans-39" d="M 703 97 
L 703 672 
Q 941 559 1184 500 
Q 1428 441 1663 441 
Q 2288 441 2617 861 
Q 2947 1281 2994 2138 
Q 2813 1869 2534 1725 
Q 2256 1581 1919 1581 
Q 1219 1581 811 2004 
Q 403 2428 403 3163 
Q 403 3881 828 4315 
Q 1253 4750 1959 4750 
Q 2769 4750 3195 4129 
Q 3622 3509 3622 2328 
Q 3622 1225 3098 567 
Q 2575 -91 1691 -91 
Q 1453 -91 1209 -44 
Q 966 3 703 97 
z
M 1959 2075 
Q 2384 2075 2632 2365 
Q 2881 2656 2881 3163 
Q 2881 3666 2632 3958 
Q 2384 4250 1959 4250 
Q 1534 4250 1286 3958 
Q 1038 3666 1038 3163 
Q 1038 2656 1286 2365 
Q 1534 2075 1959 2075 
z
" transform="scale(0.015625)"/>
      <path id="DejaVuSans-5f" d="M 3263 -1063 
L 3263 -1509 
L -63 -1509 
L -63 -1063 
L 3263 -1063 
z
" transform="scale(0.015625)"/>
      <path id="DejaVuSans-63" d="M 3122 3366 
L 3122 2828 
Q 2878 2963 2633 3030 
Q 2388 3097 2138 3097 
Q 1578 3097 1268 2742 
Q 959 2388 959 1747 
Q 959 1106 1268 751 
Q 1578 397 2138 397 
Q 2388 397 2633 464 
Q 2878 531 3122 666 
L 3122 134 
Q 2881 22 2623 -34 
Q 2366 -91 2075 -91 
Q 1284 -91 818 406 
Q 353 903 353 1747 
Q 353 2603 823 3093 
Q 1294 3584 2113 3584 
Q 2378 3584 2631 3529 
Q 2884 3475 3122 3366 
z
" transform="scale(0.015625)"/>
      <path id="DejaVuSans-72" d="M 2631 2963 
Q 2534 3019 2420 3045 
Q 2306 3072 2169 3072 
Q 1681 3072 1420 2755 
Q 1159 2438 1159 1844 
L 1159 0 
L 581 0 
L 581 3500 
L 1159 3500 
L 1159 2956 
Q 1341 3275 1631 3429 
Q 1922 3584 2338 3584 
Q 2397 3584 2469 3576 
Q 2541 3569 2628 3553 
L 2631 2963 
z
" transform="scale(0.015625)"/>
      <path id="DejaVuSans-73" d="M 2834 3397 
L 2834 2853 
Q 2591 2978 2328 3040 
Q 2066 3103 1784 3103 
Q 1356 3103 1142 2972 
Q 928 2841 928 2578 
Q 928 2378 1081 2264 
Q 1234 2150 1697 2047 
L 1894 2003 
Q 2506 1872 2764 1633 
Q 3022 1394 3022 966 
Q 3022 478 2636 193 
Q 2250 -91 1575 -91 
Q 1294 -91 989 -36 
Q 684 19 347 128 
L 347 722 
Q 666 556 975 473 
Q 1284 391 1588 391 
Q 1994 391 2212 530 
Q 2431 669 2431 922 
Q 2431 1156 2273 1281 
Q 2116 1406 1581 1522 
L 1381 1569 
Q 847 1681 609 1914 
Q 372 2147 372 2553 
Q 372 3047 722 3315 
Q 1072 3584 1716 3584 
Q 2034 3584 2315 3537 
Q 2597 3491 2834 3397 
z
" transform="scale(0.015625)"/>
      <path id="DejaVuSans-2d" d="M 313 2009 
L 1997 2009 
L 1997 1497 
L 313 1497 
L 313 2009 
z
" transform="scale(0.015625)"/>
     </defs>
     <use xlink:href="#DejaVuSans-36"/>
     <use xlink:href="#DejaVuSans-2e" x="63.623047"/>
     <use xlink:href="#DejaVuSans-39" x="95.410156"/>
     <use xlink:href="#DejaVuSans-5f" x="159.033203"/>
     <use xlink:href="#DejaVuSans-63" x="209.033203"/>
     <use xlink:href="#DejaVuSans-72" x="264.013672"/>
     <use xlink:href="#DejaVuSans-6f" x="302.876953"/>
     <use xlink:href="#DejaVuSans-73" x="364.058594"/>
     <use xlink:href="#DejaVuSans-73" x="416.158203"/>
     <use xlink:href="#DejaVuSans-5f" x="468.257812"/>
     <use xlink:href="#DejaVuSans-2d" x="518.257812"/>
     <use xlink:href="#DejaVuSans-34" x="554.341797"/>
     <use xlink:href="#DejaVuSans-33" x="617.964844"/>
     <use xlink:href="#DejaVuSans-2e" x="681.587891"/>
     <use xlink:href="#DejaVuSans-30" x="713.375"/>
    </g>
   </g>
  </g>
 </g>
 <defs>
  <clipPath id="p5cc121b984">
   <rect x="34.240625" y="22.10625" width="357.12" height="266.112"/>
  </clipPath>
 </defs>
</svg>
