<?xml version="1.0" encoding="utf-8" standalone="no"?>
<!DOCTYPE svg PUBLIC "-//W3C//DTD SVG 1.1//EN"
  "http://www.w3.org/Graphics/SVG/1.1/DTD/svg11.dtd">
<svg xmlns:xlink="http://www.w3.org/1999/xlink" width="408.104375pt" height="325.7745pt" viewBox="0 0 408.104375 325.7745" xmlns="http://www.w3.org/2000/svg" version="1.1">
 <metadata>
  <rdf:RDF xmlns:dc="http://purl.org/dc/elements/1.1/" xmlns:cc="http://creativecommons.org/ns#" xmlns:rdf="http://www.w3.org/1999/02/22-rdf-syntax-ns#">
   <cc:Work>
    <dc:type rdf:resource="http://purl.org/dc/dcmitype/StillImage"/>
    <dc:date>2024-07-12T12:32:17.161080</dc:date>
    <dc:format>image/svg+xml</dc:format>
    <dc:creator>
     <cc:Agent>
      <dc:title>Matplotlib v3.5.3, https://matplotlib.org/</dc:title>
     </cc:Agent>
    </dc:creator>
   </cc:Work>
  </rdf:RDF>
 </metadata>
 <defs>
  <style type="text/css">*{stroke-linejoin: round; stroke-linecap: butt}</style>
 </defs>
 <g id="figure_1">
  <g id="patch_1">
   <path d="M 0 325.7745 
L 408.104375 325.7745 
L 408.104375 0 
L 0 0 
z
" style="fill: #ffffff"/>
  </g>
  <g id="axes_1">
   <g id="patch_2">
    <path d="M 34.240625 288.21825 
L 391.360625 288.21825 
L 391.360625 22.10625 
L 34.240625 22.10625 
z
" style="fill: #ffffff"/>
   </g>
   <g id="matplotlib.axis_1">
    <g id="xtick_1">
     <g id="line2d_1">
      <defs>
       <path id="m8c3e18e8ed" d="M 0 0 
L 0 3.5 
" style="stroke: #000000; stroke-width: 0.8"/>
      </defs>
      <g>
       <use xlink:href="#m8c3e18e8ed" x="34.240625" y="288.21825" style="stroke: #000000; stroke-width: 0.8"/>
      </g>
     </g>
     <g id="text_1">
      <!-- 0 -->
      <g transform="translate(31.059375 302.816687)scale(0.1 -0.1)">
       <defs>
        <path id="DejaVuSans-30" d="M 2034 4250 
Q 1547 4250 1301 3770 
Q 1056 3291 1056 2328 
Q 1056 1369 1301 889 
Q 1547 409 2034 409 
Q 2525 409 2770 889 
Q 3016 1369 3016 2328 
Q 3016 3291 2770 3770 
Q 2525 4250 2034 4250 
z
M 2034 4750 
Q 2819 4750 3233 4129 
Q 3647 3509 3647 2328 
Q 3647 1150 3233 529 
Q 2819 -91 2034 -91 
Q 1250 -91 836 529 
Q 422 1150 422 2328 
Q 422 3509 836 4129 
Q 1250 4750 2034 4750 
z
" transform="scale(0.015625)"/>
       </defs>
       <use xlink:href="#DejaVuSans-30"/>
      </g>
     </g>
    </g>
    <g id="xtick_2">
     <g id="line2d_2">
      <g>
       <use xlink:href="#m8c3e18e8ed" x="105.664625" y="288.21825" style="stroke: #000000; stroke-width: 0.8"/>
      </g>
     </g>
     <g id="text_2">
      <!-- 20 -->
      <g transform="translate(99.302125 302.816687)scale(0.1 -0.1)">
       <defs>
        <path id="DejaVuSans-32" d="M 1228 531 
L 3431 531 
L 3431 0 
L 469 0 
L 469 531 
Q 828 903 1448 1529 
Q 2069 2156 2228 2338 
Q 2531 2678 2651 2914 
Q 2772 3150 2772 3378 
Q 2772 3750 2511 3984 
Q 2250 4219 1831 4219 
Q 1534 4219 1204 4116 
Q 875 4013 500 3803 
L 500 4441 
Q 881 4594 1212 4672 
Q 1544 4750 1819 4750 
Q 2544 4750 2975 4387 
Q 3406 4025 3406 3419 
Q 3406 3131 3298 2873 
Q 3191 2616 2906 2266 
Q 2828 2175 2409 1742 
Q 1991 1309 1228 531 
z
" transform="scale(0.015625)"/>
       </defs>
       <use xlink:href="#DejaVuSans-32"/>
       <use xlink:href="#DejaVuSans-30" x="63.623047"/>
      </g>
     </g>
    </g>
    <g id="xtick_3">
     <g id="line2d_3">
      <g>
       <use xlink:href="#m8c3e18e8ed" x="177.088625" y="288.21825" style="stroke: #000000; stroke-width: 0.8"/>
      </g>
     </g>
     <g id="text_3">
      <!-- 40 -->
      <g transform="translate(170.726125 302.816687)scale(0.1 -0.1)">
       <defs>
        <path id="DejaVuSans-34" d="M 2419 4116 
L 825 1625 
L 2419 1625 
L 2419 4116 
z
M 2253 4666 
L 3047 4666 
L 3047 1625 
L 3713 1625 
L 3713 1100 
L 3047 1100 
L 3047 0 
L 2419 0 
L 2419 1100 
L 313 1100 
L 313 1709 
L 2253 4666 
z
" transform="scale(0.015625)"/>
       </defs>
       <use xlink:href="#DejaVuSans-34"/>
       <use xlink:href="#DejaVuSans-30" x="63.623047"/>
      </g>
     </g>
    </g>
    <g id="xtick_4">
     <g id="line2d_4">
      <g>
       <use xlink:href="#m8c3e18e8ed" x="248.512625" y="288.21825" style="stroke: #000000; stroke-width: 0.8"/>
      </g>
     </g>
     <g id="text_4">
      <!-- 60 -->
      <g transform="translate(242.150125 302.816687)scale(0.1 -0.1)">
       <defs>
        <path id="DejaVuSans-36" d="M 2113 2584 
Q 1688 2584 1439 2293 
Q 1191 2003 1191 1497 
Q 1191 994 1439 701 
Q 1688 409 2113 409 
Q 2538 409 2786 701 
Q 3034 994 3034 1497 
Q 3034 2003 2786 2293 
Q 2538 2584 2113 2584 
z
M 3366 4563 
L 3366 3988 
Q 3128 4100 2886 4159 
Q 2644 4219 2406 4219 
Q 1781 4219 1451 3797 
Q 1122 3375 1075 2522 
Q 1259 2794 1537 2939 
Q 1816 3084 2150 3084 
Q 2853 3084 3261 2657 
Q 3669 2231 3669 1497 
Q 3669 778 3244 343 
Q 2819 -91 2113 -91 
Q 1303 -91 875 529 
Q 447 1150 447 2328 
Q 447 3434 972 4092 
Q 1497 4750 2381 4750 
Q 2619 4750 2861 4703 
Q 3103 4656 3366 4563 
z
" transform="scale(0.015625)"/>
       </defs>
       <use xlink:href="#DejaVuSans-36"/>
       <use xlink:href="#DejaVuSans-30" x="63.623047"/>
      </g>
     </g>
    </g>
    <g id="xtick_5">
     <g id="line2d_5">
      <g>
       <use xlink:href="#m8c3e18e8ed" x="319.936625" y="288.21825" style="stroke: #000000; stroke-width: 0.8"/>
      </g>
     </g>
     <g id="text_5">
      <!-- 80 -->
      <g transform="translate(313.574125 302.816687)scale(0.1 -0.1)">
       <defs>
        <path id="DejaVuSans-38" d="M 2034 2216 
Q 1584 2216 1326 1975 
Q 1069 1734 1069 1313 
Q 1069 891 1326 650 
Q 1584 409 2034 409 
Q 2484 409 2743 651 
Q 3003 894 3003 1313 
Q 3003 1734 2745 1975 
Q 2488 2216 2034 2216 
z
M 1403 2484 
Q 997 2584 770 2862 
Q 544 3141 544 3541 
Q 544 4100 942 4425 
Q 1341 4750 2034 4750 
Q 2731 4750 3128 4425 
Q 3525 4100 3525 3541 
Q 3525 3141 3298 2862 
Q 3072 2584 2669 2484 
Q 3125 2378 3379 2068 
Q 3634 1759 3634 1313 
Q 3634 634 3220 271 
Q 2806 -91 2034 -91 
Q 1263 -91 848 271 
Q 434 634 434 1313 
Q 434 1759 690 2068 
Q 947 2378 1403 2484 
z
M 1172 3481 
Q 1172 3119 1398 2916 
Q 1625 2713 2034 2713 
Q 2441 2713 2670 2916 
Q 2900 3119 2900 3481 
Q 2900 3844 2670 4047 
Q 2441 4250 2034 4250 
Q 1625 4250 1398 4047 
Q 1172 3844 1172 3481 
z
" transform="scale(0.015625)"/>
       </defs>
       <use xlink:href="#DejaVuSans-38"/>
       <use xlink:href="#DejaVuSans-30" x="63.623047"/>
      </g>
     </g>
    </g>
    <g id="xtick_6">
     <g id="line2d_6">
      <g>
       <use xlink:href="#m8c3e18e8ed" x="391.360625" y="288.21825" style="stroke: #000000; stroke-width: 0.8"/>
      </g>
     </g>
     <g id="text_6">
      <!-- 100 -->
      <g transform="translate(381.816875 302.816687)scale(0.1 -0.1)">
       <defs>
        <path id="DejaVuSans-31" d="M 794 531 
L 1825 531 
L 1825 4091 
L 703 3866 
L 703 4441 
L 1819 4666 
L 2450 4666 
L 2450 531 
L 3481 531 
L 3481 0 
L 794 0 
L 794 531 
z
" transform="scale(0.015625)"/>
       </defs>
       <use xlink:href="#DejaVuSans-31"/>
       <use xlink:href="#DejaVuSans-30" x="63.623047"/>
       <use xlink:href="#DejaVuSans-30" x="127.246094"/>
      </g>
     </g>
    </g>
    <g id="text_7">
     <!-- axialRotation -->
     <g transform="translate(180.024844 316.494812)scale(0.1 -0.1)">
      <defs>
       <path id="DejaVuSans-61" d="M 2194 1759 
Q 1497 1759 1228 1600 
Q 959 1441 959 1056 
Q 959 750 1161 570 
Q 1363 391 1709 391 
Q 2188 391 2477 730 
Q 2766 1069 2766 1631 
L 2766 1759 
L 2194 1759 
z
M 3341 1997 
L 3341 0 
L 2766 0 
L 2766 531 
Q 2569 213 2275 61 
Q 1981 -91 1556 -91 
Q 1019 -91 701 211 
Q 384 513 384 1019 
Q 384 1609 779 1909 
Q 1175 2209 1959 2209 
L 2766 2209 
L 2766 2266 
Q 2766 2663 2505 2880 
Q 2244 3097 1772 3097 
Q 1472 3097 1187 3025 
Q 903 2953 641 2809 
L 641 3341 
Q 956 3463 1253 3523 
Q 1550 3584 1831 3584 
Q 2591 3584 2966 3190 
Q 3341 2797 3341 1997 
z
" transform="scale(0.015625)"/>
       <path id="DejaVuSans-78" d="M 3513 3500 
L 2247 1797 
L 3578 0 
L 2900 0 
L 1881 1375 
L 863 0 
L 184 0 
L 1544 1831 
L 300 3500 
L 978 3500 
L 1906 2253 
L 2834 3500 
L 3513 3500 
z
" transform="scale(0.015625)"/>
       <path id="DejaVuSans-69" d="M 603 3500 
L 1178 3500 
L 1178 0 
L 603 0 
L 603 3500 
z
M 603 4863 
L 1178 4863 
L 1178 4134 
L 603 4134 
L 603 4863 
z
" transform="scale(0.015625)"/>
       <path id="DejaVuSans-6c" d="M 603 4863 
L 1178 4863 
L 1178 0 
L 603 0 
L 603 4863 
z
" transform="scale(0.015625)"/>
       <path id="DejaVuSans-52" d="M 2841 2188 
Q 3044 2119 3236 1894 
Q 3428 1669 3622 1275 
L 4263 0 
L 3584 0 
L 2988 1197 
Q 2756 1666 2539 1819 
Q 2322 1972 1947 1972 
L 1259 1972 
L 1259 0 
L 628 0 
L 628 4666 
L 2053 4666 
Q 2853 4666 3247 4331 
Q 3641 3997 3641 3322 
Q 3641 2881 3436 2590 
Q 3231 2300 2841 2188 
z
M 1259 4147 
L 1259 2491 
L 2053 2491 
Q 2509 2491 2742 2702 
Q 2975 2913 2975 3322 
Q 2975 3731 2742 3939 
Q 2509 4147 2053 4147 
L 1259 4147 
z
" transform="scale(0.015625)"/>
       <path id="DejaVuSans-6f" d="M 1959 3097 
Q 1497 3097 1228 2736 
Q 959 2375 959 1747 
Q 959 1119 1226 758 
Q 1494 397 1959 397 
Q 2419 397 2687 759 
Q 2956 1122 2956 1747 
Q 2956 2369 2687 2733 
Q 2419 3097 1959 3097 
z
M 1959 3584 
Q 2709 3584 3137 3096 
Q 3566 2609 3566 1747 
Q 3566 888 3137 398 
Q 2709 -91 1959 -91 
Q 1206 -91 779 398 
Q 353 888 353 1747 
Q 353 2609 779 3096 
Q 1206 3584 1959 3584 
z
" transform="scale(0.015625)"/>
       <path id="DejaVuSans-74" d="M 1172 4494 
L 1172 3500 
L 2356 3500 
L 2356 3053 
L 1172 3053 
L 1172 1153 
Q 1172 725 1289 603 
Q 1406 481 1766 481 
L 2356 481 
L 2356 0 
L 1766 0 
Q 1100 0 847 248 
Q 594 497 594 1153 
L 594 3053 
L 172 3053 
L 172 3500 
L 594 3500 
L 594 4494 
L 1172 4494 
z
" transform="scale(0.015625)"/>
       <path id="DejaVuSans-6e" d="M 3513 2113 
L 3513 0 
L 2938 0 
L 2938 2094 
Q 2938 2591 2744 2837 
Q 2550 3084 2163 3084 
Q 1697 3084 1428 2787 
Q 1159 2491 1159 1978 
L 1159 0 
L 581 0 
L 581 3500 
L 1159 3500 
L 1159 2956 
Q 1366 3272 1645 3428 
Q 1925 3584 2291 3584 
Q 2894 3584 3203 3211 
Q 3513 2838 3513 2113 
z
" transform="scale(0.015625)"/>
      </defs>
      <use xlink:href="#DejaVuSans-61"/>
      <use xlink:href="#DejaVuSans-78" x="61.279297"/>
      <use xlink:href="#DejaVuSans-69" x="120.458984"/>
      <use xlink:href="#DejaVuSans-61" x="148.242188"/>
      <use xlink:href="#DejaVuSans-6c" x="209.521484"/>
      <use xlink:href="#DejaVuSans-52" x="237.304688"/>
      <use xlink:href="#DejaVuSans-6f" x="302.287109"/>
      <use xlink:href="#DejaVuSans-74" x="363.46875"/>
      <use xlink:href="#DejaVuSans-61" x="402.677734"/>
      <use xlink:href="#DejaVuSans-74" x="463.957031"/>
      <use xlink:href="#DejaVuSans-69" x="503.166016"/>
      <use xlink:href="#DejaVuSans-6f" x="530.949219"/>
      <use xlink:href="#DejaVuSans-6e" x="592.130859"/>
     </g>
    </g>
   </g>
   <g id="matplotlib.axis_2">
    <g id="ytick_1">
     <g id="line2d_7">
      <defs>
       <path id="ma87d34e2a8" d="M 0 0 
L -3.5 0 
" style="stroke: #000000; stroke-width: 0.8"/>
      </defs>
      <g>
       <use xlink:href="#ma87d34e2a8" x="34.240625" y="288.21825" style="stroke: #000000; stroke-width: 0.8"/>
      </g>
     </g>
     <g id="text_8">
      <!-- 0 -->
      <g transform="translate(20.878125 292.017469)scale(0.1 -0.1)">
       <use xlink:href="#DejaVuSans-30"/>
      </g>
     </g>
    </g>
    <g id="ytick_2">
     <g id="line2d_8">
      <g>
       <use xlink:href="#ma87d34e2a8" x="34.240625" y="243.86625" style="stroke: #000000; stroke-width: 0.8"/>
      </g>
     </g>
     <g id="text_9">
      <!-- 1 -->
      <g transform="translate(20.878125 247.665469)scale(0.1 -0.1)">
       <use xlink:href="#DejaVuSans-31"/>
      </g>
     </g>
    </g>
    <g id="ytick_3">
     <g id="line2d_9">
      <g>
       <use xlink:href="#ma87d34e2a8" x="34.240625" y="199.51425" style="stroke: #000000; stroke-width: 0.8"/>
      </g>
     </g>
     <g id="text_10">
      <!-- 2 -->
      <g transform="translate(20.878125 203.313469)scale(0.1 -0.1)">
       <use xlink:href="#DejaVuSans-32"/>
      </g>
     </g>
    </g>
    <g id="ytick_4">
     <g id="line2d_10">
      <g>
       <use xlink:href="#ma87d34e2a8" x="34.240625" y="155.16225" style="stroke: #000000; stroke-width: 0.8"/>
      </g>
     </g>
     <g id="text_11">
      <!-- 3 -->
      <g transform="translate(20.878125 158.961469)scale(0.1 -0.1)">
       <defs>
        <path id="DejaVuSans-33" d="M 2597 2516 
Q 3050 2419 3304 2112 
Q 3559 1806 3559 1356 
Q 3559 666 3084 287 
Q 2609 -91 1734 -91 
Q 1441 -91 1130 -33 
Q 819 25 488 141 
L 488 750 
Q 750 597 1062 519 
Q 1375 441 1716 441 
Q 2309 441 2620 675 
Q 2931 909 2931 1356 
Q 2931 1769 2642 2001 
Q 2353 2234 1838 2234 
L 1294 2234 
L 1294 2753 
L 1863 2753 
Q 2328 2753 2575 2939 
Q 2822 3125 2822 3475 
Q 2822 3834 2567 4026 
Q 2313 4219 1838 4219 
Q 1578 4219 1281 4162 
Q 984 4106 628 3988 
L 628 4550 
Q 988 4650 1302 4700 
Q 1616 4750 1894 4750 
Q 2613 4750 3031 4423 
Q 3450 4097 3450 3541 
Q 3450 3153 3228 2886 
Q 3006 2619 2597 2516 
z
" transform="scale(0.015625)"/>
       </defs>
       <use xlink:href="#DejaVuSans-33"/>
      </g>
     </g>
    </g>
    <g id="ytick_5">
     <g id="line2d_11">
      <g>
       <use xlink:href="#ma87d34e2a8" x="34.240625" y="110.81025" style="stroke: #000000; stroke-width: 0.8"/>
      </g>
     </g>
     <g id="text_12">
      <!-- 4 -->
      <g transform="translate(20.878125 114.609469)scale(0.1 -0.1)">
       <use xlink:href="#DejaVuSans-34"/>
      </g>
     </g>
    </g>
    <g id="ytick_6">
     <g id="line2d_12">
      <g>
       <use xlink:href="#ma87d34e2a8" x="34.240625" y="66.45825" style="stroke: #000000; stroke-width: 0.8"/>
      </g>
     </g>
     <g id="text_13">
      <!-- 5 -->
      <g transform="translate(20.878125 70.257469)scale(0.1 -0.1)">
       <defs>
        <path id="DejaVuSans-35" d="M 691 4666 
L 3169 4666 
L 3169 4134 
L 1269 4134 
L 1269 2991 
Q 1406 3038 1543 3061 
Q 1681 3084 1819 3084 
Q 2600 3084 3056 2656 
Q 3513 2228 3513 1497 
Q 3513 744 3044 326 
Q 2575 -91 1722 -91 
Q 1428 -91 1123 -41 
Q 819 9 494 109 
L 494 744 
Q 775 591 1075 516 
Q 1375 441 1709 441 
Q 2250 441 2565 725 
Q 2881 1009 2881 1497 
Q 2881 1984 2565 2268 
Q 2250 2553 1709 2553 
Q 1456 2553 1204 2497 
Q 953 2441 691 2322 
L 691 4666 
z
" transform="scale(0.015625)"/>
       </defs>
       <use xlink:href="#DejaVuSans-35"/>
      </g>
     </g>
    </g>
    <g id="ytick_7">
     <g id="line2d_13">
      <g>
       <use xlink:href="#ma87d34e2a8" x="34.240625" y="22.10625" style="stroke: #000000; stroke-width: 0.8"/>
      </g>
     </g>
     <g id="text_14">
      <!-- 6 -->
      <g transform="translate(20.878125 25.905469)scale(0.1 -0.1)">
       <use xlink:href="#DejaVuSans-36"/>
      </g>
     </g>
    </g>
    <g id="text_15">
     <!-- zShift -->
     <g transform="translate(14.798438 169.151312)rotate(-90)scale(0.1 -0.1)">
      <defs>
       <path id="DejaVuSans-7a" d="M 353 3500 
L 3084 3500 
L 3084 2975 
L 922 459 
L 3084 459 
L 3084 0 
L 275 0 
L 275 525 
L 2438 3041 
L 353 3041 
L 353 3500 
z
" transform="scale(0.015625)"/>
       <path id="DejaVuSans-53" d="M 3425 4513 
L 3425 3897 
Q 3066 4069 2747 4153 
Q 2428 4238 2131 4238 
Q 1616 4238 1336 4038 
Q 1056 3838 1056 3469 
Q 1056 3159 1242 3001 
Q 1428 2844 1947 2747 
L 2328 2669 
Q 3034 2534 3370 2195 
Q 3706 1856 3706 1288 
Q 3706 609 3251 259 
Q 2797 -91 1919 -91 
Q 1588 -91 1214 -16 
Q 841 59 441 206 
L 441 856 
Q 825 641 1194 531 
Q 1563 422 1919 422 
Q 2459 422 2753 634 
Q 3047 847 3047 1241 
Q 3047 1584 2836 1778 
Q 2625 1972 2144 2069 
L 1759 2144 
Q 1053 2284 737 2584 
Q 422 2884 422 3419 
Q 422 4038 858 4394 
Q 1294 4750 2059 4750 
Q 2388 4750 2728 4690 
Q 3069 4631 3425 4513 
z
" transform="scale(0.015625)"/>
       <path id="DejaVuSans-68" d="M 3513 2113 
L 3513 0 
L 2938 0 
L 2938 2094 
Q 2938 2591 2744 2837 
Q 2550 3084 2163 3084 
Q 1697 3084 1428 2787 
Q 1159 2491 1159 1978 
L 1159 0 
L 581 0 
L 581 4863 
L 1159 4863 
L 1159 2956 
Q 1366 3272 1645 3428 
Q 1925 3584 2291 3584 
Q 2894 3584 3203 3211 
Q 3513 2838 3513 2113 
z
" transform="scale(0.015625)"/>
       <path id="DejaVuSans-66" d="M 2375 4863 
L 2375 4384 
L 1825 4384 
Q 1516 4384 1395 4259 
Q 1275 4134 1275 3809 
L 1275 3500 
L 2222 3500 
L 2222 3053 
L 1275 3053 
L 1275 0 
L 697 0 
L 697 3053 
L 147 3053 
L 147 3500 
L 697 3500 
L 697 3744 
Q 697 4328 969 4595 
Q 1241 4863 1831 4863 
L 2375 4863 
z
" transform="scale(0.015625)"/>
      </defs>
      <use xlink:href="#DejaVuSans-7a"/>
      <use xlink:href="#DejaVuSans-53" x="52.490234"/>
      <use xlink:href="#DejaVuSans-68" x="115.966797"/>
      <use xlink:href="#DejaVuSans-69" x="179.345703"/>
      <use xlink:href="#DejaVuSans-66" x="207.128906"/>
      <use xlink:href="#DejaVuSans-74" x="240.583984"/>
     </g>
    </g>
   </g>
   <g id="PathCollection_1"/>
   <g id="PathCollection_2">
    <path d="M 344.187016 22.10625 
L 344.685041 24.000539 
L 344.894674 24.76737 
L 345.474917 27.42849 
L 345.914244 30.08961 
L 346.243687 32.75073 
L 346.487686 35.41185 
L 346.506353 35.686545 
L 346.684824 38.07297 
L 346.827659 40.73409 
L 346.927869 43.39521 
L 347.00558 46.49985 
L 347.048409 49.16097 
L 347.076231 51.82209 
L 347.093925 54.48321 
L 347.104999 57.14433 
L 347.111843 59.80545 
L 347.115992 62.46657 
L 347.118391 65.12769 
L 347.119635 67.78881 
L 347.120147 70.44993 
L 347.120266 73.11105 
L 347.120266 75.77217 
L 347.120327 78.43329 
L 347.120511 81.09441 
L 347.120765 83.75553 
L 347.120975 86.41665 
L 347.121032 89.52129 
L 347.120894 92.18241 
L 347.120661 94.84353 
L 347.120461 97.50465 
L 347.120402 100.16577 
L 347.120517 102.82689 
L 347.120743 105.48801 
L 347.120957 108.14913 
L 347.121045 110.81025 
L 347.120957 113.47137 
L 347.120743 116.13249 
L 347.120517 118.79361 
L 347.120402 121.45473 
L 347.120462 124.11585 
L 347.120662 126.77697 
L 347.120895 129.43809 
L 347.121035 132.09921 
L 347.120983 135.20385 
L 347.120783 137.86497 
L 347.12055 140.52609 
L 347.12041 143.18721 
L 347.12044 145.84833 
L 347.120623 148.50945 
L 347.12086 151.17057 
L 347.121022 153.83169 
L 347.121022 156.49281 
L 347.12086 159.15393 
L 347.120623 161.81505 
L 347.12044 164.47617 
L 347.12041 167.13729 
L 347.12055 169.79841 
L 347.120783 172.45953 
L 347.120983 175.12065 
L 347.121035 178.22529 
L 347.120895 180.88641 
L 347.120662 183.54753 
L 347.120462 186.20865 
L 347.120402 188.86977 
L 347.120517 191.53089 
L 347.120743 194.19201 
L 347.120957 196.85313 
L 347.121045 199.51425 
L 347.120957 202.17537 
L 347.120743 204.83649 
L 347.120517 207.49761 
L 347.120402 210.15873 
L 347.120461 212.81985 
L 347.120661 215.48097 
L 347.120894 218.14209 
L 347.121032 220.80321 
L 347.120975 223.90785 
L 347.120765 226.56897 
L 347.120511 229.23009 
L 347.120327 231.89121 
L 347.120266 234.55233 
L 347.120266 237.21345 
L 347.120147 239.87457 
L 347.119635 242.53569 
L 347.118391 245.19681 
L 347.115992 247.85793 
L 347.111843 250.51905 
L 347.104999 253.18017 
L 347.093925 255.84129 
L 347.076231 258.50241 
L 347.048409 261.16353 
L 347.00558 263.82465 
L 346.927869 266.92929 
L 346.827659 269.59041 
L 346.684824 272.25153 
L 346.506353 274.637955 
L 346.487686 274.91265 
L 346.243687 277.57377 
L 345.914244 280.23489 
L 345.474917 282.89601 
L 344.894674 285.55713 
L 344.685041 286.323961 
L 344.187016 288.21825 
" clip-path="url(#p1f179ddb27)" style="fill: none; stroke: #deebf7; stroke-width: 1.5"/>
   </g>
   <g id="PathCollection_3">
    <path d="M 334.843078 22.10625 
L 335.721329 24.465935 
L 335.831397 24.76737 
L 336.614836 27.42849 
L 337.20801 30.08961 
L 337.506929 31.859482 
L 337.661196 32.75073 
L 338.009554 35.41185 
L 338.263665 38.07297 
L 338.445708 40.73409 
L 338.573427 43.39521 
L 338.672469 46.49985 
L 338.727054 49.16097 
L 338.762514 51.82209 
L 338.785065 54.48321 
L 338.799179 57.14433 
L 338.807902 59.80545 
L 338.81319 62.46657 
L 338.816247 65.12769 
L 338.817833 67.78881 
L 338.818485 70.44993 
L 338.818636 73.11105 
L 338.818636 75.77217 
L 338.818715 78.43329 
L 338.818949 81.09441 
L 338.819273 83.75553 
L 338.819541 86.41665 
L 338.819613 89.52129 
L 338.819437 92.18241 
L 338.819141 94.84353 
L 338.818886 97.50465 
L 338.818811 100.16577 
L 338.818956 102.82689 
L 338.819244 105.48801 
L 338.819518 108.14913 
L 338.819629 110.81025 
L 338.819518 113.47137 
L 338.819244 116.13249 
L 338.818956 118.79361 
L 338.818811 121.45473 
L 338.818886 124.11585 
L 338.819141 126.77697 
L 338.819438 129.43809 
L 338.819616 132.09921 
L 338.819551 135.20385 
L 338.819295 137.86497 
L 338.818998 140.52609 
L 338.81882 143.18721 
L 338.818858 145.84833 
L 338.819091 148.50945 
L 338.819393 151.17057 
L 338.8196 153.83169 
L 338.8196 156.49281 
L 338.819393 159.15393 
L 338.819091 161.81505 
L 338.818858 164.47617 
L 338.81882 167.13729 
L 338.818998 169.79841 
L 338.819295 172.45953 
L 338.819551 175.12065 
L 338.819616 178.22529 
L 338.819438 180.88641 
L 338.819141 183.54753 
L 338.818886 186.20865 
L 338.818811 188.86977 
L 338.818956 191.53089 
L 338.819244 194.19201 
L 338.819518 196.85313 
L 338.819629 199.51425 
L 338.819518 202.17537 
L 338.819244 204.83649 
L 338.818956 207.49761 
L 338.818811 210.15873 
L 338.818886 212.81985 
L 338.819141 215.48097 
L 338.819437 218.14209 
L 338.819613 220.80321 
L 338.819541 223.90785 
L 338.819273 226.56897 
L 338.818949 229.23009 
L 338.818715 231.89121 
L 338.818636 234.55233 
L 338.818636 237.21345 
L 338.818485 239.87457 
L 338.817833 242.53569 
L 338.816247 245.19681 
L 338.81319 247.85793 
L 338.807902 250.51905 
L 338.799179 253.18017 
L 338.785065 255.84129 
L 338.762514 258.50241 
L 338.727054 261.16353 
L 338.672469 263.82465 
L 338.573427 266.92929 
L 338.445708 269.59041 
L 338.263665 272.25153 
L 338.009554 274.91265 
L 337.661196 277.57377 
L 337.506929 278.465018 
L 337.20801 280.23489 
L 336.614836 282.89601 
L 335.831397 285.55713 
L 335.721329 285.858565 
L 334.843078 288.21825 
" clip-path="url(#p1f179ddb27)" style="fill: none; stroke: #c6dbef; stroke-width: 1.5"/>
   </g>
   <g id="PathCollection_4">
    <path d="M 327.141037 22.10625 
L 328.52912 24.76737 
L 328.543217 24.801088 
L 329.5852 27.42849 
L 330.328817 29.896263 
L 330.385317 30.08961 
L 330.990649 32.75073 
L 331.438982 35.41185 
L 331.766022 38.07297 
L 332.00031 40.73409 
L 332.150129 43.157614 
L 332.164994 43.39521 
L 332.295182 46.49985 
L 332.366933 49.16097 
L 332.413544 51.82209 
L 332.443186 54.48321 
L 332.461739 57.14433 
L 332.473205 59.80545 
L 332.480156 62.46657 
L 332.484174 65.12769 
L 332.486259 67.78881 
L 332.487116 70.44993 
L 332.487315 73.11105 
L 332.487315 75.77217 
L 332.487418 78.43329 
L 332.487726 81.09441 
L 332.488152 83.75553 
L 332.488504 86.41665 
L 332.488598 89.52129 
L 332.488368 92.18241 
L 332.487978 94.84353 
L 332.487643 97.50465 
L 332.487544 100.16577 
L 332.487736 102.82689 
L 332.488114 105.48801 
L 332.488474 108.14913 
L 332.48862 110.81025 
L 332.488474 113.47137 
L 332.488114 116.13249 
L 332.487736 118.79361 
L 332.487544 121.45473 
L 332.487643 124.11585 
L 332.487979 126.77697 
L 332.48837 129.43809 
L 332.488603 132.09921 
L 332.488517 135.20385 
L 332.488181 137.86497 
L 332.487791 140.52609 
L 332.487557 143.18721 
L 332.487607 145.84833 
L 332.487913 148.50945 
L 332.48831 151.17057 
L 332.488582 153.83169 
L 332.488582 156.49281 
L 332.48831 159.15393 
L 332.487913 161.81505 
L 332.487607 164.47617 
L 332.487557 167.13729 
L 332.487791 169.79841 
L 332.488181 172.45953 
L 332.488517 175.12065 
L 332.488603 178.22529 
L 332.48837 180.88641 
L 332.487979 183.54753 
L 332.487643 186.20865 
L 332.487544 188.86977 
L 332.487736 191.53089 
L 332.488114 194.19201 
L 332.488474 196.85313 
L 332.48862 199.51425 
L 332.488474 202.17537 
L 332.488114 204.83649 
L 332.487736 207.49761 
L 332.487544 210.15873 
L 332.487643 212.81985 
L 332.487978 215.48097 
L 332.488368 218.14209 
L 332.488598 220.80321 
L 332.488504 223.90785 
L 332.488152 226.56897 
L 332.487726 229.23009 
L 332.487418 231.89121 
L 332.487315 234.55233 
L 332.487315 237.21345 
L 332.487116 239.87457 
L 332.486259 242.53569 
L 332.484174 245.19681 
L 332.480156 247.85793 
L 332.473205 250.51905 
L 332.461739 253.18017 
L 332.443186 255.84129 
L 332.413544 258.50241 
L 332.366933 261.16353 
L 332.295182 263.82465 
L 332.164994 266.92929 
L 332.150129 267.166886 
L 332.00031 269.59041 
L 331.766022 272.25153 
L 331.438982 274.91265 
L 330.990649 277.57377 
L 330.385317 280.23489 
L 330.328817 280.428237 
L 329.5852 282.89601 
L 328.543217 285.523412 
L 328.52912 285.55713 
L 327.141037 288.21825 
" clip-path="url(#p1f179ddb27)" style="fill: none; stroke: #9dcae1; stroke-width: 1.5"/>
   </g>
   <g id="PathCollection_5">
    <path d="M 35.147709 288.21825 
L 34.240625 287.158166 
" clip-path="url(#p1f179ddb27)" style="fill: none; stroke: #6aaed6; stroke-width: 1.5"/>
    <path d="M 34.240625 23.166334 
L 35.147709 22.10625 
" clip-path="url(#p1f179ddb27)" style="fill: none; stroke: #6aaed6; stroke-width: 1.5"/>
    <path d="M 319.031442 22.10625 
L 319.579505 22.732097 
L 321.156786 24.76737 
L 321.365105 25.099618 
L 322.688092 27.42849 
L 323.150705 28.471467 
L 323.815221 30.08961 
L 324.647903 32.75073 
L 324.972017 34.133471 
L 325.257339 35.41185 
L 325.696012 38.07297 
L 326.010274 40.73409 
L 326.230755 43.39521 
L 326.401731 46.49985 
L 326.495962 49.16097 
L 326.557176 51.82209 
L 326.596105 54.48321 
L 326.620471 57.14433 
L 326.635529 59.80545 
L 326.644657 62.46657 
L 326.649935 65.12769 
L 326.652673 67.78881 
L 326.653799 70.44993 
L 326.65406 73.11105 
L 326.65406 75.77217 
L 326.654195 78.43329 
L 326.6546 81.09441 
L 326.655159 83.75553 
L 326.655621 86.41665 
L 326.655745 89.52129 
L 326.655442 92.18241 
L 326.654931 94.84353 
L 326.65449 97.50465 
L 326.654361 100.16577 
L 326.654612 102.82689 
L 326.655109 105.48801 
L 326.655581 108.14913 
L 326.655774 110.81025 
L 326.655581 113.47137 
L 326.655109 116.13249 
L 326.654612 118.79361 
L 326.654361 121.45473 
L 326.654491 124.11585 
L 326.654932 126.77697 
L 326.655444 129.43809 
L 326.655751 132.09921 
L 326.655638 135.20385 
L 326.655197 137.86497 
L 326.654684 140.52609 
L 326.654378 143.18721 
L 326.654443 145.84833 
L 326.654845 148.50945 
L 326.655366 151.17057 
L 326.655724 153.83169 
L 326.655724 156.49281 
L 326.655366 159.15393 
L 326.654845 161.81505 
L 326.654443 164.47617 
L 326.654378 167.13729 
L 326.654684 169.79841 
L 326.655197 172.45953 
L 326.655638 175.12065 
L 326.655751 178.22529 
L 326.655444 180.88641 
L 326.654932 183.54753 
L 326.654491 186.20865 
L 326.654361 188.86977 
L 326.654612 191.53089 
L 326.655109 194.19201 
L 326.655581 196.85313 
L 326.655774 199.51425 
L 326.655581 202.17537 
L 326.655109 204.83649 
L 326.654612 207.49761 
L 326.654361 210.15873 
L 326.65449 212.81985 
L 326.654931 215.48097 
L 326.655442 218.14209 
L 326.655745 220.80321 
L 326.655621 223.90785 
L 326.655159 226.56897 
L 326.6546 229.23009 
L 326.654195 231.89121 
L 326.65406 234.55233 
L 326.65406 237.21345 
L 326.653799 239.87457 
L 326.652673 242.53569 
L 326.649935 245.19681 
L 326.644657 247.85793 
L 326.635529 250.51905 
L 326.620471 253.18017 
L 326.596105 255.84129 
L 326.557176 258.50241 
L 326.495962 261.16353 
L 326.401731 263.82465 
L 326.230755 266.92929 
L 326.010274 269.59041 
L 325.696012 272.25153 
L 325.257339 274.91265 
L 324.972017 276.191029 
L 324.647903 277.57377 
L 323.815221 280.23489 
L 323.150705 281.853033 
L 322.688092 282.89601 
L 321.365105 285.224882 
L 321.156786 285.55713 
L 319.579505 287.592403 
L 319.031442 288.21825 
" clip-path="url(#p1f179ddb27)" style="fill: none; stroke: #6aaed6; stroke-width: 1.5"/>
   </g>
   <g id="PathCollection_6">
    <path d="M 34.240625 43.369262 
L 34.55978 40.73409 
L 35.019125 38.07297 
L 35.660318 35.41185 
L 36.026225 34.288665 
L 36.576056 32.75073 
L 37.847537 30.090236 
L 37.847872 30.08961 
L 39.633137 27.502701 
L 39.691554 27.42849 
L 41.418737 25.670447 
L 42.45313 24.76737 
L 43.204337 24.223768 
L 45.025649 23.094259 
L 46.811249 22.165336 
L 46.944624 22.10625 
" clip-path="url(#p1f179ddb27)" style="fill: none; stroke: #4191c6; stroke-width: 1.5"/>
    <path d="M 46.944624 288.21825 
L 46.811249 288.159164 
L 45.025649 287.230241 
L 43.204337 286.100732 
L 42.45313 285.55713 
L 41.418737 284.654053 
L 39.691554 282.89601 
L 39.633137 282.821799 
L 37.847872 280.23489 
L 37.847537 280.234264 
L 36.576056 277.57377 
L 36.026225 276.035835 
L 35.660318 274.91265 
L 35.019125 272.25153 
L 34.55978 269.59041 
L 34.240625 266.955238 
" clip-path="url(#p1f179ddb27)" style="fill: none; stroke: #4191c6; stroke-width: 1.5"/>
    <path d="M 307.227589 22.10625 
L 308.794481 22.895199 
L 310.615793 23.986446 
L 311.724958 24.76737 
L 312.401393 25.341484 
L 314.186993 27.101609 
L 314.477242 27.42849 
L 315.972593 29.538188 
L 316.318115 30.08961 
L 317.609212 32.75073 
L 317.793905 33.254914 
L 318.512245 35.41185 
L 319.161679 38.07297 
L 319.579505 40.459689 
L 319.624197 40.73409 
L 319.931815 43.39521 
L 320.170363 46.49985 
L 320.301836 49.16097 
L 320.387242 51.82209 
L 320.441558 54.48321 
L 320.475553 57.14433 
L 320.496563 59.80545 
L 320.509298 62.46657 
L 320.516661 65.12769 
L 320.520481 67.78881 
L 320.522052 70.44993 
L 320.522417 73.11105 
L 320.522416 75.77217 
L 320.522605 78.43329 
L 320.52317 81.09441 
L 320.52395 83.75553 
L 320.524595 86.41665 
L 320.524768 89.52129 
L 320.524345 92.18241 
L 320.523631 94.84353 
L 320.523017 97.50465 
L 320.522836 100.16577 
L 320.523187 102.82689 
L 320.52388 105.48801 
L 320.52454 108.14913 
L 320.524808 110.81025 
L 320.52454 113.47137 
L 320.52388 116.13249 
L 320.523187 118.79361 
L 320.522836 121.45473 
L 320.523018 124.11585 
L 320.523633 126.77697 
L 320.524348 129.43809 
L 320.524777 132.09921 
L 320.524619 135.20385 
L 320.524004 137.86497 
L 320.523288 140.52609 
L 320.52286 143.18721 
L 320.522951 145.84833 
L 320.523512 148.50945 
L 320.52424 151.17057 
L 320.524738 153.83169 
L 320.524738 156.49281 
L 320.52424 159.15393 
L 320.523512 161.81505 
L 320.522951 164.47617 
L 320.52286 167.13729 
L 320.523288 169.79841 
L 320.524004 172.45953 
L 320.524619 175.12065 
L 320.524777 178.22529 
L 320.524348 180.88641 
L 320.523633 183.54753 
L 320.523018 186.20865 
L 320.522836 188.86977 
L 320.523187 191.53089 
L 320.52388 194.19201 
L 320.52454 196.85313 
L 320.524808 199.51425 
L 320.52454 202.17537 
L 320.52388 204.83649 
L 320.523187 207.49761 
L 320.522836 210.15873 
L 320.523017 212.81985 
L 320.523631 215.48097 
L 320.524345 218.14209 
L 320.524768 220.80321 
L 320.524595 223.90785 
L 320.52395 226.56897 
L 320.52317 229.23009 
L 320.522605 231.89121 
L 320.522416 234.55233 
L 320.522417 237.21345 
L 320.522052 239.87457 
L 320.520481 242.53569 
L 320.516661 245.19681 
L 320.509298 247.85793 
L 320.496563 250.51905 
L 320.475553 253.18017 
L 320.441558 255.84129 
L 320.387242 258.50241 
L 320.301836 261.16353 
L 320.170363 263.82465 
L 319.931815 266.92929 
L 319.624197 269.59041 
L 319.579505 269.864811 
L 319.161679 272.25153 
L 318.512245 274.91265 
L 317.793905 277.069586 
L 317.609212 277.57377 
L 316.318115 280.23489 
L 315.972593 280.786312 
L 314.477242 282.89601 
L 314.186993 283.222891 
L 312.401393 284.983016 
L 311.724958 285.55713 
L 310.615793 286.338054 
L 308.794481 287.429301 
L 307.227589 288.21825 
" clip-path="url(#p1f179ddb27)" style="fill: none; stroke: #4191c6; stroke-width: 1.5"/>
   </g>
   <g id="PathCollection_7">
    <path d="M 41.346848 255.84129 
L 41.292452 253.18017 
L 41.258833 250.51905 
L 41.238455 247.85793 
L 41.226673 245.19681 
L 41.22056 242.53569 
L 41.218046 239.87457 
L 41.217462 237.21345 
L 41.217464 234.55233 
L 41.217161 231.89121 
L 41.216258 229.23009 
L 41.215009 226.56897 
L 41.213977 223.90785 
L 41.213701 220.80321 
L 41.214378 218.14209 
L 41.215519 215.48097 
L 41.216502 212.81985 
L 41.216791 210.15873 
L 41.21623 207.49761 
L 41.215121 204.83649 
L 41.214066 202.17537 
L 41.213637 199.51425 
L 41.214066 196.85313 
L 41.215121 194.19201 
L 41.216229 191.53089 
L 41.216791 188.86977 
L 41.216501 186.20865 
L 41.215517 183.54753 
L 41.214372 180.88641 
L 41.213687 178.22529 
L 41.213939 175.12065 
L 41.214923 172.45953 
L 41.216069 169.79841 
L 41.216754 167.13729 
L 41.216608 164.47617 
L 41.215709 161.81505 
L 41.214546 159.15393 
L 41.213748 156.49281 
L 41.213748 153.83169 
L 41.214546 151.17057 
L 41.215709 148.50945 
L 41.216608 145.84833 
L 41.216754 143.18721 
L 41.216069 140.52609 
L 41.214923 137.86497 
L 41.213939 135.20385 
L 41.213687 132.09921 
L 41.214372 129.43809 
L 41.215517 126.77697 
L 41.216501 124.11585 
L 41.216791 121.45473 
L 41.216229 118.79361 
L 41.215121 116.13249 
L 41.214066 113.47137 
L 41.213637 110.81025 
L 41.214066 108.14913 
L 41.215121 105.48801 
L 41.21623 102.82689 
L 41.216791 100.16577 
L 41.216502 97.50465 
L 41.215519 94.84353 
L 41.214378 92.18241 
L 41.213701 89.52129 
L 41.213977 86.41665 
L 41.215009 83.75553 
L 41.216258 81.09441 
L 41.217161 78.43329 
L 41.217464 75.77217 
L 41.217462 73.11105 
L 41.218046 70.44993 
L 41.22056 67.78881 
L 41.226673 65.12769 
L 41.238455 62.46657 
L 41.258833 59.80545 
L 41.292452 57.14433 
L 41.346848 54.48321 
L 41.418737 52.281469 
L 41.435386 51.82209 
L 41.586829 49.16097 
L 41.819959 46.49985 
L 42.242954 43.39521 
L 42.788427 40.73409 
L 43.204337 39.302012 
L 43.61007 38.07297 
L 44.827888 35.41185 
L 45.025649 35.089948 
L 46.696287 32.75073 
L 46.811249 32.627548 
L 48.596849 30.992922 
L 49.775805 30.08961 
L 50.382449 29.721238 
L 52.203761 28.797784 
L 53.989361 28.054821 
L 55.774961 27.448152 
L 55.84585 27.42849 
L 57.560561 27.037068 
L 59.381873 26.703436 
L 61.167473 26.443331 
L 62.953073 26.237856 
L 64.738673 26.077032 
L 66.559985 25.950179 
L 68.345585 25.854986 
L 70.131185 25.782657 
L 71.916785 25.728263 
L 73.738097 25.687087 
L 75.523697 25.657455 
L 77.309297 25.635867 
L 79.094897 25.620306 
L 80.916209 25.609023 
L 82.701809 25.601249 
L 84.487409 25.595825 
L 86.273009 25.59208 
L 88.094321 25.589482 
L 89.879921 25.587769 
L 91.665521 25.586624 
L 93.451121 25.585868 
L 95.272433 25.585366 
L 97.058033 25.585049 
L 98.843633 25.584846 
L 100.629233 25.584717 
L 102.450545 25.584635 
L 104.236145 25.584586 
L 106.021745 25.584555 
L 107.807345 25.584537 
L 109.628657 25.584526 
L 111.414257 25.58452 
L 113.199857 25.584517 
L 114.985457 25.584515 
L 116.806769 25.584513 
L 118.592369 25.584512 
L 120.377969 25.584511 
L 122.163569 25.584511 
L 123.984881 25.584511 
L 125.770481 25.584511 
L 127.556081 25.584511 
L 129.341681 25.584511 
L 131.162993 25.584512 
L 132.948593 25.584512 
L 134.734193 25.584512 
L 136.519793 25.584511 
L 138.341105 25.584511 
L 140.126705 25.584511 
L 141.912305 25.584511 
L 143.697905 25.584511 
L 145.519217 25.584511 
L 147.304817 25.584511 
L 149.090417 25.584512 
L 150.876017 25.584512 
L 152.697329 25.584511 
L 154.482929 25.584511 
L 156.268529 25.584511 
L 158.054129 25.584511 
L 159.875441 25.584511 
L 161.661041 25.584511 
L 163.446641 25.584511 
L 165.232241 25.584511 
L 167.053553 25.584512 
L 168.839153 25.584512 
L 170.624753 25.584511 
L 172.410353 25.584511 
L 174.231665 25.584511 
L 176.017265 25.584511 
L 177.802865 25.584511 
L 179.588465 25.584511 
L 181.409777 25.584511 
L 183.195377 25.584511 
L 184.980977 25.584512 
L 186.766577 25.584512 
L 188.587889 25.584511 
L 190.373489 25.584511 
L 192.159089 25.584511 
L 193.944689 25.584511 
L 195.766001 25.584511 
L 197.551601 25.584511 
L 199.337201 25.584511 
L 201.122801 25.584511 
L 202.944113 25.584512 
L 204.729713 25.584512 
L 206.515313 25.584511 
L 208.300913 25.584511 
L 210.122225 25.584511 
L 211.907825 25.584511 
L 213.693425 25.584511 
L 215.479025 25.584511 
L 217.300337 25.584511 
L 219.085937 25.584511 
L 220.871537 25.584512 
L 222.657137 25.584512 
L 224.478449 25.584511 
L 226.264049 25.584511 
L 228.049649 25.584511 
L 229.835249 25.584511 
L 231.656561 25.584511 
L 233.442161 25.584511 
L 235.227761 25.584512 
L 237.013361 25.584513 
L 238.834673 25.584514 
L 240.620273 25.584516 
L 242.405873 25.584519 
L 244.191473 25.584525 
L 246.012785 25.584535 
L 247.798385 25.584551 
L 249.583985 25.584578 
L 251.369585 25.584623 
L 253.190897 25.584698 
L 254.976497 25.584815 
L 256.762097 25.585001 
L 258.547697 25.585291 
L 260.369009 25.585752 
L 262.154609 25.586447 
L 263.940209 25.587501 
L 265.725809 25.589083 
L 267.547121 25.591487 
L 269.332721 25.594959 
L 271.118321 25.600001 
L 272.903921 25.607241 
L 274.725233 25.617772 
L 276.510833 25.632329 
L 278.296433 25.652566 
L 280.082033 25.680402 
L 281.903345 25.719167 
L 283.688945 25.770485 
L 285.474545 25.838863 
L 287.260145 25.929041 
L 289.081457 26.049453 
L 290.867057 26.202411 
L 292.652657 26.398208 
L 294.438257 26.646512 
L 296.259569 26.965572 
L 298.045169 27.356145 
L 298.314839 27.42849 
L 299.830769 27.923306 
L 301.616369 28.637168 
L 303.437681 29.525659 
L 304.39843 30.08961 
L 305.223281 30.700212 
L 307.008881 32.276626 
L 307.465069 32.75073 
L 308.794481 34.554943 
L 309.336382 35.41185 
L 310.584012 38.07297 
L 310.615793 38.166424 
L 311.382237 40.73409 
L 311.939787 43.39521 
L 312.372149 46.49985 
L 312.401393 46.825302 
L 312.589609 49.16097 
L 312.728981 51.82209 
L 312.817616 54.48321 
L 312.873092 57.14433 
L 312.907377 59.80545 
L 312.928159 62.46657 
L 312.940175 65.12769 
L 312.946409 67.78881 
L 312.948973 70.44993 
L 312.949568 73.11105 
L 312.949567 75.77217 
L 312.949875 78.43329 
L 312.950797 81.09441 
L 312.95207 83.75553 
L 312.953122 86.41665 
L 312.953404 89.52129 
L 312.952714 92.18241 
L 312.95155 94.84353 
L 312.950547 97.50465 
L 312.950252 100.16577 
L 312.950825 102.82689 
L 312.951956 105.48801 
L 312.953032 108.14913 
L 312.953469 110.81025 
L 312.953032 113.47137 
L 312.951956 116.13249 
L 312.950825 118.79361 
L 312.950252 121.45473 
L 312.950548 124.11585 
L 312.951552 126.77697 
L 312.95272 129.43809 
L 312.953419 132.09921 
L 312.953161 135.20385 
L 312.952157 137.86497 
L 312.950989 140.52609 
L 312.95029 143.18721 
L 312.950439 145.84833 
L 312.951356 148.50945 
L 312.952542 151.17057 
L 312.953356 153.83169 
L 312.953356 156.49281 
L 312.952542 159.15393 
L 312.951356 161.81505 
L 312.950439 164.47617 
L 312.95029 167.13729 
L 312.950989 169.79841 
L 312.952157 172.45953 
L 312.953161 175.12065 
L 312.953419 178.22529 
L 312.95272 180.88641 
L 312.951552 183.54753 
L 312.950548 186.20865 
L 312.950252 188.86977 
L 312.950825 191.53089 
L 312.951956 194.19201 
L 312.953032 196.85313 
L 312.953469 199.51425 
L 312.953032 202.17537 
L 312.951956 204.83649 
L 312.950825 207.49761 
L 312.950252 210.15873 
L 312.950547 212.81985 
L 312.95155 215.48097 
L 312.952714 218.14209 
L 312.953404 220.80321 
L 312.953122 223.90785 
L 312.95207 226.56897 
L 312.950797 229.23009 
L 312.949875 231.89121 
L 312.949567 234.55233 
L 312.949568 237.21345 
L 312.948973 239.87457 
L 312.946409 242.53569 
L 312.940175 245.19681 
L 312.928159 247.85793 
L 312.907377 250.51905 
L 312.873092 253.18017 
L 312.817616 255.84129 
L 312.728981 258.50241 
L 312.589609 261.16353 
L 312.401393 263.499198 
L 312.372149 263.82465 
L 311.939787 266.92929 
L 311.382237 269.59041 
L 310.615793 272.158076 
L 310.584012 272.25153 
L 309.336382 274.91265 
L 308.794481 275.769557 
L 307.465069 277.57377 
L 307.008881 278.047874 
L 305.223281 279.624288 
L 304.39843 280.23489 
L 303.437681 280.798841 
L 301.616369 281.687332 
L 299.830769 282.401194 
L 298.314839 282.89601 
L 298.045169 282.968355 
L 296.259569 283.358928 
L 294.438257 283.677988 
L 292.652657 283.926292 
L 290.867057 284.122089 
L 289.081457 284.275047 
L 287.260145 284.395459 
L 285.474545 284.485637 
L 283.688945 284.554015 
L 281.903345 284.605333 
L 280.082033 284.644098 
L 278.296433 284.671934 
L 276.510833 284.692171 
L 274.725233 284.706728 
L 272.903921 284.717259 
L 271.118321 284.724499 
L 269.332721 284.729541 
L 267.547121 284.733013 
L 265.725809 284.735417 
L 263.940209 284.736999 
L 262.154609 284.738053 
L 260.369009 284.738748 
L 258.547697 284.739209 
L 256.762097 284.739499 
L 254.976497 284.739685 
L 253.190897 284.739802 
L 251.369585 284.739877 
L 249.583985 284.739922 
L 247.798385 284.739949 
L 246.012785 284.739965 
L 244.191473 284.739975 
L 242.405873 284.739981 
L 240.620273 284.739984 
L 238.834673 284.739986 
L 237.013361 284.739987 
L 235.227761 284.739988 
L 233.442161 284.739989 
L 231.656561 284.739989 
L 229.835249 284.739989 
L 228.049649 284.739989 
L 226.264049 284.739989 
L 224.478449 284.739989 
L 222.657137 284.739988 
L 220.871537 284.739988 
L 219.085937 284.739989 
L 217.300337 284.739989 
L 215.479025 284.739989 
L 213.693425 284.739989 
L 211.907825 284.739989 
L 210.122225 284.739989 
L 208.300913 284.739989 
L 206.515313 284.739989 
L 204.729713 284.739988 
L 202.944113 284.739988 
L 201.122801 284.739989 
L 199.337201 284.739989 
L 197.551601 284.739989 
L 195.766001 284.739989 
L 193.944689 284.739989 
L 192.159089 284.739989 
L 190.373489 284.739989 
L 188.587889 284.739989 
L 186.766577 284.739988 
L 184.980977 284.739988 
L 183.195377 284.739989 
L 181.409777 284.739989 
L 179.588465 284.739989 
L 177.802865 284.739989 
L 176.017265 284.739989 
L 174.231665 284.739989 
L 172.410353 284.739989 
L 170.624753 284.739989 
L 168.839153 284.739988 
L 167.053553 284.739988 
L 165.232241 284.739989 
L 163.446641 284.739989 
L 161.661041 284.739989 
L 159.875441 284.739989 
L 158.054129 284.739989 
L 156.268529 284.739989 
L 154.482929 284.739989 
L 152.697329 284.739989 
L 150.876017 284.739988 
L 149.090417 284.739988 
L 147.304817 284.739989 
L 145.519217 284.739989 
L 143.697905 284.739989 
L 141.912305 284.739989 
L 140.126705 284.739989 
L 138.341105 284.739989 
L 136.519793 284.739989 
L 134.734193 284.739988 
L 132.948593 284.739988 
L 131.162993 284.739988 
L 129.341681 284.739989 
L 127.556081 284.739989 
L 125.770481 284.739989 
L 123.984881 284.739989 
L 122.163569 284.739989 
L 120.377969 284.739989 
L 118.592369 284.739988 
L 116.806769 284.739987 
L 114.985457 284.739985 
L 113.199857 284.739983 
L 111.414257 284.73998 
L 109.628657 284.739974 
L 107.807345 284.739963 
L 106.021745 284.739945 
L 104.236145 284.739914 
L 102.450545 284.739865 
L 100.629233 284.739783 
L 98.843633 284.739654 
L 97.058033 284.739451 
L 95.272433 284.739134 
L 93.451121 284.738632 
L 91.665521 284.737876 
L 89.879921 284.736731 
L 88.094321 284.735018 
L 86.273009 284.73242 
L 84.487409 284.728675 
L 82.701809 284.723251 
L 80.916209 284.715477 
L 79.094897 284.704194 
L 77.309297 284.688633 
L 75.523697 284.667045 
L 73.738097 284.637413 
L 71.916785 284.596237 
L 70.131185 284.541843 
L 68.345585 284.469514 
L 66.559985 284.374321 
L 64.738673 284.247468 
L 62.953073 284.086644 
L 61.167473 283.881169 
L 59.381873 283.621064 
L 57.560561 283.287432 
L 55.84585 282.89601 
L 55.774961 282.876348 
L 53.989361 282.269679 
L 52.203761 281.526716 
L 50.382449 280.603262 
L 49.775805 280.23489 
L 48.596849 279.331578 
L 46.811249 277.696952 
L 46.696287 277.57377 
L 45.025649 275.234552 
L 44.827888 274.91265 
L 43.61007 272.25153 
L 43.204337 271.022488 
L 42.788427 269.59041 
L 42.242954 266.92929 
L 41.819959 263.82465 
L 41.586829 261.16353 
L 41.435386 258.50241 
L 41.418737 258.043031 
L 41.346848 255.84129 
z
" clip-path="url(#p1f179ddb27)" style="fill: none; stroke: #2070b4; stroke-width: 1.5"/>
   </g>
   <g id="PathCollection_8">
    <path d="M 57.103432 258.50241 
L 56.716752 255.84129 
L 56.474737 253.18017 
L 56.325164 250.51905 
L 56.234501 247.85793 
L 56.182081 245.19681 
L 56.154884 242.53569 
L 56.1437 239.87457 
L 56.141104 237.21345 
L 56.141109 234.55233 
L 56.139763 231.89121 
L 56.135743 229.23009 
L 56.130188 226.56897 
L 56.125596 223.90785 
L 56.124367 220.80321 
L 56.127379 218.14209 
L 56.132458 215.48097 
L 56.136831 212.81985 
L 56.138119 210.15873 
L 56.135619 207.49761 
L 56.130686 204.83649 
L 56.125993 202.17537 
L 56.124083 199.51425 
L 56.125993 196.85313 
L 56.130685 194.19201 
L 56.135618 191.53089 
L 56.138117 188.86977 
L 56.136827 186.20865 
L 56.132448 183.54753 
L 56.127353 180.88641 
L 56.124305 178.22529 
L 56.125429 175.12065 
L 56.129808 172.45953 
L 56.134902 169.79841 
L 56.137951 167.13729 
L 56.137301 164.47617 
L 56.133305 161.81505 
L 56.128128 159.15393 
L 56.124578 156.49281 
L 56.124578 153.83169 
L 56.128128 151.17057 
L 56.133305 148.50945 
L 56.137301 145.84833 
L 56.137951 143.18721 
L 56.134902 140.52609 
L 56.129808 137.86497 
L 56.125429 135.20385 
L 56.124305 132.09921 
L 56.127353 129.43809 
L 56.132448 126.77697 
L 56.136827 124.11585 
L 56.138117 121.45473 
L 56.135618 118.79361 
L 56.130685 116.13249 
L 56.125993 113.47137 
L 56.124083 110.81025 
L 56.125993 108.14913 
L 56.130686 105.48801 
L 56.135619 102.82689 
L 56.138119 100.16577 
L 56.136831 97.50465 
L 56.132458 94.84353 
L 56.127379 92.18241 
L 56.124367 89.52129 
L 56.125596 86.41665 
L 56.130188 83.75553 
L 56.135743 81.09441 
L 56.139763 78.43329 
L 56.141109 75.77217 
L 56.141104 73.11105 
L 56.1437 70.44993 
L 56.154884 67.78881 
L 56.182081 65.12769 
L 56.234501 62.46657 
L 56.325164 59.80545 
L 56.474737 57.14433 
L 56.716752 54.48321 
L 57.103432 51.82209 
L 57.560561 49.820097 
L 57.746059 49.16097 
L 58.896691 46.49985 
L 59.381873 45.774375 
L 61.167473 43.641419 
L 61.427517 43.39521 
L 62.953073 42.423165 
L 64.738673 41.532159 
L 66.559985 40.829362 
L 66.882066 40.73409 
L 68.345585 40.424161 
L 70.131185 40.136757 
L 71.916785 39.920613 
L 73.738097 39.756996 
L 75.523697 39.639253 
L 77.309297 39.553469 
L 79.094897 39.491635 
L 80.916209 39.446803 
L 82.701809 39.415912 
L 84.487409 39.394357 
L 86.273009 39.379479 
L 88.094321 39.369154 
L 89.879921 39.362346 
L 91.665521 39.357799 
L 93.451121 39.354794 
L 95.272433 39.352798 
L 97.058033 39.351538 
L 98.843633 39.350732 
L 100.629233 39.35022 
L 102.450545 39.349894 
L 104.236145 39.349697 
L 106.021745 39.349577 
L 107.807345 39.349505 
L 109.628657 39.349462 
L 111.414257 39.349438 
L 113.199857 39.349424 
L 114.985457 39.349415 
L 116.806769 39.349409 
L 118.592369 39.349405 
L 120.377969 39.349402 
L 122.163569 39.3494 
L 123.984881 39.3494 
L 125.770481 39.3494 
L 127.556081 39.349401 
L 129.341681 39.349402 
L 131.162993 39.349403 
L 132.948593 39.349404 
L 134.734193 39.349403 
L 136.519793 39.349402 
L 138.341105 39.3494 
L 140.126705 39.349399 
L 141.912305 39.349399 
L 143.697905 39.3494 
L 145.519217 39.349401 
L 147.304817 39.349402 
L 149.090417 39.349403 
L 150.876017 39.349404 
L 152.697329 39.349403 
L 154.482929 39.349402 
L 156.268529 39.3494 
L 158.054129 39.349399 
L 159.875441 39.349399 
L 161.661041 39.3494 
L 163.446641 39.349401 
L 165.232241 39.349403 
L 167.053553 39.349403 
L 168.839153 39.349404 
L 170.624753 39.349403 
L 172.410353 39.349402 
L 174.231665 39.3494 
L 176.017265 39.349399 
L 177.802865 39.349399 
L 179.588465 39.3494 
L 181.409777 39.349401 
L 183.195377 39.349403 
L 184.980977 39.349403 
L 186.766577 39.349404 
L 188.587889 39.349403 
L 190.373489 39.349401 
L 192.159089 39.3494 
L 193.944689 39.349399 
L 195.766001 39.349399 
L 197.551601 39.3494 
L 199.337201 39.349401 
L 201.122801 39.349403 
L 202.944113 39.349403 
L 204.729713 39.349404 
L 206.515313 39.349403 
L 208.300913 39.349401 
L 210.122225 39.3494 
L 211.907825 39.349399 
L 213.693425 39.349399 
L 215.479025 39.3494 
L 217.300337 39.349401 
L 219.085937 39.349403 
L 220.871537 39.349404 
L 222.657137 39.349404 
L 224.478449 39.349403 
L 226.264049 39.349401 
L 228.049649 39.3494 
L 229.835249 39.3494 
L 231.656561 39.3494 
L 233.442161 39.349402 
L 235.227761 39.349405 
L 237.013361 39.349408 
L 238.834673 39.349414 
L 240.620273 39.349421 
L 242.405873 39.349434 
L 244.191473 39.349456 
L 246.012785 39.349494 
L 247.798385 39.34956 
L 249.583985 39.349668 
L 251.369585 39.349847 
L 253.190897 39.350143 
L 254.976497 39.35061 
L 256.762097 39.351347 
L 258.547697 39.3525 
L 260.369009 39.354331 
L 262.154609 39.357093 
L 263.940209 39.361282 
L 265.725809 39.367568 
L 267.547121 39.377121 
L 269.332721 39.390919 
L 271.118321 39.410951 
L 272.903921 39.439721 
L 274.725233 39.481568 
L 276.510833 39.539409 
L 278.296433 39.619824 
L 280.082033 39.730436 
L 281.903345 39.884471 
L 283.688945 40.088388 
L 285.474545 40.360095 
L 287.260145 40.718426 
L 287.319905 40.73409 
L 289.081457 41.379363 
L 290.867057 42.226794 
L 292.652657 43.311554 
L 292.761721 43.39521 
L 294.438257 45.307579 
L 295.270922 46.49985 
L 296.259569 48.690221 
L 296.431336 49.16097 
L 297.064167 51.82209 
L 297.466625 54.48321 
L 297.718516 57.14433 
L 297.874192 59.80545 
L 297.968554 62.46657 
L 298.023113 65.12769 
L 298.045169 67.201155 
L 298.050309 67.78881 
L 298.059883 70.44993 
L 298.062105 73.11105 
L 298.062101 75.77217 
L 298.063253 78.43329 
L 298.066694 81.09441 
L 298.071449 83.75553 
L 298.075379 86.41665 
L 298.076432 89.52129 
L 298.073853 92.18241 
L 298.069506 94.84353 
L 298.065762 97.50465 
L 298.064661 100.16577 
L 298.0668 102.82689 
L 298.071023 105.48801 
L 298.07504 108.14913 
L 298.076674 110.81025 
L 298.07504 113.47137 
L 298.071023 116.13249 
L 298.066801 118.79361 
L 298.064662 121.45473 
L 298.065766 124.11585 
L 298.069515 126.77697 
L 298.073876 129.43809 
L 298.076485 132.09921 
L 298.075523 135.20385 
L 298.071775 137.86497 
L 298.067413 140.52609 
L 298.064804 143.18721 
L 298.06536 145.84833 
L 298.068781 148.50945 
L 298.073212 151.17057 
L 298.076251 153.83169 
L 298.076251 156.49281 
L 298.073212 159.15393 
L 298.068781 161.81505 
L 298.06536 164.47617 
L 298.064804 167.13729 
L 298.067413 169.79841 
L 298.071775 172.45953 
L 298.075523 175.12065 
L 298.076485 178.22529 
L 298.073876 180.88641 
L 298.069515 183.54753 
L 298.065766 186.20865 
L 298.064662 188.86977 
L 298.066801 191.53089 
L 298.071023 194.19201 
L 298.07504 196.85313 
L 298.076674 199.51425 
L 298.07504 202.17537 
L 298.071023 204.83649 
L 298.0668 207.49761 
L 298.064661 210.15873 
L 298.065762 212.81985 
L 298.069506 215.48097 
L 298.073853 218.14209 
L 298.076432 220.80321 
L 298.075379 223.90785 
L 298.071449 226.56897 
L 298.066694 229.23009 
L 298.063253 231.89121 
L 298.062101 234.55233 
L 298.062105 237.21345 
L 298.059883 239.87457 
L 298.050309 242.53569 
L 298.045169 243.123345 
L 298.023113 245.19681 
L 297.968554 247.85793 
L 297.874192 250.51905 
L 297.718516 253.18017 
L 297.466625 255.84129 
L 297.064167 258.50241 
L 296.431336 261.16353 
L 296.259569 261.634279 
L 295.270922 263.82465 
L 294.438257 265.016921 
L 292.761721 266.92929 
L 292.652657 267.012946 
L 290.867057 268.097706 
L 289.081457 268.945137 
L 287.319905 269.59041 
L 287.260145 269.606074 
L 285.474545 269.964405 
L 283.688945 270.236112 
L 281.903345 270.440029 
L 280.082033 270.594064 
L 278.296433 270.704676 
L 276.510833 270.785091 
L 274.725233 270.842932 
L 272.903921 270.884779 
L 271.118321 270.913549 
L 269.332721 270.933581 
L 267.547121 270.947379 
L 265.725809 270.956932 
L 263.940209 270.963218 
L 262.154609 270.967407 
L 260.369009 270.970169 
L 258.547697 270.972 
L 256.762097 270.973153 
L 254.976497 270.97389 
L 253.190897 270.974357 
L 251.369585 270.974653 
L 249.583985 270.974832 
L 247.798385 270.97494 
L 246.012785 270.975006 
L 244.191473 270.975044 
L 242.405873 270.975066 
L 240.620273 270.975079 
L 238.834673 270.975086 
L 237.013361 270.975092 
L 235.227761 270.975095 
L 233.442161 270.975098 
L 231.656561 270.9751 
L 229.835249 270.9751 
L 228.049649 270.9751 
L 226.264049 270.975099 
L 224.478449 270.975097 
L 222.657137 270.975096 
L 220.871537 270.975096 
L 219.085937 270.975097 
L 217.300337 270.975099 
L 215.479025 270.9751 
L 213.693425 270.975101 
L 211.907825 270.975101 
L 210.122225 270.9751 
L 208.300913 270.975099 
L 206.515313 270.975097 
L 204.729713 270.975096 
L 202.944113 270.975097 
L 201.122801 270.975097 
L 199.337201 270.975099 
L 197.551601 270.9751 
L 195.766001 270.975101 
L 193.944689 270.975101 
L 192.159089 270.9751 
L 190.373489 270.975099 
L 188.587889 270.975097 
L 186.766577 270.975096 
L 184.980977 270.975097 
L 183.195377 270.975097 
L 181.409777 270.975099 
L 179.588465 270.9751 
L 177.802865 270.975101 
L 176.017265 270.975101 
L 174.231665 270.9751 
L 172.410353 270.975098 
L 170.624753 270.975097 
L 168.839153 270.975096 
L 167.053553 270.975097 
L 165.232241 270.975097 
L 163.446641 270.975099 
L 161.661041 270.9751 
L 159.875441 270.975101 
L 158.054129 270.975101 
L 156.268529 270.9751 
L 154.482929 270.975098 
L 152.697329 270.975097 
L 150.876017 270.975096 
L 149.090417 270.975097 
L 147.304817 270.975098 
L 145.519217 270.975099 
L 143.697905 270.9751 
L 141.912305 270.975101 
L 140.126705 270.975101 
L 138.341105 270.9751 
L 136.519793 270.975098 
L 134.734193 270.975097 
L 132.948593 270.975096 
L 131.162993 270.975097 
L 129.341681 270.975098 
L 127.556081 270.975099 
L 125.770481 270.9751 
L 123.984881 270.9751 
L 122.163569 270.9751 
L 120.377969 270.975098 
L 118.592369 270.975095 
L 116.806769 270.975091 
L 114.985457 270.975085 
L 113.199857 270.975076 
L 111.414257 270.975062 
L 109.628657 270.975038 
L 107.807345 270.974995 
L 106.021745 270.974923 
L 104.236145 270.974803 
L 102.450545 270.974606 
L 100.629233 270.97428 
L 98.843633 270.973768 
L 97.058033 270.972962 
L 95.272433 270.971702 
L 93.451121 270.969706 
L 91.665521 270.966701 
L 89.879921 270.962154 
L 88.094321 270.955346 
L 86.273009 270.945021 
L 84.487409 270.930143 
L 82.701809 270.908588 
L 80.916209 270.877697 
L 79.094897 270.832865 
L 77.309297 270.771031 
L 75.523697 270.685247 
L 73.738097 270.567504 
L 71.916785 270.403887 
L 70.131185 270.187743 
L 68.345585 269.900339 
L 66.882066 269.59041 
L 66.559985 269.495138 
L 64.738673 268.792341 
L 62.953073 267.901335 
L 61.427517 266.92929 
L 61.167473 266.683081 
L 59.381873 264.550125 
L 58.896691 263.82465 
L 57.746059 261.16353 
L 57.560561 260.504403 
L 57.103432 258.50241 
z
" clip-path="url(#p1f179ddb27)" style="fill: none; stroke: #08509b; stroke-width: 1.5"/>
   </g>
   <g id="PathCollection_9"/>
   <g id="patch_3">
    <path d="M 34.240625 288.21825 
L 34.240625 22.10625 
" style="fill: none; stroke: #000000; stroke-width: 0.8; stroke-linejoin: miter; stroke-linecap: square"/>
   </g>
   <g id="patch_4">
    <path d="M 391.360625 288.21825 
L 391.360625 22.10625 
" style="fill: none; stroke: #000000; stroke-width: 0.8; stroke-linejoin: miter; stroke-linecap: square"/>
   </g>
   <g id="patch_5">
    <path d="M 34.240625 288.21825 
L 391.360625 288.21825 
" style="fill: none; stroke: #000000; stroke-width: 0.8; stroke-linejoin: miter; stroke-linecap: square"/>
   </g>
   <g id="patch_6">
    <path d="M 34.240625 22.10625 
L 391.360625 22.10625 
" style="fill: none; stroke: #000000; stroke-width: 0.8; stroke-linejoin: miter; stroke-linecap: square"/>
   </g>
   <g id="text_16">
    <!-- 7.5_cross_-35.0 -->
    <g transform="translate(166.181563 16.10625)scale(0.12 -0.12)">
     <defs>
      <path id="DejaVuSans-37" d="M 525 4666 
L 3525 4666 
L 3525 4397 
L 1831 0 
L 1172 0 
L 2766 4134 
L 525 4134 
L 525 4666 
z
" transform="scale(0.015625)"/>
      <path id="DejaVuSans-2e" d="M 684 794 
L 1344 794 
L 1344 0 
L 684 0 
L 684 794 
z
" transform="scale(0.015625)"/>
      <path id="DejaVuSans-5f" d="M 3263 -1063 
L 3263 -1509 
L -63 -1509 
L -63 -1063 
L 3263 -1063 
z
" transform="scale(0.015625)"/>
      <path id="DejaVuSans-63" d="M 3122 3366 
L 3122 2828 
Q 2878 2963 2633 3030 
Q 2388 3097 2138 3097 
Q 1578 3097 1268 2742 
Q 959 2388 959 1747 
Q 959 1106 1268 751 
Q 1578 397 2138 397 
Q 2388 397 2633 464 
Q 2878 531 3122 666 
L 3122 134 
Q 2881 22 2623 -34 
Q 2366 -91 2075 -91 
Q 1284 -91 818 406 
Q 353 903 353 1747 
Q 353 2603 823 3093 
Q 1294 3584 2113 3584 
Q 2378 3584 2631 3529 
Q 2884 3475 3122 3366 
z
" transform="scale(0.015625)"/>
      <path id="DejaVuSans-72" d="M 2631 2963 
Q 2534 3019 2420 3045 
Q 2306 3072 2169 3072 
Q 1681 3072 1420 2755 
Q 1159 2438 1159 1844 
L 1159 0 
L 581 0 
L 581 3500 
L 1159 3500 
L 1159 2956 
Q 1341 3275 1631 3429 
Q 1922 3584 2338 3584 
Q 2397 3584 2469 3576 
Q 2541 3569 2628 3553 
L 2631 2963 
z
" transform="scale(0.015625)"/>
      <path id="DejaVuSans-73" d="M 2834 3397 
L 2834 2853 
Q 2591 2978 2328 3040 
Q 2066 3103 1784 3103 
Q 1356 3103 1142 2972 
Q 928 2841 928 2578 
Q 928 2378 1081 2264 
Q 1234 2150 1697 2047 
L 1894 2003 
Q 2506 1872 2764 1633 
Q 3022 1394 3022 966 
Q 3022 478 2636 193 
Q 2250 -91 1575 -91 
Q 1294 -91 989 -36 
Q 684 19 347 128 
L 347 722 
Q 666 556 975 473 
Q 1284 391 1588 391 
Q 1994 391 2212 530 
Q 2431 669 2431 922 
Q 2431 1156 2273 1281 
Q 2116 1406 1581 1522 
L 1381 1569 
Q 847 1681 609 1914 
Q 372 2147 372 2553 
Q 372 3047 722 3315 
Q 1072 3584 1716 3584 
Q 2034 3584 2315 3537 
Q 2597 3491 2834 3397 
z
" transform="scale(0.015625)"/>
      <path id="DejaVuSans-2d" d="M 313 2009 
L 1997 2009 
L 1997 1497 
L 313 1497 
L 313 2009 
z
" transform="scale(0.015625)"/>
     </defs>
     <use xlink:href="#DejaVuSans-37"/>
     <use xlink:href="#DejaVuSans-2e" x="63.623047"/>
     <use xlink:href="#DejaVuSans-35" x="95.410156"/>
     <use xlink:href="#DejaVuSans-5f" x="159.033203"/>
     <use xlink:href="#DejaVuSans-63" x="209.033203"/>
     <use xlink:href="#DejaVuSans-72" x="264.013672"/>
     <use xlink:href="#DejaVuSans-6f" x="302.876953"/>
     <use xlink:href="#DejaVuSans-73" x="364.058594"/>
     <use xlink:href="#DejaVuSans-73" x="416.158203"/>
     <use xlink:href="#DejaVuSans-5f" x="468.257812"/>
     <use xlink:href="#DejaVuSans-2d" x="518.257812"/>
     <use xlink:href="#DejaVuSans-33" x="554.341797"/>
     <use xlink:href="#DejaVuSans-35" x="617.964844"/>
     <use xlink:href="#DejaVuSans-2e" x="681.587891"/>
     <use xlink:href="#DejaVuSans-30" x="713.375"/>
    </g>
   </g>
  </g>
 </g>
 <defs>
  <clipPath id="p1f179ddb27">
   <rect x="34.240625" y="22.10625" width="357.12" height="266.112"/>
  </clipPath>
 </defs>
</svg>
