<?xml version="1.0" encoding="utf-8" standalone="no"?>
<!DOCTYPE svg PUBLIC "-//W3C//DTD SVG 1.1//EN"
  "http://www.w3.org/Graphics/SVG/1.1/DTD/svg11.dtd">
<svg xmlns:xlink="http://www.w3.org/1999/xlink" width="408.104375pt" height="325.7745pt" viewBox="0 0 408.104375 325.7745" xmlns="http://www.w3.org/2000/svg" version="1.1">
 <metadata>
  <rdf:RDF xmlns:dc="http://purl.org/dc/elements/1.1/" xmlns:cc="http://creativecommons.org/ns#" xmlns:rdf="http://www.w3.org/1999/02/22-rdf-syntax-ns#">
   <cc:Work>
    <dc:type rdf:resource="http://purl.org/dc/dcmitype/StillImage"/>
    <dc:date>2024-07-12T12:28:58.098308</dc:date>
    <dc:format>image/svg+xml</dc:format>
    <dc:creator>
     <cc:Agent>
      <dc:title>Matplotlib v3.5.3, https://matplotlib.org/</dc:title>
     </cc:Agent>
    </dc:creator>
   </cc:Work>
  </rdf:RDF>
 </metadata>
 <defs>
  <style type="text/css">*{stroke-linejoin: round; stroke-linecap: butt}</style>
 </defs>
 <g id="figure_1">
  <g id="patch_1">
   <path d="M 0 325.7745 
L 408.104375 325.7745 
L 408.104375 0 
L 0 0 
z
" style="fill: #ffffff"/>
  </g>
  <g id="axes_1">
   <g id="patch_2">
    <path d="M 34.240625 288.21825 
L 391.360625 288.21825 
L 391.360625 22.10625 
L 34.240625 22.10625 
z
" style="fill: #ffffff"/>
   </g>
   <g id="matplotlib.axis_1">
    <g id="xtick_1">
     <g id="line2d_1">
      <defs>
       <path id="m99f91b70ed" d="M 0 0 
L 0 3.5 
" style="stroke: #000000; stroke-width: 0.8"/>
      </defs>
      <g>
       <use xlink:href="#m99f91b70ed" x="34.240625" y="288.21825" style="stroke: #000000; stroke-width: 0.8"/>
      </g>
     </g>
     <g id="text_1">
      <!-- 0 -->
      <g transform="translate(31.059375 302.816687)scale(0.1 -0.1)">
       <defs>
        <path id="DejaVuSans-30" d="M 2034 4250 
Q 1547 4250 1301 3770 
Q 1056 3291 1056 2328 
Q 1056 1369 1301 889 
Q 1547 409 2034 409 
Q 2525 409 2770 889 
Q 3016 1369 3016 2328 
Q 3016 3291 2770 3770 
Q 2525 4250 2034 4250 
z
M 2034 4750 
Q 2819 4750 3233 4129 
Q 3647 3509 3647 2328 
Q 3647 1150 3233 529 
Q 2819 -91 2034 -91 
Q 1250 -91 836 529 
Q 422 1150 422 2328 
Q 422 3509 836 4129 
Q 1250 4750 2034 4750 
z
" transform="scale(0.015625)"/>
       </defs>
       <use xlink:href="#DejaVuSans-30"/>
      </g>
     </g>
    </g>
    <g id="xtick_2">
     <g id="line2d_2">
      <g>
       <use xlink:href="#m99f91b70ed" x="105.664625" y="288.21825" style="stroke: #000000; stroke-width: 0.8"/>
      </g>
     </g>
     <g id="text_2">
      <!-- 20 -->
      <g transform="translate(99.302125 302.816687)scale(0.1 -0.1)">
       <defs>
        <path id="DejaVuSans-32" d="M 1228 531 
L 3431 531 
L 3431 0 
L 469 0 
L 469 531 
Q 828 903 1448 1529 
Q 2069 2156 2228 2338 
Q 2531 2678 2651 2914 
Q 2772 3150 2772 3378 
Q 2772 3750 2511 3984 
Q 2250 4219 1831 4219 
Q 1534 4219 1204 4116 
Q 875 4013 500 3803 
L 500 4441 
Q 881 4594 1212 4672 
Q 1544 4750 1819 4750 
Q 2544 4750 2975 4387 
Q 3406 4025 3406 3419 
Q 3406 3131 3298 2873 
Q 3191 2616 2906 2266 
Q 2828 2175 2409 1742 
Q 1991 1309 1228 531 
z
" transform="scale(0.015625)"/>
       </defs>
       <use xlink:href="#DejaVuSans-32"/>
       <use xlink:href="#DejaVuSans-30" x="63.623047"/>
      </g>
     </g>
    </g>
    <g id="xtick_3">
     <g id="line2d_3">
      <g>
       <use xlink:href="#m99f91b70ed" x="177.088625" y="288.21825" style="stroke: #000000; stroke-width: 0.8"/>
      </g>
     </g>
     <g id="text_3">
      <!-- 40 -->
      <g transform="translate(170.726125 302.816687)scale(0.1 -0.1)">
       <defs>
        <path id="DejaVuSans-34" d="M 2419 4116 
L 825 1625 
L 2419 1625 
L 2419 4116 
z
M 2253 4666 
L 3047 4666 
L 3047 1625 
L 3713 1625 
L 3713 1100 
L 3047 1100 
L 3047 0 
L 2419 0 
L 2419 1100 
L 313 1100 
L 313 1709 
L 2253 4666 
z
" transform="scale(0.015625)"/>
       </defs>
       <use xlink:href="#DejaVuSans-34"/>
       <use xlink:href="#DejaVuSans-30" x="63.623047"/>
      </g>
     </g>
    </g>
    <g id="xtick_4">
     <g id="line2d_4">
      <g>
       <use xlink:href="#m99f91b70ed" x="248.512625" y="288.21825" style="stroke: #000000; stroke-width: 0.8"/>
      </g>
     </g>
     <g id="text_4">
      <!-- 60 -->
      <g transform="translate(242.150125 302.816687)scale(0.1 -0.1)">
       <defs>
        <path id="DejaVuSans-36" d="M 2113 2584 
Q 1688 2584 1439 2293 
Q 1191 2003 1191 1497 
Q 1191 994 1439 701 
Q 1688 409 2113 409 
Q 2538 409 2786 701 
Q 3034 994 3034 1497 
Q 3034 2003 2786 2293 
Q 2538 2584 2113 2584 
z
M 3366 4563 
L 3366 3988 
Q 3128 4100 2886 4159 
Q 2644 4219 2406 4219 
Q 1781 4219 1451 3797 
Q 1122 3375 1075 2522 
Q 1259 2794 1537 2939 
Q 1816 3084 2150 3084 
Q 2853 3084 3261 2657 
Q 3669 2231 3669 1497 
Q 3669 778 3244 343 
Q 2819 -91 2113 -91 
Q 1303 -91 875 529 
Q 447 1150 447 2328 
Q 447 3434 972 4092 
Q 1497 4750 2381 4750 
Q 2619 4750 2861 4703 
Q 3103 4656 3366 4563 
z
" transform="scale(0.015625)"/>
       </defs>
       <use xlink:href="#DejaVuSans-36"/>
       <use xlink:href="#DejaVuSans-30" x="63.623047"/>
      </g>
     </g>
    </g>
    <g id="xtick_5">
     <g id="line2d_5">
      <g>
       <use xlink:href="#m99f91b70ed" x="319.936625" y="288.21825" style="stroke: #000000; stroke-width: 0.8"/>
      </g>
     </g>
     <g id="text_5">
      <!-- 80 -->
      <g transform="translate(313.574125 302.816687)scale(0.1 -0.1)">
       <defs>
        <path id="DejaVuSans-38" d="M 2034 2216 
Q 1584 2216 1326 1975 
Q 1069 1734 1069 1313 
Q 1069 891 1326 650 
Q 1584 409 2034 409 
Q 2484 409 2743 651 
Q 3003 894 3003 1313 
Q 3003 1734 2745 1975 
Q 2488 2216 2034 2216 
z
M 1403 2484 
Q 997 2584 770 2862 
Q 544 3141 544 3541 
Q 544 4100 942 4425 
Q 1341 4750 2034 4750 
Q 2731 4750 3128 4425 
Q 3525 4100 3525 3541 
Q 3525 3141 3298 2862 
Q 3072 2584 2669 2484 
Q 3125 2378 3379 2068 
Q 3634 1759 3634 1313 
Q 3634 634 3220 271 
Q 2806 -91 2034 -91 
Q 1263 -91 848 271 
Q 434 634 434 1313 
Q 434 1759 690 2068 
Q 947 2378 1403 2484 
z
M 1172 3481 
Q 1172 3119 1398 2916 
Q 1625 2713 2034 2713 
Q 2441 2713 2670 2916 
Q 2900 3119 2900 3481 
Q 2900 3844 2670 4047 
Q 2441 4250 2034 4250 
Q 1625 4250 1398 4047 
Q 1172 3844 1172 3481 
z
" transform="scale(0.015625)"/>
       </defs>
       <use xlink:href="#DejaVuSans-38"/>
       <use xlink:href="#DejaVuSans-30" x="63.623047"/>
      </g>
     </g>
    </g>
    <g id="xtick_6">
     <g id="line2d_6">
      <g>
       <use xlink:href="#m99f91b70ed" x="391.360625" y="288.21825" style="stroke: #000000; stroke-width: 0.8"/>
      </g>
     </g>
     <g id="text_6">
      <!-- 100 -->
      <g transform="translate(381.816875 302.816687)scale(0.1 -0.1)">
       <defs>
        <path id="DejaVuSans-31" d="M 794 531 
L 1825 531 
L 1825 4091 
L 703 3866 
L 703 4441 
L 1819 4666 
L 2450 4666 
L 2450 531 
L 3481 531 
L 3481 0 
L 794 0 
L 794 531 
z
" transform="scale(0.015625)"/>
       </defs>
       <use xlink:href="#DejaVuSans-31"/>
       <use xlink:href="#DejaVuSans-30" x="63.623047"/>
       <use xlink:href="#DejaVuSans-30" x="127.246094"/>
      </g>
     </g>
    </g>
    <g id="text_7">
     <!-- axialRotation -->
     <g transform="translate(180.024844 316.494812)scale(0.1 -0.1)">
      <defs>
       <path id="DejaVuSans-61" d="M 2194 1759 
Q 1497 1759 1228 1600 
Q 959 1441 959 1056 
Q 959 750 1161 570 
Q 1363 391 1709 391 
Q 2188 391 2477 730 
Q 2766 1069 2766 1631 
L 2766 1759 
L 2194 1759 
z
M 3341 1997 
L 3341 0 
L 2766 0 
L 2766 531 
Q 2569 213 2275 61 
Q 1981 -91 1556 -91 
Q 1019 -91 701 211 
Q 384 513 384 1019 
Q 384 1609 779 1909 
Q 1175 2209 1959 2209 
L 2766 2209 
L 2766 2266 
Q 2766 2663 2505 2880 
Q 2244 3097 1772 3097 
Q 1472 3097 1187 3025 
Q 903 2953 641 2809 
L 641 3341 
Q 956 3463 1253 3523 
Q 1550 3584 1831 3584 
Q 2591 3584 2966 3190 
Q 3341 2797 3341 1997 
z
" transform="scale(0.015625)"/>
       <path id="DejaVuSans-78" d="M 3513 3500 
L 2247 1797 
L 3578 0 
L 2900 0 
L 1881 1375 
L 863 0 
L 184 0 
L 1544 1831 
L 300 3500 
L 978 3500 
L 1906 2253 
L 2834 3500 
L 3513 3500 
z
" transform="scale(0.015625)"/>
       <path id="DejaVuSans-69" d="M 603 3500 
L 1178 3500 
L 1178 0 
L 603 0 
L 603 3500 
z
M 603 4863 
L 1178 4863 
L 1178 4134 
L 603 4134 
L 603 4863 
z
" transform="scale(0.015625)"/>
       <path id="DejaVuSans-6c" d="M 603 4863 
L 1178 4863 
L 1178 0 
L 603 0 
L 603 4863 
z
" transform="scale(0.015625)"/>
       <path id="DejaVuSans-52" d="M 2841 2188 
Q 3044 2119 3236 1894 
Q 3428 1669 3622 1275 
L 4263 0 
L 3584 0 
L 2988 1197 
Q 2756 1666 2539 1819 
Q 2322 1972 1947 1972 
L 1259 1972 
L 1259 0 
L 628 0 
L 628 4666 
L 2053 4666 
Q 2853 4666 3247 4331 
Q 3641 3997 3641 3322 
Q 3641 2881 3436 2590 
Q 3231 2300 2841 2188 
z
M 1259 4147 
L 1259 2491 
L 2053 2491 
Q 2509 2491 2742 2702 
Q 2975 2913 2975 3322 
Q 2975 3731 2742 3939 
Q 2509 4147 2053 4147 
L 1259 4147 
z
" transform="scale(0.015625)"/>
       <path id="DejaVuSans-6f" d="M 1959 3097 
Q 1497 3097 1228 2736 
Q 959 2375 959 1747 
Q 959 1119 1226 758 
Q 1494 397 1959 397 
Q 2419 397 2687 759 
Q 2956 1122 2956 1747 
Q 2956 2369 2687 2733 
Q 2419 3097 1959 3097 
z
M 1959 3584 
Q 2709 3584 3137 3096 
Q 3566 2609 3566 1747 
Q 3566 888 3137 398 
Q 2709 -91 1959 -91 
Q 1206 -91 779 398 
Q 353 888 353 1747 
Q 353 2609 779 3096 
Q 1206 3584 1959 3584 
z
" transform="scale(0.015625)"/>
       <path id="DejaVuSans-74" d="M 1172 4494 
L 1172 3500 
L 2356 3500 
L 2356 3053 
L 1172 3053 
L 1172 1153 
Q 1172 725 1289 603 
Q 1406 481 1766 481 
L 2356 481 
L 2356 0 
L 1766 0 
Q 1100 0 847 248 
Q 594 497 594 1153 
L 594 3053 
L 172 3053 
L 172 3500 
L 594 3500 
L 594 4494 
L 1172 4494 
z
" transform="scale(0.015625)"/>
       <path id="DejaVuSans-6e" d="M 3513 2113 
L 3513 0 
L 2938 0 
L 2938 2094 
Q 2938 2591 2744 2837 
Q 2550 3084 2163 3084 
Q 1697 3084 1428 2787 
Q 1159 2491 1159 1978 
L 1159 0 
L 581 0 
L 581 3500 
L 1159 3500 
L 1159 2956 
Q 1366 3272 1645 3428 
Q 1925 3584 2291 3584 
Q 2894 3584 3203 3211 
Q 3513 2838 3513 2113 
z
" transform="scale(0.015625)"/>
      </defs>
      <use xlink:href="#DejaVuSans-61"/>
      <use xlink:href="#DejaVuSans-78" x="61.279297"/>
      <use xlink:href="#DejaVuSans-69" x="120.458984"/>
      <use xlink:href="#DejaVuSans-61" x="148.242188"/>
      <use xlink:href="#DejaVuSans-6c" x="209.521484"/>
      <use xlink:href="#DejaVuSans-52" x="237.304688"/>
      <use xlink:href="#DejaVuSans-6f" x="302.287109"/>
      <use xlink:href="#DejaVuSans-74" x="363.46875"/>
      <use xlink:href="#DejaVuSans-61" x="402.677734"/>
      <use xlink:href="#DejaVuSans-74" x="463.957031"/>
      <use xlink:href="#DejaVuSans-69" x="503.166016"/>
      <use xlink:href="#DejaVuSans-6f" x="530.949219"/>
      <use xlink:href="#DejaVuSans-6e" x="592.130859"/>
     </g>
    </g>
   </g>
   <g id="matplotlib.axis_2">
    <g id="ytick_1">
     <g id="line2d_7">
      <defs>
       <path id="md4310fd383" d="M 0 0 
L -3.5 0 
" style="stroke: #000000; stroke-width: 0.8"/>
      </defs>
      <g>
       <use xlink:href="#md4310fd383" x="34.240625" y="288.21825" style="stroke: #000000; stroke-width: 0.8"/>
      </g>
     </g>
     <g id="text_8">
      <!-- 0 -->
      <g transform="translate(20.878125 292.017469)scale(0.1 -0.1)">
       <use xlink:href="#DejaVuSans-30"/>
      </g>
     </g>
    </g>
    <g id="ytick_2">
     <g id="line2d_8">
      <g>
       <use xlink:href="#md4310fd383" x="34.240625" y="243.86625" style="stroke: #000000; stroke-width: 0.8"/>
      </g>
     </g>
     <g id="text_9">
      <!-- 1 -->
      <g transform="translate(20.878125 247.665469)scale(0.1 -0.1)">
       <use xlink:href="#DejaVuSans-31"/>
      </g>
     </g>
    </g>
    <g id="ytick_3">
     <g id="line2d_9">
      <g>
       <use xlink:href="#md4310fd383" x="34.240625" y="199.51425" style="stroke: #000000; stroke-width: 0.8"/>
      </g>
     </g>
     <g id="text_10">
      <!-- 2 -->
      <g transform="translate(20.878125 203.313469)scale(0.1 -0.1)">
       <use xlink:href="#DejaVuSans-32"/>
      </g>
     </g>
    </g>
    <g id="ytick_4">
     <g id="line2d_10">
      <g>
       <use xlink:href="#md4310fd383" x="34.240625" y="155.16225" style="stroke: #000000; stroke-width: 0.8"/>
      </g>
     </g>
     <g id="text_11">
      <!-- 3 -->
      <g transform="translate(20.878125 158.961469)scale(0.1 -0.1)">
       <defs>
        <path id="DejaVuSans-33" d="M 2597 2516 
Q 3050 2419 3304 2112 
Q 3559 1806 3559 1356 
Q 3559 666 3084 287 
Q 2609 -91 1734 -91 
Q 1441 -91 1130 -33 
Q 819 25 488 141 
L 488 750 
Q 750 597 1062 519 
Q 1375 441 1716 441 
Q 2309 441 2620 675 
Q 2931 909 2931 1356 
Q 2931 1769 2642 2001 
Q 2353 2234 1838 2234 
L 1294 2234 
L 1294 2753 
L 1863 2753 
Q 2328 2753 2575 2939 
Q 2822 3125 2822 3475 
Q 2822 3834 2567 4026 
Q 2313 4219 1838 4219 
Q 1578 4219 1281 4162 
Q 984 4106 628 3988 
L 628 4550 
Q 988 4650 1302 4700 
Q 1616 4750 1894 4750 
Q 2613 4750 3031 4423 
Q 3450 4097 3450 3541 
Q 3450 3153 3228 2886 
Q 3006 2619 2597 2516 
z
" transform="scale(0.015625)"/>
       </defs>
       <use xlink:href="#DejaVuSans-33"/>
      </g>
     </g>
    </g>
    <g id="ytick_5">
     <g id="line2d_11">
      <g>
       <use xlink:href="#md4310fd383" x="34.240625" y="110.81025" style="stroke: #000000; stroke-width: 0.8"/>
      </g>
     </g>
     <g id="text_12">
      <!-- 4 -->
      <g transform="translate(20.878125 114.609469)scale(0.1 -0.1)">
       <use xlink:href="#DejaVuSans-34"/>
      </g>
     </g>
    </g>
    <g id="ytick_6">
     <g id="line2d_12">
      <g>
       <use xlink:href="#md4310fd383" x="34.240625" y="66.45825" style="stroke: #000000; stroke-width: 0.8"/>
      </g>
     </g>
     <g id="text_13">
      <!-- 5 -->
      <g transform="translate(20.878125 70.257469)scale(0.1 -0.1)">
       <defs>
        <path id="DejaVuSans-35" d="M 691 4666 
L 3169 4666 
L 3169 4134 
L 1269 4134 
L 1269 2991 
Q 1406 3038 1543 3061 
Q 1681 3084 1819 3084 
Q 2600 3084 3056 2656 
Q 3513 2228 3513 1497 
Q 3513 744 3044 326 
Q 2575 -91 1722 -91 
Q 1428 -91 1123 -41 
Q 819 9 494 109 
L 494 744 
Q 775 591 1075 516 
Q 1375 441 1709 441 
Q 2250 441 2565 725 
Q 2881 1009 2881 1497 
Q 2881 1984 2565 2268 
Q 2250 2553 1709 2553 
Q 1456 2553 1204 2497 
Q 953 2441 691 2322 
L 691 4666 
z
" transform="scale(0.015625)"/>
       </defs>
       <use xlink:href="#DejaVuSans-35"/>
      </g>
     </g>
    </g>
    <g id="ytick_7">
     <g id="line2d_13">
      <g>
       <use xlink:href="#md4310fd383" x="34.240625" y="22.10625" style="stroke: #000000; stroke-width: 0.8"/>
      </g>
     </g>
     <g id="text_14">
      <!-- 6 -->
      <g transform="translate(20.878125 25.905469)scale(0.1 -0.1)">
       <use xlink:href="#DejaVuSans-36"/>
      </g>
     </g>
    </g>
    <g id="text_15">
     <!-- zShift -->
     <g transform="translate(14.798438 169.151312)rotate(-90)scale(0.1 -0.1)">
      <defs>
       <path id="DejaVuSans-7a" d="M 353 3500 
L 3084 3500 
L 3084 2975 
L 922 459 
L 3084 459 
L 3084 0 
L 275 0 
L 275 525 
L 2438 3041 
L 353 3041 
L 353 3500 
z
" transform="scale(0.015625)"/>
       <path id="DejaVuSans-53" d="M 3425 4513 
L 3425 3897 
Q 3066 4069 2747 4153 
Q 2428 4238 2131 4238 
Q 1616 4238 1336 4038 
Q 1056 3838 1056 3469 
Q 1056 3159 1242 3001 
Q 1428 2844 1947 2747 
L 2328 2669 
Q 3034 2534 3370 2195 
Q 3706 1856 3706 1288 
Q 3706 609 3251 259 
Q 2797 -91 1919 -91 
Q 1588 -91 1214 -16 
Q 841 59 441 206 
L 441 856 
Q 825 641 1194 531 
Q 1563 422 1919 422 
Q 2459 422 2753 634 
Q 3047 847 3047 1241 
Q 3047 1584 2836 1778 
Q 2625 1972 2144 2069 
L 1759 2144 
Q 1053 2284 737 2584 
Q 422 2884 422 3419 
Q 422 4038 858 4394 
Q 1294 4750 2059 4750 
Q 2388 4750 2728 4690 
Q 3069 4631 3425 4513 
z
" transform="scale(0.015625)"/>
       <path id="DejaVuSans-68" d="M 3513 2113 
L 3513 0 
L 2938 0 
L 2938 2094 
Q 2938 2591 2744 2837 
Q 2550 3084 2163 3084 
Q 1697 3084 1428 2787 
Q 1159 2491 1159 1978 
L 1159 0 
L 581 0 
L 581 4863 
L 1159 4863 
L 1159 2956 
Q 1366 3272 1645 3428 
Q 1925 3584 2291 3584 
Q 2894 3584 3203 3211 
Q 3513 2838 3513 2113 
z
" transform="scale(0.015625)"/>
       <path id="DejaVuSans-66" d="M 2375 4863 
L 2375 4384 
L 1825 4384 
Q 1516 4384 1395 4259 
Q 1275 4134 1275 3809 
L 1275 3500 
L 2222 3500 
L 2222 3053 
L 1275 3053 
L 1275 0 
L 697 0 
L 697 3053 
L 147 3053 
L 147 3500 
L 697 3500 
L 697 3744 
Q 697 4328 969 4595 
Q 1241 4863 1831 4863 
L 2375 4863 
z
" transform="scale(0.015625)"/>
      </defs>
      <use xlink:href="#DejaVuSans-7a"/>
      <use xlink:href="#DejaVuSans-53" x="52.490234"/>
      <use xlink:href="#DejaVuSans-68" x="115.966797"/>
      <use xlink:href="#DejaVuSans-69" x="179.345703"/>
      <use xlink:href="#DejaVuSans-66" x="207.128906"/>
      <use xlink:href="#DejaVuSans-74" x="240.583984"/>
     </g>
    </g>
   </g>
   <g id="PathCollection_1"/>
   <g id="PathCollection_2">
    <path d="M 146.877328 288.21825 
L 146.636352 285.55713 
L 146.45522 282.89601 
L 146.320248 280.23489 
L 146.220827 277.57377 
L 146.148644 274.91265 
L 146.097151 272.25153 
L 146.061173 269.59041 
L 146.036632 266.92929 
L 146.018228 263.82465 
L 146.008442 261.16353 
L 146.002278 258.50241 
L 145.99845 255.84129 
L 145.996084 253.18017 
L 145.994634 250.51905 
L 145.993779 247.85793 
L 145.993331 245.19681 
L 145.993158 242.53569 
L 145.993147 239.87457 
L 145.993191 237.21345 
L 145.993205 234.55233 
L 145.993153 231.89121 
L 145.993046 229.23009 
L 145.992935 226.56897 
L 145.992878 223.90785 
L 145.992914 220.80321 
L 145.993014 218.14209 
L 145.993122 215.48097 
L 145.993178 212.81985 
L 145.993153 210.15873 
L 145.993059 207.49761 
L 145.992949 204.83649 
L 145.992881 202.17537 
L 145.992892 199.51425 
L 145.992977 196.85313 
L 145.993089 194.19201 
L 145.993168 191.53089 
L 145.99317 188.86977 
L 145.993095 186.20865 
L 145.992984 183.54753 
L 145.992896 180.88641 
L 145.992879 178.22529 
L 145.992959 175.12065 
L 145.993071 172.45953 
L 145.993159 169.79841 
L 145.993176 167.13729 
L 145.993112 164.47617 
L 145.993002 161.81505 
L 145.992906 159.15393 
L 145.992876 156.49281 
L 145.992927 153.83169 
L 145.993033 151.17057 
L 145.993136 148.50945 
L 145.99318 145.84833 
L 145.993141 143.18721 
L 145.993041 140.52609 
L 145.992933 137.86497 
L 145.992877 135.20385 
L 145.992914 132.09921 
L 145.993014 129.43809 
L 145.993122 126.77697 
L 145.993178 124.11585 
L 145.993153 121.45473 
L 145.99306 118.79361 
L 145.992949 116.13249 
L 145.992881 113.47137 
L 145.992894 110.81025 
L 145.99298 108.14913 
L 145.993096 105.48801 
L 145.993184 102.82689 
L 145.993206 100.16577 
L 145.993171 97.50465 
L 145.993139 94.84353 
L 145.993207 92.18241 
L 145.993485 89.52129 
L 145.994235 86.41665 
L 145.995419 83.75553 
L 145.997368 81.09441 
L 146.000527 78.43329 
L 146.005626 75.77217 
L 146.013769 73.11105 
L 146.02652 70.44993 
L 146.045979 67.78881 
L 146.074871 65.12769 
L 146.116665 62.46657 
L 146.175721 59.80545 
L 146.257498 57.14433 
L 146.368813 54.48321 
L 146.518211 51.82209 
L 146.716481 49.16097 
L 146.977423 46.49985 
L 147.304817 43.967455 
L 147.365443 43.39521 
L 147.715766 40.73409 
L 148.171753 38.07297 
L 148.767417 35.41185 
L 149.090417 34.222088 
L 149.464576 32.75073 
L 150.305204 30.08961 
L 150.876017 28.614956 
L 151.362273 27.42849 
L 152.691554 24.76737 
L 152.697329 24.756778 
L 154.429442 22.10625 
" clip-path="url(#pc5a0f61359)" style="fill: none; stroke: #dbe9f6; stroke-width: 1.5"/>
    <path d="M 278.723922 22.10625 
L 278.964898 24.76737 
L 279.14603 27.42849 
L 279.281002 30.08961 
L 279.380423 32.75073 
L 279.452606 35.41185 
L 279.504099 38.07297 
L 279.540077 40.73409 
L 279.564618 43.39521 
L 279.583022 46.49985 
L 279.592808 49.16097 
L 279.598972 51.82209 
L 279.6028 54.48321 
L 279.605166 57.14433 
L 279.606616 59.80545 
L 279.607471 62.46657 
L 279.607919 65.12769 
L 279.608092 67.78881 
L 279.608103 70.44993 
L 279.608059 73.11105 
L 279.608045 75.77217 
L 279.608097 78.43329 
L 279.608204 81.09441 
L 279.608315 83.75553 
L 279.608372 86.41665 
L 279.608336 89.52129 
L 279.608236 92.18241 
L 279.608128 94.84353 
L 279.608072 97.50465 
L 279.608097 100.16577 
L 279.608191 102.82689 
L 279.608301 105.48801 
L 279.608369 108.14913 
L 279.608358 110.81025 
L 279.608273 113.47137 
L 279.608161 116.13249 
L 279.608082 118.79361 
L 279.60808 121.45473 
L 279.608155 124.11585 
L 279.608266 126.77697 
L 279.608354 129.43809 
L 279.608371 132.09921 
L 279.608291 135.20385 
L 279.608179 137.86497 
L 279.608091 140.52609 
L 279.608074 143.18721 
L 279.608138 145.84833 
L 279.608248 148.50945 
L 279.608344 151.17057 
L 279.608374 153.83169 
L 279.608323 156.49281 
L 279.608217 159.15393 
L 279.608114 161.81505 
L 279.60807 164.47617 
L 279.608109 167.13729 
L 279.608209 169.79841 
L 279.608317 172.45953 
L 279.608373 175.12065 
L 279.608336 178.22529 
L 279.608236 180.88641 
L 279.608128 183.54753 
L 279.608072 186.20865 
L 279.608097 188.86977 
L 279.60819 191.53089 
L 279.608301 194.19201 
L 279.608369 196.85313 
L 279.608356 199.51425 
L 279.60827 202.17537 
L 279.608154 204.83649 
L 279.608066 207.49761 
L 279.608044 210.15873 
L 279.608079 212.81985 
L 279.608111 215.48097 
L 279.608043 218.14209 
L 279.607765 220.80321 
L 279.607015 223.90785 
L 279.605831 226.56897 
L 279.603882 229.23009 
L 279.600723 231.89121 
L 279.595624 234.55233 
L 279.587481 237.21345 
L 279.57473 239.87457 
L 279.555271 242.53569 
L 279.526379 245.19681 
L 279.484585 247.85793 
L 279.425529 250.51905 
L 279.343752 253.18017 
L 279.232437 255.84129 
L 279.083039 258.50241 
L 278.884769 261.16353 
L 278.623827 263.82465 
L 278.296433 266.357045 
L 278.235807 266.92929 
L 277.885484 269.59041 
L 277.429497 272.25153 
L 276.833833 274.91265 
L 276.510833 276.102412 
L 276.136674 277.57377 
L 275.296046 280.23489 
L 274.725233 281.709544 
L 274.238977 282.89601 
L 272.909696 285.55713 
L 272.903921 285.567722 
L 271.171808 288.21825 
" clip-path="url(#pc5a0f61359)" style="fill: none; stroke: #dbe9f6; stroke-width: 1.5"/>
   </g>
   <g id="PathCollection_3">
    <path d="M 150.200572 288.21825 
L 149.880666 285.55713 
L 149.64045 282.89601 
L 149.461525 280.23489 
L 149.329697 277.57377 
L 149.233901 274.91265 
L 149.165456 272.25153 
L 149.117529 269.59041 
L 149.090417 267.392764 
L 149.083596 266.92929 
L 149.053918 263.82465 
L 149.038077 261.16353 
L 149.028071 258.50241 
L 149.021847 255.84129 
L 149.018 253.18017 
L 149.015637 250.51905 
L 149.014232 247.85793 
L 149.013476 245.19681 
L 149.013167 242.53569 
L 149.013126 239.87457 
L 149.013189 237.21345 
L 149.013223 234.55233 
L 149.013158 231.89121 
L 149.013003 229.23009 
L 149.01283 226.56897 
L 149.012727 223.90785 
L 149.012762 220.80321 
L 149.012906 218.14209 
L 149.013073 215.48097 
L 149.013174 212.81985 
L 149.013153 210.15873 
L 149.013022 207.49761 
L 149.012852 204.83649 
L 149.012734 202.17537 
L 149.012734 199.51425 
L 149.01285 196.85313 
L 149.013021 194.19201 
L 149.013152 191.53089 
L 149.013174 188.86977 
L 149.013074 186.20865 
L 149.012907 183.54753 
L 149.012763 180.88641 
L 149.01272 178.22529 
L 149.012825 175.12065 
L 149.012992 172.45953 
L 149.013137 169.79841 
L 149.01318 167.13729 
L 149.013098 164.47617 
L 149.012936 161.81505 
L 149.012781 159.15393 
L 149.012718 156.49281 
L 149.01278 153.83169 
L 149.012934 151.17057 
L 149.013097 148.50945 
L 149.013179 145.84833 
L 149.013138 143.18721 
L 149.012994 140.52609 
L 149.012826 137.86497 
L 149.012725 135.20385 
L 149.012762 132.09921 
L 149.012905 129.43809 
L 149.013073 126.77697 
L 149.013174 124.11585 
L 149.013153 121.45473 
L 149.013022 118.79361 
L 149.012852 116.13249 
L 149.012735 113.47137 
L 149.012736 110.81025 
L 149.012855 108.14913 
L 149.013031 105.48801 
L 149.013175 102.82689 
L 149.013223 100.16577 
L 149.013178 97.50465 
L 149.013121 94.84353 
L 149.013193 92.18241 
L 149.01356 89.52129 
L 149.014602 86.41665 
L 149.016275 83.75553 
L 149.019043 81.09441 
L 149.023533 78.43329 
L 149.030786 75.77217 
L 149.042393 73.11105 
L 149.060629 70.44993 
L 149.088565 67.78881 
L 149.090417 67.66966 
L 149.123442 65.12769 
L 149.173577 62.46657 
L 149.244573 59.80545 
L 149.343027 57.14433 
L 149.477146 54.48321 
L 149.65716 51.82209 
L 149.895911 49.16097 
L 150.209713 46.49985 
L 150.699129 43.39521 
L 150.876017 42.501737 
L 151.219523 40.73409 
L 151.871383 38.07297 
L 152.697329 35.469083 
L 152.717665 35.41185 
L 153.813903 32.75073 
L 154.482929 31.404393 
L 155.322644 30.08961 
L 156.268529 28.753274 
L 157.621565 27.42849 
L 158.054129 27.013175 
L 159.875441 25.81003 
L 161.661041 24.916758 
L 161.933941 24.76737 
L 163.446641 23.836962 
L 165.232241 22.128456 
L 165.24722 22.10625 
" clip-path="url(#pc5a0f61359)" style="fill: none; stroke: #bad6eb; stroke-width: 1.5"/>
    <path d="M 275.400678 22.10625 
L 275.720584 24.76737 
L 275.9608 27.42849 
L 276.139725 30.08961 
L 276.271553 32.75073 
L 276.367349 35.41185 
L 276.435794 38.07297 
L 276.483721 40.73409 
L 276.510833 42.931736 
L 276.517654 43.39521 
L 276.547332 46.49985 
L 276.563173 49.16097 
L 276.573179 51.82209 
L 276.579403 54.48321 
L 276.58325 57.14433 
L 276.585613 59.80545 
L 276.587018 62.46657 
L 276.587774 65.12769 
L 276.588083 67.78881 
L 276.588124 70.44993 
L 276.588061 73.11105 
L 276.588027 75.77217 
L 276.588092 78.43329 
L 276.588247 81.09441 
L 276.58842 83.75553 
L 276.588523 86.41665 
L 276.588488 89.52129 
L 276.588344 92.18241 
L 276.588177 94.84353 
L 276.588076 97.50465 
L 276.588097 100.16577 
L 276.588228 102.82689 
L 276.588398 105.48801 
L 276.588516 108.14913 
L 276.588516 110.81025 
L 276.5884 113.47137 
L 276.588229 116.13249 
L 276.588098 118.79361 
L 276.588076 121.45473 
L 276.588176 124.11585 
L 276.588343 126.77697 
L 276.588487 129.43809 
L 276.58853 132.09921 
L 276.588425 135.20385 
L 276.588258 137.86497 
L 276.588113 140.52609 
L 276.58807 143.18721 
L 276.588152 145.84833 
L 276.588314 148.50945 
L 276.588469 151.17057 
L 276.588532 153.83169 
L 276.58847 156.49281 
L 276.588316 159.15393 
L 276.588153 161.81505 
L 276.588071 164.47617 
L 276.588112 167.13729 
L 276.588256 169.79841 
L 276.588424 172.45953 
L 276.588525 175.12065 
L 276.588488 178.22529 
L 276.588345 180.88641 
L 276.588177 183.54753 
L 276.588076 186.20865 
L 276.588097 188.86977 
L 276.588228 191.53089 
L 276.588398 194.19201 
L 276.588515 196.85313 
L 276.588514 199.51425 
L 276.588395 202.17537 
L 276.588219 204.83649 
L 276.588075 207.49761 
L 276.588027 210.15873 
L 276.588072 212.81985 
L 276.588129 215.48097 
L 276.588057 218.14209 
L 276.58769 220.80321 
L 276.586648 223.90785 
L 276.584975 226.56897 
L 276.582207 229.23009 
L 276.577717 231.89121 
L 276.570464 234.55233 
L 276.558857 237.21345 
L 276.540621 239.87457 
L 276.512685 242.53569 
L 276.510833 242.65484 
L 276.477808 245.19681 
L 276.427673 247.85793 
L 276.356677 250.51905 
L 276.258223 253.18017 
L 276.124104 255.84129 
L 275.94409 258.50241 
L 275.705339 261.16353 
L 275.391537 263.82465 
L 274.902121 266.92929 
L 274.725233 267.822763 
L 274.381727 269.59041 
L 273.729867 272.25153 
L 272.903921 274.855417 
L 272.883585 274.91265 
L 271.787347 277.57377 
L 271.118321 278.920107 
L 270.278606 280.23489 
L 269.332721 281.571226 
L 267.979685 282.89601 
L 267.547121 283.311325 
L 265.725809 284.51447 
L 263.940209 285.407742 
L 263.667309 285.55713 
L 262.154609 286.487538 
L 260.369009 288.196044 
L 260.35403 288.21825 
" clip-path="url(#pc5a0f61359)" style="fill: none; stroke: #bad6eb; stroke-width: 1.5"/>
   </g>
   <g id="PathCollection_4">
    <path d="M 152.926331 288.21825 
L 152.697329 286.976239 
L 152.461528 285.55713 
L 152.119498 282.89601 
L 151.864611 280.23489 
L 151.676647 277.57377 
L 151.539878 274.91265 
L 151.441987 272.25153 
L 151.37329 269.59041 
L 151.326177 266.92929 
L 151.290613 263.82465 
L 151.271581 261.16353 
L 151.259536 258.50241 
L 151.252037 255.84129 
L 151.247401 253.18017 
L 151.244549 250.51905 
L 151.242843 247.85793 
L 151.241911 245.19681 
L 151.241511 242.53569 
L 151.24144 239.87457 
L 151.241508 237.21345 
L 151.241555 234.55233 
L 151.241494 231.89121 
L 151.241325 229.23009 
L 151.241125 226.56897 
L 151.240995 223.90785 
L 151.241016 220.80321 
L 151.241171 218.14209 
L 151.241364 215.48097 
L 151.241492 212.81985 
L 151.241484 210.15873 
L 151.241345 207.49761 
L 151.24115 204.83649 
L 151.241005 202.17537 
L 151.240989 199.51425 
L 151.241109 196.85313 
L 151.241302 194.19201 
L 151.241462 191.53089 
L 151.241503 188.86977 
L 151.241403 186.20865 
L 151.241215 183.54753 
L 151.241042 180.88641 
L 151.240978 178.22529 
L 151.241082 175.12065 
L 151.241269 172.45953 
L 151.241442 169.79841 
L 151.241507 167.13729 
L 151.241428 164.47617 
L 151.241248 161.81505 
L 151.241066 159.15393 
L 151.240979 156.49281 
L 151.241034 153.83169 
L 151.241203 151.17057 
L 151.241393 148.50945 
L 151.241501 145.84833 
L 151.241469 143.18721 
L 151.241314 140.52609 
L 151.24112 137.86497 
L 151.240992 135.20385 
L 151.241016 132.09921 
L 151.24117 129.43809 
L 151.241364 126.77697 
L 151.241492 124.11585 
L 151.241484 121.45473 
L 151.241345 118.79361 
L 151.241151 116.13249 
L 151.241006 113.47137 
L 151.240991 110.81025 
L 151.241114 108.14913 
L 151.241313 105.48801 
L 151.241486 102.82689 
L 151.241555 100.16577 
L 151.241512 97.50465 
L 151.241441 94.84353 
L 151.241497 92.18241 
L 151.241869 89.52129 
L 151.242973 86.41665 
L 151.244772 83.75553 
L 151.247762 81.09441 
L 151.252617 78.43329 
L 151.26046 75.77217 
L 151.273029 73.11105 
L 151.292816 70.44993 
L 151.323202 67.78881 
L 151.368596 65.12769 
L 151.434612 62.46657 
L 151.528297 59.80545 
L 151.658431 57.14433 
L 151.835917 54.48321 
L 152.074307 51.82209 
L 152.390547 49.16097 
L 152.697329 47.169751 
L 152.8078 46.49985 
L 153.462459 43.39521 
L 154.201822 40.73409 
L 154.482929 39.897014 
L 155.251266 38.07297 
L 156.268529 36.072026 
L 156.761865 35.41185 
L 158.054129 33.848883 
L 159.628345 32.75073 
L 159.875441 32.581529 
L 161.661041 31.920323 
L 163.446641 31.414109 
L 165.232241 30.481342 
L 165.594051 30.08961 
L 167.053553 28.338287 
L 167.509213 27.42849 
L 168.783246 24.76737 
L 168.839153 24.649082 
L 169.829873 22.10625 
" clip-path="url(#pc5a0f61359)" style="fill: none; stroke: #89bedc; stroke-width: 1.5"/>
    <path d="M 272.674919 22.10625 
L 272.903921 23.348261 
L 273.139722 24.76737 
L 273.481752 27.42849 
L 273.736639 30.08961 
L 273.924603 32.75073 
L 274.061372 35.41185 
L 274.159263 38.07297 
L 274.22796 40.73409 
L 274.275073 43.39521 
L 274.310637 46.49985 
L 274.329669 49.16097 
L 274.341714 51.82209 
L 274.349213 54.48321 
L 274.353849 57.14433 
L 274.356701 59.80545 
L 274.358407 62.46657 
L 274.359339 65.12769 
L 274.359739 67.78881 
L 274.35981 70.44993 
L 274.359742 73.11105 
L 274.359695 75.77217 
L 274.359756 78.43329 
L 274.359925 81.09441 
L 274.360125 83.75553 
L 274.360255 86.41665 
L 274.360234 89.52129 
L 274.360079 92.18241 
L 274.359886 94.84353 
L 274.359758 97.50465 
L 274.359766 100.16577 
L 274.359905 102.82689 
L 274.3601 105.48801 
L 274.360245 108.14913 
L 274.360261 110.81025 
L 274.360141 113.47137 
L 274.359948 116.13249 
L 274.359788 118.79361 
L 274.359747 121.45473 
L 274.359847 124.11585 
L 274.360035 126.77697 
L 274.360208 129.43809 
L 274.360272 132.09921 
L 274.360168 135.20385 
L 274.359981 137.86497 
L 274.359808 140.52609 
L 274.359743 143.18721 
L 274.359822 145.84833 
L 274.360002 148.50945 
L 274.360184 151.17057 
L 274.360271 153.83169 
L 274.360216 156.49281 
L 274.360047 159.15393 
L 274.359857 161.81505 
L 274.359749 164.47617 
L 274.359781 167.13729 
L 274.359936 169.79841 
L 274.36013 172.45953 
L 274.360258 175.12065 
L 274.360234 178.22529 
L 274.36008 180.88641 
L 274.359886 183.54753 
L 274.359758 186.20865 
L 274.359766 188.86977 
L 274.359905 191.53089 
L 274.360099 194.19201 
L 274.360244 196.85313 
L 274.360259 199.51425 
L 274.360136 202.17537 
L 274.359937 204.83649 
L 274.359764 207.49761 
L 274.359695 210.15873 
L 274.359738 212.81985 
L 274.359809 215.48097 
L 274.359753 218.14209 
L 274.359381 220.80321 
L 274.358277 223.90785 
L 274.356478 226.56897 
L 274.353488 229.23009 
L 274.348633 231.89121 
L 274.34079 234.55233 
L 274.328221 237.21345 
L 274.308434 239.87457 
L 274.278048 242.53569 
L 274.232654 245.19681 
L 274.166638 247.85793 
L 274.072953 250.51905 
L 273.942819 253.18017 
L 273.765333 255.84129 
L 273.526943 258.50241 
L 273.210703 261.16353 
L 272.903921 263.154749 
L 272.79345 263.82465 
L 272.138791 266.92929 
L 271.399428 269.59041 
L 271.118321 270.427486 
L 270.349984 272.25153 
L 269.332721 274.252474 
L 268.839385 274.91265 
L 267.547121 276.475617 
L 265.972905 277.57377 
L 265.725809 277.742971 
L 263.940209 278.404177 
L 262.154609 278.910391 
L 260.369009 279.843158 
L 260.007199 280.23489 
L 258.547697 281.986213 
L 258.092037 282.89601 
L 256.818004 285.55713 
L 256.762097 285.675418 
L 255.771377 288.21825 
" clip-path="url(#pc5a0f61359)" style="fill: none; stroke: #89bedc; stroke-width: 1.5"/>
   </g>
   <g id="PathCollection_5">
    <path d="M 155.966971 288.21825 
L 155.177998 285.55713 
L 154.589319 282.89601 
L 154.482929 282.268098 
L 154.208772 280.23489 
L 153.941542 277.57377 
L 153.746996 274.91265 
L 153.607612 272.25153 
L 153.50965 269.59041 
L 153.442336 266.92929 
L 153.391398 263.82465 
L 153.364068 261.16353 
L 153.346739 258.50241 
L 153.335937 255.84129 
L 153.329257 253.18017 
L 153.325145 250.51905 
L 153.322673 247.85793 
L 153.321304 245.19681 
L 153.320695 242.53569 
L 153.320565 239.87457 
L 153.32065 237.21345 
L 153.320725 234.55233 
L 153.320658 231.89121 
L 153.320437 229.23009 
L 153.32016 226.56897 
L 153.319967 223.90785 
L 153.319973 220.80321 
L 153.320173 218.14209 
L 153.32044 215.48097 
L 153.320629 212.81985 
L 153.320638 210.15873 
L 153.320462 207.49761 
L 153.320196 204.83649 
L 153.319984 202.17537 
L 153.319942 199.51425 
L 153.320091 196.85313 
L 153.320352 194.19201 
L 153.320583 191.53089 
L 153.320658 188.86977 
L 153.320537 186.20865 
L 153.320286 183.54753 
L 153.32004 180.88641 
L 153.319933 178.22529 
L 153.320055 175.12065 
L 153.320307 172.45953 
L 153.320552 169.79841 
L 153.320659 167.13729 
L 153.32057 164.47617 
L 153.320332 161.81505 
L 153.320075 159.15393 
L 153.319938 156.49281 
L 153.319995 153.83169 
L 153.320216 151.17057 
L 153.32048 148.50945 
L 153.320645 145.84833 
L 153.32062 143.18721 
L 153.32042 140.52609 
L 153.320153 137.86497 
L 153.319963 135.20385 
L 153.319972 132.09921 
L 153.320172 129.43809 
L 153.320439 126.77697 
L 153.320629 124.11585 
L 153.320639 121.45473 
L 153.320462 118.79361 
L 153.320197 116.13249 
L 153.319985 113.47137 
L 153.319944 110.81025 
L 153.320097 108.14913 
L 153.320365 105.48801 
L 153.320612 102.82689 
L 153.320723 100.16577 
L 153.320676 97.50465 
L 153.320574 94.84353 
L 153.320621 92.18241 
L 153.321076 89.52129 
L 153.322486 86.41665 
L 153.32482 83.75553 
L 153.328717 81.09441 
L 153.33505 78.43329 
L 153.345284 75.77217 
L 153.361702 73.11105 
L 153.3876 70.44993 
L 153.427464 67.78881 
L 153.487154 65.12769 
L 153.574129 62.46657 
L 153.697734 59.80545 
L 153.86957 57.14433 
L 154.103977 54.48321 
L 154.418673 51.82209 
L 154.482929 51.398394 
L 154.896606 49.16097 
L 155.532905 46.49985 
L 156.268529 44.126958 
L 156.607262 43.39521 
L 158.054129 40.828911 
L 158.159461 40.73409 
L 159.875441 39.335208 
L 161.661041 38.917897 
L 163.446641 39.089685 
L 165.232241 39.217189 
L 167.053553 38.221389 
L 167.143052 38.07297 
L 168.64959 35.41185 
L 168.839153 35.051421 
L 169.624806 32.75073 
L 170.520251 30.08961 
L 170.624753 29.792493 
L 171.377013 27.42849 
L 172.298688 24.76737 
L 172.410353 24.475859 
L 173.467002 22.10625 
" clip-path="url(#pc5a0f61359)" style="fill: none; stroke: #539ecd; stroke-width: 1.5"/>
    <path d="M 169.473281 288.21825 
L 168.839153 287.700671 
L 167.053553 287.710904 
L 166.415633 288.21825 
" clip-path="url(#pc5a0f61359)" style="fill: none; stroke: #539ecd; stroke-width: 1.5"/>
    <path d="M 184.589545 22.10625 
L 184.980977 22.462162 
L 186.766577 22.708054 
L 187.621225 22.10625 
" clip-path="url(#pc5a0f61359)" style="fill: none; stroke: #539ecd; stroke-width: 1.5"/>
    <path d="M 187.316969 288.21825 
L 186.766577 287.754481 
L 184.980977 287.736432 
L 184.383379 288.21825 
" clip-path="url(#pc5a0f61359)" style="fill: none; stroke: #539ecd; stroke-width: 1.5"/>
    <path d="M 202.532467 22.10625 
L 202.944113 22.481053 
L 204.729713 22.657689 
L 205.479334 22.10625 
" clip-path="url(#pc5a0f61359)" style="fill: none; stroke: #539ecd; stroke-width: 1.5"/>
    <path d="M 205.199418 288.21825 
L 204.729713 287.806064 
L 202.944113 287.692848 
L 202.262746 288.21825 
" clip-path="url(#pc5a0f61359)" style="fill: none; stroke: #539ecd; stroke-width: 1.5"/>
    <path d="M 220.401832 22.10625 
L 220.871537 22.518436 
L 222.657137 22.631652 
L 223.338504 22.10625 
" clip-path="url(#pc5a0f61359)" style="fill: none; stroke: #539ecd; stroke-width: 1.5"/>
    <path d="M 223.068783 288.21825 
L 222.657137 287.843447 
L 220.871537 287.666811 
L 220.121916 288.21825 
" clip-path="url(#pc5a0f61359)" style="fill: none; stroke: #539ecd; stroke-width: 1.5"/>
    <path d="M 238.284281 22.10625 
L 238.834673 22.570019 
L 240.620273 22.588068 
L 241.217871 22.10625 
" clip-path="url(#pc5a0f61359)" style="fill: none; stroke: #539ecd; stroke-width: 1.5"/>
    <path d="M 241.011705 288.21825 
L 240.620273 287.862338 
L 238.834673 287.616446 
L 237.980025 288.21825 
" clip-path="url(#pc5a0f61359)" style="fill: none; stroke: #539ecd; stroke-width: 1.5"/>
    <path d="M 256.127969 22.10625 
L 256.762097 22.623829 
L 258.547697 22.613596 
L 259.185617 22.10625 
" clip-path="url(#pc5a0f61359)" style="fill: none; stroke: #539ecd; stroke-width: 1.5"/>
    <path d="M 269.634279 22.10625 
L 270.423252 24.76737 
L 271.011931 27.42849 
L 271.118321 28.056402 
L 271.392478 30.08961 
L 271.659708 32.75073 
L 271.854254 35.41185 
L 271.993638 38.07297 
L 272.0916 40.73409 
L 272.158914 43.39521 
L 272.209852 46.49985 
L 272.237182 49.16097 
L 272.254511 51.82209 
L 272.265313 54.48321 
L 272.271993 57.14433 
L 272.276105 59.80545 
L 272.278577 62.46657 
L 272.279946 65.12769 
L 272.280555 67.78881 
L 272.280685 70.44993 
L 272.2806 73.11105 
L 272.280525 75.77217 
L 272.280592 78.43329 
L 272.280813 81.09441 
L 272.28109 83.75553 
L 272.281283 86.41665 
L 272.281277 89.52129 
L 272.281077 92.18241 
L 272.28081 94.84353 
L 272.280621 97.50465 
L 272.280612 100.16577 
L 272.280788 102.82689 
L 272.281054 105.48801 
L 272.281266 108.14913 
L 272.281308 110.81025 
L 272.281159 113.47137 
L 272.280898 116.13249 
L 272.280667 118.79361 
L 272.280592 121.45473 
L 272.280713 124.11585 
L 272.280964 126.77697 
L 272.28121 129.43809 
L 272.281317 132.09921 
L 272.281195 135.20385 
L 272.280943 137.86497 
L 272.280698 140.52609 
L 272.280591 143.18721 
L 272.28068 145.84833 
L 272.280918 148.50945 
L 272.281175 151.17057 
L 272.281312 153.83169 
L 272.281255 156.49281 
L 272.281034 159.15393 
L 272.28077 161.81505 
L 272.280605 164.47617 
L 272.28063 167.13729 
L 272.28083 169.79841 
L 272.281097 172.45953 
L 272.281287 175.12065 
L 272.281278 178.22529 
L 272.281078 180.88641 
L 272.280811 183.54753 
L 272.280621 186.20865 
L 272.280611 188.86977 
L 272.280788 191.53089 
L 272.281053 194.19201 
L 272.281265 196.85313 
L 272.281306 199.51425 
L 272.281153 202.17537 
L 272.280885 204.83649 
L 272.280638 207.49761 
L 272.280527 210.15873 
L 272.280574 212.81985 
L 272.280676 215.48097 
L 272.280629 218.14209 
L 272.280174 220.80321 
L 272.278764 223.90785 
L 272.27643 226.56897 
L 272.272533 229.23009 
L 272.2662 231.89121 
L 272.255966 234.55233 
L 272.239548 237.21345 
L 272.21365 239.87457 
L 272.173786 242.53569 
L 272.114096 245.19681 
L 272.027121 247.85793 
L 271.903516 250.51905 
L 271.73168 253.18017 
L 271.497273 255.84129 
L 271.182577 258.50241 
L 271.118321 258.926106 
L 270.704644 261.16353 
L 270.068345 263.82465 
L 269.332721 266.197542 
L 268.993988 266.92929 
L 267.547121 269.495589 
L 267.441789 269.59041 
L 265.725809 270.989292 
L 263.940209 271.406603 
L 262.154609 271.234815 
L 260.369009 271.107311 
L 258.547697 272.103111 
L 258.458198 272.25153 
L 256.95166 274.91265 
L 256.762097 275.273079 
L 255.976444 277.57377 
L 255.080999 280.23489 
L 254.976497 280.532007 
L 254.224237 282.89601 
L 253.302562 285.55713 
L 253.190897 285.848641 
L 252.134248 288.21825 
" clip-path="url(#pc5a0f61359)" style="fill: none; stroke: #539ecd; stroke-width: 1.5"/>
   </g>
   <g id="PathCollection_6">
    <path d="M 156.07708 272.25153 
L 155.924823 269.59041 
L 155.820018 266.92929 
L 155.740524 263.82465 
L 155.697761 261.16353 
L 155.670591 258.50241 
L 155.653636 255.84129 
L 155.643146 253.18017 
L 155.636684 250.51905 
L 155.632783 247.85793 
L 155.630593 245.19681 
L 155.629585 242.53569 
L 155.629334 239.87457 
L 155.629444 237.21345 
L 155.629569 234.55233 
L 155.629495 231.89121 
L 155.629186 229.23009 
L 155.628772 226.56897 
L 155.628462 223.90785 
L 155.628435 220.80321 
L 155.62871 218.14209 
L 155.629107 215.48097 
L 155.629411 212.81985 
L 155.629456 210.15873 
L 155.629218 207.49761 
L 155.628826 204.83649 
L 155.628492 202.17537 
L 155.628398 199.51425 
L 155.628594 196.85313 
L 155.628974 194.19201 
L 155.629332 191.53089 
L 155.629475 188.86977 
L 155.629324 186.20865 
L 155.628962 183.54753 
L 155.628584 180.88641 
L 155.628396 178.22529 
L 155.628544 175.12065 
L 155.628906 172.45953 
L 155.629283 169.79841 
L 155.629471 167.13729 
L 155.629368 164.47617 
L 155.629029 161.81505 
L 155.628639 159.15393 
L 155.628408 156.49281 
L 155.628463 153.83169 
L 155.628773 151.17057 
L 155.62917 148.50945 
L 155.629439 145.84833 
L 155.629435 143.18721 
L 155.629159 140.52609 
L 155.628761 137.86497 
L 155.628457 135.20385 
L 155.628433 132.09921 
L 155.628709 129.43809 
L 155.629107 126.77697 
L 155.629411 124.11585 
L 155.629456 121.45473 
L 155.629219 118.79361 
L 155.628827 116.13249 
L 155.628494 113.47137 
L 155.628401 110.81025 
L 155.628602 108.14913 
L 155.628992 105.48801 
L 155.629373 102.82689 
L 155.629564 100.16577 
L 155.629514 97.50465 
L 155.629356 94.84353 
L 155.629382 92.18241 
L 155.629969 89.52129 
L 155.631901 86.41665 
L 155.635159 83.75553 
L 155.640628 81.09441 
L 155.649521 78.43329 
L 155.663896 75.77217 
L 155.68698 73.11105 
L 155.723462 70.44993 
L 155.77975 67.78881 
L 155.864213 65.12769 
L 155.987482 62.46657 
L 156.162808 59.80545 
L 156.268529 58.641563 
L 156.470585 57.14433 
L 156.952942 54.48321 
L 157.59118 51.82209 
L 158.054129 50.321469 
L 158.837895 49.16097 
L 159.875441 47.884966 
L 161.661041 47.895565 
L 163.047843 49.16097 
L 163.446641 49.664212 
L 164.711228 51.82209 
L 165.232241 53.176138 
L 165.997023 54.48321 
L 166.939173 57.14433 
L 167.053553 57.653129 
L 167.751792 57.14433 
L 168.839153 56.34624 
L 169.120078 54.48321 
L 169.58766 51.82209 
L 170.09834 49.16097 
L 170.624753 46.563009 
L 170.633424 46.49985 
L 171.141295 43.39521 
L 171.622208 40.73409 
L 172.14374 38.07297 
L 172.410353 36.853062 
L 172.739886 35.41185 
L 173.434143 32.75073 
L 174.220387 30.08961 
L 174.231665 30.05677 
L 175.564441 27.42849 
L 176.017265 26.659445 
L 177.802865 25.582084 
L 179.588465 26.461487 
L 180.319793 27.42849 
L 181.409777 29.285654 
L 181.81271 30.08961 
L 182.832033 32.75073 
L 183.195377 34.029702 
L 183.769135 35.41185 
L 184.582459 38.07297 
L 184.980977 39.892431 
L 186.766577 40.624405 
L 187.419183 38.07297 
L 188.385215 35.41185 
L 188.587889 35.00176 
L 189.246356 32.75073 
L 190.30222 30.08961 
L 190.373489 29.950619 
L 191.658491 27.42849 
L 192.159089 26.656128 
L 193.944689 24.886452 
L 194.962287 24.76737 
L 195.766001 24.687056 
L 195.887255 24.76737 
L 197.551601 26.114555 
L 198.427163 27.42849 
L 199.337201 29.182808 
L 199.772309 30.08961 
L 200.750374 32.75073 
L 201.122801 34.110619 
L 201.668563 35.41185 
L 202.493484 38.07297 
L 202.944113 40.094331 
L 204.729713 40.382201 
L 205.294288 38.07297 
L 206.217008 35.41185 
L 206.515313 34.781813 
L 207.105359 32.75073 
L 208.15188 30.08961 
L 208.300913 29.797071 
L 209.521494 27.42849 
L 210.122225 26.512277 
L 211.907825 24.826603 
L 212.743949 24.76737 
L 213.693425 24.70985 
L 213.776833 24.76737 
L 215.479025 26.203398 
L 216.284721 27.42849 
L 217.300337 29.415202 
L 217.626325 30.08961 
L 218.615123 32.75073 
L 219.085937 34.455066 
L 219.502939 35.41185 
L 220.36232 38.07297 
L 220.871537 40.265101 
L 222.657137 40.223657 
L 223.161297 38.07297 
L 224.044493 35.41185 
L 224.478449 34.457337 
L 224.969456 32.75073 
L 226.002306 30.08961 
L 226.264049 29.570696 
L 227.381124 27.42849 
L 228.049649 26.419064 
L 229.835249 24.789988 
L 230.753829 24.76737 
L 231.656561 24.748329 
L 231.682651 24.76737 
L 233.442161 26.34069 
L 234.147346 27.42849 
L 235.227761 29.571132 
L 235.479828 30.08961 
L 236.476691 32.75073 
L 237.013361 34.680516 
L 237.346247 35.41185 
L 238.245397 38.07297 
L 238.834673 40.497147 
L 240.620273 39.963143 
L 241.046075 38.07297 
L 241.89288 35.41185 
L 242.405873 34.237258 
L 242.831191 32.75073 
L 243.855943 30.08961 
L 244.191473 29.420562 
L 245.244006 27.42849 
L 246.012785 26.282839 
L 247.765978 24.76737 
L 247.798385 24.744065 
L 249.06464 24.76737 
L 249.583985 24.778748 
L 251.369585 26.435826 
L 252.005532 27.42849 
L 253.190897 29.810704 
L 253.327517 30.08961 
L 254.335435 32.75073 
L 254.976497 35.035855 
L 255.153387 35.41185 
L 256.084758 38.07297 
L 256.754749 40.73409 
L 256.762097 40.775502 
L 256.839195 40.73409 
L 258.547697 40.096016 
L 259.011767 38.07297 
L 259.874168 35.41185 
L 260.369009 34.297873 
L 260.843844 32.75073 
L 261.942325 30.08961 
L 262.154609 29.692731 
L 263.588452 27.42849 
L 263.940209 26.986349 
L 265.725809 26.240164 
L 267.048842 27.42849 
L 267.547121 27.999152 
L 268.213729 30.08961 
L 268.841236 32.75073 
L 269.295316 35.41185 
L 269.332721 35.713472 
L 269.52417 38.07297 
L 269.676427 40.73409 
L 269.781232 43.39521 
L 269.860726 46.49985 
L 269.903489 49.16097 
L 269.930659 51.82209 
L 269.947614 54.48321 
L 269.958104 57.14433 
L 269.964566 59.80545 
L 269.968467 62.46657 
L 269.970657 65.12769 
L 269.971665 67.78881 
L 269.971916 70.44993 
L 269.971806 73.11105 
L 269.971681 75.77217 
L 269.971755 78.43329 
L 269.972064 81.09441 
L 269.972478 83.75553 
L 269.972788 86.41665 
L 269.972815 89.52129 
L 269.97254 92.18241 
L 269.972143 94.84353 
L 269.971839 97.50465 
L 269.971794 100.16577 
L 269.972032 102.82689 
L 269.972424 105.48801 
L 269.972758 108.14913 
L 269.972852 110.81025 
L 269.972656 113.47137 
L 269.972276 116.13249 
L 269.971918 118.79361 
L 269.971775 121.45473 
L 269.971926 124.11585 
L 269.972288 126.77697 
L 269.972666 129.43809 
L 269.972854 132.09921 
L 269.972706 135.20385 
L 269.972344 137.86497 
L 269.971967 140.52609 
L 269.971779 143.18721 
L 269.971882 145.84833 
L 269.972221 148.50945 
L 269.972611 151.17057 
L 269.972842 153.83169 
L 269.972787 156.49281 
L 269.972477 159.15393 
L 269.97208 161.81505 
L 269.971811 164.47617 
L 269.971815 167.13729 
L 269.972091 169.79841 
L 269.972489 172.45953 
L 269.972793 175.12065 
L 269.972817 178.22529 
L 269.972541 180.88641 
L 269.972143 183.54753 
L 269.971839 186.20865 
L 269.971794 188.86977 
L 269.972031 191.53089 
L 269.972423 194.19201 
L 269.972756 196.85313 
L 269.972849 199.51425 
L 269.972648 202.17537 
L 269.972258 204.83649 
L 269.971877 207.49761 
L 269.971686 210.15873 
L 269.971736 212.81985 
L 269.971894 215.48097 
L 269.971868 218.14209 
L 269.971281 220.80321 
L 269.969349 223.90785 
L 269.966091 226.56897 
L 269.960622 229.23009 
L 269.951729 231.89121 
L 269.937354 234.55233 
L 269.91427 237.21345 
L 269.877788 239.87457 
L 269.8215 242.53569 
L 269.737037 245.19681 
L 269.613768 247.85793 
L 269.438442 250.51905 
L 269.332721 251.682937 
L 269.130665 253.18017 
L 268.648308 255.84129 
L 268.01007 258.50241 
L 267.547121 260.003031 
L 266.763355 261.16353 
L 265.725809 262.439534 
L 263.940209 262.428935 
L 262.553407 261.16353 
L 262.154609 260.660288 
L 260.890022 258.50241 
L 260.369009 257.148362 
L 259.604227 255.84129 
L 258.662077 253.18017 
L 258.547697 252.671371 
L 257.849458 253.18017 
L 256.762097 253.97826 
L 256.481172 255.84129 
L 256.01359 258.50241 
L 255.50291 261.16353 
L 254.976497 263.761491 
L 254.967826 263.82465 
L 254.459955 266.92929 
L 253.979042 269.59041 
L 253.45751 272.25153 
L 253.190897 273.471438 
L 252.861364 274.91265 
L 252.167107 277.57377 
L 251.380863 280.23489 
L 251.369585 280.26773 
L 250.036809 282.89601 
L 249.583985 283.665055 
L 247.798385 284.742416 
L 246.012785 283.863013 
L 245.281457 282.89601 
L 244.191473 281.038846 
L 243.78854 280.23489 
L 242.769217 277.57377 
L 242.405873 276.294798 
L 241.832115 274.91265 
L 241.018791 272.25153 
L 240.620273 270.432069 
L 238.834673 269.700095 
L 238.182067 272.25153 
L 237.216035 274.91265 
L 237.013361 275.32274 
L 236.354894 277.57377 
L 235.29903 280.23489 
L 235.227761 280.373881 
L 233.942759 282.89601 
L 233.442161 283.668372 
L 231.656561 285.438048 
L 230.638963 285.55713 
L 229.835249 285.637444 
L 229.713995 285.55713 
L 228.049649 284.209945 
L 227.174087 282.89601 
L 226.264049 281.141692 
L 225.828941 280.23489 
L 224.850876 277.57377 
L 224.478449 276.213881 
L 223.932687 274.91265 
L 223.107766 272.25153 
L 222.657137 270.230169 
L 220.871537 269.942299 
L 220.306962 272.25153 
L 219.384242 274.91265 
L 219.085937 275.542687 
L 218.495891 277.57377 
L 217.44937 280.23489 
L 217.300337 280.527429 
L 216.079756 282.89601 
L 215.479025 283.812223 
L 213.693425 285.497897 
L 212.857301 285.55713 
L 211.907825 285.61465 
L 211.824417 285.55713 
L 210.122225 284.121102 
L 209.316529 282.89601 
L 208.300913 280.909298 
L 207.974925 280.23489 
L 206.986127 277.57377 
L 206.515313 275.869434 
L 206.098311 274.91265 
L 205.23893 272.25153 
L 204.729713 270.059399 
L 202.944113 270.100843 
L 202.439953 272.25153 
L 201.556757 274.91265 
L 201.122801 275.867163 
L 200.631794 277.57377 
L 199.598944 280.23489 
L 199.337201 280.753804 
L 198.220126 282.89601 
L 197.551601 283.905436 
L 195.766001 285.534512 
L 194.847421 285.55713 
L 193.944689 285.576171 
L 193.918599 285.55713 
L 192.159089 283.98381 
L 191.453904 282.89601 
L 190.373489 280.753368 
L 190.121422 280.23489 
L 189.124559 277.57377 
L 188.587889 275.643984 
L 188.255003 274.91265 
L 187.355853 272.25153 
L 186.766577 269.827353 
L 184.980977 270.361357 
L 184.555175 272.25153 
L 183.70837 274.91265 
L 183.195377 276.087242 
L 182.770059 277.57377 
L 181.745307 280.23489 
L 181.409777 280.903938 
L 180.357244 282.89601 
L 179.588465 284.041661 
L 177.835272 285.55713 
L 177.802865 285.580435 
L 176.53661 285.55713 
L 176.017265 285.545752 
L 174.231665 283.888674 
L 173.595718 282.89601 
L 172.410353 280.513796 
L 172.273733 280.23489 
L 171.265815 277.57377 
L 170.624753 275.288645 
L 170.447863 274.91265 
L 169.516492 272.25153 
L 168.846501 269.59041 
L 168.839153 269.548998 
L 168.762055 269.59041 
L 167.053553 270.228484 
L 166.589483 272.25153 
L 165.727082 274.91265 
L 165.232241 276.026627 
L 164.757406 277.57377 
L 163.658925 280.23489 
L 163.446641 280.631769 
L 162.012798 282.89601 
L 161.661041 283.338151 
L 159.875441 284.084336 
L 158.552408 282.89601 
L 158.054129 282.325348 
L 157.387521 280.23489 
L 156.760014 277.57377 
L 156.305934 274.91265 
L 156.268529 274.611028 
L 156.07708 272.25153 
z
" clip-path="url(#pc5a0f61359)" style="fill: none; stroke: #2b7bba; stroke-width: 1.5"/>
   </g>
   <g id="PathCollection_7">
    <path d="M 175.751452 263.82465 
L 175.556235 261.16353 
L 175.431816 258.50241 
L 175.354001 255.84129 
L 175.30582 253.18017 
L 175.27612 250.51905 
L 175.258105 247.85793 
L 175.247836 245.19681 
L 175.242893 242.53569 
L 175.241422 239.87457 
L 175.241721 237.21345 
L 175.242284 234.55233 
L 175.242103 231.89121 
L 175.240919 229.23009 
L 175.239197 226.56897 
L 175.237785 223.90785 
L 175.23747 220.80321 
L 175.23849 218.14209 
L 175.240136 215.48097 
L 175.241513 212.81985 
L 175.241874 210.15873 
L 175.241022 207.49761 
L 175.239419 204.83649 
L 175.237934 202.17537 
L 175.237372 199.51425 
L 175.238037 196.85313 
L 175.239569 194.19201 
L 175.241137 191.53089 
L 175.241893 188.86977 
L 175.241425 186.20865 
L 175.239987 183.54753 
L 175.23836 180.88641 
L 175.237424 178.22529 
L 175.237848 175.12065 
L 175.239285 172.45953 
L 175.240913 169.79841 
L 175.241849 167.13729 
L 175.241585 164.47617 
L 175.240265 161.81505 
L 175.238604 159.15393 
L 175.237503 156.49281 
L 175.237558 153.83169 
L 175.23874 151.17057 
L 175.240407 148.50945 
L 175.241657 145.84833 
L 175.241811 143.18721 
L 175.240787 140.52609 
L 175.239138 137.86497 
L 175.23776 135.20385 
L 175.237461 132.09921 
L 175.238486 129.43809 
L 175.240134 126.77697 
L 175.241512 124.11585 
L 175.241874 121.45473 
L 175.241022 118.79361 
L 175.23942 116.13249 
L 175.237934 113.47137 
L 175.237372 110.81025 
L 175.238038 108.14913 
L 175.239571 105.48801 
L 175.241144 102.82689 
L 175.241907 100.16577 
L 175.241456 97.50465 
L 175.240053 94.84353 
L 175.238498 92.18241 
L 175.237705 89.52129 
L 175.23847 86.41665 
L 175.240482 83.75553 
L 175.24316 81.09441 
L 175.245967 78.43329 
L 175.248955 75.77217 
L 175.253147 73.11105 
L 175.260597 70.44993 
L 175.27417 67.78881 
L 175.297256 65.12769 
L 175.333662 62.46657 
L 175.387825 59.80545 
L 175.465308 57.14433 
L 175.573311 54.48321 
L 175.720911 51.82209 
L 175.918886 49.16097 
L 176.017265 48.17971 
L 176.886836 46.49985 
L 177.802865 45.050709 
L 178.070509 46.49985 
L 178.386206 49.16097 
L 178.590019 51.82209 
L 178.720755 54.48321 
L 178.804519 57.14433 
L 178.858201 59.80545 
L 178.892257 62.46657 
L 178.913021 65.12769 
L 178.924576 67.78881 
L 178.930006 70.44993 
L 178.931981 73.11105 
L 178.93275 75.77217 
L 178.933831 78.43329 
L 178.935745 81.09441 
L 178.938081 83.75553 
L 178.939919 86.41665 
L 178.940387 89.52129 
L 178.939213 92.18241 
L 178.937274 94.84353 
L 178.935644 97.50465 
L 178.93522 100.16577 
L 178.936236 102.82689 
L 178.938145 105.48801 
L 178.939913 108.14913 
L 178.940582 110.81025 
L 178.93979 113.47137 
L 178.937967 116.13249 
L 178.9361 118.79361 
L 178.935201 121.45473 
L 178.935759 124.11585 
L 178.93747 126.77697 
L 178.939407 129.43809 
L 178.94052 132.09921 
L 178.940015 135.20385 
L 178.938304 137.86497 
L 178.936367 140.52609 
L 178.935254 143.18721 
L 178.935568 145.84833 
L 178.937139 148.50945 
L 178.939116 151.17057 
L 178.940426 153.83169 
L 178.94036 156.49281 
L 178.938953 159.15393 
L 178.936969 161.81505 
L 178.935482 164.47617 
L 178.935298 167.13729 
L 178.936518 169.79841 
L 178.93848 172.45953 
L 178.94012 175.12065 
L 178.940475 178.22529 
L 178.939255 180.88641 
L 178.937294 183.54753 
L 178.935654 186.20865 
L 178.935224 188.86977 
L 178.936238 191.53089 
L 178.938146 194.19201 
L 178.939913 196.85313 
L 178.940582 199.51425 
L 178.93979 202.17537 
L 178.937967 204.83649 
L 178.9361 207.49761 
L 178.935201 210.15873 
L 178.935758 212.81985 
L 178.937468 215.48097 
L 178.939402 218.14209 
L 178.940508 220.80321 
L 178.939983 223.90785 
L 178.93823 226.56897 
L 178.9362 229.23009 
L 178.934885 231.89121 
L 178.934776 234.55233 
L 178.935482 237.21345 
L 178.935739 239.87457 
L 178.933726 242.53569 
L 178.927408 245.19681 
L 178.914567 247.85793 
L 178.892239 250.51905 
L 178.855559 253.18017 
L 178.796176 255.84129 
L 178.700563 258.50241 
L 178.548489 261.16353 
L 178.311751 263.82465 
L 177.878316 266.92929 
L 177.802865 267.288165 
L 177.08501 266.92929 
L 176.017265 266.111714 
L 175.751452 263.82465 
z
" clip-path="url(#pc5a0f61359)" style="fill: none; stroke: #0b559f; stroke-width: 1.5"/>
    <path d="M 193.628274 263.82465 
L 193.426707 261.16353 
L 193.298258 258.50241 
L 193.217931 255.84129 
L 193.168196 253.18017 
L 193.137539 250.51905 
L 193.118945 247.85793 
L 193.108346 245.19681 
L 193.103243 242.53569 
L 193.101725 239.87457 
L 193.102034 237.21345 
L 193.102614 234.55233 
L 193.102427 231.89121 
L 193.101205 229.23009 
L 193.099428 226.56897 
L 193.097971 223.90785 
L 193.097646 220.80321 
L 193.098698 218.14209 
L 193.100397 215.48097 
L 193.101818 212.81985 
L 193.102191 210.15873 
L 193.101312 207.49761 
L 193.099658 204.83649 
L 193.098125 202.17537 
L 193.097544 199.51425 
L 193.098231 196.85313 
L 193.099812 194.19201 
L 193.101431 191.53089 
L 193.10221 188.86977 
L 193.101727 186.20865 
L 193.100244 183.54753 
L 193.098564 180.88641 
L 193.097599 178.22529 
L 193.098036 175.12065 
L 193.099519 172.45953 
L 193.101199 169.79841 
L 193.102165 167.13729 
L 193.101893 164.47617 
L 193.100531 161.81505 
L 193.098817 159.15393 
L 193.09768 156.49281 
L 193.097737 153.83169 
L 193.098956 151.17057 
L 193.100677 148.50945 
L 193.101967 145.84833 
L 193.102127 143.18721 
L 193.101069 140.52609 
L 193.099368 137.86497 
L 193.097945 135.20385 
L 193.097637 132.09921 
L 193.098694 129.43809 
L 193.100395 126.77697 
L 193.101818 124.11585 
L 193.102191 121.45473 
L 193.101312 118.79361 
L 193.099658 116.13249 
L 193.098125 113.47137 
L 193.097544 110.81025 
L 193.098231 108.14913 
L 193.099812 105.48801 
L 193.101431 102.82689 
L 193.102211 100.16577 
L 193.101728 97.50465 
L 193.100246 94.84353 
L 193.098568 92.18241 
L 193.097609 89.52129 
L 193.098064 86.41665 
L 193.099583 83.75553 
L 193.101344 81.09441 
L 193.102485 78.43329 
L 193.10258 75.77217 
L 193.101968 73.11105 
L 193.101746 70.44993 
L 193.103492 67.78881 
L 193.108971 65.12769 
L 193.120109 62.46657 
L 193.139475 59.80545 
L 193.171293 57.14433 
L 193.222811 54.48321 
L 193.305781 51.82209 
L 193.4378 49.16097 
L 193.64344 46.49985 
L 193.944689 44.016392 
L 195.202425 43.39521 
L 195.766001 43.207021 
L 195.803519 43.39521 
L 196.211047 46.49985 
L 196.430815 49.16097 
L 196.570809 51.82209 
L 196.658334 54.48321 
L 196.712517 57.14433 
L 196.745911 59.80545 
L 196.766164 62.46657 
L 196.777708 65.12769 
L 196.783266 67.78881 
L 196.784919 70.44993 
L 196.784583 73.11105 
L 196.783951 75.77217 
L 196.784154 78.43329 
L 196.785486 81.09441 
L 196.787421 83.75553 
L 196.789008 86.41665 
L 196.789362 89.52129 
L 196.788216 92.18241 
L 196.786366 94.84353 
L 196.784817 97.50465 
L 196.784411 100.16577 
L 196.785369 102.82689 
L 196.787171 105.48801 
L 196.78884 108.14913 
L 196.789473 110.81025 
L 196.788725 113.47137 
L 196.787003 116.13249 
L 196.785239 118.79361 
L 196.784391 121.45473 
L 196.784917 124.11585 
L 196.786533 126.77697 
L 196.788362 129.43809 
L 196.789414 132.09921 
L 196.788937 135.20385 
L 196.787321 137.86497 
L 196.785492 140.52609 
L 196.78444 143.18721 
L 196.784736 145.84833 
L 196.78622 148.50945 
L 196.788087 151.17057 
L 196.789325 153.83169 
L 196.789263 156.49281 
L 196.787935 159.15393 
L 196.78606 161.81505 
L 196.784656 164.47617 
L 196.784482 167.13729 
L 196.785634 169.79841 
L 196.787487 172.45953 
L 196.789036 175.12065 
L 196.789372 178.22529 
L 196.78822 180.88641 
L 196.786367 183.54753 
L 196.784818 186.20865 
L 196.784412 188.86977 
L 196.785369 191.53089 
L 196.787171 194.19201 
L 196.78884 196.85313 
L 196.789473 199.51425 
L 196.788725 202.17537 
L 196.787003 204.83649 
L 196.785239 207.49761 
L 196.78439 210.15873 
L 196.784916 212.81985 
L 196.786531 215.48097 
L 196.788358 218.14209 
L 196.789403 220.80321 
L 196.788907 223.90785 
L 196.787252 226.56897 
L 196.785334 229.23009 
L 196.784092 231.89121 
L 196.783988 234.55233 
L 196.784655 237.21345 
L 196.784899 239.87457 
L 196.782998 242.53569 
L 196.777032 245.19681 
L 196.764904 247.85793 
L 196.743817 250.51905 
L 196.709173 253.18017 
L 196.653081 255.84129 
L 196.562757 258.50241 
L 196.419068 261.16353 
L 196.195325 263.82465 
L 195.785511 266.92929 
L 195.766001 267.027451 
L 195.325822 266.92929 
L 193.944689 266.458151 
L 193.628274 263.82465 
z
" clip-path="url(#pc5a0f61359)" style="fill: none; stroke: #0b559f; stroke-width: 1.5"/>
    <path d="M 211.514866 263.82465 
L 211.302857 261.16353 
L 211.167783 258.50241 
L 211.083326 255.84129 
L 211.031039 253.18017 
L 210.998811 250.51905 
L 210.979264 247.85793 
L 210.968123 245.19681 
L 210.962759 242.53569 
L 210.961163 239.87457 
L 210.961488 237.21345 
L 210.962098 234.55233 
L 210.961902 231.89121 
L 210.960617 229.23009 
L 210.958749 226.56897 
L 210.957217 223.90785 
L 210.956876 220.80321 
L 210.957982 218.14209 
L 210.959767 215.48097 
L 210.961262 212.81985 
L 210.961653 210.15873 
L 210.96073 207.49761 
L 210.958991 204.83649 
L 210.957379 202.17537 
L 210.956769 199.51425 
L 210.95749 196.85313 
L 210.959152 194.19201 
L 210.960854 191.53089 
L 210.961674 188.86977 
L 210.961166 186.20865 
L 210.959607 183.54753 
L 210.957841 180.88641 
L 210.956826 178.22529 
L 210.957286 175.12065 
L 210.958845 172.45953 
L 210.960611 169.79841 
L 210.961626 167.13729 
L 210.96134 164.47617 
L 210.959908 161.81505 
L 210.958106 159.15393 
L 210.956911 156.49281 
L 210.956971 153.83169 
L 210.958253 151.17057 
L 210.960062 148.50945 
L 210.961418 145.84833 
L 210.961585 143.18721 
L 210.960474 140.52609 
L 210.958686 137.86497 
L 210.95719 135.20385 
L 210.956866 132.09921 
L 210.957978 129.43809 
L 210.959766 126.77697 
L 210.961261 124.11585 
L 210.961653 121.45473 
L 210.96073 118.79361 
L 210.958991 116.13249 
L 210.957379 113.47137 
L 210.956769 110.81025 
L 210.95749 108.14913 
L 210.959152 105.48801 
L 210.960854 102.82689 
L 210.961674 100.16577 
L 210.961167 97.50465 
L 210.959608 94.84353 
L 210.957845 92.18241 
L 210.956836 89.52129 
L 210.957315 86.41665 
L 210.958912 83.75553 
L 210.960763 81.09441 
L 210.961962 78.43329 
L 210.962062 75.77217 
L 210.961418 73.11105 
L 210.961183 70.44993 
L 210.963018 67.78881 
L 210.968775 65.12769 
L 210.980479 62.46657 
L 211.00083 59.80545 
L 211.034265 57.14433 
L 211.088403 54.48321 
L 211.175587 51.82209 
L 211.314295 49.16097 
L 211.530316 46.49985 
L 211.907825 43.538028 
L 213.693425 43.395837 
L 214.086384 46.49985 
L 214.298393 49.16097 
L 214.433467 51.82209 
L 214.517924 54.48321 
L 214.570211 57.14433 
L 214.602439 59.80545 
L 214.621986 62.46657 
L 214.633127 65.12769 
L 214.638491 67.78881 
L 214.640087 70.44993 
L 214.639762 73.11105 
L 214.639152 75.77217 
L 214.639348 78.43329 
L 214.640633 81.09441 
L 214.642501 83.75553 
L 214.644033 86.41665 
L 214.644374 89.52129 
L 214.643268 92.18241 
L 214.641483 94.84353 
L 214.639988 97.50465 
L 214.639597 100.16577 
L 214.64052 102.82689 
L 214.642259 105.48801 
L 214.643871 108.14913 
L 214.644481 110.81025 
L 214.64376 113.47137 
L 214.642098 116.13249 
L 214.640396 118.79361 
L 214.639576 121.45473 
L 214.640084 124.11585 
L 214.641643 126.77697 
L 214.643409 129.43809 
L 214.644424 132.09921 
L 214.643964 135.20385 
L 214.642405 137.86497 
L 214.640639 140.52609 
L 214.639624 143.18721 
L 214.63991 145.84833 
L 214.641342 148.50945 
L 214.643144 151.17057 
L 214.644339 153.83169 
L 214.644279 156.49281 
L 214.642997 159.15393 
L 214.641188 161.81505 
L 214.639832 164.47617 
L 214.639665 167.13729 
L 214.640776 169.79841 
L 214.642564 172.45953 
L 214.64406 175.12065 
L 214.644384 178.22529 
L 214.643272 180.88641 
L 214.641484 183.54753 
L 214.639989 186.20865 
L 214.639597 188.86977 
L 214.64052 191.53089 
L 214.642259 194.19201 
L 214.643871 196.85313 
L 214.644481 199.51425 
L 214.64376 202.17537 
L 214.642098 204.83649 
L 214.640396 207.49761 
L 214.639576 210.15873 
L 214.640083 212.81985 
L 214.641642 215.48097 
L 214.643405 218.14209 
L 214.644414 220.80321 
L 214.643935 223.90785 
L 214.642338 226.56897 
L 214.640487 229.23009 
L 214.639288 231.89121 
L 214.639188 234.55233 
L 214.639832 237.21345 
L 214.640067 239.87457 
L 214.638232 242.53569 
L 214.632475 245.19681 
L 214.620771 247.85793 
L 214.60042 250.51905 
L 214.566985 253.18017 
L 214.512847 255.84129 
L 214.425663 258.50241 
L 214.286955 261.16353 
L 214.070934 263.82465 
L 213.693425 266.786472 
L 211.907825 266.928663 
L 211.514866 263.82465 
z
" clip-path="url(#pc5a0f61359)" style="fill: none; stroke: #0b559f; stroke-width: 1.5"/>
    <path d="M 229.797731 266.92929 
L 229.390203 263.82465 
L 229.170435 261.16353 
L 229.030441 258.50241 
L 228.942916 255.84129 
L 228.888733 253.18017 
L 228.855339 250.51905 
L 228.835086 247.85793 
L 228.823542 245.19681 
L 228.817984 242.53569 
L 228.816331 239.87457 
L 228.816667 237.21345 
L 228.817299 234.55233 
L 228.817096 231.89121 
L 228.815764 229.23009 
L 228.813829 226.56897 
L 228.812242 223.90785 
L 228.811888 220.80321 
L 228.813034 218.14209 
L 228.814884 215.48097 
L 228.816433 212.81985 
L 228.816839 210.15873 
L 228.815881 207.49761 
L 228.814079 204.83649 
L 228.81241 202.17537 
L 228.811777 199.51425 
L 228.812525 196.85313 
L 228.814247 194.19201 
L 228.816011 191.53089 
L 228.816859 188.86977 
L 228.816333 186.20865 
L 228.814717 183.54753 
L 228.812888 180.88641 
L 228.811836 178.22529 
L 228.812313 175.12065 
L 228.813929 172.45953 
L 228.815758 169.79841 
L 228.81681 167.13729 
L 228.816514 164.47617 
L 228.81503 161.81505 
L 228.813163 159.15393 
L 228.811925 156.49281 
L 228.811987 153.83169 
L 228.813315 151.17057 
L 228.81519 148.50945 
L 228.816594 145.84833 
L 228.816768 143.18721 
L 228.815616 140.52609 
L 228.813763 137.86497 
L 228.812214 135.20385 
L 228.811878 132.09921 
L 228.81303 129.43809 
L 228.814883 126.77697 
L 228.816432 124.11585 
L 228.816838 121.45473 
L 228.815881 118.79361 
L 228.814079 116.13249 
L 228.81241 113.47137 
L 228.811777 110.81025 
L 228.812525 108.14913 
L 228.814247 105.48801 
L 228.816011 102.82689 
L 228.81686 100.16577 
L 228.816334 97.50465 
L 228.814719 94.84353 
L 228.812892 92.18241 
L 228.811847 89.52129 
L 228.812343 86.41665 
L 228.813998 83.75553 
L 228.815916 81.09441 
L 228.817158 78.43329 
L 228.817262 75.77217 
L 228.816595 73.11105 
L 228.816351 70.44993 
L 228.818252 67.78881 
L 228.824218 65.12769 
L 228.836346 62.46657 
L 228.857433 59.80545 
L 228.892077 57.14433 
L 228.948169 54.48321 
L 229.038493 51.82209 
L 229.182182 49.16097 
L 229.405925 46.49985 
L 229.815739 43.39521 
L 229.835249 43.297049 
L 230.275428 43.39521 
L 231.656561 43.866349 
L 231.972976 46.49985 
L 232.174543 49.16097 
L 232.302992 51.82209 
L 232.383319 54.48321 
L 232.433054 57.14433 
L 232.463711 59.80545 
L 232.482305 62.46657 
L 232.492904 65.12769 
L 232.498007 67.78881 
L 232.499525 70.44993 
L 232.499216 73.11105 
L 232.498636 75.77217 
L 232.498823 78.43329 
L 232.500045 81.09441 
L 232.501822 83.75553 
L 232.503279 86.41665 
L 232.503604 89.52129 
L 232.502552 92.18241 
L 232.500853 94.84353 
L 232.499432 97.50465 
L 232.499059 100.16577 
L 232.499938 102.82689 
L 232.501592 105.48801 
L 232.503125 108.14913 
L 232.503706 110.81025 
L 232.503019 113.47137 
L 232.501438 116.13249 
L 232.499819 118.79361 
L 232.49904 121.45473 
L 232.499523 124.11585 
L 232.501006 126.77697 
L 232.502686 129.43809 
L 232.503651 132.09921 
L 232.503214 135.20385 
L 232.501731 137.86497 
L 232.500051 140.52609 
L 232.499085 143.18721 
L 232.499357 145.84833 
L 232.500719 148.50945 
L 232.502433 151.17057 
L 232.50357 153.83169 
L 232.503513 156.49281 
L 232.502294 159.15393 
L 232.500573 161.81505 
L 232.499283 164.47617 
L 232.499123 167.13729 
L 232.500181 169.79841 
L 232.501882 172.45953 
L 232.503305 175.12065 
L 232.503613 178.22529 
L 232.502556 180.88641 
L 232.500855 183.54753 
L 232.499432 186.20865 
L 232.499059 188.86977 
L 232.499938 191.53089 
L 232.501592 194.19201 
L 232.503125 196.85313 
L 232.503706 199.51425 
L 232.503019 202.17537 
L 232.501438 204.83649 
L 232.499819 207.49761 
L 232.499039 210.15873 
L 232.499522 212.81985 
L 232.501004 215.48097 
L 232.502682 218.14209 
L 232.503641 220.80321 
L 232.503186 223.90785 
L 232.501667 226.56897 
L 232.499906 229.23009 
L 232.498765 231.89121 
L 232.49867 234.55233 
L 232.499282 237.21345 
L 232.499504 239.87457 
L 232.497758 242.53569 
L 232.492279 245.19681 
L 232.481141 247.85793 
L 232.461775 250.51905 
L 232.429957 253.18017 
L 232.378439 255.84129 
L 232.295469 258.50241 
L 232.16345 261.16353 
L 231.95781 263.82465 
L 231.656561 266.308108 
L 230.398825 266.92929 
L 229.835249 267.117479 
L 229.797731 266.92929 
z
" clip-path="url(#pc5a0f61359)" style="fill: none; stroke: #0b559f; stroke-width: 1.5"/>
    <path d="M 247.530741 263.82465 
L 247.215044 261.16353 
L 247.011231 258.50241 
L 246.880495 255.84129 
L 246.796731 253.18017 
L 246.743049 250.51905 
L 246.708993 247.85793 
L 246.688229 245.19681 
L 246.676674 242.53569 
L 246.671244 239.87457 
L 246.669269 237.21345 
L 246.6685 234.55233 
L 246.667419 231.89121 
L 246.665505 229.23009 
L 246.663169 226.56897 
L 246.661331 223.90785 
L 246.660863 220.80321 
L 246.662037 218.14209 
L 246.663976 215.48097 
L 246.665606 212.81985 
L 246.66603 210.15873 
L 246.665014 207.49761 
L 246.663105 204.83649 
L 246.661337 202.17537 
L 246.660668 199.51425 
L 246.66146 196.85313 
L 246.663283 194.19201 
L 246.66515 191.53089 
L 246.666049 188.86977 
L 246.665491 186.20865 
L 246.66378 183.54753 
L 246.661843 180.88641 
L 246.66073 178.22529 
L 246.661235 175.12065 
L 246.662946 172.45953 
L 246.664883 169.79841 
L 246.665996 167.13729 
L 246.665682 164.47617 
L 246.664111 161.81505 
L 246.662134 159.15393 
L 246.660824 156.49281 
L 246.66089 153.83169 
L 246.662297 151.17057 
L 246.664281 148.50945 
L 246.665768 145.84833 
L 246.665952 143.18721 
L 246.664732 140.52609 
L 246.66277 137.86497 
L 246.66113 135.20385 
L 246.660775 132.09921 
L 246.661995 129.43809 
L 246.663956 126.77697 
L 246.665596 124.11585 
L 246.666026 121.45473 
L 246.665012 118.79361 
L 246.663104 116.13249 
L 246.661337 113.47137 
L 246.660668 110.81025 
L 246.66146 108.14913 
L 246.663283 105.48801 
L 246.66515 102.82689 
L 246.666049 100.16577 
L 246.665492 97.50465 
L 246.663782 94.84353 
L 246.661848 92.18241 
L 246.660742 89.52129 
L 246.661267 86.41665 
L 246.66302 83.75553 
L 246.66505 81.09441 
L 246.666365 78.43329 
L 246.666474 75.77217 
L 246.665768 73.11105 
L 246.665511 70.44993 
L 246.667524 67.78881 
L 246.673842 65.12769 
L 246.686683 62.46657 
L 246.709011 59.80545 
L 246.745691 57.14433 
L 246.805074 54.48321 
L 246.900687 51.82209 
L 247.052761 49.16097 
L 247.289499 46.49985 
L 247.722934 43.39521 
L 247.798385 43.036335 
L 248.51624 43.39521 
L 249.583985 44.212786 
L 249.849798 46.49985 
L 250.045015 49.16097 
L 250.169434 51.82209 
L 250.247249 54.48321 
L 250.29543 57.14433 
L 250.32513 59.80545 
L 250.343145 62.46657 
L 250.353414 65.12769 
L 250.358357 67.78881 
L 250.359828 70.44993 
L 250.359529 73.11105 
L 250.358966 75.77217 
L 250.359147 78.43329 
L 250.360331 81.09441 
L 250.362053 83.75553 
L 250.363465 86.41665 
L 250.36378 89.52129 
L 250.36276 92.18241 
L 250.361114 94.84353 
L 250.359737 97.50465 
L 250.359376 100.16577 
L 250.360228 102.82689 
L 250.361831 105.48801 
L 250.363316 108.14913 
L 250.363878 110.81025 
L 250.363213 113.47137 
L 250.361681 116.13249 
L 250.360113 118.79361 
L 250.359357 121.45473 
L 250.359825 124.11585 
L 250.361263 126.77697 
L 250.36289 129.43809 
L 250.363826 132.09921 
L 250.363402 135.20385 
L 250.361965 137.86497 
L 250.360337 140.52609 
L 250.359401 143.18721 
L 250.359665 145.84833 
L 250.360985 148.50945 
L 250.362646 151.17057 
L 250.363747 153.83169 
L 250.363692 156.49281 
L 250.36251 159.15393 
L 250.360843 161.81505 
L 250.359593 164.47617 
L 250.359439 167.13729 
L 250.360463 169.79841 
L 250.362112 172.45953 
L 250.36349 175.12065 
L 250.363789 178.22529 
L 250.362764 180.88641 
L 250.361116 183.54753 
L 250.359738 186.20865 
L 250.359376 188.86977 
L 250.360228 191.53089 
L 250.36183 194.19201 
L 250.363316 196.85313 
L 250.363878 199.51425 
L 250.363212 202.17537 
L 250.361679 204.83649 
L 250.360106 207.49761 
L 250.359343 210.15873 
L 250.359794 212.81985 
L 250.361197 215.48097 
L 250.362752 218.14209 
L 250.363545 220.80321 
L 250.36278 223.90785 
L 250.360768 226.56897 
L 250.35809 229.23009 
L 250.355283 231.89121 
L 250.352295 234.55233 
L 250.348103 237.21345 
L 250.340653 239.87457 
L 250.32708 242.53569 
L 250.303994 245.19681 
L 250.267588 247.85793 
L 250.213425 250.51905 
L 250.135942 253.18017 
L 250.027939 255.84129 
L 249.880339 258.50241 
L 249.682364 261.16353 
L 249.583985 262.14479 
L 248.714414 263.82465 
L 247.798385 265.273791 
L 247.530741 263.82465 
z
" clip-path="url(#pc5a0f61359)" style="fill: none; stroke: #0b559f; stroke-width: 1.5"/>
   </g>
   <g id="PathCollection_8"/>
   <g id="patch_3">
    <path d="M 34.240625 288.21825 
L 34.240625 22.10625 
" style="fill: none; stroke: #000000; stroke-width: 0.8; stroke-linejoin: miter; stroke-linecap: square"/>
   </g>
   <g id="patch_4">
    <path d="M 391.360625 288.21825 
L 391.360625 22.10625 
" style="fill: none; stroke: #000000; stroke-width: 0.8; stroke-linejoin: miter; stroke-linecap: square"/>
   </g>
   <g id="patch_5">
    <path d="M 34.240625 288.21825 
L 391.360625 288.21825 
" style="fill: none; stroke: #000000; stroke-width: 0.8; stroke-linejoin: miter; stroke-linecap: square"/>
   </g>
   <g id="patch_6">
    <path d="M 34.240625 22.10625 
L 391.360625 22.10625 
" style="fill: none; stroke: #000000; stroke-width: 0.8; stroke-linejoin: miter; stroke-linecap: square"/>
   </g>
   <g id="text_16">
    <!-- 6.5_cross_-43.0 -->
    <g transform="translate(166.181563 16.10625)scale(0.12 -0.12)">
     <defs>
      <path id="DejaVuSans-2e" d="M 684 794 
L 1344 794 
L 1344 0 
L 684 0 
L 684 794 
z
" transform="scale(0.015625)"/>
      <path id="DejaVuSans-5f" d="M 3263 -1063 
L 3263 -1509 
L -63 -1509 
L -63 -1063 
L 3263 -1063 
z
" transform="scale(0.015625)"/>
      <path id="DejaVuSans-63" d="M 3122 3366 
L 3122 2828 
Q 2878 2963 2633 3030 
Q 2388 3097 2138 3097 
Q 1578 3097 1268 2742 
Q 959 2388 959 1747 
Q 959 1106 1268 751 
Q 1578 397 2138 397 
Q 2388 397 2633 464 
Q 2878 531 3122 666 
L 3122 134 
Q 2881 22 2623 -34 
Q 2366 -91 2075 -91 
Q 1284 -91 818 406 
Q 353 903 353 1747 
Q 353 2603 823 3093 
Q 1294 3584 2113 3584 
Q 2378 3584 2631 3529 
Q 2884 3475 3122 3366 
z
" transform="scale(0.015625)"/>
      <path id="DejaVuSans-72" d="M 2631 2963 
Q 2534 3019 2420 3045 
Q 2306 3072 2169 3072 
Q 1681 3072 1420 2755 
Q 1159 2438 1159 1844 
L 1159 0 
L 581 0 
L 581 3500 
L 1159 3500 
L 1159 2956 
Q 1341 3275 1631 3429 
Q 1922 3584 2338 3584 
Q 2397 3584 2469 3576 
Q 2541 3569 2628 3553 
L 2631 2963 
z
" transform="scale(0.015625)"/>
      <path id="DejaVuSans-73" d="M 2834 3397 
L 2834 2853 
Q 2591 2978 2328 3040 
Q 2066 3103 1784 3103 
Q 1356 3103 1142 2972 
Q 928 2841 928 2578 
Q 928 2378 1081 2264 
Q 1234 2150 1697 2047 
L 1894 2003 
Q 2506 1872 2764 1633 
Q 3022 1394 3022 966 
Q 3022 478 2636 193 
Q 2250 -91 1575 -91 
Q 1294 -91 989 -36 
Q 684 19 347 128 
L 347 722 
Q 666 556 975 473 
Q 1284 391 1588 391 
Q 1994 391 2212 530 
Q 2431 669 2431 922 
Q 2431 1156 2273 1281 
Q 2116 1406 1581 1522 
L 1381 1569 
Q 847 1681 609 1914 
Q 372 2147 372 2553 
Q 372 3047 722 3315 
Q 1072 3584 1716 3584 
Q 2034 3584 2315 3537 
Q 2597 3491 2834 3397 
z
" transform="scale(0.015625)"/>
      <path id="DejaVuSans-2d" d="M 313 2009 
L 1997 2009 
L 1997 1497 
L 313 1497 
L 313 2009 
z
" transform="scale(0.015625)"/>
     </defs>
     <use xlink:href="#DejaVuSans-36"/>
     <use xlink:href="#DejaVuSans-2e" x="63.623047"/>
     <use xlink:href="#DejaVuSans-35" x="95.410156"/>
     <use xlink:href="#DejaVuSans-5f" x="159.033203"/>
     <use xlink:href="#DejaVuSans-63" x="209.033203"/>
     <use xlink:href="#DejaVuSans-72" x="264.013672"/>
     <use xlink:href="#DejaVuSans-6f" x="302.876953"/>
     <use xlink:href="#DejaVuSans-73" x="364.058594"/>
     <use xlink:href="#DejaVuSans-73" x="416.158203"/>
     <use xlink:href="#DejaVuSans-5f" x="468.257812"/>
     <use xlink:href="#DejaVuSans-2d" x="518.257812"/>
     <use xlink:href="#DejaVuSans-34" x="554.341797"/>
     <use xlink:href="#DejaVuSans-33" x="617.964844"/>
     <use xlink:href="#DejaVuSans-2e" x="681.587891"/>
     <use xlink:href="#DejaVuSans-30" x="713.375"/>
    </g>
   </g>
  </g>
 </g>
 <defs>
  <clipPath id="pc5a0f61359">
   <rect x="34.240625" y="22.10625" width="357.12" height="266.112"/>
  </clipPath>
 </defs>
</svg>
