<?xml version="1.0" encoding="utf-8" standalone="no"?>
<!DOCTYPE svg PUBLIC "-//W3C//DTD SVG 1.1//EN"
  "http://www.w3.org/Graphics/SVG/1.1/DTD/svg11.dtd">
<svg xmlns:xlink="http://www.w3.org/1999/xlink" width="408.104375pt" height="325.7745pt" viewBox="0 0 408.104375 325.7745" xmlns="http://www.w3.org/2000/svg" version="1.1">
 <metadata>
  <rdf:RDF xmlns:dc="http://purl.org/dc/elements/1.1/" xmlns:cc="http://creativecommons.org/ns#" xmlns:rdf="http://www.w3.org/1999/02/22-rdf-syntax-ns#">
   <cc:Work>
    <dc:type rdf:resource="http://purl.org/dc/dcmitype/StillImage"/>
    <dc:date>2024-07-12T12:31:54.290862</dc:date>
    <dc:format>image/svg+xml</dc:format>
    <dc:creator>
     <cc:Agent>
      <dc:title>Matplotlib v3.5.3, https://matplotlib.org/</dc:title>
     </cc:Agent>
    </dc:creator>
   </cc:Work>
  </rdf:RDF>
 </metadata>
 <defs>
  <style type="text/css">*{stroke-linejoin: round; stroke-linecap: butt}</style>
 </defs>
 <g id="figure_1">
  <g id="patch_1">
   <path d="M 0 325.7745 
L 408.104375 325.7745 
L 408.104375 0 
L 0 0 
z
" style="fill: #ffffff"/>
  </g>
  <g id="axes_1">
   <g id="patch_2">
    <path d="M 34.240625 288.21825 
L 391.360625 288.21825 
L 391.360625 22.10625 
L 34.240625 22.10625 
z
" style="fill: #ffffff"/>
   </g>
   <g id="matplotlib.axis_1">
    <g id="xtick_1">
     <g id="line2d_1">
      <defs>
       <path id="m3da3230d76" d="M 0 0 
L 0 3.5 
" style="stroke: #000000; stroke-width: 0.8"/>
      </defs>
      <g>
       <use xlink:href="#m3da3230d76" x="34.240625" y="288.21825" style="stroke: #000000; stroke-width: 0.8"/>
      </g>
     </g>
     <g id="text_1">
      <!-- 0 -->
      <g transform="translate(31.059375 302.816687)scale(0.1 -0.1)">
       <defs>
        <path id="DejaVuSans-30" d="M 2034 4250 
Q 1547 4250 1301 3770 
Q 1056 3291 1056 2328 
Q 1056 1369 1301 889 
Q 1547 409 2034 409 
Q 2525 409 2770 889 
Q 3016 1369 3016 2328 
Q 3016 3291 2770 3770 
Q 2525 4250 2034 4250 
z
M 2034 4750 
Q 2819 4750 3233 4129 
Q 3647 3509 3647 2328 
Q 3647 1150 3233 529 
Q 2819 -91 2034 -91 
Q 1250 -91 836 529 
Q 422 1150 422 2328 
Q 422 3509 836 4129 
Q 1250 4750 2034 4750 
z
" transform="scale(0.015625)"/>
       </defs>
       <use xlink:href="#DejaVuSans-30"/>
      </g>
     </g>
    </g>
    <g id="xtick_2">
     <g id="line2d_2">
      <g>
       <use xlink:href="#m3da3230d76" x="105.664625" y="288.21825" style="stroke: #000000; stroke-width: 0.8"/>
      </g>
     </g>
     <g id="text_2">
      <!-- 20 -->
      <g transform="translate(99.302125 302.816687)scale(0.1 -0.1)">
       <defs>
        <path id="DejaVuSans-32" d="M 1228 531 
L 3431 531 
L 3431 0 
L 469 0 
L 469 531 
Q 828 903 1448 1529 
Q 2069 2156 2228 2338 
Q 2531 2678 2651 2914 
Q 2772 3150 2772 3378 
Q 2772 3750 2511 3984 
Q 2250 4219 1831 4219 
Q 1534 4219 1204 4116 
Q 875 4013 500 3803 
L 500 4441 
Q 881 4594 1212 4672 
Q 1544 4750 1819 4750 
Q 2544 4750 2975 4387 
Q 3406 4025 3406 3419 
Q 3406 3131 3298 2873 
Q 3191 2616 2906 2266 
Q 2828 2175 2409 1742 
Q 1991 1309 1228 531 
z
" transform="scale(0.015625)"/>
       </defs>
       <use xlink:href="#DejaVuSans-32"/>
       <use xlink:href="#DejaVuSans-30" x="63.623047"/>
      </g>
     </g>
    </g>
    <g id="xtick_3">
     <g id="line2d_3">
      <g>
       <use xlink:href="#m3da3230d76" x="177.088625" y="288.21825" style="stroke: #000000; stroke-width: 0.8"/>
      </g>
     </g>
     <g id="text_3">
      <!-- 40 -->
      <g transform="translate(170.726125 302.816687)scale(0.1 -0.1)">
       <defs>
        <path id="DejaVuSans-34" d="M 2419 4116 
L 825 1625 
L 2419 1625 
L 2419 4116 
z
M 2253 4666 
L 3047 4666 
L 3047 1625 
L 3713 1625 
L 3713 1100 
L 3047 1100 
L 3047 0 
L 2419 0 
L 2419 1100 
L 313 1100 
L 313 1709 
L 2253 4666 
z
" transform="scale(0.015625)"/>
       </defs>
       <use xlink:href="#DejaVuSans-34"/>
       <use xlink:href="#DejaVuSans-30" x="63.623047"/>
      </g>
     </g>
    </g>
    <g id="xtick_4">
     <g id="line2d_4">
      <g>
       <use xlink:href="#m3da3230d76" x="248.512625" y="288.21825" style="stroke: #000000; stroke-width: 0.8"/>
      </g>
     </g>
     <g id="text_4">
      <!-- 60 -->
      <g transform="translate(242.150125 302.816687)scale(0.1 -0.1)">
       <defs>
        <path id="DejaVuSans-36" d="M 2113 2584 
Q 1688 2584 1439 2293 
Q 1191 2003 1191 1497 
Q 1191 994 1439 701 
Q 1688 409 2113 409 
Q 2538 409 2786 701 
Q 3034 994 3034 1497 
Q 3034 2003 2786 2293 
Q 2538 2584 2113 2584 
z
M 3366 4563 
L 3366 3988 
Q 3128 4100 2886 4159 
Q 2644 4219 2406 4219 
Q 1781 4219 1451 3797 
Q 1122 3375 1075 2522 
Q 1259 2794 1537 2939 
Q 1816 3084 2150 3084 
Q 2853 3084 3261 2657 
Q 3669 2231 3669 1497 
Q 3669 778 3244 343 
Q 2819 -91 2113 -91 
Q 1303 -91 875 529 
Q 447 1150 447 2328 
Q 447 3434 972 4092 
Q 1497 4750 2381 4750 
Q 2619 4750 2861 4703 
Q 3103 4656 3366 4563 
z
" transform="scale(0.015625)"/>
       </defs>
       <use xlink:href="#DejaVuSans-36"/>
       <use xlink:href="#DejaVuSans-30" x="63.623047"/>
      </g>
     </g>
    </g>
    <g id="xtick_5">
     <g id="line2d_5">
      <g>
       <use xlink:href="#m3da3230d76" x="319.936625" y="288.21825" style="stroke: #000000; stroke-width: 0.8"/>
      </g>
     </g>
     <g id="text_5">
      <!-- 80 -->
      <g transform="translate(313.574125 302.816687)scale(0.1 -0.1)">
       <defs>
        <path id="DejaVuSans-38" d="M 2034 2216 
Q 1584 2216 1326 1975 
Q 1069 1734 1069 1313 
Q 1069 891 1326 650 
Q 1584 409 2034 409 
Q 2484 409 2743 651 
Q 3003 894 3003 1313 
Q 3003 1734 2745 1975 
Q 2488 2216 2034 2216 
z
M 1403 2484 
Q 997 2584 770 2862 
Q 544 3141 544 3541 
Q 544 4100 942 4425 
Q 1341 4750 2034 4750 
Q 2731 4750 3128 4425 
Q 3525 4100 3525 3541 
Q 3525 3141 3298 2862 
Q 3072 2584 2669 2484 
Q 3125 2378 3379 2068 
Q 3634 1759 3634 1313 
Q 3634 634 3220 271 
Q 2806 -91 2034 -91 
Q 1263 -91 848 271 
Q 434 634 434 1313 
Q 434 1759 690 2068 
Q 947 2378 1403 2484 
z
M 1172 3481 
Q 1172 3119 1398 2916 
Q 1625 2713 2034 2713 
Q 2441 2713 2670 2916 
Q 2900 3119 2900 3481 
Q 2900 3844 2670 4047 
Q 2441 4250 2034 4250 
Q 1625 4250 1398 4047 
Q 1172 3844 1172 3481 
z
" transform="scale(0.015625)"/>
       </defs>
       <use xlink:href="#DejaVuSans-38"/>
       <use xlink:href="#DejaVuSans-30" x="63.623047"/>
      </g>
     </g>
    </g>
    <g id="xtick_6">
     <g id="line2d_6">
      <g>
       <use xlink:href="#m3da3230d76" x="391.360625" y="288.21825" style="stroke: #000000; stroke-width: 0.8"/>
      </g>
     </g>
     <g id="text_6">
      <!-- 100 -->
      <g transform="translate(381.816875 302.816687)scale(0.1 -0.1)">
       <defs>
        <path id="DejaVuSans-31" d="M 794 531 
L 1825 531 
L 1825 4091 
L 703 3866 
L 703 4441 
L 1819 4666 
L 2450 4666 
L 2450 531 
L 3481 531 
L 3481 0 
L 794 0 
L 794 531 
z
" transform="scale(0.015625)"/>
       </defs>
       <use xlink:href="#DejaVuSans-31"/>
       <use xlink:href="#DejaVuSans-30" x="63.623047"/>
       <use xlink:href="#DejaVuSans-30" x="127.246094"/>
      </g>
     </g>
    </g>
    <g id="text_7">
     <!-- axialRotation -->
     <g transform="translate(180.024844 316.494812)scale(0.1 -0.1)">
      <defs>
       <path id="DejaVuSans-61" d="M 2194 1759 
Q 1497 1759 1228 1600 
Q 959 1441 959 1056 
Q 959 750 1161 570 
Q 1363 391 1709 391 
Q 2188 391 2477 730 
Q 2766 1069 2766 1631 
L 2766 1759 
L 2194 1759 
z
M 3341 1997 
L 3341 0 
L 2766 0 
L 2766 531 
Q 2569 213 2275 61 
Q 1981 -91 1556 -91 
Q 1019 -91 701 211 
Q 384 513 384 1019 
Q 384 1609 779 1909 
Q 1175 2209 1959 2209 
L 2766 2209 
L 2766 2266 
Q 2766 2663 2505 2880 
Q 2244 3097 1772 3097 
Q 1472 3097 1187 3025 
Q 903 2953 641 2809 
L 641 3341 
Q 956 3463 1253 3523 
Q 1550 3584 1831 3584 
Q 2591 3584 2966 3190 
Q 3341 2797 3341 1997 
z
" transform="scale(0.015625)"/>
       <path id="DejaVuSans-78" d="M 3513 3500 
L 2247 1797 
L 3578 0 
L 2900 0 
L 1881 1375 
L 863 0 
L 184 0 
L 1544 1831 
L 300 3500 
L 978 3500 
L 1906 2253 
L 2834 3500 
L 3513 3500 
z
" transform="scale(0.015625)"/>
       <path id="DejaVuSans-69" d="M 603 3500 
L 1178 3500 
L 1178 0 
L 603 0 
L 603 3500 
z
M 603 4863 
L 1178 4863 
L 1178 4134 
L 603 4134 
L 603 4863 
z
" transform="scale(0.015625)"/>
       <path id="DejaVuSans-6c" d="M 603 4863 
L 1178 4863 
L 1178 0 
L 603 0 
L 603 4863 
z
" transform="scale(0.015625)"/>
       <path id="DejaVuSans-52" d="M 2841 2188 
Q 3044 2119 3236 1894 
Q 3428 1669 3622 1275 
L 4263 0 
L 3584 0 
L 2988 1197 
Q 2756 1666 2539 1819 
Q 2322 1972 1947 1972 
L 1259 1972 
L 1259 0 
L 628 0 
L 628 4666 
L 2053 4666 
Q 2853 4666 3247 4331 
Q 3641 3997 3641 3322 
Q 3641 2881 3436 2590 
Q 3231 2300 2841 2188 
z
M 1259 4147 
L 1259 2491 
L 2053 2491 
Q 2509 2491 2742 2702 
Q 2975 2913 2975 3322 
Q 2975 3731 2742 3939 
Q 2509 4147 2053 4147 
L 1259 4147 
z
" transform="scale(0.015625)"/>
       <path id="DejaVuSans-6f" d="M 1959 3097 
Q 1497 3097 1228 2736 
Q 959 2375 959 1747 
Q 959 1119 1226 758 
Q 1494 397 1959 397 
Q 2419 397 2687 759 
Q 2956 1122 2956 1747 
Q 2956 2369 2687 2733 
Q 2419 3097 1959 3097 
z
M 1959 3584 
Q 2709 3584 3137 3096 
Q 3566 2609 3566 1747 
Q 3566 888 3137 398 
Q 2709 -91 1959 -91 
Q 1206 -91 779 398 
Q 353 888 353 1747 
Q 353 2609 779 3096 
Q 1206 3584 1959 3584 
z
" transform="scale(0.015625)"/>
       <path id="DejaVuSans-74" d="M 1172 4494 
L 1172 3500 
L 2356 3500 
L 2356 3053 
L 1172 3053 
L 1172 1153 
Q 1172 725 1289 603 
Q 1406 481 1766 481 
L 2356 481 
L 2356 0 
L 1766 0 
Q 1100 0 847 248 
Q 594 497 594 1153 
L 594 3053 
L 172 3053 
L 172 3500 
L 594 3500 
L 594 4494 
L 1172 4494 
z
" transform="scale(0.015625)"/>
       <path id="DejaVuSans-6e" d="M 3513 2113 
L 3513 0 
L 2938 0 
L 2938 2094 
Q 2938 2591 2744 2837 
Q 2550 3084 2163 3084 
Q 1697 3084 1428 2787 
Q 1159 2491 1159 1978 
L 1159 0 
L 581 0 
L 581 3500 
L 1159 3500 
L 1159 2956 
Q 1366 3272 1645 3428 
Q 1925 3584 2291 3584 
Q 2894 3584 3203 3211 
Q 3513 2838 3513 2113 
z
" transform="scale(0.015625)"/>
      </defs>
      <use xlink:href="#DejaVuSans-61"/>
      <use xlink:href="#DejaVuSans-78" x="61.279297"/>
      <use xlink:href="#DejaVuSans-69" x="120.458984"/>
      <use xlink:href="#DejaVuSans-61" x="148.242188"/>
      <use xlink:href="#DejaVuSans-6c" x="209.521484"/>
      <use xlink:href="#DejaVuSans-52" x="237.304688"/>
      <use xlink:href="#DejaVuSans-6f" x="302.287109"/>
      <use xlink:href="#DejaVuSans-74" x="363.46875"/>
      <use xlink:href="#DejaVuSans-61" x="402.677734"/>
      <use xlink:href="#DejaVuSans-74" x="463.957031"/>
      <use xlink:href="#DejaVuSans-69" x="503.166016"/>
      <use xlink:href="#DejaVuSans-6f" x="530.949219"/>
      <use xlink:href="#DejaVuSans-6e" x="592.130859"/>
     </g>
    </g>
   </g>
   <g id="matplotlib.axis_2">
    <g id="ytick_1">
     <g id="line2d_7">
      <defs>
       <path id="m762653859e" d="M 0 0 
L -3.5 0 
" style="stroke: #000000; stroke-width: 0.8"/>
      </defs>
      <g>
       <use xlink:href="#m762653859e" x="34.240625" y="288.21825" style="stroke: #000000; stroke-width: 0.8"/>
      </g>
     </g>
     <g id="text_8">
      <!-- 0 -->
      <g transform="translate(20.878125 292.017469)scale(0.1 -0.1)">
       <use xlink:href="#DejaVuSans-30"/>
      </g>
     </g>
    </g>
    <g id="ytick_2">
     <g id="line2d_8">
      <g>
       <use xlink:href="#m762653859e" x="34.240625" y="243.86625" style="stroke: #000000; stroke-width: 0.8"/>
      </g>
     </g>
     <g id="text_9">
      <!-- 1 -->
      <g transform="translate(20.878125 247.665469)scale(0.1 -0.1)">
       <use xlink:href="#DejaVuSans-31"/>
      </g>
     </g>
    </g>
    <g id="ytick_3">
     <g id="line2d_9">
      <g>
       <use xlink:href="#m762653859e" x="34.240625" y="199.51425" style="stroke: #000000; stroke-width: 0.8"/>
      </g>
     </g>
     <g id="text_10">
      <!-- 2 -->
      <g transform="translate(20.878125 203.313469)scale(0.1 -0.1)">
       <use xlink:href="#DejaVuSans-32"/>
      </g>
     </g>
    </g>
    <g id="ytick_4">
     <g id="line2d_10">
      <g>
       <use xlink:href="#m762653859e" x="34.240625" y="155.16225" style="stroke: #000000; stroke-width: 0.8"/>
      </g>
     </g>
     <g id="text_11">
      <!-- 3 -->
      <g transform="translate(20.878125 158.961469)scale(0.1 -0.1)">
       <defs>
        <path id="DejaVuSans-33" d="M 2597 2516 
Q 3050 2419 3304 2112 
Q 3559 1806 3559 1356 
Q 3559 666 3084 287 
Q 2609 -91 1734 -91 
Q 1441 -91 1130 -33 
Q 819 25 488 141 
L 488 750 
Q 750 597 1062 519 
Q 1375 441 1716 441 
Q 2309 441 2620 675 
Q 2931 909 2931 1356 
Q 2931 1769 2642 2001 
Q 2353 2234 1838 2234 
L 1294 2234 
L 1294 2753 
L 1863 2753 
Q 2328 2753 2575 2939 
Q 2822 3125 2822 3475 
Q 2822 3834 2567 4026 
Q 2313 4219 1838 4219 
Q 1578 4219 1281 4162 
Q 984 4106 628 3988 
L 628 4550 
Q 988 4650 1302 4700 
Q 1616 4750 1894 4750 
Q 2613 4750 3031 4423 
Q 3450 4097 3450 3541 
Q 3450 3153 3228 2886 
Q 3006 2619 2597 2516 
z
" transform="scale(0.015625)"/>
       </defs>
       <use xlink:href="#DejaVuSans-33"/>
      </g>
     </g>
    </g>
    <g id="ytick_5">
     <g id="line2d_11">
      <g>
       <use xlink:href="#m762653859e" x="34.240625" y="110.81025" style="stroke: #000000; stroke-width: 0.8"/>
      </g>
     </g>
     <g id="text_12">
      <!-- 4 -->
      <g transform="translate(20.878125 114.609469)scale(0.1 -0.1)">
       <use xlink:href="#DejaVuSans-34"/>
      </g>
     </g>
    </g>
    <g id="ytick_6">
     <g id="line2d_12">
      <g>
       <use xlink:href="#m762653859e" x="34.240625" y="66.45825" style="stroke: #000000; stroke-width: 0.8"/>
      </g>
     </g>
     <g id="text_13">
      <!-- 5 -->
      <g transform="translate(20.878125 70.257469)scale(0.1 -0.1)">
       <defs>
        <path id="DejaVuSans-35" d="M 691 4666 
L 3169 4666 
L 3169 4134 
L 1269 4134 
L 1269 2991 
Q 1406 3038 1543 3061 
Q 1681 3084 1819 3084 
Q 2600 3084 3056 2656 
Q 3513 2228 3513 1497 
Q 3513 744 3044 326 
Q 2575 -91 1722 -91 
Q 1428 -91 1123 -41 
Q 819 9 494 109 
L 494 744 
Q 775 591 1075 516 
Q 1375 441 1709 441 
Q 2250 441 2565 725 
Q 2881 1009 2881 1497 
Q 2881 1984 2565 2268 
Q 2250 2553 1709 2553 
Q 1456 2553 1204 2497 
Q 953 2441 691 2322 
L 691 4666 
z
" transform="scale(0.015625)"/>
       </defs>
       <use xlink:href="#DejaVuSans-35"/>
      </g>
     </g>
    </g>
    <g id="ytick_7">
     <g id="line2d_13">
      <g>
       <use xlink:href="#m762653859e" x="34.240625" y="22.10625" style="stroke: #000000; stroke-width: 0.8"/>
      </g>
     </g>
     <g id="text_14">
      <!-- 6 -->
      <g transform="translate(20.878125 25.905469)scale(0.1 -0.1)">
       <use xlink:href="#DejaVuSans-36"/>
      </g>
     </g>
    </g>
    <g id="text_15">
     <!-- zShift -->
     <g transform="translate(14.798438 169.151312)rotate(-90)scale(0.1 -0.1)">
      <defs>
       <path id="DejaVuSans-7a" d="M 353 3500 
L 3084 3500 
L 3084 2975 
L 922 459 
L 3084 459 
L 3084 0 
L 275 0 
L 275 525 
L 2438 3041 
L 353 3041 
L 353 3500 
z
" transform="scale(0.015625)"/>
       <path id="DejaVuSans-53" d="M 3425 4513 
L 3425 3897 
Q 3066 4069 2747 4153 
Q 2428 4238 2131 4238 
Q 1616 4238 1336 4038 
Q 1056 3838 1056 3469 
Q 1056 3159 1242 3001 
Q 1428 2844 1947 2747 
L 2328 2669 
Q 3034 2534 3370 2195 
Q 3706 1856 3706 1288 
Q 3706 609 3251 259 
Q 2797 -91 1919 -91 
Q 1588 -91 1214 -16 
Q 841 59 441 206 
L 441 856 
Q 825 641 1194 531 
Q 1563 422 1919 422 
Q 2459 422 2753 634 
Q 3047 847 3047 1241 
Q 3047 1584 2836 1778 
Q 2625 1972 2144 2069 
L 1759 2144 
Q 1053 2284 737 2584 
Q 422 2884 422 3419 
Q 422 4038 858 4394 
Q 1294 4750 2059 4750 
Q 2388 4750 2728 4690 
Q 3069 4631 3425 4513 
z
" transform="scale(0.015625)"/>
       <path id="DejaVuSans-68" d="M 3513 2113 
L 3513 0 
L 2938 0 
L 2938 2094 
Q 2938 2591 2744 2837 
Q 2550 3084 2163 3084 
Q 1697 3084 1428 2787 
Q 1159 2491 1159 1978 
L 1159 0 
L 581 0 
L 581 4863 
L 1159 4863 
L 1159 2956 
Q 1366 3272 1645 3428 
Q 1925 3584 2291 3584 
Q 2894 3584 3203 3211 
Q 3513 2838 3513 2113 
z
" transform="scale(0.015625)"/>
       <path id="DejaVuSans-66" d="M 2375 4863 
L 2375 4384 
L 1825 4384 
Q 1516 4384 1395 4259 
Q 1275 4134 1275 3809 
L 1275 3500 
L 2222 3500 
L 2222 3053 
L 1275 3053 
L 1275 0 
L 697 0 
L 697 3053 
L 147 3053 
L 147 3500 
L 697 3500 
L 697 3744 
Q 697 4328 969 4595 
Q 1241 4863 1831 4863 
L 2375 4863 
z
" transform="scale(0.015625)"/>
      </defs>
      <use xlink:href="#DejaVuSans-7a"/>
      <use xlink:href="#DejaVuSans-53" x="52.490234"/>
      <use xlink:href="#DejaVuSans-68" x="115.966797"/>
      <use xlink:href="#DejaVuSans-69" x="179.345703"/>
      <use xlink:href="#DejaVuSans-66" x="207.128906"/>
      <use xlink:href="#DejaVuSans-74" x="240.583984"/>
     </g>
    </g>
   </g>
   <g id="PathCollection_1"/>
   <g id="PathCollection_2">
    <path d="M 34.240625 64.200579 
L 36.026225 63.795651 
L 37.847537 63.454663 
L 39.633137 63.179515 
L 41.418737 62.953474 
L 43.204337 62.768651 
L 45.025649 62.615678 
L 46.811249 62.494789 
L 47.325824 62.46657 
L 48.596849 62.382042 
L 50.382449 62.287035 
L 52.203761 62.210546 
L 53.989361 62.151754 
L 55.774961 62.105712 
L 57.560561 62.069563 
L 59.381873 62.04025 
L 61.167473 62.016568 
L 62.953073 61.99568 
L 64.738673 61.975381 
L 66.559985 61.952845 
L 68.345585 61.926256 
L 70.131185 61.892051 
L 71.916785 61.846393 
L 73.738097 61.783088 
L 75.523697 61.69859 
L 77.309297 61.584461 
L 79.094897 61.431606 
L 80.916209 61.224261 
L 82.701809 60.956864 
L 84.487409 60.609741 
L 86.273009 60.163749 
L 87.402548 59.80545 
L 88.094321 59.523258 
L 89.879921 58.611153 
L 91.665521 57.475765 
L 92.093475 57.14433 
L 93.451121 55.759739 
L 94.493129 54.48321 
L 95.272433 53.226098 
L 96.018647 51.82209 
L 97.058033 49.353848 
L 97.129786 49.16097 
L 97.973838 46.49985 
L 98.843633 43.648237 
L 98.915319 43.39521 
L 99.702291 40.73409 
L 100.629233 38.074244 
L 100.62966 38.07297 
L 101.651499 35.41185 
L 102.450545 33.693771 
L 102.888036 32.75073 
L 104.236145 30.270107 
L 104.335804 30.08961 
L 105.98607 27.42849 
L 106.021745 27.375427 
L 107.807345 24.795318 
L 107.827233 24.76737 
L 109.628657 22.346107 
L 109.812472 22.10625 
" clip-path="url(#p81eae55d4a)" style="fill: none; stroke: #deebf7; stroke-width: 1.5"/>
    <path d="M 100.747605 288.21825 
L 100.629233 287.786691 
L 99.988129 285.55713 
L 99.431964 282.89601 
L 99.052306 280.23489 
L 98.843633 277.833575 
L 98.818596 277.57377 
L 98.707123 274.91265 
L 98.737324 272.25153 
L 98.843633 270.612166 
L 98.903394 269.59041 
L 99.195046 266.92929 
L 99.736368 263.82465 
L 100.40686 261.16353 
L 100.629233 260.468822 
L 101.237279 258.50241 
L 102.29262 255.84129 
L 102.450545 255.500492 
L 103.520656 253.18017 
L 104.236145 251.842146 
L 104.947439 250.51905 
L 106.021745 248.691701 
L 106.513761 247.85793 
L 107.807345 245.736127 
L 108.132877 245.19681 
L 109.628657 242.665383 
L 109.70292 242.53569 
L 111.092964 239.87457 
L 111.414257 239.180212 
L 112.258181 237.21345 
L 113.199857 234.603328 
L 113.216602 234.55233 
L 113.889743 231.89121 
L 114.387942 229.23009 
L 114.726375 226.56897 
L 114.922873 223.90785 
L 114.985457 221.062872 
L 114.990449 220.80321 
L 114.985457 220.597105 
L 114.917758 218.14209 
L 114.717266 215.48097 
L 114.375667 212.81985 
L 113.874109 210.15873 
L 113.199857 207.519908 
L 113.193465 207.49761 
L 112.198131 204.83649 
L 111.414257 203.127699 
L 110.929416 202.17537 
L 109.628657 200.033586 
L 109.277132 199.51425 
L 107.807345 197.653907 
L 107.095066 196.85313 
L 106.021745 195.805791 
L 104.236145 194.295247 
L 104.083431 194.19201 
L 102.450545 193.234993 
L 100.629233 192.45416 
L 98.843633 192.009988 
L 97.058033 191.911195 
L 95.272433 192.160982 
L 93.451121 192.750771 
L 91.665521 193.611173 
L 90.722271 194.19201 
L 89.879921 194.767654 
L 88.094321 196.174461 
L 87.311731 196.85313 
L 86.273009 197.821481 
L 84.52903 199.51425 
L 84.487409 199.55737 
L 82.701809 201.499612 
L 82.088575 202.17537 
L 80.916209 203.535574 
L 79.800487 204.83649 
L 79.094897 205.694308 
L 77.60875 207.49761 
L 77.309297 207.872768 
L 75.523697 210.091267 
L 75.469433 210.15873 
L 73.738097 212.34162 
L 73.349841 212.81985 
L 71.916785 214.59386 
L 71.176418 215.48097 
L 70.131185 216.742192 
L 68.9233 218.14209 
L 68.345585 218.82076 
L 66.582091 220.80321 
L 66.559985 220.828911 
L 64.738673 222.910295 
L 63.806934 223.90785 
L 62.953073 224.861803 
L 61.34424 226.56897 
L 61.167473 226.762933 
L 59.381873 228.657869 
L 58.809313 229.23009 
L 57.560561 230.507644 
L 56.078657 231.89121 
L 55.774961 232.180047 
L 53.989361 233.754322 
L 52.962546 234.55233 
L 52.203761 235.151844 
L 50.382449 236.413599 
L 49.004093 237.21345 
L 48.596849 237.457306 
L 46.811249 238.373404 
L 45.025649 239.098081 
L 43.204337 239.662662 
L 42.273152 239.87457 
L 41.418737 240.085621 
L 39.633137 240.377037 
L 37.847537 240.520066 
L 36.026225 240.518593 
L 34.240625 240.373354 
" clip-path="url(#p81eae55d4a)" style="fill: none; stroke: #deebf7; stroke-width: 1.5"/>
    <path d="M 324.918531 22.10625 
L 325.71809 24.76737 
L 326.321347 27.42849 
L 327.14428 32.75073 
L 327.607437 38.07297 
L 327.834056 43.39521 
L 327.970827 54.48321 
L 328.117303 86.41665 
L 328.373995 92.18241 
L 328.601162 94.84353 
L 328.959308 97.50465 
L 329.44947 100.16577 
L 330.328817 103.59336 
L 330.968871 105.48801 
L 332.150129 108.375761 
L 333.935729 111.780509 
L 335.721329 114.699846 
L 338.524073 118.79361 
L 344.685041 127.036936 
L 351.863153 136.685711 
L 354.425703 140.52609 
L 356.017245 143.18721 
L 357.429498 145.84833 
L 359.041265 149.412695 
L 359.760036 151.17057 
L 360.862577 154.654156 
L 361.388422 156.49281 
L 361.984572 159.15393 
L 362.793387 164.47617 
L 363.281879 169.79841 
L 363.527771 175.12065 
L 363.668017 183.54753 
L 363.659907 199.51425 
L 363.507008 207.49761 
L 363.235197 212.81985 
L 362.648177 218.42895 
L 362.306559 220.80321 
L 361.691421 223.90785 
L 360.862577 226.909607 
L 360.123735 229.23009 
L 359.040615 231.89121 
L 357.255665 235.576931 
L 355.470065 238.743321 
L 350.077553 247.980042 
L 348.291953 252.08939 
L 347.88956 253.18017 
L 346.506353 257.80377 
L 345.722022 261.16353 
L 344.366968 266.92929 
L 343.651451 269.59041 
L 342.779229 272.25153 
L 341.113841 276.358827 
L 340.558246 277.57377 
L 339.119722 280.23489 
L 337.468594 282.89601 
L 333.935729 287.842226 
L 333.647929 288.21825 
L 333.647929 288.21825 
" clip-path="url(#p81eae55d4a)" style="fill: none; stroke: #deebf7; stroke-width: 1.5"/>
   </g>
   <g id="PathCollection_3">
    <path d="M 34.240625 72.008624 
L 36.026225 71.423243 
L 37.847537 70.930914 
L 39.633137 70.533965 
L 40.082793 70.44993 
L 41.418737 70.183919 
L 43.204337 69.890348 
L 45.025649 69.646793 
L 46.811249 69.453816 
L 48.596849 69.298606 
L 50.382449 69.17472 
L 52.203761 69.074904 
L 53.989361 68.998262 
L 55.774961 68.938548 
L 57.560561 68.892291 
L 59.381873 68.855884 
L 61.167473 68.828143 
L 62.953073 68.806007 
L 64.738673 68.787451 
L 66.559985 68.77024 
L 68.345585 68.753136 
L 70.131185 68.733808 
L 71.916785 68.710052 
L 73.738097 68.678598 
L 75.523697 68.637562 
L 77.309297 68.582683 
L 79.094897 68.509428 
L 80.916209 68.410061 
L 82.701809 68.2817 
L 84.487409 68.114643 
L 86.273009 67.89934 
L 86.99399 67.78881 
L 88.094321 67.592936 
L 89.879921 67.191491 
L 91.665521 66.68771 
L 93.451121 66.060379 
L 95.272433 65.267438 
L 95.539322 65.12769 
L 97.058033 64.155744 
L 98.843633 62.766494 
L 99.170685 62.46657 
L 100.629233 60.774609 
L 101.344419 59.80545 
L 102.450545 57.87922 
L 102.823147 57.14433 
L 103.894179 54.48321 
L 104.236145 53.45574 
L 104.737473 51.82209 
L 105.476747 49.16097 
L 106.021745 47.198703 
L 106.207718 46.49985 
L 107.117033 43.39521 
L 107.807345 41.414194 
L 108.042639 40.73409 
L 109.12942 38.07297 
L 109.628657 37.038504 
L 110.428339 35.41185 
L 111.414257 33.677957 
L 111.956741 32.75073 
L 113.199857 30.839334 
L 113.703008 30.08961 
L 114.985457 28.30342 
L 115.631896 27.42849 
L 116.806769 25.895996 
L 117.693458 24.76737 
L 118.592369 23.639114 
L 119.842559 22.10625 
" clip-path="url(#p81eae55d4a)" style="fill: none; stroke: #c6dbef; stroke-width: 1.5"/>
    <path d="M 108.913523 288.21825 
L 107.969021 285.55713 
L 107.807345 284.942921 
L 107.262518 282.89601 
L 106.779971 280.23489 
L 106.496037 277.57377 
L 106.38986 274.91265 
L 106.452799 272.25153 
L 106.687274 269.59041 
L 107.1059 266.92929 
L 107.807345 264.01885 
L 107.853794 263.82465 
L 108.701959 261.16353 
L 109.628657 258.900714 
L 109.793372 258.50241 
L 111.090356 255.84129 
L 111.414257 255.253541 
L 112.573548 253.18017 
L 113.199857 252.137225 
L 114.177226 250.51905 
L 114.985457 249.198543 
L 115.796637 247.85793 
L 116.806769 246.116166 
L 117.323299 245.19681 
L 118.592369 242.703703 
L 118.673775 242.53569 
L 119.774425 239.87457 
L 120.377969 238.1041 
L 120.660836 237.21345 
L 121.320447 234.55233 
L 121.812209 231.89121 
L 122.158645 229.23009 
L 122.163569 229.171675 
L 122.366126 226.56897 
L 122.477265 223.90785 
L 122.501122 220.80321 
L 122.434459 218.14209 
L 122.28131 215.48097 
L 122.163569 214.246692 
L 122.017387 212.81985 
L 121.616901 210.15873 
L 121.067684 207.49761 
L 120.377969 204.942518 
L 120.347366 204.83649 
L 119.378545 202.17537 
L 118.592369 200.386957 
L 118.185264 199.51425 
L 116.806769 196.985571 
L 116.730269 196.85313 
L 114.985457 194.195667 
L 114.982917 194.19201 
L 113.199857 191.887175 
L 112.908058 191.53089 
L 111.414257 189.869637 
L 110.454955 188.86977 
L 109.628657 188.079086 
L 107.807345 186.481717 
L 107.457011 186.20865 
L 106.021745 185.186596 
L 104.236145 184.090221 
L 103.152517 183.54753 
L 102.450545 183.22848 
L 100.629233 182.618606 
L 98.843633 182.243899 
L 97.058033 182.103531 
L 95.272433 182.206011 
L 93.451121 182.562996 
L 91.665521 183.15548 
L 90.811363 183.54753 
L 89.879921 184.022975 
L 88.094321 185.150479 
L 86.653796 186.20865 
L 86.273009 186.510521 
L 84.487409 188.077198 
L 83.642162 188.86977 
L 82.701809 189.79367 
L 80.989382 191.53089 
L 80.916209 191.607994 
L 79.094897 193.585137 
L 78.542334 194.19201 
L 77.309297 195.590292 
L 76.200379 196.85313 
L 75.523697 197.650481 
L 73.944852 199.51425 
L 73.738097 199.766471 
L 71.916785 201.995156 
L 71.769923 202.17537 
L 70.131185 204.228955 
L 69.641221 204.83649 
L 68.345585 206.458399 
L 67.498214 207.49761 
L 66.559985 208.648074 
L 65.289828 210.15873 
L 64.738673 210.811096 
L 62.973661 212.81985 
L 62.953073 212.843291 
L 61.167473 214.823776 
L 60.545987 215.48097 
L 59.381873 216.726118 
L 57.987261 218.14209 
L 57.560561 218.584263 
L 55.774961 220.351683 
L 55.293772 220.80321 
L 53.989361 222.06611 
L 52.203761 223.654433 
L 51.897248 223.90785 
L 50.382449 225.18826 
L 48.596849 226.521698 
L 48.525828 226.56897 
L 46.811249 227.718038 
L 45.025649 228.712571 
L 43.875077 229.23009 
L 43.204337 229.533097 
L 41.418737 230.145936 
L 39.633137 230.556874 
L 37.847537 230.769598 
L 36.026225 230.782202 
L 34.240625 230.589678 
" clip-path="url(#p81eae55d4a)" style="fill: none; stroke: #c6dbef; stroke-width: 1.5"/>
    <path d="M 316.787989 22.10625 
L 317.793905 24.824012 
L 318.561649 27.42849 
L 319.144563 30.08961 
L 319.903294 35.41185 
L 320.302657 40.73409 
L 320.495315 46.49985 
L 320.584211 57.14433 
L 320.710027 86.41665 
L 320.931083 92.18241 
L 321.394565 97.50465 
L 321.80315 100.16577 
L 322.350516 102.82689 
L 323.150705 105.767857 
L 323.992487 108.14913 
L 325.12118 110.81025 
L 326.757617 113.94046 
L 328.543217 116.878275 
L 331.67868 121.45473 
L 337.656086 129.43809 
L 343.980728 137.86497 
L 346.506353 141.514712 
L 348.291953 144.337304 
L 350.077553 147.51947 
L 350.599033 148.50945 
L 351.863153 151.315137 
L 352.847372 153.83169 
L 353.684465 156.521381 
L 354.371068 159.15393 
L 354.903084 161.81505 
L 355.610223 167.13729 
L 356.004115 172.45953 
L 356.200937 178.22529 
L 356.289526 188.86977 
L 356.203497 202.17537 
L 356.030756 207.49761 
L 355.65772 212.81985 
L 354.96439 218.14209 
L 354.433043 220.80321 
L 353.597032 223.90785 
L 352.698393 226.56897 
L 351.576397 229.23009 
L 350.077553 232.205392 
L 347.138502 237.21345 
L 343.960451 242.53569 
L 342.580859 245.19681 
L 341.113841 248.653678 
L 340.454032 250.51905 
L 339.328241 254.410062 
L 337.506929 262.238353 
L 337.134502 263.82465 
L 335.721329 268.58508 
L 335.384277 269.59041 
L 333.935729 273.034328 
L 332.150129 276.45308 
L 330.328817 279.375556 
L 328.543217 281.923007 
L 325.763486 285.55713 
L 323.614097 288.21825 
L 323.614097 288.21825 
" clip-path="url(#p81eae55d4a)" style="fill: none; stroke: #c6dbef; stroke-width: 1.5"/>
   </g>
   <g id="PathCollection_4">
    <path d="M 34.240625 78.442422 
L 34.25833 78.43329 
L 36.026225 77.587078 
L 37.847537 76.868384 
L 39.633137 76.289142 
L 41.418737 75.813458 
L 41.603432 75.77217 
L 43.204337 75.417142 
L 45.025649 75.087448 
L 46.811249 74.825967 
L 48.596849 74.615403 
L 50.382449 74.447104 
L 52.203761 74.311317 
L 53.989361 74.206949 
L 55.774961 74.125635 
L 57.560561 74.062796 
L 59.381873 74.013703 
L 61.167473 73.976932 
L 62.953073 73.948588 
L 64.738673 73.926265 
L 66.559985 73.907508 
L 68.345585 73.891101 
L 70.131185 73.874806 
L 71.916785 73.856759 
L 73.738097 73.834469 
L 75.523697 73.80651 
L 77.309297 73.769846 
L 79.094897 73.721339 
L 80.916209 73.655757 
L 82.701809 73.571081 
L 84.487409 73.460788 
L 86.273009 73.318451 
L 88.094321 73.132368 
L 88.260474 73.11105 
L 89.879921 72.886397 
L 91.665521 72.57533 
L 93.451121 72.187245 
L 95.272433 71.695758 
L 97.058033 71.101315 
L 98.660984 70.44993 
L 98.843633 70.364831 
L 100.629233 69.378038 
L 102.450545 68.151658 
L 102.91064 67.78881 
L 104.236145 66.526712 
L 105.487547 65.12769 
L 106.021745 64.382724 
L 107.232325 62.46657 
L 107.807345 61.311072 
L 108.488358 59.80545 
L 109.450653 57.14433 
L 109.628657 56.558803 
L 110.227306 54.48321 
L 110.926362 51.82209 
L 111.414257 49.967855 
L 111.62317 49.16097 
L 112.375686 46.49985 
L 113.199857 44.038732 
L 113.419418 43.39521 
L 114.503565 40.73409 
L 114.985457 39.73256 
L 115.808997 38.07297 
L 116.806769 36.332274 
L 117.353026 35.41185 
L 118.592369 33.530944 
L 119.123519 32.75073 
L 120.377969 31.028954 
L 121.080879 30.08961 
L 122.163569 28.697141 
L 123.171018 27.42849 
L 123.984881 26.424616 
L 125.356393 24.76737 
L 125.770481 24.274583 
L 127.556081 22.205964 
L 127.644318 22.10625 
" clip-path="url(#p81eae55d4a)" style="fill: none; stroke: #9dcae1; stroke-width: 1.5"/>
    <path d="M 115.499089 288.21825 
L 114.985457 287.150629 
L 114.260992 285.55713 
L 113.376291 282.89601 
L 113.199857 282.120103 
L 112.77758 280.23489 
L 112.429812 277.57377 
L 112.309067 274.91265 
L 112.403302 272.25153 
L 112.71287 269.59041 
L 113.199857 267.164358 
L 113.247395 266.92929 
L 114.159858 263.82465 
L 114.985457 261.724522 
L 115.211432 261.16353 
L 116.495871 258.50241 
L 116.806769 257.935807 
L 117.979244 255.84129 
L 118.592369 254.820703 
L 119.585903 253.18017 
L 120.377969 251.885752 
L 121.206531 250.51905 
L 122.163569 248.863425 
L 122.729192 247.85793 
L 123.984881 245.381024 
L 124.074577 245.19681 
L 125.187411 242.53569 
L 125.770481 240.837972 
L 126.085196 239.87457 
L 126.771972 237.21345 
L 127.290094 234.55233 
L 127.556081 232.67007 
L 127.661413 231.89121 
L 127.908926 229.23009 
L 128.0628 226.56897 
L 128.139276 223.90785 
L 128.143108 220.80321 
L 128.074855 218.14209 
L 127.933558 215.48097 
L 127.705224 212.81985 
L 127.556081 211.632921 
L 127.364462 210.15873 
L 126.887201 207.49761 
L 126.255446 204.83649 
L 125.770481 203.236161 
L 125.436553 202.17537 
L 124.406922 199.51425 
L 123.984881 198.600232 
L 123.14685 196.85313 
L 122.163569 195.078435 
L 121.653308 194.19201 
L 120.377969 192.216591 
L 119.918521 191.53089 
L 118.592369 189.722997 
L 117.942416 188.86977 
L 116.806769 187.483352 
L 115.717346 186.20865 
L 114.985457 185.403265 
L 113.208788 183.54753 
L 113.199857 183.538714 
L 111.414257 181.89235 
L 110.232591 180.88641 
L 109.628657 180.403024 
L 107.807345 179.093669 
L 106.432476 178.22529 
L 106.021745 177.983566 
L 104.236145 177.094575 
L 102.450545 176.376288 
L 100.629233 175.823973 
L 98.843633 175.464744 
L 97.058033 175.291731 
L 95.272433 175.310381 
L 93.451121 175.531616 
L 91.665521 175.950078 
L 89.879921 176.569714 
L 88.094321 177.390287 
L 86.629151 178.22529 
L 86.273009 178.447347 
L 84.487409 179.73881 
L 83.081127 180.88641 
L 82.701809 181.215431 
L 80.916209 182.887983 
L 80.252684 183.54753 
L 79.094897 184.73552 
L 77.703924 186.20865 
L 77.309297 186.635182 
L 75.523697 188.597393 
L 75.279111 188.86977 
L 73.738097 190.610601 
L 72.927412 191.53089 
L 71.916785 192.700384 
L 70.632211 194.19201 
L 70.131185 194.78812 
L 68.398318 196.85313 
L 68.345585 196.917501 
L 66.559985 199.098208 
L 66.217574 199.51425 
L 64.738673 201.332956 
L 64.042919 202.17537 
L 62.953073 203.495694 
L 61.815249 204.83649 
L 61.167473 205.593239 
L 59.47159 207.49761 
L 59.381873 207.597263 
L 57.560561 209.538607 
L 56.946125 210.15873 
L 55.774961 211.335513 
L 54.201718 212.81985 
L 53.989361 213.021584 
L 52.203761 214.614881 
L 51.152669 215.48097 
L 50.382449 216.126726 
L 48.596849 217.489276 
L 47.63834 218.14209 
L 46.811249 218.715676 
L 45.025649 219.78096 
L 43.204337 220.673572 
L 42.854293 220.80321 
L 41.418737 221.336861 
L 39.633137 221.764501 
L 37.847537 221.939339 
L 36.026225 221.835427 
L 34.240625 221.430746 
" clip-path="url(#p81eae55d4a)" style="fill: none; stroke: #9dcae1; stroke-width: 1.5"/>
    <path d="M 310.240669 22.10625 
L 311.54216 24.76737 
L 312.520621 27.42849 
L 313.25627 30.08961 
L 313.795619 32.75073 
L 314.46889 38.07297 
L 314.798191 43.39521 
L 314.973183 51.82209 
L 315.316525 92.18241 
L 315.72871 97.50465 
L 316.074399 100.16577 
L 316.554372 102.82689 
L 317.184058 105.48801 
L 317.991158 108.14913 
L 319.579505 112.078717 
L 320.230333 113.47137 
L 321.663066 116.13249 
L 323.290176 118.79361 
L 326.983932 124.11585 
L 335.721329 135.698583 
L 339.328241 140.600911 
L 342.832522 145.84833 
L 344.685041 149.111936 
L 345.725262 151.17057 
L 346.867766 153.83169 
L 348.291953 158.169652 
L 348.573136 159.15393 
L 349.172763 161.81505 
L 349.627945 164.47617 
L 350.216194 169.79841 
L 350.518544 175.12065 
L 350.684231 183.54753 
L 350.675696 196.85313 
L 350.497006 204.83649 
L 350.077553 211.011115 
L 349.517645 215.48097 
L 349.009777 218.14209 
L 348.291953 220.93978 
L 347.316043 223.90785 
L 346.204885 226.56897 
L 344.685041 229.578127 
L 341.74196 234.55233 
L 338.561939 239.87457 
L 337.189018 242.53569 
L 335.721329 246.006392 
L 335.059233 247.85793 
L 333.935729 251.742265 
L 332.965694 255.84129 
L 331.742876 261.16353 
L 331.028837 263.82465 
L 330.012678 266.92929 
L 328.543217 270.421984 
L 326.757617 273.802211 
L 324.972017 276.632322 
L 323.150705 279.198449 
L 320.285846 282.89601 
L 317.793905 285.922173 
L 315.813098 288.21825 
L 315.813098 288.21825 
" clip-path="url(#p81eae55d4a)" style="fill: none; stroke: #9dcae1; stroke-width: 1.5"/>
   </g>
   <g id="PathCollection_5">
    <path d="M 34.240625 85.306517 
L 36.026225 83.884133 
L 36.214429 83.75553 
L 37.847537 82.792174 
L 39.633137 81.922802 
L 41.418737 81.209422 
L 41.762301 81.09441 
L 43.204337 80.651603 
L 45.025649 80.193809 
L 46.811249 79.830633 
L 48.596849 79.538012 
L 50.382449 79.303934 
L 52.203761 79.114886 
L 53.989361 78.969435 
L 55.774961 78.856033 
L 57.560561 78.768413 
L 59.381873 78.700115 
L 61.167473 78.649297 
L 62.953073 78.610711 
L 64.738673 78.581232 
L 66.559985 78.557806 
L 68.345585 78.539038 
L 70.131185 78.522393 
L 71.916785 78.505983 
L 73.738097 78.487556 
L 75.523697 78.46585 
L 77.309297 78.438371 
L 77.563862 78.43329 
L 79.094897 78.403009 
L 80.916209 78.355646 
L 82.701809 78.294645 
L 84.487409 78.215183 
L 86.273009 78.112503 
L 88.094321 77.978018 
L 89.879921 77.810268 
L 91.665521 77.59914 
L 93.451121 77.335507 
L 95.272433 77.001405 
L 97.058033 76.597131 
L 98.843633 76.101922 
L 99.834118 75.77217 
L 100.629233 75.488912 
L 102.450545 74.712959 
L 104.236145 73.787942 
L 105.337722 73.11105 
L 106.021745 72.633952 
L 107.807345 71.174019 
L 108.567986 70.44993 
L 109.628657 69.24311 
L 110.745014 67.78881 
L 111.414257 66.71092 
L 112.304091 65.12769 
L 113.199857 63.116518 
L 113.470626 62.46657 
L 114.377753 59.80545 
L 114.985457 57.669467 
L 115.131422 57.14433 
L 115.809378 54.48321 
L 116.481198 51.82209 
L 116.806769 50.629256 
L 117.215081 49.16097 
L 118.068651 46.49985 
L 118.592369 45.138706 
L 119.291186 43.39521 
L 120.377969 41.133695 
L 120.578322 40.73409 
L 122.11275 38.07297 
L 122.163569 37.994065 
L 123.88611 35.41185 
L 123.984881 35.27488 
L 125.770481 32.863308 
L 125.855827 32.75073 
L 127.556081 30.603198 
L 127.970201 30.08961 
L 129.341681 28.437628 
L 130.196233 27.42849 
L 131.162993 26.319895 
L 132.559043 24.76737 
L 132.948593 24.351621 
L 134.734193 22.533391 
L 135.177562 22.10625 
" clip-path="url(#p81eae55d4a)" style="fill: none; stroke: #6aaed6; stroke-width: 1.5"/>
    <path d="M 122.110966 288.21825 
L 120.377969 285.531342 
L 119.209652 282.89601 
L 118.425285 280.23489 
L 117.982805 277.57377 
L 117.830308 274.91265 
L 117.948558 272.25153 
L 118.592369 268.505181 
L 118.984955 266.92929 
L 120.377969 263.185563 
L 122.163569 259.605703 
L 124.364703 255.84129 
L 127.556081 250.429084 
L 129.341681 246.764658 
L 130.004902 245.19681 
L 131.162993 241.696079 
L 131.655613 239.87457 
L 132.207892 237.21345 
L 132.61511 234.55233 
L 133.097141 229.23009 
L 133.265813 223.90785 
L 133.188143 218.14209 
L 132.848154 212.81985 
L 132.545169 210.15873 
L 132.124648 207.49761 
L 131.162993 203.368035 
L 130.8344 202.17537 
L 129.341681 198.12003 
L 128.802906 196.85313 
L 127.468269 194.19201 
L 125.770481 191.308553 
L 123.984881 188.644331 
L 122.163569 186.189038 
L 118.592369 181.927491 
L 116.806769 180.018922 
L 114.984609 178.22529 
L 113.199857 176.641389 
L 111.297068 175.12065 
L 109.628657 173.951743 
L 107.097551 172.45953 
L 106.021745 171.909593 
L 104.236145 171.144325 
L 102.450545 170.529039 
L 99.224275 169.79841 
L 98.843633 169.730944 
L 97.058033 169.556597 
L 95.272433 169.525858 
L 92.42236 169.79841 
L 91.665521 169.915804 
L 89.879921 170.349622 
L 88.094321 170.950069 
L 86.273009 171.742608 
L 84.487409 172.712663 
L 82.701809 173.893043 
L 80.916209 175.265417 
L 77.704035 178.22529 
L 75.162102 180.88641 
L 70.131185 186.49631 
L 62.953073 194.785918 
L 57.560561 201.005283 
L 53.989361 204.665293 
L 52.203761 206.271356 
L 50.382449 207.762746 
L 48.596849 209.05104 
L 46.811249 210.180548 
L 45.025649 211.108302 
L 43.204337 211.839329 
L 41.418737 212.309971 
L 39.633137 212.489965 
L 37.847537 212.318817 
L 36.026225 211.703714 
L 34.240625 210.573743 
L 34.240625 210.573743 
" clip-path="url(#p81eae55d4a)" style="fill: none; stroke: #6aaed6; stroke-width: 1.5"/>
    <path d="M 303.682346 22.10625 
L 305.483523 24.76737 
L 307.008881 28.010982 
L 307.740536 30.08961 
L 308.432578 32.75073 
L 308.929886 35.41185 
L 309.51863 40.73409 
L 309.79787 46.49985 
L 309.923608 57.14433 
L 310.115748 89.52129 
L 310.371359 94.84353 
L 310.901774 100.16577 
L 311.324839 102.82689 
L 311.886778 105.48801 
L 312.612009 108.14913 
L 314.186993 112.43231 
L 314.624095 113.47137 
L 315.972593 116.199358 
L 317.793905 119.348383 
L 319.579505 122.103187 
L 323.150705 127.105659 
L 335.721329 143.988866 
L 337.506929 146.686649 
L 339.328241 149.750313 
L 340.104079 151.17057 
L 341.367763 153.83169 
L 342.899441 157.990073 
L 343.266116 159.15393 
L 343.931438 161.81505 
L 344.685041 166.158088 
L 345.10029 169.79841 
L 345.430276 175.12065 
L 345.608225 183.54753 
L 345.588109 196.85313 
L 345.358081 204.83649 
L 344.941586 210.15873 
L 344.595765 212.81985 
L 344.119613 215.48097 
L 343.486312 218.14209 
L 342.661657 220.80321 
L 341.113841 224.552728 
L 339.328241 227.978316 
L 336.986056 231.89121 
L 333.793028 237.21345 
L 332.150129 240.448183 
L 331.230062 242.53569 
L 330.24366 245.19681 
L 329.423542 247.85793 
L 328.108398 253.18017 
L 326.757617 259.044965 
L 326.196432 261.16353 
L 324.972017 264.859975 
L 324.15414 266.92929 
L 322.872735 269.59041 
L 321.342106 272.25153 
L 319.570635 274.91265 
L 315.972593 279.631803 
L 313.261181 282.89601 
L 310.615793 285.86009 
L 308.27907 288.21825 
L 308.27907 288.21825 
" clip-path="url(#p81eae55d4a)" style="fill: none; stroke: #6aaed6; stroke-width: 1.5"/>
   </g>
   <g id="PathCollection_6">
    <path d="M 34.240625 95.814236 
L 34.639446 94.84353 
L 36.026225 92.367498 
L 36.145256 92.18241 
L 37.847537 90.156644 
L 38.479594 89.52129 
L 39.633137 88.604546 
L 41.418737 87.423019 
L 43.204337 86.45778 
L 43.295573 86.41665 
L 45.025649 85.75998 
L 46.811249 85.210821 
L 48.596849 84.768226 
L 50.382449 84.413981 
L 52.203761 84.127649 
L 53.989361 83.907136 
L 55.560922 83.75553 
L 55.774961 83.736805 
L 57.560561 83.615121 
L 59.381873 83.520246 
L 61.167473 83.449796 
L 62.953073 83.396652 
L 64.738673 83.35667 
L 66.559985 83.325888 
L 68.345585 83.30261 
L 70.131185 83.283738 
L 71.916785 83.267174 
L 73.738097 83.250687 
L 75.523697 83.233064 
L 77.309297 83.212125 
L 79.094897 83.185868 
L 80.916209 83.151282 
L 82.701809 83.107102 
L 84.487409 83.049722 
L 86.273009 82.975612 
L 88.094321 82.878481 
L 89.879921 82.757195 
L 91.665521 82.604373 
L 93.451121 82.413355 
L 95.272433 82.171089 
L 97.058033 81.877789 
L 98.843633 81.518444 
L 100.573704 81.09441 
L 100.629233 81.080941 
L 102.450545 80.559559 
L 104.236145 79.938323 
L 106.021745 79.186343 
L 107.515373 78.43329 
L 107.807345 78.277212 
L 109.628657 77.152286 
L 111.414257 75.812881 
L 111.462749 75.77217 
L 113.199857 74.120059 
L 114.113796 73.11105 
L 114.985457 71.970712 
L 116.026627 70.44993 
L 116.806769 69.044467 
L 117.454462 67.78881 
L 118.546752 65.12769 
L 118.592369 64.99267 
L 119.426543 62.46657 
L 120.155715 59.80545 
L 120.377969 58.909786 
L 120.823451 57.14433 
L 121.484424 54.48321 
L 122.163569 51.92469 
L 122.192031 51.82209 
L 123.038278 49.16097 
L 123.984881 46.637452 
L 124.03942 46.49985 
L 125.509873 43.39521 
L 125.770481 42.925947 
L 127.045469 40.73409 
L 127.556081 39.950585 
L 128.824871 38.07297 
L 129.341681 37.367377 
L 130.810804 35.41185 
L 131.162993 34.967654 
L 132.948593 32.755675 
L 132.95267 32.75073 
L 134.734193 30.680712 
L 135.253307 30.08961 
L 136.519793 28.715754 
L 137.748584 27.42849 
L 138.341105 26.847059 
L 140.126705 25.195996 
L 140.623123 24.76737 
L 141.912305 23.757336 
L 143.697905 22.489553 
L 144.299231 22.10625 
" clip-path="url(#p81eae55d4a)" style="fill: none; stroke: #4191c6; stroke-width: 1.5"/>
    <path d="M 130.485978 288.21825 
L 129.341681 287.281446 
L 127.553731 285.55713 
L 125.725774 282.89601 
L 124.592622 280.23489 
L 123.935776 277.57377 
L 123.705551 274.91265 
L 123.826821 272.25153 
L 124.29152 269.59041 
L 125.081758 266.92929 
L 126.382612 263.82465 
L 127.769049 261.16353 
L 132.948593 252.203654 
L 133.802302 250.51905 
L 134.95386 247.85793 
L 135.90402 245.19681 
L 136.653368 242.53569 
L 137.244896 239.87457 
L 137.686812 237.21345 
L 138.230719 231.89121 
L 138.465135 226.56897 
L 138.479908 220.80321 
L 138.290037 215.48097 
L 137.835141 210.15873 
L 137.458978 207.49761 
L 136.519793 203.086127 
L 136.298177 202.17537 
L 135.487286 199.51425 
L 134.481824 196.85313 
L 132.948593 193.54688 
L 131.162993 190.326892 
L 129.341681 187.475708 
L 127.556081 184.953265 
L 124.366215 180.88641 
L 122.069003 178.22529 
L 118.592369 174.585283 
L 114.985457 171.381373 
L 111.414257 168.820911 
L 108.396364 167.13729 
L 107.807345 166.836542 
L 106.021745 166.050584 
L 104.236145 165.402743 
L 102.450545 164.882559 
L 98.843633 164.179149 
L 97.058033 164.001131 
L 95.272433 163.939597 
L 93.451121 163.997476 
L 91.665521 164.175658 
L 89.879921 164.47964 
L 88.094321 164.901074 
L 86.273009 165.474169 
L 84.487409 166.188987 
L 82.583643 167.13729 
L 80.916209 168.113591 
L 78.541453 169.79841 
L 77.309297 170.792128 
L 75.464311 172.45953 
L 71.916785 176.095826 
L 57.560561 191.951344 
L 53.989361 195.591458 
L 52.203761 197.236145 
L 49.230377 199.51425 
L 48.596849 199.94593 
L 46.811249 200.914417 
L 45.025649 201.618684 
L 43.204337 201.999219 
L 41.418737 201.954785 
L 39.633137 201.383744 
L 37.847537 200.138523 
L 37.284679 199.51425 
L 36.026225 197.756952 
L 35.558186 196.85313 
L 34.240625 193.411428 
L 34.240625 193.411428 
" clip-path="url(#p81eae55d4a)" style="fill: none; stroke: #4191c6; stroke-width: 1.5"/>
    <path d="M 295.425685 22.10625 
L 296.259569 22.748731 
L 298.439916 24.76737 
L 300.417471 27.42849 
L 301.792823 30.08961 
L 302.740843 32.75073 
L 303.437681 35.482458 
L 303.881556 38.07297 
L 304.407025 43.39521 
L 304.635944 49.16097 
L 304.732755 59.80545 
L 304.909823 89.52129 
L 305.223281 95.87472 
L 305.616556 100.16577 
L 305.994299 102.82689 
L 306.500484 105.48801 
L 307.155658 108.14913 
L 307.962751 110.81025 
L 308.964584 113.47137 
L 310.615793 117.034775 
L 312.401393 120.265201 
L 314.186993 123.105845 
L 316.724901 126.77697 
L 321.365105 133.003279 
L 329.021018 143.18721 
L 332.666151 148.50945 
L 334.262167 151.17057 
L 335.721329 153.973178 
L 336.818636 156.49281 
L 337.775987 159.15393 
L 338.521043 161.81505 
L 339.328241 165.83861 
L 339.840683 169.79841 
L 340.209447 175.12065 
L 340.404831 183.54753 
L 340.367825 196.85313 
L 340.213427 202.17537 
L 339.843343 207.49761 
L 339.328241 211.400094 
L 339.084165 212.81985 
L 338.476009 215.48097 
L 337.506929 218.638037 
L 336.665054 220.80321 
L 335.186252 223.90785 
L 333.698084 226.56897 
L 328.543217 235.185721 
L 326.757617 238.832749 
L 326.296626 239.87457 
L 324.972017 243.568697 
L 324.459746 245.19681 
L 323.128663 250.51905 
L 321.22425 258.50241 
L 320.398013 261.16353 
L 319.403671 263.82465 
L 317.793905 267.201933 
L 315.972593 270.263849 
L 314.186993 272.86034 
L 312.401393 275.223749 
L 308.794481 279.560894 
L 307.008881 281.532456 
L 305.223281 283.375193 
L 302.832095 285.55713 
L 299.830769 287.786811 
L 299.157601 288.21825 
L 299.157601 288.21825 
" clip-path="url(#p81eae55d4a)" style="fill: none; stroke: #4191c6; stroke-width: 1.5"/>
   </g>
   <g id="PathCollection_7">
    <path d="M 37.834236 159.15393 
L 37.781367 156.49281 
L 37.744563 153.83169 
L 37.720971 151.17057 
L 37.706621 148.50945 
L 37.697069 145.84833 
L 37.68865 143.18721 
L 37.679604 140.52609 
L 37.670398 137.86497 
L 37.663051 135.20385 
L 37.659777 132.09921 
L 37.662786 129.43809 
L 37.670812 126.77697 
L 37.683022 124.11585 
L 37.699952 121.45473 
L 37.725534 118.79361 
L 37.768669 116.13249 
L 37.844059 113.47137 
L 37.847537 113.399051 
L 37.985582 110.81025 
L 38.216771 108.14913 
L 38.577164 105.48801 
L 39.119252 102.82689 
L 39.633137 101.091244 
L 39.946669 100.16577 
L 41.224283 97.50465 
L 41.418737 97.208355 
L 43.204337 94.907849 
L 43.26413 94.84353 
L 45.025649 93.403697 
L 46.811249 92.223723 
L 46.887379 92.18241 
L 48.596849 91.444651 
L 50.382449 90.827049 
L 52.203761 90.327478 
L 53.989361 89.942358 
L 55.774961 89.641472 
L 56.693311 89.52129 
L 57.560561 89.427384 
L 59.381873 89.275997 
L 61.167473 89.163622 
L 62.953073 89.079092 
L 64.738673 89.015996 
L 66.559985 88.968286 
L 68.345585 88.933501 
L 70.131185 88.907092 
L 71.916785 88.886205 
L 73.738097 88.868104 
L 75.523697 88.851379 
L 77.309297 88.833741 
L 79.094897 88.813332 
L 80.916209 88.787673 
L 82.701809 88.755662 
L 84.487409 88.714523 
L 86.273009 88.661596 
L 88.094321 88.592271 
L 89.879921 88.505625 
L 91.665521 88.396283 
L 93.451121 88.259386 
L 95.272433 88.085485 
L 97.058033 87.874667 
L 98.843633 87.616101 
L 100.629233 87.300634 
L 102.450545 86.908972 
L 104.236145 86.443277 
L 104.324611 86.41665 
L 106.021745 85.945231 
L 107.807345 85.347191 
L 109.628657 84.609017 
L 111.371793 83.75553 
L 111.414257 83.734806 
L 113.199857 82.749483 
L 114.985457 81.55253 
L 115.584769 81.09441 
L 116.806769 80.093232 
L 118.518749 78.43329 
L 118.592369 78.352961 
L 120.377969 76.188996 
L 120.68733 75.77217 
L 122.163569 73.398457 
L 122.330188 73.11105 
L 123.608447 70.44993 
L 123.984881 69.468684 
L 124.621327 67.78881 
L 125.439513 65.12769 
L 125.770481 63.862943 
L 126.148186 62.46657 
L 126.806272 59.80545 
L 127.44794 57.14433 
L 127.556081 56.729132 
L 128.182481 54.48321 
L 129.020824 51.82209 
L 129.341681 50.957125 
L 130.058153 49.16097 
L 131.162993 46.789142 
L 131.306993 46.49985 
L 132.948593 43.66981 
L 133.11507 43.39521 
L 134.734193 41.032147 
L 134.945405 40.73409 
L 136.519793 38.688526 
L 137.003909 38.07297 
L 138.341105 36.479269 
L 139.252115 35.41185 
L 140.126705 34.449693 
L 141.706339 32.75073 
L 141.912305 32.545241 
L 143.697905 30.858614 
L 144.556065 30.08961 
L 145.519217 29.317941 
L 147.304817 28.004288 
L 148.168037 27.42849 
L 149.090417 26.896902 
L 150.876017 25.992918 
L 152.697329 25.193833 
L 153.836371 24.76737 
L 154.482929 24.56217 
L 156.268529 24.088671 
L 158.054129 23.698984 
L 159.875441 23.376636 
L 161.661041 23.123669 
L 163.446641 22.9233 
L 165.232241 22.766607 
L 167.053553 22.643523 
L 168.839153 22.551821 
L 170.624753 22.482836 
L 172.410353 22.431609 
L 174.231665 22.393425 
L 176.017265 22.36644 
L 177.802865 22.347178 
L 179.588465 22.33361 
L 181.409777 22.324022 
L 183.195377 22.317598 
L 184.980977 22.313246 
L 186.766577 22.310334 
L 188.587889 22.308378 
L 190.373489 22.307131 
L 192.159089 22.306328 
L 193.944689 22.30582 
L 195.766001 22.3055 
L 197.551601 22.305312 
L 199.337201 22.3052 
L 201.122801 22.305135 
L 202.944113 22.305095 
L 204.729713 22.305069 
L 206.515313 22.30505 
L 208.300913 22.305035 
L 210.122225 22.305025 
L 211.907825 22.30502 
L 213.693425 22.30502 
L 215.479025 22.305024 
L 217.300337 22.30503 
L 219.085937 22.305036 
L 220.871537 22.305038 
L 222.657137 22.305037 
L 224.478449 22.305032 
L 226.264049 22.305026 
L 228.049649 22.305021 
L 229.835249 22.30502 
L 231.656561 22.305024 
L 233.442161 22.305034 
L 235.227761 22.305049 
L 237.013361 22.30507 
L 238.834673 22.305099 
L 240.620273 22.305142 
L 242.405873 22.305213 
L 244.191473 22.305333 
L 246.012785 22.305542 
L 247.798385 22.305884 
L 249.583985 22.306437 
L 251.369585 22.307315 
L 253.190897 22.308722 
L 254.976497 22.310853 
L 256.762097 22.314094 
L 258.547697 22.318961 
L 260.369009 22.326357 
L 262.154609 22.337014 
L 263.940209 22.352424 
L 265.725809 22.374415 
L 267.547121 22.406125 
L 269.332721 22.449478 
L 271.118321 22.508972 
L 272.903921 22.589585 
L 274.725233 22.69994 
L 276.510833 22.843303 
L 278.296433 23.030499 
L 280.082033 23.2721 
L 281.903345 23.587376 
L 283.688945 23.978448 
L 285.474545 24.467107 
L 286.365797 24.76737 
L 287.260145 25.135846 
L 289.081457 26.0528 
L 290.867057 27.147736 
L 291.252114 27.42849 
L 292.652657 28.729979 
L 293.887472 30.08961 
L 294.438257 30.890622 
L 295.538861 32.75073 
L 296.259569 34.417437 
L 296.636866 35.41185 
L 297.357566 38.07297 
L 297.854138 40.73409 
L 298.045169 42.264847 
L 298.172114 43.39521 
L 298.388153 46.49985 
L 298.4958 49.16097 
L 298.558392 51.82209 
L 298.594585 54.48321 
L 298.617048 57.14433 
L 298.632862 59.80545 
L 298.644629 62.46657 
L 298.652336 65.12769 
L 298.655475 67.78881 
L 298.65469 70.44993 
L 298.652384 73.11105 
L 298.652208 75.77217 
L 298.65792 78.43329 
L 298.672411 81.09441 
L 298.697624 83.75553 
L 298.735587 86.41665 
L 298.801355 89.52129 
L 298.885115 92.18241 
L 299.007481 94.84353 
L 299.185622 97.50465 
L 299.44007 100.16577 
L 299.793822 102.82689 
L 299.830769 103.03856 
L 300.232315 105.48801 
L 300.804833 108.14913 
L 301.544569 110.81025 
L 301.616369 111.024449 
L 302.411672 113.47137 
L 303.437681 116.004219 
L 303.488866 116.13249 
L 304.722266 118.79361 
L 305.223281 119.726829 
L 306.154816 121.45473 
L 307.008881 122.869121 
L 307.770455 124.11585 
L 308.794481 125.665155 
L 309.540077 126.77697 
L 310.615793 128.302626 
L 311.428687 129.43809 
L 312.401393 130.765141 
L 313.394009 132.09921 
L 314.186993 133.166638 
L 315.745147 135.20385 
L 315.972593 135.505343 
L 317.772203 137.86497 
L 317.793905 137.893737 
L 319.579505 140.261083 
L 319.780866 140.52609 
L 321.365105 142.648289 
L 321.769544 143.18721 
L 323.150705 145.076866 
L 323.714011 145.84833 
L 324.972017 147.640807 
L 325.575763 148.50945 
L 326.757617 150.319256 
L 327.302298 151.17057 
L 328.543217 153.291898 
L 328.848585 153.83169 
L 330.175365 156.49281 
L 330.328817 156.853631 
L 331.250718 159.15393 
L 332.139476 161.81505 
L 332.150129 161.855506 
L 332.788884 164.47617 
L 333.288476 167.13729 
L 333.660733 169.79841 
L 333.928371 172.45953 
L 333.935729 172.566334 
L 334.096331 175.12065 
L 334.218418 178.22529 
L 334.27767 180.88641 
L 334.30853 183.54753 
L 334.321101 186.20865 
L 334.321861 188.86977 
L 334.312572 191.53089 
L 334.289723 194.19201 
L 334.244789 196.85313 
L 334.16511 199.51425 
L 334.03484 202.17537 
L 333.935729 203.498804 
L 333.825415 204.83649 
L 333.507668 207.49761 
L 333.067175 210.15873 
L 332.478891 212.81985 
L 332.150129 213.9694 
L 331.679395 215.48097 
L 330.659502 218.14209 
L 330.328817 218.866686 
L 329.390034 220.80321 
L 328.543217 222.343216 
L 327.656392 223.90785 
L 326.757617 225.393816 
L 326.03623 226.56897 
L 324.972017 228.307749 
L 324.40848 229.23009 
L 323.150705 231.418964 
L 322.882146 231.89121 
L 321.519127 234.55233 
L 321.365105 234.896533 
L 320.334384 237.21345 
L 319.579505 239.269528 
L 319.355399 239.87457 
L 318.516767 242.53569 
L 317.824296 245.19681 
L 317.793905 245.327041 
L 317.174469 247.85793 
L 316.571014 250.51905 
L 315.972593 253.146389 
L 315.964334 253.18017 
L 315.2445 255.84129 
L 314.422825 258.50241 
L 314.186993 259.145326 
L 313.39054 261.16353 
L 312.401393 263.30024 
L 312.142008 263.82465 
L 310.615793 266.467548 
L 310.336663 266.92929 
L 308.794481 269.186795 
L 308.508976 269.59041 
L 307.008881 271.542303 
L 306.452276 272.25153 
L 305.223281 273.71782 
L 304.205432 274.91265 
L 303.437681 275.759197 
L 301.75329 277.57377 
L 301.616369 277.710787 
L 299.830769 279.399405 
L 298.902088 280.23489 
L 298.045169 280.924341 
L 296.259569 282.24449 
L 295.288123 282.89601 
L 294.438257 283.388893 
L 292.652657 284.297748 
L 290.867057 285.086996 
L 289.623745 285.55713 
L 289.081457 285.731017 
L 287.260145 286.21857 
L 285.474545 286.611401 
L 283.688945 286.930804 
L 281.903345 287.18723 
L 280.082033 287.39408 
L 278.296433 287.552361 
L 276.510833 287.674629 
L 274.725233 287.767872 
L 272.903921 287.839276 
L 271.118321 287.891129 
L 269.332721 287.929157 
L 267.547121 287.956682 
L 265.725809 287.976672 
L 263.940209 287.990436 
L 262.154609 288.000009 
L 260.369009 288.006582 
L 258.547697 288.011111 
L 256.762097 288.014071 
L 254.976497 288.016029 
L 253.190897 288.017308 
L 251.369585 288.018146 
L 249.583985 288.018664 
L 247.798385 288.018985 
L 246.012785 288.01918 
L 244.191473 288.019296 
L 242.405873 288.019363 
L 240.620273 288.019403 
L 238.834673 288.01943 
L 237.013361 288.019449 
L 235.227761 288.019464 
L 233.442161 288.019475 
L 231.656561 288.01948 
L 229.835249 288.01948 
L 228.049649 288.019476 
L 226.264049 288.01947 
L 224.478449 288.019465 
L 222.657137 288.019462 
L 220.871537 288.019463 
L 219.085937 288.019468 
L 217.300337 288.019475 
L 215.479025 288.019481 
L 213.693425 288.019483 
L 211.907825 288.019482 
L 210.122225 288.019477 
L 208.300913 288.019469 
L 206.515313 288.019463 
L 204.729713 288.019459 
L 202.944113 288.019459 
L 201.122801 288.019462 
L 199.337201 288.019463 
L 197.551601 288.019461 
L 195.766001 288.019451 
L 193.944689 288.019429 
L 192.159089 288.019392 
L 190.373489 288.019336 
L 188.587889 288.019255 
L 186.766577 288.019133 
L 184.980977 288.018956 
L 183.195377 288.018693 
L 181.409777 288.0183 
L 179.588465 288.017699 
L 177.802865 288.016825 
L 176.017265 288.015544 
L 174.231665 288.013686 
L 172.410353 288.01095 
L 170.624753 288.007107 
L 168.839153 288.001655 
L 167.053553 287.993969 
L 165.232241 287.982948 
L 163.446641 287.967865 
L 161.661041 287.947026 
L 159.875441 287.918447 
L 158.054129 287.878652 
L 156.268529 287.825847 
L 154.482929 287.75518 
L 152.697329 287.661424 
L 150.876017 287.535312 
L 149.090417 287.373793 
L 147.304817 287.165245 
L 145.519217 286.898434 
L 143.697905 286.552593 
L 141.912305 286.125726 
L 140.126705 285.594206 
L 140.024441 285.55713 
L 138.341105 284.781477 
L 136.519793 283.747082 
L 135.286186 282.89601 
L 134.734193 282.368425 
L 132.948593 280.31749 
L 132.887408 280.23489 
L 131.652537 277.57377 
L 131.162993 275.202397 
L 131.11102 274.91265 
L 131.142839 272.25153 
L 131.162993 272.140938 
L 131.660333 269.59041 
L 132.560533 266.92929 
L 132.948593 266.089248 
L 134.022608 263.82465 
L 134.734193 262.526529 
L 135.490946 261.16353 
L 136.519793 259.372414 
L 137.018101 258.50241 
L 138.341105 256.091031 
L 138.476644 255.84129 
L 139.800579 253.18017 
L 140.126705 252.419867 
L 140.93743 250.51905 
L 141.85703 247.85793 
L 141.912305 247.663144 
L 142.625234 245.19681 
L 143.216144 242.53569 
L 143.661636 239.87457 
L 143.697905 239.589119 
L 144.01798 237.21345 
L 144.275601 234.55233 
L 144.451297 231.89121 
L 144.561623 229.23009 
L 144.62012 226.56897 
L 144.636778 223.90785 
L 144.60991 220.80321 
L 144.545569 218.14209 
L 144.434449 215.48097 
L 144.262292 212.81985 
L 144.010399 210.15873 
L 143.697905 207.800214 
L 143.660533 207.49761 
L 143.224609 204.83649 
L 142.650033 202.17537 
L 141.912305 199.533374 
L 141.907164 199.51425 
L 141.04077 196.85313 
L 140.126705 194.597323 
L 139.964717 194.19201 
L 138.718305 191.53089 
L 138.341105 190.831926 
L 137.276507 188.86977 
L 136.519793 187.630603 
L 135.638644 186.20865 
L 134.734193 184.864927 
L 133.827681 183.54753 
L 132.948593 182.337095 
L 131.865909 180.88641 
L 131.162993 179.973883 
L 129.772197 178.22529 
L 129.341681 177.690311 
L 127.556081 175.559102 
L 127.173664 175.12065 
L 125.770481 173.518605 
L 124.788047 172.45953 
L 123.984881 171.600396 
L 122.169057 169.79841 
L 122.163569 169.793001 
L 120.377969 168.108817 
L 119.232473 167.13729 
L 118.592369 166.593892 
L 116.806769 165.208485 
L 115.74689 164.47617 
L 114.985457 163.941898 
L 113.199857 162.82056 
L 111.414257 161.862694 
L 111.31544 161.81505 
L 109.628657 160.963554 
L 107.807345 160.189844 
L 106.021745 159.558837 
L 104.640494 159.15393 
L 104.236145 159.02474 
L 102.450545 158.55347 
L 100.629233 158.182624 
L 98.843633 157.918716 
L 97.058033 157.748177 
L 95.272433 157.668123 
L 93.451121 157.679043 
L 91.665521 157.782146 
L 89.879921 157.980648 
L 88.094321 158.280858 
L 86.273009 158.701137 
L 84.754126 159.15393 
L 84.487409 159.228752 
L 82.701809 159.834723 
L 80.916209 160.58074 
L 79.094897 161.506457 
L 78.563416 161.81505 
L 77.309297 162.538286 
L 75.523697 163.734556 
L 74.546851 164.47617 
L 73.738097 165.101122 
L 71.916785 166.665128 
L 71.407615 167.13729 
L 70.131185 168.347128 
L 68.712219 169.79841 
L 68.345585 170.178834 
L 66.559985 172.088423 
L 66.218332 172.45953 
L 64.738673 174.057964 
L 63.764651 175.12065 
L 62.953073 175.982957 
L 61.167473 177.878839 
L 60.830873 178.22529 
L 59.381873 179.670452 
L 58.131402 180.88641 
L 57.560561 181.433892 
L 55.774961 183.04985 
L 55.177023 183.54753 
L 53.989361 184.531853 
L 52.203761 185.873489 
L 51.656728 186.20865 
L 50.382449 186.991033 
L 48.596849 187.792845 
L 46.811249 188.203164 
L 45.025649 188.046842 
L 43.204337 187.05612 
L 42.436325 186.20865 
L 41.418737 184.746543 
L 40.871043 183.54753 
L 39.945755 180.88641 
L 39.633137 179.695791 
L 39.330858 178.22529 
L 38.849909 175.12065 
L 38.547744 172.45953 
L 38.320412 169.79841 
L 38.147862 167.13729 
L 38.015076 164.47617 
L 37.911991 161.81505 
L 37.847537 159.655331 
L 37.834236 159.15393 
z
" clip-path="url(#p81eae55d4a)" style="fill: none; stroke: #2070b4; stroke-width: 1.5"/>
   </g>
   <g id="PathCollection_8">
    <path d="M 48.250353 156.49281 
L 47.918636 153.83169 
L 47.685332 151.17057 
L 47.521147 148.50945 
L 47.402189 145.84833 
L 47.310993 143.18721 
L 47.237631 140.52609 
L 47.179221 137.86497 
L 47.137397 135.20385 
L 47.11279 132.09921 
L 47.112508 129.43809 
L 47.128461 126.77697 
L 47.157638 124.11585 
L 47.201651 121.45473 
L 47.271753 118.79361 
L 47.392579 116.13249 
L 47.604122 113.47137 
L 47.962829 110.81025 
L 48.54363 108.14913 
L 48.596849 107.990155 
L 49.613123 105.48801 
L 50.382449 104.213433 
L 51.420152 102.82689 
L 52.203761 102.09294 
L 53.989361 100.765704 
L 55.017516 100.16577 
L 55.774961 99.843277 
L 57.560561 99.250623 
L 59.381873 98.787875 
L 61.167473 98.444263 
L 62.953073 98.186002 
L 64.738673 97.993904 
L 66.559985 97.850013 
L 68.345585 97.747304 
L 70.131185 97.672606 
L 71.916785 97.618106 
L 73.738097 97.576943 
L 75.523697 97.545786 
L 77.309297 97.519807 
L 78.436511 97.50465 
L 79.094897 97.497887 
L 80.916209 97.478528 
L 82.701809 97.45691 
L 84.487409 97.430766 
L 86.273009 97.398125 
L 88.094321 97.355928 
L 89.879921 97.303407 
L 91.665521 97.237122 
L 93.451121 97.153967 
L 95.272433 97.048047 
L 97.058033 96.919281 
L 98.843633 96.76095 
L 100.629233 96.567358 
L 102.450545 96.32659 
L 104.236145 96.039951 
L 106.021745 95.693552 
L 107.807345 95.275777 
L 109.351897 94.84353 
L 109.628657 94.778086 
L 111.414257 94.292353 
L 113.199857 93.70528 
L 114.985457 92.994642 
L 116.6759 92.18241 
L 116.806769 92.125212 
L 118.592369 91.250515 
L 120.377969 90.178992 
L 121.322697 89.52129 
L 122.163569 88.95724 
L 123.984881 87.53171 
L 125.183341 86.41665 
L 125.770481 85.852649 
L 127.556081 83.891789 
L 127.670788 83.75553 
L 129.341681 81.544239 
L 129.654501 81.09441 
L 131.162993 78.533518 
L 131.219682 78.43329 
L 132.500111 75.77217 
L 132.948593 74.591252 
L 133.522627 73.11105 
L 134.354309 70.44993 
L 134.734193 68.987031 
L 135.06864 67.78881 
L 135.73645 65.12769 
L 136.362351 62.46657 
L 136.519793 61.831895 
L 137.081261 59.80545 
L 137.886282 57.14433 
L 138.341105 55.834357 
L 138.862399 54.48321 
L 140.039352 51.82209 
L 140.126705 51.654242 
L 141.520069 49.16097 
L 141.912305 48.541992 
L 143.270441 46.49985 
L 143.697905 45.93494 
L 145.519217 43.571654 
L 145.659622 43.39521 
L 147.304817 41.573498 
L 148.07728 40.73409 
L 149.090417 39.757089 
L 150.876017 38.081139 
L 150.885445 38.07297 
L 152.697329 36.735308 
L 154.482929 35.493685 
L 154.615776 35.41185 
L 156.268529 34.584482 
L 158.054129 33.801047 
L 159.875441 33.114631 
L 161.030813 32.75073 
L 161.661041 32.595626 
L 163.446641 32.24024 
L 165.232241 31.955779 
L 167.053553 31.727858 
L 168.839153 31.555169 
L 170.624753 31.423404 
L 172.410353 31.324348 
L 174.231665 31.249708 
L 176.017265 31.196443 
L 177.802865 31.15809 
L 179.588465 31.130853 
L 181.409777 31.111458 
L 183.195377 31.098367 
L 184.980977 31.089436 
L 186.766577 31.083418 
L 188.587889 31.079346 
L 190.373489 31.076732 
L 192.159089 31.075037 
L 193.944689 31.073955 
L 195.766001 31.073268 
L 197.551601 31.072861 
L 199.337201 31.072619 
L 201.122801 31.072477 
L 202.944113 31.072391 
L 204.729713 31.072336 
L 206.515313 31.072295 
L 208.300913 31.072262 
L 210.122225 31.072238 
L 211.907825 31.072224 
L 213.693425 31.072223 
L 215.479025 31.072231 
L 217.300337 31.072244 
L 219.085937 31.072257 
L 220.871537 31.072265 
L 222.657137 31.072263 
L 224.478449 31.072254 
L 226.264049 31.07224 
L 228.049649 31.072228 
L 229.835249 31.072224 
L 231.656561 31.072231 
L 233.442161 31.072251 
L 235.227761 31.072284 
L 237.013361 31.072329 
L 238.834673 31.072392 
L 240.620273 31.072485 
L 242.405873 31.072636 
L 244.191473 31.07289 
L 246.012785 31.073331 
L 247.798385 31.074053 
L 249.583985 31.075227 
L 251.369585 31.077096 
L 253.190897 31.080095 
L 254.976497 31.08465 
L 256.762097 31.091586 
L 258.547697 31.102021 
L 260.369009 31.117902 
L 262.154609 31.140829 
L 263.940209 31.174038 
L 265.725809 31.221518 
L 267.547121 31.290107 
L 269.332721 31.384054 
L 271.118321 31.513209 
L 272.903921 31.688513 
L 274.725233 31.928896 
L 276.510833 32.241672 
L 278.296433 32.650659 
L 278.63549 32.75073 
L 280.082033 33.324305 
L 281.903345 34.248298 
L 283.688945 35.394886 
L 283.710239 35.41185 
L 285.474545 37.367813 
L 285.992247 38.07297 
L 287.260145 40.563302 
L 287.331957 40.73409 
L 288.081224 43.39521 
L 288.619237 46.49985 
L 288.886263 49.16097 
L 289.041398 51.82209 
L 289.081457 53.003064 
L 289.123736 54.48321 
L 289.171528 57.14433 
L 289.205394 59.80545 
L 289.230194 62.46657 
L 289.245549 65.12769 
L 289.250408 67.78881 
L 289.246328 70.44993 
L 289.238362 73.11105 
L 289.233512 75.77217 
L 289.237927 78.43329 
L 289.254631 81.09441 
L 289.283216 83.75553 
L 289.321847 86.41665 
L 289.380019 89.52129 
L 289.447606 92.18241 
L 289.544541 94.84353 
L 289.688578 97.50465 
L 289.900165 100.16577 
L 290.200278 102.82689 
L 290.610084 105.48801 
L 290.867057 106.782456 
L 291.109771 108.14913 
L 291.70739 110.81025 
L 292.476338 113.47137 
L 292.652657 113.983425 
L 293.346387 116.13249 
L 294.432089 118.79361 
L 294.438257 118.806878 
L 295.63033 121.45473 
L 296.259569 122.634498 
L 297.038749 124.11585 
L 298.045169 125.805508 
L 298.624897 126.77697 
L 299.830769 128.633205 
L 300.360029 129.43809 
L 301.616369 131.255183 
L 302.209916 132.09921 
L 303.437681 133.820993 
L 304.470928 135.20385 
L 305.223281 136.221619 
L 306.464786 137.86497 
L 307.008881 138.592342 
L 308.485502 140.52609 
L 308.794481 140.937111 
L 310.514978 143.18721 
L 310.615793 143.32142 
L 312.401393 145.690256 
L 312.5212 145.84833 
L 314.186993 148.113066 
L 314.480327 148.50945 
L 315.972593 150.617362 
L 316.361753 151.17057 
L 317.793905 153.33694 
L 318.113755 153.83169 
L 319.579505 156.311883 
L 319.682128 156.49281 
L 320.991452 159.15393 
L 321.365105 160.033957 
L 322.059964 161.81505 
L 322.925819 164.47617 
L 323.150705 165.349922 
L 323.557287 167.13729 
L 324.018547 169.79841 
L 324.358788 172.45953 
L 324.59579 175.12065 
L 324.766638 178.22529 
L 324.844535 180.88641 
L 324.879414 183.54753 
L 324.887941 186.20865 
L 324.880738 188.86977 
L 324.859203 191.53089 
L 324.814249 194.19201 
L 324.727613 196.85313 
L 324.575143 199.51425 
L 324.330718 202.17537 
L 323.969619 204.83649 
L 323.471125 207.49761 
L 323.150705 208.790987 
L 322.764378 210.15873 
L 321.832951 212.81985 
L 321.365105 213.939276 
L 320.662519 215.48097 
L 319.579505 217.605421 
L 319.289837 218.14209 
L 317.793905 220.741293 
L 317.757171 220.80321 
L 315.972593 223.748855 
L 315.877402 223.90785 
L 314.322949 226.56897 
L 314.186993 226.821855 
L 312.890121 229.23009 
L 312.401393 230.281511 
L 311.642455 231.89121 
L 310.615793 234.550275 
L 310.614971 234.55233 
L 309.691627 237.21345 
L 308.959695 239.87457 
L 308.794481 240.565587 
L 308.281317 242.53569 
L 307.658389 245.19681 
L 307.062213 247.85793 
L 307.008881 248.078933 
L 306.349879 250.51905 
L 305.562639 253.18017 
L 305.223281 254.16725 
L 304.583847 255.84129 
L 303.437681 258.463762 
L 303.419163 258.50241 
L 301.938022 261.16353 
L 301.616369 261.673247 
L 300.188822 263.82465 
L 299.830769 264.298803 
L 298.045169 266.609492 
L 297.791355 266.92929 
L 296.259569 268.630747 
L 295.377987 269.59041 
L 294.438257 270.500401 
L 292.652657 272.176373 
L 292.566346 272.25153 
L 290.867057 273.512075 
L 289.081457 274.758817 
L 288.833271 274.91265 
L 287.260145 275.706401 
L 285.474545 276.494224 
L 283.688945 277.172596 
L 282.430228 277.57377 
L 281.903345 277.705069 
L 280.082033 278.071476 
L 278.296433 278.358573 
L 276.510833 278.584781 
L 274.725233 278.760211 
L 272.903921 278.896505 
L 271.118321 278.996726 
L 269.332721 279.071024 
L 267.547121 279.125324 
L 265.725809 279.165112 
L 263.940209 279.192731 
L 262.154609 279.21209 
L 260.369009 279.225479 
L 258.547697 279.23477 
L 256.762097 279.240885 
L 254.976497 279.244959 
L 253.190897 279.24764 
L 251.369585 279.249409 
L 249.583985 279.250511 
L 247.798385 279.2512 
L 246.012785 279.25162 
L 244.191473 279.251874 
L 242.405873 279.252018 
L 240.620273 279.252105 
L 238.834673 279.252161 
L 237.013361 279.252204 
L 235.227761 279.252237 
L 233.442161 279.252261 
L 231.656561 279.252275 
L 229.835249 279.252278 
L 228.049649 279.25227 
L 226.264049 279.252257 
L 224.478449 279.252243 
L 222.657137 279.252236 
L 220.871537 279.252237 
L 219.085937 279.252246 
L 217.300337 279.252261 
L 215.479025 279.252274 
L 213.693425 279.252282 
L 211.907825 279.25228 
L 210.122225 279.252269 
L 208.300913 279.252252 
L 206.515313 279.252234 
L 204.729713 279.25222 
L 202.944113 279.252211 
L 201.122801 279.252202 
L 199.337201 279.252186 
L 197.551601 279.25215 
L 195.766001 279.252077 
L 193.944689 279.251947 
L 192.159089 279.251739 
L 190.373489 279.251419 
L 188.587889 279.250939 
L 186.766577 279.250212 
L 184.980977 279.249158 
L 183.195377 279.247613 
L 181.409777 279.245361 
L 179.588465 279.242031 
L 177.802865 279.237347 
L 176.017265 279.230721 
L 174.231665 279.221448 
L 172.410353 279.208296 
L 170.624753 279.190533 
L 168.839153 279.166334 
L 167.053553 279.133606 
L 165.232241 279.088612 
L 163.446641 279.029537 
L 161.661041 278.95107 
L 159.875441 278.847363 
L 158.054129 278.707796 
L 156.268529 278.528076 
L 154.482929 278.293551 
L 152.697329 277.988651 
L 150.876017 277.584734 
L 150.837003 277.57377 
L 149.090417 276.830411 
L 147.304817 275.817073 
L 146.090015 274.91265 
L 145.519217 274.051478 
L 144.623577 272.25153 
L 144.467674 269.59041 
L 145.043952 266.92929 
L 145.519217 265.705861 
L 146.239875 263.82465 
L 147.304817 261.429779 
L 147.423244 261.16353 
L 148.645094 258.50241 
L 149.090417 257.43107 
L 149.761339 255.84129 
L 150.708527 253.18017 
L 150.876017 252.61879 
L 151.535486 250.51905 
L 152.189349 247.85793 
L 152.687725 245.19681 
L 152.697329 245.132681 
L 153.129573 242.53569 
L 153.46487 239.87457 
L 153.71319 237.21345 
L 153.888866 234.55233 
L 154.003151 231.89121 
L 154.066996 229.23009 
L 154.091724 226.56897 
L 154.08743 223.90785 
L 154.053314 220.80321 
L 153.997405 218.14209 
L 153.906831 215.48097 
L 153.765582 212.81985 
L 153.554238 210.15873 
L 153.252358 207.49761 
L 152.83897 204.83649 
L 152.697329 204.121906 
L 152.352959 202.17537 
L 151.750554 199.51425 
L 150.974949 196.85313 
L 150.876017 196.566169 
L 150.110064 194.19201 
L 149.090417 191.694659 
L 149.026356 191.53089 
L 147.816937 188.86977 
L 147.304817 187.90971 
L 146.4079 186.20865 
L 145.519217 184.722489 
L 144.814974 183.54753 
L 143.697905 181.844206 
L 143.060625 180.88641 
L 141.912305 179.249237 
L 141.176004 178.22529 
L 140.126705 176.787453 
L 138.834203 175.12065 
L 138.341105 174.481379 
L 136.719756 172.45953 
L 136.519793 172.210189 
L 134.734193 170.048731 
L 134.519827 169.79841 
L 132.948593 167.952231 
L 132.208461 167.13729 
L 131.162993 165.975086 
L 129.699754 164.47617 
L 129.341681 164.104213 
L 127.556081 162.353267 
L 126.958328 161.81505 
L 125.770481 160.712282 
L 123.984881 159.25707 
L 123.85043 159.15393 
L 122.163569 157.792983 
L 120.377969 156.579414 
L 120.240744 156.49281 
L 118.592369 155.362928 
L 116.806769 154.332061 
L 115.814784 153.83169 
L 114.985457 153.362079 
L 113.199857 152.471658 
L 111.414257 151.728194 
L 109.823398 151.17057 
L 109.628657 151.090336 
L 107.807345 150.425665 
L 106.021745 149.889063 
L 104.236145 149.450102 
L 102.450545 149.096255 
L 100.629233 148.813074 
L 98.843633 148.604409 
L 97.684258 148.50945 
L 97.058033 148.444598 
L 95.272433 148.335147 
L 93.451121 148.300909 
L 91.665521 148.342935 
L 89.879921 148.461627 
L 89.443381 148.50945 
L 88.094321 148.628396 
L 86.273009 148.858822 
L 84.487409 149.161499 
L 82.701809 149.549708 
L 80.916209 150.035532 
L 79.094897 150.647313 
L 77.791606 151.17057 
L 77.309297 151.341039 
L 75.523697 152.062886 
L 73.738097 152.931422 
L 72.170559 153.83169 
L 71.916785 153.967408 
L 70.131185 155.004477 
L 68.345585 156.225765 
L 67.974835 156.49281 
L 66.559985 157.479156 
L 64.738673 158.895083 
L 64.40586 159.15393 
L 62.953073 160.27025 
L 61.167473 161.707866 
L 61.019395 161.81505 
L 59.381873 162.991653 
L 57.560561 164.198077 
L 56.977224 164.47617 
L 55.774961 165.040697 
L 53.989361 165.42231 
L 52.203761 165.084689 
L 51.418744 164.47617 
L 50.382449 163.342023 
L 49.64826 161.81505 
L 48.755132 159.15393 
L 48.596849 158.493686 
L 48.250353 156.49281 
z
" clip-path="url(#p81eae55d4a)" style="fill: none; stroke: #08509b; stroke-width: 1.5"/>
   </g>
   <g id="PathCollection_9"/>
   <g id="patch_3">
    <path d="M 34.240625 288.21825 
L 34.240625 22.10625 
" style="fill: none; stroke: #000000; stroke-width: 0.8; stroke-linejoin: miter; stroke-linecap: square"/>
   </g>
   <g id="patch_4">
    <path d="M 391.360625 288.21825 
L 391.360625 22.10625 
" style="fill: none; stroke: #000000; stroke-width: 0.8; stroke-linejoin: miter; stroke-linecap: square"/>
   </g>
   <g id="patch_5">
    <path d="M 34.240625 288.21825 
L 391.360625 288.21825 
" style="fill: none; stroke: #000000; stroke-width: 0.8; stroke-linejoin: miter; stroke-linecap: square"/>
   </g>
   <g id="patch_6">
    <path d="M 34.240625 22.10625 
L 391.360625 22.10625 
" style="fill: none; stroke: #000000; stroke-width: 0.8; stroke-linejoin: miter; stroke-linecap: square"/>
   </g>
   <g id="text_16">
    <!-- 7.3_cross_-41.0 -->
    <g transform="translate(166.181563 16.10625)scale(0.12 -0.12)">
     <defs>
      <path id="DejaVuSans-37" d="M 525 4666 
L 3525 4666 
L 3525 4397 
L 1831 0 
L 1172 0 
L 2766 4134 
L 525 4134 
L 525 4666 
z
" transform="scale(0.015625)"/>
      <path id="DejaVuSans-2e" d="M 684 794 
L 1344 794 
L 1344 0 
L 684 0 
L 684 794 
z
" transform="scale(0.015625)"/>
      <path id="DejaVuSans-5f" d="M 3263 -1063 
L 3263 -1509 
L -63 -1509 
L -63 -1063 
L 3263 -1063 
z
" transform="scale(0.015625)"/>
      <path id="DejaVuSans-63" d="M 3122 3366 
L 3122 2828 
Q 2878 2963 2633 3030 
Q 2388 3097 2138 3097 
Q 1578 3097 1268 2742 
Q 959 2388 959 1747 
Q 959 1106 1268 751 
Q 1578 397 2138 397 
Q 2388 397 2633 464 
Q 2878 531 3122 666 
L 3122 134 
Q 2881 22 2623 -34 
Q 2366 -91 2075 -91 
Q 1284 -91 818 406 
Q 353 903 353 1747 
Q 353 2603 823 3093 
Q 1294 3584 2113 3584 
Q 2378 3584 2631 3529 
Q 2884 3475 3122 3366 
z
" transform="scale(0.015625)"/>
      <path id="DejaVuSans-72" d="M 2631 2963 
Q 2534 3019 2420 3045 
Q 2306 3072 2169 3072 
Q 1681 3072 1420 2755 
Q 1159 2438 1159 1844 
L 1159 0 
L 581 0 
L 581 3500 
L 1159 3500 
L 1159 2956 
Q 1341 3275 1631 3429 
Q 1922 3584 2338 3584 
Q 2397 3584 2469 3576 
Q 2541 3569 2628 3553 
L 2631 2963 
z
" transform="scale(0.015625)"/>
      <path id="DejaVuSans-73" d="M 2834 3397 
L 2834 2853 
Q 2591 2978 2328 3040 
Q 2066 3103 1784 3103 
Q 1356 3103 1142 2972 
Q 928 2841 928 2578 
Q 928 2378 1081 2264 
Q 1234 2150 1697 2047 
L 1894 2003 
Q 2506 1872 2764 1633 
Q 3022 1394 3022 966 
Q 3022 478 2636 193 
Q 2250 -91 1575 -91 
Q 1294 -91 989 -36 
Q 684 19 347 128 
L 347 722 
Q 666 556 975 473 
Q 1284 391 1588 391 
Q 1994 391 2212 530 
Q 2431 669 2431 922 
Q 2431 1156 2273 1281 
Q 2116 1406 1581 1522 
L 1381 1569 
Q 847 1681 609 1914 
Q 372 2147 372 2553 
Q 372 3047 722 3315 
Q 1072 3584 1716 3584 
Q 2034 3584 2315 3537 
Q 2597 3491 2834 3397 
z
" transform="scale(0.015625)"/>
      <path id="DejaVuSans-2d" d="M 313 2009 
L 1997 2009 
L 1997 1497 
L 313 1497 
L 313 2009 
z
" transform="scale(0.015625)"/>
     </defs>
     <use xlink:href="#DejaVuSans-37"/>
     <use xlink:href="#DejaVuSans-2e" x="63.623047"/>
     <use xlink:href="#DejaVuSans-33" x="95.410156"/>
     <use xlink:href="#DejaVuSans-5f" x="159.033203"/>
     <use xlink:href="#DejaVuSans-63" x="209.033203"/>
     <use xlink:href="#DejaVuSans-72" x="264.013672"/>
     <use xlink:href="#DejaVuSans-6f" x="302.876953"/>
     <use xlink:href="#DejaVuSans-73" x="364.058594"/>
     <use xlink:href="#DejaVuSans-73" x="416.158203"/>
     <use xlink:href="#DejaVuSans-5f" x="468.257812"/>
     <use xlink:href="#DejaVuSans-2d" x="518.257812"/>
     <use xlink:href="#DejaVuSans-34" x="554.341797"/>
     <use xlink:href="#DejaVuSans-31" x="617.964844"/>
     <use xlink:href="#DejaVuSans-2e" x="681.587891"/>
     <use xlink:href="#DejaVuSans-30" x="713.375"/>
    </g>
   </g>
  </g>
 </g>
 <defs>
  <clipPath id="p81eae55d4a">
   <rect x="34.240625" y="22.10625" width="357.12" height="266.112"/>
  </clipPath>
 </defs>
</svg>
