<?xml version="1.0" encoding="utf-8" standalone="no"?>
<!DOCTYPE svg PUBLIC "-//W3C//DTD SVG 1.1//EN"
  "http://www.w3.org/Graphics/SVG/1.1/DTD/svg11.dtd">
<svg xmlns:xlink="http://www.w3.org/1999/xlink" width="408.104375pt" height="325.7745pt" viewBox="0 0 408.104375 325.7745" xmlns="http://www.w3.org/2000/svg" version="1.1">
 <metadata>
  <rdf:RDF xmlns:dc="http://purl.org/dc/elements/1.1/" xmlns:cc="http://creativecommons.org/ns#" xmlns:rdf="http://www.w3.org/1999/02/22-rdf-syntax-ns#">
   <cc:Work>
    <dc:type rdf:resource="http://purl.org/dc/dcmitype/StillImage"/>
    <dc:date>2024-07-12T12:32:01.853917</dc:date>
    <dc:format>image/svg+xml</dc:format>
    <dc:creator>
     <cc:Agent>
      <dc:title>Matplotlib v3.5.3, https://matplotlib.org/</dc:title>
     </cc:Agent>
    </dc:creator>
   </cc:Work>
  </rdf:RDF>
 </metadata>
 <defs>
  <style type="text/css">*{stroke-linejoin: round; stroke-linecap: butt}</style>
 </defs>
 <g id="figure_1">
  <g id="patch_1">
   <path d="M 0 325.7745 
L 408.104375 325.7745 
L 408.104375 0 
L 0 0 
z
" style="fill: #ffffff"/>
  </g>
  <g id="axes_1">
   <g id="patch_2">
    <path d="M 34.240625 288.21825 
L 391.360625 288.21825 
L 391.360625 22.10625 
L 34.240625 22.10625 
z
" style="fill: #ffffff"/>
   </g>
   <g id="matplotlib.axis_1">
    <g id="xtick_1">
     <g id="line2d_1">
      <defs>
       <path id="m898db088a6" d="M 0 0 
L 0 3.5 
" style="stroke: #000000; stroke-width: 0.8"/>
      </defs>
      <g>
       <use xlink:href="#m898db088a6" x="34.240625" y="288.21825" style="stroke: #000000; stroke-width: 0.8"/>
      </g>
     </g>
     <g id="text_1">
      <!-- 0 -->
      <g transform="translate(31.059375 302.816687)scale(0.1 -0.1)">
       <defs>
        <path id="DejaVuSans-30" d="M 2034 4250 
Q 1547 4250 1301 3770 
Q 1056 3291 1056 2328 
Q 1056 1369 1301 889 
Q 1547 409 2034 409 
Q 2525 409 2770 889 
Q 3016 1369 3016 2328 
Q 3016 3291 2770 3770 
Q 2525 4250 2034 4250 
z
M 2034 4750 
Q 2819 4750 3233 4129 
Q 3647 3509 3647 2328 
Q 3647 1150 3233 529 
Q 2819 -91 2034 -91 
Q 1250 -91 836 529 
Q 422 1150 422 2328 
Q 422 3509 836 4129 
Q 1250 4750 2034 4750 
z
" transform="scale(0.015625)"/>
       </defs>
       <use xlink:href="#DejaVuSans-30"/>
      </g>
     </g>
    </g>
    <g id="xtick_2">
     <g id="line2d_2">
      <g>
       <use xlink:href="#m898db088a6" x="105.664625" y="288.21825" style="stroke: #000000; stroke-width: 0.8"/>
      </g>
     </g>
     <g id="text_2">
      <!-- 20 -->
      <g transform="translate(99.302125 302.816687)scale(0.1 -0.1)">
       <defs>
        <path id="DejaVuSans-32" d="M 1228 531 
L 3431 531 
L 3431 0 
L 469 0 
L 469 531 
Q 828 903 1448 1529 
Q 2069 2156 2228 2338 
Q 2531 2678 2651 2914 
Q 2772 3150 2772 3378 
Q 2772 3750 2511 3984 
Q 2250 4219 1831 4219 
Q 1534 4219 1204 4116 
Q 875 4013 500 3803 
L 500 4441 
Q 881 4594 1212 4672 
Q 1544 4750 1819 4750 
Q 2544 4750 2975 4387 
Q 3406 4025 3406 3419 
Q 3406 3131 3298 2873 
Q 3191 2616 2906 2266 
Q 2828 2175 2409 1742 
Q 1991 1309 1228 531 
z
" transform="scale(0.015625)"/>
       </defs>
       <use xlink:href="#DejaVuSans-32"/>
       <use xlink:href="#DejaVuSans-30" x="63.623047"/>
      </g>
     </g>
    </g>
    <g id="xtick_3">
     <g id="line2d_3">
      <g>
       <use xlink:href="#m898db088a6" x="177.088625" y="288.21825" style="stroke: #000000; stroke-width: 0.8"/>
      </g>
     </g>
     <g id="text_3">
      <!-- 40 -->
      <g transform="translate(170.726125 302.816687)scale(0.1 -0.1)">
       <defs>
        <path id="DejaVuSans-34" d="M 2419 4116 
L 825 1625 
L 2419 1625 
L 2419 4116 
z
M 2253 4666 
L 3047 4666 
L 3047 1625 
L 3713 1625 
L 3713 1100 
L 3047 1100 
L 3047 0 
L 2419 0 
L 2419 1100 
L 313 1100 
L 313 1709 
L 2253 4666 
z
" transform="scale(0.015625)"/>
       </defs>
       <use xlink:href="#DejaVuSans-34"/>
       <use xlink:href="#DejaVuSans-30" x="63.623047"/>
      </g>
     </g>
    </g>
    <g id="xtick_4">
     <g id="line2d_4">
      <g>
       <use xlink:href="#m898db088a6" x="248.512625" y="288.21825" style="stroke: #000000; stroke-width: 0.8"/>
      </g>
     </g>
     <g id="text_4">
      <!-- 60 -->
      <g transform="translate(242.150125 302.816687)scale(0.1 -0.1)">
       <defs>
        <path id="DejaVuSans-36" d="M 2113 2584 
Q 1688 2584 1439 2293 
Q 1191 2003 1191 1497 
Q 1191 994 1439 701 
Q 1688 409 2113 409 
Q 2538 409 2786 701 
Q 3034 994 3034 1497 
Q 3034 2003 2786 2293 
Q 2538 2584 2113 2584 
z
M 3366 4563 
L 3366 3988 
Q 3128 4100 2886 4159 
Q 2644 4219 2406 4219 
Q 1781 4219 1451 3797 
Q 1122 3375 1075 2522 
Q 1259 2794 1537 2939 
Q 1816 3084 2150 3084 
Q 2853 3084 3261 2657 
Q 3669 2231 3669 1497 
Q 3669 778 3244 343 
Q 2819 -91 2113 -91 
Q 1303 -91 875 529 
Q 447 1150 447 2328 
Q 447 3434 972 4092 
Q 1497 4750 2381 4750 
Q 2619 4750 2861 4703 
Q 3103 4656 3366 4563 
z
" transform="scale(0.015625)"/>
       </defs>
       <use xlink:href="#DejaVuSans-36"/>
       <use xlink:href="#DejaVuSans-30" x="63.623047"/>
      </g>
     </g>
    </g>
    <g id="xtick_5">
     <g id="line2d_5">
      <g>
       <use xlink:href="#m898db088a6" x="319.936625" y="288.21825" style="stroke: #000000; stroke-width: 0.8"/>
      </g>
     </g>
     <g id="text_5">
      <!-- 80 -->
      <g transform="translate(313.574125 302.816687)scale(0.1 -0.1)">
       <defs>
        <path id="DejaVuSans-38" d="M 2034 2216 
Q 1584 2216 1326 1975 
Q 1069 1734 1069 1313 
Q 1069 891 1326 650 
Q 1584 409 2034 409 
Q 2484 409 2743 651 
Q 3003 894 3003 1313 
Q 3003 1734 2745 1975 
Q 2488 2216 2034 2216 
z
M 1403 2484 
Q 997 2584 770 2862 
Q 544 3141 544 3541 
Q 544 4100 942 4425 
Q 1341 4750 2034 4750 
Q 2731 4750 3128 4425 
Q 3525 4100 3525 3541 
Q 3525 3141 3298 2862 
Q 3072 2584 2669 2484 
Q 3125 2378 3379 2068 
Q 3634 1759 3634 1313 
Q 3634 634 3220 271 
Q 2806 -91 2034 -91 
Q 1263 -91 848 271 
Q 434 634 434 1313 
Q 434 1759 690 2068 
Q 947 2378 1403 2484 
z
M 1172 3481 
Q 1172 3119 1398 2916 
Q 1625 2713 2034 2713 
Q 2441 2713 2670 2916 
Q 2900 3119 2900 3481 
Q 2900 3844 2670 4047 
Q 2441 4250 2034 4250 
Q 1625 4250 1398 4047 
Q 1172 3844 1172 3481 
z
" transform="scale(0.015625)"/>
       </defs>
       <use xlink:href="#DejaVuSans-38"/>
       <use xlink:href="#DejaVuSans-30" x="63.623047"/>
      </g>
     </g>
    </g>
    <g id="xtick_6">
     <g id="line2d_6">
      <g>
       <use xlink:href="#m898db088a6" x="391.360625" y="288.21825" style="stroke: #000000; stroke-width: 0.8"/>
      </g>
     </g>
     <g id="text_6">
      <!-- 100 -->
      <g transform="translate(381.816875 302.816687)scale(0.1 -0.1)">
       <defs>
        <path id="DejaVuSans-31" d="M 794 531 
L 1825 531 
L 1825 4091 
L 703 3866 
L 703 4441 
L 1819 4666 
L 2450 4666 
L 2450 531 
L 3481 531 
L 3481 0 
L 794 0 
L 794 531 
z
" transform="scale(0.015625)"/>
       </defs>
       <use xlink:href="#DejaVuSans-31"/>
       <use xlink:href="#DejaVuSans-30" x="63.623047"/>
       <use xlink:href="#DejaVuSans-30" x="127.246094"/>
      </g>
     </g>
    </g>
    <g id="text_7">
     <!-- axialRotation -->
     <g transform="translate(180.024844 316.494812)scale(0.1 -0.1)">
      <defs>
       <path id="DejaVuSans-61" d="M 2194 1759 
Q 1497 1759 1228 1600 
Q 959 1441 959 1056 
Q 959 750 1161 570 
Q 1363 391 1709 391 
Q 2188 391 2477 730 
Q 2766 1069 2766 1631 
L 2766 1759 
L 2194 1759 
z
M 3341 1997 
L 3341 0 
L 2766 0 
L 2766 531 
Q 2569 213 2275 61 
Q 1981 -91 1556 -91 
Q 1019 -91 701 211 
Q 384 513 384 1019 
Q 384 1609 779 1909 
Q 1175 2209 1959 2209 
L 2766 2209 
L 2766 2266 
Q 2766 2663 2505 2880 
Q 2244 3097 1772 3097 
Q 1472 3097 1187 3025 
Q 903 2953 641 2809 
L 641 3341 
Q 956 3463 1253 3523 
Q 1550 3584 1831 3584 
Q 2591 3584 2966 3190 
Q 3341 2797 3341 1997 
z
" transform="scale(0.015625)"/>
       <path id="DejaVuSans-78" d="M 3513 3500 
L 2247 1797 
L 3578 0 
L 2900 0 
L 1881 1375 
L 863 0 
L 184 0 
L 1544 1831 
L 300 3500 
L 978 3500 
L 1906 2253 
L 2834 3500 
L 3513 3500 
z
" transform="scale(0.015625)"/>
       <path id="DejaVuSans-69" d="M 603 3500 
L 1178 3500 
L 1178 0 
L 603 0 
L 603 3500 
z
M 603 4863 
L 1178 4863 
L 1178 4134 
L 603 4134 
L 603 4863 
z
" transform="scale(0.015625)"/>
       <path id="DejaVuSans-6c" d="M 603 4863 
L 1178 4863 
L 1178 0 
L 603 0 
L 603 4863 
z
" transform="scale(0.015625)"/>
       <path id="DejaVuSans-52" d="M 2841 2188 
Q 3044 2119 3236 1894 
Q 3428 1669 3622 1275 
L 4263 0 
L 3584 0 
L 2988 1197 
Q 2756 1666 2539 1819 
Q 2322 1972 1947 1972 
L 1259 1972 
L 1259 0 
L 628 0 
L 628 4666 
L 2053 4666 
Q 2853 4666 3247 4331 
Q 3641 3997 3641 3322 
Q 3641 2881 3436 2590 
Q 3231 2300 2841 2188 
z
M 1259 4147 
L 1259 2491 
L 2053 2491 
Q 2509 2491 2742 2702 
Q 2975 2913 2975 3322 
Q 2975 3731 2742 3939 
Q 2509 4147 2053 4147 
L 1259 4147 
z
" transform="scale(0.015625)"/>
       <path id="DejaVuSans-6f" d="M 1959 3097 
Q 1497 3097 1228 2736 
Q 959 2375 959 1747 
Q 959 1119 1226 758 
Q 1494 397 1959 397 
Q 2419 397 2687 759 
Q 2956 1122 2956 1747 
Q 2956 2369 2687 2733 
Q 2419 3097 1959 3097 
z
M 1959 3584 
Q 2709 3584 3137 3096 
Q 3566 2609 3566 1747 
Q 3566 888 3137 398 
Q 2709 -91 1959 -91 
Q 1206 -91 779 398 
Q 353 888 353 1747 
Q 353 2609 779 3096 
Q 1206 3584 1959 3584 
z
" transform="scale(0.015625)"/>
       <path id="DejaVuSans-74" d="M 1172 4494 
L 1172 3500 
L 2356 3500 
L 2356 3053 
L 1172 3053 
L 1172 1153 
Q 1172 725 1289 603 
Q 1406 481 1766 481 
L 2356 481 
L 2356 0 
L 1766 0 
Q 1100 0 847 248 
Q 594 497 594 1153 
L 594 3053 
L 172 3053 
L 172 3500 
L 594 3500 
L 594 4494 
L 1172 4494 
z
" transform="scale(0.015625)"/>
       <path id="DejaVuSans-6e" d="M 3513 2113 
L 3513 0 
L 2938 0 
L 2938 2094 
Q 2938 2591 2744 2837 
Q 2550 3084 2163 3084 
Q 1697 3084 1428 2787 
Q 1159 2491 1159 1978 
L 1159 0 
L 581 0 
L 581 3500 
L 1159 3500 
L 1159 2956 
Q 1366 3272 1645 3428 
Q 1925 3584 2291 3584 
Q 2894 3584 3203 3211 
Q 3513 2838 3513 2113 
z
" transform="scale(0.015625)"/>
      </defs>
      <use xlink:href="#DejaVuSans-61"/>
      <use xlink:href="#DejaVuSans-78" x="61.279297"/>
      <use xlink:href="#DejaVuSans-69" x="120.458984"/>
      <use xlink:href="#DejaVuSans-61" x="148.242188"/>
      <use xlink:href="#DejaVuSans-6c" x="209.521484"/>
      <use xlink:href="#DejaVuSans-52" x="237.304688"/>
      <use xlink:href="#DejaVuSans-6f" x="302.287109"/>
      <use xlink:href="#DejaVuSans-74" x="363.46875"/>
      <use xlink:href="#DejaVuSans-61" x="402.677734"/>
      <use xlink:href="#DejaVuSans-74" x="463.957031"/>
      <use xlink:href="#DejaVuSans-69" x="503.166016"/>
      <use xlink:href="#DejaVuSans-6f" x="530.949219"/>
      <use xlink:href="#DejaVuSans-6e" x="592.130859"/>
     </g>
    </g>
   </g>
   <g id="matplotlib.axis_2">
    <g id="ytick_1">
     <g id="line2d_7">
      <defs>
       <path id="m36d438f43f" d="M 0 0 
L -3.5 0 
" style="stroke: #000000; stroke-width: 0.8"/>
      </defs>
      <g>
       <use xlink:href="#m36d438f43f" x="34.240625" y="288.21825" style="stroke: #000000; stroke-width: 0.8"/>
      </g>
     </g>
     <g id="text_8">
      <!-- 0 -->
      <g transform="translate(20.878125 292.017469)scale(0.1 -0.1)">
       <use xlink:href="#DejaVuSans-30"/>
      </g>
     </g>
    </g>
    <g id="ytick_2">
     <g id="line2d_8">
      <g>
       <use xlink:href="#m36d438f43f" x="34.240625" y="243.86625" style="stroke: #000000; stroke-width: 0.8"/>
      </g>
     </g>
     <g id="text_9">
      <!-- 1 -->
      <g transform="translate(20.878125 247.665469)scale(0.1 -0.1)">
       <use xlink:href="#DejaVuSans-31"/>
      </g>
     </g>
    </g>
    <g id="ytick_3">
     <g id="line2d_9">
      <g>
       <use xlink:href="#m36d438f43f" x="34.240625" y="199.51425" style="stroke: #000000; stroke-width: 0.8"/>
      </g>
     </g>
     <g id="text_10">
      <!-- 2 -->
      <g transform="translate(20.878125 203.313469)scale(0.1 -0.1)">
       <use xlink:href="#DejaVuSans-32"/>
      </g>
     </g>
    </g>
    <g id="ytick_4">
     <g id="line2d_10">
      <g>
       <use xlink:href="#m36d438f43f" x="34.240625" y="155.16225" style="stroke: #000000; stroke-width: 0.8"/>
      </g>
     </g>
     <g id="text_11">
      <!-- 3 -->
      <g transform="translate(20.878125 158.961469)scale(0.1 -0.1)">
       <defs>
        <path id="DejaVuSans-33" d="M 2597 2516 
Q 3050 2419 3304 2112 
Q 3559 1806 3559 1356 
Q 3559 666 3084 287 
Q 2609 -91 1734 -91 
Q 1441 -91 1130 -33 
Q 819 25 488 141 
L 488 750 
Q 750 597 1062 519 
Q 1375 441 1716 441 
Q 2309 441 2620 675 
Q 2931 909 2931 1356 
Q 2931 1769 2642 2001 
Q 2353 2234 1838 2234 
L 1294 2234 
L 1294 2753 
L 1863 2753 
Q 2328 2753 2575 2939 
Q 2822 3125 2822 3475 
Q 2822 3834 2567 4026 
Q 2313 4219 1838 4219 
Q 1578 4219 1281 4162 
Q 984 4106 628 3988 
L 628 4550 
Q 988 4650 1302 4700 
Q 1616 4750 1894 4750 
Q 2613 4750 3031 4423 
Q 3450 4097 3450 3541 
Q 3450 3153 3228 2886 
Q 3006 2619 2597 2516 
z
" transform="scale(0.015625)"/>
       </defs>
       <use xlink:href="#DejaVuSans-33"/>
      </g>
     </g>
    </g>
    <g id="ytick_5">
     <g id="line2d_11">
      <g>
       <use xlink:href="#m36d438f43f" x="34.240625" y="110.81025" style="stroke: #000000; stroke-width: 0.8"/>
      </g>
     </g>
     <g id="text_12">
      <!-- 4 -->
      <g transform="translate(20.878125 114.609469)scale(0.1 -0.1)">
       <use xlink:href="#DejaVuSans-34"/>
      </g>
     </g>
    </g>
    <g id="ytick_6">
     <g id="line2d_12">
      <g>
       <use xlink:href="#m36d438f43f" x="34.240625" y="66.45825" style="stroke: #000000; stroke-width: 0.8"/>
      </g>
     </g>
     <g id="text_13">
      <!-- 5 -->
      <g transform="translate(20.878125 70.257469)scale(0.1 -0.1)">
       <defs>
        <path id="DejaVuSans-35" d="M 691 4666 
L 3169 4666 
L 3169 4134 
L 1269 4134 
L 1269 2991 
Q 1406 3038 1543 3061 
Q 1681 3084 1819 3084 
Q 2600 3084 3056 2656 
Q 3513 2228 3513 1497 
Q 3513 744 3044 326 
Q 2575 -91 1722 -91 
Q 1428 -91 1123 -41 
Q 819 9 494 109 
L 494 744 
Q 775 591 1075 516 
Q 1375 441 1709 441 
Q 2250 441 2565 725 
Q 2881 1009 2881 1497 
Q 2881 1984 2565 2268 
Q 2250 2553 1709 2553 
Q 1456 2553 1204 2497 
Q 953 2441 691 2322 
L 691 4666 
z
" transform="scale(0.015625)"/>
       </defs>
       <use xlink:href="#DejaVuSans-35"/>
      </g>
     </g>
    </g>
    <g id="ytick_7">
     <g id="line2d_13">
      <g>
       <use xlink:href="#m36d438f43f" x="34.240625" y="22.10625" style="stroke: #000000; stroke-width: 0.8"/>
      </g>
     </g>
     <g id="text_14">
      <!-- 6 -->
      <g transform="translate(20.878125 25.905469)scale(0.1 -0.1)">
       <use xlink:href="#DejaVuSans-36"/>
      </g>
     </g>
    </g>
    <g id="text_15">
     <!-- zShift -->
     <g transform="translate(14.798438 169.151312)rotate(-90)scale(0.1 -0.1)">
      <defs>
       <path id="DejaVuSans-7a" d="M 353 3500 
L 3084 3500 
L 3084 2975 
L 922 459 
L 3084 459 
L 3084 0 
L 275 0 
L 275 525 
L 2438 3041 
L 353 3041 
L 353 3500 
z
" transform="scale(0.015625)"/>
       <path id="DejaVuSans-53" d="M 3425 4513 
L 3425 3897 
Q 3066 4069 2747 4153 
Q 2428 4238 2131 4238 
Q 1616 4238 1336 4038 
Q 1056 3838 1056 3469 
Q 1056 3159 1242 3001 
Q 1428 2844 1947 2747 
L 2328 2669 
Q 3034 2534 3370 2195 
Q 3706 1856 3706 1288 
Q 3706 609 3251 259 
Q 2797 -91 1919 -91 
Q 1588 -91 1214 -16 
Q 841 59 441 206 
L 441 856 
Q 825 641 1194 531 
Q 1563 422 1919 422 
Q 2459 422 2753 634 
Q 3047 847 3047 1241 
Q 3047 1584 2836 1778 
Q 2625 1972 2144 2069 
L 1759 2144 
Q 1053 2284 737 2584 
Q 422 2884 422 3419 
Q 422 4038 858 4394 
Q 1294 4750 2059 4750 
Q 2388 4750 2728 4690 
Q 3069 4631 3425 4513 
z
" transform="scale(0.015625)"/>
       <path id="DejaVuSans-68" d="M 3513 2113 
L 3513 0 
L 2938 0 
L 2938 2094 
Q 2938 2591 2744 2837 
Q 2550 3084 2163 3084 
Q 1697 3084 1428 2787 
Q 1159 2491 1159 1978 
L 1159 0 
L 581 0 
L 581 4863 
L 1159 4863 
L 1159 2956 
Q 1366 3272 1645 3428 
Q 1925 3584 2291 3584 
Q 2894 3584 3203 3211 
Q 3513 2838 3513 2113 
z
" transform="scale(0.015625)"/>
       <path id="DejaVuSans-66" d="M 2375 4863 
L 2375 4384 
L 1825 4384 
Q 1516 4384 1395 4259 
Q 1275 4134 1275 3809 
L 1275 3500 
L 2222 3500 
L 2222 3053 
L 1275 3053 
L 1275 0 
L 697 0 
L 697 3053 
L 147 3053 
L 147 3500 
L 697 3500 
L 697 3744 
Q 697 4328 969 4595 
Q 1241 4863 1831 4863 
L 2375 4863 
z
" transform="scale(0.015625)"/>
      </defs>
      <use xlink:href="#DejaVuSans-7a"/>
      <use xlink:href="#DejaVuSans-53" x="52.490234"/>
      <use xlink:href="#DejaVuSans-68" x="115.966797"/>
      <use xlink:href="#DejaVuSans-69" x="179.345703"/>
      <use xlink:href="#DejaVuSans-66" x="207.128906"/>
      <use xlink:href="#DejaVuSans-74" x="240.583984"/>
     </g>
    </g>
   </g>
   <g id="PathCollection_1"/>
   <g id="PathCollection_2">
    <path d="M 34.240625 64.609326 
L 36.026225 64.183297 
L 37.847537 63.822909 
L 39.633137 63.530691 
L 41.418737 63.289383 
L 43.204337 63.090979 
L 45.025649 62.925769 
L 46.811249 62.794352 
L 48.596849 62.688196 
L 50.382449 62.603029 
L 52.203761 62.533953 
L 53.989361 62.480417 
L 54.571459 62.46657 
L 55.774961 62.431402 
L 57.560561 62.389931 
L 59.381873 62.355934 
L 61.167473 62.328193 
L 62.953073 62.303563 
L 64.738673 62.279615 
L 66.559985 62.253211 
L 68.345585 62.222426 
L 70.131185 62.183356 
L 71.916785 62.131883 
L 73.738097 62.061363 
L 75.523697 61.968237 
L 77.309297 61.843653 
L 79.094897 61.678257 
L 80.916209 61.455752 
L 82.701809 61.171024 
L 84.487409 60.804081 
L 86.273009 60.335869 
L 87.87194 59.80545 
L 88.094321 59.710283 
L 89.879921 58.761995 
L 91.665521 57.589077 
L 92.223968 57.14433 
L 93.451121 55.855411 
L 94.545745 54.48321 
L 95.272433 53.284693 
L 96.036998 51.82209 
L 97.058033 49.368285 
L 97.1346 49.16097 
L 97.978932 46.49985 
L 98.843633 43.695294 
L 98.929893 43.39521 
L 99.736006 40.73409 
L 100.629233 38.234361 
L 100.684819 38.07297 
L 101.741366 35.41185 
L 102.450545 33.923214 
L 103.008245 32.75073 
L 104.236145 30.535026 
L 104.486907 30.08961 
L 106.021745 27.655573 
L 106.16869 27.42849 
L 107.807345 25.076639 
L 108.029173 24.76737 
L 109.628657 22.628222 
L 110.030339 22.10625 
" clip-path="url(#p1fbae34ab2)" style="fill: none; stroke: #deebf7; stroke-width: 1.5"/>
    <path d="M 100.605052 288.21825 
L 99.845495 285.55713 
L 99.303607 282.89601 
L 98.938106 280.23489 
L 98.843633 279.086863 
L 98.705885 277.57377 
L 98.61131 274.91265 
L 98.659007 272.25153 
L 98.843633 269.702546 
L 98.850988 269.59041 
L 99.162738 266.92929 
L 99.732227 263.82465 
L 100.431848 261.16353 
L 100.629233 260.567351 
L 101.291087 258.50241 
L 102.381893 255.84129 
L 102.450545 255.696021 
L 103.634497 253.18017 
L 104.236145 252.067163 
L 105.07699 250.51905 
L 106.021745 248.914231 
L 106.645066 247.85793 
L 107.807345 245.934968 
L 108.248382 245.19681 
L 109.628657 242.816928 
L 109.786568 242.53569 
L 111.14004 239.87457 
L 111.414257 239.256628 
L 112.256001 237.21345 
L 113.164954 234.55233 
L 113.199857 234.41812 
L 113.790668 231.89121 
L 114.230947 229.23009 
L 114.502623 226.56897 
L 114.618789 223.90785 
L 114.566197 220.80321 
L 114.35325 218.14209 
L 113.963452 215.48097 
L 113.361113 212.81985 
L 113.199857 212.317742 
L 112.348259 210.15873 
L 111.414257 208.426668 
L 110.759695 207.49761 
L 109.628657 206.272578 
L 107.807345 204.926278 
L 107.59094 204.83649 
L 106.021745 204.320373 
L 104.236145 204.167485 
L 102.450545 204.403458 
L 101.10544 204.83649 
L 100.629233 205.009637 
L 98.843633 205.977829 
L 97.058033 207.146759 
L 96.596487 207.49761 
L 95.272433 208.568813 
L 93.451121 210.098345 
L 93.3833 210.15873 
L 91.665521 211.724563 
L 90.411601 212.81985 
L 89.879921 213.289496 
L 88.094321 214.810543 
L 87.249809 215.48097 
L 86.273009 216.262324 
L 84.487409 217.566588 
L 83.621877 218.14209 
L 82.701809 218.772565 
L 80.916209 219.882758 
L 79.225897 220.80321 
L 79.094897 220.88021 
L 77.309297 221.874925 
L 75.523697 222.760212 
L 73.738097 223.562376 
L 72.93093 223.90785 
L 71.916785 224.401657 
L 70.131185 225.240024 
L 68.345585 226.045639 
L 67.178842 226.56897 
L 66.559985 226.889549 
L 64.738673 227.847064 
L 62.953073 228.781813 
L 62.114177 229.23009 
L 61.167473 229.811237 
L 59.381873 230.909254 
L 57.749778 231.89121 
L 57.560561 232.018784 
L 55.774961 233.209264 
L 53.989361 234.312728 
L 53.581343 234.55233 
L 52.203761 235.424912 
L 50.382449 236.450673 
L 48.819132 237.21345 
L 48.596849 237.329497 
L 46.811249 238.148127 
L 45.025649 238.811811 
L 43.204337 239.339977 
L 41.418737 239.72095 
L 40.34127 239.87457 
L 39.633137 239.986478 
L 37.847537 240.131642 
L 36.026225 240.137655 
L 34.240625 240.003621 
" clip-path="url(#p1fbae34ab2)" style="fill: none; stroke: #deebf7; stroke-width: 1.5"/>
    <path d="M 325.069239 22.10625 
L 325.861833 24.76737 
L 326.757617 29.265364 
L 326.905798 30.08961 
L 327.525254 35.41185 
L 327.836776 40.73409 
L 328.018719 49.16097 
L 328.077848 73.11105 
L 328.225434 83.75553 
L 328.585221 89.52129 
L 328.949041 92.18241 
L 329.48926 94.84353 
L 330.328817 97.66566 
L 331.466475 100.16577 
L 333.170003 102.82689 
L 335.543555 105.48801 
L 337.506929 107.15356 
L 339.328241 108.592017 
L 346.506353 113.748333 
L 349.468608 116.13249 
L 350.077553 116.657421 
L 352.299844 118.79361 
L 354.655562 121.45473 
L 356.592741 124.11585 
L 358.182847 126.77697 
L 359.470396 129.43809 
L 360.862577 133.262738 
L 361.466785 135.20385 
L 362.090257 137.86497 
L 362.922481 143.18721 
L 363.395666 148.50945 
L 363.625855 153.83169 
L 363.761269 164.47617 
L 363.754395 196.85313 
L 363.576372 207.49761 
L 363.293887 212.81985 
L 362.730816 218.14209 
L 361.684852 223.90785 
L 360.862577 226.798318 
L 360.061494 229.23009 
L 358.950928 231.89121 
L 357.255665 235.328945 
L 354.643993 239.87457 
L 351.459275 245.19681 
L 350.037529 247.85793 
L 348.291953 251.955648 
L 347.851391 253.18017 
L 346.325732 258.50241 
L 344.354071 266.92929 
L 343.618938 269.59041 
L 342.724454 272.25153 
L 341.113841 276.132213 
L 340.437586 277.57377 
L 338.968055 280.23489 
L 337.28859 282.89601 
L 333.935729 287.558848 
L 333.428898 288.21825 
L 333.428898 288.21825 
" clip-path="url(#p1fbae34ab2)" style="fill: none; stroke: #deebf7; stroke-width: 1.5"/>
   </g>
   <g id="PathCollection_3">
    <path d="M 34.240625 72.424282 
L 36.026225 71.819079 
L 37.847537 71.307727 
L 39.633137 70.893428 
L 41.418737 70.551444 
L 42.052258 70.44993 
L 43.204337 70.251788 
L 45.025649 69.993163 
L 46.811249 69.78702 
L 48.596849 69.620164 
L 50.382449 69.48607 
L 52.203761 69.377221 
L 53.989361 69.29297 
L 55.774961 69.226759 
L 57.560561 69.174989 
L 59.381873 69.133831 
L 61.167473 69.102135 
L 62.953073 69.076587 
L 64.738673 69.055003 
L 66.559985 69.03493 
L 68.345585 69.015074 
L 70.131185 68.992881 
L 71.916785 68.965979 
L 73.738097 68.930858 
L 75.523697 68.885622 
L 77.309297 68.825801 
L 79.094897 68.74674 
L 80.916209 68.640466 
L 82.701809 68.504316 
L 84.487409 68.328465 
L 86.273009 68.103435 
L 88.094321 67.811664 
L 88.208974 67.78881 
L 89.879921 67.400171 
L 91.665521 66.882573 
L 93.451121 66.24171 
L 95.272433 65.436094 
L 95.852333 65.12769 
L 97.058033 64.342545 
L 98.843633 62.942747 
L 99.35937 62.46657 
L 100.629233 60.981649 
L 101.494386 59.80545 
L 102.450545 58.134138 
L 102.952468 57.14433 
L 104.022613 54.48321 
L 104.236145 53.843294 
L 104.859678 51.82209 
L 105.607171 49.16097 
L 106.021745 47.687347 
L 106.342304 46.49985 
L 107.274434 43.39521 
L 107.807345 41.893934 
L 108.216181 40.73409 
L 109.334386 38.07297 
L 109.628657 37.47277 
L 110.656976 35.41185 
L 111.414257 34.09548 
L 112.209053 32.75073 
L 113.199857 31.238582 
L 113.97549 30.08961 
L 114.985457 28.688603 
L 115.919214 27.42849 
L 116.806769 26.273387 
L 117.992408 24.76737 
L 118.592369 24.01636 
L 120.155879 22.10625 
" clip-path="url(#p1fbae34ab2)" style="fill: none; stroke: #c6dbef; stroke-width: 1.5"/>
    <path d="M 108.942304 288.21825 
L 107.994614 285.55713 
L 107.807345 284.841621 
L 107.293198 282.89601 
L 106.818308 280.23489 
L 106.544904 277.57377 
L 106.451828 274.91265 
L 106.530568 272.25153 
L 106.784003 269.59041 
L 107.225361 266.92929 
L 107.807345 264.590805 
L 107.996615 263.82465 
L 108.875005 261.16353 
L 109.628657 259.357032 
L 109.988331 258.50241 
L 111.315581 255.84129 
L 111.414257 255.663526 
L 112.810368 253.18017 
L 113.199857 252.531784 
L 114.413806 250.51905 
L 114.985457 249.57948 
L 116.019862 247.85793 
L 116.806769 246.486058 
L 117.523279 245.19681 
L 118.592369 243.066207 
L 118.846089 242.53569 
L 119.930201 239.87457 
L 120.377969 238.533807 
L 120.789843 237.21345 
L 121.434172 234.55233 
L 121.910846 231.89121 
L 122.163569 229.860501 
L 122.236322 229.23009 
L 122.428502 226.56897 
L 122.522878 223.90785 
L 122.522938 220.80321 
L 122.429666 218.14209 
L 122.240642 215.48097 
L 122.163569 214.803286 
L 121.918216 212.81985 
L 121.437755 210.15873 
L 120.773811 207.49761 
L 120.377969 206.298341 
L 119.844707 204.83649 
L 118.606929 202.17537 
L 118.592369 202.14993 
L 116.895771 199.51425 
L 116.806769 199.398151 
L 114.985457 197.335543 
L 114.478386 196.85313 
L 113.199857 195.797868 
L 111.414257 194.613305 
L 110.563575 194.19201 
L 109.628657 193.77856 
L 107.807345 193.256131 
L 106.021745 193.024237 
L 104.236145 193.066165 
L 102.450545 193.370935 
L 100.629233 193.934165 
L 100.040525 194.19201 
L 98.843633 194.756956 
L 97.058033 195.805588 
L 95.524877 196.85313 
L 95.272433 197.037771 
L 93.451121 198.530635 
L 92.333392 199.51425 
L 91.665521 200.131769 
L 89.879921 201.851307 
L 89.553676 202.17537 
L 88.094321 203.653939 
L 86.911745 204.83649 
L 86.273009 205.474158 
L 84.487409 207.196053 
L 84.163131 207.49761 
L 82.701809 208.825574 
L 81.095368 210.15873 
L 80.916209 210.304139 
L 79.094897 211.693083 
L 77.425504 212.81985 
L 77.309297 212.89769 
L 75.523697 214.016341 
L 73.738097 215.008101 
L 72.809409 215.48097 
L 71.916785 215.947485 
L 70.131185 216.814103 
L 68.345585 217.61366 
L 67.102875 218.14209 
L 66.559985 218.389387 
L 64.738673 219.200235 
L 62.953073 219.976161 
L 61.167473 220.747564 
L 61.040749 220.80321 
L 59.381873 221.61636 
L 57.560561 222.514452 
L 55.774961 223.401981 
L 54.764516 223.90785 
L 53.989361 224.3401 
L 52.203761 225.319238 
L 50.382449 226.279602 
L 49.803304 226.56897 
L 48.596849 227.214328 
L 46.811249 228.076751 
L 45.025649 228.825905 
L 43.86681 229.23009 
L 43.204337 229.470462 
L 41.418737 229.966726 
L 39.633137 230.298857 
L 37.847537 230.460387 
L 36.026225 230.441447 
L 34.240625 230.232753 
" clip-path="url(#p1fbae34ab2)" style="fill: none; stroke: #c6dbef; stroke-width: 1.5"/>
    <path d="M 316.75918 22.10625 
L 317.793905 24.907914 
L 318.533717 27.42849 
L 319.112119 30.08961 
L 319.855773 35.41185 
L 320.24359 40.73409 
L 320.427622 46.49985 
L 320.514864 59.80545 
L 320.630378 83.75553 
L 320.870108 89.52129 
L 321.411912 94.84353 
L 321.918945 97.50465 
L 322.636046 100.16577 
L 323.660399 102.82689 
L 325.085589 105.48801 
L 327.076124 108.14913 
L 329.756718 110.81025 
L 333.171861 113.47137 
L 341.113841 118.978951 
L 344.166035 121.45473 
L 346.506353 123.724169 
L 346.872951 124.11585 
L 349.048128 126.77697 
L 350.777653 129.43809 
L 352.13968 132.09921 
L 353.684465 136.288447 
L 354.155837 137.86497 
L 354.758855 140.52609 
L 355.470065 145.424535 
L 355.76585 148.50945 
L 356.047844 153.83169 
L 356.195044 161.81505 
L 356.228975 186.20865 
L 356.12541 202.17537 
L 355.946361 207.49761 
L 355.560261 212.81985 
L 354.848996 218.14209 
L 354.298972 220.80321 
L 353.443964 223.90785 
L 352.517149 226.56897 
L 351.375012 229.23009 
L 350.023645 231.89121 
L 346.895776 237.21345 
L 343.751999 242.53569 
L 342.398021 245.19681 
L 341.113841 248.207881 
L 340.306394 250.51905 
L 339.328241 253.883611 
L 336.120239 266.92929 
L 335.209954 269.59041 
L 333.935729 272.598052 
L 332.150129 276.034201 
L 330.328817 278.9753 
L 328.543217 281.536893 
L 325.463633 285.55713 
L 323.299987 288.21825 
L 323.299987 288.21825 
" clip-path="url(#p1fbae34ab2)" style="fill: none; stroke: #c6dbef; stroke-width: 1.5"/>
   </g>
   <g id="PathCollection_4">
    <path d="M 34.240625 78.928282 
L 35.204732 78.43329 
L 36.026225 78.041383 
L 37.847537 77.301796 
L 39.633137 76.70282 
L 41.418737 76.208451 
L 43.204337 75.801916 
L 43.360664 75.77217 
L 45.025649 75.45617 
L 46.811249 75.179862 
L 48.596849 74.956004 
L 50.382449 74.775913 
L 52.203761 74.629587 
L 53.989361 74.516267 
L 55.774961 74.427269 
L 57.560561 74.357896 
L 59.381873 74.30319 
L 61.167473 74.261802 
L 62.953073 74.229571 
L 64.738673 74.203936 
L 66.559985 74.182234 
L 68.345585 74.163207 
L 70.131185 74.144405 
L 71.916785 74.12382 
L 73.738097 74.098764 
L 75.523697 74.067791 
L 77.309297 74.027703 
L 79.094897 73.975267 
L 80.916209 73.905091 
L 82.701809 73.815299 
L 84.487409 73.699294 
L 86.273009 73.550709 
L 88.094321 73.357822 
L 89.879921 73.11928 
L 89.930005 73.11105 
L 91.665521 72.801299 
L 93.451121 72.406174 
L 95.272433 71.908526 
L 97.058033 71.309754 
L 98.843633 70.580052 
L 99.114255 70.44993 
L 100.629233 69.609323 
L 102.450545 68.390508 
L 103.21513 67.78881 
L 104.236145 66.81825 
L 105.75685 65.12769 
L 106.021745 64.760227 
L 107.48315 62.46657 
L 107.807345 61.820456 
L 108.728526 59.80545 
L 109.628657 57.330855 
L 109.692278 57.14433 
L 110.46751 54.48321 
L 111.174224 51.82209 
L 111.414257 50.919608 
L 111.874552 49.16097 
L 112.641354 46.49985 
L 113.199857 44.850805 
L 113.701529 43.39521 
L 114.808336 40.73409 
L 114.985457 40.369241 
L 116.133042 38.07297 
L 116.806769 36.904279 
L 117.695855 35.41185 
L 118.592369 34.055192 
L 119.481639 32.75073 
L 120.377969 31.521975 
L 121.450332 30.08961 
L 122.163569 29.17338 
L 123.551223 27.42849 
L 123.984881 26.895189 
L 125.753175 24.76737 
L 125.770481 24.746904 
L 127.556081 22.678779 
L 128.067301 22.10625 
" clip-path="url(#p1fbae34ab2)" style="fill: none; stroke: #9dcae1; stroke-width: 1.5"/>
    <path d="M 115.699513 288.21825 
L 114.985457 286.740651 
L 114.445369 285.55713 
L 113.55478 282.89601 
L 113.199857 281.3178 
L 112.960113 280.23489 
L 112.619081 277.57377 
L 112.509086 274.91265 
L 112.617616 272.25153 
L 112.944949 269.59041 
L 113.199857 268.354702 
L 113.495824 266.92929 
L 114.435311 263.82465 
L 114.985457 262.442571 
L 115.506198 261.16353 
L 116.806769 258.512808 
L 116.811995 258.50241 
L 118.304584 255.84129 
L 118.592369 255.361742 
L 119.910585 253.18017 
L 120.377969 252.412888 
L 121.520766 250.51905 
L 122.163569 249.39996 
L 123.026422 247.85793 
L 123.984881 245.955264 
L 124.352553 245.19681 
L 125.456249 242.53569 
L 125.770481 241.615172 
L 126.337037 239.87457 
L 127.017127 237.21345 
L 127.529278 234.55233 
L 127.556081 234.360699 
L 127.88729 231.89121 
L 128.129398 229.23009 
L 128.277899 226.56897 
L 128.348913 223.90785 
L 128.345795 220.80321 
L 128.270201 218.14209 
L 128.118847 215.48097 
L 127.87565 212.81985 
L 127.556081 210.439256 
L 127.516844 210.15873 
L 127.001447 207.49761 
L 126.311984 204.83649 
L 125.770481 203.214297 
L 125.403489 202.17537 
L 124.233976 199.51425 
L 123.984881 199.042971 
L 122.743002 196.85313 
L 122.163569 195.97754 
L 120.879306 194.19201 
L 120.377969 193.574623 
L 118.592369 191.578749 
L 118.544496 191.53089 
L 116.806769 189.942771 
L 115.456486 188.86977 
L 114.985457 188.518912 
L 113.199857 187.394964 
L 111.414257 186.489235 
L 110.676496 186.20865 
L 109.628657 185.826522 
L 107.807345 185.394706 
L 106.021745 185.203924 
L 104.236145 185.244919 
L 102.450545 185.515364 
L 100.629233 186.020919 
L 100.155778 186.20865 
L 98.843633 186.745562 
L 97.058033 187.672805 
L 95.272433 188.778549 
L 95.14368 188.86977 
L 93.451121 190.104844 
L 91.679568 191.53089 
L 91.665521 191.542607 
L 89.879921 193.144357 
L 88.772954 194.19201 
L 88.094321 194.853745 
L 86.273009 196.689058 
L 86.114288 196.85313 
L 84.487409 198.553979 
L 83.566852 199.51425 
L 82.701809 200.410353 
L 80.948244 202.17537 
L 80.916209 202.206779 
L 79.094897 203.929357 
L 78.069709 204.83649 
L 77.309297 205.479092 
L 75.523697 206.876692 
L 74.660997 207.49761 
L 73.738097 208.132902 
L 71.916785 209.275782 
L 70.356544 210.15873 
L 70.131185 210.283354 
L 68.345585 211.202188 
L 66.559985 212.041324 
L 64.773887 212.81985 
L 64.738673 212.835426 
L 62.953073 213.592177 
L 61.167473 214.316795 
L 59.381873 215.022807 
L 58.207983 215.48097 
L 57.560561 215.748549 
L 55.774961 216.48019 
L 53.989361 217.21029 
L 52.203761 217.938498 
L 51.691195 218.14209 
L 50.382449 218.701893 
L 48.596849 219.43146 
L 46.811249 220.113539 
L 45.025649 220.726626 
L 44.753914 220.80321 
L 43.204337 221.2639 
L 41.418737 221.651351 
L 39.633137 221.869465 
L 37.847537 221.887882 
L 36.026225 221.667333 
L 34.240625 221.180737 
" clip-path="url(#p1fbae34ab2)" style="fill: none; stroke: #9dcae1; stroke-width: 1.5"/>
    <path d="M 310.038622 22.10625 
L 311.357029 24.76737 
L 312.401393 27.64047 
L 313.077593 30.08961 
L 313.61498 32.75073 
L 314.275578 38.07297 
L 314.596779 43.39521 
L 314.763125 51.82209 
L 315.07221 89.52129 
L 315.484664 94.84353 
L 315.972593 98.161401 
L 316.376594 100.16577 
L 317.119163 102.82689 
L 318.140466 105.48801 
L 319.579505 108.227525 
L 321.403169 110.81025 
L 323.901973 113.47137 
L 327.100614 116.13249 
L 332.150129 119.600212 
L 335.721329 122.037974 
L 338.449661 124.11585 
L 341.113841 126.529617 
L 341.360976 126.77697 
L 343.650242 129.43809 
L 345.427422 132.09921 
L 346.987916 135.20385 
L 348.291953 138.964516 
L 348.726748 140.52609 
L 349.278806 143.18721 
L 349.677616 145.84833 
L 350.158689 151.17057 
L 350.381978 156.49281 
L 350.49603 167.13729 
L 350.463685 196.85313 
L 350.279605 204.83649 
L 349.943028 210.15873 
L 349.280005 215.48097 
L 348.291953 219.957892 
L 348.071871 220.80321 
L 346.506353 225.159677 
L 345.902224 226.56897 
L 344.558798 229.23009 
L 341.113841 235.039191 
L 338.261258 239.87457 
L 336.907111 242.53569 
L 335.721329 245.275123 
L 334.800607 247.85793 
L 333.935729 250.765746 
L 332.718465 255.84129 
L 331.488807 261.16353 
L 330.328817 265.142366 
L 329.729817 266.92929 
L 328.543217 269.780768 
L 326.757617 273.227717 
L 324.972017 276.106422 
L 323.150705 278.704553 
L 319.579505 283.297126 
L 315.390044 288.21825 
L 315.390044 288.21825 
" clip-path="url(#p1fbae34ab2)" style="fill: none; stroke: #9dcae1; stroke-width: 1.5"/>
   </g>
   <g id="PathCollection_5">
    <path d="M 34.240625 85.964849 
L 36.026225 84.514924 
L 37.138898 83.75553 
L 37.847537 83.33808 
L 39.633137 82.444 
L 41.418737 81.706604 
L 43.204337 81.100502 
L 43.22574 81.09441 
L 45.025649 80.622416 
L 46.811249 80.241263 
L 48.596849 79.932331 
L 50.382449 79.683646 
L 52.203761 79.481437 
L 53.989361 79.324732 
L 55.774961 79.201622 
L 57.560561 79.105723 
L 59.381873 79.030313 
L 61.167473 78.973675 
L 62.953073 78.930246 
L 64.738673 78.896732 
L 66.559985 78.86985 
L 68.345585 78.848172 
L 70.131185 78.828929 
L 71.916785 78.810087 
L 73.738097 78.789204 
L 75.523697 78.76499 
L 77.309297 78.734798 
L 79.094897 78.696079 
L 80.916209 78.644755 
L 82.701809 78.579345 
L 84.487409 78.49494 
L 85.508745 78.43329 
L 86.273009 78.387309 
L 88.094321 78.248269 
L 89.879921 78.076032 
L 91.665521 77.860631 
L 93.451121 77.593259 
L 95.272433 77.256315 
L 97.058033 76.850738 
L 98.843633 76.356358 
L 100.583727 75.77217 
L 100.629233 75.755823 
L 102.450545 74.988688 
L 104.236145 74.078214 
L 105.818481 73.11105 
L 106.021745 72.970096 
L 107.807345 71.545593 
L 108.97304 70.44993 
L 109.628657 69.714022 
L 111.130058 67.78881 
L 111.414257 67.338601 
L 112.679596 65.12769 
L 113.199857 63.980995 
L 113.843079 62.46657 
L 114.752995 59.80545 
L 114.985457 59.000877 
L 115.509458 57.14433 
L 116.191065 54.48321 
L 116.806769 52.063024 
L 116.868664 51.82209 
L 117.61258 49.16097 
L 118.475069 46.49985 
L 118.592369 46.195998 
L 119.716132 43.39521 
L 120.377969 42.019387 
L 121.021632 40.73409 
L 122.163569 38.753688 
L 122.571632 38.07297 
L 123.984881 35.951827 
L 124.356452 35.41185 
L 125.770481 33.498489 
L 126.336548 32.75073 
L 127.556081 31.211101 
L 128.461432 30.08961 
L 129.341681 29.03295 
L 130.70659 27.42849 
L 131.162993 26.908722 
L 132.948593 24.937607 
L 133.108247 24.76737 
L 134.734193 23.122454 
L 135.800079 22.10625 
" clip-path="url(#p1fbae34ab2)" style="fill: none; stroke: #6aaed6; stroke-width: 1.5"/>
    <path d="M 122.547426 288.21825 
L 122.163569 287.689214 
L 120.776798 285.55713 
L 120.377969 284.727749 
L 119.566137 282.89601 
L 118.772538 280.23489 
L 118.592369 279.185668 
L 118.327417 277.57377 
L 118.181712 274.91265 
L 118.310232 272.25153 
L 118.592369 270.346899 
L 118.707665 269.59041 
L 119.379849 266.92929 
L 120.377969 264.155981 
L 120.501936 263.82465 
L 121.748876 261.16353 
L 122.163569 260.395111 
L 123.209624 258.50241 
L 123.984881 257.198967 
L 124.800061 255.84129 
L 125.770481 254.240789 
L 126.409024 253.18017 
L 127.556081 251.17703 
L 127.925092 250.51905 
L 129.267731 247.85793 
L 129.341681 247.689293 
L 130.399976 245.19681 
L 131.162993 242.995426 
L 131.317964 242.53569 
L 132.038829 239.87457 
L 132.587134 237.21345 
L 132.948593 234.837084 
L 132.991449 234.55233 
L 133.278737 231.89121 
L 133.469735 229.23009 
L 133.583692 226.56897 
L 133.634683 223.90785 
L 133.624657 220.80321 
L 133.556529 218.14209 
L 133.425243 215.48097 
L 133.215773 212.81985 
L 132.948593 210.51145 
L 132.907656 210.15873 
L 132.479116 207.49761 
L 131.901586 204.83649 
L 131.162993 202.234352 
L 131.145868 202.17537 
L 130.184525 199.51425 
L 129.341681 197.619205 
L 128.987511 196.85313 
L 127.556081 194.240461 
L 127.528168 194.19201 
L 125.774497 191.53089 
L 125.770481 191.525407 
L 123.984881 189.223503 
L 123.689882 188.86977 
L 122.163569 187.168712 
L 121.225315 186.20865 
L 120.377969 185.382009 
L 118.592369 183.802278 
L 118.27174 183.54753 
L 116.806769 182.414619 
L 114.985457 181.194341 
L 114.443664 180.88641 
L 113.199857 180.188013 
L 111.414257 179.377822 
L 109.628657 178.766179 
L 107.807345 178.350103 
L 106.695117 178.22529 
L 106.021745 178.149168 
L 104.236145 178.156842 
L 103.673475 178.22529 
L 102.450545 178.374518 
L 100.629233 178.811412 
L 98.843633 179.447965 
L 97.058033 180.286157 
L 96.01303 180.88641 
L 95.272433 181.313986 
L 93.451121 182.535025 
L 92.117489 183.54753 
L 91.665521 183.892073 
L 89.879921 185.375389 
L 88.948615 186.20865 
L 88.094321 186.97788 
L 86.273009 188.713364 
L 86.115428 188.86977 
L 84.487409 190.499067 
L 83.489855 191.53089 
L 82.701809 192.352228 
L 80.964805 194.19201 
L 80.916209 194.24337 
L 79.094897 196.159084 
L 78.426794 196.85313 
L 77.309297 197.977983 
L 75.725104 199.51425 
L 75.523697 199.69983 
L 73.738097 201.259256 
L 72.612802 202.17537 
L 71.916785 202.703811 
L 70.131185 203.953355 
L 68.74885 204.83649 
L 68.345585 205.077797 
L 66.559985 206.058604 
L 64.738673 206.967137 
L 63.580952 207.49761 
L 62.953073 207.774314 
L 61.167473 208.504192 
L 59.381873 209.185945 
L 57.560561 209.842814 
L 56.634371 210.15873 
L 55.774961 210.453541 
L 53.989361 211.033504 
L 52.203761 211.585718 
L 50.382449 212.115583 
L 48.596849 212.591898 
L 47.599743 212.81985 
L 46.811249 213.007868 
L 45.025649 213.335887 
L 43.204337 213.546399 
L 41.418737 213.590069 
L 39.633137 213.422482 
L 37.847537 212.983523 
L 37.453562 212.81985 
L 36.026225 212.147899 
L 34.240625 210.84491 
" clip-path="url(#p1fbae34ab2)" style="fill: none; stroke: #6aaed6; stroke-width: 1.5"/>
    <path d="M 303.249995 22.10625 
L 303.437681 22.34988 
L 305.223281 24.992361 
L 306.428945 27.42849 
L 307.395416 30.08961 
L 308.088393 32.75073 
L 308.794481 36.988313 
L 309.170951 40.73409 
L 309.442631 46.49985 
L 309.560928 57.14433 
L 309.700565 86.41665 
L 309.932876 92.18241 
L 310.422208 97.50465 
L 310.837599 100.16577 
L 311.416462 102.82689 
L 312.401393 105.992138 
L 313.269571 108.14913 
L 314.673638 110.81025 
L 316.514177 113.47137 
L 318.904934 116.13249 
L 321.365105 118.316469 
L 323.150705 119.696427 
L 326.757617 122.197149 
L 332.150129 125.865704 
L 333.935729 127.232018 
L 336.430145 129.43809 
L 338.80051 132.09921 
L 339.328241 132.847159 
L 341.113841 135.72235 
L 342.128939 137.86497 
L 343.080563 140.52609 
L 343.770464 143.18721 
L 344.270203 145.84833 
L 344.868216 151.17057 
L 345.135731 156.49281 
L 345.258402 164.47617 
L 345.275778 188.86977 
L 345.183355 199.51425 
L 344.994042 204.83649 
L 344.569799 210.15873 
L 344.215877 212.81985 
L 343.733378 215.48097 
L 342.899441 218.768132 
L 342.250891 220.80321 
L 340.998598 223.90785 
L 339.328241 227.200958 
L 336.547168 231.89121 
L 333.375311 237.21345 
L 332.005278 239.87457 
L 330.328817 243.889925 
L 329.853821 245.19681 
L 328.543217 249.751216 
L 327.724439 253.18017 
L 326.506599 258.50241 
L 325.79808 261.16353 
L 324.957162 263.82465 
L 323.150705 268.141123 
L 322.429664 269.59041 
L 320.882764 272.25153 
L 319.099256 274.91265 
L 315.972593 279.023842 
L 312.401393 283.295024 
L 308.794481 287.131914 
L 307.657559 288.21825 
L 307.657559 288.21825 
" clip-path="url(#p1fbae34ab2)" style="fill: none; stroke: #6aaed6; stroke-width: 1.5"/>
   </g>
   <g id="PathCollection_6">
    <path d="M 34.240625 97.571788 
L 34.260637 97.50465 
L 35.356138 94.84353 
L 36.026225 93.65023 
L 36.968905 92.18241 
L 37.847537 91.137016 
L 39.447642 89.52129 
L 39.633137 89.373467 
L 41.418737 88.15468 
L 43.204337 87.153628 
L 44.809081 86.41665 
L 45.025649 86.333078 
L 46.811249 85.75873 
L 48.596849 85.293124 
L 50.382449 84.918159 
L 52.203761 84.613081 
L 53.989361 84.376485 
L 55.774961 84.19049 
L 57.560561 84.045573 
L 59.381873 83.931708 
L 61.167473 83.846451 
L 62.953073 83.781571 
L 63.896002 83.75553 
L 64.738673 83.734311 
L 66.559985 83.699326 
L 68.345585 83.67265 
L 70.131185 83.650919 
L 71.916785 83.631878 
L 73.738097 83.613105 
L 75.523697 83.593354 
L 77.309297 83.570294 
L 79.094897 83.541846 
L 80.916209 83.504898 
L 82.701809 83.458259 
L 84.487409 83.398292 
L 86.273009 83.321524 
L 88.094321 83.221716 
L 89.879921 83.097993 
L 91.665521 82.943136 
L 93.451121 82.750763 
L 95.272433 82.508183 
L 97.058033 82.216074 
L 98.843633 81.859955 
L 100.629233 81.427797 
L 101.782992 81.09441 
L 102.450545 80.9024 
L 104.236145 80.29633 
L 106.021745 79.565705 
L 107.807345 78.685906 
L 108.254452 78.43329 
L 109.628657 77.603429 
L 111.414257 76.320082 
L 112.078732 75.77217 
L 113.199857 74.727431 
L 114.695581 73.11105 
L 114.985457 72.740709 
L 116.592047 70.44993 
L 116.806769 70.073102 
L 118.016079 67.78881 
L 118.592369 66.418632 
L 119.113919 65.12769 
L 119.988614 62.46657 
L 120.377969 61.05918 
L 120.726121 59.80545 
L 121.397802 57.14433 
L 122.054311 54.48321 
L 122.163569 54.071556 
L 122.786098 51.82209 
L 123.626545 49.16097 
L 123.984881 48.199632 
L 124.652712 46.49985 
L 125.770481 44.121802 
L 126.129877 43.39521 
L 127.556081 40.922166 
L 127.669432 40.73409 
L 129.341681 38.244045 
L 129.460499 38.07297 
L 131.162993 35.803393 
L 131.46357 35.41185 
L 132.948593 33.580797 
L 133.633663 32.75073 
L 134.734193 31.476576 
L 135.957661 30.08961 
L 136.519793 29.483847 
L 138.341105 27.591414 
L 138.505329 27.42849 
L 140.126705 25.942423 
L 141.496311 24.76737 
L 141.912305 24.443666 
L 143.697905 23.176545 
L 145.379693 22.10625 
" clip-path="url(#p1fbae34ab2)" style="fill: none; stroke: #4191c6; stroke-width: 1.5"/>
    <path d="M 131.383452 288.21825 
L 131.162993 288.063013 
L 129.341681 286.565433 
L 128.295692 285.55713 
L 127.556081 284.616518 
L 126.374193 282.89601 
L 125.182913 280.23489 
L 124.517823 277.57377 
L 124.271332 274.91265 
L 124.400528 272.25153 
L 124.873509 269.59041 
L 125.770481 266.66165 
L 127.556081 262.712877 
L 129.341681 259.506958 
L 133.028305 253.18017 
L 134.734193 249.717634 
L 135.535469 247.85793 
L 136.519793 245.027601 
L 137.231748 242.53569 
L 137.814883 239.87457 
L 138.577892 234.55233 
L 138.957595 229.23009 
L 139.077531 223.90785 
L 138.997017 218.14209 
L 138.693725 212.81985 
L 138.048997 207.49761 
L 137.551438 204.83649 
L 136.519793 200.968301 
L 136.069197 199.51425 
L 134.734193 196.172754 
L 133.810099 194.19201 
L 132.334981 191.53089 
L 130.614148 188.86977 
L 128.641783 186.20865 
L 125.770481 182.829957 
L 122.163569 179.2044 
L 120.377969 177.639032 
L 118.592369 176.22317 
L 116.806769 174.984852 
L 114.985457 173.866084 
L 111.995174 172.45953 
L 111.414257 172.215413 
L 109.628657 171.638193 
L 107.807345 171.235039 
L 106.021745 171.019365 
L 104.236145 170.981722 
L 102.450545 171.124541 
L 100.629233 171.460623 
L 98.843633 171.982947 
L 97.058033 172.694729 
L 95.272433 173.582889 
L 92.8424 175.12065 
L 91.665521 175.940237 
L 88.094321 178.890149 
L 84.487409 182.282149 
L 79.094897 187.824653 
L 73.738097 193.437364 
L 71.916785 195.191672 
L 70.065097 196.85313 
L 66.494477 199.51425 
L 62.953073 201.523797 
L 61.167473 202.375664 
L 57.560561 203.737322 
L 53.824767 204.83649 
L 50.382449 205.504943 
L 48.596849 205.71538 
L 46.811249 205.80356 
L 45.025649 205.733379 
L 43.204337 205.447572 
L 41.304193 204.83649 
L 39.633137 203.884746 
L 37.69836 202.17537 
L 35.894096 199.51425 
L 34.757332 196.85313 
L 34.240625 195.214954 
L 34.240625 195.214954 
" clip-path="url(#p1fbae34ab2)" style="fill: none; stroke: #4191c6; stroke-width: 1.5"/>
    <path d="M 294.530399 22.10625 
L 296.259569 23.44299 
L 298.045169 25.144438 
L 299.830769 27.493412 
L 301.192344 30.08961 
L 302.171175 32.75073 
L 302.852784 35.41185 
L 303.437681 38.920447 
L 303.855286 43.39521 
L 304.075995 49.16097 
L 304.175379 62.46657 
L 304.283387 86.41665 
L 304.477092 92.18241 
L 304.88058 97.50465 
L 305.225407 100.16577 
L 305.687518 102.82689 
L 306.321029 105.48801 
L 307.168015 108.14913 
L 308.794481 111.850596 
L 309.668499 113.47137 
L 311.470747 116.13249 
L 313.76001 118.79361 
L 315.972593 120.886097 
L 317.793905 122.390618 
L 321.365105 124.975642 
L 327.910425 129.43809 
L 330.328817 131.39426 
L 331.136506 132.09921 
L 333.935729 135.142774 
L 333.986012 135.20385 
L 335.739823 137.86497 
L 337.005874 140.52609 
L 337.927824 143.18721 
L 338.579015 145.84833 
L 339.043252 148.50945 
L 339.363464 151.17057 
L 339.699346 156.49281 
L 339.851591 164.47617 
L 339.880592 186.20865 
L 339.751199 199.51425 
L 339.50674 204.83649 
L 339.284356 207.49761 
L 338.954494 210.15873 
L 338.501225 212.81985 
L 337.506929 216.809805 
L 337.092368 218.14209 
L 335.721329 221.548904 
L 333.935729 225.065488 
L 331.461798 229.23009 
L 328.287956 234.55233 
L 326.757617 237.546664 
L 325.717477 239.87457 
L 324.72459 242.53569 
L 323.886489 245.19681 
L 322.546832 250.51905 
L 321.33689 255.84129 
L 319.810941 261.16353 
L 318.792246 263.82465 
L 317.32039 266.92929 
L 315.783895 269.59041 
L 313.994358 272.25153 
L 310.615793 276.611857 
L 307.500343 280.23489 
L 304.949233 282.89601 
L 301.616369 285.827418 
L 298.082559 288.21825 
L 298.082559 288.21825 
" clip-path="url(#p1fbae34ab2)" style="fill: none; stroke: #4191c6; stroke-width: 1.5"/>
   </g>
   <g id="PathCollection_7">
    <path d="M 39.455157 183.54753 
L 39.157558 180.88641 
L 38.955999 178.22529 
L 38.807713 175.12065 
L 38.73182 172.45953 
L 38.685676 169.79841 
L 38.656306 167.13729 
L 38.634871 164.47617 
L 38.617011 161.81505 
L 38.602168 159.15393 
L 38.591858 156.49281 
L 38.587519 153.83169 
L 38.588872 151.17057 
L 38.593522 148.50945 
L 38.5979 145.84833 
L 38.598982 143.18721 
L 38.595807 140.52609 
L 38.58994 137.86497 
L 38.58464 135.20385 
L 38.583482 132.09921 
L 38.588637 129.43809 
L 38.599034 126.77697 
L 38.613459 124.11585 
L 38.632237 121.45473 
L 38.659695 118.79361 
L 38.705992 116.13249 
L 38.787966 113.47137 
L 38.92941 110.81025 
L 39.161624 108.14913 
L 39.525154 105.48801 
L 39.633137 104.957519 
L 40.124088 102.82689 
L 41.021382 100.16577 
L 41.418737 99.330141 
L 42.430143 97.50465 
L 43.204337 96.486232 
L 44.697989 94.84353 
L 45.025649 94.570542 
L 46.811249 93.331916 
L 48.596849 92.328992 
L 48.916572 92.18241 
L 50.382449 91.647522 
L 52.203761 91.115474 
L 53.989361 90.702532 
L 55.774961 90.377626 
L 57.560561 90.124283 
L 59.381873 89.925171 
L 61.167473 89.776221 
L 62.953073 89.663263 
L 64.738673 89.578225 
L 66.336991 89.52129 
L 66.559985 89.514698 
L 68.345585 89.475052 
L 70.131185 89.444755 
L 71.916785 89.420742 
L 73.738097 89.400047 
L 75.523697 89.381205 
L 77.309297 89.361753 
L 79.094897 89.339747 
L 80.916209 89.312632 
L 82.701809 89.279354 
L 84.487409 89.237138 
L 86.273009 89.183401 
L 88.094321 89.113657 
L 89.879921 89.027183 
L 91.665521 88.918832 
L 93.451121 88.784048 
L 95.272433 88.613852 
L 97.058033 88.408653 
L 98.843633 88.158236 
L 100.629233 87.85412 
L 102.450545 87.478184 
L 104.236145 87.032987 
L 106.021745 86.497411 
L 106.25675 86.41665 
L 107.807345 85.922811 
L 109.628657 85.22839 
L 111.414257 84.407399 
L 112.621666 83.75553 
L 113.199857 83.442666 
L 114.985457 82.333395 
L 116.641375 81.09441 
L 116.806769 80.962355 
L 118.592369 79.368839 
L 119.499829 78.43329 
L 120.377969 77.407872 
L 121.629819 75.77217 
L 122.163569 74.943514 
L 123.261408 73.11105 
L 123.984881 71.613166 
L 124.527331 70.44993 
L 125.526605 67.78881 
L 125.770481 66.999786 
L 126.358311 65.12769 
L 127.06619 62.46657 
L 127.556081 60.425621 
L 127.713165 59.80545 
L 128.389399 57.14433 
L 129.105597 54.48321 
L 129.341681 53.716677 
L 129.970222 51.82209 
L 130.997441 49.16097 
L 131.162993 48.799235 
L 132.285867 46.49985 
L 132.948593 45.339468 
L 134.108953 43.39521 
L 134.734193 42.472479 
L 135.953359 40.73409 
L 136.519793 39.993682 
L 138.023152 38.07297 
L 138.341105 37.693664 
L 140.126705 35.61227 
L 140.303545 35.41185 
L 141.912305 33.718832 
L 142.8571 32.75073 
L 143.697905 31.9631 
L 145.519217 30.343587 
L 145.82611 30.08961 
L 147.304817 29.013317 
L 149.090417 27.82483 
L 149.755135 27.42849 
L 150.876017 26.858127 
L 152.697329 26.052036 
L 154.482929 25.373133 
L 156.268529 24.797123 
L 156.378966 24.76737 
L 158.054129 24.389344 
L 159.875441 24.053714 
L 161.661041 23.788441 
L 163.446641 23.576767 
L 165.232241 23.409951 
L 167.053553 23.277849 
L 168.839153 23.178593 
L 170.624753 23.103274 
L 172.410353 23.046837 
L 174.231665 23.004369 
L 176.017265 22.974058 
L 177.802865 22.952202 
L 179.588465 22.936643 
L 181.409777 22.925525 
L 183.195377 22.917991 
L 184.980977 22.912828 
L 186.766577 22.909334 
L 188.587889 22.906959 
L 190.373489 22.905429 
L 192.159089 22.904432 
L 193.944689 22.903791 
L 195.766001 22.90338 
L 197.551601 22.903132 
L 199.337201 22.902981 
L 201.122801 22.90289 
L 202.944113 22.902833 
L 204.729713 22.902799 
L 206.515313 22.902776 
L 208.300913 22.90276 
L 210.122225 22.902749 
L 211.907825 22.902744 
L 213.693425 22.902742 
L 215.479025 22.902744 
L 217.300337 22.902748 
L 219.085937 22.902752 
L 220.871537 22.902754 
L 222.657137 22.902753 
L 224.478449 22.90275 
L 226.264049 22.902746 
L 228.049649 22.902743 
L 229.835249 22.902743 
L 231.656561 22.902748 
L 233.442161 22.902758 
L 235.227761 22.902774 
L 237.013361 22.902798 
L 238.834673 22.902835 
L 240.620273 22.902893 
L 242.405873 22.902987 
L 244.191473 22.903144 
L 246.012785 22.90341 
L 247.798385 22.903834 
L 249.583985 22.904509 
L 251.369585 22.905569 
L 253.190897 22.907247 
L 254.976497 22.909766 
L 256.762097 22.913556 
L 258.547697 22.919194 
L 260.369009 22.927674 
L 262.154609 22.939775 
L 263.940209 22.957109 
L 265.725809 22.981623 
L 267.547121 23.016665 
L 269.332721 23.064178 
L 271.118321 23.128878 
L 272.903921 23.215902 
L 274.725233 23.334204 
L 276.510833 23.486891 
L 278.296433 23.685061 
L 280.082033 23.939401 
L 281.903345 24.269589 
L 283.688945 24.677246 
L 284.008569 24.76737 
L 285.474545 25.274143 
L 287.260145 26.033571 
L 289.081457 26.981964 
L 289.794411 27.42849 
L 290.867057 28.286656 
L 292.652657 29.994221 
L 292.737918 30.08961 
L 294.438257 32.615847 
L 294.516609 32.75073 
L 295.649885 35.41185 
L 296.259569 37.442944 
L 296.426758 38.07297 
L 296.914682 40.73409 
L 297.237917 43.39521 
L 297.468437 46.49985 
L 297.581533 49.16097 
L 297.646181 51.82209 
L 297.683176 54.48321 
L 297.706483 57.14433 
L 297.72359 59.80545 
L 297.7368 62.46657 
L 297.74549 65.12769 
L 297.748695 67.78881 
L 297.747078 70.44993 
L 297.743581 73.11105 
L 297.742675 75.77217 
L 297.748854 78.43329 
L 297.765392 81.09441 
L 297.794251 83.75553 
L 297.83742 86.41665 
L 297.911806 89.52129 
L 298.00674 92.18241 
L 298.045169 92.919456 
L 298.137074 94.84353 
L 298.323711 97.50465 
L 298.593832 100.16577 
L 298.974861 102.82689 
L 299.498896 105.48801 
L 299.830769 106.773225 
L 300.173454 108.14913 
L 301.032548 110.81025 
L 301.616369 112.233582 
L 302.125743 113.47137 
L 303.437681 116.008653 
L 303.503718 116.13249 
L 305.20643 118.79361 
L 305.223281 118.816425 
L 307.008881 121.099987 
L 307.310239 121.45473 
L 308.794481 123.043825 
L 309.906585 124.11585 
L 310.615793 124.765557 
L 312.401393 126.264836 
L 313.063539 126.77697 
L 314.186993 127.650237 
L 315.972593 128.9261 
L 316.730917 129.43809 
L 317.793905 130.197669 
L 319.579505 131.419846 
L 320.594472 132.09921 
L 321.365105 132.68337 
L 323.150705 134.052034 
L 324.624821 135.20385 
L 324.972017 135.528526 
L 326.757617 137.309127 
L 327.275739 137.86497 
L 328.543217 139.548625 
L 329.215227 140.52609 
L 330.328817 142.611833 
L 330.606399 143.18721 
L 331.565924 145.84833 
L 332.150129 148.082664 
L 332.250687 148.50945 
L 332.689068 151.17057 
L 332.983689 153.83169 
L 333.17257 156.49281 
L 333.287015 159.15393 
L 333.352609 161.81505 
L 333.389439 164.47617 
L 333.411767 167.13729 
L 333.427857 169.79841 
L 333.440684 172.45953 
L 333.449707 175.12065 
L 333.453231 178.22529 
L 333.449566 180.88641 
L 333.441047 183.54753 
L 333.429877 186.20865 
L 333.417167 188.86977 
L 333.400841 191.53089 
L 333.374338 194.19201 
L 333.326532 196.85313 
L 333.242571 199.51425 
L 333.104936 202.17537 
L 332.894024 204.83649 
L 332.588147 207.49761 
L 332.16356 210.15873 
L 332.150129 210.221359 
L 331.539598 212.81985 
L 330.740666 215.48097 
L 330.328817 216.586746 
L 329.704955 218.14209 
L 328.543217 220.617915 
L 328.451165 220.80321 
L 326.757617 223.836187 
L 326.716579 223.90785 
L 325.09605 226.56897 
L 324.972017 226.771883 
L 323.468841 229.23009 
L 323.150705 229.780425 
L 321.940822 231.89121 
L 321.365105 233.011685 
L 320.580164 234.55233 
L 319.579505 236.855856 
L 319.423999 237.21345 
L 318.429234 239.87457 
L 317.793905 241.955567 
L 317.611832 242.53569 
L 316.889373 245.19681 
L 316.264337 247.85793 
L 315.972593 249.177062 
L 315.656303 250.51905 
L 315.017397 253.18017 
L 314.325737 255.84129 
L 314.186993 256.300756 
L 313.469876 258.50241 
L 312.455838 261.16353 
L 312.401393 261.283292 
L 311.168689 263.82465 
L 310.615793 264.797237 
L 309.34722 266.92929 
L 308.794481 267.747541 
L 307.504459 269.59041 
L 307.008881 270.239194 
L 305.437244 272.25153 
L 305.223281 272.507066 
L 303.437681 274.585881 
L 303.14972 274.91265 
L 301.616369 276.530738 
L 300.600469 277.57377 
L 299.830769 278.296617 
L 298.045169 279.887482 
L 297.62745 280.23489 
L 296.259569 281.236386 
L 294.438257 282.454276 
L 293.701015 282.89601 
L 292.652657 283.432337 
L 290.867057 284.228288 
L 289.081457 284.913615 
L 287.260145 285.506206 
L 287.07253 285.55713 
L 285.474545 285.92051 
L 283.688945 286.252961 
L 281.903345 286.521746 
L 280.082033 286.740183 
L 278.296433 286.908636 
L 276.510833 287.039809 
L 274.725233 287.140682 
L 272.903921 287.218606 
L 271.118321 287.275713 
L 269.332721 287.317987 
L 267.547121 287.348886 
L 265.725809 287.371557 
L 263.940209 287.387334 
L 262.154609 287.398428 
L 260.369009 287.406132 
L 258.547697 287.411501 
L 256.762097 287.415052 
L 254.976497 287.417427 
L 253.190897 287.418996 
L 251.369585 287.420036 
L 249.583985 287.420688 
L 247.798385 287.421101 
L 246.012785 287.421356 
L 244.191473 287.421515 
L 242.405873 287.421608 
L 240.620273 287.421664 
L 238.834673 287.4217 
L 237.013361 287.421724 
L 235.227761 287.42174 
L 233.442161 287.42175 
L 231.656561 287.421756 
L 229.835249 287.421758 
L 228.049649 287.421756 
L 226.264049 287.421752 
L 224.478449 287.421748 
L 222.657137 287.421747 
L 220.871537 287.421747 
L 219.085937 287.421751 
L 217.300337 287.421755 
L 215.479025 287.421759 
L 213.693425 287.421761 
L 211.907825 287.42176 
L 210.122225 287.421756 
L 208.300913 287.421751 
L 206.515313 287.421747 
L 204.729713 287.421744 
L 202.944113 287.421743 
L 201.122801 287.421742 
L 199.337201 287.421741 
L 197.551601 287.421736 
L 195.766001 287.421723 
L 193.944689 287.421698 
L 192.159089 287.421657 
L 190.373489 287.421596 
L 188.587889 287.421503 
L 186.766577 287.421364 
L 184.980977 287.42116 
L 183.195377 287.420856 
L 181.409777 287.420403 
L 179.588465 287.419715 
L 177.802865 287.418719 
L 176.017265 287.417268 
L 174.231665 287.415169 
L 172.410353 287.412085 
L 170.624753 287.407765 
L 168.839153 287.401654 
L 167.053553 287.393068 
L 165.232241 287.380805 
L 163.446641 287.364098 
L 161.661041 287.341123 
L 159.875441 287.309773 
L 158.054129 287.266353 
L 156.268529 287.209053 
L 154.482929 287.132794 
L 152.697329 287.032181 
L 150.876017 286.897605 
L 149.090417 286.726193 
L 147.304817 286.506047 
L 145.519217 286.225828 
L 143.697905 285.864368 
L 142.458597 285.55713 
L 141.912305 285.386189 
L 140.126705 284.695989 
L 138.341105 283.842625 
L 136.725519 282.89601 
L 136.519793 282.729928 
L 134.734193 280.992643 
L 134.083279 280.23489 
L 132.948593 278.127595 
L 132.694408 277.57377 
L 132.123595 274.91265 
L 132.12872 272.25153 
L 132.610467 269.59041 
L 132.948593 268.564638 
L 133.516358 266.92929 
L 134.734193 264.308554 
L 134.96394 263.82465 
L 136.42436 261.16353 
L 136.519793 260.997868 
L 137.956288 258.50241 
L 138.341105 257.807665 
L 139.420555 255.84129 
L 140.126705 254.414206 
L 140.7322 253.18017 
L 141.843789 250.51905 
L 141.912305 250.324879 
L 142.790777 247.85793 
L 143.52982 245.19681 
L 143.697905 244.43344 
L 144.132389 242.53569 
L 144.59844 239.87457 
L 144.942986 237.21345 
L 145.18977 234.55233 
L 145.357792 231.89121 
L 145.463018 229.23009 
L 145.518948 226.56897 
L 145.519217 226.52689 
L 145.537671 223.90785 
L 145.519217 221.573903 
L 145.513702 220.80321 
L 145.457542 218.14209 
L 145.358833 215.48097 
L 145.20367 212.81985 
L 144.97394 210.15873 
L 144.648712 207.49761 
L 144.204587 204.83649 
L 143.697905 202.538247 
L 143.622063 202.17537 
L 142.924575 199.51425 
L 142.030949 196.85313 
L 141.912305 196.55598 
L 140.983015 194.19201 
L 140.126705 192.394209 
L 139.714957 191.53089 
L 138.341105 189.060476 
L 138.23343 188.86977 
L 136.545026 186.20865 
L 136.519793 186.172027 
L 134.734193 183.652846 
L 134.656761 183.54753 
L 132.948593 181.336573 
L 132.584091 180.88641 
L 131.162993 179.173582 
L 130.331017 178.22529 
L 129.341681 177.098198 
L 127.556081 175.226172 
L 127.450512 175.12065 
L 125.770481 173.419447 
L 124.729026 172.45953 
L 123.984881 171.765326 
L 122.163569 170.22036 
L 121.614909 169.79841 
L 120.377969 168.829488 
L 118.592369 167.607924 
L 117.807194 167.13729 
L 116.806769 166.518486 
L 114.985457 165.55695 
L 113.199857 164.785844 
L 112.318651 164.47617 
L 111.414257 164.13885 
L 109.628657 163.621637 
L 107.807345 163.249195 
L 106.021745 163.029314 
L 104.236145 162.95029 
L 102.450545 163.012695 
L 100.629233 163.226174 
L 98.843633 163.589889 
L 97.058033 164.117565 
L 96.130089 164.47617 
L 95.272433 164.795816 
L 93.451121 165.64199 
L 91.665521 166.669946 
L 90.966654 167.13729 
L 89.879921 167.855544 
L 88.094321 169.216921 
L 87.410413 169.79841 
L 86.273009 170.755978 
L 84.487409 172.432276 
L 84.459793 172.45953 
L 82.701809 174.156469 
L 81.770815 175.12065 
L 80.916209 175.972956 
L 79.094897 177.895378 
L 78.791389 178.22529 
L 77.309297 179.768612 
L 76.274314 180.88641 
L 75.523697 181.672462 
L 73.78188 183.54753 
L 73.738097 183.59331 
L 71.916785 185.480549 
L 71.219475 186.20865 
L 70.131185 187.296627 
L 68.545341 188.86977 
L 68.345585 189.056109 
L 66.559985 190.632534 
L 65.492516 191.53089 
L 64.738673 192.106597 
L 62.953073 193.352652 
L 61.627465 194.19201 
L 61.167473 194.449228 
L 59.381873 195.308493 
L 57.560561 196.051601 
L 55.774961 196.637795 
L 54.86019 196.85313 
L 53.989361 197.033222 
L 52.203761 197.240198 
L 50.382449 197.263418 
L 48.596849 197.063125 
L 47.781017 196.85313 
L 46.811249 196.535074 
L 45.025649 195.544654 
L 43.438735 194.19201 
L 43.204337 193.923984 
L 41.657654 191.53089 
L 41.418737 191.016452 
L 40.617865 188.86977 
L 39.918429 186.20865 
L 39.633137 184.66748 
L 39.455157 183.54753 
z
" clip-path="url(#p1fbae34ab2)" style="fill: none; stroke: #2070b4; stroke-width: 1.5"/>
   </g>
   <g id="PathCollection_8">
    <path d="M 50.092787 169.79841 
L 49.854041 167.13729 
L 49.680073 164.47617 
L 49.547748 161.81505 
L 49.447762 159.15393 
L 49.378078 156.49281 
L 49.337368 153.83169 
L 49.320562 151.17057 
L 49.317996 148.50945 
L 49.318116 145.84833 
L 49.311981 143.18721 
L 49.296909 140.52609 
L 49.277187 137.86497 
L 49.26136 135.20385 
L 49.258542 132.09921 
L 49.273507 129.43809 
L 49.302742 126.77697 
L 49.343142 124.11585 
L 49.396693 121.45473 
L 49.47704 118.79361 
L 49.614158 116.13249 
L 49.856507 113.47137 
L 50.271912 110.81025 
L 50.382449 110.373341 
L 51.068883 108.14913 
L 52.203761 105.784783 
L 52.380675 105.48801 
L 53.989361 103.666705 
L 54.926499 102.82689 
L 55.774961 102.29257 
L 57.560561 101.410477 
L 59.381873 100.716868 
L 61.167473 100.197986 
L 61.313308 100.16577 
L 62.953073 99.900601 
L 64.738673 99.683972 
L 66.559985 99.520337 
L 68.345585 99.402588 
L 70.131185 99.316371 
L 71.916785 99.253226 
L 73.738097 99.20565 
L 75.523697 99.170134 
L 77.309297 99.141395 
L 79.094897 99.11601 
L 80.916209 99.090592 
L 82.701809 99.063563 
L 84.487409 99.032063 
L 86.273009 98.993755 
L 88.094321 98.94514 
L 89.879921 98.885445 
L 91.665521 98.81089 
L 93.451121 98.718168 
L 95.272433 98.600966 
L 97.058033 98.459464 
L 98.843633 98.286567 
L 100.629233 98.076407 
L 102.450545 97.816503 
L 104.236145 97.508735 
L 104.256731 97.50465 
L 106.021745 97.224396 
L 107.807345 96.883541 
L 109.628657 96.464929 
L 111.414257 95.970846 
L 113.199857 95.376588 
L 114.556299 94.84353 
L 114.985457 94.698004 
L 116.806769 93.993581 
L 118.592369 93.153126 
L 120.293 92.18241 
L 120.377969 92.137741 
L 122.163569 91.099799 
L 123.984881 89.791011 
L 124.323545 89.52129 
L 125.770481 88.395608 
L 127.556081 86.703171 
L 127.83213 86.41665 
L 129.341681 84.777322 
L 130.179243 83.75553 
L 131.162993 82.409983 
L 132.05714 81.09441 
L 132.948593 79.545041 
L 133.567783 78.43329 
L 134.734193 75.826674 
L 134.758751 75.77217 
L 135.774078 73.11105 
L 136.519793 70.568695 
L 136.556963 70.44993 
L 137.294003 67.78881 
L 137.936719 65.12769 
L 138.341105 63.399951 
L 138.585741 62.46657 
L 139.327049 59.80545 
L 140.126705 57.153976 
L 140.12997 57.14433 
L 141.182025 54.48321 
L 141.912305 52.859309 
L 142.421929 51.82209 
L 143.697905 49.546235 
L 143.928885 49.16097 
L 145.519217 46.819909 
L 145.746351 46.49985 
L 147.304817 44.595141 
L 148.290369 43.39521 
L 149.090417 42.550998 
L 150.848563 40.73409 
L 150.876017 40.709386 
L 152.697329 39.202103 
L 154.115841 38.07297 
L 154.482929 37.82954 
L 156.268529 36.775598 
L 158.054129 35.818846 
L 158.926962 35.41185 
L 159.875441 35.0646 
L 161.661041 34.516847 
L 163.446641 34.060934 
L 165.232241 33.688624 
L 167.053553 33.38482 
L 168.839153 33.150799 
L 170.624753 32.969555 
L 172.410353 32.831417 
L 173.805066 32.75073 
L 174.231665 32.732256 
L 176.017265 32.675498 
L 177.802865 32.634221 
L 179.588465 32.604605 
L 181.409777 32.583287 
L 183.195377 32.568737 
L 184.980977 32.5587 
L 186.766577 32.551861 
L 188.587889 32.547182 
L 190.373489 32.544146 
L 192.159089 32.542153 
L 193.944689 32.540865 
L 195.766001 32.540033 
L 197.551601 32.539527 
L 199.337201 32.539217 
L 201.122801 32.539031 
L 202.944113 32.538915 
L 204.729713 32.538844 
L 206.515313 32.538796 
L 208.300913 32.538762 
L 210.122225 32.538739 
L 211.907825 32.538725 
L 213.693425 32.538721 
L 215.479025 32.538725 
L 217.300337 32.538734 
L 219.085937 32.538742 
L 220.871537 32.538747 
L 222.657137 32.538747 
L 224.478449 32.538741 
L 226.264049 32.538732 
L 228.049649 32.538726 
L 229.835249 32.538725 
L 231.656561 32.538734 
L 233.442161 32.538755 
L 235.227761 32.538789 
L 237.013361 32.538841 
L 238.834673 32.538922 
L 240.620273 32.539047 
L 242.405873 32.539251 
L 244.191473 32.53959 
L 246.012785 32.540161 
L 247.798385 32.541077 
L 249.583985 32.542539 
L 251.369585 32.544837 
L 253.190897 32.548484 
L 254.976497 32.553964 
L 256.762097 32.562228 
L 258.547697 32.574536 
L 260.369009 32.593081 
L 262.154609 32.619591 
L 263.940209 32.657624 
L 265.725809 32.711507 
L 266.65198 32.75073 
L 267.547121 32.801756 
L 269.332721 32.942728 
L 271.118321 33.134987 
L 272.903921 33.39397 
L 274.725233 33.74652 
L 276.510833 34.202105 
L 278.296433 34.79403 
L 279.748323 35.41185 
L 280.082033 35.609812 
L 281.903345 36.981291 
L 283.05713 38.07297 
L 283.688945 38.93762 
L 284.752093 40.73409 
L 285.474545 42.574788 
L 285.739345 43.39521 
L 286.351246 46.49985 
L 286.650228 49.16097 
L 286.821024 51.82209 
L 286.919468 54.48321 
L 286.982404 57.14433 
L 287.028895 59.80545 
L 287.064166 62.46657 
L 287.086041 65.12769 
L 287.091957 67.78881 
L 287.083935 70.44993 
L 287.06972 73.11105 
L 287.060068 75.77217 
L 287.064113 78.43329 
L 287.085646 81.09441 
L 287.122598 83.75553 
L 287.170215 86.41665 
L 287.236815 89.52129 
L 287.260145 90.370236 
L 287.302079 92.18241 
L 287.390225 94.84353 
L 287.52496 97.50465 
L 287.729013 100.16577 
L 288.025177 102.82689 
L 288.435982 105.48801 
L 288.986839 108.14913 
L 289.081457 108.519497 
L 289.61257 110.81025 
L 290.413236 113.47137 
L 290.867057 114.686338 
L 291.381828 116.13249 
L 292.586215 118.79361 
L 292.652657 118.919386 
L 293.998241 121.45473 
L 294.438257 122.15357 
L 295.719583 124.11585 
L 296.259569 124.845693 
L 297.790883 126.77697 
L 298.045169 127.075763 
L 299.830769 129.040757 
L 300.224663 129.43809 
L 301.616369 130.823619 
L 303.079493 132.09921 
L 303.437681 132.426525 
L 305.223281 133.954916 
L 306.938086 135.20385 
L 307.008881 135.261233 
L 308.794481 136.667494 
L 310.51158 137.86497 
L 310.615793 137.948263 
L 312.401393 139.377172 
L 313.922884 140.52609 
L 314.186993 140.765921 
L 315.972593 142.448246 
L 316.729656 143.18721 
L 317.793905 144.49222 
L 318.812669 145.84833 
L 319.579505 147.181984 
L 320.255045 148.50945 
L 321.245834 151.17057 
L 321.365105 151.634988 
L 321.845906 153.83169 
L 322.22298 156.49281 
L 322.45052 159.15393 
L 322.578917 161.81505 
L 322.650499 164.47617 
L 322.69575 167.13729 
L 322.731388 169.79841 
L 322.761689 172.45953 
L 322.783081 175.12065 
L 322.789999 178.22529 
L 322.779096 180.88641 
L 322.757217 183.54753 
L 322.731425 186.20865 
L 322.706016 188.86977 
L 322.67743 191.53089 
L 322.631829 194.19201 
L 322.546344 196.85313 
L 322.393155 199.51425 
L 322.144401 202.17537 
L 321.776108 204.83649 
L 321.365105 206.990284 
L 321.252806 207.49761 
L 320.484578 210.15873 
L 319.579505 212.764033 
L 319.557861 212.81985 
L 318.333684 215.48097 
L 317.793905 216.535679 
L 316.923857 218.14209 
L 315.972593 219.801613 
L 315.381272 220.80321 
L 314.186993 222.784501 
L 313.51886 223.90785 
L 312.401393 225.86215 
L 311.995637 226.56897 
L 310.623322 229.23009 
L 310.615793 229.246489 
L 309.375012 231.89121 
L 308.794481 233.418452 
L 308.344782 234.55233 
L 307.473429 237.21345 
L 307.008881 238.957151 
L 306.744366 239.87457 
L 306.071266 242.53569 
L 305.470417 245.19681 
L 305.223281 246.291778 
L 304.826219 247.85793 
L 304.10943 250.51905 
L 303.437681 252.781749 
L 303.304434 253.18017 
L 302.268483 255.84129 
L 301.616369 257.302041 
L 301.029394 258.50241 
L 299.830769 260.647899 
L 299.523027 261.16353 
L 298.045169 263.343096 
L 297.704464 263.82465 
L 296.259569 265.59626 
L 295.166268 266.92929 
L 294.438257 267.700539 
L 292.652657 269.546562 
L 292.607462 269.59041 
L 290.867057 271.034491 
L 289.347047 272.25153 
L 289.081457 272.428915 
L 287.260145 273.508524 
L 285.474545 274.469388 
L 284.531939 274.91265 
L 283.688945 275.223973 
L 281.903345 275.777449 
L 280.082033 276.246996 
L 278.296433 276.622469 
L 276.510833 276.923736 
L 274.725233 277.161248 
L 272.903921 277.348584 
L 271.118321 277.488273 
L 269.662121 277.57377 
L 269.332721 277.588248 
L 267.547121 277.646076 
L 265.725809 277.688874 
L 263.940209 277.718894 
L 262.154609 277.740161 
L 260.369009 277.755032 
L 258.547697 277.765467 
L 256.762097 277.772414 
L 254.976497 277.777093 
L 253.190897 277.780205 
L 251.369585 277.782282 
L 249.583985 277.783594 
L 247.798385 277.784429 
L 246.012785 277.784949 
L 244.191473 277.785273 
L 242.405873 277.785463 
L 240.620273 277.785579 
L 238.834673 277.785652 
L 237.013361 277.785702 
L 235.227761 277.785737 
L 233.442161 277.78576 
L 231.656561 277.785774 
L 229.835249 277.785779 
L 228.049649 277.785775 
L 226.264049 277.785767 
L 224.478449 277.785758 
L 222.657137 277.785753 
L 220.871537 277.785754 
L 219.085937 277.78576 
L 217.300337 277.785769 
L 215.479025 277.785779 
L 213.693425 277.785783 
L 211.907825 277.785782 
L 210.122225 277.785773 
L 208.300913 277.78576 
L 206.515313 277.785746 
L 204.729713 277.785732 
L 202.944113 277.785717 
L 201.122801 277.785698 
L 199.337201 277.785667 
L 197.551601 277.78561 
L 195.766001 277.785511 
L 193.944689 277.785342 
L 192.159089 277.785079 
L 190.373489 277.784677 
L 188.587889 277.784075 
L 186.766577 277.78316 
L 184.980977 277.781837 
L 183.195377 277.779907 
L 181.409777 277.777113 
L 179.588465 277.77301 
L 177.802865 277.767282 
L 176.017265 277.759235 
L 174.231665 277.748041 
L 172.410353 277.732254 
L 170.624753 277.71105 
L 168.839153 277.68232 
L 167.053553 277.643678 
L 165.232241 277.590864 
L 164.787717 277.57377 
L 163.446641 277.502868 
L 161.661041 277.37745 
L 159.875441 277.211017 
L 158.054129 276.985683 
L 156.268529 276.693119 
L 154.482929 276.30724 
L 152.697329 275.798735 
L 150.876017 275.113588 
L 150.45917 274.91265 
L 149.090417 273.732345 
L 147.843684 272.25153 
L 147.304817 269.996039 
L 147.232869 269.59041 
L 147.304817 269.083874 
L 147.61721 266.92929 
L 148.676083 263.82465 
L 149.090417 262.854435 
L 149.815171 261.16353 
L 150.876017 258.660994 
L 150.944157 258.50241 
L 152.043987 255.84129 
L 152.697329 253.925796 
L 152.963246 253.18017 
L 153.76169 250.51905 
L 154.372192 247.85793 
L 154.482929 247.256434 
L 154.901633 245.19681 
L 155.321994 242.53569 
L 155.642807 239.87457 
L 155.882367 237.21345 
L 156.051982 234.55233 
L 156.160761 231.89121 
L 156.219092 229.23009 
L 156.239344 226.56897 
L 156.233613 223.90785 
L 156.204155 220.80321 
L 156.158598 218.14209 
L 156.083762 215.48097 
L 155.96249 212.81985 
L 155.774608 210.15873 
L 155.500232 207.49761 
L 155.120653 204.83649 
L 154.615916 202.17537 
L 154.482929 201.606862 
L 154.043469 199.51425 
L 153.334149 196.85313 
L 152.697329 194.949694 
L 152.461451 194.19201 
L 151.457903 191.53089 
L 150.876017 190.262383 
L 150.258956 188.86977 
L 149.090417 186.661906 
L 148.853511 186.20865 
L 147.304817 183.616323 
L 147.263509 183.54753 
L 145.519217 180.896231 
L 145.512638 180.88641 
L 143.697905 178.328049 
L 143.622817 178.22529 
L 141.912305 175.912588 
L 141.283764 175.12065 
L 140.126705 173.647036 
L 139.146151 172.45953 
L 138.341105 171.475437 
L 136.88549 169.79841 
L 136.519793 169.372259 
L 134.734193 167.395996 
L 134.488482 167.13729 
L 132.948593 165.483828 
L 131.913796 164.47617 
L 131.162993 163.724427 
L 129.341681 162.069661 
L 129.040232 161.81505 
L 127.556081 160.504564 
L 125.770481 159.16047 
L 125.761206 159.15393 
L 123.984881 157.811227 
L 122.163569 156.671053 
L 121.847166 156.49281 
L 120.377969 155.576295 
L 118.592369 154.641002 
L 116.806769 153.871224 
L 116.702153 153.83169 
L 114.985457 153.081542 
L 113.199857 152.450796 
L 111.414257 151.949749 
L 109.628657 151.562131 
L 107.807345 151.271378 
L 106.871406 151.17057 
L 106.021745 151.05707 
L 104.236145 150.928771 
L 102.450545 150.910275 
L 100.629233 151.005294 
L 99.212431 151.17057 
L 98.843633 151.205776 
L 97.058033 151.471807 
L 95.272433 151.847595 
L 93.451121 152.359026 
L 91.665521 153.005621 
L 89.879921 153.821156 
L 89.859621 153.83169 
L 88.094321 154.657276 
L 86.273009 155.708903 
L 85.122197 156.49281 
L 84.487409 156.898387 
L 82.701809 158.191374 
L 81.551341 159.15393 
L 80.916209 159.666228 
L 79.094897 161.294522 
L 78.557473 161.81505 
L 77.309297 162.995102 
L 75.880594 164.47617 
L 75.523697 164.837757 
L 73.738097 166.718334 
L 73.350415 167.13729 
L 71.916785 168.640288 
L 70.849729 169.79841 
L 70.131185 170.5451 
L 68.345585 172.440881 
L 68.327169 172.45953 
L 66.559985 174.148279 
L 65.533786 175.12065 
L 64.738673 175.814641 
L 62.953073 177.271716 
L 61.674157 178.22529 
L 61.167473 178.564302 
L 59.381873 179.483303 
L 57.560561 180.090309 
L 55.774961 180.177437 
L 53.989361 179.520276 
L 52.603251 178.22529 
L 52.203761 177.649695 
L 51.141335 175.12065 
L 50.455033 172.45953 
L 50.382449 172.038269 
L 50.092787 169.79841 
z
" clip-path="url(#p1fbae34ab2)" style="fill: none; stroke: #08509b; stroke-width: 1.5"/>
   </g>
   <g id="PathCollection_9"/>
   <g id="patch_3">
    <path d="M 34.240625 288.21825 
L 34.240625 22.10625 
" style="fill: none; stroke: #000000; stroke-width: 0.8; stroke-linejoin: miter; stroke-linecap: square"/>
   </g>
   <g id="patch_4">
    <path d="M 391.360625 288.21825 
L 391.360625 22.10625 
" style="fill: none; stroke: #000000; stroke-width: 0.8; stroke-linejoin: miter; stroke-linecap: square"/>
   </g>
   <g id="patch_5">
    <path d="M 34.240625 288.21825 
L 391.360625 288.21825 
" style="fill: none; stroke: #000000; stroke-width: 0.8; stroke-linejoin: miter; stroke-linecap: square"/>
   </g>
   <g id="patch_6">
    <path d="M 34.240625 22.10625 
L 391.360625 22.10625 
" style="fill: none; stroke: #000000; stroke-width: 0.8; stroke-linejoin: miter; stroke-linecap: square"/>
   </g>
   <g id="text_16">
    <!-- 7.3_cross_-43.0 -->
    <g transform="translate(166.181563 16.10625)scale(0.12 -0.12)">
     <defs>
      <path id="DejaVuSans-37" d="M 525 4666 
L 3525 4666 
L 3525 4397 
L 1831 0 
L 1172 0 
L 2766 4134 
L 525 4134 
L 525 4666 
z
" transform="scale(0.015625)"/>
      <path id="DejaVuSans-2e" d="M 684 794 
L 1344 794 
L 1344 0 
L 684 0 
L 684 794 
z
" transform="scale(0.015625)"/>
      <path id="DejaVuSans-5f" d="M 3263 -1063 
L 3263 -1509 
L -63 -1509 
L -63 -1063 
L 3263 -1063 
z
" transform="scale(0.015625)"/>
      <path id="DejaVuSans-63" d="M 3122 3366 
L 3122 2828 
Q 2878 2963 2633 3030 
Q 2388 3097 2138 3097 
Q 1578 3097 1268 2742 
Q 959 2388 959 1747 
Q 959 1106 1268 751 
Q 1578 397 2138 397 
Q 2388 397 2633 464 
Q 2878 531 3122 666 
L 3122 134 
Q 2881 22 2623 -34 
Q 2366 -91 2075 -91 
Q 1284 -91 818 406 
Q 353 903 353 1747 
Q 353 2603 823 3093 
Q 1294 3584 2113 3584 
Q 2378 3584 2631 3529 
Q 2884 3475 3122 3366 
z
" transform="scale(0.015625)"/>
      <path id="DejaVuSans-72" d="M 2631 2963 
Q 2534 3019 2420 3045 
Q 2306 3072 2169 3072 
Q 1681 3072 1420 2755 
Q 1159 2438 1159 1844 
L 1159 0 
L 581 0 
L 581 3500 
L 1159 3500 
L 1159 2956 
Q 1341 3275 1631 3429 
Q 1922 3584 2338 3584 
Q 2397 3584 2469 3576 
Q 2541 3569 2628 3553 
L 2631 2963 
z
" transform="scale(0.015625)"/>
      <path id="DejaVuSans-73" d="M 2834 3397 
L 2834 2853 
Q 2591 2978 2328 3040 
Q 2066 3103 1784 3103 
Q 1356 3103 1142 2972 
Q 928 2841 928 2578 
Q 928 2378 1081 2264 
Q 1234 2150 1697 2047 
L 1894 2003 
Q 2506 1872 2764 1633 
Q 3022 1394 3022 966 
Q 3022 478 2636 193 
Q 2250 -91 1575 -91 
Q 1294 -91 989 -36 
Q 684 19 347 128 
L 347 722 
Q 666 556 975 473 
Q 1284 391 1588 391 
Q 1994 391 2212 530 
Q 2431 669 2431 922 
Q 2431 1156 2273 1281 
Q 2116 1406 1581 1522 
L 1381 1569 
Q 847 1681 609 1914 
Q 372 2147 372 2553 
Q 372 3047 722 3315 
Q 1072 3584 1716 3584 
Q 2034 3584 2315 3537 
Q 2597 3491 2834 3397 
z
" transform="scale(0.015625)"/>
      <path id="DejaVuSans-2d" d="M 313 2009 
L 1997 2009 
L 1997 1497 
L 313 1497 
L 313 2009 
z
" transform="scale(0.015625)"/>
     </defs>
     <use xlink:href="#DejaVuSans-37"/>
     <use xlink:href="#DejaVuSans-2e" x="63.623047"/>
     <use xlink:href="#DejaVuSans-33" x="95.410156"/>
     <use xlink:href="#DejaVuSans-5f" x="159.033203"/>
     <use xlink:href="#DejaVuSans-63" x="209.033203"/>
     <use xlink:href="#DejaVuSans-72" x="264.013672"/>
     <use xlink:href="#DejaVuSans-6f" x="302.876953"/>
     <use xlink:href="#DejaVuSans-73" x="364.058594"/>
     <use xlink:href="#DejaVuSans-73" x="416.158203"/>
     <use xlink:href="#DejaVuSans-5f" x="468.257812"/>
     <use xlink:href="#DejaVuSans-2d" x="518.257812"/>
     <use xlink:href="#DejaVuSans-34" x="554.341797"/>
     <use xlink:href="#DejaVuSans-33" x="617.964844"/>
     <use xlink:href="#DejaVuSans-2e" x="681.587891"/>
     <use xlink:href="#DejaVuSans-30" x="713.375"/>
    </g>
   </g>
  </g>
 </g>
 <defs>
  <clipPath id="p1fbae34ab2">
   <rect x="34.240625" y="22.10625" width="357.12" height="266.112"/>
  </clipPath>
 </defs>
</svg>
