<?xml version="1.0" encoding="utf-8" standalone="no"?>
<!DOCTYPE svg PUBLIC "-//W3C//DTD SVG 1.1//EN"
  "http://www.w3.org/Graphics/SVG/1.1/DTD/svg11.dtd">
<svg xmlns:xlink="http://www.w3.org/1999/xlink" width="408.104375pt" height="325.7745pt" viewBox="0 0 408.104375 325.7745" xmlns="http://www.w3.org/2000/svg" version="1.1">
 <metadata>
  <rdf:RDF xmlns:dc="http://purl.org/dc/elements/1.1/" xmlns:cc="http://creativecommons.org/ns#" xmlns:rdf="http://www.w3.org/1999/02/22-rdf-syntax-ns#">
   <cc:Work>
    <dc:type rdf:resource="http://purl.org/dc/dcmitype/StillImage"/>
    <dc:date>2024-07-12T12:31:00.506584</dc:date>
    <dc:format>image/svg+xml</dc:format>
    <dc:creator>
     <cc:Agent>
      <dc:title>Matplotlib v3.5.3, https://matplotlib.org/</dc:title>
     </cc:Agent>
    </dc:creator>
   </cc:Work>
  </rdf:RDF>
 </metadata>
 <defs>
  <style type="text/css">*{stroke-linejoin: round; stroke-linecap: butt}</style>
 </defs>
 <g id="figure_1">
  <g id="patch_1">
   <path d="M 0 325.7745 
L 408.104375 325.7745 
L 408.104375 0 
L 0 0 
z
" style="fill: #ffffff"/>
  </g>
  <g id="axes_1">
   <g id="patch_2">
    <path d="M 34.240625 288.21825 
L 391.360625 288.21825 
L 391.360625 22.10625 
L 34.240625 22.10625 
z
" style="fill: #ffffff"/>
   </g>
   <g id="matplotlib.axis_1">
    <g id="xtick_1">
     <g id="line2d_1">
      <defs>
       <path id="m8e1992ffff" d="M 0 0 
L 0 3.5 
" style="stroke: #000000; stroke-width: 0.8"/>
      </defs>
      <g>
       <use xlink:href="#m8e1992ffff" x="34.240625" y="288.21825" style="stroke: #000000; stroke-width: 0.8"/>
      </g>
     </g>
     <g id="text_1">
      <!-- 0 -->
      <g transform="translate(31.059375 302.816687)scale(0.1 -0.1)">
       <defs>
        <path id="DejaVuSans-30" d="M 2034 4250 
Q 1547 4250 1301 3770 
Q 1056 3291 1056 2328 
Q 1056 1369 1301 889 
Q 1547 409 2034 409 
Q 2525 409 2770 889 
Q 3016 1369 3016 2328 
Q 3016 3291 2770 3770 
Q 2525 4250 2034 4250 
z
M 2034 4750 
Q 2819 4750 3233 4129 
Q 3647 3509 3647 2328 
Q 3647 1150 3233 529 
Q 2819 -91 2034 -91 
Q 1250 -91 836 529 
Q 422 1150 422 2328 
Q 422 3509 836 4129 
Q 1250 4750 2034 4750 
z
" transform="scale(0.015625)"/>
       </defs>
       <use xlink:href="#DejaVuSans-30"/>
      </g>
     </g>
    </g>
    <g id="xtick_2">
     <g id="line2d_2">
      <g>
       <use xlink:href="#m8e1992ffff" x="105.664625" y="288.21825" style="stroke: #000000; stroke-width: 0.8"/>
      </g>
     </g>
     <g id="text_2">
      <!-- 20 -->
      <g transform="translate(99.302125 302.816687)scale(0.1 -0.1)">
       <defs>
        <path id="DejaVuSans-32" d="M 1228 531 
L 3431 531 
L 3431 0 
L 469 0 
L 469 531 
Q 828 903 1448 1529 
Q 2069 2156 2228 2338 
Q 2531 2678 2651 2914 
Q 2772 3150 2772 3378 
Q 2772 3750 2511 3984 
Q 2250 4219 1831 4219 
Q 1534 4219 1204 4116 
Q 875 4013 500 3803 
L 500 4441 
Q 881 4594 1212 4672 
Q 1544 4750 1819 4750 
Q 2544 4750 2975 4387 
Q 3406 4025 3406 3419 
Q 3406 3131 3298 2873 
Q 3191 2616 2906 2266 
Q 2828 2175 2409 1742 
Q 1991 1309 1228 531 
z
" transform="scale(0.015625)"/>
       </defs>
       <use xlink:href="#DejaVuSans-32"/>
       <use xlink:href="#DejaVuSans-30" x="63.623047"/>
      </g>
     </g>
    </g>
    <g id="xtick_3">
     <g id="line2d_3">
      <g>
       <use xlink:href="#m8e1992ffff" x="177.088625" y="288.21825" style="stroke: #000000; stroke-width: 0.8"/>
      </g>
     </g>
     <g id="text_3">
      <!-- 40 -->
      <g transform="translate(170.726125 302.816687)scale(0.1 -0.1)">
       <defs>
        <path id="DejaVuSans-34" d="M 2419 4116 
L 825 1625 
L 2419 1625 
L 2419 4116 
z
M 2253 4666 
L 3047 4666 
L 3047 1625 
L 3713 1625 
L 3713 1100 
L 3047 1100 
L 3047 0 
L 2419 0 
L 2419 1100 
L 313 1100 
L 313 1709 
L 2253 4666 
z
" transform="scale(0.015625)"/>
       </defs>
       <use xlink:href="#DejaVuSans-34"/>
       <use xlink:href="#DejaVuSans-30" x="63.623047"/>
      </g>
     </g>
    </g>
    <g id="xtick_4">
     <g id="line2d_4">
      <g>
       <use xlink:href="#m8e1992ffff" x="248.512625" y="288.21825" style="stroke: #000000; stroke-width: 0.8"/>
      </g>
     </g>
     <g id="text_4">
      <!-- 60 -->
      <g transform="translate(242.150125 302.816687)scale(0.1 -0.1)">
       <defs>
        <path id="DejaVuSans-36" d="M 2113 2584 
Q 1688 2584 1439 2293 
Q 1191 2003 1191 1497 
Q 1191 994 1439 701 
Q 1688 409 2113 409 
Q 2538 409 2786 701 
Q 3034 994 3034 1497 
Q 3034 2003 2786 2293 
Q 2538 2584 2113 2584 
z
M 3366 4563 
L 3366 3988 
Q 3128 4100 2886 4159 
Q 2644 4219 2406 4219 
Q 1781 4219 1451 3797 
Q 1122 3375 1075 2522 
Q 1259 2794 1537 2939 
Q 1816 3084 2150 3084 
Q 2853 3084 3261 2657 
Q 3669 2231 3669 1497 
Q 3669 778 3244 343 
Q 2819 -91 2113 -91 
Q 1303 -91 875 529 
Q 447 1150 447 2328 
Q 447 3434 972 4092 
Q 1497 4750 2381 4750 
Q 2619 4750 2861 4703 
Q 3103 4656 3366 4563 
z
" transform="scale(0.015625)"/>
       </defs>
       <use xlink:href="#DejaVuSans-36"/>
       <use xlink:href="#DejaVuSans-30" x="63.623047"/>
      </g>
     </g>
    </g>
    <g id="xtick_5">
     <g id="line2d_5">
      <g>
       <use xlink:href="#m8e1992ffff" x="319.936625" y="288.21825" style="stroke: #000000; stroke-width: 0.8"/>
      </g>
     </g>
     <g id="text_5">
      <!-- 80 -->
      <g transform="translate(313.574125 302.816687)scale(0.1 -0.1)">
       <defs>
        <path id="DejaVuSans-38" d="M 2034 2216 
Q 1584 2216 1326 1975 
Q 1069 1734 1069 1313 
Q 1069 891 1326 650 
Q 1584 409 2034 409 
Q 2484 409 2743 651 
Q 3003 894 3003 1313 
Q 3003 1734 2745 1975 
Q 2488 2216 2034 2216 
z
M 1403 2484 
Q 997 2584 770 2862 
Q 544 3141 544 3541 
Q 544 4100 942 4425 
Q 1341 4750 2034 4750 
Q 2731 4750 3128 4425 
Q 3525 4100 3525 3541 
Q 3525 3141 3298 2862 
Q 3072 2584 2669 2484 
Q 3125 2378 3379 2068 
Q 3634 1759 3634 1313 
Q 3634 634 3220 271 
Q 2806 -91 2034 -91 
Q 1263 -91 848 271 
Q 434 634 434 1313 
Q 434 1759 690 2068 
Q 947 2378 1403 2484 
z
M 1172 3481 
Q 1172 3119 1398 2916 
Q 1625 2713 2034 2713 
Q 2441 2713 2670 2916 
Q 2900 3119 2900 3481 
Q 2900 3844 2670 4047 
Q 2441 4250 2034 4250 
Q 1625 4250 1398 4047 
Q 1172 3844 1172 3481 
z
" transform="scale(0.015625)"/>
       </defs>
       <use xlink:href="#DejaVuSans-38"/>
       <use xlink:href="#DejaVuSans-30" x="63.623047"/>
      </g>
     </g>
    </g>
    <g id="xtick_6">
     <g id="line2d_6">
      <g>
       <use xlink:href="#m8e1992ffff" x="391.360625" y="288.21825" style="stroke: #000000; stroke-width: 0.8"/>
      </g>
     </g>
     <g id="text_6">
      <!-- 100 -->
      <g transform="translate(381.816875 302.816687)scale(0.1 -0.1)">
       <defs>
        <path id="DejaVuSans-31" d="M 794 531 
L 1825 531 
L 1825 4091 
L 703 3866 
L 703 4441 
L 1819 4666 
L 2450 4666 
L 2450 531 
L 3481 531 
L 3481 0 
L 794 0 
L 794 531 
z
" transform="scale(0.015625)"/>
       </defs>
       <use xlink:href="#DejaVuSans-31"/>
       <use xlink:href="#DejaVuSans-30" x="63.623047"/>
       <use xlink:href="#DejaVuSans-30" x="127.246094"/>
      </g>
     </g>
    </g>
    <g id="text_7">
     <!-- axialRotation -->
     <g transform="translate(180.024844 316.494812)scale(0.1 -0.1)">
      <defs>
       <path id="DejaVuSans-61" d="M 2194 1759 
Q 1497 1759 1228 1600 
Q 959 1441 959 1056 
Q 959 750 1161 570 
Q 1363 391 1709 391 
Q 2188 391 2477 730 
Q 2766 1069 2766 1631 
L 2766 1759 
L 2194 1759 
z
M 3341 1997 
L 3341 0 
L 2766 0 
L 2766 531 
Q 2569 213 2275 61 
Q 1981 -91 1556 -91 
Q 1019 -91 701 211 
Q 384 513 384 1019 
Q 384 1609 779 1909 
Q 1175 2209 1959 2209 
L 2766 2209 
L 2766 2266 
Q 2766 2663 2505 2880 
Q 2244 3097 1772 3097 
Q 1472 3097 1187 3025 
Q 903 2953 641 2809 
L 641 3341 
Q 956 3463 1253 3523 
Q 1550 3584 1831 3584 
Q 2591 3584 2966 3190 
Q 3341 2797 3341 1997 
z
" transform="scale(0.015625)"/>
       <path id="DejaVuSans-78" d="M 3513 3500 
L 2247 1797 
L 3578 0 
L 2900 0 
L 1881 1375 
L 863 0 
L 184 0 
L 1544 1831 
L 300 3500 
L 978 3500 
L 1906 2253 
L 2834 3500 
L 3513 3500 
z
" transform="scale(0.015625)"/>
       <path id="DejaVuSans-69" d="M 603 3500 
L 1178 3500 
L 1178 0 
L 603 0 
L 603 3500 
z
M 603 4863 
L 1178 4863 
L 1178 4134 
L 603 4134 
L 603 4863 
z
" transform="scale(0.015625)"/>
       <path id="DejaVuSans-6c" d="M 603 4863 
L 1178 4863 
L 1178 0 
L 603 0 
L 603 4863 
z
" transform="scale(0.015625)"/>
       <path id="DejaVuSans-52" d="M 2841 2188 
Q 3044 2119 3236 1894 
Q 3428 1669 3622 1275 
L 4263 0 
L 3584 0 
L 2988 1197 
Q 2756 1666 2539 1819 
Q 2322 1972 1947 1972 
L 1259 1972 
L 1259 0 
L 628 0 
L 628 4666 
L 2053 4666 
Q 2853 4666 3247 4331 
Q 3641 3997 3641 3322 
Q 3641 2881 3436 2590 
Q 3231 2300 2841 2188 
z
M 1259 4147 
L 1259 2491 
L 2053 2491 
Q 2509 2491 2742 2702 
Q 2975 2913 2975 3322 
Q 2975 3731 2742 3939 
Q 2509 4147 2053 4147 
L 1259 4147 
z
" transform="scale(0.015625)"/>
       <path id="DejaVuSans-6f" d="M 1959 3097 
Q 1497 3097 1228 2736 
Q 959 2375 959 1747 
Q 959 1119 1226 758 
Q 1494 397 1959 397 
Q 2419 397 2687 759 
Q 2956 1122 2956 1747 
Q 2956 2369 2687 2733 
Q 2419 3097 1959 3097 
z
M 1959 3584 
Q 2709 3584 3137 3096 
Q 3566 2609 3566 1747 
Q 3566 888 3137 398 
Q 2709 -91 1959 -91 
Q 1206 -91 779 398 
Q 353 888 353 1747 
Q 353 2609 779 3096 
Q 1206 3584 1959 3584 
z
" transform="scale(0.015625)"/>
       <path id="DejaVuSans-74" d="M 1172 4494 
L 1172 3500 
L 2356 3500 
L 2356 3053 
L 1172 3053 
L 1172 1153 
Q 1172 725 1289 603 
Q 1406 481 1766 481 
L 2356 481 
L 2356 0 
L 1766 0 
Q 1100 0 847 248 
Q 594 497 594 1153 
L 594 3053 
L 172 3053 
L 172 3500 
L 594 3500 
L 594 4494 
L 1172 4494 
z
" transform="scale(0.015625)"/>
       <path id="DejaVuSans-6e" d="M 3513 2113 
L 3513 0 
L 2938 0 
L 2938 2094 
Q 2938 2591 2744 2837 
Q 2550 3084 2163 3084 
Q 1697 3084 1428 2787 
Q 1159 2491 1159 1978 
L 1159 0 
L 581 0 
L 581 3500 
L 1159 3500 
L 1159 2956 
Q 1366 3272 1645 3428 
Q 1925 3584 2291 3584 
Q 2894 3584 3203 3211 
Q 3513 2838 3513 2113 
z
" transform="scale(0.015625)"/>
      </defs>
      <use xlink:href="#DejaVuSans-61"/>
      <use xlink:href="#DejaVuSans-78" x="61.279297"/>
      <use xlink:href="#DejaVuSans-69" x="120.458984"/>
      <use xlink:href="#DejaVuSans-61" x="148.242188"/>
      <use xlink:href="#DejaVuSans-6c" x="209.521484"/>
      <use xlink:href="#DejaVuSans-52" x="237.304688"/>
      <use xlink:href="#DejaVuSans-6f" x="302.287109"/>
      <use xlink:href="#DejaVuSans-74" x="363.46875"/>
      <use xlink:href="#DejaVuSans-61" x="402.677734"/>
      <use xlink:href="#DejaVuSans-74" x="463.957031"/>
      <use xlink:href="#DejaVuSans-69" x="503.166016"/>
      <use xlink:href="#DejaVuSans-6f" x="530.949219"/>
      <use xlink:href="#DejaVuSans-6e" x="592.130859"/>
     </g>
    </g>
   </g>
   <g id="matplotlib.axis_2">
    <g id="ytick_1">
     <g id="line2d_7">
      <defs>
       <path id="md37061dc4d" d="M 0 0 
L -3.5 0 
" style="stroke: #000000; stroke-width: 0.8"/>
      </defs>
      <g>
       <use xlink:href="#md37061dc4d" x="34.240625" y="288.21825" style="stroke: #000000; stroke-width: 0.8"/>
      </g>
     </g>
     <g id="text_8">
      <!-- 0 -->
      <g transform="translate(20.878125 292.017469)scale(0.1 -0.1)">
       <use xlink:href="#DejaVuSans-30"/>
      </g>
     </g>
    </g>
    <g id="ytick_2">
     <g id="line2d_8">
      <g>
       <use xlink:href="#md37061dc4d" x="34.240625" y="243.86625" style="stroke: #000000; stroke-width: 0.8"/>
      </g>
     </g>
     <g id="text_9">
      <!-- 1 -->
      <g transform="translate(20.878125 247.665469)scale(0.1 -0.1)">
       <use xlink:href="#DejaVuSans-31"/>
      </g>
     </g>
    </g>
    <g id="ytick_3">
     <g id="line2d_9">
      <g>
       <use xlink:href="#md37061dc4d" x="34.240625" y="199.51425" style="stroke: #000000; stroke-width: 0.8"/>
      </g>
     </g>
     <g id="text_10">
      <!-- 2 -->
      <g transform="translate(20.878125 203.313469)scale(0.1 -0.1)">
       <use xlink:href="#DejaVuSans-32"/>
      </g>
     </g>
    </g>
    <g id="ytick_4">
     <g id="line2d_10">
      <g>
       <use xlink:href="#md37061dc4d" x="34.240625" y="155.16225" style="stroke: #000000; stroke-width: 0.8"/>
      </g>
     </g>
     <g id="text_11">
      <!-- 3 -->
      <g transform="translate(20.878125 158.961469)scale(0.1 -0.1)">
       <defs>
        <path id="DejaVuSans-33" d="M 2597 2516 
Q 3050 2419 3304 2112 
Q 3559 1806 3559 1356 
Q 3559 666 3084 287 
Q 2609 -91 1734 -91 
Q 1441 -91 1130 -33 
Q 819 25 488 141 
L 488 750 
Q 750 597 1062 519 
Q 1375 441 1716 441 
Q 2309 441 2620 675 
Q 2931 909 2931 1356 
Q 2931 1769 2642 2001 
Q 2353 2234 1838 2234 
L 1294 2234 
L 1294 2753 
L 1863 2753 
Q 2328 2753 2575 2939 
Q 2822 3125 2822 3475 
Q 2822 3834 2567 4026 
Q 2313 4219 1838 4219 
Q 1578 4219 1281 4162 
Q 984 4106 628 3988 
L 628 4550 
Q 988 4650 1302 4700 
Q 1616 4750 1894 4750 
Q 2613 4750 3031 4423 
Q 3450 4097 3450 3541 
Q 3450 3153 3228 2886 
Q 3006 2619 2597 2516 
z
" transform="scale(0.015625)"/>
       </defs>
       <use xlink:href="#DejaVuSans-33"/>
      </g>
     </g>
    </g>
    <g id="ytick_5">
     <g id="line2d_11">
      <g>
       <use xlink:href="#md37061dc4d" x="34.240625" y="110.81025" style="stroke: #000000; stroke-width: 0.8"/>
      </g>
     </g>
     <g id="text_12">
      <!-- 4 -->
      <g transform="translate(20.878125 114.609469)scale(0.1 -0.1)">
       <use xlink:href="#DejaVuSans-34"/>
      </g>
     </g>
    </g>
    <g id="ytick_6">
     <g id="line2d_12">
      <g>
       <use xlink:href="#md37061dc4d" x="34.240625" y="66.45825" style="stroke: #000000; stroke-width: 0.8"/>
      </g>
     </g>
     <g id="text_13">
      <!-- 5 -->
      <g transform="translate(20.878125 70.257469)scale(0.1 -0.1)">
       <defs>
        <path id="DejaVuSans-35" d="M 691 4666 
L 3169 4666 
L 3169 4134 
L 1269 4134 
L 1269 2991 
Q 1406 3038 1543 3061 
Q 1681 3084 1819 3084 
Q 2600 3084 3056 2656 
Q 3513 2228 3513 1497 
Q 3513 744 3044 326 
Q 2575 -91 1722 -91 
Q 1428 -91 1123 -41 
Q 819 9 494 109 
L 494 744 
Q 775 591 1075 516 
Q 1375 441 1709 441 
Q 2250 441 2565 725 
Q 2881 1009 2881 1497 
Q 2881 1984 2565 2268 
Q 2250 2553 1709 2553 
Q 1456 2553 1204 2497 
Q 953 2441 691 2322 
L 691 4666 
z
" transform="scale(0.015625)"/>
       </defs>
       <use xlink:href="#DejaVuSans-35"/>
      </g>
     </g>
    </g>
    <g id="ytick_7">
     <g id="line2d_13">
      <g>
       <use xlink:href="#md37061dc4d" x="34.240625" y="22.10625" style="stroke: #000000; stroke-width: 0.8"/>
      </g>
     </g>
     <g id="text_14">
      <!-- 6 -->
      <g transform="translate(20.878125 25.905469)scale(0.1 -0.1)">
       <use xlink:href="#DejaVuSans-36"/>
      </g>
     </g>
    </g>
    <g id="text_15">
     <!-- zShift -->
     <g transform="translate(14.798438 169.151312)rotate(-90)scale(0.1 -0.1)">
      <defs>
       <path id="DejaVuSans-7a" d="M 353 3500 
L 3084 3500 
L 3084 2975 
L 922 459 
L 3084 459 
L 3084 0 
L 275 0 
L 275 525 
L 2438 3041 
L 353 3041 
L 353 3500 
z
" transform="scale(0.015625)"/>
       <path id="DejaVuSans-53" d="M 3425 4513 
L 3425 3897 
Q 3066 4069 2747 4153 
Q 2428 4238 2131 4238 
Q 1616 4238 1336 4038 
Q 1056 3838 1056 3469 
Q 1056 3159 1242 3001 
Q 1428 2844 1947 2747 
L 2328 2669 
Q 3034 2534 3370 2195 
Q 3706 1856 3706 1288 
Q 3706 609 3251 259 
Q 2797 -91 1919 -91 
Q 1588 -91 1214 -16 
Q 841 59 441 206 
L 441 856 
Q 825 641 1194 531 
Q 1563 422 1919 422 
Q 2459 422 2753 634 
Q 3047 847 3047 1241 
Q 3047 1584 2836 1778 
Q 2625 1972 2144 2069 
L 1759 2144 
Q 1053 2284 737 2584 
Q 422 2884 422 3419 
Q 422 4038 858 4394 
Q 1294 4750 2059 4750 
Q 2388 4750 2728 4690 
Q 3069 4631 3425 4513 
z
" transform="scale(0.015625)"/>
       <path id="DejaVuSans-68" d="M 3513 2113 
L 3513 0 
L 2938 0 
L 2938 2094 
Q 2938 2591 2744 2837 
Q 2550 3084 2163 3084 
Q 1697 3084 1428 2787 
Q 1159 2491 1159 1978 
L 1159 0 
L 581 0 
L 581 4863 
L 1159 4863 
L 1159 2956 
Q 1366 3272 1645 3428 
Q 1925 3584 2291 3584 
Q 2894 3584 3203 3211 
Q 3513 2838 3513 2113 
z
" transform="scale(0.015625)"/>
       <path id="DejaVuSans-66" d="M 2375 4863 
L 2375 4384 
L 1825 4384 
Q 1516 4384 1395 4259 
Q 1275 4134 1275 3809 
L 1275 3500 
L 2222 3500 
L 2222 3053 
L 1275 3053 
L 1275 0 
L 697 0 
L 697 3053 
L 147 3053 
L 147 3500 
L 697 3500 
L 697 3744 
Q 697 4328 969 4595 
Q 1241 4863 1831 4863 
L 2375 4863 
z
" transform="scale(0.015625)"/>
      </defs>
      <use xlink:href="#DejaVuSans-7a"/>
      <use xlink:href="#DejaVuSans-53" x="52.490234"/>
      <use xlink:href="#DejaVuSans-68" x="115.966797"/>
      <use xlink:href="#DejaVuSans-69" x="179.345703"/>
      <use xlink:href="#DejaVuSans-66" x="207.128906"/>
      <use xlink:href="#DejaVuSans-74" x="240.583984"/>
     </g>
    </g>
   </g>
   <g id="PathCollection_1"/>
   <g id="PathCollection_2">
    <path d="M 125.843238 288.21825 
L 125.770481 287.691461 
L 125.433359 285.55713 
L 125.107312 282.89601 
L 124.859302 280.23489 
L 124.672318 277.57377 
L 124.53298 274.91265 
L 124.43064 272.25153 
L 124.356768 269.59041 
L 124.304514 266.92929 
L 124.263616 263.82465 
L 124.240864 261.16353 
L 124.225973 258.50241 
L 124.216448 255.84129 
L 124.210464 253.18017 
L 124.206751 250.51905 
L 124.204477 247.85793 
L 124.203131 245.19681 
L 124.202398 242.53569 
L 124.202066 239.87457 
L 124.20197 237.21345 
L 124.201972 234.55233 
L 124.201968 231.89121 
L 124.201906 229.23009 
L 124.201793 226.56897 
L 124.201676 223.90785 
L 124.201609 220.80321 
L 124.201644 218.14209 
L 124.201745 215.48097 
L 124.201856 212.81985 
L 124.201917 210.15873 
L 124.201895 207.49761 
L 124.201802 204.83649 
L 124.201688 202.17537 
L 124.201615 199.51425 
L 124.201622 196.85313 
L 124.201706 194.19201 
L 124.201821 191.53089 
L 124.201905 188.86977 
L 124.201912 186.20865 
L 124.201838 183.54753 
L 124.201724 180.88641 
L 124.201632 178.22529 
L 124.201615 175.12065 
L 124.201689 172.45953 
L 124.201803 169.79841 
L 124.201896 167.13729 
L 124.201917 164.47617 
L 124.201855 161.81505 
L 124.201744 159.15393 
L 124.201643 156.49281 
L 124.201608 153.83169 
L 124.201657 151.17057 
L 124.201764 148.50945 
L 124.201871 145.84833 
L 124.201919 143.18721 
L 124.201884 140.52609 
L 124.201783 137.86497 
L 124.201671 135.20385 
L 124.201608 132.09921 
L 124.201644 129.43809 
L 124.201744 126.77697 
L 124.201856 124.11585 
L 124.201917 121.45473 
L 124.201895 118.79361 
L 124.201802 116.13249 
L 124.201688 113.47137 
L 124.201615 110.81025 
L 124.201622 108.14913 
L 124.201706 105.48801 
L 124.201821 102.82689 
L 124.201905 100.16577 
L 124.201912 97.50465 
L 124.201839 94.84353 
L 124.201725 92.18241 
L 124.201632 89.52129 
L 124.201617 86.41665 
L 124.201694 83.75553 
L 124.201815 81.09441 
L 124.201922 78.43329 
L 124.201972 75.77217 
L 124.20197 73.11105 
L 124.201976 70.44993 
L 124.202102 67.78881 
L 124.202491 65.12769 
L 124.203314 62.46657 
L 124.204795 59.80545 
L 124.207274 57.14433 
L 124.211313 54.48321 
L 124.217812 51.82209 
L 124.228132 49.16097 
L 124.244217 46.49985 
L 124.273839 43.39521 
L 124.312585 40.73409 
L 124.368496 38.07297 
L 124.44742 35.41185 
L 124.556713 32.75073 
L 124.705621 30.08961 
L 124.905809 27.42849 
L 125.172109 24.76737 
L 125.523596 22.10625 
" clip-path="url(#pd18b618311)" style="fill: none; stroke: #dbe9f6; stroke-width: 1.5"/>
    <path d="M 299.758012 22.10625 
L 299.830769 22.633039 
L 300.167891 24.76737 
L 300.493938 27.42849 
L 300.741948 30.08961 
L 300.928932 32.75073 
L 301.06827 35.41185 
L 301.17061 38.07297 
L 301.244482 40.73409 
L 301.296736 43.39521 
L 301.337634 46.49985 
L 301.360386 49.16097 
L 301.375277 51.82209 
L 301.384802 54.48321 
L 301.390786 57.14433 
L 301.394499 59.80545 
L 301.396773 62.46657 
L 301.398119 65.12769 
L 301.398852 67.78881 
L 301.399184 70.44993 
L 301.39928 73.11105 
L 301.399278 75.77217 
L 301.399282 78.43329 
L 301.399344 81.09441 
L 301.399457 83.75553 
L 301.399574 86.41665 
L 301.399641 89.52129 
L 301.399606 92.18241 
L 301.399505 94.84353 
L 301.399394 97.50465 
L 301.399333 100.16577 
L 301.399355 102.82689 
L 301.399449 105.48801 
L 301.399565 108.14913 
L 301.399643 110.81025 
L 301.399646 113.47137 
L 301.399586 116.13249 
L 301.399522 118.79361 
L 301.399547 121.45473 
L 301.399762 124.11585 
L 301.400278 126.77697 
L 301.401255 129.43809 
L 301.402981 132.09921 
L 301.406706 135.20385 
L 301.412568 137.86497 
L 301.422767 140.52609 
L 301.440109 143.18721 
L 301.468764 145.84833 
L 301.514711 148.50945 
L 301.586246 151.17057 
L 301.616369 151.911299 
L 301.715335 153.83169 
L 301.916113 156.49281 
L 302.201309 159.15393 
L 302.594384 161.81505 
L 303.119737 164.47617 
L 303.437681 165.71443 
L 303.889245 167.13729 
L 304.919887 169.79841 
L 305.223281 170.456084 
L 306.280633 172.45953 
L 307.008881 173.708774 
L 307.881336 175.12065 
L 308.794481 176.527969 
L 309.859033 178.22529 
L 310.615793 179.45853 
L 311.451131 180.88641 
L 312.401393 182.670215 
L 312.848652 183.54753 
L 314.033316 186.20865 
L 314.186993 186.603838 
L 315.06545 188.86977 
L 315.881189 191.53089 
L 315.972593 191.881728 
L 316.612727 194.19201 
L 317.191249 196.85313 
L 317.638565 199.51425 
L 317.793905 200.670349 
L 318.027111 202.17537 
L 318.351901 204.83649 
L 318.598234 207.49761 
L 318.782362 210.15873 
L 318.91678 212.81985 
L 319.010974 215.48097 
L 319.071872 218.14209 
L 319.10412 220.80321 
L 319.108766 223.90785 
L 319.084786 226.56897 
L 319.032989 229.23009 
L 318.949218 231.89121 
L 318.826989 234.55233 
L 318.657199 237.21345 
L 318.427657 239.87457 
L 318.122353 242.53569 
L 317.793905 244.73498 
L 317.733615 245.19681 
L 317.302286 247.85793 
L 316.739047 250.51905 
L 316.003756 253.18017 
L 315.972593 253.277673 
L 315.177314 255.84129 
L 314.186993 258.319353 
L 314.111923 258.50241 
L 312.865638 261.16353 
L 312.401393 262.022921 
L 311.356545 263.82465 
L 310.615793 265.008515 
L 309.292048 266.92929 
L 308.794481 267.645424 
L 307.412828 269.59041 
L 307.008881 270.186868 
L 305.692434 272.25153 
L 305.223281 273.065897 
L 304.300662 274.91265 
L 303.437681 276.893876 
L 303.192643 277.57377 
L 302.375832 280.23489 
L 301.644439 282.89601 
L 301.616369 283.008726 
L 301.087489 285.55713 
L 300.530564 288.21825 
" clip-path="url(#pd18b618311)" style="fill: none; stroke: #dbe9f6; stroke-width: 1.5"/>
   </g>
   <g id="PathCollection_3">
    <path d="M 130.49539 288.21825 
L 129.970589 285.55713 
L 129.568494 282.89601 
L 129.341681 280.945329 
L 129.2535 280.23489 
L 128.9969 277.57377 
L 128.805891 274.91265 
L 128.665795 272.25153 
L 128.564841 269.59041 
L 128.493572 266.92929 
L 128.437928 263.82465 
L 128.407054 261.16353 
L 128.386894 258.50241 
L 128.374024 255.84129 
L 128.36595 253.18017 
L 128.360944 250.51905 
L 128.357886 247.85793 
L 128.356085 245.19681 
L 128.355115 242.53569 
L 128.354688 239.87457 
L 128.354574 237.21345 
L 128.354581 234.55233 
L 128.35457 231.89121 
L 128.354474 229.23009 
L 128.35431 226.56897 
L 128.354149 223.90785 
L 128.354067 220.80321 
L 128.354128 218.14209 
L 128.354275 215.48097 
L 128.354428 212.81985 
L 128.354505 210.15873 
L 128.354462 207.49761 
L 128.354324 204.83649 
L 128.354165 202.17537 
L 128.354071 199.51425 
L 128.354094 196.85313 
L 128.35422 194.19201 
L 128.354382 191.53089 
L 128.354491 188.86977 
L 128.354489 186.20865 
L 128.354377 183.54753 
L 128.354215 180.88641 
L 128.354091 178.22529 
L 128.354082 175.12065 
L 128.354194 172.45953 
L 128.354356 169.79841 
L 128.35448 167.13729 
L 128.354498 164.47617 
L 128.354401 161.81505 
L 128.354241 159.15393 
L 128.354105 156.49281 
L 128.354067 153.83169 
L 128.354147 151.17057 
L 128.354302 148.50945 
L 128.354448 145.84833 
L 128.354506 143.18721 
L 128.354444 140.52609 
L 128.354296 137.86497 
L 128.354143 135.20385 
L 128.354065 132.09921 
L 128.354127 129.43809 
L 128.354274 126.77697 
L 128.354428 124.11585 
L 128.354504 121.45473 
L 128.354462 118.79361 
L 128.354324 116.13249 
L 128.354165 113.47137 
L 128.354071 110.81025 
L 128.354094 108.14913 
L 128.35422 105.48801 
L 128.354382 102.82689 
L 128.354491 100.16577 
L 128.354489 97.50465 
L 128.354377 94.84353 
L 128.354215 92.18241 
L 128.354092 89.52129 
L 128.354085 86.41665 
L 128.354202 83.75553 
L 128.354374 81.09441 
L 128.354519 78.43329 
L 128.354582 75.77217 
L 128.354575 73.11105 
L 128.354593 70.44993 
L 128.354797 67.78881 
L 128.355396 65.12769 
L 128.356633 62.46657 
L 128.358837 59.80545 
L 128.362514 57.14433 
L 128.368494 54.48321 
L 128.378105 51.82209 
L 128.393344 49.16097 
L 128.417047 46.49985 
L 128.460582 43.39521 
L 128.517381 40.73409 
L 128.599164 38.07297 
L 128.714391 35.41185 
L 128.873705 32.75073 
L 129.090493 30.08961 
L 129.341681 27.781883 
L 129.377801 27.42849 
L 129.727764 24.76737 
L 130.190144 22.10625 
" clip-path="url(#pd18b618311)" style="fill: none; stroke: #bad6eb; stroke-width: 1.5"/>
    <path d="M 295.10586 22.10625 
L 295.630661 24.76737 
L 296.032756 27.42849 
L 296.259569 29.379171 
L 296.34775 30.08961 
L 296.60435 32.75073 
L 296.795359 35.41185 
L 296.935455 38.07297 
L 297.036409 40.73409 
L 297.107678 43.39521 
L 297.163322 46.49985 
L 297.194196 49.16097 
L 297.214356 51.82209 
L 297.227226 54.48321 
L 297.2353 57.14433 
L 297.240306 59.80545 
L 297.243364 62.46657 
L 297.245165 65.12769 
L 297.246135 67.78881 
L 297.246562 70.44993 
L 297.246676 73.11105 
L 297.246669 75.77217 
L 297.24668 78.43329 
L 297.246776 81.09441 
L 297.24694 83.75553 
L 297.247101 86.41665 
L 297.247183 89.52129 
L 297.247122 92.18241 
L 297.246975 94.84353 
L 297.246822 97.50465 
L 297.246746 100.16577 
L 297.246788 102.82689 
L 297.246927 105.48801 
L 297.247087 108.14913 
L 297.247184 110.81025 
L 297.247169 113.47137 
L 297.247058 116.13249 
L 297.246931 118.79361 
L 297.246894 121.45473 
L 297.247044 124.11585 
L 297.247452 126.77697 
L 297.248186 129.43809 
L 297.249391 132.09921 
L 297.251849 135.20385 
L 297.255644 137.86497 
L 297.262256 140.52609 
L 297.273562 143.18721 
L 297.292311 145.84833 
L 297.322411 148.50945 
L 297.369272 151.17057 
L 297.440232 153.83169 
L 297.544974 156.49281 
L 297.695921 159.15393 
L 297.908549 161.81505 
L 298.045169 163.06435 
L 298.224864 164.47617 
L 298.676328 167.13729 
L 299.267975 169.79841 
L 299.830769 171.780375 
L 300.058607 172.45953 
L 301.144608 175.12065 
L 301.616369 176.085228 
L 302.80343 178.22529 
L 303.437681 179.243831 
L 304.518913 180.88641 
L 305.223281 181.912998 
L 306.320594 183.54753 
L 307.008881 184.595092 
L 307.995105 186.20865 
L 308.794481 187.632112 
L 309.434389 188.86977 
L 310.615793 191.528081 
L 310.616968 191.53089 
L 311.598516 194.19201 
L 312.371732 196.85313 
L 312.401393 196.974906 
L 313.019728 199.51425 
L 313.523917 202.17537 
L 313.912145 204.83649 
L 314.186993 207.302975 
L 314.210295 207.49761 
L 314.457331 210.15873 
L 314.63736 212.81985 
L 314.762924 215.48097 
L 314.843171 218.14209 
L 314.884168 220.80321 
L 314.886439 223.90785 
L 314.849414 226.56897 
L 314.773324 229.23009 
L 314.652124 231.89121 
L 314.476541 234.55233 
L 314.233686 237.21345 
L 314.186993 237.606919 
L 313.934466 239.87457 
L 313.544031 242.53569 
L 313.031984 245.19681 
L 312.401393 247.72314 
L 312.367185 247.85793 
L 311.555352 250.51905 
L 310.615793 252.937363 
L 310.51376 253.18017 
L 309.219491 255.84129 
L 308.794481 256.60232 
L 307.614292 258.50241 
L 307.008881 259.405647 
L 305.723778 261.16353 
L 305.223281 261.841775 
L 303.732619 263.82465 
L 303.437681 264.243084 
L 301.679105 266.92929 
L 301.616369 267.03804 
L 300.349022 269.59041 
L 299.830769 270.816381 
L 299.317917 272.25153 
L 298.514791 274.91265 
L 298.045169 276.713179 
L 297.849789 277.57377 
L 297.301526 280.23489 
L 296.767442 282.89601 
L 296.259569 285.308377 
L 296.210319 285.55713 
L 295.635357 288.21825 
" clip-path="url(#pd18b618311)" style="fill: none; stroke: #bad6eb; stroke-width: 1.5"/>
   </g>
   <g id="PathCollection_4">
    <path d="M 134.369775 288.21825 
L 133.641283 285.55713 
L 133.082651 282.89601 
L 132.948593 282.080254 
L 132.656626 280.23489 
L 132.335399 277.57377 
L 132.096336 274.91265 
L 131.92109 272.25153 
L 131.794914 269.59041 
L 131.705942 266.92929 
L 131.63658 263.82465 
L 131.598162 261.16353 
L 131.573113 258.50241 
L 131.557144 255.84129 
L 131.547133 253.18017 
L 131.540932 250.51905 
L 131.537149 247.85793 
L 131.53493 245.19681 
L 131.533746 242.53569 
L 131.533236 239.87457 
L 131.533108 237.21345 
L 131.53312 234.55233 
L 131.533099 231.89121 
L 131.532968 229.23009 
L 131.532755 226.56897 
L 131.532553 223.90785 
L 131.532461 220.80321 
L 131.532548 218.14209 
L 131.532741 215.48097 
L 131.532934 212.81985 
L 131.533022 210.15873 
L 131.532957 207.49761 
L 131.532774 204.83649 
L 131.532573 202.17537 
L 131.532462 199.51425 
L 131.532502 196.85313 
L 131.53267 194.19201 
L 131.532877 191.53089 
L 131.533009 188.86977 
L 131.532995 186.20865 
L 131.532843 183.54753 
L 131.532635 180.88641 
L 131.532484 178.22529 
L 131.532485 175.12065 
L 131.532637 172.45953 
L 131.532845 169.79841 
L 131.532996 167.13729 
L 131.533008 164.47617 
L 131.532875 161.81505 
L 131.532669 159.15393 
L 131.532501 156.49281 
L 131.532463 153.83169 
L 131.532575 151.17057 
L 131.532776 148.50945 
L 131.532958 145.84833 
L 131.533022 143.18721 
L 131.532932 140.52609 
L 131.532739 137.86497 
L 131.532546 135.20385 
L 131.532458 132.09921 
L 131.532547 129.43809 
L 131.532741 126.77697 
L 131.532934 124.11585 
L 131.533022 121.45473 
L 131.532957 118.79361 
L 131.532774 116.13249 
L 131.532573 113.47137 
L 131.532462 110.81025 
L 131.532502 108.14913 
L 131.532671 105.48801 
L 131.532877 102.82689 
L 131.533009 100.16577 
L 131.532995 97.50465 
L 131.532843 94.84353 
L 131.532636 92.18241 
L 131.532486 89.52129 
L 131.53249 86.41665 
L 131.532648 83.75553 
L 131.532869 81.09441 
L 131.533049 78.43329 
L 131.533121 75.77217 
L 131.533109 73.11105 
L 131.533141 70.44993 
L 131.53343 67.78881 
L 131.534244 65.12769 
L 131.535901 62.46657 
L 131.538834 59.80545 
L 131.543713 57.14433 
L 131.55164 54.48321 
L 131.56437 51.82209 
L 131.584534 49.16097 
L 131.615852 46.49985 
L 131.673274 43.39521 
L 131.748069 40.73409 
L 131.855628 38.07297 
L 132.007023 35.41185 
L 132.216203 32.75073 
L 132.500748 30.08961 
L 132.882911 27.42849 
L 132.948593 27.069188 
L 133.393023 24.76737 
L 134.067837 22.10625 
" clip-path="url(#pd18b618311)" style="fill: none; stroke: #89bedc; stroke-width: 1.5"/>
    <path d="M 291.231475 22.10625 
L 291.959967 24.76737 
L 292.518599 27.42849 
L 292.652657 28.244246 
L 292.944624 30.08961 
L 293.265851 32.75073 
L 293.504914 35.41185 
L 293.68016 38.07297 
L 293.806336 40.73409 
L 293.895308 43.39521 
L 293.96467 46.49985 
L 294.003088 49.16097 
L 294.028137 51.82209 
L 294.044106 54.48321 
L 294.054117 57.14433 
L 294.060318 59.80545 
L 294.064101 62.46657 
L 294.06632 65.12769 
L 294.067504 67.78881 
L 294.068014 70.44993 
L 294.068142 73.11105 
L 294.06813 75.77217 
L 294.068151 78.43329 
L 294.068282 81.09441 
L 294.068495 83.75553 
L 294.068697 86.41665 
L 294.068789 89.52129 
L 294.068702 92.18241 
L 294.068509 94.84353 
L 294.068316 97.50465 
L 294.068228 100.16577 
L 294.068293 102.82689 
L 294.068476 105.48801 
L 294.068679 108.14913 
L 294.068792 110.81025 
L 294.068757 113.47137 
L 294.0686 116.13249 
L 294.068419 118.79361 
L 294.068339 121.45473 
L 294.06846 124.11585 
L 294.068825 126.77697 
L 294.069445 129.43809 
L 294.070372 132.09921 
L 294.072126 135.20385 
L 294.074769 137.86497 
L 294.079397 140.52609 
L 294.087388 143.18721 
L 294.100725 145.84833 
L 294.122166 148.50945 
L 294.155503 151.17057 
L 294.205881 153.83169 
L 294.280145 156.49281 
L 294.387183 159.15393 
L 294.438257 160.060886 
L 294.543411 161.81505 
L 294.762808 164.47617 
L 295.059949 167.13729 
L 295.455414 169.79841 
L 295.973715 172.45953 
L 296.259569 173.622572 
L 296.676245 175.12065 
L 297.770775 178.22529 
L 298.045169 178.8658 
L 299.03708 180.88641 
L 299.830769 182.287828 
L 300.622707 183.54753 
L 301.616369 185.006603 
L 302.462097 186.20865 
L 303.437681 187.572892 
L 304.3199 188.86977 
L 305.223281 190.261961 
L 305.966566 191.53089 
L 307.008881 193.51851 
L 307.324806 194.19201 
L 308.40059 196.85313 
L 308.794481 198.025921 
L 309.253913 199.51425 
L 309.918142 202.17537 
L 310.434887 204.83649 
L 310.615793 206.028144 
L 310.833785 207.49761 
L 311.134592 210.15873 
L 311.354 212.81985 
L 311.506708 215.48097 
L 311.603491 218.14209 
L 311.651462 220.80321 
L 311.650305 223.90785 
L 311.600085 226.56897 
L 311.500258 229.23009 
L 311.343011 231.89121 
L 311.11656 234.55233 
L 310.804726 237.21345 
L 310.615793 238.442074 
L 310.387712 239.87457 
L 309.840256 242.53569 
L 309.12894 245.19681 
L 308.794481 246.21401 
L 308.194241 247.85793 
L 307.008881 250.502403 
L 307.000305 250.51905 
L 305.443962 253.18017 
L 305.223281 253.520314 
L 303.533655 255.84129 
L 303.437681 255.968429 
L 301.616369 258.280637 
L 301.445151 258.50241 
L 299.830769 260.735293 
L 299.554062 261.16353 
L 298.045169 263.814281 
L 298.040106 263.82465 
L 296.750526 266.92929 
L 296.259569 268.372899 
L 295.896928 269.59041 
L 295.221623 272.25153 
L 294.635681 274.91265 
L 294.438257 275.884212 
L 294.11311 277.57377 
L 293.604363 280.23489 
L 293.059097 282.89601 
L 292.652657 284.650706 
L 292.433462 285.55713 
L 291.676867 288.21825 
" clip-path="url(#pd18b618311)" style="fill: none; stroke: #89bedc; stroke-width: 1.5"/>
   </g>
   <g id="PathCollection_5">
    <path d="M 138.662 288.21825 
L 138.341105 287.617356 
L 137.477723 285.55713 
L 136.609261 282.89601 
L 136.519793 282.548224 
L 136.010445 280.23489 
L 135.566465 277.57377 
L 135.235983 274.91265 
L 134.993758 272.25153 
L 134.819441 269.59041 
L 134.734193 267.748289 
L 134.698692 266.92929 
L 134.608348 263.82465 
L 134.558392 261.16353 
L 134.525868 258.50241 
L 134.505157 255.84129 
L 134.492184 253.18017 
L 134.484154 250.51905 
L 134.479263 247.85793 
L 134.476404 245.19681 
L 134.474892 242.53569 
L 134.474253 239.87457 
L 134.474103 237.21345 
L 134.474121 234.55233 
L 134.474085 231.89121 
L 134.473902 229.23009 
L 134.473614 226.56897 
L 134.47335 223.90785 
L 134.473242 220.80321 
L 134.47337 218.14209 
L 134.473632 215.48097 
L 134.473884 212.81985 
L 134.473989 210.15873 
L 134.47389 207.49761 
L 134.473641 204.83649 
L 134.473376 202.17537 
L 134.47324 199.51425 
L 134.473305 196.85313 
L 134.473537 194.19201 
L 134.47381 191.53089 
L 134.473976 188.86977 
L 134.473944 186.20865 
L 134.473733 183.54753 
L 134.473456 180.88641 
L 134.473264 178.22529 
L 134.47328 175.12065 
L 134.473491 172.45953 
L 134.473768 169.79841 
L 134.47396 167.13729 
L 134.473964 164.47617 
L 134.473777 161.81505 
L 134.473501 159.15393 
L 134.473285 156.49281 
L 134.473247 153.83169 
L 134.473407 151.17057 
L 134.473678 148.50945 
L 134.473914 145.84833 
L 134.473986 143.18721 
L 134.473856 140.52609 
L 134.473593 137.86497 
L 134.473341 135.20385 
L 134.473238 132.09921 
L 134.473369 129.43809 
L 134.473631 126.77697 
L 134.473883 124.11585 
L 134.473989 121.45473 
L 134.47389 118.79361 
L 134.473641 116.13249 
L 134.473376 113.47137 
L 134.47324 110.81025 
L 134.473305 108.14913 
L 134.473537 105.48801 
L 134.47381 102.82689 
L 134.473976 100.16577 
L 134.473945 97.50465 
L 134.473734 94.84353 
L 134.473457 92.18241 
L 134.473267 89.52129 
L 134.473287 86.41665 
L 134.473507 83.75553 
L 134.473803 81.09441 
L 134.474035 78.43329 
L 134.474122 75.77217 
L 134.474104 73.11105 
L 134.474159 70.44993 
L 134.474577 67.78881 
L 134.47572 65.12769 
L 134.478018 62.46657 
L 134.482062 59.80545 
L 134.488775 57.14433 
L 134.499673 54.48321 
L 134.517161 51.82209 
L 134.544831 49.16097 
L 134.587746 46.49985 
L 134.666297 43.39521 
L 134.734193 41.620984 
L 134.770491 40.73409 
L 134.926001 38.07297 
L 135.144769 35.41185 
L 135.446974 32.75073 
L 135.858116 30.08961 
L 136.410575 27.42849 
L 136.519793 27.015391 
L 137.228876 24.76737 
L 138.331494 22.10625 
" clip-path="url(#pd18b618311)" style="fill: none; stroke: #539ecd; stroke-width: 1.5"/>
    <path d="M 286.93925 22.10625 
L 287.260145 22.707144 
L 288.123527 24.76737 
L 288.991989 27.42849 
L 289.081457 27.776276 
L 289.590805 30.08961 
L 290.034785 32.75073 
L 290.365267 35.41185 
L 290.607492 38.07297 
L 290.781809 40.73409 
L 290.867057 42.576211 
L 290.902558 43.39521 
L 290.992902 46.49985 
L 291.042858 49.16097 
L 291.075382 51.82209 
L 291.096093 54.48321 
L 291.109066 57.14433 
L 291.117096 59.80545 
L 291.121987 62.46657 
L 291.124846 65.12769 
L 291.126358 67.78881 
L 291.126997 70.44993 
L 291.127147 73.11105 
L 291.127129 75.77217 
L 291.127165 78.43329 
L 291.127348 81.09441 
L 291.127636 83.75553 
L 291.1279 86.41665 
L 291.128008 89.52129 
L 291.12788 92.18241 
L 291.127618 94.84353 
L 291.127366 97.50465 
L 291.127261 100.16577 
L 291.12736 102.82689 
L 291.12761 105.48801 
L 291.127875 108.14913 
L 291.128014 110.81025 
L 291.127952 113.47137 
L 291.127729 116.13249 
L 291.127476 118.79361 
L 291.127351 121.45473 
L 291.127465 124.11585 
L 291.127841 126.77697 
L 291.128436 129.43809 
L 291.129227 132.09921 
L 291.130562 135.20385 
L 291.132498 137.86497 
L 291.135928 140.52609 
L 291.141967 143.18721 
L 291.15216 145.84833 
L 291.168594 148.50945 
L 291.194088 151.17057 
L 291.232457 153.83169 
L 291.288807 156.49281 
L 291.369821 159.15393 
L 291.48399 161.81505 
L 291.641821 164.47617 
L 291.856068 167.13729 
L 292.142094 169.79841 
L 292.518457 172.45953 
L 292.652657 173.214954 
L 293.005451 175.12065 
L 293.750037 178.22529 
L 294.438257 180.459339 
L 294.584154 180.88641 
L 295.663887 183.54753 
L 296.259569 184.782894 
L 297.041849 186.20865 
L 298.045169 187.834263 
L 298.751063 188.86977 
L 299.830769 190.369932 
L 300.68369 191.53089 
L 301.616369 192.812113 
L 302.548222 194.19201 
L 303.437681 195.609055 
L 304.118236 196.85313 
L 305.223281 199.169457 
L 305.365136 199.51425 
L 306.288352 202.17537 
L 307.008881 204.777197 
L 307.023406 204.83649 
L 307.54566 207.49761 
L 307.940597 210.15873 
L 308.230216 212.81985 
L 308.432042 215.48097 
L 308.55919 218.14209 
L 308.620351 220.80321 
L 308.613668 223.90785 
L 308.540203 226.56897 
L 308.39829 229.23009 
L 308.17731 231.89121 
L 307.861647 234.55233 
L 307.43044 237.21345 
L 307.008881 239.189706 
L 306.841304 239.87457 
L 306.021068 242.53569 
L 305.223281 244.600423 
L 304.948461 245.19681 
L 303.504393 247.85793 
L 303.437681 247.966406 
L 301.618386 250.51905 
L 301.616369 250.521704 
L 299.830769 252.71387 
L 299.45544 253.18017 
L 298.045169 255.002889 
L 297.46666 255.84129 
L 296.259569 257.783306 
L 295.876384 258.50241 
L 294.656449 261.16353 
L 294.438257 261.723638 
L 293.71343 263.82465 
L 292.844689 266.92929 
L 292.652657 267.738606 
L 292.232593 269.59041 
L 291.695901 272.25153 
L 291.194326 274.91265 
L 290.867057 276.634818 
L 290.678396 277.57377 
L 290.095815 280.23489 
L 289.419357 282.89601 
L 289.081457 284.015249 
L 288.532174 285.55713 
L 287.361169 288.21825 
" clip-path="url(#pd18b618311)" style="fill: none; stroke: #539ecd; stroke-width: 1.5"/>
   </g>
   <g id="PathCollection_6">
    <path d="M 150.505073 288.21825 
L 149.090417 287.950652 
L 147.304817 287.510284 
L 145.519217 286.835391 
L 143.697905 285.718073 
L 143.527326 285.55713 
L 141.912305 283.709525 
L 141.42375 282.89601 
L 140.163034 280.23489 
L 140.126705 280.136132 
L 139.417209 277.57377 
L 138.867874 274.91265 
L 138.465207 272.25153 
L 138.341105 271.119115 
L 138.203724 269.59041 
L 138.034574 266.92929 
L 137.903058 263.82465 
L 137.830432 261.16353 
L 137.783205 258.50241 
L 137.75316 255.84129 
L 137.734354 253.18017 
L 137.722719 250.51905 
L 137.715643 247.85793 
L 137.711525 245.19681 
L 137.709367 242.53569 
L 137.708472 239.87457 
L 137.708274 237.21345 
L 137.708304 234.55233 
L 137.708237 231.89121 
L 137.707951 229.23009 
L 137.707518 226.56897 
L 137.707134 223.90785 
L 137.706994 220.80321 
L 137.707203 218.14209 
L 137.707598 215.48097 
L 137.707965 212.81985 
L 137.708104 210.15873 
L 137.707938 207.49761 
L 137.707559 204.83649 
L 137.707171 202.17537 
L 137.706985 199.51425 
L 137.707101 196.85313 
L 137.707457 194.19201 
L 137.70786 191.53089 
L 137.708091 188.86977 
L 137.708025 186.20865 
L 137.707698 183.54753 
L 137.707287 180.88641 
L 137.707015 178.22529 
L 137.707061 175.12065 
L 137.707388 172.45953 
L 137.707799 169.79841 
L 137.708071 167.13729 
L 137.708057 164.47617 
L 137.707764 161.81505 
L 137.707352 159.15393 
L 137.707043 156.49281 
L 137.707005 153.83169 
L 137.707259 151.17057 
L 137.707667 148.50945 
L 137.708008 145.84833 
L 137.708097 143.18721 
L 137.707885 140.52609 
L 137.707489 137.86497 
L 137.707121 135.20385 
L 137.706989 132.09921 
L 137.707201 129.43809 
L 137.707597 126.77697 
L 137.707965 124.11585 
L 137.708103 121.45473 
L 137.707938 118.79361 
L 137.707559 116.13249 
L 137.707171 113.47137 
L 137.706985 110.81025 
L 137.707101 108.14913 
L 137.707457 105.48801 
L 137.70786 102.82689 
L 137.708091 100.16577 
L 137.708025 97.50465 
L 137.707699 94.84353 
L 137.707289 92.18241 
L 137.707019 89.52129 
L 137.707072 86.41665 
L 137.707412 83.75553 
L 137.707853 81.09441 
L 137.708188 78.43329 
L 137.708305 75.77217 
L 137.708275 73.11105 
L 137.708379 70.44993 
L 137.709055 67.78881 
L 137.710848 65.12769 
L 137.714415 62.46657 
L 137.720655 59.80545 
L 137.730992 57.14433 
L 137.74776 54.48321 
L 137.77465 51.82209 
L 137.817155 49.16097 
L 137.882998 46.49985 
L 138.003342 43.39521 
L 138.159646 40.73409 
L 138.341105 38.575359 
L 138.392818 38.07297 
L 138.773706 35.41185 
L 139.299908 32.75073 
L 140.016145 30.08961 
L 140.126705 29.772409 
L 141.235422 27.42849 
L 141.912305 26.315786 
L 143.309263 24.76737 
L 143.697905 24.415286 
L 145.519217 23.361915 
L 147.304817 22.730392 
L 149.090417 22.312526 
L 150.203357 22.10625 
" clip-path="url(#pd18b618311)" style="fill: none; stroke: #2b7bba; stroke-width: 1.5"/>
    <path d="M 275.096177 22.10625 
L 278.296433 22.814216 
L 280.082033 23.489109 
L 282.073924 24.76737 
L 283.688945 26.614975 
L 284.1775 27.42849 
L 285.474545 30.188368 
L 286.184041 32.75073 
L 286.733376 35.41185 
L 287.260145 39.205385 
L 287.566676 43.39521 
L 287.818045 51.82209 
L 287.891883 67.78881 
L 288.021931 156.49281 
L 288.300184 164.47617 
L 288.694693 169.79841 
L 289.343163 175.12065 
L 289.866157 178.22529 
L 290.867057 182.439303 
L 291.171958 183.54753 
L 292.652657 187.714661 
L 293.158917 188.86977 
L 294.533495 191.53089 
L 296.259569 194.229046 
L 300.081507 199.51425 
L 301.653788 202.17537 
L 302.776301 204.83649 
L 303.649747 207.49761 
L 304.234407 210.15873 
L 304.670174 212.81985 
L 304.976498 215.48097 
L 305.252732 220.80321 
L 305.113007 226.56897 
L 304.878262 229.23009 
L 304.519207 231.89121 
L 304.01502 234.55233 
L 303.316629 237.21345 
L 301.616369 241.172241 
L 299.830769 243.937283 
L 294.438257 251.008685 
L 292.652657 254.389469 
L 292.035404 255.84129 
L 290.867057 259.218448 
L 290.296237 261.16353 
L 289.081457 266.530526 
L 287.930732 272.25153 
L 287.260145 275.491181 
L 286.690107 277.57377 
L 285.474545 281.127468 
L 284.541403 282.89601 
L 283.688945 284.208749 
L 281.903345 285.99213 
L 280.082033 287.00723 
L 278.296433 287.618914 
L 275.451778 288.21825 
L 275.451778 288.21825 
" clip-path="url(#pd18b618311)" style="fill: none; stroke: #2b7bba; stroke-width: 1.5"/>
   </g>
   <g id="PathCollection_7">
    <path d="M 143.298034 266.92929 
L 142.963753 263.82465 
L 142.77935 261.16353 
L 142.659561 258.50241 
L 142.583417 255.84129 
L 142.535782 253.18017 
L 142.506333 250.51905 
L 142.488455 247.85793 
L 142.478097 245.19681 
L 142.472726 242.53569 
L 142.470549 239.87457 
L 142.470102 237.21345 
L 142.470178 234.55233 
L 142.469966 231.89121 
L 142.469179 229.23009 
L 142.468042 226.56897 
L 142.467071 223.90785 
L 142.466771 220.80321 
L 142.467363 218.14209 
L 142.468408 215.48097 
L 142.469336 212.81985 
L 142.469643 210.15873 
L 142.469161 207.49761 
L 142.468151 204.83649 
L 142.467161 202.17537 
L 142.466727 199.51425 
L 142.467085 196.85313 
L 142.46804 194.19201 
L 142.469075 191.53089 
L 142.469629 188.86977 
L 142.469401 186.20865 
L 142.468515 183.54753 
L 142.467452 180.88641 
L 142.466787 178.22529 
L 142.466973 175.12065 
L 142.467859 172.45953 
L 142.468922 169.79841 
L 142.469587 167.13729 
L 142.469493 164.47617 
L 142.468691 161.81505 
L 142.467616 159.15393 
L 142.46685 156.49281 
L 142.466809 153.83169 
L 142.467515 151.17057 
L 142.468585 148.50945 
L 142.46944 145.84833 
L 142.469615 143.18721 
L 142.469016 140.52609 
L 142.467968 137.86497 
L 142.467039 135.20385 
L 142.466759 132.09921 
L 142.467358 129.43809 
L 142.468406 126.77697 
L 142.469335 124.11585 
L 142.469642 121.45473 
L 142.469161 118.79361 
L 142.468151 116.13249 
L 142.467161 113.47137 
L 142.466727 110.81025 
L 142.467085 108.14913 
L 142.46804 105.48801 
L 142.469075 102.82689 
L 142.469629 100.16577 
L 142.469402 97.50465 
L 142.468517 94.84353 
L 142.467457 92.18241 
L 142.466798 89.52129 
L 142.467003 86.41665 
L 142.467926 83.75553 
L 142.469072 81.09441 
L 142.469911 78.43329 
L 142.470178 75.77217 
L 142.4701 73.11105 
L 142.470443 70.44993 
L 142.472378 67.78881 
L 142.477346 65.12769 
L 142.487094 62.46657 
L 142.504052 59.80545 
L 142.532086 57.14433 
L 142.577525 54.48321 
L 142.650344 51.82209 
L 142.765334 49.16097 
L 142.943246 46.49985 
L 143.268024 43.39521 
L 143.689505 40.73409 
L 143.697905 40.696573 
L 144.595253 38.07297 
L 145.519217 36.141254 
L 146.076162 35.41185 
L 147.304817 34.212654 
L 149.090417 33.061868 
L 149.705337 32.75073 
L 150.876017 32.291813 
L 152.697329 31.632779 
L 154.482929 31.023904 
L 156.268529 30.516525 
L 158.054129 30.198893 
L 159.875441 30.129153 
L 161.661041 30.300407 
L 163.446641 30.62651 
L 165.232241 30.975097 
L 167.053553 31.210043 
L 168.839153 31.227723 
L 170.624753 31.025683 
L 172.410353 30.682567 
L 174.231665 30.325005 
L 176.017265 30.102197 
L 177.768287 30.08961 
L 177.802865 30.08941 
L 177.80507 30.08961 
L 179.588465 30.290728 
L 181.409777 30.638771 
L 183.195377 30.989269 
L 184.980977 31.21329 
L 186.766577 31.222814 
L 188.587889 31.007606 
L 190.373489 30.660157 
L 192.159089 30.312835 
L 193.944689 30.097332 
L 195.766001 30.095789 
L 197.551601 30.308334 
L 199.337201 30.65358 
L 201.122801 31.001463 
L 202.944113 31.220401 
L 204.729713 31.215992 
L 206.515313 30.995493 
L 208.300913 30.645301 
L 210.122225 30.295061 
L 211.907825 30.090718 
L 213.693425 30.100515 
L 215.479025 30.320348 
L 217.300337 30.675802 
L 219.085937 31.019344 
L 220.871537 31.224693 
L 222.657137 31.210997 
L 224.478449 30.976925 
L 226.264049 30.623039 
L 228.049649 30.283496 
L 229.809209 30.08961 
L 229.835249 30.087309 
L 230.077389 30.08961 
L 231.656561 30.108254 
L 233.442161 30.338764 
L 235.227761 30.690607 
L 237.013361 31.030982 
L 238.834673 31.230451 
L 240.620273 31.20284 
L 242.405873 30.964292 
L 244.191473 30.608227 
L 246.012785 30.266598 
L 247.719672 30.08961 
L 247.798385 30.083063 
L 248.246871 30.08961 
L 249.583985 30.11386 
L 251.369585 30.351345 
L 253.190897 30.712914 
L 254.976497 31.048346 
L 256.762097 31.234704 
L 258.547697 31.19904 
L 260.369009 30.949804 
L 262.154609 30.596689 
L 263.940209 30.278202 
L 265.725809 30.124847 
L 267.547121 30.216911 
L 269.332721 30.552663 
L 271.118321 31.069654 
L 272.903921 31.680209 
L 274.725233 32.338261 
L 275.772226 32.75073 
L 276.510833 33.125816 
L 278.296433 34.292843 
L 279.426884 35.41185 
L 280.082033 36.276901 
L 280.939328 38.07297 
L 281.85771 40.73409 
L 281.903345 40.920664 
L 282.303216 43.39521 
L 282.637497 46.49985 
L 282.8219 49.16097 
L 282.941689 51.82209 
L 283.017833 54.48321 
L 283.065468 57.14433 
L 283.094917 59.80545 
L 283.112795 62.46657 
L 283.123153 65.12769 
L 283.128524 67.78881 
L 283.130701 70.44993 
L 283.131148 73.11105 
L 283.131072 75.77217 
L 283.131284 78.43329 
L 283.132071 81.09441 
L 283.133208 83.75553 
L 283.134179 86.41665 
L 283.134479 89.52129 
L 283.133887 92.18241 
L 283.132842 94.84353 
L 283.131914 97.50465 
L 283.131607 100.16577 
L 283.132089 102.82689 
L 283.133099 105.48801 
L 283.13409 108.14913 
L 283.134525 110.81025 
L 283.134171 113.47137 
L 283.133224 116.13249 
L 283.132205 118.79361 
L 283.131684 121.45473 
L 283.131979 124.11585 
L 283.132998 126.77697 
L 283.134317 129.43809 
L 283.135461 132.09921 
L 283.136349 135.20385 
L 283.137161 137.86497 
L 283.139014 140.52609 
L 283.143228 143.18721 
L 283.151269 145.84833 
L 283.164682 148.50945 
L 283.185261 151.17057 
L 283.215441 153.83169 
L 283.258788 156.49281 
L 283.320412 159.15393 
L 283.407223 161.81505 
L 283.528029 164.47617 
L 283.688945 167.063805 
L 283.692285 167.13729 
L 283.8505 169.79841 
L 284.059688 172.45953 
L 284.333102 175.12065 
L 284.756325 178.22529 
L 285.234912 180.88641 
L 285.474545 181.980191 
L 285.758348 183.54753 
L 286.350835 186.20865 
L 287.106497 188.86977 
L 287.260145 189.345238 
L 287.910694 191.53089 
L 288.883856 194.19201 
L 289.081457 194.684221 
L 289.968637 196.85313 
L 290.867057 198.776585 
L 291.246392 199.51425 
L 292.652657 202.066465 
L 292.721158 202.17537 
L 294.397091 204.83649 
L 294.438257 204.904151 
L 296.116192 207.49761 
L 296.259569 207.741127 
L 297.545437 210.15873 
L 298.045169 211.279053 
L 298.57739 212.81985 
L 299.258584 215.48097 
L 299.701193 218.14209 
L 299.830769 219.90867 
L 299.876942 220.80321 
L 299.830769 223.108518 
L 299.807654 223.90785 
L 299.453224 226.56897 
L 298.839335 229.23009 
L 298.045169 231.652349 
L 297.940461 231.89121 
L 296.475975 234.55233 
L 296.259569 234.884896 
L 294.639241 237.21345 
L 294.438257 237.479422 
L 292.805775 239.87457 
L 292.652657 240.096299 
L 291.216923 242.53569 
L 290.867057 243.164021 
L 289.865847 245.19681 
L 289.081457 246.995728 
L 288.720512 247.85793 
L 287.726909 250.51905 
L 287.260145 251.999682 
L 286.86251 253.18017 
L 286.091252 255.84129 
L 285.474545 258.466033 
L 285.464379 258.50241 
L 284.779677 261.16353 
L 284.184422 263.82465 
L 283.688945 266.159173 
L 283.47256 266.92929 
L 282.66678 269.59041 
L 281.903345 271.845988 
L 281.70032 272.25153 
L 280.082033 274.904139 
L 280.073985 274.91265 
L 278.296433 276.396798 
L 276.510833 277.412008 
L 276.160873 277.57377 
L 274.725233 278.095151 
L 272.903921 278.72383 
L 271.118321 279.316683 
L 269.332721 279.815819 
L 267.547121 280.129397 
L 265.725809 280.197163 
L 263.940209 280.024982 
L 262.154609 279.698421 
L 260.369009 279.349605 
L 258.547697 279.114546 
L 256.762097 279.096814 
L 254.976497 279.298831 
L 253.190897 279.641939 
L 251.369585 279.999497 
L 249.583985 280.222304 
L 247.832994 280.23489 
L 247.798385 280.23509 
L 247.796178 280.23489 
L 246.012785 280.033772 
L 244.191473 279.685729 
L 242.405873 279.335231 
L 240.620273 279.11121 
L 238.834673 279.101686 
L 237.013361 279.316894 
L 235.227761 279.664343 
L 233.442161 280.011665 
L 231.656561 280.227168 
L 229.835249 280.228711 
L 228.049649 280.016166 
L 226.264049 279.67092 
L 224.478449 279.323037 
L 222.657137 279.104099 
L 220.871537 279.108508 
L 219.085937 279.329007 
L 217.300337 279.679199 
L 215.479025 280.029439 
L 213.693425 280.233782 
L 211.907825 280.223985 
L 210.122225 280.004152 
L 208.300913 279.648698 
L 206.515313 279.305156 
L 204.729713 279.099807 
L 202.944113 279.113503 
L 201.122801 279.347575 
L 199.337201 279.701461 
L 197.551601 280.041004 
L 195.792041 280.23489 
L 195.766001 280.237191 
L 195.523861 280.23489 
L 193.944689 280.216246 
L 192.159089 279.985736 
L 190.373489 279.633893 
L 188.587889 279.293518 
L 186.766577 279.094049 
L 184.980977 279.12166 
L 183.195377 279.360208 
L 181.409777 279.716273 
L 179.588465 280.057902 
L 177.881578 280.23489 
L 177.802865 280.241437 
L 177.354379 280.23489 
L 176.017265 280.21064 
L 174.231665 279.973155 
L 172.410353 279.611586 
L 170.624753 279.276154 
L 168.839153 279.089796 
L 167.053553 279.12546 
L 165.232241 279.374696 
L 163.446641 279.727811 
L 161.661041 280.046298 
L 159.875441 280.199653 
L 158.054129 280.107589 
L 156.268529 279.771837 
L 154.482929 279.254846 
L 152.697329 278.644291 
L 150.876017 277.986239 
L 149.829024 277.57377 
L 149.090417 277.198684 
L 147.304817 276.031657 
L 146.174366 274.91265 
L 145.519217 274.047599 
L 144.661922 272.25153 
L 143.74354 269.59041 
L 143.697905 269.403836 
L 143.298034 266.92929 
z
" clip-path="url(#pd18b618311)" style="fill: none; stroke: #0b559f; stroke-width: 1.5"/>
   </g>
   <g id="PathCollection_8"/>
   <g id="patch_3">
    <path d="M 34.240625 288.21825 
L 34.240625 22.10625 
" style="fill: none; stroke: #000000; stroke-width: 0.8; stroke-linejoin: miter; stroke-linecap: square"/>
   </g>
   <g id="patch_4">
    <path d="M 391.360625 288.21825 
L 391.360625 22.10625 
" style="fill: none; stroke: #000000; stroke-width: 0.8; stroke-linejoin: miter; stroke-linecap: square"/>
   </g>
   <g id="patch_5">
    <path d="M 34.240625 288.21825 
L 391.360625 288.21825 
" style="fill: none; stroke: #000000; stroke-width: 0.8; stroke-linejoin: miter; stroke-linecap: square"/>
   </g>
   <g id="patch_6">
    <path d="M 34.240625 22.10625 
L 391.360625 22.10625 
" style="fill: none; stroke: #000000; stroke-width: 0.8; stroke-linejoin: miter; stroke-linecap: square"/>
   </g>
   <g id="text_16">
    <!-- 7.1_cross_-39.0 -->
    <g transform="translate(166.181563 16.10625)scale(0.12 -0.12)">
     <defs>
      <path id="DejaVuSans-37" d="M 525 4666 
L 3525 4666 
L 3525 4397 
L 1831 0 
L 1172 0 
L 2766 4134 
L 525 4134 
L 525 4666 
z
" transform="scale(0.015625)"/>
      <path id="DejaVuSans-2e" d="M 684 794 
L 1344 794 
L 1344 0 
L 684 0 
L 684 794 
z
" transform="scale(0.015625)"/>
      <path id="DejaVuSans-5f" d="M 3263 -1063 
L 3263 -1509 
L -63 -1509 
L -63 -1063 
L 3263 -1063 
z
" transform="scale(0.015625)"/>
      <path id="DejaVuSans-63" d="M 3122 3366 
L 3122 2828 
Q 2878 2963 2633 3030 
Q 2388 3097 2138 3097 
Q 1578 3097 1268 2742 
Q 959 2388 959 1747 
Q 959 1106 1268 751 
Q 1578 397 2138 397 
Q 2388 397 2633 464 
Q 2878 531 3122 666 
L 3122 134 
Q 2881 22 2623 -34 
Q 2366 -91 2075 -91 
Q 1284 -91 818 406 
Q 353 903 353 1747 
Q 353 2603 823 3093 
Q 1294 3584 2113 3584 
Q 2378 3584 2631 3529 
Q 2884 3475 3122 3366 
z
" transform="scale(0.015625)"/>
      <path id="DejaVuSans-72" d="M 2631 2963 
Q 2534 3019 2420 3045 
Q 2306 3072 2169 3072 
Q 1681 3072 1420 2755 
Q 1159 2438 1159 1844 
L 1159 0 
L 581 0 
L 581 3500 
L 1159 3500 
L 1159 2956 
Q 1341 3275 1631 3429 
Q 1922 3584 2338 3584 
Q 2397 3584 2469 3576 
Q 2541 3569 2628 3553 
L 2631 2963 
z
" transform="scale(0.015625)"/>
      <path id="DejaVuSans-73" d="M 2834 3397 
L 2834 2853 
Q 2591 2978 2328 3040 
Q 2066 3103 1784 3103 
Q 1356 3103 1142 2972 
Q 928 2841 928 2578 
Q 928 2378 1081 2264 
Q 1234 2150 1697 2047 
L 1894 2003 
Q 2506 1872 2764 1633 
Q 3022 1394 3022 966 
Q 3022 478 2636 193 
Q 2250 -91 1575 -91 
Q 1294 -91 989 -36 
Q 684 19 347 128 
L 347 722 
Q 666 556 975 473 
Q 1284 391 1588 391 
Q 1994 391 2212 530 
Q 2431 669 2431 922 
Q 2431 1156 2273 1281 
Q 2116 1406 1581 1522 
L 1381 1569 
Q 847 1681 609 1914 
Q 372 2147 372 2553 
Q 372 3047 722 3315 
Q 1072 3584 1716 3584 
Q 2034 3584 2315 3537 
Q 2597 3491 2834 3397 
z
" transform="scale(0.015625)"/>
      <path id="DejaVuSans-2d" d="M 313 2009 
L 1997 2009 
L 1997 1497 
L 313 1497 
L 313 2009 
z
" transform="scale(0.015625)"/>
      <path id="DejaVuSans-39" d="M 703 97 
L 703 672 
Q 941 559 1184 500 
Q 1428 441 1663 441 
Q 2288 441 2617 861 
Q 2947 1281 2994 2138 
Q 2813 1869 2534 1725 
Q 2256 1581 1919 1581 
Q 1219 1581 811 2004 
Q 403 2428 403 3163 
Q 403 3881 828 4315 
Q 1253 4750 1959 4750 
Q 2769 4750 3195 4129 
Q 3622 3509 3622 2328 
Q 3622 1225 3098 567 
Q 2575 -91 1691 -91 
Q 1453 -91 1209 -44 
Q 966 3 703 97 
z
M 1959 2075 
Q 2384 2075 2632 2365 
Q 2881 2656 2881 3163 
Q 2881 3666 2632 3958 
Q 2384 4250 1959 4250 
Q 1534 4250 1286 3958 
Q 1038 3666 1038 3163 
Q 1038 2656 1286 2365 
Q 1534 2075 1959 2075 
z
" transform="scale(0.015625)"/>
     </defs>
     <use xlink:href="#DejaVuSans-37"/>
     <use xlink:href="#DejaVuSans-2e" x="63.623047"/>
     <use xlink:href="#DejaVuSans-31" x="95.410156"/>
     <use xlink:href="#DejaVuSans-5f" x="159.033203"/>
     <use xlink:href="#DejaVuSans-63" x="209.033203"/>
     <use xlink:href="#DejaVuSans-72" x="264.013672"/>
     <use xlink:href="#DejaVuSans-6f" x="302.876953"/>
     <use xlink:href="#DejaVuSans-73" x="364.058594"/>
     <use xlink:href="#DejaVuSans-73" x="416.158203"/>
     <use xlink:href="#DejaVuSans-5f" x="468.257812"/>
     <use xlink:href="#DejaVuSans-2d" x="518.257812"/>
     <use xlink:href="#DejaVuSans-33" x="554.341797"/>
     <use xlink:href="#DejaVuSans-39" x="617.964844"/>
     <use xlink:href="#DejaVuSans-2e" x="681.587891"/>
     <use xlink:href="#DejaVuSans-30" x="713.375"/>
    </g>
   </g>
  </g>
 </g>
 <defs>
  <clipPath id="pd18b618311">
   <rect x="34.240625" y="22.10625" width="357.12" height="266.112"/>
  </clipPath>
 </defs>
</svg>
