<?xml version="1.0" encoding="utf-8" standalone="no"?>
<!DOCTYPE svg PUBLIC "-//W3C//DTD SVG 1.1//EN"
  "http://www.w3.org/Graphics/SVG/1.1/DTD/svg11.dtd">
<svg xmlns:xlink="http://www.w3.org/1999/xlink" width="408.104375pt" height="325.7745pt" viewBox="0 0 408.104375 325.7745" xmlns="http://www.w3.org/2000/svg" version="1.1">
 <metadata>
  <rdf:RDF xmlns:dc="http://purl.org/dc/elements/1.1/" xmlns:cc="http://creativecommons.org/ns#" xmlns:rdf="http://www.w3.org/1999/02/22-rdf-syntax-ns#">
   <cc:Work>
    <dc:type rdf:resource="http://purl.org/dc/dcmitype/StillImage"/>
    <dc:date>2024-07-12T12:29:44.573748</dc:date>
    <dc:format>image/svg+xml</dc:format>
    <dc:creator>
     <cc:Agent>
      <dc:title>Matplotlib v3.5.3, https://matplotlib.org/</dc:title>
     </cc:Agent>
    </dc:creator>
   </cc:Work>
  </rdf:RDF>
 </metadata>
 <defs>
  <style type="text/css">*{stroke-linejoin: round; stroke-linecap: butt}</style>
 </defs>
 <g id="figure_1">
  <g id="patch_1">
   <path d="M 0 325.7745 
L 408.104375 325.7745 
L 408.104375 0 
L 0 0 
z
" style="fill: #ffffff"/>
  </g>
  <g id="axes_1">
   <g id="patch_2">
    <path d="M 34.240625 288.21825 
L 391.360625 288.21825 
L 391.360625 22.10625 
L 34.240625 22.10625 
z
" style="fill: #ffffff"/>
   </g>
   <g id="matplotlib.axis_1">
    <g id="xtick_1">
     <g id="line2d_1">
      <defs>
       <path id="mba3b735122" d="M 0 0 
L 0 3.5 
" style="stroke: #000000; stroke-width: 0.8"/>
      </defs>
      <g>
       <use xlink:href="#mba3b735122" x="34.240625" y="288.21825" style="stroke: #000000; stroke-width: 0.8"/>
      </g>
     </g>
     <g id="text_1">
      <!-- 0 -->
      <g transform="translate(31.059375 302.816687)scale(0.1 -0.1)">
       <defs>
        <path id="DejaVuSans-30" d="M 2034 4250 
Q 1547 4250 1301 3770 
Q 1056 3291 1056 2328 
Q 1056 1369 1301 889 
Q 1547 409 2034 409 
Q 2525 409 2770 889 
Q 3016 1369 3016 2328 
Q 3016 3291 2770 3770 
Q 2525 4250 2034 4250 
z
M 2034 4750 
Q 2819 4750 3233 4129 
Q 3647 3509 3647 2328 
Q 3647 1150 3233 529 
Q 2819 -91 2034 -91 
Q 1250 -91 836 529 
Q 422 1150 422 2328 
Q 422 3509 836 4129 
Q 1250 4750 2034 4750 
z
" transform="scale(0.015625)"/>
       </defs>
       <use xlink:href="#DejaVuSans-30"/>
      </g>
     </g>
    </g>
    <g id="xtick_2">
     <g id="line2d_2">
      <g>
       <use xlink:href="#mba3b735122" x="105.664625" y="288.21825" style="stroke: #000000; stroke-width: 0.8"/>
      </g>
     </g>
     <g id="text_2">
      <!-- 20 -->
      <g transform="translate(99.302125 302.816687)scale(0.1 -0.1)">
       <defs>
        <path id="DejaVuSans-32" d="M 1228 531 
L 3431 531 
L 3431 0 
L 469 0 
L 469 531 
Q 828 903 1448 1529 
Q 2069 2156 2228 2338 
Q 2531 2678 2651 2914 
Q 2772 3150 2772 3378 
Q 2772 3750 2511 3984 
Q 2250 4219 1831 4219 
Q 1534 4219 1204 4116 
Q 875 4013 500 3803 
L 500 4441 
Q 881 4594 1212 4672 
Q 1544 4750 1819 4750 
Q 2544 4750 2975 4387 
Q 3406 4025 3406 3419 
Q 3406 3131 3298 2873 
Q 3191 2616 2906 2266 
Q 2828 2175 2409 1742 
Q 1991 1309 1228 531 
z
" transform="scale(0.015625)"/>
       </defs>
       <use xlink:href="#DejaVuSans-32"/>
       <use xlink:href="#DejaVuSans-30" x="63.623047"/>
      </g>
     </g>
    </g>
    <g id="xtick_3">
     <g id="line2d_3">
      <g>
       <use xlink:href="#mba3b735122" x="177.088625" y="288.21825" style="stroke: #000000; stroke-width: 0.8"/>
      </g>
     </g>
     <g id="text_3">
      <!-- 40 -->
      <g transform="translate(170.726125 302.816687)scale(0.1 -0.1)">
       <defs>
        <path id="DejaVuSans-34" d="M 2419 4116 
L 825 1625 
L 2419 1625 
L 2419 4116 
z
M 2253 4666 
L 3047 4666 
L 3047 1625 
L 3713 1625 
L 3713 1100 
L 3047 1100 
L 3047 0 
L 2419 0 
L 2419 1100 
L 313 1100 
L 313 1709 
L 2253 4666 
z
" transform="scale(0.015625)"/>
       </defs>
       <use xlink:href="#DejaVuSans-34"/>
       <use xlink:href="#DejaVuSans-30" x="63.623047"/>
      </g>
     </g>
    </g>
    <g id="xtick_4">
     <g id="line2d_4">
      <g>
       <use xlink:href="#mba3b735122" x="248.512625" y="288.21825" style="stroke: #000000; stroke-width: 0.8"/>
      </g>
     </g>
     <g id="text_4">
      <!-- 60 -->
      <g transform="translate(242.150125 302.816687)scale(0.1 -0.1)">
       <defs>
        <path id="DejaVuSans-36" d="M 2113 2584 
Q 1688 2584 1439 2293 
Q 1191 2003 1191 1497 
Q 1191 994 1439 701 
Q 1688 409 2113 409 
Q 2538 409 2786 701 
Q 3034 994 3034 1497 
Q 3034 2003 2786 2293 
Q 2538 2584 2113 2584 
z
M 3366 4563 
L 3366 3988 
Q 3128 4100 2886 4159 
Q 2644 4219 2406 4219 
Q 1781 4219 1451 3797 
Q 1122 3375 1075 2522 
Q 1259 2794 1537 2939 
Q 1816 3084 2150 3084 
Q 2853 3084 3261 2657 
Q 3669 2231 3669 1497 
Q 3669 778 3244 343 
Q 2819 -91 2113 -91 
Q 1303 -91 875 529 
Q 447 1150 447 2328 
Q 447 3434 972 4092 
Q 1497 4750 2381 4750 
Q 2619 4750 2861 4703 
Q 3103 4656 3366 4563 
z
" transform="scale(0.015625)"/>
       </defs>
       <use xlink:href="#DejaVuSans-36"/>
       <use xlink:href="#DejaVuSans-30" x="63.623047"/>
      </g>
     </g>
    </g>
    <g id="xtick_5">
     <g id="line2d_5">
      <g>
       <use xlink:href="#mba3b735122" x="319.936625" y="288.21825" style="stroke: #000000; stroke-width: 0.8"/>
      </g>
     </g>
     <g id="text_5">
      <!-- 80 -->
      <g transform="translate(313.574125 302.816687)scale(0.1 -0.1)">
       <defs>
        <path id="DejaVuSans-38" d="M 2034 2216 
Q 1584 2216 1326 1975 
Q 1069 1734 1069 1313 
Q 1069 891 1326 650 
Q 1584 409 2034 409 
Q 2484 409 2743 651 
Q 3003 894 3003 1313 
Q 3003 1734 2745 1975 
Q 2488 2216 2034 2216 
z
M 1403 2484 
Q 997 2584 770 2862 
Q 544 3141 544 3541 
Q 544 4100 942 4425 
Q 1341 4750 2034 4750 
Q 2731 4750 3128 4425 
Q 3525 4100 3525 3541 
Q 3525 3141 3298 2862 
Q 3072 2584 2669 2484 
Q 3125 2378 3379 2068 
Q 3634 1759 3634 1313 
Q 3634 634 3220 271 
Q 2806 -91 2034 -91 
Q 1263 -91 848 271 
Q 434 634 434 1313 
Q 434 1759 690 2068 
Q 947 2378 1403 2484 
z
M 1172 3481 
Q 1172 3119 1398 2916 
Q 1625 2713 2034 2713 
Q 2441 2713 2670 2916 
Q 2900 3119 2900 3481 
Q 2900 3844 2670 4047 
Q 2441 4250 2034 4250 
Q 1625 4250 1398 4047 
Q 1172 3844 1172 3481 
z
" transform="scale(0.015625)"/>
       </defs>
       <use xlink:href="#DejaVuSans-38"/>
       <use xlink:href="#DejaVuSans-30" x="63.623047"/>
      </g>
     </g>
    </g>
    <g id="xtick_6">
     <g id="line2d_6">
      <g>
       <use xlink:href="#mba3b735122" x="391.360625" y="288.21825" style="stroke: #000000; stroke-width: 0.8"/>
      </g>
     </g>
     <g id="text_6">
      <!-- 100 -->
      <g transform="translate(381.816875 302.816687)scale(0.1 -0.1)">
       <defs>
        <path id="DejaVuSans-31" d="M 794 531 
L 1825 531 
L 1825 4091 
L 703 3866 
L 703 4441 
L 1819 4666 
L 2450 4666 
L 2450 531 
L 3481 531 
L 3481 0 
L 794 0 
L 794 531 
z
" transform="scale(0.015625)"/>
       </defs>
       <use xlink:href="#DejaVuSans-31"/>
       <use xlink:href="#DejaVuSans-30" x="63.623047"/>
       <use xlink:href="#DejaVuSans-30" x="127.246094"/>
      </g>
     </g>
    </g>
    <g id="text_7">
     <!-- axialRotation -->
     <g transform="translate(180.024844 316.494812)scale(0.1 -0.1)">
      <defs>
       <path id="DejaVuSans-61" d="M 2194 1759 
Q 1497 1759 1228 1600 
Q 959 1441 959 1056 
Q 959 750 1161 570 
Q 1363 391 1709 391 
Q 2188 391 2477 730 
Q 2766 1069 2766 1631 
L 2766 1759 
L 2194 1759 
z
M 3341 1997 
L 3341 0 
L 2766 0 
L 2766 531 
Q 2569 213 2275 61 
Q 1981 -91 1556 -91 
Q 1019 -91 701 211 
Q 384 513 384 1019 
Q 384 1609 779 1909 
Q 1175 2209 1959 2209 
L 2766 2209 
L 2766 2266 
Q 2766 2663 2505 2880 
Q 2244 3097 1772 3097 
Q 1472 3097 1187 3025 
Q 903 2953 641 2809 
L 641 3341 
Q 956 3463 1253 3523 
Q 1550 3584 1831 3584 
Q 2591 3584 2966 3190 
Q 3341 2797 3341 1997 
z
" transform="scale(0.015625)"/>
       <path id="DejaVuSans-78" d="M 3513 3500 
L 2247 1797 
L 3578 0 
L 2900 0 
L 1881 1375 
L 863 0 
L 184 0 
L 1544 1831 
L 300 3500 
L 978 3500 
L 1906 2253 
L 2834 3500 
L 3513 3500 
z
" transform="scale(0.015625)"/>
       <path id="DejaVuSans-69" d="M 603 3500 
L 1178 3500 
L 1178 0 
L 603 0 
L 603 3500 
z
M 603 4863 
L 1178 4863 
L 1178 4134 
L 603 4134 
L 603 4863 
z
" transform="scale(0.015625)"/>
       <path id="DejaVuSans-6c" d="M 603 4863 
L 1178 4863 
L 1178 0 
L 603 0 
L 603 4863 
z
" transform="scale(0.015625)"/>
       <path id="DejaVuSans-52" d="M 2841 2188 
Q 3044 2119 3236 1894 
Q 3428 1669 3622 1275 
L 4263 0 
L 3584 0 
L 2988 1197 
Q 2756 1666 2539 1819 
Q 2322 1972 1947 1972 
L 1259 1972 
L 1259 0 
L 628 0 
L 628 4666 
L 2053 4666 
Q 2853 4666 3247 4331 
Q 3641 3997 3641 3322 
Q 3641 2881 3436 2590 
Q 3231 2300 2841 2188 
z
M 1259 4147 
L 1259 2491 
L 2053 2491 
Q 2509 2491 2742 2702 
Q 2975 2913 2975 3322 
Q 2975 3731 2742 3939 
Q 2509 4147 2053 4147 
L 1259 4147 
z
" transform="scale(0.015625)"/>
       <path id="DejaVuSans-6f" d="M 1959 3097 
Q 1497 3097 1228 2736 
Q 959 2375 959 1747 
Q 959 1119 1226 758 
Q 1494 397 1959 397 
Q 2419 397 2687 759 
Q 2956 1122 2956 1747 
Q 2956 2369 2687 2733 
Q 2419 3097 1959 3097 
z
M 1959 3584 
Q 2709 3584 3137 3096 
Q 3566 2609 3566 1747 
Q 3566 888 3137 398 
Q 2709 -91 1959 -91 
Q 1206 -91 779 398 
Q 353 888 353 1747 
Q 353 2609 779 3096 
Q 1206 3584 1959 3584 
z
" transform="scale(0.015625)"/>
       <path id="DejaVuSans-74" d="M 1172 4494 
L 1172 3500 
L 2356 3500 
L 2356 3053 
L 1172 3053 
L 1172 1153 
Q 1172 725 1289 603 
Q 1406 481 1766 481 
L 2356 481 
L 2356 0 
L 1766 0 
Q 1100 0 847 248 
Q 594 497 594 1153 
L 594 3053 
L 172 3053 
L 172 3500 
L 594 3500 
L 594 4494 
L 1172 4494 
z
" transform="scale(0.015625)"/>
       <path id="DejaVuSans-6e" d="M 3513 2113 
L 3513 0 
L 2938 0 
L 2938 2094 
Q 2938 2591 2744 2837 
Q 2550 3084 2163 3084 
Q 1697 3084 1428 2787 
Q 1159 2491 1159 1978 
L 1159 0 
L 581 0 
L 581 3500 
L 1159 3500 
L 1159 2956 
Q 1366 3272 1645 3428 
Q 1925 3584 2291 3584 
Q 2894 3584 3203 3211 
Q 3513 2838 3513 2113 
z
" transform="scale(0.015625)"/>
      </defs>
      <use xlink:href="#DejaVuSans-61"/>
      <use xlink:href="#DejaVuSans-78" x="61.279297"/>
      <use xlink:href="#DejaVuSans-69" x="120.458984"/>
      <use xlink:href="#DejaVuSans-61" x="148.242188"/>
      <use xlink:href="#DejaVuSans-6c" x="209.521484"/>
      <use xlink:href="#DejaVuSans-52" x="237.304688"/>
      <use xlink:href="#DejaVuSans-6f" x="302.287109"/>
      <use xlink:href="#DejaVuSans-74" x="363.46875"/>
      <use xlink:href="#DejaVuSans-61" x="402.677734"/>
      <use xlink:href="#DejaVuSans-74" x="463.957031"/>
      <use xlink:href="#DejaVuSans-69" x="503.166016"/>
      <use xlink:href="#DejaVuSans-6f" x="530.949219"/>
      <use xlink:href="#DejaVuSans-6e" x="592.130859"/>
     </g>
    </g>
   </g>
   <g id="matplotlib.axis_2">
    <g id="ytick_1">
     <g id="line2d_7">
      <defs>
       <path id="m621f29d9c0" d="M 0 0 
L -3.5 0 
" style="stroke: #000000; stroke-width: 0.8"/>
      </defs>
      <g>
       <use xlink:href="#m621f29d9c0" x="34.240625" y="288.21825" style="stroke: #000000; stroke-width: 0.8"/>
      </g>
     </g>
     <g id="text_8">
      <!-- 0 -->
      <g transform="translate(20.878125 292.017469)scale(0.1 -0.1)">
       <use xlink:href="#DejaVuSans-30"/>
      </g>
     </g>
    </g>
    <g id="ytick_2">
     <g id="line2d_8">
      <g>
       <use xlink:href="#m621f29d9c0" x="34.240625" y="243.86625" style="stroke: #000000; stroke-width: 0.8"/>
      </g>
     </g>
     <g id="text_9">
      <!-- 1 -->
      <g transform="translate(20.878125 247.665469)scale(0.1 -0.1)">
       <use xlink:href="#DejaVuSans-31"/>
      </g>
     </g>
    </g>
    <g id="ytick_3">
     <g id="line2d_9">
      <g>
       <use xlink:href="#m621f29d9c0" x="34.240625" y="199.51425" style="stroke: #000000; stroke-width: 0.8"/>
      </g>
     </g>
     <g id="text_10">
      <!-- 2 -->
      <g transform="translate(20.878125 203.313469)scale(0.1 -0.1)">
       <use xlink:href="#DejaVuSans-32"/>
      </g>
     </g>
    </g>
    <g id="ytick_4">
     <g id="line2d_10">
      <g>
       <use xlink:href="#m621f29d9c0" x="34.240625" y="155.16225" style="stroke: #000000; stroke-width: 0.8"/>
      </g>
     </g>
     <g id="text_11">
      <!-- 3 -->
      <g transform="translate(20.878125 158.961469)scale(0.1 -0.1)">
       <defs>
        <path id="DejaVuSans-33" d="M 2597 2516 
Q 3050 2419 3304 2112 
Q 3559 1806 3559 1356 
Q 3559 666 3084 287 
Q 2609 -91 1734 -91 
Q 1441 -91 1130 -33 
Q 819 25 488 141 
L 488 750 
Q 750 597 1062 519 
Q 1375 441 1716 441 
Q 2309 441 2620 675 
Q 2931 909 2931 1356 
Q 2931 1769 2642 2001 
Q 2353 2234 1838 2234 
L 1294 2234 
L 1294 2753 
L 1863 2753 
Q 2328 2753 2575 2939 
Q 2822 3125 2822 3475 
Q 2822 3834 2567 4026 
Q 2313 4219 1838 4219 
Q 1578 4219 1281 4162 
Q 984 4106 628 3988 
L 628 4550 
Q 988 4650 1302 4700 
Q 1616 4750 1894 4750 
Q 2613 4750 3031 4423 
Q 3450 4097 3450 3541 
Q 3450 3153 3228 2886 
Q 3006 2619 2597 2516 
z
" transform="scale(0.015625)"/>
       </defs>
       <use xlink:href="#DejaVuSans-33"/>
      </g>
     </g>
    </g>
    <g id="ytick_5">
     <g id="line2d_11">
      <g>
       <use xlink:href="#m621f29d9c0" x="34.240625" y="110.81025" style="stroke: #000000; stroke-width: 0.8"/>
      </g>
     </g>
     <g id="text_12">
      <!-- 4 -->
      <g transform="translate(20.878125 114.609469)scale(0.1 -0.1)">
       <use xlink:href="#DejaVuSans-34"/>
      </g>
     </g>
    </g>
    <g id="ytick_6">
     <g id="line2d_12">
      <g>
       <use xlink:href="#m621f29d9c0" x="34.240625" y="66.45825" style="stroke: #000000; stroke-width: 0.8"/>
      </g>
     </g>
     <g id="text_13">
      <!-- 5 -->
      <g transform="translate(20.878125 70.257469)scale(0.1 -0.1)">
       <defs>
        <path id="DejaVuSans-35" d="M 691 4666 
L 3169 4666 
L 3169 4134 
L 1269 4134 
L 1269 2991 
Q 1406 3038 1543 3061 
Q 1681 3084 1819 3084 
Q 2600 3084 3056 2656 
Q 3513 2228 3513 1497 
Q 3513 744 3044 326 
Q 2575 -91 1722 -91 
Q 1428 -91 1123 -41 
Q 819 9 494 109 
L 494 744 
Q 775 591 1075 516 
Q 1375 441 1709 441 
Q 2250 441 2565 725 
Q 2881 1009 2881 1497 
Q 2881 1984 2565 2268 
Q 2250 2553 1709 2553 
Q 1456 2553 1204 2497 
Q 953 2441 691 2322 
L 691 4666 
z
" transform="scale(0.015625)"/>
       </defs>
       <use xlink:href="#DejaVuSans-35"/>
      </g>
     </g>
    </g>
    <g id="ytick_7">
     <g id="line2d_13">
      <g>
       <use xlink:href="#m621f29d9c0" x="34.240625" y="22.10625" style="stroke: #000000; stroke-width: 0.8"/>
      </g>
     </g>
     <g id="text_14">
      <!-- 6 -->
      <g transform="translate(20.878125 25.905469)scale(0.1 -0.1)">
       <use xlink:href="#DejaVuSans-36"/>
      </g>
     </g>
    </g>
    <g id="text_15">
     <!-- zShift -->
     <g transform="translate(14.798438 169.151312)rotate(-90)scale(0.1 -0.1)">
      <defs>
       <path id="DejaVuSans-7a" d="M 353 3500 
L 3084 3500 
L 3084 2975 
L 922 459 
L 3084 459 
L 3084 0 
L 275 0 
L 275 525 
L 2438 3041 
L 353 3041 
L 353 3500 
z
" transform="scale(0.015625)"/>
       <path id="DejaVuSans-53" d="M 3425 4513 
L 3425 3897 
Q 3066 4069 2747 4153 
Q 2428 4238 2131 4238 
Q 1616 4238 1336 4038 
Q 1056 3838 1056 3469 
Q 1056 3159 1242 3001 
Q 1428 2844 1947 2747 
L 2328 2669 
Q 3034 2534 3370 2195 
Q 3706 1856 3706 1288 
Q 3706 609 3251 259 
Q 2797 -91 1919 -91 
Q 1588 -91 1214 -16 
Q 841 59 441 206 
L 441 856 
Q 825 641 1194 531 
Q 1563 422 1919 422 
Q 2459 422 2753 634 
Q 3047 847 3047 1241 
Q 3047 1584 2836 1778 
Q 2625 1972 2144 2069 
L 1759 2144 
Q 1053 2284 737 2584 
Q 422 2884 422 3419 
Q 422 4038 858 4394 
Q 1294 4750 2059 4750 
Q 2388 4750 2728 4690 
Q 3069 4631 3425 4513 
z
" transform="scale(0.015625)"/>
       <path id="DejaVuSans-68" d="M 3513 2113 
L 3513 0 
L 2938 0 
L 2938 2094 
Q 2938 2591 2744 2837 
Q 2550 3084 2163 3084 
Q 1697 3084 1428 2787 
Q 1159 2491 1159 1978 
L 1159 0 
L 581 0 
L 581 4863 
L 1159 4863 
L 1159 2956 
Q 1366 3272 1645 3428 
Q 1925 3584 2291 3584 
Q 2894 3584 3203 3211 
Q 3513 2838 3513 2113 
z
" transform="scale(0.015625)"/>
       <path id="DejaVuSans-66" d="M 2375 4863 
L 2375 4384 
L 1825 4384 
Q 1516 4384 1395 4259 
Q 1275 4134 1275 3809 
L 1275 3500 
L 2222 3500 
L 2222 3053 
L 1275 3053 
L 1275 0 
L 697 0 
L 697 3053 
L 147 3053 
L 147 3500 
L 697 3500 
L 697 3744 
Q 697 4328 969 4595 
Q 1241 4863 1831 4863 
L 2375 4863 
z
" transform="scale(0.015625)"/>
      </defs>
      <use xlink:href="#DejaVuSans-7a"/>
      <use xlink:href="#DejaVuSans-53" x="52.490234"/>
      <use xlink:href="#DejaVuSans-68" x="115.966797"/>
      <use xlink:href="#DejaVuSans-69" x="179.345703"/>
      <use xlink:href="#DejaVuSans-66" x="207.128906"/>
      <use xlink:href="#DejaVuSans-74" x="240.583984"/>
     </g>
    </g>
   </g>
   <g id="PathCollection_1"/>
   <g id="PathCollection_2">
    <path d="M 145.879996 288.21825 
L 145.663303 285.55713 
L 145.519217 283.254332 
L 145.489091 282.89601 
L 145.311819 280.23489 
L 145.1787 277.57377 
L 145.079954 274.91265 
L 145.007801 272.25153 
L 144.956012 269.59041 
L 144.919597 266.92929 
L 144.89128 263.82465 
L 144.875623 261.16353 
L 144.865419 258.50241 
L 144.85891 255.84129 
L 144.854827 253.18017 
L 144.852301 250.51905 
L 144.850768 247.85793 
L 144.84988 245.19681 
L 144.849415 242.53569 
L 144.849215 239.87457 
L 144.84916 237.21345 
L 144.849152 234.55233 
L 144.849127 231.89121 
L 144.849063 229.23009 
L 144.848977 226.56897 
L 144.848907 223.90785 
L 144.848888 220.80321 
L 144.848934 218.14209 
L 144.849011 215.48097 
L 144.849078 212.81985 
L 144.849098 210.15873 
L 144.849059 207.49761 
L 144.848984 204.83649 
L 144.848912 202.17537 
L 144.848883 199.51425 
L 144.848912 196.85313 
L 144.848984 194.19201 
L 144.849059 191.53089 
L 144.849098 188.86977 
L 144.849078 186.20865 
L 144.849011 183.54753 
L 144.848933 180.88641 
L 144.848887 178.22529 
L 144.848904 175.12065 
L 144.848971 172.45953 
L 144.849048 169.79841 
L 144.849095 167.13729 
L 144.849085 164.47617 
L 144.849024 161.81505 
L 144.848945 159.15393 
L 144.848891 156.49281 
L 144.848891 153.83169 
L 144.848945 151.17057 
L 144.849024 148.50945 
L 144.849085 145.84833 
L 144.849095 143.18721 
L 144.849048 140.52609 
L 144.848971 137.86497 
L 144.848904 135.20385 
L 144.848887 132.09921 
L 144.848933 129.43809 
L 144.849011 126.77697 
L 144.849078 124.11585 
L 144.849098 121.45473 
L 144.849059 118.79361 
L 144.848984 116.13249 
L 144.848912 113.47137 
L 144.848883 110.81025 
L 144.848912 108.14913 
L 144.848984 105.48801 
L 144.849059 102.82689 
L 144.849098 100.16577 
L 144.849078 97.50465 
L 144.849011 94.84353 
L 144.848934 92.18241 
L 144.848888 89.52129 
L 144.848907 86.41665 
L 144.848977 83.75553 
L 144.849063 81.09441 
L 144.849127 78.43329 
L 144.849152 75.77217 
L 144.84916 73.11105 
L 144.849215 70.44993 
L 144.849415 67.78881 
L 144.84988 65.12769 
L 144.850768 62.46657 
L 144.852301 59.80545 
L 144.854827 57.14433 
L 144.85891 54.48321 
L 144.865419 51.82209 
L 144.875623 49.16097 
L 144.89128 46.49985 
L 144.919597 43.39521 
L 144.956012 40.73409 
L 145.007801 38.07297 
L 145.079954 35.41185 
L 145.1787 32.75073 
L 145.311819 30.08961 
L 145.489091 27.42849 
L 145.519217 27.070168 
L 145.663303 24.76737 
L 145.879996 22.10625 
" clip-path="url(#pde147ebd7d)" style="fill: none; stroke: #deebf7; stroke-width: 1.5"/>
    <path d="M 279.721254 22.10625 
L 279.937947 24.76737 
L 280.082033 27.070168 
L 280.112159 27.42849 
L 280.289431 30.08961 
L 280.42255 32.75073 
L 280.521296 35.41185 
L 280.593449 38.07297 
L 280.645238 40.73409 
L 280.681653 43.39521 
L 280.70997 46.49985 
L 280.725627 49.16097 
L 280.735831 51.82209 
L 280.74234 54.48321 
L 280.746423 57.14433 
L 280.748949 59.80545 
L 280.750482 62.46657 
L 280.75137 65.12769 
L 280.751835 67.78881 
L 280.752035 70.44993 
L 280.75209 73.11105 
L 280.752098 75.77217 
L 280.752123 78.43329 
L 280.752187 81.09441 
L 280.752273 83.75553 
L 280.752343 86.41665 
L 280.752362 89.52129 
L 280.752316 92.18241 
L 280.752239 94.84353 
L 280.752172 97.50465 
L 280.752152 100.16577 
L 280.752191 102.82689 
L 280.752266 105.48801 
L 280.752338 108.14913 
L 280.752367 110.81025 
L 280.752338 113.47137 
L 280.752266 116.13249 
L 280.752191 118.79361 
L 280.752152 121.45473 
L 280.752172 124.11585 
L 280.752239 126.77697 
L 280.752317 129.43809 
L 280.752363 132.09921 
L 280.752346 135.20385 
L 280.752279 137.86497 
L 280.752202 140.52609 
L 280.752155 143.18721 
L 280.752165 145.84833 
L 280.752226 148.50945 
L 280.752305 151.17057 
L 280.752359 153.83169 
L 280.752359 156.49281 
L 280.752305 159.15393 
L 280.752226 161.81505 
L 280.752165 164.47617 
L 280.752155 167.13729 
L 280.752202 169.79841 
L 280.752279 172.45953 
L 280.752346 175.12065 
L 280.752363 178.22529 
L 280.752317 180.88641 
L 280.752239 183.54753 
L 280.752172 186.20865 
L 280.752152 188.86977 
L 280.752191 191.53089 
L 280.752266 194.19201 
L 280.752338 196.85313 
L 280.752367 199.51425 
L 280.752338 202.17537 
L 280.752266 204.83649 
L 280.752191 207.49761 
L 280.752152 210.15873 
L 280.752172 212.81985 
L 280.752239 215.48097 
L 280.752316 218.14209 
L 280.752362 220.80321 
L 280.752343 223.90785 
L 280.752273 226.56897 
L 280.752187 229.23009 
L 280.752123 231.89121 
L 280.752098 234.55233 
L 280.75209 237.21345 
L 280.752035 239.87457 
L 280.751835 242.53569 
L 280.75137 245.19681 
L 280.750482 247.85793 
L 280.748949 250.51905 
L 280.746423 253.18017 
L 280.74234 255.84129 
L 280.735831 258.50241 
L 280.725627 261.16353 
L 280.70997 263.82465 
L 280.681653 266.92929 
L 280.645238 269.59041 
L 280.593449 272.25153 
L 280.521296 274.91265 
L 280.42255 277.57377 
L 280.289431 280.23489 
L 280.112159 282.89601 
L 280.082033 283.254332 
L 279.937947 285.55713 
L 279.721254 288.21825 
" clip-path="url(#pde147ebd7d)" style="fill: none; stroke: #deebf7; stroke-width: 1.5"/>
   </g>
   <g id="PathCollection_3">
    <path d="M 148.943004 288.21825 
L 148.609568 285.55713 
L 148.355066 282.89601 
L 148.162122 280.23489 
L 148.017235 277.57377 
L 147.90976 274.91265 
L 147.831228 272.25153 
L 147.77486 269.59041 
L 147.735225 266.92929 
L 147.704405 263.82465 
L 147.687364 261.16353 
L 147.676258 258.50241 
L 147.669174 255.84129 
L 147.66473 253.18017 
L 147.66198 250.51905 
L 147.660312 247.85793 
L 147.659346 245.19681 
L 147.658839 242.53569 
L 147.658622 239.87457 
L 147.658562 237.21345 
L 147.658553 234.55233 
L 147.658526 231.89121 
L 147.658457 229.23009 
L 147.658363 226.56897 
L 147.658286 223.90785 
L 147.658265 220.80321 
L 147.658315 218.14209 
L 147.6584 215.48097 
L 147.658472 212.81985 
L 147.658494 210.15873 
L 147.658452 207.49761 
L 147.65837 204.83649 
L 147.658292 202.17537 
L 147.65826 199.51425 
L 147.658292 196.85313 
L 147.65837 194.19201 
L 147.658452 191.53089 
L 147.658494 188.86977 
L 147.658472 186.20865 
L 147.6584 183.54753 
L 147.658315 180.88641 
L 147.658264 178.22529 
L 147.658283 175.12065 
L 147.658356 172.45953 
L 147.65844 169.79841 
L 147.658491 167.13729 
L 147.65848 164.47617 
L 147.658414 161.81505 
L 147.658328 159.15393 
L 147.658269 156.49281 
L 147.658269 153.83169 
L 147.658328 151.17057 
L 147.658414 148.50945 
L 147.65848 145.84833 
L 147.658491 143.18721 
L 147.65844 140.52609 
L 147.658356 137.86497 
L 147.658283 135.20385 
L 147.658264 132.09921 
L 147.658315 129.43809 
L 147.6584 126.77697 
L 147.658472 124.11585 
L 147.658494 121.45473 
L 147.658452 118.79361 
L 147.65837 116.13249 
L 147.658292 113.47137 
L 147.65826 110.81025 
L 147.658292 108.14913 
L 147.65837 105.48801 
L 147.658452 102.82689 
L 147.658494 100.16577 
L 147.658472 97.50465 
L 147.6584 94.84353 
L 147.658315 92.18241 
L 147.658265 89.52129 
L 147.658286 86.41665 
L 147.658363 83.75553 
L 147.658457 81.09441 
L 147.658526 78.43329 
L 147.658553 75.77217 
L 147.658562 73.11105 
L 147.658622 70.44993 
L 147.658839 67.78881 
L 147.659346 65.12769 
L 147.660312 62.46657 
L 147.66198 59.80545 
L 147.66473 57.14433 
L 147.669174 54.48321 
L 147.676258 51.82209 
L 147.687364 49.16097 
L 147.704405 46.49985 
L 147.735225 43.39521 
L 147.77486 40.73409 
L 147.831228 38.07297 
L 147.90976 35.41185 
L 148.017235 32.75073 
L 148.162122 30.08961 
L 148.355066 27.42849 
L 148.609568 24.76737 
L 148.943004 22.10625 
" clip-path="url(#pde147ebd7d)" style="fill: none; stroke: #c6dbef; stroke-width: 1.5"/>
    <path d="M 276.658246 22.10625 
L 276.991682 24.76737 
L 277.246184 27.42849 
L 277.439128 30.08961 
L 277.584015 32.75073 
L 277.69149 35.41185 
L 277.770022 38.07297 
L 277.82639 40.73409 
L 277.866025 43.39521 
L 277.896845 46.49985 
L 277.913886 49.16097 
L 277.924992 51.82209 
L 277.932076 54.48321 
L 277.93652 57.14433 
L 277.93927 59.80545 
L 277.940938 62.46657 
L 277.941904 65.12769 
L 277.942411 67.78881 
L 277.942628 70.44993 
L 277.942688 73.11105 
L 277.942697 75.77217 
L 277.942724 78.43329 
L 277.942793 81.09441 
L 277.942887 83.75553 
L 277.942964 86.41665 
L 277.942985 89.52129 
L 277.942935 92.18241 
L 277.94285 94.84353 
L 277.942778 97.50465 
L 277.942756 100.16577 
L 277.942798 102.82689 
L 277.94288 105.48801 
L 277.942958 108.14913 
L 277.94299 110.81025 
L 277.942958 113.47137 
L 277.94288 116.13249 
L 277.942798 118.79361 
L 277.942756 121.45473 
L 277.942778 124.11585 
L 277.94285 126.77697 
L 277.942935 129.43809 
L 277.942986 132.09921 
L 277.942967 135.20385 
L 277.942894 137.86497 
L 277.94281 140.52609 
L 277.942759 143.18721 
L 277.94277 145.84833 
L 277.942836 148.50945 
L 277.942922 151.17057 
L 277.942981 153.83169 
L 277.942981 156.49281 
L 277.942922 159.15393 
L 277.942836 161.81505 
L 277.94277 164.47617 
L 277.942759 167.13729 
L 277.94281 169.79841 
L 277.942894 172.45953 
L 277.942967 175.12065 
L 277.942986 178.22529 
L 277.942935 180.88641 
L 277.94285 183.54753 
L 277.942778 186.20865 
L 277.942756 188.86977 
L 277.942798 191.53089 
L 277.94288 194.19201 
L 277.942958 196.85313 
L 277.94299 199.51425 
L 277.942958 202.17537 
L 277.94288 204.83649 
L 277.942798 207.49761 
L 277.942756 210.15873 
L 277.942778 212.81985 
L 277.94285 215.48097 
L 277.942935 218.14209 
L 277.942985 220.80321 
L 277.942964 223.90785 
L 277.942887 226.56897 
L 277.942793 229.23009 
L 277.942724 231.89121 
L 277.942697 234.55233 
L 277.942688 237.21345 
L 277.942628 239.87457 
L 277.942411 242.53569 
L 277.941904 245.19681 
L 277.940938 247.85793 
L 277.93927 250.51905 
L 277.93652 253.18017 
L 277.932076 255.84129 
L 277.924992 258.50241 
L 277.913886 261.16353 
L 277.896845 263.82465 
L 277.866025 266.92929 
L 277.82639 269.59041 
L 277.770022 272.25153 
L 277.69149 274.91265 
L 277.584015 277.57377 
L 277.439128 280.23489 
L 277.246184 282.89601 
L 276.991682 285.55713 
L 276.658246 288.21825 
" clip-path="url(#pde147ebd7d)" style="fill: none; stroke: #c6dbef; stroke-width: 1.5"/>
   </g>
   <g id="PathCollection_4">
    <path d="M 151.231179 288.21825 
L 150.876017 285.791889 
L 150.841071 285.55713 
L 150.520817 282.89601 
L 150.278027 280.23489 
L 150.095708 277.57377 
L 149.960466 274.91265 
L 149.861646 272.25153 
L 149.790715 269.59041 
L 149.740841 266.92929 
L 149.702059 263.82465 
L 149.680615 261.16353 
L 149.66664 258.50241 
L 149.657725 255.84129 
L 149.652133 253.18017 
L 149.648673 250.51905 
L 149.646575 247.85793 
L 149.645358 245.19681 
L 149.64472 242.53569 
L 149.644447 239.87457 
L 149.644372 237.21345 
L 149.64436 234.55233 
L 149.644326 231.89121 
L 149.644239 229.23009 
L 149.644121 226.56897 
L 149.644025 223.90785 
L 149.643999 220.80321 
L 149.644061 218.14209 
L 149.644168 215.48097 
L 149.644259 212.81985 
L 149.644286 210.15873 
L 149.644234 207.49761 
L 149.644131 204.83649 
L 149.644032 202.17537 
L 149.643992 199.51425 
L 149.644032 196.85313 
L 149.644131 194.19201 
L 149.644234 191.53089 
L 149.644286 188.86977 
L 149.644259 186.20865 
L 149.644167 183.54753 
L 149.644061 180.88641 
L 149.643997 178.22529 
L 149.644021 175.12065 
L 149.644112 172.45953 
L 149.644219 169.79841 
L 149.644283 167.13729 
L 149.644269 164.47617 
L 149.644185 161.81505 
L 149.644077 159.15393 
L 149.644003 156.49281 
L 149.644003 153.83169 
L 149.644077 151.17057 
L 149.644185 148.50945 
L 149.644269 145.84833 
L 149.644283 143.18721 
L 149.644219 140.52609 
L 149.644112 137.86497 
L 149.644021 135.20385 
L 149.643997 132.09921 
L 149.644061 129.43809 
L 149.644167 126.77697 
L 149.644259 124.11585 
L 149.644286 121.45473 
L 149.644234 118.79361 
L 149.644131 116.13249 
L 149.644032 113.47137 
L 149.643992 110.81025 
L 149.644032 108.14913 
L 149.644131 105.48801 
L 149.644234 102.82689 
L 149.644286 100.16577 
L 149.644259 97.50465 
L 149.644168 94.84353 
L 149.644061 92.18241 
L 149.643999 89.52129 
L 149.644025 86.41665 
L 149.644121 83.75553 
L 149.644239 81.09441 
L 149.644326 78.43329 
L 149.64436 75.77217 
L 149.644372 73.11105 
L 149.644447 70.44993 
L 149.64472 67.78881 
L 149.645358 65.12769 
L 149.646575 62.46657 
L 149.648673 59.80545 
L 149.652133 57.14433 
L 149.657725 54.48321 
L 149.66664 51.82209 
L 149.680615 49.16097 
L 149.702059 46.49985 
L 149.740841 43.39521 
L 149.790715 40.73409 
L 149.861646 38.07297 
L 149.960466 35.41185 
L 150.095708 32.75073 
L 150.278027 30.08961 
L 150.520817 27.42849 
L 150.841071 24.76737 
L 150.876017 24.532611 
L 151.231179 22.10625 
" clip-path="url(#pde147ebd7d)" style="fill: none; stroke: #9dcae1; stroke-width: 1.5"/>
    <path d="M 274.370071 22.10625 
L 274.725233 24.532611 
L 274.760179 24.76737 
L 275.080433 27.42849 
L 275.323223 30.08961 
L 275.505542 32.75073 
L 275.640784 35.41185 
L 275.739604 38.07297 
L 275.810535 40.73409 
L 275.860409 43.39521 
L 275.899191 46.49985 
L 275.920635 49.16097 
L 275.93461 51.82209 
L 275.943525 54.48321 
L 275.949117 57.14433 
L 275.952577 59.80545 
L 275.954675 62.46657 
L 275.955892 65.12769 
L 275.95653 67.78881 
L 275.956803 70.44993 
L 275.956878 73.11105 
L 275.95689 75.77217 
L 275.956924 78.43329 
L 275.957011 81.09441 
L 275.957129 83.75553 
L 275.957225 86.41665 
L 275.957251 89.52129 
L 275.957189 92.18241 
L 275.957082 94.84353 
L 275.956991 97.50465 
L 275.956964 100.16577 
L 275.957016 102.82689 
L 275.957119 105.48801 
L 275.957218 108.14913 
L 275.957258 110.81025 
L 275.957218 113.47137 
L 275.957119 116.13249 
L 275.957016 118.79361 
L 275.956964 121.45473 
L 275.956991 124.11585 
L 275.957083 126.77697 
L 275.957189 129.43809 
L 275.957253 132.09921 
L 275.957229 135.20385 
L 275.957138 137.86497 
L 275.957031 140.52609 
L 275.956967 143.18721 
L 275.956981 145.84833 
L 275.957065 148.50945 
L 275.957173 151.17057 
L 275.957247 153.83169 
L 275.957247 156.49281 
L 275.957173 159.15393 
L 275.957065 161.81505 
L 275.956981 164.47617 
L 275.956967 167.13729 
L 275.957031 169.79841 
L 275.957138 172.45953 
L 275.957229 175.12065 
L 275.957253 178.22529 
L 275.957189 180.88641 
L 275.957083 183.54753 
L 275.956991 186.20865 
L 275.956964 188.86977 
L 275.957016 191.53089 
L 275.957119 194.19201 
L 275.957218 196.85313 
L 275.957258 199.51425 
L 275.957218 202.17537 
L 275.957119 204.83649 
L 275.957016 207.49761 
L 275.956964 210.15873 
L 275.956991 212.81985 
L 275.957082 215.48097 
L 275.957189 218.14209 
L 275.957251 220.80321 
L 275.957225 223.90785 
L 275.957129 226.56897 
L 275.957011 229.23009 
L 275.956924 231.89121 
L 275.95689 234.55233 
L 275.956878 237.21345 
L 275.956803 239.87457 
L 275.95653 242.53569 
L 275.955892 245.19681 
L 275.954675 247.85793 
L 275.952577 250.51905 
L 275.949117 253.18017 
L 275.943525 255.84129 
L 275.93461 258.50241 
L 275.920635 261.16353 
L 275.899191 263.82465 
L 275.860409 266.92929 
L 275.810535 269.59041 
L 275.739604 272.25153 
L 275.640784 274.91265 
L 275.505542 277.57377 
L 275.323223 280.23489 
L 275.080433 282.89601 
L 274.760179 285.55713 
L 274.725233 285.791889 
L 274.370071 288.21825 
" clip-path="url(#pde147ebd7d)" style="fill: none; stroke: #9dcae1; stroke-width: 1.5"/>
   </g>
   <g id="PathCollection_5">
    <path d="M 153.3721 288.21825 
L 152.837474 285.55713 
L 152.697329 284.673458 
L 152.438454 282.89601 
L 152.139538 280.23489 
L 151.915071 277.57377 
L 151.748566 274.91265 
L 151.626901 272.25153 
L 151.539573 269.59041 
L 151.47817 266.92929 
L 151.430422 263.82465 
L 151.404021 261.16353 
L 151.386815 258.50241 
L 151.37584 255.84129 
L 151.368955 253.18017 
L 151.364695 250.51905 
L 151.362111 247.85793 
L 151.360614 245.19681 
L 151.359828 242.53569 
L 151.359492 239.87457 
L 151.359399 237.21345 
L 151.359385 234.55233 
L 151.359343 231.89121 
L 151.359236 229.23009 
L 151.359091 226.56897 
L 151.358972 223.90785 
L 151.35894 220.80321 
L 151.359017 218.14209 
L 151.359148 215.48097 
L 151.359261 212.81985 
L 151.359294 210.15873 
L 151.359229 207.49761 
L 151.359102 204.83649 
L 151.358982 202.17537 
L 151.358932 199.51425 
L 151.358982 196.85313 
L 151.359102 194.19201 
L 151.359229 191.53089 
L 151.359294 188.86977 
L 151.359261 186.20865 
L 151.359148 183.54753 
L 151.359017 180.88641 
L 151.358938 178.22529 
L 151.358967 175.12065 
L 151.35908 172.45953 
L 151.359211 169.79841 
L 151.35929 167.13729 
L 151.359273 164.47617 
L 151.35917 161.81505 
L 151.359037 159.15393 
L 151.358945 156.49281 
L 151.358945 153.83169 
L 151.359037 151.17057 
L 151.35917 148.50945 
L 151.359273 145.84833 
L 151.35929 143.18721 
L 151.359211 140.52609 
L 151.35908 137.86497 
L 151.358967 135.20385 
L 151.358938 132.09921 
L 151.359017 129.43809 
L 151.359148 126.77697 
L 151.359261 124.11585 
L 151.359294 121.45473 
L 151.359229 118.79361 
L 151.359102 116.13249 
L 151.358982 113.47137 
L 151.358932 110.81025 
L 151.358982 108.14913 
L 151.359102 105.48801 
L 151.359229 102.82689 
L 151.359294 100.16577 
L 151.359261 97.50465 
L 151.359148 94.84353 
L 151.359017 92.18241 
L 151.35894 89.52129 
L 151.358972 86.41665 
L 151.359091 83.75553 
L 151.359236 81.09441 
L 151.359343 78.43329 
L 151.359385 75.77217 
L 151.359399 73.11105 
L 151.359492 70.44993 
L 151.359828 67.78881 
L 151.360614 65.12769 
L 151.362111 62.46657 
L 151.364695 59.80545 
L 151.368955 57.14433 
L 151.37584 54.48321 
L 151.386815 51.82209 
L 151.404021 49.16097 
L 151.430422 46.49985 
L 151.47817 43.39521 
L 151.539573 40.73409 
L 151.626901 38.07297 
L 151.748566 35.41185 
L 151.915071 32.75073 
L 152.139538 30.08961 
L 152.438454 27.42849 
L 152.697329 25.651042 
L 152.837474 24.76737 
L 153.3721 22.10625 
" clip-path="url(#pde147ebd7d)" style="fill: none; stroke: #6aaed6; stroke-width: 1.5"/>
    <path d="M 272.22915 22.10625 
L 272.763776 24.76737 
L 272.903921 25.651042 
L 273.162796 27.42849 
L 273.461712 30.08961 
L 273.686179 32.75073 
L 273.852684 35.41185 
L 273.974349 38.07297 
L 274.061677 40.73409 
L 274.12308 43.39521 
L 274.170828 46.49985 
L 274.197229 49.16097 
L 274.214435 51.82209 
L 274.22541 54.48321 
L 274.232295 57.14433 
L 274.236555 59.80545 
L 274.239139 62.46657 
L 274.240636 65.12769 
L 274.241422 67.78881 
L 274.241758 70.44993 
L 274.241851 73.11105 
L 274.241865 75.77217 
L 274.241907 78.43329 
L 274.242014 81.09441 
L 274.242159 83.75553 
L 274.242278 86.41665 
L 274.24231 89.52129 
L 274.242233 92.18241 
L 274.242102 94.84353 
L 274.241989 97.50465 
L 274.241956 100.16577 
L 274.242021 102.82689 
L 274.242148 105.48801 
L 274.242268 108.14913 
L 274.242318 110.81025 
L 274.242268 113.47137 
L 274.242148 116.13249 
L 274.242021 118.79361 
L 274.241956 121.45473 
L 274.241989 124.11585 
L 274.242102 126.77697 
L 274.242233 129.43809 
L 274.242312 132.09921 
L 274.242283 135.20385 
L 274.24217 137.86497 
L 274.242039 140.52609 
L 274.24196 143.18721 
L 274.241977 145.84833 
L 274.24208 148.50945 
L 274.242213 151.17057 
L 274.242305 153.83169 
L 274.242305 156.49281 
L 274.242213 159.15393 
L 274.24208 161.81505 
L 274.241977 164.47617 
L 274.24196 167.13729 
L 274.242039 169.79841 
L 274.24217 172.45953 
L 274.242283 175.12065 
L 274.242312 178.22529 
L 274.242233 180.88641 
L 274.242102 183.54753 
L 274.241989 186.20865 
L 274.241956 188.86977 
L 274.242021 191.53089 
L 274.242148 194.19201 
L 274.242268 196.85313 
L 274.242318 199.51425 
L 274.242268 202.17537 
L 274.242148 204.83649 
L 274.242021 207.49761 
L 274.241956 210.15873 
L 274.241989 212.81985 
L 274.242102 215.48097 
L 274.242233 218.14209 
L 274.24231 220.80321 
L 274.242278 223.90785 
L 274.242159 226.56897 
L 274.242014 229.23009 
L 274.241907 231.89121 
L 274.241865 234.55233 
L 274.241851 237.21345 
L 274.241758 239.87457 
L 274.241422 242.53569 
L 274.240636 245.19681 
L 274.239139 247.85793 
L 274.236555 250.51905 
L 274.232295 253.18017 
L 274.22541 255.84129 
L 274.214435 258.50241 
L 274.197229 261.16353 
L 274.170828 263.82465 
L 274.12308 266.92929 
L 274.061677 269.59041 
L 273.974349 272.25153 
L 273.852684 274.91265 
L 273.686179 277.57377 
L 273.461712 280.23489 
L 273.162796 282.89601 
L 272.903921 284.673458 
L 272.763776 285.55713 
L 272.22915 288.21825 
" clip-path="url(#pde147ebd7d)" style="fill: none; stroke: #6aaed6; stroke-width: 1.5"/>
   </g>
   <g id="PathCollection_6">
    <path d="M 155.774201 288.21825 
L 154.976168 285.55713 
L 154.482929 283.423426 
L 154.385891 282.89601 
L 153.999188 280.23489 
L 153.7088 277.57377 
L 153.493395 274.91265 
L 153.335999 272.25153 
L 153.223024 269.59041 
L 153.143588 266.92929 
L 153.081818 263.82465 
L 153.047663 261.16353 
L 153.025404 258.50241 
L 153.011205 255.84129 
L 153.002298 253.18017 
L 152.996787 250.51905 
L 152.993445 247.85793 
L 152.991508 245.19681 
L 152.990492 242.53569 
L 152.990057 239.87457 
L 152.989936 237.21345 
L 152.989918 234.55233 
L 152.989864 231.89121 
L 152.989725 229.23009 
L 152.989538 226.56897 
L 152.989384 223.90785 
L 152.989342 220.80321 
L 152.989442 218.14209 
L 152.989612 215.48097 
L 152.989757 212.81985 
L 152.9898 210.15873 
L 152.989717 207.49761 
L 152.989552 204.83649 
L 152.989396 202.17537 
L 152.989333 199.51425 
L 152.989396 196.85313 
L 152.989552 194.19201 
L 152.989717 191.53089 
L 152.9898 188.86977 
L 152.989757 186.20865 
L 152.989611 183.54753 
L 152.989441 180.88641 
L 152.98934 178.22529 
L 152.989377 175.12065 
L 152.989523 172.45953 
L 152.989693 169.79841 
L 152.989795 167.13729 
L 152.989773 164.47617 
L 152.98964 161.81505 
L 152.989467 159.15393 
L 152.989349 156.49281 
L 152.989349 153.83169 
L 152.989467 151.17057 
L 152.98964 148.50945 
L 152.989773 145.84833 
L 152.989795 143.18721 
L 152.989693 140.52609 
L 152.989523 137.86497 
L 152.989377 135.20385 
L 152.98934 132.09921 
L 152.989441 129.43809 
L 152.989611 126.77697 
L 152.989757 124.11585 
L 152.9898 121.45473 
L 152.989717 118.79361 
L 152.989552 116.13249 
L 152.989396 113.47137 
L 152.989333 110.81025 
L 152.989396 108.14913 
L 152.989552 105.48801 
L 152.989717 102.82689 
L 152.9898 100.16577 
L 152.989757 97.50465 
L 152.989612 94.84353 
L 152.989442 92.18241 
L 152.989342 89.52129 
L 152.989384 86.41665 
L 152.989538 83.75553 
L 152.989725 81.09441 
L 152.989864 78.43329 
L 152.989918 75.77217 
L 152.989936 73.11105 
L 152.990057 70.44993 
L 152.990492 67.78881 
L 152.991508 65.12769 
L 152.993445 62.46657 
L 152.996787 59.80545 
L 153.002298 57.14433 
L 153.011205 54.48321 
L 153.025404 51.82209 
L 153.047663 49.16097 
L 153.081818 46.49985 
L 153.143588 43.39521 
L 153.223024 40.73409 
L 153.335999 38.07297 
L 153.493395 35.41185 
L 153.7088 32.75073 
L 153.999188 30.08961 
L 154.385891 27.42849 
L 154.482929 26.901074 
L 154.976168 24.76737 
L 155.774201 22.10625 
" clip-path="url(#pde147ebd7d)" style="fill: none; stroke: #4191c6; stroke-width: 1.5"/>
    <path d="M 269.827049 22.10625 
L 270.625082 24.76737 
L 271.118321 26.901074 
L 271.215359 27.42849 
L 271.602062 30.08961 
L 271.89245 32.75073 
L 272.107855 35.41185 
L 272.265251 38.07297 
L 272.378226 40.73409 
L 272.457662 43.39521 
L 272.519432 46.49985 
L 272.553587 49.16097 
L 272.575846 51.82209 
L 272.590045 54.48321 
L 272.598952 57.14433 
L 272.604463 59.80545 
L 272.607805 62.46657 
L 272.609742 65.12769 
L 272.610758 67.78881 
L 272.611193 70.44993 
L 272.611314 73.11105 
L 272.611332 75.77217 
L 272.611386 78.43329 
L 272.611525 81.09441 
L 272.611712 83.75553 
L 272.611866 86.41665 
L 272.611908 89.52129 
L 272.611808 92.18241 
L 272.611638 94.84353 
L 272.611493 97.50465 
L 272.61145 100.16577 
L 272.611533 102.82689 
L 272.611698 105.48801 
L 272.611854 108.14913 
L 272.611917 110.81025 
L 272.611854 113.47137 
L 272.611698 116.13249 
L 272.611533 118.79361 
L 272.61145 121.45473 
L 272.611493 124.11585 
L 272.611639 126.77697 
L 272.611809 129.43809 
L 272.61191 132.09921 
L 272.611873 135.20385 
L 272.611727 137.86497 
L 272.611557 140.52609 
L 272.611455 143.18721 
L 272.611477 145.84833 
L 272.61161 148.50945 
L 272.611783 151.17057 
L 272.611901 153.83169 
L 272.611901 156.49281 
L 272.611783 159.15393 
L 272.61161 161.81505 
L 272.611477 164.47617 
L 272.611455 167.13729 
L 272.611557 169.79841 
L 272.611727 172.45953 
L 272.611873 175.12065 
L 272.61191 178.22529 
L 272.611809 180.88641 
L 272.611639 183.54753 
L 272.611493 186.20865 
L 272.61145 188.86977 
L 272.611533 191.53089 
L 272.611698 194.19201 
L 272.611854 196.85313 
L 272.611917 199.51425 
L 272.611854 202.17537 
L 272.611698 204.83649 
L 272.611533 207.49761 
L 272.61145 210.15873 
L 272.611493 212.81985 
L 272.611638 215.48097 
L 272.611808 218.14209 
L 272.611908 220.80321 
L 272.611866 223.90785 
L 272.611712 226.56897 
L 272.611525 229.23009 
L 272.611386 231.89121 
L 272.611332 234.55233 
L 272.611314 237.21345 
L 272.611193 239.87457 
L 272.610758 242.53569 
L 272.609742 245.19681 
L 272.607805 247.85793 
L 272.604463 250.51905 
L 272.598952 253.18017 
L 272.590045 255.84129 
L 272.575846 258.50241 
L 272.553587 261.16353 
L 272.519432 263.82465 
L 272.457662 266.92929 
L 272.378226 269.59041 
L 272.265251 272.25153 
L 272.107855 274.91265 
L 271.89245 277.57377 
L 271.602062 280.23489 
L 271.215359 282.89601 
L 271.118321 283.423426 
L 270.625082 285.55713 
L 269.827049 288.21825 
" clip-path="url(#pde147ebd7d)" style="fill: none; stroke: #4191c6; stroke-width: 1.5"/>
   </g>
   <g id="PathCollection_7">
    <path d="M 175.69438 288.21825 
L 174.231665 287.17765 
L 172.410353 284.968685 
L 170.624753 282.300517 
L 168.839153 280.381436 
L 167.053553 280.586756 
L 165.169131 282.89601 
L 163.119266 285.55713 
L 161.661041 286.83522 
L 159.875441 287.180733 
L 157.989006 285.55713 
L 156.910295 282.89601 
L 156.149255 280.23489 
L 155.42446 274.91265 
L 155.037023 269.59041 
L 154.785733 261.16353 
L 154.705264 245.19681 
L 154.712829 59.80545 
L 154.834676 46.49985 
L 155.037023 40.73409 
L 155.42446 35.41185 
L 156.149255 30.08961 
L 156.268529 29.498486 
L 156.910295 27.42849 
L 158.054129 24.637175 
L 159.875441 23.143767 
L 161.661041 23.48928 
L 163.446641 25.115359 
L 165.232241 27.53531 
L 167.053553 29.737744 
L 168.839153 29.943064 
L 170.624753 28.023983 
L 170.95545 27.42849 
L 172.825907 24.76737 
L 174.231665 23.14685 
L 175.69438 22.10625 
L 175.69438 22.10625 
" clip-path="url(#pde147ebd7d)" style="fill: none; stroke: #2070b4; stroke-width: 1.5"/>
    <path d="M 178.396899 22.10625 
L 179.588465 22.81271 
L 181.369517 24.76737 
L 181.409777 24.821514 
L 183.187695 27.42849 
L 183.195377 27.442749 
L 184.980977 29.67219 
L 186.766577 29.8573 
L 188.587889 27.842238 
L 188.815723 27.42849 
L 190.373489 25.191339 
L 190.676529 24.76737 
L 192.159089 23.076278 
L 193.568991 22.10625 
" clip-path="url(#pde147ebd7d)" style="fill: none; stroke: #2070b4; stroke-width: 1.5"/>
    <path d="M 193.568991 288.21825 
L 192.159089 287.248222 
L 190.676529 285.55713 
L 190.373489 285.133161 
L 188.815723 282.89601 
L 188.587889 282.482262 
L 186.766577 280.4672 
L 184.980977 280.65231 
L 183.195377 282.881751 
L 183.187695 282.89601 
L 181.409777 285.502986 
L 181.369517 285.55713 
L 179.588465 287.51179 
L 178.396899 288.21825 
" clip-path="url(#pde147ebd7d)" style="fill: none; stroke: #2070b4; stroke-width: 1.5"/>
    <path d="M 196.275988 22.10625 
L 197.551601 22.908816 
L 199.220501 24.76737 
L 199.337201 24.926588 
L 201.05215 27.42849 
L 201.122801 27.558928 
L 202.944113 29.748186 
L 204.729713 29.794491 
L 206.515313 27.730196 
L 206.680266 27.42849 
L 208.300913 25.085128 
L 208.530819 24.76737 
L 210.122225 22.974733 
L 211.452333 22.10625 
" clip-path="url(#pde147ebd7d)" style="fill: none; stroke: #2070b4; stroke-width: 1.5"/>
    <path d="M 211.452333 288.21825 
L 210.122225 287.349767 
L 208.530819 285.55713 
L 208.300913 285.239372 
L 206.680266 282.89601 
L 206.515313 282.594304 
L 204.729713 280.530009 
L 202.944113 280.576314 
L 201.122801 282.765572 
L 201.05215 282.89601 
L 199.337201 285.397912 
L 199.220501 285.55713 
L 197.551601 287.415684 
L 196.275988 288.21825 
" clip-path="url(#pde147ebd7d)" style="fill: none; stroke: #2070b4; stroke-width: 1.5"/>
    <path d="M 214.148917 22.10625 
L 215.479025 22.974733 
L 217.070431 24.76737 
L 217.300337 25.085128 
L 218.920984 27.42849 
L 219.085937 27.730196 
L 220.871537 29.794491 
L 222.657137 29.748186 
L 224.478449 27.558928 
L 224.5491 27.42849 
L 226.264049 24.926588 
L 226.380749 24.76737 
L 228.049649 22.908816 
L 229.325262 22.10625 
" clip-path="url(#pde147ebd7d)" style="fill: none; stroke: #2070b4; stroke-width: 1.5"/>
    <path d="M 229.325262 288.21825 
L 228.049649 287.415684 
L 226.380749 285.55713 
L 226.264049 285.397912 
L 224.5491 282.89601 
L 224.478449 282.765572 
L 222.657137 280.576314 
L 220.871537 280.530009 
L 219.085937 282.594304 
L 218.920984 282.89601 
L 217.300337 285.239372 
L 217.070431 285.55713 
L 215.479025 287.349767 
L 214.148917 288.21825 
" clip-path="url(#pde147ebd7d)" style="fill: none; stroke: #2070b4; stroke-width: 1.5"/>
    <path d="M 232.032259 22.10625 
L 233.442161 23.076278 
L 234.924721 24.76737 
L 235.227761 25.191339 
L 236.785527 27.42849 
L 237.013361 27.842238 
L 238.834673 29.8573 
L 240.620273 29.67219 
L 242.405873 27.442749 
L 242.413555 27.42849 
L 244.191473 24.821514 
L 244.231733 24.76737 
L 246.012785 22.81271 
L 247.204351 22.10625 
" clip-path="url(#pde147ebd7d)" style="fill: none; stroke: #2070b4; stroke-width: 1.5"/>
    <path d="M 247.204351 288.21825 
L 246.012785 287.51179 
L 244.231733 285.55713 
L 244.191473 285.502986 
L 242.413555 282.89601 
L 242.405873 282.881751 
L 240.620273 280.65231 
L 238.834673 280.4672 
L 237.013361 282.482262 
L 236.785527 282.89601 
L 235.227761 285.133161 
L 234.924721 285.55713 
L 233.442161 287.248222 
L 232.032259 288.21825 
" clip-path="url(#pde147ebd7d)" style="fill: none; stroke: #2070b4; stroke-width: 1.5"/>
    <path d="M 249.90687 22.10625 
L 251.369585 23.14685 
L 253.190897 25.355815 
L 254.976497 28.023983 
L 256.762097 29.943064 
L 258.547697 29.737744 
L 260.432119 27.42849 
L 262.481984 24.76737 
L 263.940209 23.48928 
L 265.725809 23.143767 
L 267.612244 24.76737 
L 268.690955 27.42849 
L 269.451995 30.08961 
L 270.17679 35.41185 
L 270.564227 40.73409 
L 270.815517 49.16097 
L 270.895986 65.12769 
L 270.888421 250.51905 
L 270.766574 263.82465 
L 270.564227 269.59041 
L 270.17679 274.91265 
L 269.451995 280.23489 
L 269.332721 280.826014 
L 268.690955 282.89601 
L 267.547121 285.687325 
L 265.725809 287.180733 
L 263.940209 286.83522 
L 262.154609 285.209141 
L 260.369009 282.78919 
L 258.547697 280.586756 
L 256.762097 280.381436 
L 254.976497 282.300517 
L 254.6458 282.89601 
L 252.775343 285.55713 
L 251.369585 287.17765 
L 249.90687 288.21825 
L 249.90687 288.21825 
" clip-path="url(#pde147ebd7d)" style="fill: none; stroke: #2070b4; stroke-width: 1.5"/>
   </g>
   <g id="PathCollection_8">
    <path d="M 157.767897 272.25153 
L 157.489163 269.59041 
L 157.293174 266.92929 
L 157.140772 263.82465 
L 157.056505 261.16353 
L 157.001587 258.50241 
L 156.966555 255.84129 
L 156.944579 253.18017 
L 156.930982 250.51905 
L 156.922736 247.85793 
L 156.917956 245.19681 
L 156.915449 242.53569 
L 156.914376 239.87457 
L 156.914079 237.21345 
L 156.914035 234.55233 
L 156.913901 231.89121 
L 156.913559 229.23009 
L 156.913096 226.56897 
L 156.912716 223.90785 
L 156.912614 220.80321 
L 156.912861 218.14209 
L 156.913278 215.48097 
L 156.913637 212.81985 
L 156.913743 210.15873 
L 156.913538 207.49761 
L 156.913132 204.83649 
L 156.912746 202.17537 
L 156.912589 199.51425 
L 156.912746 196.85313 
L 156.913132 194.19201 
L 156.913538 191.53089 
L 156.913743 188.86977 
L 156.913637 186.20865 
L 156.913277 183.54753 
L 156.912858 180.88641 
L 156.912607 178.22529 
L 156.9127 175.12065 
L 156.91306 172.45953 
L 156.913479 169.79841 
L 156.913729 167.13729 
L 156.913676 164.47617 
L 156.913347 161.81505 
L 156.912922 159.15393 
L 156.91263 156.49281 
L 156.91263 153.83169 
L 156.912922 151.17057 
L 156.913347 148.50945 
L 156.913676 145.84833 
L 156.913729 143.18721 
L 156.913479 140.52609 
L 156.91306 137.86497 
L 156.9127 135.20385 
L 156.912607 132.09921 
L 156.912858 129.43809 
L 156.913277 126.77697 
L 156.913637 124.11585 
L 156.913743 121.45473 
L 156.913538 118.79361 
L 156.913132 116.13249 
L 156.912746 113.47137 
L 156.912589 110.81025 
L 156.912746 108.14913 
L 156.913132 105.48801 
L 156.913538 102.82689 
L 156.913743 100.16577 
L 156.913637 97.50465 
L 156.913278 94.84353 
L 156.912861 92.18241 
L 156.912614 89.52129 
L 156.912716 86.41665 
L 156.913096 83.75553 
L 156.913559 81.09441 
L 156.913901 78.43329 
L 156.914035 75.77217 
L 156.914079 73.11105 
L 156.914376 70.44993 
L 156.915449 67.78881 
L 156.917956 65.12769 
L 156.922736 62.46657 
L 156.930982 59.80545 
L 156.944579 57.14433 
L 156.966555 54.48321 
L 157.001587 51.82209 
L 157.056505 49.16097 
L 157.140772 46.49985 
L 157.293174 43.39521 
L 157.489163 40.73409 
L 157.767897 38.07297 
L 158.054129 36.102351 
L 158.293815 35.41185 
L 159.541404 32.75073 
L 159.875441 32.208786 
L 161.253596 32.75073 
L 161.661041 32.956781 
L 162.747886 35.41185 
L 163.446641 37.560593 
L 163.58295 38.07297 
L 164.098485 40.73409 
L 164.460976 43.39521 
L 164.742852 46.49985 
L 164.89871 49.16097 
L 165.000282 51.82209 
L 165.065076 54.48321 
L 165.105723 57.14433 
L 165.130871 59.80545 
L 165.146122 62.46657 
L 165.154962 65.12769 
L 165.1596 67.78881 
L 165.161584 70.44993 
L 165.162133 73.11105 
L 165.162215 75.77217 
L 165.162463 78.43329 
L 165.163096 81.09441 
L 165.163951 83.75553 
L 165.164655 86.41665 
L 165.164844 89.52129 
L 165.164387 92.18241 
L 165.163615 94.84353 
L 165.16295 97.50465 
L 165.162755 100.16577 
L 165.163135 102.82689 
L 165.163885 105.48801 
L 165.164599 108.14913 
L 165.164889 110.81025 
L 165.164599 113.47137 
L 165.163885 116.13249 
L 165.163135 118.79361 
L 165.162755 121.45473 
L 165.162951 124.11585 
L 165.163617 126.77697 
L 165.164392 129.43809 
L 165.164855 132.09921 
L 165.164684 135.20385 
L 165.164019 137.86497 
L 165.163244 140.52609 
L 165.16278 143.18721 
L 165.162879 145.84833 
L 165.163487 148.50945 
L 165.164274 151.17057 
L 165.164814 153.83169 
L 165.164814 156.49281 
L 165.164274 159.15393 
L 165.163487 161.81505 
L 165.162879 164.47617 
L 165.16278 167.13729 
L 165.163244 169.79841 
L 165.164019 172.45953 
L 165.164684 175.12065 
L 165.164855 178.22529 
L 165.164392 180.88641 
L 165.163617 183.54753 
L 165.162951 186.20865 
L 165.162755 188.86977 
L 165.163135 191.53089 
L 165.163885 194.19201 
L 165.164599 196.85313 
L 165.164889 199.51425 
L 165.164599 202.17537 
L 165.163885 204.83649 
L 165.163135 207.49761 
L 165.162755 210.15873 
L 165.16295 212.81985 
L 165.163615 215.48097 
L 165.164387 218.14209 
L 165.164844 220.80321 
L 165.164655 223.90785 
L 165.163951 226.56897 
L 165.163096 229.23009 
L 165.162463 231.89121 
L 165.162215 234.55233 
L 165.162133 237.21345 
L 165.161584 239.87457 
L 165.1596 242.53569 
L 165.154962 245.19681 
L 165.146122 247.85793 
L 165.130871 250.51905 
L 165.105723 253.18017 
L 165.065076 255.84129 
L 165.000282 258.50241 
L 164.89871 261.16353 
L 164.742852 263.82465 
L 164.460976 266.92929 
L 164.098485 269.59041 
L 163.58295 272.25153 
L 163.446641 272.763907 
L 162.747886 274.91265 
L 161.661041 277.367719 
L 161.253596 277.57377 
L 159.875441 278.115714 
L 159.541404 277.57377 
L 158.293815 274.91265 
L 158.054129 274.222149 
L 157.767897 272.25153 
z
" clip-path="url(#pde147ebd7d)" style="fill: none; stroke: #08509b; stroke-width: 1.5"/>
    <path d="M 171.969408 269.59041 
L 171.62611 266.92929 
L 171.359158 263.82465 
L 171.211553 261.16353 
L 171.115359 258.50241 
L 171.053995 255.84129 
L 171.015501 253.18017 
L 170.991684 250.51905 
L 170.977241 247.85793 
L 170.968869 245.19681 
L 170.964476 242.53569 
L 170.962598 239.87457 
L 170.962077 237.21345 
L 170.962 234.55233 
L 170.961765 231.89121 
L 170.961166 229.23009 
L 170.960355 226.56897 
L 170.959689 223.90785 
L 170.95951 220.80321 
L 170.959943 218.14209 
L 170.960674 215.48097 
L 170.961303 212.81985 
L 170.961489 210.15873 
L 170.961129 207.49761 
L 170.960418 204.83649 
L 170.959742 202.17537 
L 170.959467 199.51425 
L 170.959742 196.85313 
L 170.960418 194.19201 
L 170.961129 191.53089 
L 170.961488 188.86977 
L 170.961303 186.20865 
L 170.960672 183.54753 
L 170.959938 180.88641 
L 170.959499 178.22529 
L 170.959661 175.12065 
L 170.960292 172.45953 
L 170.961025 169.79841 
L 170.961464 167.13729 
L 170.961371 164.47617 
L 170.960795 161.81505 
L 170.96005 159.15393 
L 170.959539 156.49281 
L 170.959539 153.83169 
L 170.96005 151.17057 
L 170.960795 148.50945 
L 170.961371 145.84833 
L 170.961464 143.18721 
L 170.961025 140.52609 
L 170.960292 137.86497 
L 170.959661 135.20385 
L 170.959499 132.09921 
L 170.959938 129.43809 
L 170.960672 126.77697 
L 170.961303 124.11585 
L 170.961488 121.45473 
L 170.961129 118.79361 
L 170.960418 116.13249 
L 170.959742 113.47137 
L 170.959467 110.81025 
L 170.959742 108.14913 
L 170.960418 105.48801 
L 170.961129 102.82689 
L 170.961489 100.16577 
L 170.961303 97.50465 
L 170.960674 94.84353 
L 170.959943 92.18241 
L 170.95951 89.52129 
L 170.959689 86.41665 
L 170.960355 83.75553 
L 170.961166 81.09441 
L 170.961765 78.43329 
L 170.962 75.77217 
L 170.962077 73.11105 
L 170.962598 70.44993 
L 170.964476 67.78881 
L 170.968869 65.12769 
L 170.977241 62.46657 
L 170.991684 59.80545 
L 171.015501 57.14433 
L 171.053995 54.48321 
L 171.115359 51.82209 
L 171.211553 49.16097 
L 171.359158 46.49985 
L 171.62611 43.39521 
L 171.969408 40.73409 
L 172.410353 38.327725 
L 172.455574 38.07297 
L 173.10599 35.41185 
L 173.996115 32.75073 
L 174.231665 32.215063 
L 175.699147 30.08961 
L 176.017265 29.72906 
L 177.802865 29.531081 
L 178.391225 30.08961 
L 179.588465 31.534736 
L 180.150118 32.75073 
L 181.077661 35.41185 
L 181.409777 36.703985 
L 181.743319 38.07297 
L 182.212765 40.73409 
L 182.542849 43.39521 
L 182.799525 46.49985 
L 182.941449 49.16097 
L 183.033941 51.82209 
L 183.092942 54.48321 
L 183.129955 57.14433 
L 183.152855 59.80545 
L 183.166742 62.46657 
L 183.174792 65.12769 
L 183.179015 67.78881 
L 183.180822 70.44993 
L 183.181322 73.11105 
L 183.181397 75.77217 
L 183.181622 78.43329 
L 183.182199 81.09441 
L 183.182978 83.75553 
L 183.183618 86.41665 
L 183.183791 89.52129 
L 183.183374 92.18241 
L 183.182672 94.84353 
L 183.182066 97.50465 
L 183.181888 100.16577 
L 183.182234 102.82689 
L 183.182917 105.48801 
L 183.183567 108.14913 
L 183.183831 110.81025 
L 183.183567 113.47137 
L 183.182917 116.13249 
L 183.182234 118.79361 
L 183.181888 121.45473 
L 183.182067 124.11585 
L 183.182673 126.77697 
L 183.183379 129.43809 
L 183.183801 132.09921 
L 183.183645 135.20385 
L 183.183039 137.86497 
L 183.182333 140.52609 
L 183.181911 143.18721 
L 183.182001 145.84833 
L 183.182555 148.50945 
L 183.183271 151.17057 
L 183.183763 153.83169 
L 183.183763 156.49281 
L 183.183271 159.15393 
L 183.182555 161.81505 
L 183.182001 164.47617 
L 183.181911 167.13729 
L 183.182333 169.79841 
L 183.183039 172.45953 
L 183.183645 175.12065 
L 183.183801 178.22529 
L 183.183379 180.88641 
L 183.182673 183.54753 
L 183.182067 186.20865 
L 183.181888 188.86977 
L 183.182234 191.53089 
L 183.182917 194.19201 
L 183.183567 196.85313 
L 183.183831 199.51425 
L 183.183567 202.17537 
L 183.182917 204.83649 
L 183.182234 207.49761 
L 183.181888 210.15873 
L 183.182066 212.81985 
L 183.182672 215.48097 
L 183.183374 218.14209 
L 183.183791 220.80321 
L 183.183618 223.90785 
L 183.182978 226.56897 
L 183.182199 229.23009 
L 183.181622 231.89121 
L 183.181397 234.55233 
L 183.181322 237.21345 
L 183.180822 239.87457 
L 183.179015 242.53569 
L 183.174792 245.19681 
L 183.166742 247.85793 
L 183.152855 250.51905 
L 183.129955 253.18017 
L 183.092942 255.84129 
L 183.033941 258.50241 
L 182.941449 261.16353 
L 182.799525 263.82465 
L 182.542849 266.92929 
L 182.212765 269.59041 
L 181.743319 272.25153 
L 181.409777 273.620515 
L 181.077661 274.91265 
L 180.150118 277.57377 
L 179.588465 278.789764 
L 178.391225 280.23489 
L 177.802865 280.793419 
L 176.017265 280.59544 
L 175.699147 280.23489 
L 174.231665 278.109437 
L 173.996115 277.57377 
L 173.10599 274.91265 
L 172.455574 272.25153 
L 172.410353 271.996775 
L 171.969408 269.59041 
z
" clip-path="url(#pde147ebd7d)" style="fill: none; stroke: #08509b; stroke-width: 1.5"/>
    <path d="M 190.301129 272.25153 
L 189.818347 269.59041 
L 189.478887 266.92929 
L 189.214919 263.82465 
L 189.068964 261.16353 
L 188.973844 258.50241 
L 188.913167 255.84129 
L 188.875103 253.18017 
L 188.851552 250.51905 
L 188.83727 247.85793 
L 188.828992 245.19681 
L 188.824649 242.53569 
L 188.822791 239.87457 
L 188.822276 237.21345 
L 188.8222 234.55233 
L 188.821968 231.89121 
L 188.821375 229.23009 
L 188.820574 226.56897 
L 188.819915 223.90785 
L 188.819738 220.80321 
L 188.820166 218.14209 
L 188.820889 215.48097 
L 188.821511 212.81985 
L 188.821694 210.15873 
L 188.821338 207.49761 
L 188.820636 204.83649 
L 188.819968 202.17537 
L 188.819696 199.51425 
L 188.819968 196.85313 
L 188.820636 194.19201 
L 188.821338 191.53089 
L 188.821694 188.86977 
L 188.82151 186.20865 
L 188.820887 183.54753 
L 188.820161 180.88641 
L 188.819727 178.22529 
L 188.819887 175.12065 
L 188.820511 172.45953 
L 188.821236 169.79841 
L 188.82167 167.13729 
L 188.821578 164.47617 
L 188.821009 161.81505 
L 188.820272 159.15393 
L 188.819766 156.49281 
L 188.819766 153.83169 
L 188.820272 151.17057 
L 188.821009 148.50945 
L 188.821578 145.84833 
L 188.82167 143.18721 
L 188.821236 140.52609 
L 188.820511 137.86497 
L 188.819887 135.20385 
L 188.819727 132.09921 
L 188.820161 129.43809 
L 188.820887 126.77697 
L 188.82151 124.11585 
L 188.821694 121.45473 
L 188.821338 118.79361 
L 188.820636 116.13249 
L 188.819968 113.47137 
L 188.819696 110.81025 
L 188.819968 108.14913 
L 188.820636 105.48801 
L 188.821338 102.82689 
L 188.821694 100.16577 
L 188.821511 97.50465 
L 188.820889 94.84353 
L 188.820166 92.18241 
L 188.819738 89.52129 
L 188.819915 86.41665 
L 188.820574 83.75553 
L 188.821375 81.09441 
L 188.821968 78.43329 
L 188.8222 75.77217 
L 188.822276 73.11105 
L 188.822791 70.44993 
L 188.824649 67.78881 
L 188.828992 65.12769 
L 188.83727 62.46657 
L 188.851552 59.80545 
L 188.875103 57.14433 
L 188.913167 54.48321 
L 188.973844 51.82209 
L 189.068964 49.16097 
L 189.214919 46.49985 
L 189.478887 43.39521 
L 189.818347 40.73409 
L 190.301129 38.07297 
L 190.373489 37.782088 
L 190.959112 35.41185 
L 191.857182 32.75073 
L 192.159089 32.071374 
L 193.573912 30.08961 
L 193.944689 29.682801 
L 195.766001 29.582039 
L 196.270628 30.08961 
L 197.551601 31.730413 
L 198.016033 32.75073 
L 198.932218 35.41185 
L 199.337201 37.010292 
L 199.597432 38.07297 
L 200.07024 40.73409 
L 200.402687 43.39521 
L 200.661201 46.49985 
L 200.804141 49.16097 
L 200.897295 51.82209 
L 200.956719 54.48321 
L 200.993997 57.14433 
L 201.017061 59.80545 
L 201.031048 62.46657 
L 201.039155 65.12769 
L 201.043409 67.78881 
L 201.045228 70.44993 
L 201.045732 73.11105 
L 201.045807 75.77217 
L 201.046034 78.43329 
L 201.046615 81.09441 
L 201.047399 83.75553 
L 201.048044 86.41665 
L 201.048218 89.52129 
L 201.047799 92.18241 
L 201.047091 94.84353 
L 201.046482 97.50465 
L 201.046302 100.16577 
L 201.046651 102.82689 
L 201.047339 105.48801 
L 201.047993 108.14913 
L 201.048259 110.81025 
L 201.047993 113.47137 
L 201.047339 116.13249 
L 201.046651 118.79361 
L 201.046302 121.45473 
L 201.046482 124.11585 
L 201.047093 126.77697 
L 201.047803 129.43809 
L 201.048229 132.09921 
L 201.048072 135.20385 
L 201.047461 137.86497 
L 201.046751 140.52609 
L 201.046325 143.18721 
L 201.046416 145.84833 
L 201.046973 148.50945 
L 201.047695 151.17057 
L 201.04819 153.83169 
L 201.04819 156.49281 
L 201.047695 159.15393 
L 201.046973 161.81505 
L 201.046416 164.47617 
L 201.046325 167.13729 
L 201.046751 169.79841 
L 201.047461 172.45953 
L 201.048072 175.12065 
L 201.048229 178.22529 
L 201.047803 180.88641 
L 201.047093 183.54753 
L 201.046482 186.20865 
L 201.046302 188.86977 
L 201.046651 191.53089 
L 201.047339 194.19201 
L 201.047993 196.85313 
L 201.048259 199.51425 
L 201.047993 202.17537 
L 201.047339 204.83649 
L 201.046651 207.49761 
L 201.046302 210.15873 
L 201.046482 212.81985 
L 201.047091 215.48097 
L 201.047799 218.14209 
L 201.048218 220.80321 
L 201.048044 223.90785 
L 201.047399 226.56897 
L 201.046615 229.23009 
L 201.046034 231.89121 
L 201.045807 234.55233 
L 201.045732 237.21345 
L 201.045228 239.87457 
L 201.043409 242.53569 
L 201.039155 245.19681 
L 201.031048 247.85793 
L 201.017061 250.51905 
L 200.993997 253.18017 
L 200.956719 255.84129 
L 200.897295 258.50241 
L 200.804141 261.16353 
L 200.661201 263.82465 
L 200.402687 266.92929 
L 200.07024 269.59041 
L 199.597432 272.25153 
L 199.337201 273.314208 
L 198.932218 274.91265 
L 198.016033 277.57377 
L 197.551601 278.594087 
L 196.270628 280.23489 
L 195.766001 280.742461 
L 193.944689 280.641699 
L 193.573912 280.23489 
L 192.159089 278.253126 
L 191.857182 277.57377 
L 190.959112 274.91265 
L 190.373489 272.542412 
L 190.301129 272.25153 
z
" clip-path="url(#pde147ebd7d)" style="fill: none; stroke: #08509b; stroke-width: 1.5"/>
    <path d="M 208.152544 272.25153 
L 207.674029 269.59041 
L 207.337569 266.92929 
L 207.075934 263.82465 
L 206.931269 261.16353 
L 206.83699 258.50241 
L 206.776849 255.84129 
L 206.739121 253.18017 
L 206.715779 250.51905 
L 206.701623 247.85793 
L 206.693418 245.19681 
L 206.689113 242.53569 
L 206.687272 239.87457 
L 206.686762 237.21345 
L 206.686685 234.55233 
L 206.686456 231.89121 
L 206.685868 229.23009 
L 206.685074 226.56897 
L 206.684421 223.90785 
L 206.684245 220.80321 
L 206.68467 218.14209 
L 206.685386 215.48097 
L 206.686003 212.81985 
L 206.686185 210.15873 
L 206.685832 207.49761 
L 206.685136 204.83649 
L 206.684473 202.17537 
L 206.684204 199.51425 
L 206.684473 196.85313 
L 206.685136 194.19201 
L 206.685832 191.53089 
L 206.686184 188.86977 
L 206.686002 186.20865 
L 206.685384 183.54753 
L 206.684665 180.88641 
L 206.684235 178.22529 
L 206.684394 175.12065 
L 206.685012 172.45953 
L 206.685731 169.79841 
L 206.686161 167.13729 
L 206.686069 164.47617 
L 206.685505 161.81505 
L 206.684775 159.15393 
L 206.684274 156.49281 
L 206.684274 153.83169 
L 206.684775 151.17057 
L 206.685505 148.50945 
L 206.686069 145.84833 
L 206.686161 143.18721 
L 206.685731 140.52609 
L 206.685012 137.86497 
L 206.684394 135.20385 
L 206.684235 132.09921 
L 206.684665 129.43809 
L 206.685384 126.77697 
L 206.686002 124.11585 
L 206.686184 121.45473 
L 206.685832 118.79361 
L 206.685136 116.13249 
L 206.684473 113.47137 
L 206.684204 110.81025 
L 206.684473 108.14913 
L 206.685136 105.48801 
L 206.685832 102.82689 
L 206.686185 100.16577 
L 206.686003 97.50465 
L 206.685386 94.84353 
L 206.68467 92.18241 
L 206.684245 89.52129 
L 206.684421 86.41665 
L 206.685074 83.75553 
L 206.685868 81.09441 
L 206.686456 78.43329 
L 206.686685 75.77217 
L 206.686762 73.11105 
L 206.687272 70.44993 
L 206.689113 67.78881 
L 206.693418 65.12769 
L 206.701623 62.46657 
L 206.715779 59.80545 
L 206.739121 57.14433 
L 206.776849 54.48321 
L 206.83699 51.82209 
L 206.931269 49.16097 
L 207.075934 46.49985 
L 207.337569 43.39521 
L 207.674029 40.73409 
L 208.152544 38.07297 
L 208.300913 37.472464 
L 208.816274 35.41185 
L 209.72347 32.75073 
L 210.122225 31.864624 
L 211.457506 30.08961 
L 211.907825 29.620017 
L 213.693425 29.620017 
L 214.143744 30.08961 
L 215.479025 31.864624 
L 215.87778 32.75073 
L 216.784976 35.41185 
L 217.300337 37.472464 
L 217.448706 38.07297 
L 217.927221 40.73409 
L 218.263681 43.39521 
L 218.525316 46.49985 
L 218.669981 49.16097 
L 218.76426 51.82209 
L 218.824401 54.48321 
L 218.862129 57.14433 
L 218.885471 59.80545 
L 218.899627 62.46657 
L 218.907832 65.12769 
L 218.912137 67.78881 
L 218.913978 70.44993 
L 218.914488 73.11105 
L 218.914565 75.77217 
L 218.914794 78.43329 
L 218.915382 81.09441 
L 218.916176 83.75553 
L 218.916829 86.41665 
L 218.917005 89.52129 
L 218.91658 92.18241 
L 218.915864 94.84353 
L 218.915247 97.50465 
L 218.915065 100.16577 
L 218.915418 102.82689 
L 218.916114 105.48801 
L 218.916777 108.14913 
L 218.917046 110.81025 
L 218.916777 113.47137 
L 218.916114 116.13249 
L 218.915418 118.79361 
L 218.915066 121.45473 
L 218.915248 124.11585 
L 218.915866 126.77697 
L 218.916585 129.43809 
L 218.917015 132.09921 
L 218.916856 135.20385 
L 218.916238 137.86497 
L 218.915519 140.52609 
L 218.915089 143.18721 
L 218.915181 145.84833 
L 218.915745 148.50945 
L 218.916475 151.17057 
L 218.916976 153.83169 
L 218.916976 156.49281 
L 218.916475 159.15393 
L 218.915745 161.81505 
L 218.915181 164.47617 
L 218.915089 167.13729 
L 218.915519 169.79841 
L 218.916238 172.45953 
L 218.916856 175.12065 
L 218.917015 178.22529 
L 218.916585 180.88641 
L 218.915866 183.54753 
L 218.915248 186.20865 
L 218.915066 188.86977 
L 218.915418 191.53089 
L 218.916114 194.19201 
L 218.916777 196.85313 
L 218.917046 199.51425 
L 218.916777 202.17537 
L 218.916114 204.83649 
L 218.915418 207.49761 
L 218.915065 210.15873 
L 218.915247 212.81985 
L 218.915864 215.48097 
L 218.91658 218.14209 
L 218.917005 220.80321 
L 218.916829 223.90785 
L 218.916176 226.56897 
L 218.915382 229.23009 
L 218.914794 231.89121 
L 218.914565 234.55233 
L 218.914488 237.21345 
L 218.913978 239.87457 
L 218.912137 242.53569 
L 218.907832 245.19681 
L 218.899627 247.85793 
L 218.885471 250.51905 
L 218.862129 253.18017 
L 218.824401 255.84129 
L 218.76426 258.50241 
L 218.669981 261.16353 
L 218.525316 263.82465 
L 218.263681 266.92929 
L 217.927221 269.59041 
L 217.448706 272.25153 
L 217.300337 272.852036 
L 216.784976 274.91265 
L 215.87778 277.57377 
L 215.479025 278.459876 
L 214.143744 280.23489 
L 213.693425 280.704483 
L 211.907825 280.704483 
L 211.457506 280.23489 
L 210.122225 278.459876 
L 209.72347 277.57377 
L 208.816274 274.91265 
L 208.300913 272.852036 
L 208.152544 272.25153 
z
" clip-path="url(#pde147ebd7d)" style="fill: none; stroke: #08509b; stroke-width: 1.5"/>
    <path d="M 226.003818 272.25153 
L 225.53101 269.59041 
L 225.198563 266.92929 
L 224.940049 263.82465 
L 224.797109 261.16353 
L 224.703955 258.50241 
L 224.644531 255.84129 
L 224.607253 253.18017 
L 224.584189 250.51905 
L 224.570202 247.85793 
L 224.562095 245.19681 
L 224.557841 242.53569 
L 224.556022 239.87457 
L 224.555518 237.21345 
L 224.555443 234.55233 
L 224.555216 231.89121 
L 224.554635 229.23009 
L 224.553851 226.56897 
L 224.553206 223.90785 
L 224.553032 220.80321 
L 224.553451 218.14209 
L 224.554159 215.48097 
L 224.554768 212.81985 
L 224.554948 210.15873 
L 224.554599 207.49761 
L 224.553911 204.83649 
L 224.553257 202.17537 
L 224.552991 199.51425 
L 224.553257 196.85313 
L 224.553911 194.19201 
L 224.554599 191.53089 
L 224.554948 188.86977 
L 224.554768 186.20865 
L 224.554157 183.54753 
L 224.553447 180.88641 
L 224.553021 178.22529 
L 224.553178 175.12065 
L 224.553789 172.45953 
L 224.554499 169.79841 
L 224.554925 167.13729 
L 224.554834 164.47617 
L 224.554277 161.81505 
L 224.553555 159.15393 
L 224.55306 156.49281 
L 224.55306 153.83169 
L 224.553555 151.17057 
L 224.554277 148.50945 
L 224.554834 145.84833 
L 224.554925 143.18721 
L 224.554499 140.52609 
L 224.553789 137.86497 
L 224.553178 135.20385 
L 224.553021 132.09921 
L 224.553447 129.43809 
L 224.554157 126.77697 
L 224.554768 124.11585 
L 224.554948 121.45473 
L 224.554599 118.79361 
L 224.553911 116.13249 
L 224.553257 113.47137 
L 224.552991 110.81025 
L 224.553257 108.14913 
L 224.553911 105.48801 
L 224.554599 102.82689 
L 224.554948 100.16577 
L 224.554768 97.50465 
L 224.554159 94.84353 
L 224.553451 92.18241 
L 224.553032 89.52129 
L 224.553206 86.41665 
L 224.553851 83.75553 
L 224.554635 81.09441 
L 224.555216 78.43329 
L 224.555443 75.77217 
L 224.555518 73.11105 
L 224.556022 70.44993 
L 224.557841 67.78881 
L 224.562095 65.12769 
L 224.570202 62.46657 
L 224.584189 59.80545 
L 224.607253 57.14433 
L 224.644531 54.48321 
L 224.703955 51.82209 
L 224.797109 49.16097 
L 224.940049 46.49985 
L 225.198563 43.39521 
L 225.53101 40.73409 
L 226.003818 38.07297 
L 226.264049 37.010292 
L 226.669032 35.41185 
L 227.585217 32.75073 
L 228.049649 31.730413 
L 229.330622 30.08961 
L 229.835249 29.582039 
L 231.656561 29.682801 
L 232.027338 30.08961 
L 233.442161 32.071374 
L 233.744068 32.75073 
L 234.642138 35.41185 
L 235.227761 37.782088 
L 235.300121 38.07297 
L 235.782903 40.73409 
L 236.122363 43.39521 
L 236.386331 46.49985 
L 236.532286 49.16097 
L 236.627406 51.82209 
L 236.688083 54.48321 
L 236.726147 57.14433 
L 236.749698 59.80545 
L 236.76398 62.46657 
L 236.772258 65.12769 
L 236.776601 67.78881 
L 236.778459 70.44993 
L 236.778974 73.11105 
L 236.77905 75.77217 
L 236.779282 78.43329 
L 236.779875 81.09441 
L 236.780676 83.75553 
L 236.781335 86.41665 
L 236.781512 89.52129 
L 236.781084 92.18241 
L 236.780361 94.84353 
L 236.779739 97.50465 
L 236.779556 100.16577 
L 236.779912 102.82689 
L 236.780614 105.48801 
L 236.781282 108.14913 
L 236.781554 110.81025 
L 236.781282 113.47137 
L 236.780614 116.13249 
L 236.779912 118.79361 
L 236.779556 121.45473 
L 236.77974 124.11585 
L 236.780363 126.77697 
L 236.781089 129.43809 
L 236.781523 132.09921 
L 236.781363 135.20385 
L 236.780739 137.86497 
L 236.780014 140.52609 
L 236.77958 143.18721 
L 236.779672 145.84833 
L 236.780241 148.50945 
L 236.780978 151.17057 
L 236.781484 153.83169 
L 236.781484 156.49281 
L 236.780978 159.15393 
L 236.780241 161.81505 
L 236.779672 164.47617 
L 236.77958 167.13729 
L 236.780014 169.79841 
L 236.780739 172.45953 
L 236.781363 175.12065 
L 236.781523 178.22529 
L 236.781089 180.88641 
L 236.780363 183.54753 
L 236.77974 186.20865 
L 236.779556 188.86977 
L 236.779912 191.53089 
L 236.780614 194.19201 
L 236.781282 196.85313 
L 236.781554 199.51425 
L 236.781282 202.17537 
L 236.780614 204.83649 
L 236.779912 207.49761 
L 236.779556 210.15873 
L 236.779739 212.81985 
L 236.780361 215.48097 
L 236.781084 218.14209 
L 236.781512 220.80321 
L 236.781335 223.90785 
L 236.780676 226.56897 
L 236.779875 229.23009 
L 236.779282 231.89121 
L 236.77905 234.55233 
L 236.778974 237.21345 
L 236.778459 239.87457 
L 236.776601 242.53569 
L 236.772258 245.19681 
L 236.76398 247.85793 
L 236.749698 250.51905 
L 236.726147 253.18017 
L 236.688083 255.84129 
L 236.627406 258.50241 
L 236.532286 261.16353 
L 236.386331 263.82465 
L 236.122363 266.92929 
L 235.782903 269.59041 
L 235.300121 272.25153 
L 235.227761 272.542412 
L 234.642138 274.91265 
L 233.744068 277.57377 
L 233.442161 278.253126 
L 232.027338 280.23489 
L 231.656561 280.641699 
L 229.835249 280.742461 
L 229.330622 280.23489 
L 228.049649 278.594087 
L 227.585217 277.57377 
L 226.669032 274.91265 
L 226.264049 273.314208 
L 226.003818 272.25153 
z
" clip-path="url(#pde147ebd7d)" style="fill: none; stroke: #08509b; stroke-width: 1.5"/>
    <path d="M 243.857931 272.25153 
L 243.388485 269.59041 
L 243.058401 266.92929 
L 242.801725 263.82465 
L 242.659801 261.16353 
L 242.567309 258.50241 
L 242.508308 255.84129 
L 242.471295 253.18017 
L 242.448395 250.51905 
L 242.434508 247.85793 
L 242.426458 245.19681 
L 242.422235 242.53569 
L 242.420428 239.87457 
L 242.419928 237.21345 
L 242.419853 234.55233 
L 242.419628 231.89121 
L 242.419051 229.23009 
L 242.418272 226.56897 
L 242.417632 223.90785 
L 242.417459 220.80321 
L 242.417876 218.14209 
L 242.418578 215.48097 
L 242.419184 212.81985 
L 242.419362 210.15873 
L 242.419016 207.49761 
L 242.418333 204.83649 
L 242.417683 202.17537 
L 242.417419 199.51425 
L 242.417683 196.85313 
L 242.418333 194.19201 
L 242.419016 191.53089 
L 242.419362 188.86977 
L 242.419183 186.20865 
L 242.418577 183.54753 
L 242.417871 180.88641 
L 242.417449 178.22529 
L 242.417605 175.12065 
L 242.418211 172.45953 
L 242.418917 169.79841 
L 242.419339 167.13729 
L 242.419249 164.47617 
L 242.418695 161.81505 
L 242.417979 159.15393 
L 242.417487 156.49281 
L 242.417487 153.83169 
L 242.417979 151.17057 
L 242.418695 148.50945 
L 242.419249 145.84833 
L 242.419339 143.18721 
L 242.418917 140.52609 
L 242.418211 137.86497 
L 242.417605 135.20385 
L 242.417449 132.09921 
L 242.417871 129.43809 
L 242.418577 126.77697 
L 242.419183 124.11585 
L 242.419362 121.45473 
L 242.419016 118.79361 
L 242.418333 116.13249 
L 242.417683 113.47137 
L 242.417419 110.81025 
L 242.417683 108.14913 
L 242.418333 105.48801 
L 242.419016 102.82689 
L 242.419362 100.16577 
L 242.419184 97.50465 
L 242.418578 94.84353 
L 242.417876 92.18241 
L 242.417459 89.52129 
L 242.417632 86.41665 
L 242.418272 83.75553 
L 242.419051 81.09441 
L 242.419628 78.43329 
L 242.419853 75.77217 
L 242.419928 73.11105 
L 242.420428 70.44993 
L 242.422235 67.78881 
L 242.426458 65.12769 
L 242.434508 62.46657 
L 242.448395 59.80545 
L 242.471295 57.14433 
L 242.508308 54.48321 
L 242.567309 51.82209 
L 242.659801 49.16097 
L 242.801725 46.49985 
L 243.058401 43.39521 
L 243.388485 40.73409 
L 243.857931 38.07297 
L 244.191473 36.703985 
L 244.523589 35.41185 
L 245.451132 32.75073 
L 246.012785 31.534736 
L 247.210025 30.08961 
L 247.798385 29.531081 
L 249.583985 29.72906 
L 249.902103 30.08961 
L 251.369585 32.215063 
L 251.605135 32.75073 
L 252.49526 35.41185 
L 253.145676 38.07297 
L 253.190897 38.327725 
L 253.631842 40.73409 
L 253.97514 43.39521 
L 254.242092 46.49985 
L 254.389697 49.16097 
L 254.485891 51.82209 
L 254.547255 54.48321 
L 254.585749 57.14433 
L 254.609566 59.80545 
L 254.624009 62.46657 
L 254.632381 65.12769 
L 254.636774 67.78881 
L 254.638652 70.44993 
L 254.639173 73.11105 
L 254.63925 75.77217 
L 254.639485 78.43329 
L 254.640084 81.09441 
L 254.640895 83.75553 
L 254.641561 86.41665 
L 254.64174 89.52129 
L 254.641307 92.18241 
L 254.640576 94.84353 
L 254.639947 97.50465 
L 254.639761 100.16577 
L 254.640121 102.82689 
L 254.640832 105.48801 
L 254.641508 108.14913 
L 254.641783 110.81025 
L 254.641508 113.47137 
L 254.640832 116.13249 
L 254.640121 118.79361 
L 254.639762 121.45473 
L 254.639947 124.11585 
L 254.640578 126.77697 
L 254.641312 129.43809 
L 254.641751 132.09921 
L 254.641589 135.20385 
L 254.640958 137.86497 
L 254.640225 140.52609 
L 254.639786 143.18721 
L 254.639879 145.84833 
L 254.640455 148.50945 
L 254.6412 151.17057 
L 254.641711 153.83169 
L 254.641711 156.49281 
L 254.6412 159.15393 
L 254.640455 161.81505 
L 254.639879 164.47617 
L 254.639786 167.13729 
L 254.640225 169.79841 
L 254.640958 172.45953 
L 254.641589 175.12065 
L 254.641751 178.22529 
L 254.641312 180.88641 
L 254.640578 183.54753 
L 254.639947 186.20865 
L 254.639762 188.86977 
L 254.640121 191.53089 
L 254.640832 194.19201 
L 254.641508 196.85313 
L 254.641783 199.51425 
L 254.641508 202.17537 
L 254.640832 204.83649 
L 254.640121 207.49761 
L 254.639761 210.15873 
L 254.639947 212.81985 
L 254.640576 215.48097 
L 254.641307 218.14209 
L 254.64174 220.80321 
L 254.641561 223.90785 
L 254.640895 226.56897 
L 254.640084 229.23009 
L 254.639485 231.89121 
L 254.63925 234.55233 
L 254.639173 237.21345 
L 254.638652 239.87457 
L 254.636774 242.53569 
L 254.632381 245.19681 
L 254.624009 247.85793 
L 254.609566 250.51905 
L 254.585749 253.18017 
L 254.547255 255.84129 
L 254.485891 258.50241 
L 254.389697 261.16353 
L 254.242092 263.82465 
L 253.97514 266.92929 
L 253.631842 269.59041 
L 253.190897 271.996775 
L 253.145676 272.25153 
L 252.49526 274.91265 
L 251.605135 277.57377 
L 251.369585 278.109437 
L 249.902103 280.23489 
L 249.583985 280.59544 
L 247.798385 280.793419 
L 247.210025 280.23489 
L 246.012785 278.789764 
L 245.451132 277.57377 
L 244.523589 274.91265 
L 244.191473 273.620515 
L 243.857931 272.25153 
z
" clip-path="url(#pde147ebd7d)" style="fill: none; stroke: #08509b; stroke-width: 1.5"/>
    <path d="M 262.0183 272.25153 
L 261.502765 269.59041 
L 261.140274 266.92929 
L 260.858398 263.82465 
L 260.70254 261.16353 
L 260.600968 258.50241 
L 260.536174 255.84129 
L 260.495527 253.18017 
L 260.470379 250.51905 
L 260.455128 247.85793 
L 260.446288 245.19681 
L 260.44165 242.53569 
L 260.439666 239.87457 
L 260.439117 237.21345 
L 260.439035 234.55233 
L 260.438787 231.89121 
L 260.438154 229.23009 
L 260.437299 226.56897 
L 260.436595 223.90785 
L 260.436406 220.80321 
L 260.436863 218.14209 
L 260.437635 215.48097 
L 260.4383 212.81985 
L 260.438495 210.15873 
L 260.438115 207.49761 
L 260.437365 204.83649 
L 260.436651 202.17537 
L 260.436361 199.51425 
L 260.436651 196.85313 
L 260.437365 194.19201 
L 260.438115 191.53089 
L 260.438495 188.86977 
L 260.438299 186.20865 
L 260.437633 183.54753 
L 260.436858 180.88641 
L 260.436395 178.22529 
L 260.436566 175.12065 
L 260.437231 172.45953 
L 260.438006 169.79841 
L 260.43847 167.13729 
L 260.438371 164.47617 
L 260.437763 161.81505 
L 260.436976 159.15393 
L 260.436436 156.49281 
L 260.436436 153.83169 
L 260.436976 151.17057 
L 260.437763 148.50945 
L 260.438371 145.84833 
L 260.43847 143.18721 
L 260.438006 140.52609 
L 260.437231 137.86497 
L 260.436566 135.20385 
L 260.436395 132.09921 
L 260.436858 129.43809 
L 260.437633 126.77697 
L 260.438299 124.11585 
L 260.438495 121.45473 
L 260.438115 118.79361 
L 260.437365 116.13249 
L 260.436651 113.47137 
L 260.436361 110.81025 
L 260.436651 108.14913 
L 260.437365 105.48801 
L 260.438115 102.82689 
L 260.438495 100.16577 
L 260.4383 97.50465 
L 260.437635 94.84353 
L 260.436863 92.18241 
L 260.436406 89.52129 
L 260.436595 86.41665 
L 260.437299 83.75553 
L 260.438154 81.09441 
L 260.438787 78.43329 
L 260.439035 75.77217 
L 260.439117 73.11105 
L 260.439666 70.44993 
L 260.44165 67.78881 
L 260.446288 65.12769 
L 260.455128 62.46657 
L 260.470379 59.80545 
L 260.495527 57.14433 
L 260.536174 54.48321 
L 260.600968 51.82209 
L 260.70254 49.16097 
L 260.858398 46.49985 
L 261.140274 43.39521 
L 261.502765 40.73409 
L 262.0183 38.07297 
L 262.154609 37.560593 
L 262.853364 35.41185 
L 263.940209 32.956781 
L 264.347654 32.75073 
L 265.725809 32.208786 
L 266.059846 32.75073 
L 267.307435 35.41185 
L 267.547121 36.102351 
L 267.833353 38.07297 
L 268.112087 40.73409 
L 268.308076 43.39521 
L 268.460478 46.49985 
L 268.544745 49.16097 
L 268.599663 51.82209 
L 268.634695 54.48321 
L 268.656671 57.14433 
L 268.670268 59.80545 
L 268.678514 62.46657 
L 268.683294 65.12769 
L 268.685801 67.78881 
L 268.686874 70.44993 
L 268.687171 73.11105 
L 268.687215 75.77217 
L 268.687349 78.43329 
L 268.687691 81.09441 
L 268.688154 83.75553 
L 268.688534 86.41665 
L 268.688636 89.52129 
L 268.688389 92.18241 
L 268.687972 94.84353 
L 268.687613 97.50465 
L 268.687507 100.16577 
L 268.687712 102.82689 
L 268.688118 105.48801 
L 268.688504 108.14913 
L 268.688661 110.81025 
L 268.688504 113.47137 
L 268.688118 116.13249 
L 268.687712 118.79361 
L 268.687507 121.45473 
L 268.687613 124.11585 
L 268.687973 126.77697 
L 268.688392 129.43809 
L 268.688643 132.09921 
L 268.68855 135.20385 
L 268.68819 137.86497 
L 268.687771 140.52609 
L 268.687521 143.18721 
L 268.687574 145.84833 
L 268.687903 148.50945 
L 268.688328 151.17057 
L 268.68862 153.83169 
L 268.68862 156.49281 
L 268.688328 159.15393 
L 268.687903 161.81505 
L 268.687574 164.47617 
L 268.687521 167.13729 
L 268.687771 169.79841 
L 268.68819 172.45953 
L 268.68855 175.12065 
L 268.688643 178.22529 
L 268.688392 180.88641 
L 268.687973 183.54753 
L 268.687613 186.20865 
L 268.687507 188.86977 
L 268.687712 191.53089 
L 268.688118 194.19201 
L 268.688504 196.85313 
L 268.688661 199.51425 
L 268.688504 202.17537 
L 268.688118 204.83649 
L 268.687712 207.49761 
L 268.687507 210.15873 
L 268.687613 212.81985 
L 268.687972 215.48097 
L 268.688389 218.14209 
L 268.688636 220.80321 
L 268.688534 223.90785 
L 268.688154 226.56897 
L 268.687691 229.23009 
L 268.687349 231.89121 
L 268.687215 234.55233 
L 268.687171 237.21345 
L 268.686874 239.87457 
L 268.685801 242.53569 
L 268.683294 245.19681 
L 268.678514 247.85793 
L 268.670268 250.51905 
L 268.656671 253.18017 
L 268.634695 255.84129 
L 268.599663 258.50241 
L 268.544745 261.16353 
L 268.460478 263.82465 
L 268.308076 266.92929 
L 268.112087 269.59041 
L 267.833353 272.25153 
L 267.547121 274.222149 
L 267.307435 274.91265 
L 266.059846 277.57377 
L 265.725809 278.115714 
L 264.347654 277.57377 
L 263.940209 277.367719 
L 262.853364 274.91265 
L 262.154609 272.763907 
L 262.0183 272.25153 
z
" clip-path="url(#pde147ebd7d)" style="fill: none; stroke: #08509b; stroke-width: 1.5"/>
   </g>
   <g id="PathCollection_9"/>
   <g id="patch_3">
    <path d="M 34.240625 288.21825 
L 34.240625 22.10625 
" style="fill: none; stroke: #000000; stroke-width: 0.8; stroke-linejoin: miter; stroke-linecap: square"/>
   </g>
   <g id="patch_4">
    <path d="M 391.360625 288.21825 
L 391.360625 22.10625 
" style="fill: none; stroke: #000000; stroke-width: 0.8; stroke-linejoin: miter; stroke-linecap: square"/>
   </g>
   <g id="patch_5">
    <path d="M 34.240625 288.21825 
L 391.360625 288.21825 
" style="fill: none; stroke: #000000; stroke-width: 0.8; stroke-linejoin: miter; stroke-linecap: square"/>
   </g>
   <g id="patch_6">
    <path d="M 34.240625 22.10625 
L 391.360625 22.10625 
" style="fill: none; stroke: #000000; stroke-width: 0.8; stroke-linejoin: miter; stroke-linecap: square"/>
   </g>
   <g id="text_16">
    <!-- 6.7_cross_-43.0 -->
    <g transform="translate(166.181563 16.10625)scale(0.12 -0.12)">
     <defs>
      <path id="DejaVuSans-2e" d="M 684 794 
L 1344 794 
L 1344 0 
L 684 0 
L 684 794 
z
" transform="scale(0.015625)"/>
      <path id="DejaVuSans-37" d="M 525 4666 
L 3525 4666 
L 3525 4397 
L 1831 0 
L 1172 0 
L 2766 4134 
L 525 4134 
L 525 4666 
z
" transform="scale(0.015625)"/>
      <path id="DejaVuSans-5f" d="M 3263 -1063 
L 3263 -1509 
L -63 -1509 
L -63 -1063 
L 3263 -1063 
z
" transform="scale(0.015625)"/>
      <path id="DejaVuSans-63" d="M 3122 3366 
L 3122 2828 
Q 2878 2963 2633 3030 
Q 2388 3097 2138 3097 
Q 1578 3097 1268 2742 
Q 959 2388 959 1747 
Q 959 1106 1268 751 
Q 1578 397 2138 397 
Q 2388 397 2633 464 
Q 2878 531 3122 666 
L 3122 134 
Q 2881 22 2623 -34 
Q 2366 -91 2075 -91 
Q 1284 -91 818 406 
Q 353 903 353 1747 
Q 353 2603 823 3093 
Q 1294 3584 2113 3584 
Q 2378 3584 2631 3529 
Q 2884 3475 3122 3366 
z
" transform="scale(0.015625)"/>
      <path id="DejaVuSans-72" d="M 2631 2963 
Q 2534 3019 2420 3045 
Q 2306 3072 2169 3072 
Q 1681 3072 1420 2755 
Q 1159 2438 1159 1844 
L 1159 0 
L 581 0 
L 581 3500 
L 1159 3500 
L 1159 2956 
Q 1341 3275 1631 3429 
Q 1922 3584 2338 3584 
Q 2397 3584 2469 3576 
Q 2541 3569 2628 3553 
L 2631 2963 
z
" transform="scale(0.015625)"/>
      <path id="DejaVuSans-73" d="M 2834 3397 
L 2834 2853 
Q 2591 2978 2328 3040 
Q 2066 3103 1784 3103 
Q 1356 3103 1142 2972 
Q 928 2841 928 2578 
Q 928 2378 1081 2264 
Q 1234 2150 1697 2047 
L 1894 2003 
Q 2506 1872 2764 1633 
Q 3022 1394 3022 966 
Q 3022 478 2636 193 
Q 2250 -91 1575 -91 
Q 1294 -91 989 -36 
Q 684 19 347 128 
L 347 722 
Q 666 556 975 473 
Q 1284 391 1588 391 
Q 1994 391 2212 530 
Q 2431 669 2431 922 
Q 2431 1156 2273 1281 
Q 2116 1406 1581 1522 
L 1381 1569 
Q 847 1681 609 1914 
Q 372 2147 372 2553 
Q 372 3047 722 3315 
Q 1072 3584 1716 3584 
Q 2034 3584 2315 3537 
Q 2597 3491 2834 3397 
z
" transform="scale(0.015625)"/>
      <path id="DejaVuSans-2d" d="M 313 2009 
L 1997 2009 
L 1997 1497 
L 313 1497 
L 313 2009 
z
" transform="scale(0.015625)"/>
     </defs>
     <use xlink:href="#DejaVuSans-36"/>
     <use xlink:href="#DejaVuSans-2e" x="63.623047"/>
     <use xlink:href="#DejaVuSans-37" x="95.410156"/>
     <use xlink:href="#DejaVuSans-5f" x="159.033203"/>
     <use xlink:href="#DejaVuSans-63" x="209.033203"/>
     <use xlink:href="#DejaVuSans-72" x="264.013672"/>
     <use xlink:href="#DejaVuSans-6f" x="302.876953"/>
     <use xlink:href="#DejaVuSans-73" x="364.058594"/>
     <use xlink:href="#DejaVuSans-73" x="416.158203"/>
     <use xlink:href="#DejaVuSans-5f" x="468.257812"/>
     <use xlink:href="#DejaVuSans-2d" x="518.257812"/>
     <use xlink:href="#DejaVuSans-34" x="554.341797"/>
     <use xlink:href="#DejaVuSans-33" x="617.964844"/>
     <use xlink:href="#DejaVuSans-2e" x="681.587891"/>
     <use xlink:href="#DejaVuSans-30" x="713.375"/>
    </g>
   </g>
  </g>
 </g>
 <defs>
  <clipPath id="pde147ebd7d">
   <rect x="34.240625" y="22.10625" width="357.12" height="266.112"/>
  </clipPath>
 </defs>
</svg>
