<?xml version="1.0" encoding="utf-8" standalone="no"?>
<!DOCTYPE svg PUBLIC "-//W3C//DTD SVG 1.1//EN"
  "http://www.w3.org/Graphics/SVG/1.1/DTD/svg11.dtd">
<svg xmlns:xlink="http://www.w3.org/1999/xlink" width="408.104375pt" height="325.7745pt" viewBox="0 0 408.104375 325.7745" xmlns="http://www.w3.org/2000/svg" version="1.1">
 <metadata>
  <rdf:RDF xmlns:dc="http://purl.org/dc/elements/1.1/" xmlns:cc="http://creativecommons.org/ns#" xmlns:rdf="http://www.w3.org/1999/02/22-rdf-syntax-ns#">
   <cc:Work>
    <dc:type rdf:resource="http://purl.org/dc/dcmitype/StillImage"/>
    <dc:date>2024-07-12T12:30:07.299070</dc:date>
    <dc:format>image/svg+xml</dc:format>
    <dc:creator>
     <cc:Agent>
      <dc:title>Matplotlib v3.5.3, https://matplotlib.org/</dc:title>
     </cc:Agent>
    </dc:creator>
   </cc:Work>
  </rdf:RDF>
 </metadata>
 <defs>
  <style type="text/css">*{stroke-linejoin: round; stroke-linecap: butt}</style>
 </defs>
 <g id="figure_1">
  <g id="patch_1">
   <path d="M 0 325.7745 
L 408.104375 325.7745 
L 408.104375 0 
L 0 0 
z
" style="fill: #ffffff"/>
  </g>
  <g id="axes_1">
   <g id="patch_2">
    <path d="M 34.240625 288.21825 
L 391.360625 288.21825 
L 391.360625 22.10625 
L 34.240625 22.10625 
z
" style="fill: #ffffff"/>
   </g>
   <g id="matplotlib.axis_1">
    <g id="xtick_1">
     <g id="line2d_1">
      <defs>
       <path id="m27db28ea85" d="M 0 0 
L 0 3.5 
" style="stroke: #000000; stroke-width: 0.8"/>
      </defs>
      <g>
       <use xlink:href="#m27db28ea85" x="34.240625" y="288.21825" style="stroke: #000000; stroke-width: 0.8"/>
      </g>
     </g>
     <g id="text_1">
      <!-- 0 -->
      <g transform="translate(31.059375 302.816687)scale(0.1 -0.1)">
       <defs>
        <path id="DejaVuSans-30" d="M 2034 4250 
Q 1547 4250 1301 3770 
Q 1056 3291 1056 2328 
Q 1056 1369 1301 889 
Q 1547 409 2034 409 
Q 2525 409 2770 889 
Q 3016 1369 3016 2328 
Q 3016 3291 2770 3770 
Q 2525 4250 2034 4250 
z
M 2034 4750 
Q 2819 4750 3233 4129 
Q 3647 3509 3647 2328 
Q 3647 1150 3233 529 
Q 2819 -91 2034 -91 
Q 1250 -91 836 529 
Q 422 1150 422 2328 
Q 422 3509 836 4129 
Q 1250 4750 2034 4750 
z
" transform="scale(0.015625)"/>
       </defs>
       <use xlink:href="#DejaVuSans-30"/>
      </g>
     </g>
    </g>
    <g id="xtick_2">
     <g id="line2d_2">
      <g>
       <use xlink:href="#m27db28ea85" x="105.664625" y="288.21825" style="stroke: #000000; stroke-width: 0.8"/>
      </g>
     </g>
     <g id="text_2">
      <!-- 20 -->
      <g transform="translate(99.302125 302.816687)scale(0.1 -0.1)">
       <defs>
        <path id="DejaVuSans-32" d="M 1228 531 
L 3431 531 
L 3431 0 
L 469 0 
L 469 531 
Q 828 903 1448 1529 
Q 2069 2156 2228 2338 
Q 2531 2678 2651 2914 
Q 2772 3150 2772 3378 
Q 2772 3750 2511 3984 
Q 2250 4219 1831 4219 
Q 1534 4219 1204 4116 
Q 875 4013 500 3803 
L 500 4441 
Q 881 4594 1212 4672 
Q 1544 4750 1819 4750 
Q 2544 4750 2975 4387 
Q 3406 4025 3406 3419 
Q 3406 3131 3298 2873 
Q 3191 2616 2906 2266 
Q 2828 2175 2409 1742 
Q 1991 1309 1228 531 
z
" transform="scale(0.015625)"/>
       </defs>
       <use xlink:href="#DejaVuSans-32"/>
       <use xlink:href="#DejaVuSans-30" x="63.623047"/>
      </g>
     </g>
    </g>
    <g id="xtick_3">
     <g id="line2d_3">
      <g>
       <use xlink:href="#m27db28ea85" x="177.088625" y="288.21825" style="stroke: #000000; stroke-width: 0.8"/>
      </g>
     </g>
     <g id="text_3">
      <!-- 40 -->
      <g transform="translate(170.726125 302.816687)scale(0.1 -0.1)">
       <defs>
        <path id="DejaVuSans-34" d="M 2419 4116 
L 825 1625 
L 2419 1625 
L 2419 4116 
z
M 2253 4666 
L 3047 4666 
L 3047 1625 
L 3713 1625 
L 3713 1100 
L 3047 1100 
L 3047 0 
L 2419 0 
L 2419 1100 
L 313 1100 
L 313 1709 
L 2253 4666 
z
" transform="scale(0.015625)"/>
       </defs>
       <use xlink:href="#DejaVuSans-34"/>
       <use xlink:href="#DejaVuSans-30" x="63.623047"/>
      </g>
     </g>
    </g>
    <g id="xtick_4">
     <g id="line2d_4">
      <g>
       <use xlink:href="#m27db28ea85" x="248.512625" y="288.21825" style="stroke: #000000; stroke-width: 0.8"/>
      </g>
     </g>
     <g id="text_4">
      <!-- 60 -->
      <g transform="translate(242.150125 302.816687)scale(0.1 -0.1)">
       <defs>
        <path id="DejaVuSans-36" d="M 2113 2584 
Q 1688 2584 1439 2293 
Q 1191 2003 1191 1497 
Q 1191 994 1439 701 
Q 1688 409 2113 409 
Q 2538 409 2786 701 
Q 3034 994 3034 1497 
Q 3034 2003 2786 2293 
Q 2538 2584 2113 2584 
z
M 3366 4563 
L 3366 3988 
Q 3128 4100 2886 4159 
Q 2644 4219 2406 4219 
Q 1781 4219 1451 3797 
Q 1122 3375 1075 2522 
Q 1259 2794 1537 2939 
Q 1816 3084 2150 3084 
Q 2853 3084 3261 2657 
Q 3669 2231 3669 1497 
Q 3669 778 3244 343 
Q 2819 -91 2113 -91 
Q 1303 -91 875 529 
Q 447 1150 447 2328 
Q 447 3434 972 4092 
Q 1497 4750 2381 4750 
Q 2619 4750 2861 4703 
Q 3103 4656 3366 4563 
z
" transform="scale(0.015625)"/>
       </defs>
       <use xlink:href="#DejaVuSans-36"/>
       <use xlink:href="#DejaVuSans-30" x="63.623047"/>
      </g>
     </g>
    </g>
    <g id="xtick_5">
     <g id="line2d_5">
      <g>
       <use xlink:href="#m27db28ea85" x="319.936625" y="288.21825" style="stroke: #000000; stroke-width: 0.8"/>
      </g>
     </g>
     <g id="text_5">
      <!-- 80 -->
      <g transform="translate(313.574125 302.816687)scale(0.1 -0.1)">
       <defs>
        <path id="DejaVuSans-38" d="M 2034 2216 
Q 1584 2216 1326 1975 
Q 1069 1734 1069 1313 
Q 1069 891 1326 650 
Q 1584 409 2034 409 
Q 2484 409 2743 651 
Q 3003 894 3003 1313 
Q 3003 1734 2745 1975 
Q 2488 2216 2034 2216 
z
M 1403 2484 
Q 997 2584 770 2862 
Q 544 3141 544 3541 
Q 544 4100 942 4425 
Q 1341 4750 2034 4750 
Q 2731 4750 3128 4425 
Q 3525 4100 3525 3541 
Q 3525 3141 3298 2862 
Q 3072 2584 2669 2484 
Q 3125 2378 3379 2068 
Q 3634 1759 3634 1313 
Q 3634 634 3220 271 
Q 2806 -91 2034 -91 
Q 1263 -91 848 271 
Q 434 634 434 1313 
Q 434 1759 690 2068 
Q 947 2378 1403 2484 
z
M 1172 3481 
Q 1172 3119 1398 2916 
Q 1625 2713 2034 2713 
Q 2441 2713 2670 2916 
Q 2900 3119 2900 3481 
Q 2900 3844 2670 4047 
Q 2441 4250 2034 4250 
Q 1625 4250 1398 4047 
Q 1172 3844 1172 3481 
z
" transform="scale(0.015625)"/>
       </defs>
       <use xlink:href="#DejaVuSans-38"/>
       <use xlink:href="#DejaVuSans-30" x="63.623047"/>
      </g>
     </g>
    </g>
    <g id="xtick_6">
     <g id="line2d_6">
      <g>
       <use xlink:href="#m27db28ea85" x="391.360625" y="288.21825" style="stroke: #000000; stroke-width: 0.8"/>
      </g>
     </g>
     <g id="text_6">
      <!-- 100 -->
      <g transform="translate(381.816875 302.816687)scale(0.1 -0.1)">
       <defs>
        <path id="DejaVuSans-31" d="M 794 531 
L 1825 531 
L 1825 4091 
L 703 3866 
L 703 4441 
L 1819 4666 
L 2450 4666 
L 2450 531 
L 3481 531 
L 3481 0 
L 794 0 
L 794 531 
z
" transform="scale(0.015625)"/>
       </defs>
       <use xlink:href="#DejaVuSans-31"/>
       <use xlink:href="#DejaVuSans-30" x="63.623047"/>
       <use xlink:href="#DejaVuSans-30" x="127.246094"/>
      </g>
     </g>
    </g>
    <g id="text_7">
     <!-- axialRotation -->
     <g transform="translate(180.024844 316.494812)scale(0.1 -0.1)">
      <defs>
       <path id="DejaVuSans-61" d="M 2194 1759 
Q 1497 1759 1228 1600 
Q 959 1441 959 1056 
Q 959 750 1161 570 
Q 1363 391 1709 391 
Q 2188 391 2477 730 
Q 2766 1069 2766 1631 
L 2766 1759 
L 2194 1759 
z
M 3341 1997 
L 3341 0 
L 2766 0 
L 2766 531 
Q 2569 213 2275 61 
Q 1981 -91 1556 -91 
Q 1019 -91 701 211 
Q 384 513 384 1019 
Q 384 1609 779 1909 
Q 1175 2209 1959 2209 
L 2766 2209 
L 2766 2266 
Q 2766 2663 2505 2880 
Q 2244 3097 1772 3097 
Q 1472 3097 1187 3025 
Q 903 2953 641 2809 
L 641 3341 
Q 956 3463 1253 3523 
Q 1550 3584 1831 3584 
Q 2591 3584 2966 3190 
Q 3341 2797 3341 1997 
z
" transform="scale(0.015625)"/>
       <path id="DejaVuSans-78" d="M 3513 3500 
L 2247 1797 
L 3578 0 
L 2900 0 
L 1881 1375 
L 863 0 
L 184 0 
L 1544 1831 
L 300 3500 
L 978 3500 
L 1906 2253 
L 2834 3500 
L 3513 3500 
z
" transform="scale(0.015625)"/>
       <path id="DejaVuSans-69" d="M 603 3500 
L 1178 3500 
L 1178 0 
L 603 0 
L 603 3500 
z
M 603 4863 
L 1178 4863 
L 1178 4134 
L 603 4134 
L 603 4863 
z
" transform="scale(0.015625)"/>
       <path id="DejaVuSans-6c" d="M 603 4863 
L 1178 4863 
L 1178 0 
L 603 0 
L 603 4863 
z
" transform="scale(0.015625)"/>
       <path id="DejaVuSans-52" d="M 2841 2188 
Q 3044 2119 3236 1894 
Q 3428 1669 3622 1275 
L 4263 0 
L 3584 0 
L 2988 1197 
Q 2756 1666 2539 1819 
Q 2322 1972 1947 1972 
L 1259 1972 
L 1259 0 
L 628 0 
L 628 4666 
L 2053 4666 
Q 2853 4666 3247 4331 
Q 3641 3997 3641 3322 
Q 3641 2881 3436 2590 
Q 3231 2300 2841 2188 
z
M 1259 4147 
L 1259 2491 
L 2053 2491 
Q 2509 2491 2742 2702 
Q 2975 2913 2975 3322 
Q 2975 3731 2742 3939 
Q 2509 4147 2053 4147 
L 1259 4147 
z
" transform="scale(0.015625)"/>
       <path id="DejaVuSans-6f" d="M 1959 3097 
Q 1497 3097 1228 2736 
Q 959 2375 959 1747 
Q 959 1119 1226 758 
Q 1494 397 1959 397 
Q 2419 397 2687 759 
Q 2956 1122 2956 1747 
Q 2956 2369 2687 2733 
Q 2419 3097 1959 3097 
z
M 1959 3584 
Q 2709 3584 3137 3096 
Q 3566 2609 3566 1747 
Q 3566 888 3137 398 
Q 2709 -91 1959 -91 
Q 1206 -91 779 398 
Q 353 888 353 1747 
Q 353 2609 779 3096 
Q 1206 3584 1959 3584 
z
" transform="scale(0.015625)"/>
       <path id="DejaVuSans-74" d="M 1172 4494 
L 1172 3500 
L 2356 3500 
L 2356 3053 
L 1172 3053 
L 1172 1153 
Q 1172 725 1289 603 
Q 1406 481 1766 481 
L 2356 481 
L 2356 0 
L 1766 0 
Q 1100 0 847 248 
Q 594 497 594 1153 
L 594 3053 
L 172 3053 
L 172 3500 
L 594 3500 
L 594 4494 
L 1172 4494 
z
" transform="scale(0.015625)"/>
       <path id="DejaVuSans-6e" d="M 3513 2113 
L 3513 0 
L 2938 0 
L 2938 2094 
Q 2938 2591 2744 2837 
Q 2550 3084 2163 3084 
Q 1697 3084 1428 2787 
Q 1159 2491 1159 1978 
L 1159 0 
L 581 0 
L 581 3500 
L 1159 3500 
L 1159 2956 
Q 1366 3272 1645 3428 
Q 1925 3584 2291 3584 
Q 2894 3584 3203 3211 
Q 3513 2838 3513 2113 
z
" transform="scale(0.015625)"/>
      </defs>
      <use xlink:href="#DejaVuSans-61"/>
      <use xlink:href="#DejaVuSans-78" x="61.279297"/>
      <use xlink:href="#DejaVuSans-69" x="120.458984"/>
      <use xlink:href="#DejaVuSans-61" x="148.242188"/>
      <use xlink:href="#DejaVuSans-6c" x="209.521484"/>
      <use xlink:href="#DejaVuSans-52" x="237.304688"/>
      <use xlink:href="#DejaVuSans-6f" x="302.287109"/>
      <use xlink:href="#DejaVuSans-74" x="363.46875"/>
      <use xlink:href="#DejaVuSans-61" x="402.677734"/>
      <use xlink:href="#DejaVuSans-74" x="463.957031"/>
      <use xlink:href="#DejaVuSans-69" x="503.166016"/>
      <use xlink:href="#DejaVuSans-6f" x="530.949219"/>
      <use xlink:href="#DejaVuSans-6e" x="592.130859"/>
     </g>
    </g>
   </g>
   <g id="matplotlib.axis_2">
    <g id="ytick_1">
     <g id="line2d_7">
      <defs>
       <path id="mb13fc16212" d="M 0 0 
L -3.5 0 
" style="stroke: #000000; stroke-width: 0.8"/>
      </defs>
      <g>
       <use xlink:href="#mb13fc16212" x="34.240625" y="288.21825" style="stroke: #000000; stroke-width: 0.8"/>
      </g>
     </g>
     <g id="text_8">
      <!-- 0 -->
      <g transform="translate(20.878125 292.017469)scale(0.1 -0.1)">
       <use xlink:href="#DejaVuSans-30"/>
      </g>
     </g>
    </g>
    <g id="ytick_2">
     <g id="line2d_8">
      <g>
       <use xlink:href="#mb13fc16212" x="34.240625" y="243.86625" style="stroke: #000000; stroke-width: 0.8"/>
      </g>
     </g>
     <g id="text_9">
      <!-- 1 -->
      <g transform="translate(20.878125 247.665469)scale(0.1 -0.1)">
       <use xlink:href="#DejaVuSans-31"/>
      </g>
     </g>
    </g>
    <g id="ytick_3">
     <g id="line2d_9">
      <g>
       <use xlink:href="#mb13fc16212" x="34.240625" y="199.51425" style="stroke: #000000; stroke-width: 0.8"/>
      </g>
     </g>
     <g id="text_10">
      <!-- 2 -->
      <g transform="translate(20.878125 203.313469)scale(0.1 -0.1)">
       <use xlink:href="#DejaVuSans-32"/>
      </g>
     </g>
    </g>
    <g id="ytick_4">
     <g id="line2d_10">
      <g>
       <use xlink:href="#mb13fc16212" x="34.240625" y="155.16225" style="stroke: #000000; stroke-width: 0.8"/>
      </g>
     </g>
     <g id="text_11">
      <!-- 3 -->
      <g transform="translate(20.878125 158.961469)scale(0.1 -0.1)">
       <defs>
        <path id="DejaVuSans-33" d="M 2597 2516 
Q 3050 2419 3304 2112 
Q 3559 1806 3559 1356 
Q 3559 666 3084 287 
Q 2609 -91 1734 -91 
Q 1441 -91 1130 -33 
Q 819 25 488 141 
L 488 750 
Q 750 597 1062 519 
Q 1375 441 1716 441 
Q 2309 441 2620 675 
Q 2931 909 2931 1356 
Q 2931 1769 2642 2001 
Q 2353 2234 1838 2234 
L 1294 2234 
L 1294 2753 
L 1863 2753 
Q 2328 2753 2575 2939 
Q 2822 3125 2822 3475 
Q 2822 3834 2567 4026 
Q 2313 4219 1838 4219 
Q 1578 4219 1281 4162 
Q 984 4106 628 3988 
L 628 4550 
Q 988 4650 1302 4700 
Q 1616 4750 1894 4750 
Q 2613 4750 3031 4423 
Q 3450 4097 3450 3541 
Q 3450 3153 3228 2886 
Q 3006 2619 2597 2516 
z
" transform="scale(0.015625)"/>
       </defs>
       <use xlink:href="#DejaVuSans-33"/>
      </g>
     </g>
    </g>
    <g id="ytick_5">
     <g id="line2d_11">
      <g>
       <use xlink:href="#mb13fc16212" x="34.240625" y="110.81025" style="stroke: #000000; stroke-width: 0.8"/>
      </g>
     </g>
     <g id="text_12">
      <!-- 4 -->
      <g transform="translate(20.878125 114.609469)scale(0.1 -0.1)">
       <use xlink:href="#DejaVuSans-34"/>
      </g>
     </g>
    </g>
    <g id="ytick_6">
     <g id="line2d_12">
      <g>
       <use xlink:href="#mb13fc16212" x="34.240625" y="66.45825" style="stroke: #000000; stroke-width: 0.8"/>
      </g>
     </g>
     <g id="text_13">
      <!-- 5 -->
      <g transform="translate(20.878125 70.257469)scale(0.1 -0.1)">
       <defs>
        <path id="DejaVuSans-35" d="M 691 4666 
L 3169 4666 
L 3169 4134 
L 1269 4134 
L 1269 2991 
Q 1406 3038 1543 3061 
Q 1681 3084 1819 3084 
Q 2600 3084 3056 2656 
Q 3513 2228 3513 1497 
Q 3513 744 3044 326 
Q 2575 -91 1722 -91 
Q 1428 -91 1123 -41 
Q 819 9 494 109 
L 494 744 
Q 775 591 1075 516 
Q 1375 441 1709 441 
Q 2250 441 2565 725 
Q 2881 1009 2881 1497 
Q 2881 1984 2565 2268 
Q 2250 2553 1709 2553 
Q 1456 2553 1204 2497 
Q 953 2441 691 2322 
L 691 4666 
z
" transform="scale(0.015625)"/>
       </defs>
       <use xlink:href="#DejaVuSans-35"/>
      </g>
     </g>
    </g>
    <g id="ytick_7">
     <g id="line2d_13">
      <g>
       <use xlink:href="#mb13fc16212" x="34.240625" y="22.10625" style="stroke: #000000; stroke-width: 0.8"/>
      </g>
     </g>
     <g id="text_14">
      <!-- 6 -->
      <g transform="translate(20.878125 25.905469)scale(0.1 -0.1)">
       <use xlink:href="#DejaVuSans-36"/>
      </g>
     </g>
    </g>
    <g id="text_15">
     <!-- zShift -->
     <g transform="translate(14.798438 169.151312)rotate(-90)scale(0.1 -0.1)">
      <defs>
       <path id="DejaVuSans-7a" d="M 353 3500 
L 3084 3500 
L 3084 2975 
L 922 459 
L 3084 459 
L 3084 0 
L 275 0 
L 275 525 
L 2438 3041 
L 353 3041 
L 353 3500 
z
" transform="scale(0.015625)"/>
       <path id="DejaVuSans-53" d="M 3425 4513 
L 3425 3897 
Q 3066 4069 2747 4153 
Q 2428 4238 2131 4238 
Q 1616 4238 1336 4038 
Q 1056 3838 1056 3469 
Q 1056 3159 1242 3001 
Q 1428 2844 1947 2747 
L 2328 2669 
Q 3034 2534 3370 2195 
Q 3706 1856 3706 1288 
Q 3706 609 3251 259 
Q 2797 -91 1919 -91 
Q 1588 -91 1214 -16 
Q 841 59 441 206 
L 441 856 
Q 825 641 1194 531 
Q 1563 422 1919 422 
Q 2459 422 2753 634 
Q 3047 847 3047 1241 
Q 3047 1584 2836 1778 
Q 2625 1972 2144 2069 
L 1759 2144 
Q 1053 2284 737 2584 
Q 422 2884 422 3419 
Q 422 4038 858 4394 
Q 1294 4750 2059 4750 
Q 2388 4750 2728 4690 
Q 3069 4631 3425 4513 
z
" transform="scale(0.015625)"/>
       <path id="DejaVuSans-68" d="M 3513 2113 
L 3513 0 
L 2938 0 
L 2938 2094 
Q 2938 2591 2744 2837 
Q 2550 3084 2163 3084 
Q 1697 3084 1428 2787 
Q 1159 2491 1159 1978 
L 1159 0 
L 581 0 
L 581 4863 
L 1159 4863 
L 1159 2956 
Q 1366 3272 1645 3428 
Q 1925 3584 2291 3584 
Q 2894 3584 3203 3211 
Q 3513 2838 3513 2113 
z
" transform="scale(0.015625)"/>
       <path id="DejaVuSans-66" d="M 2375 4863 
L 2375 4384 
L 1825 4384 
Q 1516 4384 1395 4259 
Q 1275 4134 1275 3809 
L 1275 3500 
L 2222 3500 
L 2222 3053 
L 1275 3053 
L 1275 0 
L 697 0 
L 697 3053 
L 147 3053 
L 147 3500 
L 697 3500 
L 697 3744 
Q 697 4328 969 4595 
Q 1241 4863 1831 4863 
L 2375 4863 
z
" transform="scale(0.015625)"/>
      </defs>
      <use xlink:href="#DejaVuSans-7a"/>
      <use xlink:href="#DejaVuSans-53" x="52.490234"/>
      <use xlink:href="#DejaVuSans-68" x="115.966797"/>
      <use xlink:href="#DejaVuSans-69" x="179.345703"/>
      <use xlink:href="#DejaVuSans-66" x="207.128906"/>
      <use xlink:href="#DejaVuSans-74" x="240.583984"/>
     </g>
    </g>
   </g>
   <g id="PathCollection_1"/>
   <g id="PathCollection_2">
    <path d="M 129.394378 288.21825 
L 129.420595 285.55713 
L 129.561816 282.89601 
L 129.829249 280.23489 
L 130.243846 277.57377 
L 130.838799 274.91265 
L 131.162993 273.78481 
L 131.600505 272.25153 
L 132.582646 269.59041 
L 132.948593 268.763713 
L 133.845803 266.92929 
L 134.734193 265.365356 
L 135.784047 263.82465 
L 136.519793 262.79733 
L 137.843138 261.16353 
L 138.341105 260.528474 
L 139.882748 258.50241 
L 140.126705 258.139617 
L 141.354259 255.84129 
L 141.912305 254.551673 
L 142.33383 253.18017 
L 142.956241 250.51905 
L 143.415078 247.85793 
L 143.697905 245.589687 
L 143.732488 245.19681 
L 143.899064 242.53569 
L 144.013712 239.87457 
L 144.090884 237.21345 
L 144.141622 234.55233 
L 144.174166 231.89121 
L 144.194508 229.23009 
L 144.206894 226.56897 
L 144.214247 223.90785 
L 144.219023 220.80321 
L 144.221241 218.14209 
L 144.222489 215.48097 
L 144.223178 212.81985 
L 144.223537 210.15873 
L 144.223696 207.49761 
L 144.223743 204.83649 
L 144.223741 202.17537 
L 144.223734 199.51425 
L 144.223749 196.85313 
L 144.223788 194.19201 
L 144.223834 191.53089 
L 144.223866 188.86977 
L 144.223865 186.20865 
L 144.223834 183.54753 
L 144.22379 180.88641 
L 144.223755 178.22529 
L 144.223753 175.12065 
L 144.223784 172.45953 
L 144.223829 169.79841 
L 144.223863 167.13729 
L 144.223868 164.47617 
L 144.223841 161.81505 
L 144.223797 159.15393 
L 144.223759 156.49281 
L 144.223749 153.83169 
L 144.223771 151.17057 
L 144.223814 148.50945 
L 144.223854 145.84833 
L 144.22387 143.18721 
L 144.223853 140.52609 
L 144.223812 137.86497 
L 144.22377 135.20385 
L 144.223748 132.09921 
L 144.223765 129.43809 
L 144.223806 126.77697 
L 144.223848 124.11585 
L 144.22387 121.45473 
L 144.223858 118.79361 
L 144.22382 116.13249 
L 144.223776 113.47137 
L 144.22375 110.81025 
L 144.223756 108.14913 
L 144.223791 105.48801 
L 144.223836 102.82689 
L 144.223866 100.16577 
L 144.223866 97.50465 
L 144.223835 94.84353 
L 144.22379 92.18241 
L 144.223757 89.52129 
L 144.223757 86.41665 
L 144.223793 83.75553 
L 144.223849 81.09441 
L 144.223905 78.43329 
L 144.223953 75.77217 
L 144.224011 73.11105 
L 144.224126 70.44993 
L 144.224382 67.78881 
L 144.224899 65.12769 
L 144.225844 62.46657 
L 144.227465 59.80545 
L 144.230131 57.14433 
L 144.234412 54.48321 
L 144.241149 51.82209 
L 144.251546 49.16097 
L 144.267255 46.49985 
L 144.29525 43.39521 
L 144.330825 40.73409 
L 144.380961 38.07297 
L 144.450275 35.41185 
L 144.544498 32.75073 
L 144.670748 30.08961 
L 144.837914 27.42849 
L 145.057206 24.76737 
L 145.342949 22.10625 
" clip-path="url(#p09f57cfea9)" style="fill: none; stroke: #deebf7; stroke-width: 1.5"/>
    <path d="M 296.206872 22.10625 
L 296.180655 24.76737 
L 296.039434 27.42849 
L 295.772001 30.08961 
L 295.357404 32.75073 
L 294.762451 35.41185 
L 294.438257 36.53969 
L 294.000745 38.07297 
L 293.018604 40.73409 
L 292.652657 41.560787 
L 291.755447 43.39521 
L 290.867057 44.959144 
L 289.817203 46.49985 
L 289.081457 47.52717 
L 287.758112 49.16097 
L 287.260145 49.796026 
L 285.718502 51.82209 
L 285.474545 52.184883 
L 284.246991 54.48321 
L 283.688945 55.772827 
L 283.26742 57.14433 
L 282.645009 59.80545 
L 282.186172 62.46657 
L 281.903345 64.734813 
L 281.868762 65.12769 
L 281.702186 67.78881 
L 281.587538 70.44993 
L 281.510366 73.11105 
L 281.459628 75.77217 
L 281.427084 78.43329 
L 281.406742 81.09441 
L 281.394356 83.75553 
L 281.387003 86.41665 
L 281.382227 89.52129 
L 281.380009 92.18241 
L 281.378761 94.84353 
L 281.378072 97.50465 
L 281.377713 100.16577 
L 281.377554 102.82689 
L 281.377507 105.48801 
L 281.377509 108.14913 
L 281.377516 110.81025 
L 281.377501 113.47137 
L 281.377462 116.13249 
L 281.377416 118.79361 
L 281.377385 121.45473 
L 281.377386 124.11585 
L 281.377418 126.77697 
L 281.377466 129.43809 
L 281.377508 132.09921 
L 281.377531 135.20385 
L 281.37754 137.86497 
L 281.377578 140.52609 
L 281.37771 143.18721 
L 281.378033 145.84833 
L 281.378688 148.50945 
L 281.37991 151.17057 
L 281.382098 153.83169 
L 281.385933 156.49281 
L 281.392546 159.15393 
L 281.403725 161.81505 
L 281.422188 164.47617 
L 281.451929 167.13729 
L 281.498626 169.79841 
L 281.570139 172.45953 
L 281.677063 175.12065 
L 281.865391 178.22529 
L 281.903345 178.655328 
L 282.179559 180.88641 
L 282.634696 183.54753 
L 283.250777 186.20865 
L 283.688945 187.644712 
L 284.202434 188.86977 
L 285.474545 191.326542 
L 285.605011 191.53089 
L 287.260145 193.799614 
L 287.55531 194.19201 
L 289.081457 196.117549 
L 289.605572 196.85313 
L 290.867057 198.66675 
L 291.380182 199.51425 
L 292.652657 201.842936 
L 292.817281 202.17537 
L 294.002351 204.83649 
L 294.438257 206.015464 
L 294.980167 207.49761 
L 295.780566 210.15873 
L 296.259569 212.170789 
L 296.428464 212.81985 
L 297.018349 215.48097 
L 297.475052 218.14209 
L 297.829575 220.80321 
L 298.045169 222.876103 
L 298.176389 223.90785 
L 298.446542 226.56897 
L 298.654345 229.23009 
L 298.812963 231.89121 
L 298.932791 234.55233 
L 299.022132 237.21345 
L 299.08767 239.87457 
L 299.134792 242.53569 
L 299.167807 245.19681 
L 299.190097 247.85793 
L 299.204215 250.51905 
L 299.211951 253.18017 
L 299.21436 255.84129 
L 299.211784 258.50241 
L 299.203853 261.16353 
L 299.18948 263.82465 
L 299.162088 266.92929 
L 299.126444 269.59041 
L 299.0758 272.25153 
L 299.005558 274.91265 
L 298.909954 277.57377 
L 298.781792 280.23489 
L 298.612066 282.89601 
L 298.389407 285.55713 
L 298.099281 288.21825 
" clip-path="url(#p09f57cfea9)" style="fill: none; stroke: #deebf7; stroke-width: 1.5"/>
   </g>
   <g id="PathCollection_3">
    <path d="M 133.616428 288.21825 
L 133.672117 285.55713 
L 133.917629 282.89601 
L 134.37085 280.23489 
L 134.734193 278.788655 
L 135.073794 277.57377 
L 136.078564 274.91265 
L 136.519793 273.979149 
L 137.517257 272.25153 
L 138.341105 271.016001 
L 139.502224 269.59041 
L 140.126705 268.850497 
L 141.832518 266.92929 
L 141.912305 266.832818 
L 143.697905 264.222998 
L 143.893644 263.82465 
L 144.969898 261.16353 
L 145.519217 259.424901 
L 145.728706 258.50241 
L 146.204379 255.84129 
L 146.561576 253.18017 
L 146.826238 250.51905 
L 147.01928 247.85793 
L 147.157613 245.19681 
L 147.254834 242.53569 
L 147.304817 240.551328 
L 147.318626 239.87457 
L 147.355382 237.21345 
L 147.379555 234.55233 
L 147.395042 231.89121 
L 147.404694 229.23009 
L 147.410542 226.56897 
L 147.413996 223.90785 
L 147.416244 220.80321 
L 147.417307 218.14209 
L 147.417929 215.48097 
L 147.418285 212.81985 
L 147.418468 210.15873 
L 147.418531 207.49761 
L 147.418522 204.83649 
L 147.418488 202.17537 
L 147.418467 199.51425 
L 147.418481 196.85313 
L 147.418528 194.19201 
L 147.418584 191.53089 
L 147.41862 188.86977 
L 147.418617 186.20865 
L 147.418576 183.54753 
L 147.418521 180.88641 
L 147.41848 178.22529 
L 147.41848 175.12065 
L 147.418521 172.45953 
L 147.418576 169.79841 
L 147.418617 167.13729 
L 147.41862 164.47617 
L 147.418585 161.81505 
L 147.41853 159.15393 
L 147.418485 156.49281 
L 147.418474 153.83169 
L 147.418504 151.17057 
L 147.418558 148.50945 
L 147.418607 145.84833 
L 147.418624 143.18721 
L 147.4186 140.52609 
L 147.418549 137.86497 
L 147.418497 135.20385 
L 147.418473 132.09921 
L 147.418497 129.43809 
L 147.418548 126.77697 
L 147.4186 124.11585 
L 147.418624 121.45473 
L 147.418607 118.79361 
L 147.418558 116.13249 
L 147.418504 113.47137 
L 147.418474 110.81025 
L 147.418485 108.14913 
L 147.41853 105.48801 
L 147.418585 102.82689 
L 147.41862 100.16577 
L 147.418617 97.50465 
L 147.418577 94.84353 
L 147.418522 92.18241 
L 147.418482 89.52129 
L 147.418486 86.41665 
L 147.418533 83.75553 
L 147.418602 81.09441 
L 147.418671 78.43329 
L 147.418731 75.77217 
L 147.418805 73.11105 
L 147.418956 70.44993 
L 147.419289 67.78881 
L 147.419957 65.12769 
L 147.421173 62.46657 
L 147.42325 59.80545 
L 147.426662 57.14433 
L 147.432132 54.48321 
L 147.44073 51.82209 
L 147.453982 49.16097 
L 147.47398 46.49985 
L 147.509564 43.39521 
L 147.554724 40.73409 
L 147.6183 38.07297 
L 147.70612 35.41185 
L 147.825424 32.75073 
L 147.985218 30.08961 
L 148.196768 27.42849 
L 148.474309 24.76737 
L 148.836067 22.10625 
" clip-path="url(#p09f57cfea9)" style="fill: none; stroke: #c6dbef; stroke-width: 1.5"/>
    <path d="M 291.984822 22.10625 
L 291.929133 24.76737 
L 291.683621 27.42849 
L 291.2304 30.08961 
L 290.867057 31.535845 
L 290.527456 32.75073 
L 289.522686 35.41185 
L 289.081457 36.345351 
L 288.083993 38.07297 
L 287.260145 39.308499 
L 286.099026 40.73409 
L 285.474545 41.474003 
L 283.768732 43.39521 
L 283.688945 43.491682 
L 281.903345 46.101502 
L 281.707606 46.49985 
L 280.631352 49.16097 
L 280.082033 50.899599 
L 279.872544 51.82209 
L 279.396871 54.48321 
L 279.039674 57.14433 
L 278.775012 59.80545 
L 278.58197 62.46657 
L 278.443637 65.12769 
L 278.346416 67.78881 
L 278.296433 69.773172 
L 278.282624 70.44993 
L 278.245868 73.11105 
L 278.221695 75.77217 
L 278.206208 78.43329 
L 278.196556 81.09441 
L 278.190708 83.75553 
L 278.187254 86.41665 
L 278.185006 89.52129 
L 278.183943 92.18241 
L 278.183321 94.84353 
L 278.182965 97.50465 
L 278.182782 100.16577 
L 278.182719 102.82689 
L 278.182728 105.48801 
L 278.182762 108.14913 
L 278.182783 110.81025 
L 278.182769 113.47137 
L 278.182722 116.13249 
L 278.182666 118.79361 
L 278.18263 121.45473 
L 278.182634 124.11585 
L 278.182675 126.77697 
L 278.182732 129.43809 
L 278.182777 132.09921 
L 278.182788 135.20385 
L 278.182768 137.86497 
L 278.182755 140.52609 
L 278.1828 143.18721 
L 278.182966 145.84833 
L 278.183325 148.50945 
L 278.183986 151.17057 
L 278.185134 153.83169 
L 278.187104 156.49281 
L 278.190467 159.15393 
L 278.196143 161.81505 
L 278.205526 164.47617 
L 278.220654 167.13729 
L 278.244403 169.79841 
L 278.280736 172.45953 
L 278.296433 173.232362 
L 278.343654 175.12065 
L 278.460591 178.22529 
L 278.607707 180.88641 
L 278.813708 183.54753 
L 279.097543 186.20865 
L 279.483341 188.86977 
L 280.002219 191.53089 
L 280.082033 191.851213 
L 280.874267 194.19201 
L 281.903345 196.528746 
L 282.095354 196.85313 
L 283.688945 199.095854 
L 284.03709 199.51425 
L 285.474545 201.07084 
L 286.439424 202.17537 
L 287.260145 203.091202 
L 288.550934 204.83649 
L 289.081457 205.595267 
L 290.169154 207.49761 
L 290.867057 208.892221 
L 291.418036 210.15873 
L 292.388574 212.81985 
L 292.652657 213.683937 
L 293.177974 215.48097 
L 293.805883 218.14209 
L 294.295151 220.80321 
L 294.438257 221.771191 
L 294.773905 223.90785 
L 295.098428 226.56897 
L 295.348262 229.23009 
L 295.539048 231.89121 
L 295.683189 234.55233 
L 295.790628 237.21345 
L 295.869392 239.87457 
L 295.925962 242.53569 
L 295.96553 245.19681 
L 295.992166 247.85793 
L 296.008938 250.51905 
L 296.017978 253.18017 
L 296.020523 255.84129 
L 296.016933 258.50241 
L 296.006693 261.16353 
L 295.9884 263.82465 
L 295.953741 266.92929 
L 295.908767 269.59041 
L 295.844966 272.25153 
L 295.756572 274.91265 
L 295.636347 277.57377 
L 295.475252 280.23489 
L 295.26195 282.89601 
L 294.982103 285.55713 
L 294.617352 288.21825 
" clip-path="url(#p09f57cfea9)" style="fill: none; stroke: #c6dbef; stroke-width: 1.5"/>
   </g>
   <g id="PathCollection_4">
    <path d="M 137.706153 288.21825 
L 137.807064 285.55713 
L 138.236464 282.89601 
L 138.341105 282.522882 
L 139.179366 280.23489 
L 140.126705 278.398282 
L 140.691256 277.57377 
L 141.912305 276.062375 
L 142.929187 274.91265 
L 143.697905 274.06784 
L 144.998884 272.25153 
L 145.519217 271.453611 
L 146.341126 269.59041 
L 147.300789 266.92929 
L 147.304817 266.916129 
L 147.983651 263.82465 
L 148.436533 261.16353 
L 148.790459 258.50241 
L 149.063516 255.84129 
L 149.090417 255.505404 
L 149.247887 253.18017 
L 149.384073 250.51905 
L 149.484628 247.85793 
L 149.557342 245.19681 
L 149.608798 242.53569 
L 149.644401 239.87457 
L 149.668458 237.21345 
L 149.684302 234.55233 
L 149.694448 231.89121 
L 149.700747 229.23009 
L 149.704538 226.56897 
L 149.706764 223.90785 
L 149.70822 220.80321 
L 149.708933 218.14209 
L 149.709374 215.48097 
L 149.70964 212.81985 
L 149.709772 210.15873 
L 149.7098 207.49761 
L 149.70976 204.83649 
L 149.709702 202.17537 
L 149.709671 199.51425 
L 149.70969 196.85313 
L 149.709752 194.19201 
L 149.709825 191.53089 
L 149.70987 188.86977 
L 149.709863 186.20865 
L 149.709808 183.54753 
L 149.709734 180.88641 
L 149.709682 178.22529 
L 149.709685 175.12065 
L 149.709741 172.45953 
L 149.709814 169.79841 
L 149.709866 167.13729 
L 149.709868 164.47617 
L 149.709819 161.81505 
L 149.709746 159.15393 
L 149.709688 156.49281 
L 149.709677 153.83169 
L 149.709718 151.17057 
L 149.70979 148.50945 
L 149.709853 145.84833 
L 149.709873 143.18721 
L 149.70984 140.52609 
L 149.709771 137.86497 
L 149.709703 135.20385 
L 149.709675 132.09921 
L 149.709708 129.43809 
L 149.709778 126.77697 
L 149.709845 124.11585 
L 149.709874 121.45473 
L 149.709849 118.79361 
L 149.709783 116.13249 
L 149.709713 113.47137 
L 149.709676 110.81025 
L 149.709692 108.14913 
L 149.709753 105.48801 
L 149.709825 102.82689 
L 149.70987 100.16577 
L 149.709863 97.50465 
L 149.709808 94.84353 
L 149.709736 92.18241 
L 149.709686 89.52129 
L 149.709693 86.41665 
L 149.709758 83.75553 
L 149.70985 81.09441 
L 149.709941 78.43329 
L 149.71002 75.77217 
L 149.71012 73.11105 
L 149.710327 70.44993 
L 149.710784 67.78881 
L 149.711695 65.12769 
L 149.713348 62.46657 
L 149.716163 59.80545 
L 149.720781 57.14433 
L 149.728176 54.48321 
L 149.73979 51.82209 
L 149.757673 49.16097 
L 149.784628 46.49985 
L 149.832536 43.39521 
L 149.893266 40.73409 
L 149.978681 38.07297 
L 150.096571 35.41185 
L 150.256613 32.75073 
L 150.470854 30.08961 
L 150.75437 27.42849 
L 150.876017 26.528113 
L 151.116529 24.76737 
L 151.582947 22.10625 
" clip-path="url(#p09f57cfea9)" style="fill: none; stroke: #9dcae1; stroke-width: 1.5"/>
    <path d="M 287.895097 22.10625 
L 287.794186 24.76737 
L 287.364786 27.42849 
L 287.260145 27.801618 
L 286.421884 30.08961 
L 285.474545 31.926218 
L 284.909994 32.75073 
L 283.688945 34.262125 
L 282.672063 35.41185 
L 281.903345 36.25666 
L 280.602366 38.07297 
L 280.082033 38.870889 
L 279.260124 40.73409 
L 278.300461 43.39521 
L 278.296433 43.408371 
L 277.617599 46.49985 
L 277.164717 49.16097 
L 276.810791 51.82209 
L 276.537734 54.48321 
L 276.510833 54.819096 
L 276.353363 57.14433 
L 276.217177 59.80545 
L 276.116622 62.46657 
L 276.043908 65.12769 
L 275.992452 67.78881 
L 275.956849 70.44993 
L 275.932792 73.11105 
L 275.916948 75.77217 
L 275.906802 78.43329 
L 275.900503 81.09441 
L 275.896712 83.75553 
L 275.894486 86.41665 
L 275.89303 89.52129 
L 275.892317 92.18241 
L 275.891876 94.84353 
L 275.89161 97.50465 
L 275.891478 100.16577 
L 275.89145 102.82689 
L 275.89149 105.48801 
L 275.891548 108.14913 
L 275.891579 110.81025 
L 275.89156 113.47137 
L 275.891498 116.13249 
L 275.891425 118.79361 
L 275.89138 121.45473 
L 275.891388 124.11585 
L 275.891443 126.77697 
L 275.891518 129.43809 
L 275.891572 132.09921 
L 275.891577 135.20385 
L 275.891536 137.86497 
L 275.891492 140.52609 
L 275.8915 143.18721 
L 275.891616 145.84833 
L 275.891889 148.50945 
L 275.892382 151.17057 
L 275.893203 153.83169 
L 275.894567 156.49281 
L 275.896867 159.15393 
L 275.900744 161.81505 
L 275.907172 164.47617 
L 275.917559 167.13729 
L 275.933872 169.79841 
L 275.958793 172.45953 
L 275.99591 175.12065 
L 276.060983 178.22529 
L 276.142488 180.88641 
L 276.256033 183.54753 
L 276.411445 186.20865 
L 276.510833 187.488699 
L 276.636903 188.86977 
L 276.957611 191.53089 
L 277.383077 194.19201 
L 277.944606 196.85313 
L 278.296433 198.166969 
L 278.780906 199.51425 
L 280.015066 202.17537 
L 280.082033 202.294653 
L 281.903345 204.622966 
L 282.110736 204.83649 
L 283.688945 206.30531 
L 284.915674 207.49761 
L 285.474545 208.028965 
L 287.225216 210.15873 
L 287.260145 210.203716 
L 288.798912 212.81985 
L 289.081457 213.37181 
L 289.956458 215.48097 
L 290.847561 218.14209 
L 290.867057 218.210797 
L 291.528399 220.80321 
L 292.135971 223.90785 
L 292.532179 226.56897 
L 292.652657 227.590396 
L 292.848037 229.23009 
L 293.094284 231.89121 
L 293.280318 234.55233 
L 293.418941 237.21345 
L 293.520506 239.87457 
L 293.593386 242.53569 
L 293.64429 245.19681 
L 293.678476 247.85793 
L 293.699896 250.51905 
L 293.711284 253.18017 
L 293.7142 255.84129 
L 293.709054 258.50241 
L 293.695107 261.16353 
L 293.670455 263.82465 
L 293.623951 266.92929 
L 293.563739 269.59041 
L 293.478433 272.25153 
L 293.360357 274.91265 
L 293.199881 277.57377 
L 292.98497 280.23489 
L 292.700526 282.89601 
L 292.652657 283.252757 
L 292.34123 285.55713 
L 291.875003 288.21825 
" clip-path="url(#p09f57cfea9)" style="fill: none; stroke: #9dcae1; stroke-width: 1.5"/>
   </g>
   <g id="PathCollection_5">
    <path d="M 148.943578 288.21825 
L 147.850693 285.55713 
L 147.781132 282.89601 
L 148.152454 280.23489 
L 148.688054 277.57377 
L 149.090417 275.773433 
L 149.220695 274.91265 
L 149.657689 272.25153 
L 150.060856 269.59041 
L 150.416396 266.92929 
L 150.765451 263.82465 
L 150.876017 262.655015 
L 151.000939 261.16353 
L 151.187706 258.50241 
L 151.337338 255.84129 
L 151.454398 253.18017 
L 151.543843 250.51905 
L 151.6106 247.85793 
L 151.659273 245.19681 
L 151.693945 242.53569 
L 151.718069 239.87457 
L 151.734444 237.21345 
L 151.745259 234.55233 
L 151.752179 231.89121 
L 151.75645 229.23009 
L 151.758993 226.56897 
L 151.760472 223.90785 
L 151.761451 220.80321 
L 151.761959 218.14209 
L 151.762302 215.48097 
L 151.762521 212.81985 
L 151.762626 210.15873 
L 151.762627 207.49761 
L 151.762559 204.83649 
L 151.762479 202.17537 
L 151.762438 199.51425 
L 151.762463 196.85313 
L 151.762543 194.19201 
L 151.762636 191.53089 
L 151.762691 188.86977 
L 151.762679 186.20865 
L 151.762606 183.54753 
L 151.762513 180.88641 
L 151.762449 178.22529 
L 151.762456 175.12065 
L 151.762528 172.45953 
L 151.762622 169.79841 
L 151.762686 167.13729 
L 151.762686 164.47617 
L 151.762621 161.81505 
L 151.762527 159.15393 
L 151.762455 156.49281 
L 151.762444 153.83169 
L 151.7625 151.17057 
L 151.762592 148.50945 
L 151.762671 145.84833 
L 151.762694 143.18721 
L 151.762648 140.52609 
L 151.762559 137.86497 
L 151.762474 135.20385 
L 151.762441 132.09921 
L 151.762487 129.43809 
L 151.762576 126.77697 
L 151.762661 124.11585 
L 151.762695 121.45473 
L 151.76266 118.79361 
L 151.762575 116.13249 
L 151.762486 113.47137 
L 151.762441 110.81025 
L 151.762465 108.14913 
L 151.762544 105.48801 
L 151.762636 102.82689 
L 151.762691 100.16577 
L 151.762679 97.50465 
L 151.762607 94.84353 
L 151.762514 92.18241 
L 151.762453 89.52129 
L 151.762466 86.41665 
L 151.762551 83.75553 
L 151.762669 81.09441 
L 151.762784 78.43329 
L 151.762885 75.77217 
L 151.763016 73.11105 
L 151.76329 70.44993 
L 151.763892 67.78881 
L 151.765088 65.12769 
L 151.767249 62.46657 
L 151.770922 59.80545 
L 151.776941 57.14433 
L 151.786571 54.48321 
L 151.801683 51.82209 
L 151.824933 49.16097 
L 151.859947 46.49985 
L 151.922118 43.39521 
L 152.000861 40.73409 
L 152.111535 38.07297 
L 152.264202 35.41185 
L 152.471371 32.75073 
L 152.697329 30.569132 
L 152.75166 30.08961 
L 153.140549 27.42849 
L 153.651398 24.76737 
L 154.31838 22.10625 
" clip-path="url(#p09f57cfea9)" style="fill: none; stroke: #6aaed6; stroke-width: 1.5"/>
    <path d="M 276.657672 22.10625 
L 277.750557 24.76737 
L 277.820118 27.42849 
L 277.448796 30.08961 
L 276.913196 32.75073 
L 276.510833 34.551067 
L 276.380555 35.41185 
L 275.943561 38.07297 
L 275.540394 40.73409 
L 275.184854 43.39521 
L 274.835799 46.49985 
L 274.725233 47.669485 
L 274.600311 49.16097 
L 274.413544 51.82209 
L 274.263912 54.48321 
L 274.146852 57.14433 
L 274.057407 59.80545 
L 273.99065 62.46657 
L 273.941977 65.12769 
L 273.907305 67.78881 
L 273.883181 70.44993 
L 273.866806 73.11105 
L 273.855991 75.77217 
L 273.849071 78.43329 
L 273.8448 81.09441 
L 273.842257 83.75553 
L 273.840778 86.41665 
L 273.839799 89.52129 
L 273.839291 92.18241 
L 273.838948 94.84353 
L 273.838729 97.50465 
L 273.838624 100.16577 
L 273.838623 102.82689 
L 273.838691 105.48801 
L 273.838771 108.14913 
L 273.838812 110.81025 
L 273.838787 113.47137 
L 273.838707 116.13249 
L 273.838614 118.79361 
L 273.838559 121.45473 
L 273.838572 124.11585 
L 273.838644 126.77697 
L 273.838739 129.43809 
L 273.838805 132.09921 
L 273.838803 135.20385 
L 273.838741 137.86497 
L 273.838669 140.52609 
L 273.838648 143.18721 
L 273.838733 145.84833 
L 273.838959 148.50945 
L 273.839355 151.17057 
L 273.839975 153.83169 
L 273.840959 156.49281 
L 273.842583 159.15393 
L 273.845319 161.81505 
L 273.849885 164.47617 
L 273.857299 167.13729 
L 273.86896 169.79841 
L 273.886751 172.45953 
L 273.913176 175.12065 
L 273.959331 178.22529 
L 274.016913 180.88641 
L 274.096808 183.54753 
L 274.205631 186.20865 
L 274.351331 188.86977 
L 274.54338 191.53089 
L 274.725233 193.488054 
L 274.79746 194.19201 
L 275.142044 196.85313 
L 275.587839 199.51425 
L 276.162943 202.17537 
L 276.510833 203.484189 
L 276.988603 204.83649 
L 278.190441 207.49761 
L 278.296433 207.695291 
L 280.082033 209.893389 
L 280.387702 210.15873 
L 281.903345 211.349612 
L 283.688945 212.692324 
L 283.820755 212.81985 
L 285.474545 214.474012 
L 286.183861 215.48097 
L 287.260145 217.190532 
L 287.701117 218.14209 
L 288.739915 220.80321 
L 289.081457 221.877516 
L 289.605127 223.90785 
L 290.143046 226.56897 
L 290.559956 229.23009 
L 290.867057 231.780745 
L 290.879406 231.89121 
L 291.111435 234.55233 
L 291.284374 237.21345 
L 291.411069 239.87457 
L 291.501935 242.53569 
L 291.565336 245.19681 
L 291.607829 247.85793 
L 291.634337 250.51905 
L 291.648246 253.18017 
L 291.651463 255.84129 
L 291.644434 258.50241 
L 291.62615 261.16353 
L 291.594117 263.82465 
L 291.533909 266.92929 
L 291.456093 269.59041 
L 291.345958 272.25153 
L 291.193619 274.91265 
L 290.986675 277.57377 
L 290.867057 278.743783 
L 290.701333 280.23489 
L 290.314996 282.89601 
L 289.807521 285.55713 
L 289.145005 288.21825 
" clip-path="url(#p09f57cfea9)" style="fill: none; stroke: #6aaed6; stroke-width: 1.5"/>
   </g>
   <g id="PathCollection_6">
    <path d="M 155.842815 288.21825 
L 154.482929 285.960458 
L 154.288945 285.55713 
L 153.429373 282.89601 
L 152.968508 280.23489 
L 152.770042 277.57377 
L 152.736868 274.91265 
L 152.801213 272.25153 
L 152.916964 269.59041 
L 153.053735 266.92929 
L 153.21473 263.82465 
L 153.341521 261.16353 
L 153.452176 258.50241 
L 153.544755 255.84129 
L 153.619484 253.18017 
L 153.677905 250.51905 
L 153.722255 247.85793 
L 153.755022 245.19681 
L 153.778623 242.53569 
L 153.795205 239.87457 
L 153.806555 237.21345 
L 153.814088 234.55233 
L 153.818903 231.89121 
L 153.821842 229.23009 
L 153.823556 226.56897 
L 153.824536 223.90785 
L 153.825202 220.80321 
L 153.825588 218.14209 
L 153.825884 215.48097 
L 153.826088 212.81985 
L 153.826179 210.15873 
L 153.826154 207.49761 
L 153.826052 204.83649 
L 153.825942 202.17537 
L 153.825889 199.51425 
L 153.825925 196.85313 
L 153.826032 194.19201 
L 153.826153 191.53089 
L 153.826223 188.86977 
L 153.826203 186.20865 
L 153.826105 183.54753 
L 153.825982 180.88641 
L 153.8259 178.22529 
L 153.825914 175.12065 
L 153.826012 172.45953 
L 153.826135 169.79841 
L 153.826217 167.13729 
L 153.826212 164.47617 
L 153.826125 161.81505 
L 153.826001 159.15393 
L 153.825908 156.49281 
L 153.825897 153.83169 
L 153.825973 151.17057 
L 153.826096 148.50945 
L 153.826198 145.84833 
L 153.826224 143.18721 
L 153.826161 140.52609 
L 153.826042 137.86497 
L 153.825932 135.20385 
L 153.825893 132.09921 
L 153.825956 129.43809 
L 153.826075 126.77697 
L 153.826185 124.11585 
L 153.826226 121.45473 
L 153.826177 118.79361 
L 153.826063 116.13249 
L 153.825947 113.47137 
L 153.825891 110.81025 
L 153.825926 108.14913 
L 153.826033 105.48801 
L 153.826154 102.82689 
L 153.826223 100.16577 
L 153.826203 97.50465 
L 153.826106 94.84353 
L 153.825984 92.18241 
L 153.825906 89.52129 
L 153.825928 86.41665 
L 153.826043 83.75553 
L 153.8262 81.09441 
L 153.826351 78.43329 
L 153.826484 75.77217 
L 153.826661 73.11105 
L 153.827034 70.44993 
L 153.827854 67.78881 
L 153.829474 65.12769 
L 153.832393 62.46657 
L 153.837346 59.80545 
L 153.845451 57.14433 
L 153.858408 54.48321 
L 153.878726 51.82209 
L 153.909963 49.16097 
L 153.956965 46.49985 
L 154.040351 43.39521 
L 154.145885 40.73409 
L 154.294128 38.07297 
L 154.482929 35.611407 
L 154.50152 35.41185 
L 154.832155 32.75073 
L 155.275229 30.08961 
L 155.862503 27.42849 
L 156.268529 25.993481 
L 156.784072 24.76737 
L 158.054129 22.378448 
L 158.346357 22.10625 
" clip-path="url(#p09f57cfea9)" style="fill: none; stroke: #4191c6; stroke-width: 1.5"/>
    <path d="M 166.209415 22.10625 
L 167.053553 22.387957 
L 168.839153 22.352081 
L 169.44238 22.10625 
" clip-path="url(#p09f57cfea9)" style="fill: none; stroke: #4191c6; stroke-width: 1.5"/>
    <path d="M 169.48269 288.21825 
L 168.839153 287.990109 
L 167.053553 288.088867 
L 166.754408 288.21825 
" clip-path="url(#p09f57cfea9)" style="fill: none; stroke: #4191c6; stroke-width: 1.5"/>
    <path d="M 184.664328 22.10625 
L 184.980977 22.238079 
L 186.766577 22.261519 
L 187.154572 22.10625 
" clip-path="url(#p09f57cfea9)" style="fill: none; stroke: #4191c6; stroke-width: 1.5"/>
    <path d="M 187.284619 288.21825 
L 186.766577 288.03019 
L 184.980977 288.131297 
L 184.788326 288.21825 
" clip-path="url(#p09f57cfea9)" style="fill: none; stroke: #4191c6; stroke-width: 1.5"/>
    <path d="M 202.55507 22.10625 
L 202.944113 22.261415 
L 204.729713 22.238119 
L 205.045302 22.10625 
" clip-path="url(#p09f57cfea9)" style="fill: none; stroke: #4191c6; stroke-width: 1.5"/>
    <path d="M 205.173482 288.21825 
L 204.729713 288.049019 
L 202.944113 288.103468 
L 202.679991 288.21825 
" clip-path="url(#p09f57cfea9)" style="fill: none; stroke: #4191c6; stroke-width: 1.5"/>
    <path d="M 220.427768 22.10625 
L 220.871537 22.275481 
L 222.657137 22.221032 
L 222.921259 22.10625 
" clip-path="url(#p09f57cfea9)" style="fill: none; stroke: #4191c6; stroke-width: 1.5"/>
    <path d="M 223.04618 288.21825 
L 222.657137 288.063085 
L 220.871537 288.086381 
L 220.555948 288.21825 
" clip-path="url(#p09f57cfea9)" style="fill: none; stroke: #4191c6; stroke-width: 1.5"/>
    <path d="M 238.316631 22.10625 
L 238.834673 22.29431 
L 240.620273 22.193203 
L 240.812924 22.10625 
" clip-path="url(#p09f57cfea9)" style="fill: none; stroke: #4191c6; stroke-width: 1.5"/>
    <path d="M 240.936902 288.21825 
L 240.620273 288.086427 
L 238.834673 288.062983 
L 238.446681 288.21825 
" clip-path="url(#p09f57cfea9)" style="fill: none; stroke: #4191c6; stroke-width: 1.5"/>
    <path d="M 256.11856 22.10625 
L 256.762097 22.334391 
L 258.547697 22.235633 
L 258.846842 22.10625 
" clip-path="url(#p09f57cfea9)" style="fill: none; stroke: #4191c6; stroke-width: 1.5"/>
    <path d="M 258.812857 288.21825 
L 258.547697 288.103458 
L 256.762097 288.048889 
L 256.319407 288.21825 
" clip-path="url(#p09f57cfea9)" style="fill: none; stroke: #4191c6; stroke-width: 1.5"/>
    <path d="M 269.758435 22.10625 
L 271.118321 24.364042 
L 271.312305 24.76737 
L 272.171877 27.42849 
L 272.632742 30.08961 
L 272.831208 32.75073 
L 272.864382 35.41185 
L 272.800037 38.07297 
L 272.684286 40.73409 
L 272.547515 43.39521 
L 272.38652 46.49985 
L 272.259729 49.16097 
L 272.149074 51.82209 
L 272.056495 54.48321 
L 271.981766 57.14433 
L 271.923345 59.80545 
L 271.878995 62.46657 
L 271.846228 65.12769 
L 271.822627 67.78881 
L 271.806045 70.44993 
L 271.794695 73.11105 
L 271.787162 75.77217 
L 271.782347 78.43329 
L 271.779408 81.09441 
L 271.777694 83.75553 
L 271.776714 86.41665 
L 271.776048 89.52129 
L 271.775662 92.18241 
L 271.775366 94.84353 
L 271.775162 97.50465 
L 271.775071 100.16577 
L 271.775096 102.82689 
L 271.775198 105.48801 
L 271.775308 108.14913 
L 271.775361 110.81025 
L 271.775325 113.47137 
L 271.775218 116.13249 
L 271.775097 118.79361 
L 271.775028 121.45473 
L 271.775047 124.11585 
L 271.775146 126.77697 
L 271.77527 129.43809 
L 271.775353 132.09921 
L 271.775343 135.20385 
L 271.775252 137.86497 
L 271.775145 140.52609 
L 271.775096 143.18721 
L 271.775163 145.84833 
L 271.77537 148.50945 
L 271.775717 151.17057 
L 271.776215 153.83169 
L 271.776943 156.49281 
L 271.778103 159.15393 
L 271.780062 161.81505 
L 271.783372 164.47617 
L 271.788803 167.13729 
L 271.797378 169.79841 
L 271.810449 172.45953 
L 271.829795 175.12065 
L 271.863436 178.22529 
L 271.905236 180.88641 
L 271.963024 183.54753 
L 272.041428 186.20865 
L 272.145885 188.86977 
L 272.282685 191.53089 
L 272.459028 194.19201 
L 272.683139 196.85313 
L 272.903921 198.963298 
L 272.96278 199.51425 
L 273.306058 202.17537 
L 273.736089 204.83649 
L 274.271958 207.49761 
L 274.725233 209.369394 
L 274.971125 210.15873 
L 275.965367 212.81985 
L 276.510833 214.032091 
L 277.600974 215.48097 
L 278.296433 216.279914 
L 280.082033 217.393287 
L 281.692468 218.14209 
L 281.903345 218.238505 
L 283.688945 219.481164 
L 284.816629 220.80321 
L 285.474545 221.678467 
L 286.522017 223.90785 
L 287.260145 225.844691 
L 287.459442 226.56897 
L 288.049724 229.23009 
L 288.505361 231.89121 
L 288.852315 234.55233 
L 289.081457 236.893017 
L 289.107692 237.21345 
L 289.269949 239.87457 
L 289.386316 242.53569 
L 289.467449 245.19681 
L 289.521723 247.85793 
L 289.555421 250.51905 
L 289.572846 253.18017 
L 289.576379 255.84129 
L 289.566502 258.50241 
L 289.54179 261.16353 
L 289.498875 263.82465 
L 289.418502 266.92929 
L 289.3148 269.59041 
L 289.16816 272.25153 
L 289.081457 273.402226 
L 288.943986 274.91265 
L 288.617474 277.57377 
L 288.179783 280.23489 
L 287.59961 282.89601 
L 287.260145 284.115711 
L 286.667425 285.55713 
L 285.474545 287.847347 
L 285.093909 288.21825 
" clip-path="url(#p09f57cfea9)" style="fill: none; stroke: #4191c6; stroke-width: 1.5"/>
    <path d="M 277.26391 288.21825 
L 276.510833 287.956749 
L 274.725233 287.949678 
L 274.036628 288.21825 
" clip-path="url(#p09f57cfea9)" style="fill: none; stroke: #4191c6; stroke-width: 1.5"/>
   </g>
   <g id="PathCollection_7">
    <path d="M 156.23136 274.91265 
L 156.022236 272.25153 
L 155.928041 269.59041 
L 155.904609 266.92929 
L 155.926933 263.82465 
L 155.966353 261.16353 
L 156.011643 258.50241 
L 156.055702 255.84129 
L 156.094751 253.18017 
L 156.127232 250.51905 
L 156.152992 247.85793 
L 156.172665 245.19681 
L 156.187232 242.53569 
L 156.19772 239.87457 
L 156.205048 237.21345 
L 156.209973 234.55233 
L 156.213109 231.89121 
L 156.214972 229.23009 
L 156.216002 226.56897 
L 156.216564 223.90785 
L 156.216979 220.80321 
L 156.217287 218.14209 
L 156.217575 215.48097 
L 156.217791 212.81985 
L 156.217877 210.15873 
L 156.217818 207.49761 
L 156.217661 204.83649 
L 156.217501 202.17537 
L 156.217429 199.51425 
L 156.217485 196.85313 
L 156.217641 194.19201 
L 156.217812 191.53089 
L 156.217906 188.86977 
L 156.217872 186.20865 
L 156.217728 183.54753 
L 156.217553 180.88641 
L 156.217441 178.22529 
L 156.217468 175.12065 
L 156.217612 172.45953 
L 156.217787 169.79841 
L 156.217898 167.13729 
L 156.217886 164.47617 
L 156.217757 161.81505 
L 156.21758 159.15393 
L 156.217452 156.49281 
L 156.217442 153.83169 
L 156.217556 151.17057 
L 156.217731 148.50945 
L 156.217873 145.84833 
L 156.217905 143.18721 
L 156.21781 140.52609 
L 156.217638 137.86497 
L 156.217484 135.20385 
L 156.217435 132.09921 
L 156.21753 129.43809 
L 156.217701 126.77697 
L 156.217855 124.11585 
L 156.217909 121.45473 
L 156.217833 118.79361 
L 156.217668 116.13249 
L 156.217505 113.47137 
L 156.217431 110.81025 
L 156.217486 108.14913 
L 156.217641 105.48801 
L 156.217812 102.82689 
L 156.217906 100.16577 
L 156.217872 97.50465 
L 156.21773 94.84353 
L 156.217557 92.18241 
L 156.21745 89.52129 
L 156.217489 86.41665 
L 156.217657 83.75553 
L 156.217882 81.09441 
L 156.218096 78.43329 
L 156.218285 75.77217 
L 156.218545 73.11105 
L 156.219098 70.44993 
L 156.220307 67.78881 
L 156.222685 65.12769 
L 156.226954 62.46657 
L 156.234183 59.80545 
L 156.245999 57.14433 
L 156.264873 54.48321 
L 156.268529 54.153578 
L 156.304756 51.82209 
L 156.368272 49.16097 
L 156.463807 46.49985 
L 156.633254 43.39521 
L 156.847732 40.73409 
L 157.149161 38.07297 
L 157.565184 35.41185 
L 158.054129 33.101504 
L 158.19643 32.75073 
L 159.61406 30.08961 
L 159.875441 29.706439 
L 161.661041 29.16521 
L 163.446641 29.992992 
L 163.576354 30.08961 
L 165.232241 31.630115 
L 166.870892 32.75073 
L 167.053553 32.910601 
L 168.839153 32.871872 
L 168.958018 32.75073 
L 170.624753 31.420463 
L 171.66422 30.08961 
L 172.410353 29.330413 
L 174.231665 27.504838 
L 174.353865 27.42849 
L 176.017265 26.573369 
L 177.802865 26.513849 
L 179.588465 27.323352 
L 179.723108 27.42849 
L 181.409777 29.037973 
L 182.443358 30.08961 
L 183.195377 31.053288 
L 184.980977 32.568052 
L 186.766577 32.661161 
L 188.587889 31.236768 
L 189.488655 30.08961 
L 190.373489 29.193963 
L 192.159089 27.437152 
L 192.17349 27.42849 
L 193.944689 26.551365 
L 195.766001 26.538436 
L 197.551601 27.395091 
L 197.593823 27.42849 
L 199.337201 29.113612 
L 200.302593 30.08961 
L 201.122801 31.13387 
L 202.944113 32.617937 
L 204.729713 32.616361 
L 206.515313 31.157093 
L 207.347239 30.08961 
L 208.300913 29.117275 
L 210.038361 27.42849 
L 210.122225 27.362014 
L 211.907825 26.524431 
L 213.693425 26.557123 
L 215.447601 27.42849 
L 215.479025 27.447352 
L 217.300337 29.22757 
L 218.162394 30.08961 
L 219.085937 31.252419 
L 220.871537 32.648198 
L 222.657137 32.583453 
L 224.478449 31.035135 
L 225.208041 30.08961 
L 226.264049 29.002615 
L 227.903683 27.42849 
L 228.049649 27.314119 
L 229.835249 26.508259 
L 231.656561 26.58778 
L 233.269369 27.42849 
L 233.442161 27.537423 
L 235.227761 29.303699 
L 236.020143 30.08961 
L 237.013361 31.329778 
L 238.834673 32.689023 
L 240.620273 32.529598 
L 242.405873 30.952309 
L 243.067752 30.08961 
L 244.191473 28.92655 
L 245.774367 27.42849 
L 246.012785 27.244377 
L 247.798385 26.48708 
L 249.583985 26.611043 
L 251.102393 27.42849 
L 251.369585 27.602586 
L 253.190897 29.429107 
L 253.859353 30.08961 
L 254.976497 31.480711 
L 256.688349 32.75073 
L 256.762097 32.82109 
L 257.641006 32.75073 
L 258.547697 32.692759 
L 260.369009 31.211141 
L 261.35076 30.08961 
L 262.154609 29.352682 
L 263.940209 28.056348 
L 265.725809 27.827892 
L 267.547121 29.329908 
L 267.930717 30.08961 
L 268.843459 32.75073 
L 269.332721 35.135919 
L 269.36989 35.41185 
L 269.579014 38.07297 
L 269.673209 40.73409 
L 269.696641 43.39521 
L 269.674317 46.49985 
L 269.634897 49.16097 
L 269.589607 51.82209 
L 269.545548 54.48321 
L 269.506499 57.14433 
L 269.474018 59.80545 
L 269.448258 62.46657 
L 269.428585 65.12769 
L 269.414018 67.78881 
L 269.40353 70.44993 
L 269.396202 73.11105 
L 269.391277 75.77217 
L 269.388141 78.43329 
L 269.386278 81.09441 
L 269.385248 83.75553 
L 269.384686 86.41665 
L 269.384271 89.52129 
L 269.383963 92.18241 
L 269.383675 94.84353 
L 269.383459 97.50465 
L 269.383373 100.16577 
L 269.383432 102.82689 
L 269.383589 105.48801 
L 269.383749 108.14913 
L 269.383821 110.81025 
L 269.383765 113.47137 
L 269.383609 116.13249 
L 269.383438 118.79361 
L 269.383344 121.45473 
L 269.383379 124.11585 
L 269.383522 126.77697 
L 269.383698 129.43809 
L 269.38381 132.09921 
L 269.383787 135.20385 
L 269.383649 137.86497 
L 269.383485 140.52609 
L 269.383396 143.18721 
L 269.383453 145.84833 
L 269.383668 148.50945 
L 269.384004 151.17057 
L 269.38442 153.83169 
L 269.38494 156.49281 
L 269.385704 159.15393 
L 269.387004 161.81505 
L 269.389277 164.47617 
L 269.393102 167.13729 
L 269.399204 169.79841 
L 269.4085 172.45953 
L 269.422183 175.12065 
L 269.445814 178.22529 
L 269.475027 180.88641 
L 269.515289 183.54753 
L 269.569787 186.20865 
L 269.642211 188.86977 
L 269.736717 191.53089 
L 269.857925 194.19201 
L 270.010927 196.85313 
L 270.201313 199.51425 
L 270.435126 202.17537 
L 270.718709 204.83649 
L 271.058321 207.49761 
L 271.118321 207.921281 
L 271.417174 210.15873 
L 271.833005 212.81985 
L 272.318268 215.48097 
L 272.874053 218.14209 
L 272.903921 218.282764 
L 273.582189 220.80321 
L 274.56787 223.90785 
L 274.725233 224.390087 
L 276.180317 226.56897 
L 276.510833 227.024069 
L 278.296433 227.451073 
L 280.082033 227.129482 
L 281.903345 227.252463 
L 283.688945 228.636033 
L 284.008928 229.23009 
L 285.181736 231.89121 
L 285.474545 232.725006 
L 285.844872 234.55233 
L 286.254254 237.21345 
L 286.557003 239.87457 
L 286.775454 242.53569 
L 286.9283 245.19681 
L 287.030613 247.85793 
L 287.093871 250.51905 
L 287.125959 253.18017 
L 287.131151 255.84129 
L 287.11007 258.50241 
L 287.059624 261.16353 
L 286.972896 263.82465 
L 286.811053 266.92929 
L 286.602459 269.59041 
L 286.307474 272.25153 
L 285.899371 274.91265 
L 285.474545 276.96261 
L 285.237507 277.57377 
L 283.87804 280.23489 
L 283.688945 280.524435 
L 281.903345 281.172971 
L 280.082033 280.380221 
L 279.88652 280.23489 
L 278.296433 278.758708 
L 276.62791 277.57377 
L 276.510833 277.467326 
L 274.725233 277.397078 
L 274.543831 277.57377 
L 272.903921 278.825138 
L 271.793446 280.23489 
L 271.118321 280.916205 
L 269.332721 282.726934 
L 269.074633 282.89601 
L 267.547121 283.718742 
L 265.725809 283.825753 
L 263.940209 283.047872 
L 263.74335 282.89601 
L 262.154609 281.399678 
L 261.019368 280.23489 
L 260.369009 279.394378 
L 258.547697 277.792671 
L 256.762097 277.63655 
L 254.976497 278.970816 
L 253.971291 280.23489 
L 253.190897 281.015254 
L 251.369585 282.827285 
L 251.259095 282.89601 
L 249.583985 283.753407 
L 247.798385 283.811446 
L 246.012785 283.001421 
L 245.877809 282.89601 
L 244.191473 281.286634 
L 243.157828 280.23489 
L 242.405873 279.271253 
L 240.620273 277.75646 
L 238.834673 277.663343 
L 237.013361 279.087733 
L 236.112595 280.23489 
L 235.227761 281.130537 
L 233.442161 282.887348 
L 233.42776 282.89601 
L 231.656561 283.773135 
L 229.835249 283.786064 
L 228.049649 282.929409 
L 228.007427 282.89601 
L 226.264049 281.210888 
L 225.298657 280.23489 
L 224.478449 279.19063 
L 222.657137 277.706563 
L 220.871537 277.708139 
L 219.085937 279.167407 
L 218.254011 280.23489 
L 217.300337 281.207225 
L 215.562889 282.89601 
L 215.479025 282.962486 
L 213.693425 283.800069 
L 211.907825 283.767377 
L 210.153649 282.89601 
L 210.122225 282.877148 
L 208.300913 281.09693 
L 207.438856 280.23489 
L 206.515313 279.072081 
L 204.729713 277.676302 
L 202.944113 277.741047 
L 201.122801 279.289365 
L 200.393209 280.23489 
L 199.337201 281.321885 
L 197.697567 282.89601 
L 197.551601 283.010381 
L 195.766001 283.816241 
L 193.944689 283.73672 
L 192.331881 282.89601 
L 192.159089 282.787077 
L 190.373489 281.020801 
L 189.581107 280.23489 
L 188.587889 278.994722 
L 186.766577 277.635477 
L 184.980977 277.794902 
L 183.195377 279.372191 
L 182.533498 280.23489 
L 181.409777 281.39795 
L 179.826883 282.89601 
L 179.588465 283.080123 
L 177.802865 283.83742 
L 176.017265 283.713457 
L 174.498857 282.89601 
L 174.231665 282.721914 
L 172.410353 280.895393 
L 171.741897 280.23489 
L 170.624753 278.843789 
L 168.912901 277.57377 
L 168.839153 277.50341 
L 167.960244 277.57377 
L 167.053553 277.631741 
L 165.232241 279.113359 
L 164.25049 280.23489 
L 163.446641 280.971818 
L 161.661041 282.268152 
L 159.875441 282.496608 
L 158.054129 280.994592 
L 157.670533 280.23489 
L 156.757791 277.57377 
L 156.268529 275.188581 
L 156.23136 274.91265 
z
" clip-path="url(#p09f57cfea9)" style="fill: none; stroke: #2070b4; stroke-width: 1.5"/>
   </g>
   <g id="PathCollection_8">
    <path d="M 174.175994 258.50241 
L 174.043788 255.84129 
L 173.959254 253.18017 
L 173.906241 250.51905 
L 173.873739 247.85793 
L 173.854475 245.19681 
L 173.843682 242.53569 
L 173.838142 239.87457 
L 173.835588 237.21345 
L 173.834414 234.55233 
L 173.833605 231.89121 
L 173.832708 229.23009 
L 173.831741 226.56897 
L 173.830989 223.90785 
L 173.830757 220.80321 
L 173.831171 218.14209 
L 173.8319 215.48097 
L 173.832538 212.81985 
L 173.832734 210.15873 
L 173.83238 207.49761 
L 173.831666 204.83649 
L 173.83098 202.17537 
L 173.830692 199.51425 
L 173.83096 196.85313 
L 173.831637 194.19201 
L 173.832357 191.53089 
L 173.83273 188.86977 
L 173.832553 186.20865 
L 173.831922 183.54753 
L 173.83118 180.88641 
L 173.830728 178.22529 
L 173.830879 175.12065 
L 173.83151 172.45953 
L 173.832252 169.79841 
L 173.832704 167.13729 
L 173.83262 164.47617 
L 173.832046 161.81505 
L 173.831293 159.15393 
L 173.830769 156.49281 
L 173.830759 153.83169 
L 173.831267 151.17057 
L 173.832018 148.50945 
L 173.832606 145.84833 
L 173.832711 143.18721 
L 173.832277 140.52609 
L 173.831538 137.86497 
L 173.830896 135.20385 
L 173.830721 132.09921 
L 173.831155 129.43809 
L 173.831893 126.77697 
L 173.832535 124.11585 
L 173.832733 121.45473 
L 173.83238 118.79361 
L 173.831666 116.13249 
L 173.83098 113.47137 
L 173.830692 110.81025 
L 173.83096 108.14913 
L 173.831637 105.48801 
L 173.832358 102.82689 
L 173.832731 100.16577 
L 173.832555 97.50465 
L 173.831929 94.84353 
L 173.831196 92.18241 
L 173.830765 89.52129 
L 173.830972 86.41665 
L 173.831712 83.75553 
L 173.832681 81.09441 
L 173.833592 78.43329 
L 173.834412 75.77217 
L 173.835577 73.11105 
L 173.838084 70.44993 
L 173.843519 67.78881 
L 173.85413 65.12769 
L 173.873095 62.46657 
L 173.905117 59.80545 
L 173.957363 57.14433 
L 174.040694 54.48321 
L 174.171062 51.82209 
L 174.231665 51.01359 
L 174.444481 49.16097 
L 174.903282 46.49985 
L 175.716308 43.39521 
L 176.017265 42.609947 
L 177.802865 42.178587 
L 178.357608 43.39521 
L 179.329047 46.49985 
L 179.588465 47.748397 
L 179.757005 49.16097 
L 179.969388 51.82209 
L 180.108087 54.48321 
L 180.196845 57.14433 
L 180.252551 59.80545 
L 180.286733 62.46657 
L 180.307012 65.12769 
L 180.318389 67.78881 
L 180.324238 70.44993 
L 180.326945 73.11105 
L 180.328195 75.77217 
L 180.329056 78.43329 
L 180.330005 81.09441 
L 180.331023 83.75553 
L 180.331813 86.41665 
L 180.332058 89.52129 
L 180.331625 92.18241 
L 180.330861 94.84353 
L 180.330192 97.50465 
L 180.329987 100.16577 
L 180.330359 102.82689 
L 180.331107 105.48801 
L 180.331827 108.14913 
L 180.332128 110.81025 
L 180.331847 113.47137 
L 180.331137 116.13249 
L 180.330382 118.79361 
L 180.329992 121.45473 
L 180.330178 124.11585 
L 180.330839 126.77697 
L 180.331617 129.43809 
L 180.33209 132.09921 
L 180.331932 135.20385 
L 180.33127 137.86497 
L 180.330492 140.52609 
L 180.330019 143.18721 
L 180.330107 145.84833 
L 180.330709 148.50945 
L 180.331498 151.17057 
L 180.332047 153.83169 
L 180.332058 156.49281 
L 180.331525 159.15393 
L 180.330737 161.81505 
L 180.330121 164.47617 
L 180.330011 167.13729 
L 180.330467 169.79841 
L 180.331241 172.45953 
L 180.331914 175.12065 
L 180.332098 178.22529 
L 180.331642 180.88641 
L 180.330868 183.54753 
L 180.330195 186.20865 
L 180.329988 188.86977 
L 180.330359 191.53089 
L 180.331107 194.19201 
L 180.331827 196.85313 
L 180.332128 199.51425 
L 180.331847 202.17537 
L 180.331137 204.83649 
L 180.330382 207.49761 
L 180.32999 210.15873 
L 180.330175 212.81985 
L 180.330832 215.48097 
L 180.3316 218.14209 
L 180.332052 220.80321 
L 180.331834 223.90785 
L 180.331058 226.56897 
L 180.330042 229.23009 
L 180.329088 231.89121 
L 180.328228 234.55233 
L 180.327007 237.21345 
L 180.324378 239.87457 
L 180.318679 242.53569 
L 180.307552 245.19681 
L 180.287665 247.85793 
L 180.254086 250.51905 
L 180.199298 253.18017 
L 180.111908 255.84129 
L 179.975177 258.50241 
L 179.765485 261.16353 
L 179.588465 262.663548 
L 179.348274 263.82465 
L 178.375209 266.92929 
L 177.802865 268.173609 
L 176.017265 267.679566 
L 175.730796 266.92929 
L 174.917054 263.82465 
L 174.455315 261.16353 
L 174.231665 259.235275 
L 174.175994 258.50241 
z
" clip-path="url(#p09f57cfea9)" style="fill: none; stroke: #08509b; stroke-width: 1.5"/>
    <path d="M 192.031958 258.50241 
L 191.897646 255.84129 
L 191.811701 253.18017 
L 191.757763 250.51905 
L 191.724666 247.85793 
L 191.70503 245.19681 
L 191.694015 242.53569 
L 191.688351 239.87457 
L 191.68573 237.21345 
L 191.68452 234.55233 
L 191.683686 231.89121 
L 191.682768 229.23009 
L 191.681783 226.56897 
L 191.681017 223.90785 
L 191.68078 220.80321 
L 191.681199 218.14209 
L 191.681939 215.48097 
L 191.682586 212.81985 
L 191.682785 210.15873 
L 191.682426 207.49761 
L 191.681701 204.83649 
L 191.681004 202.17537 
L 191.680713 199.51425 
L 191.680984 196.85313 
L 191.681672 194.19201 
L 191.682403 191.53089 
L 191.682781 188.86977 
L 191.682601 186.20865 
L 191.681961 183.54753 
L 191.681207 180.88641 
L 191.680749 178.22529 
L 191.680902 175.12065 
L 191.681542 172.45953 
L 191.682296 169.79841 
L 191.682754 167.13729 
L 191.682669 164.47617 
L 191.682087 161.81505 
L 191.681322 159.15393 
L 191.680791 156.49281 
L 191.68078 153.83169 
L 191.681296 151.17057 
L 191.682059 148.50945 
L 191.682655 145.84833 
L 191.682762 143.18721 
L 191.682321 140.52609 
L 191.681571 137.86497 
L 191.68092 135.20385 
L 191.680742 132.09921 
L 191.681182 129.43809 
L 191.681932 126.77697 
L 191.682583 124.11585 
L 191.682784 121.45473 
L 191.682425 118.79361 
L 191.681701 116.13249 
L 191.681004 113.47137 
L 191.680713 110.81025 
L 191.680984 108.14913 
L 191.681672 105.48801 
L 191.682403 102.82689 
L 191.682782 100.16577 
L 191.682604 97.50465 
L 191.681968 94.84353 
L 191.681223 92.18241 
L 191.680786 89.52129 
L 191.680997 86.41665 
L 191.681748 83.75553 
L 191.682732 81.09441 
L 191.683656 78.43329 
L 191.684488 75.77217 
L 191.68567 73.11105 
L 191.688215 70.44993 
L 191.693733 67.78881 
L 191.704504 65.12769 
L 191.723755 62.46657 
L 191.75626 59.80545 
L 191.809293 57.14433 
L 191.89388 54.48321 
L 192.026215 51.82209 
L 192.159089 50.077738 
L 192.268355 49.16097 
L 192.743784 46.49985 
L 193.586392 43.39521 
L 193.944689 42.493724 
L 195.766001 42.29423 
L 196.239995 43.39521 
L 197.157294 46.49985 
L 197.551601 48.511995 
L 197.627994 49.16097 
L 197.837777 51.82209 
L 197.974774 54.48321 
L 198.062441 57.14433 
L 198.117461 59.80545 
L 198.151223 62.46657 
L 198.171252 65.12769 
L 198.182489 67.78881 
L 198.188266 70.44993 
L 198.19094 73.11105 
L 198.192174 75.77217 
L 198.193025 78.43329 
L 198.193961 81.09441 
L 198.194967 83.75553 
L 198.195748 86.41665 
L 198.19599 89.52129 
L 198.195562 92.18241 
L 198.194807 94.84353 
L 198.194147 97.50465 
L 198.193944 100.16577 
L 198.194311 102.82689 
L 198.19505 105.48801 
L 198.195761 108.14913 
L 198.196058 110.81025 
L 198.195781 113.47137 
L 198.19508 116.13249 
L 198.194334 118.79361 
L 198.193949 121.45473 
L 198.194132 124.11585 
L 198.194785 126.77697 
L 198.195554 129.43809 
L 198.196021 132.09921 
L 198.195865 135.20385 
L 198.195212 137.86497 
L 198.194443 140.52609 
L 198.193976 143.18721 
L 198.194063 145.84833 
L 198.194657 148.50945 
L 198.195436 151.17057 
L 198.195979 153.83169 
L 198.195989 156.49281 
L 198.195463 159.15393 
L 198.194685 161.81505 
L 198.194077 164.47617 
L 198.193968 167.13729 
L 198.194418 169.79841 
L 198.195183 172.45953 
L 198.195847 175.12065 
L 198.196029 178.22529 
L 198.195579 180.88641 
L 198.194814 183.54753 
L 198.19415 186.20865 
L 198.193945 188.86977 
L 198.194311 191.53089 
L 198.19505 194.19201 
L 198.195761 196.85313 
L 198.196058 199.51425 
L 198.195781 202.17537 
L 198.19508 204.83649 
L 198.194334 207.49761 
L 198.193948 210.15873 
L 198.194129 212.81985 
L 198.194778 215.48097 
L 198.195537 218.14209 
L 198.195983 220.80321 
L 198.195768 223.90785 
L 198.195002 226.56897 
L 198.193998 229.23009 
L 198.193056 231.89121 
L 198.192207 234.55233 
L 198.191 237.21345 
L 198.188404 239.87457 
L 198.182774 242.53569 
L 198.171785 245.19681 
L 198.152143 247.85793 
L 198.118978 250.51905 
L 198.064868 253.18017 
L 197.978561 255.84129 
L 197.843528 258.50241 
L 197.636447 261.16353 
L 197.551601 261.892606 
L 197.174982 263.82465 
L 196.256693 266.92929 
L 195.766001 268.060566 
L 193.944689 267.795177 
L 193.602357 266.92929 
L 192.759673 263.82465 
L 192.281189 261.16353 
L 192.159089 260.149017 
L 192.031958 258.50241 
z
" clip-path="url(#p09f57cfea9)" style="fill: none; stroke: #08509b; stroke-width: 1.5"/>
    <path d="M 210.107738 261.16353 
L 209.899993 258.50241 
L 209.764331 255.84129 
L 209.67752 253.18017 
L 209.623038 250.51905 
L 209.589607 247.85793 
L 209.569774 245.19681 
L 209.558648 242.53569 
L 209.552926 239.87457 
L 209.550279 237.21345 
L 209.549057 234.55233 
L 209.548215 231.89121 
L 209.547287 229.23009 
L 209.546292 226.56897 
L 209.545518 223.90785 
L 209.545279 220.80321 
L 209.545702 218.14209 
L 209.54645 215.48097 
L 209.547104 212.81985 
L 209.547305 210.15873 
L 209.546941 207.49761 
L 209.546209 204.83649 
L 209.545505 202.17537 
L 209.545211 199.51425 
L 209.545485 196.85313 
L 209.54618 194.19201 
L 209.546918 191.53089 
L 209.5473 188.86977 
L 209.547118 186.20865 
L 209.546471 183.54753 
L 209.54571 180.88641 
L 209.545247 178.22529 
L 209.545402 175.12065 
L 209.546049 172.45953 
L 209.54681 169.79841 
L 209.547273 167.13729 
L 209.547187 164.47617 
L 209.546598 161.81505 
L 209.545827 159.15393 
L 209.54529 156.49281 
L 209.545279 153.83169 
L 209.5458 151.17057 
L 209.546571 148.50945 
L 209.547173 145.84833 
L 209.54728 143.18721 
L 209.546835 140.52609 
L 209.546078 137.86497 
L 209.54542 135.20385 
L 209.54524 132.09921 
L 209.545685 129.43809 
L 209.546442 126.77697 
L 209.547101 124.11585 
L 209.547303 121.45473 
L 209.54694 118.79361 
L 209.546209 116.13249 
L 209.545505 113.47137 
L 209.545211 110.81025 
L 209.545485 108.14913 
L 209.54618 105.48801 
L 209.546918 102.82689 
L 209.547301 100.16577 
L 209.547121 97.50465 
L 209.546478 94.84353 
L 209.545727 92.18241 
L 209.545285 89.52129 
L 209.545498 86.41665 
L 209.546257 83.75553 
L 209.547251 81.09441 
L 209.548184 78.43329 
L 209.549025 75.77217 
L 209.550219 73.11105 
L 209.55279 70.44993 
L 209.558365 67.78881 
L 209.569246 65.12769 
L 209.588694 62.46657 
L 209.621532 59.80545 
L 209.675109 57.14433 
L 209.760565 54.48321 
L 209.894261 51.82209 
L 210.099288 49.16097 
L 210.122225 48.961701 
L 210.584806 46.49985 
L 211.470831 43.39521 
L 211.907825 42.350478 
L 213.693425 42.382975 
L 214.114053 43.39521 
L 214.999548 46.49985 
L 215.479025 49.036593 
L 215.493512 49.16097 
L 215.701257 51.82209 
L 215.836919 54.48321 
L 215.92373 57.14433 
L 215.978212 59.80545 
L 216.011643 62.46657 
L 216.031476 65.12769 
L 216.042602 67.78881 
L 216.048324 70.44993 
L 216.050971 73.11105 
L 216.052193 75.77217 
L 216.053035 78.43329 
L 216.053963 81.09441 
L 216.054958 83.75553 
L 216.055732 86.41665 
L 216.055971 89.52129 
L 216.055548 92.18241 
L 216.0548 94.84353 
L 216.054146 97.50465 
L 216.053945 100.16577 
L 216.054309 102.82689 
L 216.055041 105.48801 
L 216.055745 108.14913 
L 216.056039 110.81025 
L 216.055765 113.47137 
L 216.05507 116.13249 
L 216.054332 118.79361 
L 216.05395 121.45473 
L 216.054132 124.11585 
L 216.054779 126.77697 
L 216.05554 129.43809 
L 216.056003 132.09921 
L 216.055848 135.20385 
L 216.055201 137.86497 
L 216.05444 140.52609 
L 216.053977 143.18721 
L 216.054063 145.84833 
L 216.054652 148.50945 
L 216.055423 151.17057 
L 216.05596 153.83169 
L 216.055971 156.49281 
L 216.05545 159.15393 
L 216.054679 161.81505 
L 216.054077 164.47617 
L 216.05397 167.13729 
L 216.054415 169.79841 
L 216.055172 172.45953 
L 216.05583 175.12065 
L 216.05601 178.22529 
L 216.055565 180.88641 
L 216.054808 183.54753 
L 216.054149 186.20865 
L 216.053947 188.86977 
L 216.05431 191.53089 
L 216.055041 194.19201 
L 216.055745 196.85313 
L 216.056039 199.51425 
L 216.055765 202.17537 
L 216.05507 204.83649 
L 216.054332 207.49761 
L 216.053949 210.15873 
L 216.054129 212.81985 
L 216.054772 215.48097 
L 216.055523 218.14209 
L 216.055965 220.80321 
L 216.055752 223.90785 
L 216.054993 226.56897 
L 216.053999 229.23009 
L 216.053066 231.89121 
L 216.052225 234.55233 
L 216.051031 237.21345 
L 216.04846 239.87457 
L 216.042885 242.53569 
L 216.032004 245.19681 
L 216.012556 247.85793 
L 215.979718 250.51905 
L 215.926141 253.18017 
L 215.840685 255.84129 
L 215.706989 258.50241 
L 215.501962 261.16353 
L 215.479025 261.362799 
L 215.016444 263.82465 
L 214.130419 266.92929 
L 213.693425 267.974022 
L 211.907825 267.941525 
L 211.487197 266.92929 
L 210.601702 263.82465 
L 210.122225 261.287907 
L 210.107738 261.16353 
z
" clip-path="url(#p09f57cfea9)" style="fill: none; stroke: #08509b; stroke-width: 1.5"/>
    <path d="M 227.973256 261.16353 
L 227.763473 258.50241 
L 227.626476 255.84129 
L 227.538809 253.18017 
L 227.483789 250.51905 
L 227.450027 247.85793 
L 227.429998 245.19681 
L 227.418761 242.53569 
L 227.412984 239.87457 
L 227.41031 237.21345 
L 227.409076 234.55233 
L 227.408225 231.89121 
L 227.407289 229.23009 
L 227.406283 226.56897 
L 227.405502 223.90785 
L 227.40526 220.80321 
L 227.405688 218.14209 
L 227.406443 215.48097 
L 227.407103 212.81985 
L 227.407306 210.15873 
L 227.406939 207.49761 
L 227.4062 204.83649 
L 227.405489 202.17537 
L 227.405192 199.51425 
L 227.405469 196.85313 
L 227.40617 194.19201 
L 227.406916 191.53089 
L 227.407301 188.86977 
L 227.407118 186.20865 
L 227.406465 183.54753 
L 227.405696 180.88641 
L 227.405229 178.22529 
L 227.405385 175.12065 
L 227.406038 172.45953 
L 227.406807 169.79841 
L 227.407274 167.13729 
L 227.407187 164.47617 
L 227.406593 161.81505 
L 227.405814 159.15393 
L 227.405271 156.49281 
L 227.405261 153.83169 
L 227.405787 151.17057 
L 227.406565 148.50945 
L 227.407173 145.84833 
L 227.407282 143.18721 
L 227.406832 140.52609 
L 227.406067 137.86497 
L 227.405403 135.20385 
L 227.405221 132.09921 
L 227.405671 129.43809 
L 227.406436 126.77697 
L 227.4071 124.11585 
L 227.407305 121.45473 
L 227.406939 118.79361 
L 227.4062 116.13249 
L 227.405489 113.47137 
L 227.405192 110.81025 
L 227.405469 108.14913 
L 227.40617 105.48801 
L 227.406916 102.82689 
L 227.407302 100.16577 
L 227.407121 97.50465 
L 227.406472 94.84353 
L 227.405713 92.18241 
L 227.405267 89.52129 
L 227.405482 86.41665 
L 227.406248 83.75553 
L 227.407252 81.09441 
L 227.408194 78.43329 
L 227.409043 75.77217 
L 227.41025 73.11105 
L 227.412846 70.44993 
L 227.418476 67.78881 
L 227.429465 65.12769 
L 227.449107 62.46657 
L 227.482272 59.80545 
L 227.536382 57.14433 
L 227.622689 54.48321 
L 227.757722 51.82209 
L 227.964803 49.16097 
L 228.049649 48.431894 
L 228.426268 46.49985 
L 229.344557 43.39521 
L 229.835249 42.263934 
L 231.656561 42.529323 
L 231.998893 43.39521 
L 232.841577 46.49985 
L 233.320061 49.16097 
L 233.442161 50.175483 
L 233.569292 51.82209 
L 233.703604 54.48321 
L 233.789549 57.14433 
L 233.843487 59.80545 
L 233.876584 62.46657 
L 233.89622 65.12769 
L 233.907235 67.78881 
L 233.912899 70.44993 
L 233.91552 73.11105 
L 233.91673 75.77217 
L 233.917564 78.43329 
L 233.918482 81.09441 
L 233.919467 83.75553 
L 233.920233 86.41665 
L 233.92047 89.52129 
L 233.920051 92.18241 
L 233.919311 94.84353 
L 233.918664 97.50465 
L 233.918465 100.16577 
L 233.918824 102.82689 
L 233.919549 105.48801 
L 233.920246 108.14913 
L 233.920537 110.81025 
L 233.920266 113.47137 
L 233.919578 116.13249 
L 233.918847 118.79361 
L 233.918469 121.45473 
L 233.918649 124.11585 
L 233.919289 126.77697 
L 233.920043 129.43809 
L 233.920501 132.09921 
L 233.920348 135.20385 
L 233.919708 137.86497 
L 233.918954 140.52609 
L 233.918496 143.18721 
L 233.918581 145.84833 
L 233.919163 148.50945 
L 233.919928 151.17057 
L 233.920459 153.83169 
L 233.92047 156.49281 
L 233.919954 159.15393 
L 233.919191 161.81505 
L 233.918595 164.47617 
L 233.918488 167.13729 
L 233.918929 169.79841 
L 233.919679 172.45953 
L 233.92033 175.12065 
L 233.920508 178.22529 
L 233.920068 180.88641 
L 233.919318 183.54753 
L 233.918667 186.20865 
L 233.918466 188.86977 
L 233.918825 191.53089 
L 233.919549 194.19201 
L 233.920246 196.85313 
L 233.920537 199.51425 
L 233.920266 202.17537 
L 233.919578 204.83649 
L 233.918847 207.49761 
L 233.918468 210.15873 
L 233.918646 212.81985 
L 233.919282 215.48097 
L 233.920027 218.14209 
L 233.920464 220.80321 
L 233.920253 223.90785 
L 233.919502 226.56897 
L 233.918518 229.23009 
L 233.917595 231.89121 
L 233.916762 234.55233 
L 233.91558 237.21345 
L 233.913035 239.87457 
L 233.907517 242.53569 
L 233.896746 245.19681 
L 233.877495 247.85793 
L 233.844991 250.51905 
L 233.791957 253.18017 
L 233.707371 255.84129 
L 233.575035 258.50241 
L 233.442161 260.246763 
L 233.332895 261.16353 
L 232.857466 263.82465 
L 232.014858 266.92929 
L 231.656561 267.830776 
L 229.835249 268.03027 
L 229.361255 266.92929 
L 228.443956 263.82465 
L 228.049649 261.812505 
L 227.973256 261.16353 
z
" clip-path="url(#p09f57cfea9)" style="fill: none; stroke: #08509b; stroke-width: 1.5"/>
    <path d="M 245.843902 261.16353 
L 245.631548 258.50241 
L 245.492868 255.84129 
L 245.404123 253.18017 
L 245.348425 250.51905 
L 245.314248 247.85793 
L 245.293972 245.19681 
L 245.282599 242.53569 
L 245.276752 239.87457 
L 245.274048 237.21345 
L 245.272803 234.55233 
L 245.271947 231.89121 
L 245.271005 229.23009 
L 245.269996 226.56897 
L 245.269215 223.90785 
L 245.268984 220.80321 
L 245.269431 218.14209 
L 245.270211 215.48097 
L 245.270896 212.81985 
L 245.271119 210.15873 
L 245.270765 207.49761 
L 245.270034 204.83649 
L 245.269332 202.17537 
L 245.269046 199.51425 
L 245.269341 196.85313 
L 245.270064 194.19201 
L 245.27083 191.53089 
L 245.27123 188.86977 
L 245.271051 186.20865 
L 245.270396 183.54753 
L 245.269622 180.88641 
L 245.269152 178.22529 
L 245.269314 175.12065 
L 245.269976 172.45953 
L 245.270756 169.79841 
L 245.27123 167.13729 
L 245.271142 164.47617 
L 245.270541 161.81505 
L 245.269752 159.15393 
L 245.269203 156.49281 
L 245.269192 153.83169 
L 245.269725 151.17057 
L 245.270513 148.50945 
L 245.271129 145.84833 
L 245.271239 143.18721 
L 245.270783 140.52609 
L 245.270009 137.86497 
L 245.269336 135.20385 
L 245.269152 132.09921 
L 245.269608 129.43809 
L 245.270382 126.77697 
L 245.271055 124.11585 
L 245.271262 121.45473 
L 245.270891 118.79361 
L 245.270143 116.13249 
L 245.269423 113.47137 
L 245.269122 110.81025 
L 245.269403 108.14913 
L 245.270113 105.48801 
L 245.270868 102.82689 
L 245.27126 100.16577 
L 245.271075 97.50465 
L 245.270418 94.84353 
L 245.26965 92.18241 
L 245.269198 89.52129 
L 245.269416 86.41665 
L 245.270192 83.75553 
L 245.271208 81.09441 
L 245.272162 78.43329 
L 245.273022 75.77217 
L 245.274243 73.11105 
L 245.276872 70.44993 
L 245.282571 67.78881 
L 245.293698 65.12769 
L 245.313585 62.46657 
L 245.347164 59.80545 
L 245.401952 57.14433 
L 245.489342 54.48321 
L 245.626073 51.82209 
L 245.835765 49.16097 
L 246.012785 47.660952 
L 246.252976 46.49985 
L 247.226041 43.39521 
L 247.798385 42.150891 
L 249.583985 42.644934 
L 249.870454 43.39521 
L 250.684196 46.49985 
L 251.145935 49.16097 
L 251.369585 51.089225 
L 251.425256 51.82209 
L 251.557462 54.48321 
L 251.641996 57.14433 
L 251.695009 59.80545 
L 251.727511 62.46657 
L 251.746775 65.12769 
L 251.757568 67.78881 
L 251.763108 70.44993 
L 251.765662 73.11105 
L 251.766836 75.77217 
L 251.767645 78.43329 
L 251.768542 81.09441 
L 251.769509 83.75553 
L 251.770261 86.41665 
L 251.770493 89.52129 
L 251.770079 92.18241 
L 251.76935 94.84353 
L 251.768712 97.50465 
L 251.768516 100.16577 
L 251.76887 102.82689 
L 251.769584 105.48801 
L 251.77027 108.14913 
L 251.770558 110.81025 
L 251.77029 113.47137 
L 251.769613 116.13249 
L 251.768893 118.79361 
L 251.76852 121.45473 
L 251.768697 124.11585 
L 251.769328 126.77697 
L 251.77007 129.43809 
L 251.770522 132.09921 
L 251.770371 135.20385 
L 251.76974 137.86497 
L 251.768998 140.52609 
L 251.768547 143.18721 
L 251.768631 145.84833 
L 251.769205 148.50945 
L 251.769959 151.17057 
L 251.770484 153.83169 
L 251.770497 156.49281 
L 251.769994 159.15393 
L 251.76925 161.81505 
L 251.768674 164.47617 
L 251.768588 167.13729 
L 251.769052 169.79841 
L 251.769835 172.45953 
L 251.770541 175.12065 
L 251.770827 178.22529 
L 251.770526 180.88641 
L 251.769966 183.54753 
L 251.769557 186.20865 
L 251.769656 188.86977 
L 251.770377 191.53089 
L 251.771532 194.19201 
L 251.772735 196.85313 
L 251.77361 199.51425 
L 251.773991 202.17537 
L 251.774008 204.83649 
L 251.774013 207.49761 
L 251.774377 210.15873 
L 251.775281 212.81985 
L 251.776608 215.48097 
L 251.777994 218.14209 
L 251.779016 220.80321 
L 251.779403 223.90785 
L 251.779088 226.56897 
L 251.778468 229.23009 
L 251.777838 231.89121 
L 251.777236 234.55233 
L 251.776234 237.21345 
L 251.773835 239.87457 
L 251.768452 242.53569 
L 251.757829 245.19681 
L 251.738771 247.85793 
L 251.706547 250.51905 
L 251.653943 253.18017 
L 251.570024 255.84129 
L 251.438725 258.50241 
L 251.369585 259.418126 
L 251.168183 261.16353 
L 250.707385 263.82465 
L 249.890821 266.92929 
L 249.583985 267.726384 
L 247.798385 268.150042 
L 247.242141 266.92929 
L 246.271384 263.82465 
L 246.012785 262.579169 
L 245.843902 261.16353 
z
" clip-path="url(#p09f57cfea9)" style="fill: none; stroke: #08509b; stroke-width: 1.5"/>
    <path d="M 263.710638 261.16353 
L 263.49646 258.50241 
L 263.357339 255.84129 
L 263.269518 253.18017 
L 263.216294 250.51905 
L 263.186538 247.85793 
L 263.173263 245.19681 
L 263.172349 242.53569 
L 263.181564 239.87457 
L 263.199932 237.21345 
L 263.227427 234.55233 
L 263.264875 231.89121 
L 263.313898 229.23009 
L 263.376771 226.56897 
L 263.456149 223.90785 
L 263.573128 220.80321 
L 263.696775 218.14209 
L 263.843451 215.48097 
L 263.940209 213.938122 
L 264.254596 212.81985 
L 265.569993 210.15873 
L 265.725809 209.957215 
L 265.749401 210.15873 
L 266.104449 212.81985 
L 266.552179 215.48097 
L 267.114406 218.14209 
L 267.547121 219.884112 
L 267.643969 220.80321 
L 267.971053 223.90785 
L 268.255955 226.56897 
L 268.5331 229.23009 
L 268.791151 231.89121 
L 269.020417 234.55233 
L 269.214047 237.21345 
L 269.332721 239.27443 
L 269.357105 239.87457 
L 269.43505 242.53569 
L 269.486265 245.19681 
L 269.511467 247.85793 
L 269.509974 250.51905 
L 269.478275 253.18017 
L 269.408574 255.84129 
L 269.332721 257.509051 
L 269.265884 258.50241 
L 268.98081 261.16353 
L 268.54592 263.82465 
L 267.77063 266.92929 
L 267.547121 267.540197 
L 265.725809 268.214754 
L 265.115512 266.92929 
L 264.104306 263.82465 
L 263.940209 263.065908 
L 263.710638 261.16353 
z
" clip-path="url(#p09f57cfea9)" style="fill: none; stroke: #08509b; stroke-width: 1.5"/>
   </g>
   <g id="PathCollection_9"/>
   <g id="patch_3">
    <path d="M 34.240625 288.21825 
L 34.240625 22.10625 
" style="fill: none; stroke: #000000; stroke-width: 0.8; stroke-linejoin: miter; stroke-linecap: square"/>
   </g>
   <g id="patch_4">
    <path d="M 391.360625 288.21825 
L 391.360625 22.10625 
" style="fill: none; stroke: #000000; stroke-width: 0.8; stroke-linejoin: miter; stroke-linecap: square"/>
   </g>
   <g id="patch_5">
    <path d="M 34.240625 288.21825 
L 391.360625 288.21825 
" style="fill: none; stroke: #000000; stroke-width: 0.8; stroke-linejoin: miter; stroke-linecap: square"/>
   </g>
   <g id="patch_6">
    <path d="M 34.240625 22.10625 
L 391.360625 22.10625 
" style="fill: none; stroke: #000000; stroke-width: 0.8; stroke-linejoin: miter; stroke-linecap: square"/>
   </g>
   <g id="text_16">
    <!-- 6.9_cross_-37.0 -->
    <g transform="translate(166.181563 16.10625)scale(0.12 -0.12)">
     <defs>
      <path id="DejaVuSans-2e" d="M 684 794 
L 1344 794 
L 1344 0 
L 684 0 
L 684 794 
z
" transform="scale(0.015625)"/>
      <path id="DejaVuSans-39" d="M 703 97 
L 703 672 
Q 941 559 1184 500 
Q 1428 441 1663 441 
Q 2288 441 2617 861 
Q 2947 1281 2994 2138 
Q 2813 1869 2534 1725 
Q 2256 1581 1919 1581 
Q 1219 1581 811 2004 
Q 403 2428 403 3163 
Q 403 3881 828 4315 
Q 1253 4750 1959 4750 
Q 2769 4750 3195 4129 
Q 3622 3509 3622 2328 
Q 3622 1225 3098 567 
Q 2575 -91 1691 -91 
Q 1453 -91 1209 -44 
Q 966 3 703 97 
z
M 1959 2075 
Q 2384 2075 2632 2365 
Q 2881 2656 2881 3163 
Q 2881 3666 2632 3958 
Q 2384 4250 1959 4250 
Q 1534 4250 1286 3958 
Q 1038 3666 1038 3163 
Q 1038 2656 1286 2365 
Q 1534 2075 1959 2075 
z
" transform="scale(0.015625)"/>
      <path id="DejaVuSans-5f" d="M 3263 -1063 
L 3263 -1509 
L -63 -1509 
L -63 -1063 
L 3263 -1063 
z
" transform="scale(0.015625)"/>
      <path id="DejaVuSans-63" d="M 3122 3366 
L 3122 2828 
Q 2878 2963 2633 3030 
Q 2388 3097 2138 3097 
Q 1578 3097 1268 2742 
Q 959 2388 959 1747 
Q 959 1106 1268 751 
Q 1578 397 2138 397 
Q 2388 397 2633 464 
Q 2878 531 3122 666 
L 3122 134 
Q 2881 22 2623 -34 
Q 2366 -91 2075 -91 
Q 1284 -91 818 406 
Q 353 903 353 1747 
Q 353 2603 823 3093 
Q 1294 3584 2113 3584 
Q 2378 3584 2631 3529 
Q 2884 3475 3122 3366 
z
" transform="scale(0.015625)"/>
      <path id="DejaVuSans-72" d="M 2631 2963 
Q 2534 3019 2420 3045 
Q 2306 3072 2169 3072 
Q 1681 3072 1420 2755 
Q 1159 2438 1159 1844 
L 1159 0 
L 581 0 
L 581 3500 
L 1159 3500 
L 1159 2956 
Q 1341 3275 1631 3429 
Q 1922 3584 2338 3584 
Q 2397 3584 2469 3576 
Q 2541 3569 2628 3553 
L 2631 2963 
z
" transform="scale(0.015625)"/>
      <path id="DejaVuSans-73" d="M 2834 3397 
L 2834 2853 
Q 2591 2978 2328 3040 
Q 2066 3103 1784 3103 
Q 1356 3103 1142 2972 
Q 928 2841 928 2578 
Q 928 2378 1081 2264 
Q 1234 2150 1697 2047 
L 1894 2003 
Q 2506 1872 2764 1633 
Q 3022 1394 3022 966 
Q 3022 478 2636 193 
Q 2250 -91 1575 -91 
Q 1294 -91 989 -36 
Q 684 19 347 128 
L 347 722 
Q 666 556 975 473 
Q 1284 391 1588 391 
Q 1994 391 2212 530 
Q 2431 669 2431 922 
Q 2431 1156 2273 1281 
Q 2116 1406 1581 1522 
L 1381 1569 
Q 847 1681 609 1914 
Q 372 2147 372 2553 
Q 372 3047 722 3315 
Q 1072 3584 1716 3584 
Q 2034 3584 2315 3537 
Q 2597 3491 2834 3397 
z
" transform="scale(0.015625)"/>
      <path id="DejaVuSans-2d" d="M 313 2009 
L 1997 2009 
L 1997 1497 
L 313 1497 
L 313 2009 
z
" transform="scale(0.015625)"/>
      <path id="DejaVuSans-37" d="M 525 4666 
L 3525 4666 
L 3525 4397 
L 1831 0 
L 1172 0 
L 2766 4134 
L 525 4134 
L 525 4666 
z
" transform="scale(0.015625)"/>
     </defs>
     <use xlink:href="#DejaVuSans-36"/>
     <use xlink:href="#DejaVuSans-2e" x="63.623047"/>
     <use xlink:href="#DejaVuSans-39" x="95.410156"/>
     <use xlink:href="#DejaVuSans-5f" x="159.033203"/>
     <use xlink:href="#DejaVuSans-63" x="209.033203"/>
     <use xlink:href="#DejaVuSans-72" x="264.013672"/>
     <use xlink:href="#DejaVuSans-6f" x="302.876953"/>
     <use xlink:href="#DejaVuSans-73" x="364.058594"/>
     <use xlink:href="#DejaVuSans-73" x="416.158203"/>
     <use xlink:href="#DejaVuSans-5f" x="468.257812"/>
     <use xlink:href="#DejaVuSans-2d" x="518.257812"/>
     <use xlink:href="#DejaVuSans-33" x="554.341797"/>
     <use xlink:href="#DejaVuSans-37" x="617.964844"/>
     <use xlink:href="#DejaVuSans-2e" x="681.587891"/>
     <use xlink:href="#DejaVuSans-30" x="713.375"/>
    </g>
   </g>
  </g>
 </g>
 <defs>
  <clipPath id="p09f57cfea9">
   <rect x="34.240625" y="22.10625" width="357.12" height="266.112"/>
  </clipPath>
 </defs>
</svg>
