<?xml version="1.0" encoding="utf-8" standalone="no"?>
<!DOCTYPE svg PUBLIC "-//W3C//DTD SVG 1.1//EN"
  "http://www.w3.org/Graphics/SVG/1.1/DTD/svg11.dtd">
<svg xmlns:xlink="http://www.w3.org/1999/xlink" width="408.104375pt" height="325.7745pt" viewBox="0 0 408.104375 325.7745" xmlns="http://www.w3.org/2000/svg" version="1.1">
 <metadata>
  <rdf:RDF xmlns:dc="http://purl.org/dc/elements/1.1/" xmlns:cc="http://creativecommons.org/ns#" xmlns:rdf="http://www.w3.org/1999/02/22-rdf-syntax-ns#">
   <cc:Work>
    <dc:type rdf:resource="http://purl.org/dc/dcmitype/StillImage"/>
    <dc:date>2024-07-12T12:32:47.725337</dc:date>
    <dc:format>image/svg+xml</dc:format>
    <dc:creator>
     <cc:Agent>
      <dc:title>Matplotlib v3.5.3, https://matplotlib.org/</dc:title>
     </cc:Agent>
    </dc:creator>
   </cc:Work>
  </rdf:RDF>
 </metadata>
 <defs>
  <style type="text/css">*{stroke-linejoin: round; stroke-linecap: butt}</style>
 </defs>
 <g id="figure_1">
  <g id="patch_1">
   <path d="M 0 325.7745 
L 408.104375 325.7745 
L 408.104375 0 
L 0 0 
z
" style="fill: #ffffff"/>
  </g>
  <g id="axes_1">
   <g id="patch_2">
    <path d="M 34.240625 288.21825 
L 391.360625 288.21825 
L 391.360625 22.10625 
L 34.240625 22.10625 
z
" style="fill: #ffffff"/>
   </g>
   <g id="matplotlib.axis_1">
    <g id="xtick_1">
     <g id="line2d_1">
      <defs>
       <path id="m0aef1e8703" d="M 0 0 
L 0 3.5 
" style="stroke: #000000; stroke-width: 0.8"/>
      </defs>
      <g>
       <use xlink:href="#m0aef1e8703" x="34.240625" y="288.21825" style="stroke: #000000; stroke-width: 0.8"/>
      </g>
     </g>
     <g id="text_1">
      <!-- 0 -->
      <g transform="translate(31.059375 302.816687)scale(0.1 -0.1)">
       <defs>
        <path id="DejaVuSans-30" d="M 2034 4250 
Q 1547 4250 1301 3770 
Q 1056 3291 1056 2328 
Q 1056 1369 1301 889 
Q 1547 409 2034 409 
Q 2525 409 2770 889 
Q 3016 1369 3016 2328 
Q 3016 3291 2770 3770 
Q 2525 4250 2034 4250 
z
M 2034 4750 
Q 2819 4750 3233 4129 
Q 3647 3509 3647 2328 
Q 3647 1150 3233 529 
Q 2819 -91 2034 -91 
Q 1250 -91 836 529 
Q 422 1150 422 2328 
Q 422 3509 836 4129 
Q 1250 4750 2034 4750 
z
" transform="scale(0.015625)"/>
       </defs>
       <use xlink:href="#DejaVuSans-30"/>
      </g>
     </g>
    </g>
    <g id="xtick_2">
     <g id="line2d_2">
      <g>
       <use xlink:href="#m0aef1e8703" x="105.664625" y="288.21825" style="stroke: #000000; stroke-width: 0.8"/>
      </g>
     </g>
     <g id="text_2">
      <!-- 20 -->
      <g transform="translate(99.302125 302.816687)scale(0.1 -0.1)">
       <defs>
        <path id="DejaVuSans-32" d="M 1228 531 
L 3431 531 
L 3431 0 
L 469 0 
L 469 531 
Q 828 903 1448 1529 
Q 2069 2156 2228 2338 
Q 2531 2678 2651 2914 
Q 2772 3150 2772 3378 
Q 2772 3750 2511 3984 
Q 2250 4219 1831 4219 
Q 1534 4219 1204 4116 
Q 875 4013 500 3803 
L 500 4441 
Q 881 4594 1212 4672 
Q 1544 4750 1819 4750 
Q 2544 4750 2975 4387 
Q 3406 4025 3406 3419 
Q 3406 3131 3298 2873 
Q 3191 2616 2906 2266 
Q 2828 2175 2409 1742 
Q 1991 1309 1228 531 
z
" transform="scale(0.015625)"/>
       </defs>
       <use xlink:href="#DejaVuSans-32"/>
       <use xlink:href="#DejaVuSans-30" x="63.623047"/>
      </g>
     </g>
    </g>
    <g id="xtick_3">
     <g id="line2d_3">
      <g>
       <use xlink:href="#m0aef1e8703" x="177.088625" y="288.21825" style="stroke: #000000; stroke-width: 0.8"/>
      </g>
     </g>
     <g id="text_3">
      <!-- 40 -->
      <g transform="translate(170.726125 302.816687)scale(0.1 -0.1)">
       <defs>
        <path id="DejaVuSans-34" d="M 2419 4116 
L 825 1625 
L 2419 1625 
L 2419 4116 
z
M 2253 4666 
L 3047 4666 
L 3047 1625 
L 3713 1625 
L 3713 1100 
L 3047 1100 
L 3047 0 
L 2419 0 
L 2419 1100 
L 313 1100 
L 313 1709 
L 2253 4666 
z
" transform="scale(0.015625)"/>
       </defs>
       <use xlink:href="#DejaVuSans-34"/>
       <use xlink:href="#DejaVuSans-30" x="63.623047"/>
      </g>
     </g>
    </g>
    <g id="xtick_4">
     <g id="line2d_4">
      <g>
       <use xlink:href="#m0aef1e8703" x="248.512625" y="288.21825" style="stroke: #000000; stroke-width: 0.8"/>
      </g>
     </g>
     <g id="text_4">
      <!-- 60 -->
      <g transform="translate(242.150125 302.816687)scale(0.1 -0.1)">
       <defs>
        <path id="DejaVuSans-36" d="M 2113 2584 
Q 1688 2584 1439 2293 
Q 1191 2003 1191 1497 
Q 1191 994 1439 701 
Q 1688 409 2113 409 
Q 2538 409 2786 701 
Q 3034 994 3034 1497 
Q 3034 2003 2786 2293 
Q 2538 2584 2113 2584 
z
M 3366 4563 
L 3366 3988 
Q 3128 4100 2886 4159 
Q 2644 4219 2406 4219 
Q 1781 4219 1451 3797 
Q 1122 3375 1075 2522 
Q 1259 2794 1537 2939 
Q 1816 3084 2150 3084 
Q 2853 3084 3261 2657 
Q 3669 2231 3669 1497 
Q 3669 778 3244 343 
Q 2819 -91 2113 -91 
Q 1303 -91 875 529 
Q 447 1150 447 2328 
Q 447 3434 972 4092 
Q 1497 4750 2381 4750 
Q 2619 4750 2861 4703 
Q 3103 4656 3366 4563 
z
" transform="scale(0.015625)"/>
       </defs>
       <use xlink:href="#DejaVuSans-36"/>
       <use xlink:href="#DejaVuSans-30" x="63.623047"/>
      </g>
     </g>
    </g>
    <g id="xtick_5">
     <g id="line2d_5">
      <g>
       <use xlink:href="#m0aef1e8703" x="319.936625" y="288.21825" style="stroke: #000000; stroke-width: 0.8"/>
      </g>
     </g>
     <g id="text_5">
      <!-- 80 -->
      <g transform="translate(313.574125 302.816687)scale(0.1 -0.1)">
       <defs>
        <path id="DejaVuSans-38" d="M 2034 2216 
Q 1584 2216 1326 1975 
Q 1069 1734 1069 1313 
Q 1069 891 1326 650 
Q 1584 409 2034 409 
Q 2484 409 2743 651 
Q 3003 894 3003 1313 
Q 3003 1734 2745 1975 
Q 2488 2216 2034 2216 
z
M 1403 2484 
Q 997 2584 770 2862 
Q 544 3141 544 3541 
Q 544 4100 942 4425 
Q 1341 4750 2034 4750 
Q 2731 4750 3128 4425 
Q 3525 4100 3525 3541 
Q 3525 3141 3298 2862 
Q 3072 2584 2669 2484 
Q 3125 2378 3379 2068 
Q 3634 1759 3634 1313 
Q 3634 634 3220 271 
Q 2806 -91 2034 -91 
Q 1263 -91 848 271 
Q 434 634 434 1313 
Q 434 1759 690 2068 
Q 947 2378 1403 2484 
z
M 1172 3481 
Q 1172 3119 1398 2916 
Q 1625 2713 2034 2713 
Q 2441 2713 2670 2916 
Q 2900 3119 2900 3481 
Q 2900 3844 2670 4047 
Q 2441 4250 2034 4250 
Q 1625 4250 1398 4047 
Q 1172 3844 1172 3481 
z
" transform="scale(0.015625)"/>
       </defs>
       <use xlink:href="#DejaVuSans-38"/>
       <use xlink:href="#DejaVuSans-30" x="63.623047"/>
      </g>
     </g>
    </g>
    <g id="xtick_6">
     <g id="line2d_6">
      <g>
       <use xlink:href="#m0aef1e8703" x="391.360625" y="288.21825" style="stroke: #000000; stroke-width: 0.8"/>
      </g>
     </g>
     <g id="text_6">
      <!-- 100 -->
      <g transform="translate(381.816875 302.816687)scale(0.1 -0.1)">
       <defs>
        <path id="DejaVuSans-31" d="M 794 531 
L 1825 531 
L 1825 4091 
L 703 3866 
L 703 4441 
L 1819 4666 
L 2450 4666 
L 2450 531 
L 3481 531 
L 3481 0 
L 794 0 
L 794 531 
z
" transform="scale(0.015625)"/>
       </defs>
       <use xlink:href="#DejaVuSans-31"/>
       <use xlink:href="#DejaVuSans-30" x="63.623047"/>
       <use xlink:href="#DejaVuSans-30" x="127.246094"/>
      </g>
     </g>
    </g>
    <g id="text_7">
     <!-- axialRotation -->
     <g transform="translate(180.024844 316.494812)scale(0.1 -0.1)">
      <defs>
       <path id="DejaVuSans-61" d="M 2194 1759 
Q 1497 1759 1228 1600 
Q 959 1441 959 1056 
Q 959 750 1161 570 
Q 1363 391 1709 391 
Q 2188 391 2477 730 
Q 2766 1069 2766 1631 
L 2766 1759 
L 2194 1759 
z
M 3341 1997 
L 3341 0 
L 2766 0 
L 2766 531 
Q 2569 213 2275 61 
Q 1981 -91 1556 -91 
Q 1019 -91 701 211 
Q 384 513 384 1019 
Q 384 1609 779 1909 
Q 1175 2209 1959 2209 
L 2766 2209 
L 2766 2266 
Q 2766 2663 2505 2880 
Q 2244 3097 1772 3097 
Q 1472 3097 1187 3025 
Q 903 2953 641 2809 
L 641 3341 
Q 956 3463 1253 3523 
Q 1550 3584 1831 3584 
Q 2591 3584 2966 3190 
Q 3341 2797 3341 1997 
z
" transform="scale(0.015625)"/>
       <path id="DejaVuSans-78" d="M 3513 3500 
L 2247 1797 
L 3578 0 
L 2900 0 
L 1881 1375 
L 863 0 
L 184 0 
L 1544 1831 
L 300 3500 
L 978 3500 
L 1906 2253 
L 2834 3500 
L 3513 3500 
z
" transform="scale(0.015625)"/>
       <path id="DejaVuSans-69" d="M 603 3500 
L 1178 3500 
L 1178 0 
L 603 0 
L 603 3500 
z
M 603 4863 
L 1178 4863 
L 1178 4134 
L 603 4134 
L 603 4863 
z
" transform="scale(0.015625)"/>
       <path id="DejaVuSans-6c" d="M 603 4863 
L 1178 4863 
L 1178 0 
L 603 0 
L 603 4863 
z
" transform="scale(0.015625)"/>
       <path id="DejaVuSans-52" d="M 2841 2188 
Q 3044 2119 3236 1894 
Q 3428 1669 3622 1275 
L 4263 0 
L 3584 0 
L 2988 1197 
Q 2756 1666 2539 1819 
Q 2322 1972 1947 1972 
L 1259 1972 
L 1259 0 
L 628 0 
L 628 4666 
L 2053 4666 
Q 2853 4666 3247 4331 
Q 3641 3997 3641 3322 
Q 3641 2881 3436 2590 
Q 3231 2300 2841 2188 
z
M 1259 4147 
L 1259 2491 
L 2053 2491 
Q 2509 2491 2742 2702 
Q 2975 2913 2975 3322 
Q 2975 3731 2742 3939 
Q 2509 4147 2053 4147 
L 1259 4147 
z
" transform="scale(0.015625)"/>
       <path id="DejaVuSans-6f" d="M 1959 3097 
Q 1497 3097 1228 2736 
Q 959 2375 959 1747 
Q 959 1119 1226 758 
Q 1494 397 1959 397 
Q 2419 397 2687 759 
Q 2956 1122 2956 1747 
Q 2956 2369 2687 2733 
Q 2419 3097 1959 3097 
z
M 1959 3584 
Q 2709 3584 3137 3096 
Q 3566 2609 3566 1747 
Q 3566 888 3137 398 
Q 2709 -91 1959 -91 
Q 1206 -91 779 398 
Q 353 888 353 1747 
Q 353 2609 779 3096 
Q 1206 3584 1959 3584 
z
" transform="scale(0.015625)"/>
       <path id="DejaVuSans-74" d="M 1172 4494 
L 1172 3500 
L 2356 3500 
L 2356 3053 
L 1172 3053 
L 1172 1153 
Q 1172 725 1289 603 
Q 1406 481 1766 481 
L 2356 481 
L 2356 0 
L 1766 0 
Q 1100 0 847 248 
Q 594 497 594 1153 
L 594 3053 
L 172 3053 
L 172 3500 
L 594 3500 
L 594 4494 
L 1172 4494 
z
" transform="scale(0.015625)"/>
       <path id="DejaVuSans-6e" d="M 3513 2113 
L 3513 0 
L 2938 0 
L 2938 2094 
Q 2938 2591 2744 2837 
Q 2550 3084 2163 3084 
Q 1697 3084 1428 2787 
Q 1159 2491 1159 1978 
L 1159 0 
L 581 0 
L 581 3500 
L 1159 3500 
L 1159 2956 
Q 1366 3272 1645 3428 
Q 1925 3584 2291 3584 
Q 2894 3584 3203 3211 
Q 3513 2838 3513 2113 
z
" transform="scale(0.015625)"/>
      </defs>
      <use xlink:href="#DejaVuSans-61"/>
      <use xlink:href="#DejaVuSans-78" x="61.279297"/>
      <use xlink:href="#DejaVuSans-69" x="120.458984"/>
      <use xlink:href="#DejaVuSans-61" x="148.242188"/>
      <use xlink:href="#DejaVuSans-6c" x="209.521484"/>
      <use xlink:href="#DejaVuSans-52" x="237.304688"/>
      <use xlink:href="#DejaVuSans-6f" x="302.287109"/>
      <use xlink:href="#DejaVuSans-74" x="363.46875"/>
      <use xlink:href="#DejaVuSans-61" x="402.677734"/>
      <use xlink:href="#DejaVuSans-74" x="463.957031"/>
      <use xlink:href="#DejaVuSans-69" x="503.166016"/>
      <use xlink:href="#DejaVuSans-6f" x="530.949219"/>
      <use xlink:href="#DejaVuSans-6e" x="592.130859"/>
     </g>
    </g>
   </g>
   <g id="matplotlib.axis_2">
    <g id="ytick_1">
     <g id="line2d_7">
      <defs>
       <path id="m86ecaf281b" d="M 0 0 
L -3.5 0 
" style="stroke: #000000; stroke-width: 0.8"/>
      </defs>
      <g>
       <use xlink:href="#m86ecaf281b" x="34.240625" y="288.21825" style="stroke: #000000; stroke-width: 0.8"/>
      </g>
     </g>
     <g id="text_8">
      <!-- 0 -->
      <g transform="translate(20.878125 292.017469)scale(0.1 -0.1)">
       <use xlink:href="#DejaVuSans-30"/>
      </g>
     </g>
    </g>
    <g id="ytick_2">
     <g id="line2d_8">
      <g>
       <use xlink:href="#m86ecaf281b" x="34.240625" y="243.86625" style="stroke: #000000; stroke-width: 0.8"/>
      </g>
     </g>
     <g id="text_9">
      <!-- 1 -->
      <g transform="translate(20.878125 247.665469)scale(0.1 -0.1)">
       <use xlink:href="#DejaVuSans-31"/>
      </g>
     </g>
    </g>
    <g id="ytick_3">
     <g id="line2d_9">
      <g>
       <use xlink:href="#m86ecaf281b" x="34.240625" y="199.51425" style="stroke: #000000; stroke-width: 0.8"/>
      </g>
     </g>
     <g id="text_10">
      <!-- 2 -->
      <g transform="translate(20.878125 203.313469)scale(0.1 -0.1)">
       <use xlink:href="#DejaVuSans-32"/>
      </g>
     </g>
    </g>
    <g id="ytick_4">
     <g id="line2d_10">
      <g>
       <use xlink:href="#m86ecaf281b" x="34.240625" y="155.16225" style="stroke: #000000; stroke-width: 0.8"/>
      </g>
     </g>
     <g id="text_11">
      <!-- 3 -->
      <g transform="translate(20.878125 158.961469)scale(0.1 -0.1)">
       <defs>
        <path id="DejaVuSans-33" d="M 2597 2516 
Q 3050 2419 3304 2112 
Q 3559 1806 3559 1356 
Q 3559 666 3084 287 
Q 2609 -91 1734 -91 
Q 1441 -91 1130 -33 
Q 819 25 488 141 
L 488 750 
Q 750 597 1062 519 
Q 1375 441 1716 441 
Q 2309 441 2620 675 
Q 2931 909 2931 1356 
Q 2931 1769 2642 2001 
Q 2353 2234 1838 2234 
L 1294 2234 
L 1294 2753 
L 1863 2753 
Q 2328 2753 2575 2939 
Q 2822 3125 2822 3475 
Q 2822 3834 2567 4026 
Q 2313 4219 1838 4219 
Q 1578 4219 1281 4162 
Q 984 4106 628 3988 
L 628 4550 
Q 988 4650 1302 4700 
Q 1616 4750 1894 4750 
Q 2613 4750 3031 4423 
Q 3450 4097 3450 3541 
Q 3450 3153 3228 2886 
Q 3006 2619 2597 2516 
z
" transform="scale(0.015625)"/>
       </defs>
       <use xlink:href="#DejaVuSans-33"/>
      </g>
     </g>
    </g>
    <g id="ytick_5">
     <g id="line2d_11">
      <g>
       <use xlink:href="#m86ecaf281b" x="34.240625" y="110.81025" style="stroke: #000000; stroke-width: 0.8"/>
      </g>
     </g>
     <g id="text_12">
      <!-- 4 -->
      <g transform="translate(20.878125 114.609469)scale(0.1 -0.1)">
       <use xlink:href="#DejaVuSans-34"/>
      </g>
     </g>
    </g>
    <g id="ytick_6">
     <g id="line2d_12">
      <g>
       <use xlink:href="#m86ecaf281b" x="34.240625" y="66.45825" style="stroke: #000000; stroke-width: 0.8"/>
      </g>
     </g>
     <g id="text_13">
      <!-- 5 -->
      <g transform="translate(20.878125 70.257469)scale(0.1 -0.1)">
       <defs>
        <path id="DejaVuSans-35" d="M 691 4666 
L 3169 4666 
L 3169 4134 
L 1269 4134 
L 1269 2991 
Q 1406 3038 1543 3061 
Q 1681 3084 1819 3084 
Q 2600 3084 3056 2656 
Q 3513 2228 3513 1497 
Q 3513 744 3044 326 
Q 2575 -91 1722 -91 
Q 1428 -91 1123 -41 
Q 819 9 494 109 
L 494 744 
Q 775 591 1075 516 
Q 1375 441 1709 441 
Q 2250 441 2565 725 
Q 2881 1009 2881 1497 
Q 2881 1984 2565 2268 
Q 2250 2553 1709 2553 
Q 1456 2553 1204 2497 
Q 953 2441 691 2322 
L 691 4666 
z
" transform="scale(0.015625)"/>
       </defs>
       <use xlink:href="#DejaVuSans-35"/>
      </g>
     </g>
    </g>
    <g id="ytick_7">
     <g id="line2d_13">
      <g>
       <use xlink:href="#m86ecaf281b" x="34.240625" y="22.10625" style="stroke: #000000; stroke-width: 0.8"/>
      </g>
     </g>
     <g id="text_14">
      <!-- 6 -->
      <g transform="translate(20.878125 25.905469)scale(0.1 -0.1)">
       <use xlink:href="#DejaVuSans-36"/>
      </g>
     </g>
    </g>
    <g id="text_15">
     <!-- zShift -->
     <g transform="translate(14.798438 169.151312)rotate(-90)scale(0.1 -0.1)">
      <defs>
       <path id="DejaVuSans-7a" d="M 353 3500 
L 3084 3500 
L 3084 2975 
L 922 459 
L 3084 459 
L 3084 0 
L 275 0 
L 275 525 
L 2438 3041 
L 353 3041 
L 353 3500 
z
" transform="scale(0.015625)"/>
       <path id="DejaVuSans-53" d="M 3425 4513 
L 3425 3897 
Q 3066 4069 2747 4153 
Q 2428 4238 2131 4238 
Q 1616 4238 1336 4038 
Q 1056 3838 1056 3469 
Q 1056 3159 1242 3001 
Q 1428 2844 1947 2747 
L 2328 2669 
Q 3034 2534 3370 2195 
Q 3706 1856 3706 1288 
Q 3706 609 3251 259 
Q 2797 -91 1919 -91 
Q 1588 -91 1214 -16 
Q 841 59 441 206 
L 441 856 
Q 825 641 1194 531 
Q 1563 422 1919 422 
Q 2459 422 2753 634 
Q 3047 847 3047 1241 
Q 3047 1584 2836 1778 
Q 2625 1972 2144 2069 
L 1759 2144 
Q 1053 2284 737 2584 
Q 422 2884 422 3419 
Q 422 4038 858 4394 
Q 1294 4750 2059 4750 
Q 2388 4750 2728 4690 
Q 3069 4631 3425 4513 
z
" transform="scale(0.015625)"/>
       <path id="DejaVuSans-68" d="M 3513 2113 
L 3513 0 
L 2938 0 
L 2938 2094 
Q 2938 2591 2744 2837 
Q 2550 3084 2163 3084 
Q 1697 3084 1428 2787 
Q 1159 2491 1159 1978 
L 1159 0 
L 581 0 
L 581 4863 
L 1159 4863 
L 1159 2956 
Q 1366 3272 1645 3428 
Q 1925 3584 2291 3584 
Q 2894 3584 3203 3211 
Q 3513 2838 3513 2113 
z
" transform="scale(0.015625)"/>
       <path id="DejaVuSans-66" d="M 2375 4863 
L 2375 4384 
L 1825 4384 
Q 1516 4384 1395 4259 
Q 1275 4134 1275 3809 
L 1275 3500 
L 2222 3500 
L 2222 3053 
L 1275 3053 
L 1275 0 
L 697 0 
L 697 3053 
L 147 3053 
L 147 3500 
L 697 3500 
L 697 3744 
Q 697 4328 969 4595 
Q 1241 4863 1831 4863 
L 2375 4863 
z
" transform="scale(0.015625)"/>
      </defs>
      <use xlink:href="#DejaVuSans-7a"/>
      <use xlink:href="#DejaVuSans-53" x="52.490234"/>
      <use xlink:href="#DejaVuSans-68" x="115.966797"/>
      <use xlink:href="#DejaVuSans-69" x="179.345703"/>
      <use xlink:href="#DejaVuSans-66" x="207.128906"/>
      <use xlink:href="#DejaVuSans-74" x="240.583984"/>
     </g>
    </g>
   </g>
   <g id="PathCollection_1"/>
   <g id="PathCollection_2">
    <path d="M 362.318233 22.10625 
L 362.648177 23.246973 
L 363.099835 24.76737 
L 363.719252 27.42849 
L 364.188214 30.08961 
L 364.433777 31.930288 
L 364.550975 32.75073 
L 364.838685 35.41185 
L 365.048542 38.07297 
L 365.198871 40.73409 
L 365.304331 43.39521 
L 365.386102 46.49985 
L 365.431164 49.16097 
L 365.460432 51.82209 
L 365.479044 54.48321 
L 365.490692 57.14433 
L 365.49789 59.80545 
L 365.502254 62.46657 
L 365.504776 65.12769 
L 365.506084 67.78881 
L 365.506621 70.44993 
L 365.506745 73.11105 
L 365.506744 75.77217 
L 365.506808 78.43329 
L 365.507002 81.09441 
L 365.507271 83.75553 
L 365.507492 86.41665 
L 365.507552 89.52129 
L 365.507406 92.18241 
L 365.507161 94.84353 
L 365.506949 97.50465 
L 365.506887 100.16577 
L 365.507008 102.82689 
L 365.507246 105.48801 
L 365.507473 108.14913 
L 365.507565 110.81025 
L 365.507473 113.47137 
L 365.507246 116.13249 
L 365.507008 118.79361 
L 365.506887 121.45473 
L 365.50695 124.11585 
L 365.507161 126.77697 
L 365.507407 129.43809 
L 365.507555 132.09921 
L 365.5075 135.20385 
L 365.507289 137.86497 
L 365.507043 140.52609 
L 365.506895 143.18721 
L 365.506927 145.84833 
L 365.50712 148.50945 
L 365.50737 151.17057 
L 365.507541 153.83169 
L 365.507541 156.49281 
L 365.50737 159.15393 
L 365.50712 161.81505 
L 365.506927 164.47617 
L 365.506895 167.13729 
L 365.507043 169.79841 
L 365.507289 172.45953 
L 365.5075 175.12065 
L 365.507555 178.22529 
L 365.507407 180.88641 
L 365.507161 183.54753 
L 365.50695 186.20865 
L 365.506887 188.86977 
L 365.507008 191.53089 
L 365.507246 194.19201 
L 365.507473 196.85313 
L 365.507565 199.51425 
L 365.507473 202.17537 
L 365.507246 204.83649 
L 365.507008 207.49761 
L 365.506887 210.15873 
L 365.506949 212.81985 
L 365.507161 215.48097 
L 365.507406 218.14209 
L 365.507552 220.80321 
L 365.507492 223.90785 
L 365.507271 226.56897 
L 365.507002 229.23009 
L 365.506808 231.89121 
L 365.506744 234.55233 
L 365.506745 237.21345 
L 365.506621 239.87457 
L 365.506084 242.53569 
L 365.504776 245.19681 
L 365.502254 247.85793 
L 365.49789 250.51905 
L 365.490692 253.18017 
L 365.479044 255.84129 
L 365.460432 258.50241 
L 365.431164 261.16353 
L 365.386102 263.82465 
L 365.304331 266.92929 
L 365.198871 269.59041 
L 365.048542 272.25153 
L 364.838685 274.91265 
L 364.550975 277.57377 
L 364.433777 278.394212 
L 364.188214 280.23489 
L 363.719252 282.89601 
L 363.099835 285.55713 
L 362.648177 287.077527 
L 362.318233 288.21825 
" clip-path="url(#pf8af87da63)" style="fill: none; stroke: #dbe9f6; stroke-width: 1.5"/>
   </g>
   <g id="PathCollection_3">
    <path d="M 352.08012 22.10625 
L 353.182374 24.76737 
L 353.684465 26.324819 
L 354.036298 27.42849 
L 354.698143 30.08961 
L 355.194423 32.75073 
L 355.470065 34.734519 
L 355.566607 35.41185 
L 355.848236 38.07297 
L 356.049978 40.73409 
L 356.191505 43.39521 
L 356.301242 46.49985 
L 356.361715 49.16097 
L 356.400994 51.82209 
L 356.425971 54.48321 
L 356.441602 57.14433 
L 356.451262 59.80545 
L 356.457118 62.46657 
L 356.460503 65.12769 
L 356.462259 67.78881 
L 356.462979 70.44993 
L 356.463145 73.11105 
L 356.463144 75.77217 
L 356.46323 78.43329 
L 356.46349 81.09441 
L 356.463851 83.75553 
L 356.464148 86.41665 
L 356.464228 89.52129 
L 356.464032 92.18241 
L 356.463703 94.84353 
L 356.46342 97.50465 
L 356.463336 100.16577 
L 356.463498 102.82689 
L 356.463818 105.48801 
L 356.464122 108.14913 
L 356.464246 110.81025 
L 356.464122 113.47137 
L 356.463818 116.13249 
L 356.463498 118.79361 
L 356.463336 121.45473 
L 356.46342 124.11585 
L 356.463704 126.77697 
L 356.464034 129.43809 
L 356.464232 132.09921 
L 356.464159 135.20385 
L 356.463875 137.86497 
L 356.463545 140.52609 
L 356.463347 143.18721 
L 356.463389 145.84833 
L 356.463648 148.50945 
L 356.463984 151.17057 
L 356.464214 153.83169 
L 356.464214 156.49281 
L 356.463984 159.15393 
L 356.463648 161.81505 
L 356.463389 164.47617 
L 356.463347 167.13729 
L 356.463545 169.79841 
L 356.463875 172.45953 
L 356.464159 175.12065 
L 356.464232 178.22529 
L 356.464034 180.88641 
L 356.463704 183.54753 
L 356.46342 186.20865 
L 356.463336 188.86977 
L 356.463498 191.53089 
L 356.463818 194.19201 
L 356.464122 196.85313 
L 356.464246 199.51425 
L 356.464122 202.17537 
L 356.463818 204.83649 
L 356.463498 207.49761 
L 356.463336 210.15873 
L 356.46342 212.81985 
L 356.463703 215.48097 
L 356.464032 218.14209 
L 356.464228 220.80321 
L 356.464148 223.90785 
L 356.463851 226.56897 
L 356.46349 229.23009 
L 356.46323 231.89121 
L 356.463144 234.55233 
L 356.463145 237.21345 
L 356.462979 239.87457 
L 356.462259 242.53569 
L 356.460503 245.19681 
L 356.457118 247.85793 
L 356.451262 250.51905 
L 356.441602 253.18017 
L 356.425971 255.84129 
L 356.400994 258.50241 
L 356.361715 261.16353 
L 356.301242 263.82465 
L 356.191505 266.92929 
L 356.049978 269.59041 
L 355.848236 272.25153 
L 355.566607 274.91265 
L 355.470065 275.589981 
L 355.194423 277.57377 
L 354.698143 280.23489 
L 354.036298 282.89601 
L 353.684465 283.999681 
L 353.182374 285.55713 
L 352.08012 288.21825 
" clip-path="url(#pf8af87da63)" style="fill: none; stroke: #bad6eb; stroke-width: 1.5"/>
   </g>
   <g id="PathCollection_4">
    <path d="M 343.448583 22.10625 
L 344.685041 24.157376 
L 345.026382 24.76737 
L 346.218389 27.42849 
L 346.506353 28.254519 
L 347.120072 30.08961 
L 347.795915 32.75073 
L 348.291953 35.387423 
L 348.29648 35.41185 
L 348.664814 38.07297 
L 348.928666 40.73409 
L 349.113764 43.39521 
L 349.257286 46.49985 
L 349.336377 49.16097 
L 349.387748 51.82209 
L 349.420415 54.48321 
L 349.440859 57.14433 
L 349.453493 59.80545 
L 349.461151 62.46657 
L 349.465579 65.12769 
L 349.467875 67.78881 
L 349.468817 70.44993 
L 349.469034 73.11105 
L 349.469032 75.77217 
L 349.469145 78.43329 
L 349.469486 81.09441 
L 349.469957 83.75553 
L 349.470346 86.41665 
L 349.47045 89.52129 
L 349.470195 92.18241 
L 349.469764 94.84353 
L 349.469393 97.50465 
L 349.469284 100.16577 
L 349.469496 102.82689 
L 349.469914 105.48801 
L 349.470312 108.14913 
L 349.470474 110.81025 
L 349.470312 113.47137 
L 349.469914 116.13249 
L 349.469496 118.79361 
L 349.469284 121.45473 
L 349.469394 124.11585 
L 349.469765 126.77697 
L 349.470197 129.43809 
L 349.470455 132.09921 
L 349.47036 135.20385 
L 349.469989 137.86497 
L 349.469557 140.52609 
L 349.469298 143.18721 
L 349.469353 145.84833 
L 349.469692 148.50945 
L 349.470131 151.17057 
L 349.470432 153.83169 
L 349.470432 156.49281 
L 349.470131 159.15393 
L 349.469692 161.81505 
L 349.469353 164.47617 
L 349.469298 167.13729 
L 349.469557 169.79841 
L 349.469989 172.45953 
L 349.47036 175.12065 
L 349.470455 178.22529 
L 349.470197 180.88641 
L 349.469765 183.54753 
L 349.469394 186.20865 
L 349.469284 188.86977 
L 349.469496 191.53089 
L 349.469914 194.19201 
L 349.470312 196.85313 
L 349.470474 199.51425 
L 349.470312 202.17537 
L 349.469914 204.83649 
L 349.469496 207.49761 
L 349.469284 210.15873 
L 349.469393 212.81985 
L 349.469764 215.48097 
L 349.470195 218.14209 
L 349.47045 220.80321 
L 349.470346 223.90785 
L 349.469957 226.56897 
L 349.469486 229.23009 
L 349.469145 231.89121 
L 349.469032 234.55233 
L 349.469034 237.21345 
L 349.468817 239.87457 
L 349.467875 242.53569 
L 349.465579 245.19681 
L 349.461151 247.85793 
L 349.453493 250.51905 
L 349.440859 253.18017 
L 349.420415 255.84129 
L 349.387748 258.50241 
L 349.336377 261.16353 
L 349.257286 263.82465 
L 349.113764 266.92929 
L 348.928666 269.59041 
L 348.664814 272.25153 
L 348.29648 274.91265 
L 348.291953 274.937077 
L 347.795915 277.57377 
L 347.120072 280.23489 
L 346.506353 282.069981 
L 346.218389 282.89601 
L 345.026382 285.55713 
L 344.685041 286.167124 
L 343.448583 288.21825 
" clip-path="url(#pf8af87da63)" style="fill: none; stroke: #89bedc; stroke-width: 1.5"/>
   </g>
   <g id="PathCollection_5">
    <path d="M 34.240625 26.636905 
L 35.557434 24.76737 
L 36.026225 24.225775 
L 37.847537 22.355509 
L 38.121667 22.10625 
" clip-path="url(#pf8af87da63)" style="fill: none; stroke: #539ecd; stroke-width: 1.5"/>
    <path d="M 38.121667 288.21825 
L 37.847537 287.968991 
L 36.026225 286.098725 
L 35.557434 285.55713 
L 34.240625 283.687595 
" clip-path="url(#pf8af87da63)" style="fill: none; stroke: #539ecd; stroke-width: 1.5"/>
    <path d="M 333.919481 22.10625 
L 333.935729 22.120784 
L 335.721329 23.912837 
L 336.47312 24.76737 
L 337.506929 26.210283 
L 338.294229 27.42849 
L 339.328241 29.464673 
L 339.620509 30.08961 
L 340.583033 32.75073 
L 341.113841 34.720188 
L 341.290213 35.41185 
L 341.793999 38.07297 
L 342.154879 40.73409 
L 342.408046 43.39521 
L 342.604347 46.49985 
L 342.712522 49.16097 
L 342.782785 51.82209 
L 342.827464 54.48321 
L 342.855426 57.14433 
L 342.872707 59.80545 
L 342.883181 62.46657 
L 342.889236 65.12769 
L 342.892377 67.78881 
L 342.893666 70.44993 
L 342.893963 73.11105 
L 342.89396 75.77217 
L 342.894115 78.43329 
L 342.894581 81.09441 
L 342.895225 83.75553 
L 342.895757 86.41665 
L 342.8959 89.52129 
L 342.89555 92.18241 
L 342.894961 94.84353 
L 342.894454 97.50465 
L 342.894305 100.16577 
L 342.894594 102.82689 
L 342.895167 105.48801 
L 342.895711 108.14913 
L 342.895932 110.81025 
L 342.895711 113.47137 
L 342.895167 116.13249 
L 342.894595 118.79361 
L 342.894305 121.45473 
L 342.894454 124.11585 
L 342.894962 126.77697 
L 342.895553 129.43809 
L 342.895907 132.09921 
L 342.895776 135.20385 
L 342.895268 137.86497 
L 342.894678 140.52609 
L 342.894324 143.18721 
L 342.894399 145.84833 
L 342.894863 148.50945 
L 342.895463 151.17057 
L 342.895875 153.83169 
L 342.895875 156.49281 
L 342.895463 159.15393 
L 342.894863 161.81505 
L 342.894399 164.47617 
L 342.894324 167.13729 
L 342.894678 169.79841 
L 342.895268 172.45953 
L 342.895776 175.12065 
L 342.895907 178.22529 
L 342.895553 180.88641 
L 342.894962 183.54753 
L 342.894454 186.20865 
L 342.894305 188.86977 
L 342.894595 191.53089 
L 342.895167 194.19201 
L 342.895711 196.85313 
L 342.895932 199.51425 
L 342.895711 202.17537 
L 342.895167 204.83649 
L 342.894594 207.49761 
L 342.894305 210.15873 
L 342.894454 212.81985 
L 342.894961 215.48097 
L 342.89555 218.14209 
L 342.8959 220.80321 
L 342.895757 223.90785 
L 342.895225 226.56897 
L 342.894581 229.23009 
L 342.894115 231.89121 
L 342.89396 234.55233 
L 342.893963 237.21345 
L 342.893666 239.87457 
L 342.892377 242.53569 
L 342.889236 245.19681 
L 342.883181 247.85793 
L 342.872707 250.51905 
L 342.855426 253.18017 
L 342.827464 255.84129 
L 342.782785 258.50241 
L 342.712522 261.16353 
L 342.604347 263.82465 
L 342.408046 266.92929 
L 342.154879 269.59041 
L 341.793999 272.25153 
L 341.290213 274.91265 
L 341.113841 275.604312 
L 340.583033 277.57377 
L 339.620509 280.23489 
L 339.328241 280.859827 
L 338.294229 282.89601 
L 337.506929 284.114217 
L 336.47312 285.55713 
L 335.721329 286.411663 
L 333.935729 288.203716 
L 333.919481 288.21825 
" clip-path="url(#pf8af87da63)" style="fill: none; stroke: #539ecd; stroke-width: 1.5"/>
   </g>
   <g id="PathCollection_6">
    <path d="M 55.505803 288.21825 
L 53.989361 287.846949 
L 52.203761 287.322218 
L 50.382449 286.681316 
L 48.596849 285.932937 
L 47.830385 285.55713 
L 46.811249 284.960106 
L 45.025649 283.737721 
L 43.968479 282.89601 
L 43.204337 282.141972 
L 41.527381 280.23489 
L 41.418737 280.076728 
L 39.896692 277.57377 
L 39.633137 277.000434 
L 38.768544 274.91265 
L 37.960549 272.25153 
L 37.847537 271.737307 
L 37.413765 269.59041 
L 37.035632 266.92929 
L 36.742434 263.82465 
L 36.580862 261.16353 
L 36.475916 258.50241 
L 36.409182 255.84129 
L 36.367418 253.18017 
L 36.341607 250.51905 
L 36.325963 247.85793 
L 36.316918 245.19681 
L 36.312227 242.53569 
L 36.310302 239.87457 
L 36.309858 237.21345 
L 36.309863 234.55233 
L 36.309631 231.89121 
L 36.308936 229.23009 
L 36.307974 226.56897 
L 36.307179 223.90785 
L 36.306966 220.80321 
L 36.307488 218.14209 
L 36.308368 215.48097 
L 36.309125 212.81985 
L 36.309348 210.15873 
L 36.308915 207.49761 
L 36.308061 204.83649 
L 36.307248 202.17537 
L 36.306917 199.51425 
L 36.307248 196.85313 
L 36.308061 194.19201 
L 36.308915 191.53089 
L 36.309348 188.86977 
L 36.309124 186.20865 
L 36.308366 183.54753 
L 36.307483 180.88641 
L 36.306955 178.22529 
L 36.30715 175.12065 
L 36.307908 172.45953 
L 36.308791 169.79841 
L 36.309319 167.13729 
L 36.309207 164.47617 
L 36.308514 161.81505 
L 36.307618 159.15393 
L 36.307003 156.49281 
L 36.307003 153.83169 
L 36.307618 151.17057 
L 36.308514 148.50945 
L 36.309207 145.84833 
L 36.309319 143.18721 
L 36.308791 140.52609 
L 36.307908 137.86497 
L 36.30715 135.20385 
L 36.306955 132.09921 
L 36.307483 129.43809 
L 36.308366 126.77697 
L 36.309124 124.11585 
L 36.309348 121.45473 
L 36.308915 118.79361 
L 36.308061 116.13249 
L 36.307248 113.47137 
L 36.306917 110.81025 
L 36.307248 108.14913 
L 36.308061 105.48801 
L 36.308915 102.82689 
L 36.309348 100.16577 
L 36.309125 97.50465 
L 36.308368 94.84353 
L 36.307488 92.18241 
L 36.306966 89.52129 
L 36.307179 86.41665 
L 36.307974 83.75553 
L 36.308936 81.09441 
L 36.309631 78.43329 
L 36.309863 75.77217 
L 36.309858 73.11105 
L 36.310302 70.44993 
L 36.312227 67.78881 
L 36.316918 65.12769 
L 36.325963 62.46657 
L 36.341607 59.80545 
L 36.367418 57.14433 
L 36.409182 54.48321 
L 36.475916 51.82209 
L 36.580862 49.16097 
L 36.742434 46.49985 
L 37.035632 43.39521 
L 37.413765 40.73409 
L 37.847537 38.587193 
L 37.960549 38.07297 
L 38.768544 35.41185 
L 39.633137 33.324066 
L 39.896692 32.75073 
L 41.418737 30.247772 
L 41.527381 30.08961 
L 43.204337 28.182528 
L 43.968479 27.42849 
L 45.025649 26.586779 
L 46.811249 25.364394 
L 47.830385 24.76737 
L 48.596849 24.391563 
L 50.382449 23.643184 
L 52.203761 23.002282 
L 53.989361 22.477551 
L 55.505803 22.10625 
" clip-path="url(#pf8af87da63)" style="fill: none; stroke: #2b7bba; stroke-width: 1.5"/>
    <path d="M 316.513954 22.10625 
L 317.793905 22.411434 
L 319.579505 22.922996 
L 321.365105 23.534929 
L 323.150705 24.263098 
L 324.201994 24.76737 
L 324.972017 25.208649 
L 326.757617 26.403479 
L 328.070284 27.42849 
L 328.543217 27.885695 
L 330.328817 29.869708 
L 330.503248 30.08961 
L 332.145669 32.75073 
L 332.150129 32.760258 
L 333.265658 35.41185 
L 333.935729 37.588289 
L 334.072149 38.07297 
L 334.616539 40.73409 
L 334.998442 43.39521 
L 335.294563 46.49985 
L 335.457746 49.16097 
L 335.563738 51.82209 
L 335.631138 54.48321 
L 335.673318 57.14433 
L 335.699385 59.80545 
L 335.715186 62.46657 
L 335.721329 64.255985 
L 335.724141 65.12769 
L 335.728594 67.78881 
L 335.730422 70.44993 
L 335.730843 73.11105 
L 335.730839 75.77217 
L 335.731058 78.43329 
L 335.731719 81.09441 
L 335.732632 83.75553 
L 335.733387 86.41665 
L 335.733589 89.52129 
L 335.733094 92.18241 
L 335.732258 94.84353 
L 335.731539 97.50465 
L 335.731327 100.16577 
L 335.731738 102.82689 
L 335.73255 105.48801 
L 335.733321 108.14913 
L 335.733635 110.81025 
L 335.733322 113.47137 
L 335.73255 116.13249 
L 335.731739 118.79361 
L 335.731328 121.45473 
L 335.73154 124.11585 
L 335.73226 126.77697 
L 335.733098 129.43809 
L 335.733599 132.09921 
L 335.733414 135.20385 
L 335.732694 137.86497 
L 335.731856 140.52609 
L 335.731355 143.18721 
L 335.731462 145.84833 
L 335.732119 148.50945 
L 335.73297 151.17057 
L 335.733554 153.83169 
L 335.733554 156.49281 
L 335.73297 159.15393 
L 335.732119 161.81505 
L 335.731462 164.47617 
L 335.731355 167.13729 
L 335.731856 169.79841 
L 335.732694 172.45953 
L 335.733414 175.12065 
L 335.733599 178.22529 
L 335.733098 180.88641 
L 335.73226 183.54753 
L 335.73154 186.20865 
L 335.731328 188.86977 
L 335.731739 191.53089 
L 335.73255 194.19201 
L 335.733322 196.85313 
L 335.733635 199.51425 
L 335.733321 202.17537 
L 335.73255 204.83649 
L 335.731738 207.49761 
L 335.731327 210.15873 
L 335.731539 212.81985 
L 335.732258 215.48097 
L 335.733094 218.14209 
L 335.733589 220.80321 
L 335.733387 223.90785 
L 335.732632 226.56897 
L 335.731719 229.23009 
L 335.731058 231.89121 
L 335.730839 234.55233 
L 335.730843 237.21345 
L 335.730422 239.87457 
L 335.728594 242.53569 
L 335.724141 245.19681 
L 335.721329 246.068515 
L 335.715186 247.85793 
L 335.699385 250.51905 
L 335.673318 253.18017 
L 335.631138 255.84129 
L 335.563738 258.50241 
L 335.457746 261.16353 
L 335.294563 263.82465 
L 334.998442 266.92929 
L 334.616539 269.59041 
L 334.072149 272.25153 
L 333.935729 272.736211 
L 333.265658 274.91265 
L 332.150129 277.564242 
L 332.145669 277.57377 
L 330.503248 280.23489 
L 330.328817 280.454792 
L 328.543217 282.438805 
L 328.070284 282.89601 
L 326.757617 283.921021 
L 324.972017 285.115851 
L 324.201994 285.55713 
L 323.150705 286.061402 
L 321.365105 286.789571 
L 319.579505 287.401504 
L 317.793905 287.913066 
L 316.513954 288.21825 
" clip-path="url(#pf8af87da63)" style="fill: none; stroke: #2b7bba; stroke-width: 1.5"/>
   </g>
   <g id="PathCollection_7">
    <path d="M 46.579833 261.16353 
L 46.381145 258.50241 
L 46.254802 255.84129 
L 46.175732 253.18017 
L 46.126867 250.51905 
L 46.097248 247.85793 
L 46.080125 245.19681 
L 46.071244 242.53569 
L 46.067598 239.87457 
L 46.066759 237.21345 
L 46.066767 234.55233 
L 46.066329 231.89121 
L 46.065012 229.23009 
L 46.063191 226.56897 
L 46.061686 223.90785 
L 46.061283 220.80321 
L 46.062271 218.14209 
L 46.063937 215.48097 
L 46.065371 212.81985 
L 46.065793 210.15873 
L 46.064973 207.49761 
L 46.063355 204.83649 
L 46.061816 202.17537 
L 46.06119 199.51425 
L 46.061816 196.85313 
L 46.063355 194.19201 
L 46.064973 191.53089 
L 46.065793 188.86977 
L 46.06537 186.20865 
L 46.063933 183.54753 
L 46.062262 180.88641 
L 46.061263 178.22529 
L 46.061631 175.12065 
L 46.063067 172.45953 
L 46.064738 169.79841 
L 46.065738 167.13729 
L 46.065525 164.47617 
L 46.064214 161.81505 
L 46.062517 159.15393 
L 46.061352 156.49281 
L 46.061352 153.83169 
L 46.062517 151.17057 
L 46.064214 148.50945 
L 46.065525 145.84833 
L 46.065738 143.18721 
L 46.064738 140.52609 
L 46.063067 137.86497 
L 46.061631 135.20385 
L 46.061263 132.09921 
L 46.062262 129.43809 
L 46.063933 126.77697 
L 46.06537 124.11585 
L 46.065793 121.45473 
L 46.064973 118.79361 
L 46.063355 116.13249 
L 46.061816 113.47137 
L 46.06119 110.81025 
L 46.061816 108.14913 
L 46.063355 105.48801 
L 46.064973 102.82689 
L 46.065793 100.16577 
L 46.065371 97.50465 
L 46.063937 94.84353 
L 46.062271 92.18241 
L 46.061283 89.52129 
L 46.061686 86.41665 
L 46.063191 83.75553 
L 46.065012 81.09441 
L 46.066329 78.43329 
L 46.066767 75.77217 
L 46.066759 73.11105 
L 46.067598 70.44993 
L 46.071244 67.78881 
L 46.080125 65.12769 
L 46.097248 62.46657 
L 46.126867 59.80545 
L 46.175732 57.14433 
L 46.254802 54.48321 
L 46.381145 51.82209 
L 46.579833 49.16097 
L 46.811249 47.145837 
L 46.895292 46.49985 
L 47.521668 43.39521 
L 48.329497 40.73409 
L 48.596849 40.110118 
L 49.604577 38.07297 
L 50.382449 36.931605 
L 51.597825 35.41185 
L 52.203761 34.844439 
L 53.989361 33.433808 
L 55.024151 32.75073 
L 55.774961 32.366992 
L 57.560561 31.60782 
L 59.381873 30.973096 
L 61.167473 30.466745 
L 62.810101 30.08961 
L 62.953073 30.063301 
L 64.738673 29.798255 
L 66.559985 29.583399 
L 68.345585 29.417446 
L 70.131185 29.287516 
L 71.916785 29.186685 
L 73.738097 29.107791 
L 75.523697 29.049024 
L 77.309297 29.004661 
L 79.094897 28.971486 
L 80.916209 28.946491 
L 82.701809 28.928571 
L 84.487409 28.915548 
L 86.273009 28.906175 
L 88.094321 28.899382 
L 89.879921 28.894698 
L 91.665521 28.891422 
L 93.451121 28.889155 
L 95.272433 28.887574 
L 97.058033 28.886525 
L 98.843633 28.88582 
L 100.629233 28.88535 
L 102.450545 28.885036 
L 104.236145 28.884835 
L 106.021745 28.884705 
L 107.807345 28.884621 
L 109.628657 28.884568 
L 111.414257 28.884535 
L 113.199857 28.884514 
L 114.985457 28.884502 
L 116.806769 28.884494 
L 118.592369 28.884489 
L 120.377969 28.884486 
L 122.163569 28.884485 
L 123.984881 28.884484 
L 125.770481 28.884483 
L 127.556081 28.884483 
L 129.341681 28.884483 
L 131.162993 28.884482 
L 132.948593 28.884482 
L 134.734193 28.884482 
L 136.519793 28.884482 
L 138.341105 28.884482 
L 140.126705 28.884482 
L 141.912305 28.884482 
L 143.697905 28.884482 
L 145.519217 28.884482 
L 147.304817 28.884482 
L 149.090417 28.884482 
L 150.876017 28.884482 
L 152.697329 28.884482 
L 154.482929 28.884482 
L 156.268529 28.884482 
L 158.054129 28.884482 
L 159.875441 28.884482 
L 161.661041 28.884482 
L 163.446641 28.884482 
L 165.232241 28.884482 
L 167.053553 28.884482 
L 168.839153 28.884482 
L 170.624753 28.884482 
L 172.410353 28.884482 
L 174.231665 28.884482 
L 176.017265 28.884482 
L 177.802865 28.884482 
L 179.588465 28.884482 
L 181.409777 28.884482 
L 183.195377 28.884482 
L 184.980977 28.884482 
L 186.766577 28.884482 
L 188.587889 28.884482 
L 190.373489 28.884482 
L 192.159089 28.884482 
L 193.944689 28.884482 
L 195.766001 28.884482 
L 197.551601 28.884482 
L 199.337201 28.884482 
L 201.122801 28.884482 
L 202.944113 28.884482 
L 204.729713 28.884482 
L 206.515313 28.884482 
L 208.300913 28.884482 
L 210.122225 28.884482 
L 211.907825 28.884482 
L 213.693425 28.884482 
L 215.479025 28.884482 
L 217.300337 28.884482 
L 219.085937 28.884482 
L 220.871537 28.884482 
L 222.657137 28.884482 
L 224.478449 28.884482 
L 226.264049 28.884482 
L 228.049649 28.884482 
L 229.835249 28.884482 
L 231.656561 28.884482 
L 233.442161 28.884482 
L 235.227761 28.884482 
L 237.013361 28.884482 
L 238.834673 28.884482 
L 240.620273 28.884482 
L 242.405873 28.884483 
L 244.191473 28.884483 
L 246.012785 28.884483 
L 247.798385 28.884483 
L 249.583985 28.884484 
L 251.369585 28.884486 
L 253.190897 28.884489 
L 254.976497 28.884493 
L 256.762097 28.8845 
L 258.547697 28.884512 
L 260.369009 28.884531 
L 262.154609 28.884562 
L 263.940209 28.884611 
L 265.725809 28.884689 
L 267.547121 28.884813 
L 269.332721 28.885002 
L 271.118321 28.885292 
L 272.903921 28.885732 
L 274.725233 28.886409 
L 276.510833 28.887401 
L 278.296433 28.888864 
L 280.082033 28.891001 
L 281.903345 28.894165 
L 283.688945 28.898623 
L 285.474545 28.904947 
L 287.260145 28.913831 
L 289.081457 28.926485 
L 290.867057 28.943632 
L 292.652657 28.967035 
L 294.438257 28.998676 
L 296.259569 29.042027 
L 298.045169 29.098558 
L 299.830769 29.17285 
L 301.616369 29.269591 
L 303.437681 29.397258 
L 305.223281 29.557706 
L 307.008881 29.761119 
L 308.794481 30.016832 
L 309.202671 30.08961 
L 310.615793 30.403946 
L 312.401393 30.895744 
L 314.186993 31.499512 
L 315.972593 32.235477 
L 317.007776 32.75073 
L 317.793905 33.256065 
L 319.579505 34.631294 
L 320.433221 35.41185 
L 321.365105 36.548849 
L 322.429494 38.07297 
L 323.150705 39.495169 
L 323.693323 40.73409 
L 324.516624 43.39521 
L 324.972017 45.605405 
L 325.133743 46.49985 
L 325.444669 49.16097 
L 325.646625 51.82209 
L 325.775046 54.48321 
L 325.855416 57.14433 
L 325.905085 59.80545 
L 325.935191 62.46657 
L 325.952596 65.12769 
L 325.961622 67.78881 
L 325.965328 70.44993 
L 325.966181 73.11105 
L 325.966173 75.77217 
L 325.966618 78.43329 
L 325.967957 81.09441 
L 325.969808 83.75553 
L 325.971338 86.41665 
L 325.971748 89.52129 
L 325.970743 92.18241 
L 325.96905 94.84353 
L 325.967592 97.50465 
L 325.967163 100.16577 
L 325.967997 102.82689 
L 325.969641 105.48801 
L 325.971206 108.14913 
L 325.971842 110.81025 
L 325.971206 113.47137 
L 325.969641 116.13249 
L 325.967997 118.79361 
L 325.967164 121.45473 
L 325.967594 124.11585 
L 325.969054 126.77697 
L 325.970752 129.43809 
L 325.971768 132.09921 
L 325.971394 135.20385 
L 325.969934 137.86497 
L 325.968235 140.52609 
L 325.967219 143.18721 
L 325.967436 145.84833 
L 325.968768 148.50945 
L 325.970494 151.17057 
L 325.971677 153.83169 
L 325.971677 156.49281 
L 325.970494 159.15393 
L 325.968768 161.81505 
L 325.967436 164.47617 
L 325.967219 167.13729 
L 325.968235 169.79841 
L 325.969934 172.45953 
L 325.971394 175.12065 
L 325.971768 178.22529 
L 325.970752 180.88641 
L 325.969054 183.54753 
L 325.967594 186.20865 
L 325.967164 188.86977 
L 325.967997 191.53089 
L 325.969641 194.19201 
L 325.971206 196.85313 
L 325.971842 199.51425 
L 325.971206 202.17537 
L 325.969641 204.83649 
L 325.967997 207.49761 
L 325.967163 210.15873 
L 325.967592 212.81985 
L 325.96905 215.48097 
L 325.970743 218.14209 
L 325.971748 220.80321 
L 325.971338 223.90785 
L 325.969808 226.56897 
L 325.967957 229.23009 
L 325.966618 231.89121 
L 325.966173 234.55233 
L 325.966181 237.21345 
L 325.965328 239.87457 
L 325.961622 242.53569 
L 325.952596 245.19681 
L 325.935191 247.85793 
L 325.905085 250.51905 
L 325.855416 253.18017 
L 325.775046 255.84129 
L 325.646625 258.50241 
L 325.444669 261.16353 
L 325.133743 263.82465 
L 324.972017 264.719095 
L 324.516624 266.92929 
L 323.693323 269.59041 
L 323.150705 270.829331 
L 322.429494 272.25153 
L 321.365105 273.775651 
L 320.433221 274.91265 
L 319.579505 275.693206 
L 317.793905 277.068435 
L 317.007776 277.57377 
L 315.972593 278.089023 
L 314.186993 278.824988 
L 312.401393 279.428756 
L 310.615793 279.920554 
L 309.202671 280.23489 
L 308.794481 280.307668 
L 307.008881 280.563381 
L 305.223281 280.766794 
L 303.437681 280.927242 
L 301.616369 281.054909 
L 299.830769 281.15165 
L 298.045169 281.225942 
L 296.259569 281.282473 
L 294.438257 281.325824 
L 292.652657 281.357465 
L 290.867057 281.380868 
L 289.081457 281.398015 
L 287.260145 281.410669 
L 285.474545 281.419553 
L 283.688945 281.425877 
L 281.903345 281.430335 
L 280.082033 281.433499 
L 278.296433 281.435636 
L 276.510833 281.437099 
L 274.725233 281.438091 
L 272.903921 281.438768 
L 271.118321 281.439208 
L 269.332721 281.439498 
L 267.547121 281.439687 
L 265.725809 281.439811 
L 263.940209 281.439889 
L 262.154609 281.439938 
L 260.369009 281.439969 
L 258.547697 281.439988 
L 256.762097 281.44 
L 254.976497 281.440007 
L 253.190897 281.440011 
L 251.369585 281.440014 
L 249.583985 281.440016 
L 247.798385 281.440017 
L 246.012785 281.440017 
L 244.191473 281.440017 
L 242.405873 281.440017 
L 240.620273 281.440018 
L 238.834673 281.440018 
L 237.013361 281.440018 
L 235.227761 281.440018 
L 233.442161 281.440018 
L 231.656561 281.440018 
L 229.835249 281.440018 
L 228.049649 281.440018 
L 226.264049 281.440018 
L 224.478449 281.440018 
L 222.657137 281.440018 
L 220.871537 281.440018 
L 219.085937 281.440018 
L 217.300337 281.440018 
L 215.479025 281.440018 
L 213.693425 281.440018 
L 211.907825 281.440018 
L 210.122225 281.440018 
L 208.300913 281.440018 
L 206.515313 281.440018 
L 204.729713 281.440018 
L 202.944113 281.440018 
L 201.122801 281.440018 
L 199.337201 281.440018 
L 197.551601 281.440018 
L 195.766001 281.440018 
L 193.944689 281.440018 
L 192.159089 281.440018 
L 190.373489 281.440018 
L 188.587889 281.440018 
L 186.766577 281.440018 
L 184.980977 281.440018 
L 183.195377 281.440018 
L 181.409777 281.440018 
L 179.588465 281.440018 
L 177.802865 281.440018 
L 176.017265 281.440018 
L 174.231665 281.440018 
L 172.410353 281.440018 
L 170.624753 281.440018 
L 168.839153 281.440018 
L 167.053553 281.440018 
L 165.232241 281.440018 
L 163.446641 281.440018 
L 161.661041 281.440018 
L 159.875441 281.440018 
L 158.054129 281.440018 
L 156.268529 281.440018 
L 154.482929 281.440018 
L 152.697329 281.440018 
L 150.876017 281.440018 
L 149.090417 281.440018 
L 147.304817 281.440018 
L 145.519217 281.440018 
L 143.697905 281.440018 
L 141.912305 281.440018 
L 140.126705 281.440018 
L 138.341105 281.440018 
L 136.519793 281.440018 
L 134.734193 281.440018 
L 132.948593 281.440018 
L 131.162993 281.440018 
L 129.341681 281.440017 
L 127.556081 281.440017 
L 125.770481 281.440017 
L 123.984881 281.440016 
L 122.163569 281.440015 
L 120.377969 281.440014 
L 118.592369 281.440011 
L 116.806769 281.440006 
L 114.985457 281.439998 
L 113.199857 281.439986 
L 111.414257 281.439965 
L 109.628657 281.439932 
L 107.807345 281.439879 
L 106.021745 281.439795 
L 104.236145 281.439665 
L 102.450545 281.439464 
L 100.629233 281.43915 
L 98.843633 281.43868 
L 97.058033 281.437975 
L 95.272433 281.436926 
L 93.451121 281.435345 
L 91.665521 281.433078 
L 89.879921 281.429802 
L 88.094321 281.425118 
L 86.273009 281.418325 
L 84.487409 281.408952 
L 82.701809 281.395929 
L 80.916209 281.378009 
L 79.094897 281.353014 
L 77.309297 281.319839 
L 75.523697 281.275476 
L 73.738097 281.216709 
L 71.916785 281.137815 
L 70.131185 281.036984 
L 68.345585 280.907054 
L 66.559985 280.741101 
L 64.738673 280.526245 
L 62.953073 280.261199 
L 62.810101 280.23489 
L 61.167473 279.857755 
L 59.381873 279.351404 
L 57.560561 278.71668 
L 55.774961 277.957508 
L 55.024151 277.57377 
L 53.989361 276.890692 
L 52.203761 275.480061 
L 51.597825 274.91265 
L 50.382449 273.392895 
L 49.604577 272.25153 
L 48.596849 270.214382 
L 48.329497 269.59041 
L 47.521668 266.92929 
L 46.895292 263.82465 
L 46.811249 263.178663 
L 46.579833 261.16353 
z
" clip-path="url(#pf8af87da63)" style="fill: none; stroke: #0b559f; stroke-width: 1.5"/>
   </g>
   <g id="PathCollection_8"/>
   <g id="patch_3">
    <path d="M 34.240625 288.21825 
L 34.240625 22.10625 
" style="fill: none; stroke: #000000; stroke-width: 0.8; stroke-linejoin: miter; stroke-linecap: square"/>
   </g>
   <g id="patch_4">
    <path d="M 391.360625 288.21825 
L 391.360625 22.10625 
" style="fill: none; stroke: #000000; stroke-width: 0.8; stroke-linejoin: miter; stroke-linecap: square"/>
   </g>
   <g id="patch_5">
    <path d="M 34.240625 288.21825 
L 391.360625 288.21825 
" style="fill: none; stroke: #000000; stroke-width: 0.8; stroke-linejoin: miter; stroke-linecap: square"/>
   </g>
   <g id="patch_6">
    <path d="M 34.240625 22.10625 
L 391.360625 22.10625 
" style="fill: none; stroke: #000000; stroke-width: 0.8; stroke-linejoin: miter; stroke-linecap: square"/>
   </g>
   <g id="text_16">
    <!-- 7.5_cross_-43.0 -->
    <g transform="translate(166.181563 16.10625)scale(0.12 -0.12)">
     <defs>
      <path id="DejaVuSans-37" d="M 525 4666 
L 3525 4666 
L 3525 4397 
L 1831 0 
L 1172 0 
L 2766 4134 
L 525 4134 
L 525 4666 
z
" transform="scale(0.015625)"/>
      <path id="DejaVuSans-2e" d="M 684 794 
L 1344 794 
L 1344 0 
L 684 0 
L 684 794 
z
" transform="scale(0.015625)"/>
      <path id="DejaVuSans-5f" d="M 3263 -1063 
L 3263 -1509 
L -63 -1509 
L -63 -1063 
L 3263 -1063 
z
" transform="scale(0.015625)"/>
      <path id="DejaVuSans-63" d="M 3122 3366 
L 3122 2828 
Q 2878 2963 2633 3030 
Q 2388 3097 2138 3097 
Q 1578 3097 1268 2742 
Q 959 2388 959 1747 
Q 959 1106 1268 751 
Q 1578 397 2138 397 
Q 2388 397 2633 464 
Q 2878 531 3122 666 
L 3122 134 
Q 2881 22 2623 -34 
Q 2366 -91 2075 -91 
Q 1284 -91 818 406 
Q 353 903 353 1747 
Q 353 2603 823 3093 
Q 1294 3584 2113 3584 
Q 2378 3584 2631 3529 
Q 2884 3475 3122 3366 
z
" transform="scale(0.015625)"/>
      <path id="DejaVuSans-72" d="M 2631 2963 
Q 2534 3019 2420 3045 
Q 2306 3072 2169 3072 
Q 1681 3072 1420 2755 
Q 1159 2438 1159 1844 
L 1159 0 
L 581 0 
L 581 3500 
L 1159 3500 
L 1159 2956 
Q 1341 3275 1631 3429 
Q 1922 3584 2338 3584 
Q 2397 3584 2469 3576 
Q 2541 3569 2628 3553 
L 2631 2963 
z
" transform="scale(0.015625)"/>
      <path id="DejaVuSans-73" d="M 2834 3397 
L 2834 2853 
Q 2591 2978 2328 3040 
Q 2066 3103 1784 3103 
Q 1356 3103 1142 2972 
Q 928 2841 928 2578 
Q 928 2378 1081 2264 
Q 1234 2150 1697 2047 
L 1894 2003 
Q 2506 1872 2764 1633 
Q 3022 1394 3022 966 
Q 3022 478 2636 193 
Q 2250 -91 1575 -91 
Q 1294 -91 989 -36 
Q 684 19 347 128 
L 347 722 
Q 666 556 975 473 
Q 1284 391 1588 391 
Q 1994 391 2212 530 
Q 2431 669 2431 922 
Q 2431 1156 2273 1281 
Q 2116 1406 1581 1522 
L 1381 1569 
Q 847 1681 609 1914 
Q 372 2147 372 2553 
Q 372 3047 722 3315 
Q 1072 3584 1716 3584 
Q 2034 3584 2315 3537 
Q 2597 3491 2834 3397 
z
" transform="scale(0.015625)"/>
      <path id="DejaVuSans-2d" d="M 313 2009 
L 1997 2009 
L 1997 1497 
L 313 1497 
L 313 2009 
z
" transform="scale(0.015625)"/>
     </defs>
     <use xlink:href="#DejaVuSans-37"/>
     <use xlink:href="#DejaVuSans-2e" x="63.623047"/>
     <use xlink:href="#DejaVuSans-35" x="95.410156"/>
     <use xlink:href="#DejaVuSans-5f" x="159.033203"/>
     <use xlink:href="#DejaVuSans-63" x="209.033203"/>
     <use xlink:href="#DejaVuSans-72" x="264.013672"/>
     <use xlink:href="#DejaVuSans-6f" x="302.876953"/>
     <use xlink:href="#DejaVuSans-73" x="364.058594"/>
     <use xlink:href="#DejaVuSans-73" x="416.158203"/>
     <use xlink:href="#DejaVuSans-5f" x="468.257812"/>
     <use xlink:href="#DejaVuSans-2d" x="518.257812"/>
     <use xlink:href="#DejaVuSans-34" x="554.341797"/>
     <use xlink:href="#DejaVuSans-33" x="617.964844"/>
     <use xlink:href="#DejaVuSans-2e" x="681.587891"/>
     <use xlink:href="#DejaVuSans-30" x="713.375"/>
    </g>
   </g>
  </g>
 </g>
 <defs>
  <clipPath id="pf8af87da63">
   <rect x="34.240625" y="22.10625" width="357.12" height="266.112"/>
  </clipPath>
 </defs>
</svg>
