<?xml version="1.0" encoding="utf-8" standalone="no"?>
<!DOCTYPE svg PUBLIC "-//W3C//DTD SVG 1.1//EN"
  "http://www.w3.org/Graphics/SVG/1.1/DTD/svg11.dtd">
<svg xmlns:xlink="http://www.w3.org/1999/xlink" width="408.104375pt" height="325.7745pt" viewBox="0 0 408.104375 325.7745" xmlns="http://www.w3.org/2000/svg" version="1.1">
 <metadata>
  <rdf:RDF xmlns:dc="http://purl.org/dc/elements/1.1/" xmlns:cc="http://creativecommons.org/ns#" xmlns:rdf="http://www.w3.org/1999/02/22-rdf-syntax-ns#">
   <cc:Work>
    <dc:type rdf:resource="http://purl.org/dc/dcmitype/StillImage"/>
    <dc:date>2024-07-12T12:29:13.763078</dc:date>
    <dc:format>image/svg+xml</dc:format>
    <dc:creator>
     <cc:Agent>
      <dc:title>Matplotlib v3.5.3, https://matplotlib.org/</dc:title>
     </cc:Agent>
    </dc:creator>
   </cc:Work>
  </rdf:RDF>
 </metadata>
 <defs>
  <style type="text/css">*{stroke-linejoin: round; stroke-linecap: butt}</style>
 </defs>
 <g id="figure_1">
  <g id="patch_1">
   <path d="M 0 325.7745 
L 408.104375 325.7745 
L 408.104375 0 
L 0 0 
z
" style="fill: #ffffff"/>
  </g>
  <g id="axes_1">
   <g id="patch_2">
    <path d="M 34.240625 288.21825 
L 391.360625 288.21825 
L 391.360625 22.10625 
L 34.240625 22.10625 
z
" style="fill: #ffffff"/>
   </g>
   <g id="matplotlib.axis_1">
    <g id="xtick_1">
     <g id="line2d_1">
      <defs>
       <path id="ma6e1f9f2e2" d="M 0 0 
L 0 3.5 
" style="stroke: #000000; stroke-width: 0.8"/>
      </defs>
      <g>
       <use xlink:href="#ma6e1f9f2e2" x="34.240625" y="288.21825" style="stroke: #000000; stroke-width: 0.8"/>
      </g>
     </g>
     <g id="text_1">
      <!-- 0 -->
      <g transform="translate(31.059375 302.816687)scale(0.1 -0.1)">
       <defs>
        <path id="DejaVuSans-30" d="M 2034 4250 
Q 1547 4250 1301 3770 
Q 1056 3291 1056 2328 
Q 1056 1369 1301 889 
Q 1547 409 2034 409 
Q 2525 409 2770 889 
Q 3016 1369 3016 2328 
Q 3016 3291 2770 3770 
Q 2525 4250 2034 4250 
z
M 2034 4750 
Q 2819 4750 3233 4129 
Q 3647 3509 3647 2328 
Q 3647 1150 3233 529 
Q 2819 -91 2034 -91 
Q 1250 -91 836 529 
Q 422 1150 422 2328 
Q 422 3509 836 4129 
Q 1250 4750 2034 4750 
z
" transform="scale(0.015625)"/>
       </defs>
       <use xlink:href="#DejaVuSans-30"/>
      </g>
     </g>
    </g>
    <g id="xtick_2">
     <g id="line2d_2">
      <g>
       <use xlink:href="#ma6e1f9f2e2" x="105.664625" y="288.21825" style="stroke: #000000; stroke-width: 0.8"/>
      </g>
     </g>
     <g id="text_2">
      <!-- 20 -->
      <g transform="translate(99.302125 302.816687)scale(0.1 -0.1)">
       <defs>
        <path id="DejaVuSans-32" d="M 1228 531 
L 3431 531 
L 3431 0 
L 469 0 
L 469 531 
Q 828 903 1448 1529 
Q 2069 2156 2228 2338 
Q 2531 2678 2651 2914 
Q 2772 3150 2772 3378 
Q 2772 3750 2511 3984 
Q 2250 4219 1831 4219 
Q 1534 4219 1204 4116 
Q 875 4013 500 3803 
L 500 4441 
Q 881 4594 1212 4672 
Q 1544 4750 1819 4750 
Q 2544 4750 2975 4387 
Q 3406 4025 3406 3419 
Q 3406 3131 3298 2873 
Q 3191 2616 2906 2266 
Q 2828 2175 2409 1742 
Q 1991 1309 1228 531 
z
" transform="scale(0.015625)"/>
       </defs>
       <use xlink:href="#DejaVuSans-32"/>
       <use xlink:href="#DejaVuSans-30" x="63.623047"/>
      </g>
     </g>
    </g>
    <g id="xtick_3">
     <g id="line2d_3">
      <g>
       <use xlink:href="#ma6e1f9f2e2" x="177.088625" y="288.21825" style="stroke: #000000; stroke-width: 0.8"/>
      </g>
     </g>
     <g id="text_3">
      <!-- 40 -->
      <g transform="translate(170.726125 302.816687)scale(0.1 -0.1)">
       <defs>
        <path id="DejaVuSans-34" d="M 2419 4116 
L 825 1625 
L 2419 1625 
L 2419 4116 
z
M 2253 4666 
L 3047 4666 
L 3047 1625 
L 3713 1625 
L 3713 1100 
L 3047 1100 
L 3047 0 
L 2419 0 
L 2419 1100 
L 313 1100 
L 313 1709 
L 2253 4666 
z
" transform="scale(0.015625)"/>
       </defs>
       <use xlink:href="#DejaVuSans-34"/>
       <use xlink:href="#DejaVuSans-30" x="63.623047"/>
      </g>
     </g>
    </g>
    <g id="xtick_4">
     <g id="line2d_4">
      <g>
       <use xlink:href="#ma6e1f9f2e2" x="248.512625" y="288.21825" style="stroke: #000000; stroke-width: 0.8"/>
      </g>
     </g>
     <g id="text_4">
      <!-- 60 -->
      <g transform="translate(242.150125 302.816687)scale(0.1 -0.1)">
       <defs>
        <path id="DejaVuSans-36" d="M 2113 2584 
Q 1688 2584 1439 2293 
Q 1191 2003 1191 1497 
Q 1191 994 1439 701 
Q 1688 409 2113 409 
Q 2538 409 2786 701 
Q 3034 994 3034 1497 
Q 3034 2003 2786 2293 
Q 2538 2584 2113 2584 
z
M 3366 4563 
L 3366 3988 
Q 3128 4100 2886 4159 
Q 2644 4219 2406 4219 
Q 1781 4219 1451 3797 
Q 1122 3375 1075 2522 
Q 1259 2794 1537 2939 
Q 1816 3084 2150 3084 
Q 2853 3084 3261 2657 
Q 3669 2231 3669 1497 
Q 3669 778 3244 343 
Q 2819 -91 2113 -91 
Q 1303 -91 875 529 
Q 447 1150 447 2328 
Q 447 3434 972 4092 
Q 1497 4750 2381 4750 
Q 2619 4750 2861 4703 
Q 3103 4656 3366 4563 
z
" transform="scale(0.015625)"/>
       </defs>
       <use xlink:href="#DejaVuSans-36"/>
       <use xlink:href="#DejaVuSans-30" x="63.623047"/>
      </g>
     </g>
    </g>
    <g id="xtick_5">
     <g id="line2d_5">
      <g>
       <use xlink:href="#ma6e1f9f2e2" x="319.936625" y="288.21825" style="stroke: #000000; stroke-width: 0.8"/>
      </g>
     </g>
     <g id="text_5">
      <!-- 80 -->
      <g transform="translate(313.574125 302.816687)scale(0.1 -0.1)">
       <defs>
        <path id="DejaVuSans-38" d="M 2034 2216 
Q 1584 2216 1326 1975 
Q 1069 1734 1069 1313 
Q 1069 891 1326 650 
Q 1584 409 2034 409 
Q 2484 409 2743 651 
Q 3003 894 3003 1313 
Q 3003 1734 2745 1975 
Q 2488 2216 2034 2216 
z
M 1403 2484 
Q 997 2584 770 2862 
Q 544 3141 544 3541 
Q 544 4100 942 4425 
Q 1341 4750 2034 4750 
Q 2731 4750 3128 4425 
Q 3525 4100 3525 3541 
Q 3525 3141 3298 2862 
Q 3072 2584 2669 2484 
Q 3125 2378 3379 2068 
Q 3634 1759 3634 1313 
Q 3634 634 3220 271 
Q 2806 -91 2034 -91 
Q 1263 -91 848 271 
Q 434 634 434 1313 
Q 434 1759 690 2068 
Q 947 2378 1403 2484 
z
M 1172 3481 
Q 1172 3119 1398 2916 
Q 1625 2713 2034 2713 
Q 2441 2713 2670 2916 
Q 2900 3119 2900 3481 
Q 2900 3844 2670 4047 
Q 2441 4250 2034 4250 
Q 1625 4250 1398 4047 
Q 1172 3844 1172 3481 
z
" transform="scale(0.015625)"/>
       </defs>
       <use xlink:href="#DejaVuSans-38"/>
       <use xlink:href="#DejaVuSans-30" x="63.623047"/>
      </g>
     </g>
    </g>
    <g id="xtick_6">
     <g id="line2d_6">
      <g>
       <use xlink:href="#ma6e1f9f2e2" x="391.360625" y="288.21825" style="stroke: #000000; stroke-width: 0.8"/>
      </g>
     </g>
     <g id="text_6">
      <!-- 100 -->
      <g transform="translate(381.816875 302.816687)scale(0.1 -0.1)">
       <defs>
        <path id="DejaVuSans-31" d="M 794 531 
L 1825 531 
L 1825 4091 
L 703 3866 
L 703 4441 
L 1819 4666 
L 2450 4666 
L 2450 531 
L 3481 531 
L 3481 0 
L 794 0 
L 794 531 
z
" transform="scale(0.015625)"/>
       </defs>
       <use xlink:href="#DejaVuSans-31"/>
       <use xlink:href="#DejaVuSans-30" x="63.623047"/>
       <use xlink:href="#DejaVuSans-30" x="127.246094"/>
      </g>
     </g>
    </g>
    <g id="text_7">
     <!-- axialRotation -->
     <g transform="translate(180.024844 316.494812)scale(0.1 -0.1)">
      <defs>
       <path id="DejaVuSans-61" d="M 2194 1759 
Q 1497 1759 1228 1600 
Q 959 1441 959 1056 
Q 959 750 1161 570 
Q 1363 391 1709 391 
Q 2188 391 2477 730 
Q 2766 1069 2766 1631 
L 2766 1759 
L 2194 1759 
z
M 3341 1997 
L 3341 0 
L 2766 0 
L 2766 531 
Q 2569 213 2275 61 
Q 1981 -91 1556 -91 
Q 1019 -91 701 211 
Q 384 513 384 1019 
Q 384 1609 779 1909 
Q 1175 2209 1959 2209 
L 2766 2209 
L 2766 2266 
Q 2766 2663 2505 2880 
Q 2244 3097 1772 3097 
Q 1472 3097 1187 3025 
Q 903 2953 641 2809 
L 641 3341 
Q 956 3463 1253 3523 
Q 1550 3584 1831 3584 
Q 2591 3584 2966 3190 
Q 3341 2797 3341 1997 
z
" transform="scale(0.015625)"/>
       <path id="DejaVuSans-78" d="M 3513 3500 
L 2247 1797 
L 3578 0 
L 2900 0 
L 1881 1375 
L 863 0 
L 184 0 
L 1544 1831 
L 300 3500 
L 978 3500 
L 1906 2253 
L 2834 3500 
L 3513 3500 
z
" transform="scale(0.015625)"/>
       <path id="DejaVuSans-69" d="M 603 3500 
L 1178 3500 
L 1178 0 
L 603 0 
L 603 3500 
z
M 603 4863 
L 1178 4863 
L 1178 4134 
L 603 4134 
L 603 4863 
z
" transform="scale(0.015625)"/>
       <path id="DejaVuSans-6c" d="M 603 4863 
L 1178 4863 
L 1178 0 
L 603 0 
L 603 4863 
z
" transform="scale(0.015625)"/>
       <path id="DejaVuSans-52" d="M 2841 2188 
Q 3044 2119 3236 1894 
Q 3428 1669 3622 1275 
L 4263 0 
L 3584 0 
L 2988 1197 
Q 2756 1666 2539 1819 
Q 2322 1972 1947 1972 
L 1259 1972 
L 1259 0 
L 628 0 
L 628 4666 
L 2053 4666 
Q 2853 4666 3247 4331 
Q 3641 3997 3641 3322 
Q 3641 2881 3436 2590 
Q 3231 2300 2841 2188 
z
M 1259 4147 
L 1259 2491 
L 2053 2491 
Q 2509 2491 2742 2702 
Q 2975 2913 2975 3322 
Q 2975 3731 2742 3939 
Q 2509 4147 2053 4147 
L 1259 4147 
z
" transform="scale(0.015625)"/>
       <path id="DejaVuSans-6f" d="M 1959 3097 
Q 1497 3097 1228 2736 
Q 959 2375 959 1747 
Q 959 1119 1226 758 
Q 1494 397 1959 397 
Q 2419 397 2687 759 
Q 2956 1122 2956 1747 
Q 2956 2369 2687 2733 
Q 2419 3097 1959 3097 
z
M 1959 3584 
Q 2709 3584 3137 3096 
Q 3566 2609 3566 1747 
Q 3566 888 3137 398 
Q 2709 -91 1959 -91 
Q 1206 -91 779 398 
Q 353 888 353 1747 
Q 353 2609 779 3096 
Q 1206 3584 1959 3584 
z
" transform="scale(0.015625)"/>
       <path id="DejaVuSans-74" d="M 1172 4494 
L 1172 3500 
L 2356 3500 
L 2356 3053 
L 1172 3053 
L 1172 1153 
Q 1172 725 1289 603 
Q 1406 481 1766 481 
L 2356 481 
L 2356 0 
L 1766 0 
Q 1100 0 847 248 
Q 594 497 594 1153 
L 594 3053 
L 172 3053 
L 172 3500 
L 594 3500 
L 594 4494 
L 1172 4494 
z
" transform="scale(0.015625)"/>
       <path id="DejaVuSans-6e" d="M 3513 2113 
L 3513 0 
L 2938 0 
L 2938 2094 
Q 2938 2591 2744 2837 
Q 2550 3084 2163 3084 
Q 1697 3084 1428 2787 
Q 1159 2491 1159 1978 
L 1159 0 
L 581 0 
L 581 3500 
L 1159 3500 
L 1159 2956 
Q 1366 3272 1645 3428 
Q 1925 3584 2291 3584 
Q 2894 3584 3203 3211 
Q 3513 2838 3513 2113 
z
" transform="scale(0.015625)"/>
      </defs>
      <use xlink:href="#DejaVuSans-61"/>
      <use xlink:href="#DejaVuSans-78" x="61.279297"/>
      <use xlink:href="#DejaVuSans-69" x="120.458984"/>
      <use xlink:href="#DejaVuSans-61" x="148.242188"/>
      <use xlink:href="#DejaVuSans-6c" x="209.521484"/>
      <use xlink:href="#DejaVuSans-52" x="237.304688"/>
      <use xlink:href="#DejaVuSans-6f" x="302.287109"/>
      <use xlink:href="#DejaVuSans-74" x="363.46875"/>
      <use xlink:href="#DejaVuSans-61" x="402.677734"/>
      <use xlink:href="#DejaVuSans-74" x="463.957031"/>
      <use xlink:href="#DejaVuSans-69" x="503.166016"/>
      <use xlink:href="#DejaVuSans-6f" x="530.949219"/>
      <use xlink:href="#DejaVuSans-6e" x="592.130859"/>
     </g>
    </g>
   </g>
   <g id="matplotlib.axis_2">
    <g id="ytick_1">
     <g id="line2d_7">
      <defs>
       <path id="ma0768b9ab8" d="M 0 0 
L -3.5 0 
" style="stroke: #000000; stroke-width: 0.8"/>
      </defs>
      <g>
       <use xlink:href="#ma0768b9ab8" x="34.240625" y="288.21825" style="stroke: #000000; stroke-width: 0.8"/>
      </g>
     </g>
     <g id="text_8">
      <!-- 0 -->
      <g transform="translate(20.878125 292.017469)scale(0.1 -0.1)">
       <use xlink:href="#DejaVuSans-30"/>
      </g>
     </g>
    </g>
    <g id="ytick_2">
     <g id="line2d_8">
      <g>
       <use xlink:href="#ma0768b9ab8" x="34.240625" y="243.86625" style="stroke: #000000; stroke-width: 0.8"/>
      </g>
     </g>
     <g id="text_9">
      <!-- 1 -->
      <g transform="translate(20.878125 247.665469)scale(0.1 -0.1)">
       <use xlink:href="#DejaVuSans-31"/>
      </g>
     </g>
    </g>
    <g id="ytick_3">
     <g id="line2d_9">
      <g>
       <use xlink:href="#ma0768b9ab8" x="34.240625" y="199.51425" style="stroke: #000000; stroke-width: 0.8"/>
      </g>
     </g>
     <g id="text_10">
      <!-- 2 -->
      <g transform="translate(20.878125 203.313469)scale(0.1 -0.1)">
       <use xlink:href="#DejaVuSans-32"/>
      </g>
     </g>
    </g>
    <g id="ytick_4">
     <g id="line2d_10">
      <g>
       <use xlink:href="#ma0768b9ab8" x="34.240625" y="155.16225" style="stroke: #000000; stroke-width: 0.8"/>
      </g>
     </g>
     <g id="text_11">
      <!-- 3 -->
      <g transform="translate(20.878125 158.961469)scale(0.1 -0.1)">
       <defs>
        <path id="DejaVuSans-33" d="M 2597 2516 
Q 3050 2419 3304 2112 
Q 3559 1806 3559 1356 
Q 3559 666 3084 287 
Q 2609 -91 1734 -91 
Q 1441 -91 1130 -33 
Q 819 25 488 141 
L 488 750 
Q 750 597 1062 519 
Q 1375 441 1716 441 
Q 2309 441 2620 675 
Q 2931 909 2931 1356 
Q 2931 1769 2642 2001 
Q 2353 2234 1838 2234 
L 1294 2234 
L 1294 2753 
L 1863 2753 
Q 2328 2753 2575 2939 
Q 2822 3125 2822 3475 
Q 2822 3834 2567 4026 
Q 2313 4219 1838 4219 
Q 1578 4219 1281 4162 
Q 984 4106 628 3988 
L 628 4550 
Q 988 4650 1302 4700 
Q 1616 4750 1894 4750 
Q 2613 4750 3031 4423 
Q 3450 4097 3450 3541 
Q 3450 3153 3228 2886 
Q 3006 2619 2597 2516 
z
" transform="scale(0.015625)"/>
       </defs>
       <use xlink:href="#DejaVuSans-33"/>
      </g>
     </g>
    </g>
    <g id="ytick_5">
     <g id="line2d_11">
      <g>
       <use xlink:href="#ma0768b9ab8" x="34.240625" y="110.81025" style="stroke: #000000; stroke-width: 0.8"/>
      </g>
     </g>
     <g id="text_12">
      <!-- 4 -->
      <g transform="translate(20.878125 114.609469)scale(0.1 -0.1)">
       <use xlink:href="#DejaVuSans-34"/>
      </g>
     </g>
    </g>
    <g id="ytick_6">
     <g id="line2d_12">
      <g>
       <use xlink:href="#ma0768b9ab8" x="34.240625" y="66.45825" style="stroke: #000000; stroke-width: 0.8"/>
      </g>
     </g>
     <g id="text_13">
      <!-- 5 -->
      <g transform="translate(20.878125 70.257469)scale(0.1 -0.1)">
       <defs>
        <path id="DejaVuSans-35" d="M 691 4666 
L 3169 4666 
L 3169 4134 
L 1269 4134 
L 1269 2991 
Q 1406 3038 1543 3061 
Q 1681 3084 1819 3084 
Q 2600 3084 3056 2656 
Q 3513 2228 3513 1497 
Q 3513 744 3044 326 
Q 2575 -91 1722 -91 
Q 1428 -91 1123 -41 
Q 819 9 494 109 
L 494 744 
Q 775 591 1075 516 
Q 1375 441 1709 441 
Q 2250 441 2565 725 
Q 2881 1009 2881 1497 
Q 2881 1984 2565 2268 
Q 2250 2553 1709 2553 
Q 1456 2553 1204 2497 
Q 953 2441 691 2322 
L 691 4666 
z
" transform="scale(0.015625)"/>
       </defs>
       <use xlink:href="#DejaVuSans-35"/>
      </g>
     </g>
    </g>
    <g id="ytick_7">
     <g id="line2d_13">
      <g>
       <use xlink:href="#ma0768b9ab8" x="34.240625" y="22.10625" style="stroke: #000000; stroke-width: 0.8"/>
      </g>
     </g>
     <g id="text_14">
      <!-- 6 -->
      <g transform="translate(20.878125 25.905469)scale(0.1 -0.1)">
       <use xlink:href="#DejaVuSans-36"/>
      </g>
     </g>
    </g>
    <g id="text_15">
     <!-- zShift -->
     <g transform="translate(14.798438 169.151312)rotate(-90)scale(0.1 -0.1)">
      <defs>
       <path id="DejaVuSans-7a" d="M 353 3500 
L 3084 3500 
L 3084 2975 
L 922 459 
L 3084 459 
L 3084 0 
L 275 0 
L 275 525 
L 2438 3041 
L 353 3041 
L 353 3500 
z
" transform="scale(0.015625)"/>
       <path id="DejaVuSans-53" d="M 3425 4513 
L 3425 3897 
Q 3066 4069 2747 4153 
Q 2428 4238 2131 4238 
Q 1616 4238 1336 4038 
Q 1056 3838 1056 3469 
Q 1056 3159 1242 3001 
Q 1428 2844 1947 2747 
L 2328 2669 
Q 3034 2534 3370 2195 
Q 3706 1856 3706 1288 
Q 3706 609 3251 259 
Q 2797 -91 1919 -91 
Q 1588 -91 1214 -16 
Q 841 59 441 206 
L 441 856 
Q 825 641 1194 531 
Q 1563 422 1919 422 
Q 2459 422 2753 634 
Q 3047 847 3047 1241 
Q 3047 1584 2836 1778 
Q 2625 1972 2144 2069 
L 1759 2144 
Q 1053 2284 737 2584 
Q 422 2884 422 3419 
Q 422 4038 858 4394 
Q 1294 4750 2059 4750 
Q 2388 4750 2728 4690 
Q 3069 4631 3425 4513 
z
" transform="scale(0.015625)"/>
       <path id="DejaVuSans-68" d="M 3513 2113 
L 3513 0 
L 2938 0 
L 2938 2094 
Q 2938 2591 2744 2837 
Q 2550 3084 2163 3084 
Q 1697 3084 1428 2787 
Q 1159 2491 1159 1978 
L 1159 0 
L 581 0 
L 581 4863 
L 1159 4863 
L 1159 2956 
Q 1366 3272 1645 3428 
Q 1925 3584 2291 3584 
Q 2894 3584 3203 3211 
Q 3513 2838 3513 2113 
z
" transform="scale(0.015625)"/>
       <path id="DejaVuSans-66" d="M 2375 4863 
L 2375 4384 
L 1825 4384 
Q 1516 4384 1395 4259 
Q 1275 4134 1275 3809 
L 1275 3500 
L 2222 3500 
L 2222 3053 
L 1275 3053 
L 1275 0 
L 697 0 
L 697 3053 
L 147 3053 
L 147 3500 
L 697 3500 
L 697 3744 
Q 697 4328 969 4595 
Q 1241 4863 1831 4863 
L 2375 4863 
z
" transform="scale(0.015625)"/>
      </defs>
      <use xlink:href="#DejaVuSans-7a"/>
      <use xlink:href="#DejaVuSans-53" x="52.490234"/>
      <use xlink:href="#DejaVuSans-68" x="115.966797"/>
      <use xlink:href="#DejaVuSans-69" x="179.345703"/>
      <use xlink:href="#DejaVuSans-66" x="207.128906"/>
      <use xlink:href="#DejaVuSans-74" x="240.583984"/>
     </g>
    </g>
   </g>
   <g id="PathCollection_1"/>
   <g id="PathCollection_2">
    <path d="M 146.624415 288.21825 
L 146.403442 285.55713 
L 146.237324 282.89601 
L 146.113539 280.23489 
L 146.022363 277.57377 
L 145.956174 274.91265 
L 145.908961 272.25153 
L 145.875975 269.59041 
L 145.853467 266.92929 
L 145.83657 263.82465 
L 145.827569 261.16353 
L 145.821884 258.50241 
L 145.818345 255.84129 
L 145.816159 253.18017 
L 145.814825 250.51905 
L 145.814045 247.85793 
L 145.81364 245.19681 
L 145.813483 242.53569 
L 145.813466 239.87457 
L 145.813494 237.21345 
L 145.813494 234.55233 
L 145.813439 231.89121 
L 145.813344 229.23009 
L 145.813254 226.56897 
L 145.813214 223.90785 
L 145.813256 220.80321 
L 145.813348 218.14209 
L 145.813442 215.48097 
L 145.813495 212.81985 
L 145.813493 210.15873 
L 145.813466 207.49761 
L 145.813485 204.83649 
L 145.813649 202.17537 
L 145.814064 199.51425 
L 145.814859 196.85313 
L 145.816216 194.19201 
L 145.818436 191.53089 
L 145.822028 188.86977 
L 145.827793 186.20865 
L 145.836905 183.54753 
L 145.850994 180.88641 
L 145.872212 178.22529 
L 145.909712 175.12065 
L 145.956857 172.45953 
L 146.022603 169.79841 
L 146.112601 167.13729 
L 146.233894 164.47617 
L 146.395302 161.81505 
L 146.607993 159.15393 
L 146.886321 156.49281 
L 147.249065 153.83169 
L 147.304817 153.490914 
L 147.616413 151.17057 
L 148.075091 148.50945 
L 148.672972 145.84833 
L 149.090417 144.337385 
L 149.387232 143.18721 
L 150.222698 140.52609 
L 150.876017 138.845573 
L 151.276555 137.86497 
L 152.573737 135.20385 
L 152.697329 134.970998 
L 154.482929 132.17441 
L 154.543787 132.09921 
L 156.268529 129.956 
L 156.774676 129.43809 
L 158.054129 128.015197 
L 159.1597 126.77697 
L 159.875441 125.825249 
L 160.849598 124.11585 
L 161.661041 122.26719 
L 161.900726 121.45473 
L 162.4828 118.79361 
L 162.898469 116.13249 
L 163.190952 113.47137 
L 163.392621 110.81025 
L 163.446641 109.750512 
L 163.503645 108.14913 
L 163.56437 105.48801 
L 163.599756 102.82689 
L 163.615419 100.16577 
L 163.613983 97.50465 
L 163.595204 94.84353 
L 163.555894 92.18241 
L 163.489644 89.52129 
L 163.446641 88.444401 
L 163.328508 86.41665 
L 163.088873 83.75553 
L 162.735325 81.09441 
L 162.21971 78.43329 
L 161.661041 76.418356 
L 161.368057 75.77217 
L 159.875441 73.380677 
L 159.619003 73.11105 
L 158.054129 71.788578 
L 156.385606 70.44993 
L 156.268529 70.366328 
L 154.482929 68.763254 
L 153.692641 67.78881 
L 152.697329 66.4954 
L 151.882578 65.12769 
L 150.876017 63.143673 
L 150.576247 62.46657 
L 149.572557 59.80545 
L 149.090417 58.167418 
L 148.786524 57.14433 
L 148.137239 54.48321 
L 147.652753 51.82209 
L 147.304817 49.262404 
L 147.288512 49.16097 
L 146.942359 46.49985 
L 146.659412 43.39521 
L 146.50081 40.73409 
L 146.407778 38.07297 
L 146.373768 35.41185 
L 146.396088 32.75073 
L 146.475618 30.08961 
L 146.616847 27.42849 
L 146.828246 24.76737 
L 147.123042 22.10625 
" clip-path="url(#p980c1c5720)" style="fill: none; stroke: #dbe9f6; stroke-width: 1.5"/>
    <path d="M 235.650552 288.21825 
L 235.316917 285.55713 
L 235.227761 284.867882 
L 234.86526 282.89601 
L 234.304778 280.23489 
L 233.606608 277.57377 
L 233.442161 277.082988 
L 232.063076 274.91265 
L 231.656561 274.437098 
L 229.835249 273.732339 
L 228.049649 274.068051 
L 226.818675 274.91265 
L 226.264049 275.340944 
L 224.527255 277.57377 
L 224.478449 277.639865 
L 223.020448 280.23489 
L 222.657137 280.85973 
L 221.592816 282.89601 
L 220.871537 284.169468 
L 220.057821 285.55713 
L 219.085937 287.09104 
L 218.249116 288.21825 
" clip-path="url(#p980c1c5720)" style="fill: none; stroke: #dbe9f6; stroke-width: 1.5"/>
    <path d="M 278.976835 22.10625 
L 279.197808 24.76737 
L 279.363926 27.42849 
L 279.487711 30.08961 
L 279.578887 32.75073 
L 279.645076 35.41185 
L 279.692289 38.07297 
L 279.725275 40.73409 
L 279.747783 43.39521 
L 279.76468 46.49985 
L 279.773681 49.16097 
L 279.779366 51.82209 
L 279.782905 54.48321 
L 279.785091 57.14433 
L 279.786425 59.80545 
L 279.787205 62.46657 
L 279.78761 65.12769 
L 279.787767 67.78881 
L 279.787784 70.44993 
L 279.787756 73.11105 
L 279.787756 75.77217 
L 279.787811 78.43329 
L 279.787906 81.09441 
L 279.787997 83.75553 
L 279.788037 86.41665 
L 279.787996 89.52129 
L 279.787907 92.18241 
L 279.787819 94.84353 
L 279.78778 97.50465 
L 279.787811 100.16577 
L 279.787895 102.82689 
L 279.787986 105.48801 
L 279.788036 108.14913 
L 279.788017 110.81025 
L 279.78794 113.47137 
L 279.787845 116.13249 
L 279.787786 118.79361 
L 279.787793 121.45473 
L 279.787863 124.11585 
L 279.787958 126.77697 
L 279.788027 129.43809 
L 279.788031 132.09921 
L 279.787955 135.20385 
L 279.78786 137.86497 
L 279.787791 140.52609 
L 279.787787 143.18721 
L 279.787848 145.84833 
L 279.787943 148.50945 
L 279.788019 151.17057 
L 279.788036 153.83169 
L 279.787984 156.49281 
L 279.787891 159.15393 
L 279.787808 161.81505 
L 279.78778 164.47617 
L 279.787822 167.13729 
L 279.787911 169.79841 
L 279.787999 172.45953 
L 279.788038 175.12065 
L 279.787996 178.22529 
L 279.787907 180.88641 
L 279.787819 183.54753 
L 279.78778 186.20865 
L 279.787811 188.86977 
L 279.787895 191.53089 
L 279.787986 194.19201 
L 279.788036 196.85313 
L 279.788017 199.51425 
L 279.78794 202.17537 
L 279.787845 204.83649 
L 279.787786 207.49761 
L 279.787793 210.15873 
L 279.787863 212.81985 
L 279.787958 215.48097 
L 279.788026 218.14209 
L 279.78803 220.80321 
L 279.787952 223.90785 
L 279.787852 226.56897 
L 279.787774 229.23009 
L 279.78775 231.89121 
L 279.787771 234.55233 
L 279.787786 237.21345 
L 279.787707 239.87457 
L 279.787432 242.53569 
L 279.786844 245.19681 
L 279.785796 247.85793 
L 279.784055 250.51905 
L 279.781227 253.18017 
L 279.776668 255.84129 
L 279.769399 258.50241 
L 279.758026 261.16353 
L 279.740668 263.82465 
L 279.709546 266.92929 
L 279.669914 269.59041 
L 279.614066 272.25153 
L 279.536929 274.91265 
L 279.43219 277.57377 
L 279.291963 280.23489 
L 279.10632 282.89601 
L 278.862597 285.55713 
L 278.544365 288.21825 
" clip-path="url(#p980c1c5720)" style="fill: none; stroke: #dbe9f6; stroke-width: 1.5"/>
   </g>
   <g id="PathCollection_3">
    <path d="M 149.86693 288.21825 
L 149.572407 285.55713 
L 149.351302 282.89601 
L 149.186651 280.23489 
L 149.090417 278.136175 
L 149.060328 277.57377 
L 148.954364 274.91265 
L 148.878521 272.25153 
L 148.825325 269.59041 
L 148.788873 266.92929 
L 148.761376 263.82465 
L 148.74666 261.16353 
L 148.737336 258.50241 
L 148.731521 255.84129 
L 148.727925 253.18017 
L 148.725723 250.51905 
L 148.724422 247.85793 
L 148.723727 245.19681 
L 148.723438 242.53569 
L 148.723388 239.87457 
L 148.723427 237.21345 
L 148.72344 234.55233 
L 148.723371 231.89121 
L 148.723233 229.23009 
L 148.723089 226.56897 
L 148.723012 223.90785 
L 148.723056 220.80321 
L 148.723187 218.14209 
L 148.723335 215.48097 
L 148.723429 212.81985 
L 148.723438 210.15873 
L 148.723397 207.49761 
L 148.723405 204.83649 
L 148.723606 202.17537 
L 148.72416 199.51425 
L 148.725255 196.85313 
L 148.727146 194.19201 
L 148.730254 191.53089 
L 148.735287 188.86977 
L 148.743378 186.20865 
L 148.756208 183.54753 
L 148.776127 180.88641 
L 148.806263 178.22529 
L 148.859782 175.12065 
L 148.92736 172.45953 
L 149.021937 169.79841 
L 149.090417 168.380325 
L 149.141134 167.13729 
L 149.285868 164.47617 
L 149.478382 161.81505 
L 149.731738 159.15393 
L 150.062583 156.49281 
L 150.492522 153.83169 
L 150.876017 151.952386 
L 151.032328 151.17057 
L 151.679031 148.50945 
L 152.515265 145.84833 
L 152.697329 145.349946 
L 153.587623 143.18721 
L 154.482929 141.376029 
L 155.013258 140.52609 
L 156.268529 138.69428 
L 157.047562 137.86497 
L 158.054129 136.798313 
L 159.875441 135.320418 
L 160.02861 135.20385 
L 161.661041 133.750763 
L 162.992507 132.09921 
L 163.446641 131.376049 
L 164.232973 129.43809 
L 165.026307 126.77697 
L 165.232241 125.856524 
L 165.507826 124.11585 
L 165.822925 121.45473 
L 166.052635 118.79361 
L 166.217994 116.13249 
L 166.335093 113.47137 
L 166.41633 110.81025 
L 166.471171 108.14913 
L 166.506669 105.48801 
L 166.527835 102.82689 
L 166.537911 100.16577 
L 166.538564 97.50465 
L 166.529952 94.84353 
L 166.510702 92.18241 
L 166.477761 89.52129 
L 166.415301 86.41665 
L 166.332726 83.75553 
L 166.212565 81.09441 
L 166.041013 78.43329 
L 165.799639 75.77217 
L 165.463471 73.11105 
L 165.232241 71.748996 
L 164.899131 70.44993 
L 163.945092 67.78881 
L 163.446641 66.771877 
L 161.93599 65.12769 
L 161.661041 64.894994 
L 159.875441 63.940858 
L 158.054129 62.981994 
L 157.374712 62.46657 
L 156.268529 61.637776 
L 154.728587 59.80545 
L 154.482929 59.485197 
L 153.202025 57.14433 
L 152.697329 56.0216 
L 152.123735 54.48321 
L 151.337395 51.82209 
L 150.876017 49.767677 
L 150.743315 49.16097 
L 150.278359 46.49985 
L 149.896749 43.39521 
L 149.680229 40.73409 
L 149.549063 38.07297 
L 149.493693 35.41185 
L 149.509587 32.75073 
L 149.596752 30.08961 
L 149.759664 27.42849 
L 150.007602 24.76737 
L 150.35546 22.10625 
" clip-path="url(#p980c1c5720)" style="fill: none; stroke: #bad6eb; stroke-width: 1.5"/>
    <path d="M 239.067841 288.21825 
L 238.834673 286.39964 
L 238.713568 285.55713 
L 238.372932 282.89601 
L 238.057786 280.23489 
L 237.739829 277.57377 
L 237.389372 274.91265 
L 237.013361 272.503692 
L 236.956683 272.25153 
L 236.204475 269.59041 
L 235.227761 267.093085 
L 235.10465 266.92929 
L 233.442161 265.272656 
L 231.656561 264.669237 
L 229.835249 264.621597 
L 228.049649 264.945566 
L 226.264049 265.76963 
L 224.99484 266.92929 
L 224.478449 267.457171 
L 223.142688 269.59041 
L 222.657137 270.39851 
L 221.783313 272.25153 
L 220.871537 274.103753 
L 220.500818 274.91265 
L 219.166394 277.57377 
L 219.085937 277.724034 
L 217.59651 280.23489 
L 217.300337 280.693659 
L 215.494486 282.89601 
L 215.479025 282.914137 
L 213.693425 284.47764 
L 211.907825 285.544794 
L 211.88247 285.55713 
L 210.122225 286.503166 
L 208.300913 287.691662 
L 207.776814 288.21825 
" clip-path="url(#p980c1c5720)" style="fill: none; stroke: #bad6eb; stroke-width: 1.5"/>
    <path d="M 275.73432 22.10625 
L 276.028843 24.76737 
L 276.249948 27.42849 
L 276.414599 30.08961 
L 276.510833 32.188325 
L 276.540922 32.75073 
L 276.646886 35.41185 
L 276.722729 38.07297 
L 276.775925 40.73409 
L 276.812377 43.39521 
L 276.839874 46.49985 
L 276.85459 49.16097 
L 276.863914 51.82209 
L 276.869729 54.48321 
L 276.873325 57.14433 
L 276.875527 59.80545 
L 276.876828 62.46657 
L 276.877523 65.12769 
L 276.877812 67.78881 
L 276.877862 70.44993 
L 276.877823 73.11105 
L 276.87781 75.77217 
L 276.877879 78.43329 
L 276.878017 81.09441 
L 276.878162 83.75553 
L 276.87824 86.41665 
L 276.878197 89.52129 
L 276.87807 92.18241 
L 276.87793 94.84353 
L 276.877855 97.50465 
L 276.877884 100.16577 
L 276.878002 102.82689 
L 276.878145 105.48801 
L 276.878235 108.14913 
L 276.878224 110.81025 
L 276.878118 113.47137 
L 276.877973 116.13249 
L 276.877869 118.79361 
L 276.877862 121.45473 
L 276.877956 124.11585 
L 276.878099 126.77697 
L 276.878215 129.43809 
L 276.87824 132.09921 
L 276.87814 135.20385 
L 276.877997 137.86497 
L 276.877881 140.52609 
L 276.877856 143.18721 
L 276.877935 145.84833 
L 276.878075 148.50945 
L 276.878201 151.17057 
L 276.878244 153.83169 
L 276.87818 156.49281 
L 276.878045 159.15393 
L 276.877912 161.81505 
L 276.877852 164.47617 
L 276.877899 167.13729 
L 276.878026 169.79841 
L 276.878165 172.45953 
L 276.878241 175.12065 
L 276.878197 178.22529 
L 276.87807 180.88641 
L 276.87793 183.54753 
L 276.877855 186.20865 
L 276.877884 188.86977 
L 276.878002 191.53089 
L 276.878145 194.19201 
L 276.878235 196.85313 
L 276.878224 199.51425 
L 276.878118 202.17537 
L 276.877973 204.83649 
L 276.877869 207.49761 
L 276.877862 210.15873 
L 276.877956 212.81985 
L 276.878099 215.48097 
L 276.878214 218.14209 
L 276.878238 220.80321 
L 276.878136 223.90785 
L 276.877986 226.56897 
L 276.877858 229.23009 
L 276.877807 231.89121 
L 276.877831 234.55233 
L 276.877863 237.21345 
L 276.877778 239.87457 
L 276.87742 242.53569 
L 276.87662 245.19681 
L 276.875165 247.85793 
L 276.872729 250.51905 
L 276.868764 253.18017 
L 276.862364 255.84129 
L 276.852136 258.50241 
L 276.836075 261.16353 
L 276.811453 263.82465 
L 276.76709 266.92929 
L 276.710337 269.59041 
L 276.630057 272.25153 
L 276.518803 274.91265 
L 276.510833 275.056112 
L 276.392282 277.57377 
L 276.224706 280.23489 
L 276.002974 282.89601 
L 275.712232 285.55713 
L 275.33334 288.21825 
" clip-path="url(#p980c1c5720)" style="fill: none; stroke: #bad6eb; stroke-width: 1.5"/>
   </g>
   <g id="PathCollection_4">
    <path d="M 152.449785 288.21825 
L 152.028483 285.55713 
L 151.712182 282.89601 
L 151.476516 280.23489 
L 151.302745 277.57377 
L 151.176302 274.91265 
L 151.085785 272.25153 
L 151.022235 269.59041 
L 150.978614 266.92929 
L 150.945633 263.82465 
L 150.927936 261.16353 
L 150.916702 258.50241 
L 150.909688 255.84129 
L 150.905347 253.18017 
L 150.902685 250.51905 
L 150.901101 247.85793 
L 150.900241 245.19681 
L 150.899867 242.53569 
L 150.899787 239.87457 
L 150.899828 237.21345 
L 150.899851 234.55233 
L 150.899784 231.89121 
L 150.899633 229.23009 
L 150.899465 226.56897 
L 150.899364 223.90785 
L 150.899398 220.80321 
L 150.899539 218.14209 
L 150.89971 215.48097 
L 150.899827 212.81985 
L 150.899848 210.15873 
L 150.899803 207.49761 
L 150.899798 204.83649 
L 150.899991 202.17537 
L 150.900563 199.51425 
L 150.901722 196.85313 
L 150.903744 194.19201 
L 150.907078 191.53089 
L 150.912482 188.86977 
L 150.921177 186.20865 
L 150.934988 183.54753 
L 150.956481 180.88641 
L 150.989079 178.22529 
L 151.047101 175.12065 
L 151.120475 172.45953 
L 151.223222 169.79841 
L 151.364263 167.13729 
L 151.554618 164.47617 
L 151.807944 161.81505 
L 152.141305 159.15393 
L 152.576324 156.49281 
L 152.697329 155.890714 
L 153.144089 153.83169 
L 153.874423 151.17057 
L 154.482929 149.385015 
L 154.854476 148.50945 
L 156.198314 145.84833 
L 156.268529 145.725119 
L 158.054129 143.498547 
L 158.456179 143.18721 
L 159.875441 142.087876 
L 161.661041 141.13586 
L 162.745592 140.52609 
L 163.446641 140.067505 
L 165.232241 137.988396 
L 165.291335 137.86497 
L 166.331381 135.20385 
L 167.053553 132.615295 
L 167.153291 132.09921 
L 167.568942 129.43809 
L 167.886306 126.77697 
L 168.126932 124.11585 
L 168.30748 121.45473 
L 168.441129 118.79361 
L 168.538475 116.13249 
L 168.60808 113.47137 
L 168.6568 110.81025 
L 168.690003 108.14913 
L 168.711743 105.48801 
L 168.724933 102.82689 
L 168.731501 100.16577 
L 168.732502 97.50465 
L 168.728174 94.84353 
L 168.717906 92.18241 
L 168.700151 89.52129 
L 168.666428 86.41665 
L 168.621892 83.75553 
L 168.557301 81.09441 
L 168.465702 78.43329 
L 168.338291 75.77217 
L 168.163942 73.11105 
L 167.928455 70.44993 
L 167.613442 67.78881 
L 167.194686 65.12769 
L 167.053553 64.407242 
L 166.473914 62.46657 
L 165.354793 59.80545 
L 165.232241 59.57416 
L 163.446641 58.037572 
L 161.661041 57.51303 
L 160.084032 57.14433 
L 159.875441 57.099137 
L 158.054129 56.244037 
L 156.268529 54.536959 
L 156.232866 54.48321 
L 154.711169 51.82209 
L 154.482929 51.330746 
L 153.730785 49.16097 
L 153.035613 46.49985 
L 152.697329 44.718616 
L 152.473679 43.39521 
L 152.159401 40.73409 
L 151.964701 38.07297 
L 151.875399 35.41185 
L 151.884318 32.75073 
L 151.990551 30.08961 
L 152.19927 27.42849 
L 152.522098 24.76737 
L 152.697329 23.709576 
L 152.982456 22.10625 
" clip-path="url(#p980c1c5720)" style="fill: none; stroke: #89bedc; stroke-width: 1.5"/>
    <path d="M 241.684091 288.21825 
L 241.232727 285.55713 
L 240.872945 282.89601 
L 240.620273 280.64503 
L 240.572403 280.23489 
L 240.292395 277.57377 
L 240.025382 274.91265 
L 239.748513 272.25153 
L 239.438505 269.59041 
L 239.070156 266.92929 
L 238.834673 265.525067 
L 238.42323 263.82465 
L 237.56283 261.16353 
L 237.013361 259.868154 
L 235.722141 258.50241 
L 235.227761 258.093966 
L 233.442161 257.714321 
L 231.656561 257.784476 
L 229.835249 257.924911 
L 228.049649 258.061922 
L 226.264049 258.39491 
L 226.052007 258.50241 
L 224.478449 259.390351 
L 223.063381 261.16353 
L 222.657137 261.720234 
L 221.651279 263.82465 
L 220.871537 265.482031 
L 220.303876 266.92929 
L 219.187656 269.59041 
L 219.085937 269.81801 
L 217.961109 272.25153 
L 217.300337 273.531001 
L 216.426684 274.91265 
L 215.479025 276.279673 
L 214.178333 277.57377 
L 213.693425 278.038193 
L 211.907825 279.091855 
L 210.122225 279.720281 
L 208.596849 280.23489 
L 208.300913 280.34489 
L 206.515313 281.530642 
L 205.471867 282.89601 
L 204.729713 283.956276 
L 203.977275 285.55713 
L 202.944113 287.794386 
L 202.780152 288.21825 
" clip-path="url(#p980c1c5720)" style="fill: none; stroke: #89bedc; stroke-width: 1.5"/>
    <path d="M 273.151465 22.10625 
L 273.572767 24.76737 
L 273.889068 27.42849 
L 274.124734 30.08961 
L 274.298505 32.75073 
L 274.424948 35.41185 
L 274.515465 38.07297 
L 274.579015 40.73409 
L 274.622636 43.39521 
L 274.655617 46.49985 
L 274.673314 49.16097 
L 274.684548 51.82209 
L 274.691562 54.48321 
L 274.695903 57.14433 
L 274.698565 59.80545 
L 274.700149 62.46657 
L 274.701009 65.12769 
L 274.701383 67.78881 
L 274.701463 70.44993 
L 274.701422 73.11105 
L 274.701399 75.77217 
L 274.701466 78.43329 
L 274.701618 81.09441 
L 274.701786 83.75553 
L 274.701887 86.41665 
L 274.701855 89.52129 
L 274.701718 92.18241 
L 274.701556 94.84353 
L 274.701458 97.50465 
L 274.701476 100.16577 
L 274.701601 102.82689 
L 274.701766 105.48801 
L 274.70188 108.14913 
L 274.701882 110.81025 
L 274.701771 113.47137 
L 274.701607 116.13249 
L 274.701479 118.79361 
L 274.701456 121.45473 
L 274.701551 124.11585 
L 274.701712 126.77697 
L 274.701852 129.43809 
L 274.701895 132.09921 
L 274.701796 135.20385 
L 274.701634 137.86497 
L 274.701494 140.52609 
L 274.701451 143.18721 
L 274.701529 145.84833 
L 274.701684 148.50945 
L 274.701834 151.17057 
L 274.701897 153.83169 
L 274.701838 156.49281 
L 274.70169 159.15393 
L 274.701533 161.81505 
L 274.701452 164.47617 
L 274.701491 167.13729 
L 274.701629 169.79841 
L 274.701791 172.45953 
L 274.701889 175.12065 
L 274.701856 178.22529 
L 274.701718 180.88641 
L 274.701556 183.54753 
L 274.701458 186.20865 
L 274.701476 188.86977 
L 274.701601 191.53089 
L 274.701766 194.19201 
L 274.70188 196.85313 
L 274.701882 199.51425 
L 274.701771 202.17537 
L 274.701607 204.83649 
L 274.701479 207.49761 
L 274.701456 210.15873 
L 274.701551 212.81985 
L 274.701712 215.48097 
L 274.701852 218.14209 
L 274.701894 220.80321 
L 274.701791 223.90785 
L 274.701624 226.56897 
L 274.701471 229.23009 
L 274.7014 231.89121 
L 274.701421 234.55233 
L 274.701462 237.21345 
L 274.701389 239.87457 
L 274.701029 242.53569 
L 274.700189 245.19681 
L 274.698636 247.85793 
L 274.696021 250.51905 
L 274.691757 253.18017 
L 274.684871 255.84129 
L 274.673851 258.50241 
L 274.656511 261.16353 
L 274.629861 263.82465 
L 274.581719 266.92929 
L 274.520008 269.59041 
L 274.432612 272.25153 
L 274.311443 274.91265 
L 274.146492 277.57377 
L 273.92535 280.23489 
L 273.632532 282.89601 
L 273.248479 285.55713 
L 272.903921 287.425323 
L 272.745844 288.21825 
" clip-path="url(#p980c1c5720)" style="fill: none; stroke: #89bedc; stroke-width: 1.5"/>
   </g>
   <g id="PathCollection_5">
    <path d="M 155.182198 288.21825 
L 154.482929 285.689209 
L 154.454811 285.55713 
L 154.002899 282.89601 
L 153.66642 280.23489 
L 153.418343 277.57377 
L 153.237752 274.91265 
L 153.108341 272.25153 
L 153.017342 269.59041 
L 152.95475 266.92929 
L 152.907299 263.82465 
L 152.881769 261.16353 
L 152.865528 258.50241 
L 152.855374 255.84129 
L 152.849086 253.18017 
L 152.845224 250.51905 
L 152.842914 247.85793 
L 152.84164 245.19681 
L 152.841066 242.53569 
L 152.840924 239.87457 
L 152.840971 237.21345 
L 152.841012 234.55233 
L 152.840935 231.89121 
L 152.840737 229.23009 
L 152.840504 226.56897 
L 152.840351 223.90785 
L 152.840375 220.80321 
L 152.840557 218.14209 
L 152.840793 215.48097 
L 152.840966 212.81985 
L 152.84101 210.15873 
L 152.840952 207.49761 
L 152.840929 204.83649 
L 152.84115 202.17537 
L 152.841862 199.51425 
L 152.843342 196.85313 
L 152.845952 194.19201 
L 152.850272 191.53089 
L 152.857279 188.86977 
L 152.868562 186.20865 
L 152.886516 183.54753 
L 152.91452 180.88641 
L 152.957102 178.22529 
L 153.033091 175.12065 
L 153.129377 172.45953 
L 153.264369 169.79841 
L 153.44977 167.13729 
L 153.699942 164.47617 
L 154.03254 161.81505 
L 154.469425 159.15393 
L 154.482929 159.087388 
L 155.127221 156.49281 
L 155.970292 153.83169 
L 156.268529 153.052078 
L 157.319805 151.17057 
L 158.054129 150.035281 
L 159.841225 148.50945 
L 159.875441 148.481841 
L 161.661041 147.888518 
L 163.446641 147.685784 
L 165.232241 147.174293 
L 166.441738 145.84833 
L 167.053553 145.010723 
L 167.70846 143.18721 
L 168.464954 140.52609 
L 168.839153 138.865006 
L 169.006702 137.86497 
L 169.388221 135.20385 
L 169.740274 132.09921 
L 169.975815 129.43809 
L 170.161024 126.77697 
L 170.304656 124.11585 
L 170.414283 121.45473 
L 170.49648 118.79361 
L 170.556947 116.13249 
L 170.600552 113.47137 
L 170.624753 111.382674 
L 170.631558 110.81025 
L 170.653474 108.14913 
L 170.668017 105.48801 
L 170.676989 102.82689 
L 170.6816 100.16577 
L 170.682559 97.50465 
L 170.680103 94.84353 
L 170.673981 92.18241 
L 170.663363 89.52129 
L 170.643268 86.41665 
L 170.624753 84.549476 
L 170.617064 83.75553 
L 170.579913 81.09441 
L 170.527387 78.43329 
L 170.454816 75.77217 
L 170.356657 73.11105 
L 170.226362 70.44993 
L 170.056206 67.78881 
L 169.837112 65.12769 
L 169.558579 62.46657 
L 169.208829 59.80545 
L 168.839153 57.509669 
L 168.756752 57.14433 
L 168.034055 54.48321 
L 167.064546 51.82209 
L 167.053553 51.795163 
L 165.232241 50.155351 
L 163.446641 50.225655 
L 161.661041 50.5972 
L 159.875441 50.540941 
L 158.054129 49.527313 
L 157.767046 49.16097 
L 156.268529 46.850886 
L 156.128381 46.49985 
L 155.180687 43.39521 
L 154.635186 40.73409 
L 154.482929 39.575214 
L 154.324285 38.07297 
L 154.185353 35.41185 
L 154.181736 32.75073 
L 154.310859 30.08961 
L 154.482929 28.364572 
L 154.595744 27.42849 
L 155.089995 24.76737 
L 155.78734 22.10625 
" clip-path="url(#p980c1c5720)" style="fill: none; stroke: #539ecd; stroke-width: 1.5"/>
    <path d="M 244.403375 288.21825 
L 244.191473 287.562004 
L 243.714715 285.55713 
L 243.218924 282.89601 
L 242.830054 280.23489 
L 242.516155 277.57377 
L 242.405873 276.473143 
L 242.258415 274.91265 
L 242.028806 272.25153 
L 241.802742 269.59041 
L 241.562988 266.92929 
L 241.244121 263.82465 
L 240.918946 261.16353 
L 240.620273 259.093143 
L 240.509149 258.50241 
L 239.90898 255.84129 
L 239.123423 253.18017 
L 238.834673 252.354978 
L 237.252234 250.51905 
L 237.013361 250.296352 
L 235.227761 250.284874 
L 234.61563 250.51905 
L 233.442161 250.895641 
L 231.656561 251.448554 
L 229.835249 251.6773 
L 228.049649 251.540301 
L 226.264049 251.24664 
L 224.478449 251.307002 
L 222.657137 252.683859 
L 222.389345 253.18017 
L 221.036606 255.84129 
L 220.871537 256.180703 
L 220.067456 258.50241 
L 219.135463 261.16353 
L 219.085937 261.297255 
L 218.199175 263.82465 
L 217.300337 266.124557 
L 216.932226 266.92929 
L 215.547633 269.59041 
L 215.479025 269.709012 
L 213.693425 271.83102 
L 213.005415 272.25153 
L 211.907825 272.896543 
L 210.122225 273.203139 
L 208.300913 273.150762 
L 206.515313 273.382699 
L 204.729713 274.909492 
L 204.728058 274.91265 
L 203.379656 277.57377 
L 202.944113 278.491686 
L 202.350833 280.23489 
L 201.426336 282.89601 
L 201.122801 283.726553 
L 200.48133 285.55713 
L 199.44742 288.21825 
" clip-path="url(#p980c1c5720)" style="fill: none; stroke: #539ecd; stroke-width: 1.5"/>
    <path d="M 270.419052 22.10625 
L 271.118321 24.635291 
L 271.146439 24.76737 
L 271.598351 27.42849 
L 271.93483 30.08961 
L 272.182907 32.75073 
L 272.363498 35.41185 
L 272.492909 38.07297 
L 272.583908 40.73409 
L 272.6465 43.39521 
L 272.693951 46.49985 
L 272.719481 49.16097 
L 272.735722 51.82209 
L 272.745876 54.48321 
L 272.752164 57.14433 
L 272.756026 59.80545 
L 272.758336 62.46657 
L 272.75961 65.12769 
L 272.760184 67.78881 
L 272.760326 70.44993 
L 272.760279 73.11105 
L 272.760238 75.77217 
L 272.760315 78.43329 
L 272.760513 81.09441 
L 272.760747 83.75553 
L 272.760901 86.41665 
L 272.760879 89.52129 
L 272.760701 92.18241 
L 272.760477 94.84353 
L 272.760327 97.50465 
L 272.760334 100.16577 
L 272.760493 102.82689 
L 272.760719 105.48801 
L 272.760888 108.14913 
L 272.76091 110.81025 
L 272.760772 113.47137 
L 272.76055 116.13249 
L 272.760363 118.79361 
L 272.760313 121.45473 
L 272.760427 124.11585 
L 272.760644 126.77697 
L 272.760845 129.43809 
L 272.760922 132.09921 
L 272.760804 135.20385 
L 272.760588 137.86497 
L 272.760386 140.52609 
L 272.760309 143.18721 
L 272.760398 145.84833 
L 272.760605 148.50945 
L 272.760818 151.17057 
L 272.760921 153.83169 
L 272.760858 156.49281 
L 272.760664 159.15393 
L 272.760444 161.81505 
L 272.760317 164.47617 
L 272.760351 167.13729 
L 272.760529 169.79841 
L 272.760754 172.45953 
L 272.760904 175.12065 
L 272.76088 178.22529 
L 272.760702 180.88641 
L 272.760477 183.54753 
L 272.760328 186.20865 
L 272.760334 188.86977 
L 272.760493 191.53089 
L 272.760719 194.19201 
L 272.760888 196.85313 
L 272.76091 199.51425 
L 272.760772 202.17537 
L 272.76055 204.83649 
L 272.760363 207.49761 
L 272.760313 210.15873 
L 272.760427 212.81985 
L 272.760643 215.48097 
L 272.760844 218.14209 
L 272.76092 220.80321 
L 272.760798 223.90785 
L 272.760574 226.56897 
L 272.760357 229.23009 
L 272.760245 231.89121 
L 272.760261 234.55233 
L 272.760323 237.21345 
L 272.760251 239.87457 
L 272.759813 242.53569 
L 272.758747 245.19681 
L 272.756743 247.85793 
L 272.753347 250.51905 
L 272.747799 253.18017 
L 272.738835 255.84129 
L 272.724471 258.50241 
L 272.701824 261.16353 
L 272.666929 263.82465 
L 272.603716 266.92929 
L 272.522486 269.59041 
L 272.407235 272.25153 
L 272.24724 274.91265 
L 272.02926 277.57377 
L 271.736947 280.23489 
L 271.349988 282.89601 
L 271.118321 284.143891 
L 270.794673 285.55713 
L 270.023183 288.21825 
" clip-path="url(#p980c1c5720)" style="fill: none; stroke: #539ecd; stroke-width: 1.5"/>
   </g>
   <g id="PathCollection_6">
    <path d="M 156.191739 280.23489 
L 155.804876 277.57377 
L 155.523379 274.91265 
L 155.321597 272.25153 
L 155.179561 269.59041 
L 155.081699 266.92929 
L 155.007333 263.82465 
L 154.967215 261.16353 
L 154.941639 258.50241 
L 154.925627 255.84129 
L 154.915705 253.18017 
L 154.909602 250.51905 
L 154.905935 247.85793 
L 154.903884 245.19681 
L 154.902928 242.53569 
L 154.90266 239.87457 
L 154.902714 237.21345 
L 154.902787 234.55233 
L 154.902696 231.89121 
L 154.902418 229.23009 
L 154.902067 226.56897 
L 154.901817 223.90785 
L 154.901819 220.80321 
L 154.902071 218.14209 
L 154.902421 215.48097 
L 154.902697 212.81985 
L 154.902784 210.15873 
L 154.902708 207.49761 
L 154.902651 204.83649 
L 154.902917 202.17537 
L 154.903867 199.51425 
L 154.905904 196.85313 
L 154.909542 194.19201 
L 154.915587 191.53089 
L 154.925402 188.86977 
L 154.941216 186.20865 
L 154.966416 183.54753 
L 155.005809 180.88641 
L 155.065849 178.22529 
L 155.173221 175.12065 
L 155.309451 172.45953 
L 155.500489 169.79841 
L 155.762647 167.13729 
L 156.115685 164.47617 
L 156.268529 163.589966 
L 156.721341 161.81505 
L 157.586762 159.15393 
L 158.054129 157.995604 
L 159.309129 156.49281 
L 159.875441 155.903655 
L 161.661041 155.69305 
L 163.170647 156.49281 
L 163.446641 156.687667 
L 165.232241 158.45079 
L 166.648834 159.15393 
L 167.053553 159.472693 
L 167.273919 159.15393 
L 168.839153 156.551967 
L 168.851625 156.49281 
L 169.440751 153.83169 
L 169.977266 151.17057 
L 170.451485 148.50945 
L 170.624753 147.452116 
L 170.836825 145.84833 
L 171.163909 143.18721 
L 171.451927 140.52609 
L 171.700358 137.86497 
L 171.910821 135.20385 
L 172.11227 132.09921 
L 172.251182 129.43809 
L 172.362845 126.77697 
L 172.410353 125.358873 
L 172.458892 124.11585 
L 172.540647 121.45473 
L 172.602763 118.79361 
L 172.648912 116.13249 
L 172.682486 113.47137 
L 172.706436 110.81025 
L 172.72315 108.14913 
L 172.734419 105.48801 
L 172.741503 102.82689 
L 172.745237 100.16577 
L 172.746144 97.50465 
L 172.744479 94.84353 
L 172.740188 92.18241 
L 172.732814 89.52129 
L 172.718979 86.41665 
L 172.700801 83.75553 
L 172.674472 81.09441 
L 172.637304 78.43329 
L 172.586254 75.77217 
L 172.51802 73.11105 
L 172.429122 70.44993 
L 172.410353 69.99897 
L 172.330272 67.78881 
L 172.209347 65.12769 
L 172.059714 62.46657 
L 171.87813 59.80545 
L 171.66261 57.14433 
L 171.413629 54.48321 
L 171.135728 51.82209 
L 170.83944 49.16097 
L 170.624753 47.191826 
L 170.52511 46.49985 
L 170.125072 43.39521 
L 169.85225 40.73409 
L 169.72911 38.07297 
L 169.866692 35.41185 
L 170.405955 32.75073 
L 170.624753 32.177591 
L 171.178193 30.08961 
L 172.28113 27.42849 
L 172.410353 27.199492 
L 173.800463 24.76737 
L 174.231665 24.178849 
L 176.017265 22.572197 
L 177.802865 22.257083 
L 179.588465 23.301129 
L 180.81362 24.76737 
L 181.409777 25.655607 
L 182.46214 27.42849 
L 183.195377 29.008861 
L 183.914263 30.08961 
L 184.980977 32.146043 
L 186.766577 32.559596 
L 188.387449 30.08961 
L 188.587889 29.855073 
L 189.808154 27.42849 
L 190.373489 26.54937 
L 191.511319 24.76737 
L 192.159089 23.94393 
L 193.944689 22.466287 
L 195.766001 22.246758 
L 197.551601 23.381165 
L 198.686307 24.76737 
L 199.337201 25.75741 
L 200.331111 27.42849 
L 201.122801 29.131569 
L 201.782285 30.08961 
L 202.944113 32.252508 
L 204.729713 32.471566 
L 206.221303 30.08961 
L 206.515313 29.729034 
L 207.663307 27.42849 
L 208.300913 26.429288 
L 209.373289 24.76737 
L 210.122225 23.825381 
L 211.907825 22.415121 
L 213.693425 22.26688 
L 215.479025 23.452271 
L 216.540718 24.76737 
L 217.300337 25.94069 
L 218.191148 27.42849 
L 219.085937 29.338728 
L 219.622163 30.08961 
L 220.871537 32.32637 
L 222.657137 32.410304 
L 224.047343 30.08961 
L 224.478449 29.538031 
L 225.520032 27.42849 
L 226.264049 26.250169 
L 227.231689 24.76737 
L 228.049649 23.748228 
L 229.835249 22.383583 
L 231.656561 22.301144 
L 233.442161 23.562265 
L 234.40048 24.76737 
L 235.227761 26.063755 
L 236.04923 27.42849 
L 237.013361 29.474464 
L 237.471343 30.08961 
L 238.834673 32.427381 
L 240.620273 32.308992 
L 241.895211 30.08961 
L 242.405873 29.408375 
L 243.37744 27.42849 
L 244.191473 26.131315 
L 245.092783 24.76737 
L 246.012785 23.635375 
L 247.798385 22.340213 
L 249.583985 22.326895 
L 251.369585 23.638493 
L 252.256194 24.76737 
L 253.190897 26.252627 
L 253.903662 27.42849 
L 254.976497 29.687152 
L 255.285949 30.08961 
L 256.762097 32.536154 
L 258.547697 32.357349 
L 259.868505 30.08961 
L 260.369009 29.430715 
L 261.41714 27.42849 
L 262.154609 26.321611 
L 263.371305 24.76737 
L 263.940209 24.170174 
L 265.725809 23.492306 
L 267.547121 24.737218 
L 267.562577 24.76737 
L 268.64958 27.42849 
L 269.332721 29.685747 
L 269.409511 30.08961 
L 269.796374 32.75073 
L 270.077871 35.41185 
L 270.279653 38.07297 
L 270.421689 40.73409 
L 270.519551 43.39521 
L 270.593917 46.49985 
L 270.634035 49.16097 
L 270.659611 51.82209 
L 270.675623 54.48321 
L 270.685545 57.14433 
L 270.691648 59.80545 
L 270.695315 62.46657 
L 270.697366 65.12769 
L 270.698322 67.78881 
L 270.69859 70.44993 
L 270.698536 73.11105 
L 270.698463 75.77217 
L 270.698554 78.43329 
L 270.698833 81.09441 
L 270.699184 83.75553 
L 270.699434 86.41665 
L 270.699436 89.52129 
L 270.699191 92.18241 
L 270.698856 94.84353 
L 270.698612 97.50465 
L 270.698592 100.16577 
L 270.698808 102.82689 
L 270.699141 105.48801 
L 270.699412 108.14913 
L 270.699474 110.81025 
L 270.699292 113.47137 
L 270.698967 116.13249 
L 270.698673 118.79361 
L 270.698571 121.45473 
L 270.698715 124.11585 
L 270.699028 126.77697 
L 270.69934 129.43809 
L 270.699481 132.09921 
L 270.699337 135.20385 
L 270.699024 137.86497 
L 270.698712 140.52609 
L 270.69857 143.18721 
L 270.698676 145.84833 
L 270.698971 148.50945 
L 270.699296 151.17057 
L 270.699474 153.83169 
L 270.69941 156.49281 
L 270.699137 159.15393 
L 270.698804 161.81505 
L 270.698591 164.47617 
L 270.698614 167.13729 
L 270.69886 169.79841 
L 270.699196 172.45953 
L 270.69944 175.12065 
L 270.699438 178.22529 
L 270.699192 180.88641 
L 270.698856 183.54753 
L 270.698612 186.20865 
L 270.698592 188.86977 
L 270.698808 191.53089 
L 270.699141 194.19201 
L 270.699412 196.85313 
L 270.699474 199.51425 
L 270.699292 202.17537 
L 270.698967 204.83649 
L 270.698673 207.49761 
L 270.69857 210.15873 
L 270.698715 212.81985 
L 270.699027 215.48097 
L 270.699338 218.14209 
L 270.699478 220.80321 
L 270.699329 223.90785 
L 270.699006 226.56897 
L 270.698671 229.23009 
L 270.698482 231.89121 
L 270.698487 234.55233 
L 270.698582 237.21345 
L 270.698513 239.87457 
L 270.69794 242.53569 
L 270.696477 245.19681 
L 270.693676 247.85793 
L 270.688893 250.51905 
L 270.681062 253.18017 
L 270.668399 255.84129 
L 270.64809 258.50241 
L 270.616007 261.16353 
L 270.566459 263.82465 
L 270.476461 266.92929 
L 270.360556 269.59041 
L 270.195861 272.25153 
L 269.967026 274.91265 
L 269.655196 277.57377 
L 269.332721 279.639555 
L 269.19272 280.23489 
L 268.386632 282.89601 
L 267.547121 285.050186 
L 267.073431 285.55713 
L 265.725809 286.761094 
L 263.940209 286.402802 
L 263.078379 285.55713 
L 262.154609 284.437427 
L 261.172491 282.89601 
L 260.369009 281.285551 
L 259.662025 280.23489 
L 258.547697 278.107811 
L 256.762097 277.575636 
L 254.976497 280.064638 
L 254.905594 280.23489 
L 253.462737 282.89601 
L 253.190897 283.290469 
L 251.571994 285.55713 
L 251.369585 285.788432 
L 249.583985 286.833239 
L 247.798385 286.163764 
L 247.415389 285.55713 
L 246.087694 282.89601 
L 246.012785 282.70401 
L 245.458085 280.23489 
L 244.996928 277.57377 
L 244.634612 274.91265 
L 244.339553 272.25153 
L 244.191473 270.692409 
L 244.106231 269.59041 
L 243.916338 266.92929 
L 243.694452 263.82465 
L 243.490506 261.16353 
L 243.263732 258.50241 
L 243.00688 255.84129 
L 242.715396 253.18017 
L 242.405873 250.655257 
L 242.386247 250.51905 
L 241.976566 247.85793 
L 241.508011 245.19681 
L 240.986809 242.53569 
L 240.620273 240.735549 
L 240.213414 239.87457 
L 238.834673 237.353642 
L 237.013361 238.539147 
L 236.209785 239.87457 
L 235.227761 241.028506 
L 234.046468 242.53569 
L 233.442161 243.130841 
L 231.656561 244.366258 
L 229.835249 244.671802 
L 228.049649 243.987442 
L 226.298456 242.53569 
L 226.264049 242.497737 
L 224.478449 240.433844 
L 223.364313 239.87457 
L 222.657137 239.320392 
L 222.283006 239.87457 
L 220.871537 242.097357 
L 220.768185 242.53569 
L 220.080982 245.19681 
L 219.394711 247.85793 
L 219.085937 249.002923 
L 218.760534 250.51905 
L 218.136538 253.18017 
L 217.465774 255.84129 
L 217.300337 256.428765 
L 216.654056 258.50241 
L 215.717113 261.16353 
L 215.479025 261.755485 
L 214.253061 263.82465 
L 213.693425 264.650876 
L 211.907825 265.790355 
L 210.122225 265.554473 
L 208.300913 264.235793 
L 207.793722 263.82465 
L 206.515313 262.312417 
L 204.729713 261.446316 
L 203.288805 263.82465 
L 202.944113 264.424796 
L 202.327346 266.92929 
L 201.652434 269.59041 
L 201.122801 271.636134 
L 200.994484 272.25153 
L 200.37525 274.91265 
L 199.707848 277.57377 
L 199.337201 278.905785 
L 198.92024 280.23489 
L 197.96694 282.89601 
L 197.551601 283.90629 
L 196.493314 285.55713 
L 195.766001 286.545484 
L 193.944689 287.286345 
L 192.159089 286.391194 
L 191.427318 285.55713 
L 190.373489 284.059352 
L 189.641965 282.89601 
L 188.587889 280.75128 
L 188.192469 280.23489 
L 186.766577 277.853702 
L 184.980977 277.999344 
L 183.700474 280.23489 
L 183.195377 280.911087 
L 182.222104 282.89601 
L 181.409777 284.191702 
L 180.507795 285.55713 
L 179.588465 286.68873 
L 177.802865 287.98417 
L 176.017265 287.997573 
L 174.231665 286.685999 
L 173.34506 285.55713 
L 172.410353 284.071871 
L 171.697589 282.89601 
L 170.624753 280.637347 
L 170.315302 280.23489 
L 168.839153 277.788346 
L 167.053553 277.967151 
L 165.732745 280.23489 
L 165.232241 280.893785 
L 164.18411 282.89601 
L 163.446641 284.002889 
L 162.229945 285.55713 
L 161.661041 286.154326 
L 159.875441 286.832194 
L 158.054129 285.587282 
L 158.038673 285.55713 
L 156.95167 282.89601 
L 156.268529 280.638753 
L 156.191739 280.23489 
z
" clip-path="url(#p980c1c5720)" style="fill: none; stroke: #2b7bba; stroke-width: 1.5"/>
    <path d="M 157.57981 38.07297 
L 157.230188 35.41185 
L 157.181768 32.75073 
L 157.422224 30.08961 
L 157.955761 27.42849 
L 158.054129 27.112202 
L 159.785818 24.76737 
L 159.875441 24.676911 
L 160.256664 24.76737 
L 161.661041 25.220166 
L 163.124931 27.42849 
L 163.446641 28.196566 
L 164.116561 30.08961 
L 164.583407 32.75073 
L 164.570007 35.41185 
L 163.986523 38.07297 
L 163.446641 39.190867 
L 162.558503 40.73409 
L 161.661041 41.715621 
L 159.875441 42.157613 
L 158.551911 40.73409 
L 158.054129 39.950482 
L 157.57981 38.07297 
z
" clip-path="url(#p980c1c5720)" style="fill: none; stroke: #2b7bba; stroke-width: 1.5"/>
   </g>
   <g id="PathCollection_7">
    <path d="M 157.978791 263.82465 
L 157.902025 261.16353 
L 157.852957 258.50241 
L 157.822182 255.84129 
L 157.803096 253.18017 
L 157.791344 250.51905 
L 157.784242 247.85793 
L 157.780207 245.19681 
L 157.778252 242.53569 
L 157.777628 239.87457 
L 157.777673 237.21345 
L 157.777823 234.55233 
L 157.777714 231.89121 
L 157.77726 229.23009 
L 157.776636 226.56897 
L 157.776146 223.90785 
L 157.77607 220.80321 
L 157.776467 218.14209 
L 157.777083 215.48097 
L 157.777611 212.81985 
L 157.777819 210.15873 
L 157.777707 207.49761 
L 157.777561 204.83649 
L 157.77789 202.17537 
L 157.779322 199.51425 
L 157.782547 196.85313 
L 157.788414 194.19201 
L 157.798221 191.53089 
L 157.814163 188.86977 
L 157.839859 186.20865 
L 157.880869 183.54753 
L 157.945127 180.88641 
L 158.0433 178.22529 
L 158.054129 178.033481 
L 158.451997 175.12065 
L 158.978491 172.45953 
L 159.695313 169.79841 
L 159.875441 169.295691 
L 160.614302 169.79841 
L 161.661041 170.843738 
L 162.019236 172.45953 
L 162.417768 175.12065 
L 162.71382 178.22529 
L 162.871832 180.88641 
L 162.972175 183.54753 
L 163.034836 186.20865 
L 163.073577 188.86977 
L 163.097477 191.53089 
L 163.112152 194.19201 
L 163.120851 196.85313 
L 163.125455 199.51425 
L 163.127254 202.17537 
L 163.12739 204.83649 
L 163.126939 207.49761 
L 163.126756 210.15873 
L 163.127255 212.81985 
L 163.128323 215.48097 
L 163.129457 218.14209 
L 163.130076 220.80321 
L 163.129737 223.90785 
L 163.128707 226.56897 
L 163.127532 229.23009 
L 163.126771 231.89121 
L 163.126673 234.55233 
L 163.126962 237.21345 
L 163.126842 239.87457 
L 163.125169 242.53569 
L 163.12062 245.19681 
L 163.111664 247.85793 
L 163.09618 250.51905 
L 163.070713 253.18017 
L 163.029482 255.84129 
L 162.963303 258.50241 
L 162.8586 261.16353 
L 162.69653 263.82465 
L 162.401342 266.92929 
L 162.020268 269.59041 
L 161.661041 271.358086 
L 161.073527 272.25153 
L 159.875441 273.599837 
L 159.380113 272.25153 
L 158.691028 269.59041 
L 158.220906 266.92929 
L 158.054129 265.480544 
L 157.978791 263.82465 
z
" clip-path="url(#p980c1c5720)" style="fill: none; stroke: #0b559f; stroke-width: 1.5"/>
    <path d="M 174.14493 272.25153 
L 173.728717 269.59041 
L 173.43958 266.92929 
L 173.217918 263.82465 
L 173.097281 261.16353 
L 173.019821 258.50241 
L 172.971058 255.84129 
L 172.940742 253.18017 
L 172.922053 250.51905 
L 172.910751 247.85793 
L 172.904311 245.19681 
L 172.90115 242.53569 
L 172.900085 239.87457 
L 172.900084 237.21345 
L 172.900278 234.55233 
L 172.900103 231.89121 
L 172.899418 229.23009 
L 172.898479 226.56897 
L 172.897737 223.90785 
L 172.897606 220.80321 
L 172.898181 218.14209 
L 172.899072 215.48097 
L 172.899797 212.81985 
L 172.899971 210.15873 
L 172.899512 207.49761 
L 172.898703 204.83649 
L 172.898041 202.17537 
L 172.898003 199.51425 
L 172.898829 196.85313 
L 172.900464 194.19201 
L 172.902721 191.53089 
L 172.905571 188.86977 
L 172.909461 186.20865 
L 172.915511 183.54753 
L 172.925515 180.88641 
L 172.941786 178.22529 
L 172.972175 175.12065 
L 173.011086 172.45953 
L 173.064656 169.79841 
L 173.135296 167.13729 
L 173.224898 164.47617 
L 173.334366 161.81505 
L 173.46306 159.15393 
L 173.60841 156.49281 
L 173.765937 153.83169 
L 173.929778 151.17057 
L 174.093596 148.50945 
L 174.231665 146.20055 
L 174.262117 145.84833 
L 174.487936 143.18721 
L 174.692802 140.52609 
L 174.874245 137.86497 
L 175.031665 135.20385 
L 175.185873 132.09921 
L 175.29442 129.43809 
L 175.38303 126.77697 
L 175.453709 124.11585 
L 175.508669 121.45473 
L 175.55031 118.79361 
L 175.581139 116.13249 
L 175.60359 113.47137 
L 175.619795 110.81025 
L 175.631413 108.14913 
L 175.639557 105.48801 
L 175.644886 102.82689 
L 175.647779 100.16577 
L 175.648513 97.50465 
L 175.647352 94.84353 
L 175.644491 92.18241 
L 175.639891 89.52129 
L 175.631689 86.41665 
L 175.621055 83.75553 
L 175.605471 81.09441 
L 175.583052 78.43329 
L 175.551775 75.77217 
L 175.509627 73.11105 
L 175.454669 70.44993 
L 175.385037 67.78881 
L 175.299009 65.12769 
L 175.195248 62.46657 
L 175.073392 59.80545 
L 174.935068 57.14433 
L 174.785378 54.48321 
L 174.634789 51.82209 
L 174.501244 49.16097 
L 174.41219 46.49985 
L 174.416529 43.39521 
L 174.571536 40.73409 
L 174.932573 38.07297 
L 175.572975 35.41185 
L 176.017265 34.199629 
L 177.802865 33.312146 
L 179.04222 35.41185 
L 179.588465 36.680055 
L 179.904112 38.07297 
L 180.330585 40.73409 
L 180.622022 43.39521 
L 180.838199 46.49985 
L 180.94852 49.16097 
L 181.011735 51.82209 
L 181.043546 54.48321 
L 181.055427 57.14433 
L 181.055322 59.80545 
L 181.048407 62.46657 
L 181.03791 65.12769 
L 181.02589 67.78881 
L 181.013828 70.44993 
L 181.002909 73.11105 
L 180.994024 75.77217 
L 180.987612 78.43329 
L 180.983543 81.09441 
L 180.981188 83.75553 
L 180.979681 86.41665 
L 180.978043 89.52129 
L 180.976437 92.18241 
L 180.974898 94.84353 
L 180.973958 97.50465 
L 180.974105 100.16577 
L 180.975505 102.82689 
L 180.977954 105.48801 
L 180.981045 108.14913 
L 180.984488 110.81025 
L 180.988388 113.47137 
L 180.993329 116.13249 
L 181.000197 118.79361 
L 181.009835 121.45473 
L 181.02269 124.11585 
L 181.038638 126.77697 
L 181.057059 129.43809 
L 181.07711 132.09921 
L 181.10158 135.20385 
L 181.122964 137.86497 
L 181.144508 140.52609 
L 181.166028 143.18721 
L 181.187141 145.84833 
L 181.207178 148.50945 
L 181.225309 151.17057 
L 181.240796 153.83169 
L 181.253267 156.49281 
L 181.262848 159.15393 
L 181.270103 161.81505 
L 181.275788 164.47617 
L 181.280544 167.13729 
L 181.284675 169.79841 
L 181.288119 172.45953 
L 181.290613 175.12065 
L 181.292065 178.22529 
L 181.292178 180.88641 
L 181.291706 183.54753 
L 181.291239 186.20865 
L 181.291244 188.86977 
L 181.291852 191.53089 
L 181.292814 194.19201 
L 181.293658 196.85313 
L 181.293952 199.51425 
L 181.293554 202.17537 
L 181.292687 204.83649 
L 181.291826 207.49761 
L 181.291439 210.15873 
L 181.291738 212.81985 
L 181.29256 215.48097 
L 181.293459 218.14209 
L 181.293946 220.80321 
L 181.293652 223.90785 
L 181.292802 226.56897 
L 181.291842 229.23009 
L 181.291225 231.89121 
L 181.291148 234.55233 
L 181.291378 237.21345 
L 181.291257 239.87457 
L 181.289841 242.53569 
L 181.286041 245.19681 
L 181.278588 247.85793 
L 181.26572 250.51905 
L 181.244561 253.18017 
L 181.210304 255.84129 
L 181.155319 258.50241 
L 181.06832 261.16353 
L 180.933622 263.82465 
L 180.688117 266.92929 
L 180.370782 269.59041 
L 179.918298 272.25153 
L 179.588465 273.652479 
L 179.077297 274.91265 
L 177.802865 277.255611 
L 176.017265 277.038408 
L 175.006991 274.91265 
L 174.231665 272.651223 
L 174.14493 272.25153 
z
" clip-path="url(#p980c1c5720)" style="fill: none; stroke: #0b559f; stroke-width: 1.5"/>
    <path d="M 192.139835 272.25153 
L 191.679278 269.59041 
L 191.360031 266.92929 
L 191.114936 263.82465 
L 190.980746 261.16353 
L 190.893718 258.50241 
L 190.838156 255.84129 
L 190.803011 253.18017 
L 190.780924 250.51905 
L 190.767268 247.85793 
L 190.759233 245.19681 
L 190.755019 242.53569 
L 190.753279 239.87457 
L 190.752857 237.21345 
L 190.752793 234.55233 
L 190.75246 231.89121 
L 190.751679 229.23009 
L 190.75068 226.56897 
L 190.749903 223.90785 
L 190.749755 220.80321 
L 190.750327 218.14209 
L 190.751219 215.48097 
L 190.751942 212.81985 
L 190.752102 210.15873 
L 190.751609 207.49761 
L 190.750732 204.83649 
L 190.749945 202.17537 
L 190.749674 199.51425 
L 190.750067 196.85313 
L 190.75091 194.19201 
L 190.751747 191.53089 
L 190.752124 188.86977 
L 190.751837 186.20865 
L 190.751043 183.54753 
L 190.750172 180.88641 
L 190.749699 178.22529 
L 190.749976 175.12065 
L 190.750781 172.45953 
L 190.751667 169.79841 
L 190.752162 167.13729 
L 190.75201 164.47617 
L 190.751308 161.81505 
L 190.750458 159.15393 
L 190.749946 156.49281 
L 190.750081 153.83169 
L 190.750827 151.17057 
L 190.751825 148.50945 
L 190.752582 145.84833 
L 190.752743 143.18721 
L 190.75228 140.52609 
L 190.751504 137.86497 
L 190.750897 135.20385 
L 190.750908 132.09921 
L 190.751594 129.43809 
L 190.752582 126.77697 
L 190.753386 124.11585 
L 190.753613 121.45473 
L 190.753175 118.79361 
L 190.75234 116.13249 
L 190.751586 113.47137 
L 190.75134 110.81025 
L 190.75175 108.14913 
L 190.752604 105.48801 
L 190.753448 102.82689 
L 190.75383 100.16577 
L 190.753545 97.50465 
L 190.752751 94.84353 
L 190.75188 92.18241 
L 190.751406 89.52129 
L 190.751682 86.41665 
L 190.752494 83.75553 
L 190.75341 81.09441 
L 190.753989 78.43329 
L 190.754039 75.77217 
L 190.753781 73.11105 
L 190.75385 70.44993 
L 190.755157 67.78881 
L 190.758756 65.12769 
L 190.765871 62.46657 
L 190.77821 59.80545 
L 190.798553 57.14433 
L 190.831554 54.48321 
L 190.884605 51.82209 
L 190.968641 49.16097 
L 191.098883 46.49985 
L 191.336502 43.39521 
L 191.643947 40.73409 
L 192.082769 38.07297 
L 192.159089 37.736947 
L 192.977648 35.41185 
L 193.944689 33.37345 
L 195.766001 33.031154 
L 197.049738 35.41185 
L 197.551601 36.697769 
L 197.861437 38.07297 
L 198.290421 40.73409 
L 198.58821 43.39521 
L 198.816366 46.49985 
L 198.94048 49.16097 
L 199.020149 51.82209 
L 199.070292 54.48321 
L 199.101463 57.14433 
L 199.120677 59.80545 
L 199.132295 62.46657 
L 199.138914 65.12769 
L 199.142161 67.78881 
L 199.143254 70.44993 
L 199.143253 73.11105 
L 199.143054 75.77217 
L 199.143236 78.43329 
L 199.143941 81.09441 
L 199.144908 83.75553 
L 199.14567 86.41665 
L 199.145804 89.52129 
L 199.145212 92.18241 
L 199.144298 94.84353 
L 199.143559 97.50465 
L 199.143397 100.16577 
L 199.143899 102.82689 
L 199.144795 105.48801 
L 199.145597 108.14913 
L 199.145872 110.81025 
L 199.145471 113.47137 
L 199.14461 116.13249 
L 199.143757 118.79361 
L 199.143374 121.45473 
L 199.143669 124.11585 
L 199.144482 126.77697 
L 199.145372 129.43809 
L 199.145858 132.09921 
L 199.145582 135.20385 
L 199.144769 137.86497 
L 199.14388 140.52609 
L 199.143395 143.18721 
L 199.143578 145.84833 
L 199.14433 148.50945 
L 199.145243 151.17057 
L 199.145823 153.83169 
L 199.145755 156.49281 
L 199.145076 159.15393 
L 199.144155 161.81505 
L 199.14349 164.47617 
L 199.143442 167.13729 
L 199.144038 169.79841 
L 199.144953 172.45953 
L 199.145693 175.12065 
L 199.145815 178.22529 
L 199.145219 180.88641 
L 199.144304 183.54753 
L 199.143564 186.20865 
L 199.143402 188.86977 
L 199.143904 191.53089 
L 199.144799 194.19201 
L 199.145601 196.85313 
L 199.145876 199.51425 
L 199.145473 202.17537 
L 199.14461 204.83649 
L 199.143752 207.49761 
L 199.143357 210.15873 
L 199.143627 212.81985 
L 199.14439 215.48097 
L 199.145179 218.14209 
L 199.145467 220.80321 
L 199.144726 223.90785 
L 199.143142 226.56897 
L 199.140861 229.23009 
L 199.137935 231.89121 
L 199.133945 234.55233 
L 199.127746 237.21345 
L 199.117391 239.87457 
L 199.100196 242.53569 
L 199.072861 245.19681 
L 199.031527 247.85793 
L 198.971709 250.51905 
L 198.888181 253.18017 
L 198.774935 255.84129 
L 198.62533 258.50241 
L 198.43245 261.16353 
L 198.189454 263.82465 
L 197.833706 266.92929 
L 197.551601 268.910944 
L 197.400838 269.59041 
L 196.677411 272.25153 
L 195.827192 274.91265 
L 195.766001 275.069952 
L 193.944689 275.980355 
L 193.286373 274.91265 
L 192.159089 272.332205 
L 192.139835 272.25153 
z
" clip-path="url(#p980c1c5720)" style="fill: none; stroke: #0b559f; stroke-width: 1.5"/>
    <path d="M 209.89738 250.51905 
L 209.448755 247.85793 
L 209.150059 245.19681 
L 208.952865 242.53569 
L 208.824376 239.87457 
L 208.741855 237.21345 
L 208.689464 234.55233 
L 208.656364 231.89121 
L 208.635441 229.23009 
L 208.622298 226.56897 
L 208.614342 223.90785 
L 208.609538 220.80321 
L 208.607964 218.14209 
L 208.607665 215.48097 
L 208.607738 212.81985 
L 208.607544 210.15873 
L 208.606859 207.49761 
L 208.605875 204.83649 
L 208.60503 202.17537 
L 208.604732 199.51425 
L 208.605117 196.85313 
L 208.605963 194.19201 
L 208.606805 191.53089 
L 208.607184 188.86977 
L 208.606892 186.20865 
L 208.606088 183.54753 
L 208.605206 180.88641 
L 208.604725 178.22529 
L 208.604998 175.12065 
L 208.605802 172.45953 
L 208.606684 169.79841 
L 208.607165 167.13729 
L 208.606985 164.47617 
L 208.606241 161.81505 
L 208.605337 159.15393 
L 208.604762 156.49281 
L 208.604829 153.83169 
L 208.605501 151.17057 
L 208.606413 148.50945 
L 208.607072 145.84833 
L 208.60712 143.18721 
L 208.606531 140.52609 
L 208.605624 137.86497 
L 208.604892 135.20385 
L 208.60477 132.09921 
L 208.605359 129.43809 
L 208.606266 126.77697 
L 208.606998 124.11585 
L 208.60716 121.45473 
L 208.606663 118.79361 
L 208.605777 116.13249 
L 208.604982 113.47137 
L 208.604709 110.81025 
L 208.605106 108.14913 
L 208.605958 105.48801 
L 208.606803 102.82689 
L 208.607183 100.16577 
L 208.606892 97.50465 
L 208.606089 94.84353 
L 208.605209 92.18241 
L 208.604732 89.52129 
L 208.605018 86.41665 
L 208.605849 83.75553 
L 208.606788 81.09441 
L 208.607392 78.43329 
L 208.607468 75.77217 
L 208.607242 73.11105 
L 208.607357 70.44993 
L 208.608736 67.78881 
L 208.612444 65.12769 
L 208.61972 62.46657 
L 208.632287 59.80545 
L 208.652955 57.14433 
L 208.686423 54.48321 
L 208.740153 51.82209 
L 208.825187 49.16097 
L 208.956887 46.49985 
L 209.197033 43.39521 
L 209.507604 40.73409 
L 209.950712 38.07297 
L 210.122225 37.326696 
L 210.830892 35.41185 
L 211.907825 33.248476 
L 213.693425 33.096366 
L 214.895132 35.41185 
L 215.479025 36.967793 
L 215.724931 38.07297 
L 216.149485 40.73409 
L 216.444276 43.39521 
L 216.670185 46.49985 
L 216.793097 49.16097 
L 216.872003 51.82209 
L 216.92167 54.48321 
L 216.952546 57.14433 
L 216.971579 59.80545 
L 216.983088 62.46657 
L 216.989646 65.12769 
L 216.992864 67.78881 
L 216.993948 70.44993 
L 216.993947 73.11105 
L 216.99375 75.77217 
L 216.99393 78.43329 
L 216.994628 81.09441 
L 216.995585 83.75553 
L 216.996341 86.41665 
L 216.996473 89.52129 
L 216.995888 92.18241 
L 216.994983 94.84353 
L 216.994251 97.50465 
L 216.99409 100.16577 
L 216.994587 102.82689 
L 216.995473 105.48801 
L 216.996268 108.14913 
L 216.996541 110.81025 
L 216.996144 113.47137 
L 216.995292 116.13249 
L 216.994447 118.79361 
L 216.994067 121.45473 
L 216.994358 124.11585 
L 216.995163 126.77697 
L 216.996044 129.43809 
L 216.996525 132.09921 
L 216.996252 135.20385 
L 216.995448 137.86497 
L 216.994566 140.52609 
L 216.994085 143.18721 
L 216.994265 145.84833 
L 216.995009 148.50945 
L 216.995913 151.17057 
L 216.996488 153.83169 
L 216.996421 156.49281 
L 216.995749 159.15393 
L 216.994837 161.81505 
L 216.994178 164.47617 
L 216.99413 167.13729 
L 216.994719 169.79841 
L 216.995626 172.45953 
L 216.996358 175.12065 
L 216.996479 178.22529 
L 216.995889 180.88641 
L 216.994979 183.54753 
L 216.99424 186.20865 
L 216.994064 188.86977 
L 216.994531 191.53089 
L 216.995356 194.19201 
L 216.996028 196.85313 
L 216.996062 199.51425 
L 216.995211 202.17537 
L 216.993521 204.83649 
L 216.991171 207.49761 
L 216.988156 210.15873 
L 216.983955 212.81985 
L 216.977306 215.48097 
L 216.966152 218.14209 
L 216.94773 220.80321 
L 216.912548 223.90785 
L 216.86614 226.56897 
L 216.799868 229.23009 
L 216.708364 231.89121 
L 216.585557 234.55233 
L 216.424919 237.21345 
L 216.219866 239.87457 
L 215.964077 242.53569 
L 215.651451 245.19681 
L 215.479025 246.388862 
L 215.157589 247.85793 
L 214.459571 250.51905 
L 213.693425 253.024237 
L 213.514831 253.18017 
L 211.907825 254.393065 
L 210.997534 253.18017 
L 210.122225 251.445278 
L 209.89738 250.51905 
z
" clip-path="url(#p980c1c5720)" style="fill: none; stroke: #0b559f; stroke-width: 1.5"/>
    <path d="M 227.775634 229.23009 
L 227.318915 226.56897 
L 227.011929 223.90785 
L 226.781764 220.80321 
L 226.658224 218.14209 
L 226.579546 215.48097 
L 226.530333 212.81985 
L 226.499873 210.15873 
L 226.481061 207.49761 
L 226.469499 204.83649 
L 226.462647 202.17537 
L 226.459032 199.51425 
L 226.457639 196.85313 
L 226.457561 194.19201 
L 226.457936 191.53089 
L 226.458082 188.86977 
L 226.457674 186.20865 
L 226.456808 183.54753 
L 226.455893 180.88641 
L 226.455397 178.22529 
L 226.455669 175.12065 
L 226.456479 172.45953 
L 226.457369 169.79841 
L 226.457854 167.13729 
L 226.457671 164.47617 
L 226.456919 161.81505 
L 226.456006 159.15393 
L 226.455427 156.49281 
L 226.455495 153.83169 
L 226.456174 151.17057 
L 226.457095 148.50945 
L 226.45776 145.84833 
L 226.457808 143.18721 
L 226.457212 140.52609 
L 226.456297 137.86497 
L 226.455557 135.20385 
L 226.455435 132.09921 
L 226.456031 129.43809 
L 226.456946 126.77697 
L 226.457686 124.11585 
L 226.457848 121.45473 
L 226.457346 118.79361 
L 226.456451 116.13249 
L 226.455648 113.47137 
L 226.455373 110.81025 
L 226.455775 108.14913 
L 226.456635 105.48801 
L 226.457489 102.82689 
L 226.457872 100.16577 
L 226.457578 97.50465 
L 226.456766 94.84353 
L 226.455878 92.18241 
L 226.455397 89.52129 
L 226.455686 86.41665 
L 226.456525 83.75553 
L 226.457474 81.09441 
L 226.458083 78.43329 
L 226.458159 75.77217 
L 226.457931 73.11105 
L 226.458048 70.44993 
L 226.459442 67.78881 
L 226.463189 65.12769 
L 226.470541 62.46657 
L 226.483237 59.80545 
L 226.504117 57.14433 
L 226.537927 54.48321 
L 226.592205 51.82209 
L 226.6781 49.16097 
L 226.811117 46.49985 
L 227.053626 43.39521 
L 227.367185 40.73409 
L 227.814442 38.07297 
L 228.049649 37.060369 
L 228.681683 35.41185 
L 229.835249 33.172252 
L 231.656561 33.205369 
L 232.741632 35.41185 
L 233.442161 37.384686 
L 233.593202 38.07297 
L 234.013205 40.73409 
L 234.304907 43.39521 
L 234.528493 46.49985 
L 234.65016 49.16097 
L 234.728274 51.82209 
L 234.777446 54.48321 
L 234.808015 57.14433 
L 234.82686 59.80545 
L 234.838255 62.46657 
L 234.844748 65.12769 
L 234.847935 67.78881 
L 234.849008 70.44993 
L 234.849008 73.11105 
L 234.848813 75.77217 
L 234.848991 78.43329 
L 234.849681 81.09441 
L 234.850629 83.75553 
L 234.851377 86.41665 
L 234.851509 89.52129 
L 234.85093 92.18241 
L 234.850034 94.84353 
L 234.849309 97.50465 
L 234.849149 100.16577 
L 234.849641 102.82689 
L 234.850518 105.48801 
L 234.851305 108.14913 
L 234.851576 110.81025 
L 234.851183 113.47137 
L 234.85034 116.13249 
L 234.849503 118.79361 
L 234.849127 121.45473 
L 234.849415 124.11585 
L 234.850211 126.77697 
L 234.851083 129.43809 
L 234.85156 132.09921 
L 234.85129 135.20385 
L 234.850494 137.86497 
L 234.849621 140.52609 
L 234.849145 143.18721 
L 234.849323 145.84833 
L 234.850059 148.50945 
L 234.850954 151.17057 
L 234.851523 153.83169 
L 234.851457 156.49281 
L 234.850792 159.15393 
L 234.849889 161.81505 
L 234.849237 164.47617 
L 234.849189 167.13729 
L 234.849771 169.79841 
L 234.850668 172.45953 
L 234.85139 175.12065 
L 234.851503 178.22529 
L 234.850905 180.88641 
L 234.849973 183.54753 
L 234.849172 186.20865 
L 234.848852 188.86977 
L 234.849018 191.53089 
L 234.849246 194.19201 
L 234.848774 196.85313 
L 234.846671 199.51425 
L 234.841921 202.17537 
L 234.833297 204.83649 
L 234.818941 207.49761 
L 234.795704 210.15873 
L 234.758366 212.81985 
L 234.698838 215.48097 
L 234.605405 218.14209 
L 234.461915 220.80321 
L 234.201925 223.90785 
L 233.865699 226.56897 
L 233.442161 228.904957 
L 233.351319 229.23009 
L 232.331612 231.89121 
L 231.656561 233.193035 
L 229.835249 233.633156 
L 228.734806 231.89121 
L 228.049649 230.342825 
L 227.775634 229.23009 
z
" clip-path="url(#p980c1c5720)" style="fill: none; stroke: #0b559f; stroke-width: 1.5"/>
    <path d="M 245.854183 250.51905 
L 245.683683 247.85793 
L 245.506575 245.19681 
L 245.327872 242.53569 
L 245.153594 239.87457 
L 244.989788 237.21345 
L 244.841631 234.55233 
L 244.71281 231.89121 
L 244.605246 229.23009 
L 244.519147 226.56897 
L 244.453236 223.90785 
L 244.398581 220.80321 
L 244.367126 218.14209 
L 244.346197 215.48097 
L 244.332524 212.81985 
L 244.323466 210.15873 
L 244.317234 207.49761 
L 244.312878 204.83649 
L 244.310045 202.17537 
L 244.308617 199.51425 
L 244.308387 196.85313 
L 244.308915 194.19201 
L 244.309599 191.53089 
L 244.309896 188.86977 
L 244.309552 186.20865 
L 244.308707 183.54753 
L 244.307796 180.88641 
L 244.3073 178.22529 
L 244.307578 175.12065 
L 244.3084 172.45953 
L 244.309301 169.79841 
L 244.309792 167.13729 
L 244.309606 164.47617 
L 244.308845 161.81505 
L 244.307921 159.15393 
L 244.307334 156.49281 
L 244.307404 153.83169 
L 244.308091 151.17057 
L 244.309024 148.50945 
L 244.309697 145.84833 
L 244.309745 143.18721 
L 244.309142 140.52609 
L 244.308215 137.86497 
L 244.307466 135.20385 
L 244.307343 132.09921 
L 244.307946 129.43809 
L 244.308873 126.77697 
L 244.309622 124.11585 
L 244.309786 121.45473 
L 244.309277 118.79361 
L 244.308371 116.13249 
L 244.307558 113.47137 
L 244.30728 110.81025 
L 244.307687 108.14913 
L 244.308559 105.48801 
L 244.309422 102.82689 
L 244.30981 100.16577 
L 244.309512 97.50465 
L 244.30869 94.84353 
L 244.30779 92.18241 
L 244.307304 89.52129 
L 244.307598 86.41665 
L 244.308447 83.75553 
L 244.309407 81.09441 
L 244.310024 78.43329 
L 244.310101 75.77217 
L 244.309869 73.11105 
L 244.309988 70.44993 
L 244.311401 67.78881 
L 244.315196 65.12769 
L 244.322641 62.46657 
L 244.335498 59.80545 
L 244.356641 57.14433 
L 244.390878 54.48321 
L 244.445836 51.82209 
L 244.532803 49.16097 
L 244.667466 46.49985 
L 244.912935 43.39521 
L 245.230256 40.73409 
L 245.682763 38.07297 
L 246.012785 36.671391 
L 246.523731 35.41185 
L 247.798385 33.068716 
L 249.583985 33.286044 
L 250.59427 35.41185 
L 251.369585 37.673265 
L 251.456322 38.07297 
L 251.872534 40.73409 
L 252.161671 43.39521 
L 252.383332 46.49985 
L 252.503969 49.16097 
L 252.581429 51.82209 
L 252.630192 54.48321 
L 252.660508 57.14433 
L 252.679197 59.80545 
L 252.690499 62.46657 
L 252.696939 65.12769 
L 252.7001 67.78881 
L 252.701165 70.44993 
L 252.701166 73.11105 
L 252.700972 75.77217 
L 252.701147 78.43329 
L 252.701832 81.09441 
L 252.702772 83.75553 
L 252.703514 86.41665 
L 252.703645 89.52129 
L 252.703071 92.18241 
L 252.702183 94.84353 
L 252.701464 97.50465 
L 252.701305 100.16577 
L 252.701792 102.82689 
L 252.702662 105.48801 
L 252.703443 108.14913 
L 252.703711 110.81025 
L 252.703322 113.47137 
L 252.702486 116.13249 
L 252.701657 118.79361 
L 252.701283 121.45473 
L 252.701568 124.11585 
L 252.702357 126.77697 
L 252.703222 129.43809 
L 252.703695 132.09921 
L 252.703428 135.20385 
L 252.702639 137.86497 
L 252.701773 140.52609 
L 252.701301 143.18721 
L 252.701477 145.84833 
L 252.702206 148.50945 
L 252.703094 151.17057 
L 252.703658 153.83169 
L 252.703594 156.49281 
L 252.702935 159.15393 
L 252.702039 161.81505 
L 252.701392 164.47617 
L 252.701344 167.13729 
L 252.701922 169.79841 
L 252.702812 172.45953 
L 252.703531 175.12065 
L 252.703651 178.22529 
L 252.703073 180.88641 
L 252.702183 183.54753 
L 252.701462 186.20865 
L 252.701299 188.86977 
L 252.70178 191.53089 
L 252.702637 194.19201 
L 252.703395 196.85313 
L 252.703621 199.51425 
L 252.703156 202.17537 
L 252.702188 204.83649 
L 252.701136 207.49761 
L 252.700397 210.15873 
L 252.700099 212.81985 
L 252.699984 215.48097 
L 252.699486 218.14209 
L 252.697958 220.80321 
L 252.694254 223.90785 
L 252.689275 226.56897 
L 252.682763 229.23009 
L 252.674879 231.89121 
L 252.665566 234.55233 
L 252.654408 237.21345 
L 252.640655 239.87457 
L 252.623379 242.53569 
L 252.601618 245.19681 
L 252.574347 247.85793 
L 252.540138 250.51905 
L 252.496478 253.18017 
L 252.438821 255.84129 
L 252.359517 258.50241 
L 252.246776 261.16353 
L 252.083744 263.82465 
L 251.79926 266.92929 
L 251.440178 269.59041 
L 251.369585 269.966511 
L 250.494118 272.25153 
L 249.583985 273.98058 
L 248.364994 272.25153 
L 247.798385 271.205984 
L 247.560892 269.59041 
L 247.250557 266.92929 
L 246.950276 263.82465 
L 246.71948 261.16353 
L 246.494655 258.50241 
L 246.263035 255.84129 
L 246.016281 253.18017 
L 246.012785 253.143108 
L 245.854183 250.51905 
z
" clip-path="url(#p980c1c5720)" style="fill: none; stroke: #0b559f; stroke-width: 1.5"/>
    <path d="M 263.533084 269.59041 
L 263.163291 266.92929 
L 262.880366 263.82465 
L 262.726585 261.16353 
L 262.627896 258.50241 
L 262.565763 255.84129 
L 262.527101 253.18017 
L 262.503219 250.51905 
L 262.488723 247.85793 
L 262.480405 245.19681 
L 262.476262 242.53569 
L 262.474799 239.87457 
L 262.474708 237.21345 
L 262.474883 234.55233 
L 262.474603 231.89121 
L 262.473685 229.23009 
L 262.472448 226.56897 
L 262.471465 223.90785 
L 262.47126 220.80321 
L 262.471967 218.14209 
L 262.473086 215.48097 
L 262.474 212.81985 
L 262.474208 210.15873 
L 262.473592 207.49761 
L 262.472484 204.83649 
L 262.471484 202.17537 
L 262.471132 199.51425 
L 262.471619 196.85313 
L 262.47268 194.19201 
L 262.47374 191.53089 
L 262.474225 188.86977 
L 262.473871 186.20865 
L 262.47287 183.54753 
L 262.471765 180.88641 
L 262.471155 178.22529 
L 262.471485 175.12065 
L 262.472485 172.45953 
L 262.47359 169.79841 
L 262.4742 167.13729 
L 262.473985 164.47617 
L 262.473061 161.81505 
L 262.471929 159.15393 
L 262.471203 156.49281 
L 262.471276 153.83169 
L 262.472109 151.17057 
L 262.47325 148.50945 
L 262.474081 145.84833 
L 262.474151 143.18721 
L 262.473423 140.52609 
L 262.47229 137.86497 
L 262.471368 135.20385 
L 262.471204 132.09921 
L 262.471933 129.43809 
L 262.473065 126.77697 
L 262.473987 124.11585 
L 262.4742 121.45473 
L 262.473587 118.79361 
L 262.472482 116.13249 
L 262.471482 113.47137 
L 262.471131 110.81025 
L 262.471618 108.14913 
L 262.472679 105.48801 
L 262.47374 102.82689 
L 262.474225 100.16577 
L 262.473871 97.50465 
L 262.472872 94.84353 
L 262.471769 92.18241 
L 262.471164 89.52129 
L 262.471509 86.41665 
L 262.472542 83.75553 
L 262.473717 81.09441 
L 262.474478 78.43329 
L 262.474577 75.77217 
L 262.474288 73.11105 
L 262.474408 70.44993 
L 262.476081 67.78881 
L 262.48063 65.12769 
L 262.489586 62.46657 
L 262.50507 59.80545 
L 262.530537 57.14433 
L 262.571768 54.48321 
L 262.637947 51.82209 
L 262.74265 49.16097 
L 262.90472 46.49985 
L 263.199908 43.39521 
L 263.580982 40.73409 
L 263.940209 38.966414 
L 264.527723 38.07297 
L 265.725809 36.724663 
L 266.221137 38.07297 
L 266.910222 40.73409 
L 267.380344 43.39521 
L 267.547121 44.843956 
L 267.622459 46.49985 
L 267.699225 49.16097 
L 267.748293 51.82209 
L 267.779068 54.48321 
L 267.798154 57.14433 
L 267.809906 59.80545 
L 267.817008 62.46657 
L 267.821043 65.12769 
L 267.822998 67.78881 
L 267.823622 70.44993 
L 267.823577 73.11105 
L 267.823427 75.77217 
L 267.823536 78.43329 
L 267.82399 81.09441 
L 267.824615 83.75553 
L 267.825106 86.41665 
L 267.825188 89.52129 
L 267.824801 92.18241 
L 267.824208 94.84353 
L 267.82373 97.50465 
L 267.823629 100.16577 
L 267.823958 102.82689 
L 267.824539 105.48801 
L 267.825058 108.14913 
L 267.825233 110.81025 
L 267.82497 113.47137 
L 267.82441 116.13249 
L 267.823858 118.79361 
L 267.823612 121.45473 
L 267.823807 124.11585 
L 267.824336 126.77697 
L 267.824912 129.43809 
L 267.825224 132.09921 
L 267.825041 135.20385 
L 267.824512 137.86497 
L 267.823935 140.52609 
L 267.823623 143.18721 
L 267.823745 145.84833 
L 267.824235 148.50945 
L 267.824827 151.17057 
L 267.8252 153.83169 
L 267.825153 156.49281 
L 267.82471 159.15393 
L 267.824112 161.81505 
L 267.823683 164.47617 
L 267.823656 167.13729 
L 267.824045 169.79841 
L 267.824639 172.45953 
L 267.825117 175.12065 
L 267.825192 178.22529 
L 267.824803 180.88641 
L 267.824209 183.54753 
L 267.823731 186.20865 
L 267.823629 188.86977 
L 267.823958 191.53089 
L 267.824539 194.19201 
L 267.825058 196.85313 
L 267.825233 199.51425 
L 267.82497 202.17537 
L 267.82441 204.83649 
L 267.823858 207.49761 
L 267.823612 210.15873 
L 267.823806 212.81985 
L 267.824335 215.48097 
L 267.82491 218.14209 
L 267.825219 220.80321 
L 267.825027 223.90785 
L 267.824482 226.56897 
L 267.823868 229.23009 
L 267.823479 231.89121 
L 267.82344 234.55233 
L 267.823604 237.21345 
L 267.823555 239.87457 
L 267.822699 242.53569 
L 267.820361 245.19681 
L 267.815759 247.85793 
L 267.807817 250.51905 
L 267.794773 253.18017 
L 267.773662 255.84129 
L 267.739772 258.50241 
L 267.686132 261.16353 
L 267.603074 263.82465 
L 267.547121 264.975922 
L 267.313089 266.92929 
L 266.836825 269.59041 
L 266.165677 272.25153 
L 265.725809 273.525008 
L 264.401933 272.25153 
L 263.940209 271.627352 
L 263.533084 269.59041 
z
" clip-path="url(#p980c1c5720)" style="fill: none; stroke: #0b559f; stroke-width: 1.5"/>
   </g>
   <g id="PathCollection_8"/>
   <g id="patch_3">
    <path d="M 34.240625 288.21825 
L 34.240625 22.10625 
" style="fill: none; stroke: #000000; stroke-width: 0.8; stroke-linejoin: miter; stroke-linecap: square"/>
   </g>
   <g id="patch_4">
    <path d="M 391.360625 288.21825 
L 391.360625 22.10625 
" style="fill: none; stroke: #000000; stroke-width: 0.8; stroke-linejoin: miter; stroke-linecap: square"/>
   </g>
   <g id="patch_5">
    <path d="M 34.240625 288.21825 
L 391.360625 288.21825 
" style="fill: none; stroke: #000000; stroke-width: 0.8; stroke-linejoin: miter; stroke-linecap: square"/>
   </g>
   <g id="patch_6">
    <path d="M 34.240625 22.10625 
L 391.360625 22.10625 
" style="fill: none; stroke: #000000; stroke-width: 0.8; stroke-linejoin: miter; stroke-linecap: square"/>
   </g>
   <g id="text_16">
    <!-- 6.7_cross_-35.0 -->
    <g transform="translate(166.181563 16.10625)scale(0.12 -0.12)">
     <defs>
      <path id="DejaVuSans-2e" d="M 684 794 
L 1344 794 
L 1344 0 
L 684 0 
L 684 794 
z
" transform="scale(0.015625)"/>
      <path id="DejaVuSans-37" d="M 525 4666 
L 3525 4666 
L 3525 4397 
L 1831 0 
L 1172 0 
L 2766 4134 
L 525 4134 
L 525 4666 
z
" transform="scale(0.015625)"/>
      <path id="DejaVuSans-5f" d="M 3263 -1063 
L 3263 -1509 
L -63 -1509 
L -63 -1063 
L 3263 -1063 
z
" transform="scale(0.015625)"/>
      <path id="DejaVuSans-63" d="M 3122 3366 
L 3122 2828 
Q 2878 2963 2633 3030 
Q 2388 3097 2138 3097 
Q 1578 3097 1268 2742 
Q 959 2388 959 1747 
Q 959 1106 1268 751 
Q 1578 397 2138 397 
Q 2388 397 2633 464 
Q 2878 531 3122 666 
L 3122 134 
Q 2881 22 2623 -34 
Q 2366 -91 2075 -91 
Q 1284 -91 818 406 
Q 353 903 353 1747 
Q 353 2603 823 3093 
Q 1294 3584 2113 3584 
Q 2378 3584 2631 3529 
Q 2884 3475 3122 3366 
z
" transform="scale(0.015625)"/>
      <path id="DejaVuSans-72" d="M 2631 2963 
Q 2534 3019 2420 3045 
Q 2306 3072 2169 3072 
Q 1681 3072 1420 2755 
Q 1159 2438 1159 1844 
L 1159 0 
L 581 0 
L 581 3500 
L 1159 3500 
L 1159 2956 
Q 1341 3275 1631 3429 
Q 1922 3584 2338 3584 
Q 2397 3584 2469 3576 
Q 2541 3569 2628 3553 
L 2631 2963 
z
" transform="scale(0.015625)"/>
      <path id="DejaVuSans-73" d="M 2834 3397 
L 2834 2853 
Q 2591 2978 2328 3040 
Q 2066 3103 1784 3103 
Q 1356 3103 1142 2972 
Q 928 2841 928 2578 
Q 928 2378 1081 2264 
Q 1234 2150 1697 2047 
L 1894 2003 
Q 2506 1872 2764 1633 
Q 3022 1394 3022 966 
Q 3022 478 2636 193 
Q 2250 -91 1575 -91 
Q 1294 -91 989 -36 
Q 684 19 347 128 
L 347 722 
Q 666 556 975 473 
Q 1284 391 1588 391 
Q 1994 391 2212 530 
Q 2431 669 2431 922 
Q 2431 1156 2273 1281 
Q 2116 1406 1581 1522 
L 1381 1569 
Q 847 1681 609 1914 
Q 372 2147 372 2553 
Q 372 3047 722 3315 
Q 1072 3584 1716 3584 
Q 2034 3584 2315 3537 
Q 2597 3491 2834 3397 
z
" transform="scale(0.015625)"/>
      <path id="DejaVuSans-2d" d="M 313 2009 
L 1997 2009 
L 1997 1497 
L 313 1497 
L 313 2009 
z
" transform="scale(0.015625)"/>
     </defs>
     <use xlink:href="#DejaVuSans-36"/>
     <use xlink:href="#DejaVuSans-2e" x="63.623047"/>
     <use xlink:href="#DejaVuSans-37" x="95.410156"/>
     <use xlink:href="#DejaVuSans-5f" x="159.033203"/>
     <use xlink:href="#DejaVuSans-63" x="209.033203"/>
     <use xlink:href="#DejaVuSans-72" x="264.013672"/>
     <use xlink:href="#DejaVuSans-6f" x="302.876953"/>
     <use xlink:href="#DejaVuSans-73" x="364.058594"/>
     <use xlink:href="#DejaVuSans-73" x="416.158203"/>
     <use xlink:href="#DejaVuSans-5f" x="468.257812"/>
     <use xlink:href="#DejaVuSans-2d" x="518.257812"/>
     <use xlink:href="#DejaVuSans-33" x="554.341797"/>
     <use xlink:href="#DejaVuSans-35" x="617.964844"/>
     <use xlink:href="#DejaVuSans-2e" x="681.587891"/>
     <use xlink:href="#DejaVuSans-30" x="713.375"/>
    </g>
   </g>
  </g>
 </g>
 <defs>
  <clipPath id="p980c1c5720">
   <rect x="34.240625" y="22.10625" width="357.12" height="266.112"/>
  </clipPath>
 </defs>
</svg>
