<?xml version="1.0" encoding="utf-8" standalone="no"?>
<!DOCTYPE svg PUBLIC "-//W3C//DTD SVG 1.1//EN"
  "http://www.w3.org/Graphics/SVG/1.1/DTD/svg11.dtd">
<svg xmlns:xlink="http://www.w3.org/1999/xlink" width="408.104375pt" height="325.7745pt" viewBox="0 0 408.104375 325.7745" xmlns="http://www.w3.org/2000/svg" version="1.1">
 <metadata>
  <rdf:RDF xmlns:dc="http://purl.org/dc/elements/1.1/" xmlns:cc="http://creativecommons.org/ns#" xmlns:rdf="http://www.w3.org/1999/02/22-rdf-syntax-ns#">
   <cc:Work>
    <dc:type rdf:resource="http://purl.org/dc/dcmitype/StillImage"/>
    <dc:date>2024-07-12T12:31:31.020221</dc:date>
    <dc:format>image/svg+xml</dc:format>
    <dc:creator>
     <cc:Agent>
      <dc:title>Matplotlib v3.5.3, https://matplotlib.org/</dc:title>
     </cc:Agent>
    </dc:creator>
   </cc:Work>
  </rdf:RDF>
 </metadata>
 <defs>
  <style type="text/css">*{stroke-linejoin: round; stroke-linecap: butt}</style>
 </defs>
 <g id="figure_1">
  <g id="patch_1">
   <path d="M 0 325.7745 
L 408.104375 325.7745 
L 408.104375 0 
L 0 0 
z
" style="fill: #ffffff"/>
  </g>
  <g id="axes_1">
   <g id="patch_2">
    <path d="M 34.240625 288.21825 
L 391.360625 288.21825 
L 391.360625 22.10625 
L 34.240625 22.10625 
z
" style="fill: #ffffff"/>
   </g>
   <g id="matplotlib.axis_1">
    <g id="xtick_1">
     <g id="line2d_1">
      <defs>
       <path id="m4490028b94" d="M 0 0 
L 0 3.5 
" style="stroke: #000000; stroke-width: 0.8"/>
      </defs>
      <g>
       <use xlink:href="#m4490028b94" x="34.240625" y="288.21825" style="stroke: #000000; stroke-width: 0.8"/>
      </g>
     </g>
     <g id="text_1">
      <!-- 0 -->
      <g transform="translate(31.059375 302.816687)scale(0.1 -0.1)">
       <defs>
        <path id="DejaVuSans-30" d="M 2034 4250 
Q 1547 4250 1301 3770 
Q 1056 3291 1056 2328 
Q 1056 1369 1301 889 
Q 1547 409 2034 409 
Q 2525 409 2770 889 
Q 3016 1369 3016 2328 
Q 3016 3291 2770 3770 
Q 2525 4250 2034 4250 
z
M 2034 4750 
Q 2819 4750 3233 4129 
Q 3647 3509 3647 2328 
Q 3647 1150 3233 529 
Q 2819 -91 2034 -91 
Q 1250 -91 836 529 
Q 422 1150 422 2328 
Q 422 3509 836 4129 
Q 1250 4750 2034 4750 
z
" transform="scale(0.015625)"/>
       </defs>
       <use xlink:href="#DejaVuSans-30"/>
      </g>
     </g>
    </g>
    <g id="xtick_2">
     <g id="line2d_2">
      <g>
       <use xlink:href="#m4490028b94" x="105.664625" y="288.21825" style="stroke: #000000; stroke-width: 0.8"/>
      </g>
     </g>
     <g id="text_2">
      <!-- 20 -->
      <g transform="translate(99.302125 302.816687)scale(0.1 -0.1)">
       <defs>
        <path id="DejaVuSans-32" d="M 1228 531 
L 3431 531 
L 3431 0 
L 469 0 
L 469 531 
Q 828 903 1448 1529 
Q 2069 2156 2228 2338 
Q 2531 2678 2651 2914 
Q 2772 3150 2772 3378 
Q 2772 3750 2511 3984 
Q 2250 4219 1831 4219 
Q 1534 4219 1204 4116 
Q 875 4013 500 3803 
L 500 4441 
Q 881 4594 1212 4672 
Q 1544 4750 1819 4750 
Q 2544 4750 2975 4387 
Q 3406 4025 3406 3419 
Q 3406 3131 3298 2873 
Q 3191 2616 2906 2266 
Q 2828 2175 2409 1742 
Q 1991 1309 1228 531 
z
" transform="scale(0.015625)"/>
       </defs>
       <use xlink:href="#DejaVuSans-32"/>
       <use xlink:href="#DejaVuSans-30" x="63.623047"/>
      </g>
     </g>
    </g>
    <g id="xtick_3">
     <g id="line2d_3">
      <g>
       <use xlink:href="#m4490028b94" x="177.088625" y="288.21825" style="stroke: #000000; stroke-width: 0.8"/>
      </g>
     </g>
     <g id="text_3">
      <!-- 40 -->
      <g transform="translate(170.726125 302.816687)scale(0.1 -0.1)">
       <defs>
        <path id="DejaVuSans-34" d="M 2419 4116 
L 825 1625 
L 2419 1625 
L 2419 4116 
z
M 2253 4666 
L 3047 4666 
L 3047 1625 
L 3713 1625 
L 3713 1100 
L 3047 1100 
L 3047 0 
L 2419 0 
L 2419 1100 
L 313 1100 
L 313 1709 
L 2253 4666 
z
" transform="scale(0.015625)"/>
       </defs>
       <use xlink:href="#DejaVuSans-34"/>
       <use xlink:href="#DejaVuSans-30" x="63.623047"/>
      </g>
     </g>
    </g>
    <g id="xtick_4">
     <g id="line2d_4">
      <g>
       <use xlink:href="#m4490028b94" x="248.512625" y="288.21825" style="stroke: #000000; stroke-width: 0.8"/>
      </g>
     </g>
     <g id="text_4">
      <!-- 60 -->
      <g transform="translate(242.150125 302.816687)scale(0.1 -0.1)">
       <defs>
        <path id="DejaVuSans-36" d="M 2113 2584 
Q 1688 2584 1439 2293 
Q 1191 2003 1191 1497 
Q 1191 994 1439 701 
Q 1688 409 2113 409 
Q 2538 409 2786 701 
Q 3034 994 3034 1497 
Q 3034 2003 2786 2293 
Q 2538 2584 2113 2584 
z
M 3366 4563 
L 3366 3988 
Q 3128 4100 2886 4159 
Q 2644 4219 2406 4219 
Q 1781 4219 1451 3797 
Q 1122 3375 1075 2522 
Q 1259 2794 1537 2939 
Q 1816 3084 2150 3084 
Q 2853 3084 3261 2657 
Q 3669 2231 3669 1497 
Q 3669 778 3244 343 
Q 2819 -91 2113 -91 
Q 1303 -91 875 529 
Q 447 1150 447 2328 
Q 447 3434 972 4092 
Q 1497 4750 2381 4750 
Q 2619 4750 2861 4703 
Q 3103 4656 3366 4563 
z
" transform="scale(0.015625)"/>
       </defs>
       <use xlink:href="#DejaVuSans-36"/>
       <use xlink:href="#DejaVuSans-30" x="63.623047"/>
      </g>
     </g>
    </g>
    <g id="xtick_5">
     <g id="line2d_5">
      <g>
       <use xlink:href="#m4490028b94" x="319.936625" y="288.21825" style="stroke: #000000; stroke-width: 0.8"/>
      </g>
     </g>
     <g id="text_5">
      <!-- 80 -->
      <g transform="translate(313.574125 302.816687)scale(0.1 -0.1)">
       <defs>
        <path id="DejaVuSans-38" d="M 2034 2216 
Q 1584 2216 1326 1975 
Q 1069 1734 1069 1313 
Q 1069 891 1326 650 
Q 1584 409 2034 409 
Q 2484 409 2743 651 
Q 3003 894 3003 1313 
Q 3003 1734 2745 1975 
Q 2488 2216 2034 2216 
z
M 1403 2484 
Q 997 2584 770 2862 
Q 544 3141 544 3541 
Q 544 4100 942 4425 
Q 1341 4750 2034 4750 
Q 2731 4750 3128 4425 
Q 3525 4100 3525 3541 
Q 3525 3141 3298 2862 
Q 3072 2584 2669 2484 
Q 3125 2378 3379 2068 
Q 3634 1759 3634 1313 
Q 3634 634 3220 271 
Q 2806 -91 2034 -91 
Q 1263 -91 848 271 
Q 434 634 434 1313 
Q 434 1759 690 2068 
Q 947 2378 1403 2484 
z
M 1172 3481 
Q 1172 3119 1398 2916 
Q 1625 2713 2034 2713 
Q 2441 2713 2670 2916 
Q 2900 3119 2900 3481 
Q 2900 3844 2670 4047 
Q 2441 4250 2034 4250 
Q 1625 4250 1398 4047 
Q 1172 3844 1172 3481 
z
" transform="scale(0.015625)"/>
       </defs>
       <use xlink:href="#DejaVuSans-38"/>
       <use xlink:href="#DejaVuSans-30" x="63.623047"/>
      </g>
     </g>
    </g>
    <g id="xtick_6">
     <g id="line2d_6">
      <g>
       <use xlink:href="#m4490028b94" x="391.360625" y="288.21825" style="stroke: #000000; stroke-width: 0.8"/>
      </g>
     </g>
     <g id="text_6">
      <!-- 100 -->
      <g transform="translate(381.816875 302.816687)scale(0.1 -0.1)">
       <defs>
        <path id="DejaVuSans-31" d="M 794 531 
L 1825 531 
L 1825 4091 
L 703 3866 
L 703 4441 
L 1819 4666 
L 2450 4666 
L 2450 531 
L 3481 531 
L 3481 0 
L 794 0 
L 794 531 
z
" transform="scale(0.015625)"/>
       </defs>
       <use xlink:href="#DejaVuSans-31"/>
       <use xlink:href="#DejaVuSans-30" x="63.623047"/>
       <use xlink:href="#DejaVuSans-30" x="127.246094"/>
      </g>
     </g>
    </g>
    <g id="text_7">
     <!-- axialRotation -->
     <g transform="translate(180.024844 316.494812)scale(0.1 -0.1)">
      <defs>
       <path id="DejaVuSans-61" d="M 2194 1759 
Q 1497 1759 1228 1600 
Q 959 1441 959 1056 
Q 959 750 1161 570 
Q 1363 391 1709 391 
Q 2188 391 2477 730 
Q 2766 1069 2766 1631 
L 2766 1759 
L 2194 1759 
z
M 3341 1997 
L 3341 0 
L 2766 0 
L 2766 531 
Q 2569 213 2275 61 
Q 1981 -91 1556 -91 
Q 1019 -91 701 211 
Q 384 513 384 1019 
Q 384 1609 779 1909 
Q 1175 2209 1959 2209 
L 2766 2209 
L 2766 2266 
Q 2766 2663 2505 2880 
Q 2244 3097 1772 3097 
Q 1472 3097 1187 3025 
Q 903 2953 641 2809 
L 641 3341 
Q 956 3463 1253 3523 
Q 1550 3584 1831 3584 
Q 2591 3584 2966 3190 
Q 3341 2797 3341 1997 
z
" transform="scale(0.015625)"/>
       <path id="DejaVuSans-78" d="M 3513 3500 
L 2247 1797 
L 3578 0 
L 2900 0 
L 1881 1375 
L 863 0 
L 184 0 
L 1544 1831 
L 300 3500 
L 978 3500 
L 1906 2253 
L 2834 3500 
L 3513 3500 
z
" transform="scale(0.015625)"/>
       <path id="DejaVuSans-69" d="M 603 3500 
L 1178 3500 
L 1178 0 
L 603 0 
L 603 3500 
z
M 603 4863 
L 1178 4863 
L 1178 4134 
L 603 4134 
L 603 4863 
z
" transform="scale(0.015625)"/>
       <path id="DejaVuSans-6c" d="M 603 4863 
L 1178 4863 
L 1178 0 
L 603 0 
L 603 4863 
z
" transform="scale(0.015625)"/>
       <path id="DejaVuSans-52" d="M 2841 2188 
Q 3044 2119 3236 1894 
Q 3428 1669 3622 1275 
L 4263 0 
L 3584 0 
L 2988 1197 
Q 2756 1666 2539 1819 
Q 2322 1972 1947 1972 
L 1259 1972 
L 1259 0 
L 628 0 
L 628 4666 
L 2053 4666 
Q 2853 4666 3247 4331 
Q 3641 3997 3641 3322 
Q 3641 2881 3436 2590 
Q 3231 2300 2841 2188 
z
M 1259 4147 
L 1259 2491 
L 2053 2491 
Q 2509 2491 2742 2702 
Q 2975 2913 2975 3322 
Q 2975 3731 2742 3939 
Q 2509 4147 2053 4147 
L 1259 4147 
z
" transform="scale(0.015625)"/>
       <path id="DejaVuSans-6f" d="M 1959 3097 
Q 1497 3097 1228 2736 
Q 959 2375 959 1747 
Q 959 1119 1226 758 
Q 1494 397 1959 397 
Q 2419 397 2687 759 
Q 2956 1122 2956 1747 
Q 2956 2369 2687 2733 
Q 2419 3097 1959 3097 
z
M 1959 3584 
Q 2709 3584 3137 3096 
Q 3566 2609 3566 1747 
Q 3566 888 3137 398 
Q 2709 -91 1959 -91 
Q 1206 -91 779 398 
Q 353 888 353 1747 
Q 353 2609 779 3096 
Q 1206 3584 1959 3584 
z
" transform="scale(0.015625)"/>
       <path id="DejaVuSans-74" d="M 1172 4494 
L 1172 3500 
L 2356 3500 
L 2356 3053 
L 1172 3053 
L 1172 1153 
Q 1172 725 1289 603 
Q 1406 481 1766 481 
L 2356 481 
L 2356 0 
L 1766 0 
Q 1100 0 847 248 
Q 594 497 594 1153 
L 594 3053 
L 172 3053 
L 172 3500 
L 594 3500 
L 594 4494 
L 1172 4494 
z
" transform="scale(0.015625)"/>
       <path id="DejaVuSans-6e" d="M 3513 2113 
L 3513 0 
L 2938 0 
L 2938 2094 
Q 2938 2591 2744 2837 
Q 2550 3084 2163 3084 
Q 1697 3084 1428 2787 
Q 1159 2491 1159 1978 
L 1159 0 
L 581 0 
L 581 3500 
L 1159 3500 
L 1159 2956 
Q 1366 3272 1645 3428 
Q 1925 3584 2291 3584 
Q 2894 3584 3203 3211 
Q 3513 2838 3513 2113 
z
" transform="scale(0.015625)"/>
      </defs>
      <use xlink:href="#DejaVuSans-61"/>
      <use xlink:href="#DejaVuSans-78" x="61.279297"/>
      <use xlink:href="#DejaVuSans-69" x="120.458984"/>
      <use xlink:href="#DejaVuSans-61" x="148.242188"/>
      <use xlink:href="#DejaVuSans-6c" x="209.521484"/>
      <use xlink:href="#DejaVuSans-52" x="237.304688"/>
      <use xlink:href="#DejaVuSans-6f" x="302.287109"/>
      <use xlink:href="#DejaVuSans-74" x="363.46875"/>
      <use xlink:href="#DejaVuSans-61" x="402.677734"/>
      <use xlink:href="#DejaVuSans-74" x="463.957031"/>
      <use xlink:href="#DejaVuSans-69" x="503.166016"/>
      <use xlink:href="#DejaVuSans-6f" x="530.949219"/>
      <use xlink:href="#DejaVuSans-6e" x="592.130859"/>
     </g>
    </g>
   </g>
   <g id="matplotlib.axis_2">
    <g id="ytick_1">
     <g id="line2d_7">
      <defs>
       <path id="mf0570d5183" d="M 0 0 
L -3.5 0 
" style="stroke: #000000; stroke-width: 0.8"/>
      </defs>
      <g>
       <use xlink:href="#mf0570d5183" x="34.240625" y="288.21825" style="stroke: #000000; stroke-width: 0.8"/>
      </g>
     </g>
     <g id="text_8">
      <!-- 0 -->
      <g transform="translate(20.878125 292.017469)scale(0.1 -0.1)">
       <use xlink:href="#DejaVuSans-30"/>
      </g>
     </g>
    </g>
    <g id="ytick_2">
     <g id="line2d_8">
      <g>
       <use xlink:href="#mf0570d5183" x="34.240625" y="243.86625" style="stroke: #000000; stroke-width: 0.8"/>
      </g>
     </g>
     <g id="text_9">
      <!-- 1 -->
      <g transform="translate(20.878125 247.665469)scale(0.1 -0.1)">
       <use xlink:href="#DejaVuSans-31"/>
      </g>
     </g>
    </g>
    <g id="ytick_3">
     <g id="line2d_9">
      <g>
       <use xlink:href="#mf0570d5183" x="34.240625" y="199.51425" style="stroke: #000000; stroke-width: 0.8"/>
      </g>
     </g>
     <g id="text_10">
      <!-- 2 -->
      <g transform="translate(20.878125 203.313469)scale(0.1 -0.1)">
       <use xlink:href="#DejaVuSans-32"/>
      </g>
     </g>
    </g>
    <g id="ytick_4">
     <g id="line2d_10">
      <g>
       <use xlink:href="#mf0570d5183" x="34.240625" y="155.16225" style="stroke: #000000; stroke-width: 0.8"/>
      </g>
     </g>
     <g id="text_11">
      <!-- 3 -->
      <g transform="translate(20.878125 158.961469)scale(0.1 -0.1)">
       <defs>
        <path id="DejaVuSans-33" d="M 2597 2516 
Q 3050 2419 3304 2112 
Q 3559 1806 3559 1356 
Q 3559 666 3084 287 
Q 2609 -91 1734 -91 
Q 1441 -91 1130 -33 
Q 819 25 488 141 
L 488 750 
Q 750 597 1062 519 
Q 1375 441 1716 441 
Q 2309 441 2620 675 
Q 2931 909 2931 1356 
Q 2931 1769 2642 2001 
Q 2353 2234 1838 2234 
L 1294 2234 
L 1294 2753 
L 1863 2753 
Q 2328 2753 2575 2939 
Q 2822 3125 2822 3475 
Q 2822 3834 2567 4026 
Q 2313 4219 1838 4219 
Q 1578 4219 1281 4162 
Q 984 4106 628 3988 
L 628 4550 
Q 988 4650 1302 4700 
Q 1616 4750 1894 4750 
Q 2613 4750 3031 4423 
Q 3450 4097 3450 3541 
Q 3450 3153 3228 2886 
Q 3006 2619 2597 2516 
z
" transform="scale(0.015625)"/>
       </defs>
       <use xlink:href="#DejaVuSans-33"/>
      </g>
     </g>
    </g>
    <g id="ytick_5">
     <g id="line2d_11">
      <g>
       <use xlink:href="#mf0570d5183" x="34.240625" y="110.81025" style="stroke: #000000; stroke-width: 0.8"/>
      </g>
     </g>
     <g id="text_12">
      <!-- 4 -->
      <g transform="translate(20.878125 114.609469)scale(0.1 -0.1)">
       <use xlink:href="#DejaVuSans-34"/>
      </g>
     </g>
    </g>
    <g id="ytick_6">
     <g id="line2d_12">
      <g>
       <use xlink:href="#mf0570d5183" x="34.240625" y="66.45825" style="stroke: #000000; stroke-width: 0.8"/>
      </g>
     </g>
     <g id="text_13">
      <!-- 5 -->
      <g transform="translate(20.878125 70.257469)scale(0.1 -0.1)">
       <defs>
        <path id="DejaVuSans-35" d="M 691 4666 
L 3169 4666 
L 3169 4134 
L 1269 4134 
L 1269 2991 
Q 1406 3038 1543 3061 
Q 1681 3084 1819 3084 
Q 2600 3084 3056 2656 
Q 3513 2228 3513 1497 
Q 3513 744 3044 326 
Q 2575 -91 1722 -91 
Q 1428 -91 1123 -41 
Q 819 9 494 109 
L 494 744 
Q 775 591 1075 516 
Q 1375 441 1709 441 
Q 2250 441 2565 725 
Q 2881 1009 2881 1497 
Q 2881 1984 2565 2268 
Q 2250 2553 1709 2553 
Q 1456 2553 1204 2497 
Q 953 2441 691 2322 
L 691 4666 
z
" transform="scale(0.015625)"/>
       </defs>
       <use xlink:href="#DejaVuSans-35"/>
      </g>
     </g>
    </g>
    <g id="ytick_7">
     <g id="line2d_13">
      <g>
       <use xlink:href="#mf0570d5183" x="34.240625" y="22.10625" style="stroke: #000000; stroke-width: 0.8"/>
      </g>
     </g>
     <g id="text_14">
      <!-- 6 -->
      <g transform="translate(20.878125 25.905469)scale(0.1 -0.1)">
       <use xlink:href="#DejaVuSans-36"/>
      </g>
     </g>
    </g>
    <g id="text_15">
     <!-- zShift -->
     <g transform="translate(14.798438 169.151312)rotate(-90)scale(0.1 -0.1)">
      <defs>
       <path id="DejaVuSans-7a" d="M 353 3500 
L 3084 3500 
L 3084 2975 
L 922 459 
L 3084 459 
L 3084 0 
L 275 0 
L 275 525 
L 2438 3041 
L 353 3041 
L 353 3500 
z
" transform="scale(0.015625)"/>
       <path id="DejaVuSans-53" d="M 3425 4513 
L 3425 3897 
Q 3066 4069 2747 4153 
Q 2428 4238 2131 4238 
Q 1616 4238 1336 4038 
Q 1056 3838 1056 3469 
Q 1056 3159 1242 3001 
Q 1428 2844 1947 2747 
L 2328 2669 
Q 3034 2534 3370 2195 
Q 3706 1856 3706 1288 
Q 3706 609 3251 259 
Q 2797 -91 1919 -91 
Q 1588 -91 1214 -16 
Q 841 59 441 206 
L 441 856 
Q 825 641 1194 531 
Q 1563 422 1919 422 
Q 2459 422 2753 634 
Q 3047 847 3047 1241 
Q 3047 1584 2836 1778 
Q 2625 1972 2144 2069 
L 1759 2144 
Q 1053 2284 737 2584 
Q 422 2884 422 3419 
Q 422 4038 858 4394 
Q 1294 4750 2059 4750 
Q 2388 4750 2728 4690 
Q 3069 4631 3425 4513 
z
" transform="scale(0.015625)"/>
       <path id="DejaVuSans-68" d="M 3513 2113 
L 3513 0 
L 2938 0 
L 2938 2094 
Q 2938 2591 2744 2837 
Q 2550 3084 2163 3084 
Q 1697 3084 1428 2787 
Q 1159 2491 1159 1978 
L 1159 0 
L 581 0 
L 581 4863 
L 1159 4863 
L 1159 2956 
Q 1366 3272 1645 3428 
Q 1925 3584 2291 3584 
Q 2894 3584 3203 3211 
Q 3513 2838 3513 2113 
z
" transform="scale(0.015625)"/>
       <path id="DejaVuSans-66" d="M 2375 4863 
L 2375 4384 
L 1825 4384 
Q 1516 4384 1395 4259 
Q 1275 4134 1275 3809 
L 1275 3500 
L 2222 3500 
L 2222 3053 
L 1275 3053 
L 1275 0 
L 697 0 
L 697 3053 
L 147 3053 
L 147 3500 
L 697 3500 
L 697 3744 
Q 697 4328 969 4595 
Q 1241 4863 1831 4863 
L 2375 4863 
z
" transform="scale(0.015625)"/>
      </defs>
      <use xlink:href="#DejaVuSans-7a"/>
      <use xlink:href="#DejaVuSans-53" x="52.490234"/>
      <use xlink:href="#DejaVuSans-68" x="115.966797"/>
      <use xlink:href="#DejaVuSans-69" x="179.345703"/>
      <use xlink:href="#DejaVuSans-66" x="207.128906"/>
      <use xlink:href="#DejaVuSans-74" x="240.583984"/>
     </g>
    </g>
   </g>
   <g id="PathCollection_1"/>
   <g id="PathCollection_2">
    <path d="M 34.240625 66.531646 
L 36.026225 66.194245 
L 37.847537 65.959102 
L 39.633137 65.825963 
L 41.418737 65.783067 
L 43.204337 65.827043 
L 45.025649 65.960479 
L 46.811249 66.179609 
L 48.596849 66.489859 
L 50.382449 66.89705 
L 52.203761 67.420483 
L 53.269475 67.78881 
L 53.989361 68.012702 
L 55.774961 68.65765 
L 57.560561 69.415229 
L 59.381873 70.312743 
L 59.639824 70.44993 
L 61.167473 71.203355 
L 62.953073 72.175274 
L 64.538995 73.11105 
L 64.738673 73.221404 
L 66.559985 74.220468 
L 68.345585 75.214323 
L 69.404939 75.77217 
L 70.131185 76.12408 
L 71.916785 76.875179 
L 73.738097 77.495933 
L 75.523697 77.9081 
L 77.309297 78.078424 
L 79.094897 77.973233 
L 80.916209 77.567114 
L 82.701809 76.882996 
L 84.487409 75.941685 
L 84.74364 75.77217 
L 86.273009 74.640413 
L 88.092776 73.11105 
L 88.094321 73.109617 
L 89.879921 71.267072 
L 90.623417 70.44993 
L 91.665521 69.199498 
L 92.777751 67.78881 
L 93.451121 66.843895 
L 94.599502 65.12769 
L 95.272433 63.988733 
L 96.105587 62.46657 
L 97.058033 60.427637 
L 97.323906 59.80545 
L 98.246837 57.14433 
L 98.843633 54.974806 
L 98.965044 54.48321 
L 99.461047 51.82209 
L 99.828339 49.16097 
L 100.097286 46.49985 
L 100.32675 43.39521 
L 100.483051 40.73409 
L 100.628843 38.07297 
L 100.629233 38.066346 
L 100.769655 35.41185 
L 100.942464 32.75073 
L 101.169046 30.08961 
L 101.474126 27.42849 
L 101.887493 24.76737 
L 102.446553 22.10625 
" clip-path="url(#p71534f2b24)" style="fill: none; stroke: #dbe9f6; stroke-width: 1.5"/>
    <path d="M 103.685051 288.21825 
L 102.959293 285.55713 
L 102.450545 282.967933 
L 102.435515 282.89601 
L 102.040463 280.23489 
L 101.806729 277.57377 
L 101.718531 274.91265 
L 101.769786 272.25153 
L 101.963427 269.59041 
L 102.31123 266.92929 
L 102.450545 266.210352 
L 102.889806 263.82465 
L 103.575546 261.16353 
L 104.236145 259.190336 
L 104.461735 258.50241 
L 105.523587 255.84129 
L 106.021745 254.786428 
L 106.782443 253.18017 
L 107.807345 251.277913 
L 108.218839 250.51905 
L 109.628657 248.105876 
L 109.773499 247.85793 
L 111.350073 245.19681 
L 111.414257 245.085349 
L 112.834276 242.53569 
L 113.199857 241.829248 
L 114.154289 239.87457 
L 114.985457 237.944332 
L 115.275814 237.21345 
L 116.147824 234.55233 
L 116.806769 232.046819 
L 116.843588 231.89121 
L 117.317771 229.23009 
L 117.6641 226.56897 
L 117.907503 223.90785 
L 118.093544 220.80321 
L 118.192755 218.14209 
L 118.253387 215.48097 
L 118.28693 212.81985 
L 118.300999 210.15873 
L 118.300156 207.49761 
L 118.286656 204.83649 
L 118.260926 202.17537 
L 118.221689 199.51425 
L 118.165802 196.85313 
L 118.0879 194.19201 
L 117.979921 191.53089 
L 117.830496 188.86977 
L 117.624043 186.20865 
L 117.339324 183.54753 
L 116.947174 180.88641 
L 116.806769 180.175486 
L 116.312027 178.22529 
L 115.171808 175.12065 
L 114.985457 174.75254 
L 113.219438 172.45953 
L 113.199857 172.440589 
L 111.414257 171.49527 
L 109.628657 171.273469 
L 107.807345 171.60768 
L 106.021745 172.333403 
L 105.811328 172.45953 
L 104.236145 173.450491 
L 102.450545 174.768731 
L 102.036988 175.12065 
L 100.629233 176.374218 
L 98.843633 178.038844 
L 98.658092 178.22529 
L 97.058033 179.907481 
L 96.153254 180.88641 
L 95.272433 181.873118 
L 93.810457 183.54753 
L 93.451121 183.970618 
L 91.665521 186.108852 
L 91.583868 186.20865 
L 89.879921 188.324318 
L 89.438252 188.86977 
L 88.094321 190.5428 
L 87.289725 191.53089 
L 86.273009 192.78368 
L 85.107164 194.19201 
L 84.487409 194.947062 
L 82.887201 196.85313 
L 82.701809 197.077569 
L 80.916209 199.222313 
L 80.671194 199.51425 
L 79.094897 201.437878 
L 78.483359 202.17537 
L 77.309297 203.633653 
L 76.331134 204.83649 
L 75.523697 205.857101 
L 74.211053 207.49761 
L 73.738097 208.100997 
L 72.099396 210.15873 
L 71.916785 210.390433 
L 70.131185 212.621363 
L 69.969382 212.81985 
L 68.345585 214.820494 
L 67.790399 215.48097 
L 66.559985 216.954443 
L 65.528066 218.14209 
L 64.738673 219.061628 
L 63.178672 220.80321 
L 62.953073 221.063322 
L 61.167473 223.065743 
L 60.3743 223.90785 
L 59.381873 225.003182 
L 57.884589 226.56897 
L 57.560561 226.917406 
L 55.774961 228.749929 
L 55.275694 229.23009 
L 53.989361 230.493638 
L 52.405853 231.89121 
L 52.203761 232.072575 
L 50.382449 233.566864 
L 48.97299 234.55233 
L 48.596849 234.820366 
L 46.811249 235.927004 
L 45.025649 236.816118 
L 44.021212 237.21345 
L 43.204337 237.551044 
L 41.418737 238.108473 
L 39.633137 238.4826 
L 37.847537 238.684513 
L 36.026225 238.719065 
L 34.240625 238.585418 
" clip-path="url(#p71534f2b24)" style="fill: none; stroke: #dbe9f6; stroke-width: 1.5"/>
    <path d="M 322.012958 22.10625 
L 323.150705 26.449207 
L 323.379948 27.42849 
L 323.863208 30.08961 
L 324.47989 35.41185 
L 324.784844 40.73409 
L 324.88924 46.49985 
L 324.817894 51.82209 
L 324.559581 57.14433 
L 324.021837 62.46657 
L 323.150705 67.262468 
L 323.046249 67.78881 
L 322.381463 70.44993 
L 321.365105 73.517481 
L 320.511106 75.77217 
L 319.294936 78.43329 
L 316.441709 83.75553 
L 314.186993 87.804365 
L 313.287421 89.52129 
L 312.098595 92.18241 
L 311.224912 94.84353 
L 310.615793 98.049781 
L 310.46772 100.16577 
L 310.615793 102.849055 
L 311.126749 105.48801 
L 312.401393 109.240663 
L 313.089477 110.81025 
L 314.490588 113.47137 
L 316.121352 116.13249 
L 319.843694 121.45473 
L 331.979513 137.86497 
L 333.935729 140.895116 
L 335.721329 143.98045 
L 336.712831 145.84833 
L 337.93662 148.50945 
L 339.328241 152.218224 
L 339.875515 153.83169 
L 340.603683 156.49281 
L 341.662338 161.81505 
L 342.303386 167.13729 
L 342.647551 172.45953 
L 342.868517 180.88641 
L 342.93769 196.85313 
L 342.847768 223.90785 
L 342.596346 231.89121 
L 342.197637 237.21345 
L 341.452457 242.53569 
L 340.236842 247.85793 
L 339.328241 250.623799 
L 338.359753 253.18017 
L 337.135324 255.84129 
L 334.212405 261.16353 
L 330.328817 267.83799 
L 328.543217 271.459902 
L 328.195095 272.25153 
L 326.757617 276.13082 
L 325.567605 280.23489 
L 323.492471 288.21825 
L 323.492471 288.21825 
" clip-path="url(#p71534f2b24)" style="fill: none; stroke: #dbe9f6; stroke-width: 1.5"/>
   </g>
   <g id="PathCollection_3">
    <path d="M 34.240625 75.712745 
L 36.026225 75.126714 
L 37.847537 74.699582 
L 39.633137 74.43039 
L 41.418737 74.296669 
L 43.204337 74.289956 
L 45.025649 74.408733 
L 46.811249 74.646211 
L 48.596849 75.003961 
L 50.382449 75.484593 
L 51.237912 75.77217 
L 52.203761 76.087123 
L 53.989361 76.782441 
L 55.774961 77.598054 
L 57.372419 78.43329 
L 57.560561 78.530222 
L 59.381873 79.544659 
L 61.167473 80.629435 
L 61.900271 81.09441 
L 62.953073 81.747273 
L 64.738673 82.868141 
L 66.162749 83.75553 
L 66.559985 83.993973 
L 68.345585 84.994489 
L 70.131185 85.91057 
L 71.267417 86.41665 
L 71.916785 86.686489 
L 73.738097 87.289419 
L 75.523697 87.714812 
L 77.309297 87.959445 
L 79.094897 88.009647 
L 80.916209 87.849825 
L 82.701809 87.479405 
L 84.487409 86.894337 
L 85.560203 86.41665 
L 86.273009 86.063561 
L 88.094321 84.943875 
L 89.732176 83.75553 
L 89.879921 83.639072 
L 91.665521 82.063962 
L 92.676565 81.09441 
L 93.451121 80.307142 
L 95.199018 78.43329 
L 95.272433 78.350523 
L 97.058033 76.250262 
L 97.451621 75.77217 
L 98.843633 73.987442 
L 99.505288 73.11105 
L 100.629233 71.506769 
L 101.339305 70.44993 
L 102.450545 68.612533 
L 102.923065 67.78881 
L 104.236145 65.147769 
L 104.245541 65.12769 
L 105.285904 62.46657 
L 106.021745 60.130413 
L 106.117459 59.80545 
L 106.731245 57.14433 
L 107.195447 54.48321 
L 107.539643 51.82209 
L 107.793173 49.16097 
L 107.807345 48.963617 
L 107.974191 46.49985 
L 108.14269 43.39521 
L 108.277957 40.73409 
L 108.428331 38.07297 
L 108.616496 35.41185 
L 108.86717 32.75073 
L 109.209063 30.08961 
L 109.628657 27.695595 
L 109.675237 27.42849 
L 110.288756 24.76737 
L 111.121992 22.10625 
" clip-path="url(#p71534f2b24)" style="fill: none; stroke: #bad6eb; stroke-width: 1.5"/>
    <path d="M 112.425773 288.21825 
L 111.414257 285.496498 
L 110.696241 282.89601 
L 110.20346 280.23489 
L 109.92044 277.57377 
L 109.8277 274.91265 
L 109.917223 272.25153 
L 110.191037 269.59041 
L 110.659978 266.92929 
L 111.47585 263.82465 
L 112.396274 261.16353 
L 113.547608 258.50241 
L 114.985457 255.693627 
L 120.958678 245.19681 
L 122.193929 242.53569 
L 123.188184 239.87457 
L 123.997254 237.21345 
L 124.594553 234.55233 
L 125.045284 231.89121 
L 125.608164 226.56897 
L 125.882887 220.80321 
L 126.018255 210.15873 
L 125.956783 191.53089 
L 125.770481 183.188217 
L 125.490782 178.22529 
L 125.193938 175.12065 
L 124.826539 172.45953 
L 123.984881 168.535587 
L 123.566643 167.13729 
L 122.163569 163.854629 
L 120.377969 161.22533 
L 118.080686 159.15393 
L 116.806769 158.418948 
L 114.985457 157.745389 
L 113.199857 157.433535 
L 111.414257 157.440541 
L 109.628657 157.742441 
L 107.807345 158.330229 
L 106.021745 159.157982 
L 104.236145 160.30202 
L 102.235476 161.81505 
L 98.843633 164.946098 
L 95.272433 168.698252 
L 91.665521 172.739588 
L 87.110576 178.22529 
L 75.523697 192.628882 
L 69.838463 199.51425 
L 62.953073 208.034751 
L 58.738191 212.81985 
L 55.774961 215.925076 
L 52.203761 219.383578 
L 48.596849 222.478935 
L 46.62423 223.90785 
L 45.025649 224.943073 
L 43.204337 225.906061 
L 41.418737 226.632029 
L 39.633137 227.13453 
L 37.847537 227.39671 
L 36.026225 227.409005 
L 34.240625 227.158559 
L 34.240625 227.158559 
" clip-path="url(#p71534f2b24)" style="fill: none; stroke: #bad6eb; stroke-width: 1.5"/>
    <path d="M 313.320669 22.10625 
L 314.381353 24.76737 
L 315.204553 27.42849 
L 315.972593 30.958062 
L 316.290496 32.75073 
L 316.876156 38.07297 
L 317.126356 43.39521 
L 317.12857 49.16097 
L 316.888045 54.48321 
L 316.332209 59.80545 
L 315.890781 62.46657 
L 315.325035 65.12769 
L 314.186993 68.958717 
L 313.669202 70.44993 
L 312.401393 73.414024 
L 310.615793 76.911603 
L 308.207264 81.09441 
L 306.662567 83.75553 
L 305.223281 86.456124 
L 303.437681 90.774424 
L 302.977621 92.18241 
L 302.361786 94.84353 
L 302.012947 97.50465 
L 301.933899 100.16577 
L 302.121943 102.82689 
L 302.570343 105.48801 
L 303.437681 108.625215 
L 304.24615 110.81025 
L 305.462249 113.47137 
L 307.008881 116.284071 
L 308.794481 119.115802 
L 312.401393 124.241831 
L 324.972017 141.215972 
L 326.757617 143.967202 
L 328.543217 147.037092 
L 329.33293 148.50945 
L 330.573108 151.17057 
L 332.150129 155.432944 
L 332.497075 156.49281 
L 333.203806 159.15393 
L 333.935729 162.954742 
L 334.517097 167.13729 
L 334.933744 172.45953 
L 335.148645 178.22529 
L 335.260265 188.86977 
L 335.231792 218.14209 
L 335.062544 226.56897 
L 334.770852 231.89121 
L 334.195003 237.21345 
L 333.753157 239.87457 
L 333.183636 242.53569 
L 332.150129 246.051672 
L 331.52407 247.85793 
L 330.328817 250.65838 
L 328.543217 254.155494 
L 326.006355 258.50241 
L 322.906034 263.82465 
L 321.357817 266.92929 
L 319.579505 271.45566 
L 318.51012 274.91265 
L 315.621976 285.55713 
L 314.677812 288.21825 
L 314.677812 288.21825 
" clip-path="url(#p71534f2b24)" style="fill: none; stroke: #bad6eb; stroke-width: 1.5"/>
   </g>
   <g id="PathCollection_4">
    <path d="M 34.240625 84.184509 
L 34.91395 83.75553 
L 36.026225 83.135123 
L 37.847537 82.374585 
L 39.633137 81.865381 
L 41.418737 81.564688 
L 43.204337 81.453088 
L 45.025649 81.518718 
L 46.811249 81.747526 
L 48.596849 82.130358 
L 50.382449 82.660125 
L 52.203761 83.345379 
L 53.116065 83.75553 
L 53.989361 84.158102 
L 55.774961 85.091201 
L 57.560561 86.121068 
L 58.040002 86.41665 
L 59.381873 87.253798 
L 61.167473 88.398191 
L 62.910783 89.52129 
L 62.953073 89.548381 
L 64.738673 90.655908 
L 66.559985 91.714025 
L 67.439957 92.18241 
L 68.345585 92.652008 
L 70.131185 93.465576 
L 71.916785 94.151468 
L 73.738097 94.711891 
L 74.316344 94.84353 
L 75.523697 95.111456 
L 77.309297 95.362068 
L 79.094897 95.463342 
L 80.916209 95.408581 
L 82.701809 95.194543 
L 84.355434 94.84353 
L 84.487409 94.814067 
L 86.273009 94.244879 
L 88.094321 93.474635 
L 89.879921 92.526217 
L 90.427479 92.18241 
L 91.665521 91.353657 
L 93.451121 89.976356 
L 93.980331 89.52129 
L 95.272433 88.345049 
L 97.058033 86.572648 
L 97.206223 86.41665 
L 98.843633 84.631741 
L 99.61446 83.75553 
L 100.629233 82.570726 
L 101.857919 81.09441 
L 102.450545 80.360427 
L 103.967078 78.43329 
L 104.236145 78.075317 
L 105.915656 75.77217 
L 106.021745 75.615711 
L 107.656041 73.11105 
L 107.807345 72.852712 
L 109.152238 70.44993 
L 109.628657 69.461182 
L 110.39739 67.78881 
L 111.4057 65.12769 
L 111.414257 65.100001 
L 112.195024 62.46657 
L 112.805573 59.80545 
L 113.199857 57.545821 
L 113.268126 57.14433 
L 113.610185 54.48321 
L 113.863008 51.82209 
L 114.053302 49.16097 
L 114.206173 46.49985 
L 114.369255 43.39521 
L 114.523066 40.73409 
L 114.715828 38.07297 
L 114.974809 35.41185 
L 114.985457 35.3309 
L 115.333774 32.75073 
L 115.831182 30.08961 
L 116.516927 27.42849 
L 116.806769 26.57792 
L 117.470781 24.76737 
L 118.592369 22.464679 
L 118.786183 22.10625 
" clip-path="url(#p71534f2b24)" style="fill: none; stroke: #89bedc; stroke-width: 1.5"/>
    <path d="M 120.165423 288.21825 
L 118.592369 285.301997 
L 117.673952 282.89601 
L 116.992774 280.23489 
L 116.607603 277.57377 
L 116.485401 274.91265 
L 116.608942 272.25153 
L 116.976156 269.59041 
L 117.590749 266.92929 
L 118.622453 263.82465 
L 120.377969 259.980419 
L 122.163569 256.721499 
L 125.771634 250.51905 
L 127.556081 246.953622 
L 128.323894 245.19681 
L 129.341681 242.38571 
L 130.067405 239.87457 
L 130.665901 237.21345 
L 131.162993 234.207197 
L 131.687523 229.23009 
L 131.963725 223.90785 
L 132.120448 215.48097 
L 132.143846 196.85313 
L 132.036936 183.54753 
L 131.872805 178.22529 
L 131.484764 172.45953 
L 131.162993 169.701656 
L 130.74266 167.13729 
L 130.14367 164.47617 
L 129.332791 161.81505 
L 128.205757 159.15393 
L 126.662419 156.49281 
L 125.770481 155.305241 
L 123.984881 153.359923 
L 122.163569 151.89493 
L 120.377969 150.798689 
L 118.592369 150.009467 
L 116.806769 149.449017 
L 114.985457 149.096119 
L 113.199857 148.95336 
L 111.414257 149.00502 
L 109.628657 149.247929 
L 107.807345 149.692482 
L 106.021745 150.323451 
L 104.202712 151.17057 
L 102.450545 152.21785 
L 100.223888 153.83169 
L 97.231566 156.49281 
L 95.272433 158.484303 
L 91.665521 162.4439 
L 85.326597 169.79841 
L 80.916209 175.255234 
L 73.738097 184.310865 
L 58.835246 202.17537 
L 55.774961 205.559176 
L 52.203761 209.050272 
L 48.596849 212.04162 
L 46.811249 213.302532 
L 45.025649 214.387687 
L 42.680172 215.48097 
L 41.418737 215.938233 
L 39.633137 216.306693 
L 37.847537 216.357252 
L 36.026225 216.026062 
L 34.240625 215.245839 
L 34.240625 215.245839 
" clip-path="url(#p71534f2b24)" style="fill: none; stroke: #89bedc; stroke-width: 1.5"/>
    <path d="M 305.651681 22.10625 
L 307.207006 24.76737 
L 308.353791 27.42849 
L 309.206129 30.08961 
L 309.829454 32.75073 
L 310.279282 35.41185 
L 310.797027 40.73409 
L 310.94874 46.49985 
L 310.778726 51.82209 
L 310.262722 57.14433 
L 309.833644 59.80545 
L 308.794481 64.135811 
L 308.509015 65.12769 
L 307.008881 69.082398 
L 306.402209 70.44993 
L 305.042973 73.11105 
L 298.994881 83.75553 
L 297.795971 86.41665 
L 296.700247 89.52129 
L 296.018726 92.18241 
L 295.570828 94.84353 
L 295.342356 97.50465 
L 295.326265 100.16577 
L 295.519456 102.82689 
L 295.922982 105.48801 
L 296.543586 108.14913 
L 297.385509 110.81025 
L 298.453592 113.47137 
L 299.830769 116.288674 
L 301.616369 119.381786 
L 303.437681 122.188835 
L 307.008881 127.192011 
L 318.896056 143.18721 
L 321.365105 146.99322 
L 323.150705 150.138552 
L 323.692691 151.17057 
L 324.972017 153.99395 
L 325.920861 156.49281 
L 326.757617 159.211511 
L 327.394098 161.81505 
L 327.896895 164.47617 
L 328.557615 169.79841 
L 328.900577 175.12065 
L 329.100852 183.54753 
L 329.153036 202.17537 
L 329.047911 220.80321 
L 328.855875 226.56897 
L 328.460918 231.89121 
L 328.138081 234.55233 
L 327.700464 237.21345 
L 326.757617 241.178728 
L 326.36706 242.53569 
L 324.972017 246.239891 
L 324.25446 247.85793 
L 322.889429 250.51905 
L 319.579505 256.139686 
L 316.715609 261.16353 
L 315.422882 263.82465 
L 314.147363 266.92929 
L 313.235467 269.59041 
L 311.726975 274.91265 
L 310.282515 280.23489 
L 308.794481 284.48655 
L 308.345371 285.55713 
L 306.949521 288.21825 
L 306.949521 288.21825 
" clip-path="url(#p71534f2b24)" style="fill: none; stroke: #89bedc; stroke-width: 1.5"/>
   </g>
   <g id="PathCollection_5">
    <path d="M 34.240625 96.540958 
L 35.14192 94.84353 
L 36.026225 93.583503 
L 37.280704 92.18241 
L 37.847537 91.681639 
L 39.633137 90.508284 
L 41.418737 89.735767 
L 42.301674 89.52129 
L 43.204337 89.336523 
L 45.025649 89.226669 
L 46.811249 89.353727 
L 47.698382 89.52129 
L 48.596849 89.705058 
L 50.382449 90.267895 
L 52.203761 91.006444 
L 53.989361 91.860292 
L 54.585323 92.18241 
L 55.774961 92.853649 
L 57.560561 93.918949 
L 59.080388 94.84353 
L 59.381873 95.031505 
L 61.167473 96.144502 
L 62.953073 97.196576 
L 63.504754 97.50465 
L 64.738673 98.200415 
L 66.559985 99.128744 
L 68.345585 99.925925 
L 68.960844 100.16577 
L 70.131185 100.630634 
L 71.916785 101.223109 
L 73.738097 101.703117 
L 75.523697 102.055118 
L 77.309297 102.291766 
L 79.094897 102.413628 
L 80.916209 102.418452 
L 82.701809 102.302847 
L 84.487409 102.06271 
L 86.273009 101.69025 
L 88.094321 101.163124 
L 89.879921 100.488239 
L 90.578863 100.16577 
L 91.665521 99.657479 
L 93.451121 98.656675 
L 95.169027 97.50465 
L 95.272433 97.432762 
L 97.058033 96.049904 
L 98.426861 94.84353 
L 98.843633 94.46245 
L 100.629233 92.698163 
L 101.117445 92.18241 
L 102.450545 90.73919 
L 103.51918 89.52129 
L 104.236145 88.694234 
L 106.021745 86.55228 
L 106.132397 86.41665 
L 107.807345 84.348324 
L 108.275699 83.75553 
L 109.628657 81.999182 
L 110.306785 81.09441 
L 111.414257 79.541731 
L 112.179306 78.43329 
L 113.199857 76.8249 
L 113.844161 75.77217 
L 114.985457 73.658647 
L 115.271334 73.11105 
L 116.461799 70.44993 
L 116.806769 69.516427 
L 117.432131 67.78881 
L 118.200416 65.12769 
L 118.592369 63.389986 
L 118.801073 62.46657 
L 119.268773 59.80545 
L 119.619176 57.14433 
L 119.880199 54.48321 
L 120.077357 51.82209 
L 120.234978 49.16097 
L 120.377175 46.49985 
L 120.377969 46.486104 
L 120.566019 43.39521 
L 120.772428 40.73409 
L 121.053518 38.07297 
L 121.447201 35.41185 
L 122.000241 32.75073 
L 122.163569 32.173692 
L 122.815439 30.08961 
L 123.959932 27.42849 
L 123.984881 27.383926 
L 125.670285 24.76737 
L 125.770481 24.645578 
L 127.556081 22.782888 
L 128.336189 22.10625 
" clip-path="url(#p71534f2b24)" style="fill: none; stroke: #539ecd; stroke-width: 1.5"/>
    <path d="M 129.87766 288.21825 
L 129.341681 287.783284 
L 127.095784 285.55713 
L 125.346187 282.89601 
L 124.248467 280.23489 
L 123.63863 277.57377 
L 123.425223 274.91265 
L 123.555534 272.25153 
L 124.005865 269.59041 
L 124.790255 266.92929 
L 126.053397 263.82465 
L 127.556081 260.884364 
L 131.92414 253.18017 
L 133.244536 250.51905 
L 134.734193 246.861236 
L 135.318509 245.19681 
L 136.071152 242.53569 
L 136.660066 239.87457 
L 137.120638 237.21345 
L 137.709605 231.89121 
L 138.003326 226.56897 
L 138.175327 218.14209 
L 138.216991 199.51425 
L 138.104588 180.88641 
L 137.914508 175.12065 
L 137.538066 169.79841 
L 137.226983 167.13729 
L 136.519793 163.186051 
L 136.224256 161.81505 
L 135.470095 159.15393 
L 134.476906 156.49281 
L 132.948593 153.42142 
L 131.162993 150.717095 
L 129.271506 148.50945 
L 127.556081 146.930294 
L 125.770481 145.578402 
L 123.984881 144.485919 
L 121.140001 143.18721 
L 120.377969 142.892136 
L 118.592369 142.353984 
L 116.806769 141.968526 
L 114.985457 141.721511 
L 113.199857 141.616007 
L 111.414257 141.6431 
L 109.628657 141.803646 
L 107.807345 142.109338 
L 106.021745 142.556057 
L 104.170187 143.18721 
L 102.450545 143.909429 
L 100.629233 144.8555 
L 98.843633 145.977179 
L 97.058033 147.278538 
L 95.272433 148.783719 
L 92.792305 151.17057 
L 89.879921 154.307535 
L 82.701809 162.61855 
L 76.789965 169.79841 
L 67.939832 180.88641 
L 61.062769 188.86977 
L 55.774961 194.79655 
L 52.203761 198.37727 
L 50.382449 199.962019 
L 48.596849 201.289654 
L 46.811249 202.403896 
L 45.025649 203.22143 
L 43.204337 203.749146 
L 41.418737 203.888513 
L 39.633137 203.549005 
L 37.847537 202.592417 
L 37.393182 202.17537 
L 36.026225 200.619853 
L 35.363332 199.51425 
L 34.240625 197.101837 
L 34.240625 197.101837 
" clip-path="url(#p71534f2b24)" style="fill: none; stroke: #539ecd; stroke-width: 1.5"/>
    <path d="M 296.120823 22.10625 
L 296.259569 22.210927 
L 298.983384 24.76737 
L 299.830769 25.858673 
L 300.892828 27.42849 
L 302.218743 30.08961 
L 303.437681 33.846152 
L 303.80754 35.41185 
L 304.247943 38.07297 
L 304.534364 40.73409 
L 304.694386 43.39521 
L 304.6762 49.16097 
L 304.505404 51.82209 
L 304.22146 54.48321 
L 303.437681 58.900468 
L 303.234211 59.80545 
L 302.463437 62.46657 
L 301.497555 65.12769 
L 299.830769 68.692096 
L 297.348636 73.11105 
L 294.234176 78.43329 
L 292.652657 81.54359 
L 291.673916 83.75553 
L 290.718726 86.41665 
L 289.863962 89.52129 
L 289.357083 92.18241 
L 289.036321 94.84353 
L 288.885899 97.50465 
L 288.910045 100.16577 
L 289.106973 102.82689 
L 289.467688 105.48801 
L 290.00961 108.14913 
L 290.867057 111.150468 
L 291.671356 113.47137 
L 292.809331 116.13249 
L 294.438257 119.313774 
L 296.259569 122.381588 
L 299.22023 126.77697 
L 303.437681 132.48149 
L 311.464965 143.18721 
L 314.186993 147.108395 
L 315.972593 149.938621 
L 317.793905 153.235663 
L 318.098388 153.83169 
L 319.579505 157.300983 
L 320.239975 159.15393 
L 321.365105 163.350912 
L 321.610911 164.47617 
L 322.055689 167.13729 
L 322.625744 172.45953 
L 322.920428 178.22529 
L 323.05373 186.20865 
L 323.080232 207.49761 
L 322.937774 220.80321 
L 322.666485 226.56897 
L 322.123759 231.89121 
L 321.365105 236.070199 
L 321.10358 237.21345 
L 320.327667 239.87457 
L 319.354032 242.53569 
L 317.793905 245.891491 
L 315.972593 249.19155 
L 312.032828 255.84129 
L 310.615344 258.50241 
L 308.794481 262.558531 
L 308.288049 263.82465 
L 306.438035 269.59041 
L 304.142374 277.57377 
L 303.157115 280.23489 
L 301.616369 283.31157 
L 299.830769 285.836341 
L 297.350053 288.21825 
L 297.350053 288.21825 
" clip-path="url(#p71534f2b24)" style="fill: none; stroke: #539ecd; stroke-width: 1.5"/>
   </g>
   <g id="PathCollection_6">
    <path d="M 39.373744 172.45953 
L 39.151498 169.79841 
L 38.983319 167.13729 
L 38.855268 164.47617 
L 38.757557 161.81505 
L 38.683745 159.15393 
L 38.62957 156.49281 
L 38.591677 153.83169 
L 38.56666 151.17057 
L 38.550772 148.50945 
L 38.540331 145.84833 
L 38.532541 143.18721 
L 38.526222 140.52609 
L 38.522038 137.86497 
L 38.522091 135.20385 
L 38.531219 132.09921 
L 38.55002 129.43809 
L 38.581991 126.77697 
L 38.63105 124.11585 
L 38.703754 121.45473 
L 38.811179 118.79361 
L 38.970756 116.13249 
L 39.208045 113.47137 
L 39.558836 110.81025 
L 39.633137 110.414059 
L 40.153042 108.14913 
L 41.052733 105.48801 
L 41.418737 104.71704 
L 42.654383 102.82689 
L 43.204337 102.219111 
L 45.025649 100.947858 
L 46.811249 100.365138 
L 48.596849 100.282381 
L 50.382449 100.566086 
L 52.203761 101.117199 
L 53.989361 101.82179 
L 55.774961 102.617064 
L 56.202683 102.82689 
L 57.560561 103.532543 
L 59.381873 104.474168 
L 61.167473 105.345483 
L 61.468234 105.48801 
L 62.953073 106.237306 
L 64.738673 107.050495 
L 66.559985 107.777444 
L 67.6181 108.14913 
L 68.345585 108.429269 
L 70.131185 109.027972 
L 71.916785 109.52344 
L 73.738097 109.929863 
L 75.523697 110.237342 
L 77.309297 110.459221 
L 79.094897 110.598244 
L 80.916209 110.655579 
L 82.701809 110.627739 
L 84.487409 110.513114 
L 86.273009 110.305507 
L 88.094321 109.988311 
L 89.879921 109.560724 
L 91.665521 108.999974 
L 93.451121 108.282756 
L 93.732646 108.14913 
L 95.272433 107.467882 
L 97.058033 106.50124 
L 98.602364 105.48801 
L 98.843633 105.334495 
L 100.629233 104.05881 
L 102.091546 102.82689 
L 102.450545 102.525182 
L 104.236145 100.879471 
L 104.938386 100.16577 
L 106.021745 99.060114 
L 107.426024 97.50465 
L 107.807345 97.080397 
L 109.628657 94.949256 
L 109.716505 94.84353 
L 111.414257 92.811687 
L 111.92233 92.18241 
L 113.199857 90.609179 
L 114.058327 89.52129 
L 114.985457 88.349798 
L 116.446915 86.41665 
L 116.806769 85.929788 
L 118.364273 83.75553 
L 118.592369 83.417555 
L 120.110158 81.09441 
L 120.377969 80.641443 
L 121.648129 78.43329 
L 122.163569 77.396861 
L 122.959433 75.77217 
L 123.984881 73.223069 
L 124.030056 73.11105 
L 124.93725 70.44993 
L 125.636656 67.78881 
L 125.770481 67.149779 
L 126.213822 65.12769 
L 126.663118 62.46657 
L 127.002722 59.80545 
L 127.259163 57.14433 
L 127.456116 54.48321 
L 127.556081 52.835059 
L 127.623985 51.82209 
L 127.790709 49.16097 
L 127.975239 46.49985 
L 128.260672 43.39521 
L 128.614128 40.73409 
L 129.123192 38.07297 
L 129.341681 37.267557 
L 129.92532 35.41185 
L 131.108031 32.75073 
L 131.162993 32.659645 
L 132.948593 30.188159 
L 133.035103 30.08961 
L 134.734193 28.619839 
L 136.456571 27.42849 
L 136.519793 27.394022 
L 138.341105 26.591655 
L 140.126705 25.974449 
L 141.912305 25.493399 
L 143.697905 25.122176 
L 145.519217 24.833846 
L 146.075104 24.76737 
L 147.304817 24.645293 
L 149.090417 24.512826 
L 150.876017 24.415219 
L 152.697329 24.343024 
L 154.482929 24.292405 
L 156.268529 24.256575 
L 158.054129 24.231571 
L 159.875441 24.214092 
L 161.661041 24.20253 
L 163.446641 24.194811 
L 165.232241 24.18973 
L 167.053553 24.186372 
L 168.839153 24.184261 
L 170.624753 24.18291 
L 172.410353 24.182054 
L 174.231665 24.18151 
L 176.017265 24.181191 
L 177.802865 24.181012 
L 179.588465 24.180924 
L 181.409777 24.18089 
L 183.195377 24.18088 
L 184.980977 24.180875 
L 186.766577 24.180861 
L 188.587889 24.180835 
L 190.373489 24.180804 
L 192.159089 24.180777 
L 193.944689 24.180762 
L 195.766001 24.180765 
L 197.551601 24.180785 
L 199.337201 24.180812 
L 201.122801 24.180838 
L 202.944113 24.180851 
L 204.729713 24.180847 
L 206.515313 24.180827 
L 208.300913 24.180799 
L 210.122225 24.180773 
L 211.907825 24.180761 
L 213.693425 24.180765 
L 215.479025 24.180786 
L 217.300337 24.180814 
L 219.085937 24.180839 
L 220.871537 24.180851 
L 222.657137 24.180847 
L 224.478449 24.180826 
L 226.264049 24.180798 
L 228.049649 24.180773 
L 229.835249 24.180762 
L 231.656561 24.180768 
L 233.442161 24.18079 
L 235.227761 24.180821 
L 237.013361 24.180851 
L 238.834673 24.180873 
L 240.620273 24.180883 
L 242.405873 24.180892 
L 244.191473 24.180915 
L 246.012785 24.18098 
L 247.798385 24.18112 
L 249.583985 24.181379 
L 251.369585 24.181818 
L 253.190897 24.182544 
L 254.976497 24.183673 
L 256.762097 24.185437 
L 258.547697 24.188175 
L 260.369009 24.192495 
L 262.154609 24.198973 
L 263.940209 24.208714 
L 265.725809 24.223158 
L 267.547121 24.244768 
L 269.332721 24.275368 
L 271.118321 24.318777 
L 272.903921 24.379495 
L 274.725233 24.465212 
L 276.510833 24.579891 
L 278.296433 24.733854 
L 278.590613 24.76737 
L 280.082033 24.971482 
L 281.903345 25.29828 
L 283.688945 25.713257 
L 285.474545 26.243129 
L 287.260145 26.912243 
L 288.365378 27.42849 
L 289.081457 27.847442 
L 290.867057 29.13303 
L 291.958141 30.08961 
L 292.652657 30.883281 
L 294.017908 32.75073 
L 294.438257 33.531728 
L 295.300337 35.41185 
L 296.154241 38.07297 
L 296.259569 38.571952 
L 296.657834 40.73409 
L 296.936879 43.39521 
L 297.036974 46.49985 
L 296.949189 49.16097 
L 296.706594 51.82209 
L 296.305321 54.48321 
L 296.259569 54.695934 
L 295.676409 57.14433 
L 294.857052 59.80545 
L 294.438257 60.908258 
L 293.796825 62.46657 
L 292.652657 64.88003 
L 292.527995 65.12769 
L 291.055834 67.78881 
L 290.867057 68.112543 
L 289.479152 70.44993 
L 289.081457 71.124667 
L 287.909406 73.11105 
L 287.260145 74.286591 
L 286.445678 75.77217 
L 285.474545 77.773242 
L 285.156068 78.43329 
L 284.052778 81.09441 
L 283.688945 82.169461 
L 283.144099 83.75553 
L 282.42773 86.41665 
L 281.903345 89.119108 
L 281.821867 89.52129 
L 281.445016 92.18241 
L 281.221317 94.84353 
L 281.138676 97.50465 
L 281.192641 100.16577 
L 281.385348 102.82689 
L 281.725228 105.48801 
L 281.903345 106.454398 
L 282.19417 108.14913 
L 282.809117 110.81025 
L 283.616345 113.47137 
L 283.688945 113.670954 
L 284.558832 116.13249 
L 285.474545 118.23611 
L 285.714429 118.79361 
L 287.046191 121.45473 
L 287.260145 121.835184 
L 288.551512 124.11585 
L 289.081457 124.96331 
L 290.23168 126.77697 
L 290.867057 127.717051 
L 292.051618 129.43809 
L 292.652657 130.280567 
L 293.974112 132.09921 
L 294.438257 132.733833 
L 296.259569 135.146133 
L 296.303437 135.20385 
L 298.045169 137.51902 
L 298.308724 137.86497 
L 299.830769 139.884551 
L 300.319323 140.52609 
L 301.616369 142.257568 
L 302.31738 143.18721 
L 303.437681 144.705631 
L 304.282108 145.84833 
L 305.223281 147.167088 
L 306.175728 148.50945 
L 307.008881 149.746073 
L 307.951522 151.17057 
L 308.794481 152.542881 
L 309.55966 153.83169 
L 310.615793 155.798769 
L 310.970311 156.49281 
L 312.149264 159.15393 
L 312.401393 159.829375 
L 313.088106 161.81505 
L 313.839306 164.47617 
L 314.186993 166.041906 
L 314.408537 167.13729 
L 314.812828 169.79841 
L 315.108669 172.45953 
L 315.31687 175.12065 
L 315.474984 178.22529 
L 315.557742 180.88641 
L 315.607634 183.54753 
L 315.636896 186.20865 
L 315.654643 188.86977 
L 315.666608 191.53089 
L 315.67538 194.19201 
L 315.681264 196.85313 
L 315.683527 199.51425 
L 315.681526 202.17537 
L 315.675248 204.83649 
L 315.664971 207.49761 
L 315.650194 210.15873 
L 315.628269 212.81985 
L 315.593255 215.48097 
L 315.535373 218.14209 
L 315.441064 220.80321 
L 315.262288 223.90785 
L 315.027376 226.56897 
L 314.693743 229.23009 
L 314.238242 231.89121 
L 314.186993 232.117375 
L 313.576523 234.55233 
L 312.740171 237.21345 
L 312.401393 238.097402 
L 311.663806 239.87457 
L 310.615793 242.076856 
L 310.383649 242.53569 
L 308.911713 245.19681 
L 308.794481 245.397079 
L 307.325867 247.85793 
L 307.008881 248.391019 
L 305.742873 250.51905 
L 305.223281 251.442753 
L 304.253812 253.18017 
L 303.437681 254.805903 
L 302.920462 255.84129 
L 301.764527 258.50241 
L 301.616369 258.893065 
L 300.741508 261.16353 
L 299.87807 263.82465 
L 299.830769 263.984836 
L 298.923355 266.92929 
L 298.153756 269.59041 
L 298.045169 269.946227 
L 297.273648 272.25153 
L 296.259569 274.90973 
L 296.25831 274.91265 
L 294.84223 277.57377 
L 294.438257 278.172795 
L 292.794507 280.23489 
L 292.652657 280.3744 
L 290.867057 281.837374 
L 289.27034 282.89601 
L 289.081457 282.995998 
L 287.260145 283.776231 
L 285.474545 284.379089 
L 283.688945 284.85059 
L 281.903345 285.215432 
L 280.082033 285.499411 
L 279.592688 285.55713 
L 278.296433 285.684209 
L 276.510833 285.815097 
L 274.725233 285.911605 
L 272.903921 285.983027 
L 271.118321 286.033128 
L 269.332721 286.068605 
L 267.547121 286.093372 
L 265.725809 286.110691 
L 263.940209 286.12215 
L 262.154609 286.129801 
L 260.369009 286.13484 
L 258.547697 286.13817 
L 256.762097 286.140265 
L 254.976497 286.141605 
L 253.190897 286.142455 
L 251.369585 286.142995 
L 249.583985 286.143312 
L 247.798385 286.143489 
L 246.012785 286.143577 
L 244.191473 286.143611 
L 242.405873 286.14362 
L 240.620273 286.143625 
L 238.834673 286.14364 
L 237.013361 286.143665 
L 235.227761 286.143696 
L 233.442161 286.143723 
L 231.656561 286.143738 
L 229.835249 286.143735 
L 228.049649 286.143715 
L 226.264049 286.143688 
L 224.478449 286.143662 
L 222.657137 286.143649 
L 220.871537 286.143653 
L 219.085937 286.143673 
L 217.300337 286.143701 
L 215.479025 286.143726 
L 213.693425 286.143739 
L 211.907825 286.143735 
L 210.122225 286.143714 
L 208.300913 286.143686 
L 206.515313 286.14366 
L 204.729713 286.143648 
L 202.944113 286.143652 
L 201.122801 286.143671 
L 199.337201 286.143697 
L 197.551601 286.143718 
L 195.766001 286.143723 
L 193.944689 286.143705 
L 192.159089 286.143665 
L 190.373489 286.143606 
L 188.587889 286.143532 
L 186.766577 286.143439 
L 184.980977 286.143321 
L 183.195377 286.143151 
L 181.409777 286.142887 
L 179.588465 286.14246 
L 177.802865 286.141806 
L 176.017265 286.140816 
L 174.231665 286.139351 
L 172.410353 286.137174 
L 170.624753 286.134105 
L 168.839153 286.12974 
L 167.053553 286.123568 
L 165.232241 286.114678 
L 163.446641 286.102445 
L 161.661041 286.085433 
L 159.875441 286.061932 
L 158.054129 286.028948 
L 156.268529 285.984794 
L 154.482929 285.925132 
L 152.697329 285.845124 
L 150.876017 285.73621 
L 149.090417 285.594891 
L 148.724113 285.55713 
L 147.304817 285.37776 
L 145.519217 285.083766 
L 143.697905 284.694694 
L 141.912305 284.204304 
L 140.126705 283.580953 
L 138.565811 282.89601 
L 138.341105 282.76351 
L 136.519793 281.42939 
L 135.212092 280.23489 
L 134.734193 279.561388 
L 133.576389 277.57377 
L 132.948593 275.322538 
L 132.852404 274.91265 
L 132.805144 272.25153 
L 132.948593 271.401862 
L 133.275574 269.59041 
L 134.158656 266.92929 
L 134.734193 265.64778 
L 135.566652 263.82465 
L 136.519793 261.988516 
L 136.951338 261.16353 
L 138.341105 258.538004 
L 138.359857 258.50241 
L 139.719173 255.84129 
L 140.126705 254.948887 
L 140.92964 253.18017 
L 141.912305 250.603755 
L 141.944846 250.51905 
L 142.823448 247.85793 
L 143.508665 245.19681 
L 143.697905 244.274208 
L 144.072171 242.53569 
L 144.515492 239.87457 
L 144.847144 237.21345 
L 145.09008 234.55233 
L 145.263232 231.89121 
L 145.382804 229.23009 
L 145.462946 226.56897 
L 145.515742 223.90785 
L 145.519217 223.637041 
L 145.559787 220.80321 
L 145.585112 218.14209 
L 145.602817 215.48097 
L 145.614473 212.81985 
L 145.620647 210.15873 
L 145.622087 207.49761 
L 145.620313 204.83649 
L 145.61742 202.17537 
L 145.615291 199.51425 
L 145.614689 196.85313 
L 145.614755 194.19201 
L 145.613156 191.53089 
L 145.606758 188.86977 
L 145.592383 186.20865 
L 145.567101 183.54753 
L 145.527781 180.88641 
L 145.519217 180.490789 
L 145.475256 178.22529 
L 145.385408 175.12065 
L 145.27132 172.45953 
L 145.10794 169.79841 
L 144.876985 167.13729 
L 144.556408 164.47617 
L 144.119881 161.81505 
L 143.697905 159.868509 
L 143.550781 159.15393 
L 142.851677 156.49281 
L 141.933123 153.83169 
L 141.912305 153.78131 
L 140.826443 151.17057 
L 140.126705 149.813814 
L 139.427371 148.50945 
L 138.341105 146.805525 
L 137.685222 145.84833 
L 136.519793 144.359006 
L 135.498568 143.18721 
L 134.734193 142.382983 
L 132.948593 140.734149 
L 132.696323 140.52609 
L 131.162993 139.303348 
L 129.341681 138.092792 
L 128.948926 137.86497 
L 127.556081 137.041434 
L 125.770481 136.158978 
L 123.984881 135.437254 
L 123.292405 135.20385 
L 122.163569 134.786577 
L 120.377969 134.251461 
L 118.592369 133.835949 
L 116.806769 133.527795 
L 114.985457 133.315321 
L 113.199857 133.201691 
L 111.414257 133.179837 
L 109.628657 133.25088 
L 107.807345 133.423519 
L 106.021745 133.698929 
L 104.236145 134.091355 
L 102.450545 134.617446 
L 100.904177 135.20385 
L 100.629233 135.298465 
L 98.843633 136.034372 
L 97.058033 136.94814 
L 95.581951 137.86497 
L 95.272433 138.050218 
L 93.451121 139.287912 
L 91.920484 140.52609 
L 91.665521 140.730611 
L 89.879921 142.300711 
L 88.979015 143.18721 
L 88.094321 144.059311 
L 86.432474 145.84833 
L 86.273009 146.020592 
L 84.487409 148.025016 
L 84.074023 148.50945 
L 82.701809 150.095973 
L 81.802954 151.17057 
L 80.916209 152.208058 
L 79.56063 153.83169 
L 79.094897 154.376849 
L 77.324584 156.49281 
L 77.309297 156.510706 
L 75.523697 158.606329 
L 75.067989 159.15393 
L 73.738097 160.732953 
L 72.847882 161.81505 
L 71.916785 162.943946 
L 70.678084 164.47617 
L 70.131185 165.151523 
L 68.545192 167.13729 
L 68.345585 167.385767 
L 66.559985 169.603792 
L 66.401555 169.79841 
L 64.738673 171.805506 
L 64.19111 172.45953 
L 62.953073 173.898079 
L 61.884172 175.12065 
L 61.167473 175.908833 
L 59.381873 177.838918 
L 59.007712 178.22529 
L 57.560561 179.672239 
L 56.300194 180.88641 
L 55.774961 181.384957 
L 53.989361 182.948749 
L 53.224413 183.54753 
L 52.203761 184.34132 
L 50.382449 185.530457 
L 48.976874 186.20865 
L 48.596849 186.390633 
L 46.811249 186.773337 
L 45.025649 186.550982 
L 44.426418 186.20865 
L 43.204337 185.297494 
L 42.024835 183.54753 
L 41.418737 182.331425 
L 40.926922 180.88641 
L 40.244395 178.22529 
L 39.675548 175.12065 
L 39.633137 174.808289 
L 39.373744 172.45953 
z
" clip-path="url(#p71534f2b24)" style="fill: none; stroke: #2b7bba; stroke-width: 1.5"/>
   </g>
   <g id="PathCollection_7">
    <path d="M 59.360925 137.86497 
L 58.994109 135.20385 
L 59.381873 133.095305 
L 59.72482 132.09921 
L 61.167473 130.843948 
L 62.953073 130.510153 
L 64.738673 131.104471 
L 65.975509 132.09921 
L 66.060482 135.20385 
L 64.738673 137.359695 
L 64.306868 137.86497 
L 62.953073 138.874146 
L 61.167473 139.339893 
L 59.381873 137.914418 
L 59.360925 137.86497 
z
" clip-path="url(#p71534f2b24)" style="fill: none; stroke: #0b559f; stroke-width: 1.5"/>
    <path d="M 125.482734 110.81025 
L 125.770481 109.10351 
L 125.932418 108.14913 
L 127.170839 105.48801 
L 127.556081 104.874512 
L 128.814358 102.82689 
L 129.341681 102.075602 
L 130.646392 100.16577 
L 131.162993 99.447728 
L 132.516885 97.50465 
L 132.948593 96.888135 
L 134.333036 94.84353 
L 134.734193 94.229885 
L 136.038692 92.18241 
L 136.519793 91.370531 
L 137.606853 89.52129 
L 138.341105 88.129087 
L 139.230282 86.41665 
L 140.126705 84.39812 
L 140.424921 83.75553 
L 141.484358 81.09441 
L 141.912305 79.734744 
L 142.36292 78.43329 
L 143.089393 75.77217 
L 143.622091 73.11105 
L 143.697905 72.634108 
L 144.108316 70.44993 
L 144.499516 67.78881 
L 144.816559 65.12769 
L 145.088056 62.46657 
L 145.335179 59.80545 
L 145.519217 57.826914 
L 145.600202 57.14433 
L 145.968635 54.48321 
L 146.466226 51.82209 
L 147.220005 49.16097 
L 147.304817 48.971732 
L 148.768402 46.49985 
L 149.090417 46.166603 
L 150.876017 44.793092 
L 152.697329 43.771634 
L 153.630341 43.39521 
L 154.482929 43.175432 
L 156.268529 42.847885 
L 158.054129 42.618261 
L 159.875441 42.456981 
L 161.661041 42.349766 
L 163.446641 42.277839 
L 165.232241 42.230259 
L 167.053553 42.198683 
L 168.839153 42.178764 
L 170.624753 42.16599 
L 172.410353 42.157862 
L 174.231665 42.15268 
L 176.017265 42.149599 
L 177.802865 42.147825 
L 179.588465 42.146906 
L 181.409777 42.146505 
L 183.195377 42.146376 
L 184.980977 42.146318 
L 186.766577 42.146217 
L 188.587889 42.146026 
L 190.373489 42.145781 
L 192.159089 42.145549 
L 193.944689 42.145404 
L 195.766001 42.145396 
L 197.551601 42.145524 
L 199.337201 42.145736 
L 201.122801 42.14595 
L 202.944113 42.146085 
L 204.729713 42.146084 
L 206.515313 42.14595 
L 208.300913 42.145736 
L 210.122225 42.145519 
L 211.907825 42.14539 
L 213.693425 42.145394 
L 215.479025 42.14553 
L 217.300337 42.14575 
L 219.085937 42.145963 
L 220.871537 42.146091 
L 222.657137 42.146087 
L 224.478449 42.145951 
L 226.264049 42.145744 
L 228.049649 42.145549 
L 229.835249 42.145451 
L 231.656561 42.145508 
L 233.442161 42.145725 
L 235.227761 42.146064 
L 237.013361 42.146471 
L 238.834673 42.146918 
L 240.620273 42.147407 
L 242.405873 42.148055 
L 244.191473 42.149069 
L 246.012785 42.150806 
L 247.798385 42.153626 
L 249.583985 42.15811 
L 251.369585 42.164997 
L 253.190897 42.175576 
L 254.976497 42.190963 
L 256.762097 42.213553 
L 258.547697 42.246598 
L 260.369009 42.295954 
L 262.154609 42.366489 
L 263.940209 42.468389 
L 265.725809 42.614625 
L 267.547121 42.827887 
L 269.332721 43.124314 
L 270.500909 43.39521 
L 271.118321 43.637997 
L 272.903921 44.630019 
L 274.725233 46.0821 
L 275.104312 46.49985 
L 276.041823 49.16097 
L 275.981283 51.82209 
L 275.318345 54.48321 
L 274.725233 56.043873 
L 274.27265 57.14433 
L 273.006178 59.80545 
L 272.903921 60.002035 
L 271.58504 62.46657 
L 271.118321 63.361794 
L 270.179092 65.12769 
L 269.332721 66.855286 
L 268.86213 67.78881 
L 267.670529 70.44993 
L 267.547121 70.763101 
L 266.55921 73.11105 
L 265.725809 75.684001 
L 265.694371 75.77217 
L 264.894968 78.43329 
L 264.313785 81.09441 
L 263.940209 83.439191 
L 263.880808 83.75553 
L 263.491367 86.41665 
L 263.170957 89.52129 
L 262.987727 92.18241 
L 262.884449 94.84353 
L 262.867556 97.50465 
L 262.947185 100.16577 
L 263.132249 102.82689 
L 263.42892 105.48801 
L 263.843413 108.14913 
L 263.940209 108.650776 
L 264.286696 110.81025 
L 264.828983 113.47137 
L 265.531593 116.13249 
L 265.725809 116.748508 
L 266.294808 118.79361 
L 267.2563 121.45473 
L 267.547121 122.13169 
L 268.334787 124.11585 
L 269.332721 126.152158 
L 269.623924 126.77697 
L 271.068294 129.43809 
L 271.118321 129.52369 
L 272.604529 132.09921 
L 272.903921 132.585733 
L 274.58392 135.20385 
L 274.725233 135.416314 
L 276.382952 137.86497 
L 276.510833 138.048862 
L 278.282371 140.52609 
L 278.296433 140.545506 
L 280.082033 142.984235 
L 280.23474 143.18721 
L 281.903345 145.407421 
L 282.244138 145.84833 
L 283.688945 147.751207 
L 284.280243 148.50945 
L 285.474545 150.090898 
L 286.306778 151.17057 
L 287.260145 152.467943 
L 288.270127 153.83169 
L 289.081457 154.994065 
L 290.118352 156.49281 
L 290.867057 157.66201 
L 291.792896 159.15393 
L 292.652657 160.668899 
L 293.262909 161.81505 
L 294.438257 164.257979 
L 294.532942 164.47617 
L 295.485113 167.13729 
L 296.259569 169.618035 
L 296.307033 169.79841 
L 296.834008 172.45953 
L 297.228008 175.12065 
L 297.528424 178.22529 
L 297.673265 180.88641 
L 297.747274 183.54753 
L 297.784485 186.20865 
L 297.812179 188.86977 
L 297.844227 191.53089 
L 297.879857 194.19201 
L 297.908387 196.85313 
L 297.917562 199.51425 
L 297.901209 202.17537 
L 297.862236 204.83649 
L 297.809307 207.49761 
L 297.748732 210.15873 
L 297.675647 212.81985 
L 297.569083 215.48097 
L 297.393882 218.14209 
L 297.109521 220.80321 
L 296.596762 223.90785 
L 296.259569 225.349856 
L 295.914146 226.56897 
L 294.978073 229.23009 
L 294.438257 230.556123 
L 293.824443 231.89121 
L 292.652657 234.28018 
L 292.50843 234.55233 
L 291.041811 237.21345 
L 290.867057 237.528038 
L 289.528664 239.87457 
L 289.081457 240.696436 
L 288.058525 242.53569 
L 287.260145 244.107439 
L 286.6897 245.19681 
L 285.474545 247.822287 
L 285.457239 247.85793 
L 284.254225 250.51905 
L 283.688945 251.998881 
L 283.193729 253.18017 
L 282.189959 255.84129 
L 281.903345 256.622197 
L 281.10364 258.50241 
L 280.082033 260.730062 
L 279.843652 261.16353 
L 278.296433 263.364063 
L 277.895981 263.82465 
L 276.510833 264.913928 
L 274.725233 266.003298 
L 272.903921 266.845596 
L 272.657388 266.92929 
L 271.118321 267.270806 
L 269.332721 267.555829 
L 267.547121 267.757512 
L 265.725809 267.900176 
L 263.940209 267.995533 
L 262.154609 268.059774 
L 260.369009 268.102417 
L 258.547697 268.130804 
L 256.762097 268.14877 
L 254.976497 268.160331 
L 253.190897 268.167717 
L 251.369585 268.172444 
L 249.583985 268.175261 
L 247.798385 268.17688 
L 246.012785 268.177709 
L 244.191473 268.178058 
L 242.405873 268.178158 
L 240.620273 268.1782 
L 238.834673 268.178293 
L 237.013361 268.178479 
L 235.227761 268.178722 
L 233.442161 268.178953 
L 231.656561 268.179097 
L 229.835249 268.179105 
L 228.049649 268.178976 
L 226.264049 268.178764 
L 224.478449 268.17855 
L 222.657137 268.178415 
L 220.871537 268.178416 
L 219.085937 268.178549 
L 217.300337 268.178764 
L 215.479025 268.17898 
L 213.693425 268.179108 
L 211.907825 268.179103 
L 210.122225 268.178964 
L 208.300913 268.178738 
L 206.515313 268.178515 
L 204.729713 268.178367 
L 202.944113 268.178336 
L 201.122801 268.178409 
L 199.337201 268.178509 
L 197.551601 268.178518 
L 195.766001 268.178301 
L 193.944689 268.177705 
L 192.159089 268.176616 
L 190.373489 268.17486 
L 188.587889 268.172189 
L 186.766577 268.168084 
L 184.980977 268.161999 
L 183.195377 268.152778 
L 181.409777 268.138813 
L 179.588465 268.117307 
L 177.802865 268.085884 
L 176.017265 268.039871 
L 174.231665 267.973391 
L 172.410353 267.876197 
L 170.624753 267.740963 
L 168.839153 267.550947 
L 167.053553 267.284972 
L 165.349795 266.92929 
L 165.232241 266.886526 
L 163.446641 265.961652 
L 161.661041 264.532725 
L 161.064909 263.82465 
L 160.385485 261.16353 
L 160.472109 258.50241 
L 160.83647 255.84129 
L 161.253395 253.18017 
L 161.633784 250.51905 
L 161.661041 250.308754 
L 162.036113 247.85793 
L 162.374426 245.19681 
L 162.653741 242.53569 
L 162.882759 239.87457 
L 163.063729 237.21345 
L 163.195644 234.55233 
L 163.2796 231.89121 
L 163.322874 229.23009 
L 163.339345 226.56897 
L 163.345838 223.90785 
L 163.358907 220.80321 
L 163.380645 218.14209 
L 163.407418 215.48097 
L 163.429094 212.81985 
L 163.436589 210.15873 
L 163.427388 207.49761 
L 163.407315 204.83649 
L 163.387614 202.17537 
L 163.378973 199.51425 
L 163.385749 196.85313 
L 163.403501 194.19201 
L 163.421176 191.53089 
L 163.426707 188.86977 
L 163.412954 186.20865 
L 163.380684 183.54753 
L 163.336926 180.88641 
L 163.289541 178.22529 
L 163.232239 175.12065 
L 163.172078 172.45953 
L 163.083089 169.79841 
L 162.942738 167.13729 
L 162.729435 164.47617 
L 162.425915 161.81505 
L 162.018444 159.15393 
L 161.661041 157.307311 
L 161.52962 156.49281 
L 161.009036 153.83169 
L 160.340314 151.17057 
L 159.875441 149.677227 
L 159.552878 148.50945 
L 158.632824 145.84833 
L 158.054129 144.510636 
L 157.517394 143.18721 
L 156.268529 140.726412 
L 156.169538 140.52609 
L 154.64098 137.86497 
L 154.482929 137.618929 
L 152.878933 135.20385 
L 152.697329 134.946871 
L 150.876017 132.533962 
L 150.510977 132.09921 
L 149.090417 130.415078 
L 148.155393 129.43809 
L 147.304817 128.532339 
L 145.519217 126.891922 
L 145.383771 126.77697 
L 143.697905 125.25301 
L 142.146795 124.11585 
L 141.912305 123.924651 
L 140.126705 122.576254 
L 138.341105 121.493645 
L 138.272137 121.45473 
L 136.519793 120.273004 
L 134.734193 119.270062 
L 133.780613 118.79361 
L 132.948593 118.249594 
L 131.162993 117.163774 
L 129.341681 116.159843 
L 129.292207 116.13249 
L 127.556081 114.581701 
L 126.391455 113.47137 
L 125.770481 111.791513 
L 125.482734 110.81025 
z
" clip-path="url(#p71534f2b24)" style="fill: none; stroke: #0b559f; stroke-width: 1.5"/>
   </g>
   <g id="PathCollection_8"/>
   <g id="patch_3">
    <path d="M 34.240625 288.21825 
L 34.240625 22.10625 
" style="fill: none; stroke: #000000; stroke-width: 0.8; stroke-linejoin: miter; stroke-linecap: square"/>
   </g>
   <g id="patch_4">
    <path d="M 391.360625 288.21825 
L 391.360625 22.10625 
" style="fill: none; stroke: #000000; stroke-width: 0.8; stroke-linejoin: miter; stroke-linecap: square"/>
   </g>
   <g id="patch_5">
    <path d="M 34.240625 288.21825 
L 391.360625 288.21825 
" style="fill: none; stroke: #000000; stroke-width: 0.8; stroke-linejoin: miter; stroke-linecap: square"/>
   </g>
   <g id="patch_6">
    <path d="M 34.240625 22.10625 
L 391.360625 22.10625 
" style="fill: none; stroke: #000000; stroke-width: 0.8; stroke-linejoin: miter; stroke-linecap: square"/>
   </g>
   <g id="text_16">
    <!-- 7.3_cross_-35.0 -->
    <g transform="translate(166.181563 16.10625)scale(0.12 -0.12)">
     <defs>
      <path id="DejaVuSans-37" d="M 525 4666 
L 3525 4666 
L 3525 4397 
L 1831 0 
L 1172 0 
L 2766 4134 
L 525 4134 
L 525 4666 
z
" transform="scale(0.015625)"/>
      <path id="DejaVuSans-2e" d="M 684 794 
L 1344 794 
L 1344 0 
L 684 0 
L 684 794 
z
" transform="scale(0.015625)"/>
      <path id="DejaVuSans-5f" d="M 3263 -1063 
L 3263 -1509 
L -63 -1509 
L -63 -1063 
L 3263 -1063 
z
" transform="scale(0.015625)"/>
      <path id="DejaVuSans-63" d="M 3122 3366 
L 3122 2828 
Q 2878 2963 2633 3030 
Q 2388 3097 2138 3097 
Q 1578 3097 1268 2742 
Q 959 2388 959 1747 
Q 959 1106 1268 751 
Q 1578 397 2138 397 
Q 2388 397 2633 464 
Q 2878 531 3122 666 
L 3122 134 
Q 2881 22 2623 -34 
Q 2366 -91 2075 -91 
Q 1284 -91 818 406 
Q 353 903 353 1747 
Q 353 2603 823 3093 
Q 1294 3584 2113 3584 
Q 2378 3584 2631 3529 
Q 2884 3475 3122 3366 
z
" transform="scale(0.015625)"/>
      <path id="DejaVuSans-72" d="M 2631 2963 
Q 2534 3019 2420 3045 
Q 2306 3072 2169 3072 
Q 1681 3072 1420 2755 
Q 1159 2438 1159 1844 
L 1159 0 
L 581 0 
L 581 3500 
L 1159 3500 
L 1159 2956 
Q 1341 3275 1631 3429 
Q 1922 3584 2338 3584 
Q 2397 3584 2469 3576 
Q 2541 3569 2628 3553 
L 2631 2963 
z
" transform="scale(0.015625)"/>
      <path id="DejaVuSans-73" d="M 2834 3397 
L 2834 2853 
Q 2591 2978 2328 3040 
Q 2066 3103 1784 3103 
Q 1356 3103 1142 2972 
Q 928 2841 928 2578 
Q 928 2378 1081 2264 
Q 1234 2150 1697 2047 
L 1894 2003 
Q 2506 1872 2764 1633 
Q 3022 1394 3022 966 
Q 3022 478 2636 193 
Q 2250 -91 1575 -91 
Q 1294 -91 989 -36 
Q 684 19 347 128 
L 347 722 
Q 666 556 975 473 
Q 1284 391 1588 391 
Q 1994 391 2212 530 
Q 2431 669 2431 922 
Q 2431 1156 2273 1281 
Q 2116 1406 1581 1522 
L 1381 1569 
Q 847 1681 609 1914 
Q 372 2147 372 2553 
Q 372 3047 722 3315 
Q 1072 3584 1716 3584 
Q 2034 3584 2315 3537 
Q 2597 3491 2834 3397 
z
" transform="scale(0.015625)"/>
      <path id="DejaVuSans-2d" d="M 313 2009 
L 1997 2009 
L 1997 1497 
L 313 1497 
L 313 2009 
z
" transform="scale(0.015625)"/>
     </defs>
     <use xlink:href="#DejaVuSans-37"/>
     <use xlink:href="#DejaVuSans-2e" x="63.623047"/>
     <use xlink:href="#DejaVuSans-33" x="95.410156"/>
     <use xlink:href="#DejaVuSans-5f" x="159.033203"/>
     <use xlink:href="#DejaVuSans-63" x="209.033203"/>
     <use xlink:href="#DejaVuSans-72" x="264.013672"/>
     <use xlink:href="#DejaVuSans-6f" x="302.876953"/>
     <use xlink:href="#DejaVuSans-73" x="364.058594"/>
     <use xlink:href="#DejaVuSans-73" x="416.158203"/>
     <use xlink:href="#DejaVuSans-5f" x="468.257812"/>
     <use xlink:href="#DejaVuSans-2d" x="518.257812"/>
     <use xlink:href="#DejaVuSans-33" x="554.341797"/>
     <use xlink:href="#DejaVuSans-35" x="617.964844"/>
     <use xlink:href="#DejaVuSans-2e" x="681.587891"/>
     <use xlink:href="#DejaVuSans-30" x="713.375"/>
    </g>
   </g>
  </g>
 </g>
 <defs>
  <clipPath id="p71534f2b24">
   <rect x="34.240625" y="22.10625" width="357.12" height="266.112"/>
  </clipPath>
 </defs>
</svg>
