<?xml version="1.0" encoding="utf-8" standalone="no"?>
<!DOCTYPE svg PUBLIC "-//W3C//DTD SVG 1.1//EN"
  "http://www.w3.org/Graphics/SVG/1.1/DTD/svg11.dtd">
<svg xmlns:xlink="http://www.w3.org/1999/xlink" width="408.104375pt" height="325.7745pt" viewBox="0 0 408.104375 325.7745" xmlns="http://www.w3.org/2000/svg" version="1.1">
 <metadata>
  <rdf:RDF xmlns:dc="http://purl.org/dc/elements/1.1/" xmlns:cc="http://creativecommons.org/ns#" xmlns:rdf="http://www.w3.org/1999/02/22-rdf-syntax-ns#">
   <cc:Work>
    <dc:type rdf:resource="http://purl.org/dc/dcmitype/StillImage"/>
    <dc:date>2024-07-12T12:29:05.750301</dc:date>
    <dc:format>image/svg+xml</dc:format>
    <dc:creator>
     <cc:Agent>
      <dc:title>Matplotlib v3.5.3, https://matplotlib.org/</dc:title>
     </cc:Agent>
    </dc:creator>
   </cc:Work>
  </rdf:RDF>
 </metadata>
 <defs>
  <style type="text/css">*{stroke-linejoin: round; stroke-linecap: butt}</style>
 </defs>
 <g id="figure_1">
  <g id="patch_1">
   <path d="M 0 325.7745 
L 408.104375 325.7745 
L 408.104375 0 
L 0 0 
z
" style="fill: #ffffff"/>
  </g>
  <g id="axes_1">
   <g id="patch_2">
    <path d="M 34.240625 288.21825 
L 391.360625 288.21825 
L 391.360625 22.10625 
L 34.240625 22.10625 
z
" style="fill: #ffffff"/>
   </g>
   <g id="matplotlib.axis_1">
    <g id="xtick_1">
     <g id="line2d_1">
      <defs>
       <path id="m8757c64a64" d="M 0 0 
L 0 3.5 
" style="stroke: #000000; stroke-width: 0.8"/>
      </defs>
      <g>
       <use xlink:href="#m8757c64a64" x="34.240625" y="288.21825" style="stroke: #000000; stroke-width: 0.8"/>
      </g>
     </g>
     <g id="text_1">
      <!-- 0 -->
      <g transform="translate(31.059375 302.816687)scale(0.1 -0.1)">
       <defs>
        <path id="DejaVuSans-30" d="M 2034 4250 
Q 1547 4250 1301 3770 
Q 1056 3291 1056 2328 
Q 1056 1369 1301 889 
Q 1547 409 2034 409 
Q 2525 409 2770 889 
Q 3016 1369 3016 2328 
Q 3016 3291 2770 3770 
Q 2525 4250 2034 4250 
z
M 2034 4750 
Q 2819 4750 3233 4129 
Q 3647 3509 3647 2328 
Q 3647 1150 3233 529 
Q 2819 -91 2034 -91 
Q 1250 -91 836 529 
Q 422 1150 422 2328 
Q 422 3509 836 4129 
Q 1250 4750 2034 4750 
z
" transform="scale(0.015625)"/>
       </defs>
       <use xlink:href="#DejaVuSans-30"/>
      </g>
     </g>
    </g>
    <g id="xtick_2">
     <g id="line2d_2">
      <g>
       <use xlink:href="#m8757c64a64" x="105.664625" y="288.21825" style="stroke: #000000; stroke-width: 0.8"/>
      </g>
     </g>
     <g id="text_2">
      <!-- 20 -->
      <g transform="translate(99.302125 302.816687)scale(0.1 -0.1)">
       <defs>
        <path id="DejaVuSans-32" d="M 1228 531 
L 3431 531 
L 3431 0 
L 469 0 
L 469 531 
Q 828 903 1448 1529 
Q 2069 2156 2228 2338 
Q 2531 2678 2651 2914 
Q 2772 3150 2772 3378 
Q 2772 3750 2511 3984 
Q 2250 4219 1831 4219 
Q 1534 4219 1204 4116 
Q 875 4013 500 3803 
L 500 4441 
Q 881 4594 1212 4672 
Q 1544 4750 1819 4750 
Q 2544 4750 2975 4387 
Q 3406 4025 3406 3419 
Q 3406 3131 3298 2873 
Q 3191 2616 2906 2266 
Q 2828 2175 2409 1742 
Q 1991 1309 1228 531 
z
" transform="scale(0.015625)"/>
       </defs>
       <use xlink:href="#DejaVuSans-32"/>
       <use xlink:href="#DejaVuSans-30" x="63.623047"/>
      </g>
     </g>
    </g>
    <g id="xtick_3">
     <g id="line2d_3">
      <g>
       <use xlink:href="#m8757c64a64" x="177.088625" y="288.21825" style="stroke: #000000; stroke-width: 0.8"/>
      </g>
     </g>
     <g id="text_3">
      <!-- 40 -->
      <g transform="translate(170.726125 302.816687)scale(0.1 -0.1)">
       <defs>
        <path id="DejaVuSans-34" d="M 2419 4116 
L 825 1625 
L 2419 1625 
L 2419 4116 
z
M 2253 4666 
L 3047 4666 
L 3047 1625 
L 3713 1625 
L 3713 1100 
L 3047 1100 
L 3047 0 
L 2419 0 
L 2419 1100 
L 313 1100 
L 313 1709 
L 2253 4666 
z
" transform="scale(0.015625)"/>
       </defs>
       <use xlink:href="#DejaVuSans-34"/>
       <use xlink:href="#DejaVuSans-30" x="63.623047"/>
      </g>
     </g>
    </g>
    <g id="xtick_4">
     <g id="line2d_4">
      <g>
       <use xlink:href="#m8757c64a64" x="248.512625" y="288.21825" style="stroke: #000000; stroke-width: 0.8"/>
      </g>
     </g>
     <g id="text_4">
      <!-- 60 -->
      <g transform="translate(242.150125 302.816687)scale(0.1 -0.1)">
       <defs>
        <path id="DejaVuSans-36" d="M 2113 2584 
Q 1688 2584 1439 2293 
Q 1191 2003 1191 1497 
Q 1191 994 1439 701 
Q 1688 409 2113 409 
Q 2538 409 2786 701 
Q 3034 994 3034 1497 
Q 3034 2003 2786 2293 
Q 2538 2584 2113 2584 
z
M 3366 4563 
L 3366 3988 
Q 3128 4100 2886 4159 
Q 2644 4219 2406 4219 
Q 1781 4219 1451 3797 
Q 1122 3375 1075 2522 
Q 1259 2794 1537 2939 
Q 1816 3084 2150 3084 
Q 2853 3084 3261 2657 
Q 3669 2231 3669 1497 
Q 3669 778 3244 343 
Q 2819 -91 2113 -91 
Q 1303 -91 875 529 
Q 447 1150 447 2328 
Q 447 3434 972 4092 
Q 1497 4750 2381 4750 
Q 2619 4750 2861 4703 
Q 3103 4656 3366 4563 
z
" transform="scale(0.015625)"/>
       </defs>
       <use xlink:href="#DejaVuSans-36"/>
       <use xlink:href="#DejaVuSans-30" x="63.623047"/>
      </g>
     </g>
    </g>
    <g id="xtick_5">
     <g id="line2d_5">
      <g>
       <use xlink:href="#m8757c64a64" x="319.936625" y="288.21825" style="stroke: #000000; stroke-width: 0.8"/>
      </g>
     </g>
     <g id="text_5">
      <!-- 80 -->
      <g transform="translate(313.574125 302.816687)scale(0.1 -0.1)">
       <defs>
        <path id="DejaVuSans-38" d="M 2034 2216 
Q 1584 2216 1326 1975 
Q 1069 1734 1069 1313 
Q 1069 891 1326 650 
Q 1584 409 2034 409 
Q 2484 409 2743 651 
Q 3003 894 3003 1313 
Q 3003 1734 2745 1975 
Q 2488 2216 2034 2216 
z
M 1403 2484 
Q 997 2584 770 2862 
Q 544 3141 544 3541 
Q 544 4100 942 4425 
Q 1341 4750 2034 4750 
Q 2731 4750 3128 4425 
Q 3525 4100 3525 3541 
Q 3525 3141 3298 2862 
Q 3072 2584 2669 2484 
Q 3125 2378 3379 2068 
Q 3634 1759 3634 1313 
Q 3634 634 3220 271 
Q 2806 -91 2034 -91 
Q 1263 -91 848 271 
Q 434 634 434 1313 
Q 434 1759 690 2068 
Q 947 2378 1403 2484 
z
M 1172 3481 
Q 1172 3119 1398 2916 
Q 1625 2713 2034 2713 
Q 2441 2713 2670 2916 
Q 2900 3119 2900 3481 
Q 2900 3844 2670 4047 
Q 2441 4250 2034 4250 
Q 1625 4250 1398 4047 
Q 1172 3844 1172 3481 
z
" transform="scale(0.015625)"/>
       </defs>
       <use xlink:href="#DejaVuSans-38"/>
       <use xlink:href="#DejaVuSans-30" x="63.623047"/>
      </g>
     </g>
    </g>
    <g id="xtick_6">
     <g id="line2d_6">
      <g>
       <use xlink:href="#m8757c64a64" x="391.360625" y="288.21825" style="stroke: #000000; stroke-width: 0.8"/>
      </g>
     </g>
     <g id="text_6">
      <!-- 100 -->
      <g transform="translate(381.816875 302.816687)scale(0.1 -0.1)">
       <defs>
        <path id="DejaVuSans-31" d="M 794 531 
L 1825 531 
L 1825 4091 
L 703 3866 
L 703 4441 
L 1819 4666 
L 2450 4666 
L 2450 531 
L 3481 531 
L 3481 0 
L 794 0 
L 794 531 
z
" transform="scale(0.015625)"/>
       </defs>
       <use xlink:href="#DejaVuSans-31"/>
       <use xlink:href="#DejaVuSans-30" x="63.623047"/>
       <use xlink:href="#DejaVuSans-30" x="127.246094"/>
      </g>
     </g>
    </g>
    <g id="text_7">
     <!-- axialRotation -->
     <g transform="translate(180.024844 316.494812)scale(0.1 -0.1)">
      <defs>
       <path id="DejaVuSans-61" d="M 2194 1759 
Q 1497 1759 1228 1600 
Q 959 1441 959 1056 
Q 959 750 1161 570 
Q 1363 391 1709 391 
Q 2188 391 2477 730 
Q 2766 1069 2766 1631 
L 2766 1759 
L 2194 1759 
z
M 3341 1997 
L 3341 0 
L 2766 0 
L 2766 531 
Q 2569 213 2275 61 
Q 1981 -91 1556 -91 
Q 1019 -91 701 211 
Q 384 513 384 1019 
Q 384 1609 779 1909 
Q 1175 2209 1959 2209 
L 2766 2209 
L 2766 2266 
Q 2766 2663 2505 2880 
Q 2244 3097 1772 3097 
Q 1472 3097 1187 3025 
Q 903 2953 641 2809 
L 641 3341 
Q 956 3463 1253 3523 
Q 1550 3584 1831 3584 
Q 2591 3584 2966 3190 
Q 3341 2797 3341 1997 
z
" transform="scale(0.015625)"/>
       <path id="DejaVuSans-78" d="M 3513 3500 
L 2247 1797 
L 3578 0 
L 2900 0 
L 1881 1375 
L 863 0 
L 184 0 
L 1544 1831 
L 300 3500 
L 978 3500 
L 1906 2253 
L 2834 3500 
L 3513 3500 
z
" transform="scale(0.015625)"/>
       <path id="DejaVuSans-69" d="M 603 3500 
L 1178 3500 
L 1178 0 
L 603 0 
L 603 3500 
z
M 603 4863 
L 1178 4863 
L 1178 4134 
L 603 4134 
L 603 4863 
z
" transform="scale(0.015625)"/>
       <path id="DejaVuSans-6c" d="M 603 4863 
L 1178 4863 
L 1178 0 
L 603 0 
L 603 4863 
z
" transform="scale(0.015625)"/>
       <path id="DejaVuSans-52" d="M 2841 2188 
Q 3044 2119 3236 1894 
Q 3428 1669 3622 1275 
L 4263 0 
L 3584 0 
L 2988 1197 
Q 2756 1666 2539 1819 
Q 2322 1972 1947 1972 
L 1259 1972 
L 1259 0 
L 628 0 
L 628 4666 
L 2053 4666 
Q 2853 4666 3247 4331 
Q 3641 3997 3641 3322 
Q 3641 2881 3436 2590 
Q 3231 2300 2841 2188 
z
M 1259 4147 
L 1259 2491 
L 2053 2491 
Q 2509 2491 2742 2702 
Q 2975 2913 2975 3322 
Q 2975 3731 2742 3939 
Q 2509 4147 2053 4147 
L 1259 4147 
z
" transform="scale(0.015625)"/>
       <path id="DejaVuSans-6f" d="M 1959 3097 
Q 1497 3097 1228 2736 
Q 959 2375 959 1747 
Q 959 1119 1226 758 
Q 1494 397 1959 397 
Q 2419 397 2687 759 
Q 2956 1122 2956 1747 
Q 2956 2369 2687 2733 
Q 2419 3097 1959 3097 
z
M 1959 3584 
Q 2709 3584 3137 3096 
Q 3566 2609 3566 1747 
Q 3566 888 3137 398 
Q 2709 -91 1959 -91 
Q 1206 -91 779 398 
Q 353 888 353 1747 
Q 353 2609 779 3096 
Q 1206 3584 1959 3584 
z
" transform="scale(0.015625)"/>
       <path id="DejaVuSans-74" d="M 1172 4494 
L 1172 3500 
L 2356 3500 
L 2356 3053 
L 1172 3053 
L 1172 1153 
Q 1172 725 1289 603 
Q 1406 481 1766 481 
L 2356 481 
L 2356 0 
L 1766 0 
Q 1100 0 847 248 
Q 594 497 594 1153 
L 594 3053 
L 172 3053 
L 172 3500 
L 594 3500 
L 594 4494 
L 1172 4494 
z
" transform="scale(0.015625)"/>
       <path id="DejaVuSans-6e" d="M 3513 2113 
L 3513 0 
L 2938 0 
L 2938 2094 
Q 2938 2591 2744 2837 
Q 2550 3084 2163 3084 
Q 1697 3084 1428 2787 
Q 1159 2491 1159 1978 
L 1159 0 
L 581 0 
L 581 3500 
L 1159 3500 
L 1159 2956 
Q 1366 3272 1645 3428 
Q 1925 3584 2291 3584 
Q 2894 3584 3203 3211 
Q 3513 2838 3513 2113 
z
" transform="scale(0.015625)"/>
      </defs>
      <use xlink:href="#DejaVuSans-61"/>
      <use xlink:href="#DejaVuSans-78" x="61.279297"/>
      <use xlink:href="#DejaVuSans-69" x="120.458984"/>
      <use xlink:href="#DejaVuSans-61" x="148.242188"/>
      <use xlink:href="#DejaVuSans-6c" x="209.521484"/>
      <use xlink:href="#DejaVuSans-52" x="237.304688"/>
      <use xlink:href="#DejaVuSans-6f" x="302.287109"/>
      <use xlink:href="#DejaVuSans-74" x="363.46875"/>
      <use xlink:href="#DejaVuSans-61" x="402.677734"/>
      <use xlink:href="#DejaVuSans-74" x="463.957031"/>
      <use xlink:href="#DejaVuSans-69" x="503.166016"/>
      <use xlink:href="#DejaVuSans-6f" x="530.949219"/>
      <use xlink:href="#DejaVuSans-6e" x="592.130859"/>
     </g>
    </g>
   </g>
   <g id="matplotlib.axis_2">
    <g id="ytick_1">
     <g id="line2d_7">
      <defs>
       <path id="m3d0b92a521" d="M 0 0 
L -3.5 0 
" style="stroke: #000000; stroke-width: 0.8"/>
      </defs>
      <g>
       <use xlink:href="#m3d0b92a521" x="34.240625" y="288.21825" style="stroke: #000000; stroke-width: 0.8"/>
      </g>
     </g>
     <g id="text_8">
      <!-- 0 -->
      <g transform="translate(20.878125 292.017469)scale(0.1 -0.1)">
       <use xlink:href="#DejaVuSans-30"/>
      </g>
     </g>
    </g>
    <g id="ytick_2">
     <g id="line2d_8">
      <g>
       <use xlink:href="#m3d0b92a521" x="34.240625" y="243.86625" style="stroke: #000000; stroke-width: 0.8"/>
      </g>
     </g>
     <g id="text_9">
      <!-- 1 -->
      <g transform="translate(20.878125 247.665469)scale(0.1 -0.1)">
       <use xlink:href="#DejaVuSans-31"/>
      </g>
     </g>
    </g>
    <g id="ytick_3">
     <g id="line2d_9">
      <g>
       <use xlink:href="#m3d0b92a521" x="34.240625" y="199.51425" style="stroke: #000000; stroke-width: 0.8"/>
      </g>
     </g>
     <g id="text_10">
      <!-- 2 -->
      <g transform="translate(20.878125 203.313469)scale(0.1 -0.1)">
       <use xlink:href="#DejaVuSans-32"/>
      </g>
     </g>
    </g>
    <g id="ytick_4">
     <g id="line2d_10">
      <g>
       <use xlink:href="#m3d0b92a521" x="34.240625" y="155.16225" style="stroke: #000000; stroke-width: 0.8"/>
      </g>
     </g>
     <g id="text_11">
      <!-- 3 -->
      <g transform="translate(20.878125 158.961469)scale(0.1 -0.1)">
       <defs>
        <path id="DejaVuSans-33" d="M 2597 2516 
Q 3050 2419 3304 2112 
Q 3559 1806 3559 1356 
Q 3559 666 3084 287 
Q 2609 -91 1734 -91 
Q 1441 -91 1130 -33 
Q 819 25 488 141 
L 488 750 
Q 750 597 1062 519 
Q 1375 441 1716 441 
Q 2309 441 2620 675 
Q 2931 909 2931 1356 
Q 2931 1769 2642 2001 
Q 2353 2234 1838 2234 
L 1294 2234 
L 1294 2753 
L 1863 2753 
Q 2328 2753 2575 2939 
Q 2822 3125 2822 3475 
Q 2822 3834 2567 4026 
Q 2313 4219 1838 4219 
Q 1578 4219 1281 4162 
Q 984 4106 628 3988 
L 628 4550 
Q 988 4650 1302 4700 
Q 1616 4750 1894 4750 
Q 2613 4750 3031 4423 
Q 3450 4097 3450 3541 
Q 3450 3153 3228 2886 
Q 3006 2619 2597 2516 
z
" transform="scale(0.015625)"/>
       </defs>
       <use xlink:href="#DejaVuSans-33"/>
      </g>
     </g>
    </g>
    <g id="ytick_5">
     <g id="line2d_11">
      <g>
       <use xlink:href="#m3d0b92a521" x="34.240625" y="110.81025" style="stroke: #000000; stroke-width: 0.8"/>
      </g>
     </g>
     <g id="text_12">
      <!-- 4 -->
      <g transform="translate(20.878125 114.609469)scale(0.1 -0.1)">
       <use xlink:href="#DejaVuSans-34"/>
      </g>
     </g>
    </g>
    <g id="ytick_6">
     <g id="line2d_12">
      <g>
       <use xlink:href="#m3d0b92a521" x="34.240625" y="66.45825" style="stroke: #000000; stroke-width: 0.8"/>
      </g>
     </g>
     <g id="text_13">
      <!-- 5 -->
      <g transform="translate(20.878125 70.257469)scale(0.1 -0.1)">
       <defs>
        <path id="DejaVuSans-35" d="M 691 4666 
L 3169 4666 
L 3169 4134 
L 1269 4134 
L 1269 2991 
Q 1406 3038 1543 3061 
Q 1681 3084 1819 3084 
Q 2600 3084 3056 2656 
Q 3513 2228 3513 1497 
Q 3513 744 3044 326 
Q 2575 -91 1722 -91 
Q 1428 -91 1123 -41 
Q 819 9 494 109 
L 494 744 
Q 775 591 1075 516 
Q 1375 441 1709 441 
Q 2250 441 2565 725 
Q 2881 1009 2881 1497 
Q 2881 1984 2565 2268 
Q 2250 2553 1709 2553 
Q 1456 2553 1204 2497 
Q 953 2441 691 2322 
L 691 4666 
z
" transform="scale(0.015625)"/>
       </defs>
       <use xlink:href="#DejaVuSans-35"/>
      </g>
     </g>
    </g>
    <g id="ytick_7">
     <g id="line2d_13">
      <g>
       <use xlink:href="#m3d0b92a521" x="34.240625" y="22.10625" style="stroke: #000000; stroke-width: 0.8"/>
      </g>
     </g>
     <g id="text_14">
      <!-- 6 -->
      <g transform="translate(20.878125 25.905469)scale(0.1 -0.1)">
       <use xlink:href="#DejaVuSans-36"/>
      </g>
     </g>
    </g>
    <g id="text_15">
     <!-- zShift -->
     <g transform="translate(14.798438 169.151312)rotate(-90)scale(0.1 -0.1)">
      <defs>
       <path id="DejaVuSans-7a" d="M 353 3500 
L 3084 3500 
L 3084 2975 
L 922 459 
L 3084 459 
L 3084 0 
L 275 0 
L 275 525 
L 2438 3041 
L 353 3041 
L 353 3500 
z
" transform="scale(0.015625)"/>
       <path id="DejaVuSans-53" d="M 3425 4513 
L 3425 3897 
Q 3066 4069 2747 4153 
Q 2428 4238 2131 4238 
Q 1616 4238 1336 4038 
Q 1056 3838 1056 3469 
Q 1056 3159 1242 3001 
Q 1428 2844 1947 2747 
L 2328 2669 
Q 3034 2534 3370 2195 
Q 3706 1856 3706 1288 
Q 3706 609 3251 259 
Q 2797 -91 1919 -91 
Q 1588 -91 1214 -16 
Q 841 59 441 206 
L 441 856 
Q 825 641 1194 531 
Q 1563 422 1919 422 
Q 2459 422 2753 634 
Q 3047 847 3047 1241 
Q 3047 1584 2836 1778 
Q 2625 1972 2144 2069 
L 1759 2144 
Q 1053 2284 737 2584 
Q 422 2884 422 3419 
Q 422 4038 858 4394 
Q 1294 4750 2059 4750 
Q 2388 4750 2728 4690 
Q 3069 4631 3425 4513 
z
" transform="scale(0.015625)"/>
       <path id="DejaVuSans-68" d="M 3513 2113 
L 3513 0 
L 2938 0 
L 2938 2094 
Q 2938 2591 2744 2837 
Q 2550 3084 2163 3084 
Q 1697 3084 1428 2787 
Q 1159 2491 1159 1978 
L 1159 0 
L 581 0 
L 581 4863 
L 1159 4863 
L 1159 2956 
Q 1366 3272 1645 3428 
Q 1925 3584 2291 3584 
Q 2894 3584 3203 3211 
Q 3513 2838 3513 2113 
z
" transform="scale(0.015625)"/>
       <path id="DejaVuSans-66" d="M 2375 4863 
L 2375 4384 
L 1825 4384 
Q 1516 4384 1395 4259 
Q 1275 4134 1275 3809 
L 1275 3500 
L 2222 3500 
L 2222 3053 
L 1275 3053 
L 1275 0 
L 697 0 
L 697 3053 
L 147 3053 
L 147 3500 
L 697 3500 
L 697 3744 
Q 697 4328 969 4595 
Q 1241 4863 1831 4863 
L 2375 4863 
z
" transform="scale(0.015625)"/>
      </defs>
      <use xlink:href="#DejaVuSans-7a"/>
      <use xlink:href="#DejaVuSans-53" x="52.490234"/>
      <use xlink:href="#DejaVuSans-68" x="115.966797"/>
      <use xlink:href="#DejaVuSans-69" x="179.345703"/>
      <use xlink:href="#DejaVuSans-66" x="207.128906"/>
      <use xlink:href="#DejaVuSans-74" x="240.583984"/>
     </g>
    </g>
   </g>
   <g id="PathCollection_1"/>
   <g id="PathCollection_2">
    <path d="M 147.029724 288.21825 
L 146.787553 285.55713 
L 146.606896 282.89601 
L 146.473338 280.23489 
L 146.375772 277.57377 
L 146.305562 274.91265 
L 146.255965 272.25153 
L 146.221712 269.59041 
L 146.198686 266.92929 
L 146.181771 263.82465 
L 146.173017 261.16353 
L 146.167648 258.50241 
L 146.164376 255.84129 
L 146.162349 253.18017 
L 146.161066 250.51905 
L 146.160277 247.85793 
L 146.159865 245.19681 
L 146.159749 242.53569 
L 146.159827 239.87457 
L 146.159969 237.21345 
L 146.160053 234.55233 
L 146.160012 231.89121 
L 146.159858 229.23009 
L 146.159668 226.56897 
L 146.159543 223.90785 
L 146.159566 220.80321 
L 146.159716 218.14209 
L 146.159904 215.48097 
L 146.160028 212.81985 
L 146.16002 210.15873 
L 146.159885 207.49761 
L 146.159696 204.83649 
L 146.159555 202.17537 
L 146.159539 199.51425 
L 146.159657 196.85313 
L 146.159844 194.19201 
L 146.159999 191.53089 
L 146.160038 188.86977 
L 146.159941 186.20865 
L 146.159759 183.54753 
L 146.159591 180.88641 
L 146.159529 178.22529 
L 146.15963 175.12065 
L 146.159812 172.45953 
L 146.159979 169.79841 
L 146.160042 167.13729 
L 146.159965 164.47617 
L 146.159791 161.81505 
L 146.159614 159.15393 
L 146.159529 156.49281 
L 146.159584 153.83169 
L 146.159748 151.17057 
L 146.159932 148.50945 
L 146.160036 145.84833 
L 146.160005 143.18721 
L 146.159854 140.52609 
L 146.159667 137.86497 
L 146.159543 135.20385 
L 146.159566 132.09921 
L 146.159718 129.43809 
L 146.159908 126.77697 
L 146.160037 124.11585 
L 146.160041 121.45473 
L 146.159931 118.79361 
L 146.159793 116.13249 
L 146.159757 113.47137 
L 146.159946 110.81025 
L 146.160453 108.14913 
L 146.161363 105.48801 
L 146.162817 102.82689 
L 146.165124 100.16577 
L 146.168869 97.50465 
L 146.175016 94.84353 
L 146.184981 92.18241 
L 146.200698 89.52129 
L 146.229726 86.41665 
L 146.267576 83.75553 
L 146.321918 81.09441 
L 146.398246 78.43329 
L 146.503538 75.77217 
L 146.646658 73.11105 
L 146.838936 70.44993 
L 147.095002 67.78881 
L 147.304817 66.095899 
L 147.399036 65.12769 
L 147.724898 62.46657 
L 148.154306 59.80545 
L 148.722063 57.14433 
L 149.090417 55.748772 
L 149.398101 54.48321 
L 150.201666 51.82209 
L 150.876017 50.054221 
L 151.235491 49.16097 
L 152.526474 46.49985 
L 152.697329 46.181601 
L 154.482929 43.504078 
L 154.580245 43.39521 
L 156.268529 41.490304 
L 157.167367 40.73409 
L 158.054129 39.915724 
L 159.875441 38.346467 
L 160.128372 38.07297 
L 161.661041 35.977547 
L 161.926121 35.41185 
L 162.893821 32.75073 
L 163.446641 30.826578 
L 163.587771 30.08961 
L 164.023881 27.42849 
L 164.431777 24.76737 
L 164.852101 22.10625 
" clip-path="url(#p3e3b7ec9aa)" style="fill: none; stroke: #dbe9f6; stroke-width: 1.5"/>
    <path d="M 260.725301 22.10625 
L 260.96556 24.76737 
L 261.146341 27.42849 
L 261.282764 30.08961 
L 261.38725 32.75073 
L 261.470643 35.41185 
L 261.543164 38.07297 
L 261.615344 40.73409 
L 261.698983 43.39521 
L 261.83013 46.49985 
L 261.992171 49.16097 
L 262.154609 51.026546 
L 262.261589 51.82209 
L 262.776133 54.48321 
L 263.535127 57.14433 
L 263.940209 58.14841 
L 265.090575 59.80545 
L 265.725809 60.486174 
L 267.547121 61.872947 
L 268.307252 62.46657 
L 269.332721 63.177739 
L 271.118321 64.906072 
L 271.292287 65.12769 
L 272.903921 67.303175 
L 273.185647 67.78881 
L 274.533439 70.44993 
L 274.725233 70.897143 
L 275.591821 73.11105 
L 276.381282 75.77217 
L 276.510833 76.298441 
L 277.068529 78.43329 
L 277.603413 81.09441 
L 278.004598 83.75553 
L 278.296433 86.323135 
L 278.309634 86.41665 
L 278.660386 89.52129 
L 278.880114 92.18241 
L 279.043598 94.84353 
L 279.164025 97.50465 
L 279.251594 100.16577 
L 279.314249 102.82689 
L 279.358199 105.48801 
L 279.388296 108.14913 
L 279.408328 110.81025 
L 279.421246 113.47137 
L 279.429324 116.13249 
L 279.434266 118.79361 
L 279.437281 121.45473 
L 279.439158 124.11585 
L 279.440346 126.77697 
L 279.441065 129.43809 
L 279.441422 132.09921 
L 279.44149 135.20385 
L 279.441377 137.86497 
L 279.441242 140.52609 
L 279.441195 143.18721 
L 279.441279 145.84833 
L 279.441457 148.50945 
L 279.441635 151.17057 
L 279.44172 153.83169 
L 279.441666 156.49281 
L 279.441502 159.15393 
L 279.441318 161.81505 
L 279.441214 164.47617 
L 279.441245 167.13729 
L 279.441396 169.79841 
L 279.441583 172.45953 
L 279.441707 175.12065 
L 279.441684 178.22529 
L 279.441532 180.88641 
L 279.441342 183.54753 
L 279.441213 186.20865 
L 279.441209 188.86977 
L 279.441319 191.53089 
L 279.441457 194.19201 
L 279.441493 196.85313 
L 279.441304 199.51425 
L 279.440797 202.17537 
L 279.439887 204.83649 
L 279.438433 207.49761 
L 279.436126 210.15873 
L 279.432381 212.81985 
L 279.426234 215.48097 
L 279.416269 218.14209 
L 279.400552 220.80321 
L 279.371524 223.90785 
L 279.333674 226.56897 
L 279.279332 229.23009 
L 279.203004 231.89121 
L 279.097712 234.55233 
L 278.954592 237.21345 
L 278.762314 239.87457 
L 278.506248 242.53569 
L 278.296433 244.228601 
L 278.202214 245.19681 
L 277.876352 247.85793 
L 277.446944 250.51905 
L 276.879187 253.18017 
L 276.510833 254.575728 
L 276.203149 255.84129 
L 275.399584 258.50241 
L 274.725233 260.270279 
L 274.365759 261.16353 
L 273.074776 263.82465 
L 272.903921 264.142899 
L 271.118321 266.820422 
L 271.021005 266.92929 
L 269.332721 268.834196 
L 268.433883 269.59041 
L 267.547121 270.408776 
L 265.725809 271.978033 
L 265.472878 272.25153 
L 263.940209 274.346953 
L 263.675129 274.91265 
L 262.707429 277.57377 
L 262.154609 279.497922 
L 262.013479 280.23489 
L 261.577369 282.89601 
L 261.169473 285.55713 
L 260.749149 288.21825 
" clip-path="url(#p3e3b7ec9aa)" style="fill: none; stroke: #dbe9f6; stroke-width: 1.5"/>
   </g>
   <g id="PathCollection_3">
    <path d="M 150.053321 288.21825 
L 149.758356 285.55713 
L 149.538497 282.89601 
L 149.376029 280.23489 
L 149.257346 277.57377 
L 149.171906 274.91265 
L 149.111499 272.25153 
L 149.090417 270.91576 
L 149.064763 269.59041 
L 149.029873 266.92929 
L 149.004172 263.82465 
L 148.990837 261.16353 
L 148.982646 258.50241 
L 148.977656 255.84129 
L 148.97457 253.18017 
L 148.972619 250.51905 
L 148.971413 247.85793 
L 148.970769 245.19681 
L 148.970569 242.53569 
L 148.970667 239.87457 
L 148.970874 237.21345 
L 148.97101 234.55233 
L 148.970966 231.89121 
L 148.970749 229.23009 
L 148.970469 226.56897 
L 148.970274 223.90785 
L 148.970288 220.80321 
L 148.970498 218.14209 
L 148.970775 215.48097 
L 148.970968 212.81985 
L 148.970974 210.15873 
L 148.970788 207.49761 
L 148.970511 204.83649 
L 148.970294 202.17537 
L 148.970254 199.51425 
L 148.970413 196.85313 
L 148.970685 194.19201 
L 148.970921 191.53089 
L 148.970995 188.86977 
L 148.970866 186.20865 
L 148.970604 183.54753 
L 148.970351 180.88641 
L 148.970244 178.22529 
L 148.970375 175.12065 
L 148.970638 172.45953 
L 148.970891 169.79841 
L 148.970997 167.13729 
L 148.9709 164.47617 
L 148.970652 161.81505 
L 148.970386 159.15393 
L 148.970248 156.49281 
L 148.970312 153.83169 
L 148.970543 151.17057 
L 148.970817 148.50945 
L 148.970984 145.84833 
L 148.970954 143.18721 
L 148.970744 140.52609 
L 148.970467 137.86497 
L 148.970274 135.20385 
L 148.970288 132.09921 
L 148.9705 129.43809 
L 148.97078 126.77697 
L 148.970981 124.11585 
L 148.971002 121.45473 
L 148.970851 118.79361 
L 148.970646 116.13249 
L 148.970574 113.47137 
L 148.970819 110.81025 
L 148.971522 108.14913 
L 148.972803 105.48801 
L 148.974859 102.82689 
L 148.978117 100.16577 
L 148.983397 97.50465 
L 148.992063 94.84353 
L 149.006137 92.18241 
L 149.028389 89.52129 
L 149.069604 86.41665 
L 149.090417 85.382256 
L 149.117044 83.75553 
L 149.179423 81.09441 
L 149.26711 78.43329 
L 149.388105 75.77217 
L 149.552545 73.11105 
L 149.773327 70.44993 
L 150.067036 67.78881 
L 150.455332 65.12769 
L 150.876017 62.906814 
L 150.956645 62.46657 
L 151.552384 59.80545 
L 152.336291 57.14433 
L 152.697329 56.130309 
L 153.364786 54.48321 
L 154.482929 52.228578 
L 154.747223 51.82209 
L 156.268529 49.709955 
L 156.859281 49.16097 
L 158.054129 48.054364 
L 159.875441 46.922604 
L 160.675958 46.49985 
L 161.661041 45.882866 
L 163.446641 44.23908 
L 163.947477 43.39521 
L 165.120015 40.73409 
L 165.232241 40.403157 
L 165.745906 38.07297 
L 166.216284 35.41185 
L 166.615866 32.75073 
L 166.984414 30.08961 
L 167.053553 29.587362 
L 167.295579 27.42849 
L 167.624148 24.76737 
L 168.01166 22.10625 
" clip-path="url(#p3e3b7ec9aa)" style="fill: none; stroke: #bad6eb; stroke-width: 1.5"/>
    <path d="M 257.691905 22.10625 
L 257.984629 24.76737 
L 258.203384 27.42849 
L 258.366081 30.08961 
L 258.486776 32.75073 
L 258.547697 34.539331 
L 258.583688 35.41185 
L 258.668964 38.07297 
L 258.738674 40.73409 
L 258.802632 43.39521 
L 258.883343 46.49985 
L 258.970317 49.16097 
L 259.087235 51.82209 
L 259.249772 54.48321 
L 259.477834 57.14433 
L 259.797895 59.80545 
L 260.246944 62.46657 
L 260.369009 63.01548 
L 261.154141 65.12769 
L 262.154609 66.988779 
L 263.038076 67.78881 
L 263.940209 68.41645 
L 265.725809 69.167765 
L 267.547121 70.048722 
L 268.071924 70.44993 
L 269.332721 71.400651 
L 270.726026 73.11105 
L 271.118321 73.639614 
L 272.255603 75.77217 
L 272.903921 77.257398 
L 273.337502 78.43329 
L 274.134349 81.09441 
L 274.725233 83.725063 
L 274.732049 83.75553 
L 275.229913 86.41665 
L 275.656899 89.52129 
L 275.924154 92.18241 
L 276.122908 94.84353 
L 276.269296 97.50465 
L 276.375767 100.16577 
L 276.451997 102.82689 
L 276.505526 105.48801 
L 276.510833 105.869554 
L 276.549771 108.14913 
L 276.580141 110.81025 
L 276.599777 113.47137 
L 276.612083 116.13249 
L 276.61962 118.79361 
L 276.624216 121.45473 
L 276.627071 124.11585 
L 276.628878 126.77697 
L 276.629981 129.43809 
L 276.630542 132.09921 
L 276.630673 135.20385 
L 276.630517 137.86497 
L 276.630315 140.52609 
L 276.630233 143.18721 
L 276.630341 145.84833 
L 276.630595 148.50945 
L 276.630862 151.17057 
L 276.631001 153.83169 
L 276.630938 156.49281 
L 276.630706 159.15393 
L 276.630433 161.81505 
L 276.630266 164.47617 
L 276.630296 167.13729 
L 276.630506 169.79841 
L 276.630783 172.45953 
L 276.630976 175.12065 
L 276.630962 178.22529 
L 276.63075 180.88641 
L 276.63047 183.54753 
L 276.630269 186.20865 
L 276.630248 188.86977 
L 276.630399 191.53089 
L 276.630604 194.19201 
L 276.630676 196.85313 
L 276.630431 199.51425 
L 276.629728 202.17537 
L 276.628447 204.83649 
L 276.626391 207.49761 
L 276.623133 210.15873 
L 276.617853 212.81985 
L 276.609187 215.48097 
L 276.595113 218.14209 
L 276.572861 220.80321 
L 276.531646 223.90785 
L 276.510833 224.942244 
L 276.484206 226.56897 
L 276.421827 229.23009 
L 276.33414 231.89121 
L 276.213145 234.55233 
L 276.048705 237.21345 
L 275.827923 239.87457 
L 275.534214 242.53569 
L 275.145918 245.19681 
L 274.725233 247.417686 
L 274.644605 247.85793 
L 274.048866 250.51905 
L 273.264959 253.18017 
L 272.903921 254.194191 
L 272.236464 255.84129 
L 271.118321 258.095922 
L 270.854027 258.50241 
L 269.332721 260.614545 
L 268.741969 261.16353 
L 267.547121 262.270136 
L 265.725809 263.401896 
L 264.925292 263.82465 
L 263.940209 264.441634 
L 262.154609 266.08542 
L 261.653773 266.92929 
L 260.481235 269.59041 
L 260.369009 269.921343 
L 259.855344 272.25153 
L 259.384966 274.91265 
L 258.985384 277.57377 
L 258.616836 280.23489 
L 258.547697 280.737138 
L 258.305671 282.89601 
L 257.977102 285.55713 
L 257.58959 288.21825 
" clip-path="url(#p3e3b7ec9aa)" style="fill: none; stroke: #bad6eb; stroke-width: 1.5"/>
   </g>
   <g id="PathCollection_4">
    <path d="M 152.452638 288.21825 
L 152.04839 285.55713 
L 151.747097 282.89601 
L 151.524412 280.23489 
L 151.361673 277.57377 
L 151.244434 274.91265 
L 151.161462 272.25153 
L 151.104006 269.59041 
L 151.065249 266.92929 
L 151.036654 263.82465 
L 151.021791 261.16353 
L 151.012655 258.50241 
L 151.007091 255.84129 
L 151.003654 253.18017 
L 151.001484 250.51905 
L 151.000136 247.85793 
L 150.999406 245.19681 
L 150.999165 242.53569 
L 150.999256 239.87457 
L 150.99948 237.21345 
L 150.999636 234.55233 
L 150.999601 231.89121 
L 150.999375 229.23009 
L 150.999072 226.56897 
L 150.998851 223.90785 
L 150.99885 220.80321 
L 150.999068 218.14209 
L 150.999368 215.48097 
L 150.999587 212.81985 
L 150.999606 210.15873 
L 150.999416 207.49761 
L 150.999118 204.83649 
L 150.998875 202.17537 
L 150.998818 199.51425 
L 150.998979 196.85313 
L 150.999269 194.19201 
L 150.999532 191.53089 
L 150.999625 188.86977 
L 150.999498 186.20865 
L 150.999219 183.54753 
L 150.99894 180.88641 
L 150.998812 178.22529 
L 150.998939 175.12065 
L 150.999218 172.45953 
L 150.999497 169.79841 
L 150.999625 167.13729 
L 150.999533 164.47617 
L 150.99927 161.81505 
L 150.99898 159.15393 
L 150.998818 156.49281 
L 150.998874 153.83169 
L 150.999117 151.17057 
L 150.999414 148.50945 
L 150.999606 145.84833 
L 150.999588 143.18721 
L 150.999369 140.52609 
L 150.999069 137.86497 
L 150.998851 135.20385 
L 150.998851 132.09921 
L 150.99907 129.43809 
L 150.999374 126.77697 
L 150.9996 124.11585 
L 150.999636 121.45473 
L 150.99948 118.79361 
L 150.999257 116.13249 
L 150.999164 113.47137 
L 150.999403 110.81025 
L 151.000129 108.14913 
L 151.001472 105.48801 
L 151.003635 102.82689 
L 151.007057 100.16577 
L 151.012595 97.50465 
L 151.021683 94.84353 
L 151.036456 92.18241 
L 151.059851 89.52129 
L 151.103252 86.41665 
L 151.16005 83.75553 
L 151.241803 81.09441 
L 151.356825 78.43329 
L 151.515627 75.77217 
L 151.731497 73.11105 
L 152.021299 70.44993 
L 152.406648 67.78881 
L 152.697329 66.223735 
L 152.9161 65.12769 
L 153.584844 62.46657 
L 154.459452 59.80545 
L 154.482929 59.744244 
L 155.765043 57.14433 
L 156.268529 56.28049 
L 157.872746 54.48321 
L 158.054129 54.293239 
L 159.875441 53.207747 
L 161.661041 52.676653 
L 163.446641 52.173028 
L 163.986414 51.82209 
L 165.232241 50.803482 
L 166.081095 49.16097 
L 167.053553 46.575047 
L 167.070916 46.49985 
L 167.67139 43.39521 
L 168.07744 40.73409 
L 168.419194 38.07297 
L 168.725278 35.41185 
L 168.839153 34.393421 
L 169.000585 32.75073 
L 169.278687 30.08961 
L 169.595937 27.42849 
L 169.977742 24.76737 
L 170.45401 22.10625 
" clip-path="url(#p3e3b7ec9aa)" style="fill: none; stroke: #89bedc; stroke-width: 1.5"/>
    <path d="M 255.293033 22.10625 
L 255.696646 24.76737 
L 255.997782 27.42849 
L 256.220958 30.08961 
L 256.385153 32.75073 
L 256.50533 35.41185 
L 256.593538 38.07297 
L 256.659746 40.73409 
L 256.712522 43.39521 
L 256.762097 46.199573 
L 256.76801 46.49985 
L 256.823555 49.16097 
L 256.890947 51.82209 
L 256.979204 54.48321 
L 257.098422 57.14433 
L 257.260428 59.80545 
L 257.47972 62.46657 
L 257.774831 65.12769 
L 258.17031 67.78881 
L 258.547697 69.733142 
L 258.77225 70.44993 
L 259.913628 73.11105 
L 260.369009 73.895566 
L 262.154609 74.999229 
L 263.940209 75.233365 
L 265.725809 75.487462 
L 266.375328 75.77217 
L 267.547121 76.278872 
L 269.332721 77.978912 
L 269.626552 78.43329 
L 271.088977 81.09441 
L 271.118321 81.158232 
L 272.01765 83.75553 
L 272.712339 86.41665 
L 272.903921 87.359118 
L 273.29984 89.52129 
L 273.665351 92.18241 
L 273.937287 94.84353 
L 274.137687 97.50465 
L 274.283549 100.16577 
L 274.38808 102.82689 
L 274.461573 105.48801 
L 274.512054 108.14913 
L 274.545781 110.81025 
L 274.567623 113.47137 
L 274.581332 116.13249 
L 274.589735 118.79361 
L 274.594857 121.45473 
L 274.598033 124.11585 
L 274.600042 126.77697 
L 274.601276 129.43809 
L 274.601915 132.09921 
L 274.602083 135.20385 
L 274.601923 137.86497 
L 274.601703 140.52609 
L 274.601602 143.18721 
L 274.601707 145.84833 
L 274.601975 148.50945 
L 274.602269 151.17057 
L 274.602431 153.83169 
L 274.602375 156.49281 
L 274.602133 159.15393 
L 274.601836 161.81505 
L 274.601644 164.47617 
L 274.601662 167.13729 
L 274.601881 169.79841 
L 274.602181 172.45953 
L 274.602399 175.12065 
L 274.602399 178.22529 
L 274.60218 180.88641 
L 274.601876 183.54753 
L 274.60165 186.20865 
L 274.601614 188.86977 
L 274.60177 191.53089 
L 274.601993 194.19201 
L 274.602086 196.85313 
L 274.601847 199.51425 
L 274.601121 202.17537 
L 274.599778 204.83649 
L 274.597615 207.49761 
L 274.594193 210.15873 
L 274.588655 212.81985 
L 274.579567 215.48097 
L 274.564794 218.14209 
L 274.541399 220.80321 
L 274.497998 223.90785 
L 274.4412 226.56897 
L 274.359447 229.23009 
L 274.244425 231.89121 
L 274.085623 234.55233 
L 273.869753 237.21345 
L 273.579951 239.87457 
L 273.194602 242.53569 
L 272.903921 244.100765 
L 272.68515 245.19681 
L 272.016406 247.85793 
L 271.141798 250.51905 
L 271.118321 250.580256 
L 269.836207 253.18017 
L 269.332721 254.04401 
L 267.728504 255.84129 
L 267.547121 256.031261 
L 265.725809 257.116753 
L 263.940209 257.647847 
L 262.154609 258.151472 
L 261.614836 258.50241 
L 260.369009 259.521018 
L 259.520155 261.16353 
L 258.547697 263.749453 
L 258.530334 263.82465 
L 257.92986 266.92929 
L 257.52381 269.59041 
L 257.182056 272.25153 
L 256.875972 274.91265 
L 256.762097 275.931079 
L 256.600665 277.57377 
L 256.322563 280.23489 
L 256.005313 282.89601 
L 255.623508 285.55713 
L 255.14724 288.21825 
" clip-path="url(#p3e3b7ec9aa)" style="fill: none; stroke: #89bedc; stroke-width: 1.5"/>
   </g>
   <g id="PathCollection_5">
    <path d="M 154.880487 288.21825 
L 154.482929 286.680535 
L 154.255959 285.55713 
L 153.840295 282.89601 
L 153.533216 280.23489 
L 153.308833 277.57377 
L 153.147159 274.91265 
L 153.032682 272.25153 
L 152.953343 269.59041 
L 152.89976 266.92929 
L 152.860165 263.82465 
L 152.839553 261.16353 
L 152.82687 258.50241 
L 152.819146 255.84129 
L 152.814383 253.18017 
L 152.811376 250.51905 
L 152.809504 247.85793 
L 152.808477 245.19681 
L 152.80812 242.53569 
L 152.808226 239.87457 
L 152.808526 237.21345 
L 152.808747 234.55233 
L 152.808715 231.89121 
L 152.808421 229.23009 
L 152.808011 226.56897 
L 152.807702 223.90785 
L 152.807682 220.80321 
L 152.807965 218.14209 
L 152.80837 215.48097 
L 152.808677 212.81985 
L 152.80872 210.15873 
L 152.808474 207.49761 
L 152.808074 204.83649 
L 152.807737 202.17537 
L 152.807644 199.51425 
L 152.807847 196.85313 
L 152.808235 194.19201 
L 152.808598 191.53089 
L 152.80874 188.86977 
L 152.808583 186.20865 
L 152.808212 183.54753 
L 152.807829 180.88641 
L 152.807641 178.22529 
L 152.807795 175.12065 
L 152.808166 172.45953 
L 152.808549 169.79841 
L 152.808737 167.13729 
L 152.808628 164.47617 
L 152.808281 161.81505 
L 152.807884 159.15393 
L 152.807653 156.49281 
L 152.807712 153.83169 
L 152.80803 151.17057 
L 152.808434 148.50945 
L 152.808705 145.84833 
L 152.808697 143.18721 
L 152.808413 140.52609 
L 152.808008 137.86497 
L 152.807701 135.20385 
L 152.807682 132.09921 
L 152.807968 129.43809 
L 152.808377 126.77697 
L 152.808694 124.11585 
L 152.808758 121.45473 
L 152.808558 118.79361 
L 152.808255 116.13249 
L 152.808112 113.47137 
L 152.808404 110.81025 
L 152.809346 108.14913 
L 152.811108 105.48801 
L 152.813956 102.82689 
L 152.818459 100.16577 
L 152.825737 97.50465 
L 152.837678 94.84353 
L 152.857105 92.18241 
L 152.887915 89.52129 
L 152.945161 86.41665 
L 153.02017 83.75553 
L 153.128208 81.09441 
L 153.280253 78.43329 
L 153.49013 75.77217 
L 153.775239 73.11105 
L 154.157549 70.44993 
L 154.482929 68.710852 
L 154.695952 67.78881 
L 155.473931 65.12769 
L 156.268529 63.003215 
L 156.578183 62.46657 
L 158.054129 60.297355 
L 158.78251 59.80545 
L 159.875441 59.113477 
L 161.661041 58.941419 
L 163.446641 59.298592 
L 165.232241 59.505306 
L 167.053553 58.141267 
L 167.457137 57.14433 
L 168.343949 54.48321 
L 168.839153 52.559057 
L 168.965708 51.82209 
L 169.372239 49.16097 
L 169.713497 46.49985 
L 170.049756 43.39521 
L 170.303125 40.73409 
L 170.541694 38.07297 
L 170.624753 37.163823 
L 170.783103 35.41185 
L 171.048154 32.75073 
L 171.358053 30.08961 
L 171.737304 27.42849 
L 172.215316 24.76737 
L 172.410353 23.887317 
L 172.906314 22.10625 
" clip-path="url(#p3e3b7ec9aa)" style="fill: none; stroke: #539ecd; stroke-width: 1.5"/>
    <path d="M 252.869148 22.10625 
L 253.190897 23.322532 
L 253.486323 24.76737 
L 253.903945 27.42849 
L 254.212847 30.08961 
L 254.439265 32.75073 
L 254.603637 35.41185 
L 254.722093 38.07297 
L 254.807563 40.73409 
L 254.870628 43.39521 
L 254.927719 46.49985 
L 254.971339 49.16097 
L 254.976497 49.460549 
L 255.016857 51.82209 
L 255.071365 54.48321 
L 255.141306 57.14433 
L 255.233157 59.80545 
L 255.353812 62.46657 
L 255.510926 65.12769 
L 255.713237 67.78881 
L 255.970777 70.44993 
L 256.294848 73.11105 
L 256.697617 75.77217 
L 256.762097 76.147801 
L 257.379008 78.43329 
L 258.352269 81.09441 
L 258.547697 81.545482 
L 260.369009 82.647692 
L 262.154609 82.154759 
L 263.940209 81.501253 
L 265.725809 81.387639 
L 267.547121 82.290769 
L 268.697303 83.75553 
L 269.332721 84.711676 
L 270.022509 86.41665 
L 270.979082 89.52129 
L 271.118321 90.112492 
L 271.503791 92.18241 
L 271.87754 94.84353 
L 272.153081 97.50465 
L 272.353735 100.16577 
L 272.497629 102.82689 
L 272.598888 105.48801 
L 272.668522 108.14913 
L 272.715112 110.81025 
L 272.745332 113.47137 
L 272.764328 116.13249 
L 272.775981 118.79361 
L 272.783081 121.45473 
L 272.787478 124.11585 
L 272.790259 126.77697 
L 272.791974 129.43809 
L 272.792876 132.09921 
L 272.793134 135.20385 
L 272.792931 137.86497 
L 272.79263 140.52609 
L 272.792481 143.18721 
L 272.792608 145.84833 
L 272.792963 148.50945 
L 272.793363 151.17057 
L 272.793596 153.83169 
L 272.793538 156.49281 
L 272.79322 159.15393 
L 272.792816 161.81505 
L 272.792545 164.47617 
L 272.792553 167.13729 
L 272.792837 169.79841 
L 272.793242 172.45953 
L 272.793549 175.12065 
L 272.793568 178.22529 
L 272.793282 180.88641 
L 272.792873 183.54753 
L 272.792556 186.20865 
L 272.792492 188.86977 
L 272.792692 191.53089 
L 272.792995 194.19201 
L 272.793138 196.85313 
L 272.792846 199.51425 
L 272.791904 202.17537 
L 272.790142 204.83649 
L 272.787294 207.49761 
L 272.782791 210.15873 
L 272.775513 212.81985 
L 272.763572 215.48097 
L 272.744145 218.14209 
L 272.713335 220.80321 
L 272.656089 223.90785 
L 272.58108 226.56897 
L 272.473042 229.23009 
L 272.320997 231.89121 
L 272.11112 234.55233 
L 271.826011 237.21345 
L 271.443701 239.87457 
L 271.118321 241.613648 
L 270.905298 242.53569 
L 270.127319 245.19681 
L 269.332721 247.321285 
L 269.023067 247.85793 
L 267.547121 250.027145 
L 266.81874 250.51905 
L 265.725809 251.211023 
L 263.940209 251.383081 
L 262.154609 251.025908 
L 260.369009 250.819194 
L 258.547697 252.183233 
L 258.144113 253.18017 
L 257.257301 255.84129 
L 256.762097 257.765443 
L 256.635542 258.50241 
L 256.229011 261.16353 
L 255.887753 263.82465 
L 255.551494 266.92929 
L 255.298125 269.59041 
L 255.059556 272.25153 
L 254.976497 273.160677 
L 254.818147 274.91265 
L 254.553096 277.57377 
L 254.243197 280.23489 
L 253.863946 282.89601 
L 253.385934 285.55713 
L 253.190897 286.437183 
L 252.694936 288.21825 
" clip-path="url(#p3e3b7ec9aa)" style="fill: none; stroke: #539ecd; stroke-width: 1.5"/>
   </g>
   <g id="PathCollection_6">
    <path d="M 159.467243 288.21825 
L 158.054129 287.328034 
L 157.197146 285.55713 
L 156.268529 283.027588 
L 156.238777 282.89601 
L 155.772037 280.23489 
L 155.431242 277.57377 
L 155.18577 274.91265 
L 155.011941 272.25153 
L 154.8914 269.59041 
L 154.809912 266.92929 
L 154.749611 263.82465 
L 154.718172 261.16353 
L 154.698807 258.50241 
L 154.687017 255.84129 
L 154.679755 253.18017 
L 154.675176 250.51905 
L 154.672316 247.85793 
L 154.67073 245.19681 
L 154.670152 242.53569 
L 154.670281 239.87457 
L 154.670722 237.21345 
L 154.671065 234.55233 
L 154.671041 231.89121 
L 154.670622 229.23009 
L 154.670014 226.56897 
L 154.66954 223.90785 
L 154.66948 220.80321 
L 154.669883 218.14209 
L 154.670483 215.48097 
L 154.670955 212.81985 
L 154.671042 210.15873 
L 154.670698 207.49761 
L 154.670109 204.83649 
L 154.669594 202.17537 
L 154.669433 199.51425 
L 154.669712 196.85313 
L 154.670281 194.19201 
L 154.670831 191.53089 
L 154.671064 188.86977 
L 154.670854 186.20865 
L 154.670314 183.54753 
L 154.669738 180.88641 
L 154.669437 178.22529 
L 154.669639 175.12065 
L 154.670178 172.45953 
L 154.670754 169.79841 
L 154.671055 167.13729 
L 154.670917 164.47617 
L 154.670416 161.81505 
L 154.669822 159.15393 
L 154.669458 156.49281 
L 154.669521 153.83169 
L 154.669977 151.17057 
L 154.670579 148.50945 
L 154.671 145.84833 
L 154.671013 143.18721 
L 154.670609 140.52609 
L 154.670009 137.86497 
L 154.669538 135.20385 
L 154.669481 132.09921 
L 154.669887 129.43809 
L 154.670493 126.77697 
L 154.670978 124.11585 
L 154.671096 121.45473 
L 154.670817 118.79361 
L 154.670365 116.13249 
L 154.670128 113.47137 
L 154.670516 110.81025 
L 154.67185 108.14913 
L 154.674386 105.48801 
L 154.678499 102.82689 
L 154.684995 100.16577 
L 154.695477 97.50465 
L 154.712667 94.84353 
L 154.740658 92.18241 
L 154.785106 89.52129 
L 154.867801 86.41665 
L 154.976236 83.75553 
L 155.132434 81.09441 
L 155.352118 78.43329 
L 155.654941 75.77217 
L 156.065401 73.11105 
L 156.268529 72.101178 
L 156.778247 70.44993 
L 157.834181 67.78881 
L 158.054129 67.338544 
L 159.875441 65.77622 
L 161.661041 66.07262 
L 163.446641 67.755783 
L 163.476007 67.78881 
L 165.130538 70.44993 
L 165.232241 70.694483 
L 166.830982 73.11105 
L 167.053553 73.674767 
L 167.55208 73.11105 
L 168.839153 71.472288 
L 169.009551 70.44993 
L 169.485594 67.78881 
L 169.946588 65.12769 
L 170.375083 62.46657 
L 170.624753 60.806503 
L 170.738348 59.80545 
L 171.036029 57.14433 
L 171.310207 54.48321 
L 171.558459 51.82209 
L 171.782181 49.16097 
L 171.986047 46.49985 
L 172.208838 43.39521 
L 172.398407 40.73409 
L 172.410353 40.578751 
L 172.634627 38.07297 
L 172.906903 35.41185 
L 173.234665 32.75073 
L 173.644231 30.08961 
L 174.167777 27.42849 
L 174.231665 27.167831 
L 175.170135 24.76737 
L 176.017265 23.052299 
L 177.410392 22.10625 
" clip-path="url(#p3e3b7ec9aa)" style="fill: none; stroke: #2b7bba; stroke-width: 1.5"/>
    <path d="M 174.856228 288.21825 
L 174.231665 287.624986 
L 172.933945 285.55713 
L 172.410353 284.488475 
L 171.644646 282.89601 
L 170.67141 280.23489 
L 170.624753 280.066358 
L 169.464167 277.57377 
L 168.839153 275.756281 
L 167.053553 276.313661 
L 166.673196 277.57377 
L 165.572642 280.23489 
L 165.232241 280.855971 
L 164.454542 282.89601 
L 163.446641 284.905727 
L 163.067512 285.55713 
L 161.661041 287.482439 
L 160.330543 288.21825 
" clip-path="url(#p3e3b7ec9aa)" style="fill: none; stroke: #2b7bba; stroke-width: 1.5"/>
    <path d="M 178.349934 22.10625 
L 179.588465 22.718239 
L 181.086499 24.76737 
L 181.409777 25.329207 
L 182.435874 27.42849 
L 183.195377 29.476699 
L 183.521653 30.08961 
L 184.601086 32.75073 
L 184.980977 34.019364 
L 186.766577 34.54509 
L 187.384468 32.75073 
L 188.587889 30.213821 
L 188.62318 30.08961 
L 189.622571 27.42849 
L 190.373489 25.910224 
L 190.944305 24.76737 
L 192.159089 22.850059 
L 192.913508 22.10625 
" clip-path="url(#p3e3b7ec9aa)" style="fill: none; stroke: #2b7bba; stroke-width: 1.5"/>
    <path d="M 192.704045 288.21825 
L 192.159089 287.718909 
L 190.78695 285.55713 
L 190.373489 284.724435 
L 189.501643 282.89601 
L 188.587889 280.369608 
L 188.509368 280.23489 
L 187.319245 277.57377 
L 186.766577 275.898717 
L 184.980977 276.282784 
L 184.588003 277.57377 
L 183.477239 280.23489 
L 183.195377 280.745163 
L 182.404606 282.89601 
L 181.409777 284.946404 
L 181.092386 285.55713 
L 179.588465 287.842679 
L 179.149943 288.21825 
" clip-path="url(#p3e3b7ec9aa)" style="fill: none; stroke: #2b7bba; stroke-width: 1.5"/>
    <path d="M 197.221089 22.10625 
L 197.551601 22.380905 
L 199.108938 24.76737 
L 199.337201 25.213866 
L 200.380497 27.42849 
L 201.122801 29.508996 
L 201.435174 30.08961 
L 202.527062 32.75073 
L 202.944113 34.127359 
L 204.729713 34.351599 
L 205.258525 32.75073 
L 206.468915 30.08961 
L 206.515313 30.012026 
L 207.478465 27.42849 
L 208.300913 25.756149 
L 208.800912 24.76737 
L 210.122225 22.708055 
L 210.76376 22.10625 
" clip-path="url(#p3e3b7ec9aa)" style="fill: none; stroke: #2b7bba; stroke-width: 1.5"/>
    <path d="M 210.54158 288.21825 
L 210.122225 287.855343 
L 208.642041 285.55713 
L 208.300913 284.879642 
L 207.360115 282.89601 
L 206.515313 280.546188 
L 206.341462 280.23489 
L 205.203942 277.57377 
L 204.729713 276.070742 
L 202.944113 276.090123 
L 202.474196 277.57377 
L 201.315636 280.23489 
L 201.122801 280.570434 
L 200.26349 282.89601 
L 199.337201 284.795814 
L 198.947114 285.55713 
L 197.551601 287.708444 
L 196.988729 288.21825 
" clip-path="url(#p3e3b7ec9aa)" style="fill: none; stroke: #2b7bba; stroke-width: 1.5"/>
    <path d="M 215.05967 22.10625 
L 215.479025 22.469157 
L 216.959209 24.76737 
L 217.300337 25.444858 
L 218.241135 27.42849 
L 219.085937 29.778312 
L 219.259788 30.08961 
L 220.397308 32.75073 
L 220.871537 34.253758 
L 222.657137 34.234377 
L 223.127054 32.75073 
L 224.285614 30.08961 
L 224.478449 29.754067 
L 225.33776 27.42849 
L 226.264049 25.528687 
L 226.654137 24.76737 
L 228.049649 22.61606 
L 228.61253 22.10625 
" clip-path="url(#p3e3b7ec9aa)" style="fill: none; stroke: #2b7bba; stroke-width: 1.5"/>
    <path d="M 228.380161 288.21825 
L 228.049649 287.943595 
L 226.492312 285.55713 
L 226.264049 285.110634 
L 225.220753 282.89601 
L 224.478449 280.815504 
L 224.166076 280.23489 
L 223.074188 277.57377 
L 222.657137 276.197141 
L 220.871537 275.972901 
L 220.342725 277.57377 
L 219.132335 280.23489 
L 219.085937 280.312474 
L 218.122785 282.89601 
L 217.300337 284.568351 
L 216.800338 285.55713 
L 215.479025 287.616445 
L 214.83749 288.21825 
" clip-path="url(#p3e3b7ec9aa)" style="fill: none; stroke: #2b7bba; stroke-width: 1.5"/>
    <path d="M 232.896955 22.10625 
L 233.442161 22.60589 
L 234.813714 24.76737 
L 235.227761 25.601508 
L 236.098107 27.42849 
L 237.013361 29.961617 
L 237.08762 30.08961 
L 238.272289 32.75073 
L 238.834673 34.463661 
L 240.620273 34.146229 
L 241.057062 32.75073 
L 242.200335 30.08961 
L 242.405873 29.727192 
L 243.286208 27.42849 
L 244.191473 25.631769 
L 244.684566 24.76737 
L 246.012785 22.916744 
L 247.37873 22.10625 
" clip-path="url(#p3e3b7ec9aa)" style="fill: none; stroke: #2b7bba; stroke-width: 1.5"/>
    <path d="M 247.251316 288.21825 
L 246.012785 287.606261 
L 244.514751 285.55713 
L 244.191473 284.995293 
L 243.165376 282.89601 
L 242.405873 280.847801 
L 242.079597 280.23489 
L 241.000164 277.57377 
L 240.620273 276.305136 
L 238.834673 275.77941 
L 238.216782 277.57377 
L 237.013361 280.110679 
L 236.97807 280.23489 
L 235.978679 282.89601 
L 235.227761 284.414276 
L 234.656945 285.55713 
L 233.442161 287.474441 
L 232.687742 288.21825 
" clip-path="url(#p3e3b7ec9aa)" style="fill: none; stroke: #2b7bba; stroke-width: 1.5"/>
    <path d="M 248.247823 22.10625 
L 249.583985 22.858467 
L 250.547912 24.76737 
L 251.491019 27.42849 
L 251.965119 30.08961 
L 252.56225 35.41185 
L 252.867531 40.73409 
L 253.078673 49.16097 
L 253.435189 65.12769 
L 253.859224 73.11105 
L 254.566682 81.09441 
L 255.231561 86.41665 
L 256.762097 95.155082 
L 258.547697 97.098274 
L 259.62534 94.84353 
L 260.369009 93.874192 
L 261.144202 92.18241 
L 263.038211 89.52129 
L 263.940209 88.645274 
L 265.725809 88.081934 
L 267.659052 89.52129 
L 268.802931 92.18241 
L 269.332721 93.802053 
L 269.546932 94.84353 
L 269.962588 97.50465 
L 270.483023 102.82689 
L 270.741692 108.14913 
L 270.887193 116.13249 
L 270.930836 137.86497 
L 270.816144 220.80321 
L 270.625014 226.56897 
L 270.249132 231.89121 
L 269.535849 237.21345 
L 269.332721 238.223322 
L 268.823003 239.87457 
L 267.547121 242.985956 
L 265.725809 244.54828 
L 263.940209 244.25188 
L 262.125243 242.53569 
L 258.547697 236.649733 
L 258.04917 237.21345 
L 256.762097 238.852212 
L 254.862902 250.51905 
L 254.042791 258.50241 
L 252.366585 277.57377 
L 251.957019 280.23489 
L 251.369585 283.156669 
L 250.431115 285.55713 
L 249.583985 287.272201 
L 248.190858 288.21825 
L 248.190858 288.21825 
" clip-path="url(#p3e3b7ec9aa)" style="fill: none; stroke: #2b7bba; stroke-width: 1.5"/>
   </g>
   <g id="PathCollection_7">
    <path d="M 157.790479 272.25153 
L 157.564119 269.59041 
L 157.410977 266.92929 
L 157.297487 263.82465 
L 157.238212 261.16353 
L 157.201662 258.50241 
L 157.179411 255.84129 
L 157.165729 253.18017 
L 157.157114 250.51905 
L 157.151717 247.85793 
L 157.14868 245.19681 
L 157.147514 242.53569 
L 157.14768 239.87457 
L 157.148467 237.21345 
L 157.149125 234.55233 
L 157.149135 231.89121 
L 157.148414 229.23009 
L 157.147314 226.56897 
L 157.146415 223.90785 
L 157.14624 220.80321 
L 157.146929 218.14209 
L 157.148014 215.48097 
L 157.148908 212.81985 
L 157.149124 210.15873 
L 157.148547 207.49761 
L 157.147488 204.83649 
L 157.146522 202.17537 
L 157.146173 199.51425 
L 157.146629 196.85313 
L 157.147644 194.19201 
L 157.148667 191.53089 
L 157.149144 188.86977 
L 157.148816 186.20865 
L 157.147861 183.54753 
L 157.146797 180.88641 
L 157.1462 178.22529 
L 157.146502 175.12065 
L 157.147457 172.45953 
L 157.148521 169.79841 
L 157.149118 167.13729 
L 157.148924 164.47617 
L 157.148044 161.81505 
L 157.146956 159.15393 
L 157.146248 156.49281 
L 157.146306 153.83169 
L 157.147097 151.17057 
L 157.148193 148.50945 
L 157.148999 145.84833 
L 157.14908 143.18721 
L 157.14839 140.52609 
L 157.147304 137.86497 
L 157.146412 135.20385 
L 157.146242 132.09921 
L 157.146936 129.43809 
L 157.148031 126.77697 
L 157.148948 124.11585 
L 157.149216 121.45473 
L 157.14875 118.79361 
L 157.147924 116.13249 
L 157.147434 113.47137 
L 157.148028 110.81025 
L 157.150299 108.14913 
L 157.154705 105.48801 
L 157.161881 102.82689 
L 157.173199 100.16577 
L 157.191413 97.50465 
L 157.221258 94.84353 
L 157.269886 92.18241 
L 157.347202 89.52129 
L 157.491172 86.41665 
L 157.679904 83.75553 
L 157.951318 81.09441 
L 158.054129 80.368409 
L 158.800202 78.43329 
L 159.875441 76.325391 
L 161.661041 78.324802 
L 161.693599 78.43329 
L 162.265356 81.09441 
L 162.650636 83.75553 
L 162.907502 86.41665 
L 163.096972 89.52129 
L 163.196068 92.18241 
L 163.257254 94.84353 
L 163.294354 97.50465 
L 163.316949 100.16577 
L 163.331126 102.82689 
L 163.340245 105.48801 
L 163.345843 108.14913 
L 163.348584 110.81025 
L 163.349033 113.47137 
L 163.348054 116.13249 
L 163.346755 118.79361 
L 163.346136 121.45473 
L 163.346678 124.11585 
L 163.348157 126.77697 
L 163.349804 129.43809 
L 163.350741 132.09921 
L 163.350304 135.20385 
L 163.348853 137.86497 
L 163.347218 140.52609 
L 163.346286 143.18721 
L 163.346562 145.84833 
L 163.347897 148.50945 
L 163.349567 151.17057 
L 163.350667 153.83169 
L 163.3506 156.49281 
L 163.349404 159.15393 
L 163.347725 161.81505 
L 163.346475 164.47617 
L 163.346331 167.13729 
L 163.34737 169.79841 
L 163.349031 172.45953 
L 163.350411 175.12065 
L 163.350699 178.22529 
L 163.34966 180.88641 
L 163.348 183.54753 
L 163.346619 186.20865 
L 163.346266 188.86977 
L 163.347132 191.53089 
L 163.348748 194.19201 
L 163.350238 196.85313 
L 163.350793 199.51425 
L 163.350114 202.17537 
L 163.348568 204.83649 
L 163.346993 207.49761 
L 163.346243 210.15873 
L 163.346725 212.81985 
L 163.348177 215.48097 
L 163.349811 218.14209 
L 163.350742 220.80321 
L 163.350298 223.90785 
L 163.348836 226.56897 
L 163.347176 229.23009 
L 163.34619 231.89121 
L 163.346347 234.55233 
L 163.347429 237.21345 
L 163.348574 239.87457 
L 163.34862 242.53569 
L 163.346497 245.19681 
L 163.341401 247.85793 
L 163.332542 250.51905 
L 163.318455 253.18017 
L 163.296025 255.84129 
L 163.259493 258.50241 
L 163.199618 261.16353 
L 163.103039 263.82465 
L 162.919604 266.92929 
L 162.674313 269.59041 
L 162.315172 272.25153 
L 161.80279 274.91265 
L 161.661041 275.448422 
L 160.249451 277.57377 
L 159.875441 277.998817 
L 159.58254 277.57377 
L 158.235917 274.91265 
L 158.054129 274.408582 
L 157.790479 272.25153 
z
" clip-path="url(#p3e3b7ec9aa)" style="fill: none; stroke: #0b559f; stroke-width: 1.5"/>
    <path d="M 174.117865 274.91265 
L 173.690859 272.25153 
L 173.393584 269.59041 
L 173.191806 266.92929 
L 173.041826 263.82465 
L 172.963288 261.16353 
L 172.914766 258.50241 
L 172.885192 255.84129 
L 172.867005 253.18017 
L 172.855562 250.51905 
L 172.848395 247.85793 
L 172.84435 245.19681 
L 172.842773 242.53569 
L 172.842956 239.87457 
L 172.843968 237.21345 
L 172.844829 234.55233 
L 172.844856 231.89121 
L 172.843927 229.23009 
L 172.842496 226.56897 
L 172.841316 223.90785 
L 172.84107 220.80321 
L 172.841955 218.14209 
L 172.843366 215.48097 
L 172.844539 212.81985 
L 172.844836 210.15873 
L 172.844097 207.49761 
L 172.842723 204.83649 
L 172.841458 202.17537 
L 172.840988 199.51425 
L 172.841567 196.85313 
L 172.842883 194.19201 
L 172.844221 191.53089 
L 172.844856 188.86977 
L 172.844444 186.20865 
L 172.843209 183.54753 
L 172.841819 180.88641 
L 172.841029 178.22529 
L 172.841405 175.12065 
L 172.84264 172.45953 
L 172.84403 169.79841 
L 172.844821 167.13729 
L 172.844583 164.47617 
L 172.843447 161.81505 
L 172.842027 159.15393 
L 172.841094 156.49281 
L 172.841153 153.83169 
L 172.842172 151.17057 
L 172.843599 148.50945 
L 172.844661 145.84833 
L 172.844781 143.18721 
L 172.843895 140.52609 
L 172.842483 137.86497 
L 172.84131 135.20385 
L 172.841069 132.09921 
L 172.841955 129.43809 
L 172.843368 126.77697 
L 172.844544 124.11585 
L 172.844848 121.45473 
L 172.844124 118.79361 
L 172.842781 116.13249 
L 172.841581 113.47137 
L 172.841241 110.81025 
L 172.842076 108.14913 
L 172.843873 105.48801 
L 172.846096 102.82689 
L 172.848311 100.16577 
L 172.850634 97.50465 
L 172.853993 94.84353 
L 172.860082 92.18241 
L 172.871077 89.52129 
L 172.893154 86.41665 
L 172.922465 83.75553 
L 172.963459 81.09441 
L 173.018044 78.43329 
L 173.088042 75.77217 
L 173.174887 73.11105 
L 173.279054 70.44993 
L 173.39945 67.78881 
L 173.533131 65.12769 
L 173.675607 62.46657 
L 173.821719 59.80545 
L 173.966826 57.14433 
L 174.107916 54.48321 
L 174.231665 52.0801 
L 174.25132 51.82209 
L 174.458743 49.16097 
L 174.669997 46.49985 
L 174.937232 43.39521 
L 175.203123 40.73409 
L 175.526059 38.07297 
L 175.933932 35.41185 
L 176.017265 34.989813 
L 177.360241 32.75073 
L 177.802865 32.171292 
L 178.300894 32.75073 
L 179.588465 34.784033 
L 179.750647 35.41185 
L 180.25043 38.07297 
L 180.600157 40.73409 
L 180.8401 43.39521 
L 181.022531 46.49985 
L 181.122232 49.16097 
L 181.188096 51.82209 
L 181.232536 54.48321 
L 181.263831 57.14433 
L 181.286912 59.80545 
L 181.304299 62.46657 
L 181.317129 65.12769 
L 181.326059 67.78881 
L 181.331869 70.44993 
L 181.335625 73.11105 
L 181.338477 75.77217 
L 181.341287 78.43329 
L 181.344334 81.09441 
L 181.3473 83.75553 
L 181.349544 86.41665 
L 181.350562 89.52129 
L 181.350046 92.18241 
L 181.348831 94.84353 
L 181.347767 97.50465 
L 181.34755 100.16577 
L 181.348374 102.82689 
L 181.349835 105.48801 
L 181.351166 108.14913 
L 181.351662 110.81025 
L 181.351061 113.47137 
L 181.349693 116.13249 
L 181.348301 118.79361 
L 181.347642 121.45473 
L 181.348073 124.11585 
L 181.349361 126.77697 
L 181.350807 129.43809 
L 181.351628 132.09921 
L 181.351235 135.20385 
L 181.349947 137.86497 
L 181.348501 140.52609 
L 181.347679 143.18721 
L 181.347928 145.84833 
L 181.349113 148.50945 
L 181.35059 151.17057 
L 181.35156 153.83169 
L 181.351497 156.49281 
L 181.350435 159.15393 
L 181.348949 161.81505 
L 181.347845 164.47617 
L 181.347722 167.13729 
L 181.348646 169.79841 
L 181.350116 172.45953 
L 181.351336 175.12065 
L 181.351585 178.22529 
L 181.350662 180.88641 
L 181.349191 183.54753 
L 181.347972 186.20865 
L 181.347664 188.86977 
L 181.348435 191.53089 
L 181.349867 194.19201 
L 181.351183 196.85313 
L 181.35167 199.51425 
L 181.351065 202.17537 
L 181.349695 204.83649 
L 181.348302 207.49761 
L 181.347642 210.15873 
L 181.348073 212.81985 
L 181.34936 215.48097 
L 181.350806 218.14209 
L 181.351626 220.80321 
L 181.351228 223.90785 
L 181.349932 226.56897 
L 181.348464 229.23009 
L 181.347594 231.89121 
L 181.347737 234.55233 
L 181.348696 237.21345 
L 181.349708 239.87457 
L 181.349741 242.53569 
L 181.347849 245.19681 
L 181.343321 247.85793 
L 181.335454 250.51905 
L 181.322945 253.18017 
L 181.303024 255.84129 
L 181.270571 258.50241 
L 181.217377 261.16353 
L 181.131568 263.82465 
L 180.968555 266.92929 
L 180.750494 269.59041 
L 180.431046 272.25153 
L 179.974941 274.91265 
L 179.588465 276.53925 
L 179.158774 277.57377 
L 177.802865 280.001238 
L 176.017265 279.732046 
L 174.98088 277.57377 
L 174.231665 275.42618 
L 174.117865 274.91265 
z
" clip-path="url(#p3e3b7ec9aa)" style="fill: none; stroke: #0b559f; stroke-width: 1.5"/>
    <path d="M 191.981105 274.91265 
L 191.550523 272.25153 
L 191.250803 269.59041 
L 191.047389 266.92929 
L 190.896208 263.82465 
L 190.817047 261.16353 
L 190.768142 258.50241 
L 190.738336 255.84129 
L 190.720006 253.18017 
L 190.708473 250.51905 
L 190.70125 247.85793 
L 190.697173 245.19681 
L 190.695584 242.53569 
L 190.695769 239.87457 
L 190.69679 237.21345 
L 190.697658 234.55233 
L 190.697684 231.89121 
L 190.696748 229.23009 
L 190.695305 226.56897 
L 190.694116 223.90785 
L 190.693869 220.80321 
L 190.694761 218.14209 
L 190.696184 215.48097 
L 190.697365 212.81985 
L 190.697665 210.15873 
L 190.696919 207.49761 
L 190.695534 204.83649 
L 190.694259 202.17537 
L 190.693785 199.51425 
L 190.69437 196.85313 
L 190.695696 194.19201 
L 190.697045 191.53089 
L 190.697685 188.86977 
L 190.697269 186.20865 
L 190.696023 183.54753 
L 190.694623 180.88641 
L 190.693826 178.22529 
L 190.694206 175.12065 
L 190.695452 172.45953 
L 190.696853 169.79841 
L 190.697649 167.13729 
L 190.697409 164.47617 
L 190.696263 161.81505 
L 190.694832 159.15393 
L 190.693892 156.49281 
L 190.693952 153.83169 
L 190.69498 151.17057 
L 190.696418 148.50945 
L 190.697488 145.84833 
L 190.697609 143.18721 
L 190.696715 140.52609 
L 190.695292 137.86497 
L 190.69411 135.20385 
L 190.693867 132.09921 
L 190.69476 129.43809 
L 190.696184 126.77697 
L 190.697365 124.11585 
L 190.697665 121.45473 
L 190.696919 118.79361 
L 190.695534 116.13249 
L 190.694259 113.47137 
L 190.693785 110.81025 
L 190.69437 108.14913 
L 190.695696 105.48801 
L 190.697045 102.82689 
L 190.697685 100.16577 
L 190.69727 97.50465 
L 190.696025 94.84353 
L 190.694626 92.18241 
L 190.693832 89.52129 
L 190.694219 86.41665 
L 190.695478 83.75553 
L 190.696906 81.09441 
L 190.697757 78.43329 
L 190.697632 75.77217 
L 190.696719 73.11105 
L 190.69576 70.44993 
L 190.695751 67.78881 
L 190.69761 65.12769 
L 190.702026 62.46657 
L 190.709678 59.80545 
L 190.721826 57.14433 
L 190.741149 54.48321 
L 190.772598 51.82209 
L 190.824119 49.16097 
L 190.907211 46.49985 
L 191.065057 43.39521 
L 191.276239 40.73409 
L 191.585698 38.07297 
L 192.027722 35.41185 
L 192.159089 34.836861 
L 192.90751 32.75073 
L 193.944689 30.613394 
L 195.766001 30.336591 
L 197.0781 32.75073 
L 197.551601 33.944438 
L 197.889216 35.41185 
L 198.328787 38.07297 
L 198.634669 40.73409 
L 198.842215 43.39521 
L 198.996435 46.49985 
L 199.077175 49.16097 
L 199.12705 51.82209 
L 199.157446 54.48321 
L 199.176139 57.14433 
L 199.1879 59.80545 
L 199.195266 62.46657 
L 199.199422 65.12769 
L 199.201041 67.78881 
L 199.200851 70.44993 
L 199.19981 73.11105 
L 199.198925 75.77217 
L 199.198899 78.43329 
L 199.199855 81.09441 
L 199.201326 83.75553 
L 199.202539 86.41665 
L 199.20279 89.52129 
L 199.201879 92.18241 
L 199.200428 94.84353 
L 199.199223 97.50465 
L 199.198919 100.16577 
L 199.19968 102.82689 
L 199.201094 105.48801 
L 199.202394 108.14913 
L 199.202876 110.81025 
L 199.202278 113.47137 
L 199.200925 116.13249 
L 199.19955 118.79361 
L 199.198897 121.45473 
L 199.199322 124.11585 
L 199.200594 126.77697 
L 199.202023 129.43809 
L 199.202834 132.09921 
L 199.202446 135.20385 
L 199.201175 137.86497 
L 199.199746 140.52609 
L 199.198934 143.18721 
L 199.199179 145.84833 
L 199.200349 148.50945 
L 199.201809 151.17057 
L 199.202767 153.83169 
L 199.202705 156.49281 
L 199.201656 159.15393 
L 199.200188 161.81505 
L 199.199098 164.47617 
L 199.198976 167.13729 
L 199.199888 169.79841 
L 199.20134 172.45953 
L 199.202545 175.12065 
L 199.202792 178.22529 
L 199.20188 180.88641 
L 199.200428 183.54753 
L 199.199223 186.20865 
L 199.198919 188.86977 
L 199.19968 191.53089 
L 199.201094 194.19201 
L 199.202394 196.85313 
L 199.202876 199.51425 
L 199.202278 202.17537 
L 199.200925 204.83649 
L 199.199549 207.49761 
L 199.198897 210.15873 
L 199.199322 212.81985 
L 199.200594 215.48097 
L 199.202022 218.14209 
L 199.202832 220.80321 
L 199.20244 223.90785 
L 199.201159 226.56897 
L 199.199709 229.23009 
L 199.19885 231.89121 
L 199.198991 234.55233 
L 199.199938 237.21345 
L 199.200937 239.87457 
L 199.20097 242.53569 
L 199.199102 245.19681 
L 199.194631 247.85793 
L 199.186862 250.51905 
L 199.174508 253.18017 
L 199.154833 255.84129 
L 199.122782 258.50241 
L 199.070245 261.16353 
L 198.985491 263.82465 
L 198.82447 266.92929 
L 198.609051 269.59041 
L 198.293436 272.25153 
L 197.842732 274.91265 
L 197.551601 276.156157 
L 196.996123 277.57377 
L 195.766001 279.903059 
L 193.944689 279.812495 
L 192.83322 277.57377 
L 192.159089 275.707167 
L 191.981105 274.91265 
z
" clip-path="url(#p3e3b7ec9aa)" style="fill: none; stroke: #0b559f; stroke-width: 1.5"/>
    <path d="M 209.848912 274.91265 
L 209.413786 272.25153 
L 209.110948 269.59041 
L 208.905441 266.92929 
L 208.75272 263.82465 
L 208.672758 261.16353 
L 208.62336 258.50241 
L 208.593255 255.84129 
L 208.574741 253.18017 
L 208.563092 250.51905 
L 208.555797 247.85793 
L 208.55168 245.19681 
L 208.550075 242.53569 
L 208.550262 239.87457 
L 208.551293 237.21345 
L 208.55217 234.55233 
L 208.552196 231.89121 
L 208.55125 229.23009 
L 208.549793 226.56897 
L 208.548592 223.90785 
L 208.548342 220.80321 
L 208.549244 218.14209 
L 208.550681 215.48097 
L 208.551874 212.81985 
L 208.552177 210.15873 
L 208.551423 207.49761 
L 208.550024 204.83649 
L 208.548736 202.17537 
L 208.548258 199.51425 
L 208.548849 196.85313 
L 208.550189 194.19201 
L 208.551551 191.53089 
L 208.552197 188.86977 
L 208.551777 186.20865 
L 208.550518 183.54753 
L 208.549103 180.88641 
L 208.548299 178.22529 
L 208.548683 175.12065 
L 208.549942 172.45953 
L 208.551357 169.79841 
L 208.552161 167.13729 
L 208.551919 164.47617 
L 208.550761 161.81505 
L 208.549315 159.15393 
L 208.548366 156.49281 
L 208.548427 153.83169 
L 208.549465 151.17057 
L 208.550918 148.50945 
L 208.551998 145.84833 
L 208.55212 143.18721 
L 208.551217 140.52609 
L 208.549779 137.86497 
L 208.548586 135.20385 
L 208.54834 132.09921 
L 208.549243 129.43809 
L 208.550681 126.77697 
L 208.551874 124.11585 
L 208.552176 121.45473 
L 208.551423 118.79361 
L 208.550024 116.13249 
L 208.548736 113.47137 
L 208.548258 110.81025 
L 208.548849 108.14913 
L 208.550189 105.48801 
L 208.551551 102.82689 
L 208.552197 100.16577 
L 208.551777 97.50465 
L 208.550519 94.84353 
L 208.549104 92.18241 
L 208.548301 89.52129 
L 208.548689 86.41665 
L 208.549957 83.75553 
L 208.551393 81.09441 
L 208.552244 78.43329 
L 208.552105 75.77217 
L 208.551168 73.11105 
L 208.550178 70.44993 
L 208.550144 67.78881 
L 208.551993 65.12769 
L 208.556419 62.46657 
L 208.56411 59.80545 
L 208.57634 57.14433 
L 208.595818 54.48321 
L 208.627547 51.82209 
L 208.679559 49.16097 
L 208.76347 46.49985 
L 208.922901 43.39521 
L 209.136217 40.73409 
L 209.448791 38.07297 
L 209.895222 35.41185 
L 210.122225 34.431099 
L 210.757057 32.75073 
L 211.907825 30.493957 
L 213.693425 30.402401 
L 214.922695 32.75073 
L 215.479025 34.208879 
L 215.752338 35.41185 
L 216.187464 38.07297 
L 216.490302 40.73409 
L 216.695809 43.39521 
L 216.84853 46.49985 
L 216.928492 49.16097 
L 216.97789 51.82209 
L 217.007995 54.48321 
L 217.026509 57.14433 
L 217.038158 59.80545 
L 217.045453 62.46657 
L 217.04957 65.12769 
L 217.051175 67.78881 
L 217.050988 70.44993 
L 217.049957 73.11105 
L 217.04908 75.77217 
L 217.049054 78.43329 
L 217.05 81.09441 
L 217.051457 83.75553 
L 217.052658 86.41665 
L 217.052908 89.52129 
L 217.052006 92.18241 
L 217.050569 94.84353 
L 217.049376 97.50465 
L 217.049073 100.16577 
L 217.049827 102.82689 
L 217.051226 105.48801 
L 217.052514 108.14913 
L 217.052992 110.81025 
L 217.052401 113.47137 
L 217.051061 116.13249 
L 217.049699 118.79361 
L 217.049053 121.45473 
L 217.049473 124.11585 
L 217.050732 126.77697 
L 217.052147 129.43809 
L 217.052951 132.09921 
L 217.052567 135.20385 
L 217.051308 137.86497 
L 217.049893 140.52609 
L 217.049089 143.18721 
L 217.049331 145.84833 
L 217.050489 148.50945 
L 217.051935 151.17057 
L 217.052884 153.83169 
L 217.052823 156.49281 
L 217.051785 159.15393 
L 217.050332 161.81505 
L 217.049252 164.47617 
L 217.04913 167.13729 
L 217.050033 169.79841 
L 217.051471 172.45953 
L 217.052664 175.12065 
L 217.05291 178.22529 
L 217.052007 180.88641 
L 217.050569 183.54753 
L 217.049376 186.20865 
L 217.049074 188.86977 
L 217.049827 191.53089 
L 217.051226 194.19201 
L 217.052514 196.85313 
L 217.052992 199.51425 
L 217.052401 202.17537 
L 217.051061 204.83649 
L 217.049699 207.49761 
L 217.049053 210.15873 
L 217.049473 212.81985 
L 217.050731 215.48097 
L 217.052146 218.14209 
L 217.052949 220.80321 
L 217.052561 223.90785 
L 217.051293 226.56897 
L 217.049857 229.23009 
L 217.049006 231.89121 
L 217.049145 234.55233 
L 217.050082 237.21345 
L 217.051072 239.87457 
L 217.051106 242.53569 
L 217.049257 245.19681 
L 217.044831 247.85793 
L 217.03714 250.51905 
L 217.02491 253.18017 
L 217.005432 255.84129 
L 216.973703 258.50241 
L 216.921691 261.16353 
L 216.83778 263.82465 
L 216.678349 266.92929 
L 216.465033 269.59041 
L 216.152459 272.25153 
L 215.706028 274.91265 
L 215.479025 275.893401 
L 214.844193 277.57377 
L 213.693425 279.830543 
L 211.907825 279.922099 
L 210.678555 277.57377 
L 210.122225 276.115621 
L 209.848912 274.91265 
z
" clip-path="url(#p3e3b7ec9aa)" style="fill: none; stroke: #0b559f; stroke-width: 1.5"/>
    <path d="M 227.712034 274.91265 
L 227.272463 272.25153 
L 226.966581 269.59041 
L 226.759035 266.92929 
L 226.604815 263.82465 
L 226.524075 261.16353 
L 226.4742 258.50241 
L 226.443804 255.84129 
L 226.425111 253.18017 
L 226.41335 250.51905 
L 226.405984 247.85793 
L 226.401828 245.19681 
L 226.400209 242.53569 
L 226.400399 239.87457 
L 226.40144 237.21345 
L 226.402325 234.55233 
L 226.402351 231.89121 
L 226.401395 229.23009 
L 226.399924 226.56897 
L 226.398711 223.90785 
L 226.39846 220.80321 
L 226.399371 218.14209 
L 226.400822 215.48097 
L 226.402027 212.81985 
L 226.402331 210.15873 
L 226.40157 207.49761 
L 226.400156 204.83649 
L 226.398856 202.17537 
L 226.398374 199.51425 
L 226.398972 196.85313 
L 226.400325 194.19201 
L 226.4017 191.53089 
L 226.402353 188.86977 
L 226.401928 186.20865 
L 226.400656 183.54753 
L 226.399227 180.88641 
L 226.398416 178.22529 
L 226.398804 175.12065 
L 226.400075 172.45953 
L 226.401504 169.79841 
L 226.402316 167.13729 
L 226.402071 164.47617 
L 226.400901 161.81505 
L 226.399441 159.15393 
L 226.398483 156.49281 
L 226.398545 153.83169 
L 226.399594 151.17057 
L 226.401062 148.50945 
L 226.402152 145.84833 
L 226.402274 143.18721 
L 226.401362 140.52609 
L 226.39991 137.86497 
L 226.398705 135.20385 
L 226.398458 132.09921 
L 226.39937 129.43809 
L 226.400822 126.77697 
L 226.402027 124.11585 
L 226.402331 121.45473 
L 226.40157 118.79361 
L 226.400156 116.13249 
L 226.398856 113.47137 
L 226.398374 110.81025 
L 226.398972 108.14913 
L 226.400325 105.48801 
L 226.401701 102.82689 
L 226.402353 100.16577 
L 226.401928 97.50465 
L 226.400656 94.84353 
L 226.399228 92.18241 
L 226.398418 89.52129 
L 226.398811 86.41665 
L 226.400091 83.75553 
L 226.401541 81.09441 
L 226.402401 78.43329 
L 226.40226 75.77217 
L 226.401313 73.11105 
L 226.400314 70.44993 
L 226.40028 67.78881 
L 226.402148 65.12769 
L 226.40662 62.46657 
L 226.414389 59.80545 
L 226.426743 57.14433 
L 226.446418 54.48321 
L 226.478469 51.82209 
L 226.531006 49.16097 
L 226.615761 46.49985 
L 226.776782 43.39521 
L 226.9922 40.73409 
L 227.307816 38.07297 
L 227.758521 35.41185 
L 228.049649 34.168357 
L 228.605137 32.75073 
L 229.835249 30.421482 
L 231.656561 30.512177 
L 232.767792 32.75073 
L 233.442161 34.618261 
L 233.619884 35.41185 
L 234.05034 38.07297 
L 234.349972 40.73409 
L 234.553327 43.39521 
L 234.704465 46.49985 
L 234.783607 49.16097 
L 234.832502 51.82209 
L 234.862308 54.48321 
L 234.880644 57.14433 
L 234.892189 59.80545 
L 234.89943 62.46657 
L 234.90353 65.12769 
L 234.905149 67.78881 
L 234.904999 70.44993 
L 234.904019 73.11105 
L 234.903195 75.77217 
L 234.903215 78.43329 
L 234.904198 81.09441 
L 234.905687 83.75553 
L 234.906921 86.41665 
L 234.907215 89.52129 
L 234.906359 92.18241 
L 234.904967 94.84353 
L 234.903811 97.50465 
L 234.903531 100.16577 
L 234.904293 102.82689 
L 234.90569 105.48801 
L 234.906974 108.14913 
L 234.907453 110.81025 
L 234.906873 113.47137 
L 234.905549 116.13249 
L 234.904202 118.79361 
L 234.903563 121.45473 
L 234.90398 124.11585 
L 234.905226 126.77697 
L 234.906627 129.43809 
L 234.907424 132.09921 
L 234.907044 135.20385 
L 234.905798 137.86497 
L 234.904397 140.52609 
L 234.903601 143.18721 
L 234.903841 145.84833 
L 234.904987 148.50945 
L 234.906418 151.17057 
L 234.907358 153.83169 
L 234.907298 156.49281 
L 234.90627 159.15393 
L 234.904832 161.81505 
L 234.903762 164.47617 
L 234.903641 167.13729 
L 234.904535 169.79841 
L 234.905958 172.45953 
L 234.90714 175.12065 
L 234.907383 178.22529 
L 234.90649 180.88641 
L 234.905066 183.54753 
L 234.903885 186.20865 
L 234.903585 188.86977 
L 234.904331 191.53089 
L 234.905716 194.19201 
L 234.906991 196.85313 
L 234.907465 199.51425 
L 234.90688 202.17537 
L 234.905554 204.83649 
L 234.904205 207.49761 
L 234.903565 210.15873 
L 234.90398 212.81985 
L 234.905225 215.48097 
L 234.906624 218.14209 
L 234.907418 220.80321 
L 234.907031 223.90785 
L 234.905772 226.56897 
L 234.904344 229.23009 
L 234.903493 231.89121 
L 234.903618 234.55233 
L 234.904531 237.21345 
L 234.90549 239.87457 
L 234.905499 242.53569 
L 234.90364 245.19681 
L 234.899224 247.85793 
L 234.891572 250.51905 
L 234.879424 253.18017 
L 234.860101 255.84129 
L 234.828652 258.50241 
L 234.777131 261.16353 
L 234.694039 263.82465 
L 234.536193 266.92929 
L 234.325011 269.59041 
L 234.015552 272.25153 
L 233.573528 274.91265 
L 233.442161 275.487639 
L 232.69374 277.57377 
L 231.656561 279.711106 
L 229.835249 279.987909 
L 228.52315 277.57377 
L 228.049649 276.380062 
L 227.712034 274.91265 
z
" clip-path="url(#p3e3b7ec9aa)" style="fill: none; stroke: #0b559f; stroke-width: 1.5"/>
    <path d="M 245.850603 274.91265 
L 245.35082 272.25153 
L 245.001093 269.59041 
L 244.76115 266.92929 
L 244.578719 263.82465 
L 244.479018 261.16353 
L 244.413154 258.50241 
L 244.368714 255.84129 
L 244.337419 253.18017 
L 244.314338 250.51905 
L 244.296951 247.85793 
L 244.284121 245.19681 
L 244.275191 242.53569 
L 244.269381 239.87457 
L 244.265625 237.21345 
L 244.262773 234.55233 
L 244.259963 231.89121 
L 244.256916 229.23009 
L 244.25395 226.56897 
L 244.251706 223.90785 
L 244.250688 220.80321 
L 244.251204 218.14209 
L 244.252419 215.48097 
L 244.253483 212.81985 
L 244.2537 210.15873 
L 244.252876 207.49761 
L 244.251415 204.83649 
L 244.250084 202.17537 
L 244.249588 199.51425 
L 244.250189 196.85313 
L 244.251557 194.19201 
L 244.252949 191.53089 
L 244.253608 188.86977 
L 244.253177 186.20865 
L 244.251889 183.54753 
L 244.250443 180.88641 
L 244.249622 178.22529 
L 244.250015 175.12065 
L 244.251303 172.45953 
L 244.252749 169.79841 
L 244.253571 167.13729 
L 244.253322 164.47617 
L 244.252137 161.81505 
L 244.25066 159.15393 
L 244.24969 156.49281 
L 244.249753 153.83169 
L 244.250816 151.17057 
L 244.252301 148.50945 
L 244.253405 145.84833 
L 244.253529 143.18721 
L 244.252606 140.52609 
L 244.251139 137.86497 
L 244.249926 135.20385 
L 244.24969 132.09921 
L 244.250638 129.43809 
L 244.252151 126.77697 
L 244.253447 124.11585 
L 244.253885 121.45473 
L 244.253331 118.79361 
L 244.252248 116.13249 
L 244.251478 113.47137 
L 244.251819 110.81025 
L 244.253649 108.14913 
L 244.256773 105.48801 
L 244.260601 102.82689 
L 244.264536 100.16577 
L 244.268369 97.50465 
L 244.272463 94.84353 
L 244.277608 92.18241 
L 244.284631 89.52129 
L 244.295715 86.41665 
L 244.307329 83.75553 
L 244.319906 81.09441 
L 244.332306 78.43329 
L 244.34369 75.77217 
L 244.353847 73.11105 
L 244.363218 70.44993 
L 244.372628 67.78881 
L 244.382932 65.12769 
L 244.394844 62.46657 
L 244.409163 59.80545 
L 244.427423 57.14433 
L 244.452823 54.48321 
L 244.491188 51.82209 
L 244.551777 49.16097 
L 244.647889 46.49985 
L 244.829072 43.39521 
L 245.070653 40.73409 
L 245.424012 38.07297 
L 245.927998 35.41185 
L 246.012785 35.08548 
L 247.450087 32.75073 
L 247.798385 32.324462 
L 248.123875 32.75073 
L 249.583985 35.35295 
L 249.594355 35.41185 
L 249.93506 38.07297 
L 250.172997 40.73409 
L 250.336673 43.39521 
L 250.463326 46.49985 
L 250.536586 49.16097 
L 250.591582 51.82209 
L 250.638794 54.48321 
L 250.686207 57.14433 
L 250.739742 59.80545 
L 250.803757 62.46657 
L 250.881594 65.12769 
L 250.976052 67.78881 
L 251.089617 70.44993 
L 251.224344 73.11105 
L 251.369585 75.579886 
L 251.377244 75.77217 
L 251.493601 78.43329 
L 251.622753 81.09441 
L 251.761286 83.75553 
L 251.904264 86.41665 
L 252.068914 89.52129 
L 252.201652 92.18241 
L 252.321757 94.84353 
L 252.426284 97.50465 
L 252.513954 100.16577 
L 252.584825 102.82689 
L 252.639851 105.48801 
L 252.680567 108.14913 
L 252.708966 110.81025 
L 252.72745 113.47137 
L 252.738699 116.13249 
L 252.745368 118.79361 
L 252.749673 121.45473 
L 252.753039 124.11585 
L 252.755989 126.77697 
L 252.758343 129.43809 
L 252.759661 132.09921 
L 252.759596 135.20385 
L 252.758489 137.86497 
L 252.757163 140.52609 
L 252.756403 143.18721 
L 252.756655 145.84833 
L 252.757798 148.50945 
L 252.759221 151.17057 
L 252.760155 153.83169 
L 252.760096 156.49281 
L 252.759078 159.15393 
L 252.757651 161.81505 
L 252.756589 164.47617 
L 252.756469 167.13729 
L 252.757355 169.79841 
L 252.758767 172.45953 
L 252.75994 175.12065 
L 252.760181 178.22529 
L 252.759295 180.88641 
L 252.757882 183.54753 
L 252.756706 186.20865 
L 252.756402 188.86977 
L 252.757126 191.53089 
L 252.758469 194.19201 
L 252.759669 196.85313 
L 252.760009 199.51425 
L 252.759174 202.17537 
L 252.757377 204.83649 
L 252.755154 207.49761 
L 252.752939 210.15873 
L 252.750616 212.81985 
L 252.747257 215.48097 
L 252.741168 218.14209 
L 252.730173 220.80321 
L 252.708096 223.90785 
L 252.678785 226.56897 
L 252.637791 229.23009 
L 252.583206 231.89121 
L 252.513208 234.55233 
L 252.426363 237.21345 
L 252.322196 239.87457 
L 252.2018 242.53569 
L 252.068119 245.19681 
L 251.925643 247.85793 
L 251.779531 250.51905 
L 251.634424 253.18017 
L 251.493334 255.84129 
L 251.369585 258.2444 
L 251.34993 258.50241 
L 251.142507 261.16353 
L 250.931253 263.82465 
L 250.664018 266.92929 
L 250.398127 269.59041 
L 250.075191 272.25153 
L 249.667318 274.91265 
L 249.583985 275.334687 
L 248.241009 277.57377 
L 247.798385 278.153208 
L 247.300356 277.57377 
L 246.012785 275.540467 
L 245.850603 274.91265 
z
" clip-path="url(#p3e3b7ec9aa)" style="fill: none; stroke: #0b559f; stroke-width: 1.5"/>
    <path d="M 263.907651 231.89121 
L 263.335894 229.23009 
L 262.950614 226.56897 
L 262.693748 223.90785 
L 262.504278 220.80321 
L 262.405182 218.14209 
L 262.343996 215.48097 
L 262.306896 212.81985 
L 262.284301 210.15873 
L 262.270124 207.49761 
L 262.261005 204.83649 
L 262.255407 202.17537 
L 262.252666 199.51425 
L 262.252217 196.85313 
L 262.253196 194.19201 
L 262.254495 191.53089 
L 262.255114 188.86977 
L 262.254572 186.20865 
L 262.253093 183.54753 
L 262.251446 180.88641 
L 262.250509 178.22529 
L 262.250946 175.12065 
L 262.252397 172.45953 
L 262.254032 169.79841 
L 262.254964 167.13729 
L 262.254688 164.47617 
L 262.253353 161.81505 
L 262.251684 159.15393 
L 262.250585 156.49281 
L 262.250655 153.83169 
L 262.251858 151.17057 
L 262.253553 148.50945 
L 262.254841 145.84833 
L 262.255069 143.18721 
L 262.254208 140.52609 
L 262.252921 137.86497 
L 262.252297 135.20385 
L 262.253856 132.09921 
L 262.258058 129.43809 
L 262.265562 126.77697 
L 262.277432 124.11585 
L 262.296067 121.45473 
L 262.326165 118.79361 
L 262.375545 116.13249 
L 262.45581 113.47137 
L 262.583045 110.81025 
L 262.778897 108.14913 
L 263.072518 105.48801 
L 263.503982 102.82689 
L 263.940209 100.952103 
L 264.423838 100.16577 
L 265.725809 98.633296 
L 266.617604 100.16577 
L 267.547121 102.335726 
L 267.620117 102.82689 
L 267.904087 105.48801 
L 268.100048 108.14913 
L 268.231652 110.81025 
L 268.31735 113.47137 
L 268.371414 116.13249 
L 268.404654 118.79361 
L 268.4249 121.45473 
L 268.437407 124.11585 
L 268.445314 126.77697 
L 268.450233 129.43809 
L 268.452904 132.09921 
L 268.453807 135.20385 
L 268.453342 137.86497 
L 268.452519 140.52609 
L 268.452036 143.18721 
L 268.452284 145.84833 
L 268.453188 148.50945 
L 268.454287 151.17057 
L 268.454999 153.83169 
L 268.454943 156.49281 
L 268.454153 159.15393 
L 268.453057 161.81505 
L 268.45225 164.47617 
L 268.45217 167.13729 
L 268.45286 169.79841 
L 268.453946 172.45953 
L 268.454838 175.12065 
L 268.455008 178.22529 
L 268.454314 180.88641 
L 268.453219 183.54753 
L 268.452302 186.20865 
L 268.452034 188.86977 
L 268.4525 191.53089 
L 268.453326 194.19201 
L 268.453816 196.85313 
L 268.453222 199.51425 
L 268.450951 202.17537 
L 268.446545 204.83649 
L 268.439369 207.49761 
L 268.428051 210.15873 
L 268.409837 212.81985 
L 268.379992 215.48097 
L 268.331364 218.14209 
L 268.254048 220.80321 
L 268.110078 223.90785 
L 267.921346 226.56897 
L 267.649932 229.23009 
L 267.547121 229.956091 
L 266.801048 231.89121 
L 265.725809 233.999109 
L 263.940209 231.999698 
L 263.907651 231.89121 
z
" clip-path="url(#p3e3b7ec9aa)" style="fill: none; stroke: #0b559f; stroke-width: 1.5"/>
   </g>
   <g id="PathCollection_8"/>
   <g id="patch_3">
    <path d="M 34.240625 288.21825 
L 34.240625 22.10625 
" style="fill: none; stroke: #000000; stroke-width: 0.8; stroke-linejoin: miter; stroke-linecap: square"/>
   </g>
   <g id="patch_4">
    <path d="M 391.360625 288.21825 
L 391.360625 22.10625 
" style="fill: none; stroke: #000000; stroke-width: 0.8; stroke-linejoin: miter; stroke-linecap: square"/>
   </g>
   <g id="patch_5">
    <path d="M 34.240625 288.21825 
L 391.360625 288.21825 
" style="fill: none; stroke: #000000; stroke-width: 0.8; stroke-linejoin: miter; stroke-linecap: square"/>
   </g>
   <g id="patch_6">
    <path d="M 34.240625 22.10625 
L 391.360625 22.10625 
" style="fill: none; stroke: #000000; stroke-width: 0.8; stroke-linejoin: miter; stroke-linecap: square"/>
   </g>
   <g id="text_16">
    <!-- 6.5_cross_-45.0 -->
    <g transform="translate(166.181563 16.10625)scale(0.12 -0.12)">
     <defs>
      <path id="DejaVuSans-2e" d="M 684 794 
L 1344 794 
L 1344 0 
L 684 0 
L 684 794 
z
" transform="scale(0.015625)"/>
      <path id="DejaVuSans-5f" d="M 3263 -1063 
L 3263 -1509 
L -63 -1509 
L -63 -1063 
L 3263 -1063 
z
" transform="scale(0.015625)"/>
      <path id="DejaVuSans-63" d="M 3122 3366 
L 3122 2828 
Q 2878 2963 2633 3030 
Q 2388 3097 2138 3097 
Q 1578 3097 1268 2742 
Q 959 2388 959 1747 
Q 959 1106 1268 751 
Q 1578 397 2138 397 
Q 2388 397 2633 464 
Q 2878 531 3122 666 
L 3122 134 
Q 2881 22 2623 -34 
Q 2366 -91 2075 -91 
Q 1284 -91 818 406 
Q 353 903 353 1747 
Q 353 2603 823 3093 
Q 1294 3584 2113 3584 
Q 2378 3584 2631 3529 
Q 2884 3475 3122 3366 
z
" transform="scale(0.015625)"/>
      <path id="DejaVuSans-72" d="M 2631 2963 
Q 2534 3019 2420 3045 
Q 2306 3072 2169 3072 
Q 1681 3072 1420 2755 
Q 1159 2438 1159 1844 
L 1159 0 
L 581 0 
L 581 3500 
L 1159 3500 
L 1159 2956 
Q 1341 3275 1631 3429 
Q 1922 3584 2338 3584 
Q 2397 3584 2469 3576 
Q 2541 3569 2628 3553 
L 2631 2963 
z
" transform="scale(0.015625)"/>
      <path id="DejaVuSans-73" d="M 2834 3397 
L 2834 2853 
Q 2591 2978 2328 3040 
Q 2066 3103 1784 3103 
Q 1356 3103 1142 2972 
Q 928 2841 928 2578 
Q 928 2378 1081 2264 
Q 1234 2150 1697 2047 
L 1894 2003 
Q 2506 1872 2764 1633 
Q 3022 1394 3022 966 
Q 3022 478 2636 193 
Q 2250 -91 1575 -91 
Q 1294 -91 989 -36 
Q 684 19 347 128 
L 347 722 
Q 666 556 975 473 
Q 1284 391 1588 391 
Q 1994 391 2212 530 
Q 2431 669 2431 922 
Q 2431 1156 2273 1281 
Q 2116 1406 1581 1522 
L 1381 1569 
Q 847 1681 609 1914 
Q 372 2147 372 2553 
Q 372 3047 722 3315 
Q 1072 3584 1716 3584 
Q 2034 3584 2315 3537 
Q 2597 3491 2834 3397 
z
" transform="scale(0.015625)"/>
      <path id="DejaVuSans-2d" d="M 313 2009 
L 1997 2009 
L 1997 1497 
L 313 1497 
L 313 2009 
z
" transform="scale(0.015625)"/>
     </defs>
     <use xlink:href="#DejaVuSans-36"/>
     <use xlink:href="#DejaVuSans-2e" x="63.623047"/>
     <use xlink:href="#DejaVuSans-35" x="95.410156"/>
     <use xlink:href="#DejaVuSans-5f" x="159.033203"/>
     <use xlink:href="#DejaVuSans-63" x="209.033203"/>
     <use xlink:href="#DejaVuSans-72" x="264.013672"/>
     <use xlink:href="#DejaVuSans-6f" x="302.876953"/>
     <use xlink:href="#DejaVuSans-73" x="364.058594"/>
     <use xlink:href="#DejaVuSans-73" x="416.158203"/>
     <use xlink:href="#DejaVuSans-5f" x="468.257812"/>
     <use xlink:href="#DejaVuSans-2d" x="518.257812"/>
     <use xlink:href="#DejaVuSans-34" x="554.341797"/>
     <use xlink:href="#DejaVuSans-35" x="617.964844"/>
     <use xlink:href="#DejaVuSans-2e" x="681.587891"/>
     <use xlink:href="#DejaVuSans-30" x="713.375"/>
    </g>
   </g>
  </g>
 </g>
 <defs>
  <clipPath id="p3e3b7ec9aa">
   <rect x="34.240625" y="22.10625" width="357.12" height="266.112"/>
  </clipPath>
 </defs>
</svg>
