<?xml version="1.0" encoding="utf-8" standalone="no"?>
<!DOCTYPE svg PUBLIC "-//W3C//DTD SVG 1.1//EN"
  "http://www.w3.org/Graphics/SVG/1.1/DTD/svg11.dtd">
<svg xmlns:xlink="http://www.w3.org/1999/xlink" width="408.104375pt" height="325.7745pt" viewBox="0 0 408.104375 325.7745" xmlns="http://www.w3.org/2000/svg" version="1.1">
 <metadata>
  <rdf:RDF xmlns:dc="http://purl.org/dc/elements/1.1/" xmlns:cc="http://creativecommons.org/ns#" xmlns:rdf="http://www.w3.org/1999/02/22-rdf-syntax-ns#">
   <cc:Work>
    <dc:type rdf:resource="http://purl.org/dc/dcmitype/StillImage"/>
    <dc:date>2024-07-12T12:31:15.956471</dc:date>
    <dc:format>image/svg+xml</dc:format>
    <dc:creator>
     <cc:Agent>
      <dc:title>Matplotlib v3.5.3, https://matplotlib.org/</dc:title>
     </cc:Agent>
    </dc:creator>
   </cc:Work>
  </rdf:RDF>
 </metadata>
 <defs>
  <style type="text/css">*{stroke-linejoin: round; stroke-linecap: butt}</style>
 </defs>
 <g id="figure_1">
  <g id="patch_1">
   <path d="M 0 325.7745 
L 408.104375 325.7745 
L 408.104375 0 
L 0 0 
z
" style="fill: #ffffff"/>
  </g>
  <g id="axes_1">
   <g id="patch_2">
    <path d="M 34.240625 288.21825 
L 391.360625 288.21825 
L 391.360625 22.10625 
L 34.240625 22.10625 
z
" style="fill: #ffffff"/>
   </g>
   <g id="matplotlib.axis_1">
    <g id="xtick_1">
     <g id="line2d_1">
      <defs>
       <path id="m11a8800e55" d="M 0 0 
L 0 3.5 
" style="stroke: #000000; stroke-width: 0.8"/>
      </defs>
      <g>
       <use xlink:href="#m11a8800e55" x="34.240625" y="288.21825" style="stroke: #000000; stroke-width: 0.8"/>
      </g>
     </g>
     <g id="text_1">
      <!-- 0 -->
      <g transform="translate(31.059375 302.816687)scale(0.1 -0.1)">
       <defs>
        <path id="DejaVuSans-30" d="M 2034 4250 
Q 1547 4250 1301 3770 
Q 1056 3291 1056 2328 
Q 1056 1369 1301 889 
Q 1547 409 2034 409 
Q 2525 409 2770 889 
Q 3016 1369 3016 2328 
Q 3016 3291 2770 3770 
Q 2525 4250 2034 4250 
z
M 2034 4750 
Q 2819 4750 3233 4129 
Q 3647 3509 3647 2328 
Q 3647 1150 3233 529 
Q 2819 -91 2034 -91 
Q 1250 -91 836 529 
Q 422 1150 422 2328 
Q 422 3509 836 4129 
Q 1250 4750 2034 4750 
z
" transform="scale(0.015625)"/>
       </defs>
       <use xlink:href="#DejaVuSans-30"/>
      </g>
     </g>
    </g>
    <g id="xtick_2">
     <g id="line2d_2">
      <g>
       <use xlink:href="#m11a8800e55" x="105.664625" y="288.21825" style="stroke: #000000; stroke-width: 0.8"/>
      </g>
     </g>
     <g id="text_2">
      <!-- 20 -->
      <g transform="translate(99.302125 302.816687)scale(0.1 -0.1)">
       <defs>
        <path id="DejaVuSans-32" d="M 1228 531 
L 3431 531 
L 3431 0 
L 469 0 
L 469 531 
Q 828 903 1448 1529 
Q 2069 2156 2228 2338 
Q 2531 2678 2651 2914 
Q 2772 3150 2772 3378 
Q 2772 3750 2511 3984 
Q 2250 4219 1831 4219 
Q 1534 4219 1204 4116 
Q 875 4013 500 3803 
L 500 4441 
Q 881 4594 1212 4672 
Q 1544 4750 1819 4750 
Q 2544 4750 2975 4387 
Q 3406 4025 3406 3419 
Q 3406 3131 3298 2873 
Q 3191 2616 2906 2266 
Q 2828 2175 2409 1742 
Q 1991 1309 1228 531 
z
" transform="scale(0.015625)"/>
       </defs>
       <use xlink:href="#DejaVuSans-32"/>
       <use xlink:href="#DejaVuSans-30" x="63.623047"/>
      </g>
     </g>
    </g>
    <g id="xtick_3">
     <g id="line2d_3">
      <g>
       <use xlink:href="#m11a8800e55" x="177.088625" y="288.21825" style="stroke: #000000; stroke-width: 0.8"/>
      </g>
     </g>
     <g id="text_3">
      <!-- 40 -->
      <g transform="translate(170.726125 302.816687)scale(0.1 -0.1)">
       <defs>
        <path id="DejaVuSans-34" d="M 2419 4116 
L 825 1625 
L 2419 1625 
L 2419 4116 
z
M 2253 4666 
L 3047 4666 
L 3047 1625 
L 3713 1625 
L 3713 1100 
L 3047 1100 
L 3047 0 
L 2419 0 
L 2419 1100 
L 313 1100 
L 313 1709 
L 2253 4666 
z
" transform="scale(0.015625)"/>
       </defs>
       <use xlink:href="#DejaVuSans-34"/>
       <use xlink:href="#DejaVuSans-30" x="63.623047"/>
      </g>
     </g>
    </g>
    <g id="xtick_4">
     <g id="line2d_4">
      <g>
       <use xlink:href="#m11a8800e55" x="248.512625" y="288.21825" style="stroke: #000000; stroke-width: 0.8"/>
      </g>
     </g>
     <g id="text_4">
      <!-- 60 -->
      <g transform="translate(242.150125 302.816687)scale(0.1 -0.1)">
       <defs>
        <path id="DejaVuSans-36" d="M 2113 2584 
Q 1688 2584 1439 2293 
Q 1191 2003 1191 1497 
Q 1191 994 1439 701 
Q 1688 409 2113 409 
Q 2538 409 2786 701 
Q 3034 994 3034 1497 
Q 3034 2003 2786 2293 
Q 2538 2584 2113 2584 
z
M 3366 4563 
L 3366 3988 
Q 3128 4100 2886 4159 
Q 2644 4219 2406 4219 
Q 1781 4219 1451 3797 
Q 1122 3375 1075 2522 
Q 1259 2794 1537 2939 
Q 1816 3084 2150 3084 
Q 2853 3084 3261 2657 
Q 3669 2231 3669 1497 
Q 3669 778 3244 343 
Q 2819 -91 2113 -91 
Q 1303 -91 875 529 
Q 447 1150 447 2328 
Q 447 3434 972 4092 
Q 1497 4750 2381 4750 
Q 2619 4750 2861 4703 
Q 3103 4656 3366 4563 
z
" transform="scale(0.015625)"/>
       </defs>
       <use xlink:href="#DejaVuSans-36"/>
       <use xlink:href="#DejaVuSans-30" x="63.623047"/>
      </g>
     </g>
    </g>
    <g id="xtick_5">
     <g id="line2d_5">
      <g>
       <use xlink:href="#m11a8800e55" x="319.936625" y="288.21825" style="stroke: #000000; stroke-width: 0.8"/>
      </g>
     </g>
     <g id="text_5">
      <!-- 80 -->
      <g transform="translate(313.574125 302.816687)scale(0.1 -0.1)">
       <defs>
        <path id="DejaVuSans-38" d="M 2034 2216 
Q 1584 2216 1326 1975 
Q 1069 1734 1069 1313 
Q 1069 891 1326 650 
Q 1584 409 2034 409 
Q 2484 409 2743 651 
Q 3003 894 3003 1313 
Q 3003 1734 2745 1975 
Q 2488 2216 2034 2216 
z
M 1403 2484 
Q 997 2584 770 2862 
Q 544 3141 544 3541 
Q 544 4100 942 4425 
Q 1341 4750 2034 4750 
Q 2731 4750 3128 4425 
Q 3525 4100 3525 3541 
Q 3525 3141 3298 2862 
Q 3072 2584 2669 2484 
Q 3125 2378 3379 2068 
Q 3634 1759 3634 1313 
Q 3634 634 3220 271 
Q 2806 -91 2034 -91 
Q 1263 -91 848 271 
Q 434 634 434 1313 
Q 434 1759 690 2068 
Q 947 2378 1403 2484 
z
M 1172 3481 
Q 1172 3119 1398 2916 
Q 1625 2713 2034 2713 
Q 2441 2713 2670 2916 
Q 2900 3119 2900 3481 
Q 2900 3844 2670 4047 
Q 2441 4250 2034 4250 
Q 1625 4250 1398 4047 
Q 1172 3844 1172 3481 
z
" transform="scale(0.015625)"/>
       </defs>
       <use xlink:href="#DejaVuSans-38"/>
       <use xlink:href="#DejaVuSans-30" x="63.623047"/>
      </g>
     </g>
    </g>
    <g id="xtick_6">
     <g id="line2d_6">
      <g>
       <use xlink:href="#m11a8800e55" x="391.360625" y="288.21825" style="stroke: #000000; stroke-width: 0.8"/>
      </g>
     </g>
     <g id="text_6">
      <!-- 100 -->
      <g transform="translate(381.816875 302.816687)scale(0.1 -0.1)">
       <defs>
        <path id="DejaVuSans-31" d="M 794 531 
L 1825 531 
L 1825 4091 
L 703 3866 
L 703 4441 
L 1819 4666 
L 2450 4666 
L 2450 531 
L 3481 531 
L 3481 0 
L 794 0 
L 794 531 
z
" transform="scale(0.015625)"/>
       </defs>
       <use xlink:href="#DejaVuSans-31"/>
       <use xlink:href="#DejaVuSans-30" x="63.623047"/>
       <use xlink:href="#DejaVuSans-30" x="127.246094"/>
      </g>
     </g>
    </g>
    <g id="text_7">
     <!-- axialRotation -->
     <g transform="translate(180.024844 316.494812)scale(0.1 -0.1)">
      <defs>
       <path id="DejaVuSans-61" d="M 2194 1759 
Q 1497 1759 1228 1600 
Q 959 1441 959 1056 
Q 959 750 1161 570 
Q 1363 391 1709 391 
Q 2188 391 2477 730 
Q 2766 1069 2766 1631 
L 2766 1759 
L 2194 1759 
z
M 3341 1997 
L 3341 0 
L 2766 0 
L 2766 531 
Q 2569 213 2275 61 
Q 1981 -91 1556 -91 
Q 1019 -91 701 211 
Q 384 513 384 1019 
Q 384 1609 779 1909 
Q 1175 2209 1959 2209 
L 2766 2209 
L 2766 2266 
Q 2766 2663 2505 2880 
Q 2244 3097 1772 3097 
Q 1472 3097 1187 3025 
Q 903 2953 641 2809 
L 641 3341 
Q 956 3463 1253 3523 
Q 1550 3584 1831 3584 
Q 2591 3584 2966 3190 
Q 3341 2797 3341 1997 
z
" transform="scale(0.015625)"/>
       <path id="DejaVuSans-78" d="M 3513 3500 
L 2247 1797 
L 3578 0 
L 2900 0 
L 1881 1375 
L 863 0 
L 184 0 
L 1544 1831 
L 300 3500 
L 978 3500 
L 1906 2253 
L 2834 3500 
L 3513 3500 
z
" transform="scale(0.015625)"/>
       <path id="DejaVuSans-69" d="M 603 3500 
L 1178 3500 
L 1178 0 
L 603 0 
L 603 3500 
z
M 603 4863 
L 1178 4863 
L 1178 4134 
L 603 4134 
L 603 4863 
z
" transform="scale(0.015625)"/>
       <path id="DejaVuSans-6c" d="M 603 4863 
L 1178 4863 
L 1178 0 
L 603 0 
L 603 4863 
z
" transform="scale(0.015625)"/>
       <path id="DejaVuSans-52" d="M 2841 2188 
Q 3044 2119 3236 1894 
Q 3428 1669 3622 1275 
L 4263 0 
L 3584 0 
L 2988 1197 
Q 2756 1666 2539 1819 
Q 2322 1972 1947 1972 
L 1259 1972 
L 1259 0 
L 628 0 
L 628 4666 
L 2053 4666 
Q 2853 4666 3247 4331 
Q 3641 3997 3641 3322 
Q 3641 2881 3436 2590 
Q 3231 2300 2841 2188 
z
M 1259 4147 
L 1259 2491 
L 2053 2491 
Q 2509 2491 2742 2702 
Q 2975 2913 2975 3322 
Q 2975 3731 2742 3939 
Q 2509 4147 2053 4147 
L 1259 4147 
z
" transform="scale(0.015625)"/>
       <path id="DejaVuSans-6f" d="M 1959 3097 
Q 1497 3097 1228 2736 
Q 959 2375 959 1747 
Q 959 1119 1226 758 
Q 1494 397 1959 397 
Q 2419 397 2687 759 
Q 2956 1122 2956 1747 
Q 2956 2369 2687 2733 
Q 2419 3097 1959 3097 
z
M 1959 3584 
Q 2709 3584 3137 3096 
Q 3566 2609 3566 1747 
Q 3566 888 3137 398 
Q 2709 -91 1959 -91 
Q 1206 -91 779 398 
Q 353 888 353 1747 
Q 353 2609 779 3096 
Q 1206 3584 1959 3584 
z
" transform="scale(0.015625)"/>
       <path id="DejaVuSans-74" d="M 1172 4494 
L 1172 3500 
L 2356 3500 
L 2356 3053 
L 1172 3053 
L 1172 1153 
Q 1172 725 1289 603 
Q 1406 481 1766 481 
L 2356 481 
L 2356 0 
L 1766 0 
Q 1100 0 847 248 
Q 594 497 594 1153 
L 594 3053 
L 172 3053 
L 172 3500 
L 594 3500 
L 594 4494 
L 1172 4494 
z
" transform="scale(0.015625)"/>
       <path id="DejaVuSans-6e" d="M 3513 2113 
L 3513 0 
L 2938 0 
L 2938 2094 
Q 2938 2591 2744 2837 
Q 2550 3084 2163 3084 
Q 1697 3084 1428 2787 
Q 1159 2491 1159 1978 
L 1159 0 
L 581 0 
L 581 3500 
L 1159 3500 
L 1159 2956 
Q 1366 3272 1645 3428 
Q 1925 3584 2291 3584 
Q 2894 3584 3203 3211 
Q 3513 2838 3513 2113 
z
" transform="scale(0.015625)"/>
      </defs>
      <use xlink:href="#DejaVuSans-61"/>
      <use xlink:href="#DejaVuSans-78" x="61.279297"/>
      <use xlink:href="#DejaVuSans-69" x="120.458984"/>
      <use xlink:href="#DejaVuSans-61" x="148.242188"/>
      <use xlink:href="#DejaVuSans-6c" x="209.521484"/>
      <use xlink:href="#DejaVuSans-52" x="237.304688"/>
      <use xlink:href="#DejaVuSans-6f" x="302.287109"/>
      <use xlink:href="#DejaVuSans-74" x="363.46875"/>
      <use xlink:href="#DejaVuSans-61" x="402.677734"/>
      <use xlink:href="#DejaVuSans-74" x="463.957031"/>
      <use xlink:href="#DejaVuSans-69" x="503.166016"/>
      <use xlink:href="#DejaVuSans-6f" x="530.949219"/>
      <use xlink:href="#DejaVuSans-6e" x="592.130859"/>
     </g>
    </g>
   </g>
   <g id="matplotlib.axis_2">
    <g id="ytick_1">
     <g id="line2d_7">
      <defs>
       <path id="m7ad2a8af41" d="M 0 0 
L -3.5 0 
" style="stroke: #000000; stroke-width: 0.8"/>
      </defs>
      <g>
       <use xlink:href="#m7ad2a8af41" x="34.240625" y="288.21825" style="stroke: #000000; stroke-width: 0.8"/>
      </g>
     </g>
     <g id="text_8">
      <!-- 0 -->
      <g transform="translate(20.878125 292.017469)scale(0.1 -0.1)">
       <use xlink:href="#DejaVuSans-30"/>
      </g>
     </g>
    </g>
    <g id="ytick_2">
     <g id="line2d_8">
      <g>
       <use xlink:href="#m7ad2a8af41" x="34.240625" y="243.86625" style="stroke: #000000; stroke-width: 0.8"/>
      </g>
     </g>
     <g id="text_9">
      <!-- 1 -->
      <g transform="translate(20.878125 247.665469)scale(0.1 -0.1)">
       <use xlink:href="#DejaVuSans-31"/>
      </g>
     </g>
    </g>
    <g id="ytick_3">
     <g id="line2d_9">
      <g>
       <use xlink:href="#m7ad2a8af41" x="34.240625" y="199.51425" style="stroke: #000000; stroke-width: 0.8"/>
      </g>
     </g>
     <g id="text_10">
      <!-- 2 -->
      <g transform="translate(20.878125 203.313469)scale(0.1 -0.1)">
       <use xlink:href="#DejaVuSans-32"/>
      </g>
     </g>
    </g>
    <g id="ytick_4">
     <g id="line2d_10">
      <g>
       <use xlink:href="#m7ad2a8af41" x="34.240625" y="155.16225" style="stroke: #000000; stroke-width: 0.8"/>
      </g>
     </g>
     <g id="text_11">
      <!-- 3 -->
      <g transform="translate(20.878125 158.961469)scale(0.1 -0.1)">
       <defs>
        <path id="DejaVuSans-33" d="M 2597 2516 
Q 3050 2419 3304 2112 
Q 3559 1806 3559 1356 
Q 3559 666 3084 287 
Q 2609 -91 1734 -91 
Q 1441 -91 1130 -33 
Q 819 25 488 141 
L 488 750 
Q 750 597 1062 519 
Q 1375 441 1716 441 
Q 2309 441 2620 675 
Q 2931 909 2931 1356 
Q 2931 1769 2642 2001 
Q 2353 2234 1838 2234 
L 1294 2234 
L 1294 2753 
L 1863 2753 
Q 2328 2753 2575 2939 
Q 2822 3125 2822 3475 
Q 2822 3834 2567 4026 
Q 2313 4219 1838 4219 
Q 1578 4219 1281 4162 
Q 984 4106 628 3988 
L 628 4550 
Q 988 4650 1302 4700 
Q 1616 4750 1894 4750 
Q 2613 4750 3031 4423 
Q 3450 4097 3450 3541 
Q 3450 3153 3228 2886 
Q 3006 2619 2597 2516 
z
" transform="scale(0.015625)"/>
       </defs>
       <use xlink:href="#DejaVuSans-33"/>
      </g>
     </g>
    </g>
    <g id="ytick_5">
     <g id="line2d_11">
      <g>
       <use xlink:href="#m7ad2a8af41" x="34.240625" y="110.81025" style="stroke: #000000; stroke-width: 0.8"/>
      </g>
     </g>
     <g id="text_12">
      <!-- 4 -->
      <g transform="translate(20.878125 114.609469)scale(0.1 -0.1)">
       <use xlink:href="#DejaVuSans-34"/>
      </g>
     </g>
    </g>
    <g id="ytick_6">
     <g id="line2d_12">
      <g>
       <use xlink:href="#m7ad2a8af41" x="34.240625" y="66.45825" style="stroke: #000000; stroke-width: 0.8"/>
      </g>
     </g>
     <g id="text_13">
      <!-- 5 -->
      <g transform="translate(20.878125 70.257469)scale(0.1 -0.1)">
       <defs>
        <path id="DejaVuSans-35" d="M 691 4666 
L 3169 4666 
L 3169 4134 
L 1269 4134 
L 1269 2991 
Q 1406 3038 1543 3061 
Q 1681 3084 1819 3084 
Q 2600 3084 3056 2656 
Q 3513 2228 3513 1497 
Q 3513 744 3044 326 
Q 2575 -91 1722 -91 
Q 1428 -91 1123 -41 
Q 819 9 494 109 
L 494 744 
Q 775 591 1075 516 
Q 1375 441 1709 441 
Q 2250 441 2565 725 
Q 2881 1009 2881 1497 
Q 2881 1984 2565 2268 
Q 2250 2553 1709 2553 
Q 1456 2553 1204 2497 
Q 953 2441 691 2322 
L 691 4666 
z
" transform="scale(0.015625)"/>
       </defs>
       <use xlink:href="#DejaVuSans-35"/>
      </g>
     </g>
    </g>
    <g id="ytick_7">
     <g id="line2d_13">
      <g>
       <use xlink:href="#m7ad2a8af41" x="34.240625" y="22.10625" style="stroke: #000000; stroke-width: 0.8"/>
      </g>
     </g>
     <g id="text_14">
      <!-- 6 -->
      <g transform="translate(20.878125 25.905469)scale(0.1 -0.1)">
       <use xlink:href="#DejaVuSans-36"/>
      </g>
     </g>
    </g>
    <g id="text_15">
     <!-- zShift -->
     <g transform="translate(14.798438 169.151312)rotate(-90)scale(0.1 -0.1)">
      <defs>
       <path id="DejaVuSans-7a" d="M 353 3500 
L 3084 3500 
L 3084 2975 
L 922 459 
L 3084 459 
L 3084 0 
L 275 0 
L 275 525 
L 2438 3041 
L 353 3041 
L 353 3500 
z
" transform="scale(0.015625)"/>
       <path id="DejaVuSans-53" d="M 3425 4513 
L 3425 3897 
Q 3066 4069 2747 4153 
Q 2428 4238 2131 4238 
Q 1616 4238 1336 4038 
Q 1056 3838 1056 3469 
Q 1056 3159 1242 3001 
Q 1428 2844 1947 2747 
L 2328 2669 
Q 3034 2534 3370 2195 
Q 3706 1856 3706 1288 
Q 3706 609 3251 259 
Q 2797 -91 1919 -91 
Q 1588 -91 1214 -16 
Q 841 59 441 206 
L 441 856 
Q 825 641 1194 531 
Q 1563 422 1919 422 
Q 2459 422 2753 634 
Q 3047 847 3047 1241 
Q 3047 1584 2836 1778 
Q 2625 1972 2144 2069 
L 1759 2144 
Q 1053 2284 737 2584 
Q 422 2884 422 3419 
Q 422 4038 858 4394 
Q 1294 4750 2059 4750 
Q 2388 4750 2728 4690 
Q 3069 4631 3425 4513 
z
" transform="scale(0.015625)"/>
       <path id="DejaVuSans-68" d="M 3513 2113 
L 3513 0 
L 2938 0 
L 2938 2094 
Q 2938 2591 2744 2837 
Q 2550 3084 2163 3084 
Q 1697 3084 1428 2787 
Q 1159 2491 1159 1978 
L 1159 0 
L 581 0 
L 581 4863 
L 1159 4863 
L 1159 2956 
Q 1366 3272 1645 3428 
Q 1925 3584 2291 3584 
Q 2894 3584 3203 3211 
Q 3513 2838 3513 2113 
z
" transform="scale(0.015625)"/>
       <path id="DejaVuSans-66" d="M 2375 4863 
L 2375 4384 
L 1825 4384 
Q 1516 4384 1395 4259 
Q 1275 4134 1275 3809 
L 1275 3500 
L 2222 3500 
L 2222 3053 
L 1275 3053 
L 1275 0 
L 697 0 
L 697 3053 
L 147 3053 
L 147 3500 
L 697 3500 
L 697 3744 
Q 697 4328 969 4595 
Q 1241 4863 1831 4863 
L 2375 4863 
z
" transform="scale(0.015625)"/>
      </defs>
      <use xlink:href="#DejaVuSans-7a"/>
      <use xlink:href="#DejaVuSans-53" x="52.490234"/>
      <use xlink:href="#DejaVuSans-68" x="115.966797"/>
      <use xlink:href="#DejaVuSans-69" x="179.345703"/>
      <use xlink:href="#DejaVuSans-66" x="207.128906"/>
      <use xlink:href="#DejaVuSans-74" x="240.583984"/>
     </g>
    </g>
   </g>
   <g id="PathCollection_1"/>
   <g id="PathCollection_2">
    <path d="M 34.240625 131.400177 
L 36.026225 131.758787 
L 36.897411 132.09921 
L 37.847537 132.443237 
L 39.633137 133.436169 
L 41.418737 134.870836 
L 41.749856 135.20385 
L 43.204337 136.732318 
L 44.076221 137.86497 
L 45.025649 139.261246 
L 45.777311 140.52609 
L 46.811249 142.638104 
L 47.063248 143.18721 
L 48.056015 145.84833 
L 48.596849 147.842987 
L 48.782186 148.50945 
L 49.313978 151.17057 
L 49.626871 153.83169 
L 49.742264 156.49281 
L 49.66502 159.15393 
L 49.384133 161.81505 
L 48.871208 164.47617 
L 48.596849 165.455402 
L 48.121724 167.13729 
L 47.062569 169.79841 
L 46.811249 170.303252 
L 45.60169 172.45953 
L 45.025649 173.308641 
L 43.509246 175.12065 
L 43.204337 175.45027 
L 41.418737 176.967169 
L 39.633137 177.977288 
L 38.936703 178.22529 
L 37.847537 178.633835 
L 36.026225 178.95188 
L 34.240625 178.924323 
" clip-path="url(#pe6500b7cb8)" style="fill: none; stroke: #deebf7; stroke-width: 1.5"/>
    <path d="M 123.762987 288.21825 
L 123.292668 285.55713 
L 122.933843 282.89601 
L 122.661675 280.23489 
L 122.457046 277.57377 
L 122.304989 274.91265 
L 122.193644 272.25153 
L 122.163569 271.261175 
L 122.101114 269.59041 
L 122.030715 266.92929 
L 121.975995 263.82465 
L 121.945847 261.16353 
L 121.926349 258.50241 
L 121.914053 255.84129 
L 121.906426 253.18017 
L 121.901716 250.51905 
L 121.898806 247.85793 
L 121.897044 245.19681 
L 121.896069 242.53569 
L 121.895653 239.87457 
L 121.895597 237.21345 
L 121.895703 234.55233 
L 121.895791 231.89121 
L 121.895751 229.23009 
L 121.895573 226.56897 
L 121.895339 223.90785 
L 121.895153 220.80321 
L 121.895164 218.14209 
L 121.895327 215.48097 
L 121.895555 212.81985 
L 121.895723 210.15873 
L 121.89574 207.49761 
L 121.895596 204.83649 
L 121.895369 202.17537 
L 121.89518 199.51425 
L 121.895126 196.85313 
L 121.895227 194.19201 
L 121.895406 191.53089 
L 121.895516 188.86977 
L 121.895396 186.20865 
L 121.894902 183.54753 
L 121.89389 180.88641 
L 121.892114 178.22529 
L 121.888349 175.12065 
L 121.882401 172.45953 
L 121.871836 169.79841 
L 121.853377 167.13729 
L 121.822062 164.47617 
L 121.770704 161.81505 
L 121.689295 159.15393 
L 121.564478 156.49281 
L 121.379324 153.83169 
L 121.113725 151.17057 
L 120.745727 148.50945 
L 120.377969 146.527531 
L 120.224568 145.84833 
L 119.455536 143.18721 
L 118.592369 140.70203 
L 118.521301 140.52609 
L 117.271191 137.86497 
L 116.806769 136.967698 
L 115.826311 135.20385 
L 114.985457 133.760651 
L 114.016962 132.09921 
L 113.199857 130.681335 
L 112.489931 129.43809 
L 111.414257 127.396234 
L 111.091922 126.77697 
L 109.849664 124.11585 
L 109.628657 123.574549 
L 108.75004 121.45473 
L 107.867885 118.79361 
L 107.807345 118.579758 
L 107.068396 116.13249 
L 106.44653 113.47137 
L 106.021745 111.100602 
L 105.963046 110.81025 
L 105.534265 108.14913 
L 105.226263 105.48801 
L 105.020375 102.82689 
L 104.904567 100.16577 
L 104.872468 97.50465 
L 104.922922 94.84353 
L 105.059977 92.18241 
L 105.293285 89.52129 
L 105.709066 86.41665 
L 106.021745 84.731392 
L 106.184472 83.75553 
L 106.756141 81.09441 
L 107.517849 78.43329 
L 107.807345 77.597814 
L 108.425399 75.77217 
L 109.566474 73.11105 
L 109.628657 72.982199 
L 110.887906 70.44993 
L 111.414257 69.523888 
L 112.450402 67.78881 
L 113.199857 66.615683 
L 114.186889 65.12769 
L 114.985457 63.926326 
L 115.945238 62.46657 
L 116.806769 61.07426 
L 117.53006 59.80545 
L 118.592369 57.689534 
L 118.82876 57.14433 
L 119.768339 54.48321 
L 120.377969 52.318299 
L 120.491923 51.82209 
L 120.950774 49.16097 
L 121.290261 46.49985 
L 121.57597 43.39521 
L 121.758736 40.73409 
L 121.910874 38.07297 
L 122.054659 35.41185 
L 122.163569 33.538134 
L 122.20107 32.75073 
L 122.351058 30.08961 
L 122.541913 27.42849 
L 122.791265 24.76737 
L 123.119999 22.10625 
" clip-path="url(#pe6500b7cb8)" style="fill: none; stroke: #deebf7; stroke-width: 1.5"/>
    <path d="M 301.838263 22.10625 
L 302.667407 27.42849 
L 303.144204 32.75073 
L 303.500136 40.73409 
L 303.655403 49.16097 
L 303.705597 70.44993 
L 303.773739 121.45473 
L 304.031407 129.43809 
L 304.226955 132.09921 
L 304.579705 135.20385 
L 305.223281 138.666273 
L 305.79793 140.52609 
L 307.008881 143.32877 
L 308.933155 145.84833 
L 310.615793 147.15273 
L 313.058838 148.50945 
L 315.972593 149.551935 
L 319.579505 150.885672 
L 323.150705 152.580131 
L 324.9829 153.83169 
L 326.757617 155.20852 
L 328.543217 156.992565 
L 330.328817 159.186896 
L 332.150129 161.953573 
L 333.935729 165.434487 
L 334.680872 167.13729 
L 335.721329 170.172304 
L 336.423063 172.45953 
L 337.05157 175.12065 
L 338.010595 180.88641 
L 338.47552 186.20865 
L 338.574633 191.53089 
L 338.328635 196.85313 
L 338.058158 199.51425 
L 337.191458 204.83649 
L 336.587584 207.49761 
L 335.721329 210.335758 
L 334.860919 212.81985 
L 333.690499 215.48097 
L 332.150129 218.41581 
L 330.328817 221.401028 
L 326.757617 226.744108 
L 324.972017 229.924049 
L 324.090872 231.89121 
L 323.064482 234.55233 
L 321.643774 239.87457 
L 321.062879 242.53569 
L 319.901487 247.85793 
L 318.484448 253.18017 
L 317.561383 255.84129 
L 315.972593 259.604563 
L 315.213184 261.16353 
L 313.701097 263.82465 
L 310.615793 268.53632 
L 308.226314 272.25153 
L 306.799402 274.91265 
L 305.223281 278.893337 
L 304.115605 282.89601 
L 303.437681 285.65445 
L 302.921896 288.21825 
L 302.921896 288.21825 
" clip-path="url(#pe6500b7cb8)" style="fill: none; stroke: #deebf7; stroke-width: 1.5"/>
   </g>
   <g id="PathCollection_3">
    <path d="M 34.240625 141.139882 
L 36.026225 141.600122 
L 37.847537 142.650212 
L 38.449089 143.18721 
L 39.633137 144.421069 
L 40.641619 145.84833 
L 41.418737 147.269445 
L 41.979215 148.50945 
L 42.811556 151.17057 
L 43.204337 153.404616 
L 43.273938 153.83169 
L 43.389373 156.49281 
L 43.204337 158.806228 
L 43.173829 159.15393 
L 42.561249 161.81505 
L 41.492175 164.47617 
L 41.418737 164.608918 
L 39.633137 167.061182 
L 39.549724 167.13729 
L 37.847537 168.413427 
L 36.026225 169.098195 
L 34.240625 169.184618 
" clip-path="url(#pe6500b7cb8)" style="fill: none; stroke: #c6dbef; stroke-width: 1.5"/>
    <path d="M 128.672392 288.21825 
L 128.100946 285.55713 
L 127.664284 282.89601 
L 127.556081 282.051662 
L 127.305745 280.23489 
L 127.026702 277.57377 
L 126.819796 274.91265 
L 126.668694 272.25153 
L 126.560347 269.59041 
L 126.484321 266.92929 
L 126.425466 263.82465 
L 126.393192 261.16353 
L 126.372406 258.50241 
L 126.359341 255.84129 
L 126.351248 253.18017 
L 126.346248 250.51905 
L 126.343162 247.85793 
L 126.34131 245.19681 
L 126.340312 242.53569 
L 126.339918 239.87457 
L 126.3399 237.21345 
L 126.340031 234.55233 
L 126.340113 231.89121 
L 126.340037 229.23009 
L 126.339814 226.56897 
L 126.339548 223.90785 
L 126.339364 220.80321 
L 126.339409 218.14209 
L 126.339619 215.48097 
L 126.339878 212.81985 
L 126.340048 210.15873 
L 126.340034 207.49761 
L 126.339845 204.83649 
L 126.339582 202.17537 
L 126.339387 199.51425 
L 126.339363 196.85313 
L 126.339515 194.19201 
L 126.339747 191.53089 
L 126.339903 188.86977 
L 126.339832 186.20865 
L 126.339441 183.54753 
L 126.338683 180.88641 
L 126.337471 178.22529 
L 126.335103 175.12065 
L 126.331485 172.45953 
L 126.325066 169.79841 
L 126.31378 167.13729 
L 126.294542 164.47617 
L 126.262931 161.81505 
L 126.212772 159.15393 
L 126.135651 156.49281 
L 126.020438 153.83169 
L 125.852936 151.17057 
L 125.770481 150.243143 
L 125.593294 148.50945 
L 125.221452 145.84833 
L 124.727431 143.18721 
L 124.089467 140.52609 
L 123.984881 140.177754 
L 123.193657 137.86497 
L 122.163569 135.329178 
L 122.106578 135.20385 
L 120.496515 132.09921 
L 120.377969 131.89132 
L 118.920366 129.43809 
L 118.592369 128.899654 
L 117.302706 126.77697 
L 116.806769 125.934072 
L 115.769037 124.11585 
L 114.985457 122.60974 
L 114.405887 121.45473 
L 113.250368 118.79361 
L 113.199857 118.660126 
L 112.259139 116.13249 
L 111.479676 113.47137 
L 111.414257 113.198216 
L 110.82638 110.81025 
L 110.332642 108.14913 
L 109.978292 105.48801 
L 109.744643 102.82689 
L 109.628657 100.355475 
L 109.618754 100.16577 
L 109.594509 97.50465 
L 109.628657 96.506838 
L 109.680129 94.84353 
L 109.871878 92.18241 
L 110.186553 89.52129 
L 110.737116 86.41665 
L 111.40132 83.75553 
L 111.414257 83.713045 
L 112.220407 81.09441 
L 113.199857 78.63781 
L 113.285603 78.43329 
L 114.585481 75.77217 
L 114.985457 75.058599 
L 116.155772 73.11105 
L 116.806769 72.11012 
L 117.942782 70.44993 
L 118.592369 69.509613 
L 119.780412 67.78881 
L 120.377969 66.873103 
L 121.441419 65.12769 
L 122.163569 63.789497 
L 122.793028 62.46657 
L 123.845039 59.80545 
L 123.984881 59.366383 
L 124.586549 57.14433 
L 125.13936 54.48321 
L 125.554141 51.82209 
L 125.770481 49.952843 
L 125.849514 49.16097 
L 126.047521 46.49985 
L 126.222111 43.39521 
L 126.346684 40.73409 
L 126.467338 38.07297 
L 126.601039 35.41185 
L 126.764589 32.75073 
L 126.975783 30.08961 
L 127.254721 27.42849 
L 127.556081 25.246271 
L 127.61839 24.76737 
L 128.061605 22.10625 
" clip-path="url(#pe6500b7cb8)" style="fill: none; stroke: #c6dbef; stroke-width: 1.5"/>
    <path d="M 296.928858 22.10625 
L 297.500304 24.76737 
L 298.295505 30.08961 
L 298.781454 35.41185 
L 299.040903 40.73409 
L 299.208058 49.16097 
L 299.260938 67.78881 
L 299.364023 126.77697 
L 299.530681 132.09921 
L 299.963321 137.86497 
L 300.345555 140.52609 
L 300.876191 143.18721 
L 301.616369 145.89763 
L 302.751455 148.50945 
L 303.437681 149.735005 
L 304.46237 151.17057 
L 305.223281 152.034641 
L 307.366999 153.83169 
L 308.794481 154.64479 
L 310.615793 155.450634 
L 314.186993 156.663284 
L 317.793905 157.825853 
L 320.608487 159.15393 
L 321.365105 159.554442 
L 323.150705 160.755472 
L 324.972017 162.352488 
L 326.845787 164.47617 
L 328.642695 167.13729 
L 330.328817 170.513546 
L 331.112662 172.45953 
L 332.150129 175.929327 
L 332.716215 178.22529 
L 333.195128 180.88641 
L 333.52966 183.54753 
L 333.839647 188.86977 
L 333.718667 194.19201 
L 333.489213 196.85313 
L 333.129321 199.51425 
L 332.615565 202.17537 
L 331.932896 204.83649 
L 331.074275 207.49761 
L 329.973608 210.15873 
L 328.543217 212.9522 
L 326.757617 215.856691 
L 323.150705 221.08853 
L 321.365105 224.023186 
L 319.579505 227.957405 
L 319.126242 229.23009 
L 317.793905 233.920379 
L 317.093923 237.21345 
L 315.379505 245.19681 
L 314.186993 249.367514 
L 313.81664 250.51905 
L 312.401393 254.035355 
L 310.615793 257.509168 
L 308.794481 260.410296 
L 304.366858 266.92929 
L 302.905495 269.59041 
L 301.616369 272.556218 
L 300.849223 274.91265 
L 299.830769 278.701319 
L 297.782994 288.21825 
L 297.782994 288.21825 
" clip-path="url(#pe6500b7cb8)" style="fill: none; stroke: #c6dbef; stroke-width: 1.5"/>
   </g>
   <g id="PathCollection_4">
    <path d="M 132.544696 288.21825 
L 131.804851 285.55713 
L 131.238969 282.89601 
L 131.162993 282.440805 
L 130.795632 280.23489 
L 130.460665 277.57377 
L 130.212451 274.91265 
L 130.03139 272.25153 
L 129.901779 269.59041 
L 129.811032 266.92929 
L 129.740984 263.82465 
L 129.702697 261.16353 
L 129.678109 258.50241 
L 129.662686 255.84129 
L 129.653139 253.18017 
L 129.647241 250.51905 
L 129.643604 247.85793 
L 129.641436 245.19681 
L 129.640294 242.53569 
L 129.639871 239.87457 
L 129.639884 237.21345 
L 129.64005 234.55233 
L 129.640133 231.89121 
L 129.640014 229.23009 
L 129.639721 226.56897 
L 129.639395 223.90785 
L 129.639194 220.80321 
L 129.639279 218.14209 
L 129.639556 215.48097 
L 129.639875 212.81985 
L 129.640062 210.15873 
L 129.640017 207.49761 
L 129.639763 204.83649 
L 129.639437 202.17537 
L 129.639216 199.51425 
L 129.639216 196.85313 
L 129.639432 194.19201 
L 129.639736 191.53089 
L 129.639937 188.86977 
L 129.639875 186.20865 
L 129.639478 183.54753 
L 129.638754 180.88641 
L 129.637702 178.22529 
L 129.635826 175.12065 
L 129.633062 172.45953 
L 129.628145 169.79841 
L 129.619405 167.13729 
L 129.604405 164.47617 
L 129.579727 161.81505 
L 129.540645 159.15393 
L 129.480704 156.49281 
L 129.391266 153.83169 
L 129.341681 152.814389 
L 129.255316 151.17057 
L 129.057581 148.50945 
L 128.784125 145.84833 
L 128.414733 143.18721 
L 127.926851 140.52609 
L 127.556081 138.948097 
L 127.274507 137.86497 
L 126.419779 135.20385 
L 125.770481 133.550412 
L 125.140491 132.09921 
L 123.984881 129.799199 
L 123.7892 129.43809 
L 122.230367 126.77697 
L 122.163569 126.668272 
L 120.579122 124.11585 
L 120.377969 123.78809 
L 118.989783 121.45473 
L 118.592369 120.737966 
L 117.570936 118.79361 
L 116.806769 117.135107 
L 116.368956 116.13249 
L 115.388702 113.47137 
L 114.985457 112.116866 
L 114.607625 110.81025 
L 114.008942 108.14913 
L 113.578397 105.48801 
L 113.297464 102.82689 
L 113.199857 101.012951 
L 113.152609 100.16577 
L 113.142628 97.50465 
L 113.199857 96.329101 
L 113.270485 94.84353 
L 113.540304 92.18241 
L 113.971114 89.52129 
L 114.711231 86.41665 
L 114.985457 85.54427 
L 115.582284 83.75553 
L 116.709599 81.09441 
L 116.806769 80.897632 
L 118.133279 78.43329 
L 118.592369 77.678086 
L 119.842536 75.77217 
L 120.377969 74.996957 
L 121.722214 73.11105 
L 122.163569 72.481625 
L 123.538326 70.44993 
L 123.984881 69.732642 
L 125.084337 67.78881 
L 125.770481 66.380498 
L 126.308847 65.12769 
L 127.242701 62.46657 
L 127.556081 61.344514 
L 127.935782 59.80545 
L 128.442302 57.14433 
L 128.822319 54.48321 
L 129.104893 51.82209 
L 129.315782 49.16097 
L 129.341681 48.737652 
L 129.468358 46.49985 
L 129.612358 43.39521 
L 129.728538 40.73409 
L 129.855685 38.07297 
L 130.010651 35.41185 
L 130.211491 32.75073 
L 130.478689 30.08961 
L 130.836617 27.42849 
L 131.162993 25.586572 
L 131.311066 24.76737 
L 131.931896 22.10625 
" clip-path="url(#pe6500b7cb8)" style="fill: none; stroke: #9dcae1; stroke-width: 1.5"/>
    <path d="M 293.056554 22.10625 
L 293.796399 24.76737 
L 294.438257 27.883695 
L 295.140585 32.75073 
L 295.56986 38.07297 
L 295.790218 43.39521 
L 295.938564 54.48321 
L 295.96206 89.52129 
L 296.035528 126.77697 
L 296.287376 135.20385 
L 296.719825 140.52609 
L 297.071964 143.18721 
L 297.552233 145.84833 
L 298.21399 148.50945 
L 299.16267 151.17057 
L 300.48888 153.83169 
L 301.616369 155.496915 
L 303.437681 157.464132 
L 305.725705 159.15393 
L 307.008881 159.85294 
L 308.794481 160.619104 
L 312.424271 161.81505 
L 315.972593 162.90999 
L 317.793905 163.641121 
L 319.579505 164.569484 
L 321.365105 165.772515 
L 323.150705 167.374532 
L 325.128173 169.79841 
L 326.757617 172.575991 
L 327.861772 175.12065 
L 328.858375 178.22529 
L 329.469415 180.88641 
L 329.893828 183.54753 
L 330.157131 186.20865 
L 330.274527 188.86977 
L 330.252314 191.53089 
L 330.088531 194.19201 
L 329.773064 196.85313 
L 329.287333 199.51425 
L 328.543217 202.362699 
L 327.69607 204.83649 
L 326.521063 207.49761 
L 324.972017 210.284323 
L 323.150705 213.027309 
L 319.579505 218.157096 
L 317.793905 221.363501 
L 316.687373 223.90785 
L 315.755475 226.56897 
L 314.405606 231.89121 
L 312.159097 242.53569 
L 311.429581 245.19681 
L 310.531562 247.85793 
L 308.794481 251.800952 
L 307.008881 254.91205 
L 304.529626 258.50241 
L 301.616369 262.725167 
L 300.954021 263.82465 
L 299.377177 266.92929 
L 298.045169 270.462118 
L 297.515248 272.25153 
L 296.247102 277.57377 
L 294.551233 285.55713 
L 293.835083 288.21825 
L 293.835083 288.21825 
" clip-path="url(#pe6500b7cb8)" style="fill: none; stroke: #9dcae1; stroke-width: 1.5"/>
   </g>
   <g id="PathCollection_5">
    <path d="M 136.330292 288.21825 
L 135.325718 285.55713 
L 134.734193 283.534999 
L 134.563695 282.89601 
L 134.004218 280.23489 
L 133.584107 277.57377 
L 133.272798 274.91265 
L 133.045829 272.25153 
L 132.948593 270.66476 
L 132.883893 269.59041 
L 132.771133 266.92929 
L 132.684334 263.82465 
L 132.637034 261.16353 
L 132.606734 258.50241 
L 132.587759 255.84129 
L 132.57602 253.18017 
L 132.568766 250.51905 
L 132.564299 247.85793 
L 132.561656 245.19681 
L 132.560291 242.53569 
L 132.559817 239.87457 
L 132.559868 237.21345 
L 132.560081 234.55233 
L 132.560165 231.89121 
L 132.559986 229.23009 
L 132.559595 226.56897 
L 132.559184 223.90785 
L 132.558958 220.80321 
L 132.559097 218.14209 
L 132.559468 215.48097 
L 132.559871 212.81985 
L 132.560086 210.15873 
L 132.559996 207.49761 
L 132.55965 204.83649 
L 132.559236 202.17537 
L 132.558976 199.51425 
L 132.55901 196.85313 
L 132.559314 194.19201 
L 132.559714 191.53089 
L 132.559971 188.86977 
L 132.559901 186.20865 
L 132.559451 183.54753 
L 132.55869 180.88641 
L 132.557692 178.22529 
L 132.556102 175.12065 
L 132.553867 172.45953 
L 132.549854 169.79841 
L 132.542586 167.13729 
L 132.529981 164.47617 
L 132.509198 161.81505 
L 132.47638 159.15393 
L 132.426281 156.49281 
L 132.351836 153.83169 
L 132.243772 151.17057 
L 132.090318 148.50945 
L 131.877027 145.84833 
L 131.586652 143.18721 
L 131.198955 140.52609 
L 131.162993 140.332237 
L 130.682216 137.86497 
L 130.019861 135.20385 
L 129.341681 133.049253 
L 129.016292 132.09921 
L 127.920637 129.43809 
L 127.556081 128.670825 
L 126.586182 126.77697 
L 125.770481 125.334996 
L 125.045268 124.11585 
L 123.984881 122.405554 
L 123.390841 121.45473 
L 122.163569 119.454205 
L 121.772983 118.79361 
L 120.377969 116.239235 
L 120.323346 116.13249 
L 119.122982 113.47137 
L 118.592369 112.055435 
L 118.158941 110.81025 
L 117.428968 108.14913 
L 116.898345 105.48801 
L 116.806769 104.786755 
L 116.561156 102.82689 
L 116.400598 100.16577 
L 116.410269 97.50465 
L 116.593819 94.84353 
L 116.806769 93.289433 
L 116.968352 92.18241 
L 117.561046 89.52129 
L 118.552431 86.41665 
L 118.592369 86.318004 
L 119.743686 83.75553 
L 120.377969 82.574643 
L 121.256555 81.09441 
L 122.163569 79.712611 
L 123.055365 78.43329 
L 123.984881 77.136613 
L 124.955907 75.77217 
L 125.770481 74.578349 
L 126.702135 73.11105 
L 127.556081 71.61005 
L 128.148922 70.44993 
L 129.292061 67.78881 
L 129.341681 67.650129 
L 130.153175 65.12769 
L 130.818058 62.46657 
L 131.162993 60.682221 
L 131.321463 59.80545 
L 131.693283 57.14433 
L 131.97142 54.48321 
L 132.17978 51.82209 
L 132.339356 49.16097 
L 132.469095 46.49985 
L 132.606262 43.39521 
L 132.731224 40.73409 
L 132.881439 38.07297 
L 132.948593 37.144368 
L 133.076868 35.41185 
L 133.339238 32.75073 
L 133.69388 30.08961 
L 134.172611 27.42849 
L 134.734193 25.08953 
L 134.820105 24.76737 
L 135.728257 22.10625 
" clip-path="url(#pe6500b7cb8)" style="fill: none; stroke: #6aaed6; stroke-width: 1.5"/>
    <path d="M 289.270958 22.10625 
L 290.275532 24.76737 
L 291.037555 27.42849 
L 291.597032 30.08961 
L 292.328452 35.41185 
L 292.717357 40.73409 
L 292.964216 49.16097 
L 293.039594 65.12769 
L 293.139276 129.43809 
L 293.433027 137.86497 
L 293.879819 143.18721 
L 294.438257 147.013957 
L 294.718061 148.50945 
L 295.367578 151.17057 
L 296.259569 153.934439 
L 297.4038 156.49281 
L 298.045169 157.654394 
L 299.830769 160.172351 
L 301.616369 161.986627 
L 303.437681 163.337897 
L 305.473544 164.47617 
L 307.008881 165.155106 
L 310.615793 166.368878 
L 314.186993 167.473594 
L 315.972593 168.162742 
L 317.793905 169.064575 
L 319.579505 170.260155 
L 321.839572 172.45953 
L 323.667028 175.12065 
L 325.10346 178.22529 
L 325.921243 180.88641 
L 326.487271 183.54753 
L 326.8317 186.20865 
L 326.974594 188.86977 
L 326.934476 191.53089 
L 326.707634 194.19201 
L 326.2717 196.85313 
L 325.614523 199.51425 
L 324.695534 202.17537 
L 323.150705 205.41154 
L 321.365105 208.299815 
L 316.450436 215.48097 
L 315.037687 218.14209 
L 313.905502 220.80321 
L 312.401393 225.696239 
L 311.589554 229.23009 
L 309.352489 239.87457 
L 308.600897 242.53569 
L 307.008881 246.741478 
L 306.484675 247.85793 
L 305.017313 250.51905 
L 303.245823 253.18017 
L 299.445513 258.50241 
L 297.856304 261.16353 
L 296.259569 264.639689 
L 295.435847 266.92929 
L 294.438257 270.439751 
L 293.438331 274.91265 
L 291.715598 282.89601 
L 290.867057 285.861714 
L 289.990387 288.21825 
L 289.990387 288.21825 
" clip-path="url(#pe6500b7cb8)" style="fill: none; stroke: #6aaed6; stroke-width: 1.5"/>
   </g>
   <g id="PathCollection_6">
    <path d="M 140.968878 288.21825 
L 140.126705 287.01556 
L 139.314961 285.55713 
L 138.341105 283.354612 
L 138.171323 282.89601 
L 137.392976 280.23489 
L 136.808022 277.57377 
L 136.519793 275.81726 
L 136.386939 274.91265 
L 136.09832 272.25153 
L 135.892303 269.59041 
L 135.748591 266.92929 
L 135.638182 263.82465 
L 135.578151 261.16353 
L 135.539768 258.50241 
L 135.515762 255.84129 
L 135.500914 253.18017 
L 135.491736 250.51905 
L 135.486094 247.85793 
L 135.48278 245.19681 
L 135.481102 242.53569 
L 135.480558 239.87457 
L 135.480661 237.21345 
L 135.480938 234.55233 
L 135.481019 231.89121 
L 135.48075 229.23009 
L 135.480221 226.56897 
L 135.479693 223.90785 
L 135.479436 220.80321 
L 135.479655 218.14209 
L 135.48016 215.48097 
L 135.480678 212.81985 
L 135.480927 210.15873 
L 135.480772 207.49761 
L 135.480296 204.83649 
L 135.479758 202.17537 
L 135.479448 199.51425 
L 135.479533 196.85313 
L 135.479961 194.19201 
L 135.480493 191.53089 
L 135.480821 188.86977 
L 135.480728 186.20865 
L 135.480186 183.54753 
L 135.479335 180.88641 
L 135.478346 178.22529 
L 135.476998 175.12065 
L 135.475229 172.45953 
L 135.471981 169.79841 
L 135.465898 167.13729 
L 135.455148 164.47617 
L 135.437344 161.81505 
L 135.409321 159.15393 
L 135.366783 156.49281 
L 135.303878 153.83169 
L 135.212801 151.17057 
L 135.083499 148.50945 
L 134.903474 145.84833 
L 134.734193 144.003649 
L 134.661602 143.18721 
L 134.349794 140.52609 
L 133.939904 137.86497 
L 133.4087 135.20385 
L 132.948593 133.392222 
L 132.607909 132.09921 
L 131.742318 129.43809 
L 131.162993 127.955822 
L 130.673456 126.77697 
L 129.38741 124.11585 
L 129.341681 124.029574 
L 127.894242 121.45473 
L 127.556081 120.888362 
L 126.266496 118.79361 
L 125.770481 117.986809 
L 124.649097 116.13249 
L 123.984881 114.958959 
L 123.195201 113.47137 
L 122.163569 111.243042 
L 121.980853 110.81025 
L 121.070347 108.14913 
L 120.392796 105.48801 
L 120.377969 105.398435 
L 119.992443 102.82689 
L 119.813627 100.16577 
L 119.856044 97.50465 
L 120.126493 94.84353 
L 120.377969 93.517157 
L 120.664759 92.18241 
L 121.506192 89.52129 
L 122.163569 87.971168 
L 122.915265 86.41665 
L 123.984881 84.577481 
L 124.507314 83.75553 
L 125.770481 81.925588 
L 126.355185 81.09441 
L 127.556081 79.397366 
L 128.203835 78.43329 
L 129.341681 76.624244 
L 129.829956 75.77217 
L 131.15905 73.11105 
L 131.162993 73.101921 
L 132.207075 70.44993 
L 132.948593 68.059829 
L 133.027899 67.78881 
L 133.668619 65.12769 
L 134.159022 62.46657 
L 134.531345 59.80545 
L 134.734193 57.899049 
L 134.81593 57.14433 
L 135.037902 54.48321 
L 135.207911 51.82209 
L 135.344512 49.16097 
L 135.465302 46.49985 
L 135.609551 43.39521 
L 135.756888 40.73409 
L 135.947191 38.07297 
L 136.203429 35.41185 
L 136.519793 32.997747 
L 136.556214 32.75073 
L 137.080326 30.08961 
L 137.791406 27.42849 
L 138.341105 25.86707 
L 138.812141 24.76737 
L 140.126705 22.391048 
L 140.329955 22.10625 
" clip-path="url(#pe6500b7cb8)" style="fill: none; stroke: #4191c6; stroke-width: 1.5"/>
    <path d="M 284.632372 22.10625 
L 285.474545 23.30894 
L 286.286289 24.76737 
L 287.429927 27.42849 
L 288.208274 30.08961 
L 289.081457 34.50724 
L 289.50293 38.07297 
L 289.852659 43.39521 
L 290.061482 51.82209 
L 290.120692 70.44993 
L 290.201848 129.43809 
L 290.442561 137.86497 
L 290.867057 143.754428 
L 291.451963 148.50945 
L 291.93859 151.17057 
L 292.652657 154.09224 
L 293.398562 156.49281 
L 294.465623 159.15393 
L 296.259569 162.398483 
L 298.045169 164.715249 
L 299.830769 166.439028 
L 301.616369 167.766531 
L 303.437681 168.826135 
L 307.008881 170.354047 
L 314.186993 172.830593 
L 315.972593 173.747801 
L 317.951671 175.12065 
L 319.579505 176.851286 
L 320.570174 178.22529 
L 321.905351 180.88641 
L 322.747087 183.54753 
L 323.248164 186.20865 
L 323.439661 188.86977 
L 323.380916 191.53089 
L 323.064468 194.19201 
L 322.440397 196.85313 
L 321.365105 199.890651 
L 319.579505 203.283348 
L 317.793905 205.98574 
L 314.918088 210.15873 
L 313.33953 212.81985 
L 312.044798 215.48097 
L 310.615793 219.339866 
L 310.163607 220.80321 
L 308.793874 226.56897 
L 306.523447 237.21345 
L 305.223281 241.325746 
L 304.739201 242.53569 
L 303.437681 245.280732 
L 301.616369 248.245311 
L 296.259569 255.885193 
L 294.438257 259.329928 
L 293.651753 261.16353 
L 292.652657 264.017455 
L 291.823487 266.92929 
L 290.632018 272.25153 
L 289.081457 279.386819 
L 288.856553 280.23489 
L 288.020877 282.89601 
L 286.932502 285.55713 
L 285.36295 288.21825 
L 285.36295 288.21825 
" clip-path="url(#pe6500b7cb8)" style="fill: none; stroke: #4191c6; stroke-width: 1.5"/>
   </g>
   <g id="PathCollection_7">
    <path d="M 152.246703 288.21825 
L 150.876017 287.905277 
L 149.090417 287.345817 
L 147.304817 286.567206 
L 145.519217 285.460173 
L 143.697905 283.618478 
L 143.167743 282.89601 
L 141.685961 280.23489 
L 140.755269 277.57377 
L 140.075208 274.91265 
L 139.654088 272.25153 
L 139.14446 266.92929 
L 138.896911 261.16353 
L 138.771856 250.51905 
L 138.75646 210.15873 
L 138.653076 156.49281 
L 138.40153 148.50945 
L 138.065096 143.18721 
L 137.474685 137.86497 
L 137.0369 135.20385 
L 135.704635 129.43809 
L 134.734193 126.458296 
L 133.853517 124.11585 
L 132.650558 121.45473 
L 131.162993 118.607221 
L 126.760722 110.81025 
L 125.567474 108.14913 
L 124.727187 105.48801 
L 124.176651 102.82689 
L 123.984881 99.459607 
L 124.076894 97.50465 
L 124.559461 94.84353 
L 125.770481 91.302531 
L 126.641989 89.52129 
L 128.534119 86.41665 
L 131.162993 82.441356 
L 132.948593 79.319018 
L 133.397014 78.43329 
L 134.734193 75.318684 
L 135.523586 73.11105 
L 136.519793 69.376246 
L 136.887632 67.78881 
L 137.374961 65.12769 
L 138.029592 59.80545 
L 138.572033 51.82209 
L 139.22903 40.73409 
L 139.9027 35.41185 
L 140.505901 32.75073 
L 141.395295 30.08961 
L 141.912305 28.92446 
L 142.781461 27.42849 
L 143.697905 26.202484 
L 145.519217 24.500328 
L 147.304817 23.488115 
L 149.090417 22.775482 
L 151.644165 22.10625 
L 151.644165 22.10625 
" clip-path="url(#pe6500b7cb8)" style="fill: none; stroke: #2070b4; stroke-width: 1.5"/>
    <path d="M 273.354547 22.10625 
L 274.725233 22.419223 
L 276.510833 22.978683 
L 278.296433 23.757294 
L 280.082033 24.864327 
L 281.903345 26.706022 
L 282.433507 27.42849 
L 283.915289 30.08961 
L 284.845981 32.75073 
L 285.526042 35.41185 
L 285.947162 38.07297 
L 286.45679 43.39521 
L 286.704339 49.16097 
L 286.829394 59.80545 
L 286.844871 100.16577 
L 286.959441 132.09921 
L 287.260145 140.532976 
L 287.637108 145.84833 
L 288.314106 151.17057 
L 289.081457 154.94246 
L 289.438623 156.49281 
L 290.210052 159.15393 
L 291.191922 161.81505 
L 292.652657 164.903574 
L 294.438257 167.745962 
L 296.259569 169.912119 
L 298.045169 171.567595 
L 299.830769 172.853716 
L 301.616369 173.916972 
L 305.223281 175.560108 
L 312.401393 178.486132 
L 314.186993 179.643097 
L 315.972593 181.235448 
L 317.514017 183.54753 
L 317.793905 184.212656 
L 318.447518 186.20865 
L 318.835314 188.86977 
L 318.775254 191.53089 
L 318.303853 194.19201 
L 317.405659 196.85313 
L 315.972593 199.715662 
L 310.615793 208.464883 
L 309.774339 210.15873 
L 308.647374 212.81985 
L 307.70181 215.48097 
L 306.257156 220.80321 
L 303.226635 234.55233 
L 301.616369 238.999871 
L 301.208625 239.87457 
L 299.774045 242.53569 
L 297.997893 245.19681 
L 294.239409 250.51905 
L 292.652657 253.222578 
L 290.867057 257.086926 
L 290.315283 258.50241 
L 289.081457 262.513784 
L 288.717679 263.82465 
L 287.260145 270.411579 
L 286.207662 274.91265 
L 285.474545 277.611865 
L 284.444105 280.23489 
L 283.688945 281.777404 
L 282.981008 282.89601 
L 281.903345 284.264738 
L 280.082033 285.884703 
L 278.296433 286.870396 
L 276.510833 287.568255 
L 273.999881 288.21825 
L 273.999881 288.21825 
" clip-path="url(#pe6500b7cb8)" style="fill: none; stroke: #2070b4; stroke-width: 1.5"/>
   </g>
   <g id="PathCollection_8">
    <path d="M 130.79281 102.82689 
L 130.615548 100.16577 
L 130.901727 97.50465 
L 131.162993 96.557413 
L 131.687044 94.84353 
L 132.84917 92.18241 
L 132.948593 91.997508 
L 134.262476 89.52129 
L 134.734193 88.684321 
L 135.928063 86.41665 
L 136.519793 85.241281 
L 137.242307 83.75553 
L 138.341105 81.146969 
L 138.363322 81.09441 
L 139.378417 78.43329 
L 140.126705 75.909971 
L 140.170274 75.77217 
L 140.892627 73.11105 
L 141.444259 70.44993 
L 141.865484 67.78881 
L 141.912305 67.421355 
L 142.255112 65.12769 
L 142.561779 62.46657 
L 142.797745 59.80545 
L 142.982878 57.14433 
L 143.13538 54.48321 
L 143.273773 51.82209 
L 143.418576 49.16097 
L 143.593725 46.49985 
L 143.697905 45.348843 
L 143.92783 43.39521 
L 144.379639 40.73409 
L 145.020958 38.07297 
L 145.519217 36.594313 
L 146.062647 35.41185 
L 147.304817 33.439945 
L 147.908854 32.75073 
L 149.090417 31.730758 
L 150.876017 30.624068 
L 152.063173 30.08961 
L 152.697329 29.864833 
L 154.482929 29.402401 
L 156.268529 29.078762 
L 158.054129 28.87682 
L 159.875441 28.78124 
L 161.661041 28.773694 
L 163.446641 28.819263 
L 165.232241 28.87981 
L 167.053553 28.920501 
L 168.839153 28.917188 
L 170.624753 28.868472 
L 172.410353 28.791092 
L 174.231665 28.712373 
L 176.017265 28.664815 
L 177.802865 28.664534 
L 179.588465 28.711463 
L 181.409777 28.789374 
L 183.195377 28.865658 
L 184.980977 28.91245 
L 186.766577 28.911722 
L 188.587889 28.862354 
L 190.373489 28.785196 
L 192.159089 28.709314 
L 193.944689 28.663649 
L 195.766001 28.66604 
L 197.551601 28.715435 
L 199.337201 28.792629 
L 201.122801 28.86826 
L 202.944113 28.913838 
L 204.729713 28.91007 
L 206.515313 28.859636 
L 208.300913 28.781926 
L 210.122225 28.705475 
L 211.907825 28.662334 
L 213.693425 28.667195 
L 215.479025 28.718163 
L 217.300337 28.797525 
L 219.085937 28.872077 
L 220.871537 28.914665 
L 222.657137 28.908872 
L 224.478449 28.855475 
L 226.264049 28.777028 
L 228.049649 28.702981 
L 229.835249 28.661556 
L 231.656561 28.66907 
L 233.442161 28.722337 
L 235.227761 28.800783 
L 237.013361 28.874556 
L 238.834673 28.915757 
L 240.620273 28.906935 
L 242.405873 28.852654 
L 244.191473 28.773787 
L 246.012785 28.699381 
L 247.798385 28.660636 
L 249.583985 28.67064 
L 251.369585 28.725684 
L 253.190897 28.806804 
L 254.976497 28.880637 
L 256.762097 28.921523 
L 258.547697 28.915946 
L 260.369009 28.869036 
L 262.154609 28.808394 
L 263.940209 28.770191 
L 265.725809 28.791994 
L 267.547121 28.906965 
L 269.332721 29.130139 
L 271.118321 29.475873 
L 272.903921 29.961907 
L 273.249233 30.08961 
L 274.725233 30.779847 
L 276.510833 31.924276 
L 277.446068 32.75073 
L 278.296433 33.735471 
L 279.347526 35.41185 
L 280.082033 37.000823 
L 280.448383 38.07297 
L 281.10191 40.73409 
L 281.556752 43.39521 
L 281.903345 46.485056 
L 281.904618 46.49985 
L 282.050038 49.16097 
L 282.142709 51.82209 
L 282.20056 54.48321 
L 282.236339 57.14433 
L 282.258457 59.80545 
L 282.271993 62.46657 
L 282.279806 65.12769 
L 282.283585 67.78881 
L 282.284633 70.44993 
L 282.284221 73.11105 
L 282.283559 75.77217 
L 282.283518 78.43329 
L 282.284378 81.09441 
L 282.285801 83.75553 
L 282.287078 86.41665 
L 282.287518 89.52129 
L 282.28678 92.18241 
L 282.285418 94.84353 
L 282.284183 97.50465 
L 282.283764 100.16577 
L 282.284428 102.82689 
L 282.28589 105.48801 
L 282.287505 108.14913 
L 282.28867 110.81025 
L 282.289249 113.47137 
L 282.289798 116.13249 
L 282.291516 118.79361 
L 282.295968 121.45473 
L 282.304798 124.11585 
L 282.319643 126.77697 
L 282.342363 129.43809 
L 282.37555 132.09921 
L 282.432825 135.20385 
L 282.504556 137.86497 
L 282.605631 140.52609 
L 282.746183 143.18721 
L 282.938441 145.84833 
L 283.197118 148.50945 
L 283.540404 151.17057 
L 283.688945 152.08475 
L 283.929207 153.83169 
L 284.395817 156.49281 
L 285.002792 159.15393 
L 285.474545 160.808802 
L 285.737584 161.81505 
L 286.586568 164.47617 
L 287.260145 166.177489 
L 287.635969 167.13729 
L 288.887944 169.79841 
L 289.081457 170.162705 
L 290.39574 172.45953 
L 290.867057 173.194738 
L 292.296098 175.12065 
L 292.652657 175.579948 
L 294.438257 177.490039 
L 295.327326 178.22529 
L 296.259569 179.027232 
L 298.045169 180.251814 
L 299.188598 180.88641 
L 299.830769 181.287863 
L 301.616369 182.285331 
L 303.437681 183.213828 
L 304.09612 183.54753 
L 305.223281 184.291278 
L 307.008881 185.556528 
L 307.833272 186.20865 
L 308.794481 187.449225 
L 309.699287 188.86977 
L 310.275033 191.53089 
L 309.987799 194.19201 
L 309.181743 196.85313 
L 308.794481 197.760437 
L 308.085717 199.51425 
L 307.008881 201.985646 
L 306.929919 202.17537 
L 305.776668 204.83649 
L 305.223281 206.249871 
L 304.735898 207.49761 
L 303.817316 210.15873 
L 303.437681 211.445212 
L 303.004625 212.81985 
L 302.287401 215.48097 
L 301.69505 218.14209 
L 301.616369 218.528081 
L 301.079493 220.80321 
L 300.404066 223.90785 
L 299.830769 226.553628 
L 299.826743 226.56897 
L 299.046583 229.23009 
L 298.176461 231.89121 
L 298.045169 232.231351 
L 296.982208 234.55233 
L 296.259569 235.941502 
L 295.51996 237.21345 
L 294.438257 238.914369 
L 293.81108 239.87457 
L 292.652657 241.578306 
L 292.02779 242.53569 
L 290.867057 244.346633 
L 290.355924 245.19681 
L 289.081457 247.491494 
L 288.88714 247.85793 
L 287.609235 250.51905 
L 287.260145 251.367749 
L 286.510527 253.18017 
L 285.61236 255.84129 
L 285.474545 256.315172 
L 284.789319 258.50241 
L 284.101348 261.16353 
L 283.688945 263.002111 
L 283.475125 263.82465 
L 282.70423 266.92929 
L 282.040937 269.59041 
L 281.903345 270.079434 
L 281.129424 272.25153 
L 280.082033 274.701121 
L 279.962392 274.91265 
L 278.296433 277.23083 
L 277.96184 277.57377 
L 276.510833 278.734803 
L 274.725233 279.776467 
L 273.659183 280.23489 
L 272.903921 280.492626 
L 271.118321 280.940652 
L 269.332721 281.256066 
L 267.547121 281.453366 
L 265.725809 281.546316 
L 263.940209 281.552445 
L 262.154609 281.5061 
L 260.369009 281.445132 
L 258.547697 281.404216 
L 256.762097 281.407416 
L 254.976497 281.456076 
L 253.190897 281.53343 
L 251.369585 281.612136 
L 249.583985 281.659689 
L 247.798385 281.659968 
L 246.012785 281.613037 
L 244.191473 281.535126 
L 242.405873 281.458842 
L 240.620273 281.41205 
L 238.834673 281.412778 
L 237.013361 281.462146 
L 235.227761 281.539304 
L 233.442161 281.615186 
L 231.656561 281.660851 
L 229.835249 281.65846 
L 228.049649 281.609065 
L 226.264049 281.531871 
L 224.478449 281.45624 
L 222.657137 281.410662 
L 220.871537 281.41443 
L 219.085937 281.464864 
L 217.300337 281.542574 
L 215.479025 281.619025 
L 213.693425 281.662166 
L 211.907825 281.657305 
L 210.122225 281.606337 
L 208.300913 281.526975 
L 206.515313 281.452423 
L 204.729713 281.409835 
L 202.944113 281.415628 
L 201.122801 281.469025 
L 199.337201 281.547472 
L 197.551601 281.621519 
L 195.766001 281.662944 
L 193.944689 281.65543 
L 192.159089 281.602163 
L 190.373489 281.523717 
L 188.587889 281.449944 
L 186.766577 281.408743 
L 184.980977 281.417565 
L 183.195377 281.471846 
L 181.409777 281.550713 
L 179.588465 281.625119 
L 177.802865 281.663864 
L 176.017265 281.65386 
L 174.231665 281.598816 
L 172.410353 281.517696 
L 170.624753 281.443863 
L 168.839153 281.402977 
L 167.053553 281.408554 
L 165.232241 281.455464 
L 163.446641 281.516106 
L 161.661041 281.554309 
L 159.875441 281.532506 
L 158.054129 281.417535 
L 156.268529 281.194361 
L 154.482929 280.848627 
L 152.697329 280.362593 
L 152.352017 280.23489 
L 150.876017 279.544653 
L 149.090417 278.400224 
L 148.155182 277.57377 
L 147.304817 276.589029 
L 146.253724 274.91265 
L 145.519217 273.323677 
L 145.152867 272.25153 
L 144.49934 269.59041 
L 144.044498 266.92929 
L 143.697905 263.839444 
L 143.696632 263.82465 
L 143.551212 261.16353 
L 143.458541 258.50241 
L 143.40069 255.84129 
L 143.364911 253.18017 
L 143.342793 250.51905 
L 143.329257 247.85793 
L 143.321444 245.19681 
L 143.317665 242.53569 
L 143.316617 239.87457 
L 143.317029 237.21345 
L 143.317691 234.55233 
L 143.317732 231.89121 
L 143.316872 229.23009 
L 143.315449 226.56897 
L 143.314173 223.90785 
L 143.313734 220.80321 
L 143.314477 218.14209 
L 143.315846 215.48097 
L 143.317098 212.81985 
L 143.317553 210.15873 
L 143.316964 207.49761 
L 143.31565 204.83649 
L 143.314323 202.17537 
L 143.313702 199.51425 
L 143.314121 196.85313 
L 143.315351 194.19201 
L 143.316718 191.53089 
L 143.317465 188.86977 
L 143.317159 186.20865 
L 143.315904 183.54753 
L 143.314265 180.88641 
L 143.312911 178.22529 
L 143.312103 175.12065 
L 143.311642 172.45953 
L 143.310264 169.79841 
L 143.306455 167.13729 
L 143.298584 164.47617 
L 143.285045 161.81505 
L 143.264077 159.15393 
L 143.233299 156.49281 
L 143.189117 153.83169 
L 143.126228 151.17057 
L 143.037363 148.50945 
L 142.913274 145.84833 
L 142.742765 143.18721 
L 142.512516 140.52609 
L 142.206443 137.86497 
L 141.912305 135.88808 
L 141.826797 135.20385 
L 141.333408 132.09921 
L 140.776953 129.43809 
L 140.126705 127.00201 
L 140.072466 126.77697 
L 139.323482 124.11585 
L 138.371272 121.45473 
L 138.341105 121.378236 
L 137.358728 118.79361 
L 136.519793 116.910466 
L 136.172452 116.13249 
L 134.898819 113.47137 
L 134.734193 113.125217 
L 133.618696 110.81025 
L 132.948593 109.343143 
L 132.405597 108.14913 
L 131.410614 105.48801 
L 131.162993 104.476202 
L 130.79281 102.82689 
z
" clip-path="url(#pe6500b7cb8)" style="fill: none; stroke: #08509b; stroke-width: 1.5"/>
   </g>
   <g id="PathCollection_9"/>
   <g id="patch_3">
    <path d="M 34.240625 288.21825 
L 34.240625 22.10625 
" style="fill: none; stroke: #000000; stroke-width: 0.8; stroke-linejoin: miter; stroke-linecap: square"/>
   </g>
   <g id="patch_4">
    <path d="M 391.360625 288.21825 
L 391.360625 22.10625 
" style="fill: none; stroke: #000000; stroke-width: 0.8; stroke-linejoin: miter; stroke-linecap: square"/>
   </g>
   <g id="patch_5">
    <path d="M 34.240625 288.21825 
L 391.360625 288.21825 
" style="fill: none; stroke: #000000; stroke-width: 0.8; stroke-linejoin: miter; stroke-linecap: square"/>
   </g>
   <g id="patch_6">
    <path d="M 34.240625 22.10625 
L 391.360625 22.10625 
" style="fill: none; stroke: #000000; stroke-width: 0.8; stroke-linejoin: miter; stroke-linecap: square"/>
   </g>
   <g id="text_16">
    <!-- 7.1_cross_-43.0 -->
    <g transform="translate(166.181563 16.10625)scale(0.12 -0.12)">
     <defs>
      <path id="DejaVuSans-37" d="M 525 4666 
L 3525 4666 
L 3525 4397 
L 1831 0 
L 1172 0 
L 2766 4134 
L 525 4134 
L 525 4666 
z
" transform="scale(0.015625)"/>
      <path id="DejaVuSans-2e" d="M 684 794 
L 1344 794 
L 1344 0 
L 684 0 
L 684 794 
z
" transform="scale(0.015625)"/>
      <path id="DejaVuSans-5f" d="M 3263 -1063 
L 3263 -1509 
L -63 -1509 
L -63 -1063 
L 3263 -1063 
z
" transform="scale(0.015625)"/>
      <path id="DejaVuSans-63" d="M 3122 3366 
L 3122 2828 
Q 2878 2963 2633 3030 
Q 2388 3097 2138 3097 
Q 1578 3097 1268 2742 
Q 959 2388 959 1747 
Q 959 1106 1268 751 
Q 1578 397 2138 397 
Q 2388 397 2633 464 
Q 2878 531 3122 666 
L 3122 134 
Q 2881 22 2623 -34 
Q 2366 -91 2075 -91 
Q 1284 -91 818 406 
Q 353 903 353 1747 
Q 353 2603 823 3093 
Q 1294 3584 2113 3584 
Q 2378 3584 2631 3529 
Q 2884 3475 3122 3366 
z
" transform="scale(0.015625)"/>
      <path id="DejaVuSans-72" d="M 2631 2963 
Q 2534 3019 2420 3045 
Q 2306 3072 2169 3072 
Q 1681 3072 1420 2755 
Q 1159 2438 1159 1844 
L 1159 0 
L 581 0 
L 581 3500 
L 1159 3500 
L 1159 2956 
Q 1341 3275 1631 3429 
Q 1922 3584 2338 3584 
Q 2397 3584 2469 3576 
Q 2541 3569 2628 3553 
L 2631 2963 
z
" transform="scale(0.015625)"/>
      <path id="DejaVuSans-73" d="M 2834 3397 
L 2834 2853 
Q 2591 2978 2328 3040 
Q 2066 3103 1784 3103 
Q 1356 3103 1142 2972 
Q 928 2841 928 2578 
Q 928 2378 1081 2264 
Q 1234 2150 1697 2047 
L 1894 2003 
Q 2506 1872 2764 1633 
Q 3022 1394 3022 966 
Q 3022 478 2636 193 
Q 2250 -91 1575 -91 
Q 1294 -91 989 -36 
Q 684 19 347 128 
L 347 722 
Q 666 556 975 473 
Q 1284 391 1588 391 
Q 1994 391 2212 530 
Q 2431 669 2431 922 
Q 2431 1156 2273 1281 
Q 2116 1406 1581 1522 
L 1381 1569 
Q 847 1681 609 1914 
Q 372 2147 372 2553 
Q 372 3047 722 3315 
Q 1072 3584 1716 3584 
Q 2034 3584 2315 3537 
Q 2597 3491 2834 3397 
z
" transform="scale(0.015625)"/>
      <path id="DejaVuSans-2d" d="M 313 2009 
L 1997 2009 
L 1997 1497 
L 313 1497 
L 313 2009 
z
" transform="scale(0.015625)"/>
     </defs>
     <use xlink:href="#DejaVuSans-37"/>
     <use xlink:href="#DejaVuSans-2e" x="63.623047"/>
     <use xlink:href="#DejaVuSans-31" x="95.410156"/>
     <use xlink:href="#DejaVuSans-5f" x="159.033203"/>
     <use xlink:href="#DejaVuSans-63" x="209.033203"/>
     <use xlink:href="#DejaVuSans-72" x="264.013672"/>
     <use xlink:href="#DejaVuSans-6f" x="302.876953"/>
     <use xlink:href="#DejaVuSans-73" x="364.058594"/>
     <use xlink:href="#DejaVuSans-73" x="416.158203"/>
     <use xlink:href="#DejaVuSans-5f" x="468.257812"/>
     <use xlink:href="#DejaVuSans-2d" x="518.257812"/>
     <use xlink:href="#DejaVuSans-34" x="554.341797"/>
     <use xlink:href="#DejaVuSans-33" x="617.964844"/>
     <use xlink:href="#DejaVuSans-2e" x="681.587891"/>
     <use xlink:href="#DejaVuSans-30" x="713.375"/>
    </g>
   </g>
  </g>
 </g>
 <defs>
  <clipPath id="pe6500b7cb8">
   <rect x="34.240625" y="22.10625" width="357.12" height="266.112"/>
  </clipPath>
 </defs>
</svg>
