<?xml version="1.0" encoding="utf-8" standalone="no"?>
<!DOCTYPE svg PUBLIC "-//W3C//DTD SVG 1.1//EN"
  "http://www.w3.org/Graphics/SVG/1.1/DTD/svg11.dtd">
<svg xmlns:xlink="http://www.w3.org/1999/xlink" width="408.104375pt" height="325.7745pt" viewBox="0 0 408.104375 325.7745" xmlns="http://www.w3.org/2000/svg" version="1.1">
 <metadata>
  <rdf:RDF xmlns:dc="http://purl.org/dc/elements/1.1/" xmlns:cc="http://creativecommons.org/ns#" xmlns:rdf="http://www.w3.org/1999/02/22-rdf-syntax-ns#">
   <cc:Work>
    <dc:type rdf:resource="http://purl.org/dc/dcmitype/StillImage"/>
    <dc:date>2024-07-12T12:31:08.390559</dc:date>
    <dc:format>image/svg+xml</dc:format>
    <dc:creator>
     <cc:Agent>
      <dc:title>Matplotlib v3.5.3, https://matplotlib.org/</dc:title>
     </cc:Agent>
    </dc:creator>
   </cc:Work>
  </rdf:RDF>
 </metadata>
 <defs>
  <style type="text/css">*{stroke-linejoin: round; stroke-linecap: butt}</style>
 </defs>
 <g id="figure_1">
  <g id="patch_1">
   <path d="M 0 325.7745 
L 408.104375 325.7745 
L 408.104375 0 
L 0 0 
z
" style="fill: #ffffff"/>
  </g>
  <g id="axes_1">
   <g id="patch_2">
    <path d="M 34.240625 288.21825 
L 391.360625 288.21825 
L 391.360625 22.10625 
L 34.240625 22.10625 
z
" style="fill: #ffffff"/>
   </g>
   <g id="matplotlib.axis_1">
    <g id="xtick_1">
     <g id="line2d_1">
      <defs>
       <path id="mfdccdb36ab" d="M 0 0 
L 0 3.5 
" style="stroke: #000000; stroke-width: 0.8"/>
      </defs>
      <g>
       <use xlink:href="#mfdccdb36ab" x="34.240625" y="288.21825" style="stroke: #000000; stroke-width: 0.8"/>
      </g>
     </g>
     <g id="text_1">
      <!-- 0 -->
      <g transform="translate(31.059375 302.816687)scale(0.1 -0.1)">
       <defs>
        <path id="DejaVuSans-30" d="M 2034 4250 
Q 1547 4250 1301 3770 
Q 1056 3291 1056 2328 
Q 1056 1369 1301 889 
Q 1547 409 2034 409 
Q 2525 409 2770 889 
Q 3016 1369 3016 2328 
Q 3016 3291 2770 3770 
Q 2525 4250 2034 4250 
z
M 2034 4750 
Q 2819 4750 3233 4129 
Q 3647 3509 3647 2328 
Q 3647 1150 3233 529 
Q 2819 -91 2034 -91 
Q 1250 -91 836 529 
Q 422 1150 422 2328 
Q 422 3509 836 4129 
Q 1250 4750 2034 4750 
z
" transform="scale(0.015625)"/>
       </defs>
       <use xlink:href="#DejaVuSans-30"/>
      </g>
     </g>
    </g>
    <g id="xtick_2">
     <g id="line2d_2">
      <g>
       <use xlink:href="#mfdccdb36ab" x="105.664625" y="288.21825" style="stroke: #000000; stroke-width: 0.8"/>
      </g>
     </g>
     <g id="text_2">
      <!-- 20 -->
      <g transform="translate(99.302125 302.816687)scale(0.1 -0.1)">
       <defs>
        <path id="DejaVuSans-32" d="M 1228 531 
L 3431 531 
L 3431 0 
L 469 0 
L 469 531 
Q 828 903 1448 1529 
Q 2069 2156 2228 2338 
Q 2531 2678 2651 2914 
Q 2772 3150 2772 3378 
Q 2772 3750 2511 3984 
Q 2250 4219 1831 4219 
Q 1534 4219 1204 4116 
Q 875 4013 500 3803 
L 500 4441 
Q 881 4594 1212 4672 
Q 1544 4750 1819 4750 
Q 2544 4750 2975 4387 
Q 3406 4025 3406 3419 
Q 3406 3131 3298 2873 
Q 3191 2616 2906 2266 
Q 2828 2175 2409 1742 
Q 1991 1309 1228 531 
z
" transform="scale(0.015625)"/>
       </defs>
       <use xlink:href="#DejaVuSans-32"/>
       <use xlink:href="#DejaVuSans-30" x="63.623047"/>
      </g>
     </g>
    </g>
    <g id="xtick_3">
     <g id="line2d_3">
      <g>
       <use xlink:href="#mfdccdb36ab" x="177.088625" y="288.21825" style="stroke: #000000; stroke-width: 0.8"/>
      </g>
     </g>
     <g id="text_3">
      <!-- 40 -->
      <g transform="translate(170.726125 302.816687)scale(0.1 -0.1)">
       <defs>
        <path id="DejaVuSans-34" d="M 2419 4116 
L 825 1625 
L 2419 1625 
L 2419 4116 
z
M 2253 4666 
L 3047 4666 
L 3047 1625 
L 3713 1625 
L 3713 1100 
L 3047 1100 
L 3047 0 
L 2419 0 
L 2419 1100 
L 313 1100 
L 313 1709 
L 2253 4666 
z
" transform="scale(0.015625)"/>
       </defs>
       <use xlink:href="#DejaVuSans-34"/>
       <use xlink:href="#DejaVuSans-30" x="63.623047"/>
      </g>
     </g>
    </g>
    <g id="xtick_4">
     <g id="line2d_4">
      <g>
       <use xlink:href="#mfdccdb36ab" x="248.512625" y="288.21825" style="stroke: #000000; stroke-width: 0.8"/>
      </g>
     </g>
     <g id="text_4">
      <!-- 60 -->
      <g transform="translate(242.150125 302.816687)scale(0.1 -0.1)">
       <defs>
        <path id="DejaVuSans-36" d="M 2113 2584 
Q 1688 2584 1439 2293 
Q 1191 2003 1191 1497 
Q 1191 994 1439 701 
Q 1688 409 2113 409 
Q 2538 409 2786 701 
Q 3034 994 3034 1497 
Q 3034 2003 2786 2293 
Q 2538 2584 2113 2584 
z
M 3366 4563 
L 3366 3988 
Q 3128 4100 2886 4159 
Q 2644 4219 2406 4219 
Q 1781 4219 1451 3797 
Q 1122 3375 1075 2522 
Q 1259 2794 1537 2939 
Q 1816 3084 2150 3084 
Q 2853 3084 3261 2657 
Q 3669 2231 3669 1497 
Q 3669 778 3244 343 
Q 2819 -91 2113 -91 
Q 1303 -91 875 529 
Q 447 1150 447 2328 
Q 447 3434 972 4092 
Q 1497 4750 2381 4750 
Q 2619 4750 2861 4703 
Q 3103 4656 3366 4563 
z
" transform="scale(0.015625)"/>
       </defs>
       <use xlink:href="#DejaVuSans-36"/>
       <use xlink:href="#DejaVuSans-30" x="63.623047"/>
      </g>
     </g>
    </g>
    <g id="xtick_5">
     <g id="line2d_5">
      <g>
       <use xlink:href="#mfdccdb36ab" x="319.936625" y="288.21825" style="stroke: #000000; stroke-width: 0.8"/>
      </g>
     </g>
     <g id="text_5">
      <!-- 80 -->
      <g transform="translate(313.574125 302.816687)scale(0.1 -0.1)">
       <defs>
        <path id="DejaVuSans-38" d="M 2034 2216 
Q 1584 2216 1326 1975 
Q 1069 1734 1069 1313 
Q 1069 891 1326 650 
Q 1584 409 2034 409 
Q 2484 409 2743 651 
Q 3003 894 3003 1313 
Q 3003 1734 2745 1975 
Q 2488 2216 2034 2216 
z
M 1403 2484 
Q 997 2584 770 2862 
Q 544 3141 544 3541 
Q 544 4100 942 4425 
Q 1341 4750 2034 4750 
Q 2731 4750 3128 4425 
Q 3525 4100 3525 3541 
Q 3525 3141 3298 2862 
Q 3072 2584 2669 2484 
Q 3125 2378 3379 2068 
Q 3634 1759 3634 1313 
Q 3634 634 3220 271 
Q 2806 -91 2034 -91 
Q 1263 -91 848 271 
Q 434 634 434 1313 
Q 434 1759 690 2068 
Q 947 2378 1403 2484 
z
M 1172 3481 
Q 1172 3119 1398 2916 
Q 1625 2713 2034 2713 
Q 2441 2713 2670 2916 
Q 2900 3119 2900 3481 
Q 2900 3844 2670 4047 
Q 2441 4250 2034 4250 
Q 1625 4250 1398 4047 
Q 1172 3844 1172 3481 
z
" transform="scale(0.015625)"/>
       </defs>
       <use xlink:href="#DejaVuSans-38"/>
       <use xlink:href="#DejaVuSans-30" x="63.623047"/>
      </g>
     </g>
    </g>
    <g id="xtick_6">
     <g id="line2d_6">
      <g>
       <use xlink:href="#mfdccdb36ab" x="391.360625" y="288.21825" style="stroke: #000000; stroke-width: 0.8"/>
      </g>
     </g>
     <g id="text_6">
      <!-- 100 -->
      <g transform="translate(381.816875 302.816687)scale(0.1 -0.1)">
       <defs>
        <path id="DejaVuSans-31" d="M 794 531 
L 1825 531 
L 1825 4091 
L 703 3866 
L 703 4441 
L 1819 4666 
L 2450 4666 
L 2450 531 
L 3481 531 
L 3481 0 
L 794 0 
L 794 531 
z
" transform="scale(0.015625)"/>
       </defs>
       <use xlink:href="#DejaVuSans-31"/>
       <use xlink:href="#DejaVuSans-30" x="63.623047"/>
       <use xlink:href="#DejaVuSans-30" x="127.246094"/>
      </g>
     </g>
    </g>
    <g id="text_7">
     <!-- axialRotation -->
     <g transform="translate(180.024844 316.494812)scale(0.1 -0.1)">
      <defs>
       <path id="DejaVuSans-61" d="M 2194 1759 
Q 1497 1759 1228 1600 
Q 959 1441 959 1056 
Q 959 750 1161 570 
Q 1363 391 1709 391 
Q 2188 391 2477 730 
Q 2766 1069 2766 1631 
L 2766 1759 
L 2194 1759 
z
M 3341 1997 
L 3341 0 
L 2766 0 
L 2766 531 
Q 2569 213 2275 61 
Q 1981 -91 1556 -91 
Q 1019 -91 701 211 
Q 384 513 384 1019 
Q 384 1609 779 1909 
Q 1175 2209 1959 2209 
L 2766 2209 
L 2766 2266 
Q 2766 2663 2505 2880 
Q 2244 3097 1772 3097 
Q 1472 3097 1187 3025 
Q 903 2953 641 2809 
L 641 3341 
Q 956 3463 1253 3523 
Q 1550 3584 1831 3584 
Q 2591 3584 2966 3190 
Q 3341 2797 3341 1997 
z
" transform="scale(0.015625)"/>
       <path id="DejaVuSans-78" d="M 3513 3500 
L 2247 1797 
L 3578 0 
L 2900 0 
L 1881 1375 
L 863 0 
L 184 0 
L 1544 1831 
L 300 3500 
L 978 3500 
L 1906 2253 
L 2834 3500 
L 3513 3500 
z
" transform="scale(0.015625)"/>
       <path id="DejaVuSans-69" d="M 603 3500 
L 1178 3500 
L 1178 0 
L 603 0 
L 603 3500 
z
M 603 4863 
L 1178 4863 
L 1178 4134 
L 603 4134 
L 603 4863 
z
" transform="scale(0.015625)"/>
       <path id="DejaVuSans-6c" d="M 603 4863 
L 1178 4863 
L 1178 0 
L 603 0 
L 603 4863 
z
" transform="scale(0.015625)"/>
       <path id="DejaVuSans-52" d="M 2841 2188 
Q 3044 2119 3236 1894 
Q 3428 1669 3622 1275 
L 4263 0 
L 3584 0 
L 2988 1197 
Q 2756 1666 2539 1819 
Q 2322 1972 1947 1972 
L 1259 1972 
L 1259 0 
L 628 0 
L 628 4666 
L 2053 4666 
Q 2853 4666 3247 4331 
Q 3641 3997 3641 3322 
Q 3641 2881 3436 2590 
Q 3231 2300 2841 2188 
z
M 1259 4147 
L 1259 2491 
L 2053 2491 
Q 2509 2491 2742 2702 
Q 2975 2913 2975 3322 
Q 2975 3731 2742 3939 
Q 2509 4147 2053 4147 
L 1259 4147 
z
" transform="scale(0.015625)"/>
       <path id="DejaVuSans-6f" d="M 1959 3097 
Q 1497 3097 1228 2736 
Q 959 2375 959 1747 
Q 959 1119 1226 758 
Q 1494 397 1959 397 
Q 2419 397 2687 759 
Q 2956 1122 2956 1747 
Q 2956 2369 2687 2733 
Q 2419 3097 1959 3097 
z
M 1959 3584 
Q 2709 3584 3137 3096 
Q 3566 2609 3566 1747 
Q 3566 888 3137 398 
Q 2709 -91 1959 -91 
Q 1206 -91 779 398 
Q 353 888 353 1747 
Q 353 2609 779 3096 
Q 1206 3584 1959 3584 
z
" transform="scale(0.015625)"/>
       <path id="DejaVuSans-74" d="M 1172 4494 
L 1172 3500 
L 2356 3500 
L 2356 3053 
L 1172 3053 
L 1172 1153 
Q 1172 725 1289 603 
Q 1406 481 1766 481 
L 2356 481 
L 2356 0 
L 1766 0 
Q 1100 0 847 248 
Q 594 497 594 1153 
L 594 3053 
L 172 3053 
L 172 3500 
L 594 3500 
L 594 4494 
L 1172 4494 
z
" transform="scale(0.015625)"/>
       <path id="DejaVuSans-6e" d="M 3513 2113 
L 3513 0 
L 2938 0 
L 2938 2094 
Q 2938 2591 2744 2837 
Q 2550 3084 2163 3084 
Q 1697 3084 1428 2787 
Q 1159 2491 1159 1978 
L 1159 0 
L 581 0 
L 581 3500 
L 1159 3500 
L 1159 2956 
Q 1366 3272 1645 3428 
Q 1925 3584 2291 3584 
Q 2894 3584 3203 3211 
Q 3513 2838 3513 2113 
z
" transform="scale(0.015625)"/>
      </defs>
      <use xlink:href="#DejaVuSans-61"/>
      <use xlink:href="#DejaVuSans-78" x="61.279297"/>
      <use xlink:href="#DejaVuSans-69" x="120.458984"/>
      <use xlink:href="#DejaVuSans-61" x="148.242188"/>
      <use xlink:href="#DejaVuSans-6c" x="209.521484"/>
      <use xlink:href="#DejaVuSans-52" x="237.304688"/>
      <use xlink:href="#DejaVuSans-6f" x="302.287109"/>
      <use xlink:href="#DejaVuSans-74" x="363.46875"/>
      <use xlink:href="#DejaVuSans-61" x="402.677734"/>
      <use xlink:href="#DejaVuSans-74" x="463.957031"/>
      <use xlink:href="#DejaVuSans-69" x="503.166016"/>
      <use xlink:href="#DejaVuSans-6f" x="530.949219"/>
      <use xlink:href="#DejaVuSans-6e" x="592.130859"/>
     </g>
    </g>
   </g>
   <g id="matplotlib.axis_2">
    <g id="ytick_1">
     <g id="line2d_7">
      <defs>
       <path id="m61247b11a3" d="M 0 0 
L -3.5 0 
" style="stroke: #000000; stroke-width: 0.8"/>
      </defs>
      <g>
       <use xlink:href="#m61247b11a3" x="34.240625" y="288.21825" style="stroke: #000000; stroke-width: 0.8"/>
      </g>
     </g>
     <g id="text_8">
      <!-- 0 -->
      <g transform="translate(20.878125 292.017469)scale(0.1 -0.1)">
       <use xlink:href="#DejaVuSans-30"/>
      </g>
     </g>
    </g>
    <g id="ytick_2">
     <g id="line2d_8">
      <g>
       <use xlink:href="#m61247b11a3" x="34.240625" y="243.86625" style="stroke: #000000; stroke-width: 0.8"/>
      </g>
     </g>
     <g id="text_9">
      <!-- 1 -->
      <g transform="translate(20.878125 247.665469)scale(0.1 -0.1)">
       <use xlink:href="#DejaVuSans-31"/>
      </g>
     </g>
    </g>
    <g id="ytick_3">
     <g id="line2d_9">
      <g>
       <use xlink:href="#m61247b11a3" x="34.240625" y="199.51425" style="stroke: #000000; stroke-width: 0.8"/>
      </g>
     </g>
     <g id="text_10">
      <!-- 2 -->
      <g transform="translate(20.878125 203.313469)scale(0.1 -0.1)">
       <use xlink:href="#DejaVuSans-32"/>
      </g>
     </g>
    </g>
    <g id="ytick_4">
     <g id="line2d_10">
      <g>
       <use xlink:href="#m61247b11a3" x="34.240625" y="155.16225" style="stroke: #000000; stroke-width: 0.8"/>
      </g>
     </g>
     <g id="text_11">
      <!-- 3 -->
      <g transform="translate(20.878125 158.961469)scale(0.1 -0.1)">
       <defs>
        <path id="DejaVuSans-33" d="M 2597 2516 
Q 3050 2419 3304 2112 
Q 3559 1806 3559 1356 
Q 3559 666 3084 287 
Q 2609 -91 1734 -91 
Q 1441 -91 1130 -33 
Q 819 25 488 141 
L 488 750 
Q 750 597 1062 519 
Q 1375 441 1716 441 
Q 2309 441 2620 675 
Q 2931 909 2931 1356 
Q 2931 1769 2642 2001 
Q 2353 2234 1838 2234 
L 1294 2234 
L 1294 2753 
L 1863 2753 
Q 2328 2753 2575 2939 
Q 2822 3125 2822 3475 
Q 2822 3834 2567 4026 
Q 2313 4219 1838 4219 
Q 1578 4219 1281 4162 
Q 984 4106 628 3988 
L 628 4550 
Q 988 4650 1302 4700 
Q 1616 4750 1894 4750 
Q 2613 4750 3031 4423 
Q 3450 4097 3450 3541 
Q 3450 3153 3228 2886 
Q 3006 2619 2597 2516 
z
" transform="scale(0.015625)"/>
       </defs>
       <use xlink:href="#DejaVuSans-33"/>
      </g>
     </g>
    </g>
    <g id="ytick_5">
     <g id="line2d_11">
      <g>
       <use xlink:href="#m61247b11a3" x="34.240625" y="110.81025" style="stroke: #000000; stroke-width: 0.8"/>
      </g>
     </g>
     <g id="text_12">
      <!-- 4 -->
      <g transform="translate(20.878125 114.609469)scale(0.1 -0.1)">
       <use xlink:href="#DejaVuSans-34"/>
      </g>
     </g>
    </g>
    <g id="ytick_6">
     <g id="line2d_12">
      <g>
       <use xlink:href="#m61247b11a3" x="34.240625" y="66.45825" style="stroke: #000000; stroke-width: 0.8"/>
      </g>
     </g>
     <g id="text_13">
      <!-- 5 -->
      <g transform="translate(20.878125 70.257469)scale(0.1 -0.1)">
       <defs>
        <path id="DejaVuSans-35" d="M 691 4666 
L 3169 4666 
L 3169 4134 
L 1269 4134 
L 1269 2991 
Q 1406 3038 1543 3061 
Q 1681 3084 1819 3084 
Q 2600 3084 3056 2656 
Q 3513 2228 3513 1497 
Q 3513 744 3044 326 
Q 2575 -91 1722 -91 
Q 1428 -91 1123 -41 
Q 819 9 494 109 
L 494 744 
Q 775 591 1075 516 
Q 1375 441 1709 441 
Q 2250 441 2565 725 
Q 2881 1009 2881 1497 
Q 2881 1984 2565 2268 
Q 2250 2553 1709 2553 
Q 1456 2553 1204 2497 
Q 953 2441 691 2322 
L 691 4666 
z
" transform="scale(0.015625)"/>
       </defs>
       <use xlink:href="#DejaVuSans-35"/>
      </g>
     </g>
    </g>
    <g id="ytick_7">
     <g id="line2d_13">
      <g>
       <use xlink:href="#m61247b11a3" x="34.240625" y="22.10625" style="stroke: #000000; stroke-width: 0.8"/>
      </g>
     </g>
     <g id="text_14">
      <!-- 6 -->
      <g transform="translate(20.878125 25.905469)scale(0.1 -0.1)">
       <use xlink:href="#DejaVuSans-36"/>
      </g>
     </g>
    </g>
    <g id="text_15">
     <!-- zShift -->
     <g transform="translate(14.798438 169.151312)rotate(-90)scale(0.1 -0.1)">
      <defs>
       <path id="DejaVuSans-7a" d="M 353 3500 
L 3084 3500 
L 3084 2975 
L 922 459 
L 3084 459 
L 3084 0 
L 275 0 
L 275 525 
L 2438 3041 
L 353 3041 
L 353 3500 
z
" transform="scale(0.015625)"/>
       <path id="DejaVuSans-53" d="M 3425 4513 
L 3425 3897 
Q 3066 4069 2747 4153 
Q 2428 4238 2131 4238 
Q 1616 4238 1336 4038 
Q 1056 3838 1056 3469 
Q 1056 3159 1242 3001 
Q 1428 2844 1947 2747 
L 2328 2669 
Q 3034 2534 3370 2195 
Q 3706 1856 3706 1288 
Q 3706 609 3251 259 
Q 2797 -91 1919 -91 
Q 1588 -91 1214 -16 
Q 841 59 441 206 
L 441 856 
Q 825 641 1194 531 
Q 1563 422 1919 422 
Q 2459 422 2753 634 
Q 3047 847 3047 1241 
Q 3047 1584 2836 1778 
Q 2625 1972 2144 2069 
L 1759 2144 
Q 1053 2284 737 2584 
Q 422 2884 422 3419 
Q 422 4038 858 4394 
Q 1294 4750 2059 4750 
Q 2388 4750 2728 4690 
Q 3069 4631 3425 4513 
z
" transform="scale(0.015625)"/>
       <path id="DejaVuSans-68" d="M 3513 2113 
L 3513 0 
L 2938 0 
L 2938 2094 
Q 2938 2591 2744 2837 
Q 2550 3084 2163 3084 
Q 1697 3084 1428 2787 
Q 1159 2491 1159 1978 
L 1159 0 
L 581 0 
L 581 4863 
L 1159 4863 
L 1159 2956 
Q 1366 3272 1645 3428 
Q 1925 3584 2291 3584 
Q 2894 3584 3203 3211 
Q 3513 2838 3513 2113 
z
" transform="scale(0.015625)"/>
       <path id="DejaVuSans-66" d="M 2375 4863 
L 2375 4384 
L 1825 4384 
Q 1516 4384 1395 4259 
Q 1275 4134 1275 3809 
L 1275 3500 
L 2222 3500 
L 2222 3053 
L 1275 3053 
L 1275 0 
L 697 0 
L 697 3053 
L 147 3053 
L 147 3500 
L 697 3500 
L 697 3744 
Q 697 4328 969 4595 
Q 1241 4863 1831 4863 
L 2375 4863 
z
" transform="scale(0.015625)"/>
      </defs>
      <use xlink:href="#DejaVuSans-7a"/>
      <use xlink:href="#DejaVuSans-53" x="52.490234"/>
      <use xlink:href="#DejaVuSans-68" x="115.966797"/>
      <use xlink:href="#DejaVuSans-69" x="179.345703"/>
      <use xlink:href="#DejaVuSans-66" x="207.128906"/>
      <use xlink:href="#DejaVuSans-74" x="240.583984"/>
     </g>
    </g>
   </g>
   <g id="PathCollection_1"/>
   <g id="PathCollection_2">
    <path d="M 125.798626 288.21825 
L 125.770481 288.028092 
L 125.356605 285.55713 
L 125.013804 282.89601 
L 124.753014 280.23489 
L 124.556341 277.57377 
L 124.40973 274.91265 
L 124.302006 272.25153 
L 124.224217 269.59041 
L 124.169178 266.92929 
L 124.126104 263.82465 
L 124.102161 261.16353 
L 124.086514 258.50241 
L 124.076531 255.84129 
L 124.070274 253.18017 
L 124.066394 250.51905 
L 124.064013 247.85793 
L 124.062591 245.19681 
L 124.06181 242.53569 
L 124.061456 239.87457 
L 124.061364 237.21345 
L 124.061385 234.55233 
L 124.061401 231.89121 
L 124.06135 229.23009 
L 124.061229 226.56897 
L 124.061092 223.90785 
L 124.060999 220.80321 
L 124.061023 218.14209 
L 124.061131 215.48097 
L 124.061263 212.81985 
L 124.061347 210.15873 
L 124.061338 207.49761 
L 124.06124 204.83649 
L 124.061107 202.17537 
L 124.061011 199.51425 
L 124.061003 196.85313 
L 124.061088 194.19201 
L 124.06122 191.53089 
L 124.061327 188.86977 
L 124.061352 186.20865 
L 124.061279 183.54753 
L 124.061149 180.88641 
L 124.06103 178.22529 
L 124.060984 175.12065 
L 124.061038 172.45953 
L 124.061128 169.79841 
L 124.061161 167.13729 
L 124.061028 164.47617 
L 124.060621 161.81505 
L 124.059807 159.15393 
L 124.05836 156.49281 
L 124.055837 153.83169 
L 124.051403 151.17057 
L 124.043623 148.50945 
L 124.030202 145.84833 
L 124.007667 143.18721 
L 123.984881 141.53446 
L 123.967411 140.52609 
L 123.894773 137.86497 
L 123.783923 135.20385 
L 123.586161 132.09921 
L 123.337024 129.43809 
L 122.992535 126.77697 
L 122.531428 124.11585 
L 122.163569 122.481027 
L 121.879345 121.45473 
L 120.97519 118.79361 
L 120.377969 117.300211 
L 119.836542 116.13249 
L 118.592369 113.680928 
L 118.476387 113.47137 
L 116.951282 110.81025 
L 116.806769 110.557088 
L 115.430241 108.14913 
L 114.985457 107.302367 
L 114.051688 105.48801 
L 113.199857 103.553204 
L 112.883663 102.82689 
L 111.910347 100.16577 
L 111.414257 98.402756 
L 111.151906 97.50465 
L 110.561936 94.84353 
L 110.172918 92.18241 
L 109.961019 89.52129 
L 109.923098 86.41665 
L 110.071054 83.75553 
L 110.399182 81.09441 
L 110.933587 78.43329 
L 111.414257 76.73567 
L 111.683066 75.77217 
L 112.650522 73.11105 
L 113.199857 71.897322 
L 113.883694 70.44993 
L 114.985457 68.462955 
L 115.378701 67.78881 
L 116.806769 65.522256 
L 117.059242 65.12769 
L 118.592369 62.717745 
L 118.743131 62.46657 
L 120.206233 59.80545 
L 120.377969 59.451636 
L 121.317696 57.14433 
L 122.163569 54.636402 
L 122.205225 54.48321 
L 122.768308 51.82209 
L 123.195385 49.16097 
L 123.514877 46.49985 
L 123.789322 43.39521 
L 123.970334 40.73409 
L 123.984881 40.483469 
L 124.097389 38.07297 
L 124.218175 35.41185 
L 124.351271 32.75073 
L 124.511803 30.08961 
L 124.715475 27.42849 
L 124.979813 24.76737 
L 125.325645 22.10625 
" clip-path="url(#pee7881c3d6)" style="fill: none; stroke: #dbe9f6; stroke-width: 1.5"/>
    <path d="M 299.802624 22.10625 
L 299.830769 22.296408 
L 300.244645 24.76737 
L 300.587446 27.42849 
L 300.848236 30.08961 
L 301.044909 32.75073 
L 301.19152 35.41185 
L 301.299244 38.07297 
L 301.377033 40.73409 
L 301.432072 43.39521 
L 301.475146 46.49985 
L 301.499089 49.16097 
L 301.514736 51.82209 
L 301.524719 54.48321 
L 301.530976 57.14433 
L 301.534856 59.80545 
L 301.537237 62.46657 
L 301.538659 65.12769 
L 301.53944 67.78881 
L 301.539794 70.44993 
L 301.539886 73.11105 
L 301.539865 75.77217 
L 301.539849 78.43329 
L 301.539901 81.09441 
L 301.540022 83.75553 
L 301.540162 86.41665 
L 301.54026 89.52129 
L 301.540247 92.18241 
L 301.540166 94.84353 
L 301.540092 97.50465 
L 301.540128 100.16577 
L 301.540384 102.82689 
L 301.540976 105.48801 
L 301.542069 108.14913 
L 301.543983 110.81025 
L 301.547334 113.47137 
L 301.553235 116.13249 
L 301.563527 118.79361 
L 301.581078 121.45473 
L 301.610139 124.11585 
L 301.616369 124.471164 
L 301.667143 126.77697 
L 301.758184 129.43809 
L 301.895363 132.09921 
L 302.136917 135.20385 
L 302.437574 137.86497 
L 302.848957 140.52609 
L 303.394384 143.18721 
L 303.437681 143.350286 
L 304.244046 145.84833 
L 305.223281 148.377144 
L 305.28329 148.50945 
L 306.670408 151.17057 
L 307.008881 151.760249 
L 308.265352 153.83169 
L 308.794481 154.675574 
L 309.927819 156.49281 
L 310.615793 157.630432 
L 311.50291 159.15393 
L 312.401393 160.840487 
L 312.901471 161.81505 
L 314.091688 164.47617 
L 314.186993 164.717431 
L 315.140839 167.13729 
L 315.966126 169.79841 
L 315.972593 169.822589 
L 316.719794 172.45953 
L 317.304255 175.12065 
L 317.793905 178.044329 
L 317.827772 178.22529 
L 318.235419 180.88641 
L 318.547613 183.54753 
L 318.78493 186.20865 
L 318.963497 188.86977 
L 319.096121 191.53089 
L 319.193059 194.19201 
L 319.262552 196.85313 
L 319.311201 199.51425 
L 319.344243 202.17537 
L 319.365744 204.83649 
L 319.378727 207.49761 
L 319.385254 210.15873 
L 319.386457 212.81985 
L 319.382549 215.48097 
L 319.372828 218.14209 
L 319.355662 220.80321 
L 319.322707 223.90785 
L 319.279125 226.56897 
L 319.216164 229.23009 
L 319.127422 231.89121 
L 319.004789 234.55233 
L 318.838029 237.21345 
L 318.614189 239.87457 
L 318.316777 242.53569 
L 317.924568 245.19681 
L 317.793905 245.912009 
L 317.475255 247.85793 
L 316.916031 250.51905 
L 316.184175 253.18017 
L 315.972593 253.826927 
L 315.326651 255.84129 
L 314.241299 258.50241 
L 314.186993 258.620631 
L 312.965705 261.16353 
L 312.401393 262.179346 
L 311.417924 263.82465 
L 310.615793 265.077704 
L 309.316572 266.92929 
L 308.794481 267.673178 
L 307.431824 269.59041 
L 307.008881 270.219481 
L 305.735109 272.25153 
L 305.223281 273.162085 
L 304.373512 274.91265 
L 303.437681 277.13847 
L 303.285842 277.57377 
L 302.500437 280.23489 
L 301.800925 282.89601 
L 301.616369 283.662952 
L 301.233003 285.55713 
L 300.694186 288.21825 
" clip-path="url(#pee7881c3d6)" style="fill: none; stroke: #dbe9f6; stroke-width: 1.5"/>
   </g>
   <g id="PathCollection_3">
    <path d="M 130.610396 288.21825 
L 130.051196 285.55713 
L 129.622604 282.89601 
L 129.341681 280.618851 
L 129.291432 280.23489 
L 129.01946 277.57377 
L 128.817041 274.91265 
L 128.668612 272.25153 
L 128.561695 269.59041 
L 128.486265 266.92929 
L 128.427444 263.82465 
L 128.394874 261.16353 
L 128.373664 258.50241 
L 128.360169 255.84129 
L 128.351726 253.18017 
L 128.346497 250.51905 
L 128.343294 247.85793 
L 128.341396 245.19681 
L 128.340371 242.53569 
L 128.339927 239.87457 
L 128.339829 237.21345 
L 128.339866 234.55233 
L 128.33988 231.89121 
L 128.339789 229.23009 
L 128.339607 226.56897 
L 128.339413 223.90785 
L 128.3393 220.80321 
L 128.339355 218.14209 
L 128.33952 215.48097 
L 128.339706 212.81985 
L 128.339811 210.15873 
L 128.339778 207.49761 
L 128.339625 204.83649 
L 128.339435 202.17537 
L 128.339311 199.51425 
L 128.33932 196.85313 
L 128.339457 194.19201 
L 128.339649 191.53089 
L 128.33979 188.86977 
L 128.339805 186.20865 
L 128.339685 183.54753 
L 128.339495 180.88641 
L 128.339336 178.22529 
L 128.339299 175.12065 
L 128.339406 172.45953 
L 128.339567 169.79841 
L 128.339665 167.13729 
L 128.339582 164.47617 
L 128.339236 161.81505 
L 128.338569 159.15393 
L 128.337478 156.49281 
L 128.335703 153.83169 
L 128.332687 151.17057 
L 128.327422 148.50945 
L 128.318295 145.84833 
L 128.302902 143.18721 
L 128.277806 140.52609 
L 128.238234 137.86497 
L 128.177707 135.20385 
L 128.069064 132.09921 
L 127.930587 129.43809 
L 127.735662 126.77697 
L 127.556081 124.985826 
L 127.455658 124.11585 
L 127.049056 121.45473 
L 126.521836 118.79361 
L 125.85536 116.13249 
L 125.770481 115.85195 
L 124.935456 113.47137 
L 123.984881 111.141503 
L 123.830771 110.81025 
L 122.482976 108.14913 
L 122.163569 107.545603 
L 121.01053 105.48801 
L 120.377969 104.321829 
L 119.566216 102.82689 
L 118.592369 100.815899 
L 118.28739 100.16577 
L 117.246089 97.50465 
L 116.806769 96.026817 
L 116.464356 94.84353 
L 115.940513 92.18241 
L 115.66997 89.52129 
L 115.667593 86.41665 
L 115.941263 83.75553 
L 116.488264 81.09441 
L 116.806769 80.0535 
L 117.331038 78.43329 
L 118.488167 75.77217 
L 118.592369 75.570967 
L 119.93893 73.11105 
L 120.377969 72.389041 
L 121.561941 70.44993 
L 122.163569 69.477489 
L 123.132533 67.78881 
L 123.984881 66.19421 
L 124.479551 65.12769 
L 125.546711 62.46657 
L 125.770481 61.798847 
L 126.330931 59.80545 
L 126.923186 57.14433 
L 127.379086 54.48321 
L 127.556081 53.129018 
L 127.702971 51.82209 
L 127.929454 49.16097 
L 128.102292 46.49985 
L 128.261786 43.39521 
L 128.382303 40.73409 
L 128.504952 38.07297 
L 128.645381 35.41185 
L 128.819587 32.75073 
L 129.044899 30.08961 
L 129.341155 27.42849 
L 129.341681 27.424737 
L 129.697591 24.76737 
L 130.168263 22.10625 
" clip-path="url(#pee7881c3d6)" style="fill: none; stroke: #bad6eb; stroke-width: 1.5"/>
    <path d="M 294.990854 22.10625 
L 295.550054 24.76737 
L 295.978646 27.42849 
L 296.259569 29.705649 
L 296.309818 30.08961 
L 296.58179 32.75073 
L 296.784209 35.41185 
L 296.932638 38.07297 
L 297.039555 40.73409 
L 297.114985 43.39521 
L 297.173806 46.49985 
L 297.206376 49.16097 
L 297.227586 51.82209 
L 297.241081 54.48321 
L 297.249524 57.14433 
L 297.254753 59.80545 
L 297.257956 62.46657 
L 297.259854 65.12769 
L 297.260879 67.78881 
L 297.261323 70.44993 
L 297.261421 73.11105 
L 297.261384 75.77217 
L 297.26137 78.43329 
L 297.261461 81.09441 
L 297.261644 83.75553 
L 297.261839 86.41665 
L 297.261956 89.52129 
L 297.26191 92.18241 
L 297.261763 94.84353 
L 297.261618 97.50465 
L 297.261598 100.16577 
L 297.261805 102.82689 
L 297.262304 105.48801 
L 297.263165 108.14913 
L 297.264553 110.81025 
L 297.26686 113.47137 
L 297.270856 116.13249 
L 297.277837 118.79361 
L 297.289805 121.45473 
L 297.309682 124.11585 
L 297.3416 126.77697 
L 297.391264 129.43809 
L 297.466379 132.09921 
L 297.599846 135.20385 
L 297.768595 137.86497 
L 298.004799 140.52609 
L 298.045169 140.862153 
L 298.366612 143.18721 
L 298.854551 145.84833 
L 299.488309 148.50945 
L 299.830769 149.653358 
L 300.358915 151.17057 
L 301.477236 153.83169 
L 301.616369 154.114912 
L 302.922913 156.49281 
L 303.437681 157.340861 
L 304.59716 159.15393 
L 305.223281 160.095794 
L 306.348207 161.81505 
L 307.008881 162.847584 
L 307.988635 164.47617 
L 308.794481 165.932446 
L 309.414481 167.13729 
L 310.597214 169.79841 
L 310.615793 169.846054 
L 311.585097 172.45953 
L 312.366913 175.12065 
L 312.401393 175.261988 
L 313.1169 178.22529 
L 313.606888 180.88641 
L 313.984698 183.54753 
L 314.186993 185.392963 
L 314.282738 186.20865 
L 314.523963 188.86977 
L 314.70302 191.53089 
L 314.833714 194.19201 
L 314.927195 196.85313 
L 314.992427 199.51425 
L 315.036523 202.17537 
L 315.064996 204.83649 
L 315.081915 207.49761 
L 315.090003 210.15873 
L 315.090675 212.81985 
L 315.084047 215.48097 
L 315.068936 218.14209 
L 315.04284 220.80321 
L 314.99326 223.90785 
L 314.92809 226.56897 
L 314.834341 229.23009 
L 314.702675 231.89121 
L 314.52131 234.55233 
L 314.275429 237.21345 
L 314.186993 237.950398 
L 313.968686 239.87457 
L 313.573324 242.53569 
L 313.054072 245.19681 
L 312.401393 247.766413 
L 312.37763 247.85793 
L 311.545671 250.51905 
L 310.615793 252.858141 
L 310.476975 253.18017 
L 309.143916 255.84129 
L 308.794481 256.452889 
L 307.495447 258.50241 
L 307.008881 259.216649 
L 305.572792 261.16353 
L 305.223281 261.634928 
L 303.584005 263.82465 
L 303.437681 264.034068 
L 301.616369 266.857043 
L 301.575286 266.92929 
L 300.278179 269.59041 
L 299.830769 270.673246 
L 299.276361 272.25153 
L 298.490184 274.91265 
L 298.045169 276.65991 
L 297.84107 277.57377 
L 297.30166 280.23489 
L 296.77493 282.89601 
L 296.259569 285.364232 
L 296.221414 285.55713 
L 295.643438 288.21825 
" clip-path="url(#pee7881c3d6)" style="fill: none; stroke: #bad6eb; stroke-width: 1.5"/>
   </g>
   <g id="PathCollection_4">
    <path d="M 134.652792 288.21825 
L 133.879251 285.55713 
L 133.285769 282.89601 
L 132.948593 280.931952 
L 132.833459 280.23489 
L 132.492304 277.57377 
L 132.238496 274.91265 
L 132.052543 272.25153 
L 131.918768 269.59041 
L 131.824552 266.92929 
L 131.751244 263.82465 
L 131.710756 261.16353 
L 131.684449 258.50241 
L 131.667742 255.84129 
L 131.657301 253.18017 
L 131.650839 250.51905 
L 131.646888 247.85793 
L 131.644561 245.19681 
L 131.643322 242.53569 
L 131.642804 239.87457 
L 131.642705 237.21345 
L 131.642758 234.55233 
L 131.642764 231.89121 
L 131.642632 229.23009 
L 131.642389 226.56897 
L 131.642144 223.90785 
L 131.642017 220.80321 
L 131.642106 218.14209 
L 131.642329 215.48097 
L 131.642565 212.81985 
L 131.642684 210.15873 
L 131.642624 207.49761 
L 131.642415 204.83649 
L 131.642171 202.17537 
L 131.642025 199.51425 
L 131.642055 196.85313 
L 131.642246 194.19201 
L 131.642493 191.53089 
L 131.642663 188.86977 
L 131.642664 186.20865 
L 131.642495 183.54753 
L 131.642247 180.88641 
L 131.642054 178.22529 
L 131.64203 175.12065 
L 131.64219 172.45953 
L 131.642416 169.79841 
L 131.642563 167.13729 
L 131.642504 164.47617 
L 131.642175 161.81505 
L 131.641573 159.15393 
L 131.64068 156.49281 
L 131.639352 153.83169 
L 131.637189 151.17057 
L 131.633425 148.50945 
L 131.62683 145.84833 
L 131.61561 143.18721 
L 131.597262 140.52609 
L 131.568367 137.86497 
L 131.524298 135.20385 
L 131.445414 132.09921 
L 131.344972 129.43809 
L 131.203444 126.77697 
L 131.162993 126.218502 
L 131.001523 124.11585 
L 130.727681 121.45473 
L 130.367739 118.79361 
L 129.904675 116.13249 
L 129.341681 113.560588 
L 129.319891 113.47137 
L 128.551974 110.81025 
L 127.640238 108.14913 
L 127.556081 107.92603 
L 126.522623 105.48801 
L 125.770481 103.816923 
L 125.281887 102.82689 
L 123.999439 100.16577 
L 123.984881 100.132442 
L 122.812041 97.50465 
L 122.163569 95.713657 
L 121.856088 94.84353 
L 121.208137 92.18241 
L 120.888402 89.52129 
L 120.956495 86.41665 
L 121.405364 83.75553 
L 122.163569 81.25429 
L 122.21479 81.09441 
L 123.370658 78.43329 
L 123.984881 77.254636 
L 124.737297 75.77217 
L 125.770481 73.851485 
L 126.132002 73.11105 
L 127.38329 70.44993 
L 127.556081 70.04984 
L 128.39993 67.78881 
L 129.23525 65.12769 
L 129.341681 64.723609 
L 129.863815 62.46657 
L 130.351877 59.80545 
L 130.729599 57.14433 
L 131.018279 54.48321 
L 131.162993 52.741199 
L 131.234532 51.82209 
L 131.396272 49.16097 
L 131.527142 46.49985 
L 131.661832 43.39521 
L 131.779294 40.73409 
L 131.914813 38.07297 
L 132.0846 35.41185 
L 132.306615 32.75073 
L 132.601652 30.08961 
L 132.948593 27.730142 
L 132.995017 27.42849 
L 133.521115 24.76737 
L 134.218473 22.10625 
" clip-path="url(#pee7881c3d6)" style="fill: none; stroke: #89bedc; stroke-width: 1.5"/>
    <path d="M 290.948458 22.10625 
L 291.721999 24.76737 
L 292.315481 27.42849 
L 292.652657 29.392548 
L 292.767791 30.08961 
L 293.108946 32.75073 
L 293.362754 35.41185 
L 293.548707 38.07297 
L 293.682482 40.73409 
L 293.776698 43.39521 
L 293.850006 46.49985 
L 293.890494 49.16097 
L 293.916801 51.82209 
L 293.933508 54.48321 
L 293.943949 57.14433 
L 293.950411 59.80545 
L 293.954362 62.46657 
L 293.956689 65.12769 
L 293.957928 67.78881 
L 293.958446 70.44993 
L 293.958545 73.11105 
L 293.958492 75.77217 
L 293.958486 78.43329 
L 293.958618 81.09441 
L 293.958862 83.75553 
L 293.959108 86.41665 
L 293.959238 89.52129 
L 293.959155 92.18241 
L 293.958946 94.84353 
L 293.958741 97.50465 
L 293.958685 100.16577 
L 293.958876 102.82689 
L 293.959343 105.48801 
L 293.960084 108.14913 
L 293.961166 110.81025 
L 293.962846 113.47137 
L 293.965697 116.13249 
L 293.970714 118.79361 
L 293.979407 121.45473 
L 293.993931 124.11585 
L 294.017265 126.77697 
L 294.053489 129.43809 
L 294.108123 132.09921 
L 294.205019 135.20385 
L 294.327558 137.86497 
L 294.438257 139.586224 
L 294.502269 140.52609 
L 294.748958 143.18721 
L 295.080765 145.84833 
L 295.519268 148.50945 
L 296.08989 151.17057 
L 296.259569 151.808118 
L 296.861886 153.83169 
L 297.844087 156.49281 
L 298.045169 156.954297 
L 299.125742 159.15393 
L 299.830769 160.408311 
L 300.696152 161.81505 
L 301.616369 163.204817 
L 302.481352 164.47617 
L 303.437681 165.86529 
L 304.275315 167.13729 
L 305.223281 168.650204 
L 305.880288 169.79841 
L 307.008881 172.00263 
L 307.220553 172.45953 
L 308.290237 175.12065 
L 308.794481 176.652847 
L 309.269284 178.22529 
L 309.910859 180.88641 
L 310.410782 183.54753 
L 310.615793 184.944836 
L 310.797333 186.20865 
L 311.091132 188.86977 
L 311.309668 191.53089 
L 311.469315 194.19201 
L 311.583473 196.85313 
L 311.663017 199.51425 
L 311.716628 202.17537 
L 311.751043 204.83649 
L 311.771223 207.49761 
L 311.780438 210.15873 
L 311.780305 212.81985 
L 311.770793 215.48097 
L 311.750212 218.14209 
L 311.71519 220.80321 
L 311.649136 223.90785 
L 311.562706 226.56897 
L 311.438796 229.23009 
L 311.265321 231.89121 
L 311.027123 234.55233 
L 310.705305 237.21345 
L 310.615793 237.786897 
L 310.277387 239.87457 
L 309.715179 242.53569 
L 308.983946 245.19681 
L 308.794481 245.763042 
L 308.016214 247.85793 
L 307.008881 250.067829 
L 306.77342 250.51905 
L 305.223281 253.111808 
L 305.176742 253.18017 
L 303.437681 255.567643 
L 303.223239 255.84129 
L 301.616369 257.892326 
L 301.149585 258.50241 
L 299.830769 260.34495 
L 299.305781 261.16353 
L 298.045169 263.398101 
L 297.837406 263.82465 
L 296.565869 266.92929 
L 296.259569 267.837574 
L 295.73843 269.59041 
L 295.071388 272.25153 
L 294.493015 274.91265 
L 294.438257 275.18505 
L 293.981243 277.57377 
L 293.473521 280.23489 
L 292.925659 282.89601 
L 292.652657 284.070095 
L 292.290505 285.55713 
L 291.515637 288.21825 
" clip-path="url(#pee7881c3d6)" style="fill: none; stroke: #89bedc; stroke-width: 1.5"/>
   </g>
   <g id="PathCollection_5">
    <path d="M 139.260698 288.21825 
L 138.341105 286.503574 
L 137.937177 285.55713 
L 137.029729 282.89601 
L 136.519793 280.955468 
L 136.356514 280.23489 
L 135.889019 277.57377 
L 135.541177 274.91265 
L 135.286419 272.25153 
L 135.103294 269.59041 
L 134.974484 266.92929 
L 134.874435 263.82465 
L 134.81929 261.16353 
L 134.783525 258.50241 
L 134.760843 255.84129 
L 134.746681 253.18017 
L 134.737922 250.51905 
L 134.734193 248.663164 
L 134.732663 247.85793 
L 134.729702 245.19681 
L 134.728146 242.53569 
L 134.727517 239.87457 
L 134.727414 237.21345 
L 134.727488 234.55233 
L 134.727483 231.89121 
L 134.72729 229.23009 
L 134.726958 226.56897 
L 134.726639 223.90785 
L 134.726493 220.80321 
L 134.726632 218.14209 
L 134.726939 215.48097 
L 134.727246 212.81985 
L 134.727386 210.15873 
L 134.727284 207.49761 
L 134.726994 204.83649 
L 134.726674 202.17537 
L 134.726497 199.51425 
L 134.726559 196.85313 
L 134.726826 194.19201 
L 134.727154 191.53089 
L 134.727365 188.86977 
L 134.727344 186.20865 
L 134.727103 183.54753 
L 134.726772 180.88641 
L 134.72653 178.22529 
L 134.726526 175.12065 
L 134.726759 172.45953 
L 134.727073 169.79841 
L 134.727279 167.13729 
L 134.727228 164.47617 
L 134.726873 161.81505 
L 134.726263 159.15393 
L 134.72546 156.49281 
L 134.72441 153.83169 
L 134.722811 151.17057 
L 134.720027 148.50945 
L 134.715037 145.84833 
L 134.706406 143.18721 
L 134.69221 140.52609 
L 134.669889 137.86497 
L 134.636015 135.20385 
L 134.575723 132.09921 
L 134.499275 129.43809 
L 134.391815 126.77697 
L 134.243967 124.11585 
L 134.044861 121.45473 
L 133.782329 118.79361 
L 133.443233 116.13249 
L 133.014052 113.47137 
L 132.948593 113.129314 
L 132.48806 110.81025 
L 131.854172 108.14913 
L 131.162993 105.666467 
L 131.108908 105.48801 
L 130.25191 102.82689 
L 129.341681 100.179074 
L 129.336637 100.16577 
L 128.404855 97.50465 
L 127.587443 94.84353 
L 127.556081 94.69802 
L 126.98942 92.18241 
L 126.716935 89.52129 
L 126.877294 86.41665 
L 127.416965 83.75553 
L 127.556081 83.322927 
L 128.237401 81.09441 
L 129.219239 78.43329 
L 129.341681 78.131215 
L 130.197372 75.77217 
L 131.111809 73.11105 
L 131.162993 72.952459 
L 131.889565 70.44993 
L 132.543527 67.78881 
L 132.948593 65.800068 
L 133.078426 65.12769 
L 133.506041 62.46657 
L 133.841954 59.80545 
L 134.10252 57.14433 
L 134.303736 54.48321 
L 134.460947 51.82209 
L 134.588953 49.16097 
L 134.702295 46.49985 
L 134.734193 45.757202 
L 134.841459 43.39521 
L 134.982032 40.73409 
L 135.159611 38.07297 
L 135.394454 35.41185 
L 135.710341 32.75073 
L 136.136013 30.08961 
L 136.519793 28.277324 
L 136.730759 27.42849 
L 137.589884 24.76737 
L 138.341105 22.97804 
L 138.811337 22.10625 
" clip-path="url(#pee7881c3d6)" style="fill: none; stroke: #539ecd; stroke-width: 1.5"/>
    <path d="M 286.340552 22.10625 
L 287.260145 23.820926 
L 287.664073 24.76737 
L 288.571521 27.42849 
L 289.081457 29.369032 
L 289.244736 30.08961 
L 289.712231 32.75073 
L 290.060073 35.41185 
L 290.314831 38.07297 
L 290.497956 40.73409 
L 290.626766 43.39521 
L 290.726815 46.49985 
L 290.78196 49.16097 
L 290.817725 51.82209 
L 290.840407 54.48321 
L 290.854569 57.14433 
L 290.863328 59.80545 
L 290.867057 61.661336 
L 290.868587 62.46657 
L 290.871548 65.12769 
L 290.873104 67.78881 
L 290.873733 70.44993 
L 290.873836 73.11105 
L 290.873762 75.77217 
L 290.873768 78.43329 
L 290.87396 81.09441 
L 290.874293 83.75553 
L 290.874612 86.41665 
L 290.874761 89.52129 
L 290.874627 92.18241 
L 290.874332 94.84353 
L 290.874049 97.50465 
L 290.873959 100.16577 
L 290.874163 102.82689 
L 290.874656 105.48801 
L 290.875366 108.14913 
L 290.876275 110.81025 
L 290.877547 113.47137 
L 290.879644 116.13249 
L 290.883397 118.79361 
L 290.89004 121.45473 
L 290.901259 124.11585 
L 290.919313 126.77697 
L 290.947239 129.43809 
L 290.989134 132.09921 
L 291.063071 135.20385 
L 291.156275 137.86497 
L 291.286834 140.52609 
L 291.466248 143.18721 
L 291.708378 145.84833 
L 292.029834 148.50945 
L 292.450657 151.17057 
L 292.652657 152.189384 
L 292.990897 153.83169 
L 293.678002 156.49281 
L 294.438257 158.83531 
L 294.551609 159.15393 
L 295.664473 161.81505 
L 296.259569 163.023522 
L 297.058492 164.47617 
L 298.045169 166.087146 
L 298.742601 167.13729 
L 299.830769 168.701802 
L 300.601985 169.79841 
L 301.616369 171.262973 
L 302.388348 172.45953 
L 303.437681 174.216272 
L 303.914542 175.12065 
L 305.223281 178.0004 
L 305.312088 178.22529 
L 306.187337 180.88641 
L 306.886132 183.54753 
L 307.008881 184.133909 
L 307.39656 186.20865 
L 307.777789 188.86977 
L 308.063219 191.53089 
L 308.272624 194.19201 
L 308.422704 196.85313 
L 308.527322 199.51425 
L 308.597714 202.17537 
L 308.642679 204.83649 
L 308.668697 207.49761 
L 308.679993 210.15873 
L 308.678549 212.81985 
L 308.664088 215.48097 
L 308.634062 218.14209 
L 308.583609 220.80321 
L 308.489116 223.90785 
L 308.366096 226.56897 
L 308.19052 229.23009 
L 307.945925 231.89121 
L 307.612039 234.55233 
L 307.164217 237.21345 
L 307.008881 237.931849 
L 306.528811 239.87457 
L 305.688625 242.53569 
L 305.223281 243.729352 
L 304.54611 245.19681 
L 303.437681 247.230011 
L 303.034491 247.85793 
L 301.616369 249.859466 
L 301.10072 250.51905 
L 299.830769 252.09604 
L 298.967991 253.18017 
L 298.045169 254.384436 
L 297.042015 255.84129 
L 296.259569 257.101127 
L 295.506352 258.50241 
L 294.438257 260.84848 
L 294.311806 261.16353 
L 293.390705 263.82465 
L 292.652657 266.476387 
L 292.534894 266.92929 
L 291.931726 269.59041 
L 291.402244 272.25153 
L 290.905665 274.91265 
L 290.867057 275.116337 
L 290.374876 277.57377 
L 289.789113 280.23489 
L 289.102329 282.89601 
L 289.081457 282.964637 
L 288.154423 285.55713 
L 287.260145 287.561179 
L 286.886152 288.21825 
" clip-path="url(#pee7881c3d6)" style="fill: none; stroke: #539ecd; stroke-width: 1.5"/>
   </g>
   <g id="PathCollection_6">
    <path d="M 154.209609 288.21825 
L 152.697329 287.97828 
L 150.876017 287.649734 
L 149.090417 287.264021 
L 147.304817 286.741374 
L 145.519217 285.957742 
L 144.922006 285.55713 
L 143.697905 284.570568 
L 142.314528 282.89601 
L 141.912305 282.286913 
L 140.943392 280.23489 
L 140.126705 277.974404 
L 140.015483 277.57377 
L 139.452327 274.91265 
L 139.039921 272.25153 
L 138.743662 269.59041 
L 138.535502 266.92929 
L 138.374082 263.82465 
L 138.341105 262.838428 
L 138.294282 261.16353 
L 138.246068 258.50241 
L 138.215536 255.84129 
L 138.19649 253.18017 
L 138.184717 250.51905 
L 138.177547 247.85793 
L 138.173373 245.19681 
L 138.171212 242.53569 
L 138.170369 239.87457 
L 138.170256 237.21345 
L 138.170364 234.55233 
L 138.170333 231.89121 
L 138.170024 229.23009 
L 138.169525 226.56897 
L 138.169069 223.90785 
L 138.16889 220.80321 
L 138.169124 218.14209 
L 138.169588 215.48097 
L 138.170028 212.81985 
L 138.170205 210.15873 
L 138.170023 207.49761 
L 138.169581 204.83649 
L 138.169117 202.17537 
L 138.168884 199.51425 
L 138.169008 196.85313 
L 138.169421 194.19201 
L 138.1699 191.53089 
L 138.170185 188.86977 
L 138.170121 186.20865 
L 138.169744 183.54753 
L 138.169256 180.88641 
L 138.168923 178.22529 
L 138.168958 175.12065 
L 138.169329 172.45953 
L 138.169803 169.79841 
L 138.170107 167.13729 
L 138.170046 164.47617 
L 138.169595 161.81505 
L 138.168882 159.15393 
L 138.16808 156.49281 
L 138.167235 153.83169 
L 138.166114 151.17057 
L 138.164138 148.50945 
L 138.160386 145.84833 
L 138.15364 143.18721 
L 138.142385 140.52609 
L 138.124711 137.86497 
L 138.0981 135.20385 
L 138.051159 132.09921 
L 137.99199 129.43809 
L 137.909028 126.77697 
L 137.794951 124.11585 
L 137.641283 121.45473 
L 137.438597 118.79361 
L 137.176781 116.13249 
L 136.8455 113.47137 
L 136.519793 111.336964 
L 136.444777 110.81025 
L 136.005534 108.14913 
L 135.490056 105.48801 
L 134.907382 102.82689 
L 134.734193 102.050022 
L 134.31194 100.16577 
L 133.733233 97.50465 
L 133.226378 94.84353 
L 132.948593 92.745076 
L 132.872528 92.18241 
L 132.741316 89.52129 
L 132.903897 86.41665 
L 132.948593 86.114651 
L 133.291464 83.75553 
L 133.832674 81.09441 
L 134.442392 78.43329 
L 134.734193 77.200477 
L 135.065887 75.77217 
L 135.652183 73.11105 
L 136.161933 70.44993 
L 136.519793 68.241685 
L 136.596956 67.78881 
L 136.985993 65.12769 
L 137.297264 62.46657 
L 137.543048 59.80545 
L 137.736207 57.14433 
L 137.889703 54.48321 
L 138.016688 51.82209 
L 138.130855 49.16097 
L 138.246896 46.49985 
L 138.341105 44.66584 
L 138.419051 43.39521 
L 138.632513 40.73409 
L 138.920179 38.07297 
L 139.313793 35.41185 
L 139.852214 32.75073 
L 140.126705 31.731419 
L 140.709944 30.08961 
L 141.912305 27.545664 
L 141.991269 27.42849 
L 143.697905 25.431583 
L 144.570891 24.76737 
L 145.519217 24.17228 
L 147.304817 23.449071 
L 149.090417 22.962571 
L 150.876017 22.594087 
L 152.697329 22.273894 
L 153.787028 22.10625 
" clip-path="url(#pee7881c3d6)" style="fill: none; stroke: #2b7bba; stroke-width: 1.5"/>
    <path d="M 271.391641 22.10625 
L 274.725233 22.674766 
L 276.510833 23.060479 
L 278.296433 23.583126 
L 280.082033 24.366758 
L 280.679244 24.76737 
L 281.903345 25.753932 
L 283.688945 28.037587 
L 284.657858 30.08961 
L 285.585767 32.75073 
L 286.148923 35.41185 
L 286.561329 38.07297 
L 287.065748 43.39521 
L 287.306968 49.16097 
L 287.416533 59.80545 
L 287.431991 105.48801 
L 287.521835 132.09921 
L 287.7522 140.52609 
L 288.078141 145.84833 
L 288.653244 151.17057 
L 289.557305 156.49281 
L 290.169804 159.15393 
L 290.942187 161.81505 
L 291.85937 164.47617 
L 293.002368 167.13729 
L 294.438257 169.872649 
L 296.259569 172.751013 
L 299.999244 178.22529 
L 301.616369 181.271571 
L 302.494311 183.54753 
L 303.437681 186.607807 
L 303.901996 188.86977 
L 304.627506 194.19201 
L 305.007067 199.51425 
L 305.217265 207.49761 
L 305.202793 215.48097 
L 305.06838 220.80321 
L 304.712136 226.56897 
L 304.037467 231.89121 
L 303.437681 234.843242 
L 302.682636 237.21345 
L 301.616369 239.878738 
L 299.830769 242.857716 
L 294.092073 250.51905 
L 292.625994 253.18017 
L 291.461123 255.84129 
L 290.522453 258.50241 
L 289.74806 261.16353 
L 288.433673 266.92929 
L 286.800191 274.91265 
L 285.474545 279.459349 
L 285.150119 280.23489 
L 283.688945 283.024445 
L 281.903345 285.001912 
L 280.082033 286.200555 
L 278.296433 286.902404 
L 274.725233 287.738684 
L 271.834319 288.21825 
L 271.834319 288.21825 
" clip-path="url(#pee7881c3d6)" style="fill: none; stroke: #2b7bba; stroke-width: 1.5"/>
   </g>
   <g id="PathCollection_7">
    <path d="M 140.115438 97.50465 
L 139.833167 94.84353 
L 139.649023 92.18241 
L 139.60253 89.52129 
L 139.737611 86.41665 
L 139.989184 83.75553 
L 140.126705 82.677383 
L 140.374404 81.09441 
L 140.832013 78.43329 
L 141.270416 75.77217 
L 141.661706 73.11105 
L 141.912305 71.147658 
L 142.026514 70.44993 
L 142.404458 67.78881 
L 142.709107 65.12769 
L 142.953096 62.46657 
L 143.149693 59.80545 
L 143.312611 57.14433 
L 143.456718 54.48321 
L 143.599147 51.82209 
L 143.697905 50.199651 
L 143.788421 49.16097 
L 144.08566 46.49985 
L 144.574672 43.39521 
L 145.18197 40.73409 
L 145.519217 39.680021 
L 146.2975 38.07297 
L 147.304817 36.567542 
L 148.445512 35.41185 
L 149.090417 34.92353 
L 150.876017 33.901678 
L 152.697329 33.020268 
L 153.331548 32.75073 
L 154.482929 32.372171 
L 156.268529 31.902726 
L 158.054129 31.611638 
L 159.875441 31.536992 
L 161.661041 31.667194 
L 163.446641 31.927004 
L 165.232241 32.206159 
L 167.053553 32.39335 
L 168.839153 32.40505 
L 170.624753 32.239562 
L 172.410353 31.960561 
L 174.231665 31.670629 
L 176.017265 31.490926 
L 177.802865 31.482426 
L 179.588465 31.64781 
L 181.409777 31.93113 
L 183.195377 32.214735 
L 184.980977 32.394591 
L 186.766577 32.400411 
L 188.587889 32.224591 
L 190.373489 31.942265 
L 192.159089 31.660738 
L 193.944689 31.487027 
L 195.766001 31.487764 
L 197.551601 31.662189 
L 199.337201 31.943146 
L 201.122801 32.224566 
L 202.944113 32.400236 
L 204.729713 32.394782 
L 206.515313 32.214733 
L 208.300913 31.930209 
L 210.122225 31.646359 
L 211.907825 31.481757 
L 213.693425 31.491685 
L 215.479025 31.671999 
L 217.300337 31.961172 
L 219.085937 32.238979 
L 220.871537 32.403635 
L 222.657137 32.390667 
L 224.478449 32.199625 
L 226.264049 31.912144 
L 228.049649 31.637006 
L 229.835249 31.478605 
L 231.656561 31.498094 
L 233.442161 31.687031 
L 235.227761 31.973179 
L 237.013361 32.248355 
L 238.834673 32.408183 
L 240.620273 32.383959 
L 242.405873 32.189348 
L 244.191473 31.900127 
L 246.012785 31.623345 
L 247.798385 31.474433 
L 249.583985 31.502747 
L 251.369585 31.697343 
L 253.190897 31.991383 
L 254.976497 32.262628 
L 256.762097 32.412207 
L 258.547697 32.382269 
L 260.369009 32.180697 
L 262.154609 31.89723 
L 263.940209 31.64563 
L 265.725809 31.534351 
L 267.547121 31.632886 
L 269.332721 31.944248 
L 271.118321 32.426232 
L 272.096316 32.75073 
L 272.903921 33.096632 
L 274.725233 33.982956 
L 276.510833 35.016645 
L 277.0235 35.41185 
L 278.296433 36.720795 
L 279.188964 38.07297 
L 280.082033 39.938493 
L 280.33462 40.73409 
L 280.931854 43.39521 
L 281.394286 46.49985 
L 281.648212 49.16097 
L 281.812358 51.82209 
L 281.903345 54.153444 
L 281.912254 54.48321 
L 281.957124 57.14433 
L 281.984837 59.80545 
L 282.001672 62.46657 
L 282.011399 65.12769 
L 282.016351 67.78881 
L 282.018206 70.44993 
L 282.018396 73.11105 
L 282.018146 75.77217 
L 282.018292 78.43329 
L 282.019116 81.09441 
L 282.020354 83.75553 
L 282.021424 86.41665 
L 282.02176 89.52129 
L 282.021112 92.18241 
L 282.019963 94.84353 
L 282.018948 97.50465 
L 282.018638 100.16577 
L 282.019237 102.82689 
L 282.020494 105.48801 
L 282.021862 108.14913 
L 282.022847 110.81025 
L 282.02336 113.47137 
L 282.023892 116.13249 
L 282.025462 118.79361 
L 282.02937 121.45473 
L 282.036962 124.11585 
L 282.049546 126.77697 
L 282.068595 129.43809 
L 282.096157 132.09921 
L 282.143308 135.20385 
L 282.201944 137.86497 
L 282.284134 140.52609 
L 282.397951 143.18721 
L 282.553127 145.84833 
L 282.761387 148.50945 
L 283.037279 151.17057 
L 283.399684 153.83169 
L 283.688945 155.504375 
L 283.821565 156.49281 
L 284.261857 159.15393 
L 284.830743 161.81505 
L 285.474545 164.171869 
L 285.545455 164.47617 
L 286.263261 167.13729 
L 287.180824 169.79841 
L 287.260145 170.006958 
L 288.13587 172.45953 
L 289.081457 174.664364 
L 289.280506 175.12065 
L 290.767143 178.22529 
L 290.867057 178.425371 
L 292.197661 180.88641 
L 292.652657 181.709209 
L 293.758647 183.54753 
L 294.438257 184.719677 
L 295.306973 186.20865 
L 296.259569 188.001967 
L 296.662179 188.86977 
L 297.696751 191.53089 
L 298.045169 192.63673 
L 298.412535 194.19201 
L 298.884173 196.85313 
L 299.225638 199.51425 
L 299.459982 202.17537 
L 299.609542 204.83649 
L 299.692717 207.49761 
L 299.721729 210.15873 
L 299.701225 212.81985 
L 299.627626 215.48097 
L 299.489146 218.14209 
L 299.266497 220.80321 
L 298.866376 223.90785 
L 298.370047 226.56897 
L 298.045169 227.853754 
L 297.571909 229.23009 
L 296.429203 231.89121 
L 296.259569 232.213837 
L 294.845941 234.55233 
L 294.438257 235.15423 
L 293.08299 237.21345 
L 292.652657 237.835857 
L 291.402396 239.87457 
L 290.867057 240.762465 
L 289.913482 242.53569 
L 289.081457 244.216674 
L 288.620978 245.19681 
L 287.505609 247.85793 
L 287.260145 248.520747 
L 286.49035 250.51905 
L 285.653351 253.18017 
L 285.474545 253.836234 
L 284.848261 255.84129 
L 284.161901 258.50241 
L 283.688945 260.670483 
L 283.553262 261.16353 
L 282.859134 263.82465 
L 282.087987 266.92929 
L 281.903345 267.60824 
L 281.149657 269.59041 
L 280.082033 272.001205 
L 279.920306 272.25153 
L 278.296433 274.244053 
L 277.523126 274.91265 
L 276.510833 275.591738 
L 274.725233 276.523287 
L 272.903921 277.354831 
L 272.369626 277.57377 
L 271.118321 277.972449 
L 269.332721 278.431939 
L 267.547121 278.717936 
L 265.725809 278.789997 
L 263.940209 278.658539 
L 262.154609 278.398098 
L 260.369009 278.118626 
L 258.547697 277.931277 
L 256.762097 277.919504 
L 254.976497 278.084959 
L 253.190897 278.363948 
L 251.369585 278.653874 
L 249.583985 278.833575 
L 247.798385 278.842074 
L 246.012785 278.67669 
L 244.191473 278.39337 
L 242.405873 278.109765 
L 240.620273 277.929909 
L 238.834673 277.924089 
L 237.013361 278.099909 
L 235.227761 278.382235 
L 233.442161 278.663762 
L 231.656561 278.837473 
L 229.835249 278.836736 
L 228.049649 278.662311 
L 226.264049 278.381354 
L 224.478449 278.099934 
L 222.657137 277.924264 
L 220.871537 277.929718 
L 219.085937 278.109767 
L 217.300337 278.394291 
L 215.479025 278.678141 
L 213.693425 278.842743 
L 211.907825 278.832815 
L 210.122225 278.652501 
L 208.300913 278.363328 
L 206.515313 278.085521 
L 204.729713 277.920865 
L 202.944113 277.933833 
L 201.122801 278.124875 
L 199.337201 278.412356 
L 197.551601 278.687494 
L 195.766001 278.845895 
L 193.944689 278.826406 
L 192.159089 278.637469 
L 190.373489 278.351321 
L 188.587889 278.076145 
L 186.766577 277.916317 
L 184.980977 277.940541 
L 183.195377 278.135152 
L 181.409777 278.424373 
L 179.588465 278.701155 
L 177.802865 278.850067 
L 176.017265 278.821753 
L 174.231665 278.627157 
L 172.410353 278.333117 
L 170.624753 278.061872 
L 168.839153 277.912293 
L 167.053553 277.942231 
L 165.232241 278.143803 
L 163.446641 278.42727 
L 161.661041 278.67887 
L 159.875441 278.790149 
L 158.054129 278.691614 
L 156.268529 278.380252 
L 154.482929 277.898268 
L 153.504934 277.57377 
L 152.697329 277.227868 
L 150.876017 276.341544 
L 149.090417 275.307855 
L 148.57775 274.91265 
L 147.304817 273.603705 
L 146.412286 272.25153 
L 145.519217 270.386007 
L 145.26663 269.59041 
L 144.669396 266.92929 
L 144.206964 263.82465 
L 143.953038 261.16353 
L 143.788892 258.50241 
L 143.697905 256.171056 
L 143.688996 255.84129 
L 143.644126 253.18017 
L 143.616413 250.51905 
L 143.599578 247.85793 
L 143.589851 245.19681 
L 143.584899 242.53569 
L 143.583044 239.87457 
L 143.582854 237.21345 
L 143.583104 234.55233 
L 143.582959 231.89121 
L 143.582134 229.23009 
L 143.580896 226.56897 
L 143.579828 223.90785 
L 143.579493 220.80321 
L 143.580145 218.14209 
L 143.581302 215.48097 
L 143.582334 212.81985 
L 143.58268 210.15873 
L 143.582151 207.49761 
L 143.581035 204.83649 
L 143.579936 202.17537 
L 143.57945 199.51425 
L 143.579839 196.85313 
L 143.580894 194.19201 
L 143.582042 191.53089 
L 143.582662 188.86977 
L 143.582416 186.20865 
L 143.581438 183.54753 
L 143.580259 180.88641 
L 143.579516 178.22529 
L 143.579712 175.12065 
L 143.580684 172.45953 
L 143.581851 169.79841 
L 143.582569 167.13729 
L 143.58242 164.47617 
L 143.581436 161.81505 
L 143.58005 159.15393 
L 143.578831 156.49281 
L 143.578107 153.83169 
L 143.577687 151.17057 
L 143.576797 148.50945 
L 143.574248 145.84833 
L 143.568703 143.18721 
L 143.558862 140.52609 
L 143.543414 137.86497 
L 143.520729 135.20385 
L 143.481852 132.09921 
L 143.433664 129.43809 
L 143.36632 126.77697 
L 143.273296 124.11585 
L 143.14699 121.45473 
L 142.978981 118.79361 
L 142.760186 116.13249 
L 142.481007 113.47137 
L 142.131723 110.81025 
L 141.912305 109.39773 
L 141.762925 108.14913 
L 141.400474 105.48801 
L 140.989036 102.82689 
L 140.547227 100.16577 
L 140.126705 97.589147 
L 140.115438 97.50465 
z
" clip-path="url(#pee7881c3d6)" style="fill: none; stroke: #0b559f; stroke-width: 1.5"/>
   </g>
   <g id="PathCollection_8"/>
   <g id="patch_3">
    <path d="M 34.240625 288.21825 
L 34.240625 22.10625 
" style="fill: none; stroke: #000000; stroke-width: 0.8; stroke-linejoin: miter; stroke-linecap: square"/>
   </g>
   <g id="patch_4">
    <path d="M 391.360625 288.21825 
L 391.360625 22.10625 
" style="fill: none; stroke: #000000; stroke-width: 0.8; stroke-linejoin: miter; stroke-linecap: square"/>
   </g>
   <g id="patch_5">
    <path d="M 34.240625 288.21825 
L 391.360625 288.21825 
" style="fill: none; stroke: #000000; stroke-width: 0.8; stroke-linejoin: miter; stroke-linecap: square"/>
   </g>
   <g id="patch_6">
    <path d="M 34.240625 22.10625 
L 391.360625 22.10625 
" style="fill: none; stroke: #000000; stroke-width: 0.8; stroke-linejoin: miter; stroke-linecap: square"/>
   </g>
   <g id="text_16">
    <!-- 7.1_cross_-41.0 -->
    <g transform="translate(166.181563 16.10625)scale(0.12 -0.12)">
     <defs>
      <path id="DejaVuSans-37" d="M 525 4666 
L 3525 4666 
L 3525 4397 
L 1831 0 
L 1172 0 
L 2766 4134 
L 525 4134 
L 525 4666 
z
" transform="scale(0.015625)"/>
      <path id="DejaVuSans-2e" d="M 684 794 
L 1344 794 
L 1344 0 
L 684 0 
L 684 794 
z
" transform="scale(0.015625)"/>
      <path id="DejaVuSans-5f" d="M 3263 -1063 
L 3263 -1509 
L -63 -1509 
L -63 -1063 
L 3263 -1063 
z
" transform="scale(0.015625)"/>
      <path id="DejaVuSans-63" d="M 3122 3366 
L 3122 2828 
Q 2878 2963 2633 3030 
Q 2388 3097 2138 3097 
Q 1578 3097 1268 2742 
Q 959 2388 959 1747 
Q 959 1106 1268 751 
Q 1578 397 2138 397 
Q 2388 397 2633 464 
Q 2878 531 3122 666 
L 3122 134 
Q 2881 22 2623 -34 
Q 2366 -91 2075 -91 
Q 1284 -91 818 406 
Q 353 903 353 1747 
Q 353 2603 823 3093 
Q 1294 3584 2113 3584 
Q 2378 3584 2631 3529 
Q 2884 3475 3122 3366 
z
" transform="scale(0.015625)"/>
      <path id="DejaVuSans-72" d="M 2631 2963 
Q 2534 3019 2420 3045 
Q 2306 3072 2169 3072 
Q 1681 3072 1420 2755 
Q 1159 2438 1159 1844 
L 1159 0 
L 581 0 
L 581 3500 
L 1159 3500 
L 1159 2956 
Q 1341 3275 1631 3429 
Q 1922 3584 2338 3584 
Q 2397 3584 2469 3576 
Q 2541 3569 2628 3553 
L 2631 2963 
z
" transform="scale(0.015625)"/>
      <path id="DejaVuSans-73" d="M 2834 3397 
L 2834 2853 
Q 2591 2978 2328 3040 
Q 2066 3103 1784 3103 
Q 1356 3103 1142 2972 
Q 928 2841 928 2578 
Q 928 2378 1081 2264 
Q 1234 2150 1697 2047 
L 1894 2003 
Q 2506 1872 2764 1633 
Q 3022 1394 3022 966 
Q 3022 478 2636 193 
Q 2250 -91 1575 -91 
Q 1294 -91 989 -36 
Q 684 19 347 128 
L 347 722 
Q 666 556 975 473 
Q 1284 391 1588 391 
Q 1994 391 2212 530 
Q 2431 669 2431 922 
Q 2431 1156 2273 1281 
Q 2116 1406 1581 1522 
L 1381 1569 
Q 847 1681 609 1914 
Q 372 2147 372 2553 
Q 372 3047 722 3315 
Q 1072 3584 1716 3584 
Q 2034 3584 2315 3537 
Q 2597 3491 2834 3397 
z
" transform="scale(0.015625)"/>
      <path id="DejaVuSans-2d" d="M 313 2009 
L 1997 2009 
L 1997 1497 
L 313 1497 
L 313 2009 
z
" transform="scale(0.015625)"/>
     </defs>
     <use xlink:href="#DejaVuSans-37"/>
     <use xlink:href="#DejaVuSans-2e" x="63.623047"/>
     <use xlink:href="#DejaVuSans-31" x="95.410156"/>
     <use xlink:href="#DejaVuSans-5f" x="159.033203"/>
     <use xlink:href="#DejaVuSans-63" x="209.033203"/>
     <use xlink:href="#DejaVuSans-72" x="264.013672"/>
     <use xlink:href="#DejaVuSans-6f" x="302.876953"/>
     <use xlink:href="#DejaVuSans-73" x="364.058594"/>
     <use xlink:href="#DejaVuSans-73" x="416.158203"/>
     <use xlink:href="#DejaVuSans-5f" x="468.257812"/>
     <use xlink:href="#DejaVuSans-2d" x="518.257812"/>
     <use xlink:href="#DejaVuSans-34" x="554.341797"/>
     <use xlink:href="#DejaVuSans-31" x="617.964844"/>
     <use xlink:href="#DejaVuSans-2e" x="681.587891"/>
     <use xlink:href="#DejaVuSans-30" x="713.375"/>
    </g>
   </g>
  </g>
 </g>
 <defs>
  <clipPath id="pee7881c3d6">
   <rect x="34.240625" y="22.10625" width="357.12" height="266.112"/>
  </clipPath>
 </defs>
</svg>
