<?xml version="1.0" encoding="utf-8" standalone="no"?>
<!DOCTYPE svg PUBLIC "-//W3C//DTD SVG 1.1//EN"
  "http://www.w3.org/Graphics/SVG/1.1/DTD/svg11.dtd">
<svg xmlns:xlink="http://www.w3.org/1999/xlink" width="408.104375pt" height="325.7745pt" viewBox="0 0 408.104375 325.7745" xmlns="http://www.w3.org/2000/svg" version="1.1">
 <metadata>
  <rdf:RDF xmlns:dc="http://purl.org/dc/elements/1.1/" xmlns:cc="http://creativecommons.org/ns#" xmlns:rdf="http://www.w3.org/1999/02/22-rdf-syntax-ns#">
   <cc:Work>
    <dc:type rdf:resource="http://purl.org/dc/dcmitype/StillImage"/>
    <dc:date>2024-07-12T12:30:37.899102</dc:date>
    <dc:format>image/svg+xml</dc:format>
    <dc:creator>
     <cc:Agent>
      <dc:title>Matplotlib v3.5.3, https://matplotlib.org/</dc:title>
     </cc:Agent>
    </dc:creator>
   </cc:Work>
  </rdf:RDF>
 </metadata>
 <defs>
  <style type="text/css">*{stroke-linejoin: round; stroke-linecap: butt}</style>
 </defs>
 <g id="figure_1">
  <g id="patch_1">
   <path d="M 0 325.7745 
L 408.104375 325.7745 
L 408.104375 0 
L 0 0 
z
" style="fill: #ffffff"/>
  </g>
  <g id="axes_1">
   <g id="patch_2">
    <path d="M 34.240625 288.21825 
L 391.360625 288.21825 
L 391.360625 22.10625 
L 34.240625 22.10625 
z
" style="fill: #ffffff"/>
   </g>
   <g id="matplotlib.axis_1">
    <g id="xtick_1">
     <g id="line2d_1">
      <defs>
       <path id="mce25ef9099" d="M 0 0 
L 0 3.5 
" style="stroke: #000000; stroke-width: 0.8"/>
      </defs>
      <g>
       <use xlink:href="#mce25ef9099" x="34.240625" y="288.21825" style="stroke: #000000; stroke-width: 0.8"/>
      </g>
     </g>
     <g id="text_1">
      <!-- 0 -->
      <g transform="translate(31.059375 302.816687)scale(0.1 -0.1)">
       <defs>
        <path id="DejaVuSans-30" d="M 2034 4250 
Q 1547 4250 1301 3770 
Q 1056 3291 1056 2328 
Q 1056 1369 1301 889 
Q 1547 409 2034 409 
Q 2525 409 2770 889 
Q 3016 1369 3016 2328 
Q 3016 3291 2770 3770 
Q 2525 4250 2034 4250 
z
M 2034 4750 
Q 2819 4750 3233 4129 
Q 3647 3509 3647 2328 
Q 3647 1150 3233 529 
Q 2819 -91 2034 -91 
Q 1250 -91 836 529 
Q 422 1150 422 2328 
Q 422 3509 836 4129 
Q 1250 4750 2034 4750 
z
" transform="scale(0.015625)"/>
       </defs>
       <use xlink:href="#DejaVuSans-30"/>
      </g>
     </g>
    </g>
    <g id="xtick_2">
     <g id="line2d_2">
      <g>
       <use xlink:href="#mce25ef9099" x="105.664625" y="288.21825" style="stroke: #000000; stroke-width: 0.8"/>
      </g>
     </g>
     <g id="text_2">
      <!-- 20 -->
      <g transform="translate(99.302125 302.816687)scale(0.1 -0.1)">
       <defs>
        <path id="DejaVuSans-32" d="M 1228 531 
L 3431 531 
L 3431 0 
L 469 0 
L 469 531 
Q 828 903 1448 1529 
Q 2069 2156 2228 2338 
Q 2531 2678 2651 2914 
Q 2772 3150 2772 3378 
Q 2772 3750 2511 3984 
Q 2250 4219 1831 4219 
Q 1534 4219 1204 4116 
Q 875 4013 500 3803 
L 500 4441 
Q 881 4594 1212 4672 
Q 1544 4750 1819 4750 
Q 2544 4750 2975 4387 
Q 3406 4025 3406 3419 
Q 3406 3131 3298 2873 
Q 3191 2616 2906 2266 
Q 2828 2175 2409 1742 
Q 1991 1309 1228 531 
z
" transform="scale(0.015625)"/>
       </defs>
       <use xlink:href="#DejaVuSans-32"/>
       <use xlink:href="#DejaVuSans-30" x="63.623047"/>
      </g>
     </g>
    </g>
    <g id="xtick_3">
     <g id="line2d_3">
      <g>
       <use xlink:href="#mce25ef9099" x="177.088625" y="288.21825" style="stroke: #000000; stroke-width: 0.8"/>
      </g>
     </g>
     <g id="text_3">
      <!-- 40 -->
      <g transform="translate(170.726125 302.816687)scale(0.1 -0.1)">
       <defs>
        <path id="DejaVuSans-34" d="M 2419 4116 
L 825 1625 
L 2419 1625 
L 2419 4116 
z
M 2253 4666 
L 3047 4666 
L 3047 1625 
L 3713 1625 
L 3713 1100 
L 3047 1100 
L 3047 0 
L 2419 0 
L 2419 1100 
L 313 1100 
L 313 1709 
L 2253 4666 
z
" transform="scale(0.015625)"/>
       </defs>
       <use xlink:href="#DejaVuSans-34"/>
       <use xlink:href="#DejaVuSans-30" x="63.623047"/>
      </g>
     </g>
    </g>
    <g id="xtick_4">
     <g id="line2d_4">
      <g>
       <use xlink:href="#mce25ef9099" x="248.512625" y="288.21825" style="stroke: #000000; stroke-width: 0.8"/>
      </g>
     </g>
     <g id="text_4">
      <!-- 60 -->
      <g transform="translate(242.150125 302.816687)scale(0.1 -0.1)">
       <defs>
        <path id="DejaVuSans-36" d="M 2113 2584 
Q 1688 2584 1439 2293 
Q 1191 2003 1191 1497 
Q 1191 994 1439 701 
Q 1688 409 2113 409 
Q 2538 409 2786 701 
Q 3034 994 3034 1497 
Q 3034 2003 2786 2293 
Q 2538 2584 2113 2584 
z
M 3366 4563 
L 3366 3988 
Q 3128 4100 2886 4159 
Q 2644 4219 2406 4219 
Q 1781 4219 1451 3797 
Q 1122 3375 1075 2522 
Q 1259 2794 1537 2939 
Q 1816 3084 2150 3084 
Q 2853 3084 3261 2657 
Q 3669 2231 3669 1497 
Q 3669 778 3244 343 
Q 2819 -91 2113 -91 
Q 1303 -91 875 529 
Q 447 1150 447 2328 
Q 447 3434 972 4092 
Q 1497 4750 2381 4750 
Q 2619 4750 2861 4703 
Q 3103 4656 3366 4563 
z
" transform="scale(0.015625)"/>
       </defs>
       <use xlink:href="#DejaVuSans-36"/>
       <use xlink:href="#DejaVuSans-30" x="63.623047"/>
      </g>
     </g>
    </g>
    <g id="xtick_5">
     <g id="line2d_5">
      <g>
       <use xlink:href="#mce25ef9099" x="319.936625" y="288.21825" style="stroke: #000000; stroke-width: 0.8"/>
      </g>
     </g>
     <g id="text_5">
      <!-- 80 -->
      <g transform="translate(313.574125 302.816687)scale(0.1 -0.1)">
       <defs>
        <path id="DejaVuSans-38" d="M 2034 2216 
Q 1584 2216 1326 1975 
Q 1069 1734 1069 1313 
Q 1069 891 1326 650 
Q 1584 409 2034 409 
Q 2484 409 2743 651 
Q 3003 894 3003 1313 
Q 3003 1734 2745 1975 
Q 2488 2216 2034 2216 
z
M 1403 2484 
Q 997 2584 770 2862 
Q 544 3141 544 3541 
Q 544 4100 942 4425 
Q 1341 4750 2034 4750 
Q 2731 4750 3128 4425 
Q 3525 4100 3525 3541 
Q 3525 3141 3298 2862 
Q 3072 2584 2669 2484 
Q 3125 2378 3379 2068 
Q 3634 1759 3634 1313 
Q 3634 634 3220 271 
Q 2806 -91 2034 -91 
Q 1263 -91 848 271 
Q 434 634 434 1313 
Q 434 1759 690 2068 
Q 947 2378 1403 2484 
z
M 1172 3481 
Q 1172 3119 1398 2916 
Q 1625 2713 2034 2713 
Q 2441 2713 2670 2916 
Q 2900 3119 2900 3481 
Q 2900 3844 2670 4047 
Q 2441 4250 2034 4250 
Q 1625 4250 1398 4047 
Q 1172 3844 1172 3481 
z
" transform="scale(0.015625)"/>
       </defs>
       <use xlink:href="#DejaVuSans-38"/>
       <use xlink:href="#DejaVuSans-30" x="63.623047"/>
      </g>
     </g>
    </g>
    <g id="xtick_6">
     <g id="line2d_6">
      <g>
       <use xlink:href="#mce25ef9099" x="391.360625" y="288.21825" style="stroke: #000000; stroke-width: 0.8"/>
      </g>
     </g>
     <g id="text_6">
      <!-- 100 -->
      <g transform="translate(381.816875 302.816687)scale(0.1 -0.1)">
       <defs>
        <path id="DejaVuSans-31" d="M 794 531 
L 1825 531 
L 1825 4091 
L 703 3866 
L 703 4441 
L 1819 4666 
L 2450 4666 
L 2450 531 
L 3481 531 
L 3481 0 
L 794 0 
L 794 531 
z
" transform="scale(0.015625)"/>
       </defs>
       <use xlink:href="#DejaVuSans-31"/>
       <use xlink:href="#DejaVuSans-30" x="63.623047"/>
       <use xlink:href="#DejaVuSans-30" x="127.246094"/>
      </g>
     </g>
    </g>
    <g id="text_7">
     <!-- axialRotation -->
     <g transform="translate(180.024844 316.494812)scale(0.1 -0.1)">
      <defs>
       <path id="DejaVuSans-61" d="M 2194 1759 
Q 1497 1759 1228 1600 
Q 959 1441 959 1056 
Q 959 750 1161 570 
Q 1363 391 1709 391 
Q 2188 391 2477 730 
Q 2766 1069 2766 1631 
L 2766 1759 
L 2194 1759 
z
M 3341 1997 
L 3341 0 
L 2766 0 
L 2766 531 
Q 2569 213 2275 61 
Q 1981 -91 1556 -91 
Q 1019 -91 701 211 
Q 384 513 384 1019 
Q 384 1609 779 1909 
Q 1175 2209 1959 2209 
L 2766 2209 
L 2766 2266 
Q 2766 2663 2505 2880 
Q 2244 3097 1772 3097 
Q 1472 3097 1187 3025 
Q 903 2953 641 2809 
L 641 3341 
Q 956 3463 1253 3523 
Q 1550 3584 1831 3584 
Q 2591 3584 2966 3190 
Q 3341 2797 3341 1997 
z
" transform="scale(0.015625)"/>
       <path id="DejaVuSans-78" d="M 3513 3500 
L 2247 1797 
L 3578 0 
L 2900 0 
L 1881 1375 
L 863 0 
L 184 0 
L 1544 1831 
L 300 3500 
L 978 3500 
L 1906 2253 
L 2834 3500 
L 3513 3500 
z
" transform="scale(0.015625)"/>
       <path id="DejaVuSans-69" d="M 603 3500 
L 1178 3500 
L 1178 0 
L 603 0 
L 603 3500 
z
M 603 4863 
L 1178 4863 
L 1178 4134 
L 603 4134 
L 603 4863 
z
" transform="scale(0.015625)"/>
       <path id="DejaVuSans-6c" d="M 603 4863 
L 1178 4863 
L 1178 0 
L 603 0 
L 603 4863 
z
" transform="scale(0.015625)"/>
       <path id="DejaVuSans-52" d="M 2841 2188 
Q 3044 2119 3236 1894 
Q 3428 1669 3622 1275 
L 4263 0 
L 3584 0 
L 2988 1197 
Q 2756 1666 2539 1819 
Q 2322 1972 1947 1972 
L 1259 1972 
L 1259 0 
L 628 0 
L 628 4666 
L 2053 4666 
Q 2853 4666 3247 4331 
Q 3641 3997 3641 3322 
Q 3641 2881 3436 2590 
Q 3231 2300 2841 2188 
z
M 1259 4147 
L 1259 2491 
L 2053 2491 
Q 2509 2491 2742 2702 
Q 2975 2913 2975 3322 
Q 2975 3731 2742 3939 
Q 2509 4147 2053 4147 
L 1259 4147 
z
" transform="scale(0.015625)"/>
       <path id="DejaVuSans-6f" d="M 1959 3097 
Q 1497 3097 1228 2736 
Q 959 2375 959 1747 
Q 959 1119 1226 758 
Q 1494 397 1959 397 
Q 2419 397 2687 759 
Q 2956 1122 2956 1747 
Q 2956 2369 2687 2733 
Q 2419 3097 1959 3097 
z
M 1959 3584 
Q 2709 3584 3137 3096 
Q 3566 2609 3566 1747 
Q 3566 888 3137 398 
Q 2709 -91 1959 -91 
Q 1206 -91 779 398 
Q 353 888 353 1747 
Q 353 2609 779 3096 
Q 1206 3584 1959 3584 
z
" transform="scale(0.015625)"/>
       <path id="DejaVuSans-74" d="M 1172 4494 
L 1172 3500 
L 2356 3500 
L 2356 3053 
L 1172 3053 
L 1172 1153 
Q 1172 725 1289 603 
Q 1406 481 1766 481 
L 2356 481 
L 2356 0 
L 1766 0 
Q 1100 0 847 248 
Q 594 497 594 1153 
L 594 3053 
L 172 3053 
L 172 3500 
L 594 3500 
L 594 4494 
L 1172 4494 
z
" transform="scale(0.015625)"/>
       <path id="DejaVuSans-6e" d="M 3513 2113 
L 3513 0 
L 2938 0 
L 2938 2094 
Q 2938 2591 2744 2837 
Q 2550 3084 2163 3084 
Q 1697 3084 1428 2787 
Q 1159 2491 1159 1978 
L 1159 0 
L 581 0 
L 581 3500 
L 1159 3500 
L 1159 2956 
Q 1366 3272 1645 3428 
Q 1925 3584 2291 3584 
Q 2894 3584 3203 3211 
Q 3513 2838 3513 2113 
z
" transform="scale(0.015625)"/>
      </defs>
      <use xlink:href="#DejaVuSans-61"/>
      <use xlink:href="#DejaVuSans-78" x="61.279297"/>
      <use xlink:href="#DejaVuSans-69" x="120.458984"/>
      <use xlink:href="#DejaVuSans-61" x="148.242188"/>
      <use xlink:href="#DejaVuSans-6c" x="209.521484"/>
      <use xlink:href="#DejaVuSans-52" x="237.304688"/>
      <use xlink:href="#DejaVuSans-6f" x="302.287109"/>
      <use xlink:href="#DejaVuSans-74" x="363.46875"/>
      <use xlink:href="#DejaVuSans-61" x="402.677734"/>
      <use xlink:href="#DejaVuSans-74" x="463.957031"/>
      <use xlink:href="#DejaVuSans-69" x="503.166016"/>
      <use xlink:href="#DejaVuSans-6f" x="530.949219"/>
      <use xlink:href="#DejaVuSans-6e" x="592.130859"/>
     </g>
    </g>
   </g>
   <g id="matplotlib.axis_2">
    <g id="ytick_1">
     <g id="line2d_7">
      <defs>
       <path id="mee6d815129" d="M 0 0 
L -3.5 0 
" style="stroke: #000000; stroke-width: 0.8"/>
      </defs>
      <g>
       <use xlink:href="#mee6d815129" x="34.240625" y="288.21825" style="stroke: #000000; stroke-width: 0.8"/>
      </g>
     </g>
     <g id="text_8">
      <!-- 0 -->
      <g transform="translate(20.878125 292.017469)scale(0.1 -0.1)">
       <use xlink:href="#DejaVuSans-30"/>
      </g>
     </g>
    </g>
    <g id="ytick_2">
     <g id="line2d_8">
      <g>
       <use xlink:href="#mee6d815129" x="34.240625" y="243.86625" style="stroke: #000000; stroke-width: 0.8"/>
      </g>
     </g>
     <g id="text_9">
      <!-- 1 -->
      <g transform="translate(20.878125 247.665469)scale(0.1 -0.1)">
       <use xlink:href="#DejaVuSans-31"/>
      </g>
     </g>
    </g>
    <g id="ytick_3">
     <g id="line2d_9">
      <g>
       <use xlink:href="#mee6d815129" x="34.240625" y="199.51425" style="stroke: #000000; stroke-width: 0.8"/>
      </g>
     </g>
     <g id="text_10">
      <!-- 2 -->
      <g transform="translate(20.878125 203.313469)scale(0.1 -0.1)">
       <use xlink:href="#DejaVuSans-32"/>
      </g>
     </g>
    </g>
    <g id="ytick_4">
     <g id="line2d_10">
      <g>
       <use xlink:href="#mee6d815129" x="34.240625" y="155.16225" style="stroke: #000000; stroke-width: 0.8"/>
      </g>
     </g>
     <g id="text_11">
      <!-- 3 -->
      <g transform="translate(20.878125 158.961469)scale(0.1 -0.1)">
       <defs>
        <path id="DejaVuSans-33" d="M 2597 2516 
Q 3050 2419 3304 2112 
Q 3559 1806 3559 1356 
Q 3559 666 3084 287 
Q 2609 -91 1734 -91 
Q 1441 -91 1130 -33 
Q 819 25 488 141 
L 488 750 
Q 750 597 1062 519 
Q 1375 441 1716 441 
Q 2309 441 2620 675 
Q 2931 909 2931 1356 
Q 2931 1769 2642 2001 
Q 2353 2234 1838 2234 
L 1294 2234 
L 1294 2753 
L 1863 2753 
Q 2328 2753 2575 2939 
Q 2822 3125 2822 3475 
Q 2822 3834 2567 4026 
Q 2313 4219 1838 4219 
Q 1578 4219 1281 4162 
Q 984 4106 628 3988 
L 628 4550 
Q 988 4650 1302 4700 
Q 1616 4750 1894 4750 
Q 2613 4750 3031 4423 
Q 3450 4097 3450 3541 
Q 3450 3153 3228 2886 
Q 3006 2619 2597 2516 
z
" transform="scale(0.015625)"/>
       </defs>
       <use xlink:href="#DejaVuSans-33"/>
      </g>
     </g>
    </g>
    <g id="ytick_5">
     <g id="line2d_11">
      <g>
       <use xlink:href="#mee6d815129" x="34.240625" y="110.81025" style="stroke: #000000; stroke-width: 0.8"/>
      </g>
     </g>
     <g id="text_12">
      <!-- 4 -->
      <g transform="translate(20.878125 114.609469)scale(0.1 -0.1)">
       <use xlink:href="#DejaVuSans-34"/>
      </g>
     </g>
    </g>
    <g id="ytick_6">
     <g id="line2d_12">
      <g>
       <use xlink:href="#mee6d815129" x="34.240625" y="66.45825" style="stroke: #000000; stroke-width: 0.8"/>
      </g>
     </g>
     <g id="text_13">
      <!-- 5 -->
      <g transform="translate(20.878125 70.257469)scale(0.1 -0.1)">
       <defs>
        <path id="DejaVuSans-35" d="M 691 4666 
L 3169 4666 
L 3169 4134 
L 1269 4134 
L 1269 2991 
Q 1406 3038 1543 3061 
Q 1681 3084 1819 3084 
Q 2600 3084 3056 2656 
Q 3513 2228 3513 1497 
Q 3513 744 3044 326 
Q 2575 -91 1722 -91 
Q 1428 -91 1123 -41 
Q 819 9 494 109 
L 494 744 
Q 775 591 1075 516 
Q 1375 441 1709 441 
Q 2250 441 2565 725 
Q 2881 1009 2881 1497 
Q 2881 1984 2565 2268 
Q 2250 2553 1709 2553 
Q 1456 2553 1204 2497 
Q 953 2441 691 2322 
L 691 4666 
z
" transform="scale(0.015625)"/>
       </defs>
       <use xlink:href="#DejaVuSans-35"/>
      </g>
     </g>
    </g>
    <g id="ytick_7">
     <g id="line2d_13">
      <g>
       <use xlink:href="#mee6d815129" x="34.240625" y="22.10625" style="stroke: #000000; stroke-width: 0.8"/>
      </g>
     </g>
     <g id="text_14">
      <!-- 6 -->
      <g transform="translate(20.878125 25.905469)scale(0.1 -0.1)">
       <use xlink:href="#DejaVuSans-36"/>
      </g>
     </g>
    </g>
    <g id="text_15">
     <!-- zShift -->
     <g transform="translate(14.798438 169.151312)rotate(-90)scale(0.1 -0.1)">
      <defs>
       <path id="DejaVuSans-7a" d="M 353 3500 
L 3084 3500 
L 3084 2975 
L 922 459 
L 3084 459 
L 3084 0 
L 275 0 
L 275 525 
L 2438 3041 
L 353 3041 
L 353 3500 
z
" transform="scale(0.015625)"/>
       <path id="DejaVuSans-53" d="M 3425 4513 
L 3425 3897 
Q 3066 4069 2747 4153 
Q 2428 4238 2131 4238 
Q 1616 4238 1336 4038 
Q 1056 3838 1056 3469 
Q 1056 3159 1242 3001 
Q 1428 2844 1947 2747 
L 2328 2669 
Q 3034 2534 3370 2195 
Q 3706 1856 3706 1288 
Q 3706 609 3251 259 
Q 2797 -91 1919 -91 
Q 1588 -91 1214 -16 
Q 841 59 441 206 
L 441 856 
Q 825 641 1194 531 
Q 1563 422 1919 422 
Q 2459 422 2753 634 
Q 3047 847 3047 1241 
Q 3047 1584 2836 1778 
Q 2625 1972 2144 2069 
L 1759 2144 
Q 1053 2284 737 2584 
Q 422 2884 422 3419 
Q 422 4038 858 4394 
Q 1294 4750 2059 4750 
Q 2388 4750 2728 4690 
Q 3069 4631 3425 4513 
z
" transform="scale(0.015625)"/>
       <path id="DejaVuSans-68" d="M 3513 2113 
L 3513 0 
L 2938 0 
L 2938 2094 
Q 2938 2591 2744 2837 
Q 2550 3084 2163 3084 
Q 1697 3084 1428 2787 
Q 1159 2491 1159 1978 
L 1159 0 
L 581 0 
L 581 4863 
L 1159 4863 
L 1159 2956 
Q 1366 3272 1645 3428 
Q 1925 3584 2291 3584 
Q 2894 3584 3203 3211 
Q 3513 2838 3513 2113 
z
" transform="scale(0.015625)"/>
       <path id="DejaVuSans-66" d="M 2375 4863 
L 2375 4384 
L 1825 4384 
Q 1516 4384 1395 4259 
Q 1275 4134 1275 3809 
L 1275 3500 
L 2222 3500 
L 2222 3053 
L 1275 3053 
L 1275 0 
L 697 0 
L 697 3053 
L 147 3053 
L 147 3500 
L 697 3500 
L 697 3744 
Q 697 4328 969 4595 
Q 1241 4863 1831 4863 
L 2375 4863 
z
" transform="scale(0.015625)"/>
      </defs>
      <use xlink:href="#DejaVuSans-7a"/>
      <use xlink:href="#DejaVuSans-53" x="52.490234"/>
      <use xlink:href="#DejaVuSans-68" x="115.966797"/>
      <use xlink:href="#DejaVuSans-69" x="179.345703"/>
      <use xlink:href="#DejaVuSans-66" x="207.128906"/>
      <use xlink:href="#DejaVuSans-74" x="240.583984"/>
     </g>
    </g>
   </g>
   <g id="PathCollection_1"/>
   <g id="PathCollection_2">
    <path d="M 145.360622 288.21825 
L 144.967006 285.55713 
L 144.667195 282.89601 
L 144.440101 280.23489 
L 144.269566 277.57377 
L 144.142984 274.91265 
L 144.050391 272.25153 
L 143.983854 269.59041 
L 143.93705 266.92929 
L 143.900727 263.82465 
L 143.880785 261.16353 
L 143.86796 258.50241 
L 143.859939 255.84129 
L 143.855007 253.18017 
L 143.851973 250.51905 
L 143.850083 247.85793 
L 143.848911 245.19681 
L 143.84824 242.53569 
L 143.847944 239.87457 
L 143.847905 237.21345 
L 143.847978 234.55233 
L 143.848004 231.89121 
L 143.84784 229.23009 
L 143.84737 226.56897 
L 143.846477 223.90785 
L 143.844598 220.80321 
L 143.841694 218.14209 
L 143.836545 215.48097 
L 143.827404 212.81985 
L 143.8115 210.15873 
L 143.784674 207.49761 
L 143.740906 204.83649 
L 143.697905 203.181092 
L 143.662964 202.17537 
L 143.5218 199.51425 
L 143.312756 196.85313 
L 143.01211 194.19201 
L 142.591929 191.53089 
L 142.020864 188.86977 
L 141.912305 188.486444 
L 141.075144 186.20865 
L 140.126705 184.113183 
L 139.816747 183.54753 
L 138.341105 181.198661 
L 138.1306 180.88641 
L 136.519793 178.640805 
L 136.233875 178.22529 
L 134.734193 176.055096 
L 134.162607 175.12065 
L 132.948593 172.986598 
L 132.670841 172.45953 
L 131.422089 169.79841 
L 131.162993 169.15637 
L 130.358325 167.13729 
L 129.517637 164.47617 
L 129.341681 163.813569 
L 128.771369 161.81505 
L 128.170997 159.15393 
L 127.710146 156.49281 
L 127.556081 155.385623 
L 127.299769 153.83169 
L 126.953091 151.17057 
L 126.689519 148.50945 
L 126.490585 145.84833 
L 126.341969 143.18721 
L 126.2324 140.52609 
L 126.152922 137.86497 
L 126.096388 135.20385 
L 126.051893 132.09921 
L 126.027064 129.43809 
L 126.010852 126.77697 
L 126.000582 124.11585 
L 125.994229 121.45473 
L 125.99034 118.79361 
L 125.987951 116.13249 
L 125.986496 113.47137 
L 125.985692 110.81025 
L 125.985431 108.14913 
L 125.985685 105.48801 
L 125.986482 102.82689 
L 125.987929 100.16577 
L 125.990305 97.50465 
L 125.994176 94.84353 
L 126.000504 92.18241 
L 126.010749 89.52129 
L 126.030419 86.41665 
L 126.057089 83.75553 
L 126.096683 81.09441 
L 126.153965 78.43329 
L 126.235043 75.77217 
L 126.347753 73.11105 
L 126.502166 70.44993 
L 126.711284 67.78881 
L 126.992032 65.12769 
L 127.366726 62.46657 
L 127.556081 61.398329 
L 127.804093 59.80545 
L 128.337827 57.14433 
L 129.052143 54.48321 
L 129.341681 53.594114 
L 129.917793 51.82209 
L 131.035865 49.16097 
L 131.162993 48.896505 
L 132.443392 46.49985 
L 132.948593 45.671945 
L 134.654636 43.39521 
L 134.734193 43.293205 
L 136.519793 41.289218 
L 137.077382 40.73409 
L 138.341105 39.365554 
L 139.466462 38.07297 
L 140.126705 37.179978 
L 141.155292 35.41185 
L 141.912305 33.788062 
L 142.26746 32.75073 
L 142.991327 30.08961 
L 143.589588 27.42849 
L 143.697905 26.875354 
L 144.016462 24.76737 
L 144.408746 22.10625 
" clip-path="url(#pd184cb5f84)" style="fill: none; stroke: #dbe9f6; stroke-width: 1.5"/>
    <path d="M 280.240628 22.10625 
L 280.634244 24.76737 
L 280.934055 27.42849 
L 281.161149 30.08961 
L 281.331684 32.75073 
L 281.458266 35.41185 
L 281.550859 38.07297 
L 281.617397 40.73409 
L 281.664202 43.39521 
L 281.70053 46.49985 
L 281.720482 49.16097 
L 281.733328 51.82209 
L 281.741397 54.48321 
L 281.746434 57.14433 
L 281.749687 59.80545 
L 281.752024 62.46657 
L 281.75408 65.12769 
L 281.756453 67.78881 
L 281.759931 70.44993 
L 281.765748 73.11105 
L 281.775867 75.77217 
L 281.793295 78.43329 
L 281.822486 81.09441 
L 281.869831 83.75553 
L 281.903345 84.954787 
L 281.957967 86.41665 
L 282.140508 89.52129 
L 282.377233 92.18241 
L 282.714431 94.84353 
L 283.181285 97.50465 
L 283.688945 99.653939 
L 283.848333 100.16577 
L 284.901191 102.82689 
L 285.474545 104.010609 
L 286.326836 105.48801 
L 287.260145 106.912448 
L 288.112881 108.14913 
L 289.081457 109.481805 
L 289.99487 110.81025 
L 290.867057 112.100876 
L 291.708795 113.47137 
L 292.652657 115.152026 
L 293.162928 116.13249 
L 294.35639 118.79361 
L 294.438257 119.000499 
L 295.399324 121.45473 
L 296.203086 124.11585 
L 296.259569 124.333877 
L 296.941379 126.77697 
L 297.515727 129.43809 
L 297.956809 132.09921 
L 298.045169 132.76181 
L 298.427631 135.20385 
L 298.744238 137.86497 
L 298.984444 140.52609 
L 299.165184 143.18721 
L 299.299658 145.84833 
L 299.398299 148.50945 
L 299.469414 151.17057 
L 299.51963 153.83169 
L 299.55423 156.49281 
L 299.577406 159.15393 
L 299.592462 161.81505 
L 299.601958 164.47617 
L 299.607819 167.13729 
L 299.611417 169.79841 
L 299.613648 172.45953 
L 299.615041 175.12065 
L 299.615962 178.22529 
L 299.616309 180.88641 
L 299.616366 183.54753 
L 299.616264 186.20865 
L 299.616141 188.86977 
L 299.616101 191.53089 
L 299.616175 194.19201 
L 299.616305 196.85313 
L 299.616371 199.51425 
L 299.616234 202.17537 
L 299.615771 204.83649 
L 299.614868 207.49761 
L 299.613368 210.15873 
L 299.610966 212.81985 
L 299.607084 215.48097 
L 299.600751 218.14209 
L 299.590503 220.80321 
L 299.570832 223.90785 
L 299.544162 226.56897 
L 299.504567 229.23009 
L 299.447285 231.89121 
L 299.366207 234.55233 
L 299.253497 237.21345 
L 299.099084 239.87457 
L 298.889966 242.53569 
L 298.609218 245.19681 
L 298.234524 247.85793 
L 298.045169 248.926171 
L 297.797157 250.51905 
L 297.263423 253.18017 
L 296.549107 255.84129 
L 296.259569 256.730386 
L 295.683457 258.50241 
L 294.565385 261.16353 
L 294.438257 261.427995 
L 293.157858 263.82465 
L 292.652657 264.652555 
L 290.946614 266.92929 
L 290.867057 267.031295 
L 289.081457 269.035282 
L 288.523868 269.59041 
L 287.260145 270.958946 
L 286.134788 272.25153 
L 285.474545 273.144522 
L 284.445958 274.91265 
L 283.688945 276.536438 
L 283.33379 277.57377 
L 282.609923 280.23489 
L 282.011662 282.89601 
L 281.903345 283.449146 
L 281.584788 285.55713 
L 281.192504 288.21825 
" clip-path="url(#pd184cb5f84)" style="fill: none; stroke: #dbe9f6; stroke-width: 1.5"/>
   </g>
   <g id="PathCollection_3">
    <path d="M 149.190022 288.21825 
L 149.090417 287.644924 
L 148.711078 285.55713 
L 148.336835 282.89601 
L 148.053299 280.23489 
L 147.840515 277.57377 
L 147.682815 274.91265 
L 147.567741 272.25153 
L 147.485332 269.59041 
L 147.427619 266.92929 
L 147.383095 263.82465 
L 147.358818 261.16353 
L 147.343304 258.50241 
L 147.333647 255.84129 
L 147.327717 253.18017 
L 147.32406 250.51905 
L 147.321777 247.85793 
L 147.320376 245.19681 
L 147.319604 242.53569 
L 147.319305 239.87457 
L 147.319319 237.21345 
L 147.319457 234.55233 
L 147.319526 231.89121 
L 147.319388 229.23009 
L 147.318978 226.56897 
L 147.318279 223.90785 
L 147.317006 220.80321 
L 147.31522 218.14209 
L 147.312142 215.48097 
L 147.306654 212.81985 
L 147.304817 212.312282 
L 147.295601 210.15873 
L 147.276326 207.49761 
L 147.24495 204.83649 
L 147.195645 202.17537 
L 147.120481 199.51425 
L 147.008901 196.85313 
L 146.847209 194.19201 
L 146.618079 191.53089 
L 146.30001 188.86977 
L 145.86654 186.20865 
L 145.519217 184.598591 
L 145.233436 183.54753 
L 144.306174 180.88641 
L 143.697905 179.499663 
L 143.004153 178.22529 
L 141.912305 176.545525 
L 140.87173 175.12065 
L 140.126705 174.198058 
L 138.76104 172.45953 
L 138.341105 171.93404 
L 136.838722 169.79841 
L 136.519793 169.317911 
L 135.270719 167.13729 
L 134.734193 166.071385 
L 134.014976 164.47617 
L 133.02578 161.81505 
L 132.948593 161.571836 
L 132.209338 159.15393 
L 131.573311 156.49281 
L 131.162993 154.300954 
L 131.070695 153.83169 
L 130.644592 151.17057 
L 130.320006 148.50945 
L 130.074834 145.84833 
L 129.891744 143.18721 
L 129.756958 140.52609 
L 129.659438 137.86497 
L 129.590328 135.20385 
L 129.53622 132.09921 
L 129.506225 129.43809 
L 129.486769 126.77697 
L 129.474516 124.11585 
L 129.466964 121.45473 
L 129.462341 118.79361 
L 129.459498 116.13249 
L 129.457782 113.47137 
L 129.456884 110.81025 
L 129.456691 108.14913 
L 129.457185 105.48801 
L 129.458418 102.82689 
L 129.460575 100.16577 
L 129.464096 97.50465 
L 129.469838 94.84353 
L 129.479217 92.18241 
L 129.494342 89.52129 
L 129.523188 86.41665 
L 129.562033 83.75553 
L 129.619377 81.09441 
L 129.701951 78.43329 
L 129.818401 75.77217 
L 129.979843 73.11105 
L 130.200593 70.44993 
L 130.499178 67.78881 
L 130.899775 65.12769 
L 131.162993 63.764849 
L 131.410702 62.46657 
L 132.061695 59.80545 
L 132.929903 57.14433 
L 132.948593 57.095409 
L 134.07133 54.48321 
L 134.734193 53.224694 
L 135.636199 51.82209 
L 136.519793 50.596985 
L 137.837257 49.16097 
L 138.341105 48.626992 
L 140.126705 47.007715 
L 140.702935 46.49985 
L 141.912305 45.296718 
L 143.469737 43.39521 
L 143.697905 43.053168 
L 144.831108 40.73409 
L 145.519217 38.912315 
L 145.756865 38.07297 
L 146.361413 35.41185 
L 146.852903 32.75073 
L 147.281188 30.08961 
L 147.304817 29.933432 
L 147.63076 27.42849 
L 147.996726 24.76737 
L 148.417639 22.10625 
" clip-path="url(#pd184cb5f84)" style="fill: none; stroke: #bad6eb; stroke-width: 1.5"/>
    <path d="M 276.411228 22.10625 
L 276.510833 22.679576 
L 276.890172 24.76737 
L 277.264415 27.42849 
L 277.547951 30.08961 
L 277.760735 32.75073 
L 277.918435 35.41185 
L 278.03351 38.07297 
L 278.115919 40.73409 
L 278.173633 43.39521 
L 278.21816 46.49985 
L 278.242443 49.16097 
L 278.257971 51.82209 
L 278.267659 54.48321 
L 278.273656 57.14433 
L 278.277453 59.80545 
L 278.280019 62.46657 
L 278.281979 65.12769 
L 278.283817 67.78881 
L 278.286096 70.44993 
L 278.289655 73.11105 
L 278.29578 75.77217 
L 278.296433 75.936477 
L 278.308175 78.43329 
L 278.329159 81.09441 
L 278.363079 83.75553 
L 278.416084 86.41665 
L 278.513308 89.52129 
L 278.639902 92.18241 
L 278.821955 94.84353 
L 279.078117 97.50465 
L 279.431436 100.16577 
L 279.910289 102.82689 
L 280.082033 103.560375 
L 280.65085 105.48801 
L 281.660088 108.14913 
L 281.903345 108.668928 
L 283.13879 110.81025 
L 283.688945 111.625199 
L 285.074431 113.47137 
L 285.474545 113.961181 
L 287.185039 116.13249 
L 287.260145 116.226665 
L 289.052234 118.79361 
L 289.081457 118.838193 
L 290.5589 121.45473 
L 290.867057 122.078855 
L 291.768437 124.11585 
L 292.652657 126.574169 
L 292.722344 126.77697 
L 293.509517 129.43809 
L 294.11901 132.09921 
L 294.438257 133.879935 
L 294.68548 135.20385 
L 295.074926 137.86497 
L 295.370851 140.52609 
L 295.5936 143.18721 
L 295.759207 145.84833 
L 295.880462 148.50945 
L 295.967622 151.17057 
L 296.028917 153.83169 
L 296.070931 156.49281 
L 296.098899 159.15393 
L 296.11695 161.81505 
L 296.128271 164.47617 
L 296.135239 167.13729 
L 296.139522 169.79841 
L 296.142188 172.45953 
L 296.143845 175.12065 
L 296.144909 178.22529 
L 296.14527 180.88641 
L 296.145283 183.54753 
L 296.145125 186.20865 
L 296.144977 188.86977 
L 296.144958 191.53089 
L 296.145083 194.19201 
L 296.145253 196.85313 
L 296.145297 199.51425 
L 296.145031 202.17537 
L 296.144298 204.83649 
L 296.142944 207.49761 
L 296.140727 210.15873 
L 296.137178 212.81985 
L 296.131423 215.48097 
L 296.122037 218.14209 
L 296.106909 220.80321 
L 296.078062 223.90785 
L 296.039217 226.56897 
L 295.981873 229.23009 
L 295.899299 231.89121 
L 295.782849 234.55233 
L 295.621407 237.21345 
L 295.400657 239.87457 
L 295.102072 242.53569 
L 294.701475 245.19681 
L 294.438257 246.559651 
L 294.190548 247.85793 
L 293.539555 250.51905 
L 292.671347 253.18017 
L 292.652657 253.229091 
L 291.52992 255.84129 
L 290.867057 257.099806 
L 289.965051 258.50241 
L 289.081457 259.727515 
L 287.763993 261.16353 
L 287.260145 261.697508 
L 285.474545 263.316785 
L 284.898315 263.82465 
L 283.688945 265.027782 
L 282.131513 266.92929 
L 281.903345 267.271332 
L 280.770142 269.59041 
L 280.082033 271.412185 
L 279.844385 272.25153 
L 279.239837 274.91265 
L 278.748347 277.57377 
L 278.320062 280.23489 
L 278.296433 280.391068 
L 277.97049 282.89601 
L 277.604524 285.55713 
L 277.183611 288.21825 
" clip-path="url(#pd184cb5f84)" style="fill: none; stroke: #bad6eb; stroke-width: 1.5"/>
   </g>
   <g id="PathCollection_4">
    <path d="M 152.256537 288.21825 
L 151.646568 285.55713 
L 151.179588 282.89601 
L 150.876017 280.632584 
L 150.823065 280.23489 
L 150.548261 277.57377 
L 150.345047 274.91265 
L 150.197171 272.25153 
L 150.091624 269.59041 
L 150.018003 266.92929 
L 149.961487 263.82465 
L 149.930843 261.16353 
L 149.911353 258.50241 
L 149.89926 255.84129 
L 149.891837 253.18017 
L 149.887249 250.51905 
L 149.884384 247.85793 
L 149.882643 245.19681 
L 149.881718 242.53569 
L 149.881404 239.87457 
L 149.881478 237.21345 
L 149.881683 234.55233 
L 149.88178 231.89121 
L 149.881616 229.23009 
L 149.881164 226.56897 
L 149.880481 223.90785 
L 149.879423 220.80321 
L 149.878109 218.14209 
L 149.875905 215.48097 
L 149.871907 212.81985 
L 149.864744 210.15873 
L 149.852505 207.49761 
L 149.832585 204.83649 
L 149.801444 202.17537 
L 149.754266 199.51425 
L 149.684596 196.85313 
L 149.583986 194.19201 
L 149.441693 191.53089 
L 149.244366 188.86977 
L 149.090417 187.32778 
L 148.963948 186.20865 
L 148.566943 183.54753 
L 148.040846 180.88641 
L 147.34899 178.22529 
L 147.304817 178.08749 
L 146.105954 175.12065 
L 145.519217 173.967461 
L 144.557521 172.45953 
L 143.697905 171.298366 
L 142.43169 169.79841 
L 141.912305 169.227278 
L 140.126705 167.184815 
L 140.089973 167.13729 
L 138.341105 164.777934 
L 138.155006 164.47617 
L 136.681626 161.81505 
L 136.519793 161.479816 
L 135.567283 159.15393 
L 134.734193 156.622836 
L 134.695255 156.49281 
L 134.027542 153.83169 
L 133.511127 151.17057 
L 133.114714 148.50945 
L 132.948593 147.062368 
L 132.808552 145.84833 
L 132.575234 143.18721 
L 132.4038 140.52609 
L 132.280097 137.86497 
L 132.19273 135.20385 
L 132.124642 132.09921 
L 132.087101 129.43809 
L 132.062876 126.77697 
L 132.047688 124.11585 
L 132.038349 121.45473 
L 132.03263 118.79361 
L 132.029111 116.13249 
L 132.027011 113.47137 
L 132.02597 110.81025 
L 132.025869 108.14913 
L 132.026699 105.48801 
L 132.028552 102.82689 
L 132.031722 100.16577 
L 132.036884 97.50465 
L 132.045308 94.84353 
L 132.059052 92.18241 
L 132.081132 89.52129 
L 132.123005 86.41665 
L 132.179077 83.75553 
L 132.261462 81.09441 
L 132.379606 78.43329 
L 132.545633 75.77217 
L 132.775106 73.11105 
L 132.948593 71.608483 
L 133.085215 70.44993 
L 133.499721 67.78881 
L 134.055958 65.12769 
L 134.734193 62.678553 
L 134.802162 62.46657 
L 135.852513 59.80545 
L 136.519793 58.449868 
L 137.348419 57.14433 
L 138.341105 55.785052 
L 139.623741 54.48321 
L 140.126705 53.99714 
L 141.912305 52.584838 
L 142.90209 51.82209 
L 143.697905 51.151626 
L 145.519217 49.168596 
L 145.524266 49.16097 
L 146.975813 46.49985 
L 147.304817 45.718448 
L 148.030624 43.39521 
L 148.666605 40.73409 
L 149.090417 38.50932 
L 149.161388 38.07297 
L 149.537953 35.41185 
L 149.880505 32.75073 
L 150.221527 30.08961 
L 150.593518 27.42849 
L 150.876017 25.687719 
L 151.028604 24.76737 
L 151.564886 22.10625 
" clip-path="url(#pd184cb5f84)" style="fill: none; stroke: #89bedc; stroke-width: 1.5"/>
    <path d="M 273.344713 22.10625 
L 273.954682 24.76737 
L 274.421662 27.42849 
L 274.725233 29.691916 
L 274.778185 30.08961 
L 275.052989 32.75073 
L 275.256203 35.41185 
L 275.40408 38.07297 
L 275.509626 40.73409 
L 275.583248 43.39521 
L 275.639766 46.49985 
L 275.670416 49.16097 
L 275.689917 51.82209 
L 275.702035 54.48321 
L 275.70951 57.14433 
L 275.714206 59.80545 
L 275.71729 62.46657 
L 275.71946 65.12769 
L 275.721201 67.78881 
L 275.723024 70.44993 
L 275.72566 73.11105 
L 275.73018 75.77217 
L 275.73809 78.43329 
L 275.751431 81.09441 
L 275.772955 83.75553 
L 275.8064 86.41665 
L 275.867334 89.52129 
L 275.946272 92.18241 
L 276.059461 94.84353 
L 276.218477 97.50465 
L 276.437621 100.16577 
L 276.510833 100.836982 
L 276.757175 102.82689 
L 277.193724 105.48801 
L 277.770481 108.14913 
L 278.296433 110.033178 
L 278.564149 110.81025 
L 279.707439 113.47137 
L 280.082033 114.187462 
L 281.356629 116.13249 
L 281.903345 116.854719 
L 283.566839 118.79361 
L 283.688945 118.926375 
L 285.474545 120.959876 
L 285.854669 121.45473 
L 287.260145 123.371973 
L 287.712137 124.11585 
L 289.081457 126.662488 
L 289.133789 126.77697 
L 290.194021 129.43809 
L 290.867057 131.542096 
L 291.029364 132.09921 
L 291.760954 135.20385 
L 292.234256 137.86497 
L 292.596437 140.52609 
L 292.652657 141.059652 
L 292.878353 143.18721 
L 293.089275 145.84833 
L 293.243374 148.50945 
L 293.35382 151.17057 
L 293.431204 153.83169 
L 293.484008 156.49281 
L 293.518983 159.15393 
L 293.541439 161.81505 
L 293.555465 164.47617 
L 293.564085 167.13729 
L 293.569391 169.79841 
L 293.572701 172.45953 
L 293.574748 175.12065 
L 293.576028 178.22529 
L 293.576418 180.88641 
L 293.576377 183.54753 
L 293.57615 186.20865 
L 293.575971 188.86977 
L 293.575981 191.53089 
L 293.576173 194.19201 
L 293.576391 196.85313 
L 293.576396 199.51425 
L 293.575945 202.17537 
L 293.574828 204.83649 
L 293.57283 207.49761 
L 293.56959 210.15873 
L 293.564394 212.81985 
L 293.555954 215.48097 
L 293.542203 218.14209 
L 293.52012 220.80321 
L 293.478246 223.90785 
L 293.422173 226.56897 
L 293.339788 229.23009 
L 293.221644 231.89121 
L 293.055617 234.55233 
L 292.826144 237.21345 
L 292.652657 238.716017 
L 292.516035 239.87457 
L 292.101529 242.53569 
L 291.545292 245.19681 
L 290.867057 247.645947 
L 290.799088 247.85793 
L 289.748737 250.51905 
L 289.081457 251.874632 
L 288.252831 253.18017 
L 287.260145 254.539448 
L 285.977509 255.84129 
L 285.474545 256.32736 
L 283.688945 257.739662 
L 282.69916 258.50241 
L 281.903345 259.172874 
L 280.082033 261.155904 
L 280.076984 261.16353 
L 278.625437 263.82465 
L 278.296433 264.606052 
L 277.570626 266.92929 
L 276.934645 269.59041 
L 276.510833 271.81518 
L 276.439862 272.25153 
L 276.063297 274.91265 
L 275.720745 277.57377 
L 275.379723 280.23489 
L 275.007732 282.89601 
L 274.725233 284.636781 
L 274.572646 285.55713 
L 274.036364 288.21825 
" clip-path="url(#pd184cb5f84)" style="fill: none; stroke: #89bedc; stroke-width: 1.5"/>
   </g>
   <g id="PathCollection_5">
    <path d="M 155.518764 288.21825 
L 154.568816 285.55713 
L 154.482929 285.256951 
L 153.926801 282.89601 
L 153.447899 280.23489 
L 153.087995 277.57377 
L 152.821316 274.91265 
L 152.697329 273.222988 
L 152.6311 272.25153 
L 152.500616 269.59041 
L 152.409884 266.92929 
L 152.340512 263.82465 
L 152.303065 261.16353 
L 152.279338 258.50241 
L 152.264649 255.84129 
L 152.255632 253.18017 
L 152.250048 250.51905 
L 152.246562 247.85793 
L 152.244466 245.19681 
L 152.243394 242.53569 
L 152.243078 239.87457 
L 152.243224 237.21345 
L 152.2435 234.55233 
L 152.243611 231.89121 
L 152.243399 229.23009 
L 152.242878 226.56897 
L 152.242178 223.90785 
L 152.241282 220.80321 
L 152.240347 218.14209 
L 152.238832 215.48097 
L 152.23596 212.81985 
L 152.230612 210.15873 
L 152.221323 207.49761 
L 152.206198 204.83649 
L 152.182727 202.17537 
L 152.147504 199.51425 
L 152.09592 196.85313 
L 152.0219 194.19201 
L 151.917731 191.53089 
L 151.773944 188.86977 
L 151.579167 186.20865 
L 151.319823 183.54753 
L 150.979561 180.88641 
L 150.876017 180.235342 
L 150.52735 178.22529 
L 149.823269 175.12065 
L 149.090417 172.656507 
L 149.019041 172.45953 
L 147.860095 169.79841 
L 147.304817 168.752235 
L 146.182137 167.13729 
L 145.519217 166.30192 
L 143.745715 164.47617 
L 143.697905 164.429844 
L 141.912305 162.636596 
L 141.21599 161.81505 
L 140.126705 160.453044 
L 139.319216 159.15393 
L 138.341105 157.359959 
L 137.967258 156.49281 
L 137.010043 153.83169 
L 136.519793 152.137942 
L 136.282278 151.17057 
L 135.763134 148.50945 
L 135.367492 145.84833 
L 135.070346 143.18721 
L 134.850998 140.52609 
L 134.734193 138.572959 
L 134.694436 137.86497 
L 134.58818 135.20385 
L 134.505668 132.09921 
L 134.460379 129.43809 
L 134.431281 126.77697 
L 134.413104 124.11585 
L 134.401945 121.45473 
L 134.395106 118.79361 
L 134.3909 116.13249 
L 134.388419 113.47137 
L 134.387264 110.81025 
L 134.387311 108.14913 
L 134.388567 105.48801 
L 134.391179 102.82689 
L 134.395582 100.16577 
L 134.402741 97.50465 
L 134.414431 94.84353 
L 134.433476 92.18241 
L 134.463964 89.52129 
L 134.521508 86.41665 
L 134.598208 83.75553 
L 134.710463 81.09441 
L 134.734193 80.694535 
L 134.879368 78.43329 
L 135.118476 75.77217 
L 135.448678 73.11105 
L 135.898605 70.44993 
L 136.504951 67.78881 
L 136.519793 67.736675 
L 137.45256 65.12769 
L 138.341105 63.19733 
L 138.811674 62.46657 
L 140.126705 60.729206 
L 141.15296 59.80545 
L 141.912305 59.170119 
L 143.697905 58.013787 
L 144.997651 57.14433 
L 145.519217 56.770796 
L 147.304817 54.962961 
L 147.619197 54.48321 
L 149.049889 51.82209 
L 149.090417 51.72948 
L 149.937693 49.16097 
L 150.610287 46.49985 
L 150.876017 45.183177 
L 151.192183 43.39521 
L 151.584072 40.73409 
L 151.924563 38.07297 
L 152.243245 35.41185 
L 152.569345 32.75073 
L 152.697329 31.807388 
L 152.9493 30.08961 
L 153.4174 27.42849 
L 154.008933 24.76737 
L 154.482929 23.087326 
L 154.836098 22.10625 
" clip-path="url(#pd184cb5f84)" style="fill: none; stroke: #539ecd; stroke-width: 1.5"/>
    <path d="M 270.082486 22.10625 
L 271.032434 24.76737 
L 271.118321 25.067549 
L 271.674449 27.42849 
L 272.153351 30.08961 
L 272.513255 32.75073 
L 272.779935 35.41185 
L 272.903921 37.10151 
L 272.97015 38.07297 
L 273.100634 40.73409 
L 273.191367 43.39521 
L 273.260741 46.49985 
L 273.298192 49.16097 
L 273.321928 51.82209 
L 273.336636 54.48321 
L 273.345694 57.14433 
L 273.351363 59.80545 
L 273.355019 62.46657 
L 273.357447 65.12769 
L 273.359149 67.78881 
L 273.360623 70.44993 
L 273.362547 73.11105 
L 273.365867 75.77217 
L 273.371818 78.43329 
L 273.381962 81.09441 
L 273.398296 83.75553 
L 273.423465 86.41665 
L 273.468853 89.52129 
L 273.527164 92.18241 
L 273.610293 94.84353 
L 273.726526 97.50465 
L 273.885945 100.16577 
L 274.100614 102.82689 
L 274.384954 105.48801 
L 274.725233 107.935164 
L 274.757367 108.14913 
L 275.253946 110.81025 
L 275.896963 113.47137 
L 276.510833 115.481633 
L 276.753914 116.13249 
L 277.967775 118.79361 
L 278.296433 119.398516 
L 279.764869 121.45473 
L 280.082033 121.845719 
L 281.903345 123.72117 
L 282.293105 124.11585 
L 283.688945 125.515126 
L 284.750239 126.77697 
L 285.474545 127.694157 
L 286.538408 129.43809 
L 287.260145 130.793533 
L 287.808798 132.09921 
L 288.86471 135.20385 
L 289.081457 136.006253 
L 289.507493 137.86497 
L 289.982385 140.52609 
L 290.342648 143.18721 
L 290.61175 145.84833 
L 290.809135 148.50945 
L 290.867057 149.59074 
L 290.946578 151.17057 
L 291.040598 153.83169 
L 291.104524 156.49281 
L 291.146687 159.15393 
L 291.173643 161.81505 
L 291.190424 164.47617 
L 291.200727 167.13729 
L 291.207081 169.79841 
L 291.211052 172.45953 
L 291.213494 175.12065 
L 291.214977 178.22529 
L 291.215379 180.88641 
L 291.215268 183.54753 
L 291.214965 186.20865 
L 291.21476 188.86977 
L 291.214813 191.53089 
L 291.215081 194.19201 
L 291.215344 196.85313 
L 291.215284 199.51425 
L 291.214592 202.17537 
L 291.213002 204.83649 
L 291.210223 207.49761 
L 291.205739 210.15873 
L 291.19854 212.81985 
L 291.186833 215.48097 
L 291.16778 218.14209 
L 291.137288 220.80321 
L 291.079743 223.90785 
L 291.003042 226.56897 
L 290.890787 229.23009 
L 290.867057 229.629967 
L 290.721882 231.89121 
L 290.482774 234.55233 
L 290.152572 237.21345 
L 289.702645 239.87457 
L 289.096299 242.53569 
L 289.081457 242.587825 
L 288.14869 245.19681 
L 287.260145 247.12717 
L 286.789576 247.85793 
L 285.474545 249.595294 
L 284.44829 250.51905 
L 283.688945 251.154381 
L 281.903345 252.310713 
L 280.603599 253.18017 
L 280.082033 253.553704 
L 278.296433 255.361539 
L 277.982053 255.84129 
L 276.551361 258.50241 
L 276.510833 258.59502 
L 275.663557 261.16353 
L 274.990963 263.82465 
L 274.725233 265.141323 
L 274.409067 266.92929 
L 274.017178 269.59041 
L 273.676687 272.25153 
L 273.358005 274.91265 
L 273.031905 277.57377 
L 272.903921 278.517112 
L 272.65195 280.23489 
L 272.18385 282.89601 
L 271.592317 285.55713 
L 271.118321 287.237174 
L 270.765152 288.21825 
" clip-path="url(#pd184cb5f84)" style="fill: none; stroke: #539ecd; stroke-width: 1.5"/>
   </g>
   <g id="PathCollection_6">
    <path d="M 171.812606 288.21825 
L 170.624753 287.741348 
L 168.839153 287.314904 
L 167.053553 287.293209 
L 163.446641 287.860193 
L 161.661041 287.726709 
L 159.875441 286.785836 
L 158.829761 285.55713 
L 158.054129 284.442467 
L 157.39729 282.89601 
L 156.268529 279.255606 
L 155.953965 277.57377 
L 155.311386 272.25153 
L 154.98494 266.92929 
L 154.793292 258.50241 
L 154.740521 239.87457 
L 154.657301 199.51425 
L 154.465754 191.53089 
L 154.225013 186.20865 
L 153.804447 180.88641 
L 153.039455 175.12065 
L 152.542099 172.45953 
L 151.934393 169.79841 
L 150.876017 166.25831 
L 150.141275 164.47617 
L 148.706843 161.81505 
L 147.304817 160.018654 
L 145.519217 158.444169 
L 143.198868 156.49281 
L 141.912305 155.113329 
L 141.077328 153.83169 
L 140.126705 152.142871 
L 139.739794 151.17057 
L 138.879722 148.50945 
L 138.234937 145.84833 
L 137.542293 140.52609 
L 137.178185 135.20385 
L 136.955955 126.77697 
L 136.894198 110.81025 
L 136.971194 92.18241 
L 137.241093 83.75553 
L 137.684117 78.43329 
L 138.341105 74.188323 
L 138.615949 73.11105 
L 139.513316 70.44993 
L 140.126705 69.044776 
L 140.99827 67.78881 
L 141.912305 66.693259 
L 143.697905 65.436497 
L 147.304817 63.681479 
L 149.090417 61.954913 
L 150.876017 58.704689 
L 151.434555 57.14433 
L 152.222313 54.48321 
L 152.838538 51.82209 
L 153.738534 46.49985 
L 155.552012 32.75073 
L 156.268529 29.299456 
L 156.917688 27.42849 
L 158.179184 24.76737 
L 159.875441 23.087834 
L 161.661041 22.461029 
L 163.446641 22.520365 
L 165.232241 22.845765 
L 167.053553 23.063397 
L 168.839153 22.911619 
L 171.208112 22.10625 
L 171.208112 22.10625 
" clip-path="url(#pd184cb5f84)" style="fill: none; stroke: #2b7bba; stroke-width: 1.5"/>
    <path d="M 182.480054 22.10625 
L 183.195377 22.391917 
L 184.980977 22.815665 
L 186.766577 22.773727 
L 188.587889 22.263169 
L 188.95943 22.10625 
" clip-path="url(#pd184cb5f84)" style="fill: none; stroke: #2b7bba; stroke-width: 1.5"/>
    <path d="M 189.542486 288.21825 
L 188.587889 287.850601 
L 186.766577 287.481861 
L 184.980977 287.603102 
L 183.195377 288.157644 
L 183.054109 288.21825 
" clip-path="url(#pd184cb5f84)" style="fill: none; stroke: #2b7bba; stroke-width: 1.5"/>
    <path d="M 200.340216 22.10625 
L 201.122801 22.415895 
L 202.944113 22.827231 
L 204.729713 22.755475 
L 206.515313 22.236077 
L 206.821052 22.10625 
" clip-path="url(#pd184cb5f84)" style="fill: none; stroke: #2b7bba; stroke-width: 1.5"/>
    <path d="M 207.400515 288.21825 
L 206.515313 287.873429 
L 204.729713 287.490519 
L 202.944113 287.58212 
L 201.122801 288.129759 
L 200.915826 288.21825 
" clip-path="url(#pd184cb5f84)" style="fill: none; stroke: #2b7bba; stroke-width: 1.5"/>
    <path d="M 218.200735 22.10625 
L 219.085937 22.451071 
L 220.871537 22.833981 
L 222.657137 22.74238 
L 224.478449 22.194741 
L 224.685424 22.10625 
" clip-path="url(#pd184cb5f84)" style="fill: none; stroke: #2b7bba; stroke-width: 1.5"/>
    <path d="M 225.261034 288.21825 
L 224.478449 287.908605 
L 222.657137 287.497269 
L 220.871537 287.569025 
L 219.085937 288.088423 
L 218.780198 288.21825 
" clip-path="url(#pd184cb5f84)" style="fill: none; stroke: #2b7bba; stroke-width: 1.5"/>
    <path d="M 236.058764 22.10625 
L 237.013361 22.473899 
L 238.834673 22.842639 
L 240.620273 22.721398 
L 242.405873 22.166856 
L 242.547141 22.10625 
" clip-path="url(#pd184cb5f84)" style="fill: none; stroke: #2b7bba; stroke-width: 1.5"/>
    <path d="M 243.121196 288.21825 
L 242.405873 287.932583 
L 240.620273 287.508835 
L 238.834673 287.550773 
L 237.013361 288.061331 
L 236.64182 288.21825 
" clip-path="url(#pd184cb5f84)" style="fill: none; stroke: #2b7bba; stroke-width: 1.5"/>
    <path d="M 253.788644 22.10625 
L 254.976497 22.583152 
L 256.762097 23.009596 
L 258.547697 23.031291 
L 262.154609 22.464307 
L 263.940209 22.597791 
L 265.725809 23.538664 
L 266.771489 24.76737 
L 267.547121 25.882033 
L 268.20396 27.42849 
L 269.332721 31.068894 
L 269.647285 32.75073 
L 270.289864 38.07297 
L 270.616311 43.39521 
L 270.807973 51.82209 
L 270.862916 70.44993 
L 270.956892 89.52129 
L 271.166208 97.50465 
L 271.431741 102.82689 
L 271.890304 108.14913 
L 272.638186 113.47137 
L 273.150852 116.13249 
L 273.782605 118.79361 
L 274.725233 121.888144 
L 275.663727 124.11585 
L 276.510833 125.788091 
L 278.296433 128.134412 
L 282.829251 132.09921 
L 283.688945 133.043111 
L 285.474545 136.000623 
L 286.170406 137.86497 
L 287.260145 141.781049 
L 287.511975 143.18721 
L 288.13813 148.50945 
L 288.462128 153.83169 
L 288.650474 161.81505 
L 288.709088 180.88641 
L 288.630064 218.14209 
L 288.360157 226.56897 
L 287.917133 231.89121 
L 287.260145 236.136177 
L 286.985301 237.21345 
L 286.087934 239.87457 
L 285.474545 241.279724 
L 284.60298 242.53569 
L 283.688945 243.631241 
L 281.903345 244.888003 
L 278.296433 246.643021 
L 276.510833 248.369587 
L 274.725233 251.619811 
L 274.166695 253.18017 
L 273.378937 255.84129 
L 272.762712 258.50241 
L 271.862716 263.82465 
L 270.049238 277.57377 
L 269.332721 281.025044 
L 268.683562 282.89601 
L 267.422066 285.55713 
L 265.725809 287.236666 
L 263.940209 287.863471 
L 262.154609 287.804135 
L 260.369009 287.478735 
L 258.547697 287.261103 
L 256.762097 287.412881 
L 254.393138 288.21825 
L 254.393138 288.21825 
" clip-path="url(#pd184cb5f84)" style="fill: none; stroke: #2b7bba; stroke-width: 1.5"/>
   </g>
   <g id="PathCollection_7">
    <path d="M 141.746791 140.52609 
L 141.29868 137.86497 
L 140.97639 135.20385 
L 140.723279 132.09921 
L 140.583964 129.43809 
L 140.494672 126.77697 
L 140.439064 124.11585 
L 140.404901 121.45473 
L 140.383843 118.79361 
L 140.370897 116.13249 
L 140.363578 113.47137 
L 140.360941 110.81025 
L 140.362802 108.14913 
L 140.369387 105.48801 
L 140.381562 102.82689 
L 140.401567 100.16577 
L 140.434027 97.50465 
L 140.48698 94.84353 
L 140.572758 92.18241 
L 140.708708 89.52129 
L 140.961862 86.41665 
L 141.294449 83.75553 
L 141.773978 81.09441 
L 141.912305 80.5406 
L 143.047144 78.43329 
L 143.697905 77.513272 
L 145.519217 76.89268 
L 147.304817 77.078604 
L 149.090417 76.861085 
L 150.120479 75.77217 
L 150.876017 74.999749 
L 151.717781 73.11105 
L 152.697329 70.783096 
L 152.797566 70.44993 
L 153.614897 67.78881 
L 154.333829 65.12769 
L 154.482929 64.540389 
L 154.991672 62.46657 
L 155.56279 59.80545 
L 156.040311 57.14433 
L 156.268529 55.668969 
L 156.492125 54.48321 
L 156.93067 51.82209 
L 157.302385 49.16097 
L 157.63229 46.49985 
L 157.999662 43.39521 
L 158.054129 42.970023 
L 158.515526 40.73409 
L 159.151222 38.07297 
L 159.875441 35.629165 
L 160.035244 35.41185 
L 161.661041 33.708785 
L 163.446641 33.778109 
L 165.232241 34.693125 
L 167.053553 35.40615 
L 168.839153 35.123278 
L 170.624753 33.682462 
L 171.389918 32.75073 
L 172.410353 31.809575 
L 174.231665 30.187209 
L 174.412151 30.08961 
L 176.017265 29.413695 
L 177.802865 29.401815 
L 179.52339 30.08961 
L 179.588465 30.122542 
L 181.409777 31.655924 
L 182.667746 32.75073 
L 183.195377 33.358331 
L 184.980977 34.6758 
L 186.766577 34.716179 
L 188.587889 33.39598 
L 189.136564 32.75073 
L 190.373489 31.648814 
L 192.159089 30.110509 
L 192.199752 30.08961 
L 193.944689 29.390905 
L 195.766001 29.422809 
L 197.34723 30.08961 
L 197.551601 30.198783 
L 199.337201 31.720935 
L 200.529169 32.75073 
L 201.122801 33.4294 
L 202.944113 34.717596 
L 204.729713 34.673709 
L 206.515313 33.322407 
L 206.997847 32.75073 
L 208.300913 31.581686 
L 210.055398 30.08961 
L 210.122225 30.045486 
L 211.907825 29.370462 
L 213.693425 29.440254 
L 215.185119 30.08961 
L 215.479025 30.251749 
L 217.300337 31.819328 
L 218.392109 32.75073 
L 219.085937 33.53407 
L 220.871537 34.74283 
L 222.657137 34.64269 
L 224.478449 33.209771 
L 224.862141 32.75073 
L 226.264049 31.481293 
L 227.921622 30.08961 
L 228.049649 30.006125 
L 229.835249 29.358366 
L 231.656561 29.468602 
L 233.020708 30.08961 
L 233.442161 30.332902 
L 235.227761 31.884932 
L 236.252121 32.75073 
L 237.013361 33.602258 
L 238.834673 34.776634 
L 240.620273 34.592224 
L 242.405873 33.133524 
L 242.724113 32.75073 
L 244.191473 31.415267 
L 245.795472 30.08961 
L 246.012785 29.950165 
L 247.798385 29.346185 
L 249.583985 29.498142 
L 250.827789 30.08961 
L 251.369585 30.416482 
L 253.190897 32.051437 
L 253.986744 32.75073 
L 254.976497 33.902329 
L 256.762097 35.226232 
L 258.442079 35.41185 
L 258.547697 35.427633 
L 258.576554 35.41185 
L 260.369009 34.681178 
L 262.154609 33.856324 
L 263.940209 34.074901 
L 264.942152 35.41185 
L 265.725809 36.81911 
L 266.031119 38.07297 
L 266.495691 40.73409 
L 266.818457 43.39521 
L 267.064269 46.49985 
L 267.196186 49.16097 
L 267.279366 51.82209 
L 267.330781 54.48321 
L 267.36247 57.14433 
L 267.382246 59.80545 
L 267.394649 62.46657 
L 267.402097 65.12769 
L 267.406029 67.78881 
L 267.407776 70.44993 
L 267.408973 73.11105 
L 267.411534 75.77217 
L 267.417366 78.43329 
L 267.428138 81.09441 
L 267.445346 83.75553 
L 267.470745 86.41665 
L 267.514366 89.52129 
L 267.547121 91.131169 
L 267.56038 92.18241 
L 267.607297 94.84353 
L 267.672599 97.50465 
L 267.761976 100.16577 
L 267.881773 102.82689 
L 268.038998 105.48801 
L 268.241582 108.14913 
L 268.498848 110.81025 
L 268.822027 113.47137 
L 269.224587 116.13249 
L 269.332721 116.75354 
L 269.61554 118.79361 
L 270.054217 121.45473 
L 270.579414 124.11585 
L 271.118321 126.4686 
L 271.187704 126.77697 
L 271.819553 129.43809 
L 272.544213 132.09921 
L 272.903921 133.391475 
L 273.563093 135.20385 
L 274.612058 137.86497 
L 274.725233 138.16267 
L 276.443239 140.52609 
L 276.510833 140.618336 
L 278.296433 141.524644 
L 280.082033 141.972621 
L 281.903345 143.15271 
L 281.924756 143.18721 
L 283.262259 145.84833 
L 283.688945 146.908593 
L 284.01956 148.50945 
L 284.422596 151.17057 
L 284.709098 153.83169 
L 284.905486 156.49281 
L 285.035166 159.15393 
L 285.117843 161.81505 
L 285.169186 164.47617 
L 285.200795 167.13729 
L 285.220469 169.79841 
L 285.232843 172.45953 
L 285.240323 175.12065 
L 285.244461 178.22529 
L 285.245111 180.88641 
L 285.24423 183.54753 
L 285.24304 186.20865 
L 285.24253 188.86977 
L 285.243061 191.53089 
L 285.244215 194.19201 
L 285.244959 196.85313 
L 285.244035 199.51425 
L 285.240302 202.17537 
L 285.232761 204.83649 
L 285.22011 207.49761 
L 285.199876 210.15873 
L 285.167309 212.81985 
L 285.114307 215.48097 
L 285.028508 218.14209 
L 284.892548 220.80321 
L 284.63939 223.90785 
L 284.306802 226.56897 
L 283.827273 229.23009 
L 283.688945 229.783901 
L 282.554107 231.89121 
L 281.903345 232.811229 
L 280.082033 233.43182 
L 278.296433 233.245897 
L 276.510833 233.463416 
L 275.480771 234.55233 
L 274.725233 235.324751 
L 273.883469 237.21345 
L 272.903921 239.541404 
L 272.803684 239.87457 
L 271.986353 242.53569 
L 271.267421 245.19681 
L 271.118321 245.784111 
L 270.609578 247.85793 
L 270.03846 250.51905 
L 269.560939 253.18017 
L 269.332721 254.655531 
L 269.109125 255.84129 
L 268.67058 258.50241 
L 268.298865 261.16353 
L 267.96896 263.82465 
L 267.601588 266.92929 
L 267.547121 267.354477 
L 267.085724 269.59041 
L 266.450028 272.25153 
L 265.725809 274.695335 
L 265.566006 274.91265 
L 263.940209 276.615715 
L 262.154609 276.546391 
L 260.369009 275.631375 
L 258.547697 274.91835 
L 256.762097 275.201222 
L 254.976497 276.642038 
L 254.211332 277.57377 
L 253.190897 278.514925 
L 251.369585 280.137291 
L 251.189099 280.23489 
L 249.583985 280.910805 
L 247.798385 280.922685 
L 246.07786 280.23489 
L 246.012785 280.201958 
L 244.191473 278.668576 
L 242.933504 277.57377 
L 242.405873 276.966169 
L 240.620273 275.6487 
L 238.834673 275.608321 
L 237.013361 276.92852 
L 236.464686 277.57377 
L 235.227761 278.675686 
L 233.442161 280.213991 
L 233.401498 280.23489 
L 231.656561 280.933595 
L 229.835249 280.901691 
L 228.25402 280.23489 
L 228.049649 280.125717 
L 226.264049 278.603565 
L 225.072081 277.57377 
L 224.478449 276.8951 
L 222.657137 275.606904 
L 220.871537 275.650791 
L 219.085937 277.002093 
L 218.603403 277.57377 
L 217.300337 278.742814 
L 215.545852 280.23489 
L 215.479025 280.279014 
L 213.693425 280.954038 
L 211.907825 280.884246 
L 210.416131 280.23489 
L 210.122225 280.072751 
L 208.300913 278.505172 
L 207.209141 277.57377 
L 206.515313 276.79043 
L 204.729713 275.58167 
L 202.944113 275.68181 
L 201.122801 277.114729 
L 200.739109 277.57377 
L 199.337201 278.843207 
L 197.679628 280.23489 
L 197.551601 280.318375 
L 195.766001 280.966134 
L 193.944689 280.855898 
L 192.580542 280.23489 
L 192.159089 279.991598 
L 190.373489 278.439568 
L 189.349129 277.57377 
L 188.587889 276.722242 
L 186.766577 275.547866 
L 184.980977 275.732276 
L 183.195377 277.190976 
L 182.877137 277.57377 
L 181.409777 278.909233 
L 179.805778 280.23489 
L 179.588465 280.374335 
L 177.802865 280.978315 
L 176.017265 280.826358 
L 174.773461 280.23489 
L 174.231665 279.908018 
L 172.410353 278.273063 
L 171.614506 277.57377 
L 170.624753 276.422171 
L 168.839153 275.098268 
L 167.159171 274.91265 
L 167.053553 274.896867 
L 167.024696 274.91265 
L 165.232241 275.643322 
L 163.446641 276.468175 
L 161.661041 276.249599 
L 160.659098 274.91265 
L 159.875441 273.50539 
L 159.570131 272.25153 
L 159.105559 269.59041 
L 158.782794 266.92929 
L 158.536985 263.82465 
L 158.405071 261.16353 
L 158.321901 258.50241 
L 158.270507 255.84129 
L 158.238863 253.18017 
L 158.219178 250.51905 
L 158.206956 247.85793 
L 158.199856 245.19681 
L 158.196577 242.53569 
L 158.196018 239.87457 
L 158.196919 237.21345 
L 158.197959 234.55233 
L 158.198134 231.89121 
L 158.197101 229.23009 
L 158.195245 226.56897 
L 158.19338 223.90785 
L 158.192127 220.80321 
L 158.191916 218.14209 
L 158.191668 215.48097 
L 158.189922 212.81985 
L 158.184975 210.15873 
L 158.175233 207.49761 
L 158.159251 204.83649 
L 158.135389 202.17537 
L 158.101197 199.51425 
L 158.054129 196.927558 
L 158.05329 196.85313 
L 158.011375 194.19201 
L 157.952798 191.53089 
L 157.872121 188.86977 
L 157.763206 186.20865 
L 157.619285 183.54753 
L 157.432777 180.88641 
L 157.194882 178.22529 
L 156.838206 175.12065 
L 156.449908 172.45953 
L 156.268529 171.398239 
L 156.051059 169.79841 
L 155.625922 167.13729 
L 155.115704 164.47617 
L 154.5134 161.81505 
L 154.482929 161.684821 
L 153.893597 159.15393 
L 153.183907 156.49281 
L 152.697329 154.780157 
L 152.357057 153.83169 
L 151.353545 151.17057 
L 150.876017 149.941099 
L 149.851711 148.50945 
L 149.090417 147.463089 
L 147.304817 146.630727 
L 145.519217 146.218321 
L 144.946246 145.84833 
L 143.697905 144.921822 
L 142.759008 143.18721 
L 141.912305 141.252709 
L 141.746791 140.52609 
z
" clip-path="url(#pd184cb5f84)" style="fill: none; stroke: #0b559f; stroke-width: 1.5"/>
   </g>
   <g id="PathCollection_8"/>
   <g id="patch_3">
    <path d="M 34.240625 288.21825 
L 34.240625 22.10625 
" style="fill: none; stroke: #000000; stroke-width: 0.8; stroke-linejoin: miter; stroke-linecap: square"/>
   </g>
   <g id="patch_4">
    <path d="M 391.360625 288.21825 
L 391.360625 22.10625 
" style="fill: none; stroke: #000000; stroke-width: 0.8; stroke-linejoin: miter; stroke-linecap: square"/>
   </g>
   <g id="patch_5">
    <path d="M 34.240625 288.21825 
L 391.360625 288.21825 
" style="fill: none; stroke: #000000; stroke-width: 0.8; stroke-linejoin: miter; stroke-linecap: square"/>
   </g>
   <g id="patch_6">
    <path d="M 34.240625 22.10625 
L 391.360625 22.10625 
" style="fill: none; stroke: #000000; stroke-width: 0.8; stroke-linejoin: miter; stroke-linecap: square"/>
   </g>
   <g id="text_16">
    <!-- 6.9_cross_-45.0 -->
    <g transform="translate(166.181563 16.10625)scale(0.12 -0.12)">
     <defs>
      <path id="DejaVuSans-2e" d="M 684 794 
L 1344 794 
L 1344 0 
L 684 0 
L 684 794 
z
" transform="scale(0.015625)"/>
      <path id="DejaVuSans-39" d="M 703 97 
L 703 672 
Q 941 559 1184 500 
Q 1428 441 1663 441 
Q 2288 441 2617 861 
Q 2947 1281 2994 2138 
Q 2813 1869 2534 1725 
Q 2256 1581 1919 1581 
Q 1219 1581 811 2004 
Q 403 2428 403 3163 
Q 403 3881 828 4315 
Q 1253 4750 1959 4750 
Q 2769 4750 3195 4129 
Q 3622 3509 3622 2328 
Q 3622 1225 3098 567 
Q 2575 -91 1691 -91 
Q 1453 -91 1209 -44 
Q 966 3 703 97 
z
M 1959 2075 
Q 2384 2075 2632 2365 
Q 2881 2656 2881 3163 
Q 2881 3666 2632 3958 
Q 2384 4250 1959 4250 
Q 1534 4250 1286 3958 
Q 1038 3666 1038 3163 
Q 1038 2656 1286 2365 
Q 1534 2075 1959 2075 
z
" transform="scale(0.015625)"/>
      <path id="DejaVuSans-5f" d="M 3263 -1063 
L 3263 -1509 
L -63 -1509 
L -63 -1063 
L 3263 -1063 
z
" transform="scale(0.015625)"/>
      <path id="DejaVuSans-63" d="M 3122 3366 
L 3122 2828 
Q 2878 2963 2633 3030 
Q 2388 3097 2138 3097 
Q 1578 3097 1268 2742 
Q 959 2388 959 1747 
Q 959 1106 1268 751 
Q 1578 397 2138 397 
Q 2388 397 2633 464 
Q 2878 531 3122 666 
L 3122 134 
Q 2881 22 2623 -34 
Q 2366 -91 2075 -91 
Q 1284 -91 818 406 
Q 353 903 353 1747 
Q 353 2603 823 3093 
Q 1294 3584 2113 3584 
Q 2378 3584 2631 3529 
Q 2884 3475 3122 3366 
z
" transform="scale(0.015625)"/>
      <path id="DejaVuSans-72" d="M 2631 2963 
Q 2534 3019 2420 3045 
Q 2306 3072 2169 3072 
Q 1681 3072 1420 2755 
Q 1159 2438 1159 1844 
L 1159 0 
L 581 0 
L 581 3500 
L 1159 3500 
L 1159 2956 
Q 1341 3275 1631 3429 
Q 1922 3584 2338 3584 
Q 2397 3584 2469 3576 
Q 2541 3569 2628 3553 
L 2631 2963 
z
" transform="scale(0.015625)"/>
      <path id="DejaVuSans-73" d="M 2834 3397 
L 2834 2853 
Q 2591 2978 2328 3040 
Q 2066 3103 1784 3103 
Q 1356 3103 1142 2972 
Q 928 2841 928 2578 
Q 928 2378 1081 2264 
Q 1234 2150 1697 2047 
L 1894 2003 
Q 2506 1872 2764 1633 
Q 3022 1394 3022 966 
Q 3022 478 2636 193 
Q 2250 -91 1575 -91 
Q 1294 -91 989 -36 
Q 684 19 347 128 
L 347 722 
Q 666 556 975 473 
Q 1284 391 1588 391 
Q 1994 391 2212 530 
Q 2431 669 2431 922 
Q 2431 1156 2273 1281 
Q 2116 1406 1581 1522 
L 1381 1569 
Q 847 1681 609 1914 
Q 372 2147 372 2553 
Q 372 3047 722 3315 
Q 1072 3584 1716 3584 
Q 2034 3584 2315 3537 
Q 2597 3491 2834 3397 
z
" transform="scale(0.015625)"/>
      <path id="DejaVuSans-2d" d="M 313 2009 
L 1997 2009 
L 1997 1497 
L 313 1497 
L 313 2009 
z
" transform="scale(0.015625)"/>
     </defs>
     <use xlink:href="#DejaVuSans-36"/>
     <use xlink:href="#DejaVuSans-2e" x="63.623047"/>
     <use xlink:href="#DejaVuSans-39" x="95.410156"/>
     <use xlink:href="#DejaVuSans-5f" x="159.033203"/>
     <use xlink:href="#DejaVuSans-63" x="209.033203"/>
     <use xlink:href="#DejaVuSans-72" x="264.013672"/>
     <use xlink:href="#DejaVuSans-6f" x="302.876953"/>
     <use xlink:href="#DejaVuSans-73" x="364.058594"/>
     <use xlink:href="#DejaVuSans-73" x="416.158203"/>
     <use xlink:href="#DejaVuSans-5f" x="468.257812"/>
     <use xlink:href="#DejaVuSans-2d" x="518.257812"/>
     <use xlink:href="#DejaVuSans-34" x="554.341797"/>
     <use xlink:href="#DejaVuSans-35" x="617.964844"/>
     <use xlink:href="#DejaVuSans-2e" x="681.587891"/>
     <use xlink:href="#DejaVuSans-30" x="713.375"/>
    </g>
   </g>
  </g>
 </g>
 <defs>
  <clipPath id="pd184cb5f84">
   <rect x="34.240625" y="22.10625" width="357.12" height="266.112"/>
  </clipPath>
 </defs>
</svg>
