<?xml version="1.0" encoding="utf-8" standalone="no"?>
<!DOCTYPE svg PUBLIC "-//W3C//DTD SVG 1.1//EN"
  "http://www.w3.org/Graphics/SVG/1.1/DTD/svg11.dtd">
<svg xmlns:xlink="http://www.w3.org/1999/xlink" width="408.104375pt" height="325.7745pt" viewBox="0 0 408.104375 325.7745" xmlns="http://www.w3.org/2000/svg" version="1.1">
 <metadata>
  <rdf:RDF xmlns:dc="http://purl.org/dc/elements/1.1/" xmlns:cc="http://creativecommons.org/ns#" xmlns:rdf="http://www.w3.org/1999/02/22-rdf-syntax-ns#">
   <cc:Work>
    <dc:type rdf:resource="http://purl.org/dc/dcmitype/StillImage"/>
    <dc:date>2024-07-12T12:31:23.561657</dc:date>
    <dc:format>image/svg+xml</dc:format>
    <dc:creator>
     <cc:Agent>
      <dc:title>Matplotlib v3.5.3, https://matplotlib.org/</dc:title>
     </cc:Agent>
    </dc:creator>
   </cc:Work>
  </rdf:RDF>
 </metadata>
 <defs>
  <style type="text/css">*{stroke-linejoin: round; stroke-linecap: butt}</style>
 </defs>
 <g id="figure_1">
  <g id="patch_1">
   <path d="M 0 325.7745 
L 408.104375 325.7745 
L 408.104375 0 
L 0 0 
z
" style="fill: #ffffff"/>
  </g>
  <g id="axes_1">
   <g id="patch_2">
    <path d="M 34.240625 288.21825 
L 391.360625 288.21825 
L 391.360625 22.10625 
L 34.240625 22.10625 
z
" style="fill: #ffffff"/>
   </g>
   <g id="matplotlib.axis_1">
    <g id="xtick_1">
     <g id="line2d_1">
      <defs>
       <path id="m580a969604" d="M 0 0 
L 0 3.5 
" style="stroke: #000000; stroke-width: 0.8"/>
      </defs>
      <g>
       <use xlink:href="#m580a969604" x="34.240625" y="288.21825" style="stroke: #000000; stroke-width: 0.8"/>
      </g>
     </g>
     <g id="text_1">
      <!-- 0 -->
      <g transform="translate(31.059375 302.816687)scale(0.1 -0.1)">
       <defs>
        <path id="DejaVuSans-30" d="M 2034 4250 
Q 1547 4250 1301 3770 
Q 1056 3291 1056 2328 
Q 1056 1369 1301 889 
Q 1547 409 2034 409 
Q 2525 409 2770 889 
Q 3016 1369 3016 2328 
Q 3016 3291 2770 3770 
Q 2525 4250 2034 4250 
z
M 2034 4750 
Q 2819 4750 3233 4129 
Q 3647 3509 3647 2328 
Q 3647 1150 3233 529 
Q 2819 -91 2034 -91 
Q 1250 -91 836 529 
Q 422 1150 422 2328 
Q 422 3509 836 4129 
Q 1250 4750 2034 4750 
z
" transform="scale(0.015625)"/>
       </defs>
       <use xlink:href="#DejaVuSans-30"/>
      </g>
     </g>
    </g>
    <g id="xtick_2">
     <g id="line2d_2">
      <g>
       <use xlink:href="#m580a969604" x="105.664625" y="288.21825" style="stroke: #000000; stroke-width: 0.8"/>
      </g>
     </g>
     <g id="text_2">
      <!-- 20 -->
      <g transform="translate(99.302125 302.816687)scale(0.1 -0.1)">
       <defs>
        <path id="DejaVuSans-32" d="M 1228 531 
L 3431 531 
L 3431 0 
L 469 0 
L 469 531 
Q 828 903 1448 1529 
Q 2069 2156 2228 2338 
Q 2531 2678 2651 2914 
Q 2772 3150 2772 3378 
Q 2772 3750 2511 3984 
Q 2250 4219 1831 4219 
Q 1534 4219 1204 4116 
Q 875 4013 500 3803 
L 500 4441 
Q 881 4594 1212 4672 
Q 1544 4750 1819 4750 
Q 2544 4750 2975 4387 
Q 3406 4025 3406 3419 
Q 3406 3131 3298 2873 
Q 3191 2616 2906 2266 
Q 2828 2175 2409 1742 
Q 1991 1309 1228 531 
z
" transform="scale(0.015625)"/>
       </defs>
       <use xlink:href="#DejaVuSans-32"/>
       <use xlink:href="#DejaVuSans-30" x="63.623047"/>
      </g>
     </g>
    </g>
    <g id="xtick_3">
     <g id="line2d_3">
      <g>
       <use xlink:href="#m580a969604" x="177.088625" y="288.21825" style="stroke: #000000; stroke-width: 0.8"/>
      </g>
     </g>
     <g id="text_3">
      <!-- 40 -->
      <g transform="translate(170.726125 302.816687)scale(0.1 -0.1)">
       <defs>
        <path id="DejaVuSans-34" d="M 2419 4116 
L 825 1625 
L 2419 1625 
L 2419 4116 
z
M 2253 4666 
L 3047 4666 
L 3047 1625 
L 3713 1625 
L 3713 1100 
L 3047 1100 
L 3047 0 
L 2419 0 
L 2419 1100 
L 313 1100 
L 313 1709 
L 2253 4666 
z
" transform="scale(0.015625)"/>
       </defs>
       <use xlink:href="#DejaVuSans-34"/>
       <use xlink:href="#DejaVuSans-30" x="63.623047"/>
      </g>
     </g>
    </g>
    <g id="xtick_4">
     <g id="line2d_4">
      <g>
       <use xlink:href="#m580a969604" x="248.512625" y="288.21825" style="stroke: #000000; stroke-width: 0.8"/>
      </g>
     </g>
     <g id="text_4">
      <!-- 60 -->
      <g transform="translate(242.150125 302.816687)scale(0.1 -0.1)">
       <defs>
        <path id="DejaVuSans-36" d="M 2113 2584 
Q 1688 2584 1439 2293 
Q 1191 2003 1191 1497 
Q 1191 994 1439 701 
Q 1688 409 2113 409 
Q 2538 409 2786 701 
Q 3034 994 3034 1497 
Q 3034 2003 2786 2293 
Q 2538 2584 2113 2584 
z
M 3366 4563 
L 3366 3988 
Q 3128 4100 2886 4159 
Q 2644 4219 2406 4219 
Q 1781 4219 1451 3797 
Q 1122 3375 1075 2522 
Q 1259 2794 1537 2939 
Q 1816 3084 2150 3084 
Q 2853 3084 3261 2657 
Q 3669 2231 3669 1497 
Q 3669 778 3244 343 
Q 2819 -91 2113 -91 
Q 1303 -91 875 529 
Q 447 1150 447 2328 
Q 447 3434 972 4092 
Q 1497 4750 2381 4750 
Q 2619 4750 2861 4703 
Q 3103 4656 3366 4563 
z
" transform="scale(0.015625)"/>
       </defs>
       <use xlink:href="#DejaVuSans-36"/>
       <use xlink:href="#DejaVuSans-30" x="63.623047"/>
      </g>
     </g>
    </g>
    <g id="xtick_5">
     <g id="line2d_5">
      <g>
       <use xlink:href="#m580a969604" x="319.936625" y="288.21825" style="stroke: #000000; stroke-width: 0.8"/>
      </g>
     </g>
     <g id="text_5">
      <!-- 80 -->
      <g transform="translate(313.574125 302.816687)scale(0.1 -0.1)">
       <defs>
        <path id="DejaVuSans-38" d="M 2034 2216 
Q 1584 2216 1326 1975 
Q 1069 1734 1069 1313 
Q 1069 891 1326 650 
Q 1584 409 2034 409 
Q 2484 409 2743 651 
Q 3003 894 3003 1313 
Q 3003 1734 2745 1975 
Q 2488 2216 2034 2216 
z
M 1403 2484 
Q 997 2584 770 2862 
Q 544 3141 544 3541 
Q 544 4100 942 4425 
Q 1341 4750 2034 4750 
Q 2731 4750 3128 4425 
Q 3525 4100 3525 3541 
Q 3525 3141 3298 2862 
Q 3072 2584 2669 2484 
Q 3125 2378 3379 2068 
Q 3634 1759 3634 1313 
Q 3634 634 3220 271 
Q 2806 -91 2034 -91 
Q 1263 -91 848 271 
Q 434 634 434 1313 
Q 434 1759 690 2068 
Q 947 2378 1403 2484 
z
M 1172 3481 
Q 1172 3119 1398 2916 
Q 1625 2713 2034 2713 
Q 2441 2713 2670 2916 
Q 2900 3119 2900 3481 
Q 2900 3844 2670 4047 
Q 2441 4250 2034 4250 
Q 1625 4250 1398 4047 
Q 1172 3844 1172 3481 
z
" transform="scale(0.015625)"/>
       </defs>
       <use xlink:href="#DejaVuSans-38"/>
       <use xlink:href="#DejaVuSans-30" x="63.623047"/>
      </g>
     </g>
    </g>
    <g id="xtick_6">
     <g id="line2d_6">
      <g>
       <use xlink:href="#m580a969604" x="391.360625" y="288.21825" style="stroke: #000000; stroke-width: 0.8"/>
      </g>
     </g>
     <g id="text_6">
      <!-- 100 -->
      <g transform="translate(381.816875 302.816687)scale(0.1 -0.1)">
       <defs>
        <path id="DejaVuSans-31" d="M 794 531 
L 1825 531 
L 1825 4091 
L 703 3866 
L 703 4441 
L 1819 4666 
L 2450 4666 
L 2450 531 
L 3481 531 
L 3481 0 
L 794 0 
L 794 531 
z
" transform="scale(0.015625)"/>
       </defs>
       <use xlink:href="#DejaVuSans-31"/>
       <use xlink:href="#DejaVuSans-30" x="63.623047"/>
       <use xlink:href="#DejaVuSans-30" x="127.246094"/>
      </g>
     </g>
    </g>
    <g id="text_7">
     <!-- axialRotation -->
     <g transform="translate(180.024844 316.494812)scale(0.1 -0.1)">
      <defs>
       <path id="DejaVuSans-61" d="M 2194 1759 
Q 1497 1759 1228 1600 
Q 959 1441 959 1056 
Q 959 750 1161 570 
Q 1363 391 1709 391 
Q 2188 391 2477 730 
Q 2766 1069 2766 1631 
L 2766 1759 
L 2194 1759 
z
M 3341 1997 
L 3341 0 
L 2766 0 
L 2766 531 
Q 2569 213 2275 61 
Q 1981 -91 1556 -91 
Q 1019 -91 701 211 
Q 384 513 384 1019 
Q 384 1609 779 1909 
Q 1175 2209 1959 2209 
L 2766 2209 
L 2766 2266 
Q 2766 2663 2505 2880 
Q 2244 3097 1772 3097 
Q 1472 3097 1187 3025 
Q 903 2953 641 2809 
L 641 3341 
Q 956 3463 1253 3523 
Q 1550 3584 1831 3584 
Q 2591 3584 2966 3190 
Q 3341 2797 3341 1997 
z
" transform="scale(0.015625)"/>
       <path id="DejaVuSans-78" d="M 3513 3500 
L 2247 1797 
L 3578 0 
L 2900 0 
L 1881 1375 
L 863 0 
L 184 0 
L 1544 1831 
L 300 3500 
L 978 3500 
L 1906 2253 
L 2834 3500 
L 3513 3500 
z
" transform="scale(0.015625)"/>
       <path id="DejaVuSans-69" d="M 603 3500 
L 1178 3500 
L 1178 0 
L 603 0 
L 603 3500 
z
M 603 4863 
L 1178 4863 
L 1178 4134 
L 603 4134 
L 603 4863 
z
" transform="scale(0.015625)"/>
       <path id="DejaVuSans-6c" d="M 603 4863 
L 1178 4863 
L 1178 0 
L 603 0 
L 603 4863 
z
" transform="scale(0.015625)"/>
       <path id="DejaVuSans-52" d="M 2841 2188 
Q 3044 2119 3236 1894 
Q 3428 1669 3622 1275 
L 4263 0 
L 3584 0 
L 2988 1197 
Q 2756 1666 2539 1819 
Q 2322 1972 1947 1972 
L 1259 1972 
L 1259 0 
L 628 0 
L 628 4666 
L 2053 4666 
Q 2853 4666 3247 4331 
Q 3641 3997 3641 3322 
Q 3641 2881 3436 2590 
Q 3231 2300 2841 2188 
z
M 1259 4147 
L 1259 2491 
L 2053 2491 
Q 2509 2491 2742 2702 
Q 2975 2913 2975 3322 
Q 2975 3731 2742 3939 
Q 2509 4147 2053 4147 
L 1259 4147 
z
" transform="scale(0.015625)"/>
       <path id="DejaVuSans-6f" d="M 1959 3097 
Q 1497 3097 1228 2736 
Q 959 2375 959 1747 
Q 959 1119 1226 758 
Q 1494 397 1959 397 
Q 2419 397 2687 759 
Q 2956 1122 2956 1747 
Q 2956 2369 2687 2733 
Q 2419 3097 1959 3097 
z
M 1959 3584 
Q 2709 3584 3137 3096 
Q 3566 2609 3566 1747 
Q 3566 888 3137 398 
Q 2709 -91 1959 -91 
Q 1206 -91 779 398 
Q 353 888 353 1747 
Q 353 2609 779 3096 
Q 1206 3584 1959 3584 
z
" transform="scale(0.015625)"/>
       <path id="DejaVuSans-74" d="M 1172 4494 
L 1172 3500 
L 2356 3500 
L 2356 3053 
L 1172 3053 
L 1172 1153 
Q 1172 725 1289 603 
Q 1406 481 1766 481 
L 2356 481 
L 2356 0 
L 1766 0 
Q 1100 0 847 248 
Q 594 497 594 1153 
L 594 3053 
L 172 3053 
L 172 3500 
L 594 3500 
L 594 4494 
L 1172 4494 
z
" transform="scale(0.015625)"/>
       <path id="DejaVuSans-6e" d="M 3513 2113 
L 3513 0 
L 2938 0 
L 2938 2094 
Q 2938 2591 2744 2837 
Q 2550 3084 2163 3084 
Q 1697 3084 1428 2787 
Q 1159 2491 1159 1978 
L 1159 0 
L 581 0 
L 581 3500 
L 1159 3500 
L 1159 2956 
Q 1366 3272 1645 3428 
Q 1925 3584 2291 3584 
Q 2894 3584 3203 3211 
Q 3513 2838 3513 2113 
z
" transform="scale(0.015625)"/>
      </defs>
      <use xlink:href="#DejaVuSans-61"/>
      <use xlink:href="#DejaVuSans-78" x="61.279297"/>
      <use xlink:href="#DejaVuSans-69" x="120.458984"/>
      <use xlink:href="#DejaVuSans-61" x="148.242188"/>
      <use xlink:href="#DejaVuSans-6c" x="209.521484"/>
      <use xlink:href="#DejaVuSans-52" x="237.304688"/>
      <use xlink:href="#DejaVuSans-6f" x="302.287109"/>
      <use xlink:href="#DejaVuSans-74" x="363.46875"/>
      <use xlink:href="#DejaVuSans-61" x="402.677734"/>
      <use xlink:href="#DejaVuSans-74" x="463.957031"/>
      <use xlink:href="#DejaVuSans-69" x="503.166016"/>
      <use xlink:href="#DejaVuSans-6f" x="530.949219"/>
      <use xlink:href="#DejaVuSans-6e" x="592.130859"/>
     </g>
    </g>
   </g>
   <g id="matplotlib.axis_2">
    <g id="ytick_1">
     <g id="line2d_7">
      <defs>
       <path id="mb3393d3db2" d="M 0 0 
L -3.5 0 
" style="stroke: #000000; stroke-width: 0.8"/>
      </defs>
      <g>
       <use xlink:href="#mb3393d3db2" x="34.240625" y="288.21825" style="stroke: #000000; stroke-width: 0.8"/>
      </g>
     </g>
     <g id="text_8">
      <!-- 0 -->
      <g transform="translate(20.878125 292.017469)scale(0.1 -0.1)">
       <use xlink:href="#DejaVuSans-30"/>
      </g>
     </g>
    </g>
    <g id="ytick_2">
     <g id="line2d_8">
      <g>
       <use xlink:href="#mb3393d3db2" x="34.240625" y="243.86625" style="stroke: #000000; stroke-width: 0.8"/>
      </g>
     </g>
     <g id="text_9">
      <!-- 1 -->
      <g transform="translate(20.878125 247.665469)scale(0.1 -0.1)">
       <use xlink:href="#DejaVuSans-31"/>
      </g>
     </g>
    </g>
    <g id="ytick_3">
     <g id="line2d_9">
      <g>
       <use xlink:href="#mb3393d3db2" x="34.240625" y="199.51425" style="stroke: #000000; stroke-width: 0.8"/>
      </g>
     </g>
     <g id="text_10">
      <!-- 2 -->
      <g transform="translate(20.878125 203.313469)scale(0.1 -0.1)">
       <use xlink:href="#DejaVuSans-32"/>
      </g>
     </g>
    </g>
    <g id="ytick_4">
     <g id="line2d_10">
      <g>
       <use xlink:href="#mb3393d3db2" x="34.240625" y="155.16225" style="stroke: #000000; stroke-width: 0.8"/>
      </g>
     </g>
     <g id="text_11">
      <!-- 3 -->
      <g transform="translate(20.878125 158.961469)scale(0.1 -0.1)">
       <defs>
        <path id="DejaVuSans-33" d="M 2597 2516 
Q 3050 2419 3304 2112 
Q 3559 1806 3559 1356 
Q 3559 666 3084 287 
Q 2609 -91 1734 -91 
Q 1441 -91 1130 -33 
Q 819 25 488 141 
L 488 750 
Q 750 597 1062 519 
Q 1375 441 1716 441 
Q 2309 441 2620 675 
Q 2931 909 2931 1356 
Q 2931 1769 2642 2001 
Q 2353 2234 1838 2234 
L 1294 2234 
L 1294 2753 
L 1863 2753 
Q 2328 2753 2575 2939 
Q 2822 3125 2822 3475 
Q 2822 3834 2567 4026 
Q 2313 4219 1838 4219 
Q 1578 4219 1281 4162 
Q 984 4106 628 3988 
L 628 4550 
Q 988 4650 1302 4700 
Q 1616 4750 1894 4750 
Q 2613 4750 3031 4423 
Q 3450 4097 3450 3541 
Q 3450 3153 3228 2886 
Q 3006 2619 2597 2516 
z
" transform="scale(0.015625)"/>
       </defs>
       <use xlink:href="#DejaVuSans-33"/>
      </g>
     </g>
    </g>
    <g id="ytick_5">
     <g id="line2d_11">
      <g>
       <use xlink:href="#mb3393d3db2" x="34.240625" y="110.81025" style="stroke: #000000; stroke-width: 0.8"/>
      </g>
     </g>
     <g id="text_12">
      <!-- 4 -->
      <g transform="translate(20.878125 114.609469)scale(0.1 -0.1)">
       <use xlink:href="#DejaVuSans-34"/>
      </g>
     </g>
    </g>
    <g id="ytick_6">
     <g id="line2d_12">
      <g>
       <use xlink:href="#mb3393d3db2" x="34.240625" y="66.45825" style="stroke: #000000; stroke-width: 0.8"/>
      </g>
     </g>
     <g id="text_13">
      <!-- 5 -->
      <g transform="translate(20.878125 70.257469)scale(0.1 -0.1)">
       <defs>
        <path id="DejaVuSans-35" d="M 691 4666 
L 3169 4666 
L 3169 4134 
L 1269 4134 
L 1269 2991 
Q 1406 3038 1543 3061 
Q 1681 3084 1819 3084 
Q 2600 3084 3056 2656 
Q 3513 2228 3513 1497 
Q 3513 744 3044 326 
Q 2575 -91 1722 -91 
Q 1428 -91 1123 -41 
Q 819 9 494 109 
L 494 744 
Q 775 591 1075 516 
Q 1375 441 1709 441 
Q 2250 441 2565 725 
Q 2881 1009 2881 1497 
Q 2881 1984 2565 2268 
Q 2250 2553 1709 2553 
Q 1456 2553 1204 2497 
Q 953 2441 691 2322 
L 691 4666 
z
" transform="scale(0.015625)"/>
       </defs>
       <use xlink:href="#DejaVuSans-35"/>
      </g>
     </g>
    </g>
    <g id="ytick_7">
     <g id="line2d_13">
      <g>
       <use xlink:href="#mb3393d3db2" x="34.240625" y="22.10625" style="stroke: #000000; stroke-width: 0.8"/>
      </g>
     </g>
     <g id="text_14">
      <!-- 6 -->
      <g transform="translate(20.878125 25.905469)scale(0.1 -0.1)">
       <use xlink:href="#DejaVuSans-36"/>
      </g>
     </g>
    </g>
    <g id="text_15">
     <!-- zShift -->
     <g transform="translate(14.798438 169.151312)rotate(-90)scale(0.1 -0.1)">
      <defs>
       <path id="DejaVuSans-7a" d="M 353 3500 
L 3084 3500 
L 3084 2975 
L 922 459 
L 3084 459 
L 3084 0 
L 275 0 
L 275 525 
L 2438 3041 
L 353 3041 
L 353 3500 
z
" transform="scale(0.015625)"/>
       <path id="DejaVuSans-53" d="M 3425 4513 
L 3425 3897 
Q 3066 4069 2747 4153 
Q 2428 4238 2131 4238 
Q 1616 4238 1336 4038 
Q 1056 3838 1056 3469 
Q 1056 3159 1242 3001 
Q 1428 2844 1947 2747 
L 2328 2669 
Q 3034 2534 3370 2195 
Q 3706 1856 3706 1288 
Q 3706 609 3251 259 
Q 2797 -91 1919 -91 
Q 1588 -91 1214 -16 
Q 841 59 441 206 
L 441 856 
Q 825 641 1194 531 
Q 1563 422 1919 422 
Q 2459 422 2753 634 
Q 3047 847 3047 1241 
Q 3047 1584 2836 1778 
Q 2625 1972 2144 2069 
L 1759 2144 
Q 1053 2284 737 2584 
Q 422 2884 422 3419 
Q 422 4038 858 4394 
Q 1294 4750 2059 4750 
Q 2388 4750 2728 4690 
Q 3069 4631 3425 4513 
z
" transform="scale(0.015625)"/>
       <path id="DejaVuSans-68" d="M 3513 2113 
L 3513 0 
L 2938 0 
L 2938 2094 
Q 2938 2591 2744 2837 
Q 2550 3084 2163 3084 
Q 1697 3084 1428 2787 
Q 1159 2491 1159 1978 
L 1159 0 
L 581 0 
L 581 4863 
L 1159 4863 
L 1159 2956 
Q 1366 3272 1645 3428 
Q 1925 3584 2291 3584 
Q 2894 3584 3203 3211 
Q 3513 2838 3513 2113 
z
" transform="scale(0.015625)"/>
       <path id="DejaVuSans-66" d="M 2375 4863 
L 2375 4384 
L 1825 4384 
Q 1516 4384 1395 4259 
Q 1275 4134 1275 3809 
L 1275 3500 
L 2222 3500 
L 2222 3053 
L 1275 3053 
L 1275 0 
L 697 0 
L 697 3053 
L 147 3053 
L 147 3500 
L 697 3500 
L 697 3744 
Q 697 4328 969 4595 
Q 1241 4863 1831 4863 
L 2375 4863 
z
" transform="scale(0.015625)"/>
      </defs>
      <use xlink:href="#DejaVuSans-7a"/>
      <use xlink:href="#DejaVuSans-53" x="52.490234"/>
      <use xlink:href="#DejaVuSans-68" x="115.966797"/>
      <use xlink:href="#DejaVuSans-69" x="179.345703"/>
      <use xlink:href="#DejaVuSans-66" x="207.128906"/>
      <use xlink:href="#DejaVuSans-74" x="240.583984"/>
     </g>
    </g>
   </g>
   <g id="PathCollection_1"/>
   <g id="PathCollection_2">
    <path d="M 34.240625 107.4797 
L 36.026225 107.069871 
L 37.847537 106.781345 
L 39.633137 106.607467 
L 41.418737 106.530361 
L 43.204337 106.544835 
L 45.025649 106.654266 
L 46.811249 106.860208 
L 48.596849 107.17534 
L 50.382449 107.617405 
L 51.986614 108.14913 
L 52.203761 108.212751 
L 53.989361 108.868177 
L 55.774961 109.71775 
L 57.555296 110.81025 
L 57.560561 110.813317 
L 59.381873 112.057409 
L 61.001256 113.47137 
L 61.167473 113.618195 
L 62.953073 115.439588 
L 63.535243 116.13249 
L 64.738673 117.681418 
L 65.507489 118.79361 
L 66.559985 120.533319 
L 67.080681 121.45473 
L 68.335353 124.11585 
L 68.345585 124.141422 
L 69.398242 126.77697 
L 70.131185 129.191507 
L 70.20933 129.43809 
L 70.903418 132.09921 
L 71.486981 135.20385 
L 71.834214 137.86497 
L 71.916785 138.793874 
L 72.093604 140.52609 
L 72.249209 143.18721 
L 72.295886 145.84833 
L 72.236541 148.50945 
L 72.066897 151.17057 
L 71.916785 152.565556 
L 71.797119 153.83169 
L 71.430292 156.49281 
L 70.917617 159.15393 
L 70.222967 161.81505 
L 70.131185 162.104629 
L 69.40804 164.47617 
L 68.348369 167.13729 
L 68.345585 167.143398 
L 67.11979 169.79841 
L 66.559985 170.823056 
L 65.63026 172.45953 
L 64.738673 173.856051 
L 63.885379 175.12065 
L 62.953073 176.428781 
L 61.558782 178.22529 
L 61.167473 178.72494 
L 59.388563 180.88641 
L 59.381873 180.894648 
L 57.560561 183.112949 
L 57.193313 183.54753 
L 55.774961 185.281018 
L 54.993917 186.20865 
L 53.989361 187.43867 
L 52.769697 188.86977 
L 52.203761 189.547753 
L 50.424496 191.53089 
L 50.382449 191.578197 
L 48.596849 193.457184 
L 47.788034 194.19201 
L 46.811249 195.091574 
L 45.025649 196.460347 
L 44.397414 196.85313 
L 43.204337 197.630682 
L 41.418737 198.518223 
L 39.633137 199.138347 
L 37.887034 199.51425 
L 37.847537 199.523778 
L 36.026225 199.719802 
L 34.240625 199.667303 
" clip-path="url(#p5c368c4f17)" style="fill: none; stroke: #deebf7; stroke-width: 1.5"/>
    <path d="M 122.320651 288.21825 
L 122.163569 287.366512 
L 121.796405 285.55713 
L 121.379496 282.89601 
L 121.066916 280.23489 
L 120.834871 277.57377 
L 120.66482 274.91265 
L 120.542179 272.25153 
L 120.455438 269.59041 
L 120.395521 266.92929 
L 120.377969 265.735346 
L 120.344419 263.82465 
L 120.315215 261.16353 
L 120.296925 258.50241 
L 120.285744 255.84129 
L 120.278938 253.18017 
L 120.274711 250.51905 
L 120.272023 247.85793 
L 120.270363 245.19681 
L 120.269506 242.53569 
L 120.269287 239.87457 
L 120.269485 237.21345 
L 120.269815 234.55233 
L 120.270006 231.89121 
L 120.26991 229.23009 
L 120.269556 226.56897 
L 120.269127 223.90785 
L 120.268829 220.80321 
L 120.2689 218.14209 
L 120.26923 215.48097 
L 120.269624 212.81985 
L 120.269829 210.15873 
L 120.269651 207.49761 
L 120.269015 204.83649 
L 120.267918 202.17537 
L 120.266266 199.51425 
L 120.263642 196.85313 
L 120.259029 194.19201 
L 120.250529 191.53089 
L 120.235058 188.86977 
L 120.207946 186.20865 
L 120.162409 183.54753 
L 120.08888 180.88641 
L 119.974339 178.22529 
L 119.766174 175.12065 
L 119.500277 172.45953 
L 119.129787 169.79841 
L 118.633252 167.13729 
L 118.592369 166.9707 
L 117.884983 164.47617 
L 116.975713 161.81505 
L 116.806769 161.401893 
L 115.789101 159.15393 
L 114.985457 157.537117 
L 114.430131 156.49281 
L 113.199857 154.277838 
L 112.944002 153.83169 
L 111.428893 151.17057 
L 111.414257 151.144314 
L 109.949326 148.50945 
L 109.628657 147.876395 
L 108.601553 145.84833 
L 107.807345 144.026448 
L 107.435956 143.18721 
L 106.422633 140.52609 
L 106.021745 139.248343 
L 105.565452 137.86497 
L 104.849802 135.20385 
L 104.236145 132.193787 
L 104.215168 132.09921 
L 103.736171 129.43809 
L 103.373388 126.77697 
L 103.101847 124.11585 
L 102.902038 121.45473 
L 102.758797 118.79361 
L 102.66058 116.13249 
L 102.599021 113.47137 
L 102.568639 110.81025 
L 102.566674 108.14913 
L 102.593008 105.48801 
L 102.650194 102.82689 
L 102.743586 100.16577 
L 102.881584 97.50465 
L 103.076024 94.84353 
L 103.342742 92.18241 
L 103.70244 89.52129 
L 104.236145 86.617116 
L 104.270013 86.41665 
L 104.836199 83.75553 
L 105.579368 81.09441 
L 106.021745 79.809687 
L 106.482497 78.43329 
L 107.580047 75.77217 
L 107.807345 75.292678 
L 108.852244 73.11105 
L 109.628657 71.701073 
L 110.333734 70.44993 
L 111.414257 68.673004 
L 111.961373 67.78881 
L 113.199857 65.820801 
L 113.631331 65.12769 
L 114.985457 62.859561 
L 115.207347 62.46657 
L 116.553426 59.80545 
L 116.806769 59.227446 
L 117.609333 57.14433 
L 118.45295 54.48321 
L 118.592369 53.919454 
L 119.031263 51.82209 
L 119.448923 49.16097 
L 119.756824 46.49985 
L 120.016734 43.39521 
L 120.186538 40.73409 
L 120.334274 38.07297 
L 120.377969 37.281984 
L 120.4653 35.41185 
L 120.607405 32.75073 
L 120.785584 30.08961 
L 121.01884 27.42849 
L 121.329074 24.76737 
L 121.743002 22.10625 
" clip-path="url(#p5c368c4f17)" style="fill: none; stroke: #deebf7; stroke-width: 1.5"/>
    <path d="M 303.280599 22.10625 
L 304.221754 27.42849 
L 304.766379 32.75073 
L 305.059071 38.07297 
L 305.256831 46.49985 
L 305.329228 62.46657 
L 305.460111 105.48801 
L 305.678867 110.81025 
L 306.161975 116.13249 
L 306.558421 118.79361 
L 307.104833 121.45473 
L 307.910993 124.11585 
L 308.900759 126.77697 
L 310.615793 130.170755 
L 312.401393 133.069562 
L 315.725088 137.86497 
L 321.701927 145.84833 
L 329.863428 156.49281 
L 332.150129 159.896269 
L 333.935729 162.962468 
L 334.738761 164.47617 
L 335.940487 167.13729 
L 336.981282 169.79841 
L 338.541437 175.12065 
L 339.566076 180.88641 
L 339.875054 183.54753 
L 340.156233 188.86977 
L 340.033123 194.19201 
L 339.811981 196.85313 
L 339.025025 202.17537 
L 338.448558 204.83649 
L 337.506929 207.977662 
L 336.761754 210.15873 
L 335.603982 212.81985 
L 333.935729 216.013944 
L 332.150129 218.87341 
L 330.328817 221.429943 
L 318.131029 237.21345 
L 312.249282 245.19681 
L 310.534938 247.85793 
L 308.794481 251.250082 
L 308.027413 253.18017 
L 307.008881 256.470694 
L 306.577932 258.50241 
L 305.846412 263.82465 
L 305.415115 269.59041 
L 304.582415 282.89601 
L 303.858248 288.21825 
L 303.858248 288.21825 
" clip-path="url(#p5c368c4f17)" style="fill: none; stroke: #deebf7; stroke-width: 1.5"/>
   </g>
   <g id="PathCollection_3">
    <path d="M 34.240625 115.288042 
L 36.026225 114.721316 
L 37.847537 114.318508 
L 39.633137 114.069947 
L 41.418737 113.950116 
L 43.204337 113.950824 
L 45.025649 114.074775 
L 46.811249 114.32338 
L 48.596849 114.711353 
L 50.382449 115.260122 
L 52.203761 116.017408 
L 52.426015 116.13249 
L 53.989361 116.931163 
L 55.774961 118.104133 
L 56.631029 118.79361 
L 57.560561 119.578791 
L 59.363018 121.45473 
L 59.381873 121.47641 
L 61.167473 123.850289 
L 61.343198 124.11585 
L 62.848476 126.77697 
L 62.953073 127.000808 
L 64.022251 129.43809 
L 64.738673 131.562251 
L 64.916623 132.09921 
L 65.707995 135.20385 
L 66.176935 137.86497 
L 66.486618 140.52609 
L 66.559985 141.65855 
L 66.666474 143.18721 
L 66.713357 145.84833 
L 66.623487 148.50945 
L 66.559985 149.249482 
L 66.405413 151.17057 
L 66.048883 153.83169 
L 65.526321 156.49281 
L 64.805538 159.15393 
L 64.738673 159.353414 
L 63.903272 161.81505 
L 62.953073 164.013975 
L 62.744778 164.47617 
L 61.328349 167.13729 
L 61.167473 167.404275 
L 59.631238 169.79841 
L 59.381873 170.154742 
L 57.665415 172.45953 
L 57.560561 172.594447 
L 55.774961 174.803435 
L 55.508124 175.12065 
L 53.989361 176.946316 
L 52.877811 178.22529 
L 52.203761 179.023545 
L 50.581713 180.88641 
L 50.382449 181.12044 
L 48.596849 183.141369 
L 48.214193 183.54753 
L 46.811249 185.047223 
L 45.587126 186.20865 
L 45.025649 186.740575 
L 43.204337 188.213714 
L 42.185941 188.86977 
L 41.418737 189.365717 
L 39.633137 190.224479 
L 37.847537 190.768775 
L 36.026225 191.011447 
L 34.240625 190.943413 
" clip-path="url(#p5c368c4f17)" style="fill: none; stroke: #c6dbef; stroke-width: 1.5"/>
    <path d="M 128.174115 288.21825 
L 127.556081 285.723046 
L 127.514336 285.55713 
L 126.976533 282.89601 
L 126.57342 280.23489 
L 126.2744 277.57377 
L 126.05555 274.91265 
L 125.898006 272.25153 
L 125.786855 269.59041 
L 125.770481 269.024796 
L 125.703686 266.92929 
L 125.639514 263.82465 
L 125.605385 261.16353 
L 125.584091 258.50241 
L 125.571096 255.84129 
L 125.563176 253.18017 
L 125.558237 250.51905 
L 125.555094 247.85793 
L 125.553179 245.19681 
L 125.552232 242.53569 
L 125.552048 239.87457 
L 125.552337 237.21345 
L 125.55274 234.55233 
L 125.552935 231.89121 
L 125.552765 229.23009 
L 125.552298 226.56897 
L 125.551775 223.90785 
L 125.551459 220.80321 
L 125.551603 218.14209 
L 125.55205 215.48097 
L 125.552546 212.81985 
L 125.552794 210.15873 
L 125.552602 207.49761 
L 125.551952 204.83649 
L 125.550952 202.17537 
L 125.549664 199.51425 
L 125.547872 196.85313 
L 125.544855 194.19201 
L 125.539211 191.53089 
L 125.528699 188.86977 
L 125.510045 186.20865 
L 125.478609 183.54753 
L 125.427882 180.88641 
L 125.348858 178.22529 
L 125.204552 175.12065 
L 125.018054 172.45953 
L 124.753196 169.79841 
L 124.388088 167.13729 
L 123.984881 164.93919 
L 123.890034 164.47617 
L 123.190371 161.81505 
L 122.32652 159.15393 
L 122.163569 158.736371 
L 121.209947 156.49281 
L 120.377969 154.766038 
L 119.898169 153.83169 
L 118.592369 151.468536 
L 118.421868 151.17057 
L 116.863035 148.50945 
L 116.806769 148.412974 
L 115.323701 145.84833 
L 114.985457 145.223238 
L 113.905757 143.18721 
L 113.199857 141.689454 
L 112.661431 140.52609 
L 111.607452 137.86497 
L 111.414257 137.289388 
L 110.712383 135.20385 
L 109.893545 132.09921 
L 109.628657 130.811475 
L 109.334622 129.43809 
L 108.888563 126.77697 
L 108.553016 124.11585 
L 108.305498 121.45473 
L 108.128157 118.79361 
L 108.007246 116.13249 
L 107.932784 113.47137 
L 107.898343 110.81025 
L 107.900918 108.14913 
L 107.940888 105.48801 
L 108.022076 102.82689 
L 108.151928 100.16577 
L 108.341799 97.50465 
L 108.607381 94.84353 
L 108.969283 92.18241 
L 109.453866 89.52129 
L 109.628657 88.771803 
L 110.171457 86.41665 
L 110.973242 83.75553 
L 111.414257 82.562393 
L 111.967608 81.09441 
L 113.188562 78.43329 
L 113.199857 78.411356 
L 114.612876 75.77217 
L 114.985457 75.14294 
L 116.228952 73.11105 
L 116.806769 72.206074 
L 117.936847 70.44993 
L 118.592369 69.411526 
L 119.586165 67.78881 
L 120.377969 66.390799 
L 121.045095 65.12769 
L 122.163569 62.700215 
L 122.261128 62.46657 
L 123.177804 59.80545 
L 123.908322 57.14433 
L 123.984881 56.784181 
L 124.418146 54.48321 
L 124.792442 51.82209 
L 125.068269 49.16097 
L 125.27309 46.49985 
L 125.455924 43.39521 
L 125.590624 40.73409 
L 125.727092 38.07297 
L 125.770481 37.336084 
L 125.874133 35.41185 
L 126.055131 32.75073 
L 126.294637 30.08961 
L 126.616297 27.42849 
L 127.048968 24.76737 
L 127.556081 22.424189 
L 127.624013 22.10625 
" clip-path="url(#p5c368c4f17)" style="fill: none; stroke: #c6dbef; stroke-width: 1.5"/>
    <path d="M 297.427135 22.10625 
L 298.086914 24.76737 
L 298.624717 27.42849 
L 299.32685 32.75073 
L 299.703244 38.07297 
L 299.961736 46.49985 
L 300.043013 59.80545 
L 300.196376 108.14913 
L 300.42458 113.47137 
L 300.906472 118.79361 
L 301.616369 123.10279 
L 301.836944 124.11585 
L 302.580147 126.77697 
L 303.50897 129.43809 
L 305.223281 133.029922 
L 307.008881 136.069238 
L 308.794481 138.717321 
L 312.401393 143.651793 
L 320.097843 153.83169 
L 324.972017 160.215516 
L 326.757617 162.774457 
L 328.543217 165.64376 
L 329.385964 167.13729 
L 330.680676 169.79841 
L 332.150129 173.64441 
L 332.638517 175.12065 
L 333.430679 178.22529 
L 333.935729 181.014046 
L 334.2879 183.54753 
L 334.514054 186.20865 
L 334.60812 188.86977 
L 334.574527 191.53089 
L 334.410015 194.19201 
L 333.935729 197.833022 
L 333.658651 199.51425 
L 333.051776 202.17537 
L 332.150129 205.057227 
L 331.218155 207.49761 
L 329.939064 210.15873 
L 328.392417 212.81985 
L 326.585435 215.48097 
L 322.456811 220.80321 
L 317.793905 226.798198 
L 306.193815 242.53569 
L 304.642733 245.19681 
L 303.380386 247.85793 
L 302.444275 250.51905 
L 301.616369 253.586197 
L 301.187935 255.84129 
L 300.534199 261.16353 
L 300.14558 266.92929 
L 299.546129 277.57377 
L 298.984955 282.89601 
L 298.552283 285.55713 
L 297.977238 288.21825 
L 297.977238 288.21825 
" clip-path="url(#p5c368c4f17)" style="fill: none; stroke: #c6dbef; stroke-width: 1.5"/>
   </g>
   <g id="PathCollection_4">
    <path d="M 34.240625 121.536993 
L 34.419138 121.45473 
L 36.026225 120.748506 
L 37.847537 120.184592 
L 39.633137 119.831457 
L 41.418737 119.652937 
L 43.204337 119.636794 
L 45.025649 119.785108 
L 46.811249 120.099245 
L 48.596849 120.597271 
L 50.382449 121.306354 
L 50.669959 121.45473 
L 52.203761 122.282342 
L 53.989361 123.542447 
L 54.647557 124.11585 
L 55.774961 125.206912 
L 57.103125 126.77697 
L 57.560561 127.410051 
L 58.821221 129.43809 
L 59.381873 130.558667 
L 60.077387 132.09921 
L 61.122535 135.20385 
L 61.167473 135.389451 
L 61.743628 137.86497 
L 62.151586 140.52609 
L 62.37312 143.18721 
L 62.42298 145.84833 
L 62.305228 148.50945 
L 62.014007 151.17057 
L 61.533786 153.83169 
L 61.167473 155.267177 
L 60.843696 156.49281 
L 59.917841 159.15393 
L 59.381873 160.38412 
L 58.715962 161.81505 
L 57.560561 163.894014 
L 57.211291 164.47617 
L 55.774961 166.608655 
L 55.391882 167.13729 
L 53.989361 168.951476 
L 53.294725 169.79841 
L 52.203761 171.097141 
L 51.008535 172.45953 
L 50.382449 173.175772 
L 48.61783 175.12065 
L 48.596849 175.144257 
L 46.811249 177.066943 
L 45.650324 178.22529 
L 45.025649 178.855359 
L 43.204337 180.483432 
L 42.666552 180.88641 
L 41.418737 181.812566 
L 39.633137 182.813805 
L 37.847537 183.458682 
L 37.23015 183.54753 
L 36.026225 183.719758 
L 34.240625 183.562768 
" clip-path="url(#p5c368c4f17)" style="fill: none; stroke: #9dcae1; stroke-width: 1.5"/>
    <path d="M 132.871069 288.21825 
L 131.981725 285.55713 
L 131.309097 282.89601 
L 131.162993 282.146733 
L 130.795848 280.23489 
L 130.412742 277.57377 
L 130.132643 274.91265 
L 129.931296 272.25153 
L 129.789505 269.59041 
L 129.692096 266.92929 
L 129.618728 263.82465 
L 129.579826 261.16353 
L 129.555611 258.50241 
L 129.540849 255.84129 
L 129.531837 253.18017 
L 129.526203 250.51905 
L 129.522618 247.85793 
L 129.520457 245.19681 
L 129.519428 242.53569 
L 129.519278 239.87457 
L 129.519653 237.21345 
L 129.520122 234.55233 
L 129.520316 231.89121 
L 129.520073 229.23009 
L 129.519497 226.56897 
L 129.518888 223.90785 
L 129.518559 220.80321 
L 129.518775 218.14209 
L 129.519333 215.48097 
L 129.51992 212.81985 
L 129.520197 210.15873 
L 129.519968 207.49761 
L 129.519265 204.83649 
L 129.518281 202.17537 
L 129.517181 199.51425 
L 129.515865 196.85313 
L 129.513761 194.19201 
L 129.509705 191.53089 
L 129.50189 188.86977 
L 129.487782 186.20865 
L 129.463915 183.54753 
L 129.42549 180.88641 
L 129.365815 178.22529 
L 129.341681 177.535413 
L 129.2528 175.12065 
L 129.10494 172.45953 
L 128.89378 169.79841 
L 128.599915 167.13729 
L 128.20151 164.47617 
L 127.67508 161.81505 
L 127.556081 161.341296 
L 126.967961 159.15393 
L 126.082541 156.49281 
L 125.770481 155.706815 
L 124.975278 153.83169 
L 123.984881 151.79052 
L 123.66707 151.17057 
L 122.186167 148.50945 
L 122.163569 148.470875 
L 120.606363 145.84833 
L 120.377969 145.462417 
L 119.048643 143.18721 
L 118.592369 142.360857 
L 117.610147 140.52609 
L 116.806769 138.851026 
L 116.350512 137.86497 
L 115.290211 135.20385 
L 114.985457 134.281635 
L 114.288374 132.09921 
L 113.619394 129.43809 
L 113.199857 127.300699 
L 113.096962 126.77697 
L 112.689792 124.11585 
L 112.388472 121.45473 
L 112.172538 118.79361 
L 112.025978 116.13249 
L 111.937119 113.47137 
L 111.898535 110.81025 
L 111.906996 108.14913 
L 111.963478 105.48801 
L 112.073253 102.82689 
L 112.246084 100.16577 
L 112.496506 97.50465 
L 112.844178 94.84353 
L 113.199857 92.812445 
L 113.311122 92.18241 
L 113.91579 89.52129 
L 114.852491 86.41665 
L 114.985457 86.058528 
L 115.881068 83.75553 
L 116.806769 81.783367 
L 117.149006 81.09441 
L 118.592369 78.531998 
L 118.650794 78.43329 
L 120.330219 75.77217 
L 120.377969 75.69855 
L 122.06021 73.11105 
L 122.163569 72.947091 
L 123.680368 70.44993 
L 123.984881 69.901146 
L 125.078809 67.78881 
L 125.770481 66.237974 
L 126.225945 65.12769 
L 127.123589 62.46657 
L 127.556081 60.854435 
L 127.815164 59.80545 
L 128.324705 57.14433 
L 128.706768 54.48321 
L 128.989862 51.82209 
L 129.200319 49.16097 
L 129.341681 46.839392 
L 129.361316 46.49985 
L 129.511059 43.39521 
L 129.635993 40.73409 
L 129.778025 38.07297 
L 129.956909 35.41185 
L 130.194336 32.75073 
L 130.515511 30.08961 
L 130.951026 27.42849 
L 131.162993 26.439412 
L 131.532552 24.76737 
L 132.309655 22.10625 
" clip-path="url(#p5c368c4f17)" style="fill: none; stroke: #9dcae1; stroke-width: 1.5"/>
    <path d="M 292.730181 22.10625 
L 293.619525 24.76737 
L 294.438257 28.177767 
L 294.805402 30.08961 
L 295.468607 35.41185 
L 295.811745 40.73409 
L 296.021424 49.16097 
L 296.081825 67.78881 
L 296.193055 108.14913 
L 296.370117 113.47137 
L 296.752704 118.79361 
L 297.487038 124.11585 
L 298.045169 126.777817 
L 298.801744 129.43809 
L 299.830769 132.299003 
L 301.616369 136.032507 
L 303.437681 139.084251 
L 305.223281 141.706213 
L 308.794481 146.533539 
L 323.150705 165.708689 
L 324.972017 168.618243 
L 325.643381 169.79841 
L 326.950556 172.45953 
L 328.017426 175.12065 
L 328.979656 178.22529 
L 329.585832 180.88641 
L 330.006919 183.54753 
L 330.328817 188.096304 
L 330.328817 190.14456 
L 330.298179 191.53089 
L 330.079815 194.19201 
L 329.688708 196.85313 
L 329.103618 199.51425 
L 328.297994 202.17537 
L 326.757617 205.856136 
L 325.91685 207.49761 
L 324.293888 210.15873 
L 321.365105 214.182079 
L 313.860844 223.90785 
L 307.873387 231.89121 
L 303.437681 237.780364 
L 301.616369 240.642055 
L 300.592219 242.53569 
L 299.408368 245.19681 
L 298.494404 247.85793 
L 297.794064 250.51905 
L 297.28062 253.18017 
L 296.612425 258.50241 
L 296.240172 263.82465 
L 295.64435 274.91265 
L 295.085741 280.23489 
L 294.438257 283.88509 
L 294.068699 285.55713 
L 293.291595 288.21825 
L 293.291595 288.21825 
" clip-path="url(#p5c368c4f17)" style="fill: none; stroke: #9dcae1; stroke-width: 1.5"/>
   </g>
   <g id="PathCollection_5">
    <path d="M 34.240625 127.80683 
L 35.763901 126.77697 
L 36.026225 126.619876 
L 37.847537 125.818983 
L 39.633137 125.312241 
L 41.418737 125.047769 
L 43.204337 125.007372 
L 45.025649 125.192242 
L 46.811249 125.603659 
L 48.596849 126.264581 
L 49.58028 126.77697 
L 50.382449 127.242363 
L 52.203761 128.64963 
L 53.004018 129.43809 
L 53.989361 130.593151 
L 55.040797 132.09921 
L 55.774961 133.45422 
L 56.584441 135.20385 
L 57.460726 137.86497 
L 57.560561 138.316178 
L 58.009159 140.52609 
L 58.302956 143.18721 
L 58.368206 145.84833 
L 58.212394 148.50945 
L 57.831557 151.17057 
L 57.560561 152.352922 
L 57.196533 153.83169 
L 56.284792 156.49281 
L 55.774961 157.653908 
L 55.053356 159.15393 
L 53.989361 160.999246 
L 53.472754 161.81505 
L 52.203761 163.598582 
L 51.524524 164.47617 
L 50.382449 165.860051 
L 49.254097 167.13729 
L 48.596849 167.863595 
L 46.811249 169.724941 
L 46.735015 169.79841 
L 45.025649 171.452739 
L 43.877407 172.45953 
L 43.204337 173.054415 
L 41.418737 174.384736 
L 40.131962 175.12065 
L 39.633137 175.402693 
L 37.847537 176.001456 
L 36.026225 176.120879 
L 34.240625 175.667919 
" clip-path="url(#p5c368c4f17)" style="fill: none; stroke: #6aaed6; stroke-width: 1.5"/>
    <path d="M 137.592718 288.21825 
L 136.519793 286.008111 
L 136.325946 285.55713 
L 135.415042 282.89601 
L 134.734193 280.245813 
L 134.731579 280.23489 
L 134.24133 277.57377 
L 133.883097 274.91265 
L 133.625827 272.25153 
L 133.4449 269.59041 
L 133.320828 266.92929 
L 133.227597 263.82465 
L 133.178291 261.16353 
L 133.147659 258.50241 
L 133.128996 255.84129 
L 133.117589 253.18017 
L 133.11044 250.51905 
L 133.105896 247.85793 
L 133.103185 245.19681 
L 133.101937 242.53569 
L 133.101813 239.87457 
L 133.102334 237.21345 
L 133.102936 234.55233 
L 133.103147 231.89121 
L 133.102784 229.23009 
L 133.102008 226.56897 
L 133.101225 223.90785 
L 133.100848 220.80321 
L 133.101179 218.14209 
L 133.101935 215.48097 
L 133.102696 212.81985 
L 133.103032 210.15873 
L 133.102721 207.49761 
L 133.101849 204.83649 
L 133.100727 202.17537 
L 133.099643 199.51425 
L 133.098581 196.85313 
L 133.097007 194.19201 
L 133.09379 191.53089 
L 133.087234 188.86977 
L 133.075093 186.20865 
L 133.054446 183.54753 
L 133.021352 180.88641 
L 132.970292 178.22529 
L 132.948593 177.4958 
L 132.878198 175.12065 
L 132.759269 172.45953 
L 132.588926 169.79841 
L 132.350477 167.13729 
L 132.024405 164.47617 
L 131.588489 161.81505 
L 131.162993 159.816496 
L 131.017295 159.15393 
L 130.286699 156.49281 
L 129.375221 153.83169 
L 129.341681 153.748178 
L 128.257318 151.17057 
L 127.556081 149.726299 
L 126.938404 148.50945 
L 125.770481 146.408312 
L 125.449982 145.84833 
L 123.984881 143.383535 
L 123.867667 143.18721 
L 122.303179 140.52609 
L 122.163569 140.27681 
L 120.863561 137.86497 
L 120.377969 136.866913 
L 119.609917 135.20385 
L 118.592369 132.600572 
L 118.407494 132.09921 
L 117.601265 129.43809 
L 116.964014 126.77697 
L 116.806769 125.936354 
L 116.479616 124.11585 
L 116.120828 121.45473 
L 115.862916 118.79361 
L 115.688286 116.13249 
L 115.583921 113.47137 
L 115.541609 110.81025 
L 115.558067 108.14913 
L 115.635045 105.48801 
L 115.779443 102.82689 
L 116.003458 100.16577 
L 116.324703 97.50465 
L 116.766228 94.84353 
L 116.806769 94.655153 
L 117.368654 92.18241 
L 118.151077 89.52129 
L 118.592369 88.32439 
L 119.352972 86.41665 
L 120.377969 84.283539 
L 120.650236 83.75553 
L 122.163569 81.139035 
L 122.190737 81.09441 
L 123.900899 78.43329 
L 123.984881 78.304899 
L 125.630094 75.77217 
L 125.770481 75.546613 
L 127.22338 73.11105 
L 127.556081 72.493105 
L 128.588461 70.44993 
L 129.341681 68.697642 
L 129.707397 67.78881 
L 130.590981 65.12769 
L 131.162993 62.942049 
L 131.281561 62.46657 
L 131.80612 59.80545 
L 132.2015 57.14433 
L 132.49625 54.48321 
L 132.715799 51.82209 
L 132.883196 49.16097 
L 132.948593 47.889602 
L 133.020336 46.49985 
L 133.168887 43.39521 
L 133.308936 40.73409 
L 133.482805 38.07297 
L 133.713547 35.41185 
L 134.027901 32.75073 
L 134.458195 30.08961 
L 134.734193 28.811535 
L 135.056848 27.42849 
L 135.882782 24.76737 
L 136.519793 23.202098 
L 137.029582 22.10625 
" clip-path="url(#p5c368c4f17)" style="fill: none; stroke: #6aaed6; stroke-width: 1.5"/>
    <path d="M 288.008532 22.10625 
L 289.275304 24.76737 
L 290.186208 27.42849 
L 290.869671 30.08961 
L 291.35992 32.75073 
L 291.975423 38.07297 
L 292.280422 43.39521 
L 292.453591 51.82209 
L 292.498929 73.11105 
L 292.594683 108.14913 
L 292.867094 116.13249 
L 293.301043 121.45473 
L 293.646073 124.11585 
L 294.438257 128.258776 
L 294.711196 129.43809 
L 295.485102 132.09921 
L 296.644089 135.20385 
L 298.045169 138.161516 
L 299.830769 141.243412 
L 301.616369 143.911322 
L 305.223281 148.77025 
L 317.073897 164.47617 
L 319.579505 167.964774 
L 321.365105 170.752597 
L 323.150705 174.102275 
L 323.624966 175.12065 
L 324.972017 178.857831 
L 325.521046 180.88641 
L 326.02652 183.54753 
L 326.326396 186.20865 
L 326.427961 188.86977 
L 326.331749 191.53089 
L 326.031203 194.19201 
L 325.512648 196.85313 
L 324.748104 199.51425 
L 323.150705 203.305616 
L 322.347136 204.83649 
L 320.68582 207.49761 
L 317.793905 211.42145 
L 312.401393 218.438054 
L 305.223281 228.020247 
L 301.616369 232.642714 
L 299.830769 235.130859 
L 298.045169 238.022103 
L 297.072939 239.87457 
L 295.922897 242.53569 
L 295.02482 245.19681 
L 294.326891 247.85793 
L 293.798815 250.51905 
L 293.10595 255.84129 
L 292.652657 262.438336 
L 292.118455 272.25153 
L 291.573351 277.57377 
L 290.867057 281.512967 
L 290.544402 282.89601 
L 289.718468 285.55713 
L 288.571668 288.21825 
L 288.571668 288.21825 
" clip-path="url(#p5c368c4f17)" style="fill: none; stroke: #6aaed6; stroke-width: 1.5"/>
   </g>
   <g id="PathCollection_6">
    <path d="M 34.240625 135.84934 
L 34.68641 135.20385 
L 36.026225 133.717731 
L 37.847537 132.269664 
L 38.170014 132.09921 
L 39.633137 131.461919 
L 41.418737 131.045609 
L 43.204337 130.966256 
L 45.025649 131.224604 
L 46.811249 131.822506 
L 47.32977 132.09921 
L 48.596849 132.928762 
L 50.382449 134.598557 
L 50.874992 135.20385 
L 52.203761 137.420413 
L 52.419242 137.86497 
L 53.300052 140.52609 
L 53.782321 143.18721 
L 53.903955 145.84833 
L 53.687294 148.50945 
L 53.144022 151.17057 
L 52.279975 153.83169 
L 52.203761 154.005719 
L 50.968898 156.49281 
L 50.382449 157.458706 
L 49.216791 159.15393 
L 48.596849 159.949119 
L 46.967723 161.81505 
L 46.811249 161.982315 
L 45.025649 163.662604 
L 44.023235 164.47617 
L 43.204337 165.127195 
L 41.418737 166.251016 
L 39.633137 167.014508 
L 38.664461 167.13729 
L 37.847537 167.239751 
L 37.438127 167.13729 
L 36.026225 166.705985 
L 34.240625 165.093988 
" clip-path="url(#p5c368c4f17)" style="fill: none; stroke: #4191c6; stroke-width: 1.5"/>
    <path d="M 143.582665 288.21825 
L 141.912305 286.252464 
L 141.429937 285.55713 
L 140.126705 283.197508 
L 139.985436 282.89601 
L 139.009636 280.23489 
L 138.341105 277.782709 
L 138.290556 277.57377 
L 137.808025 274.91265 
L 137.461752 272.25153 
L 137.218518 269.59041 
L 137.05198 266.92929 
L 136.9271 263.82465 
L 136.861207 261.16353 
L 136.820337 258.50241 
L 136.795445 255.84129 
L 136.780211 253.18017 
L 136.770645 250.51905 
L 136.764573 247.85793 
L 136.760988 245.19681 
L 136.759393 242.53569 
L 136.759308 239.87457 
L 136.760059 237.21345 
L 136.760866 234.55233 
L 136.761101 231.89121 
L 136.760545 229.23009 
L 136.759454 226.56897 
L 136.758399 223.90785 
L 136.757949 220.80321 
L 136.758464 218.14209 
L 136.759532 215.48097 
L 136.760565 212.81985 
L 136.760986 210.15873 
L 136.760532 207.49761 
L 136.759377 204.83649 
L 136.758 202.17537 
L 136.756866 199.51425 
L 136.756056 196.85313 
L 136.755031 194.19201 
L 136.752604 191.53089 
L 136.747076 188.86977 
L 136.736376 186.20865 
L 136.71802 183.54753 
L 136.688793 180.88641 
L 136.644169 178.22529 
L 136.563825 175.12065 
L 136.519793 173.985834 
L 136.463925 172.45953 
L 136.324716 169.79841 
L 136.129136 167.13729 
L 135.860245 164.47617 
L 135.498265 161.81505 
L 135.020087 159.15393 
L 134.734193 157.900093 
L 134.415249 156.49281 
L 133.662601 153.83169 
L 132.948593 151.79303 
L 132.725707 151.17057 
L 131.607474 148.50945 
L 131.162993 147.589042 
L 130.295376 145.84833 
L 129.341681 144.118513 
L 128.815258 143.18721 
L 127.556081 141.059058 
L 127.239103 140.52609 
L 125.770481 138.037253 
L 125.671096 137.86497 
L 124.231647 135.20385 
L 123.984881 134.696037 
L 122.803491 132.09921 
L 122.163569 130.44109 
L 121.805885 129.43809 
L 121.029065 126.77697 
L 120.415808 124.11585 
L 120.377969 123.901369 
L 119.980409 121.45473 
L 119.667195 118.79361 
L 119.455162 116.13249 
L 119.330326 113.47137 
L 119.283891 110.81025 
L 119.31274 108.14913 
L 119.419703 105.48801 
L 119.613662 102.82689 
L 119.909474 100.16577 
L 120.327596 97.50465 
L 120.377969 97.263559 
L 120.932676 94.84353 
L 121.721829 92.18241 
L 122.163569 90.984035 
L 122.757011 89.52129 
L 123.984881 86.995467 
L 124.290012 86.41665 
L 125.770481 83.912864 
L 125.867948 83.75553 
L 127.556081 81.145846 
L 127.589544 81.09441 
L 129.294095 78.43329 
L 129.341681 78.35497 
L 130.843021 75.77217 
L 131.162993 75.153969 
L 132.165785 73.11105 
L 132.948593 71.212611 
L 133.249762 70.44993 
L 134.122633 67.78881 
L 134.734193 65.404868 
L 134.804461 65.12769 
L 135.347498 62.46657 
L 135.758976 59.80545 
L 136.067966 57.14433 
L 136.299334 54.48321 
L 136.475185 51.82209 
L 136.519793 50.984557 
L 136.622514 49.16097 
L 136.75672 46.49985 
L 136.921556 43.39521 
L 137.095886 40.73409 
L 137.327374 38.07297 
L 137.645549 35.41185 
L 138.086123 32.75073 
L 138.341105 31.61384 
L 138.728961 30.08961 
L 139.643906 27.42849 
L 140.126705 26.360843 
L 140.98686 24.76737 
L 141.912305 23.426502 
L 143.047368 22.10625 
" clip-path="url(#p5c368c4f17)" style="fill: none; stroke: #4191c6; stroke-width: 1.5"/>
    <path d="M 282.018585 22.10625 
L 284.171313 24.76737 
L 285.615814 27.42849 
L 286.591614 30.08961 
L 287.310694 32.75073 
L 287.793225 35.41185 
L 288.382732 40.73409 
L 288.67415 46.49985 
L 288.805805 54.48321 
L 288.840212 78.43329 
L 288.925398 108.14913 
L 289.157627 116.13249 
L 289.512714 121.45473 
L 290.178765 126.77697 
L 290.867057 130.21034 
L 291.315658 132.09921 
L 292.652657 136.23053 
L 293.287694 137.86497 
L 294.535575 140.52609 
L 296.259569 143.58589 
L 298.045169 146.310197 
L 301.652892 151.17057 
L 309.705661 161.81505 
L 315.972593 170.364692 
L 317.793905 173.209353 
L 318.869097 175.12065 
L 320.286695 178.22529 
L 321.365105 181.582785 
L 321.807596 183.54753 
L 322.158339 186.20865 
L 322.259707 188.86977 
L 322.108491 191.53089 
L 321.698116 194.19201 
L 320.990977 196.85313 
L 319.579505 200.316723 
L 317.793905 203.489849 
L 315.972593 206.159553 
L 312.401393 210.890743 
L 296.259569 232.289649 
L 294.438257 235.338526 
L 293.486942 237.21345 
L 292.376979 239.87457 
L 291.491249 242.53569 
L 290.803318 245.19681 
L 290.25709 247.85793 
L 289.534152 253.18017 
L 289.081457 259.343392 
L 288.27388 272.25153 
L 287.955703 274.91265 
L 287.260145 278.710663 
L 286.87229 280.23489 
L 285.474545 283.963657 
L 284.61439 285.55713 
L 283.688945 286.897998 
L 282.553882 288.21825 
L 282.553882 288.21825 
" clip-path="url(#p5c368c4f17)" style="fill: none; stroke: #4191c6; stroke-width: 1.5"/>
   </g>
   <g id="PathCollection_7">
    <path d="M 37.657394 151.17057 
L 37.391623 148.50945 
L 37.617424 145.84833 
L 37.847537 145.001327 
L 38.56694 143.18721 
L 39.633137 141.646923 
L 41.059278 140.52609 
L 41.418737 140.335346 
L 43.204337 140.188106 
L 44.109876 140.52609 
L 45.025649 141.080079 
L 46.521781 143.18721 
L 46.811249 144.297429 
L 47.069514 145.84833 
L 46.834228 148.50945 
L 46.811249 148.581849 
L 45.718841 151.17057 
L 45.025649 152.229369 
L 43.510119 153.83169 
L 43.204337 154.086323 
L 41.418737 154.774812 
L 39.633137 154.453328 
L 38.989552 153.83169 
L 37.847537 151.820112 
L 37.657394 151.17057 
z
" clip-path="url(#p5c368c4f17)" style="fill: none; stroke: #2070b4; stroke-width: 1.5"/>
    <path d="M 123.885128 116.13249 
L 123.735952 113.47137 
L 123.687294 110.81025 
L 123.736815 108.14913 
L 123.88878 105.48801 
L 123.984881 104.521235 
L 124.178718 102.82689 
L 124.62846 100.16577 
L 125.242542 97.50465 
L 125.770481 95.741075 
L 126.076046 94.84353 
L 127.183415 92.18241 
L 127.556081 91.421342 
L 128.569352 89.52129 
L 129.341681 88.222639 
L 130.451076 86.41665 
L 131.162993 85.305129 
L 132.153251 83.75553 
L 132.948593 82.475325 
L 133.780839 81.09441 
L 134.734193 79.365448 
L 135.229747 78.43329 
L 136.454824 75.77217 
L 136.519793 75.608703 
L 137.497042 73.11105 
L 138.310951 70.44993 
L 138.341105 70.330504 
L 139.000169 67.78881 
L 139.529703 65.12769 
L 139.932579 62.46657 
L 140.126705 60.795227 
L 140.251711 59.80545 
L 140.511618 57.14433 
L 140.710304 54.48321 
L 140.869124 51.82209 
L 141.009384 49.16097 
L 141.153579 46.49985 
L 141.359992 43.39521 
L 141.602352 40.73409 
L 141.912305 38.296649 
L 141.945662 38.07297 
L 142.499306 35.41185 
L 143.274658 32.75073 
L 143.697905 31.682272 
L 144.476621 30.08961 
L 145.519217 28.488955 
L 146.403845 27.42849 
L 147.304817 26.583266 
L 149.090417 25.305582 
L 150.093658 24.76737 
L 150.876017 24.42303 
L 152.697329 23.828554 
L 154.482929 23.407771 
L 156.268529 23.109016 
L 158.054129 22.902644 
L 159.875441 22.763003 
L 161.661041 22.676273 
L 163.446641 22.62354 
L 165.232241 22.592209 
L 167.053553 22.572358 
L 168.839153 22.558234 
L 170.624753 22.546049 
L 172.410353 22.535085 
L 174.231665 22.526144 
L 176.017265 22.521044 
L 177.802865 22.520441 
L 179.588465 22.523949 
L 181.409777 22.530021 
L 183.195377 22.535925 
L 184.980977 22.539414 
L 186.766577 22.539104 
L 188.587889 22.534981 
L 190.373489 22.528765 
L 192.159089 22.522779 
L 193.944689 22.519306 
L 195.766001 22.519718 
L 197.551601 22.523841 
L 199.337201 22.53007 
L 201.122801 22.536025 
L 202.944113 22.539462 
L 204.729713 22.538937 
L 206.515313 22.534749 
L 208.300913 22.5285 
L 210.122225 22.522478 
L 211.907825 22.519212 
L 213.693425 22.519818 
L 215.479025 22.524064 
L 217.300337 22.53046 
L 219.085937 22.53632 
L 220.871537 22.539519 
L 222.657137 22.538833 
L 224.478449 22.534411 
L 226.264049 22.52811 
L 228.049649 22.522285 
L 229.835249 22.519159 
L 231.656561 22.519982 
L 233.442161 22.524407 
L 235.227761 22.530725 
L 237.013361 22.536524 
L 238.834673 22.539621 
L 240.620273 22.538728 
L 242.405873 22.53431 
L 244.191473 22.528116 
L 246.012785 22.522541 
L 247.798385 22.520149 
L 249.583985 22.522131 
L 251.369585 22.528464 
L 253.190897 22.538236 
L 254.976497 22.549623 
L 256.762097 22.56223 
L 258.547697 22.577473 
L 260.369009 22.600108 
L 262.154609 22.636726 
L 263.940209 22.698135 
L 265.725809 22.797653 
L 267.547121 22.95522 
L 269.332721 23.184536 
L 271.118321 23.512079 
L 272.903921 23.967815 
L 274.725233 24.603999 
L 275.077131 24.76737 
L 276.510833 25.573252 
L 278.296433 26.899713 
L 278.849751 27.42849 
L 280.082033 28.91664 
L 280.85052 30.08961 
L 281.903345 32.200947 
L 282.127595 32.75073 
L 282.937621 35.41185 
L 283.518843 38.07297 
L 283.688945 39.176089 
L 283.894217 40.73409 
L 284.134903 43.39521 
L 284.315023 46.49985 
L 284.409862 49.16097 
L 284.4686 51.82209 
L 284.504367 54.48321 
L 284.526291 57.14433 
L 284.540079 59.80545 
L 284.548814 62.46657 
L 284.553915 65.12769 
L 284.556104 67.78881 
L 284.556113 70.44993 
L 284.554966 73.11105 
L 284.553824 75.77217 
L 284.55359 78.43329 
L 284.554557 81.09441 
L 284.556333 83.75553 
L 284.558123 86.41665 
L 284.559339 89.52129 
L 284.559601 92.18241 
L 284.560019 94.84353 
L 284.562132 97.50465 
L 284.567814 100.16577 
L 284.578997 102.82689 
L 284.597709 105.48801 
L 284.626521 108.14913 
L 284.66926 110.81025 
L 284.731767 113.47137 
L 284.822415 116.13249 
L 284.952302 118.79361 
L 285.13521 121.45473 
L 285.387616 124.11585 
L 285.474545 124.811036 
L 285.698797 126.77697 
L 286.097808 129.43809 
L 286.619915 132.09921 
L 287.260145 134.598904 
L 287.41054 135.20385 
L 288.224162 137.86497 
L 289.081457 140.095072 
L 289.247268 140.52609 
L 290.44625 143.18721 
L 290.867057 143.993495 
L 291.866592 145.84833 
L 292.652657 147.14768 
L 293.513098 148.50945 
L 294.438257 149.870655 
L 295.360673 151.17057 
L 296.259569 152.389946 
L 297.358765 153.83169 
L 298.045169 154.725518 
L 299.430099 156.49281 
L 299.830769 157.009981 
L 301.504492 159.15393 
L 301.616369 159.300121 
L 303.437681 161.690893 
L 303.531666 161.81505 
L 305.223281 164.088527 
L 305.512764 164.47617 
L 307.008881 166.512033 
L 307.472265 167.13729 
L 308.794481 168.960424 
L 309.406523 169.79841 
L 310.615793 171.516648 
L 311.276775 172.45953 
L 312.401393 174.180133 
L 313.000778 175.12065 
L 314.186993 177.251656 
L 314.703993 178.22529 
L 315.838089 180.88641 
L 315.972593 181.319565 
L 316.597509 183.54753 
L 317.029421 186.20865 
L 317.12315 188.86977 
L 316.866482 191.53089 
L 316.263448 194.19201 
L 315.972593 195.021546 
L 315.256191 196.85313 
L 314.186993 198.973887 
L 313.893067 199.51425 
L 312.401393 201.87016 
L 312.20117 202.17537 
L 310.615793 204.395938 
L 310.300634 204.83649 
L 308.794481 206.862995 
L 308.330268 207.49761 
L 307.008881 209.277775 
L 306.366111 210.15873 
L 305.223281 211.713762 
L 304.415924 212.81985 
L 303.437681 214.142596 
L 302.441729 215.48097 
L 301.616369 216.565773 
L 300.403419 218.14209 
L 299.830769 218.865211 
L 298.291413 220.80321 
L 298.045169 221.104635 
L 296.259569 223.313897 
L 295.79687 223.90785 
L 294.438257 225.671333 
L 293.781323 226.56897 
L 292.652657 228.203403 
L 291.985065 229.23009 
L 290.867057 231.143154 
L 290.452411 231.89121 
L 289.183906 234.55233 
L 289.081457 234.804678 
L 288.12375 237.21345 
L 287.299696 239.87457 
L 287.260145 240.029992 
L 286.606291 242.53569 
L 286.074178 245.19681 
L 285.670003 247.85793 
L 285.474545 249.537192 
L 285.350306 250.51905 
L 285.090026 253.18017 
L 284.891147 255.84129 
L 284.732227 258.50241 
L 284.591916 261.16353 
L 284.447695 263.82465 
L 284.241268 266.92929 
L 283.998902 269.59041 
L 283.688945 272.027866 
L 283.65559 272.25153 
L 283.101945 274.91265 
L 282.326592 277.57377 
L 281.903345 278.642228 
L 281.124629 280.23489 
L 280.082033 281.835545 
L 279.197405 282.89601 
L 278.296433 283.741235 
L 276.510833 285.018918 
L 275.507592 285.55713 
L 274.725233 285.90147 
L 272.903921 286.495946 
L 271.118321 286.916729 
L 269.332721 287.215484 
L 267.547121 287.421856 
L 265.725809 287.561497 
L 263.940209 287.648227 
L 262.154609 287.70096 
L 260.369009 287.732291 
L 258.547697 287.752142 
L 256.762097 287.766266 
L 254.976497 287.778451 
L 253.190897 287.789415 
L 251.369585 287.798356 
L 249.583985 287.803456 
L 247.798385 287.804059 
L 246.012785 287.800551 
L 244.191473 287.794479 
L 242.405873 287.788575 
L 240.620273 287.785086 
L 238.834673 287.785396 
L 237.013361 287.789519 
L 235.227761 287.795735 
L 233.442161 287.801721 
L 231.656561 287.805194 
L 229.835249 287.804782 
L 228.049649 287.800659 
L 226.264049 287.79443 
L 224.478449 287.788475 
L 222.657137 287.785038 
L 220.871537 287.785563 
L 219.085937 287.789751 
L 217.300337 287.796 
L 215.479025 287.802022 
L 213.693425 287.805288 
L 211.907825 287.804682 
L 210.122225 287.800436 
L 208.300913 287.79404 
L 206.515313 287.78818 
L 204.729713 287.784981 
L 202.944113 287.785667 
L 201.122801 287.790089 
L 199.337201 287.79639 
L 197.551601 287.802215 
L 195.766001 287.805341 
L 193.944689 287.804518 
L 192.159089 287.800093 
L 190.373489 287.793775 
L 188.587889 287.787976 
L 186.766577 287.784879 
L 184.980977 287.785772 
L 183.195377 287.79019 
L 181.409777 287.796384 
L 179.588465 287.801959 
L 177.802865 287.804351 
L 176.017265 287.802369 
L 174.231665 287.796036 
L 172.410353 287.786264 
L 170.624753 287.774877 
L 168.839153 287.76227 
L 167.053553 287.747027 
L 165.232241 287.724392 
L 163.446641 287.687774 
L 161.661041 287.626365 
L 159.875441 287.526847 
L 158.054129 287.36928 
L 156.268529 287.139964 
L 154.482929 286.812421 
L 152.697329 286.356685 
L 150.876017 285.720501 
L 150.524119 285.55713 
L 149.090417 284.751248 
L 147.304817 283.424787 
L 146.751499 282.89601 
L 145.519217 281.40786 
L 144.75073 280.23489 
L 143.697905 278.123553 
L 143.473655 277.57377 
L 142.663629 274.91265 
L 142.082407 272.25153 
L 141.912305 271.148411 
L 141.707033 269.59041 
L 141.466347 266.92929 
L 141.286227 263.82465 
L 141.191388 261.16353 
L 141.13265 258.50241 
L 141.096883 255.84129 
L 141.074959 253.18017 
L 141.061171 250.51905 
L 141.052437 247.85793 
L 141.047336 245.19681 
L 141.045148 242.53569 
L 141.045141 239.87457 
L 141.046294 237.21345 
L 141.047451 234.55233 
L 141.047715 231.89121 
L 141.046812 229.23009 
L 141.04517 226.56897 
L 141.043649 223.90785 
L 141.043085 220.80321 
L 141.043931 218.14209 
L 141.045543 215.48097 
L 141.047042 212.81985 
L 141.047599 210.15873 
L 141.046882 207.49761 
L 141.045218 204.83649 
L 141.043384 202.17537 
L 141.042134 199.51425 
L 141.041693 196.85313 
L 141.041472 194.19201 
L 141.040124 191.53089 
L 141.035848 188.86977 
L 141.026717 186.20865 
L 141.010765 183.54753 
L 140.985678 180.88641 
L 140.948138 178.22529 
L 140.88169 175.12065 
L 140.796518 172.45953 
L 140.674224 169.79841 
L 140.501534 167.13729 
L 140.262555 164.47617 
L 140.126705 163.339014 
L 139.960874 161.81505 
L 139.581596 159.15393 
L 139.085413 156.49281 
L 138.443041 153.83169 
L 138.341105 153.480332 
L 137.694594 151.17057 
L 136.759022 148.50945 
L 136.519793 147.925532 
L 135.669846 145.84833 
L 134.734193 143.901545 
L 134.385544 143.18721 
L 132.948593 140.542898 
L 132.939298 140.52609 
L 131.40851 137.86497 
L 131.162993 137.446428 
L 129.865816 135.20385 
L 129.341681 134.257234 
L 128.189959 132.09921 
L 127.556081 130.781186 
L 126.959521 129.43809 
L 125.942247 126.77697 
L 125.770481 126.23041 
L 125.178997 124.11585 
L 124.59765 121.45473 
L 124.166005 118.79361 
L 123.984881 117.159381 
L 123.885128 116.13249 
z
" clip-path="url(#p5c368c4f17)" style="fill: none; stroke: #2070b4; stroke-width: 1.5"/>
   </g>
   <g id="PathCollection_8">
    <path d="M 130.852098 116.13249 
L 130.634868 113.47137 
L 130.583219 110.81025 
L 130.699151 108.14913 
L 130.987203 105.48801 
L 131.162993 104.493763 
L 131.521127 102.82689 
L 132.304058 100.16577 
L 132.948593 98.419564 
L 133.335772 97.50465 
L 134.636286 94.84353 
L 134.734193 94.666312 
L 136.181786 92.18241 
L 136.519793 91.624714 
L 137.811986 89.52129 
L 138.341105 88.648692 
L 139.648065 86.41665 
L 140.126705 85.535381 
L 141.084289 83.75553 
L 141.912305 81.973789 
L 142.324827 81.09441 
L 143.385433 78.43329 
L 143.697905 77.478598 
L 144.288482 75.77217 
L 145.018405 73.11105 
L 145.519217 70.722393 
L 145.582985 70.44993 
L 146.096448 67.78881 
L 146.487931 65.12769 
L 146.787827 62.46657 
L 147.019513 59.80545 
L 147.202623 57.14433 
L 147.304817 55.38512 
L 147.368961 54.48321 
L 147.550213 51.82209 
L 147.75254 49.16097 
L 148.015131 46.49985 
L 148.463378 43.39521 
L 149.040218 40.73409 
L 149.090417 40.572922 
L 150.098711 38.07297 
L 150.876017 36.71552 
L 151.873689 35.41185 
L 152.697329 34.628586 
L 154.482929 33.390275 
L 155.776719 32.75073 
L 156.268529 32.566952 
L 158.054129 32.101917 
L 159.875441 31.786139 
L 161.661041 31.589149 
L 163.446641 31.468876 
L 165.232241 31.397348 
L 167.053553 31.352385 
L 168.839153 31.320942 
L 170.624753 31.294171 
L 172.410353 31.270073 
L 174.231665 31.250134 
L 176.017265 31.2383 
L 177.802865 31.236144 
L 179.588465 31.243079 
L 181.409777 31.255956 
L 183.195377 31.268949 
L 184.980977 31.277088 
L 186.766577 31.277149 
L 188.587889 31.268823 
L 190.373489 31.255581 
L 192.159089 31.242383 
L 193.944689 31.234262 
L 195.766001 31.234406 
L 197.551601 31.24275 
L 199.337201 31.256026 
L 201.122801 31.269164 
L 202.944113 31.277228 
L 204.729713 31.276826 
L 206.515313 31.268337 
L 208.300913 31.255006 
L 210.122225 31.241704 
L 211.907825 31.234017 
L 213.693425 31.234595 
L 215.479025 31.243216 
L 217.300337 31.256872 
L 219.085937 31.269832 
L 220.871537 31.27738 
L 222.657137 31.27663 
L 224.478449 31.267629 
L 226.264049 31.25416 
L 228.049649 31.241266 
L 229.835249 31.233873 
L 231.656561 31.234907 
L 233.442161 31.243935 
L 235.227761 31.257448 
L 237.013361 31.270292 
L 238.834673 31.277641 
L 240.620273 31.276436 
L 242.405873 31.267412 
L 244.191473 31.254143 
L 246.012785 31.24174 
L 247.798385 31.235872 
L 249.583985 31.239348 
L 251.369585 31.252364 
L 253.190897 31.273107 
L 254.976497 31.297626 
L 256.762097 31.32483 
L 258.547697 31.357387 
L 260.369009 31.405061 
L 262.154609 31.481661 
L 263.940209 31.610118 
L 265.725809 31.818862 
L 267.547121 32.15041 
L 269.332721 32.634207 
L 269.634765 32.75073 
L 271.118321 33.50506 
L 272.903921 34.768073 
L 273.573841 35.41185 
L 274.725233 36.92397 
L 275.384387 38.07297 
L 276.463386 40.73409 
L 276.510833 40.90442 
L 277.050151 43.39521 
L 277.480837 46.49985 
L 277.707201 49.16097 
L 277.847241 51.82209 
L 277.932528 54.48321 
L 277.984889 57.14433 
L 278.017869 59.80545 
L 278.038703 62.46657 
L 278.050715 65.12769 
L 278.05566 67.78881 
L 278.055399 70.44993 
L 278.052496 73.11105 
L 278.049787 75.77217 
L 278.049389 78.43329 
L 278.051857 81.09441 
L 278.056068 83.75553 
L 278.059937 86.41665 
L 278.061667 89.52129 
L 278.060425 92.18241 
L 278.058289 94.84353 
L 278.058048 97.50465 
L 278.062604 100.16577 
L 278.074068 102.82689 
L 278.093595 105.48801 
L 278.122121 108.14913 
L 278.161737 110.81025 
L 278.217044 113.47137 
L 278.295934 116.13249 
L 278.296433 116.144359 
L 278.386749 118.79361 
L 278.516054 121.45473 
L 278.696407 124.11585 
L 278.941855 126.77697 
L 279.268991 129.43809 
L 279.698978 132.09921 
L 280.082033 133.941858 
L 280.31466 135.20385 
L 280.933022 137.86497 
L 281.740286 140.52609 
L 281.903345 140.982583 
L 282.639263 143.18721 
L 283.688945 145.663021 
L 283.764998 145.84833 
L 285.015414 148.50945 
L 285.474545 149.354255 
L 286.469804 151.17057 
L 287.260145 152.465 
L 288.118201 153.83169 
L 289.081457 155.263841 
L 289.942464 156.49281 
L 290.867057 157.775494 
L 291.906917 159.15393 
L 292.652657 160.142365 
L 293.96649 161.81505 
L 294.438257 162.427302 
L 296.062112 164.47617 
L 296.259569 164.732089 
L 298.045169 167.026275 
L 298.13112 167.13729 
L 299.830769 169.405813 
L 300.126114 169.79841 
L 301.616369 171.85534 
L 302.053239 172.45953 
L 303.437681 174.469571 
L 303.881824 175.12065 
L 305.223281 177.300864 
L 305.789882 178.22529 
L 307.008881 180.587128 
L 307.154797 180.88641 
L 308.098762 183.54753 
L 308.644341 186.20865 
L 308.676665 188.86977 
L 308.176776 191.53089 
L 307.23484 194.19201 
L 307.008881 194.649014 
L 305.847379 196.85313 
L 305.223281 197.866018 
L 304.182277 199.51425 
L 303.437681 200.599591 
L 302.351756 202.17537 
L 301.616369 203.198949 
L 300.44167 204.83649 
L 299.830769 205.662918 
L 298.476401 207.49761 
L 298.045169 208.064352 
L 296.452806 210.15873 
L 296.259569 210.403981 
L 294.438257 212.716002 
L 294.356488 212.81985 
L 292.652657 214.909486 
L 292.202432 215.48097 
L 290.867057 217.14455 
L 290.104777 218.14209 
L 289.081457 219.494516 
L 288.143576 220.80321 
L 287.260145 222.091037 
L 286.107347 223.90785 
L 285.474545 225.002069 
L 284.594663 226.56897 
L 283.688945 228.454413 
L 283.316598 229.23009 
L 282.234103 231.89121 
L 281.903345 232.890051 
L 281.323054 234.55233 
L 280.587812 237.21345 
L 280.082033 239.615626 
L 280.021224 239.87457 
L 279.506309 242.53569 
L 279.11409 245.19681 
L 278.813818 247.85793 
L 278.581939 250.51905 
L 278.398729 253.18017 
L 278.296433 254.94056 
L 278.232354 255.84129 
L 278.051069 258.50241 
L 277.848726 261.16353 
L 277.586126 263.82465 
L 277.137875 266.92929 
L 276.561033 269.59041 
L 276.510833 269.751581 
L 275.502539 272.25153 
L 274.725233 273.60898 
L 273.727561 274.91265 
L 272.903921 275.695914 
L 271.118321 276.934225 
L 269.824531 277.57377 
L 269.332721 277.757548 
L 267.547121 278.222583 
L 265.725809 278.538361 
L 263.940209 278.735351 
L 262.154609 278.855624 
L 260.369009 278.927152 
L 258.547697 278.972115 
L 256.762097 279.003558 
L 254.976497 279.030329 
L 253.190897 279.054427 
L 251.369585 279.074366 
L 249.583985 279.0862 
L 247.798385 279.088356 
L 246.012785 279.081421 
L 244.191473 279.068544 
L 242.405873 279.055551 
L 240.620273 279.047412 
L 238.834673 279.047351 
L 237.013361 279.055677 
L 235.227761 279.068919 
L 233.442161 279.082117 
L 231.656561 279.090238 
L 229.835249 279.090094 
L 228.049649 279.08175 
L 226.264049 279.068474 
L 224.478449 279.055336 
L 222.657137 279.047272 
L 220.871537 279.047674 
L 219.085937 279.056163 
L 217.300337 279.069494 
L 215.479025 279.082796 
L 213.693425 279.090483 
L 211.907825 279.089905 
L 210.122225 279.081284 
L 208.300913 279.067628 
L 206.515313 279.054668 
L 204.729713 279.04712 
L 202.944113 279.04787 
L 201.122801 279.056871 
L 199.337201 279.07034 
L 197.551601 279.083234 
L 195.766001 279.090627 
L 193.944689 279.089593 
L 192.159089 279.080565 
L 190.373489 279.067052 
L 188.587889 279.054208 
L 186.766577 279.046859 
L 184.980977 279.048064 
L 183.195377 279.057088 
L 181.409777 279.070357 
L 179.588465 279.08276 
L 177.802865 279.088628 
L 176.017265 279.085152 
L 174.231665 279.072136 
L 172.410353 279.051393 
L 170.624753 279.026874 
L 168.839153 278.99967 
L 167.053553 278.967113 
L 165.232241 278.919439 
L 163.446641 278.842839 
L 161.661041 278.714382 
L 159.875441 278.505638 
L 158.054129 278.17409 
L 156.268529 277.690293 
L 155.966485 277.57377 
L 154.482929 276.81944 
L 152.697329 275.556427 
L 152.027409 274.91265 
L 150.876017 273.40053 
L 150.216863 272.25153 
L 149.137864 269.59041 
L 149.090417 269.42008 
L 148.551099 266.92929 
L 148.120413 263.82465 
L 147.894049 261.16353 
L 147.754009 258.50241 
L 147.668722 255.84129 
L 147.616361 253.18017 
L 147.583381 250.51905 
L 147.562548 247.85793 
L 147.550536 245.19681 
L 147.545591 242.53569 
L 147.545856 239.87457 
L 147.548764 237.21345 
L 147.551486 234.55233 
L 147.551914 231.89121 
L 147.549507 229.23009 
L 147.545424 226.56897 
L 147.54181 223.90785 
L 147.540693 220.80321 
L 147.54297 218.14209 
L 147.546992 215.48097 
L 147.550571 212.81985 
L 147.551751 210.15873 
L 147.549864 207.49761 
L 147.545874 204.83649 
L 147.541826 202.17537 
L 147.539688 199.51425 
L 147.540196 196.85313 
L 147.542307 194.19201 
L 147.543521 191.53089 
L 147.540851 188.86977 
L 147.531859 186.20865 
L 147.515113 183.54753 
L 147.489735 180.88641 
L 147.454189 178.22529 
L 147.394846 175.12065 
L 147.320615 172.45953 
L 147.304817 172.060907 
L 147.232101 169.79841 
L 147.110159 167.13729 
L 146.939434 164.47617 
L 146.706262 161.81505 
L 146.394731 159.15393 
L 145.984903 156.49281 
L 145.519217 154.153949 
L 145.463275 153.83169 
L 144.900865 151.17057 
L 144.170453 148.50945 
L 143.697905 147.107586 
L 143.304605 145.84833 
L 142.290719 143.18721 
L 141.912305 142.335668 
L 141.135319 140.52609 
L 140.126705 138.516646 
L 139.804483 137.86497 
L 138.349546 135.20385 
L 138.341105 135.188654 
L 136.614494 132.09921 
L 136.519793 131.92968 
L 135.184196 129.43809 
L 134.734193 128.560591 
L 133.884246 126.77697 
L 132.948593 124.61135 
L 132.757207 124.11585 
L 131.919974 121.45473 
L 131.251731 118.79361 
L 131.162993 118.286016 
L 130.852098 116.13249 
z
" clip-path="url(#p5c368c4f17)" style="fill: none; stroke: #08509b; stroke-width: 1.5"/>
   </g>
   <g id="PathCollection_9"/>
   <g id="patch_3">
    <path d="M 34.240625 288.21825 
L 34.240625 22.10625 
" style="fill: none; stroke: #000000; stroke-width: 0.8; stroke-linejoin: miter; stroke-linecap: square"/>
   </g>
   <g id="patch_4">
    <path d="M 391.360625 288.21825 
L 391.360625 22.10625 
" style="fill: none; stroke: #000000; stroke-width: 0.8; stroke-linejoin: miter; stroke-linecap: square"/>
   </g>
   <g id="patch_5">
    <path d="M 34.240625 288.21825 
L 391.360625 288.21825 
" style="fill: none; stroke: #000000; stroke-width: 0.8; stroke-linejoin: miter; stroke-linecap: square"/>
   </g>
   <g id="patch_6">
    <path d="M 34.240625 22.10625 
L 391.360625 22.10625 
" style="fill: none; stroke: #000000; stroke-width: 0.8; stroke-linejoin: miter; stroke-linecap: square"/>
   </g>
   <g id="text_16">
    <!-- 7.1_cross_-45.0 -->
    <g transform="translate(166.181563 16.10625)scale(0.12 -0.12)">
     <defs>
      <path id="DejaVuSans-37" d="M 525 4666 
L 3525 4666 
L 3525 4397 
L 1831 0 
L 1172 0 
L 2766 4134 
L 525 4134 
L 525 4666 
z
" transform="scale(0.015625)"/>
      <path id="DejaVuSans-2e" d="M 684 794 
L 1344 794 
L 1344 0 
L 684 0 
L 684 794 
z
" transform="scale(0.015625)"/>
      <path id="DejaVuSans-5f" d="M 3263 -1063 
L 3263 -1509 
L -63 -1509 
L -63 -1063 
L 3263 -1063 
z
" transform="scale(0.015625)"/>
      <path id="DejaVuSans-63" d="M 3122 3366 
L 3122 2828 
Q 2878 2963 2633 3030 
Q 2388 3097 2138 3097 
Q 1578 3097 1268 2742 
Q 959 2388 959 1747 
Q 959 1106 1268 751 
Q 1578 397 2138 397 
Q 2388 397 2633 464 
Q 2878 531 3122 666 
L 3122 134 
Q 2881 22 2623 -34 
Q 2366 -91 2075 -91 
Q 1284 -91 818 406 
Q 353 903 353 1747 
Q 353 2603 823 3093 
Q 1294 3584 2113 3584 
Q 2378 3584 2631 3529 
Q 2884 3475 3122 3366 
z
" transform="scale(0.015625)"/>
      <path id="DejaVuSans-72" d="M 2631 2963 
Q 2534 3019 2420 3045 
Q 2306 3072 2169 3072 
Q 1681 3072 1420 2755 
Q 1159 2438 1159 1844 
L 1159 0 
L 581 0 
L 581 3500 
L 1159 3500 
L 1159 2956 
Q 1341 3275 1631 3429 
Q 1922 3584 2338 3584 
Q 2397 3584 2469 3576 
Q 2541 3569 2628 3553 
L 2631 2963 
z
" transform="scale(0.015625)"/>
      <path id="DejaVuSans-73" d="M 2834 3397 
L 2834 2853 
Q 2591 2978 2328 3040 
Q 2066 3103 1784 3103 
Q 1356 3103 1142 2972 
Q 928 2841 928 2578 
Q 928 2378 1081 2264 
Q 1234 2150 1697 2047 
L 1894 2003 
Q 2506 1872 2764 1633 
Q 3022 1394 3022 966 
Q 3022 478 2636 193 
Q 2250 -91 1575 -91 
Q 1294 -91 989 -36 
Q 684 19 347 128 
L 347 722 
Q 666 556 975 473 
Q 1284 391 1588 391 
Q 1994 391 2212 530 
Q 2431 669 2431 922 
Q 2431 1156 2273 1281 
Q 2116 1406 1581 1522 
L 1381 1569 
Q 847 1681 609 1914 
Q 372 2147 372 2553 
Q 372 3047 722 3315 
Q 1072 3584 1716 3584 
Q 2034 3584 2315 3537 
Q 2597 3491 2834 3397 
z
" transform="scale(0.015625)"/>
      <path id="DejaVuSans-2d" d="M 313 2009 
L 1997 2009 
L 1997 1497 
L 313 1497 
L 313 2009 
z
" transform="scale(0.015625)"/>
     </defs>
     <use xlink:href="#DejaVuSans-37"/>
     <use xlink:href="#DejaVuSans-2e" x="63.623047"/>
     <use xlink:href="#DejaVuSans-31" x="95.410156"/>
     <use xlink:href="#DejaVuSans-5f" x="159.033203"/>
     <use xlink:href="#DejaVuSans-63" x="209.033203"/>
     <use xlink:href="#DejaVuSans-72" x="264.013672"/>
     <use xlink:href="#DejaVuSans-6f" x="302.876953"/>
     <use xlink:href="#DejaVuSans-73" x="364.058594"/>
     <use xlink:href="#DejaVuSans-73" x="416.158203"/>
     <use xlink:href="#DejaVuSans-5f" x="468.257812"/>
     <use xlink:href="#DejaVuSans-2d" x="518.257812"/>
     <use xlink:href="#DejaVuSans-34" x="554.341797"/>
     <use xlink:href="#DejaVuSans-35" x="617.964844"/>
     <use xlink:href="#DejaVuSans-2e" x="681.587891"/>
     <use xlink:href="#DejaVuSans-30" x="713.375"/>
    </g>
   </g>
  </g>
 </g>
 <defs>
  <clipPath id="p5c368c4f17">
   <rect x="34.240625" y="22.10625" width="357.12" height="266.112"/>
  </clipPath>
 </defs>
</svg>
