<?xml version="1.0" encoding="utf-8" standalone="no"?>
<!DOCTYPE svg PUBLIC "-//W3C//DTD SVG 1.1//EN"
  "http://www.w3.org/Graphics/SVG/1.1/DTD/svg11.dtd">
<svg xmlns:xlink="http://www.w3.org/1999/xlink" width="408.104375pt" height="325.7745pt" viewBox="0 0 408.104375 325.7745" xmlns="http://www.w3.org/2000/svg" version="1.1">
 <metadata>
  <rdf:RDF xmlns:dc="http://purl.org/dc/elements/1.1/" xmlns:cc="http://creativecommons.org/ns#" xmlns:rdf="http://www.w3.org/1999/02/22-rdf-syntax-ns#">
   <cc:Work>
    <dc:type rdf:resource="http://purl.org/dc/dcmitype/StillImage"/>
    <dc:date>2024-07-12T12:31:38.633879</dc:date>
    <dc:format>image/svg+xml</dc:format>
    <dc:creator>
     <cc:Agent>
      <dc:title>Matplotlib v3.5.3, https://matplotlib.org/</dc:title>
     </cc:Agent>
    </dc:creator>
   </cc:Work>
  </rdf:RDF>
 </metadata>
 <defs>
  <style type="text/css">*{stroke-linejoin: round; stroke-linecap: butt}</style>
 </defs>
 <g id="figure_1">
  <g id="patch_1">
   <path d="M 0 325.7745 
L 408.104375 325.7745 
L 408.104375 0 
L 0 0 
z
" style="fill: #ffffff"/>
  </g>
  <g id="axes_1">
   <g id="patch_2">
    <path d="M 34.240625 288.21825 
L 391.360625 288.21825 
L 391.360625 22.10625 
L 34.240625 22.10625 
z
" style="fill: #ffffff"/>
   </g>
   <g id="matplotlib.axis_1">
    <g id="xtick_1">
     <g id="line2d_1">
      <defs>
       <path id="m8fc8128992" d="M 0 0 
L 0 3.5 
" style="stroke: #000000; stroke-width: 0.8"/>
      </defs>
      <g>
       <use xlink:href="#m8fc8128992" x="34.240625" y="288.21825" style="stroke: #000000; stroke-width: 0.8"/>
      </g>
     </g>
     <g id="text_1">
      <!-- 0 -->
      <g transform="translate(31.059375 302.816687)scale(0.1 -0.1)">
       <defs>
        <path id="DejaVuSans-30" d="M 2034 4250 
Q 1547 4250 1301 3770 
Q 1056 3291 1056 2328 
Q 1056 1369 1301 889 
Q 1547 409 2034 409 
Q 2525 409 2770 889 
Q 3016 1369 3016 2328 
Q 3016 3291 2770 3770 
Q 2525 4250 2034 4250 
z
M 2034 4750 
Q 2819 4750 3233 4129 
Q 3647 3509 3647 2328 
Q 3647 1150 3233 529 
Q 2819 -91 2034 -91 
Q 1250 -91 836 529 
Q 422 1150 422 2328 
Q 422 3509 836 4129 
Q 1250 4750 2034 4750 
z
" transform="scale(0.015625)"/>
       </defs>
       <use xlink:href="#DejaVuSans-30"/>
      </g>
     </g>
    </g>
    <g id="xtick_2">
     <g id="line2d_2">
      <g>
       <use xlink:href="#m8fc8128992" x="105.664625" y="288.21825" style="stroke: #000000; stroke-width: 0.8"/>
      </g>
     </g>
     <g id="text_2">
      <!-- 20 -->
      <g transform="translate(99.302125 302.816687)scale(0.1 -0.1)">
       <defs>
        <path id="DejaVuSans-32" d="M 1228 531 
L 3431 531 
L 3431 0 
L 469 0 
L 469 531 
Q 828 903 1448 1529 
Q 2069 2156 2228 2338 
Q 2531 2678 2651 2914 
Q 2772 3150 2772 3378 
Q 2772 3750 2511 3984 
Q 2250 4219 1831 4219 
Q 1534 4219 1204 4116 
Q 875 4013 500 3803 
L 500 4441 
Q 881 4594 1212 4672 
Q 1544 4750 1819 4750 
Q 2544 4750 2975 4387 
Q 3406 4025 3406 3419 
Q 3406 3131 3298 2873 
Q 3191 2616 2906 2266 
Q 2828 2175 2409 1742 
Q 1991 1309 1228 531 
z
" transform="scale(0.015625)"/>
       </defs>
       <use xlink:href="#DejaVuSans-32"/>
       <use xlink:href="#DejaVuSans-30" x="63.623047"/>
      </g>
     </g>
    </g>
    <g id="xtick_3">
     <g id="line2d_3">
      <g>
       <use xlink:href="#m8fc8128992" x="177.088625" y="288.21825" style="stroke: #000000; stroke-width: 0.8"/>
      </g>
     </g>
     <g id="text_3">
      <!-- 40 -->
      <g transform="translate(170.726125 302.816687)scale(0.1 -0.1)">
       <defs>
        <path id="DejaVuSans-34" d="M 2419 4116 
L 825 1625 
L 2419 1625 
L 2419 4116 
z
M 2253 4666 
L 3047 4666 
L 3047 1625 
L 3713 1625 
L 3713 1100 
L 3047 1100 
L 3047 0 
L 2419 0 
L 2419 1100 
L 313 1100 
L 313 1709 
L 2253 4666 
z
" transform="scale(0.015625)"/>
       </defs>
       <use xlink:href="#DejaVuSans-34"/>
       <use xlink:href="#DejaVuSans-30" x="63.623047"/>
      </g>
     </g>
    </g>
    <g id="xtick_4">
     <g id="line2d_4">
      <g>
       <use xlink:href="#m8fc8128992" x="248.512625" y="288.21825" style="stroke: #000000; stroke-width: 0.8"/>
      </g>
     </g>
     <g id="text_4">
      <!-- 60 -->
      <g transform="translate(242.150125 302.816687)scale(0.1 -0.1)">
       <defs>
        <path id="DejaVuSans-36" d="M 2113 2584 
Q 1688 2584 1439 2293 
Q 1191 2003 1191 1497 
Q 1191 994 1439 701 
Q 1688 409 2113 409 
Q 2538 409 2786 701 
Q 3034 994 3034 1497 
Q 3034 2003 2786 2293 
Q 2538 2584 2113 2584 
z
M 3366 4563 
L 3366 3988 
Q 3128 4100 2886 4159 
Q 2644 4219 2406 4219 
Q 1781 4219 1451 3797 
Q 1122 3375 1075 2522 
Q 1259 2794 1537 2939 
Q 1816 3084 2150 3084 
Q 2853 3084 3261 2657 
Q 3669 2231 3669 1497 
Q 3669 778 3244 343 
Q 2819 -91 2113 -91 
Q 1303 -91 875 529 
Q 447 1150 447 2328 
Q 447 3434 972 4092 
Q 1497 4750 2381 4750 
Q 2619 4750 2861 4703 
Q 3103 4656 3366 4563 
z
" transform="scale(0.015625)"/>
       </defs>
       <use xlink:href="#DejaVuSans-36"/>
       <use xlink:href="#DejaVuSans-30" x="63.623047"/>
      </g>
     </g>
    </g>
    <g id="xtick_5">
     <g id="line2d_5">
      <g>
       <use xlink:href="#m8fc8128992" x="319.936625" y="288.21825" style="stroke: #000000; stroke-width: 0.8"/>
      </g>
     </g>
     <g id="text_5">
      <!-- 80 -->
      <g transform="translate(313.574125 302.816687)scale(0.1 -0.1)">
       <defs>
        <path id="DejaVuSans-38" d="M 2034 2216 
Q 1584 2216 1326 1975 
Q 1069 1734 1069 1313 
Q 1069 891 1326 650 
Q 1584 409 2034 409 
Q 2484 409 2743 651 
Q 3003 894 3003 1313 
Q 3003 1734 2745 1975 
Q 2488 2216 2034 2216 
z
M 1403 2484 
Q 997 2584 770 2862 
Q 544 3141 544 3541 
Q 544 4100 942 4425 
Q 1341 4750 2034 4750 
Q 2731 4750 3128 4425 
Q 3525 4100 3525 3541 
Q 3525 3141 3298 2862 
Q 3072 2584 2669 2484 
Q 3125 2378 3379 2068 
Q 3634 1759 3634 1313 
Q 3634 634 3220 271 
Q 2806 -91 2034 -91 
Q 1263 -91 848 271 
Q 434 634 434 1313 
Q 434 1759 690 2068 
Q 947 2378 1403 2484 
z
M 1172 3481 
Q 1172 3119 1398 2916 
Q 1625 2713 2034 2713 
Q 2441 2713 2670 2916 
Q 2900 3119 2900 3481 
Q 2900 3844 2670 4047 
Q 2441 4250 2034 4250 
Q 1625 4250 1398 4047 
Q 1172 3844 1172 3481 
z
" transform="scale(0.015625)"/>
       </defs>
       <use xlink:href="#DejaVuSans-38"/>
       <use xlink:href="#DejaVuSans-30" x="63.623047"/>
      </g>
     </g>
    </g>
    <g id="xtick_6">
     <g id="line2d_6">
      <g>
       <use xlink:href="#m8fc8128992" x="391.360625" y="288.21825" style="stroke: #000000; stroke-width: 0.8"/>
      </g>
     </g>
     <g id="text_6">
      <!-- 100 -->
      <g transform="translate(381.816875 302.816687)scale(0.1 -0.1)">
       <defs>
        <path id="DejaVuSans-31" d="M 794 531 
L 1825 531 
L 1825 4091 
L 703 3866 
L 703 4441 
L 1819 4666 
L 2450 4666 
L 2450 531 
L 3481 531 
L 3481 0 
L 794 0 
L 794 531 
z
" transform="scale(0.015625)"/>
       </defs>
       <use xlink:href="#DejaVuSans-31"/>
       <use xlink:href="#DejaVuSans-30" x="63.623047"/>
       <use xlink:href="#DejaVuSans-30" x="127.246094"/>
      </g>
     </g>
    </g>
    <g id="text_7">
     <!-- axialRotation -->
     <g transform="translate(180.024844 316.494812)scale(0.1 -0.1)">
      <defs>
       <path id="DejaVuSans-61" d="M 2194 1759 
Q 1497 1759 1228 1600 
Q 959 1441 959 1056 
Q 959 750 1161 570 
Q 1363 391 1709 391 
Q 2188 391 2477 730 
Q 2766 1069 2766 1631 
L 2766 1759 
L 2194 1759 
z
M 3341 1997 
L 3341 0 
L 2766 0 
L 2766 531 
Q 2569 213 2275 61 
Q 1981 -91 1556 -91 
Q 1019 -91 701 211 
Q 384 513 384 1019 
Q 384 1609 779 1909 
Q 1175 2209 1959 2209 
L 2766 2209 
L 2766 2266 
Q 2766 2663 2505 2880 
Q 2244 3097 1772 3097 
Q 1472 3097 1187 3025 
Q 903 2953 641 2809 
L 641 3341 
Q 956 3463 1253 3523 
Q 1550 3584 1831 3584 
Q 2591 3584 2966 3190 
Q 3341 2797 3341 1997 
z
" transform="scale(0.015625)"/>
       <path id="DejaVuSans-78" d="M 3513 3500 
L 2247 1797 
L 3578 0 
L 2900 0 
L 1881 1375 
L 863 0 
L 184 0 
L 1544 1831 
L 300 3500 
L 978 3500 
L 1906 2253 
L 2834 3500 
L 3513 3500 
z
" transform="scale(0.015625)"/>
       <path id="DejaVuSans-69" d="M 603 3500 
L 1178 3500 
L 1178 0 
L 603 0 
L 603 3500 
z
M 603 4863 
L 1178 4863 
L 1178 4134 
L 603 4134 
L 603 4863 
z
" transform="scale(0.015625)"/>
       <path id="DejaVuSans-6c" d="M 603 4863 
L 1178 4863 
L 1178 0 
L 603 0 
L 603 4863 
z
" transform="scale(0.015625)"/>
       <path id="DejaVuSans-52" d="M 2841 2188 
Q 3044 2119 3236 1894 
Q 3428 1669 3622 1275 
L 4263 0 
L 3584 0 
L 2988 1197 
Q 2756 1666 2539 1819 
Q 2322 1972 1947 1972 
L 1259 1972 
L 1259 0 
L 628 0 
L 628 4666 
L 2053 4666 
Q 2853 4666 3247 4331 
Q 3641 3997 3641 3322 
Q 3641 2881 3436 2590 
Q 3231 2300 2841 2188 
z
M 1259 4147 
L 1259 2491 
L 2053 2491 
Q 2509 2491 2742 2702 
Q 2975 2913 2975 3322 
Q 2975 3731 2742 3939 
Q 2509 4147 2053 4147 
L 1259 4147 
z
" transform="scale(0.015625)"/>
       <path id="DejaVuSans-6f" d="M 1959 3097 
Q 1497 3097 1228 2736 
Q 959 2375 959 1747 
Q 959 1119 1226 758 
Q 1494 397 1959 397 
Q 2419 397 2687 759 
Q 2956 1122 2956 1747 
Q 2956 2369 2687 2733 
Q 2419 3097 1959 3097 
z
M 1959 3584 
Q 2709 3584 3137 3096 
Q 3566 2609 3566 1747 
Q 3566 888 3137 398 
Q 2709 -91 1959 -91 
Q 1206 -91 779 398 
Q 353 888 353 1747 
Q 353 2609 779 3096 
Q 1206 3584 1959 3584 
z
" transform="scale(0.015625)"/>
       <path id="DejaVuSans-74" d="M 1172 4494 
L 1172 3500 
L 2356 3500 
L 2356 3053 
L 1172 3053 
L 1172 1153 
Q 1172 725 1289 603 
Q 1406 481 1766 481 
L 2356 481 
L 2356 0 
L 1766 0 
Q 1100 0 847 248 
Q 594 497 594 1153 
L 594 3053 
L 172 3053 
L 172 3500 
L 594 3500 
L 594 4494 
L 1172 4494 
z
" transform="scale(0.015625)"/>
       <path id="DejaVuSans-6e" d="M 3513 2113 
L 3513 0 
L 2938 0 
L 2938 2094 
Q 2938 2591 2744 2837 
Q 2550 3084 2163 3084 
Q 1697 3084 1428 2787 
Q 1159 2491 1159 1978 
L 1159 0 
L 581 0 
L 581 3500 
L 1159 3500 
L 1159 2956 
Q 1366 3272 1645 3428 
Q 1925 3584 2291 3584 
Q 2894 3584 3203 3211 
Q 3513 2838 3513 2113 
z
" transform="scale(0.015625)"/>
      </defs>
      <use xlink:href="#DejaVuSans-61"/>
      <use xlink:href="#DejaVuSans-78" x="61.279297"/>
      <use xlink:href="#DejaVuSans-69" x="120.458984"/>
      <use xlink:href="#DejaVuSans-61" x="148.242188"/>
      <use xlink:href="#DejaVuSans-6c" x="209.521484"/>
      <use xlink:href="#DejaVuSans-52" x="237.304688"/>
      <use xlink:href="#DejaVuSans-6f" x="302.287109"/>
      <use xlink:href="#DejaVuSans-74" x="363.46875"/>
      <use xlink:href="#DejaVuSans-61" x="402.677734"/>
      <use xlink:href="#DejaVuSans-74" x="463.957031"/>
      <use xlink:href="#DejaVuSans-69" x="503.166016"/>
      <use xlink:href="#DejaVuSans-6f" x="530.949219"/>
      <use xlink:href="#DejaVuSans-6e" x="592.130859"/>
     </g>
    </g>
   </g>
   <g id="matplotlib.axis_2">
    <g id="ytick_1">
     <g id="line2d_7">
      <defs>
       <path id="m35c722db26" d="M 0 0 
L -3.5 0 
" style="stroke: #000000; stroke-width: 0.8"/>
      </defs>
      <g>
       <use xlink:href="#m35c722db26" x="34.240625" y="288.21825" style="stroke: #000000; stroke-width: 0.8"/>
      </g>
     </g>
     <g id="text_8">
      <!-- 0 -->
      <g transform="translate(20.878125 292.017469)scale(0.1 -0.1)">
       <use xlink:href="#DejaVuSans-30"/>
      </g>
     </g>
    </g>
    <g id="ytick_2">
     <g id="line2d_8">
      <g>
       <use xlink:href="#m35c722db26" x="34.240625" y="243.86625" style="stroke: #000000; stroke-width: 0.8"/>
      </g>
     </g>
     <g id="text_9">
      <!-- 1 -->
      <g transform="translate(20.878125 247.665469)scale(0.1 -0.1)">
       <use xlink:href="#DejaVuSans-31"/>
      </g>
     </g>
    </g>
    <g id="ytick_3">
     <g id="line2d_9">
      <g>
       <use xlink:href="#m35c722db26" x="34.240625" y="199.51425" style="stroke: #000000; stroke-width: 0.8"/>
      </g>
     </g>
     <g id="text_10">
      <!-- 2 -->
      <g transform="translate(20.878125 203.313469)scale(0.1 -0.1)">
       <use xlink:href="#DejaVuSans-32"/>
      </g>
     </g>
    </g>
    <g id="ytick_4">
     <g id="line2d_10">
      <g>
       <use xlink:href="#m35c722db26" x="34.240625" y="155.16225" style="stroke: #000000; stroke-width: 0.8"/>
      </g>
     </g>
     <g id="text_11">
      <!-- 3 -->
      <g transform="translate(20.878125 158.961469)scale(0.1 -0.1)">
       <defs>
        <path id="DejaVuSans-33" d="M 2597 2516 
Q 3050 2419 3304 2112 
Q 3559 1806 3559 1356 
Q 3559 666 3084 287 
Q 2609 -91 1734 -91 
Q 1441 -91 1130 -33 
Q 819 25 488 141 
L 488 750 
Q 750 597 1062 519 
Q 1375 441 1716 441 
Q 2309 441 2620 675 
Q 2931 909 2931 1356 
Q 2931 1769 2642 2001 
Q 2353 2234 1838 2234 
L 1294 2234 
L 1294 2753 
L 1863 2753 
Q 2328 2753 2575 2939 
Q 2822 3125 2822 3475 
Q 2822 3834 2567 4026 
Q 2313 4219 1838 4219 
Q 1578 4219 1281 4162 
Q 984 4106 628 3988 
L 628 4550 
Q 988 4650 1302 4700 
Q 1616 4750 1894 4750 
Q 2613 4750 3031 4423 
Q 3450 4097 3450 3541 
Q 3450 3153 3228 2886 
Q 3006 2619 2597 2516 
z
" transform="scale(0.015625)"/>
       </defs>
       <use xlink:href="#DejaVuSans-33"/>
      </g>
     </g>
    </g>
    <g id="ytick_5">
     <g id="line2d_11">
      <g>
       <use xlink:href="#m35c722db26" x="34.240625" y="110.81025" style="stroke: #000000; stroke-width: 0.8"/>
      </g>
     </g>
     <g id="text_12">
      <!-- 4 -->
      <g transform="translate(20.878125 114.609469)scale(0.1 -0.1)">
       <use xlink:href="#DejaVuSans-34"/>
      </g>
     </g>
    </g>
    <g id="ytick_6">
     <g id="line2d_12">
      <g>
       <use xlink:href="#m35c722db26" x="34.240625" y="66.45825" style="stroke: #000000; stroke-width: 0.8"/>
      </g>
     </g>
     <g id="text_13">
      <!-- 5 -->
      <g transform="translate(20.878125 70.257469)scale(0.1 -0.1)">
       <defs>
        <path id="DejaVuSans-35" d="M 691 4666 
L 3169 4666 
L 3169 4134 
L 1269 4134 
L 1269 2991 
Q 1406 3038 1543 3061 
Q 1681 3084 1819 3084 
Q 2600 3084 3056 2656 
Q 3513 2228 3513 1497 
Q 3513 744 3044 326 
Q 2575 -91 1722 -91 
Q 1428 -91 1123 -41 
Q 819 9 494 109 
L 494 744 
Q 775 591 1075 516 
Q 1375 441 1709 441 
Q 2250 441 2565 725 
Q 2881 1009 2881 1497 
Q 2881 1984 2565 2268 
Q 2250 2553 1709 2553 
Q 1456 2553 1204 2497 
Q 953 2441 691 2322 
L 691 4666 
z
" transform="scale(0.015625)"/>
       </defs>
       <use xlink:href="#DejaVuSans-35"/>
      </g>
     </g>
    </g>
    <g id="ytick_7">
     <g id="line2d_13">
      <g>
       <use xlink:href="#m35c722db26" x="34.240625" y="22.10625" style="stroke: #000000; stroke-width: 0.8"/>
      </g>
     </g>
     <g id="text_14">
      <!-- 6 -->
      <g transform="translate(20.878125 25.905469)scale(0.1 -0.1)">
       <use xlink:href="#DejaVuSans-36"/>
      </g>
     </g>
    </g>
    <g id="text_15">
     <!-- zShift -->
     <g transform="translate(14.798438 169.151312)rotate(-90)scale(0.1 -0.1)">
      <defs>
       <path id="DejaVuSans-7a" d="M 353 3500 
L 3084 3500 
L 3084 2975 
L 922 459 
L 3084 459 
L 3084 0 
L 275 0 
L 275 525 
L 2438 3041 
L 353 3041 
L 353 3500 
z
" transform="scale(0.015625)"/>
       <path id="DejaVuSans-53" d="M 3425 4513 
L 3425 3897 
Q 3066 4069 2747 4153 
Q 2428 4238 2131 4238 
Q 1616 4238 1336 4038 
Q 1056 3838 1056 3469 
Q 1056 3159 1242 3001 
Q 1428 2844 1947 2747 
L 2328 2669 
Q 3034 2534 3370 2195 
Q 3706 1856 3706 1288 
Q 3706 609 3251 259 
Q 2797 -91 1919 -91 
Q 1588 -91 1214 -16 
Q 841 59 441 206 
L 441 856 
Q 825 641 1194 531 
Q 1563 422 1919 422 
Q 2459 422 2753 634 
Q 3047 847 3047 1241 
Q 3047 1584 2836 1778 
Q 2625 1972 2144 2069 
L 1759 2144 
Q 1053 2284 737 2584 
Q 422 2884 422 3419 
Q 422 4038 858 4394 
Q 1294 4750 2059 4750 
Q 2388 4750 2728 4690 
Q 3069 4631 3425 4513 
z
" transform="scale(0.015625)"/>
       <path id="DejaVuSans-68" d="M 3513 2113 
L 3513 0 
L 2938 0 
L 2938 2094 
Q 2938 2591 2744 2837 
Q 2550 3084 2163 3084 
Q 1697 3084 1428 2787 
Q 1159 2491 1159 1978 
L 1159 0 
L 581 0 
L 581 4863 
L 1159 4863 
L 1159 2956 
Q 1366 3272 1645 3428 
Q 1925 3584 2291 3584 
Q 2894 3584 3203 3211 
Q 3513 2838 3513 2113 
z
" transform="scale(0.015625)"/>
       <path id="DejaVuSans-66" d="M 2375 4863 
L 2375 4384 
L 1825 4384 
Q 1516 4384 1395 4259 
Q 1275 4134 1275 3809 
L 1275 3500 
L 2222 3500 
L 2222 3053 
L 1275 3053 
L 1275 0 
L 697 0 
L 697 3053 
L 147 3053 
L 147 3500 
L 697 3500 
L 697 3744 
Q 697 4328 969 4595 
Q 1241 4863 1831 4863 
L 2375 4863 
z
" transform="scale(0.015625)"/>
      </defs>
      <use xlink:href="#DejaVuSans-7a"/>
      <use xlink:href="#DejaVuSans-53" x="52.490234"/>
      <use xlink:href="#DejaVuSans-68" x="115.966797"/>
      <use xlink:href="#DejaVuSans-69" x="179.345703"/>
      <use xlink:href="#DejaVuSans-66" x="207.128906"/>
      <use xlink:href="#DejaVuSans-74" x="240.583984"/>
     </g>
    </g>
   </g>
   <g id="PathCollection_1"/>
   <g id="PathCollection_2">
    <path d="M 34.240625 66.823571 
L 36.026225 66.472782 
L 37.847537 66.225299 
L 39.633137 66.081221 
L 41.418737 66.028398 
L 43.204337 66.063319 
L 45.025649 66.188267 
L 46.811249 66.399651 
L 48.596849 66.70256 
L 50.382449 67.102634 
L 52.203761 67.618829 
L 52.708585 67.78881 
L 53.989361 68.176453 
L 55.774961 68.813973 
L 57.560561 69.563705 
L 59.376766 70.44993 
L 59.381873 70.452245 
L 61.167473 71.316874 
L 62.953073 72.280358 
L 64.381393 73.11105 
L 64.738673 73.305794 
L 66.559985 74.297957 
L 68.345585 75.285782 
L 69.277625 75.77217 
L 70.131185 76.182474 
L 71.916785 76.931678 
L 73.738097 77.552465 
L 75.523697 77.967018 
L 77.309297 78.142414 
L 79.094897 78.045126 
L 80.916209 77.649761 
L 82.701809 76.978175 
L 84.487409 76.050334 
L 84.913632 75.77217 
L 86.273009 74.779127 
L 88.094321 73.258912 
L 88.251872 73.11105 
L 89.879921 71.44084 
L 90.784633 70.44993 
L 91.665521 69.393322 
L 92.928177 67.78881 
L 93.451121 67.051041 
L 94.729168 65.12769 
L 95.272433 64.19851 
L 96.209926 62.46657 
L 97.058033 60.624636 
L 97.403209 59.80545 
L 98.311643 57.14433 
L 98.843633 55.17021 
L 99.010093 54.48321 
L 99.4954 51.82209 
L 99.853717 49.16097 
L 100.115645 46.49985 
L 100.339513 43.39521 
L 100.493238 40.73409 
L 100.629233 38.241139 
L 100.637456 38.07297 
L 100.779873 35.41185 
L 100.956424 32.75073 
L 101.189241 30.08961 
L 101.503689 27.42849 
L 101.930499 24.76737 
L 102.450545 22.359464 
L 102.502867 22.10625 
" clip-path="url(#p6d8fce6dc5)" style="fill: none; stroke: #dbe9f6; stroke-width: 1.5"/>
    <path d="M 103.639931 288.21825 
L 102.918898 285.55713 
L 102.450545 283.153393 
L 102.397287 282.89601 
L 102.010906 280.23489 
L 101.786478 277.57377 
L 101.708409 274.91265 
L 101.770973 272.25153 
L 101.977619 269.59041 
L 102.340774 266.92929 
L 102.450545 266.379924 
L 102.936472 263.82465 
L 103.643328 261.16353 
L 104.236145 259.428051 
L 104.546042 258.50241 
L 105.633939 255.84129 
L 106.021745 255.030183 
L 106.90833 253.18017 
L 107.807345 251.523524 
L 108.355313 250.51905 
L 109.628657 248.34339 
L 109.912324 247.85793 
L 111.414257 245.322001 
L 111.487137 245.19681 
L 112.961077 242.53569 
L 113.199857 242.068601 
L 114.257698 239.87457 
L 114.985457 238.157634 
L 115.354881 237.21345 
L 116.212513 234.55233 
L 116.806769 232.243438 
L 116.888456 231.89121 
L 117.35185 229.23009 
L 117.689001 226.56897 
L 117.924992 223.90785 
L 118.104564 220.80321 
L 118.199877 218.14209 
L 118.257836 215.48097 
L 118.289626 212.81985 
L 118.302592 210.15873 
L 118.301105 207.49761 
L 118.287318 204.83649 
L 118.261631 202.17537 
L 118.222783 199.51425 
L 118.167661 196.85313 
L 118.090918 194.19201 
L 117.984504 191.53089 
L 117.83707 188.86977 
L 117.633089 186.20865 
L 117.351429 183.54753 
L 116.963052 180.88641 
L 116.806769 180.089193 
L 116.338871 178.22529 
L 115.210943 175.12065 
L 114.985457 174.672007 
L 113.302089 172.45953 
L 113.199857 172.359624 
L 111.414257 171.401174 
L 109.628657 171.166589 
L 107.807345 171.488122 
L 106.021745 172.202447 
L 105.584432 172.45953 
L 104.236145 173.292221 
L 102.450545 174.605724 
L 101.839294 175.12065 
L 100.629233 176.18851 
L 98.843633 177.857221 
L 98.475707 178.22529 
L 97.058033 179.709616 
L 95.967007 180.88641 
L 95.272433 181.661858 
L 93.621185 183.54753 
L 93.451121 183.74705 
L 91.665521 185.896858 
L 91.409623 186.20865 
L 89.879921 188.101144 
L 89.255284 188.86977 
L 88.094321 190.309792 
L 87.096646 191.53089 
L 86.273009 192.542885 
L 84.90476 194.19201 
L 84.487409 194.699745 
L 82.701809 196.827585 
L 82.680355 196.85313 
L 80.916209 198.992013 
L 80.478452 199.51425 
L 79.094897 201.205097 
L 78.291519 202.17537 
L 77.309297 203.396779 
L 76.139319 204.83649 
L 75.523697 205.614651 
L 74.015871 207.49761 
L 73.738097 207.851463 
L 71.916785 210.135279 
L 71.897976 210.15873 
L 70.131185 212.379222 
L 69.770705 212.81985 
L 68.345585 214.570141 
L 67.577304 215.48097 
L 66.559985 216.695982 
L 65.299961 218.14209 
L 64.738673 218.79461 
L 62.953073 220.785162 
L 62.936576 220.80321 
L 61.167473 222.803552 
L 60.124171 223.90785 
L 59.381873 224.724503 
L 57.609651 226.56897 
L 57.560561 226.62148 
L 55.774961 228.464466 
L 54.972066 229.23009 
L 53.989361 230.18692 
L 52.203761 231.756056 
L 52.036437 231.89121 
L 50.382449 233.245575 
L 48.596849 234.483368 
L 48.483667 234.55233 
L 46.811249 235.594145 
L 45.025649 236.493455 
L 43.204337 237.209387 
L 43.190926 237.21345 
L 41.418737 237.779934 
L 39.633137 238.167373 
L 37.847537 238.382533 
L 36.026225 238.430672 
L 34.240625 238.310589 
" clip-path="url(#p6d8fce6dc5)" style="fill: none; stroke: #dbe9f6; stroke-width: 1.5"/>
    <path d="M 322.058279 22.10625 
L 323.150705 26.269836 
L 323.420223 27.42849 
L 323.89685 30.08961 
L 324.501773 35.41185 
L 324.797714 40.73409 
L 324.895065 46.49985 
L 324.818927 51.82209 
L 324.558484 57.14433 
L 324.029914 62.46657 
L 323.150705 67.537008 
L 322.508663 70.44993 
L 320.974427 75.77217 
L 319.310084 81.09441 
L 318.64027 83.75553 
L 318.192973 86.41665 
L 318.093331 89.52129 
L 318.430795 92.18241 
L 319.140749 94.84353 
L 320.207573 97.50465 
L 321.55128 100.16577 
L 323.150705 102.863624 
L 326.757617 108.198958 
L 332.32484 116.13249 
L 334.0245 118.79361 
L 335.721329 121.725141 
L 337.506929 125.303597 
L 338.177386 126.77697 
L 339.328241 129.88763 
L 340.057243 132.09921 
L 341.113841 136.541444 
L 341.393014 137.86497 
L 342.157143 143.18721 
L 342.573865 148.50945 
L 342.841759 156.49281 
L 342.933406 169.79841 
L 342.899441 219.144247 
L 342.792179 226.56897 
L 342.589034 231.89121 
L 342.179507 237.21345 
L 341.853465 239.87457 
L 341.113841 243.939004 
L 340.858729 245.19681 
L 340.170393 247.85793 
L 339.284178 250.51905 
L 338.255014 253.18017 
L 337.015353 255.84129 
L 334.062212 261.16353 
L 330.328817 267.602762 
L 328.543217 271.245889 
L 328.106382 272.25153 
L 326.757617 275.912013 
L 325.508665 280.23489 
L 323.417764 288.21825 
L 323.417764 288.21825 
" clip-path="url(#p6d8fce6dc5)" style="fill: none; stroke: #dbe9f6; stroke-width: 1.5"/>
   </g>
   <g id="PathCollection_3">
    <path d="M 34.240625 76.043035 
L 35.046124 75.77217 
L 36.026225 75.449438 
L 37.847537 75.009346 
L 39.633137 74.728281 
L 41.418737 74.583541 
L 43.204337 74.566653 
L 45.025649 74.675882 
L 46.811249 74.904763 
L 48.596849 75.254609 
L 50.382449 75.727958 
L 50.516881 75.77217 
L 52.203761 76.310441 
L 53.989361 76.99893 
L 55.774961 77.8083 
L 56.987759 78.43329 
L 57.560561 78.724395 
L 59.381873 79.733114 
L 61.167473 80.812986 
L 61.615428 81.09441 
L 62.953073 81.91645 
L 64.738673 83.033129 
L 65.906964 83.75553 
L 66.559985 84.144681 
L 68.345585 85.141105 
L 70.131185 86.053346 
L 70.95308 86.41665 
L 71.916785 86.814 
L 73.738097 87.413113 
L 75.523697 87.835525 
L 77.309297 88.078247 
L 79.094897 88.127998 
L 80.916209 87.969658 
L 82.701809 87.60301 
L 84.487409 87.024338 
L 85.864865 86.41665 
L 86.273009 86.216525 
L 88.094321 85.109024 
L 89.879921 83.827034 
L 89.967774 83.75553 
L 91.665521 82.271421 
L 92.90364 81.09441 
L 93.451121 80.542218 
L 95.272433 78.599145 
L 95.420579 78.43329 
L 97.058033 76.511849 
L 97.668176 75.77217 
L 98.843633 74.265057 
L 99.714121 73.11105 
L 100.629233 71.801122 
L 101.534372 70.44993 
L 102.450545 68.927874 
L 103.101293 67.78881 
L 104.236145 65.49364 
L 104.406668 65.12769 
L 105.440085 62.46657 
L 106.021745 60.60737 
L 106.256737 59.80545 
L 106.865171 57.14433 
L 107.32463 54.48321 
L 107.664729 51.82209 
L 107.807345 50.306913 
L 107.909058 49.16097 
L 108.087101 46.49985 
L 108.254408 43.39521 
L 108.390074 40.73409 
L 108.542444 38.07297 
L 108.734575 35.41185 
L 108.991726 32.75073 
L 109.343388 30.08961 
L 109.628657 28.492584 
L 109.817876 27.42849 
L 110.45095 24.76737 
L 111.311289 22.10625 
" clip-path="url(#p6d8fce6dc5)" style="fill: none; stroke: #bad6eb; stroke-width: 1.5"/>
    <path d="M 112.509287 288.21825 
L 111.414257 285.219105 
L 110.775248 282.89601 
L 110.285346 280.23489 
L 110.00801 277.57377 
L 109.923359 274.91265 
L 110.023264 272.25153 
L 110.309849 269.59041 
L 110.794131 266.92929 
L 111.625382 263.82465 
L 112.56512 261.16353 
L 113.729795 258.50241 
L 115.098461 255.84129 
L 121.135263 245.19681 
L 122.354345 242.53569 
L 123.341806 239.87457 
L 124.136096 237.21345 
L 124.728018 234.55233 
L 125.17395 231.89121 
L 125.72899 226.56897 
L 125.991985 220.80321 
L 126.123931 210.15873 
L 126.063753 191.53089 
L 125.89652 183.54753 
L 125.615098 178.22529 
L 125.323598 175.12065 
L 124.961856 172.45953 
L 124.456447 169.79841 
L 123.731979 167.13729 
L 122.664425 164.47617 
L 122.163569 163.528999 
L 121.06424 161.81505 
L 120.377969 160.976472 
L 118.407498 159.15393 
L 116.806769 158.238749 
L 114.985457 157.577405 
L 113.199857 157.274212 
L 111.414257 157.286246 
L 109.628657 157.589292 
L 107.807345 158.174174 
L 105.751032 159.15393 
L 104.236145 160.114533 
L 101.996553 161.81505 
L 98.843633 164.700869 
L 95.272433 168.43671 
L 91.665213 172.45953 
L 86.273009 178.987992 
L 76.189838 191.53089 
L 66.559985 203.31248 
L 61.167473 209.799382 
L 57.560561 213.762013 
L 53.143418 218.14209 
L 50.382449 220.634124 
L 46.811249 223.412978 
L 45.025649 224.553799 
L 43.204337 225.515362 
L 41.418737 226.239834 
L 39.633137 226.742484 
L 37.847537 227.009943 
L 36.026225 227.029045 
L 34.240625 226.786694 
L 34.240625 226.786694 
" clip-path="url(#p6d8fce6dc5)" style="fill: none; stroke: #bad6eb; stroke-width: 1.5"/>
    <path d="M 313.2366 22.10625 
L 314.301796 24.76737 
L 315.12713 27.42849 
L 315.972593 31.417674 
L 316.206511 32.75073 
L 316.785609 38.07297 
L 317.029646 43.39521 
L 317.026527 49.16097 
L 316.783529 54.48321 
L 316.234548 59.80545 
L 315.273841 65.12769 
L 314.186993 69.121946 
L 313.779024 70.44993 
L 311.825792 75.77217 
L 309.867525 81.09441 
L 309.128907 83.75553 
L 308.679869 86.41665 
L 308.607985 89.52129 
L 308.953553 92.18241 
L 309.67307 94.84353 
L 310.709888 97.50465 
L 312.401393 100.790605 
L 314.186993 103.757875 
L 317.127455 108.14913 
L 324.972017 119.173152 
L 326.757617 121.935739 
L 328.543217 125.016783 
L 329.47279 126.77697 
L 330.687029 129.43809 
L 332.150129 133.509691 
L 332.67706 135.20385 
L 333.327332 137.86497 
L 334.222527 143.18721 
L 334.732527 148.50945 
L 334.989154 153.83169 
L 335.131151 161.81505 
L 335.170942 186.20865 
L 335.095972 220.80321 
L 334.832413 229.23009 
L 334.409052 234.55233 
L 333.622803 239.87457 
L 333.04112 242.53569 
L 332.150129 245.587117 
L 331.355405 247.85793 
L 330.213117 250.51905 
L 328.543217 253.796173 
L 325.803829 258.50241 
L 322.724957 263.82465 
L 321.192584 266.92929 
L 319.579505 271.018963 
L 318.362716 274.91265 
L 315.452255 285.55713 
L 314.483149 288.21825 
L 314.483149 288.21825 
" clip-path="url(#p6d8fce6dc5)" style="fill: none; stroke: #bad6eb; stroke-width: 1.5"/>
   </g>
   <g id="PathCollection_4">
    <path d="M 34.240625 84.660417 
L 35.670176 83.75553 
L 36.026225 83.558092 
L 37.847537 82.781642 
L 39.633137 82.257229 
L 41.418737 81.942027 
L 43.204337 81.81682 
L 45.025649 81.869634 
L 46.811249 82.086998 
L 48.596849 82.459541 
L 50.382449 82.980197 
L 52.203761 83.657374 
L 52.425001 83.75553 
L 53.989361 84.467852 
L 55.774961 85.392841 
L 57.560561 86.415677 
L 57.562153 86.41665 
L 59.381873 87.542616 
L 61.167473 88.678228 
L 62.486332 89.52129 
L 62.953073 89.817908 
L 64.738673 90.913984 
L 66.559985 91.960937 
L 66.980125 92.18241 
L 68.345585 92.883025 
L 70.131185 93.684511 
L 71.916785 94.359388 
L 73.517959 94.84353 
L 73.738097 94.908421 
L 75.523697 95.296101 
L 77.309297 95.539423 
L 79.094897 95.635492 
L 80.916209 95.577807 
L 82.701809 95.36352 
L 84.487409 94.986608 
L 84.962412 94.84353 
L 86.273009 94.42774 
L 88.094321 93.667256 
L 89.879921 92.732327 
L 90.763616 92.18241 
L 91.665521 91.584444 
L 93.451121 90.227374 
L 94.280241 89.52129 
L 95.272433 88.626728 
L 97.058033 86.876145 
L 97.497999 86.41665 
L 98.843633 84.960042 
L 99.909344 83.75553 
L 100.629233 82.918763 
L 102.152579 81.09441 
L 102.450545 80.726082 
L 104.236145 78.460076 
L 104.256745 78.43329 
L 106.021745 76.016406 
L 106.194504 75.77217 
L 107.807345 73.297659 
L 107.924349 73.11105 
L 109.410767 70.44993 
L 109.628657 69.9978 
L 110.645743 67.78881 
L 111.414257 65.764028 
L 111.6461 65.12769 
L 112.431168 62.46657 
L 113.03845 59.80545 
L 113.199857 58.882776 
L 113.496488 57.14433 
L 113.835984 54.48321 
L 114.086601 51.82209 
L 114.275146 49.16097 
L 114.426932 46.49985 
L 114.58995 43.39521 
L 114.745115 40.73409 
L 114.94096 38.07297 
L 114.985457 37.619714 
L 115.206333 35.41185 
L 115.573793 32.75073 
L 116.083713 30.08961 
L 116.787444 27.42849 
L 116.806769 27.372463 
L 117.772901 24.76737 
L 118.592369 23.103 
L 119.136448 22.10625 
" clip-path="url(#p6d8fce6dc5)" style="fill: none; stroke: #89bedc; stroke-width: 1.5"/>
    <path d="M 120.402146 288.21825 
L 120.377969 288.179071 
L 118.592369 284.769018 
L 117.877879 282.89601 
L 117.194616 280.23489 
L 116.806769 277.525946 
L 116.692288 274.91265 
L 116.824272 272.25153 
L 117.203479 269.59041 
L 117.829326 266.92929 
L 118.877545 263.82465 
L 120.377969 260.503454 
L 122.163569 257.200286 
L 126.035411 250.51905 
L 127.556081 247.51866 
L 128.57173 245.19681 
L 129.537355 242.53569 
L 130.303439 239.87457 
L 131.162993 235.662959 
L 131.347855 234.55233 
L 131.910953 229.23009 
L 132.183463 223.90785 
L 132.337517 215.48097 
L 132.360277 196.85313 
L 132.258444 183.54753 
L 132.099969 178.22529 
L 131.723578 172.45953 
L 131.162993 168.120051 
L 131.003352 167.13729 
L 130.414985 164.47617 
L 129.341681 161.110041 
L 128.51202 159.15393 
L 126.999343 156.49281 
L 124.848772 153.83169 
L 123.984881 153.008952 
L 121.516226 151.17057 
L 120.377969 150.533165 
L 118.592369 149.766408 
L 116.806769 149.224171 
L 114.985457 148.885807 
L 113.199857 148.753491 
L 111.414257 148.811848 
L 109.628657 149.057621 
L 107.807345 149.500983 
L 106.021745 150.126564 
L 103.831955 151.17057 
L 102.450545 151.989256 
L 99.909634 153.83169 
L 98.843633 154.722192 
L 96.925664 156.49281 
L 93.451121 160.116731 
L 88.094321 166.178111 
L 82.844647 172.45953 
L 67.380281 191.53089 
L 57.560561 203.206096 
L 53.989361 206.939602 
L 52.203761 208.615719 
L 50.382449 210.190463 
L 48.596849 211.586471 
L 46.811249 212.834555 
L 45.025649 213.902401 
L 43.204337 214.786444 
L 41.111849 215.48097 
L 39.633137 215.772456 
L 37.847537 215.804575 
L 36.026225 215.453707 
L 34.240625 214.616319 
L 34.240625 214.616319 
" clip-path="url(#p6d8fce6dc5)" style="fill: none; stroke: #89bedc; stroke-width: 1.5"/>
    <path d="M 305.412457 22.10625 
L 307.008881 24.804642 
L 308.147735 27.42849 
L 309.007145 30.08961 
L 309.630996 32.75073 
L 310.079517 35.41185 
L 310.593094 40.73409 
L 310.740104 46.49985 
L 310.568102 51.82209 
L 310.058603 57.14433 
L 309.641455 59.80545 
L 308.794481 63.60576 
L 308.386226 65.12769 
L 307.008881 69.155228 
L 305.223281 73.464183 
L 303.082487 78.43329 
L 302.125993 81.09441 
L 301.421054 83.75553 
L 301.031187 86.41665 
L 301.013192 89.52129 
L 301.379358 92.18241 
L 302.087437 94.84353 
L 303.437681 98.184665 
L 305.223281 101.604221 
L 307.008881 104.53937 
L 309.420459 108.14913 
L 315.972593 117.215866 
L 319.579505 122.366668 
L 321.365105 125.181972 
L 323.150705 128.369573 
L 323.701955 129.43809 
L 324.972017 132.317066 
L 326.018643 135.20385 
L 326.783265 137.86497 
L 327.381134 140.52609 
L 327.838233 143.18721 
L 328.429281 148.50945 
L 328.728217 153.83169 
L 328.891625 161.81505 
L 328.937834 183.54753 
L 328.832344 220.80321 
L 328.543217 228.116649 
L 328.238692 231.89121 
L 327.911906 234.55233 
L 327.468815 237.21345 
L 326.757617 240.318466 
L 326.117994 242.53569 
L 324.972017 245.634083 
L 323.150705 249.495476 
L 321.365105 252.697924 
L 315.972593 262.142483 
L 315.170971 263.82465 
L 313.902952 266.92929 
L 312.401393 271.573735 
L 311.483469 274.91265 
L 310.021191 280.23489 
L 308.794481 283.770775 
L 308.037966 285.55713 
L 306.595176 288.21825 
L 306.595176 288.21825 
" clip-path="url(#p6d8fce6dc5)" style="fill: none; stroke: #89bedc; stroke-width: 1.5"/>
   </g>
   <g id="PathCollection_5">
    <path d="M 34.240625 97.720622 
L 34.326527 97.50465 
L 35.755298 94.84353 
L 36.026225 94.460144 
L 37.847537 92.421099 
L 38.133536 92.18241 
L 39.633137 91.178821 
L 41.418737 90.375483 
L 43.204337 89.921239 
L 45.025649 89.77089 
L 46.811249 89.889976 
L 48.596849 90.236541 
L 50.382449 90.776804 
L 52.203761 91.494006 
L 53.671093 92.18241 
L 53.989361 92.339969 
L 55.774961 93.332575 
L 57.560561 94.373163 
L 58.341352 94.84353 
L 59.381873 95.485364 
L 61.167473 96.569056 
L 62.792156 97.50465 
L 62.953073 97.598675 
L 64.738673 98.587766 
L 66.559985 99.488039 
L 68.119779 100.16577 
L 68.345585 100.265734 
L 70.131185 100.958104 
L 71.916785 101.529428 
L 73.738097 101.991345 
L 75.523697 102.328822 
L 77.309297 102.554003 
L 79.094897 102.667411 
L 80.916209 102.666759 
L 82.701809 102.549004 
L 84.487409 102.310136 
L 86.273009 101.942691 
L 88.094321 101.424992 
L 89.879921 100.764136 
L 91.1856 100.16577 
L 91.665521 99.943066 
L 93.451121 98.966449 
L 95.272433 97.772088 
L 95.634263 97.50465 
L 97.058033 96.417789 
L 98.843633 94.861885 
L 98.863229 94.84353 
L 100.629233 93.137279 
L 101.54131 92.18241 
L 102.450545 91.206237 
L 103.939005 89.52129 
L 104.236145 89.180473 
L 106.021745 87.070433 
L 106.556899 86.41665 
L 107.807345 84.876312 
L 108.694488 83.75553 
L 109.628657 82.544588 
L 110.717288 81.09441 
L 111.414257 80.118915 
L 112.580576 78.43329 
L 113.199857 77.460336 
L 114.237508 75.77217 
L 114.985457 74.394544 
L 115.659977 73.11105 
L 116.806769 70.523284 
L 116.838494 70.44993 
L 117.809589 67.78881 
L 118.569859 65.12769 
L 118.592369 65.029094 
L 119.178755 62.46657 
L 119.641219 59.80545 
L 119.987528 57.14433 
L 120.245245 54.48321 
L 120.377969 52.673721 
L 120.44288 51.82209 
L 120.606387 49.16097 
L 120.754522 46.49985 
L 120.943177 43.39521 
L 121.151023 40.73409 
L 121.435537 38.07297 
L 121.835266 35.41185 
L 122.163569 33.844671 
L 122.414131 32.75073 
L 123.25532 30.08961 
L 123.984881 28.398061 
L 124.458704 27.42849 
L 125.770481 25.397749 
L 126.245053 24.76737 
L 127.556081 23.394011 
L 129.03432 22.10625 
" clip-path="url(#p6d8fce6dc5)" style="fill: none; stroke: #539ecd; stroke-width: 1.5"/>
    <path d="M 130.48343 288.21825 
L 129.341681 287.291447 
L 127.55192 285.55713 
L 125.747158 282.89601 
L 124.640374 280.23489 
L 123.984881 277.39184 
L 123.786 274.91265 
L 123.984881 271.855819 
L 124.391425 269.59041 
L 125.174159 266.92929 
L 126.452627 263.82465 
L 127.801219 261.16353 
L 132.948593 251.912987 
L 133.631968 250.51905 
L 134.754096 247.85793 
L 135.696099 245.19681 
L 136.519793 242.182992 
L 137.038624 239.87457 
L 137.494003 237.21345 
L 138.07567 231.89121 
L 138.365761 226.56897 
L 138.542959 218.14209 
L 138.585507 199.51425 
L 138.475541 180.88641 
L 138.289057 175.12065 
L 137.930156 169.79841 
L 137.631586 167.13729 
L 137.217453 164.47617 
L 136.519793 161.32925 
L 135.915624 159.15393 
L 134.734193 156.032125 
L 133.679774 153.83169 
L 132.026369 151.17057 
L 131.162993 150.043766 
L 129.341681 148.0109 
L 126.791414 145.84833 
L 125.770481 145.133261 
L 123.984881 144.085295 
L 122.06075 143.18721 
L 120.377969 142.551955 
L 118.592369 142.038777 
L 116.806769 141.673117 
L 114.985457 141.441546 
L 113.199857 141.34689 
L 111.414257 141.380762 
L 109.628657 141.544035 
L 107.807345 141.848193 
L 106.021745 142.288893 
L 103.499013 143.18721 
L 102.450545 143.624817 
L 100.629233 144.549252 
L 98.55319 145.84833 
L 97.058033 146.920254 
L 95.143291 148.50945 
L 92.363223 151.17057 
L 89.879921 153.837289 
L 84.487409 160.021484 
L 77.309297 168.616484 
L 66.559985 181.982375 
L 60.568287 188.86977 
L 55.774961 194.201838 
L 52.203761 197.7414 
L 50.115504 199.51425 
L 48.596849 200.61827 
L 46.811249 201.705548 
L 45.025649 202.513329 
L 43.204337 202.989993 
L 41.418737 203.071172 
L 39.633137 202.664893 
L 37.847537 201.568564 
L 36.026225 199.428002 
L 34.780367 196.85313 
L 34.240625 195.380557 
L 34.240625 195.380557 
" clip-path="url(#p6d8fce6dc5)" style="fill: none; stroke: #539ecd; stroke-width: 1.5"/>
    <path d="M 295.494566 22.10625 
L 296.259569 22.684629 
L 298.511241 24.76737 
L 300.476513 27.42849 
L 301.840466 30.08961 
L 302.780084 32.75073 
L 303.454231 35.41185 
L 303.893039 38.07297 
L 304.177413 40.73409 
L 304.335624 43.39521 
L 304.316948 49.16097 
L 303.87197 54.48321 
L 303.437681 57.313511 
L 302.904352 59.80545 
L 301.616369 64.1528 
L 301.271889 65.12769 
L 299.830769 68.585407 
L 295.308985 78.43329 
L 294.430606 81.09441 
L 293.815033 83.75553 
L 293.512283 86.41665 
L 293.557836 89.52129 
L 293.937707 92.18241 
L 294.624674 94.84353 
L 295.591083 97.50465 
L 296.828484 100.16577 
L 298.297033 102.82689 
L 301.616369 107.977106 
L 303.605121 110.81025 
L 314.186993 125.551309 
L 315.972593 128.433433 
L 316.556136 129.43809 
L 317.934394 132.09921 
L 319.579505 136.131459 
L 320.156906 137.86497 
L 320.869664 140.52609 
L 321.424048 143.18721 
L 322.11853 148.50945 
L 322.472348 153.83169 
L 322.664093 161.81505 
L 322.719454 180.88641 
L 322.627524 218.14209 
L 322.452918 223.90785 
L 322.07341 229.23009 
L 321.365105 234.304499 
L 321.322247 234.55233 
L 320.718022 237.21345 
L 319.579505 240.89133 
L 318.953536 242.53569 
L 317.755582 245.19681 
L 315.972593 248.497015 
L 310.221706 258.50241 
L 308.794481 261.619967 
L 307.906149 263.82465 
L 306.054348 269.59041 
L 304.56295 274.91265 
L 303.437681 278.385786 
L 302.70674 280.23489 
L 301.379606 282.89601 
L 299.502224 285.55713 
L 298.045169 287.033622 
L 296.646294 288.21825 
L 296.646294 288.21825 
" clip-path="url(#p6d8fce6dc5)" style="fill: none; stroke: #539ecd; stroke-width: 1.5"/>
   </g>
   <g id="PathCollection_6">
    <path d="M 39.555627 164.47617 
L 39.450299 161.81505 
L 39.370582 159.15393 
L 39.311993 156.49281 
L 39.270977 153.83169 
L 39.243874 151.17057 
L 39.226618 148.50945 
L 39.215211 145.84833 
L 39.206639 143.18721 
L 39.19968 140.52609 
L 39.195139 137.86497 
L 39.195387 135.20385 
L 39.205837 132.09921 
L 39.227003 129.43809 
L 39.262694 126.77697 
L 39.317063 124.11585 
L 39.397036 121.45473 
L 39.514287 118.79361 
L 39.633137 116.954904 
L 39.695213 116.13249 
L 39.991051 113.47137 
L 40.431745 110.81025 
L 41.083942 108.14913 
L 41.418737 107.185691 
L 42.198733 105.48801 
L 43.204337 103.956641 
L 44.342686 102.82689 
L 45.025649 102.330269 
L 46.811249 101.631139 
L 48.596849 101.439371 
L 50.382449 101.621736 
L 52.203761 102.077602 
L 53.989361 102.696876 
L 54.294051 102.82689 
L 55.774961 103.500193 
L 57.560561 104.356559 
L 59.381873 105.217746 
L 59.955906 105.48801 
L 61.167473 106.095901 
L 62.953073 106.934606 
L 64.738673 107.685374 
L 65.970906 108.14913 
L 66.559985 108.391229 
L 68.345585 109.047465 
L 70.131185 109.60185 
L 71.916785 110.060963 
L 73.738097 110.437456 
L 75.523697 110.721806 
L 76.291406 110.81025 
L 77.309297 110.947123 
L 79.094897 111.096759 
L 80.916209 111.155933 
L 82.701809 111.120775 
L 84.487409 110.988922 
L 85.848105 110.81025 
L 86.273009 110.76176 
L 88.094321 110.459578 
L 89.879921 110.053881 
L 91.665521 109.523383 
L 93.451121 108.846466 
L 94.931999 108.14913 
L 95.272433 108.000014 
L 97.058033 107.089105 
L 98.843633 105.973009 
L 99.519208 105.48801 
L 100.629233 104.715789 
L 102.450545 103.241753 
L 102.912652 102.82689 
L 104.236145 101.647364 
L 105.71281 100.16577 
L 106.021745 99.854443 
L 107.807345 97.937155 
L 108.188028 97.50465 
L 109.628657 95.865515 
L 110.483242 94.84353 
L 111.414257 93.735004 
L 112.672321 92.18241 
L 113.199857 91.534603 
L 114.791891 89.52129 
L 114.985457 89.277238 
L 116.806769 86.920039 
L 117.181213 86.41665 
L 118.592369 84.46966 
L 119.093679 83.75553 
L 120.377969 81.798455 
L 120.826332 81.09441 
L 122.163569 78.752168 
L 122.341774 78.43329 
L 123.645805 75.77217 
L 123.984881 74.943142 
L 124.735867 73.11105 
L 125.607114 70.44993 
L 125.770481 69.833623 
L 126.33124 67.78881 
L 126.898157 65.12769 
L 127.329357 62.46657 
L 127.556081 60.634561 
L 127.666999 59.80545 
L 127.941891 57.14433 
L 128.15301 54.48321 
L 128.325594 51.82209 
L 128.486787 49.16097 
L 128.667214 46.49985 
L 128.949695 43.39521 
L 129.302363 40.73409 
L 129.341681 40.526885 
L 129.876647 38.07297 
L 130.711432 35.41185 
L 131.162993 34.38465 
L 132.013061 32.75073 
L 132.948593 31.436824 
L 134.111003 30.08961 
L 134.734193 29.542347 
L 136.519793 28.264316 
L 137.985878 27.42849 
L 138.341105 27.268574 
L 140.126705 26.625961 
L 141.912305 26.122968 
L 143.697905 25.73307 
L 145.519217 25.428793 
L 147.304817 25.203179 
L 149.090417 25.034052 
L 150.876017 24.908805 
L 152.697329 24.815667 
L 154.009852 24.76737 
L 154.482929 24.75289 
L 156.268529 24.713923 
L 158.054129 24.686554 
L 159.875441 24.667291 
L 161.661041 24.654455 
L 163.446641 24.645821 
L 165.232241 24.640092 
L 167.053553 24.636279 
L 168.839153 24.633867 
L 170.624753 24.632317 
L 172.410353 24.631332 
L 174.231665 24.630705 
L 176.017265 24.630332 
L 177.802865 24.630118 
L 179.588465 24.630004 
L 181.409777 24.62995 
L 183.195377 24.629928 
L 184.980977 24.629915 
L 186.766577 24.629899 
L 188.587889 24.629876 
L 190.373489 24.62985 
L 192.159089 24.629827 
L 193.944689 24.629814 
L 195.766001 24.629816 
L 197.551601 24.629831 
L 199.337201 24.629854 
L 201.122801 24.629874 
L 202.944113 24.629886 
L 204.729713 24.629883 
L 206.515313 24.629867 
L 208.300913 24.629844 
L 210.122225 24.629823 
L 211.907825 24.629813 
L 213.693425 24.629816 
L 215.479025 24.629832 
L 217.300337 24.629855 
L 219.085937 24.629875 
L 220.871537 24.629886 
L 222.657137 24.629882 
L 224.478449 24.629866 
L 226.264049 24.629843 
L 228.049649 24.629823 
L 229.835249 24.629814 
L 231.656561 24.629819 
L 233.442161 24.629837 
L 235.227761 24.629863 
L 237.013361 24.629889 
L 238.834673 24.629911 
L 240.620273 24.629926 
L 242.405873 24.629944 
L 244.191473 24.629981 
L 246.012785 24.630064 
L 247.798385 24.630228 
L 249.583985 24.63052 
L 251.369585 24.631008 
L 253.190897 24.631815 
L 254.976497 24.633067 
L 256.762097 24.635019 
L 258.547697 24.638037 
L 260.369009 24.642772 
L 262.154609 24.649827 
L 263.940209 24.660369 
L 265.725809 24.675904 
L 267.547121 24.699013 
L 269.332721 24.731559 
L 270.724877 24.76737 
L 271.118321 24.779524 
L 272.903921 24.856266 
L 274.725233 24.96411 
L 276.510833 25.107766 
L 278.296433 25.299842 
L 280.082033 25.553394 
L 281.903345 25.89148 
L 283.688945 26.319435 
L 285.474545 26.864348 
L 286.944713 27.42849 
L 287.260145 27.580167 
L 289.081457 28.665496 
L 290.867057 29.982198 
L 290.988098 30.08961 
L 292.652657 32.021292 
L 293.178886 32.75073 
L 294.438257 35.129854 
L 294.565682 35.41185 
L 295.414107 38.07297 
L 295.967426 40.73409 
L 296.259569 43.201877 
L 296.279639 43.39521 
L 296.382195 46.49985 
L 296.301274 49.16097 
L 296.259569 49.642698 
L 296.048235 51.82209 
L 295.623613 54.48321 
L 295.030435 57.14433 
L 294.438257 59.208217 
L 294.249711 59.80545 
L 293.234805 62.46657 
L 292.652657 63.806708 
L 292.040815 65.12769 
L 290.867057 67.50679 
L 290.721625 67.78881 
L 289.333951 70.44993 
L 289.081457 70.958783 
L 287.993881 73.11105 
L 287.260145 74.779935 
L 286.816965 75.77217 
L 285.850136 78.43329 
L 285.474545 79.847633 
L 285.131858 81.09441 
L 284.669174 83.75553 
L 284.480139 86.41665 
L 284.591298 89.52129 
L 284.971195 92.18241 
L 285.474545 94.242565 
L 285.613582 94.84353 
L 286.48051 97.50465 
L 287.260145 99.326302 
L 287.611795 100.16577 
L 288.970148 102.82689 
L 289.081457 103.0191 
L 290.510878 105.48801 
L 290.867057 106.045605 
L 292.220283 108.14913 
L 292.652657 108.781881 
L 294.052628 110.81025 
L 294.438257 111.351141 
L 295.964923 113.47137 
L 296.259569 113.874327 
L 297.927003 116.13249 
L 298.045169 116.292365 
L 299.830769 118.69388 
L 299.905115 118.79361 
L 301.616369 121.108616 
L 301.873639 121.45473 
L 303.437681 123.594725 
L 303.818832 124.11585 
L 305.223281 126.100194 
L 305.698984 126.77697 
L 307.008881 128.740785 
L 307.465019 129.43809 
L 308.794481 131.633728 
L 309.066374 132.09921 
L 310.615793 135.093051 
L 310.670638 135.20385 
L 311.767889 137.86497 
L 312.401393 139.68678 
L 312.670732 140.52609 
L 313.348799 143.18721 
L 313.878266 145.84833 
L 314.186993 147.915878 
L 314.266916 148.50945 
L 314.522789 151.17057 
L 314.699521 153.83169 
L 314.815763 156.49281 
L 314.888111 159.15393 
L 314.930894 161.81505 
L 314.955767 164.47617 
L 314.971206 167.13729 
L 314.982239 169.79841 
L 314.990808 172.45953 
L 314.996812 175.12065 
L 314.999626 178.22529 
L 314.998436 180.88641 
L 314.995216 183.54753 
L 314.992021 186.20865 
L 314.990716 188.86977 
L 314.992025 191.53089 
L 314.995153 194.19201 
L 314.998167 196.85313 
L 314.99894 199.51425 
L 314.996082 202.17537 
L 314.989308 204.83649 
L 314.978938 207.49761 
L 314.964654 210.15873 
L 314.943988 212.81985 
L 314.911119 215.48097 
L 314.856341 218.14209 
L 314.76621 220.80321 
L 314.59401 223.90785 
L 314.366672 226.56897 
L 314.186993 228.044036 
L 314.025231 229.23009 
L 313.530678 231.89121 
L 312.885138 234.55233 
L 312.401393 236.130557 
L 312.036997 237.21345 
L 310.961015 239.87457 
L 310.615793 240.609313 
L 309.653362 242.53569 
L 308.794481 244.110146 
L 308.178567 245.19681 
L 307.008881 247.184841 
L 306.60678 247.85793 
L 305.223281 250.209193 
L 305.040975 250.51905 
L 303.564426 253.18017 
L 303.437681 253.430444 
L 302.221927 255.84129 
L 301.616369 257.233678 
L 301.06063 258.50241 
L 300.062393 261.16353 
L 299.830769 261.870034 
L 299.166258 263.82465 
L 298.236467 266.92929 
L 298.045169 267.589245 
L 297.418698 269.59041 
L 296.540264 272.25153 
L 296.259569 272.98921 
L 295.434583 274.91265 
L 294.438257 276.795531 
L 293.96018 277.57377 
L 292.652657 279.237829 
L 291.71662 280.23489 
L 290.867057 280.942048 
L 289.081457 282.160201 
L 287.741159 282.89601 
L 287.260145 283.106724 
L 285.474545 283.733006 
L 283.688945 284.224971 
L 281.903345 284.607397 
L 280.082033 284.906506 
L 278.296433 285.128675 
L 276.510833 285.295443 
L 274.725233 285.419073 
L 272.903921 285.511086 
L 271.638159 285.55713 
L 271.118321 285.572864 
L 269.332721 285.611411 
L 267.547121 285.638494 
L 265.725809 285.657562 
L 263.940209 285.670271 
L 262.154609 285.678822 
L 260.369009 285.684497 
L 258.547697 285.688276 
L 256.762097 285.690667 
L 254.976497 285.692203 
L 253.190897 285.69318 
L 251.369585 285.693802 
L 249.583985 285.694171 
L 247.798385 285.694385 
L 246.012785 285.694497 
L 244.191473 285.694551 
L 242.405873 285.694572 
L 240.620273 285.694585 
L 238.834673 285.694601 
L 237.013361 285.694624 
L 235.227761 285.69465 
L 233.442161 285.694673 
L 231.656561 285.694686 
L 229.835249 285.694684 
L 228.049649 285.694669 
L 226.264049 285.694646 
L 224.478449 285.694626 
L 222.657137 285.694614 
L 220.871537 285.694617 
L 219.085937 285.694633 
L 217.300337 285.694656 
L 215.479025 285.694677 
L 213.693425 285.694687 
L 211.907825 285.694684 
L 210.122225 285.694668 
L 208.300913 285.694645 
L 206.515313 285.694624 
L 204.729713 285.694613 
L 202.944113 285.694616 
L 201.122801 285.694631 
L 199.337201 285.694651 
L 197.551601 285.694666 
L 195.766001 285.694669 
L 193.944689 285.694652 
L 192.159089 285.694615 
L 190.373489 285.694558 
L 188.587889 285.694485 
L 186.766577 285.694388 
L 184.980977 285.69426 
L 183.195377 285.694072 
L 181.409777 285.693784 
L 179.588465 285.693323 
L 177.802865 285.692627 
L 176.017265 285.691579 
L 174.231665 285.690034 
L 172.410353 285.687738 
L 170.624753 285.684499 
L 168.839153 285.679891 
L 167.053553 285.673373 
L 165.232241 285.663992 
L 163.446641 285.651095 
L 161.661041 285.633184 
L 159.875441 285.608481 
L 158.054129 285.573869 
L 157.406832 285.55713 
L 156.268529 285.521503 
L 154.482929 285.446032 
L 152.697329 285.344733 
L 150.876017 285.20669 
L 149.090417 285.027355 
L 147.304817 284.792253 
L 145.519217 284.486577 
L 143.697905 284.083563 
L 141.912305 283.577386 
L 140.126705 282.936029 
L 140.036449 282.89601 
L 138.341105 281.884096 
L 136.519793 280.510164 
L 136.220995 280.23489 
L 134.734193 278.117766 
L 134.420047 277.57377 
L 133.65425 274.91265 
L 133.567023 272.25153 
L 134.015164 269.59041 
L 134.734193 267.33104 
L 134.868294 266.92929 
L 136.273991 263.82465 
L 136.519793 263.351962 
L 137.668304 261.16353 
L 138.341105 259.900252 
L 139.083154 258.50241 
L 140.126705 256.419575 
L 140.414525 255.84129 
L 141.613131 253.18017 
L 141.912305 252.408704 
L 142.650373 250.51905 
L 143.494121 247.85793 
L 143.697905 247.06932 
L 144.200117 245.19681 
L 144.759797 242.53569 
L 145.18522 239.87457 
L 145.503527 237.21345 
L 145.519217 237.038322 
L 145.762289 234.55233 
L 145.947589 231.89121 
L 146.075023 229.23009 
L 146.159996 226.56897 
L 146.215776 223.90785 
L 146.257828 220.80321 
L 146.28211 218.14209 
L 146.299369 215.48097 
L 146.310824 212.81985 
L 146.316775 210.15873 
L 146.317861 207.49761 
L 146.315665 204.83649 
L 146.312462 202.17537 
L 146.310314 199.51425 
L 146.310076 196.85313 
L 146.310862 194.19201 
L 146.310244 191.53089 
L 146.305043 188.86977 
L 146.292199 186.20865 
L 146.269135 183.54753 
L 146.233284 180.88641 
L 146.180873 178.22529 
L 146.08996 175.12065 
L 145.97428 172.45953 
L 145.807656 169.79841 
L 145.570467 167.13729 
L 145.519217 166.715529 
L 145.269146 164.47617 
L 144.864602 161.81505 
L 144.321158 159.15393 
L 143.697905 156.834783 
L 143.609403 156.49281 
L 142.749983 153.83169 
L 141.912305 151.812047 
L 141.644015 151.17057 
L 140.277368 148.50945 
L 140.126705 148.259737 
L 138.582055 145.84833 
L 138.341105 145.521657 
L 136.519793 143.264847 
L 136.451034 143.18721 
L 134.734193 141.410071 
L 133.744255 140.52609 
L 132.948593 139.84515 
L 131.162993 138.511106 
L 130.150591 137.86497 
L 129.341681 137.343825 
L 127.556081 136.350472 
L 125.770481 135.534174 
L 124.912626 135.20385 
L 123.984881 134.814506 
L 122.163569 134.179541 
L 120.377969 133.684833 
L 118.592369 133.301341 
L 116.806769 133.017917 
L 114.985457 132.823955 
L 113.199857 132.722403 
L 111.414257 132.706865 
L 109.628657 132.778471 
L 107.807345 132.945514 
L 106.021745 133.208877 
L 104.236145 133.581953 
L 102.450545 134.080213 
L 100.629233 134.739159 
L 99.5876 135.20385 
L 98.843633 135.505066 
L 97.058033 136.366666 
L 95.272433 137.426867 
L 94.632127 137.86497 
L 93.451121 138.644636 
L 91.665521 140.023685 
L 91.084435 140.52609 
L 89.879921 141.555887 
L 88.200141 143.18721 
L 88.094321 143.290163 
L 86.273009 145.166248 
L 85.657566 145.84833 
L 84.487409 147.139688 
L 83.310531 148.50945 
L 82.701809 149.209409 
L 81.055389 151.17057 
L 80.916209 151.332998 
L 79.094897 153.482911 
L 78.804418 153.83169 
L 77.309297 155.580425 
L 76.547086 156.49281 
L 75.523697 157.692125 
L 74.305871 159.15393 
L 73.738097 159.826889 
L 72.098772 161.81505 
L 71.916785 162.035074 
L 70.131185 164.214266 
L 69.918393 164.47617 
L 68.345585 166.403868 
L 67.752898 167.13729 
L 66.559985 168.599814 
L 65.581066 169.79841 
L 64.738673 170.812694 
L 63.356515 172.45953 
L 62.953073 172.92746 
L 61.167473 174.951711 
L 61.011511 175.12065 
L 59.381873 176.81506 
L 58.00947 178.22529 
L 57.560561 178.671623 
L 55.774961 180.330638 
L 55.121997 180.88641 
L 53.989361 181.836248 
L 52.203761 183.177828 
L 51.583423 183.54753 
L 50.382449 184.259068 
L 48.596849 184.970339 
L 46.811249 185.202574 
L 45.025649 184.713295 
L 43.649864 183.54753 
L 43.204337 183.044362 
L 42.098433 180.88641 
L 41.418737 179.050232 
L 41.198905 178.22529 
L 40.578838 175.12065 
L 40.19706 172.45953 
L 39.914149 169.79841 
L 39.702938 167.13729 
L 39.633137 165.983537 
L 39.555627 164.47617 
z
" clip-path="url(#p6d8fce6dc5)" style="fill: none; stroke: #2b7bba; stroke-width: 1.5"/>
   </g>
   <g id="PathCollection_7">
    <path d="M 137.593674 108.14913 
L 138.030911 105.48801 
L 138.341105 104.815883 
L 139.285726 102.82689 
L 140.126705 101.384012 
L 140.836301 100.16577 
L 141.912305 98.351514 
L 142.410316 97.50465 
L 143.697905 95.155059 
L 143.868961 94.84353 
L 145.245352 92.18241 
L 145.519217 91.602289 
L 146.539447 89.52129 
L 147.304817 87.768977 
L 147.916161 86.41665 
L 148.965901 83.75553 
L 149.090417 83.386535 
L 149.967492 81.09441 
L 150.70829 78.43329 
L 150.876017 77.606264 
L 151.323604 75.77217 
L 151.768052 73.11105 
L 152.081331 70.44993 
L 152.347625 67.78881 
L 152.62482 65.12769 
L 152.697329 64.541142 
L 153.036661 62.46657 
L 153.559375 59.80545 
L 154.211958 57.14433 
L 154.482929 56.34893 
L 155.355626 54.48321 
L 156.268529 53.22007 
L 157.684585 51.82209 
L 158.054129 51.59987 
L 159.875441 50.838104 
L 161.661041 50.326521 
L 163.446641 49.980056 
L 165.232241 49.7488 
L 167.053553 49.594043 
L 168.839153 49.495715 
L 170.624753 49.432324 
L 172.410353 49.391849 
L 174.231665 49.365954 
L 176.017265 49.350428 
L 177.802865 49.341296 
L 179.588465 49.336308 
L 181.409777 49.333831 
L 183.195377 49.332772 
L 184.980977 49.332224 
L 186.766577 49.331672 
L 188.587889 49.330888 
L 190.373489 49.329961 
L 192.159089 49.329098 
L 193.944689 49.328557 
L 195.766001 49.328507 
L 197.551601 49.328949 
L 199.337201 49.329694 
L 201.122801 49.330454 
L 202.944113 49.33094 
L 204.729713 49.330946 
L 206.515313 49.330482 
L 208.300913 49.329726 
L 210.122225 49.328953 
L 211.907825 49.328488 
L 213.693425 49.328493 
L 215.479025 49.328968 
L 217.300337 49.32975 
L 219.085937 49.330516 
L 220.871537 49.330995 
L 222.657137 49.331019 
L 224.478449 49.330593 
L 226.264049 49.329942 
L 228.049649 49.329384 
L 229.835249 49.329258 
L 231.656561 49.329835 
L 233.442161 49.331212 
L 235.227761 49.333402 
L 237.013361 49.336415 
L 238.834673 49.340513 
L 240.620273 49.34606 
L 242.405873 49.354153 
L 244.191473 49.366459 
L 246.012785 49.385889 
L 247.798385 49.415137 
L 249.583985 49.459183 
L 251.369585 49.524523 
L 253.190897 49.622729 
L 254.976497 49.763779 
L 256.762097 49.969678 
L 258.547697 50.271639 
L 260.369009 50.729393 
L 262.154609 51.405612 
L 262.9026 51.82209 
L 263.940209 53.450527 
L 264.339942 54.48321 
L 264.192111 57.14433 
L 263.940209 58.092211 
L 263.463835 59.80545 
L 262.537121 62.46657 
L 262.154609 63.504385 
L 261.518565 65.12769 
L 260.536996 67.78881 
L 260.369009 68.277239 
L 259.532833 70.44993 
L 258.723403 73.11105 
L 258.547697 73.873892 
L 258.025665 75.77217 
L 257.563008 78.43329 
L 257.344444 81.09441 
L 257.309388 83.75553 
L 257.400919 86.41665 
L 257.619171 89.52129 
L 257.900137 92.18241 
L 258.312663 94.84353 
L 258.547697 95.904176 
L 258.840564 97.50465 
L 259.558901 100.16577 
L 260.369009 102.242086 
L 260.569111 102.82689 
L 261.723221 105.48801 
L 262.154609 106.326542 
L 263.025607 108.14913 
L 263.940209 109.826182 
L 264.453258 110.81025 
L 265.725809 113.047457 
L 265.961536 113.47137 
L 267.547121 116.1213 
L 267.553806 116.13249 
L 269.217699 118.79361 
L 269.332721 118.964645 
L 271.051693 121.45473 
L 271.118321 121.545515 
L 272.903921 123.948292 
L 273.031278 124.11585 
L 274.725233 126.297022 
L 275.110488 126.77697 
L 276.510833 128.557954 
L 277.226058 129.43809 
L 278.296433 130.835447 
L 279.290042 132.09921 
L 280.082033 133.231821 
L 281.540529 135.20385 
L 281.903345 135.76083 
L 283.255454 137.86497 
L 283.688945 138.599921 
L 284.776302 140.52609 
L 285.474545 141.841143 
L 286.129889 143.18721 
L 287.260145 145.628764 
L 287.348687 145.84833 
L 288.260034 148.50945 
L 289.068769 151.17057 
L 289.081457 151.228463 
L 289.523219 153.83169 
L 289.799812 156.49281 
L 289.918406 159.15393 
L 289.936888 161.81505 
L 289.929666 164.47617 
L 289.955156 167.13729 
L 290.032465 169.79841 
L 290.138524 172.45953 
L 290.226237 175.12065 
L 290.250966 178.22529 
L 290.195744 180.88641 
L 290.101394 183.54753 
L 290.019686 186.20865 
L 289.995079 188.86977 
L 290.040677 191.53089 
L 290.131016 194.19201 
L 290.215534 196.85313 
L 290.245298 199.51425 
L 290.19832 202.17537 
L 290.08949 204.83649 
L 289.959196 207.49761 
L 289.846051 210.15873 
L 289.75801 212.81985 
L 289.658036 215.48097 
L 289.47429 218.14209 
L 289.132828 220.80321 
L 289.081457 221.033399 
L 288.287205 223.90785 
L 287.337718 226.56897 
L 287.260145 226.747627 
L 286.025296 229.23009 
L 285.474545 230.306926 
L 284.591491 231.89121 
L 283.688945 233.583626 
L 283.14471 234.55233 
L 281.903345 236.9755 
L 281.776539 237.21345 
L 280.427298 239.87457 
L 280.082033 240.61292 
L 279.136265 242.53569 
L 278.296433 244.398709 
L 277.909987 245.19681 
L 276.682935 247.85793 
L 276.510833 248.247489 
L 275.377134 250.51905 
L 274.725233 251.887962 
L 274.003234 253.18017 
L 272.903921 255.009518 
L 272.295788 255.84129 
L 271.118321 257.090798 
L 269.446447 258.50241 
L 269.332721 258.567044 
L 267.547121 259.305658 
L 265.725809 259.851567 
L 263.940209 260.228934 
L 262.154609 260.489817 
L 260.369009 260.666585 
L 258.547697 260.786252 
L 256.762097 260.863019 
L 254.976497 260.912949 
L 253.190897 260.945107 
L 251.369585 260.965845 
L 249.583985 260.978339 
L 247.798385 260.985666 
L 246.012785 260.989594 
L 244.191473 260.991447 
L 242.405873 260.99216 
L 240.620273 260.992512 
L 238.834673 260.992956 
L 237.013361 260.993679 
L 235.227761 260.994575 
L 233.442161 260.99542 
L 231.656561 260.995952 
L 229.835249 260.995997 
L 228.049649 260.995554 
L 226.264049 260.994807 
L 224.478449 260.994046 
L 222.657137 260.99356 
L 220.871537 260.993554 
L 219.085937 260.994016 
L 217.300337 260.994771 
L 215.479025 260.99554 
L 213.693425 260.995999 
L 211.907825 260.995981 
L 210.122225 260.995483 
L 208.300913 260.994657 
L 206.515313 260.99381 
L 204.729713 260.993185 
L 202.944113 260.992899 
L 201.122801 260.992851 
L 199.337201 260.992693 
L 197.551601 260.991864 
L 195.766001 260.989648 
L 193.944689 260.98507 
L 192.159089 260.97722 
L 190.373489 260.964543 
L 188.587889 260.944768 
L 186.766577 260.913564 
L 184.980977 260.86645 
L 183.195377 260.794355 
L 181.409777 260.6845 
L 179.588465 260.514 
L 177.802865 260.261212 
L 176.017265 259.881436 
L 174.231665 259.30941 
L 172.577497 258.50241 
L 172.410353 258.343575 
L 170.75257 255.84129 
L 170.624753 255.35508 
L 170.251667 253.18017 
L 170.131414 250.51905 
L 170.160092 247.85793 
L 170.269739 245.19681 
L 170.434067 242.53569 
L 170.624753 239.904565 
L 170.627621 239.87457 
L 170.880682 237.21345 
L 171.069015 234.55233 
L 171.158729 231.89121 
L 171.152452 229.23009 
L 171.089752 226.56897 
L 171.029099 223.90785 
L 171.024826 220.80321 
L 171.092462 218.14209 
L 171.196015 215.48097 
L 171.28367 212.81985 
L 171.310552 210.15873 
L 171.263612 207.49761 
L 171.169095 204.83649 
L 171.078547 202.17537 
L 171.041012 199.51425 
L 171.076485 196.85313 
L 171.164962 194.19201 
L 171.257029 191.53089 
L 171.300206 188.86977 
L 171.266706 186.20865 
L 171.167468 183.54753 
L 171.0449 180.88641 
L 170.948385 178.22529 
L 170.903618 175.12065 
L 170.906284 172.45953 
L 170.891751 169.79841 
L 170.79347 167.13729 
L 170.624753 165.202555 
L 170.577065 164.47617 
L 170.29409 161.81505 
L 169.908827 159.15393 
L 169.443353 156.49281 
L 168.909232 153.83169 
L 168.839153 153.50306 
L 168.431913 151.17057 
L 167.850941 148.50945 
L 167.053553 145.870674 
L 167.047742 145.84833 
L 166.179848 143.18721 
L 165.232241 141.111665 
L 164.988413 140.52609 
L 163.618184 137.86497 
L 163.446641 137.568284 
L 162.118017 135.20385 
L 161.661041 134.448712 
L 160.156078 132.09921 
L 159.875441 131.671965 
L 158.334591 129.43809 
L 158.054129 129.04424 
L 156.291864 126.77697 
L 156.268529 126.747432 
L 154.482929 124.60494 
L 154.015269 124.11585 
L 152.697329 122.710053 
L 151.296647 121.45473 
L 150.876017 121.057953 
L 149.090417 119.50852 
L 148.117868 118.79361 
L 147.304817 118.11104 
L 145.519217 116.775249 
L 144.532229 116.13249 
L 143.697905 115.44503 
L 141.912305 114.097389 
L 141.004806 113.47137 
L 140.126705 112.545238 
L 138.456521 110.81025 
L 138.341105 110.507119 
L 137.593674 108.14913 
z
" clip-path="url(#p6d8fce6dc5)" style="fill: none; stroke: #0b559f; stroke-width: 1.5"/>
   </g>
   <g id="PathCollection_8"/>
   <g id="patch_3">
    <path d="M 34.240625 288.21825 
L 34.240625 22.10625 
" style="fill: none; stroke: #000000; stroke-width: 0.8; stroke-linejoin: miter; stroke-linecap: square"/>
   </g>
   <g id="patch_4">
    <path d="M 391.360625 288.21825 
L 391.360625 22.10625 
" style="fill: none; stroke: #000000; stroke-width: 0.8; stroke-linejoin: miter; stroke-linecap: square"/>
   </g>
   <g id="patch_5">
    <path d="M 34.240625 288.21825 
L 391.360625 288.21825 
" style="fill: none; stroke: #000000; stroke-width: 0.8; stroke-linejoin: miter; stroke-linecap: square"/>
   </g>
   <g id="patch_6">
    <path d="M 34.240625 22.10625 
L 391.360625 22.10625 
" style="fill: none; stroke: #000000; stroke-width: 0.8; stroke-linejoin: miter; stroke-linecap: square"/>
   </g>
   <g id="text_16">
    <!-- 7.3_cross_-37.0 -->
    <g transform="translate(166.181563 16.10625)scale(0.12 -0.12)">
     <defs>
      <path id="DejaVuSans-37" d="M 525 4666 
L 3525 4666 
L 3525 4397 
L 1831 0 
L 1172 0 
L 2766 4134 
L 525 4134 
L 525 4666 
z
" transform="scale(0.015625)"/>
      <path id="DejaVuSans-2e" d="M 684 794 
L 1344 794 
L 1344 0 
L 684 0 
L 684 794 
z
" transform="scale(0.015625)"/>
      <path id="DejaVuSans-5f" d="M 3263 -1063 
L 3263 -1509 
L -63 -1509 
L -63 -1063 
L 3263 -1063 
z
" transform="scale(0.015625)"/>
      <path id="DejaVuSans-63" d="M 3122 3366 
L 3122 2828 
Q 2878 2963 2633 3030 
Q 2388 3097 2138 3097 
Q 1578 3097 1268 2742 
Q 959 2388 959 1747 
Q 959 1106 1268 751 
Q 1578 397 2138 397 
Q 2388 397 2633 464 
Q 2878 531 3122 666 
L 3122 134 
Q 2881 22 2623 -34 
Q 2366 -91 2075 -91 
Q 1284 -91 818 406 
Q 353 903 353 1747 
Q 353 2603 823 3093 
Q 1294 3584 2113 3584 
Q 2378 3584 2631 3529 
Q 2884 3475 3122 3366 
z
" transform="scale(0.015625)"/>
      <path id="DejaVuSans-72" d="M 2631 2963 
Q 2534 3019 2420 3045 
Q 2306 3072 2169 3072 
Q 1681 3072 1420 2755 
Q 1159 2438 1159 1844 
L 1159 0 
L 581 0 
L 581 3500 
L 1159 3500 
L 1159 2956 
Q 1341 3275 1631 3429 
Q 1922 3584 2338 3584 
Q 2397 3584 2469 3576 
Q 2541 3569 2628 3553 
L 2631 2963 
z
" transform="scale(0.015625)"/>
      <path id="DejaVuSans-73" d="M 2834 3397 
L 2834 2853 
Q 2591 2978 2328 3040 
Q 2066 3103 1784 3103 
Q 1356 3103 1142 2972 
Q 928 2841 928 2578 
Q 928 2378 1081 2264 
Q 1234 2150 1697 2047 
L 1894 2003 
Q 2506 1872 2764 1633 
Q 3022 1394 3022 966 
Q 3022 478 2636 193 
Q 2250 -91 1575 -91 
Q 1294 -91 989 -36 
Q 684 19 347 128 
L 347 722 
Q 666 556 975 473 
Q 1284 391 1588 391 
Q 1994 391 2212 530 
Q 2431 669 2431 922 
Q 2431 1156 2273 1281 
Q 2116 1406 1581 1522 
L 1381 1569 
Q 847 1681 609 1914 
Q 372 2147 372 2553 
Q 372 3047 722 3315 
Q 1072 3584 1716 3584 
Q 2034 3584 2315 3537 
Q 2597 3491 2834 3397 
z
" transform="scale(0.015625)"/>
      <path id="DejaVuSans-2d" d="M 313 2009 
L 1997 2009 
L 1997 1497 
L 313 1497 
L 313 2009 
z
" transform="scale(0.015625)"/>
     </defs>
     <use xlink:href="#DejaVuSans-37"/>
     <use xlink:href="#DejaVuSans-2e" x="63.623047"/>
     <use xlink:href="#DejaVuSans-33" x="95.410156"/>
     <use xlink:href="#DejaVuSans-5f" x="159.033203"/>
     <use xlink:href="#DejaVuSans-63" x="209.033203"/>
     <use xlink:href="#DejaVuSans-72" x="264.013672"/>
     <use xlink:href="#DejaVuSans-6f" x="302.876953"/>
     <use xlink:href="#DejaVuSans-73" x="364.058594"/>
     <use xlink:href="#DejaVuSans-73" x="416.158203"/>
     <use xlink:href="#DejaVuSans-5f" x="468.257812"/>
     <use xlink:href="#DejaVuSans-2d" x="518.257812"/>
     <use xlink:href="#DejaVuSans-33" x="554.341797"/>
     <use xlink:href="#DejaVuSans-37" x="617.964844"/>
     <use xlink:href="#DejaVuSans-2e" x="681.587891"/>
     <use xlink:href="#DejaVuSans-30" x="713.375"/>
    </g>
   </g>
  </g>
 </g>
 <defs>
  <clipPath id="p6d8fce6dc5">
   <rect x="34.240625" y="22.10625" width="357.12" height="266.112"/>
  </clipPath>
 </defs>
</svg>
