<?xml version="1.0" encoding="utf-8" standalone="no"?>
<!DOCTYPE svg PUBLIC "-//W3C//DTD SVG 1.1//EN"
  "http://www.w3.org/Graphics/SVG/1.1/DTD/svg11.dtd">
<svg xmlns:xlink="http://www.w3.org/1999/xlink" width="408.104375pt" height="325.7745pt" viewBox="0 0 408.104375 325.7745" xmlns="http://www.w3.org/2000/svg" version="1.1">
 <metadata>
  <rdf:RDF xmlns:dc="http://purl.org/dc/elements/1.1/" xmlns:cc="http://creativecommons.org/ns#" xmlns:rdf="http://www.w3.org/1999/02/22-rdf-syntax-ns#">
   <cc:Work>
    <dc:type rdf:resource="http://purl.org/dc/dcmitype/StillImage"/>
    <dc:date>2024-07-12T12:28:27.490381</dc:date>
    <dc:format>image/svg+xml</dc:format>
    <dc:creator>
     <cc:Agent>
      <dc:title>Matplotlib v3.5.3, https://matplotlib.org/</dc:title>
     </cc:Agent>
    </dc:creator>
   </cc:Work>
  </rdf:RDF>
 </metadata>
 <defs>
  <style type="text/css">*{stroke-linejoin: round; stroke-linecap: butt}</style>
 </defs>
 <g id="figure_1">
  <g id="patch_1">
   <path d="M 0 325.7745 
L 408.104375 325.7745 
L 408.104375 0 
L 0 0 
z
" style="fill: #ffffff"/>
  </g>
  <g id="axes_1">
   <g id="patch_2">
    <path d="M 34.240625 288.21825 
L 391.360625 288.21825 
L 391.360625 22.10625 
L 34.240625 22.10625 
z
" style="fill: #ffffff"/>
   </g>
   <g id="matplotlib.axis_1">
    <g id="xtick_1">
     <g id="line2d_1">
      <defs>
       <path id="mf45b09d1bc" d="M 0 0 
L 0 3.5 
" style="stroke: #000000; stroke-width: 0.8"/>
      </defs>
      <g>
       <use xlink:href="#mf45b09d1bc" x="34.240625" y="288.21825" style="stroke: #000000; stroke-width: 0.8"/>
      </g>
     </g>
     <g id="text_1">
      <!-- 0 -->
      <g transform="translate(31.059375 302.816687)scale(0.1 -0.1)">
       <defs>
        <path id="DejaVuSans-30" d="M 2034 4250 
Q 1547 4250 1301 3770 
Q 1056 3291 1056 2328 
Q 1056 1369 1301 889 
Q 1547 409 2034 409 
Q 2525 409 2770 889 
Q 3016 1369 3016 2328 
Q 3016 3291 2770 3770 
Q 2525 4250 2034 4250 
z
M 2034 4750 
Q 2819 4750 3233 4129 
Q 3647 3509 3647 2328 
Q 3647 1150 3233 529 
Q 2819 -91 2034 -91 
Q 1250 -91 836 529 
Q 422 1150 422 2328 
Q 422 3509 836 4129 
Q 1250 4750 2034 4750 
z
" transform="scale(0.015625)"/>
       </defs>
       <use xlink:href="#DejaVuSans-30"/>
      </g>
     </g>
    </g>
    <g id="xtick_2">
     <g id="line2d_2">
      <g>
       <use xlink:href="#mf45b09d1bc" x="105.664625" y="288.21825" style="stroke: #000000; stroke-width: 0.8"/>
      </g>
     </g>
     <g id="text_2">
      <!-- 20 -->
      <g transform="translate(99.302125 302.816687)scale(0.1 -0.1)">
       <defs>
        <path id="DejaVuSans-32" d="M 1228 531 
L 3431 531 
L 3431 0 
L 469 0 
L 469 531 
Q 828 903 1448 1529 
Q 2069 2156 2228 2338 
Q 2531 2678 2651 2914 
Q 2772 3150 2772 3378 
Q 2772 3750 2511 3984 
Q 2250 4219 1831 4219 
Q 1534 4219 1204 4116 
Q 875 4013 500 3803 
L 500 4441 
Q 881 4594 1212 4672 
Q 1544 4750 1819 4750 
Q 2544 4750 2975 4387 
Q 3406 4025 3406 3419 
Q 3406 3131 3298 2873 
Q 3191 2616 2906 2266 
Q 2828 2175 2409 1742 
Q 1991 1309 1228 531 
z
" transform="scale(0.015625)"/>
       </defs>
       <use xlink:href="#DejaVuSans-32"/>
       <use xlink:href="#DejaVuSans-30" x="63.623047"/>
      </g>
     </g>
    </g>
    <g id="xtick_3">
     <g id="line2d_3">
      <g>
       <use xlink:href="#mf45b09d1bc" x="177.088625" y="288.21825" style="stroke: #000000; stroke-width: 0.8"/>
      </g>
     </g>
     <g id="text_3">
      <!-- 40 -->
      <g transform="translate(170.726125 302.816687)scale(0.1 -0.1)">
       <defs>
        <path id="DejaVuSans-34" d="M 2419 4116 
L 825 1625 
L 2419 1625 
L 2419 4116 
z
M 2253 4666 
L 3047 4666 
L 3047 1625 
L 3713 1625 
L 3713 1100 
L 3047 1100 
L 3047 0 
L 2419 0 
L 2419 1100 
L 313 1100 
L 313 1709 
L 2253 4666 
z
" transform="scale(0.015625)"/>
       </defs>
       <use xlink:href="#DejaVuSans-34"/>
       <use xlink:href="#DejaVuSans-30" x="63.623047"/>
      </g>
     </g>
    </g>
    <g id="xtick_4">
     <g id="line2d_4">
      <g>
       <use xlink:href="#mf45b09d1bc" x="248.512625" y="288.21825" style="stroke: #000000; stroke-width: 0.8"/>
      </g>
     </g>
     <g id="text_4">
      <!-- 60 -->
      <g transform="translate(242.150125 302.816687)scale(0.1 -0.1)">
       <defs>
        <path id="DejaVuSans-36" d="M 2113 2584 
Q 1688 2584 1439 2293 
Q 1191 2003 1191 1497 
Q 1191 994 1439 701 
Q 1688 409 2113 409 
Q 2538 409 2786 701 
Q 3034 994 3034 1497 
Q 3034 2003 2786 2293 
Q 2538 2584 2113 2584 
z
M 3366 4563 
L 3366 3988 
Q 3128 4100 2886 4159 
Q 2644 4219 2406 4219 
Q 1781 4219 1451 3797 
Q 1122 3375 1075 2522 
Q 1259 2794 1537 2939 
Q 1816 3084 2150 3084 
Q 2853 3084 3261 2657 
Q 3669 2231 3669 1497 
Q 3669 778 3244 343 
Q 2819 -91 2113 -91 
Q 1303 -91 875 529 
Q 447 1150 447 2328 
Q 447 3434 972 4092 
Q 1497 4750 2381 4750 
Q 2619 4750 2861 4703 
Q 3103 4656 3366 4563 
z
" transform="scale(0.015625)"/>
       </defs>
       <use xlink:href="#DejaVuSans-36"/>
       <use xlink:href="#DejaVuSans-30" x="63.623047"/>
      </g>
     </g>
    </g>
    <g id="xtick_5">
     <g id="line2d_5">
      <g>
       <use xlink:href="#mf45b09d1bc" x="319.936625" y="288.21825" style="stroke: #000000; stroke-width: 0.8"/>
      </g>
     </g>
     <g id="text_5">
      <!-- 80 -->
      <g transform="translate(313.574125 302.816687)scale(0.1 -0.1)">
       <defs>
        <path id="DejaVuSans-38" d="M 2034 2216 
Q 1584 2216 1326 1975 
Q 1069 1734 1069 1313 
Q 1069 891 1326 650 
Q 1584 409 2034 409 
Q 2484 409 2743 651 
Q 3003 894 3003 1313 
Q 3003 1734 2745 1975 
Q 2488 2216 2034 2216 
z
M 1403 2484 
Q 997 2584 770 2862 
Q 544 3141 544 3541 
Q 544 4100 942 4425 
Q 1341 4750 2034 4750 
Q 2731 4750 3128 4425 
Q 3525 4100 3525 3541 
Q 3525 3141 3298 2862 
Q 3072 2584 2669 2484 
Q 3125 2378 3379 2068 
Q 3634 1759 3634 1313 
Q 3634 634 3220 271 
Q 2806 -91 2034 -91 
Q 1263 -91 848 271 
Q 434 634 434 1313 
Q 434 1759 690 2068 
Q 947 2378 1403 2484 
z
M 1172 3481 
Q 1172 3119 1398 2916 
Q 1625 2713 2034 2713 
Q 2441 2713 2670 2916 
Q 2900 3119 2900 3481 
Q 2900 3844 2670 4047 
Q 2441 4250 2034 4250 
Q 1625 4250 1398 4047 
Q 1172 3844 1172 3481 
z
" transform="scale(0.015625)"/>
       </defs>
       <use xlink:href="#DejaVuSans-38"/>
       <use xlink:href="#DejaVuSans-30" x="63.623047"/>
      </g>
     </g>
    </g>
    <g id="xtick_6">
     <g id="line2d_6">
      <g>
       <use xlink:href="#mf45b09d1bc" x="391.360625" y="288.21825" style="stroke: #000000; stroke-width: 0.8"/>
      </g>
     </g>
     <g id="text_6">
      <!-- 100 -->
      <g transform="translate(381.816875 302.816687)scale(0.1 -0.1)">
       <defs>
        <path id="DejaVuSans-31" d="M 794 531 
L 1825 531 
L 1825 4091 
L 703 3866 
L 703 4441 
L 1819 4666 
L 2450 4666 
L 2450 531 
L 3481 531 
L 3481 0 
L 794 0 
L 794 531 
z
" transform="scale(0.015625)"/>
       </defs>
       <use xlink:href="#DejaVuSans-31"/>
       <use xlink:href="#DejaVuSans-30" x="63.623047"/>
       <use xlink:href="#DejaVuSans-30" x="127.246094"/>
      </g>
     </g>
    </g>
    <g id="text_7">
     <!-- axialRotation -->
     <g transform="translate(180.024844 316.494812)scale(0.1 -0.1)">
      <defs>
       <path id="DejaVuSans-61" d="M 2194 1759 
Q 1497 1759 1228 1600 
Q 959 1441 959 1056 
Q 959 750 1161 570 
Q 1363 391 1709 391 
Q 2188 391 2477 730 
Q 2766 1069 2766 1631 
L 2766 1759 
L 2194 1759 
z
M 3341 1997 
L 3341 0 
L 2766 0 
L 2766 531 
Q 2569 213 2275 61 
Q 1981 -91 1556 -91 
Q 1019 -91 701 211 
Q 384 513 384 1019 
Q 384 1609 779 1909 
Q 1175 2209 1959 2209 
L 2766 2209 
L 2766 2266 
Q 2766 2663 2505 2880 
Q 2244 3097 1772 3097 
Q 1472 3097 1187 3025 
Q 903 2953 641 2809 
L 641 3341 
Q 956 3463 1253 3523 
Q 1550 3584 1831 3584 
Q 2591 3584 2966 3190 
Q 3341 2797 3341 1997 
z
" transform="scale(0.015625)"/>
       <path id="DejaVuSans-78" d="M 3513 3500 
L 2247 1797 
L 3578 0 
L 2900 0 
L 1881 1375 
L 863 0 
L 184 0 
L 1544 1831 
L 300 3500 
L 978 3500 
L 1906 2253 
L 2834 3500 
L 3513 3500 
z
" transform="scale(0.015625)"/>
       <path id="DejaVuSans-69" d="M 603 3500 
L 1178 3500 
L 1178 0 
L 603 0 
L 603 3500 
z
M 603 4863 
L 1178 4863 
L 1178 4134 
L 603 4134 
L 603 4863 
z
" transform="scale(0.015625)"/>
       <path id="DejaVuSans-6c" d="M 603 4863 
L 1178 4863 
L 1178 0 
L 603 0 
L 603 4863 
z
" transform="scale(0.015625)"/>
       <path id="DejaVuSans-52" d="M 2841 2188 
Q 3044 2119 3236 1894 
Q 3428 1669 3622 1275 
L 4263 0 
L 3584 0 
L 2988 1197 
Q 2756 1666 2539 1819 
Q 2322 1972 1947 1972 
L 1259 1972 
L 1259 0 
L 628 0 
L 628 4666 
L 2053 4666 
Q 2853 4666 3247 4331 
Q 3641 3997 3641 3322 
Q 3641 2881 3436 2590 
Q 3231 2300 2841 2188 
z
M 1259 4147 
L 1259 2491 
L 2053 2491 
Q 2509 2491 2742 2702 
Q 2975 2913 2975 3322 
Q 2975 3731 2742 3939 
Q 2509 4147 2053 4147 
L 1259 4147 
z
" transform="scale(0.015625)"/>
       <path id="DejaVuSans-6f" d="M 1959 3097 
Q 1497 3097 1228 2736 
Q 959 2375 959 1747 
Q 959 1119 1226 758 
Q 1494 397 1959 397 
Q 2419 397 2687 759 
Q 2956 1122 2956 1747 
Q 2956 2369 2687 2733 
Q 2419 3097 1959 3097 
z
M 1959 3584 
Q 2709 3584 3137 3096 
Q 3566 2609 3566 1747 
Q 3566 888 3137 398 
Q 2709 -91 1959 -91 
Q 1206 -91 779 398 
Q 353 888 353 1747 
Q 353 2609 779 3096 
Q 1206 3584 1959 3584 
z
" transform="scale(0.015625)"/>
       <path id="DejaVuSans-74" d="M 1172 4494 
L 1172 3500 
L 2356 3500 
L 2356 3053 
L 1172 3053 
L 1172 1153 
Q 1172 725 1289 603 
Q 1406 481 1766 481 
L 2356 481 
L 2356 0 
L 1766 0 
Q 1100 0 847 248 
Q 594 497 594 1153 
L 594 3053 
L 172 3053 
L 172 3500 
L 594 3500 
L 594 4494 
L 1172 4494 
z
" transform="scale(0.015625)"/>
       <path id="DejaVuSans-6e" d="M 3513 2113 
L 3513 0 
L 2938 0 
L 2938 2094 
Q 2938 2591 2744 2837 
Q 2550 3084 2163 3084 
Q 1697 3084 1428 2787 
Q 1159 2491 1159 1978 
L 1159 0 
L 581 0 
L 581 3500 
L 1159 3500 
L 1159 2956 
Q 1366 3272 1645 3428 
Q 1925 3584 2291 3584 
Q 2894 3584 3203 3211 
Q 3513 2838 3513 2113 
z
" transform="scale(0.015625)"/>
      </defs>
      <use xlink:href="#DejaVuSans-61"/>
      <use xlink:href="#DejaVuSans-78" x="61.279297"/>
      <use xlink:href="#DejaVuSans-69" x="120.458984"/>
      <use xlink:href="#DejaVuSans-61" x="148.242188"/>
      <use xlink:href="#DejaVuSans-6c" x="209.521484"/>
      <use xlink:href="#DejaVuSans-52" x="237.304688"/>
      <use xlink:href="#DejaVuSans-6f" x="302.287109"/>
      <use xlink:href="#DejaVuSans-74" x="363.46875"/>
      <use xlink:href="#DejaVuSans-61" x="402.677734"/>
      <use xlink:href="#DejaVuSans-74" x="463.957031"/>
      <use xlink:href="#DejaVuSans-69" x="503.166016"/>
      <use xlink:href="#DejaVuSans-6f" x="530.949219"/>
      <use xlink:href="#DejaVuSans-6e" x="592.130859"/>
     </g>
    </g>
   </g>
   <g id="matplotlib.axis_2">
    <g id="ytick_1">
     <g id="line2d_7">
      <defs>
       <path id="mf00b038efa" d="M 0 0 
L -3.5 0 
" style="stroke: #000000; stroke-width: 0.8"/>
      </defs>
      <g>
       <use xlink:href="#mf00b038efa" x="34.240625" y="288.21825" style="stroke: #000000; stroke-width: 0.8"/>
      </g>
     </g>
     <g id="text_8">
      <!-- 0 -->
      <g transform="translate(20.878125 292.017469)scale(0.1 -0.1)">
       <use xlink:href="#DejaVuSans-30"/>
      </g>
     </g>
    </g>
    <g id="ytick_2">
     <g id="line2d_8">
      <g>
       <use xlink:href="#mf00b038efa" x="34.240625" y="243.86625" style="stroke: #000000; stroke-width: 0.8"/>
      </g>
     </g>
     <g id="text_9">
      <!-- 1 -->
      <g transform="translate(20.878125 247.665469)scale(0.1 -0.1)">
       <use xlink:href="#DejaVuSans-31"/>
      </g>
     </g>
    </g>
    <g id="ytick_3">
     <g id="line2d_9">
      <g>
       <use xlink:href="#mf00b038efa" x="34.240625" y="199.51425" style="stroke: #000000; stroke-width: 0.8"/>
      </g>
     </g>
     <g id="text_10">
      <!-- 2 -->
      <g transform="translate(20.878125 203.313469)scale(0.1 -0.1)">
       <use xlink:href="#DejaVuSans-32"/>
      </g>
     </g>
    </g>
    <g id="ytick_4">
     <g id="line2d_10">
      <g>
       <use xlink:href="#mf00b038efa" x="34.240625" y="155.16225" style="stroke: #000000; stroke-width: 0.8"/>
      </g>
     </g>
     <g id="text_11">
      <!-- 3 -->
      <g transform="translate(20.878125 158.961469)scale(0.1 -0.1)">
       <defs>
        <path id="DejaVuSans-33" d="M 2597 2516 
Q 3050 2419 3304 2112 
Q 3559 1806 3559 1356 
Q 3559 666 3084 287 
Q 2609 -91 1734 -91 
Q 1441 -91 1130 -33 
Q 819 25 488 141 
L 488 750 
Q 750 597 1062 519 
Q 1375 441 1716 441 
Q 2309 441 2620 675 
Q 2931 909 2931 1356 
Q 2931 1769 2642 2001 
Q 2353 2234 1838 2234 
L 1294 2234 
L 1294 2753 
L 1863 2753 
Q 2328 2753 2575 2939 
Q 2822 3125 2822 3475 
Q 2822 3834 2567 4026 
Q 2313 4219 1838 4219 
Q 1578 4219 1281 4162 
Q 984 4106 628 3988 
L 628 4550 
Q 988 4650 1302 4700 
Q 1616 4750 1894 4750 
Q 2613 4750 3031 4423 
Q 3450 4097 3450 3541 
Q 3450 3153 3228 2886 
Q 3006 2619 2597 2516 
z
" transform="scale(0.015625)"/>
       </defs>
       <use xlink:href="#DejaVuSans-33"/>
      </g>
     </g>
    </g>
    <g id="ytick_5">
     <g id="line2d_11">
      <g>
       <use xlink:href="#mf00b038efa" x="34.240625" y="110.81025" style="stroke: #000000; stroke-width: 0.8"/>
      </g>
     </g>
     <g id="text_12">
      <!-- 4 -->
      <g transform="translate(20.878125 114.609469)scale(0.1 -0.1)">
       <use xlink:href="#DejaVuSans-34"/>
      </g>
     </g>
    </g>
    <g id="ytick_6">
     <g id="line2d_12">
      <g>
       <use xlink:href="#mf00b038efa" x="34.240625" y="66.45825" style="stroke: #000000; stroke-width: 0.8"/>
      </g>
     </g>
     <g id="text_13">
      <!-- 5 -->
      <g transform="translate(20.878125 70.257469)scale(0.1 -0.1)">
       <defs>
        <path id="DejaVuSans-35" d="M 691 4666 
L 3169 4666 
L 3169 4134 
L 1269 4134 
L 1269 2991 
Q 1406 3038 1543 3061 
Q 1681 3084 1819 3084 
Q 2600 3084 3056 2656 
Q 3513 2228 3513 1497 
Q 3513 744 3044 326 
Q 2575 -91 1722 -91 
Q 1428 -91 1123 -41 
Q 819 9 494 109 
L 494 744 
Q 775 591 1075 516 
Q 1375 441 1709 441 
Q 2250 441 2565 725 
Q 2881 1009 2881 1497 
Q 2881 1984 2565 2268 
Q 2250 2553 1709 2553 
Q 1456 2553 1204 2497 
Q 953 2441 691 2322 
L 691 4666 
z
" transform="scale(0.015625)"/>
       </defs>
       <use xlink:href="#DejaVuSans-35"/>
      </g>
     </g>
    </g>
    <g id="ytick_7">
     <g id="line2d_13">
      <g>
       <use xlink:href="#mf00b038efa" x="34.240625" y="22.10625" style="stroke: #000000; stroke-width: 0.8"/>
      </g>
     </g>
     <g id="text_14">
      <!-- 6 -->
      <g transform="translate(20.878125 25.905469)scale(0.1 -0.1)">
       <use xlink:href="#DejaVuSans-36"/>
      </g>
     </g>
    </g>
    <g id="text_15">
     <!-- zShift -->
     <g transform="translate(14.798438 169.151312)rotate(-90)scale(0.1 -0.1)">
      <defs>
       <path id="DejaVuSans-7a" d="M 353 3500 
L 3084 3500 
L 3084 2975 
L 922 459 
L 3084 459 
L 3084 0 
L 275 0 
L 275 525 
L 2438 3041 
L 353 3041 
L 353 3500 
z
" transform="scale(0.015625)"/>
       <path id="DejaVuSans-53" d="M 3425 4513 
L 3425 3897 
Q 3066 4069 2747 4153 
Q 2428 4238 2131 4238 
Q 1616 4238 1336 4038 
Q 1056 3838 1056 3469 
Q 1056 3159 1242 3001 
Q 1428 2844 1947 2747 
L 2328 2669 
Q 3034 2534 3370 2195 
Q 3706 1856 3706 1288 
Q 3706 609 3251 259 
Q 2797 -91 1919 -91 
Q 1588 -91 1214 -16 
Q 841 59 441 206 
L 441 856 
Q 825 641 1194 531 
Q 1563 422 1919 422 
Q 2459 422 2753 634 
Q 3047 847 3047 1241 
Q 3047 1584 2836 1778 
Q 2625 1972 2144 2069 
L 1759 2144 
Q 1053 2284 737 2584 
Q 422 2884 422 3419 
Q 422 4038 858 4394 
Q 1294 4750 2059 4750 
Q 2388 4750 2728 4690 
Q 3069 4631 3425 4513 
z
" transform="scale(0.015625)"/>
       <path id="DejaVuSans-68" d="M 3513 2113 
L 3513 0 
L 2938 0 
L 2938 2094 
Q 2938 2591 2744 2837 
Q 2550 3084 2163 3084 
Q 1697 3084 1428 2787 
Q 1159 2491 1159 1978 
L 1159 0 
L 581 0 
L 581 4863 
L 1159 4863 
L 1159 2956 
Q 1366 3272 1645 3428 
Q 1925 3584 2291 3584 
Q 2894 3584 3203 3211 
Q 3513 2838 3513 2113 
z
" transform="scale(0.015625)"/>
       <path id="DejaVuSans-66" d="M 2375 4863 
L 2375 4384 
L 1825 4384 
Q 1516 4384 1395 4259 
Q 1275 4134 1275 3809 
L 1275 3500 
L 2222 3500 
L 2222 3053 
L 1275 3053 
L 1275 0 
L 697 0 
L 697 3053 
L 147 3053 
L 147 3500 
L 697 3500 
L 697 3744 
Q 697 4328 969 4595 
Q 1241 4863 1831 4863 
L 2375 4863 
z
" transform="scale(0.015625)"/>
      </defs>
      <use xlink:href="#DejaVuSans-7a"/>
      <use xlink:href="#DejaVuSans-53" x="52.490234"/>
      <use xlink:href="#DejaVuSans-68" x="115.966797"/>
      <use xlink:href="#DejaVuSans-69" x="179.345703"/>
      <use xlink:href="#DejaVuSans-66" x="207.128906"/>
      <use xlink:href="#DejaVuSans-74" x="240.583984"/>
     </g>
    </g>
   </g>
   <g id="PathCollection_1"/>
   <g id="PathCollection_2">
    <path d="M 154.244223 288.21825 
L 152.697329 286.128746 
L 152.416522 285.55713 
L 151.351712 282.89601 
L 150.876017 281.239859 
L 150.606146 280.23489 
L 150.046519 277.57377 
L 149.652665 274.91265 
L 149.375242 272.25153 
L 149.180274 269.59041 
L 149.090417 267.873262 
L 149.025423 266.92929 
L 148.873825 263.82465 
L 148.786648 261.16353 
L 148.727875 258.50241 
L 148.690379 255.84129 
L 148.669577 253.18017 
L 148.662924 250.51905 
L 148.669557 247.85793 
L 148.690142 245.19681 
L 148.726922 242.53569 
L 148.783921 239.87457 
L 148.867226 237.21345 
L 148.985299 234.55233 
L 149.090417 232.825633 
L 149.130516 231.89121 
L 149.28192 229.23009 
L 149.483954 226.56897 
L 149.751316 223.90785 
L 150.172765 220.80321 
L 150.660801 218.14209 
L 150.876017 217.176867 
L 151.190374 215.48097 
L 151.808626 212.81985 
L 152.631269 210.15873 
L 152.697329 209.968246 
L 153.532145 207.49761 
L 154.482929 205.288463 
L 154.702905 204.83649 
L 156.161437 202.17537 
L 156.268529 201.993693 
L 158.054129 199.653059 
L 158.212466 199.51425 
L 159.875441 197.929728 
L 161.470994 196.85313 
L 161.661041 196.697368 
L 163.446641 195.030379 
L 163.941241 194.19201 
L 165.028471 191.53089 
L 165.232241 190.812141 
L 165.547344 188.86977 
L 165.851391 186.20865 
L 166.061587 183.54753 
L 166.205365 180.88641 
L 166.301962 178.22529 
L 166.373231 175.12065 
L 166.410053 172.45953 
L 166.432063 169.79841 
L 166.444554 167.13729 
L 166.451411 164.47617 
L 166.45531 161.81505 
L 166.457848 159.15393 
L 166.459735 156.49281 
L 166.461078 153.83169 
L 166.461745 151.17057 
L 166.461673 148.50945 
L 166.461051 145.84833 
L 166.460285 143.18721 
L 166.459823 140.52609 
L 166.45993 137.86497 
L 166.460553 135.20385 
L 166.461478 132.09921 
L 166.461951 129.43809 
L 166.461849 126.77697 
L 166.461227 124.11585 
L 166.460423 121.45473 
L 166.459873 118.79361 
L 166.459874 116.13249 
L 166.460426 113.47137 
L 166.46123 110.81025 
L 166.46185 108.14913 
L 166.46195 105.48801 
L 166.461476 102.82689 
L 166.460684 100.16577 
L 166.460004 97.50465 
L 166.459805 94.84353 
L 166.460194 92.18241 
L 166.460961 89.52129 
L 166.461778 86.41665 
L 166.461979 83.75553 
L 166.461593 81.09441 
L 166.460835 78.43329 
L 166.460127 75.77217 
L 166.459877 73.11105 
L 166.460274 70.44993 
L 166.461208 67.78881 
L 166.46239 65.12769 
L 166.463587 62.46657 
L 166.46491 59.80545 
L 166.467004 57.14433 
L 166.471091 54.48321 
L 166.478914 51.82209 
L 166.492664 49.16097 
L 166.515027 46.49985 
L 166.55659 43.39521 
L 166.610714 40.73409 
L 166.68844 38.07297 
L 166.798009 35.41185 
L 166.950107 32.75073 
L 167.053553 31.399343 
L 167.124727 30.08961 
L 167.314059 27.42849 
L 167.564519 24.76737 
L 167.894433 22.10625 
" clip-path="url(#pe6c174fbbe)" style="fill: none; stroke: #d6e6f4; stroke-width: 1.5"/>
    <path d="M 171.704763 288.21825 
L 170.624753 287.195996 
L 169.266313 285.55713 
L 168.839153 285.000223 
L 167.053553 283.520051 
L 165.232241 283.818223 
L 163.446641 285.338202 
L 163.240794 285.55713 
L 161.661041 287.190838 
L 160.38195 288.21825 
" clip-path="url(#pe6c174fbbe)" style="fill: none; stroke: #d6e6f4; stroke-width: 1.5"/>
    <path d="M 189.578538 288.21825 
L 188.587889 287.310933 
L 187.130388 285.55713 
L 186.766577 285.081013 
L 184.980977 283.548201 
L 183.195377 283.75354 
L 181.409777 285.237082 
L 181.109903 285.55713 
L 179.588465 287.12738 
L 178.255599 288.21825 
" clip-path="url(#pe6c174fbbe)" style="fill: none; stroke: #d6e6f4; stroke-width: 1.5"/>
    <path d="M 260.332421 22.10625 
L 260.369009 22.207767 
L 262.154609 23.252364 
L 263.940209 22.466841 
L 264.548961 22.10625 
" clip-path="url(#pe6c174fbbe)" style="fill: none; stroke: #d6e6f4; stroke-width: 1.5"/>
    <path d="M 271.362898 22.10625 
L 272.903921 24.198479 
L 273.182883 24.76737 
L 274.245348 27.42849 
L 274.987435 30.08961 
L 275.542982 32.75073 
L 275.930653 35.41185 
L 276.379598 40.73409 
L 276.588404 46.49985 
L 276.575771 51.82209 
L 276.232734 59.80545 
L 275.731162 65.12769 
L 275.348094 67.78881 
L 274.316099 73.11105 
L 273.669287 75.77217 
L 271.893542 81.09441 
L 270.682317 83.75553 
L 269.14095 86.41665 
L 267.547121 88.552719 
L 265.725809 90.205501 
L 263.051383 92.18241 
L 262.154609 93.120644 
L 261.242383 94.84353 
L 260.328025 97.50465 
L 259.939946 100.16577 
L 259.485439 105.48801 
L 259.275067 110.81025 
L 259.155249 121.45473 
L 259.140696 175.12065 
L 259.020116 223.90785 
L 258.733286 231.89121 
L 258.170613 239.87457 
L 257.504468 245.19681 
L 256.452753 250.51905 
L 255.812449 253.18017 
L 254.031215 258.50241 
L 252.80725 261.16353 
L 251.227014 263.82465 
L 249.583985 265.858483 
L 247.798385 267.041674 
L 246.012785 267.438705 
L 244.191473 266.855708 
L 242.405873 265.427254 
L 240.620273 263.253856 
L 238.834673 261.503695 
L 237.013361 261.427019 
L 235.227761 262.836472 
L 233.442161 264.67661 
L 231.656561 266.250626 
L 229.835249 267.233137 
L 228.049649 267.484253 
L 226.264049 266.834291 
L 224.478449 265.357071 
L 222.657137 263.127973 
L 220.871537 261.444632 
L 219.085937 261.467747 
L 217.300337 262.919393 
L 215.479025 264.829447 
L 213.693425 266.425709 
L 211.907825 267.55887 
L 210.122225 268.212389 
L 208.300913 268.599296 
L 206.515313 269.336316 
L 206.280739 269.59041 
L 204.729713 271.460778 
L 202.944113 275.233794 
L 202.056562 277.57377 
L 199.337201 283.423682 
L 197.551601 286.297965 
L 195.766334 288.21825 
L 195.766334 288.21825 
" clip-path="url(#pe6c174fbbe)" style="fill: none; stroke: #d6e6f4; stroke-width: 1.5"/>
   </g>
   <g id="PathCollection_3">
    <path d="M 256.344544 22.10625 
L 256.967245 27.42849 
L 257.41558 30.08961 
L 257.983713 32.75073 
L 258.547697 34.77357 
L 260.369009 35.063638 
L 264.67012 30.08961 
L 265.725809 29.142887 
L 267.547121 28.429386 
L 269.332721 28.924349 
L 270.36885 30.08961 
L 271.118321 31.113227 
L 271.812664 32.75073 
L 272.903921 36.655525 
L 273.176737 38.07297 
L 273.548446 40.73409 
L 273.796028 43.39521 
L 274.032991 49.16097 
L 273.976559 54.48321 
L 273.663263 59.80545 
L 273.013426 65.12769 
L 271.996998 70.44993 
L 271.118321 73.559477 
L 270.321719 75.77217 
L 269.086188 78.43329 
L 267.547121 80.794701 
L 265.725809 82.426656 
L 263.940209 83.085961 
L 262.154609 83.164758 
L 260.369009 83.409428 
L 260.052374 83.75553 
L 258.49483 86.41665 
L 257.903708 89.52129 
L 257.259568 94.84353 
L 256.902689 100.16577 
L 256.677332 108.14913 
L 256.596382 124.11585 
L 256.489877 223.90785 
L 256.233157 231.89121 
L 255.857595 237.21345 
L 255.18549 242.53569 
L 254.147468 247.85793 
L 253.190897 251.193539 
L 252.45692 253.18017 
L 251.209675 255.84129 
L 249.583985 258.191951 
L 247.798385 259.505398 
L 246.012785 259.573472 
L 244.191473 258.265136 
L 242.405873 255.524354 
L 240.620273 251.914735 
L 238.834673 249.981843 
L 238.141314 250.51905 
L 237.013361 251.235228 
L 235.227761 253.970268 
L 233.442161 256.649689 
L 231.656561 258.613873 
L 229.835249 259.677131 
L 228.049649 259.58792 
L 226.264049 258.203727 
L 224.478449 255.393249 
L 223.303953 253.18017 
L 222.657137 251.722854 
L 220.871537 249.974434 
L 220.239976 250.51905 
L 219.085937 251.334453 
L 217.300337 254.099118 
L 215.479025 256.831225 
L 213.693425 258.812043 
L 211.907825 259.960093 
L 210.122225 260.234739 
L 206.515313 259.274726 
L 204.729713 260.088267 
L 202.944113 263.958653 
L 201.191433 269.59041 
L 199.281692 274.91265 
L 197.551601 278.400574 
L 195.766001 280.689739 
L 193.944689 281.797418 
L 192.159089 281.65031 
L 190.373489 280.149937 
L 188.587889 277.214507 
L 186.766577 273.587048 
L 184.905581 272.25153 
L 183.195377 273.748918 
L 182.532884 274.91265 
L 179.588465 279.198087 
L 177.802865 281.039119 
L 176.017265 281.908131 
L 174.231665 281.652862 
L 172.410353 280.026843 
L 170.624753 277.001697 
L 168.839153 273.470961 
L 166.995233 272.25153 
L 165.232241 273.900062 
L 164.664119 274.91265 
L 161.661041 279.277707 
L 159.875441 281.06974 
L 158.054129 281.859835 
L 156.268529 281.396396 
L 155.226739 280.23489 
L 154.482929 279.230439 
L 153.775757 277.57377 
L 152.697329 273.797277 
L 152.392032 272.25153 
L 152.003118 269.59041 
L 151.5133 263.82465 
L 151.24908 255.84129 
L 151.210479 245.19681 
L 151.360733 237.21345 
L 151.608649 231.89121 
L 152.070331 226.56897 
L 152.941903 220.80321 
L 153.488459 218.14209 
L 154.482929 214.568713 
L 155.101033 212.81985 
L 156.268529 210.124188 
L 158.054129 207.349367 
L 159.875441 205.719837 
L 161.661041 205.064831 
L 164.601498 204.83649 
L 165.232241 204.729656 
L 167.053553 201.949378 
L 167.548203 199.51425 
L 168.258454 194.19201 
L 168.653144 188.86977 
L 168.859808 183.54753 
L 168.98879 172.45953 
L 169.008031 135.20385 
L 169.137671 40.73409 
L 169.441658 32.75073 
L 169.87784 27.42849 
L 170.647945 22.10625 
L 170.647945 22.10625 
" clip-path="url(#pe6c174fbbe)" style="fill: none; stroke: #abd0e6; stroke-width: 1.5"/>
   </g>
   <g id="PathCollection_4">
    <path d="M 183.400997 22.10625 
L 184.059065 24.76737 
L 184.587429 27.42849 
L 184.980977 29.913811 
L 185.127449 30.08961 
L 186.766577 32.263056 
L 187.212953 30.08961 
L 188.005776 27.42849 
L 188.587889 26.043764 
L 188.876381 24.76737 
L 189.667646 22.10625 
" clip-path="url(#pe6c174fbbe)" style="fill: none; stroke: #6aaed6; stroke-width: 1.5"/>
    <path d="M 201.247674 22.10625 
L 201.923844 24.76737 
L 202.469325 27.42849 
L 202.906321 30.08961 
L 202.944113 30.383587 
L 204.729713 32.020353 
L 205.108896 30.08961 
L 205.858329 27.42849 
L 206.515313 25.781868 
L 206.743232 24.76737 
L 207.523697 22.10625 
" clip-path="url(#pe6c174fbbe)" style="fill: none; stroke: #6aaed6; stroke-width: 1.5"/>
    <path d="M 219.07946 22.10625 
L 219.085937 22.140162 
L 219.772039 24.76737 
L 220.33545 27.42849 
L 220.788845 30.08961 
L 220.871537 30.707448 
L 222.657137 31.840297 
L 222.986359 30.08961 
L 223.697436 27.42849 
L 224.478449 25.384495 
L 224.616032 24.76737 
L 225.381874 22.10625 
" clip-path="url(#pe6c174fbbe)" style="fill: none; stroke: #6aaed6; stroke-width: 1.5"/>
    <path d="M 236.941242 22.10625 
L 237.013361 22.48383 
L 237.628358 24.76737 
L 238.212975 27.42849 
L 238.685752 30.08961 
L 238.834673 31.151729 
L 240.620273 31.546083 
L 240.884335 30.08961 
L 241.562587 27.42849 
L 242.405873 25.122663 
L 242.484876 24.76737 
L 243.243193 22.10625 
" clip-path="url(#pe6c174fbbe)" style="fill: none; stroke: #6aaed6; stroke-width: 1.5"/>
    <path d="M 253.906455 22.10625 
L 254.507531 27.42849 
L 255.874585 43.39521 
L 256.764693 51.82209 
L 258.547697 53.698959 
L 258.827457 51.82209 
L 259.441487 49.16097 
L 260.396822 46.49985 
L 261.300156 43.39521 
L 262.392968 40.73409 
L 263.940209 37.679665 
L 265.725809 35.524983 
L 267.547121 34.893508 
L 268.335909 35.41185 
L 269.332721 36.211966 
L 270.179599 38.07297 
L 271.118321 41.238561 
L 271.463701 43.39521 
L 271.775303 46.49985 
L 271.961436 51.82209 
L 271.797193 57.14433 
L 271.268086 62.46657 
L 270.814725 65.12769 
L 270.211229 67.78881 
L 269.332721 70.754277 
L 267.547121 74.333943 
L 265.725809 76.039 
L 263.940209 76.169389 
L 263.317172 75.77217 
L 262.154609 74.795228 
L 260.96883 73.11105 
L 260.369009 71.74035 
L 259.544598 70.44993 
L 258.547697 67.049067 
L 258.17775 67.78881 
L 256.762097 71.164076 
L 255.233413 89.52129 
L 254.906414 97.50465 
L 254.734165 108.14913 
L 254.683056 129.43809 
L 254.565359 223.90785 
L 254.261637 231.89121 
L 253.813535 237.21345 
L 253.190897 241.530839 
L 253.000818 242.53569 
L 252.375113 245.19681 
L 251.369585 248.455896 
L 249.583985 251.803634 
L 247.693961 253.18017 
L 246.012785 252.803291 
L 244.191473 250.205835 
L 243.297768 247.85793 
L 241.853199 242.53569 
L 241.26342 239.87457 
L 240.620273 235.998105 
L 238.834673 233.687471 
L 238.684076 234.55233 
L 238.030303 237.21345 
L 237.013361 239.980764 
L 236.359521 242.53569 
L 235.227761 245.676468 
L 234.36713 247.85793 
L 232.946905 250.51905 
L 231.656561 252.296995 
L 229.835249 253.377792 
L 228.049649 252.778537 
L 226.264049 250.067848 
L 225.432312 247.85793 
L 223.997332 242.53569 
L 223.389846 239.87457 
L 222.657137 235.542153 
L 220.871537 233.96699 
L 220.773991 234.55233 
L 220.154309 237.21345 
L 219.085937 240.226067 
L 218.500054 242.53569 
L 217.300337 245.879576 
L 216.519607 247.85793 
L 215.134744 250.51905 
L 213.693425 252.505923 
L 211.907825 253.649405 
L 210.122225 253.407152 
L 209.835095 253.18017 
L 208.300913 251.59812 
L 207.558206 250.51905 
L 206.246654 247.85793 
L 205.001751 245.19681 
L 204.729713 244.166499 
L 202.944113 247.98496 
L 202.188921 253.18017 
L 200.679133 261.16353 
L 200.097182 263.82465 
L 199.264795 266.92929 
L 198.362349 269.59041 
L 197.166691 272.25153 
L 195.766001 274.396112 
L 193.944689 275.473719 
L 192.159089 274.761394 
L 190.373489 271.809502 
L 189.576532 269.59041 
L 188.083323 263.82465 
L 187.477848 261.16353 
L 186.766577 256.99367 
L 184.980977 256.619188 
L 184.621393 258.50241 
L 183.900851 261.16353 
L 183.195377 263.009128 
L 183.006693 263.82465 
L 182.053671 266.92929 
L 180.983437 269.59041 
L 179.588465 272.444305 
L 177.802865 274.7513 
L 176.017265 275.570979 
L 174.231665 274.725096 
L 172.410353 271.545767 
L 171.714682 269.59041 
L 170.993031 266.92929 
L 170.246268 263.82465 
L 169.619658 261.16353 
L 168.839153 256.735005 
L 167.053553 256.817782 
L 166.743584 258.50241 
L 166.054927 261.16353 
L 165.133206 263.82465 
L 164.194377 266.92929 
L 163.12118 269.59041 
L 161.661041 272.543336 
L 159.875441 274.767167 
L 158.054129 275.4421 
L 156.268529 274.169664 
L 155.378784 272.25153 
L 154.482929 269.419934 
L 154.051827 266.92929 
L 153.477926 261.16353 
L 153.240274 255.84129 
L 153.1346 247.85793 
L 153.227675 239.87457 
L 153.432669 234.55233 
L 153.835294 229.23009 
L 154.56858 223.90785 
L 155.246593 220.80321 
L 156.268529 217.344163 
L 158.054129 213.781625 
L 159.875441 212.085196 
L 161.661041 211.948112 
L 163.446641 213.27094 
L 164.934361 215.48097 
L 165.232241 216.18046 
L 166.428984 218.14209 
L 167.053553 220.095327 
L 168.183601 218.14209 
L 168.839153 216.534953 
L 170.144279 202.17537 
L 170.579907 194.19201 
L 170.790585 186.20865 
L 170.908208 172.45953 
L 170.919844 118.79361 
L 170.969203 46.49985 
L 171.148498 38.07297 
L 171.427272 32.75073 
L 171.947858 27.42849 
L 172.410353 24.414408 
L 172.894676 22.10625 
L 172.894676 22.10625 
" clip-path="url(#pe6c174fbbe)" style="fill: none; stroke: #6aaed6; stroke-width: 1.5"/>
   </g>
   <g id="PathCollection_5">
    <path d="M 179.971523 22.10625 
L 180.737938 24.76737 
L 181.409777 28.401852 
L 181.864063 32.75073 
L 182.158049 38.07297 
L 182.328307 46.49985 
L 182.375494 67.78881 
L 182.223219 245.19681 
L 181.978893 250.51905 
L 181.472846 255.84129 
L 181.069804 258.50241 
L 180.535314 261.16353 
L 179.588465 264.559177 
L 177.802865 267.933615 
L 176.017265 268.643228 
L 174.231665 266.342544 
L 173.513416 263.82465 
L 172.986672 261.16353 
L 172.35221 255.84129 
L 172.032002 250.51905 
L 171.848983 242.53569 
L 171.826218 229.23009 
L 172.015407 215.48097 
L 172.712435 183.54753 
L 172.771053 159.15393 
L 172.883809 43.39521 
L 173.059583 38.07297 
L 173.418553 32.75073 
L 174.086148 27.42849 
L 174.231665 26.643234 
L 174.75035 24.76737 
L 175.662083 22.10625 
L 175.662083 22.10625 
" clip-path="url(#pe6c174fbbe)" style="fill: none; stroke: #3787c0; stroke-width: 1.5"/>
    <path d="M 197.876512 22.10625 
L 198.616264 24.76737 
L 199.337201 28.908489 
L 199.727273 32.75073 
L 200.021656 38.07297 
L 200.1924 46.49985 
L 200.239768 67.78881 
L 200.062093 242.53569 
L 199.829597 247.85793 
L 199.337201 253.755543 
L 198.665812 258.50241 
L 198.144053 261.16353 
L 197.467988 263.82465 
L 195.766001 267.558509 
L 193.944689 268.565142 
L 192.159089 266.487987 
L 191.378925 263.82465 
L 190.842832 261.16353 
L 190.373489 257.591097 
L 190.016465 253.18017 
L 189.796419 247.85793 
L 189.667384 237.21345 
L 189.646034 196.85313 
L 189.794838 43.39521 
L 190.031383 38.07297 
L 190.517117 32.75073 
L 190.889602 30.08961 
L 191.388394 27.42849 
L 192.159089 24.409269 
L 193.147886 22.10625 
L 193.147886 22.10625 
" clip-path="url(#pe6c174fbbe)" style="fill: none; stroke: #3787c0; stroke-width: 1.5"/>
    <path d="M 215.742591 22.10625 
L 216.470583 24.76737 
L 216.98021 27.42849 
L 217.336569 30.08961 
L 217.756177 35.41185 
L 218.013887 43.39521 
L 218.093461 57.14433 
L 218.100397 132.09921 
L 217.994777 220.80321 
L 217.794204 226.56897 
L 217.384546 231.89121 
L 216.626532 237.21345 
L 216.052704 239.87457 
L 215.23587 242.53569 
L 213.693425 245.672317 
L 211.907825 246.792891 
L 210.040065 245.19681 
L 209.116135 242.53569 
L 208.531687 239.87457 
L 208.158632 237.21345 
L 207.758852 231.89121 
L 207.55305 223.90785 
L 207.501088 204.83649 
L 207.547719 49.16097 
L 207.744684 40.73409 
L 208.087236 35.41185 
L 208.746789 30.08961 
L 209.248901 27.42849 
L 210.122225 24.095317 
L 211.009011 22.10625 
L 211.009011 22.10625 
" clip-path="url(#pe6c174fbbe)" style="fill: none; stroke: #3787c0; stroke-width: 1.5"/>
    <path d="M 233.616033 22.10625 
L 234.331647 24.76737 
L 234.834098 27.42849 
L 235.434774 32.75073 
L 235.733683 38.07297 
L 235.907578 46.49985 
L 235.955925 67.78881 
L 235.763774 223.90785 
L 235.476625 229.23009 
L 234.911851 234.55233 
L 234.479973 237.21345 
L 233.442161 241.533739 
L 233.05228 242.53569 
L 231.656561 245.437474 
L 229.835249 246.521346 
L 228.049649 244.752001 
L 227.321416 242.53569 
L 226.703902 239.87457 
L 226.264049 237.145991 
L 225.779726 231.89121 
L 225.534608 226.56897 
L 225.398756 218.14209 
L 225.364471 191.53089 
L 225.406148 49.16097 
L 225.600503 40.73409 
L 225.93801 35.41185 
L 226.600982 30.08961 
L 227.106715 27.42849 
L 228.049649 23.890546 
L 228.866436 22.10625 
L 228.866436 22.10625 
" clip-path="url(#pe6c174fbbe)" style="fill: none; stroke: #3787c0; stroke-width: 1.5"/>
    <path d="M 251.070106 22.10625 
L 251.369585 22.795098 
L 251.787602 24.76737 
L 252.491028 30.08961 
L 252.887235 35.41185 
L 253.25245 43.39521 
L 253.628829 57.14433 
L 253.653374 67.78881 
L 253.367379 81.09441 
L 252.932951 100.16577 
L 252.829962 118.79361 
L 252.685611 223.90785 
L 252.473148 229.23009 
L 252.050768 234.55233 
L 251.369585 239.34372 
L 251.238467 239.87457 
L 250.419072 242.53569 
L 249.583985 244.739822 
L 247.798385 246.310387 
L 246.012785 244.874634 
L 245.21138 242.53569 
L 244.573188 239.87457 
L 244.134806 237.21345 
L 243.643016 231.89121 
L 243.398324 226.56897 
L 243.26289 218.14209 
L 243.228745 191.53089 
L 243.266894 49.16097 
L 243.461078 40.73409 
L 243.796598 35.41185 
L 244.46308 30.08961 
L 244.976192 27.42849 
L 246.012785 23.63485 
L 246.757158 22.10625 
L 246.757158 22.10625 
" clip-path="url(#pe6c174fbbe)" style="fill: none; stroke: #3787c0; stroke-width: 1.5"/>
    <path d="M 156.074127 263.82465 
L 155.68547 261.16353 
L 155.422031 258.50241 
L 155.245819 255.84129 
L 155.131617 253.18017 
L 155.063298 250.51905 
L 155.031314 247.85793 
L 155.030995 245.19681 
L 155.061539 242.53569 
L 155.125579 239.87457 
L 155.229167 237.21345 
L 155.381902 234.55233 
L 155.597002 231.89121 
L 155.891311 229.23009 
L 156.268529 226.681202 
L 156.292792 226.56897 
L 157.015993 223.90785 
L 158.054129 220.881397 
L 158.120573 220.80321 
L 159.875441 218.968639 
L 161.661041 219.851897 
L 162.140172 220.80321 
L 163.162816 223.90785 
L 163.446641 225.288262 
L 163.662482 226.56897 
L 163.966828 229.23009 
L 164.163711 231.89121 
L 164.287295 234.55233 
L 164.357868 237.21345 
L 164.386699 239.87457 
L 164.378681 242.53569 
L 164.333657 245.19681 
L 164.24686 247.85793 
L 164.108772 250.51905 
L 163.904666 253.18017 
L 163.613864 255.84129 
L 163.446641 256.956965 
L 163.208056 258.50241 
L 162.665862 261.16353 
L 161.957218 263.82465 
L 161.661041 264.696963 
L 160.487277 266.92929 
L 159.875441 267.908115 
L 158.054129 268.303327 
L 157.190477 266.92929 
L 156.268529 264.76467 
L 156.074127 263.82465 
z
" clip-path="url(#pe6c174fbbe)" style="fill: none; stroke: #3787c0; stroke-width: 1.5"/>
    <path d="M 263.823445 67.78881 
L 262.915079 65.12769 
L 262.416282 62.46657 
L 262.187763 59.80545 
L 262.159572 57.14433 
L 262.29982 54.48321 
L 262.600052 51.82209 
L 263.068758 49.16097 
L 263.730248 46.49985 
L 263.940209 45.866023 
L 265.205624 43.39521 
L 265.725809 42.561822 
L 267.547121 42.234988 
L 268.23281 43.39521 
L 269.332721 46.375607 
L 269.355301 46.49985 
L 269.656466 49.16097 
L 269.795663 51.82209 
L 269.798966 54.48321 
L 269.67763 57.14433 
L 269.43159 59.80545 
L 269.332721 60.504809 
L 268.929341 62.46657 
L 268.199894 65.12769 
L 267.547121 67.006922 
L 266.88026 67.78881 
L 265.725809 68.99292 
L 263.940209 68.020791 
L 263.823445 67.78881 
z
" clip-path="url(#pe6c174fbbe)" style="fill: none; stroke: #3787c0; stroke-width: 1.5"/>
   </g>
   <g id="PathCollection_6">
    <path d="M 157.887125 253.18017 
L 157.699861 250.51905 
L 157.595947 247.85793 
L 157.55906 245.19681 
L 157.582153 242.53569 
L 157.665284 239.87457 
L 157.814597 237.21345 
L 158.04184 234.55233 
L 158.054129 234.451278 
L 159.182679 231.89121 
L 159.875441 230.598823 
L 160.284881 231.89121 
L 160.821402 234.55233 
L 161.13806 237.21345 
L 161.304031 239.87457 
L 161.354665 242.53569 
L 161.305136 245.19681 
L 161.157228 247.85793 
L 160.902806 250.51905 
L 160.526096 253.18017 
L 160.005891 255.84129 
L 159.875441 256.338149 
L 159.124597 255.84129 
L 158.054129 254.687263 
L 157.887125 253.18017 
z
" clip-path="url(#pe6c174fbbe)" style="fill: none; stroke: #105ba4; stroke-width: 1.5"/>
    <path d="M 175.81755 255.84129 
L 175.411195 253.18017 
L 175.142047 250.51905 
L 174.967237 247.85793 
L 174.857859 245.19681 
L 174.793219 242.53569 
L 174.757648 239.87457 
L 174.739157 237.21345 
L 174.729251 234.55233 
L 174.723101 231.89121 
L 174.719368 229.23009 
L 174.719261 226.56897 
L 174.724968 223.90785 
L 174.740978 220.80321 
L 174.762555 218.14209 
L 174.789647 215.48097 
L 174.82009 212.81985 
L 174.852331 210.15873 
L 174.886009 207.49761 
L 174.921699 204.83649 
L 174.960023 202.17537 
L 175.000672 199.51425 
L 175.041932 196.85313 
L 175.080988 194.19201 
L 175.114852 191.53089 
L 175.141484 188.86977 
L 175.160576 186.20865 
L 175.173607 183.54753 
L 175.183106 180.88641 
L 175.191469 178.22529 
L 175.201336 175.12065 
L 175.209409 172.45953 
L 175.215601 169.79841 
L 175.218549 167.13729 
L 175.217979 164.47617 
L 175.215052 161.81505 
L 175.211889 159.15393 
L 175.210528 156.49281 
L 175.21189 153.83169 
L 175.215338 151.17057 
L 175.219066 148.50945 
L 175.221085 145.84833 
L 175.220314 143.18721 
L 175.217174 140.52609 
L 175.213374 137.86497 
L 175.210979 135.20385 
L 175.211611 132.09921 
L 175.214749 129.43809 
L 175.218545 126.77697 
L 175.220944 124.11585 
L 175.220643 121.45473 
L 175.217802 118.79361 
L 175.213962 116.13249 
L 175.21121 113.47137 
L 175.211035 110.81025 
L 175.213528 108.14913 
L 175.217339 105.48801 
L 175.220406 102.82689 
L 175.221067 100.16577 
L 175.218958 97.50465 
L 175.215223 94.84353 
L 175.211891 92.18241 
L 175.210768 89.52129 
L 175.212971 86.41665 
L 175.2167 83.75553 
L 175.220035 81.09441 
L 175.221171 78.43329 
L 175.219501 75.77217 
L 175.215951 73.11105 
L 175.212507 70.44993 
L 175.211157 67.78881 
L 175.212883 65.12769 
L 175.217266 62.46657 
L 175.222958 59.80545 
L 175.228838 57.14433 
L 175.235335 54.48321 
L 175.245376 51.82209 
L 175.26463 49.16097 
L 175.301121 46.49985 
L 175.378715 43.39521 
L 175.488597 40.73409 
L 175.653193 38.07297 
L 175.889391 35.41185 
L 176.017265 34.377074 
L 176.88767 32.75073 
L 177.802865 31.362424 
L 178.188825 32.75073 
L 178.686069 35.41185 
L 179.009386 38.07297 
L 179.21595 40.73409 
L 179.343138 43.39521 
L 179.425829 46.49985 
L 179.462366 49.16097 
L 179.482249 51.82209 
L 179.495034 54.48321 
L 179.505719 57.14433 
L 179.515331 59.80545 
L 179.522442 62.46657 
L 179.525245 65.12769 
L 179.523309 67.78881 
L 179.518238 70.44993 
L 179.513043 73.11105 
L 179.510663 75.77217 
L 179.512458 78.43329 
L 179.517489 81.09441 
L 179.523035 83.75553 
L 179.526086 86.41665 
L 179.52442 89.52129 
L 179.519409 92.18241 
L 179.51388 94.84353 
L 179.510822 97.50465 
L 179.511898 100.16577 
L 179.516536 102.82689 
L 179.522215 105.48801 
L 179.525848 108.14913 
L 179.525468 110.81025 
L 179.521293 113.47137 
L 179.515583 116.13249 
L 179.511422 118.79361 
L 179.511067 121.45473 
L 179.514721 124.11585 
L 179.520404 126.77697 
L 179.525025 129.43809 
L 179.526076 132.09921 
L 179.522176 135.20385 
L 179.516509 137.86497 
L 179.511892 140.52609 
L 179.510825 143.18721 
L 179.5139 145.84833 
L 179.519454 148.50945 
L 179.524471 151.17057 
L 179.526236 153.83169 
L 179.523818 156.49281 
L 179.518561 159.15393 
L 179.513354 161.81505 
L 179.511093 164.47617 
L 179.513137 167.13729 
L 179.51858 169.79841 
L 179.52475 172.45953 
L 179.528709 175.12065 
L 179.528576 178.22529 
L 179.525385 180.88641 
L 179.522219 183.54753 
L 179.522087 186.20865 
L 179.526607 188.86977 
L 179.535106 191.53089 
L 179.544944 194.19201 
L 179.552923 196.85313 
L 179.556981 199.51425 
L 179.55721 202.17537 
L 179.555689 204.83649 
L 179.55527 207.49761 
L 179.557994 210.15873 
L 179.563959 212.81985 
L 179.57123 215.48097 
L 179.576866 218.14209 
L 179.578483 220.80321 
L 179.574546 223.90785 
L 179.567715 226.56897 
L 179.559826 229.23009 
L 179.551632 231.89121 
L 179.540919 234.55233 
L 179.521648 237.21345 
L 179.484122 239.87457 
L 179.415775 242.53569 
L 179.301833 245.19681 
L 179.12529 247.85793 
L 178.866347 250.51905 
L 178.501963 253.18017 
L 178.006107 255.84129 
L 177.802865 256.659648 
L 176.017265 256.744634 
L 175.81755 255.84129 
z
" clip-path="url(#pe6c174fbbe)" style="fill: none; stroke: #105ba4; stroke-width: 1.5"/>
    <path d="M 193.721132 255.84129 
L 193.29093 253.18017 
L 193.007384 250.51905 
L 192.823787 247.85793 
L 192.709022 245.19681 
L 192.641016 242.53569 
L 192.603146 239.87457 
L 192.582691 237.21345 
L 192.570529 234.55233 
L 192.561254 231.89121 
L 192.552952 229.23009 
L 192.54622 226.56897 
L 192.542571 223.90785 
L 192.54324 220.80321 
L 192.547036 218.14209 
L 192.551417 215.48097 
L 192.553888 212.81985 
L 192.553045 210.15873 
L 192.549313 207.49761 
L 192.544705 204.83649 
L 192.541722 202.17537 
L 192.541974 199.51425 
L 192.545318 196.85313 
L 192.549943 194.19201 
L 192.553349 191.53089 
L 192.553688 188.86977 
L 192.550769 186.20865 
L 192.546175 183.54753 
L 192.542404 180.88641 
L 192.5415 178.22529 
L 192.544609 175.12065 
L 192.549191 172.45953 
L 192.552962 169.79841 
L 192.553877 167.13729 
L 192.551433 164.47617 
L 192.546954 161.81505 
L 192.542874 159.15393 
L 192.541408 156.49281 
L 192.543343 153.83169 
L 192.547627 151.17057 
L 192.551945 148.50945 
L 192.55396 145.84833 
L 192.552573 143.18721 
L 192.548532 140.52609 
L 192.544033 137.86497 
L 192.541519 135.20385 
L 192.542808 132.09921 
L 192.546841 129.43809 
L 192.551332 126.77697 
L 192.553852 124.11585 
L 192.553031 121.45473 
L 192.549308 118.79361 
L 192.544704 116.13249 
L 192.541722 113.47137 
L 192.541975 110.81025 
L 192.545319 108.14913 
L 192.549944 105.48801 
L 192.55335 102.82689 
L 192.553688 100.16577 
L 192.55077 97.50465 
L 192.546176 94.84353 
L 192.542405 92.18241 
L 192.541501 89.52129 
L 192.54461 86.41665 
L 192.549194 83.75553 
L 192.552969 81.09441 
L 192.553894 78.43329 
L 192.551475 75.77217 
L 192.547056 73.11105 
L 192.543112 70.44993 
L 192.541946 67.78881 
L 192.544524 65.12769 
L 192.55014 62.46657 
L 192.557126 59.80545 
L 192.564312 57.14433 
L 192.572609 54.48321 
L 192.586065 51.82209 
L 192.612041 49.16097 
L 192.660699 46.49985 
L 192.762707 43.39521 
L 192.905603 40.73409 
L 193.117988 38.07297 
L 193.42067 35.41185 
L 193.838071 32.75073 
L 193.944689 32.246462 
L 195.766001 30.891627 
L 196.217829 32.75073 
L 196.65155 35.41185 
L 196.935874 38.07297 
L 197.118572 40.73409 
L 197.231534 43.39521 
L 197.305233 46.49985 
L 197.337899 49.16097 
L 197.355716 51.82209 
L 197.36717 54.48321 
L 197.376713 57.14433 
L 197.385271 59.80545 
L 197.391591 62.46657 
L 197.394083 65.12769 
L 197.392369 67.78881 
L 197.387875 70.44993 
L 197.383271 73.11105 
L 197.381167 75.77217 
L 197.382762 78.43329 
L 197.387224 81.09441 
L 197.392139 83.75553 
L 197.39484 86.41665 
L 197.39336 89.52129 
L 197.388916 92.18241 
L 197.384015 94.84353 
L 197.381307 97.50465 
L 197.382266 100.16577 
L 197.386379 102.82689 
L 197.391412 105.48801 
L 197.394629 108.14913 
L 197.39429 110.81025 
L 197.390586 113.47137 
L 197.385524 116.13249 
L 197.381838 118.79361 
L 197.381528 121.45473 
L 197.38477 124.11585 
L 197.389808 126.77697 
L 197.393901 129.43809 
L 197.39483 132.09921 
L 197.391369 135.20385 
L 197.386344 137.86497 
L 197.382253 140.52609 
L 197.381311 143.18721 
L 197.384038 145.84833 
L 197.388958 148.50945 
L 197.393395 151.17057 
L 197.394942 153.83169 
L 197.392767 156.49281 
L 197.388054 159.15393 
L 197.38335 161.81505 
L 197.3812 164.47617 
L 197.382776 167.13729 
L 197.38723 169.79841 
L 197.392141 172.45953 
L 197.394841 175.12065 
L 197.39336 178.22529 
L 197.388916 180.88641 
L 197.384015 183.54753 
L 197.381307 186.20865 
L 197.382266 188.86977 
L 197.386379 191.53089 
L 197.391412 194.19201 
L 197.394629 196.85313 
L 197.394289 199.51425 
L 197.390583 202.17537 
L 197.385516 204.83649 
L 197.38182 207.49761 
L 197.381485 210.15873 
L 197.38467 212.81985 
L 197.38958 215.48097 
L 197.393397 218.14209 
L 197.393748 220.80321 
L 197.388828 223.90785 
L 197.381218 226.56897 
L 197.372196 229.23009 
L 197.362132 231.89121 
L 197.348522 234.55233 
L 197.325182 237.21345 
L 197.28247 239.87457 
L 197.208202 242.53569 
L 197.088543 245.19681 
L 196.908384 247.85793 
L 196.651238 250.51905 
L 196.299142 253.18017 
L 195.832884 255.84129 
L 195.766001 256.131815 
L 193.944689 256.792104 
L 193.721132 255.84129 
z
" clip-path="url(#pe6c174fbbe)" style="fill: none; stroke: #105ba4; stroke-width: 1.5"/>
    <path d="M 211.695739 234.55233 
L 211.190391 231.89121 
L 210.868938 229.23009 
L 210.666227 226.56897 
L 210.541987 223.90785 
L 210.461329 220.80321 
L 210.426336 218.14209 
L 210.408676 215.48097 
L 210.398894 212.81985 
L 210.391323 210.15873 
L 210.383908 207.49761 
L 210.377316 204.83649 
L 210.373352 202.17537 
L 210.373256 199.51425 
L 210.376625 196.85313 
L 210.381421 194.19201 
L 210.384955 191.53089 
L 210.385266 188.86977 
L 210.382159 186.20865 
L 210.37731 183.54753 
L 210.373353 180.88641 
L 210.372432 178.22529 
L 210.375739 175.12065 
L 210.380573 172.45953 
L 210.384529 169.79841 
L 210.385461 167.13729 
L 210.382858 164.47617 
L 210.378128 161.81505 
L 210.373843 159.15393 
L 210.372329 156.49281 
L 210.374398 153.83169 
L 210.378926 151.17057 
L 210.383465 148.50945 
L 210.385559 145.84833 
L 210.384067 143.18721 
L 210.379792 140.52609 
L 210.375057 137.86497 
L 210.372435 135.20385 
L 210.37383 132.09921 
L 210.378097 129.43809 
L 210.382822 126.77697 
L 210.385452 124.11585 
L 210.384555 121.45473 
L 210.380611 118.79361 
L 210.375762 116.13249 
L 210.372643 113.47137 
L 210.372943 110.81025 
L 210.37649 108.14913 
L 210.381365 105.48801 
L 210.384932 102.82689 
L 210.385257 100.16577 
L 210.382156 97.50465 
L 210.377309 94.84353 
L 210.373353 92.18241 
L 210.372432 89.52129 
L 210.37574 86.41665 
L 210.380576 83.75553 
L 210.384536 81.09441 
L 210.385479 78.43329 
L 210.382903 75.77217 
L 210.378235 73.11105 
L 210.374094 70.44993 
L 210.372896 67.78881 
L 210.375643 65.12769 
L 210.381574 62.46657 
L 210.388925 59.80545 
L 210.39647 57.14433 
L 210.405185 54.48321 
L 210.41935 51.82209 
L 210.446724 49.16097 
L 210.497986 46.49985 
L 210.605336 43.39521 
L 210.755494 40.73409 
L 210.978279 38.07297 
L 211.295088 35.41185 
L 211.730763 32.75073 
L 211.907825 31.946243 
L 213.693425 31.020763 
L 214.094987 32.75073 
L 214.511547 35.41185 
L 214.785333 38.07297 
L 214.961609 40.73409 
L 215.070774 43.39521 
L 215.142101 46.49985 
L 215.173752 49.16097 
L 215.191015 51.82209 
L 215.202089 54.48321 
L 215.211296 57.14433 
L 215.21955 59.80545 
L 215.225659 62.46657 
L 215.22809 65.12769 
L 215.226467 67.78881 
L 215.22215 70.44993 
L 215.217709 73.11105 
L 215.215658 75.77217 
L 215.217169 78.43329 
L 215.221452 81.09441 
L 215.226191 83.75553 
L 215.228814 86.41665 
L 215.22742 89.52129 
L 215.223153 92.18241 
L 215.218428 94.84353 
L 215.215798 97.50465 
L 215.216695 100.16577 
L 215.220639 102.82689 
L 215.225488 105.48801 
L 215.228607 108.14913 
L 215.228307 110.81025 
L 215.22476 113.47137 
L 215.219885 116.13249 
L 215.216318 118.79361 
L 215.215993 121.45473 
L 215.219094 124.11585 
L 215.223941 126.77697 
L 215.227897 129.43809 
L 215.228818 132.09921 
L 215.225511 135.20385 
L 215.220677 137.86497 
L 215.216721 140.52609 
L 215.215789 143.18721 
L 215.218392 145.84833 
L 215.223122 148.50945 
L 215.227407 151.17057 
L 215.228921 153.83169 
L 215.226852 156.49281 
L 215.222324 159.15393 
L 215.217785 161.81505 
L 215.215691 164.47617 
L 215.217183 167.13729 
L 215.221458 169.79841 
L 215.226193 172.45953 
L 215.228815 175.12065 
L 215.227419 178.22529 
L 215.223152 180.88641 
L 215.218424 183.54753 
L 215.215788 186.20865 
L 215.216669 188.86977 
L 215.220575 191.53089 
L 215.225335 194.19201 
L 215.22825 196.85313 
L 215.227506 199.51425 
L 215.223017 202.17537 
L 215.216216 204.83649 
L 215.208834 207.49761 
L 215.201211 210.15873 
L 215.190841 212.81985 
L 215.171726 215.48097 
L 215.134637 218.14209 
L 215.067845 220.80321 
L 214.933945 223.90785 
L 214.752798 226.56897 
L 214.490322 229.23009 
L 214.124184 231.89121 
L 213.693425 234.203211 
L 213.191585 234.55233 
L 211.907825 235.303933 
L 211.695739 234.55233 
z
" clip-path="url(#pe6c174fbbe)" style="fill: none; stroke: #105ba4; stroke-width: 1.5"/>
    <path d="M 229.678275 234.55233 
L 229.144007 231.89121 
L 228.792327 229.23009 
L 228.563591 226.56897 
L 228.419062 223.90785 
L 228.321656 220.80321 
L 228.277141 218.14209 
L 228.253211 215.48097 
L 228.239382 212.81985 
L 228.229198 210.15873 
L 228.220087 207.49761 
L 228.212426 204.83649 
L 228.20787 202.17537 
L 228.207546 199.51425 
L 228.210931 196.85313 
L 228.215845 194.19201 
L 228.219464 191.53089 
L 228.219744 188.86977 
L 228.216489 186.20865 
L 228.211446 183.54753 
L 228.207351 180.88641 
L 228.206421 178.22529 
L 228.209881 175.12065 
L 228.214906 172.45953 
L 228.218997 169.79841 
L 228.219939 167.13729 
L 228.217212 164.47617 
L 228.212292 161.81505 
L 228.207855 159.15393 
L 228.206308 156.49281 
L 228.208483 153.83169 
L 228.213196 151.17057 
L 228.2179 148.50945 
L 228.22005 145.84833 
L 228.218474 143.18721 
L 228.21402 140.52609 
L 228.209109 137.86497 
L 228.206409 135.20385 
L 228.20789 132.09921 
L 228.212334 129.43809 
L 228.217235 126.77697 
L 228.219943 124.11585 
L 228.218984 121.45473 
L 228.214871 118.79361 
L 228.209838 116.13249 
L 228.206621 113.47137 
L 228.20696 110.81025 
L 228.210664 108.14913 
L 228.215726 105.48801 
L 228.219412 102.82689 
L 228.219722 100.16577 
L 228.21648 97.50465 
L 228.211442 94.84353 
L 228.207349 92.18241 
L 228.206421 89.52129 
L 228.209882 86.41665 
L 228.214908 83.75553 
L 228.219004 81.09441 
L 228.219957 78.43329 
L 228.217258 75.77217 
L 228.212403 73.11105 
L 228.208115 70.44993 
L 228.206898 67.78881 
L 228.209776 65.12769 
L 228.215946 62.46657 
L 228.22357 59.80545 
L 228.231381 57.14433 
L 228.240405 54.48321 
L 228.2551 51.82209 
L 228.283527 49.16097 
L 228.336749 46.49985 
L 228.448112 43.39521 
L 228.60371 40.73409 
L 228.834269 38.07297 
L 229.161605 35.41185 
L 229.610852 32.75073 
L 229.835249 31.75987 
L 231.656561 31.243731 
L 231.984325 32.75073 
L 232.377829 35.41185 
L 232.637373 38.07297 
L 232.804923 40.73409 
L 232.908905 43.39521 
L 232.976975 46.49985 
L 233.007225 49.16097 
L 233.023723 51.82209 
L 233.034282 54.48321 
L 233.043036 57.14433 
L 233.050884 59.80545 
L 233.056707 62.46657 
L 233.059049 65.12769 
L 233.057541 67.78881 
L 233.053458 70.44993 
L 233.049234 73.11105 
L 233.047261 75.77217 
L 233.048666 78.43329 
L 233.052714 81.09441 
L 233.057216 83.75553 
L 233.059731 86.41665 
L 233.058443 89.52129 
L 233.05441 92.18241 
L 233.049919 94.84353 
L 233.047398 97.50465 
L 233.048219 100.16577 
L 233.051943 102.82689 
L 233.056547 105.48801 
L 233.059528 108.14913 
L 233.059275 110.81025 
L 233.055931 113.47137 
L 233.051306 116.13249 
L 233.0479 118.79361 
L 233.047562 121.45473 
L 233.05048 124.11585 
L 233.055074 126.77697 
L 233.058845 129.43809 
L 233.059749 132.09921 
L 233.056641 135.20385 
L 233.052059 137.86497 
L 233.048288 140.52609 
L 233.047373 143.18721 
L 233.049817 145.84833 
L 233.054296 148.50945 
L 233.058376 151.17057 
L 233.059842 153.83169 
L 233.057907 156.49281 
L 233.053623 159.15393 
L 233.049305 161.81505 
L 233.04729 164.47617 
L 233.048677 167.13729 
L 233.052718 169.79841 
L 233.057217 172.45953 
L 233.05973 175.12065 
L 233.058442 178.22529 
L 233.054408 180.88641 
L 233.049914 183.54753 
L 233.047387 186.20865 
L 233.048192 188.86977 
L 233.051877 191.53089 
L 233.05639 194.19201 
L 233.059169 196.85313 
L 233.058474 199.51425 
L 233.054201 202.17537 
L 233.047684 204.83649 
L 233.040548 207.49761 
L 233.033101 210.15873 
L 233.022944 212.81985 
L 233.00434 215.48097 
L 232.96844 218.14209 
L 232.903937 220.80321 
L 232.774619 223.90785 
L 232.599356 226.56897 
L 232.344651 229.23009 
L 231.987881 231.89121 
L 231.656561 233.705266 
L 230.630963 234.55233 
L 229.835249 235.095281 
L 229.678275 234.55233 
z
" clip-path="url(#pe6c174fbbe)" style="fill: none; stroke: #105ba4; stroke-width: 1.5"/>
    <path d="M 247.753133 234.55233 
L 247.137358 231.89121 
L 246.735958 229.23009 
L 246.476661 226.56897 
L 246.313616 223.90785 
L 246.204155 220.80321 
L 246.154296 218.14209 
L 246.127565 215.48097 
L 246.112138 212.81985 
L 246.100755 210.15873 
L 246.090535 207.49761 
L 246.081922 204.83649 
L 246.076795 202.17537 
L 246.076435 199.51425 
L 246.080255 196.85313 
L 246.085799 194.19201 
L 246.089885 191.53089 
L 246.090207 188.86977 
L 246.086539 186.20865 
L 246.08085 183.54753 
L 246.076227 180.88641 
L 246.075175 178.22529 
L 246.079075 175.12065 
L 246.084741 172.45953 
L 246.089359 169.79841 
L 246.090426 167.13729 
L 246.087354 164.47617 
L 246.081805 161.81505 
L 246.076796 159.15393 
L 246.075048 156.49281 
L 246.077498 153.83169 
L 246.082812 151.17057 
L 246.088119 148.50945 
L 246.090548 145.84833 
L 246.088774 143.18721 
L 246.083748 140.52609 
L 246.078199 137.86497 
L 246.075136 135.20385 
L 246.07677 132.09921 
L 246.081729 129.43809 
L 246.087167 126.77697 
L 246.09007 124.11585 
L 246.088742 121.45473 
L 246.083713 118.79361 
L 246.077444 116.13249 
L 246.072955 113.47137 
L 246.072124 110.81025 
L 246.074645 108.14913 
L 246.078179 105.48801 
L 246.0796 102.82689 
L 246.076676 100.16577 
L 246.069289 97.50465 
L 246.059538 94.84353 
L 246.050632 92.18241 
L 246.04518 89.52129 
L 246.043959 86.41665 
L 246.04545 83.75553 
L 246.046346 81.09441 
L 246.044394 78.43329 
L 246.03917 75.77217 
L 246.032358 73.11105 
L 246.026893 70.44993 
L 246.025426 67.78881 
L 246.029008 65.12769 
L 246.03675 62.46657 
L 246.046672 59.80545 
L 246.057405 57.14433 
L 246.070012 54.48321 
L 246.089206 51.82209 
L 246.123582 49.16097 
L 246.185015 46.49985 
L 246.310209 43.39521 
L 246.482664 40.73409 
L 246.735949 38.07297 
L 247.092821 35.41185 
L 247.578781 32.75073 
L 247.798385 31.84884 
L 249.583985 32.429762 
L 249.641395 32.75073 
L 249.982074 35.41185 
L 250.220754 38.07297 
L 250.390202 40.73409 
L 250.511685 43.39521 
L 250.611939 46.49985 
L 250.674193 49.16097 
L 250.72264 51.82209 
L 250.762228 54.48321 
L 250.795113 57.14433 
L 250.820912 59.80545 
L 250.83773 62.46657 
L 250.843686 65.12769 
L 250.838238 67.78881 
L 250.822661 70.44993 
L 250.799553 73.11105 
L 250.771715 75.77217 
L 250.741065 78.43329 
L 250.708179 81.09441 
L 250.672685 83.75553 
L 250.634245 86.41665 
L 250.586621 89.52129 
L 250.545829 92.18241 
L 250.508234 94.84353 
L 250.476647 97.50465 
L 250.452598 100.16577 
L 250.435768 102.82689 
L 250.424216 105.48801 
L 250.415321 108.14913 
L 250.406989 110.81025 
L 250.398508 113.47137 
L 250.390634 116.13249 
L 250.384908 118.79361 
L 250.382565 121.45473 
L 250.383645 124.11585 
L 250.386771 126.77697 
L 250.389756 129.43809 
L 250.390686 132.09921 
L 250.38837 135.20385 
L 250.384595 137.86497 
L 250.38124 140.52609 
L 250.3801 143.18721 
L 250.381784 145.84833 
L 250.385376 148.50945 
L 250.38892 151.17057 
L 250.390493 153.83169 
L 250.389246 156.49281 
L 250.385856 159.15393 
L 250.382158 161.81505 
L 250.380153 164.47617 
L 250.380931 167.13729 
L 250.384074 169.79841 
L 250.387875 172.45953 
L 250.390271 175.12065 
L 250.389639 178.22529 
L 250.386499 180.88641 
L 250.382702 183.54753 
L 250.380298 186.20865 
L 250.380587 188.86977 
L 250.383399 191.53089 
L 250.387172 194.19201 
L 250.389774 196.85313 
L 250.38962 199.51425 
L 250.386434 202.17537 
L 250.38121 204.83649 
L 250.375351 207.49761 
L 250.369359 210.15873 
L 250.36163 212.81985 
L 250.347851 215.48097 
L 250.321107 218.14209 
L 250.272403 220.80321 
L 250.173499 223.90785 
L 250.038174 226.56897 
L 249.840092 229.23009 
L 249.583985 231.668702 
L 249.478439 231.89121 
L 247.897745 234.55233 
L 247.798385 234.688755 
L 247.753133 234.55233 
z
" clip-path="url(#pe6c174fbbe)" style="fill: none; stroke: #105ba4; stroke-width: 1.5"/>
   </g>
   <g id="PathCollection_7"/>
   <g id="patch_3">
    <path d="M 34.240625 288.21825 
L 34.240625 22.10625 
" style="fill: none; stroke: #000000; stroke-width: 0.8; stroke-linejoin: miter; stroke-linecap: square"/>
   </g>
   <g id="patch_4">
    <path d="M 391.360625 288.21825 
L 391.360625 22.10625 
" style="fill: none; stroke: #000000; stroke-width: 0.8; stroke-linejoin: miter; stroke-linecap: square"/>
   </g>
   <g id="patch_5">
    <path d="M 34.240625 288.21825 
L 391.360625 288.21825 
" style="fill: none; stroke: #000000; stroke-width: 0.8; stroke-linejoin: miter; stroke-linecap: square"/>
   </g>
   <g id="patch_6">
    <path d="M 34.240625 22.10625 
L 391.360625 22.10625 
" style="fill: none; stroke: #000000; stroke-width: 0.8; stroke-linejoin: miter; stroke-linecap: square"/>
   </g>
   <g id="text_16">
    <!-- 6.5_cross_-35.0 -->
    <g transform="translate(166.181563 16.10625)scale(0.12 -0.12)">
     <defs>
      <path id="DejaVuSans-2e" d="M 684 794 
L 1344 794 
L 1344 0 
L 684 0 
L 684 794 
z
" transform="scale(0.015625)"/>
      <path id="DejaVuSans-5f" d="M 3263 -1063 
L 3263 -1509 
L -63 -1509 
L -63 -1063 
L 3263 -1063 
z
" transform="scale(0.015625)"/>
      <path id="DejaVuSans-63" d="M 3122 3366 
L 3122 2828 
Q 2878 2963 2633 3030 
Q 2388 3097 2138 3097 
Q 1578 3097 1268 2742 
Q 959 2388 959 1747 
Q 959 1106 1268 751 
Q 1578 397 2138 397 
Q 2388 397 2633 464 
Q 2878 531 3122 666 
L 3122 134 
Q 2881 22 2623 -34 
Q 2366 -91 2075 -91 
Q 1284 -91 818 406 
Q 353 903 353 1747 
Q 353 2603 823 3093 
Q 1294 3584 2113 3584 
Q 2378 3584 2631 3529 
Q 2884 3475 3122 3366 
z
" transform="scale(0.015625)"/>
      <path id="DejaVuSans-72" d="M 2631 2963 
Q 2534 3019 2420 3045 
Q 2306 3072 2169 3072 
Q 1681 3072 1420 2755 
Q 1159 2438 1159 1844 
L 1159 0 
L 581 0 
L 581 3500 
L 1159 3500 
L 1159 2956 
Q 1341 3275 1631 3429 
Q 1922 3584 2338 3584 
Q 2397 3584 2469 3576 
Q 2541 3569 2628 3553 
L 2631 2963 
z
" transform="scale(0.015625)"/>
      <path id="DejaVuSans-73" d="M 2834 3397 
L 2834 2853 
Q 2591 2978 2328 3040 
Q 2066 3103 1784 3103 
Q 1356 3103 1142 2972 
Q 928 2841 928 2578 
Q 928 2378 1081 2264 
Q 1234 2150 1697 2047 
L 1894 2003 
Q 2506 1872 2764 1633 
Q 3022 1394 3022 966 
Q 3022 478 2636 193 
Q 2250 -91 1575 -91 
Q 1294 -91 989 -36 
Q 684 19 347 128 
L 347 722 
Q 666 556 975 473 
Q 1284 391 1588 391 
Q 1994 391 2212 530 
Q 2431 669 2431 922 
Q 2431 1156 2273 1281 
Q 2116 1406 1581 1522 
L 1381 1569 
Q 847 1681 609 1914 
Q 372 2147 372 2553 
Q 372 3047 722 3315 
Q 1072 3584 1716 3584 
Q 2034 3584 2315 3537 
Q 2597 3491 2834 3397 
z
" transform="scale(0.015625)"/>
      <path id="DejaVuSans-2d" d="M 313 2009 
L 1997 2009 
L 1997 1497 
L 313 1497 
L 313 2009 
z
" transform="scale(0.015625)"/>
     </defs>
     <use xlink:href="#DejaVuSans-36"/>
     <use xlink:href="#DejaVuSans-2e" x="63.623047"/>
     <use xlink:href="#DejaVuSans-35" x="95.410156"/>
     <use xlink:href="#DejaVuSans-5f" x="159.033203"/>
     <use xlink:href="#DejaVuSans-63" x="209.033203"/>
     <use xlink:href="#DejaVuSans-72" x="264.013672"/>
     <use xlink:href="#DejaVuSans-6f" x="302.876953"/>
     <use xlink:href="#DejaVuSans-73" x="364.058594"/>
     <use xlink:href="#DejaVuSans-73" x="416.158203"/>
     <use xlink:href="#DejaVuSans-5f" x="468.257812"/>
     <use xlink:href="#DejaVuSans-2d" x="518.257812"/>
     <use xlink:href="#DejaVuSans-33" x="554.341797"/>
     <use xlink:href="#DejaVuSans-35" x="617.964844"/>
     <use xlink:href="#DejaVuSans-2e" x="681.587891"/>
     <use xlink:href="#DejaVuSans-30" x="713.375"/>
    </g>
   </g>
  </g>
 </g>
 <defs>
  <clipPath id="pe6c174fbbe">
   <rect x="34.240625" y="22.10625" width="357.12" height="266.112"/>
  </clipPath>
 </defs>
</svg>
