<?xml version="1.0" encoding="utf-8" standalone="no"?>
<!DOCTYPE svg PUBLIC "-//W3C//DTD SVG 1.1//EN"
  "http://www.w3.org/Graphics/SVG/1.1/DTD/svg11.dtd">
<svg xmlns:xlink="http://www.w3.org/1999/xlink" width="408.104375pt" height="325.7745pt" viewBox="0 0 408.104375 325.7745" xmlns="http://www.w3.org/2000/svg" version="1.1">
 <metadata>
  <rdf:RDF xmlns:dc="http://purl.org/dc/elements/1.1/" xmlns:cc="http://creativecommons.org/ns#" xmlns:rdf="http://www.w3.org/1999/02/22-rdf-syntax-ns#">
   <cc:Work>
    <dc:type rdf:resource="http://purl.org/dc/dcmitype/StillImage"/>
    <dc:date>2024-07-12T12:30:22.714527</dc:date>
    <dc:format>image/svg+xml</dc:format>
    <dc:creator>
     <cc:Agent>
      <dc:title>Matplotlib v3.5.3, https://matplotlib.org/</dc:title>
     </cc:Agent>
    </dc:creator>
   </cc:Work>
  </rdf:RDF>
 </metadata>
 <defs>
  <style type="text/css">*{stroke-linejoin: round; stroke-linecap: butt}</style>
 </defs>
 <g id="figure_1">
  <g id="patch_1">
   <path d="M 0 325.7745 
L 408.104375 325.7745 
L 408.104375 0 
L 0 0 
z
" style="fill: #ffffff"/>
  </g>
  <g id="axes_1">
   <g id="patch_2">
    <path d="M 34.240625 288.21825 
L 391.360625 288.21825 
L 391.360625 22.10625 
L 34.240625 22.10625 
z
" style="fill: #ffffff"/>
   </g>
   <g id="matplotlib.axis_1">
    <g id="xtick_1">
     <g id="line2d_1">
      <defs>
       <path id="m930a52e697" d="M 0 0 
L 0 3.5 
" style="stroke: #000000; stroke-width: 0.8"/>
      </defs>
      <g>
       <use xlink:href="#m930a52e697" x="34.240625" y="288.21825" style="stroke: #000000; stroke-width: 0.8"/>
      </g>
     </g>
     <g id="text_1">
      <!-- 0 -->
      <g transform="translate(31.059375 302.816687)scale(0.1 -0.1)">
       <defs>
        <path id="DejaVuSans-30" d="M 2034 4250 
Q 1547 4250 1301 3770 
Q 1056 3291 1056 2328 
Q 1056 1369 1301 889 
Q 1547 409 2034 409 
Q 2525 409 2770 889 
Q 3016 1369 3016 2328 
Q 3016 3291 2770 3770 
Q 2525 4250 2034 4250 
z
M 2034 4750 
Q 2819 4750 3233 4129 
Q 3647 3509 3647 2328 
Q 3647 1150 3233 529 
Q 2819 -91 2034 -91 
Q 1250 -91 836 529 
Q 422 1150 422 2328 
Q 422 3509 836 4129 
Q 1250 4750 2034 4750 
z
" transform="scale(0.015625)"/>
       </defs>
       <use xlink:href="#DejaVuSans-30"/>
      </g>
     </g>
    </g>
    <g id="xtick_2">
     <g id="line2d_2">
      <g>
       <use xlink:href="#m930a52e697" x="105.664625" y="288.21825" style="stroke: #000000; stroke-width: 0.8"/>
      </g>
     </g>
     <g id="text_2">
      <!-- 20 -->
      <g transform="translate(99.302125 302.816687)scale(0.1 -0.1)">
       <defs>
        <path id="DejaVuSans-32" d="M 1228 531 
L 3431 531 
L 3431 0 
L 469 0 
L 469 531 
Q 828 903 1448 1529 
Q 2069 2156 2228 2338 
Q 2531 2678 2651 2914 
Q 2772 3150 2772 3378 
Q 2772 3750 2511 3984 
Q 2250 4219 1831 4219 
Q 1534 4219 1204 4116 
Q 875 4013 500 3803 
L 500 4441 
Q 881 4594 1212 4672 
Q 1544 4750 1819 4750 
Q 2544 4750 2975 4387 
Q 3406 4025 3406 3419 
Q 3406 3131 3298 2873 
Q 3191 2616 2906 2266 
Q 2828 2175 2409 1742 
Q 1991 1309 1228 531 
z
" transform="scale(0.015625)"/>
       </defs>
       <use xlink:href="#DejaVuSans-32"/>
       <use xlink:href="#DejaVuSans-30" x="63.623047"/>
      </g>
     </g>
    </g>
    <g id="xtick_3">
     <g id="line2d_3">
      <g>
       <use xlink:href="#m930a52e697" x="177.088625" y="288.21825" style="stroke: #000000; stroke-width: 0.8"/>
      </g>
     </g>
     <g id="text_3">
      <!-- 40 -->
      <g transform="translate(170.726125 302.816687)scale(0.1 -0.1)">
       <defs>
        <path id="DejaVuSans-34" d="M 2419 4116 
L 825 1625 
L 2419 1625 
L 2419 4116 
z
M 2253 4666 
L 3047 4666 
L 3047 1625 
L 3713 1625 
L 3713 1100 
L 3047 1100 
L 3047 0 
L 2419 0 
L 2419 1100 
L 313 1100 
L 313 1709 
L 2253 4666 
z
" transform="scale(0.015625)"/>
       </defs>
       <use xlink:href="#DejaVuSans-34"/>
       <use xlink:href="#DejaVuSans-30" x="63.623047"/>
      </g>
     </g>
    </g>
    <g id="xtick_4">
     <g id="line2d_4">
      <g>
       <use xlink:href="#m930a52e697" x="248.512625" y="288.21825" style="stroke: #000000; stroke-width: 0.8"/>
      </g>
     </g>
     <g id="text_4">
      <!-- 60 -->
      <g transform="translate(242.150125 302.816687)scale(0.1 -0.1)">
       <defs>
        <path id="DejaVuSans-36" d="M 2113 2584 
Q 1688 2584 1439 2293 
Q 1191 2003 1191 1497 
Q 1191 994 1439 701 
Q 1688 409 2113 409 
Q 2538 409 2786 701 
Q 3034 994 3034 1497 
Q 3034 2003 2786 2293 
Q 2538 2584 2113 2584 
z
M 3366 4563 
L 3366 3988 
Q 3128 4100 2886 4159 
Q 2644 4219 2406 4219 
Q 1781 4219 1451 3797 
Q 1122 3375 1075 2522 
Q 1259 2794 1537 2939 
Q 1816 3084 2150 3084 
Q 2853 3084 3261 2657 
Q 3669 2231 3669 1497 
Q 3669 778 3244 343 
Q 2819 -91 2113 -91 
Q 1303 -91 875 529 
Q 447 1150 447 2328 
Q 447 3434 972 4092 
Q 1497 4750 2381 4750 
Q 2619 4750 2861 4703 
Q 3103 4656 3366 4563 
z
" transform="scale(0.015625)"/>
       </defs>
       <use xlink:href="#DejaVuSans-36"/>
       <use xlink:href="#DejaVuSans-30" x="63.623047"/>
      </g>
     </g>
    </g>
    <g id="xtick_5">
     <g id="line2d_5">
      <g>
       <use xlink:href="#m930a52e697" x="319.936625" y="288.21825" style="stroke: #000000; stroke-width: 0.8"/>
      </g>
     </g>
     <g id="text_5">
      <!-- 80 -->
      <g transform="translate(313.574125 302.816687)scale(0.1 -0.1)">
       <defs>
        <path id="DejaVuSans-38" d="M 2034 2216 
Q 1584 2216 1326 1975 
Q 1069 1734 1069 1313 
Q 1069 891 1326 650 
Q 1584 409 2034 409 
Q 2484 409 2743 651 
Q 3003 894 3003 1313 
Q 3003 1734 2745 1975 
Q 2488 2216 2034 2216 
z
M 1403 2484 
Q 997 2584 770 2862 
Q 544 3141 544 3541 
Q 544 4100 942 4425 
Q 1341 4750 2034 4750 
Q 2731 4750 3128 4425 
Q 3525 4100 3525 3541 
Q 3525 3141 3298 2862 
Q 3072 2584 2669 2484 
Q 3125 2378 3379 2068 
Q 3634 1759 3634 1313 
Q 3634 634 3220 271 
Q 2806 -91 2034 -91 
Q 1263 -91 848 271 
Q 434 634 434 1313 
Q 434 1759 690 2068 
Q 947 2378 1403 2484 
z
M 1172 3481 
Q 1172 3119 1398 2916 
Q 1625 2713 2034 2713 
Q 2441 2713 2670 2916 
Q 2900 3119 2900 3481 
Q 2900 3844 2670 4047 
Q 2441 4250 2034 4250 
Q 1625 4250 1398 4047 
Q 1172 3844 1172 3481 
z
" transform="scale(0.015625)"/>
       </defs>
       <use xlink:href="#DejaVuSans-38"/>
       <use xlink:href="#DejaVuSans-30" x="63.623047"/>
      </g>
     </g>
    </g>
    <g id="xtick_6">
     <g id="line2d_6">
      <g>
       <use xlink:href="#m930a52e697" x="391.360625" y="288.21825" style="stroke: #000000; stroke-width: 0.8"/>
      </g>
     </g>
     <g id="text_6">
      <!-- 100 -->
      <g transform="translate(381.816875 302.816687)scale(0.1 -0.1)">
       <defs>
        <path id="DejaVuSans-31" d="M 794 531 
L 1825 531 
L 1825 4091 
L 703 3866 
L 703 4441 
L 1819 4666 
L 2450 4666 
L 2450 531 
L 3481 531 
L 3481 0 
L 794 0 
L 794 531 
z
" transform="scale(0.015625)"/>
       </defs>
       <use xlink:href="#DejaVuSans-31"/>
       <use xlink:href="#DejaVuSans-30" x="63.623047"/>
       <use xlink:href="#DejaVuSans-30" x="127.246094"/>
      </g>
     </g>
    </g>
    <g id="text_7">
     <!-- axialRotation -->
     <g transform="translate(180.024844 316.494812)scale(0.1 -0.1)">
      <defs>
       <path id="DejaVuSans-61" d="M 2194 1759 
Q 1497 1759 1228 1600 
Q 959 1441 959 1056 
Q 959 750 1161 570 
Q 1363 391 1709 391 
Q 2188 391 2477 730 
Q 2766 1069 2766 1631 
L 2766 1759 
L 2194 1759 
z
M 3341 1997 
L 3341 0 
L 2766 0 
L 2766 531 
Q 2569 213 2275 61 
Q 1981 -91 1556 -91 
Q 1019 -91 701 211 
Q 384 513 384 1019 
Q 384 1609 779 1909 
Q 1175 2209 1959 2209 
L 2766 2209 
L 2766 2266 
Q 2766 2663 2505 2880 
Q 2244 3097 1772 3097 
Q 1472 3097 1187 3025 
Q 903 2953 641 2809 
L 641 3341 
Q 956 3463 1253 3523 
Q 1550 3584 1831 3584 
Q 2591 3584 2966 3190 
Q 3341 2797 3341 1997 
z
" transform="scale(0.015625)"/>
       <path id="DejaVuSans-78" d="M 3513 3500 
L 2247 1797 
L 3578 0 
L 2900 0 
L 1881 1375 
L 863 0 
L 184 0 
L 1544 1831 
L 300 3500 
L 978 3500 
L 1906 2253 
L 2834 3500 
L 3513 3500 
z
" transform="scale(0.015625)"/>
       <path id="DejaVuSans-69" d="M 603 3500 
L 1178 3500 
L 1178 0 
L 603 0 
L 603 3500 
z
M 603 4863 
L 1178 4863 
L 1178 4134 
L 603 4134 
L 603 4863 
z
" transform="scale(0.015625)"/>
       <path id="DejaVuSans-6c" d="M 603 4863 
L 1178 4863 
L 1178 0 
L 603 0 
L 603 4863 
z
" transform="scale(0.015625)"/>
       <path id="DejaVuSans-52" d="M 2841 2188 
Q 3044 2119 3236 1894 
Q 3428 1669 3622 1275 
L 4263 0 
L 3584 0 
L 2988 1197 
Q 2756 1666 2539 1819 
Q 2322 1972 1947 1972 
L 1259 1972 
L 1259 0 
L 628 0 
L 628 4666 
L 2053 4666 
Q 2853 4666 3247 4331 
Q 3641 3997 3641 3322 
Q 3641 2881 3436 2590 
Q 3231 2300 2841 2188 
z
M 1259 4147 
L 1259 2491 
L 2053 2491 
Q 2509 2491 2742 2702 
Q 2975 2913 2975 3322 
Q 2975 3731 2742 3939 
Q 2509 4147 2053 4147 
L 1259 4147 
z
" transform="scale(0.015625)"/>
       <path id="DejaVuSans-6f" d="M 1959 3097 
Q 1497 3097 1228 2736 
Q 959 2375 959 1747 
Q 959 1119 1226 758 
Q 1494 397 1959 397 
Q 2419 397 2687 759 
Q 2956 1122 2956 1747 
Q 2956 2369 2687 2733 
Q 2419 3097 1959 3097 
z
M 1959 3584 
Q 2709 3584 3137 3096 
Q 3566 2609 3566 1747 
Q 3566 888 3137 398 
Q 2709 -91 1959 -91 
Q 1206 -91 779 398 
Q 353 888 353 1747 
Q 353 2609 779 3096 
Q 1206 3584 1959 3584 
z
" transform="scale(0.015625)"/>
       <path id="DejaVuSans-74" d="M 1172 4494 
L 1172 3500 
L 2356 3500 
L 2356 3053 
L 1172 3053 
L 1172 1153 
Q 1172 725 1289 603 
Q 1406 481 1766 481 
L 2356 481 
L 2356 0 
L 1766 0 
Q 1100 0 847 248 
Q 594 497 594 1153 
L 594 3053 
L 172 3053 
L 172 3500 
L 594 3500 
L 594 4494 
L 1172 4494 
z
" transform="scale(0.015625)"/>
       <path id="DejaVuSans-6e" d="M 3513 2113 
L 3513 0 
L 2938 0 
L 2938 2094 
Q 2938 2591 2744 2837 
Q 2550 3084 2163 3084 
Q 1697 3084 1428 2787 
Q 1159 2491 1159 1978 
L 1159 0 
L 581 0 
L 581 3500 
L 1159 3500 
L 1159 2956 
Q 1366 3272 1645 3428 
Q 1925 3584 2291 3584 
Q 2894 3584 3203 3211 
Q 3513 2838 3513 2113 
z
" transform="scale(0.015625)"/>
      </defs>
      <use xlink:href="#DejaVuSans-61"/>
      <use xlink:href="#DejaVuSans-78" x="61.279297"/>
      <use xlink:href="#DejaVuSans-69" x="120.458984"/>
      <use xlink:href="#DejaVuSans-61" x="148.242188"/>
      <use xlink:href="#DejaVuSans-6c" x="209.521484"/>
      <use xlink:href="#DejaVuSans-52" x="237.304688"/>
      <use xlink:href="#DejaVuSans-6f" x="302.287109"/>
      <use xlink:href="#DejaVuSans-74" x="363.46875"/>
      <use xlink:href="#DejaVuSans-61" x="402.677734"/>
      <use xlink:href="#DejaVuSans-74" x="463.957031"/>
      <use xlink:href="#DejaVuSans-69" x="503.166016"/>
      <use xlink:href="#DejaVuSans-6f" x="530.949219"/>
      <use xlink:href="#DejaVuSans-6e" x="592.130859"/>
     </g>
    </g>
   </g>
   <g id="matplotlib.axis_2">
    <g id="ytick_1">
     <g id="line2d_7">
      <defs>
       <path id="m5d182ca930" d="M 0 0 
L -3.5 0 
" style="stroke: #000000; stroke-width: 0.8"/>
      </defs>
      <g>
       <use xlink:href="#m5d182ca930" x="34.240625" y="288.21825" style="stroke: #000000; stroke-width: 0.8"/>
      </g>
     </g>
     <g id="text_8">
      <!-- 0 -->
      <g transform="translate(20.878125 292.017469)scale(0.1 -0.1)">
       <use xlink:href="#DejaVuSans-30"/>
      </g>
     </g>
    </g>
    <g id="ytick_2">
     <g id="line2d_8">
      <g>
       <use xlink:href="#m5d182ca930" x="34.240625" y="243.86625" style="stroke: #000000; stroke-width: 0.8"/>
      </g>
     </g>
     <g id="text_9">
      <!-- 1 -->
      <g transform="translate(20.878125 247.665469)scale(0.1 -0.1)">
       <use xlink:href="#DejaVuSans-31"/>
      </g>
     </g>
    </g>
    <g id="ytick_3">
     <g id="line2d_9">
      <g>
       <use xlink:href="#m5d182ca930" x="34.240625" y="199.51425" style="stroke: #000000; stroke-width: 0.8"/>
      </g>
     </g>
     <g id="text_10">
      <!-- 2 -->
      <g transform="translate(20.878125 203.313469)scale(0.1 -0.1)">
       <use xlink:href="#DejaVuSans-32"/>
      </g>
     </g>
    </g>
    <g id="ytick_4">
     <g id="line2d_10">
      <g>
       <use xlink:href="#m5d182ca930" x="34.240625" y="155.16225" style="stroke: #000000; stroke-width: 0.8"/>
      </g>
     </g>
     <g id="text_11">
      <!-- 3 -->
      <g transform="translate(20.878125 158.961469)scale(0.1 -0.1)">
       <defs>
        <path id="DejaVuSans-33" d="M 2597 2516 
Q 3050 2419 3304 2112 
Q 3559 1806 3559 1356 
Q 3559 666 3084 287 
Q 2609 -91 1734 -91 
Q 1441 -91 1130 -33 
Q 819 25 488 141 
L 488 750 
Q 750 597 1062 519 
Q 1375 441 1716 441 
Q 2309 441 2620 675 
Q 2931 909 2931 1356 
Q 2931 1769 2642 2001 
Q 2353 2234 1838 2234 
L 1294 2234 
L 1294 2753 
L 1863 2753 
Q 2328 2753 2575 2939 
Q 2822 3125 2822 3475 
Q 2822 3834 2567 4026 
Q 2313 4219 1838 4219 
Q 1578 4219 1281 4162 
Q 984 4106 628 3988 
L 628 4550 
Q 988 4650 1302 4700 
Q 1616 4750 1894 4750 
Q 2613 4750 3031 4423 
Q 3450 4097 3450 3541 
Q 3450 3153 3228 2886 
Q 3006 2619 2597 2516 
z
" transform="scale(0.015625)"/>
       </defs>
       <use xlink:href="#DejaVuSans-33"/>
      </g>
     </g>
    </g>
    <g id="ytick_5">
     <g id="line2d_11">
      <g>
       <use xlink:href="#m5d182ca930" x="34.240625" y="110.81025" style="stroke: #000000; stroke-width: 0.8"/>
      </g>
     </g>
     <g id="text_12">
      <!-- 4 -->
      <g transform="translate(20.878125 114.609469)scale(0.1 -0.1)">
       <use xlink:href="#DejaVuSans-34"/>
      </g>
     </g>
    </g>
    <g id="ytick_6">
     <g id="line2d_12">
      <g>
       <use xlink:href="#m5d182ca930" x="34.240625" y="66.45825" style="stroke: #000000; stroke-width: 0.8"/>
      </g>
     </g>
     <g id="text_13">
      <!-- 5 -->
      <g transform="translate(20.878125 70.257469)scale(0.1 -0.1)">
       <defs>
        <path id="DejaVuSans-35" d="M 691 4666 
L 3169 4666 
L 3169 4134 
L 1269 4134 
L 1269 2991 
Q 1406 3038 1543 3061 
Q 1681 3084 1819 3084 
Q 2600 3084 3056 2656 
Q 3513 2228 3513 1497 
Q 3513 744 3044 326 
Q 2575 -91 1722 -91 
Q 1428 -91 1123 -41 
Q 819 9 494 109 
L 494 744 
Q 775 591 1075 516 
Q 1375 441 1709 441 
Q 2250 441 2565 725 
Q 2881 1009 2881 1497 
Q 2881 1984 2565 2268 
Q 2250 2553 1709 2553 
Q 1456 2553 1204 2497 
Q 953 2441 691 2322 
L 691 4666 
z
" transform="scale(0.015625)"/>
       </defs>
       <use xlink:href="#DejaVuSans-35"/>
      </g>
     </g>
    </g>
    <g id="ytick_7">
     <g id="line2d_13">
      <g>
       <use xlink:href="#m5d182ca930" x="34.240625" y="22.10625" style="stroke: #000000; stroke-width: 0.8"/>
      </g>
     </g>
     <g id="text_14">
      <!-- 6 -->
      <g transform="translate(20.878125 25.905469)scale(0.1 -0.1)">
       <use xlink:href="#DejaVuSans-36"/>
      </g>
     </g>
    </g>
    <g id="text_15">
     <!-- zShift -->
     <g transform="translate(14.798438 169.151312)rotate(-90)scale(0.1 -0.1)">
      <defs>
       <path id="DejaVuSans-7a" d="M 353 3500 
L 3084 3500 
L 3084 2975 
L 922 459 
L 3084 459 
L 3084 0 
L 275 0 
L 275 525 
L 2438 3041 
L 353 3041 
L 353 3500 
z
" transform="scale(0.015625)"/>
       <path id="DejaVuSans-53" d="M 3425 4513 
L 3425 3897 
Q 3066 4069 2747 4153 
Q 2428 4238 2131 4238 
Q 1616 4238 1336 4038 
Q 1056 3838 1056 3469 
Q 1056 3159 1242 3001 
Q 1428 2844 1947 2747 
L 2328 2669 
Q 3034 2534 3370 2195 
Q 3706 1856 3706 1288 
Q 3706 609 3251 259 
Q 2797 -91 1919 -91 
Q 1588 -91 1214 -16 
Q 841 59 441 206 
L 441 856 
Q 825 641 1194 531 
Q 1563 422 1919 422 
Q 2459 422 2753 634 
Q 3047 847 3047 1241 
Q 3047 1584 2836 1778 
Q 2625 1972 2144 2069 
L 1759 2144 
Q 1053 2284 737 2584 
Q 422 2884 422 3419 
Q 422 4038 858 4394 
Q 1294 4750 2059 4750 
Q 2388 4750 2728 4690 
Q 3069 4631 3425 4513 
z
" transform="scale(0.015625)"/>
       <path id="DejaVuSans-68" d="M 3513 2113 
L 3513 0 
L 2938 0 
L 2938 2094 
Q 2938 2591 2744 2837 
Q 2550 3084 2163 3084 
Q 1697 3084 1428 2787 
Q 1159 2491 1159 1978 
L 1159 0 
L 581 0 
L 581 4863 
L 1159 4863 
L 1159 2956 
Q 1366 3272 1645 3428 
Q 1925 3584 2291 3584 
Q 2894 3584 3203 3211 
Q 3513 2838 3513 2113 
z
" transform="scale(0.015625)"/>
       <path id="DejaVuSans-66" d="M 2375 4863 
L 2375 4384 
L 1825 4384 
Q 1516 4384 1395 4259 
Q 1275 4134 1275 3809 
L 1275 3500 
L 2222 3500 
L 2222 3053 
L 1275 3053 
L 1275 0 
L 697 0 
L 697 3053 
L 147 3053 
L 147 3500 
L 697 3500 
L 697 3744 
Q 697 4328 969 4595 
Q 1241 4863 1831 4863 
L 2375 4863 
z
" transform="scale(0.015625)"/>
      </defs>
      <use xlink:href="#DejaVuSans-7a"/>
      <use xlink:href="#DejaVuSans-53" x="52.490234"/>
      <use xlink:href="#DejaVuSans-68" x="115.966797"/>
      <use xlink:href="#DejaVuSans-69" x="179.345703"/>
      <use xlink:href="#DejaVuSans-66" x="207.128906"/>
      <use xlink:href="#DejaVuSans-74" x="240.583984"/>
     </g>
    </g>
   </g>
   <g id="PathCollection_1"/>
   <g id="PathCollection_2">
    <path d="M 145.668621 288.21825 
L 145.519217 287.020951 
L 145.296589 285.55713 
L 144.97414 282.89601 
L 144.727057 280.23489 
L 144.539049 277.57377 
L 144.397413 274.91265 
L 144.292077 272.25153 
L 144.214967 269.59041 
L 144.159573 266.92929 
L 144.115443 263.82465 
L 144.090444 261.16353 
L 144.073837 258.50241 
L 144.063099 255.84129 
L 144.056313 253.18017 
L 144.052089 250.51905 
L 144.049476 247.85793 
L 144.047876 245.19681 
L 144.046932 242.53569 
L 144.046434 239.87457 
L 144.046237 237.21345 
L 144.046217 234.55233 
L 144.046258 231.89121 
L 144.046271 229.23009 
L 144.046215 226.56897 
L 144.046103 223.90785 
L 144.045972 220.80321 
L 144.045924 218.14209 
L 144.045964 215.48097 
L 144.046069 212.81985 
L 144.046181 210.15873 
L 144.04624 207.49761 
L 144.046213 204.83649 
L 144.046114 202.17537 
L 144.045994 199.51425 
L 144.045914 196.85313 
L 144.045906 194.19201 
L 144.045952 191.53089 
L 144.045977 188.86977 
L 144.045868 186.20865 
L 144.045486 183.54753 
L 144.04465 180.88641 
L 144.043084 178.22529 
L 144.039661 175.12065 
L 144.034295 172.45953 
L 144.024984 169.79841 
L 144.009119 167.13729 
L 143.982758 164.47617 
L 143.940198 161.81505 
L 143.873478 159.15393 
L 143.771847 156.49281 
L 143.697905 155.184847 
L 143.593699 153.83169 
L 143.300834 151.17057 
L 142.894561 148.50945 
L 142.346313 145.84833 
L 141.912305 144.24622 
L 141.534266 143.18721 
L 140.366674 140.52609 
L 140.126705 140.071249 
L 138.78121 137.86497 
L 138.341105 137.214009 
L 136.964111 135.20385 
L 136.519793 134.581445 
L 134.926536 132.09921 
L 134.734193 131.789697 
L 133.406842 129.43809 
L 132.948593 128.525566 
L 132.120729 126.77697 
L 131.162993 124.333682 
L 131.077225 124.11585 
L 130.140963 121.45473 
L 129.422421 118.79361 
L 129.341681 118.444538 
L 128.748538 116.13249 
L 128.212994 113.47137 
L 127.798207 110.81025 
L 127.556081 108.843624 
L 127.45162 108.14913 
L 127.125935 105.48801 
L 126.876803 102.82689 
L 126.688025 100.16577 
L 126.547142 97.50465 
L 126.444545 94.84353 
L 126.372924 92.18241 
L 126.326937 89.52129 
L 126.301035 86.41665 
L 126.30065 83.75553 
L 126.320427 81.09441 
L 126.362183 78.43329 
L 126.429565 75.77217 
L 126.528247 73.11105 
L 126.666243 70.44993 
L 126.854397 67.78881 
L 127.107149 65.12769 
L 127.443687 62.46657 
L 127.556081 61.752266 
L 127.819002 59.80545 
L 128.286703 57.14433 
L 128.910325 54.48321 
L 129.341681 53.013358 
L 129.685103 51.82209 
L 130.646305 49.16097 
L 131.162993 47.990565 
L 131.892569 46.49985 
L 132.948593 44.660802 
L 133.858077 43.39521 
L 134.734193 42.249721 
L 136.184876 40.73409 
L 136.519793 40.3771 
L 138.341105 38.630672 
L 138.909025 38.07297 
L 140.126705 36.671158 
L 140.980412 35.41185 
L 141.912305 33.687658 
L 142.2695 32.75073 
L 143.065837 30.08961 
L 143.697905 27.471483 
L 143.705505 27.42849 
L 144.110682 24.76737 
L 144.495966 22.10625 
" clip-path="url(#pb5a597a6ff)" style="fill: none; stroke: #dbe9f6; stroke-width: 1.5"/>
    <path d="M 279.932629 22.10625 
L 280.082033 23.303549 
L 280.304661 24.76737 
L 280.62711 27.42849 
L 280.874193 30.08961 
L 281.062201 32.75073 
L 281.203837 35.41185 
L 281.309173 38.07297 
L 281.386283 40.73409 
L 281.441677 43.39521 
L 281.485807 46.49985 
L 281.510806 49.16097 
L 281.527413 51.82209 
L 281.538151 54.48321 
L 281.544937 57.14433 
L 281.549161 59.80545 
L 281.551774 62.46657 
L 281.553374 65.12769 
L 281.554318 67.78881 
L 281.554816 70.44993 
L 281.555013 73.11105 
L 281.555033 75.77217 
L 281.554992 78.43329 
L 281.55498 81.09441 
L 281.555037 83.75553 
L 281.55515 86.41665 
L 281.555287 89.52129 
L 281.555346 92.18241 
L 281.555331 94.84353 
L 281.555283 97.50465 
L 281.555288 100.16577 
L 281.555471 102.82689 
L 281.555982 105.48801 
L 281.557023 108.14913 
L 281.558926 110.81025 
L 281.562289 113.47137 
L 281.568176 116.13249 
L 281.578367 118.79361 
L 281.595666 121.45473 
L 281.624276 124.11585 
L 281.670242 126.77697 
L 281.74195 129.43809 
L 281.850672 132.09921 
L 281.903345 132.946666 
L 282.094228 135.20385 
L 282.421878 137.86497 
L 282.872189 140.52609 
L 283.474459 143.18721 
L 283.688945 143.914134 
L 284.433767 145.84833 
L 285.474545 148.080512 
L 285.714186 148.50945 
L 287.260145 150.963334 
L 287.397573 151.17057 
L 289.081457 153.59667 
L 289.236132 153.83169 
L 290.867057 156.368734 
L 290.940167 156.49281 
L 292.415046 159.15393 
L 292.652657 159.633845 
L 293.671715 161.81505 
L 294.438257 163.805454 
L 294.698213 164.47617 
L 295.593469 167.13729 
L 296.259569 169.701301 
L 296.287236 169.79841 
L 296.951964 172.45953 
L 297.465165 175.12065 
L 297.919918 178.22529 
L 298.045169 179.308591 
L 298.268847 180.88641 
L 298.567577 183.54753 
L 298.796073 186.20865 
L 298.969438 188.86977 
L 299.099533 191.53089 
L 299.195809 194.19201 
L 299.265867 196.85313 
L 299.315844 199.51425 
L 299.350687 202.17537 
L 299.374361 204.83649 
L 299.390012 207.49761 
L 299.400086 210.15873 
L 299.406423 212.81985 
L 299.410347 215.48097 
L 299.412738 218.14209 
L 299.414136 220.80321 
L 299.414885 223.90785 
L 299.414902 226.56897 
L 299.414351 229.23009 
L 299.413134 231.89121 
L 299.411005 234.55233 
L 299.407493 237.21345 
L 299.401797 239.87457 
L 299.392691 242.53569 
L 299.378432 245.19681 
L 299.356661 247.85793 
L 299.324289 250.51905 
L 299.277339 253.18017 
L 299.21073 255.84129 
L 299.117997 258.50241 
L 298.990894 261.16353 
L 298.818867 263.82465 
L 298.543007 266.92929 
L 298.221323 269.59041 
L 298.045169 270.744337 
L 297.848285 272.25153 
L 297.402045 274.91265 
L 296.807247 277.57377 
L 296.259569 279.483035 
L 296.048384 280.23489 
L 295.132513 282.89601 
L 294.438257 284.494313 
L 293.92639 285.55713 
L 292.652657 287.773602 
L 292.340712 288.21825 
" clip-path="url(#pb5a597a6ff)" style="fill: none; stroke: #dbe9f6; stroke-width: 1.5"/>
   </g>
   <g id="PathCollection_3">
    <path d="M 149.284099 288.21825 
L 149.090417 287.063761 
L 148.821229 285.55713 
L 148.443148 282.89601 
L 148.153118 280.23489 
L 147.932441 277.57377 
L 147.766391 274.91265 
L 147.643189 272.25153 
L 147.553318 269.59041 
L 147.489061 266.92929 
L 147.438195 263.82465 
L 147.409597 261.16353 
L 147.39074 258.50241 
L 147.378629 255.84129 
L 147.371014 253.18017 
L 147.366284 250.51905 
L 147.363364 247.85793 
L 147.361586 245.19681 
L 147.360559 242.53569 
L 147.360048 239.87457 
L 147.359877 237.21345 
L 147.359887 234.55233 
L 147.359939 231.89121 
L 147.359932 229.23009 
L 147.359835 226.56897 
L 147.359681 223.90785 
L 147.359531 220.80321 
L 147.359502 218.14209 
L 147.359582 215.48097 
L 147.359728 212.81985 
L 147.359859 210.15873 
L 147.359905 207.49761 
L 147.35984 204.83649 
L 147.359699 202.17537 
L 147.359557 199.51425 
L 147.359487 196.85313 
L 147.359521 194.19201 
L 147.359626 191.53089 
L 147.359712 188.86977 
L 147.359671 186.20865 
L 147.359398 183.54753 
L 147.3588 180.88641 
L 147.357748 178.22529 
L 147.355596 175.12065 
L 147.352343 172.45953 
L 147.346767 169.79841 
L 147.337289 167.13729 
L 147.321566 164.47617 
L 147.304817 162.713736 
L 147.294524 161.81505 
L 147.24705 159.15393 
L 147.175183 156.49281 
L 147.069255 153.83169 
L 146.91687 151.17057 
L 146.702464 148.50945 
L 146.406779 145.84833 
L 146.00611 143.18721 
L 145.519217 140.759132 
L 145.459312 140.52609 
L 144.5909 137.86497 
L 143.697905 135.712133 
L 143.432874 135.20385 
L 141.912305 132.768339 
L 141.441315 132.09921 
L 140.126705 130.416455 
L 139.384705 129.43809 
L 138.341105 128.090407 
L 137.446532 126.77697 
L 136.519793 125.340723 
L 135.834898 124.11585 
L 134.734193 121.886965 
L 134.541365 121.45473 
L 133.495904 118.79361 
L 132.948593 117.087628 
L 132.650142 116.13249 
L 131.953411 113.47137 
L 131.409245 110.81025 
L 131.162993 109.309512 
L 130.95828 108.14913 
L 130.581665 105.48801 
L 130.293165 102.82689 
L 130.074677 100.16577 
L 129.912154 97.50465 
L 129.794709 94.84353 
L 129.714083 92.18241 
L 129.664334 89.52129 
L 129.640399 86.41665 
L 129.647409 83.75553 
L 129.680596 81.09441 
L 129.743016 78.43329 
L 129.840157 75.77217 
L 129.980245 73.11105 
L 130.17474 70.44993 
L 130.439082 67.78881 
L 130.793835 65.12769 
L 131.162993 63.014953 
L 131.256563 62.46657 
L 131.826221 59.80545 
L 132.585989 57.14433 
L 132.948593 56.112036 
L 133.593282 54.48321 
L 134.734193 52.177784 
L 134.953642 51.82209 
L 136.519793 49.594102 
L 136.927544 49.16097 
L 138.341105 47.717596 
L 139.868121 46.49985 
L 140.126705 46.279944 
L 141.912305 44.772206 
L 143.209848 43.39521 
L 143.697905 42.757267 
L 144.766085 40.73409 
L 145.519217 38.86984 
L 145.748751 38.07297 
L 146.360024 35.41185 
L 146.850468 32.75073 
L 147.270937 30.08961 
L 147.304817 29.857959 
L 147.602924 27.42849 
L 147.941778 24.76737 
L 148.324913 22.10625 
" clip-path="url(#pb5a597a6ff)" style="fill: none; stroke: #bad6eb; stroke-width: 1.5"/>
    <path d="M 276.317151 22.10625 
L 276.510833 23.260739 
L 276.780021 24.76737 
L 277.158102 27.42849 
L 277.448132 30.08961 
L 277.668809 32.75073 
L 277.834859 35.41185 
L 277.958061 38.07297 
L 278.047932 40.73409 
L 278.112189 43.39521 
L 278.163055 46.49985 
L 278.191653 49.16097 
L 278.21051 51.82209 
L 278.222621 54.48321 
L 278.230236 57.14433 
L 278.234966 59.80545 
L 278.237886 62.46657 
L 278.239664 65.12769 
L 278.240691 67.78881 
L 278.241202 70.44993 
L 278.241373 73.11105 
L 278.241363 75.77217 
L 278.241311 78.43329 
L 278.241318 81.09441 
L 278.241416 83.75553 
L 278.241571 86.41665 
L 278.241725 89.52129 
L 278.241762 92.18241 
L 278.241698 94.84353 
L 278.241588 97.50465 
L 278.241532 100.16577 
L 278.24164 102.82689 
L 278.242011 105.48801 
L 278.242741 108.14913 
L 278.243991 110.81025 
L 278.246083 113.47137 
L 278.24964 116.13249 
L 278.255739 118.79361 
L 278.266071 121.45473 
L 278.283129 124.11585 
L 278.296433 125.413442 
L 278.313283 126.77697 
L 278.364253 129.43809 
L 278.441057 132.09921 
L 278.576929 135.20385 
L 278.748088 137.86497 
L 278.987246 140.52609 
L 279.315043 143.18721 
L 279.756909 145.84833 
L 280.082033 147.342472 
L 280.407411 148.50945 
L 281.351364 151.17057 
L 281.903345 152.416811 
L 282.685479 153.83169 
L 283.688945 155.378527 
L 284.49573 156.49281 
L 285.474545 157.730431 
L 286.557874 159.15393 
L 287.260145 160.061674 
L 288.446584 161.81505 
L 289.081457 162.809771 
L 290.00143 164.47617 
L 290.867057 166.25939 
L 291.252218 167.13729 
L 292.256643 169.79841 
L 292.652657 171.062143 
L 293.079811 172.45953 
L 293.748527 175.12065 
L 294.346238 178.22529 
L 294.438257 178.82269 
L 294.781047 180.88641 
L 295.126933 183.54753 
L 295.391897 186.20865 
L 295.592964 188.86977 
L 295.743673 191.53089 
L 295.85493 194.19201 
L 295.935588 196.85313 
L 295.992836 199.51425 
L 296.032501 202.17537 
L 296.05926 204.83649 
L 296.076818 207.49761 
L 296.08804 210.15873 
L 296.095065 212.81985 
L 296.099397 215.48097 
L 296.102019 218.14209 
L 296.10351 220.80321 
L 296.104203 223.90785 
L 296.104019 226.56897 
L 296.103089 229.23009 
L 296.101242 231.89121 
L 296.098095 234.55233 
L 296.092935 237.21345 
L 296.084596 239.87457 
L 296.071334 242.53569 
L 296.050703 245.19681 
L 296.019429 247.85793 
L 295.973238 250.51905 
L 295.90663 253.18017 
L 295.812569 255.84129 
L 295.68206 258.50241 
L 295.503582 261.16353 
L 295.2623 263.82465 
L 294.875426 266.92929 
L 294.438257 269.511471 
L 294.425241 269.59041 
L 293.881479 272.25153 
L 293.156063 274.91265 
L 292.652657 276.379605 
L 292.191677 277.57377 
L 290.902268 280.23489 
L 290.867057 280.298356 
L 289.081457 282.839428 
L 289.027202 282.89601 
L 287.260145 284.641763 
L 285.984232 285.55713 
L 285.474545 285.93356 
L 283.688945 287.100666 
L 282.135024 288.21825 
" clip-path="url(#pb5a597a6ff)" style="fill: none; stroke: #bad6eb; stroke-width: 1.5"/>
   </g>
   <g id="PathCollection_4">
    <path d="M 152.139248 288.21825 
L 151.556577 285.55713 
L 151.10461 282.89601 
L 150.876017 281.173692 
L 150.750768 280.23489 
L 150.473595 277.57377 
L 150.265537 274.91265 
L 150.111643 272.25153 
L 149.999808 269.59041 
L 149.920204 266.92929 
L 149.857539 263.82465 
L 149.822527 261.16353 
L 149.799573 258.50241 
L 149.784903 255.84129 
L 149.775709 253.18017 
L 149.770008 250.51905 
L 149.766492 247.85793 
L 149.764367 245.19681 
L 149.763167 242.53569 
L 149.7626 239.87457 
L 149.762441 237.21345 
L 149.762481 234.55233 
L 149.76254 231.89121 
L 149.762505 229.23009 
L 149.762351 226.56897 
L 149.762142 223.90785 
L 149.761966 220.80321 
L 149.761961 218.14209 
L 149.762095 215.48097 
L 149.762295 212.81985 
L 149.762452 210.15873 
L 149.76248 207.49761 
L 149.762365 204.83649 
L 149.762167 202.17537 
L 149.761994 199.51425 
L 149.761936 196.85313 
L 149.762019 194.19201 
L 149.762187 191.53089 
L 149.762323 188.86977 
L 149.762303 186.20865 
L 149.762041 183.54753 
L 149.761488 180.88641 
L 149.760594 178.22529 
L 149.758907 175.12065 
L 149.756457 172.45953 
L 149.752286 169.79841 
L 149.745171 167.13729 
L 149.733333 164.47617 
L 149.714309 161.81505 
L 149.68477 159.15393 
L 149.640289 156.49281 
L 149.575061 153.83169 
L 149.481621 151.17057 
L 149.350565 148.50945 
L 149.170263 145.84833 
L 149.090417 144.962098 
L 148.907166 143.18721 
L 148.544075 140.52609 
L 148.065542 137.86497 
L 147.439279 135.20385 
L 147.304817 134.744525 
L 146.314973 132.09921 
L 145.519217 130.427487 
L 144.919523 129.43809 
L 143.697905 127.719825 
L 142.925946 126.77697 
L 141.912305 125.640384 
L 140.60659 124.11585 
L 140.126705 123.562951 
L 138.593626 121.45473 
L 138.341105 121.086371 
L 137.062644 118.79361 
L 136.519793 117.680534 
L 135.877565 116.13249 
L 134.95961 113.47137 
L 134.734193 112.68871 
L 134.235993 110.81025 
L 133.671208 108.14913 
L 133.231367 105.48801 
L 132.948593 103.285004 
L 132.888964 102.82689 
L 132.618192 100.16577 
L 132.417624 97.50465 
L 132.273853 94.84353 
L 132.176764 92.18241 
L 132.119209 89.52129 
L 132.096399 86.41665 
L 132.113335 83.75553 
L 132.165677 81.09441 
L 132.258186 78.43329 
L 132.398921 75.77217 
L 132.599697 73.11105 
L 132.876787 70.44993 
L 132.948593 69.918769 
L 133.244805 67.78881 
L 133.737423 65.12769 
L 134.395593 62.46657 
L 134.734193 61.375418 
L 135.312512 59.80545 
L 136.519793 57.232679 
L 136.575082 57.14433 
L 138.341105 54.717048 
L 138.587533 54.48321 
L 140.126705 53.100706 
L 141.912305 51.905057 
L 142.044404 51.82209 
L 143.697905 50.683138 
L 145.289743 49.16097 
L 145.519217 48.897398 
L 146.879685 46.49985 
L 147.304817 45.517374 
L 147.950367 43.39521 
L 148.569629 40.73409 
L 149.056818 38.07297 
L 149.090417 37.857023 
L 149.414834 35.41185 
L 149.734832 32.75073 
L 150.050579 30.08961 
L 150.391178 27.42849 
L 150.787386 24.76737 
L 150.876017 24.261514 
L 151.26635 22.10625 
" clip-path="url(#pb5a597a6ff)" style="fill: none; stroke: #89bedc; stroke-width: 1.5"/>
    <path d="M 273.462002 22.10625 
L 274.044673 24.76737 
L 274.49664 27.42849 
L 274.725233 29.150808 
L 274.850482 30.08961 
L 275.127655 32.75073 
L 275.335713 35.41185 
L 275.489607 38.07297 
L 275.601442 40.73409 
L 275.681046 43.39521 
L 275.743711 46.49985 
L 275.778723 49.16097 
L 275.801677 51.82209 
L 275.816347 54.48321 
L 275.825541 57.14433 
L 275.831242 59.80545 
L 275.834758 62.46657 
L 275.836883 65.12769 
L 275.838083 67.78881 
L 275.83865 70.44993 
L 275.838809 73.11105 
L 275.838769 75.77217 
L 275.83871 78.43329 
L 275.838746 81.09441 
L 275.8389 83.75553 
L 275.839109 86.41665 
L 275.839289 89.52129 
L 275.8393 92.18241 
L 275.839179 94.84353 
L 275.839008 97.50465 
L 275.838911 100.16577 
L 275.839004 102.82689 
L 275.83936 105.48801 
L 275.840018 108.14913 
L 275.841051 110.81025 
L 275.842669 113.47137 
L 275.845342 116.13249 
L 275.849905 118.79361 
L 275.857667 121.45473 
L 275.870511 124.11585 
L 275.89103 126.77697 
L 275.922717 129.43809 
L 275.970212 132.09921 
L 276.053779 135.20385 
L 276.158609 137.86497 
L 276.304669 140.52609 
L 276.504406 143.18721 
L 276.510833 143.252598 
L 276.803945 145.84833 
L 277.202446 148.50945 
L 277.72618 151.17057 
L 278.296433 153.409467 
L 278.431077 153.83169 
L 279.480981 156.49281 
L 280.082033 157.72 
L 280.975933 159.15393 
L 281.903345 160.427801 
L 283.059341 161.81505 
L 283.688945 162.511757 
L 285.377158 164.47617 
L 285.474545 164.588488 
L 287.260145 167.060142 
L 287.306411 167.13729 
L 288.762794 169.79841 
L 289.081457 170.465274 
L 289.891752 172.45953 
L 290.776239 175.12065 
L 290.867057 175.447759 
L 291.570402 178.22529 
L 292.091223 180.88641 
L 292.496504 183.54753 
L 292.652657 184.853573 
L 292.81722 186.20865 
L 293.06677 188.86977 
L 293.253422 191.53089 
L 293.390806 194.19201 
L 293.490026 196.85313 
L 293.560126 199.51425 
L 293.608435 202.17537 
L 293.640835 204.83649 
L 293.661969 207.49761 
L 293.675408 210.15873 
L 293.683789 212.81985 
L 293.688942 215.48097 
L 293.692038 218.14209 
L 293.693746 220.80321 
L 293.694411 223.90785 
L 293.693954 226.56897 
L 293.692473 229.23009 
L 293.689689 231.89121 
L 293.685007 234.55233 
L 293.677363 237.21345 
L 293.665048 239.87457 
L 293.645551 242.53569 
L 293.615394 245.19681 
L 293.569948 247.85793 
L 293.503203 250.51905 
L 293.407437 253.18017 
L 293.272775 255.84129 
L 293.086598 258.50241 
L 292.832734 261.16353 
L 292.652657 262.595415 
L 292.494319 263.82465 
L 291.957564 266.92929 
L 291.328643 269.59041 
L 290.867057 271.119768 
L 290.462222 272.25153 
L 289.259998 274.91265 
L 289.081457 275.245629 
L 287.391942 277.57377 
L 287.260145 277.734169 
L 285.474545 279.285866 
L 283.908957 280.23489 
L 283.688945 280.369978 
L 281.903345 281.353095 
L 280.082033 282.617134 
L 279.805417 282.89601 
L 278.296433 284.603679 
L 277.704792 285.55713 
L 276.510833 287.658535 
L 276.25116 288.21825 
" clip-path="url(#pb5a597a6ff)" style="fill: none; stroke: #89bedc; stroke-width: 1.5"/>
   </g>
   <g id="PathCollection_5">
    <path d="M 155.068943 288.21825 
L 154.482929 286.501017 
L 154.219403 285.55713 
L 153.620019 282.89601 
L 153.157769 280.23489 
L 152.804892 277.57377 
L 152.697329 276.510182 
L 152.547073 274.91265 
L 152.3606 272.25153 
L 152.225452 269.59041 
L 152.129581 266.92929 
L 152.05444 263.82465 
L 152.012669 261.16353 
L 151.985408 258.50241 
L 151.968052 255.84129 
L 151.957199 253.18017 
L 151.950475 250.51905 
L 151.946336 247.85793 
L 151.943853 245.19681 
L 151.942482 242.53569 
L 151.94187 239.87457 
L 151.941731 237.21345 
L 151.941801 234.55233 
L 151.941862 231.89121 
L 151.941785 229.23009 
L 151.941565 226.56897 
L 151.941298 223.90785 
L 151.941103 220.80321 
L 151.941134 218.14209 
L 151.941332 215.48097 
L 151.941589 212.81985 
L 151.941766 210.15873 
L 151.941765 207.49761 
L 151.941589 204.83649 
L 151.94133 202.17537 
L 151.94113 199.51425 
L 151.941094 196.85313 
L 151.941237 194.19201 
L 151.941472 191.53089 
L 151.941652 188.86977 
L 151.941638 186.20865 
L 151.94136 183.54753 
L 151.940818 180.88641 
L 151.940029 178.22529 
L 151.938689 175.12065 
L 151.93684 172.45953 
L 151.933697 169.79841 
L 151.928272 167.13729 
L 151.919172 164.47617 
L 151.90454 161.81505 
L 151.88193 159.15393 
L 151.848132 156.49281 
L 151.798953 153.83169 
L 151.729007 151.17057 
L 151.631545 148.50945 
L 151.498316 145.84833 
L 151.319436 143.18721 
L 151.083169 140.52609 
L 150.876017 138.710954 
L 150.771516 137.86497 
L 150.357916 135.20385 
L 149.722972 132.09921 
L 149.090417 129.717597 
L 148.998923 129.43809 
L 147.947826 126.77697 
L 147.304817 125.46124 
L 146.425031 124.11585 
L 145.519217 122.924637 
L 144.116315 121.45473 
L 143.697905 121.050004 
L 141.912305 119.290329 
L 141.489183 118.79361 
L 140.126705 117.128291 
L 139.498947 116.13249 
L 138.341105 114.076579 
L 138.072726 113.47137 
L 137.065304 110.81025 
L 136.519793 109.048566 
L 136.283487 108.14913 
L 135.716645 105.48801 
L 135.27769 102.82689 
L 134.943192 100.16577 
L 134.734193 97.937367 
L 134.695992 97.50465 
L 134.525888 94.84353 
L 134.412855 92.18241 
L 134.348698 89.52129 
L 134.329538 86.41665 
L 134.359808 83.75553 
L 134.436215 81.09441 
L 134.565689 78.43329 
L 134.734193 76.11182 
L 134.761047 75.77217 
L 135.053074 73.11105 
L 135.456036 70.44993 
L 136.002436 67.78881 
L 136.519793 65.871583 
L 136.777418 65.12769 
L 137.944001 62.46657 
L 138.341105 61.729229 
L 139.874067 59.80545 
L 140.126705 59.52684 
L 141.912305 58.243974 
L 143.697905 57.340439 
L 144.081254 57.14433 
L 145.519217 56.349842 
L 147.304817 54.695851 
L 147.444878 54.48321 
L 148.886733 51.82209 
L 149.090417 51.345348 
L 149.760391 49.16097 
L 150.395589 46.49985 
L 150.876017 43.898636 
L 150.955955 43.39521 
L 151.318283 40.73409 
L 151.633957 38.07297 
L 151.92923 35.41185 
L 152.230076 32.75073 
L 152.563666 30.08961 
L 152.697329 29.175562 
L 152.978515 27.42849 
L 153.511402 24.76737 
L 154.201117 22.10625 
" clip-path="url(#pb5a597a6ff)" style="fill: none; stroke: #539ecd; stroke-width: 1.5"/>
    <path d="M 270.532307 22.10625 
L 271.118321 23.823483 
L 271.381847 24.76737 
L 271.981231 27.42849 
L 272.443481 30.08961 
L 272.796358 32.75073 
L 272.903921 33.814318 
L 273.054177 35.41185 
L 273.24065 38.07297 
L 273.375798 40.73409 
L 273.471669 43.39521 
L 273.54681 46.49985 
L 273.588581 49.16097 
L 273.615842 51.82209 
L 273.633198 54.48321 
L 273.644051 57.14433 
L 273.650775 59.80545 
L 273.654914 62.46657 
L 273.657397 65.12769 
L 273.658768 67.78881 
L 273.65938 70.44993 
L 273.659519 73.11105 
L 273.659449 75.77217 
L 273.659388 78.43329 
L 273.659465 81.09441 
L 273.659685 83.75553 
L 273.659953 86.41665 
L 273.660151 89.52129 
L 273.660125 92.18241 
L 273.659938 94.84353 
L 273.659704 97.50465 
L 273.659576 100.16577 
L 273.659674 102.82689 
L 273.660043 105.48801 
L 273.660667 108.14913 
L 273.661547 110.81025 
L 273.66281 113.47137 
L 273.664822 116.13249 
L 273.668266 118.79361 
L 273.674196 121.45473 
L 273.684074 124.11585 
L 273.699848 126.77697 
L 273.724076 129.43809 
L 273.760117 132.09921 
L 273.823001 135.20385 
L 273.901297 137.86497 
L 274.009688 140.52609 
L 274.15695 143.18721 
L 274.353554 145.84833 
L 274.61193 148.50945 
L 274.725233 149.435337 
L 274.956051 151.17057 
L 275.406201 153.83169 
L 275.985107 156.49281 
L 276.510833 158.420623 
L 276.758276 159.15393 
L 277.85876 161.81505 
L 278.296433 162.689124 
L 279.499026 164.47617 
L 280.082033 165.224488 
L 281.903345 167.094075 
L 281.945848 167.13729 
L 283.688945 168.861266 
L 284.483339 169.79841 
L 285.474545 171.021183 
L 286.367108 172.45953 
L 287.260145 174.077274 
L 287.712635 175.12065 
L 288.828934 178.22529 
L 289.081457 179.091064 
L 289.525714 180.88641 
L 290.049089 183.54753 
L 290.454332 186.20865 
L 290.764096 188.86977 
L 290.867057 190.034357 
L 290.991591 191.53089 
L 291.155716 194.19201 
L 291.273941 196.85313 
L 291.357175 199.51425 
L 291.414287 202.17537 
L 291.452405 204.83649 
L 291.477149 207.49761 
L 291.492819 210.15873 
L 291.502563 212.81985 
L 291.508537 215.48097 
L 291.512095 218.14209 
L 291.513992 220.80321 
L 291.514564 223.90785 
L 291.51374 226.56897 
L 291.511561 229.23009 
L 291.507606 231.89121 
L 291.501015 234.55233 
L 291.490284 237.21345 
L 291.473047 239.87457 
L 291.445867 242.53569 
L 291.404026 245.19681 
L 291.341281 247.85793 
L 291.249538 250.51905 
L 291.118407 253.18017 
L 290.934598 255.84129 
L 290.867057 256.566757 
L 290.66923 258.50241 
L 290.300929 261.16353 
L 289.802914 263.82465 
L 289.081457 266.647737 
L 288.988286 266.92929 
L 287.869684 269.59041 
L 287.260145 270.747667 
L 286.079352 272.25153 
L 285.474545 272.921496 
L 283.688945 274.161841 
L 282.044173 274.91265 
L 281.903345 274.976664 
L 280.082033 275.778019 
L 278.296433 277.032876 
L 277.830223 277.57377 
L 276.510833 279.274691 
L 275.99819 280.23489 
L 274.725233 282.828427 
L 274.697436 282.89601 
L 273.597796 285.55713 
L 272.903921 287.196612 
L 272.452073 288.21825 
" clip-path="url(#pb5a597a6ff)" style="fill: none; stroke: #539ecd; stroke-width: 1.5"/>
   </g>
   <g id="PathCollection_6">
    <path d="M 159.709851 288.21825 
L 158.054129 286.320649 
L 157.666264 285.55713 
L 156.564894 282.89601 
L 156.268529 281.995384 
L 155.850022 280.23489 
L 155.36133 277.57377 
L 154.993216 274.91265 
L 154.72064 272.25153 
L 154.522817 269.59041 
L 154.482929 268.837182 
L 154.397903 266.92929 
L 154.30513 263.82465 
L 154.253791 261.16353 
L 154.220422 258.50241 
L 154.199246 255.84129 
L 154.186027 253.18017 
L 154.177842 250.51905 
L 154.172816 247.85793 
L 154.169828 245.19681 
L 154.16822 242.53569 
L 154.167547 239.87457 
L 154.167435 237.21345 
L 154.167542 234.55233 
L 154.167594 231.89121 
L 154.167453 229.23009 
L 154.167139 226.56897 
L 154.166795 223.90785 
L 154.166583 220.80321 
L 154.166671 218.14209 
L 154.16696 215.48097 
L 154.167292 212.81985 
L 154.167488 210.15873 
L 154.167441 207.49761 
L 154.167175 204.83649 
L 154.166836 202.17537 
L 154.166605 199.51425 
L 154.166606 196.85313 
L 154.166836 194.19201 
L 154.16716 191.53089 
L 154.167388 188.86977 
L 154.167363 186.20865 
L 154.167034 183.54753 
L 154.166461 180.88641 
L 154.16573 178.22529 
L 154.164669 175.12065 
L 154.163311 172.45953 
L 154.160981 169.79841 
L 154.156839 167.13729 
L 154.149767 164.47617 
L 154.138356 161.81505 
L 154.120825 159.15393 
L 154.094869 156.49281 
L 154.05747 153.83169 
L 154.004726 151.17057 
L 153.931745 148.50945 
L 153.832611 145.84833 
L 153.700396 143.18721 
L 153.52714 140.52609 
L 153.303758 137.86497 
L 153.019826 135.20385 
L 152.697329 132.805056 
L 152.600296 132.09921 
L 152.15766 129.43809 
L 151.604237 126.77697 
L 150.914455 124.11585 
L 150.876017 123.982607 
L 149.96403 121.45473 
L 149.090417 119.502221 
L 148.636697 118.79361 
L 147.304817 116.990133 
L 146.351071 116.13249 
L 145.519217 115.435151 
L 143.697905 114.07696 
L 143.048683 113.47137 
L 141.912305 112.358476 
L 140.833905 110.81025 
L 140.126705 109.664176 
L 139.478349 108.14913 
L 138.536908 105.48801 
L 138.341105 104.804813 
L 137.912159 102.82689 
L 137.467416 100.16577 
L 137.136199 97.50465 
L 136.90023 94.84353 
L 136.745408 92.18241 
L 136.661994 89.52129 
L 136.648433 86.41665 
L 136.709061 83.75553 
L 136.842896 81.09441 
L 137.062519 78.43329 
L 137.387492 75.77217 
L 137.845469 73.11105 
L 138.341105 70.990517 
L 138.523615 70.44993 
L 139.687873 67.78881 
L 140.126705 66.993502 
L 141.912305 65.131003 
L 141.918941 65.12769 
L 143.697905 64.317695 
L 145.519217 63.840034 
L 147.304817 63.141465 
L 148.087913 62.46657 
L 149.090417 61.499514 
L 150.022369 59.80545 
L 150.876017 57.904178 
L 151.117096 57.14433 
L 151.845894 54.48321 
L 152.420117 51.82209 
L 152.697329 50.253758 
L 152.876473 49.16097 
L 153.252278 46.49985 
L 153.621289 43.39521 
L 153.903258 40.73409 
L 154.177153 38.07297 
L 154.466699 35.41185 
L 154.482929 35.280717 
L 154.85827 32.75073 
L 155.343307 30.08961 
L 155.964158 27.42849 
L 156.268529 26.399854 
L 156.992224 24.76737 
L 158.054129 22.906234 
L 158.993091 22.10625 
" clip-path="url(#pb5a597a6ff)" style="fill: none; stroke: #2b7bba; stroke-width: 1.5"/>
    <path d="M 165.216917 22.10625 
L 165.232241 22.111537 
L 167.053553 22.492641 
L 168.839153 22.333009 
L 169.408625 22.10625 
" clip-path="url(#pb5a597a6ff)" style="fill: none; stroke: #2b7bba; stroke-width: 1.5"/>
    <path d="M 170.222457 288.21825 
L 168.839153 287.846717 
L 167.053553 287.93554 
L 166.106087 288.21825 
" clip-path="url(#pb5a597a6ff)" style="fill: none; stroke: #2b7bba; stroke-width: 1.5"/>
    <path d="M 184.244987 22.10625 
L 184.980977 22.323686 
L 186.766577 22.232853 
L 187.095731 22.10625 
" clip-path="url(#pb5a597a6ff)" style="fill: none; stroke: #2b7bba; stroke-width: 1.5"/>
    <path d="M 187.762433 288.21825 
L 186.766577 287.97122 
L 184.980977 288.165605 
L 184.856839 288.21825 
" clip-path="url(#pb5a597a6ff)" style="fill: none; stroke: #2b7bba; stroke-width: 1.5"/>
    <path d="M 202.120611 22.10625 
L 202.944113 22.336709 
L 204.729713 22.206905 
L 204.982375 22.10625 
" clip-path="url(#pb5a597a6ff)" style="fill: none; stroke: #2b7bba; stroke-width: 1.5"/>
    <path d="M 205.629897 288.21825 
L 204.729713 287.980387 
L 202.944113 288.136096 
L 202.744314 288.21825 
" clip-path="url(#pb5a597a6ff)" style="fill: none; stroke: #2b7bba; stroke-width: 1.5"/>
    <path d="M 219.971353 22.10625 
L 220.871537 22.344113 
L 222.657137 22.188404 
L 222.856936 22.10625 
" clip-path="url(#pb5a597a6ff)" style="fill: none; stroke: #2b7bba; stroke-width: 1.5"/>
    <path d="M 223.480639 288.21825 
L 222.657137 287.987791 
L 220.871537 288.117595 
L 220.618875 288.21825 
" clip-path="url(#pb5a597a6ff)" style="fill: none; stroke: #2b7bba; stroke-width: 1.5"/>
    <path d="M 237.838817 22.10625 
L 238.834673 22.35328 
L 240.620273 22.158895 
L 240.744411 22.10625 
" clip-path="url(#pb5a597a6ff)" style="fill: none; stroke: #2b7bba; stroke-width: 1.5"/>
    <path d="M 241.356254 288.21825 
L 240.620273 288.000816 
L 238.834673 288.091647 
L 238.505519 288.21825 
" clip-path="url(#pb5a597a6ff)" style="fill: none; stroke: #2b7bba; stroke-width: 1.5"/>
    <path d="M 255.378793 22.10625 
L 256.762097 22.477783 
L 258.547697 22.38896 
L 259.495163 22.10625 
" clip-path="url(#pb5a597a6ff)" style="fill: none; stroke: #2b7bba; stroke-width: 1.5"/>
    <path d="M 260.075833 288.21825 
L 258.547697 287.867636 
L 256.762097 288.007616 
L 256.225403 288.21825 
" clip-path="url(#pb5a597a6ff)" style="fill: none; stroke: #2b7bba; stroke-width: 1.5"/>
    <path d="M 265.891399 22.10625 
L 267.547121 24.003851 
L 267.934986 24.76737 
L 269.036356 27.42849 
L 269.332721 28.329116 
L 269.751228 30.08961 
L 270.23992 32.75073 
L 270.608034 35.41185 
L 270.88061 38.07297 
L 271.078433 40.73409 
L 271.118321 41.487318 
L 271.203347 43.39521 
L 271.29612 46.49985 
L 271.347459 49.16097 
L 271.380828 51.82209 
L 271.402004 54.48321 
L 271.415223 57.14433 
L 271.423408 59.80545 
L 271.428434 62.46657 
L 271.431422 65.12769 
L 271.43303 67.78881 
L 271.433703 70.44993 
L 271.433815 73.11105 
L 271.433708 75.77217 
L 271.433656 78.43329 
L 271.433797 81.09441 
L 271.434111 83.75553 
L 271.434456 86.41665 
L 271.43467 89.52129 
L 271.434587 92.18241 
L 271.434307 94.84353 
L 271.433993 97.50465 
L 271.433837 100.16577 
L 271.433964 102.82689 
L 271.434384 105.48801 
L 271.435019 108.14913 
L 271.435793 110.81025 
L 271.436767 113.47137 
L 271.438241 116.13249 
L 271.440807 118.79361 
L 271.445352 121.45473 
L 271.453041 124.11585 
L 271.465336 126.77697 
L 271.484094 129.43809 
L 271.511726 132.09921 
L 271.559436 135.20385 
L 271.618331 137.86497 
L 271.699322 140.52609 
L 271.808664 143.18721 
L 271.953623 145.84833 
L 272.142517 148.50945 
L 272.384851 151.17057 
L 272.691556 153.83169 
L 272.903921 155.343688 
L 273.067972 156.49281 
L 273.527522 159.15393 
L 274.101776 161.81505 
L 274.725233 164.164041 
L 274.825773 164.47617 
L 275.822302 167.13729 
L 276.510833 168.649446 
L 277.266946 169.79841 
L 278.296433 171.160564 
L 279.790094 172.45953 
L 280.082033 172.69718 
L 281.903345 174.077068 
L 283.021844 175.12065 
L 283.688945 175.78363 
L 285.346211 178.22529 
L 285.474545 178.442589 
L 286.465151 180.88641 
L 287.260145 183.282564 
L 287.326977 183.54753 
L 287.865223 186.20865 
L 288.279036 188.86977 
L 288.591575 191.53089 
L 288.822882 194.19201 
L 288.9902 196.85313 
L 289.081457 198.909727 
L 289.104236 199.51425 
L 289.173062 202.17537 
L 289.218788 204.83649 
L 289.248333 207.49761 
L 289.266973 210.15873 
L 289.278532 212.81985 
L 289.285597 215.48097 
L 289.289757 218.14209 
L 289.291877 220.80321 
L 289.292265 223.90785 
L 289.290867 226.56897 
L 289.287624 229.23009 
L 289.281892 231.89121 
L 289.272408 234.55233 
L 289.257008 237.21345 
L 289.232347 239.87457 
L 289.193621 242.53569 
L 289.134292 245.19681 
L 289.081457 246.790876 
L 289.03922 247.85793 
L 288.886504 250.51905 
L 288.668448 253.18017 
L 288.362837 255.84129 
L 287.941161 258.50241 
L 287.366881 261.16353 
L 287.260145 261.548627 
L 286.341519 263.82465 
L 285.474545 265.473788 
L 284.117702 266.92929 
L 283.688945 267.317656 
L 281.903345 268.10607 
L 280.082033 268.524456 
L 278.296433 269.105396 
L 277.631129 269.59041 
L 276.510833 270.456555 
L 275.309192 272.25153 
L 274.725233 273.209308 
L 273.987757 274.91265 
L 272.922937 277.57377 
L 272.903921 277.621687 
L 271.93742 280.23489 
L 271.118321 282.393798 
L 270.901582 282.89601 
L 269.621262 285.55713 
L 269.332721 286.08634 
L 267.612906 288.21825 
" clip-path="url(#pb5a597a6ff)" style="fill: none; stroke: #2b7bba; stroke-width: 1.5"/>
   </g>
   <g id="PathCollection_7">
    <path d="M 140.058631 94.84353 
L 139.849604 92.18241 
L 139.74833 89.52129 
L 139.760933 86.41665 
L 139.888131 83.75553 
L 140.126705 81.194144 
L 140.142846 81.09441 
L 140.811666 78.43329 
L 141.781229 75.77217 
L 141.912305 75.503103 
L 143.697905 74.13372 
L 145.519217 74.223083 
L 147.304817 74.807004 
L 149.090417 74.800781 
L 150.647544 73.11105 
L 150.876017 72.858259 
L 151.864128 70.44993 
L 152.697329 68.161998 
L 152.796026 67.78881 
L 153.49082 65.12769 
L 154.092615 62.46657 
L 154.482929 60.47719 
L 154.613652 59.80545 
L 155.087572 57.14433 
L 155.486842 54.48321 
L 155.82334 51.82209 
L 156.111431 49.16097 
L 156.268529 47.557834 
L 156.403577 46.49985 
L 156.78991 43.39521 
L 157.134357 40.73409 
L 157.525022 38.07297 
L 158.00052 35.41185 
L 158.054129 35.173609 
L 159.056682 32.75073 
L 159.875441 31.241818 
L 161.661041 30.39946 
L 163.446641 31.100244 
L 165.232241 32.367323 
L 166.006522 32.75073 
L 167.053553 33.426367 
L 168.839153 33.216352 
L 169.318912 32.75073 
L 170.624753 31.765705 
L 172.079752 30.08961 
L 172.410353 29.789981 
L 174.231665 28.208361 
L 175.79356 27.42849 
L 176.017265 27.338362 
L 177.802865 27.370704 
L 177.938533 27.42849 
L 179.588465 28.282102 
L 181.409777 29.809498 
L 181.740195 30.08961 
L 183.195377 31.661572 
L 184.777706 32.75073 
L 184.980977 32.934163 
L 186.766577 32.92925 
L 186.958606 32.75073 
L 188.587889 31.572912 
L 189.893965 30.08961 
L 190.373489 29.661088 
L 192.159089 28.147265 
L 193.666369 27.42849 
L 193.944689 27.321342 
L 195.766001 27.396395 
L 195.837818 27.42849 
L 197.551601 28.359538 
L 199.337201 29.87425 
L 199.593302 30.08961 
L 201.122801 31.728738 
L 202.675241 32.75073 
L 202.944113 32.982828 
L 204.729713 32.873196 
L 204.85601 32.75073 
L 206.515313 31.500639 
L 207.749704 30.08961 
L 208.300913 29.594058 
L 210.122225 28.073362 
L 211.560987 27.42849 
L 211.907825 27.302919 
L 213.693425 27.415768 
L 213.721066 27.42849 
L 215.479025 28.412625 
L 217.300337 29.971703 
L 217.442466 30.08961 
L 219.085937 31.827384 
L 220.554456 32.75073 
L 220.871537 33.011964 
L 222.657137 32.832453 
L 222.738268 32.75073 
L 224.478449 31.390125 
L 225.606598 30.08961 
L 226.264049 29.493954 
L 228.049649 28.025523 
L 229.441972 27.42849 
L 229.835249 27.29222 
L 231.436997 27.42849 
L 231.656561 27.450915 
L 233.442161 28.493877 
L 235.227761 30.03666 
L 235.292228 30.08961 
L 237.013361 31.89161 
L 238.451581 32.75073 
L 238.834673 33.050624 
L 240.620273 32.766376 
L 240.63524 32.75073 
L 242.405873 31.31522 
L 243.464094 30.08961 
L 244.191473 29.427816 
L 246.012785 27.956677 
L 247.338072 27.42849 
L 247.798385 27.280159 
L 249.165409 27.42849 
L 249.583985 27.483062 
L 251.369585 28.562532 
L 253.103292 30.08961 
L 253.190897 30.187481 
L 254.976497 32.087839 
L 256.018977 32.75073 
L 256.762097 33.369904 
L 258.547697 33.34856 
L 259.365537 32.75073 
L 260.369009 32.180466 
L 262.154609 30.944541 
L 263.940209 30.53093 
L 265.725809 31.887594 
L 266.125139 32.75073 
L 267.073229 35.41185 
L 267.547121 37.18723 
L 267.683987 38.07297 
L 267.983995 40.73409 
L 268.196218 43.39521 
L 268.361626 46.49985 
L 268.452899 49.16097 
L 268.512058 51.82209 
L 268.549522 54.48321 
L 268.572892 57.14433 
L 268.587359 59.80545 
L 268.59621 62.46657 
L 268.601398 65.12769 
L 268.604096 67.78881 
L 268.605131 70.44993 
L 268.605223 73.11105 
L 268.605017 75.77217 
L 268.604994 78.43329 
L 268.605357 81.09441 
L 268.606004 83.75553 
L 268.606631 86.41665 
L 268.606924 89.52129 
L 268.606657 92.18241 
L 268.606062 94.84353 
L 268.605475 97.50465 
L 268.605236 100.16577 
L 268.605517 102.82689 
L 268.606247 105.48801 
L 268.607182 108.14913 
L 268.608088 110.81025 
L 268.608958 113.47137 
L 268.610146 116.13249 
L 268.612392 118.79361 
L 268.616724 121.45473 
L 268.62435 124.11585 
L 268.636624 126.77697 
L 268.655146 129.43809 
L 268.681988 132.09921 
L 268.727627 135.20385 
L 268.783429 137.86497 
L 268.859817 140.52609 
L 268.962702 143.18721 
L 269.098826 145.84833 
L 269.275706 148.50945 
L 269.332721 149.202383 
L 269.454311 151.17057 
L 269.657959 153.83169 
L 269.909431 156.49281 
L 270.216334 159.15393 
L 270.586699 161.81505 
L 271.028271 164.47617 
L 271.118321 164.974284 
L 271.490242 167.13729 
L 272.019095 169.79841 
L 272.630697 172.45953 
L 272.903921 173.586058 
L 273.359717 175.12065 
L 274.3988 178.22529 
L 274.725233 179.154425 
L 275.819771 180.88641 
L 276.510833 181.901202 
L 278.296433 182.757484 
L 280.082033 183.022399 
L 281.367984 183.54753 
L 281.903345 183.785649 
L 283.688945 186.012567 
L 283.770462 186.20865 
L 284.659582 188.86977 
L 285.363821 191.53089 
L 285.474545 192.08088 
L 285.735559 194.19201 
L 285.974243 196.85313 
L 286.142496 199.51425 
L 286.257579 202.17537 
L 286.333905 204.83649 
L 286.383078 207.49761 
L 286.414014 210.15873 
L 286.433159 212.81985 
L 286.44481 215.48097 
L 286.451545 218.14209 
L 286.454706 220.80321 
L 286.454564 223.90785 
L 286.451112 226.56897 
L 286.443945 229.23009 
L 286.431597 231.89121 
L 286.411305 234.55233 
L 286.378461 237.21345 
L 286.326068 239.87457 
L 286.244201 242.53569 
L 286.119427 245.19681 
L 285.934082 247.85793 
L 285.665316 250.51905 
L 285.474545 251.864449 
L 285.14766 253.18017 
L 284.238303 255.84129 
L 283.688945 257.04317 
L 281.903345 258.471562 
L 280.082033 258.349777 
L 278.296433 257.699212 
L 276.510833 257.653041 
L 275.65256 258.50241 
L 274.725233 259.409808 
L 273.955393 261.16353 
L 272.903921 263.689405 
L 272.863359 263.82465 
L 271.887981 266.92929 
L 271.118321 269.526451 
L 271.099558 269.59041 
L 270.265755 272.25153 
L 269.424531 274.91265 
L 269.332721 275.178216 
L 268.230768 277.57377 
L 267.547121 278.895671 
L 266.187047 280.23489 
L 265.725809 280.620407 
L 263.940209 280.705649 
L 262.968763 280.23489 
L 262.154609 279.73845 
L 260.369009 278.25263 
L 259.182503 277.57377 
L 258.547697 277.097312 
L 256.762097 277.20087 
L 256.363869 277.57377 
L 254.976497 278.5876 
L 253.533136 280.23489 
L 253.190897 280.542637 
L 251.369585 282.118825 
L 249.809956 282.89601 
L 249.583985 282.986886 
L 247.798385 282.954061 
L 247.662125 282.89601 
L 246.012785 282.042517 
L 244.191473 280.515046 
L 243.861008 280.23489 
L 242.405873 278.662948 
L 240.823532 277.57377 
L 240.620273 277.390346 
L 238.834673 277.395252 
L 238.642646 277.57377 
L 237.013361 278.751589 
L 235.707285 280.23489 
L 235.227761 280.663412 
L 233.442161 282.177235 
L 231.934881 282.89601 
L 231.656561 283.003158 
L 229.835249 282.928105 
L 229.763432 282.89601 
L 228.049649 281.964962 
L 226.264049 280.45025 
L 226.007948 280.23489 
L 224.478449 278.595762 
L 222.926009 277.57377 
L 222.657137 277.341672 
L 220.871537 277.451304 
L 220.74524 277.57377 
L 219.085937 278.823861 
L 217.851546 280.23489 
L 217.300337 280.730442 
L 215.479025 282.251138 
L 214.040263 282.89601 
L 213.693425 283.021581 
L 211.907825 282.908732 
L 211.880184 282.89601 
L 210.122225 281.911875 
L 208.300913 280.352797 
L 208.158784 280.23489 
L 206.515313 278.497116 
L 205.046794 277.57377 
L 204.729713 277.312536 
L 202.944113 277.492047 
L 202.862982 277.57377 
L 201.122801 278.934375 
L 199.994652 280.23489 
L 199.337201 280.830546 
L 197.551601 282.298977 
L 196.159278 282.89601 
L 195.766001 283.03228 
L 194.164253 282.89601 
L 193.944689 282.873585 
L 192.159089 281.830623 
L 190.373489 280.28784 
L 190.309022 280.23489 
L 188.587889 278.43289 
L 187.149669 277.57377 
L 186.766577 277.273876 
L 184.980977 277.558124 
L 184.96601 277.57377 
L 183.195377 279.00928 
L 182.137156 280.23489 
L 181.409777 280.896684 
L 179.588465 282.367823 
L 178.263178 282.89601 
L 177.802865 283.044341 
L 176.435841 282.89601 
L 176.017265 282.841438 
L 174.231665 281.761968 
L 172.497958 280.23489 
L 172.410353 280.137019 
L 170.624753 278.236661 
L 169.582273 277.57377 
L 168.839153 276.954596 
L 167.053553 276.97594 
L 166.235713 277.57377 
L 165.232241 278.144034 
L 163.446641 279.379959 
L 161.661041 279.79357 
L 159.875441 278.436906 
L 159.476111 277.57377 
L 158.528021 274.91265 
L 158.054129 273.13727 
L 157.917263 272.25153 
L 157.617255 269.59041 
L 157.405032 266.92929 
L 157.239624 263.82465 
L 157.148351 261.16353 
L 157.089192 258.50241 
L 157.051728 255.84129 
L 157.028358 253.18017 
L 157.013891 250.51905 
L 157.00504 247.85793 
L 156.999852 245.19681 
L 156.997154 242.53569 
L 156.996119 239.87457 
L 156.996027 237.21345 
L 156.996233 234.55233 
L 156.996256 231.89121 
L 156.995893 229.23009 
L 156.995247 226.56897 
L 156.99462 223.90785 
L 156.99433 220.80321 
L 156.994601 218.14209 
L 156.995206 215.48097 
L 156.995813 212.81985 
L 156.996094 210.15873 
L 156.995895 207.49761 
L 156.995324 204.83649 
L 156.994691 202.17537 
L 156.994337 199.51425 
L 156.994452 196.85313 
L 156.994971 194.19201 
L 156.995603 191.53089 
L 156.995989 188.86977 
L 156.995885 186.20865 
L 156.995283 183.54753 
L 156.994385 180.88641 
L 156.993453 178.22529 
L 156.992445 175.12065 
L 156.991351 172.45953 
L 156.989347 169.79841 
L 156.985443 167.13729 
L 156.978455 164.47617 
L 156.967058 161.81505 
L 156.949705 159.15393 
L 156.924422 156.49281 
L 156.888534 153.83169 
L 156.838444 151.17057 
L 156.76953 148.50945 
L 156.676188 145.84833 
L 156.55194 143.18721 
L 156.389529 140.52609 
L 156.268529 138.95711 
L 156.205409 137.86497 
L 156.016133 135.20385 
L 155.737371 132.09921 
L 155.440265 129.43809 
L 155.081051 126.77697 
L 154.651876 124.11585 
L 154.482929 123.171864 
L 154.191403 121.45473 
L 153.676354 118.79361 
L 153.079008 116.13249 
L 152.697329 114.557952 
L 152.376799 113.47137 
L 151.523602 110.81025 
L 150.876017 108.971903 
L 150.373662 108.14913 
L 149.090417 106.206393 
L 147.531427 105.48801 
L 147.304817 105.384001 
L 145.519217 105.080635 
L 143.697905 104.252685 
L 142.509284 102.82689 
L 141.912305 101.983756 
L 141.272483 100.16577 
L 140.546563 97.50465 
L 140.126705 95.396383 
L 140.058631 94.84353 
z
" clip-path="url(#pb5a597a6ff)" style="fill: none; stroke: #0b559f; stroke-width: 1.5"/>
   </g>
   <g id="PathCollection_8"/>
   <g id="patch_3">
    <path d="M 34.240625 288.21825 
L 34.240625 22.10625 
" style="fill: none; stroke: #000000; stroke-width: 0.8; stroke-linejoin: miter; stroke-linecap: square"/>
   </g>
   <g id="patch_4">
    <path d="M 391.360625 288.21825 
L 391.360625 22.10625 
" style="fill: none; stroke: #000000; stroke-width: 0.8; stroke-linejoin: miter; stroke-linecap: square"/>
   </g>
   <g id="patch_5">
    <path d="M 34.240625 288.21825 
L 391.360625 288.21825 
" style="fill: none; stroke: #000000; stroke-width: 0.8; stroke-linejoin: miter; stroke-linecap: square"/>
   </g>
   <g id="patch_6">
    <path d="M 34.240625 22.10625 
L 391.360625 22.10625 
" style="fill: none; stroke: #000000; stroke-width: 0.8; stroke-linejoin: miter; stroke-linecap: square"/>
   </g>
   <g id="text_16">
    <!-- 6.9_cross_-41.0 -->
    <g transform="translate(166.181563 16.10625)scale(0.12 -0.12)">
     <defs>
      <path id="DejaVuSans-2e" d="M 684 794 
L 1344 794 
L 1344 0 
L 684 0 
L 684 794 
z
" transform="scale(0.015625)"/>
      <path id="DejaVuSans-39" d="M 703 97 
L 703 672 
Q 941 559 1184 500 
Q 1428 441 1663 441 
Q 2288 441 2617 861 
Q 2947 1281 2994 2138 
Q 2813 1869 2534 1725 
Q 2256 1581 1919 1581 
Q 1219 1581 811 2004 
Q 403 2428 403 3163 
Q 403 3881 828 4315 
Q 1253 4750 1959 4750 
Q 2769 4750 3195 4129 
Q 3622 3509 3622 2328 
Q 3622 1225 3098 567 
Q 2575 -91 1691 -91 
Q 1453 -91 1209 -44 
Q 966 3 703 97 
z
M 1959 2075 
Q 2384 2075 2632 2365 
Q 2881 2656 2881 3163 
Q 2881 3666 2632 3958 
Q 2384 4250 1959 4250 
Q 1534 4250 1286 3958 
Q 1038 3666 1038 3163 
Q 1038 2656 1286 2365 
Q 1534 2075 1959 2075 
z
" transform="scale(0.015625)"/>
      <path id="DejaVuSans-5f" d="M 3263 -1063 
L 3263 -1509 
L -63 -1509 
L -63 -1063 
L 3263 -1063 
z
" transform="scale(0.015625)"/>
      <path id="DejaVuSans-63" d="M 3122 3366 
L 3122 2828 
Q 2878 2963 2633 3030 
Q 2388 3097 2138 3097 
Q 1578 3097 1268 2742 
Q 959 2388 959 1747 
Q 959 1106 1268 751 
Q 1578 397 2138 397 
Q 2388 397 2633 464 
Q 2878 531 3122 666 
L 3122 134 
Q 2881 22 2623 -34 
Q 2366 -91 2075 -91 
Q 1284 -91 818 406 
Q 353 903 353 1747 
Q 353 2603 823 3093 
Q 1294 3584 2113 3584 
Q 2378 3584 2631 3529 
Q 2884 3475 3122 3366 
z
" transform="scale(0.015625)"/>
      <path id="DejaVuSans-72" d="M 2631 2963 
Q 2534 3019 2420 3045 
Q 2306 3072 2169 3072 
Q 1681 3072 1420 2755 
Q 1159 2438 1159 1844 
L 1159 0 
L 581 0 
L 581 3500 
L 1159 3500 
L 1159 2956 
Q 1341 3275 1631 3429 
Q 1922 3584 2338 3584 
Q 2397 3584 2469 3576 
Q 2541 3569 2628 3553 
L 2631 2963 
z
" transform="scale(0.015625)"/>
      <path id="DejaVuSans-73" d="M 2834 3397 
L 2834 2853 
Q 2591 2978 2328 3040 
Q 2066 3103 1784 3103 
Q 1356 3103 1142 2972 
Q 928 2841 928 2578 
Q 928 2378 1081 2264 
Q 1234 2150 1697 2047 
L 1894 2003 
Q 2506 1872 2764 1633 
Q 3022 1394 3022 966 
Q 3022 478 2636 193 
Q 2250 -91 1575 -91 
Q 1294 -91 989 -36 
Q 684 19 347 128 
L 347 722 
Q 666 556 975 473 
Q 1284 391 1588 391 
Q 1994 391 2212 530 
Q 2431 669 2431 922 
Q 2431 1156 2273 1281 
Q 2116 1406 1581 1522 
L 1381 1569 
Q 847 1681 609 1914 
Q 372 2147 372 2553 
Q 372 3047 722 3315 
Q 1072 3584 1716 3584 
Q 2034 3584 2315 3537 
Q 2597 3491 2834 3397 
z
" transform="scale(0.015625)"/>
      <path id="DejaVuSans-2d" d="M 313 2009 
L 1997 2009 
L 1997 1497 
L 313 1497 
L 313 2009 
z
" transform="scale(0.015625)"/>
     </defs>
     <use xlink:href="#DejaVuSans-36"/>
     <use xlink:href="#DejaVuSans-2e" x="63.623047"/>
     <use xlink:href="#DejaVuSans-39" x="95.410156"/>
     <use xlink:href="#DejaVuSans-5f" x="159.033203"/>
     <use xlink:href="#DejaVuSans-63" x="209.033203"/>
     <use xlink:href="#DejaVuSans-72" x="264.013672"/>
     <use xlink:href="#DejaVuSans-6f" x="302.876953"/>
     <use xlink:href="#DejaVuSans-73" x="364.058594"/>
     <use xlink:href="#DejaVuSans-73" x="416.158203"/>
     <use xlink:href="#DejaVuSans-5f" x="468.257812"/>
     <use xlink:href="#DejaVuSans-2d" x="518.257812"/>
     <use xlink:href="#DejaVuSans-34" x="554.341797"/>
     <use xlink:href="#DejaVuSans-31" x="617.964844"/>
     <use xlink:href="#DejaVuSans-2e" x="681.587891"/>
     <use xlink:href="#DejaVuSans-30" x="713.375"/>
    </g>
   </g>
  </g>
 </g>
 <defs>
  <clipPath id="pb5a597a6ff">
   <rect x="34.240625" y="22.10625" width="357.12" height="266.112"/>
  </clipPath>
 </defs>
</svg>
