<?xml version="1.0" encoding="utf-8" standalone="no"?>
<!DOCTYPE svg PUBLIC "-//W3C//DTD SVG 1.1//EN"
  "http://www.w3.org/Graphics/SVG/1.1/DTD/svg11.dtd">
<svg xmlns:xlink="http://www.w3.org/1999/xlink" width="408.104375pt" height="325.7745pt" viewBox="0 0 408.104375 325.7745" xmlns="http://www.w3.org/2000/svg" version="1.1">
 <metadata>
  <rdf:RDF xmlns:dc="http://purl.org/dc/elements/1.1/" xmlns:cc="http://creativecommons.org/ns#" xmlns:rdf="http://www.w3.org/1999/02/22-rdf-syntax-ns#">
   <cc:Work>
    <dc:type rdf:resource="http://purl.org/dc/dcmitype/StillImage"/>
    <dc:date>2024-07-12T12:30:14.925585</dc:date>
    <dc:format>image/svg+xml</dc:format>
    <dc:creator>
     <cc:Agent>
      <dc:title>Matplotlib v3.5.3, https://matplotlib.org/</dc:title>
     </cc:Agent>
    </dc:creator>
   </cc:Work>
  </rdf:RDF>
 </metadata>
 <defs>
  <style type="text/css">*{stroke-linejoin: round; stroke-linecap: butt}</style>
 </defs>
 <g id="figure_1">
  <g id="patch_1">
   <path d="M 0 325.7745 
L 408.104375 325.7745 
L 408.104375 0 
L 0 0 
z
" style="fill: #ffffff"/>
  </g>
  <g id="axes_1">
   <g id="patch_2">
    <path d="M 34.240625 288.21825 
L 391.360625 288.21825 
L 391.360625 22.10625 
L 34.240625 22.10625 
z
" style="fill: #ffffff"/>
   </g>
   <g id="matplotlib.axis_1">
    <g id="xtick_1">
     <g id="line2d_1">
      <defs>
       <path id="mc48527a242" d="M 0 0 
L 0 3.5 
" style="stroke: #000000; stroke-width: 0.8"/>
      </defs>
      <g>
       <use xlink:href="#mc48527a242" x="34.240625" y="288.21825" style="stroke: #000000; stroke-width: 0.8"/>
      </g>
     </g>
     <g id="text_1">
      <!-- 0 -->
      <g transform="translate(31.059375 302.816687)scale(0.1 -0.1)">
       <defs>
        <path id="DejaVuSans-30" d="M 2034 4250 
Q 1547 4250 1301 3770 
Q 1056 3291 1056 2328 
Q 1056 1369 1301 889 
Q 1547 409 2034 409 
Q 2525 409 2770 889 
Q 3016 1369 3016 2328 
Q 3016 3291 2770 3770 
Q 2525 4250 2034 4250 
z
M 2034 4750 
Q 2819 4750 3233 4129 
Q 3647 3509 3647 2328 
Q 3647 1150 3233 529 
Q 2819 -91 2034 -91 
Q 1250 -91 836 529 
Q 422 1150 422 2328 
Q 422 3509 836 4129 
Q 1250 4750 2034 4750 
z
" transform="scale(0.015625)"/>
       </defs>
       <use xlink:href="#DejaVuSans-30"/>
      </g>
     </g>
    </g>
    <g id="xtick_2">
     <g id="line2d_2">
      <g>
       <use xlink:href="#mc48527a242" x="105.664625" y="288.21825" style="stroke: #000000; stroke-width: 0.8"/>
      </g>
     </g>
     <g id="text_2">
      <!-- 20 -->
      <g transform="translate(99.302125 302.816687)scale(0.1 -0.1)">
       <defs>
        <path id="DejaVuSans-32" d="M 1228 531 
L 3431 531 
L 3431 0 
L 469 0 
L 469 531 
Q 828 903 1448 1529 
Q 2069 2156 2228 2338 
Q 2531 2678 2651 2914 
Q 2772 3150 2772 3378 
Q 2772 3750 2511 3984 
Q 2250 4219 1831 4219 
Q 1534 4219 1204 4116 
Q 875 4013 500 3803 
L 500 4441 
Q 881 4594 1212 4672 
Q 1544 4750 1819 4750 
Q 2544 4750 2975 4387 
Q 3406 4025 3406 3419 
Q 3406 3131 3298 2873 
Q 3191 2616 2906 2266 
Q 2828 2175 2409 1742 
Q 1991 1309 1228 531 
z
" transform="scale(0.015625)"/>
       </defs>
       <use xlink:href="#DejaVuSans-32"/>
       <use xlink:href="#DejaVuSans-30" x="63.623047"/>
      </g>
     </g>
    </g>
    <g id="xtick_3">
     <g id="line2d_3">
      <g>
       <use xlink:href="#mc48527a242" x="177.088625" y="288.21825" style="stroke: #000000; stroke-width: 0.8"/>
      </g>
     </g>
     <g id="text_3">
      <!-- 40 -->
      <g transform="translate(170.726125 302.816687)scale(0.1 -0.1)">
       <defs>
        <path id="DejaVuSans-34" d="M 2419 4116 
L 825 1625 
L 2419 1625 
L 2419 4116 
z
M 2253 4666 
L 3047 4666 
L 3047 1625 
L 3713 1625 
L 3713 1100 
L 3047 1100 
L 3047 0 
L 2419 0 
L 2419 1100 
L 313 1100 
L 313 1709 
L 2253 4666 
z
" transform="scale(0.015625)"/>
       </defs>
       <use xlink:href="#DejaVuSans-34"/>
       <use xlink:href="#DejaVuSans-30" x="63.623047"/>
      </g>
     </g>
    </g>
    <g id="xtick_4">
     <g id="line2d_4">
      <g>
       <use xlink:href="#mc48527a242" x="248.512625" y="288.21825" style="stroke: #000000; stroke-width: 0.8"/>
      </g>
     </g>
     <g id="text_4">
      <!-- 60 -->
      <g transform="translate(242.150125 302.816687)scale(0.1 -0.1)">
       <defs>
        <path id="DejaVuSans-36" d="M 2113 2584 
Q 1688 2584 1439 2293 
Q 1191 2003 1191 1497 
Q 1191 994 1439 701 
Q 1688 409 2113 409 
Q 2538 409 2786 701 
Q 3034 994 3034 1497 
Q 3034 2003 2786 2293 
Q 2538 2584 2113 2584 
z
M 3366 4563 
L 3366 3988 
Q 3128 4100 2886 4159 
Q 2644 4219 2406 4219 
Q 1781 4219 1451 3797 
Q 1122 3375 1075 2522 
Q 1259 2794 1537 2939 
Q 1816 3084 2150 3084 
Q 2853 3084 3261 2657 
Q 3669 2231 3669 1497 
Q 3669 778 3244 343 
Q 2819 -91 2113 -91 
Q 1303 -91 875 529 
Q 447 1150 447 2328 
Q 447 3434 972 4092 
Q 1497 4750 2381 4750 
Q 2619 4750 2861 4703 
Q 3103 4656 3366 4563 
z
" transform="scale(0.015625)"/>
       </defs>
       <use xlink:href="#DejaVuSans-36"/>
       <use xlink:href="#DejaVuSans-30" x="63.623047"/>
      </g>
     </g>
    </g>
    <g id="xtick_5">
     <g id="line2d_5">
      <g>
       <use xlink:href="#mc48527a242" x="319.936625" y="288.21825" style="stroke: #000000; stroke-width: 0.8"/>
      </g>
     </g>
     <g id="text_5">
      <!-- 80 -->
      <g transform="translate(313.574125 302.816687)scale(0.1 -0.1)">
       <defs>
        <path id="DejaVuSans-38" d="M 2034 2216 
Q 1584 2216 1326 1975 
Q 1069 1734 1069 1313 
Q 1069 891 1326 650 
Q 1584 409 2034 409 
Q 2484 409 2743 651 
Q 3003 894 3003 1313 
Q 3003 1734 2745 1975 
Q 2488 2216 2034 2216 
z
M 1403 2484 
Q 997 2584 770 2862 
Q 544 3141 544 3541 
Q 544 4100 942 4425 
Q 1341 4750 2034 4750 
Q 2731 4750 3128 4425 
Q 3525 4100 3525 3541 
Q 3525 3141 3298 2862 
Q 3072 2584 2669 2484 
Q 3125 2378 3379 2068 
Q 3634 1759 3634 1313 
Q 3634 634 3220 271 
Q 2806 -91 2034 -91 
Q 1263 -91 848 271 
Q 434 634 434 1313 
Q 434 1759 690 2068 
Q 947 2378 1403 2484 
z
M 1172 3481 
Q 1172 3119 1398 2916 
Q 1625 2713 2034 2713 
Q 2441 2713 2670 2916 
Q 2900 3119 2900 3481 
Q 2900 3844 2670 4047 
Q 2441 4250 2034 4250 
Q 1625 4250 1398 4047 
Q 1172 3844 1172 3481 
z
" transform="scale(0.015625)"/>
       </defs>
       <use xlink:href="#DejaVuSans-38"/>
       <use xlink:href="#DejaVuSans-30" x="63.623047"/>
      </g>
     </g>
    </g>
    <g id="xtick_6">
     <g id="line2d_6">
      <g>
       <use xlink:href="#mc48527a242" x="391.360625" y="288.21825" style="stroke: #000000; stroke-width: 0.8"/>
      </g>
     </g>
     <g id="text_6">
      <!-- 100 -->
      <g transform="translate(381.816875 302.816687)scale(0.1 -0.1)">
       <defs>
        <path id="DejaVuSans-31" d="M 794 531 
L 1825 531 
L 1825 4091 
L 703 3866 
L 703 4441 
L 1819 4666 
L 2450 4666 
L 2450 531 
L 3481 531 
L 3481 0 
L 794 0 
L 794 531 
z
" transform="scale(0.015625)"/>
       </defs>
       <use xlink:href="#DejaVuSans-31"/>
       <use xlink:href="#DejaVuSans-30" x="63.623047"/>
       <use xlink:href="#DejaVuSans-30" x="127.246094"/>
      </g>
     </g>
    </g>
    <g id="text_7">
     <!-- axialRotation -->
     <g transform="translate(180.024844 316.494812)scale(0.1 -0.1)">
      <defs>
       <path id="DejaVuSans-61" d="M 2194 1759 
Q 1497 1759 1228 1600 
Q 959 1441 959 1056 
Q 959 750 1161 570 
Q 1363 391 1709 391 
Q 2188 391 2477 730 
Q 2766 1069 2766 1631 
L 2766 1759 
L 2194 1759 
z
M 3341 1997 
L 3341 0 
L 2766 0 
L 2766 531 
Q 2569 213 2275 61 
Q 1981 -91 1556 -91 
Q 1019 -91 701 211 
Q 384 513 384 1019 
Q 384 1609 779 1909 
Q 1175 2209 1959 2209 
L 2766 2209 
L 2766 2266 
Q 2766 2663 2505 2880 
Q 2244 3097 1772 3097 
Q 1472 3097 1187 3025 
Q 903 2953 641 2809 
L 641 3341 
Q 956 3463 1253 3523 
Q 1550 3584 1831 3584 
Q 2591 3584 2966 3190 
Q 3341 2797 3341 1997 
z
" transform="scale(0.015625)"/>
       <path id="DejaVuSans-78" d="M 3513 3500 
L 2247 1797 
L 3578 0 
L 2900 0 
L 1881 1375 
L 863 0 
L 184 0 
L 1544 1831 
L 300 3500 
L 978 3500 
L 1906 2253 
L 2834 3500 
L 3513 3500 
z
" transform="scale(0.015625)"/>
       <path id="DejaVuSans-69" d="M 603 3500 
L 1178 3500 
L 1178 0 
L 603 0 
L 603 3500 
z
M 603 4863 
L 1178 4863 
L 1178 4134 
L 603 4134 
L 603 4863 
z
" transform="scale(0.015625)"/>
       <path id="DejaVuSans-6c" d="M 603 4863 
L 1178 4863 
L 1178 0 
L 603 0 
L 603 4863 
z
" transform="scale(0.015625)"/>
       <path id="DejaVuSans-52" d="M 2841 2188 
Q 3044 2119 3236 1894 
Q 3428 1669 3622 1275 
L 4263 0 
L 3584 0 
L 2988 1197 
Q 2756 1666 2539 1819 
Q 2322 1972 1947 1972 
L 1259 1972 
L 1259 0 
L 628 0 
L 628 4666 
L 2053 4666 
Q 2853 4666 3247 4331 
Q 3641 3997 3641 3322 
Q 3641 2881 3436 2590 
Q 3231 2300 2841 2188 
z
M 1259 4147 
L 1259 2491 
L 2053 2491 
Q 2509 2491 2742 2702 
Q 2975 2913 2975 3322 
Q 2975 3731 2742 3939 
Q 2509 4147 2053 4147 
L 1259 4147 
z
" transform="scale(0.015625)"/>
       <path id="DejaVuSans-6f" d="M 1959 3097 
Q 1497 3097 1228 2736 
Q 959 2375 959 1747 
Q 959 1119 1226 758 
Q 1494 397 1959 397 
Q 2419 397 2687 759 
Q 2956 1122 2956 1747 
Q 2956 2369 2687 2733 
Q 2419 3097 1959 3097 
z
M 1959 3584 
Q 2709 3584 3137 3096 
Q 3566 2609 3566 1747 
Q 3566 888 3137 398 
Q 2709 -91 1959 -91 
Q 1206 -91 779 398 
Q 353 888 353 1747 
Q 353 2609 779 3096 
Q 1206 3584 1959 3584 
z
" transform="scale(0.015625)"/>
       <path id="DejaVuSans-74" d="M 1172 4494 
L 1172 3500 
L 2356 3500 
L 2356 3053 
L 1172 3053 
L 1172 1153 
Q 1172 725 1289 603 
Q 1406 481 1766 481 
L 2356 481 
L 2356 0 
L 1766 0 
Q 1100 0 847 248 
Q 594 497 594 1153 
L 594 3053 
L 172 3053 
L 172 3500 
L 594 3500 
L 594 4494 
L 1172 4494 
z
" transform="scale(0.015625)"/>
       <path id="DejaVuSans-6e" d="M 3513 2113 
L 3513 0 
L 2938 0 
L 2938 2094 
Q 2938 2591 2744 2837 
Q 2550 3084 2163 3084 
Q 1697 3084 1428 2787 
Q 1159 2491 1159 1978 
L 1159 0 
L 581 0 
L 581 3500 
L 1159 3500 
L 1159 2956 
Q 1366 3272 1645 3428 
Q 1925 3584 2291 3584 
Q 2894 3584 3203 3211 
Q 3513 2838 3513 2113 
z
" transform="scale(0.015625)"/>
      </defs>
      <use xlink:href="#DejaVuSans-61"/>
      <use xlink:href="#DejaVuSans-78" x="61.279297"/>
      <use xlink:href="#DejaVuSans-69" x="120.458984"/>
      <use xlink:href="#DejaVuSans-61" x="148.242188"/>
      <use xlink:href="#DejaVuSans-6c" x="209.521484"/>
      <use xlink:href="#DejaVuSans-52" x="237.304688"/>
      <use xlink:href="#DejaVuSans-6f" x="302.287109"/>
      <use xlink:href="#DejaVuSans-74" x="363.46875"/>
      <use xlink:href="#DejaVuSans-61" x="402.677734"/>
      <use xlink:href="#DejaVuSans-74" x="463.957031"/>
      <use xlink:href="#DejaVuSans-69" x="503.166016"/>
      <use xlink:href="#DejaVuSans-6f" x="530.949219"/>
      <use xlink:href="#DejaVuSans-6e" x="592.130859"/>
     </g>
    </g>
   </g>
   <g id="matplotlib.axis_2">
    <g id="ytick_1">
     <g id="line2d_7">
      <defs>
       <path id="m4667a10880" d="M 0 0 
L -3.5 0 
" style="stroke: #000000; stroke-width: 0.8"/>
      </defs>
      <g>
       <use xlink:href="#m4667a10880" x="34.240625" y="288.21825" style="stroke: #000000; stroke-width: 0.8"/>
      </g>
     </g>
     <g id="text_8">
      <!-- 0 -->
      <g transform="translate(20.878125 292.017469)scale(0.1 -0.1)">
       <use xlink:href="#DejaVuSans-30"/>
      </g>
     </g>
    </g>
    <g id="ytick_2">
     <g id="line2d_8">
      <g>
       <use xlink:href="#m4667a10880" x="34.240625" y="243.86625" style="stroke: #000000; stroke-width: 0.8"/>
      </g>
     </g>
     <g id="text_9">
      <!-- 1 -->
      <g transform="translate(20.878125 247.665469)scale(0.1 -0.1)">
       <use xlink:href="#DejaVuSans-31"/>
      </g>
     </g>
    </g>
    <g id="ytick_3">
     <g id="line2d_9">
      <g>
       <use xlink:href="#m4667a10880" x="34.240625" y="199.51425" style="stroke: #000000; stroke-width: 0.8"/>
      </g>
     </g>
     <g id="text_10">
      <!-- 2 -->
      <g transform="translate(20.878125 203.313469)scale(0.1 -0.1)">
       <use xlink:href="#DejaVuSans-32"/>
      </g>
     </g>
    </g>
    <g id="ytick_4">
     <g id="line2d_10">
      <g>
       <use xlink:href="#m4667a10880" x="34.240625" y="155.16225" style="stroke: #000000; stroke-width: 0.8"/>
      </g>
     </g>
     <g id="text_11">
      <!-- 3 -->
      <g transform="translate(20.878125 158.961469)scale(0.1 -0.1)">
       <defs>
        <path id="DejaVuSans-33" d="M 2597 2516 
Q 3050 2419 3304 2112 
Q 3559 1806 3559 1356 
Q 3559 666 3084 287 
Q 2609 -91 1734 -91 
Q 1441 -91 1130 -33 
Q 819 25 488 141 
L 488 750 
Q 750 597 1062 519 
Q 1375 441 1716 441 
Q 2309 441 2620 675 
Q 2931 909 2931 1356 
Q 2931 1769 2642 2001 
Q 2353 2234 1838 2234 
L 1294 2234 
L 1294 2753 
L 1863 2753 
Q 2328 2753 2575 2939 
Q 2822 3125 2822 3475 
Q 2822 3834 2567 4026 
Q 2313 4219 1838 4219 
Q 1578 4219 1281 4162 
Q 984 4106 628 3988 
L 628 4550 
Q 988 4650 1302 4700 
Q 1616 4750 1894 4750 
Q 2613 4750 3031 4423 
Q 3450 4097 3450 3541 
Q 3450 3153 3228 2886 
Q 3006 2619 2597 2516 
z
" transform="scale(0.015625)"/>
       </defs>
       <use xlink:href="#DejaVuSans-33"/>
      </g>
     </g>
    </g>
    <g id="ytick_5">
     <g id="line2d_11">
      <g>
       <use xlink:href="#m4667a10880" x="34.240625" y="110.81025" style="stroke: #000000; stroke-width: 0.8"/>
      </g>
     </g>
     <g id="text_12">
      <!-- 4 -->
      <g transform="translate(20.878125 114.609469)scale(0.1 -0.1)">
       <use xlink:href="#DejaVuSans-34"/>
      </g>
     </g>
    </g>
    <g id="ytick_6">
     <g id="line2d_12">
      <g>
       <use xlink:href="#m4667a10880" x="34.240625" y="66.45825" style="stroke: #000000; stroke-width: 0.8"/>
      </g>
     </g>
     <g id="text_13">
      <!-- 5 -->
      <g transform="translate(20.878125 70.257469)scale(0.1 -0.1)">
       <defs>
        <path id="DejaVuSans-35" d="M 691 4666 
L 3169 4666 
L 3169 4134 
L 1269 4134 
L 1269 2991 
Q 1406 3038 1543 3061 
Q 1681 3084 1819 3084 
Q 2600 3084 3056 2656 
Q 3513 2228 3513 1497 
Q 3513 744 3044 326 
Q 2575 -91 1722 -91 
Q 1428 -91 1123 -41 
Q 819 9 494 109 
L 494 744 
Q 775 591 1075 516 
Q 1375 441 1709 441 
Q 2250 441 2565 725 
Q 2881 1009 2881 1497 
Q 2881 1984 2565 2268 
Q 2250 2553 1709 2553 
Q 1456 2553 1204 2497 
Q 953 2441 691 2322 
L 691 4666 
z
" transform="scale(0.015625)"/>
       </defs>
       <use xlink:href="#DejaVuSans-35"/>
      </g>
     </g>
    </g>
    <g id="ytick_7">
     <g id="line2d_13">
      <g>
       <use xlink:href="#m4667a10880" x="34.240625" y="22.10625" style="stroke: #000000; stroke-width: 0.8"/>
      </g>
     </g>
     <g id="text_14">
      <!-- 6 -->
      <g transform="translate(20.878125 25.905469)scale(0.1 -0.1)">
       <use xlink:href="#DejaVuSans-36"/>
      </g>
     </g>
    </g>
    <g id="text_15">
     <!-- zShift -->
     <g transform="translate(14.798438 169.151312)rotate(-90)scale(0.1 -0.1)">
      <defs>
       <path id="DejaVuSans-7a" d="M 353 3500 
L 3084 3500 
L 3084 2975 
L 922 459 
L 3084 459 
L 3084 0 
L 275 0 
L 275 525 
L 2438 3041 
L 353 3041 
L 353 3500 
z
" transform="scale(0.015625)"/>
       <path id="DejaVuSans-53" d="M 3425 4513 
L 3425 3897 
Q 3066 4069 2747 4153 
Q 2428 4238 2131 4238 
Q 1616 4238 1336 4038 
Q 1056 3838 1056 3469 
Q 1056 3159 1242 3001 
Q 1428 2844 1947 2747 
L 2328 2669 
Q 3034 2534 3370 2195 
Q 3706 1856 3706 1288 
Q 3706 609 3251 259 
Q 2797 -91 1919 -91 
Q 1588 -91 1214 -16 
Q 841 59 441 206 
L 441 856 
Q 825 641 1194 531 
Q 1563 422 1919 422 
Q 2459 422 2753 634 
Q 3047 847 3047 1241 
Q 3047 1584 2836 1778 
Q 2625 1972 2144 2069 
L 1759 2144 
Q 1053 2284 737 2584 
Q 422 2884 422 3419 
Q 422 4038 858 4394 
Q 1294 4750 2059 4750 
Q 2388 4750 2728 4690 
Q 3069 4631 3425 4513 
z
" transform="scale(0.015625)"/>
       <path id="DejaVuSans-68" d="M 3513 2113 
L 3513 0 
L 2938 0 
L 2938 2094 
Q 2938 2591 2744 2837 
Q 2550 3084 2163 3084 
Q 1697 3084 1428 2787 
Q 1159 2491 1159 1978 
L 1159 0 
L 581 0 
L 581 4863 
L 1159 4863 
L 1159 2956 
Q 1366 3272 1645 3428 
Q 1925 3584 2291 3584 
Q 2894 3584 3203 3211 
Q 3513 2838 3513 2113 
z
" transform="scale(0.015625)"/>
       <path id="DejaVuSans-66" d="M 2375 4863 
L 2375 4384 
L 1825 4384 
Q 1516 4384 1395 4259 
Q 1275 4134 1275 3809 
L 1275 3500 
L 2222 3500 
L 2222 3053 
L 1275 3053 
L 1275 0 
L 697 0 
L 697 3053 
L 147 3053 
L 147 3500 
L 697 3500 
L 697 3744 
Q 697 4328 969 4595 
Q 1241 4863 1831 4863 
L 2375 4863 
z
" transform="scale(0.015625)"/>
      </defs>
      <use xlink:href="#DejaVuSans-7a"/>
      <use xlink:href="#DejaVuSans-53" x="52.490234"/>
      <use xlink:href="#DejaVuSans-68" x="115.966797"/>
      <use xlink:href="#DejaVuSans-69" x="179.345703"/>
      <use xlink:href="#DejaVuSans-66" x="207.128906"/>
      <use xlink:href="#DejaVuSans-74" x="240.583984"/>
     </g>
    </g>
   </g>
   <g id="PathCollection_1"/>
   <g id="PathCollection_2">
    <path d="M 129.298239 288.21825 
L 129.286714 285.55713 
L 129.341681 284.426351 
L 129.404026 282.89601 
L 129.638193 280.23489 
L 130.020273 277.57377 
L 130.583827 274.91265 
L 131.162993 272.909562 
L 131.35448 272.25153 
L 132.329282 269.59041 
L 132.948593 268.242212 
L 133.629853 266.92929 
L 134.734193 265.090785 
L 135.671099 263.82465 
L 136.519793 262.723259 
L 137.903064 261.16353 
L 138.341105 260.646095 
L 140.089903 258.50241 
L 140.126705 258.450421 
L 141.558179 255.84129 
L 141.912305 255.02657 
L 142.471276 253.18017 
L 143.06922 250.51905 
L 143.500599 247.85793 
L 143.697905 246.143722 
L 143.774549 245.19681 
L 143.924554 242.53569 
L 144.025866 239.87457 
L 144.092753 237.21345 
L 144.135856 234.55233 
L 144.162923 231.89121 
L 144.179458 229.23009 
L 144.189268 226.56897 
L 144.194926 223.90785 
L 144.19849 220.80321 
L 144.200109 218.14209 
L 144.201022 215.48097 
L 144.20154 212.81985 
L 144.201817 210.15873 
L 144.201931 207.49761 
L 144.201938 204.83649 
L 144.201893 202.17537 
L 144.201849 199.51425 
L 144.201843 196.85313 
L 144.201885 194.19201 
L 144.201955 191.53089 
L 144.202016 188.86977 
L 144.202036 186.20865 
L 144.202003 183.54753 
L 144.201937 180.88641 
L 144.201873 178.22529 
L 144.201845 175.12065 
L 144.201877 172.45953 
L 144.201944 169.79841 
L 144.202008 167.13729 
L 144.202036 164.47617 
L 144.202011 161.81505 
L 144.201946 159.15393 
L 144.201874 156.49281 
L 144.201829 153.83169 
L 144.201824 151.17057 
L 144.201837 148.50945 
L 144.201812 145.84833 
L 144.201662 143.18721 
L 144.201273 140.52609 
L 144.20048 137.86497 
L 144.199015 135.20385 
L 144.195809 132.09921 
L 144.190793 129.43809 
L 144.182146 126.77697 
L 144.167548 124.11585 
L 144.143514 121.45473 
L 144.105015 118.79361 
L 144.045019 116.13249 
L 143.953996 113.47137 
L 143.819402 110.81025 
L 143.697905 109.141136 
L 143.597155 108.14913 
L 143.221032 105.48801 
L 142.710249 102.82689 
L 142.033658 100.16577 
L 141.912305 99.793159 
L 140.91384 97.50465 
L 140.126705 95.997552 
L 139.404603 94.84353 
L 138.341105 93.305491 
L 137.549057 92.18241 
L 136.519793 90.745597 
L 135.719114 89.52129 
L 134.734193 87.925631 
L 133.922388 86.41665 
L 132.948593 84.316937 
L 132.703899 83.75553 
L 131.70895 81.09441 
L 131.162993 79.20605 
L 130.932439 78.43329 
L 130.293538 75.77217 
L 129.836899 73.11105 
L 129.528565 70.44993 
L 129.347366 67.78881 
L 129.341681 67.557745 
L 129.268419 65.12769 
L 129.328658 62.46657 
L 129.341681 62.292987 
L 129.500117 59.80545 
L 129.804983 57.14433 
L 130.272558 54.48321 
L 130.944349 51.82209 
L 131.162993 51.131613 
L 131.798395 49.16097 
L 132.940905 46.49985 
L 132.948593 46.484026 
L 134.712044 43.39521 
L 134.734193 43.360832 
L 136.519793 40.993077 
L 136.75013 40.73409 
L 138.341105 38.906521 
L 139.07982 38.07297 
L 140.126705 36.756075 
L 141.002292 35.41185 
L 141.912305 33.747985 
L 142.307132 32.75073 
L 143.170647 30.08961 
L 143.697905 28.157323 
L 143.842975 27.42849 
L 144.311036 24.76737 
L 144.763025 22.10625 
" clip-path="url(#p6e4bbe3d0e)" style="fill: none; stroke: #deebf7; stroke-width: 1.5"/>
    <path d="M 279.997435 22.10625 
L 280.082033 22.89873 
L 280.328879 24.76737 
L 280.6054 27.42849 
L 280.817287 30.08961 
L 280.978383 32.75073 
L 281.099577 35.41185 
L 281.189549 38.07297 
L 281.25528 40.73409 
L 281.30241 43.39521 
L 281.339909 46.49985 
L 281.361161 49.16097 
L 281.375324 51.82209 
L 281.384541 54.48321 
L 281.390418 57.14433 
L 281.394102 59.80545 
L 281.396375 62.46657 
L 281.397742 65.12769 
L 281.398523 67.78881 
L 281.398923 70.44993 
L 281.39909 73.11105 
L 281.39914 75.77217 
L 281.399158 78.43329 
L 281.399196 81.09441 
L 281.399264 83.75553 
L 281.399342 86.41665 
L 281.399399 89.52129 
L 281.399394 92.18241 
L 281.399341 94.84353 
L 281.399271 97.50465 
L 281.399222 100.16577 
L 281.39922 102.82689 
L 281.399268 105.48801 
L 281.399341 108.14913 
L 281.399403 110.81025 
L 281.399428 113.47137 
L 281.399419 116.13249 
L 281.399416 118.79361 
L 281.399491 121.45473 
L 281.399744 124.11585 
L 281.400311 126.77697 
L 281.401399 129.43809 
L 281.403364 132.09921 
L 281.407626 135.20385 
L 281.414254 137.86497 
L 281.42558 140.52609 
L 281.444495 143.18721 
L 281.475263 145.84833 
L 281.52397 148.50945 
L 281.599044 151.17057 
L 281.711835 153.83169 
L 281.877239 156.49281 
L 281.903345 156.788024 
L 282.194689 159.15393 
L 282.648154 161.81505 
L 283.261183 164.47617 
L 283.688945 165.88676 
L 284.202285 167.13729 
L 285.474545 169.658629 
L 285.560588 169.79841 
L 287.260145 172.222782 
L 287.431869 172.45953 
L 289.081457 174.62202 
L 289.428505 175.12065 
L 290.867057 177.213435 
L 291.462314 178.22529 
L 292.652657 180.4476 
L 292.868532 180.88641 
L 294.038039 183.54753 
L 294.438257 184.637822 
L 295.0143 186.20865 
L 295.812151 188.86977 
L 296.259569 190.743866 
L 296.466371 191.53089 
L 297.057151 194.19201 
L 297.513618 196.85313 
L 297.867256 199.51425 
L 298.045169 201.200801 
L 298.172625 202.17537 
L 298.452907 204.83649 
L 298.667712 207.49761 
L 298.83104 210.15873 
L 298.953905 212.81985 
L 299.045087 215.48097 
L 299.111638 218.14209 
L 299.159232 220.80321 
L 299.196804 223.90785 
L 299.217628 226.56897 
L 299.230721 229.23009 
L 299.237909 231.89121 
L 299.240289 234.55233 
L 299.23824 237.21345 
L 299.231427 239.87457 
L 299.218796 242.53569 
L 299.198551 245.19681 
L 299.168107 247.85793 
L 299.12401 250.51905 
L 299.061809 253.18017 
L 298.975863 255.84129 
L 298.859066 258.50241 
L 298.70246 261.16353 
L 298.494675 263.82465 
L 298.167881 266.92929 
L 298.045169 267.844706 
L 297.852197 269.59041 
L 297.476464 272.25153 
L 296.984046 274.91265 
L 296.336869 277.57377 
L 296.259569 277.847394 
L 295.617913 280.23489 
L 294.677029 282.89601 
L 294.438257 283.477012 
L 293.523943 285.55713 
L 292.652657 287.202558 
L 292.020413 288.21825 
" clip-path="url(#p6e4bbe3d0e)" style="fill: none; stroke: #deebf7; stroke-width: 1.5"/>
   </g>
   <g id="PathCollection_3">
    <path d="M 133.481083 288.21825 
L 133.499308 285.55713 
L 133.712255 282.89601 
L 134.139455 280.23489 
L 134.734193 277.874596 
L 134.819811 277.57377 
L 135.837433 274.91265 
L 136.519793 273.536104 
L 137.317561 272.25153 
L 138.341105 270.825266 
L 139.450317 269.59041 
L 140.126705 268.85937 
L 141.912305 267.027483 
L 141.994597 266.92929 
L 143.697905 264.587956 
L 144.084356 263.82465 
L 145.160454 261.16353 
L 145.519217 260.019079 
L 145.857086 258.50241 
L 146.31069 255.84129 
L 146.645595 253.18017 
L 146.889458 250.51905 
L 147.064143 247.85793 
L 147.18699 245.19681 
L 147.271664 242.53569 
L 147.304817 240.995548 
L 147.32439 239.87457 
L 147.355178 237.21345 
L 147.375006 234.55233 
L 147.387421 231.89121 
L 147.394953 229.23009 
L 147.399368 226.56897 
L 147.401879 223.90785 
L 147.403455 220.80321 
L 147.404198 218.14209 
L 147.404655 215.48097 
L 147.404942 212.81985 
L 147.405097 210.15873 
L 147.40514 207.49761 
L 147.405099 204.83649 
L 147.405022 202.17537 
L 147.404965 199.51425 
L 147.404963 196.85313 
L 147.405021 194.19201 
L 147.405108 191.53089 
L 147.405178 188.86977 
L 147.405193 186.20865 
L 147.405145 183.54753 
L 147.40506 180.88641 
L 147.404984 178.22529 
L 147.40496 175.12065 
L 147.405009 172.45953 
L 147.405094 169.79841 
L 147.40517 167.13729 
L 147.405195 164.47617 
L 147.405156 161.81505 
L 147.405073 159.15393 
L 147.40499 156.49281 
L 147.404949 153.83169 
L 147.404965 151.17057 
L 147.405018 148.50945 
L 147.40505 145.84833 
L 147.40499 143.18721 
L 147.404762 140.52609 
L 147.404286 137.86497 
L 147.403441 135.20385 
L 147.401676 132.09921 
L 147.398985 129.43809 
L 147.394384 126.77697 
L 147.386622 124.11585 
L 147.373836 121.45473 
L 147.353369 118.79361 
L 147.321543 116.13249 
L 147.304817 115.205672 
L 147.266412 113.47137 
L 147.17964 110.81025 
L 147.054684 108.14913 
L 146.878662 105.48801 
L 146.635728 102.82689 
L 146.306681 100.16577 
L 145.86849 97.50465 
L 145.519217 95.862512 
L 145.230103 94.84353 
L 144.284799 92.18241 
L 143.697905 90.836454 
L 142.947225 89.52129 
L 141.912305 87.943626 
L 140.76969 86.41665 
L 140.126705 85.597145 
L 138.76139 83.75553 
L 138.341105 83.159706 
L 137.097526 81.09441 
L 136.519793 79.981636 
L 135.829125 78.43329 
L 134.891555 75.77217 
L 134.734193 75.188678 
L 134.213218 73.11105 
L 133.760182 70.44993 
L 133.505559 67.78881 
L 133.436972 65.12769 
L 133.555024 62.46657 
L 133.873377 59.80545 
L 134.420149 57.14433 
L 134.734193 56.065204 
L 135.257425 54.48321 
L 136.451552 51.82209 
L 136.519793 51.694997 
L 138.216375 49.16097 
L 138.341105 48.995577 
L 140.126705 47.026332 
L 140.647832 46.49985 
L 141.912305 45.157036 
L 143.301411 43.39521 
L 143.697905 42.813424 
L 144.711339 40.73409 
L 145.519217 38.69155 
L 145.695155 38.07297 
L 146.329162 35.41185 
L 146.860643 32.75073 
L 147.304817 30.241493 
L 147.326663 30.08961 
L 147.693 27.42849 
L 148.073909 24.76737 
L 148.499716 22.10625 
" clip-path="url(#p6e4bbe3d0e)" style="fill: none; stroke: #c6dbef; stroke-width: 1.5"/>
    <path d="M 276.502105 22.10625 
L 276.510833 22.164738 
L 276.926864 24.76737 
L 277.255295 27.42849 
L 277.507084 30.08961 
L 277.698506 32.75073 
L 277.842426 35.41185 
L 277.949142 38.07297 
L 278.02697 40.73409 
L 278.082647 43.39521 
L 278.126813 46.49985 
L 278.151759 49.16097 
L 278.168329 51.82209 
L 278.17908 54.48321 
L 278.185918 57.14433 
L 278.190195 59.80545 
L 278.192827 62.46657 
L 278.194402 65.12769 
L 278.195291 67.78881 
L 278.195736 70.44993 
L 278.195915 73.11105 
L 278.195966 75.77217 
L 278.19599 78.43329 
L 278.196042 81.09441 
L 278.196131 83.75553 
L 278.196226 86.41665 
L 278.196288 89.52129 
L 278.196271 92.18241 
L 278.1962 94.84353 
L 278.196114 97.50465 
L 278.19606 100.16577 
L 278.196067 102.82689 
L 278.196132 105.48801 
L 278.196221 108.14913 
L 278.196288 110.81025 
L 278.1963 113.47137 
L 278.19626 116.13249 
L 278.196209 118.79361 
L 278.196214 121.45473 
L 278.196349 124.11585 
L 278.19669 126.77697 
L 278.197332 129.43809 
L 278.198439 132.09921 
L 278.200752 135.20385 
L 278.204288 137.86497 
L 278.210312 140.52609 
L 278.220375 143.18721 
L 278.236746 145.84833 
L 278.262624 148.50945 
L 278.296433 150.771689 
L 278.303743 151.17057 
L 278.376602 153.83169 
L 278.483207 156.49281 
L 278.635862 159.15393 
L 278.850221 161.81505 
L 279.146042 164.47617 
L 279.54831 167.13729 
L 280.082033 169.765261 
L 280.091004 169.79841 
L 281.009878 172.45953 
L 281.903345 174.464429 
L 282.287561 175.12065 
L 283.688945 177.104859 
L 284.59408 178.22529 
L 285.474545 179.205318 
L 286.888737 180.88641 
L 287.260145 181.319999 
L 288.850072 183.54753 
L 289.081457 183.89248 
L 290.372243 186.20865 
L 290.867057 187.227531 
L 291.570357 188.86977 
L 292.507738 191.53089 
L 292.652657 192.014601 
L 293.283136 194.19201 
L 293.894614 196.85313 
L 294.370782 199.51425 
L 294.438257 199.974321 
L 294.786863 202.17537 
L 295.11596 204.83649 
L 295.368457 207.49761 
L 295.560523 210.15873 
L 295.704964 212.81985 
L 295.812052 215.48097 
L 295.890076 218.14209 
L 295.945733 220.80321 
L 295.989489 223.90785 
L 296.013573 226.56897 
L 296.028523 229.23009 
L 296.036452 231.89121 
L 296.038577 234.55233 
L 296.035234 237.21345 
L 296.025881 239.87457 
L 296.009081 242.53569 
L 295.982475 245.19681 
L 295.942714 247.85793 
L 295.88535 250.51905 
L 295.804658 253.18017 
L 295.693386 255.84129 
L 295.542383 258.50241 
L 295.340086 261.16353 
L 295.071781 263.82465 
L 294.649776 266.92929 
L 294.438257 268.142534 
L 294.197018 269.59041 
L 293.635821 272.25153 
L 292.900082 274.91265 
L 292.652657 275.65954 
L 291.958807 277.57377 
L 290.867057 279.970566 
L 290.721075 280.23489 
L 289.081457 282.808034 
L 289.006904 282.89601 
L 287.260145 284.832466 
L 286.363056 285.55713 
L 285.474545 286.286512 
L 283.688945 287.512632 
L 282.686814 288.21825 
" clip-path="url(#p6e4bbe3d0e)" style="fill: none; stroke: #c6dbef; stroke-width: 1.5"/>
   </g>
   <g id="PathCollection_4">
    <path d="M 137.483085 288.21825 
L 137.554134 285.55713 
L 137.969833 282.89601 
L 138.341105 281.60558 
L 138.869474 280.23489 
L 140.126705 277.962552 
L 140.421956 277.57377 
L 141.912305 275.917685 
L 142.91341 274.91265 
L 143.697905 274.144081 
L 145.17395 272.25153 
L 145.519217 271.760458 
L 146.521024 269.59041 
L 147.304817 267.481909 
L 147.447726 266.92929 
L 148.11666 263.82465 
L 148.553042 261.16353 
L 148.888605 258.50241 
L 149.090417 256.410699 
L 149.136261 255.84129 
L 149.302319 253.18017 
L 149.425282 250.51905 
L 149.51444 247.85793 
L 149.577687 245.19681 
L 149.621561 242.53569 
L 149.65131 239.87457 
L 149.671004 237.21345 
L 149.683699 234.55233 
L 149.691629 231.89121 
L 149.696397 229.23009 
L 149.699145 226.56897 
L 149.700677 223.90785 
L 149.701643 220.80321 
L 149.702133 218.14209 
L 149.702475 215.48097 
L 149.702713 212.81985 
L 149.702841 210.15873 
L 149.702853 207.49761 
L 149.702776 204.83649 
L 149.702668 202.17537 
L 149.702595 199.51425 
L 149.702601 196.85313 
L 149.702684 194.19201 
L 149.702799 191.53089 
L 149.702886 188.86977 
L 149.702896 186.20865 
L 149.702825 183.54753 
L 149.70271 180.88641 
L 149.702615 178.22529 
L 149.702595 175.12065 
L 149.702666 172.45953 
L 149.702781 169.79841 
L 149.702876 167.13729 
L 149.7029 164.47617 
L 149.702841 161.81505 
L 149.702728 159.15393 
L 149.702624 156.49281 
L 149.702581 153.83169 
L 149.70262 151.17057 
L 149.702708 148.50945 
L 149.702778 145.84833 
L 149.702754 143.18721 
L 149.702569 140.52609 
L 149.702177 137.86497 
L 149.701519 135.20385 
L 149.700228 132.09921 
L 149.698325 129.43809 
L 149.695095 126.77697 
L 149.68963 124.11585 
L 149.680596 121.45473 
L 149.666125 118.79361 
L 149.643665 116.13249 
L 149.60981 113.47137 
L 149.560097 110.81025 
L 149.488817 108.14913 
L 149.388867 105.48801 
L 149.251643 102.82689 
L 149.090417 100.497039 
L 149.063727 100.16577 
L 148.785215 97.50465 
L 148.421937 94.84353 
L 147.95515 92.18241 
L 147.363952 89.52129 
L 147.304817 89.294827 
L 146.296095 86.41665 
L 145.519217 84.591052 
L 145.037941 83.75553 
L 143.697905 81.646208 
L 143.274122 81.09441 
L 141.912305 79.317403 
L 141.255956 78.43329 
L 140.126705 76.735485 
L 139.594957 75.77217 
L 138.431579 73.11105 
L 138.341105 72.818527 
L 137.744039 70.44993 
L 137.38017 67.78881 
L 137.321788 65.12769 
L 137.579995 62.46657 
L 138.181082 59.80545 
L 138.341105 59.347469 
L 139.348833 57.14433 
L 140.126705 55.874985 
L 141.236775 54.48321 
L 141.912305 53.741492 
L 143.697905 51.875294 
L 143.739809 51.82209 
L 145.519217 49.442672 
L 145.663012 49.16097 
L 146.871547 46.49985 
L 147.304817 45.350892 
L 147.833995 43.39521 
L 148.431136 40.73409 
L 148.929941 38.07297 
L 149.090417 37.10154 
L 149.326617 35.41185 
L 149.675365 32.75073 
L 150.023728 30.08961 
L 150.398095 27.42849 
L 150.827158 24.76737 
L 150.876017 24.503327 
L 151.326972 22.10625 
" clip-path="url(#p6e4bbe3d0e)" style="fill: none; stroke: #9dcae1; stroke-width: 1.5"/>
    <path d="M 273.779723 22.10625 
L 274.297411 24.76737 
L 274.697757 27.42849 
L 274.725233 27.657515 
L 275.019182 30.08961 
L 275.264399 32.75073 
L 275.448552 35.41185 
L 275.584897 38.07297 
L 275.684154 40.73409 
L 275.75501 43.39521 
L 275.811071 46.49985 
L 275.842645 49.16097 
L 275.863564 51.82209 
L 275.877106 54.48321 
L 275.885701 57.14433 
L 275.891069 59.80545 
L 275.894365 62.46657 
L 275.896328 65.12769 
L 275.897425 67.78881 
L 275.897966 70.44993 
L 275.898176 73.11105 
L 275.898234 75.77217 
L 275.898267 78.43329 
L 275.898342 81.09441 
L 275.898463 83.75553 
L 275.898586 86.41665 
L 275.898658 89.52129 
L 275.898627 92.18241 
L 275.898528 94.84353 
L 275.898415 97.50465 
L 275.898351 100.16577 
L 275.89837 102.82689 
L 275.898462 105.48801 
L 275.898579 108.14913 
L 275.898657 110.81025 
L 275.898659 113.47137 
L 275.898589 116.13249 
L 275.8985 118.79361 
L 275.898468 121.45473 
L 275.898566 124.11585 
L 275.898849 126.77697 
L 275.899364 129.43809 
L 275.9002 132.09921 
L 275.901859 135.20385 
L 275.904346 137.86497 
L 275.90858 140.52609 
L 275.91568 143.18721 
L 275.927258 145.84833 
L 275.945548 148.50945 
L 275.973587 151.17057 
L 276.015434 153.83169 
L 276.076412 156.49281 
L 276.16336 159.15393 
L 276.284891 161.81505 
L 276.451688 164.47617 
L 276.510833 165.188515 
L 276.700278 167.13729 
L 277.043915 169.79841 
L 277.499632 172.45953 
L 278.100789 175.12065 
L 278.296433 175.80865 
L 279.220792 178.22529 
L 280.082033 179.967611 
L 280.699354 180.88641 
L 281.903345 182.398031 
L 283.003921 183.54753 
L 283.688945 184.201046 
L 285.474545 186.016799 
L 285.631975 186.20865 
L 287.260145 188.267148 
L 287.634874 188.86977 
L 289.081457 191.485153 
L 289.102286 191.53089 
L 290.171313 194.19201 
L 290.867057 196.347357 
L 291.014258 196.85313 
L 291.664371 199.51425 
L 292.171451 202.17537 
L 292.565202 204.83649 
L 292.652657 205.582018 
L 292.880668 207.49761 
L 293.124384 210.15873 
L 293.307539 212.81985 
L 293.443168 215.48097 
L 293.541819 218.14209 
L 293.612027 220.80321 
L 293.667029 223.90785 
L 293.697127 226.56897 
L 293.715608 229.23009 
L 293.725108 231.89121 
L 293.727094 234.55233 
L 293.721879 237.21345 
L 293.708619 239.87457 
L 293.685297 242.53569 
L 293.648672 245.19681 
L 293.594194 247.85793 
L 293.515848 250.51905 
L 293.405915 253.18017 
L 293.254625 255.84129 
L 293.049659 258.50241 
L 292.775457 261.16353 
L 292.652657 262.093484 
L 292.421729 263.82465 
L 291.872705 266.92929 
L 291.242508 269.59041 
L 290.867057 270.864922 
L 290.393593 272.25153 
L 289.257873 274.91265 
L 289.081457 275.265705 
L 287.564821 277.57377 
L 287.260145 277.983411 
L 285.474545 279.701059 
L 284.680079 280.23489 
L 283.688945 280.905012 
L 281.903345 281.933956 
L 280.484972 282.89601 
L 280.082033 283.196349 
L 278.296433 285.100551 
L 277.996221 285.55713 
L 276.510833 287.995748 
L 276.402355 288.21825 
" clip-path="url(#p6e4bbe3d0e)" style="fill: none; stroke: #9dcae1; stroke-width: 1.5"/>
   </g>
   <g id="PathCollection_5">
    <path d="M 148.713162 288.21825 
L 147.67936 285.55713 
L 147.724103 282.89601 
L 148.190547 280.23489 
L 148.789639 277.57377 
L 149.090417 276.354799 
L 149.327049 274.91265 
L 149.775148 272.25153 
L 150.179318 269.59041 
L 150.528941 266.92929 
L 150.86578 263.82465 
L 150.876017 263.712753 
L 151.082577 261.16353 
L 151.257249 258.50241 
L 151.394956 255.84129 
L 151.500854 253.18017 
L 151.580289 250.51905 
L 151.638416 247.85793 
L 151.67993 245.19681 
L 151.708891 242.53569 
L 151.728633 239.87457 
L 151.741768 237.21345 
L 151.750259 234.55233 
L 151.755545 231.89121 
L 151.758677 229.23009 
L 151.760432 226.56897 
L 151.761379 223.90785 
L 151.761986 220.80321 
L 151.762339 218.14209 
L 151.762632 215.48097 
L 151.762855 212.81985 
L 151.76297 210.15873 
L 151.762956 207.49761 
L 151.762842 204.83649 
L 151.762701 202.17537 
L 151.762614 199.51425 
L 151.762631 196.85313 
L 151.762744 194.19201 
L 151.762892 191.53089 
L 151.762995 188.86977 
L 151.762997 186.20865 
L 151.762898 183.54753 
L 151.762751 180.88641 
L 151.762635 178.22529 
L 151.762621 175.12065 
L 151.762721 172.45953 
L 151.762868 169.79841 
L 151.762984 167.13729 
L 151.763005 164.47617 
L 151.762919 161.81505 
L 151.762774 159.15393 
L 151.762647 156.49281 
L 151.762605 153.83169 
L 151.762667 151.17057 
L 151.762793 148.50945 
L 151.762899 145.84833 
L 151.762898 143.18721 
L 151.762733 140.52609 
L 151.762383 137.86497 
L 151.761836 135.20385 
L 151.760852 132.09921 
L 151.759472 129.43809 
L 151.757146 126.77697 
L 151.753182 124.11585 
L 151.746576 121.45473 
L 151.735962 118.79361 
L 151.719512 116.13249 
L 151.694817 113.47137 
L 151.658736 110.81025 
L 151.607268 108.14913 
L 151.535461 105.48801 
L 151.437403 102.82689 
L 151.306281 100.16577 
L 151.134533 97.50465 
L 150.914112 94.84353 
L 150.876017 94.465403 
L 150.621978 92.18241 
L 150.2552 89.52129 
L 149.723925 86.41665 
L 149.174523 83.75553 
L 149.090417 83.376673 
L 148.431874 81.09441 
L 147.572191 78.43329 
L 147.304817 77.60065 
L 146.469745 75.77217 
L 145.519217 73.561937 
L 145.261021 73.11105 
L 144.101517 70.44993 
L 143.697905 68.761711 
L 143.469389 67.78881 
L 143.542902 65.12769 
L 143.697905 64.614437 
L 144.391545 62.46657 
L 145.519217 60.435624 
L 145.781485 59.80545 
L 147.128186 57.14433 
L 147.304817 56.817242 
L 148.146789 54.48321 
L 149.027579 51.82209 
L 149.090417 51.618655 
L 149.659006 49.16097 
L 150.193721 46.49985 
L 150.721148 43.39521 
L 150.876017 42.358748 
L 151.092926 40.73409 
L 151.422398 38.07297 
L 151.740159 35.41185 
L 152.067402 32.75073 
L 152.427926 30.08961 
L 152.697329 28.369729 
L 152.85785 27.42849 
L 153.403711 24.76737 
L 154.09204 22.10625 
" clip-path="url(#p6e4bbe3d0e)" style="fill: none; stroke: #6aaed6; stroke-width: 1.5"/>
    <path d="M 271.063208 22.10625 
L 271.118321 22.273982 
L 271.776623 24.76737 
L 272.322533 27.42849 
L 272.742293 30.08961 
L 272.903921 31.414719 
L 273.054302 32.75073 
L 273.282707 35.41185 
L 273.451667 38.07297 
L 273.574514 40.73409 
L 273.662072 43.39521 
L 273.731211 46.49985 
L 273.770062 49.16097 
L 273.795749 51.82209 
L 273.812346 54.48321 
L 273.822864 57.14433 
L 273.829424 59.80545 
L 273.833444 62.46657 
L 273.835829 65.12769 
L 273.83715 67.78881 
L 273.83779 70.44993 
L 273.838032 73.11105 
L 273.838098 75.77217 
L 273.838143 78.43329 
L 273.838246 81.09441 
L 273.838403 83.75553 
L 273.838556 86.41665 
L 273.838638 89.52129 
L 273.838588 92.18241 
L 273.838456 94.84353 
L 273.838315 97.50465 
L 273.838242 100.16577 
L 273.838276 102.82689 
L 273.8384 105.48801 
L 273.838547 108.14913 
L 273.838638 110.81025 
L 273.838626 113.47137 
L 273.838523 116.13249 
L 273.838396 118.79361 
L 273.838333 121.45473 
L 273.838412 124.11585 
L 273.838669 126.77697 
L 273.839115 129.43809 
L 273.839781 132.09921 
L 273.84101 135.20385 
L 273.842801 137.86497 
L 273.845859 140.52609 
L 273.851034 143.18721 
L 273.85952 145.84833 
L 273.872934 148.50945 
L 273.893438 151.17057 
L 273.923898 153.83169 
L 273.968059 156.49281 
L 274.030719 159.15393 
L 274.117864 161.81505 
L 274.236799 164.47617 
L 274.396286 167.13729 
L 274.60675 169.79841 
L 274.725233 170.97483 
L 274.889973 172.45953 
L 275.266866 175.12065 
L 275.848484 178.22529 
L 276.5051 180.88641 
L 276.510833 180.906246 
L 277.524118 183.54753 
L 278.296433 185.128938 
L 279.062531 186.20865 
L 280.082033 187.428257 
L 281.745988 188.86977 
L 281.903345 188.994637 
L 283.688945 190.454411 
L 284.734709 191.53089 
L 285.474545 192.325235 
L 286.717153 194.19201 
L 287.260145 195.111453 
L 288.030441 196.85313 
L 288.999273 199.51425 
L 289.081457 199.785167 
L 289.682406 202.17537 
L 290.207423 204.83649 
L 290.613611 207.49761 
L 290.867057 209.655934 
L 290.922161 210.15873 
L 291.146875 212.81985 
L 291.313223 215.48097 
L 291.434104 218.14209 
L 291.519994 220.80321 
L 291.587091 223.90785 
L 291.62362 226.56897 
L 291.645821 229.23009 
L 291.656884 231.89121 
L 291.658522 234.55233 
L 291.650989 237.21345 
L 291.63307 239.87457 
L 291.602057 242.53569 
L 291.553682 245.19681 
L 291.481997 247.85793 
L 291.379174 250.51905 
L 291.23518 253.18017 
L 291.037335 255.84129 
L 290.867057 257.553864 
L 290.764414 258.50241 
L 290.387166 261.16353 
L 289.887493 263.82465 
L 289.102979 266.92929 
L 289.081457 266.998208 
L 288.048449 269.59041 
L 287.260145 271.179402 
L 286.484314 272.25153 
L 285.474545 273.475012 
L 283.688945 274.829077 
L 283.517139 274.91265 
L 281.903345 275.694315 
L 280.082033 276.531733 
L 278.598941 277.57377 
L 278.296433 277.804823 
L 276.510833 280.042428 
L 276.406063 280.23489 
L 275.031026 282.89601 
L 274.725233 283.515952 
L 273.857508 285.55713 
L 272.903921 287.743323 
L 272.691372 288.21825 
" clip-path="url(#p6e4bbe3d0e)" style="fill: none; stroke: #6aaed6; stroke-width: 1.5"/>
   </g>
   <g id="PathCollection_6">
    <path d="M 155.816889 288.21825 
L 154.482929 285.957432 
L 154.291898 285.55713 
L 153.452049 282.89601 
L 153.013393 280.23489 
L 152.833817 277.57377 
L 152.813854 274.91265 
L 152.885356 272.25153 
L 153.002884 269.59041 
L 153.137176 266.92929 
L 153.291531 263.82465 
L 153.410686 261.16353 
L 153.512872 258.50241 
L 153.596846 255.84129 
L 153.663347 253.18017 
L 153.714275 250.51905 
L 153.752101 247.85793 
L 153.779432 245.19681 
L 153.798701 242.53569 
L 153.811979 239.87457 
L 153.820906 237.21345 
L 153.82671 234.55233 
L 153.830302 231.89121 
L 153.832372 229.23009 
L 153.833466 226.56897 
L 153.834019 223.90785 
L 153.834394 220.80321 
L 153.834677 218.14209 
L 153.834965 215.48097 
L 153.835203 212.81985 
L 153.835315 210.15873 
L 153.835271 207.49761 
L 153.835107 204.83649 
L 153.834921 202.17537 
L 153.834816 199.51425 
L 153.834851 196.85313 
L 153.835008 194.19201 
L 153.835201 191.53089 
L 153.835327 188.86977 
L 153.835317 186.20865 
L 153.835177 183.54753 
L 153.834982 180.88641 
L 153.834838 178.22529 
L 153.834836 175.12065 
L 153.834976 172.45953 
L 153.835171 169.79841 
L 153.835315 167.13729 
L 153.835329 164.47617 
L 153.835206 161.81505 
L 153.835013 159.15393 
L 153.834853 156.49281 
L 153.834812 153.83169 
L 153.834909 151.17057 
L 153.835087 148.50945 
L 153.835237 145.84833 
L 153.835255 143.18721 
L 153.835087 140.52609 
L 153.83474 137.86497 
L 153.834247 135.20385 
L 153.833471 132.09921 
L 153.832464 129.43809 
L 153.830782 126.77697 
L 153.827863 124.11585 
L 153.822916 121.45473 
L 153.81491 118.79361 
L 153.802512 116.13249 
L 153.783993 113.47137 
L 153.757104 110.81025 
L 153.718973 108.14913 
L 153.666048 105.48801 
L 153.594125 102.82689 
L 153.498462 100.16577 
L 153.373984 97.50465 
L 153.215576 94.84353 
L 153.018523 92.18241 
L 152.77919 89.52129 
L 152.697329 88.729368 
L 152.451514 86.41665 
L 152.124884 83.75553 
L 151.761132 81.09441 
L 151.37698 78.43329 
L 151.001479 75.77217 
L 150.876017 74.713898 
L 150.643619 73.11105 
L 150.372306 70.44993 
L 150.262665 67.78881 
L 150.344781 65.12769 
L 150.605715 62.46657 
L 150.876017 60.648435 
L 150.977199 59.80545 
L 151.368558 57.14433 
L 151.777899 54.48321 
L 152.173688 51.82209 
L 152.539169 49.16097 
L 152.697329 47.92405 
L 152.873271 46.49985 
L 153.233452 43.39521 
L 153.526326 40.73409 
L 153.81989 38.07297 
L 154.132697 35.41185 
L 154.482929 32.781966 
L 154.487906 32.75073 
L 154.992294 30.08961 
L 155.620276 27.42849 
L 156.268529 25.253339 
L 156.484539 24.76737 
L 157.961812 22.10625 
" clip-path="url(#p6e4bbe3d0e)" style="fill: none; stroke: #4191c6; stroke-width: 1.5"/>
    <path d="M 166.984867 22.10625 
L 167.053553 22.127651 
L 167.531673 22.10625 
" clip-path="url(#p6e4bbe3d0e)" style="fill: none; stroke: #4191c6; stroke-width: 1.5"/>
    <path d="M 256.696089 22.10625 
L 256.762097 22.129028 
L 257.304001 22.10625 
" clip-path="url(#p6e4bbe3d0e)" style="fill: none; stroke: #4191c6; stroke-width: 1.5"/>
    <path d="M 267.111541 22.10625 
L 267.547121 22.56133 
L 268.677822 24.76737 
L 269.332721 26.361338 
L 269.637839 27.42849 
L 270.240293 30.08961 
L 270.69954 32.75073 
L 271.045222 35.41185 
L 271.118321 36.162451 
L 271.272904 38.07297 
L 271.430065 40.73409 
L 271.541933 43.39521 
L 271.63011 46.49985 
L 271.679559 49.16097 
L 271.71219 51.82209 
L 271.733239 54.48321 
L 271.746559 57.14433 
L 271.754857 59.80545 
L 271.759931 62.46657 
L 271.762929 65.12769 
L 271.764575 67.78881 
L 271.765359 70.44993 
L 271.765647 73.11105 
L 271.765725 75.77217 
L 271.765789 78.43329 
L 271.765933 81.09441 
L 271.766144 83.75553 
L 271.766341 86.41665 
L 271.766434 89.52129 
L 271.766355 92.18241 
L 271.766176 94.84353 
L 271.765994 97.50465 
L 271.765909 100.16577 
L 271.765968 102.82689 
L 271.766138 105.48801 
L 271.766328 108.14913 
L 271.766436 110.81025 
L 271.766405 113.47137 
L 271.766256 116.13249 
L 271.766077 118.79361 
L 271.765983 121.45473 
L 271.766055 124.11585 
L 271.766317 126.77697 
L 271.766741 129.43809 
L 271.767304 132.09921 
L 271.768231 135.20385 
L 271.769525 137.86497 
L 271.771754 140.52609 
L 271.775602 143.18721 
L 271.781989 145.84833 
L 271.792112 148.50945 
L 271.807536 151.17057 
L 271.830314 153.83169 
L 271.86314 156.49281 
L 271.909467 159.15393 
L 271.973591 161.81505 
L 272.060684 164.47617 
L 272.176803 167.13729 
L 272.328917 169.79841 
L 272.524975 172.45953 
L 272.774038 175.12065 
L 272.903921 176.249479 
L 273.138614 178.22529 
L 273.534092 180.88641 
L 274.02891 183.54753 
L 274.64507 186.20865 
L 274.725233 186.51606 
L 275.520888 188.86977 
L 276.510833 191.182082 
L 276.742731 191.53089 
L 278.296433 193.525253 
L 279.221485 194.19201 
L 280.082033 194.764027 
L 281.903345 195.763865 
L 283.395529 196.85313 
L 283.688945 197.077697 
L 285.474545 199.351496 
L 285.559094 199.51425 
L 286.738016 202.17537 
L 287.260145 203.613546 
L 287.585382 204.83649 
L 288.149072 207.49761 
L 288.583022 210.15873 
L 288.912074 212.81985 
L 289.081457 214.651058 
L 289.145973 215.48097 
L 289.297911 218.14209 
L 289.405747 220.80321 
L 289.489776 223.90785 
L 289.53529 226.56897 
L 289.56265 229.23009 
L 289.575805 231.89121 
L 289.576796 234.55233 
L 289.565764 237.21345 
L 289.540939 239.87457 
L 289.498591 242.53569 
L 289.432951 245.19681 
L 289.336036 247.85793 
L 289.197377 250.51905 
L 289.081457 252.123141 
L 288.989254 253.18017 
L 288.674417 255.84129 
L 288.249143 258.50241 
L 287.682158 261.16353 
L 287.260145 262.698853 
L 286.813034 263.82465 
L 285.474545 266.470857 
L 285.066265 266.92929 
L 283.688945 268.256554 
L 281.903345 269.092595 
L 280.082033 269.537941 
L 279.915575 269.59041 
L 278.296433 270.114317 
L 276.510833 271.54495 
L 276.049581 272.25153 
L 274.725233 274.449521 
L 274.530497 274.91265 
L 273.431796 277.57377 
L 272.903921 278.890508 
L 272.406369 280.23489 
L 271.377989 282.89601 
L 271.118321 283.52178 
L 270.136179 285.55713 
L 269.332721 287.039115 
L 268.39456 288.21825 
" clip-path="url(#p6e4bbe3d0e)" style="fill: none; stroke: #4191c6; stroke-width: 1.5"/>
   </g>
   <g id="PathCollection_7">
    <path d="M 154.370071 75.77217 
L 154.208616 73.11105 
L 154.103171 70.44993 
L 154.071771 67.78881 
L 154.121525 65.12769 
L 154.245835 62.46657 
L 154.426987 59.80545 
L 154.482929 59.138173 
L 154.665004 57.14433 
L 154.929074 54.48321 
L 155.195734 51.82209 
L 155.457102 49.16097 
L 155.712986 46.49985 
L 156.013473 43.39521 
L 156.268529 40.916779 
L 156.294272 40.73409 
L 156.724207 38.07297 
L 157.234591 35.41185 
L 157.866695 32.75073 
L 158.054129 32.119926 
L 159.229806 30.08961 
L 159.875441 29.205971 
L 161.661041 28.768585 
L 163.446641 29.634856 
L 164.057099 30.08961 
L 165.232241 31.191832 
L 167.053553 32.416827 
L 168.839153 32.35331 
L 170.624753 30.888596 
L 171.237045 30.08961 
L 172.410353 28.881663 
L 173.863639 27.42849 
L 174.231665 27.131217 
L 176.017265 26.25279 
L 177.802865 26.234436 
L 179.588465 27.065788 
L 180.053367 27.42849 
L 181.409777 28.728786 
L 182.762265 30.08961 
L 183.195377 30.642942 
L 184.980977 32.120188 
L 186.766577 32.171629 
L 188.587889 30.704273 
L 189.061343 30.08961 
L 190.373489 28.745919 
L 191.715157 27.42849 
L 192.159089 27.076048 
L 193.944689 26.232637 
L 195.766001 26.261088 
L 197.551601 27.137897 
L 197.919655 27.42849 
L 199.337201 28.803722 
L 200.624146 30.08961 
L 201.122801 30.722249 
L 202.944113 32.167618 
L 204.729713 32.124287 
L 206.515313 30.622995 
L 206.923258 30.08961 
L 208.300913 28.669335 
L 209.580954 27.42849 
L 210.122225 27.004436 
L 211.907825 26.208354 
L 213.693425 26.281091 
L 215.479025 27.18731 
L 215.78174 27.42849 
L 217.300337 28.916528 
L 218.48834 30.08961 
L 219.085937 30.838832 
L 220.871537 32.196237 
L 222.657137 32.089682 
L 224.478449 30.49866 
L 224.788401 30.08961 
L 226.264049 28.554909 
L 227.44153 27.42849 
L 228.049649 26.957993 
L 229.835249 26.193948 
L 231.656561 26.313654 
L 233.442161 27.263112 
L 233.647717 27.42849 
L 235.227761 28.99183 
L 236.349297 30.08961 
L 237.013361 30.914848 
L 238.834673 32.234596 
L 240.620273 32.033285 
L 242.405873 30.414295 
L 242.650601 30.08961 
L 244.191473 28.479121 
L 245.306676 27.42849 
L 246.012785 26.890662 
L 247.798385 26.175961 
L 249.583985 26.339688 
L 251.369585 27.321969 
L 251.50003 27.42849 
L 253.190897 29.128323 
L 254.168116 30.08961 
L 254.976497 31.099436 
L 256.762097 32.430174 
L 258.547697 32.370259 
L 260.369009 31.054894 
L 261.401839 30.08961 
L 262.154609 29.531808 
L 263.940209 28.813373 
L 265.725809 29.540272 
L 266.073458 30.08961 
L 267.401476 32.75073 
L 267.547121 33.129703 
L 268.022099 35.41185 
L 268.433921 38.07297 
L 268.733613 40.73409 
L 268.947115 43.39521 
L 269.115394 46.49985 
L 269.209687 49.16097 
L 269.271843 51.82209 
L 269.31189 54.48321 
L 269.332721 56.672421 
L 269.335938 57.14433 
L 269.347231 59.80545 
L 269.354121 62.46657 
L 269.358172 65.12769 
L 269.360374 67.78881 
L 269.361403 70.44993 
L 269.36177 73.11105 
L 269.36187 75.77217 
L 269.36197 78.43329 
L 269.362188 81.09441 
L 269.362493 83.75553 
L 269.362763 86.41665 
L 269.362871 89.52129 
L 269.362741 92.18241 
L 269.362478 94.84353 
L 269.362228 97.50465 
L 269.362126 100.16577 
L 269.362229 102.82689 
L 269.362481 105.48801 
L 269.362745 108.14913 
L 269.362879 110.81025 
L 269.362813 113.47137 
L 269.362584 116.13249 
L 269.362323 118.79361 
L 269.362184 121.45473 
L 269.362265 124.11585 
L 269.362569 126.77697 
L 269.363016 129.43809 
L 269.363516 132.09921 
L 269.364176 135.20385 
L 269.365016 137.86497 
L 269.366513 140.52609 
L 269.369235 143.18721 
L 269.373889 145.84833 
L 269.381327 148.50945 
L 269.392605 151.17057 
L 269.4091 153.83169 
L 269.432648 156.49281 
L 269.465652 159.15393 
L 269.511127 161.81505 
L 269.572684 164.47617 
L 269.654464 167.13729 
L 269.761088 169.79841 
L 269.897634 172.45953 
L 270.069663 175.12065 
L 270.323343 178.22529 
L 270.593714 180.88641 
L 270.920111 183.54753 
L 271.118321 184.952618 
L 271.283725 186.20865 
L 271.684827 188.86977 
L 272.156891 191.53089 
L 272.702936 194.19201 
L 272.903921 195.119254 
L 273.369138 196.85313 
L 274.176946 199.51425 
L 274.725233 201.16457 
L 275.349588 202.17537 
L 276.510833 203.877655 
L 278.296433 204.420342 
L 280.082033 204.297227 
L 281.903345 204.560843 
L 282.254337 204.83649 
L 283.688945 206.117063 
L 284.376003 207.49761 
L 285.455483 210.15873 
L 285.474545 210.218104 
L 285.964063 212.81985 
L 286.339981 215.48097 
L 286.615666 218.14209 
L 286.812485 220.80321 
L 286.966236 223.90785 
L 287.049304 226.56897 
L 287.098645 229.23009 
L 287.121257 231.89121 
L 287.12057 234.55233 
L 287.096395 237.21345 
L 287.044848 239.87457 
L 286.958253 242.53569 
L 286.824964 245.19681 
L 286.629061 247.85793 
L 286.34989 250.51905 
L 285.961414 253.18017 
L 285.474545 255.629529 
L 285.398403 255.84129 
L 284.156129 258.50241 
L 283.688945 259.291845 
L 281.903345 260.336006 
L 280.082033 260.119361 
L 278.296433 259.492419 
L 276.510833 259.519035 
L 275.066365 261.16353 
L 274.725233 261.561612 
L 273.814088 263.82465 
L 272.903921 266.204602 
L 272.69926 266.92929 
L 271.904966 269.59041 
L 271.126908 272.25153 
L 271.118321 272.279012 
L 270.257341 274.91265 
L 269.342728 277.57377 
L 269.332721 277.599791 
L 267.936971 280.23489 
L 267.547121 280.880458 
L 265.725809 282.306301 
L 263.940209 282.216795 
L 262.154609 281.071591 
L 261.154391 280.23489 
L 260.369009 279.400778 
L 258.547697 278.046999 
L 256.762097 278.034936 
L 254.976497 279.4609 
L 254.378839 280.23489 
L 253.190897 281.449913 
L 251.740833 282.89601 
L 251.369585 283.195192 
L 249.583985 284.07235 
L 247.798385 284.090284 
L 246.012785 283.25879 
L 245.547798 282.89601 
L 244.191473 281.595747 
L 242.838968 280.23489 
L 242.405873 279.681572 
L 240.620273 278.204316 
L 238.834673 278.152873 
L 237.013361 279.620227 
L 236.539907 280.23489 
L 235.227761 281.578581 
L 233.886093 282.89601 
L 233.442161 283.248452 
L 231.656561 284.091863 
L 229.835249 284.063412 
L 228.049649 283.186603 
L 227.681595 282.89601 
L 226.264049 281.520778 
L 224.977104 280.23489 
L 224.478449 279.602251 
L 222.657137 278.156882 
L 220.871537 278.200213 
L 219.085937 279.701505 
L 218.677992 280.23489 
L 217.300337 281.655165 
L 216.020296 282.89601 
L 215.479025 283.320064 
L 213.693425 284.116146 
L 211.907825 284.043409 
L 210.122225 283.13719 
L 209.81951 282.89601 
L 208.300913 281.407972 
L 207.11291 280.23489 
L 206.515313 279.485668 
L 204.729713 278.128263 
L 202.944113 278.234818 
L 201.122801 279.82584 
L 200.812849 280.23489 
L 199.337201 281.769591 
L 198.15972 282.89601 
L 197.551601 283.366507 
L 195.766001 284.130552 
L 193.944689 284.010846 
L 192.159089 283.061388 
L 191.953533 282.89601 
L 190.373489 281.33267 
L 189.251953 280.23489 
L 188.587889 279.409653 
L 186.766577 278.089906 
L 184.980977 278.29122 
L 183.195377 279.910225 
L 182.950669 280.23489 
L 181.409777 281.845436 
L 180.294724 282.89601 
L 179.588465 283.433997 
L 177.802865 284.149018 
L 176.017265 283.986166 
L 174.231665 283.006135 
L 174.096294 282.89601 
L 172.410353 281.20704 
L 171.413963 280.23489 
L 170.624753 279.256079 
L 168.839153 277.963487 
L 167.053553 278.108381 
L 165.232241 279.614561 
L 164.690332 280.23489 
L 163.446641 281.369189 
L 161.661041 282.616877 
L 159.875441 282.757544 
L 158.054129 281.125379 
L 157.62567 280.23489 
L 156.767954 277.57377 
L 156.268529 274.938704 
L 156.265246 274.91265 
L 156.071449 272.25153 
L 155.986323 269.59041 
L 155.966928 266.92929 
L 155.989284 263.82465 
L 156.026024 261.16353 
L 156.067124 258.50241 
L 156.106213 255.84129 
L 156.140068 253.18017 
L 156.167547 250.51905 
L 156.188796 247.85793 
L 156.204642 245.19681 
L 156.216146 242.53569 
L 156.224314 239.87457 
L 156.229959 237.21345 
L 156.233687 234.55233 
L 156.235957 231.89121 
L 156.237171 229.23009 
L 156.237708 226.56897 
L 156.237919 223.90785 
L 156.23811 220.80321 
L 156.238371 218.14209 
L 156.238703 215.48097 
L 156.238988 212.81985 
L 156.239108 210.15873 
L 156.239014 207.49761 
L 156.238767 204.83649 
L 156.238505 202.17537 
L 156.238372 199.51425 
L 156.238442 196.85313 
L 156.238676 194.19201 
L 156.238949 191.53089 
L 156.239112 188.86977 
L 156.239077 186.20865 
L 156.238863 183.54753 
L 156.238586 180.88641 
L 156.238396 178.22529 
L 156.238416 175.12065 
L 156.23863 172.45953 
L 156.238907 169.79841 
L 156.239097 167.13729 
L 156.239097 164.47617 
L 156.238906 161.81505 
L 156.238629 159.15393 
L 156.238415 156.49281 
L 156.238378 153.83169 
L 156.238538 151.17057 
L 156.238803 148.50945 
L 156.23902 145.84833 
L 156.239056 143.18721 
L 156.238857 140.52609 
L 156.238469 137.86497 
L 156.237989 135.20385 
L 156.23738 132.09921 
L 156.236713 129.43809 
L 156.235613 126.77697 
L 156.233598 124.11585 
L 156.230036 121.45473 
L 156.224166 118.79361 
L 156.21507 116.13249 
L 156.201595 113.47137 
L 156.182229 110.81025 
L 156.154999 108.14913 
L 156.117426 105.48801 
L 156.06657 102.82689 
L 155.999166 100.16577 
L 155.911839 97.50465 
L 155.801363 94.84353 
L 155.66501 92.18241 
L 155.501023 89.52129 
L 155.27484 86.41665 
L 155.05451 83.75553 
L 154.817594 81.09441 
L 154.577393 78.43329 
L 154.482929 77.282668 
L 154.370071 75.77217 
z
" clip-path="url(#p6e4bbe3d0e)" style="fill: none; stroke: #2070b4; stroke-width: 1.5"/>
   </g>
   <g id="PathCollection_8">
    <path d="M 174.153989 258.50241 
L 174.035217 255.84129 
L 173.960312 253.18017 
L 173.913821 250.51905 
L 173.885556 247.85793 
L 173.869055 245.19681 
L 173.860189 242.53569 
L 173.856122 239.87457 
L 173.854704 237.21345 
L 173.854287 234.55233 
L 173.853791 231.89121 
L 173.852797 229.23009 
L 173.85149 226.56897 
L 173.850403 223.90785 
L 173.850067 220.80321 
L 173.850711 218.14209 
L 173.851851 215.48097 
L 173.85286 212.81985 
L 173.853188 210.15873 
L 173.852657 207.49761 
L 173.851553 204.83649 
L 173.850475 202.17537 
L 173.850007 199.51425 
L 173.850402 196.85313 
L 173.851447 194.19201 
L 173.852575 191.53089 
L 173.853175 188.86977 
L 173.852921 186.20865 
L 173.851951 183.54753 
L 173.850791 180.88641 
L 173.85007 178.22529 
L 173.85028 175.12065 
L 173.85125 172.45953 
L 173.852409 169.79841 
L 173.853131 167.13729 
L 173.853022 164.47617 
L 173.852143 161.81505 
L 173.85097 159.15393 
L 173.850138 156.49281 
L 173.850099 153.83169 
L 173.850874 151.17057 
L 173.852042 148.50945 
L 173.852971 145.84833 
L 173.853156 143.18721 
L 173.852498 140.52609 
L 173.851352 137.86497 
L 173.850339 135.20385 
L 173.850037 132.09921 
L 173.850689 129.43809 
L 173.851825 126.77697 
L 173.852822 124.11585 
L 173.853129 121.45473 
L 173.852562 118.79361 
L 173.851405 116.13249 
L 173.85025 113.47137 
L 173.849673 110.81025 
L 173.84992 108.14913 
L 173.850768 105.48801 
L 173.851642 102.82689 
L 173.851924 100.16577 
L 173.851285 97.50465 
L 173.849866 94.84353 
L 173.848202 92.18241 
L 173.846939 89.52129 
L 173.846515 86.41665 
L 173.846993 83.75553 
L 173.847786 81.09441 
L 173.848383 78.43329 
L 173.848584 75.77217 
L 173.84878 73.11105 
L 173.85002 70.44993 
L 173.853927 67.78881 
L 173.862618 65.12769 
L 173.878859 62.46657 
L 173.906636 59.80545 
L 173.952169 57.14433 
L 174.025289 54.48321 
L 174.141002 51.82209 
L 174.231665 50.480594 
L 174.368377 49.16097 
L 174.789117 46.49985 
L 175.549067 43.39521 
L 176.017265 42.113797 
L 177.802865 41.70176 
L 178.534091 43.39521 
L 179.443555 46.49985 
L 179.588465 47.254672 
L 179.799475 49.16097 
L 179.993288 51.82209 
L 180.1179 54.48321 
L 180.196553 57.14433 
L 180.245409 59.80545 
L 180.275133 62.46657 
L 180.292502 65.12769 
L 180.301844 67.78881 
L 180.306139 70.44993 
L 180.307643 73.11105 
L 180.308088 75.77217 
L 180.308608 78.43329 
L 180.309645 81.09441 
L 180.311005 83.75553 
L 180.312131 86.41665 
L 180.312467 89.52129 
L 180.311777 92.18241 
L 180.310569 94.84353 
L 180.309499 97.50465 
L 180.309145 100.16577 
L 180.309695 102.82689 
L 180.310846 105.48801 
L 180.311971 108.14913 
L 180.312457 110.81025 
L 180.312038 113.47137 
L 180.31094 116.13249 
L 180.309756 118.79361 
L 180.309127 121.45473 
L 180.309394 124.11585 
L 180.31041 126.77697 
L 180.311626 129.43809 
L 180.312381 132.09921 
L 180.31216 135.20385 
L 180.311143 137.86497 
L 180.309927 140.52609 
L 180.309171 143.18721 
L 180.309286 145.84833 
L 180.310208 148.50945 
L 180.311439 151.17057 
L 180.31231 153.83169 
L 180.31235 156.49281 
L 180.311537 159.15393 
L 180.310312 161.81505 
L 180.309338 164.47617 
L 180.309144 167.13729 
L 180.309835 169.79841 
L 180.311036 172.45953 
L 180.312096 175.12065 
L 180.312408 178.22529 
L 180.311717 180.88641 
L 180.310517 183.54753 
L 180.309456 186.20865 
L 180.309112 188.86977 
L 180.309669 191.53089 
L 180.310827 194.19201 
L 180.311957 196.85313 
L 180.312447 199.51425 
L 180.312031 202.17537 
L 180.310935 204.83649 
L 180.309753 207.49761 
L 180.309125 210.15873 
L 180.309391 212.81985 
L 180.310406 215.48097 
L 180.311616 218.14209 
L 180.312358 220.80321 
L 180.312098 223.90785 
L 180.311005 226.56897 
L 180.309626 229.23009 
L 180.308532 231.89121 
L 180.307961 234.55233 
L 180.30753 237.21345 
L 180.306157 239.87457 
L 180.302153 242.53569 
L 180.293299 245.19681 
L 180.276677 247.85793 
L 180.248087 250.51905 
L 180.20097 253.18017 
L 180.124972 255.84129 
L 180.004302 258.50241 
L 179.816052 261.16353 
L 179.588465 263.271985 
L 179.483606 263.82465 
L 178.574029 266.92929 
L 177.802865 268.68458 
L 176.017265 268.125079 
L 175.583933 266.92929 
L 174.821575 263.82465 
L 174.394638 261.16353 
L 174.231665 259.621945 
L 174.153989 258.50241 
z
" clip-path="url(#p6e4bbe3d0e)" style="fill: none; stroke: #08509b; stroke-width: 1.5"/>
    <path d="M 192.008959 258.50241 
L 191.888261 255.84129 
L 191.812093 253.18017 
L 191.764789 250.51905 
L 191.736013 247.85793 
L 191.719201 245.19681 
L 191.710158 242.53569 
L 191.706002 239.87457 
L 191.704544 237.21345 
L 191.704109 234.55233 
L 191.703598 231.89121 
L 191.702584 229.23009 
L 191.701255 226.56897 
L 191.700151 223.90785 
L 191.699809 220.80321 
L 191.700463 218.14209 
L 191.70162 215.48097 
L 191.702644 212.81985 
L 191.702977 210.15873 
L 191.702437 207.49761 
L 191.701316 204.83649 
L 191.700222 202.17537 
L 191.699747 199.51425 
L 191.700149 196.85313 
L 191.70121 194.19201 
L 191.702355 191.53089 
L 191.702963 188.86977 
L 191.702705 186.20865 
L 191.70172 183.54753 
L 191.700543 180.88641 
L 191.699811 178.22529 
L 191.700025 175.12065 
L 191.701009 172.45953 
L 191.702186 169.79841 
L 191.702918 167.13729 
L 191.702808 164.47617 
L 191.701915 161.81505 
L 191.700724 159.15393 
L 191.69988 156.49281 
L 191.699841 153.83169 
L 191.700628 151.17057 
L 191.701814 148.50945 
L 191.702757 145.84833 
L 191.702945 143.18721 
L 191.702277 140.52609 
L 191.701114 137.86497 
L 191.700087 135.20385 
L 191.699785 132.09921 
L 191.700453 129.43809 
L 191.701615 126.77697 
L 191.702642 124.11585 
L 191.702976 121.45473 
L 191.702437 118.79361 
L 191.701316 116.13249 
L 191.700222 113.47137 
L 191.699747 110.81025 
L 191.700149 108.14913 
L 191.70121 105.48801 
L 191.702355 102.82689 
L 191.702964 100.16577 
L 191.702706 97.50465 
L 191.701724 94.84353 
L 191.700553 92.18241 
L 191.699834 89.52129 
L 191.700084 86.41665 
L 191.701143 83.75553 
L 191.702477 81.09441 
L 191.703537 78.43329 
L 191.70409 75.77217 
L 191.704508 73.11105 
L 191.705836 70.44993 
L 191.70971 67.78881 
L 191.71828 65.12769 
L 191.734365 62.46657 
L 191.762035 59.80545 
L 191.807631 57.14433 
L 191.88117 54.48321 
L 191.997922 51.82209 
L 192.159089 49.466132 
L 192.191794 49.16097 
L 192.626953 46.49985 
L 193.413864 43.39521 
L 193.944689 41.994032 
L 195.766001 41.825694 
L 196.406428 43.39521 
L 197.26552 46.49985 
L 197.551601 48.078748 
L 197.669828 49.16097 
L 197.861287 51.82209 
L 197.984372 54.48321 
L 198.062053 57.14433 
L 198.1103 59.80545 
L 198.13965 62.46657 
L 198.156798 65.12769 
L 198.16602 67.78881 
L 198.17026 70.44993 
L 198.171747 73.11105 
L 198.17219 75.77217 
L 198.172711 78.43329 
L 198.173746 81.09441 
L 198.175101 83.75553 
L 198.176228 86.41665 
L 198.176577 89.52129 
L 198.175909 92.18241 
L 198.174729 94.84353 
L 198.173684 97.50465 
L 198.173345 100.16577 
L 198.173896 102.82689 
L 198.175039 105.48801 
L 198.176155 108.14913 
L 198.17664 110.81025 
L 198.176229 113.47137 
L 198.175147 116.13249 
L 198.173979 118.79361 
L 198.173359 121.45473 
L 198.173623 124.11585 
L 198.174627 126.77697 
L 198.175828 129.43809 
L 198.176574 132.09921 
L 198.176356 135.20385 
L 198.175352 137.86497 
L 198.174151 140.52609 
L 198.173404 143.18721 
L 198.173517 145.84833 
L 198.174428 148.50945 
L 198.175643 151.17057 
L 198.176504 153.83169 
L 198.176544 156.49281 
L 198.175741 159.15393 
L 198.174531 161.81505 
L 198.173569 164.47617 
L 198.173378 167.13729 
L 198.17406 169.79841 
L 198.175246 172.45953 
L 198.176293 175.12065 
L 198.176601 178.22529 
L 198.175919 180.88641 
L 198.174733 183.54753 
L 198.173686 186.20865 
L 198.173345 188.86977 
L 198.173896 191.53089 
L 198.175039 194.19201 
L 198.176155 196.85313 
L 198.17664 199.51425 
L 198.176229 202.17537 
L 198.175147 204.83649 
L 198.173979 207.49761 
L 198.173358 210.15873 
L 198.173621 212.81985 
L 198.174623 215.48097 
L 198.175818 218.14209 
L 198.176551 220.80321 
L 198.176295 223.90785 
L 198.175215 226.56897 
L 198.173854 229.23009 
L 198.172773 231.89121 
L 198.172209 234.55233 
L 198.171783 237.21345 
L 198.170427 239.87457 
L 198.166473 242.53569 
L 198.157728 245.19681 
L 198.141314 247.85793 
L 198.11308 250.51905 
L 198.06655 253.18017 
L 197.991503 255.84129 
L 197.872347 258.50241 
L 197.686471 261.16353 
L 197.551601 262.430888 
L 197.302546 263.82465 
L 196.444518 266.92929 
L 195.766001 268.568467 
L 193.944689 268.248708 
L 193.449666 266.92929 
L 192.660049 263.82465 
L 192.217497 261.16353 
L 192.159089 260.63105 
L 192.008959 258.50241 
z
" clip-path="url(#p6e4bbe3d0e)" style="fill: none; stroke: #08509b; stroke-width: 1.5"/>
    <path d="M 210.066348 261.16353 
L 209.876729 258.50241 
L 209.754834 255.84129 
L 209.677907 253.18017 
L 209.630131 250.51905 
L 209.601067 247.85793 
L 209.584086 245.19681 
L 209.574954 242.53569 
L 209.570756 239.87457 
L 209.569284 237.21345 
L 209.568845 234.55233 
L 209.568329 231.89121 
L 209.567304 229.23009 
L 209.565962 226.56897 
L 209.564846 223.90785 
L 209.564501 220.80321 
L 209.565162 218.14209 
L 209.566331 215.48097 
L 209.567365 212.81985 
L 209.567701 210.15873 
L 209.567156 207.49761 
L 209.566024 204.83649 
L 209.564918 202.17537 
L 209.564439 199.51425 
L 209.564845 196.85313 
L 209.565917 194.19201 
L 209.567073 191.53089 
L 209.567687 188.86977 
L 209.567426 186.20865 
L 209.566432 183.54753 
L 209.565242 180.88641 
L 209.564503 178.22529 
L 209.564719 175.12065 
L 209.565714 172.45953 
L 209.566903 169.79841 
L 209.567642 167.13729 
L 209.567531 164.47617 
L 209.566629 161.81505 
L 209.565425 159.15393 
L 209.564573 156.49281 
L 209.564534 153.83169 
L 209.565329 151.17057 
L 209.566527 148.50945 
L 209.567479 145.84833 
L 209.567669 143.18721 
L 209.566994 140.52609 
L 209.565819 137.86497 
L 209.564782 135.20385 
L 209.564477 132.09921 
L 209.565152 129.43809 
L 209.566326 126.77697 
L 209.567363 124.11585 
L 209.567701 121.45473 
L 209.567156 118.79361 
L 209.566024 116.13249 
L 209.564918 113.47137 
L 209.564439 110.81025 
L 209.564845 108.14913 
L 209.565917 105.48801 
L 209.567073 102.82689 
L 209.567688 100.16577 
L 209.567428 97.50465 
L 209.566436 94.84353 
L 209.565252 92.18241 
L 209.564526 89.52129 
L 209.56478 86.41665 
L 209.565849 83.75553 
L 209.567197 81.09441 
L 209.568267 78.43329 
L 209.568826 75.77217 
L 209.569248 73.11105 
L 209.57059 70.44993 
L 209.574505 67.78881 
L 209.583164 65.12769 
L 209.599416 62.46657 
L 209.627371 59.80545 
L 209.67344 57.14433 
L 209.747743 54.48321 
L 209.865712 51.82209 
L 210.049722 49.16097 
L 210.122225 48.472064 
L 210.461832 46.49985 
L 211.289541 43.39521 
L 211.907825 41.845541 
L 213.693425 41.920231 
L 214.274641 43.39521 
L 215.10412 46.49985 
L 215.479025 48.644189 
L 215.534902 49.16097 
L 215.724521 51.82209 
L 215.846416 54.48321 
L 215.923343 57.14433 
L 215.971119 59.80545 
L 216.000183 62.46657 
L 216.017164 65.12769 
L 216.026296 67.78881 
L 216.030494 70.44993 
L 216.031966 73.11105 
L 216.032405 75.77217 
L 216.032921 78.43329 
L 216.033946 81.09441 
L 216.035288 83.75553 
L 216.036404 86.41665 
L 216.036749 89.52129 
L 216.036088 92.18241 
L 216.034919 94.84353 
L 216.033885 97.50465 
L 216.033549 100.16577 
L 216.034094 102.82689 
L 216.035226 105.48801 
L 216.036332 108.14913 
L 216.036811 110.81025 
L 216.036405 113.47137 
L 216.035333 116.13249 
L 216.034177 118.79361 
L 216.033563 121.45473 
L 216.033824 124.11585 
L 216.034818 126.77697 
L 216.036008 129.43809 
L 216.036747 132.09921 
L 216.036531 135.20385 
L 216.035536 137.86497 
L 216.034347 140.52609 
L 216.033608 143.18721 
L 216.033719 145.84833 
L 216.034621 148.50945 
L 216.035825 151.17057 
L 216.036677 153.83169 
L 216.036716 156.49281 
L 216.035921 159.15393 
L 216.034723 161.81505 
L 216.033771 164.47617 
L 216.033581 167.13729 
L 216.034256 169.79841 
L 216.035431 172.45953 
L 216.036468 175.12065 
L 216.036773 178.22529 
L 216.036098 180.88641 
L 216.034924 183.54753 
L 216.033887 186.20865 
L 216.033549 188.86977 
L 216.034094 191.53089 
L 216.035226 194.19201 
L 216.036332 196.85313 
L 216.036811 199.51425 
L 216.036405 202.17537 
L 216.035333 204.83649 
L 216.034177 207.49761 
L 216.033562 210.15873 
L 216.033822 212.81985 
L 216.034814 215.48097 
L 216.035998 218.14209 
L 216.036724 220.80321 
L 216.03647 223.90785 
L 216.035401 226.56897 
L 216.034053 229.23009 
L 216.032983 231.89121 
L 216.032424 234.55233 
L 216.032002 237.21345 
L 216.03066 239.87457 
L 216.026745 242.53569 
L 216.018086 245.19681 
L 216.001834 247.85793 
L 215.973879 250.51905 
L 215.92781 253.18017 
L 215.853507 255.84129 
L 215.735538 258.50241 
L 215.551528 261.16353 
L 215.479025 261.852436 
L 215.139418 263.82465 
L 214.311709 266.92929 
L 213.693425 268.478959 
L 211.907825 268.404269 
L 211.326609 266.92929 
L 210.49713 263.82465 
L 210.122225 261.680311 
L 210.066348 261.16353 
z
" clip-path="url(#p6e4bbe3d0e)" style="fill: none; stroke: #08509b; stroke-width: 1.5"/>
    <path d="M 227.931422 261.16353 
L 227.739963 258.50241 
L 227.616878 255.84129 
L 227.539197 253.18017 
L 227.49095 250.51905 
L 227.4616 247.85793 
L 227.444452 245.19681 
L 227.43523 242.53569 
L 227.43099 239.87457 
L 227.429503 237.21345 
L 227.42906 234.55233 
L 227.428539 231.89121 
L 227.427504 229.23009 
L 227.426149 226.56897 
L 227.425022 223.90785 
L 227.424673 220.80321 
L 227.425341 218.14209 
L 227.426521 215.48097 
L 227.427566 212.81985 
L 227.427905 210.15873 
L 227.427354 207.49761 
L 227.426211 204.83649 
L 227.425095 202.17537 
L 227.42461 199.51425 
L 227.425021 196.85313 
L 227.426103 194.19201 
L 227.427271 191.53089 
L 227.427891 188.86977 
L 227.427627 186.20865 
L 227.426623 183.54753 
L 227.425422 180.88641 
L 227.424676 178.22529 
L 227.424894 175.12065 
L 227.425898 172.45953 
L 227.427099 169.79841 
L 227.427846 167.13729 
L 227.427733 164.47617 
L 227.426822 161.81505 
L 227.425607 159.15393 
L 227.424746 156.49281 
L 227.424706 153.83169 
L 227.425509 151.17057 
L 227.426719 148.50945 
L 227.427681 145.84833 
L 227.427872 143.18721 
L 227.42719 140.52609 
L 227.426004 137.86497 
L 227.424957 135.20385 
L 227.424649 132.09921 
L 227.425331 129.43809 
L 227.426517 126.77697 
L 227.427564 124.11585 
L 227.427905 121.45473 
L 227.427354 118.79361 
L 227.426211 116.13249 
L 227.425095 113.47137 
L 227.42461 110.81025 
L 227.425021 108.14913 
L 227.426103 105.48801 
L 227.427271 102.82689 
L 227.427892 100.16577 
L 227.427629 97.50465 
L 227.426627 94.84353 
L 227.425432 92.18241 
L 227.424699 89.52129 
L 227.424955 86.41665 
L 227.426035 83.75553 
L 227.427396 81.09441 
L 227.428477 78.43329 
L 227.429041 75.77217 
L 227.429467 73.11105 
L 227.430823 70.44993 
L 227.434777 67.78881 
L 227.443522 65.12769 
L 227.459936 62.46657 
L 227.48817 59.80545 
L 227.5347 57.14433 
L 227.609747 54.48321 
L 227.728903 51.82209 
L 227.914779 49.16097 
L 228.049649 47.893612 
L 228.298704 46.49985 
L 229.156732 43.39521 
L 229.835249 41.756033 
L 231.656561 42.075792 
L 232.151584 43.39521 
L 232.941201 46.49985 
L 233.383753 49.16097 
L 233.442161 49.69345 
L 233.592291 51.82209 
L 233.712989 54.48321 
L 233.789157 57.14433 
L 233.836461 59.80545 
L 233.865237 62.46657 
L 233.882049 65.12769 
L 233.891092 67.78881 
L 233.895248 70.44993 
L 233.896706 73.11105 
L 233.897141 75.77217 
L 233.897652 78.43329 
L 233.898666 81.09441 
L 233.899995 83.75553 
L 233.901099 86.41665 
L 233.901441 89.52129 
L 233.900787 92.18241 
L 233.89963 94.84353 
L 233.898606 97.50465 
L 233.898273 100.16577 
L 233.898813 102.82689 
L 233.899934 105.48801 
L 233.901028 108.14913 
L 233.901503 110.81025 
L 233.901101 113.47137 
L 233.90004 116.13249 
L 233.898895 118.79361 
L 233.898287 121.45473 
L 233.898545 124.11585 
L 233.89953 126.77697 
L 233.900707 129.43809 
L 233.901439 132.09921 
L 233.901225 135.20385 
L 233.900241 137.86497 
L 233.899064 140.52609 
L 233.898332 143.18721 
L 233.898442 145.84833 
L 233.899335 148.50945 
L 233.900526 151.17057 
L 233.90137 153.83169 
L 233.901409 156.49281 
L 233.900622 159.15393 
L 233.899436 161.81505 
L 233.898493 164.47617 
L 233.898305 167.13729 
L 233.898973 169.79841 
L 233.900136 172.45953 
L 233.901163 175.12065 
L 233.901465 178.22529 
L 233.900797 180.88641 
L 233.899635 183.54753 
L 233.898608 186.20865 
L 233.898274 188.86977 
L 233.898813 191.53089 
L 233.899934 194.19201 
L 233.901028 196.85313 
L 233.901503 199.51425 
L 233.901101 202.17537 
L 233.90004 204.83649 
L 233.898895 207.49761 
L 233.898287 210.15873 
L 233.898544 212.81985 
L 233.899526 215.48097 
L 233.900697 218.14209 
L 233.901416 220.80321 
L 233.901166 223.90785 
L 233.900107 226.56897 
L 233.898773 229.23009 
L 233.897713 231.89121 
L 233.89716 234.55233 
L 233.896742 237.21345 
L 233.895414 239.87457 
L 233.89154 242.53569 
L 233.88297 245.19681 
L 233.866885 247.85793 
L 233.839215 250.51905 
L 233.793619 253.18017 
L 233.72008 255.84129 
L 233.603328 258.50241 
L 233.442161 260.858368 
L 233.409456 261.16353 
L 232.974297 263.82465 
L 232.187386 266.92929 
L 231.656561 268.330468 
L 229.835249 268.498807 
L 229.194822 266.92929 
L 228.33573 263.82465 
L 228.049649 262.245752 
L 227.931422 261.16353 
z
" clip-path="url(#p6e4bbe3d0e)" style="fill: none; stroke: #08509b; stroke-width: 1.5"/>
    <path d="M 245.801577 261.16353 
L 245.607779 258.50241 
L 245.48318 255.84129 
L 245.404538 253.18017 
L 245.355692 250.51905 
L 245.325976 247.85793 
L 245.308613 245.19681 
L 245.299274 242.53569 
L 245.294981 239.87457 
L 245.293474 237.21345 
L 245.293024 234.55233 
L 245.292495 231.89121 
L 245.291448 229.23009 
L 245.290075 226.56897 
L 245.288935 223.90785 
L 245.288583 220.80321 
L 245.289261 218.14209 
L 245.290457 215.48097 
L 245.291517 212.81985 
L 245.291865 210.15873 
L 245.291312 207.49761 
L 245.290161 204.83649 
L 245.28904 202.17537 
L 245.28856 199.51425 
L 245.288988 196.85313 
L 245.290099 194.19201 
L 245.291297 191.53089 
L 245.291943 188.86977 
L 245.291695 186.20865 
L 245.290697 183.54753 
L 245.289501 180.88641 
L 245.288765 178.22529 
L 245.289006 175.12065 
L 245.29004 172.45953 
L 245.29127 169.79841 
L 245.292037 167.13729 
L 245.291933 164.47617 
L 245.291019 161.81505 
L 245.289795 159.15393 
L 245.288929 156.49281 
L 245.288892 153.83169 
L 245.289708 151.17057 
L 245.290935 148.50945 
L 245.29191 145.84833 
L 245.292104 143.18721 
L 245.291414 140.52609 
L 245.290213 137.86497 
L 245.289154 135.20385 
L 245.288842 132.09921 
L 245.289532 129.43809 
L 245.290733 126.77697 
L 245.291794 124.11585 
L 245.292138 121.45473 
L 245.291581 118.79361 
L 245.290423 116.13249 
L 245.289293 113.47137 
L 245.288803 110.81025 
L 245.289219 108.14913 
L 245.290315 105.48801 
L 245.291497 102.82689 
L 245.292125 100.16577 
L 245.291859 97.50465 
L 245.290844 94.84353 
L 245.289634 92.18241 
L 245.288892 89.52129 
L 245.289152 86.41665 
L 245.290245 83.75553 
L 245.291624 81.09441 
L 245.292718 78.43329 
L 245.293289 75.77217 
L 245.293721 73.11105 
L 245.295094 70.44993 
L 245.299098 67.78881 
L 245.307954 65.12769 
L 245.324577 62.46657 
L 245.353169 59.80545 
L 245.400289 57.14433 
L 245.476292 54.48321 
L 245.596969 51.82209 
L 245.78523 49.16097 
L 246.012785 47.052919 
L 246.117735 46.49985 
L 247.02746 43.39521 
L 247.798385 41.64082 
L 249.583985 42.201876 
L 250.016183 43.39521 
L 250.7784 46.49985 
L 251.205468 49.16097 
L 251.369585 50.712276 
L 251.446634 51.82209 
L 251.565538 54.48321 
L 251.640572 57.14433 
L 251.687171 59.80545 
L 251.715518 62.46657 
L 251.73208 65.12769 
L 251.740987 67.78881 
L 251.745082 70.44993 
L 251.746519 73.11105 
L 251.746947 75.77217 
L 251.747449 78.43329 
L 251.748448 81.09441 
L 251.749757 83.75553 
L 251.750845 86.41665 
L 251.751183 89.52129 
L 251.750538 92.18241 
L 251.749399 94.84353 
L 251.74839 97.50465 
L 251.748061 100.16577 
L 251.748593 102.82689 
L 251.749697 105.48801 
L 251.750775 108.14913 
L 251.751243 110.81025 
L 251.750848 113.47137 
L 251.749803 116.13249 
L 251.748675 118.79361 
L 251.748076 121.45473 
L 251.74833 124.11585 
L 251.7493 126.77697 
L 251.750461 129.43809 
L 251.751185 132.09921 
L 251.750979 135.20385 
L 251.750017 137.86497 
L 251.748869 140.52609 
L 251.748166 143.18721 
L 251.748304 145.84833 
L 251.749227 148.50945 
L 251.750465 151.17057 
L 251.751391 153.83169 
L 251.751561 156.49281 
L 251.750964 159.15393 
L 251.75003 161.81505 
L 251.749403 164.47617 
L 251.749594 167.13729 
L 251.750709 169.79841 
L 251.752395 172.45953 
L 251.754024 175.12065 
L 251.755129 178.22529 
L 251.755216 180.88641 
L 251.754844 183.54753 
L 251.754613 186.20865 
L 251.755051 188.86977 
L 251.756316 191.53089 
L 251.758101 194.19201 
L 251.75979 196.85313 
L 251.760788 199.51425 
L 251.760835 202.17537 
L 251.760148 204.83649 
L 251.759303 207.49761 
L 251.758924 210.15873 
L 251.759348 212.81985 
L 251.760445 215.48097 
L 251.761695 218.14209 
L 251.762467 220.80321 
L 251.76226 223.90785 
L 251.761228 226.56897 
L 251.759908 229.23009 
L 251.758848 231.89121 
L 251.758275 234.55233 
L 251.75782 237.21345 
L 251.75644 239.87457 
L 251.752505 242.53569 
L 251.743876 245.19681 
L 251.727749 247.85793 
L 251.700086 250.51905 
L 251.654597 253.18017 
L 251.581367 255.84129 
L 251.465293 258.50241 
L 251.369585 259.912871 
L 251.239699 261.16353 
L 250.81783 263.82465 
L 250.055843 266.92929 
L 249.583985 268.217403 
L 247.798385 268.625045 
L 247.066403 266.92929 
L 246.157271 263.82465 
L 246.012785 263.071743 
L 245.801577 261.16353 
z
" clip-path="url(#p6e4bbe3d0e)" style="fill: none; stroke: #08509b; stroke-width: 1.5"/>
    <path d="M 263.763369 258.50241 
L 263.555567 255.84129 
L 263.41587 253.18017 
L 263.322087 250.51905 
L 263.259489 247.85793 
L 263.21839 245.19681 
L 263.192259 242.53569 
L 263.176413 239.87457 
L 263.167289 237.21345 
L 263.162198 234.55233 
L 263.159365 231.89121 
L 263.158018 229.23009 
L 263.158315 226.56897 
L 263.161075 223.90785 
L 263.168854 220.80321 
L 263.180593 218.14209 
L 263.197918 215.48097 
L 263.221719 212.81985 
L 263.253267 210.15873 
L 263.294507 207.49761 
L 263.348138 204.83649 
L 263.417407 202.17537 
L 263.505694 199.51425 
L 263.616021 196.85313 
L 263.750648 194.19201 
L 263.910865 191.53089 
L 263.940209 191.094203 
L 264.696441 188.86977 
L 265.725809 187.203695 
L 265.945259 188.86977 
L 266.369931 191.53089 
L 266.906426 194.19201 
L 267.547121 196.74251 
L 267.559163 196.85313 
L 267.841611 199.51425 
L 268.131722 202.17537 
L 268.417838 204.83649 
L 268.68794 207.49761 
L 268.931506 210.15873 
L 269.141007 212.81985 
L 269.31263 215.48097 
L 269.332721 215.891123 
L 269.40993 218.14209 
L 269.476597 220.80321 
L 269.52802 223.90785 
L 269.55367 226.56897 
L 269.565766 229.23009 
L 269.566446 231.89121 
L 269.55616 234.55233 
L 269.533367 237.21345 
L 269.49461 239.87457 
L 269.434977 242.53569 
L 269.348858 245.19681 
L 269.332721 245.552247 
L 269.184242 247.85793 
L 268.960617 250.51905 
L 268.682266 253.18017 
L 268.34855 255.84129 
L 267.960489 258.50241 
L 267.547121 260.983019 
L 267.459976 261.16353 
L 266.046365 263.82465 
L 265.725809 264.363403 
L 265.365737 263.82465 
L 264.236233 261.16353 
L 263.940209 260.04456 
L 263.763369 258.50241 
z
" clip-path="url(#p6e4bbe3d0e)" style="fill: none; stroke: #08509b; stroke-width: 1.5"/>
   </g>
   <g id="PathCollection_9"/>
   <g id="patch_3">
    <path d="M 34.240625 288.21825 
L 34.240625 22.10625 
" style="fill: none; stroke: #000000; stroke-width: 0.8; stroke-linejoin: miter; stroke-linecap: square"/>
   </g>
   <g id="patch_4">
    <path d="M 391.360625 288.21825 
L 391.360625 22.10625 
" style="fill: none; stroke: #000000; stroke-width: 0.8; stroke-linejoin: miter; stroke-linecap: square"/>
   </g>
   <g id="patch_5">
    <path d="M 34.240625 288.21825 
L 391.360625 288.21825 
" style="fill: none; stroke: #000000; stroke-width: 0.8; stroke-linejoin: miter; stroke-linecap: square"/>
   </g>
   <g id="patch_6">
    <path d="M 34.240625 22.10625 
L 391.360625 22.10625 
" style="fill: none; stroke: #000000; stroke-width: 0.8; stroke-linejoin: miter; stroke-linecap: square"/>
   </g>
   <g id="text_16">
    <!-- 6.9_cross_-39.0 -->
    <g transform="translate(166.181563 16.10625)scale(0.12 -0.12)">
     <defs>
      <path id="DejaVuSans-2e" d="M 684 794 
L 1344 794 
L 1344 0 
L 684 0 
L 684 794 
z
" transform="scale(0.015625)"/>
      <path id="DejaVuSans-39" d="M 703 97 
L 703 672 
Q 941 559 1184 500 
Q 1428 441 1663 441 
Q 2288 441 2617 861 
Q 2947 1281 2994 2138 
Q 2813 1869 2534 1725 
Q 2256 1581 1919 1581 
Q 1219 1581 811 2004 
Q 403 2428 403 3163 
Q 403 3881 828 4315 
Q 1253 4750 1959 4750 
Q 2769 4750 3195 4129 
Q 3622 3509 3622 2328 
Q 3622 1225 3098 567 
Q 2575 -91 1691 -91 
Q 1453 -91 1209 -44 
Q 966 3 703 97 
z
M 1959 2075 
Q 2384 2075 2632 2365 
Q 2881 2656 2881 3163 
Q 2881 3666 2632 3958 
Q 2384 4250 1959 4250 
Q 1534 4250 1286 3958 
Q 1038 3666 1038 3163 
Q 1038 2656 1286 2365 
Q 1534 2075 1959 2075 
z
" transform="scale(0.015625)"/>
      <path id="DejaVuSans-5f" d="M 3263 -1063 
L 3263 -1509 
L -63 -1509 
L -63 -1063 
L 3263 -1063 
z
" transform="scale(0.015625)"/>
      <path id="DejaVuSans-63" d="M 3122 3366 
L 3122 2828 
Q 2878 2963 2633 3030 
Q 2388 3097 2138 3097 
Q 1578 3097 1268 2742 
Q 959 2388 959 1747 
Q 959 1106 1268 751 
Q 1578 397 2138 397 
Q 2388 397 2633 464 
Q 2878 531 3122 666 
L 3122 134 
Q 2881 22 2623 -34 
Q 2366 -91 2075 -91 
Q 1284 -91 818 406 
Q 353 903 353 1747 
Q 353 2603 823 3093 
Q 1294 3584 2113 3584 
Q 2378 3584 2631 3529 
Q 2884 3475 3122 3366 
z
" transform="scale(0.015625)"/>
      <path id="DejaVuSans-72" d="M 2631 2963 
Q 2534 3019 2420 3045 
Q 2306 3072 2169 3072 
Q 1681 3072 1420 2755 
Q 1159 2438 1159 1844 
L 1159 0 
L 581 0 
L 581 3500 
L 1159 3500 
L 1159 2956 
Q 1341 3275 1631 3429 
Q 1922 3584 2338 3584 
Q 2397 3584 2469 3576 
Q 2541 3569 2628 3553 
L 2631 2963 
z
" transform="scale(0.015625)"/>
      <path id="DejaVuSans-73" d="M 2834 3397 
L 2834 2853 
Q 2591 2978 2328 3040 
Q 2066 3103 1784 3103 
Q 1356 3103 1142 2972 
Q 928 2841 928 2578 
Q 928 2378 1081 2264 
Q 1234 2150 1697 2047 
L 1894 2003 
Q 2506 1872 2764 1633 
Q 3022 1394 3022 966 
Q 3022 478 2636 193 
Q 2250 -91 1575 -91 
Q 1294 -91 989 -36 
Q 684 19 347 128 
L 347 722 
Q 666 556 975 473 
Q 1284 391 1588 391 
Q 1994 391 2212 530 
Q 2431 669 2431 922 
Q 2431 1156 2273 1281 
Q 2116 1406 1581 1522 
L 1381 1569 
Q 847 1681 609 1914 
Q 372 2147 372 2553 
Q 372 3047 722 3315 
Q 1072 3584 1716 3584 
Q 2034 3584 2315 3537 
Q 2597 3491 2834 3397 
z
" transform="scale(0.015625)"/>
      <path id="DejaVuSans-2d" d="M 313 2009 
L 1997 2009 
L 1997 1497 
L 313 1497 
L 313 2009 
z
" transform="scale(0.015625)"/>
     </defs>
     <use xlink:href="#DejaVuSans-36"/>
     <use xlink:href="#DejaVuSans-2e" x="63.623047"/>
     <use xlink:href="#DejaVuSans-39" x="95.410156"/>
     <use xlink:href="#DejaVuSans-5f" x="159.033203"/>
     <use xlink:href="#DejaVuSans-63" x="209.033203"/>
     <use xlink:href="#DejaVuSans-72" x="264.013672"/>
     <use xlink:href="#DejaVuSans-6f" x="302.876953"/>
     <use xlink:href="#DejaVuSans-73" x="364.058594"/>
     <use xlink:href="#DejaVuSans-73" x="416.158203"/>
     <use xlink:href="#DejaVuSans-5f" x="468.257812"/>
     <use xlink:href="#DejaVuSans-2d" x="518.257812"/>
     <use xlink:href="#DejaVuSans-33" x="554.341797"/>
     <use xlink:href="#DejaVuSans-39" x="617.964844"/>
     <use xlink:href="#DejaVuSans-2e" x="681.587891"/>
     <use xlink:href="#DejaVuSans-30" x="713.375"/>
    </g>
   </g>
  </g>
 </g>
 <defs>
  <clipPath id="p6e4bbe3d0e">
   <rect x="34.240625" y="22.10625" width="357.12" height="266.112"/>
  </clipPath>
 </defs>
</svg>
