<?xml version="1.0" encoding="utf-8" standalone="no"?>
<!DOCTYPE svg PUBLIC "-//W3C//DTD SVG 1.1//EN"
  "http://www.w3.org/Graphics/SVG/1.1/DTD/svg11.dtd">
<svg xmlns:xlink="http://www.w3.org/1999/xlink" width="408.104375pt" height="325.7745pt" viewBox="0 0 408.104375 325.7745" xmlns="http://www.w3.org/2000/svg" version="1.1">
 <metadata>
  <rdf:RDF xmlns:dc="http://purl.org/dc/elements/1.1/" xmlns:cc="http://creativecommons.org/ns#" xmlns:rdf="http://www.w3.org/1999/02/22-rdf-syntax-ns#">
   <cc:Work>
    <dc:type rdf:resource="http://purl.org/dc/dcmitype/StillImage"/>
    <dc:date>2024-07-12T12:30:52.899137</dc:date>
    <dc:format>image/svg+xml</dc:format>
    <dc:creator>
     <cc:Agent>
      <dc:title>Matplotlib v3.5.3, https://matplotlib.org/</dc:title>
     </cc:Agent>
    </dc:creator>
   </cc:Work>
  </rdf:RDF>
 </metadata>
 <defs>
  <style type="text/css">*{stroke-linejoin: round; stroke-linecap: butt}</style>
 </defs>
 <g id="figure_1">
  <g id="patch_1">
   <path d="M 0 325.7745 
L 408.104375 325.7745 
L 408.104375 0 
L 0 0 
z
" style="fill: #ffffff"/>
  </g>
  <g id="axes_1">
   <g id="patch_2">
    <path d="M 34.240625 288.21825 
L 391.360625 288.21825 
L 391.360625 22.10625 
L 34.240625 22.10625 
z
" style="fill: #ffffff"/>
   </g>
   <g id="matplotlib.axis_1">
    <g id="xtick_1">
     <g id="line2d_1">
      <defs>
       <path id="m85a0a9c010" d="M 0 0 
L 0 3.5 
" style="stroke: #000000; stroke-width: 0.8"/>
      </defs>
      <g>
       <use xlink:href="#m85a0a9c010" x="34.240625" y="288.21825" style="stroke: #000000; stroke-width: 0.8"/>
      </g>
     </g>
     <g id="text_1">
      <!-- 0 -->
      <g transform="translate(31.059375 302.816687)scale(0.1 -0.1)">
       <defs>
        <path id="DejaVuSans-30" d="M 2034 4250 
Q 1547 4250 1301 3770 
Q 1056 3291 1056 2328 
Q 1056 1369 1301 889 
Q 1547 409 2034 409 
Q 2525 409 2770 889 
Q 3016 1369 3016 2328 
Q 3016 3291 2770 3770 
Q 2525 4250 2034 4250 
z
M 2034 4750 
Q 2819 4750 3233 4129 
Q 3647 3509 3647 2328 
Q 3647 1150 3233 529 
Q 2819 -91 2034 -91 
Q 1250 -91 836 529 
Q 422 1150 422 2328 
Q 422 3509 836 4129 
Q 1250 4750 2034 4750 
z
" transform="scale(0.015625)"/>
       </defs>
       <use xlink:href="#DejaVuSans-30"/>
      </g>
     </g>
    </g>
    <g id="xtick_2">
     <g id="line2d_2">
      <g>
       <use xlink:href="#m85a0a9c010" x="105.664625" y="288.21825" style="stroke: #000000; stroke-width: 0.8"/>
      </g>
     </g>
     <g id="text_2">
      <!-- 20 -->
      <g transform="translate(99.302125 302.816687)scale(0.1 -0.1)">
       <defs>
        <path id="DejaVuSans-32" d="M 1228 531 
L 3431 531 
L 3431 0 
L 469 0 
L 469 531 
Q 828 903 1448 1529 
Q 2069 2156 2228 2338 
Q 2531 2678 2651 2914 
Q 2772 3150 2772 3378 
Q 2772 3750 2511 3984 
Q 2250 4219 1831 4219 
Q 1534 4219 1204 4116 
Q 875 4013 500 3803 
L 500 4441 
Q 881 4594 1212 4672 
Q 1544 4750 1819 4750 
Q 2544 4750 2975 4387 
Q 3406 4025 3406 3419 
Q 3406 3131 3298 2873 
Q 3191 2616 2906 2266 
Q 2828 2175 2409 1742 
Q 1991 1309 1228 531 
z
" transform="scale(0.015625)"/>
       </defs>
       <use xlink:href="#DejaVuSans-32"/>
       <use xlink:href="#DejaVuSans-30" x="63.623047"/>
      </g>
     </g>
    </g>
    <g id="xtick_3">
     <g id="line2d_3">
      <g>
       <use xlink:href="#m85a0a9c010" x="177.088625" y="288.21825" style="stroke: #000000; stroke-width: 0.8"/>
      </g>
     </g>
     <g id="text_3">
      <!-- 40 -->
      <g transform="translate(170.726125 302.816687)scale(0.1 -0.1)">
       <defs>
        <path id="DejaVuSans-34" d="M 2419 4116 
L 825 1625 
L 2419 1625 
L 2419 4116 
z
M 2253 4666 
L 3047 4666 
L 3047 1625 
L 3713 1625 
L 3713 1100 
L 3047 1100 
L 3047 0 
L 2419 0 
L 2419 1100 
L 313 1100 
L 313 1709 
L 2253 4666 
z
" transform="scale(0.015625)"/>
       </defs>
       <use xlink:href="#DejaVuSans-34"/>
       <use xlink:href="#DejaVuSans-30" x="63.623047"/>
      </g>
     </g>
    </g>
    <g id="xtick_4">
     <g id="line2d_4">
      <g>
       <use xlink:href="#m85a0a9c010" x="248.512625" y="288.21825" style="stroke: #000000; stroke-width: 0.8"/>
      </g>
     </g>
     <g id="text_4">
      <!-- 60 -->
      <g transform="translate(242.150125 302.816687)scale(0.1 -0.1)">
       <defs>
        <path id="DejaVuSans-36" d="M 2113 2584 
Q 1688 2584 1439 2293 
Q 1191 2003 1191 1497 
Q 1191 994 1439 701 
Q 1688 409 2113 409 
Q 2538 409 2786 701 
Q 3034 994 3034 1497 
Q 3034 2003 2786 2293 
Q 2538 2584 2113 2584 
z
M 3366 4563 
L 3366 3988 
Q 3128 4100 2886 4159 
Q 2644 4219 2406 4219 
Q 1781 4219 1451 3797 
Q 1122 3375 1075 2522 
Q 1259 2794 1537 2939 
Q 1816 3084 2150 3084 
Q 2853 3084 3261 2657 
Q 3669 2231 3669 1497 
Q 3669 778 3244 343 
Q 2819 -91 2113 -91 
Q 1303 -91 875 529 
Q 447 1150 447 2328 
Q 447 3434 972 4092 
Q 1497 4750 2381 4750 
Q 2619 4750 2861 4703 
Q 3103 4656 3366 4563 
z
" transform="scale(0.015625)"/>
       </defs>
       <use xlink:href="#DejaVuSans-36"/>
       <use xlink:href="#DejaVuSans-30" x="63.623047"/>
      </g>
     </g>
    </g>
    <g id="xtick_5">
     <g id="line2d_5">
      <g>
       <use xlink:href="#m85a0a9c010" x="319.936625" y="288.21825" style="stroke: #000000; stroke-width: 0.8"/>
      </g>
     </g>
     <g id="text_5">
      <!-- 80 -->
      <g transform="translate(313.574125 302.816687)scale(0.1 -0.1)">
       <defs>
        <path id="DejaVuSans-38" d="M 2034 2216 
Q 1584 2216 1326 1975 
Q 1069 1734 1069 1313 
Q 1069 891 1326 650 
Q 1584 409 2034 409 
Q 2484 409 2743 651 
Q 3003 894 3003 1313 
Q 3003 1734 2745 1975 
Q 2488 2216 2034 2216 
z
M 1403 2484 
Q 997 2584 770 2862 
Q 544 3141 544 3541 
Q 544 4100 942 4425 
Q 1341 4750 2034 4750 
Q 2731 4750 3128 4425 
Q 3525 4100 3525 3541 
Q 3525 3141 3298 2862 
Q 3072 2584 2669 2484 
Q 3125 2378 3379 2068 
Q 3634 1759 3634 1313 
Q 3634 634 3220 271 
Q 2806 -91 2034 -91 
Q 1263 -91 848 271 
Q 434 634 434 1313 
Q 434 1759 690 2068 
Q 947 2378 1403 2484 
z
M 1172 3481 
Q 1172 3119 1398 2916 
Q 1625 2713 2034 2713 
Q 2441 2713 2670 2916 
Q 2900 3119 2900 3481 
Q 2900 3844 2670 4047 
Q 2441 4250 2034 4250 
Q 1625 4250 1398 4047 
Q 1172 3844 1172 3481 
z
" transform="scale(0.015625)"/>
       </defs>
       <use xlink:href="#DejaVuSans-38"/>
       <use xlink:href="#DejaVuSans-30" x="63.623047"/>
      </g>
     </g>
    </g>
    <g id="xtick_6">
     <g id="line2d_6">
      <g>
       <use xlink:href="#m85a0a9c010" x="391.360625" y="288.21825" style="stroke: #000000; stroke-width: 0.8"/>
      </g>
     </g>
     <g id="text_6">
      <!-- 100 -->
      <g transform="translate(381.816875 302.816687)scale(0.1 -0.1)">
       <defs>
        <path id="DejaVuSans-31" d="M 794 531 
L 1825 531 
L 1825 4091 
L 703 3866 
L 703 4441 
L 1819 4666 
L 2450 4666 
L 2450 531 
L 3481 531 
L 3481 0 
L 794 0 
L 794 531 
z
" transform="scale(0.015625)"/>
       </defs>
       <use xlink:href="#DejaVuSans-31"/>
       <use xlink:href="#DejaVuSans-30" x="63.623047"/>
       <use xlink:href="#DejaVuSans-30" x="127.246094"/>
      </g>
     </g>
    </g>
    <g id="text_7">
     <!-- axialRotation -->
     <g transform="translate(180.024844 316.494812)scale(0.1 -0.1)">
      <defs>
       <path id="DejaVuSans-61" d="M 2194 1759 
Q 1497 1759 1228 1600 
Q 959 1441 959 1056 
Q 959 750 1161 570 
Q 1363 391 1709 391 
Q 2188 391 2477 730 
Q 2766 1069 2766 1631 
L 2766 1759 
L 2194 1759 
z
M 3341 1997 
L 3341 0 
L 2766 0 
L 2766 531 
Q 2569 213 2275 61 
Q 1981 -91 1556 -91 
Q 1019 -91 701 211 
Q 384 513 384 1019 
Q 384 1609 779 1909 
Q 1175 2209 1959 2209 
L 2766 2209 
L 2766 2266 
Q 2766 2663 2505 2880 
Q 2244 3097 1772 3097 
Q 1472 3097 1187 3025 
Q 903 2953 641 2809 
L 641 3341 
Q 956 3463 1253 3523 
Q 1550 3584 1831 3584 
Q 2591 3584 2966 3190 
Q 3341 2797 3341 1997 
z
" transform="scale(0.015625)"/>
       <path id="DejaVuSans-78" d="M 3513 3500 
L 2247 1797 
L 3578 0 
L 2900 0 
L 1881 1375 
L 863 0 
L 184 0 
L 1544 1831 
L 300 3500 
L 978 3500 
L 1906 2253 
L 2834 3500 
L 3513 3500 
z
" transform="scale(0.015625)"/>
       <path id="DejaVuSans-69" d="M 603 3500 
L 1178 3500 
L 1178 0 
L 603 0 
L 603 3500 
z
M 603 4863 
L 1178 4863 
L 1178 4134 
L 603 4134 
L 603 4863 
z
" transform="scale(0.015625)"/>
       <path id="DejaVuSans-6c" d="M 603 4863 
L 1178 4863 
L 1178 0 
L 603 0 
L 603 4863 
z
" transform="scale(0.015625)"/>
       <path id="DejaVuSans-52" d="M 2841 2188 
Q 3044 2119 3236 1894 
Q 3428 1669 3622 1275 
L 4263 0 
L 3584 0 
L 2988 1197 
Q 2756 1666 2539 1819 
Q 2322 1972 1947 1972 
L 1259 1972 
L 1259 0 
L 628 0 
L 628 4666 
L 2053 4666 
Q 2853 4666 3247 4331 
Q 3641 3997 3641 3322 
Q 3641 2881 3436 2590 
Q 3231 2300 2841 2188 
z
M 1259 4147 
L 1259 2491 
L 2053 2491 
Q 2509 2491 2742 2702 
Q 2975 2913 2975 3322 
Q 2975 3731 2742 3939 
Q 2509 4147 2053 4147 
L 1259 4147 
z
" transform="scale(0.015625)"/>
       <path id="DejaVuSans-6f" d="M 1959 3097 
Q 1497 3097 1228 2736 
Q 959 2375 959 1747 
Q 959 1119 1226 758 
Q 1494 397 1959 397 
Q 2419 397 2687 759 
Q 2956 1122 2956 1747 
Q 2956 2369 2687 2733 
Q 2419 3097 1959 3097 
z
M 1959 3584 
Q 2709 3584 3137 3096 
Q 3566 2609 3566 1747 
Q 3566 888 3137 398 
Q 2709 -91 1959 -91 
Q 1206 -91 779 398 
Q 353 888 353 1747 
Q 353 2609 779 3096 
Q 1206 3584 1959 3584 
z
" transform="scale(0.015625)"/>
       <path id="DejaVuSans-74" d="M 1172 4494 
L 1172 3500 
L 2356 3500 
L 2356 3053 
L 1172 3053 
L 1172 1153 
Q 1172 725 1289 603 
Q 1406 481 1766 481 
L 2356 481 
L 2356 0 
L 1766 0 
Q 1100 0 847 248 
Q 594 497 594 1153 
L 594 3053 
L 172 3053 
L 172 3500 
L 594 3500 
L 594 4494 
L 1172 4494 
z
" transform="scale(0.015625)"/>
       <path id="DejaVuSans-6e" d="M 3513 2113 
L 3513 0 
L 2938 0 
L 2938 2094 
Q 2938 2591 2744 2837 
Q 2550 3084 2163 3084 
Q 1697 3084 1428 2787 
Q 1159 2491 1159 1978 
L 1159 0 
L 581 0 
L 581 3500 
L 1159 3500 
L 1159 2956 
Q 1366 3272 1645 3428 
Q 1925 3584 2291 3584 
Q 2894 3584 3203 3211 
Q 3513 2838 3513 2113 
z
" transform="scale(0.015625)"/>
      </defs>
      <use xlink:href="#DejaVuSans-61"/>
      <use xlink:href="#DejaVuSans-78" x="61.279297"/>
      <use xlink:href="#DejaVuSans-69" x="120.458984"/>
      <use xlink:href="#DejaVuSans-61" x="148.242188"/>
      <use xlink:href="#DejaVuSans-6c" x="209.521484"/>
      <use xlink:href="#DejaVuSans-52" x="237.304688"/>
      <use xlink:href="#DejaVuSans-6f" x="302.287109"/>
      <use xlink:href="#DejaVuSans-74" x="363.46875"/>
      <use xlink:href="#DejaVuSans-61" x="402.677734"/>
      <use xlink:href="#DejaVuSans-74" x="463.957031"/>
      <use xlink:href="#DejaVuSans-69" x="503.166016"/>
      <use xlink:href="#DejaVuSans-6f" x="530.949219"/>
      <use xlink:href="#DejaVuSans-6e" x="592.130859"/>
     </g>
    </g>
   </g>
   <g id="matplotlib.axis_2">
    <g id="ytick_1">
     <g id="line2d_7">
      <defs>
       <path id="m5f5d6cb564" d="M 0 0 
L -3.5 0 
" style="stroke: #000000; stroke-width: 0.8"/>
      </defs>
      <g>
       <use xlink:href="#m5f5d6cb564" x="34.240625" y="288.21825" style="stroke: #000000; stroke-width: 0.8"/>
      </g>
     </g>
     <g id="text_8">
      <!-- 0 -->
      <g transform="translate(20.878125 292.017469)scale(0.1 -0.1)">
       <use xlink:href="#DejaVuSans-30"/>
      </g>
     </g>
    </g>
    <g id="ytick_2">
     <g id="line2d_8">
      <g>
       <use xlink:href="#m5f5d6cb564" x="34.240625" y="243.86625" style="stroke: #000000; stroke-width: 0.8"/>
      </g>
     </g>
     <g id="text_9">
      <!-- 1 -->
      <g transform="translate(20.878125 247.665469)scale(0.1 -0.1)">
       <use xlink:href="#DejaVuSans-31"/>
      </g>
     </g>
    </g>
    <g id="ytick_3">
     <g id="line2d_9">
      <g>
       <use xlink:href="#m5f5d6cb564" x="34.240625" y="199.51425" style="stroke: #000000; stroke-width: 0.8"/>
      </g>
     </g>
     <g id="text_10">
      <!-- 2 -->
      <g transform="translate(20.878125 203.313469)scale(0.1 -0.1)">
       <use xlink:href="#DejaVuSans-32"/>
      </g>
     </g>
    </g>
    <g id="ytick_4">
     <g id="line2d_10">
      <g>
       <use xlink:href="#m5f5d6cb564" x="34.240625" y="155.16225" style="stroke: #000000; stroke-width: 0.8"/>
      </g>
     </g>
     <g id="text_11">
      <!-- 3 -->
      <g transform="translate(20.878125 158.961469)scale(0.1 -0.1)">
       <defs>
        <path id="DejaVuSans-33" d="M 2597 2516 
Q 3050 2419 3304 2112 
Q 3559 1806 3559 1356 
Q 3559 666 3084 287 
Q 2609 -91 1734 -91 
Q 1441 -91 1130 -33 
Q 819 25 488 141 
L 488 750 
Q 750 597 1062 519 
Q 1375 441 1716 441 
Q 2309 441 2620 675 
Q 2931 909 2931 1356 
Q 2931 1769 2642 2001 
Q 2353 2234 1838 2234 
L 1294 2234 
L 1294 2753 
L 1863 2753 
Q 2328 2753 2575 2939 
Q 2822 3125 2822 3475 
Q 2822 3834 2567 4026 
Q 2313 4219 1838 4219 
Q 1578 4219 1281 4162 
Q 984 4106 628 3988 
L 628 4550 
Q 988 4650 1302 4700 
Q 1616 4750 1894 4750 
Q 2613 4750 3031 4423 
Q 3450 4097 3450 3541 
Q 3450 3153 3228 2886 
Q 3006 2619 2597 2516 
z
" transform="scale(0.015625)"/>
       </defs>
       <use xlink:href="#DejaVuSans-33"/>
      </g>
     </g>
    </g>
    <g id="ytick_5">
     <g id="line2d_11">
      <g>
       <use xlink:href="#m5f5d6cb564" x="34.240625" y="110.81025" style="stroke: #000000; stroke-width: 0.8"/>
      </g>
     </g>
     <g id="text_12">
      <!-- 4 -->
      <g transform="translate(20.878125 114.609469)scale(0.1 -0.1)">
       <use xlink:href="#DejaVuSans-34"/>
      </g>
     </g>
    </g>
    <g id="ytick_6">
     <g id="line2d_12">
      <g>
       <use xlink:href="#m5f5d6cb564" x="34.240625" y="66.45825" style="stroke: #000000; stroke-width: 0.8"/>
      </g>
     </g>
     <g id="text_13">
      <!-- 5 -->
      <g transform="translate(20.878125 70.257469)scale(0.1 -0.1)">
       <defs>
        <path id="DejaVuSans-35" d="M 691 4666 
L 3169 4666 
L 3169 4134 
L 1269 4134 
L 1269 2991 
Q 1406 3038 1543 3061 
Q 1681 3084 1819 3084 
Q 2600 3084 3056 2656 
Q 3513 2228 3513 1497 
Q 3513 744 3044 326 
Q 2575 -91 1722 -91 
Q 1428 -91 1123 -41 
Q 819 9 494 109 
L 494 744 
Q 775 591 1075 516 
Q 1375 441 1709 441 
Q 2250 441 2565 725 
Q 2881 1009 2881 1497 
Q 2881 1984 2565 2268 
Q 2250 2553 1709 2553 
Q 1456 2553 1204 2497 
Q 953 2441 691 2322 
L 691 4666 
z
" transform="scale(0.015625)"/>
       </defs>
       <use xlink:href="#DejaVuSans-35"/>
      </g>
     </g>
    </g>
    <g id="ytick_7">
     <g id="line2d_13">
      <g>
       <use xlink:href="#m5f5d6cb564" x="34.240625" y="22.10625" style="stroke: #000000; stroke-width: 0.8"/>
      </g>
     </g>
     <g id="text_14">
      <!-- 6 -->
      <g transform="translate(20.878125 25.905469)scale(0.1 -0.1)">
       <use xlink:href="#DejaVuSans-36"/>
      </g>
     </g>
    </g>
    <g id="text_15">
     <!-- zShift -->
     <g transform="translate(14.798438 169.151312)rotate(-90)scale(0.1 -0.1)">
      <defs>
       <path id="DejaVuSans-7a" d="M 353 3500 
L 3084 3500 
L 3084 2975 
L 922 459 
L 3084 459 
L 3084 0 
L 275 0 
L 275 525 
L 2438 3041 
L 353 3041 
L 353 3500 
z
" transform="scale(0.015625)"/>
       <path id="DejaVuSans-53" d="M 3425 4513 
L 3425 3897 
Q 3066 4069 2747 4153 
Q 2428 4238 2131 4238 
Q 1616 4238 1336 4038 
Q 1056 3838 1056 3469 
Q 1056 3159 1242 3001 
Q 1428 2844 1947 2747 
L 2328 2669 
Q 3034 2534 3370 2195 
Q 3706 1856 3706 1288 
Q 3706 609 3251 259 
Q 2797 -91 1919 -91 
Q 1588 -91 1214 -16 
Q 841 59 441 206 
L 441 856 
Q 825 641 1194 531 
Q 1563 422 1919 422 
Q 2459 422 2753 634 
Q 3047 847 3047 1241 
Q 3047 1584 2836 1778 
Q 2625 1972 2144 2069 
L 1759 2144 
Q 1053 2284 737 2584 
Q 422 2884 422 3419 
Q 422 4038 858 4394 
Q 1294 4750 2059 4750 
Q 2388 4750 2728 4690 
Q 3069 4631 3425 4513 
z
" transform="scale(0.015625)"/>
       <path id="DejaVuSans-68" d="M 3513 2113 
L 3513 0 
L 2938 0 
L 2938 2094 
Q 2938 2591 2744 2837 
Q 2550 3084 2163 3084 
Q 1697 3084 1428 2787 
Q 1159 2491 1159 1978 
L 1159 0 
L 581 0 
L 581 4863 
L 1159 4863 
L 1159 2956 
Q 1366 3272 1645 3428 
Q 1925 3584 2291 3584 
Q 2894 3584 3203 3211 
Q 3513 2838 3513 2113 
z
" transform="scale(0.015625)"/>
       <path id="DejaVuSans-66" d="M 2375 4863 
L 2375 4384 
L 1825 4384 
Q 1516 4384 1395 4259 
Q 1275 4134 1275 3809 
L 1275 3500 
L 2222 3500 
L 2222 3053 
L 1275 3053 
L 1275 0 
L 697 0 
L 697 3053 
L 147 3053 
L 147 3500 
L 697 3500 
L 697 3744 
Q 697 4328 969 4595 
Q 1241 4863 1831 4863 
L 2375 4863 
z
" transform="scale(0.015625)"/>
      </defs>
      <use xlink:href="#DejaVuSans-7a"/>
      <use xlink:href="#DejaVuSans-53" x="52.490234"/>
      <use xlink:href="#DejaVuSans-68" x="115.966797"/>
      <use xlink:href="#DejaVuSans-69" x="179.345703"/>
      <use xlink:href="#DejaVuSans-66" x="207.128906"/>
      <use xlink:href="#DejaVuSans-74" x="240.583984"/>
     </g>
    </g>
   </g>
   <g id="PathCollection_1"/>
   <g id="PathCollection_2">
    <path d="M 125.95334 288.21825 
L 125.770481 286.866468 
L 125.565698 285.55713 
L 125.234137 282.89601 
L 124.980469 280.23489 
L 124.787987 277.57377 
L 124.643535 274.91265 
L 124.536629 272.25153 
L 124.458851 269.59041 
L 124.403439 266.92929 
L 124.359922 263.82465 
L 124.33599 261.16353 
L 124.321143 258.50241 
L 124.313272 255.84129 
L 124.311162 253.18017 
L 124.314474 250.51905 
L 124.323744 247.85793 
L 124.340389 245.19681 
L 124.366741 242.53569 
L 124.4061 239.87457 
L 124.462843 237.21345 
L 124.542583 234.55233 
L 124.652408 231.89121 
L 124.801223 229.23009 
L 125.000225 226.56897 
L 125.26359 223.90785 
L 125.676671 220.80321 
L 125.770481 220.24225 
L 126.079294 218.14209 
L 126.581619 215.48097 
L 127.236275 212.81985 
L 127.556081 211.746788 
L 128.01266 210.15873 
L 128.966479 207.49761 
L 129.341681 206.609436 
L 130.116859 204.83649 
L 131.162993 202.821983 
L 131.524876 202.17537 
L 132.948593 199.866866 
L 133.185214 199.51425 
L 134.734193 197.266926 
L 135.032034 196.85313 
L 136.519793 194.692652 
L 136.848139 194.19201 
L 138.341105 191.635377 
L 138.393571 191.53089 
L 139.481462 188.86977 
L 140.126705 186.854855 
L 140.290241 186.20865 
L 140.767345 183.54753 
L 141.064676 180.88641 
L 141.196718 178.22529 
L 141.152489 175.12065 
L 140.945515 172.45953 
L 140.576657 169.79841 
L 140.126705 167.585235 
L 140.012688 167.13729 
L 139.121514 164.47617 
L 138.341105 162.565653 
L 137.98177 161.81505 
L 136.544228 159.15393 
L 136.519793 159.113164 
L 134.886429 156.49281 
L 134.734193 156.254099 
L 133.22962 153.83169 
L 132.948593 153.360332 
L 131.709383 151.17057 
L 131.162993 150.099048 
L 130.384024 148.50945 
L 129.341681 145.982654 
L 129.286477 145.84833 
L 128.308325 143.18721 
L 127.556081 140.553136 
L 127.547906 140.52609 
L 126.844615 137.86497 
L 126.298817 135.20385 
L 125.81411 132.09921 
L 125.770481 131.749538 
L 125.434625 129.43809 
L 125.134584 126.77697 
L 124.905271 124.11585 
L 124.731659 121.45473 
L 124.601801 118.79361 
L 124.506097 116.13249 
L 124.436785 113.47137 
L 124.387587 110.81025 
L 124.35344 108.14913 
L 124.330306 105.48801 
L 124.315012 102.82689 
L 124.305131 100.16577 
L 124.298869 97.50465 
L 124.294963 94.84353 
L 124.292568 92.18241 
L 124.291146 89.52129 
L 124.290271 86.41665 
L 124.289942 83.75553 
L 124.28983 81.09441 
L 124.289815 78.43329 
L 124.289817 75.77217 
L 124.289815 73.11105 
L 124.289845 70.44993 
L 124.289995 67.78881 
L 124.290398 65.12769 
L 124.291223 62.46657 
L 124.292702 59.80545 
L 124.295186 57.14433 
L 124.299234 54.48321 
L 124.305721 51.82209 
L 124.315953 49.16097 
L 124.331781 46.49985 
L 124.360712 43.39521 
L 124.398332 40.73409 
L 124.452377 38.07297 
L 124.528388 35.41185 
L 124.633317 32.75073 
L 124.775872 30.08961 
L 124.967009 27.42849 
L 125.220618 24.76737 
L 125.554509 22.10625 
" clip-path="url(#p1c94c9959f)" style="fill: none; stroke: #dbe9f6; stroke-width: 1.5"/>
    <path d="M 299.647912 22.10625 
L 299.830769 23.458008 
L 300.035557 24.76737 
L 300.367123 27.42849 
L 300.620801 30.08961 
L 300.813303 32.75073 
L 300.957795 35.41185 
L 301.064777 38.07297 
L 301.142698 40.73409 
L 301.19838 43.39521 
L 301.242504 46.49985 
L 301.267402 49.16097 
L 301.283929 51.82209 
L 301.294646 54.48321 
L 301.301458 57.14433 
L 301.305717 59.80545 
L 301.308338 62.46657 
L 301.309905 65.12769 
L 301.310789 67.78881 
L 301.31123 70.44993 
L 301.311407 73.11105 
L 301.311456 75.77217 
L 301.31148 78.43329 
L 301.311533 81.09441 
L 301.311622 83.75553 
L 301.311717 86.41665 
L 301.311779 89.52129 
L 301.311762 92.18241 
L 301.31169 94.84353 
L 301.311604 97.50465 
L 301.311549 100.16577 
L 301.311557 102.82689 
L 301.311624 105.48801 
L 301.311715 108.14913 
L 301.311784 110.81025 
L 301.311802 113.47137 
L 301.311775 116.13249 
L 301.311754 118.79361 
L 301.311821 121.45473 
L 301.312084 124.11585 
L 301.312678 126.77697 
L 301.313809 129.43809 
L 301.315835 132.09921 
L 301.320219 135.20385 
L 301.327048 137.86497 
L 301.338758 140.52609 
L 301.358377 143.18721 
L 301.390364 145.84833 
L 301.441045 148.50945 
L 301.519103 151.17057 
L 301.616369 153.383999 
L 301.641572 153.83169 
L 301.858931 156.49281 
L 302.164438 159.15393 
L 302.581128 161.81505 
L 303.132344 164.47617 
L 303.437681 165.619387 
L 303.94041 167.13729 
L 305.002616 169.79841 
L 305.223281 170.265639 
L 306.402712 172.45953 
L 307.008881 173.489942 
L 308.016967 175.12065 
L 308.794481 176.329736 
L 309.963773 178.22529 
L 310.615793 179.315585 
L 311.510133 180.88641 
L 312.401393 182.62044 
L 312.859175 183.54753 
L 314.003024 186.20865 
L 314.186993 186.700546 
L 315.00226 188.86977 
L 315.798891 191.53089 
L 315.972593 192.220894 
L 316.505599 194.19201 
L 317.080291 196.85313 
L 317.526353 199.51425 
L 317.793905 201.54328 
L 317.891065 202.17537 
L 318.222121 204.83649 
L 318.474622 207.49761 
L 318.664608 210.15873 
L 318.804429 212.81985 
L 318.903493 215.48097 
L 318.968728 218.14209 
L 319.004861 220.80321 
L 319.013684 223.90785 
L 318.993262 226.56897 
L 318.945348 229.23009 
L 318.866216 231.89121 
L 318.74991 234.55233 
L 318.587988 237.21345 
L 318.369087 239.87457 
L 318.078243 242.53569 
L 317.793905 244.546154 
L 317.714298 245.19681 
L 317.308338 247.85793 
L 316.778841 250.51905 
L 316.088403 253.18017 
L 315.972593 253.560851 
L 315.303919 255.84129 
L 314.300166 258.50241 
L 314.186993 258.766419 
L 313.121411 261.16353 
L 312.401393 262.536753 
L 311.672662 263.82465 
L 310.615793 265.536815 
L 309.656053 266.92929 
L 308.794481 268.157684 
L 307.748834 269.59041 
L 307.008881 270.646791 
L 305.936499 272.25153 
L 305.223281 273.428312 
L 304.44146 274.91265 
L 303.437681 277.099372 
L 303.258895 277.57377 
L 302.408977 280.23489 
L 301.654369 282.89601 
L 301.616369 283.045403 
L 301.090659 285.55713 
L 300.537824 288.21825 
" clip-path="url(#p1c94c9959f)" style="fill: none; stroke: #dbe9f6; stroke-width: 1.5"/>
   </g>
   <g id="PathCollection_3">
    <path d="M 130.44745 288.21825 
L 129.935757 285.55713 
L 129.541444 282.89601 
L 129.341681 281.161116 
L 129.227009 280.23489 
L 128.970143 277.57377 
L 128.777618 274.91265 
L 128.635376 272.25153 
L 128.532116 269.59041 
L 128.458753 266.92929 
L 128.401373 263.82465 
L 128.370025 261.16353 
L 128.350811 258.50241 
L 128.340969 255.84129 
L 128.338968 253.18017 
L 128.344483 250.51905 
L 128.3584 247.85793 
L 128.382823 245.19681 
L 128.421123 242.53569 
L 128.478019 239.87457 
L 128.559728 237.21345 
L 128.674194 234.55233 
L 128.831422 231.89121 
L 129.043945 229.23009 
L 129.327481 226.56897 
L 129.341681 226.463178 
L 129.664441 223.90785 
L 130.189161 220.80321 
L 130.786889 218.14209 
L 131.162993 216.791403 
L 131.537852 215.48097 
L 132.476905 212.81985 
L 132.948593 211.705307 
L 133.665183 210.15873 
L 134.734193 208.183031 
L 135.15183 207.49761 
L 136.519793 205.435475 
L 136.960723 204.83649 
L 138.341105 202.991185 
L 138.970929 202.17537 
L 140.126705 200.592116 
L 140.856688 199.51425 
L 141.912305 197.74563 
L 142.365811 196.85313 
L 143.480921 194.19201 
L 143.697905 193.544831 
L 144.250293 191.53089 
L 144.801836 188.86977 
L 145.20052 186.20865 
L 145.471262 183.54753 
L 145.519217 182.761819 
L 145.616355 180.88641 
L 145.671159 178.22529 
L 145.63558 175.12065 
L 145.519217 172.489771 
L 145.517656 172.45953 
L 145.27864 169.79841 
L 144.924136 167.13729 
L 144.435704 164.47617 
L 143.790768 161.81505 
L 143.697905 161.509893 
L 142.848336 159.15393 
L 141.912305 157.010854 
L 141.650855 156.49281 
L 140.126705 153.833029 
L 140.125872 153.83169 
L 138.362067 151.17057 
L 138.341105 151.140025 
L 136.59397 148.50945 
L 136.519793 148.394325 
L 135.006281 145.84833 
L 134.734193 145.346477 
L 133.659832 143.18721 
L 132.948593 141.517787 
L 132.550376 140.52609 
L 131.643938 137.86497 
L 131.162993 136.126413 
L 130.90887 135.20385 
L 130.215519 132.09921 
L 129.762629 129.43809 
L 129.41206 126.77697 
L 129.341681 126.099596 
L 129.118466 124.11585 
L 128.889474 121.45473 
L 128.71827 118.79361 
L 128.592233 116.13249 
L 128.501108 113.47137 
L 128.436571 110.81025 
L 128.391898 108.14913 
L 128.361721 105.48801 
L 128.341831 102.82689 
L 128.329014 100.16577 
L 128.320908 97.50465 
L 128.315862 94.84353 
L 128.312776 92.18241 
L 128.310955 89.52129 
L 128.309851 86.41665 
L 128.309448 83.75553 
L 128.309321 81.09441 
L 128.309308 78.43329 
L 128.309312 75.77217 
L 128.309311 73.11105 
L 128.309365 70.44993 
L 128.309607 67.78881 
L 128.310226 65.12769 
L 128.311463 62.46657 
L 128.313658 59.80545 
L 128.317325 57.14433 
L 128.323286 54.48321 
L 128.33282 51.82209 
L 128.347823 49.16097 
L 128.370971 46.49985 
L 128.413144 43.39521 
L 128.467808 40.73409 
L 128.546128 38.07297 
L 128.656022 35.41185 
L 128.807426 32.75073 
L 129.012802 30.08961 
L 129.287852 27.42849 
L 129.341681 27.019166 
L 129.621045 24.76737 
L 130.053107 22.10625 
" clip-path="url(#p1c94c9959f)" style="fill: none; stroke: #bad6eb; stroke-width: 1.5"/>
    <path d="M 295.153803 22.10625 
L 295.6655 24.76737 
L 296.059819 27.42849 
L 296.259569 29.163182 
L 296.374271 30.08961 
L 296.631167 32.75073 
L 296.823751 35.41185 
L 296.966107 38.07297 
L 297.069583 40.73409 
L 297.143347 43.39521 
L 297.201629 46.49985 
L 297.234409 49.16097 
L 297.256102 51.82209 
L 297.270133 54.48321 
L 297.27903 57.14433 
L 297.284584 59.80545 
L 297.287992 62.46657 
L 297.29002 65.12769 
L 297.29115 67.78881 
L 297.291704 70.44993 
L 297.291916 73.11105 
L 297.291974 75.77217 
L 297.292009 78.43329 
L 297.292089 81.09441 
L 297.292217 83.75553 
L 297.292345 86.41665 
L 297.292419 89.52129 
L 297.292384 92.18241 
L 297.292279 94.84353 
L 297.292161 97.50465 
L 297.292095 100.16577 
L 297.292117 102.82689 
L 297.292216 105.48801 
L 297.292339 108.14913 
L 297.292422 110.81025 
L 297.292425 113.47137 
L 297.292357 116.13249 
L 297.29228 118.79361 
L 297.292282 121.45473 
L 297.292458 124.11585 
L 297.292898 126.77697 
L 297.29371 129.43809 
L 297.295096 132.09921 
L 297.297981 135.20385 
L 297.302409 137.86497 
L 297.309993 140.52609 
L 297.322724 143.18721 
L 297.343508 145.84833 
L 297.376446 148.50945 
L 297.427166 151.17057 
L 297.503211 153.83169 
L 297.614417 156.49281 
L 297.77327 159.15393 
L 297.995188 161.81505 
L 298.045169 162.258197 
L 298.338605 164.47617 
L 298.805777 167.13729 
L 299.41409 169.79841 
L 299.830769 171.239969 
L 300.249642 172.45953 
L 301.357143 175.12065 
L 301.616369 175.64422 
L 303.065547 178.22529 
L 303.437681 178.818791 
L 304.800524 180.88641 
L 305.223281 181.504652 
L 306.579534 183.54753 
L 307.008881 184.211289 
L 308.204106 186.20865 
L 308.794481 187.287004 
L 309.591255 188.86977 
L 310.615793 191.247206 
L 310.731197 191.53089 
L 311.677169 194.19201 
L 312.401393 196.764488 
L 312.426242 196.85313 
L 313.060526 199.51425 
L 313.55442 202.17537 
L 313.936589 204.83649 
L 314.186993 207.09959 
L 314.234638 207.49761 
L 314.482652 210.15873 
L 314.664737 212.81985 
L 314.792992 215.48097 
L 314.876301 218.14209 
L 314.920643 220.80321 
L 314.927288 223.90785 
L 314.894707 226.56897 
L 314.824147 229.23009 
L 314.710159 231.89121 
L 314.544253 234.55233 
L 314.314531 237.21345 
L 314.186993 238.337208 
L 314.024212 239.87457 
L 313.657316 242.53569 
L 313.176357 245.19681 
L 312.5501 247.85793 
L 312.401393 248.38257 
L 311.779193 250.51905 
L 310.79737 253.18017 
L 310.615793 253.603476 
L 309.565744 255.84129 
L 308.794481 257.248411 
L 308.021184 258.50241 
L 307.008881 260.013979 
L 306.155633 261.16353 
L 305.223281 262.401976 
L 304.117155 263.82465 
L 303.437681 264.753617 
L 301.955486 266.92929 
L 301.616369 267.49345 
L 300.540677 269.59041 
L 299.830769 271.218085 
L 299.454736 272.25153 
L 298.637633 274.91265 
L 298.045169 277.15999 
L 297.951338 277.57377 
L 297.407521 280.23489 
L 296.883578 282.89601 
L 296.338562 285.55713 
L 296.259569 285.918362 
L 295.78302 288.21825 
" clip-path="url(#p1c94c9959f)" style="fill: none; stroke: #bad6eb; stroke-width: 1.5"/>
   </g>
   <g id="PathCollection_4">
    <path d="M 134.141495 288.21825 
L 133.441404 285.55713 
L 132.948593 283.140424 
L 132.900927 282.89601 
L 132.484757 280.23489 
L 132.169156 277.57377 
L 131.932644 274.91265 
L 131.758004 272.25153 
L 131.631359 269.59041 
L 131.541526 266.92929 
L 131.471449 263.82465 
L 131.43334 261.16353 
L 131.41019 258.50241 
L 131.398648 255.84129 
L 131.396907 253.18017 
L 131.404683 250.51905 
L 131.423215 247.85793 
L 131.45528 245.19681 
L 131.505254 242.53569 
L 131.57921 239.87457 
L 131.685114 237.21345 
L 131.833098 234.55233 
L 132.035864 231.89121 
L 132.309228 229.23009 
L 132.672864 226.56897 
L 132.948593 225.003955 
L 133.150415 223.90785 
L 133.889912 220.80321 
L 134.723373 218.14209 
L 134.734193 218.112767 
L 135.826271 215.48097 
L 136.519793 214.086416 
L 137.251066 212.81985 
L 138.341105 211.132364 
L 139.060969 210.15873 
L 140.126705 208.773989 
L 141.166757 207.49761 
L 141.912305 206.554802 
L 143.193501 204.83649 
L 143.697905 204.088792 
L 144.807793 202.17537 
L 145.519217 200.718707 
L 146.010613 199.51425 
L 146.886835 196.85313 
L 147.304817 195.230632 
L 147.535568 194.19201 
L 147.994493 191.53089 
L 148.333303 188.86977 
L 148.574886 186.20865 
L 148.736522 183.54753 
L 148.830464 180.88641 
L 148.864272 178.22529 
L 148.831503 175.12065 
L 148.739508 172.45953 
L 148.581919 169.79841 
L 148.348073 167.13729 
L 148.023062 164.47617 
L 147.587518 161.81505 
L 147.304817 160.470779 
L 146.990933 159.15393 
L 146.195124 156.49281 
L 145.519217 154.668266 
L 145.159768 153.83169 
L 143.811521 151.17057 
L 143.697905 150.973177 
L 142.122568 148.50945 
L 141.912305 148.204489 
L 140.246241 145.84833 
L 140.126705 145.68135 
L 138.44647 143.18721 
L 138.341105 143.022658 
L 136.913198 140.52609 
L 136.519793 139.753825 
L 135.664549 137.86497 
L 134.734193 135.4109 
L 134.662333 135.20385 
L 133.762642 132.09921 
L 133.166854 129.43809 
L 132.948593 128.217387 
L 132.698083 126.77697 
L 132.335083 124.11585 
L 132.059276 121.45473 
L 131.852638 118.79361 
L 131.700353 116.13249 
L 131.590234 113.47137 
L 131.512291 110.81025 
L 131.458403 108.14913 
L 131.422062 105.48801 
L 131.398151 102.82689 
L 131.382768 100.16577 
L 131.373054 97.50465 
L 131.367013 94.84353 
L 131.363326 92.18241 
L 131.361161 89.52129 
L 131.359863 86.41665 
L 131.359402 83.75553 
L 131.359265 81.09441 
L 131.359258 78.43329 
L 131.359263 75.77217 
L 131.359263 73.11105 
L 131.359346 70.44993 
L 131.359685 67.78881 
L 131.360526 65.12769 
L 131.362184 62.46657 
L 131.365102 59.80545 
L 131.369961 57.14433 
L 131.377847 54.48321 
L 131.390442 51.82209 
L 131.410233 49.16097 
L 131.440712 46.49985 
L 131.496126 43.39521 
L 131.567812 40.73409 
L 131.670367 38.07297 
L 131.814102 35.41185 
L 132.011979 32.75073 
L 132.280305 30.08961 
L 132.639692 27.42849 
L 132.948593 25.673823 
L 133.117018 24.76737 
L 133.748181 22.10625 
" clip-path="url(#p1c94c9959f)" style="fill: none; stroke: #89bedc; stroke-width: 1.5"/>
    <path d="M 291.45976 22.10625 
L 292.159856 24.76737 
L 292.652657 27.183977 
L 292.700343 27.42849 
L 293.116534 30.08961 
L 293.432175 32.75073 
L 293.668766 35.41185 
L 293.843557 38.07297 
L 293.97049 40.73409 
L 294.060857 43.39521 
L 294.13213 46.49985 
L 294.172135 49.16097 
L 294.198559 51.82209 
L 294.215618 54.48321 
L 294.226422 57.14433 
L 294.233157 59.80545 
L 294.237281 62.46657 
L 294.239726 65.12769 
L 294.241076 67.78881 
L 294.241727 70.44993 
L 294.24197 73.11105 
L 294.242035 75.77217 
L 294.242082 78.43329 
L 294.242191 81.09441 
L 294.242355 83.75553 
L 294.242514 86.41665 
L 294.242596 89.52129 
L 294.242542 92.18241 
L 294.242403 94.84353 
L 294.242257 97.50465 
L 294.242182 100.16577 
L 294.242221 102.82689 
L 294.242352 105.48801 
L 294.242505 108.14913 
L 294.242599 110.81025 
L 294.242587 113.47137 
L 294.242483 116.13249 
L 294.242362 118.79361 
L 294.242323 121.45473 
L 294.242457 124.11585 
L 294.242826 126.77697 
L 294.243481 129.43809 
L 294.24453 132.09921 
L 294.246606 135.20385 
L 294.249738 137.86497 
L 294.255106 140.52609 
L 294.264161 143.18721 
L 294.278988 145.84833 
L 294.302487 148.50945 
L 294.338616 151.17057 
L 294.39268 153.83169 
L 294.438257 155.371766 
L 294.473584 156.49281 
L 294.592834 159.15393 
L 294.759429 161.81505 
L 294.987599 164.47617 
L 295.294434 167.13729 
L 295.700309 169.79841 
L 296.229558 172.45953 
L 296.259569 172.581746 
L 296.969906 175.12065 
L 298.045169 178.123395 
L 298.087814 178.22529 
L 299.403099 180.88641 
L 299.830769 181.63883 
L 301.0378 183.54753 
L 301.616369 184.393431 
L 302.89422 186.20865 
L 303.437681 186.969216 
L 304.719644 188.86977 
L 305.223281 189.653359 
L 306.305012 191.53089 
L 307.008881 192.89657 
L 307.603911 194.19201 
L 308.641021 196.85313 
L 308.794481 197.318384 
L 309.460178 199.51425 
L 310.10399 202.17537 
L 310.607228 204.83649 
L 310.615793 204.893245 
L 311.000838 207.49761 
L 311.297753 210.15873 
L 311.515837 212.81985 
L 311.668994 215.48097 
L 311.767477 218.14209 
L 311.818134 220.80321 
L 311.821351 223.90785 
L 311.776213 226.56897 
L 311.683193 229.23009 
L 311.535184 231.89121 
L 311.321329 234.55233 
L 311.026612 237.21345 
L 310.631215 239.87457 
L 310.615793 239.957303 
L 310.113544 242.53569 
L 309.440449 245.19681 
L 308.794481 247.214881 
L 308.564417 247.85793 
L 307.421103 250.51905 
L 307.008881 251.335637 
L 305.930433 253.18017 
L 305.223281 254.265847 
L 304.052148 255.84129 
L 303.437681 256.636534 
L 301.913373 258.50241 
L 301.616369 258.876863 
L 299.906694 261.16353 
L 299.830769 261.275192 
L 298.333458 263.82465 
L 298.045169 264.401415 
L 296.990144 266.92929 
L 296.259569 269.074678 
L 296.107745 269.59041 
L 295.434648 272.25153 
L 294.853829 274.91265 
L 294.438257 276.993309 
L 294.329209 277.57377 
L 293.835943 280.23489 
L 293.312128 282.89601 
L 292.717144 285.55713 
L 292.652657 285.810389 
L 292.003067 288.21825 
" clip-path="url(#p1c94c9959f)" style="fill: none; stroke: #89bedc; stroke-width: 1.5"/>
   </g>
   <g id="PathCollection_5">
    <path d="M 138.108772 288.21825 
L 137.023352 285.55713 
L 136.519793 283.991461 
L 136.222146 282.89601 
L 135.65163 280.23489 
L 135.218589 277.57377 
L 134.893919 274.91265 
L 134.734193 273.149835 
L 134.65861 272.25153 
L 134.494555 269.59041 
L 134.378403 266.92929 
L 134.28804 263.82465 
L 134.239112 261.16353 
L 134.209634 258.50241 
L 134.195299 255.84129 
L 134.193846 253.18017 
L 134.205028 250.51905 
L 134.230603 247.85793 
L 134.274364 245.19681 
L 134.342194 242.53569 
L 134.442208 239.87457 
L 134.584979 237.21345 
L 134.734193 235.208428 
L 134.786792 234.55233 
L 135.0741 231.89121 
L 135.459238 229.23009 
L 135.967823 226.56897 
L 136.519793 224.336566 
L 136.643257 223.90785 
L 137.766261 220.80321 
L 138.341105 219.518748 
L 139.08476 218.14209 
L 140.126705 216.458506 
L 140.842568 215.48097 
L 141.912305 214.113642 
L 143.005168 212.81985 
L 143.697905 211.996485 
L 145.158245 210.15873 
L 145.519217 209.668684 
L 146.889976 207.49761 
L 147.304817 206.738018 
L 148.177216 204.83649 
L 149.090417 202.368318 
L 149.152527 202.17537 
L 149.868923 199.51425 
L 150.420402 196.85313 
L 150.840949 194.19201 
L 150.876017 193.906417 
L 151.156356 191.53089 
L 151.388741 188.86977 
L 151.55385 186.20865 
L 151.66344 183.54753 
L 151.725805 180.88641 
L 151.745963 178.22529 
L 151.718368 175.12065 
L 151.649026 172.45953 
L 151.532313 169.79841 
L 151.360057 167.13729 
L 151.120901 164.47617 
L 150.876017 162.429427 
L 150.800463 161.81505 
L 150.381903 159.15393 
L 149.841264 156.49281 
L 149.14971 153.83169 
L 149.090417 153.63932 
L 148.241754 151.17057 
L 147.304817 148.95738 
L 147.08732 148.50945 
L 145.599638 145.84833 
L 145.519217 145.718681 
L 143.774515 143.18721 
L 143.697905 143.081962 
L 141.912305 140.666257 
L 141.813655 140.52609 
L 140.126705 138.019525 
L 140.034688 137.86497 
L 138.60395 135.20385 
L 138.341105 134.639351 
L 137.339239 132.09921 
L 136.519793 129.524369 
L 136.495664 129.43809 
L 135.884144 126.77697 
L 135.408534 124.11585 
L 135.04394 121.45473 
L 134.769003 118.79361 
L 134.734193 118.342984 
L 134.574351 116.13249 
L 134.434931 113.47137 
L 134.336348 110.81025 
L 134.268293 108.14913 
L 134.22248 105.48801 
L 134.192393 102.82689 
L 134.173071 100.16577 
L 134.160884 97.50465 
L 134.153312 94.84353 
L 134.148701 92.18241 
L 134.146004 89.52129 
L 134.144407 86.41665 
L 134.143856 83.75553 
L 134.143706 81.09441 
L 134.143705 78.43329 
L 134.143712 75.77217 
L 134.143717 73.11105 
L 134.143846 70.44993 
L 134.144341 67.78881 
L 134.145533 65.12769 
L 134.147854 62.46657 
L 134.151912 59.80545 
L 134.158651 57.14433 
L 134.169571 54.48321 
L 134.18699 51.82209 
L 134.21432 49.16097 
L 134.256331 46.49985 
L 134.332545 43.39521 
L 134.430936 40.73409 
L 134.571449 38.07297 
L 134.734193 35.863575 
L 134.770193 35.41185 
L 135.05762 32.75073 
L 135.447533 30.08961 
L 135.970211 27.42849 
L 136.519793 25.299112 
L 136.684827 24.76737 
L 137.731764 22.10625 
" clip-path="url(#p1c94c9959f)" style="fill: none; stroke: #539ecd; stroke-width: 1.5"/>
    <path d="M 287.492486 22.10625 
L 288.577915 24.76737 
L 289.081457 26.332951 
L 289.379134 27.42849 
L 289.94968 30.08961 
L 290.382781 32.75073 
L 290.707566 35.41185 
L 290.867057 37.170368 
L 290.943073 38.07297 
L 291.107528 40.73409 
L 291.224419 43.39521 
L 291.316433 46.49985 
L 291.367972 49.16097 
L 291.401951 51.82209 
L 291.423853 54.48321 
L 291.437705 57.14433 
L 291.446329 59.80545 
L 291.451601 62.46657 
L 291.454713 65.12769 
L 291.45642 67.78881 
L 291.457229 70.44993 
L 291.457524 73.11105 
L 291.457602 75.77217 
L 291.457669 78.43329 
L 291.457821 81.09441 
L 291.458044 83.75553 
L 291.458249 86.41665 
L 291.458345 89.52129 
L 291.458261 92.18241 
L 291.458071 94.84353 
L 291.457881 97.50465 
L 291.457793 100.16577 
L 291.457856 102.82689 
L 291.458036 105.48801 
L 291.458236 108.14913 
L 291.458349 110.81025 
L 291.458317 113.47137 
L 291.458164 116.13249 
L 291.457986 118.79361 
L 291.457908 121.45473 
L 291.458027 124.11585 
L 291.458385 126.77697 
L 291.458985 129.43809 
L 291.459867 132.09921 
L 291.46149 135.20385 
L 291.463878 137.86497 
L 291.46799 140.52609 
L 291.474996 143.18721 
L 291.486536 145.84833 
L 291.504842 148.50945 
L 291.532921 151.17057 
L 291.574787 153.83169 
L 291.635725 156.49281 
L 291.722546 159.15393 
L 291.843802 161.81505 
L 292.01 164.47617 
L 292.233845 167.13729 
L 292.530614 169.79841 
L 292.652657 170.657601 
L 292.917906 172.45953 
L 293.417512 175.12065 
L 294.179295 178.22529 
L 294.438257 179.081267 
L 295.047737 180.88641 
L 296.151498 183.54753 
L 296.259569 183.77455 
L 297.589613 186.20865 
L 298.045169 186.948644 
L 299.359873 188.86977 
L 299.830769 189.520301 
L 301.315954 191.53089 
L 301.616369 191.94045 
L 303.137287 194.19201 
L 303.437681 194.669293 
L 304.624365 196.85313 
L 305.223281 198.113622 
L 305.793174 199.51425 
L 306.693778 202.17537 
L 307.008881 203.317207 
L 307.378405 204.83649 
L 307.889165 207.49761 
L 308.277675 210.15873 
L 308.56451 212.81985 
L 308.766081 215.48097 
L 308.794481 216.065398 
L 308.889599 218.14209 
L 308.950157 220.80321 
L 308.948302 223.90785 
L 308.884102 226.56897 
L 308.794481 228.451525 
L 308.75487 229.23009 
L 308.544221 231.89121 
L 308.242476 234.55233 
L 307.829824 237.21345 
L 307.280914 239.87457 
L 307.008881 240.914882 
L 306.51655 242.53569 
L 305.505917 245.19681 
L 305.223281 245.819199 
L 304.110423 247.85793 
L 303.437681 248.935816 
L 302.270785 250.51905 
L 301.616369 251.351869 
L 300.069003 253.18017 
L 299.830769 253.463264 
L 298.045169 255.70371 
L 297.948377 255.84129 
L 296.268707 258.50241 
L 296.259569 258.518923 
L 295.026442 261.16353 
L 294.438257 262.694222 
L 294.058556 263.82465 
L 293.190951 266.92929 
L 292.652657 269.26581 
L 292.581555 269.59041 
L 292.052292 272.25153 
L 291.560372 274.91265 
L 291.068492 277.57377 
L 290.867057 278.592755 
L 290.518247 280.23489 
L 289.870054 282.89601 
L 289.086242 285.55713 
L 289.081457 285.5709 
L 287.96938 288.21825 
" clip-path="url(#p1c94c9959f)" style="fill: none; stroke: #539ecd; stroke-width: 1.5"/>
   </g>
   <g id="PathCollection_6">
    <path d="M 146.465178 288.21825 
L 145.519217 287.91015 
L 143.697905 286.900541 
L 141.912305 285.216986 
L 140.126705 282.130106 
L 139.453111 280.23489 
L 138.72638 277.57377 
L 138.209588 274.91265 
L 137.639613 269.59041 
L 137.338883 263.82465 
L 137.205332 255.84129 
L 137.260992 247.85793 
L 137.429697 242.53569 
L 137.792983 237.21345 
L 138.341105 232.855974 
L 138.518001 231.89121 
L 139.154091 229.23009 
L 140.126705 226.169859 
L 141.912305 222.70439 
L 143.697905 220.249307 
L 147.666925 215.48097 
L 149.352757 212.81985 
L 150.876017 209.532776 
L 151.604461 207.49761 
L 152.697329 203.416146 
L 153.463341 199.51425 
L 154.126631 194.19201 
L 154.50474 188.86977 
L 154.716215 183.54753 
L 154.775541 178.22529 
L 154.690224 172.45953 
L 154.452721 167.13729 
L 154.044694 161.81505 
L 153.344225 156.49281 
L 152.230974 151.17057 
L 150.876017 146.783987 
L 150.52146 145.84833 
L 149.090417 142.704546 
L 147.304817 139.705488 
L 141.900144 132.09921 
L 140.126705 128.263483 
L 139.632355 126.77697 
L 138.917418 124.11585 
L 138.341105 121.363607 
L 137.728315 116.13249 
L 137.397474 110.81025 
L 137.196807 102.82689 
L 137.13012 86.41665 
L 137.196987 51.82209 
L 137.423257 43.39521 
L 137.793558 38.07297 
L 138.341105 33.850815 
L 138.55631 32.75073 
L 139.252302 30.08961 
L 140.206494 27.42849 
L 141.912305 24.702318 
L 143.697905 23.175746 
L 146.040816 22.10625 
L 146.040816 22.10625 
" clip-path="url(#p1c94c9959f)" style="fill: none; stroke: #2b7bba; stroke-width: 1.5"/>
    <path d="M 279.136129 22.10625 
L 280.082033 22.414328 
L 281.903345 23.423926 
L 283.688945 25.107452 
L 285.474545 28.194203 
L 286.148245 30.08961 
L 286.875082 32.75073 
L 287.392007 35.41185 
L 287.962925 40.73409 
L 288.267338 46.49985 
L 288.423373 54.48321 
L 288.471986 73.11105 
L 288.570307 153.83169 
L 288.792705 161.81505 
L 289.110342 167.13729 
L 289.606109 172.45953 
L 289.968426 175.12065 
L 290.867057 179.777227 
L 291.117391 180.88641 
L 291.845288 183.54753 
L 292.762342 186.20865 
L 294.438257 189.935483 
L 296.259569 192.957105 
L 301.616369 200.561056 
L 302.426346 202.17537 
L 303.542345 204.83649 
L 304.29536 207.49761 
L 305.223281 212.218198 
L 305.566341 215.48097 
L 305.808291 220.80321 
L 305.695324 226.56897 
L 305.205459 231.89121 
L 304.704916 234.55233 
L 304.033827 237.21345 
L 303.09527 239.87457 
L 301.616369 242.768411 
L 299.830769 245.232649 
L 296.259569 249.406444 
L 294.438257 252.093917 
L 293.84735 253.18017 
L 292.609544 255.84129 
L 291.644034 258.50241 
L 290.208974 263.82465 
L 287.260145 278.234953 
L 286.617717 280.23489 
L 285.474545 283.099093 
L 283.688945 285.747589 
L 281.903345 287.212688 
L 279.661373 288.21825 
L 279.661373 288.21825 
" clip-path="url(#p1c94c9959f)" style="fill: none; stroke: #2b7bba; stroke-width: 1.5"/>
   </g>
   <g id="PathCollection_7">
    <path d="M 141.838222 266.92929 
L 141.592913 263.82465 
L 141.460879 261.16353 
L 141.382199 258.50241 
L 141.345152 255.84129 
L 141.343696 253.18017 
L 141.377321 250.51905 
L 141.450908 247.85793 
L 141.574566 245.19681 
L 141.763443 242.53569 
L 141.912305 241.087323 
L 142.089333 239.87457 
L 142.625451 237.21345 
L 143.338497 234.55233 
L 143.697905 233.513062 
L 144.484548 231.89121 
L 145.519217 230.109584 
L 146.152655 229.23009 
L 147.304817 227.800572 
L 148.2829 226.56897 
L 149.090417 225.595966 
L 150.266192 223.90785 
L 150.876017 223.019506 
L 152.095374 220.80321 
L 152.697329 219.602281 
L 153.343066 218.14209 
L 154.355901 215.48097 
L 154.482929 215.104603 
L 155.242681 212.81985 
L 155.955506 210.15873 
L 156.268529 208.74072 
L 156.572002 207.49761 
L 157.108997 204.83649 
L 157.526939 202.17537 
L 157.850993 199.51425 
L 158.054129 197.371453 
L 158.116409 196.85313 
L 158.370538 194.19201 
L 158.560678 191.53089 
L 158.699417 188.86977 
L 158.796378 186.20865 
L 158.858807 183.54753 
L 158.891825 180.88641 
L 158.898444 178.22529 
L 158.873777 175.12065 
L 158.823008 172.45953 
L 158.74069 169.79841 
L 158.620545 167.13729 
L 158.454075 164.47617 
L 158.230342 161.81505 
L 158.054129 160.194426 
L 157.966086 159.15393 
L 157.682949 156.49281 
L 157.320405 153.83169 
L 156.85861 151.17057 
L 156.272015 148.50945 
L 156.268529 148.495569 
L 155.676944 145.84833 
L 154.930943 143.18721 
L 154.482929 141.823619 
L 154.060446 140.52609 
L 153.049843 137.86497 
L 152.697329 137.028923 
L 151.854376 135.20385 
L 150.876017 133.288063 
L 150.150347 132.09921 
L 149.090417 130.412169 
L 148.388236 129.43809 
L 147.304817 127.900725 
L 146.503555 126.77697 
L 145.519217 125.274967 
L 144.882245 124.11585 
L 143.697905 121.625435 
L 143.637334 121.45473 
L 142.888473 118.79361 
L 142.302888 116.13249 
L 141.912305 113.77779 
L 141.875843 113.47137 
L 141.649253 110.81025 
L 141.491615 108.14913 
L 141.385142 105.48801 
L 141.315182 102.82689 
L 141.270272 100.16577 
L 141.241948 97.50465 
L 141.224344 94.84353 
L 141.213642 92.18241 
L 141.207451 89.52129 
L 141.203918 86.41665 
L 141.202828 83.75553 
L 141.202639 81.09441 
L 141.202729 78.43329 
L 141.202777 75.77217 
L 141.20284 73.11105 
L 141.203356 70.44993 
L 141.205078 67.78881 
L 141.209013 65.12769 
L 141.216485 62.46657 
L 141.229396 59.80545 
L 141.250719 57.14433 
L 141.285175 54.48321 
L 141.340009 51.82209 
L 141.425792 49.16097 
L 141.557231 46.49985 
L 141.794865 43.39521 
L 141.912305 42.366657 
L 142.184351 40.73409 
L 142.81447 38.07297 
L 143.696954 35.41185 
L 143.697905 35.409708 
L 145.519217 32.887694 
L 145.688109 32.75073 
L 147.304817 31.73689 
L 149.090417 31.013822 
L 150.876017 30.408133 
L 151.786604 30.08961 
L 152.697329 29.833836 
L 154.482929 29.321936 
L 156.268529 28.880693 
L 158.054129 28.60572 
L 159.875441 28.558964 
L 161.661041 28.735933 
L 163.446641 29.056135 
L 165.232241 29.393626 
L 167.053553 29.618246 
L 168.839153 29.631254 
L 170.624753 29.432089 
L 172.410353 29.098934 
L 174.231665 28.755404 
L 176.017265 28.5447 
L 177.802865 28.537218 
L 179.588465 28.735008 
L 181.409777 29.072033 
L 183.195377 29.409091 
L 184.980977 29.622077 
L 186.766577 29.626699 
L 188.587889 29.414588 
L 190.373489 29.077353 
L 192.159089 28.743813 
L 193.944689 28.540215 
L 195.766001 28.543686 
L 197.551601 28.752136 
L 199.337201 29.08632 
L 201.122801 29.420766 
L 202.944113 29.628694 
L 204.729713 29.619827 
L 206.515313 29.402763 
L 208.300913 29.063012 
L 210.122225 28.726865 
L 211.907825 28.534134 
L 213.693425 28.54842 
L 215.479025 28.763817 
L 217.300337 29.10775 
L 219.085937 29.437879 
L 220.871537 29.632669 
L 222.657137 29.614815 
L 224.478449 29.384647 
L 226.264049 29.041533 
L 228.049649 28.715846 
L 229.835249 28.530507 
L 231.656561 28.556141 
L 233.442161 28.781712 
L 235.227761 29.122024 
L 237.013361 29.44901 
L 238.834673 29.637971 
L 240.620273 29.606657 
L 242.405873 29.372329 
L 244.191473 29.027249 
L 246.012785 28.699757 
L 247.798385 28.525714 
L 249.583985 28.561707 
L 251.369585 28.793904 
L 253.190897 29.143457 
L 254.976497 29.46545 
L 256.762097 29.64152 
L 258.547697 29.601925 
L 260.369009 29.356218 
L 262.154609 29.012027 
L 263.940209 28.702719 
L 265.725809 28.551248 
L 267.547121 28.629471 
L 269.332721 28.929383 
L 271.118321 29.382583 
L 272.903921 29.893894 
L 273.609514 30.08961 
L 274.725233 30.474931 
L 276.510833 31.080704 
L 278.296433 31.823499 
L 279.722771 32.75073 
L 280.082033 33.050802 
L 281.755693 35.41185 
L 281.903345 35.689085 
L 282.698668 38.07297 
L 283.343904 40.73409 
L 283.688945 42.733566 
L 283.767695 43.39521 
L 284.017884 46.49985 
L 284.157598 49.16097 
L 284.249445 51.82209 
L 284.308491 54.48321 
L 284.345756 57.14433 
L 284.368907 59.80545 
L 284.383003 62.46657 
L 284.391252 65.12769 
L 284.395697 67.78881 
L 284.397741 70.44993 
L 284.398449 73.11105 
L 284.398644 75.77217 
L 284.398875 78.43329 
L 284.399361 81.09441 
L 284.400015 83.75553 
L 284.400571 86.41665 
L 284.400761 89.52129 
L 284.400451 92.18241 
L 284.399881 94.84353 
L 284.399365 97.50465 
L 284.399182 100.16577 
L 284.399434 102.82689 
L 284.399984 105.48801 
L 284.400535 108.14913 
L 284.400788 110.81025 
L 284.40061 113.47137 
L 284.400102 116.13249 
L 284.399548 118.79361 
L 284.39927 121.45473 
L 284.399459 124.11585 
L 284.400089 126.77697 
L 284.400962 129.43809 
L 284.401867 132.09921 
L 284.402942 135.20385 
L 284.404268 137.86497 
L 284.406732 140.52609 
L 284.411383 143.18721 
L 284.419493 145.84833 
L 284.432559 148.50945 
L 284.452431 151.17057 
L 284.481573 153.83169 
L 284.52337 156.49281 
L 284.582401 159.15393 
L 284.664619 161.81505 
L 284.777455 164.47617 
L 284.929931 167.13729 
L 285.132919 169.79841 
L 285.399676 172.45953 
L 285.474545 173.059093 
L 285.677267 175.12065 
L 286.072151 178.22529 
L 286.511578 180.88641 
L 287.069505 183.54753 
L 287.260145 184.321183 
L 287.674137 186.20865 
L 288.386243 188.86977 
L 289.081457 191.00197 
L 289.252543 191.53089 
L 290.221217 194.19201 
L 290.867057 195.726035 
L 291.387814 196.85313 
L 292.652657 199.308598 
L 292.775719 199.51425 
L 294.438257 202.169774 
L 294.442276 202.17537 
L 296.259569 204.747188 
L 296.323745 204.83649 
L 298.045169 207.445539 
L 298.074426 207.49761 
L 299.327716 210.15873 
L 299.830769 211.464496 
L 300.2126 212.81985 
L 300.756102 215.48097 
L 301.103552 218.14209 
L 301.258412 220.80321 
L 301.195921 223.90785 
L 300.928017 226.56897 
L 300.451139 229.23009 
L 299.830769 231.58948 
L 299.717632 231.89121 
L 298.421977 234.55233 
L 298.045169 235.18702 
L 296.576183 237.21345 
L 296.259569 237.602725 
L 294.449358 239.87457 
L 294.438257 239.887976 
L 292.652657 242.444463 
L 292.600328 242.53569 
L 291.127009 245.19681 
L 290.867057 245.712241 
L 289.913358 247.85793 
L 289.081457 250.064028 
L 288.914732 250.51905 
L 288.035073 253.18017 
L 287.32677 255.84129 
L 287.260145 256.122743 
L 286.635451 258.50241 
L 286.047535 261.16353 
L 285.537198 263.82465 
L 285.474545 264.160288 
L 284.82828 266.92929 
L 284.202827 269.59041 
L 283.688945 271.585013 
L 283.444826 272.25153 
L 282.2874 274.91265 
L 281.903345 275.633879 
L 280.250547 277.57377 
L 280.082033 277.732426 
L 278.296433 278.730621 
L 276.510833 279.387617 
L 274.725233 279.956552 
L 273.901968 280.23489 
L 272.903921 280.506945 
L 271.118321 281.010617 
L 269.332721 281.447668 
L 267.547121 281.720605 
L 265.725809 281.766385 
L 263.940209 281.588968 
L 262.154609 281.268551 
L 260.369009 280.930958 
L 258.547697 280.706289 
L 256.762097 280.69326 
L 254.976497 280.892417 
L 253.190897 281.225568 
L 251.369585 281.569097 
L 249.583985 281.779801 
L 247.798385 281.787283 
L 246.012785 281.589492 
L 244.191473 281.252467 
L 242.405873 280.915409 
L 240.620273 280.702423 
L 238.834673 280.697801 
L 237.013361 280.909912 
L 235.227761 281.247147 
L 233.442161 281.580687 
L 231.656561 281.784285 
L 229.835249 281.780814 
L 228.049649 281.572364 
L 226.264049 281.23818 
L 224.478449 280.903734 
L 222.657137 280.695806 
L 220.871537 280.704673 
L 219.085937 280.921737 
L 217.300337 281.261488 
L 215.479025 281.597635 
L 213.693425 281.790366 
L 211.907825 281.77608 
L 210.122225 281.560683 
L 208.300913 281.21675 
L 206.515313 280.886621 
L 204.729713 280.691831 
L 202.944113 280.709685 
L 201.122801 280.939853 
L 199.337201 281.282967 
L 197.551601 281.608654 
L 195.766001 281.793993 
L 193.944689 281.768359 
L 192.159089 281.542788 
L 190.373489 281.202476 
L 188.587889 280.87549 
L 186.766577 280.686529 
L 184.980977 280.717843 
L 183.195377 280.952171 
L 181.409777 281.297251 
L 179.588465 281.624743 
L 177.802865 281.798785 
L 176.017265 281.762792 
L 174.231665 281.530595 
L 172.410353 281.181041 
L 170.624753 280.859046 
L 168.839153 280.682973 
L 167.053553 280.722564 
L 165.232241 280.968265 
L 163.446641 281.312449 
L 161.661041 281.621749 
L 159.875441 281.773209 
L 158.054129 281.694968 
L 156.268529 281.39503 
L 154.482929 280.941792 
L 152.697329 280.430433 
L 151.992432 280.23489 
L 150.876017 279.84926 
L 149.090417 279.243365 
L 147.304817 278.500418 
L 145.879631 277.57377 
L 145.519217 277.272607 
L 143.847012 274.91265 
L 143.697905 274.632386 
L 142.904411 272.25153 
L 142.260889 269.59041 
L 141.912305 267.556077 
L 141.838222 266.92929 
z
" clip-path="url(#p1c94c9959f)" style="fill: none; stroke: #0b559f; stroke-width: 1.5"/>
   </g>
   <g id="PathCollection_8"/>
   <g id="patch_3">
    <path d="M 34.240625 288.21825 
L 34.240625 22.10625 
" style="fill: none; stroke: #000000; stroke-width: 0.8; stroke-linejoin: miter; stroke-linecap: square"/>
   </g>
   <g id="patch_4">
    <path d="M 391.360625 288.21825 
L 391.360625 22.10625 
" style="fill: none; stroke: #000000; stroke-width: 0.8; stroke-linejoin: miter; stroke-linecap: square"/>
   </g>
   <g id="patch_5">
    <path d="M 34.240625 288.21825 
L 391.360625 288.21825 
" style="fill: none; stroke: #000000; stroke-width: 0.8; stroke-linejoin: miter; stroke-linecap: square"/>
   </g>
   <g id="patch_6">
    <path d="M 34.240625 22.10625 
L 391.360625 22.10625 
" style="fill: none; stroke: #000000; stroke-width: 0.8; stroke-linejoin: miter; stroke-linecap: square"/>
   </g>
   <g id="text_16">
    <!-- 7.1_cross_-37.0 -->
    <g transform="translate(166.181563 16.10625)scale(0.12 -0.12)">
     <defs>
      <path id="DejaVuSans-37" d="M 525 4666 
L 3525 4666 
L 3525 4397 
L 1831 0 
L 1172 0 
L 2766 4134 
L 525 4134 
L 525 4666 
z
" transform="scale(0.015625)"/>
      <path id="DejaVuSans-2e" d="M 684 794 
L 1344 794 
L 1344 0 
L 684 0 
L 684 794 
z
" transform="scale(0.015625)"/>
      <path id="DejaVuSans-5f" d="M 3263 -1063 
L 3263 -1509 
L -63 -1509 
L -63 -1063 
L 3263 -1063 
z
" transform="scale(0.015625)"/>
      <path id="DejaVuSans-63" d="M 3122 3366 
L 3122 2828 
Q 2878 2963 2633 3030 
Q 2388 3097 2138 3097 
Q 1578 3097 1268 2742 
Q 959 2388 959 1747 
Q 959 1106 1268 751 
Q 1578 397 2138 397 
Q 2388 397 2633 464 
Q 2878 531 3122 666 
L 3122 134 
Q 2881 22 2623 -34 
Q 2366 -91 2075 -91 
Q 1284 -91 818 406 
Q 353 903 353 1747 
Q 353 2603 823 3093 
Q 1294 3584 2113 3584 
Q 2378 3584 2631 3529 
Q 2884 3475 3122 3366 
z
" transform="scale(0.015625)"/>
      <path id="DejaVuSans-72" d="M 2631 2963 
Q 2534 3019 2420 3045 
Q 2306 3072 2169 3072 
Q 1681 3072 1420 2755 
Q 1159 2438 1159 1844 
L 1159 0 
L 581 0 
L 581 3500 
L 1159 3500 
L 1159 2956 
Q 1341 3275 1631 3429 
Q 1922 3584 2338 3584 
Q 2397 3584 2469 3576 
Q 2541 3569 2628 3553 
L 2631 2963 
z
" transform="scale(0.015625)"/>
      <path id="DejaVuSans-73" d="M 2834 3397 
L 2834 2853 
Q 2591 2978 2328 3040 
Q 2066 3103 1784 3103 
Q 1356 3103 1142 2972 
Q 928 2841 928 2578 
Q 928 2378 1081 2264 
Q 1234 2150 1697 2047 
L 1894 2003 
Q 2506 1872 2764 1633 
Q 3022 1394 3022 966 
Q 3022 478 2636 193 
Q 2250 -91 1575 -91 
Q 1294 -91 989 -36 
Q 684 19 347 128 
L 347 722 
Q 666 556 975 473 
Q 1284 391 1588 391 
Q 1994 391 2212 530 
Q 2431 669 2431 922 
Q 2431 1156 2273 1281 
Q 2116 1406 1581 1522 
L 1381 1569 
Q 847 1681 609 1914 
Q 372 2147 372 2553 
Q 372 3047 722 3315 
Q 1072 3584 1716 3584 
Q 2034 3584 2315 3537 
Q 2597 3491 2834 3397 
z
" transform="scale(0.015625)"/>
      <path id="DejaVuSans-2d" d="M 313 2009 
L 1997 2009 
L 1997 1497 
L 313 1497 
L 313 2009 
z
" transform="scale(0.015625)"/>
     </defs>
     <use xlink:href="#DejaVuSans-37"/>
     <use xlink:href="#DejaVuSans-2e" x="63.623047"/>
     <use xlink:href="#DejaVuSans-31" x="95.410156"/>
     <use xlink:href="#DejaVuSans-5f" x="159.033203"/>
     <use xlink:href="#DejaVuSans-63" x="209.033203"/>
     <use xlink:href="#DejaVuSans-72" x="264.013672"/>
     <use xlink:href="#DejaVuSans-6f" x="302.876953"/>
     <use xlink:href="#DejaVuSans-73" x="364.058594"/>
     <use xlink:href="#DejaVuSans-73" x="416.158203"/>
     <use xlink:href="#DejaVuSans-5f" x="468.257812"/>
     <use xlink:href="#DejaVuSans-2d" x="518.257812"/>
     <use xlink:href="#DejaVuSans-33" x="554.341797"/>
     <use xlink:href="#DejaVuSans-37" x="617.964844"/>
     <use xlink:href="#DejaVuSans-2e" x="681.587891"/>
     <use xlink:href="#DejaVuSans-30" x="713.375"/>
    </g>
   </g>
  </g>
 </g>
 <defs>
  <clipPath id="p1c94c9959f">
   <rect x="34.240625" y="22.10625" width="357.12" height="266.112"/>
  </clipPath>
 </defs>
</svg>
