<?xml version="1.0" encoding="utf-8" standalone="no"?>
<!DOCTYPE svg PUBLIC "-//W3C//DTD SVG 1.1//EN"
  "http://www.w3.org/Graphics/SVG/1.1/DTD/svg11.dtd">
<svg xmlns:xlink="http://www.w3.org/1999/xlink" width="408.104375pt" height="325.7745pt" viewBox="0 0 408.104375 325.7745" xmlns="http://www.w3.org/2000/svg" version="1.1">
 <metadata>
  <rdf:RDF xmlns:dc="http://purl.org/dc/elements/1.1/" xmlns:cc="http://creativecommons.org/ns#" xmlns:rdf="http://www.w3.org/1999/02/22-rdf-syntax-ns#">
   <cc:Work>
    <dc:type rdf:resource="http://purl.org/dc/dcmitype/StillImage"/>
    <dc:date>2024-07-12T12:31:46.660590</dc:date>
    <dc:format>image/svg+xml</dc:format>
    <dc:creator>
     <cc:Agent>
      <dc:title>Matplotlib v3.5.3, https://matplotlib.org/</dc:title>
     </cc:Agent>
    </dc:creator>
   </cc:Work>
  </rdf:RDF>
 </metadata>
 <defs>
  <style type="text/css">*{stroke-linejoin: round; stroke-linecap: butt}</style>
 </defs>
 <g id="figure_1">
  <g id="patch_1">
   <path d="M 0 325.7745 
L 408.104375 325.7745 
L 408.104375 0 
L 0 0 
z
" style="fill: #ffffff"/>
  </g>
  <g id="axes_1">
   <g id="patch_2">
    <path d="M 34.240625 288.21825 
L 391.360625 288.21825 
L 391.360625 22.10625 
L 34.240625 22.10625 
z
" style="fill: #ffffff"/>
   </g>
   <g id="matplotlib.axis_1">
    <g id="xtick_1">
     <g id="line2d_1">
      <defs>
       <path id="m99620e14c1" d="M 0 0 
L 0 3.5 
" style="stroke: #000000; stroke-width: 0.8"/>
      </defs>
      <g>
       <use xlink:href="#m99620e14c1" x="34.240625" y="288.21825" style="stroke: #000000; stroke-width: 0.8"/>
      </g>
     </g>
     <g id="text_1">
      <!-- 0 -->
      <g transform="translate(31.059375 302.816687)scale(0.1 -0.1)">
       <defs>
        <path id="DejaVuSans-30" d="M 2034 4250 
Q 1547 4250 1301 3770 
Q 1056 3291 1056 2328 
Q 1056 1369 1301 889 
Q 1547 409 2034 409 
Q 2525 409 2770 889 
Q 3016 1369 3016 2328 
Q 3016 3291 2770 3770 
Q 2525 4250 2034 4250 
z
M 2034 4750 
Q 2819 4750 3233 4129 
Q 3647 3509 3647 2328 
Q 3647 1150 3233 529 
Q 2819 -91 2034 -91 
Q 1250 -91 836 529 
Q 422 1150 422 2328 
Q 422 3509 836 4129 
Q 1250 4750 2034 4750 
z
" transform="scale(0.015625)"/>
       </defs>
       <use xlink:href="#DejaVuSans-30"/>
      </g>
     </g>
    </g>
    <g id="xtick_2">
     <g id="line2d_2">
      <g>
       <use xlink:href="#m99620e14c1" x="105.664625" y="288.21825" style="stroke: #000000; stroke-width: 0.8"/>
      </g>
     </g>
     <g id="text_2">
      <!-- 20 -->
      <g transform="translate(99.302125 302.816687)scale(0.1 -0.1)">
       <defs>
        <path id="DejaVuSans-32" d="M 1228 531 
L 3431 531 
L 3431 0 
L 469 0 
L 469 531 
Q 828 903 1448 1529 
Q 2069 2156 2228 2338 
Q 2531 2678 2651 2914 
Q 2772 3150 2772 3378 
Q 2772 3750 2511 3984 
Q 2250 4219 1831 4219 
Q 1534 4219 1204 4116 
Q 875 4013 500 3803 
L 500 4441 
Q 881 4594 1212 4672 
Q 1544 4750 1819 4750 
Q 2544 4750 2975 4387 
Q 3406 4025 3406 3419 
Q 3406 3131 3298 2873 
Q 3191 2616 2906 2266 
Q 2828 2175 2409 1742 
Q 1991 1309 1228 531 
z
" transform="scale(0.015625)"/>
       </defs>
       <use xlink:href="#DejaVuSans-32"/>
       <use xlink:href="#DejaVuSans-30" x="63.623047"/>
      </g>
     </g>
    </g>
    <g id="xtick_3">
     <g id="line2d_3">
      <g>
       <use xlink:href="#m99620e14c1" x="177.088625" y="288.21825" style="stroke: #000000; stroke-width: 0.8"/>
      </g>
     </g>
     <g id="text_3">
      <!-- 40 -->
      <g transform="translate(170.726125 302.816687)scale(0.1 -0.1)">
       <defs>
        <path id="DejaVuSans-34" d="M 2419 4116 
L 825 1625 
L 2419 1625 
L 2419 4116 
z
M 2253 4666 
L 3047 4666 
L 3047 1625 
L 3713 1625 
L 3713 1100 
L 3047 1100 
L 3047 0 
L 2419 0 
L 2419 1100 
L 313 1100 
L 313 1709 
L 2253 4666 
z
" transform="scale(0.015625)"/>
       </defs>
       <use xlink:href="#DejaVuSans-34"/>
       <use xlink:href="#DejaVuSans-30" x="63.623047"/>
      </g>
     </g>
    </g>
    <g id="xtick_4">
     <g id="line2d_4">
      <g>
       <use xlink:href="#m99620e14c1" x="248.512625" y="288.21825" style="stroke: #000000; stroke-width: 0.8"/>
      </g>
     </g>
     <g id="text_4">
      <!-- 60 -->
      <g transform="translate(242.150125 302.816687)scale(0.1 -0.1)">
       <defs>
        <path id="DejaVuSans-36" d="M 2113 2584 
Q 1688 2584 1439 2293 
Q 1191 2003 1191 1497 
Q 1191 994 1439 701 
Q 1688 409 2113 409 
Q 2538 409 2786 701 
Q 3034 994 3034 1497 
Q 3034 2003 2786 2293 
Q 2538 2584 2113 2584 
z
M 3366 4563 
L 3366 3988 
Q 3128 4100 2886 4159 
Q 2644 4219 2406 4219 
Q 1781 4219 1451 3797 
Q 1122 3375 1075 2522 
Q 1259 2794 1537 2939 
Q 1816 3084 2150 3084 
Q 2853 3084 3261 2657 
Q 3669 2231 3669 1497 
Q 3669 778 3244 343 
Q 2819 -91 2113 -91 
Q 1303 -91 875 529 
Q 447 1150 447 2328 
Q 447 3434 972 4092 
Q 1497 4750 2381 4750 
Q 2619 4750 2861 4703 
Q 3103 4656 3366 4563 
z
" transform="scale(0.015625)"/>
       </defs>
       <use xlink:href="#DejaVuSans-36"/>
       <use xlink:href="#DejaVuSans-30" x="63.623047"/>
      </g>
     </g>
    </g>
    <g id="xtick_5">
     <g id="line2d_5">
      <g>
       <use xlink:href="#m99620e14c1" x="319.936625" y="288.21825" style="stroke: #000000; stroke-width: 0.8"/>
      </g>
     </g>
     <g id="text_5">
      <!-- 80 -->
      <g transform="translate(313.574125 302.816687)scale(0.1 -0.1)">
       <defs>
        <path id="DejaVuSans-38" d="M 2034 2216 
Q 1584 2216 1326 1975 
Q 1069 1734 1069 1313 
Q 1069 891 1326 650 
Q 1584 409 2034 409 
Q 2484 409 2743 651 
Q 3003 894 3003 1313 
Q 3003 1734 2745 1975 
Q 2488 2216 2034 2216 
z
M 1403 2484 
Q 997 2584 770 2862 
Q 544 3141 544 3541 
Q 544 4100 942 4425 
Q 1341 4750 2034 4750 
Q 2731 4750 3128 4425 
Q 3525 4100 3525 3541 
Q 3525 3141 3298 2862 
Q 3072 2584 2669 2484 
Q 3125 2378 3379 2068 
Q 3634 1759 3634 1313 
Q 3634 634 3220 271 
Q 2806 -91 2034 -91 
Q 1263 -91 848 271 
Q 434 634 434 1313 
Q 434 1759 690 2068 
Q 947 2378 1403 2484 
z
M 1172 3481 
Q 1172 3119 1398 2916 
Q 1625 2713 2034 2713 
Q 2441 2713 2670 2916 
Q 2900 3119 2900 3481 
Q 2900 3844 2670 4047 
Q 2441 4250 2034 4250 
Q 1625 4250 1398 4047 
Q 1172 3844 1172 3481 
z
" transform="scale(0.015625)"/>
       </defs>
       <use xlink:href="#DejaVuSans-38"/>
       <use xlink:href="#DejaVuSans-30" x="63.623047"/>
      </g>
     </g>
    </g>
    <g id="xtick_6">
     <g id="line2d_6">
      <g>
       <use xlink:href="#m99620e14c1" x="391.360625" y="288.21825" style="stroke: #000000; stroke-width: 0.8"/>
      </g>
     </g>
     <g id="text_6">
      <!-- 100 -->
      <g transform="translate(381.816875 302.816687)scale(0.1 -0.1)">
       <defs>
        <path id="DejaVuSans-31" d="M 794 531 
L 1825 531 
L 1825 4091 
L 703 3866 
L 703 4441 
L 1819 4666 
L 2450 4666 
L 2450 531 
L 3481 531 
L 3481 0 
L 794 0 
L 794 531 
z
" transform="scale(0.015625)"/>
       </defs>
       <use xlink:href="#DejaVuSans-31"/>
       <use xlink:href="#DejaVuSans-30" x="63.623047"/>
       <use xlink:href="#DejaVuSans-30" x="127.246094"/>
      </g>
     </g>
    </g>
    <g id="text_7">
     <!-- axialRotation -->
     <g transform="translate(180.024844 316.494812)scale(0.1 -0.1)">
      <defs>
       <path id="DejaVuSans-61" d="M 2194 1759 
Q 1497 1759 1228 1600 
Q 959 1441 959 1056 
Q 959 750 1161 570 
Q 1363 391 1709 391 
Q 2188 391 2477 730 
Q 2766 1069 2766 1631 
L 2766 1759 
L 2194 1759 
z
M 3341 1997 
L 3341 0 
L 2766 0 
L 2766 531 
Q 2569 213 2275 61 
Q 1981 -91 1556 -91 
Q 1019 -91 701 211 
Q 384 513 384 1019 
Q 384 1609 779 1909 
Q 1175 2209 1959 2209 
L 2766 2209 
L 2766 2266 
Q 2766 2663 2505 2880 
Q 2244 3097 1772 3097 
Q 1472 3097 1187 3025 
Q 903 2953 641 2809 
L 641 3341 
Q 956 3463 1253 3523 
Q 1550 3584 1831 3584 
Q 2591 3584 2966 3190 
Q 3341 2797 3341 1997 
z
" transform="scale(0.015625)"/>
       <path id="DejaVuSans-78" d="M 3513 3500 
L 2247 1797 
L 3578 0 
L 2900 0 
L 1881 1375 
L 863 0 
L 184 0 
L 1544 1831 
L 300 3500 
L 978 3500 
L 1906 2253 
L 2834 3500 
L 3513 3500 
z
" transform="scale(0.015625)"/>
       <path id="DejaVuSans-69" d="M 603 3500 
L 1178 3500 
L 1178 0 
L 603 0 
L 603 3500 
z
M 603 4863 
L 1178 4863 
L 1178 4134 
L 603 4134 
L 603 4863 
z
" transform="scale(0.015625)"/>
       <path id="DejaVuSans-6c" d="M 603 4863 
L 1178 4863 
L 1178 0 
L 603 0 
L 603 4863 
z
" transform="scale(0.015625)"/>
       <path id="DejaVuSans-52" d="M 2841 2188 
Q 3044 2119 3236 1894 
Q 3428 1669 3622 1275 
L 4263 0 
L 3584 0 
L 2988 1197 
Q 2756 1666 2539 1819 
Q 2322 1972 1947 1972 
L 1259 1972 
L 1259 0 
L 628 0 
L 628 4666 
L 2053 4666 
Q 2853 4666 3247 4331 
Q 3641 3997 3641 3322 
Q 3641 2881 3436 2590 
Q 3231 2300 2841 2188 
z
M 1259 4147 
L 1259 2491 
L 2053 2491 
Q 2509 2491 2742 2702 
Q 2975 2913 2975 3322 
Q 2975 3731 2742 3939 
Q 2509 4147 2053 4147 
L 1259 4147 
z
" transform="scale(0.015625)"/>
       <path id="DejaVuSans-6f" d="M 1959 3097 
Q 1497 3097 1228 2736 
Q 959 2375 959 1747 
Q 959 1119 1226 758 
Q 1494 397 1959 397 
Q 2419 397 2687 759 
Q 2956 1122 2956 1747 
Q 2956 2369 2687 2733 
Q 2419 3097 1959 3097 
z
M 1959 3584 
Q 2709 3584 3137 3096 
Q 3566 2609 3566 1747 
Q 3566 888 3137 398 
Q 2709 -91 1959 -91 
Q 1206 -91 779 398 
Q 353 888 353 1747 
Q 353 2609 779 3096 
Q 1206 3584 1959 3584 
z
" transform="scale(0.015625)"/>
       <path id="DejaVuSans-74" d="M 1172 4494 
L 1172 3500 
L 2356 3500 
L 2356 3053 
L 1172 3053 
L 1172 1153 
Q 1172 725 1289 603 
Q 1406 481 1766 481 
L 2356 481 
L 2356 0 
L 1766 0 
Q 1100 0 847 248 
Q 594 497 594 1153 
L 594 3053 
L 172 3053 
L 172 3500 
L 594 3500 
L 594 4494 
L 1172 4494 
z
" transform="scale(0.015625)"/>
       <path id="DejaVuSans-6e" d="M 3513 2113 
L 3513 0 
L 2938 0 
L 2938 2094 
Q 2938 2591 2744 2837 
Q 2550 3084 2163 3084 
Q 1697 3084 1428 2787 
Q 1159 2491 1159 1978 
L 1159 0 
L 581 0 
L 581 3500 
L 1159 3500 
L 1159 2956 
Q 1366 3272 1645 3428 
Q 1925 3584 2291 3584 
Q 2894 3584 3203 3211 
Q 3513 2838 3513 2113 
z
" transform="scale(0.015625)"/>
      </defs>
      <use xlink:href="#DejaVuSans-61"/>
      <use xlink:href="#DejaVuSans-78" x="61.279297"/>
      <use xlink:href="#DejaVuSans-69" x="120.458984"/>
      <use xlink:href="#DejaVuSans-61" x="148.242188"/>
      <use xlink:href="#DejaVuSans-6c" x="209.521484"/>
      <use xlink:href="#DejaVuSans-52" x="237.304688"/>
      <use xlink:href="#DejaVuSans-6f" x="302.287109"/>
      <use xlink:href="#DejaVuSans-74" x="363.46875"/>
      <use xlink:href="#DejaVuSans-61" x="402.677734"/>
      <use xlink:href="#DejaVuSans-74" x="463.957031"/>
      <use xlink:href="#DejaVuSans-69" x="503.166016"/>
      <use xlink:href="#DejaVuSans-6f" x="530.949219"/>
      <use xlink:href="#DejaVuSans-6e" x="592.130859"/>
     </g>
    </g>
   </g>
   <g id="matplotlib.axis_2">
    <g id="ytick_1">
     <g id="line2d_7">
      <defs>
       <path id="m4160157739" d="M 0 0 
L -3.5 0 
" style="stroke: #000000; stroke-width: 0.8"/>
      </defs>
      <g>
       <use xlink:href="#m4160157739" x="34.240625" y="288.21825" style="stroke: #000000; stroke-width: 0.8"/>
      </g>
     </g>
     <g id="text_8">
      <!-- 0 -->
      <g transform="translate(20.878125 292.017469)scale(0.1 -0.1)">
       <use xlink:href="#DejaVuSans-30"/>
      </g>
     </g>
    </g>
    <g id="ytick_2">
     <g id="line2d_8">
      <g>
       <use xlink:href="#m4160157739" x="34.240625" y="243.86625" style="stroke: #000000; stroke-width: 0.8"/>
      </g>
     </g>
     <g id="text_9">
      <!-- 1 -->
      <g transform="translate(20.878125 247.665469)scale(0.1 -0.1)">
       <use xlink:href="#DejaVuSans-31"/>
      </g>
     </g>
    </g>
    <g id="ytick_3">
     <g id="line2d_9">
      <g>
       <use xlink:href="#m4160157739" x="34.240625" y="199.51425" style="stroke: #000000; stroke-width: 0.8"/>
      </g>
     </g>
     <g id="text_10">
      <!-- 2 -->
      <g transform="translate(20.878125 203.313469)scale(0.1 -0.1)">
       <use xlink:href="#DejaVuSans-32"/>
      </g>
     </g>
    </g>
    <g id="ytick_4">
     <g id="line2d_10">
      <g>
       <use xlink:href="#m4160157739" x="34.240625" y="155.16225" style="stroke: #000000; stroke-width: 0.8"/>
      </g>
     </g>
     <g id="text_11">
      <!-- 3 -->
      <g transform="translate(20.878125 158.961469)scale(0.1 -0.1)">
       <defs>
        <path id="DejaVuSans-33" d="M 2597 2516 
Q 3050 2419 3304 2112 
Q 3559 1806 3559 1356 
Q 3559 666 3084 287 
Q 2609 -91 1734 -91 
Q 1441 -91 1130 -33 
Q 819 25 488 141 
L 488 750 
Q 750 597 1062 519 
Q 1375 441 1716 441 
Q 2309 441 2620 675 
Q 2931 909 2931 1356 
Q 2931 1769 2642 2001 
Q 2353 2234 1838 2234 
L 1294 2234 
L 1294 2753 
L 1863 2753 
Q 2328 2753 2575 2939 
Q 2822 3125 2822 3475 
Q 2822 3834 2567 4026 
Q 2313 4219 1838 4219 
Q 1578 4219 1281 4162 
Q 984 4106 628 3988 
L 628 4550 
Q 988 4650 1302 4700 
Q 1616 4750 1894 4750 
Q 2613 4750 3031 4423 
Q 3450 4097 3450 3541 
Q 3450 3153 3228 2886 
Q 3006 2619 2597 2516 
z
" transform="scale(0.015625)"/>
       </defs>
       <use xlink:href="#DejaVuSans-33"/>
      </g>
     </g>
    </g>
    <g id="ytick_5">
     <g id="line2d_11">
      <g>
       <use xlink:href="#m4160157739" x="34.240625" y="110.81025" style="stroke: #000000; stroke-width: 0.8"/>
      </g>
     </g>
     <g id="text_12">
      <!-- 4 -->
      <g transform="translate(20.878125 114.609469)scale(0.1 -0.1)">
       <use xlink:href="#DejaVuSans-34"/>
      </g>
     </g>
    </g>
    <g id="ytick_6">
     <g id="line2d_12">
      <g>
       <use xlink:href="#m4160157739" x="34.240625" y="66.45825" style="stroke: #000000; stroke-width: 0.8"/>
      </g>
     </g>
     <g id="text_13">
      <!-- 5 -->
      <g transform="translate(20.878125 70.257469)scale(0.1 -0.1)">
       <defs>
        <path id="DejaVuSans-35" d="M 691 4666 
L 3169 4666 
L 3169 4134 
L 1269 4134 
L 1269 2991 
Q 1406 3038 1543 3061 
Q 1681 3084 1819 3084 
Q 2600 3084 3056 2656 
Q 3513 2228 3513 1497 
Q 3513 744 3044 326 
Q 2575 -91 1722 -91 
Q 1428 -91 1123 -41 
Q 819 9 494 109 
L 494 744 
Q 775 591 1075 516 
Q 1375 441 1709 441 
Q 2250 441 2565 725 
Q 2881 1009 2881 1497 
Q 2881 1984 2565 2268 
Q 2250 2553 1709 2553 
Q 1456 2553 1204 2497 
Q 953 2441 691 2322 
L 691 4666 
z
" transform="scale(0.015625)"/>
       </defs>
       <use xlink:href="#DejaVuSans-35"/>
      </g>
     </g>
    </g>
    <g id="ytick_7">
     <g id="line2d_13">
      <g>
       <use xlink:href="#m4160157739" x="34.240625" y="22.10625" style="stroke: #000000; stroke-width: 0.8"/>
      </g>
     </g>
     <g id="text_14">
      <!-- 6 -->
      <g transform="translate(20.878125 25.905469)scale(0.1 -0.1)">
       <use xlink:href="#DejaVuSans-36"/>
      </g>
     </g>
    </g>
    <g id="text_15">
     <!-- zShift -->
     <g transform="translate(14.798438 169.151312)rotate(-90)scale(0.1 -0.1)">
      <defs>
       <path id="DejaVuSans-7a" d="M 353 3500 
L 3084 3500 
L 3084 2975 
L 922 459 
L 3084 459 
L 3084 0 
L 275 0 
L 275 525 
L 2438 3041 
L 353 3041 
L 353 3500 
z
" transform="scale(0.015625)"/>
       <path id="DejaVuSans-53" d="M 3425 4513 
L 3425 3897 
Q 3066 4069 2747 4153 
Q 2428 4238 2131 4238 
Q 1616 4238 1336 4038 
Q 1056 3838 1056 3469 
Q 1056 3159 1242 3001 
Q 1428 2844 1947 2747 
L 2328 2669 
Q 3034 2534 3370 2195 
Q 3706 1856 3706 1288 
Q 3706 609 3251 259 
Q 2797 -91 1919 -91 
Q 1588 -91 1214 -16 
Q 841 59 441 206 
L 441 856 
Q 825 641 1194 531 
Q 1563 422 1919 422 
Q 2459 422 2753 634 
Q 3047 847 3047 1241 
Q 3047 1584 2836 1778 
Q 2625 1972 2144 2069 
L 1759 2144 
Q 1053 2284 737 2584 
Q 422 2884 422 3419 
Q 422 4038 858 4394 
Q 1294 4750 2059 4750 
Q 2388 4750 2728 4690 
Q 3069 4631 3425 4513 
z
" transform="scale(0.015625)"/>
       <path id="DejaVuSans-68" d="M 3513 2113 
L 3513 0 
L 2938 0 
L 2938 2094 
Q 2938 2591 2744 2837 
Q 2550 3084 2163 3084 
Q 1697 3084 1428 2787 
Q 1159 2491 1159 1978 
L 1159 0 
L 581 0 
L 581 4863 
L 1159 4863 
L 1159 2956 
Q 1366 3272 1645 3428 
Q 1925 3584 2291 3584 
Q 2894 3584 3203 3211 
Q 3513 2838 3513 2113 
z
" transform="scale(0.015625)"/>
       <path id="DejaVuSans-66" d="M 2375 4863 
L 2375 4384 
L 1825 4384 
Q 1516 4384 1395 4259 
Q 1275 4134 1275 3809 
L 1275 3500 
L 2222 3500 
L 2222 3053 
L 1275 3053 
L 1275 0 
L 697 0 
L 697 3053 
L 147 3053 
L 147 3500 
L 697 3500 
L 697 3744 
Q 697 4328 969 4595 
Q 1241 4863 1831 4863 
L 2375 4863 
z
" transform="scale(0.015625)"/>
      </defs>
      <use xlink:href="#DejaVuSans-7a"/>
      <use xlink:href="#DejaVuSans-53" x="52.490234"/>
      <use xlink:href="#DejaVuSans-68" x="115.966797"/>
      <use xlink:href="#DejaVuSans-69" x="179.345703"/>
      <use xlink:href="#DejaVuSans-66" x="207.128906"/>
      <use xlink:href="#DejaVuSans-74" x="240.583984"/>
     </g>
    </g>
   </g>
   <g id="PathCollection_1"/>
   <g id="PathCollection_2">
    <path d="M 34.240625 63.544197 
L 36.026225 63.152573 
L 37.847537 62.829003 
L 39.633137 62.575011 
L 40.588364 62.46657 
L 41.418737 62.355009 
L 43.204337 62.168284 
L 45.025649 62.029421 
L 46.811249 61.938947 
L 48.596849 61.890202 
L 50.382449 61.880945 
L 52.203761 61.910979 
L 53.989361 61.978913 
L 55.774961 62.08556 
L 57.560561 62.232164 
L 59.381873 62.424607 
L 59.709682 62.46657 
L 61.167473 62.621767 
L 62.953073 62.847401 
L 64.738673 63.109845 
L 66.559985 63.414878 
L 68.345585 63.748073 
L 70.131185 64.109832 
L 71.916785 64.491024 
L 73.738097 64.885004 
L 74.926078 65.12769 
L 75.523697 65.233682 
L 77.309297 65.504256 
L 79.094897 65.708357 
L 80.916209 65.812562 
L 82.701809 65.774837 
L 84.487409 65.561104 
L 86.273009 65.137849 
L 86.300849 65.12769 
L 88.094321 64.327732 
L 89.879921 63.224826 
L 90.836615 62.46657 
L 91.665521 61.651832 
L 93.20299 59.80545 
L 93.451121 59.42674 
L 94.709022 57.14433 
L 95.272433 55.809121 
L 95.751548 54.48321 
L 96.465688 51.82209 
L 96.982944 49.16097 
L 97.058033 48.618117 
L 97.31249 46.49985 
L 97.573337 43.39521 
L 97.739376 40.73409 
L 97.882617 38.07297 
L 98.028037 35.41185 
L 98.198725 32.75073 
L 98.41784 30.08961 
L 98.710727 27.42849 
L 98.843633 26.511685 
L 99.075777 24.76737 
L 99.549368 22.10625 
" clip-path="url(#pa4840a7cae)" style="fill: none; stroke: #deebf7; stroke-width: 1.5"/>
    <path d="M 100.86654 288.21825 
L 100.629233 287.287317 
L 100.163152 285.55713 
L 99.634505 282.89601 
L 99.274127 280.23489 
L 99.057178 277.57377 
L 98.968935 274.91265 
L 99.00348 272.25153 
L 99.163111 269.59041 
L 99.458237 266.92929 
L 99.999351 263.82465 
L 100.629233 261.295995 
L 100.660485 261.16353 
L 101.450697 258.50241 
L 102.450545 255.913116 
L 102.477762 255.84129 
L 103.652288 253.18017 
L 104.236145 252.045098 
L 105.0226 250.51905 
L 106.021745 248.762489 
L 106.537407 247.85793 
L 107.807345 245.724972 
L 108.118736 245.19681 
L 109.628657 242.613358 
L 109.672698 242.53569 
L 111.065588 239.87457 
L 111.414257 239.135966 
L 112.256394 237.21345 
L 113.199857 234.703242 
L 113.251429 234.55233 
L 113.970756 231.89121 
L 114.527546 229.23009 
L 114.938944 226.56897 
L 114.985457 226.139852 
L 115.197079 223.90785 
L 115.387368 220.80321 
L 115.485207 218.14209 
L 115.539414 215.48097 
L 115.560179 212.81985 
L 115.552514 210.15873 
L 115.516566 207.49761 
L 115.447714 204.83649 
L 115.336274 202.17537 
L 115.1668 199.51425 
L 114.985457 197.578055 
L 114.90516 196.85313 
L 114.481112 194.19201 
L 113.882453 191.53089 
L 113.199857 189.321348 
L 113.027595 188.86977 
L 111.670384 186.20865 
L 111.414257 185.821495 
L 109.628657 183.778597 
L 109.330872 183.54753 
L 107.807345 182.610935 
L 106.021745 182.029726 
L 104.236145 181.928941 
L 102.450545 182.255157 
L 100.629233 182.95792 
L 99.573126 183.54753 
L 98.843633 184.001587 
L 97.058033 185.373951 
L 96.102555 186.20865 
L 95.272433 186.987928 
L 93.451121 188.81731 
L 93.402578 188.86977 
L 91.665521 190.818622 
L 91.039428 191.53089 
L 89.879921 192.880995 
L 88.749981 194.19201 
L 88.094321 194.966085 
L 86.475254 196.85313 
L 86.273009 197.092946 
L 84.487409 199.207193 
L 84.22608 199.51425 
L 82.701809 201.352358 
L 82.00849 202.17537 
L 80.916209 203.513562 
L 79.823847 204.83649 
L 79.094897 205.746553 
L 77.677092 207.49761 
L 77.309297 207.964535 
L 75.554892 210.15873 
L 75.523697 210.19851 
L 73.738097 212.465503 
L 73.453095 212.81985 
L 71.916785 214.742933 
L 71.308719 215.48097 
L 70.131185 216.921436 
L 69.094205 218.14209 
L 68.345585 219.034541 
L 66.797505 220.80321 
L 66.559985 221.083291 
L 64.738673 223.171171 
L 64.061406 223.90785 
L 62.953073 225.163491 
L 61.650082 226.56897 
L 61.167473 227.107023 
L 59.381873 229.007294 
L 59.164139 229.23009 
L 57.560561 230.912886 
L 56.546504 231.89121 
L 55.774961 232.651667 
L 53.989361 234.250649 
L 53.620507 234.55233 
L 52.203761 235.732662 
L 50.382449 237.024476 
L 50.079496 237.21345 
L 48.596849 238.166995 
L 46.811249 239.109368 
L 45.025649 239.857655 
L 44.975588 239.87457 
L 43.204337 240.514705 
L 41.418737 240.983509 
L 39.633137 241.292513 
L 37.847537 241.452276 
L 36.026225 241.467362 
L 34.240625 241.338075 
" clip-path="url(#pa4840a7cae)" style="fill: none; stroke: #deebf7; stroke-width: 1.5"/>
    <path d="M 324.811981 22.10625 
L 324.972017 22.697338 
L 325.561612 24.76737 
L 326.142324 27.42849 
L 326.577103 30.08961 
L 326.757617 31.557579 
L 326.919526 32.75073 
L 327.18864 35.41185 
L 327.382324 38.07297 
L 327.519066 40.73409 
L 327.613339 43.39521 
L 327.684586 46.49985 
L 327.722362 49.16097 
L 327.7457 51.82209 
L 327.759689 54.48321 
L 327.768066 57.14433 
L 327.77335 59.80545 
L 327.777028 62.46657 
L 327.779849 65.12769 
L 327.782248 67.78881 
L 327.784793 70.44993 
L 327.788587 73.11105 
L 327.795574 75.77217 
L 327.808789 78.43329 
L 327.832648 81.09441 
L 327.873408 83.75553 
L 327.93982 86.41665 
L 328.065883 89.52129 
L 328.233795 92.18241 
L 328.47737 94.84353 
L 328.543217 95.352125 
L 328.856933 97.50465 
L 329.374604 100.16577 
L 330.032247 102.82689 
L 330.328817 103.792522 
L 330.897914 105.48801 
L 331.930325 108.14913 
L 332.150129 108.646613 
L 333.162342 110.81025 
L 333.935729 112.369247 
L 334.504832 113.47137 
L 335.721329 115.792162 
L 335.904647 116.13249 
L 337.317305 118.79361 
L 337.506929 119.169084 
L 338.682175 121.45473 
L 339.328241 122.856909 
L 339.921908 124.11585 
L 341.009841 126.77697 
L 341.113841 127.069436 
L 341.990983 129.43809 
L 342.781693 132.09921 
L 342.899441 132.584504 
L 343.573385 135.20385 
L 344.096726 137.86497 
L 344.496059 140.52609 
L 344.685041 142.181595 
L 344.812825 143.18721 
L 345.067422 145.84833 
L 345.252215 148.50945 
L 345.383626 151.17057 
L 345.474813 153.83169 
L 345.536219 156.49281 
L 345.576101 159.15393 
L 345.600976 161.81505 
L 345.615931 164.47617 
L 345.62479 167.13729 
L 345.630206 169.79841 
L 345.633768 172.45953 
L 345.636212 175.12065 
L 345.637908 178.22529 
L 345.638396 180.88641 
L 345.63814 183.54753 
L 345.63749 186.20865 
L 345.636908 188.86977 
L 345.636761 191.53089 
L 345.637154 194.19201 
L 345.637885 196.85313 
L 345.638563 199.51425 
L 345.638823 202.17537 
L 345.638524 204.83649 
L 345.637828 207.49761 
L 345.637109 210.15873 
L 345.636752 212.81985 
L 345.636936 215.48097 
L 345.637535 218.14209 
L 345.638163 220.80321 
L 345.638323 223.90785 
L 345.637595 226.56897 
L 345.635939 229.23009 
L 345.633317 231.89121 
L 345.629467 234.55233 
L 345.623552 237.21345 
L 345.613838 239.87457 
L 345.59748 242.53569 
L 345.570405 245.19681 
L 345.527187 247.85793 
L 345.460826 250.51905 
L 345.362353 253.18017 
L 345.220256 255.84129 
L 345.019761 258.50241 
L 344.741998 261.16353 
L 344.685041 261.576723 
L 344.402743 263.82465 
L 343.86752 266.92929 
L 343.24376 269.59041 
L 342.899441 270.756411 
L 342.475927 272.25153 
L 341.525442 274.91265 
L 341.113841 275.866835 
L 340.381794 277.57377 
L 339.328241 279.623496 
L 339.010312 280.23489 
L 337.506929 282.758467 
L 337.422982 282.89601 
L 335.721329 285.445892 
L 335.644742 285.55713 
L 333.935729 287.91463 
L 333.708498 288.21825 
" clip-path="url(#pa4840a7cae)" style="fill: none; stroke: #deebf7; stroke-width: 1.5"/>
   </g>
   <g id="PathCollection_3">
    <path d="M 34.240625 71.39224 
L 36.026225 70.817691 
L 37.42167 70.44993 
L 37.847537 70.332381 
L 39.633137 69.922668 
L 41.418737 69.596932 
L 43.204337 69.343912 
L 45.025649 69.151562 
L 46.811249 69.020509 
L 48.596849 68.94135 
L 50.382449 68.910611 
L 52.203761 68.926948 
L 53.989361 68.988782 
L 55.774961 69.096069 
L 57.560561 69.24972 
L 59.381873 69.455771 
L 61.167473 69.708002 
L 62.953073 70.011773 
L 64.738673 70.368417 
L 65.101768 70.44993 
L 66.559985 70.751453 
L 68.345585 71.163468 
L 70.131185 71.615476 
L 71.916785 72.09985 
L 73.738097 72.614816 
L 75.484674 73.11105 
L 75.523697 73.121533 
L 77.309297 73.563624 
L 79.094897 73.958196 
L 80.916209 74.280157 
L 82.701809 74.483246 
L 84.487409 74.541529 
L 86.273009 74.424966 
L 88.094321 74.101165 
L 89.879921 73.566857 
L 90.960743 73.11105 
L 91.665521 72.779349 
L 93.451121 71.702402 
L 95.153816 70.44993 
L 95.272433 70.351043 
L 97.058033 68.610603 
L 97.796465 67.78881 
L 98.843633 66.434145 
L 99.741771 65.12769 
L 100.629233 63.578124 
L 101.200522 62.46657 
L 102.30033 59.80545 
L 102.450545 59.340369 
L 103.092119 57.14433 
L 103.678427 54.48321 
L 104.109702 51.82209 
L 104.236145 50.747473 
L 104.407336 49.16097 
L 104.616849 46.49985 
L 104.801058 43.39521 
L 104.936761 40.73409 
L 105.076756 38.07297 
L 105.243623 35.41185 
L 105.460833 32.75073 
L 105.754724 30.08961 
L 106.021745 28.301982 
L 106.147809 27.42849 
L 106.661295 24.76737 
L 107.360452 22.10625 
" clip-path="url(#pa4840a7cae)" style="fill: none; stroke: #c6dbef; stroke-width: 1.5"/>
    <path d="M 108.694086 288.21825 
L 107.815499 285.55713 
L 107.807345 285.524233 
L 107.146161 282.89601 
L 106.695032 280.23489 
L 106.431768 277.57377 
L 106.338194 274.91265 
L 106.407067 272.25153 
L 106.641028 269.59041 
L 107.05188 266.92929 
L 107.782256 263.82465 
L 107.807345 263.743777 
L 108.601322 261.16353 
L 109.628657 258.574156 
L 109.657331 258.50241 
L 110.899165 255.84129 
L 111.414257 254.875897 
L 112.331216 253.18017 
L 113.199857 251.692581 
L 113.888955 250.51905 
L 114.985457 248.689267 
L 115.478125 247.85793 
L 116.806769 245.539018 
L 116.99677 245.19681 
L 118.342785 242.53569 
L 118.592369 241.974002 
L 119.467694 239.87457 
L 120.377969 237.265793 
L 120.394951 237.21345 
L 121.080634 234.55233 
L 121.606034 231.89121 
L 121.994189 229.23009 
L 122.163569 227.601451 
L 122.262316 226.56897 
L 122.437205 223.90785 
L 122.567972 220.80321 
L 122.636117 218.14209 
L 122.676127 215.48097 
L 122.695293 212.81985 
L 122.697139 210.15873 
L 122.681916 207.49761 
L 122.646838 204.83649 
L 122.58592 202.17537 
L 122.489458 199.51425 
L 122.343376 196.85313 
L 122.163569 194.62299 
L 122.12558 194.19201 
L 121.790826 191.53089 
L 121.326108 188.86977 
L 120.699835 186.20865 
L 120.377969 185.161617 
L 119.828068 183.54753 
L 118.681704 180.88641 
L 118.592369 180.717351 
L 117.110373 178.22529 
L 116.806769 177.801427 
L 114.985457 175.593235 
L 114.521991 175.12065 
L 113.199857 173.96227 
L 111.414257 172.70309 
L 110.95044 172.45953 
L 109.628657 171.839869 
L 107.807345 171.290903 
L 106.021745 171.056214 
L 104.236145 171.118622 
L 102.450545 171.465058 
L 100.629233 172.088493 
L 99.853675 172.45953 
L 98.843633 172.980893 
L 97.058033 174.120079 
L 95.704475 175.12065 
L 95.272433 175.466061 
L 93.451121 177.09074 
L 92.266861 178.22529 
L 91.665521 178.839953 
L 89.879921 180.758343 
L 89.766227 180.88641 
L 88.094321 182.839116 
L 87.49894 183.54753 
L 86.273009 185.0362 
L 85.310755 186.20865 
L 84.487409 187.221041 
L 83.134596 188.86977 
L 82.701809 189.399103 
L 80.931499 191.53089 
L 80.916209 191.549404 
L 79.094897 193.746863 
L 78.720659 194.19201 
L 77.309297 195.893764 
L 76.504416 196.85313 
L 75.523697 198.047524 
L 74.310154 199.51425 
L 73.738097 200.223256 
L 72.153853 202.17537 
L 71.916785 202.473786 
L 70.131185 204.708915 
L 70.028881 204.83649 
L 68.345585 206.957211 
L 67.908359 207.49761 
L 66.559985 209.167413 
L 65.736639 210.15873 
L 64.738673 211.356753 
L 63.474563 212.81985 
L 62.953073 213.424058 
L 61.167473 215.410292 
L 61.102085 215.48097 
L 59.381873 217.359423 
L 58.62888 218.14209 
L 57.560561 219.273079 
L 56.034029 220.80321 
L 55.774961 221.071196 
L 53.989361 222.832031 
L 52.807777 223.90785 
L 52.203761 224.473133 
L 50.382449 226.040461 
L 49.701744 226.56897 
L 48.596849 227.437356 
L 46.811249 228.656799 
L 45.820809 229.23009 
L 45.025649 229.693914 
L 43.204337 230.555967 
L 41.418737 231.190138 
L 39.633137 231.621991 
L 37.847537 231.854461 
L 36.026225 231.885226 
L 34.240625 231.70773 
" clip-path="url(#pa4840a7cae)" style="fill: none; stroke: #c6dbef; stroke-width: 1.5"/>
    <path d="M 317.02311 22.10625 
L 317.793905 24.292971 
L 317.960286 24.76737 
L 318.704252 27.42849 
L 319.260993 30.08961 
L 319.579505 32.13104 
L 319.680331 32.75073 
L 320.004053 35.41185 
L 320.23635 38.07297 
L 320.399695 40.73409 
L 320.511712 43.39521 
L 320.595757 46.49985 
L 320.639932 49.16097 
L 320.66702 51.82209 
L 320.683195 54.48321 
L 320.692922 57.14433 
L 320.699119 59.80545 
L 320.703418 62.46657 
L 320.706565 65.12769 
L 320.70894 67.78881 
L 320.71108 70.44993 
L 320.714062 73.11105 
L 320.719733 75.77217 
L 320.730814 78.43329 
L 320.751041 81.09441 
L 320.7855 83.75553 
L 320.841217 86.41665 
L 320.946253 89.52129 
L 321.085935 92.18241 
L 321.289547 94.84353 
L 321.365105 95.54019 
L 321.594608 97.50465 
L 322.017897 100.16577 
L 322.572503 102.82689 
L 323.150705 105.020654 
L 323.282282 105.48801 
L 324.194709 108.14913 
L 324.972017 110.103021 
L 325.267821 110.81025 
L 326.510471 113.47137 
L 326.757617 113.96066 
L 327.884371 116.13249 
L 328.543217 117.369702 
L 329.313755 118.79361 
L 330.328817 120.703806 
L 330.731462 121.45473 
L 332.073993 124.11585 
L 332.150129 124.279409 
L 333.317933 126.77697 
L 333.935729 128.300137 
L 334.402054 129.43809 
L 335.327844 132.09921 
L 335.721329 133.49061 
L 336.215395 135.20385 
L 336.820042 137.86497 
L 337.286362 140.52609 
L 337.506929 142.173199 
L 337.65044 143.18721 
L 337.933757 145.84833 
L 338.139563 148.50945 
L 338.285707 151.17057 
L 338.386729 153.83169 
L 338.454323 156.49281 
L 338.497832 159.15393 
L 338.524688 161.81505 
L 338.540701 164.47617 
L 338.550201 167.13729 
L 338.556113 169.79841 
L 338.560102 172.45953 
L 338.562854 175.12065 
L 338.564661 178.22529 
L 338.56502 180.88641 
L 338.564517 183.54753 
L 338.563644 186.20865 
L 338.562985 188.86977 
L 338.562951 191.53089 
L 338.563586 194.19201 
L 338.564557 196.85313 
L 338.565342 199.51425 
L 338.565518 202.17537 
L 338.56499 204.83649 
L 338.564043 207.49761 
L 338.563186 210.15873 
L 338.562875 212.81985 
L 338.563259 215.48097 
L 338.564088 218.14209 
L 338.564825 220.80321 
L 338.56481 223.90785 
L 338.563636 226.56897 
L 338.561281 229.23009 
L 338.557686 231.89121 
L 338.552423 234.55233 
L 338.544238 237.21345 
L 338.530686 239.87457 
L 338.507899 242.53569 
L 338.470462 245.19681 
L 338.411274 247.85793 
L 338.321256 250.51905 
L 338.188861 253.18017 
L 337.999393 255.84129 
L 337.734226 258.50241 
L 337.506929 260.180989 
L 337.379711 261.16353 
L 336.922879 263.82465 
L 336.197287 266.92929 
L 335.721329 268.490635 
L 335.387908 269.59041 
L 334.385031 272.25153 
L 333.935729 273.240491 
L 333.161697 274.91265 
L 332.150129 276.772457 
L 331.701803 277.57377 
L 330.328817 279.756244 
L 330.017916 280.23489 
L 328.543217 282.341849 
L 328.143175 282.89601 
L 326.757617 284.73724 
L 326.123774 285.55713 
L 324.972017 287.019892 
L 324.005261 288.21825 
" clip-path="url(#pa4840a7cae)" style="fill: none; stroke: #c6dbef; stroke-width: 1.5"/>
   </g>
   <g id="PathCollection_4">
    <path d="M 34.240625 77.759264 
L 36.026225 76.919425 
L 37.847537 76.223907 
L 39.306741 75.77217 
L 39.633137 75.673041 
L 41.418737 75.226724 
L 43.204337 74.877341 
L 45.025649 74.607984 
L 46.811249 74.419421 
L 48.596849 74.298298 
L 50.382449 74.239381 
L 52.203761 74.239773 
L 53.989361 74.297479 
L 55.774961 74.411267 
L 57.560561 74.581488 
L 59.381873 74.814377 
L 61.167473 75.102309 
L 62.953073 75.450757 
L 64.359066 75.77217 
L 64.738673 75.856972 
L 66.559985 76.3162 
L 68.345585 76.820326 
L 70.131185 77.372523 
L 71.916785 77.964175 
L 73.281678 78.43329 
L 73.738097 78.589632 
L 75.523697 79.19235 
L 77.309297 79.775587 
L 79.094897 80.313111 
L 80.916209 80.783455 
L 82.496325 81.09441 
L 82.701809 81.13457 
L 84.487409 81.340133 
L 86.273009 81.382937 
L 88.094321 81.236325 
L 88.833154 81.09441 
L 89.879921 80.882223 
L 91.665521 80.306255 
L 93.451121 79.513048 
L 95.272433 78.485051 
L 95.349423 78.43329 
L 97.058033 77.218288 
L 98.818234 75.77217 
L 98.843633 75.749699 
L 100.629233 73.983945 
L 101.426874 73.11105 
L 102.450545 71.87132 
L 103.52217 70.44993 
L 104.236145 69.367097 
L 105.193447 67.78881 
L 106.021745 66.167567 
L 106.513855 65.12769 
L 107.537818 62.46657 
L 107.807345 61.580775 
L 108.312729 59.80545 
L 108.892011 57.14433 
L 109.322801 54.48321 
L 109.628657 51.902948 
L 109.637791 51.82209 
L 109.859472 49.16097 
L 110.027375 46.49985 
L 110.189299 43.39521 
L 110.326202 40.73409 
L 110.48587 38.07297 
L 110.692532 35.41185 
L 110.973341 32.75073 
L 111.360626 30.08961 
L 111.414257 29.813505 
L 111.883413 27.42849 
L 112.599217 24.76737 
L 113.199857 23.091471 
L 113.57283 22.10625 
" clip-path="url(#pa4840a7cae)" style="fill: none; stroke: #9dcae1; stroke-width: 1.5"/>
    <path d="M 114.950885 288.21825 
L 113.798063 285.55713 
L 112.969422 282.89601 
L 112.408271 280.23489 
L 112.085898 277.57377 
L 111.979158 274.91265 
L 112.077715 272.25153 
L 112.382138 269.59041 
L 113.199857 265.872086 
L 113.787759 263.82465 
L 114.985457 260.757493 
L 116.806769 257.056354 
L 119.028683 253.18017 
L 122.163569 247.794581 
L 123.984881 244.019659 
L 124.604248 242.53569 
L 125.770481 239.005746 
L 126.24463 237.21345 
L 126.787928 234.55233 
L 127.192639 231.89121 
L 127.684124 226.56897 
L 127.916019 220.80321 
L 128.014154 210.15873 
L 127.925498 202.17537 
L 127.731271 196.85313 
L 127.300983 191.53089 
L 126.940999 188.86977 
L 126.452114 186.20865 
L 125.770481 183.431427 
L 124.938744 180.88641 
L 123.846965 178.22529 
L 122.163569 175.065774 
L 120.377969 172.435188 
L 118.117809 169.79841 
L 116.806769 168.519877 
L 114.985457 166.979755 
L 113.199857 165.775274 
L 110.61662 164.47617 
L 109.628657 164.091171 
L 107.807345 163.63238 
L 106.021745 163.434812 
L 104.236145 163.489299 
L 102.450545 163.792747 
L 100.336793 164.47617 
L 98.843633 165.146103 
L 97.058033 166.153932 
L 95.272433 167.354123 
L 92.272214 169.79841 
L 89.879921 172.057566 
L 87.016636 175.12065 
L 84.362549 178.22529 
L 71.268493 194.19201 
L 59.381873 208.524326 
L 55.265805 212.81985 
L 52.203761 215.705248 
L 48.596849 218.70459 
L 45.507589 220.80321 
L 45.025649 221.107867 
L 43.204337 222.053635 
L 41.418737 222.759057 
L 39.633137 223.230217 
L 37.847537 223.448518 
L 36.026225 223.387052 
L 34.240625 223.020163 
L 34.240625 223.020163 
" clip-path="url(#pa4840a7cae)" style="fill: none; stroke: #9dcae1; stroke-width: 1.5"/>
    <path d="M 310.809382 22.10625 
L 312.030073 24.76737 
L 312.401393 25.806823 
L 312.960912 27.42849 
L 313.661816 30.08961 
L 314.180411 32.75073 
L 314.186993 32.796059 
L 314.569162 35.41185 
L 314.847707 38.07297 
L 315.043031 40.73409 
L 315.176481 43.39521 
L 315.2761 46.49985 
L 315.328152 49.16097 
L 315.359919 51.82209 
L 315.378859 54.48321 
L 315.390298 57.14433 
L 315.397639 59.80545 
L 315.40271 62.46657 
L 315.406285 65.12769 
L 315.408729 67.78881 
L 315.410593 70.44993 
L 315.413013 73.11105 
L 315.417867 75.77217 
L 315.427765 78.43329 
L 315.446078 81.09441 
L 315.477193 83.75553 
L 315.527085 86.41665 
L 315.620352 89.52129 
L 315.743859 92.18241 
L 315.924011 94.84353 
L 315.972593 95.349703 
L 316.187464 97.50465 
L 316.551948 100.16577 
L 317.037039 102.82689 
L 317.662284 105.48801 
L 317.793905 105.938074 
L 318.465241 108.14913 
L 319.432044 110.81025 
L 319.579505 111.160565 
L 320.582228 113.47137 
L 321.365105 115.098831 
L 321.874591 116.13249 
L 323.150705 118.572693 
L 323.268095 118.79361 
L 324.709201 121.45473 
L 324.972017 121.948568 
L 326.123804 124.11585 
L 326.757617 125.387294 
L 327.446055 126.77697 
L 328.543217 129.247204 
L 328.627478 129.43809 
L 329.658635 132.09921 
L 330.328817 134.20675 
L 330.644415 135.20385 
L 331.321777 137.86497 
L 331.850667 140.52609 
L 332.150129 142.48923 
L 332.258535 143.18721 
L 332.570403 145.84833 
L 332.797484 148.50945 
L 332.958757 151.17057 
L 333.07 153.83169 
L 333.144095 156.49281 
L 333.191457 159.15393 
L 333.220451 161.81505 
L 333.237635 164.47617 
L 333.247862 167.13729 
L 333.254342 169.79841 
L 333.258815 172.45953 
L 333.261911 175.12065 
L 333.26384 178.22529 
L 333.264059 180.88641 
L 333.26329 183.54753 
L 333.26218 186.20865 
L 333.261446 188.86977 
L 333.261541 191.53089 
L 333.26244 194.19201 
L 333.263667 196.85313 
L 333.264562 199.51425 
L 333.264642 202.17537 
L 333.263863 204.83649 
L 333.262646 207.49761 
L 333.261645 210.15873 
L 333.26139 212.81985 
L 333.261993 215.48097 
L 333.26307 218.14209 
L 333.263916 220.80321 
L 333.263697 223.90785 
L 333.262025 226.56897 
L 333.258898 229.23009 
L 333.254232 231.89121 
L 333.247408 234.55233 
L 333.236724 237.21345 
L 333.218962 239.87457 
L 333.189158 242.53569 
L 333.140485 245.19681 
L 333.064095 247.85793 
L 332.948797 250.51905 
L 332.780496 253.18017 
L 332.541484 255.84129 
L 332.209719 258.50241 
L 332.150129 258.861857 
L 331.770227 261.16353 
L 331.186942 263.82465 
L 330.328817 266.758139 
L 330.277496 266.92929 
L 329.283035 269.59041 
L 328.543217 271.209565 
L 328.051003 272.25153 
L 326.757617 274.594435 
L 326.575324 274.91265 
L 324.972017 277.416138 
L 324.867499 277.57377 
L 323.150705 279.979257 
L 322.962934 280.23489 
L 321.365105 282.320109 
L 320.913432 282.89601 
L 319.579505 284.558184 
L 318.759893 285.55713 
L 317.793905 286.715678 
L 316.504688 288.21825 
" clip-path="url(#pa4840a7cae)" style="fill: none; stroke: #9dcae1; stroke-width: 1.5"/>
   </g>
   <g id="PathCollection_5">
    <path d="M 34.240625 84.322548 
L 34.952797 83.75553 
L 36.026225 83.018104 
L 37.847537 81.979606 
L 39.633137 81.158871 
L 39.803276 81.09441 
L 41.418737 80.533155 
L 43.204337 80.04316 
L 45.025649 79.661344 
L 46.811249 79.388519 
L 48.596849 79.205405 
L 50.382449 79.104022 
L 52.203761 79.078947 
L 53.989361 79.127397 
L 55.774961 79.246033 
L 57.560561 79.433964 
L 59.381873 79.696964 
L 61.167473 80.025029 
L 62.953073 80.42282 
L 64.738673 80.889871 
L 65.428097 81.09441 
L 66.559985 81.441007 
L 68.345585 82.044747 
L 70.131185 82.699147 
L 71.916785 83.392936 
L 72.827001 83.75553 
L 73.738097 84.131853 
L 75.523697 84.859733 
L 77.309297 85.559624 
L 79.094897 86.206229 
L 79.766831 86.41665 
L 80.916209 86.786705 
L 82.701809 87.242368 
L 84.487409 87.558643 
L 86.273009 87.714287 
L 88.094321 87.688471 
L 89.879921 87.46704 
L 91.665521 87.040276 
L 93.407983 86.41665 
L 93.451121 86.400866 
L 95.272433 85.529496 
L 97.058033 84.465819 
L 98.070019 83.75553 
L 98.843633 83.199103 
L 100.629233 81.743051 
L 101.346115 81.09441 
L 102.450545 80.059314 
L 104.034981 78.43329 
L 104.236145 78.215063 
L 106.021745 76.129926 
L 106.307963 75.77217 
L 107.807345 73.720495 
L 108.224002 73.11105 
L 109.628657 70.773715 
L 109.811679 70.44993 
L 111.094145 67.78881 
L 111.414257 66.980447 
L 112.112144 65.12769 
L 112.904774 62.46657 
L 113.199857 61.191002 
L 113.510332 59.80545 
L 113.963266 57.14433 
L 114.297759 54.48321 
L 114.5434 51.82209 
L 114.727488 49.16097 
L 114.875625 46.49985 
L 114.985457 44.368795 
L 115.035873 43.39521 
L 115.190468 40.73409 
L 115.387541 38.07297 
L 115.655587 35.41185 
L 116.028339 32.75073 
L 116.547544 30.08961 
L 116.806769 29.106299 
L 117.276429 27.42849 
L 118.286652 24.76737 
L 118.592369 24.147643 
L 119.708684 22.10625 
" clip-path="url(#pa4840a7cae)" style="fill: none; stroke: #6aaed6; stroke-width: 1.5"/>
    <path d="M 121.14923 288.21825 
L 119.566677 285.55713 
L 118.461108 282.89601 
L 117.740178 280.23489 
L 117.327123 277.57377 
L 117.190481 274.91265 
L 117.313134 272.25153 
L 117.688799 269.59041 
L 118.592369 266.107676 
L 119.383803 263.82465 
L 120.565636 261.16353 
L 122.163569 258.154048 
L 127.556081 248.660723 
L 127.956467 247.85793 
L 129.341681 244.571419 
L 130.059746 242.53569 
L 131.162993 238.28134 
L 131.392465 237.21345 
L 131.828147 234.55233 
L 132.37307 229.23009 
L 132.633975 223.90785 
L 132.775425 215.48097 
L 132.750825 204.83649 
L 132.538177 196.85313 
L 132.172698 191.53089 
L 131.457034 186.20865 
L 130.905557 183.54753 
L 130.189857 180.88641 
L 129.283019 178.22529 
L 127.556081 174.378299 
L 125.770481 171.263589 
L 123.984881 168.676489 
L 122.163569 166.408356 
L 120.377969 164.46029 
L 117.483375 161.81505 
L 116.806769 161.257095 
L 114.985457 159.941459 
L 113.199857 158.855078 
L 111.414257 157.982358 
L 109.628657 157.323705 
L 107.807345 156.877749 
L 106.021745 156.667353 
L 104.236145 156.685446 
L 102.450545 156.933362 
L 100.629233 157.421051 
L 98.843633 158.124232 
L 96.878301 159.15393 
L 95.272433 160.158228 
L 93.037146 161.81505 
L 89.879921 164.525419 
L 86.273009 168.10697 
L 82.395027 172.45953 
L 77.309297 178.745425 
L 71.231369 186.20865 
L 57.560561 202.370833 
L 53.989361 206.077478 
L 52.203761 207.737547 
L 48.596849 210.642332 
L 46.811249 211.842253 
L 45.025649 212.869774 
L 43.204337 213.695129 
L 41.418737 214.263266 
L 39.633137 214.551282 
L 37.847537 214.506527 
L 36.026225 214.050664 
L 34.240625 213.121732 
L 34.240625 213.121732 
" clip-path="url(#pa4840a7cae)" style="fill: none; stroke: #6aaed6; stroke-width: 1.5"/>
    <path d="M 304.673334 22.10625 
L 305.223281 22.924247 
L 306.34097 24.76737 
L 307.008881 26.164742 
L 307.568097 27.42849 
L 308.472414 30.08961 
L 308.794481 31.352272 
L 309.135758 32.75073 
L 309.615032 35.41185 
L 309.957839 38.07297 
L 310.197739 40.73409 
L 310.361173 43.39521 
L 310.482688 46.49985 
L 310.545888 49.16097 
L 310.584326 51.82209 
L 310.607232 54.48321 
L 310.615793 56.122635 
L 310.621107 57.14433 
L 310.630047 59.80545 
L 310.636189 62.46657 
L 310.640373 65.12769 
L 310.642967 67.78881 
L 310.644581 70.44993 
L 310.646478 73.11105 
L 310.650662 75.77217 
L 310.659741 78.43329 
L 310.676847 81.09441 
L 310.705824 83.75553 
L 310.751805 86.41665 
L 310.836799 89.52129 
L 310.948567 92.18241 
L 311.111217 94.84353 
L 311.342433 97.50465 
L 311.662563 100.16577 
L 312.093574 102.82689 
L 312.401393 104.287946 
L 312.657443 105.48801 
L 313.371263 108.14913 
L 314.186993 110.621664 
L 314.25044 110.81025 
L 315.299321 113.47137 
L 315.972593 114.963758 
L 316.509126 116.13249 
L 317.793905 118.683781 
L 317.849951 118.79361 
L 319.272608 121.45473 
L 319.579505 122.020838 
L 320.711867 124.11585 
L 321.365105 125.362326 
L 322.098291 126.77697 
L 323.150705 128.968219 
L 323.372643 129.43809 
L 324.492232 132.09921 
L 324.972017 133.445282 
L 325.583935 135.20385 
L 326.334338 137.86497 
L 326.757617 139.74719 
L 326.929889 140.52609 
L 327.387213 143.18721 
L 327.730591 145.84833 
L 327.981927 148.50945 
L 328.160851 151.17057 
L 328.284218 153.83169 
L 328.366109 156.49281 
L 328.418132 159.15393 
L 328.449729 161.81505 
L 328.468352 164.47617 
L 328.479493 167.13729 
L 328.486704 169.79841 
L 328.491803 172.45953 
L 328.495346 175.12065 
L 328.497434 178.22529 
L 328.497472 180.88641 
L 328.496359 183.54753 
L 328.494943 186.20865 
L 328.494114 188.86977 
L 328.49438 191.53089 
L 328.495623 194.19201 
L 328.497182 196.85313 
L 328.498217 199.51425 
L 328.498169 202.17537 
L 328.497063 204.83649 
L 328.495496 207.49761 
L 328.49431 210.15873 
L 328.494132 212.81985 
L 328.49502 215.48097 
L 328.496417 218.14209 
L 328.497403 220.80321 
L 328.496916 223.90785 
L 328.4946 226.56897 
L 328.490478 229.23009 
L 328.48444 231.89121 
L 328.475635 234.55233 
L 328.46179 237.21345 
L 328.438726 239.87457 
L 328.400121 242.53569 
L 328.337423 245.19681 
L 328.239716 247.85793 
L 328.093389 250.51905 
L 327.881597 253.18017 
L 327.583647 255.84129 
L 327.174584 258.50241 
L 326.757617 260.53274 
L 326.623902 261.16353 
L 325.897058 263.82465 
L 324.972017 266.435562 
L 324.788441 266.92929 
L 323.577583 269.59041 
L 323.150705 270.389973 
L 322.112903 272.25153 
L 321.365105 273.441826 
L 320.405559 274.91265 
L 319.579505 276.080454 
L 318.491842 277.57377 
L 317.793905 278.484736 
L 316.423016 280.23489 
L 315.972593 280.79197 
L 314.236107 282.89601 
L 314.186993 282.954022 
L 312.401393 285.012121 
L 311.913481 285.55713 
L 310.615793 286.95082 
L 309.373046 288.21825 
" clip-path="url(#pa4840a7cae)" style="fill: none; stroke: #6aaed6; stroke-width: 1.5"/>
   </g>
   <g id="PathCollection_6">
    <path d="M 34.240625 93.319029 
L 34.888518 92.18241 
L 36.026225 90.647134 
L 37.011253 89.52129 
L 37.847537 88.763133 
L 39.633137 87.420248 
L 41.295525 86.41665 
L 41.418737 86.354085 
L 43.204337 85.612116 
L 45.025649 85.028434 
L 46.811249 84.603779 
L 48.596849 84.308074 
L 50.382449 84.128208 
L 52.203761 84.053871 
L 53.989361 84.080669 
L 55.774961 84.200992 
L 57.560561 84.411184 
L 59.381873 84.715269 
L 61.167473 85.09874 
L 62.953073 85.563787 
L 64.738673 86.106514 
L 65.640733 86.41665 
L 66.559985 86.760345 
L 68.345585 87.487677 
L 70.131185 88.259816 
L 71.916785 89.060844 
L 72.931197 89.52129 
L 73.738097 89.913651 
L 75.523697 90.756883 
L 77.309297 91.549923 
L 78.874598 92.18241 
L 79.094897 92.275991 
L 80.916209 92.943862 
L 82.701809 93.472094 
L 84.487409 93.860364 
L 86.273009 94.095375 
L 88.094321 94.164577 
L 89.879921 94.053872 
L 91.665521 93.755952 
L 93.451121 93.261103 
L 95.272433 92.543821 
L 95.989002 92.18241 
L 97.058033 91.641233 
L 98.843633 90.541712 
L 100.246013 89.52129 
L 100.629233 89.241453 
L 102.450545 87.751441 
L 103.902006 86.41665 
L 104.236145 86.107742 
L 106.021745 84.331738 
L 106.563286 83.75553 
L 107.807345 82.402634 
L 108.935262 81.09441 
L 109.628657 80.25167 
L 111.038522 78.43329 
L 111.414257 77.909216 
L 112.863401 75.77217 
L 113.199857 75.214297 
L 114.406549 73.11105 
L 114.985457 71.926525 
L 115.678868 70.44993 
L 116.699891 67.78881 
L 116.806769 67.446246 
L 117.516338 65.12769 
L 118.145725 62.46657 
L 118.592369 59.976764 
L 118.623288 59.80545 
L 118.991377 57.14433 
L 119.263427 54.48321 
L 119.466406 51.82209 
L 119.625734 49.16097 
L 119.766294 46.49985 
L 119.940283 43.39521 
L 120.128645 40.73409 
L 120.377969 38.143903 
L 120.38521 38.07297 
L 120.763004 35.41185 
L 121.295754 32.75073 
L 122.042215 30.08961 
L 122.163569 29.766627 
L 123.141888 27.42849 
L 123.984881 25.924169 
L 124.728045 24.76737 
L 125.770481 23.501595 
L 127.128679 22.10625 
" clip-path="url(#pa4840a7cae)" style="fill: none; stroke: #4191c6; stroke-width: 1.5"/>
    <path d="M 128.689857 288.21825 
L 127.556081 287.141467 
L 125.770481 285.032099 
L 124.487287 282.89601 
L 123.445878 280.23489 
L 122.861767 277.57377 
L 122.651382 274.91265 
L 122.781718 272.25153 
L 123.229083 269.59041 
L 123.984881 266.897076 
L 125.770481 262.722685 
L 127.556081 259.395887 
L 132.486219 250.51905 
L 133.658459 247.85793 
L 134.734193 244.827079 
L 135.409578 242.53569 
L 136.020859 239.87457 
L 136.840262 234.55233 
L 137.278274 229.23009 
L 137.482962 223.90785 
L 137.602333 212.81985 
L 137.527904 202.17537 
L 137.244444 194.19201 
L 136.785591 188.86977 
L 135.946662 183.54753 
L 135.326739 180.88641 
L 134.538391 178.22529 
L 132.948593 174.137612 
L 132.177584 172.45953 
L 130.734631 169.79841 
L 129.05186 167.13729 
L 127.120788 164.47617 
L 123.984881 160.753502 
L 122.163569 158.860211 
L 119.593831 156.49281 
L 118.592369 155.637725 
L 116.124815 153.83169 
L 114.985457 153.074919 
L 113.199857 152.076454 
L 111.122794 151.17057 
L 109.628657 150.643639 
L 107.807345 150.205445 
L 106.021745 149.97628 
L 104.236145 149.946768 
L 102.450545 150.119951 
L 100.629233 150.510031 
L 98.701251 151.17057 
L 97.058033 151.898755 
L 95.272433 152.897007 
L 93.451121 154.120825 
L 90.479303 156.49281 
L 88.094321 158.637554 
L 84.487409 162.239176 
L 80.042361 167.13729 
L 77.309297 170.402651 
L 66.559985 183.632737 
L 57.291303 194.19201 
L 53.989361 197.668337 
L 52.035572 199.51425 
L 50.382449 200.897145 
L 48.596849 202.222485 
L 46.811249 203.281625 
L 45.025649 204.106635 
L 43.204337 204.653453 
L 41.418737 204.82797 
L 39.633137 204.547417 
L 37.847537 203.684195 
L 36.026225 202.013038 
L 34.240625 199.005988 
L 34.240625 199.005988 
" clip-path="url(#pa4840a7cae)" style="fill: none; stroke: #4191c6; stroke-width: 1.5"/>
    <path d="M 297.245339 22.10625 
L 298.045169 22.814553 
L 299.918275 24.76737 
L 301.716224 27.42849 
L 302.971652 30.08961 
L 303.872939 32.75073 
L 304.508816 35.41185 
L 305.223281 40.249673 
L 305.483609 43.39521 
L 305.714806 49.16097 
L 305.819802 59.80545 
L 306.012342 89.52129 
L 306.259346 94.84353 
L 306.75835 100.16577 
L 307.646216 105.48801 
L 308.794481 109.838102 
L 309.08456 110.81025 
L 310.615793 114.853776 
L 311.154149 116.13249 
L 313.796037 121.45473 
L 318.010222 129.43809 
L 319.579505 133.000396 
L 320.422371 135.20385 
L 321.365105 138.242328 
L 321.929067 140.52609 
L 322.443565 143.18721 
L 323.123499 148.50945 
L 323.458093 153.83169 
L 323.6386 161.81505 
L 323.690522 180.88641 
L 323.564718 242.53569 
L 323.36039 247.85793 
L 322.900814 253.18017 
L 322.517207 255.84129 
L 321.999112 258.50241 
L 321.314837 261.16353 
L 320.402129 263.82465 
L 319.040955 266.92929 
L 317.592704 269.59041 
L 315.887338 272.25153 
L 312.401393 276.897179 
L 309.617303 280.23489 
L 307.008881 283.09571 
L 304.452067 285.55713 
L 301.616369 287.834555 
L 301.070694 288.21825 
L 301.070694 288.21825 
" clip-path="url(#pa4840a7cae)" style="fill: none; stroke: #4191c6; stroke-width: 1.5"/>
   </g>
   <g id="PathCollection_7">
    <path d="M 145.671164 288.21825 
L 143.697905 287.891609 
L 140.126705 287.023999 
L 138.341105 286.419244 
L 136.330411 285.55713 
L 134.734193 284.521772 
L 132.725995 282.89601 
L 130.77547 280.23489 
L 129.717601 277.57377 
L 129.27262 274.91265 
L 129.341681 272.209018 
L 129.841602 269.59041 
L 130.705412 266.92929 
L 132.104934 263.82465 
L 135.013934 258.50241 
L 137.802973 253.18017 
L 138.95698 250.51905 
L 140.126705 247.141771 
L 140.70898 245.19681 
L 141.335473 242.53569 
L 142.192504 237.21345 
L 142.67895 231.89121 
L 142.912757 226.56897 
L 143.059112 215.48097 
L 142.994488 202.17537 
L 142.742125 194.19201 
L 142.335963 188.86977 
L 141.593044 183.54753 
L 141.057676 180.88641 
L 140.126705 177.484835 
L 139.374908 175.12065 
L 138.310665 172.45953 
L 136.519793 168.76126 
L 134.734193 165.684104 
L 132.948593 162.996873 
L 131.162993 160.573006 
L 129.341681 158.301208 
L 125.770481 154.296471 
L 122.576103 151.17057 
L 120.377969 149.250701 
L 116.806769 146.652772 
L 113.199857 144.67342 
L 111.414257 143.94556 
L 108.718469 143.18721 
L 107.807345 142.971886 
L 106.021745 142.721382 
L 104.236145 142.641598 
L 102.450545 142.734074 
L 99.936446 143.18721 
L 98.843633 143.451973 
L 97.058033 144.06355 
L 95.272433 144.872909 
L 93.451121 145.91474 
L 91.665521 147.08453 
L 88.094321 149.982356 
L 84.138336 153.83169 
L 80.916209 157.213142 
L 75.523697 163.279122 
L 71.916785 167.644655 
L 65.862374 175.12065 
L 60.805188 180.88641 
L 55.774961 186.052794 
L 52.203761 189.238283 
L 50.382449 190.58646 
L 48.596849 191.682428 
L 46.811249 192.400029 
L 45.025649 192.701904 
L 43.204337 192.42201 
L 41.418737 191.337669 
L 39.626256 188.86977 
L 38.599959 186.20865 
L 37.846761 183.54753 
L 37.014445 178.22529 
L 36.506351 172.45953 
L 36.159924 164.47617 
L 35.984811 153.83169 
L 35.938522 129.43809 
L 36.055844 116.13249 
L 36.286946 110.81025 
L 36.513127 108.14913 
L 36.857908 105.48801 
L 37.368223 102.82689 
L 38.136563 100.16577 
L 39.633137 96.96462 
L 41.418737 94.552549 
L 43.204337 92.986897 
L 45.025649 91.824009 
L 46.811249 91.068189 
L 48.596849 90.522889 
L 50.382449 90.163379 
L 52.203761 89.967763 
L 53.989361 89.927845 
L 55.774961 90.025497 
L 57.560561 90.249898 
L 61.167473 91.049407 
L 64.738673 92.233715 
L 70.131185 94.752431 
L 79.094897 99.203801 
L 82.701809 100.424378 
L 84.487409 100.861395 
L 86.273009 101.15144 
L 88.094321 101.292786 
L 89.879921 101.274997 
L 91.665521 101.095255 
L 93.451121 100.743804 
L 95.346456 100.16577 
L 97.058033 99.507631 
L 98.843633 98.622934 
L 100.65229 97.50465 
L 102.450545 96.249299 
L 106.021745 93.190714 
L 109.628657 89.511507 
L 113.199857 85.456662 
L 114.985457 83.206872 
L 116.806769 80.690909 
L 118.592369 77.873971 
L 120.377969 74.460022 
L 120.999693 73.11105 
L 122.163569 69.927506 
L 122.825446 67.78881 
L 123.465163 65.12769 
L 124.344933 59.80545 
L 124.862607 54.48321 
L 125.821409 40.73409 
L 126.233188 38.07297 
L 126.823699 35.41185 
L 127.676078 32.75073 
L 129.341681 29.568948 
L 131.162993 27.301983 
L 132.948593 25.842252 
L 134.734193 24.681788 
L 136.519793 23.897151 
L 138.341105 23.25984 
L 141.912305 22.37881 
L 143.52597 22.10625 
L 143.52597 22.10625 
" clip-path="url(#pa4840a7cae)" style="fill: none; stroke: #2070b4; stroke-width: 1.5"/>
    <path d="M 280.813181 22.10625 
L 283.688945 22.622832 
L 287.260145 23.619025 
L 290.029086 24.76737 
L 290.867057 25.247631 
L 292.652657 26.483996 
L 294.438257 28.109888 
L 296.259569 30.460678 
L 297.474864 32.75073 
L 298.46044 35.41185 
L 299.123102 38.07297 
L 299.585278 40.73409 
L 299.892612 43.39521 
L 300.212383 49.16097 
L 300.341603 57.14433 
L 300.629884 92.18241 
L 300.946627 97.50465 
L 301.563749 102.82689 
L 302.569701 108.14913 
L 303.437681 111.258394 
L 304.138138 113.47137 
L 305.223281 116.266403 
L 307.008881 120.208358 
L 309.019926 124.11585 
L 312.401393 130.529939 
L 314.186993 134.456557 
L 314.499292 135.20385 
L 315.972593 139.666588 
L 316.210144 140.52609 
L 316.793154 143.18721 
L 317.24422 145.84833 
L 317.821629 151.17057 
L 318.076115 156.49281 
L 318.198293 164.47617 
L 318.229579 191.53089 
L 318.171145 237.21345 
L 317.956821 245.19681 
L 317.528578 250.51905 
L 317.157654 253.18017 
L 316.653374 255.84129 
L 315.972593 258.554654 
L 315.069482 261.16353 
L 313.924981 263.82465 
L 312.234788 266.92929 
L 310.496006 269.59041 
L 308.520667 272.25153 
L 305.223281 276.195603 
L 303.437681 278.145983 
L 301.331435 280.23489 
L 298.045169 282.939147 
L 296.259569 284.073062 
L 293.499567 285.55713 
L 290.867057 286.559847 
L 287.260145 287.551113 
L 283.560326 288.21825 
L 283.560326 288.21825 
" clip-path="url(#pa4840a7cae)" style="fill: none; stroke: #2070b4; stroke-width: 1.5"/>
   </g>
   <g id="PathCollection_8">
    <path d="M 44.785618 164.47617 
L 44.457338 161.81505 
L 44.213426 159.15393 
L 44.034258 156.49281 
L 43.905519 153.83169 
L 43.81516 151.17057 
L 43.752139 148.50945 
L 43.706694 145.84833 
L 43.671443 143.18721 
L 43.642338 140.52609 
L 43.618699 137.86497 
L 43.602144 135.20385 
L 43.594729 132.09921 
L 43.600144 129.43809 
L 43.616892 126.77697 
L 43.64607 124.11585 
L 43.69214 121.45473 
L 43.765931 118.79361 
L 43.887236 116.13249 
L 44.086794 113.47137 
L 44.408134 110.81025 
L 44.910221 108.14913 
L 45.025649 107.738994 
L 45.803807 105.48801 
L 46.811249 103.514037 
L 47.262541 102.82689 
L 48.596849 101.391968 
L 50.185358 100.16577 
L 50.382449 100.053993 
L 52.203761 99.362502 
L 53.989361 98.998326 
L 55.774961 98.90132 
L 57.560561 99.031973 
L 59.381873 99.36113 
L 61.167473 99.839507 
L 62.12331 100.16577 
L 62.953073 100.498997 
L 64.738673 101.324228 
L 66.559985 102.213305 
L 67.778391 102.82689 
L 68.345585 103.15144 
L 70.131185 104.178416 
L 71.916785 105.138153 
L 72.601118 105.48801 
L 73.738097 106.137913 
L 75.523697 107.063416 
L 77.309297 107.867894 
L 78.017663 108.14913 
L 79.094897 108.637322 
L 80.916209 109.336556 
L 82.701809 109.890052 
L 84.487409 110.320879 
L 86.273009 110.634598 
L 87.854005 110.81025 
L 88.094321 110.843152 
L 89.879921 110.945504 
L 91.665521 110.901746 
L 92.497462 110.81025 
L 93.451121 110.723114 
L 95.272433 110.418007 
L 97.058033 109.964057 
L 98.843633 109.33466 
L 100.629233 108.500948 
L 101.247837 108.14913 
L 102.450545 107.529224 
L 104.236145 106.404806 
L 105.451633 105.48801 
L 106.021745 105.081379 
L 107.807345 103.632394 
L 108.68081 102.82689 
L 109.628657 101.97802 
L 111.414257 100.176538 
L 111.424423 100.16577 
L 113.199857 98.328251 
L 113.935332 97.50465 
L 114.985457 96.352048 
L 116.279342 94.84353 
L 116.806769 94.23726 
L 118.506503 92.18241 
L 118.592369 92.079238 
L 120.377969 89.869601 
L 120.648519 89.52129 
L 122.163569 87.545453 
L 122.974469 86.41665 
L 123.984881 84.933902 
L 124.760472 83.75553 
L 125.770481 82.059477 
L 126.33163 81.09441 
L 127.556081 78.65269 
L 127.665416 78.43329 
L 128.812432 75.77217 
L 129.341681 74.231838 
L 129.738974 73.11105 
L 130.49946 70.44993 
L 131.078371 67.78881 
L 131.162993 67.299078 
L 131.571215 65.12769 
L 131.955407 62.46657 
L 132.247679 59.80545 
L 132.472131 57.14433 
L 132.65157 54.48321 
L 132.810925 51.82209 
L 132.948593 49.656653 
L 132.985022 49.16097 
L 133.235253 46.49985 
L 133.665317 43.39521 
L 134.227799 40.73409 
L 134.734193 39.102828 
L 135.116853 38.07297 
L 136.519793 35.45697 
L 136.549445 35.41185 
L 138.341105 33.458849 
L 139.156212 32.75073 
L 140.126705 32.125105 
L 141.912305 31.214172 
L 143.697905 30.505038 
L 145.05544 30.08961 
L 145.519217 29.979974 
L 147.304817 29.656801 
L 149.090417 29.412939 
L 150.876017 29.23106 
L 152.697329 29.094769 
L 154.482929 28.99788 
L 156.268529 28.928299 
L 158.054129 28.878989 
L 159.875441 28.843945 
L 161.661041 28.820352 
L 163.446641 28.804311 
L 165.232241 28.793551 
L 167.053553 28.78631 
L 168.839153 28.781685 
L 170.624753 28.778691 
L 172.410353 28.776774 
L 174.231665 28.775546 
L 176.017265 28.774806 
L 177.802865 28.774365 
L 179.588465 28.774115 
L 181.409777 28.77398 
L 183.195377 28.773913 
L 184.980977 28.773874 
L 186.766577 28.773843 
L 188.587889 28.773809 
L 190.373489 28.773775 
L 192.159089 28.773746 
L 193.944689 28.77373 
L 195.766001 28.77373 
L 197.551601 28.773746 
L 199.337201 28.773771 
L 201.122801 28.773794 
L 202.944113 28.773808 
L 204.729713 28.773805 
L 206.515313 28.773788 
L 208.300913 28.773763 
L 210.122225 28.773739 
L 211.907825 28.773726 
L 213.693425 28.773729 
L 215.479025 28.773746 
L 217.300337 28.773772 
L 219.085937 28.773795 
L 220.871537 28.773808 
L 222.657137 28.773805 
L 224.478449 28.773787 
L 226.264049 28.773762 
L 228.049649 28.773739 
L 229.835249 28.773728 
L 231.656561 28.773734 
L 233.442161 28.773755 
L 235.227761 28.773787 
L 237.013361 28.773822 
L 238.834673 28.773855 
L 240.620273 28.773888 
L 242.405873 28.773936 
L 244.191473 28.774023 
L 246.012785 28.774196 
L 247.798385 28.774509 
L 249.583985 28.77505 
L 251.369585 28.775943 
L 253.190897 28.777413 
L 254.976497 28.779691 
L 256.762097 28.783232 
L 258.547697 28.788677 
L 260.369009 28.797158 
L 262.154609 28.809693 
L 263.940209 28.828271 
L 265.725809 28.855426 
L 267.547121 28.895502 
L 269.332721 28.951521 
L 271.118321 29.030025 
L 272.903921 29.13855 
L 274.725233 29.290018 
L 276.510833 29.49045 
L 278.296433 29.756739 
L 279.998028 30.08961 
L 280.082033 30.110741 
L 281.903345 30.704015 
L 283.688945 31.45038 
L 285.474545 32.395062 
L 286.014846 32.75073 
L 287.260145 33.843866 
L 288.705947 35.41185 
L 289.081457 35.973384 
L 290.239504 38.07297 
L 290.867057 39.697006 
L 291.204071 40.73409 
L 291.79184 43.39521 
L 292.224575 46.49985 
L 292.447252 49.16097 
L 292.581818 51.82209 
L 292.652657 54.166598 
L 292.660873 54.48321 
L 292.703369 57.14433 
L 292.731113 59.80545 
L 292.749692 62.46657 
L 292.760963 65.12769 
L 292.765683 67.78881 
L 292.765451 70.44993 
L 292.763397 73.11105 
L 292.763627 75.77217 
L 292.770004 78.43329 
L 292.785156 81.09441 
L 292.810439 83.75553 
L 292.847041 86.41665 
L 292.907994 89.52129 
L 292.983288 92.18241 
L 293.091241 94.84353 
L 293.246515 97.50465 
L 293.466382 100.16577 
L 293.769807 102.82689 
L 294.17748 105.48801 
L 294.438257 106.816359 
L 294.675513 108.14913 
L 295.271486 110.81025 
L 296.031444 113.47137 
L 296.259569 114.143367 
L 296.897069 116.13249 
L 297.944151 118.79361 
L 298.045169 119.021296 
L 299.090946 121.45473 
L 299.830769 122.954444 
L 300.391024 124.11585 
L 301.616369 126.4333 
L 301.79432 126.77697 
L 303.21709 129.43809 
L 303.437681 129.851582 
L 304.59367 132.09921 
L 305.223281 133.387564 
L 306.077948 135.20385 
L 307.008881 137.390429 
L 307.197078 137.86497 
L 308.090998 140.52609 
L 308.794481 142.997742 
L 308.843071 143.18721 
L 309.371565 145.84833 
L 309.777159 148.50945 
L 310.074685 151.17057 
L 310.282084 153.83169 
L 310.418225 156.49281 
L 310.501685 159.15393 
L 310.549746 161.81505 
L 310.577129 164.47617 
L 310.594641 167.13729 
L 310.608383 169.79841 
L 310.615793 171.486081 
L 310.619465 172.45953 
L 310.626775 175.12065 
L 310.629924 178.22529 
L 310.627783 180.88641 
L 310.622962 183.54753 
L 310.618383 186.20865 
L 310.616678 188.86977 
L 310.61884 191.53089 
L 310.62373 194.19201 
L 310.62871 196.85313 
L 310.631087 199.51425 
L 310.629573 202.17537 
L 310.624985 204.83649 
L 310.619799 207.49761 
L 310.616803 210.15873 
L 310.617566 212.81985 
L 310.621559 215.48097 
L 310.626374 218.14209 
L 310.628913 220.80321 
L 310.625976 223.90785 
L 310.617757 226.56897 
L 310.615793 226.979572 
L 310.603259 229.23009 
L 310.583564 231.89121 
L 310.556476 234.55233 
L 310.514633 237.21345 
L 310.445044 239.87457 
L 310.329573 242.53569 
L 310.146254 245.19681 
L 309.870873 247.85793 
L 309.478518 250.51905 
L 308.945388 253.18017 
L 308.794481 253.749421 
L 308.168768 255.84129 
L 307.18362 258.50241 
L 307.008881 258.887838 
L 305.885045 261.16353 
L 305.223281 262.32179 
L 304.309506 263.82465 
L 303.437681 265.079798 
L 302.119723 266.92929 
L 301.616369 267.562772 
L 299.964108 269.59041 
L 299.830769 269.740115 
L 298.045169 271.657875 
L 297.475071 272.25153 
L 296.259569 273.384151 
L 294.551595 274.91265 
L 294.438257 275.001458 
L 292.652657 276.2607 
L 290.867057 277.421268 
L 290.600055 277.57377 
L 289.081457 278.290551 
L 287.260145 279.029916 
L 285.474545 279.642998 
L 283.688945 280.152485 
L 283.332204 280.23489 
L 281.903345 280.49888 
L 280.082033 280.765106 
L 278.296433 280.968449 
L 276.510833 281.124826 
L 274.725233 281.243283 
L 272.903921 281.333204 
L 271.118321 281.397824 
L 269.332721 281.444653 
L 267.547121 281.478099 
L 265.725809 281.50203 
L 263.940209 281.518239 
L 262.154609 281.52932 
L 260.369009 281.536791 
L 258.547697 281.541845 
L 256.762097 281.545093 
L 254.976497 281.54721 
L 253.190897 281.548576 
L 251.369585 281.549459 
L 249.583985 281.549992 
L 247.798385 281.550309 
L 246.012785 281.550485 
L 244.191473 281.550576 
L 242.405873 281.550619 
L 240.620273 281.550643 
L 238.834673 281.550667 
L 237.013361 281.550696 
L 235.227761 281.550728 
L 233.442161 281.550755 
L 231.656561 281.550771 
L 229.835249 281.55077 
L 228.049649 281.550754 
L 226.264049 281.550729 
L 224.478449 281.550706 
L 222.657137 281.550692 
L 220.871537 281.550695 
L 219.085937 281.550712 
L 217.300337 281.550737 
L 215.479025 281.550761 
L 213.693425 281.550774 
L 211.907825 281.550771 
L 210.122225 281.550753 
L 208.300913 281.550727 
L 206.515313 281.550702 
L 204.729713 281.550688 
L 202.944113 281.550687 
L 201.122801 281.550699 
L 199.337201 281.550715 
L 197.551601 281.550721 
L 195.766001 281.550706 
L 193.944689 281.550657 
L 192.159089 281.550566 
L 190.373489 281.550426 
L 188.587889 281.550222 
L 186.766577 281.549924 
L 184.980977 281.549498 
L 183.195377 281.548867 
L 181.409777 281.547922 
L 179.588465 281.54648 
L 177.802865 281.544387 
L 176.017265 281.541345 
L 174.231665 281.536984 
L 172.410353 281.530667 
L 170.624753 281.52197 
L 168.839153 281.509902 
L 167.053553 281.493284 
L 165.232241 281.47003 
L 163.446641 281.438969 
L 161.661041 281.397041 
L 159.875441 281.340783 
L 158.054129 281.264012 
L 156.268529 281.163919 
L 154.482929 281.031895 
L 152.697329 280.858681 
L 150.876017 280.627486 
L 149.090417 280.332588 
L 148.627133 280.23489 
L 147.304817 279.850366 
L 145.519217 279.175056 
L 143.697905 278.275936 
L 142.587266 277.57377 
L 141.912305 276.865745 
L 140.478561 274.91265 
L 140.126705 273.643988 
L 139.822352 272.25153 
L 139.997613 269.59041 
L 140.126705 269.123407 
L 140.75366 266.92929 
L 141.912305 264.089761 
L 142.019688 263.82465 
L 143.296434 261.16353 
L 143.697905 260.326172 
L 144.571797 258.50241 
L 145.519217 256.324864 
L 145.731278 255.84129 
L 146.777845 253.18017 
L 147.304817 251.549594 
L 147.649725 250.51905 
L 148.384134 247.85793 
L 148.950232 245.19681 
L 149.090417 244.36539 
L 149.426105 242.53569 
L 149.802004 239.87457 
L 150.082155 237.21345 
L 150.285609 234.55233 
L 150.427978 231.89121 
L 150.523249 229.23009 
L 150.584512 226.56897 
L 150.623524 223.90785 
L 150.65313 220.80321 
L 150.671128 218.14209 
L 150.684055 215.48097 
L 150.690764 212.81985 
L 150.689101 210.15873 
L 150.677336 207.49761 
L 150.65463 204.83649 
L 150.620269 202.17537 
L 150.572021 199.51425 
L 150.504443 196.85313 
L 150.407904 194.19201 
L 150.268709 191.53089 
L 150.070039 188.86977 
L 149.792973 186.20865 
L 149.416725 183.54753 
L 149.090417 181.780207 
L 148.940897 180.88641 
L 148.379049 178.22529 
L 147.516669 175.12065 
L 147.304817 174.497066 
L 146.648375 172.45953 
L 145.576228 169.79841 
L 145.519217 169.674665 
L 144.3753 167.13729 
L 143.697905 165.861811 
L 142.964428 164.47617 
L 141.912305 162.716521 
L 141.366109 161.81505 
L 140.126705 159.937137 
L 139.596421 159.15393 
L 138.341105 157.396391 
L 137.673191 156.49281 
L 136.519793 154.978304 
L 135.608208 153.83169 
L 134.734193 152.740764 
L 133.407657 151.17057 
L 132.948593 150.624343 
L 131.162993 148.617727 
L 131.062892 148.50945 
L 129.341681 146.62592 
L 128.567933 145.84833 
L 127.556081 144.810535 
L 125.794954 143.18721 
L 125.770481 143.163982 
L 123.984881 141.560051 
L 122.657016 140.52609 
L 122.163569 140.124522 
L 120.377969 138.810579 
L 118.862324 137.86497 
L 118.592369 137.683639 
L 116.806769 136.611528 
L 114.985457 135.711712 
L 113.746239 135.20385 
L 113.199857 134.946506 
L 111.414257 134.245192 
L 109.628657 133.698621 
L 107.807345 133.285446 
L 106.021745 133.012507 
L 104.236145 132.865976 
L 102.450545 132.846046 
L 100.629233 132.961104 
L 98.843633 133.216429 
L 97.058033 133.62795 
L 95.272433 134.216797 
L 93.451121 135.029554 
L 93.130991 135.20385 
L 91.665521 135.905608 
L 89.879921 136.970436 
L 88.637463 137.86497 
L 88.094321 138.232168 
L 86.273009 139.642201 
L 85.281708 140.52609 
L 84.487409 141.20901 
L 82.701809 142.928155 
L 82.449781 143.18721 
L 80.916209 144.718954 
L 79.874025 145.84833 
L 79.094897 146.670274 
L 77.453792 148.50945 
L 77.309297 148.666254 
L 75.523697 150.647052 
L 75.067858 151.17057 
L 73.738097 152.646749 
L 72.709477 153.83169 
L 71.916785 154.721073 
L 70.389354 156.49281 
L 70.131185 156.786409 
L 68.345585 158.844382 
L 68.078707 159.15393 
L 66.559985 160.894615 
L 65.766041 161.81505 
L 64.738673 162.99818 
L 63.451237 164.47617 
L 62.953073 165.041114 
L 61.167473 167.016584 
L 61.050023 167.13729 
L 59.381873 168.810763 
L 58.33259 169.79841 
L 57.560561 170.503942 
L 55.774961 171.941649 
L 54.978829 172.45953 
L 53.989361 173.080756 
L 52.203761 173.836545 
L 50.382449 174.082668 
L 48.596849 173.503219 
L 47.524614 172.45953 
L 46.811249 171.485755 
L 46.091235 169.79841 
L 45.286696 167.13729 
L 45.025649 165.948419 
L 44.785618 164.47617 
z
" clip-path="url(#pa4840a7cae)" style="fill: none; stroke: #08509b; stroke-width: 1.5"/>
   </g>
   <g id="PathCollection_9"/>
   <g id="patch_3">
    <path d="M 34.240625 288.21825 
L 34.240625 22.10625 
" style="fill: none; stroke: #000000; stroke-width: 0.8; stroke-linejoin: miter; stroke-linecap: square"/>
   </g>
   <g id="patch_4">
    <path d="M 391.360625 288.21825 
L 391.360625 22.10625 
" style="fill: none; stroke: #000000; stroke-width: 0.8; stroke-linejoin: miter; stroke-linecap: square"/>
   </g>
   <g id="patch_5">
    <path d="M 34.240625 288.21825 
L 391.360625 288.21825 
" style="fill: none; stroke: #000000; stroke-width: 0.8; stroke-linejoin: miter; stroke-linecap: square"/>
   </g>
   <g id="patch_6">
    <path d="M 34.240625 22.10625 
L 391.360625 22.10625 
" style="fill: none; stroke: #000000; stroke-width: 0.8; stroke-linejoin: miter; stroke-linecap: square"/>
   </g>
   <g id="text_16">
    <!-- 7.3_cross_-39.0 -->
    <g transform="translate(166.181563 16.10625)scale(0.12 -0.12)">
     <defs>
      <path id="DejaVuSans-37" d="M 525 4666 
L 3525 4666 
L 3525 4397 
L 1831 0 
L 1172 0 
L 2766 4134 
L 525 4134 
L 525 4666 
z
" transform="scale(0.015625)"/>
      <path id="DejaVuSans-2e" d="M 684 794 
L 1344 794 
L 1344 0 
L 684 0 
L 684 794 
z
" transform="scale(0.015625)"/>
      <path id="DejaVuSans-5f" d="M 3263 -1063 
L 3263 -1509 
L -63 -1509 
L -63 -1063 
L 3263 -1063 
z
" transform="scale(0.015625)"/>
      <path id="DejaVuSans-63" d="M 3122 3366 
L 3122 2828 
Q 2878 2963 2633 3030 
Q 2388 3097 2138 3097 
Q 1578 3097 1268 2742 
Q 959 2388 959 1747 
Q 959 1106 1268 751 
Q 1578 397 2138 397 
Q 2388 397 2633 464 
Q 2878 531 3122 666 
L 3122 134 
Q 2881 22 2623 -34 
Q 2366 -91 2075 -91 
Q 1284 -91 818 406 
Q 353 903 353 1747 
Q 353 2603 823 3093 
Q 1294 3584 2113 3584 
Q 2378 3584 2631 3529 
Q 2884 3475 3122 3366 
z
" transform="scale(0.015625)"/>
      <path id="DejaVuSans-72" d="M 2631 2963 
Q 2534 3019 2420 3045 
Q 2306 3072 2169 3072 
Q 1681 3072 1420 2755 
Q 1159 2438 1159 1844 
L 1159 0 
L 581 0 
L 581 3500 
L 1159 3500 
L 1159 2956 
Q 1341 3275 1631 3429 
Q 1922 3584 2338 3584 
Q 2397 3584 2469 3576 
Q 2541 3569 2628 3553 
L 2631 2963 
z
" transform="scale(0.015625)"/>
      <path id="DejaVuSans-73" d="M 2834 3397 
L 2834 2853 
Q 2591 2978 2328 3040 
Q 2066 3103 1784 3103 
Q 1356 3103 1142 2972 
Q 928 2841 928 2578 
Q 928 2378 1081 2264 
Q 1234 2150 1697 2047 
L 1894 2003 
Q 2506 1872 2764 1633 
Q 3022 1394 3022 966 
Q 3022 478 2636 193 
Q 2250 -91 1575 -91 
Q 1294 -91 989 -36 
Q 684 19 347 128 
L 347 722 
Q 666 556 975 473 
Q 1284 391 1588 391 
Q 1994 391 2212 530 
Q 2431 669 2431 922 
Q 2431 1156 2273 1281 
Q 2116 1406 1581 1522 
L 1381 1569 
Q 847 1681 609 1914 
Q 372 2147 372 2553 
Q 372 3047 722 3315 
Q 1072 3584 1716 3584 
Q 2034 3584 2315 3537 
Q 2597 3491 2834 3397 
z
" transform="scale(0.015625)"/>
      <path id="DejaVuSans-2d" d="M 313 2009 
L 1997 2009 
L 1997 1497 
L 313 1497 
L 313 2009 
z
" transform="scale(0.015625)"/>
      <path id="DejaVuSans-39" d="M 703 97 
L 703 672 
Q 941 559 1184 500 
Q 1428 441 1663 441 
Q 2288 441 2617 861 
Q 2947 1281 2994 2138 
Q 2813 1869 2534 1725 
Q 2256 1581 1919 1581 
Q 1219 1581 811 2004 
Q 403 2428 403 3163 
Q 403 3881 828 4315 
Q 1253 4750 1959 4750 
Q 2769 4750 3195 4129 
Q 3622 3509 3622 2328 
Q 3622 1225 3098 567 
Q 2575 -91 1691 -91 
Q 1453 -91 1209 -44 
Q 966 3 703 97 
z
M 1959 2075 
Q 2384 2075 2632 2365 
Q 2881 2656 2881 3163 
Q 2881 3666 2632 3958 
Q 2384 4250 1959 4250 
Q 1534 4250 1286 3958 
Q 1038 3666 1038 3163 
Q 1038 2656 1286 2365 
Q 1534 2075 1959 2075 
z
" transform="scale(0.015625)"/>
     </defs>
     <use xlink:href="#DejaVuSans-37"/>
     <use xlink:href="#DejaVuSans-2e" x="63.623047"/>
     <use xlink:href="#DejaVuSans-33" x="95.410156"/>
     <use xlink:href="#DejaVuSans-5f" x="159.033203"/>
     <use xlink:href="#DejaVuSans-63" x="209.033203"/>
     <use xlink:href="#DejaVuSans-72" x="264.013672"/>
     <use xlink:href="#DejaVuSans-6f" x="302.876953"/>
     <use xlink:href="#DejaVuSans-73" x="364.058594"/>
     <use xlink:href="#DejaVuSans-73" x="416.158203"/>
     <use xlink:href="#DejaVuSans-5f" x="468.257812"/>
     <use xlink:href="#DejaVuSans-2d" x="518.257812"/>
     <use xlink:href="#DejaVuSans-33" x="554.341797"/>
     <use xlink:href="#DejaVuSans-39" x="617.964844"/>
     <use xlink:href="#DejaVuSans-2e" x="681.587891"/>
     <use xlink:href="#DejaVuSans-30" x="713.375"/>
    </g>
   </g>
  </g>
 </g>
 <defs>
  <clipPath id="pa4840a7cae">
   <rect x="34.240625" y="22.10625" width="357.12" height="266.112"/>
  </clipPath>
 </defs>
</svg>
