<?xml version="1.0" encoding="utf-8" standalone="no"?>
<!DOCTYPE svg PUBLIC "-//W3C//DTD SVG 1.1//EN"
  "http://www.w3.org/Graphics/SVG/1.1/DTD/svg11.dtd">
<svg xmlns:xlink="http://www.w3.org/1999/xlink" width="460.8pt" height="345.6pt" viewBox="0 0 460.8 345.6" xmlns="http://www.w3.org/2000/svg" version="1.1">
 <metadata>
  <rdf:RDF xmlns:dc="http://purl.org/dc/elements/1.1/" xmlns:cc="http://creativecommons.org/ns#" xmlns:rdf="http://www.w3.org/1999/02/22-rdf-syntax-ns#">
   <cc:Work>
    <dc:type rdf:resource="http://purl.org/dc/dcmitype/StillImage"/>
    <dc:date>2024-06-14T15:37:10.703571</dc:date>
    <dc:format>image/svg+xml</dc:format>
    <dc:creator>
     <cc:Agent>
      <dc:title>Matplotlib v3.5.3, https://matplotlib.org/</dc:title>
     </cc:Agent>
    </dc:creator>
   </cc:Work>
  </rdf:RDF>
 </metadata>
 <defs>
  <style type="text/css">*{stroke-linejoin: round; stroke-linecap: butt}</style>
 </defs>
 <g id="figure_1">
  <g id="patch_1">
   <path d="M 0 345.6 
L 460.8 345.6 
L 460.8 0 
L 0 0 
z
" style="fill: #ffffff"/>
  </g>
  <g id="axes_1">
   <g id="patch_2">
    <path d="M 57.6 307.584 
L 414.72 307.584 
L 414.72 41.472 
L 57.6 41.472 
z
" style="fill: #ffffff"/>
   </g>
   <g id="patch_3">
    <path d="M 97.070281 307.584 
L 136.540562 307.584 
L 136.540562 163.471059 
L 97.070281 163.471059 
L 97.070281 307.584 
z
" clip-path="url(#pea4ccd5416)" style="fill: none; opacity: 0"/>
   </g>
   <g id="patch_4">
    <path d="M 136.540562 307.584 
L 176.010843 307.584 
L 176.010843 233.042824 
L 136.540562 233.042824 
L 136.540562 307.584 
z
" clip-path="url(#pea4ccd5416)" style="fill: none; opacity: 0"/>
   </g>
   <g id="patch_5">
    <path d="M 176.010843 307.584 
L 215.481124 307.584 
L 215.481124 257.889882 
L 176.010843 257.889882 
L 176.010843 307.584 
z
" clip-path="url(#pea4ccd5416)" style="fill: none; opacity: 0"/>
   </g>
   <g id="patch_6">
    <path d="M 215.481124 307.584 
L 254.951405 307.584 
L 254.951405 238.012235 
L 215.481124 238.012235 
L 215.481124 307.584 
z
" clip-path="url(#pea4ccd5416)" style="fill: none; opacity: 0"/>
   </g>
   <g id="patch_7">
    <path d="M 254.951405 307.584 
L 294.421686 307.584 
L 294.421686 282.736941 
L 254.951405 282.736941 
L 254.951405 307.584 
z
" clip-path="url(#pea4ccd5416)" style="fill: none; opacity: 0"/>
   </g>
   <g id="patch_8">
    <path d="M 294.421686 307.584 
L 333.891967 307.584 
L 333.891967 287.706353 
L 294.421686 287.706353 
L 294.421686 307.584 
z
" clip-path="url(#pea4ccd5416)" style="fill: none; opacity: 0"/>
   </g>
   <g id="patch_9">
    <path d="M 333.891967 307.584 
L 373.362248 307.584 
L 373.362248 297.645176 
L 333.891967 297.645176 
L 333.891967 307.584 
z
" clip-path="url(#pea4ccd5416)" style="fill: none; opacity: 0"/>
   </g>
   <g id="patch_10">
    <path d="M 373.362248 307.584 
L 412.832529 307.584 
L 412.832529 292.675765 
L 373.362248 292.675765 
L 373.362248 307.584 
z
" clip-path="url(#pea4ccd5416)" style="fill: none; opacity: 0"/>
   </g>
   <g id="patch_11">
    <path d="M 57.6 307.584 
L 97.070281 307.584 
L 97.070281 307.584 
L 57.6 307.584 
L 57.6 307.584 
z
" clip-path="url(#pea4ccd5416)" style="fill: none; opacity: 0"/>
   </g>
   <g id="patch_12">
    <path d="M 97.070281 307.584 
L 136.540562 307.584 
L 136.540562 307.584 
L 97.070281 307.584 
L 97.070281 307.584 
z
" clip-path="url(#pea4ccd5416)" style="fill: none; opacity: 0"/>
   </g>
   <g id="patch_13">
    <path d="M 136.540562 307.584 
L 176.010843 307.584 
L 176.010843 292.675765 
L 136.540562 292.675765 
L 136.540562 307.584 
z
" clip-path="url(#pea4ccd5416)" style="fill: none; opacity: 0"/>
   </g>
   <g id="patch_14">
    <path d="M 176.010843 307.584 
L 215.481124 307.584 
L 215.481124 193.287529 
L 176.010843 193.287529 
L 176.010843 307.584 
z
" clip-path="url(#pea4ccd5416)" style="fill: none; opacity: 0"/>
   </g>
   <g id="patch_15">
    <path d="M 215.481124 307.584 
L 254.951405 307.584 
L 254.951405 163.471059 
L 215.481124 163.471059 
L 215.481124 307.584 
z
" clip-path="url(#pea4ccd5416)" style="fill: none; opacity: 0"/>
   </g>
   <g id="patch_16">
    <path d="M 254.951405 307.584 
L 294.421686 307.584 
L 294.421686 242.981647 
L 254.951405 242.981647 
L 254.951405 307.584 
z
" clip-path="url(#pea4ccd5416)" style="fill: none; opacity: 0"/>
   </g>
   <g id="patch_17">
    <path d="M 294.421686 307.584 
L 333.891967 307.584 
L 333.891967 262.859294 
L 294.421686 262.859294 
L 294.421686 307.584 
z
" clip-path="url(#pea4ccd5416)" style="fill: none; opacity: 0"/>
   </g>
   <g id="patch_18">
    <path d="M 333.891967 307.584 
L 373.362248 307.584 
L 373.362248 307.584 
L 333.891967 307.584 
L 333.891967 307.584 
z
" clip-path="url(#pea4ccd5416)" style="fill: none; opacity: 0"/>
   </g>
   <g id="patch_19">
    <path d="M 373.362248 307.584 
L 412.832529 307.584 
L 412.832529 307.584 
L 373.362248 307.584 
L 373.362248 307.584 
z
" clip-path="url(#pea4ccd5416)" style="fill: none; opacity: 0"/>
   </g>
   <g id="patch_20">
    <path d="M 57.6 307.584 
L 97.070281 307.584 
L 97.070281 307.584 
L 57.6 307.584 
L 57.6 307.584 
z
" clip-path="url(#pea4ccd5416)" style="fill: none; opacity: 0"/>
   </g>
   <g id="patch_21">
    <path d="M 97.070281 307.584 
L 136.540562 307.584 
L 136.540562 307.584 
L 97.070281 307.584 
L 97.070281 307.584 
z
" clip-path="url(#pea4ccd5416)" style="fill: none; opacity: 0"/>
   </g>
   <g id="patch_22">
    <path d="M 136.540562 307.584 
L 176.010843 307.584 
L 176.010843 292.675765 
L 136.540562 292.675765 
L 136.540562 307.584 
z
" clip-path="url(#pea4ccd5416)" style="fill: none; opacity: 0"/>
   </g>
   <g id="patch_23">
    <path d="M 176.010843 307.584 
L 215.481124 307.584 
L 215.481124 198.256941 
L 176.010843 198.256941 
L 176.010843 307.584 
z
" clip-path="url(#pea4ccd5416)" style="fill: none; opacity: 0"/>
   </g>
   <g id="patch_24">
    <path d="M 215.481124 307.584 
L 254.951405 307.584 
L 254.951405 54.144 
L 215.481124 54.144 
L 215.481124 307.584 
z
" clip-path="url(#pea4ccd5416)" style="fill: none; opacity: 0"/>
   </g>
   <g id="patch_25">
    <path d="M 254.951405 307.584 
L 294.421686 307.584 
L 294.421686 153.532235 
L 254.951405 153.532235 
L 254.951405 307.584 
z
" clip-path="url(#pea4ccd5416)" style="fill: none; opacity: 0"/>
   </g>
   <g id="patch_26">
    <path d="M 294.421686 307.584 
L 333.891967 307.584 
L 333.891967 257.889882 
L 294.421686 257.889882 
L 294.421686 307.584 
z
" clip-path="url(#pea4ccd5416)" style="fill: none; opacity: 0"/>
   </g>
   <g id="patch_27">
    <path d="M 333.891967 307.584 
L 373.362248 307.584 
L 373.362248 277.767529 
L 333.891967 277.767529 
L 333.891967 307.584 
z
" clip-path="url(#pea4ccd5416)" style="fill: none; opacity: 0"/>
   </g>
   <g id="patch_28">
    <path d="M 373.362248 307.584 
L 412.832529 307.584 
L 412.832529 297.645176 
L 373.362248 297.645176 
L 373.362248 307.584 
z
" clip-path="url(#pea4ccd5416)" style="fill: none; opacity: 0"/>
   </g>
   <g id="matplotlib.axis_1">
    <g id="xtick_1">
     <g id="line2d_1">
      <defs>
       <path id="mec7b238d35" d="M 0 0 
L 0 3.5 
" style="stroke: #000000; stroke-width: 0.8"/>
      </defs>
      <g>
       <use xlink:href="#mec7b238d35" x="98.957752" y="307.584" style="stroke: #000000; stroke-width: 0.8"/>
      </g>
     </g>
     <g id="text_1">
      <!-- −4 -->
      <g transform="translate(91.586658 322.182437)scale(0.1 -0.1)">
       <defs>
        <path id="DejaVuSans-2212" d="M 678 2272 
L 4684 2272 
L 4684 1741 
L 678 1741 
L 678 2272 
z
" transform="scale(0.015625)"/>
        <path id="DejaVuSans-34" d="M 2419 4116 
L 825 1625 
L 2419 1625 
L 2419 4116 
z
M 2253 4666 
L 3047 4666 
L 3047 1625 
L 3713 1625 
L 3713 1100 
L 3047 1100 
L 3047 0 
L 2419 0 
L 2419 1100 
L 313 1100 
L 313 1709 
L 2253 4666 
z
" transform="scale(0.015625)"/>
       </defs>
       <use xlink:href="#DejaVuSans-2212"/>
       <use xlink:href="#DejaVuSans-34" x="83.789062"/>
      </g>
     </g>
    </g>
    <g id="xtick_2">
     <g id="line2d_2">
      <g>
       <use xlink:href="#mec7b238d35" x="177.898314" y="307.584" style="stroke: #000000; stroke-width: 0.8"/>
      </g>
     </g>
     <g id="text_2">
      <!-- −3 -->
      <g transform="translate(170.52722 322.182437)scale(0.1 -0.1)">
       <defs>
        <path id="DejaVuSans-33" d="M 2597 2516 
Q 3050 2419 3304 2112 
Q 3559 1806 3559 1356 
Q 3559 666 3084 287 
Q 2609 -91 1734 -91 
Q 1441 -91 1130 -33 
Q 819 25 488 141 
L 488 750 
Q 750 597 1062 519 
Q 1375 441 1716 441 
Q 2309 441 2620 675 
Q 2931 909 2931 1356 
Q 2931 1769 2642 2001 
Q 2353 2234 1838 2234 
L 1294 2234 
L 1294 2753 
L 1863 2753 
Q 2328 2753 2575 2939 
Q 2822 3125 2822 3475 
Q 2822 3834 2567 4026 
Q 2313 4219 1838 4219 
Q 1578 4219 1281 4162 
Q 984 4106 628 3988 
L 628 4550 
Q 988 4650 1302 4700 
Q 1616 4750 1894 4750 
Q 2613 4750 3031 4423 
Q 3450 4097 3450 3541 
Q 3450 3153 3228 2886 
Q 3006 2619 2597 2516 
z
" transform="scale(0.015625)"/>
       </defs>
       <use xlink:href="#DejaVuSans-2212"/>
       <use xlink:href="#DejaVuSans-33" x="83.789062"/>
      </g>
     </g>
    </g>
    <g id="xtick_3">
     <g id="line2d_3">
      <g>
       <use xlink:href="#mec7b238d35" x="256.838876" y="307.584" style="stroke: #000000; stroke-width: 0.8"/>
      </g>
     </g>
     <g id="text_3">
      <!-- −2 -->
      <g transform="translate(249.467782 322.182437)scale(0.1 -0.1)">
       <defs>
        <path id="DejaVuSans-32" d="M 1228 531 
L 3431 531 
L 3431 0 
L 469 0 
L 469 531 
Q 828 903 1448 1529 
Q 2069 2156 2228 2338 
Q 2531 2678 2651 2914 
Q 2772 3150 2772 3378 
Q 2772 3750 2511 3984 
Q 2250 4219 1831 4219 
Q 1534 4219 1204 4116 
Q 875 4013 500 3803 
L 500 4441 
Q 881 4594 1212 4672 
Q 1544 4750 1819 4750 
Q 2544 4750 2975 4387 
Q 3406 4025 3406 3419 
Q 3406 3131 3298 2873 
Q 3191 2616 2906 2266 
Q 2828 2175 2409 1742 
Q 1991 1309 1228 531 
z
" transform="scale(0.015625)"/>
       </defs>
       <use xlink:href="#DejaVuSans-2212"/>
       <use xlink:href="#DejaVuSans-32" x="83.789062"/>
      </g>
     </g>
    </g>
    <g id="xtick_4">
     <g id="line2d_4">
      <g>
       <use xlink:href="#mec7b238d35" x="335.779438" y="307.584" style="stroke: #000000; stroke-width: 0.8"/>
      </g>
     </g>
     <g id="text_4">
      <!-- −1 -->
      <g transform="translate(328.408344 322.182437)scale(0.1 -0.1)">
       <defs>
        <path id="DejaVuSans-31" d="M 794 531 
L 1825 531 
L 1825 4091 
L 703 3866 
L 703 4441 
L 1819 4666 
L 2450 4666 
L 2450 531 
L 3481 531 
L 3481 0 
L 794 0 
L 794 531 
z
" transform="scale(0.015625)"/>
       </defs>
       <use xlink:href="#DejaVuSans-2212"/>
       <use xlink:href="#DejaVuSans-31" x="83.789062"/>
      </g>
     </g>
    </g>
    <g id="xtick_5">
     <g id="line2d_5">
      <g>
       <use xlink:href="#mec7b238d35" x="414.72" y="307.584" style="stroke: #000000; stroke-width: 0.8"/>
      </g>
     </g>
     <g id="text_5">
      <!-- 0 -->
      <g transform="translate(411.53875 322.182437)scale(0.1 -0.1)">
       <defs>
        <path id="DejaVuSans-30" d="M 2034 4250 
Q 1547 4250 1301 3770 
Q 1056 3291 1056 2328 
Q 1056 1369 1301 889 
Q 1547 409 2034 409 
Q 2525 409 2770 889 
Q 3016 1369 3016 2328 
Q 3016 3291 2770 3770 
Q 2525 4250 2034 4250 
z
M 2034 4750 
Q 2819 4750 3233 4129 
Q 3647 3509 3647 2328 
Q 3647 1150 3233 529 
Q 2819 -91 2034 -91 
Q 1250 -91 836 529 
Q 422 1150 422 2328 
Q 422 3509 836 4129 
Q 1250 4750 2034 4750 
z
" transform="scale(0.015625)"/>
       </defs>
       <use xlink:href="#DejaVuSans-30"/>
      </g>
     </g>
    </g>
    <g id="text_6">
     <!-- deltaG -->
     <g transform="translate(219.621719 335.860562)scale(0.1 -0.1)">
      <defs>
       <path id="DejaVuSans-64" d="M 2906 2969 
L 2906 4863 
L 3481 4863 
L 3481 0 
L 2906 0 
L 2906 525 
Q 2725 213 2448 61 
Q 2172 -91 1784 -91 
Q 1150 -91 751 415 
Q 353 922 353 1747 
Q 353 2572 751 3078 
Q 1150 3584 1784 3584 
Q 2172 3584 2448 3432 
Q 2725 3281 2906 2969 
z
M 947 1747 
Q 947 1113 1208 752 
Q 1469 391 1925 391 
Q 2381 391 2643 752 
Q 2906 1113 2906 1747 
Q 2906 2381 2643 2742 
Q 2381 3103 1925 3103 
Q 1469 3103 1208 2742 
Q 947 2381 947 1747 
z
" transform="scale(0.015625)"/>
       <path id="DejaVuSans-65" d="M 3597 1894 
L 3597 1613 
L 953 1613 
Q 991 1019 1311 708 
Q 1631 397 2203 397 
Q 2534 397 2845 478 
Q 3156 559 3463 722 
L 3463 178 
Q 3153 47 2828 -22 
Q 2503 -91 2169 -91 
Q 1331 -91 842 396 
Q 353 884 353 1716 
Q 353 2575 817 3079 
Q 1281 3584 2069 3584 
Q 2775 3584 3186 3129 
Q 3597 2675 3597 1894 
z
M 3022 2063 
Q 3016 2534 2758 2815 
Q 2500 3097 2075 3097 
Q 1594 3097 1305 2825 
Q 1016 2553 972 2059 
L 3022 2063 
z
" transform="scale(0.015625)"/>
       <path id="DejaVuSans-6c" d="M 603 4863 
L 1178 4863 
L 1178 0 
L 603 0 
L 603 4863 
z
" transform="scale(0.015625)"/>
       <path id="DejaVuSans-74" d="M 1172 4494 
L 1172 3500 
L 2356 3500 
L 2356 3053 
L 1172 3053 
L 1172 1153 
Q 1172 725 1289 603 
Q 1406 481 1766 481 
L 2356 481 
L 2356 0 
L 1766 0 
Q 1100 0 847 248 
Q 594 497 594 1153 
L 594 3053 
L 172 3053 
L 172 3500 
L 594 3500 
L 594 4494 
L 1172 4494 
z
" transform="scale(0.015625)"/>
       <path id="DejaVuSans-61" d="M 2194 1759 
Q 1497 1759 1228 1600 
Q 959 1441 959 1056 
Q 959 750 1161 570 
Q 1363 391 1709 391 
Q 2188 391 2477 730 
Q 2766 1069 2766 1631 
L 2766 1759 
L 2194 1759 
z
M 3341 1997 
L 3341 0 
L 2766 0 
L 2766 531 
Q 2569 213 2275 61 
Q 1981 -91 1556 -91 
Q 1019 -91 701 211 
Q 384 513 384 1019 
Q 384 1609 779 1909 
Q 1175 2209 1959 2209 
L 2766 2209 
L 2766 2266 
Q 2766 2663 2505 2880 
Q 2244 3097 1772 3097 
Q 1472 3097 1187 3025 
Q 903 2953 641 2809 
L 641 3341 
Q 956 3463 1253 3523 
Q 1550 3584 1831 3584 
Q 2591 3584 2966 3190 
Q 3341 2797 3341 1997 
z
" transform="scale(0.015625)"/>
       <path id="DejaVuSans-47" d="M 3809 666 
L 3809 1919 
L 2778 1919 
L 2778 2438 
L 4434 2438 
L 4434 434 
Q 4069 175 3628 42 
Q 3188 -91 2688 -91 
Q 1594 -91 976 548 
Q 359 1188 359 2328 
Q 359 3472 976 4111 
Q 1594 4750 2688 4750 
Q 3144 4750 3555 4637 
Q 3966 4525 4313 4306 
L 4313 3634 
Q 3963 3931 3569 4081 
Q 3175 4231 2741 4231 
Q 1884 4231 1454 3753 
Q 1025 3275 1025 2328 
Q 1025 1384 1454 906 
Q 1884 428 2741 428 
Q 3075 428 3337 486 
Q 3600 544 3809 666 
z
" transform="scale(0.015625)"/>
      </defs>
      <use xlink:href="#DejaVuSans-64"/>
      <use xlink:href="#DejaVuSans-65" x="63.476562"/>
      <use xlink:href="#DejaVuSans-6c" x="125"/>
      <use xlink:href="#DejaVuSans-74" x="152.783203"/>
      <use xlink:href="#DejaVuSans-61" x="191.992188"/>
      <use xlink:href="#DejaVuSans-47" x="253.271484"/>
     </g>
    </g>
   </g>
   <g id="matplotlib.axis_2">
    <g id="ytick_1">
     <g id="line2d_6">
      <defs>
       <path id="m4b736dc7d8" d="M 0 0 
L -3.5 0 
" style="stroke: #000000; stroke-width: 0.8"/>
      </defs>
      <g>
       <use xlink:href="#m4b736dc7d8" x="57.6" y="307.584" style="stroke: #000000; stroke-width: 0.8"/>
      </g>
     </g>
     <g id="text_7">
      <!-- 0 -->
      <g transform="translate(44.2375 311.383219)scale(0.1 -0.1)">
       <use xlink:href="#DejaVuSans-30"/>
      </g>
     </g>
    </g>
    <g id="ytick_2">
     <g id="line2d_7">
      <g>
       <use xlink:href="#m4b736dc7d8" x="57.6" y="257.889882" style="stroke: #000000; stroke-width: 0.8"/>
      </g>
     </g>
     <g id="text_8">
      <!-- 10 -->
      <g transform="translate(37.875 261.689101)scale(0.1 -0.1)">
       <use xlink:href="#DejaVuSans-31"/>
       <use xlink:href="#DejaVuSans-30" x="63.623047"/>
      </g>
     </g>
    </g>
    <g id="ytick_3">
     <g id="line2d_8">
      <g>
       <use xlink:href="#m4b736dc7d8" x="57.6" y="208.195765" style="stroke: #000000; stroke-width: 0.8"/>
      </g>
     </g>
     <g id="text_9">
      <!-- 20 -->
      <g transform="translate(37.875 211.994983)scale(0.1 -0.1)">
       <use xlink:href="#DejaVuSans-32"/>
       <use xlink:href="#DejaVuSans-30" x="63.623047"/>
      </g>
     </g>
    </g>
    <g id="ytick_4">
     <g id="line2d_9">
      <g>
       <use xlink:href="#m4b736dc7d8" x="57.6" y="158.501647" style="stroke: #000000; stroke-width: 0.8"/>
      </g>
     </g>
     <g id="text_10">
      <!-- 30 -->
      <g transform="translate(37.875 162.300866)scale(0.1 -0.1)">
       <use xlink:href="#DejaVuSans-33"/>
       <use xlink:href="#DejaVuSans-30" x="63.623047"/>
      </g>
     </g>
    </g>
    <g id="ytick_5">
     <g id="line2d_10">
      <g>
       <use xlink:href="#m4b736dc7d8" x="57.6" y="108.807529" style="stroke: #000000; stroke-width: 0.8"/>
      </g>
     </g>
     <g id="text_11">
      <!-- 40 -->
      <g transform="translate(37.875 112.606748)scale(0.1 -0.1)">
       <use xlink:href="#DejaVuSans-34"/>
       <use xlink:href="#DejaVuSans-30" x="63.623047"/>
      </g>
     </g>
    </g>
    <g id="ytick_6">
     <g id="line2d_11">
      <g>
       <use xlink:href="#m4b736dc7d8" x="57.6" y="59.113412" style="stroke: #000000; stroke-width: 0.8"/>
      </g>
     </g>
     <g id="text_12">
      <!-- 50 -->
      <g transform="translate(37.875 62.912631)scale(0.1 -0.1)">
       <defs>
        <path id="DejaVuSans-35" d="M 691 4666 
L 3169 4666 
L 3169 4134 
L 1269 4134 
L 1269 2991 
Q 1406 3038 1543 3061 
Q 1681 3084 1819 3084 
Q 2600 3084 3056 2656 
Q 3513 2228 3513 1497 
Q 3513 744 3044 326 
Q 2575 -91 1722 -91 
Q 1428 -91 1123 -41 
Q 819 9 494 109 
L 494 744 
Q 775 591 1075 516 
Q 1375 441 1709 441 
Q 2250 441 2565 725 
Q 2881 1009 2881 1497 
Q 2881 1984 2565 2268 
Q 2250 2553 1709 2553 
Q 1456 2553 1204 2497 
Q 953 2441 691 2322 
L 691 4666 
z
" transform="scale(0.015625)"/>
       </defs>
       <use xlink:href="#DejaVuSans-35"/>
       <use xlink:href="#DejaVuSans-30" x="63.623047"/>
      </g>
     </g>
    </g>
    <g id="text_13">
     <!-- Frequency -->
     <g transform="translate(31.795312 200.357687)rotate(-90)scale(0.1 -0.1)">
      <defs>
       <path id="DejaVuSans-46" d="M 628 4666 
L 3309 4666 
L 3309 4134 
L 1259 4134 
L 1259 2759 
L 3109 2759 
L 3109 2228 
L 1259 2228 
L 1259 0 
L 628 0 
L 628 4666 
z
" transform="scale(0.015625)"/>
       <path id="DejaVuSans-72" d="M 2631 2963 
Q 2534 3019 2420 3045 
Q 2306 3072 2169 3072 
Q 1681 3072 1420 2755 
Q 1159 2438 1159 1844 
L 1159 0 
L 581 0 
L 581 3500 
L 1159 3500 
L 1159 2956 
Q 1341 3275 1631 3429 
Q 1922 3584 2338 3584 
Q 2397 3584 2469 3576 
Q 2541 3569 2628 3553 
L 2631 2963 
z
" transform="scale(0.015625)"/>
       <path id="DejaVuSans-71" d="M 947 1747 
Q 947 1113 1208 752 
Q 1469 391 1925 391 
Q 2381 391 2643 752 
Q 2906 1113 2906 1747 
Q 2906 2381 2643 2742 
Q 2381 3103 1925 3103 
Q 1469 3103 1208 2742 
Q 947 2381 947 1747 
z
M 2906 525 
Q 2725 213 2448 61 
Q 2172 -91 1784 -91 
Q 1150 -91 751 415 
Q 353 922 353 1747 
Q 353 2572 751 3078 
Q 1150 3584 1784 3584 
Q 2172 3584 2448 3432 
Q 2725 3281 2906 2969 
L 2906 3500 
L 3481 3500 
L 3481 -1331 
L 2906 -1331 
L 2906 525 
z
" transform="scale(0.015625)"/>
       <path id="DejaVuSans-75" d="M 544 1381 
L 544 3500 
L 1119 3500 
L 1119 1403 
Q 1119 906 1312 657 
Q 1506 409 1894 409 
Q 2359 409 2629 706 
Q 2900 1003 2900 1516 
L 2900 3500 
L 3475 3500 
L 3475 0 
L 2900 0 
L 2900 538 
Q 2691 219 2414 64 
Q 2138 -91 1772 -91 
Q 1169 -91 856 284 
Q 544 659 544 1381 
z
M 1991 3584 
L 1991 3584 
z
" transform="scale(0.015625)"/>
       <path id="DejaVuSans-6e" d="M 3513 2113 
L 3513 0 
L 2938 0 
L 2938 2094 
Q 2938 2591 2744 2837 
Q 2550 3084 2163 3084 
Q 1697 3084 1428 2787 
Q 1159 2491 1159 1978 
L 1159 0 
L 581 0 
L 581 3500 
L 1159 3500 
L 1159 2956 
Q 1366 3272 1645 3428 
Q 1925 3584 2291 3584 
Q 2894 3584 3203 3211 
Q 3513 2838 3513 2113 
z
" transform="scale(0.015625)"/>
       <path id="DejaVuSans-63" d="M 3122 3366 
L 3122 2828 
Q 2878 2963 2633 3030 
Q 2388 3097 2138 3097 
Q 1578 3097 1268 2742 
Q 959 2388 959 1747 
Q 959 1106 1268 751 
Q 1578 397 2138 397 
Q 2388 397 2633 464 
Q 2878 531 3122 666 
L 3122 134 
Q 2881 22 2623 -34 
Q 2366 -91 2075 -91 
Q 1284 -91 818 406 
Q 353 903 353 1747 
Q 353 2603 823 3093 
Q 1294 3584 2113 3584 
Q 2378 3584 2631 3529 
Q 2884 3475 3122 3366 
z
" transform="scale(0.015625)"/>
       <path id="DejaVuSans-79" d="M 2059 -325 
Q 1816 -950 1584 -1140 
Q 1353 -1331 966 -1331 
L 506 -1331 
L 506 -850 
L 844 -850 
Q 1081 -850 1212 -737 
Q 1344 -625 1503 -206 
L 1606 56 
L 191 3500 
L 800 3500 
L 1894 763 
L 2988 3500 
L 3597 3500 
L 2059 -325 
z
" transform="scale(0.015625)"/>
      </defs>
      <use xlink:href="#DejaVuSans-46"/>
      <use xlink:href="#DejaVuSans-72" x="50.269531"/>
      <use xlink:href="#DejaVuSans-65" x="89.132812"/>
      <use xlink:href="#DejaVuSans-71" x="150.65625"/>
      <use xlink:href="#DejaVuSans-75" x="214.132812"/>
      <use xlink:href="#DejaVuSans-65" x="277.511719"/>
      <use xlink:href="#DejaVuSans-6e" x="339.035156"/>
      <use xlink:href="#DejaVuSans-63" x="402.414062"/>
      <use xlink:href="#DejaVuSans-79" x="457.394531"/>
     </g>
    </g>
   </g>
   <g id="line2d_12">
    <path d="M 57.6 295.841163 
L 61.207273 293.193606 
L 64.814545 290.147364 
L 68.421818 286.692462 
L 72.029091 282.831161 
L 75.636364 278.580005 
L 79.243636 273.971374 
L 82.850909 269.054341 
L 86.458182 263.894685 
L 90.065455 258.573932 
L 93.672727 253.187371 
L 97.28 247.841083 
L 100.887273 242.648063 
L 104.494545 237.723638 
L 108.101818 233.180427 
L 111.709091 229.123145 
L 115.316364 225.64359 
L 118.923636 222.816144 
L 122.530909 220.694096 
L 126.138182 219.307037 
L 129.745455 218.659513 
L 133.352727 218.731014 
L 136.96 219.477291 
L 140.567273 220.832901 
L 144.174545 222.714792 
L 147.781818 225.026671 
L 151.389091 227.663856 
L 154.996364 230.518317 
L 158.603636 233.483578 
L 162.210909 236.459223 
L 165.818182 239.354773 
L 169.425455 242.092775 
L 173.032727 244.611007 
L 176.64 246.863762 
L 180.247273 248.822254 
L 183.854545 250.474208 
L 187.461818 251.822768 
L 191.069091 252.884844 
L 194.676364 253.689045 
L 198.283636 254.273342 
L 201.890909 254.682589 
L 205.498182 254.966009 
L 209.105455 255.174739 
L 212.712727 255.359524 
L 216.32 255.568596 
L 219.927273 255.845811 
L 223.534545 256.229077 
L 227.141818 256.749107 
L 230.749091 257.428525 
L 234.356364 258.281353 
L 237.963636 259.312878 
L 241.570909 260.519909 
L 245.178182 261.891403 
L 248.785455 263.409427 
L 252.392727 265.050398 
L 256 266.786548 
L 259.607273 268.58752 
L 263.214545 270.422007 
L 266.821818 272.259354 
L 270.429091 274.07101 
L 274.036364 275.831773 
L 277.643636 277.520753 
L 281.250909 279.122014 
L 284.858182 280.624859 
L 288.465455 282.023798 
L 292.072727 283.318179 
L 295.68 284.511572 
L 299.287273 285.610949 
L 302.894545 286.625733 
L 306.501818 287.566805 
L 310.109091 288.445535 
L 313.716364 289.272909 
L 317.323636 290.058796 
L 320.930909 290.811408 
L 324.538182 291.536947 
L 328.145455 292.239469 
L 331.752727 292.920926 
L 335.36 293.581377 
L 338.967273 294.219329 
L 342.574545 294.832161 
L 346.181818 295.416611 
L 349.789091 295.969262 
L 353.396364 296.487013 
L 357.003636 296.967497 
L 360.610909 297.409424 
L 364.218182 297.812826 
L 367.825455 298.179202 
L 371.432727 298.51155 
L 375.04 298.814282 
L 378.647273 299.09304 
L 382.254545 299.354414 
L 385.861818 299.605587 
L 389.469091 299.853924 
L 393.076364 300.106539 
L 396.683636 300.369871 
L 400.290909 300.649289 
L 403.898182 300.948777 
L 407.505455 301.270695 
L 411.112727 301.615662 
L 414.72 301.982551 
" clip-path="url(#pea4ccd5416)" style="fill: none; stroke: #696969; stroke-width: 1.5; stroke-linecap: square"/>
   </g>
   <g id="line2d_13">
    <path d="M 57.6 307.584 
L 61.207273 307.584 
L 64.814545 307.584 
L 68.421818 307.584 
L 72.029091 307.583999 
L 75.636364 307.583997 
L 79.243636 307.58399 
L 82.850909 307.583972 
L 86.458182 307.58392 
L 90.065455 307.583783 
L 93.672727 307.583436 
L 97.28 307.582589 
L 100.887273 307.58061 
L 104.494545 307.576174 
L 108.101818 307.566637 
L 111.709091 307.546966 
L 115.316364 307.508034 
L 118.923636 307.43409 
L 122.530909 307.299285 
L 126.138182 307.063339 
L 129.745455 306.666783 
L 133.352727 306.02663 
L 136.96 305.033865 
L 140.567273 303.554451 
L 144.174545 301.435571 
L 147.781818 298.518244 
L 151.389091 294.656301 
L 154.996364 289.739955 
L 158.603636 283.720401 
L 162.210909 276.630394 
L 165.818182 268.595316 
L 169.425455 259.830254 
L 173.032727 250.621102 
L 176.64 241.291407 
L 180.247273 232.160648 
L 183.854545 223.502783 
L 187.461818 215.51506 
L 191.069091 208.305433 
L 194.676364 201.902456 
L 198.283636 196.285097 
L 201.890909 191.423436 
L 205.498182 187.316908 
L 209.105455 184.016661 
L 212.712727 181.623336 
L 216.32 180.259968 
L 219.927273 180.028885 
L 223.534545 180.967916 
L 227.141818 183.022082 
L 230.749091 186.041773 
L 234.356364 189.808994 
L 237.963636 194.083377 
L 241.570909 198.652949 
L 245.178182 203.373605 
L 248.785455 208.185669 
L 252.392727 213.103982 
L 256 218.186366 
L 259.607273 223.491482 
L 263.214545 229.039268 
L 266.821818 234.785219 
L 270.429091 240.614694 
L 274.036364 246.357139 
L 277.643636 251.81451 
L 281.250909 256.794975 
L 284.858182 261.142951 
L 288.465455 264.759346 
L 292.072727 267.610119 
L 295.68 269.725127 
L 299.287273 271.191172 
L 302.894545 272.142735 
L 306.501818 272.751771 
L 310.109091 273.215638 
L 313.716364 273.741235 
L 317.323636 274.52433 
L 320.930909 275.725536 
L 324.538182 277.447107 
L 328.145455 279.716278 
L 331.752727 282.480268 
L 335.36 285.615361 
L 338.967273 288.948723 
L 342.574545 292.288044 
L 346.181818 295.45221 
L 349.789091 298.296384 
L 353.396364 300.727 
L 357.003636 302.705262 
L 360.610909 304.240716 
L 364.218182 305.378416 
L 367.825455 306.183821 
L 371.432727 306.728925 
L 375.04 307.081824 
L 378.647273 307.300452 
L 382.254545 307.430108 
L 385.861818 307.503734 
L 389.469091 307.543775 
L 393.076364 307.564634 
L 396.683636 307.575045 
L 400.290909 307.580023 
L 403.898182 307.582304 
L 407.505455 307.583306 
L 411.112727 307.583727 
L 414.72 307.583897 
" clip-path="url(#pea4ccd5416)" style="fill: none; stroke: #ff8c00; stroke-width: 1.5; stroke-linecap: square"/>
   </g>
   <g id="line2d_14">
    <path d="M 57.6 307.584 
L 61.207273 307.584 
L 64.814545 307.584 
L 68.421818 307.584 
L 72.029091 307.584 
L 75.636364 307.584 
L 79.243636 307.583999 
L 82.850909 307.583997 
L 86.458182 307.583989 
L 90.065455 307.583966 
L 93.672727 307.5839 
L 97.28 307.583715 
L 100.887273 307.583229 
L 104.494545 307.58201 
L 108.101818 307.579099 
L 111.709091 307.572487 
L 115.316364 307.558199 
L 118.923636 307.528827 
L 122.530909 307.471381 
L 126.138182 307.364481 
L 129.745455 307.175179 
L 133.352727 306.85605 
L 136.96 306.343592 
L 140.567273 305.558984 
L 144.174545 304.411943 
L 147.781818 302.807351 
L 151.389091 300.652964 
L 154.996364 297.865364 
L 158.603636 294.371182 
L 162.210909 290.102173 
L 165.818182 284.985789 
L 169.425455 278.936145 
L 173.032727 271.852036 
L 176.64 263.6271 
L 180.247273 254.172458 
L 183.854545 243.445868 
L 187.461818 231.477037 
L 191.069091 218.378884 
L 194.676364 204.340225 
L 198.283636 189.603975 
L 201.890909 174.442392 
L 205.498182 159.142672 
L 209.105455 144.010891 
L 212.712727 129.391735 
L 216.32 115.690896 
L 219.927273 103.381933 
L 223.534545 92.98318 
L 227.141818 85.001934 
L 230.749091 79.857709 
L 234.356364 77.806899 
L 237.963636 78.892546 
L 241.570909 82.934221 
L 245.178182 89.558586 
L 248.785455 98.257855 
L 252.392727 108.457248 
L 256 119.575378 
L 259.607273 131.070364 
L 263.214545 142.473427 
L 266.821818 153.415871 
L 270.429091 163.653042 
L 274.036364 173.082644 
L 277.643636 181.749255 
L 281.250909 189.826033 
L 284.858182 197.569537 
L 288.465455 205.252415 
L 292.072727 213.087544 
L 295.68 221.162301 
L 299.287273 229.40106 
L 302.894545 237.567735 
L 306.501818 245.310307 
L 310.109091 252.238467 
L 313.716364 258.016481 
L 317.323636 262.448626 
L 320.930909 265.535219 
L 324.538182 267.483859 
L 328.145455 268.671617 
L 331.752727 269.566872 
L 335.36 270.630477 
L 338.967273 272.221551 
L 342.574545 274.531321 
L 346.181818 277.559831 
L 349.789091 281.137746 
L 353.396364 284.98328 
L 357.003636 288.776141 
L 360.610909 292.228408 
L 364.218182 295.136124 
L 367.825455 297.402961 
L 371.432727 299.035872 
L 375.04 300.119554 
L 378.647273 300.78048 
L 382.254545 301.15173 
L 385.861818 301.347328 
L 389.469091 301.450398 
L 393.076364 301.514511 
L 396.683636 301.573568 
L 400.290909 301.653696 
L 403.898182 301.781311 
L 407.505455 301.984299 
L 411.112727 302.286887 
L 414.72 302.701675 
" clip-path="url(#pea4ccd5416)" style="fill: none; stroke: #8a2be2; stroke-width: 1.5; stroke-linecap: square"/>
   </g>
   <g id="patch_29">
    <path d="M 57.6 307.584 
L 57.6 41.472 
" style="fill: none; stroke: #000000; stroke-width: 0.8; stroke-linejoin: miter; stroke-linecap: square"/>
   </g>
   <g id="patch_30">
    <path d="M 414.72 307.584 
L 414.72 41.472 
" style="fill: none; stroke: #000000; stroke-width: 0.8; stroke-linejoin: miter; stroke-linecap: square"/>
   </g>
   <g id="patch_31">
    <path d="M 57.6 307.584 
L 414.72 307.584 
" style="fill: none; stroke: #000000; stroke-width: 0.8; stroke-linejoin: miter; stroke-linecap: square"/>
   </g>
   <g id="patch_32">
    <path d="M 57.6 41.472 
L 414.72 41.472 
" style="fill: none; stroke: #000000; stroke-width: 0.8; stroke-linejoin: miter; stroke-linecap: square"/>
   </g>
   <g id="text_14">
    <!-- Histogram of deltaG values -->
    <g transform="translate(154.17 35.472)scale(0.12 -0.12)">
     <defs>
      <path id="DejaVuSans-48" d="M 628 4666 
L 1259 4666 
L 1259 2753 
L 3553 2753 
L 3553 4666 
L 4184 4666 
L 4184 0 
L 3553 0 
L 3553 2222 
L 1259 2222 
L 1259 0 
L 628 0 
L 628 4666 
z
" transform="scale(0.015625)"/>
      <path id="DejaVuSans-69" d="M 603 3500 
L 1178 3500 
L 1178 0 
L 603 0 
L 603 3500 
z
M 603 4863 
L 1178 4863 
L 1178 4134 
L 603 4134 
L 603 4863 
z
" transform="scale(0.015625)"/>
      <path id="DejaVuSans-73" d="M 2834 3397 
L 2834 2853 
Q 2591 2978 2328 3040 
Q 2066 3103 1784 3103 
Q 1356 3103 1142 2972 
Q 928 2841 928 2578 
Q 928 2378 1081 2264 
Q 1234 2150 1697 2047 
L 1894 2003 
Q 2506 1872 2764 1633 
Q 3022 1394 3022 966 
Q 3022 478 2636 193 
Q 2250 -91 1575 -91 
Q 1294 -91 989 -36 
Q 684 19 347 128 
L 347 722 
Q 666 556 975 473 
Q 1284 391 1588 391 
Q 1994 391 2212 530 
Q 2431 669 2431 922 
Q 2431 1156 2273 1281 
Q 2116 1406 1581 1522 
L 1381 1569 
Q 847 1681 609 1914 
Q 372 2147 372 2553 
Q 372 3047 722 3315 
Q 1072 3584 1716 3584 
Q 2034 3584 2315 3537 
Q 2597 3491 2834 3397 
z
" transform="scale(0.015625)"/>
      <path id="DejaVuSans-6f" d="M 1959 3097 
Q 1497 3097 1228 2736 
Q 959 2375 959 1747 
Q 959 1119 1226 758 
Q 1494 397 1959 397 
Q 2419 397 2687 759 
Q 2956 1122 2956 1747 
Q 2956 2369 2687 2733 
Q 2419 3097 1959 3097 
z
M 1959 3584 
Q 2709 3584 3137 3096 
Q 3566 2609 3566 1747 
Q 3566 888 3137 398 
Q 2709 -91 1959 -91 
Q 1206 -91 779 398 
Q 353 888 353 1747 
Q 353 2609 779 3096 
Q 1206 3584 1959 3584 
z
" transform="scale(0.015625)"/>
      <path id="DejaVuSans-67" d="M 2906 1791 
Q 2906 2416 2648 2759 
Q 2391 3103 1925 3103 
Q 1463 3103 1205 2759 
Q 947 2416 947 1791 
Q 947 1169 1205 825 
Q 1463 481 1925 481 
Q 2391 481 2648 825 
Q 2906 1169 2906 1791 
z
M 3481 434 
Q 3481 -459 3084 -895 
Q 2688 -1331 1869 -1331 
Q 1566 -1331 1297 -1286 
Q 1028 -1241 775 -1147 
L 775 -588 
Q 1028 -725 1275 -790 
Q 1522 -856 1778 -856 
Q 2344 -856 2625 -561 
Q 2906 -266 2906 331 
L 2906 616 
Q 2728 306 2450 153 
Q 2172 0 1784 0 
Q 1141 0 747 490 
Q 353 981 353 1791 
Q 353 2603 747 3093 
Q 1141 3584 1784 3584 
Q 2172 3584 2450 3431 
Q 2728 3278 2906 2969 
L 2906 3500 
L 3481 3500 
L 3481 434 
z
" transform="scale(0.015625)"/>
      <path id="DejaVuSans-6d" d="M 3328 2828 
Q 3544 3216 3844 3400 
Q 4144 3584 4550 3584 
Q 5097 3584 5394 3201 
Q 5691 2819 5691 2113 
L 5691 0 
L 5113 0 
L 5113 2094 
Q 5113 2597 4934 2840 
Q 4756 3084 4391 3084 
Q 3944 3084 3684 2787 
Q 3425 2491 3425 1978 
L 3425 0 
L 2847 0 
L 2847 2094 
Q 2847 2600 2669 2842 
Q 2491 3084 2119 3084 
Q 1678 3084 1418 2786 
Q 1159 2488 1159 1978 
L 1159 0 
L 581 0 
L 581 3500 
L 1159 3500 
L 1159 2956 
Q 1356 3278 1631 3431 
Q 1906 3584 2284 3584 
Q 2666 3584 2933 3390 
Q 3200 3197 3328 2828 
z
" transform="scale(0.015625)"/>
      <path id="DejaVuSans-20" transform="scale(0.015625)"/>
      <path id="DejaVuSans-66" d="M 2375 4863 
L 2375 4384 
L 1825 4384 
Q 1516 4384 1395 4259 
Q 1275 4134 1275 3809 
L 1275 3500 
L 2222 3500 
L 2222 3053 
L 1275 3053 
L 1275 0 
L 697 0 
L 697 3053 
L 147 3053 
L 147 3500 
L 697 3500 
L 697 3744 
Q 697 4328 969 4595 
Q 1241 4863 1831 4863 
L 2375 4863 
z
" transform="scale(0.015625)"/>
      <path id="DejaVuSans-76" d="M 191 3500 
L 800 3500 
L 1894 563 
L 2988 3500 
L 3597 3500 
L 2284 0 
L 1503 0 
L 191 3500 
z
" transform="scale(0.015625)"/>
     </defs>
     <use xlink:href="#DejaVuSans-48"/>
     <use xlink:href="#DejaVuSans-69" x="75.195312"/>
     <use xlink:href="#DejaVuSans-73" x="102.978516"/>
     <use xlink:href="#DejaVuSans-74" x="155.078125"/>
     <use xlink:href="#DejaVuSans-6f" x="194.287109"/>
     <use xlink:href="#DejaVuSans-67" x="255.46875"/>
     <use xlink:href="#DejaVuSans-72" x="318.945312"/>
     <use xlink:href="#DejaVuSans-61" x="360.058594"/>
     <use xlink:href="#DejaVuSans-6d" x="421.337891"/>
     <use xlink:href="#DejaVuSans-20" x="518.75"/>
     <use xlink:href="#DejaVuSans-6f" x="550.537109"/>
     <use xlink:href="#DejaVuSans-66" x="611.71875"/>
     <use xlink:href="#DejaVuSans-20" x="646.923828"/>
     <use xlink:href="#DejaVuSans-64" x="678.710938"/>
     <use xlink:href="#DejaVuSans-65" x="742.1875"/>
     <use xlink:href="#DejaVuSans-6c" x="803.710938"/>
     <use xlink:href="#DejaVuSans-74" x="831.494141"/>
     <use xlink:href="#DejaVuSans-61" x="870.703125"/>
     <use xlink:href="#DejaVuSans-47" x="931.982422"/>
     <use xlink:href="#DejaVuSans-20" x="1009.472656"/>
     <use xlink:href="#DejaVuSans-76" x="1041.259766"/>
     <use xlink:href="#DejaVuSans-61" x="1100.439453"/>
     <use xlink:href="#DejaVuSans-6c" x="1161.71875"/>
     <use xlink:href="#DejaVuSans-75" x="1189.501953"/>
     <use xlink:href="#DejaVuSans-65" x="1252.880859"/>
     <use xlink:href="#DejaVuSans-73" x="1314.404297"/>
    </g>
   </g>
   <g id="legend_1">
    <g id="patch_33">
     <path d="M 338.702813 93.506375 
L 407.72 93.506375 
Q 409.72 93.506375 409.72 91.506375 
L 409.72 48.472 
Q 409.72 46.472 407.72 46.472 
L 338.702813 46.472 
Q 336.702813 46.472 336.702813 48.472 
L 336.702813 91.506375 
Q 336.702813 93.506375 338.702813 93.506375 
z
" style="fill: #ffffff; opacity: 0.8; stroke: #cccccc; stroke-linejoin: miter"/>
    </g>
    <g id="text_15">
     <!-- G (82) -->
     <g transform="translate(368.702813 58.070438)scale(0.1 -0.1)">
      <defs>
       <path id="DejaVuSans-28" d="M 1984 4856 
Q 1566 4138 1362 3434 
Q 1159 2731 1159 2009 
Q 1159 1288 1364 580 
Q 1569 -128 1984 -844 
L 1484 -844 
Q 1016 -109 783 600 
Q 550 1309 550 2009 
Q 550 2706 781 3412 
Q 1013 4119 1484 4856 
L 1984 4856 
z
" transform="scale(0.015625)"/>
       <path id="DejaVuSans-38" d="M 2034 2216 
Q 1584 2216 1326 1975 
Q 1069 1734 1069 1313 
Q 1069 891 1326 650 
Q 1584 409 2034 409 
Q 2484 409 2743 651 
Q 3003 894 3003 1313 
Q 3003 1734 2745 1975 
Q 2488 2216 2034 2216 
z
M 1403 2484 
Q 997 2584 770 2862 
Q 544 3141 544 3541 
Q 544 4100 942 4425 
Q 1341 4750 2034 4750 
Q 2731 4750 3128 4425 
Q 3525 4100 3525 3541 
Q 3525 3141 3298 2862 
Q 3072 2584 2669 2484 
Q 3125 2378 3379 2068 
Q 3634 1759 3634 1313 
Q 3634 634 3220 271 
Q 2806 -91 2034 -91 
Q 1263 -91 848 271 
Q 434 634 434 1313 
Q 434 1759 690 2068 
Q 947 2378 1403 2484 
z
M 1172 3481 
Q 1172 3119 1398 2916 
Q 1625 2713 2034 2713 
Q 2441 2713 2670 2916 
Q 2900 3119 2900 3481 
Q 2900 3844 2670 4047 
Q 2441 4250 2034 4250 
Q 1625 4250 1398 4047 
Q 1172 3844 1172 3481 
z
" transform="scale(0.015625)"/>
       <path id="DejaVuSans-29" d="M 513 4856 
L 1013 4856 
Q 1481 4119 1714 3412 
Q 1947 2706 1947 2009 
Q 1947 1309 1714 600 
Q 1481 -109 1013 -844 
L 513 -844 
Q 928 -128 1133 580 
Q 1338 1288 1338 2009 
Q 1338 2731 1133 3434 
Q 928 4138 513 4856 
z
" transform="scale(0.015625)"/>
      </defs>
      <use xlink:href="#DejaVuSans-47"/>
      <use xlink:href="#DejaVuSans-20" x="77.490234"/>
      <use xlink:href="#DejaVuSans-28" x="109.277344"/>
      <use xlink:href="#DejaVuSans-38" x="148.291016"/>
      <use xlink:href="#DejaVuSans-32" x="211.914062"/>
      <use xlink:href="#DejaVuSans-29" x="275.537109"/>
     </g>
    </g>
    <g id="patch_34">
     <path d="M 340.702813 72.748563 
L 360.702813 72.748563 
L 360.702813 65.748563 
L 340.702813 65.748563 
L 340.702813 72.748563 
z
" style="fill: none; opacity: 0"/>
    </g>
    <g id="text_16">
     <!-- L (77) -->
     <g transform="translate(368.702813 72.748563)scale(0.1 -0.1)">
      <defs>
       <path id="DejaVuSans-4c" d="M 628 4666 
L 1259 4666 
L 1259 531 
L 3531 531 
L 3531 0 
L 628 0 
L 628 4666 
z
" transform="scale(0.015625)"/>
       <path id="DejaVuSans-37" d="M 525 4666 
L 3525 4666 
L 3525 4397 
L 1831 0 
L 1172 0 
L 2766 4134 
L 525 4134 
L 525 4666 
z
" transform="scale(0.015625)"/>
      </defs>
      <use xlink:href="#DejaVuSans-4c"/>
      <use xlink:href="#DejaVuSans-20" x="55.712891"/>
      <use xlink:href="#DejaVuSans-28" x="87.5"/>
      <use xlink:href="#DejaVuSans-37" x="126.513672"/>
      <use xlink:href="#DejaVuSans-37" x="190.136719"/>
      <use xlink:href="#DejaVuSans-29" x="253.759766"/>
     </g>
    </g>
    <g id="patch_35">
     <path d="M 340.702813 87.426688 
L 360.702813 87.426688 
L 360.702813 80.426688 
L 340.702813 80.426688 
L 340.702813 87.426688 
z
" style="fill: none; opacity: 0"/>
    </g>
    <g id="text_17">
     <!-- R (125) -->
     <g transform="translate(368.702813 87.426688)scale(0.1 -0.1)">
      <defs>
       <path id="DejaVuSans-52" d="M 2841 2188 
Q 3044 2119 3236 1894 
Q 3428 1669 3622 1275 
L 4263 0 
L 3584 0 
L 2988 1197 
Q 2756 1666 2539 1819 
Q 2322 1972 1947 1972 
L 1259 1972 
L 1259 0 
L 628 0 
L 628 4666 
L 2053 4666 
Q 2853 4666 3247 4331 
Q 3641 3997 3641 3322 
Q 3641 2881 3436 2590 
Q 3231 2300 2841 2188 
z
M 1259 4147 
L 1259 2491 
L 2053 2491 
Q 2509 2491 2742 2702 
Q 2975 2913 2975 3322 
Q 2975 3731 2742 3939 
Q 2509 4147 2053 4147 
L 1259 4147 
z
" transform="scale(0.015625)"/>
      </defs>
      <use xlink:href="#DejaVuSans-52"/>
      <use xlink:href="#DejaVuSans-20" x="69.482422"/>
      <use xlink:href="#DejaVuSans-28" x="101.269531"/>
      <use xlink:href="#DejaVuSans-31" x="140.283203"/>
      <use xlink:href="#DejaVuSans-32" x="203.90625"/>
      <use xlink:href="#DejaVuSans-35" x="267.529297"/>
      <use xlink:href="#DejaVuSans-29" x="331.152344"/>
     </g>
    </g>
   </g>
  </g>
 </g>
 <defs>
  <clipPath id="pea4ccd5416">
   <rect x="57.6" y="41.472" width="357.12" height="266.112"/>
  </clipPath>
 </defs>
</svg>
