<?xml version="1.0" encoding="utf-8" standalone="no"?>
<!DOCTYPE svg PUBLIC "-//W3C//DTD SVG 1.1//EN"
  "http://www.w3.org/Graphics/SVG/1.1/DTD/svg11.dtd">
<svg xmlns:xlink="http://www.w3.org/1999/xlink" width="408.104375pt" height="325.7745pt" viewBox="0 0 408.104375 325.7745" xmlns="http://www.w3.org/2000/svg" version="1.1">
 <metadata>
  <rdf:RDF xmlns:dc="http://purl.org/dc/elements/1.1/" xmlns:cc="http://creativecommons.org/ns#" xmlns:rdf="http://www.w3.org/1999/02/22-rdf-syntax-ns#">
   <cc:Work>
    <dc:type rdf:resource="http://purl.org/dc/dcmitype/StillImage"/>
    <dc:date>2024-07-12T12:15:49.827116</dc:date>
    <dc:format>image/svg+xml</dc:format>
    <dc:creator>
     <cc:Agent>
      <dc:title>Matplotlib v3.5.3, https://matplotlib.org/</dc:title>
     </cc:Agent>
    </dc:creator>
   </cc:Work>
  </rdf:RDF>
 </metadata>
 <defs>
  <style type="text/css">*{stroke-linejoin: round; stroke-linecap: butt}</style>
 </defs>
 <g id="figure_1">
  <g id="patch_1">
   <path d="M 0 325.7745 
L 408.104375 325.7745 
L 408.104375 0 
L 0 0 
z
" style="fill: #ffffff"/>
  </g>
  <g id="axes_1">
   <g id="patch_2">
    <path d="M 34.240625 288.21825 
L 391.360625 288.21825 
L 391.360625 22.10625 
L 34.240625 22.10625 
z
" style="fill: #ffffff"/>
   </g>
   <g id="matplotlib.axis_1">
    <g id="xtick_1">
     <g id="line2d_1">
      <defs>
       <path id="m69c78f5c7c" d="M 0 0 
L 0 3.5 
" style="stroke: #000000; stroke-width: 0.8"/>
      </defs>
      <g>
       <use xlink:href="#m69c78f5c7c" x="34.240625" y="288.21825" style="stroke: #000000; stroke-width: 0.8"/>
      </g>
     </g>
     <g id="text_1">
      <!-- 0 -->
      <g transform="translate(31.059375 302.816687)scale(0.1 -0.1)">
       <defs>
        <path id="DejaVuSans-30" d="M 2034 4250 
Q 1547 4250 1301 3770 
Q 1056 3291 1056 2328 
Q 1056 1369 1301 889 
Q 1547 409 2034 409 
Q 2525 409 2770 889 
Q 3016 1369 3016 2328 
Q 3016 3291 2770 3770 
Q 2525 4250 2034 4250 
z
M 2034 4750 
Q 2819 4750 3233 4129 
Q 3647 3509 3647 2328 
Q 3647 1150 3233 529 
Q 2819 -91 2034 -91 
Q 1250 -91 836 529 
Q 422 1150 422 2328 
Q 422 3509 836 4129 
Q 1250 4750 2034 4750 
z
" transform="scale(0.015625)"/>
       </defs>
       <use xlink:href="#DejaVuSans-30"/>
      </g>
     </g>
    </g>
    <g id="xtick_2">
     <g id="line2d_2">
      <g>
       <use xlink:href="#m69c78f5c7c" x="105.664625" y="288.21825" style="stroke: #000000; stroke-width: 0.8"/>
      </g>
     </g>
     <g id="text_2">
      <!-- 20 -->
      <g transform="translate(99.302125 302.816687)scale(0.1 -0.1)">
       <defs>
        <path id="DejaVuSans-32" d="M 1228 531 
L 3431 531 
L 3431 0 
L 469 0 
L 469 531 
Q 828 903 1448 1529 
Q 2069 2156 2228 2338 
Q 2531 2678 2651 2914 
Q 2772 3150 2772 3378 
Q 2772 3750 2511 3984 
Q 2250 4219 1831 4219 
Q 1534 4219 1204 4116 
Q 875 4013 500 3803 
L 500 4441 
Q 881 4594 1212 4672 
Q 1544 4750 1819 4750 
Q 2544 4750 2975 4387 
Q 3406 4025 3406 3419 
Q 3406 3131 3298 2873 
Q 3191 2616 2906 2266 
Q 2828 2175 2409 1742 
Q 1991 1309 1228 531 
z
" transform="scale(0.015625)"/>
       </defs>
       <use xlink:href="#DejaVuSans-32"/>
       <use xlink:href="#DejaVuSans-30" x="63.623047"/>
      </g>
     </g>
    </g>
    <g id="xtick_3">
     <g id="line2d_3">
      <g>
       <use xlink:href="#m69c78f5c7c" x="177.088625" y="288.21825" style="stroke: #000000; stroke-width: 0.8"/>
      </g>
     </g>
     <g id="text_3">
      <!-- 40 -->
      <g transform="translate(170.726125 302.816687)scale(0.1 -0.1)">
       <defs>
        <path id="DejaVuSans-34" d="M 2419 4116 
L 825 1625 
L 2419 1625 
L 2419 4116 
z
M 2253 4666 
L 3047 4666 
L 3047 1625 
L 3713 1625 
L 3713 1100 
L 3047 1100 
L 3047 0 
L 2419 0 
L 2419 1100 
L 313 1100 
L 313 1709 
L 2253 4666 
z
" transform="scale(0.015625)"/>
       </defs>
       <use xlink:href="#DejaVuSans-34"/>
       <use xlink:href="#DejaVuSans-30" x="63.623047"/>
      </g>
     </g>
    </g>
    <g id="xtick_4">
     <g id="line2d_4">
      <g>
       <use xlink:href="#m69c78f5c7c" x="248.512625" y="288.21825" style="stroke: #000000; stroke-width: 0.8"/>
      </g>
     </g>
     <g id="text_4">
      <!-- 60 -->
      <g transform="translate(242.150125 302.816687)scale(0.1 -0.1)">
       <defs>
        <path id="DejaVuSans-36" d="M 2113 2584 
Q 1688 2584 1439 2293 
Q 1191 2003 1191 1497 
Q 1191 994 1439 701 
Q 1688 409 2113 409 
Q 2538 409 2786 701 
Q 3034 994 3034 1497 
Q 3034 2003 2786 2293 
Q 2538 2584 2113 2584 
z
M 3366 4563 
L 3366 3988 
Q 3128 4100 2886 4159 
Q 2644 4219 2406 4219 
Q 1781 4219 1451 3797 
Q 1122 3375 1075 2522 
Q 1259 2794 1537 2939 
Q 1816 3084 2150 3084 
Q 2853 3084 3261 2657 
Q 3669 2231 3669 1497 
Q 3669 778 3244 343 
Q 2819 -91 2113 -91 
Q 1303 -91 875 529 
Q 447 1150 447 2328 
Q 447 3434 972 4092 
Q 1497 4750 2381 4750 
Q 2619 4750 2861 4703 
Q 3103 4656 3366 4563 
z
" transform="scale(0.015625)"/>
       </defs>
       <use xlink:href="#DejaVuSans-36"/>
       <use xlink:href="#DejaVuSans-30" x="63.623047"/>
      </g>
     </g>
    </g>
    <g id="xtick_5">
     <g id="line2d_5">
      <g>
       <use xlink:href="#m69c78f5c7c" x="319.936625" y="288.21825" style="stroke: #000000; stroke-width: 0.8"/>
      </g>
     </g>
     <g id="text_5">
      <!-- 80 -->
      <g transform="translate(313.574125 302.816687)scale(0.1 -0.1)">
       <defs>
        <path id="DejaVuSans-38" d="M 2034 2216 
Q 1584 2216 1326 1975 
Q 1069 1734 1069 1313 
Q 1069 891 1326 650 
Q 1584 409 2034 409 
Q 2484 409 2743 651 
Q 3003 894 3003 1313 
Q 3003 1734 2745 1975 
Q 2488 2216 2034 2216 
z
M 1403 2484 
Q 997 2584 770 2862 
Q 544 3141 544 3541 
Q 544 4100 942 4425 
Q 1341 4750 2034 4750 
Q 2731 4750 3128 4425 
Q 3525 4100 3525 3541 
Q 3525 3141 3298 2862 
Q 3072 2584 2669 2484 
Q 3125 2378 3379 2068 
Q 3634 1759 3634 1313 
Q 3634 634 3220 271 
Q 2806 -91 2034 -91 
Q 1263 -91 848 271 
Q 434 634 434 1313 
Q 434 1759 690 2068 
Q 947 2378 1403 2484 
z
M 1172 3481 
Q 1172 3119 1398 2916 
Q 1625 2713 2034 2713 
Q 2441 2713 2670 2916 
Q 2900 3119 2900 3481 
Q 2900 3844 2670 4047 
Q 2441 4250 2034 4250 
Q 1625 4250 1398 4047 
Q 1172 3844 1172 3481 
z
" transform="scale(0.015625)"/>
       </defs>
       <use xlink:href="#DejaVuSans-38"/>
       <use xlink:href="#DejaVuSans-30" x="63.623047"/>
      </g>
     </g>
    </g>
    <g id="xtick_6">
     <g id="line2d_6">
      <g>
       <use xlink:href="#m69c78f5c7c" x="391.360625" y="288.21825" style="stroke: #000000; stroke-width: 0.8"/>
      </g>
     </g>
     <g id="text_6">
      <!-- 100 -->
      <g transform="translate(381.816875 302.816687)scale(0.1 -0.1)">
       <defs>
        <path id="DejaVuSans-31" d="M 794 531 
L 1825 531 
L 1825 4091 
L 703 3866 
L 703 4441 
L 1819 4666 
L 2450 4666 
L 2450 531 
L 3481 531 
L 3481 0 
L 794 0 
L 794 531 
z
" transform="scale(0.015625)"/>
       </defs>
       <use xlink:href="#DejaVuSans-31"/>
       <use xlink:href="#DejaVuSans-30" x="63.623047"/>
       <use xlink:href="#DejaVuSans-30" x="127.246094"/>
      </g>
     </g>
    </g>
    <g id="text_7">
     <!-- axialRotation -->
     <g transform="translate(180.024844 316.494812)scale(0.1 -0.1)">
      <defs>
       <path id="DejaVuSans-61" d="M 2194 1759 
Q 1497 1759 1228 1600 
Q 959 1441 959 1056 
Q 959 750 1161 570 
Q 1363 391 1709 391 
Q 2188 391 2477 730 
Q 2766 1069 2766 1631 
L 2766 1759 
L 2194 1759 
z
M 3341 1997 
L 3341 0 
L 2766 0 
L 2766 531 
Q 2569 213 2275 61 
Q 1981 -91 1556 -91 
Q 1019 -91 701 211 
Q 384 513 384 1019 
Q 384 1609 779 1909 
Q 1175 2209 1959 2209 
L 2766 2209 
L 2766 2266 
Q 2766 2663 2505 2880 
Q 2244 3097 1772 3097 
Q 1472 3097 1187 3025 
Q 903 2953 641 2809 
L 641 3341 
Q 956 3463 1253 3523 
Q 1550 3584 1831 3584 
Q 2591 3584 2966 3190 
Q 3341 2797 3341 1997 
z
" transform="scale(0.015625)"/>
       <path id="DejaVuSans-78" d="M 3513 3500 
L 2247 1797 
L 3578 0 
L 2900 0 
L 1881 1375 
L 863 0 
L 184 0 
L 1544 1831 
L 300 3500 
L 978 3500 
L 1906 2253 
L 2834 3500 
L 3513 3500 
z
" transform="scale(0.015625)"/>
       <path id="DejaVuSans-69" d="M 603 3500 
L 1178 3500 
L 1178 0 
L 603 0 
L 603 3500 
z
M 603 4863 
L 1178 4863 
L 1178 4134 
L 603 4134 
L 603 4863 
z
" transform="scale(0.015625)"/>
       <path id="DejaVuSans-6c" d="M 603 4863 
L 1178 4863 
L 1178 0 
L 603 0 
L 603 4863 
z
" transform="scale(0.015625)"/>
       <path id="DejaVuSans-52" d="M 2841 2188 
Q 3044 2119 3236 1894 
Q 3428 1669 3622 1275 
L 4263 0 
L 3584 0 
L 2988 1197 
Q 2756 1666 2539 1819 
Q 2322 1972 1947 1972 
L 1259 1972 
L 1259 0 
L 628 0 
L 628 4666 
L 2053 4666 
Q 2853 4666 3247 4331 
Q 3641 3997 3641 3322 
Q 3641 2881 3436 2590 
Q 3231 2300 2841 2188 
z
M 1259 4147 
L 1259 2491 
L 2053 2491 
Q 2509 2491 2742 2702 
Q 2975 2913 2975 3322 
Q 2975 3731 2742 3939 
Q 2509 4147 2053 4147 
L 1259 4147 
z
" transform="scale(0.015625)"/>
       <path id="DejaVuSans-6f" d="M 1959 3097 
Q 1497 3097 1228 2736 
Q 959 2375 959 1747 
Q 959 1119 1226 758 
Q 1494 397 1959 397 
Q 2419 397 2687 759 
Q 2956 1122 2956 1747 
Q 2956 2369 2687 2733 
Q 2419 3097 1959 3097 
z
M 1959 3584 
Q 2709 3584 3137 3096 
Q 3566 2609 3566 1747 
Q 3566 888 3137 398 
Q 2709 -91 1959 -91 
Q 1206 -91 779 398 
Q 353 888 353 1747 
Q 353 2609 779 3096 
Q 1206 3584 1959 3584 
z
" transform="scale(0.015625)"/>
       <path id="DejaVuSans-74" d="M 1172 4494 
L 1172 3500 
L 2356 3500 
L 2356 3053 
L 1172 3053 
L 1172 1153 
Q 1172 725 1289 603 
Q 1406 481 1766 481 
L 2356 481 
L 2356 0 
L 1766 0 
Q 1100 0 847 248 
Q 594 497 594 1153 
L 594 3053 
L 172 3053 
L 172 3500 
L 594 3500 
L 594 4494 
L 1172 4494 
z
" transform="scale(0.015625)"/>
       <path id="DejaVuSans-6e" d="M 3513 2113 
L 3513 0 
L 2938 0 
L 2938 2094 
Q 2938 2591 2744 2837 
Q 2550 3084 2163 3084 
Q 1697 3084 1428 2787 
Q 1159 2491 1159 1978 
L 1159 0 
L 581 0 
L 581 3500 
L 1159 3500 
L 1159 2956 
Q 1366 3272 1645 3428 
Q 1925 3584 2291 3584 
Q 2894 3584 3203 3211 
Q 3513 2838 3513 2113 
z
" transform="scale(0.015625)"/>
      </defs>
      <use xlink:href="#DejaVuSans-61"/>
      <use xlink:href="#DejaVuSans-78" x="61.279297"/>
      <use xlink:href="#DejaVuSans-69" x="120.458984"/>
      <use xlink:href="#DejaVuSans-61" x="148.242188"/>
      <use xlink:href="#DejaVuSans-6c" x="209.521484"/>
      <use xlink:href="#DejaVuSans-52" x="237.304688"/>
      <use xlink:href="#DejaVuSans-6f" x="302.287109"/>
      <use xlink:href="#DejaVuSans-74" x="363.46875"/>
      <use xlink:href="#DejaVuSans-61" x="402.677734"/>
      <use xlink:href="#DejaVuSans-74" x="463.957031"/>
      <use xlink:href="#DejaVuSans-69" x="503.166016"/>
      <use xlink:href="#DejaVuSans-6f" x="530.949219"/>
      <use xlink:href="#DejaVuSans-6e" x="592.130859"/>
     </g>
    </g>
   </g>
   <g id="matplotlib.axis_2">
    <g id="ytick_1">
     <g id="line2d_7">
      <defs>
       <path id="m7eb1c43cd6" d="M 0 0 
L -3.5 0 
" style="stroke: #000000; stroke-width: 0.8"/>
      </defs>
      <g>
       <use xlink:href="#m7eb1c43cd6" x="34.240625" y="288.21825" style="stroke: #000000; stroke-width: 0.8"/>
      </g>
     </g>
     <g id="text_8">
      <!-- 0 -->
      <g transform="translate(20.878125 292.017469)scale(0.1 -0.1)">
       <use xlink:href="#DejaVuSans-30"/>
      </g>
     </g>
    </g>
    <g id="ytick_2">
     <g id="line2d_8">
      <g>
       <use xlink:href="#m7eb1c43cd6" x="34.240625" y="243.86625" style="stroke: #000000; stroke-width: 0.8"/>
      </g>
     </g>
     <g id="text_9">
      <!-- 1 -->
      <g transform="translate(20.878125 247.665469)scale(0.1 -0.1)">
       <use xlink:href="#DejaVuSans-31"/>
      </g>
     </g>
    </g>
    <g id="ytick_3">
     <g id="line2d_9">
      <g>
       <use xlink:href="#m7eb1c43cd6" x="34.240625" y="199.51425" style="stroke: #000000; stroke-width: 0.8"/>
      </g>
     </g>
     <g id="text_10">
      <!-- 2 -->
      <g transform="translate(20.878125 203.313469)scale(0.1 -0.1)">
       <use xlink:href="#DejaVuSans-32"/>
      </g>
     </g>
    </g>
    <g id="ytick_4">
     <g id="line2d_10">
      <g>
       <use xlink:href="#m7eb1c43cd6" x="34.240625" y="155.16225" style="stroke: #000000; stroke-width: 0.8"/>
      </g>
     </g>
     <g id="text_11">
      <!-- 3 -->
      <g transform="translate(20.878125 158.961469)scale(0.1 -0.1)">
       <defs>
        <path id="DejaVuSans-33" d="M 2597 2516 
Q 3050 2419 3304 2112 
Q 3559 1806 3559 1356 
Q 3559 666 3084 287 
Q 2609 -91 1734 -91 
Q 1441 -91 1130 -33 
Q 819 25 488 141 
L 488 750 
Q 750 597 1062 519 
Q 1375 441 1716 441 
Q 2309 441 2620 675 
Q 2931 909 2931 1356 
Q 2931 1769 2642 2001 
Q 2353 2234 1838 2234 
L 1294 2234 
L 1294 2753 
L 1863 2753 
Q 2328 2753 2575 2939 
Q 2822 3125 2822 3475 
Q 2822 3834 2567 4026 
Q 2313 4219 1838 4219 
Q 1578 4219 1281 4162 
Q 984 4106 628 3988 
L 628 4550 
Q 988 4650 1302 4700 
Q 1616 4750 1894 4750 
Q 2613 4750 3031 4423 
Q 3450 4097 3450 3541 
Q 3450 3153 3228 2886 
Q 3006 2619 2597 2516 
z
" transform="scale(0.015625)"/>
       </defs>
       <use xlink:href="#DejaVuSans-33"/>
      </g>
     </g>
    </g>
    <g id="ytick_5">
     <g id="line2d_11">
      <g>
       <use xlink:href="#m7eb1c43cd6" x="34.240625" y="110.81025" style="stroke: #000000; stroke-width: 0.8"/>
      </g>
     </g>
     <g id="text_12">
      <!-- 4 -->
      <g transform="translate(20.878125 114.609469)scale(0.1 -0.1)">
       <use xlink:href="#DejaVuSans-34"/>
      </g>
     </g>
    </g>
    <g id="ytick_6">
     <g id="line2d_12">
      <g>
       <use xlink:href="#m7eb1c43cd6" x="34.240625" y="66.45825" style="stroke: #000000; stroke-width: 0.8"/>
      </g>
     </g>
     <g id="text_13">
      <!-- 5 -->
      <g transform="translate(20.878125 70.257469)scale(0.1 -0.1)">
       <defs>
        <path id="DejaVuSans-35" d="M 691 4666 
L 3169 4666 
L 3169 4134 
L 1269 4134 
L 1269 2991 
Q 1406 3038 1543 3061 
Q 1681 3084 1819 3084 
Q 2600 3084 3056 2656 
Q 3513 2228 3513 1497 
Q 3513 744 3044 326 
Q 2575 -91 1722 -91 
Q 1428 -91 1123 -41 
Q 819 9 494 109 
L 494 744 
Q 775 591 1075 516 
Q 1375 441 1709 441 
Q 2250 441 2565 725 
Q 2881 1009 2881 1497 
Q 2881 1984 2565 2268 
Q 2250 2553 1709 2553 
Q 1456 2553 1204 2497 
Q 953 2441 691 2322 
L 691 4666 
z
" transform="scale(0.015625)"/>
       </defs>
       <use xlink:href="#DejaVuSans-35"/>
      </g>
     </g>
    </g>
    <g id="ytick_7">
     <g id="line2d_13">
      <g>
       <use xlink:href="#m7eb1c43cd6" x="34.240625" y="22.10625" style="stroke: #000000; stroke-width: 0.8"/>
      </g>
     </g>
     <g id="text_14">
      <!-- 6 -->
      <g transform="translate(20.878125 25.905469)scale(0.1 -0.1)">
       <use xlink:href="#DejaVuSans-36"/>
      </g>
     </g>
    </g>
    <g id="text_15">
     <!-- zShift -->
     <g transform="translate(14.798438 169.151312)rotate(-90)scale(0.1 -0.1)">
      <defs>
       <path id="DejaVuSans-7a" d="M 353 3500 
L 3084 3500 
L 3084 2975 
L 922 459 
L 3084 459 
L 3084 0 
L 275 0 
L 275 525 
L 2438 3041 
L 353 3041 
L 353 3500 
z
" transform="scale(0.015625)"/>
       <path id="DejaVuSans-53" d="M 3425 4513 
L 3425 3897 
Q 3066 4069 2747 4153 
Q 2428 4238 2131 4238 
Q 1616 4238 1336 4038 
Q 1056 3838 1056 3469 
Q 1056 3159 1242 3001 
Q 1428 2844 1947 2747 
L 2328 2669 
Q 3034 2534 3370 2195 
Q 3706 1856 3706 1288 
Q 3706 609 3251 259 
Q 2797 -91 1919 -91 
Q 1588 -91 1214 -16 
Q 841 59 441 206 
L 441 856 
Q 825 641 1194 531 
Q 1563 422 1919 422 
Q 2459 422 2753 634 
Q 3047 847 3047 1241 
Q 3047 1584 2836 1778 
Q 2625 1972 2144 2069 
L 1759 2144 
Q 1053 2284 737 2584 
Q 422 2884 422 3419 
Q 422 4038 858 4394 
Q 1294 4750 2059 4750 
Q 2388 4750 2728 4690 
Q 3069 4631 3425 4513 
z
" transform="scale(0.015625)"/>
       <path id="DejaVuSans-68" d="M 3513 2113 
L 3513 0 
L 2938 0 
L 2938 2094 
Q 2938 2591 2744 2837 
Q 2550 3084 2163 3084 
Q 1697 3084 1428 2787 
Q 1159 2491 1159 1978 
L 1159 0 
L 581 0 
L 581 4863 
L 1159 4863 
L 1159 2956 
Q 1366 3272 1645 3428 
Q 1925 3584 2291 3584 
Q 2894 3584 3203 3211 
Q 3513 2838 3513 2113 
z
" transform="scale(0.015625)"/>
       <path id="DejaVuSans-66" d="M 2375 4863 
L 2375 4384 
L 1825 4384 
Q 1516 4384 1395 4259 
Q 1275 4134 1275 3809 
L 1275 3500 
L 2222 3500 
L 2222 3053 
L 1275 3053 
L 1275 0 
L 697 0 
L 697 3053 
L 147 3053 
L 147 3500 
L 697 3500 
L 697 3744 
Q 697 4328 969 4595 
Q 1241 4863 1831 4863 
L 2375 4863 
z
" transform="scale(0.015625)"/>
      </defs>
      <use xlink:href="#DejaVuSans-7a"/>
      <use xlink:href="#DejaVuSans-53" x="52.490234"/>
      <use xlink:href="#DejaVuSans-68" x="115.966797"/>
      <use xlink:href="#DejaVuSans-69" x="179.345703"/>
      <use xlink:href="#DejaVuSans-66" x="207.128906"/>
      <use xlink:href="#DejaVuSans-74" x="240.583984"/>
     </g>
    </g>
   </g>
   <g id="PathCollection_1"/>
   <g id="PathCollection_2">
    <path d="M 34.240625 136.062336 
L 36.026225 136.069618 
L 37.847537 136.260364 
L 39.633137 136.636874 
L 41.418737 137.218846 
L 42.852099 137.86497 
L 43.204337 138.022277 
L 45.025649 139.060616 
L 46.811249 140.386991 
L 46.971482 140.52609 
L 48.596849 142.03424 
L 49.630653 143.18721 
L 50.382449 144.126261 
L 51.589858 145.84833 
L 52.203761 146.878767 
L 53.095235 148.50945 
L 53.989361 150.521419 
L 54.265466 151.17057 
L 55.193317 153.83169 
L 55.774961 156.000356 
L 55.90837 156.49281 
L 56.485693 159.15393 
L 56.920579 161.81505 
L 57.245191 164.47617 
L 57.484619 167.13729 
L 57.560561 168.286193 
L 57.669 169.79841 
L 57.806426 172.45953 
L 57.902564 175.12065 
L 57.976872 178.22529 
L 58.01767 180.88641 
L 58.044068 183.54753 
L 58.060791 186.20865 
L 58.071226 188.86977 
L 58.077672 191.53089 
L 58.081589 194.19201 
L 58.083859 196.85313 
L 58.085028 199.51425 
L 58.085485 202.17537 
L 58.085547 204.83649 
L 58.08548 207.49761 
L 58.085457 210.15873 
L 58.085515 212.81985 
L 58.085548 215.48097 
L 58.085331 218.14209 
L 58.084572 220.80321 
L 58.082533 223.90785 
L 58.079269 226.56897 
L 58.073837 229.23009 
L 58.065007 231.89121 
L 58.05081 234.55233 
L 58.028274 237.21345 
L 57.993194 239.87457 
L 57.939897 242.53569 
L 57.860996 245.19681 
L 57.747089 247.85793 
L 57.586357 250.51905 
L 57.560561 250.833302 
L 57.38316 253.18017 
L 57.110435 255.84129 
L 56.745085 258.50241 
L 56.261223 261.16353 
L 55.774961 263.226232 
L 55.637798 263.82465 
L 54.727401 266.92929 
L 53.989361 268.870666 
L 53.710091 269.59041 
L 52.447936 272.25153 
L 52.203761 272.687914 
L 50.864098 274.91265 
L 50.382449 275.60231 
L 48.838674 277.57377 
L 48.596849 277.852475 
L 46.811249 279.669929 
L 46.15198 280.23489 
L 45.025649 281.155659 
L 43.204337 282.369685 
L 42.21487 282.89601 
L 41.418737 283.323087 
L 39.633137 284.073563 
L 37.847537 284.61232 
L 36.026225 284.965356 
L 34.240625 285.131491 
" clip-path="url(#ped6f6726f7)" style="fill: none; stroke: #deebf7; stroke-width: 1.5"/>
    <path d="M 50.758192 22.10625 
L 50.466306 24.76737 
L 50.382449 25.106736 
L 49.794134 27.42849 
L 48.694922 30.08961 
L 48.596849 30.266048 
L 47.071269 32.75073 
L 46.811249 33.088459 
L 45.025649 35.107685 
L 44.705956 35.41185 
L 43.204337 36.660123 
L 41.418737 37.829559 
L 40.944477 38.07297 
L 39.633137 38.710762 
L 37.847537 39.340292 
L 36.026225 39.748881 
L 34.240625 39.93432 
" clip-path="url(#ped6f6726f7)" style="fill: none; stroke: #deebf7; stroke-width: 1.5"/>
    <path d="M 190.459427 288.21825 
L 190.373489 287.806822 
L 189.877177 285.55713 
L 189.428933 282.89601 
L 189.092577 280.23489 
L 188.842869 277.57377 
L 188.65998 274.91265 
L 188.587889 273.467258 
L 188.51977 272.25153 
L 188.413465 269.59041 
L 188.339991 266.92929 
L 188.284004 263.82465 
L 188.253714 261.16353 
L 188.234347 258.50241 
L 188.222185 255.84129 
L 188.214638 253.18017 
L 188.210008 250.51905 
L 188.207248 247.85793 
L 188.205727 245.19681 
L 188.205026 242.53569 
L 188.204822 239.87457 
L 188.204836 237.21345 
L 188.204851 234.55233 
L 188.204749 231.89121 
L 188.204529 229.23009 
L 188.204283 226.56897 
L 188.204131 223.90785 
L 188.204169 220.80321 
L 188.204362 218.14209 
L 188.204596 215.48097 
L 188.204743 212.81985 
L 188.204723 210.15873 
L 188.204547 207.49761 
L 188.20431 204.83649 
L 188.204141 202.17537 
L 188.204131 199.51425 
L 188.204286 196.85313 
L 188.204522 194.19201 
L 188.20471 191.53089 
L 188.204749 188.86977 
L 188.204618 186.20865 
L 188.204388 183.54753 
L 188.204183 180.88641 
L 188.204114 178.22529 
L 188.204251 175.12065 
L 188.204482 172.45953 
L 188.204687 169.79841 
L 188.204755 167.13729 
L 188.20465 164.47617 
L 188.204428 161.81505 
L 188.20421 159.15393 
L 188.204113 156.49281 
L 188.204192 153.83169 
L 188.204401 151.17057 
L 188.20463 148.50945 
L 188.204752 145.84833 
L 188.204703 143.18721 
L 188.204508 140.52609 
L 188.204274 137.86497 
L 188.204127 135.20385 
L 188.204167 132.09921 
L 188.204362 129.43809 
L 188.204596 126.77697 
L 188.204743 124.11585 
L 188.204723 121.45473 
L 188.204547 118.79361 
L 188.20431 116.13249 
L 188.204141 113.47137 
L 188.204131 110.81025 
L 188.204286 108.14913 
L 188.204522 105.48801 
L 188.20471 102.82689 
L 188.20475 100.16577 
L 188.204618 97.50465 
L 188.204388 94.84353 
L 188.204184 92.18241 
L 188.204117 89.52129 
L 188.20426 86.41665 
L 188.204501 83.75553 
L 188.20473 81.09441 
L 188.204847 78.43329 
L 188.204841 75.77217 
L 188.204818 73.11105 
L 188.204985 70.44993 
L 188.205617 67.78881 
L 188.207032 65.12769 
L 188.209632 62.46657 
L 188.214017 59.80545 
L 188.221177 57.14433 
L 188.232723 54.48321 
L 188.251133 51.82209 
L 188.279974 49.16097 
L 188.324123 46.49985 
L 188.403626 43.39521 
L 188.505348 40.73409 
L 188.587889 39.199232 
L 188.641643 38.07297 
L 188.816312 35.41185 
L 189.054266 32.75073 
L 189.373742 30.08961 
L 189.797668 27.42849 
L 190.3552 24.76737 
L 190.373489 24.696111 
L 191.004419 22.10625 
" clip-path="url(#ped6f6726f7)" style="fill: none; stroke: #deebf7; stroke-width: 1.5"/>
   </g>
   <g id="PathCollection_3">
    <path d="M 34.240625 147.870013 
L 36.026225 147.947483 
L 37.847537 148.360178 
L 38.211474 148.50945 
L 39.633137 149.147624 
L 41.418737 150.348727 
L 42.328491 151.17057 
L 43.204337 152.091133 
L 44.516598 153.83169 
L 45.025649 154.655967 
L 45.98815 156.49281 
L 46.811249 158.497786 
L 47.052747 159.15393 
L 47.822339 161.81505 
L 48.396385 164.47617 
L 48.596849 165.717785 
L 48.815991 167.13729 
L 49.118876 169.79841 
L 49.335598 172.45953 
L 49.487568 175.12065 
L 49.605395 178.22529 
L 49.670315 180.88641 
L 49.712453 183.54753 
L 49.739211 186.20865 
L 49.755936 188.86977 
L 49.766281 191.53089 
L 49.772588 194.19201 
L 49.77628 196.85313 
L 49.778227 199.51425 
L 49.779032 202.17537 
L 49.779183 204.83649 
L 49.779091 207.49761 
L 49.779038 210.15873 
L 49.779113 212.81985 
L 49.779184 215.48097 
L 49.778938 218.14209 
L 49.777946 220.80321 
L 49.775167 223.90785 
L 49.770642 226.56897 
L 49.763063 229.23009 
L 49.750722 231.89121 
L 49.730852 234.55233 
L 49.699247 237.21345 
L 49.649904 239.87457 
L 49.574691 242.53569 
L 49.462988 245.19681 
L 49.301266 247.85793 
L 49.072544 250.51905 
L 48.755673 253.18017 
L 48.596849 254.175476 
L 48.320612 255.84129 
L 47.734723 258.50241 
L 46.959287 261.16353 
L 46.811249 261.568412 
L 45.90477 263.82465 
L 45.025649 265.539685 
L 44.195254 266.92929 
L 43.204337 268.289768 
L 42.046745 269.59041 
L 41.418737 270.202188 
L 39.633137 271.562144 
L 38.368487 272.25153 
L 37.847537 272.511782 
L 36.026225 273.090183 
L 34.240625 273.330354 
" clip-path="url(#ped6f6726f7)" style="fill: none; stroke: #c6dbef; stroke-width: 1.5"/>
    <path d="M 198.509726 288.21825 
L 197.710218 285.55713 
L 197.551601 284.883807 
L 197.081614 282.89601 
L 196.603245 280.23489 
L 196.247805 277.57377 
L 195.987156 274.91265 
L 195.799065 272.25153 
L 195.766001 271.596812 
L 195.658586 269.59041 
L 195.559593 266.92929 
L 195.483947 263.82465 
L 195.442903 261.16353 
L 195.416599 258.50241 
L 195.400055 255.84129 
L 195.389778 253.18017 
L 195.383462 250.51905 
L 195.37968 247.85793 
L 195.377569 245.19681 
L 195.37657 242.53569 
L 195.376255 239.87457 
L 195.376258 237.21345 
L 195.376287 234.55233 
L 195.376173 231.89121 
L 195.375902 229.23009 
L 195.37558 226.56897 
L 195.375364 223.90785 
L 195.375384 220.80321 
L 195.375619 218.14209 
L 195.375924 215.48097 
L 195.376132 212.81985 
L 195.376131 210.15873 
L 195.375921 207.49761 
L 195.375615 204.83649 
L 195.375381 202.17537 
L 195.375343 199.51425 
L 195.375524 196.85313 
L 195.375824 194.19201 
L 195.376082 191.53089 
L 195.376157 188.86977 
L 195.376009 186.20865 
L 195.375718 183.54753 
L 195.375441 180.88641 
L 195.37533 178.22529 
L 195.375482 175.12065 
L 195.375773 172.45953 
L 195.376049 169.79841 
L 195.376161 167.13729 
L 195.376047 164.47617 
L 195.37577 161.81505 
L 195.375479 159.15393 
L 195.375333 156.49281 
L 195.37541 153.83169 
L 195.375669 151.17057 
L 195.375969 148.50945 
L 195.376148 145.84833 
L 195.376108 143.18721 
L 195.375872 140.52609 
L 195.375567 137.86497 
L 195.375359 135.20385 
L 195.375382 132.09921 
L 195.375618 129.43809 
L 195.375923 126.77697 
L 195.376132 124.11585 
L 195.376131 121.45473 
L 195.375921 118.79361 
L 195.375615 116.13249 
L 195.375381 113.47137 
L 195.375343 110.81025 
L 195.375524 108.14913 
L 195.375824 105.48801 
L 195.376082 102.82689 
L 195.376157 100.16577 
L 195.376009 97.50465 
L 195.375718 94.84353 
L 195.375443 92.18241 
L 195.375334 89.52129 
L 195.375492 86.41665 
L 195.375796 83.75553 
L 195.3761 81.09441 
L 195.376269 78.43329 
L 195.376276 75.77217 
L 195.376238 73.11105 
L 195.376413 70.44993 
L 195.377147 67.78881 
L 195.378846 65.12769 
L 195.382013 62.46657 
L 195.387385 59.80545 
L 195.396176 57.14433 
L 195.410366 54.48321 
L 195.433022 51.82209 
L 195.46859 49.16097 
L 195.523174 46.49985 
L 195.621746 43.39521 
L 195.748196 40.73409 
L 195.766001 40.466678 
L 195.916408 38.07297 
L 196.148307 35.41185 
L 196.464654 32.75073 
L 196.889798 30.08961 
L 197.454283 27.42849 
L 197.551601 27.063578 
L 198.161306 24.76737 
L 199.077697 22.10625 
" clip-path="url(#ped6f6726f7)" style="fill: none; stroke: #c6dbef; stroke-width: 1.5"/>
    <path d="M 387.786473 22.10625 
L 388.603537 24.76737 
L 389.221343 27.42849 
L 389.575025 29.439638 
L 389.691892 30.08961 
L 390.058066 32.75073 
L 390.326649 35.41185 
L 390.520505 38.07297 
L 390.65778 40.73409 
L 390.752872 43.39521 
L 390.825531 46.49985 
L 390.864951 49.16097 
L 390.890213 51.82209 
L 390.906102 54.48321 
L 390.915972 57.14433 
L 390.922037 59.80545 
L 390.925668 62.46657 
L 390.927696 65.12769 
L 390.928655 67.78881 
L 390.928957 70.44993 
L 390.928955 73.11105 
L 390.928928 75.77217 
L 390.929036 78.43329 
L 390.929297 81.09441 
L 390.929606 83.75553 
L 390.929813 86.41665 
L 390.929794 89.52129 
L 390.929569 92.18241 
L 390.929276 94.84353 
L 390.929076 97.50465 
L 390.929077 100.16577 
L 390.929279 102.82689 
L 390.929573 105.48801 
L 390.9298 108.14913 
L 390.929839 110.81025 
L 390.929674 113.47137 
L 390.929403 116.13249 
L 390.929194 118.79361 
L 390.929204 121.45473 
L 390.929515 124.11585 
L 390.930133 126.77697 
L 390.931059 129.43809 
L 390.932424 132.09921 
L 390.935149 135.20385 
L 390.939483 137.86497 
L 390.947267 140.52609 
L 390.960821 143.18721 
L 390.983487 145.84833 
L 391.019985 148.50945 
L 391.076874 151.17057 
L 391.163055 153.83169 
L 391.290186 156.49281 
L 391.360625 157.520024 
" clip-path="url(#ped6f6726f7)" style="fill: none; stroke: #c6dbef; stroke-width: 1.5"/>
    <path d="M 391.360625 262.230247 
L 391.207186 263.82465 
L 390.950056 266.92929 
L 390.736523 269.59041 
L 390.503079 272.25153 
L 390.224219 274.91265 
L 389.87281 277.57377 
L 389.575025 279.338184 
L 389.428293 280.23489 
L 388.873067 282.89601 
L 388.149411 285.55713 
L 387.753713 286.717479 
L 387.233944 288.21825 
" clip-path="url(#ped6f6726f7)" style="fill: none; stroke: #c6dbef; stroke-width: 1.5"/>
   </g>
   <g id="PathCollection_4">
    <path d="M 34.240625 163.469496 
L 36.026225 163.906953 
L 36.707392 164.47617 
L 37.847537 165.715979 
L 38.610508 167.13729 
L 39.633137 169.727767 
L 39.653312 169.79841 
L 40.209175 172.45953 
L 40.59903 175.12065 
L 40.901711 178.22529 
L 41.068858 180.88641 
L 41.177602 183.54753 
L 41.246797 186.20865 
L 41.290105 188.86977 
L 41.316921 191.53089 
L 41.333315 194.19201 
L 41.342994 196.85313 
L 41.348207 199.51425 
L 41.350472 202.17537 
L 41.350998 204.83649 
L 41.350809 207.49761 
L 41.350642 210.15873 
L 41.350785 212.81985 
L 41.350997 215.48097 
L 41.350573 218.14209 
L 41.348509 220.80321 
L 41.342425 223.90785 
L 41.332323 226.56897 
L 41.315294 229.23009 
L 41.287499 231.89121 
L 41.242699 234.55233 
L 41.171327 237.21345 
L 41.059647 239.87457 
L 40.888986 242.53569 
L 40.634974 245.19681 
L 40.266685 247.85793 
L 39.745572 250.51905 
L 39.633137 250.93917 
L 38.821413 253.18017 
L 37.847537 255.179797 
L 37.323598 255.84129 
L 36.026225 257.110101 
L 34.240625 257.745718 
" clip-path="url(#ped6f6726f7)" style="fill: none; stroke: #9dcae1; stroke-width: 1.5"/>
    <path d="M 205.167335 288.21825 
L 204.729713 287.249624 
L 204.018721 285.55713 
L 203.153836 282.89601 
L 202.944113 282.05917 
L 202.501794 280.23489 
L 202.016039 277.57377 
L 201.659555 274.91265 
L 201.402032 272.25153 
L 201.219457 269.59041 
L 201.122801 267.563929 
L 201.092078 266.92929 
L 200.992787 263.82465 
L 200.938803 261.16353 
L 200.904149 258.50241 
L 200.882328 255.84129 
L 200.868761 253.18017 
L 200.860416 250.51905 
L 200.855404 247.85793 
L 200.852584 245.19681 
L 200.851225 242.53569 
L 200.850775 239.87457 
L 200.850761 237.21345 
L 200.850804 234.55233 
L 200.850677 231.89121 
L 200.850343 229.23009 
L 200.849933 226.56897 
L 200.849642 223.90785 
L 200.849641 220.80321 
L 200.849925 218.14209 
L 200.850313 215.48097 
L 200.850593 212.81985 
L 200.850614 210.15873 
L 200.850364 207.49761 
L 200.849978 204.83649 
L 200.849666 202.17537 
L 200.849596 199.51425 
L 200.849808 196.85313 
L 200.850185 194.19201 
L 200.850523 191.53089 
L 200.85064 188.86977 
L 200.850471 186.20865 
L 200.850109 183.54753 
L 200.849749 180.88641 
L 200.849587 178.22529 
L 200.849756 175.12065 
L 200.850119 172.45953 
L 200.850479 169.79841 
L 200.850641 167.13729 
L 200.850517 164.47617 
L 200.850175 161.81505 
L 200.8498 159.15393 
L 200.849595 156.49281 
L 200.849671 153.83169 
L 200.849987 151.17057 
L 200.850372 148.50945 
L 200.850617 145.84833 
L 200.850589 143.18721 
L 200.850303 140.52609 
L 200.849915 137.86497 
L 200.849634 135.20385 
L 200.849638 132.09921 
L 200.849924 129.43809 
L 200.850313 126.77697 
L 200.850593 124.11585 
L 200.850614 121.45473 
L 200.850364 118.79361 
L 200.849978 116.13249 
L 200.849666 113.47137 
L 200.849596 110.81025 
L 200.849808 108.14913 
L 200.850185 105.48801 
L 200.850523 102.82689 
L 200.85064 100.16577 
L 200.850472 97.50465 
L 200.85011 94.84353 
L 200.849751 92.18241 
L 200.849591 89.52129 
L 200.849768 86.41665 
L 200.850146 83.75553 
L 200.850539 81.09441 
L 200.850772 78.43329 
L 200.850793 75.77217 
L 200.85074 73.11105 
L 200.850929 70.44993 
L 200.851794 67.78881 
L 200.853844 65.12769 
L 200.857706 62.46657 
L 200.864289 59.80545 
L 200.875075 57.14433 
L 200.892501 54.48321 
L 200.920348 51.82209 
L 200.964126 49.16097 
L 201.031425 46.49985 
L 201.122801 44.166023 
L 201.152471 43.39521 
L 201.305199 40.73409 
L 201.522061 38.07297 
L 201.823579 35.41185 
L 202.235268 32.75073 
L 202.78889 30.08961 
L 202.944113 29.509748 
L 203.518546 27.42849 
L 204.475857 24.76737 
L 204.729713 24.199334 
L 205.730851 22.10625 
" clip-path="url(#ped6f6726f7)" style="fill: none; stroke: #9dcae1; stroke-width: 1.5"/>
    <path d="M 381.138286 22.10625 
L 382.286583 24.76737 
L 382.396913 25.091078 
L 383.152537 27.42849 
L 383.802332 30.08961 
L 384.182513 32.170877 
L 384.28668 32.75073 
L 384.646123 35.41185 
L 384.905831 38.07297 
L 385.089985 40.73409 
L 385.217757 43.39521 
L 385.315576 46.49985 
L 385.368756 49.16097 
L 385.402891 51.82209 
L 385.424386 54.48321 
L 385.437749 57.14433 
L 385.445969 59.80545 
L 385.450906 62.46657 
L 385.453684 65.12769 
L 385.455022 67.78881 
L 385.455466 70.44993 
L 385.455479 73.11105 
L 385.455437 75.77217 
L 385.455562 78.43329 
L 385.455891 81.09441 
L 385.456295 83.75553 
L 385.456581 86.41665 
L 385.456582 89.52129 
L 385.456303 92.18241 
L 385.455921 94.84353 
L 385.455644 97.50465 
L 385.455624 100.16577 
L 385.455871 102.82689 
L 385.456251 105.48801 
L 385.45656 108.14913 
L 385.456631 110.81025 
L 385.456429 113.47137 
L 385.456071 116.13249 
L 385.455766 118.79361 
L 385.455713 121.45473 
L 385.456006 124.11585 
L 385.45662 126.77697 
L 385.457477 129.43809 
L 385.458595 132.09921 
L 385.460621 135.20385 
L 385.463798 137.86497 
L 385.469627 140.52609 
L 385.479992 143.18721 
L 385.497547 145.84833 
L 385.525984 148.50945 
L 385.570437 151.17057 
L 385.637964 153.83169 
L 385.738019 156.49281 
L 385.88279 159.15393 
L 385.968113 160.268247 
L 386.090606 161.81505 
L 386.379755 164.47617 
L 386.767375 167.13729 
L 387.273919 169.79841 
L 387.753713 171.783872 
L 387.924483 172.45953 
L 388.746117 175.12065 
L 389.575025 177.342032 
L 389.919737 178.22529 
L 391.112676 180.88641 
L 391.360625 181.389728 
" clip-path="url(#ped6f6726f7)" style="fill: none; stroke: #9dcae1; stroke-width: 1.5"/>
    <path d="M 391.360625 239.800589 
L 391.325259 239.87457 
L 390.154577 242.53569 
L 389.575025 244.01248 
L 389.125886 245.19681 
L 388.258756 247.85793 
L 387.753713 249.712562 
L 387.54199 250.51905 
L 386.972682 253.18017 
L 386.518863 255.84129 
L 386.158541 258.50241 
L 385.968113 260.244656 
L 385.870453 261.16353 
L 385.631122 263.82465 
L 385.373487 266.92929 
L 385.141549 269.59041 
L 384.871047 272.25153 
L 384.533321 274.91265 
L 384.182513 277.060479 
L 384.098035 277.57377 
L 383.535394 280.23489 
L 382.797712 282.89601 
L 382.396913 284.034807 
L 381.834112 285.55713 
L 380.580427 288.21825 
" clip-path="url(#ped6f6726f7)" style="fill: none; stroke: #9dcae1; stroke-width: 1.5"/>
   </g>
   <g id="PathCollection_5">
    <path d="M 212.196536 288.21825 
L 211.907825 287.835916 
L 210.406895 285.55713 
L 210.122225 285.013002 
L 209.128456 282.89601 
L 208.300913 280.583833 
L 208.185758 280.23489 
L 207.509262 277.57377 
L 207.012602 274.91265 
L 206.653577 272.25153 
L 206.515313 270.815974 
L 206.401474 269.59041 
L 206.228539 266.92929 
L 206.095927 263.82465 
L 206.023706 261.16353 
L 205.977282 258.50241 
L 205.948019 255.84129 
L 205.929815 253.18017 
L 205.918607 250.51905 
L 205.91186 247.85793 
L 205.90804 245.19681 
L 205.906172 242.53569 
L 205.905529 239.87457 
L 205.90549 237.21345 
L 205.905552 234.55233 
L 205.905404 231.89121 
L 205.904985 229.23009 
L 205.904451 226.56897 
L 205.904056 223.90785 
L 205.904027 220.80321 
L 205.904379 218.14209 
L 205.904882 215.48097 
L 205.905262 212.81985 
L 205.905313 210.15873 
L 205.905007 207.49761 
L 205.904509 204.83649 
L 205.90409 202.17537 
L 205.903976 199.51425 
L 205.90423 196.85313 
L 205.904713 194.19201 
L 205.905164 191.53089 
L 205.905339 188.86977 
L 205.905142 186.20865 
L 205.90468 183.54753 
L 205.904204 180.88641 
L 205.903972 178.22529 
L 205.904166 175.12065 
L 205.904627 172.45953 
L 205.905103 169.79841 
L 205.905335 167.13729 
L 205.905198 164.47617 
L 205.904766 161.81505 
L 205.904273 159.15393 
L 205.903986 156.49281 
L 205.904061 153.83169 
L 205.904458 151.17057 
L 205.90496 148.50945 
L 205.905297 145.84833 
L 205.905284 143.18721 
L 205.90493 140.52609 
L 205.904426 137.86497 
L 205.904045 135.20385 
L 205.904023 132.09921 
L 205.904377 129.43809 
L 205.904881 126.77697 
L 205.905262 124.11585 
L 205.905313 121.45473 
L 205.905007 118.79361 
L 205.904509 116.13249 
L 205.90409 113.47137 
L 205.903976 110.81025 
L 205.90423 108.14913 
L 205.904713 105.48801 
L 205.905164 102.82689 
L 205.905339 100.16577 
L 205.905142 97.50465 
L 205.904681 94.84353 
L 205.904206 92.18241 
L 205.903977 89.52129 
L 205.904181 86.41665 
L 205.904661 83.75553 
L 205.905178 81.09441 
L 205.905498 78.43329 
L 205.905541 75.77217 
L 205.90547 73.11105 
L 205.905682 70.44993 
L 205.906734 67.78881 
L 205.909283 65.12769 
L 205.914131 62.46657 
L 205.922427 59.80545 
L 205.936041 57.14433 
L 205.958046 54.48321 
L 205.993237 51.82209 
L 206.048621 49.16097 
L 206.133875 46.49985 
L 206.288379 43.39521 
L 206.487211 40.73409 
L 206.515313 40.466562 
L 206.775671 38.07297 
L 207.17796 35.41185 
L 207.727552 32.75073 
L 208.300913 30.672873 
L 208.473191 30.08961 
L 209.492337 27.42849 
L 210.122225 26.144306 
L 210.870139 24.76737 
L 211.907825 23.227915 
L 212.767291 22.10625 
" clip-path="url(#ped6f6726f7)" style="fill: none; stroke: #6aaed6; stroke-width: 1.5"/>
    <path d="M 374.101742 22.10625 
L 375.218801 23.682712 
L 375.893588 24.76737 
L 377.004401 27.024428 
L 377.184219 27.42849 
L 378.112992 30.08961 
L 378.790001 32.697983 
L 378.80284 32.75073 
L 379.293386 35.41185 
L 379.648059 38.07297 
L 379.899792 40.73409 
L 380.074665 43.39521 
L 380.208749 46.49985 
L 380.281765 49.16097 
L 380.328697 51.82209 
L 380.35828 54.48321 
L 380.376683 57.14433 
L 380.388012 59.80545 
L 380.394833 62.46657 
L 380.398694 65.12769 
L 380.400581 67.78881 
L 380.401231 70.44993 
L 380.401271 73.11105 
L 380.401208 75.77217 
L 380.401358 78.43329 
L 380.401781 81.09441 
L 380.402322 83.75553 
L 380.402721 86.41665 
L 380.40275 89.52129 
L 380.402394 92.18241 
L 380.401886 94.84353 
L 380.401501 97.50465 
L 380.40145 100.16577 
L 380.40176 102.82689 
L 380.402263 105.48801 
L 380.402688 108.14913 
L 380.402805 110.81025 
L 380.402553 113.47137 
L 380.402075 116.13249 
L 380.401641 118.79361 
L 380.401513 121.45473 
L 380.401813 124.11585 
L 380.402481 126.77697 
L 380.403359 129.43809 
L 380.404352 132.09921 
L 380.405896 135.20385 
L 380.408242 137.86497 
L 380.412692 140.52609 
L 380.420873 143.18721 
L 380.434989 145.84833 
L 380.458021 148.50945 
L 380.494081 151.17057 
L 380.54888 153.83169 
L 380.575601 154.70846 
L 380.629304 156.49281 
L 380.745429 159.15393 
L 380.910383 161.81505 
L 381.139472 164.47617 
L 381.450448 167.13729 
L 381.863211 169.79841 
L 382.396913 172.447469 
L 382.399376 172.45953 
L 383.072715 175.12065 
L 384.062182 178.22529 
L 384.182513 178.542806 
L 385.092203 180.88641 
L 385.968113 182.84779 
L 386.28823 183.54753 
L 387.620522 186.20865 
L 387.753713 186.461106 
L 389.03433 188.86977 
L 389.575025 189.877746 
L 390.456751 191.53089 
L 391.360625 193.302531 
" clip-path="url(#ped6f6726f7)" style="fill: none; stroke: #6aaed6; stroke-width: 1.5"/>
    <path d="M 391.360625 227.897527 
L 390.719034 229.23009 
L 389.575025 231.493125 
L 389.37226 231.89121 
L 388.013552 234.55233 
L 387.753713 235.077828 
L 386.708726 237.21345 
L 385.968113 238.851051 
L 385.5122 239.87457 
L 384.45574 242.53569 
L 384.182513 243.327789 
L 383.548543 245.19681 
L 382.794331 247.85793 
L 382.396913 249.568836 
L 382.177872 250.51905 
L 381.681503 253.18017 
L 381.287832 255.84129 
L 380.97272 258.50241 
L 380.711359 261.16353 
L 380.575601 262.71209 
L 380.476495 263.82465 
L 380.200302 266.92929 
L 379.931626 269.59041 
L 379.601054 272.25153 
L 379.174469 274.91265 
L 378.790001 276.747549 
L 378.607425 277.57377 
L 377.842453 280.23489 
L 377.004401 282.463254 
L 376.827328 282.89601 
L 375.447371 285.55713 
L 375.218801 285.914083 
L 373.552097 288.21825 
" clip-path="url(#ped6f6726f7)" style="fill: none; stroke: #6aaed6; stroke-width: 1.5"/>
   </g>
   <g id="PathCollection_6">
    <path d="M 222.575457 288.21825 
L 220.871537 287.220555 
L 219.085937 285.935336 
L 218.644554 285.55713 
L 217.300337 284.150248 
L 216.291659 282.89601 
L 215.479025 281.614142 
L 214.722654 280.23489 
L 213.693425 277.76595 
L 213.622268 277.57377 
L 212.876526 274.91265 
L 212.337158 272.25153 
L 211.954089 269.59041 
L 211.907825 269.131831 
L 211.702545 266.92929 
L 211.511782 263.82465 
L 211.407734 261.16353 
L 211.340766 258.50241 
L 211.298513 255.84129 
L 211.27221 253.18017 
L 211.256007 250.51905 
L 211.246231 247.85793 
L 211.240667 245.19681 
L 211.237912 242.53569 
L 211.236931 239.87457 
L 211.236846 237.21345 
L 211.236938 234.55233 
L 211.236753 231.89121 
L 211.236184 229.23009 
L 211.235435 226.56897 
L 211.234861 223.90785 
L 211.234784 220.80321 
L 211.235254 218.14209 
L 211.235957 215.48097 
L 211.23651 212.81985 
L 211.236612 210.15873 
L 211.236208 207.49761 
L 211.235516 204.83649 
L 211.234912 202.17537 
L 211.234723 199.51425 
L 211.235051 196.85313 
L 211.235719 194.19201 
L 211.236364 191.53089 
L 211.236637 188.86977 
L 211.23639 186.20865 
L 211.235757 183.54753 
L 211.23508 180.88641 
L 211.234728 178.22529 
L 211.234965 175.12065 
L 211.235599 172.45953 
L 211.236275 169.79841 
L 211.236628 167.13729 
L 211.236465 164.47617 
L 211.235876 161.81505 
L 211.235179 159.15393 
L 211.234753 156.49281 
L 211.234828 153.83169 
L 211.235363 151.17057 
L 211.236069 148.50945 
L 211.236563 145.84833 
L 211.236577 143.18721 
L 211.236103 140.52609 
L 211.235399 137.86497 
L 211.234846 135.20385 
L 211.234778 132.09921 
L 211.235252 129.43809 
L 211.235956 126.77697 
L 211.23651 124.11585 
L 211.236612 121.45473 
L 211.236208 118.79361 
L 211.235516 116.13249 
L 211.234912 113.47137 
L 211.234723 110.81025 
L 211.235051 108.14913 
L 211.235719 105.48801 
L 211.236365 102.82689 
L 211.236638 100.16577 
L 211.236391 97.50465 
L 211.235758 94.84353 
L 211.235083 92.18241 
L 211.234735 89.52129 
L 211.234985 86.41665 
L 211.235644 83.75553 
L 211.236376 81.09441 
L 211.236847 78.43329 
L 211.236928 75.77217 
L 211.236826 73.11105 
L 211.237084 70.44993 
L 211.238472 67.78881 
L 211.241905 65.12769 
L 211.248492 62.46657 
L 211.259807 59.80545 
L 211.278403 57.14433 
L 211.308477 54.48321 
L 211.3566 51.82209 
L 211.432407 49.16097 
L 211.549239 46.49985 
L 211.761259 43.39521 
L 211.907825 41.961864 
L 212.043498 40.73409 
L 212.460007 38.07297 
L 213.04 35.41185 
L 213.693425 33.209759 
L 213.844907 32.75073 
L 215.004391 30.08961 
L 215.479025 29.247208 
L 216.65503 27.42849 
L 217.300337 26.632978 
L 219.081214 24.76737 
L 219.085937 24.763283 
L 220.871537 23.44367 
L 222.657137 22.359884 
L 223.16265 22.10625 
" clip-path="url(#ped6f6726f7)" style="fill: none; stroke: #4191c6; stroke-width: 1.5"/>
    <path d="M 363.70119 22.10625 
L 364.433777 22.492225 
L 366.219377 23.637106 
L 368.040689 25.128183 
L 370.028901 27.42849 
L 371.611889 30.109698 
L 372.667291 32.75073 
L 373.444311 35.41185 
L 373.96594 38.07297 
L 374.33647 40.73409 
L 374.79199 46.49985 
L 375.013149 54.48321 
L 375.077001 70.44993 
L 375.153085 151.17057 
L 375.352936 159.15393 
L 375.664882 164.47617 
L 376.248527 169.79841 
L 377.004401 173.96087 
L 377.244065 175.12065 
L 378.056773 178.22529 
L 378.93154 180.88641 
L 380.575601 184.951961 
L 381.138083 186.20865 
L 384.182513 192.158021 
L 386.564889 196.85313 
L 387.753713 199.566356 
L 388.664612 202.17537 
L 389.575025 206.02871 
L 389.810332 207.49761 
L 389.985715 210.15873 
L 389.907686 212.81985 
L 389.575025 215.512656 
L 388.986776 218.14209 
L 387.753713 221.893741 
L 385.968113 226.079321 
L 384.182513 229.708555 
L 381.774905 234.55233 
L 379.493484 239.87457 
L 378.565805 242.53569 
L 377.770341 245.19681 
L 376.585313 250.51905 
L 375.804173 255.84129 
L 374.351846 269.59041 
L 373.909453 272.25153 
L 373.316807 274.91265 
L 372.470339 277.57377 
L 371.318703 280.23489 
L 369.67306 282.89601 
L 367.198625 285.55713 
L 366.219377 286.334224 
L 364.433777 287.51592 
L 363.14526 288.21825 
L 363.14526 288.21825 
" clip-path="url(#ped6f6726f7)" style="fill: none; stroke: #4191c6; stroke-width: 1.5"/>
   </g>
   <g id="PathCollection_7">
    <path d="M 218.720297 266.92929 
L 218.379878 263.82465 
L 218.193945 261.16353 
L 218.074127 258.50241 
L 217.998456 255.84129 
L 217.951323 253.18017 
L 217.922268 250.51905 
L 217.904706 247.85793 
L 217.89466 245.19681 
L 217.889625 242.53569 
L 217.887775 239.87457 
L 217.887567 237.21345 
L 217.887732 234.55233 
L 217.887448 231.89121 
L 217.886492 229.23009 
L 217.885193 226.56897 
L 217.884164 223.90785 
L 217.883967 220.80321 
L 217.884743 218.14209 
L 217.885957 215.48097 
L 217.886948 212.81985 
L 217.887178 210.15873 
L 217.886521 207.49761 
L 217.885333 204.83649 
L 217.884258 202.17537 
L 217.883878 199.51425 
L 217.8844 196.85313 
L 217.885541 194.19201 
L 217.886681 191.53089 
L 217.887204 188.86977 
L 217.886825 186.20865 
L 217.88575 183.54753 
L 217.884562 180.88641 
L 217.883905 178.22529 
L 217.884257 175.12065 
L 217.885332 172.45953 
L 217.88652 169.79841 
L 217.887178 167.13729 
L 217.886948 164.47617 
L 217.885956 161.81505 
L 217.884739 159.15393 
L 217.883957 156.49281 
L 217.884033 153.83169 
L 217.884927 151.17057 
L 217.886154 148.50945 
L 217.887049 145.84833 
L 217.887126 143.18721 
L 217.886344 140.52609 
L 217.885127 137.86497 
L 217.884135 135.20385 
L 217.883956 132.09921 
L 217.884738 129.43809 
L 217.885955 126.77697 
L 217.886948 124.11585 
L 217.887178 121.45473 
L 217.886521 118.79361 
L 217.885333 116.13249 
L 217.884258 113.47137 
L 217.883878 110.81025 
L 217.8844 108.14913 
L 217.885541 105.48801 
L 217.886682 102.82689 
L 217.887204 100.16577 
L 217.886826 97.50465 
L 217.885753 94.84353 
L 217.884567 92.18241 
L 217.883917 89.52129 
L 217.88429 86.41665 
L 217.885408 83.75553 
L 217.886689 81.09441 
L 217.887544 78.43329 
L 217.887722 75.77217 
L 217.887549 73.11105 
L 217.887934 70.44993 
L 217.890204 67.78881 
L 217.895938 65.12769 
L 217.907038 62.46657 
L 217.926183 59.80545 
L 217.957694 57.14433 
L 218.008682 54.48321 
L 218.090313 51.82209 
L 218.219009 49.16097 
L 218.417562 46.49985 
L 218.778316 43.39521 
L 219.085937 41.631062 
L 219.265601 40.73409 
L 220.020537 38.07297 
L 220.871537 35.913186 
L 221.103638 35.41185 
L 222.657137 32.921218 
L 222.784864 32.75073 
L 224.478449 31.018035 
L 225.592538 30.08961 
L 226.264049 29.64649 
L 228.049649 28.690543 
L 229.835249 27.929708 
L 231.329562 27.42849 
L 231.656561 27.338423 
L 233.442161 26.953641 
L 235.227761 26.657323 
L 237.013361 26.431865 
L 238.834673 26.259555 
L 240.620273 26.134664 
L 242.405873 26.043268 
L 244.191473 25.977285 
L 246.012785 25.929522 
L 247.798385 25.89678 
L 249.583985 25.874134 
L 251.369585 25.858701 
L 253.190897 25.848169 
L 254.976497 25.841363 
L 256.762097 25.836912 
L 258.547697 25.834033 
L 260.369009 25.832156 
L 262.154609 25.830991 
L 263.940209 25.830261 
L 265.725809 25.829817 
L 267.547121 25.829557 
L 269.332721 25.829426 
L 271.118321 25.829368 
L 272.903921 25.829347 
L 274.725233 25.829336 
L 276.510833 25.829319 
L 278.296433 25.829291 
L 280.082033 25.829256 
L 281.903345 25.829224 
L 283.688945 25.829206 
L 285.474545 25.829207 
L 287.260145 25.829226 
L 289.081457 25.829257 
L 290.867057 25.829285 
L 292.652657 25.829302 
L 294.438257 25.8293 
L 296.259569 25.829279 
L 298.045169 25.82925 
L 299.830769 25.829221 
L 301.616369 25.829205 
L 303.437681 25.829209 
L 305.223281 25.829231 
L 307.008881 25.829264 
L 308.794481 25.829297 
L 310.615793 25.829323 
L 312.401393 25.829338 
L 314.186993 25.82935 
L 315.972593 25.829376 
L 317.793905 25.829447 
L 319.579505 25.829601 
L 321.365105 25.829889 
L 323.150705 25.830383 
L 324.972017 25.831207 
L 326.757617 25.832497 
L 328.543217 25.834521 
L 330.328817 25.837671 
L 332.150129 25.842649 
L 333.935729 25.850126 
L 335.721329 25.861386 
L 337.506929 25.878107 
L 339.328241 25.903164 
L 341.113841 25.938706 
L 342.899441 25.989219 
L 344.685041 26.060014 
L 346.506353 26.16019 
L 348.291953 26.294575 
L 350.077553 26.475568 
L 351.863153 26.716328 
L 353.684465 27.040017 
L 355.363383 27.42849 
L 355.470065 27.458598 
L 357.255665 28.101224 
L 359.041265 28.919331 
L 360.862577 29.974517 
L 361.024061 30.08961 
L 362.648177 31.562756 
L 363.715045 32.75073 
L 364.433777 33.804421 
L 365.348311 35.41185 
L 366.219377 37.498474 
L 366.423615 38.07297 
L 367.106155 40.73409 
L 367.581199 43.39521 
L 367.946372 46.49985 
L 368.040689 47.755466 
L 368.133427 49.16097 
L 368.246812 51.82209 
L 368.318422 54.48321 
L 368.363027 57.14433 
L 368.390524 59.80545 
L 368.407143 62.46657 
L 368.416651 65.12769 
L 368.421416 67.78881 
L 368.423167 70.44993 
L 368.423363 73.11105 
L 368.423207 75.77217 
L 368.423476 78.43329 
L 368.424381 81.09441 
L 368.42561 83.75553 
L 368.426584 86.41665 
L 368.42677 89.52129 
L 368.426036 92.18241 
L 368.424887 94.84353 
L 368.423949 97.50465 
L 368.423731 100.16577 
L 368.424353 102.82689 
L 368.425478 105.48801 
L 368.426496 108.14913 
L 368.426856 110.81025 
L 368.426365 113.47137 
L 368.425291 116.13249 
L 368.424224 118.79361 
L 368.423756 121.45473 
L 368.42417 124.11585 
L 368.425301 126.77697 
L 368.426648 129.43809 
L 368.4277 132.09921 
L 368.428357 135.20385 
L 368.428949 137.86497 
L 368.430664 140.52609 
L 368.434916 143.18721 
L 368.443276 145.84833 
L 368.457461 148.50945 
L 368.479594 151.17057 
L 368.512709 153.83169 
L 368.561333 156.49281 
L 368.631964 159.15393 
L 368.733316 161.81505 
L 368.876347 164.47617 
L 369.074223 167.13729 
L 369.342413 169.79841 
L 369.699081 172.45953 
L 369.826289 173.206945 
L 370.129966 175.12065 
L 370.771352 178.22529 
L 371.484662 180.88641 
L 371.611889 181.287261 
L 372.306872 183.54753 
L 373.310055 186.20865 
L 373.397489 186.414737 
L 374.425757 188.86977 
L 375.218801 190.533175 
L 375.691126 191.53089 
L 377.004401 194.106042 
L 377.047855 194.19201 
L 378.388875 196.85313 
L 378.790001 197.674818 
L 379.656811 199.51425 
L 380.575601 201.677615 
L 380.775469 202.17537 
L 381.623221 204.83649 
L 382.211626 207.49761 
L 382.396913 209.290311 
L 382.477514 210.15873 
L 382.42357 212.81985 
L 382.396913 213.022105 
L 382.041585 215.48097 
L 381.374225 218.14209 
L 380.575601 220.533748 
L 380.479687 220.80321 
L 379.152162 223.90785 
L 378.790001 224.683841 
L 377.883446 226.56897 
L 377.004401 228.390276 
L 376.590776 229.23009 
L 375.335039 231.89121 
L 375.218801 232.153351 
L 374.138043 234.55233 
L 373.397489 236.438548 
L 373.085934 237.21345 
L 372.150742 239.87457 
L 371.611889 241.720996 
L 371.363802 242.53569 
L 370.68201 245.19681 
L 370.137426 247.85793 
L 369.826289 249.743498 
L 369.688171 250.51905 
L 369.297636 253.18017 
L 368.976026 255.84129 
L 368.695021 258.50241 
L 368.42419 261.16353 
L 368.129566 263.82465 
L 368.040689 264.471706 
L 367.658543 266.92929 
L 367.105676 269.59041 
L 366.359793 272.25153 
L 366.219377 272.625088 
L 365.216224 274.91265 
L 364.433777 276.25051 
L 363.512949 277.57377 
L 362.648177 278.529611 
L 360.862577 280.153614 
L 360.753117 280.23489 
L 359.041265 281.244228 
L 357.255665 282.084845 
L 355.470065 282.750401 
L 354.97386 282.89601 
L 353.684465 283.207172 
L 351.863153 283.547313 
L 350.077553 283.801731 
L 348.291953 283.993974 
L 346.506353 284.137393 
L 344.685041 284.244787 
L 342.899441 284.321008 
L 341.113841 284.375613 
L 339.328241 284.414186 
L 337.506929 284.441486 
L 335.721329 284.459775 
L 333.935729 284.472135 
L 332.150129 284.480371 
L 330.328817 284.485871 
L 328.543217 284.48936 
L 326.757617 284.491606 
L 324.972017 284.493041 
L 323.150705 284.493962 
L 321.365105 284.494517 
L 319.579505 284.494846 
L 317.793905 284.495025 
L 315.972593 284.495113 
L 314.186993 284.495146 
L 312.401393 284.495159 
L 310.615793 284.495172 
L 308.794481 284.495196 
L 307.008881 284.495228 
L 305.223281 284.495262 
L 303.437681 284.495287 
L 301.616369 284.495296 
L 299.830769 284.495284 
L 298.045169 284.495258 
L 296.259569 284.495227 
L 294.438257 284.495204 
L 292.652657 284.495197 
L 290.867057 284.49521 
L 289.081457 284.495236 
L 287.260145 284.495267 
L 285.474545 284.49529 
L 283.688945 284.495295 
L 281.903345 284.495281 
L 280.082033 284.495252 
L 278.296433 284.495217 
L 276.510833 284.495187 
L 274.725233 284.495167 
L 272.903921 284.495156 
L 271.118321 284.495139 
L 269.332721 284.495093 
L 267.547121 284.494983 
L 265.725809 284.494758 
L 263.940209 284.494366 
L 262.154609 284.493714 
L 260.369009 284.492669 
L 258.547697 284.490981 
L 256.762097 284.488386 
L 254.976497 284.484366 
L 253.190897 284.478201 
L 251.369585 284.46863 
L 249.583985 284.454554 
L 247.798385 284.433821 
L 246.012785 284.40373 
L 244.191473 284.35966 
L 242.405873 284.298533 
L 240.620273 284.213513 
L 238.834673 284.09683 
L 237.013361 283.935094 
L 235.227761 283.722422 
L 233.442161 283.441425 
L 231.656561 283.074449 
L 230.981844 282.89601 
L 229.835249 282.525596 
L 228.049649 281.789075 
L 226.264049 280.856304 
L 225.308156 280.23489 
L 224.478449 279.549756 
L 222.657137 277.689894 
L 222.563022 277.57377 
L 220.928034 274.91265 
L 220.871537 274.787808 
L 219.899363 272.25153 
L 219.173907 269.59041 
L 219.085937 269.130534 
L 218.720297 266.92929 
z
" clip-path="url(#ped6f6726f7)" style="fill: none; stroke: #2070b4; stroke-width: 1.5"/>
   </g>
   <g id="PathCollection_8">
    <path d="M 233.373457 261.16353 
L 232.739968 258.50241 
L 232.339501 255.84129 
L 232.089912 253.18017 
L 231.935955 250.51905 
L 231.842725 247.85793 
L 231.789093 245.19681 
L 231.761855 242.53569 
L 231.751488 239.87457 
L 231.750024 237.21345 
L 231.750856 234.55233 
L 231.74961 231.89121 
L 231.744933 229.23009 
L 231.738344 226.56897 
L 231.732915 223.90785 
L 231.731556 220.80321 
L 231.735258 218.14209 
L 231.74139 215.48097 
L 231.746611 212.81985 
L 231.748081 210.15873 
L 231.745001 207.49761 
L 231.739039 204.83649 
L 231.733426 202.17537 
L 231.731204 199.51425 
L 231.733578 196.85313 
L 231.739261 194.19201 
L 231.745172 191.53089 
L 231.748108 188.86977 
L 231.746476 186.20865 
L 231.741162 183.54753 
L 231.735045 180.88641 
L 231.731443 178.22529 
L 231.732889 175.12065 
L 231.738203 172.45953 
L 231.744319 169.79841 
L 231.747922 167.13729 
L 231.747058 164.47617 
L 231.742196 161.81505 
L 231.735972 159.15393 
L 231.731759 156.49281 
L 231.731841 153.83169 
L 231.736173 151.17057 
L 231.742408 148.50945 
L 231.747166 145.84833 
L 231.747867 143.18721 
L 231.744131 140.52609 
L 231.737984 137.86497 
L 231.732758 135.20385 
L 231.731498 132.09921 
L 231.735234 129.43809 
L 231.74138 126.77697 
L 231.746607 124.11585 
L 231.74808 121.45473 
L 231.745001 118.79361 
L 231.739039 116.13249 
L 231.733426 113.47137 
L 231.731204 110.81025 
L 231.733578 108.14913 
L 231.739261 105.48801 
L 231.745173 102.82689 
L 231.748109 100.16577 
L 231.74648 97.50465 
L 231.741172 94.84353 
L 231.73507 92.18241 
L 231.731503 89.52129 
L 231.733051 86.41665 
L 231.738574 83.75553 
L 231.745145 81.09441 
L 231.749714 78.43329 
L 231.750849 75.77217 
L 231.750011 73.11105 
L 231.751671 70.44993 
L 231.762496 67.78881 
L 231.790494 65.12769 
L 231.84526 62.46657 
L 231.940168 59.80545 
L 232.096649 57.14433 
L 232.349998 54.48321 
L 232.755771 51.82209 
L 233.395925 49.16097 
L 233.442161 49.036135 
L 234.653578 46.49985 
L 235.227761 45.725222 
L 237.013361 43.887376 
L 237.650774 43.39521 
L 238.834673 42.781711 
L 240.620273 42.097487 
L 242.405873 41.597153 
L 244.191473 41.236246 
L 246.012785 40.975244 
L 247.798385 40.796509 
L 248.700793 40.73409 
L 249.583985 40.690443 
L 251.369585 40.630361 
L 253.190897 40.589404 
L 254.976497 40.56296 
L 256.762097 40.545684 
L 258.547697 40.534512 
L 260.369009 40.527236 
L 262.154609 40.522724 
L 263.940209 40.519902 
L 265.725809 40.51819 
L 267.547121 40.517197 
L 269.332721 40.5167 
L 271.118321 40.516483 
L 272.903921 40.516404 
L 274.725233 40.516357 
L 276.510833 40.516284 
L 278.296433 40.516169 
L 280.082033 40.51603 
L 281.903345 40.515906 
L 283.688945 40.51584 
L 285.474545 40.515851 
L 287.260145 40.515932 
L 289.081457 40.516055 
L 290.867057 40.516166 
L 292.652657 40.516226 
L 294.438257 40.516211 
L 296.259569 40.516124 
L 298.045169 40.516004 
L 299.830769 40.515894 
L 301.616369 40.515837 
L 303.437681 40.515858 
L 305.223281 40.515951 
L 307.008881 40.516085 
L 308.794481 40.516218 
L 310.615793 40.516319 
L 312.401393 40.516376 
L 314.186993 40.516426 
L 315.972593 40.516544 
L 317.793905 40.51686 
L 319.579505 40.517523 
L 321.365105 40.518751 
L 323.150705 40.520842 
L 324.972017 40.524324 
L 326.757617 40.529763 
L 328.543217 40.538288 
L 330.328817 40.551543 
L 332.150129 40.572471 
L 333.935729 40.603856 
L 335.721329 40.651056 
L 337.506929 40.721039 
L 337.734055 40.73409 
L 339.328241 40.862353 
L 341.113841 41.069895 
L 342.899441 41.364471 
L 344.685041 41.776838 
L 346.506353 42.359714 
L 348.291953 43.140915 
L 348.725286 43.39521 
L 350.077553 44.58058 
L 351.726647 46.49985 
L 351.863153 46.747003 
L 352.883654 49.16097 
L 353.60974 51.82209 
L 353.684465 52.25459 
L 353.984594 54.48321 
L 354.208026 57.14433 
L 354.345852 59.80545 
L 354.429314 62.46657 
L 354.477327 65.12769 
L 354.501711 67.78881 
L 354.510993 70.44993 
L 354.512304 73.11105 
L 354.511559 75.77217 
L 354.512675 78.43329 
L 354.516861 81.09441 
L 354.52276 83.75553 
L 354.52762 86.41665 
L 354.528836 89.52129 
L 354.525523 92.18241 
L 354.520033 94.84353 
L 354.51536 97.50465 
L 354.514043 100.16577 
L 354.5168 102.82689 
L 354.522138 105.48801 
L 354.527163 108.14913 
L 354.529152 110.81025 
L 354.527029 113.47137 
L 354.521945 116.13249 
L 354.51666 118.79361 
L 354.514048 121.45473 
L 354.515543 124.11585 
L 354.520368 126.77697 
L 354.52598 129.43809 
L 354.529468 132.09921 
L 354.528786 135.20385 
L 354.525029 137.86497 
L 354.521327 140.52609 
L 354.521165 143.18721 
L 354.527095 145.84833 
L 354.539903 148.50945 
L 354.55897 151.17057 
L 354.583708 153.83169 
L 354.615353 156.49281 
L 354.658275 159.15393 
L 354.720195 161.81505 
L 354.811344 164.47617 
L 354.94315 167.13729 
L 355.127317 169.79841 
L 355.375976 172.45953 
L 355.470065 173.249178 
L 355.655363 175.12065 
L 356.05743 178.22529 
L 356.510469 180.88641 
L 357.094381 183.54753 
L 357.255665 184.161624 
L 357.732804 186.20865 
L 358.514544 188.86977 
L 359.041265 190.352513 
L 359.426573 191.53089 
L 360.452482 194.19201 
L 360.862577 195.13999 
L 361.56258 196.85313 
L 362.648177 199.246625 
L 362.763681 199.51425 
L 363.8837 202.17537 
L 364.433777 203.557344 
L 364.903348 204.83649 
L 365.678153 207.49761 
L 366.145128 210.15873 
L 366.191941 212.81985 
L 365.812723 215.48097 
L 365.10998 218.14209 
L 364.433777 220.149087 
L 364.192922 220.80321 
L 362.918326 223.90785 
L 362.648177 224.560729 
L 361.765892 226.56897 
L 360.862577 228.851804 
L 360.702331 229.23009 
L 359.660073 231.89121 
L 359.041265 233.799279 
L 358.773505 234.55233 
L 357.954282 237.21345 
L 357.306999 239.87457 
L 357.255665 240.120607 
L 356.677308 242.53569 
L 356.160324 245.19681 
L 355.733765 247.85793 
L 355.470065 249.740347 
L 355.338761 250.51905 
L 354.907759 253.18017 
L 354.460161 255.84129 
L 353.931555 258.50241 
L 353.684465 259.439933 
L 353.111039 261.16353 
L 351.866181 263.82465 
L 351.863153 263.829009 
L 350.077553 265.811549 
L 348.759014 266.92929 
L 348.291953 267.198361 
L 346.506353 267.968495 
L 344.685041 268.546395 
L 342.899441 268.957064 
L 341.113841 269.251431 
L 339.328241 269.459377 
L 337.706077 269.59041 
L 337.506929 269.601911 
L 335.721329 269.672314 
L 333.935729 269.719848 
L 332.150129 269.751482 
L 330.328817 269.772591 
L 328.543217 269.785967 
L 326.757617 269.794575 
L 324.972017 269.800069 
L 323.150705 269.80359 
L 321.365105 269.805708 
L 319.579505 269.806955 
L 317.793905 269.807631 
L 315.972593 269.807954 
L 314.186993 269.808075 
L 312.401393 269.808124 
L 310.615793 269.808179 
L 308.794481 269.808277 
L 307.008881 269.808408 
L 305.223281 269.808543 
L 303.437681 269.808639 
L 301.616369 269.808664 
L 299.830769 269.808611 
L 298.045169 269.808502 
L 296.259569 269.808381 
L 294.438257 269.808292 
L 292.652657 269.808273 
L 290.867057 269.80833 
L 289.081457 269.808439 
L 287.260145 269.808562 
L 285.474545 269.808647 
L 283.688945 269.808662 
L 281.903345 269.808599 
L 280.082033 269.808476 
L 278.296433 269.808338 
L 276.510833 269.808221 
L 274.725233 269.808146 
L 272.903921 269.808099 
L 271.118321 269.808023 
L 269.332721 269.807817 
L 267.547121 269.807338 
L 265.725809 269.806375 
L 263.940209 269.804708 
L 262.154609 269.801954 
L 260.369009 269.797546 
L 258.547697 269.790433 
L 256.762097 269.779506 
L 254.976497 269.7626 
L 253.190897 269.736702 
L 251.369585 269.696555 
L 249.583985 269.637602 
L 248.611792 269.59041 
L 247.798385 269.53513 
L 246.012785 269.359306 
L 244.191473 269.102154 
L 242.405873 268.745921 
L 240.620273 268.251002 
L 238.834673 267.57243 
L 237.586704 266.92929 
L 237.013361 266.488143 
L 235.227761 264.651389 
L 234.616618 263.82465 
L 233.442161 261.350567 
L 233.373457 261.16353 
z
" clip-path="url(#ped6f6726f7)" style="fill: none; stroke: #08509b; stroke-width: 1.5"/>
   </g>
   <g id="PathCollection_9"/>
   <g id="patch_3">
    <path d="M 34.240625 288.21825 
L 34.240625 22.10625 
" style="fill: none; stroke: #000000; stroke-width: 0.8; stroke-linejoin: miter; stroke-linecap: square"/>
   </g>
   <g id="patch_4">
    <path d="M 391.360625 288.21825 
L 391.360625 22.10625 
" style="fill: none; stroke: #000000; stroke-width: 0.8; stroke-linejoin: miter; stroke-linecap: square"/>
   </g>
   <g id="patch_5">
    <path d="M 34.240625 288.21825 
L 391.360625 288.21825 
" style="fill: none; stroke: #000000; stroke-width: 0.8; stroke-linejoin: miter; stroke-linecap: square"/>
   </g>
   <g id="patch_6">
    <path d="M 34.240625 22.10625 
L 391.360625 22.10625 
" style="fill: none; stroke: #000000; stroke-width: 0.8; stroke-linejoin: miter; stroke-linecap: square"/>
   </g>
   <g id="text_16">
    <!-- 8.4_cross_-41.0 -->
    <g transform="translate(166.181563 16.10625)scale(0.12 -0.12)">
     <defs>
      <path id="DejaVuSans-2e" d="M 684 794 
L 1344 794 
L 1344 0 
L 684 0 
L 684 794 
z
" transform="scale(0.015625)"/>
      <path id="DejaVuSans-5f" d="M 3263 -1063 
L 3263 -1509 
L -63 -1509 
L -63 -1063 
L 3263 -1063 
z
" transform="scale(0.015625)"/>
      <path id="DejaVuSans-63" d="M 3122 3366 
L 3122 2828 
Q 2878 2963 2633 3030 
Q 2388 3097 2138 3097 
Q 1578 3097 1268 2742 
Q 959 2388 959 1747 
Q 959 1106 1268 751 
Q 1578 397 2138 397 
Q 2388 397 2633 464 
Q 2878 531 3122 666 
L 3122 134 
Q 2881 22 2623 -34 
Q 2366 -91 2075 -91 
Q 1284 -91 818 406 
Q 353 903 353 1747 
Q 353 2603 823 3093 
Q 1294 3584 2113 3584 
Q 2378 3584 2631 3529 
Q 2884 3475 3122 3366 
z
" transform="scale(0.015625)"/>
      <path id="DejaVuSans-72" d="M 2631 2963 
Q 2534 3019 2420 3045 
Q 2306 3072 2169 3072 
Q 1681 3072 1420 2755 
Q 1159 2438 1159 1844 
L 1159 0 
L 581 0 
L 581 3500 
L 1159 3500 
L 1159 2956 
Q 1341 3275 1631 3429 
Q 1922 3584 2338 3584 
Q 2397 3584 2469 3576 
Q 2541 3569 2628 3553 
L 2631 2963 
z
" transform="scale(0.015625)"/>
      <path id="DejaVuSans-73" d="M 2834 3397 
L 2834 2853 
Q 2591 2978 2328 3040 
Q 2066 3103 1784 3103 
Q 1356 3103 1142 2972 
Q 928 2841 928 2578 
Q 928 2378 1081 2264 
Q 1234 2150 1697 2047 
L 1894 2003 
Q 2506 1872 2764 1633 
Q 3022 1394 3022 966 
Q 3022 478 2636 193 
Q 2250 -91 1575 -91 
Q 1294 -91 989 -36 
Q 684 19 347 128 
L 347 722 
Q 666 556 975 473 
Q 1284 391 1588 391 
Q 1994 391 2212 530 
Q 2431 669 2431 922 
Q 2431 1156 2273 1281 
Q 2116 1406 1581 1522 
L 1381 1569 
Q 847 1681 609 1914 
Q 372 2147 372 2553 
Q 372 3047 722 3315 
Q 1072 3584 1716 3584 
Q 2034 3584 2315 3537 
Q 2597 3491 2834 3397 
z
" transform="scale(0.015625)"/>
      <path id="DejaVuSans-2d" d="M 313 2009 
L 1997 2009 
L 1997 1497 
L 313 1497 
L 313 2009 
z
" transform="scale(0.015625)"/>
     </defs>
     <use xlink:href="#DejaVuSans-38"/>
     <use xlink:href="#DejaVuSans-2e" x="63.623047"/>
     <use xlink:href="#DejaVuSans-34" x="95.410156"/>
     <use xlink:href="#DejaVuSans-5f" x="159.033203"/>
     <use xlink:href="#DejaVuSans-63" x="209.033203"/>
     <use xlink:href="#DejaVuSans-72" x="264.013672"/>
     <use xlink:href="#DejaVuSans-6f" x="302.876953"/>
     <use xlink:href="#DejaVuSans-73" x="364.058594"/>
     <use xlink:href="#DejaVuSans-73" x="416.158203"/>
     <use xlink:href="#DejaVuSans-5f" x="468.257812"/>
     <use xlink:href="#DejaVuSans-2d" x="518.257812"/>
     <use xlink:href="#DejaVuSans-34" x="554.341797"/>
     <use xlink:href="#DejaVuSans-31" x="617.964844"/>
     <use xlink:href="#DejaVuSans-2e" x="681.587891"/>
     <use xlink:href="#DejaVuSans-30" x="713.375"/>
    </g>
   </g>
  </g>
 </g>
 <defs>
  <clipPath id="ped6f6726f7">
   <rect x="34.240625" y="22.10625" width="357.12" height="266.112"/>
  </clipPath>
 </defs>
</svg>
