<?xml version="1.0" encoding="utf-8" standalone="no"?>
<!DOCTYPE svg PUBLIC "-//W3C//DTD SVG 1.1//EN"
  "http://www.w3.org/Graphics/SVG/1.1/DTD/svg11.dtd">
<svg xmlns:xlink="http://www.w3.org/1999/xlink" width="408.104375pt" height="325.7745pt" viewBox="0 0 408.104375 325.7745" xmlns="http://www.w3.org/2000/svg" version="1.1">
 <metadata>
  <rdf:RDF xmlns:dc="http://purl.org/dc/elements/1.1/" xmlns:cc="http://creativecommons.org/ns#" xmlns:rdf="http://www.w3.org/1999/02/22-rdf-syntax-ns#">
   <cc:Work>
    <dc:type rdf:resource="http://purl.org/dc/dcmitype/StillImage"/>
    <dc:date>2024-07-12T12:18:23.565598</dc:date>
    <dc:format>image/svg+xml</dc:format>
    <dc:creator>
     <cc:Agent>
      <dc:title>Matplotlib v3.5.3, https://matplotlib.org/</dc:title>
     </cc:Agent>
    </dc:creator>
   </cc:Work>
  </rdf:RDF>
 </metadata>
 <defs>
  <style type="text/css">*{stroke-linejoin: round; stroke-linecap: butt}</style>
 </defs>
 <g id="figure_1">
  <g id="patch_1">
   <path d="M 0 325.7745 
L 408.104375 325.7745 
L 408.104375 0 
L 0 0 
z
" style="fill: #ffffff"/>
  </g>
  <g id="axes_1">
   <g id="patch_2">
    <path d="M 34.240625 288.21825 
L 391.360625 288.21825 
L 391.360625 22.10625 
L 34.240625 22.10625 
z
" style="fill: #ffffff"/>
   </g>
   <g id="matplotlib.axis_1">
    <g id="xtick_1">
     <g id="line2d_1">
      <defs>
       <path id="m3b40a80bda" d="M 0 0 
L 0 3.5 
" style="stroke: #000000; stroke-width: 0.8"/>
      </defs>
      <g>
       <use xlink:href="#m3b40a80bda" x="34.240625" y="288.21825" style="stroke: #000000; stroke-width: 0.8"/>
      </g>
     </g>
     <g id="text_1">
      <!-- 0 -->
      <g transform="translate(31.059375 302.816687)scale(0.1 -0.1)">
       <defs>
        <path id="DejaVuSans-30" d="M 2034 4250 
Q 1547 4250 1301 3770 
Q 1056 3291 1056 2328 
Q 1056 1369 1301 889 
Q 1547 409 2034 409 
Q 2525 409 2770 889 
Q 3016 1369 3016 2328 
Q 3016 3291 2770 3770 
Q 2525 4250 2034 4250 
z
M 2034 4750 
Q 2819 4750 3233 4129 
Q 3647 3509 3647 2328 
Q 3647 1150 3233 529 
Q 2819 -91 2034 -91 
Q 1250 -91 836 529 
Q 422 1150 422 2328 
Q 422 3509 836 4129 
Q 1250 4750 2034 4750 
z
" transform="scale(0.015625)"/>
       </defs>
       <use xlink:href="#DejaVuSans-30"/>
      </g>
     </g>
    </g>
    <g id="xtick_2">
     <g id="line2d_2">
      <g>
       <use xlink:href="#m3b40a80bda" x="105.664625" y="288.21825" style="stroke: #000000; stroke-width: 0.8"/>
      </g>
     </g>
     <g id="text_2">
      <!-- 20 -->
      <g transform="translate(99.302125 302.816687)scale(0.1 -0.1)">
       <defs>
        <path id="DejaVuSans-32" d="M 1228 531 
L 3431 531 
L 3431 0 
L 469 0 
L 469 531 
Q 828 903 1448 1529 
Q 2069 2156 2228 2338 
Q 2531 2678 2651 2914 
Q 2772 3150 2772 3378 
Q 2772 3750 2511 3984 
Q 2250 4219 1831 4219 
Q 1534 4219 1204 4116 
Q 875 4013 500 3803 
L 500 4441 
Q 881 4594 1212 4672 
Q 1544 4750 1819 4750 
Q 2544 4750 2975 4387 
Q 3406 4025 3406 3419 
Q 3406 3131 3298 2873 
Q 3191 2616 2906 2266 
Q 2828 2175 2409 1742 
Q 1991 1309 1228 531 
z
" transform="scale(0.015625)"/>
       </defs>
       <use xlink:href="#DejaVuSans-32"/>
       <use xlink:href="#DejaVuSans-30" x="63.623047"/>
      </g>
     </g>
    </g>
    <g id="xtick_3">
     <g id="line2d_3">
      <g>
       <use xlink:href="#m3b40a80bda" x="177.088625" y="288.21825" style="stroke: #000000; stroke-width: 0.8"/>
      </g>
     </g>
     <g id="text_3">
      <!-- 40 -->
      <g transform="translate(170.726125 302.816687)scale(0.1 -0.1)">
       <defs>
        <path id="DejaVuSans-34" d="M 2419 4116 
L 825 1625 
L 2419 1625 
L 2419 4116 
z
M 2253 4666 
L 3047 4666 
L 3047 1625 
L 3713 1625 
L 3713 1100 
L 3047 1100 
L 3047 0 
L 2419 0 
L 2419 1100 
L 313 1100 
L 313 1709 
L 2253 4666 
z
" transform="scale(0.015625)"/>
       </defs>
       <use xlink:href="#DejaVuSans-34"/>
       <use xlink:href="#DejaVuSans-30" x="63.623047"/>
      </g>
     </g>
    </g>
    <g id="xtick_4">
     <g id="line2d_4">
      <g>
       <use xlink:href="#m3b40a80bda" x="248.512625" y="288.21825" style="stroke: #000000; stroke-width: 0.8"/>
      </g>
     </g>
     <g id="text_4">
      <!-- 60 -->
      <g transform="translate(242.150125 302.816687)scale(0.1 -0.1)">
       <defs>
        <path id="DejaVuSans-36" d="M 2113 2584 
Q 1688 2584 1439 2293 
Q 1191 2003 1191 1497 
Q 1191 994 1439 701 
Q 1688 409 2113 409 
Q 2538 409 2786 701 
Q 3034 994 3034 1497 
Q 3034 2003 2786 2293 
Q 2538 2584 2113 2584 
z
M 3366 4563 
L 3366 3988 
Q 3128 4100 2886 4159 
Q 2644 4219 2406 4219 
Q 1781 4219 1451 3797 
Q 1122 3375 1075 2522 
Q 1259 2794 1537 2939 
Q 1816 3084 2150 3084 
Q 2853 3084 3261 2657 
Q 3669 2231 3669 1497 
Q 3669 778 3244 343 
Q 2819 -91 2113 -91 
Q 1303 -91 875 529 
Q 447 1150 447 2328 
Q 447 3434 972 4092 
Q 1497 4750 2381 4750 
Q 2619 4750 2861 4703 
Q 3103 4656 3366 4563 
z
" transform="scale(0.015625)"/>
       </defs>
       <use xlink:href="#DejaVuSans-36"/>
       <use xlink:href="#DejaVuSans-30" x="63.623047"/>
      </g>
     </g>
    </g>
    <g id="xtick_5">
     <g id="line2d_5">
      <g>
       <use xlink:href="#m3b40a80bda" x="319.936625" y="288.21825" style="stroke: #000000; stroke-width: 0.8"/>
      </g>
     </g>
     <g id="text_5">
      <!-- 80 -->
      <g transform="translate(313.574125 302.816687)scale(0.1 -0.1)">
       <defs>
        <path id="DejaVuSans-38" d="M 2034 2216 
Q 1584 2216 1326 1975 
Q 1069 1734 1069 1313 
Q 1069 891 1326 650 
Q 1584 409 2034 409 
Q 2484 409 2743 651 
Q 3003 894 3003 1313 
Q 3003 1734 2745 1975 
Q 2488 2216 2034 2216 
z
M 1403 2484 
Q 997 2584 770 2862 
Q 544 3141 544 3541 
Q 544 4100 942 4425 
Q 1341 4750 2034 4750 
Q 2731 4750 3128 4425 
Q 3525 4100 3525 3541 
Q 3525 3141 3298 2862 
Q 3072 2584 2669 2484 
Q 3125 2378 3379 2068 
Q 3634 1759 3634 1313 
Q 3634 634 3220 271 
Q 2806 -91 2034 -91 
Q 1263 -91 848 271 
Q 434 634 434 1313 
Q 434 1759 690 2068 
Q 947 2378 1403 2484 
z
M 1172 3481 
Q 1172 3119 1398 2916 
Q 1625 2713 2034 2713 
Q 2441 2713 2670 2916 
Q 2900 3119 2900 3481 
Q 2900 3844 2670 4047 
Q 2441 4250 2034 4250 
Q 1625 4250 1398 4047 
Q 1172 3844 1172 3481 
z
" transform="scale(0.015625)"/>
       </defs>
       <use xlink:href="#DejaVuSans-38"/>
       <use xlink:href="#DejaVuSans-30" x="63.623047"/>
      </g>
     </g>
    </g>
    <g id="xtick_6">
     <g id="line2d_6">
      <g>
       <use xlink:href="#m3b40a80bda" x="391.360625" y="288.21825" style="stroke: #000000; stroke-width: 0.8"/>
      </g>
     </g>
     <g id="text_6">
      <!-- 100 -->
      <g transform="translate(381.816875 302.816687)scale(0.1 -0.1)">
       <defs>
        <path id="DejaVuSans-31" d="M 794 531 
L 1825 531 
L 1825 4091 
L 703 3866 
L 703 4441 
L 1819 4666 
L 2450 4666 
L 2450 531 
L 3481 531 
L 3481 0 
L 794 0 
L 794 531 
z
" transform="scale(0.015625)"/>
       </defs>
       <use xlink:href="#DejaVuSans-31"/>
       <use xlink:href="#DejaVuSans-30" x="63.623047"/>
       <use xlink:href="#DejaVuSans-30" x="127.246094"/>
      </g>
     </g>
    </g>
    <g id="text_7">
     <!-- axialRotation -->
     <g transform="translate(180.024844 316.494812)scale(0.1 -0.1)">
      <defs>
       <path id="DejaVuSans-61" d="M 2194 1759 
Q 1497 1759 1228 1600 
Q 959 1441 959 1056 
Q 959 750 1161 570 
Q 1363 391 1709 391 
Q 2188 391 2477 730 
Q 2766 1069 2766 1631 
L 2766 1759 
L 2194 1759 
z
M 3341 1997 
L 3341 0 
L 2766 0 
L 2766 531 
Q 2569 213 2275 61 
Q 1981 -91 1556 -91 
Q 1019 -91 701 211 
Q 384 513 384 1019 
Q 384 1609 779 1909 
Q 1175 2209 1959 2209 
L 2766 2209 
L 2766 2266 
Q 2766 2663 2505 2880 
Q 2244 3097 1772 3097 
Q 1472 3097 1187 3025 
Q 903 2953 641 2809 
L 641 3341 
Q 956 3463 1253 3523 
Q 1550 3584 1831 3584 
Q 2591 3584 2966 3190 
Q 3341 2797 3341 1997 
z
" transform="scale(0.015625)"/>
       <path id="DejaVuSans-78" d="M 3513 3500 
L 2247 1797 
L 3578 0 
L 2900 0 
L 1881 1375 
L 863 0 
L 184 0 
L 1544 1831 
L 300 3500 
L 978 3500 
L 1906 2253 
L 2834 3500 
L 3513 3500 
z
" transform="scale(0.015625)"/>
       <path id="DejaVuSans-69" d="M 603 3500 
L 1178 3500 
L 1178 0 
L 603 0 
L 603 3500 
z
M 603 4863 
L 1178 4863 
L 1178 4134 
L 603 4134 
L 603 4863 
z
" transform="scale(0.015625)"/>
       <path id="DejaVuSans-6c" d="M 603 4863 
L 1178 4863 
L 1178 0 
L 603 0 
L 603 4863 
z
" transform="scale(0.015625)"/>
       <path id="DejaVuSans-52" d="M 2841 2188 
Q 3044 2119 3236 1894 
Q 3428 1669 3622 1275 
L 4263 0 
L 3584 0 
L 2988 1197 
Q 2756 1666 2539 1819 
Q 2322 1972 1947 1972 
L 1259 1972 
L 1259 0 
L 628 0 
L 628 4666 
L 2053 4666 
Q 2853 4666 3247 4331 
Q 3641 3997 3641 3322 
Q 3641 2881 3436 2590 
Q 3231 2300 2841 2188 
z
M 1259 4147 
L 1259 2491 
L 2053 2491 
Q 2509 2491 2742 2702 
Q 2975 2913 2975 3322 
Q 2975 3731 2742 3939 
Q 2509 4147 2053 4147 
L 1259 4147 
z
" transform="scale(0.015625)"/>
       <path id="DejaVuSans-6f" d="M 1959 3097 
Q 1497 3097 1228 2736 
Q 959 2375 959 1747 
Q 959 1119 1226 758 
Q 1494 397 1959 397 
Q 2419 397 2687 759 
Q 2956 1122 2956 1747 
Q 2956 2369 2687 2733 
Q 2419 3097 1959 3097 
z
M 1959 3584 
Q 2709 3584 3137 3096 
Q 3566 2609 3566 1747 
Q 3566 888 3137 398 
Q 2709 -91 1959 -91 
Q 1206 -91 779 398 
Q 353 888 353 1747 
Q 353 2609 779 3096 
Q 1206 3584 1959 3584 
z
" transform="scale(0.015625)"/>
       <path id="DejaVuSans-74" d="M 1172 4494 
L 1172 3500 
L 2356 3500 
L 2356 3053 
L 1172 3053 
L 1172 1153 
Q 1172 725 1289 603 
Q 1406 481 1766 481 
L 2356 481 
L 2356 0 
L 1766 0 
Q 1100 0 847 248 
Q 594 497 594 1153 
L 594 3053 
L 172 3053 
L 172 3500 
L 594 3500 
L 594 4494 
L 1172 4494 
z
" transform="scale(0.015625)"/>
       <path id="DejaVuSans-6e" d="M 3513 2113 
L 3513 0 
L 2938 0 
L 2938 2094 
Q 2938 2591 2744 2837 
Q 2550 3084 2163 3084 
Q 1697 3084 1428 2787 
Q 1159 2491 1159 1978 
L 1159 0 
L 581 0 
L 581 3500 
L 1159 3500 
L 1159 2956 
Q 1366 3272 1645 3428 
Q 1925 3584 2291 3584 
Q 2894 3584 3203 3211 
Q 3513 2838 3513 2113 
z
" transform="scale(0.015625)"/>
      </defs>
      <use xlink:href="#DejaVuSans-61"/>
      <use xlink:href="#DejaVuSans-78" x="61.279297"/>
      <use xlink:href="#DejaVuSans-69" x="120.458984"/>
      <use xlink:href="#DejaVuSans-61" x="148.242188"/>
      <use xlink:href="#DejaVuSans-6c" x="209.521484"/>
      <use xlink:href="#DejaVuSans-52" x="237.304688"/>
      <use xlink:href="#DejaVuSans-6f" x="302.287109"/>
      <use xlink:href="#DejaVuSans-74" x="363.46875"/>
      <use xlink:href="#DejaVuSans-61" x="402.677734"/>
      <use xlink:href="#DejaVuSans-74" x="463.957031"/>
      <use xlink:href="#DejaVuSans-69" x="503.166016"/>
      <use xlink:href="#DejaVuSans-6f" x="530.949219"/>
      <use xlink:href="#DejaVuSans-6e" x="592.130859"/>
     </g>
    </g>
   </g>
   <g id="matplotlib.axis_2">
    <g id="ytick_1">
     <g id="line2d_7">
      <defs>
       <path id="m0f9bcfa415" d="M 0 0 
L -3.5 0 
" style="stroke: #000000; stroke-width: 0.8"/>
      </defs>
      <g>
       <use xlink:href="#m0f9bcfa415" x="34.240625" y="288.21825" style="stroke: #000000; stroke-width: 0.8"/>
      </g>
     </g>
     <g id="text_8">
      <!-- 0 -->
      <g transform="translate(20.878125 292.017469)scale(0.1 -0.1)">
       <use xlink:href="#DejaVuSans-30"/>
      </g>
     </g>
    </g>
    <g id="ytick_2">
     <g id="line2d_8">
      <g>
       <use xlink:href="#m0f9bcfa415" x="34.240625" y="243.86625" style="stroke: #000000; stroke-width: 0.8"/>
      </g>
     </g>
     <g id="text_9">
      <!-- 1 -->
      <g transform="translate(20.878125 247.665469)scale(0.1 -0.1)">
       <use xlink:href="#DejaVuSans-31"/>
      </g>
     </g>
    </g>
    <g id="ytick_3">
     <g id="line2d_9">
      <g>
       <use xlink:href="#m0f9bcfa415" x="34.240625" y="199.51425" style="stroke: #000000; stroke-width: 0.8"/>
      </g>
     </g>
     <g id="text_10">
      <!-- 2 -->
      <g transform="translate(20.878125 203.313469)scale(0.1 -0.1)">
       <use xlink:href="#DejaVuSans-32"/>
      </g>
     </g>
    </g>
    <g id="ytick_4">
     <g id="line2d_10">
      <g>
       <use xlink:href="#m0f9bcfa415" x="34.240625" y="155.16225" style="stroke: #000000; stroke-width: 0.8"/>
      </g>
     </g>
     <g id="text_11">
      <!-- 3 -->
      <g transform="translate(20.878125 158.961469)scale(0.1 -0.1)">
       <defs>
        <path id="DejaVuSans-33" d="M 2597 2516 
Q 3050 2419 3304 2112 
Q 3559 1806 3559 1356 
Q 3559 666 3084 287 
Q 2609 -91 1734 -91 
Q 1441 -91 1130 -33 
Q 819 25 488 141 
L 488 750 
Q 750 597 1062 519 
Q 1375 441 1716 441 
Q 2309 441 2620 675 
Q 2931 909 2931 1356 
Q 2931 1769 2642 2001 
Q 2353 2234 1838 2234 
L 1294 2234 
L 1294 2753 
L 1863 2753 
Q 2328 2753 2575 2939 
Q 2822 3125 2822 3475 
Q 2822 3834 2567 4026 
Q 2313 4219 1838 4219 
Q 1578 4219 1281 4162 
Q 984 4106 628 3988 
L 628 4550 
Q 988 4650 1302 4700 
Q 1616 4750 1894 4750 
Q 2613 4750 3031 4423 
Q 3450 4097 3450 3541 
Q 3450 3153 3228 2886 
Q 3006 2619 2597 2516 
z
" transform="scale(0.015625)"/>
       </defs>
       <use xlink:href="#DejaVuSans-33"/>
      </g>
     </g>
    </g>
    <g id="ytick_5">
     <g id="line2d_11">
      <g>
       <use xlink:href="#m0f9bcfa415" x="34.240625" y="110.81025" style="stroke: #000000; stroke-width: 0.8"/>
      </g>
     </g>
     <g id="text_12">
      <!-- 4 -->
      <g transform="translate(20.878125 114.609469)scale(0.1 -0.1)">
       <use xlink:href="#DejaVuSans-34"/>
      </g>
     </g>
    </g>
    <g id="ytick_6">
     <g id="line2d_12">
      <g>
       <use xlink:href="#m0f9bcfa415" x="34.240625" y="66.45825" style="stroke: #000000; stroke-width: 0.8"/>
      </g>
     </g>
     <g id="text_13">
      <!-- 5 -->
      <g transform="translate(20.878125 70.257469)scale(0.1 -0.1)">
       <defs>
        <path id="DejaVuSans-35" d="M 691 4666 
L 3169 4666 
L 3169 4134 
L 1269 4134 
L 1269 2991 
Q 1406 3038 1543 3061 
Q 1681 3084 1819 3084 
Q 2600 3084 3056 2656 
Q 3513 2228 3513 1497 
Q 3513 744 3044 326 
Q 2575 -91 1722 -91 
Q 1428 -91 1123 -41 
Q 819 9 494 109 
L 494 744 
Q 775 591 1075 516 
Q 1375 441 1709 441 
Q 2250 441 2565 725 
Q 2881 1009 2881 1497 
Q 2881 1984 2565 2268 
Q 2250 2553 1709 2553 
Q 1456 2553 1204 2497 
Q 953 2441 691 2322 
L 691 4666 
z
" transform="scale(0.015625)"/>
       </defs>
       <use xlink:href="#DejaVuSans-35"/>
      </g>
     </g>
    </g>
    <g id="ytick_7">
     <g id="line2d_13">
      <g>
       <use xlink:href="#m0f9bcfa415" x="34.240625" y="22.10625" style="stroke: #000000; stroke-width: 0.8"/>
      </g>
     </g>
     <g id="text_14">
      <!-- 6 -->
      <g transform="translate(20.878125 25.905469)scale(0.1 -0.1)">
       <use xlink:href="#DejaVuSans-36"/>
      </g>
     </g>
    </g>
    <g id="text_15">
     <!-- zShift -->
     <g transform="translate(14.798438 169.151312)rotate(-90)scale(0.1 -0.1)">
      <defs>
       <path id="DejaVuSans-7a" d="M 353 3500 
L 3084 3500 
L 3084 2975 
L 922 459 
L 3084 459 
L 3084 0 
L 275 0 
L 275 525 
L 2438 3041 
L 353 3041 
L 353 3500 
z
" transform="scale(0.015625)"/>
       <path id="DejaVuSans-53" d="M 3425 4513 
L 3425 3897 
Q 3066 4069 2747 4153 
Q 2428 4238 2131 4238 
Q 1616 4238 1336 4038 
Q 1056 3838 1056 3469 
Q 1056 3159 1242 3001 
Q 1428 2844 1947 2747 
L 2328 2669 
Q 3034 2534 3370 2195 
Q 3706 1856 3706 1288 
Q 3706 609 3251 259 
Q 2797 -91 1919 -91 
Q 1588 -91 1214 -16 
Q 841 59 441 206 
L 441 856 
Q 825 641 1194 531 
Q 1563 422 1919 422 
Q 2459 422 2753 634 
Q 3047 847 3047 1241 
Q 3047 1584 2836 1778 
Q 2625 1972 2144 2069 
L 1759 2144 
Q 1053 2284 737 2584 
Q 422 2884 422 3419 
Q 422 4038 858 4394 
Q 1294 4750 2059 4750 
Q 2388 4750 2728 4690 
Q 3069 4631 3425 4513 
z
" transform="scale(0.015625)"/>
       <path id="DejaVuSans-68" d="M 3513 2113 
L 3513 0 
L 2938 0 
L 2938 2094 
Q 2938 2591 2744 2837 
Q 2550 3084 2163 3084 
Q 1697 3084 1428 2787 
Q 1159 2491 1159 1978 
L 1159 0 
L 581 0 
L 581 4863 
L 1159 4863 
L 1159 2956 
Q 1366 3272 1645 3428 
Q 1925 3584 2291 3584 
Q 2894 3584 3203 3211 
Q 3513 2838 3513 2113 
z
" transform="scale(0.015625)"/>
       <path id="DejaVuSans-66" d="M 2375 4863 
L 2375 4384 
L 1825 4384 
Q 1516 4384 1395 4259 
Q 1275 4134 1275 3809 
L 1275 3500 
L 2222 3500 
L 2222 3053 
L 1275 3053 
L 1275 0 
L 697 0 
L 697 3053 
L 147 3053 
L 147 3500 
L 697 3500 
L 697 3744 
Q 697 4328 969 4595 
Q 1241 4863 1831 4863 
L 2375 4863 
z
" transform="scale(0.015625)"/>
      </defs>
      <use xlink:href="#DejaVuSans-7a"/>
      <use xlink:href="#DejaVuSans-53" x="52.490234"/>
      <use xlink:href="#DejaVuSans-68" x="115.966797"/>
      <use xlink:href="#DejaVuSans-69" x="179.345703"/>
      <use xlink:href="#DejaVuSans-66" x="207.128906"/>
      <use xlink:href="#DejaVuSans-74" x="240.583984"/>
     </g>
    </g>
   </g>
   <g id="PathCollection_1"/>
   <g id="PathCollection_2">
    <path d="M 197.082155 288.21825 
L 196.668134 285.55713 
L 196.352634 282.89601 
L 196.11377 280.23489 
L 195.934616 277.57377 
L 195.801882 274.91265 
L 195.766001 273.93826 
L 195.69008 272.25153 
L 195.603703 269.59041 
L 195.54314 266.92929 
L 195.496257 263.82465 
L 195.470513 261.16353 
L 195.453882 258.50241 
L 195.443381 255.84129 
L 195.436847 253.18017 
L 195.432808 250.51905 
L 195.430334 247.85793 
L 195.428873 245.19681 
L 195.428102 242.53569 
L 195.427797 239.87457 
L 195.427766 237.21345 
L 195.427831 234.55233 
L 195.427852 231.89121 
L 195.427767 229.23009 
L 195.427593 226.56897 
L 195.427413 223.90785 
L 195.427315 220.80321 
L 195.427375 218.14209 
L 195.427537 215.48097 
L 195.427711 212.81985 
L 195.427804 210.15873 
L 195.427765 207.49761 
L 195.427615 204.83649 
L 195.427435 202.17537 
L 195.427323 199.51425 
L 195.42734 196.85313 
L 195.427476 194.19201 
L 195.427658 191.53089 
L 195.427787 188.86977 
L 195.427793 186.20865 
L 195.427673 183.54753 
L 195.427492 180.88641 
L 195.427348 178.22529 
L 195.427328 175.12065 
L 195.427448 172.45953 
L 195.427629 169.79841 
L 195.427773 167.13729 
L 195.427801 164.47617 
L 195.4277 161.81505 
L 195.427522 159.15393 
L 195.427365 156.49281 
L 195.427314 153.83169 
L 195.427397 151.17057 
L 195.427568 148.50945 
L 195.427735 145.84833 
L 195.427807 143.18721 
L 195.427746 140.52609 
L 195.427584 137.86497 
L 195.427409 135.20385 
L 195.427314 132.09921 
L 195.427375 129.43809 
L 195.427537 126.77697 
L 195.427711 124.11585 
L 195.427804 121.45473 
L 195.427765 118.79361 
L 195.427615 116.13249 
L 195.427435 113.47137 
L 195.427323 110.81025 
L 195.42734 108.14913 
L 195.427476 105.48801 
L 195.427658 102.82689 
L 195.427787 100.16577 
L 195.427793 97.50465 
L 195.427673 94.84353 
L 195.427492 92.18241 
L 195.427349 89.52129 
L 195.42733 86.41665 
L 195.427453 83.75553 
L 195.42764 81.09441 
L 195.427798 78.43329 
L 195.427856 75.77217 
L 195.427814 73.11105 
L 195.427759 70.44993 
L 195.427839 67.78881 
L 195.42824 65.12769 
L 195.429157 62.46657 
L 195.430831 59.80545 
L 195.433627 57.14433 
L 195.438175 54.48321 
L 195.445525 51.82209 
L 195.457309 49.16097 
L 195.475887 46.49985 
L 195.510503 43.39521 
L 195.556228 40.73409 
L 195.622713 38.07297 
L 195.717162 35.41185 
L 195.766001 34.410263 
L 195.832534 32.75073 
L 195.977515 30.08961 
L 196.173419 27.42849 
L 196.435268 24.76737 
L 196.782452 22.10625 
" clip-path="url(#pdf5119ce1f)" style="fill: none; stroke: #dbe9f6; stroke-width: 1.5"/>
    <path d="M 371.35481 22.10625 
L 371.611889 23.915454 
L 371.749511 24.76737 
L 372.092203 27.42849 
L 372.351544 30.08961 
L 372.545982 32.75073 
L 372.68999 35.41185 
L 372.795048 38.07297 
L 372.870311 40.73409 
L 372.923093 43.39521 
L 372.963965 46.49985 
L 372.986423 49.16097 
L 373.000957 51.82209 
L 373.010188 54.48321 
L 373.016045 57.14433 
L 373.019892 59.80545 
L 373.022697 62.46657 
L 373.025223 65.12769 
L 373.028251 67.78881 
L 373.032824 70.44993 
L 373.040513 73.11105 
L 373.053711 75.77217 
L 373.075979 78.43329 
L 373.112488 81.09441 
L 373.170535 83.75553 
L 373.260118 86.41665 
L 373.397489 89.046101 
L 373.428614 89.52129 
L 373.68797 92.18241 
L 374.049961 94.84353 
L 374.539297 97.50465 
L 375.17942 100.16577 
L 375.218801 100.293808 
L 376.156859 102.82689 
L 377.004401 104.75996 
L 377.37122 105.48801 
L 378.790001 108.016595 
L 378.869751 108.14913 
L 380.549863 110.81025 
L 380.575601 110.850148 
L 382.225402 113.47137 
L 382.396913 113.757497 
L 383.753982 116.13249 
L 384.182513 116.968176 
L 385.082761 118.79361 
L 385.968113 120.922721 
L 386.187857 121.45473 
L 387.142116 124.11585 
L 387.753713 126.276486 
L 387.903181 126.77697 
L 388.575777 129.43809 
L 389.094419 132.09921 
L 389.550682 135.20385 
L 389.575025 135.414497 
L 389.902758 137.86497 
L 390.174175 140.52609 
L 390.378328 143.18721 
L 390.530038 145.84833 
L 390.641104 148.50945 
L 390.720974 151.17057 
L 390.777217 153.83169 
L 390.815882 156.49281 
L 390.841771 159.15393 
L 390.858641 161.81505 
L 390.869367 164.47617 
L 390.876067 167.13729 
L 390.880216 169.79841 
L 390.88277 172.45953 
L 390.884306 175.12065 
L 390.885248 178.22529 
L 390.885568 180.88641 
L 390.885618 183.54753 
L 390.885556 186.20865 
L 390.885507 188.86977 
L 390.885528 191.53089 
L 390.885597 194.19201 
L 390.885611 196.85313 
L 390.885423 199.51425 
L 390.884868 202.17537 
L 390.883762 204.83649 
L 390.88185 207.49761 
L 390.878715 210.15873 
L 390.873637 212.81985 
L 390.865457 215.48097 
L 390.852438 218.14209 
L 390.832148 220.80321 
L 390.794891 223.90785 
L 390.746375 226.56897 
L 390.676692 229.23009 
L 390.578762 231.89121 
L 390.443674 234.55233 
L 390.26021 237.21345 
L 390.014189 239.87457 
L 389.68755 242.53569 
L 389.575025 243.265095 
L 389.313075 245.19681 
L 388.847876 247.85793 
L 388.239193 250.51905 
L 387.753713 252.210967 
L 387.487314 253.18017 
L 386.595029 255.84129 
L 385.968113 257.364919 
L 385.488569 258.50241 
L 384.182513 261.093918 
L 384.145214 261.16353 
L 382.577061 263.82465 
L 382.396913 264.110908 
L 380.575601 266.791757 
L 380.477309 266.92929 
L 378.790001 269.368527 
L 378.640442 269.59041 
L 377.004401 272.222276 
L 376.988038 272.25153 
L 375.696928 274.91265 
L 375.218801 276.042816 
L 374.67813 277.57377 
L 373.86868 280.23489 
L 373.397489 281.973738 
L 373.188413 282.89601 
L 372.628157 285.55713 
L 372.053998 288.21825 
" clip-path="url(#pdf5119ce1f)" style="fill: none; stroke: #dbe9f6; stroke-width: 1.5"/>
   </g>
   <g id="PathCollection_3">
    <path d="M 201.983644 288.21825 
L 201.4399 285.55713 
L 201.122801 283.547577 
L 201.016122 282.89601 
L 200.673173 280.23489 
L 200.41618 277.57377 
L 200.225997 274.91265 
L 200.087415 272.25153 
L 199.988285 269.59041 
L 199.918896 266.92929 
L 199.865296 263.82465 
L 199.835935 261.16353 
L 199.817007 258.50241 
L 199.805074 255.84129 
L 199.797656 253.18017 
L 199.793072 250.51905 
L 199.790268 247.85793 
L 199.788623 245.19681 
L 199.787768 242.53569 
L 199.787446 239.87457 
L 199.787427 237.21345 
L 199.787505 234.55233 
L 199.78752 231.89121 
L 199.787407 229.23009 
L 199.787196 226.56897 
L 199.786988 223.90785 
L 199.786887 220.80321 
L 199.786972 218.14209 
L 199.78717 215.48097 
L 199.787373 212.81985 
L 199.78747 210.15873 
L 199.787409 207.49761 
L 199.787223 204.83649 
L 199.787013 202.17537 
L 199.786892 199.51425 
L 199.786927 196.85313 
L 199.787097 194.19201 
L 199.787312 191.53089 
L 199.787454 188.86977 
L 199.787446 186.20865 
L 199.787293 183.54753 
L 199.787078 180.88641 
L 199.786917 178.22529 
L 199.78691 175.12065 
L 199.787063 172.45953 
L 199.787278 169.79841 
L 199.787439 167.13729 
L 199.787459 164.47617 
L 199.787326 161.81505 
L 199.787113 159.15393 
L 199.786935 156.49281 
L 199.786889 153.83169 
L 199.786999 151.17057 
L 199.787207 148.50945 
L 199.787398 145.84833 
L 199.787471 143.18721 
L 199.787384 140.52609 
L 199.787186 137.86497 
L 199.786984 135.20385 
L 199.786885 132.09921 
L 199.786972 129.43809 
L 199.78717 126.77697 
L 199.787372 124.11585 
L 199.78747 121.45473 
L 199.787409 118.79361 
L 199.787223 116.13249 
L 199.787013 113.47137 
L 199.786892 110.81025 
L 199.786927 108.14913 
L 199.787097 105.48801 
L 199.787312 102.82689 
L 199.787454 100.16577 
L 199.787446 97.50465 
L 199.787293 94.84353 
L 199.787078 92.18241 
L 199.786918 89.52129 
L 199.786912 86.41665 
L 199.787069 83.75553 
L 199.787293 81.09441 
L 199.787471 78.43329 
L 199.787528 75.77217 
L 199.787472 73.11105 
L 199.787412 70.44993 
L 199.787533 67.78881 
L 199.788054 65.12769 
L 199.78921 62.46657 
L 199.791294 59.80545 
L 199.794762 57.14433 
L 199.800397 54.48321 
L 199.809501 51.82209 
L 199.824081 49.16097 
L 199.847024 46.49985 
L 199.889672 43.39521 
L 199.945876 40.73409 
L 200.027446 38.07297 
L 200.143153 35.41185 
L 200.304089 32.75073 
L 200.524275 30.08961 
L 200.821494 27.42849 
L 201.122801 25.385117 
L 201.210876 24.76737 
L 201.695633 22.10625 
" clip-path="url(#pdf5119ce1f)" style="fill: none; stroke: #bad6eb; stroke-width: 1.5"/>
    <path d="M 366.458484 22.10625 
L 367.018652 24.76737 
L 367.445705 27.42849 
L 367.769054 30.08961 
L 368.01151 32.75073 
L 368.040689 33.174707 
L 368.207737 35.41185 
L 368.35306 38.07297 
L 368.456992 40.73409 
L 368.529734 43.39521 
L 368.58592 46.49985 
L 368.616704 49.16097 
L 368.636563 51.82209 
L 368.64912 54.48321 
L 368.657002 57.14433 
L 368.662026 59.80545 
L 368.6654 62.46657 
L 368.667964 65.12769 
L 368.670436 67.78881 
L 368.673651 70.44993 
L 368.678775 73.11105 
L 368.687505 75.77217 
L 368.70228 78.43329 
L 368.72655 81.09441 
L 368.765135 83.75553 
L 368.824663 86.41665 
L 368.932619 89.52129 
L 369.071758 92.18241 
L 369.269886 94.84353 
L 369.545579 97.50465 
L 369.826289 99.502959 
L 369.934039 100.16577 
L 370.499826 102.82689 
L 371.228901 105.48801 
L 371.611889 106.610681 
L 372.220672 108.14913 
L 373.397489 110.647089 
L 373.484439 110.81025 
L 375.073213 113.47137 
L 375.218801 113.695809 
L 376.84801 116.13249 
L 377.004401 116.361773 
L 378.603879 118.79361 
L 378.790001 119.088852 
L 380.17467 121.45473 
L 380.575601 122.215584 
L 381.503396 124.11585 
L 382.396913 126.286889 
L 382.588623 126.77697 
L 383.478659 129.43809 
L 384.176554 132.09921 
L 384.182513 132.126951 
L 384.843293 135.20385 
L 385.273548 137.86497 
L 385.601849 140.52609 
L 385.849658 143.18721 
L 385.968113 144.880745 
L 386.04175 145.84833 
L 386.19227 148.50945 
L 386.300405 151.17057 
L 386.376436 153.83169 
L 386.428603 156.49281 
L 386.463452 159.15393 
L 386.486107 161.81505 
L 386.500483 164.47617 
L 386.509453 167.13729 
L 386.515007 169.79841 
L 386.518424 172.45953 
L 386.52047 175.12065 
L 386.521709 178.22529 
L 386.522111 180.88641 
L 386.522156 183.54753 
L 386.522063 186.20865 
L 386.521999 188.86977 
L 386.522039 191.53089 
L 386.522137 194.19201 
L 386.522142 196.85313 
L 386.521842 199.51425 
L 386.521005 202.17537 
L 386.519365 204.83649 
L 386.516555 207.49761 
L 386.511958 210.15873 
L 386.504519 212.81985 
L 386.492546 215.48097 
L 386.473523 218.14209 
L 386.443945 220.80321 
L 386.38979 223.90785 
L 386.31947 226.56897 
L 386.218724 229.23009 
L 386.077484 231.89121 
L 385.968113 233.404766 
L 385.891602 234.55233 
L 385.654601 237.21345 
L 385.337742 239.87457 
L 384.918586 242.53569 
L 384.368666 245.19681 
L 384.182513 245.927888 
L 383.685075 247.85793 
L 382.816426 250.51905 
L 382.396913 251.583171 
L 381.721984 253.18017 
L 380.575601 255.448666 
L 380.356703 255.84129 
L 378.790001 258.363074 
L 378.694856 258.50241 
L 377.004401 260.87686 
L 376.790452 261.16353 
L 375.218801 263.318952 
L 374.862352 263.82465 
L 373.397489 266.108826 
L 372.927217 266.92929 
L 371.616716 269.59041 
L 371.611889 269.601853 
L 370.655793 272.25153 
L 369.847397 274.91265 
L 369.826289 274.992804 
L 369.230644 277.57377 
L 368.669614 280.23489 
L 368.117451 282.89601 
L 368.040689 283.255373 
L 367.577807 285.55713 
L 366.96941 288.21825 
" clip-path="url(#pdf5119ce1f)" style="fill: none; stroke: #bad6eb; stroke-width: 1.5"/>
   </g>
   <g id="PathCollection_4">
    <path d="M 206.097838 288.21825 
L 205.320115 285.55713 
L 204.729713 282.9112 
L 204.726522 282.89601 
L 204.281612 280.23489 
L 203.948217 277.57377 
L 203.701572 274.91265 
L 203.521956 272.25153 
L 203.393593 269.59041 
L 203.303848 266.92929 
L 203.234632 263.82465 
L 203.196782 261.16353 
L 203.17242 258.50241 
L 203.157078 255.84129 
L 203.147544 253.18017 
L 203.141655 250.51905 
L 203.138057 247.85793 
L 203.135957 245.19681 
L 203.13488 242.53569 
L 203.134488 239.87457 
L 203.13448 237.21345 
L 203.134582 234.55233 
L 203.134593 231.89121 
L 203.134431 229.23009 
L 203.134147 226.56897 
L 203.133877 223.90785 
L 203.133759 220.80321 
L 203.133885 218.14209 
L 203.134152 215.48097 
L 203.134415 212.81985 
L 203.134531 210.15873 
L 203.134437 207.49761 
L 203.134183 204.83649 
L 203.133908 202.17537 
L 203.13376 199.51425 
L 203.13382 196.85313 
L 203.134055 194.19201 
L 203.134338 191.53089 
L 203.134515 188.86977 
L 203.13449 186.20865 
L 203.134278 183.54753 
L 203.133992 180.88641 
L 203.133788 178.22529 
L 203.133796 175.12065 
L 203.134008 172.45953 
L 203.134294 169.79841 
L 203.134498 167.13729 
L 203.134509 164.47617 
L 203.134322 161.81505 
L 203.134038 159.15393 
L 203.133811 156.49281 
L 203.133764 153.83169 
L 203.133922 151.17057 
L 203.1342 148.50945 
L 203.134447 145.84833 
L 203.13453 143.18721 
L 203.134402 140.52609 
L 203.134134 137.86497 
L 203.133871 135.20385 
L 203.133757 132.09921 
L 203.133884 129.43809 
L 203.134152 126.77697 
L 203.134415 124.11585 
L 203.134531 121.45473 
L 203.134437 118.79361 
L 203.134183 116.13249 
L 203.133908 113.47137 
L 203.13376 110.81025 
L 203.13382 108.14913 
L 203.134055 105.48801 
L 203.134338 102.82689 
L 203.134515 100.16577 
L 203.134491 97.50465 
L 203.134278 94.84353 
L 203.133993 92.18241 
L 203.13379 89.52129 
L 203.1338 86.41665 
L 203.134017 83.75553 
L 203.134314 81.09441 
L 203.134542 78.43329 
L 203.134606 75.77217 
L 203.134525 73.11105 
L 203.134454 70.44993 
L 203.134641 67.78881 
L 203.135377 65.12769 
L 203.136979 62.46657 
L 203.139842 59.80545 
L 203.144593 57.14433 
L 203.152309 54.48321 
L 203.164771 51.82209 
L 203.184713 49.16097 
L 203.21605 46.49985 
L 203.2742 43.39521 
L 203.350708 40.73409 
L 203.461597 38.07297 
L 203.618733 35.41185 
L 203.837136 32.75073 
L 204.135822 30.08961 
L 204.538961 27.42849 
L 204.729713 26.455073 
L 205.083313 24.76737 
L 205.810156 22.10625 
" clip-path="url(#pdf5119ce1f)" style="fill: none; stroke: #89bedc; stroke-width: 1.5"/>
    <path d="M 362.350306 22.10625 
L 362.648177 23.056236 
L 363.132253 24.76737 
L 363.71978 27.42849 
L 364.164774 30.08961 
L 364.433777 32.222143 
L 364.499018 32.75073 
L 364.748055 35.41185 
L 364.929363 38.07297 
L 365.058908 40.73409 
L 365.149464 43.39521 
L 365.219297 46.49985 
L 365.257485 49.16097 
L 365.282076 51.82209 
L 365.297588 54.48321 
L 365.307281 57.14433 
L 365.313377 59.80545 
L 365.317317 62.46657 
L 365.320033 65.12769 
L 365.32224 67.78881 
L 365.324676 70.44993 
L 365.3283 73.11105 
L 365.334425 75.77217 
L 365.344853 78.43329 
L 365.362035 81.09441 
L 365.389327 83.75553 
L 365.431321 86.41665 
L 365.507312 89.52129 
L 365.605241 92.18241 
L 365.744985 94.84353 
L 365.940282 97.50465 
L 366.20785 100.16577 
L 366.219377 100.253202 
L 366.585032 102.82689 
L 367.082448 105.48801 
L 367.727569 108.14913 
L 368.040689 109.188636 
L 368.590693 110.81025 
L 369.696045 113.47137 
L 369.826289 113.740468 
L 371.127063 116.13249 
L 371.611889 116.926212 
L 372.842027 118.79361 
L 373.397489 119.5926 
L 374.697894 121.45473 
L 375.218801 122.207625 
L 376.455499 124.11585 
L 377.004401 125.02602 
L 377.957309 126.77697 
L 378.790001 128.527539 
L 379.180958 129.43809 
L 380.145467 132.09921 
L 380.575601 133.571799 
L 381.015951 135.20385 
L 381.579846 137.86497 
L 382.013652 140.52609 
L 382.343084 143.18721 
L 382.396913 143.759263 
L 382.592226 145.84833 
L 382.775445 148.50945 
L 382.907149 151.17057 
L 382.999734 153.83169 
L 383.063206 156.49281 
L 383.105551 159.15393 
L 383.133038 161.81505 
L 383.150459 164.47617 
L 383.161321 167.13729 
L 383.168047 169.79841 
L 383.172186 172.45953 
L 383.174657 175.12065 
L 383.176135 178.22529 
L 383.176597 180.88641 
L 383.176629 183.54753 
L 383.176504 186.20865 
L 383.17643 188.86977 
L 383.176489 191.53089 
L 383.176614 194.19201 
L 383.176606 196.85313 
L 383.176195 199.51425 
L 383.175084 202.17537 
L 383.172937 204.83649 
L 383.169279 207.49761 
L 383.163305 210.15873 
L 383.153647 212.81985 
L 383.138117 215.48097 
L 383.11348 218.14209 
L 383.075243 220.80321 
L 383.005399 223.90785 
L 382.91493 226.56897 
L 382.785626 229.23009 
L 382.604806 231.89121 
L 382.396913 234.129406 
L 382.357131 234.55233 
L 382.026289 237.21345 
L 381.58656 239.87457 
L 381.009219 242.53569 
L 380.575601 244.112603 
L 380.250693 245.19681 
L 379.267114 247.85793 
L 378.790001 248.931102 
L 377.991799 250.51905 
L 377.004401 252.226631 
L 376.381613 253.18017 
L 375.218801 254.83527 
L 374.457217 255.84129 
L 373.397489 257.232127 
L 372.440759 258.50241 
L 371.611889 259.66969 
L 370.646703 261.16353 
L 369.826289 262.594504 
L 369.210697 263.82465 
L 368.040689 266.622144 
L 367.928958 266.92929 
L 367.109276 269.59041 
L 366.424742 272.25153 
L 366.219377 273.158807 
L 365.848529 274.91265 
L 365.324542 277.57377 
L 364.800229 280.23489 
L 364.433777 281.968422 
L 364.233643 282.89601 
L 363.579273 285.55713 
L 362.782702 288.21825 
" clip-path="url(#pdf5119ce1f)" style="fill: none; stroke: #89bedc; stroke-width: 1.5"/>
   </g>
   <g id="PathCollection_5">
    <path d="M 210.816272 288.21825 
L 210.122225 286.999311 
L 209.476688 285.55713 
L 208.540457 282.89601 
L 208.300913 282.020729 
L 207.88431 280.23489 
L 207.412919 277.57377 
L 207.064171 274.91265 
L 206.810273 272.25153 
L 206.62893 269.59041 
L 206.515313 267.205595 
L 206.503088 266.92929 
L 206.411733 263.82465 
L 206.361862 261.16353 
L 206.329807 258.50241 
L 206.30964 255.84129 
L 206.297115 253.18017 
L 206.28938 250.51905 
L 206.284661 247.85793 
L 206.281919 245.19681 
L 206.280529 242.53569 
L 206.28004 239.87457 
L 206.280047 237.21345 
L 206.280183 234.55233 
L 206.280185 231.89121 
L 206.279954 229.23009 
L 206.279566 226.56897 
L 206.279209 223.90785 
L 206.279068 220.80321 
L 206.279254 218.14209 
L 206.27962 215.48097 
L 206.279968 212.81985 
L 206.280109 210.15873 
L 206.279965 207.49761 
L 206.279616 204.83649 
L 206.279249 202.17537 
L 206.279065 199.51425 
L 206.279162 196.85313 
L 206.279489 194.19201 
L 206.279867 191.53089 
L 206.280093 188.86977 
L 206.280043 186.20865 
L 206.279745 183.54753 
L 206.27936 180.88641 
L 206.279097 178.22529 
L 206.279127 175.12065 
L 206.279425 172.45953 
L 206.27981 169.79841 
L 206.280072 167.13729 
L 206.280071 164.47617 
L 206.279806 161.81505 
L 206.279421 159.15393 
L 206.279125 156.49281 
L 206.279078 153.83169 
L 206.279306 151.17057 
L 206.279685 148.50945 
L 206.28001 145.84833 
L 206.280104 143.18721 
L 206.279917 140.52609 
L 206.27955 137.86497 
L 206.279202 135.20385 
L 206.279066 132.09921 
L 206.279253 129.43809 
L 206.27962 126.77697 
L 206.279968 124.11585 
L 206.280109 121.45473 
L 206.279965 118.79361 
L 206.279616 116.13249 
L 206.279249 113.47137 
L 206.279065 110.81025 
L 206.279162 108.14913 
L 206.279489 105.48801 
L 206.279867 102.82689 
L 206.280093 100.16577 
L 206.280043 97.50465 
L 206.279745 94.84353 
L 206.279361 92.18241 
L 206.279099 89.52129 
L 206.279132 86.41665 
L 206.279437 83.75553 
L 206.279838 81.09441 
L 206.280136 78.43329 
L 206.280207 75.77217 
L 206.280092 73.11105 
L 206.280007 70.44993 
L 206.280292 67.78881 
L 206.281344 65.12769 
L 206.283593 62.46657 
L 206.287585 59.80545 
L 206.294194 57.14433 
L 206.304922 54.48321 
L 206.322243 51.82209 
L 206.349937 49.16097 
L 206.393397 46.49985 
L 206.473901 43.39521 
L 206.515313 42.347417 
L 206.584084 40.73409 
L 206.747753 38.07297 
L 206.979527 35.41185 
L 207.301559 32.75073 
L 207.741965 30.08961 
L 208.300913 27.582047 
L 208.341404 27.42849 
L 209.244778 24.76737 
L 210.122225 22.789222 
L 210.513358 22.10625 
" clip-path="url(#pdf5119ce1f)" style="fill: none; stroke: #539ecd; stroke-width: 1.5"/>
    <path d="M 357.646108 22.10625 
L 359.00205 24.76737 
L 359.041265 24.863438 
L 359.894048 27.42849 
L 360.56585 30.08961 
L 360.862577 31.637417 
L 361.050262 32.75073 
L 361.387916 35.41185 
L 361.63366 38.07297 
L 361.809134 40.73409 
L 361.931681 43.39521 
L 362.026064 46.49985 
L 362.077599 49.16097 
L 362.110737 51.82209 
L 362.131607 54.48321 
L 362.144613 57.14433 
L 362.152731 59.80545 
L 362.157854 62.46657 
L 362.161161 65.12769 
L 362.16348 67.78881 
L 362.165591 70.44993 
L 362.168423 73.11105 
L 362.173164 75.77217 
L 362.18133 78.43329 
L 362.194865 81.09441 
L 362.216329 83.75553 
L 362.249195 86.41665 
L 362.308361 89.52129 
L 362.384376 92.18241 
L 362.492766 94.84353 
L 362.644346 97.50465 
L 362.648177 97.554719 
L 362.842968 100.16577 
L 363.110108 102.82689 
L 363.464017 105.48801 
L 363.926651 108.14913 
L 364.433777 110.423209 
L 364.5247 110.81025 
L 365.287047 113.47137 
L 366.219377 116.04522 
L 366.254369 116.13249 
L 367.492105 118.79361 
L 368.040689 119.808926 
L 369.031761 121.45473 
L 369.826289 122.664195 
L 370.844146 124.11585 
L 371.611889 125.18451 
L 372.739689 126.77697 
L 373.397489 127.74214 
L 374.449163 129.43809 
L 375.218801 130.811782 
L 375.847484 132.09921 
L 377.004401 134.922574 
L 377.104375 135.20385 
L 377.876328 137.86497 
L 378.481778 140.52609 
L 378.790001 142.272073 
L 378.935462 143.18721 
L 379.257926 145.84833 
L 379.495405 148.50945 
L 379.666642 151.17057 
L 379.787218 153.83169 
L 379.869918 156.49281 
L 379.925068 159.15393 
L 379.960836 161.81505 
L 379.983485 164.47617 
L 379.997605 167.13729 
L 380.006353 169.79841 
L 380.011738 172.45953 
L 380.014947 175.12065 
L 380.016844 178.22529 
L 380.017411 180.88641 
L 380.017421 183.54753 
L 380.017241 186.20865 
L 380.017146 188.86977 
L 380.017238 191.53089 
L 380.017411 194.19201 
L 380.017386 196.85313 
L 380.016789 199.51425 
L 380.015217 202.17537 
L 380.012212 204.83649 
L 380.007116 207.49761 
L 379.998816 210.15873 
L 379.985412 212.81985 
L 379.963883 215.48097 
L 379.929784 218.14209 
L 379.876976 220.80321 
L 379.780791 223.90785 
L 379.656612 226.56897 
L 379.479778 229.23009 
L 379.233585 231.89121 
L 378.89759 234.55233 
L 378.790001 235.201897 
L 378.415977 237.21345 
L 377.771703 239.87457 
L 377.004401 242.341164 
L 376.93345 242.53569 
L 375.762198 245.19681 
L 375.218801 246.239069 
L 374.233211 247.85793 
L 373.397489 249.094226 
L 372.330998 250.51905 
L 371.611889 251.444829 
L 370.258163 253.18017 
L 369.826289 253.750197 
L 368.375396 255.84129 
L 368.040689 256.370979 
L 366.860502 258.50241 
L 366.219377 259.855254 
L 365.670913 261.16353 
L 364.736285 263.82465 
L 364.433777 264.855023 
L 363.867766 266.92929 
L 363.2555 269.59041 
L 362.717137 272.25153 
L 362.648177 272.609584 
L 362.191412 274.91265 
L 361.653468 277.57377 
L 361.062095 280.23489 
L 360.862577 281.01528 
L 360.314971 282.89601 
L 359.37002 285.55713 
L 359.041265 286.319671 
L 358.018143 288.21825 
" clip-path="url(#pdf5119ce1f)" style="fill: none; stroke: #539ecd; stroke-width: 1.5"/>
   </g>
   <g id="PathCollection_6">
    <path d="M 227.502305 288.21825 
L 226.264049 288.071777 
L 224.478449 287.801212 
L 222.657137 287.477886 
L 220.871537 287.097287 
L 219.085937 286.591316 
L 217.300337 285.848614 
L 216.835898 285.55713 
L 215.479025 284.531184 
L 214.040833 282.89601 
L 213.693425 282.400342 
L 212.615028 280.23489 
L 211.907825 278.372525 
L 211.676791 277.57377 
L 211.095637 274.91265 
L 210.672601 272.25153 
L 210.370604 269.59041 
L 210.159826 266.92929 
L 210.122225 266.212778 
L 210.018654 263.82465 
L 209.945146 261.16353 
L 209.897953 258.50241 
L 209.868286 255.84129 
L 209.849867 253.18017 
L 209.838496 250.51905 
L 209.831568 247.85793 
L 209.827563 245.19681 
L 209.825558 242.53569 
L 209.824878 239.87457 
L 209.824912 237.21345 
L 209.825114 234.55233 
L 209.825097 231.89121 
L 209.824728 229.23009 
L 209.824137 226.56897 
L 209.82361 223.90785 
L 209.823426 220.80321 
L 209.823729 218.14209 
L 209.824289 215.48097 
L 209.824803 212.81985 
L 209.824991 210.15873 
L 209.824751 207.49761 
L 209.824213 204.83649 
L 209.823669 202.17537 
L 209.823413 199.51425 
L 209.823585 196.85313 
L 209.824091 194.19201 
L 209.824656 191.53089 
L 209.824975 188.86977 
L 209.824875 186.20865 
L 209.824409 183.54753 
L 209.82383 180.88641 
L 209.823453 178.22529 
L 209.823528 175.12065 
L 209.823993 172.45953 
L 209.824572 169.79841 
L 209.824949 167.13729 
L 209.824921 164.47617 
L 209.824503 161.81505 
L 209.823921 159.15393 
L 209.823491 156.49281 
L 209.823446 153.83169 
L 209.82381 151.17057 
L 209.824387 148.50945 
L 209.824862 145.84833 
L 209.82498 143.18721 
L 209.824675 140.52609 
L 209.824113 137.86497 
L 209.8236 135.20385 
L 209.823423 132.09921 
L 209.823727 129.43809 
L 209.824289 126.77697 
L 209.824803 124.11585 
L 209.824991 121.45473 
L 209.824751 118.79361 
L 209.824213 116.13249 
L 209.823669 113.47137 
L 209.823413 110.81025 
L 209.823585 108.14913 
L 209.824091 105.48801 
L 209.824656 102.82689 
L 209.824975 100.16577 
L 209.824875 97.50465 
L 209.824409 94.84353 
L 209.823832 92.18241 
L 209.823456 89.52129 
L 209.823536 86.41665 
L 209.824013 83.75553 
L 209.824617 81.09441 
L 209.825049 78.43329 
L 209.825137 75.77217 
L 209.824955 73.11105 
L 209.824845 70.44993 
L 209.825329 67.78881 
L 209.82701 65.12769 
L 209.83054 62.46657 
L 209.836768 59.80545 
L 209.847058 57.14433 
L 209.863755 54.48321 
L 209.890705 51.82209 
L 209.933759 49.16097 
L 210.001241 46.49985 
L 210.122225 43.489842 
L 210.126837 43.39521 
L 210.323974 40.73409 
L 210.609168 38.07297 
L 211.012817 35.41185 
L 211.573564 32.75073 
L 211.907825 31.569541 
L 212.462796 30.08961 
L 213.693425 27.619932 
L 213.829398 27.42849 
L 215.479025 25.594495 
L 216.614466 24.76737 
L 217.300337 24.355087 
L 219.085937 23.648445 
L 220.871537 23.164053 
L 222.657137 22.794284 
L 224.478449 22.477269 
L 226.264049 22.213992 
L 227.226425 22.10625 
" clip-path="url(#pdf5119ce1f)" style="fill: none; stroke: #2b7bba; stroke-width: 1.5"/>
    <path d="M 235.644828 22.10625 
L 237.013361 22.195383 
L 238.834673 22.261464 
L 240.620273 22.247579 
L 242.405873 22.160291 
L 243.163935 22.10625 
" clip-path="url(#pdf5119ce1f)" style="fill: none; stroke: #2b7bba; stroke-width: 1.5"/>
    <path d="M 243.445226 288.21825 
L 242.405873 288.146229 
L 240.620273 288.06922 
L 238.834673 288.06843 
L 237.013361 288.145563 
L 235.936872 288.21825 
" clip-path="url(#pdf5119ce1f)" style="fill: none; stroke: #2b7bba; stroke-width: 1.5"/>
    <path d="M 253.577715 22.10625 
L 254.976497 22.198386 
L 256.762097 22.26124 
L 258.547697 22.244816 
L 260.369009 22.153118 
L 261.022408 22.10625 
" clip-path="url(#pdf5119ce1f)" style="fill: none; stroke: #2b7bba; stroke-width: 1.5"/>
    <path d="M 261.30115 288.21825 
L 260.369009 288.153007 
L 258.547697 288.071566 
L 256.762097 288.068314 
L 254.976497 288.142439 
L 253.873843 288.21825 
" clip-path="url(#pdf5119ce1f)" style="fill: none; stroke: #2b7bba; stroke-width: 1.5"/>
    <path d="M 271.429427 22.10625 
L 272.903921 22.202202 
L 274.725233 22.262585 
L 276.510833 22.241283 
L 278.296433 22.148414 
L 278.881897 22.10625 
" clip-path="url(#pdf5119ce1f)" style="fill: none; stroke: #2b7bba; stroke-width: 1.5"/>
    <path d="M 279.159479 288.21825 
L 278.296433 288.157437 
L 276.510833 288.074358 
L 274.725233 288.066183 
L 272.903921 288.138268 
L 271.729953 288.21825 
" clip-path="url(#pdf5119ce1f)" style="fill: none; stroke: #2b7bba; stroke-width: 1.5"/>
    <path d="M 289.276261 22.10625 
L 290.867057 22.207751 
L 292.652657 22.263317 
L 294.438257 22.23878 
L 296.259569 22.141249 
L 296.743213 22.10625 
" clip-path="url(#pdf5119ce1f)" style="fill: none; stroke: #2b7bba; stroke-width: 1.5"/>
    <path d="M 297.019742 288.21825 
L 296.259569 288.164214 
L 294.438257 288.076375 
L 292.652657 288.064923 
L 290.867057 288.132168 
L 289.584401 288.21825 
" clip-path="url(#pdf5119ce1f)" style="fill: none; stroke: #2b7bba; stroke-width: 1.5"/>
    <path d="M 307.124102 22.10625 
L 308.794481 22.211331 
L 310.615793 22.264165 
L 312.401393 22.234806 
L 314.186993 22.136405 
L 314.602697 22.10625 
" clip-path="url(#pdf5119ce1f)" style="fill: none; stroke: #2b7bba; stroke-width: 1.5"/>
    <path d="M 314.878969 288.21825 
L 314.186993 288.168814 
L 312.401393 288.07963 
L 310.615793 288.063279 
L 308.794481 288.128209 
L 307.438051 288.21825 
" clip-path="url(#pdf5119ce1f)" style="fill: none; stroke: #2b7bba; stroke-width: 1.5"/>
    <path d="M 324.963352 22.10625 
L 324.972017 22.106878 
L 326.757617 22.216897 
L 328.543217 22.265461 
L 330.328817 22.234033 
L 332.150129 22.1335 
L 332.539698 22.10625 
" clip-path="url(#pdf5119ce1f)" style="fill: none; stroke: #2b7bba; stroke-width: 1.5"/>
    <path d="M 332.816605 288.21825 
L 332.150129 288.171952 
L 330.328817 288.0802 
L 328.543217 288.061574 
L 326.757617 288.12211 
L 325.285634 288.21825 
" clip-path="url(#pdf5119ce1f)" style="fill: none; stroke: #2b7bba; stroke-width: 1.5"/>
    <path d="M 340.991631 22.10625 
L 342.899441 22.35501 
L 346.506353 22.988892 
L 348.291953 23.409404 
L 350.077553 23.994036 
L 351.863153 24.891531 
L 353.684465 26.512927 
L 354.38339 27.42849 
L 355.470065 29.224587 
L 355.851047 30.08961 
L 356.753081 32.75073 
L 357.388421 35.41185 
L 358.057479 40.73409 
L 358.401485 46.49985 
L 358.568359 54.48321 
L 358.625594 75.77217 
L 358.738862 89.52129 
L 359.041265 97.902014 
L 359.362868 102.82689 
L 359.966184 108.14913 
L 360.862577 112.954742 
L 361.621845 116.13249 
L 362.648177 119.327804 
L 363.460873 121.45473 
L 364.707715 124.11585 
L 366.226358 126.77697 
L 371.872611 135.20385 
L 373.397489 138.400448 
L 374.114553 140.52609 
L 375.218801 145.028029 
L 375.359703 145.84833 
L 375.952545 151.17057 
L 376.250982 156.49281 
L 376.418234 164.47617 
L 376.468127 183.54753 
L 376.383029 215.48097 
L 376.246069 220.80321 
L 375.902247 226.56897 
L 375.253318 231.89121 
L 374.645535 234.55233 
L 373.397489 238.415946 
L 372.717912 239.87457 
L 371.187991 242.53569 
L 369.239509 245.19681 
L 367.191643 247.85793 
L 365.393306 250.51905 
L 363.932639 253.18017 
L 362.648177 256.153392 
L 361.80631 258.50241 
L 360.354014 263.82465 
L 357.255665 277.645774 
L 356.235875 280.23489 
L 355.470065 281.808465 
L 354.743391 282.89601 
L 353.684465 284.182528 
L 351.863153 285.654363 
L 350.077553 286.46377 
L 348.291953 287.005669 
L 344.685041 287.734692 
L 341.295221 288.21825 
L 341.295221 288.21825 
" clip-path="url(#pdf5119ce1f)" style="fill: none; stroke: #2b7bba; stroke-width: 1.5"/>
   </g>
   <g id="PathCollection_7">
    <path d="M 216.737782 266.92929 
L 216.26363 263.82465 
L 216.005431 261.16353 
L 215.839826 258.50241 
L 215.73579 255.84129 
L 215.671211 253.18017 
L 215.631353 250.51905 
L 215.607118 247.85793 
L 215.593187 245.19681 
L 215.586314 242.53569 
L 215.584079 239.87457 
L 215.584287 237.21345 
L 215.584989 234.55233 
L 215.584843 231.89121 
L 215.583435 229.23009 
L 215.581285 226.56897 
L 215.579441 223.90785 
L 215.578901 220.80321 
L 215.58008 218.14209 
L 215.582124 215.48097 
L 215.583921 212.81985 
L 215.584495 210.15873 
L 215.583535 207.49761 
L 215.581559 204.83649 
L 215.579641 202.17537 
L 215.578818 199.51425 
L 215.579537 196.85313 
L 215.581409 194.19201 
L 215.583419 191.53089 
L 215.584476 188.86977 
L 215.584009 186.20865 
L 215.58227 183.54753 
L 215.580202 180.88641 
L 215.578926 178.22529 
L 215.579317 175.12065 
L 215.581056 172.45953 
L 215.583124 169.79841 
L 215.5844 167.13729 
L 215.584192 164.47617 
L 215.582614 161.81505 
L 215.58052 159.15393 
L 215.579045 156.49281 
L 215.57899 153.83169 
L 215.580383 151.17057 
L 215.582471 148.50945 
L 215.58412 145.84833 
L 215.584437 143.18721 
L 215.583251 140.52609 
L 215.581204 137.86497 
L 215.579406 135.20385 
L 215.578889 132.09921 
L 215.580075 129.43809 
L 215.582122 126.77697 
L 215.583921 124.11585 
L 215.584495 121.45473 
L 215.583534 118.79361 
L 215.581559 116.13249 
L 215.579641 113.47137 
L 215.578818 110.81025 
L 215.579537 108.14913 
L 215.581409 105.48801 
L 215.583419 102.82689 
L 215.584477 100.16577 
L 215.58401 97.50465 
L 215.582272 94.84353 
L 215.580207 92.18241 
L 215.578938 89.52129 
L 215.57935 86.41665 
L 215.581133 83.75553 
L 215.583298 81.09441 
L 215.584783 78.43329 
L 215.585016 75.77217 
L 215.584337 73.11105 
L 215.584034 70.44993 
L 215.586024 67.78881 
L 215.59249 65.12769 
L 215.605828 62.46657 
L 215.629194 59.80545 
L 215.667721 57.14433 
L 215.730217 54.48321 
L 215.831062 51.82209 
L 215.99204 49.16097 
L 216.244056 46.49985 
L 216.709585 43.39521 
L 217.300337 40.817715 
L 217.328916 40.73409 
L 218.630684 38.07297 
L 219.085937 37.40546 
L 220.871537 35.595209 
L 221.108202 35.41185 
L 222.657137 34.516144 
L 224.478449 33.633454 
L 226.264049 32.899141 
L 226.734598 32.75073 
L 228.049649 32.430518 
L 229.835249 32.179568 
L 231.656561 32.139052 
L 233.442161 32.284927 
L 235.227761 32.53748 
L 236.742069 32.75073 
L 237.013361 32.800079 
L 238.834673 32.991746 
L 240.620273 32.964678 
L 242.265724 32.75073 
L 242.405873 32.736603 
L 244.191473 32.46651 
L 246.012785 32.205965 
L 247.798385 32.063451 
L 249.583985 32.086423 
L 251.369585 32.266043 
L 253.190897 32.540568 
L 254.663435 32.75073 
L 254.976497 32.808449 
L 256.762097 32.991414 
L 258.547697 32.957409 
L 260.08788 32.75073 
L 260.369009 32.721488 
L 262.154609 32.449459 
L 263.940209 32.197494 
L 265.725809 32.061009 
L 267.547121 32.09319 
L 269.332721 32.28057 
L 271.118321 32.551771 
L 272.527982 32.75073 
L 272.903921 32.819272 
L 274.725233 32.995799 
L 276.510833 32.948295 
L 277.932915 32.75073 
L 278.296433 32.711586 
L 280.082033 32.438275 
L 281.903345 32.185271 
L 283.688945 32.057909 
L 285.474545 32.098027 
L 287.260145 32.290432 
L 289.081457 32.568517 
L 290.396134 32.75073 
L 290.867057 32.835042 
L 292.652657 32.99827 
L 294.438257 32.941803 
L 295.771263 32.75073 
L 296.259569 32.696485 
L 298.045169 32.421577 
L 299.830769 32.177369 
L 301.616369 32.056188 
L 303.437681 32.105754 
L 305.223281 32.305472 
L 307.008881 32.57963 
L 308.259654 32.75073 
L 308.794481 32.845235 
L 310.615793 33.001295 
L 312.401393 32.931453 
L 313.624148 32.75073 
L 314.186993 32.686262 
L 315.972593 32.410509 
L 317.793905 32.165906 
L 319.579505 32.054145 
L 321.365105 32.111264 
L 323.150705 32.315781 
L 324.972017 32.596531 
L 326.121163 32.75073 
L 326.757617 32.861044 
L 328.543217 33.005234 
L 330.328817 32.929524 
L 331.534194 32.75073 
L 332.150129 32.679933 
L 333.935729 32.413402 
L 335.721329 32.197963 
L 337.506929 32.130947 
L 339.328241 32.270956 
L 341.113841 32.612187 
L 341.608379 32.75073 
L 342.899441 33.218897 
L 344.685041 34.010763 
L 346.506353 34.953639 
L 347.224907 35.41185 
L 348.291953 36.322381 
L 349.785137 38.07297 
L 350.077553 38.546879 
L 350.995861 40.73409 
L 351.776553 43.39521 
L 351.863153 43.841214 
L 352.212559 46.49985 
L 352.43492 49.16097 
L 352.577542 51.82209 
L 352.667154 54.48321 
L 352.722811 57.14433 
L 352.757227 59.80545 
L 352.778279 62.46657 
L 352.790624 65.12769 
L 352.797191 67.78881 
L 352.800288 70.44993 
L 352.802169 73.11105 
L 352.805088 75.77217 
L 352.81108 78.43329 
L 352.821799 81.09441 
L 352.838651 83.75553 
L 352.863301 86.41665 
L 352.905505 89.52129 
L 352.958257 92.18241 
L 353.033206 94.84353 
L 353.139044 97.50465 
L 353.286473 100.16577 
L 353.488367 102.82689 
L 353.684465 104.769508 
L 353.737534 105.48801 
L 353.989022 108.14913 
L 354.318572 110.81025 
L 354.749401 113.47137 
L 355.313923 116.13249 
L 355.470065 116.745281 
L 355.893589 118.79361 
L 356.590908 121.45473 
L 357.255665 123.47415 
L 357.442575 124.11585 
L 358.34004 126.77697 
L 359.041265 128.507383 
L 359.404911 129.43809 
L 360.581275 132.09921 
L 360.862577 132.699267 
L 362.119884 135.20385 
L 362.648177 136.210162 
L 363.591966 137.86497 
L 364.433777 139.346029 
L 365.148576 140.52609 
L 366.219377 142.410156 
L 366.644113 143.18721 
L 367.921729 145.84833 
L 368.040689 146.145566 
L 368.796131 148.50945 
L 369.470212 151.17057 
L 369.826289 153.041597 
L 369.934874 153.83169 
L 370.190268 156.49281 
L 370.363355 159.15393 
L 370.476545 161.81505 
L 370.548563 164.47617 
L 370.593743 167.13729 
L 370.622049 169.79841 
L 370.639708 172.45953 
L 370.650256 175.12065 
L 370.65623 178.22529 
L 370.657604 180.88641 
L 370.657071 183.54753 
L 370.65608 186.20865 
L 370.655696 188.86977 
L 370.656228 191.53089 
L 370.657107 194.19201 
L 370.657079 196.85313 
L 370.654584 199.51425 
L 370.648049 202.17537 
L 370.635787 204.83649 
L 370.615389 207.49761 
L 370.582678 210.15873 
L 370.530477 212.81985 
L 370.447519 215.48097 
L 370.317768 218.14209 
L 370.120318 220.80321 
L 369.826289 223.41081 
L 369.747318 223.90785 
L 369.14105 226.56897 
L 368.3475 229.23009 
L 368.040689 230.032503 
L 367.160621 231.89121 
L 366.219377 233.596058 
L 365.66088 234.55233 
L 364.433777 236.471601 
L 363.991144 237.21345 
L 362.648177 239.406904 
L 362.389281 239.87457 
L 360.954806 242.53569 
L 360.862577 242.714037 
L 359.653793 245.19681 
L 359.041265 246.641708 
L 358.517366 247.85793 
L 357.528046 250.51905 
L 357.255665 251.368479 
L 356.609917 253.18017 
L 355.830808 255.84129 
L 355.470065 257.305346 
L 355.110658 258.50241 
L 354.407122 261.16353 
L 353.788413 263.82465 
L 353.684465 264.261557 
L 352.83939 266.92929 
L 351.935371 269.59041 
L 351.863153 269.768757 
L 350.421755 272.25153 
L 350.077553 272.726609 
L 348.291953 274.450538 
L 347.664984 274.91265 
L 346.506353 275.569116 
L 344.685041 276.437544 
L 342.899441 277.188084 
L 341.787428 277.57377 
L 341.113841 277.754722 
L 339.328241 278.077062 
L 337.506929 278.199017 
L 335.721329 278.117998 
L 333.935729 277.895256 
L 332.150129 277.629264 
L 331.64993 277.57377 
L 330.328817 277.384504 
L 328.543217 277.322016 
L 326.757617 277.478753 
L 326.222017 277.57377 
L 324.972017 277.745515 
L 323.150705 278.025307 
L 321.365105 278.222218 
L 319.579505 278.268011 
L 317.793905 278.145909 
L 315.972593 277.896131 
L 314.186993 277.622316 
L 313.746196 277.57377 
L 312.401393 277.382529 
L 310.615793 277.326268 
L 308.794481 277.495093 
L 308.358756 277.57377 
L 307.008881 277.762532 
L 305.223281 278.035416 
L 303.437681 278.227313 
L 301.616369 278.265269 
L 299.830769 278.133959 
L 298.045169 277.885006 
L 296.259569 277.612307 
L 295.89791 277.57377 
L 294.438257 277.372938 
L 292.652657 277.330122 
L 290.867057 277.505697 
L 290.494531 277.57377 
L 289.081457 277.77373 
L 287.260145 278.050155 
L 285.474545 278.234415 
L 283.688945 278.263086 
L 281.903345 278.125744 
L 280.082033 277.868245 
L 278.296433 277.597544 
L 278.065667 277.57377 
L 276.510833 277.366958 
L 274.725233 277.333143 
L 272.903921 277.522067 
L 272.625595 277.57377 
L 271.118321 277.790583 
L 269.332721 278.059803 
L 267.547121 278.238829 
L 265.725809 278.259297 
L 263.940209 278.113067 
L 262.154609 277.857032 
L 260.369009 277.587879 
L 260.226841 277.57377 
L 258.547697 277.358622 
L 256.762097 277.338348 
L 254.976497 277.533278 
L 254.760698 277.57377 
L 253.190897 277.801843 
L 251.369585 278.073989 
L 249.583985 278.244949 
L 247.798385 278.256397 
L 246.012785 278.104301 
L 244.191473 277.839949 
L 242.410299 277.57377 
L 242.405873 277.572916 
L 240.620273 277.351792 
L 238.834673 277.338368 
L 237.013361 277.541783 
L 236.840127 277.57377 
L 235.227761 277.804296 
L 233.442161 278.053453 
L 231.656561 278.189197 
L 229.835249 278.134711 
L 228.049649 277.870996 
L 226.852691 277.57377 
L 226.264049 277.384701 
L 224.478449 276.645256 
L 222.657137 275.759822 
L 221.198531 274.91265 
L 220.871537 274.658674 
L 219.085937 272.839086 
L 218.686554 272.25153 
L 217.380702 269.59041 
L 217.300337 269.35714 
L 216.737782 266.92929 
z
" clip-path="url(#pdf5119ce1f)" style="fill: none; stroke: #0b559f; stroke-width: 1.5"/>
   </g>
   <g id="PathCollection_8"/>
   <g id="patch_3">
    <path d="M 34.240625 288.21825 
L 34.240625 22.10625 
" style="fill: none; stroke: #000000; stroke-width: 0.8; stroke-linejoin: miter; stroke-linecap: square"/>
   </g>
   <g id="patch_4">
    <path d="M 391.360625 288.21825 
L 391.360625 22.10625 
" style="fill: none; stroke: #000000; stroke-width: 0.8; stroke-linejoin: miter; stroke-linecap: square"/>
   </g>
   <g id="patch_5">
    <path d="M 34.240625 288.21825 
L 391.360625 288.21825 
" style="fill: none; stroke: #000000; stroke-width: 0.8; stroke-linejoin: miter; stroke-linecap: square"/>
   </g>
   <g id="patch_6">
    <path d="M 34.240625 22.10625 
L 391.360625 22.10625 
" style="fill: none; stroke: #000000; stroke-width: 0.8; stroke-linejoin: miter; stroke-linecap: square"/>
   </g>
   <g id="text_16">
    <!-- 8.0_cross_-45.0 -->
    <g transform="translate(166.181563 16.10625)scale(0.12 -0.12)">
     <defs>
      <path id="DejaVuSans-2e" d="M 684 794 
L 1344 794 
L 1344 0 
L 684 0 
L 684 794 
z
" transform="scale(0.015625)"/>
      <path id="DejaVuSans-5f" d="M 3263 -1063 
L 3263 -1509 
L -63 -1509 
L -63 -1063 
L 3263 -1063 
z
" transform="scale(0.015625)"/>
      <path id="DejaVuSans-63" d="M 3122 3366 
L 3122 2828 
Q 2878 2963 2633 3030 
Q 2388 3097 2138 3097 
Q 1578 3097 1268 2742 
Q 959 2388 959 1747 
Q 959 1106 1268 751 
Q 1578 397 2138 397 
Q 2388 397 2633 464 
Q 2878 531 3122 666 
L 3122 134 
Q 2881 22 2623 -34 
Q 2366 -91 2075 -91 
Q 1284 -91 818 406 
Q 353 903 353 1747 
Q 353 2603 823 3093 
Q 1294 3584 2113 3584 
Q 2378 3584 2631 3529 
Q 2884 3475 3122 3366 
z
" transform="scale(0.015625)"/>
      <path id="DejaVuSans-72" d="M 2631 2963 
Q 2534 3019 2420 3045 
Q 2306 3072 2169 3072 
Q 1681 3072 1420 2755 
Q 1159 2438 1159 1844 
L 1159 0 
L 581 0 
L 581 3500 
L 1159 3500 
L 1159 2956 
Q 1341 3275 1631 3429 
Q 1922 3584 2338 3584 
Q 2397 3584 2469 3576 
Q 2541 3569 2628 3553 
L 2631 2963 
z
" transform="scale(0.015625)"/>
      <path id="DejaVuSans-73" d="M 2834 3397 
L 2834 2853 
Q 2591 2978 2328 3040 
Q 2066 3103 1784 3103 
Q 1356 3103 1142 2972 
Q 928 2841 928 2578 
Q 928 2378 1081 2264 
Q 1234 2150 1697 2047 
L 1894 2003 
Q 2506 1872 2764 1633 
Q 3022 1394 3022 966 
Q 3022 478 2636 193 
Q 2250 -91 1575 -91 
Q 1294 -91 989 -36 
Q 684 19 347 128 
L 347 722 
Q 666 556 975 473 
Q 1284 391 1588 391 
Q 1994 391 2212 530 
Q 2431 669 2431 922 
Q 2431 1156 2273 1281 
Q 2116 1406 1581 1522 
L 1381 1569 
Q 847 1681 609 1914 
Q 372 2147 372 2553 
Q 372 3047 722 3315 
Q 1072 3584 1716 3584 
Q 2034 3584 2315 3537 
Q 2597 3491 2834 3397 
z
" transform="scale(0.015625)"/>
      <path id="DejaVuSans-2d" d="M 313 2009 
L 1997 2009 
L 1997 1497 
L 313 1497 
L 313 2009 
z
" transform="scale(0.015625)"/>
     </defs>
     <use xlink:href="#DejaVuSans-38"/>
     <use xlink:href="#DejaVuSans-2e" x="63.623047"/>
     <use xlink:href="#DejaVuSans-30" x="95.410156"/>
     <use xlink:href="#DejaVuSans-5f" x="159.033203"/>
     <use xlink:href="#DejaVuSans-63" x="209.033203"/>
     <use xlink:href="#DejaVuSans-72" x="264.013672"/>
     <use xlink:href="#DejaVuSans-6f" x="302.876953"/>
     <use xlink:href="#DejaVuSans-73" x="364.058594"/>
     <use xlink:href="#DejaVuSans-73" x="416.158203"/>
     <use xlink:href="#DejaVuSans-5f" x="468.257812"/>
     <use xlink:href="#DejaVuSans-2d" x="518.257812"/>
     <use xlink:href="#DejaVuSans-34" x="554.341797"/>
     <use xlink:href="#DejaVuSans-35" x="617.964844"/>
     <use xlink:href="#DejaVuSans-2e" x="681.587891"/>
     <use xlink:href="#DejaVuSans-30" x="713.375"/>
    </g>
   </g>
  </g>
 </g>
 <defs>
  <clipPath id="pdf5119ce1f">
   <rect x="34.240625" y="22.10625" width="357.12" height="266.112"/>
  </clipPath>
 </defs>
</svg>
