<?xml version="1.0" encoding="utf-8" standalone="no"?>
<!DOCTYPE svg PUBLIC "-//W3C//DTD SVG 1.1//EN"
  "http://www.w3.org/Graphics/SVG/1.1/DTD/svg11.dtd">
<svg xmlns:xlink="http://www.w3.org/1999/xlink" width="408.104375pt" height="325.7745pt" viewBox="0 0 408.104375 325.7745" xmlns="http://www.w3.org/2000/svg" version="1.1">
 <metadata>
  <rdf:RDF xmlns:dc="http://purl.org/dc/elements/1.1/" xmlns:cc="http://creativecommons.org/ns#" xmlns:rdf="http://www.w3.org/1999/02/22-rdf-syntax-ns#">
   <cc:Work>
    <dc:type rdf:resource="http://purl.org/dc/dcmitype/StillImage"/>
    <dc:date>2024-07-12T12:15:57.506883</dc:date>
    <dc:format>image/svg+xml</dc:format>
    <dc:creator>
     <cc:Agent>
      <dc:title>Matplotlib v3.5.3, https://matplotlib.org/</dc:title>
     </cc:Agent>
    </dc:creator>
   </cc:Work>
  </rdf:RDF>
 </metadata>
 <defs>
  <style type="text/css">*{stroke-linejoin: round; stroke-linecap: butt}</style>
 </defs>
 <g id="figure_1">
  <g id="patch_1">
   <path d="M 0 325.7745 
L 408.104375 325.7745 
L 408.104375 0 
L 0 0 
z
" style="fill: #ffffff"/>
  </g>
  <g id="axes_1">
   <g id="patch_2">
    <path d="M 34.240625 288.21825 
L 391.360625 288.21825 
L 391.360625 22.10625 
L 34.240625 22.10625 
z
" style="fill: #ffffff"/>
   </g>
   <g id="matplotlib.axis_1">
    <g id="xtick_1">
     <g id="line2d_1">
      <defs>
       <path id="m68113326b5" d="M 0 0 
L 0 3.5 
" style="stroke: #000000; stroke-width: 0.8"/>
      </defs>
      <g>
       <use xlink:href="#m68113326b5" x="34.240625" y="288.21825" style="stroke: #000000; stroke-width: 0.8"/>
      </g>
     </g>
     <g id="text_1">
      <!-- 0 -->
      <g transform="translate(31.059375 302.816687)scale(0.1 -0.1)">
       <defs>
        <path id="DejaVuSans-30" d="M 2034 4250 
Q 1547 4250 1301 3770 
Q 1056 3291 1056 2328 
Q 1056 1369 1301 889 
Q 1547 409 2034 409 
Q 2525 409 2770 889 
Q 3016 1369 3016 2328 
Q 3016 3291 2770 3770 
Q 2525 4250 2034 4250 
z
M 2034 4750 
Q 2819 4750 3233 4129 
Q 3647 3509 3647 2328 
Q 3647 1150 3233 529 
Q 2819 -91 2034 -91 
Q 1250 -91 836 529 
Q 422 1150 422 2328 
Q 422 3509 836 4129 
Q 1250 4750 2034 4750 
z
" transform="scale(0.015625)"/>
       </defs>
       <use xlink:href="#DejaVuSans-30"/>
      </g>
     </g>
    </g>
    <g id="xtick_2">
     <g id="line2d_2">
      <g>
       <use xlink:href="#m68113326b5" x="105.664625" y="288.21825" style="stroke: #000000; stroke-width: 0.8"/>
      </g>
     </g>
     <g id="text_2">
      <!-- 20 -->
      <g transform="translate(99.302125 302.816687)scale(0.1 -0.1)">
       <defs>
        <path id="DejaVuSans-32" d="M 1228 531 
L 3431 531 
L 3431 0 
L 469 0 
L 469 531 
Q 828 903 1448 1529 
Q 2069 2156 2228 2338 
Q 2531 2678 2651 2914 
Q 2772 3150 2772 3378 
Q 2772 3750 2511 3984 
Q 2250 4219 1831 4219 
Q 1534 4219 1204 4116 
Q 875 4013 500 3803 
L 500 4441 
Q 881 4594 1212 4672 
Q 1544 4750 1819 4750 
Q 2544 4750 2975 4387 
Q 3406 4025 3406 3419 
Q 3406 3131 3298 2873 
Q 3191 2616 2906 2266 
Q 2828 2175 2409 1742 
Q 1991 1309 1228 531 
z
" transform="scale(0.015625)"/>
       </defs>
       <use xlink:href="#DejaVuSans-32"/>
       <use xlink:href="#DejaVuSans-30" x="63.623047"/>
      </g>
     </g>
    </g>
    <g id="xtick_3">
     <g id="line2d_3">
      <g>
       <use xlink:href="#m68113326b5" x="177.088625" y="288.21825" style="stroke: #000000; stroke-width: 0.8"/>
      </g>
     </g>
     <g id="text_3">
      <!-- 40 -->
      <g transform="translate(170.726125 302.816687)scale(0.1 -0.1)">
       <defs>
        <path id="DejaVuSans-34" d="M 2419 4116 
L 825 1625 
L 2419 1625 
L 2419 4116 
z
M 2253 4666 
L 3047 4666 
L 3047 1625 
L 3713 1625 
L 3713 1100 
L 3047 1100 
L 3047 0 
L 2419 0 
L 2419 1100 
L 313 1100 
L 313 1709 
L 2253 4666 
z
" transform="scale(0.015625)"/>
       </defs>
       <use xlink:href="#DejaVuSans-34"/>
       <use xlink:href="#DejaVuSans-30" x="63.623047"/>
      </g>
     </g>
    </g>
    <g id="xtick_4">
     <g id="line2d_4">
      <g>
       <use xlink:href="#m68113326b5" x="248.512625" y="288.21825" style="stroke: #000000; stroke-width: 0.8"/>
      </g>
     </g>
     <g id="text_4">
      <!-- 60 -->
      <g transform="translate(242.150125 302.816687)scale(0.1 -0.1)">
       <defs>
        <path id="DejaVuSans-36" d="M 2113 2584 
Q 1688 2584 1439 2293 
Q 1191 2003 1191 1497 
Q 1191 994 1439 701 
Q 1688 409 2113 409 
Q 2538 409 2786 701 
Q 3034 994 3034 1497 
Q 3034 2003 2786 2293 
Q 2538 2584 2113 2584 
z
M 3366 4563 
L 3366 3988 
Q 3128 4100 2886 4159 
Q 2644 4219 2406 4219 
Q 1781 4219 1451 3797 
Q 1122 3375 1075 2522 
Q 1259 2794 1537 2939 
Q 1816 3084 2150 3084 
Q 2853 3084 3261 2657 
Q 3669 2231 3669 1497 
Q 3669 778 3244 343 
Q 2819 -91 2113 -91 
Q 1303 -91 875 529 
Q 447 1150 447 2328 
Q 447 3434 972 4092 
Q 1497 4750 2381 4750 
Q 2619 4750 2861 4703 
Q 3103 4656 3366 4563 
z
" transform="scale(0.015625)"/>
       </defs>
       <use xlink:href="#DejaVuSans-36"/>
       <use xlink:href="#DejaVuSans-30" x="63.623047"/>
      </g>
     </g>
    </g>
    <g id="xtick_5">
     <g id="line2d_5">
      <g>
       <use xlink:href="#m68113326b5" x="319.936625" y="288.21825" style="stroke: #000000; stroke-width: 0.8"/>
      </g>
     </g>
     <g id="text_5">
      <!-- 80 -->
      <g transform="translate(313.574125 302.816687)scale(0.1 -0.1)">
       <defs>
        <path id="DejaVuSans-38" d="M 2034 2216 
Q 1584 2216 1326 1975 
Q 1069 1734 1069 1313 
Q 1069 891 1326 650 
Q 1584 409 2034 409 
Q 2484 409 2743 651 
Q 3003 894 3003 1313 
Q 3003 1734 2745 1975 
Q 2488 2216 2034 2216 
z
M 1403 2484 
Q 997 2584 770 2862 
Q 544 3141 544 3541 
Q 544 4100 942 4425 
Q 1341 4750 2034 4750 
Q 2731 4750 3128 4425 
Q 3525 4100 3525 3541 
Q 3525 3141 3298 2862 
Q 3072 2584 2669 2484 
Q 3125 2378 3379 2068 
Q 3634 1759 3634 1313 
Q 3634 634 3220 271 
Q 2806 -91 2034 -91 
Q 1263 -91 848 271 
Q 434 634 434 1313 
Q 434 1759 690 2068 
Q 947 2378 1403 2484 
z
M 1172 3481 
Q 1172 3119 1398 2916 
Q 1625 2713 2034 2713 
Q 2441 2713 2670 2916 
Q 2900 3119 2900 3481 
Q 2900 3844 2670 4047 
Q 2441 4250 2034 4250 
Q 1625 4250 1398 4047 
Q 1172 3844 1172 3481 
z
" transform="scale(0.015625)"/>
       </defs>
       <use xlink:href="#DejaVuSans-38"/>
       <use xlink:href="#DejaVuSans-30" x="63.623047"/>
      </g>
     </g>
    </g>
    <g id="xtick_6">
     <g id="line2d_6">
      <g>
       <use xlink:href="#m68113326b5" x="391.360625" y="288.21825" style="stroke: #000000; stroke-width: 0.8"/>
      </g>
     </g>
     <g id="text_6">
      <!-- 100 -->
      <g transform="translate(381.816875 302.816687)scale(0.1 -0.1)">
       <defs>
        <path id="DejaVuSans-31" d="M 794 531 
L 1825 531 
L 1825 4091 
L 703 3866 
L 703 4441 
L 1819 4666 
L 2450 4666 
L 2450 531 
L 3481 531 
L 3481 0 
L 794 0 
L 794 531 
z
" transform="scale(0.015625)"/>
       </defs>
       <use xlink:href="#DejaVuSans-31"/>
       <use xlink:href="#DejaVuSans-30" x="63.623047"/>
       <use xlink:href="#DejaVuSans-30" x="127.246094"/>
      </g>
     </g>
    </g>
    <g id="text_7">
     <!-- axialRotation -->
     <g transform="translate(180.024844 316.494812)scale(0.1 -0.1)">
      <defs>
       <path id="DejaVuSans-61" d="M 2194 1759 
Q 1497 1759 1228 1600 
Q 959 1441 959 1056 
Q 959 750 1161 570 
Q 1363 391 1709 391 
Q 2188 391 2477 730 
Q 2766 1069 2766 1631 
L 2766 1759 
L 2194 1759 
z
M 3341 1997 
L 3341 0 
L 2766 0 
L 2766 531 
Q 2569 213 2275 61 
Q 1981 -91 1556 -91 
Q 1019 -91 701 211 
Q 384 513 384 1019 
Q 384 1609 779 1909 
Q 1175 2209 1959 2209 
L 2766 2209 
L 2766 2266 
Q 2766 2663 2505 2880 
Q 2244 3097 1772 3097 
Q 1472 3097 1187 3025 
Q 903 2953 641 2809 
L 641 3341 
Q 956 3463 1253 3523 
Q 1550 3584 1831 3584 
Q 2591 3584 2966 3190 
Q 3341 2797 3341 1997 
z
" transform="scale(0.015625)"/>
       <path id="DejaVuSans-78" d="M 3513 3500 
L 2247 1797 
L 3578 0 
L 2900 0 
L 1881 1375 
L 863 0 
L 184 0 
L 1544 1831 
L 300 3500 
L 978 3500 
L 1906 2253 
L 2834 3500 
L 3513 3500 
z
" transform="scale(0.015625)"/>
       <path id="DejaVuSans-69" d="M 603 3500 
L 1178 3500 
L 1178 0 
L 603 0 
L 603 3500 
z
M 603 4863 
L 1178 4863 
L 1178 4134 
L 603 4134 
L 603 4863 
z
" transform="scale(0.015625)"/>
       <path id="DejaVuSans-6c" d="M 603 4863 
L 1178 4863 
L 1178 0 
L 603 0 
L 603 4863 
z
" transform="scale(0.015625)"/>
       <path id="DejaVuSans-52" d="M 2841 2188 
Q 3044 2119 3236 1894 
Q 3428 1669 3622 1275 
L 4263 0 
L 3584 0 
L 2988 1197 
Q 2756 1666 2539 1819 
Q 2322 1972 1947 1972 
L 1259 1972 
L 1259 0 
L 628 0 
L 628 4666 
L 2053 4666 
Q 2853 4666 3247 4331 
Q 3641 3997 3641 3322 
Q 3641 2881 3436 2590 
Q 3231 2300 2841 2188 
z
M 1259 4147 
L 1259 2491 
L 2053 2491 
Q 2509 2491 2742 2702 
Q 2975 2913 2975 3322 
Q 2975 3731 2742 3939 
Q 2509 4147 2053 4147 
L 1259 4147 
z
" transform="scale(0.015625)"/>
       <path id="DejaVuSans-6f" d="M 1959 3097 
Q 1497 3097 1228 2736 
Q 959 2375 959 1747 
Q 959 1119 1226 758 
Q 1494 397 1959 397 
Q 2419 397 2687 759 
Q 2956 1122 2956 1747 
Q 2956 2369 2687 2733 
Q 2419 3097 1959 3097 
z
M 1959 3584 
Q 2709 3584 3137 3096 
Q 3566 2609 3566 1747 
Q 3566 888 3137 398 
Q 2709 -91 1959 -91 
Q 1206 -91 779 398 
Q 353 888 353 1747 
Q 353 2609 779 3096 
Q 1206 3584 1959 3584 
z
" transform="scale(0.015625)"/>
       <path id="DejaVuSans-74" d="M 1172 4494 
L 1172 3500 
L 2356 3500 
L 2356 3053 
L 1172 3053 
L 1172 1153 
Q 1172 725 1289 603 
Q 1406 481 1766 481 
L 2356 481 
L 2356 0 
L 1766 0 
Q 1100 0 847 248 
Q 594 497 594 1153 
L 594 3053 
L 172 3053 
L 172 3500 
L 594 3500 
L 594 4494 
L 1172 4494 
z
" transform="scale(0.015625)"/>
       <path id="DejaVuSans-6e" d="M 3513 2113 
L 3513 0 
L 2938 0 
L 2938 2094 
Q 2938 2591 2744 2837 
Q 2550 3084 2163 3084 
Q 1697 3084 1428 2787 
Q 1159 2491 1159 1978 
L 1159 0 
L 581 0 
L 581 3500 
L 1159 3500 
L 1159 2956 
Q 1366 3272 1645 3428 
Q 1925 3584 2291 3584 
Q 2894 3584 3203 3211 
Q 3513 2838 3513 2113 
z
" transform="scale(0.015625)"/>
      </defs>
      <use xlink:href="#DejaVuSans-61"/>
      <use xlink:href="#DejaVuSans-78" x="61.279297"/>
      <use xlink:href="#DejaVuSans-69" x="120.458984"/>
      <use xlink:href="#DejaVuSans-61" x="148.242188"/>
      <use xlink:href="#DejaVuSans-6c" x="209.521484"/>
      <use xlink:href="#DejaVuSans-52" x="237.304688"/>
      <use xlink:href="#DejaVuSans-6f" x="302.287109"/>
      <use xlink:href="#DejaVuSans-74" x="363.46875"/>
      <use xlink:href="#DejaVuSans-61" x="402.677734"/>
      <use xlink:href="#DejaVuSans-74" x="463.957031"/>
      <use xlink:href="#DejaVuSans-69" x="503.166016"/>
      <use xlink:href="#DejaVuSans-6f" x="530.949219"/>
      <use xlink:href="#DejaVuSans-6e" x="592.130859"/>
     </g>
    </g>
   </g>
   <g id="matplotlib.axis_2">
    <g id="ytick_1">
     <g id="line2d_7">
      <defs>
       <path id="m82253bb6a4" d="M 0 0 
L -3.5 0 
" style="stroke: #000000; stroke-width: 0.8"/>
      </defs>
      <g>
       <use xlink:href="#m82253bb6a4" x="34.240625" y="288.21825" style="stroke: #000000; stroke-width: 0.8"/>
      </g>
     </g>
     <g id="text_8">
      <!-- 0 -->
      <g transform="translate(20.878125 292.017469)scale(0.1 -0.1)">
       <use xlink:href="#DejaVuSans-30"/>
      </g>
     </g>
    </g>
    <g id="ytick_2">
     <g id="line2d_8">
      <g>
       <use xlink:href="#m82253bb6a4" x="34.240625" y="243.86625" style="stroke: #000000; stroke-width: 0.8"/>
      </g>
     </g>
     <g id="text_9">
      <!-- 1 -->
      <g transform="translate(20.878125 247.665469)scale(0.1 -0.1)">
       <use xlink:href="#DejaVuSans-31"/>
      </g>
     </g>
    </g>
    <g id="ytick_3">
     <g id="line2d_9">
      <g>
       <use xlink:href="#m82253bb6a4" x="34.240625" y="199.51425" style="stroke: #000000; stroke-width: 0.8"/>
      </g>
     </g>
     <g id="text_10">
      <!-- 2 -->
      <g transform="translate(20.878125 203.313469)scale(0.1 -0.1)">
       <use xlink:href="#DejaVuSans-32"/>
      </g>
     </g>
    </g>
    <g id="ytick_4">
     <g id="line2d_10">
      <g>
       <use xlink:href="#m82253bb6a4" x="34.240625" y="155.16225" style="stroke: #000000; stroke-width: 0.8"/>
      </g>
     </g>
     <g id="text_11">
      <!-- 3 -->
      <g transform="translate(20.878125 158.961469)scale(0.1 -0.1)">
       <defs>
        <path id="DejaVuSans-33" d="M 2597 2516 
Q 3050 2419 3304 2112 
Q 3559 1806 3559 1356 
Q 3559 666 3084 287 
Q 2609 -91 1734 -91 
Q 1441 -91 1130 -33 
Q 819 25 488 141 
L 488 750 
Q 750 597 1062 519 
Q 1375 441 1716 441 
Q 2309 441 2620 675 
Q 2931 909 2931 1356 
Q 2931 1769 2642 2001 
Q 2353 2234 1838 2234 
L 1294 2234 
L 1294 2753 
L 1863 2753 
Q 2328 2753 2575 2939 
Q 2822 3125 2822 3475 
Q 2822 3834 2567 4026 
Q 2313 4219 1838 4219 
Q 1578 4219 1281 4162 
Q 984 4106 628 3988 
L 628 4550 
Q 988 4650 1302 4700 
Q 1616 4750 1894 4750 
Q 2613 4750 3031 4423 
Q 3450 4097 3450 3541 
Q 3450 3153 3228 2886 
Q 3006 2619 2597 2516 
z
" transform="scale(0.015625)"/>
       </defs>
       <use xlink:href="#DejaVuSans-33"/>
      </g>
     </g>
    </g>
    <g id="ytick_5">
     <g id="line2d_11">
      <g>
       <use xlink:href="#m82253bb6a4" x="34.240625" y="110.81025" style="stroke: #000000; stroke-width: 0.8"/>
      </g>
     </g>
     <g id="text_12">
      <!-- 4 -->
      <g transform="translate(20.878125 114.609469)scale(0.1 -0.1)">
       <use xlink:href="#DejaVuSans-34"/>
      </g>
     </g>
    </g>
    <g id="ytick_6">
     <g id="line2d_12">
      <g>
       <use xlink:href="#m82253bb6a4" x="34.240625" y="66.45825" style="stroke: #000000; stroke-width: 0.8"/>
      </g>
     </g>
     <g id="text_13">
      <!-- 5 -->
      <g transform="translate(20.878125 70.257469)scale(0.1 -0.1)">
       <defs>
        <path id="DejaVuSans-35" d="M 691 4666 
L 3169 4666 
L 3169 4134 
L 1269 4134 
L 1269 2991 
Q 1406 3038 1543 3061 
Q 1681 3084 1819 3084 
Q 2600 3084 3056 2656 
Q 3513 2228 3513 1497 
Q 3513 744 3044 326 
Q 2575 -91 1722 -91 
Q 1428 -91 1123 -41 
Q 819 9 494 109 
L 494 744 
Q 775 591 1075 516 
Q 1375 441 1709 441 
Q 2250 441 2565 725 
Q 2881 1009 2881 1497 
Q 2881 1984 2565 2268 
Q 2250 2553 1709 2553 
Q 1456 2553 1204 2497 
Q 953 2441 691 2322 
L 691 4666 
z
" transform="scale(0.015625)"/>
       </defs>
       <use xlink:href="#DejaVuSans-35"/>
      </g>
     </g>
    </g>
    <g id="ytick_7">
     <g id="line2d_13">
      <g>
       <use xlink:href="#m82253bb6a4" x="34.240625" y="22.10625" style="stroke: #000000; stroke-width: 0.8"/>
      </g>
     </g>
     <g id="text_14">
      <!-- 6 -->
      <g transform="translate(20.878125 25.905469)scale(0.1 -0.1)">
       <use xlink:href="#DejaVuSans-36"/>
      </g>
     </g>
    </g>
    <g id="text_15">
     <!-- zShift -->
     <g transform="translate(14.798438 169.151312)rotate(-90)scale(0.1 -0.1)">
      <defs>
       <path id="DejaVuSans-7a" d="M 353 3500 
L 3084 3500 
L 3084 2975 
L 922 459 
L 3084 459 
L 3084 0 
L 275 0 
L 275 525 
L 2438 3041 
L 353 3041 
L 353 3500 
z
" transform="scale(0.015625)"/>
       <path id="DejaVuSans-53" d="M 3425 4513 
L 3425 3897 
Q 3066 4069 2747 4153 
Q 2428 4238 2131 4238 
Q 1616 4238 1336 4038 
Q 1056 3838 1056 3469 
Q 1056 3159 1242 3001 
Q 1428 2844 1947 2747 
L 2328 2669 
Q 3034 2534 3370 2195 
Q 3706 1856 3706 1288 
Q 3706 609 3251 259 
Q 2797 -91 1919 -91 
Q 1588 -91 1214 -16 
Q 841 59 441 206 
L 441 856 
Q 825 641 1194 531 
Q 1563 422 1919 422 
Q 2459 422 2753 634 
Q 3047 847 3047 1241 
Q 3047 1584 2836 1778 
Q 2625 1972 2144 2069 
L 1759 2144 
Q 1053 2284 737 2584 
Q 422 2884 422 3419 
Q 422 4038 858 4394 
Q 1294 4750 2059 4750 
Q 2388 4750 2728 4690 
Q 3069 4631 3425 4513 
z
" transform="scale(0.015625)"/>
       <path id="DejaVuSans-68" d="M 3513 2113 
L 3513 0 
L 2938 0 
L 2938 2094 
Q 2938 2591 2744 2837 
Q 2550 3084 2163 3084 
Q 1697 3084 1428 2787 
Q 1159 2491 1159 1978 
L 1159 0 
L 581 0 
L 581 4863 
L 1159 4863 
L 1159 2956 
Q 1366 3272 1645 3428 
Q 1925 3584 2291 3584 
Q 2894 3584 3203 3211 
Q 3513 2838 3513 2113 
z
" transform="scale(0.015625)"/>
       <path id="DejaVuSans-66" d="M 2375 4863 
L 2375 4384 
L 1825 4384 
Q 1516 4384 1395 4259 
Q 1275 4134 1275 3809 
L 1275 3500 
L 2222 3500 
L 2222 3053 
L 1275 3053 
L 1275 0 
L 697 0 
L 697 3053 
L 147 3053 
L 147 3500 
L 697 3500 
L 697 3744 
Q 697 4328 969 4595 
Q 1241 4863 1831 4863 
L 2375 4863 
z
" transform="scale(0.015625)"/>
      </defs>
      <use xlink:href="#DejaVuSans-7a"/>
      <use xlink:href="#DejaVuSans-53" x="52.490234"/>
      <use xlink:href="#DejaVuSans-68" x="115.966797"/>
      <use xlink:href="#DejaVuSans-69" x="179.345703"/>
      <use xlink:href="#DejaVuSans-66" x="207.128906"/>
      <use xlink:href="#DejaVuSans-74" x="240.583984"/>
     </g>
    </g>
   </g>
   <g id="PathCollection_1"/>
   <g id="PathCollection_2">
    <path d="M 55.331138 22.10625 
L 55.774961 23.335233 
L 56.277529 24.76737 
L 57.00744 27.42849 
L 57.557435 30.08961 
L 57.560561 30.109276 
L 57.989061 32.75073 
L 58.307112 35.41185 
L 58.537721 38.07297 
L 58.701821 40.73409 
L 58.81608 43.39521 
L 58.903863 46.49985 
L 58.951732 49.16097 
L 58.982517 51.82209 
L 59.00192 54.48321 
L 59.013989 57.14433 
L 59.021429 59.80545 
L 59.025928 62.46657 
L 59.028498 65.12769 
L 59.029771 67.78881 
L 59.030213 70.44993 
L 59.030231 73.11105 
L 59.030162 75.77217 
L 59.030229 78.43329 
L 59.030489 81.09441 
L 59.030849 83.75553 
L 59.031136 86.41665 
L 59.031192 89.52129 
L 59.030977 92.18241 
L 59.030638 94.84353 
L 59.03036 97.50465 
L 59.030294 100.16577 
L 59.030476 102.82689 
L 59.030808 105.48801 
L 59.031109 108.14913 
L 59.031216 110.81025 
L 59.031072 113.47137 
L 59.030754 116.13249 
L 59.030435 118.79361 
L 59.030287 121.45473 
L 59.030391 124.11585 
L 59.030691 126.77697 
L 59.031023 129.43809 
L 59.031208 132.09921 
L 59.031112 135.20385 
L 59.030812 137.86497 
L 59.03048 140.52609 
L 59.030295 143.18721 
L 59.030357 145.84833 
L 59.030634 148.50945 
L 59.030974 151.17057 
L 59.031193 153.83169 
L 59.031174 156.49281 
L 59.030925 159.15393 
L 59.030582 161.81505 
L 59.030331 164.47617 
L 59.030308 167.13729 
L 59.030525 169.79841 
L 59.030865 172.45953 
L 59.031143 175.12065 
L 59.031195 178.22529 
L 59.030978 180.88641 
L 59.030638 183.54753 
L 59.03036 186.20865 
L 59.030294 188.86977 
L 59.030476 191.53089 
L 59.030808 194.19201 
L 59.031109 196.85313 
L 59.031216 199.51425 
L 59.031072 202.17537 
L 59.030754 204.83649 
L 59.030435 207.49761 
L 59.030287 210.15873 
L 59.030391 212.81985 
L 59.03069 215.48097 
L 59.031022 218.14209 
L 59.031205 220.80321 
L 59.031104 223.90785 
L 59.030794 226.56897 
L 59.030439 229.23009 
L 59.030205 231.89121 
L 59.030167 234.55233 
L 59.030241 237.21345 
L 59.030183 239.87457 
L 59.02964 242.53569 
L 59.028201 245.19681 
L 59.025383 247.85793 
L 59.020511 250.51905 
L 59.012493 253.18017 
L 58.999507 255.84129 
L 58.978665 258.50241 
L 58.945688 261.16353 
L 58.894607 263.82465 
L 58.801374 266.92929 
L 58.680586 269.59041 
L 58.50782 272.25153 
L 58.265961 274.91265 
L 57.933575 277.57377 
L 57.560561 279.792386 
L 57.487665 280.23489 
L 56.91697 282.89601 
L 56.161975 285.55713 
L 55.774961 286.635791 
L 55.191068 288.21825 
" clip-path="url(#p7031ec5868)" style="fill: none; stroke: #dbe9f6; stroke-width: 1.5"/>
    <path d="M 171.388087 288.21825 
L 170.649271 285.55713 
L 170.624753 285.446232 
L 170.037054 282.89601 
L 169.573877 280.23489 
L 169.228301 277.57377 
L 168.973775 274.91265 
L 168.839153 272.980192 
L 168.783876 272.25153 
L 168.63845 269.59041 
L 168.537215 266.92929 
L 168.459463 263.82465 
L 168.417083 261.16353 
L 168.389848 258.50241 
L 168.372712 255.84129 
L 168.362109 253.18017 
L 168.355683 250.51905 
L 168.352012 247.85793 
L 168.350333 245.19681 
L 168.350313 242.53569 
L 168.351919 239.87457 
L 168.355417 237.21345 
L 168.361497 234.55233 
L 168.371476 231.89121 
L 168.387545 229.23009 
L 168.412989 226.56897 
L 168.452398 223.90785 
L 168.524223 220.80321 
L 168.617 218.14209 
L 168.7491 215.48097 
L 168.839153 214.167372 
L 168.923593 212.81985 
L 169.148989 210.15873 
L 169.449946 207.49761 
L 169.845052 204.83649 
L 170.355905 202.17537 
L 170.624753 201.046952 
L 170.971146 199.51425 
L 171.71116 196.85313 
L 172.410353 194.791469 
L 172.606968 194.19201 
L 173.618136 191.53089 
L 174.231665 190.128657 
L 174.771639 188.86977 
L 176.017265 186.271808 
L 176.047094 186.20865 
L 177.364639 183.54753 
L 177.802865 182.695189 
L 178.712428 180.88641 
L 179.588465 179.142563 
L 180.034873 178.22529 
L 181.409777 175.251315 
L 181.468097 175.12065 
L 182.517373 172.45953 
L 183.195377 170.522683 
L 183.432657 169.79841 
L 184.158144 167.13729 
L 184.750963 164.47617 
L 184.980977 163.152007 
L 185.193275 161.81505 
L 185.509443 159.15393 
L 185.739443 156.49281 
L 185.901409 153.83169 
L 186.011969 151.17057 
L 186.085157 148.50945 
L 186.132097 145.84833 
L 186.161195 143.18721 
L 186.178589 140.52609 
L 186.188626 137.86497 
L 186.194291 135.20385 
L 186.197913 132.09921 
L 186.199707 129.43809 
L 186.200847 126.77697 
L 186.201518 124.11585 
L 186.201786 121.45473 
L 186.201724 118.79361 
L 186.201477 116.13249 
L 186.201234 113.47137 
L 186.201151 110.81025 
L 186.201286 108.14913 
L 186.201571 105.48801 
L 186.201854 102.82689 
L 186.201982 100.16577 
L 186.201887 97.50465 
L 186.20162 94.84353 
L 186.201327 92.18241 
L 186.201167 89.52129 
L 186.201261 86.41665 
L 186.201537 83.75553 
L 186.201851 81.09441 
L 186.202056 78.43329 
L 186.202088 75.77217 
L 186.202022 73.11105 
L 186.202078 70.44993 
L 186.202567 67.78881 
L 186.203856 65.12769 
L 186.206375 62.46657 
L 186.210725 59.80545 
L 186.217882 57.14433 
L 186.229472 54.48321 
L 186.248071 51.82209 
L 186.277492 49.16097 
L 186.323054 46.49985 
L 186.406183 43.39521 
L 186.513852 40.73409 
L 186.667821 38.07297 
L 186.766577 36.841831 
L 186.8719 35.41185 
L 187.139038 32.75073 
L 187.500486 30.08961 
L 187.983437 27.42849 
L 188.587889 24.904596 
L 188.619426 24.76737 
L 189.384943 22.10625 
" clip-path="url(#p7031ec5868)" style="fill: none; stroke: #dbe9f6; stroke-width: 1.5"/>
   </g>
   <g id="PathCollection_3">
    <path d="M 34.240625 22.829333 
L 36.026225 23.018164 
L 37.847537 23.638149 
L 39.633137 24.684776 
L 39.733824 24.76737 
L 41.418737 26.449776 
L 42.170738 27.42849 
L 43.204337 29.133 
L 43.68206 30.08961 
L 44.699337 32.75073 
L 45.025649 33.894387 
L 45.404786 35.41185 
L 45.891936 38.07297 
L 46.238714 40.73409 
L 46.4803 43.39521 
L 46.666051 46.49985 
L 46.767433 49.16097 
L 46.811249 50.946549 
L 46.831158 51.82209 
L 46.86938 54.48321 
L 46.893164 57.14433 
L 46.907831 59.80545 
L 46.916712 62.46657 
L 46.921801 65.12769 
L 46.92434 67.78881 
L 46.925243 70.44993 
L 46.925294 73.11105 
L 46.925158 75.77217 
L 46.925273 78.43329 
L 46.925765 81.09441 
L 46.92646 83.75553 
L 46.927027 86.41665 
L 46.927157 89.52129 
L 46.926755 92.18241 
L 46.926101 94.84353 
L 46.925553 97.50465 
L 46.925407 100.16577 
L 46.925744 102.82689 
L 46.92638 105.48801 
L 46.926972 108.14913 
L 46.927197 110.81025 
L 46.926935 113.47137 
L 46.926327 116.13249 
L 46.925703 118.79361 
L 46.9254 121.45473 
L 46.925584 124.11585 
L 46.926155 126.77697 
L 46.926802 129.43809 
L 46.927176 132.09921 
L 46.92701 135.20385 
L 46.92644 137.86497 
L 46.925792 140.52609 
L 46.925418 143.18721 
L 46.925521 145.84833 
L 46.926044 148.50945 
L 46.926705 151.17057 
L 46.927144 153.83169 
L 46.927124 156.49281 
L 46.926656 159.15393 
L 46.925993 161.81505 
L 46.925495 164.47617 
L 46.925432 167.13729 
L 46.925837 169.79841 
L 46.926492 172.45953 
L 46.927041 175.12065 
L 46.927163 178.22529 
L 46.926757 180.88641 
L 46.926102 183.54753 
L 46.925553 186.20865 
L 46.925407 188.86977 
L 46.925744 191.53089 
L 46.92638 194.19201 
L 46.926972 196.85313 
L 46.927197 199.51425 
L 46.926935 202.17537 
L 46.926327 204.83649 
L 46.925703 207.49761 
L 46.9254 210.15873 
L 46.925584 212.81985 
L 46.926154 215.48097 
L 46.9268 218.14209 
L 46.92717 220.80321 
L 46.926995 223.90785 
L 46.926405 226.56897 
L 46.925715 229.23009 
L 46.92525 231.89121 
L 46.925163 234.55233 
L 46.925304 237.21345 
L 46.925212 239.87457 
L 46.924211 242.53569 
L 46.921507 245.19681 
L 46.916172 247.85793 
L 46.906923 250.51905 
L 46.891684 253.18017 
L 46.866995 255.84129 
L 46.827357 258.50241 
L 46.811249 259.186715 
L 46.76104 261.16353 
L 46.656325 263.82465 
L 46.465036 266.92929 
L 46.217018 269.59041 
L 45.862081 272.25153 
L 45.36502 274.91265 
L 45.025649 276.249903 
L 44.642677 277.57377 
L 43.613277 280.23489 
L 43.204337 281.048577 
L 42.081404 282.89601 
L 41.418737 283.759517 
L 39.633137 285.557115 
L 39.633116 285.55713 
L 37.847537 286.627653 
L 36.026225 287.276255 
L 34.240625 287.495167 
" clip-path="url(#p7031ec5868)" style="fill: none; stroke: #bad6eb; stroke-width: 1.5"/>
    <path d="M 181.603805 288.21825 
L 181.409777 287.760905 
L 180.507202 285.55713 
L 179.670696 282.89601 
L 179.588465 282.560731 
L 179.018767 280.23489 
L 178.52988 277.57377 
L 178.169714 274.91265 
L 177.908519 272.25153 
L 177.802865 270.747295 
L 177.718588 269.59041 
L 177.582614 266.92929 
L 177.478118 263.82465 
L 177.421123 261.16353 
L 177.384475 258.50241 
L 177.361405 255.84129 
L 177.347119 253.18017 
L 177.338441 250.51905 
L 177.333448 247.85793 
L 177.331091 245.19681 
L 177.330891 242.53569 
L 177.332751 239.87457 
L 177.336947 237.21345 
L 177.344267 234.55233 
L 177.356271 231.89121 
L 177.375585 229.23009 
L 177.406173 226.56897 
L 177.453566 223.90785 
L 177.539924 220.80321 
L 177.651333 218.14209 
L 177.802865 215.592931 
L 177.809244 215.48097 
L 178.017504 212.81985 
L 178.299112 210.15873 
L 178.671918 207.49761 
L 179.155806 204.83649 
L 179.588465 202.952553 
L 179.76365 202.17537 
L 180.496266 199.51425 
L 181.391086 196.85313 
L 181.409777 196.804674 
L 182.412606 194.19201 
L 183.195377 192.411073 
L 183.581916 191.53089 
L 184.861547 188.86977 
L 184.980977 188.633543 
L 186.199629 186.20865 
L 186.766577 185.105506 
L 187.557382 183.54753 
L 188.587889 181.481357 
L 188.878689 180.88641 
L 190.099412 178.22529 
L 190.373489 177.560991 
L 191.347007 175.12065 
L 192.159089 172.765252 
L 192.260239 172.45953 
L 192.995368 169.79841 
L 193.592817 167.13729 
L 193.944689 165.145103 
L 194.057065 164.47617 
L 194.396524 161.81505 
L 194.64693 159.15393 
L 194.82647 156.49281 
L 194.95171 153.83169 
L 195.036742 151.17057 
L 195.092882 148.50945 
L 195.128817 145.84833 
L 195.151001 143.18721 
L 195.164137 140.52609 
L 195.171608 137.86497 
L 195.175778 135.20385 
L 195.178505 132.09921 
L 195.17998 129.43809 
L 195.18102 126.77697 
L 195.181677 124.11585 
L 195.18192 121.45473 
L 195.181785 118.79361 
L 195.181431 116.13249 
L 195.18109 113.47137 
L 195.180968 110.81025 
L 195.181139 108.14913 
L 195.181515 105.48801 
L 195.181894 102.82689 
L 195.182072 100.16577 
L 195.181951 97.50465 
L 195.181599 94.84353 
L 195.181206 92.18241 
L 195.180987 89.52129 
L 195.181104 86.41665 
L 195.181469 83.75553 
L 195.181889 81.09441 
L 195.182167 78.43329 
L 195.182214 75.77217 
L 195.182128 73.11105 
L 195.182193 70.44993 
L 195.182827 67.78881 
L 195.184515 65.12769 
L 195.187829 62.46657 
L 195.193561 59.80545 
L 195.202998 57.14433 
L 195.218284 54.48321 
L 195.242819 51.82209 
L 195.281645 49.16097 
L 195.341803 46.49985 
L 195.451636 43.39521 
L 195.593974 40.73409 
L 195.766001 38.481704 
L 195.796105 38.07297 
L 196.067605 35.41185 
L 196.440791 32.75073 
L 196.945845 30.08961 
L 197.551601 27.691547 
L 197.618196 27.42849 
L 198.477947 24.76737 
L 199.337201 22.713064 
L 199.600225 22.10625 
" clip-path="url(#p7031ec5868)" style="fill: none; stroke: #bad6eb; stroke-width: 1.5"/>
    <path d="M 386.849234 22.10625 
L 387.753713 24.306432 
L 387.937436 24.76737 
L 388.785662 27.42849 
L 389.424946 30.08961 
L 389.575025 30.909295 
L 389.916274 32.75073 
L 390.283086 35.41185 
L 390.549108 38.07297 
L 390.738453 40.73409 
L 390.870326 43.39521 
L 390.971677 46.49985 
L 391.026972 49.16097 
L 391.062564 51.82209 
L 391.085047 54.48321 
L 391.099132 57.14433 
L 391.108012 59.80545 
L 391.11377 62.46657 
L 391.11781 65.12769 
L 391.121275 67.78881 
L 391.1254 70.44993 
L 391.131795 73.11105 
L 391.142657 75.77217 
L 391.161005 78.43329 
L 391.190985 81.09441 
L 391.238282 83.75553 
L 391.310623 86.41665 
L 391.360625 87.612502 
" clip-path="url(#p7031ec5868)" style="fill: none; stroke: #bad6eb; stroke-width: 1.5"/>
    <path d="M 391.360625 277.302335 
L 391.269539 277.57377 
L 390.370249 280.23489 
L 389.575025 282.409724 
L 389.397172 282.89601 
L 388.314114 285.55713 
L 387.753713 286.745231 
L 387.036879 288.21825 
" clip-path="url(#p7031ec5868)" style="fill: none; stroke: #bad6eb; stroke-width: 1.5"/>
   </g>
   <g id="PathCollection_4">
    <path d="M 190.397112 288.21825 
L 190.373489 288.182563 
L 188.784401 285.55713 
L 188.587889 285.147603 
L 187.576948 282.89601 
L 186.766577 280.530502 
L 186.669748 280.23489 
L 185.995666 277.57377 
L 185.498997 274.91265 
L 185.138737 272.25153 
L 184.980977 270.622635 
L 184.881649 269.59041 
L 184.701864 266.92929 
L 184.563641 263.82465 
L 184.488216 261.16353 
L 184.439698 258.50241 
L 184.409142 255.84129 
L 184.390206 253.18017 
L 184.378683 250.51905 
L 184.372007 247.85793 
L 184.368767 245.19681 
L 184.368286 242.53569 
L 184.370372 239.87457 
L 184.375277 237.21345 
L 184.383867 234.55233 
L 184.397931 231.89121 
L 184.420534 229.23009 
L 184.456327 226.56897 
L 184.511789 223.90785 
L 184.61279 220.80321 
L 184.742835 218.14209 
L 184.92692 215.48097 
L 184.980977 214.910432 
L 185.178733 212.81985 
L 185.515878 210.15873 
L 185.957387 207.49761 
L 186.522387 204.83649 
L 186.766577 203.90589 
L 187.225273 202.17537 
L 188.077283 199.51425 
L 188.587889 198.154352 
L 189.083068 196.85313 
L 190.23159 194.19201 
L 190.373489 193.891146 
L 191.496458 191.53089 
L 192.159089 190.214046 
L 192.838138 188.86977 
L 193.944689 186.711908 
L 194.20205 186.20865 
L 195.528028 183.54753 
L 195.766001 183.041928 
L 196.764369 180.88641 
L 197.551601 179.012947 
L 197.876208 178.22529 
L 198.982725 175.12065 
L 199.337201 173.92886 
L 199.764468 172.45953 
L 200.397151 169.79841 
L 200.898342 167.13729 
L 201.122801 165.596264 
L 201.283027 164.47617 
L 201.569342 161.81505 
L 201.778306 159.15393 
L 201.927053 156.49281 
L 202.030397 153.83169 
L 202.100474 151.17057 
L 202.146759 148.50945 
L 202.176378 145.84833 
L 202.194582 143.18721 
L 202.205227 140.52609 
L 202.211152 137.86497 
L 202.214404 135.20385 
L 202.216602 132.09921 
L 202.217933 129.43809 
L 202.218986 126.77697 
L 202.219693 124.11585 
L 202.219939 121.45473 
L 202.219729 118.79361 
L 202.219246 116.13249 
L 202.218786 113.47137 
L 202.218615 110.81025 
L 202.218833 108.14913 
L 202.219325 105.48801 
L 202.219826 102.82689 
L 202.220065 100.16577 
L 202.219913 97.50465 
L 202.219453 94.84353 
L 202.218934 92.18241 
L 202.21864 89.52129 
L 202.218786 86.41665 
L 202.219263 83.75553 
L 202.219817 81.09441 
L 202.220188 78.43329 
L 202.220255 75.77217 
L 202.220141 73.11105 
L 202.22022 70.44993 
L 202.221038 67.78881 
L 202.223232 65.12769 
L 202.227553 62.46657 
L 202.235037 59.80545 
L 202.247363 57.14433 
L 202.267332 54.48321 
L 202.29939 51.82209 
L 202.350134 49.16097 
L 202.428788 46.49985 
L 202.572451 43.39521 
L 202.758707 40.73409 
L 202.944113 38.876086 
L 203.024805 38.07297 
L 203.396008 35.41185 
L 203.906339 32.75073 
L 204.597088 30.08961 
L 204.729713 29.694022 
L 205.524079 27.42849 
L 206.515313 25.258837 
L 206.755165 24.76737 
L 208.300913 22.24683 
L 208.395162 22.10625 
" clip-path="url(#p7031ec5868)" style="fill: none; stroke: #89bedc; stroke-width: 1.5"/>
    <path d="M 378.046588 22.10625 
L 378.790001 23.274174 
L 379.662808 24.76737 
L 380.575601 26.742231 
L 380.873684 27.42849 
L 381.778445 30.08961 
L 382.396913 32.520867 
L 382.453577 32.75073 
L 382.950807 35.41185 
L 383.311486 38.07297 
L 383.568273 40.73409 
L 383.747174 43.39521 
L 383.884724 46.49985 
L 383.959796 49.16097 
L 384.008123 51.82209 
L 384.038633 54.48321 
L 384.057697 57.14433 
L 384.069612 59.80545 
L 384.07714 62.46657 
L 384.082062 65.12769 
L 384.085705 67.78881 
L 384.089373 70.44993 
L 384.094632 73.11105 
L 384.103498 75.77217 
L 384.1186 78.43329 
L 384.143405 81.09441 
L 384.182513 83.750295 
L 384.182591 83.75553 
L 384.243118 86.41665 
L 384.351853 89.52129 
L 384.490831 92.18241 
L 384.687134 94.84353 
L 384.957553 97.50465 
L 385.320589 100.16577 
L 385.79543 102.82689 
L 385.968113 103.592584 
L 386.405026 105.48801 
L 387.160322 108.14913 
L 387.753713 109.896181 
L 388.071737 110.81025 
L 389.138655 113.47137 
L 389.575025 114.444446 
L 390.345809 116.13249 
L 391.360625 118.197643 
" clip-path="url(#p7031ec5868)" style="fill: none; stroke: #89bedc; stroke-width: 1.5"/>
    <path d="M 391.360625 258.524344 
L 390.040356 261.16353 
L 389.575025 262.144889 
L 388.789529 263.82465 
L 387.753713 266.225554 
L 387.454508 266.92929 
L 386.415371 269.59041 
L 385.968113 270.813847 
L 385.446211 272.25153 
L 384.511331 274.91265 
L 384.182513 275.838789 
L 383.560133 277.57377 
L 382.533523 280.23489 
L 382.396913 280.55392 
L 381.356391 282.89601 
L 380.575601 284.401873 
L 379.940822 285.55713 
L 378.790001 287.332936 
L 378.167833 288.21825 
" clip-path="url(#p7031ec5868)" style="fill: none; stroke: #89bedc; stroke-width: 1.5"/>
   </g>
   <g id="PathCollection_5">
    <path d="M 200.653056 288.21825 
L 199.337201 287.080925 
L 197.809699 285.55713 
L 197.551601 285.24153 
L 195.850725 282.89601 
L 195.766001 282.747664 
L 194.466519 280.23489 
L 193.944689 278.906485 
L 193.461053 277.57377 
L 192.738225 274.91265 
L 192.213851 272.25153 
L 192.159089 271.86546 
L 191.851954 269.59041 
L 191.601134 266.92929 
L 191.408233 263.82465 
L 191.302932 261.16353 
L 191.235171 258.50241 
L 191.192479 255.84129 
L 191.166003 253.18017 
L 191.149857 250.51905 
L 191.140437 247.85793 
L 191.13573 245.19681 
L 191.134728 242.53569 
L 191.137057 239.87457 
L 191.142893 237.21345 
L 191.153167 234.55233 
L 191.169941 231.89121 
L 191.196843 229.23009 
L 191.239427 226.56897 
L 191.305406 223.90785 
L 191.425406 220.80321 
L 191.579414 218.14209 
L 191.796246 215.48097 
L 192.092713 212.81985 
L 192.159089 212.370303 
L 192.49682 210.15873 
L 193.020346 207.49761 
L 193.676677 204.83649 
L 193.944689 203.942873 
L 194.492714 202.17537 
L 195.461622 199.51425 
L 195.766001 198.780447 
L 196.586845 196.85313 
L 197.551601 194.782311 
L 197.832383 194.19201 
L 199.164107 191.53089 
L 199.337201 191.192009 
L 200.530538 188.86977 
L 201.122801 187.689716 
L 201.86628 186.20865 
L 202.944113 183.916603 
L 203.117077 183.54753 
L 204.254436 180.88641 
L 204.729713 179.618414 
L 205.249315 178.22529 
L 206.219064 175.12065 
L 206.515313 173.955285 
L 206.896456 172.45953 
L 207.441549 169.79841 
L 207.865601 167.13729 
L 208.18805 164.47617 
L 208.300913 163.228281 
L 208.431261 161.81505 
L 208.609916 159.15393 
L 208.736499 156.49281 
L 208.824307 153.83169 
L 208.883931 151.17057 
L 208.923424 148.50945 
L 208.94872 145.84833 
L 208.96416 143.18721 
L 208.972998 140.52609 
L 208.97773 137.86497 
L 208.980242 135.20385 
L 208.982046 132.09921 
L 208.983347 129.43809 
L 208.984525 126.77697 
L 208.985368 124.11585 
L 208.985645 121.45473 
L 208.985325 118.79361 
L 208.984639 116.13249 
L 208.983989 113.47137 
L 208.98374 110.81025 
L 208.984034 108.14913 
L 208.984715 105.48801 
L 208.985414 102.82689 
L 208.985754 100.16577 
L 208.98555 97.50465 
L 208.984914 94.84353 
L 208.984191 92.18241 
L 208.983775 89.52129 
L 208.983969 86.41665 
L 208.984628 83.75553 
L 208.9854 81.09441 
L 208.985921 78.43329 
L 208.986019 75.77217 
L 208.985862 73.11105 
L 208.985964 70.44993 
L 208.98708 67.78881 
L 208.990098 65.12769 
L 208.996057 62.46657 
L 209.006389 59.80545 
L 209.023413 57.14433 
L 209.050996 54.48321 
L 209.095283 51.82209 
L 209.165401 49.16097 
L 209.274117 46.49985 
L 209.472759 43.39521 
L 209.730378 40.73409 
L 210.099166 38.07297 
L 210.122225 37.952221 
L 210.634674 35.41185 
L 211.372197 32.75073 
L 211.907825 31.302643 
L 212.393163 30.08961 
L 213.693425 27.610146 
L 213.798501 27.42849 
L 215.479025 25.133701 
L 215.781469 24.76737 
L 217.300337 23.263909 
L 218.649385 22.10625 
" clip-path="url(#p7031ec5868)" style="fill: none; stroke: #539ecd; stroke-width: 1.5"/>
    <path d="M 367.801945 22.10625 
L 368.040689 22.297326 
L 369.826289 23.92657 
L 370.631895 24.76737 
L 371.611889 26.023598 
L 372.587875 27.42849 
L 373.397489 28.911371 
L 373.982511 30.08961 
L 374.991077 32.75073 
L 375.218801 33.552888 
L 375.712165 35.41185 
L 376.228221 38.07297 
L 376.595703 40.73409 
L 376.851789 43.39521 
L 377.004401 45.797094 
L 377.047328 46.49985 
L 377.151425 49.16097 
L 377.218447 51.82209 
L 377.260748 54.48321 
L 377.287137 57.14433 
L 377.303543 59.80545 
L 377.313735 62.46657 
L 377.320078 65.12769 
L 377.324221 67.78881 
L 377.327643 70.44993 
L 377.331982 73.11105 
L 377.339194 75.77217 
L 377.351639 78.43329 
L 377.37224 81.09441 
L 377.404793 83.75553 
L 377.454448 86.41665 
L 377.543534 89.52129 
L 377.657623 92.18241 
L 377.81962 94.84353 
L 378.044614 97.50465 
L 378.349974 100.16577 
L 378.754908 102.82689 
L 378.790001 103.008264 
L 379.265906 105.48801 
L 379.910346 108.14913 
L 380.575601 110.380767 
L 380.703976 110.81025 
L 381.640437 113.47137 
L 382.396913 115.319162 
L 382.732263 116.13249 
L 383.954379 118.79361 
L 384.182513 119.255079 
L 385.272543 121.45473 
L 385.968113 122.802387 
L 386.643786 124.11585 
L 387.753713 126.275642 
L 388.008516 126.77697 
L 389.301863 129.43809 
L 389.575025 130.044713 
L 390.476362 132.09921 
L 391.360625 134.388927 
" clip-path="url(#p7031ec5868)" style="fill: none; stroke: #539ecd; stroke-width: 1.5"/>
    <path d="M 391.360625 242.507419 
L 391.350894 242.53569 
L 390.293818 245.19681 
L 389.575025 246.816325 
L 389.101318 247.85793 
L 387.801624 250.51905 
L 387.753713 250.612845 
L 386.428448 253.18017 
L 385.968113 254.068895 
L 385.046426 255.84129 
L 384.182513 257.555787 
L 383.705679 258.50241 
L 382.443478 261.16353 
L 382.396913 261.268532 
L 381.265339 263.82465 
L 380.575601 265.530835 
L 380.009922 266.92929 
L 379.008091 269.59041 
L 378.790001 270.18898 
L 378.022996 272.25153 
L 377.019401 274.91265 
L 377.004401 274.949876 
L 375.899078 277.57377 
L 375.218801 279.002008 
L 374.592649 280.23489 
L 373.397489 282.238501 
L 372.970308 282.89601 
L 371.611889 284.653263 
L 370.83375 285.55713 
L 369.826289 286.546426 
L 368.040689 288.087554 
L 367.869522 288.21825 
" clip-path="url(#p7031ec5868)" style="fill: none; stroke: #539ecd; stroke-width: 1.5"/>
   </g>
   <g id="PathCollection_6">
    <path d="M 199.25493 263.82465 
L 199.091253 261.16353 
L 198.98589 258.50241 
L 198.919479 255.84129 
L 198.878257 253.18017 
L 198.853053 250.51905 
L 198.838219 247.85793 
L 198.830549 245.19681 
L 198.82835 242.53569 
L 198.830827 239.87457 
L 198.83791 237.21345 
L 198.850486 234.55233 
L 198.870903 231.89121 
L 198.903516 229.23009 
L 198.955103 226.56897 
L 199.035046 223.90785 
L 199.180212 220.80321 
L 199.337201 218.550779 
L 199.367867 218.14209 
L 199.646715 215.48097 
L 200.021947 212.81985 
L 200.510319 210.15873 
L 201.122801 207.50854 
L 201.125497 207.49761 
L 201.929455 204.83649 
L 202.866182 202.17537 
L 202.944113 201.982749 
L 203.986583 199.51425 
L 204.729713 197.893585 
L 205.222911 196.85313 
L 206.515313 194.238305 
L 206.538747 194.19201 
L 207.907824 191.53089 
L 208.300913 190.743617 
L 209.246557 188.86977 
L 210.122225 187.002003 
L 210.4976 186.20865 
L 211.637687 183.54753 
L 211.907825 182.832279 
L 212.652484 180.88641 
L 213.508798 178.22529 
L 213.693425 177.534345 
L 214.351716 175.12065 
L 214.925195 172.45953 
L 215.374154 169.79841 
L 215.479025 169.001428 
L 215.737221 167.13729 
L 216.015952 164.47617 
L 216.220903 161.81505 
L 216.368496 159.15393 
L 216.472785 156.49281 
L 216.545256 153.83169 
L 216.594784 151.17057 
L 216.627866 148.50945 
L 216.649119 145.84833 
L 216.661906 143.18721 
L 216.668873 140.52609 
L 216.672247 137.86497 
L 216.673869 135.20385 
L 216.675246 132.09921 
L 216.676639 129.43809 
L 216.678139 126.77697 
L 216.679286 124.11585 
L 216.679646 121.45473 
L 216.679121 118.79361 
L 216.678044 116.13249 
L 216.677023 113.47137 
L 216.676623 110.81025 
L 216.677067 108.14913 
L 216.678115 105.48801 
L 216.679201 102.82689 
L 216.679737 100.16577 
L 216.679433 97.50465 
L 216.678454 94.84353 
L 216.677332 92.18241 
L 216.676678 89.52129 
L 216.676966 86.41665 
L 216.67798 83.75553 
L 216.679177 81.09441 
L 216.679992 78.43329 
L 216.680152 75.77217 
L 216.67991 73.11105 
L 216.680055 70.44993 
L 216.681755 67.78881 
L 216.686381 65.12769 
L 216.695536 62.46657 
L 216.711429 59.80545 
L 216.737626 57.14433 
L 216.780076 54.48321 
L 216.84824 51.82209 
L 216.956186 49.16097 
L 217.123599 46.49985 
L 217.300337 44.701512 
L 217.44047 43.39521 
L 217.870828 40.73409 
L 218.48701 38.07297 
L 219.085937 36.21717 
L 219.37541 35.41185 
L 220.67513 32.75073 
L 220.871537 32.445492 
L 222.600728 30.08961 
L 222.657137 30.029628 
L 224.478449 28.343478 
L 225.640719 27.42849 
L 226.264049 27.031291 
L 228.049649 26.060061 
L 229.835249 25.246281 
L 231.093417 24.76737 
L 231.656561 24.587195 
L 233.442161 24.110632 
L 235.227761 23.718534 
L 237.013361 23.398196 
L 238.834673 23.133799 
L 240.620273 22.925764 
L 242.405873 22.759821 
L 244.191473 22.628593 
L 246.012785 22.523936 
L 247.798385 22.444474 
L 249.583985 22.383353 
L 251.369585 22.336789 
L 253.190897 22.301054 
L 254.976497 22.274965 
L 256.762097 22.255671 
L 258.547697 22.241544 
L 260.369009 22.231133 
L 262.154609 22.223835 
L 263.940209 22.218652 
L 265.725809 22.215009 
L 267.547121 22.212431 
L 269.332721 22.210698 
L 271.118321 22.209516 
L 272.903921 22.208719 
L 274.725233 22.208178 
L 276.510833 22.207828 
L 278.296433 22.2076 
L 280.082033 22.207451 
L 281.903345 22.207355 
L 283.688945 22.207295 
L 285.474545 22.207258 
L 287.260145 22.207235 
L 289.081457 22.207221 
L 290.867057 22.207214 
L 292.652657 22.207211 
L 294.438257 22.207212 
L 296.259569 22.207216 
L 298.045169 22.207225 
L 299.830769 22.207242 
L 301.616369 22.207269 
L 303.437681 22.207315 
L 305.223281 22.207386 
L 307.008881 22.207498 
L 308.794481 22.207671 
L 310.615793 22.207945 
L 312.401393 22.208354 
L 314.186993 22.208971 
L 315.972593 22.209892 
L 317.793905 22.211284 
L 319.579505 22.213284 
L 321.365105 22.216179 
L 323.150705 22.220322 
L 324.972017 22.226334 
L 326.757617 22.234629 
L 328.543217 22.246147 
L 330.328817 22.26198 
L 332.150129 22.284029 
L 333.935729 22.313235 
L 335.721329 22.352195 
L 337.506929 22.403659 
L 339.328241 22.472524 
L 341.113841 22.560223 
L 342.899441 22.672805 
L 344.685041 22.816027 
L 346.506353 23.000682 
L 348.291953 23.227512 
L 350.077553 23.508812 
L 351.863153 23.854986 
L 353.684465 24.28725 
L 355.349926 24.76737 
L 355.470065 24.808548 
L 357.255665 25.538262 
L 359.041265 26.413202 
L 360.776806 27.42849 
L 360.862577 27.490483 
L 362.648177 28.996243 
L 363.75548 30.08961 
L 364.433777 30.947529 
L 365.674518 32.75073 
L 366.219377 33.79932 
L 366.961349 35.41185 
L 367.858132 38.07297 
L 368.040689 38.826684 
L 368.458866 40.73409 
L 368.86701 43.39521 
L 369.181006 46.49985 
L 369.352486 49.16097 
L 369.462911 51.82209 
L 369.532594 54.48321 
L 369.576018 57.14433 
L 369.602912 59.80545 
L 369.619423 62.46657 
L 369.629322 65.12769 
L 369.635106 67.78881 
L 369.638831 70.44993 
L 369.642576 73.11105 
L 369.648588 75.77217 
L 369.659272 78.43329 
L 369.677244 81.09441 
L 369.705624 83.75553 
L 369.748571 86.41665 
L 369.825048 89.52129 
L 369.826289 89.555275 
L 369.915765 92.18241 
L 370.044858 94.84353 
L 370.225351 97.50465 
L 370.472477 100.16577 
L 370.803585 102.82689 
L 371.23809 105.48801 
L 371.611889 107.285711 
L 371.784864 108.14913 
L 372.44297 110.81025 
L 373.25981 113.47137 
L 373.397489 113.855767 
L 374.199526 116.13249 
L 375.218801 118.585089 
L 375.304672 118.79361 
L 376.516021 121.45473 
L 377.004401 122.438516 
L 377.830478 124.11585 
L 378.790001 125.970909 
L 379.201879 126.77697 
L 380.571127 129.43809 
L 380.575601 129.447138 
L 381.84789 132.09921 
L 382.396913 133.334906 
L 383.19797 135.20385 
L 384.182513 137.803008 
L 384.204849 137.86497 
L 385.01434 140.52609 
L 385.685738 143.18721 
L 385.968113 144.590187 
L 386.204839 145.84833 
L 386.589228 148.50945 
L 386.87585 151.17057 
L 387.08254 153.83169 
L 387.22654 156.49281 
L 387.323472 159.15393 
L 387.386719 161.81505 
L 387.427073 164.47617 
L 387.45262 167.13729 
L 387.46887 169.79841 
L 387.479183 172.45953 
L 387.485405 175.12065 
L 387.488878 178.22529 
L 387.489565 180.88641 
L 387.489106 183.54753 
L 387.488433 186.20865 
L 387.488231 188.86977 
L 387.488681 191.53089 
L 387.489398 194.19201 
L 387.489579 196.85313 
L 387.488287 199.51425 
L 387.484665 202.17537 
L 387.477908 204.83649 
L 387.466908 207.49761 
L 387.449639 210.15873 
L 387.422443 212.81985 
L 387.379435 215.48097 
L 387.312146 218.14209 
L 387.209443 220.80321 
L 387.026554 223.90785 
L 386.797574 226.56897 
L 386.483683 229.23009 
L 386.067437 231.89121 
L 385.968113 232.382673 
L 385.500248 234.55233 
L 384.79097 237.21345 
L 384.182513 239.11967 
L 383.927893 239.87457 
L 382.889996 242.53569 
L 382.396913 243.668799 
L 381.705678 245.19681 
L 380.575601 247.54238 
L 380.419025 247.85793 
L 379.051833 250.51905 
L 378.790001 251.027687 
L 377.667312 253.18017 
L 377.004401 254.50065 
L 376.324543 255.84129 
L 375.218801 258.173676 
L 375.061037 258.50241 
L 373.865981 261.16353 
L 373.397489 262.298468 
L 372.753059 263.82465 
L 371.611889 266.729987 
L 371.531335 266.92929 
L 370.460393 269.59041 
L 369.826289 271.122672 
L 369.329841 272.25153 
L 368.041683 274.91265 
L 368.040689 274.914431 
L 366.414215 277.57377 
L 366.219377 277.840579 
L 364.433777 280.026518 
L 364.241728 280.23489 
L 362.648177 281.657366 
L 361.044299 282.89601 
L 360.862577 283.012515 
L 359.041265 284.02067 
L 357.255665 284.856026 
L 355.474249 285.55713 
L 355.470065 285.558526 
L 353.684465 286.061057 
L 351.863153 286.484516 
L 350.077553 286.824904 
L 348.291953 287.102384 
L 346.506353 287.326754 
L 344.685041 287.509847 
L 342.899441 287.652156 
L 341.113841 287.764222 
L 339.328241 287.851658 
L 337.506929 287.920412 
L 335.721329 287.971858 
L 333.935729 288.010848 
L 332.150129 288.040107 
L 330.328817 288.062217 
L 328.543217 288.078109 
L 326.757617 288.089679 
L 324.972017 288.098018 
L 323.150705 288.104067 
L 321.365105 288.108239 
L 319.579505 288.111155 
L 317.793905 288.113173 
L 315.972593 288.114578 
L 314.186993 288.115507 
L 312.401393 288.116131 
L 310.615793 288.116545 
L 308.794481 288.116822 
L 307.008881 288.116998 
L 305.223281 288.117111 
L 303.437681 288.117184 
L 301.616369 288.11723 
L 299.830769 288.117258 
L 298.045169 288.117275 
L 296.259569 288.117286 
L 294.438257 288.117293 
L 292.652657 288.117296 
L 290.867057 288.117299 
L 289.081457 288.1173 
L 287.260145 288.117301 
L 285.474545 288.117301 
L 283.688945 288.117301 
L 281.903345 288.117301 
L 280.082033 288.117301 
L 278.296433 288.117299 
L 276.510833 288.117298 
L 274.725233 288.117295 
L 272.903921 288.117289 
L 271.118321 288.117281 
L 269.332721 288.117267 
L 267.547121 288.117244 
L 265.725809 288.117206 
L 263.940209 288.117147 
L 262.154609 288.117053 
L 260.369009 288.116907 
L 258.547697 288.116677 
L 256.762097 288.11633 
L 254.976497 288.115806 
L 253.190897 288.11502 
L 251.369585 288.113828 
L 249.583985 288.112107 
L 247.798385 288.109607 
L 246.012785 288.106013 
L 244.191473 288.100777 
L 242.405873 288.093524 
L 240.620273 288.083411 
L 238.834673 288.069453 
L 237.013361 288.049937 
L 235.227761 288.023982 
L 233.442161 287.989223 
L 231.656561 287.943128 
L 229.835249 287.881208 
L 228.049649 287.802051 
L 226.264049 287.700061 
L 224.478449 287.569847 
L 222.657137 287.401373 
L 220.871537 287.19372 
L 219.085937 286.935379 
L 217.300337 286.616494 
L 215.479025 286.21716 
L 213.693425 285.739957 
L 213.122241 285.55713 
L 211.907825 285.094334 
L 210.122225 284.280139 
L 208.300913 283.285708 
L 207.693186 282.89601 
L 206.515313 281.961391 
L 204.729713 280.295203 
L 204.673404 280.23489 
L 202.944113 277.856778 
L 202.764036 277.57377 
L 201.48082 274.91265 
L 201.122801 273.90037 
L 200.599786 272.25153 
L 199.994533 269.59041 
L 199.572663 266.92929 
L 199.337201 264.681149 
L 199.25493 263.82465 
z
" clip-path="url(#p7031ec5868)" style="fill: none; stroke: #2b7bba; stroke-width: 1.5"/>
   </g>
   <g id="PathCollection_7">
    <path d="M 211.580517 261.16353 
L 211.301484 258.50241 
L 211.125509 255.84129 
L 211.01614 253.18017 
L 210.949002 250.51905 
L 210.908958 247.85793 
L 210.887206 245.19681 
L 210.878726 242.53569 
L 210.880518 239.87457 
L 210.890917 237.21345 
L 210.90992 234.55233 
L 210.940106 231.89121 
L 210.987588 229.23009 
L 211.062489 226.56897 
L 211.178681 223.90785 
L 211.388712 220.80321 
L 211.653001 218.14209 
L 211.907825 216.268055 
L 212.029133 215.48097 
L 212.567692 212.81985 
L 213.233088 210.15873 
L 213.693425 208.629455 
L 214.066827 207.49761 
L 215.074846 204.83649 
L 215.479025 203.877075 
L 216.241891 202.17537 
L 217.300337 199.915075 
L 217.497214 199.51425 
L 218.837589 196.85313 
L 219.085937 196.354321 
L 220.193166 194.19201 
L 220.871537 192.776237 
L 221.484593 191.53089 
L 222.657137 188.876069 
L 222.660013 188.86977 
L 223.771764 186.20865 
L 224.478449 184.173802 
L 224.707184 183.54753 
L 225.542668 180.88641 
L 226.209507 178.22529 
L 226.264049 177.960836 
L 226.895418 175.12065 
L 227.350824 172.45953 
L 227.702039 169.79841 
L 227.968073 167.13729 
L 228.049649 166.050132 
L 228.183314 164.47617 
L 228.348488 161.81505 
L 228.466022 159.15393 
L 228.548923 156.49281 
L 228.607467 153.83169 
L 228.648894 151.17057 
L 228.677693 148.50945 
L 228.696463 145.84833 
L 228.707044 143.18721 
L 228.711433 140.52609 
L 228.712097 137.86497 
L 228.711641 135.20385 
L 228.712308 132.09921 
L 228.714673 129.43809 
L 228.71795 126.77697 
L 228.720648 124.11585 
L 228.721457 121.45473 
L 228.720018 118.79361 
L 228.717149 116.13249 
L 228.714427 113.47137 
L 228.713335 110.81025 
L 228.71447 108.14913 
L 228.717219 105.48801 
L 228.720092 102.82689 
L 228.721533 100.16577 
L 228.720762 97.50465 
L 228.718197 94.84353 
L 228.715233 92.18241 
L 228.713485 89.52129 
L 228.714207 86.41665 
L 228.71686 83.75553 
L 228.720021 81.09441 
L 228.722191 78.43329 
L 228.722637 75.77217 
L 228.722003 73.11105 
L 228.722354 70.44993 
L 228.726754 67.78881 
L 228.738817 65.12769 
L 228.762755 62.46657 
L 228.804357 59.80545 
L 228.872959 57.14433 
L 228.984134 54.48321 
L 229.162675 51.82209 
L 229.445469 49.16097 
L 229.835249 46.795604 
L 229.892419 46.49985 
L 230.829822 43.39521 
L 231.656561 41.58145 
L 232.116804 40.73409 
L 233.442161 39.012595 
L 234.314975 38.07297 
L 235.227761 37.357257 
L 237.013361 36.208454 
L 238.542075 35.41185 
L 238.834673 35.297161 
L 240.620273 34.732651 
L 242.405873 34.282414 
L 244.191473 33.926418 
L 246.012785 33.642548 
L 247.798385 33.427053 
L 249.583985 33.261332 
L 251.369585 33.135104 
L 253.190897 33.038253 
L 254.976497 32.967558 
L 256.762097 32.915288 
L 258.547697 32.877027 
L 260.369009 32.848833 
L 262.154609 32.829076 
L 263.940209 32.815048 
L 265.725809 32.805189 
L 267.547121 32.798217 
L 269.332721 32.793529 
L 271.118321 32.790333 
L 272.903921 32.788177 
L 274.725233 32.786714 
L 276.510833 32.78577 
L 278.296433 32.785152 
L 280.082033 32.784752 
L 281.903345 32.784491 
L 283.688945 32.78433 
L 285.474545 32.78423 
L 287.260145 32.784168 
L 289.081457 32.784131 
L 290.867057 32.784111 
L 292.652657 32.784103 
L 294.438257 32.784105 
L 296.259569 32.784118 
L 298.045169 32.784144 
L 299.830769 32.784189 
L 301.616369 32.784265 
L 303.437681 32.78439 
L 305.223281 32.784587 
L 307.008881 32.784895 
L 308.794481 32.785374 
L 310.615793 32.786128 
L 312.401393 32.787257 
L 314.186993 32.788958 
L 315.972593 32.791494 
L 317.793905 32.795327 
L 319.579505 32.800837 
L 321.365105 32.808806 
L 323.150705 32.820211 
L 324.972017 32.836755 
L 326.757617 32.859575 
L 328.543217 32.891255 
L 330.328817 32.934794 
L 332.150129 32.995411 
L 333.935729 33.075686 
L 335.721329 33.182744 
L 337.506929 33.324135 
L 339.328241 33.513291 
L 341.113841 33.754138 
L 342.899441 34.063264 
L 344.685041 34.456459 
L 346.506353 34.963329 
L 347.794784 35.41185 
L 348.291953 35.641888 
L 350.077553 36.662268 
L 351.863153 37.917951 
L 352.044919 38.07297 
L 353.684465 39.996557 
L 354.206591 40.73409 
L 355.470065 43.269256 
L 355.523049 43.39521 
L 356.392007 46.49985 
L 356.866694 49.16097 
L 357.172423 51.82209 
L 357.255665 52.969301 
L 357.350083 54.48321 
L 357.453496 57.14433 
L 357.517365 59.80545 
L 357.556226 62.46657 
L 357.578846 65.12769 
L 357.590779 67.78881 
L 357.596239 70.44993 
L 357.599061 73.11105 
L 357.602838 75.77217 
L 357.610607 78.43329 
L 357.624626 81.09441 
L 357.646604 83.75553 
L 357.6785 86.41665 
L 357.732768 89.52129 
L 357.800566 92.18241 
L 357.897205 94.84353 
L 358.034087 97.50465 
L 358.224672 100.16577 
L 358.484102 102.82689 
L 358.829365 105.48801 
L 359.041265 106.766551 
L 359.248235 108.14913 
L 359.7502 110.81025 
L 360.388482 113.47137 
L 360.862577 115.083516 
L 361.151439 116.13249 
L 362.028997 118.79361 
L 362.648177 120.368884 
L 363.057962 121.45473 
L 364.219045 124.11585 
L 364.433777 124.564327 
L 365.464779 126.77697 
L 366.219377 128.261545 
L 366.801602 129.43809 
L 368.040689 131.827078 
L 368.177491 132.09921 
L 369.713073 135.20385 
L 369.826289 135.445592 
L 370.897432 137.86497 
L 371.611889 139.600141 
L 371.966578 140.52609 
L 372.851753 143.18721 
L 373.397489 145.113153 
L 373.58537 145.84833 
L 374.12503 148.50945 
L 374.545291 151.17057 
L 374.858075 153.83169 
L 375.080458 156.49281 
L 375.218801 158.928303 
L 375.229931 159.15393 
L 375.315259 161.81505 
L 375.3699 164.47617 
L 375.405063 167.13729 
L 375.428271 169.79841 
L 375.443736 172.45953 
L 375.453377 175.12065 
L 375.458483 178.22529 
L 375.458779 180.88641 
L 375.457018 183.54753 
L 375.455112 186.20865 
L 375.454543 188.86977 
L 375.455731 191.53089 
L 375.45785 194.19201 
L 375.459202 196.85313 
L 375.457938 199.51425 
L 375.452664 202.17537 
L 375.442547 204.83649 
L 375.426704 207.49761 
L 375.403066 210.15873 
L 375.367112 212.81985 
L 375.310955 215.48097 
L 375.223098 218.14209 
L 375.218801 218.226767 
L 375.068325 220.80321 
L 374.794309 223.90785 
L 374.458647 226.56897 
L 374.013172 229.23009 
L 373.447924 231.89121 
L 373.397489 232.079894 
L 372.667562 234.55233 
L 371.763244 237.21345 
L 371.611889 237.598564 
L 370.653885 239.87457 
L 369.826289 241.713127 
L 369.435688 242.53569 
L 368.125228 245.19681 
L 368.040689 245.363811 
L 366.736448 247.85793 
L 366.219377 248.882223 
L 365.368965 250.51905 
L 364.433777 252.434993 
L 364.059038 253.18017 
L 362.809368 255.84129 
L 362.648177 256.205218 
L 361.584395 258.50241 
L 360.862577 260.16699 
L 360.403143 261.16353 
L 359.184678 263.82465 
L 359.041265 264.115079 
L 357.531304 266.92929 
L 357.255665 267.374508 
L 355.720522 269.59041 
L 355.470065 269.887568 
L 353.684465 271.729776 
L 353.097636 272.25153 
L 351.863153 273.110864 
L 350.077553 274.156345 
L 348.528322 274.91265 
L 348.291953 275.002087 
L 346.506353 275.553866 
L 344.685041 276.008112 
L 342.899441 276.363665 
L 341.113841 276.64519 
L 339.328241 276.865771 
L 337.506929 277.039782 
L 335.721329 277.1703 
L 333.935729 277.269384 
L 332.150129 277.343827 
L 330.328817 277.400124 
L 328.543217 277.440605 
L 326.757617 277.470084 
L 324.972017 277.491331 
L 323.150705 277.506742 
L 321.365105 277.517369 
L 319.579505 277.524796 
L 317.793905 277.529932 
L 315.972593 277.533506 
L 314.186993 277.535871 
L 312.401393 277.537457 
L 310.615793 277.53851 
L 308.794481 277.539214 
L 307.008881 277.539661 
L 305.223281 277.539948 
L 303.437681 277.540132 
L 301.616369 277.540249 
L 299.830769 277.540321 
L 298.045169 277.540365 
L 296.259569 277.540392 
L 294.438257 277.540408 
L 292.652657 277.540418 
L 290.867057 277.540424 
L 289.081457 277.540427 
L 287.260145 277.540429 
L 285.474545 277.54043 
L 283.688945 277.54043 
L 281.903345 277.54043 
L 280.082033 277.540428 
L 278.296433 277.540425 
L 276.510833 277.54042 
L 274.725233 277.540411 
L 272.903921 277.540397 
L 271.118321 277.540373 
L 269.332721 277.540334 
L 267.547121 277.540271 
L 265.725809 277.540167 
L 263.940209 277.540003 
L 262.154609 277.539745 
L 260.369009 277.539343 
L 258.547697 277.538707 
L 256.762097 277.537751 
L 254.976497 277.536306 
L 253.190897 277.534142 
L 251.369585 277.530857 
L 249.583985 277.526116 
L 247.798385 277.519233 
L 246.012785 277.509339 
L 244.191473 277.49493 
L 242.405873 277.474973 
L 240.620273 277.447155 
L 238.834673 277.40877 
L 237.013361 277.355112 
L 235.227761 277.283766 
L 233.442161 277.188241 
L 231.656561 277.061591 
L 229.835249 276.891496 
L 228.049649 276.674095 
L 226.264049 276.394032 
L 224.478449 276.036528 
L 222.657137 275.574048 
L 220.871537 275.00409 
L 220.639972 274.91265 
L 219.085937 274.096391 
L 217.300337 272.939692 
L 216.430667 272.25153 
L 215.479025 271.216405 
L 214.242692 269.59041 
L 213.693425 268.565163 
L 212.956802 266.92929 
L 212.031472 263.82465 
L 211.907825 263.175601 
L 211.580517 261.16353 
z
" clip-path="url(#p7031ec5868)" style="fill: none; stroke: #0b559f; stroke-width: 1.5"/>
   </g>
   <g id="PathCollection_8"/>
   <g id="patch_3">
    <path d="M 34.240625 288.21825 
L 34.240625 22.10625 
" style="fill: none; stroke: #000000; stroke-width: 0.8; stroke-linejoin: miter; stroke-linecap: square"/>
   </g>
   <g id="patch_4">
    <path d="M 391.360625 288.21825 
L 391.360625 22.10625 
" style="fill: none; stroke: #000000; stroke-width: 0.8; stroke-linejoin: miter; stroke-linecap: square"/>
   </g>
   <g id="patch_5">
    <path d="M 34.240625 288.21825 
L 391.360625 288.21825 
" style="fill: none; stroke: #000000; stroke-width: 0.8; stroke-linejoin: miter; stroke-linecap: square"/>
   </g>
   <g id="patch_6">
    <path d="M 34.240625 22.10625 
L 391.360625 22.10625 
" style="fill: none; stroke: #000000; stroke-width: 0.8; stroke-linejoin: miter; stroke-linecap: square"/>
   </g>
   <g id="text_16">
    <!-- 8.4_cross_-43.0 -->
    <g transform="translate(166.181563 16.10625)scale(0.12 -0.12)">
     <defs>
      <path id="DejaVuSans-2e" d="M 684 794 
L 1344 794 
L 1344 0 
L 684 0 
L 684 794 
z
" transform="scale(0.015625)"/>
      <path id="DejaVuSans-5f" d="M 3263 -1063 
L 3263 -1509 
L -63 -1509 
L -63 -1063 
L 3263 -1063 
z
" transform="scale(0.015625)"/>
      <path id="DejaVuSans-63" d="M 3122 3366 
L 3122 2828 
Q 2878 2963 2633 3030 
Q 2388 3097 2138 3097 
Q 1578 3097 1268 2742 
Q 959 2388 959 1747 
Q 959 1106 1268 751 
Q 1578 397 2138 397 
Q 2388 397 2633 464 
Q 2878 531 3122 666 
L 3122 134 
Q 2881 22 2623 -34 
Q 2366 -91 2075 -91 
Q 1284 -91 818 406 
Q 353 903 353 1747 
Q 353 2603 823 3093 
Q 1294 3584 2113 3584 
Q 2378 3584 2631 3529 
Q 2884 3475 3122 3366 
z
" transform="scale(0.015625)"/>
      <path id="DejaVuSans-72" d="M 2631 2963 
Q 2534 3019 2420 3045 
Q 2306 3072 2169 3072 
Q 1681 3072 1420 2755 
Q 1159 2438 1159 1844 
L 1159 0 
L 581 0 
L 581 3500 
L 1159 3500 
L 1159 2956 
Q 1341 3275 1631 3429 
Q 1922 3584 2338 3584 
Q 2397 3584 2469 3576 
Q 2541 3569 2628 3553 
L 2631 2963 
z
" transform="scale(0.015625)"/>
      <path id="DejaVuSans-73" d="M 2834 3397 
L 2834 2853 
Q 2591 2978 2328 3040 
Q 2066 3103 1784 3103 
Q 1356 3103 1142 2972 
Q 928 2841 928 2578 
Q 928 2378 1081 2264 
Q 1234 2150 1697 2047 
L 1894 2003 
Q 2506 1872 2764 1633 
Q 3022 1394 3022 966 
Q 3022 478 2636 193 
Q 2250 -91 1575 -91 
Q 1294 -91 989 -36 
Q 684 19 347 128 
L 347 722 
Q 666 556 975 473 
Q 1284 391 1588 391 
Q 1994 391 2212 530 
Q 2431 669 2431 922 
Q 2431 1156 2273 1281 
Q 2116 1406 1581 1522 
L 1381 1569 
Q 847 1681 609 1914 
Q 372 2147 372 2553 
Q 372 3047 722 3315 
Q 1072 3584 1716 3584 
Q 2034 3584 2315 3537 
Q 2597 3491 2834 3397 
z
" transform="scale(0.015625)"/>
      <path id="DejaVuSans-2d" d="M 313 2009 
L 1997 2009 
L 1997 1497 
L 313 1497 
L 313 2009 
z
" transform="scale(0.015625)"/>
     </defs>
     <use xlink:href="#DejaVuSans-38"/>
     <use xlink:href="#DejaVuSans-2e" x="63.623047"/>
     <use xlink:href="#DejaVuSans-34" x="95.410156"/>
     <use xlink:href="#DejaVuSans-5f" x="159.033203"/>
     <use xlink:href="#DejaVuSans-63" x="209.033203"/>
     <use xlink:href="#DejaVuSans-72" x="264.013672"/>
     <use xlink:href="#DejaVuSans-6f" x="302.876953"/>
     <use xlink:href="#DejaVuSans-73" x="364.058594"/>
     <use xlink:href="#DejaVuSans-73" x="416.158203"/>
     <use xlink:href="#DejaVuSans-5f" x="468.257812"/>
     <use xlink:href="#DejaVuSans-2d" x="518.257812"/>
     <use xlink:href="#DejaVuSans-34" x="554.341797"/>
     <use xlink:href="#DejaVuSans-33" x="617.964844"/>
     <use xlink:href="#DejaVuSans-2e" x="681.587891"/>
     <use xlink:href="#DejaVuSans-30" x="713.375"/>
    </g>
   </g>
  </g>
 </g>
 <defs>
  <clipPath id="p7031ec5868">
   <rect x="34.240625" y="22.10625" width="357.12" height="266.112"/>
  </clipPath>
 </defs>
</svg>
