<?xml version="1.0" encoding="utf-8" standalone="no"?>
<!DOCTYPE svg PUBLIC "-//W3C//DTD SVG 1.1//EN"
  "http://www.w3.org/Graphics/SVG/1.1/DTD/svg11.dtd">
<svg xmlns:xlink="http://www.w3.org/1999/xlink" width="408.104375pt" height="325.7745pt" viewBox="0 0 408.104375 325.7745" xmlns="http://www.w3.org/2000/svg" version="1.1">
 <metadata>
  <rdf:RDF xmlns:dc="http://purl.org/dc/elements/1.1/" xmlns:cc="http://creativecommons.org/ns#" xmlns:rdf="http://www.w3.org/1999/02/22-rdf-syntax-ns#">
   <cc:Work>
    <dc:type rdf:resource="http://purl.org/dc/dcmitype/StillImage"/>
    <dc:date>2024-07-12T12:15:34.488997</dc:date>
    <dc:format>image/svg+xml</dc:format>
    <dc:creator>
     <cc:Agent>
      <dc:title>Matplotlib v3.5.3, https://matplotlib.org/</dc:title>
     </cc:Agent>
    </dc:creator>
   </cc:Work>
  </rdf:RDF>
 </metadata>
 <defs>
  <style type="text/css">*{stroke-linejoin: round; stroke-linecap: butt}</style>
 </defs>
 <g id="figure_1">
  <g id="patch_1">
   <path d="M 0 325.7745 
L 408.104375 325.7745 
L 408.104375 0 
L 0 0 
z
" style="fill: #ffffff"/>
  </g>
  <g id="axes_1">
   <g id="patch_2">
    <path d="M 34.240625 288.21825 
L 391.360625 288.21825 
L 391.360625 22.10625 
L 34.240625 22.10625 
z
" style="fill: #ffffff"/>
   </g>
   <g id="matplotlib.axis_1">
    <g id="xtick_1">
     <g id="line2d_1">
      <defs>
       <path id="mfaa5a80eb9" d="M 0 0 
L 0 3.5 
" style="stroke: #000000; stroke-width: 0.8"/>
      </defs>
      <g>
       <use xlink:href="#mfaa5a80eb9" x="34.240625" y="288.21825" style="stroke: #000000; stroke-width: 0.8"/>
      </g>
     </g>
     <g id="text_1">
      <!-- 0 -->
      <g transform="translate(31.059375 302.816687)scale(0.1 -0.1)">
       <defs>
        <path id="DejaVuSans-30" d="M 2034 4250 
Q 1547 4250 1301 3770 
Q 1056 3291 1056 2328 
Q 1056 1369 1301 889 
Q 1547 409 2034 409 
Q 2525 409 2770 889 
Q 3016 1369 3016 2328 
Q 3016 3291 2770 3770 
Q 2525 4250 2034 4250 
z
M 2034 4750 
Q 2819 4750 3233 4129 
Q 3647 3509 3647 2328 
Q 3647 1150 3233 529 
Q 2819 -91 2034 -91 
Q 1250 -91 836 529 
Q 422 1150 422 2328 
Q 422 3509 836 4129 
Q 1250 4750 2034 4750 
z
" transform="scale(0.015625)"/>
       </defs>
       <use xlink:href="#DejaVuSans-30"/>
      </g>
     </g>
    </g>
    <g id="xtick_2">
     <g id="line2d_2">
      <g>
       <use xlink:href="#mfaa5a80eb9" x="105.664625" y="288.21825" style="stroke: #000000; stroke-width: 0.8"/>
      </g>
     </g>
     <g id="text_2">
      <!-- 20 -->
      <g transform="translate(99.302125 302.816687)scale(0.1 -0.1)">
       <defs>
        <path id="DejaVuSans-32" d="M 1228 531 
L 3431 531 
L 3431 0 
L 469 0 
L 469 531 
Q 828 903 1448 1529 
Q 2069 2156 2228 2338 
Q 2531 2678 2651 2914 
Q 2772 3150 2772 3378 
Q 2772 3750 2511 3984 
Q 2250 4219 1831 4219 
Q 1534 4219 1204 4116 
Q 875 4013 500 3803 
L 500 4441 
Q 881 4594 1212 4672 
Q 1544 4750 1819 4750 
Q 2544 4750 2975 4387 
Q 3406 4025 3406 3419 
Q 3406 3131 3298 2873 
Q 3191 2616 2906 2266 
Q 2828 2175 2409 1742 
Q 1991 1309 1228 531 
z
" transform="scale(0.015625)"/>
       </defs>
       <use xlink:href="#DejaVuSans-32"/>
       <use xlink:href="#DejaVuSans-30" x="63.623047"/>
      </g>
     </g>
    </g>
    <g id="xtick_3">
     <g id="line2d_3">
      <g>
       <use xlink:href="#mfaa5a80eb9" x="177.088625" y="288.21825" style="stroke: #000000; stroke-width: 0.8"/>
      </g>
     </g>
     <g id="text_3">
      <!-- 40 -->
      <g transform="translate(170.726125 302.816687)scale(0.1 -0.1)">
       <defs>
        <path id="DejaVuSans-34" d="M 2419 4116 
L 825 1625 
L 2419 1625 
L 2419 4116 
z
M 2253 4666 
L 3047 4666 
L 3047 1625 
L 3713 1625 
L 3713 1100 
L 3047 1100 
L 3047 0 
L 2419 0 
L 2419 1100 
L 313 1100 
L 313 1709 
L 2253 4666 
z
" transform="scale(0.015625)"/>
       </defs>
       <use xlink:href="#DejaVuSans-34"/>
       <use xlink:href="#DejaVuSans-30" x="63.623047"/>
      </g>
     </g>
    </g>
    <g id="xtick_4">
     <g id="line2d_4">
      <g>
       <use xlink:href="#mfaa5a80eb9" x="248.512625" y="288.21825" style="stroke: #000000; stroke-width: 0.8"/>
      </g>
     </g>
     <g id="text_4">
      <!-- 60 -->
      <g transform="translate(242.150125 302.816687)scale(0.1 -0.1)">
       <defs>
        <path id="DejaVuSans-36" d="M 2113 2584 
Q 1688 2584 1439 2293 
Q 1191 2003 1191 1497 
Q 1191 994 1439 701 
Q 1688 409 2113 409 
Q 2538 409 2786 701 
Q 3034 994 3034 1497 
Q 3034 2003 2786 2293 
Q 2538 2584 2113 2584 
z
M 3366 4563 
L 3366 3988 
Q 3128 4100 2886 4159 
Q 2644 4219 2406 4219 
Q 1781 4219 1451 3797 
Q 1122 3375 1075 2522 
Q 1259 2794 1537 2939 
Q 1816 3084 2150 3084 
Q 2853 3084 3261 2657 
Q 3669 2231 3669 1497 
Q 3669 778 3244 343 
Q 2819 -91 2113 -91 
Q 1303 -91 875 529 
Q 447 1150 447 2328 
Q 447 3434 972 4092 
Q 1497 4750 2381 4750 
Q 2619 4750 2861 4703 
Q 3103 4656 3366 4563 
z
" transform="scale(0.015625)"/>
       </defs>
       <use xlink:href="#DejaVuSans-36"/>
       <use xlink:href="#DejaVuSans-30" x="63.623047"/>
      </g>
     </g>
    </g>
    <g id="xtick_5">
     <g id="line2d_5">
      <g>
       <use xlink:href="#mfaa5a80eb9" x="319.936625" y="288.21825" style="stroke: #000000; stroke-width: 0.8"/>
      </g>
     </g>
     <g id="text_5">
      <!-- 80 -->
      <g transform="translate(313.574125 302.816687)scale(0.1 -0.1)">
       <defs>
        <path id="DejaVuSans-38" d="M 2034 2216 
Q 1584 2216 1326 1975 
Q 1069 1734 1069 1313 
Q 1069 891 1326 650 
Q 1584 409 2034 409 
Q 2484 409 2743 651 
Q 3003 894 3003 1313 
Q 3003 1734 2745 1975 
Q 2488 2216 2034 2216 
z
M 1403 2484 
Q 997 2584 770 2862 
Q 544 3141 544 3541 
Q 544 4100 942 4425 
Q 1341 4750 2034 4750 
Q 2731 4750 3128 4425 
Q 3525 4100 3525 3541 
Q 3525 3141 3298 2862 
Q 3072 2584 2669 2484 
Q 3125 2378 3379 2068 
Q 3634 1759 3634 1313 
Q 3634 634 3220 271 
Q 2806 -91 2034 -91 
Q 1263 -91 848 271 
Q 434 634 434 1313 
Q 434 1759 690 2068 
Q 947 2378 1403 2484 
z
M 1172 3481 
Q 1172 3119 1398 2916 
Q 1625 2713 2034 2713 
Q 2441 2713 2670 2916 
Q 2900 3119 2900 3481 
Q 2900 3844 2670 4047 
Q 2441 4250 2034 4250 
Q 1625 4250 1398 4047 
Q 1172 3844 1172 3481 
z
" transform="scale(0.015625)"/>
       </defs>
       <use xlink:href="#DejaVuSans-38"/>
       <use xlink:href="#DejaVuSans-30" x="63.623047"/>
      </g>
     </g>
    </g>
    <g id="xtick_6">
     <g id="line2d_6">
      <g>
       <use xlink:href="#mfaa5a80eb9" x="391.360625" y="288.21825" style="stroke: #000000; stroke-width: 0.8"/>
      </g>
     </g>
     <g id="text_6">
      <!-- 100 -->
      <g transform="translate(381.816875 302.816687)scale(0.1 -0.1)">
       <defs>
        <path id="DejaVuSans-31" d="M 794 531 
L 1825 531 
L 1825 4091 
L 703 3866 
L 703 4441 
L 1819 4666 
L 2450 4666 
L 2450 531 
L 3481 531 
L 3481 0 
L 794 0 
L 794 531 
z
" transform="scale(0.015625)"/>
       </defs>
       <use xlink:href="#DejaVuSans-31"/>
       <use xlink:href="#DejaVuSans-30" x="63.623047"/>
       <use xlink:href="#DejaVuSans-30" x="127.246094"/>
      </g>
     </g>
    </g>
    <g id="text_7">
     <!-- axialRotation -->
     <g transform="translate(180.024844 316.494812)scale(0.1 -0.1)">
      <defs>
       <path id="DejaVuSans-61" d="M 2194 1759 
Q 1497 1759 1228 1600 
Q 959 1441 959 1056 
Q 959 750 1161 570 
Q 1363 391 1709 391 
Q 2188 391 2477 730 
Q 2766 1069 2766 1631 
L 2766 1759 
L 2194 1759 
z
M 3341 1997 
L 3341 0 
L 2766 0 
L 2766 531 
Q 2569 213 2275 61 
Q 1981 -91 1556 -91 
Q 1019 -91 701 211 
Q 384 513 384 1019 
Q 384 1609 779 1909 
Q 1175 2209 1959 2209 
L 2766 2209 
L 2766 2266 
Q 2766 2663 2505 2880 
Q 2244 3097 1772 3097 
Q 1472 3097 1187 3025 
Q 903 2953 641 2809 
L 641 3341 
Q 956 3463 1253 3523 
Q 1550 3584 1831 3584 
Q 2591 3584 2966 3190 
Q 3341 2797 3341 1997 
z
" transform="scale(0.015625)"/>
       <path id="DejaVuSans-78" d="M 3513 3500 
L 2247 1797 
L 3578 0 
L 2900 0 
L 1881 1375 
L 863 0 
L 184 0 
L 1544 1831 
L 300 3500 
L 978 3500 
L 1906 2253 
L 2834 3500 
L 3513 3500 
z
" transform="scale(0.015625)"/>
       <path id="DejaVuSans-69" d="M 603 3500 
L 1178 3500 
L 1178 0 
L 603 0 
L 603 3500 
z
M 603 4863 
L 1178 4863 
L 1178 4134 
L 603 4134 
L 603 4863 
z
" transform="scale(0.015625)"/>
       <path id="DejaVuSans-6c" d="M 603 4863 
L 1178 4863 
L 1178 0 
L 603 0 
L 603 4863 
z
" transform="scale(0.015625)"/>
       <path id="DejaVuSans-52" d="M 2841 2188 
Q 3044 2119 3236 1894 
Q 3428 1669 3622 1275 
L 4263 0 
L 3584 0 
L 2988 1197 
Q 2756 1666 2539 1819 
Q 2322 1972 1947 1972 
L 1259 1972 
L 1259 0 
L 628 0 
L 628 4666 
L 2053 4666 
Q 2853 4666 3247 4331 
Q 3641 3997 3641 3322 
Q 3641 2881 3436 2590 
Q 3231 2300 2841 2188 
z
M 1259 4147 
L 1259 2491 
L 2053 2491 
Q 2509 2491 2742 2702 
Q 2975 2913 2975 3322 
Q 2975 3731 2742 3939 
Q 2509 4147 2053 4147 
L 1259 4147 
z
" transform="scale(0.015625)"/>
       <path id="DejaVuSans-6f" d="M 1959 3097 
Q 1497 3097 1228 2736 
Q 959 2375 959 1747 
Q 959 1119 1226 758 
Q 1494 397 1959 397 
Q 2419 397 2687 759 
Q 2956 1122 2956 1747 
Q 2956 2369 2687 2733 
Q 2419 3097 1959 3097 
z
M 1959 3584 
Q 2709 3584 3137 3096 
Q 3566 2609 3566 1747 
Q 3566 888 3137 398 
Q 2709 -91 1959 -91 
Q 1206 -91 779 398 
Q 353 888 353 1747 
Q 353 2609 779 3096 
Q 1206 3584 1959 3584 
z
" transform="scale(0.015625)"/>
       <path id="DejaVuSans-74" d="M 1172 4494 
L 1172 3500 
L 2356 3500 
L 2356 3053 
L 1172 3053 
L 1172 1153 
Q 1172 725 1289 603 
Q 1406 481 1766 481 
L 2356 481 
L 2356 0 
L 1766 0 
Q 1100 0 847 248 
Q 594 497 594 1153 
L 594 3053 
L 172 3053 
L 172 3500 
L 594 3500 
L 594 4494 
L 1172 4494 
z
" transform="scale(0.015625)"/>
       <path id="DejaVuSans-6e" d="M 3513 2113 
L 3513 0 
L 2938 0 
L 2938 2094 
Q 2938 2591 2744 2837 
Q 2550 3084 2163 3084 
Q 1697 3084 1428 2787 
Q 1159 2491 1159 1978 
L 1159 0 
L 581 0 
L 581 3500 
L 1159 3500 
L 1159 2956 
Q 1366 3272 1645 3428 
Q 1925 3584 2291 3584 
Q 2894 3584 3203 3211 
Q 3513 2838 3513 2113 
z
" transform="scale(0.015625)"/>
      </defs>
      <use xlink:href="#DejaVuSans-61"/>
      <use xlink:href="#DejaVuSans-78" x="61.279297"/>
      <use xlink:href="#DejaVuSans-69" x="120.458984"/>
      <use xlink:href="#DejaVuSans-61" x="148.242188"/>
      <use xlink:href="#DejaVuSans-6c" x="209.521484"/>
      <use xlink:href="#DejaVuSans-52" x="237.304688"/>
      <use xlink:href="#DejaVuSans-6f" x="302.287109"/>
      <use xlink:href="#DejaVuSans-74" x="363.46875"/>
      <use xlink:href="#DejaVuSans-61" x="402.677734"/>
      <use xlink:href="#DejaVuSans-74" x="463.957031"/>
      <use xlink:href="#DejaVuSans-69" x="503.166016"/>
      <use xlink:href="#DejaVuSans-6f" x="530.949219"/>
      <use xlink:href="#DejaVuSans-6e" x="592.130859"/>
     </g>
    </g>
   </g>
   <g id="matplotlib.axis_2">
    <g id="ytick_1">
     <g id="line2d_7">
      <defs>
       <path id="ma6b2e82b77" d="M 0 0 
L -3.5 0 
" style="stroke: #000000; stroke-width: 0.8"/>
      </defs>
      <g>
       <use xlink:href="#ma6b2e82b77" x="34.240625" y="288.21825" style="stroke: #000000; stroke-width: 0.8"/>
      </g>
     </g>
     <g id="text_8">
      <!-- 0 -->
      <g transform="translate(20.878125 292.017469)scale(0.1 -0.1)">
       <use xlink:href="#DejaVuSans-30"/>
      </g>
     </g>
    </g>
    <g id="ytick_2">
     <g id="line2d_8">
      <g>
       <use xlink:href="#ma6b2e82b77" x="34.240625" y="243.86625" style="stroke: #000000; stroke-width: 0.8"/>
      </g>
     </g>
     <g id="text_9">
      <!-- 1 -->
      <g transform="translate(20.878125 247.665469)scale(0.1 -0.1)">
       <use xlink:href="#DejaVuSans-31"/>
      </g>
     </g>
    </g>
    <g id="ytick_3">
     <g id="line2d_9">
      <g>
       <use xlink:href="#ma6b2e82b77" x="34.240625" y="199.51425" style="stroke: #000000; stroke-width: 0.8"/>
      </g>
     </g>
     <g id="text_10">
      <!-- 2 -->
      <g transform="translate(20.878125 203.313469)scale(0.1 -0.1)">
       <use xlink:href="#DejaVuSans-32"/>
      </g>
     </g>
    </g>
    <g id="ytick_4">
     <g id="line2d_10">
      <g>
       <use xlink:href="#ma6b2e82b77" x="34.240625" y="155.16225" style="stroke: #000000; stroke-width: 0.8"/>
      </g>
     </g>
     <g id="text_11">
      <!-- 3 -->
      <g transform="translate(20.878125 158.961469)scale(0.1 -0.1)">
       <defs>
        <path id="DejaVuSans-33" d="M 2597 2516 
Q 3050 2419 3304 2112 
Q 3559 1806 3559 1356 
Q 3559 666 3084 287 
Q 2609 -91 1734 -91 
Q 1441 -91 1130 -33 
Q 819 25 488 141 
L 488 750 
Q 750 597 1062 519 
Q 1375 441 1716 441 
Q 2309 441 2620 675 
Q 2931 909 2931 1356 
Q 2931 1769 2642 2001 
Q 2353 2234 1838 2234 
L 1294 2234 
L 1294 2753 
L 1863 2753 
Q 2328 2753 2575 2939 
Q 2822 3125 2822 3475 
Q 2822 3834 2567 4026 
Q 2313 4219 1838 4219 
Q 1578 4219 1281 4162 
Q 984 4106 628 3988 
L 628 4550 
Q 988 4650 1302 4700 
Q 1616 4750 1894 4750 
Q 2613 4750 3031 4423 
Q 3450 4097 3450 3541 
Q 3450 3153 3228 2886 
Q 3006 2619 2597 2516 
z
" transform="scale(0.015625)"/>
       </defs>
       <use xlink:href="#DejaVuSans-33"/>
      </g>
     </g>
    </g>
    <g id="ytick_5">
     <g id="line2d_11">
      <g>
       <use xlink:href="#ma6b2e82b77" x="34.240625" y="110.81025" style="stroke: #000000; stroke-width: 0.8"/>
      </g>
     </g>
     <g id="text_12">
      <!-- 4 -->
      <g transform="translate(20.878125 114.609469)scale(0.1 -0.1)">
       <use xlink:href="#DejaVuSans-34"/>
      </g>
     </g>
    </g>
    <g id="ytick_6">
     <g id="line2d_12">
      <g>
       <use xlink:href="#ma6b2e82b77" x="34.240625" y="66.45825" style="stroke: #000000; stroke-width: 0.8"/>
      </g>
     </g>
     <g id="text_13">
      <!-- 5 -->
      <g transform="translate(20.878125 70.257469)scale(0.1 -0.1)">
       <defs>
        <path id="DejaVuSans-35" d="M 691 4666 
L 3169 4666 
L 3169 4134 
L 1269 4134 
L 1269 2991 
Q 1406 3038 1543 3061 
Q 1681 3084 1819 3084 
Q 2600 3084 3056 2656 
Q 3513 2228 3513 1497 
Q 3513 744 3044 326 
Q 2575 -91 1722 -91 
Q 1428 -91 1123 -41 
Q 819 9 494 109 
L 494 744 
Q 775 591 1075 516 
Q 1375 441 1709 441 
Q 2250 441 2565 725 
Q 2881 1009 2881 1497 
Q 2881 1984 2565 2268 
Q 2250 2553 1709 2553 
Q 1456 2553 1204 2497 
Q 953 2441 691 2322 
L 691 4666 
z
" transform="scale(0.015625)"/>
       </defs>
       <use xlink:href="#DejaVuSans-35"/>
      </g>
     </g>
    </g>
    <g id="ytick_7">
     <g id="line2d_13">
      <g>
       <use xlink:href="#ma6b2e82b77" x="34.240625" y="22.10625" style="stroke: #000000; stroke-width: 0.8"/>
      </g>
     </g>
     <g id="text_14">
      <!-- 6 -->
      <g transform="translate(20.878125 25.905469)scale(0.1 -0.1)">
       <use xlink:href="#DejaVuSans-36"/>
      </g>
     </g>
    </g>
    <g id="text_15">
     <!-- zShift -->
     <g transform="translate(14.798438 169.151312)rotate(-90)scale(0.1 -0.1)">
      <defs>
       <path id="DejaVuSans-7a" d="M 353 3500 
L 3084 3500 
L 3084 2975 
L 922 459 
L 3084 459 
L 3084 0 
L 275 0 
L 275 525 
L 2438 3041 
L 353 3041 
L 353 3500 
z
" transform="scale(0.015625)"/>
       <path id="DejaVuSans-53" d="M 3425 4513 
L 3425 3897 
Q 3066 4069 2747 4153 
Q 2428 4238 2131 4238 
Q 1616 4238 1336 4038 
Q 1056 3838 1056 3469 
Q 1056 3159 1242 3001 
Q 1428 2844 1947 2747 
L 2328 2669 
Q 3034 2534 3370 2195 
Q 3706 1856 3706 1288 
Q 3706 609 3251 259 
Q 2797 -91 1919 -91 
Q 1588 -91 1214 -16 
Q 841 59 441 206 
L 441 856 
Q 825 641 1194 531 
Q 1563 422 1919 422 
Q 2459 422 2753 634 
Q 3047 847 3047 1241 
Q 3047 1584 2836 1778 
Q 2625 1972 2144 2069 
L 1759 2144 
Q 1053 2284 737 2584 
Q 422 2884 422 3419 
Q 422 4038 858 4394 
Q 1294 4750 2059 4750 
Q 2388 4750 2728 4690 
Q 3069 4631 3425 4513 
z
" transform="scale(0.015625)"/>
       <path id="DejaVuSans-68" d="M 3513 2113 
L 3513 0 
L 2938 0 
L 2938 2094 
Q 2938 2591 2744 2837 
Q 2550 3084 2163 3084 
Q 1697 3084 1428 2787 
Q 1159 2491 1159 1978 
L 1159 0 
L 581 0 
L 581 4863 
L 1159 4863 
L 1159 2956 
Q 1366 3272 1645 3428 
Q 1925 3584 2291 3584 
Q 2894 3584 3203 3211 
Q 3513 2838 3513 2113 
z
" transform="scale(0.015625)"/>
       <path id="DejaVuSans-66" d="M 2375 4863 
L 2375 4384 
L 1825 4384 
Q 1516 4384 1395 4259 
Q 1275 4134 1275 3809 
L 1275 3500 
L 2222 3500 
L 2222 3053 
L 1275 3053 
L 1275 0 
L 697 0 
L 697 3053 
L 147 3053 
L 147 3500 
L 697 3500 
L 697 3744 
Q 697 4328 969 4595 
Q 1241 4863 1831 4863 
L 2375 4863 
z
" transform="scale(0.015625)"/>
      </defs>
      <use xlink:href="#DejaVuSans-7a"/>
      <use xlink:href="#DejaVuSans-53" x="52.490234"/>
      <use xlink:href="#DejaVuSans-68" x="115.966797"/>
      <use xlink:href="#DejaVuSans-69" x="179.345703"/>
      <use xlink:href="#DejaVuSans-66" x="207.128906"/>
      <use xlink:href="#DejaVuSans-74" x="240.583984"/>
     </g>
    </g>
   </g>
   <g id="PathCollection_1"/>
   <g id="PathCollection_2">
    <path d="M 195.561108 288.21825 
L 195.176242 285.55713 
L 194.883342 282.89601 
L 194.662695 280.23489 
L 194.49927 277.57377 
L 194.381636 274.91265 
L 194.301273 272.25153 
L 194.252143 269.59041 
L 194.230431 266.92929 
L 194.237557 263.82465 
L 194.272013 261.16353 
L 194.335356 258.50241 
L 194.432366 255.84129 
L 194.570106 253.18017 
L 194.758225 250.51905 
L 195.009449 247.85793 
L 195.340354 245.19681 
L 195.766001 242.573425 
L 195.771322 242.53569 
L 196.227181 239.87457 
L 196.817702 237.21345 
L 197.551601 234.650144 
L 197.577976 234.55233 
L 198.412394 231.89121 
L 199.337201 229.569888 
L 199.472474 229.23009 
L 200.679825 226.56897 
L 201.122801 225.713498 
L 202.0905 223.90785 
L 202.944113 222.44043 
L 203.955145 220.80321 
L 204.729713 219.561857 
L 205.613954 218.14209 
L 206.515313 216.630737 
L 207.15678 215.48097 
L 208.300913 213.193498 
L 208.463656 212.81985 
L 209.408488 210.15873 
L 210.122225 207.610918 
L 210.147984 207.49761 
L 210.56648 204.83649 
L 210.812995 202.17537 
L 210.894306 199.51425 
L 210.812995 196.85313 
L 210.56648 194.19201 
L 210.147984 191.53089 
L 210.122225 191.417582 
L 209.408488 188.86977 
L 208.463655 186.20865 
L 208.300913 185.835004 
L 207.156777 183.54753 
L 206.515313 182.397769 
L 205.613949 180.88641 
L 204.729713 179.466655 
L 203.955135 178.22529 
L 202.944113 176.588098 
L 202.090479 175.12065 
L 201.122801 173.315066 
L 200.679786 172.45953 
L 199.472412 169.79841 
L 199.337201 169.458788 
L 198.412278 167.13729 
L 197.577788 164.47617 
L 197.551601 164.379075 
L 196.817339 161.81505 
L 196.226587 159.15393 
L 195.770344 156.49281 
L 195.766001 156.462073 
L 195.33837 153.83169 
L 195.006179 151.17057 
L 194.752854 148.50945 
L 194.561333 145.84833 
L 194.418163 143.18721 
L 194.312618 140.52609 
L 194.236099 137.86497 
L 194.18169 135.20385 
L 194.138822 132.09921 
L 194.114787 129.43809 
L 194.098931 126.77697 
L 194.08871 124.11585 
L 194.082247 121.45473 
L 194.07822 118.79361 
L 194.075748 116.13249 
L 194.074276 113.47137 
L 194.073457 110.81025 
L 194.073064 108.14913 
L 194.072927 105.48801 
L 194.072912 102.82689 
L 194.072923 100.16577 
L 194.072916 97.50465 
L 194.072915 94.84353 
L 194.072997 92.18241 
L 194.073288 89.52129 
L 194.074101 86.41665 
L 194.075445 83.75553 
L 194.077718 81.09441 
L 194.081436 78.43329 
L 194.087414 75.77217 
L 194.096895 73.11105 
L 194.111656 70.44993 
L 194.134123 67.78881 
L 194.167484 65.12769 
L 194.215825 62.46657 
L 194.284295 59.80545 
L 194.37933 57.14433 
L 194.508939 54.48321 
L 194.683099 51.82209 
L 194.914314 49.16097 
L 195.218397 46.49985 
L 195.69262 43.39521 
L 195.766001 43.007789 
L 196.144572 40.73409 
L 196.712804 38.07297 
L 197.450447 35.41185 
L 197.551601 35.098024 
L 198.274887 32.75073 
L 199.329043 30.08961 
L 199.337201 30.071178 
L 200.528564 27.42849 
L 201.122801 26.309728 
L 201.989995 24.76737 
L 202.944113 23.249629 
L 203.724589 22.10625 
" clip-path="url(#pf9c53cc7c9)" style="fill: none; stroke: #deebf7; stroke-width: 1.5"/>
    <path d="M 391.360625 283.028253 
L 391.111006 285.55713 
L 390.767735 288.21825 
" clip-path="url(#pf9c53cc7c9)" style="fill: none; stroke: #deebf7; stroke-width: 1.5"/>
    <path d="M 390.767735 22.10625 
L 391.111006 24.76737 
L 391.360625 27.296247 
" clip-path="url(#pf9c53cc7c9)" style="fill: none; stroke: #deebf7; stroke-width: 1.5"/>
   </g>
   <g id="PathCollection_3">
    <path d="M 200.163967 288.21825 
L 199.333489 282.89601 
L 198.802178 277.57377 
L 198.528114 272.25153 
L 198.42964 266.92929 
L 198.485912 261.16353 
L 198.705118 255.84129 
L 199.150158 250.51905 
L 199.870952 245.19681 
L 200.386183 242.53569 
L 201.122801 239.632747 
L 201.836528 237.21345 
L 202.944113 234.281818 
L 204.729713 230.504522 
L 206.515313 227.439356 
L 210.749622 220.80321 
L 212.144558 218.14209 
L 213.693425 214.005731 
L 214.022479 212.81985 
L 214.591785 210.15873 
L 215.007944 207.49761 
L 215.289962 204.83649 
L 215.479025 200.863248 
L 215.452789 196.85313 
L 215.289962 194.19201 
L 215.007944 191.53089 
L 214.591785 188.86977 
L 213.693425 185.022773 
L 213.211438 183.54753 
L 211.907825 180.38841 
L 210.122225 177.182539 
L 204.729713 168.524224 
L 204.011395 167.13729 
L 202.828492 164.47617 
L 201.836045 161.81505 
L 201.050443 159.15393 
L 200.384734 156.49281 
L 199.868552 153.83169 
L 199.142758 148.50945 
L 198.685512 143.18721 
L 198.361736 135.20385 
L 198.234272 124.11585 
L 198.214234 86.41665 
L 198.296545 67.78881 
L 198.50235 59.80545 
L 198.80983 54.48321 
L 199.360464 49.16097 
L 199.726053 46.49985 
L 200.293527 43.39521 
L 201.122801 40.08974 
L 201.707844 38.07297 
L 202.944113 34.785607 
L 203.86017 32.75073 
L 205.317729 30.08961 
L 207.078952 27.42849 
L 209.137324 24.76737 
L 211.387745 22.10625 
L 211.387745 22.10625 
" clip-path="url(#pf9c53cc7c9)" style="fill: none; stroke: #c6dbef; stroke-width: 1.5"/>
    <path d="M 386.128711 22.10625 
L 386.624662 24.76737 
L 387.003231 27.42849 
L 387.290248 30.08961 
L 387.505795 32.75073 
L 387.665694 35.41185 
L 387.753713 37.407527 
L 387.786933 38.07297 
L 387.883587 40.73409 
L 387.951555 43.39521 
L 388.004414 46.49985 
L 388.033646 49.16097 
L 388.052699 51.82209 
L 388.064856 54.48321 
L 388.072482 57.14433 
L 388.077201 59.80545 
L 388.080063 62.46657 
L 388.081722 65.12769 
L 388.082593 67.78881 
L 388.082966 70.44993 
L 388.08307 73.11105 
L 388.083086 75.77217 
L 388.083133 78.43329 
L 388.083251 81.09441 
L 388.083411 83.75553 
L 388.083543 86.41665 
L 388.083578 89.52129 
L 388.083493 92.18241 
L 388.083348 94.84353 
L 388.083224 97.50465 
L 388.083188 100.16577 
L 388.083259 102.82689 
L 388.083399 105.48801 
L 388.083532 108.14913 
L 388.083586 110.81025 
L 388.083532 113.47137 
L 388.083399 116.13249 
L 388.083259 118.79361 
L 388.083188 121.45473 
L 388.083224 124.11585 
L 388.083349 126.77697 
L 388.083493 129.43809 
L 388.08358 132.09921 
L 388.083548 135.20385 
L 388.083424 137.86497 
L 388.083279 140.52609 
L 388.083193 143.18721 
L 388.083211 145.84833 
L 388.083324 148.50945 
L 388.083471 151.17057 
L 388.083572 153.83169 
L 388.083572 156.49281 
L 388.083471 159.15393 
L 388.083324 161.81505 
L 388.083211 164.47617 
L 388.083193 167.13729 
L 388.083279 169.79841 
L 388.083424 172.45953 
L 388.083548 175.12065 
L 388.08358 178.22529 
L 388.083493 180.88641 
L 388.083349 183.54753 
L 388.083224 186.20865 
L 388.083188 188.86977 
L 388.083259 191.53089 
L 388.083399 194.19201 
L 388.083532 196.85313 
L 388.083586 199.51425 
L 388.083532 202.17537 
L 388.083399 204.83649 
L 388.083259 207.49761 
L 388.083188 210.15873 
L 388.083224 212.81985 
L 388.083348 215.48097 
L 388.083493 218.14209 
L 388.083578 220.80321 
L 388.083543 223.90785 
L 388.083411 226.56897 
L 388.083251 229.23009 
L 388.083133 231.89121 
L 388.083086 234.55233 
L 388.08307 237.21345 
L 388.082966 239.87457 
L 388.082593 242.53569 
L 388.081722 245.19681 
L 388.080063 247.85793 
L 388.077201 250.51905 
L 388.072482 253.18017 
L 388.064856 255.84129 
L 388.052699 258.50241 
L 388.033646 261.16353 
L 388.004414 263.82465 
L 387.951555 266.92929 
L 387.883587 269.59041 
L 387.786933 272.25153 
L 387.753713 272.916973 
L 387.665694 274.91265 
L 387.505795 277.57377 
L 387.290248 280.23489 
L 387.003231 282.89601 
L 386.624662 285.55713 
L 386.128711 288.21825 
" clip-path="url(#pf9c53cc7c9)" style="fill: none; stroke: #c6dbef; stroke-width: 1.5"/>
   </g>
   <g id="PathCollection_4">
    <path d="M 203.789217 288.21825 
L 203.157547 285.55713 
L 202.944113 284.408815 
L 202.667669 282.89601 
L 202.293099 280.23489 
L 202.01559 277.57377 
L 201.815713 274.91265 
L 201.678966 272.25153 
L 201.595032 269.59041 
L 201.557342 266.92929 
L 201.567893 263.82465 
L 201.624312 261.16353 
L 201.728722 258.50241 
L 201.888702 255.84129 
L 202.115422 253.18017 
L 202.423966 250.51905 
L 202.833894 247.85793 
L 202.944113 247.288325 
L 203.352124 245.19681 
L 204.013389 242.53569 
L 204.729713 240.251892 
L 204.855387 239.87457 
L 205.90298 237.21345 
L 206.515313 235.899388 
L 207.200702 234.55233 
L 208.300913 232.626398 
L 208.757487 231.89121 
L 210.122225 229.810078 
L 210.519346 229.23009 
L 211.907825 227.183075 
L 212.314751 226.56897 
L 213.693425 224.333946 
L 213.934135 223.90785 
L 215.453574 220.80321 
L 215.479025 220.741225 
L 216.40908 218.14209 
L 217.165594 215.48097 
L 217.300337 214.880314 
L 217.707358 212.81985 
L 218.102238 210.15873 
L 218.385544 207.49761 
L 218.574998 204.83649 
L 218.683456 202.17537 
L 218.718734 199.51425 
L 218.683456 196.85313 
L 218.574998 194.19201 
L 218.385544 191.53089 
L 218.102238 188.86977 
L 217.707357 186.20865 
L 217.300337 184.148191 
L 217.165593 183.54753 
L 216.409077 180.88641 
L 215.479025 178.287297 
L 215.453565 178.22529 
L 213.934111 175.12065 
L 213.693425 174.694605 
L 212.314694 172.45953 
L 211.907825 171.845532 
L 210.519227 169.79841 
L 210.122225 169.218635 
L 208.757264 167.13729 
L 208.300913 166.402557 
L 207.200312 164.47617 
L 206.515313 163.130225 
L 205.902319 161.81505 
L 204.854269 159.15393 
L 204.729713 158.780364 
L 204.0115 156.49281 
L 203.348972 153.83169 
L 202.944113 151.765804 
L 202.828435 151.17057 
L 202.414955 148.50945 
L 202.100655 145.84833 
L 201.864736 143.18721 
L 201.690286 140.52609 
L 201.563526 137.86497 
L 201.473248 135.20385 
L 201.402037 132.09921 
L 201.362079 129.43809 
L 201.335708 126.77697 
L 201.318705 124.11585 
L 201.30795 121.45473 
L 201.301245 118.79361 
L 201.297128 116.13249 
L 201.294674 113.47137 
L 201.29331 110.81025 
L 201.292657 108.14913 
L 201.292433 105.48801 
L 201.292411 102.82689 
L 201.292429 100.16577 
L 201.292418 97.50465 
L 201.292412 94.84353 
L 201.292547 92.18241 
L 201.293029 89.52129 
L 201.294383 86.41665 
L 201.296623 83.75553 
L 201.300411 81.09441 
L 201.306601 78.43329 
L 201.316552 75.77217 
L 201.332329 73.11105 
L 201.356885 70.44993 
L 201.394249 67.78881 
L 201.449701 65.12769 
L 201.529983 62.46657 
L 201.643553 59.80545 
L 201.800901 57.14433 
L 202.014967 54.48321 
L 202.301682 51.82209 
L 202.680703 49.16097 
L 202.944113 47.714989 
L 203.166947 46.49985 
L 203.899769 43.39521 
L 204.720625 40.73409 
L 204.729713 40.708984 
L 205.752766 38.07297 
L 206.515313 36.448552 
L 207.053536 35.41185 
L 208.300913 33.309446 
L 208.671237 32.75073 
L 210.122225 30.733788 
L 210.62995 30.08961 
L 211.907825 28.522422 
L 212.841939 27.42849 
L 213.693425 26.429397 
L 215.104231 24.76737 
L 215.479025 24.315497 
L 217.248477 22.10625 
" clip-path="url(#pf9c53cc7c9)" style="fill: none; stroke: #9dcae1; stroke-width: 1.5"/>
    <path d="M 382.517568 22.10625 
L 383.156844 24.76737 
L 383.644814 27.42849 
L 384.014776 30.08961 
L 384.182513 31.676144 
L 384.298697 32.75073 
L 384.516198 35.41185 
L 384.675139 38.07297 
L 384.789232 40.73409 
L 384.869464 43.39521 
L 384.931861 46.49985 
L 384.966367 49.16097 
L 384.988859 51.82209 
L 385.003208 54.48321 
L 385.012211 57.14433 
L 385.017781 59.80545 
L 385.021159 62.46657 
L 385.023118 65.12769 
L 385.024146 67.78881 
L 385.024586 70.44993 
L 385.024709 73.11105 
L 385.024728 75.77217 
L 385.024783 78.43329 
L 385.024923 81.09441 
L 385.025112 83.75553 
L 385.025267 86.41665 
L 385.025309 89.52129 
L 385.025208 92.18241 
L 385.025038 94.84353 
L 385.024891 97.50465 
L 385.024848 100.16577 
L 385.024932 102.82689 
L 385.025097 105.48801 
L 385.025255 108.14913 
L 385.025319 110.81025 
L 385.025255 113.47137 
L 385.025097 116.13249 
L 385.024932 118.79361 
L 385.024848 121.45473 
L 385.024891 124.11585 
L 385.025038 126.77697 
L 385.025209 129.43809 
L 385.025311 132.09921 
L 385.025274 135.20385 
L 385.025127 137.86497 
L 385.024956 140.52609 
L 385.024854 143.18721 
L 385.024876 145.84833 
L 385.02501 148.50945 
L 385.025183 151.17057 
L 385.025302 153.83169 
L 385.025302 156.49281 
L 385.025183 159.15393 
L 385.02501 161.81505 
L 385.024876 164.47617 
L 385.024854 167.13729 
L 385.024956 169.79841 
L 385.025127 172.45953 
L 385.025274 175.12065 
L 385.025311 178.22529 
L 385.025209 180.88641 
L 385.025038 183.54753 
L 385.024891 186.20865 
L 385.024848 188.86977 
L 385.024932 191.53089 
L 385.025097 194.19201 
L 385.025255 196.85313 
L 385.025319 199.51425 
L 385.025255 202.17537 
L 385.025097 204.83649 
L 385.024932 207.49761 
L 385.024848 210.15873 
L 385.024891 212.81985 
L 385.025038 215.48097 
L 385.025208 218.14209 
L 385.025309 220.80321 
L 385.025267 223.90785 
L 385.025112 226.56897 
L 385.024923 229.23009 
L 385.024783 231.89121 
L 385.024728 234.55233 
L 385.024709 237.21345 
L 385.024586 239.87457 
L 385.024146 242.53569 
L 385.023118 245.19681 
L 385.021159 247.85793 
L 385.017781 250.51905 
L 385.012211 253.18017 
L 385.003208 255.84129 
L 384.988859 258.50241 
L 384.966367 261.16353 
L 384.931861 263.82465 
L 384.869464 266.92929 
L 384.789232 269.59041 
L 384.675139 272.25153 
L 384.516198 274.91265 
L 384.298697 277.57377 
L 384.182513 278.648356 
L 384.014776 280.23489 
L 383.644814 282.89601 
L 383.156844 285.55713 
L 382.517568 288.21825 
" clip-path="url(#pf9c53cc7c9)" style="fill: none; stroke: #9dcae1; stroke-width: 1.5"/>
   </g>
   <g id="PathCollection_5">
    <path d="M 207.338433 288.21825 
L 206.433664 285.55713 
L 205.783495 282.89601 
L 205.2936 280.23489 
L 204.669833 274.91265 
L 204.384316 269.59041 
L 204.346784 263.82465 
L 204.548813 258.50241 
L 205.038386 253.18017 
L 205.427738 250.51905 
L 205.940842 247.85793 
L 206.6086 245.19681 
L 207.484995 242.53569 
L 208.590116 239.87457 
L 210.122225 236.964963 
L 211.907825 234.177476 
L 215.479025 228.922664 
L 217.300337 225.582428 
L 218.03613 223.90785 
L 219.138027 220.80321 
L 219.831674 218.14209 
L 220.368526 215.48097 
L 221.074476 210.15873 
L 221.424783 204.83649 
L 221.530626 199.51425 
L 221.424783 194.19201 
L 221.074476 188.86977 
L 220.776967 186.20865 
L 220.368525 183.54753 
L 219.831671 180.88641 
L 219.085937 178.061559 
L 218.036107 175.12065 
L 216.812576 172.45953 
L 215.287754 169.79841 
L 209.977307 161.81505 
L 208.300913 158.519304 
L 207.482431 156.49281 
L 206.515313 153.50437 
L 205.933862 151.17057 
L 205.416144 148.50945 
L 204.719614 143.18721 
L 204.339143 137.86497 
L 204.084099 129.43809 
L 204.001768 116.13249 
L 204.046403 73.11105 
L 204.195137 65.12769 
L 204.440502 59.80545 
L 204.911212 54.48321 
L 205.274662 51.82209 
L 205.751844 49.16097 
L 206.515313 45.998818 
L 207.347063 43.39521 
L 208.431764 40.73409 
L 210.122225 37.603573 
L 211.907825 35.005223 
L 215.971748 30.08961 
L 219.085937 26.22767 
L 222.133192 22.10625 
L 222.133192 22.10625 
" clip-path="url(#pf9c53cc7c9)" style="fill: none; stroke: #6aaed6; stroke-width: 1.5"/>
    <path d="M 378.983316 22.10625 
L 379.865077 24.76737 
L 380.53814 27.42849 
L 380.575601 27.616667 
L 381.029221 30.08961 
L 381.396873 32.75073 
L 381.66961 35.41185 
L 381.868915 38.07297 
L 382.011984 40.73409 
L 382.112591 43.39521 
L 382.190834 46.49985 
L 382.234104 49.16097 
L 382.262308 51.82209 
L 382.280301 54.48321 
L 382.29159 57.14433 
L 382.298576 59.80545 
L 382.302812 62.46657 
L 382.305267 65.12769 
L 382.306557 67.78881 
L 382.307109 70.44993 
L 382.307263 73.11105 
L 382.307287 75.77217 
L 382.307356 78.43329 
L 382.307531 81.09441 
L 382.307768 83.75553 
L 382.307962 86.41665 
L 382.308015 89.52129 
L 382.307888 92.18241 
L 382.307675 94.84353 
L 382.307491 97.50465 
L 382.307437 100.16577 
L 382.307542 102.82689 
L 382.30775 105.48801 
L 382.307947 108.14913 
L 382.308027 110.81025 
L 382.307947 113.47137 
L 382.30775 116.13249 
L 382.307542 118.79361 
L 382.307437 121.45473 
L 382.307491 124.11585 
L 382.307675 126.77697 
L 382.30789 129.43809 
L 382.308018 132.09921 
L 382.30797 135.20385 
L 382.307786 137.86497 
L 382.307572 140.52609 
L 382.307444 143.18721 
L 382.307471 145.84833 
L 382.307639 148.50945 
L 382.307857 151.17057 
L 382.308006 153.83169 
L 382.308006 156.49281 
L 382.307857 159.15393 
L 382.307639 161.81505 
L 382.307471 164.47617 
L 382.307444 167.13729 
L 382.307572 169.79841 
L 382.307786 172.45953 
L 382.30797 175.12065 
L 382.308018 178.22529 
L 382.30789 180.88641 
L 382.307675 183.54753 
L 382.307491 186.20865 
L 382.307437 188.86977 
L 382.307542 191.53089 
L 382.30775 194.19201 
L 382.307947 196.85313 
L 382.308027 199.51425 
L 382.307947 202.17537 
L 382.30775 204.83649 
L 382.307542 207.49761 
L 382.307437 210.15873 
L 382.307491 212.81985 
L 382.307675 215.48097 
L 382.307888 218.14209 
L 382.308015 220.80321 
L 382.307962 223.90785 
L 382.307768 226.56897 
L 382.307531 229.23009 
L 382.307356 231.89121 
L 382.307287 234.55233 
L 382.307263 237.21345 
L 382.307109 239.87457 
L 382.306557 242.53569 
L 382.305267 245.19681 
L 382.302812 247.85793 
L 382.298576 250.51905 
L 382.29159 253.18017 
L 382.280301 255.84129 
L 382.262308 258.50241 
L 382.234104 261.16353 
L 382.190834 263.82465 
L 382.112591 266.92929 
L 382.011984 269.59041 
L 381.868915 272.25153 
L 381.66961 274.91265 
L 381.396873 277.57377 
L 381.029221 280.23489 
L 380.575601 282.707833 
L 380.53814 282.89601 
L 379.865077 285.55713 
L 378.983316 288.21825 
" clip-path="url(#pf9c53cc7c9)" style="fill: none; stroke: #6aaed6; stroke-width: 1.5"/>
   </g>
   <g id="PathCollection_6">
    <path d="M 211.668376 288.21825 
L 210.122225 285.496268 
L 209.172326 282.89601 
L 208.300913 279.574996 
L 207.939836 277.57377 
L 207.35139 272.25153 
L 207.13441 266.92929 
L 207.2374 261.16353 
L 207.667313 255.84129 
L 208.300913 251.720809 
L 208.549778 250.51905 
L 209.254561 247.85793 
L 210.146967 245.19681 
L 211.907825 241.512118 
L 213.693425 238.633895 
L 218.236718 231.89121 
L 219.643166 229.23009 
L 220.871537 226.281342 
L 221.655783 223.90785 
L 222.657137 219.796111 
L 223.390949 215.48097 
L 223.929195 210.15873 
L 224.200197 204.83649 
L 224.281907 199.51425 
L 224.200197 194.19201 
L 223.929194 188.86977 
L 223.390948 183.54753 
L 222.657137 179.232418 
L 222.453545 178.22529 
L 221.655762 175.12065 
L 220.767955 172.45953 
L 219.085937 168.675784 
L 217.300337 165.612448 
L 211.907825 157.522244 
L 211.362471 156.49281 
L 210.122225 153.785061 
L 209.244627 151.17057 
L 208.300913 147.412189 
L 208.008458 145.84833 
L 207.341017 140.52609 
L 206.983004 135.20385 
L 206.754341 126.77697 
L 206.683541 110.81025 
L 206.748727 73.11105 
L 206.944116 65.12769 
L 207.264829 59.80545 
L 207.872279 54.48321 
L 208.338689 51.82209 
L 209.002213 49.16097 
L 210.122225 45.788421 
L 211.907825 42.105647 
L 213.693425 39.387521 
L 215.479025 37.105051 
L 219.085937 32.742175 
L 223.064946 27.42849 
L 226.264049 23.255873 
L 227.308839 22.10625 
L 227.308839 22.10625 
" clip-path="url(#pf9c53cc7c9)" style="fill: none; stroke: #4191c6; stroke-width: 1.5"/>
    <path d="M 374.619877 22.10625 
L 375.218801 22.99964 
L 376.12742 24.76737 
L 377.004401 26.934784 
L 377.168581 27.42849 
L 377.86801 30.08961 
L 378.393271 32.75073 
L 378.782928 35.41185 
L 378.790001 35.476809 
L 379.043234 38.07297 
L 379.229644 40.73409 
L 379.360729 43.39521 
L 379.462676 46.49985 
L 379.519054 49.16097 
L 379.555801 51.82209 
L 379.579246 54.48321 
L 379.593955 57.14433 
L 379.603056 59.80545 
L 379.608575 62.46657 
L 379.611775 65.12769 
L 379.613454 67.78881 
L 379.614174 70.44993 
L 379.614375 73.11105 
L 379.614406 75.77217 
L 379.614496 78.43329 
L 379.614724 81.09441 
L 379.615033 83.75553 
L 379.615286 86.41665 
L 379.615354 89.52129 
L 379.61519 92.18241 
L 379.614912 94.84353 
L 379.614672 97.50465 
L 379.614602 100.16577 
L 379.614739 102.82689 
L 379.615009 105.48801 
L 379.615266 108.14913 
L 379.61537 110.81025 
L 379.615266 113.47137 
L 379.615009 116.13249 
L 379.614739 118.79361 
L 379.614602 121.45473 
L 379.614673 124.11585 
L 379.614912 126.77697 
L 379.615191 129.43809 
L 379.615358 132.09921 
L 379.615297 135.20385 
L 379.615057 137.86497 
L 379.614778 140.52609 
L 379.614611 143.18721 
L 379.614647 145.84833 
L 379.614865 148.50945 
L 379.615149 151.17057 
L 379.615343 153.83169 
L 379.615343 156.49281 
L 379.615149 159.15393 
L 379.614865 161.81505 
L 379.614647 164.47617 
L 379.614611 167.13729 
L 379.614778 169.79841 
L 379.615057 172.45953 
L 379.615297 175.12065 
L 379.615358 178.22529 
L 379.615191 180.88641 
L 379.614912 183.54753 
L 379.614673 186.20865 
L 379.614602 188.86977 
L 379.614739 191.53089 
L 379.615009 194.19201 
L 379.615266 196.85313 
L 379.61537 199.51425 
L 379.615266 202.17537 
L 379.615009 204.83649 
L 379.614739 207.49761 
L 379.614602 210.15873 
L 379.614672 212.81985 
L 379.614912 215.48097 
L 379.61519 218.14209 
L 379.615354 220.80321 
L 379.615286 223.90785 
L 379.615033 226.56897 
L 379.614724 229.23009 
L 379.614496 231.89121 
L 379.614406 234.55233 
L 379.614375 237.21345 
L 379.614174 239.87457 
L 379.613454 242.53569 
L 379.611775 245.19681 
L 379.608575 247.85793 
L 379.603056 250.51905 
L 379.593955 253.18017 
L 379.579246 255.84129 
L 379.555801 258.50241 
L 379.519054 261.16353 
L 379.462676 263.82465 
L 379.360729 266.92929 
L 379.229644 269.59041 
L 379.043234 272.25153 
L 378.790001 274.847691 
L 378.782928 274.91265 
L 378.393271 277.57377 
L 377.86801 280.23489 
L 377.168581 282.89601 
L 377.004401 283.389716 
L 376.12742 285.55713 
L 375.218801 287.32486 
L 374.619877 288.21825 
" clip-path="url(#pf9c53cc7c9)" style="fill: none; stroke: #4191c6; stroke-width: 1.5"/>
   </g>
   <g id="PathCollection_7">
    <path d="M 224.447455 288.21825 
L 220.871537 287.482694 
L 219.085937 286.922793 
L 217.300337 286.112695 
L 216.467249 285.55713 
L 215.479025 284.762341 
L 213.693425 282.603844 
L 212.531632 280.23489 
L 211.629778 277.57377 
L 211.069439 274.91265 
L 210.683707 272.25153 
L 210.443 269.59041 
L 210.327699 266.92929 
L 210.337938 263.82465 
L 210.468657 261.16353 
L 210.717915 258.50241 
L 211.097786 255.84129 
L 211.907825 252.089466 
L 212.400163 250.51905 
L 213.693425 247.291816 
L 215.479025 244.12339 
L 220.871537 235.947098 
L 221.614451 234.55233 
L 222.834352 231.89121 
L 223.834951 229.23009 
L 224.63653 226.56897 
L 225.304409 223.90785 
L 225.900868 220.80321 
L 226.627201 215.48097 
L 227.066985 210.15873 
L 227.287455 204.83649 
L 227.337483 196.85313 
L 227.199539 191.53089 
L 226.880335 186.20865 
L 226.264049 180.709508 
L 225.90086 178.22529 
L 225.304385 175.12065 
L 224.478449 171.927527 
L 223.834821 169.79841 
L 222.657137 166.725054 
L 220.871537 163.083396 
L 219.085937 160.180315 
L 214.817836 153.83169 
L 213.415812 151.17057 
L 211.907825 147.0603 
L 211.586536 145.84833 
L 211.033959 143.18721 
L 210.30276 137.86497 
L 210.084592 135.20385 
L 209.847761 129.43809 
L 209.717312 118.79361 
L 209.707335 83.75553 
L 209.836767 70.44993 
L 210.122225 63.762989 
L 210.501919 59.80545 
L 210.885297 57.14433 
L 211.395201 54.48321 
L 212.088676 51.82209 
L 213.693425 47.825575 
L 214.410684 46.49985 
L 216.462347 43.39521 
L 224.564833 32.75073 
L 226.514126 30.08961 
L 228.771556 27.42849 
L 229.835249 26.377308 
L 231.932007 24.76737 
L 233.442161 23.96486 
L 235.227761 23.292939 
L 237.013361 22.824013 
L 241.370949 22.10625 
L 241.370949 22.10625 
" clip-path="url(#pf9c53cc7c9)" style="fill: none; stroke: #2070b4; stroke-width: 1.5"/>
    <path d="M 361.838758 22.10625 
L 362.648177 22.23597 
L 364.433777 22.592102 
L 366.219377 23.057393 
L 368.040689 23.725603 
L 369.826289 24.693304 
L 369.920984 24.76737 
L 371.611889 26.364857 
L 372.399129 27.42849 
L 373.397489 29.129 
L 373.815604 30.08961 
L 374.708337 32.75073 
L 375.218801 34.790567 
L 375.342742 35.41185 
L 375.73789 38.07297 
L 376.021542 40.73409 
L 376.221008 43.39521 
L 376.376136 46.49985 
L 376.461923 49.16097 
L 376.51784 51.82209 
L 376.553515 54.48321 
L 376.575897 57.14433 
L 376.589746 59.80545 
L 376.598144 62.46657 
L 376.603013 65.12769 
L 376.605569 67.78881 
L 376.606664 70.44993 
L 376.606969 73.11105 
L 376.607017 75.77217 
L 376.607154 78.43329 
L 376.607501 81.09441 
L 376.60797 83.75553 
L 376.608356 86.41665 
L 376.60846 89.52129 
L 376.608209 92.18241 
L 376.607786 94.84353 
L 376.607422 97.50465 
L 376.607315 100.16577 
L 376.607523 102.82689 
L 376.607934 105.48801 
L 376.608325 108.14913 
L 376.608484 110.81025 
L 376.608325 113.47137 
L 376.607934 116.13249 
L 376.607523 118.79361 
L 376.607315 121.45473 
L 376.607422 124.11585 
L 376.607787 126.77697 
L 376.608212 129.43809 
L 376.608466 132.09921 
L 376.608372 135.20385 
L 376.608007 137.86497 
L 376.607583 140.52609 
L 376.607329 143.18721 
L 376.607383 145.84833 
L 376.607716 148.50945 
L 376.608147 151.17057 
L 376.608443 153.83169 
L 376.608443 156.49281 
L 376.608147 159.15393 
L 376.607716 161.81505 
L 376.607383 164.47617 
L 376.607329 167.13729 
L 376.607583 169.79841 
L 376.608007 172.45953 
L 376.608372 175.12065 
L 376.608466 178.22529 
L 376.608212 180.88641 
L 376.607787 183.54753 
L 376.607422 186.20865 
L 376.607315 188.86977 
L 376.607523 191.53089 
L 376.607934 194.19201 
L 376.608325 196.85313 
L 376.608484 199.51425 
L 376.608325 202.17537 
L 376.607934 204.83649 
L 376.607523 207.49761 
L 376.607315 210.15873 
L 376.607422 212.81985 
L 376.607786 215.48097 
L 376.608209 218.14209 
L 376.60846 220.80321 
L 376.608356 223.90785 
L 376.60797 226.56897 
L 376.607501 229.23009 
L 376.607154 231.89121 
L 376.607017 234.55233 
L 376.606969 237.21345 
L 376.606664 239.87457 
L 376.605569 242.53569 
L 376.603013 245.19681 
L 376.598144 247.85793 
L 376.589746 250.51905 
L 376.575897 253.18017 
L 376.553515 255.84129 
L 376.51784 258.50241 
L 376.461923 261.16353 
L 376.376136 263.82465 
L 376.221008 266.92929 
L 376.021542 269.59041 
L 375.73789 272.25153 
L 375.342742 274.91265 
L 375.218801 275.533933 
L 374.708337 277.57377 
L 373.815604 280.23489 
L 373.397489 281.1955 
L 372.399129 282.89601 
L 371.611889 283.959643 
L 369.920984 285.55713 
L 369.826289 285.631196 
L 368.040689 286.598897 
L 366.219377 287.267107 
L 364.433777 287.732398 
L 362.648177 288.08853 
L 361.838758 288.21825 
" clip-path="url(#pf9c53cc7c9)" style="fill: none; stroke: #2070b4; stroke-width: 1.5"/>
   </g>
   <g id="PathCollection_8">
    <path d="M 215.411615 269.59041 
L 215.162737 266.92929 
L 215.133874 263.82465 
L 215.319192 261.16353 
L 215.479025 260.040726 
L 215.766019 258.50241 
L 216.503186 255.84129 
L 217.300337 253.631844 
L 217.498311 253.18017 
L 218.886865 250.51905 
L 219.085937 250.183721 
L 220.526102 247.85793 
L 220.871537 247.327954 
L 222.192312 245.19681 
L 222.657137 244.436951 
L 223.72733 242.53569 
L 224.478449 241.089696 
L 225.071678 239.87457 
L 226.210067 237.21345 
L 226.264049 237.073649 
L 227.236065 234.55233 
L 228.04817 231.89121 
L 228.049649 231.885667 
L 228.814483 229.23009 
L 229.410418 226.56897 
L 229.835249 224.145639 
L 229.884171 223.90785 
L 230.406052 220.80321 
L 230.741741 218.14209 
L 230.997437 215.48097 
L 231.189461 212.81985 
L 231.330358 210.15873 
L 231.429875 207.49761 
L 231.4955 204.83649 
L 231.532656 202.17537 
L 231.544666 199.51425 
L 231.532656 196.85313 
L 231.4955 194.19201 
L 231.429875 191.53089 
L 231.330358 188.86977 
L 231.18946 186.20865 
L 230.997435 183.54753 
L 230.741735 180.88641 
L 230.406038 178.22529 
L 229.884129 175.12065 
L 229.835249 174.883087 
L 229.410338 172.45953 
L 228.814289 169.79841 
L 228.049649 167.144276 
L 228.047785 167.13729 
L 227.235156 164.47617 
L 226.264049 161.959516 
L 226.208215 161.81505 
L 225.067434 159.15393 
L 224.478449 157.951155 
L 223.718628 156.49281 
L 222.657137 154.616581 
L 222.174579 153.83169 
L 220.871537 151.747681 
L 220.492095 151.17057 
L 219.085937 148.935448 
L 218.829084 148.50945 
L 217.390684 145.84833 
L 217.300337 145.654601 
L 216.354255 143.18721 
L 215.513579 140.52609 
L 215.479025 140.38489 
L 215.009832 137.86497 
L 214.642849 135.20385 
L 214.344643 132.09921 
L 214.173901 129.43809 
L 214.059884 126.77697 
L 213.985789 124.11585 
L 213.938621 121.45473 
L 213.909012 118.79361 
L 213.890685 116.13249 
L 213.879693 113.47137 
L 213.873601 110.81025 
L 213.870773 108.14913 
L 213.869928 105.48801 
L 213.869986 102.82689 
L 213.870147 100.16577 
L 213.870056 97.50465 
L 213.869894 94.84353 
L 213.87033 92.18241 
L 213.872366 89.52129 
L 213.878395 86.41665 
L 213.888439 83.75553 
L 213.90534 81.09441 
L 213.932747 78.43329 
L 213.976512 75.77217 
L 214.045487 73.11105 
L 214.152118 70.44993 
L 214.312731 67.78881 
L 214.54741 65.12769 
L 214.87937 62.46657 
L 215.333702 59.80545 
L 215.479025 59.167428 
L 216.078074 57.14433 
L 217.058954 54.48321 
L 217.300337 53.949068 
L 218.447573 51.82209 
L 219.085937 50.786498 
L 220.158161 49.16097 
L 220.871537 48.169537 
L 222.040675 46.49985 
L 222.657137 45.673392 
L 224.213845 43.39521 
L 224.478449 43.021064 
L 226.027304 40.73409 
L 226.264049 40.391223 
L 227.883899 38.07297 
L 228.049649 37.844077 
L 229.835249 35.595358 
L 230.00697 35.41185 
L 231.656561 33.809695 
L 233.025569 32.75073 
L 233.442161 32.46776 
L 235.227761 31.605917 
L 237.013361 30.985391 
L 238.834673 30.501393 
L 240.616247 30.08961 
L 240.620273 30.088843 
L 242.405873 29.771158 
L 244.191473 29.479249 
L 246.012785 29.242673 
L 247.798385 29.108582 
L 249.583985 29.090455 
L 251.369585 29.175991 
L 253.190897 29.324917 
L 254.976497 29.468535 
L 256.762097 29.550662 
L 258.547697 29.5376 
L 260.369009 29.430731 
L 262.154609 29.275068 
L 263.940209 29.128843 
L 265.725809 29.047391 
L 267.547121 29.062542 
L 269.332721 29.168027 
L 271.118321 29.323425 
L 272.903921 29.469622 
L 274.725233 29.551015 
L 276.510833 29.532909 
L 278.296433 29.424766 
L 280.082033 29.268481 
L 281.903345 29.121614 
L 283.688945 29.045382 
L 285.474545 29.065198 
L 287.260145 29.173638 
L 289.081457 29.333077 
L 290.867057 29.476782 
L 292.652657 29.552237 
L 294.438257 29.530132 
L 296.259569 29.416193 
L 298.045169 29.258861 
L 299.830769 29.116974 
L 301.616369 29.044257 
L 303.437681 29.069469 
L 305.223281 29.182206 
L 307.008881 29.339488 
L 308.794481 29.481415 
L 310.615793 29.553769 
L 312.401393 29.525691 
L 314.186993 29.410384 
L 315.972593 29.252479 
L 317.793905 29.11023 
L 319.579505 29.042869 
L 321.365105 29.072497 
L 323.150705 29.188011 
L 324.972017 29.349055 
L 326.757617 29.488147 
L 328.543217 29.554587 
L 330.328817 29.52255 
L 332.150129 29.401541 
L 333.935729 29.242967 
L 335.721329 29.105891 
L 337.506929 29.04217 
L 339.328241 29.077374 
L 341.113841 29.197023 
L 342.899441 29.355811 
L 344.685041 29.493457 
L 346.506353 29.557732 
L 348.291953 29.522409 
L 350.077553 29.405729 
L 351.863153 29.257348 
L 353.684465 29.140942 
L 355.470065 29.120566 
L 357.255665 29.228178 
L 359.041265 29.469811 
L 360.862577 29.839392 
L 361.819887 30.08961 
L 362.648177 30.359808 
L 364.433777 31.084764 
L 366.219377 32.031927 
L 367.189006 32.75073 
L 368.040689 33.568825 
L 369.358328 35.41185 
L 369.826289 36.290391 
L 370.488335 38.07297 
L 371.202021 40.73409 
L 371.611889 42.903678 
L 371.679576 43.39521 
L 371.966733 46.49985 
L 372.125536 49.16097 
L 372.229043 51.82209 
L 372.295081 54.48321 
L 372.336512 57.14433 
L 372.362148 59.80545 
L 372.377695 62.46657 
L 372.386708 65.12769 
L 372.391439 67.78881 
L 372.393466 70.44993 
L 372.394031 73.11105 
L 372.394119 75.77217 
L 372.394372 78.43329 
L 372.395015 81.09441 
L 372.395884 83.75553 
L 372.396598 86.41665 
L 372.39679 89.52129 
L 372.396326 92.18241 
L 372.395543 94.84353 
L 372.394869 97.50465 
L 372.394671 100.16577 
L 372.395056 102.82689 
L 372.395817 105.48801 
L 372.396541 108.14913 
L 372.396835 110.81025 
L 372.396541 113.47137 
L 372.395817 116.13249 
L 372.395056 118.79361 
L 372.394671 121.45473 
L 372.39487 124.11585 
L 372.395545 126.77697 
L 372.396331 129.43809 
L 372.396801 132.09921 
L 372.396628 135.20385 
L 372.395953 137.86497 
L 372.395167 140.52609 
L 372.394696 143.18721 
L 372.394797 145.84833 
L 372.395413 148.50945 
L 372.396212 151.17057 
L 372.396759 153.83169 
L 372.396759 156.49281 
L 372.396212 159.15393 
L 372.395413 161.81505 
L 372.394797 164.47617 
L 372.394696 167.13729 
L 372.395167 169.79841 
L 372.395953 172.45953 
L 372.396628 175.12065 
L 372.396801 178.22529 
L 372.396331 180.88641 
L 372.395545 183.54753 
L 372.39487 186.20865 
L 372.394671 188.86977 
L 372.395056 191.53089 
L 372.395817 194.19201 
L 372.396541 196.85313 
L 372.396835 199.51425 
L 372.396541 202.17537 
L 372.395817 204.83649 
L 372.395056 207.49761 
L 372.394671 210.15873 
L 372.394869 212.81985 
L 372.395543 215.48097 
L 372.396326 218.14209 
L 372.39679 220.80321 
L 372.396598 223.90785 
L 372.395884 226.56897 
L 372.395015 229.23009 
L 372.394372 231.89121 
L 372.394119 234.55233 
L 372.394031 237.21345 
L 372.393466 239.87457 
L 372.391439 242.53569 
L 372.386708 245.19681 
L 372.377695 247.85793 
L 372.362148 250.51905 
L 372.336512 253.18017 
L 372.295081 255.84129 
L 372.229043 258.50241 
L 372.125536 261.16353 
L 371.966733 263.82465 
L 371.679576 266.92929 
L 371.611889 267.420822 
L 371.202021 269.59041 
L 370.488335 272.25153 
L 369.826289 274.034109 
L 369.358328 274.91265 
L 368.040689 276.755675 
L 367.189006 277.57377 
L 366.219377 278.292573 
L 364.433777 279.239736 
L 362.648177 279.964692 
L 361.819887 280.23489 
L 360.862577 280.485108 
L 359.041265 280.854689 
L 357.255665 281.096322 
L 355.470065 281.203934 
L 353.684465 281.183558 
L 351.863153 281.067152 
L 350.077553 280.918771 
L 348.291953 280.802091 
L 346.506353 280.766768 
L 344.685041 280.831043 
L 342.899441 280.968689 
L 341.113841 281.127477 
L 339.328241 281.247126 
L 337.506929 281.28233 
L 335.721329 281.218609 
L 333.935729 281.081533 
L 332.150129 280.922959 
L 330.328817 280.80195 
L 328.543217 280.769913 
L 326.757617 280.836353 
L 324.972017 280.975445 
L 323.150705 281.136489 
L 321.365105 281.252003 
L 319.579505 281.281631 
L 317.793905 281.21427 
L 315.972593 281.072021 
L 314.186993 280.914116 
L 312.401393 280.798809 
L 310.615793 280.770731 
L 308.794481 280.843085 
L 307.008881 280.985012 
L 305.223281 281.142294 
L 303.437681 281.255031 
L 301.616369 281.280243 
L 299.830769 281.207526 
L 298.045169 281.065639 
L 296.259569 280.908307 
L 294.438257 280.794368 
L 292.652657 280.772263 
L 290.867057 280.847718 
L 289.081457 280.991423 
L 287.260145 281.150862 
L 285.474545 281.259302 
L 283.688945 281.279118 
L 281.903345 281.202886 
L 280.082033 281.056019 
L 278.296433 280.899734 
L 276.510833 280.791592 
L 274.725233 280.773485 
L 272.903921 280.854879 
L 271.118321 281.001077 
L 269.332721 281.156477 
L 267.547121 281.261967 
L 265.725809 281.277133 
L 263.940209 281.195717 
L 262.154609 281.04958 
L 260.369009 280.894116 
L 258.547697 280.787704 
L 256.762097 280.775616 
L 254.976497 280.859779 
L 253.190897 281.007514 
L 251.369585 281.164703 
L 249.583985 281.265607 
L 247.798385 281.275452 
L 246.012785 281.190474 
L 244.191473 281.039212 
L 242.405873 280.884471 
L 240.620273 280.782572 
L 238.834673 280.771916 
L 237.013361 280.857001 
L 235.227761 280.997657 
L 233.442161 281.133526 
L 231.656561 281.200297 
L 229.835249 281.148253 
L 228.049649 280.960004 
L 226.264049 280.64274 
L 224.56555 280.23489 
L 224.478449 280.208633 
L 222.657137 279.52324 
L 220.871537 278.664818 
L 219.202055 277.57377 
L 219.085937 277.473522 
L 217.300337 275.269572 
L 217.101696 274.91265 
L 216.052248 272.25153 
L 215.479025 269.967028 
L 215.411615 269.59041 
z
" clip-path="url(#pf9c53cc7c9)" style="fill: none; stroke: #08509b; stroke-width: 1.5"/>
   </g>
   <g id="PathCollection_9"/>
   <g id="patch_3">
    <path d="M 34.240625 288.21825 
L 34.240625 22.10625 
" style="fill: none; stroke: #000000; stroke-width: 0.8; stroke-linejoin: miter; stroke-linecap: square"/>
   </g>
   <g id="patch_4">
    <path d="M 391.360625 288.21825 
L 391.360625 22.10625 
" style="fill: none; stroke: #000000; stroke-width: 0.8; stroke-linejoin: miter; stroke-linecap: square"/>
   </g>
   <g id="patch_5">
    <path d="M 34.240625 288.21825 
L 391.360625 288.21825 
" style="fill: none; stroke: #000000; stroke-width: 0.8; stroke-linejoin: miter; stroke-linecap: square"/>
   </g>
   <g id="patch_6">
    <path d="M 34.240625 22.10625 
L 391.360625 22.10625 
" style="fill: none; stroke: #000000; stroke-width: 0.8; stroke-linejoin: miter; stroke-linecap: square"/>
   </g>
   <g id="text_16">
    <!-- 8.4_cross_-37.0 -->
    <g transform="translate(166.181563 16.10625)scale(0.12 -0.12)">
     <defs>
      <path id="DejaVuSans-2e" d="M 684 794 
L 1344 794 
L 1344 0 
L 684 0 
L 684 794 
z
" transform="scale(0.015625)"/>
      <path id="DejaVuSans-5f" d="M 3263 -1063 
L 3263 -1509 
L -63 -1509 
L -63 -1063 
L 3263 -1063 
z
" transform="scale(0.015625)"/>
      <path id="DejaVuSans-63" d="M 3122 3366 
L 3122 2828 
Q 2878 2963 2633 3030 
Q 2388 3097 2138 3097 
Q 1578 3097 1268 2742 
Q 959 2388 959 1747 
Q 959 1106 1268 751 
Q 1578 397 2138 397 
Q 2388 397 2633 464 
Q 2878 531 3122 666 
L 3122 134 
Q 2881 22 2623 -34 
Q 2366 -91 2075 -91 
Q 1284 -91 818 406 
Q 353 903 353 1747 
Q 353 2603 823 3093 
Q 1294 3584 2113 3584 
Q 2378 3584 2631 3529 
Q 2884 3475 3122 3366 
z
" transform="scale(0.015625)"/>
      <path id="DejaVuSans-72" d="M 2631 2963 
Q 2534 3019 2420 3045 
Q 2306 3072 2169 3072 
Q 1681 3072 1420 2755 
Q 1159 2438 1159 1844 
L 1159 0 
L 581 0 
L 581 3500 
L 1159 3500 
L 1159 2956 
Q 1341 3275 1631 3429 
Q 1922 3584 2338 3584 
Q 2397 3584 2469 3576 
Q 2541 3569 2628 3553 
L 2631 2963 
z
" transform="scale(0.015625)"/>
      <path id="DejaVuSans-73" d="M 2834 3397 
L 2834 2853 
Q 2591 2978 2328 3040 
Q 2066 3103 1784 3103 
Q 1356 3103 1142 2972 
Q 928 2841 928 2578 
Q 928 2378 1081 2264 
Q 1234 2150 1697 2047 
L 1894 2003 
Q 2506 1872 2764 1633 
Q 3022 1394 3022 966 
Q 3022 478 2636 193 
Q 2250 -91 1575 -91 
Q 1294 -91 989 -36 
Q 684 19 347 128 
L 347 722 
Q 666 556 975 473 
Q 1284 391 1588 391 
Q 1994 391 2212 530 
Q 2431 669 2431 922 
Q 2431 1156 2273 1281 
Q 2116 1406 1581 1522 
L 1381 1569 
Q 847 1681 609 1914 
Q 372 2147 372 2553 
Q 372 3047 722 3315 
Q 1072 3584 1716 3584 
Q 2034 3584 2315 3537 
Q 2597 3491 2834 3397 
z
" transform="scale(0.015625)"/>
      <path id="DejaVuSans-2d" d="M 313 2009 
L 1997 2009 
L 1997 1497 
L 313 1497 
L 313 2009 
z
" transform="scale(0.015625)"/>
      <path id="DejaVuSans-37" d="M 525 4666 
L 3525 4666 
L 3525 4397 
L 1831 0 
L 1172 0 
L 2766 4134 
L 525 4134 
L 525 4666 
z
" transform="scale(0.015625)"/>
     </defs>
     <use xlink:href="#DejaVuSans-38"/>
     <use xlink:href="#DejaVuSans-2e" x="63.623047"/>
     <use xlink:href="#DejaVuSans-34" x="95.410156"/>
     <use xlink:href="#DejaVuSans-5f" x="159.033203"/>
     <use xlink:href="#DejaVuSans-63" x="209.033203"/>
     <use xlink:href="#DejaVuSans-72" x="264.013672"/>
     <use xlink:href="#DejaVuSans-6f" x="302.876953"/>
     <use xlink:href="#DejaVuSans-73" x="364.058594"/>
     <use xlink:href="#DejaVuSans-73" x="416.158203"/>
     <use xlink:href="#DejaVuSans-5f" x="468.257812"/>
     <use xlink:href="#DejaVuSans-2d" x="518.257812"/>
     <use xlink:href="#DejaVuSans-33" x="554.341797"/>
     <use xlink:href="#DejaVuSans-37" x="617.964844"/>
     <use xlink:href="#DejaVuSans-2e" x="681.587891"/>
     <use xlink:href="#DejaVuSans-30" x="713.375"/>
    </g>
   </g>
  </g>
 </g>
 <defs>
  <clipPath id="pf9c53cc7c9">
   <rect x="34.240625" y="22.10625" width="357.12" height="266.112"/>
  </clipPath>
 </defs>
</svg>
