<?xml version="1.0" encoding="utf-8" standalone="no"?>
<!DOCTYPE svg PUBLIC "-//W3C//DTD SVG 1.1//EN"
  "http://www.w3.org/Graphics/SVG/1.1/DTD/svg11.dtd">
<svg xmlns:xlink="http://www.w3.org/1999/xlink" width="408.104375pt" height="325.7745pt" viewBox="0 0 408.104375 325.7745" xmlns="http://www.w3.org/2000/svg" version="1.1">
 <metadata>
  <rdf:RDF xmlns:dc="http://purl.org/dc/elements/1.1/" xmlns:cc="http://creativecommons.org/ns#" xmlns:rdf="http://www.w3.org/1999/02/22-rdf-syntax-ns#">
   <cc:Work>
    <dc:type rdf:resource="http://purl.org/dc/dcmitype/StillImage"/>
    <dc:date>2024-07-12T12:16:51.401553</dc:date>
    <dc:format>image/svg+xml</dc:format>
    <dc:creator>
     <cc:Agent>
      <dc:title>Matplotlib v3.5.3, https://matplotlib.org/</dc:title>
     </cc:Agent>
    </dc:creator>
   </cc:Work>
  </rdf:RDF>
 </metadata>
 <defs>
  <style type="text/css">*{stroke-linejoin: round; stroke-linecap: butt}</style>
 </defs>
 <g id="figure_1">
  <g id="patch_1">
   <path d="M 0 325.7745 
L 408.104375 325.7745 
L 408.104375 0 
L 0 0 
z
" style="fill: #ffffff"/>
  </g>
  <g id="axes_1">
   <g id="patch_2">
    <path d="M 34.240625 288.21825 
L 391.360625 288.21825 
L 391.360625 22.10625 
L 34.240625 22.10625 
z
" style="fill: #ffffff"/>
   </g>
   <g id="matplotlib.axis_1">
    <g id="xtick_1">
     <g id="line2d_1">
      <defs>
       <path id="mb054e09920" d="M 0 0 
L 0 3.5 
" style="stroke: #000000; stroke-width: 0.8"/>
      </defs>
      <g>
       <use xlink:href="#mb054e09920" x="34.240625" y="288.21825" style="stroke: #000000; stroke-width: 0.8"/>
      </g>
     </g>
     <g id="text_1">
      <!-- 0 -->
      <g transform="translate(31.059375 302.816687)scale(0.1 -0.1)">
       <defs>
        <path id="DejaVuSans-30" d="M 2034 4250 
Q 1547 4250 1301 3770 
Q 1056 3291 1056 2328 
Q 1056 1369 1301 889 
Q 1547 409 2034 409 
Q 2525 409 2770 889 
Q 3016 1369 3016 2328 
Q 3016 3291 2770 3770 
Q 2525 4250 2034 4250 
z
M 2034 4750 
Q 2819 4750 3233 4129 
Q 3647 3509 3647 2328 
Q 3647 1150 3233 529 
Q 2819 -91 2034 -91 
Q 1250 -91 836 529 
Q 422 1150 422 2328 
Q 422 3509 836 4129 
Q 1250 4750 2034 4750 
z
" transform="scale(0.015625)"/>
       </defs>
       <use xlink:href="#DejaVuSans-30"/>
      </g>
     </g>
    </g>
    <g id="xtick_2">
     <g id="line2d_2">
      <g>
       <use xlink:href="#mb054e09920" x="105.664625" y="288.21825" style="stroke: #000000; stroke-width: 0.8"/>
      </g>
     </g>
     <g id="text_2">
      <!-- 20 -->
      <g transform="translate(99.302125 302.816687)scale(0.1 -0.1)">
       <defs>
        <path id="DejaVuSans-32" d="M 1228 531 
L 3431 531 
L 3431 0 
L 469 0 
L 469 531 
Q 828 903 1448 1529 
Q 2069 2156 2228 2338 
Q 2531 2678 2651 2914 
Q 2772 3150 2772 3378 
Q 2772 3750 2511 3984 
Q 2250 4219 1831 4219 
Q 1534 4219 1204 4116 
Q 875 4013 500 3803 
L 500 4441 
Q 881 4594 1212 4672 
Q 1544 4750 1819 4750 
Q 2544 4750 2975 4387 
Q 3406 4025 3406 3419 
Q 3406 3131 3298 2873 
Q 3191 2616 2906 2266 
Q 2828 2175 2409 1742 
Q 1991 1309 1228 531 
z
" transform="scale(0.015625)"/>
       </defs>
       <use xlink:href="#DejaVuSans-32"/>
       <use xlink:href="#DejaVuSans-30" x="63.623047"/>
      </g>
     </g>
    </g>
    <g id="xtick_3">
     <g id="line2d_3">
      <g>
       <use xlink:href="#mb054e09920" x="177.088625" y="288.21825" style="stroke: #000000; stroke-width: 0.8"/>
      </g>
     </g>
     <g id="text_3">
      <!-- 40 -->
      <g transform="translate(170.726125 302.816687)scale(0.1 -0.1)">
       <defs>
        <path id="DejaVuSans-34" d="M 2419 4116 
L 825 1625 
L 2419 1625 
L 2419 4116 
z
M 2253 4666 
L 3047 4666 
L 3047 1625 
L 3713 1625 
L 3713 1100 
L 3047 1100 
L 3047 0 
L 2419 0 
L 2419 1100 
L 313 1100 
L 313 1709 
L 2253 4666 
z
" transform="scale(0.015625)"/>
       </defs>
       <use xlink:href="#DejaVuSans-34"/>
       <use xlink:href="#DejaVuSans-30" x="63.623047"/>
      </g>
     </g>
    </g>
    <g id="xtick_4">
     <g id="line2d_4">
      <g>
       <use xlink:href="#mb054e09920" x="248.512625" y="288.21825" style="stroke: #000000; stroke-width: 0.8"/>
      </g>
     </g>
     <g id="text_4">
      <!-- 60 -->
      <g transform="translate(242.150125 302.816687)scale(0.1 -0.1)">
       <defs>
        <path id="DejaVuSans-36" d="M 2113 2584 
Q 1688 2584 1439 2293 
Q 1191 2003 1191 1497 
Q 1191 994 1439 701 
Q 1688 409 2113 409 
Q 2538 409 2786 701 
Q 3034 994 3034 1497 
Q 3034 2003 2786 2293 
Q 2538 2584 2113 2584 
z
M 3366 4563 
L 3366 3988 
Q 3128 4100 2886 4159 
Q 2644 4219 2406 4219 
Q 1781 4219 1451 3797 
Q 1122 3375 1075 2522 
Q 1259 2794 1537 2939 
Q 1816 3084 2150 3084 
Q 2853 3084 3261 2657 
Q 3669 2231 3669 1497 
Q 3669 778 3244 343 
Q 2819 -91 2113 -91 
Q 1303 -91 875 529 
Q 447 1150 447 2328 
Q 447 3434 972 4092 
Q 1497 4750 2381 4750 
Q 2619 4750 2861 4703 
Q 3103 4656 3366 4563 
z
" transform="scale(0.015625)"/>
       </defs>
       <use xlink:href="#DejaVuSans-36"/>
       <use xlink:href="#DejaVuSans-30" x="63.623047"/>
      </g>
     </g>
    </g>
    <g id="xtick_5">
     <g id="line2d_5">
      <g>
       <use xlink:href="#mb054e09920" x="319.936625" y="288.21825" style="stroke: #000000; stroke-width: 0.8"/>
      </g>
     </g>
     <g id="text_5">
      <!-- 80 -->
      <g transform="translate(313.574125 302.816687)scale(0.1 -0.1)">
       <defs>
        <path id="DejaVuSans-38" d="M 2034 2216 
Q 1584 2216 1326 1975 
Q 1069 1734 1069 1313 
Q 1069 891 1326 650 
Q 1584 409 2034 409 
Q 2484 409 2743 651 
Q 3003 894 3003 1313 
Q 3003 1734 2745 1975 
Q 2488 2216 2034 2216 
z
M 1403 2484 
Q 997 2584 770 2862 
Q 544 3141 544 3541 
Q 544 4100 942 4425 
Q 1341 4750 2034 4750 
Q 2731 4750 3128 4425 
Q 3525 4100 3525 3541 
Q 3525 3141 3298 2862 
Q 3072 2584 2669 2484 
Q 3125 2378 3379 2068 
Q 3634 1759 3634 1313 
Q 3634 634 3220 271 
Q 2806 -91 2034 -91 
Q 1263 -91 848 271 
Q 434 634 434 1313 
Q 434 1759 690 2068 
Q 947 2378 1403 2484 
z
M 1172 3481 
Q 1172 3119 1398 2916 
Q 1625 2713 2034 2713 
Q 2441 2713 2670 2916 
Q 2900 3119 2900 3481 
Q 2900 3844 2670 4047 
Q 2441 4250 2034 4250 
Q 1625 4250 1398 4047 
Q 1172 3844 1172 3481 
z
" transform="scale(0.015625)"/>
       </defs>
       <use xlink:href="#DejaVuSans-38"/>
       <use xlink:href="#DejaVuSans-30" x="63.623047"/>
      </g>
     </g>
    </g>
    <g id="xtick_6">
     <g id="line2d_6">
      <g>
       <use xlink:href="#mb054e09920" x="391.360625" y="288.21825" style="stroke: #000000; stroke-width: 0.8"/>
      </g>
     </g>
     <g id="text_6">
      <!-- 100 -->
      <g transform="translate(381.816875 302.816687)scale(0.1 -0.1)">
       <defs>
        <path id="DejaVuSans-31" d="M 794 531 
L 1825 531 
L 1825 4091 
L 703 3866 
L 703 4441 
L 1819 4666 
L 2450 4666 
L 2450 531 
L 3481 531 
L 3481 0 
L 794 0 
L 794 531 
z
" transform="scale(0.015625)"/>
       </defs>
       <use xlink:href="#DejaVuSans-31"/>
       <use xlink:href="#DejaVuSans-30" x="63.623047"/>
       <use xlink:href="#DejaVuSans-30" x="127.246094"/>
      </g>
     </g>
    </g>
    <g id="text_7">
     <!-- axialRotation -->
     <g transform="translate(180.024844 316.494812)scale(0.1 -0.1)">
      <defs>
       <path id="DejaVuSans-61" d="M 2194 1759 
Q 1497 1759 1228 1600 
Q 959 1441 959 1056 
Q 959 750 1161 570 
Q 1363 391 1709 391 
Q 2188 391 2477 730 
Q 2766 1069 2766 1631 
L 2766 1759 
L 2194 1759 
z
M 3341 1997 
L 3341 0 
L 2766 0 
L 2766 531 
Q 2569 213 2275 61 
Q 1981 -91 1556 -91 
Q 1019 -91 701 211 
Q 384 513 384 1019 
Q 384 1609 779 1909 
Q 1175 2209 1959 2209 
L 2766 2209 
L 2766 2266 
Q 2766 2663 2505 2880 
Q 2244 3097 1772 3097 
Q 1472 3097 1187 3025 
Q 903 2953 641 2809 
L 641 3341 
Q 956 3463 1253 3523 
Q 1550 3584 1831 3584 
Q 2591 3584 2966 3190 
Q 3341 2797 3341 1997 
z
" transform="scale(0.015625)"/>
       <path id="DejaVuSans-78" d="M 3513 3500 
L 2247 1797 
L 3578 0 
L 2900 0 
L 1881 1375 
L 863 0 
L 184 0 
L 1544 1831 
L 300 3500 
L 978 3500 
L 1906 2253 
L 2834 3500 
L 3513 3500 
z
" transform="scale(0.015625)"/>
       <path id="DejaVuSans-69" d="M 603 3500 
L 1178 3500 
L 1178 0 
L 603 0 
L 603 3500 
z
M 603 4863 
L 1178 4863 
L 1178 4134 
L 603 4134 
L 603 4863 
z
" transform="scale(0.015625)"/>
       <path id="DejaVuSans-6c" d="M 603 4863 
L 1178 4863 
L 1178 0 
L 603 0 
L 603 4863 
z
" transform="scale(0.015625)"/>
       <path id="DejaVuSans-52" d="M 2841 2188 
Q 3044 2119 3236 1894 
Q 3428 1669 3622 1275 
L 4263 0 
L 3584 0 
L 2988 1197 
Q 2756 1666 2539 1819 
Q 2322 1972 1947 1972 
L 1259 1972 
L 1259 0 
L 628 0 
L 628 4666 
L 2053 4666 
Q 2853 4666 3247 4331 
Q 3641 3997 3641 3322 
Q 3641 2881 3436 2590 
Q 3231 2300 2841 2188 
z
M 1259 4147 
L 1259 2491 
L 2053 2491 
Q 2509 2491 2742 2702 
Q 2975 2913 2975 3322 
Q 2975 3731 2742 3939 
Q 2509 4147 2053 4147 
L 1259 4147 
z
" transform="scale(0.015625)"/>
       <path id="DejaVuSans-6f" d="M 1959 3097 
Q 1497 3097 1228 2736 
Q 959 2375 959 1747 
Q 959 1119 1226 758 
Q 1494 397 1959 397 
Q 2419 397 2687 759 
Q 2956 1122 2956 1747 
Q 2956 2369 2687 2733 
Q 2419 3097 1959 3097 
z
M 1959 3584 
Q 2709 3584 3137 3096 
Q 3566 2609 3566 1747 
Q 3566 888 3137 398 
Q 2709 -91 1959 -91 
Q 1206 -91 779 398 
Q 353 888 353 1747 
Q 353 2609 779 3096 
Q 1206 3584 1959 3584 
z
" transform="scale(0.015625)"/>
       <path id="DejaVuSans-74" d="M 1172 4494 
L 1172 3500 
L 2356 3500 
L 2356 3053 
L 1172 3053 
L 1172 1153 
Q 1172 725 1289 603 
Q 1406 481 1766 481 
L 2356 481 
L 2356 0 
L 1766 0 
Q 1100 0 847 248 
Q 594 497 594 1153 
L 594 3053 
L 172 3053 
L 172 3500 
L 594 3500 
L 594 4494 
L 1172 4494 
z
" transform="scale(0.015625)"/>
       <path id="DejaVuSans-6e" d="M 3513 2113 
L 3513 0 
L 2938 0 
L 2938 2094 
Q 2938 2591 2744 2837 
Q 2550 3084 2163 3084 
Q 1697 3084 1428 2787 
Q 1159 2491 1159 1978 
L 1159 0 
L 581 0 
L 581 3500 
L 1159 3500 
L 1159 2956 
Q 1366 3272 1645 3428 
Q 1925 3584 2291 3584 
Q 2894 3584 3203 3211 
Q 3513 2838 3513 2113 
z
" transform="scale(0.015625)"/>
      </defs>
      <use xlink:href="#DejaVuSans-61"/>
      <use xlink:href="#DejaVuSans-78" x="61.279297"/>
      <use xlink:href="#DejaVuSans-69" x="120.458984"/>
      <use xlink:href="#DejaVuSans-61" x="148.242188"/>
      <use xlink:href="#DejaVuSans-6c" x="209.521484"/>
      <use xlink:href="#DejaVuSans-52" x="237.304688"/>
      <use xlink:href="#DejaVuSans-6f" x="302.287109"/>
      <use xlink:href="#DejaVuSans-74" x="363.46875"/>
      <use xlink:href="#DejaVuSans-61" x="402.677734"/>
      <use xlink:href="#DejaVuSans-74" x="463.957031"/>
      <use xlink:href="#DejaVuSans-69" x="503.166016"/>
      <use xlink:href="#DejaVuSans-6f" x="530.949219"/>
      <use xlink:href="#DejaVuSans-6e" x="592.130859"/>
     </g>
    </g>
   </g>
   <g id="matplotlib.axis_2">
    <g id="ytick_1">
     <g id="line2d_7">
      <defs>
       <path id="m048c2b506d" d="M 0 0 
L -3.5 0 
" style="stroke: #000000; stroke-width: 0.8"/>
      </defs>
      <g>
       <use xlink:href="#m048c2b506d" x="34.240625" y="288.21825" style="stroke: #000000; stroke-width: 0.8"/>
      </g>
     </g>
     <g id="text_8">
      <!-- 0 -->
      <g transform="translate(20.878125 292.017469)scale(0.1 -0.1)">
       <use xlink:href="#DejaVuSans-30"/>
      </g>
     </g>
    </g>
    <g id="ytick_2">
     <g id="line2d_8">
      <g>
       <use xlink:href="#m048c2b506d" x="34.240625" y="243.86625" style="stroke: #000000; stroke-width: 0.8"/>
      </g>
     </g>
     <g id="text_9">
      <!-- 1 -->
      <g transform="translate(20.878125 247.665469)scale(0.1 -0.1)">
       <use xlink:href="#DejaVuSans-31"/>
      </g>
     </g>
    </g>
    <g id="ytick_3">
     <g id="line2d_9">
      <g>
       <use xlink:href="#m048c2b506d" x="34.240625" y="199.51425" style="stroke: #000000; stroke-width: 0.8"/>
      </g>
     </g>
     <g id="text_10">
      <!-- 2 -->
      <g transform="translate(20.878125 203.313469)scale(0.1 -0.1)">
       <use xlink:href="#DejaVuSans-32"/>
      </g>
     </g>
    </g>
    <g id="ytick_4">
     <g id="line2d_10">
      <g>
       <use xlink:href="#m048c2b506d" x="34.240625" y="155.16225" style="stroke: #000000; stroke-width: 0.8"/>
      </g>
     </g>
     <g id="text_11">
      <!-- 3 -->
      <g transform="translate(20.878125 158.961469)scale(0.1 -0.1)">
       <defs>
        <path id="DejaVuSans-33" d="M 2597 2516 
Q 3050 2419 3304 2112 
Q 3559 1806 3559 1356 
Q 3559 666 3084 287 
Q 2609 -91 1734 -91 
Q 1441 -91 1130 -33 
Q 819 25 488 141 
L 488 750 
Q 750 597 1062 519 
Q 1375 441 1716 441 
Q 2309 441 2620 675 
Q 2931 909 2931 1356 
Q 2931 1769 2642 2001 
Q 2353 2234 1838 2234 
L 1294 2234 
L 1294 2753 
L 1863 2753 
Q 2328 2753 2575 2939 
Q 2822 3125 2822 3475 
Q 2822 3834 2567 4026 
Q 2313 4219 1838 4219 
Q 1578 4219 1281 4162 
Q 984 4106 628 3988 
L 628 4550 
Q 988 4650 1302 4700 
Q 1616 4750 1894 4750 
Q 2613 4750 3031 4423 
Q 3450 4097 3450 3541 
Q 3450 3153 3228 2886 
Q 3006 2619 2597 2516 
z
" transform="scale(0.015625)"/>
       </defs>
       <use xlink:href="#DejaVuSans-33"/>
      </g>
     </g>
    </g>
    <g id="ytick_5">
     <g id="line2d_11">
      <g>
       <use xlink:href="#m048c2b506d" x="34.240625" y="110.81025" style="stroke: #000000; stroke-width: 0.8"/>
      </g>
     </g>
     <g id="text_12">
      <!-- 4 -->
      <g transform="translate(20.878125 114.609469)scale(0.1 -0.1)">
       <use xlink:href="#DejaVuSans-34"/>
      </g>
     </g>
    </g>
    <g id="ytick_6">
     <g id="line2d_12">
      <g>
       <use xlink:href="#m048c2b506d" x="34.240625" y="66.45825" style="stroke: #000000; stroke-width: 0.8"/>
      </g>
     </g>
     <g id="text_13">
      <!-- 5 -->
      <g transform="translate(20.878125 70.257469)scale(0.1 -0.1)">
       <defs>
        <path id="DejaVuSans-35" d="M 691 4666 
L 3169 4666 
L 3169 4134 
L 1269 4134 
L 1269 2991 
Q 1406 3038 1543 3061 
Q 1681 3084 1819 3084 
Q 2600 3084 3056 2656 
Q 3513 2228 3513 1497 
Q 3513 744 3044 326 
Q 2575 -91 1722 -91 
Q 1428 -91 1123 -41 
Q 819 9 494 109 
L 494 744 
Q 775 591 1075 516 
Q 1375 441 1709 441 
Q 2250 441 2565 725 
Q 2881 1009 2881 1497 
Q 2881 1984 2565 2268 
Q 2250 2553 1709 2553 
Q 1456 2553 1204 2497 
Q 953 2441 691 2322 
L 691 4666 
z
" transform="scale(0.015625)"/>
       </defs>
       <use xlink:href="#DejaVuSans-35"/>
      </g>
     </g>
    </g>
    <g id="ytick_7">
     <g id="line2d_13">
      <g>
       <use xlink:href="#m048c2b506d" x="34.240625" y="22.10625" style="stroke: #000000; stroke-width: 0.8"/>
      </g>
     </g>
     <g id="text_14">
      <!-- 6 -->
      <g transform="translate(20.878125 25.905469)scale(0.1 -0.1)">
       <use xlink:href="#DejaVuSans-36"/>
      </g>
     </g>
    </g>
    <g id="text_15">
     <!-- zShift -->
     <g transform="translate(14.798438 169.151312)rotate(-90)scale(0.1 -0.1)">
      <defs>
       <path id="DejaVuSans-7a" d="M 353 3500 
L 3084 3500 
L 3084 2975 
L 922 459 
L 3084 459 
L 3084 0 
L 275 0 
L 275 525 
L 2438 3041 
L 353 3041 
L 353 3500 
z
" transform="scale(0.015625)"/>
       <path id="DejaVuSans-53" d="M 3425 4513 
L 3425 3897 
Q 3066 4069 2747 4153 
Q 2428 4238 2131 4238 
Q 1616 4238 1336 4038 
Q 1056 3838 1056 3469 
Q 1056 3159 1242 3001 
Q 1428 2844 1947 2747 
L 2328 2669 
Q 3034 2534 3370 2195 
Q 3706 1856 3706 1288 
Q 3706 609 3251 259 
Q 2797 -91 1919 -91 
Q 1588 -91 1214 -16 
Q 841 59 441 206 
L 441 856 
Q 825 641 1194 531 
Q 1563 422 1919 422 
Q 2459 422 2753 634 
Q 3047 847 3047 1241 
Q 3047 1584 2836 1778 
Q 2625 1972 2144 2069 
L 1759 2144 
Q 1053 2284 737 2584 
Q 422 2884 422 3419 
Q 422 4038 858 4394 
Q 1294 4750 2059 4750 
Q 2388 4750 2728 4690 
Q 3069 4631 3425 4513 
z
" transform="scale(0.015625)"/>
       <path id="DejaVuSans-68" d="M 3513 2113 
L 3513 0 
L 2938 0 
L 2938 2094 
Q 2938 2591 2744 2837 
Q 2550 3084 2163 3084 
Q 1697 3084 1428 2787 
Q 1159 2491 1159 1978 
L 1159 0 
L 581 0 
L 581 4863 
L 1159 4863 
L 1159 2956 
Q 1366 3272 1645 3428 
Q 1925 3584 2291 3584 
Q 2894 3584 3203 3211 
Q 3513 2838 3513 2113 
z
" transform="scale(0.015625)"/>
       <path id="DejaVuSans-66" d="M 2375 4863 
L 2375 4384 
L 1825 4384 
Q 1516 4384 1395 4259 
Q 1275 4134 1275 3809 
L 1275 3500 
L 2222 3500 
L 2222 3053 
L 1275 3053 
L 1275 0 
L 697 0 
L 697 3053 
L 147 3053 
L 147 3500 
L 697 3500 
L 697 3744 
Q 697 4328 969 4595 
Q 1241 4863 1831 4863 
L 2375 4863 
z
" transform="scale(0.015625)"/>
      </defs>
      <use xlink:href="#DejaVuSans-7a"/>
      <use xlink:href="#DejaVuSans-53" x="52.490234"/>
      <use xlink:href="#DejaVuSans-68" x="115.966797"/>
      <use xlink:href="#DejaVuSans-69" x="179.345703"/>
      <use xlink:href="#DejaVuSans-66" x="207.128906"/>
      <use xlink:href="#DejaVuSans-74" x="240.583984"/>
     </g>
    </g>
   </g>
   <g id="PathCollection_1"/>
   <g id="PathCollection_2">
    <path d="M 58.308176 22.10625 
L 59.199493 24.76737 
L 59.381873 25.457246 
L 59.906321 27.42849 
L 60.448155 30.08961 
L 60.853318 32.75073 
L 61.15247 35.41185 
L 61.167473 35.592481 
L 61.384691 38.07297 
L 61.551204 40.73409 
L 61.667526 43.39521 
L 61.757252 46.49985 
L 61.806402 49.16097 
L 61.838144 51.82209 
L 61.858223 54.48321 
L 61.870742 57.14433 
L 61.878467 59.80545 
L 61.883146 62.46657 
L 61.885837 65.12769 
L 61.887206 67.78881 
L 61.887739 70.44993 
L 61.887852 73.11105 
L 61.887907 75.77217 
L 61.888176 78.43329 
L 61.888832 81.09441 
L 61.889988 83.75553 
L 61.891843 86.41665 
L 61.895564 89.52129 
L 61.901325 92.18241 
L 61.911522 94.84353 
L 61.929302 97.50465 
L 61.959352 100.16577 
L 62.008373 102.82689 
L 62.08566 105.48801 
L 62.203658 108.14913 
L 62.378288 110.81025 
L 62.628724 113.47137 
L 62.953073 115.953137 
L 62.97814 116.13249 
L 63.479868 118.79361 
L 64.12411 121.45473 
L 64.738673 123.499829 
L 64.933625 124.11585 
L 65.944717 126.77697 
L 66.559985 128.190574 
L 67.121137 129.43809 
L 68.345585 131.924769 
L 68.433481 132.09921 
L 70.098159 135.20385 
L 70.131185 135.263707 
L 71.571939 137.86497 
L 71.916785 138.504297 
L 73.010095 140.52609 
L 73.738097 141.970546 
L 74.354391 143.18721 
L 75.523697 145.767499 
L 75.560742 145.84833 
L 76.654366 148.50945 
L 77.309297 150.441456 
L 77.563905 151.17057 
L 78.332903 153.83169 
L 78.91974 156.49281 
L 79.094897 157.566656 
L 79.371698 159.15393 
L 79.680979 161.81505 
L 79.841555 164.47617 
L 79.860223 167.13729 
L 79.737839 169.79841 
L 79.469336 172.45953 
L 79.094897 174.809402 
L 79.048659 175.12065 
L 78.401153 178.22529 
L 77.653435 180.88641 
L 77.309297 181.890011 
L 76.758393 183.54753 
L 75.690872 186.20865 
L 75.523697 186.578158 
L 74.499682 188.86977 
L 73.738097 190.388615 
L 73.168599 191.53089 
L 71.916785 193.861676 
L 71.739839 194.19201 
L 70.281372 196.85313 
L 70.131185 197.130195 
L 68.853743 199.51425 
L 68.345585 200.502418 
L 67.50184 202.17537 
L 66.559985 204.19988 
L 66.272262 204.83649 
L 65.223589 207.49761 
L 64.738673 208.941984 
L 64.349348 210.15873 
L 63.660805 212.81985 
L 63.117662 215.48097 
L 62.953073 216.552358 
L 62.724236 218.14209 
L 62.446413 220.80321 
L 62.224581 223.90785 
L 62.099606 226.56897 
L 62.017355 229.23009 
L 61.964905 231.89121 
L 61.932523 234.55233 
L 61.913122 237.21345 
L 61.901664 239.87457 
L 61.894641 242.53569 
L 61.88963 245.19681 
L 61.884908 247.85793 
L 61.879056 250.51905 
L 61.870559 253.18017 
L 61.857377 255.84129 
L 61.836538 258.50241 
L 61.803772 261.16353 
L 61.753183 263.82465 
L 61.661052 266.92929 
L 61.541859 269.59041 
L 61.371536 272.25153 
L 61.167473 274.536349 
L 61.135593 274.91265 
L 60.830588 277.57377 
L 60.418085 280.23489 
L 59.867159 282.89601 
L 59.381873 284.698151 
L 59.152037 285.55713 
L 58.248282 288.21825 
" clip-path="url(#pa72337b7a9)" style="fill: none; stroke: #deebf7; stroke-width: 1.5"/>
    <path d="M 168.585409 288.21825 
L 167.830421 285.55713 
L 167.256206 282.89601 
L 167.053553 281.678736 
L 166.79689 280.23489 
L 166.436577 277.57377 
L 166.170539 274.91265 
L 165.97714 272.25153 
L 165.839126 269.59041 
L 165.742722 266.92929 
L 165.668369 263.82465 
L 165.627645 261.16353 
L 165.601348 258.50241 
L 165.584715 255.84129 
L 165.574345 253.18017 
L 165.567947 250.51905 
L 165.564074 247.85793 
L 165.56185 245.19681 
L 165.560725 242.53569 
L 165.560302 239.87457 
L 165.560247 237.21345 
L 165.560283 234.55233 
L 165.560228 231.89121 
L 165.560028 229.23009 
L 165.559749 226.56897 
L 165.559522 223.90785 
L 165.55947 220.80321 
L 165.55963 218.14209 
L 165.559889 215.48097 
L 165.560108 212.81985 
L 165.560166 210.15873 
L 165.560032 207.49761 
L 165.559779 204.83649 
L 165.559544 202.17537 
L 165.559454 199.51425 
L 165.559558 196.85313 
L 165.5598 194.19201 
L 165.560048 191.53089 
L 165.560168 188.86977 
L 165.560095 186.20865 
L 165.559868 183.54753 
L 165.559611 180.88641 
L 165.559462 178.22529 
L 165.559528 175.12065 
L 165.559755 172.45953 
L 165.560012 169.79841 
L 165.560161 167.13729 
L 165.56012 164.47617 
L 165.559912 161.81505 
L 165.55965 159.15393 
L 165.559475 156.49281 
L 165.559482 153.83169 
L 165.559669 151.17057 
L 165.559932 148.50945 
L 165.56013 145.84833 
L 165.560156 143.18721 
L 165.559995 140.52609 
L 165.559734 137.86497 
L 165.559516 135.20385 
L 165.559467 132.09921 
L 165.559629 129.43809 
L 165.559889 126.77697 
L 165.560107 124.11585 
L 165.560166 121.45473 
L 165.560032 118.79361 
L 165.559779 116.13249 
L 165.559544 113.47137 
L 165.559454 110.81025 
L 165.559558 108.14913 
L 165.5598 105.48801 
L 165.560048 102.82689 
L 165.560168 100.16577 
L 165.560095 97.50465 
L 165.559869 94.84353 
L 165.559612 92.18241 
L 165.559465 89.52129 
L 165.559535 86.41665 
L 165.559771 83.75553 
L 165.560048 81.09441 
L 165.560237 78.43329 
L 165.560282 75.77217 
L 165.560245 73.11105 
L 165.560318 70.44993 
L 165.560782 67.78881 
L 165.561977 65.12769 
L 165.564307 62.46657 
L 165.568339 59.80545 
L 165.574984 57.14433 
L 165.585745 54.48321 
L 165.602989 51.82209 
L 165.630212 49.16097 
L 165.672292 46.49985 
L 165.748945 43.39521 
L 165.84811 40.73409 
L 165.989805 38.07297 
L 166.188012 35.41185 
L 166.460234 32.75073 
L 166.828403 30.08961 
L 167.053553 28.844481 
L 167.293419 27.42849 
L 167.878623 24.76737 
L 168.647275 22.10625 
" clip-path="url(#pa72337b7a9)" style="fill: none; stroke: #deebf7; stroke-width: 1.5"/>
   </g>
   <g id="PathCollection_3">
    <path d="M 43.732813 22.10625 
L 45.025649 23.632816 
L 45.831127 24.76737 
L 47.282496 27.42849 
L 48.596849 31.010968 
L 49.074155 32.75073 
L 49.61914 35.41185 
L 50.015372 38.07297 
L 50.492574 43.39521 
L 50.721865 49.16097 
L 50.840928 59.80545 
L 51.042398 105.48801 
L 51.321701 110.81025 
L 51.907977 116.13249 
L 52.377647 118.79361 
L 52.997096 121.45473 
L 53.989361 124.627333 
L 54.789258 126.77697 
L 55.979087 129.43809 
L 57.560561 132.459902 
L 60.746901 137.86497 
L 63.945445 143.18721 
L 65.401416 145.84833 
L 66.697186 148.50945 
L 68.345585 152.659681 
L 68.755447 153.83169 
L 69.499241 156.49281 
L 70.131185 159.756761 
L 70.425384 161.81505 
L 70.625859 164.47617 
L 70.650935 167.13729 
L 70.501498 169.79841 
L 70.131185 172.68026 
L 69.678016 175.12065 
L 68.860334 178.22529 
L 67.951998 180.88641 
L 66.559985 184.17609 
L 64.738673 187.795704 
L 62.599829 191.53089 
L 57.560561 200.008508 
L 55.774961 203.523081 
L 55.155266 204.83649 
L 53.989361 207.847034 
L 53.240284 210.15873 
L 52.203761 214.694469 
L 52.049723 215.48097 
L 51.393496 220.80321 
L 51.058178 226.56897 
L 50.898689 234.55233 
L 50.636713 263.82465 
L 50.288903 269.59041 
L 50.002462 272.25153 
L 49.601694 274.91265 
L 49.051199 277.57377 
L 48.291327 280.23489 
L 46.811249 283.758119 
L 45.783056 285.55713 
L 45.025649 286.622631 
L 43.675097 288.21825 
L 43.675097 288.21825 
" clip-path="url(#pa72337b7a9)" style="fill: none; stroke: #c6dbef; stroke-width: 1.5"/>
    <path d="M 178.270913 288.21825 
L 177.802865 287.006506 
L 177.252815 285.55713 
L 176.462057 282.89601 
L 176.017265 280.934363 
L 175.856252 280.23489 
L 175.384397 277.57377 
L 175.03597 274.91265 
L 174.782648 272.25153 
L 174.601842 269.59041 
L 174.475526 266.92929 
L 174.37808 263.82465 
L 174.324695 261.16353 
L 174.290216 258.50241 
L 174.268404 255.84129 
L 174.254804 253.18017 
L 174.246412 250.51905 
L 174.24133 247.85793 
L 174.23841 245.19681 
L 174.236931 242.53569 
L 174.236373 239.87457 
L 174.236298 237.21345 
L 174.236345 234.55233 
L 174.236275 231.89121 
L 174.236015 229.23009 
L 174.235651 226.56897 
L 174.235354 223.90785 
L 174.235283 220.80321 
L 174.23549 218.14209 
L 174.235828 215.48097 
L 174.236115 212.81985 
L 174.236193 210.15873 
L 174.23602 207.49761 
L 174.23569 204.83649 
L 174.235382 202.17537 
L 174.235262 199.51425 
L 174.235396 196.85313 
L 174.235711 194.19201 
L 174.236036 191.53089 
L 174.236195 188.86977 
L 174.236102 186.20865 
L 174.235807 183.54753 
L 174.23547 180.88641 
L 174.235274 178.22529 
L 174.235358 175.12065 
L 174.235653 172.45953 
L 174.235989 169.79841 
L 174.236185 167.13729 
L 174.236135 164.47617 
L 174.235864 161.81505 
L 174.235521 159.15393 
L 174.235291 156.49281 
L 174.235299 153.83169 
L 174.23554 151.17057 
L 174.235884 148.50945 
L 174.236145 145.84833 
L 174.23618 143.18721 
L 174.235972 140.52609 
L 174.235632 137.86497 
L 174.235345 135.20385 
L 174.23528 132.09921 
L 174.235488 129.43809 
L 174.235828 126.77697 
L 174.236114 124.11585 
L 174.236193 121.45473 
L 174.23602 118.79361 
L 174.23569 116.13249 
L 174.235382 113.47137 
L 174.235262 110.81025 
L 174.235396 108.14913 
L 174.235711 105.48801 
L 174.236036 102.82689 
L 174.236195 100.16577 
L 174.236102 97.50465 
L 174.235808 94.84353 
L 174.235472 92.18241 
L 174.235278 89.52129 
L 174.235367 86.41665 
L 174.235673 83.75553 
L 174.236035 81.09441 
L 174.236284 78.43329 
L 174.236344 75.77217 
L 174.236296 73.11105 
L 174.236388 70.44993 
L 174.236989 67.78881 
L 174.238538 65.12769 
L 174.241564 62.46657 
L 174.246806 59.80545 
L 174.255446 57.14433 
L 174.269439 54.48321 
L 174.291864 51.82209 
L 174.327273 49.16097 
L 174.382015 46.49985 
L 174.481761 43.39521 
L 174.610829 40.73409 
L 174.795284 38.07297 
L 175.053345 35.41185 
L 175.407815 32.75073 
L 175.887262 30.08961 
L 176.017265 29.531868 
L 176.500227 27.42849 
L 177.301735 24.76737 
L 177.802865 23.458715 
L 178.329977 22.10625 
" clip-path="url(#pa72337b7a9)" style="fill: none; stroke: #c6dbef; stroke-width: 1.5"/>
   </g>
   <g id="PathCollection_4">
    <path d="M 34.240625 112.537961 
L 35.192965 113.47137 
L 36.026225 114.001685 
L 36.952036 116.13249 
L 37.847537 117.517807 
L 38.338222 118.79361 
L 39.633137 121.147541 
L 39.756843 121.45473 
L 41.221875 124.11585 
L 41.418737 124.384845 
L 42.825398 126.77697 
L 43.204337 127.27916 
L 44.589202 129.43809 
L 45.025649 129.989347 
L 46.499077 132.09921 
L 46.811249 132.472708 
L 48.596849 134.834272 
L 48.854966 135.20385 
L 50.382449 137.132923 
L 50.921649 137.86497 
L 52.203761 139.480494 
L 52.978907 140.52609 
L 53.989361 141.845113 
L 54.952567 143.18721 
L 55.774961 144.344728 
L 56.778207 145.84833 
L 57.560561 147.087043 
L 58.407648 148.50945 
L 59.381873 150.323766 
L 59.813721 151.17057 
L 60.979876 153.83169 
L 61.167473 154.354464 
L 61.90496 156.49281 
L 62.597509 159.15393 
L 62.953073 161.168962 
L 63.064842 161.81505 
L 63.311817 164.47617 
L 63.34445 167.13729 
L 63.163488 169.79841 
L 62.953073 171.215177 
L 62.764987 172.45953 
L 62.1432 175.12065 
L 61.167473 178.114269 
L 61.12973 178.22529 
L 59.999791 180.88641 
L 59.381873 182.124252 
L 58.634129 183.54753 
L 57.560561 185.379214 
L 57.044952 186.20865 
L 55.774961 188.13167 
L 55.255575 188.86977 
L 53.989361 190.641273 
L 53.309816 191.53089 
L 52.203761 193.018812 
L 51.268623 194.19201 
L 50.382449 195.383086 
L 49.204446 196.85313 
L 48.596849 197.699124 
L 47.18226 199.51425 
L 46.811249 200.06709 
L 45.253439 202.17537 
L 45.025649 202.547833 
L 43.444785 204.83649 
L 43.204337 205.274349 
L 41.772366 207.49761 
L 41.418737 208.215375 
L 40.230528 210.15873 
L 39.633137 211.487053 
L 38.812372 212.81985 
L 37.847537 215.034142 
L 37.518474 215.48097 
L 36.176654 218.14209 
L 36.026225 218.586786 
L 34.240625 220.072202 
" clip-path="url(#pa72337b7a9)" style="fill: none; stroke: #9dcae1; stroke-width: 1.5"/>
    <path d="M 186.051367 288.21825 
L 184.980977 286.176221 
L 184.674546 285.55713 
L 183.622893 282.89601 
L 183.195377 281.490073 
L 182.822966 280.23489 
L 182.219766 277.57377 
L 181.774331 274.91265 
L 181.450457 272.25153 
L 181.409777 271.788142 
L 181.214314 269.59041 
L 181.048574 266.92929 
L 180.920694 263.82465 
L 180.850624 261.16353 
L 180.805363 258.50241 
L 180.776727 255.84129 
L 180.75887 253.18017 
L 180.74785 250.51905 
L 180.741177 247.85793 
L 180.73734 245.19681 
L 180.735394 242.53569 
L 180.734657 239.87457 
L 180.734557 237.21345 
L 180.734619 234.55233 
L 180.734529 231.89121 
L 180.73419 229.23009 
L 180.733714 226.56897 
L 180.733324 223.90785 
L 180.733228 220.80321 
L 180.733497 218.14209 
L 180.73394 215.48097 
L 180.734316 212.81985 
L 180.73442 210.15873 
L 180.734196 207.49761 
L 180.733765 204.83649 
L 180.73336 202.17537 
L 180.733202 199.51425 
L 180.733375 196.85313 
L 180.733786 194.19201 
L 180.734213 191.53089 
L 180.734423 188.86977 
L 180.734303 186.20865 
L 180.733918 183.54753 
L 180.733477 180.88641 
L 180.733218 178.22529 
L 180.733325 175.12065 
L 180.73371 172.45953 
L 180.734151 169.79841 
L 180.73441 167.13729 
L 180.734345 164.47617 
L 180.733993 161.81505 
L 180.733544 159.15393 
L 180.733241 156.49281 
L 180.733249 153.83169 
L 180.733563 151.17057 
L 180.734014 148.50945 
L 180.734356 145.84833 
L 180.734404 143.18721 
L 180.734133 140.52609 
L 180.733689 137.86497 
L 180.733312 135.20385 
L 180.733224 132.09921 
L 180.733495 129.43809 
L 180.733939 126.77697 
L 180.734316 124.11585 
L 180.73442 121.45473 
L 180.734196 118.79361 
L 180.733765 116.13249 
L 180.73336 113.47137 
L 180.733202 110.81025 
L 180.733375 108.14913 
L 180.733786 105.48801 
L 180.734213 102.82689 
L 180.734423 100.16577 
L 180.734303 97.50465 
L 180.733919 94.84353 
L 180.733479 92.18241 
L 180.733223 89.52129 
L 180.733337 86.41665 
L 180.733737 83.75553 
L 180.734211 81.09441 
L 180.734539 78.43329 
L 180.734618 75.77217 
L 180.734555 73.11105 
L 180.734674 70.44993 
L 180.735454 67.78881 
L 180.737472 65.12769 
L 180.741419 62.46657 
L 180.748258 59.80545 
L 180.759534 57.14433 
L 180.777797 54.48321 
L 180.807066 51.82209 
L 180.853288 49.16097 
L 180.924759 46.49985 
L 181.055005 43.39521 
L 181.22357 40.73409 
L 181.409777 38.671484 
L 181.46311 38.07297 
L 181.791644 35.41185 
L 182.242946 32.75073 
L 182.853394 30.08961 
L 183.195377 28.94742 
L 183.661419 27.42849 
L 184.723133 24.76737 
L 184.980977 24.249571 
L 186.110962 22.10625 
" clip-path="url(#pa72337b7a9)" style="fill: none; stroke: #9dcae1; stroke-width: 1.5"/>
   </g>
   <g id="PathCollection_5">
    <path d="M 34.240625 146.201825 
L 34.61864 145.84833 
L 36.026225 144.676773 
L 37.847537 143.886627 
L 39.633137 143.702811 
L 41.418737 143.99294 
L 43.204337 144.675405 
L 45.025649 145.714935 
L 45.20169 145.84833 
L 46.811249 147.067629 
L 48.38192 148.50945 
L 48.596849 148.716368 
L 50.382449 150.756088 
L 50.698827 151.17057 
L 52.203761 153.371242 
L 52.483023 153.83169 
L 53.841427 156.49281 
L 53.989361 156.862969 
L 54.812867 159.15393 
L 55.474209 161.81505 
L 55.774961 164.05409 
L 55.827106 164.47617 
L 55.873139 167.13729 
L 55.774961 168.237853 
L 55.623812 169.79841 
L 55.061605 172.45953 
L 54.201493 175.12065 
L 53.989361 175.60812 
L 52.726515 178.22529 
L 52.203761 179.111722 
L 51.0233 180.88641 
L 50.382449 181.742995 
L 48.834341 183.54753 
L 48.596849 183.807308 
L 46.811249 185.469109 
L 45.841714 186.20865 
L 45.025649 186.82721 
L 43.204337 187.881642 
L 41.418737 188.577808 
L 39.692848 188.86977 
L 39.633137 188.880462 
L 39.515152 188.86977 
L 37.847537 188.707716 
L 36.026225 187.926824 
L 34.240625 186.418814 
" clip-path="url(#pa72337b7a9)" style="fill: none; stroke: #6aaed6; stroke-width: 1.5"/>
    <path d="M 193.839523 288.21825 
L 192.159089 285.984982 
L 191.866927 285.55713 
L 190.409556 282.89601 
L 190.373489 282.812125 
L 189.334357 280.23489 
L 188.587889 277.767961 
L 188.531739 277.57377 
L 187.946864 274.91265 
L 187.521577 272.25153 
L 187.217977 269.59041 
L 187.005825 266.92929 
L 186.842116 263.82465 
L 186.766577 261.58532 
L 186.752464 261.16353 
L 186.694753 258.50241 
L 186.658237 255.84129 
L 186.635465 253.18017 
L 186.621413 250.51905 
L 186.612901 247.85793 
L 186.608004 245.19681 
L 186.605519 242.53569 
L 186.604576 239.87457 
L 186.604446 237.21345 
L 186.604525 234.55233 
L 186.604411 231.89121 
L 186.603982 229.23009 
L 186.603377 226.56897 
L 186.602879 223.90785 
L 186.602755 220.80321 
L 186.603095 218.14209 
L 186.603659 215.48097 
L 186.604138 212.81985 
L 186.604272 210.15873 
L 186.603989 207.49761 
L 186.603441 204.83649 
L 186.602926 202.17537 
L 186.602722 199.51425 
L 186.602941 196.85313 
L 186.603463 194.19201 
L 186.604006 191.53089 
L 186.604275 188.86977 
L 186.604125 186.20865 
L 186.603636 183.54753 
L 186.603075 180.88641 
L 186.602744 178.22529 
L 186.602877 175.12065 
L 186.603366 172.45953 
L 186.603927 169.79841 
L 186.604258 167.13729 
L 186.604178 164.47617 
L 186.603731 161.81505 
L 186.60316 159.15393 
L 186.602773 156.49281 
L 186.602781 153.83169 
L 186.603179 151.17057 
L 186.603752 148.50945 
L 186.604189 145.84833 
L 186.604253 143.18721 
L 186.603909 140.52609 
L 186.603344 137.86497 
L 186.602865 135.20385 
L 186.602749 132.09921 
L 186.603093 129.43809 
L 186.603658 126.77697 
L 186.604137 124.11585 
L 186.604272 121.45473 
L 186.603989 118.79361 
L 186.603441 116.13249 
L 186.602926 113.47137 
L 186.602722 110.81025 
L 186.602941 108.14913 
L 186.603463 105.48801 
L 186.604006 102.82689 
L 186.604275 100.16577 
L 186.604125 97.50465 
L 186.603637 94.84353 
L 186.603077 92.18241 
L 186.60275 89.52129 
L 186.602892 86.41665 
L 186.6034 83.75553 
L 186.604003 81.09441 
L 186.604421 78.43329 
L 186.604524 75.77217 
L 186.604444 73.11105 
L 186.604592 70.44993 
L 186.605579 67.78881 
L 186.608136 65.12769 
L 186.613142 62.46657 
L 186.621818 59.80545 
L 186.636127 57.14433 
L 186.659302 54.48321 
L 186.696448 51.82209 
L 186.755113 49.16097 
L 186.766577 48.823545 
L 186.846169 46.49985 
L 187.012218 43.39521 
L 187.227141 40.73409 
L 187.534363 38.07297 
L 187.964256 35.41185 
L 188.554834 32.75073 
L 188.587889 32.637295 
L 189.364641 30.08961 
L 190.373489 27.60245 
L 190.448712 27.42849 
L 191.914849 24.76737 
L 192.159089 24.410876 
L 193.898061 22.10625 
" clip-path="url(#pa72337b7a9)" style="fill: none; stroke: #6aaed6; stroke-width: 1.5"/>
   </g>
   <g id="PathCollection_6">
    <path d="M 203.605339 288.21825 
L 202.944113 287.773683 
L 201.122801 286.367005 
L 200.208101 285.55713 
L 199.337201 284.618219 
L 197.926624 282.89601 
L 197.551601 282.319013 
L 196.330698 280.23489 
L 195.766001 278.977934 
L 195.186855 277.57377 
L 194.364186 274.91265 
L 193.944689 273.056382 
L 193.773709 272.25153 
L 193.365124 269.59041 
L 193.079583 266.92929 
L 192.85922 263.82465 
L 192.738445 261.16353 
L 192.660414 258.50241 
L 192.611037 255.84129 
L 192.580243 253.18017 
L 192.561239 250.51905 
L 192.549726 247.85793 
L 192.543101 245.19681 
L 192.539736 242.53569 
L 192.538457 239.87457 
L 192.538279 237.21345 
L 192.538385 234.55233 
L 192.538234 231.89121 
L 192.537656 229.23009 
L 192.53684 226.56897 
L 192.536166 223.90785 
L 192.535996 220.80321 
L 192.536453 218.14209 
L 192.537212 215.48097 
L 192.537861 212.81985 
L 192.538045 210.15873 
L 192.537665 207.49761 
L 192.536927 204.83649 
L 192.53623 202.17537 
L 192.535953 199.51425 
L 192.536245 196.85313 
L 192.536948 194.19201 
L 192.537682 191.53089 
L 192.538047 188.86977 
L 192.537847 186.20865 
L 192.53719 183.54753 
L 192.536431 180.88641 
L 192.535983 178.22529 
L 192.53616 175.12065 
L 192.536817 172.45953 
L 192.537576 169.79841 
L 192.538024 167.13729 
L 192.537919 164.47617 
L 192.537318 161.81505 
L 192.536546 159.15393 
L 192.536022 156.49281 
L 192.536031 153.83169 
L 192.536566 151.17057 
L 192.537339 148.50945 
L 192.53793 145.84833 
L 192.538019 143.18721 
L 192.537557 140.52609 
L 192.536796 137.86497 
L 192.536147 135.20385 
L 192.535988 132.09921 
L 192.53645 129.43809 
L 192.537211 126.77697 
L 192.53786 124.11585 
L 192.538045 121.45473 
L 192.537665 118.79361 
L 192.536927 116.13249 
L 192.53623 113.47137 
L 192.535953 110.81025 
L 192.536245 108.14913 
L 192.536948 105.48801 
L 192.537682 102.82689 
L 192.538048 100.16577 
L 192.537848 97.50465 
L 192.537191 94.84353 
L 192.536434 92.18241 
L 192.53599 89.52129 
L 192.53618 86.41665 
L 192.536863 83.75553 
L 192.537677 81.09441 
L 192.538244 78.43329 
L 192.538384 75.77217 
L 192.538277 73.11105 
L 192.538473 70.44993 
L 192.539796 67.78881 
L 192.543235 65.12769 
L 192.54997 62.46657 
L 192.561649 59.80545 
L 192.580911 57.14433 
L 192.612112 54.48321 
L 192.662123 51.82209 
L 192.741111 49.16097 
L 192.863272 46.49985 
L 193.085951 43.39521 
L 193.374205 40.73409 
L 193.786285 38.07297 
L 193.944689 37.33268 
L 194.381835 35.41185 
L 195.209841 32.75073 
L 195.766001 31.408736 
L 196.361258 30.08961 
L 197.551601 28.064304 
L 197.966007 27.42849 
L 199.337201 25.757356 
L 200.256531 24.76737 
L 201.122801 24.000596 
L 202.944113 22.591914 
L 203.665637 22.10625 
" clip-path="url(#pa72337b7a9)" style="fill: none; stroke: #4191c6; stroke-width: 1.5"/>
    <path d="M 382.707683 22.10625 
L 384.182513 23.157888 
L 385.968113 24.635759 
L 386.109602 24.76737 
L 387.753713 26.633106 
L 388.374914 27.42849 
L 389.575025 29.370619 
L 389.977025 30.08961 
L 391.123019 32.75073 
L 391.360625 33.48521 
" clip-path="url(#pa72337b7a9)" style="fill: none; stroke: #4191c6; stroke-width: 1.5"/>
    <path d="M 391.360625 276.770737 
L 391.099362 277.57377 
L 389.947241 280.23489 
L 389.575025 280.89824 
L 388.336701 282.89601 
L 387.753713 283.640938 
L 386.062726 285.55713 
L 385.968113 285.645091 
L 384.182513 287.124501 
L 382.64996 288.21825 
" clip-path="url(#pa72337b7a9)" style="fill: none; stroke: #4191c6; stroke-width: 1.5"/>
   </g>
   <g id="PathCollection_7">
    <path d="M 199.328996 250.51905 
L 199.312712 247.85793 
L 199.303339 245.19681 
L 199.298574 242.53569 
L 199.296758 239.87457 
L 199.296503 237.21345 
L 199.296653 234.55233 
L 199.296442 231.89121 
L 199.29563 229.23009 
L 199.294479 226.56897 
L 199.293526 223.90785 
L 199.293281 220.80321 
L 199.293923 218.14209 
L 199.294994 215.48097 
L 199.29591 212.81985 
L 199.296174 210.15873 
L 199.295641 207.49761 
L 199.2946 204.83649 
L 199.293616 202.17537 
L 199.293221 199.51425 
L 199.29363 196.85313 
L 199.294621 194.19201 
L 199.295657 191.53089 
L 199.296176 188.86977 
L 199.295897 186.20865 
L 199.294971 183.54753 
L 199.293901 180.88641 
L 199.293265 178.22529 
L 199.293511 175.12065 
L 199.294436 172.45953 
L 199.295507 169.79841 
L 199.296143 167.13729 
L 199.295998 164.47617 
L 199.295152 161.81505 
L 199.294063 159.15393 
L 199.293321 156.49281 
L 199.293329 153.83169 
L 199.294082 151.17057 
L 199.295172 148.50945 
L 199.296008 145.84833 
L 199.296138 143.18721 
L 199.29549 140.52609 
L 199.294416 137.86497 
L 199.293498 135.20385 
L 199.29327 132.09921 
L 199.293918 129.43809 
L 199.294992 126.77697 
L 199.29591 124.11585 
L 199.296174 121.45473 
L 199.295641 118.79361 
L 199.2946 116.13249 
L 199.293616 113.47137 
L 199.293221 110.81025 
L 199.29363 108.14913 
L 199.294621 105.48801 
L 199.295657 102.82689 
L 199.296177 100.16577 
L 199.295898 97.50465 
L 199.294973 94.84353 
L 199.293905 92.18241 
L 199.293275 89.52129 
L 199.293538 86.41665 
L 199.2945 83.75553 
L 199.29565 81.09441 
L 199.296452 78.43329 
L 199.296652 75.77217 
L 199.296501 73.11105 
L 199.296774 70.44993 
L 199.298631 67.78881 
L 199.303466 65.12769 
L 199.312946 62.46657 
L 199.329388 59.80545 
L 199.337201 59.038489 
L 199.35798 57.14433 
L 199.40526 54.48321 
L 199.481047 51.82209 
L 199.600755 49.16097 
L 199.78591 46.49985 
L 200.123449 43.39521 
L 200.560429 40.73409 
L 201.122801 38.335616 
L 201.190637 38.07297 
L 202.141604 35.41185 
L 202.944113 33.762505 
L 203.497787 32.75073 
L 204.729713 31.043223 
L 205.516249 30.08961 
L 206.515313 29.140463 
L 208.300913 27.67853 
L 208.655577 27.42849 
L 210.122225 26.589271 
L 211.907825 25.723559 
L 213.693425 24.995024 
L 214.354992 24.76737 
L 215.479025 24.441479 
L 217.300337 24.000811 
L 219.085937 23.644155 
L 220.871537 23.351108 
L 222.657137 23.112012 
L 224.478449 22.914914 
L 226.264049 22.759992 
L 228.049649 22.636508 
L 229.835249 22.538895 
L 231.656561 22.461043 
L 233.442161 22.401902 
L 235.227761 22.356365 
L 237.013361 22.321616 
L 238.834673 22.294887 
L 240.620273 22.275316 
L 242.405873 22.260791 
L 244.191473 22.250111 
L 246.012785 22.2422 
L 247.798385 22.236623 
L 249.583985 22.232637 
L 251.369585 22.229815 
L 253.190897 22.227803 
L 254.976497 22.226438 
L 256.762097 22.225498 
L 258.547697 22.224858 
L 260.369009 22.224419 
L 262.154609 22.224132 
L 263.940209 22.223941 
L 265.725809 22.223817 
L 267.547121 22.223734 
L 269.332721 22.223683 
L 271.118321 22.223649 
L 272.903921 22.223629 
L 274.725233 22.223615 
L 276.510833 22.223607 
L 278.296433 22.223602 
L 280.082033 22.223599 
L 281.903345 22.223597 
L 283.688945 22.223596 
L 285.474545 22.223596 
L 287.260145 22.223595 
L 289.081457 22.223595 
L 290.867057 22.223595 
L 292.652657 22.223595 
L 294.438257 22.223595 
L 296.259569 22.223595 
L 298.045169 22.223595 
L 299.830769 22.223596 
L 301.616369 22.223596 
L 303.437681 22.223597 
L 305.223281 22.223598 
L 307.008881 22.2236 
L 308.794481 22.223604 
L 310.615793 22.22361 
L 312.401393 22.22362 
L 314.186993 22.223636 
L 315.972593 22.223661 
L 317.793905 22.223702 
L 319.579505 22.223764 
L 321.365105 22.223861 
L 323.150705 22.224009 
L 324.972017 22.22424 
L 326.757617 22.224581 
L 328.543217 22.225089 
L 330.328817 22.225838 
L 332.150129 22.226959 
L 333.935729 22.228556 
L 335.721329 22.230845 
L 337.506929 22.234097 
L 339.328241 22.23878 
L 341.113841 22.245198 
L 342.899441 22.254059 
L 344.685041 22.266177 
L 346.506353 22.282976 
L 348.291953 22.305144 
L 350.077553 22.334621 
L 351.863153 22.373461 
L 353.684465 22.425331 
L 355.470065 22.491295 
L 357.255665 22.575896 
L 359.041265 22.683472 
L 360.862577 22.822151 
L 362.648177 22.992536 
L 364.433777 23.203917 
L 366.219377 23.46418 
L 368.040689 23.789344 
L 369.826289 24.177061 
L 371.611889 24.644699 
L 372.006511 24.76737 
L 373.397489 25.281216 
L 375.218801 26.082665 
L 377.004401 27.016458 
L 377.68005 27.42849 
L 378.790001 28.263685 
L 380.575601 29.832435 
L 380.83081 30.08961 
L 382.396913 32.109337 
L 382.833227 32.75073 
L 384.182513 35.372532 
L 384.200594 35.41185 
L 385.111563 38.07297 
L 385.761944 40.73409 
L 385.968113 41.93513 
L 386.19764 43.39521 
L 386.52184 46.49985 
L 386.699544 49.16097 
L 386.814368 51.82209 
L 386.887032 54.48321 
L 386.93235 57.14433 
L 386.96032 59.80545 
L 386.977266 62.46657 
L 386.987021 65.12769 
L 386.99198 67.78881 
L 386.99387 70.44993 
L 386.994135 73.11105 
L 386.993979 75.77217 
L 386.994199 78.43329 
L 386.995044 81.09441 
L 386.996242 83.75553 
L 386.997234 86.41665 
L 386.997489 89.52129 
L 386.996821 92.18241 
L 386.995706 94.84353 
L 386.994752 97.50465 
L 386.994478 100.16577 
L 386.995032 102.82689 
L 386.996115 105.48801 
L 386.99714 108.14913 
L 386.997551 110.81025 
L 386.997125 113.47137 
L 386.996094 116.13249 
L 386.995016 118.79361 
L 386.994475 121.45473 
L 386.994766 124.11585 
L 386.995729 126.77697 
L 386.996844 129.43809 
L 386.997505 132.09921 
L 386.99725 135.20385 
L 386.996286 137.86497 
L 386.995172 140.52609 
L 386.99451 143.18721 
L 386.994661 145.84833 
L 386.995541 148.50945 
L 386.996675 151.17057 
L 386.997446 153.83169 
L 386.997438 156.49281 
L 386.996655 159.15393 
L 386.99552 161.81505 
L 386.99465 164.47617 
L 386.994516 167.13729 
L 386.99519 169.79841 
L 386.996307 172.45953 
L 386.997262 175.12065 
L 386.997499 178.22529 
L 386.996825 180.88641 
L 386.995708 183.54753 
L 386.994753 186.20865 
L 386.994478 188.86977 
L 386.995032 191.53089 
L 386.996115 194.19201 
L 386.99714 196.85313 
L 386.997551 199.51425 
L 386.997125 202.17537 
L 386.996094 204.83649 
L 386.995015 207.49761 
L 386.994475 210.15873 
L 386.994765 212.81985 
L 386.995727 215.48097 
L 386.996839 218.14209 
L 386.997494 220.80321 
L 386.997221 223.90785 
L 386.99622 226.56897 
L 386.995023 229.23009 
L 386.994189 231.89121 
L 386.99398 234.55233 
L 386.994138 237.21345 
L 386.993854 239.87457 
L 386.99192 242.53569 
L 386.986889 245.19681 
L 386.977023 247.85793 
L 386.959912 250.51905 
L 386.931687 253.18017 
L 386.885965 255.84129 
L 386.812676 258.50241 
L 386.696913 261.16353 
L 386.51786 263.82465 
L 386.191442 266.92929 
L 385.968113 268.341566 
L 385.752503 269.59041 
L 385.098761 272.25153 
L 384.18389 274.91265 
L 384.182513 274.915634 
L 382.810581 277.57377 
L 382.396913 278.180656 
L 380.801718 280.23489 
L 380.575601 280.462587 
L 378.790001 282.031738 
L 377.642003 282.89601 
L 377.004401 283.285257 
L 375.218801 284.220959 
L 373.397489 285.02458 
L 371.960166 285.55713 
L 371.611889 285.665755 
L 369.826289 286.135307 
L 368.040689 286.524813 
L 366.219377 286.851641 
L 364.433777 287.113363 
L 362.648177 287.326025 
L 360.862577 287.497517 
L 359.041265 287.637156 
L 357.255665 287.74552 
L 355.470065 287.830775 
L 353.684465 287.897273 
L 351.863153 287.949582 
L 350.077553 287.988765 
L 348.291953 288.018513 
L 346.506353 288.040891 
L 344.685041 288.057856 
L 342.899441 288.070098 
L 341.113841 288.079052 
L 339.328241 288.08554 
L 337.506929 288.090275 
L 335.721329 288.093564 
L 333.935729 288.095881 
L 332.150129 288.097497 
L 330.328817 288.098632 
L 328.543217 288.099391 
L 326.757617 288.099905 
L 324.972017 288.100251 
L 323.150705 288.100485 
L 321.365105 288.100635 
L 319.579505 288.100733 
L 317.793905 288.100797 
L 315.972593 288.100838 
L 314.186993 288.100863 
L 312.401393 288.100879 
L 310.615793 288.100889 
L 308.794481 288.100896 
L 307.008881 288.1009 
L 305.223281 288.100902 
L 303.437681 288.100903 
L 301.616369 288.100904 
L 299.830769 288.100904 
L 298.045169 288.100905 
L 296.259569 288.100905 
L 294.438257 288.100905 
L 292.652657 288.100905 
L 290.867057 288.100905 
L 289.081457 288.100905 
L 287.260145 288.100905 
L 285.474545 288.100904 
L 283.688945 288.100904 
L 281.903345 288.100903 
L 280.082033 288.100901 
L 278.296433 288.100898 
L 276.510833 288.100893 
L 274.725233 288.100885 
L 272.903921 288.100872 
L 271.118321 288.100851 
L 269.332721 288.100819 
L 267.547121 288.100768 
L 265.725809 288.100687 
L 263.940209 288.100564 
L 262.154609 288.100376 
L 260.369009 288.100093 
L 258.547697 288.099659 
L 256.762097 288.099027 
L 254.976497 288.098099 
L 253.190897 288.096751 
L 251.369585 288.094763 
L 249.583985 288.091973 
L 247.798385 288.088032 
L 246.012785 288.082516 
L 244.191473 288.074688 
L 242.405873 288.064117 
L 240.620273 288.049736 
L 238.834673 288.030352 
L 237.013361 288.003871 
L 235.227761 287.969432 
L 233.442161 287.924284 
L 231.656561 287.865628 
L 229.835249 287.788386 
L 228.049649 287.6915 
L 226.264049 287.568887 
L 224.478449 287.414995 
L 222.657137 287.219122 
L 220.871537 286.981407 
L 219.085937 286.689916 
L 217.300337 286.334981 
L 215.479025 285.896212 
L 214.305391 285.55713 
L 213.693425 285.347212 
L 211.907825 284.620855 
L 210.122225 283.757175 
L 208.615303 282.89601 
L 208.300913 282.674528 
L 206.515313 281.213489 
L 205.485756 280.23489 
L 204.729713 279.317141 
L 203.474122 277.57377 
L 202.944113 276.602721 
L 202.124262 274.91265 
L 201.177315 272.25153 
L 201.122801 272.039463 
L 200.551412 269.59041 
L 200.117044 266.92929 
L 199.781793 263.82465 
L 199.598033 261.16353 
L 199.479295 258.50241 
L 199.404156 255.84129 
L 199.357293 253.18017 
L 199.337201 251.331861 
L 199.328996 250.51905 
z
" clip-path="url(#pa72337b7a9)" style="fill: none; stroke: #2070b4; stroke-width: 1.5"/>
   </g>
   <g id="PathCollection_8">
    <path d="M 209.86517 263.82465 
L 209.504555 261.16353 
L 209.271522 258.50241 
L 209.124043 255.84129 
L 209.03206 253.18017 
L 208.975287 250.51905 
L 208.940885 247.85793 
L 208.921073 245.19681 
L 208.910993 242.53569 
L 208.907145 239.87457 
L 208.906598 237.21345 
L 208.906915 234.55233 
L 208.906476 231.89121 
L 208.904769 229.23009 
L 208.902344 226.56897 
L 208.900331 223.90785 
L 208.899805 220.80321 
L 208.901151 218.14209 
L 208.903408 215.48097 
L 208.905344 212.81985 
L 208.905907 210.15873 
L 208.904791 207.49761 
L 208.9026 204.83649 
L 208.900522 202.17537 
L 208.899683 199.51425 
L 208.900537 196.85313 
L 208.902622 194.19201 
L 208.904808 191.53089 
L 208.905909 188.86977 
L 208.905329 186.20865 
L 208.903382 183.54753 
L 208.901124 180.88641 
L 208.899778 178.22529 
L 208.900286 175.12065 
L 208.902233 172.45953 
L 208.904491 169.79841 
L 208.905837 167.13729 
L 208.905541 164.47617 
L 208.903763 161.81505 
L 208.901467 159.15393 
L 208.899898 156.49281 
L 208.899906 153.83169 
L 208.901487 151.17057 
L 208.903784 148.50945 
L 208.905551 145.84833 
L 208.905832 143.18721 
L 208.904473 140.52609 
L 208.902211 137.86497 
L 208.900273 135.20385 
L 208.899784 132.09921 
L 208.901143 129.43809 
L 208.903404 126.77697 
L 208.905342 124.11585 
L 208.905907 121.45473 
L 208.904791 118.79361 
L 208.9026 116.13249 
L 208.900522 113.47137 
L 208.899683 110.81025 
L 208.900537 108.14913 
L 208.902623 105.48801 
L 208.904808 102.82689 
L 208.90591 100.16577 
L 208.905331 97.50465 
L 208.903386 94.84353 
L 208.901133 92.18241 
L 208.8998 89.52129 
L 208.900345 86.41665 
L 208.902367 83.75553 
L 208.90479 81.09441 
L 208.906486 78.43329 
L 208.906914 75.77217 
L 208.906596 73.11105 
L 208.907162 70.44993 
L 208.911054 67.78881 
L 208.921208 65.12769 
L 208.941131 62.46657 
L 208.9757 59.80545 
L 209.03273 57.14433 
L 209.125117 54.48321 
L 209.273212 51.82209 
L 209.507151 49.16097 
L 209.869022 46.49985 
L 210.122225 45.303278 
L 210.587011 43.39521 
L 211.563542 40.73409 
L 211.907825 40.071651 
L 213.120576 38.07297 
L 213.693425 37.387466 
L 215.479025 35.581616 
L 215.679249 35.41185 
L 217.300337 34.380275 
L 219.085937 33.441195 
L 220.682638 32.75073 
L 220.871537 32.687413 
L 222.657137 32.196113 
L 224.478449 31.791123 
L 226.264049 31.472812 
L 228.049649 31.219106 
L 229.835249 31.018565 
L 231.656561 30.858633 
L 233.442161 30.737146 
L 235.227761 30.643608 
L 237.013361 30.572237 
L 238.834673 30.517343 
L 240.620273 30.477151 
L 242.405873 30.447324 
L 244.191473 30.425394 
L 246.012785 30.409151 
L 247.798385 30.397702 
L 249.583985 30.389519 
L 251.369585 30.383726 
L 253.190897 30.379596 
L 254.976497 30.376795 
L 256.762097 30.374867 
L 258.547697 30.373553 
L 260.369009 30.372651 
L 262.154609 30.372062 
L 263.940209 30.371672 
L 265.725809 30.371416 
L 267.547121 30.371247 
L 269.332721 30.371141 
L 271.118321 30.371073 
L 272.903921 30.371031 
L 274.725233 30.371003 
L 276.510833 30.370987 
L 278.296433 30.370977 
L 280.082033 30.370971 
L 281.903345 30.370967 
L 283.688945 30.370965 
L 285.474545 30.370963 
L 287.260145 30.370963 
L 289.081457 30.370962 
L 290.867057 30.370962 
L 292.652657 30.370962 
L 294.438257 30.370962 
L 296.259569 30.370962 
L 298.045169 30.370962 
L 299.830769 30.370963 
L 301.616369 30.370964 
L 303.437681 30.370965 
L 305.223281 30.370968 
L 307.008881 30.370973 
L 308.794481 30.37098 
L 310.615793 30.370993 
L 312.401393 30.371014 
L 314.186993 30.371046 
L 315.972593 30.371098 
L 317.793905 30.371182 
L 319.579505 30.371312 
L 321.365105 30.371512 
L 323.150705 30.371818 
L 324.972017 30.372294 
L 326.757617 30.372999 
L 328.543217 30.374048 
L 330.328817 30.375595 
L 332.150129 30.377911 
L 333.935729 30.381208 
L 335.721329 30.385934 
L 337.506929 30.392647 
L 339.328241 30.402315 
L 341.113841 30.415565 
L 342.899441 30.433854 
L 344.685041 30.458865 
L 346.506353 30.493535 
L 348.291953 30.539281 
L 350.077553 30.600106 
L 351.863153 30.680246 
L 353.684465 30.787264 
L 355.470065 30.923351 
L 357.255665 31.097879 
L 359.041265 31.319787 
L 360.862577 31.605841 
L 362.648177 31.957277 
L 364.433777 32.393254 
L 365.625405 32.75073 
L 366.219377 32.9805 
L 368.040689 33.839875 
L 369.826289 34.864574 
L 370.621781 35.41185 
L 371.611889 36.320363 
L 373.214768 38.07297 
L 373.397489 38.347925 
L 374.74587 40.73409 
L 375.218801 41.923953 
L 375.722943 43.39521 
L 376.429659 46.49985 
L 376.817067 49.16097 
L 377.004401 51.151005 
L 377.059839 51.82209 
L 377.199227 54.48321 
L 377.286165 57.14433 
L 377.339823 59.80545 
L 377.372338 62.46657 
L 377.391063 65.12769 
L 377.400589 67.78881 
L 377.404227 70.44993 
L 377.404744 73.11105 
L 377.404444 75.77217 
L 377.404859 78.43329 
L 377.406472 81.09441 
L 377.408764 83.75553 
L 377.410667 86.41665 
L 377.411164 89.52129 
L 377.409892 92.18241 
L 377.407759 94.84353 
L 377.405929 97.50465 
L 377.405397 100.16577 
L 377.406451 102.82689 
L 377.408522 105.48801 
L 377.410486 108.14913 
L 377.41128 110.81025 
L 377.410472 113.47137 
L 377.408501 116.13249 
L 377.406435 118.79361 
L 377.405395 121.45473 
L 377.405943 124.11585 
L 377.407783 126.77697 
L 377.409918 129.43809 
L 377.41119 132.09921 
L 377.410709 135.20385 
L 377.408869 137.86497 
L 377.406735 140.52609 
L 377.405463 143.18721 
L 377.405743 145.84833 
L 377.407424 148.50945 
L 377.409593 151.17057 
L 377.411076 153.83169 
L 377.411068 156.49281 
L 377.409574 159.15393 
L 377.407404 161.81505 
L 377.405733 164.47617 
L 377.405468 167.13729 
L 377.406752 169.79841 
L 377.40889 172.45953 
L 377.410722 175.12065 
L 377.411184 178.22529 
L 377.4099 180.88641 
L 377.407762 183.54753 
L 377.405931 186.20865 
L 377.405397 188.86977 
L 377.406452 191.53089 
L 377.408522 194.19201 
L 377.410486 196.85313 
L 377.41128 199.51425 
L 377.410472 202.17537 
L 377.408501 204.83649 
L 377.406435 207.49761 
L 377.405394 210.15873 
L 377.405942 212.81985 
L 377.40778 215.48097 
L 377.409909 218.14209 
L 377.411169 220.80321 
L 377.410654 223.90785 
L 377.408743 226.56897 
L 377.406452 229.23009 
L 377.40485 231.89121 
L 377.404445 234.55233 
L 377.404746 237.21345 
L 377.404211 239.87457 
L 377.400532 242.53569 
L 377.390935 245.19681 
L 377.372105 247.85793 
L 377.339432 250.51905 
L 377.28553 253.18017 
L 377.198212 255.84129 
L 377.058239 258.50241 
L 377.004401 259.151589 
L 376.814277 261.16353 
L 376.425522 263.82465 
L 375.716748 266.92929 
L 375.218801 268.379158 
L 374.736394 269.59041 
L 373.397489 271.956463 
L 373.201198 272.25153 
L 371.611889 273.988333 
L 370.604494 274.91265 
L 369.826289 275.448214 
L 368.040689 276.473788 
L 366.219377 277.334331 
L 365.601419 277.57377 
L 364.433777 277.924705 
L 362.648177 278.361681 
L 360.862577 278.714046 
L 359.041265 279.00095 
L 357.255665 279.223583 
L 355.470065 279.39873 
L 353.684465 279.535333 
L 351.863153 279.642783 
L 350.077553 279.723264 
L 348.291953 279.784361 
L 346.506353 279.83032 
L 344.685041 279.865158 
L 342.899441 279.890295 
L 341.113841 279.908679 
L 339.328241 279.922 
L 337.506929 279.931721 
L 335.721329 279.938473 
L 333.935729 279.943227 
L 332.150129 279.946544 
L 330.328817 279.948874 
L 328.543217 279.950431 
L 326.757617 279.951487 
L 324.972017 279.952196 
L 323.150705 279.952676 
L 321.365105 279.952984 
L 319.579505 279.953186 
L 317.793905 279.953316 
L 315.972593 279.953401 
L 314.186993 279.953453 
L 312.401393 279.953486 
L 310.615793 279.953506 
L 308.794481 279.953519 
L 307.008881 279.953527 
L 305.223281 279.953532 
L 303.437681 279.953535 
L 301.616369 279.953536 
L 299.830769 279.953537 
L 298.045169 279.953538 
L 296.259569 279.953538 
L 294.438257 279.953538 
L 292.652657 279.953538 
L 290.867057 279.953538 
L 289.081457 279.953538 
L 287.260145 279.953537 
L 285.474545 279.953537 
L 283.688945 279.953535 
L 281.903345 279.953533 
L 280.082033 279.953529 
L 278.296433 279.953523 
L 276.510833 279.953513 
L 274.725233 279.953497 
L 272.903921 279.95347 
L 271.118321 279.953427 
L 269.332721 279.95336 
L 267.547121 279.953255 
L 265.725809 279.953087 
L 263.940209 279.952833 
L 262.154609 279.952445 
L 260.369009 279.951861 
L 258.547697 279.950965 
L 256.762097 279.949659 
L 254.976497 279.947744 
L 253.190897 279.944959 
L 251.369585 279.940853 
L 249.583985 279.935094 
L 247.798385 279.926957 
L 246.012785 279.91557 
L 244.191473 279.899412 
L 242.405873 279.877594 
L 240.620273 279.847913 
L 238.834673 279.807911 
L 237.013361 279.753266 
L 235.227761 279.682203 
L 233.442161 279.589051 
L 231.656561 279.468037 
L 229.835249 279.308687 
L 228.049649 279.108825 
L 226.264049 278.855905 
L 224.478449 278.538481 
L 222.657137 278.134483 
L 220.871537 277.644202 
L 220.661051 277.57377 
L 219.085937 276.893639 
L 217.300337 275.955581 
L 215.660619 274.91265 
L 215.479025 274.758696 
L 213.693425 272.952486 
L 213.108107 272.25153 
L 211.907825 270.270847 
L 211.554768 269.59041 
L 210.580418 266.92929 
L 210.122225 265.043054 
L 209.86517 263.82465 
z
" clip-path="url(#pa72337b7a9)" style="fill: none; stroke: #08509b; stroke-width: 1.5"/>
   </g>
   <g id="PathCollection_9"/>
   <g id="patch_3">
    <path d="M 34.240625 288.21825 
L 34.240625 22.10625 
" style="fill: none; stroke: #000000; stroke-width: 0.8; stroke-linejoin: miter; stroke-linecap: square"/>
   </g>
   <g id="patch_4">
    <path d="M 391.360625 288.21825 
L 391.360625 22.10625 
" style="fill: none; stroke: #000000; stroke-width: 0.8; stroke-linejoin: miter; stroke-linecap: square"/>
   </g>
   <g id="patch_5">
    <path d="M 34.240625 288.21825 
L 391.360625 288.21825 
" style="fill: none; stroke: #000000; stroke-width: 0.8; stroke-linejoin: miter; stroke-linecap: square"/>
   </g>
   <g id="patch_6">
    <path d="M 34.240625 22.10625 
L 391.360625 22.10625 
" style="fill: none; stroke: #000000; stroke-width: 0.8; stroke-linejoin: miter; stroke-linecap: square"/>
   </g>
   <g id="text_16">
    <!-- 8.6_cross_-45.0 -->
    <g transform="translate(166.181563 16.10625)scale(0.12 -0.12)">
     <defs>
      <path id="DejaVuSans-2e" d="M 684 794 
L 1344 794 
L 1344 0 
L 684 0 
L 684 794 
z
" transform="scale(0.015625)"/>
      <path id="DejaVuSans-5f" d="M 3263 -1063 
L 3263 -1509 
L -63 -1509 
L -63 -1063 
L 3263 -1063 
z
" transform="scale(0.015625)"/>
      <path id="DejaVuSans-63" d="M 3122 3366 
L 3122 2828 
Q 2878 2963 2633 3030 
Q 2388 3097 2138 3097 
Q 1578 3097 1268 2742 
Q 959 2388 959 1747 
Q 959 1106 1268 751 
Q 1578 397 2138 397 
Q 2388 397 2633 464 
Q 2878 531 3122 666 
L 3122 134 
Q 2881 22 2623 -34 
Q 2366 -91 2075 -91 
Q 1284 -91 818 406 
Q 353 903 353 1747 
Q 353 2603 823 3093 
Q 1294 3584 2113 3584 
Q 2378 3584 2631 3529 
Q 2884 3475 3122 3366 
z
" transform="scale(0.015625)"/>
      <path id="DejaVuSans-72" d="M 2631 2963 
Q 2534 3019 2420 3045 
Q 2306 3072 2169 3072 
Q 1681 3072 1420 2755 
Q 1159 2438 1159 1844 
L 1159 0 
L 581 0 
L 581 3500 
L 1159 3500 
L 1159 2956 
Q 1341 3275 1631 3429 
Q 1922 3584 2338 3584 
Q 2397 3584 2469 3576 
Q 2541 3569 2628 3553 
L 2631 2963 
z
" transform="scale(0.015625)"/>
      <path id="DejaVuSans-73" d="M 2834 3397 
L 2834 2853 
Q 2591 2978 2328 3040 
Q 2066 3103 1784 3103 
Q 1356 3103 1142 2972 
Q 928 2841 928 2578 
Q 928 2378 1081 2264 
Q 1234 2150 1697 2047 
L 1894 2003 
Q 2506 1872 2764 1633 
Q 3022 1394 3022 966 
Q 3022 478 2636 193 
Q 2250 -91 1575 -91 
Q 1294 -91 989 -36 
Q 684 19 347 128 
L 347 722 
Q 666 556 975 473 
Q 1284 391 1588 391 
Q 1994 391 2212 530 
Q 2431 669 2431 922 
Q 2431 1156 2273 1281 
Q 2116 1406 1581 1522 
L 1381 1569 
Q 847 1681 609 1914 
Q 372 2147 372 2553 
Q 372 3047 722 3315 
Q 1072 3584 1716 3584 
Q 2034 3584 2315 3537 
Q 2597 3491 2834 3397 
z
" transform="scale(0.015625)"/>
      <path id="DejaVuSans-2d" d="M 313 2009 
L 1997 2009 
L 1997 1497 
L 313 1497 
L 313 2009 
z
" transform="scale(0.015625)"/>
     </defs>
     <use xlink:href="#DejaVuSans-38"/>
     <use xlink:href="#DejaVuSans-2e" x="63.623047"/>
     <use xlink:href="#DejaVuSans-36" x="95.410156"/>
     <use xlink:href="#DejaVuSans-5f" x="159.033203"/>
     <use xlink:href="#DejaVuSans-63" x="209.033203"/>
     <use xlink:href="#DejaVuSans-72" x="264.013672"/>
     <use xlink:href="#DejaVuSans-6f" x="302.876953"/>
     <use xlink:href="#DejaVuSans-73" x="364.058594"/>
     <use xlink:href="#DejaVuSans-73" x="416.158203"/>
     <use xlink:href="#DejaVuSans-5f" x="468.257812"/>
     <use xlink:href="#DejaVuSans-2d" x="518.257812"/>
     <use xlink:href="#DejaVuSans-34" x="554.341797"/>
     <use xlink:href="#DejaVuSans-35" x="617.964844"/>
     <use xlink:href="#DejaVuSans-2e" x="681.587891"/>
     <use xlink:href="#DejaVuSans-30" x="713.375"/>
    </g>
   </g>
  </g>
 </g>
 <defs>
  <clipPath id="pa72337b7a9">
   <rect x="34.240625" y="22.10625" width="357.12" height="266.112"/>
  </clipPath>
 </defs>
</svg>
