<?xml version="1.0" encoding="utf-8" standalone="no"?>
<!DOCTYPE svg PUBLIC "-//W3C//DTD SVG 1.1//EN"
  "http://www.w3.org/Graphics/SVG/1.1/DTD/svg11.dtd">
<svg xmlns:xlink="http://www.w3.org/1999/xlink" width="408.104375pt" height="325.7745pt" viewBox="0 0 408.104375 325.7745" xmlns="http://www.w3.org/2000/svg" version="1.1">
 <metadata>
  <rdf:RDF xmlns:dc="http://purl.org/dc/elements/1.1/" xmlns:cc="http://creativecommons.org/ns#" xmlns:rdf="http://www.w3.org/1999/02/22-rdf-syntax-ns#">
   <cc:Work>
    <dc:type rdf:resource="http://purl.org/dc/dcmitype/StillImage"/>
    <dc:date>2024-07-12T12:18:39.090855</dc:date>
    <dc:format>image/svg+xml</dc:format>
    <dc:creator>
     <cc:Agent>
      <dc:title>Matplotlib v3.5.3, https://matplotlib.org/</dc:title>
     </cc:Agent>
    </dc:creator>
   </cc:Work>
  </rdf:RDF>
 </metadata>
 <defs>
  <style type="text/css">*{stroke-linejoin: round; stroke-linecap: butt}</style>
 </defs>
 <g id="figure_1">
  <g id="patch_1">
   <path d="M 0 325.7745 
L 408.104375 325.7745 
L 408.104375 0 
L 0 0 
z
" style="fill: #ffffff"/>
  </g>
  <g id="axes_1">
   <g id="patch_2">
    <path d="M 34.240625 288.21825 
L 391.360625 288.21825 
L 391.360625 22.10625 
L 34.240625 22.10625 
z
" style="fill: #ffffff"/>
   </g>
   <g id="matplotlib.axis_1">
    <g id="xtick_1">
     <g id="line2d_1">
      <defs>
       <path id="m399c1baa15" d="M 0 0 
L 0 3.5 
" style="stroke: #000000; stroke-width: 0.8"/>
      </defs>
      <g>
       <use xlink:href="#m399c1baa15" x="34.240625" y="288.21825" style="stroke: #000000; stroke-width: 0.8"/>
      </g>
     </g>
     <g id="text_1">
      <!-- 0 -->
      <g transform="translate(31.059375 302.816687)scale(0.1 -0.1)">
       <defs>
        <path id="DejaVuSans-30" d="M 2034 4250 
Q 1547 4250 1301 3770 
Q 1056 3291 1056 2328 
Q 1056 1369 1301 889 
Q 1547 409 2034 409 
Q 2525 409 2770 889 
Q 3016 1369 3016 2328 
Q 3016 3291 2770 3770 
Q 2525 4250 2034 4250 
z
M 2034 4750 
Q 2819 4750 3233 4129 
Q 3647 3509 3647 2328 
Q 3647 1150 3233 529 
Q 2819 -91 2034 -91 
Q 1250 -91 836 529 
Q 422 1150 422 2328 
Q 422 3509 836 4129 
Q 1250 4750 2034 4750 
z
" transform="scale(0.015625)"/>
       </defs>
       <use xlink:href="#DejaVuSans-30"/>
      </g>
     </g>
    </g>
    <g id="xtick_2">
     <g id="line2d_2">
      <g>
       <use xlink:href="#m399c1baa15" x="105.664625" y="288.21825" style="stroke: #000000; stroke-width: 0.8"/>
      </g>
     </g>
     <g id="text_2">
      <!-- 20 -->
      <g transform="translate(99.302125 302.816687)scale(0.1 -0.1)">
       <defs>
        <path id="DejaVuSans-32" d="M 1228 531 
L 3431 531 
L 3431 0 
L 469 0 
L 469 531 
Q 828 903 1448 1529 
Q 2069 2156 2228 2338 
Q 2531 2678 2651 2914 
Q 2772 3150 2772 3378 
Q 2772 3750 2511 3984 
Q 2250 4219 1831 4219 
Q 1534 4219 1204 4116 
Q 875 4013 500 3803 
L 500 4441 
Q 881 4594 1212 4672 
Q 1544 4750 1819 4750 
Q 2544 4750 2975 4387 
Q 3406 4025 3406 3419 
Q 3406 3131 3298 2873 
Q 3191 2616 2906 2266 
Q 2828 2175 2409 1742 
Q 1991 1309 1228 531 
z
" transform="scale(0.015625)"/>
       </defs>
       <use xlink:href="#DejaVuSans-32"/>
       <use xlink:href="#DejaVuSans-30" x="63.623047"/>
      </g>
     </g>
    </g>
    <g id="xtick_3">
     <g id="line2d_3">
      <g>
       <use xlink:href="#m399c1baa15" x="177.088625" y="288.21825" style="stroke: #000000; stroke-width: 0.8"/>
      </g>
     </g>
     <g id="text_3">
      <!-- 40 -->
      <g transform="translate(170.726125 302.816687)scale(0.1 -0.1)">
       <defs>
        <path id="DejaVuSans-34" d="M 2419 4116 
L 825 1625 
L 2419 1625 
L 2419 4116 
z
M 2253 4666 
L 3047 4666 
L 3047 1625 
L 3713 1625 
L 3713 1100 
L 3047 1100 
L 3047 0 
L 2419 0 
L 2419 1100 
L 313 1100 
L 313 1709 
L 2253 4666 
z
" transform="scale(0.015625)"/>
       </defs>
       <use xlink:href="#DejaVuSans-34"/>
       <use xlink:href="#DejaVuSans-30" x="63.623047"/>
      </g>
     </g>
    </g>
    <g id="xtick_4">
     <g id="line2d_4">
      <g>
       <use xlink:href="#m399c1baa15" x="248.512625" y="288.21825" style="stroke: #000000; stroke-width: 0.8"/>
      </g>
     </g>
     <g id="text_4">
      <!-- 60 -->
      <g transform="translate(242.150125 302.816687)scale(0.1 -0.1)">
       <defs>
        <path id="DejaVuSans-36" d="M 2113 2584 
Q 1688 2584 1439 2293 
Q 1191 2003 1191 1497 
Q 1191 994 1439 701 
Q 1688 409 2113 409 
Q 2538 409 2786 701 
Q 3034 994 3034 1497 
Q 3034 2003 2786 2293 
Q 2538 2584 2113 2584 
z
M 3366 4563 
L 3366 3988 
Q 3128 4100 2886 4159 
Q 2644 4219 2406 4219 
Q 1781 4219 1451 3797 
Q 1122 3375 1075 2522 
Q 1259 2794 1537 2939 
Q 1816 3084 2150 3084 
Q 2853 3084 3261 2657 
Q 3669 2231 3669 1497 
Q 3669 778 3244 343 
Q 2819 -91 2113 -91 
Q 1303 -91 875 529 
Q 447 1150 447 2328 
Q 447 3434 972 4092 
Q 1497 4750 2381 4750 
Q 2619 4750 2861 4703 
Q 3103 4656 3366 4563 
z
" transform="scale(0.015625)"/>
       </defs>
       <use xlink:href="#DejaVuSans-36"/>
       <use xlink:href="#DejaVuSans-30" x="63.623047"/>
      </g>
     </g>
    </g>
    <g id="xtick_5">
     <g id="line2d_5">
      <g>
       <use xlink:href="#m399c1baa15" x="319.936625" y="288.21825" style="stroke: #000000; stroke-width: 0.8"/>
      </g>
     </g>
     <g id="text_5">
      <!-- 80 -->
      <g transform="translate(313.574125 302.816687)scale(0.1 -0.1)">
       <defs>
        <path id="DejaVuSans-38" d="M 2034 2216 
Q 1584 2216 1326 1975 
Q 1069 1734 1069 1313 
Q 1069 891 1326 650 
Q 1584 409 2034 409 
Q 2484 409 2743 651 
Q 3003 894 3003 1313 
Q 3003 1734 2745 1975 
Q 2488 2216 2034 2216 
z
M 1403 2484 
Q 997 2584 770 2862 
Q 544 3141 544 3541 
Q 544 4100 942 4425 
Q 1341 4750 2034 4750 
Q 2731 4750 3128 4425 
Q 3525 4100 3525 3541 
Q 3525 3141 3298 2862 
Q 3072 2584 2669 2484 
Q 3125 2378 3379 2068 
Q 3634 1759 3634 1313 
Q 3634 634 3220 271 
Q 2806 -91 2034 -91 
Q 1263 -91 848 271 
Q 434 634 434 1313 
Q 434 1759 690 2068 
Q 947 2378 1403 2484 
z
M 1172 3481 
Q 1172 3119 1398 2916 
Q 1625 2713 2034 2713 
Q 2441 2713 2670 2916 
Q 2900 3119 2900 3481 
Q 2900 3844 2670 4047 
Q 2441 4250 2034 4250 
Q 1625 4250 1398 4047 
Q 1172 3844 1172 3481 
z
" transform="scale(0.015625)"/>
       </defs>
       <use xlink:href="#DejaVuSans-38"/>
       <use xlink:href="#DejaVuSans-30" x="63.623047"/>
      </g>
     </g>
    </g>
    <g id="xtick_6">
     <g id="line2d_6">
      <g>
       <use xlink:href="#m399c1baa15" x="391.360625" y="288.21825" style="stroke: #000000; stroke-width: 0.8"/>
      </g>
     </g>
     <g id="text_6">
      <!-- 100 -->
      <g transform="translate(381.816875 302.816687)scale(0.1 -0.1)">
       <defs>
        <path id="DejaVuSans-31" d="M 794 531 
L 1825 531 
L 1825 4091 
L 703 3866 
L 703 4441 
L 1819 4666 
L 2450 4666 
L 2450 531 
L 3481 531 
L 3481 0 
L 794 0 
L 794 531 
z
" transform="scale(0.015625)"/>
       </defs>
       <use xlink:href="#DejaVuSans-31"/>
       <use xlink:href="#DejaVuSans-30" x="63.623047"/>
       <use xlink:href="#DejaVuSans-30" x="127.246094"/>
      </g>
     </g>
    </g>
    <g id="text_7">
     <!-- axialRotation -->
     <g transform="translate(180.024844 316.494812)scale(0.1 -0.1)">
      <defs>
       <path id="DejaVuSans-61" d="M 2194 1759 
Q 1497 1759 1228 1600 
Q 959 1441 959 1056 
Q 959 750 1161 570 
Q 1363 391 1709 391 
Q 2188 391 2477 730 
Q 2766 1069 2766 1631 
L 2766 1759 
L 2194 1759 
z
M 3341 1997 
L 3341 0 
L 2766 0 
L 2766 531 
Q 2569 213 2275 61 
Q 1981 -91 1556 -91 
Q 1019 -91 701 211 
Q 384 513 384 1019 
Q 384 1609 779 1909 
Q 1175 2209 1959 2209 
L 2766 2209 
L 2766 2266 
Q 2766 2663 2505 2880 
Q 2244 3097 1772 3097 
Q 1472 3097 1187 3025 
Q 903 2953 641 2809 
L 641 3341 
Q 956 3463 1253 3523 
Q 1550 3584 1831 3584 
Q 2591 3584 2966 3190 
Q 3341 2797 3341 1997 
z
" transform="scale(0.015625)"/>
       <path id="DejaVuSans-78" d="M 3513 3500 
L 2247 1797 
L 3578 0 
L 2900 0 
L 1881 1375 
L 863 0 
L 184 0 
L 1544 1831 
L 300 3500 
L 978 3500 
L 1906 2253 
L 2834 3500 
L 3513 3500 
z
" transform="scale(0.015625)"/>
       <path id="DejaVuSans-69" d="M 603 3500 
L 1178 3500 
L 1178 0 
L 603 0 
L 603 3500 
z
M 603 4863 
L 1178 4863 
L 1178 4134 
L 603 4134 
L 603 4863 
z
" transform="scale(0.015625)"/>
       <path id="DejaVuSans-6c" d="M 603 4863 
L 1178 4863 
L 1178 0 
L 603 0 
L 603 4863 
z
" transform="scale(0.015625)"/>
       <path id="DejaVuSans-52" d="M 2841 2188 
Q 3044 2119 3236 1894 
Q 3428 1669 3622 1275 
L 4263 0 
L 3584 0 
L 2988 1197 
Q 2756 1666 2539 1819 
Q 2322 1972 1947 1972 
L 1259 1972 
L 1259 0 
L 628 0 
L 628 4666 
L 2053 4666 
Q 2853 4666 3247 4331 
Q 3641 3997 3641 3322 
Q 3641 2881 3436 2590 
Q 3231 2300 2841 2188 
z
M 1259 4147 
L 1259 2491 
L 2053 2491 
Q 2509 2491 2742 2702 
Q 2975 2913 2975 3322 
Q 2975 3731 2742 3939 
Q 2509 4147 2053 4147 
L 1259 4147 
z
" transform="scale(0.015625)"/>
       <path id="DejaVuSans-6f" d="M 1959 3097 
Q 1497 3097 1228 2736 
Q 959 2375 959 1747 
Q 959 1119 1226 758 
Q 1494 397 1959 397 
Q 2419 397 2687 759 
Q 2956 1122 2956 1747 
Q 2956 2369 2687 2733 
Q 2419 3097 1959 3097 
z
M 1959 3584 
Q 2709 3584 3137 3096 
Q 3566 2609 3566 1747 
Q 3566 888 3137 398 
Q 2709 -91 1959 -91 
Q 1206 -91 779 398 
Q 353 888 353 1747 
Q 353 2609 779 3096 
Q 1206 3584 1959 3584 
z
" transform="scale(0.015625)"/>
       <path id="DejaVuSans-74" d="M 1172 4494 
L 1172 3500 
L 2356 3500 
L 2356 3053 
L 1172 3053 
L 1172 1153 
Q 1172 725 1289 603 
Q 1406 481 1766 481 
L 2356 481 
L 2356 0 
L 1766 0 
Q 1100 0 847 248 
Q 594 497 594 1153 
L 594 3053 
L 172 3053 
L 172 3500 
L 594 3500 
L 594 4494 
L 1172 4494 
z
" transform="scale(0.015625)"/>
       <path id="DejaVuSans-6e" d="M 3513 2113 
L 3513 0 
L 2938 0 
L 2938 2094 
Q 2938 2591 2744 2837 
Q 2550 3084 2163 3084 
Q 1697 3084 1428 2787 
Q 1159 2491 1159 1978 
L 1159 0 
L 581 0 
L 581 3500 
L 1159 3500 
L 1159 2956 
Q 1366 3272 1645 3428 
Q 1925 3584 2291 3584 
Q 2894 3584 3203 3211 
Q 3513 2838 3513 2113 
z
" transform="scale(0.015625)"/>
      </defs>
      <use xlink:href="#DejaVuSans-61"/>
      <use xlink:href="#DejaVuSans-78" x="61.279297"/>
      <use xlink:href="#DejaVuSans-69" x="120.458984"/>
      <use xlink:href="#DejaVuSans-61" x="148.242188"/>
      <use xlink:href="#DejaVuSans-6c" x="209.521484"/>
      <use xlink:href="#DejaVuSans-52" x="237.304688"/>
      <use xlink:href="#DejaVuSans-6f" x="302.287109"/>
      <use xlink:href="#DejaVuSans-74" x="363.46875"/>
      <use xlink:href="#DejaVuSans-61" x="402.677734"/>
      <use xlink:href="#DejaVuSans-74" x="463.957031"/>
      <use xlink:href="#DejaVuSans-69" x="503.166016"/>
      <use xlink:href="#DejaVuSans-6f" x="530.949219"/>
      <use xlink:href="#DejaVuSans-6e" x="592.130859"/>
     </g>
    </g>
   </g>
   <g id="matplotlib.axis_2">
    <g id="ytick_1">
     <g id="line2d_7">
      <defs>
       <path id="m0c4dfea358" d="M 0 0 
L -3.5 0 
" style="stroke: #000000; stroke-width: 0.8"/>
      </defs>
      <g>
       <use xlink:href="#m0c4dfea358" x="34.240625" y="288.21825" style="stroke: #000000; stroke-width: 0.8"/>
      </g>
     </g>
     <g id="text_8">
      <!-- 0 -->
      <g transform="translate(20.878125 292.017469)scale(0.1 -0.1)">
       <use xlink:href="#DejaVuSans-30"/>
      </g>
     </g>
    </g>
    <g id="ytick_2">
     <g id="line2d_8">
      <g>
       <use xlink:href="#m0c4dfea358" x="34.240625" y="243.86625" style="stroke: #000000; stroke-width: 0.8"/>
      </g>
     </g>
     <g id="text_9">
      <!-- 1 -->
      <g transform="translate(20.878125 247.665469)scale(0.1 -0.1)">
       <use xlink:href="#DejaVuSans-31"/>
      </g>
     </g>
    </g>
    <g id="ytick_3">
     <g id="line2d_9">
      <g>
       <use xlink:href="#m0c4dfea358" x="34.240625" y="199.51425" style="stroke: #000000; stroke-width: 0.8"/>
      </g>
     </g>
     <g id="text_10">
      <!-- 2 -->
      <g transform="translate(20.878125 203.313469)scale(0.1 -0.1)">
       <use xlink:href="#DejaVuSans-32"/>
      </g>
     </g>
    </g>
    <g id="ytick_4">
     <g id="line2d_10">
      <g>
       <use xlink:href="#m0c4dfea358" x="34.240625" y="155.16225" style="stroke: #000000; stroke-width: 0.8"/>
      </g>
     </g>
     <g id="text_11">
      <!-- 3 -->
      <g transform="translate(20.878125 158.961469)scale(0.1 -0.1)">
       <defs>
        <path id="DejaVuSans-33" d="M 2597 2516 
Q 3050 2419 3304 2112 
Q 3559 1806 3559 1356 
Q 3559 666 3084 287 
Q 2609 -91 1734 -91 
Q 1441 -91 1130 -33 
Q 819 25 488 141 
L 488 750 
Q 750 597 1062 519 
Q 1375 441 1716 441 
Q 2309 441 2620 675 
Q 2931 909 2931 1356 
Q 2931 1769 2642 2001 
Q 2353 2234 1838 2234 
L 1294 2234 
L 1294 2753 
L 1863 2753 
Q 2328 2753 2575 2939 
Q 2822 3125 2822 3475 
Q 2822 3834 2567 4026 
Q 2313 4219 1838 4219 
Q 1578 4219 1281 4162 
Q 984 4106 628 3988 
L 628 4550 
Q 988 4650 1302 4700 
Q 1616 4750 1894 4750 
Q 2613 4750 3031 4423 
Q 3450 4097 3450 3541 
Q 3450 3153 3228 2886 
Q 3006 2619 2597 2516 
z
" transform="scale(0.015625)"/>
       </defs>
       <use xlink:href="#DejaVuSans-33"/>
      </g>
     </g>
    </g>
    <g id="ytick_5">
     <g id="line2d_11">
      <g>
       <use xlink:href="#m0c4dfea358" x="34.240625" y="110.81025" style="stroke: #000000; stroke-width: 0.8"/>
      </g>
     </g>
     <g id="text_12">
      <!-- 4 -->
      <g transform="translate(20.878125 114.609469)scale(0.1 -0.1)">
       <use xlink:href="#DejaVuSans-34"/>
      </g>
     </g>
    </g>
    <g id="ytick_6">
     <g id="line2d_12">
      <g>
       <use xlink:href="#m0c4dfea358" x="34.240625" y="66.45825" style="stroke: #000000; stroke-width: 0.8"/>
      </g>
     </g>
     <g id="text_13">
      <!-- 5 -->
      <g transform="translate(20.878125 70.257469)scale(0.1 -0.1)">
       <defs>
        <path id="DejaVuSans-35" d="M 691 4666 
L 3169 4666 
L 3169 4134 
L 1269 4134 
L 1269 2991 
Q 1406 3038 1543 3061 
Q 1681 3084 1819 3084 
Q 2600 3084 3056 2656 
Q 3513 2228 3513 1497 
Q 3513 744 3044 326 
Q 2575 -91 1722 -91 
Q 1428 -91 1123 -41 
Q 819 9 494 109 
L 494 744 
Q 775 591 1075 516 
Q 1375 441 1709 441 
Q 2250 441 2565 725 
Q 2881 1009 2881 1497 
Q 2881 1984 2565 2268 
Q 2250 2553 1709 2553 
Q 1456 2553 1204 2497 
Q 953 2441 691 2322 
L 691 4666 
z
" transform="scale(0.015625)"/>
       </defs>
       <use xlink:href="#DejaVuSans-35"/>
      </g>
     </g>
    </g>
    <g id="ytick_7">
     <g id="line2d_13">
      <g>
       <use xlink:href="#m0c4dfea358" x="34.240625" y="22.10625" style="stroke: #000000; stroke-width: 0.8"/>
      </g>
     </g>
     <g id="text_14">
      <!-- 6 -->
      <g transform="translate(20.878125 25.905469)scale(0.1 -0.1)">
       <use xlink:href="#DejaVuSans-36"/>
      </g>
     </g>
    </g>
    <g id="text_15">
     <!-- zShift -->
     <g transform="translate(14.798438 169.151312)rotate(-90)scale(0.1 -0.1)">
      <defs>
       <path id="DejaVuSans-7a" d="M 353 3500 
L 3084 3500 
L 3084 2975 
L 922 459 
L 3084 459 
L 3084 0 
L 275 0 
L 275 525 
L 2438 3041 
L 353 3041 
L 353 3500 
z
" transform="scale(0.015625)"/>
       <path id="DejaVuSans-53" d="M 3425 4513 
L 3425 3897 
Q 3066 4069 2747 4153 
Q 2428 4238 2131 4238 
Q 1616 4238 1336 4038 
Q 1056 3838 1056 3469 
Q 1056 3159 1242 3001 
Q 1428 2844 1947 2747 
L 2328 2669 
Q 3034 2534 3370 2195 
Q 3706 1856 3706 1288 
Q 3706 609 3251 259 
Q 2797 -91 1919 -91 
Q 1588 -91 1214 -16 
Q 841 59 441 206 
L 441 856 
Q 825 641 1194 531 
Q 1563 422 1919 422 
Q 2459 422 2753 634 
Q 3047 847 3047 1241 
Q 3047 1584 2836 1778 
Q 2625 1972 2144 2069 
L 1759 2144 
Q 1053 2284 737 2584 
Q 422 2884 422 3419 
Q 422 4038 858 4394 
Q 1294 4750 2059 4750 
Q 2388 4750 2728 4690 
Q 3069 4631 3425 4513 
z
" transform="scale(0.015625)"/>
       <path id="DejaVuSans-68" d="M 3513 2113 
L 3513 0 
L 2938 0 
L 2938 2094 
Q 2938 2591 2744 2837 
Q 2550 3084 2163 3084 
Q 1697 3084 1428 2787 
Q 1159 2491 1159 1978 
L 1159 0 
L 581 0 
L 581 4863 
L 1159 4863 
L 1159 2956 
Q 1366 3272 1645 3428 
Q 1925 3584 2291 3584 
Q 2894 3584 3203 3211 
Q 3513 2838 3513 2113 
z
" transform="scale(0.015625)"/>
       <path id="DejaVuSans-66" d="M 2375 4863 
L 2375 4384 
L 1825 4384 
Q 1516 4384 1395 4259 
Q 1275 4134 1275 3809 
L 1275 3500 
L 2222 3500 
L 2222 3053 
L 1275 3053 
L 1275 0 
L 697 0 
L 697 3053 
L 147 3053 
L 147 3500 
L 697 3500 
L 697 3744 
Q 697 4328 969 4595 
Q 1241 4863 1831 4863 
L 2375 4863 
z
" transform="scale(0.015625)"/>
      </defs>
      <use xlink:href="#DejaVuSans-7a"/>
      <use xlink:href="#DejaVuSans-53" x="52.490234"/>
      <use xlink:href="#DejaVuSans-68" x="115.966797"/>
      <use xlink:href="#DejaVuSans-69" x="179.345703"/>
      <use xlink:href="#DejaVuSans-66" x="207.128906"/>
      <use xlink:href="#DejaVuSans-74" x="240.583984"/>
     </g>
    </g>
   </g>
   <g id="PathCollection_1"/>
   <g id="PathCollection_2">
    <path d="M 54.392855 22.10625 
L 55.410134 24.76737 
L 55.774961 25.994526 
L 56.19316 27.42849 
L 56.790366 30.08961 
L 57.234667 32.75073 
L 57.560561 35.408956 
L 57.560925 35.41185 
L 57.808181 38.07297 
L 57.983442 40.73409 
L 58.104909 43.39521 
L 58.197671 46.49985 
L 58.247884 49.16097 
L 58.279936 51.82209 
L 58.299998 54.48321 
L 58.312427 57.14433 
L 58.320093 59.80545 
L 58.324745 62.46657 
L 58.327397 65.12769 
L 58.328669 67.78881 
L 58.32904 70.44993 
L 58.328952 73.11105 
L 58.328799 75.77217 
L 58.328844 78.43329 
L 58.329155 81.09441 
L 58.329608 83.75553 
L 58.329979 86.41665 
L 58.330062 89.52129 
L 58.329794 92.18241 
L 58.32936 94.84353 
L 58.328998 97.50465 
L 58.328902 100.16577 
L 58.329126 102.82689 
L 58.329549 105.48801 
L 58.32994 108.14913 
L 58.330088 110.81025 
L 58.329913 113.47137 
L 58.32951 116.13249 
L 58.329097 118.79361 
L 58.328897 121.45473 
L 58.329021 124.11585 
L 58.329399 126.77697 
L 58.329828 129.43809 
L 58.330074 132.09921 
L 58.329963 135.20385 
L 58.329584 137.86497 
L 58.329156 140.52609 
L 58.328909 143.18721 
L 58.328978 145.84833 
L 58.329326 148.50945 
L 58.329763 151.17057 
L 58.330053 153.83169 
L 58.330039 156.49281 
L 58.329728 159.15393 
L 58.329289 161.81505 
L 58.32896 164.47617 
L 58.328919 167.13729 
L 58.329188 169.79841 
L 58.329623 172.45953 
L 58.329986 175.12065 
L 58.330065 178.22529 
L 58.329795 180.88641 
L 58.329361 183.54753 
L 58.328998 186.20865 
L 58.328902 188.86977 
L 58.329126 191.53089 
L 58.329549 194.19201 
L 58.32994 196.85313 
L 58.330088 199.51425 
L 58.329913 202.17537 
L 58.32951 204.83649 
L 58.329096 207.49761 
L 58.328897 210.15873 
L 58.32902 212.81985 
L 58.329399 215.48097 
L 58.329827 218.14209 
L 58.330072 220.80321 
L 58.329956 223.90785 
L 58.329568 226.56897 
L 58.32912 229.23009 
L 58.328829 231.89121 
L 58.328807 234.55233 
L 58.328967 237.21345 
L 58.329032 239.87457 
L 58.328601 242.53569 
L 58.327229 245.19681 
L 58.324433 247.85793 
L 58.319569 250.51905 
L 58.311574 253.18017 
L 58.298619 255.84129 
L 58.277719 258.50241 
L 58.244378 261.16353 
L 58.192257 263.82465 
L 58.096235 266.92929 
L 57.970838 269.59041 
L 57.790342 272.25153 
L 57.560561 274.662063 
L 57.537398 274.91265 
L 57.20293 277.57377 
L 56.74835 280.23489 
L 56.138501 282.89601 
L 55.774961 284.123903 
L 55.342534 285.55713 
L 54.308195 288.21825 
" clip-path="url(#pad2dbb0eca)" style="fill: none; stroke: #dbe9f6; stroke-width: 1.5"/>
    <path d="M 189.815628 288.21825 
L 189.01845 285.55713 
L 187.879798 280.23489 
L 187.15663 274.91265 
L 186.250928 266.92929 
L 185.765347 263.82465 
L 184.980977 260.330201 
L 184.424046 258.50241 
L 183.195377 255.515257 
L 181.409777 252.491242 
L 179.588465 250.130988 
L 177.423351 247.85793 
L 174.231665 245.041259 
L 168.839153 240.589821 
L 167.053553 238.976488 
L 165.232241 237.162825 
L 162.973714 234.55233 
L 161.142921 231.89121 
L 159.753628 229.23009 
L 158.739277 226.56897 
L 158.054129 223.425225 
L 157.758018 220.80321 
L 157.790992 218.14209 
L 158.104094 215.48097 
L 158.642573 212.81985 
L 159.875441 208.869435 
L 160.348978 207.49761 
L 165.586339 194.19201 
L 166.37167 191.53089 
L 167.053553 188.807507 
L 167.920175 183.54753 
L 168.416717 178.22529 
L 168.674188 172.45953 
L 168.80908 161.81505 
L 169.038683 108.14913 
L 169.298281 102.82689 
L 169.789258 97.50465 
L 170.647664 92.18241 
L 171.216047 89.52129 
L 172.410353 85.397217 
L 172.942144 83.75553 
L 175.112091 78.43329 
L 177.802865 72.980146 
L 181.6701 65.12769 
L 183.195377 61.321658 
L 183.720137 59.80545 
L 184.980977 55.175287 
L 185.13665 54.48321 
L 185.983932 49.16097 
L 186.567354 43.39521 
L 187.550616 32.75073 
L 187.944702 30.08961 
L 188.587889 26.908655 
L 189.091541 24.76737 
L 189.90471 22.10625 
L 189.90471 22.10625 
" clip-path="url(#pad2dbb0eca)" style="fill: none; stroke: #dbe9f6; stroke-width: 1.5"/>
   </g>
   <g id="PathCollection_3">
    <path d="M 34.240625 26.248625 
L 36.026225 26.491914 
L 37.847537 27.266923 
L 38.074301 27.42849 
L 39.633137 28.811351 
L 40.650587 30.08961 
L 41.418737 31.339845 
L 42.097961 32.75073 
L 43.052339 35.41185 
L 43.204337 35.99056 
L 43.665248 38.07297 
L 44.084402 40.73409 
L 44.375001 43.39521 
L 44.597031 46.49985 
L 44.717285 49.16097 
L 44.794081 51.82209 
L 44.842165 54.48321 
L 44.871957 57.14433 
L 44.890334 59.80545 
L 44.901496 62.46657 
L 44.907872 65.12769 
L 44.910951 67.78881 
L 44.911868 70.44993 
L 44.911675 73.11105 
L 44.911307 75.77217 
L 44.911399 78.43329 
L 44.912122 81.09441 
L 44.913193 83.75553 
L 44.914084 86.41665 
L 44.914302 89.52129 
L 44.913681 92.18241 
L 44.912657 94.84353 
L 44.911787 97.50465 
L 44.911543 100.16577 
L 44.912058 102.82689 
L 44.913053 105.48801 
L 44.913988 108.14913 
L 44.914357 110.81025 
L 44.91396 113.47137 
L 44.913012 116.13249 
L 44.912026 118.79361 
L 44.911538 121.45473 
L 44.911812 124.11585 
L 44.912699 126.77697 
L 44.913718 129.43809 
L 44.914318 132.09921 
L 44.914075 135.20385 
L 44.913188 137.86497 
L 44.912169 140.52609 
L 44.911569 143.18721 
L 44.911714 145.84833 
L 44.912526 148.50945 
L 44.913564 151.17057 
L 44.914265 153.83169 
L 44.91425 156.49281 
L 44.913527 159.15393 
L 44.912487 161.81505 
L 44.911695 164.47617 
L 44.911579 167.13729 
L 44.912203 169.79841 
L 44.913228 172.45953 
L 44.914099 175.12065 
L 44.914308 178.22529 
L 44.913684 180.88641 
L 44.912658 183.54753 
L 44.911788 186.20865 
L 44.911543 188.86977 
L 44.912058 191.53089 
L 44.913053 194.19201 
L 44.913988 196.85313 
L 44.914357 199.51425 
L 44.91396 202.17537 
L 44.913012 204.83649 
L 44.912026 207.49761 
L 44.911538 210.15873 
L 44.911811 212.81985 
L 44.912698 215.48097 
L 44.913716 218.14209 
L 44.914312 220.80321 
L 44.914059 223.90785 
L 44.913151 226.56897 
L 44.912085 229.23009 
L 44.911384 231.89121 
L 44.911316 234.55233 
L 44.911691 237.21345 
L 44.91186 239.87457 
L 44.910879 242.53569 
L 44.907696 245.19681 
L 44.901168 247.85793 
L 44.889784 250.51905 
L 44.871063 253.18017 
L 44.840723 255.84129 
L 44.791773 258.50241 
L 44.713657 261.16353 
L 44.591485 263.82465 
L 44.366277 266.92929 
L 44.072036 269.59041 
L 43.648368 272.25153 
L 43.204337 274.240966 
L 43.026641 274.91265 
L 42.066602 277.57377 
L 41.418737 278.915534 
L 40.607911 280.23489 
L 39.633137 281.461811 
L 38.028095 282.89601 
L 37.847537 283.025816 
L 36.026225 283.815963 
L 34.240625 284.075875 
" clip-path="url(#pad2dbb0eca)" style="fill: none; stroke: #bad6eb; stroke-width: 1.5"/>
    <path d="M 200.538418 288.21825 
L 199.337201 285.451164 
L 198.466345 282.89601 
L 197.551601 279.113676 
L 197.240778 277.57377 
L 196.489442 272.25153 
L 195.211907 261.16353 
L 194.727196 258.50241 
L 193.944689 255.379168 
L 193.212359 253.18017 
L 192.063147 250.51905 
L 190.373489 247.622447 
L 188.571493 245.19681 
L 186.103058 242.53569 
L 183.195377 239.857751 
L 177.072529 234.55233 
L 174.231665 231.620211 
L 172.363804 229.23009 
L 170.624753 226.128909 
L 169.744077 223.90785 
L 169.074361 220.80321 
L 168.924648 218.14209 
L 169.11122 215.48097 
L 169.583909 212.81985 
L 170.624753 209.155796 
L 172.122033 204.83649 
L 174.231665 198.988661 
L 175.672899 194.19201 
L 176.305334 191.53089 
L 177.207125 186.20865 
L 177.733163 180.88641 
L 178.008701 175.12065 
L 178.14633 167.13729 
L 178.185335 143.18721 
L 178.29474 113.47137 
L 178.590768 105.48801 
L 179.045934 100.16577 
L 179.848196 94.84353 
L 180.414934 92.18241 
L 181.409777 88.650659 
L 182.135505 86.41665 
L 183.195377 83.704337 
L 184.980977 79.754492 
L 186.97718 75.77217 
L 190.373489 68.959439 
L 192.013533 65.12769 
L 192.950116 62.46657 
L 193.944689 58.960364 
L 194.367907 57.14433 
L 195.25528 51.82209 
L 195.820857 46.49985 
L 196.556418 38.07297 
L 197.290423 32.75073 
L 197.827364 30.08961 
L 198.525538 27.42849 
L 199.444218 24.76737 
L 200.624224 22.10625 
L 200.624224 22.10625 
" clip-path="url(#pad2dbb0eca)" style="fill: none; stroke: #bad6eb; stroke-width: 1.5"/>
   </g>
   <g id="PathCollection_4">
    <path d="M 210.068356 288.21825 
L 208.27567 285.55713 
L 206.949983 282.89601 
L 205.957158 280.23489 
L 205.215001 277.57377 
L 204.656551 274.91265 
L 203.898048 269.59041 
L 202.631818 258.50241 
L 202.163086 255.84129 
L 201.122801 251.747252 
L 200.742376 250.51905 
L 199.337201 247.135317 
L 198.333689 245.19681 
L 196.615075 242.53569 
L 194.487037 239.87457 
L 191.94969 237.21345 
L 183.195377 228.79102 
L 181.409777 226.567938 
L 179.832475 223.90785 
L 178.693644 220.80321 
L 178.249964 218.14209 
L 178.221327 215.48097 
L 178.528078 212.81985 
L 179.086959 210.15873 
L 180.630758 204.83649 
L 182.261528 199.51425 
L 183.607669 194.19201 
L 184.544098 188.86977 
L 185.113217 183.54753 
L 185.418443 178.22529 
L 185.609841 169.79841 
L 185.662944 151.17057 
L 185.746881 116.13249 
L 185.990173 108.14913 
L 186.385758 102.82689 
L 187.113515 97.50465 
L 187.647949 94.84353 
L 188.587889 91.310397 
L 189.14533 89.52129 
L 190.373489 86.255478 
L 192.734022 81.09441 
L 198.046506 70.44993 
L 199.337201 67.32445 
L 200.134411 65.12769 
L 201.122801 61.784234 
L 201.6166 59.80545 
L 202.573286 54.48321 
L 203.181376 49.16097 
L 204.27573 38.07297 
L 204.729713 35.244351 
L 205.25561 32.75073 
L 206.003751 30.08961 
L 207.006724 27.42849 
L 208.345342 24.76737 
L 210.152809 22.10625 
L 210.152809 22.10625 
" clip-path="url(#pad2dbb0eca)" style="fill: none; stroke: #89bedc; stroke-width: 1.5"/>
   </g>
   <g id="PathCollection_5">
    <path d="M 222.190977 288.21825 
L 220.871537 287.343275 
L 218.623194 285.55713 
L 216.287081 282.89601 
L 214.659952 280.23489 
L 213.493772 277.57377 
L 212.665941 274.91265 
L 211.907825 271.438299 
L 211.255431 266.92929 
L 209.955463 255.84129 
L 209.493377 253.18017 
L 208.893093 250.51905 
L 208.117363 247.85793 
L 207.136989 245.19681 
L 205.896877 242.53569 
L 204.356515 239.87457 
L 202.481239 237.21345 
L 200.26118 234.55233 
L 197.551601 231.682667 
L 192.629412 226.56897 
L 190.373489 223.635265 
L 188.587889 220.221403 
L 187.91198 218.14209 
L 187.528094 215.48097 
L 187.54625 212.81985 
L 187.862544 210.15873 
L 188.587889 206.583907 
L 191.390877 194.19201 
L 192.159089 188.774929 
L 192.623004 183.54753 
L 192.875854 178.22529 
L 193.035502 169.79841 
L 193.080412 148.50945 
L 193.180851 116.13249 
L 193.47475 108.14913 
L 193.947571 102.82689 
L 194.331598 100.16577 
L 194.831109 97.50465 
L 195.766001 93.799076 
L 196.254996 92.18241 
L 197.551601 88.686267 
L 199.337201 84.673201 
L 201.122801 81.087075 
L 204.729713 73.895904 
L 206.234774 70.44993 
L 207.23222 67.78881 
L 208.300913 64.262666 
L 208.778092 62.46657 
L 209.350551 59.80545 
L 210.167612 54.48321 
L 210.98174 46.49985 
L 211.634808 40.73409 
L 212.081065 38.07297 
L 212.697186 35.41185 
L 213.693425 32.349745 
L 214.703949 30.08961 
L 216.342312 27.42849 
L 217.300337 26.259343 
L 219.085937 24.419318 
L 220.871537 23.037406 
L 222.273034 22.10625 
L 222.273034 22.10625 
" clip-path="url(#pad2dbb0eca)" style="fill: none; stroke: #539ecd; stroke-width: 1.5"/>
    <path d="M 381.968909 22.10625 
L 382.396913 22.371307 
L 384.182513 23.645819 
L 385.53455 24.76737 
L 385.968113 25.206213 
L 387.753713 27.266252 
L 387.87898 27.42849 
L 389.49881 30.08961 
L 389.575025 30.253099 
L 390.635251 32.75073 
L 391.360625 35.065956 
" clip-path="url(#pad2dbb0eca)" style="fill: none; stroke: #539ecd; stroke-width: 1.5"/>
    <path d="M 391.360625 275.175437 
L 390.602947 277.57377 
L 389.575025 279.97974 
L 389.455378 280.23489 
L 387.826541 282.89601 
L 387.753713 282.990054 
L 385.968113 285.048451 
L 385.465008 285.55713 
L 384.182513 286.621104 
L 382.396913 287.898927 
L 381.882449 288.21825 
" clip-path="url(#pad2dbb0eca)" style="fill: none; stroke: #539ecd; stroke-width: 1.5"/>
   </g>
   <g id="PathCollection_6">
    <path d="M 199.139785 215.48097 
L 198.682264 212.81985 
L 198.592847 210.15873 
L 198.767122 207.49761 
L 199.101066 204.83649 
L 199.337201 203.325731 
L 199.524207 202.17537 
L 199.981701 199.51425 
L 200.410651 196.85313 
L 200.787957 194.19201 
L 201.103979 191.53089 
L 201.122801 191.337389 
L 201.380146 188.86977 
L 201.595226 186.20865 
L 201.756311 183.54753 
L 201.873677 180.88641 
L 201.957401 178.22529 
L 202.024105 175.12065 
L 202.062298 172.45953 
L 202.087847 169.79841 
L 202.103908 167.13729 
L 202.112918 164.47617 
L 202.117094 161.81505 
L 202.118574 159.15393 
L 202.119209 156.49281 
L 202.120211 153.83169 
L 202.12193 151.17057 
L 202.123939 148.50945 
L 202.125443 145.84833 
L 202.125829 143.18721 
L 202.125084 140.52609 
L 202.123901 137.86497 
L 202.123425 135.20385 
L 202.125326 132.09921 
L 202.130072 129.43809 
L 202.13843 126.77697 
L 202.151483 124.11585 
L 202.171541 121.45473 
L 202.202997 118.79361 
L 202.252927 116.13249 
L 202.33131 113.47137 
L 202.45089 110.81025 
L 202.626759 108.14913 
L 202.875721 105.48801 
L 202.944113 104.955275 
L 203.241274 102.82689 
L 203.728702 100.16577 
L 204.344144 97.50465 
L 204.729713 96.148973 
L 205.126699 94.84353 
L 206.078211 92.18241 
L 206.515313 91.109424 
L 207.194041 89.52129 
L 208.300913 87.150577 
L 208.653587 86.41665 
L 209.993459 83.75553 
L 210.122225 83.503011 
L 211.372764 81.09441 
L 211.907825 80.019335 
L 212.707515 78.43329 
L 213.693425 76.306336 
L 213.944346 75.77217 
L 215.074516 73.11105 
L 215.479025 72.012876 
L 216.067928 70.44993 
L 216.912252 67.78881 
L 217.300337 66.310038 
L 217.623283 65.12769 
L 218.220386 62.46657 
L 218.695542 59.80545 
L 219.075205 57.14433 
L 219.085937 57.054042 
L 219.414103 54.48321 
L 219.708887 51.82209 
L 219.992542 49.16097 
L 220.303536 46.49985 
L 220.760597 43.39521 
L 220.871537 42.839092 
L 221.337296 40.73409 
L 222.143097 38.07297 
L 222.657137 36.828694 
L 223.320522 35.41185 
L 224.478449 33.576684 
L 225.079198 32.75073 
L 226.264049 31.508593 
L 227.850854 30.08961 
L 228.049649 29.949914 
L 229.835249 28.877537 
L 231.656561 27.96409 
L 232.939055 27.42849 
L 233.442161 27.257332 
L 235.227761 26.751342 
L 237.013361 26.33604 
L 238.834673 25.991543 
L 240.620273 25.719034 
L 242.405873 25.500436 
L 244.191473 25.326537 
L 246.012785 25.186965 
L 247.798385 25.08028 
L 249.583985 24.997647 
L 251.369585 24.934233 
L 253.190897 24.885192 
L 254.976497 24.849099 
L 256.762097 24.822186 
L 258.547697 24.802312 
L 260.369009 24.787532 
L 262.154609 24.777077 
L 263.940209 24.769581 
L 264.682222 24.76737 
L 265.725809 24.76473 
L 267.547121 24.761503 
L 269.332721 24.75931 
L 271.118321 24.757798 
L 272.903921 24.756767 
L 274.725233 24.75606 
L 276.510833 24.755597 
L 278.296433 24.755291 
L 280.082033 24.755091 
L 281.903345 24.754958 
L 283.688945 24.754875 
L 285.474545 24.754822 
L 287.260145 24.754789 
L 289.081457 24.754768 
L 290.867057 24.754755 
L 292.652657 24.754748 
L 294.438257 24.754743 
L 296.259569 24.75474 
L 298.045169 24.754738 
L 299.830769 24.754738 
L 301.616369 24.754737 
L 303.437681 24.754737 
L 305.223281 24.754738 
L 307.008881 24.754739 
L 308.794481 24.754741 
L 310.615793 24.754745 
L 312.401393 24.754751 
L 314.186993 24.754761 
L 315.972593 24.754776 
L 317.793905 24.754803 
L 319.579505 24.754844 
L 321.365105 24.754909 
L 323.150705 24.755011 
L 324.972017 24.755173 
L 326.757617 24.755417 
L 328.543217 24.755788 
L 330.328817 24.756345 
L 332.150129 24.757195 
L 333.935729 24.758427 
L 335.721329 24.760225 
L 337.506929 24.762822 
L 339.328241 24.766627 
L 339.578774 24.76737 
L 341.113841 24.772737 
L 342.899441 24.781492 
L 344.685041 24.79365 
L 346.506353 24.810756 
L 348.291953 24.833656 
L 350.077553 24.864529 
L 351.863153 24.905751 
L 353.684465 24.961517 
L 355.470065 25.033318 
L 357.255665 25.126492 
L 359.041265 25.2463 
L 360.862577 25.402423 
L 362.648177 25.596208 
L 364.433777 25.838935 
L 366.219377 26.140508 
L 368.040689 26.520542 
L 369.826289 26.97736 
L 371.280199 27.42849 
L 371.611889 27.554821 
L 373.397489 28.369043 
L 375.218801 29.367751 
L 376.326973 30.08961 
L 377.004401 30.651692 
L 378.790001 32.39303 
L 379.106097 32.75073 
L 380.575601 34.946032 
L 380.847063 35.41185 
L 381.989914 38.07297 
L 382.396913 39.401057 
L 382.76029 40.73409 
L 383.266514 43.39521 
L 383.653423 46.49985 
L 383.863044 49.16097 
L 383.996943 51.82209 
L 384.080795 54.48321 
L 384.132753 57.14433 
L 384.164804 59.80545 
L 384.182513 62.22556 
L 384.184119 62.46657 
L 384.194261 65.12769 
L 384.199169 67.78881 
L 384.200642 70.44993 
L 384.200345 73.11105 
L 384.199761 75.77217 
L 384.199898 78.43329 
L 384.201034 81.09441 
L 384.202727 83.75553 
L 384.204143 86.41665 
L 384.2045 89.52129 
L 384.203526 92.18241 
L 384.201908 94.84353 
L 384.200526 97.50465 
L 384.20013 100.16577 
L 384.200935 102.82689 
L 384.202506 105.48801 
L 384.20399 108.14913 
L 384.204584 110.81025 
L 384.203965 113.47137 
L 384.202469 116.13249 
L 384.200907 118.79361 
L 384.200125 121.45473 
L 384.200548 124.11585 
L 384.201946 126.77697 
L 384.203561 129.43809 
L 384.204518 132.09921 
L 384.204146 135.20385 
L 384.202748 137.86497 
L 384.201133 140.52609 
L 384.200175 143.18721 
L 384.200395 145.84833 
L 384.201673 148.50945 
L 384.203316 151.17057 
L 384.204433 153.83169 
L 384.20442 156.49281 
L 384.203283 159.15393 
L 384.201638 161.81505 
L 384.200378 164.47617 
L 384.200185 167.13729 
L 384.201164 169.79841 
L 384.202784 172.45953 
L 384.204167 175.12065 
L 384.204509 178.22529 
L 384.20353 180.88641 
L 384.201909 183.54753 
L 384.200526 186.20865 
L 384.20013 188.86977 
L 384.200935 191.53089 
L 384.202506 194.19201 
L 384.20399 196.85313 
L 384.204584 199.51425 
L 384.203965 202.17537 
L 384.202469 204.83649 
L 384.200907 207.49761 
L 384.200125 210.15873 
L 384.200547 212.81985 
L 384.201944 215.48097 
L 384.203557 218.14209 
L 384.204509 220.80321 
L 384.204121 223.90785 
L 384.20269 226.56897 
L 384.201001 229.23009 
L 384.199884 231.89121 
L 384.199768 234.55233 
L 384.200359 237.21345 
L 384.200635 239.87457 
L 384.199104 242.53569 
L 384.194102 245.19681 
L 384.183822 247.85793 
L 384.182513 248.052128 
L 384.164257 250.51905 
L 384.131864 253.18017 
L 384.079362 255.84129 
L 383.994652 258.50241 
L 383.859449 261.16353 
L 383.647943 263.82465 
L 383.257942 266.92929 
L 382.748229 269.59041 
L 382.396913 270.871926 
L 381.971888 272.25153 
L 380.824004 274.91265 
L 380.575601 275.3376 
L 379.075189 277.57377 
L 378.790001 277.896062 
L 377.004401 279.63709 
L 376.284139 280.23489 
L 375.218801 280.929577 
L 373.397489 281.930589 
L 371.611889 282.747454 
L 371.223237 282.89601 
L 369.826289 283.331216 
L 368.040689 283.790349 
L 366.219377 284.172581 
L 364.433777 284.476101 
L 362.648177 284.720545 
L 360.862577 284.915815 
L 359.041265 285.073223 
L 357.255665 285.194081 
L 355.470065 285.288118 
L 353.684465 285.360618 
L 351.863153 285.416954 
L 350.077553 285.458616 
L 348.291953 285.489832 
L 346.506353 285.512995 
L 344.685041 285.530306 
L 342.899441 285.542613 
L 341.113841 285.55148 
L 339.51882 285.55713 
L 339.328241 285.557703 
L 337.506929 285.561559 
L 335.721329 285.564192 
L 333.935729 285.566016 
L 332.150129 285.567266 
L 330.328817 285.568129 
L 328.543217 285.568695 
L 326.757617 285.569071 
L 324.972017 285.569319 
L 323.150705 285.569484 
L 321.365105 285.569588 
L 319.579505 285.569654 
L 317.793905 285.569696 
L 315.972593 285.569723 
L 314.186993 285.569739 
L 312.401393 285.569749 
L 310.615793 285.569755 
L 308.794481 285.569759 
L 307.008881 285.569761 
L 305.223281 285.569762 
L 303.437681 285.569763 
L 301.616369 285.569763 
L 299.830769 285.569762 
L 298.045169 285.569762 
L 296.259569 285.56976 
L 294.438257 285.569757 
L 292.652657 285.569753 
L 290.867057 285.569745 
L 289.081457 285.569732 
L 287.260145 285.569712 
L 285.474545 285.569679 
L 283.688945 285.569627 
L 281.903345 285.569546 
L 280.082033 285.569415 
L 278.296433 285.569218 
L 276.510833 285.568917 
L 274.725233 285.568462 
L 272.903921 285.567765 
L 271.118321 285.566749 
L 269.332721 285.565259 
L 267.547121 285.563096 
L 265.725809 285.559912 
L 264.611201 285.55713 
L 263.940209 285.555157 
L 262.154609 285.547757 
L 260.369009 285.53743 
L 258.547697 285.522828 
L 256.762097 285.503184 
L 254.976497 285.476571 
L 253.190897 285.440865 
L 251.369585 285.392329 
L 249.583985 285.329541 
L 247.798385 285.247684 
L 246.012785 285.141951 
L 244.191473 285.003552 
L 242.405873 284.831022 
L 240.620273 284.614023 
L 238.834673 284.343344 
L 237.013361 284.000943 
L 235.227761 283.587886 
L 233.442161 283.084273 
L 232.88667 282.89601 
L 231.656561 282.383985 
L 229.835249 281.473127 
L 228.049649 280.402804 
L 227.810486 280.23489 
L 226.264049 278.852262 
L 225.045302 277.57377 
L 224.478449 276.793426 
L 223.293842 274.91265 
L 222.657137 273.550232 
L 222.121689 272.25153 
L 221.316396 269.59041 
L 220.871537 267.588908 
L 220.739251 266.92929 
L 220.274115 263.82465 
L 219.950016 261.16353 
L 219.645296 258.50241 
L 219.31836 255.84129 
L 219.085937 254.230293 
L 218.943787 253.18017 
L 218.498838 250.51905 
L 217.927913 247.85793 
L 217.300337 245.574826 
L 217.199195 245.19681 
L 216.321975 242.53569 
L 215.479025 240.505838 
L 215.215457 239.87457 
L 213.879118 237.21345 
L 213.693425 236.893369 
L 212.285825 234.55233 
L 211.907825 233.993366 
L 210.415193 231.89121 
L 210.122225 231.506074 
L 208.300913 229.23558 
L 208.296329 229.23009 
L 206.515313 227.106643 
L 206.043142 226.56897 
L 204.729713 224.986639 
L 203.812578 223.90785 
L 202.944113 222.724042 
L 201.539661 220.80321 
L 201.122801 220.066034 
L 200.087975 218.14209 
L 199.337201 216.070962 
L 199.139785 215.48097 
z
" clip-path="url(#pad2dbb0eca)" style="fill: none; stroke: #2b7bba; stroke-width: 1.5"/>
   </g>
   <g id="PathCollection_7">
    <path d="M 224.386682 210.15873 
L 223.646781 207.49761 
L 223.176024 204.83649 
L 222.949736 202.17537 
L 222.909073 199.51425 
L 222.986629 196.85313 
L 223.122742 194.19201 
L 223.272419 191.53089 
L 223.406948 188.86977 
L 223.512923 186.20865 
L 223.589456 183.54753 
L 223.643741 180.88641 
L 223.685614 178.22529 
L 223.728528 175.12065 
L 223.76238 172.45953 
L 223.790302 169.79841 
L 223.807562 167.13729 
L 223.811729 164.47617 
L 223.805 161.81505 
L 223.793804 159.15393 
L 223.785895 156.49281 
L 223.786557 153.83169 
L 223.796013 151.17057 
L 223.809482 148.50945 
L 223.819895 145.84833 
L 223.821818 143.18721 
L 223.814507 140.52609 
L 223.802446 137.86497 
L 223.793145 135.20385 
L 223.794732 132.09921 
L 223.809883 129.43809 
L 223.836033 126.77697 
L 223.87 124.11585 
L 223.911695 121.45473 
L 223.968115 118.79361 
L 224.054854 116.13249 
L 224.194218 113.47137 
L 224.410497 110.81025 
L 224.478449 110.246514 
L 224.782244 108.14913 
L 225.300444 105.48801 
L 225.943886 102.82689 
L 226.264049 101.735762 
L 226.787302 100.16577 
L 227.777787 97.50465 
L 228.049649 96.846909 
L 228.948387 94.84353 
L 229.835249 92.912412 
L 230.192936 92.18241 
L 231.502103 89.52129 
L 231.656561 89.208695 
L 233.06607 86.41665 
L 233.442161 85.615093 
L 234.356092 83.75553 
L 235.227761 81.737445 
L 235.521547 81.09441 
L 236.597858 78.43329 
L 237.013361 77.202518 
L 237.538774 75.77217 
L 238.345679 73.11105 
L 238.834673 71.102104 
L 239.013284 70.44993 
L 239.636724 67.78881 
L 240.149355 65.12769 
L 240.589947 62.46657 
L 240.620273 62.274889 
L 241.083971 59.80545 
L 241.594055 57.14433 
L 242.185406 54.48321 
L 242.405873 53.736971 
L 243.099973 51.82209 
L 244.191473 49.727183 
L 244.560026 49.16097 
L 246.012785 47.670138 
L 247.459774 46.49985 
L 247.798385 46.322508 
L 249.583985 45.595471 
L 251.369585 45.035787 
L 253.190897 44.601919 
L 254.976497 44.282043 
L 256.762097 44.043224 
L 258.547697 43.86671 
L 260.369009 43.735365 
L 262.154609 43.64241 
L 263.940209 43.575754 
L 265.725809 43.528432 
L 267.547121 43.494619 
L 269.332721 43.471639 
L 271.118321 43.455807 
L 272.903921 43.445008 
L 274.725233 43.437596 
L 276.510833 43.432757 
L 278.296433 43.429552 
L 280.082033 43.427452 
L 281.903345 43.426066 
L 283.688945 43.425197 
L 285.474545 43.424644 
L 287.260145 43.424296 
L 289.081457 43.424076 
L 290.867057 43.423944 
L 292.652657 43.423863 
L 294.438257 43.423814 
L 296.259569 43.423784 
L 298.045169 43.423767 
L 299.830769 43.423757 
L 301.616369 43.423754 
L 303.437681 43.423755 
L 305.223281 43.423761 
L 307.008881 43.423774 
L 308.794481 43.423797 
L 310.615793 43.423836 
L 312.401393 43.4239 
L 314.186993 43.424005 
L 315.972593 43.424175 
L 317.793905 43.424458 
L 319.579505 43.424902 
L 321.365105 43.425603 
L 323.150705 43.426701 
L 324.972017 43.428442 
L 326.757617 43.431068 
L 328.543217 43.435054 
L 330.328817 43.441045 
L 332.150129 43.450178 
L 333.935729 43.463417 
L 335.721329 43.482733 
L 337.506929 43.510634 
L 339.328241 43.551493 
L 341.113841 43.608403 
L 342.899441 43.688197 
L 344.685041 43.798978 
L 346.506353 43.954837 
L 348.291953 44.163445 
L 350.077553 44.444645 
L 351.863153 44.820058 
L 353.684465 45.327855 
L 355.470065 45.981573 
L 356.561894 46.49985 
L 357.255665 47.016264 
L 359.041265 48.723223 
L 359.40062 49.16097 
L 360.800618 51.82209 
L 360.862577 52.009871 
L 361.510727 54.48321 
L 361.94289 57.14433 
L 362.209491 59.80545 
L 362.371497 62.46657 
L 362.464213 65.12769 
L 362.509191 67.78881 
L 362.522809 70.44993 
L 362.520195 73.11105 
L 362.514861 75.77217 
L 362.516023 78.43329 
L 362.526269 81.09441 
L 362.541637 83.75553 
L 362.554563 86.41665 
L 362.557932 89.52129 
L 362.549171 92.18241 
L 362.534488 94.84353 
L 362.521868 97.50465 
L 362.518164 100.16577 
L 362.525389 102.82689 
L 362.539628 105.48801 
L 362.553162 108.14913 
L 362.558656 110.81025 
L 362.553133 113.47137 
L 362.539586 116.13249 
L 362.525357 118.79361 
L 362.518161 121.45473 
L 362.521898 124.11585 
L 362.534543 126.77697 
L 362.54924 129.43809 
L 362.558023 132.09921 
L 362.554762 135.20385 
L 362.542118 137.86497 
L 362.527421 140.52609 
L 362.518636 143.18721 
L 362.520528 145.84833 
L 362.532069 148.50945 
L 362.547004 151.17057 
L 362.557237 153.83169 
L 362.557221 156.49281 
L 362.546966 159.15393 
L 362.532029 161.81505 
L 362.520507 164.47617 
L 362.518647 167.13729 
L 362.527457 169.79841 
L 362.54216 172.45953 
L 362.554787 175.12065 
L 362.558013 178.22529 
L 362.549204 180.88641 
L 362.534501 183.54753 
L 362.521873 186.20865 
L 362.518166 188.86977 
L 362.52539 191.53089 
L 362.539628 194.19201 
L 362.553162 196.85313 
L 362.558656 199.51425 
L 362.553133 202.17537 
L 362.539585 204.83649 
L 362.525356 207.49761 
L 362.518159 210.15873 
L 362.521893 212.81985 
L 362.53453 215.48097 
L 362.549207 218.14209 
L 362.557942 220.80321 
L 362.554537 223.90785 
L 362.541594 226.56897 
L 362.526231 229.23009 
L 362.516007 231.89121 
L 362.51487 234.55233 
L 362.520212 237.21345 
L 362.522801 239.87457 
L 362.509117 242.53569 
L 362.464031 245.19681 
L 362.371161 247.85793 
L 362.208937 250.51905 
L 361.942017 253.18017 
L 361.509391 255.84129 
L 360.862577 258.307333 
L 360.798161 258.50241 
L 359.397371 261.16353 
L 359.041265 261.597187 
L 357.255665 263.304021 
L 356.556346 263.82465 
L 355.470065 264.340466 
L 353.684465 264.994542 
L 351.863153 265.502726 
L 350.077553 265.878493 
L 348.291953 266.16 
L 346.506353 266.368863 
L 344.685041 266.524929 
L 342.899441 266.635868 
L 341.113841 266.715782 
L 339.328241 266.772782 
L 337.506929 266.813708 
L 335.721329 266.841657 
L 333.935729 266.861007 
L 332.150129 266.874271 
L 330.328817 266.88342 
L 328.543217 266.889422 
L 326.757617 266.893417 
L 324.972017 266.896048 
L 323.150705 266.897793 
L 321.365105 266.898892 
L 319.579505 266.899596 
L 317.793905 266.90004 
L 315.972593 266.900324 
L 314.186993 266.900495 
L 312.401393 266.9006 
L 310.615793 266.900664 
L 308.794481 266.900703 
L 307.008881 266.900726 
L 305.223281 266.900739 
L 303.437681 266.900745 
L 301.616369 266.900746 
L 299.830769 266.900743 
L 298.045169 266.900733 
L 296.259569 266.900716 
L 294.438257 266.900686 
L 292.652657 266.900637 
L 290.867057 266.900556 
L 289.081457 266.900424 
L 287.260145 266.900204 
L 285.474545 266.899856 
L 283.688945 266.899304 
L 281.903345 266.898435 
L 280.082033 266.897051 
L 278.296433 266.894951 
L 276.510833 266.891748 
L 274.725233 266.886912 
L 272.903921 266.879504 
L 271.118321 266.868711 
L 269.332721 266.852888 
L 267.547121 266.829921 
L 265.725809 266.796125 
L 263.940209 266.748827 
L 262.154609 266.682205 
L 260.369009 266.589291 
L 258.547697 266.458 
L 256.762097 266.281545 
L 254.976497 266.042787 
L 253.190897 265.722959 
L 251.369585 265.289099 
L 249.583985 264.729339 
L 247.798385 264.00208 
L 247.459727 263.82465 
L 246.012785 262.653452 
L 244.562228 261.16353 
L 244.191473 260.59316 
L 243.103304 258.50241 
L 242.405873 256.576947 
L 242.18851 255.84129 
L 241.595844 253.18017 
L 241.081917 250.51905 
L 240.620273 248.096548 
L 240.581831 247.85793 
L 240.128636 245.19681 
L 239.594314 242.53569 
L 238.934744 239.87457 
L 238.834673 239.529205 
L 238.23098 237.21345 
L 237.340427 234.55233 
L 237.013361 233.735495 
L 236.319738 231.89121 
L 235.227761 229.550755 
L 235.083363 229.23009 
L 233.708955 226.56897 
L 233.442161 226.104171 
L 232.184251 223.90785 
L 231.656561 223.040177 
L 230.245379 220.80321 
L 229.835249 220.156658 
L 228.552858 218.14209 
L 228.049649 217.319343 
L 226.941418 215.48097 
L 226.264049 214.237496 
L 225.529756 212.81985 
L 224.478449 210.392554 
L 224.386682 210.15873 
z
" clip-path="url(#pad2dbb0eca)" style="fill: none; stroke: #0b559f; stroke-width: 1.5"/>
   </g>
   <g id="PathCollection_8"/>
   <g id="patch_3">
    <path d="M 34.240625 288.21825 
L 34.240625 22.10625 
" style="fill: none; stroke: #000000; stroke-width: 0.8; stroke-linejoin: miter; stroke-linecap: square"/>
   </g>
   <g id="patch_4">
    <path d="M 391.360625 288.21825 
L 391.360625 22.10625 
" style="fill: none; stroke: #000000; stroke-width: 0.8; stroke-linejoin: miter; stroke-linecap: square"/>
   </g>
   <g id="patch_5">
    <path d="M 34.240625 288.21825 
L 391.360625 288.21825 
" style="fill: none; stroke: #000000; stroke-width: 0.8; stroke-linejoin: miter; stroke-linecap: square"/>
   </g>
   <g id="patch_6">
    <path d="M 34.240625 22.10625 
L 391.360625 22.10625 
" style="fill: none; stroke: #000000; stroke-width: 0.8; stroke-linejoin: miter; stroke-linecap: square"/>
   </g>
   <g id="text_16">
    <!-- 9.0_cross_-37.0 -->
    <g transform="translate(166.181563 16.10625)scale(0.12 -0.12)">
     <defs>
      <path id="DejaVuSans-39" d="M 703 97 
L 703 672 
Q 941 559 1184 500 
Q 1428 441 1663 441 
Q 2288 441 2617 861 
Q 2947 1281 2994 2138 
Q 2813 1869 2534 1725 
Q 2256 1581 1919 1581 
Q 1219 1581 811 2004 
Q 403 2428 403 3163 
Q 403 3881 828 4315 
Q 1253 4750 1959 4750 
Q 2769 4750 3195 4129 
Q 3622 3509 3622 2328 
Q 3622 1225 3098 567 
Q 2575 -91 1691 -91 
Q 1453 -91 1209 -44 
Q 966 3 703 97 
z
M 1959 2075 
Q 2384 2075 2632 2365 
Q 2881 2656 2881 3163 
Q 2881 3666 2632 3958 
Q 2384 4250 1959 4250 
Q 1534 4250 1286 3958 
Q 1038 3666 1038 3163 
Q 1038 2656 1286 2365 
Q 1534 2075 1959 2075 
z
" transform="scale(0.015625)"/>
      <path id="DejaVuSans-2e" d="M 684 794 
L 1344 794 
L 1344 0 
L 684 0 
L 684 794 
z
" transform="scale(0.015625)"/>
      <path id="DejaVuSans-5f" d="M 3263 -1063 
L 3263 -1509 
L -63 -1509 
L -63 -1063 
L 3263 -1063 
z
" transform="scale(0.015625)"/>
      <path id="DejaVuSans-63" d="M 3122 3366 
L 3122 2828 
Q 2878 2963 2633 3030 
Q 2388 3097 2138 3097 
Q 1578 3097 1268 2742 
Q 959 2388 959 1747 
Q 959 1106 1268 751 
Q 1578 397 2138 397 
Q 2388 397 2633 464 
Q 2878 531 3122 666 
L 3122 134 
Q 2881 22 2623 -34 
Q 2366 -91 2075 -91 
Q 1284 -91 818 406 
Q 353 903 353 1747 
Q 353 2603 823 3093 
Q 1294 3584 2113 3584 
Q 2378 3584 2631 3529 
Q 2884 3475 3122 3366 
z
" transform="scale(0.015625)"/>
      <path id="DejaVuSans-72" d="M 2631 2963 
Q 2534 3019 2420 3045 
Q 2306 3072 2169 3072 
Q 1681 3072 1420 2755 
Q 1159 2438 1159 1844 
L 1159 0 
L 581 0 
L 581 3500 
L 1159 3500 
L 1159 2956 
Q 1341 3275 1631 3429 
Q 1922 3584 2338 3584 
Q 2397 3584 2469 3576 
Q 2541 3569 2628 3553 
L 2631 2963 
z
" transform="scale(0.015625)"/>
      <path id="DejaVuSans-73" d="M 2834 3397 
L 2834 2853 
Q 2591 2978 2328 3040 
Q 2066 3103 1784 3103 
Q 1356 3103 1142 2972 
Q 928 2841 928 2578 
Q 928 2378 1081 2264 
Q 1234 2150 1697 2047 
L 1894 2003 
Q 2506 1872 2764 1633 
Q 3022 1394 3022 966 
Q 3022 478 2636 193 
Q 2250 -91 1575 -91 
Q 1294 -91 989 -36 
Q 684 19 347 128 
L 347 722 
Q 666 556 975 473 
Q 1284 391 1588 391 
Q 1994 391 2212 530 
Q 2431 669 2431 922 
Q 2431 1156 2273 1281 
Q 2116 1406 1581 1522 
L 1381 1569 
Q 847 1681 609 1914 
Q 372 2147 372 2553 
Q 372 3047 722 3315 
Q 1072 3584 1716 3584 
Q 2034 3584 2315 3537 
Q 2597 3491 2834 3397 
z
" transform="scale(0.015625)"/>
      <path id="DejaVuSans-2d" d="M 313 2009 
L 1997 2009 
L 1997 1497 
L 313 1497 
L 313 2009 
z
" transform="scale(0.015625)"/>
      <path id="DejaVuSans-37" d="M 525 4666 
L 3525 4666 
L 3525 4397 
L 1831 0 
L 1172 0 
L 2766 4134 
L 525 4134 
L 525 4666 
z
" transform="scale(0.015625)"/>
     </defs>
     <use xlink:href="#DejaVuSans-39"/>
     <use xlink:href="#DejaVuSans-2e" x="63.623047"/>
     <use xlink:href="#DejaVuSans-30" x="95.410156"/>
     <use xlink:href="#DejaVuSans-5f" x="159.033203"/>
     <use xlink:href="#DejaVuSans-63" x="209.033203"/>
     <use xlink:href="#DejaVuSans-72" x="264.013672"/>
     <use xlink:href="#DejaVuSans-6f" x="302.876953"/>
     <use xlink:href="#DejaVuSans-73" x="364.058594"/>
     <use xlink:href="#DejaVuSans-73" x="416.158203"/>
     <use xlink:href="#DejaVuSans-5f" x="468.257812"/>
     <use xlink:href="#DejaVuSans-2d" x="518.257812"/>
     <use xlink:href="#DejaVuSans-33" x="554.341797"/>
     <use xlink:href="#DejaVuSans-37" x="617.964844"/>
     <use xlink:href="#DejaVuSans-2e" x="681.587891"/>
     <use xlink:href="#DejaVuSans-30" x="713.375"/>
    </g>
   </g>
  </g>
 </g>
 <defs>
  <clipPath id="pad2dbb0eca">
   <rect x="34.240625" y="22.10625" width="357.12" height="266.112"/>
  </clipPath>
 </defs>
</svg>
