<?xml version="1.0" encoding="utf-8" standalone="no"?>
<!DOCTYPE svg PUBLIC "-//W3C//DTD SVG 1.1//EN"
  "http://www.w3.org/Graphics/SVG/1.1/DTD/svg11.dtd">
<svg xmlns:xlink="http://www.w3.org/1999/xlink" width="408.104375pt" height="325.7745pt" viewBox="0 0 408.104375 325.7745" xmlns="http://www.w3.org/2000/svg" version="1.1">
 <metadata>
  <rdf:RDF xmlns:dc="http://purl.org/dc/elements/1.1/" xmlns:cc="http://creativecommons.org/ns#" xmlns:rdf="http://www.w3.org/1999/02/22-rdf-syntax-ns#">
   <cc:Work>
    <dc:type rdf:resource="http://purl.org/dc/dcmitype/StillImage"/>
    <dc:date>2024-07-12T12:19:02.285349</dc:date>
    <dc:format>image/svg+xml</dc:format>
    <dc:creator>
     <cc:Agent>
      <dc:title>Matplotlib v3.5.3, https://matplotlib.org/</dc:title>
     </cc:Agent>
    </dc:creator>
   </cc:Work>
  </rdf:RDF>
 </metadata>
 <defs>
  <style type="text/css">*{stroke-linejoin: round; stroke-linecap: butt}</style>
 </defs>
 <g id="figure_1">
  <g id="patch_1">
   <path d="M 0 325.7745 
L 408.104375 325.7745 
L 408.104375 0 
L 0 0 
z
" style="fill: #ffffff"/>
  </g>
  <g id="axes_1">
   <g id="patch_2">
    <path d="M 34.240625 288.21825 
L 391.360625 288.21825 
L 391.360625 22.10625 
L 34.240625 22.10625 
z
" style="fill: #ffffff"/>
   </g>
   <g id="matplotlib.axis_1">
    <g id="xtick_1">
     <g id="line2d_1">
      <defs>
       <path id="m4316520f78" d="M 0 0 
L 0 3.5 
" style="stroke: #000000; stroke-width: 0.8"/>
      </defs>
      <g>
       <use xlink:href="#m4316520f78" x="34.240625" y="288.21825" style="stroke: #000000; stroke-width: 0.8"/>
      </g>
     </g>
     <g id="text_1">
      <!-- 0 -->
      <g transform="translate(31.059375 302.816687)scale(0.1 -0.1)">
       <defs>
        <path id="DejaVuSans-30" d="M 2034 4250 
Q 1547 4250 1301 3770 
Q 1056 3291 1056 2328 
Q 1056 1369 1301 889 
Q 1547 409 2034 409 
Q 2525 409 2770 889 
Q 3016 1369 3016 2328 
Q 3016 3291 2770 3770 
Q 2525 4250 2034 4250 
z
M 2034 4750 
Q 2819 4750 3233 4129 
Q 3647 3509 3647 2328 
Q 3647 1150 3233 529 
Q 2819 -91 2034 -91 
Q 1250 -91 836 529 
Q 422 1150 422 2328 
Q 422 3509 836 4129 
Q 1250 4750 2034 4750 
z
" transform="scale(0.015625)"/>
       </defs>
       <use xlink:href="#DejaVuSans-30"/>
      </g>
     </g>
    </g>
    <g id="xtick_2">
     <g id="line2d_2">
      <g>
       <use xlink:href="#m4316520f78" x="105.664625" y="288.21825" style="stroke: #000000; stroke-width: 0.8"/>
      </g>
     </g>
     <g id="text_2">
      <!-- 20 -->
      <g transform="translate(99.302125 302.816687)scale(0.1 -0.1)">
       <defs>
        <path id="DejaVuSans-32" d="M 1228 531 
L 3431 531 
L 3431 0 
L 469 0 
L 469 531 
Q 828 903 1448 1529 
Q 2069 2156 2228 2338 
Q 2531 2678 2651 2914 
Q 2772 3150 2772 3378 
Q 2772 3750 2511 3984 
Q 2250 4219 1831 4219 
Q 1534 4219 1204 4116 
Q 875 4013 500 3803 
L 500 4441 
Q 881 4594 1212 4672 
Q 1544 4750 1819 4750 
Q 2544 4750 2975 4387 
Q 3406 4025 3406 3419 
Q 3406 3131 3298 2873 
Q 3191 2616 2906 2266 
Q 2828 2175 2409 1742 
Q 1991 1309 1228 531 
z
" transform="scale(0.015625)"/>
       </defs>
       <use xlink:href="#DejaVuSans-32"/>
       <use xlink:href="#DejaVuSans-30" x="63.623047"/>
      </g>
     </g>
    </g>
    <g id="xtick_3">
     <g id="line2d_3">
      <g>
       <use xlink:href="#m4316520f78" x="177.088625" y="288.21825" style="stroke: #000000; stroke-width: 0.8"/>
      </g>
     </g>
     <g id="text_3">
      <!-- 40 -->
      <g transform="translate(170.726125 302.816687)scale(0.1 -0.1)">
       <defs>
        <path id="DejaVuSans-34" d="M 2419 4116 
L 825 1625 
L 2419 1625 
L 2419 4116 
z
M 2253 4666 
L 3047 4666 
L 3047 1625 
L 3713 1625 
L 3713 1100 
L 3047 1100 
L 3047 0 
L 2419 0 
L 2419 1100 
L 313 1100 
L 313 1709 
L 2253 4666 
z
" transform="scale(0.015625)"/>
       </defs>
       <use xlink:href="#DejaVuSans-34"/>
       <use xlink:href="#DejaVuSans-30" x="63.623047"/>
      </g>
     </g>
    </g>
    <g id="xtick_4">
     <g id="line2d_4">
      <g>
       <use xlink:href="#m4316520f78" x="248.512625" y="288.21825" style="stroke: #000000; stroke-width: 0.8"/>
      </g>
     </g>
     <g id="text_4">
      <!-- 60 -->
      <g transform="translate(242.150125 302.816687)scale(0.1 -0.1)">
       <defs>
        <path id="DejaVuSans-36" d="M 2113 2584 
Q 1688 2584 1439 2293 
Q 1191 2003 1191 1497 
Q 1191 994 1439 701 
Q 1688 409 2113 409 
Q 2538 409 2786 701 
Q 3034 994 3034 1497 
Q 3034 2003 2786 2293 
Q 2538 2584 2113 2584 
z
M 3366 4563 
L 3366 3988 
Q 3128 4100 2886 4159 
Q 2644 4219 2406 4219 
Q 1781 4219 1451 3797 
Q 1122 3375 1075 2522 
Q 1259 2794 1537 2939 
Q 1816 3084 2150 3084 
Q 2853 3084 3261 2657 
Q 3669 2231 3669 1497 
Q 3669 778 3244 343 
Q 2819 -91 2113 -91 
Q 1303 -91 875 529 
Q 447 1150 447 2328 
Q 447 3434 972 4092 
Q 1497 4750 2381 4750 
Q 2619 4750 2861 4703 
Q 3103 4656 3366 4563 
z
" transform="scale(0.015625)"/>
       </defs>
       <use xlink:href="#DejaVuSans-36"/>
       <use xlink:href="#DejaVuSans-30" x="63.623047"/>
      </g>
     </g>
    </g>
    <g id="xtick_5">
     <g id="line2d_5">
      <g>
       <use xlink:href="#m4316520f78" x="319.936625" y="288.21825" style="stroke: #000000; stroke-width: 0.8"/>
      </g>
     </g>
     <g id="text_5">
      <!-- 80 -->
      <g transform="translate(313.574125 302.816687)scale(0.1 -0.1)">
       <defs>
        <path id="DejaVuSans-38" d="M 2034 2216 
Q 1584 2216 1326 1975 
Q 1069 1734 1069 1313 
Q 1069 891 1326 650 
Q 1584 409 2034 409 
Q 2484 409 2743 651 
Q 3003 894 3003 1313 
Q 3003 1734 2745 1975 
Q 2488 2216 2034 2216 
z
M 1403 2484 
Q 997 2584 770 2862 
Q 544 3141 544 3541 
Q 544 4100 942 4425 
Q 1341 4750 2034 4750 
Q 2731 4750 3128 4425 
Q 3525 4100 3525 3541 
Q 3525 3141 3298 2862 
Q 3072 2584 2669 2484 
Q 3125 2378 3379 2068 
Q 3634 1759 3634 1313 
Q 3634 634 3220 271 
Q 2806 -91 2034 -91 
Q 1263 -91 848 271 
Q 434 634 434 1313 
Q 434 1759 690 2068 
Q 947 2378 1403 2484 
z
M 1172 3481 
Q 1172 3119 1398 2916 
Q 1625 2713 2034 2713 
Q 2441 2713 2670 2916 
Q 2900 3119 2900 3481 
Q 2900 3844 2670 4047 
Q 2441 4250 2034 4250 
Q 1625 4250 1398 4047 
Q 1172 3844 1172 3481 
z
" transform="scale(0.015625)"/>
       </defs>
       <use xlink:href="#DejaVuSans-38"/>
       <use xlink:href="#DejaVuSans-30" x="63.623047"/>
      </g>
     </g>
    </g>
    <g id="xtick_6">
     <g id="line2d_6">
      <g>
       <use xlink:href="#m4316520f78" x="391.360625" y="288.21825" style="stroke: #000000; stroke-width: 0.8"/>
      </g>
     </g>
     <g id="text_6">
      <!-- 100 -->
      <g transform="translate(381.816875 302.816687)scale(0.1 -0.1)">
       <defs>
        <path id="DejaVuSans-31" d="M 794 531 
L 1825 531 
L 1825 4091 
L 703 3866 
L 703 4441 
L 1819 4666 
L 2450 4666 
L 2450 531 
L 3481 531 
L 3481 0 
L 794 0 
L 794 531 
z
" transform="scale(0.015625)"/>
       </defs>
       <use xlink:href="#DejaVuSans-31"/>
       <use xlink:href="#DejaVuSans-30" x="63.623047"/>
       <use xlink:href="#DejaVuSans-30" x="127.246094"/>
      </g>
     </g>
    </g>
    <g id="text_7">
     <!-- axialRotation -->
     <g transform="translate(180.024844 316.494812)scale(0.1 -0.1)">
      <defs>
       <path id="DejaVuSans-61" d="M 2194 1759 
Q 1497 1759 1228 1600 
Q 959 1441 959 1056 
Q 959 750 1161 570 
Q 1363 391 1709 391 
Q 2188 391 2477 730 
Q 2766 1069 2766 1631 
L 2766 1759 
L 2194 1759 
z
M 3341 1997 
L 3341 0 
L 2766 0 
L 2766 531 
Q 2569 213 2275 61 
Q 1981 -91 1556 -91 
Q 1019 -91 701 211 
Q 384 513 384 1019 
Q 384 1609 779 1909 
Q 1175 2209 1959 2209 
L 2766 2209 
L 2766 2266 
Q 2766 2663 2505 2880 
Q 2244 3097 1772 3097 
Q 1472 3097 1187 3025 
Q 903 2953 641 2809 
L 641 3341 
Q 956 3463 1253 3523 
Q 1550 3584 1831 3584 
Q 2591 3584 2966 3190 
Q 3341 2797 3341 1997 
z
" transform="scale(0.015625)"/>
       <path id="DejaVuSans-78" d="M 3513 3500 
L 2247 1797 
L 3578 0 
L 2900 0 
L 1881 1375 
L 863 0 
L 184 0 
L 1544 1831 
L 300 3500 
L 978 3500 
L 1906 2253 
L 2834 3500 
L 3513 3500 
z
" transform="scale(0.015625)"/>
       <path id="DejaVuSans-69" d="M 603 3500 
L 1178 3500 
L 1178 0 
L 603 0 
L 603 3500 
z
M 603 4863 
L 1178 4863 
L 1178 4134 
L 603 4134 
L 603 4863 
z
" transform="scale(0.015625)"/>
       <path id="DejaVuSans-6c" d="M 603 4863 
L 1178 4863 
L 1178 0 
L 603 0 
L 603 4863 
z
" transform="scale(0.015625)"/>
       <path id="DejaVuSans-52" d="M 2841 2188 
Q 3044 2119 3236 1894 
Q 3428 1669 3622 1275 
L 4263 0 
L 3584 0 
L 2988 1197 
Q 2756 1666 2539 1819 
Q 2322 1972 1947 1972 
L 1259 1972 
L 1259 0 
L 628 0 
L 628 4666 
L 2053 4666 
Q 2853 4666 3247 4331 
Q 3641 3997 3641 3322 
Q 3641 2881 3436 2590 
Q 3231 2300 2841 2188 
z
M 1259 4147 
L 1259 2491 
L 2053 2491 
Q 2509 2491 2742 2702 
Q 2975 2913 2975 3322 
Q 2975 3731 2742 3939 
Q 2509 4147 2053 4147 
L 1259 4147 
z
" transform="scale(0.015625)"/>
       <path id="DejaVuSans-6f" d="M 1959 3097 
Q 1497 3097 1228 2736 
Q 959 2375 959 1747 
Q 959 1119 1226 758 
Q 1494 397 1959 397 
Q 2419 397 2687 759 
Q 2956 1122 2956 1747 
Q 2956 2369 2687 2733 
Q 2419 3097 1959 3097 
z
M 1959 3584 
Q 2709 3584 3137 3096 
Q 3566 2609 3566 1747 
Q 3566 888 3137 398 
Q 2709 -91 1959 -91 
Q 1206 -91 779 398 
Q 353 888 353 1747 
Q 353 2609 779 3096 
Q 1206 3584 1959 3584 
z
" transform="scale(0.015625)"/>
       <path id="DejaVuSans-74" d="M 1172 4494 
L 1172 3500 
L 2356 3500 
L 2356 3053 
L 1172 3053 
L 1172 1153 
Q 1172 725 1289 603 
Q 1406 481 1766 481 
L 2356 481 
L 2356 0 
L 1766 0 
Q 1100 0 847 248 
Q 594 497 594 1153 
L 594 3053 
L 172 3053 
L 172 3500 
L 594 3500 
L 594 4494 
L 1172 4494 
z
" transform="scale(0.015625)"/>
       <path id="DejaVuSans-6e" d="M 3513 2113 
L 3513 0 
L 2938 0 
L 2938 2094 
Q 2938 2591 2744 2837 
Q 2550 3084 2163 3084 
Q 1697 3084 1428 2787 
Q 1159 2491 1159 1978 
L 1159 0 
L 581 0 
L 581 3500 
L 1159 3500 
L 1159 2956 
Q 1366 3272 1645 3428 
Q 1925 3584 2291 3584 
Q 2894 3584 3203 3211 
Q 3513 2838 3513 2113 
z
" transform="scale(0.015625)"/>
      </defs>
      <use xlink:href="#DejaVuSans-61"/>
      <use xlink:href="#DejaVuSans-78" x="61.279297"/>
      <use xlink:href="#DejaVuSans-69" x="120.458984"/>
      <use xlink:href="#DejaVuSans-61" x="148.242188"/>
      <use xlink:href="#DejaVuSans-6c" x="209.521484"/>
      <use xlink:href="#DejaVuSans-52" x="237.304688"/>
      <use xlink:href="#DejaVuSans-6f" x="302.287109"/>
      <use xlink:href="#DejaVuSans-74" x="363.46875"/>
      <use xlink:href="#DejaVuSans-61" x="402.677734"/>
      <use xlink:href="#DejaVuSans-74" x="463.957031"/>
      <use xlink:href="#DejaVuSans-69" x="503.166016"/>
      <use xlink:href="#DejaVuSans-6f" x="530.949219"/>
      <use xlink:href="#DejaVuSans-6e" x="592.130859"/>
     </g>
    </g>
   </g>
   <g id="matplotlib.axis_2">
    <g id="ytick_1">
     <g id="line2d_7">
      <defs>
       <path id="m9a920616cf" d="M 0 0 
L -3.5 0 
" style="stroke: #000000; stroke-width: 0.8"/>
      </defs>
      <g>
       <use xlink:href="#m9a920616cf" x="34.240625" y="288.21825" style="stroke: #000000; stroke-width: 0.8"/>
      </g>
     </g>
     <g id="text_8">
      <!-- 0 -->
      <g transform="translate(20.878125 292.017469)scale(0.1 -0.1)">
       <use xlink:href="#DejaVuSans-30"/>
      </g>
     </g>
    </g>
    <g id="ytick_2">
     <g id="line2d_8">
      <g>
       <use xlink:href="#m9a920616cf" x="34.240625" y="243.86625" style="stroke: #000000; stroke-width: 0.8"/>
      </g>
     </g>
     <g id="text_9">
      <!-- 1 -->
      <g transform="translate(20.878125 247.665469)scale(0.1 -0.1)">
       <use xlink:href="#DejaVuSans-31"/>
      </g>
     </g>
    </g>
    <g id="ytick_3">
     <g id="line2d_9">
      <g>
       <use xlink:href="#m9a920616cf" x="34.240625" y="199.51425" style="stroke: #000000; stroke-width: 0.8"/>
      </g>
     </g>
     <g id="text_10">
      <!-- 2 -->
      <g transform="translate(20.878125 203.313469)scale(0.1 -0.1)">
       <use xlink:href="#DejaVuSans-32"/>
      </g>
     </g>
    </g>
    <g id="ytick_4">
     <g id="line2d_10">
      <g>
       <use xlink:href="#m9a920616cf" x="34.240625" y="155.16225" style="stroke: #000000; stroke-width: 0.8"/>
      </g>
     </g>
     <g id="text_11">
      <!-- 3 -->
      <g transform="translate(20.878125 158.961469)scale(0.1 -0.1)">
       <defs>
        <path id="DejaVuSans-33" d="M 2597 2516 
Q 3050 2419 3304 2112 
Q 3559 1806 3559 1356 
Q 3559 666 3084 287 
Q 2609 -91 1734 -91 
Q 1441 -91 1130 -33 
Q 819 25 488 141 
L 488 750 
Q 750 597 1062 519 
Q 1375 441 1716 441 
Q 2309 441 2620 675 
Q 2931 909 2931 1356 
Q 2931 1769 2642 2001 
Q 2353 2234 1838 2234 
L 1294 2234 
L 1294 2753 
L 1863 2753 
Q 2328 2753 2575 2939 
Q 2822 3125 2822 3475 
Q 2822 3834 2567 4026 
Q 2313 4219 1838 4219 
Q 1578 4219 1281 4162 
Q 984 4106 628 3988 
L 628 4550 
Q 988 4650 1302 4700 
Q 1616 4750 1894 4750 
Q 2613 4750 3031 4423 
Q 3450 4097 3450 3541 
Q 3450 3153 3228 2886 
Q 3006 2619 2597 2516 
z
" transform="scale(0.015625)"/>
       </defs>
       <use xlink:href="#DejaVuSans-33"/>
      </g>
     </g>
    </g>
    <g id="ytick_5">
     <g id="line2d_11">
      <g>
       <use xlink:href="#m9a920616cf" x="34.240625" y="110.81025" style="stroke: #000000; stroke-width: 0.8"/>
      </g>
     </g>
     <g id="text_12">
      <!-- 4 -->
      <g transform="translate(20.878125 114.609469)scale(0.1 -0.1)">
       <use xlink:href="#DejaVuSans-34"/>
      </g>
     </g>
    </g>
    <g id="ytick_6">
     <g id="line2d_12">
      <g>
       <use xlink:href="#m9a920616cf" x="34.240625" y="66.45825" style="stroke: #000000; stroke-width: 0.8"/>
      </g>
     </g>
     <g id="text_13">
      <!-- 5 -->
      <g transform="translate(20.878125 70.257469)scale(0.1 -0.1)">
       <defs>
        <path id="DejaVuSans-35" d="M 691 4666 
L 3169 4666 
L 3169 4134 
L 1269 4134 
L 1269 2991 
Q 1406 3038 1543 3061 
Q 1681 3084 1819 3084 
Q 2600 3084 3056 2656 
Q 3513 2228 3513 1497 
Q 3513 744 3044 326 
Q 2575 -91 1722 -91 
Q 1428 -91 1123 -41 
Q 819 9 494 109 
L 494 744 
Q 775 591 1075 516 
Q 1375 441 1709 441 
Q 2250 441 2565 725 
Q 2881 1009 2881 1497 
Q 2881 1984 2565 2268 
Q 2250 2553 1709 2553 
Q 1456 2553 1204 2497 
Q 953 2441 691 2322 
L 691 4666 
z
" transform="scale(0.015625)"/>
       </defs>
       <use xlink:href="#DejaVuSans-35"/>
      </g>
     </g>
    </g>
    <g id="ytick_7">
     <g id="line2d_13">
      <g>
       <use xlink:href="#m9a920616cf" x="34.240625" y="22.10625" style="stroke: #000000; stroke-width: 0.8"/>
      </g>
     </g>
     <g id="text_14">
      <!-- 6 -->
      <g transform="translate(20.878125 25.905469)scale(0.1 -0.1)">
       <use xlink:href="#DejaVuSans-36"/>
      </g>
     </g>
    </g>
    <g id="text_15">
     <!-- zShift -->
     <g transform="translate(14.798438 169.151312)rotate(-90)scale(0.1 -0.1)">
      <defs>
       <path id="DejaVuSans-7a" d="M 353 3500 
L 3084 3500 
L 3084 2975 
L 922 459 
L 3084 459 
L 3084 0 
L 275 0 
L 275 525 
L 2438 3041 
L 353 3041 
L 353 3500 
z
" transform="scale(0.015625)"/>
       <path id="DejaVuSans-53" d="M 3425 4513 
L 3425 3897 
Q 3066 4069 2747 4153 
Q 2428 4238 2131 4238 
Q 1616 4238 1336 4038 
Q 1056 3838 1056 3469 
Q 1056 3159 1242 3001 
Q 1428 2844 1947 2747 
L 2328 2669 
Q 3034 2534 3370 2195 
Q 3706 1856 3706 1288 
Q 3706 609 3251 259 
Q 2797 -91 1919 -91 
Q 1588 -91 1214 -16 
Q 841 59 441 206 
L 441 856 
Q 825 641 1194 531 
Q 1563 422 1919 422 
Q 2459 422 2753 634 
Q 3047 847 3047 1241 
Q 3047 1584 2836 1778 
Q 2625 1972 2144 2069 
L 1759 2144 
Q 1053 2284 737 2584 
Q 422 2884 422 3419 
Q 422 4038 858 4394 
Q 1294 4750 2059 4750 
Q 2388 4750 2728 4690 
Q 3069 4631 3425 4513 
z
" transform="scale(0.015625)"/>
       <path id="DejaVuSans-68" d="M 3513 2113 
L 3513 0 
L 2938 0 
L 2938 2094 
Q 2938 2591 2744 2837 
Q 2550 3084 2163 3084 
Q 1697 3084 1428 2787 
Q 1159 2491 1159 1978 
L 1159 0 
L 581 0 
L 581 4863 
L 1159 4863 
L 1159 2956 
Q 1366 3272 1645 3428 
Q 1925 3584 2291 3584 
Q 2894 3584 3203 3211 
Q 3513 2838 3513 2113 
z
" transform="scale(0.015625)"/>
       <path id="DejaVuSans-66" d="M 2375 4863 
L 2375 4384 
L 1825 4384 
Q 1516 4384 1395 4259 
Q 1275 4134 1275 3809 
L 1275 3500 
L 2222 3500 
L 2222 3053 
L 1275 3053 
L 1275 0 
L 697 0 
L 697 3053 
L 147 3053 
L 147 3500 
L 697 3500 
L 697 3744 
Q 697 4328 969 4595 
Q 1241 4863 1831 4863 
L 2375 4863 
z
" transform="scale(0.015625)"/>
      </defs>
      <use xlink:href="#DejaVuSans-7a"/>
      <use xlink:href="#DejaVuSans-53" x="52.490234"/>
      <use xlink:href="#DejaVuSans-68" x="115.966797"/>
      <use xlink:href="#DejaVuSans-69" x="179.345703"/>
      <use xlink:href="#DejaVuSans-66" x="207.128906"/>
      <use xlink:href="#DejaVuSans-74" x="240.583984"/>
     </g>
    </g>
   </g>
   <g id="PathCollection_1"/>
   <g id="PathCollection_2">
    <path d="M 79.056617 22.10625 
L 79.094897 22.224238 
L 79.929086 24.76737 
L 80.594566 27.42849 
L 80.916209 29.108553 
L 81.112237 30.08961 
L 81.519621 32.75073 
L 81.820237 35.41185 
L 82.03863 38.07297 
L 82.194385 40.73409 
L 82.303133 43.39521 
L 82.387009 46.49985 
L 82.432988 49.16097 
L 82.462729 51.82209 
L 82.481581 54.48321 
L 82.493353 57.14433 
L 82.500606 59.80545 
L 82.504972 62.46657 
L 82.507455 65.12769 
L 82.508702 67.78881 
L 82.509182 70.44993 
L 82.509278 73.11105 
L 82.509288 75.77217 
L 82.509393 78.43329 
L 82.509632 81.09441 
L 82.509925 83.75553 
L 82.510137 86.41665 
L 82.510148 89.52129 
L 82.509955 92.18241 
L 82.509684 94.84353 
L 82.509483 97.50465 
L 82.50946 100.16577 
L 82.50963 102.82689 
L 82.509898 105.48801 
L 82.510121 108.14913 
L 82.510178 110.81025 
L 82.510037 113.47137 
L 82.509775 116.13249 
L 82.509535 118.79361 
L 82.509446 121.45473 
L 82.509558 124.11585 
L 82.50981 126.77697 
L 82.510067 129.43809 
L 82.510192 132.09921 
L 82.510088 135.20385 
L 82.509846 137.86497 
L 82.509604 140.52609 
L 82.5095 143.18721 
L 82.5096 145.84833 
L 82.509863 148.50945 
L 82.510162 151.17057 
L 82.510354 153.83169 
L 82.510357 156.49281 
L 82.510197 159.15393 
L 82.509988 161.81505 
L 82.509877 164.47617 
L 82.509958 167.13729 
L 82.510222 169.79841 
L 82.510562 172.45953 
L 82.510829 175.12065 
L 82.510904 178.22529 
L 82.510762 180.88641 
L 82.510535 183.54753 
L 82.510371 186.20865 
L 82.510379 188.86977 
L 82.510572 191.53089 
L 82.51086 194.19201 
L 82.511096 196.85313 
L 82.511163 199.51425 
L 82.511028 202.17537 
L 82.510771 204.83649 
L 82.510534 207.49761 
L 82.510447 210.15873 
L 82.510559 212.81985 
L 82.51081 215.48097 
L 82.511064 218.14209 
L 82.511182 220.80321 
L 82.511066 223.90785 
L 82.510801 226.56897 
L 82.510517 229.23009 
L 82.510333 231.89121 
L 82.510285 234.55233 
L 82.510267 237.21345 
L 82.510041 239.87457 
L 82.509269 242.53569 
L 82.507533 245.19681 
L 82.504302 247.85793 
L 82.498796 250.51905 
L 82.489768 253.18017 
L 82.47521 255.84129 
L 82.452043 258.50241 
L 82.415817 261.16353 
L 82.360415 263.82465 
L 82.260653 266.92929 
L 82.132924 269.59041 
L 81.951994 272.25153 
L 81.70086 274.91265 
L 81.358342 277.57377 
L 80.916209 280.132907 
L 80.899457 280.23489 
L 80.336845 282.89601 
L 79.596689 285.55713 
L 79.094897 286.980104 
L 78.662549 288.21825 
" clip-path="url(#pcae3f0fed7)" style="fill: none; stroke: #deebf7; stroke-width: 1.5"/>
    <path d="M 149.812578 288.21825 
L 149.090417 285.85929 
L 148.995861 285.55713 
L 148.327245 282.89601 
L 147.822505 280.23489 
L 147.445284 277.57377 
L 147.304817 276.245992 
L 147.15374 274.91265 
L 146.932158 272.25153 
L 146.774127 269.59041 
L 146.663792 266.92929 
L 146.578697 263.82465 
L 146.532053 261.16353 
L 146.501885 258.50241 
L 146.482762 255.84129 
L 146.470822 253.18017 
L 146.463466 250.51905 
L 146.459039 247.85793 
L 146.456524 245.19681 
L 146.455265 242.53569 
L 146.454788 239.87457 
L 146.454711 237.21345 
L 146.454741 234.55233 
L 146.454717 231.89121 
L 146.45464 229.23009 
L 146.454668 226.56897 
L 146.455073 223.90785 
L 146.456474 220.80321 
L 146.458938 218.14209 
L 146.46317 215.48097 
L 146.470094 212.81985 
L 146.48123 210.15873 
L 146.498952 207.49761 
L 146.526738 204.83649 
L 146.569384 202.17537 
L 146.633188 199.51425 
L 146.726139 196.85313 
L 146.858117 194.19201 
L 147.041113 191.53089 
L 147.289446 188.86977 
L 147.304817 188.743472 
L 147.591546 186.20865 
L 147.984133 183.54753 
L 148.48824 180.88641 
L 149.090417 178.366977 
L 149.122614 178.22529 
L 149.982427 175.12065 
L 150.876017 172.517639 
L 150.895296 172.45953 
L 151.897631 169.79841 
L 152.697329 167.953385 
L 153.042929 167.13729 
L 154.277632 164.47617 
L 154.482929 164.056182 
L 155.555784 161.81505 
L 156.268529 160.3766 
L 156.860096 159.15393 
L 158.054129 156.679735 
L 158.141629 156.49281 
L 159.313232 153.83169 
L 159.875441 152.46017 
L 160.37943 151.17057 
L 161.302576 148.50945 
L 161.661041 147.302851 
L 162.066292 145.84833 
L 162.674718 143.18721 
L 163.160896 140.52609 
L 163.446641 138.488218 
L 163.527156 137.86497 
L 163.77957 135.20385 
L 163.984784 132.09921 
L 164.102607 129.43809 
L 164.181544 126.77697 
L 164.232806 124.11585 
L 164.265018 121.45473 
L 164.28457 118.79361 
L 164.29605 116.13249 
L 164.302636 113.47137 
L 164.30642 110.81025 
L 164.308672 108.14913 
L 164.310063 105.48801 
L 164.310892 102.82689 
L 164.311277 100.16577 
L 164.31131 97.50465 
L 164.311127 94.84353 
L 164.310904 92.18241 
L 164.3108 89.52129 
L 164.310927 86.41665 
L 164.311197 83.75553 
L 164.311486 81.09441 
L 164.311671 78.43329 
L 164.31172 75.77217 
L 164.311739 73.11105 
L 164.311969 70.44993 
L 164.312755 67.78881 
L 164.314518 65.12769 
L 164.317798 62.46657 
L 164.323384 59.80545 
L 164.332544 57.14433 
L 164.347314 54.48321 
L 164.370816 51.82209 
L 164.407564 49.16097 
L 164.463757 46.49985 
L 164.564936 43.39521 
L 164.694469 40.73409 
L 164.87795 38.07297 
L 165.132623 35.41185 
L 165.232241 34.635031 
L 165.458062 32.75073 
L 165.883558 30.08961 
L 166.448574 27.42849 
L 167.053553 25.242249 
L 167.180748 24.76737 
L 168.073403 22.10625 
" clip-path="url(#pcae3f0fed7)" style="fill: none; stroke: #deebf7; stroke-width: 1.5"/>
   </g>
   <g id="PathCollection_3">
    <path d="M 66.944645 22.10625 
L 68.260408 24.76737 
L 68.345585 24.983835 
L 69.271178 27.42849 
L 70.034803 30.08961 
L 70.131185 30.527531 
L 70.616772 32.75073 
L 71.048108 35.41185 
L 71.361698 38.07297 
L 71.585566 40.73409 
L 71.742058 43.39521 
L 71.862936 46.49985 
L 71.916785 48.657468 
L 71.929744 49.16097 
L 71.974245 51.82209 
L 72.002486 54.48321 
L 72.020133 57.14433 
L 72.031018 59.80545 
L 72.037583 62.46657 
L 72.041336 65.12769 
L 72.043241 67.78881 
L 72.043992 70.44993 
L 72.044152 73.11105 
L 72.044164 75.77217 
L 72.044305 78.43329 
L 72.044643 81.09441 
L 72.04507 83.75553 
L 72.045391 86.41665 
L 72.045428 89.52129 
L 72.045161 92.18241 
L 72.044768 94.84353 
L 72.044463 97.50465 
L 72.044412 100.16577 
L 72.044643 102.82689 
L 72.045031 105.48801 
L 72.045366 108.14913 
L 72.045466 110.81025 
L 72.045276 113.47137 
L 72.044901 116.13249 
L 72.044543 118.79361 
L 72.044396 121.45473 
L 72.04454 124.11585 
L 72.044897 126.77697 
L 72.045274 129.43809 
L 72.045466 132.09921 
L 72.045326 135.20385 
L 72.04497 137.86497 
L 72.044594 140.52609 
L 72.044404 143.18721 
L 72.044502 145.84833 
L 72.044837 148.50945 
L 72.045228 151.17057 
L 72.045464 153.83169 
L 72.045419 156.49281 
L 72.045119 159.15393 
L 72.044728 161.81505 
L 72.044461 164.47617 
L 72.044464 167.13729 
L 72.044738 169.79841 
L 72.045137 172.45953 
L 72.045447 175.12065 
L 72.045482 178.22529 
L 72.045215 180.88641 
L 72.044824 183.54753 
L 72.044521 186.20865 
L 72.044472 188.86977 
L 72.044705 191.53089 
L 72.045094 194.19201 
L 72.04543 196.85313 
L 72.04553 199.51425 
L 72.045341 202.17537 
L 72.044966 204.83649 
L 72.044608 207.49761 
L 72.044461 210.15873 
L 72.044605 212.81985 
L 72.044962 215.48097 
L 72.045337 218.14209 
L 72.045525 220.80321 
L 72.045376 223.90785 
L 72.044999 226.56897 
L 72.044581 229.23009 
L 72.044302 231.89121 
L 72.044221 234.55233 
L 72.0442 237.21345 
L 72.043904 239.87457 
L 72.042846 242.53569 
L 72.040427 245.19681 
L 72.035888 247.85793 
L 72.028126 250.51905 
L 72.015378 253.18017 
L 71.994805 255.84129 
L 71.962039 258.50241 
L 71.916785 260.850645 
L 71.910946 261.16353 
L 71.835067 263.82465 
L 71.698216 266.92929 
L 71.522754 269.59041 
L 71.273925 272.25153 
L 70.928237 274.91265 
L 70.456444 277.57377 
L 70.131185 278.959312 
L 69.829585 280.23489 
L 69.007582 282.89601 
L 68.345585 284.557304 
L 67.932101 285.55713 
L 66.559985 288.180861 
L 66.539214 288.21825 
" clip-path="url(#pcae3f0fed7)" style="fill: none; stroke: #c6dbef; stroke-width: 1.5"/>
    <path d="M 161.17739 288.21825 
L 160.005104 285.55713 
L 159.875441 285.18623 
L 159.085845 282.89601 
L 158.388208 280.23489 
L 158.054129 278.549238 
L 157.858124 277.57377 
L 157.455522 274.91265 
L 157.16281 272.25153 
L 156.953854 269.59041 
L 156.8078 266.92929 
L 156.695004 263.82465 
L 156.633086 261.16353 
L 156.59299 258.50241 
L 156.567549 255.84129 
L 156.551654 253.18017 
L 156.541852 250.51905 
L 156.535942 247.85793 
L 156.532568 245.19681 
L 156.530862 242.53569 
L 156.5302 239.87457 
L 156.530079 237.21345 
L 156.530113 234.55233 
L 156.530077 231.89121 
L 156.529957 229.23009 
L 156.529936 226.56897 
L 156.530345 223.90785 
L 156.531905 220.80321 
L 156.53471 218.14209 
L 156.539543 215.48097 
L 156.547435 212.81985 
L 156.560095 210.15873 
L 156.580224 207.49761 
L 156.611803 204.83649 
L 156.660321 202.17537 
L 156.732958 199.51425 
L 156.838744 196.85313 
L 156.988699 194.19201 
L 157.195948 191.53089 
L 157.47575 188.86977 
L 157.845401 186.20865 
L 158.054129 185.034487 
L 158.310716 183.54753 
L 158.887113 180.88641 
L 159.602678 178.22529 
L 159.875441 177.380739 
L 160.598413 175.12065 
L 161.610419 172.45953 
L 161.661041 172.339963 
L 162.728026 169.79841 
L 163.446641 168.245368 
L 163.955708 167.13729 
L 165.232241 164.520118 
L 165.253487 164.47617 
L 166.553906 161.81505 
L 167.053553 160.784998 
L 167.830374 159.15393 
L 168.839153 156.938717 
L 169.037544 156.49281 
L 170.119036 153.83169 
L 170.624753 152.435907 
L 171.067653 151.17057 
L 171.865078 148.50945 
L 172.410353 146.323454 
L 172.523966 145.84833 
L 173.031859 143.18721 
L 173.426762 140.52609 
L 173.724492 137.86497 
L 173.942364 135.20385 
L 174.118079 132.09921 
L 174.218536 129.43809 
L 174.231665 128.91793 
L 174.283009 126.77697 
L 174.324406 124.11585 
L 174.350366 121.45473 
L 174.366044 118.79361 
L 174.375169 116.13249 
L 174.380368 113.47137 
L 174.383386 110.81025 
L 174.385267 108.14913 
L 174.38652 105.48801 
L 174.387318 102.82689 
L 174.38769 100.16577 
L 174.387676 97.50465 
L 174.387411 94.84353 
L 174.3871 92.18241 
L 174.386945 89.52129 
L 174.387089 86.41665 
L 174.387432 83.75553 
L 174.38781 81.09441 
L 174.38806 78.43329 
L 174.388132 75.77217 
L 174.388152 73.11105 
L 174.388425 70.44993 
L 174.389391 67.78881 
L 174.391591 65.12769 
L 174.395715 62.46657 
L 174.402762 59.80545 
L 174.414332 57.14433 
L 174.433002 54.48321 
L 174.462733 51.82209 
L 174.509269 49.16097 
L 174.580519 46.49985 
L 174.708994 43.39521 
L 174.873686 40.73409 
L 175.107215 38.07297 
L 175.431633 35.41185 
L 175.874409 32.75073 
L 176.017265 32.096598 
L 176.450122 30.08961 
L 177.206572 27.42849 
L 177.802865 25.801603 
L 178.187532 24.76737 
L 179.441436 22.10625 
" clip-path="url(#pcae3f0fed7)" style="fill: none; stroke: #c6dbef; stroke-width: 1.5"/>
   </g>
   <g id="PathCollection_4">
    <path d="M 54.733007 22.10625 
L 55.774961 23.068709 
L 57.3289 24.76737 
L 57.560561 25.078752 
L 59.092982 27.42849 
L 59.381873 27.993878 
L 60.350769 30.08961 
L 61.167473 32.424127 
L 61.273725 32.75073 
L 61.930989 35.41185 
L 62.408977 38.07297 
L 62.750391 40.73409 
L 62.953073 42.989098 
L 62.988337 43.39521 
L 63.168441 46.49985 
L 63.267449 49.16097 
L 63.331644 51.82209 
L 63.372415 54.48321 
L 63.397909 57.14433 
L 63.413644 59.80545 
L 63.423149 62.46657 
L 63.428605 65.12769 
L 63.431396 67.78881 
L 63.432517 70.44993 
L 63.432768 73.11105 
L 63.432785 75.77217 
L 63.432969 78.43329 
L 63.433434 81.09441 
L 63.434037 83.75553 
L 63.434502 86.41665 
L 63.43458 89.52129 
L 63.434219 92.18241 
L 63.433666 94.84353 
L 63.433223 97.50465 
L 63.433131 100.16577 
L 63.43344 102.82689 
L 63.433983 105.48801 
L 63.434465 108.14913 
L 63.434626 110.81025 
L 63.434378 113.47137 
L 63.433855 116.13249 
L 63.433341 118.79361 
L 63.433115 121.45473 
L 63.433299 124.11585 
L 63.433793 126.77697 
L 63.43433 129.43809 
L 63.434618 132.09921 
L 63.434444 135.20385 
L 63.43395 137.86497 
L 63.433413 140.52609 
L 63.433125 143.18721 
L 63.433241 145.84833 
L 63.4337 148.50945 
L 63.434252 151.17057 
L 63.434598 153.83169 
L 63.434551 156.49281 
L 63.434137 159.15393 
L 63.43358 161.81505 
L 63.433182 164.47617 
L 63.43316 167.13729 
L 63.433525 169.79841 
L 63.43408 172.45953 
L 63.434524 175.12065 
L 63.434592 178.22529 
L 63.434227 180.88641 
L 63.433673 183.54753 
L 63.433229 186.20865 
L 63.433137 188.86977 
L 63.433446 191.53089 
L 63.43399 194.19201 
L 63.434472 196.85313 
L 63.434633 199.51425 
L 63.434385 202.17537 
L 63.433862 204.83649 
L 63.433348 207.49761 
L 63.433122 210.15873 
L 63.433305 212.81985 
L 63.433799 215.48097 
L 63.434334 218.14209 
L 63.434618 220.80321 
L 63.434431 223.90785 
L 63.43391 226.56897 
L 63.433317 229.23009 
L 63.432909 231.89121 
L 63.432783 234.55233 
L 63.432759 237.21345 
L 63.432374 239.87457 
L 63.430953 242.53569 
L 63.427659 245.19681 
L 63.421435 247.85793 
L 63.41076 250.51905 
L 63.393206 253.18017 
L 63.364859 255.84129 
L 63.319681 258.50241 
L 63.248886 261.16353 
L 63.14035 263.82465 
L 62.953073 266.792101 
L 62.944134 266.92929 
L 62.686259 269.59041 
L 62.320292 272.25153 
L 61.811611 274.91265 
L 61.167473 277.385214 
L 61.115169 277.57377 
L 60.144265 280.23489 
L 59.381873 281.834378 
L 58.824973 282.89601 
L 57.560561 284.801111 
L 56.991829 285.55713 
L 55.774961 286.882638 
L 54.337813 288.21825 
" clip-path="url(#pcae3f0fed7)" style="fill: none; stroke: #9dcae1; stroke-width: 1.5"/>
    <path d="M 170.616821 288.21825 
L 168.946109 285.55713 
L 168.839153 285.34319 
L 167.6806 282.89601 
L 167.053553 281.173114 
L 166.724073 280.23489 
L 166.006714 277.57377 
L 165.476918 274.91265 
L 165.232241 273.233867 
L 165.089771 272.25153 
L 164.810979 269.59041 
L 164.615953 266.92929 
L 164.465188 263.82465 
L 164.382343 261.16353 
L 164.328647 258.50241 
L 164.294553 255.84129 
L 164.27324 253.18017 
L 164.26009 250.51905 
L 164.252152 247.85793 
L 164.247604 245.19681 
L 164.245289 242.53569 
L 164.244375 239.87457 
L 164.244196 237.21345 
L 164.244233 234.55233 
L 164.244179 231.89121 
L 164.243995 229.23009 
L 164.243904 226.56897 
L 164.244311 223.90785 
L 164.246075 220.80321 
L 164.249319 218.14209 
L 164.254923 215.48097 
L 164.264042 212.81985 
L 164.27862 210.15873 
L 164.301766 207.49761 
L 164.338086 204.83649 
L 164.393936 202.17537 
L 164.47759 199.51425 
L 164.599364 196.85313 
L 164.771679 194.19201 
L 165.009052 191.53089 
L 165.232241 189.66346 
L 165.32634 188.86977 
L 165.73702 186.20865 
L 166.261984 183.54753 
L 166.917815 180.88641 
L 167.053553 180.428249 
L 167.707091 178.22529 
L 168.810763 175.12065 
L 168.839153 175.050761 
L 169.895481 172.45953 
L 170.624753 170.840145 
L 171.095443 169.79841 
L 172.374332 167.13729 
L 172.410353 167.064237 
L 173.681621 164.47617 
L 174.231665 163.350279 
L 174.975743 161.81505 
L 176.017265 159.571697 
L 176.20895 159.15393 
L 177.335592 156.49281 
L 177.802865 155.260907 
L 178.334933 153.83169 
L 179.191698 151.17057 
L 179.588465 149.703397 
L 179.904582 148.50945 
L 180.477632 145.84833 
L 180.929767 143.18721 
L 181.276721 140.52609 
L 181.409777 139.160181 
L 181.533469 137.86497 
L 181.71811 135.20385 
L 181.866218 132.09921 
L 181.950693 129.43809 
L 182.007201 126.77697 
L 182.04388 124.11585 
L 182.066843 121.45473 
L 182.080621 118.79361 
L 182.088546 116.13249 
L 182.093015 113.47137 
L 182.095642 110.81025 
L 182.097374 108.14913 
L 182.09863 105.48801 
L 182.099484 102.82689 
L 182.099884 100.16577 
L 182.099828 97.50465 
L 182.09946 94.84353 
L 182.099035 92.18241 
L 182.098814 89.52129 
L 182.098985 86.41665 
L 182.09943 83.75553 
L 182.099929 81.09441 
L 182.100268 78.43329 
L 182.10037 75.77217 
L 182.100393 73.11105 
L 182.100731 70.44993 
L 182.101956 67.78881 
L 182.104778 65.12769 
L 182.110094 62.46657 
L 182.1192 59.80545 
L 182.134165 57.14433 
L 182.158325 54.48321 
L 182.196818 51.82209 
L 182.257116 49.16097 
L 182.349519 46.49985 
L 182.516303 43.39521 
L 182.730306 40.73409 
L 183.033987 38.07297 
L 183.195377 37.044314 
L 183.452845 35.41185 
L 184.021955 32.75073 
L 184.787371 30.08961 
L 184.980977 29.566189 
L 185.80006 27.42849 
L 186.766577 25.469711 
L 187.132162 24.76737 
L 188.587889 22.523484 
L 188.87914 22.10625 
" clip-path="url(#pcae3f0fed7)" style="fill: none; stroke: #9dcae1; stroke-width: 1.5"/>
   </g>
   <g id="PathCollection_5">
    <path d="M 34.240625 41.064181 
L 34.316077 40.73409 
L 35.172978 38.07297 
L 36.026225 36.156498 
L 36.449557 35.41185 
L 37.847537 33.573584 
L 38.726409 32.75073 
L 39.633137 32.093786 
L 41.418737 31.312868 
L 43.204337 31.042138 
L 45.025649 31.290465 
L 46.811249 32.056764 
L 47.770417 32.75073 
L 48.596849 33.528501 
L 50.012223 35.41185 
L 50.382449 36.075678 
L 51.25082 38.07297 
L 52.080668 40.73409 
L 52.203761 41.293923 
L 52.589072 43.39521 
L 52.967448 46.49985 
L 53.175636 49.16097 
L 53.31074 51.82209 
L 53.39661 54.48321 
L 53.450335 57.14433 
L 53.483515 59.80545 
L 53.503593 62.46657 
L 53.515163 65.12769 
L 53.521136 67.78881 
L 53.52358 70.44993 
L 53.524157 73.11105 
L 53.524191 75.77217 
L 53.524538 78.43329 
L 53.525465 81.09441 
L 53.526699 83.75553 
L 53.527685 86.41665 
L 53.5279 89.52129 
L 53.527197 92.18241 
L 53.526068 94.84353 
L 53.525131 97.50465 
L 53.524895 100.16577 
L 53.525488 102.82689 
L 53.526591 105.48801 
L 53.527604 108.14913 
L 53.527979 110.81025 
L 53.527513 113.47137 
L 53.526458 116.13249 
L 53.525386 118.79361 
L 53.524878 121.45473 
L 53.52521 124.11585 
L 53.526201 126.77697 
L 53.527315 129.43809 
L 53.527947 132.09921 
L 53.527644 135.20385 
L 53.526652 137.86497 
L 53.525539 140.52609 
L 53.524907 143.18721 
L 53.525099 145.84833 
L 53.526011 148.50945 
L 53.527148 151.17057 
L 53.527895 153.83169 
L 53.527846 156.49281 
L 53.527028 159.15393 
L 53.525884 161.81505 
L 53.525035 164.47617 
L 53.52494 167.13729 
L 53.525652 169.79841 
L 53.526784 172.45953 
L 53.527722 175.12065 
L 53.527914 178.22529 
L 53.527203 180.88641 
L 53.526071 183.54753 
L 53.525132 186.20865 
L 53.524896 188.86977 
L 53.525489 191.53089 
L 53.526592 194.19201 
L 53.527605 196.85313 
L 53.52798 199.51425 
L 53.527514 202.17537 
L 53.526458 204.83649 
L 53.525386 207.49761 
L 53.524879 210.15873 
L 53.52521 212.81985 
L 53.5262 215.48097 
L 53.527309 218.14209 
L 53.527932 220.80321 
L 53.527603 223.90785 
L 53.526561 226.56897 
L 53.525336 229.23009 
L 53.52447 231.89121 
L 53.524183 234.55233 
L 53.524141 237.21345 
L 53.523425 239.87457 
L 53.520669 242.53569 
L 53.514175 245.19681 
L 53.501808 247.85793 
L 53.480521 250.51905 
L 53.445469 253.18017 
L 53.388829 255.84129 
L 53.298507 258.50241 
L 53.156858 261.16353 
L 52.939502 263.82465 
L 52.546648 266.92929 
L 52.203761 268.742576 
L 52.012136 269.59041 
L 51.163472 272.25153 
L 50.382449 274.024283 
L 49.884405 274.91265 
L 48.596849 276.629621 
L 47.611879 277.57377 
L 46.811249 278.167451 
L 45.025649 278.979224 
L 43.204337 279.281283 
L 41.418737 279.063417 
L 39.633137 278.328601 
L 38.564139 277.57377 
L 37.847537 276.915828 
L 36.319941 274.91265 
L 36.026225 274.393568 
L 35.084758 272.25153 
L 34.24678 269.59041 
L 34.240625 269.562746 
" clip-path="url(#pcae3f0fed7)" style="fill: none; stroke: #6aaed6; stroke-width: 1.5"/>
    <path d="M 180.726008 288.21825 
L 179.588465 287.144082 
L 178.09141 285.55713 
L 177.802865 285.181867 
L 176.203999 282.89601 
L 176.017265 282.557152 
L 174.831092 280.23489 
L 174.231665 278.694163 
L 173.82075 277.57377 
L 173.086371 274.91265 
L 172.552037 272.25153 
L 172.410353 271.272235 
L 172.174734 269.59041 
L 171.912514 266.92929 
L 171.709648 263.82465 
L 171.598079 261.16353 
L 171.525714 258.50241 
L 171.479741 255.84129 
L 171.450988 253.18017 
L 171.43324 250.51905 
L 171.422514 247.85793 
L 171.416354 245.19681 
L 171.4132 242.53569 
L 171.411938 239.87457 
L 171.411676 237.21345 
L 171.411714 234.55233 
L 171.41163 231.89121 
L 171.411351 229.23009 
L 171.411146 226.56897 
L 171.411516 223.90785 
L 171.413474 220.80321 
L 171.417187 218.14209 
L 171.42361 215.48097 
L 171.434008 212.81985 
L 171.450545 210.15873 
L 171.476737 207.49761 
L 171.517829 204.83649 
L 171.581057 202.17537 
L 171.675778 199.51425 
L 171.813505 196.85313 
L 172.007844 194.19201 
L 172.274271 191.53089 
L 172.410353 190.509451 
L 172.632779 188.86977 
L 173.099849 186.20865 
L 173.688901 183.54753 
L 174.231665 181.54837 
L 174.415003 180.88641 
L 175.289053 178.22529 
L 176.017265 176.322501 
L 176.485337 175.12065 
L 177.644472 172.45953 
L 177.802865 172.120998 
L 178.900282 169.79841 
L 179.588465 168.390583 
L 180.204759 167.13729 
L 181.409777 164.67722 
L 181.508445 164.47617 
L 182.768291 161.81505 
L 183.195377 160.8475 
L 183.939386 159.15393 
L 184.980977 156.512422 
L 184.988674 156.49281 
L 185.907754 153.83169 
L 186.681252 151.17057 
L 186.766577 150.816945 
L 187.322315 148.50945 
L 187.83467 145.84833 
L 188.233596 143.18721 
L 188.536592 140.52609 
L 188.587889 139.920471 
L 188.763378 137.86497 
L 188.92769 135.20385 
L 189.059199 132.09921 
L 189.134234 129.43809 
L 189.184522 126.77697 
L 189.217205 124.11585 
L 189.237615 121.45473 
L 189.249738 118.79361 
L 189.256579 116.13249 
L 189.260369 113.47137 
L 189.262637 110.81025 
L 189.264262 108.14913 
L 189.265572 105.48801 
L 189.266529 102.82689 
L 189.26698 100.16577 
L 189.266875 97.50465 
L 189.26637 94.84353 
L 189.265791 92.18241 
L 189.265478 89.52129 
L 189.265686 86.41665 
L 189.266269 83.75553 
L 189.266936 81.09441 
L 189.267396 78.43329 
L 189.267541 75.77217 
L 189.267569 73.11105 
L 189.267993 70.44993 
L 189.269571 67.78881 
L 189.27324 65.12769 
L 189.280181 62.46657 
L 189.292095 59.80545 
L 189.311693 57.14433 
L 189.343344 54.48321 
L 189.393796 51.82209 
L 189.472872 49.16097 
L 189.594136 46.49985 
L 189.813192 43.39521 
L 190.09447 40.73409 
L 190.373489 38.867788 
L 190.496158 38.07297 
L 191.062187 35.41185 
L 191.835252 32.75073 
L 192.159089 31.904263 
L 192.894479 30.08961 
L 193.944689 28.099513 
L 194.326183 27.42849 
L 195.766001 25.420408 
L 196.279683 24.76737 
L 197.551601 23.440749 
L 198.982432 22.10625 
" clip-path="url(#pcae3f0fed7)" style="fill: none; stroke: #6aaed6; stroke-width: 1.5"/>
    <path d="M 387.734855 22.10625 
L 387.753713 22.123003 
L 389.575025 23.911942 
L 390.353667 24.76737 
L 391.360625 26.126922 
" clip-path="url(#pcae3f0fed7)" style="fill: none; stroke: #6aaed6; stroke-width: 1.5"/>
    <path d="M 391.360625 283.789437 
L 390.026518 285.55713 
L 389.575025 286.047085 
L 387.753713 287.83607 
L 387.321331 288.21825 
" clip-path="url(#pcae3f0fed7)" style="fill: none; stroke: #6aaed6; stroke-width: 1.5"/>
   </g>
   <g id="PathCollection_6">
    <path d="M 196.416683 288.21825 
L 193.944689 287.328143 
L 192.159089 286.552398 
L 190.203253 285.55713 
L 188.587889 284.454547 
L 186.622862 282.89601 
L 184.28125 280.23489 
L 182.656016 277.57377 
L 181.409777 274.607658 
L 180.713477 272.25153 
L 180.150054 269.59041 
L 179.588465 265.237142 
L 179.297177 261.16353 
L 179.08634 253.18017 
L 179.029783 237.21345 
L 179.103609 207.49761 
L 179.32976 199.51425 
L 179.711411 194.19201 
L 180.437064 188.86977 
L 181.409777 184.396294 
L 181.627172 183.54753 
L 183.195377 178.786794 
L 183.402446 178.22529 
L 184.980977 174.499182 
L 188.587889 167.001953 
L 191.009533 161.81505 
L 193.071098 156.49281 
L 193.944689 153.635986 
L 194.598964 151.17057 
L 195.168061 148.50945 
L 195.971038 143.18721 
L 196.443374 137.86497 
L 196.702736 132.09921 
L 196.860015 121.45473 
L 196.883634 89.52129 
L 196.992232 54.48321 
L 197.173217 49.16097 
L 197.551601 44.380516 
L 197.654435 43.39521 
L 198.068772 40.73409 
L 198.657325 38.07297 
L 199.484413 35.41185 
L 201.122801 31.97863 
L 202.944113 29.363429 
L 204.73742 27.42849 
L 206.515313 26.036501 
L 208.385237 24.76737 
L 211.907825 23.105671 
L 214.679415 22.10625 
L 214.679415 22.10625 
" clip-path="url(#pcae3f0fed7)" style="fill: none; stroke: #4191c6; stroke-width: 1.5"/>
    <path d="M 372.03778 22.10625 
L 373.397489 22.570497 
L 375.218801 23.29291 
L 377.004401 24.115877 
L 378.234909 24.76737 
L 378.790001 25.119553 
L 380.575601 26.407039 
L 381.81522 27.42849 
L 382.396913 28.024117 
L 384.182513 30.08883 
L 384.183121 30.08961 
L 385.800262 32.75073 
L 385.968113 33.116861 
L 386.931744 35.41185 
L 387.747675 38.07297 
L 387.753713 38.100154 
L 388.299626 40.73409 
L 388.685932 43.39521 
L 388.98499 46.49985 
L 389.14958 49.16097 
L 389.256403 51.82209 
L 389.324303 54.48321 
L 389.366786 57.14433 
L 389.393021 59.80545 
L 389.408891 62.46657 
L 389.418029 65.12769 
L 389.422737 67.78881 
L 389.424656 70.44993 
L 389.425106 73.11105 
L 389.425134 75.77217 
L 389.425417 78.43329 
L 389.426159 81.09441 
L 389.42714 83.75553 
L 389.427918 86.41665 
L 389.428078 89.52129 
L 389.427512 92.18241 
L 389.426614 94.84353 
L 389.425875 97.50465 
L 389.425696 100.16577 
L 389.426176 102.82689 
L 389.427054 105.48801 
L 389.427855 108.14913 
L 389.428144 110.81025 
L 389.427765 113.47137 
L 389.426923 116.13249 
L 389.426075 118.79361 
L 389.42568 121.45473 
L 389.425953 124.11585 
L 389.426745 126.77697 
L 389.427627 129.43809 
L 389.428122 132.09921 
L 389.42787 135.20385 
L 389.427078 137.86497 
L 389.426195 140.52609 
L 389.425701 143.18721 
L 389.425863 145.84833 
L 389.426593 148.50945 
L 389.427496 151.17057 
L 389.428082 153.83169 
L 389.428033 156.49281 
L 389.427377 159.15393 
L 389.426468 161.81505 
L 389.425799 164.47617 
L 389.425734 167.13729 
L 389.426306 169.79841 
L 389.427207 172.45953 
L 389.427947 175.12065 
L 389.428089 178.22529 
L 389.427516 180.88641 
L 389.426616 183.54753 
L 389.425875 186.20865 
L 389.425697 188.86977 
L 389.426176 191.53089 
L 389.427054 194.19201 
L 389.427855 196.85313 
L 389.428144 199.51425 
L 389.427765 202.17537 
L 389.426923 204.83649 
L 389.426075 207.49761 
L 389.42568 210.15873 
L 389.425952 212.81985 
L 389.426743 215.48097 
L 389.427622 218.14209 
L 389.428109 220.80321 
L 389.427837 223.90785 
L 389.427003 226.56897 
L 389.426031 229.23009 
L 389.425349 231.89121 
L 389.425126 234.55233 
L 389.425088 237.21345 
L 389.424502 239.87457 
L 389.422274 242.53569 
L 389.417049 245.19681 
L 389.407123 247.85793 
L 389.390053 250.51905 
L 389.361952 253.18017 
L 389.31655 255.84129 
L 389.244153 258.50241 
L 389.130622 261.16353 
L 388.956415 263.82465 
L 388.641503 266.92929 
L 388.236895 269.59041 
L 387.753713 271.831997 
L 387.656913 272.25153 
L 386.811782 274.91265 
L 385.968113 276.869438 
L 385.637214 277.57377 
L 384.182513 279.923693 
L 383.969433 280.23489 
L 382.396913 282.034104 
L 381.549227 282.89601 
L 380.575601 283.696291 
L 378.790001 284.990984 
L 377.902191 285.55713 
L 377.004401 286.036556 
L 375.218801 286.872838 
L 373.397489 287.609751 
L 371.651049 288.21825 
" clip-path="url(#pcae3f0fed7)" style="fill: none; stroke: #4191c6; stroke-width: 1.5"/>
   </g>
   <g id="PathCollection_7">
    <path d="M 190.048129 266.92929 
L 189.509597 263.82465 
L 189.213003 261.16353 
L 189.020386 258.50241 
L 188.897889 255.84129 
L 188.821218 253.18017 
L 188.773851 250.51905 
L 188.745173 247.85793 
L 188.728627 245.19681 
L 188.720067 242.53569 
L 188.716554 239.87457 
L 188.715741 237.21345 
L 188.715768 234.55233 
L 188.715456 231.89121 
L 188.714498 229.23009 
L 188.713423 226.56897 
L 188.713295 223.90785 
L 188.715901 220.80321 
L 188.721628 218.14209 
L 188.731561 215.48097 
L 188.747158 212.81985 
L 188.771225 210.15873 
L 188.808738 207.49761 
L 188.867409 204.83649 
L 188.957839 202.17537 
L 189.093274 199.51425 
L 189.289018 196.85313 
L 189.561525 194.19201 
L 189.927112 191.53089 
L 190.373489 189.021898 
L 190.402631 188.86977 
L 191.045857 186.20865 
L 191.81533 183.54753 
L 192.159089 182.535468 
L 192.749552 180.88641 
L 193.811341 178.22529 
L 193.944689 177.924687 
L 195.223468 175.12065 
L 195.766001 173.978579 
L 196.507935 172.45953 
L 197.551601 170.310278 
L 197.805646 169.79841 
L 199.086334 167.13729 
L 199.337201 166.582482 
L 200.30739 164.47617 
L 201.122801 162.496217 
L 201.409919 161.81505 
L 202.405767 159.15393 
L 202.944113 157.458041 
L 203.261355 156.49281 
L 204.000431 153.83169 
L 204.59567 151.17057 
L 204.729713 150.430772 
L 205.09781 148.50945 
L 205.497314 145.84833 
L 205.801591 143.18721 
L 206.02856 140.52609 
L 206.19443 137.86497 
L 206.313455 135.20385 
L 206.408916 132.09921 
L 206.464064 129.43809 
L 206.501639 126.77697 
L 206.515313 125.302074 
L 206.527331 124.11585 
L 206.543889 121.45473 
L 206.553036 118.79361 
L 206.557455 116.13249 
L 206.559496 113.47137 
L 206.560925 110.81025 
L 206.562662 108.14913 
L 206.564738 105.48801 
L 206.566573 102.82689 
L 206.567468 100.16577 
L 206.567096 97.50465 
L 206.565742 94.84353 
L 206.564183 92.18241 
L 206.563291 89.52129 
L 206.563738 86.41665 
L 206.565206 83.75553 
L 206.566945 81.09441 
L 206.568187 78.43329 
L 206.568608 75.77217 
L 206.568672 73.11105 
L 206.569666 70.44993 
L 206.573525 67.78881 
L 206.582653 65.12769 
L 206.60007 62.46657 
L 206.63008 59.80545 
L 206.679523 57.14433 
L 206.759436 54.48321 
L 206.886909 51.82209 
L 207.086902 49.16097 
L 207.39396 46.49985 
L 207.949378 43.39521 
L 208.300913 42.079252 
L 208.701044 40.73409 
L 209.821037 38.07297 
L 210.122225 37.551589 
L 211.520917 35.41185 
L 211.907825 34.968796 
L 213.693425 33.177714 
L 214.183124 32.75073 
L 215.479025 31.876962 
L 217.300337 30.821805 
L 218.780852 30.08961 
L 219.085937 29.969145 
L 220.871537 29.365279 
L 222.657137 28.85491 
L 224.478449 28.418039 
L 226.264049 28.060701 
L 228.049649 27.763797 
L 229.835249 27.518623 
L 230.635546 27.42849 
L 231.656561 27.333342 
L 233.442161 27.197839 
L 235.227761 27.088153 
L 237.013361 26.999978 
L 238.834673 26.928344 
L 240.620273 26.872824 
L 242.405873 26.829147 
L 244.191473 26.795039 
L 246.012785 26.768137 
L 247.798385 26.747902 
L 249.583985 26.732453 
L 251.369585 26.720745 
L 253.190897 26.711789 
L 254.976497 26.705257 
L 256.762097 26.700418 
L 258.547697 26.696862 
L 260.369009 26.694224 
L 262.154609 26.692359 
L 263.940209 26.691019 
L 265.725809 26.690064 
L 267.547121 26.689378 
L 269.332721 26.688907 
L 271.118321 26.688579 
L 272.903921 26.688352 
L 274.725233 26.688194 
L 276.510833 26.688089 
L 278.296433 26.688018 
L 280.082033 26.68797 
L 281.903345 26.687938 
L 283.688945 26.687917 
L 285.474545 26.687904 
L 287.260145 26.687895 
L 289.081457 26.68789 
L 290.867057 26.687887 
L 292.652657 26.687886 
L 294.438257 26.687886 
L 296.259569 26.687888 
L 298.045169 26.687891 
L 299.830769 26.687897 
L 301.616369 26.687907 
L 303.437681 26.687923 
L 305.223281 26.687946 
L 307.008881 26.687982 
L 308.794481 26.688035 
L 310.615793 26.688116 
L 312.401393 26.688234 
L 314.186993 26.688408 
L 315.972593 26.688659 
L 317.793905 26.689032 
L 319.579505 26.689556 
L 321.365105 26.690302 
L 323.150705 26.691353 
L 324.972017 26.69286 
L 326.757617 26.694919 
L 328.543217 26.697756 
L 330.328817 26.701639 
L 332.150129 26.707032 
L 333.935729 26.714177 
L 335.721329 26.723729 
L 337.506929 26.736404 
L 339.328241 26.753478 
L 341.113841 26.775413 
L 342.899441 26.803866 
L 344.685041 26.840504 
L 346.506353 26.888389 
L 348.291953 26.948093 
L 350.077553 27.023301 
L 351.863153 27.117374 
L 353.684465 27.236833 
L 355.470065 27.381613 
L 355.943031 27.42849 
L 357.255665 27.585866 
L 359.041265 27.846334 
L 360.862577 28.16851 
L 362.648177 28.549194 
L 364.433777 29.004585 
L 366.219377 29.546429 
L 367.731507 30.08961 
L 368.040689 30.228908 
L 369.826289 31.170242 
L 371.611889 32.274598 
L 372.277261 32.75073 
L 373.397489 33.791352 
L 374.906799 35.41185 
L 375.218801 35.860633 
L 376.568941 38.07297 
L 377.004401 39.059251 
L 377.662761 40.73409 
L 378.399317 43.39521 
L 378.790001 45.51612 
L 378.953602 46.49985 
L 379.239452 49.16097 
L 379.425095 51.82209 
L 379.543159 54.48321 
L 379.617055 57.14433 
L 379.662709 59.80545 
L 379.690351 62.46657 
L 379.706301 65.12769 
L 379.714559 67.78881 
L 379.717962 70.44993 
L 379.718782 73.11105 
L 379.718834 75.77217 
L 379.719297 78.43329 
L 379.720547 81.09441 
L 379.722225 83.75553 
L 379.723579 86.41665 
L 379.723894 89.52129 
L 379.722953 92.18241 
L 379.721421 94.84353 
L 379.720134 97.50465 
L 379.719794 100.16577 
L 379.720585 102.82689 
L 379.72208 105.48801 
L 379.723467 108.14913 
L 379.723996 110.81025 
L 379.723379 113.47137 
L 379.721951 116.13249 
L 379.720486 118.79361 
L 379.719778 121.45473 
L 379.720211 124.11585 
L 379.72155 126.77697 
L 379.723069 129.43809 
L 379.723946 132.09921 
L 379.723555 135.20385 
L 379.722216 137.86497 
L 379.720696 140.52609 
L 379.71982 143.18721 
L 379.720062 145.84833 
L 379.721291 148.50945 
L 379.722841 151.17057 
L 379.723871 153.83169 
L 379.723824 156.49281 
L 379.722724 159.15393 
L 379.721169 161.81505 
L 379.72 164.47617 
L 379.719852 167.13729 
L 379.720805 169.79841 
L 379.722342 172.45953 
L 379.72363 175.12065 
L 379.723914 178.22529 
L 379.722961 180.88641 
L 379.721424 183.54753 
L 379.720136 186.20865 
L 379.719795 188.86977 
L 379.720586 191.53089 
L 379.72208 194.19201 
L 379.723467 196.85313 
L 379.723996 199.51425 
L 379.723379 202.17537 
L 379.721951 204.83649 
L 379.720486 207.49761 
L 379.719778 210.15873 
L 379.72021 212.81985 
L 379.721547 215.48097 
L 379.723061 218.14209 
L 379.723925 220.80321 
L 379.7235 223.90785 
L 379.722091 226.56897 
L 379.720422 229.23009 
L 379.71923 231.89121 
L 379.718825 234.55233 
L 379.718764 237.21345 
L 379.71781 239.87457 
L 379.714105 242.53569 
L 379.70534 245.19681 
L 379.688617 247.85793 
L 379.659801 250.51905 
L 379.612328 253.18017 
L 379.535596 255.84129 
L 379.413197 258.50241 
L 379.221162 261.16353 
L 378.926319 263.82465 
L 378.790001 264.6222 
L 378.353671 266.92929 
L 377.600183 269.59041 
L 377.004401 271.079204 
L 376.47839 272.25153 
L 375.218801 274.291166 
L 374.782635 274.91265 
L 373.397489 276.391237 
L 372.121201 277.57377 
L 371.611889 277.93839 
L 369.826289 279.047578 
L 368.040689 279.996307 
L 367.515922 280.23489 
L 366.219377 280.705806 
L 364.433777 281.255737 
L 362.648177 281.719146 
L 360.862577 282.107494 
L 359.041265 282.43693 
L 357.255665 282.703857 
L 355.694125 282.89601 
L 355.470065 282.918819 
L 353.684465 283.06782 
L 351.863153 283.190976 
L 350.077553 283.288124 
L 348.291953 283.365914 
L 346.506353 283.427761 
L 344.685041 283.477439 
L 342.899441 283.515503 
L 341.113841 283.545105 
L 339.328241 283.567955 
L 337.506929 283.585767 
L 335.721329 283.599006 
L 333.935729 283.608996 
L 332.150129 283.616478 
L 330.328817 283.622133 
L 328.543217 283.626209 
L 326.757617 283.629192 
L 324.972017 283.631358 
L 323.150705 283.632946 
L 321.365105 283.634055 
L 319.579505 283.634843 
L 317.793905 283.635398 
L 315.972593 283.635792 
L 314.186993 283.636059 
L 312.401393 283.636242 
L 310.615793 283.636368 
L 308.794481 283.636454 
L 307.008881 283.636511 
L 305.223281 283.636549 
L 303.437681 283.636574 
L 301.616369 283.636591 
L 299.830769 283.636602 
L 298.045169 283.636609 
L 296.259569 283.636613 
L 294.438257 283.636616 
L 292.652657 283.636618 
L 290.867057 283.636619 
L 289.081457 283.63662 
L 287.260145 283.63662 
L 285.474545 283.63662 
L 283.688945 283.63662 
L 281.903345 283.63662 
L 280.082033 283.63662 
L 278.296433 283.636619 
L 276.510833 283.636618 
L 274.725233 283.636617 
L 272.903921 283.636615 
L 271.118321 283.636611 
L 269.332721 283.636606 
L 267.547121 283.636598 
L 265.725809 283.636584 
L 263.940209 283.636564 
L 262.154609 283.636534 
L 260.369009 283.636489 
L 258.547697 283.63642 
L 256.762097 283.636318 
L 254.976497 283.63617 
L 253.190897 283.635953 
L 251.369585 283.635631 
L 249.583985 283.635176 
L 247.798385 283.634528 
L 246.012785 283.633611 
L 244.191473 283.632292 
L 242.405873 283.630486 
L 240.620273 283.627988 
L 238.834673 283.624559 
L 237.013361 283.619782 
L 235.227761 283.613435 
L 233.442161 283.604923 
L 231.656561 283.593594 
L 229.835249 283.578286 
L 228.049649 283.558561 
L 226.264049 283.532897 
L 224.478449 283.499754 
L 222.657137 283.456306 
L 220.871537 283.401978 
L 219.085937 283.333346 
L 217.300337 283.247257 
L 215.479025 283.137632 
L 213.693425 283.004409 
L 212.50973 282.89601 
L 211.907825 282.829351 
L 210.122225 282.588445 
L 208.300913 282.28973 
L 206.515313 281.935932 
L 204.729713 281.511758 
L 202.944113 281.005992 
L 201.122801 280.393005 
L 200.721995 280.23489 
L 199.337201 279.54915 
L 197.551601 278.512623 
L 196.165007 277.57377 
L 195.766001 277.223363 
L 193.944689 275.376806 
L 193.545314 274.91265 
L 192.159089 272.751765 
L 191.875732 272.25153 
L 190.781362 269.59041 
L 190.373489 268.18108 
L 190.048129 266.92929 
z
" clip-path="url(#pcae3f0fed7)" style="fill: none; stroke: #2070b4; stroke-width: 1.5"/>
   </g>
   <g id="PathCollection_8">
    <path d="M 213.593778 250.51905 
L 213.367958 247.85793 
L 213.237327 245.19681 
L 213.169315 242.53569 
L 213.140967 239.87457 
L 213.133945 237.21345 
L 213.1336 234.55233 
L 213.130348 231.89121 
L 213.121065 229.23009 
L 213.108699 226.56897 
L 213.099668 223.90785 
L 213.101361 220.80321 
L 213.1161 218.14209 
L 213.141454 215.48097 
L 213.174438 212.81985 
L 213.214946 210.15873 
L 213.269423 207.49761 
L 213.352221 204.83649 
L 213.483795 202.17537 
L 213.686359 199.51425 
L 213.693425 199.45156 
L 214.039005 196.85313 
L 214.512206 194.19201 
L 215.102587 191.53089 
L 215.479025 190.128073 
L 215.860917 188.86977 
L 216.782803 186.20865 
L 217.300337 184.84461 
L 217.836705 183.54753 
L 218.98435 180.88641 
L 219.085937 180.663869 
L 220.263307 178.22529 
L 220.871537 176.947688 
L 221.765663 175.12065 
L 222.657137 173.194056 
L 223.014864 172.45953 
L 224.209677 169.79841 
L 224.478449 169.127909 
L 225.328811 167.13729 
L 226.264049 164.495086 
L 226.271267 164.47617 
L 227.171355 161.81505 
L 227.88482 159.15393 
L 228.049649 158.421829 
L 228.536189 156.49281 
L 229.082955 153.83169 
L 229.51799 151.17057 
L 229.835249 148.70527 
L 229.864615 148.50945 
L 230.181441 145.84833 
L 230.413953 143.18721 
L 230.577806 140.52609 
L 230.690598 137.86497 
L 230.769925 135.20385 
L 230.839045 132.09921 
L 230.887297 129.43809 
L 230.926898 126.77697 
L 230.955183 124.11585 
L 230.969457 121.45473 
L 230.97026 118.79361 
L 230.962438 116.13249 
L 230.953517 113.47137 
L 230.950324 110.81025 
L 230.95577 108.14913 
L 230.967586 105.48801 
L 230.979752 102.82689 
L 230.985885 100.16577 
L 230.982776 97.50465 
L 230.972178 94.84353 
L 230.959888 92.18241 
L 230.952635 89.52129 
L 230.955687 86.41665 
L 230.966877 83.75553 
L 230.980404 81.09441 
L 230.990251 78.43329 
L 230.993741 75.77217 
L 230.994224 73.11105 
L 231.001504 70.44993 
L 231.03045 67.78881 
L 231.099624 65.12769 
L 231.23226 62.46657 
L 231.46134 59.80545 
L 231.656561 58.429868 
L 231.879946 57.14433 
L 232.627408 54.48321 
L 233.442161 52.664471 
L 233.907277 51.82209 
L 235.227761 50.295348 
L 236.4474 49.16097 
L 237.013361 48.816775 
L 238.834673 47.933964 
L 240.620273 47.249958 
L 242.405873 46.712045 
L 243.307947 46.49985 
L 244.191473 46.364607 
L 246.012785 46.149064 
L 247.798385 45.987008 
L 249.583985 45.863328 
L 251.369585 45.769647 
L 253.190897 45.698015 
L 254.976497 45.645788 
L 256.762097 45.607127 
L 258.547697 45.578724 
L 260.369009 45.557666 
L 262.154609 45.542782 
L 263.940209 45.532096 
L 265.725809 45.524483 
L 267.547121 45.51901 
L 269.332721 45.51526 
L 271.118321 45.512649 
L 272.903921 45.510845 
L 274.725233 45.509587 
L 276.510833 45.508752 
L 278.296433 45.508188 
L 280.082033 45.50781 
L 281.903345 45.507555 
L 283.688945 45.507391 
L 285.474545 45.507285 
L 287.260145 45.507217 
L 289.081457 45.507174 
L 290.867057 45.507151 
L 292.652657 45.507141 
L 294.438257 45.507144 
L 296.259569 45.507159 
L 298.045169 45.50719 
L 299.830769 45.507241 
L 301.616369 45.507324 
L 303.437681 45.507455 
L 305.223281 45.507652 
L 307.008881 45.507951 
L 308.794481 45.508398 
L 310.615793 45.509081 
L 312.401393 45.510072 
L 314.186993 45.511523 
L 315.972593 45.513633 
L 317.793905 45.51675 
L 319.579505 45.521139 
L 321.365105 45.527374 
L 323.150705 45.536165 
L 324.972017 45.548753 
L 326.757617 45.565941 
L 328.543217 45.589622 
L 330.328817 45.621999 
L 332.150129 45.666954 
L 333.935729 45.726466 
L 335.721329 45.805992 
L 337.506929 45.911461 
L 339.328241 46.053464 
L 341.113841 46.235791 
L 342.899441 46.472188 
L 343.061905 46.49985 
L 344.685041 46.924691 
L 346.506353 47.535244 
L 348.291953 48.296177 
L 349.903721 49.16097 
L 350.077553 49.30367 
L 351.863153 51.133925 
L 352.40354 51.82209 
L 353.684465 54.380013 
L 353.726435 54.48321 
L 354.405321 57.14433 
L 354.824917 59.80545 
L 355.07921 62.46657 
L 355.226317 65.12769 
L 355.302916 67.78881 
L 355.334868 70.44993 
L 355.34284 73.11105 
L 355.343369 75.77217 
L 355.347322 78.43329 
L 355.358366 81.09441 
L 355.373461 83.75553 
L 355.385879 86.41665 
L 355.38916 89.52129 
L 355.380981 92.18241 
L 355.367242 94.84353 
L 355.355448 97.50465 
L 355.352018 100.16577 
L 355.358821 102.82689 
L 355.372174 105.48801 
L 355.38484 108.14913 
L 355.389954 110.81025 
L 355.384745 113.47137 
L 355.372036 116.13249 
L 355.358716 118.79361 
L 355.352005 121.45473 
L 355.355542 124.11585 
L 355.367409 126.77697 
L 355.381173 129.43809 
L 355.389373 132.09921 
L 355.386276 135.20385 
L 355.37441 137.86497 
L 355.360646 140.52609 
L 355.352445 143.18721 
L 355.354253 145.84833 
L 355.36509 148.50945 
L 355.379081 151.17057 
L 355.388643 153.83169 
L 355.388591 156.49281 
L 355.378955 159.15393 
L 355.364958 161.81505 
L 355.354186 164.47617 
L 355.352479 167.13729 
L 355.360763 169.79841 
L 355.374547 172.45953 
L 355.386358 175.12065 
L 355.389339 178.22529 
L 355.381056 180.88641 
L 355.367272 183.54753 
L 355.35546 186.20865 
L 355.352022 188.86977 
L 355.358823 191.53089 
L 355.372175 194.19201 
L 355.38484 196.85313 
L 355.389954 199.51425 
L 355.384745 202.17537 
L 355.372035 204.83649 
L 355.358714 207.49761 
L 355.352 210.15873 
L 355.35553 212.81985 
L 355.367378 215.48097 
L 355.381098 218.14209 
L 355.389193 220.80321 
L 355.385793 223.90785 
L 355.373316 226.56897 
L 355.358231 229.23009 
L 355.34725 231.89121 
L 355.343359 234.55233 
L 355.34282 237.21345 
L 355.334701 239.87457 
L 355.302421 242.53569 
L 355.225281 245.19681 
L 355.07737 247.85793 
L 354.821908 250.51905 
L 354.400643 253.18017 
L 353.719505 255.84129 
L 353.684465 255.927205 
L 352.391938 258.50241 
L 351.863153 259.174836 
L 350.077553 261.003987 
L 349.883217 261.16353 
L 348.291953 262.017863 
L 346.506353 262.77993 
L 344.685041 263.391858 
L 343.036261 263.82465 
L 342.899441 263.848019 
L 341.113841 264.085243 
L 339.328241 264.268287 
L 337.506929 264.410903 
L 335.721329 264.516863 
L 333.935729 264.596782 
L 332.150129 264.656604 
L 330.328817 264.701803 
L 328.543217 264.734363 
L 326.757617 264.758182 
L 324.972017 264.775473 
L 323.150705 264.78814 
L 321.365105 264.796987 
L 319.579505 264.803262 
L 317.793905 264.807681 
L 315.972593 264.810819 
L 314.186993 264.812944 
L 312.401393 264.814406 
L 310.615793 264.815404 
L 308.794481 264.816092 
L 307.008881 264.816543 
L 305.223281 264.816844 
L 303.437681 264.817044 
L 301.616369 264.817177 
L 299.830769 264.817261 
L 298.045169 264.817316 
L 296.259569 264.817352 
L 294.438257 264.817374 
L 292.652657 264.817388 
L 290.867057 264.817397 
L 289.081457 264.817402 
L 287.260145 264.817405 
L 285.474545 264.817407 
L 283.688945 264.817407 
L 281.903345 264.817406 
L 280.082033 264.817404 
L 278.296433 264.8174 
L 276.510833 264.817393 
L 274.725233 264.817381 
L 272.903921 264.817362 
L 271.118321 264.817333 
L 269.332721 264.817287 
L 267.547121 264.817217 
L 265.725809 264.817105 
L 263.940209 264.816938 
L 262.154609 264.816684 
L 260.369009 264.816303 
L 258.547697 264.81572 
L 256.762097 264.814871 
L 254.976497 264.813624 
L 253.190897 264.811806 
L 251.369585 264.809111 
L 249.583985 264.805305 
L 247.798385 264.799882 
L 246.012785 264.792213 
L 244.191473 264.781196 
L 242.405873 264.766108 
L 240.620273 264.745258 
L 238.834673 264.716662 
L 237.013361 264.676837 
L 235.227761 264.623952 
L 233.442161 264.553069 
L 231.656561 264.458777 
L 229.835249 264.331438 
L 228.049649 264.167443 
L 226.264049 263.954182 
L 225.423517 263.82465 
L 224.478449 263.600777 
L 222.657137 263.046725 
L 220.871537 262.3542 
L 219.085937 261.479649 
L 218.570529 261.16353 
L 217.300337 259.971295 
L 216.044882 258.50241 
L 215.479025 257.464463 
L 214.762603 255.84129 
L 214.026647 253.18017 
L 213.693425 251.231099 
L 213.593778 250.51905 
z
" clip-path="url(#pcae3f0fed7)" style="fill: none; stroke: #08509b; stroke-width: 1.5"/>
   </g>
   <g id="PathCollection_9"/>
   <g id="patch_3">
    <path d="M 34.240625 288.21825 
L 34.240625 22.10625 
" style="fill: none; stroke: #000000; stroke-width: 0.8; stroke-linejoin: miter; stroke-linecap: square"/>
   </g>
   <g id="patch_4">
    <path d="M 391.360625 288.21825 
L 391.360625 22.10625 
" style="fill: none; stroke: #000000; stroke-width: 0.8; stroke-linejoin: miter; stroke-linecap: square"/>
   </g>
   <g id="patch_5">
    <path d="M 34.240625 288.21825 
L 391.360625 288.21825 
" style="fill: none; stroke: #000000; stroke-width: 0.8; stroke-linejoin: miter; stroke-linecap: square"/>
   </g>
   <g id="patch_6">
    <path d="M 34.240625 22.10625 
L 391.360625 22.10625 
" style="fill: none; stroke: #000000; stroke-width: 0.8; stroke-linejoin: miter; stroke-linecap: square"/>
   </g>
   <g id="text_16">
    <!-- 9.0_cross_-43.0 -->
    <g transform="translate(166.181563 16.10625)scale(0.12 -0.12)">
     <defs>
      <path id="DejaVuSans-39" d="M 703 97 
L 703 672 
Q 941 559 1184 500 
Q 1428 441 1663 441 
Q 2288 441 2617 861 
Q 2947 1281 2994 2138 
Q 2813 1869 2534 1725 
Q 2256 1581 1919 1581 
Q 1219 1581 811 2004 
Q 403 2428 403 3163 
Q 403 3881 828 4315 
Q 1253 4750 1959 4750 
Q 2769 4750 3195 4129 
Q 3622 3509 3622 2328 
Q 3622 1225 3098 567 
Q 2575 -91 1691 -91 
Q 1453 -91 1209 -44 
Q 966 3 703 97 
z
M 1959 2075 
Q 2384 2075 2632 2365 
Q 2881 2656 2881 3163 
Q 2881 3666 2632 3958 
Q 2384 4250 1959 4250 
Q 1534 4250 1286 3958 
Q 1038 3666 1038 3163 
Q 1038 2656 1286 2365 
Q 1534 2075 1959 2075 
z
" transform="scale(0.015625)"/>
      <path id="DejaVuSans-2e" d="M 684 794 
L 1344 794 
L 1344 0 
L 684 0 
L 684 794 
z
" transform="scale(0.015625)"/>
      <path id="DejaVuSans-5f" d="M 3263 -1063 
L 3263 -1509 
L -63 -1509 
L -63 -1063 
L 3263 -1063 
z
" transform="scale(0.015625)"/>
      <path id="DejaVuSans-63" d="M 3122 3366 
L 3122 2828 
Q 2878 2963 2633 3030 
Q 2388 3097 2138 3097 
Q 1578 3097 1268 2742 
Q 959 2388 959 1747 
Q 959 1106 1268 751 
Q 1578 397 2138 397 
Q 2388 397 2633 464 
Q 2878 531 3122 666 
L 3122 134 
Q 2881 22 2623 -34 
Q 2366 -91 2075 -91 
Q 1284 -91 818 406 
Q 353 903 353 1747 
Q 353 2603 823 3093 
Q 1294 3584 2113 3584 
Q 2378 3584 2631 3529 
Q 2884 3475 3122 3366 
z
" transform="scale(0.015625)"/>
      <path id="DejaVuSans-72" d="M 2631 2963 
Q 2534 3019 2420 3045 
Q 2306 3072 2169 3072 
Q 1681 3072 1420 2755 
Q 1159 2438 1159 1844 
L 1159 0 
L 581 0 
L 581 3500 
L 1159 3500 
L 1159 2956 
Q 1341 3275 1631 3429 
Q 1922 3584 2338 3584 
Q 2397 3584 2469 3576 
Q 2541 3569 2628 3553 
L 2631 2963 
z
" transform="scale(0.015625)"/>
      <path id="DejaVuSans-73" d="M 2834 3397 
L 2834 2853 
Q 2591 2978 2328 3040 
Q 2066 3103 1784 3103 
Q 1356 3103 1142 2972 
Q 928 2841 928 2578 
Q 928 2378 1081 2264 
Q 1234 2150 1697 2047 
L 1894 2003 
Q 2506 1872 2764 1633 
Q 3022 1394 3022 966 
Q 3022 478 2636 193 
Q 2250 -91 1575 -91 
Q 1294 -91 989 -36 
Q 684 19 347 128 
L 347 722 
Q 666 556 975 473 
Q 1284 391 1588 391 
Q 1994 391 2212 530 
Q 2431 669 2431 922 
Q 2431 1156 2273 1281 
Q 2116 1406 1581 1522 
L 1381 1569 
Q 847 1681 609 1914 
Q 372 2147 372 2553 
Q 372 3047 722 3315 
Q 1072 3584 1716 3584 
Q 2034 3584 2315 3537 
Q 2597 3491 2834 3397 
z
" transform="scale(0.015625)"/>
      <path id="DejaVuSans-2d" d="M 313 2009 
L 1997 2009 
L 1997 1497 
L 313 1497 
L 313 2009 
z
" transform="scale(0.015625)"/>
     </defs>
     <use xlink:href="#DejaVuSans-39"/>
     <use xlink:href="#DejaVuSans-2e" x="63.623047"/>
     <use xlink:href="#DejaVuSans-30" x="95.410156"/>
     <use xlink:href="#DejaVuSans-5f" x="159.033203"/>
     <use xlink:href="#DejaVuSans-63" x="209.033203"/>
     <use xlink:href="#DejaVuSans-72" x="264.013672"/>
     <use xlink:href="#DejaVuSans-6f" x="302.876953"/>
     <use xlink:href="#DejaVuSans-73" x="364.058594"/>
     <use xlink:href="#DejaVuSans-73" x="416.158203"/>
     <use xlink:href="#DejaVuSans-5f" x="468.257812"/>
     <use xlink:href="#DejaVuSans-2d" x="518.257812"/>
     <use xlink:href="#DejaVuSans-34" x="554.341797"/>
     <use xlink:href="#DejaVuSans-33" x="617.964844"/>
     <use xlink:href="#DejaVuSans-2e" x="681.587891"/>
     <use xlink:href="#DejaVuSans-30" x="713.375"/>
    </g>
   </g>
  </g>
 </g>
 <defs>
  <clipPath id="pcae3f0fed7">
   <rect x="34.240625" y="22.10625" width="357.12" height="266.112"/>
  </clipPath>
 </defs>
</svg>
