<?xml version="1.0" encoding="utf-8" standalone="no"?>
<!DOCTYPE svg PUBLIC "-//W3C//DTD SVG 1.1//EN"
  "http://www.w3.org/Graphics/SVG/1.1/DTD/svg11.dtd">
<svg xmlns:xlink="http://www.w3.org/1999/xlink" width="408.104375pt" height="325.7745pt" viewBox="0 0 408.104375 325.7745" xmlns="http://www.w3.org/2000/svg" version="1.1">
 <metadata>
  <rdf:RDF xmlns:dc="http://purl.org/dc/elements/1.1/" xmlns:cc="http://creativecommons.org/ns#" xmlns:rdf="http://www.w3.org/1999/02/22-rdf-syntax-ns#">
   <cc:Work>
    <dc:type rdf:resource="http://purl.org/dc/dcmitype/StillImage"/>
    <dc:date>2024-07-12T12:15:19.056860</dc:date>
    <dc:format>image/svg+xml</dc:format>
    <dc:creator>
     <cc:Agent>
      <dc:title>Matplotlib v3.5.3, https://matplotlib.org/</dc:title>
     </cc:Agent>
    </dc:creator>
   </cc:Work>
  </rdf:RDF>
 </metadata>
 <defs>
  <style type="text/css">*{stroke-linejoin: round; stroke-linecap: butt}</style>
 </defs>
 <g id="figure_1">
  <g id="patch_1">
   <path d="M 0 325.7745 
L 408.104375 325.7745 
L 408.104375 0 
L 0 0 
z
" style="fill: #ffffff"/>
  </g>
  <g id="axes_1">
   <g id="patch_2">
    <path d="M 34.240625 288.21825 
L 391.360625 288.21825 
L 391.360625 22.10625 
L 34.240625 22.10625 
z
" style="fill: #ffffff"/>
   </g>
   <g id="matplotlib.axis_1">
    <g id="xtick_1">
     <g id="line2d_1">
      <defs>
       <path id="ma2b1fc7ab9" d="M 0 0 
L 0 3.5 
" style="stroke: #000000; stroke-width: 0.8"/>
      </defs>
      <g>
       <use xlink:href="#ma2b1fc7ab9" x="34.240625" y="288.21825" style="stroke: #000000; stroke-width: 0.8"/>
      </g>
     </g>
     <g id="text_1">
      <!-- 0 -->
      <g transform="translate(31.059375 302.816687)scale(0.1 -0.1)">
       <defs>
        <path id="DejaVuSans-30" d="M 2034 4250 
Q 1547 4250 1301 3770 
Q 1056 3291 1056 2328 
Q 1056 1369 1301 889 
Q 1547 409 2034 409 
Q 2525 409 2770 889 
Q 3016 1369 3016 2328 
Q 3016 3291 2770 3770 
Q 2525 4250 2034 4250 
z
M 2034 4750 
Q 2819 4750 3233 4129 
Q 3647 3509 3647 2328 
Q 3647 1150 3233 529 
Q 2819 -91 2034 -91 
Q 1250 -91 836 529 
Q 422 1150 422 2328 
Q 422 3509 836 4129 
Q 1250 4750 2034 4750 
z
" transform="scale(0.015625)"/>
       </defs>
       <use xlink:href="#DejaVuSans-30"/>
      </g>
     </g>
    </g>
    <g id="xtick_2">
     <g id="line2d_2">
      <g>
       <use xlink:href="#ma2b1fc7ab9" x="105.664625" y="288.21825" style="stroke: #000000; stroke-width: 0.8"/>
      </g>
     </g>
     <g id="text_2">
      <!-- 20 -->
      <g transform="translate(99.302125 302.816687)scale(0.1 -0.1)">
       <defs>
        <path id="DejaVuSans-32" d="M 1228 531 
L 3431 531 
L 3431 0 
L 469 0 
L 469 531 
Q 828 903 1448 1529 
Q 2069 2156 2228 2338 
Q 2531 2678 2651 2914 
Q 2772 3150 2772 3378 
Q 2772 3750 2511 3984 
Q 2250 4219 1831 4219 
Q 1534 4219 1204 4116 
Q 875 4013 500 3803 
L 500 4441 
Q 881 4594 1212 4672 
Q 1544 4750 1819 4750 
Q 2544 4750 2975 4387 
Q 3406 4025 3406 3419 
Q 3406 3131 3298 2873 
Q 3191 2616 2906 2266 
Q 2828 2175 2409 1742 
Q 1991 1309 1228 531 
z
" transform="scale(0.015625)"/>
       </defs>
       <use xlink:href="#DejaVuSans-32"/>
       <use xlink:href="#DejaVuSans-30" x="63.623047"/>
      </g>
     </g>
    </g>
    <g id="xtick_3">
     <g id="line2d_3">
      <g>
       <use xlink:href="#ma2b1fc7ab9" x="177.088625" y="288.21825" style="stroke: #000000; stroke-width: 0.8"/>
      </g>
     </g>
     <g id="text_3">
      <!-- 40 -->
      <g transform="translate(170.726125 302.816687)scale(0.1 -0.1)">
       <defs>
        <path id="DejaVuSans-34" d="M 2419 4116 
L 825 1625 
L 2419 1625 
L 2419 4116 
z
M 2253 4666 
L 3047 4666 
L 3047 1625 
L 3713 1625 
L 3713 1100 
L 3047 1100 
L 3047 0 
L 2419 0 
L 2419 1100 
L 313 1100 
L 313 1709 
L 2253 4666 
z
" transform="scale(0.015625)"/>
       </defs>
       <use xlink:href="#DejaVuSans-34"/>
       <use xlink:href="#DejaVuSans-30" x="63.623047"/>
      </g>
     </g>
    </g>
    <g id="xtick_4">
     <g id="line2d_4">
      <g>
       <use xlink:href="#ma2b1fc7ab9" x="248.512625" y="288.21825" style="stroke: #000000; stroke-width: 0.8"/>
      </g>
     </g>
     <g id="text_4">
      <!-- 60 -->
      <g transform="translate(242.150125 302.816687)scale(0.1 -0.1)">
       <defs>
        <path id="DejaVuSans-36" d="M 2113 2584 
Q 1688 2584 1439 2293 
Q 1191 2003 1191 1497 
Q 1191 994 1439 701 
Q 1688 409 2113 409 
Q 2538 409 2786 701 
Q 3034 994 3034 1497 
Q 3034 2003 2786 2293 
Q 2538 2584 2113 2584 
z
M 3366 4563 
L 3366 3988 
Q 3128 4100 2886 4159 
Q 2644 4219 2406 4219 
Q 1781 4219 1451 3797 
Q 1122 3375 1075 2522 
Q 1259 2794 1537 2939 
Q 1816 3084 2150 3084 
Q 2853 3084 3261 2657 
Q 3669 2231 3669 1497 
Q 3669 778 3244 343 
Q 2819 -91 2113 -91 
Q 1303 -91 875 529 
Q 447 1150 447 2328 
Q 447 3434 972 4092 
Q 1497 4750 2381 4750 
Q 2619 4750 2861 4703 
Q 3103 4656 3366 4563 
z
" transform="scale(0.015625)"/>
       </defs>
       <use xlink:href="#DejaVuSans-36"/>
       <use xlink:href="#DejaVuSans-30" x="63.623047"/>
      </g>
     </g>
    </g>
    <g id="xtick_5">
     <g id="line2d_5">
      <g>
       <use xlink:href="#ma2b1fc7ab9" x="319.936625" y="288.21825" style="stroke: #000000; stroke-width: 0.8"/>
      </g>
     </g>
     <g id="text_5">
      <!-- 80 -->
      <g transform="translate(313.574125 302.816687)scale(0.1 -0.1)">
       <defs>
        <path id="DejaVuSans-38" d="M 2034 2216 
Q 1584 2216 1326 1975 
Q 1069 1734 1069 1313 
Q 1069 891 1326 650 
Q 1584 409 2034 409 
Q 2484 409 2743 651 
Q 3003 894 3003 1313 
Q 3003 1734 2745 1975 
Q 2488 2216 2034 2216 
z
M 1403 2484 
Q 997 2584 770 2862 
Q 544 3141 544 3541 
Q 544 4100 942 4425 
Q 1341 4750 2034 4750 
Q 2731 4750 3128 4425 
Q 3525 4100 3525 3541 
Q 3525 3141 3298 2862 
Q 3072 2584 2669 2484 
Q 3125 2378 3379 2068 
Q 3634 1759 3634 1313 
Q 3634 634 3220 271 
Q 2806 -91 2034 -91 
Q 1263 -91 848 271 
Q 434 634 434 1313 
Q 434 1759 690 2068 
Q 947 2378 1403 2484 
z
M 1172 3481 
Q 1172 3119 1398 2916 
Q 1625 2713 2034 2713 
Q 2441 2713 2670 2916 
Q 2900 3119 2900 3481 
Q 2900 3844 2670 4047 
Q 2441 4250 2034 4250 
Q 1625 4250 1398 4047 
Q 1172 3844 1172 3481 
z
" transform="scale(0.015625)"/>
       </defs>
       <use xlink:href="#DejaVuSans-38"/>
       <use xlink:href="#DejaVuSans-30" x="63.623047"/>
      </g>
     </g>
    </g>
    <g id="xtick_6">
     <g id="line2d_6">
      <g>
       <use xlink:href="#ma2b1fc7ab9" x="391.360625" y="288.21825" style="stroke: #000000; stroke-width: 0.8"/>
      </g>
     </g>
     <g id="text_6">
      <!-- 100 -->
      <g transform="translate(381.816875 302.816687)scale(0.1 -0.1)">
       <defs>
        <path id="DejaVuSans-31" d="M 794 531 
L 1825 531 
L 1825 4091 
L 703 3866 
L 703 4441 
L 1819 4666 
L 2450 4666 
L 2450 531 
L 3481 531 
L 3481 0 
L 794 0 
L 794 531 
z
" transform="scale(0.015625)"/>
       </defs>
       <use xlink:href="#DejaVuSans-31"/>
       <use xlink:href="#DejaVuSans-30" x="63.623047"/>
       <use xlink:href="#DejaVuSans-30" x="127.246094"/>
      </g>
     </g>
    </g>
    <g id="text_7">
     <!-- axialRotation -->
     <g transform="translate(180.024844 316.494812)scale(0.1 -0.1)">
      <defs>
       <path id="DejaVuSans-61" d="M 2194 1759 
Q 1497 1759 1228 1600 
Q 959 1441 959 1056 
Q 959 750 1161 570 
Q 1363 391 1709 391 
Q 2188 391 2477 730 
Q 2766 1069 2766 1631 
L 2766 1759 
L 2194 1759 
z
M 3341 1997 
L 3341 0 
L 2766 0 
L 2766 531 
Q 2569 213 2275 61 
Q 1981 -91 1556 -91 
Q 1019 -91 701 211 
Q 384 513 384 1019 
Q 384 1609 779 1909 
Q 1175 2209 1959 2209 
L 2766 2209 
L 2766 2266 
Q 2766 2663 2505 2880 
Q 2244 3097 1772 3097 
Q 1472 3097 1187 3025 
Q 903 2953 641 2809 
L 641 3341 
Q 956 3463 1253 3523 
Q 1550 3584 1831 3584 
Q 2591 3584 2966 3190 
Q 3341 2797 3341 1997 
z
" transform="scale(0.015625)"/>
       <path id="DejaVuSans-78" d="M 3513 3500 
L 2247 1797 
L 3578 0 
L 2900 0 
L 1881 1375 
L 863 0 
L 184 0 
L 1544 1831 
L 300 3500 
L 978 3500 
L 1906 2253 
L 2834 3500 
L 3513 3500 
z
" transform="scale(0.015625)"/>
       <path id="DejaVuSans-69" d="M 603 3500 
L 1178 3500 
L 1178 0 
L 603 0 
L 603 3500 
z
M 603 4863 
L 1178 4863 
L 1178 4134 
L 603 4134 
L 603 4863 
z
" transform="scale(0.015625)"/>
       <path id="DejaVuSans-6c" d="M 603 4863 
L 1178 4863 
L 1178 0 
L 603 0 
L 603 4863 
z
" transform="scale(0.015625)"/>
       <path id="DejaVuSans-52" d="M 2841 2188 
Q 3044 2119 3236 1894 
Q 3428 1669 3622 1275 
L 4263 0 
L 3584 0 
L 2988 1197 
Q 2756 1666 2539 1819 
Q 2322 1972 1947 1972 
L 1259 1972 
L 1259 0 
L 628 0 
L 628 4666 
L 2053 4666 
Q 2853 4666 3247 4331 
Q 3641 3997 3641 3322 
Q 3641 2881 3436 2590 
Q 3231 2300 2841 2188 
z
M 1259 4147 
L 1259 2491 
L 2053 2491 
Q 2509 2491 2742 2702 
Q 2975 2913 2975 3322 
Q 2975 3731 2742 3939 
Q 2509 4147 2053 4147 
L 1259 4147 
z
" transform="scale(0.015625)"/>
       <path id="DejaVuSans-6f" d="M 1959 3097 
Q 1497 3097 1228 2736 
Q 959 2375 959 1747 
Q 959 1119 1226 758 
Q 1494 397 1959 397 
Q 2419 397 2687 759 
Q 2956 1122 2956 1747 
Q 2956 2369 2687 2733 
Q 2419 3097 1959 3097 
z
M 1959 3584 
Q 2709 3584 3137 3096 
Q 3566 2609 3566 1747 
Q 3566 888 3137 398 
Q 2709 -91 1959 -91 
Q 1206 -91 779 398 
Q 353 888 353 1747 
Q 353 2609 779 3096 
Q 1206 3584 1959 3584 
z
" transform="scale(0.015625)"/>
       <path id="DejaVuSans-74" d="M 1172 4494 
L 1172 3500 
L 2356 3500 
L 2356 3053 
L 1172 3053 
L 1172 1153 
Q 1172 725 1289 603 
Q 1406 481 1766 481 
L 2356 481 
L 2356 0 
L 1766 0 
Q 1100 0 847 248 
Q 594 497 594 1153 
L 594 3053 
L 172 3053 
L 172 3500 
L 594 3500 
L 594 4494 
L 1172 4494 
z
" transform="scale(0.015625)"/>
       <path id="DejaVuSans-6e" d="M 3513 2113 
L 3513 0 
L 2938 0 
L 2938 2094 
Q 2938 2591 2744 2837 
Q 2550 3084 2163 3084 
Q 1697 3084 1428 2787 
Q 1159 2491 1159 1978 
L 1159 0 
L 581 0 
L 581 3500 
L 1159 3500 
L 1159 2956 
Q 1366 3272 1645 3428 
Q 1925 3584 2291 3584 
Q 2894 3584 3203 3211 
Q 3513 2838 3513 2113 
z
" transform="scale(0.015625)"/>
      </defs>
      <use xlink:href="#DejaVuSans-61"/>
      <use xlink:href="#DejaVuSans-78" x="61.279297"/>
      <use xlink:href="#DejaVuSans-69" x="120.458984"/>
      <use xlink:href="#DejaVuSans-61" x="148.242188"/>
      <use xlink:href="#DejaVuSans-6c" x="209.521484"/>
      <use xlink:href="#DejaVuSans-52" x="237.304688"/>
      <use xlink:href="#DejaVuSans-6f" x="302.287109"/>
      <use xlink:href="#DejaVuSans-74" x="363.46875"/>
      <use xlink:href="#DejaVuSans-61" x="402.677734"/>
      <use xlink:href="#DejaVuSans-74" x="463.957031"/>
      <use xlink:href="#DejaVuSans-69" x="503.166016"/>
      <use xlink:href="#DejaVuSans-6f" x="530.949219"/>
      <use xlink:href="#DejaVuSans-6e" x="592.130859"/>
     </g>
    </g>
   </g>
   <g id="matplotlib.axis_2">
    <g id="ytick_1">
     <g id="line2d_7">
      <defs>
       <path id="md8d373a4a9" d="M 0 0 
L -3.5 0 
" style="stroke: #000000; stroke-width: 0.8"/>
      </defs>
      <g>
       <use xlink:href="#md8d373a4a9" x="34.240625" y="288.21825" style="stroke: #000000; stroke-width: 0.8"/>
      </g>
     </g>
     <g id="text_8">
      <!-- 0 -->
      <g transform="translate(20.878125 292.017469)scale(0.1 -0.1)">
       <use xlink:href="#DejaVuSans-30"/>
      </g>
     </g>
    </g>
    <g id="ytick_2">
     <g id="line2d_8">
      <g>
       <use xlink:href="#md8d373a4a9" x="34.240625" y="243.86625" style="stroke: #000000; stroke-width: 0.8"/>
      </g>
     </g>
     <g id="text_9">
      <!-- 1 -->
      <g transform="translate(20.878125 247.665469)scale(0.1 -0.1)">
       <use xlink:href="#DejaVuSans-31"/>
      </g>
     </g>
    </g>
    <g id="ytick_3">
     <g id="line2d_9">
      <g>
       <use xlink:href="#md8d373a4a9" x="34.240625" y="199.51425" style="stroke: #000000; stroke-width: 0.8"/>
      </g>
     </g>
     <g id="text_10">
      <!-- 2 -->
      <g transform="translate(20.878125 203.313469)scale(0.1 -0.1)">
       <use xlink:href="#DejaVuSans-32"/>
      </g>
     </g>
    </g>
    <g id="ytick_4">
     <g id="line2d_10">
      <g>
       <use xlink:href="#md8d373a4a9" x="34.240625" y="155.16225" style="stroke: #000000; stroke-width: 0.8"/>
      </g>
     </g>
     <g id="text_11">
      <!-- 3 -->
      <g transform="translate(20.878125 158.961469)scale(0.1 -0.1)">
       <defs>
        <path id="DejaVuSans-33" d="M 2597 2516 
Q 3050 2419 3304 2112 
Q 3559 1806 3559 1356 
Q 3559 666 3084 287 
Q 2609 -91 1734 -91 
Q 1441 -91 1130 -33 
Q 819 25 488 141 
L 488 750 
Q 750 597 1062 519 
Q 1375 441 1716 441 
Q 2309 441 2620 675 
Q 2931 909 2931 1356 
Q 2931 1769 2642 2001 
Q 2353 2234 1838 2234 
L 1294 2234 
L 1294 2753 
L 1863 2753 
Q 2328 2753 2575 2939 
Q 2822 3125 2822 3475 
Q 2822 3834 2567 4026 
Q 2313 4219 1838 4219 
Q 1578 4219 1281 4162 
Q 984 4106 628 3988 
L 628 4550 
Q 988 4650 1302 4700 
Q 1616 4750 1894 4750 
Q 2613 4750 3031 4423 
Q 3450 4097 3450 3541 
Q 3450 3153 3228 2886 
Q 3006 2619 2597 2516 
z
" transform="scale(0.015625)"/>
       </defs>
       <use xlink:href="#DejaVuSans-33"/>
      </g>
     </g>
    </g>
    <g id="ytick_5">
     <g id="line2d_11">
      <g>
       <use xlink:href="#md8d373a4a9" x="34.240625" y="110.81025" style="stroke: #000000; stroke-width: 0.8"/>
      </g>
     </g>
     <g id="text_12">
      <!-- 4 -->
      <g transform="translate(20.878125 114.609469)scale(0.1 -0.1)">
       <use xlink:href="#DejaVuSans-34"/>
      </g>
     </g>
    </g>
    <g id="ytick_6">
     <g id="line2d_12">
      <g>
       <use xlink:href="#md8d373a4a9" x="34.240625" y="66.45825" style="stroke: #000000; stroke-width: 0.8"/>
      </g>
     </g>
     <g id="text_13">
      <!-- 5 -->
      <g transform="translate(20.878125 70.257469)scale(0.1 -0.1)">
       <defs>
        <path id="DejaVuSans-35" d="M 691 4666 
L 3169 4666 
L 3169 4134 
L 1269 4134 
L 1269 2991 
Q 1406 3038 1543 3061 
Q 1681 3084 1819 3084 
Q 2600 3084 3056 2656 
Q 3513 2228 3513 1497 
Q 3513 744 3044 326 
Q 2575 -91 1722 -91 
Q 1428 -91 1123 -41 
Q 819 9 494 109 
L 494 744 
Q 775 591 1075 516 
Q 1375 441 1709 441 
Q 2250 441 2565 725 
Q 2881 1009 2881 1497 
Q 2881 1984 2565 2268 
Q 2250 2553 1709 2553 
Q 1456 2553 1204 2497 
Q 953 2441 691 2322 
L 691 4666 
z
" transform="scale(0.015625)"/>
       </defs>
       <use xlink:href="#DejaVuSans-35"/>
      </g>
     </g>
    </g>
    <g id="ytick_7">
     <g id="line2d_13">
      <g>
       <use xlink:href="#md8d373a4a9" x="34.240625" y="22.10625" style="stroke: #000000; stroke-width: 0.8"/>
      </g>
     </g>
     <g id="text_14">
      <!-- 6 -->
      <g transform="translate(20.878125 25.905469)scale(0.1 -0.1)">
       <use xlink:href="#DejaVuSans-36"/>
      </g>
     </g>
    </g>
    <g id="text_15">
     <!-- zShift -->
     <g transform="translate(14.798438 169.151312)rotate(-90)scale(0.1 -0.1)">
      <defs>
       <path id="DejaVuSans-7a" d="M 353 3500 
L 3084 3500 
L 3084 2975 
L 922 459 
L 3084 459 
L 3084 0 
L 275 0 
L 275 525 
L 2438 3041 
L 353 3041 
L 353 3500 
z
" transform="scale(0.015625)"/>
       <path id="DejaVuSans-53" d="M 3425 4513 
L 3425 3897 
Q 3066 4069 2747 4153 
Q 2428 4238 2131 4238 
Q 1616 4238 1336 4038 
Q 1056 3838 1056 3469 
Q 1056 3159 1242 3001 
Q 1428 2844 1947 2747 
L 2328 2669 
Q 3034 2534 3370 2195 
Q 3706 1856 3706 1288 
Q 3706 609 3251 259 
Q 2797 -91 1919 -91 
Q 1588 -91 1214 -16 
Q 841 59 441 206 
L 441 856 
Q 825 641 1194 531 
Q 1563 422 1919 422 
Q 2459 422 2753 634 
Q 3047 847 3047 1241 
Q 3047 1584 2836 1778 
Q 2625 1972 2144 2069 
L 1759 2144 
Q 1053 2284 737 2584 
Q 422 2884 422 3419 
Q 422 4038 858 4394 
Q 1294 4750 2059 4750 
Q 2388 4750 2728 4690 
Q 3069 4631 3425 4513 
z
" transform="scale(0.015625)"/>
       <path id="DejaVuSans-68" d="M 3513 2113 
L 3513 0 
L 2938 0 
L 2938 2094 
Q 2938 2591 2744 2837 
Q 2550 3084 2163 3084 
Q 1697 3084 1428 2787 
Q 1159 2491 1159 1978 
L 1159 0 
L 581 0 
L 581 4863 
L 1159 4863 
L 1159 2956 
Q 1366 3272 1645 3428 
Q 1925 3584 2291 3584 
Q 2894 3584 3203 3211 
Q 3513 2838 3513 2113 
z
" transform="scale(0.015625)"/>
       <path id="DejaVuSans-66" d="M 2375 4863 
L 2375 4384 
L 1825 4384 
Q 1516 4384 1395 4259 
Q 1275 4134 1275 3809 
L 1275 3500 
L 2222 3500 
L 2222 3053 
L 1275 3053 
L 1275 0 
L 697 0 
L 697 3053 
L 147 3053 
L 147 3500 
L 697 3500 
L 697 3744 
Q 697 4328 969 4595 
Q 1241 4863 1831 4863 
L 2375 4863 
z
" transform="scale(0.015625)"/>
      </defs>
      <use xlink:href="#DejaVuSans-7a"/>
      <use xlink:href="#DejaVuSans-53" x="52.490234"/>
      <use xlink:href="#DejaVuSans-68" x="115.966797"/>
      <use xlink:href="#DejaVuSans-69" x="179.345703"/>
      <use xlink:href="#DejaVuSans-66" x="207.128906"/>
      <use xlink:href="#DejaVuSans-74" x="240.583984"/>
     </g>
    </g>
   </g>
   <g id="PathCollection_1"/>
   <g id="PathCollection_2">
    <path d="M 34.240625 134.370775 
L 36.026225 134.325066 
L 37.847537 134.505975 
L 39.633137 134.919617 
L 40.410159 135.20385 
L 41.418737 135.55384 
L 43.204337 136.432289 
L 45.025649 137.668113 
L 45.263389 137.86497 
L 46.811249 139.209006 
L 48.023405 140.52609 
L 48.596849 141.214411 
L 49.997483 143.18721 
L 50.382449 143.818327 
L 51.500224 145.84833 
L 52.203761 147.420855 
L 52.666938 148.50945 
L 53.583694 151.17057 
L 53.989361 152.674238 
L 54.305921 153.83169 
L 54.882876 156.49281 
L 55.318122 159.15393 
L 55.644176 161.81505 
L 55.774961 163.232743 
L 55.900497 164.47617 
L 56.100873 167.13729 
L 56.245477 169.79841 
L 56.347774 172.45953 
L 56.418347 175.12065 
L 56.471449 178.22529 
L 56.498855 180.88641 
L 56.514033 183.54753 
L 56.519541 186.20865 
L 56.516368 188.86977 
L 56.503952 191.53089 
L 56.480182 194.19201 
L 56.441371 196.85313 
L 56.382189 199.51425 
L 56.295521 202.17537 
L 56.172234 204.83649 
L 56.000828 207.49761 
L 55.774961 210.06957 
L 55.767893 210.15873 
L 55.491162 212.81985 
L 55.124361 215.48097 
L 54.642801 218.14209 
L 54.014771 220.80321 
L 53.989361 220.891775 
L 53.137068 223.90785 
L 52.203761 226.425291 
L 52.149899 226.56897 
L 50.966753 229.23009 
L 50.382449 230.321447 
L 49.481368 231.89121 
L 48.596849 233.227461 
L 47.612162 234.55233 
L 46.811249 235.529953 
L 45.185074 237.21345 
L 45.025649 237.370074 
L 43.204337 238.910929 
L 41.740793 239.87457 
L 41.418737 240.088402 
L 39.633137 241.043874 
L 37.847537 241.73437 
L 36.026225 242.200598 
L 34.240625 242.444942 
" clip-path="url(#pcc27d500df)" style="fill: none; stroke: #deebf7; stroke-width: 1.5"/>
    <path d="M 174.265865 288.21825 
L 174.231665 287.971057 
L 173.868249 285.55713 
L 173.612217 282.89601 
L 173.48445 280.23489 
L 173.475002 277.57377 
L 173.581046 274.91265 
L 173.80635 272.25153 
L 174.161221 269.59041 
L 174.231665 269.200762 
L 174.604263 266.92929 
L 175.295779 263.82465 
L 176.017265 261.359635 
L 176.071484 261.16353 
L 176.939809 258.50241 
L 177.802865 256.340605 
L 177.996609 255.84129 
L 179.164043 253.18017 
L 179.588465 252.311235 
L 180.448769 250.51905 
L 181.409777 248.674562 
L 181.827213 247.85793 
L 183.195377 245.268708 
L 183.232284 245.19681 
L 184.547063 242.53569 
L 184.980977 241.618208 
L 185.753129 239.87457 
L 186.766577 237.381316 
L 186.829085 237.21345 
L 187.664808 234.55233 
L 188.370181 231.89121 
L 188.587889 230.859539 
L 188.889429 229.23009 
L 189.264318 226.56897 
L 189.541505 223.90785 
L 189.765959 220.80321 
L 189.893985 218.14209 
L 189.979068 215.48097 
L 190.0338 212.81985 
L 190.067863 210.15873 
L 190.088373 207.49761 
L 190.100362 204.83649 
L 190.107234 202.17537 
L 190.111167 199.51425 
L 190.113452 196.85313 
L 190.114781 194.19201 
L 190.115491 191.53089 
L 190.115764 188.86977 
L 190.115746 186.20865 
L 190.115594 183.54753 
L 190.115465 180.88641 
L 190.115463 178.22529 
L 190.11564 175.12065 
L 190.11586 172.45953 
L 190.11602 169.79841 
L 190.116035 167.13729 
L 190.115898 164.47617 
L 190.115683 161.81505 
L 190.115507 159.15393 
L 190.115465 156.49281 
L 190.11558 153.83169 
L 190.115789 151.17057 
L 190.11598 148.50945 
L 190.116049 145.84833 
L 190.115958 143.18721 
L 190.115757 140.52609 
L 190.115554 137.86497 
L 190.115461 135.20385 
L 190.115551 132.09921 
L 190.115752 129.43809 
L 190.115955 126.77697 
L 190.116049 124.11585 
L 190.115983 121.45473 
L 190.115794 118.79361 
L 190.115583 116.13249 
L 190.115465 113.47137 
L 190.115505 110.81025 
L 190.115679 108.14913 
L 190.115895 105.48801 
L 190.116034 102.82689 
L 190.116022 100.16577 
L 190.115865 97.50465 
L 190.115649 94.84353 
L 190.11549 92.18241 
L 190.115477 89.52129 
L 190.115653 86.41665 
L 190.115882 83.75553 
L 190.116066 81.09441 
L 190.116133 78.43329 
L 190.116101 75.77217 
L 190.116094 73.11105 
L 190.11632 70.44993 
L 190.117032 67.78881 
L 190.118524 65.12769 
L 190.12118 62.46657 
L 190.125601 59.80545 
L 190.132786 57.14433 
L 190.144348 54.48321 
L 190.162725 51.82209 
L 190.191376 49.16097 
L 190.234969 46.49985 
L 190.312907 43.39521 
L 190.373489 41.760692 
L 190.406453 40.73409 
L 190.525841 38.07297 
L 190.690425 35.41185 
L 190.913506 32.75073 
L 191.21166 30.08961 
L 191.605721 27.42849 
L 192.122212 24.76737 
L 192.159089 24.611771 
L 192.713194 22.10625 
" clip-path="url(#pcc27d500df)" style="fill: none; stroke: #deebf7; stroke-width: 1.5"/>
   </g>
   <g id="PathCollection_3">
    <path d="M 34.240625 144.965965 
L 36.026225 144.988309 
L 37.847537 145.375 
L 38.970944 145.84833 
L 39.633137 146.147593 
L 41.418737 147.379341 
L 42.597663 148.50945 
L 43.204337 149.179361 
L 44.620583 151.17057 
L 45.025649 151.863217 
L 46.003293 153.83169 
L 46.811249 155.911575 
L 47.015478 156.49281 
L 47.759087 159.15393 
L 48.315434 161.81505 
L 48.596849 163.609597 
L 48.729424 164.47617 
L 49.035411 167.13729 
L 49.256737 169.79841 
L 49.413854 172.45953 
L 49.522795 175.12065 
L 49.605452 178.22529 
L 49.648793 180.88641 
L 49.673684 183.54753 
L 49.684256 186.20865 
L 49.682395 188.86977 
L 49.66778 191.53089 
L 49.6379 194.19201 
L 49.588027 196.85313 
L 49.511149 199.51425 
L 49.397807 202.17537 
L 49.235819 204.83649 
L 49.00985 207.49761 
L 48.700807 210.15873 
L 48.596849 210.838608 
L 48.290351 212.81985 
L 47.748575 215.48097 
L 47.037994 218.14209 
L 46.811249 218.823674 
L 46.10381 220.80321 
L 45.025649 223.168299 
L 44.640061 223.90785 
L 43.204337 226.171965 
L 42.902375 226.56897 
L 41.418737 228.265958 
L 40.334721 229.23009 
L 39.633137 229.798028 
L 37.847537 230.866804 
L 36.026225 231.563648 
L 34.240625 231.888534 
" clip-path="url(#pcc27d500df)" style="fill: none; stroke: #c6dbef; stroke-width: 1.5"/>
    <path d="M 181.267654 288.21825 
L 180.690789 285.55713 
L 180.31246 282.89601 
L 180.104848 280.23489 
L 180.051043 277.57377 
L 180.143098 274.91265 
L 180.380745 272.25153 
L 180.770592 269.59041 
L 181.325622 266.92929 
L 181.409777 266.617092 
L 182.14937 263.82465 
L 183.053685 261.16353 
L 183.195377 260.804854 
L 184.101299 258.50241 
L 184.980977 256.571678 
L 185.314608 255.84129 
L 186.645924 253.18017 
L 186.766577 252.950056 
L 188.030691 250.51905 
L 188.587889 249.467075 
L 189.422104 247.85793 
L 190.373489 245.968574 
L 190.748028 245.19681 
L 191.940705 242.53569 
L 192.159089 241.990186 
L 192.952922 239.87457 
L 193.811977 237.21345 
L 193.944689 236.716297 
L 194.477494 234.55233 
L 194.999459 231.89121 
L 195.403179 229.23009 
L 195.706154 226.56897 
L 195.766001 225.846152 
L 195.913108 223.90785 
L 196.074502 220.80321 
L 196.16594 218.14209 
L 196.226595 215.48097 
L 196.265619 212.81985 
L 196.289907 210.15873 
L 196.304504 207.49761 
L 196.313005 204.83649 
L 196.317878 202.17537 
L 196.320715 199.51425 
L 196.322443 196.85313 
L 196.323522 194.19201 
L 196.324137 191.53089 
L 196.324369 188.86977 
L 196.324307 186.20865 
L 196.324095 183.54753 
L 196.323902 180.88641 
L 196.323859 178.22529 
L 196.32404 175.12065 
L 196.324302 172.45953 
L 196.324519 169.79841 
L 196.324572 167.13729 
L 196.324434 164.47617 
L 196.32418 161.81505 
L 196.323947 159.15393 
L 196.323862 156.49281 
L 196.323971 153.83169 
L 196.324214 151.17057 
L 196.324461 148.50945 
L 196.324577 145.84833 
L 196.324499 143.18721 
L 196.32427 140.52609 
L 196.324013 137.86497 
L 196.323869 135.20385 
L 196.32394 132.09921 
L 196.32417 129.43809 
L 196.324426 126.77697 
L 196.32457 124.11585 
L 196.324525 121.45473 
L 196.324314 118.79361 
L 196.324052 116.13249 
L 196.323881 113.47137 
L 196.323893 110.81025 
L 196.324083 108.14913 
L 196.324347 105.48801 
L 196.324541 102.82689 
L 196.324562 100.16577 
L 196.324397 97.50465 
L 196.324136 94.84353 
L 196.323922 92.18241 
L 196.323871 89.52129 
L 196.324052 86.41665 
L 196.324326 83.75553 
L 196.324568 81.09441 
L 196.324677 78.43329 
L 196.324652 75.77217 
L 196.324624 73.11105 
L 196.32483 70.44993 
L 196.32557 67.78881 
L 196.327194 65.12769 
L 196.330142 62.46657 
L 196.335086 59.80545 
L 196.34314 57.14433 
L 196.35612 54.48321 
L 196.376801 51.82209 
L 196.409157 49.16097 
L 196.458591 46.49985 
L 196.547371 43.39521 
L 196.660635 40.73409 
L 196.820484 38.07297 
L 197.041516 35.41185 
L 197.341851 32.75073 
L 197.551601 31.340827 
L 197.730115 30.08961 
L 198.223445 27.42849 
L 198.86972 24.76737 
L 199.337201 23.246012 
L 199.690452 22.10625 
" clip-path="url(#pcc27d500df)" style="fill: none; stroke: #c6dbef; stroke-width: 1.5"/>
    <path d="M 387.427818 22.10625 
L 387.753713 23.405643 
L 388.094401 24.76737 
L 388.610819 27.42849 
L 388.996578 30.08961 
L 389.281659 32.75073 
L 389.489497 35.41185 
L 389.575025 36.928442 
L 389.643944 38.07297 
L 389.757715 40.73409 
L 389.835973 43.39521 
L 389.895286 46.49985 
L 389.927202 49.16097 
L 389.94752 51.82209 
L 389.960237 54.48321 
L 389.968115 57.14433 
L 389.972938 59.80545 
L 389.975794 62.46657 
L 389.977342 65.12769 
L 389.978021 67.78881 
L 389.978186 70.44993 
L 389.978145 73.11105 
L 389.978133 75.77217 
L 389.978266 78.43329 
L 389.97853 81.09441 
L 389.978809 83.75553 
L 389.978967 86.41665 
L 389.978899 89.52129 
L 389.978672 92.18241 
L 389.978427 94.84353 
L 389.978325 97.50465 
L 389.978473 100.16577 
L 389.978899 102.82689 
L 389.979584 105.48801 
L 389.980564 108.14913 
L 389.982065 110.81025 
L 389.984654 113.47137 
L 389.989365 116.13249 
L 389.997841 118.79361 
L 390.012512 121.45473 
L 390.036877 124.11585 
L 390.07589 126.77697 
L 390.136442 129.43809 
L 390.227843 132.09921 
L 390.389747 135.20385 
L 390.593203 137.86497 
L 390.874943 140.52609 
L 391.25391 143.18721 
L 391.360625 143.764102 
" clip-path="url(#pcc27d500df)" style="fill: none; stroke: #c6dbef; stroke-width: 1.5"/>
    <path d="M 391.360625 210.921628 
L 391.058445 212.81985 
L 390.734534 215.48097 
L 390.494257 218.14209 
L 390.321265 220.80321 
L 390.184241 223.90785 
L 390.107444 226.56897 
L 390.057083 229.23009 
L 390.025089 231.89121 
L 390.005404 234.55233 
L 389.993589 237.21345 
L 389.986455 239.87457 
L 389.981752 242.53569 
L 389.977888 245.19681 
L 389.97365 247.85793 
L 389.967892 250.51905 
L 389.959195 253.18017 
L 389.945526 255.84129 
L 389.923917 258.50241 
L 389.890188 261.16353 
L 389.838692 263.82465 
L 389.746217 266.92929 
L 389.628224 269.59041 
L 389.575025 270.448476 
L 389.470774 272.25153 
L 389.259032 274.91265 
L 388.971457 277.57377 
L 388.586574 280.23489 
L 388.077504 282.89601 
L 387.753713 284.222692 
L 387.432093 285.55713 
L 386.619103 288.21825 
" clip-path="url(#pcc27d500df)" style="fill: none; stroke: #c6dbef; stroke-width: 1.5"/>
   </g>
   <g id="PathCollection_4">
    <path d="M 34.240625 156.062979 
L 36.026225 156.259778 
L 36.493936 156.49281 
L 37.847537 157.302622 
L 39.522796 159.15393 
L 39.633137 159.307921 
L 40.889251 161.81505 
L 41.418737 163.218683 
L 41.795257 164.47617 
L 42.391046 167.13729 
L 42.821413 169.79841 
L 43.127003 172.45953 
L 43.204337 173.421284 
L 43.324543 175.12065 
L 43.468874 178.22529 
L 43.545458 180.88641 
L 43.590594 183.54753 
L 43.61167 186.20865 
L 43.612422 188.86977 
L 43.593022 191.53089 
L 43.550117 194.19201 
L 43.476818 196.85313 
L 43.362626 199.51425 
L 43.204337 202.002053 
L 43.191911 202.17537 
L 42.920097 204.83649 
L 42.540539 207.49761 
L 42.021684 210.15873 
L 41.418737 212.468879 
L 41.307174 212.81985 
L 40.213966 215.48097 
L 39.633137 216.591953 
L 38.539135 218.14209 
L 37.847537 218.944155 
L 36.026225 220.276679 
L 34.280389 220.80321 
L 34.240625 220.81353 
" clip-path="url(#pcc27d500df)" style="fill: none; stroke: #9dcae1; stroke-width: 1.5"/>
    <path d="M 187.028264 288.21825 
L 186.766577 287.427005 
L 186.189676 285.55713 
L 185.629945 282.89601 
L 185.303718 280.23489 
L 185.183373 277.57377 
L 185.252791 274.91265 
L 185.504922 272.25153 
L 185.939832 269.59041 
L 186.562996 266.92929 
L 186.766577 266.262341 
L 187.521905 263.82465 
L 188.546785 261.16353 
L 188.587889 261.069874 
L 189.731137 258.50241 
L 190.373489 257.199222 
L 191.049868 255.84129 
L 192.159089 253.724877 
L 192.444519 253.18017 
L 193.840678 250.51905 
L 193.944689 250.314239 
L 195.159468 247.85793 
L 195.766001 246.535311 
L 196.357205 245.19681 
L 197.399305 242.53569 
L 197.551601 242.084977 
L 198.263231 239.87457 
L 198.971381 237.21345 
L 199.337201 235.509075 
L 199.533438 234.55233 
L 199.961039 231.89121 
L 200.285548 229.23009 
L 200.525796 226.56897 
L 200.69928 223.90785 
L 200.837785 220.80321 
L 200.916374 218.14209 
L 200.968655 215.48097 
L 201.002388 212.81985 
L 201.0234 210.15873 
L 201.035991 207.49761 
L 201.043275 204.83649 
L 201.047436 202.17537 
L 201.049899 199.51425 
L 201.051482 196.85313 
L 201.052549 194.19201 
L 201.053201 191.53089 
L 201.053448 188.86977 
L 201.053349 186.20865 
L 201.053055 183.54753 
L 201.052773 180.88641 
L 201.052681 178.22529 
L 201.052885 175.12065 
L 201.053225 172.45953 
L 201.053528 169.79841 
L 201.05363 167.13729 
L 201.053476 164.47617 
L 201.053151 161.81505 
L 201.052829 159.15393 
L 201.052687 156.49281 
L 201.0528 153.83169 
L 201.053108 151.17057 
L 201.053444 148.50945 
L 201.053625 145.84833 
L 201.053554 143.18721 
L 201.053269 140.52609 
L 201.052924 137.86497 
L 201.052707 135.20385 
L 201.052764 132.09921 
L 201.05305 129.43809 
L 201.053394 126.77697 
L 201.053611 124.11585 
L 201.053583 121.45473 
L 201.053325 118.79361 
L 201.052977 116.13249 
L 201.052728 113.47137 
L 201.052712 110.81025 
L 201.052939 108.14913 
L 201.053285 105.48801 
L 201.053563 102.82689 
L 201.053622 100.16577 
L 201.05343 97.50465 
L 201.053092 94.84353 
L 201.052791 92.18241 
L 201.052692 89.52129 
L 201.0529 86.41665 
L 201.053253 83.75553 
L 201.053587 81.09441 
L 201.053756 78.43329 
L 201.053741 75.77217 
L 201.053692 73.11105 
L 201.053907 70.44993 
L 201.05478 67.78881 
L 201.056761 65.12769 
L 201.060414 62.46657 
L 201.066576 59.80545 
L 201.076638 57.14433 
L 201.09287 54.48321 
L 201.118773 51.82209 
L 201.122801 51.557629 
L 201.158242 49.16097 
L 201.218512 46.49985 
L 201.327084 43.39521 
L 201.465972 40.73409 
L 201.662387 38.07297 
L 201.934405 35.41185 
L 202.304408 32.75073 
L 202.80015 30.08961 
L 202.944113 29.486979 
L 203.449103 27.42849 
L 204.296282 24.76737 
L 204.729713 23.680409 
L 205.401647 22.10625 
" clip-path="url(#pcc27d500df)" style="fill: none; stroke: #9dcae1; stroke-width: 1.5"/>
    <path d="M 381.716846 22.10625 
L 382.396913 23.968365 
L 382.669612 24.76737 
L 383.383856 27.42849 
L 383.91729 30.08961 
L 384.182513 31.861295 
L 384.314042 32.75073 
L 384.607341 35.41185 
L 384.818146 38.07297 
L 384.966781 40.73409 
L 385.069284 43.39521 
L 385.14722 46.49985 
L 385.189294 49.16097 
L 385.216147 51.82209 
L 385.232984 54.48321 
L 385.243424 57.14433 
L 385.249829 59.80545 
L 385.253646 62.46657 
L 385.255748 65.12769 
L 385.256707 67.78881 
L 385.256972 70.44993 
L 385.256937 73.11105 
L 385.256906 75.77217 
L 385.257048 78.43329 
L 385.257361 81.09441 
L 385.257715 83.75553 
L 385.257936 86.41665 
L 385.257887 89.52129 
L 385.257615 92.18241 
L 385.257293 94.84353 
L 385.257113 97.50465 
L 385.257208 100.16577 
L 385.257601 102.82689 
L 385.258224 105.48801 
L 385.259017 108.14913 
L 385.260076 110.81025 
L 385.26178 113.47137 
L 385.264901 116.13249 
L 385.270678 118.79361 
L 385.280907 121.45473 
L 385.298114 124.11585 
L 385.325841 126.77697 
L 385.369042 129.43809 
L 385.434541 132.09921 
L 385.551418 135.20385 
L 385.699832 137.86497 
L 385.908061 140.52609 
L 385.968113 141.092364 
L 386.201024 143.18721 
L 386.592982 145.84833 
L 387.099156 148.50945 
L 387.734435 151.17057 
L 387.753713 151.238281 
L 388.536658 153.83169 
L 389.470239 156.49281 
L 389.575025 156.764229 
L 390.5452 159.15393 
L 391.360625 161.079273 
" clip-path="url(#pcc27d500df)" style="fill: none; stroke: #9dcae1; stroke-width: 1.5"/>
    <path d="M 391.360625 193.593735 
L 391.124114 194.19201 
L 390.083481 196.85313 
L 389.575025 198.229449 
L 389.120967 199.51425 
L 388.276455 202.17537 
L 387.753713 204.08019 
L 387.555734 204.83649 
L 386.974612 207.49761 
L 386.508223 210.15873 
L 386.144413 212.81985 
L 385.968113 214.517342 
L 385.871932 215.48097 
L 385.67589 218.14209 
L 385.535502 220.80321 
L 385.42453 223.90785 
L 385.362279 226.56897 
L 385.321365 229.23009 
L 385.295321 231.89121 
L 385.27929 234.55233 
L 385.269664 237.21345 
L 385.263779 239.87457 
L 385.259689 242.53569 
L 385.255953 245.19681 
L 385.251407 247.85793 
L 385.244861 250.51905 
L 385.234746 253.18017 
L 385.218718 255.84129 
L 385.193285 258.50241 
L 385.153467 261.16353 
L 385.092494 263.82465 
L 384.982655 266.92929 
L 384.842124 269.59041 
L 384.64334 272.25153 
L 384.367962 274.91265 
L 384.182513 276.245751 
L 383.997388 277.57377 
L 383.506478 280.23489 
L 382.857173 282.89601 
L 382.396913 284.369367 
L 382.007766 285.55713 
L 380.905503 288.21825 
" clip-path="url(#pcc27d500df)" style="fill: none; stroke: #9dcae1; stroke-width: 1.5"/>
   </g>
   <g id="PathCollection_5">
    <path d="M 193.086859 288.21825 
L 192.159089 286.475947 
L 191.732133 285.55713 
L 190.852891 282.89601 
L 190.373489 280.531946 
L 190.318068 280.23489 
L 190.084318 277.57377 
L 190.100815 274.91265 
L 190.349985 272.25153 
L 190.373489 272.118642 
L 190.833373 269.59041 
L 191.532073 266.92929 
L 192.159089 265.104854 
L 192.614173 263.82465 
L 193.746015 261.16353 
L 193.944689 260.745694 
L 195.032803 258.50241 
L 195.766001 257.075189 
L 196.404755 255.84129 
L 197.551601 253.638493 
L 197.788821 253.18017 
L 199.113184 250.51905 
L 199.337201 250.035632 
L 200.322445 247.85793 
L 201.122801 245.859465 
L 201.381773 245.19681 
L 202.280987 242.53569 
L 202.944113 240.163335 
L 203.023406 239.87457 
L 203.624848 237.21345 
L 204.09737 234.55233 
L 204.46117 231.89121 
L 204.729713 229.285186 
L 204.735409 229.23009 
L 204.940123 226.56897 
L 205.087274 223.90785 
L 205.204574 220.80321 
L 205.271223 218.14209 
L 205.315693 215.48097 
L 205.344464 212.81985 
L 205.36238 210.15873 
L 205.373048 207.49761 
L 205.379142 204.83649 
L 205.38259 202.17537 
L 205.384674 199.51425 
L 205.386112 196.85313 
L 205.387178 194.19201 
L 205.387882 191.53089 
L 205.388157 188.86977 
L 205.388023 186.20865 
L 205.387637 183.54753 
L 205.387251 180.88641 
L 205.387095 178.22529 
L 205.387319 175.12065 
L 205.387746 172.45953 
L 205.388151 169.79841 
L 205.388315 167.13729 
L 205.38815 164.47617 
L 205.387746 161.81505 
L 205.387321 159.15393 
L 205.387106 156.49281 
L 205.387217 153.83169 
L 205.387595 151.17057 
L 205.388034 148.50945 
L 205.388296 145.84833 
L 205.38824 143.18721 
L 205.387895 140.52609 
L 205.387449 137.86497 
L 205.387143 135.20385 
L 205.387176 132.09921 
L 205.387521 129.43809 
L 205.387967 126.77697 
L 205.388273 124.11585 
L 205.388272 121.45473 
L 205.387966 118.79361 
L 205.38752 116.13249 
L 205.387176 113.47137 
L 205.38712 110.81025 
L 205.387383 108.14913 
L 205.387822 105.48801 
L 205.3882 102.82689 
L 205.38831 100.16577 
L 205.388095 97.50465 
L 205.38767 94.84353 
L 205.387267 92.18241 
L 205.387106 89.52129 
L 205.387335 86.41665 
L 205.387778 83.75553 
L 205.388221 81.09441 
L 205.388466 78.43329 
L 205.388468 75.77217 
L 205.388396 73.11105 
L 205.38862 70.44993 
L 205.389635 67.78881 
L 205.392016 65.12769 
L 205.396467 62.46657 
L 205.404021 59.80545 
L 205.416379 57.14433 
L 205.436331 54.48321 
L 205.468206 51.82209 
L 205.518285 49.16097 
L 205.595185 46.49985 
L 205.734091 43.39521 
L 205.912224 40.73409 
L 206.164647 38.07297 
L 206.514817 35.41185 
L 206.515313 35.409019 
L 207.005595 32.75073 
L 207.663181 30.08961 
L 208.300913 28.118758 
L 208.544663 27.42849 
L 209.739855 24.76737 
L 210.122225 24.08161 
L 211.37442 22.10625 
" clip-path="url(#pcc27d500df)" style="fill: none; stroke: #6aaed6; stroke-width: 1.5"/>
    <path d="M 375.744559 22.10625 
L 377.004401 24.316292 
L 377.229625 24.76737 
L 378.283932 27.42849 
L 378.790001 29.114664 
L 379.058477 30.08961 
L 379.615092 32.75073 
L 380.021775 35.41185 
L 380.314314 38.07297 
L 380.520858 40.73409 
L 380.575601 41.749135 
L 380.661652 43.39521 
L 380.768089 46.49985 
L 380.825717 49.16097 
L 380.862582 51.82209 
L 380.885735 54.48321 
L 380.900105 57.14433 
L 380.908933 59.80545 
L 380.91422 62.46657 
L 380.917167 65.12769 
L 380.91855 67.78881 
L 380.91897 70.44993 
L 380.918946 73.11105 
L 380.918893 75.77217 
L 380.919051 78.43329 
L 380.919442 81.09441 
L 380.919908 83.75553 
L 380.920223 86.41665 
L 380.920197 89.52129 
L 380.919861 92.18241 
L 380.91943 94.84353 
L 380.91915 97.50465 
L 380.9192 100.16577 
L 380.919608 102.82689 
L 380.920258 105.48801 
L 380.921006 108.14913 
L 380.921834 110.81025 
L 380.923007 113.47137 
L 380.925157 116.13249 
L 380.929321 118.79361 
L 380.93696 121.45473 
L 380.950046 124.11585 
L 380.971273 126.77697 
L 381.0044 129.43809 
L 381.054678 132.09921 
L 381.144673 135.20385 
L 381.259585 137.86497 
L 381.421975 140.52609 
L 381.646052 143.18721 
L 381.94783 145.84833 
L 382.344496 148.50945 
L 382.396913 148.790569 
L 382.849295 151.17057 
L 383.476836 153.83169 
L 384.182513 156.312889 
L 384.235502 156.49281 
L 385.117908 159.15393 
L 385.968113 161.472203 
L 386.098142 161.81505 
L 387.123336 164.47617 
L 387.753713 166.172844 
L 388.117045 167.13729 
L 388.986743 169.79841 
L 389.575025 172.139326 
L 389.654679 172.45953 
L 390.055651 175.12065 
L 390.15511 178.22529 
L 389.925376 180.88641 
L 389.575025 182.769474 
L 389.430164 183.54753 
L 388.715119 186.20865 
L 387.84926 188.86977 
L 387.753713 189.133043 
L 386.898674 191.53089 
L 385.968113 194.109981 
L 385.939099 194.19201 
L 385.023863 196.85313 
L 384.196578 199.51425 
L 384.182513 199.564928 
L 383.473871 202.17537 
L 382.868424 204.83649 
L 382.396913 207.376636 
L 382.374634 207.49761 
L 381.979441 210.15873 
L 381.675151 212.81985 
L 381.446527 215.48097 
L 381.278876 218.14209 
L 381.158845 220.80321 
L 381.063768 223.90785 
L 381.010218 226.56897 
L 380.974872 229.23009 
L 380.952307 231.89121 
L 380.938421 234.55233 
L 380.930091 237.21345 
L 380.924924 239.87457 
L 380.921085 242.53569 
L 380.917144 245.19681 
L 380.91187 247.85793 
L 380.903916 250.51905 
L 380.891412 253.18017 
L 380.871479 255.84129 
L 380.839762 258.50241 
L 380.789991 261.16353 
L 380.713586 263.82465 
L 380.575601 266.928728 
L 380.575575 266.92929 
L 380.394862 269.59041 
L 380.138858 272.25153 
L 379.783847 274.91265 
L 379.300529 277.57377 
L 378.790001 279.684085 
L 378.647123 280.23489 
L 377.755659 282.89601 
L 377.004401 284.638889 
L 376.563667 285.55713 
L 375.218801 287.80599 
L 374.935425 288.21825 
" clip-path="url(#pcc27d500df)" style="fill: none; stroke: #6aaed6; stroke-width: 1.5"/>
   </g>
   <g id="PathCollection_6">
    <path d="M 201.790975 288.21825 
L 201.122801 287.747274 
L 199.337201 286.160348 
L 198.787476 285.55713 
L 197.551601 283.738166 
L 197.077542 282.89601 
L 196.079606 280.23489 
L 195.766001 278.679153 
L 195.572118 277.57377 
L 195.455412 274.91265 
L 195.654454 272.25153 
L 195.766001 271.639448 
L 196.160708 269.59041 
L 196.928088 266.92929 
L 197.551601 265.267974 
L 198.113382 263.82465 
L 199.315285 261.16353 
L 199.337201 261.119099 
L 200.647599 258.50241 
L 201.122801 257.567563 
L 202.002658 255.84129 
L 202.944113 253.919184 
L 203.304129 253.18017 
L 204.504174 250.51905 
L 204.729713 249.963689 
L 205.578006 247.85793 
L 206.485726 245.19681 
L 206.515313 245.095769 
L 207.268962 242.53569 
L 207.899449 239.87457 
L 208.300913 237.747949 
L 208.404771 237.21345 
L 208.816872 234.55233 
L 209.130794 231.89121 
L 209.365526 229.23009 
L 209.537641 226.56897 
L 209.661362 223.90785 
L 209.760235 220.80321 
L 209.816709 218.14209 
L 209.85462 215.48097 
L 209.87926 212.81985 
L 209.894585 210.15873 
L 209.903599 207.49761 
L 209.908621 204.83649 
L 209.911401 202.17537 
L 209.913136 199.51425 
L 209.914476 196.85313 
L 209.915606 194.19201 
L 209.916423 191.53089 
L 209.916759 188.86977 
L 209.916579 186.20865 
L 209.916054 183.54753 
L 209.915508 180.88641 
L 209.915254 178.22529 
L 209.915509 175.12065 
L 209.916069 172.45953 
L 209.916632 169.79841 
L 209.916894 167.13729 
L 209.916712 164.47617 
L 209.916186 161.81505 
L 209.915601 159.15393 
L 209.915273 156.49281 
L 209.915381 153.83169 
L 209.915866 151.17057 
L 209.916465 148.50945 
L 209.916854 145.84833 
L 209.916821 143.18721 
L 209.916385 140.52609 
L 209.915781 137.86497 
L 209.915338 135.20385 
L 209.915333 132.09921 
L 209.915769 129.43809 
L 209.916372 126.77697 
L 209.916815 124.11585 
L 209.916858 121.45473 
L 209.916477 118.79361 
L 209.91588 116.13249 
L 209.915389 113.47137 
L 209.915271 110.81025 
L 209.91559 108.14913 
L 209.916172 105.48801 
L 209.916703 102.82689 
L 209.916895 100.16577 
L 209.916643 97.50465 
L 209.916085 94.84353 
L 209.915524 92.18241 
L 209.915266 89.52129 
L 209.915528 86.41665 
L 209.91611 83.75553 
L 209.916721 81.09441 
L 209.917085 78.43329 
L 209.917116 75.77217 
L 209.917015 73.11105 
L 209.917261 70.44993 
L 209.918511 67.78881 
L 209.921537 65.12769 
L 209.927271 62.46657 
L 209.937061 59.80545 
L 209.953107 57.14433 
L 209.979036 54.48321 
L 210.0205 51.82209 
L 210.085746 49.16097 
L 210.122225 48.191837 
L 210.190918 46.49985 
L 210.386233 43.39521 
L 210.637153 40.73409 
L 210.993176 38.07297 
L 211.487479 35.41185 
L 211.907825 33.737434 
L 212.184968 32.75073 
L 213.173049 30.08961 
L 213.693425 29.005992 
L 214.570513 27.42849 
L 215.479025 26.129 
L 216.614943 24.76737 
L 217.300337 24.09048 
L 219.085937 22.640122 
L 219.897214 22.10625 
" clip-path="url(#pcc27d500df)" style="fill: none; stroke: #4191c6; stroke-width: 1.5"/>
    <path d="M 367.220979 22.10625 
L 368.040689 22.66996 
L 369.826289 24.208517 
L 370.356145 24.76737 
L 371.611889 26.406283 
L 372.264299 27.42849 
L 373.397489 29.71629 
L 373.556515 30.08961 
L 374.42658 32.75073 
L 375.062285 35.41185 
L 375.218801 36.31078 
L 375.495304 38.07297 
L 375.792527 40.73409 
L 375.998325 43.39521 
L 376.155589 46.49985 
L 376.240946 49.16097 
L 376.295662 51.82209 
L 376.330076 54.48321 
L 376.351455 57.14433 
L 376.364605 59.80545 
L 376.37251 62.46657 
L 376.376961 65.12769 
L 376.379104 67.78881 
L 376.379804 70.44993 
L 376.379807 73.11105 
L 376.37972 75.77217 
L 376.37991 78.43329 
L 376.380436 81.09441 
L 376.381097 83.75553 
L 376.381573 86.41665 
L 376.381589 89.52129 
L 376.381142 92.18241 
L 376.380526 94.84353 
L 376.380084 97.50465 
L 376.380077 100.16577 
L 376.380549 102.82689 
L 376.381325 105.48801 
L 376.382142 108.14913 
L 376.382852 110.81025 
L 376.383615 113.47137 
L 376.384991 116.13249 
L 376.387929 118.79361 
L 376.393712 121.45473 
L 376.403949 124.11585 
L 376.42072 126.77697 
L 376.446883 129.43809 
L 376.486498 132.09921 
L 376.557432 135.20385 
L 376.648382 137.86497 
L 376.777766 140.52609 
L 376.957787 143.18721 
L 377.004401 143.702405 
L 377.190313 145.84833 
L 377.495088 148.50945 
L 377.890317 151.17057 
L 378.391207 153.83169 
L 378.790001 155.571152 
L 378.999979 156.49281 
L 379.706288 159.15393 
L 380.523072 161.81505 
L 380.575601 161.977529 
L 381.386736 164.47617 
L 382.273806 167.13729 
L 382.396913 167.540229 
L 383.080218 169.79841 
L 383.741273 172.45953 
L 384.181958 175.12065 
L 384.182513 175.131227 
L 384.336807 178.22529 
L 384.182513 180.651491 
L 384.167075 180.88641 
L 383.729535 183.54753 
L 383.094639 186.20865 
L 382.396913 188.654364 
L 382.334885 188.86977 
L 381.493977 191.53089 
L 380.672157 194.19201 
L 380.575601 194.517196 
L 379.879524 196.85313 
L 379.177679 199.51425 
L 378.790001 201.216864 
L 378.567727 202.17537 
L 378.046088 204.83649 
L 377.626953 207.49761 
L 377.297936 210.15873 
L 377.045571 212.81985 
L 377.004401 213.393202 
L 376.846432 215.48097 
L 376.698739 218.14209 
L 376.593025 220.80321 
L 376.509051 223.90785 
L 376.46149 226.56897 
L 376.429918 229.23009 
L 376.409698 231.89121 
L 376.397282 234.55233 
L 376.389867 237.21345 
L 376.38517 239.87457 
L 376.38132 242.53569 
L 376.376754 245.19681 
L 376.37003 247.85793 
L 376.359463 250.51905 
L 376.342605 253.18017 
L 376.315601 255.84129 
L 376.272538 258.50241 
L 376.204836 261.16353 
L 376.100702 263.82465 
L 375.912206 266.92929 
L 375.670008 269.59041 
L 375.326289 272.25153 
L 375.218801 272.858291 
L 374.817102 274.91265 
L 374.110969 277.57377 
L 373.397489 279.593924 
L 373.139464 280.23489 
L 371.753757 282.89601 
L 371.611889 283.113485 
L 369.826289 285.435212 
L 369.713762 285.55713 
L 368.040689 287.056773 
L 366.430054 288.21825 
" clip-path="url(#pcc27d500df)" style="fill: none; stroke: #4191c6; stroke-width: 1.5"/>
   </g>
   <g id="PathCollection_7">
    <path d="M 202.816187 274.91265 
L 202.749213 272.25153 
L 202.944113 270.854306 
L 203.133003 269.59041 
L 203.888569 266.92929 
L 204.729713 264.698735 
L 205.066677 263.82465 
L 206.254661 261.16353 
L 206.515313 260.608715 
L 207.515689 258.50241 
L 208.300913 256.787356 
L 208.738053 255.84129 
L 209.878304 253.18017 
L 210.122225 252.550169 
L 210.922828 250.51905 
L 211.806216 247.85793 
L 211.907825 247.50343 
L 212.596342 245.19681 
L 213.237766 242.53569 
L 213.693425 240.161067 
L 213.752467 239.87457 
L 214.200446 237.21345 
L 214.545116 234.55233 
L 214.806246 231.89121 
L 215.000692 229.23009 
L 215.142913 226.56897 
L 215.245165 223.90785 
L 215.327266 220.80321 
L 215.374623 218.14209 
L 215.406779 215.48097 
L 215.42784 212.81985 
L 215.440861 210.15873 
L 215.448274 207.49761 
L 215.452128 204.83649 
L 215.454117 202.17537 
L 215.455458 199.51425 
L 215.456781 196.85313 
L 215.458152 194.19201 
L 215.459265 191.53089 
L 215.459755 188.86977 
L 215.459485 186.20865 
L 215.458665 183.54753 
L 215.457774 180.88641 
L 215.45731 178.22529 
L 215.457634 175.12065 
L 215.458485 172.45953 
L 215.459391 169.79841 
L 215.459862 167.13729 
L 215.459642 164.47617 
L 215.458851 161.81505 
L 215.457918 159.15393 
L 215.457348 156.49281 
L 215.457451 153.83169 
L 215.45817 151.17057 
L 215.459116 148.50945 
L 215.459777 145.84833 
L 215.459793 143.18721 
L 215.459156 140.52609 
L 215.458212 137.86497 
L 215.457472 135.20385 
L 215.457384 132.09921 
L 215.458021 129.43809 
L 215.458965 126.77697 
L 215.459705 124.11585 
L 215.45984 121.45473 
L 215.459296 118.79361 
L 215.458369 116.13249 
L 215.457561 113.47137 
L 215.45731 110.81025 
L 215.457752 108.14913 
L 215.458648 105.48801 
L 215.459511 102.82689 
L 215.459875 100.16577 
L 215.459542 97.50465 
L 215.458693 94.84353 
L 215.457789 92.18241 
L 215.457325 89.52129 
L 215.457662 86.41665 
L 215.458545 83.75553 
L 215.459523 81.09441 
L 215.460147 78.43329 
L 215.460243 75.77217 
L 215.460087 73.11105 
L 215.460397 70.44993 
L 215.462194 67.78881 
L 215.466682 65.12769 
L 215.475307 62.46657 
L 215.479025 61.798606 
L 215.491713 59.80545 
L 215.519539 57.14433 
L 215.564535 54.48321 
L 215.636542 51.82209 
L 215.749986 49.16097 
L 215.924803 46.49985 
L 216.241863 43.39521 
L 216.64991 40.73409 
L 217.229635 38.07297 
L 217.300337 37.836202 
L 218.156714 35.41185 
L 219.085937 33.467576 
L 219.500602 32.75073 
L 220.871537 30.939384 
L 221.669909 30.08961 
L 222.657137 29.259561 
L 224.478449 28.051133 
L 225.687996 27.42849 
L 226.264049 27.185682 
L 228.049649 26.605757 
L 229.835249 26.168832 
L 231.656561 25.839268 
L 233.442161 25.604416 
L 235.227761 25.436047 
L 237.013361 25.317323 
L 238.834673 25.233524 
L 240.620273 25.177472 
L 242.405873 25.139535 
L 244.191473 25.114187 
L 246.012785 25.097298 
L 247.798385 25.086838 
L 249.583985 25.080558 
L 251.369585 25.077113 
L 253.190897 25.075439 
L 254.976497 25.074759 
L 256.762097 25.074406 
L 258.547697 25.07399 
L 260.369009 25.073347 
L 262.154609 25.072567 
L 263.940209 25.071839 
L 265.725809 25.071386 
L 267.547121 25.071354 
L 269.332721 25.07174 
L 271.118321 25.072385 
L 272.903921 25.073036 
L 274.725233 25.073447 
L 276.510833 25.073445 
L 278.296433 25.073042 
L 280.082033 25.07239 
L 281.903345 25.071727 
L 283.688945 25.071333 
L 285.474545 25.071343 
L 287.260145 25.071753 
L 289.081457 25.072422 
L 290.867057 25.073067 
L 292.652657 25.073455 
L 294.438257 25.073436 
L 296.259569 25.073007 
L 298.045169 25.072348 
L 299.830769 25.071705 
L 301.616369 25.071325 
L 303.437681 25.071357 
L 305.223281 25.071788 
L 307.008881 25.07245 
L 308.794481 25.073089 
L 310.615793 25.073466 
L 312.401393 25.073422 
L 314.186993 25.072986 
L 315.972593 25.072325 
L 317.793905 25.071683 
L 319.579505 25.071335 
L 321.365105 25.071409 
L 323.150705 25.071893 
L 324.972017 25.07265 
L 326.757617 25.073421 
L 328.543217 25.074029 
L 330.328817 25.074427 
L 332.150129 25.074793 
L 333.935729 25.075531 
L 335.721329 25.077289 
L 337.506929 25.080912 
L 339.328241 25.087632 
L 341.113841 25.098588 
L 342.899441 25.115787 
L 344.685041 25.141976 
L 346.506353 25.182113 
L 348.291953 25.240474 
L 350.077553 25.325714 
L 351.863153 25.448593 
L 353.684465 25.627274 
L 355.470065 25.872929 
L 357.255665 26.210864 
L 359.041265 26.668656 
L 360.862577 27.294103 
L 361.163029 27.42849 
L 362.648177 28.247155 
L 364.433777 29.527261 
L 365.052238 30.08961 
L 366.219377 31.452282 
L 367.108775 32.75073 
L 368.040689 34.564471 
L 368.399269 35.41185 
L 369.225419 38.07297 
L 369.810024 40.73409 
L 369.826289 40.839817 
L 370.163032 43.39521 
L 370.431713 46.49985 
L 370.577911 49.16097 
L 370.671831 51.82209 
L 370.730998 54.48321 
L 370.767792 57.14433 
L 370.790448 59.80545 
L 370.804112 62.46657 
L 370.811879 65.12769 
L 370.815704 67.78881 
L 370.817038 70.44993 
L 370.817118 73.11105 
L 370.816965 75.77217 
L 370.817222 78.43329 
L 370.818038 81.09441 
L 370.819114 83.75553 
L 370.819938 86.41665 
L 370.820047 89.52129 
L 370.81937 92.18241 
L 370.818363 94.84353 
L 370.817581 97.50465 
L 370.817463 100.16577 
L 370.818102 102.82689 
L 370.819209 105.48801 
L 370.820297 108.14913 
L 370.82099 110.81025 
L 370.821305 113.47137 
L 370.821779 116.13249 
L 370.823394 118.79361 
L 370.827384 121.45473 
L 370.835084 124.11585 
L 370.847975 126.77697 
L 370.867964 129.43809 
L 370.897864 132.09921 
L 370.950999 135.20385 
L 371.019216 137.86497 
L 371.116936 140.52609 
L 371.25415 143.18721 
L 371.442443 145.84833 
L 371.611889 147.650737 
L 371.685176 148.50945 
L 371.977338 151.17057 
L 372.351849 153.83169 
L 372.821725 156.49281 
L 373.397489 159.15315 
L 373.397649 159.15393 
L 374.011852 161.81505 
L 374.713615 164.47617 
L 375.218801 166.281734 
L 375.449586 167.13729 
L 376.136161 169.79841 
L 376.74512 172.45953 
L 377.004401 174.025551 
L 377.173696 175.12065 
L 377.370739 178.22529 
L 377.274477 180.88641 
L 377.004401 183.131176 
L 376.950831 183.54753 
L 376.417739 186.20865 
L 375.783555 188.86977 
L 375.218801 191.116254 
L 375.109517 191.53089 
L 374.401489 194.19201 
L 373.76148 196.85313 
L 373.397489 198.563396 
L 373.182068 199.51425 
L 372.658124 202.17537 
L 372.230212 204.83649 
L 371.888601 207.49761 
L 371.621866 210.15873 
L 371.611889 210.286464 
L 371.392009 212.81985 
L 371.219578 215.48097 
L 371.093559 218.14209 
L 371.003124 220.80321 
L 370.930733 223.90785 
L 370.889227 226.56897 
L 370.861354 229.23009 
L 370.843411 231.89121 
L 370.832481 234.55233 
L 370.826043 237.21345 
L 370.82179 239.87457 
L 370.817596 242.53569 
L 370.811505 245.19681 
L 370.801545 247.85793 
L 370.78526 250.51905 
L 370.758923 253.18017 
L 370.716546 255.84129 
L 370.648836 258.50241 
L 370.542208 261.16353 
L 370.377908 263.82465 
L 370.079904 266.92929 
L 369.826289 268.693289 
L 369.676348 269.59041 
L 369.047686 272.25153 
L 368.174337 274.91265 
L 368.040689 275.216935 
L 366.796689 277.57377 
L 366.219377 278.407483 
L 364.658964 280.23489 
L 364.433777 280.442829 
L 362.648177 281.766178 
L 360.862577 282.797516 
L 360.642384 282.89601 
L 359.041265 283.483169 
L 357.255665 283.978988 
L 355.470065 284.349323 
L 353.684465 284.621466 
L 351.863153 284.821398 
L 350.077553 284.960124 
L 348.291953 285.057089 
L 346.506353 285.123902 
L 344.685041 285.170107 
L 342.899441 285.200431 
L 341.113841 285.220505 
L 339.328241 285.233467 
L 337.506929 285.241599 
L 335.721329 285.246148 
L 333.935729 285.248476 
L 332.150129 285.249501 
L 330.328817 285.249948 
L 328.543217 285.250304 
L 326.757617 285.250836 
L 324.972017 285.251567 
L 323.150705 285.252362 
L 321.365105 285.252961 
L 319.579505 285.253189 
L 317.793905 285.252982 
L 315.972593 285.252416 
L 314.186993 285.251734 
L 312.401393 285.251193 
L 310.615793 285.251 
L 308.794481 285.251238 
L 307.008881 285.251808 
L 305.223281 285.252492 
L 303.437681 285.25303 
L 301.616369 285.253215 
L 299.830769 285.25297 
L 298.045169 285.252395 
L 296.259569 285.251711 
L 294.438257 285.251171 
L 292.652657 285.251002 
L 290.867057 285.251256 
L 289.081457 285.251835 
L 287.260145 285.252531 
L 285.474545 285.253053 
L 283.688945 285.253213 
L 281.903345 285.252952 
L 280.082033 285.252355 
L 278.296433 285.251673 
L 276.510833 285.251157 
L 274.725233 285.251005 
L 272.903921 285.251283 
L 271.118321 285.251875 
L 269.332721 285.252557 
L 267.547121 285.253067 
L 265.725809 285.253209 
L 263.940209 285.252923 
L 262.154609 285.252326 
L 260.369009 285.251644 
L 258.547697 285.25113 
L 256.762097 285.250997 
L 254.976497 285.25128 
L 253.190897 285.251862 
L 251.369585 285.25252 
L 249.583985 285.252954 
L 247.798385 285.252972 
L 246.012785 285.252501 
L 244.191473 285.251591 
L 242.405873 285.250439 
L 240.620273 285.249181 
L 238.834673 285.247833 
L 237.013361 285.246143 
L 235.227761 285.243664 
L 233.442161 285.239564 
L 231.656561 285.232756 
L 229.835249 285.221586 
L 228.049649 285.204715 
L 226.264049 285.179679 
L 224.478449 285.143359 
L 222.657137 285.090168 
L 220.871537 285.015998 
L 219.085937 284.911574 
L 217.300337 284.765573 
L 215.479025 284.558309 
L 213.693425 284.278187 
L 211.907825 283.896922 
L 210.122225 283.383058 
L 208.848537 282.89601 
L 208.300913 282.620641 
L 206.515313 281.434094 
L 205.153828 280.23489 
L 204.729713 279.666384 
L 203.521992 277.57377 
L 202.944113 275.489423 
L 202.816187 274.91265 
z
" clip-path="url(#pcc27d500df)" style="fill: none; stroke: #2070b4; stroke-width: 1.5"/>
   </g>
   <g id="PathCollection_8">
    <path d="M 219.049006 266.92929 
L 218.948372 263.82465 
L 219.085937 263.062012 
L 219.443566 261.16353 
L 220.163104 258.50241 
L 220.871537 255.930569 
L 220.897873 255.84129 
L 221.712997 253.18017 
L 222.405523 250.51905 
L 222.657137 249.4137 
L 223.057297 247.85793 
L 223.635248 245.19681 
L 224.096909 242.53569 
L 224.462139 239.87457 
L 224.478449 239.729569 
L 224.819751 237.21345 
L 225.097464 234.55233 
L 225.306312 231.89121 
L 225.460115 229.23009 
L 225.571489 226.56897 
L 225.651592 223.90785 
L 225.717505 220.80321 
L 225.757596 218.14209 
L 225.786448 215.48097 
L 225.805955 212.81985 
L 225.817405 210.15873 
L 225.822425 207.49761 
L 225.823337 204.83649 
L 225.822813 202.17537 
L 225.823075 199.51425 
L 225.825137 196.85313 
L 225.828551 194.19201 
L 225.831848 191.53089 
L 225.833449 188.86977 
L 225.832598 186.20865 
L 225.829815 183.54753 
L 225.826638 180.88641 
L 225.824804 178.22529 
L 225.825627 175.12065 
L 225.828438 172.45953 
L 225.831629 169.79841 
L 225.833469 167.13729 
L 225.832963 164.47617 
L 225.830383 161.81505 
L 225.827129 159.15393 
L 225.824965 156.49281 
L 225.825063 153.83169 
L 225.827371 151.17057 
L 225.830637 148.50945 
L 225.833091 145.84833 
L 225.833403 143.18721 
L 225.831403 140.52609 
L 225.828176 137.86497 
L 225.825471 135.20385 
L 225.824875 132.09921 
L 225.826875 129.43809 
L 225.830102 126.77697 
L 225.832807 124.11585 
L 225.833524 121.45473 
L 225.831864 118.79361 
L 225.828727 116.13249 
L 225.825813 113.47137 
L 225.824703 110.81025 
L 225.825997 108.14913 
L 225.828994 105.48801 
L 225.83207 102.82689 
L 225.833558 100.16577 
L 225.832652 97.50465 
L 225.829844 94.84353 
L 225.826662 92.18241 
L 225.82484 89.52129 
L 225.825713 86.41665 
L 225.828632 83.75553 
L 225.832058 81.09441 
L 225.834401 78.43329 
L 225.834933 75.77217 
L 225.834446 73.11105 
L 225.835292 70.44993 
L 225.840949 67.78881 
L 225.855566 65.12769 
L 225.884104 62.46657 
L 225.933486 59.80545 
L 226.014837 57.14433 
L 226.146503 54.48321 
L 226.264049 52.998897 
L 226.383881 51.82209 
L 226.810969 49.16097 
L 227.469992 46.49985 
L 228.049649 44.992614 
L 228.858151 43.39521 
L 229.835249 42.103323 
L 231.231194 40.73409 
L 231.656561 40.437099 
L 233.442161 39.528755 
L 235.227761 38.878228 
L 237.013361 38.420017 
L 238.834673 38.096933 
L 239.032739 38.07297 
L 240.620273 37.931659 
L 242.405873 37.824197 
L 244.191473 37.75251 
L 246.012785 37.704885 
L 247.798385 37.675534 
L 249.583985 37.658051 
L 251.369585 37.648566 
L 253.190897 37.64401 
L 254.976497 37.642142 
L 256.762097 37.641083 
L 258.547697 37.639766 
L 260.369009 37.637789 
L 262.154609 37.635483 
L 263.940209 37.633419 
L 265.725809 37.632232 
L 267.547121 37.632306 
L 269.332721 37.633565 
L 271.118321 37.635493 
L 272.903921 37.637342 
L 274.725233 37.638409 
L 276.510833 37.638243 
L 278.296433 37.636936 
L 280.082033 37.634988 
L 281.903345 37.633111 
L 283.688945 37.632094 
L 285.474545 37.632283 
L 287.260145 37.633608 
L 289.081457 37.635602 
L 290.867057 37.637428 
L 292.652657 37.638424 
L 294.438257 37.638209 
L 296.259569 37.63683 
L 298.045169 37.634867 
L 299.830769 37.633051 
L 301.616369 37.632077 
L 303.437681 37.632334 
L 305.223281 37.633714 
L 307.008881 37.635683 
L 308.794481 37.637488 
L 310.615793 37.638448 
L 312.401393 37.638161 
L 314.186993 37.636767 
L 315.972593 37.634802 
L 317.793905 37.632997 
L 319.579505 37.632125 
L 321.365105 37.632507 
L 323.150705 37.634053 
L 324.972017 37.636322 
L 326.757617 37.638553 
L 328.543217 37.640271 
L 330.328817 37.641417 
L 332.150129 37.642615 
L 333.935729 37.645152 
L 335.721329 37.651027 
L 337.506929 37.662825 
L 339.328241 37.68435 
L 341.113841 37.719109 
L 342.899441 37.77338 
L 344.685041 37.855781 
L 346.506353 37.981828 
L 347.396511 38.07297 
L 348.291953 38.197745 
L 350.077553 38.560257 
L 351.863153 39.081964 
L 353.684465 39.839297 
L 355.22272 40.73409 
L 355.470065 40.936987 
L 357.255665 42.938491 
L 357.559543 43.39521 
L 358.930775 46.49985 
L 359.041265 46.891358 
L 359.530347 49.16097 
L 359.899826 51.82209 
L 360.133002 54.48321 
L 360.27816 57.14433 
L 360.367636 59.80545 
L 360.421771 62.46657 
L 360.452836 65.12769 
L 360.468501 67.78881 
L 360.474336 70.44993 
L 360.475029 73.11105 
L 360.474475 75.77217 
L 360.475236 78.43329 
L 360.478064 81.09441 
L 360.482011 83.75553 
L 360.485224 86.41665 
L 360.485963 89.52129 
L 360.483695 92.18241 
L 360.480012 94.84353 
L 360.476926 97.50465 
L 360.476122 100.16577 
L 360.478056 102.82689 
L 360.481715 105.48801 
L 360.485185 108.14913 
L 360.486718 110.81025 
L 360.48573 113.47137 
L 360.483203 116.13249 
L 360.481295 118.79361 
L 360.482398 121.45473 
L 360.488185 124.11585 
L 360.499224 126.77697 
L 360.515412 129.43809 
L 360.537067 132.09921 
L 360.572006 135.20385 
L 360.615544 137.86497 
L 360.679166 140.52609 
L 360.77174 143.18721 
L 360.862577 145.042407 
L 360.894156 145.84833 
L 361.034853 148.50945 
L 361.221205 151.17057 
L 361.461573 153.83169 
L 361.765303 156.49281 
L 362.142382 159.15393 
L 362.601508 161.81505 
L 362.648177 162.059161 
L 363.047121 164.47617 
L 363.54291 167.13729 
L 364.071411 169.79841 
L 364.433777 171.721808 
L 364.554324 172.45953 
L 364.895356 175.12065 
L 365.117587 178.22529 
L 365.113809 180.88641 
L 364.933929 183.54753 
L 364.619678 186.20865 
L 364.433777 187.432867 
L 364.180663 188.86977 
L 363.670809 191.53089 
L 363.182742 194.19201 
L 362.743189 196.85313 
L 362.648177 197.485828 
L 362.289797 199.51425 
L 361.889565 202.17537 
L 361.562747 204.83649 
L 361.302391 207.49761 
L 361.100313 210.15873 
L 360.947577 212.81985 
L 360.862577 214.815856 
L 360.827093 215.48097 
L 360.722321 218.14209 
L 360.646319 220.80321 
L 360.583007 223.90785 
L 360.544297 226.56897 
L 360.516812 229.23009 
L 360.498844 231.89121 
L 360.488579 234.55233 
L 360.483197 237.21345 
L 360.47867 239.87457 
L 360.47012 242.53569 
L 360.45221 245.19681 
L 360.418891 247.85793 
L 360.362012 250.51905 
L 360.268702 253.18017 
L 360.117885 255.84129 
L 359.876486 258.50241 
L 359.49583 261.16353 
L 359.041265 263.224148 
L 358.868352 263.82465 
L 357.479515 266.92929 
L 357.255665 267.26412 
L 355.470065 269.270021 
L 355.082787 269.59041 
L 353.684465 270.414431 
L 351.863153 271.187278 
L 350.077553 271.722941 
L 348.291953 272.096957 
L 347.220264 272.25153 
L 346.506353 272.32728 
L 344.685041 272.458232 
L 342.899441 272.54406 
L 341.113841 272.600753 
L 339.328241 272.637215 
L 337.506929 272.659947 
L 335.721329 272.672537 
L 333.935729 272.678902 
L 332.150129 272.68169 
L 330.328817 272.682966 
L 328.543217 272.684084 
L 326.757617 272.685745 
L 324.972017 272.687945 
L 323.150705 272.690246 
L 321.365105 272.691887 
L 319.579505 272.692395 
L 317.793905 272.691636 
L 315.972593 272.689893 
L 314.186993 272.687912 
L 312.401393 272.686433 
L 310.615793 272.686024 
L 308.794481 272.686872 
L 307.008881 272.688621 
L 305.223281 272.690608 
L 303.437681 272.692075 
L 301.616369 272.692456 
L 299.830769 272.691591 
L 298.045169 272.68983 
L 296.259569 272.687847 
L 294.438257 272.686378 
L 292.652657 272.686041 
L 290.867057 272.686929 
L 289.081457 272.688701 
L 287.260145 272.690718 
L 285.474545 272.692132 
L 283.688945 272.692444 
L 281.903345 272.691534 
L 280.082033 272.68971 
L 278.296433 272.687737 
L 276.510833 272.686341 
L 274.725233 272.686054 
L 272.903921 272.687015 
L 271.118321 272.688821 
L 269.332721 272.690788 
L 267.547121 272.692165 
L 265.725809 272.692416 
L 263.940209 272.691433 
L 262.154609 272.689603 
L 260.369009 272.687615 
L 258.547697 272.68619 
L 256.762097 272.685892 
L 254.976497 272.686735 
L 253.190897 272.688288 
L 251.369585 272.689791 
L 249.583985 272.690288 
L 247.798385 272.689087 
L 246.012785 272.685775 
L 244.191473 272.680079 
L 242.405873 272.67213 
L 240.620273 272.661402 
L 238.834673 272.646678 
L 237.013361 272.625059 
L 235.227761 272.593449 
L 233.442161 272.545916 
L 231.656561 272.474961 
L 229.835249 272.368259 
L 228.454804 272.25153 
L 228.049649 272.202876 
L 226.264049 271.89633 
L 224.478449 271.451043 
L 222.657137 270.784036 
L 220.871537 269.808897 
L 220.586665 269.59041 
L 219.085937 267.025496 
L 219.049006 266.92929 
z
" clip-path="url(#pcc27d500df)" style="fill: none; stroke: #08509b; stroke-width: 1.5"/>
   </g>
   <g id="PathCollection_9"/>
   <g id="patch_3">
    <path d="M 34.240625 288.21825 
L 34.240625 22.10625 
" style="fill: none; stroke: #000000; stroke-width: 0.8; stroke-linejoin: miter; stroke-linecap: square"/>
   </g>
   <g id="patch_4">
    <path d="M 391.360625 288.21825 
L 391.360625 22.10625 
" style="fill: none; stroke: #000000; stroke-width: 0.8; stroke-linejoin: miter; stroke-linecap: square"/>
   </g>
   <g id="patch_5">
    <path d="M 34.240625 288.21825 
L 391.360625 288.21825 
" style="fill: none; stroke: #000000; stroke-width: 0.8; stroke-linejoin: miter; stroke-linecap: square"/>
   </g>
   <g id="patch_6">
    <path d="M 34.240625 22.10625 
L 391.360625 22.10625 
" style="fill: none; stroke: #000000; stroke-width: 0.8; stroke-linejoin: miter; stroke-linecap: square"/>
   </g>
   <g id="text_16">
    <!-- 8.2_cross_-45.0 -->
    <g transform="translate(166.181563 16.10625)scale(0.12 -0.12)">
     <defs>
      <path id="DejaVuSans-2e" d="M 684 794 
L 1344 794 
L 1344 0 
L 684 0 
L 684 794 
z
" transform="scale(0.015625)"/>
      <path id="DejaVuSans-5f" d="M 3263 -1063 
L 3263 -1509 
L -63 -1509 
L -63 -1063 
L 3263 -1063 
z
" transform="scale(0.015625)"/>
      <path id="DejaVuSans-63" d="M 3122 3366 
L 3122 2828 
Q 2878 2963 2633 3030 
Q 2388 3097 2138 3097 
Q 1578 3097 1268 2742 
Q 959 2388 959 1747 
Q 959 1106 1268 751 
Q 1578 397 2138 397 
Q 2388 397 2633 464 
Q 2878 531 3122 666 
L 3122 134 
Q 2881 22 2623 -34 
Q 2366 -91 2075 -91 
Q 1284 -91 818 406 
Q 353 903 353 1747 
Q 353 2603 823 3093 
Q 1294 3584 2113 3584 
Q 2378 3584 2631 3529 
Q 2884 3475 3122 3366 
z
" transform="scale(0.015625)"/>
      <path id="DejaVuSans-72" d="M 2631 2963 
Q 2534 3019 2420 3045 
Q 2306 3072 2169 3072 
Q 1681 3072 1420 2755 
Q 1159 2438 1159 1844 
L 1159 0 
L 581 0 
L 581 3500 
L 1159 3500 
L 1159 2956 
Q 1341 3275 1631 3429 
Q 1922 3584 2338 3584 
Q 2397 3584 2469 3576 
Q 2541 3569 2628 3553 
L 2631 2963 
z
" transform="scale(0.015625)"/>
      <path id="DejaVuSans-73" d="M 2834 3397 
L 2834 2853 
Q 2591 2978 2328 3040 
Q 2066 3103 1784 3103 
Q 1356 3103 1142 2972 
Q 928 2841 928 2578 
Q 928 2378 1081 2264 
Q 1234 2150 1697 2047 
L 1894 2003 
Q 2506 1872 2764 1633 
Q 3022 1394 3022 966 
Q 3022 478 2636 193 
Q 2250 -91 1575 -91 
Q 1294 -91 989 -36 
Q 684 19 347 128 
L 347 722 
Q 666 556 975 473 
Q 1284 391 1588 391 
Q 1994 391 2212 530 
Q 2431 669 2431 922 
Q 2431 1156 2273 1281 
Q 2116 1406 1581 1522 
L 1381 1569 
Q 847 1681 609 1914 
Q 372 2147 372 2553 
Q 372 3047 722 3315 
Q 1072 3584 1716 3584 
Q 2034 3584 2315 3537 
Q 2597 3491 2834 3397 
z
" transform="scale(0.015625)"/>
      <path id="DejaVuSans-2d" d="M 313 2009 
L 1997 2009 
L 1997 1497 
L 313 1497 
L 313 2009 
z
" transform="scale(0.015625)"/>
     </defs>
     <use xlink:href="#DejaVuSans-38"/>
     <use xlink:href="#DejaVuSans-2e" x="63.623047"/>
     <use xlink:href="#DejaVuSans-32" x="95.410156"/>
     <use xlink:href="#DejaVuSans-5f" x="159.033203"/>
     <use xlink:href="#DejaVuSans-63" x="209.033203"/>
     <use xlink:href="#DejaVuSans-72" x="264.013672"/>
     <use xlink:href="#DejaVuSans-6f" x="302.876953"/>
     <use xlink:href="#DejaVuSans-73" x="364.058594"/>
     <use xlink:href="#DejaVuSans-73" x="416.158203"/>
     <use xlink:href="#DejaVuSans-5f" x="468.257812"/>
     <use xlink:href="#DejaVuSans-2d" x="518.257812"/>
     <use xlink:href="#DejaVuSans-34" x="554.341797"/>
     <use xlink:href="#DejaVuSans-35" x="617.964844"/>
     <use xlink:href="#DejaVuSans-2e" x="681.587891"/>
     <use xlink:href="#DejaVuSans-30" x="713.375"/>
    </g>
   </g>
  </g>
 </g>
 <defs>
  <clipPath id="pcc27d500df">
   <rect x="34.240625" y="22.10625" width="357.12" height="266.112"/>
  </clipPath>
 </defs>
</svg>
