<?xml version="1.0" encoding="utf-8" standalone="no"?>
<!DOCTYPE svg PUBLIC "-//W3C//DTD SVG 1.1//EN"
  "http://www.w3.org/Graphics/SVG/1.1/DTD/svg11.dtd">
<svg xmlns:xlink="http://www.w3.org/1999/xlink" width="408.104375pt" height="325.7745pt" viewBox="0 0 408.104375 325.7745" xmlns="http://www.w3.org/2000/svg" version="1.1">
 <metadata>
  <rdf:RDF xmlns:dc="http://purl.org/dc/elements/1.1/" xmlns:cc="http://creativecommons.org/ns#" xmlns:rdf="http://www.w3.org/1999/02/22-rdf-syntax-ns#">
   <cc:Work>
    <dc:type rdf:resource="http://purl.org/dc/dcmitype/StillImage"/>
    <dc:date>2024-07-12T12:17:14.522386</dc:date>
    <dc:format>image/svg+xml</dc:format>
    <dc:creator>
     <cc:Agent>
      <dc:title>Matplotlib v3.5.3, https://matplotlib.org/</dc:title>
     </cc:Agent>
    </dc:creator>
   </cc:Work>
  </rdf:RDF>
 </metadata>
 <defs>
  <style type="text/css">*{stroke-linejoin: round; stroke-linecap: butt}</style>
 </defs>
 <g id="figure_1">
  <g id="patch_1">
   <path d="M 0 325.7745 
L 408.104375 325.7745 
L 408.104375 0 
L 0 0 
z
" style="fill: #ffffff"/>
  </g>
  <g id="axes_1">
   <g id="patch_2">
    <path d="M 34.240625 288.21825 
L 391.360625 288.21825 
L 391.360625 22.10625 
L 34.240625 22.10625 
z
" style="fill: #ffffff"/>
   </g>
   <g id="matplotlib.axis_1">
    <g id="xtick_1">
     <g id="line2d_1">
      <defs>
       <path id="m0f3c28cc52" d="M 0 0 
L 0 3.5 
" style="stroke: #000000; stroke-width: 0.8"/>
      </defs>
      <g>
       <use xlink:href="#m0f3c28cc52" x="34.240625" y="288.21825" style="stroke: #000000; stroke-width: 0.8"/>
      </g>
     </g>
     <g id="text_1">
      <!-- 0 -->
      <g transform="translate(31.059375 302.816687)scale(0.1 -0.1)">
       <defs>
        <path id="DejaVuSans-30" d="M 2034 4250 
Q 1547 4250 1301 3770 
Q 1056 3291 1056 2328 
Q 1056 1369 1301 889 
Q 1547 409 2034 409 
Q 2525 409 2770 889 
Q 3016 1369 3016 2328 
Q 3016 3291 2770 3770 
Q 2525 4250 2034 4250 
z
M 2034 4750 
Q 2819 4750 3233 4129 
Q 3647 3509 3647 2328 
Q 3647 1150 3233 529 
Q 2819 -91 2034 -91 
Q 1250 -91 836 529 
Q 422 1150 422 2328 
Q 422 3509 836 4129 
Q 1250 4750 2034 4750 
z
" transform="scale(0.015625)"/>
       </defs>
       <use xlink:href="#DejaVuSans-30"/>
      </g>
     </g>
    </g>
    <g id="xtick_2">
     <g id="line2d_2">
      <g>
       <use xlink:href="#m0f3c28cc52" x="105.664625" y="288.21825" style="stroke: #000000; stroke-width: 0.8"/>
      </g>
     </g>
     <g id="text_2">
      <!-- 20 -->
      <g transform="translate(99.302125 302.816687)scale(0.1 -0.1)">
       <defs>
        <path id="DejaVuSans-32" d="M 1228 531 
L 3431 531 
L 3431 0 
L 469 0 
L 469 531 
Q 828 903 1448 1529 
Q 2069 2156 2228 2338 
Q 2531 2678 2651 2914 
Q 2772 3150 2772 3378 
Q 2772 3750 2511 3984 
Q 2250 4219 1831 4219 
Q 1534 4219 1204 4116 
Q 875 4013 500 3803 
L 500 4441 
Q 881 4594 1212 4672 
Q 1544 4750 1819 4750 
Q 2544 4750 2975 4387 
Q 3406 4025 3406 3419 
Q 3406 3131 3298 2873 
Q 3191 2616 2906 2266 
Q 2828 2175 2409 1742 
Q 1991 1309 1228 531 
z
" transform="scale(0.015625)"/>
       </defs>
       <use xlink:href="#DejaVuSans-32"/>
       <use xlink:href="#DejaVuSans-30" x="63.623047"/>
      </g>
     </g>
    </g>
    <g id="xtick_3">
     <g id="line2d_3">
      <g>
       <use xlink:href="#m0f3c28cc52" x="177.088625" y="288.21825" style="stroke: #000000; stroke-width: 0.8"/>
      </g>
     </g>
     <g id="text_3">
      <!-- 40 -->
      <g transform="translate(170.726125 302.816687)scale(0.1 -0.1)">
       <defs>
        <path id="DejaVuSans-34" d="M 2419 4116 
L 825 1625 
L 2419 1625 
L 2419 4116 
z
M 2253 4666 
L 3047 4666 
L 3047 1625 
L 3713 1625 
L 3713 1100 
L 3047 1100 
L 3047 0 
L 2419 0 
L 2419 1100 
L 313 1100 
L 313 1709 
L 2253 4666 
z
" transform="scale(0.015625)"/>
       </defs>
       <use xlink:href="#DejaVuSans-34"/>
       <use xlink:href="#DejaVuSans-30" x="63.623047"/>
      </g>
     </g>
    </g>
    <g id="xtick_4">
     <g id="line2d_4">
      <g>
       <use xlink:href="#m0f3c28cc52" x="248.512625" y="288.21825" style="stroke: #000000; stroke-width: 0.8"/>
      </g>
     </g>
     <g id="text_4">
      <!-- 60 -->
      <g transform="translate(242.150125 302.816687)scale(0.1 -0.1)">
       <defs>
        <path id="DejaVuSans-36" d="M 2113 2584 
Q 1688 2584 1439 2293 
Q 1191 2003 1191 1497 
Q 1191 994 1439 701 
Q 1688 409 2113 409 
Q 2538 409 2786 701 
Q 3034 994 3034 1497 
Q 3034 2003 2786 2293 
Q 2538 2584 2113 2584 
z
M 3366 4563 
L 3366 3988 
Q 3128 4100 2886 4159 
Q 2644 4219 2406 4219 
Q 1781 4219 1451 3797 
Q 1122 3375 1075 2522 
Q 1259 2794 1537 2939 
Q 1816 3084 2150 3084 
Q 2853 3084 3261 2657 
Q 3669 2231 3669 1497 
Q 3669 778 3244 343 
Q 2819 -91 2113 -91 
Q 1303 -91 875 529 
Q 447 1150 447 2328 
Q 447 3434 972 4092 
Q 1497 4750 2381 4750 
Q 2619 4750 2861 4703 
Q 3103 4656 3366 4563 
z
" transform="scale(0.015625)"/>
       </defs>
       <use xlink:href="#DejaVuSans-36"/>
       <use xlink:href="#DejaVuSans-30" x="63.623047"/>
      </g>
     </g>
    </g>
    <g id="xtick_5">
     <g id="line2d_5">
      <g>
       <use xlink:href="#m0f3c28cc52" x="319.936625" y="288.21825" style="stroke: #000000; stroke-width: 0.8"/>
      </g>
     </g>
     <g id="text_5">
      <!-- 80 -->
      <g transform="translate(313.574125 302.816687)scale(0.1 -0.1)">
       <defs>
        <path id="DejaVuSans-38" d="M 2034 2216 
Q 1584 2216 1326 1975 
Q 1069 1734 1069 1313 
Q 1069 891 1326 650 
Q 1584 409 2034 409 
Q 2484 409 2743 651 
Q 3003 894 3003 1313 
Q 3003 1734 2745 1975 
Q 2488 2216 2034 2216 
z
M 1403 2484 
Q 997 2584 770 2862 
Q 544 3141 544 3541 
Q 544 4100 942 4425 
Q 1341 4750 2034 4750 
Q 2731 4750 3128 4425 
Q 3525 4100 3525 3541 
Q 3525 3141 3298 2862 
Q 3072 2584 2669 2484 
Q 3125 2378 3379 2068 
Q 3634 1759 3634 1313 
Q 3634 634 3220 271 
Q 2806 -91 2034 -91 
Q 1263 -91 848 271 
Q 434 634 434 1313 
Q 434 1759 690 2068 
Q 947 2378 1403 2484 
z
M 1172 3481 
Q 1172 3119 1398 2916 
Q 1625 2713 2034 2713 
Q 2441 2713 2670 2916 
Q 2900 3119 2900 3481 
Q 2900 3844 2670 4047 
Q 2441 4250 2034 4250 
Q 1625 4250 1398 4047 
Q 1172 3844 1172 3481 
z
" transform="scale(0.015625)"/>
       </defs>
       <use xlink:href="#DejaVuSans-38"/>
       <use xlink:href="#DejaVuSans-30" x="63.623047"/>
      </g>
     </g>
    </g>
    <g id="xtick_6">
     <g id="line2d_6">
      <g>
       <use xlink:href="#m0f3c28cc52" x="391.360625" y="288.21825" style="stroke: #000000; stroke-width: 0.8"/>
      </g>
     </g>
     <g id="text_6">
      <!-- 100 -->
      <g transform="translate(381.816875 302.816687)scale(0.1 -0.1)">
       <defs>
        <path id="DejaVuSans-31" d="M 794 531 
L 1825 531 
L 1825 4091 
L 703 3866 
L 703 4441 
L 1819 4666 
L 2450 4666 
L 2450 531 
L 3481 531 
L 3481 0 
L 794 0 
L 794 531 
z
" transform="scale(0.015625)"/>
       </defs>
       <use xlink:href="#DejaVuSans-31"/>
       <use xlink:href="#DejaVuSans-30" x="63.623047"/>
       <use xlink:href="#DejaVuSans-30" x="127.246094"/>
      </g>
     </g>
    </g>
    <g id="text_7">
     <!-- axialRotation -->
     <g transform="translate(180.024844 316.494812)scale(0.1 -0.1)">
      <defs>
       <path id="DejaVuSans-61" d="M 2194 1759 
Q 1497 1759 1228 1600 
Q 959 1441 959 1056 
Q 959 750 1161 570 
Q 1363 391 1709 391 
Q 2188 391 2477 730 
Q 2766 1069 2766 1631 
L 2766 1759 
L 2194 1759 
z
M 3341 1997 
L 3341 0 
L 2766 0 
L 2766 531 
Q 2569 213 2275 61 
Q 1981 -91 1556 -91 
Q 1019 -91 701 211 
Q 384 513 384 1019 
Q 384 1609 779 1909 
Q 1175 2209 1959 2209 
L 2766 2209 
L 2766 2266 
Q 2766 2663 2505 2880 
Q 2244 3097 1772 3097 
Q 1472 3097 1187 3025 
Q 903 2953 641 2809 
L 641 3341 
Q 956 3463 1253 3523 
Q 1550 3584 1831 3584 
Q 2591 3584 2966 3190 
Q 3341 2797 3341 1997 
z
" transform="scale(0.015625)"/>
       <path id="DejaVuSans-78" d="M 3513 3500 
L 2247 1797 
L 3578 0 
L 2900 0 
L 1881 1375 
L 863 0 
L 184 0 
L 1544 1831 
L 300 3500 
L 978 3500 
L 1906 2253 
L 2834 3500 
L 3513 3500 
z
" transform="scale(0.015625)"/>
       <path id="DejaVuSans-69" d="M 603 3500 
L 1178 3500 
L 1178 0 
L 603 0 
L 603 3500 
z
M 603 4863 
L 1178 4863 
L 1178 4134 
L 603 4134 
L 603 4863 
z
" transform="scale(0.015625)"/>
       <path id="DejaVuSans-6c" d="M 603 4863 
L 1178 4863 
L 1178 0 
L 603 0 
L 603 4863 
z
" transform="scale(0.015625)"/>
       <path id="DejaVuSans-52" d="M 2841 2188 
Q 3044 2119 3236 1894 
Q 3428 1669 3622 1275 
L 4263 0 
L 3584 0 
L 2988 1197 
Q 2756 1666 2539 1819 
Q 2322 1972 1947 1972 
L 1259 1972 
L 1259 0 
L 628 0 
L 628 4666 
L 2053 4666 
Q 2853 4666 3247 4331 
Q 3641 3997 3641 3322 
Q 3641 2881 3436 2590 
Q 3231 2300 2841 2188 
z
M 1259 4147 
L 1259 2491 
L 2053 2491 
Q 2509 2491 2742 2702 
Q 2975 2913 2975 3322 
Q 2975 3731 2742 3939 
Q 2509 4147 2053 4147 
L 1259 4147 
z
" transform="scale(0.015625)"/>
       <path id="DejaVuSans-6f" d="M 1959 3097 
Q 1497 3097 1228 2736 
Q 959 2375 959 1747 
Q 959 1119 1226 758 
Q 1494 397 1959 397 
Q 2419 397 2687 759 
Q 2956 1122 2956 1747 
Q 2956 2369 2687 2733 
Q 2419 3097 1959 3097 
z
M 1959 3584 
Q 2709 3584 3137 3096 
Q 3566 2609 3566 1747 
Q 3566 888 3137 398 
Q 2709 -91 1959 -91 
Q 1206 -91 779 398 
Q 353 888 353 1747 
Q 353 2609 779 3096 
Q 1206 3584 1959 3584 
z
" transform="scale(0.015625)"/>
       <path id="DejaVuSans-74" d="M 1172 4494 
L 1172 3500 
L 2356 3500 
L 2356 3053 
L 1172 3053 
L 1172 1153 
Q 1172 725 1289 603 
Q 1406 481 1766 481 
L 2356 481 
L 2356 0 
L 1766 0 
Q 1100 0 847 248 
Q 594 497 594 1153 
L 594 3053 
L 172 3053 
L 172 3500 
L 594 3500 
L 594 4494 
L 1172 4494 
z
" transform="scale(0.015625)"/>
       <path id="DejaVuSans-6e" d="M 3513 2113 
L 3513 0 
L 2938 0 
L 2938 2094 
Q 2938 2591 2744 2837 
Q 2550 3084 2163 3084 
Q 1697 3084 1428 2787 
Q 1159 2491 1159 1978 
L 1159 0 
L 581 0 
L 581 3500 
L 1159 3500 
L 1159 2956 
Q 1366 3272 1645 3428 
Q 1925 3584 2291 3584 
Q 2894 3584 3203 3211 
Q 3513 2838 3513 2113 
z
" transform="scale(0.015625)"/>
      </defs>
      <use xlink:href="#DejaVuSans-61"/>
      <use xlink:href="#DejaVuSans-78" x="61.279297"/>
      <use xlink:href="#DejaVuSans-69" x="120.458984"/>
      <use xlink:href="#DejaVuSans-61" x="148.242188"/>
      <use xlink:href="#DejaVuSans-6c" x="209.521484"/>
      <use xlink:href="#DejaVuSans-52" x="237.304688"/>
      <use xlink:href="#DejaVuSans-6f" x="302.287109"/>
      <use xlink:href="#DejaVuSans-74" x="363.46875"/>
      <use xlink:href="#DejaVuSans-61" x="402.677734"/>
      <use xlink:href="#DejaVuSans-74" x="463.957031"/>
      <use xlink:href="#DejaVuSans-69" x="503.166016"/>
      <use xlink:href="#DejaVuSans-6f" x="530.949219"/>
      <use xlink:href="#DejaVuSans-6e" x="592.130859"/>
     </g>
    </g>
   </g>
   <g id="matplotlib.axis_2">
    <g id="ytick_1">
     <g id="line2d_7">
      <defs>
       <path id="mb46604da7f" d="M 0 0 
L -3.5 0 
" style="stroke: #000000; stroke-width: 0.8"/>
      </defs>
      <g>
       <use xlink:href="#mb46604da7f" x="34.240625" y="288.21825" style="stroke: #000000; stroke-width: 0.8"/>
      </g>
     </g>
     <g id="text_8">
      <!-- 0 -->
      <g transform="translate(20.878125 292.017469)scale(0.1 -0.1)">
       <use xlink:href="#DejaVuSans-30"/>
      </g>
     </g>
    </g>
    <g id="ytick_2">
     <g id="line2d_8">
      <g>
       <use xlink:href="#mb46604da7f" x="34.240625" y="243.86625" style="stroke: #000000; stroke-width: 0.8"/>
      </g>
     </g>
     <g id="text_9">
      <!-- 1 -->
      <g transform="translate(20.878125 247.665469)scale(0.1 -0.1)">
       <use xlink:href="#DejaVuSans-31"/>
      </g>
     </g>
    </g>
    <g id="ytick_3">
     <g id="line2d_9">
      <g>
       <use xlink:href="#mb46604da7f" x="34.240625" y="199.51425" style="stroke: #000000; stroke-width: 0.8"/>
      </g>
     </g>
     <g id="text_10">
      <!-- 2 -->
      <g transform="translate(20.878125 203.313469)scale(0.1 -0.1)">
       <use xlink:href="#DejaVuSans-32"/>
      </g>
     </g>
    </g>
    <g id="ytick_4">
     <g id="line2d_10">
      <g>
       <use xlink:href="#mb46604da7f" x="34.240625" y="155.16225" style="stroke: #000000; stroke-width: 0.8"/>
      </g>
     </g>
     <g id="text_11">
      <!-- 3 -->
      <g transform="translate(20.878125 158.961469)scale(0.1 -0.1)">
       <defs>
        <path id="DejaVuSans-33" d="M 2597 2516 
Q 3050 2419 3304 2112 
Q 3559 1806 3559 1356 
Q 3559 666 3084 287 
Q 2609 -91 1734 -91 
Q 1441 -91 1130 -33 
Q 819 25 488 141 
L 488 750 
Q 750 597 1062 519 
Q 1375 441 1716 441 
Q 2309 441 2620 675 
Q 2931 909 2931 1356 
Q 2931 1769 2642 2001 
Q 2353 2234 1838 2234 
L 1294 2234 
L 1294 2753 
L 1863 2753 
Q 2328 2753 2575 2939 
Q 2822 3125 2822 3475 
Q 2822 3834 2567 4026 
Q 2313 4219 1838 4219 
Q 1578 4219 1281 4162 
Q 984 4106 628 3988 
L 628 4550 
Q 988 4650 1302 4700 
Q 1616 4750 1894 4750 
Q 2613 4750 3031 4423 
Q 3450 4097 3450 3541 
Q 3450 3153 3228 2886 
Q 3006 2619 2597 2516 
z
" transform="scale(0.015625)"/>
       </defs>
       <use xlink:href="#DejaVuSans-33"/>
      </g>
     </g>
    </g>
    <g id="ytick_5">
     <g id="line2d_11">
      <g>
       <use xlink:href="#mb46604da7f" x="34.240625" y="110.81025" style="stroke: #000000; stroke-width: 0.8"/>
      </g>
     </g>
     <g id="text_12">
      <!-- 4 -->
      <g transform="translate(20.878125 114.609469)scale(0.1 -0.1)">
       <use xlink:href="#DejaVuSans-34"/>
      </g>
     </g>
    </g>
    <g id="ytick_6">
     <g id="line2d_12">
      <g>
       <use xlink:href="#mb46604da7f" x="34.240625" y="66.45825" style="stroke: #000000; stroke-width: 0.8"/>
      </g>
     </g>
     <g id="text_13">
      <!-- 5 -->
      <g transform="translate(20.878125 70.257469)scale(0.1 -0.1)">
       <defs>
        <path id="DejaVuSans-35" d="M 691 4666 
L 3169 4666 
L 3169 4134 
L 1269 4134 
L 1269 2991 
Q 1406 3038 1543 3061 
Q 1681 3084 1819 3084 
Q 2600 3084 3056 2656 
Q 3513 2228 3513 1497 
Q 3513 744 3044 326 
Q 2575 -91 1722 -91 
Q 1428 -91 1123 -41 
Q 819 9 494 109 
L 494 744 
Q 775 591 1075 516 
Q 1375 441 1709 441 
Q 2250 441 2565 725 
Q 2881 1009 2881 1497 
Q 2881 1984 2565 2268 
Q 2250 2553 1709 2553 
Q 1456 2553 1204 2497 
Q 953 2441 691 2322 
L 691 4666 
z
" transform="scale(0.015625)"/>
       </defs>
       <use xlink:href="#DejaVuSans-35"/>
      </g>
     </g>
    </g>
    <g id="ytick_7">
     <g id="line2d_13">
      <g>
       <use xlink:href="#mb46604da7f" x="34.240625" y="22.10625" style="stroke: #000000; stroke-width: 0.8"/>
      </g>
     </g>
     <g id="text_14">
      <!-- 6 -->
      <g transform="translate(20.878125 25.905469)scale(0.1 -0.1)">
       <use xlink:href="#DejaVuSans-36"/>
      </g>
     </g>
    </g>
    <g id="text_15">
     <!-- zShift -->
     <g transform="translate(14.798438 169.151312)rotate(-90)scale(0.1 -0.1)">
      <defs>
       <path id="DejaVuSans-7a" d="M 353 3500 
L 3084 3500 
L 3084 2975 
L 922 459 
L 3084 459 
L 3084 0 
L 275 0 
L 275 525 
L 2438 3041 
L 353 3041 
L 353 3500 
z
" transform="scale(0.015625)"/>
       <path id="DejaVuSans-53" d="M 3425 4513 
L 3425 3897 
Q 3066 4069 2747 4153 
Q 2428 4238 2131 4238 
Q 1616 4238 1336 4038 
Q 1056 3838 1056 3469 
Q 1056 3159 1242 3001 
Q 1428 2844 1947 2747 
L 2328 2669 
Q 3034 2534 3370 2195 
Q 3706 1856 3706 1288 
Q 3706 609 3251 259 
Q 2797 -91 1919 -91 
Q 1588 -91 1214 -16 
Q 841 59 441 206 
L 441 856 
Q 825 641 1194 531 
Q 1563 422 1919 422 
Q 2459 422 2753 634 
Q 3047 847 3047 1241 
Q 3047 1584 2836 1778 
Q 2625 1972 2144 2069 
L 1759 2144 
Q 1053 2284 737 2584 
Q 422 2884 422 3419 
Q 422 4038 858 4394 
Q 1294 4750 2059 4750 
Q 2388 4750 2728 4690 
Q 3069 4631 3425 4513 
z
" transform="scale(0.015625)"/>
       <path id="DejaVuSans-68" d="M 3513 2113 
L 3513 0 
L 2938 0 
L 2938 2094 
Q 2938 2591 2744 2837 
Q 2550 3084 2163 3084 
Q 1697 3084 1428 2787 
Q 1159 2491 1159 1978 
L 1159 0 
L 581 0 
L 581 4863 
L 1159 4863 
L 1159 2956 
Q 1366 3272 1645 3428 
Q 1925 3584 2291 3584 
Q 2894 3584 3203 3211 
Q 3513 2838 3513 2113 
z
" transform="scale(0.015625)"/>
       <path id="DejaVuSans-66" d="M 2375 4863 
L 2375 4384 
L 1825 4384 
Q 1516 4384 1395 4259 
Q 1275 4134 1275 3809 
L 1275 3500 
L 2222 3500 
L 2222 3053 
L 1275 3053 
L 1275 0 
L 697 0 
L 697 3053 
L 147 3053 
L 147 3500 
L 697 3500 
L 697 3744 
Q 697 4328 969 4595 
Q 1241 4863 1831 4863 
L 2375 4863 
z
" transform="scale(0.015625)"/>
      </defs>
      <use xlink:href="#DejaVuSans-7a"/>
      <use xlink:href="#DejaVuSans-53" x="52.490234"/>
      <use xlink:href="#DejaVuSans-68" x="115.966797"/>
      <use xlink:href="#DejaVuSans-69" x="179.345703"/>
      <use xlink:href="#DejaVuSans-66" x="207.128906"/>
      <use xlink:href="#DejaVuSans-74" x="240.583984"/>
     </g>
    </g>
   </g>
   <g id="PathCollection_1"/>
   <g id="PathCollection_2">
    <path d="M 54.383568 22.10625 
L 55.398571 24.76737 
L 55.774961 26.036614 
L 56.179955 27.42849 
L 56.776605 30.08961 
L 57.220765 32.75073 
L 57.547119 35.41185 
L 57.560561 35.561016 
L 57.794054 38.07297 
L 57.969704 40.73409 
L 58.091564 43.39521 
L 58.184748 46.49985 
L 58.235268 49.16097 
L 58.267568 51.82209 
L 58.287814 54.48321 
L 58.300367 57.14433 
L 58.308108 59.80545 
L 58.312802 62.46657 
L 58.315479 65.12769 
L 58.316773 67.78881 
L 58.317166 70.44993 
L 58.317101 73.11105 
L 58.316965 75.77217 
L 58.317015 78.43329 
L 58.317318 81.09441 
L 58.317757 83.75553 
L 58.318116 86.41665 
L 58.318195 89.52129 
L 58.317935 92.18241 
L 58.317516 94.84353 
L 58.317166 97.50465 
L 58.317076 100.16577 
L 58.317293 102.82689 
L 58.317701 105.48801 
L 58.318078 108.14913 
L 58.31822 110.81025 
L 58.31805 113.47137 
L 58.31766 116.13249 
L 58.317261 118.79361 
L 58.31707 121.45473 
L 58.317191 124.11585 
L 58.317557 126.77697 
L 58.31797 129.43809 
L 58.318207 132.09921 
L 58.318098 135.20385 
L 58.317732 137.86497 
L 58.317318 140.52609 
L 58.317081 143.18721 
L 58.31715 145.84833 
L 58.317486 148.50945 
L 58.317908 151.17057 
L 58.318187 153.83169 
L 58.318172 156.49281 
L 58.317871 159.15393 
L 58.317447 161.81505 
L 58.31713 164.47617 
L 58.317092 167.13729 
L 58.317353 169.79841 
L 58.317772 172.45953 
L 58.318122 175.12065 
L 58.318197 178.22529 
L 58.317935 180.88641 
L 58.317516 183.54753 
L 58.317166 186.20865 
L 58.317076 188.86977 
L 58.317293 191.53089 
L 58.317701 194.19201 
L 58.318078 196.85313 
L 58.31822 199.51425 
L 58.31805 202.17537 
L 58.31766 204.83649 
L 58.317261 207.49761 
L 58.31707 210.15873 
L 58.31719 212.81985 
L 58.317556 215.48097 
L 58.317969 218.14209 
L 58.318205 220.80321 
L 58.318091 223.90785 
L 58.317715 226.56897 
L 58.317281 229.23009 
L 58.316999 231.89121 
L 58.316972 234.55233 
L 58.317116 237.21345 
L 58.317155 239.87457 
L 58.316696 242.53569 
L 58.315293 245.19681 
L 58.312457 247.85793 
L 58.307528 250.51905 
L 58.299422 253.18017 
L 58.286286 255.84129 
L 58.265115 258.50241 
L 58.231396 261.16353 
L 58.178778 263.82465 
L 58.082016 266.92929 
L 57.955848 269.59041 
L 57.774461 272.25153 
L 57.560561 274.489332 
L 57.521333 274.91265 
L 57.185983 277.57377 
L 56.730592 280.23489 
L 56.120134 282.89601 
L 55.774961 284.062923 
L 55.324657 285.55713 
L 54.291043 288.21825 
" clip-path="url(#pd1b28083cf)" style="fill: none; stroke: #dbe9f6; stroke-width: 1.5"/>
    <path d="M 189.425662 288.21825 
L 188.587889 285.931189 
L 188.448084 285.55713 
L 187.536303 282.89601 
L 186.766577 280.448688 
L 186.696273 280.23489 
L 185.812855 277.57377 
L 184.980977 275.108774 
L 184.91118 274.91265 
L 183.886871 272.25153 
L 183.195377 270.569402 
L 182.77344 269.59041 
L 181.550399 266.92929 
L 181.409777 266.644305 
L 179.987298 263.82465 
L 179.588465 263.050598 
L 178.594132 261.16353 
L 177.802865 259.630254 
L 177.211797 258.50241 
L 176.017265 256.085529 
L 175.894954 255.84129 
L 174.654994 253.18017 
L 174.231665 252.153234 
L 173.545282 250.51905 
L 172.593281 247.85793 
L 172.410353 247.256747 
L 171.761772 245.19681 
L 171.082582 242.53569 
L 170.624753 240.275486 
L 170.539032 239.87457 
L 170.082079 237.21345 
L 169.733007 234.55233 
L 169.47073 231.89121 
L 169.277266 229.23009 
L 169.13748 226.56897 
L 169.038802 223.90785 
L 168.961996 220.80321 
L 168.919652 218.14209 
L 168.892231 215.48097 
L 168.874878 212.81985 
L 168.86405 210.15873 
L 168.857322 207.49761 
L 168.853163 204.83649 
L 168.850683 202.17537 
L 168.849365 199.51425 
L 168.848852 196.85313 
L 168.848821 194.19201 
L 168.848963 191.53089 
L 168.849027 188.86977 
L 168.848888 186.20865 
L 168.848577 183.54753 
L 168.84824 180.88641 
L 168.84805 178.22529 
L 168.848138 175.12065 
L 168.848429 172.45953 
L 168.848756 169.79841 
L 168.848942 167.13729 
L 168.848885 164.47617 
L 168.848617 161.81505 
L 168.848283 159.15393 
L 168.848064 156.49281 
L 168.848081 153.83169 
L 168.848326 151.17057 
L 168.848674 148.50945 
L 168.848947 145.84833 
L 168.849026 143.18721 
L 168.848921 140.52609 
L 168.848797 137.86497 
L 168.848927 135.20385 
L 168.849822 132.09921 
L 168.8516 129.43809 
L 168.854733 126.77697 
L 168.859869 124.11585 
L 168.868148 121.45473 
L 168.881458 118.79361 
L 168.902688 116.13249 
L 168.935929 113.47137 
L 168.98665 110.81025 
L 169.061884 108.14913 
L 169.170439 105.48801 
L 169.323159 102.82689 
L 169.533208 100.16577 
L 169.816353 97.50465 
L 170.191228 94.84353 
L 170.624753 92.472009 
L 170.674629 92.18241 
L 171.243963 89.52129 
L 172.09804 86.41665 
L 172.410353 85.482168 
L 172.968808 83.75553 
L 173.994963 81.09441 
L 174.231665 80.550535 
L 175.135797 78.43329 
L 176.017265 76.59294 
L 176.404933 75.77217 
L 177.754402 73.11105 
L 177.802865 73.017396 
L 179.104651 70.44993 
L 179.588465 69.496843 
L 180.430308 67.78881 
L 181.409777 65.725098 
L 181.682189 65.12769 
L 182.786283 62.46657 
L 183.195377 61.355161 
L 183.731928 59.80545 
L 184.515753 57.14433 
L 184.980977 55.233822 
L 185.150206 54.48321 
L 185.625537 51.82209 
L 186.001324 49.16097 
L 186.30086 46.49985 
L 186.589056 43.39521 
L 186.766577 41.297848 
L 186.81032 40.73409 
L 187.023337 38.07297 
L 187.270045 35.41185 
L 187.576841 32.75073 
L 187.972555 30.08961 
L 188.49028 27.42849 
L 188.587889 27.029195 
L 189.119776 24.76737 
L 189.934001 22.10625 
" clip-path="url(#pd1b28083cf)" style="fill: none; stroke: #dbe9f6; stroke-width: 1.5"/>
   </g>
   <g id="PathCollection_3">
    <path d="M 34.240625 26.21482 
L 36.026225 26.457566 
L 37.847537 27.232695 
L 38.121991 27.42849 
L 39.633137 28.769971 
L 40.68255 30.08961 
L 41.418737 31.288173 
L 42.12256 32.75073 
L 43.07664 35.41185 
L 43.204337 35.897504 
L 43.686373 38.07297 
L 44.106101 40.73409 
L 44.397396 43.39521 
L 44.620257 46.49985 
L 44.741158 49.16097 
L 44.818492 51.82209 
L 44.866986 54.48321 
L 44.897056 57.14433 
L 44.915602 59.80545 
L 44.926857 62.46657 
L 44.933292 65.12769 
L 44.936422 67.78881 
L 44.937396 70.44993 
L 44.937258 73.11105 
L 44.936929 75.77217 
L 44.937032 78.43329 
L 44.937736 81.09441 
L 44.938772 83.75553 
L 44.939631 86.41665 
L 44.939841 89.52129 
L 44.939242 92.18241 
L 44.938255 94.84353 
L 44.937417 97.50465 
L 44.937183 100.16577 
L 44.93768 102.82689 
L 44.938639 105.48801 
L 44.93954 108.14913 
L 44.939895 110.81025 
L 44.939511 113.47137 
L 44.938596 116.13249 
L 44.937647 118.79361 
L 44.937177 121.45473 
L 44.937442 124.11585 
L 44.938298 126.77697 
L 44.93928 129.43809 
L 44.939857 132.09921 
L 44.939622 135.20385 
L 44.938766 137.86497 
L 44.937784 140.52609 
L 44.937207 143.18721 
L 44.937348 145.84833 
L 44.938132 148.50945 
L 44.939132 151.17057 
L 44.939807 153.83169 
L 44.939791 156.49281 
L 44.939093 159.15393 
L 44.93809 161.81505 
L 44.937327 164.47617 
L 44.937218 167.13729 
L 44.93782 169.79841 
L 44.938809 172.45953 
L 44.939647 175.12065 
L 44.939846 178.22529 
L 44.939244 180.88641 
L 44.938255 183.54753 
L 44.937417 186.20865 
L 44.937183 188.86977 
L 44.93768 191.53089 
L 44.938639 194.19201 
L 44.93954 196.85313 
L 44.939895 199.51425 
L 44.939511 202.17537 
L 44.938596 204.83649 
L 44.937647 207.49761 
L 44.937177 210.15873 
L 44.937442 212.81985 
L 44.938297 215.48097 
L 44.939278 218.14209 
L 44.939851 220.80321 
L 44.939605 223.90785 
L 44.938728 226.56897 
L 44.937697 229.23009 
L 44.937015 231.89121 
L 44.936938 234.55233 
L 44.937273 237.21345 
L 44.937384 239.87457 
L 44.936341 242.53569 
L 44.933096 245.19681 
L 44.926494 247.85793 
L 44.914992 250.51905 
L 44.896065 253.18017 
L 44.865386 255.84129 
L 44.815936 258.50241 
L 44.737146 261.16353 
L 44.614134 263.82465 
L 44.387783 266.92929 
L 44.092492 269.59041 
L 43.667817 272.25153 
L 43.204337 274.324248 
L 43.0484 274.91265 
L 42.08812 277.57377 
L 41.418737 278.960285 
L 40.635637 280.23489 
L 39.633137 281.498117 
L 38.070882 282.89601 
L 37.847537 283.056918 
L 36.026225 283.848679 
L 34.240625 284.10968 
" clip-path="url(#pd1b28083cf)" style="fill: none; stroke: #bad6eb; stroke-width: 1.5"/>
    <path d="M 200.249312 288.21825 
L 199.337201 286.389345 
L 198.937053 285.55713 
L 197.833638 282.89601 
L 197.551601 282.128798 
L 196.858698 280.23489 
L 195.961558 277.57377 
L 195.766001 276.98463 
L 195.066183 274.91265 
L 194.145481 272.25153 
L 193.944689 271.709771 
L 193.137394 269.59041 
L 192.159089 267.210151 
L 192.040264 266.92929 
L 190.610823 263.82465 
L 190.373489 263.342895 
L 189.278873 261.16353 
L 188.587889 259.828428 
L 187.892486 258.50241 
L 186.766577 256.344218 
L 186.502461 255.84129 
L 185.156279 253.18017 
L 184.980977 252.81014 
L 183.898 250.51905 
L 183.195377 248.854338 
L 182.775343 247.85793 
L 181.799232 245.19681 
L 181.409777 243.938029 
L 180.97333 242.53569 
L 180.293065 239.87457 
L 179.754154 237.21345 
L 179.588465 236.172249 
L 179.32482 234.55233 
L 178.993369 231.89121 
L 178.746938 229.23009 
L 178.567814 226.56897 
L 178.440811 223.90785 
L 178.341642 220.80321 
L 178.286864 218.14209 
L 178.251356 215.48097 
L 178.228871 212.81985 
L 178.214818 210.15873 
L 178.206053 207.49761 
L 178.200606 204.83649 
L 178.19734 202.17537 
L 178.195605 199.51425 
L 178.194947 196.85313 
L 178.194941 194.19201 
L 178.195163 191.53089 
L 178.195268 188.86977 
L 178.195081 186.20865 
L 178.194645 183.54753 
L 178.194168 180.88641 
L 178.193894 178.22529 
L 178.194012 175.12065 
L 178.194422 172.45953 
L 178.194887 169.79841 
L 178.195155 167.13729 
L 178.195081 164.47617 
L 178.194704 161.81505 
L 178.19423 159.15393 
L 178.193915 156.49281 
L 178.193933 153.83169 
L 178.194276 151.17057 
L 178.194767 148.50945 
L 178.195155 145.84833 
L 178.195264 143.18721 
L 178.195105 140.52609 
L 178.194899 137.86497 
L 178.195022 135.20385 
L 178.196148 132.09921 
L 178.198438 129.43809 
L 178.202478 126.77697 
L 178.20907 124.11585 
L 178.219645 121.45473 
L 178.236604 118.79361 
L 178.263641 116.13249 
L 178.305981 113.47137 
L 178.370575 110.81025 
L 178.466277 108.14913 
L 178.604033 105.48801 
L 178.797077 102.82689 
L 179.061081 100.16577 
L 179.414191 97.50465 
L 179.588465 96.488957 
L 179.864541 94.84353 
L 180.431932 92.18241 
L 181.144199 89.52129 
L 181.409777 88.70341 
L 182.151962 86.41665 
L 183.1887 83.75553 
L 183.195377 83.740213 
L 184.348418 81.09441 
L 184.980977 79.780326 
L 185.629269 78.43329 
L 186.766577 76.203593 
L 186.985726 75.77217 
L 188.354626 73.11105 
L 188.587889 72.648971 
L 189.677716 70.44993 
L 190.373489 68.965938 
L 190.911458 67.78881 
L 192.015 65.12769 
L 192.159089 64.731262 
L 192.95137 62.46657 
L 193.740629 59.80545 
L 193.944689 58.96872 
L 194.370474 57.14433 
L 194.867541 54.48321 
L 195.260594 51.82209 
L 195.573389 49.16097 
L 195.766001 47.177178 
L 195.829077 46.49985 
L 196.086528 43.39521 
L 196.311452 40.73409 
L 196.569635 38.07297 
L 196.890569 35.41185 
L 197.306746 32.75073 
L 197.551601 31.542931 
L 197.84447 30.08961 
L 198.543788 27.42849 
L 199.337201 25.123414 
L 199.462735 24.76737 
L 200.642792 22.10625 
" clip-path="url(#pd1b28083cf)" style="fill: none; stroke: #bad6eb; stroke-width: 1.5"/>
   </g>
   <g id="PathCollection_4">
    <path d="M 209.843607 288.21825 
L 208.300913 286.105174 
L 207.933764 285.55713 
L 206.515313 283.044607 
L 206.436482 282.89601 
L 205.21858 280.23489 
L 204.729713 279.013607 
L 204.170707 277.57377 
L 203.216343 274.91265 
L 202.944113 274.135596 
L 202.288495 272.25153 
L 201.334799 269.59041 
L 201.122801 269.035636 
L 200.311605 266.92929 
L 199.337201 264.619783 
L 198.996953 263.82465 
L 197.756876 261.16353 
L 197.551601 260.750276 
L 196.424697 258.50241 
L 195.766001 257.236926 
L 195.036379 255.84129 
L 193.944689 253.758684 
L 193.64205 253.18017 
L 192.297345 250.51905 
L 192.159089 250.227301 
L 191.051838 247.85793 
L 190.373489 246.243036 
L 189.941137 245.19681 
L 188.9858 242.53569 
L 188.587889 241.220102 
L 188.187647 239.87457 
L 187.540985 237.21345 
L 187.02968 234.55233 
L 186.766577 232.783452 
L 186.635089 231.89121 
L 186.338562 229.23009 
L 186.121425 226.56897 
L 185.966639 223.90785 
L 185.845315 220.80321 
L 185.778151 218.14209 
L 185.734576 215.48097 
L 185.706962 212.81985 
L 185.689668 210.15873 
L 185.678832 207.49761 
L 185.672049 204.83649 
L 185.667956 202.17537 
L 185.665786 199.51425 
L 185.664994 196.85313 
L 185.665045 194.19201 
L 185.665384 191.53089 
L 185.665547 188.86977 
L 185.665303 186.20865 
L 185.66471 183.54753 
L 185.664054 180.88641 
L 185.663675 178.22529 
L 185.663831 175.12065 
L 185.664391 172.45953 
L 185.665032 169.79841 
L 185.665405 167.13729 
L 185.665308 164.47617 
L 185.664793 161.81505 
L 185.664141 159.15393 
L 185.663704 156.49281 
L 185.663723 153.83169 
L 185.66419 151.17057 
L 185.664862 148.50945 
L 185.665394 145.84833 
L 185.665539 143.18721 
L 185.665302 140.52609 
L 185.664977 137.86497 
L 185.665059 135.20385 
L 185.666404 132.09921 
L 185.669227 129.43809 
L 185.674205 126.77697 
L 185.682275 124.11585 
L 185.695137 121.45473 
L 185.715694 118.79361 
L 185.748439 116.13249 
L 185.799722 113.47137 
L 185.877929 110.81025 
L 185.993613 108.14913 
L 186.159593 105.48801 
L 186.391007 102.82689 
L 186.705199 100.16577 
L 186.766577 99.76965 
L 187.120662 97.50465 
L 187.655833 94.84353 
L 188.328719 92.18241 
L 188.587889 91.337294 
L 189.153571 89.52129 
L 190.311889 86.41665 
L 190.373489 86.272537 
L 191.464646 83.75553 
L 192.159089 82.296709 
L 192.737835 81.09441 
L 193.944689 78.714811 
L 194.088283 78.43329 
L 195.460186 75.77217 
L 195.766001 75.16634 
L 196.795127 73.11105 
L 197.551601 71.503611 
L 198.040984 70.44993 
L 199.158686 67.78881 
L 199.337201 67.305807 
L 200.12711 65.12769 
L 200.942339 62.46657 
L 201.122801 61.756031 
L 201.609894 59.80545 
L 202.144789 57.14433 
L 202.568703 54.48321 
L 202.905391 51.82209 
L 202.944113 51.448336 
L 203.179724 49.16097 
L 203.419261 46.49985 
L 203.692835 43.39521 
L 203.95648 40.73409 
L 204.28104 38.07297 
L 204.702394 35.41185 
L 204.729713 35.279032 
L 205.264377 32.75073 
L 206.014035 30.08961 
L 206.515313 28.724971 
L 207.01836 27.42849 
L 208.300913 24.872545 
L 208.357865 24.76737 
L 210.122225 22.163894 
L 210.165357 22.10625 
" clip-path="url(#pd1b28083cf)" style="fill: none; stroke: #89bedc; stroke-width: 1.5"/>
   </g>
   <g id="PathCollection_5">
    <path d="M 222.028425 288.21825 
L 220.871537 287.480555 
L 218.359679 285.55713 
L 217.300337 284.501412 
L 215.479025 282.360026 
L 213.693425 279.587098 
L 211.907825 275.933665 
L 210.436305 272.25153 
L 207.23095 263.82465 
L 204.729713 258.31555 
L 200.710724 250.51905 
L 198.140286 245.19681 
L 197.047355 242.53569 
L 195.766001 238.689991 
L 195.34814 237.21345 
L 194.737409 234.55233 
L 193.944689 229.636353 
L 193.629334 226.56897 
L 193.293319 220.80321 
L 193.123794 212.81985 
L 193.071903 194.19201 
L 193.173204 116.13249 
L 193.469338 108.14913 
L 193.944689 102.822705 
L 194.329262 100.16577 
L 194.829806 97.50465 
L 195.766001 93.797641 
L 196.254778 92.18241 
L 197.551601 88.684324 
L 199.337201 84.667022 
L 201.122801 81.07566 
L 204.729713 73.868871 
L 206.220156 70.44993 
L 207.216483 67.78881 
L 208.300913 64.202595 
L 208.762142 62.46657 
L 209.335417 59.80545 
L 210.154349 54.48321 
L 210.973634 46.49985 
L 211.631119 40.73409 
L 212.079537 38.07297 
L 212.69811 35.41185 
L 213.693425 32.358673 
L 214.710015 30.08961 
L 216.351156 27.42849 
L 217.300337 26.270708 
L 219.085937 24.42946 
L 220.871537 23.047443 
L 222.288638 22.10625 
L 222.288638 22.10625 
" clip-path="url(#pd1b28083cf)" style="fill: none; stroke: #539ecd; stroke-width: 1.5"/>
    <path d="M 381.960328 22.10625 
L 382.396913 22.376436 
L 384.182513 23.650622 
L 385.528877 24.76737 
L 385.968113 25.211661 
L 387.753713 27.271112 
L 387.875244 27.42849 
L 389.496437 30.08961 
L 389.575025 30.257942 
L 390.634491 32.75073 
L 391.360625 35.063742 
" clip-path="url(#pd1b28083cf)" style="fill: none; stroke: #539ecd; stroke-width: 1.5"/>
    <path d="M 391.360625 275.169857 
L 390.5991 277.57377 
L 389.575025 279.966445 
L 389.448893 280.23489 
L 387.817896 282.89601 
L 387.753713 282.978858 
L 385.968113 285.03657 
L 385.452878 285.55713 
L 384.182513 286.610986 
L 382.396913 287.888816 
L 381.865922 288.21825 
" clip-path="url(#pd1b28083cf)" style="fill: none; stroke: #539ecd; stroke-width: 1.5"/>
   </g>
   <g id="PathCollection_6">
    <path d="M 202.822494 226.56897 
L 202.582996 223.90785 
L 202.392232 220.80321 
L 202.285738 218.14209 
L 202.216476 215.48097 
L 202.172487 212.81985 
L 202.144674 210.15873 
L 202.126824 207.49761 
L 202.115243 204.83649 
L 202.108043 202.17537 
L 202.104281 199.51425 
L 202.103198 196.85313 
L 202.103808 194.19201 
L 202.104923 191.53089 
L 202.105482 188.86977 
L 202.104945 186.20865 
L 202.103485 183.54753 
L 202.101836 180.88641 
L 202.100863 178.22529 
L 202.101234 175.12065 
L 202.102641 172.45953 
L 202.104266 169.79841 
L 202.105228 167.13729 
L 202.105006 164.47617 
L 202.103719 161.81505 
L 202.102066 159.15393 
L 202.100944 156.49281 
L 202.100964 153.83169 
L 202.102121 151.17057 
L 202.103804 148.50945 
L 202.105129 145.84833 
L 202.105444 143.18721 
L 202.104708 140.52609 
L 202.103579 137.86497 
L 202.103168 135.20385 
L 202.105129 132.09921 
L 202.109916 129.43809 
L 202.118339 126.77697 
L 202.131531 124.11585 
L 202.151858 121.45473 
L 202.183754 118.79361 
L 202.234316 116.13249 
L 202.313523 113.47137 
L 202.434111 110.81025 
L 202.611155 108.14913 
L 202.861431 105.48801 
L 202.944113 104.846436 
L 203.227196 102.82689 
L 203.716239 100.16577 
L 204.333101 97.50465 
L 204.729713 96.111682 
L 205.115802 94.84353 
L 206.067926 92.18241 
L 206.515313 91.083657 
L 207.18274 89.52129 
L 208.300913 87.123526 
L 208.640202 86.41665 
L 209.97862 83.75553 
L 210.122225 83.473337 
L 211.354998 81.09441 
L 211.907825 79.981198 
L 212.686696 78.43329 
L 213.693425 76.256694 
L 213.920574 75.77217 
L 215.05021 73.11105 
L 215.479025 71.944961 
L 216.041516 70.44993 
L 216.886294 67.78881 
L 217.300337 66.210077 
L 217.595837 65.12769 
L 218.194106 62.46657 
L 218.670578 59.80545 
L 219.051725 57.14433 
L 219.085937 56.857661 
L 219.390324 54.48321 
L 219.68727 51.82209 
L 219.973354 49.16097 
L 220.287084 46.49985 
L 220.74778 43.39521 
L 220.871537 42.778999 
L 221.327169 40.73409 
L 222.137517 38.07297 
L 222.657137 36.820893 
L 223.320075 35.41185 
L 224.478449 33.582842 
L 225.086147 32.75073 
L 226.264049 31.51968 
L 227.868736 30.08961 
L 228.049649 29.962801 
L 229.835249 28.89326 
L 231.656561 27.982486 
L 232.987826 27.42849 
L 233.442161 27.274352 
L 235.227761 26.769798 
L 237.013361 26.355828 
L 238.834673 26.012576 
L 240.620273 25.741169 
L 242.405873 25.523558 
L 244.191473 25.350528 
L 246.012785 25.211727 
L 247.798385 25.10569 
L 249.583985 25.023608 
L 251.369585 24.960655 
L 253.190897 24.912001 
L 254.976497 24.876218 
L 256.762097 24.849555 
L 258.547697 24.829879 
L 260.369009 24.815258 
L 262.154609 24.804923 
L 263.940209 24.797519 
L 265.725809 24.792268 
L 267.547121 24.788519 
L 269.332721 24.785974 
L 271.118321 24.784221 
L 272.903921 24.783027 
L 274.725233 24.782208 
L 276.510833 24.781673 
L 278.296433 24.78132 
L 280.082033 24.781088 
L 281.903345 24.780935 
L 283.688945 24.78084 
L 285.474545 24.780779 
L 287.260145 24.780741 
L 289.081457 24.780717 
L 290.867057 24.780702 
L 292.652657 24.780693 
L 294.438257 24.780688 
L 296.259569 24.780685 
L 298.045169 24.780683 
L 299.830769 24.780682 
L 301.616369 24.780681 
L 303.437681 24.780681 
L 305.223281 24.780682 
L 307.008881 24.780683 
L 308.794481 24.780686 
L 310.615793 24.78069 
L 312.401393 24.780697 
L 314.186993 24.780708 
L 315.972593 24.780726 
L 317.793905 24.780756 
L 319.579505 24.780804 
L 321.365105 24.780878 
L 323.150705 24.780996 
L 324.972017 24.781182 
L 326.757617 24.781464 
L 328.543217 24.781892 
L 330.328817 24.782536 
L 332.150129 24.783518 
L 333.935729 24.784944 
L 335.721329 24.787027 
L 337.506929 24.790039 
L 339.328241 24.794455 
L 341.113841 24.800611 
L 342.899441 24.809252 
L 344.685041 24.82126 
L 346.506353 24.838171 
L 348.291953 24.860826 
L 350.077553 24.891393 
L 351.863153 24.932235 
L 353.684465 24.987526 
L 355.470065 25.058763 
L 357.255665 25.151265 
L 359.041265 25.270282 
L 360.862577 25.425465 
L 362.648177 25.618193 
L 364.433777 25.859724 
L 366.219377 26.159964 
L 368.040689 26.5385 
L 369.826289 26.993724 
L 371.232155 27.42849 
L 371.611889 27.572531 
L 373.397489 28.384006 
L 375.218801 29.379732 
L 376.311606 30.08961 
L 377.004401 30.662391 
L 378.790001 32.398384 
L 379.102239 32.75073 
L 380.575601 34.943752 
L 380.849284 35.41185 
L 381.996828 38.07297 
L 382.396913 39.371772 
L 382.770066 40.73409 
L 383.279222 43.39521 
L 383.668905 46.49985 
L 383.880381 49.16097 
L 384.015689 51.82209 
L 384.10055 54.48321 
L 384.153177 57.14433 
L 384.182513 59.549211 
L 384.185358 59.80545 
L 384.203305 62.46657 
L 384.213574 65.12769 
L 384.218581 67.78881 
L 384.22015 70.44993 
L 384.219941 73.11105 
L 384.219418 75.77217 
L 384.219572 78.43329 
L 384.220682 81.09441 
L 384.222323 83.75553 
L 384.223693 86.41665 
L 384.224038 89.52129 
L 384.223096 92.18241 
L 384.221532 94.84353 
L 384.220197 97.50465 
L 384.219815 100.16577 
L 384.220595 102.82689 
L 384.222113 105.48801 
L 384.223548 108.14913 
L 384.22412 110.81025 
L 384.223521 113.47137 
L 384.222074 116.13249 
L 384.220565 118.79361 
L 384.21981 121.45473 
L 384.22022 124.11585 
L 384.221572 126.77697 
L 384.223133 129.43809 
L 384.224057 132.09921 
L 384.223696 135.20385 
L 384.222344 137.86497 
L 384.220783 140.52609 
L 384.219859 143.18721 
L 384.220073 145.84833 
L 384.221308 148.50945 
L 384.222896 151.17057 
L 384.223976 153.83169 
L 384.223961 156.49281 
L 384.222861 159.15393 
L 384.221271 161.81505 
L 384.220054 164.47617 
L 384.219869 167.13729 
L 384.220816 169.79841 
L 384.222382 172.45953 
L 384.223719 175.12065 
L 384.224047 178.22529 
L 384.2231 180.88641 
L 384.221534 183.54753 
L 384.220197 186.20865 
L 384.219815 188.86977 
L 384.220595 191.53089 
L 384.222113 194.19201 
L 384.223548 196.85313 
L 384.22412 199.51425 
L 384.223521 202.17537 
L 384.222074 204.83649 
L 384.220565 207.49761 
L 384.21981 210.15873 
L 384.22022 212.81985 
L 384.221571 215.48097 
L 384.223129 218.14209 
L 384.224048 220.80321 
L 384.22367 223.90785 
L 384.222283 226.56897 
L 384.220646 229.23009 
L 384.219557 231.89121 
L 384.219425 234.55233 
L 384.219955 237.21345 
L 384.22014 239.87457 
L 384.218508 242.53569 
L 384.213397 245.19681 
L 384.202976 247.85793 
L 384.184805 250.51905 
L 384.182513 250.723119 
L 384.152191 253.18017 
L 384.098961 255.84129 
L 384.013152 258.50241 
L 383.876407 261.16353 
L 383.662859 263.82465 
L 383.269785 266.92929 
L 382.756808 269.59041 
L 382.396913 270.896265 
L 381.977034 272.25153 
L 380.823999 274.91265 
L 380.575601 275.336098 
L 379.068391 277.57377 
L 378.790001 277.88747 
L 377.004401 279.623172 
L 376.264773 280.23489 
L 375.218801 280.915146 
L 373.397489 281.913405 
L 371.611889 282.727776 
L 371.170119 282.89601 
L 369.826289 283.313437 
L 368.040689 283.771192 
L 366.219377 284.152127 
L 364.433777 284.454489 
L 362.648177 284.697893 
L 360.862577 284.892238 
L 359.041265 285.04882 
L 357.255665 285.168978 
L 355.470065 285.262418 
L 353.684465 285.334414 
L 351.863153 285.390323 
L 350.077553 285.431642 
L 348.291953 285.46258 
L 346.506353 285.485521 
L 344.685041 285.502652 
L 342.899441 285.514823 
L 341.113841 285.523584 
L 339.328241 285.529829 
L 337.506929 285.53431 
L 335.721329 285.537368 
L 333.935729 285.539484 
L 332.150129 285.540933 
L 330.328817 285.541932 
L 328.543217 285.542586 
L 326.757617 285.543022 
L 324.972017 285.543308 
L 323.150705 285.543498 
L 321.365105 285.543618 
L 319.579505 285.543694 
L 317.793905 285.543742 
L 315.972593 285.543773 
L 314.186993 285.543791 
L 312.401393 285.543803 
L 310.615793 285.54381 
L 308.794481 285.543814 
L 307.008881 285.543816 
L 305.223281 285.543818 
L 303.437681 285.543819 
L 301.616369 285.543819 
L 299.830769 285.543818 
L 298.045169 285.543817 
L 296.259569 285.543816 
L 294.438257 285.543812 
L 292.652657 285.543807 
L 290.867057 285.543799 
L 289.081457 285.543785 
L 287.260145 285.543762 
L 285.474545 285.543725 
L 283.688945 285.543667 
L 281.903345 285.543576 
L 280.082033 285.543429 
L 278.296433 285.543207 
L 276.510833 285.542868 
L 274.725233 285.542356 
L 272.903921 285.54157 
L 271.118321 285.540423 
L 269.332721 285.53874 
L 267.547121 285.536295 
L 265.725809 285.532692 
L 263.940209 285.527643 
L 262.154609 285.520522 
L 260.369009 285.510577 
L 258.547697 285.496504 
L 256.762097 285.477559 
L 254.976497 285.451878 
L 253.190897 285.417406 
L 251.369585 285.370528 
L 249.583985 285.309867 
L 247.798385 285.230777 
L 246.012785 285.128627 
L 244.191473 284.994966 
L 242.405873 284.82845 
L 240.620273 284.619221 
L 238.834673 284.3586 
L 237.013361 284.029549 
L 235.227761 283.633579 
L 233.442161 283.152293 
L 232.65016 282.89601 
L 231.656561 282.505826 
L 229.835249 281.653329 
L 228.049649 280.661427 
L 227.392217 280.23489 
L 226.264049 279.332985 
L 224.478449 277.684247 
L 224.373516 277.57377 
L 222.657137 275.359358 
L 222.348097 274.91265 
L 220.871537 272.364914 
L 220.811569 272.25153 
L 219.578278 269.59041 
L 219.085937 268.447938 
L 218.47053 266.92929 
L 217.300337 264.046518 
L 217.213591 263.82465 
L 216.135693 261.16353 
L 215.479025 259.676607 
L 214.972625 258.50241 
L 213.713426 255.84129 
L 213.693425 255.801298 
L 212.400806 253.18017 
L 211.907825 252.236368 
L 211.023576 250.51905 
L 210.122225 248.809816 
L 209.630311 247.85793 
L 208.300913 245.253561 
L 208.272771 245.19681 
L 207.045051 242.53569 
L 206.515313 241.28604 
L 205.946064 239.87457 
L 205.004946 237.21345 
L 204.729713 236.290535 
L 204.245804 234.55233 
L 203.644492 231.89121 
L 203.170628 229.23009 
L 202.944113 227.55074 
L 202.822494 226.56897 
z
" clip-path="url(#pd1b28083cf)" style="fill: none; stroke: #2b7bba; stroke-width: 1.5"/>
   </g>
   <g id="PathCollection_7">
    <path d="M 224.318161 220.80321 
L 224.118761 218.14209 
L 223.990978 215.48097 
L 223.910341 212.81985 
L 223.856032 210.15873 
L 223.814843 207.49761 
L 223.781948 204.83649 
L 223.758464 202.17537 
L 223.747143 199.51425 
L 223.748333 196.85313 
L 223.758124 194.19201 
L 223.769417 191.53089 
L 223.775137 188.86977 
L 223.771689 186.20865 
L 223.760692 183.54753 
L 223.747987 180.88641 
L 223.740403 178.22529 
L 223.743202 175.12065 
L 223.754086 172.45953 
L 223.76674 169.79841 
L 223.774303 167.13729 
L 223.772673 164.47617 
L 223.762735 161.81505 
L 223.749876 159.15393 
L 223.741071 156.49281 
L 223.741095 153.83169 
L 223.74995 151.17057 
L 223.762863 148.50945 
L 223.772896 145.84833 
L 223.774736 143.18721 
L 223.767643 140.52609 
L 223.755975 137.86497 
L 223.747046 135.20385 
L 223.748828 132.09921 
L 223.763928 129.43809 
L 223.789988 126.77697 
L 223.824087 124.11585 
L 223.866385 121.45473 
L 223.92402 118.79361 
L 224.012581 116.13249 
L 224.154252 113.47137 
L 224.373168 110.81025 
L 224.478449 109.941917 
L 224.739688 108.14913 
L 225.261899 105.48801 
L 225.909359 102.82689 
L 226.264049 101.620556 
L 226.749878 100.16577 
L 227.744915 97.50465 
L 228.049649 96.767577 
L 228.913065 94.84353 
L 229.835249 92.834048 
L 230.154356 92.18241 
L 231.466771 89.52129 
L 231.656561 89.136241 
L 233.026608 86.41665 
L 233.442161 85.528282 
L 234.311169 83.75553 
L 235.227761 81.626506 
L 235.470194 81.09441 
L 236.549961 78.43329 
L 237.013361 77.057159 
L 237.484434 75.77217 
L 238.295547 73.11105 
L 238.834673 70.89427 
L 238.956321 70.44993 
L 239.584272 67.78881 
L 240.100923 65.12769 
L 240.545398 62.46657 
L 240.620273 61.996249 
L 241.034395 59.80545 
L 241.551408 57.14433 
L 242.151998 54.48321 
L 242.405873 53.637111 
L 243.074368 51.82209 
L 244.191473 49.711684 
L 244.555838 49.16097 
L 246.012785 47.688184 
L 247.5052 46.49985 
L 247.798385 46.348427 
L 249.583985 45.631917 
L 251.369585 45.080691 
L 253.190897 44.653669 
L 254.976497 44.339061 
L 256.762097 44.104345 
L 258.547697 43.930993 
L 260.369009 43.8021 
L 262.154609 43.710954 
L 263.940209 43.64565 
L 265.725809 43.599326 
L 267.547121 43.566254 
L 269.332721 43.543799 
L 271.118321 43.528343 
L 272.903921 43.51781 
L 274.725233 43.510587 
L 276.510833 43.505876 
L 278.296433 43.50276 
L 280.082033 43.500719 
L 281.903345 43.499375 
L 283.688945 43.498532 
L 285.474545 43.497997 
L 287.260145 43.497661 
L 289.081457 43.497448 
L 290.867057 43.49732 
L 292.652657 43.497242 
L 294.438257 43.497195 
L 296.259569 43.497166 
L 298.045169 43.497149 
L 299.830769 43.497141 
L 301.616369 43.497137 
L 303.437681 43.497138 
L 305.223281 43.497144 
L 307.008881 43.497157 
L 308.794481 43.497179 
L 310.615793 43.497216 
L 312.401393 43.497278 
L 314.186993 43.497379 
L 315.972593 43.497544 
L 317.793905 43.497817 
L 319.579505 43.498247 
L 321.365105 43.498926 
L 323.150705 43.499991 
L 324.972017 43.501682 
L 326.757617 43.504235 
L 328.543217 43.508115 
L 330.328817 43.513951 
L 332.150129 43.522856 
L 333.935729 43.535779 
L 335.721329 43.554649 
L 337.506929 43.581932 
L 339.328241 43.621921 
L 341.113841 43.677669 
L 342.899441 43.755896 
L 344.685041 43.864591 
L 346.506353 44.017635 
L 348.291953 44.222632 
L 350.077553 44.499168 
L 351.863153 44.868614 
L 353.684465 45.368685 
L 355.470065 46.012884 
L 356.510491 46.49985 
L 357.255665 47.045782 
L 359.041265 48.726947 
L 359.402815 49.16097 
L 360.82589 51.82209 
L 360.862577 51.931304 
L 361.543004 54.48321 
L 361.983078 57.14433 
L 362.254518 59.80545 
L 362.419352 62.46657 
L 362.513759 65.12769 
L 362.559911 67.78881 
L 362.574495 70.44993 
L 362.572682 73.11105 
L 362.567879 75.77217 
L 362.569202 78.43329 
L 362.579253 81.09441 
L 362.594229 83.75553 
L 362.606807 86.41665 
L 362.610089 89.52129 
L 362.601581 92.18241 
L 362.587317 94.84353 
L 362.575058 97.50465 
L 362.571461 100.16577 
L 362.578482 102.82689 
L 362.592316 105.48801 
L 362.605464 108.14913 
L 362.6108 110.81025 
L 362.605433 113.47137 
L 362.592271 116.13249 
L 362.578448 118.79361 
L 362.571457 121.45473 
L 362.575089 124.11585 
L 362.587375 126.77697 
L 362.601654 129.43809 
L 362.610186 132.09921 
L 362.607016 135.20385 
L 362.594731 137.86497 
L 362.580452 140.52609 
L 362.571919 143.18721 
L 362.573758 145.84833 
L 362.584972 148.50945 
L 362.599482 151.17057 
L 362.609422 153.83169 
L 362.609405 156.49281 
L 362.599441 159.15393 
L 362.584929 161.81505 
L 362.573736 164.47617 
L 362.57193 167.13729 
L 362.580491 169.79841 
L 362.594776 172.45953 
L 362.607042 175.12065 
L 362.610174 178.22529 
L 362.601615 180.88641 
L 362.587331 183.54753 
L 362.575063 186.20865 
L 362.571463 188.86977 
L 362.578482 191.53089 
L 362.592316 194.19201 
L 362.605464 196.85313 
L 362.6108 199.51425 
L 362.605433 202.17537 
L 362.59227 204.83649 
L 362.578447 207.49761 
L 362.571455 210.15873 
L 362.575084 212.81985 
L 362.587361 215.48097 
L 362.601619 218.14209 
L 362.6101 220.80321 
L 362.60678 223.90785 
L 362.594183 226.56897 
L 362.579212 229.23009 
L 362.569185 231.89121 
L 362.567888 234.55233 
L 362.572698 237.21345 
L 362.574483 239.87457 
L 362.559827 242.53569 
L 362.513556 245.19681 
L 362.418978 247.85793 
L 362.253902 250.51905 
L 361.982107 253.18017 
L 361.541518 255.84129 
L 360.862577 258.385178 
L 360.823164 258.50241 
L 359.399227 261.16353 
L 359.041265 261.593109 
L 357.255665 263.274162 
L 356.50442 263.82465 
L 355.470065 264.308959 
L 353.684465 264.953548 
L 351.863153 265.45404 
L 350.077553 265.823868 
L 348.291953 266.100736 
L 346.506353 266.306007 
L 344.685041 266.459274 
L 342.899441 266.568138 
L 341.113841 266.646495 
L 339.328241 266.702338 
L 337.506929 266.742399 
L 335.721329 266.769734 
L 333.935729 266.78864 
L 332.150129 266.801589 
L 330.328817 266.810512 
L 328.543217 266.81636 
L 326.757617 266.820248 
L 324.972017 266.822808 
L 323.150705 266.824502 
L 321.365105 266.825569 
L 319.579505 266.826251 
L 317.793905 266.826681 
L 315.972593 266.826955 
L 314.186993 266.82712 
L 312.401393 266.827222 
L 310.615793 266.827283 
L 308.794481 266.827321 
L 307.008881 266.827343 
L 305.223281 266.827356 
L 303.437681 266.827363 
L 301.616369 266.827364 
L 299.830769 266.827362 
L 298.045169 266.827355 
L 296.259569 266.827342 
L 294.438257 266.827319 
L 292.652657 266.827281 
L 290.867057 266.827219 
L 289.081457 266.827116 
L 287.260145 266.826946 
L 285.474545 266.826677 
L 283.688945 266.826249 
L 281.903345 266.825575 
L 280.082033 266.824499 
L 278.296433 266.822865 
L 276.510833 266.820372 
L 274.725233 266.816604 
L 272.903921 266.810826 
L 271.118321 266.802403 
L 269.332721 266.790047 
L 267.547121 266.772104 
L 265.725809 266.745699 
L 263.940209 266.708755 
L 262.154609 266.656762 
L 260.369009 266.584368 
L 258.547697 266.482347 
L 256.762097 266.345791 
L 254.976497 266.162102 
L 253.190897 265.918057 
L 251.369585 265.590743 
L 249.583985 265.174805 
L 247.798385 264.644946 
L 246.012785 263.980551 
L 245.679071 263.82465 
L 244.191473 262.830124 
L 242.405873 261.418595 
L 242.135395 261.16353 
L 240.620273 259.335867 
L 240.010384 258.50241 
L 238.834673 256.637623 
L 238.38225 255.84129 
L 237.013361 253.331128 
L 236.937594 253.18017 
L 235.604551 250.51905 
L 235.227761 249.80051 
L 234.263228 247.85793 
L 233.442161 246.303267 
L 232.883769 245.19681 
L 231.656561 242.877724 
L 231.483602 242.53569 
L 230.142787 239.87457 
L 229.835249 239.25473 
L 228.886088 237.21345 
L 228.049649 235.362356 
L 227.712628 234.55233 
L 226.711726 231.89121 
L 226.264049 230.548729 
L 225.877386 229.23009 
L 225.232814 226.56897 
L 224.716327 223.90785 
L 224.478449 222.19027 
L 224.318161 220.80321 
z
" clip-path="url(#pd1b28083cf)" style="fill: none; stroke: #0b559f; stroke-width: 1.5"/>
   </g>
   <g id="PathCollection_8"/>
   <g id="patch_3">
    <path d="M 34.240625 288.21825 
L 34.240625 22.10625 
" style="fill: none; stroke: #000000; stroke-width: 0.8; stroke-linejoin: miter; stroke-linecap: square"/>
   </g>
   <g id="patch_4">
    <path d="M 391.360625 288.21825 
L 391.360625 22.10625 
" style="fill: none; stroke: #000000; stroke-width: 0.8; stroke-linejoin: miter; stroke-linecap: square"/>
   </g>
   <g id="patch_5">
    <path d="M 34.240625 288.21825 
L 391.360625 288.21825 
" style="fill: none; stroke: #000000; stroke-width: 0.8; stroke-linejoin: miter; stroke-linecap: square"/>
   </g>
   <g id="patch_6">
    <path d="M 34.240625 22.10625 
L 391.360625 22.10625 
" style="fill: none; stroke: #000000; stroke-width: 0.8; stroke-linejoin: miter; stroke-linecap: square"/>
   </g>
   <g id="text_16">
    <!-- 8.8_cross_-39.0 -->
    <g transform="translate(166.181563 16.10625)scale(0.12 -0.12)">
     <defs>
      <path id="DejaVuSans-2e" d="M 684 794 
L 1344 794 
L 1344 0 
L 684 0 
L 684 794 
z
" transform="scale(0.015625)"/>
      <path id="DejaVuSans-5f" d="M 3263 -1063 
L 3263 -1509 
L -63 -1509 
L -63 -1063 
L 3263 -1063 
z
" transform="scale(0.015625)"/>
      <path id="DejaVuSans-63" d="M 3122 3366 
L 3122 2828 
Q 2878 2963 2633 3030 
Q 2388 3097 2138 3097 
Q 1578 3097 1268 2742 
Q 959 2388 959 1747 
Q 959 1106 1268 751 
Q 1578 397 2138 397 
Q 2388 397 2633 464 
Q 2878 531 3122 666 
L 3122 134 
Q 2881 22 2623 -34 
Q 2366 -91 2075 -91 
Q 1284 -91 818 406 
Q 353 903 353 1747 
Q 353 2603 823 3093 
Q 1294 3584 2113 3584 
Q 2378 3584 2631 3529 
Q 2884 3475 3122 3366 
z
" transform="scale(0.015625)"/>
      <path id="DejaVuSans-72" d="M 2631 2963 
Q 2534 3019 2420 3045 
Q 2306 3072 2169 3072 
Q 1681 3072 1420 2755 
Q 1159 2438 1159 1844 
L 1159 0 
L 581 0 
L 581 3500 
L 1159 3500 
L 1159 2956 
Q 1341 3275 1631 3429 
Q 1922 3584 2338 3584 
Q 2397 3584 2469 3576 
Q 2541 3569 2628 3553 
L 2631 2963 
z
" transform="scale(0.015625)"/>
      <path id="DejaVuSans-73" d="M 2834 3397 
L 2834 2853 
Q 2591 2978 2328 3040 
Q 2066 3103 1784 3103 
Q 1356 3103 1142 2972 
Q 928 2841 928 2578 
Q 928 2378 1081 2264 
Q 1234 2150 1697 2047 
L 1894 2003 
Q 2506 1872 2764 1633 
Q 3022 1394 3022 966 
Q 3022 478 2636 193 
Q 2250 -91 1575 -91 
Q 1294 -91 989 -36 
Q 684 19 347 128 
L 347 722 
Q 666 556 975 473 
Q 1284 391 1588 391 
Q 1994 391 2212 530 
Q 2431 669 2431 922 
Q 2431 1156 2273 1281 
Q 2116 1406 1581 1522 
L 1381 1569 
Q 847 1681 609 1914 
Q 372 2147 372 2553 
Q 372 3047 722 3315 
Q 1072 3584 1716 3584 
Q 2034 3584 2315 3537 
Q 2597 3491 2834 3397 
z
" transform="scale(0.015625)"/>
      <path id="DejaVuSans-2d" d="M 313 2009 
L 1997 2009 
L 1997 1497 
L 313 1497 
L 313 2009 
z
" transform="scale(0.015625)"/>
      <path id="DejaVuSans-39" d="M 703 97 
L 703 672 
Q 941 559 1184 500 
Q 1428 441 1663 441 
Q 2288 441 2617 861 
Q 2947 1281 2994 2138 
Q 2813 1869 2534 1725 
Q 2256 1581 1919 1581 
Q 1219 1581 811 2004 
Q 403 2428 403 3163 
Q 403 3881 828 4315 
Q 1253 4750 1959 4750 
Q 2769 4750 3195 4129 
Q 3622 3509 3622 2328 
Q 3622 1225 3098 567 
Q 2575 -91 1691 -91 
Q 1453 -91 1209 -44 
Q 966 3 703 97 
z
M 1959 2075 
Q 2384 2075 2632 2365 
Q 2881 2656 2881 3163 
Q 2881 3666 2632 3958 
Q 2384 4250 1959 4250 
Q 1534 4250 1286 3958 
Q 1038 3666 1038 3163 
Q 1038 2656 1286 2365 
Q 1534 2075 1959 2075 
z
" transform="scale(0.015625)"/>
     </defs>
     <use xlink:href="#DejaVuSans-38"/>
     <use xlink:href="#DejaVuSans-2e" x="63.623047"/>
     <use xlink:href="#DejaVuSans-38" x="95.410156"/>
     <use xlink:href="#DejaVuSans-5f" x="159.033203"/>
     <use xlink:href="#DejaVuSans-63" x="209.033203"/>
     <use xlink:href="#DejaVuSans-72" x="264.013672"/>
     <use xlink:href="#DejaVuSans-6f" x="302.876953"/>
     <use xlink:href="#DejaVuSans-73" x="364.058594"/>
     <use xlink:href="#DejaVuSans-73" x="416.158203"/>
     <use xlink:href="#DejaVuSans-5f" x="468.257812"/>
     <use xlink:href="#DejaVuSans-2d" x="518.257812"/>
     <use xlink:href="#DejaVuSans-33" x="554.341797"/>
     <use xlink:href="#DejaVuSans-39" x="617.964844"/>
     <use xlink:href="#DejaVuSans-2e" x="681.587891"/>
     <use xlink:href="#DejaVuSans-30" x="713.375"/>
    </g>
   </g>
  </g>
 </g>
 <defs>
  <clipPath id="pd1b28083cf">
   <rect x="34.240625" y="22.10625" width="357.12" height="266.112"/>
  </clipPath>
 </defs>
</svg>
