<?xml version="1.0" encoding="utf-8" standalone="no"?>
<!DOCTYPE svg PUBLIC "-//W3C//DTD SVG 1.1//EN"
  "http://www.w3.org/Graphics/SVG/1.1/DTD/svg11.dtd">
<svg xmlns:xlink="http://www.w3.org/1999/xlink" width="408.104375pt" height="325.7745pt" viewBox="0 0 408.104375 325.7745" xmlns="http://www.w3.org/2000/svg" version="1.1">
 <metadata>
  <rdf:RDF xmlns:dc="http://purl.org/dc/elements/1.1/" xmlns:cc="http://creativecommons.org/ns#" xmlns:rdf="http://www.w3.org/1999/02/22-rdf-syntax-ns#">
   <cc:Work>
    <dc:type rdf:resource="http://purl.org/dc/dcmitype/StillImage"/>
    <dc:date>2024-07-12T12:17:45.296664</dc:date>
    <dc:format>image/svg+xml</dc:format>
    <dc:creator>
     <cc:Agent>
      <dc:title>Matplotlib v3.5.3, https://matplotlib.org/</dc:title>
     </cc:Agent>
    </dc:creator>
   </cc:Work>
  </rdf:RDF>
 </metadata>
 <defs>
  <style type="text/css">*{stroke-linejoin: round; stroke-linecap: butt}</style>
 </defs>
 <g id="figure_1">
  <g id="patch_1">
   <path d="M 0 325.7745 
L 408.104375 325.7745 
L 408.104375 0 
L 0 0 
z
" style="fill: #ffffff"/>
  </g>
  <g id="axes_1">
   <g id="patch_2">
    <path d="M 34.240625 288.21825 
L 391.360625 288.21825 
L 391.360625 22.10625 
L 34.240625 22.10625 
z
" style="fill: #ffffff"/>
   </g>
   <g id="matplotlib.axis_1">
    <g id="xtick_1">
     <g id="line2d_1">
      <defs>
       <path id="m7b25843689" d="M 0 0 
L 0 3.5 
" style="stroke: #000000; stroke-width: 0.8"/>
      </defs>
      <g>
       <use xlink:href="#m7b25843689" x="34.240625" y="288.21825" style="stroke: #000000; stroke-width: 0.8"/>
      </g>
     </g>
     <g id="text_1">
      <!-- 0 -->
      <g transform="translate(31.059375 302.816687)scale(0.1 -0.1)">
       <defs>
        <path id="DejaVuSans-30" d="M 2034 4250 
Q 1547 4250 1301 3770 
Q 1056 3291 1056 2328 
Q 1056 1369 1301 889 
Q 1547 409 2034 409 
Q 2525 409 2770 889 
Q 3016 1369 3016 2328 
Q 3016 3291 2770 3770 
Q 2525 4250 2034 4250 
z
M 2034 4750 
Q 2819 4750 3233 4129 
Q 3647 3509 3647 2328 
Q 3647 1150 3233 529 
Q 2819 -91 2034 -91 
Q 1250 -91 836 529 
Q 422 1150 422 2328 
Q 422 3509 836 4129 
Q 1250 4750 2034 4750 
z
" transform="scale(0.015625)"/>
       </defs>
       <use xlink:href="#DejaVuSans-30"/>
      </g>
     </g>
    </g>
    <g id="xtick_2">
     <g id="line2d_2">
      <g>
       <use xlink:href="#m7b25843689" x="105.664625" y="288.21825" style="stroke: #000000; stroke-width: 0.8"/>
      </g>
     </g>
     <g id="text_2">
      <!-- 20 -->
      <g transform="translate(99.302125 302.816687)scale(0.1 -0.1)">
       <defs>
        <path id="DejaVuSans-32" d="M 1228 531 
L 3431 531 
L 3431 0 
L 469 0 
L 469 531 
Q 828 903 1448 1529 
Q 2069 2156 2228 2338 
Q 2531 2678 2651 2914 
Q 2772 3150 2772 3378 
Q 2772 3750 2511 3984 
Q 2250 4219 1831 4219 
Q 1534 4219 1204 4116 
Q 875 4013 500 3803 
L 500 4441 
Q 881 4594 1212 4672 
Q 1544 4750 1819 4750 
Q 2544 4750 2975 4387 
Q 3406 4025 3406 3419 
Q 3406 3131 3298 2873 
Q 3191 2616 2906 2266 
Q 2828 2175 2409 1742 
Q 1991 1309 1228 531 
z
" transform="scale(0.015625)"/>
       </defs>
       <use xlink:href="#DejaVuSans-32"/>
       <use xlink:href="#DejaVuSans-30" x="63.623047"/>
      </g>
     </g>
    </g>
    <g id="xtick_3">
     <g id="line2d_3">
      <g>
       <use xlink:href="#m7b25843689" x="177.088625" y="288.21825" style="stroke: #000000; stroke-width: 0.8"/>
      </g>
     </g>
     <g id="text_3">
      <!-- 40 -->
      <g transform="translate(170.726125 302.816687)scale(0.1 -0.1)">
       <defs>
        <path id="DejaVuSans-34" d="M 2419 4116 
L 825 1625 
L 2419 1625 
L 2419 4116 
z
M 2253 4666 
L 3047 4666 
L 3047 1625 
L 3713 1625 
L 3713 1100 
L 3047 1100 
L 3047 0 
L 2419 0 
L 2419 1100 
L 313 1100 
L 313 1709 
L 2253 4666 
z
" transform="scale(0.015625)"/>
       </defs>
       <use xlink:href="#DejaVuSans-34"/>
       <use xlink:href="#DejaVuSans-30" x="63.623047"/>
      </g>
     </g>
    </g>
    <g id="xtick_4">
     <g id="line2d_4">
      <g>
       <use xlink:href="#m7b25843689" x="248.512625" y="288.21825" style="stroke: #000000; stroke-width: 0.8"/>
      </g>
     </g>
     <g id="text_4">
      <!-- 60 -->
      <g transform="translate(242.150125 302.816687)scale(0.1 -0.1)">
       <defs>
        <path id="DejaVuSans-36" d="M 2113 2584 
Q 1688 2584 1439 2293 
Q 1191 2003 1191 1497 
Q 1191 994 1439 701 
Q 1688 409 2113 409 
Q 2538 409 2786 701 
Q 3034 994 3034 1497 
Q 3034 2003 2786 2293 
Q 2538 2584 2113 2584 
z
M 3366 4563 
L 3366 3988 
Q 3128 4100 2886 4159 
Q 2644 4219 2406 4219 
Q 1781 4219 1451 3797 
Q 1122 3375 1075 2522 
Q 1259 2794 1537 2939 
Q 1816 3084 2150 3084 
Q 2853 3084 3261 2657 
Q 3669 2231 3669 1497 
Q 3669 778 3244 343 
Q 2819 -91 2113 -91 
Q 1303 -91 875 529 
Q 447 1150 447 2328 
Q 447 3434 972 4092 
Q 1497 4750 2381 4750 
Q 2619 4750 2861 4703 
Q 3103 4656 3366 4563 
z
" transform="scale(0.015625)"/>
       </defs>
       <use xlink:href="#DejaVuSans-36"/>
       <use xlink:href="#DejaVuSans-30" x="63.623047"/>
      </g>
     </g>
    </g>
    <g id="xtick_5">
     <g id="line2d_5">
      <g>
       <use xlink:href="#m7b25843689" x="319.936625" y="288.21825" style="stroke: #000000; stroke-width: 0.8"/>
      </g>
     </g>
     <g id="text_5">
      <!-- 80 -->
      <g transform="translate(313.574125 302.816687)scale(0.1 -0.1)">
       <defs>
        <path id="DejaVuSans-38" d="M 2034 2216 
Q 1584 2216 1326 1975 
Q 1069 1734 1069 1313 
Q 1069 891 1326 650 
Q 1584 409 2034 409 
Q 2484 409 2743 651 
Q 3003 894 3003 1313 
Q 3003 1734 2745 1975 
Q 2488 2216 2034 2216 
z
M 1403 2484 
Q 997 2584 770 2862 
Q 544 3141 544 3541 
Q 544 4100 942 4425 
Q 1341 4750 2034 4750 
Q 2731 4750 3128 4425 
Q 3525 4100 3525 3541 
Q 3525 3141 3298 2862 
Q 3072 2584 2669 2484 
Q 3125 2378 3379 2068 
Q 3634 1759 3634 1313 
Q 3634 634 3220 271 
Q 2806 -91 2034 -91 
Q 1263 -91 848 271 
Q 434 634 434 1313 
Q 434 1759 690 2068 
Q 947 2378 1403 2484 
z
M 1172 3481 
Q 1172 3119 1398 2916 
Q 1625 2713 2034 2713 
Q 2441 2713 2670 2916 
Q 2900 3119 2900 3481 
Q 2900 3844 2670 4047 
Q 2441 4250 2034 4250 
Q 1625 4250 1398 4047 
Q 1172 3844 1172 3481 
z
" transform="scale(0.015625)"/>
       </defs>
       <use xlink:href="#DejaVuSans-38"/>
       <use xlink:href="#DejaVuSans-30" x="63.623047"/>
      </g>
     </g>
    </g>
    <g id="xtick_6">
     <g id="line2d_6">
      <g>
       <use xlink:href="#m7b25843689" x="391.360625" y="288.21825" style="stroke: #000000; stroke-width: 0.8"/>
      </g>
     </g>
     <g id="text_6">
      <!-- 100 -->
      <g transform="translate(381.816875 302.816687)scale(0.1 -0.1)">
       <defs>
        <path id="DejaVuSans-31" d="M 794 531 
L 1825 531 
L 1825 4091 
L 703 3866 
L 703 4441 
L 1819 4666 
L 2450 4666 
L 2450 531 
L 3481 531 
L 3481 0 
L 794 0 
L 794 531 
z
" transform="scale(0.015625)"/>
       </defs>
       <use xlink:href="#DejaVuSans-31"/>
       <use xlink:href="#DejaVuSans-30" x="63.623047"/>
       <use xlink:href="#DejaVuSans-30" x="127.246094"/>
      </g>
     </g>
    </g>
    <g id="text_7">
     <!-- axialRotation -->
     <g transform="translate(180.024844 316.494812)scale(0.1 -0.1)">
      <defs>
       <path id="DejaVuSans-61" d="M 2194 1759 
Q 1497 1759 1228 1600 
Q 959 1441 959 1056 
Q 959 750 1161 570 
Q 1363 391 1709 391 
Q 2188 391 2477 730 
Q 2766 1069 2766 1631 
L 2766 1759 
L 2194 1759 
z
M 3341 1997 
L 3341 0 
L 2766 0 
L 2766 531 
Q 2569 213 2275 61 
Q 1981 -91 1556 -91 
Q 1019 -91 701 211 
Q 384 513 384 1019 
Q 384 1609 779 1909 
Q 1175 2209 1959 2209 
L 2766 2209 
L 2766 2266 
Q 2766 2663 2505 2880 
Q 2244 3097 1772 3097 
Q 1472 3097 1187 3025 
Q 903 2953 641 2809 
L 641 3341 
Q 956 3463 1253 3523 
Q 1550 3584 1831 3584 
Q 2591 3584 2966 3190 
Q 3341 2797 3341 1997 
z
" transform="scale(0.015625)"/>
       <path id="DejaVuSans-78" d="M 3513 3500 
L 2247 1797 
L 3578 0 
L 2900 0 
L 1881 1375 
L 863 0 
L 184 0 
L 1544 1831 
L 300 3500 
L 978 3500 
L 1906 2253 
L 2834 3500 
L 3513 3500 
z
" transform="scale(0.015625)"/>
       <path id="DejaVuSans-69" d="M 603 3500 
L 1178 3500 
L 1178 0 
L 603 0 
L 603 3500 
z
M 603 4863 
L 1178 4863 
L 1178 4134 
L 603 4134 
L 603 4863 
z
" transform="scale(0.015625)"/>
       <path id="DejaVuSans-6c" d="M 603 4863 
L 1178 4863 
L 1178 0 
L 603 0 
L 603 4863 
z
" transform="scale(0.015625)"/>
       <path id="DejaVuSans-52" d="M 2841 2188 
Q 3044 2119 3236 1894 
Q 3428 1669 3622 1275 
L 4263 0 
L 3584 0 
L 2988 1197 
Q 2756 1666 2539 1819 
Q 2322 1972 1947 1972 
L 1259 1972 
L 1259 0 
L 628 0 
L 628 4666 
L 2053 4666 
Q 2853 4666 3247 4331 
Q 3641 3997 3641 3322 
Q 3641 2881 3436 2590 
Q 3231 2300 2841 2188 
z
M 1259 4147 
L 1259 2491 
L 2053 2491 
Q 2509 2491 2742 2702 
Q 2975 2913 2975 3322 
Q 2975 3731 2742 3939 
Q 2509 4147 2053 4147 
L 1259 4147 
z
" transform="scale(0.015625)"/>
       <path id="DejaVuSans-6f" d="M 1959 3097 
Q 1497 3097 1228 2736 
Q 959 2375 959 1747 
Q 959 1119 1226 758 
Q 1494 397 1959 397 
Q 2419 397 2687 759 
Q 2956 1122 2956 1747 
Q 2956 2369 2687 2733 
Q 2419 3097 1959 3097 
z
M 1959 3584 
Q 2709 3584 3137 3096 
Q 3566 2609 3566 1747 
Q 3566 888 3137 398 
Q 2709 -91 1959 -91 
Q 1206 -91 779 398 
Q 353 888 353 1747 
Q 353 2609 779 3096 
Q 1206 3584 1959 3584 
z
" transform="scale(0.015625)"/>
       <path id="DejaVuSans-74" d="M 1172 4494 
L 1172 3500 
L 2356 3500 
L 2356 3053 
L 1172 3053 
L 1172 1153 
Q 1172 725 1289 603 
Q 1406 481 1766 481 
L 2356 481 
L 2356 0 
L 1766 0 
Q 1100 0 847 248 
Q 594 497 594 1153 
L 594 3053 
L 172 3053 
L 172 3500 
L 594 3500 
L 594 4494 
L 1172 4494 
z
" transform="scale(0.015625)"/>
       <path id="DejaVuSans-6e" d="M 3513 2113 
L 3513 0 
L 2938 0 
L 2938 2094 
Q 2938 2591 2744 2837 
Q 2550 3084 2163 3084 
Q 1697 3084 1428 2787 
Q 1159 2491 1159 1978 
L 1159 0 
L 581 0 
L 581 3500 
L 1159 3500 
L 1159 2956 
Q 1366 3272 1645 3428 
Q 1925 3584 2291 3584 
Q 2894 3584 3203 3211 
Q 3513 2838 3513 2113 
z
" transform="scale(0.015625)"/>
      </defs>
      <use xlink:href="#DejaVuSans-61"/>
      <use xlink:href="#DejaVuSans-78" x="61.279297"/>
      <use xlink:href="#DejaVuSans-69" x="120.458984"/>
      <use xlink:href="#DejaVuSans-61" x="148.242188"/>
      <use xlink:href="#DejaVuSans-6c" x="209.521484"/>
      <use xlink:href="#DejaVuSans-52" x="237.304688"/>
      <use xlink:href="#DejaVuSans-6f" x="302.287109"/>
      <use xlink:href="#DejaVuSans-74" x="363.46875"/>
      <use xlink:href="#DejaVuSans-61" x="402.677734"/>
      <use xlink:href="#DejaVuSans-74" x="463.957031"/>
      <use xlink:href="#DejaVuSans-69" x="503.166016"/>
      <use xlink:href="#DejaVuSans-6f" x="530.949219"/>
      <use xlink:href="#DejaVuSans-6e" x="592.130859"/>
     </g>
    </g>
   </g>
   <g id="matplotlib.axis_2">
    <g id="ytick_1">
     <g id="line2d_7">
      <defs>
       <path id="m2c07a5d154" d="M 0 0 
L -3.5 0 
" style="stroke: #000000; stroke-width: 0.8"/>
      </defs>
      <g>
       <use xlink:href="#m2c07a5d154" x="34.240625" y="288.21825" style="stroke: #000000; stroke-width: 0.8"/>
      </g>
     </g>
     <g id="text_8">
      <!-- 0 -->
      <g transform="translate(20.878125 292.017469)scale(0.1 -0.1)">
       <use xlink:href="#DejaVuSans-30"/>
      </g>
     </g>
    </g>
    <g id="ytick_2">
     <g id="line2d_8">
      <g>
       <use xlink:href="#m2c07a5d154" x="34.240625" y="243.86625" style="stroke: #000000; stroke-width: 0.8"/>
      </g>
     </g>
     <g id="text_9">
      <!-- 1 -->
      <g transform="translate(20.878125 247.665469)scale(0.1 -0.1)">
       <use xlink:href="#DejaVuSans-31"/>
      </g>
     </g>
    </g>
    <g id="ytick_3">
     <g id="line2d_9">
      <g>
       <use xlink:href="#m2c07a5d154" x="34.240625" y="199.51425" style="stroke: #000000; stroke-width: 0.8"/>
      </g>
     </g>
     <g id="text_10">
      <!-- 2 -->
      <g transform="translate(20.878125 203.313469)scale(0.1 -0.1)">
       <use xlink:href="#DejaVuSans-32"/>
      </g>
     </g>
    </g>
    <g id="ytick_4">
     <g id="line2d_10">
      <g>
       <use xlink:href="#m2c07a5d154" x="34.240625" y="155.16225" style="stroke: #000000; stroke-width: 0.8"/>
      </g>
     </g>
     <g id="text_11">
      <!-- 3 -->
      <g transform="translate(20.878125 158.961469)scale(0.1 -0.1)">
       <defs>
        <path id="DejaVuSans-33" d="M 2597 2516 
Q 3050 2419 3304 2112 
Q 3559 1806 3559 1356 
Q 3559 666 3084 287 
Q 2609 -91 1734 -91 
Q 1441 -91 1130 -33 
Q 819 25 488 141 
L 488 750 
Q 750 597 1062 519 
Q 1375 441 1716 441 
Q 2309 441 2620 675 
Q 2931 909 2931 1356 
Q 2931 1769 2642 2001 
Q 2353 2234 1838 2234 
L 1294 2234 
L 1294 2753 
L 1863 2753 
Q 2328 2753 2575 2939 
Q 2822 3125 2822 3475 
Q 2822 3834 2567 4026 
Q 2313 4219 1838 4219 
Q 1578 4219 1281 4162 
Q 984 4106 628 3988 
L 628 4550 
Q 988 4650 1302 4700 
Q 1616 4750 1894 4750 
Q 2613 4750 3031 4423 
Q 3450 4097 3450 3541 
Q 3450 3153 3228 2886 
Q 3006 2619 2597 2516 
z
" transform="scale(0.015625)"/>
       </defs>
       <use xlink:href="#DejaVuSans-33"/>
      </g>
     </g>
    </g>
    <g id="ytick_5">
     <g id="line2d_11">
      <g>
       <use xlink:href="#m2c07a5d154" x="34.240625" y="110.81025" style="stroke: #000000; stroke-width: 0.8"/>
      </g>
     </g>
     <g id="text_12">
      <!-- 4 -->
      <g transform="translate(20.878125 114.609469)scale(0.1 -0.1)">
       <use xlink:href="#DejaVuSans-34"/>
      </g>
     </g>
    </g>
    <g id="ytick_6">
     <g id="line2d_12">
      <g>
       <use xlink:href="#m2c07a5d154" x="34.240625" y="66.45825" style="stroke: #000000; stroke-width: 0.8"/>
      </g>
     </g>
     <g id="text_13">
      <!-- 5 -->
      <g transform="translate(20.878125 70.257469)scale(0.1 -0.1)">
       <defs>
        <path id="DejaVuSans-35" d="M 691 4666 
L 3169 4666 
L 3169 4134 
L 1269 4134 
L 1269 2991 
Q 1406 3038 1543 3061 
Q 1681 3084 1819 3084 
Q 2600 3084 3056 2656 
Q 3513 2228 3513 1497 
Q 3513 744 3044 326 
Q 2575 -91 1722 -91 
Q 1428 -91 1123 -41 
Q 819 9 494 109 
L 494 744 
Q 775 591 1075 516 
Q 1375 441 1709 441 
Q 2250 441 2565 725 
Q 2881 1009 2881 1497 
Q 2881 1984 2565 2268 
Q 2250 2553 1709 2553 
Q 1456 2553 1204 2497 
Q 953 2441 691 2322 
L 691 4666 
z
" transform="scale(0.015625)"/>
       </defs>
       <use xlink:href="#DejaVuSans-35"/>
      </g>
     </g>
    </g>
    <g id="ytick_7">
     <g id="line2d_13">
      <g>
       <use xlink:href="#m2c07a5d154" x="34.240625" y="22.10625" style="stroke: #000000; stroke-width: 0.8"/>
      </g>
     </g>
     <g id="text_14">
      <!-- 6 -->
      <g transform="translate(20.878125 25.905469)scale(0.1 -0.1)">
       <use xlink:href="#DejaVuSans-36"/>
      </g>
     </g>
    </g>
    <g id="text_15">
     <!-- zShift -->
     <g transform="translate(14.798438 169.151312)rotate(-90)scale(0.1 -0.1)">
      <defs>
       <path id="DejaVuSans-7a" d="M 353 3500 
L 3084 3500 
L 3084 2975 
L 922 459 
L 3084 459 
L 3084 0 
L 275 0 
L 275 525 
L 2438 3041 
L 353 3041 
L 353 3500 
z
" transform="scale(0.015625)"/>
       <path id="DejaVuSans-53" d="M 3425 4513 
L 3425 3897 
Q 3066 4069 2747 4153 
Q 2428 4238 2131 4238 
Q 1616 4238 1336 4038 
Q 1056 3838 1056 3469 
Q 1056 3159 1242 3001 
Q 1428 2844 1947 2747 
L 2328 2669 
Q 3034 2534 3370 2195 
Q 3706 1856 3706 1288 
Q 3706 609 3251 259 
Q 2797 -91 1919 -91 
Q 1588 -91 1214 -16 
Q 841 59 441 206 
L 441 856 
Q 825 641 1194 531 
Q 1563 422 1919 422 
Q 2459 422 2753 634 
Q 3047 847 3047 1241 
Q 3047 1584 2836 1778 
Q 2625 1972 2144 2069 
L 1759 2144 
Q 1053 2284 737 2584 
Q 422 2884 422 3419 
Q 422 4038 858 4394 
Q 1294 4750 2059 4750 
Q 2388 4750 2728 4690 
Q 3069 4631 3425 4513 
z
" transform="scale(0.015625)"/>
       <path id="DejaVuSans-68" d="M 3513 2113 
L 3513 0 
L 2938 0 
L 2938 2094 
Q 2938 2591 2744 2837 
Q 2550 3084 2163 3084 
Q 1697 3084 1428 2787 
Q 1159 2491 1159 1978 
L 1159 0 
L 581 0 
L 581 4863 
L 1159 4863 
L 1159 2956 
Q 1366 3272 1645 3428 
Q 1925 3584 2291 3584 
Q 2894 3584 3203 3211 
Q 3513 2838 3513 2113 
z
" transform="scale(0.015625)"/>
       <path id="DejaVuSans-66" d="M 2375 4863 
L 2375 4384 
L 1825 4384 
Q 1516 4384 1395 4259 
Q 1275 4134 1275 3809 
L 1275 3500 
L 2222 3500 
L 2222 3053 
L 1275 3053 
L 1275 0 
L 697 0 
L 697 3053 
L 147 3053 
L 147 3500 
L 697 3500 
L 697 3744 
Q 697 4328 969 4595 
Q 1241 4863 1831 4863 
L 2375 4863 
z
" transform="scale(0.015625)"/>
      </defs>
      <use xlink:href="#DejaVuSans-7a"/>
      <use xlink:href="#DejaVuSans-53" x="52.490234"/>
      <use xlink:href="#DejaVuSans-68" x="115.966797"/>
      <use xlink:href="#DejaVuSans-69" x="179.345703"/>
      <use xlink:href="#DejaVuSans-66" x="207.128906"/>
      <use xlink:href="#DejaVuSans-74" x="240.583984"/>
     </g>
    </g>
   </g>
   <g id="PathCollection_1"/>
   <g id="PathCollection_2">
    <path d="M 216.854284 288.21825 
L 216.587231 285.55713 
L 216.381026 282.89601 
L 216.222788 280.23489 
L 216.102404 277.57377 
L 216.011829 274.91265 
L 215.944594 272.25153 
L 215.895469 269.59041 
L 215.860213 266.92929 
L 215.832089 263.82465 
L 215.816067 261.16353 
L 215.805317 258.50241 
L 215.798273 255.84129 
L 215.793787 253.18017 
L 215.791054 250.51905 
L 215.789549 247.85793 
L 215.788969 245.19681 
L 215.789195 242.53569 
L 215.790274 239.87457 
L 215.792425 237.21345 
L 215.796069 234.55233 
L 215.801883 231.89121 
L 215.810855 229.23009 
L 215.824354 226.56897 
L 215.844202 223.90785 
L 215.878547 220.80321 
L 215.921023 218.14209 
L 215.979514 215.48097 
L 216.058693 212.81985 
L 216.164299 210.15873 
L 216.303403 207.49761 
L 216.484797 204.83649 
L 216.719549 202.17537 
L 217.021803 199.51425 
L 217.300337 197.563329 
L 217.382822 196.85313 
L 217.757418 194.19201 
L 218.238417 191.53089 
L 218.858535 188.86977 
L 219.085937 188.0399 
L 219.551759 186.20865 
L 220.397902 183.54753 
L 220.871537 182.299532 
L 221.42297 180.88641 
L 222.657137 178.280203 
L 222.686081 178.22529 
L 224.478449 175.168804 
L 224.5126 175.12065 
L 226.264049 172.693314 
L 226.457002 172.45953 
L 228.049649 170.425936 
L 228.536405 169.79841 
L 229.835249 167.887036 
L 230.246311 167.13729 
L 231.425231 164.47617 
L 231.656561 163.812895 
L 232.14406 161.81505 
L 232.62722 159.15393 
L 232.978895 156.49281 
L 233.229968 153.83169 
L 233.405515 151.17057 
L 233.442161 150.359801 
L 233.501462 148.50945 
L 233.558315 145.84833 
L 233.595162 143.18721 
L 233.618221 140.52609 
L 233.631825 137.86497 
L 233.638778 135.20385 
L 233.640465 132.09921 
L 233.636776 129.43809 
L 233.627502 126.77697 
L 233.610637 124.11585 
L 233.582807 121.45473 
L 233.538965 118.79361 
L 233.471967 116.13249 
L 233.442161 115.33497 
L 233.343531 113.47137 
L 233.138714 110.81025 
L 232.846312 108.14913 
L 232.436526 105.48801 
L 231.871739 102.82689 
L 231.656561 102.065525 
L 230.87878 100.16577 
L 229.835249 98.163861 
L 229.386557 97.50465 
L 228.049649 95.826675 
L 227.230956 94.84353 
L 226.264049 93.765219 
L 225.028871 92.18241 
L 224.478449 91.470219 
L 223.226283 89.52129 
L 222.657137 88.552102 
L 221.597226 86.41665 
L 220.871537 84.675557 
L 220.507643 83.75553 
L 219.610789 81.09441 
L 219.085937 79.119244 
L 218.893087 78.43329 
L 218.254104 75.77217 
L 217.76144 73.11105 
L 217.38019 70.44993 
L 217.300337 69.771641 
L 217.01599 67.78881 
L 216.714163 65.12769 
L 216.481395 62.46657 
L 216.30346 59.80545 
L 216.169492 57.14433 
L 216.071211 54.48321 
L 216.00241 51.82209 
L 215.958628 49.16097 
L 215.936953 46.49985 
L 215.93771 43.39521 
L 215.960701 40.73409 
L 216.005842 38.07297 
L 216.076049 35.41185 
L 216.175753 32.75073 
L 216.311082 30.08961 
L 216.490175 27.42849 
L 216.723671 24.76737 
L 217.025465 22.10625 
" clip-path="url(#pc0afd3170c)" style="fill: none; stroke: #deebf7; stroke-width: 1.5"/>
    <path d="M 369.445386 22.10625 
L 369.672967 24.76737 
L 369.826289 27.075747 
L 369.856598 27.42849 
L 370.03977 30.08961 
L 370.179127 32.75073 
L 370.283939 35.41185 
L 370.361641 38.07297 
L 370.418217 40.73409 
L 370.458463 43.39521 
L 370.489773 46.49985 
L 370.506424 49.16097 
L 370.515753 51.82209 
L 370.518922 54.48321 
L 370.516344 57.14433 
L 370.507686 59.80545 
L 370.491869 62.46657 
L 370.467048 65.12769 
L 370.430582 67.78881 
L 370.378975 70.44993 
L 370.307779 73.11105 
L 370.211449 75.77217 
L 370.083125 78.43329 
L 369.914303 81.09441 
L 369.826289 82.188224 
L 369.729672 83.75553 
L 369.521511 86.41665 
L 369.202371 89.52129 
L 368.844445 92.18241 
L 368.38514 94.84353 
L 368.040689 96.466224 
L 367.848079 97.50465 
L 367.252234 100.16577 
L 366.478879 102.82689 
L 366.219377 103.594941 
L 365.58963 105.48801 
L 364.476982 108.14913 
L 364.433777 108.243376 
L 363.156189 110.81025 
L 362.648177 111.70811 
L 361.499034 113.47137 
L 360.862577 114.402134 
L 359.500815 116.13249 
L 359.041265 116.734037 
L 357.422331 118.79361 
L 357.255665 119.030969 
L 355.816786 121.45473 
L 355.470065 122.162778 
L 354.773695 124.11585 
L 354.047315 126.77697 
L 353.684465 128.550151 
L 353.558171 129.43809 
L 353.282339 132.09921 
L 353.060742 135.20385 
L 352.933384 137.86497 
L 352.847183 140.52609 
L 352.790245 143.18721 
L 352.753708 145.84833 
L 352.731192 148.50945 
L 352.718331 151.17057 
L 352.712408 153.83169 
L 352.7121 156.49281 
L 352.717344 159.15393 
L 352.72933 161.81505 
L 352.750624 164.47617 
L 352.785416 167.13729 
L 352.839905 169.79841 
L 352.922793 172.45953 
L 353.045907 175.12065 
L 353.261586 178.22529 
L 353.53218 180.88641 
L 353.684465 181.969492 
L 354.008122 183.54753 
L 354.745289 186.20865 
L 355.470065 188.18112 
L 355.826395 188.86977 
L 357.255665 191.115363 
L 357.573113 191.53089 
L 359.041265 193.22901 
L 359.838769 194.19201 
L 360.862577 195.38327 
L 361.926363 196.85313 
L 362.648177 197.89605 
L 363.592377 199.51425 
L 364.433777 201.154169 
L 364.905765 202.17537 
L 365.951307 204.83649 
L 366.219377 205.646112 
L 366.833564 207.49761 
L 367.541362 210.15873 
L 368.040689 212.579295 
L 368.096219 212.81985 
L 368.62678 215.48097 
L 369.03788 218.14209 
L 369.356909 220.80321 
L 369.639732 223.90785 
L 369.822895 226.56897 
L 369.826289 226.630634 
L 370.013003 229.23009 
L 370.158822 231.89121 
L 370.268736 234.55233 
L 370.350439 237.21345 
L 370.410128 239.87457 
L 370.452776 242.53569 
L 370.48232 245.19681 
L 370.501788 247.85793 
L 370.51338 250.51905 
L 370.518509 253.18017 
L 370.517838 255.84129 
L 370.511278 258.50241 
L 370.497999 261.16353 
L 370.476412 263.82465 
L 370.437514 266.92929 
L 370.388668 269.59041 
L 370.321027 272.25153 
L 370.229233 274.91265 
L 370.106653 277.57377 
L 369.945066 280.23489 
L 369.826289 281.762419 
L 369.75884 282.89601 
L 369.55894 285.55713 
L 369.301627 288.21825 
" clip-path="url(#pc0afd3170c)" style="fill: none; stroke: #deebf7; stroke-width: 1.5"/>
   </g>
   <g id="PathCollection_3">
    <path d="M 220.216006 288.21825 
L 219.88025 285.55713 
L 219.621098 282.89601 
L 219.422268 280.23489 
L 219.271002 277.57377 
L 219.157167 274.91265 
L 219.085937 272.677078 
L 219.069657 272.25153 
L 218.994013 269.59041 
L 218.939663 266.92929 
L 218.896249 263.82465 
L 218.871483 261.16353 
L 218.854841 258.50241 
L 218.843921 255.84129 
L 218.836954 253.18017 
L 218.832694 250.51905 
L 218.830327 247.85793 
L 218.829376 245.19681 
L 218.829648 242.53569 
L 218.831197 239.87457 
L 218.834339 237.21345 
L 218.839691 234.55233 
L 218.84825 231.89121 
L 218.861479 229.23009 
L 218.881412 226.56897 
L 218.910757 223.90785 
L 218.961607 220.80321 
L 219.024577 218.14209 
L 219.085937 216.252643 
L 219.106693 215.48097 
L 219.202604 212.81985 
L 219.330538 210.15873 
L 219.49902 207.49761 
L 219.718616 204.83649 
L 220.002575 202.17537 
L 220.367758 199.51425 
L 220.835967 196.85313 
L 220.871537 196.681466 
L 221.366304 194.19201 
L 222.038974 191.53089 
L 222.657137 189.56211 
L 222.889112 188.86977 
L 223.937458 186.20865 
L 224.478449 185.04446 
L 225.298201 183.54753 
L 226.264049 181.96905 
L 227.08967 180.88641 
L 228.049649 179.665386 
L 229.414123 178.22529 
L 229.835249 177.753298 
L 231.656561 175.724142 
L 232.107441 175.12065 
L 233.442161 172.939806 
L 233.654184 172.45953 
L 234.587731 169.79841 
L 235.227761 167.376427 
L 235.273937 167.13729 
L 235.673055 164.47617 
L 235.968515 161.81505 
L 236.184758 159.15393 
L 236.340791 156.49281 
L 236.451526 153.83169 
L 236.528657 151.17057 
L 236.581277 148.50945 
L 236.616351 145.84833 
L 236.639108 143.18721 
L 236.653365 140.52609 
L 236.661802 137.86497 
L 236.666166 135.20385 
L 236.667373 132.09921 
L 236.665343 129.43809 
L 236.660009 126.77697 
L 236.650192 124.11585 
L 236.633906 121.45473 
L 236.608183 118.79361 
L 236.568825 116.13249 
L 236.510095 113.47137 
L 236.424339 110.81025 
L 236.301525 108.14913 
L 236.128658 105.48801 
L 235.888981 102.82689 
L 235.560797 100.16577 
L 235.227761 98.154722 
L 235.079022 97.50465 
L 234.280021 94.84353 
L 233.442161 92.751222 
L 233.114494 92.18241 
L 231.656561 90.140859 
L 231.091309 89.52129 
L 229.835249 88.323677 
L 228.049649 86.551389 
L 227.934492 86.41665 
L 226.264049 84.451013 
L 225.801835 83.75553 
L 224.478449 81.557235 
L 224.248687 81.09441 
L 223.089725 78.43329 
L 222.657137 77.230489 
L 222.17642 75.77217 
L 221.457437 73.11105 
L 220.900016 70.44993 
L 220.871537 70.287346 
L 220.415567 67.78881 
L 220.037319 65.12769 
L 219.745504 62.46657 
L 219.522309 59.80545 
L 219.354112 57.14433 
L 219.230515 54.48321 
L 219.14371 51.82209 
L 219.088064 49.16097 
L 219.085937 48.961488 
L 219.054018 46.49985 
L 219.053178 43.39521 
L 219.085937 40.75259 
L 219.086125 40.73409 
L 219.140226 38.07297 
L 219.224973 35.41185 
L 219.345691 32.75073 
L 219.509768 30.08961 
L 219.72702 27.42849 
L 220.010275 24.76737 
L 220.376269 22.10625 
" clip-path="url(#pc0afd3170c)" style="fill: none; stroke: #c6dbef; stroke-width: 1.5"/>
    <path d="M 366.06625 22.10625 
L 366.219377 23.376858 
L 366.403869 24.76737 
L 366.68472 27.42849 
L 366.900267 30.08961 
L 367.064277 32.75073 
L 367.187673 35.41185 
L 367.279206 38.07297 
L 367.345912 40.73409 
L 367.393427 43.39521 
L 367.430482 46.49985 
L 367.450289 49.16097 
L 367.461523 51.82209 
L 367.465585 54.48321 
L 367.463003 57.14433 
L 367.453446 59.80545 
L 367.435719 62.46657 
L 367.40775 65.12769 
L 367.366552 67.78881 
L 367.308161 70.44993 
L 367.22753 73.11105 
L 367.118375 75.77217 
L 366.972928 78.43329 
L 366.781586 81.09441 
L 366.532393 83.75553 
L 366.219377 86.34542 
L 366.211672 86.41665 
L 365.793456 89.52129 
L 365.325548 92.18241 
L 364.726811 94.84353 
L 364.433777 95.928565 
L 363.999303 97.50465 
L 363.098915 100.16577 
L 362.648177 101.290258 
L 361.950402 102.82689 
L 360.862577 104.881586 
L 360.469285 105.48801 
L 359.041265 107.530564 
L 358.499382 108.14913 
L 357.255665 109.581037 
L 356.053479 110.81025 
L 355.470065 111.46221 
L 353.864853 113.47137 
L 353.684465 113.738727 
L 352.488656 116.13249 
L 351.863153 117.742217 
L 351.571668 118.79361 
L 351.001077 121.45473 
L 350.576174 124.11585 
L 350.262385 126.77697 
L 350.077553 128.916662 
L 350.042572 129.43809 
L 349.912107 132.09921 
L 349.807284 135.20385 
L 349.747003 137.86497 
L 349.706168 140.52609 
L 349.679172 143.18721 
L 349.661835 145.84833 
L 349.651137 148.50945 
L 349.644999 151.17057 
L 349.64211 153.83169 
L 349.641818 156.49281 
L 349.644061 159.15393 
L 349.649363 161.81505 
L 349.658878 164.47617 
L 349.674496 167.13729 
L 349.699007 169.79841 
L 349.736322 172.45953 
L 349.791747 175.12065 
L 349.888793 178.22529 
L 350.01042 180.88641 
L 350.077553 181.94931 
L 350.208206 183.54753 
L 350.506671 186.20865 
L 350.91493 188.86977 
L 351.469132 191.53089 
L 351.863153 192.968665 
L 352.344643 194.19201 
L 353.684465 196.801043 
L 353.72197 196.85313 
L 355.470065 198.881204 
L 356.095943 199.51425 
L 357.255665 200.579899 
L 358.772415 202.17537 
L 359.041265 202.454824 
L 360.806571 204.83649 
L 360.862577 204.917975 
L 362.266753 207.49761 
L 362.648177 208.318085 
L 363.38781 210.15873 
L 364.250798 212.81985 
L 364.433777 213.493418 
L 364.956515 215.48097 
L 365.514888 218.14209 
L 365.948521 220.80321 
L 366.219377 222.940409 
L 366.352749 223.90785 
L 366.644994 226.56897 
L 366.869673 229.23009 
L 367.040976 231.89121 
L 367.170166 234.55233 
L 367.266267 237.21345 
L 367.336541 239.87457 
L 367.386818 242.53569 
L 367.421718 245.19681 
L 367.4448 247.85793 
L 367.458658 250.51905 
L 367.464981 253.18017 
L 367.46458 255.84129 
L 367.457404 258.50241 
L 367.442544 261.16353 
L 367.418215 263.82465 
L 367.374227 266.92929 
L 367.318888 269.59041 
L 367.242172 272.25153 
L 367.137987 274.91265 
L 366.998791 277.57377 
L 366.815256 280.23489 
L 366.575766 282.89601 
L 366.265689 285.55713 
L 366.219377 285.883677 
L 365.919838 288.21825 
" clip-path="url(#pc0afd3170c)" style="fill: none; stroke: #c6dbef; stroke-width: 1.5"/>
   </g>
   <g id="PathCollection_4">
    <path d="M 222.832164 288.21825 
L 222.657137 287.194283 
L 222.386395 285.55713 
L 222.038328 282.89601 
L 221.771232 280.23489 
L 221.567969 277.57377 
L 221.41494 274.91265 
L 221.301237 272.25153 
L 221.218054 269.59041 
L 221.158264 266.92929 
L 221.110478 263.82465 
L 221.083196 261.16353 
L 221.064851 258.50241 
L 221.052802 255.84129 
L 221.045104 253.18017 
L 221.040387 250.51905 
L 221.037748 247.85793 
L 221.036659 245.19681 
L 221.036897 242.53569 
L 221.038508 239.87457 
L 221.041823 237.21345 
L 221.047492 234.55233 
L 221.056574 231.89121 
L 221.070626 229.23009 
L 221.091816 226.56897 
L 221.123034 223.90785 
L 221.177159 220.80321 
L 221.244208 218.14209 
L 221.336643 215.48097 
L 221.461866 212.81985 
L 221.628934 210.15873 
L 221.848948 207.49761 
L 222.135631 204.83649 
L 222.506132 202.17537 
L 222.657137 201.29501 
L 222.968867 199.51425 
L 223.551545 196.85313 
L 224.293424 194.19201 
L 224.478449 193.627763 
L 225.272441 191.53089 
L 226.264049 189.367115 
L 226.554286 188.86977 
L 228.049649 186.574722 
L 228.372131 186.20865 
L 229.835249 184.59616 
L 231.036456 183.54753 
L 231.656561 182.977547 
L 233.442161 181.294905 
L 233.777604 180.88641 
L 235.227761 178.758275 
L 235.476091 178.22529 
L 236.616285 175.12065 
L 237.013361 173.681464 
L 237.264959 172.45953 
L 237.696752 169.79841 
L 238.024346 167.13729 
L 238.271067 164.47617 
L 238.454963 161.81505 
L 238.590259 159.15393 
L 238.688286 156.49281 
L 238.758091 153.83169 
L 238.806852 151.17057 
L 238.834673 148.952022 
L 238.839573 148.50945 
L 238.859327 145.84833 
L 238.872164 143.18721 
L 238.880212 140.52609 
L 238.884978 137.86497 
L 238.887463 135.20385 
L 238.88821 132.09921 
L 238.887173 129.43809 
L 238.884331 126.77697 
L 238.879041 124.11585 
L 238.870221 121.45473 
L 238.856265 118.79361 
L 238.834923 116.13249 
L 238.834673 116.111425 
L 238.799059 113.47137 
L 238.746715 110.81025 
L 238.671901 108.14913 
L 238.566901 105.48801 
L 238.421928 102.82689 
L 238.224609 100.16577 
L 237.959213 97.50465 
L 237.605478 94.84353 
L 237.136784 92.18241 
L 237.013361 91.622226 
L 236.375453 89.52129 
L 235.227761 86.742336 
L 235.02289 86.41665 
L 233.442161 84.398421 
L 232.73352 83.75553 
L 231.656561 82.893926 
L 229.835249 81.455278 
L 229.469884 81.09441 
L 228.049649 79.669558 
L 227.160612 78.43329 
L 226.264049 77.055283 
L 225.62719 75.77217 
L 224.524127 73.11105 
L 224.478449 72.981971 
L 223.712536 70.44993 
L 223.083047 67.78881 
L 222.657137 65.490769 
L 222.592083 65.12769 
L 222.201847 62.46657 
L 221.903062 59.80545 
L 221.677624 57.14433 
L 221.511688 54.48321 
L 221.394827 51.82209 
L 221.319492 49.16097 
L 221.280685 46.49985 
L 221.278175 43.39521 
L 221.312448 40.73409 
L 221.38259 38.07297 
L 221.493111 35.41185 
L 221.650956 32.75073 
L 221.865787 30.08961 
L 222.150447 27.42849 
L 222.521728 24.76737 
L 222.657137 23.981908 
L 222.98889 22.10625 
" clip-path="url(#pc0afd3170c)" style="fill: none; stroke: #9dcae1; stroke-width: 1.5"/>
    <path d="M 363.478816 22.10625 
L 363.917193 24.76737 
L 364.255318 27.42849 
L 364.433777 29.236416 
L 364.520633 30.08961 
L 364.732651 32.75073 
L 364.892234 35.41185 
L 365.010677 38.07297 
L 365.097059 40.73409 
L 365.158655 43.39521 
L 365.206777 46.49985 
L 365.232594 49.16097 
L 365.247365 51.82209 
L 365.252929 54.48321 
L 365.250008 57.14433 
L 365.23823 59.80545 
L 365.216123 62.46657 
L 365.181096 65.12769 
L 365.129395 67.78881 
L 365.056033 70.44993 
L 364.954653 73.11105 
L 364.817343 75.77217 
L 364.634333 78.43329 
L 364.433777 80.662582 
L 364.396578 81.09441 
L 364.106883 83.75553 
L 363.733409 86.41665 
L 363.162788 89.52129 
L 362.648177 91.702278 
L 362.524824 92.18241 
L 361.709374 94.84353 
L 360.862577 97.062455 
L 360.656647 97.50465 
L 359.228476 100.16577 
L 359.041265 100.477613 
L 357.255665 102.746565 
L 357.171351 102.82689 
L 355.470065 104.463202 
L 354.267731 105.48801 
L 353.684465 106.032017 
L 351.863153 108.086333 
L 351.823609 108.14913 
L 350.444811 110.81025 
L 350.077553 111.719466 
L 349.572232 113.47137 
L 348.976462 116.13249 
L 348.525995 118.79361 
L 348.291953 120.604248 
L 348.202678 121.45473 
L 347.986459 124.11585 
L 347.825014 126.77697 
L 347.706198 129.43809 
L 347.620182 132.09921 
L 347.5508 135.20385 
L 347.510767 137.86497 
L 347.483582 140.52609 
L 347.46558 143.18721 
L 347.454011 145.84833 
L 347.446871 148.50945 
L 347.442766 151.17057 
L 347.440809 153.83169 
L 347.440547 156.49281 
L 347.441926 159.15393 
L 347.445283 161.81505 
L 347.451366 164.47617 
L 347.461398 167.13729 
L 347.477172 169.79841 
L 347.501189 172.45953 
L 347.536829 175.12065 
L 347.599119 178.22529 
L 347.676981 180.88641 
L 347.785356 183.54753 
L 347.933715 186.20865 
L 348.133842 188.86977 
L 348.291953 190.469957 
L 348.421797 191.53089 
L 348.847327 194.19201 
L 349.41545 196.85313 
L 350.077553 199.196045 
L 350.20636 199.51425 
L 351.579394 202.17537 
L 351.863153 202.614466 
L 353.684465 204.498693 
L 354.090603 204.83649 
L 355.470065 205.879507 
L 357.255665 207.412256 
L 357.331969 207.49761 
L 359.041265 209.497411 
L 359.455677 210.15873 
L 360.862577 212.721989 
L 360.905309 212.81985 
L 361.922 215.48097 
L 362.648177 217.89552 
L 362.714649 218.14209 
L 363.321378 220.80321 
L 363.860487 223.90785 
L 364.210294 226.56897 
L 364.433777 228.76323 
L 364.482833 229.23009 
L 364.703692 231.89121 
L 364.870369 234.55233 
L 364.994449 237.21345 
L 365.085263 239.87457 
L 365.150306 242.53569 
L 365.195524 245.19681 
L 365.225508 247.85793 
L 365.243614 250.51905 
L 365.25204 253.18017 
L 365.251865 255.84129 
L 365.243068 258.50241 
L 365.22453 261.16353 
L 365.19402 263.82465 
L 365.138717 266.92929 
L 365.069042 269.59041 
L 364.972365 272.25153 
L 364.840983 274.91265 
L 364.665363 277.57377 
L 364.433777 280.234177 
L 364.433718 280.23489 
L 364.153722 282.89601 
L 363.791542 285.55713 
L 363.325598 288.21825 
" clip-path="url(#pc0afd3170c)" style="fill: none; stroke: #9dcae1; stroke-width: 1.5"/>
   </g>
   <g id="PathCollection_5">
    <path d="M 225.374117 288.21825 
L 224.737593 285.55713 
L 224.478449 284.185669 
L 224.264182 282.89601 
L 223.915709 280.23489 
L 223.650514 277.57377 
L 223.45083 274.91265 
L 223.302421 272.25153 
L 223.193804 269.59041 
L 223.115693 266.92929 
L 223.053222 263.82465 
L 223.01753 261.16353 
L 222.99351 258.50241 
L 222.977721 255.84129 
L 222.967622 253.18017 
L 222.96142 250.51905 
L 222.957932 247.85793 
L 222.956458 245.19681 
L 222.956698 242.53569 
L 222.958698 239.87457 
L 222.962866 237.21345 
L 222.970023 234.55233 
L 222.981506 231.89121 
L 222.999291 229.23009 
L 223.026132 226.56897 
L 223.0657 223.90785 
L 223.134342 220.80321 
L 223.219406 218.14209 
L 223.336696 215.48097 
L 223.495575 212.81985 
L 223.707459 210.15873 
L 223.986288 207.49761 
L 224.349195 204.83649 
L 224.478449 204.075277 
L 224.838975 202.17537 
L 225.474334 199.51425 
L 226.264049 196.902929 
L 226.283147 196.85313 
L 227.477814 194.19201 
L 228.049649 193.10908 
L 229.226902 191.53089 
L 229.835249 190.780227 
L 231.656561 189.232557 
L 232.21365 188.86977 
L 233.442161 188.026339 
L 235.227761 186.575528 
L 235.527359 186.20865 
L 237.013361 184.013723 
L 237.214455 183.54753 
L 238.168967 180.88641 
L 238.834673 178.438332 
L 238.879013 178.22529 
L 239.412434 175.12065 
L 239.761787 172.45953 
L 240.032872 169.79841 
L 240.241478 167.13729 
L 240.40029 164.47617 
L 240.519635 161.81505 
L 240.607991 159.15393 
L 240.620273 158.650442 
L 240.670743 156.49281 
L 240.71544 153.83169 
L 240.746825 151.17057 
L 240.768374 148.50945 
L 240.782803 145.84833 
L 240.792185 143.18721 
L 240.798059 140.52609 
L 240.801533 137.86497 
L 240.803352 135.20385 
L 240.803935 132.09921 
L 240.803247 129.43809 
L 240.801282 126.77697 
L 240.797572 124.11585 
L 240.791343 121.45473 
L 240.781455 118.79361 
L 240.766326 116.13249 
L 240.743818 113.47137 
L 240.711118 110.81025 
L 240.664615 108.14913 
L 240.620273 106.322732 
L 240.599075 105.48801 
L 240.506994 102.82689 
L 240.382469 100.16577 
L 240.216478 97.50465 
L 239.997925 94.84353 
L 239.713033 92.18241 
L 239.344481 89.52129 
L 238.834673 86.701005 
L 238.767248 86.41665 
L 237.980798 83.75553 
L 237.013361 81.303374 
L 236.883661 81.09441 
L 235.227761 78.929821 
L 234.583308 78.43329 
L 233.442161 77.657044 
L 231.656561 76.636692 
L 230.494116 75.77217 
L 229.835249 75.274047 
L 228.049649 73.1418 
L 228.031738 73.11105 
L 226.67261 70.44993 
L 226.264049 69.486893 
L 225.709135 67.78881 
L 225.010682 65.12769 
L 224.478449 62.51597 
L 224.469567 62.46657 
L 224.082326 59.80545 
L 223.789728 57.14433 
L 223.574004 54.48321 
L 223.421718 51.82209 
L 223.323107 49.16097 
L 223.271667 46.49985 
L 223.266785 43.39521 
L 223.309455 40.73409 
L 223.398162 38.07297 
L 223.538597 35.41185 
L 223.739569 32.75073 
L 224.013346 30.08961 
L 224.376249 27.42849 
L 224.478449 26.830714 
L 224.876058 24.76737 
L 225.530332 22.10625 
" clip-path="url(#pc0afd3170c)" style="fill: none; stroke: #6aaed6; stroke-width: 1.5"/>
    <path d="M 360.957349 22.10625 
L 361.562686 24.76737 
L 362.02944 27.42849 
L 362.387277 30.08961 
L 362.648177 32.637856 
L 362.659087 32.75073 
L 362.858897 35.41185 
L 363.00725 38.07297 
L 363.115504 40.73409 
L 363.192758 43.39521 
L 363.253205 46.49985 
L 363.285732 49.16097 
L 363.304482 51.82209 
L 363.311784 54.48321 
L 363.308589 57.14433 
L 363.294494 59.80545 
L 363.267738 62.46657 
L 363.225182 65.12769 
L 363.162261 67.78881 
L 363.072899 70.44993 
L 362.949357 73.11105 
L 362.782013 75.77217 
L 362.648177 77.385992 
L 362.557378 78.43329 
L 362.259277 81.09441 
L 361.872559 83.75553 
L 361.375245 86.41665 
L 360.862577 88.567263 
L 360.587143 89.52129 
L 359.646313 92.18241 
L 359.041265 93.601894 
L 358.322843 94.84353 
L 357.255665 96.47218 
L 356.259687 97.50465 
L 355.470065 98.288151 
L 353.684465 99.572334 
L 352.803805 100.16577 
L 351.863153 100.861533 
L 350.077553 102.78943 
L 350.055402 102.82689 
L 348.733245 105.48801 
L 348.291953 106.629511 
L 347.871956 108.14913 
L 347.280118 110.81025 
L 346.822586 113.47137 
L 346.506353 115.83869 
L 346.472589 116.13249 
L 346.223649 118.79361 
L 346.03119 121.45473 
L 345.884271 124.11585 
L 345.773737 126.77697 
L 345.691913 129.43809 
L 345.632403 132.09921 
L 345.584203 135.20385 
L 345.556293 137.86497 
L 345.537292 140.52609 
L 345.52469 143.18721 
L 345.516591 145.84833 
L 345.5116 148.50945 
L 345.508733 151.17057 
L 345.507352 153.83169 
L 345.507128 156.49281 
L 345.508015 159.15393 
L 345.510245 161.81505 
L 345.514337 164.47617 
L 345.521128 167.13729 
L 345.531833 169.79841 
L 345.548134 172.45953 
L 345.572296 175.12065 
L 345.614437 178.22529 
L 345.666973 180.88641 
L 345.739851 183.54753 
L 345.839147 186.20865 
L 345.972205 188.86977 
L 346.147847 191.53089 
L 346.376673 194.19201 
L 346.506353 195.391741 
L 346.690682 196.85313 
L 347.11837 199.51425 
L 347.675767 202.17537 
L 348.291953 204.460857 
L 348.43601 204.83649 
L 349.716188 207.49761 
L 350.077553 208.101688 
L 351.863153 209.852889 
L 352.334633 210.15873 
L 353.684465 210.953745 
L 355.470065 212.054593 
L 356.327739 212.81985 
L 357.255665 213.68686 
L 358.498884 215.48097 
L 359.041265 216.372829 
L 359.80973 218.14209 
L 360.747743 220.80321 
L 360.862577 221.201454 
L 361.496874 223.90785 
L 361.974921 226.56897 
L 362.343342 229.23009 
L 362.62479 231.89121 
L 362.648177 232.177226 
L 362.833157 234.55233 
L 362.988002 237.21345 
L 363.101426 239.87457 
L 363.18274 242.53569 
L 363.239345 245.19681 
L 363.276959 247.85793 
L 363.299778 250.51905 
L 363.310562 253.18017 
L 363.31069 255.84129 
L 363.30018 258.50241 
L 363.277693 261.16353 
L 363.240515 263.82465 
L 363.17298 266.92929 
L 363.087798 269.59041 
L 362.969523 272.25153 
L 362.808713 274.91265 
L 362.648177 276.912267 
L 362.59256 277.57377 
L 362.303192 280.23489 
L 361.925898 282.89601 
L 361.437953 285.55713 
L 360.862577 288.009356 
L 360.80281 288.21825 
" clip-path="url(#pc0afd3170c)" style="fill: none; stroke: #6aaed6; stroke-width: 1.5"/>
   </g>
   <g id="PathCollection_6">
    <path d="M 228.683553 288.21825 
L 228.049649 287.129801 
L 227.478836 285.55713 
L 226.714961 282.89601 
L 226.264049 280.864644 
L 226.155395 280.23489 
L 225.794554 277.57377 
L 225.522867 274.91265 
L 225.320925 272.25153 
L 225.173092 269.59041 
L 225.066739 266.92929 
L 224.981634 263.82465 
L 224.932978 261.16353 
L 224.900211 258.50241 
L 224.878655 255.84129 
L 224.864853 253.18017 
L 224.85636 250.51905 
L 224.851557 247.85793 
L 224.849485 245.19681 
L 224.849716 242.53569 
L 224.852296 239.87457 
L 224.857749 237.21345 
L 224.867151 234.55233 
L 224.882261 231.89121 
L 224.905683 229.23009 
L 224.941052 226.56897 
L 224.993217 223.90785 
L 225.083737 220.80321 
L 225.195909 218.14209 
L 225.350516 215.48097 
L 225.559774 212.81985 
L 225.838476 210.15873 
L 226.204529 207.49761 
L 226.264049 207.153051 
L 226.765707 204.83649 
L 227.496798 202.17537 
L 228.049649 200.548692 
L 228.563518 199.51425 
L 229.835249 197.337958 
L 230.323039 196.85313 
L 231.656561 195.631312 
L 233.442161 194.717176 
L 234.758013 194.19201 
L 235.227761 193.994223 
L 237.013361 192.763348 
L 237.863261 191.53089 
L 238.834673 189.822076 
L 239.170031 188.86977 
L 239.969322 186.20865 
L 240.594767 183.54753 
L 240.620273 183.420717 
L 241.046671 180.88641 
L 241.411072 178.22529 
L 241.747103 175.12065 
L 241.972165 172.45953 
L 242.149605 169.79841 
L 242.287846 167.13729 
L 242.394092 164.47617 
L 242.405873 164.092087 
L 242.479697 161.81505 
L 242.544297 159.15393 
L 242.591665 156.49281 
L 242.625729 153.83169 
L 242.649723 151.17057 
L 242.666246 148.50945 
L 242.677329 145.84833 
L 242.684531 143.18721 
L 242.689026 140.52609 
L 242.69167 137.86497 
L 242.693055 135.20385 
L 242.693526 132.09921 
L 242.693061 129.43809 
L 242.69165 126.77697 
L 242.68893 124.11585 
L 242.684309 121.45473 
L 242.676939 118.79361 
L 242.66565 116.13249 
L 242.648874 113.47137 
L 242.624544 110.81025 
L 242.590005 108.14913 
L 242.541948 105.48801 
L 242.476365 102.82689 
L 242.405873 100.684482 
L 242.389671 100.16577 
L 242.281314 97.50465 
L 242.140038 94.84353 
L 241.958274 92.18241 
L 241.727107 89.52129 
L 241.380843 86.41665 
L 241.004117 83.75553 
L 240.620273 81.534269 
L 240.527556 81.09441 
L 239.862317 78.43329 
L 239.005385 75.77217 
L 238.834673 75.309713 
L 237.437265 73.11105 
L 237.013361 72.556058 
L 235.227761 71.489411 
L 233.442161 70.965337 
L 232.151847 70.44993 
L 231.656561 70.248539 
L 229.835249 68.700137 
L 229.234265 67.78881 
L 228.049649 65.680795 
L 227.84271 65.12769 
L 227.024649 62.46657 
L 226.391779 59.80545 
L 226.264049 59.116352 
L 225.97489 57.14433 
L 225.683884 54.48321 
L 225.477898 51.82209 
L 225.343947 49.16097 
L 225.273318 46.49985 
L 225.264871 43.39521 
L 225.320386 40.73409 
L 225.437445 38.07297 
L 225.623537 35.41185 
L 225.89029 32.75073 
L 226.253915 30.08961 
L 226.264049 30.031436 
L 226.84093 27.42849 
L 227.608045 24.76737 
L 228.049649 23.539179 
L 228.855278 22.10625 
" clip-path="url(#pc0afd3170c)" style="fill: none; stroke: #4191c6; stroke-width: 1.5"/>
    <path d="M 357.65029 22.10625 
L 358.859065 24.76737 
L 359.041265 25.267049 
L 359.589317 27.42849 
L 360.111606 30.08961 
L 360.508588 32.75073 
L 360.807115 35.41185 
L 360.862577 36.068222 
L 361.006409 38.07297 
L 361.146473 40.73409 
L 361.246499 43.39521 
L 361.324871 46.49985 
L 361.367171 49.16097 
L 361.391733 51.82209 
L 361.401606 54.48321 
L 361.398083 57.14433 
L 361.380727 59.80545 
L 361.347375 62.46657 
L 361.294119 65.12769 
L 361.215251 67.78881 
L 361.103172 70.44993 
L 360.948216 73.11105 
L 360.862577 74.209614 
L 360.720261 75.77217 
L 360.400994 78.43329 
L 359.983543 81.09441 
L 359.44436 83.75553 
L 359.041265 85.341135 
L 358.667515 86.41665 
L 357.329776 89.52129 
L 357.255665 89.666138 
L 355.470065 91.893728 
L 355.045725 92.18241 
L 353.684465 93.069516 
L 351.863153 93.808371 
L 350.077553 94.727667 
L 349.957066 94.84353 
L 348.291953 96.697541 
L 347.904705 97.50465 
L 346.833542 100.16577 
L 346.506353 101.162636 
L 346.104276 102.82689 
L 345.565787 105.48801 
L 345.133591 108.14913 
L 344.788218 110.81025 
L 344.685041 111.776176 
L 344.513472 113.47137 
L 344.293842 116.13249 
L 344.119935 118.79361 
L 343.984091 121.45473 
L 343.879564 124.11585 
L 343.800442 126.77697 
L 343.741591 129.43809 
L 343.698617 132.09921 
L 343.663675 135.20385 
L 343.643367 137.86497 
L 343.629502 140.52609 
L 343.620296 143.18721 
L 343.614387 145.84833 
L 343.610761 148.50945 
L 343.608687 151.17057 
L 343.607682 153.83169 
L 343.607489 156.49281 
L 343.608071 159.15393 
L 343.6096 161.81505 
L 343.61246 164.47617 
L 343.617253 167.13729 
L 343.624842 169.79841 
L 343.636401 172.45953 
L 343.65351 175.12065 
L 343.683285 178.22529 
L 343.720319 180.88641 
L 343.771565 183.54753 
L 343.841158 186.20865 
L 343.933976 188.86977 
L 344.055687 191.53089 
L 344.212814 194.19201 
L 344.412827 196.85313 
L 344.66423 199.51425 
L 344.685041 199.700451 
L 344.983135 202.17537 
L 345.385485 204.83649 
L 345.890259 207.49761 
L 346.506353 210.103674 
L 346.524192 210.15873 
L 347.54017 212.81985 
L 348.291953 214.381936 
L 349.31862 215.48097 
L 350.077553 216.180258 
L 351.863153 216.904831 
L 353.684465 217.453524 
L 354.936514 218.14209 
L 355.470065 218.449711 
L 357.255665 220.499969 
L 357.416847 220.80321 
L 358.787378 223.90785 
L 359.041265 224.626733 
L 359.532882 226.56897 
L 360.061415 229.23009 
L 360.466533 231.89121 
L 360.773376 234.55233 
L 360.862577 235.576156 
L 360.984024 237.21345 
L 361.129886 239.87457 
L 361.234571 242.53569 
L 361.307542 245.19681 
L 361.356131 247.85793 
L 361.38573 250.51905 
L 361.399906 253.18017 
L 361.400464 255.84129 
L 361.387476 258.50241 
L 361.359284 261.16353 
L 361.312479 263.82465 
L 361.227291 266.92929 
L 361.11973 269.59041 
L 360.970298 272.25153 
L 360.862577 273.674675 
L 360.752689 274.91265 
L 360.440236 277.57377 
L 360.028493 280.23489 
L 359.491824 282.89601 
L 359.041265 284.654479 
L 358.714184 285.55713 
L 357.517031 288.21825 
" clip-path="url(#pc0afd3170c)" style="fill: none; stroke: #4191c6; stroke-width: 1.5"/>
   </g>
   <g id="PathCollection_7">
    <path d="M 227.999599 274.91265 
L 227.698004 272.25153 
L 227.477193 269.59041 
L 227.318292 266.92929 
L 227.191074 263.82465 
L 227.118295 261.16353 
L 227.069248 258.50241 
L 227.036955 255.84129 
L 227.016252 253.18017 
L 227.003484 250.51905 
L 226.99622 247.85793 
L 226.993008 245.19681 
L 226.993185 242.53569 
L 226.996783 239.87457 
L 227.004527 237.21345 
L 227.017947 234.55233 
L 227.039552 231.89121 
L 227.073074 229.23009 
L 227.123718 226.56897 
L 227.198426 223.90785 
L 227.328028 220.80321 
L 227.488496 218.14209 
L 227.70934 215.48097 
L 228.007557 212.81985 
L 228.049649 212.531579 
L 228.56366 210.15873 
L 229.305686 207.49761 
L 229.835249 205.983996 
L 230.613239 204.83649 
L 231.656561 203.524898 
L 233.442161 202.84546 
L 235.227761 203.067947 
L 237.013361 203.357423 
L 238.834673 202.350188 
L 238.925289 202.17537 
L 240.21651 199.51425 
L 240.620273 198.546489 
L 241.059477 196.85313 
L 241.687361 194.19201 
L 242.22363 191.53089 
L 242.405873 190.520898 
L 242.673028 188.86977 
L 243.057083 186.20865 
L 243.383938 183.54753 
L 243.658412 180.88641 
L 243.88611 178.22529 
L 244.100311 175.12065 
L 244.191473 173.480742 
L 244.25866 172.45953 
L 244.402106 169.79841 
L 244.515311 167.13729 
L 244.603172 164.47617 
L 244.670167 161.81505 
L 244.720329 159.15393 
L 244.757196 156.49281 
L 244.783786 153.83169 
L 244.802585 151.17057 
L 244.815577 148.50945 
L 244.824308 145.84833 
L 244.829968 143.18721 
L 244.833468 140.52609 
L 244.835499 137.86497 
L 244.836554 135.20385 
L 244.836938 132.09921 
L 244.83664 129.43809 
L 244.83564 126.77697 
L 244.833635 124.11585 
L 244.83015 121.45473 
L 244.824533 118.79361 
L 244.815912 116.13249 
L 244.803123 113.47137 
L 244.784624 110.81025 
L 244.758412 108.14913 
L 244.721974 105.48801 
L 244.672265 102.82689 
L 244.605729 100.16577 
L 244.518319 97.50465 
L 244.405524 94.84353 
L 244.262389 92.18241 
L 244.191473 91.104291 
L 244.103066 89.52129 
L 243.887426 86.41665 
L 243.657433 83.75553 
L 243.379418 81.09441 
L 243.047628 78.43329 
L 242.657291 75.77217 
L 242.405873 74.237215 
L 242.19691 73.11105 
L 241.643206 70.44993 
L 240.996233 67.78881 
L 240.620273 66.35682 
L 240.077803 65.12769 
L 238.834673 62.696266 
L 238.336433 62.46657 
L 237.013361 61.894274 
L 235.227761 62.41404 
L 235.038314 62.46657 
L 233.442161 62.80423 
L 232.132571 62.46657 
L 231.656561 62.329758 
L 229.835249 60.010752 
L 229.754831 59.80545 
L 228.924267 57.14433 
L 228.301382 54.48321 
L 228.049649 52.991383 
L 227.91812 51.82209 
L 227.720436 49.16097 
L 227.615212 46.49985 
L 227.600596 43.39521 
L 227.67984 40.73409 
L 227.848991 38.07297 
L 228.049649 36.086198 
L 228.152181 35.41185 
L 228.725577 32.75073 
L 229.506034 30.08961 
L 229.835249 29.218882 
L 231.347016 27.42849 
L 231.656561 27.130053 
L 233.442161 27.140864 
L 233.908755 27.42849 
L 235.227761 28.420451 
L 236.957408 30.08961 
L 237.013361 30.15781 
L 238.834673 31.533421 
L 240.620273 31.256769 
L 241.736124 30.08961 
L 242.405873 29.533598 
L 244.155648 27.42849 
L 244.191473 27.393419 
L 246.012785 25.718394 
L 247.798385 24.796762 
L 249.583985 24.860714 
L 251.369585 25.896381 
L 252.984501 27.42849 
L 253.190897 27.668305 
L 254.976497 29.743052 
L 255.47451 30.08961 
L 256.762097 31.196744 
L 258.547697 31.017347 
L 259.458126 30.08961 
L 260.369009 29.344802 
L 261.98095 27.42849 
L 262.154609 27.259747 
L 263.940209 25.655171 
L 265.725809 24.775238 
L 267.547121 24.894785 
L 269.332721 25.982747 
L 270.840423 27.42849 
L 271.118321 27.754713 
L 272.903921 29.813627 
L 273.321028 30.08961 
L 274.725233 31.236841 
L 276.510833 30.949646 
L 277.325002 30.08961 
L 278.296433 29.266361 
L 279.835241 27.42849 
L 280.082033 27.187587 
L 281.903345 25.577934 
L 283.656717 24.76737 
L 283.688945 24.754615 
L 283.84564 24.76737 
L 285.474545 24.921035 
L 287.260145 26.04267 
L 288.694644 27.42849 
L 289.081457 27.886345 
L 290.867057 29.918288 
L 291.139996 30.08961 
L 292.652657 31.26046 
L 294.438257 30.90144 
L 295.181959 30.08961 
L 296.259569 29.147026 
L 297.690241 27.42849 
L 298.045169 27.080069 
L 299.830769 25.527986 
L 301.552823 24.76737 
L 301.616369 24.743323 
L 301.843349 24.76737 
L 303.437681 24.963342 
L 305.223281 26.134463 
L 306.551577 27.42849 
L 307.008881 27.974077 
L 308.794481 29.986221 
L 308.969167 30.08961 
L 310.615793 31.290436 
L 312.401393 30.824311 
L 313.053454 30.08961 
L 314.186993 29.066363 
L 315.546447 27.42849 
L 315.972593 27.008918 
L 317.793905 25.455435 
L 319.470623 24.76737 
L 319.579505 24.729046 
L 319.87315 24.76737 
L 321.365105 24.993482 
L 323.150705 26.196883 
L 324.408076 27.42849 
L 324.972017 28.105497 
L 326.757617 30.085229 
L 326.765491 30.08961 
L 328.543217 31.306766 
L 330.328817 30.769753 
L 330.915373 30.08961 
L 332.150129 28.943879 
L 333.403878 27.42849 
L 333.935729 26.903155 
L 335.721329 25.408889 
L 337.370578 24.76737 
L 337.506929 24.721844 
L 337.799936 24.76737 
L 339.328241 25.043448 
L 341.113841 26.297807 
L 342.254635 27.42849 
L 342.899441 28.21151 
L 344.589683 30.08961 
L 344.685041 30.222255 
L 346.506353 31.474417 
L 348.291953 31.008979 
L 349.214571 30.08961 
L 350.077553 29.398391 
L 351.863153 27.734257 
L 352.464197 27.42849 
L 353.684465 26.910091 
L 355.196634 27.42849 
L 355.470065 27.54124 
L 356.938836 30.08961 
L 357.255665 30.795688 
L 357.732756 32.75073 
L 358.225431 35.41185 
L 358.590839 38.07297 
L 358.857378 40.73409 
L 359.041265 43.304585 
L 359.045992 43.39521 
L 359.156072 46.49985 
L 359.215685 49.16097 
L 359.250586 51.82209 
L 359.265117 54.48321 
L 359.261191 57.14433 
L 359.238345 59.80545 
L 359.193751 62.46657 
L 359.122209 65.12769 
L 359.041265 67.160802 
L 359.007319 67.78881 
L 358.804348 70.44993 
L 358.525133 73.11105 
L 358.149767 75.77217 
L 357.654795 78.43329 
L 357.255665 80.103302 
L 356.854192 81.09441 
L 355.530495 83.75553 
L 355.470065 83.857365 
L 353.684465 85.135718 
L 351.863153 85.233774 
L 350.077553 84.857408 
L 348.291953 85.055295 
L 347.200334 86.41665 
L 346.506353 87.379413 
L 345.795128 89.52129 
L 345.01993 92.18241 
L 344.685041 93.481202 
L 344.413277 94.84353 
L 343.924922 97.50465 
L 343.504381 100.16577 
L 343.147601 102.82689 
L 342.899441 105.008567 
L 342.842636 105.48801 
L 342.562845 108.14913 
L 342.330123 110.81025 
L 342.139066 113.47137 
L 341.984306 116.13249 
L 341.860728 118.79361 
L 341.763561 121.45473 
L 341.688423 124.11585 
L 341.631332 126.77697 
L 341.588735 129.43809 
L 341.557534 132.09921 
L 341.532065 135.20385 
L 341.517195 137.86497 
L 341.507008 140.52609 
L 341.500237 143.18721 
L 341.495911 145.84833 
L 341.493285 148.50945 
L 341.491803 151.17057 
L 341.491085 153.83169 
L 341.490921 156.49281 
L 341.491278 159.15393 
L 341.492297 161.81505 
L 341.494272 164.47617 
L 341.497652 167.13729 
L 341.503048 169.79841 
L 341.511278 172.45953 
L 341.523432 175.12065 
L 341.544518 178.22529 
L 341.570689 180.88641 
L 341.606859 183.54753 
L 341.655919 186.20865 
L 341.721226 188.86977 
L 341.806585 191.53089 
L 341.91624 194.19201 
L 342.054874 196.85313 
L 342.227589 199.51425 
L 342.43984 202.17537 
L 342.697261 204.83649 
L 342.899441 206.618588 
L 342.995269 207.49761 
L 343.329001 210.15873 
L 343.725984 212.81985 
L 344.191313 215.48097 
L 344.685041 217.950462 
L 344.734705 218.14209 
L 345.478665 220.80321 
L 346.506353 223.838103 
L 346.558133 223.90785 
L 348.291953 226.007198 
L 350.077553 226.022462 
L 351.863153 225.478195 
L 353.684465 225.389775 
L 355.470065 226.484204 
L 355.523362 226.56897 
L 356.911721 229.23009 
L 357.255665 230.050703 
L 357.698349 231.89121 
L 358.190891 234.55233 
L 358.560541 237.21345 
L 358.832864 239.87457 
L 359.029016 242.53569 
L 359.041265 242.771831 
L 359.133552 245.19681 
L 359.201183 247.85793 
L 359.242547 250.51905 
L 359.262595 253.18017 
L 359.263862 255.84129 
L 359.246505 258.50241 
L 359.208296 261.16353 
L 359.144606 263.82465 
L 359.041265 266.589534 
L 359.023946 266.92929 
L 358.82544 269.59041 
L 358.549771 272.25153 
L 358.175154 274.91265 
L 357.674787 277.57377 
L 357.255665 279.285119 
L 356.836967 280.23489 
L 355.470065 282.677144 
L 355.00909 282.89601 
L 353.684465 283.422665 
L 352.340377 282.89601 
L 351.863153 282.671045 
L 350.077553 281.0116 
L 349.13605 280.23489 
L 348.291953 279.370224 
L 346.506353 278.835598 
L 344.685041 280.01353 
L 344.522214 280.23489 
L 342.899441 281.994501 
L 342.153829 282.89601 
L 341.113841 283.924112 
L 339.328241 285.220954 
L 337.800398 285.55713 
L 337.506929 285.612884 
L 337.322125 285.55713 
L 335.721329 284.992378 
L 333.935729 283.527671 
L 333.302698 282.89601 
L 332.150129 281.487449 
L 330.844964 280.23489 
L 330.328817 279.617554 
L 328.543217 279.003862 
L 326.757617 280.150911 
L 326.695712 280.23489 
L 324.972017 282.100257 
L 324.30688 282.89601 
L 323.150705 284.026714 
L 321.365105 285.274776 
L 319.888906 285.55713 
L 319.579505 285.608284 
L 319.419757 285.55713 
L 317.793905 284.947858 
L 315.972593 283.422233 
L 315.444299 282.89601 
L 314.186993 281.362425 
L 312.981234 280.23489 
L 312.401393 279.559984 
L 310.615793 279.017113 
L 308.842171 280.23489 
L 308.794481 280.261347 
L 307.008881 282.23007 
L 306.449409 282.89601 
L 305.223281 284.090111 
L 303.437681 285.307446 
L 301.90505 285.55713 
L 301.616369 285.59782 
L 301.49922 285.55713 
L 299.830769 284.8782 
L 298.045169 283.351201 
L 297.587278 282.89601 
L 296.259569 281.28 
L 295.108174 280.23489 
L 294.438257 279.478314 
L 292.652657 279.04247 
L 291.023004 280.23489 
L 290.867057 280.327033 
L 289.081457 282.316822 
L 288.591574 282.89601 
L 287.260145 284.183508 
L 285.474545 285.353626 
L 283.962765 285.55713 
L 283.688945 285.589054 
L 283.601521 285.55713 
L 281.903345 284.830102 
L 280.082033 283.243724 
L 279.73079 282.89601 
L 278.296433 281.157931 
L 277.248733 280.23489 
L 276.510833 279.42707 
L 274.725233 279.063012 
L 273.213429 280.23489 
L 272.903921 280.428378 
L 271.118321 282.447124 
L 270.735938 282.89601 
L 269.332721 284.244592 
L 267.547121 285.382509 
L 265.900898 285.55713 
L 265.725809 285.573231 
L 265.684684 285.55713 
L 263.940209 284.755524 
L 262.154609 283.171517 
L 261.875303 282.89601 
L 260.369009 281.077683 
L 259.379423 280.23489 
L 258.547697 279.355111 
L 256.762097 279.099228 
L 255.374809 280.23489 
L 254.976497 280.497728 
L 253.190897 282.533981 
L 252.879767 282.89601 
L 251.369585 284.334243 
L 249.583985 285.422567 
L 247.840096 285.55713 
L 247.798385 285.559923 
L 247.79157 285.55713 
L 246.012785 284.700856 
L 244.191473 283.052542 
L 244.033167 282.89601 
L 242.405873 280.926832 
L 241.59135 280.23489 
L 240.620273 279.210787 
L 238.834673 278.897793 
L 237.013361 280.199157 
L 236.983078 280.23489 
L 235.227761 281.895191 
L 233.918269 282.89601 
L 233.442161 283.197568 
L 231.656561 283.294714 
L 231.211728 282.89601 
L 229.835249 281.381121 
L 229.388494 280.23489 
L 228.581238 277.57377 
L 228.049649 275.248654 
L 227.999599 274.91265 
z
" clip-path="url(#pc0afd3170c)" style="fill: none; stroke: #2070b4; stroke-width: 1.5"/>
   </g>
   <g id="PathCollection_8">
    <path d="M 231.287785 263.82465 
L 231.004208 261.16353 
L 230.813141 258.50241 
L 230.68729 255.84129 
L 230.606501 253.18017 
L 230.556503 250.51905 
L 230.527766 247.85793 
L 230.514518 245.19681 
L 230.513996 242.53569 
L 230.526024 239.87457 
L 230.552972 237.21345 
L 230.60006 234.55233 
L 230.675944 231.89121 
L 230.793395 229.23009 
L 230.969917 226.56897 
L 231.2281 223.90785 
L 231.656561 220.89495 
L 232.644175 220.80321 
L 233.442161 220.747504 
L 233.459917 220.80321 
L 234.122302 223.90785 
L 234.480817 226.56897 
L 234.714429 229.23009 
L 234.864767 231.89121 
L 234.959613 234.55233 
L 235.017263 237.21345 
L 235.049207 239.87457 
L 235.061868 242.53569 
L 235.057688 245.19681 
L 235.035598 247.85793 
L 234.990903 250.51905 
L 234.914584 253.18017 
L 234.792175 255.84129 
L 234.602332 258.50241 
L 234.315291 261.16353 
L 233.891269 263.82465 
L 233.442161 265.721665 
L 231.656561 266.138726 
L 231.287785 263.82465 
z
" clip-path="url(#pc0afd3170c)" style="fill: none; stroke: #08509b; stroke-width: 1.5"/>
    <path d="M 244.118883 263.82465 
L 243.851123 261.16353 
L 243.670077 258.50241 
L 243.550322 255.84129 
L 243.472838 253.18017 
L 243.423906 250.51905 
L 243.394023 247.85793 
L 243.376879 245.19681 
L 243.368488 242.53569 
L 243.366528 239.87457 
L 243.369947 237.21345 
L 243.378814 234.55233 
L 243.394317 231.89121 
L 243.418817 229.23009 
L 243.455803 226.56897 
L 243.509676 223.90785 
L 243.600325 220.80321 
L 243.706991 218.14209 
L 243.843734 215.48097 
L 244.011374 212.81985 
L 244.191473 210.390378 
L 244.209222 210.15873 
L 244.451707 207.49761 
L 244.717721 204.83649 
L 244.997886 202.17537 
L 245.281783 199.51425 
L 245.55939 196.85313 
L 245.822271 194.19201 
L 246.012785 192.131141 
L 246.094326 191.53089 
L 246.435478 188.86977 
L 246.731436 186.20865 
L 246.984097 183.54753 
L 247.196862 180.88641 
L 247.373854 178.22529 
L 247.540854 175.12065 
L 247.654857 172.45953 
L 247.74598 169.79841 
L 247.798385 167.867234 
L 247.843538 167.13729 
L 247.9714 164.47617 
L 248.066764 161.81505 
L 248.137007 159.15393 
L 248.188124 156.49281 
L 248.224889 153.83169 
L 248.250977 151.17057 
L 248.26912 148.50945 
L 248.281327 145.84833 
L 248.289125 143.18721 
L 248.293751 140.52609 
L 248.29625 137.86497 
L 248.297463 135.20385 
L 248.297976 132.09921 
L 248.297822 129.43809 
L 248.296874 126.77697 
L 248.294575 124.11585 
L 248.290167 121.45473 
L 248.282756 118.79361 
L 248.271271 116.13249 
L 248.254318 113.47137 
L 248.229957 110.81025 
L 248.195476 108.14913 
L 248.147214 105.48801 
L 248.080457 102.82689 
L 247.989357 100.16577 
L 247.866774 97.50465 
L 247.798385 96.361707 
L 247.758424 94.84353 
L 247.670079 92.18241 
L 247.559157 89.52129 
L 247.395987 86.41665 
L 247.222311 83.75553 
L 247.012744 81.09441 
L 246.763097 78.43329 
L 246.470062 75.77217 
L 246.13211 73.11105 
L 246.012785 72.230304 
L 245.847571 70.44993 
L 245.587162 67.78881 
L 245.315476 65.12769 
L 245.044136 62.46657 
L 244.78818 59.80545 
L 244.565602 57.14433 
L 244.396771 54.48321 
L 244.304056 51.82209 
L 244.31203 49.16097 
L 244.448403 46.49985 
L 244.813519 43.39521 
L 245.349038 40.73409 
L 246.012785 38.501395 
L 246.236973 38.07297 
L 247.798385 35.896294 
L 249.583985 36.107914 
L 250.832242 38.07297 
L 251.369585 39.213189 
L 251.829176 40.73409 
L 252.411018 43.39521 
L 252.875388 46.49985 
L 253.138627 49.16097 
L 253.190897 49.96223 
L 253.317108 51.82209 
L 253.430194 54.48321 
L 253.495304 57.14433 
L 253.526479 59.80545 
L 253.533518 62.46657 
L 253.523134 65.12769 
L 253.49999 67.78881 
L 253.467511 70.44993 
L 253.428434 73.11105 
L 253.385094 75.77217 
L 253.339525 78.43329 
L 253.293448 81.09441 
L 253.24827 83.75553 
L 253.205118 86.41665 
L 253.190897 87.373813 
L 253.155115 89.52129 
L 253.11472 92.18241 
L 253.078702 94.84353 
L 253.047845 97.50465 
L 253.022531 100.16577 
L 253.00262 102.82689 
L 252.987481 105.48801 
L 252.976165 108.14913 
L 252.96768 110.81025 
L 252.961234 113.47137 
L 252.956358 116.13249 
L 252.95286 118.79361 
L 252.950668 121.45473 
L 252.949641 124.11585 
L 252.949474 126.77697 
L 252.949734 129.43809 
L 252.950003 132.09921 
L 252.95005 135.20385 
L 252.949982 137.86497 
L 252.950217 140.52609 
L 252.951261 143.18721 
L 252.953557 145.84833 
L 252.957394 148.50945 
L 252.962939 151.17057 
L 252.970388 153.83169 
L 252.98014 156.49281 
L 252.992885 159.15393 
L 253.009543 161.81505 
L 253.031046 164.47617 
L 253.058051 167.13729 
L 253.090714 169.79841 
L 253.128607 172.45953 
L 253.170812 175.12065 
L 253.190897 176.275009 
L 253.221194 178.22529 
L 253.265627 180.88641 
L 253.311671 183.54753 
L 253.358304 186.20865 
L 253.404437 188.86977 
L 253.448911 191.53089 
L 253.490569 194.19201 
L 253.528398 196.85313 
L 253.561683 199.51425 
L 253.590124 202.17537 
L 253.613842 204.83649 
L 253.633281 207.49761 
L 253.649034 210.15873 
L 253.66167 212.81985 
L 253.671627 215.48097 
L 253.679206 218.14209 
L 253.684651 220.80321 
L 253.688686 223.90785 
L 253.69059 226.56897 
L 253.691509 229.23009 
L 253.691775 231.89121 
L 253.691458 234.55233 
L 253.690228 237.21345 
L 253.687257 239.87457 
L 253.681143 242.53569 
L 253.669767 245.19681 
L 253.649996 247.85793 
L 253.617148 250.51905 
L 253.564213 253.18017 
L 253.480862 255.84129 
L 253.352317 258.50241 
L 253.190897 260.716235 
L 253.159698 261.16353 
L 252.886259 263.82465 
L 252.410513 266.92929 
L 251.819092 269.59041 
L 251.369585 271.062109 
L 250.812655 272.25153 
L 249.583985 274.211702 
L 247.798385 274.520411 
L 246.081927 272.25153 
L 246.012785 272.128802 
L 245.209952 269.59041 
L 244.602779 266.92929 
L 244.191473 264.3112 
L 244.118883 263.82465 
z
" clip-path="url(#pc0afd3170c)" style="fill: none; stroke: #08509b; stroke-width: 1.5"/>
    <path d="M 261.960208 263.82465 
L 261.692455 261.16353 
L 261.511383 258.50241 
L 261.391543 255.84129 
L 261.31387 253.18017 
L 261.264563 250.51905 
L 261.233976 247.85793 
L 261.215558 245.19681 
L 261.204928 242.53569 
L 261.199132 239.87457 
L 261.196154 237.21345 
L 261.194629 234.55233 
L 261.193709 231.89121 
L 261.19298 229.23009 
L 261.192359 226.56897 
L 261.191955 223.90785 
L 261.19193 220.80321 
L 261.19231 218.14209 
L 261.192922 215.48097 
L 261.193551 212.81985 
L 261.194017 210.15873 
L 261.194281 207.49761 
L 261.194464 204.83649 
L 261.194789 202.17537 
L 261.195458 199.51425 
L 261.196546 196.85313 
L 261.197953 194.19201 
L 261.199454 191.53089 
L 261.20081 188.86977 
L 261.201886 186.20865 
L 261.202708 183.54753 
L 261.203437 180.88641 
L 261.204264 178.22529 
L 261.205486 175.12065 
L 261.206685 172.45953 
L 261.207818 169.79841 
L 261.208667 167.13729 
L 261.209108 164.47617 
L 261.209182 161.81505 
L 261.209079 159.15393 
L 261.209033 156.49281 
L 261.20921 153.83169 
L 261.20962 151.17057 
L 261.210118 148.50945 
L 261.21049 145.84833 
L 261.210574 143.18721 
L 261.210351 140.52609 
L 261.209959 137.86497 
L 261.209623 135.20385 
L 261.209545 132.09921 
L 261.209791 129.43809 
L 261.210193 126.77697 
L 261.210527 124.11585 
L 261.210606 121.45473 
L 261.210372 118.79361 
L 261.209934 116.13249 
L 261.209497 113.47137 
L 261.209254 110.81025 
L 261.209274 108.14913 
L 261.209461 105.48801 
L 261.209596 102.82689 
L 261.209454 100.16577 
L 261.208917 97.50465 
L 261.208034 94.84353 
L 261.206991 92.18241 
L 261.206011 89.52129 
L 261.205136 86.41665 
L 261.204613 83.75553 
L 261.204193 81.09441 
L 261.203803 78.43329 
L 261.20357 75.77217 
L 261.203961 73.11105 
L 261.205875 70.44993 
L 261.21073 67.78881 
L 261.220599 65.12769 
L 261.238499 62.46657 
L 261.268899 59.80545 
L 261.318464 57.14433 
L 261.396996 54.48321 
L 261.518507 51.82209 
L 261.702339 49.16097 
L 261.974315 46.49985 
L 262.154609 45.312091 
L 262.464822 43.39521 
L 263.08731 40.73409 
L 263.940209 38.096266 
L 263.953759 38.07297 
L 265.725809 35.787381 
L 267.547121 36.170002 
L 268.700584 38.07297 
L 269.332721 39.479064 
L 269.709289 40.73409 
L 270.289784 43.39521 
L 270.755663 46.49985 
L 271.022877 49.16097 
L 271.118321 50.565011 
L 271.209189 51.82209 
L 271.336731 54.48321 
L 271.419406 57.14433 
L 271.471892 59.80545 
L 271.504453 62.46657 
L 271.524059 65.12769 
L 271.535377 67.78881 
L 271.54155 70.44993 
L 271.544727 73.11105 
L 271.546361 75.77217 
L 271.54736 78.43329 
L 271.548168 81.09441 
L 271.548879 83.75553 
L 271.549383 86.41665 
L 271.549542 89.52129 
L 271.549302 92.18241 
L 271.548877 94.84353 
L 271.548511 97.50465 
L 271.548409 100.16577 
L 271.548629 102.82689 
L 271.549053 105.48801 
L 271.549451 108.14913 
L 271.549607 110.81025 
L 271.549437 113.47137 
L 271.549033 116.13249 
L 271.548614 118.79361 
L 271.548407 121.45473 
L 271.548524 124.11585 
L 271.548901 126.77697 
L 271.549335 129.43809 
L 271.54959 132.09921 
L 271.549486 135.20385 
L 271.549108 137.86497 
L 271.548674 140.52609 
L 271.54842 143.18721 
L 271.548482 145.84833 
L 271.548828 148.50945 
L 271.54927 151.17057 
L 271.549569 153.83169 
L 271.549562 156.49281 
L 271.549254 159.15393 
L 271.548812 161.81505 
L 271.548476 164.47617 
L 271.548428 167.13729 
L 271.548695 169.79841 
L 271.549133 172.45953 
L 271.549505 175.12065 
L 271.549596 178.22529 
L 271.549332 180.88641 
L 271.548897 183.54753 
L 271.548529 186.20865 
L 271.548428 188.86977 
L 271.54865 191.53089 
L 271.549075 194.19201 
L 271.549475 196.85313 
L 271.549633 199.51425 
L 271.549465 202.17537 
L 271.549062 204.83649 
L 271.548644 207.49761 
L 271.548436 210.15873 
L 271.548551 212.81985 
L 271.548924 215.48097 
L 271.549345 218.14209 
L 271.549572 220.80321 
L 271.549393 223.90785 
L 271.548875 226.56897 
L 271.548158 229.23009 
L 271.547343 231.89121 
L 271.546329 234.55233 
L 271.544651 237.21345 
L 271.541383 239.87457 
L 271.535045 242.53569 
L 271.523455 245.19681 
L 271.503419 247.85793 
L 271.470187 250.51905 
L 271.416665 253.18017 
L 271.332405 255.84129 
L 271.202465 258.50241 
L 271.118321 259.64569 
L 271.013439 261.16353 
L 270.742187 263.82465 
L 270.270216 266.92929 
L 269.683441 269.59041 
L 269.332721 270.749606 
L 268.660491 272.25153 
L 267.547121 274.107839 
L 265.725809 274.564047 
L 263.940209 272.307162 
L 263.91629 272.25153 
L 263.060334 269.59041 
L 262.443335 266.92929 
L 262.154609 265.12493 
L 261.960208 263.82465 
z
" clip-path="url(#pc0afd3170c)" style="fill: none; stroke: #08509b; stroke-width: 1.5"/>
    <path d="M 279.814999 263.82465 
L 279.548678 261.16353 
L 279.368581 258.50241 
L 279.249388 255.84129 
L 279.172136 253.18017 
L 279.123096 250.51905 
L 279.092674 247.85793 
L 279.074356 245.19681 
L 279.06378 242.53569 
L 279.058011 239.87457 
L 279.055042 237.21345 
L 279.053513 234.55233 
L 279.052578 231.89121 
L 279.051821 229.23009 
L 279.051156 226.56897 
L 279.050682 223.90785 
L 279.050532 220.80321 
L 279.050755 218.14209 
L 279.051151 215.48097 
L 279.051492 212.81985 
L 279.051586 210.15873 
L 279.05138 207.49761 
L 279.050984 204.83649 
L 279.050612 202.17537 
L 279.050466 199.51425 
L 279.050624 196.85313 
L 279.051001 194.19201 
L 279.051393 191.53089 
L 279.051587 188.86977 
L 279.051478 186.20865 
L 279.051125 183.54753 
L 279.050719 180.88641 
L 279.050481 178.22529 
L 279.050578 175.12065 
L 279.050931 172.45953 
L 279.051337 169.79841 
L 279.051575 167.13729 
L 279.051516 164.47617 
L 279.051193 161.81505 
L 279.050781 159.15393 
L 279.050502 156.49281 
L 279.050509 153.83169 
L 279.050797 151.17057 
L 279.05121 148.50945 
L 279.051525 145.84833 
L 279.05157 143.18721 
L 279.051322 140.52609 
L 279.050914 137.86497 
L 279.050568 135.20385 
L 279.050486 132.09921 
L 279.050734 129.43809 
L 279.051142 126.77697 
L 279.051488 124.11585 
L 279.051585 121.45473 
L 279.05138 118.79361 
L 279.050984 116.13249 
L 279.050612 113.47137 
L 279.050466 110.81025 
L 279.050624 108.14913 
L 279.051002 105.48801 
L 279.051394 102.82689 
L 279.051588 100.16577 
L 279.051482 97.50465 
L 279.051134 94.84353 
L 279.050741 92.18241 
L 279.050529 89.52129 
L 279.050696 86.41665 
L 279.05118 83.75553 
L 279.05185 81.09441 
L 279.052611 78.43329 
L 279.053559 75.77217 
L 279.055126 73.11105 
L 279.058178 70.44993 
L 279.064096 67.78881 
L 279.07492 65.12769 
L 279.093631 62.46657 
L 279.124663 59.80545 
L 279.17464 57.14433 
L 279.253312 54.48321 
L 279.374619 51.82209 
L 279.557803 49.16097 
L 279.828551 46.49985 
L 280.082033 44.823853 
L 280.316998 43.39521 
L 280.948663 40.73409 
L 281.82171 38.07297 
L 281.903345 37.886533 
L 283.688945 35.730486 
L 285.474545 36.242769 
L 286.552746 38.07297 
L 287.260145 39.692878 
L 287.570368 40.73409 
L 288.147521 43.39521 
L 288.610758 46.49985 
L 288.876473 49.16097 
L 289.056071 51.82209 
L 289.081457 52.389634 
L 289.183506 54.48321 
L 289.267628 57.14433 
L 289.321033 59.80545 
L 289.354165 62.46657 
L 289.374117 65.12769 
L 289.385635 67.78881 
L 289.391918 70.44993 
L 289.395152 73.11105 
L 289.396817 75.77217 
L 289.397836 78.43329 
L 289.398661 81.09441 
L 289.399386 83.75553 
L 289.399901 86.41665 
L 289.400065 89.52129 
L 289.399822 92.18241 
L 289.39939 94.84353 
L 289.399019 97.50465 
L 289.398916 100.16577 
L 289.399141 102.82689 
L 289.399572 105.48801 
L 289.399977 108.14913 
L 289.400137 110.81025 
L 289.399964 113.47137 
L 289.399553 116.13249 
L 289.399127 118.79361 
L 289.398916 121.45473 
L 289.399035 124.11585 
L 289.399419 126.77697 
L 289.399861 129.43809 
L 289.40012 132.09921 
L 289.400014 135.20385 
L 289.39963 137.86497 
L 289.399188 140.52609 
L 289.398929 143.18721 
L 289.398992 145.84833 
L 289.399344 148.50945 
L 289.399794 151.17057 
L 289.400097 153.83169 
L 289.40009 156.49281 
L 289.399776 159.15393 
L 289.399326 161.81505 
L 289.398983 164.47617 
L 289.398934 167.13729 
L 289.399204 169.79841 
L 289.399649 172.45953 
L 289.400026 175.12065 
L 289.400115 178.22529 
L 289.399844 180.88641 
L 289.3994 183.54753 
L 289.399023 186.20865 
L 289.398918 188.86977 
L 289.399142 191.53089 
L 289.399573 194.19201 
L 289.399978 196.85313 
L 289.400137 199.51425 
L 289.399964 202.17537 
L 289.399553 204.83649 
L 289.399126 207.49761 
L 289.398914 210.15873 
L 289.39903 212.81985 
L 289.399409 215.48097 
L 289.399837 218.14209 
L 289.400068 220.80321 
L 289.399886 223.90785 
L 289.399359 226.56897 
L 289.398628 229.23009 
L 289.3978 231.89121 
L 289.396767 234.55233 
L 289.395059 237.21345 
L 289.391733 239.87457 
L 289.385283 242.53569 
L 289.373488 245.19681 
L 289.353097 247.85793 
L 289.319277 250.51905 
L 289.264806 253.18017 
L 289.179052 255.84129 
L 289.081457 257.806369 
L 289.049769 258.50241 
L 288.867184 261.16353 
L 288.597456 263.82465 
L 288.128106 266.92929 
L 287.544538 269.59041 
L 287.260145 270.536564 
L 286.513882 272.25153 
L 285.474545 274.032726 
L 283.688945 274.616594 
L 281.903345 272.510279 
L 281.790248 272.25153 
L 280.921462 269.59041 
L 280.295286 266.92929 
L 280.082033 265.617918 
L 279.814999 263.82465 
z
" clip-path="url(#pc0afd3170c)" style="fill: none; stroke: #08509b; stroke-width: 1.5"/>
    <path d="M 297.670612 263.82465 
L 297.406102 261.16353 
L 297.227239 258.50241 
L 297.108866 255.84129 
L 297.032147 253.18017 
L 296.983447 250.51905 
L 296.953236 247.85793 
L 296.935045 245.19681 
L 296.924543 242.53569 
L 296.918814 239.87457 
L 296.915866 237.21345 
L 296.914348 234.55233 
L 296.913419 231.89121 
L 296.912667 229.23009 
L 296.912006 226.56897 
L 296.911536 223.90785 
L 296.911387 220.80321 
L 296.911608 218.14209 
L 296.912002 215.48097 
L 296.91234 212.81985 
L 296.912434 210.15873 
L 296.912229 207.49761 
L 296.911836 204.83649 
L 296.911467 202.17537 
L 296.911321 199.51425 
L 296.911478 196.85313 
L 296.911853 194.19201 
L 296.912242 191.53089 
L 296.912434 188.86977 
L 296.912326 186.20865 
L 296.911976 183.54753 
L 296.911573 180.88641 
L 296.911337 178.22529 
L 296.911433 175.12065 
L 296.911783 172.45953 
L 296.912186 169.79841 
L 296.912422 167.13729 
L 296.912365 164.47617 
L 296.912044 161.81505 
L 296.911634 159.15393 
L 296.911357 156.49281 
L 296.911364 153.83169 
L 296.91165 151.17057 
L 296.91206 148.50945 
L 296.912373 145.84833 
L 296.912418 143.18721 
L 296.912171 140.52609 
L 296.911766 137.86497 
L 296.911423 135.20385 
L 296.911341 132.09921 
L 296.911588 129.43809 
L 296.911993 126.77697 
L 296.912336 124.11585 
L 296.912432 121.45473 
L 296.912229 118.79361 
L 296.911836 116.13249 
L 296.911467 113.47137 
L 296.911321 110.81025 
L 296.911479 108.14913 
L 296.911853 105.48801 
L 296.912243 102.82689 
L 296.912436 100.16577 
L 296.91233 97.50465 
L 296.911985 94.84353 
L 296.911594 92.18241 
L 296.911384 89.52129 
L 296.91155 86.41665 
L 296.91203 83.75553 
L 296.912696 81.09441 
L 296.913451 78.43329 
L 296.914393 75.77217 
L 296.915949 73.11105 
L 296.91898 70.44993 
L 296.924858 67.78881 
L 296.935606 65.12769 
L 296.954188 62.46657 
L 296.985006 59.80545 
L 297.034637 57.14433 
L 297.112763 54.48321 
L 297.233224 51.82209 
L 297.415124 49.16097 
L 297.683964 46.49985 
L 298.045169 44.099461 
L 298.1629 43.39521 
L 298.803702 40.73409 
L 299.68927 38.07297 
L 299.830769 37.754655 
L 301.616369 35.698029 
L 303.437681 36.359771 
L 304.407148 38.07297 
L 305.223281 40.020242 
L 305.434273 40.73409 
L 306.007902 43.39521 
L 306.468347 46.49985 
L 306.732479 49.16097 
L 306.911013 51.82209 
L 307.008881 54.026119 
L 307.031414 54.48321 
L 307.116595 57.14433 
L 307.170673 59.80545 
L 307.204223 62.46657 
L 307.224426 65.12769 
L 307.23609 67.78881 
L 307.242452 70.44993 
L 307.245727 73.11105 
L 307.247413 75.77217 
L 307.248444 78.43329 
L 307.24928 81.09441 
L 307.250014 83.75553 
L 307.250536 86.41665 
L 307.250702 89.52129 
L 307.250455 92.18241 
L 307.250018 94.84353 
L 307.249643 97.50465 
L 307.249538 100.16577 
L 307.249766 102.82689 
L 307.250203 105.48801 
L 307.250613 108.14913 
L 307.250775 110.81025 
L 307.2506 113.47137 
L 307.250183 116.13249 
L 307.249751 118.79361 
L 307.249538 121.45473 
L 307.249658 124.11585 
L 307.250048 126.77697 
L 307.250495 129.43809 
L 307.250758 132.09921 
L 307.25065 135.20385 
L 307.250261 137.86497 
L 307.249814 140.52609 
L 307.249551 143.18721 
L 307.249616 145.84833 
L 307.249972 148.50945 
L 307.250427 151.17057 
L 307.250735 153.83169 
L 307.250727 156.49281 
L 307.250409 159.15393 
L 307.249953 161.81505 
L 307.249606 164.47617 
L 307.249556 167.13729 
L 307.24983 169.79841 
L 307.25028 172.45953 
L 307.250662 175.12065 
L 307.250753 178.22529 
L 307.250478 180.88641 
L 307.250028 183.54753 
L 307.249647 186.20865 
L 307.24954 188.86977 
L 307.249767 191.53089 
L 307.250203 194.19201 
L 307.250613 196.85313 
L 307.250775 199.51425 
L 307.2506 202.17537 
L 307.250183 204.83649 
L 307.249751 207.49761 
L 307.249536 210.15873 
L 307.249654 212.81985 
L 307.250037 215.48097 
L 307.250471 218.14209 
L 307.250705 220.80321 
L 307.25052 223.90785 
L 307.249986 226.56897 
L 307.249247 229.23009 
L 307.248407 231.89121 
L 307.247362 234.55233 
L 307.245632 237.21345 
L 307.242264 239.87457 
L 307.235731 242.53569 
L 307.223785 245.19681 
L 307.203134 247.85793 
L 307.168882 250.51905 
L 307.113716 253.18017 
L 307.026865 255.84129 
L 307.008881 256.199355 
L 306.904795 258.50241 
L 306.723294 261.16353 
L 306.455156 263.82465 
L 305.988543 266.92929 
L 305.408332 269.59041 
L 305.223281 270.210666 
L 304.369872 272.25153 
L 303.437681 273.912375 
L 301.616369 274.646119 
L 299.830769 272.641378 
L 299.657658 272.25153 
L 298.775996 269.59041 
L 298.140618 266.92929 
L 298.045169 266.352054 
L 297.670612 263.82465 
z
" clip-path="url(#pc0afd3170c)" style="fill: none; stroke: #08509b; stroke-width: 1.5"/>
    <path d="M 315.527158 263.82465 
L 315.263637 261.16353 
L 315.085448 258.50241 
L 314.967524 255.84129 
L 314.891098 253.18017 
L 314.842584 250.51905 
L 314.812489 247.85793 
L 314.794368 245.19681 
L 314.783906 242.53569 
L 314.7782 239.87457 
L 314.775263 237.21345 
L 314.773752 234.55233 
L 314.772828 231.89121 
L 314.77208 229.23009 
L 314.771423 226.56897 
L 314.770956 223.90785 
L 314.77081 220.80321 
L 314.771032 218.14209 
L 314.771426 215.48097 
L 314.771766 212.81985 
L 314.771861 210.15873 
L 314.77166 207.49761 
L 314.77127 204.83649 
L 314.770904 202.17537 
L 314.770761 199.51425 
L 314.770919 196.85313 
L 314.771293 194.19201 
L 314.771682 191.53089 
L 314.771874 188.86977 
L 314.771767 186.20865 
L 314.771418 183.54753 
L 314.771017 180.88641 
L 314.770782 178.22529 
L 314.770878 175.12065 
L 314.771228 172.45953 
L 314.771629 169.79841 
L 314.771864 167.13729 
L 314.771807 164.47617 
L 314.771487 161.81505 
L 314.771079 159.15393 
L 314.770803 156.49281 
L 314.77081 153.83169 
L 314.771095 151.17057 
L 314.771504 148.50945 
L 314.771815 145.84833 
L 314.77186 143.18721 
L 314.771614 140.52609 
L 314.77121 137.86497 
L 314.770868 135.20385 
L 314.770786 132.09921 
L 314.771031 129.43809 
L 314.771434 126.77697 
L 314.771776 124.11585 
L 314.771871 121.45473 
L 314.771667 118.79361 
L 314.771274 116.13249 
L 314.770904 113.47137 
L 314.770758 110.81025 
L 314.770913 108.14913 
L 314.771284 105.48801 
L 314.77167 102.82689 
L 314.77186 100.16577 
L 314.771752 97.50465 
L 314.771406 94.84353 
L 314.771015 92.18241 
L 314.770804 89.52129 
L 314.770967 86.41665 
L 314.771445 83.75553 
L 314.772107 81.09441 
L 314.772859 78.43329 
L 314.773796 75.77217 
L 314.775345 73.11105 
L 314.778364 70.44993 
L 314.78422 67.78881 
L 314.794927 65.12769 
L 314.813439 62.46657 
L 314.844139 59.80545 
L 314.893581 57.14433 
L 314.971408 54.48321 
L 315.091407 51.82209 
L 315.272606 49.16097 
L 315.540399 46.49985 
L 315.972593 43.620287 
L 316.010911 43.39521 
L 316.66264 40.73409 
L 317.563199 38.07297 
L 317.793905 37.563244 
L 319.579505 35.657571 
L 321.365105 36.442949 
L 322.264489 38.07297 
L 323.150705 40.242741 
L 323.295203 40.73409 
L 323.866682 43.39521 
L 324.325437 46.49985 
L 324.588613 49.16097 
L 324.766505 51.82209 
L 324.884195 54.48321 
L 324.960444 57.14433 
L 324.972017 57.780493 
L 325.013973 59.80545 
L 325.048153 62.46657 
L 325.068684 65.12769 
L 325.080463 67.78881 
L 325.086784 70.44993 
L 325.089891 73.11105 
L 325.091301 75.77217 
L 325.09195 78.43329 
L 325.092295 81.09441 
L 325.09242 83.75553 
L 325.092206 86.41665 
L 325.09135 89.52129 
L 325.0901 92.18241 
L 325.088558 94.84353 
L 325.087006 97.50465 
L 325.085686 100.16577 
L 325.08469 102.82689 
L 325.083927 105.48801 
L 325.08319 108.14913 
L 325.082282 110.81025 
L 325.081136 113.47137 
L 325.079862 116.13249 
L 325.078695 118.79361 
L 325.077869 121.45473 
L 325.077494 124.11585 
L 325.077493 126.77697 
L 325.07764 129.43809 
L 325.077676 132.09921 
L 325.077378 135.20385 
L 325.076874 137.86497 
L 325.076346 140.52609 
L 325.076029 143.18721 
L 325.07606 145.84833 
L 325.076397 148.50945 
L 325.076842 151.17057 
L 325.077144 153.83169 
L 325.077134 156.49281 
L 325.076816 159.15393 
L 325.076363 161.81505 
L 325.076025 164.47617 
L 325.075995 167.13729 
L 325.076303 169.79841 
L 325.076805 172.45953 
L 325.077262 175.12065 
L 325.07748 178.22529 
L 325.077362 180.88641 
L 325.077125 183.54753 
L 325.07703 186.20865 
L 325.077299 188.86977 
L 325.078005 191.53089 
L 325.079036 194.19201 
L 325.08016 196.85313 
L 325.081155 199.51425 
L 325.081929 202.17537 
L 325.082563 204.83649 
L 325.083265 207.49761 
L 325.084246 210.15873 
L 325.085591 212.81985 
L 325.087199 215.48097 
L 325.088821 218.14209 
L 325.09017 220.80321 
L 325.09116 223.90785 
L 325.091505 226.56897 
L 325.091518 229.23009 
L 325.091306 231.89121 
L 325.090766 234.55233 
L 325.089421 237.21345 
L 325.086309 239.87457 
L 325.079888 242.53569 
L 325.067877 245.19681 
L 325.046928 247.85793 
L 325.012056 250.51905 
L 324.972017 252.413858 
L 324.957805 253.18017 
L 324.880131 255.84129 
L 324.760359 258.50241 
L 324.57953 261.16353 
L 324.312361 263.82465 
L 323.847395 266.92929 
L 323.269181 269.59041 
L 323.150705 269.989339 
L 322.228119 272.25153 
L 321.365105 273.827074 
L 319.579505 274.682118 
L 317.793905 272.831399 
L 317.531514 272.25153 
L 316.634453 269.59041 
L 315.988058 266.92929 
L 315.972593 266.837483 
L 315.527158 263.82465 
z
" clip-path="url(#pc0afd3170c)" style="fill: none; stroke: #08509b; stroke-width: 1.5"/>
    <path d="M 333.842443 266.92929 
L 333.385507 263.82465 
L 333.123432 261.16353 
L 332.946491 258.50241 
L 332.829813 255.84129 
L 332.754834 253.18017 
L 332.708205 250.51905 
L 332.680704 247.85793 
L 332.666207 245.19681 
L 332.660779 242.53569 
L 332.661946 239.87457 
L 332.668201 237.21345 
L 332.678701 234.55233 
L 332.693105 231.89121 
L 332.711459 229.23009 
L 332.734056 226.56897 
L 332.761251 223.90785 
L 332.799046 220.80321 
L 332.836463 218.14209 
L 332.877894 215.48097 
L 332.922362 212.81985 
L 332.968663 210.15873 
L 333.015527 207.49761 
L 333.061759 204.83649 
L 333.106292 202.17537 
L 333.148171 199.51425 
L 333.186533 196.85313 
L 333.220607 194.19201 
L 333.249804 191.53089 
L 333.273837 188.86977 
L 333.292827 186.20865 
L 333.307308 183.54753 
L 333.318111 180.88641 
L 333.326149 178.22529 
L 333.333065 175.12065 
L 333.337443 172.45953 
L 333.340619 169.79841 
L 333.342669 167.13729 
L 333.343699 164.47617 
L 333.343944 161.81505 
L 333.343762 159.15393 
L 333.343518 156.49281 
L 333.343437 153.83169 
L 333.343494 151.17057 
L 333.34342 148.50945 
L 333.342803 145.84833 
L 333.341234 143.18721 
L 333.338418 140.52609 
L 333.334183 137.86497 
L 333.328375 135.20385 
L 333.319217 132.09921 
L 333.30869 129.43809 
L 333.294848 126.77697 
L 333.276805 124.11585 
L 333.25383 121.45473 
L 333.225566 118.79361 
L 333.192127 116.13249 
L 333.154076 113.47137 
L 333.112287 110.81025 
L 333.067783 108.14913 
L 333.021627 105.48801 
L 332.974881 102.82689 
L 332.928632 100.16577 
L 332.883997 97.50465 
L 332.842085 94.84353 
L 332.803888 92.18241 
L 332.770143 89.52129 
L 332.73687 86.41665 
L 332.713518 83.75553 
L 332.694558 81.09441 
L 332.679524 78.43329 
L 332.668055 75.77217 
L 332.660084 73.11105 
L 332.655968 70.44993 
L 332.656597 67.78881 
L 332.66355 65.12769 
L 332.679401 62.46657 
L 332.708214 59.80545 
L 332.756273 57.14433 
L 332.832997 54.48321 
L 332.951974 51.82209 
L 333.132047 49.16097 
L 333.398423 46.49985 
L 333.862391 43.39521 
L 333.935729 43.054016 
L 334.514303 40.73409 
L 335.430123 38.07297 
L 335.721329 37.440789 
L 337.506929 35.638057 
L 339.328241 36.581177 
L 340.119988 38.07297 
L 341.113841 40.606102 
L 341.151014 40.73409 
L 341.715875 43.39521 
L 342.167591 46.49985 
L 342.424064 49.16097 
L 342.593185 51.82209 
L 342.698239 54.48321 
L 342.75562 57.14433 
L 342.775831 59.80545 
L 342.76452 62.46657 
L 342.723611 65.12769 
L 342.652523 67.78881 
L 342.549477 70.44993 
L 342.412836 73.11105 
L 342.242367 75.77217 
L 342.040211 78.43329 
L 341.811346 81.09441 
L 341.563348 83.75553 
L 341.305503 86.41665 
L 341.113841 88.334215 
L 340.967282 89.52129 
L 340.633166 92.18241 
L 340.320594 94.84353 
L 340.035951 97.50465 
L 339.782659 100.16577 
L 339.561644 102.82689 
L 339.371982 105.48801 
L 339.328241 106.185026 
L 339.104232 108.14913 
L 338.853867 110.81025 
L 338.652797 113.47137 
L 338.492738 116.13249 
L 338.366709 118.79361 
L 338.268769 121.45473 
L 338.193791 124.11585 
L 338.137297 126.77697 
L 338.095389 129.43809 
L 338.064744 132.09921 
L 338.039628 135.20385 
L 338.024831 137.86497 
L 338.014611 140.52609 
L 338.007827 143.18721 
L 338.003584 145.84833 
L 338.001139 148.50945 
L 337.999862 151.17057 
L 337.999268 153.83169 
L 337.999074 156.49281 
L 337.999241 159.15393 
L 337.999966 161.81505 
L 338.001633 164.47617 
L 338.004742 167.13729 
L 338.009882 169.79841 
L 338.017759 172.45953 
L 338.029298 175.12065 
L 338.049131 178.22529 
L 338.073667 180.88641 
L 338.107695 183.54753 
L 338.15421 186.20865 
L 338.216755 188.86977 
L 338.299415 191.53089 
L 338.406885 194.19201 
L 338.544622 196.85313 
L 338.719072 199.51425 
L 338.937923 202.17537 
L 339.210328 204.83649 
L 339.328241 205.815442 
L 339.439809 207.49761 
L 339.643571 210.15873 
L 339.880004 212.81985 
L 340.149248 215.48097 
L 340.449208 218.14209 
L 340.774968 220.80321 
L 341.113841 223.456105 
L 341.160901 223.90785 
L 341.423464 226.56897 
L 341.68091 229.23009 
L 341.923253 231.89121 
L 342.141649 234.55233 
L 342.329545 237.21345 
L 342.483247 239.87457 
L 342.601749 242.53569 
L 342.685904 245.19681 
L 342.737159 247.85793 
L 342.756102 250.51905 
L 342.741011 253.18017 
L 342.686496 255.84129 
L 342.582289 258.50241 
L 342.412156 261.16353 
L 342.152902 263.82465 
L 341.695752 266.92929 
L 341.124408 269.59041 
L 341.113841 269.626432 
L 340.084576 272.25153 
L 339.328241 273.6854 
L 337.506929 274.698413 
L 335.721329 272.952612 
L 335.398219 272.25153 
L 334.485542 269.59041 
L 333.935729 267.36935 
L 333.842443 266.92929 
z
" clip-path="url(#pc0afd3170c)" style="fill: none; stroke: #08509b; stroke-width: 1.5"/>
    <path d="M 351.717283 258.50241 
L 351.624519 255.84129 
L 351.622775 253.18017 
L 351.712392 250.51905 
L 351.863153 248.453447 
L 351.945205 247.85793 
L 352.562301 245.19681 
L 353.541292 242.53569 
L 353.684465 242.271392 
L 353.818773 242.53569 
L 354.796312 245.19681 
L 355.470065 247.849364 
L 355.470655 247.85793 
L 355.583811 250.51905 
L 355.639141 253.18017 
L 355.643321 255.84129 
L 355.596704 258.50241 
L 355.493235 261.16353 
L 355.470065 261.52134 
L 354.904717 263.82465 
L 353.718099 266.92929 
L 353.684465 266.989678 
L 353.653187 266.92929 
L 352.55608 263.82465 
L 351.955929 261.16353 
L 351.863153 260.48325 
L 351.717283 258.50241 
z
" clip-path="url(#pc0afd3170c)" style="fill: none; stroke: #08509b; stroke-width: 1.5"/>
    <path d="M 351.685823 59.80545 
L 351.606525 57.14433 
L 351.616245 54.48321 
L 351.715409 51.82209 
L 351.863153 49.871239 
L 351.962177 49.16097 
L 352.566332 46.49985 
L 353.655884 43.39521 
L 353.684465 43.339265 
L 353.716553 43.39521 
L 354.926612 46.49985 
L 355.470065 48.707392 
L 355.499109 49.16097 
L 355.600911 51.82209 
L 355.646138 54.48321 
L 355.64097 57.14433 
L 355.585183 59.80545 
L 355.472382 62.46657 
L 355.470065 62.50044 
L 354.823746 65.12769 
L 353.896593 67.78881 
L 353.684465 68.234971 
L 353.438975 67.78881 
L 352.466974 65.12769 
L 351.87111 62.46657 
L 351.863153 62.405581 
L 351.685823 59.80545 
z
" clip-path="url(#pc0afd3170c)" style="fill: none; stroke: #08509b; stroke-width: 1.5"/>
   </g>
   <g id="PathCollection_9"/>
   <g id="patch_3">
    <path d="M 34.240625 288.21825 
L 34.240625 22.10625 
" style="fill: none; stroke: #000000; stroke-width: 0.8; stroke-linejoin: miter; stroke-linecap: square"/>
   </g>
   <g id="patch_4">
    <path d="M 391.360625 288.21825 
L 391.360625 22.10625 
" style="fill: none; stroke: #000000; stroke-width: 0.8; stroke-linejoin: miter; stroke-linecap: square"/>
   </g>
   <g id="patch_5">
    <path d="M 34.240625 288.21825 
L 391.360625 288.21825 
" style="fill: none; stroke: #000000; stroke-width: 0.8; stroke-linejoin: miter; stroke-linecap: square"/>
   </g>
   <g id="patch_6">
    <path d="M 34.240625 22.10625 
L 391.360625 22.10625 
" style="fill: none; stroke: #000000; stroke-width: 0.8; stroke-linejoin: miter; stroke-linecap: square"/>
   </g>
   <g id="text_16">
    <!-- 8.0_cross_-35.0 -->
    <g transform="translate(166.181563 16.10625)scale(0.12 -0.12)">
     <defs>
      <path id="DejaVuSans-2e" d="M 684 794 
L 1344 794 
L 1344 0 
L 684 0 
L 684 794 
z
" transform="scale(0.015625)"/>
      <path id="DejaVuSans-5f" d="M 3263 -1063 
L 3263 -1509 
L -63 -1509 
L -63 -1063 
L 3263 -1063 
z
" transform="scale(0.015625)"/>
      <path id="DejaVuSans-63" d="M 3122 3366 
L 3122 2828 
Q 2878 2963 2633 3030 
Q 2388 3097 2138 3097 
Q 1578 3097 1268 2742 
Q 959 2388 959 1747 
Q 959 1106 1268 751 
Q 1578 397 2138 397 
Q 2388 397 2633 464 
Q 2878 531 3122 666 
L 3122 134 
Q 2881 22 2623 -34 
Q 2366 -91 2075 -91 
Q 1284 -91 818 406 
Q 353 903 353 1747 
Q 353 2603 823 3093 
Q 1294 3584 2113 3584 
Q 2378 3584 2631 3529 
Q 2884 3475 3122 3366 
z
" transform="scale(0.015625)"/>
      <path id="DejaVuSans-72" d="M 2631 2963 
Q 2534 3019 2420 3045 
Q 2306 3072 2169 3072 
Q 1681 3072 1420 2755 
Q 1159 2438 1159 1844 
L 1159 0 
L 581 0 
L 581 3500 
L 1159 3500 
L 1159 2956 
Q 1341 3275 1631 3429 
Q 1922 3584 2338 3584 
Q 2397 3584 2469 3576 
Q 2541 3569 2628 3553 
L 2631 2963 
z
" transform="scale(0.015625)"/>
      <path id="DejaVuSans-73" d="M 2834 3397 
L 2834 2853 
Q 2591 2978 2328 3040 
Q 2066 3103 1784 3103 
Q 1356 3103 1142 2972 
Q 928 2841 928 2578 
Q 928 2378 1081 2264 
Q 1234 2150 1697 2047 
L 1894 2003 
Q 2506 1872 2764 1633 
Q 3022 1394 3022 966 
Q 3022 478 2636 193 
Q 2250 -91 1575 -91 
Q 1294 -91 989 -36 
Q 684 19 347 128 
L 347 722 
Q 666 556 975 473 
Q 1284 391 1588 391 
Q 1994 391 2212 530 
Q 2431 669 2431 922 
Q 2431 1156 2273 1281 
Q 2116 1406 1581 1522 
L 1381 1569 
Q 847 1681 609 1914 
Q 372 2147 372 2553 
Q 372 3047 722 3315 
Q 1072 3584 1716 3584 
Q 2034 3584 2315 3537 
Q 2597 3491 2834 3397 
z
" transform="scale(0.015625)"/>
      <path id="DejaVuSans-2d" d="M 313 2009 
L 1997 2009 
L 1997 1497 
L 313 1497 
L 313 2009 
z
" transform="scale(0.015625)"/>
     </defs>
     <use xlink:href="#DejaVuSans-38"/>
     <use xlink:href="#DejaVuSans-2e" x="63.623047"/>
     <use xlink:href="#DejaVuSans-30" x="95.410156"/>
     <use xlink:href="#DejaVuSans-5f" x="159.033203"/>
     <use xlink:href="#DejaVuSans-63" x="209.033203"/>
     <use xlink:href="#DejaVuSans-72" x="264.013672"/>
     <use xlink:href="#DejaVuSans-6f" x="302.876953"/>
     <use xlink:href="#DejaVuSans-73" x="364.058594"/>
     <use xlink:href="#DejaVuSans-73" x="416.158203"/>
     <use xlink:href="#DejaVuSans-5f" x="468.257812"/>
     <use xlink:href="#DejaVuSans-2d" x="518.257812"/>
     <use xlink:href="#DejaVuSans-33" x="554.341797"/>
     <use xlink:href="#DejaVuSans-35" x="617.964844"/>
     <use xlink:href="#DejaVuSans-2e" x="681.587891"/>
     <use xlink:href="#DejaVuSans-30" x="713.375"/>
    </g>
   </g>
  </g>
 </g>
 <defs>
  <clipPath id="pc0afd3170c">
   <rect x="34.240625" y="22.10625" width="357.12" height="266.112"/>
  </clipPath>
 </defs>
</svg>
