<?xml version="1.0" encoding="utf-8" standalone="no"?>
<!DOCTYPE svg PUBLIC "-//W3C//DTD SVG 1.1//EN"
  "http://www.w3.org/Graphics/SVG/1.1/DTD/svg11.dtd">
<svg xmlns:xlink="http://www.w3.org/1999/xlink" width="408.104375pt" height="325.7745pt" viewBox="0 0 408.104375 325.7745" xmlns="http://www.w3.org/2000/svg" version="1.1">
 <metadata>
  <rdf:RDF xmlns:dc="http://purl.org/dc/elements/1.1/" xmlns:cc="http://creativecommons.org/ns#" xmlns:rdf="http://www.w3.org/1999/02/22-rdf-syntax-ns#">
   <cc:Work>
    <dc:type rdf:resource="http://purl.org/dc/dcmitype/StillImage"/>
    <dc:date>2024-07-12T12:18:15.919634</dc:date>
    <dc:format>image/svg+xml</dc:format>
    <dc:creator>
     <cc:Agent>
      <dc:title>Matplotlib v3.5.3, https://matplotlib.org/</dc:title>
     </cc:Agent>
    </dc:creator>
   </cc:Work>
  </rdf:RDF>
 </metadata>
 <defs>
  <style type="text/css">*{stroke-linejoin: round; stroke-linecap: butt}</style>
 </defs>
 <g id="figure_1">
  <g id="patch_1">
   <path d="M 0 325.7745 
L 408.104375 325.7745 
L 408.104375 0 
L 0 0 
z
" style="fill: #ffffff"/>
  </g>
  <g id="axes_1">
   <g id="patch_2">
    <path d="M 34.240625 288.21825 
L 391.360625 288.21825 
L 391.360625 22.10625 
L 34.240625 22.10625 
z
" style="fill: #ffffff"/>
   </g>
   <g id="matplotlib.axis_1">
    <g id="xtick_1">
     <g id="line2d_1">
      <defs>
       <path id="mdc813e7ae4" d="M 0 0 
L 0 3.5 
" style="stroke: #000000; stroke-width: 0.8"/>
      </defs>
      <g>
       <use xlink:href="#mdc813e7ae4" x="34.240625" y="288.21825" style="stroke: #000000; stroke-width: 0.8"/>
      </g>
     </g>
     <g id="text_1">
      <!-- 0 -->
      <g transform="translate(31.059375 302.816687)scale(0.1 -0.1)">
       <defs>
        <path id="DejaVuSans-30" d="M 2034 4250 
Q 1547 4250 1301 3770 
Q 1056 3291 1056 2328 
Q 1056 1369 1301 889 
Q 1547 409 2034 409 
Q 2525 409 2770 889 
Q 3016 1369 3016 2328 
Q 3016 3291 2770 3770 
Q 2525 4250 2034 4250 
z
M 2034 4750 
Q 2819 4750 3233 4129 
Q 3647 3509 3647 2328 
Q 3647 1150 3233 529 
Q 2819 -91 2034 -91 
Q 1250 -91 836 529 
Q 422 1150 422 2328 
Q 422 3509 836 4129 
Q 1250 4750 2034 4750 
z
" transform="scale(0.015625)"/>
       </defs>
       <use xlink:href="#DejaVuSans-30"/>
      </g>
     </g>
    </g>
    <g id="xtick_2">
     <g id="line2d_2">
      <g>
       <use xlink:href="#mdc813e7ae4" x="105.664625" y="288.21825" style="stroke: #000000; stroke-width: 0.8"/>
      </g>
     </g>
     <g id="text_2">
      <!-- 20 -->
      <g transform="translate(99.302125 302.816687)scale(0.1 -0.1)">
       <defs>
        <path id="DejaVuSans-32" d="M 1228 531 
L 3431 531 
L 3431 0 
L 469 0 
L 469 531 
Q 828 903 1448 1529 
Q 2069 2156 2228 2338 
Q 2531 2678 2651 2914 
Q 2772 3150 2772 3378 
Q 2772 3750 2511 3984 
Q 2250 4219 1831 4219 
Q 1534 4219 1204 4116 
Q 875 4013 500 3803 
L 500 4441 
Q 881 4594 1212 4672 
Q 1544 4750 1819 4750 
Q 2544 4750 2975 4387 
Q 3406 4025 3406 3419 
Q 3406 3131 3298 2873 
Q 3191 2616 2906 2266 
Q 2828 2175 2409 1742 
Q 1991 1309 1228 531 
z
" transform="scale(0.015625)"/>
       </defs>
       <use xlink:href="#DejaVuSans-32"/>
       <use xlink:href="#DejaVuSans-30" x="63.623047"/>
      </g>
     </g>
    </g>
    <g id="xtick_3">
     <g id="line2d_3">
      <g>
       <use xlink:href="#mdc813e7ae4" x="177.088625" y="288.21825" style="stroke: #000000; stroke-width: 0.8"/>
      </g>
     </g>
     <g id="text_3">
      <!-- 40 -->
      <g transform="translate(170.726125 302.816687)scale(0.1 -0.1)">
       <defs>
        <path id="DejaVuSans-34" d="M 2419 4116 
L 825 1625 
L 2419 1625 
L 2419 4116 
z
M 2253 4666 
L 3047 4666 
L 3047 1625 
L 3713 1625 
L 3713 1100 
L 3047 1100 
L 3047 0 
L 2419 0 
L 2419 1100 
L 313 1100 
L 313 1709 
L 2253 4666 
z
" transform="scale(0.015625)"/>
       </defs>
       <use xlink:href="#DejaVuSans-34"/>
       <use xlink:href="#DejaVuSans-30" x="63.623047"/>
      </g>
     </g>
    </g>
    <g id="xtick_4">
     <g id="line2d_4">
      <g>
       <use xlink:href="#mdc813e7ae4" x="248.512625" y="288.21825" style="stroke: #000000; stroke-width: 0.8"/>
      </g>
     </g>
     <g id="text_4">
      <!-- 60 -->
      <g transform="translate(242.150125 302.816687)scale(0.1 -0.1)">
       <defs>
        <path id="DejaVuSans-36" d="M 2113 2584 
Q 1688 2584 1439 2293 
Q 1191 2003 1191 1497 
Q 1191 994 1439 701 
Q 1688 409 2113 409 
Q 2538 409 2786 701 
Q 3034 994 3034 1497 
Q 3034 2003 2786 2293 
Q 2538 2584 2113 2584 
z
M 3366 4563 
L 3366 3988 
Q 3128 4100 2886 4159 
Q 2644 4219 2406 4219 
Q 1781 4219 1451 3797 
Q 1122 3375 1075 2522 
Q 1259 2794 1537 2939 
Q 1816 3084 2150 3084 
Q 2853 3084 3261 2657 
Q 3669 2231 3669 1497 
Q 3669 778 3244 343 
Q 2819 -91 2113 -91 
Q 1303 -91 875 529 
Q 447 1150 447 2328 
Q 447 3434 972 4092 
Q 1497 4750 2381 4750 
Q 2619 4750 2861 4703 
Q 3103 4656 3366 4563 
z
" transform="scale(0.015625)"/>
       </defs>
       <use xlink:href="#DejaVuSans-36"/>
       <use xlink:href="#DejaVuSans-30" x="63.623047"/>
      </g>
     </g>
    </g>
    <g id="xtick_5">
     <g id="line2d_5">
      <g>
       <use xlink:href="#mdc813e7ae4" x="319.936625" y="288.21825" style="stroke: #000000; stroke-width: 0.8"/>
      </g>
     </g>
     <g id="text_5">
      <!-- 80 -->
      <g transform="translate(313.574125 302.816687)scale(0.1 -0.1)">
       <defs>
        <path id="DejaVuSans-38" d="M 2034 2216 
Q 1584 2216 1326 1975 
Q 1069 1734 1069 1313 
Q 1069 891 1326 650 
Q 1584 409 2034 409 
Q 2484 409 2743 651 
Q 3003 894 3003 1313 
Q 3003 1734 2745 1975 
Q 2488 2216 2034 2216 
z
M 1403 2484 
Q 997 2584 770 2862 
Q 544 3141 544 3541 
Q 544 4100 942 4425 
Q 1341 4750 2034 4750 
Q 2731 4750 3128 4425 
Q 3525 4100 3525 3541 
Q 3525 3141 3298 2862 
Q 3072 2584 2669 2484 
Q 3125 2378 3379 2068 
Q 3634 1759 3634 1313 
Q 3634 634 3220 271 
Q 2806 -91 2034 -91 
Q 1263 -91 848 271 
Q 434 634 434 1313 
Q 434 1759 690 2068 
Q 947 2378 1403 2484 
z
M 1172 3481 
Q 1172 3119 1398 2916 
Q 1625 2713 2034 2713 
Q 2441 2713 2670 2916 
Q 2900 3119 2900 3481 
Q 2900 3844 2670 4047 
Q 2441 4250 2034 4250 
Q 1625 4250 1398 4047 
Q 1172 3844 1172 3481 
z
" transform="scale(0.015625)"/>
       </defs>
       <use xlink:href="#DejaVuSans-38"/>
       <use xlink:href="#DejaVuSans-30" x="63.623047"/>
      </g>
     </g>
    </g>
    <g id="xtick_6">
     <g id="line2d_6">
      <g>
       <use xlink:href="#mdc813e7ae4" x="391.360625" y="288.21825" style="stroke: #000000; stroke-width: 0.8"/>
      </g>
     </g>
     <g id="text_6">
      <!-- 100 -->
      <g transform="translate(381.816875 302.816687)scale(0.1 -0.1)">
       <defs>
        <path id="DejaVuSans-31" d="M 794 531 
L 1825 531 
L 1825 4091 
L 703 3866 
L 703 4441 
L 1819 4666 
L 2450 4666 
L 2450 531 
L 3481 531 
L 3481 0 
L 794 0 
L 794 531 
z
" transform="scale(0.015625)"/>
       </defs>
       <use xlink:href="#DejaVuSans-31"/>
       <use xlink:href="#DejaVuSans-30" x="63.623047"/>
       <use xlink:href="#DejaVuSans-30" x="127.246094"/>
      </g>
     </g>
    </g>
    <g id="text_7">
     <!-- axialRotation -->
     <g transform="translate(180.024844 316.494812)scale(0.1 -0.1)">
      <defs>
       <path id="DejaVuSans-61" d="M 2194 1759 
Q 1497 1759 1228 1600 
Q 959 1441 959 1056 
Q 959 750 1161 570 
Q 1363 391 1709 391 
Q 2188 391 2477 730 
Q 2766 1069 2766 1631 
L 2766 1759 
L 2194 1759 
z
M 3341 1997 
L 3341 0 
L 2766 0 
L 2766 531 
Q 2569 213 2275 61 
Q 1981 -91 1556 -91 
Q 1019 -91 701 211 
Q 384 513 384 1019 
Q 384 1609 779 1909 
Q 1175 2209 1959 2209 
L 2766 2209 
L 2766 2266 
Q 2766 2663 2505 2880 
Q 2244 3097 1772 3097 
Q 1472 3097 1187 3025 
Q 903 2953 641 2809 
L 641 3341 
Q 956 3463 1253 3523 
Q 1550 3584 1831 3584 
Q 2591 3584 2966 3190 
Q 3341 2797 3341 1997 
z
" transform="scale(0.015625)"/>
       <path id="DejaVuSans-78" d="M 3513 3500 
L 2247 1797 
L 3578 0 
L 2900 0 
L 1881 1375 
L 863 0 
L 184 0 
L 1544 1831 
L 300 3500 
L 978 3500 
L 1906 2253 
L 2834 3500 
L 3513 3500 
z
" transform="scale(0.015625)"/>
       <path id="DejaVuSans-69" d="M 603 3500 
L 1178 3500 
L 1178 0 
L 603 0 
L 603 3500 
z
M 603 4863 
L 1178 4863 
L 1178 4134 
L 603 4134 
L 603 4863 
z
" transform="scale(0.015625)"/>
       <path id="DejaVuSans-6c" d="M 603 4863 
L 1178 4863 
L 1178 0 
L 603 0 
L 603 4863 
z
" transform="scale(0.015625)"/>
       <path id="DejaVuSans-52" d="M 2841 2188 
Q 3044 2119 3236 1894 
Q 3428 1669 3622 1275 
L 4263 0 
L 3584 0 
L 2988 1197 
Q 2756 1666 2539 1819 
Q 2322 1972 1947 1972 
L 1259 1972 
L 1259 0 
L 628 0 
L 628 4666 
L 2053 4666 
Q 2853 4666 3247 4331 
Q 3641 3997 3641 3322 
Q 3641 2881 3436 2590 
Q 3231 2300 2841 2188 
z
M 1259 4147 
L 1259 2491 
L 2053 2491 
Q 2509 2491 2742 2702 
Q 2975 2913 2975 3322 
Q 2975 3731 2742 3939 
Q 2509 4147 2053 4147 
L 1259 4147 
z
" transform="scale(0.015625)"/>
       <path id="DejaVuSans-6f" d="M 1959 3097 
Q 1497 3097 1228 2736 
Q 959 2375 959 1747 
Q 959 1119 1226 758 
Q 1494 397 1959 397 
Q 2419 397 2687 759 
Q 2956 1122 2956 1747 
Q 2956 2369 2687 2733 
Q 2419 3097 1959 3097 
z
M 1959 3584 
Q 2709 3584 3137 3096 
Q 3566 2609 3566 1747 
Q 3566 888 3137 398 
Q 2709 -91 1959 -91 
Q 1206 -91 779 398 
Q 353 888 353 1747 
Q 353 2609 779 3096 
Q 1206 3584 1959 3584 
z
" transform="scale(0.015625)"/>
       <path id="DejaVuSans-74" d="M 1172 4494 
L 1172 3500 
L 2356 3500 
L 2356 3053 
L 1172 3053 
L 1172 1153 
Q 1172 725 1289 603 
Q 1406 481 1766 481 
L 2356 481 
L 2356 0 
L 1766 0 
Q 1100 0 847 248 
Q 594 497 594 1153 
L 594 3053 
L 172 3053 
L 172 3500 
L 594 3500 
L 594 4494 
L 1172 4494 
z
" transform="scale(0.015625)"/>
       <path id="DejaVuSans-6e" d="M 3513 2113 
L 3513 0 
L 2938 0 
L 2938 2094 
Q 2938 2591 2744 2837 
Q 2550 3084 2163 3084 
Q 1697 3084 1428 2787 
Q 1159 2491 1159 1978 
L 1159 0 
L 581 0 
L 581 3500 
L 1159 3500 
L 1159 2956 
Q 1366 3272 1645 3428 
Q 1925 3584 2291 3584 
Q 2894 3584 3203 3211 
Q 3513 2838 3513 2113 
z
" transform="scale(0.015625)"/>
      </defs>
      <use xlink:href="#DejaVuSans-61"/>
      <use xlink:href="#DejaVuSans-78" x="61.279297"/>
      <use xlink:href="#DejaVuSans-69" x="120.458984"/>
      <use xlink:href="#DejaVuSans-61" x="148.242188"/>
      <use xlink:href="#DejaVuSans-6c" x="209.521484"/>
      <use xlink:href="#DejaVuSans-52" x="237.304688"/>
      <use xlink:href="#DejaVuSans-6f" x="302.287109"/>
      <use xlink:href="#DejaVuSans-74" x="363.46875"/>
      <use xlink:href="#DejaVuSans-61" x="402.677734"/>
      <use xlink:href="#DejaVuSans-74" x="463.957031"/>
      <use xlink:href="#DejaVuSans-69" x="503.166016"/>
      <use xlink:href="#DejaVuSans-6f" x="530.949219"/>
      <use xlink:href="#DejaVuSans-6e" x="592.130859"/>
     </g>
    </g>
   </g>
   <g id="matplotlib.axis_2">
    <g id="ytick_1">
     <g id="line2d_7">
      <defs>
       <path id="m84f1ef22ab" d="M 0 0 
L -3.5 0 
" style="stroke: #000000; stroke-width: 0.8"/>
      </defs>
      <g>
       <use xlink:href="#m84f1ef22ab" x="34.240625" y="288.21825" style="stroke: #000000; stroke-width: 0.8"/>
      </g>
     </g>
     <g id="text_8">
      <!-- 0 -->
      <g transform="translate(20.878125 292.017469)scale(0.1 -0.1)">
       <use xlink:href="#DejaVuSans-30"/>
      </g>
     </g>
    </g>
    <g id="ytick_2">
     <g id="line2d_8">
      <g>
       <use xlink:href="#m84f1ef22ab" x="34.240625" y="243.86625" style="stroke: #000000; stroke-width: 0.8"/>
      </g>
     </g>
     <g id="text_9">
      <!-- 1 -->
      <g transform="translate(20.878125 247.665469)scale(0.1 -0.1)">
       <use xlink:href="#DejaVuSans-31"/>
      </g>
     </g>
    </g>
    <g id="ytick_3">
     <g id="line2d_9">
      <g>
       <use xlink:href="#m84f1ef22ab" x="34.240625" y="199.51425" style="stroke: #000000; stroke-width: 0.8"/>
      </g>
     </g>
     <g id="text_10">
      <!-- 2 -->
      <g transform="translate(20.878125 203.313469)scale(0.1 -0.1)">
       <use xlink:href="#DejaVuSans-32"/>
      </g>
     </g>
    </g>
    <g id="ytick_4">
     <g id="line2d_10">
      <g>
       <use xlink:href="#m84f1ef22ab" x="34.240625" y="155.16225" style="stroke: #000000; stroke-width: 0.8"/>
      </g>
     </g>
     <g id="text_11">
      <!-- 3 -->
      <g transform="translate(20.878125 158.961469)scale(0.1 -0.1)">
       <defs>
        <path id="DejaVuSans-33" d="M 2597 2516 
Q 3050 2419 3304 2112 
Q 3559 1806 3559 1356 
Q 3559 666 3084 287 
Q 2609 -91 1734 -91 
Q 1441 -91 1130 -33 
Q 819 25 488 141 
L 488 750 
Q 750 597 1062 519 
Q 1375 441 1716 441 
Q 2309 441 2620 675 
Q 2931 909 2931 1356 
Q 2931 1769 2642 2001 
Q 2353 2234 1838 2234 
L 1294 2234 
L 1294 2753 
L 1863 2753 
Q 2328 2753 2575 2939 
Q 2822 3125 2822 3475 
Q 2822 3834 2567 4026 
Q 2313 4219 1838 4219 
Q 1578 4219 1281 4162 
Q 984 4106 628 3988 
L 628 4550 
Q 988 4650 1302 4700 
Q 1616 4750 1894 4750 
Q 2613 4750 3031 4423 
Q 3450 4097 3450 3541 
Q 3450 3153 3228 2886 
Q 3006 2619 2597 2516 
z
" transform="scale(0.015625)"/>
       </defs>
       <use xlink:href="#DejaVuSans-33"/>
      </g>
     </g>
    </g>
    <g id="ytick_5">
     <g id="line2d_11">
      <g>
       <use xlink:href="#m84f1ef22ab" x="34.240625" y="110.81025" style="stroke: #000000; stroke-width: 0.8"/>
      </g>
     </g>
     <g id="text_12">
      <!-- 4 -->
      <g transform="translate(20.878125 114.609469)scale(0.1 -0.1)">
       <use xlink:href="#DejaVuSans-34"/>
      </g>
     </g>
    </g>
    <g id="ytick_6">
     <g id="line2d_12">
      <g>
       <use xlink:href="#m84f1ef22ab" x="34.240625" y="66.45825" style="stroke: #000000; stroke-width: 0.8"/>
      </g>
     </g>
     <g id="text_13">
      <!-- 5 -->
      <g transform="translate(20.878125 70.257469)scale(0.1 -0.1)">
       <defs>
        <path id="DejaVuSans-35" d="M 691 4666 
L 3169 4666 
L 3169 4134 
L 1269 4134 
L 1269 2991 
Q 1406 3038 1543 3061 
Q 1681 3084 1819 3084 
Q 2600 3084 3056 2656 
Q 3513 2228 3513 1497 
Q 3513 744 3044 326 
Q 2575 -91 1722 -91 
Q 1428 -91 1123 -41 
Q 819 9 494 109 
L 494 744 
Q 775 591 1075 516 
Q 1375 441 1709 441 
Q 2250 441 2565 725 
Q 2881 1009 2881 1497 
Q 2881 1984 2565 2268 
Q 2250 2553 1709 2553 
Q 1456 2553 1204 2497 
Q 953 2441 691 2322 
L 691 4666 
z
" transform="scale(0.015625)"/>
       </defs>
       <use xlink:href="#DejaVuSans-35"/>
      </g>
     </g>
    </g>
    <g id="ytick_7">
     <g id="line2d_13">
      <g>
       <use xlink:href="#m84f1ef22ab" x="34.240625" y="22.10625" style="stroke: #000000; stroke-width: 0.8"/>
      </g>
     </g>
     <g id="text_14">
      <!-- 6 -->
      <g transform="translate(20.878125 25.905469)scale(0.1 -0.1)">
       <use xlink:href="#DejaVuSans-36"/>
      </g>
     </g>
    </g>
    <g id="text_15">
     <!-- zShift -->
     <g transform="translate(14.798438 169.151312)rotate(-90)scale(0.1 -0.1)">
      <defs>
       <path id="DejaVuSans-7a" d="M 353 3500 
L 3084 3500 
L 3084 2975 
L 922 459 
L 3084 459 
L 3084 0 
L 275 0 
L 275 525 
L 2438 3041 
L 353 3041 
L 353 3500 
z
" transform="scale(0.015625)"/>
       <path id="DejaVuSans-53" d="M 3425 4513 
L 3425 3897 
Q 3066 4069 2747 4153 
Q 2428 4238 2131 4238 
Q 1616 4238 1336 4038 
Q 1056 3838 1056 3469 
Q 1056 3159 1242 3001 
Q 1428 2844 1947 2747 
L 2328 2669 
Q 3034 2534 3370 2195 
Q 3706 1856 3706 1288 
Q 3706 609 3251 259 
Q 2797 -91 1919 -91 
Q 1588 -91 1214 -16 
Q 841 59 441 206 
L 441 856 
Q 825 641 1194 531 
Q 1563 422 1919 422 
Q 2459 422 2753 634 
Q 3047 847 3047 1241 
Q 3047 1584 2836 1778 
Q 2625 1972 2144 2069 
L 1759 2144 
Q 1053 2284 737 2584 
Q 422 2884 422 3419 
Q 422 4038 858 4394 
Q 1294 4750 2059 4750 
Q 2388 4750 2728 4690 
Q 3069 4631 3425 4513 
z
" transform="scale(0.015625)"/>
       <path id="DejaVuSans-68" d="M 3513 2113 
L 3513 0 
L 2938 0 
L 2938 2094 
Q 2938 2591 2744 2837 
Q 2550 3084 2163 3084 
Q 1697 3084 1428 2787 
Q 1159 2491 1159 1978 
L 1159 0 
L 581 0 
L 581 4863 
L 1159 4863 
L 1159 2956 
Q 1366 3272 1645 3428 
Q 1925 3584 2291 3584 
Q 2894 3584 3203 3211 
Q 3513 2838 3513 2113 
z
" transform="scale(0.015625)"/>
       <path id="DejaVuSans-66" d="M 2375 4863 
L 2375 4384 
L 1825 4384 
Q 1516 4384 1395 4259 
Q 1275 4134 1275 3809 
L 1275 3500 
L 2222 3500 
L 2222 3053 
L 1275 3053 
L 1275 0 
L 697 0 
L 697 3053 
L 147 3053 
L 147 3500 
L 697 3500 
L 697 3744 
Q 697 4328 969 4595 
Q 1241 4863 1831 4863 
L 2375 4863 
z
" transform="scale(0.015625)"/>
      </defs>
      <use xlink:href="#DejaVuSans-7a"/>
      <use xlink:href="#DejaVuSans-53" x="52.490234"/>
      <use xlink:href="#DejaVuSans-68" x="115.966797"/>
      <use xlink:href="#DejaVuSans-69" x="179.345703"/>
      <use xlink:href="#DejaVuSans-66" x="207.128906"/>
      <use xlink:href="#DejaVuSans-74" x="240.583984"/>
     </g>
    </g>
   </g>
   <g id="PathCollection_1"/>
   <g id="PathCollection_2">
    <path d="M 197.205551 288.21825 
L 196.791767 285.55713 
L 196.475336 282.89601 
L 196.234834 280.23489 
L 196.053672 277.57377 
L 195.91881 274.91265 
L 195.819875 272.25153 
L 195.766001 270.248048 
L 195.744064 269.59041 
L 195.680736 266.92929 
L 195.631302 263.82465 
L 195.603889 261.16353 
L 195.586007 258.50241 
L 195.574609 255.84129 
L 195.567469 253.18017 
L 195.563043 250.51905 
L 195.560333 247.85793 
L 195.558726 245.19681 
L 195.557854 242.53569 
L 195.557469 239.87457 
L 195.557374 237.21345 
L 195.557395 234.55233 
L 195.557402 231.89121 
L 195.557329 229.23009 
L 195.557182 226.56897 
L 195.557027 223.90785 
L 195.556936 220.80321 
L 195.556979 218.14209 
L 195.55711 215.48097 
L 195.557259 212.81985 
L 195.557343 210.15873 
L 195.557318 207.49761 
L 195.557196 204.83649 
L 195.557044 202.17537 
L 195.556945 199.51425 
L 195.556951 196.85313 
L 195.55706 194.19201 
L 195.557213 191.53089 
L 195.557326 188.86977 
L 195.557339 186.20865 
L 195.557244 183.54753 
L 195.557093 180.88641 
L 195.556968 178.22529 
L 195.556942 175.12065 
L 195.557037 172.45953 
L 195.557188 169.79841 
L 195.557313 167.13729 
L 195.557345 164.47617 
L 195.557266 161.81505 
L 195.557119 159.15393 
L 195.556984 156.49281 
L 195.556933 153.83169 
L 195.556995 151.17057 
L 195.557136 148.50945 
L 195.557279 145.84833 
L 195.557347 143.18721 
L 195.557303 140.52609 
L 195.557171 137.86497 
L 195.557022 135.20385 
L 195.556934 132.09921 
L 195.556978 129.43809 
L 195.55711 126.77697 
L 195.557259 124.11585 
L 195.557343 121.45473 
L 195.557318 118.79361 
L 195.557196 116.13249 
L 195.557044 113.47137 
L 195.556945 110.81025 
L 195.556951 108.14913 
L 195.55706 105.48801 
L 195.557213 102.82689 
L 195.557326 100.16577 
L 195.557339 97.50465 
L 195.557244 94.84353 
L 195.557094 92.18241 
L 195.556969 89.52129 
L 195.556944 86.41665 
L 195.557042 83.75553 
L 195.5572 81.09441 
L 195.557341 78.43329 
L 195.557405 75.77217 
L 195.557392 73.11105 
L 195.557376 70.44993 
L 195.557494 67.78881 
L 195.557922 65.12769 
L 195.558861 62.46657 
L 195.560567 59.80545 
L 195.56343 57.14433 
L 195.568096 54.48321 
L 195.575619 51.82209 
L 195.587614 49.16097 
L 195.606398 46.49985 
L 195.641167 43.39521 
L 195.686849 40.73409 
L 195.753003 38.07297 
L 195.766001 37.698654 
L 195.830245 35.41185 
L 195.933865 32.75073 
L 196.075452 30.08961 
L 196.266305 27.42849 
L 196.520818 24.76737 
L 196.85753 22.10625 
" clip-path="url(#p2120be07e9)" style="fill: none; stroke: #dbe9f6; stroke-width: 1.5"/>
    <path d="M 371.244634 22.10625 
L 371.611889 24.761242 
L 371.612862 24.76737 
L 371.958038 27.42849 
L 372.22026 30.08961 
L 372.417695 32.75073 
L 372.564614 35.41185 
L 372.672356 38.07297 
L 372.749997 40.73409 
L 372.804812 43.39521 
L 372.847608 46.49985 
L 372.871343 49.16097 
L 372.886827 51.82209 
L 372.896697 54.48321 
L 372.90288 57.14433 
L 372.906713 59.80545 
L 372.90906 62.46657 
L 372.910451 65.12769 
L 372.911206 67.78881 
L 372.911539 70.44993 
L 372.911622 73.11105 
L 372.911603 75.77217 
L 372.911597 78.43329 
L 372.911661 81.09441 
L 372.911789 83.75553 
L 372.911926 86.41665 
L 372.912011 89.52129 
L 372.911987 92.18241 
L 372.911902 94.84353 
L 372.911836 97.50465 
L 372.911894 100.16577 
L 372.912185 102.82689 
L 372.912826 105.48801 
L 372.913997 108.14913 
L 372.916044 110.81025 
L 372.919638 113.47137 
L 372.925974 116.13249 
L 372.937016 118.79361 
L 372.955806 121.45473 
L 372.986846 124.11585 
L 373.03657 126.77697 
L 373.113872 129.43809 
L 373.230634 132.09921 
L 373.397489 134.606116 
L 373.447733 135.20385 
L 373.772794 137.86497 
L 374.21605 140.52609 
L 374.801271 143.18721 
L 375.218801 144.6659 
L 375.627038 145.84833 
L 376.733099 148.50945 
L 377.004401 149.065047 
L 378.160282 151.17057 
L 378.790001 152.22302 
L 379.794494 153.83169 
L 380.575601 155.052572 
L 381.480578 156.49281 
L 382.396913 158.012464 
L 383.054672 159.15393 
L 384.182513 161.318291 
L 384.43159 161.81505 
L 385.620531 164.47617 
L 385.968113 165.393152 
L 386.631792 167.13729 
L 387.454317 169.79841 
L 387.753713 170.979161 
L 388.155566 172.45953 
L 388.741333 175.12065 
L 389.258523 178.22529 
L 389.575025 180.739651 
L 389.596483 180.88641 
L 389.911706 183.54753 
L 390.150887 186.20865 
L 390.33051 188.86977 
L 390.463648 191.53089 
L 390.56075 194.19201 
L 390.630193 196.85313 
L 390.678672 199.51425 
L 390.711477 202.17537 
L 390.732693 204.83649 
L 390.745334 207.49761 
L 390.751412 210.15873 
L 390.75198 212.81985 
L 390.747134 215.48097 
L 390.736024 218.14209 
L 390.716829 220.80321 
L 390.680392 223.90785 
L 390.63255 226.56897 
L 390.563793 229.23009 
L 390.467309 231.89121 
L 390.334494 234.55233 
L 390.15451 237.21345 
L 389.913665 239.87457 
L 389.594533 242.53569 
L 389.575025 242.667162 
L 389.24806 245.19681 
L 388.798849 247.85793 
L 388.211731 250.51905 
L 387.753713 252.177159 
L 387.490073 253.18017 
L 386.635133 255.84129 
L 385.968113 257.517507 
L 385.567653 258.50241 
L 384.275186 261.16353 
L 384.182513 261.335834 
L 382.750633 263.82465 
L 382.396913 264.392884 
L 380.660707 266.92929 
L 380.575601 267.052267 
L 378.790001 269.574942 
L 378.779271 269.59041 
L 377.074936 272.25153 
L 377.004401 272.373214 
L 375.721744 274.91265 
L 375.218801 276.053464 
L 374.662554 277.57377 
L 373.825552 280.23489 
L 373.397489 281.774094 
L 373.139027 282.89601 
L 372.572862 285.55713 
L 371.998607 288.21825 
" clip-path="url(#p2120be07e9)" style="fill: none; stroke: #dbe9f6; stroke-width: 1.5"/>
   </g>
   <g id="PathCollection_3">
    <path d="M 201.954643 288.21825 
L 201.425298 285.55713 
L 201.122801 283.597497 
L 201.009811 282.89601 
L 200.671314 280.23489 
L 200.416568 277.57377 
L 200.227165 274.91265 
L 200.088437 272.25153 
L 199.98863 269.59041 
L 199.918307 266.92929 
L 199.863541 263.82465 
L 199.833253 261.16353 
L 199.813542 258.50241 
L 199.801003 255.84129 
L 199.793158 253.18017 
L 199.7883 250.51905 
L 199.785331 247.85793 
L 199.783581 245.19681 
L 199.782645 242.53569 
L 199.782246 239.87457 
L 199.782159 237.21345 
L 199.782188 234.55233 
L 199.782188 231.89121 
L 199.782092 229.23009 
L 199.781918 226.56897 
L 199.781743 223.90785 
L 199.781652 220.80321 
L 199.781715 218.14209 
L 199.781874 215.48097 
L 199.782041 212.81985 
L 199.782127 210.15873 
L 199.782084 207.49761 
L 199.781936 204.83649 
L 199.781762 202.17537 
L 199.781658 199.51425 
L 199.781679 196.85313 
L 199.781815 194.19201 
L 199.78199 191.53089 
L 199.782112 188.86977 
L 199.782113 186.20865 
L 199.781993 183.54753 
L 199.781817 180.88641 
L 199.78168 178.22529 
L 199.781667 175.12065 
L 199.781787 172.45953 
L 199.781963 169.79841 
L 199.782099 167.13729 
L 199.782122 164.47617 
L 199.782019 161.81505 
L 199.781846 159.15393 
L 199.781697 156.49281 
L 199.781652 153.83169 
L 199.781736 151.17057 
L 199.781904 148.50945 
L 199.782063 145.84833 
L 199.782129 143.18721 
L 199.782065 140.52609 
L 199.781906 137.86497 
L 199.781738 135.20385 
L 199.78165 132.09921 
L 199.781714 129.43809 
L 199.781873 126.77697 
L 199.782041 124.11585 
L 199.782127 121.45473 
L 199.782084 118.79361 
L 199.781936 116.13249 
L 199.781762 113.47137 
L 199.781658 110.81025 
L 199.781679 108.14913 
L 199.781815 105.48801 
L 199.781991 102.82689 
L 199.782112 100.16577 
L 199.782113 97.50465 
L 199.781993 94.84353 
L 199.781817 92.18241 
L 199.781682 89.52129 
L 199.78167 86.41665 
L 199.781794 83.75553 
L 199.781979 81.09441 
L 199.782134 78.43329 
L 199.782197 75.77217 
L 199.782176 73.11105 
L 199.782166 70.44993 
L 199.78233 67.78881 
L 199.782875 65.12769 
L 199.784038 62.46657 
L 199.786125 59.80545 
L 199.789611 57.14433 
L 199.795283 54.48321 
L 199.804422 51.82209 
L 199.818969 49.16097 
L 199.841704 46.49985 
L 199.883672 43.39521 
L 199.938672 40.73409 
L 200.018154 38.07297 
L 200.130503 35.41185 
L 200.286291 32.75073 
L 200.498849 30.08961 
L 200.785051 27.42849 
L 201.122801 25.058801 
L 201.162763 24.76737 
L 201.625211 22.10625 
" clip-path="url(#p2120be07e9)" style="fill: none; stroke: #bad6eb; stroke-width: 1.5"/>
    <path d="M 366.48778 22.10625 
L 367.034317 24.76737 
L 367.452529 27.42849 
L 367.770465 30.08961 
L 368.009911 32.75073 
L 368.040689 33.201324 
L 368.205487 35.41185 
L 368.351373 38.07297 
L 368.456305 40.73409 
L 368.530225 43.39521 
L 368.587784 46.49985 
L 368.619614 49.16097 
L 368.640326 51.82209 
L 368.653501 54.48321 
L 368.661744 57.14433 
L 368.666848 59.80545 
L 368.669968 62.46657 
L 368.671806 65.12769 
L 368.67279 67.78881 
L 368.673209 70.44993 
L 368.673301 73.11105 
L 368.67327 75.77217 
L 368.67327 78.43329 
L 368.673371 81.09441 
L 368.673555 83.75553 
L 368.67374 86.41665 
L 368.67384 89.52129 
L 368.673782 92.18241 
L 368.673635 94.84353 
L 368.673501 97.50465 
L 368.673499 100.16577 
L 368.673724 102.82689 
L 368.674237 105.48801 
L 368.67511 108.14913 
L 368.676518 110.81025 
L 368.678873 113.47137 
L 368.682967 116.13249 
L 368.690125 118.79361 
L 368.702381 121.45473 
L 368.722703 124.11585 
L 368.755288 126.77697 
L 368.805941 129.43809 
L 368.882506 132.09921 
L 369.018509 135.20385 
L 369.190448 137.86497 
L 369.431122 140.52609 
L 369.760673 143.18721 
L 369.826289 143.588403 
L 370.25679 145.84833 
L 370.913551 148.50945 
L 371.611889 150.743204 
L 371.768678 151.17057 
L 372.940302 153.83169 
L 373.397489 154.720657 
L 374.416469 156.49281 
L 375.218801 157.763409 
L 376.135677 159.15393 
L 377.004401 160.430554 
L 377.92001 161.81505 
L 378.790001 163.171907 
L 379.568357 164.47617 
L 380.575601 166.329527 
L 380.982118 167.13729 
L 382.14968 169.79841 
L 382.396913 170.457719 
L 383.113236 172.45953 
L 383.880407 175.12065 
L 384.182513 176.425602 
L 384.598248 178.22529 
L 385.080213 180.88641 
L 385.450748 183.54753 
L 385.733046 186.20865 
L 385.945635 188.86977 
L 385.968113 189.242074 
L 386.119766 191.53089 
L 386.24863 194.19201 
L 386.340637 196.85313 
L 386.404711 199.51425 
L 386.44791 202.17537 
L 386.475677 204.83649 
L 386.491999 207.49761 
L 386.499504 210.15873 
L 386.499494 212.81985 
L 386.491965 215.48097 
L 386.475599 218.14209 
L 386.447743 220.80321 
L 386.395251 223.90785 
L 386.326632 226.56897 
L 386.228325 229.23009 
L 386.090746 231.89121 
L 385.968113 233.633692 
L 385.90879 234.55233 
L 385.680211 237.21345 
L 385.375122 239.87457 
L 384.972079 242.53569 
L 384.44382 245.19681 
L 384.182513 246.255844 
L 383.783275 247.85793 
L 382.950606 250.51905 
L 382.396913 251.961379 
L 381.894269 253.18017 
L 380.575601 255.838108 
L 380.573847 255.84129 
L 378.947695 258.50241 
L 378.790001 258.740452 
L 377.040537 261.16353 
L 377.004401 261.21288 
L 375.218801 263.606446 
L 375.060789 263.82465 
L 373.397489 266.344855 
L 373.054081 266.92929 
L 371.709207 269.59041 
L 371.611889 269.815398 
L 370.71898 272.25153 
L 369.899288 274.91265 
L 369.826289 275.186809 
L 369.274442 277.57377 
L 368.71562 280.23489 
L 368.169752 282.89601 
L 368.040689 283.509587 
L 367.637965 285.55713 
L 367.049465 288.21825 
" clip-path="url(#p2120be07e9)" style="fill: none; stroke: #bad6eb; stroke-width: 1.5"/>
   </g>
   <g id="PathCollection_4">
    <path d="M 205.912556 288.21825 
L 205.161518 285.55713 
L 204.729713 283.586036 
L 204.587205 282.89601 
L 204.153419 280.23489 
L 203.826935 277.57377 
L 203.584256 274.91265 
L 203.406614 272.25153 
L 203.278932 269.59041 
L 203.189083 266.92929 
L 203.119228 263.82465 
L 203.080668 261.16353 
L 203.055617 258.50241 
L 203.039702 255.84129 
L 203.029754 253.18017 
L 203.023597 250.51905 
L 203.01984 247.85793 
L 203.017636 245.19681 
L 203.016471 242.53569 
L 203.015987 239.87457 
L 203.015892 237.21345 
L 203.015932 234.55233 
L 203.015925 231.89121 
L 203.015789 229.23009 
L 203.015556 226.56897 
L 203.015331 223.90785 
L 203.015226 220.80321 
L 203.015321 218.14209 
L 203.015534 215.48097 
L 203.01575 212.81985 
L 203.015851 210.15873 
L 203.015781 207.49761 
L 203.01558 204.83649 
L 203.015355 202.17537 
L 203.015229 199.51425 
L 203.01527 196.85313 
L 203.015456 194.19201 
L 203.015686 191.53089 
L 203.015835 188.86977 
L 203.015823 186.20865 
L 203.015656 183.54753 
L 203.015424 180.88641 
L 203.015254 178.22529 
L 203.015251 175.12065 
L 203.015418 172.45953 
L 203.01565 169.79841 
L 203.01582 167.13729 
L 203.015837 164.47617 
L 203.015691 161.81505 
L 203.015462 159.15393 
L 203.015273 156.49281 
L 203.015228 153.83169 
L 203.01535 151.17057 
L 203.015573 148.50945 
L 203.015777 145.84833 
L 203.015851 143.18721 
L 203.015755 140.52609 
L 203.01554 137.86497 
L 203.015324 135.20385 
L 203.015223 132.09921 
L 203.01532 129.43809 
L 203.015534 126.77697 
L 203.01575 124.11585 
L 203.015851 121.45473 
L 203.015781 118.79361 
L 203.01558 116.13249 
L 203.015355 113.47137 
L 203.015229 110.81025 
L 203.01527 108.14913 
L 203.015456 105.48801 
L 203.015686 102.82689 
L 203.015835 100.16577 
L 203.015823 97.50465 
L 203.015656 94.84353 
L 203.015425 92.18241 
L 203.015256 89.52129 
L 203.015256 86.41665 
L 203.015428 83.75553 
L 203.015672 81.09441 
L 203.015869 78.43329 
L 203.015942 75.77217 
L 203.01591 73.11105 
L 203.015905 70.44993 
L 203.01615 67.78881 
L 203.016916 65.12769 
L 203.018521 62.46657 
L 203.021379 59.80545 
L 203.026137 57.14433 
L 203.033873 54.48321 
L 203.046327 51.82209 
L 203.066131 49.16097 
L 203.097032 46.49985 
L 203.153968 43.39521 
L 203.228449 40.73409 
L 203.335933 38.07297 
L 203.487695 35.41185 
L 203.697979 32.75073 
L 203.984779 30.08961 
L 204.37093 27.42849 
L 204.729713 25.545483 
L 204.8882 24.76737 
L 205.581267 22.10625 
" clip-path="url(#p2120be07e9)" style="fill: none; stroke: #89bedc; stroke-width: 1.5"/>
    <path d="M 362.541207 22.10625 
L 362.648177 22.45443 
L 363.289436 24.76737 
L 363.859239 27.42849 
L 364.292631 30.08961 
L 364.433777 31.220124 
L 364.62114 32.75073 
L 364.866455 35.41185 
L 365.045967 38.07297 
L 365.174958 40.73409 
L 365.265706 43.39521 
L 365.336247 46.49985 
L 365.37518 49.16097 
L 365.400471 51.82209 
L 365.416537 54.48321 
L 365.426579 57.14433 
L 365.432793 59.80545 
L 365.436586 62.46657 
L 365.43881 65.12769 
L 365.439986 67.78881 
L 365.440474 70.44993 
L 365.44057 73.11105 
L 365.440529 75.77217 
L 365.440537 78.43329 
L 365.440675 81.09441 
L 365.440911 83.75553 
L 365.441138 86.41665 
L 365.441248 89.52129 
L 365.441158 92.18241 
L 365.440956 94.84353 
L 365.440768 97.50465 
L 365.44073 100.16577 
L 365.440929 102.82689 
L 365.441387 105.48801 
L 365.442105 108.14913 
L 365.443154 110.81025 
L 365.444797 113.47137 
L 365.447604 116.13249 
L 365.452551 118.79361 
L 365.461118 121.45473 
L 365.475412 124.11585 
L 365.498357 126.77697 
L 365.533965 129.43809 
L 365.587675 132.09921 
L 365.682979 135.20385 
L 365.803585 137.86497 
L 365.972921 140.52609 
L 366.205988 143.18721 
L 366.219377 143.302942 
L 366.537554 145.84833 
L 366.977248 148.50945 
L 367.550124 151.17057 
L 368.040689 152.969004 
L 368.307295 153.83169 
L 369.310943 156.49281 
L 369.826289 157.633792 
L 370.60673 159.15393 
L 371.611889 160.87182 
L 372.21597 161.81505 
L 373.397489 163.538111 
L 374.052489 164.47617 
L 375.218801 166.138176 
L 375.880709 167.13729 
L 377.004401 168.934317 
L 377.492774 169.79841 
L 378.790001 172.387768 
L 378.822392 172.45953 
L 379.870275 175.12065 
L 380.575601 177.35481 
L 380.828459 178.22529 
L 381.453093 180.88641 
L 381.937711 183.54753 
L 382.309463 186.20865 
L 382.396913 187.02207 
L 382.594179 188.86977 
L 382.806789 191.53089 
L 382.961831 194.19201 
L 383.072517 196.85313 
L 383.149516 199.51425 
L 383.20131 202.17537 
L 383.234447 204.83649 
L 383.253711 207.49761 
L 383.262219 210.15873 
L 383.261452 212.81985 
L 383.251266 215.48097 
L 383.229888 218.14209 
L 383.193881 220.80321 
L 383.126395 223.90785 
L 383.038483 226.56897 
L 382.912875 229.23009 
L 382.737541 231.89121 
L 382.497423 234.55233 
L 382.396913 235.397272 
L 382.176873 237.21345 
L 381.753044 239.87457 
L 381.196901 242.53569 
L 380.575601 244.842812 
L 380.471337 245.19681 
L 379.518902 247.85793 
L 378.790001 249.519696 
L 378.290103 250.51905 
L 377.004401 252.747284 
L 376.718879 253.18017 
L 375.218801 255.29075 
L 374.792583 255.84129 
L 373.397489 257.630325 
L 372.723271 258.50241 
L 371.611889 260.027537 
L 370.863618 261.16353 
L 369.826289 262.940467 
L 369.380835 263.82465 
L 368.074189 266.92929 
L 368.040689 267.024449 
L 367.25109 269.59041 
L 366.568102 272.25153 
L 366.219377 273.806229 
L 365.988986 274.91265 
L 365.473105 277.57377 
L 364.959944 280.23489 
L 364.433777 282.775484 
L 364.408357 282.89601 
L 363.777426 285.55713 
L 363.013296 288.21825 
" clip-path="url(#p2120be07e9)" style="fill: none; stroke: #89bedc; stroke-width: 1.5"/>
   </g>
   <g id="PathCollection_5">
    <path d="M 210.329867 288.21825 
L 210.122225 287.852714 
L 209.106386 285.55713 
L 208.300913 283.219086 
L 208.207414 282.89601 
L 207.595707 280.23489 
L 207.13506 277.57377 
L 206.792596 274.91265 
L 206.541959 272.25153 
L 206.515313 271.861734 
L 206.371891 269.59041 
L 206.253607 266.92929 
L 206.161809 263.82465 
L 206.111232 261.16353 
L 206.078427 258.50241 
L 206.057613 255.84129 
L 206.044612 253.18017 
L 206.036572 250.51905 
L 206.031672 247.85793 
L 206.028812 245.19681 
L 206.027315 242.53569 
L 206.026709 239.87457 
L 206.026603 237.21345 
L 206.026659 234.55233 
L 206.026638 231.89121 
L 206.026443 229.23009 
L 206.026124 226.56897 
L 206.025828 223.90785 
L 206.025704 220.80321 
L 206.025847 218.14209 
L 206.026141 215.48097 
L 206.026425 212.81985 
L 206.026546 210.15873 
L 206.026437 207.49761 
L 206.026158 204.83649 
L 206.025859 202.17537 
L 206.025703 199.51425 
L 206.025774 196.85313 
L 206.026034 194.19201 
L 206.026342 191.53089 
L 206.026531 188.86977 
L 206.026498 186.20865 
L 206.026262 183.54753 
L 206.02595 180.88641 
L 206.025732 178.22529 
L 206.025747 175.12065 
L 206.025983 172.45953 
L 206.026295 169.79841 
L 206.026513 167.13729 
L 206.02652 164.47617 
L 206.026311 161.81505 
L 206.026 159.15393 
L 206.025755 156.49281 
L 206.02571 153.83169 
L 206.025888 151.17057 
L 206.026193 148.50945 
L 206.02646 145.84833 
L 206.026544 143.18721 
L 206.026399 140.52609 
L 206.026105 137.86497 
L 206.02582 135.20385 
L 206.025701 132.09921 
L 206.025845 129.43809 
L 206.02614 126.77697 
L 206.026425 124.11585 
L 206.026546 121.45473 
L 206.026437 118.79361 
L 206.026158 116.13249 
L 206.025859 113.47137 
L 206.025703 110.81025 
L 206.025774 108.14913 
L 206.026034 105.48801 
L 206.026342 102.82689 
L 206.026531 100.16577 
L 206.026498 97.50465 
L 206.026262 94.84353 
L 206.025951 92.18241 
L 206.025734 89.52129 
L 206.025753 86.41665 
L 206.025997 83.75553 
L 206.026327 81.09441 
L 206.026583 78.43329 
L 206.026669 75.77217 
L 206.026621 73.11105 
L 206.026628 70.44993 
L 206.026995 67.78881 
L 206.028094 65.12769 
L 206.030357 62.46657 
L 206.03436 59.80545 
L 206.041007 57.14433 
L 206.051805 54.48321 
L 206.069175 51.82209 
L 206.096766 49.16097 
L 206.13975 46.49985 
L 206.218792 43.39521 
L 206.321998 40.73409 
L 206.470693 38.07297 
L 206.515313 37.498674 
L 206.692258 35.41185 
L 207.003613 32.75073 
L 207.428316 30.08961 
L 208.000429 27.42849 
L 208.300913 26.347528 
L 208.830398 24.76737 
L 209.98927 22.10625 
" clip-path="url(#p2120be07e9)" style="fill: none; stroke: #539ecd; stroke-width: 1.5"/>
    <path d="M 358.094366 22.10625 
L 359.041265 23.98069 
L 359.359053 24.76737 
L 360.219737 27.42849 
L 360.862577 30.036993 
L 360.873845 30.08961 
L 361.319514 32.75073 
L 361.650691 35.41185 
L 361.89297 38.07297 
L 362.066956 40.73409 
L 362.189245 43.39521 
L 362.284177 46.49985 
L 362.33649 49.16097 
L 362.370426 51.82209 
L 362.391959 54.48321 
L 362.40541 57.14433 
L 362.413729 59.80545 
L 362.418798 62.46657 
L 362.421758 65.12769 
L 362.423307 67.78881 
L 362.423934 70.44993 
L 362.424044 73.11105 
L 362.423986 75.77217 
L 362.424008 78.43329 
L 362.42421 81.09441 
L 362.42454 83.75553 
L 362.424847 86.41665 
L 362.424978 89.52129 
L 362.424836 92.18241 
L 362.424543 94.84353 
L 362.424273 97.50465 
L 362.424198 100.16577 
L 362.424414 102.82689 
L 362.424908 105.48801 
L 362.42561 108.14913 
L 362.426509 110.81025 
L 362.42778 113.47137 
L 362.429895 116.13249 
L 362.433693 118.79361 
L 362.44041 121.45473 
L 362.451746 124.11585 
L 362.469982 126.77697 
L 362.4982 129.43809 
L 362.540579 132.09921 
L 362.615494 135.20385 
L 362.648177 136.129157 
L 362.707304 137.86497 
L 362.834005 140.52609 
L 363.008332 143.18721 
L 363.243888 145.84833 
L 363.557018 148.50945 
L 363.967485 151.17057 
L 364.433777 153.517428 
L 364.499491 153.83169 
L 365.181413 156.49281 
L 366.047928 159.15393 
L 366.219377 159.601159 
L 367.168009 161.81505 
L 368.040689 163.533875 
L 368.580359 164.47617 
L 369.826289 166.436211 
L 370.310206 167.13729 
L 371.611889 168.946506 
L 372.226127 169.79841 
L 373.397489 171.458101 
L 374.046594 172.45953 
L 375.218801 174.427861 
L 375.578878 175.12065 
L 376.959002 178.22529 
L 377.004401 178.347902 
L 377.815356 180.88641 
L 378.490541 183.54753 
L 378.790001 185.045404 
L 378.998472 186.20865 
L 379.366517 188.86977 
L 379.641308 191.53089 
L 379.842459 194.19201 
L 379.986371 196.85313 
L 380.086542 199.51425 
L 380.153846 202.17537 
L 380.196739 204.83649 
L 380.221411 207.49761 
L 380.231853 210.15873 
L 380.229881 212.81985 
L 380.215131 215.48097 
L 380.18505 218.14209 
L 380.134853 220.80321 
L 380.041273 223.90785 
L 379.919861 226.56897 
L 379.747047 229.23009 
L 379.506851 231.89121 
L 379.179611 234.55233 
L 378.790001 236.926028 
L 378.736731 237.21345 
L 378.106052 239.87457 
L 377.292959 242.53569 
L 377.004401 243.306148 
L 376.168475 245.19681 
L 375.218801 247.005187 
L 374.688514 247.85793 
L 373.397489 249.728547 
L 372.787037 250.51905 
L 371.611889 251.987568 
L 370.654006 253.18017 
L 369.826289 254.243758 
L 368.700426 255.84129 
L 368.040689 256.872499 
L 367.140052 258.50241 
L 366.219377 260.456881 
L 365.928291 261.16353 
L 364.993058 263.82465 
L 364.433777 265.770033 
L 364.125737 266.92929 
L 363.518003 269.59041 
L 362.984852 272.25153 
L 362.648177 274.038533 
L 362.478592 274.91265 
L 361.950931 277.57377 
L 361.3743 280.23489 
L 360.862577 282.273927 
L 360.683926 282.89601 
L 359.768386 285.55713 
L 359.041265 287.268734 
L 358.531985 288.21825 
" clip-path="url(#p2120be07e9)" style="fill: none; stroke: #539ecd; stroke-width: 1.5"/>
   </g>
   <g id="PathCollection_6">
    <path d="M 223.580178 288.21825 
L 222.657137 288.058673 
L 220.871537 287.712729 
L 219.085937 287.267032 
L 217.300337 286.6045 
L 215.518805 285.55713 
L 215.479025 285.529102 
L 213.693425 283.598525 
L 213.246473 282.89601 
L 211.909805 280.23489 
L 211.907825 280.22981 
L 211.131862 277.57377 
L 210.553591 274.91265 
L 210.130374 272.25153 
L 210.122225 272.180956 
L 209.878805 269.59041 
L 209.703204 266.92929 
L 209.567093 263.82465 
L 209.492211 261.16353 
L 209.443704 258.50241 
L 209.412959 255.84129 
L 209.393767 253.18017 
L 209.381905 250.51905 
L 209.374688 247.85793 
L 209.370494 245.19681 
L 209.368323 242.53569 
L 209.367468 239.87457 
L 209.367335 237.21345 
L 209.367421 234.55233 
L 209.367373 231.89121 
L 209.367058 229.23009 
L 209.366568 226.56897 
L 209.366129 223.90785 
L 209.365968 220.80321 
L 209.366206 218.14209 
L 209.36666 215.48097 
L 209.367083 212.81985 
L 209.367244 210.15873 
L 209.367056 207.49761 
L 209.366621 204.83649 
L 209.366174 202.17537 
L 209.365958 199.51425 
L 209.36609 196.85313 
L 209.366498 194.19201 
L 209.366961 191.53089 
L 209.367228 188.86977 
L 209.367155 186.20865 
L 209.36678 183.54753 
L 209.366308 180.88641 
L 209.365994 178.22529 
L 209.366045 175.12065 
L 209.366419 172.45953 
L 209.366891 169.79841 
L 209.367206 167.13729 
L 209.367191 164.47617 
L 209.366856 161.81505 
L 209.366382 159.15393 
L 209.366026 156.49281 
L 209.365981 153.83169 
L 209.366271 151.17057 
L 209.366739 148.50945 
L 209.367132 145.84833 
L 209.367236 143.18721 
L 209.366995 140.52609 
L 209.36654 137.86497 
L 209.366117 135.20385 
L 209.365963 132.09921 
L 209.366204 129.43809 
L 209.366659 126.77697 
L 209.367082 124.11585 
L 209.367244 121.45473 
L 209.367056 118.79361 
L 209.366621 116.13249 
L 209.366174 113.47137 
L 209.365958 110.81025 
L 209.36609 108.14913 
L 209.366498 105.48801 
L 209.366961 102.82689 
L 209.367228 100.16577 
L 209.367155 97.50465 
L 209.366781 94.84353 
L 209.366309 92.18241 
L 209.365997 89.52129 
L 209.366055 86.41665 
L 209.366442 83.75553 
L 209.366943 81.09441 
L 209.367318 78.43329 
L 209.367431 75.77217 
L 209.367353 73.11105 
L 209.367386 70.44993 
L 209.368004 67.78881 
L 209.369778 65.12769 
L 209.373378 62.46657 
L 209.379702 59.80545 
L 209.390179 57.14433 
L 209.407187 54.48321 
L 209.43453 51.82209 
L 209.47792 49.16097 
L 209.545423 46.49985 
L 209.669356 43.39521 
L 209.830951 40.73409 
L 210.063544 38.07297 
L 210.122225 37.589201 
L 210.450081 35.41185 
L 211.003245 32.75073 
L 211.758128 30.08961 
L 211.907825 29.683618 
L 213.042324 27.42849 
L 213.693425 26.420753 
L 215.277869 24.76737 
L 215.479025 24.595717 
L 217.300337 23.587695 
L 219.085937 22.967614 
L 220.871537 22.544268 
L 222.657137 22.206742 
L 223.24412 22.10625 
" clip-path="url(#p2120be07e9)" style="fill: none; stroke: #2b7bba; stroke-width: 1.5"/>
    <path d="M 344.877409 22.10625 
L 348.291953 22.772727 
L 350.077553 23.28816 
L 351.863153 24.081447 
L 353.684465 25.469432 
L 355.470065 27.822538 
L 356.482294 30.08961 
L 357.357037 32.75073 
L 357.888271 35.41185 
L 358.555861 40.73409 
L 358.903686 46.49985 
L 359.070405 54.48321 
L 359.113354 75.77217 
L 359.199538 132.09921 
L 359.419102 140.52609 
L 359.730817 145.84833 
L 360.281936 151.17057 
L 361.172759 156.49281 
L 361.768549 159.15393 
L 362.648177 162.186278 
L 363.4399 164.47617 
L 364.581982 167.13729 
L 366.219377 170.191414 
L 368.040689 172.945185 
L 371.611889 177.983508 
L 371.76026 178.22529 
L 373.397489 181.317629 
L 374.242244 183.54753 
L 375.218801 186.844856 
L 375.62099 188.86977 
L 376.320008 194.19201 
L 376.68396 199.51425 
L 376.884989 207.49761 
L 376.870005 215.48097 
L 376.739503 220.80321 
L 376.395428 226.56897 
L 375.745811 231.89121 
L 375.218801 234.639724 
L 374.433111 237.21345 
L 373.397489 239.900789 
L 371.611889 242.953795 
L 369.826289 245.323295 
L 367.77568 247.85793 
L 365.89102 250.51905 
L 364.391594 253.18017 
L 362.648177 257.366396 
L 362.256741 258.50241 
L 361.475924 261.16353 
L 360.148925 266.92929 
L 358.523814 274.91265 
L 357.255665 279.424614 
L 356.931998 280.23489 
L 355.470065 283.150311 
L 353.263484 285.55713 
L 351.863153 286.451555 
L 350.077553 287.170326 
L 348.291953 287.642688 
L 345.239321 288.21825 
L 345.239321 288.21825 
" clip-path="url(#p2120be07e9)" style="fill: none; stroke: #2b7bba; stroke-width: 1.5"/>
   </g>
   <g id="PathCollection_7">
    <path d="M 215.311395 266.92929 
L 214.961949 263.82465 
L 214.769942 261.16353 
L 214.645708 258.50241 
L 214.567036 255.84129 
L 214.517949 253.18017 
L 214.48763 250.51905 
L 214.469222 247.85793 
L 214.458583 245.19681 
L 214.453146 242.53569 
L 214.451066 239.87457 
L 214.450791 237.21345 
L 214.45101 234.55233 
L 214.450829 231.89121 
L 214.449947 229.23009 
L 214.448642 226.56897 
L 214.447522 223.90785 
L 214.447178 220.80321 
L 214.447868 218.14209 
L 214.449084 215.48097 
L 214.450162 212.81985 
L 214.450518 210.15873 
L 214.449957 207.49761 
L 214.448783 204.83649 
L 214.447633 202.17537 
L 214.44713 199.51425 
L 214.447546 196.85313 
L 214.448656 194.19201 
L 214.449859 191.53089 
L 214.450502 188.86977 
L 214.450237 186.20865 
L 214.449207 183.54753 
L 214.447971 180.88641 
L 214.447199 178.22529 
L 214.447416 175.12065 
L 214.448446 172.45953 
L 214.449682 169.79841 
L 214.450454 167.13729 
L 214.450344 164.47617 
L 214.449411 161.81505 
L 214.448161 159.15393 
L 214.447272 156.49281 
L 214.447225 153.83169 
L 214.448046 151.17057 
L 214.44929 148.50945 
L 214.450283 145.84833 
L 214.450486 143.18721 
L 214.449789 140.52609 
L 214.448571 137.86497 
L 214.447491 135.20385 
L 214.447167 132.09921 
L 214.447863 129.43809 
L 214.449082 126.77697 
L 214.450162 124.11585 
L 214.450518 121.45473 
L 214.449957 118.79361 
L 214.448783 116.13249 
L 214.447633 113.47137 
L 214.44713 110.81025 
L 214.447546 108.14913 
L 214.448656 105.48801 
L 214.449859 102.82689 
L 214.450502 100.16577 
L 214.450237 97.50465 
L 214.449209 94.84353 
L 214.447975 92.18241 
L 214.447209 89.52129 
L 214.447445 86.41665 
L 214.448511 83.75553 
L 214.449827 81.09441 
L 214.450771 78.43329 
L 214.451018 75.77217 
L 214.450806 73.11105 
L 214.450976 70.44993 
L 214.452804 67.78881 
L 214.457824 65.12769 
L 214.467837 62.46657 
L 214.48531 59.80545 
L 214.51419 57.14433 
L 214.561036 54.48321 
L 214.636302 51.82209 
L 214.755606 49.16097 
L 214.940954 46.49985 
L 215.280736 43.39521 
L 215.479025 42.195929 
L 215.842999 40.73409 
L 216.792199 38.07297 
L 217.300337 37.049946 
L 218.569154 35.41185 
L 219.085937 34.915678 
L 220.871537 33.740207 
L 222.657137 32.812821 
L 222.789531 32.75073 
L 224.478449 32.137969 
L 226.264049 31.555417 
L 228.049649 31.097299 
L 229.835249 30.83611 
L 231.656561 30.811448 
L 233.442161 30.999035 
L 235.227761 31.307834 
L 237.013361 31.611559 
L 238.834673 31.789876 
L 240.620273 31.763439 
L 242.405873 31.546157 
L 244.191473 31.22234 
L 246.012785 30.911634 
L 247.798385 30.743297 
L 249.583985 30.772957 
L 251.369585 30.989181 
L 253.190897 31.317929 
L 254.976497 31.622402 
L 256.762097 31.790944 
L 258.547697 31.757254 
L 260.369009 31.528266 
L 262.154609 31.202067 
L 263.940209 30.901618 
L 265.725809 30.740489 
L 267.547121 30.781168 
L 269.332721 31.00661 
L 271.118321 31.331326 
L 272.903921 31.632417 
L 274.725233 31.794906 
L 276.510833 31.748655 
L 278.296433 31.516359 
L 280.082033 31.188693 
L 281.903345 30.887101 
L 283.688945 30.73692 
L 285.474545 30.787025 
L 287.260145 31.018438 
L 289.081457 31.351347 
L 290.867057 31.647003 
L 292.652657 31.797126 
L 294.438257 31.742536 
L 296.259569 31.498206 
L 298.045169 31.168731 
L 299.830769 30.877722 
L 301.616369 30.734955 
L 303.437681 30.796372 
L 305.223281 31.036471 
L 307.008881 31.364632 
L 308.794481 31.656428 
L 310.615793 31.79982 
L 312.401393 31.732789 
L 314.186993 31.485921 
L 315.972593 31.155502 
L 317.793905 30.864118 
L 319.579505 30.73264 
L 321.365105 30.803002 
L 323.150705 31.048757 
L 324.972017 31.384657 
L 326.757617 31.670632 
L 328.543217 31.802472 
L 330.328817 31.728894 
L 332.150129 31.473996 
L 333.935729 31.150365 
L 335.721329 30.885716 
L 337.506929 30.7928 
L 339.328241 30.935164 
L 341.113841 31.298724 
L 342.899441 31.824138 
L 344.685041 32.439257 
L 345.515559 32.75073 
L 346.506353 33.230686 
L 348.291953 34.238015 
L 349.823245 35.41185 
L 350.077553 35.671779 
L 351.629868 38.07297 
L 351.863153 38.57064 
L 352.522213 40.73409 
L 353.092383 43.39521 
L 353.534018 46.49985 
L 353.684465 48.147579 
L 353.747832 49.16097 
L 353.855699 51.82209 
L 353.924003 54.48321 
L 353.966618 57.14433 
L 353.99294 59.80545 
L 354.008922 62.46657 
L 354.018158 65.12769 
L 354.022878 67.78881 
L 354.024683 70.44993 
L 354.024922 73.11105 
L 354.024732 75.77217 
L 354.024889 78.43329 
L 354.025655 81.09441 
L 354.026789 83.75553 
L 354.027761 86.41665 
L 354.028061 89.52129 
L 354.027466 92.18241 
L 354.026419 94.84353 
L 354.025498 97.50465 
L 354.025224 100.16577 
L 354.025779 102.82689 
L 354.026934 105.48801 
L 354.028192 108.14913 
L 354.029111 110.81025 
L 354.029624 113.47137 
L 354.030202 116.13249 
L 354.031803 118.79361 
L 354.035664 121.45473 
L 354.043081 124.11585 
L 354.055359 126.77697 
L 354.074004 129.43809 
L 354.101116 132.09921 
L 354.147741 135.20385 
L 354.205941 137.86497 
L 354.287701 140.52609 
L 354.401079 143.18721 
L 354.555807 145.84833 
L 354.763627 148.50945 
L 355.039092 151.17057 
L 355.400998 153.83169 
L 355.470065 154.246215 
L 355.759946 156.49281 
L 356.197967 159.15393 
L 356.762892 161.81505 
L 357.255665 163.677704 
L 357.436775 164.47617 
L 358.150412 167.13729 
L 359.041265 169.752091 
L 359.056149 169.79841 
L 359.998145 172.45953 
L 360.862577 174.49504 
L 361.137544 175.12065 
L 362.648177 178.214251 
L 362.654296 178.22529 
L 364.142355 180.88641 
L 364.433777 181.397236 
L 365.794972 183.54753 
L 366.219377 184.245443 
L 367.426493 186.20865 
L 368.040689 187.311066 
L 368.788115 188.86977 
L 369.826289 191.416765 
L 369.86169 191.53089 
L 370.494677 194.19201 
L 370.973418 196.85313 
L 371.319403 199.51425 
L 371.556869 202.17537 
L 371.611889 203.142973 
L 371.679347 204.83649 
L 371.738325 207.49761 
L 371.759551 210.15873 
L 371.746595 212.81985 
L 371.697168 215.48097 
L 371.611889 217.893743 
L 371.599283 218.14209 
L 371.381254 220.80321 
L 370.989156 223.90785 
L 370.502336 226.56897 
L 369.846475 229.23009 
L 369.826289 229.292255 
L 368.69514 231.89121 
L 368.040689 233.141418 
L 367.175871 234.55233 
L 366.219377 235.942334 
L 365.367607 237.21345 
L 364.433777 238.537163 
L 363.606961 239.87457 
L 362.648177 241.448262 
L 362.066292 242.53569 
L 360.862577 244.9733 
L 360.759144 245.19681 
L 359.603262 247.85793 
L 359.041265 249.38629 
L 358.611174 250.51905 
L 357.738994 253.18017 
L 357.255665 254.964492 
L 356.984064 255.84129 
L 356.26441 258.50241 
L 355.667408 261.16353 
L 355.470065 262.120111 
L 355.020002 263.82465 
L 354.229899 266.92929 
L 353.684465 268.974858 
L 353.452545 269.59041 
L 352.283385 272.25153 
L 351.863153 273.037619 
L 350.348604 274.91265 
L 350.077553 275.177998 
L 348.291953 276.355782 
L 346.506353 277.26071 
L 345.816939 277.57377 
L 344.685041 277.975223 
L 342.899441 278.568096 
L 341.113841 279.074497 
L 339.328241 279.416413 
L 337.506929 279.53495 
L 335.721329 279.422459 
L 333.935729 279.147677 
L 332.150129 278.825648 
L 330.328817 278.582425 
L 328.543217 278.525248 
L 326.757617 278.672547 
L 324.972017 278.967498 
L 323.150705 279.301918 
L 321.365105 279.535679 
L 319.579505 279.588157 
L 317.793905 279.440351 
L 315.972593 279.140809 
L 314.186993 278.813465 
L 312.401393 278.578813 
L 310.615793 278.528438 
L 308.794481 278.687466 
L 307.008881 278.987734 
L 305.223281 279.3139 
L 303.437681 279.541659 
L 301.616369 279.584739 
L 299.830769 279.425978 
L 298.045169 279.127491 
L 296.259569 278.801518 
L 294.438257 278.569996 
L 292.652657 278.532149 
L 290.867057 278.697394 
L 289.081457 279.001154 
L 287.260145 279.331459 
L 285.474545 279.550018 
L 283.688945 279.582043 
L 281.903345 279.416104 
L 280.082033 279.10743 
L 278.296433 278.783899 
L 276.510833 278.564505 
L 274.725233 278.535043 
L 272.903921 278.712713 
L 271.118321 279.021345 
L 269.332721 279.34295 
L 267.547121 279.555207 
L 265.725809 279.577387 
L 263.940209 279.400873 
L 262.154609 279.094012 
L 260.369009 278.772367 
L 258.547697 278.556859 
L 256.762097 278.540011 
L 254.976497 278.7232 
L 253.190897 279.034833 
L 251.369585 279.359841 
L 249.583985 279.562398 
L 247.798385 279.573857 
L 246.012785 279.390394 
L 244.191473 279.073697 
L 242.405873 278.755037 
L 240.620273 278.551255 
L 238.834673 278.541603 
L 237.013361 278.734405 
L 235.227761 279.044325 
L 233.442161 279.348146 
L 231.656561 279.52036 
L 229.835249 279.474639 
L 228.049649 279.194749 
L 226.264049 278.725039 
L 224.478449 278.138439 
L 222.923007 277.57377 
L 222.657137 277.449128 
L 220.871537 276.517353 
L 219.085937 275.327884 
L 218.659296 274.91265 
L 217.300337 273.144865 
L 216.857452 272.25153 
L 215.901012 269.59041 
L 215.479025 267.922469 
L 215.311395 266.92929 
z
" clip-path="url(#p2120be07e9)" style="fill: none; stroke: #0b559f; stroke-width: 1.5"/>
   </g>
   <g id="PathCollection_8"/>
   <g id="patch_3">
    <path d="M 34.240625 288.21825 
L 34.240625 22.10625 
" style="fill: none; stroke: #000000; stroke-width: 0.8; stroke-linejoin: miter; stroke-linecap: square"/>
   </g>
   <g id="patch_4">
    <path d="M 391.360625 288.21825 
L 391.360625 22.10625 
" style="fill: none; stroke: #000000; stroke-width: 0.8; stroke-linejoin: miter; stroke-linecap: square"/>
   </g>
   <g id="patch_5">
    <path d="M 34.240625 288.21825 
L 391.360625 288.21825 
" style="fill: none; stroke: #000000; stroke-width: 0.8; stroke-linejoin: miter; stroke-linecap: square"/>
   </g>
   <g id="patch_6">
    <path d="M 34.240625 22.10625 
L 391.360625 22.10625 
" style="fill: none; stroke: #000000; stroke-width: 0.8; stroke-linejoin: miter; stroke-linecap: square"/>
   </g>
   <g id="text_16">
    <!-- 8.0_cross_-43.0 -->
    <g transform="translate(166.181563 16.10625)scale(0.12 -0.12)">
     <defs>
      <path id="DejaVuSans-2e" d="M 684 794 
L 1344 794 
L 1344 0 
L 684 0 
L 684 794 
z
" transform="scale(0.015625)"/>
      <path id="DejaVuSans-5f" d="M 3263 -1063 
L 3263 -1509 
L -63 -1509 
L -63 -1063 
L 3263 -1063 
z
" transform="scale(0.015625)"/>
      <path id="DejaVuSans-63" d="M 3122 3366 
L 3122 2828 
Q 2878 2963 2633 3030 
Q 2388 3097 2138 3097 
Q 1578 3097 1268 2742 
Q 959 2388 959 1747 
Q 959 1106 1268 751 
Q 1578 397 2138 397 
Q 2388 397 2633 464 
Q 2878 531 3122 666 
L 3122 134 
Q 2881 22 2623 -34 
Q 2366 -91 2075 -91 
Q 1284 -91 818 406 
Q 353 903 353 1747 
Q 353 2603 823 3093 
Q 1294 3584 2113 3584 
Q 2378 3584 2631 3529 
Q 2884 3475 3122 3366 
z
" transform="scale(0.015625)"/>
      <path id="DejaVuSans-72" d="M 2631 2963 
Q 2534 3019 2420 3045 
Q 2306 3072 2169 3072 
Q 1681 3072 1420 2755 
Q 1159 2438 1159 1844 
L 1159 0 
L 581 0 
L 581 3500 
L 1159 3500 
L 1159 2956 
Q 1341 3275 1631 3429 
Q 1922 3584 2338 3584 
Q 2397 3584 2469 3576 
Q 2541 3569 2628 3553 
L 2631 2963 
z
" transform="scale(0.015625)"/>
      <path id="DejaVuSans-73" d="M 2834 3397 
L 2834 2853 
Q 2591 2978 2328 3040 
Q 2066 3103 1784 3103 
Q 1356 3103 1142 2972 
Q 928 2841 928 2578 
Q 928 2378 1081 2264 
Q 1234 2150 1697 2047 
L 1894 2003 
Q 2506 1872 2764 1633 
Q 3022 1394 3022 966 
Q 3022 478 2636 193 
Q 2250 -91 1575 -91 
Q 1294 -91 989 -36 
Q 684 19 347 128 
L 347 722 
Q 666 556 975 473 
Q 1284 391 1588 391 
Q 1994 391 2212 530 
Q 2431 669 2431 922 
Q 2431 1156 2273 1281 
Q 2116 1406 1581 1522 
L 1381 1569 
Q 847 1681 609 1914 
Q 372 2147 372 2553 
Q 372 3047 722 3315 
Q 1072 3584 1716 3584 
Q 2034 3584 2315 3537 
Q 2597 3491 2834 3397 
z
" transform="scale(0.015625)"/>
      <path id="DejaVuSans-2d" d="M 313 2009 
L 1997 2009 
L 1997 1497 
L 313 1497 
L 313 2009 
z
" transform="scale(0.015625)"/>
     </defs>
     <use xlink:href="#DejaVuSans-38"/>
     <use xlink:href="#DejaVuSans-2e" x="63.623047"/>
     <use xlink:href="#DejaVuSans-30" x="95.410156"/>
     <use xlink:href="#DejaVuSans-5f" x="159.033203"/>
     <use xlink:href="#DejaVuSans-63" x="209.033203"/>
     <use xlink:href="#DejaVuSans-72" x="264.013672"/>
     <use xlink:href="#DejaVuSans-6f" x="302.876953"/>
     <use xlink:href="#DejaVuSans-73" x="364.058594"/>
     <use xlink:href="#DejaVuSans-73" x="416.158203"/>
     <use xlink:href="#DejaVuSans-5f" x="468.257812"/>
     <use xlink:href="#DejaVuSans-2d" x="518.257812"/>
     <use xlink:href="#DejaVuSans-34" x="554.341797"/>
     <use xlink:href="#DejaVuSans-33" x="617.964844"/>
     <use xlink:href="#DejaVuSans-2e" x="681.587891"/>
     <use xlink:href="#DejaVuSans-30" x="713.375"/>
    </g>
   </g>
  </g>
 </g>
 <defs>
  <clipPath id="p2120be07e9">
   <rect x="34.240625" y="22.10625" width="357.12" height="266.112"/>
  </clipPath>
 </defs>
</svg>
