<?xml version="1.0" encoding="utf-8" standalone="no"?>
<!DOCTYPE svg PUBLIC "-//W3C//DTD SVG 1.1//EN"
  "http://www.w3.org/Graphics/SVG/1.1/DTD/svg11.dtd">
<svg xmlns:xlink="http://www.w3.org/1999/xlink" width="408.104375pt" height="325.7745pt" viewBox="0 0 408.104375 325.7745" xmlns="http://www.w3.org/2000/svg" version="1.1">
 <metadata>
  <rdf:RDF xmlns:dc="http://purl.org/dc/elements/1.1/" xmlns:cc="http://creativecommons.org/ns#" xmlns:rdf="http://www.w3.org/1999/02/22-rdf-syntax-ns#">
   <cc:Work>
    <dc:type rdf:resource="http://purl.org/dc/dcmitype/StillImage"/>
    <dc:date>2024-07-12T12:16:12.893236</dc:date>
    <dc:format>image/svg+xml</dc:format>
    <dc:creator>
     <cc:Agent>
      <dc:title>Matplotlib v3.5.3, https://matplotlib.org/</dc:title>
     </cc:Agent>
    </dc:creator>
   </cc:Work>
  </rdf:RDF>
 </metadata>
 <defs>
  <style type="text/css">*{stroke-linejoin: round; stroke-linecap: butt}</style>
 </defs>
 <g id="figure_1">
  <g id="patch_1">
   <path d="M 0 325.7745 
L 408.104375 325.7745 
L 408.104375 0 
L 0 0 
z
" style="fill: #ffffff"/>
  </g>
  <g id="axes_1">
   <g id="patch_2">
    <path d="M 34.240625 288.21825 
L 391.360625 288.21825 
L 391.360625 22.10625 
L 34.240625 22.10625 
z
" style="fill: #ffffff"/>
   </g>
   <g id="matplotlib.axis_1">
    <g id="xtick_1">
     <g id="line2d_1">
      <defs>
       <path id="m567b62efac" d="M 0 0 
L 0 3.5 
" style="stroke: #000000; stroke-width: 0.8"/>
      </defs>
      <g>
       <use xlink:href="#m567b62efac" x="34.240625" y="288.21825" style="stroke: #000000; stroke-width: 0.8"/>
      </g>
     </g>
     <g id="text_1">
      <!-- 0 -->
      <g transform="translate(31.059375 302.816687)scale(0.1 -0.1)">
       <defs>
        <path id="DejaVuSans-30" d="M 2034 4250 
Q 1547 4250 1301 3770 
Q 1056 3291 1056 2328 
Q 1056 1369 1301 889 
Q 1547 409 2034 409 
Q 2525 409 2770 889 
Q 3016 1369 3016 2328 
Q 3016 3291 2770 3770 
Q 2525 4250 2034 4250 
z
M 2034 4750 
Q 2819 4750 3233 4129 
Q 3647 3509 3647 2328 
Q 3647 1150 3233 529 
Q 2819 -91 2034 -91 
Q 1250 -91 836 529 
Q 422 1150 422 2328 
Q 422 3509 836 4129 
Q 1250 4750 2034 4750 
z
" transform="scale(0.015625)"/>
       </defs>
       <use xlink:href="#DejaVuSans-30"/>
      </g>
     </g>
    </g>
    <g id="xtick_2">
     <g id="line2d_2">
      <g>
       <use xlink:href="#m567b62efac" x="105.664625" y="288.21825" style="stroke: #000000; stroke-width: 0.8"/>
      </g>
     </g>
     <g id="text_2">
      <!-- 20 -->
      <g transform="translate(99.302125 302.816687)scale(0.1 -0.1)">
       <defs>
        <path id="DejaVuSans-32" d="M 1228 531 
L 3431 531 
L 3431 0 
L 469 0 
L 469 531 
Q 828 903 1448 1529 
Q 2069 2156 2228 2338 
Q 2531 2678 2651 2914 
Q 2772 3150 2772 3378 
Q 2772 3750 2511 3984 
Q 2250 4219 1831 4219 
Q 1534 4219 1204 4116 
Q 875 4013 500 3803 
L 500 4441 
Q 881 4594 1212 4672 
Q 1544 4750 1819 4750 
Q 2544 4750 2975 4387 
Q 3406 4025 3406 3419 
Q 3406 3131 3298 2873 
Q 3191 2616 2906 2266 
Q 2828 2175 2409 1742 
Q 1991 1309 1228 531 
z
" transform="scale(0.015625)"/>
       </defs>
       <use xlink:href="#DejaVuSans-32"/>
       <use xlink:href="#DejaVuSans-30" x="63.623047"/>
      </g>
     </g>
    </g>
    <g id="xtick_3">
     <g id="line2d_3">
      <g>
       <use xlink:href="#m567b62efac" x="177.088625" y="288.21825" style="stroke: #000000; stroke-width: 0.8"/>
      </g>
     </g>
     <g id="text_3">
      <!-- 40 -->
      <g transform="translate(170.726125 302.816687)scale(0.1 -0.1)">
       <defs>
        <path id="DejaVuSans-34" d="M 2419 4116 
L 825 1625 
L 2419 1625 
L 2419 4116 
z
M 2253 4666 
L 3047 4666 
L 3047 1625 
L 3713 1625 
L 3713 1100 
L 3047 1100 
L 3047 0 
L 2419 0 
L 2419 1100 
L 313 1100 
L 313 1709 
L 2253 4666 
z
" transform="scale(0.015625)"/>
       </defs>
       <use xlink:href="#DejaVuSans-34"/>
       <use xlink:href="#DejaVuSans-30" x="63.623047"/>
      </g>
     </g>
    </g>
    <g id="xtick_4">
     <g id="line2d_4">
      <g>
       <use xlink:href="#m567b62efac" x="248.512625" y="288.21825" style="stroke: #000000; stroke-width: 0.8"/>
      </g>
     </g>
     <g id="text_4">
      <!-- 60 -->
      <g transform="translate(242.150125 302.816687)scale(0.1 -0.1)">
       <defs>
        <path id="DejaVuSans-36" d="M 2113 2584 
Q 1688 2584 1439 2293 
Q 1191 2003 1191 1497 
Q 1191 994 1439 701 
Q 1688 409 2113 409 
Q 2538 409 2786 701 
Q 3034 994 3034 1497 
Q 3034 2003 2786 2293 
Q 2538 2584 2113 2584 
z
M 3366 4563 
L 3366 3988 
Q 3128 4100 2886 4159 
Q 2644 4219 2406 4219 
Q 1781 4219 1451 3797 
Q 1122 3375 1075 2522 
Q 1259 2794 1537 2939 
Q 1816 3084 2150 3084 
Q 2853 3084 3261 2657 
Q 3669 2231 3669 1497 
Q 3669 778 3244 343 
Q 2819 -91 2113 -91 
Q 1303 -91 875 529 
Q 447 1150 447 2328 
Q 447 3434 972 4092 
Q 1497 4750 2381 4750 
Q 2619 4750 2861 4703 
Q 3103 4656 3366 4563 
z
" transform="scale(0.015625)"/>
       </defs>
       <use xlink:href="#DejaVuSans-36"/>
       <use xlink:href="#DejaVuSans-30" x="63.623047"/>
      </g>
     </g>
    </g>
    <g id="xtick_5">
     <g id="line2d_5">
      <g>
       <use xlink:href="#m567b62efac" x="319.936625" y="288.21825" style="stroke: #000000; stroke-width: 0.8"/>
      </g>
     </g>
     <g id="text_5">
      <!-- 80 -->
      <g transform="translate(313.574125 302.816687)scale(0.1 -0.1)">
       <defs>
        <path id="DejaVuSans-38" d="M 2034 2216 
Q 1584 2216 1326 1975 
Q 1069 1734 1069 1313 
Q 1069 891 1326 650 
Q 1584 409 2034 409 
Q 2484 409 2743 651 
Q 3003 894 3003 1313 
Q 3003 1734 2745 1975 
Q 2488 2216 2034 2216 
z
M 1403 2484 
Q 997 2584 770 2862 
Q 544 3141 544 3541 
Q 544 4100 942 4425 
Q 1341 4750 2034 4750 
Q 2731 4750 3128 4425 
Q 3525 4100 3525 3541 
Q 3525 3141 3298 2862 
Q 3072 2584 2669 2484 
Q 3125 2378 3379 2068 
Q 3634 1759 3634 1313 
Q 3634 634 3220 271 
Q 2806 -91 2034 -91 
Q 1263 -91 848 271 
Q 434 634 434 1313 
Q 434 1759 690 2068 
Q 947 2378 1403 2484 
z
M 1172 3481 
Q 1172 3119 1398 2916 
Q 1625 2713 2034 2713 
Q 2441 2713 2670 2916 
Q 2900 3119 2900 3481 
Q 2900 3844 2670 4047 
Q 2441 4250 2034 4250 
Q 1625 4250 1398 4047 
Q 1172 3844 1172 3481 
z
" transform="scale(0.015625)"/>
       </defs>
       <use xlink:href="#DejaVuSans-38"/>
       <use xlink:href="#DejaVuSans-30" x="63.623047"/>
      </g>
     </g>
    </g>
    <g id="xtick_6">
     <g id="line2d_6">
      <g>
       <use xlink:href="#m567b62efac" x="391.360625" y="288.21825" style="stroke: #000000; stroke-width: 0.8"/>
      </g>
     </g>
     <g id="text_6">
      <!-- 100 -->
      <g transform="translate(381.816875 302.816687)scale(0.1 -0.1)">
       <defs>
        <path id="DejaVuSans-31" d="M 794 531 
L 1825 531 
L 1825 4091 
L 703 3866 
L 703 4441 
L 1819 4666 
L 2450 4666 
L 2450 531 
L 3481 531 
L 3481 0 
L 794 0 
L 794 531 
z
" transform="scale(0.015625)"/>
       </defs>
       <use xlink:href="#DejaVuSans-31"/>
       <use xlink:href="#DejaVuSans-30" x="63.623047"/>
       <use xlink:href="#DejaVuSans-30" x="127.246094"/>
      </g>
     </g>
    </g>
    <g id="text_7">
     <!-- axialRotation -->
     <g transform="translate(180.024844 316.494812)scale(0.1 -0.1)">
      <defs>
       <path id="DejaVuSans-61" d="M 2194 1759 
Q 1497 1759 1228 1600 
Q 959 1441 959 1056 
Q 959 750 1161 570 
Q 1363 391 1709 391 
Q 2188 391 2477 730 
Q 2766 1069 2766 1631 
L 2766 1759 
L 2194 1759 
z
M 3341 1997 
L 3341 0 
L 2766 0 
L 2766 531 
Q 2569 213 2275 61 
Q 1981 -91 1556 -91 
Q 1019 -91 701 211 
Q 384 513 384 1019 
Q 384 1609 779 1909 
Q 1175 2209 1959 2209 
L 2766 2209 
L 2766 2266 
Q 2766 2663 2505 2880 
Q 2244 3097 1772 3097 
Q 1472 3097 1187 3025 
Q 903 2953 641 2809 
L 641 3341 
Q 956 3463 1253 3523 
Q 1550 3584 1831 3584 
Q 2591 3584 2966 3190 
Q 3341 2797 3341 1997 
z
" transform="scale(0.015625)"/>
       <path id="DejaVuSans-78" d="M 3513 3500 
L 2247 1797 
L 3578 0 
L 2900 0 
L 1881 1375 
L 863 0 
L 184 0 
L 1544 1831 
L 300 3500 
L 978 3500 
L 1906 2253 
L 2834 3500 
L 3513 3500 
z
" transform="scale(0.015625)"/>
       <path id="DejaVuSans-69" d="M 603 3500 
L 1178 3500 
L 1178 0 
L 603 0 
L 603 3500 
z
M 603 4863 
L 1178 4863 
L 1178 4134 
L 603 4134 
L 603 4863 
z
" transform="scale(0.015625)"/>
       <path id="DejaVuSans-6c" d="M 603 4863 
L 1178 4863 
L 1178 0 
L 603 0 
L 603 4863 
z
" transform="scale(0.015625)"/>
       <path id="DejaVuSans-52" d="M 2841 2188 
Q 3044 2119 3236 1894 
Q 3428 1669 3622 1275 
L 4263 0 
L 3584 0 
L 2988 1197 
Q 2756 1666 2539 1819 
Q 2322 1972 1947 1972 
L 1259 1972 
L 1259 0 
L 628 0 
L 628 4666 
L 2053 4666 
Q 2853 4666 3247 4331 
Q 3641 3997 3641 3322 
Q 3641 2881 3436 2590 
Q 3231 2300 2841 2188 
z
M 1259 4147 
L 1259 2491 
L 2053 2491 
Q 2509 2491 2742 2702 
Q 2975 2913 2975 3322 
Q 2975 3731 2742 3939 
Q 2509 4147 2053 4147 
L 1259 4147 
z
" transform="scale(0.015625)"/>
       <path id="DejaVuSans-6f" d="M 1959 3097 
Q 1497 3097 1228 2736 
Q 959 2375 959 1747 
Q 959 1119 1226 758 
Q 1494 397 1959 397 
Q 2419 397 2687 759 
Q 2956 1122 2956 1747 
Q 2956 2369 2687 2733 
Q 2419 3097 1959 3097 
z
M 1959 3584 
Q 2709 3584 3137 3096 
Q 3566 2609 3566 1747 
Q 3566 888 3137 398 
Q 2709 -91 1959 -91 
Q 1206 -91 779 398 
Q 353 888 353 1747 
Q 353 2609 779 3096 
Q 1206 3584 1959 3584 
z
" transform="scale(0.015625)"/>
       <path id="DejaVuSans-74" d="M 1172 4494 
L 1172 3500 
L 2356 3500 
L 2356 3053 
L 1172 3053 
L 1172 1153 
Q 1172 725 1289 603 
Q 1406 481 1766 481 
L 2356 481 
L 2356 0 
L 1766 0 
Q 1100 0 847 248 
Q 594 497 594 1153 
L 594 3053 
L 172 3053 
L 172 3500 
L 594 3500 
L 594 4494 
L 1172 4494 
z
" transform="scale(0.015625)"/>
       <path id="DejaVuSans-6e" d="M 3513 2113 
L 3513 0 
L 2938 0 
L 2938 2094 
Q 2938 2591 2744 2837 
Q 2550 3084 2163 3084 
Q 1697 3084 1428 2787 
Q 1159 2491 1159 1978 
L 1159 0 
L 581 0 
L 581 3500 
L 1159 3500 
L 1159 2956 
Q 1366 3272 1645 3428 
Q 1925 3584 2291 3584 
Q 2894 3584 3203 3211 
Q 3513 2838 3513 2113 
z
" transform="scale(0.015625)"/>
      </defs>
      <use xlink:href="#DejaVuSans-61"/>
      <use xlink:href="#DejaVuSans-78" x="61.279297"/>
      <use xlink:href="#DejaVuSans-69" x="120.458984"/>
      <use xlink:href="#DejaVuSans-61" x="148.242188"/>
      <use xlink:href="#DejaVuSans-6c" x="209.521484"/>
      <use xlink:href="#DejaVuSans-52" x="237.304688"/>
      <use xlink:href="#DejaVuSans-6f" x="302.287109"/>
      <use xlink:href="#DejaVuSans-74" x="363.46875"/>
      <use xlink:href="#DejaVuSans-61" x="402.677734"/>
      <use xlink:href="#DejaVuSans-74" x="463.957031"/>
      <use xlink:href="#DejaVuSans-69" x="503.166016"/>
      <use xlink:href="#DejaVuSans-6f" x="530.949219"/>
      <use xlink:href="#DejaVuSans-6e" x="592.130859"/>
     </g>
    </g>
   </g>
   <g id="matplotlib.axis_2">
    <g id="ytick_1">
     <g id="line2d_7">
      <defs>
       <path id="mf8866a29ff" d="M 0 0 
L -3.5 0 
" style="stroke: #000000; stroke-width: 0.8"/>
      </defs>
      <g>
       <use xlink:href="#mf8866a29ff" x="34.240625" y="288.21825" style="stroke: #000000; stroke-width: 0.8"/>
      </g>
     </g>
     <g id="text_8">
      <!-- 0 -->
      <g transform="translate(20.878125 292.017469)scale(0.1 -0.1)">
       <use xlink:href="#DejaVuSans-30"/>
      </g>
     </g>
    </g>
    <g id="ytick_2">
     <g id="line2d_8">
      <g>
       <use xlink:href="#mf8866a29ff" x="34.240625" y="243.86625" style="stroke: #000000; stroke-width: 0.8"/>
      </g>
     </g>
     <g id="text_9">
      <!-- 1 -->
      <g transform="translate(20.878125 247.665469)scale(0.1 -0.1)">
       <use xlink:href="#DejaVuSans-31"/>
      </g>
     </g>
    </g>
    <g id="ytick_3">
     <g id="line2d_9">
      <g>
       <use xlink:href="#mf8866a29ff" x="34.240625" y="199.51425" style="stroke: #000000; stroke-width: 0.8"/>
      </g>
     </g>
     <g id="text_10">
      <!-- 2 -->
      <g transform="translate(20.878125 203.313469)scale(0.1 -0.1)">
       <use xlink:href="#DejaVuSans-32"/>
      </g>
     </g>
    </g>
    <g id="ytick_4">
     <g id="line2d_10">
      <g>
       <use xlink:href="#mf8866a29ff" x="34.240625" y="155.16225" style="stroke: #000000; stroke-width: 0.8"/>
      </g>
     </g>
     <g id="text_11">
      <!-- 3 -->
      <g transform="translate(20.878125 158.961469)scale(0.1 -0.1)">
       <defs>
        <path id="DejaVuSans-33" d="M 2597 2516 
Q 3050 2419 3304 2112 
Q 3559 1806 3559 1356 
Q 3559 666 3084 287 
Q 2609 -91 1734 -91 
Q 1441 -91 1130 -33 
Q 819 25 488 141 
L 488 750 
Q 750 597 1062 519 
Q 1375 441 1716 441 
Q 2309 441 2620 675 
Q 2931 909 2931 1356 
Q 2931 1769 2642 2001 
Q 2353 2234 1838 2234 
L 1294 2234 
L 1294 2753 
L 1863 2753 
Q 2328 2753 2575 2939 
Q 2822 3125 2822 3475 
Q 2822 3834 2567 4026 
Q 2313 4219 1838 4219 
Q 1578 4219 1281 4162 
Q 984 4106 628 3988 
L 628 4550 
Q 988 4650 1302 4700 
Q 1616 4750 1894 4750 
Q 2613 4750 3031 4423 
Q 3450 4097 3450 3541 
Q 3450 3153 3228 2886 
Q 3006 2619 2597 2516 
z
" transform="scale(0.015625)"/>
       </defs>
       <use xlink:href="#DejaVuSans-33"/>
      </g>
     </g>
    </g>
    <g id="ytick_5">
     <g id="line2d_11">
      <g>
       <use xlink:href="#mf8866a29ff" x="34.240625" y="110.81025" style="stroke: #000000; stroke-width: 0.8"/>
      </g>
     </g>
     <g id="text_12">
      <!-- 4 -->
      <g transform="translate(20.878125 114.609469)scale(0.1 -0.1)">
       <use xlink:href="#DejaVuSans-34"/>
      </g>
     </g>
    </g>
    <g id="ytick_6">
     <g id="line2d_12">
      <g>
       <use xlink:href="#mf8866a29ff" x="34.240625" y="66.45825" style="stroke: #000000; stroke-width: 0.8"/>
      </g>
     </g>
     <g id="text_13">
      <!-- 5 -->
      <g transform="translate(20.878125 70.257469)scale(0.1 -0.1)">
       <defs>
        <path id="DejaVuSans-35" d="M 691 4666 
L 3169 4666 
L 3169 4134 
L 1269 4134 
L 1269 2991 
Q 1406 3038 1543 3061 
Q 1681 3084 1819 3084 
Q 2600 3084 3056 2656 
Q 3513 2228 3513 1497 
Q 3513 744 3044 326 
Q 2575 -91 1722 -91 
Q 1428 -91 1123 -41 
Q 819 9 494 109 
L 494 744 
Q 775 591 1075 516 
Q 1375 441 1709 441 
Q 2250 441 2565 725 
Q 2881 1009 2881 1497 
Q 2881 1984 2565 2268 
Q 2250 2553 1709 2553 
Q 1456 2553 1204 2497 
Q 953 2441 691 2322 
L 691 4666 
z
" transform="scale(0.015625)"/>
       </defs>
       <use xlink:href="#DejaVuSans-35"/>
      </g>
     </g>
    </g>
    <g id="ytick_7">
     <g id="line2d_13">
      <g>
       <use xlink:href="#mf8866a29ff" x="34.240625" y="22.10625" style="stroke: #000000; stroke-width: 0.8"/>
      </g>
     </g>
     <g id="text_14">
      <!-- 6 -->
      <g transform="translate(20.878125 25.905469)scale(0.1 -0.1)">
       <use xlink:href="#DejaVuSans-36"/>
      </g>
     </g>
    </g>
    <g id="text_15">
     <!-- zShift -->
     <g transform="translate(14.798438 169.151312)rotate(-90)scale(0.1 -0.1)">
      <defs>
       <path id="DejaVuSans-7a" d="M 353 3500 
L 3084 3500 
L 3084 2975 
L 922 459 
L 3084 459 
L 3084 0 
L 275 0 
L 275 525 
L 2438 3041 
L 353 3041 
L 353 3500 
z
" transform="scale(0.015625)"/>
       <path id="DejaVuSans-53" d="M 3425 4513 
L 3425 3897 
Q 3066 4069 2747 4153 
Q 2428 4238 2131 4238 
Q 1616 4238 1336 4038 
Q 1056 3838 1056 3469 
Q 1056 3159 1242 3001 
Q 1428 2844 1947 2747 
L 2328 2669 
Q 3034 2534 3370 2195 
Q 3706 1856 3706 1288 
Q 3706 609 3251 259 
Q 2797 -91 1919 -91 
Q 1588 -91 1214 -16 
Q 841 59 441 206 
L 441 856 
Q 825 641 1194 531 
Q 1563 422 1919 422 
Q 2459 422 2753 634 
Q 3047 847 3047 1241 
Q 3047 1584 2836 1778 
Q 2625 1972 2144 2069 
L 1759 2144 
Q 1053 2284 737 2584 
Q 422 2884 422 3419 
Q 422 4038 858 4394 
Q 1294 4750 2059 4750 
Q 2388 4750 2728 4690 
Q 3069 4631 3425 4513 
z
" transform="scale(0.015625)"/>
       <path id="DejaVuSans-68" d="M 3513 2113 
L 3513 0 
L 2938 0 
L 2938 2094 
Q 2938 2591 2744 2837 
Q 2550 3084 2163 3084 
Q 1697 3084 1428 2787 
Q 1159 2491 1159 1978 
L 1159 0 
L 581 0 
L 581 4863 
L 1159 4863 
L 1159 2956 
Q 1366 3272 1645 3428 
Q 1925 3584 2291 3584 
Q 2894 3584 3203 3211 
Q 3513 2838 3513 2113 
z
" transform="scale(0.015625)"/>
       <path id="DejaVuSans-66" d="M 2375 4863 
L 2375 4384 
L 1825 4384 
Q 1516 4384 1395 4259 
Q 1275 4134 1275 3809 
L 1275 3500 
L 2222 3500 
L 2222 3053 
L 1275 3053 
L 1275 0 
L 697 0 
L 697 3053 
L 147 3053 
L 147 3500 
L 697 3500 
L 697 3744 
Q 697 4328 969 4595 
Q 1241 4863 1831 4863 
L 2375 4863 
z
" transform="scale(0.015625)"/>
      </defs>
      <use xlink:href="#DejaVuSans-7a"/>
      <use xlink:href="#DejaVuSans-53" x="52.490234"/>
      <use xlink:href="#DejaVuSans-68" x="115.966797"/>
      <use xlink:href="#DejaVuSans-69" x="179.345703"/>
      <use xlink:href="#DejaVuSans-66" x="207.128906"/>
      <use xlink:href="#DejaVuSans-74" x="240.583984"/>
     </g>
    </g>
   </g>
   <g id="PathCollection_1"/>
   <g id="PathCollection_2">
    <path d="M 199.352001 288.21825 
L 199.375657 285.55713 
L 199.566918 282.89601 
L 199.939205 280.23489 
L 200.518467 277.57377 
L 201.122801 275.577679 
L 201.322581 274.91265 
L 202.332011 272.25153 
L 202.944113 270.940208 
L 203.598529 269.59041 
L 204.729713 267.560179 
L 205.094414 266.92929 
L 206.515313 264.591261 
L 206.984876 263.82465 
L 208.300913 261.60629 
L 208.541564 261.16353 
L 209.844089 258.50241 
L 210.122225 257.849049 
L 210.830064 255.84129 
L 211.593923 253.18017 
L 211.907825 251.785573 
L 212.135732 250.51905 
L 212.493442 247.85793 
L 212.752527 245.19681 
L 212.93493 242.53569 
L 213.059814 239.87457 
L 213.142978 237.21345 
L 213.196828 234.55233 
L 213.230699 231.89121 
L 213.251367 229.23009 
L 213.263594 226.56897 
L 213.270626 223.90785 
L 213.275057 220.80321 
L 213.27708 218.14209 
L 213.278213 215.48097 
L 213.278796 212.81985 
L 213.27896 210.15873 
L 213.278714 207.49761 
L 213.277979 204.83649 
L 213.276551 202.17537 
L 213.273998 199.51425 
L 213.269498 196.85313 
L 213.26162 194.19201 
L 213.24805 191.53089 
L 213.225252 188.86977 
L 213.188046 186.20865 
L 213.129114 183.54753 
L 213.038475 180.88641 
L 212.903026 178.22529 
L 212.6662 175.12065 
L 212.372864 172.45953 
L 211.97245 169.79841 
L 211.907825 169.475356 
L 211.332411 167.13729 
L 210.511382 164.47617 
L 210.122225 163.445828 
L 209.397349 161.81505 
L 208.300913 159.642357 
L 208.027801 159.15393 
L 206.515313 156.626444 
L 206.432864 156.49281 
L 204.772909 153.83169 
L 204.729713 153.761371 
L 203.201479 151.17057 
L 202.944113 150.696902 
L 201.805611 148.50945 
L 201.122801 146.988967 
L 200.620353 145.84833 
L 199.625 143.18721 
L 199.337201 142.271455 
L 198.771171 140.52609 
L 198.072524 137.86497 
L 197.551601 135.320428 
L 197.525368 135.20385 
L 196.948248 132.09921 
L 196.575014 129.43809 
L 196.288461 126.77697 
L 196.070124 124.11585 
L 195.905458 121.45473 
L 195.78286 118.79361 
L 195.766001 118.301197 
L 195.675084 116.13249 
L 195.59459 113.47137 
L 195.537891 110.81025 
L 195.49887 108.14913 
L 195.472675 105.48801 
L 195.455525 102.82689 
L 195.444555 100.16577 
L 195.437683 97.50465 
L 195.433482 94.84353 
L 195.431043 92.18241 
L 195.429847 89.52129 
L 195.429709 86.41665 
L 195.430642 83.75553 
L 195.432736 81.09441 
L 195.436433 78.43329 
L 195.442533 75.77217 
L 195.452325 73.11105 
L 195.467721 70.44993 
L 195.49139 67.78881 
L 195.526897 65.12769 
L 195.578858 62.46657 
L 195.65314 59.80545 
L 195.75711 57.14433 
L 195.766001 56.975138 
L 195.873792 54.48321 
L 196.029353 51.82209 
L 196.237195 49.16097 
L 196.512075 46.49985 
L 196.942974 43.39521 
L 197.435463 40.73409 
L 197.551601 40.215321 
L 197.99332 38.07297 
L 198.695585 35.41185 
L 199.337201 33.481005 
L 199.577198 32.75073 
L 200.623404 30.08961 
L 201.122801 29.022057 
L 201.908781 27.42849 
L 202.944113 25.622324 
L 203.480468 24.76737 
L 204.729713 22.942058 
L 205.366075 22.10625 
" clip-path="url(#p92a2134acb)" style="fill: none; stroke: #dbe9f6; stroke-width: 1.5"/>
    <path d="M 389.182936 22.10625 
L 389.557938 24.76737 
L 389.575025 24.917653 
L 389.904854 27.42849 
L 390.172032 30.08961 
L 390.373831 32.75073 
L 390.524507 35.41185 
L 390.635418 38.07297 
L 390.715676 40.73409 
L 390.772613 43.39521 
L 390.817343 46.49985 
L 390.84234 49.16097 
L 390.858781 51.82209 
L 390.86935 54.48321 
L 390.876018 57.14433 
L 390.880166 59.80545 
L 390.882704 62.46657 
L 390.884208 65.12769 
L 390.885034 67.78881 
L 390.885422 70.44993 
L 390.885554 73.11105 
L 390.885575 75.77217 
L 390.885594 78.43329 
L 390.885661 81.09441 
L 390.885773 83.75553 
L 390.885884 86.41665 
L 390.885945 89.52129 
L 390.88591 92.18241 
L 390.885813 94.84353 
L 390.885709 97.50465 
L 390.885653 100.16577 
L 390.885677 102.82689 
L 390.885767 105.48801 
L 390.885874 108.14913 
L 390.885941 110.81025 
L 390.885931 113.47137 
L 390.88585 116.13249 
L 390.885741 118.79361 
L 390.885664 121.45473 
L 390.88566 124.11585 
L 390.885732 126.77697 
L 390.88584 129.43809 
L 390.885927 132.09921 
L 390.885939 135.20385 
L 390.885867 137.86497 
L 390.885758 140.52609 
L 390.885672 143.18721 
L 390.885655 145.84833 
L 390.885716 148.50945 
L 390.885822 151.17057 
L 390.885916 153.83169 
L 390.885947 156.49281 
L 390.885897 159.15393 
L 390.885795 161.81505 
L 390.885695 164.47617 
L 390.885651 167.13729 
L 390.885688 169.79841 
L 390.885785 172.45953 
L 390.88589 175.12065 
L 390.885947 178.22529 
L 390.88591 180.88641 
L 390.885813 183.54753 
L 390.885709 186.20865 
L 390.885653 188.86977 
L 390.885677 191.53089 
L 390.885767 194.19201 
L 390.885874 196.85313 
L 390.885941 199.51425 
L 390.885931 202.17537 
L 390.88585 204.83649 
L 390.885741 207.49761 
L 390.885664 210.15873 
L 390.88566 212.81985 
L 390.885732 215.48097 
L 390.88584 218.14209 
L 390.885925 220.80321 
L 390.885936 223.90785 
L 390.88586 226.56897 
L 390.885743 229.23009 
L 390.885639 231.89121 
L 390.885586 234.55233 
L 390.885574 237.21345 
L 390.885536 239.87457 
L 390.885357 242.53569 
L 390.884879 245.19681 
L 390.883912 247.85793 
L 390.882192 250.51905 
L 390.87932 253.18017 
L 390.87465 255.84129 
L 390.867165 258.50241 
L 390.855345 261.16353 
L 390.837045 263.82465 
L 390.803588 266.92929 
L 390.760105 269.59041 
L 390.697684 272.25153 
L 390.609973 274.91265 
L 390.489006 277.57377 
L 390.324796 280.23489 
L 390.104774 282.89601 
L 389.812989 285.55713 
L 389.575025 287.243254 
L 389.454456 288.21825 
" clip-path="url(#p92a2134acb)" style="fill: none; stroke: #dbe9f6; stroke-width: 1.5"/>
   </g>
   <g id="PathCollection_3">
    <path d="M 205.346753 288.21825 
L 205.384923 285.55713 
L 205.695867 282.89601 
L 206.288164 280.23489 
L 206.515313 279.528161 
L 207.17924 277.57377 
L 208.300913 275.053547 
L 208.366988 274.91265 
L 209.803573 272.25153 
L 210.122225 271.70918 
L 211.341084 269.59041 
L 211.907825 268.602961 
L 212.781801 266.92929 
L 213.693425 265.017371 
L 214.181493 263.82465 
L 215.107413 261.16353 
L 215.479025 259.873083 
L 215.81195 258.50241 
L 216.326397 255.84129 
L 216.720819 253.18017 
L 217.01627 250.51905 
L 217.232395 247.85793 
L 217.300337 246.691343 
L 217.376384 245.19681 
L 217.470947 242.53569 
L 217.535173 239.87457 
L 217.577711 237.21345 
L 217.605137 234.55233 
L 217.622296 231.89121 
L 217.63268 229.23009 
L 217.638749 226.56897 
L 217.642197 223.90785 
L 217.644378 220.80321 
L 217.645423 218.14209 
L 217.646064 215.48097 
L 217.646425 212.81985 
L 217.646529 210.15873 
L 217.646354 207.49761 
L 217.645867 204.83649 
L 217.644989 202.17537 
L 217.643519 199.51425 
L 217.64102 196.85313 
L 217.63669 194.19201 
L 217.629212 191.53089 
L 217.616583 188.86977 
L 217.595896 186.20865 
L 217.56306 183.54753 
L 217.51244 180.88641 
L 217.436473 178.22529 
L 217.302455 175.12065 
L 217.300337 175.08693 
L 217.112209 172.45953 
L 216.84794 169.79841 
L 216.489582 167.13729 
L 216.014026 164.47617 
L 215.479025 162.167633 
L 215.383489 161.81505 
L 214.491143 159.15393 
L 213.693425 157.196176 
L 213.364674 156.49281 
L 211.939845 153.83169 
L 211.907825 153.778007 
L 210.253998 151.17057 
L 210.122225 150.972198 
L 208.497903 148.50945 
L 208.300913 148.205802 
L 206.85988 145.84833 
L 206.515313 145.239704 
L 205.43988 143.18721 
L 204.729713 141.631275 
L 204.256321 140.52609 
L 203.29022 137.86497 
L 202.944113 136.714663 
L 202.498691 135.20385 
L 201.77019 132.09921 
L 201.294305 129.43809 
L 201.122801 128.226632 
L 200.907527 126.77697 
L 200.599463 124.11585 
L 200.366921 121.45473 
L 200.193761 118.79361 
L 200.066895 116.13249 
L 199.975683 113.47137 
L 199.911498 110.81025 
L 199.867392 108.14913 
L 199.837839 105.48801 
L 199.818527 102.82689 
L 199.806197 100.16577 
L 199.798487 97.50465 
L 199.793786 94.84353 
L 199.791079 92.18241 
L 199.789792 89.52129 
L 199.789752 86.41665 
L 199.790964 83.75553 
L 199.793575 81.09441 
L 199.798136 78.43329 
L 199.805634 75.77217 
L 199.817646 73.11105 
L 199.836493 70.44993 
L 199.865403 67.78881 
L 199.908671 65.12769 
L 199.971842 62.46657 
L 200.061942 59.80545 
L 200.187784 57.14433 
L 200.360352 54.48321 
L 200.593332 51.82209 
L 200.903822 49.16097 
L 201.122801 47.70557 
L 201.29746 46.49985 
L 201.883233 43.39521 
L 202.548663 40.73409 
L 202.944113 39.45259 
L 203.387439 38.07297 
L 204.441034 35.41185 
L 204.729713 34.789744 
L 205.770052 32.75073 
L 206.515313 31.483573 
L 207.438175 30.08961 
L 208.300913 28.891399 
L 209.478538 27.42849 
L 210.122225 26.655112 
L 211.80692 24.76737 
L 211.907825 24.653148 
L 213.693425 22.629248 
L 214.14096 22.10625 
" clip-path="url(#p92a2134acb)" style="fill: none; stroke: #bad6eb; stroke-width: 1.5"/>
    <path d="M 384.25735 22.10625 
L 384.822244 24.76737 
L 385.25561 27.42849 
L 385.585977 30.08961 
L 385.83554 32.75073 
L 385.968113 34.630956 
L 386.027872 35.41185 
L 386.180251 38.07297 
L 386.290345 40.73409 
L 386.368305 43.39521 
L 386.429415 46.49985 
L 386.463485 49.16097 
L 386.485845 51.82209 
L 386.500192 54.48321 
L 386.509232 57.14433 
L 386.514848 59.80545 
L 386.518279 62.46657 
L 386.520302 65.12769 
L 386.521402 67.78881 
L 386.521908 70.44993 
L 386.522072 73.11105 
L 386.522098 75.77217 
L 386.522128 78.43329 
L 386.522231 81.09441 
L 386.522392 83.75553 
L 386.522545 86.41665 
L 386.52262 89.52129 
L 386.52256 92.18241 
L 386.522419 94.84353 
L 386.522275 97.50465 
L 386.522205 100.16577 
L 386.522249 102.82689 
L 386.522382 105.48801 
L 386.522532 108.14913 
L 386.522618 110.81025 
L 386.522593 113.47137 
L 386.522471 116.13249 
L 386.522318 118.79361 
L 386.522217 121.45473 
L 386.522222 124.11585 
L 386.522331 126.77697 
L 386.522485 129.43809 
L 386.5226 132.09921 
L 386.522605 135.20385 
L 386.522496 137.86497 
L 386.522342 140.52609 
L 386.522227 143.18721 
L 386.522213 145.84833 
L 386.522308 148.50945 
L 386.52246 151.17057 
L 386.522587 153.83169 
L 386.52262 156.49281 
L 386.522541 159.15393 
L 386.522393 161.81505 
L 386.522256 164.47617 
L 386.522205 167.13729 
L 386.522266 169.79841 
L 386.522408 172.45953 
L 386.522553 175.12065 
L 386.522623 178.22529 
L 386.522561 180.88641 
L 386.522419 183.54753 
L 386.522275 186.20865 
L 386.522205 188.86977 
L 386.522249 191.53089 
L 386.522382 194.19201 
L 386.522532 196.85313 
L 386.522618 199.51425 
L 386.522593 202.17537 
L 386.522471 204.83649 
L 386.522318 207.49761 
L 386.522217 210.15873 
L 386.522222 212.81985 
L 386.522331 215.48097 
L 386.522485 218.14209 
L 386.522599 220.80321 
L 386.522601 223.90785 
L 386.522486 226.56897 
L 386.522319 229.23009 
L 386.522177 231.89121 
L 386.522109 234.55233 
L 386.522093 237.21345 
L 386.52203 239.87457 
L 386.521748 242.53569 
L 386.521022 245.19681 
L 386.519575 247.85793 
L 386.517023 250.51905 
L 386.512776 253.18017 
L 386.505881 255.84129 
L 386.494841 258.50241 
L 386.477437 261.16353 
L 386.450545 263.82465 
L 386.401496 266.92929 
L 386.337896 269.59041 
L 386.246777 272.25153 
L 386.118961 274.91265 
L 385.968113 277.20059 
L 385.945423 277.57377 
L 385.730211 280.23489 
L 385.441859 282.89601 
L 385.059318 285.55713 
L 384.555465 288.21825 
" clip-path="url(#p92a2134acb)" style="fill: none; stroke: #bad6eb; stroke-width: 1.5"/>
   </g>
   <g id="PathCollection_4">
    <path d="M 211.481901 288.21825 
L 211.428823 285.55713 
L 211.808206 282.89601 
L 211.907825 282.548243 
L 212.595029 280.23489 
L 213.668322 277.57377 
L 213.693425 277.521931 
L 214.885493 274.91265 
L 215.479025 273.667629 
L 216.076056 272.25153 
L 217.142414 269.59041 
L 217.300337 269.164121 
L 218.013113 266.92929 
L 218.840589 263.82465 
L 219.085937 262.707433 
L 219.387227 261.16353 
L 219.808011 258.50241 
L 220.135499 255.84129 
L 220.385036 253.18017 
L 220.571045 250.51905 
L 220.7066 247.85793 
L 220.803141 245.19681 
L 220.870323 242.53569 
L 220.871537 242.465226 
L 220.914463 239.87457 
L 220.943701 237.21345 
L 220.962552 234.55233 
L 220.974306 231.89121 
L 220.981348 229.23009 
L 220.985395 226.56897 
L 220.987657 223.90785 
L 220.989106 220.80321 
L 220.989861 218.14209 
L 220.990384 215.48097 
L 220.990712 212.81985 
L 220.990808 210.15873 
L 220.99064 207.49761 
L 220.990196 204.83649 
L 220.989461 202.17537 
L 220.988329 199.51425 
L 220.9865 196.85313 
L 220.98337 194.19201 
L 220.977933 191.53089 
L 220.968673 188.86977 
L 220.953434 186.20865 
L 220.92923 183.54753 
L 220.891972 180.88641 
L 220.871537 179.909354 
L 220.834941 178.22529 
L 220.733268 175.12065 
L 220.605553 172.45953 
L 220.42746 169.79841 
L 220.184 167.13729 
L 219.857269 164.47617 
L 219.426037 161.81505 
L 219.085937 160.177963 
L 218.850513 159.15393 
L 218.087869 156.49281 
L 217.300337 154.285904 
L 217.116411 153.83169 
L 215.852291 151.17057 
L 215.479025 150.485353 
L 214.291044 148.50945 
L 213.693425 147.592767 
L 212.51124 145.84833 
L 211.907825 144.975336 
L 210.713869 143.18721 
L 210.122225 142.26351 
L 209.103908 140.52609 
L 208.300913 139.005028 
L 207.759181 137.86497 
L 206.67704 135.20385 
L 206.515313 134.729838 
L 205.700188 132.09921 
L 205.054706 129.43809 
L 204.729713 127.747875 
L 204.550343 126.77697 
L 204.162831 124.11585 
L 203.869113 121.45473 
L 203.649792 118.79361 
L 203.488839 116.13249 
L 203.373036 113.47137 
L 203.291552 110.81025 
L 203.235596 108.14913 
L 203.198144 105.48801 
L 203.173701 102.82689 
L 203.158114 100.16577 
L 203.148379 97.50465 
L 203.142456 94.84353 
L 203.139066 92.18241 
L 203.137497 89.52129 
L 203.137566 86.41665 
L 203.139267 83.75553 
L 203.142835 81.09441 
L 203.149023 78.43329 
L 203.159168 75.77217 
L 203.17539 73.11105 
L 203.200803 70.44993 
L 203.239712 67.78881 
L 203.297823 65.12769 
L 203.382477 62.46657 
L 203.502939 59.80545 
L 203.670758 57.14433 
L 203.900239 54.48321 
L 204.209036 51.82209 
L 204.618948 49.16097 
L 204.729713 48.592246 
L 205.159578 46.49985 
L 205.995508 43.39521 
L 206.515313 41.874519 
L 206.95025 40.73409 
L 208.180926 38.07297 
L 208.300913 37.848029 
L 209.791453 35.41185 
L 210.122225 34.928288 
L 211.811118 32.75073 
L 211.907825 32.632759 
L 213.693425 30.597977 
L 214.150169 30.08961 
L 215.479025 28.599768 
L 216.480186 27.42849 
L 217.300337 26.440773 
L 218.595925 24.76737 
L 219.085937 24.115982 
L 220.521613 22.10625 
" clip-path="url(#p92a2134acb)" style="fill: none; stroke: #89bedc; stroke-width: 1.5"/>
    <path d="M 380.127401 22.10625 
L 380.575601 23.549507 
L 380.917526 24.76737 
L 381.511157 27.42849 
L 381.963844 30.08961 
L 382.305825 32.75073 
L 382.396913 33.685985 
L 382.56289 35.41185 
L 382.752533 38.07297 
L 382.889431 40.73409 
L 382.986264 43.39521 
L 383.062058 46.49985 
L 383.104246 49.16097 
L 383.131894 51.82209 
L 383.149612 54.48321 
L 383.160765 57.14433 
L 383.167688 59.80545 
L 383.17191 62.46657 
L 383.174391 65.12769 
L 383.17573 67.78881 
L 383.176336 70.44993 
L 383.176527 73.11105 
L 383.176555 75.77217 
L 383.176598 78.43329 
L 383.176735 81.09441 
L 383.176942 83.75553 
L 383.177134 86.41665 
L 383.177218 89.52129 
L 383.177132 92.18241 
L 383.176949 94.84353 
L 383.176769 97.50465 
L 383.17669 100.16577 
L 383.176755 102.82689 
L 383.176929 105.48801 
L 383.177117 108.14913 
L 383.177218 110.81025 
L 383.177177 113.47137 
L 383.177016 116.13249 
L 383.176823 118.79361 
L 383.176701 121.45473 
L 383.176718 124.11585 
L 383.176864 126.77697 
L 383.177059 129.43809 
L 383.177199 132.09921 
L 383.177194 135.20385 
L 383.177048 137.86497 
L 383.176852 140.52609 
L 383.176713 143.18721 
L 383.176705 145.84833 
L 383.176833 148.50945 
L 383.177028 151.17057 
L 383.177184 153.83169 
L 383.177216 156.49281 
L 383.177107 159.15393 
L 383.176917 161.81505 
L 383.176747 164.47617 
L 383.176691 167.13729 
L 383.176778 169.79841 
L 383.176962 172.45953 
L 383.177142 175.12065 
L 383.177221 178.22529 
L 383.177134 180.88641 
L 383.17695 183.54753 
L 383.176769 186.20865 
L 383.17669 188.86977 
L 383.176755 191.53089 
L 383.176929 194.19201 
L 383.177117 196.85313 
L 383.177218 199.51425 
L 383.177177 202.17537 
L 383.177016 204.83649 
L 383.176822 207.49761 
L 383.176701 210.15873 
L 383.176718 212.81985 
L 383.176863 215.48097 
L 383.177059 218.14209 
L 383.177197 220.80321 
L 383.177188 223.90785 
L 383.177034 226.56897 
L 383.176822 229.23009 
L 383.176646 231.89121 
L 383.176565 234.55233 
L 383.176547 237.21345 
L 383.176455 239.87457 
L 383.176067 242.53569 
L 383.175094 245.19681 
L 383.173175 247.85793 
L 383.16981 250.51905 
L 383.164222 253.18017 
L 383.155159 255.84129 
L 383.140663 258.50241 
L 383.117836 261.16353 
L 383.082611 263.82465 
L 383.018473 266.92929 
L 382.935435 269.59041 
L 382.816614 272.25153 
L 382.650102 274.91265 
L 382.420949 277.57377 
L 382.396913 277.785697 
L 382.112611 280.23489 
L 381.699759 282.89601 
L 381.151911 285.55713 
L 380.575601 287.707929 
L 380.422955 288.21825 
" clip-path="url(#p92a2134acb)" style="fill: none; stroke: #89bedc; stroke-width: 1.5"/>
   </g>
   <g id="PathCollection_5">
    <path d="M 220.716123 288.21825 
L 219.637221 285.55713 
L 219.36305 282.89601 
L 219.567038 280.23489 
L 220.028052 277.57377 
L 220.601624 274.91265 
L 220.871537 273.770532 
L 221.189423 272.25153 
L 221.738372 269.59041 
L 222.22858 266.92929 
L 222.657137 264.204092 
L 222.713655 263.82465 
L 223.057752 261.16353 
L 223.335461 258.50241 
L 223.554087 255.84129 
L 223.722043 253.18017 
L 223.847961 250.51905 
L 223.940103 247.85793 
L 224.00595 245.19681 
L 224.051938 242.53569 
L 224.08333 239.87457 
L 224.104233 237.21345 
L 224.117735 234.55233 
L 224.126114 231.89121 
L 224.131052 229.23009 
L 224.133804 226.56897 
L 224.135298 223.90785 
L 224.136287 220.80321 
L 224.136887 218.14209 
L 224.137376 215.48097 
L 224.137716 212.81985 
L 224.137819 210.15873 
L 224.137637 207.49761 
L 224.137188 204.83649 
L 224.136515 202.17537 
L 224.135594 199.51425 
L 224.134223 196.85313 
L 224.131922 194.19201 
L 224.127868 191.53089 
L 224.12085 188.86977 
L 224.109199 186.20865 
L 224.090663 183.54753 
L 224.062207 180.88641 
L 224.01974 178.22529 
L 223.945157 175.12065 
L 223.851548 172.45953 
L 223.72092 169.79841 
L 223.542007 167.13729 
L 223.301215 164.47617 
L 222.982197 161.81505 
L 222.657137 159.722053 
L 222.567183 159.15393 
L 222.040763 156.49281 
L 221.368296 153.83169 
L 220.871537 152.235954 
L 220.510545 151.17057 
L 219.428045 148.50945 
L 219.085937 147.785324 
L 218.063629 145.84833 
L 217.300337 144.560782 
L 216.409465 143.18721 
L 215.479025 141.83059 
L 214.56199 140.52609 
L 213.693425 139.281644 
L 212.760843 137.86497 
L 211.907825 136.477299 
L 211.213461 135.20385 
L 210.122225 132.902808 
L 209.792791 132.09921 
L 208.887168 129.43809 
L 208.300913 127.303431 
L 208.173311 126.77697 
L 207.658171 124.11585 
L 207.26373 121.45473 
L 206.966996 118.79361 
L 206.748093 116.13249 
L 206.590065 113.47137 
L 206.515313 111.689102 
L 206.480937 110.81025 
L 206.409209 108.14913 
L 206.361261 105.48801 
L 206.330012 102.82689 
L 206.31011 100.16577 
L 206.297693 97.50465 
L 206.290153 94.84353 
L 206.285864 92.18241 
L 206.283934 89.52129 
L 206.284175 86.41665 
L 206.28657 83.75553 
L 206.291475 81.09441 
L 206.299928 78.43329 
L 206.313747 75.77217 
L 206.335805 73.11105 
L 206.3703 70.44993 
L 206.423017 67.78881 
L 206.501586 65.12769 
L 206.515313 64.805345 
L 206.622499 62.46657 
L 206.795222 59.80545 
L 207.034738 57.14433 
L 207.360374 54.48321 
L 207.795377 51.82209 
L 208.300913 49.461655 
L 208.374993 49.16097 
L 209.195034 46.49985 
L 210.122225 44.135715 
L 210.469515 43.39521 
L 211.907825 40.825291 
L 211.968039 40.73409 
L 213.693425 38.38642 
L 213.950547 38.07297 
L 215.479025 36.30915 
L 216.27196 35.41185 
L 217.300337 34.261377 
L 218.573468 32.75073 
L 219.085937 32.133353 
L 220.64318 30.08961 
L 220.871537 29.783369 
L 222.522304 27.42849 
L 222.657137 27.23499 
L 224.368498 24.76737 
L 224.478449 24.612624 
L 226.264049 22.271114 
L 226.407224 22.10625 
" clip-path="url(#p92a2134acb)" style="fill: none; stroke: #539ecd; stroke-width: 1.5"/>
    <path d="M 375.375777 22.10625 
L 376.723482 24.76737 
L 377.004401 25.462905 
L 377.653828 27.42849 
L 378.333647 30.08961 
L 378.790001 32.445154 
L 378.842213 32.75073 
L 379.190627 35.41185 
L 379.44654 38.07297 
L 379.631175 40.73409 
L 379.761668 43.39521 
L 379.863694 46.49985 
L 379.92041 49.16097 
L 379.957534 51.82209 
L 379.981301 54.48321 
L 379.996249 57.14433 
L 380.005521 59.80545 
L 380.011169 62.46657 
L 380.014476 65.12769 
L 380.016248 67.78881 
L 380.017039 70.44993 
L 380.01728 73.11105 
L 380.017315 75.77217 
L 380.017381 78.43329 
L 380.017577 81.09441 
L 380.017865 83.75553 
L 380.018123 86.41665 
L 380.018225 89.52129 
L 380.018097 92.18241 
L 380.017841 94.84353 
L 380.017598 97.50465 
L 380.0175 100.16577 
L 380.0176 102.82689 
L 380.017845 105.48801 
L 380.018101 108.14913 
L 380.01823 110.81025 
L 380.018162 113.47137 
L 380.017933 116.13249 
L 380.017669 118.79361 
L 380.017511 121.45473 
L 380.017546 124.11585 
L 380.017755 126.77697 
L 380.018024 129.43809 
L 380.018207 132.09921 
L 380.018186 135.20385 
L 380.017978 137.86497 
L 380.017709 140.52609 
L 380.017525 143.18721 
L 380.017526 145.84833 
L 380.017712 148.50945 
L 380.017981 151.17057 
L 380.018188 153.83169 
L 380.01822 156.49281 
L 380.018061 159.15393 
L 380.017796 161.81505 
L 380.017569 164.47617 
L 380.017503 167.13729 
L 380.017634 169.79841 
L 380.017891 172.45953 
L 380.018134 175.12065 
L 380.018229 178.22529 
L 380.018098 180.88641 
L 380.017842 183.54753 
L 380.017598 186.20865 
L 380.0175 188.86977 
L 380.0176 191.53089 
L 380.017845 194.19201 
L 380.018101 196.85313 
L 380.01823 199.51425 
L 380.018162 202.17537 
L 380.017933 204.83649 
L 380.017669 207.49761 
L 380.017511 210.15873 
L 380.017546 212.81985 
L 380.017754 215.48097 
L 380.018022 218.14209 
L 380.018204 220.80321 
L 380.018177 223.90785 
L 380.017958 226.56897 
L 380.017665 229.23009 
L 380.01743 231.89121 
L 380.017325 234.55233 
L 380.0173 237.21345 
L 380.017159 239.87457 
L 380.016589 242.53569 
L 380.015186 245.19681 
L 380.012446 247.85793 
L 380.007664 250.51905 
L 379.999739 253.18017 
L 379.986896 255.84129 
L 379.966369 258.50241 
L 379.934077 261.16353 
L 379.884307 263.82465 
L 379.793807 266.92929 
L 379.676778 269.59041 
L 379.50947 272.25153 
L 379.275157 274.91265 
L 378.952804 277.57377 
L 378.790001 278.58546 
L 378.487218 280.23489 
L 377.840416 282.89601 
L 377.004401 285.489683 
L 376.977524 285.55713 
L 375.647115 288.21825 
" clip-path="url(#p92a2134acb)" style="fill: none; stroke: #539ecd; stroke-width: 1.5"/>
   </g>
   <g id="PathCollection_6">
    <path d="M 265.709705 288.21825 
L 260.369009 287.899322 
L 256.762097 287.813411 
L 247.798385 288.198637 
L 244.191473 287.951566 
L 238.834673 287.485462 
L 235.227761 287.197648 
L 233.442161 286.899117 
L 231.656561 286.361244 
L 229.835249 285.409671 
L 228.049649 283.573483 
L 227.5907 282.89601 
L 226.534641 280.23489 
L 226.104826 277.57377 
L 226.019468 274.91265 
L 226.277494 269.59041 
L 227.142097 258.50241 
L 227.480747 250.51905 
L 227.644597 239.87457 
L 227.683294 215.48097 
L 227.591363 178.22529 
L 227.360313 169.79841 
L 227.035658 164.47617 
L 226.464842 159.15393 
L 225.601589 153.83169 
L 224.478449 149.295368 
L 224.257297 148.50945 
L 223.368403 145.84833 
L 222.265064 143.18721 
L 220.871537 140.433038 
L 219.085937 137.519363 
L 215.372228 132.09921 
L 213.693425 129.051387 
L 212.76914 126.77697 
L 211.879297 124.11585 
L 211.296867 121.45473 
L 210.515994 116.13249 
L 210.103173 110.81025 
L 209.89398 102.82689 
L 209.830935 86.41665 
L 209.959313 70.44993 
L 210.159334 65.12769 
L 210.641712 59.80545 
L 211.028032 57.14433 
L 211.907825 53.049624 
L 212.295616 51.82209 
L 213.693425 48.433292 
L 215.479025 45.537516 
L 217.300337 43.182589 
L 220.871537 38.938592 
L 223.431684 35.41185 
L 227.100255 30.08961 
L 228.049649 28.852499 
L 229.835249 26.90025 
L 231.656561 25.450559 
L 233.442161 24.460664 
L 235.227761 23.846315 
L 237.013361 23.435441 
L 242.405873 22.633113 
L 246.012785 22.232576 
L 249.583985 22.134757 
L 258.547697 22.49956 
L 265.5665 22.10625 
L 265.5665 22.10625 
" clip-path="url(#p92a2134acb)" style="fill: none; stroke: #2b7bba; stroke-width: 1.5"/>
    <path d="M 266.244092 22.10625 
L 267.547121 22.119862 
L 269.332721 22.210795 
L 271.118321 22.33908 
L 272.903921 22.456014 
L 274.725233 22.516909 
L 276.510833 22.495615 
L 278.296433 22.402262 
L 280.082033 22.273145 
L 281.903345 22.15602 
L 283.478147 22.10625 
" clip-path="url(#p92a2134acb)" style="fill: none; stroke: #2b7bba; stroke-width: 1.5"/>
    <path d="M 283.618804 288.21825 
L 281.903345 288.153 
L 280.082033 288.030321 
L 278.296433 287.903878 
L 276.510833 287.820163 
L 274.725233 287.811793 
L 272.903921 287.884209 
L 271.118321 288.006458 
L 269.332721 288.132033 
L 267.547121 288.213206 
L 265.933487 288.21825 
" clip-path="url(#p92a2134acb)" style="fill: none; stroke: #2b7bba; stroke-width: 1.5"/>
    <path d="M 284.212669 22.10625 
L 285.474545 22.122274 
L 287.260145 22.215506 
L 289.081457 22.346922 
L 290.867057 22.461605 
L 292.652657 22.517651 
L 294.438257 22.493101 
L 296.259569 22.395056 
L 298.045169 22.265336 
L 299.830769 22.152419 
L 301.372105 22.10625 
" clip-path="url(#p92a2134acb)" style="fill: none; stroke: #2b7bba; stroke-width: 1.5"/>
    <path d="M 301.510839 288.21825 
L 299.830769 288.156969 
L 298.045169 288.038231 
L 296.259569 287.910702 
L 294.438257 287.822198 
L 292.652657 287.810531 
L 290.867057 287.878075 
L 289.081457 287.998517 
L 287.260145 288.127582 
L 285.474545 288.211278 
L 284.182952 288.21825 
" clip-path="url(#p92a2134acb)" style="fill: none; stroke: #2b7bba; stroke-width: 1.5"/>
    <path d="M 302.106053 22.10625 
L 303.437681 22.126116 
L 305.223281 22.222684 
L 307.008881 22.352121 
L 308.794481 22.465211 
L 310.615793 22.518514 
L 312.401393 22.489109 
L 314.186993 22.390184 
L 315.972593 22.260164 
L 317.793905 22.147203 
L 319.286107 22.10625 
" clip-path="url(#p92a2134acb)" style="fill: none; stroke: #2b7bba; stroke-width: 1.5"/>
    <path d="M 319.421725 288.21825 
L 317.793905 288.162757 
L 315.972593 288.043486 
L 314.186993 287.915334 
L 312.401393 287.825481 
L 310.615793 287.808885 
L 308.794481 287.874095 
L 307.008881 287.993235 
L 305.223281 288.120772 
L 303.437681 288.208154 
L 302.11899 288.21825 
" clip-path="url(#p92a2134acb)" style="fill: none; stroke: #2b7bba; stroke-width: 1.5"/>
    <path d="M 320.048563 22.10625 
L 321.365105 22.12882 
L 323.150705 22.227539 
L 324.972017 22.359869 
L 326.757617 22.470434 
L 328.543217 22.518922 
L 330.328817 22.486304 
L 332.150129 22.38278 
L 333.935729 22.252468 
L 335.721329 22.143855 
L 337.181903 22.10625 
" clip-path="url(#p92a2134acb)" style="fill: none; stroke: #2b7bba; stroke-width: 1.5"/>
    <path d="M 337.315128 288.21825 
L 335.721329 288.166498 
L 333.935729 288.051333 
L 332.150129 287.9224 
L 330.328817 287.827822 
L 328.543217 287.807952 
L 326.757617 287.868295 
L 324.972017 287.985339 
L 323.150705 288.116149 
L 321.365105 288.205921 
L 320.121832 288.21825 
" clip-path="url(#p92a2134acb)" style="fill: none; stroke: #2b7bba; stroke-width: 1.5"/>
    <path d="M 337.939158 22.10625 
L 341.113841 22.234981 
L 346.506353 22.520229 
L 350.077553 22.382403 
L 353.684465 22.158938 
L 357.255665 22.210966 
L 360.862577 22.625728 
L 364.433777 23.262379 
L 366.219377 23.690187 
L 368.040689 24.301924 
L 369.826289 25.283416 
L 371.611889 26.905257 
L 372.008154 27.42849 
L 373.557208 30.08961 
L 374.471619 32.75073 
L 375.218801 35.749041 
L 375.861186 40.73409 
L 376.227083 46.49985 
L 376.411675 54.48321 
L 376.467883 73.11105 
L 376.383429 258.50241 
L 376.247866 263.82465 
L 375.905863 269.59041 
L 375.245038 274.91265 
L 375.218801 275.047551 
L 374.589785 277.57377 
L 373.397489 280.906624 
L 371.611889 283.638509 
L 369.826289 285.204418 
L 368.040689 286.120726 
L 366.219377 286.704337 
L 362.648177 287.452902 
L 359.041265 287.977959 
L 355.470065 288.190347 
L 351.863153 288.047938 
L 348.291953 287.829681 
L 344.685041 287.864197 
L 338.019011 288.21825 
L 338.019011 288.21825 
" clip-path="url(#p92a2134acb)" style="fill: none; stroke: #2b7bba; stroke-width: 1.5"/>
   </g>
   <g id="PathCollection_7">
    <path d="M 217.240028 116.13249 
L 216.72861 113.47137 
L 216.350621 110.81025 
L 216.082523 108.14913 
L 215.899542 105.48801 
L 215.778825 102.82689 
L 215.701356 100.16577 
L 215.652743 97.50465 
L 215.623126 94.84353 
L 215.606481 92.18241 
L 215.599657 89.52129 
L 215.602672 86.41665 
L 215.615271 83.75553 
L 215.639553 81.09441 
L 215.680381 78.43329 
L 215.74612 75.77217 
L 215.849645 73.11105 
L 216.008952 70.44993 
L 216.247109 67.78881 
L 216.591262 65.12769 
L 217.070459 62.46657 
L 217.300337 61.524802 
L 217.865809 59.80545 
L 218.955017 57.14433 
L 219.085937 56.885133 
L 220.471088 54.48321 
L 220.871537 53.872799 
L 222.198642 51.82209 
L 222.657137 51.167846 
L 223.946952 49.16097 
L 224.478449 48.364559 
L 225.634099 46.49985 
L 226.264049 45.517256 
L 227.575781 43.39521 
L 228.049649 42.65408 
L 229.373942 40.73409 
L 229.835249 40.094746 
L 231.56935 38.07297 
L 231.656561 37.979633 
L 233.442161 36.603499 
L 235.227761 35.620709 
L 235.788783 35.41185 
L 237.013361 35.035374 
L 238.834673 34.593895 
L 240.620273 34.149141 
L 242.405873 33.649637 
L 244.191473 33.138546 
L 245.822094 32.75073 
L 246.012785 32.715086 
L 247.798385 32.527151 
L 249.583985 32.522988 
L 251.369585 32.685168 
L 251.82587 32.75073 
L 253.190897 33.001593 
L 254.976497 33.316589 
L 256.762097 33.492569 
L 258.547697 33.458621 
L 260.369009 33.220533 
L 262.154609 32.879451 
L 262.880836 32.75073 
L 263.940209 32.603959 
L 265.725809 32.469727 
L 267.547121 32.501237 
L 269.332721 32.685298 
L 269.772112 32.75073 
L 271.118321 33.007108 
L 272.903921 33.323172 
L 274.725233 33.495064 
L 276.510833 33.448982 
L 278.296433 33.207801 
L 280.082033 32.865299 
L 280.738685 32.75073 
L 281.903345 32.591901 
L 283.688945 32.466658 
L 285.474545 32.505981 
L 287.260145 32.694986 
L 287.632583 32.75073 
L 289.081457 33.028092 
L 290.867057 33.338523 
L 292.652657 33.497474 
L 294.438257 33.442671 
L 296.259569 33.188879 
L 298.045169 32.84437 
L 298.590229 32.75073 
L 299.830769 32.584134 
L 301.616369 32.464963 
L 303.437681 32.513569 
L 305.223281 32.709763 
L 305.495501 32.75073 
L 307.008881 33.042019 
L 308.794481 33.348445 
L 310.615793 33.500426 
L 312.401393 33.432607 
L 314.186993 33.176069 
L 315.972593 32.830496 
L 316.445323 32.75073 
L 317.793905 32.572859 
L 319.579505 32.462932 
L 321.365105 32.518931 
L 323.150705 32.719767 
L 323.35582 32.75073 
L 324.972017 33.062791 
L 326.757617 33.362845 
L 328.543217 33.501949 
L 330.328817 33.425508 
L 332.150129 33.156582 
L 333.935729 32.809826 
L 334.292337 32.75073 
L 335.721329 32.565606 
L 337.506929 32.461939 
L 339.328241 32.527474 
L 341.113841 32.735119 
L 341.216823 32.75073 
L 342.899441 33.076971 
L 344.685041 33.373137 
L 346.506353 33.505998 
L 348.291953 33.419764 
L 350.077553 33.155333 
L 351.863153 32.821155 
L 352.340074 32.75073 
L 353.684465 32.595509 
L 355.470065 32.540505 
L 357.255665 32.68564 
L 357.595902 32.75073 
L 359.041265 33.104477 
L 360.862577 33.754555 
L 362.648177 34.532392 
L 364.379941 35.41185 
L 364.433777 35.447994 
L 366.219377 36.925249 
L 367.220635 38.07297 
L 368.040689 39.357611 
L 368.634974 40.73409 
L 369.450514 43.39521 
L 369.826289 45.223627 
L 370.004645 46.49985 
L 370.24614 49.16097 
L 370.403866 51.82209 
L 370.50465 54.48321 
L 370.56795 57.14433 
L 370.607152 59.80545 
L 370.630955 62.46657 
L 370.644788 65.12769 
L 370.652087 67.78881 
L 370.655246 70.44993 
L 370.656149 73.11105 
L 370.656287 75.77217 
L 370.656651 78.43329 
L 370.657599 81.09441 
L 370.6589 83.75553 
L 370.659991 86.41665 
L 370.660317 89.52129 
L 370.659646 92.18241 
L 370.658477 94.84353 
L 370.657447 97.50465 
L 370.657118 100.16577 
L 370.65767 102.82689 
L 370.658803 105.48801 
L 370.659903 108.14913 
L 370.660375 110.81025 
L 370.659962 113.47137 
L 370.658889 116.13249 
L 370.657736 118.79361 
L 370.65713 121.45473 
L 370.657398 124.11585 
L 370.658395 126.77697 
L 370.659581 129.43809 
L 370.660313 132.09921 
L 370.660088 135.20385 
L 370.659091 137.86497 
L 370.657905 140.52609 
L 370.657173 143.18721 
L 370.657293 145.84833 
L 370.658198 148.50945 
L 370.659399 151.17057 
L 370.660244 153.83169 
L 370.660276 156.49281 
L 370.659477 159.15393 
L 370.65828 161.81505 
L 370.657334 164.47617 
L 370.657152 167.13729 
L 370.657833 169.79841 
L 370.659007 172.45953 
L 370.660038 175.12065 
L 370.660334 178.22529 
L 370.659654 180.88641 
L 370.65848 183.54753 
L 370.657448 186.20865 
L 370.657119 188.86977 
L 370.65767 191.53089 
L 370.658803 194.19201 
L 370.659903 196.85313 
L 370.660375 199.51425 
L 370.659962 202.17537 
L 370.658888 204.83649 
L 370.657736 207.49761 
L 370.657129 210.15873 
L 370.657397 212.81985 
L 370.658392 215.48097 
L 370.659574 218.14209 
L 370.660296 220.80321 
L 370.660044 223.90785 
L 370.658991 226.56897 
L 370.657684 229.23009 
L 370.656699 231.89121 
L 370.656299 234.55233 
L 370.656171 237.21345 
L 370.655368 239.87457 
L 370.652427 242.53569 
L 370.645493 245.19681 
L 370.632217 247.85793 
L 370.60926 250.51905 
L 370.571356 253.18017 
L 370.510042 255.84129 
L 370.412203 258.50241 
L 370.258611 261.16353 
L 370.022476 263.82465 
L 369.826289 265.253521 
L 369.486977 266.92929 
L 368.678833 269.59041 
L 368.040689 271.071734 
L 367.28725 272.25153 
L 366.219377 273.469554 
L 364.466689 274.91265 
L 364.433777 274.933071 
L 362.648177 275.836997 
L 360.862577 276.611492 
L 359.041265 277.253652 
L 357.691695 277.57377 
L 357.255665 277.654496 
L 355.470065 277.786284 
L 353.684465 277.719416 
L 352.461184 277.57377 
L 351.863153 277.482783 
L 350.077553 277.149588 
L 348.291953 276.893805 
L 346.506353 276.820215 
L 344.685041 276.965473 
L 342.899441 277.268925 
L 341.324518 277.57377 
L 341.113841 277.605643 
L 339.328241 277.806274 
L 337.506929 277.86075 
L 335.721329 277.746974 
L 334.413786 277.57377 
L 333.935729 277.492824 
L 332.150129 277.148004 
L 330.328817 276.888499 
L 328.543217 276.82494 
L 326.757617 276.976126 
L 324.972017 277.283223 
L 323.462846 277.57377 
L 323.150705 277.620736 
L 321.365105 277.814232 
L 319.579505 277.859305 
L 317.793905 277.739397 
L 316.563724 277.57377 
L 315.972593 277.472027 
L 314.186993 277.128892 
L 312.401393 276.881874 
L 310.615793 276.826992 
L 308.794481 276.991129 
L 307.008881 277.304182 
L 305.602362 277.57377 
L 305.223281 277.630559 
L 303.437681 277.8192 
L 301.616369 277.856601 
L 299.830769 277.727652 
L 298.706383 277.57377 
L 298.045169 277.458085 
L 296.259569 277.116346 
L 294.438257 276.872533 
L 292.652657 276.830733 
L 290.867057 277.001443 
L 289.081457 277.318215 
L 287.739163 277.57377 
L 287.260145 277.645045 
L 285.474545 277.826184 
L 283.688945 277.854459 
L 281.903345 277.719581 
L 280.852515 277.57377 
L 280.082033 277.437082 
L 278.296433 277.097843 
L 276.510833 276.86671 
L 274.725233 276.833667 
L 272.903921 277.017365 
L 271.118321 277.339334 
L 269.878947 277.57377 
L 269.332721 277.654525 
L 267.547121 277.830518 
L 265.725809 277.850723 
L 263.940209 277.707079 
L 262.993112 277.57377 
L 262.154609 277.422872 
L 260.369009 277.08533 
L 258.547697 276.857621 
L 256.762097 276.836504 
L 254.976497 277.023413 
L 253.190897 277.343244 
L 251.920807 277.57377 
L 251.369585 277.651988 
L 249.583985 277.803916 
L 247.798385 277.784788 
L 246.012785 277.57912 
L 245.98577 277.57377 
L 244.191473 277.115894 
L 242.405873 276.552224 
L 240.620273 275.953525 
L 238.834673 275.323499 
L 237.871176 274.91265 
L 237.013361 274.395518 
L 235.227761 272.719352 
L 234.931158 272.25153 
L 233.912402 269.59041 
L 233.442161 267.197452 
L 233.409183 266.92929 
L 233.235859 263.82465 
L 233.197074 261.16353 
L 233.208045 258.50241 
L 233.24049 255.84129 
L 233.278509 253.18017 
L 233.31407 250.51905 
L 233.34397 247.85793 
L 233.367701 245.19681 
L 233.385958 242.53569 
L 233.399687 239.87457 
L 233.409645 237.21345 
L 233.416354 234.55233 
L 233.420282 231.89121 
L 233.422044 229.23009 
L 233.422456 226.56897 
L 233.422403 223.90785 
L 233.422663 220.80321 
L 233.423455 218.14209 
L 233.424551 215.48097 
L 233.425459 212.81985 
L 233.425729 210.15873 
L 233.425209 207.49761 
L 233.424123 204.83649 
L 233.422933 202.17537 
L 233.42204 199.51425 
L 233.421492 196.85313 
L 233.420833 194.19201 
L 233.419149 191.53089 
L 233.415271 188.86977 
L 233.407975 186.20865 
L 233.396025 183.54753 
L 233.378004 180.88641 
L 233.351941 178.22529 
L 233.307365 175.12065 
L 233.252007 172.45953 
L 233.174575 169.79841 
L 233.06759 167.13729 
L 232.922003 164.47617 
L 232.726852 161.81505 
L 232.468478 159.15393 
L 232.129114 156.49281 
L 231.684709 153.83169 
L 231.656561 153.691039 
L 231.265718 151.17057 
L 230.734102 148.50945 
L 230.043551 145.84833 
L 229.835249 145.166369 
L 229.322362 143.18721 
L 228.465201 140.52609 
L 228.049649 139.420053 
L 227.507097 137.86497 
L 226.408121 135.20385 
L 226.264049 134.874573 
L 225.006038 132.09921 
L 224.478449 131.027239 
L 223.643198 129.43809 
L 222.657137 127.629697 
L 222.15321 126.77697 
L 220.871537 124.548058 
L 220.617714 124.11585 
L 219.19663 121.45473 
L 219.085937 121.217341 
L 218.116097 118.79361 
L 217.300337 116.367981 
L 217.240028 116.13249 
z
" clip-path="url(#p92a2134acb)" style="fill: none; stroke: #0b559f; stroke-width: 1.5"/>
   </g>
   <g id="PathCollection_8"/>
   <g id="patch_3">
    <path d="M 34.240625 288.21825 
L 34.240625 22.10625 
" style="fill: none; stroke: #000000; stroke-width: 0.8; stroke-linejoin: miter; stroke-linecap: square"/>
   </g>
   <g id="patch_4">
    <path d="M 391.360625 288.21825 
L 391.360625 22.10625 
" style="fill: none; stroke: #000000; stroke-width: 0.8; stroke-linejoin: miter; stroke-linecap: square"/>
   </g>
   <g id="patch_5">
    <path d="M 34.240625 288.21825 
L 391.360625 288.21825 
" style="fill: none; stroke: #000000; stroke-width: 0.8; stroke-linejoin: miter; stroke-linecap: square"/>
   </g>
   <g id="patch_6">
    <path d="M 34.240625 22.10625 
L 391.360625 22.10625 
" style="fill: none; stroke: #000000; stroke-width: 0.8; stroke-linejoin: miter; stroke-linecap: square"/>
   </g>
   <g id="text_16">
    <!-- 8.6_cross_-35.0 -->
    <g transform="translate(166.181563 16.10625)scale(0.12 -0.12)">
     <defs>
      <path id="DejaVuSans-2e" d="M 684 794 
L 1344 794 
L 1344 0 
L 684 0 
L 684 794 
z
" transform="scale(0.015625)"/>
      <path id="DejaVuSans-5f" d="M 3263 -1063 
L 3263 -1509 
L -63 -1509 
L -63 -1063 
L 3263 -1063 
z
" transform="scale(0.015625)"/>
      <path id="DejaVuSans-63" d="M 3122 3366 
L 3122 2828 
Q 2878 2963 2633 3030 
Q 2388 3097 2138 3097 
Q 1578 3097 1268 2742 
Q 959 2388 959 1747 
Q 959 1106 1268 751 
Q 1578 397 2138 397 
Q 2388 397 2633 464 
Q 2878 531 3122 666 
L 3122 134 
Q 2881 22 2623 -34 
Q 2366 -91 2075 -91 
Q 1284 -91 818 406 
Q 353 903 353 1747 
Q 353 2603 823 3093 
Q 1294 3584 2113 3584 
Q 2378 3584 2631 3529 
Q 2884 3475 3122 3366 
z
" transform="scale(0.015625)"/>
      <path id="DejaVuSans-72" d="M 2631 2963 
Q 2534 3019 2420 3045 
Q 2306 3072 2169 3072 
Q 1681 3072 1420 2755 
Q 1159 2438 1159 1844 
L 1159 0 
L 581 0 
L 581 3500 
L 1159 3500 
L 1159 2956 
Q 1341 3275 1631 3429 
Q 1922 3584 2338 3584 
Q 2397 3584 2469 3576 
Q 2541 3569 2628 3553 
L 2631 2963 
z
" transform="scale(0.015625)"/>
      <path id="DejaVuSans-73" d="M 2834 3397 
L 2834 2853 
Q 2591 2978 2328 3040 
Q 2066 3103 1784 3103 
Q 1356 3103 1142 2972 
Q 928 2841 928 2578 
Q 928 2378 1081 2264 
Q 1234 2150 1697 2047 
L 1894 2003 
Q 2506 1872 2764 1633 
Q 3022 1394 3022 966 
Q 3022 478 2636 193 
Q 2250 -91 1575 -91 
Q 1294 -91 989 -36 
Q 684 19 347 128 
L 347 722 
Q 666 556 975 473 
Q 1284 391 1588 391 
Q 1994 391 2212 530 
Q 2431 669 2431 922 
Q 2431 1156 2273 1281 
Q 2116 1406 1581 1522 
L 1381 1569 
Q 847 1681 609 1914 
Q 372 2147 372 2553 
Q 372 3047 722 3315 
Q 1072 3584 1716 3584 
Q 2034 3584 2315 3537 
Q 2597 3491 2834 3397 
z
" transform="scale(0.015625)"/>
      <path id="DejaVuSans-2d" d="M 313 2009 
L 1997 2009 
L 1997 1497 
L 313 1497 
L 313 2009 
z
" transform="scale(0.015625)"/>
     </defs>
     <use xlink:href="#DejaVuSans-38"/>
     <use xlink:href="#DejaVuSans-2e" x="63.623047"/>
     <use xlink:href="#DejaVuSans-36" x="95.410156"/>
     <use xlink:href="#DejaVuSans-5f" x="159.033203"/>
     <use xlink:href="#DejaVuSans-63" x="209.033203"/>
     <use xlink:href="#DejaVuSans-72" x="264.013672"/>
     <use xlink:href="#DejaVuSans-6f" x="302.876953"/>
     <use xlink:href="#DejaVuSans-73" x="364.058594"/>
     <use xlink:href="#DejaVuSans-73" x="416.158203"/>
     <use xlink:href="#DejaVuSans-5f" x="468.257812"/>
     <use xlink:href="#DejaVuSans-2d" x="518.257812"/>
     <use xlink:href="#DejaVuSans-33" x="554.341797"/>
     <use xlink:href="#DejaVuSans-35" x="617.964844"/>
     <use xlink:href="#DejaVuSans-2e" x="681.587891"/>
     <use xlink:href="#DejaVuSans-30" x="713.375"/>
    </g>
   </g>
  </g>
 </g>
 <defs>
  <clipPath id="p92a2134acb">
   <rect x="34.240625" y="22.10625" width="357.12" height="266.112"/>
  </clipPath>
 </defs>
</svg>
