<?xml version="1.0" encoding="utf-8" standalone="no"?>
<!DOCTYPE svg PUBLIC "-//W3C//DTD SVG 1.1//EN"
  "http://www.w3.org/Graphics/SVG/1.1/DTD/svg11.dtd">
<svg xmlns:xlink="http://www.w3.org/1999/xlink" width="408.104375pt" height="325.7745pt" viewBox="0 0 408.104375 325.7745" xmlns="http://www.w3.org/2000/svg" version="1.1">
 <metadata>
  <rdf:RDF xmlns:dc="http://purl.org/dc/elements/1.1/" xmlns:cc="http://creativecommons.org/ns#" xmlns:rdf="http://www.w3.org/1999/02/22-rdf-syntax-ns#">
   <cc:Work>
    <dc:type rdf:resource="http://purl.org/dc/dcmitype/StillImage"/>
    <dc:date>2024-07-12T12:16:59.156208</dc:date>
    <dc:format>image/svg+xml</dc:format>
    <dc:creator>
     <cc:Agent>
      <dc:title>Matplotlib v3.5.3, https://matplotlib.org/</dc:title>
     </cc:Agent>
    </dc:creator>
   </cc:Work>
  </rdf:RDF>
 </metadata>
 <defs>
  <style type="text/css">*{stroke-linejoin: round; stroke-linecap: butt}</style>
 </defs>
 <g id="figure_1">
  <g id="patch_1">
   <path d="M 0 325.7745 
L 408.104375 325.7745 
L 408.104375 0 
L 0 0 
z
" style="fill: #ffffff"/>
  </g>
  <g id="axes_1">
   <g id="patch_2">
    <path d="M 34.240625 288.21825 
L 391.360625 288.21825 
L 391.360625 22.10625 
L 34.240625 22.10625 
z
" style="fill: #ffffff"/>
   </g>
   <g id="matplotlib.axis_1">
    <g id="xtick_1">
     <g id="line2d_1">
      <defs>
       <path id="m16ecaaed66" d="M 0 0 
L 0 3.5 
" style="stroke: #000000; stroke-width: 0.8"/>
      </defs>
      <g>
       <use xlink:href="#m16ecaaed66" x="34.240625" y="288.21825" style="stroke: #000000; stroke-width: 0.8"/>
      </g>
     </g>
     <g id="text_1">
      <!-- 0 -->
      <g transform="translate(31.059375 302.816687)scale(0.1 -0.1)">
       <defs>
        <path id="DejaVuSans-30" d="M 2034 4250 
Q 1547 4250 1301 3770 
Q 1056 3291 1056 2328 
Q 1056 1369 1301 889 
Q 1547 409 2034 409 
Q 2525 409 2770 889 
Q 3016 1369 3016 2328 
Q 3016 3291 2770 3770 
Q 2525 4250 2034 4250 
z
M 2034 4750 
Q 2819 4750 3233 4129 
Q 3647 3509 3647 2328 
Q 3647 1150 3233 529 
Q 2819 -91 2034 -91 
Q 1250 -91 836 529 
Q 422 1150 422 2328 
Q 422 3509 836 4129 
Q 1250 4750 2034 4750 
z
" transform="scale(0.015625)"/>
       </defs>
       <use xlink:href="#DejaVuSans-30"/>
      </g>
     </g>
    </g>
    <g id="xtick_2">
     <g id="line2d_2">
      <g>
       <use xlink:href="#m16ecaaed66" x="105.664625" y="288.21825" style="stroke: #000000; stroke-width: 0.8"/>
      </g>
     </g>
     <g id="text_2">
      <!-- 20 -->
      <g transform="translate(99.302125 302.816687)scale(0.1 -0.1)">
       <defs>
        <path id="DejaVuSans-32" d="M 1228 531 
L 3431 531 
L 3431 0 
L 469 0 
L 469 531 
Q 828 903 1448 1529 
Q 2069 2156 2228 2338 
Q 2531 2678 2651 2914 
Q 2772 3150 2772 3378 
Q 2772 3750 2511 3984 
Q 2250 4219 1831 4219 
Q 1534 4219 1204 4116 
Q 875 4013 500 3803 
L 500 4441 
Q 881 4594 1212 4672 
Q 1544 4750 1819 4750 
Q 2544 4750 2975 4387 
Q 3406 4025 3406 3419 
Q 3406 3131 3298 2873 
Q 3191 2616 2906 2266 
Q 2828 2175 2409 1742 
Q 1991 1309 1228 531 
z
" transform="scale(0.015625)"/>
       </defs>
       <use xlink:href="#DejaVuSans-32"/>
       <use xlink:href="#DejaVuSans-30" x="63.623047"/>
      </g>
     </g>
    </g>
    <g id="xtick_3">
     <g id="line2d_3">
      <g>
       <use xlink:href="#m16ecaaed66" x="177.088625" y="288.21825" style="stroke: #000000; stroke-width: 0.8"/>
      </g>
     </g>
     <g id="text_3">
      <!-- 40 -->
      <g transform="translate(170.726125 302.816687)scale(0.1 -0.1)">
       <defs>
        <path id="DejaVuSans-34" d="M 2419 4116 
L 825 1625 
L 2419 1625 
L 2419 4116 
z
M 2253 4666 
L 3047 4666 
L 3047 1625 
L 3713 1625 
L 3713 1100 
L 3047 1100 
L 3047 0 
L 2419 0 
L 2419 1100 
L 313 1100 
L 313 1709 
L 2253 4666 
z
" transform="scale(0.015625)"/>
       </defs>
       <use xlink:href="#DejaVuSans-34"/>
       <use xlink:href="#DejaVuSans-30" x="63.623047"/>
      </g>
     </g>
    </g>
    <g id="xtick_4">
     <g id="line2d_4">
      <g>
       <use xlink:href="#m16ecaaed66" x="248.512625" y="288.21825" style="stroke: #000000; stroke-width: 0.8"/>
      </g>
     </g>
     <g id="text_4">
      <!-- 60 -->
      <g transform="translate(242.150125 302.816687)scale(0.1 -0.1)">
       <defs>
        <path id="DejaVuSans-36" d="M 2113 2584 
Q 1688 2584 1439 2293 
Q 1191 2003 1191 1497 
Q 1191 994 1439 701 
Q 1688 409 2113 409 
Q 2538 409 2786 701 
Q 3034 994 3034 1497 
Q 3034 2003 2786 2293 
Q 2538 2584 2113 2584 
z
M 3366 4563 
L 3366 3988 
Q 3128 4100 2886 4159 
Q 2644 4219 2406 4219 
Q 1781 4219 1451 3797 
Q 1122 3375 1075 2522 
Q 1259 2794 1537 2939 
Q 1816 3084 2150 3084 
Q 2853 3084 3261 2657 
Q 3669 2231 3669 1497 
Q 3669 778 3244 343 
Q 2819 -91 2113 -91 
Q 1303 -91 875 529 
Q 447 1150 447 2328 
Q 447 3434 972 4092 
Q 1497 4750 2381 4750 
Q 2619 4750 2861 4703 
Q 3103 4656 3366 4563 
z
" transform="scale(0.015625)"/>
       </defs>
       <use xlink:href="#DejaVuSans-36"/>
       <use xlink:href="#DejaVuSans-30" x="63.623047"/>
      </g>
     </g>
    </g>
    <g id="xtick_5">
     <g id="line2d_5">
      <g>
       <use xlink:href="#m16ecaaed66" x="319.936625" y="288.21825" style="stroke: #000000; stroke-width: 0.8"/>
      </g>
     </g>
     <g id="text_5">
      <!-- 80 -->
      <g transform="translate(313.574125 302.816687)scale(0.1 -0.1)">
       <defs>
        <path id="DejaVuSans-38" d="M 2034 2216 
Q 1584 2216 1326 1975 
Q 1069 1734 1069 1313 
Q 1069 891 1326 650 
Q 1584 409 2034 409 
Q 2484 409 2743 651 
Q 3003 894 3003 1313 
Q 3003 1734 2745 1975 
Q 2488 2216 2034 2216 
z
M 1403 2484 
Q 997 2584 770 2862 
Q 544 3141 544 3541 
Q 544 4100 942 4425 
Q 1341 4750 2034 4750 
Q 2731 4750 3128 4425 
Q 3525 4100 3525 3541 
Q 3525 3141 3298 2862 
Q 3072 2584 2669 2484 
Q 3125 2378 3379 2068 
Q 3634 1759 3634 1313 
Q 3634 634 3220 271 
Q 2806 -91 2034 -91 
Q 1263 -91 848 271 
Q 434 634 434 1313 
Q 434 1759 690 2068 
Q 947 2378 1403 2484 
z
M 1172 3481 
Q 1172 3119 1398 2916 
Q 1625 2713 2034 2713 
Q 2441 2713 2670 2916 
Q 2900 3119 2900 3481 
Q 2900 3844 2670 4047 
Q 2441 4250 2034 4250 
Q 1625 4250 1398 4047 
Q 1172 3844 1172 3481 
z
" transform="scale(0.015625)"/>
       </defs>
       <use xlink:href="#DejaVuSans-38"/>
       <use xlink:href="#DejaVuSans-30" x="63.623047"/>
      </g>
     </g>
    </g>
    <g id="xtick_6">
     <g id="line2d_6">
      <g>
       <use xlink:href="#m16ecaaed66" x="391.360625" y="288.21825" style="stroke: #000000; stroke-width: 0.8"/>
      </g>
     </g>
     <g id="text_6">
      <!-- 100 -->
      <g transform="translate(381.816875 302.816687)scale(0.1 -0.1)">
       <defs>
        <path id="DejaVuSans-31" d="M 794 531 
L 1825 531 
L 1825 4091 
L 703 3866 
L 703 4441 
L 1819 4666 
L 2450 4666 
L 2450 531 
L 3481 531 
L 3481 0 
L 794 0 
L 794 531 
z
" transform="scale(0.015625)"/>
       </defs>
       <use xlink:href="#DejaVuSans-31"/>
       <use xlink:href="#DejaVuSans-30" x="63.623047"/>
       <use xlink:href="#DejaVuSans-30" x="127.246094"/>
      </g>
     </g>
    </g>
    <g id="text_7">
     <!-- axialRotation -->
     <g transform="translate(180.024844 316.494812)scale(0.1 -0.1)">
      <defs>
       <path id="DejaVuSans-61" d="M 2194 1759 
Q 1497 1759 1228 1600 
Q 959 1441 959 1056 
Q 959 750 1161 570 
Q 1363 391 1709 391 
Q 2188 391 2477 730 
Q 2766 1069 2766 1631 
L 2766 1759 
L 2194 1759 
z
M 3341 1997 
L 3341 0 
L 2766 0 
L 2766 531 
Q 2569 213 2275 61 
Q 1981 -91 1556 -91 
Q 1019 -91 701 211 
Q 384 513 384 1019 
Q 384 1609 779 1909 
Q 1175 2209 1959 2209 
L 2766 2209 
L 2766 2266 
Q 2766 2663 2505 2880 
Q 2244 3097 1772 3097 
Q 1472 3097 1187 3025 
Q 903 2953 641 2809 
L 641 3341 
Q 956 3463 1253 3523 
Q 1550 3584 1831 3584 
Q 2591 3584 2966 3190 
Q 3341 2797 3341 1997 
z
" transform="scale(0.015625)"/>
       <path id="DejaVuSans-78" d="M 3513 3500 
L 2247 1797 
L 3578 0 
L 2900 0 
L 1881 1375 
L 863 0 
L 184 0 
L 1544 1831 
L 300 3500 
L 978 3500 
L 1906 2253 
L 2834 3500 
L 3513 3500 
z
" transform="scale(0.015625)"/>
       <path id="DejaVuSans-69" d="M 603 3500 
L 1178 3500 
L 1178 0 
L 603 0 
L 603 3500 
z
M 603 4863 
L 1178 4863 
L 1178 4134 
L 603 4134 
L 603 4863 
z
" transform="scale(0.015625)"/>
       <path id="DejaVuSans-6c" d="M 603 4863 
L 1178 4863 
L 1178 0 
L 603 0 
L 603 4863 
z
" transform="scale(0.015625)"/>
       <path id="DejaVuSans-52" d="M 2841 2188 
Q 3044 2119 3236 1894 
Q 3428 1669 3622 1275 
L 4263 0 
L 3584 0 
L 2988 1197 
Q 2756 1666 2539 1819 
Q 2322 1972 1947 1972 
L 1259 1972 
L 1259 0 
L 628 0 
L 628 4666 
L 2053 4666 
Q 2853 4666 3247 4331 
Q 3641 3997 3641 3322 
Q 3641 2881 3436 2590 
Q 3231 2300 2841 2188 
z
M 1259 4147 
L 1259 2491 
L 2053 2491 
Q 2509 2491 2742 2702 
Q 2975 2913 2975 3322 
Q 2975 3731 2742 3939 
Q 2509 4147 2053 4147 
L 1259 4147 
z
" transform="scale(0.015625)"/>
       <path id="DejaVuSans-6f" d="M 1959 3097 
Q 1497 3097 1228 2736 
Q 959 2375 959 1747 
Q 959 1119 1226 758 
Q 1494 397 1959 397 
Q 2419 397 2687 759 
Q 2956 1122 2956 1747 
Q 2956 2369 2687 2733 
Q 2419 3097 1959 3097 
z
M 1959 3584 
Q 2709 3584 3137 3096 
Q 3566 2609 3566 1747 
Q 3566 888 3137 398 
Q 2709 -91 1959 -91 
Q 1206 -91 779 398 
Q 353 888 353 1747 
Q 353 2609 779 3096 
Q 1206 3584 1959 3584 
z
" transform="scale(0.015625)"/>
       <path id="DejaVuSans-74" d="M 1172 4494 
L 1172 3500 
L 2356 3500 
L 2356 3053 
L 1172 3053 
L 1172 1153 
Q 1172 725 1289 603 
Q 1406 481 1766 481 
L 2356 481 
L 2356 0 
L 1766 0 
Q 1100 0 847 248 
Q 594 497 594 1153 
L 594 3053 
L 172 3053 
L 172 3500 
L 594 3500 
L 594 4494 
L 1172 4494 
z
" transform="scale(0.015625)"/>
       <path id="DejaVuSans-6e" d="M 3513 2113 
L 3513 0 
L 2938 0 
L 2938 2094 
Q 2938 2591 2744 2837 
Q 2550 3084 2163 3084 
Q 1697 3084 1428 2787 
Q 1159 2491 1159 1978 
L 1159 0 
L 581 0 
L 581 3500 
L 1159 3500 
L 1159 2956 
Q 1366 3272 1645 3428 
Q 1925 3584 2291 3584 
Q 2894 3584 3203 3211 
Q 3513 2838 3513 2113 
z
" transform="scale(0.015625)"/>
      </defs>
      <use xlink:href="#DejaVuSans-61"/>
      <use xlink:href="#DejaVuSans-78" x="61.279297"/>
      <use xlink:href="#DejaVuSans-69" x="120.458984"/>
      <use xlink:href="#DejaVuSans-61" x="148.242188"/>
      <use xlink:href="#DejaVuSans-6c" x="209.521484"/>
      <use xlink:href="#DejaVuSans-52" x="237.304688"/>
      <use xlink:href="#DejaVuSans-6f" x="302.287109"/>
      <use xlink:href="#DejaVuSans-74" x="363.46875"/>
      <use xlink:href="#DejaVuSans-61" x="402.677734"/>
      <use xlink:href="#DejaVuSans-74" x="463.957031"/>
      <use xlink:href="#DejaVuSans-69" x="503.166016"/>
      <use xlink:href="#DejaVuSans-6f" x="530.949219"/>
      <use xlink:href="#DejaVuSans-6e" x="592.130859"/>
     </g>
    </g>
   </g>
   <g id="matplotlib.axis_2">
    <g id="ytick_1">
     <g id="line2d_7">
      <defs>
       <path id="m9afe979512" d="M 0 0 
L -3.5 0 
" style="stroke: #000000; stroke-width: 0.8"/>
      </defs>
      <g>
       <use xlink:href="#m9afe979512" x="34.240625" y="288.21825" style="stroke: #000000; stroke-width: 0.8"/>
      </g>
     </g>
     <g id="text_8">
      <!-- 0 -->
      <g transform="translate(20.878125 292.017469)scale(0.1 -0.1)">
       <use xlink:href="#DejaVuSans-30"/>
      </g>
     </g>
    </g>
    <g id="ytick_2">
     <g id="line2d_8">
      <g>
       <use xlink:href="#m9afe979512" x="34.240625" y="243.86625" style="stroke: #000000; stroke-width: 0.8"/>
      </g>
     </g>
     <g id="text_9">
      <!-- 1 -->
      <g transform="translate(20.878125 247.665469)scale(0.1 -0.1)">
       <use xlink:href="#DejaVuSans-31"/>
      </g>
     </g>
    </g>
    <g id="ytick_3">
     <g id="line2d_9">
      <g>
       <use xlink:href="#m9afe979512" x="34.240625" y="199.51425" style="stroke: #000000; stroke-width: 0.8"/>
      </g>
     </g>
     <g id="text_10">
      <!-- 2 -->
      <g transform="translate(20.878125 203.313469)scale(0.1 -0.1)">
       <use xlink:href="#DejaVuSans-32"/>
      </g>
     </g>
    </g>
    <g id="ytick_4">
     <g id="line2d_10">
      <g>
       <use xlink:href="#m9afe979512" x="34.240625" y="155.16225" style="stroke: #000000; stroke-width: 0.8"/>
      </g>
     </g>
     <g id="text_11">
      <!-- 3 -->
      <g transform="translate(20.878125 158.961469)scale(0.1 -0.1)">
       <defs>
        <path id="DejaVuSans-33" d="M 2597 2516 
Q 3050 2419 3304 2112 
Q 3559 1806 3559 1356 
Q 3559 666 3084 287 
Q 2609 -91 1734 -91 
Q 1441 -91 1130 -33 
Q 819 25 488 141 
L 488 750 
Q 750 597 1062 519 
Q 1375 441 1716 441 
Q 2309 441 2620 675 
Q 2931 909 2931 1356 
Q 2931 1769 2642 2001 
Q 2353 2234 1838 2234 
L 1294 2234 
L 1294 2753 
L 1863 2753 
Q 2328 2753 2575 2939 
Q 2822 3125 2822 3475 
Q 2822 3834 2567 4026 
Q 2313 4219 1838 4219 
Q 1578 4219 1281 4162 
Q 984 4106 628 3988 
L 628 4550 
Q 988 4650 1302 4700 
Q 1616 4750 1894 4750 
Q 2613 4750 3031 4423 
Q 3450 4097 3450 3541 
Q 3450 3153 3228 2886 
Q 3006 2619 2597 2516 
z
" transform="scale(0.015625)"/>
       </defs>
       <use xlink:href="#DejaVuSans-33"/>
      </g>
     </g>
    </g>
    <g id="ytick_5">
     <g id="line2d_11">
      <g>
       <use xlink:href="#m9afe979512" x="34.240625" y="110.81025" style="stroke: #000000; stroke-width: 0.8"/>
      </g>
     </g>
     <g id="text_12">
      <!-- 4 -->
      <g transform="translate(20.878125 114.609469)scale(0.1 -0.1)">
       <use xlink:href="#DejaVuSans-34"/>
      </g>
     </g>
    </g>
    <g id="ytick_6">
     <g id="line2d_12">
      <g>
       <use xlink:href="#m9afe979512" x="34.240625" y="66.45825" style="stroke: #000000; stroke-width: 0.8"/>
      </g>
     </g>
     <g id="text_13">
      <!-- 5 -->
      <g transform="translate(20.878125 70.257469)scale(0.1 -0.1)">
       <defs>
        <path id="DejaVuSans-35" d="M 691 4666 
L 3169 4666 
L 3169 4134 
L 1269 4134 
L 1269 2991 
Q 1406 3038 1543 3061 
Q 1681 3084 1819 3084 
Q 2600 3084 3056 2656 
Q 3513 2228 3513 1497 
Q 3513 744 3044 326 
Q 2575 -91 1722 -91 
Q 1428 -91 1123 -41 
Q 819 9 494 109 
L 494 744 
Q 775 591 1075 516 
Q 1375 441 1709 441 
Q 2250 441 2565 725 
Q 2881 1009 2881 1497 
Q 2881 1984 2565 2268 
Q 2250 2553 1709 2553 
Q 1456 2553 1204 2497 
Q 953 2441 691 2322 
L 691 4666 
z
" transform="scale(0.015625)"/>
       </defs>
       <use xlink:href="#DejaVuSans-35"/>
      </g>
     </g>
    </g>
    <g id="ytick_7">
     <g id="line2d_13">
      <g>
       <use xlink:href="#m9afe979512" x="34.240625" y="22.10625" style="stroke: #000000; stroke-width: 0.8"/>
      </g>
     </g>
     <g id="text_14">
      <!-- 6 -->
      <g transform="translate(20.878125 25.905469)scale(0.1 -0.1)">
       <use xlink:href="#DejaVuSans-36"/>
      </g>
     </g>
    </g>
    <g id="text_15">
     <!-- zShift -->
     <g transform="translate(14.798438 169.151312)rotate(-90)scale(0.1 -0.1)">
      <defs>
       <path id="DejaVuSans-7a" d="M 353 3500 
L 3084 3500 
L 3084 2975 
L 922 459 
L 3084 459 
L 3084 0 
L 275 0 
L 275 525 
L 2438 3041 
L 353 3041 
L 353 3500 
z
" transform="scale(0.015625)"/>
       <path id="DejaVuSans-53" d="M 3425 4513 
L 3425 3897 
Q 3066 4069 2747 4153 
Q 2428 4238 2131 4238 
Q 1616 4238 1336 4038 
Q 1056 3838 1056 3469 
Q 1056 3159 1242 3001 
Q 1428 2844 1947 2747 
L 2328 2669 
Q 3034 2534 3370 2195 
Q 3706 1856 3706 1288 
Q 3706 609 3251 259 
Q 2797 -91 1919 -91 
Q 1588 -91 1214 -16 
Q 841 59 441 206 
L 441 856 
Q 825 641 1194 531 
Q 1563 422 1919 422 
Q 2459 422 2753 634 
Q 3047 847 3047 1241 
Q 3047 1584 2836 1778 
Q 2625 1972 2144 2069 
L 1759 2144 
Q 1053 2284 737 2584 
Q 422 2884 422 3419 
Q 422 4038 858 4394 
Q 1294 4750 2059 4750 
Q 2388 4750 2728 4690 
Q 3069 4631 3425 4513 
z
" transform="scale(0.015625)"/>
       <path id="DejaVuSans-68" d="M 3513 2113 
L 3513 0 
L 2938 0 
L 2938 2094 
Q 2938 2591 2744 2837 
Q 2550 3084 2163 3084 
Q 1697 3084 1428 2787 
Q 1159 2491 1159 1978 
L 1159 0 
L 581 0 
L 581 4863 
L 1159 4863 
L 1159 2956 
Q 1366 3272 1645 3428 
Q 1925 3584 2291 3584 
Q 2894 3584 3203 3211 
Q 3513 2838 3513 2113 
z
" transform="scale(0.015625)"/>
       <path id="DejaVuSans-66" d="M 2375 4863 
L 2375 4384 
L 1825 4384 
Q 1516 4384 1395 4259 
Q 1275 4134 1275 3809 
L 1275 3500 
L 2222 3500 
L 2222 3053 
L 1275 3053 
L 1275 0 
L 697 0 
L 697 3053 
L 147 3053 
L 147 3500 
L 697 3500 
L 697 3744 
Q 697 4328 969 4595 
Q 1241 4863 1831 4863 
L 2375 4863 
z
" transform="scale(0.015625)"/>
      </defs>
      <use xlink:href="#DejaVuSans-7a"/>
      <use xlink:href="#DejaVuSans-53" x="52.490234"/>
      <use xlink:href="#DejaVuSans-68" x="115.966797"/>
      <use xlink:href="#DejaVuSans-69" x="179.345703"/>
      <use xlink:href="#DejaVuSans-66" x="207.128906"/>
      <use xlink:href="#DejaVuSans-74" x="240.583984"/>
     </g>
    </g>
   </g>
   <g id="PathCollection_1"/>
   <g id="PathCollection_2">
    <path d="M 34.240625 68.274098 
L 36.026225 68.455147 
L 37.847537 68.84158 
L 39.633137 69.434871 
L 41.418737 70.26813 
L 41.729002 70.44993 
L 43.204337 71.301215 
L 45.025649 72.655538 
L 45.539048 73.11105 
L 46.811249 74.292352 
L 48.13821 75.77217 
L 48.596849 76.332572 
L 50.102182 78.43329 
L 50.382449 78.882 
L 51.650462 81.09441 
L 52.203761 82.257856 
L 52.886329 83.75553 
L 53.862488 86.41665 
L 53.989361 86.843488 
L 54.785802 89.52129 
L 55.38472 92.18241 
L 55.774961 94.443968 
L 55.848324 94.84353 
L 56.232967 97.50465 
L 56.520261 100.16577 
L 56.732021 102.82689 
L 56.885592 105.48801 
L 56.994829 108.14913 
L 57.070795 110.81025 
L 57.122288 113.47137 
L 57.156247 116.13249 
L 57.178045 118.79361 
L 57.191724 121.45473 
L 57.200178 124.11585 
L 57.205339 126.77697 
L 57.208376 129.43809 
L 57.209914 132.09921 
L 57.21016 135.20385 
L 57.209082 137.86497 
L 57.206633 140.52609 
L 57.202336 143.18721 
L 57.195241 145.84833 
L 57.18371 148.50945 
L 57.165207 151.17057 
L 57.1361 153.83169 
L 57.09147 156.49281 
L 57.024873 159.15393 
L 56.928044 161.81505 
L 56.790468 164.47617 
L 56.598831 167.13729 
L 56.33627 169.79841 
L 55.981355 172.45953 
L 55.774961 173.648979 
L 55.533708 175.12065 
L 54.855782 178.22529 
L 54.070597 180.88641 
L 53.989361 181.114136 
L 53.108307 183.54753 
L 52.203761 185.510881 
L 51.862638 186.20865 
L 50.382449 188.703703 
L 50.272618 188.86977 
L 48.596849 191.072837 
L 48.186782 191.53089 
L 46.811249 192.935787 
L 45.273932 194.19201 
L 45.025649 194.387058 
L 43.204337 195.570667 
L 41.418737 196.428319 
L 40.188634 196.85313 
L 39.633137 197.053782 
L 37.847537 197.484073 
L 36.026225 197.701504 
L 34.240625 197.710197 
" clip-path="url(#p7169227d9e)" style="fill: none; stroke: #deebf7; stroke-width: 1.5"/>
    <path d="M 191.860123 288.21825 
L 191.239739 285.55713 
L 190.767769 282.89601 
L 190.112423 277.57377 
L 189.735137 272.25153 
L 189.578853 266.92929 
L 189.59912 261.16353 
L 189.798365 255.84129 
L 190.234263 250.51905 
L 190.944542 245.19681 
L 191.458675 242.53569 
L 192.868115 237.21345 
L 194.833351 231.89121 
L 199.802872 220.80321 
L 200.63099 218.14209 
L 201.086497 215.48097 
L 200.999221 212.81985 
L 200.234653 210.15873 
L 198.648905 207.49761 
L 196.0373 204.83649 
L 192.159089 201.947924 
L 188.587889 199.380996 
L 186.766577 197.987119 
L 184.980977 196.413168 
L 182.771182 194.19201 
L 180.559795 191.53089 
L 178.759237 188.86977 
L 177.290582 186.20865 
L 176.017265 183.308808 
L 175.11303 180.88641 
L 174.231665 177.650102 
L 173.64911 175.12065 
L 173.217154 172.45953 
L 172.930362 169.79841 
L 172.770613 167.13729 
L 172.727825 164.47617 
L 172.798977 161.81505 
L 172.987697 159.15393 
L 173.304273 156.49281 
L 173.766047 153.83169 
L 175.111 148.50945 
L 176.052462 145.84833 
L 177.802865 141.731246 
L 178.368482 140.52609 
L 181.409777 134.91219 
L 184.334865 129.43809 
L 185.544775 126.77697 
L 186.766577 123.47364 
L 187.339296 121.45473 
L 187.942316 118.79361 
L 188.587889 114.733904 
L 188.940306 110.81025 
L 189.182683 105.48801 
L 189.308974 97.50465 
L 189.340807 70.44993 
L 189.44753 43.39521 
L 189.718855 35.41185 
L 190.131463 30.08961 
L 190.821509 24.76737 
L 191.322854 22.10625 
L 191.322854 22.10625 
" clip-path="url(#p7169227d9e)" style="fill: none; stroke: #deebf7; stroke-width: 1.5"/>
   </g>
   <g id="PathCollection_3">
    <path d="M 34.240625 78.908098 
L 36.026225 79.160143 
L 37.847537 79.759391 
L 39.633137 80.706232 
L 40.169082 81.09441 
L 41.418737 82.088545 
L 43.018888 83.75553 
L 43.204337 83.977722 
L 44.876739 86.41665 
L 45.025649 86.68126 
L 46.405071 89.52129 
L 46.811249 90.591196 
L 47.366948 92.18241 
L 48.092108 94.84353 
L 48.596849 97.287277 
L 48.640393 97.50465 
L 49.052075 100.16577 
L 49.355213 102.82689 
L 49.574703 105.48801 
L 49.730488 108.14913 
L 49.838525 110.81025 
L 49.911523 113.47137 
L 49.959497 116.13249 
L 49.990194 118.79361 
L 50.009411 121.45473 
L 50.021271 124.11585 
L 50.028494 126.77697 
L 50.032703 129.43809 
L 50.034744 132.09921 
L 50.034838 135.20385 
L 50.032971 137.86497 
L 50.028984 140.52609 
L 50.022086 143.18721 
L 50.010734 145.84833 
L 49.992309 148.50945 
L 49.962805 151.17057 
L 49.916532 153.83169 
L 49.845817 156.49281 
L 49.740639 159.15393 
L 49.588135 161.81505 
L 49.371933 164.47617 
L 49.071249 167.13729 
L 48.659685 169.79841 
L 48.596849 170.110181 
L 48.103766 172.45953 
L 47.359153 175.12065 
L 46.811249 176.617095 
L 46.151512 178.22529 
L 45.025649 180.361013 
L 44.699621 180.88641 
L 43.204337 182.878755 
L 42.568837 183.54753 
L 41.418737 184.601848 
L 39.633137 185.802084 
L 38.729941 186.20865 
L 37.847537 186.578789 
L 36.026225 186.992931 
L 34.240625 187.065282 
" clip-path="url(#p7169227d9e)" style="fill: none; stroke: #c6dbef; stroke-width: 1.5"/>
    <path d="M 199.093156 288.21825 
L 198.271318 285.55713 
L 197.551601 282.381457 
L 197.147687 280.23489 
L 196.50041 274.91265 
L 196.187629 269.59041 
L 196.109829 263.82465 
L 196.250228 258.50241 
L 196.636188 253.18017 
L 197.376168 247.85793 
L 197.905325 245.19681 
L 198.569713 242.53569 
L 199.405493 239.87457 
L 201.122801 235.509277 
L 201.54314 234.55233 
L 204.729713 228.315126 
L 206.982941 223.90785 
L 208.301613 220.80321 
L 209.111275 218.14209 
L 209.626125 215.48097 
L 209.791396 212.81985 
L 209.558868 210.15873 
L 208.884477 207.49761 
L 207.661172 204.83649 
L 205.718165 202.17537 
L 204.729713 201.190925 
L 202.840983 199.51425 
L 198.926449 196.85313 
L 194.684034 194.19201 
L 192.159089 192.446234 
L 190.373489 191.004759 
L 188.124836 188.86977 
L 185.88151 186.20865 
L 184.129006 183.54753 
L 182.759251 180.88641 
L 181.409777 177.284996 
L 180.762323 175.12065 
L 180.196959 172.45953 
L 179.822782 169.79841 
L 179.588465 165.71515 
L 179.588465 163.811429 
L 179.661681 161.81505 
L 179.911461 159.15393 
L 180.323624 156.49281 
L 180.914873 153.83169 
L 181.689621 151.17057 
L 183.195377 147.223353 
L 183.791624 145.84833 
L 186.56636 140.52609 
L 189.529689 135.20385 
L 191.082265 132.09921 
L 192.228236 129.43809 
L 193.140751 126.77697 
L 193.944689 123.881129 
L 194.442446 121.45473 
L 195.167572 116.13249 
L 195.544627 110.81025 
L 195.766001 102.753246 
L 195.824812 86.41665 
L 195.909816 46.49985 
L 196.164595 38.07297 
L 196.558652 32.75073 
L 197.299827 27.42849 
L 197.850723 24.76737 
L 198.562214 22.10625 
L 198.562214 22.10625 
" clip-path="url(#p7169227d9e)" style="fill: none; stroke: #c6dbef; stroke-width: 1.5"/>
    <path d="M 387.217322 22.10625 
L 387.753713 23.855722 
L 388.031669 24.76737 
L 388.677171 27.42849 
L 389.165746 30.08961 
L 389.531975 32.75073 
L 389.575025 33.164873 
L 389.821085 35.41185 
L 390.034166 38.07297 
L 390.186527 40.73409 
L 390.293127 43.39521 
L 390.375408 46.49985 
L 390.420426 49.16097 
L 390.449399 51.82209 
L 390.467629 54.48321 
L 390.478946 57.14433 
L 390.485938 59.80545 
L 390.490226 62.46657 
L 390.492753 65.12769 
L 390.49407 67.78881 
L 390.494561 70.44993 
L 390.494571 73.11105 
L 390.494426 75.77217 
L 390.494378 78.43329 
L 390.494543 81.09441 
L 390.494876 83.75553 
L 390.495218 86.41665 
L 390.495398 89.52129 
L 390.495275 92.18241 
L 390.494961 94.84353 
L 390.494629 97.50465 
L 390.494457 100.16577 
L 390.49454 102.82689 
L 390.494832 105.48801 
L 390.495176 108.14913 
L 390.495384 110.81025 
L 390.495345 113.47137 
L 390.495078 116.13249 
L 390.49473 118.79361 
L 390.494488 121.45473 
L 390.494484 124.11585 
L 390.49472 126.77697 
L 390.495068 129.43809 
L 390.495339 132.09921 
L 390.495369 135.20385 
L 390.495133 137.86497 
L 390.494785 140.52609 
L 390.494514 143.18721 
L 390.494466 145.84833 
L 390.494668 148.50945 
L 390.49501 151.17057 
L 390.495307 153.83169 
L 390.495397 156.49281 
L 390.495233 159.15393 
L 390.494902 161.81505 
L 390.494585 164.47617 
L 390.494453 167.13729 
L 390.494577 169.79841 
L 390.494891 172.45953 
L 390.495224 175.12065 
L 390.495401 178.22529 
L 390.495276 180.88641 
L 390.494962 183.54753 
L 390.494629 186.20865 
L 390.494457 188.86977 
L 390.49454 191.53089 
L 390.494832 194.19201 
L 390.495176 196.85313 
L 390.495384 199.51425 
L 390.495345 202.17537 
L 390.495078 204.83649 
L 390.49473 207.49761 
L 390.494488 210.15873 
L 390.494484 212.81985 
L 390.49472 215.48097 
L 390.495067 218.14209 
L 390.495338 220.80321 
L 390.495366 223.90785 
L 390.495125 226.56897 
L 390.494766 229.23009 
L 390.494471 231.89121 
L 390.494372 234.55233 
L 390.494469 237.21345 
L 390.494598 239.87457 
L 390.494479 242.53569 
L 390.493776 245.19681 
L 390.492138 247.85793 
L 390.48915 250.51905 
L 390.484169 253.18017 
L 390.476078 255.84129 
L 390.462989 258.50241 
L 390.441954 261.16353 
L 390.408702 263.82465 
L 390.346566 266.92929 
L 390.264291 269.59041 
L 390.144425 272.25153 
L 389.973823 274.91265 
L 389.735836 277.57377 
L 389.575025 278.904031 
L 389.421193 280.23489 
L 389.010778 282.89601 
L 388.461061 285.55713 
L 387.753713 288.138826 
L 387.73179 288.21825 
" clip-path="url(#p7169227d9e)" style="fill: none; stroke: #c6dbef; stroke-width: 1.5"/>
   </g>
   <g id="PathCollection_4">
    <path d="M 34.240625 90.419169 
L 36.026225 90.868465 
L 37.847537 92.07425 
L 37.949512 92.18241 
L 39.633137 94.378175 
L 39.893839 94.84353 
L 41.065058 97.50465 
L 41.418737 98.560659 
L 41.856129 100.16577 
L 42.396085 102.82689 
L 42.787098 105.48801 
L 43.064423 108.14913 
L 43.204337 110.084518 
L 43.250558 110.81025 
L 43.365336 113.47137 
L 43.440546 116.13249 
L 43.488539 118.79361 
L 43.518527 121.45473 
L 43.537011 124.11585 
L 43.548239 126.77697 
L 43.554711 129.43809 
L 43.557704 132.09921 
L 43.557448 135.20385 
L 43.553975 137.86497 
L 43.546887 140.52609 
L 43.534749 143.18721 
L 43.514822 145.84833 
L 43.48252 148.50945 
L 43.430893 151.17057 
L 43.350139 153.83169 
L 43.227085 156.49281 
L 43.204337 156.827268 
L 43.023789 159.15393 
L 42.72513 161.81505 
L 42.30191 164.47617 
L 41.71304 167.13729 
L 41.418737 168.129028 
L 40.797237 169.79841 
L 39.633137 172.143905 
L 39.411871 172.45953 
L 37.847537 174.215917 
L 36.410712 175.12065 
L 36.026225 175.318298 
L 34.240625 175.565731 
" clip-path="url(#p7169227d9e)" style="fill: none; stroke: #9dcae1; stroke-width: 1.5"/>
    <path d="M 204.981749 288.21825 
L 203.877393 285.55713 
L 202.944113 282.515669 
L 202.398157 280.23489 
L 201.922317 277.57377 
L 201.336595 272.25153 
L 201.098494 266.92929 
L 201.141327 261.16353 
L 201.462214 255.84129 
L 202.140216 250.51905 
L 202.944113 246.702772 
L 203.320888 245.19681 
L 204.729713 240.974407 
L 205.152698 239.87457 
L 206.515313 236.858836 
L 209.135237 231.89121 
L 212.007485 226.56897 
L 213.693425 222.696673 
L 214.382315 220.80321 
L 215.09787 218.14209 
L 215.554074 215.48097 
L 215.733131 212.81985 
L 215.638422 210.15873 
L 215.238791 207.49761 
L 214.49203 204.83649 
L 213.342986 202.17537 
L 211.661055 199.51425 
L 209.248639 196.85313 
L 208.300913 196.026767 
L 205.896373 194.19201 
L 201.627427 191.53089 
L 197.551601 189.033882 
L 195.766001 187.784399 
L 193.802739 186.20865 
L 191.170368 183.54753 
L 190.373489 182.54624 
L 188.587889 179.853572 
L 187.712894 178.22529 
L 186.458744 175.12065 
L 185.709628 172.45953 
L 185.212522 169.79841 
L 184.936098 167.13729 
L 184.861879 164.47617 
L 184.985048 161.81505 
L 185.299732 159.15393 
L 185.813986 156.49281 
L 186.766577 153.170895 
L 187.472434 151.17057 
L 188.61816 148.50945 
L 190.373489 145.053461 
L 195.766001 135.032527 
L 197.551601 130.552774 
L 197.925879 129.43809 
L 198.658789 126.77697 
L 199.337201 123.530522 
L 199.990759 118.79361 
L 200.389081 113.47137 
L 200.632265 105.48801 
L 200.7082 92.18241 
L 200.828631 46.49985 
L 201.122801 39.022147 
L 201.398251 35.41185 
L 201.70472 32.75073 
L 202.124948 30.08961 
L 202.944113 26.522764 
L 203.450763 24.76737 
L 204.455094 22.10625 
L 204.455094 22.10625 
" clip-path="url(#p7169227d9e)" style="fill: none; stroke: #9dcae1; stroke-width: 1.5"/>
    <path d="M 381.325488 22.10625 
L 382.396913 24.679539 
L 382.431323 24.76737 
L 383.276295 27.42849 
L 383.915948 30.08961 
L 384.182513 31.549089 
L 384.399521 32.75073 
L 384.761011 35.41185 
L 385.024117 38.07297 
L 385.212037 40.73409 
L 385.343327 43.39521 
L 385.444477 46.49985 
L 385.499706 49.16097 
L 385.535188 51.82209 
L 385.557488 54.48321 
L 385.571322 57.14433 
L 385.579869 59.80545 
L 385.585103 62.46657 
L 385.588171 65.12769 
L 385.589745 67.78881 
L 385.590307 70.44993 
L 385.590292 73.11105 
L 385.590109 75.77217 
L 385.590067 78.43329 
L 385.590297 81.09441 
L 385.590727 83.75553 
L 385.59115 86.41665 
L 385.591352 89.52129 
L 385.591172 92.18241 
L 385.590765 94.84353 
L 385.590352 97.50465 
L 385.590157 100.16577 
L 385.590286 102.82689 
L 385.59067 105.48801 
L 385.591099 108.14913 
L 385.591342 110.81025 
L 385.591267 113.47137 
L 385.590914 116.13249 
L 385.590475 118.79361 
L 385.590188 121.45473 
L 385.590208 124.11585 
L 385.590525 126.77697 
L 385.590966 129.43809 
L 385.591293 132.09921 
L 385.591302 135.20385 
L 385.590986 137.86497 
L 385.590544 140.52609 
L 385.590217 143.18721 
L 385.590182 145.84833 
L 385.590457 148.50945 
L 385.590894 151.17057 
L 385.591256 153.83169 
L 385.591346 156.49281 
L 385.591116 159.15393 
L 385.59069 161.81505 
L 385.5903 164.47617 
L 385.590156 167.13729 
L 385.590337 169.79841 
L 385.590745 172.45953 
L 385.591158 175.12065 
L 385.591354 178.22529 
L 385.591173 180.88641 
L 385.590766 183.54753 
L 385.590352 186.20865 
L 385.590157 188.86977 
L 385.590286 191.53089 
L 385.59067 194.19201 
L 385.591099 196.85313 
L 385.591342 199.51425 
L 385.591267 202.17537 
L 385.590914 204.83649 
L 385.590475 207.49761 
L 385.590188 210.15873 
L 385.590208 212.81985 
L 385.590525 215.48097 
L 385.590966 218.14209 
L 385.591292 220.80321 
L 385.591297 223.90785 
L 385.590974 226.56897 
L 385.590518 229.23009 
L 385.590159 231.89121 
L 385.590055 234.55233 
L 385.59019 237.21345 
L 385.590343 239.87457 
L 385.59015 242.53569 
L 385.589184 245.19681 
L 385.586999 247.85793 
L 385.583054 250.51905 
L 385.5765 253.18017 
L 385.56586 255.84129 
L 385.548653 258.50241 
L 385.521023 261.16353 
L 385.477415 263.82465 
L 385.396097 266.92929 
L 385.28864 269.59041 
L 385.132345 272.25153 
L 384.910189 274.91265 
L 384.600588 277.57377 
L 384.182513 280.19632 
L 384.176283 280.23489 
L 383.611703 282.89601 
L 382.855472 285.55713 
L 382.396913 286.812527 
L 381.848458 288.21825 
" clip-path="url(#p7169227d9e)" style="fill: none; stroke: #9dcae1; stroke-width: 1.5"/>
   </g>
   <g id="PathCollection_5">
    <path d="M 211.064227 288.21825 
L 209.443485 285.55713 
L 208.254632 282.89601 
L 207.395816 280.23489 
L 206.515313 276.19385 
L 206.300829 274.91265 
L 205.784631 269.59041 
L 205.656642 263.82465 
L 205.881601 258.50241 
L 206.486482 253.18017 
L 206.97795 250.51905 
L 207.617091 247.85793 
L 208.425931 245.19681 
L 210.122225 240.965754 
L 210.623658 239.87457 
L 213.457044 234.55233 
L 216.379667 229.23009 
L 217.652903 226.56897 
L 219.085937 222.78665 
L 219.701497 220.80321 
L 220.29666 218.14209 
L 220.675563 215.48097 
L 220.841205 212.81985 
L 220.791136 210.15873 
L 220.515465 207.49761 
L 219.994806 204.83649 
L 219.085937 201.896275 
L 218.059258 199.51425 
L 216.501802 196.85313 
L 214.389609 194.19201 
L 213.693425 193.473752 
L 211.524319 191.53089 
L 210.122225 190.473644 
L 206.515313 188.133581 
L 201.122801 184.870744 
L 199.19531 183.54753 
L 197.551601 182.205691 
L 195.766001 180.499625 
L 193.902884 178.22529 
L 192.105168 175.12065 
L 191.069638 172.45953 
L 190.373489 169.783642 
L 189.996973 167.13729 
L 189.882525 164.47617 
L 190.016797 161.81505 
L 190.393041 159.15393 
L 191.02145 156.49281 
L 192.159089 153.149126 
L 192.985909 151.17057 
L 194.284429 148.50945 
L 199.970062 137.86497 
L 201.122801 135.17881 
L 202.213159 132.09921 
L 202.964316 129.43809 
L 203.559314 126.77697 
L 204.364909 121.45473 
L 204.806367 116.13249 
L 205.028411 110.81025 
L 205.171853 100.16577 
L 205.203526 59.80545 
L 205.346992 46.49985 
L 205.602361 40.73409 
L 206.112897 35.41185 
L 206.530442 32.75073 
L 207.118786 30.08961 
L 208.300913 26.433289 
L 209.015494 24.76737 
L 210.533198 22.10625 
L 210.533198 22.10625 
" clip-path="url(#p7169227d9e)" style="fill: none; stroke: #6aaed6; stroke-width: 1.5"/>
    <path d="M 375.259051 22.10625 
L 376.875406 24.76737 
L 377.004401 25.033515 
L 378.050594 27.42849 
L 378.790001 29.637831 
L 378.930206 30.08961 
L 379.569292 32.75073 
L 380.041774 35.41185 
L 380.385512 38.07297 
L 380.575601 40.129342 
L 380.629793 40.73409 
L 380.797739 43.39521 
L 380.926918 46.49985 
L 380.997324 49.16097 
L 381.042492 51.82209 
L 381.070849 54.48321 
L 381.088435 57.14433 
L 381.099297 59.80545 
L 381.105941 62.46657 
L 381.109815 65.12769 
L 381.111777 67.78881 
L 381.11245 70.44993 
L 381.112403 73.11105 
L 381.112165 75.77217 
L 381.112131 78.43329 
L 381.112454 81.09441 
L 381.113025 83.75553 
L 381.113568 86.41665 
L 381.113801 89.52129 
L 381.113541 92.18241 
L 381.112999 94.84353 
L 381.112469 97.50465 
L 381.11224 100.16577 
L 381.112435 102.82689 
L 381.112949 105.48801 
L 381.113504 108.14913 
L 381.113798 110.81025 
L 381.113673 113.47137 
L 381.113195 116.13249 
L 381.112625 118.79361 
L 381.112271 121.45473 
L 381.112325 124.11585 
L 381.112757 126.77697 
L 381.113335 129.43809 
L 381.113743 132.09921 
L 381.113723 135.20385 
L 381.11329 137.86497 
L 381.112713 140.52609 
L 381.112304 143.18721 
L 381.112285 145.84833 
L 381.112667 148.50945 
L 381.113242 151.17057 
L 381.113698 153.83169 
L 381.113789 156.49281 
L 381.113465 159.15393 
L 381.112902 161.81505 
L 381.112404 164.47617 
L 381.112243 167.13729 
L 381.112504 169.79841 
L 381.113048 172.45953 
L 381.113578 175.12065 
L 381.113805 178.22529 
L 381.113543 180.88641 
L 381.113 183.54753 
L 381.11247 186.20865 
L 381.11224 188.86977 
L 381.112435 191.53089 
L 381.112949 194.19201 
L 381.113504 196.85313 
L 381.113798 199.51425 
L 381.113673 202.17537 
L 381.113195 204.83649 
L 381.112625 207.49761 
L 381.112271 210.15873 
L 381.112324 212.81985 
L 381.112757 215.48097 
L 381.113334 218.14209 
L 381.113741 220.80321 
L 381.113716 223.90785 
L 381.113274 226.56897 
L 381.112677 229.23009 
L 381.112224 231.89121 
L 381.112112 234.55233 
L 381.1123 237.21345 
L 381.112486 239.87457 
L 381.112184 242.53569 
L 381.110834 245.19681 
L 381.107848 247.85793 
L 381.1025 250.51905 
L 381.093641 253.18017 
L 381.079264 255.84129 
L 381.056019 258.50241 
L 381.018725 261.16353 
L 380.959947 263.82465 
L 380.850547 266.92929 
L 380.706243 269.59041 
L 380.575601 271.256952 
L 380.495068 272.25153 
L 380.191439 274.91265 
L 379.768534 277.57377 
L 379.188935 280.23489 
L 378.790001 281.615727 
L 378.38923 282.89601 
L 377.296029 285.55713 
L 377.004401 286.118739 
L 375.770398 288.21825 
" clip-path="url(#p7169227d9e)" style="fill: none; stroke: #6aaed6; stroke-width: 1.5"/>
   </g>
   <g id="PathCollection_6">
    <path d="M 219.342207 288.21825 
L 219.085937 288.044613 
L 217.300337 286.579194 
L 216.274068 285.55713 
L 215.479025 284.586832 
L 214.307478 282.89601 
L 212.967365 280.23489 
L 211.907825 277.16885 
L 211.370037 274.91265 
L 210.926016 272.25153 
L 210.638552 269.59041 
L 210.482575 266.92929 
L 210.446689 263.82465 
L 210.732845 258.50241 
L 211.051145 255.84129 
L 211.907825 251.376215 
L 212.114978 250.51905 
L 212.922821 247.85793 
L 213.914872 245.19681 
L 215.479025 241.817677 
L 217.978517 237.21345 
L 220.901737 231.89121 
L 222.657137 228.117031 
L 223.293817 226.56897 
L 224.478449 222.812279 
L 225.000848 220.80321 
L 225.490434 218.14209 
L 225.798969 215.48097 
L 225.936327 212.81985 
L 225.905343 210.15873 
L 225.701182 207.49761 
L 225.310324 204.83649 
L 224.478449 201.422626 
L 223.880889 199.51425 
L 222.657137 196.62871 
L 220.871537 193.497407 
L 219.085937 191.094179 
L 216.995345 188.86977 
L 215.479025 187.516327 
L 213.693425 186.13544 
L 210.122225 183.771464 
L 204.729713 180.420745 
L 201.799439 178.22529 
L 201.122801 177.586204 
L 198.867656 175.12065 
L 197.224984 172.45953 
L 196.174418 169.79841 
L 195.572399 167.13729 
L 195.363205 164.47617 
L 195.484157 161.81505 
L 195.919564 159.15393 
L 196.665781 156.49281 
L 197.664973 153.83169 
L 199.337201 150.346686 
L 204.44882 140.52609 
L 205.581677 137.86497 
L 206.527145 135.20385 
L 207.438993 132.09921 
L 208.300913 128.000318 
L 208.89991 124.11585 
L 209.385575 118.79361 
L 209.63511 113.47137 
L 209.785019 105.48801 
L 209.832157 86.41665 
L 209.91339 51.82209 
L 210.122225 44.961106 
L 210.418342 40.73409 
L 210.728741 38.07297 
L 211.169122 35.41185 
L 211.907825 32.341342 
L 212.685462 30.08961 
L 213.948482 27.42849 
L 215.831744 24.76737 
L 217.300337 23.31747 
L 218.814129 22.10625 
L 218.814129 22.10625 
" clip-path="url(#p7169227d9e)" style="fill: none; stroke: #4191c6; stroke-width: 1.5"/>
    <path d="M 366.95047 22.10625 
L 368.040689 22.910266 
L 369.826289 24.521884 
L 370.055795 24.76737 
L 371.611889 26.807786 
L 372.015835 27.42849 
L 373.377631 30.08961 
L 373.397489 30.139922 
L 374.308738 32.75073 
L 374.995785 35.41185 
L 375.218801 36.589026 
L 375.475275 38.07297 
L 375.805573 40.73409 
L 376.03581 43.39521 
L 376.21268 46.49985 
L 376.308943 49.16097 
L 376.370626 51.82209 
L 376.409321 54.48321 
L 376.433311 57.14433 
L 376.448127 59.80545 
L 376.457176 62.46657 
L 376.462427 65.12769 
L 376.465053 67.78881 
L 376.465919 70.44993 
L 376.465821 73.11105 
L 376.465495 75.77217 
L 376.465475 78.43329 
L 376.465954 81.09441 
L 376.466763 83.75553 
L 376.467507 86.41665 
L 376.467793 89.52129 
L 376.467399 92.18241 
L 376.466629 94.84353 
L 376.465903 97.50465 
L 376.465614 100.16577 
L 376.46592 102.82689 
L 376.466655 105.48801 
L 376.46742 108.14913 
L 376.467801 110.81025 
L 376.467591 113.47137 
L 376.466905 116.13249 
L 376.466113 118.79361 
L 376.465646 121.45473 
L 376.465756 124.11585 
L 376.466384 126.77697 
L 376.46719 129.43809 
L 376.467736 132.09921 
L 376.467667 135.20385 
L 376.467038 137.86497 
L 376.466233 140.52609 
L 376.465687 143.18721 
L 376.465696 145.84833 
L 376.466256 148.50945 
L 376.467062 151.17057 
L 376.467679 153.83169 
L 376.467771 156.49281 
L 376.467289 159.15393 
L 376.466493 161.81505 
L 376.465816 164.47617 
L 376.465624 167.13729 
L 376.466022 169.79841 
L 376.466793 172.45953 
L 376.46752 175.12065 
L 376.467798 178.22529 
L 376.467401 180.88641 
L 376.46663 183.54753 
L 376.465903 186.20865 
L 376.465614 188.86977 
L 376.46592 191.53089 
L 376.466655 194.19201 
L 376.46742 196.85313 
L 376.467801 199.51425 
L 376.467591 202.17537 
L 376.466905 204.83649 
L 376.466113 207.49761 
L 376.465646 210.15873 
L 376.465756 212.81985 
L 376.466384 215.48097 
L 376.467188 218.14209 
L 376.467732 220.80321 
L 376.467657 223.90785 
L 376.467015 226.56897 
L 376.46618 229.23009 
L 376.465569 231.89121 
L 376.465441 234.55233 
L 376.465717 237.21345 
L 376.465957 239.87457 
L 376.465468 242.53569 
L 376.463463 245.19681 
L 376.459113 247.85793 
L 376.45138 250.51905 
L 376.438596 253.18017 
L 376.417859 255.84129 
L 376.384333 258.50241 
L 376.330587 261.16353 
L 376.245983 263.82465 
L 376.088759 266.92929 
L 375.881667 269.59041 
L 375.581227 272.25153 
L 375.218801 274.520552 
L 375.14994 274.91265 
L 374.509137 277.57377 
L 373.630971 280.23489 
L 373.397489 280.775458 
L 372.345588 282.89601 
L 371.611889 284.042903 
L 370.465965 285.55713 
L 369.826289 286.239127 
L 368.040689 287.813796 
L 367.478378 288.21825 
" clip-path="url(#p7169227d9e)" style="fill: none; stroke: #4191c6; stroke-width: 1.5"/>
   </g>
   <g id="PathCollection_7">
    <path d="M 202.575019 164.47617 
L 202.572668 161.81505 
L 202.944113 159.464675 
L 202.99704 159.15393 
L 203.825612 156.49281 
L 204.729713 154.251521 
L 204.905467 153.83169 
L 206.188964 151.17057 
L 206.515313 150.528244 
L 207.544807 148.50945 
L 208.300913 146.981462 
L 208.859843 145.84833 
L 210.057882 143.18721 
L 210.122225 143.029346 
L 211.144413 140.52609 
L 211.907825 138.263675 
L 212.044703 137.86497 
L 212.823463 135.20385 
L 213.524492 132.09921 
L 213.693425 131.143773 
L 214.013273 129.43809 
L 214.401775 126.77697 
L 214.694607 124.11585 
L 214.911315 121.45473 
L 215.068378 118.79361 
L 215.1798 116.13249 
L 215.257349 113.47137 
L 215.310567 110.81025 
L 215.346748 108.14913 
L 215.371064 105.48801 
L 215.386949 102.82689 
L 215.396662 100.16577 
L 215.401872 97.50465 
L 215.404067 94.84353 
L 215.404665 92.18241 
L 215.404881 89.52129 
L 215.405643 86.41665 
L 215.406878 83.75553 
L 215.408244 81.09441 
L 215.409181 78.43329 
L 215.409359 75.77217 
L 215.408944 73.11105 
L 215.408629 70.44993 
L 215.409465 67.78881 
L 215.41263 65.12769 
L 215.419374 62.46657 
L 215.431285 59.80545 
L 215.450934 57.14433 
L 215.479025 54.798169 
L 215.48329 54.48321 
L 215.541487 51.82209 
L 215.634711 49.16097 
L 215.781282 46.49985 
L 216.053258 43.39521 
L 216.411038 40.73409 
L 216.929611 38.07297 
L 217.300337 36.718751 
L 217.7202 35.41185 
L 218.899011 32.75073 
L 219.085937 32.433694 
L 220.760847 30.08961 
L 220.871537 29.969954 
L 222.657137 28.396703 
L 224.052746 27.42849 
L 224.478449 27.190808 
L 226.264049 26.404108 
L 228.049649 25.79802 
L 229.835249 25.336506 
L 231.656561 24.98358 
L 233.164655 24.76737 
L 233.442161 24.733814 
L 235.227761 24.575203 
L 237.013361 24.460909 
L 238.834673 24.378387 
L 240.620273 24.321971 
L 242.405873 24.283054 
L 244.191473 24.256618 
L 246.012785 24.238692 
L 247.798385 24.227273 
L 249.583985 24.220027 
L 251.369585 24.215579 
L 253.190897 24.212895 
L 254.976497 24.21136 
L 256.762097 24.210419 
L 258.547697 24.209768 
L 260.369009 24.209241 
L 262.154609 24.208817 
L 263.940209 24.208503 
L 265.725809 24.20834 
L 267.547121 24.208344 
L 269.332721 24.208488 
L 271.118321 24.2087 
L 272.903921 24.208893 
L 274.725233 24.208988 
L 276.510833 24.208945 
L 278.296433 24.20878 
L 280.082033 24.208558 
L 281.903345 24.208358 
L 283.688945 24.208266 
L 285.474545 24.208311 
L 287.260145 24.208476 
L 289.081457 24.208704 
L 290.867057 24.208897 
L 292.652657 24.208987 
L 294.438257 24.208939 
L 296.259569 24.208767 
L 298.045169 24.208544 
L 299.830769 24.208352 
L 301.616369 24.208265 
L 303.437681 24.208318 
L 305.223281 24.208489 
L 307.008881 24.208713 
L 308.794481 24.208904 
L 310.615793 24.20899 
L 312.401393 24.208936 
L 314.186993 24.208767 
L 315.972593 24.208551 
L 317.793905 24.208374 
L 319.579505 24.208323 
L 321.365105 24.208435 
L 323.150705 24.208705 
L 324.972017 24.209108 
L 326.757617 24.209596 
L 328.543217 24.210196 
L 330.328817 24.211023 
L 332.150129 24.212364 
L 333.935729 24.214603 
L 335.721329 24.218398 
L 337.506929 24.224646 
L 339.328241 24.234835 
L 341.113841 24.250318 
L 342.899441 24.273657 
L 344.685041 24.308177 
L 346.506353 24.359622 
L 348.291953 24.432177 
L 350.077553 24.534676 
L 351.863153 24.677346 
L 352.684012 24.76737 
L 353.684465 24.897157 
L 355.470065 25.21031 
L 357.255665 25.627054 
L 359.041265 26.174034 
L 360.862577 26.898802 
L 361.906458 27.42849 
L 362.648177 27.89234 
L 364.433777 29.29376 
L 365.252613 30.08961 
L 366.219377 31.292125 
L 367.183433 32.75073 
L 368.040689 34.469532 
L 368.436824 35.41185 
L 369.261336 38.07297 
L 369.826289 40.630025 
L 369.846243 40.73409 
L 370.205453 43.39521 
L 370.481065 46.49985 
L 370.630867 49.16097 
L 370.726749 51.82209 
L 370.786856 54.48321 
L 370.824112 57.14433 
L 370.847117 59.80545 
L 370.861147 62.46657 
L 370.869247 65.12769 
L 370.873246 67.78881 
L 370.874512 70.44993 
L 370.874311 73.11105 
L 370.873805 75.77217 
L 370.873817 78.43329 
L 370.874621 81.09441 
L 370.87592 83.75553 
L 370.877076 86.41665 
L 370.877471 89.52129 
L 370.876796 92.18241 
L 370.875557 94.84353 
L 370.874427 97.50465 
L 370.87402 100.16577 
L 370.874557 102.82689 
L 370.875747 105.48801 
L 370.876945 108.14913 
L 370.877501 110.81025 
L 370.877115 113.47137 
L 370.875995 116.13249 
L 370.874749 118.79361 
L 370.874051 121.45473 
L 370.874281 124.11585 
L 370.875314 126.77697 
L 370.876589 129.43809 
L 370.877416 132.09921 
L 370.877242 135.20385 
L 370.87621 137.86497 
L 370.874934 140.52609 
L 370.874107 143.18721 
L 370.874177 145.84833 
L 370.875106 148.50945 
L 370.87639 151.17057 
L 370.877333 153.83169 
L 370.877425 156.49281 
L 370.876615 159.15393 
L 370.875342 161.81505 
L 370.874297 164.47617 
L 370.874046 167.13729 
L 370.874725 169.79841 
L 370.875966 172.45953 
L 370.877096 175.12065 
L 370.877478 178.22529 
L 370.876799 180.88641 
L 370.875558 183.54753 
L 370.874427 186.20865 
L 370.87402 188.86977 
L 370.874557 191.53089 
L 370.875747 194.19201 
L 370.876945 196.85313 
L 370.877501 199.51425 
L 370.877115 202.17537 
L 370.875995 204.83649 
L 370.874748 207.49761 
L 370.874051 210.15873 
L 370.874281 212.81985 
L 370.875313 215.48097 
L 370.876587 218.14209 
L 370.87741 220.80321 
L 370.877226 223.90785 
L 370.876171 226.56897 
L 370.874846 229.23009 
L 370.873911 231.89121 
L 370.873751 234.55233 
L 370.874209 237.21345 
L 370.874552 239.87457 
L 370.873662 242.53569 
L 370.870283 245.19681 
L 370.863083 247.85793 
L 370.850367 250.51905 
L 370.829388 253.18017 
L 370.795364 255.84129 
L 370.740371 258.50241 
L 370.652281 261.16353 
L 370.513791 263.82465 
L 370.256831 266.92929 
L 369.918842 269.59041 
L 369.826289 270.098692 
L 369.373134 272.25153 
L 368.580877 274.91265 
L 368.040689 276.233137 
L 367.386085 277.57377 
L 366.219377 279.358203 
L 365.516418 280.23489 
L 364.433777 281.281363 
L 362.648177 282.657003 
L 362.256864 282.89601 
L 360.862577 283.583371 
L 359.041265 284.279594 
L 357.255665 284.800688 
L 355.470065 285.194707 
L 353.684465 285.488717 
L 353.120041 285.55713 
L 351.863153 285.685727 
L 350.077553 285.817984 
L 348.291953 285.912514 
L 346.506353 285.979113 
L 344.685041 286.026122 
L 342.899441 286.057525 
L 341.113841 286.078655 
L 339.328241 286.092593 
L 337.506929 286.1017 
L 335.721329 286.107238 
L 333.935729 286.110573 
L 332.150129 286.112532 
L 330.328817 286.113716 
L 328.543217 286.114468 
L 326.757617 286.115033 
L 324.972017 286.1155 
L 323.150705 286.115875 
L 321.365105 286.116108 
L 319.579505 286.116178 
L 317.793905 286.116092 
L 315.972593 286.115896 
L 314.186993 286.115684 
L 312.401393 286.115538 
L 310.615793 286.115518 
L 308.794481 286.115636 
L 307.008881 286.115842 
L 305.223281 286.116061 
L 303.437681 286.116208 
L 301.616369 286.116226 
L 299.830769 286.116108 
L 298.045169 286.115901 
L 296.259569 286.115683 
L 294.438257 286.115537 
L 292.652657 286.115523 
L 290.867057 286.115643 
L 289.081457 286.115852 
L 287.260145 286.116073 
L 285.474545 286.116213 
L 283.688945 286.116224 
L 281.903345 286.116101 
L 280.082033 286.115886 
L 278.296433 286.11567 
L 276.510833 286.115531 
L 274.725233 286.115522 
L 272.903921 286.115647 
L 271.118321 286.115851 
L 269.332721 286.116053 
L 267.547121 286.116165 
L 265.725809 286.116124 
L 263.940209 286.115915 
L 262.154609 286.115561 
L 260.369009 286.1151 
L 258.547697 286.114528 
L 256.762097 286.113797 
L 254.976497 286.112705 
L 253.190897 286.110903 
L 251.369585 286.107772 
L 249.583985 286.102643 
L 247.798385 286.09439 
L 246.012785 286.081518 
L 244.191473 286.06148 
L 242.405873 286.032129 
L 240.620273 285.989173 
L 238.834673 285.927243 
L 237.013361 285.837153 
L 235.227761 285.713087 
L 233.600201 285.55713 
L 233.442161 285.539214 
L 231.656561 285.264948 
L 229.835249 284.889112 
L 228.049649 284.401271 
L 226.264049 283.765657 
L 224.478449 282.947621 
L 224.388636 282.89601 
L 222.657137 281.663147 
L 221.063466 280.23489 
L 220.871537 280.013617 
L 219.142769 277.57377 
L 219.085937 277.466026 
L 217.958261 274.91265 
L 217.300337 272.79564 
L 217.155543 272.25153 
L 216.68566 269.59041 
L 216.420805 266.92929 
L 216.334152 263.82465 
L 216.4333 261.16353 
L 216.687327 258.50241 
L 217.098262 255.84129 
L 217.300337 254.907798 
L 217.716485 253.18017 
L 218.53441 250.51905 
L 219.085937 249.036537 
L 219.562481 247.85793 
L 220.785233 245.19681 
L 220.871537 245.027577 
L 222.199729 242.53569 
L 222.657137 241.708632 
L 223.694242 239.87457 
L 224.478449 238.46385 
L 225.176815 237.21345 
L 226.264049 235.129738 
L 226.564181 234.55233 
L 227.811156 231.89121 
L 228.049649 231.306037 
L 228.898372 229.23009 
L 229.777636 226.56897 
L 229.835249 226.356646 
L 230.520702 223.90785 
L 231.158212 220.80321 
L 231.531815 218.14209 
L 231.656561 216.733033 
L 231.777024 215.48097 
L 231.891457 212.81985 
L 231.865549 210.15873 
L 231.696525 207.49761 
L 231.656561 207.159536 
L 231.402501 204.83649 
L 230.957124 202.17537 
L 230.328958 199.51425 
L 229.835249 197.92304 
L 229.508294 196.85313 
L 228.474126 194.19201 
L 228.049649 193.299963 
L 227.176628 191.53089 
L 226.264049 189.990334 
L 225.552043 188.86977 
L 224.478449 187.392514 
L 223.525977 186.20865 
L 222.657137 185.22109 
L 220.981306 183.54753 
L 220.871537 183.442198 
L 219.085937 181.867073 
L 217.800809 180.88641 
L 217.300337 180.496815 
L 215.479025 179.194956 
L 213.967903 178.22529 
L 213.693425 178.031164 
L 211.907825 176.803058 
L 210.122225 175.620118 
L 209.385241 175.12065 
L 208.300913 174.230698 
L 206.515313 172.664659 
L 206.303192 172.45953 
L 204.729713 170.446128 
L 204.284645 169.79841 
L 203.091846 167.13729 
L 202.944113 166.455989 
L 202.575019 164.47617 
z
" clip-path="url(#p7169227d9e)" style="fill: none; stroke: #2070b4; stroke-width: 1.5"/>
   </g>
   <g id="PathCollection_8">
    <path d="M 216.527886 161.81505 
L 216.335233 159.15393 
L 216.725721 156.49281 
L 217.300337 154.39978 
L 217.463434 153.83169 
L 218.42557 151.17057 
L 219.085937 149.342404 
L 219.398751 148.50945 
L 220.356453 145.84833 
L 220.871537 144.195526 
L 221.206776 143.18721 
L 221.972365 140.52609 
L 222.577527 137.86497 
L 222.657137 137.445439 
L 223.13659 135.20385 
L 223.648844 132.09921 
L 223.98014 129.43809 
L 224.232796 126.77697 
L 224.421971 124.11585 
L 224.478449 123.042392 
L 224.579467 121.45473 
L 224.700616 118.79361 
L 224.784293 116.13249 
L 224.841521 113.47137 
L 224.881328 110.81025 
L 224.910052 108.14913 
L 224.93118 105.48801 
L 224.945984 102.82689 
L 224.954727 100.16577 
L 224.957933 97.50465 
L 224.95712 94.84353 
L 224.954689 92.18241 
L 224.953112 89.52129 
L 224.954298 86.41665 
L 224.957719 83.75553 
L 224.961731 81.09441 
L 224.964433 78.43329 
L 224.964788 75.77217 
L 224.963393 73.11105 
L 224.962528 70.44993 
L 224.965568 67.78881 
L 224.976277 65.12769 
L 224.998671 62.46657 
L 225.037954 59.80545 
L 225.10264 57.14433 
L 225.207531 54.48321 
L 225.377028 51.82209 
L 225.648308 49.16097 
L 226.074263 46.49985 
L 226.264049 45.748749 
L 227.018391 43.39521 
L 228.049649 41.288105 
L 228.400675 40.73409 
L 229.835249 39.149498 
L 231.129036 38.07297 
L 231.656561 37.755264 
L 233.442161 36.95505 
L 235.227761 36.369597 
L 237.013361 35.947376 
L 238.834673 35.642235 
L 240.620273 35.433413 
L 240.886986 35.41185 
L 242.405873 35.319551 
L 244.191473 35.245729 
L 246.012785 35.195588 
L 247.798385 35.16358 
L 249.583985 35.143211 
L 251.369585 35.130667 
L 253.190897 35.123077 
L 254.976497 35.118735 
L 256.762097 35.11609 
L 258.547697 35.114282 
L 260.369009 35.112837 
L 262.154609 35.111671 
L 263.940209 35.110799 
L 265.725809 35.110324 
L 267.547121 35.110298 
L 269.332721 35.110658 
L 271.118321 35.111222 
L 272.903921 35.111751 
L 274.725233 35.112035 
L 276.510833 35.111948 
L 278.296433 35.111528 
L 280.082033 35.110935 
L 281.903345 35.110385 
L 283.688945 35.11011 
L 285.474545 35.110201 
L 287.260145 35.110624 
L 289.081457 35.11123 
L 290.867057 35.111763 
L 292.652657 35.112032 
L 294.438257 35.111933 
L 296.259569 35.111494 
L 298.045169 35.110898 
L 299.830769 35.110368 
L 301.616369 35.110106 
L 303.437681 35.110218 
L 305.223281 35.110657 
L 307.008881 35.111255 
L 308.794481 35.111783 
L 310.615793 35.112042 
L 312.401393 35.111926 
L 314.186993 35.111492 
L 315.972593 35.110915 
L 317.793905 35.110423 
L 319.579505 35.110255 
L 321.365105 35.110519 
L 323.150705 35.111215 
L 324.972017 35.112278 
L 326.757617 35.113577 
L 328.543217 35.115167 
L 330.328817 35.117338 
L 332.150129 35.12083 
L 333.935729 35.12664 
L 335.721329 35.136495 
L 337.506929 35.152756 
L 339.328241 35.179334 
L 341.113841 35.219801 
L 342.899441 35.280889 
L 344.685041 35.371348 
L 345.232022 35.41185 
L 346.506353 35.537337 
L 348.291953 35.790426 
L 350.077553 36.148242 
L 351.863153 36.64664 
L 353.684465 37.346383 
L 355.081512 38.07297 
L 355.470065 38.350932 
L 357.255665 40.045015 
L 357.812238 40.73409 
L 359.041265 42.899944 
L 359.260409 43.39521 
L 360.168399 46.49985 
L 360.661397 49.16097 
L 360.862577 50.857982 
L 360.953808 51.82209 
L 361.111759 54.48321 
L 361.209651 57.14433 
L 361.270082 59.80545 
L 361.306872 62.46657 
L 361.327989 65.12769 
L 361.338267 67.78881 
L 361.341372 70.44993 
L 361.34072 73.11105 
L 361.339404 75.77217 
L 361.33957 78.43329 
L 361.341855 81.09441 
L 361.34538 83.75553 
L 361.348408 86.41665 
L 361.349286 89.52129 
L 361.347336 92.18241 
L 361.343965 94.84353 
L 361.341006 97.50465 
L 361.340066 100.16577 
L 361.341655 102.82689 
L 361.344912 105.48801 
L 361.348072 108.14913 
L 361.349422 110.81025 
L 361.348231 113.47137 
L 361.345143 116.13249 
L 361.341833 118.79361 
L 361.340095 121.45473 
L 361.340871 124.11585 
L 361.343741 126.77697 
L 361.347148 129.43809 
L 361.349246 132.09921 
L 361.348595 135.20385 
L 361.345726 137.86497 
L 361.342318 140.52609 
L 361.34022 143.18721 
L 361.340568 145.84833 
L 361.343174 148.50945 
L 361.346625 151.17057 
L 361.349051 153.83169 
L 361.349136 156.49281 
L 361.346835 159.15393 
L 361.343394 161.81505 
L 361.340679 164.47617 
L 361.340162 167.13729 
L 361.342123 169.79841 
L 361.345498 172.45953 
L 361.348459 175.12065 
L 361.349304 178.22529 
L 361.347344 180.88641 
L 361.343968 183.54753 
L 361.341007 186.20865 
L 361.340066 188.86977 
L 361.341655 191.53089 
L 361.344912 194.19201 
L 361.348072 196.85313 
L 361.349422 199.51425 
L 361.348231 202.17537 
L 361.345143 204.83649 
L 361.341833 207.49761 
L 361.340095 210.15873 
L 361.34087 212.81985 
L 361.343738 215.48097 
L 361.347141 218.14209 
L 361.349229 220.80321 
L 361.348547 223.90785 
L 361.345614 226.56897 
L 361.342065 229.23009 
L 361.339658 231.89121 
L 361.339356 234.55233 
L 361.340628 237.21345 
L 361.341414 239.87457 
L 361.338665 242.53569 
L 361.328972 245.19681 
L 361.308701 247.85793 
L 361.273142 250.51905 
L 361.21459 253.18017 
L 361.119646 255.84129 
L 360.966227 258.50241 
L 360.862577 259.627572 
L 360.68511 261.16353 
L 360.202879 263.82465 
L 359.309331 266.92929 
L 359.041265 267.541632 
L 357.886583 269.59041 
L 357.255665 270.372805 
L 355.470065 272.0604 
L 355.20077 272.25153 
L 353.684465 273.031565 
L 351.863153 273.720204 
L 350.077553 274.208599 
L 348.291953 274.557991 
L 346.506353 274.804384 
L 345.374438 274.91265 
L 344.685041 274.962201 
L 342.899441 275.049836 
L 341.113841 275.108891 
L 339.328241 275.147922 
L 337.506929 275.173487 
L 335.721329 275.18908 
L 333.935729 275.198502 
L 332.150129 275.204048 
L 330.328817 275.20739 
L 328.543217 275.209489 
L 326.757617 275.211046 
L 324.972017 275.212323 
L 323.150705 275.21336 
L 321.365105 275.214021 
L 319.579505 275.214247 
L 317.793905 275.214046 
L 315.972593 275.213536 
L 314.186993 275.212962 
L 312.401393 275.21255 
L 310.615793 275.212466 
L 308.794481 275.212754 
L 307.008881 275.213296 
L 305.223281 275.213889 
L 303.437681 275.214306 
L 301.616369 275.214386 
L 299.830769 275.214095 
L 298.045169 275.213551 
L 296.259569 275.21296 
L 294.438257 275.212544 
L 292.652657 275.212477 
L 290.867057 275.212774 
L 289.081457 275.213322 
L 287.260145 275.213921 
L 285.474545 275.214321 
L 283.688945 275.214379 
L 281.903345 275.214075 
L 280.082033 275.21351 
L 278.296433 275.21292 
L 276.510833 275.212519 
L 274.725233 275.212455 
L 272.903921 275.212752 
L 271.118321 275.213271 
L 269.332721 275.213789 
L 267.547121 275.214064 
L 265.725809 275.213908 
L 263.940209 275.213258 
L 262.154609 275.21215 
L 260.369009 275.210659 
L 258.547697 275.20874 
L 256.762097 275.206255 
L 254.976497 275.202627 
L 253.190897 275.196882 
L 251.369585 275.18728 
L 249.583985 275.172021 
L 247.798385 275.147997 
L 246.012785 275.111138 
L 244.191473 275.054489 
L 242.405873 274.972361 
L 241.510739 274.91265 
L 240.620273 274.833142 
L 238.834673 274.604524 
L 237.013361 274.272656 
L 235.227761 273.815846 
L 233.442161 273.185073 
L 231.656561 272.325956 
L 231.54061 272.25153 
L 229.835249 270.677358 
L 228.949147 269.59041 
L 228.049649 267.830826 
L 227.694779 266.92929 
L 227.124593 263.82465 
L 227.100578 261.16353 
L 227.423368 258.50241 
L 228.022547 255.84129 
L 228.049649 255.757415 
L 228.985766 253.18017 
L 229.835249 251.169745 
L 230.134874 250.51905 
L 231.475263 247.85793 
L 231.656561 247.515826 
L 232.928133 245.19681 
L 233.442161 244.234658 
L 234.366551 242.53569 
L 235.227761 240.82246 
L 235.712767 239.87457 
L 236.919695 237.21345 
L 237.013361 236.980983 
L 238.031948 234.55233 
L 238.834673 232.142051 
L 238.923827 231.89121 
L 239.733264 229.23009 
L 240.349403 226.56897 
L 240.620273 225.06054 
L 240.854397 223.90785 
L 241.325063 220.80321 
L 241.596987 218.14209 
L 241.763858 215.48097 
L 241.833672 212.81985 
L 241.808897 210.15873 
L 241.687429 207.49761 
L 241.462623 204.83649 
L 241.122272 202.17537 
L 240.6465 199.51425 
L 240.620273 199.396979 
L 240.115205 196.85313 
L 239.415781 194.19201 
L 238.834673 192.45133 
L 238.547684 191.53089 
L 237.526096 188.86977 
L 237.013361 187.76865 
L 236.295867 186.20865 
L 235.227761 184.269447 
L 234.819651 183.54753 
L 233.442161 181.411643 
L 233.081786 180.88641 
L 231.656561 178.975937 
L 231.04118 178.22529 
L 229.835249 176.791099 
L 228.18508 175.12065 
L 228.049649 174.978747 
L 226.264049 173.22872 
L 225.368054 172.45953 
L 224.478449 171.621075 
L 222.657137 170.06845 
L 222.322838 169.79841 
L 220.871537 168.384468 
L 219.535544 167.13729 
L 219.085937 166.566549 
L 217.529774 164.47617 
L 217.300337 163.936066 
L 216.527886 161.81505 
z
" clip-path="url(#p7169227d9e)" style="fill: none; stroke: #08509b; stroke-width: 1.5"/>
   </g>
   <g id="PathCollection_9"/>
   <g id="patch_3">
    <path d="M 34.240625 288.21825 
L 34.240625 22.10625 
" style="fill: none; stroke: #000000; stroke-width: 0.8; stroke-linejoin: miter; stroke-linecap: square"/>
   </g>
   <g id="patch_4">
    <path d="M 391.360625 288.21825 
L 391.360625 22.10625 
" style="fill: none; stroke: #000000; stroke-width: 0.8; stroke-linejoin: miter; stroke-linecap: square"/>
   </g>
   <g id="patch_5">
    <path d="M 34.240625 288.21825 
L 391.360625 288.21825 
" style="fill: none; stroke: #000000; stroke-width: 0.8; stroke-linejoin: miter; stroke-linecap: square"/>
   </g>
   <g id="patch_6">
    <path d="M 34.240625 22.10625 
L 391.360625 22.10625 
" style="fill: none; stroke: #000000; stroke-width: 0.8; stroke-linejoin: miter; stroke-linecap: square"/>
   </g>
   <g id="text_16">
    <!-- 8.8_cross_-35.0 -->
    <g transform="translate(166.181563 16.10625)scale(0.12 -0.12)">
     <defs>
      <path id="DejaVuSans-2e" d="M 684 794 
L 1344 794 
L 1344 0 
L 684 0 
L 684 794 
z
" transform="scale(0.015625)"/>
      <path id="DejaVuSans-5f" d="M 3263 -1063 
L 3263 -1509 
L -63 -1509 
L -63 -1063 
L 3263 -1063 
z
" transform="scale(0.015625)"/>
      <path id="DejaVuSans-63" d="M 3122 3366 
L 3122 2828 
Q 2878 2963 2633 3030 
Q 2388 3097 2138 3097 
Q 1578 3097 1268 2742 
Q 959 2388 959 1747 
Q 959 1106 1268 751 
Q 1578 397 2138 397 
Q 2388 397 2633 464 
Q 2878 531 3122 666 
L 3122 134 
Q 2881 22 2623 -34 
Q 2366 -91 2075 -91 
Q 1284 -91 818 406 
Q 353 903 353 1747 
Q 353 2603 823 3093 
Q 1294 3584 2113 3584 
Q 2378 3584 2631 3529 
Q 2884 3475 3122 3366 
z
" transform="scale(0.015625)"/>
      <path id="DejaVuSans-72" d="M 2631 2963 
Q 2534 3019 2420 3045 
Q 2306 3072 2169 3072 
Q 1681 3072 1420 2755 
Q 1159 2438 1159 1844 
L 1159 0 
L 581 0 
L 581 3500 
L 1159 3500 
L 1159 2956 
Q 1341 3275 1631 3429 
Q 1922 3584 2338 3584 
Q 2397 3584 2469 3576 
Q 2541 3569 2628 3553 
L 2631 2963 
z
" transform="scale(0.015625)"/>
      <path id="DejaVuSans-73" d="M 2834 3397 
L 2834 2853 
Q 2591 2978 2328 3040 
Q 2066 3103 1784 3103 
Q 1356 3103 1142 2972 
Q 928 2841 928 2578 
Q 928 2378 1081 2264 
Q 1234 2150 1697 2047 
L 1894 2003 
Q 2506 1872 2764 1633 
Q 3022 1394 3022 966 
Q 3022 478 2636 193 
Q 2250 -91 1575 -91 
Q 1294 -91 989 -36 
Q 684 19 347 128 
L 347 722 
Q 666 556 975 473 
Q 1284 391 1588 391 
Q 1994 391 2212 530 
Q 2431 669 2431 922 
Q 2431 1156 2273 1281 
Q 2116 1406 1581 1522 
L 1381 1569 
Q 847 1681 609 1914 
Q 372 2147 372 2553 
Q 372 3047 722 3315 
Q 1072 3584 1716 3584 
Q 2034 3584 2315 3537 
Q 2597 3491 2834 3397 
z
" transform="scale(0.015625)"/>
      <path id="DejaVuSans-2d" d="M 313 2009 
L 1997 2009 
L 1997 1497 
L 313 1497 
L 313 2009 
z
" transform="scale(0.015625)"/>
     </defs>
     <use xlink:href="#DejaVuSans-38"/>
     <use xlink:href="#DejaVuSans-2e" x="63.623047"/>
     <use xlink:href="#DejaVuSans-38" x="95.410156"/>
     <use xlink:href="#DejaVuSans-5f" x="159.033203"/>
     <use xlink:href="#DejaVuSans-63" x="209.033203"/>
     <use xlink:href="#DejaVuSans-72" x="264.013672"/>
     <use xlink:href="#DejaVuSans-6f" x="302.876953"/>
     <use xlink:href="#DejaVuSans-73" x="364.058594"/>
     <use xlink:href="#DejaVuSans-73" x="416.158203"/>
     <use xlink:href="#DejaVuSans-5f" x="468.257812"/>
     <use xlink:href="#DejaVuSans-2d" x="518.257812"/>
     <use xlink:href="#DejaVuSans-33" x="554.341797"/>
     <use xlink:href="#DejaVuSans-35" x="617.964844"/>
     <use xlink:href="#DejaVuSans-2e" x="681.587891"/>
     <use xlink:href="#DejaVuSans-30" x="713.375"/>
    </g>
   </g>
  </g>
 </g>
 <defs>
  <clipPath id="p7169227d9e">
   <rect x="34.240625" y="22.10625" width="357.12" height="266.112"/>
  </clipPath>
 </defs>
</svg>
