<?xml version="1.0" encoding="utf-8" standalone="no"?>
<!DOCTYPE svg PUBLIC "-//W3C//DTD SVG 1.1//EN"
  "http://www.w3.org/Graphics/SVG/1.1/DTD/svg11.dtd">
<svg xmlns:xlink="http://www.w3.org/1999/xlink" width="408.104375pt" height="325.7745pt" viewBox="0 0 408.104375 325.7745" xmlns="http://www.w3.org/2000/svg" version="1.1">
 <metadata>
  <rdf:RDF xmlns:dc="http://purl.org/dc/elements/1.1/" xmlns:cc="http://creativecommons.org/ns#" xmlns:rdf="http://www.w3.org/1999/02/22-rdf-syntax-ns#">
   <cc:Work>
    <dc:type rdf:resource="http://purl.org/dc/dcmitype/StillImage"/>
    <dc:date>2024-07-12T12:15:11.346572</dc:date>
    <dc:format>image/svg+xml</dc:format>
    <dc:creator>
     <cc:Agent>
      <dc:title>Matplotlib v3.5.3, https://matplotlib.org/</dc:title>
     </cc:Agent>
    </dc:creator>
   </cc:Work>
  </rdf:RDF>
 </metadata>
 <defs>
  <style type="text/css">*{stroke-linejoin: round; stroke-linecap: butt}</style>
 </defs>
 <g id="figure_1">
  <g id="patch_1">
   <path d="M 0 325.7745 
L 408.104375 325.7745 
L 408.104375 0 
L 0 0 
z
" style="fill: #ffffff"/>
  </g>
  <g id="axes_1">
   <g id="patch_2">
    <path d="M 34.240625 288.21825 
L 391.360625 288.21825 
L 391.360625 22.10625 
L 34.240625 22.10625 
z
" style="fill: #ffffff"/>
   </g>
   <g id="matplotlib.axis_1">
    <g id="xtick_1">
     <g id="line2d_1">
      <defs>
       <path id="mc11a3ed71e" d="M 0 0 
L 0 3.5 
" style="stroke: #000000; stroke-width: 0.8"/>
      </defs>
      <g>
       <use xlink:href="#mc11a3ed71e" x="34.240625" y="288.21825" style="stroke: #000000; stroke-width: 0.8"/>
      </g>
     </g>
     <g id="text_1">
      <!-- 0 -->
      <g transform="translate(31.059375 302.816687)scale(0.1 -0.1)">
       <defs>
        <path id="DejaVuSans-30" d="M 2034 4250 
Q 1547 4250 1301 3770 
Q 1056 3291 1056 2328 
Q 1056 1369 1301 889 
Q 1547 409 2034 409 
Q 2525 409 2770 889 
Q 3016 1369 3016 2328 
Q 3016 3291 2770 3770 
Q 2525 4250 2034 4250 
z
M 2034 4750 
Q 2819 4750 3233 4129 
Q 3647 3509 3647 2328 
Q 3647 1150 3233 529 
Q 2819 -91 2034 -91 
Q 1250 -91 836 529 
Q 422 1150 422 2328 
Q 422 3509 836 4129 
Q 1250 4750 2034 4750 
z
" transform="scale(0.015625)"/>
       </defs>
       <use xlink:href="#DejaVuSans-30"/>
      </g>
     </g>
    </g>
    <g id="xtick_2">
     <g id="line2d_2">
      <g>
       <use xlink:href="#mc11a3ed71e" x="105.664625" y="288.21825" style="stroke: #000000; stroke-width: 0.8"/>
      </g>
     </g>
     <g id="text_2">
      <!-- 20 -->
      <g transform="translate(99.302125 302.816687)scale(0.1 -0.1)">
       <defs>
        <path id="DejaVuSans-32" d="M 1228 531 
L 3431 531 
L 3431 0 
L 469 0 
L 469 531 
Q 828 903 1448 1529 
Q 2069 2156 2228 2338 
Q 2531 2678 2651 2914 
Q 2772 3150 2772 3378 
Q 2772 3750 2511 3984 
Q 2250 4219 1831 4219 
Q 1534 4219 1204 4116 
Q 875 4013 500 3803 
L 500 4441 
Q 881 4594 1212 4672 
Q 1544 4750 1819 4750 
Q 2544 4750 2975 4387 
Q 3406 4025 3406 3419 
Q 3406 3131 3298 2873 
Q 3191 2616 2906 2266 
Q 2828 2175 2409 1742 
Q 1991 1309 1228 531 
z
" transform="scale(0.015625)"/>
       </defs>
       <use xlink:href="#DejaVuSans-32"/>
       <use xlink:href="#DejaVuSans-30" x="63.623047"/>
      </g>
     </g>
    </g>
    <g id="xtick_3">
     <g id="line2d_3">
      <g>
       <use xlink:href="#mc11a3ed71e" x="177.088625" y="288.21825" style="stroke: #000000; stroke-width: 0.8"/>
      </g>
     </g>
     <g id="text_3">
      <!-- 40 -->
      <g transform="translate(170.726125 302.816687)scale(0.1 -0.1)">
       <defs>
        <path id="DejaVuSans-34" d="M 2419 4116 
L 825 1625 
L 2419 1625 
L 2419 4116 
z
M 2253 4666 
L 3047 4666 
L 3047 1625 
L 3713 1625 
L 3713 1100 
L 3047 1100 
L 3047 0 
L 2419 0 
L 2419 1100 
L 313 1100 
L 313 1709 
L 2253 4666 
z
" transform="scale(0.015625)"/>
       </defs>
       <use xlink:href="#DejaVuSans-34"/>
       <use xlink:href="#DejaVuSans-30" x="63.623047"/>
      </g>
     </g>
    </g>
    <g id="xtick_4">
     <g id="line2d_4">
      <g>
       <use xlink:href="#mc11a3ed71e" x="248.512625" y="288.21825" style="stroke: #000000; stroke-width: 0.8"/>
      </g>
     </g>
     <g id="text_4">
      <!-- 60 -->
      <g transform="translate(242.150125 302.816687)scale(0.1 -0.1)">
       <defs>
        <path id="DejaVuSans-36" d="M 2113 2584 
Q 1688 2584 1439 2293 
Q 1191 2003 1191 1497 
Q 1191 994 1439 701 
Q 1688 409 2113 409 
Q 2538 409 2786 701 
Q 3034 994 3034 1497 
Q 3034 2003 2786 2293 
Q 2538 2584 2113 2584 
z
M 3366 4563 
L 3366 3988 
Q 3128 4100 2886 4159 
Q 2644 4219 2406 4219 
Q 1781 4219 1451 3797 
Q 1122 3375 1075 2522 
Q 1259 2794 1537 2939 
Q 1816 3084 2150 3084 
Q 2853 3084 3261 2657 
Q 3669 2231 3669 1497 
Q 3669 778 3244 343 
Q 2819 -91 2113 -91 
Q 1303 -91 875 529 
Q 447 1150 447 2328 
Q 447 3434 972 4092 
Q 1497 4750 2381 4750 
Q 2619 4750 2861 4703 
Q 3103 4656 3366 4563 
z
" transform="scale(0.015625)"/>
       </defs>
       <use xlink:href="#DejaVuSans-36"/>
       <use xlink:href="#DejaVuSans-30" x="63.623047"/>
      </g>
     </g>
    </g>
    <g id="xtick_5">
     <g id="line2d_5">
      <g>
       <use xlink:href="#mc11a3ed71e" x="319.936625" y="288.21825" style="stroke: #000000; stroke-width: 0.8"/>
      </g>
     </g>
     <g id="text_5">
      <!-- 80 -->
      <g transform="translate(313.574125 302.816687)scale(0.1 -0.1)">
       <defs>
        <path id="DejaVuSans-38" d="M 2034 2216 
Q 1584 2216 1326 1975 
Q 1069 1734 1069 1313 
Q 1069 891 1326 650 
Q 1584 409 2034 409 
Q 2484 409 2743 651 
Q 3003 894 3003 1313 
Q 3003 1734 2745 1975 
Q 2488 2216 2034 2216 
z
M 1403 2484 
Q 997 2584 770 2862 
Q 544 3141 544 3541 
Q 544 4100 942 4425 
Q 1341 4750 2034 4750 
Q 2731 4750 3128 4425 
Q 3525 4100 3525 3541 
Q 3525 3141 3298 2862 
Q 3072 2584 2669 2484 
Q 3125 2378 3379 2068 
Q 3634 1759 3634 1313 
Q 3634 634 3220 271 
Q 2806 -91 2034 -91 
Q 1263 -91 848 271 
Q 434 634 434 1313 
Q 434 1759 690 2068 
Q 947 2378 1403 2484 
z
M 1172 3481 
Q 1172 3119 1398 2916 
Q 1625 2713 2034 2713 
Q 2441 2713 2670 2916 
Q 2900 3119 2900 3481 
Q 2900 3844 2670 4047 
Q 2441 4250 2034 4250 
Q 1625 4250 1398 4047 
Q 1172 3844 1172 3481 
z
" transform="scale(0.015625)"/>
       </defs>
       <use xlink:href="#DejaVuSans-38"/>
       <use xlink:href="#DejaVuSans-30" x="63.623047"/>
      </g>
     </g>
    </g>
    <g id="xtick_6">
     <g id="line2d_6">
      <g>
       <use xlink:href="#mc11a3ed71e" x="391.360625" y="288.21825" style="stroke: #000000; stroke-width: 0.8"/>
      </g>
     </g>
     <g id="text_6">
      <!-- 100 -->
      <g transform="translate(381.816875 302.816687)scale(0.1 -0.1)">
       <defs>
        <path id="DejaVuSans-31" d="M 794 531 
L 1825 531 
L 1825 4091 
L 703 3866 
L 703 4441 
L 1819 4666 
L 2450 4666 
L 2450 531 
L 3481 531 
L 3481 0 
L 794 0 
L 794 531 
z
" transform="scale(0.015625)"/>
       </defs>
       <use xlink:href="#DejaVuSans-31"/>
       <use xlink:href="#DejaVuSans-30" x="63.623047"/>
       <use xlink:href="#DejaVuSans-30" x="127.246094"/>
      </g>
     </g>
    </g>
    <g id="text_7">
     <!-- axialRotation -->
     <g transform="translate(180.024844 316.494812)scale(0.1 -0.1)">
      <defs>
       <path id="DejaVuSans-61" d="M 2194 1759 
Q 1497 1759 1228 1600 
Q 959 1441 959 1056 
Q 959 750 1161 570 
Q 1363 391 1709 391 
Q 2188 391 2477 730 
Q 2766 1069 2766 1631 
L 2766 1759 
L 2194 1759 
z
M 3341 1997 
L 3341 0 
L 2766 0 
L 2766 531 
Q 2569 213 2275 61 
Q 1981 -91 1556 -91 
Q 1019 -91 701 211 
Q 384 513 384 1019 
Q 384 1609 779 1909 
Q 1175 2209 1959 2209 
L 2766 2209 
L 2766 2266 
Q 2766 2663 2505 2880 
Q 2244 3097 1772 3097 
Q 1472 3097 1187 3025 
Q 903 2953 641 2809 
L 641 3341 
Q 956 3463 1253 3523 
Q 1550 3584 1831 3584 
Q 2591 3584 2966 3190 
Q 3341 2797 3341 1997 
z
" transform="scale(0.015625)"/>
       <path id="DejaVuSans-78" d="M 3513 3500 
L 2247 1797 
L 3578 0 
L 2900 0 
L 1881 1375 
L 863 0 
L 184 0 
L 1544 1831 
L 300 3500 
L 978 3500 
L 1906 2253 
L 2834 3500 
L 3513 3500 
z
" transform="scale(0.015625)"/>
       <path id="DejaVuSans-69" d="M 603 3500 
L 1178 3500 
L 1178 0 
L 603 0 
L 603 3500 
z
M 603 4863 
L 1178 4863 
L 1178 4134 
L 603 4134 
L 603 4863 
z
" transform="scale(0.015625)"/>
       <path id="DejaVuSans-6c" d="M 603 4863 
L 1178 4863 
L 1178 0 
L 603 0 
L 603 4863 
z
" transform="scale(0.015625)"/>
       <path id="DejaVuSans-52" d="M 2841 2188 
Q 3044 2119 3236 1894 
Q 3428 1669 3622 1275 
L 4263 0 
L 3584 0 
L 2988 1197 
Q 2756 1666 2539 1819 
Q 2322 1972 1947 1972 
L 1259 1972 
L 1259 0 
L 628 0 
L 628 4666 
L 2053 4666 
Q 2853 4666 3247 4331 
Q 3641 3997 3641 3322 
Q 3641 2881 3436 2590 
Q 3231 2300 2841 2188 
z
M 1259 4147 
L 1259 2491 
L 2053 2491 
Q 2509 2491 2742 2702 
Q 2975 2913 2975 3322 
Q 2975 3731 2742 3939 
Q 2509 4147 2053 4147 
L 1259 4147 
z
" transform="scale(0.015625)"/>
       <path id="DejaVuSans-6f" d="M 1959 3097 
Q 1497 3097 1228 2736 
Q 959 2375 959 1747 
Q 959 1119 1226 758 
Q 1494 397 1959 397 
Q 2419 397 2687 759 
Q 2956 1122 2956 1747 
Q 2956 2369 2687 2733 
Q 2419 3097 1959 3097 
z
M 1959 3584 
Q 2709 3584 3137 3096 
Q 3566 2609 3566 1747 
Q 3566 888 3137 398 
Q 2709 -91 1959 -91 
Q 1206 -91 779 398 
Q 353 888 353 1747 
Q 353 2609 779 3096 
Q 1206 3584 1959 3584 
z
" transform="scale(0.015625)"/>
       <path id="DejaVuSans-74" d="M 1172 4494 
L 1172 3500 
L 2356 3500 
L 2356 3053 
L 1172 3053 
L 1172 1153 
Q 1172 725 1289 603 
Q 1406 481 1766 481 
L 2356 481 
L 2356 0 
L 1766 0 
Q 1100 0 847 248 
Q 594 497 594 1153 
L 594 3053 
L 172 3053 
L 172 3500 
L 594 3500 
L 594 4494 
L 1172 4494 
z
" transform="scale(0.015625)"/>
       <path id="DejaVuSans-6e" d="M 3513 2113 
L 3513 0 
L 2938 0 
L 2938 2094 
Q 2938 2591 2744 2837 
Q 2550 3084 2163 3084 
Q 1697 3084 1428 2787 
Q 1159 2491 1159 1978 
L 1159 0 
L 581 0 
L 581 3500 
L 1159 3500 
L 1159 2956 
Q 1366 3272 1645 3428 
Q 1925 3584 2291 3584 
Q 2894 3584 3203 3211 
Q 3513 2838 3513 2113 
z
" transform="scale(0.015625)"/>
      </defs>
      <use xlink:href="#DejaVuSans-61"/>
      <use xlink:href="#DejaVuSans-78" x="61.279297"/>
      <use xlink:href="#DejaVuSans-69" x="120.458984"/>
      <use xlink:href="#DejaVuSans-61" x="148.242188"/>
      <use xlink:href="#DejaVuSans-6c" x="209.521484"/>
      <use xlink:href="#DejaVuSans-52" x="237.304688"/>
      <use xlink:href="#DejaVuSans-6f" x="302.287109"/>
      <use xlink:href="#DejaVuSans-74" x="363.46875"/>
      <use xlink:href="#DejaVuSans-61" x="402.677734"/>
      <use xlink:href="#DejaVuSans-74" x="463.957031"/>
      <use xlink:href="#DejaVuSans-69" x="503.166016"/>
      <use xlink:href="#DejaVuSans-6f" x="530.949219"/>
      <use xlink:href="#DejaVuSans-6e" x="592.130859"/>
     </g>
    </g>
   </g>
   <g id="matplotlib.axis_2">
    <g id="ytick_1">
     <g id="line2d_7">
      <defs>
       <path id="m51b3b3174d" d="M 0 0 
L -3.5 0 
" style="stroke: #000000; stroke-width: 0.8"/>
      </defs>
      <g>
       <use xlink:href="#m51b3b3174d" x="34.240625" y="288.21825" style="stroke: #000000; stroke-width: 0.8"/>
      </g>
     </g>
     <g id="text_8">
      <!-- 0 -->
      <g transform="translate(20.878125 292.017469)scale(0.1 -0.1)">
       <use xlink:href="#DejaVuSans-30"/>
      </g>
     </g>
    </g>
    <g id="ytick_2">
     <g id="line2d_8">
      <g>
       <use xlink:href="#m51b3b3174d" x="34.240625" y="243.86625" style="stroke: #000000; stroke-width: 0.8"/>
      </g>
     </g>
     <g id="text_9">
      <!-- 1 -->
      <g transform="translate(20.878125 247.665469)scale(0.1 -0.1)">
       <use xlink:href="#DejaVuSans-31"/>
      </g>
     </g>
    </g>
    <g id="ytick_3">
     <g id="line2d_9">
      <g>
       <use xlink:href="#m51b3b3174d" x="34.240625" y="199.51425" style="stroke: #000000; stroke-width: 0.8"/>
      </g>
     </g>
     <g id="text_10">
      <!-- 2 -->
      <g transform="translate(20.878125 203.313469)scale(0.1 -0.1)">
       <use xlink:href="#DejaVuSans-32"/>
      </g>
     </g>
    </g>
    <g id="ytick_4">
     <g id="line2d_10">
      <g>
       <use xlink:href="#m51b3b3174d" x="34.240625" y="155.16225" style="stroke: #000000; stroke-width: 0.8"/>
      </g>
     </g>
     <g id="text_11">
      <!-- 3 -->
      <g transform="translate(20.878125 158.961469)scale(0.1 -0.1)">
       <defs>
        <path id="DejaVuSans-33" d="M 2597 2516 
Q 3050 2419 3304 2112 
Q 3559 1806 3559 1356 
Q 3559 666 3084 287 
Q 2609 -91 1734 -91 
Q 1441 -91 1130 -33 
Q 819 25 488 141 
L 488 750 
Q 750 597 1062 519 
Q 1375 441 1716 441 
Q 2309 441 2620 675 
Q 2931 909 2931 1356 
Q 2931 1769 2642 2001 
Q 2353 2234 1838 2234 
L 1294 2234 
L 1294 2753 
L 1863 2753 
Q 2328 2753 2575 2939 
Q 2822 3125 2822 3475 
Q 2822 3834 2567 4026 
Q 2313 4219 1838 4219 
Q 1578 4219 1281 4162 
Q 984 4106 628 3988 
L 628 4550 
Q 988 4650 1302 4700 
Q 1616 4750 1894 4750 
Q 2613 4750 3031 4423 
Q 3450 4097 3450 3541 
Q 3450 3153 3228 2886 
Q 3006 2619 2597 2516 
z
" transform="scale(0.015625)"/>
       </defs>
       <use xlink:href="#DejaVuSans-33"/>
      </g>
     </g>
    </g>
    <g id="ytick_5">
     <g id="line2d_11">
      <g>
       <use xlink:href="#m51b3b3174d" x="34.240625" y="110.81025" style="stroke: #000000; stroke-width: 0.8"/>
      </g>
     </g>
     <g id="text_12">
      <!-- 4 -->
      <g transform="translate(20.878125 114.609469)scale(0.1 -0.1)">
       <use xlink:href="#DejaVuSans-34"/>
      </g>
     </g>
    </g>
    <g id="ytick_6">
     <g id="line2d_12">
      <g>
       <use xlink:href="#m51b3b3174d" x="34.240625" y="66.45825" style="stroke: #000000; stroke-width: 0.8"/>
      </g>
     </g>
     <g id="text_13">
      <!-- 5 -->
      <g transform="translate(20.878125 70.257469)scale(0.1 -0.1)">
       <defs>
        <path id="DejaVuSans-35" d="M 691 4666 
L 3169 4666 
L 3169 4134 
L 1269 4134 
L 1269 2991 
Q 1406 3038 1543 3061 
Q 1681 3084 1819 3084 
Q 2600 3084 3056 2656 
Q 3513 2228 3513 1497 
Q 3513 744 3044 326 
Q 2575 -91 1722 -91 
Q 1428 -91 1123 -41 
Q 819 9 494 109 
L 494 744 
Q 775 591 1075 516 
Q 1375 441 1709 441 
Q 2250 441 2565 725 
Q 2881 1009 2881 1497 
Q 2881 1984 2565 2268 
Q 2250 2553 1709 2553 
Q 1456 2553 1204 2497 
Q 953 2441 691 2322 
L 691 4666 
z
" transform="scale(0.015625)"/>
       </defs>
       <use xlink:href="#DejaVuSans-35"/>
      </g>
     </g>
    </g>
    <g id="ytick_7">
     <g id="line2d_13">
      <g>
       <use xlink:href="#m51b3b3174d" x="34.240625" y="22.10625" style="stroke: #000000; stroke-width: 0.8"/>
      </g>
     </g>
     <g id="text_14">
      <!-- 6 -->
      <g transform="translate(20.878125 25.905469)scale(0.1 -0.1)">
       <use xlink:href="#DejaVuSans-36"/>
      </g>
     </g>
    </g>
    <g id="text_15">
     <!-- zShift -->
     <g transform="translate(14.798438 169.151312)rotate(-90)scale(0.1 -0.1)">
      <defs>
       <path id="DejaVuSans-7a" d="M 353 3500 
L 3084 3500 
L 3084 2975 
L 922 459 
L 3084 459 
L 3084 0 
L 275 0 
L 275 525 
L 2438 3041 
L 353 3041 
L 353 3500 
z
" transform="scale(0.015625)"/>
       <path id="DejaVuSans-53" d="M 3425 4513 
L 3425 3897 
Q 3066 4069 2747 4153 
Q 2428 4238 2131 4238 
Q 1616 4238 1336 4038 
Q 1056 3838 1056 3469 
Q 1056 3159 1242 3001 
Q 1428 2844 1947 2747 
L 2328 2669 
Q 3034 2534 3370 2195 
Q 3706 1856 3706 1288 
Q 3706 609 3251 259 
Q 2797 -91 1919 -91 
Q 1588 -91 1214 -16 
Q 841 59 441 206 
L 441 856 
Q 825 641 1194 531 
Q 1563 422 1919 422 
Q 2459 422 2753 634 
Q 3047 847 3047 1241 
Q 3047 1584 2836 1778 
Q 2625 1972 2144 2069 
L 1759 2144 
Q 1053 2284 737 2584 
Q 422 2884 422 3419 
Q 422 4038 858 4394 
Q 1294 4750 2059 4750 
Q 2388 4750 2728 4690 
Q 3069 4631 3425 4513 
z
" transform="scale(0.015625)"/>
       <path id="DejaVuSans-68" d="M 3513 2113 
L 3513 0 
L 2938 0 
L 2938 2094 
Q 2938 2591 2744 2837 
Q 2550 3084 2163 3084 
Q 1697 3084 1428 2787 
Q 1159 2491 1159 1978 
L 1159 0 
L 581 0 
L 581 4863 
L 1159 4863 
L 1159 2956 
Q 1366 3272 1645 3428 
Q 1925 3584 2291 3584 
Q 2894 3584 3203 3211 
Q 3513 2838 3513 2113 
z
" transform="scale(0.015625)"/>
       <path id="DejaVuSans-66" d="M 2375 4863 
L 2375 4384 
L 1825 4384 
Q 1516 4384 1395 4259 
Q 1275 4134 1275 3809 
L 1275 3500 
L 2222 3500 
L 2222 3053 
L 1275 3053 
L 1275 0 
L 697 0 
L 697 3053 
L 147 3053 
L 147 3500 
L 697 3500 
L 697 3744 
Q 697 4328 969 4595 
Q 1241 4863 1831 4863 
L 2375 4863 
z
" transform="scale(0.015625)"/>
      </defs>
      <use xlink:href="#DejaVuSans-7a"/>
      <use xlink:href="#DejaVuSans-53" x="52.490234"/>
      <use xlink:href="#DejaVuSans-68" x="115.966797"/>
      <use xlink:href="#DejaVuSans-69" x="179.345703"/>
      <use xlink:href="#DejaVuSans-66" x="207.128906"/>
      <use xlink:href="#DejaVuSans-74" x="240.583984"/>
     </g>
    </g>
   </g>
   <g id="PathCollection_1"/>
   <g id="PathCollection_2">
    <path d="M 34.240625 176.582329 
L 36.026225 176.686477 
L 37.847537 177.120424 
L 39.633137 177.903208 
L 40.142631 178.22529 
L 41.418737 179.033711 
L 43.204337 180.621162 
L 43.445367 180.88641 
L 45.025649 182.829869 
L 45.509517 183.54753 
L 46.811249 185.87362 
L 46.979322 186.20865 
L 48.058658 188.86977 
L 48.596849 190.73297 
L 48.824577 191.53089 
L 49.349282 194.19201 
L 49.634837 196.85313 
L 49.705367 199.51425 
L 49.567805 202.17537 
L 49.212811 204.83649 
L 48.613536 207.49761 
L 48.596849 207.552107 
L 47.791016 210.15873 
L 46.811249 212.447975 
L 46.639463 212.81985 
L 45.103616 215.48097 
L 45.025649 215.596605 
L 43.204337 217.904049 
L 42.969292 218.14209 
L 41.418737 219.59845 
L 39.641942 220.80321 
L 39.633137 220.809184 
L 37.847537 221.703184 
L 36.026225 222.242472 
L 34.240625 222.446171 
" clip-path="url(#p41d166cb45)" style="fill: none; stroke: #deebf7; stroke-width: 1.5"/>
    <path d="M 194.372234 288.21825 
L 193.994828 285.55713 
L 193.944689 285.110427 
L 193.660247 282.89601 
L 193.400151 280.23489 
L 193.205876 277.57377 
L 193.062627 274.91265 
L 192.958652 272.25153 
L 192.884579 269.59041 
L 192.832928 266.92929 
L 192.793158 263.82465 
L 192.771403 261.16353 
L 192.75736 258.50241 
L 192.748475 255.84129 
L 192.742935 253.18017 
L 192.739522 250.51905 
L 192.737468 247.85793 
L 192.736301 245.19681 
L 192.735721 242.53569 
L 192.735506 239.87457 
L 192.735472 237.21345 
L 192.735476 234.55233 
L 192.735429 231.89121 
L 192.735311 229.23009 
L 192.735164 226.56897 
L 192.735057 223.90785 
L 192.735051 220.80321 
L 192.735147 218.14209 
L 192.735283 215.48097 
L 192.735386 212.81985 
L 192.735398 210.15873 
L 192.735314 207.49761 
L 192.735179 204.83649 
L 192.735066 202.17537 
L 192.735036 199.51425 
L 192.735106 196.85313 
L 192.735238 194.19201 
L 192.73536 191.53089 
L 192.735406 188.86977 
L 192.735351 186.20865 
L 192.735225 183.54753 
L 192.735096 180.88641 
L 192.735035 178.22529 
L 192.735089 175.12065 
L 192.735214 172.45953 
L 192.735343 169.79841 
L 192.735405 167.13729 
L 192.735366 164.47617 
L 192.735248 161.81505 
L 192.735115 159.15393 
L 192.735038 156.49281 
L 192.73506 153.83169 
L 192.735168 151.17057 
L 192.735305 148.50945 
L 192.735395 145.84833 
L 192.73539 143.18721 
L 192.735293 140.52609 
L 192.735156 137.86497 
L 192.735054 135.20385 
L 192.735049 132.09921 
L 192.735146 129.43809 
L 192.735283 126.77697 
L 192.735386 124.11585 
L 192.735398 121.45473 
L 192.735314 118.79361 
L 192.735179 116.13249 
L 192.735066 113.47137 
L 192.735036 110.81025 
L 192.735106 108.14913 
L 192.735238 105.48801 
L 192.73536 102.82689 
L 192.735406 100.16577 
L 192.735351 97.50465 
L 192.735225 94.84353 
L 192.735097 92.18241 
L 192.735037 89.52129 
L 192.735094 86.41665 
L 192.735226 83.75553 
L 192.735368 81.09441 
L 192.735458 78.43329 
L 192.735477 75.77217 
L 192.735475 73.11105 
L 192.735565 70.44993 
L 192.735911 67.78881 
L 192.73671 65.12769 
L 192.738209 62.46657 
L 192.740768 59.80545 
L 192.744967 57.14433 
L 192.751745 54.48321 
L 192.762552 51.82209 
L 192.779497 49.16097 
L 192.80548 46.49985 
L 192.852398 43.39521 
L 192.912614 40.73409 
L 192.998079 38.07297 
L 193.116917 35.41185 
L 193.279262 32.75073 
L 193.497779 30.08961 
L 193.788394 27.42849 
L 193.944689 26.308543 
L 194.132766 24.76737 
L 194.548624 22.10625 
" clip-path="url(#p41d166cb45)" style="fill: none; stroke: #deebf7; stroke-width: 1.5"/>
   </g>
   <g id="PathCollection_3">
    <path d="M 34.240625 187.665097 
L 36.026225 187.912374 
L 37.847537 188.802236 
L 37.929074 188.86977 
L 39.633137 190.628423 
L 40.241981 191.53089 
L 41.418737 194.039732 
L 41.476083 194.19201 
L 42.067823 196.85313 
L 42.236905 199.51425 
L 42.001681 202.17537 
L 41.418737 204.560687 
L 41.337924 204.83649 
L 40.048701 207.49761 
L 39.633137 208.113572 
L 37.847537 210.018 
L 37.629024 210.15873 
L 36.026225 211.018715 
L 34.240625 211.363403 
" clip-path="url(#p41d166cb45)" style="fill: none; stroke: #c6dbef; stroke-width: 1.5"/>
    <path d="M 199.780131 288.21825 
L 199.337201 286.035162 
L 199.237852 285.55713 
L 198.795494 282.89601 
L 198.461709 280.23489 
L 198.212341 277.57377 
L 198.028398 274.91265 
L 197.89481 272.25153 
L 197.799568 269.59041 
L 197.733094 266.92929 
L 197.681853 263.82465 
L 197.653789 261.16353 
L 197.635655 258.50241 
L 197.624174 255.84129 
L 197.61701 253.18017 
L 197.612594 250.51905 
L 197.609932 247.85793 
L 197.608414 245.19681 
L 197.607652 242.53569 
L 197.607364 239.87457 
L 197.607315 237.21345 
L 197.607321 234.55233 
L 197.607265 231.89121 
L 197.60712 229.23009 
L 197.606934 226.56897 
L 197.606795 223.90785 
L 197.606779 220.80321 
L 197.606897 218.14209 
L 197.607069 215.48097 
L 197.607202 212.81985 
L 197.607224 210.15873 
L 197.607122 207.49761 
L 197.606952 204.83649 
L 197.606806 202.17537 
L 197.606763 199.51425 
L 197.606846 196.85313 
L 197.607011 194.19201 
L 197.607167 191.53089 
L 197.607231 188.86977 
L 197.607168 186.20865 
L 197.607011 183.54753 
L 197.606847 180.88641 
L 197.606763 178.22529 
L 197.606825 175.12065 
L 197.606981 172.45953 
L 197.607146 169.79841 
L 197.607229 167.13729 
L 197.607186 164.47617 
L 197.60704 161.81505 
L 197.606871 159.15393 
L 197.606769 156.49281 
L 197.60679 153.83169 
L 197.606923 151.17057 
L 197.607096 148.50945 
L 197.607215 145.84833 
L 197.607215 143.18721 
L 197.607096 140.52609 
L 197.606924 137.86497 
L 197.60679 135.20385 
L 197.606778 132.09921 
L 197.606896 129.43809 
L 197.607069 126.77697 
L 197.607202 124.11585 
L 197.607224 121.45473 
L 197.607122 118.79361 
L 197.606952 116.13249 
L 197.606806 113.47137 
L 197.606763 110.81025 
L 197.606846 108.14913 
L 197.607011 105.48801 
L 197.607167 102.82689 
L 197.607231 100.16577 
L 197.607168 97.50465 
L 197.607012 94.84353 
L 197.606848 92.18241 
L 197.606765 89.52129 
L 197.606831 86.41665 
L 197.606995 83.75553 
L 197.607176 81.09441 
L 197.607294 78.43329 
L 197.607322 75.77217 
L 197.607317 73.11105 
L 197.607422 70.44993 
L 197.607839 67.78881 
L 197.608815 65.12769 
L 197.61066 62.46657 
L 197.613818 59.80545 
L 197.619006 57.14433 
L 197.627385 54.48321 
L 197.640754 51.82209 
L 197.661733 49.16097 
L 197.693937 46.49985 
L 197.752159 43.39521 
L 197.826963 40.73409 
L 197.933227 38.07297 
L 198.081088 35.41185 
L 198.283186 32.75073 
L 198.555303 30.08961 
L 198.917257 27.42849 
L 199.337201 25.071241 
L 199.389349 24.76737 
L 199.960305 22.10625 
" clip-path="url(#p41d166cb45)" style="fill: none; stroke: #c6dbef; stroke-width: 1.5"/>
    <path d="M 386.528535 22.10625 
L 387.081036 24.76737 
L 387.500811 27.42849 
L 387.753713 29.536715 
L 387.824335 30.08961 
L 388.086394 32.75073 
L 388.279728 35.41185 
L 388.420154 38.07297 
L 388.520283 40.73409 
L 388.590173 43.39521 
L 388.644051 46.49985 
L 388.673562 49.16097 
L 388.692631 51.82209 
L 388.704705 54.48321 
L 388.712239 57.14433 
L 388.716883 59.80545 
L 388.719683 62.46657 
L 388.721279 65.12769 
L 388.722081 67.78881 
L 388.722384 70.44993 
L 388.722435 73.11105 
L 388.722429 75.77217 
L 388.722488 78.43329 
L 388.722641 81.09441 
L 388.722836 83.75553 
L 388.722982 86.41665 
L 388.722999 89.52129 
L 388.722875 92.18241 
L 388.722694 94.84353 
L 388.722554 97.50465 
L 388.722531 100.16577 
L 388.722638 102.82689 
L 388.722816 105.48801 
L 388.72297 108.14913 
L 388.723016 110.81025 
L 388.722928 113.47137 
L 388.722755 116.13249 
L 388.722591 118.79361 
L 388.722523 121.45473 
L 388.72259 124.11585 
L 388.722755 126.77697 
L 388.722928 129.43809 
L 388.723016 132.09921 
L 388.722951 135.20385 
L 388.722786 137.86497 
L 388.722613 140.52609 
L 388.722525 143.18721 
L 388.72257 145.84833 
L 388.722724 148.50945 
L 388.722903 151.17057 
L 388.72301 153.83169 
L 388.722987 156.49281 
L 388.722847 159.15393 
L 388.722666 161.81505 
L 388.722541 164.47617 
L 388.722541 167.13729 
L 388.722665 169.79841 
L 388.722846 172.45953 
L 388.722987 175.12065 
L 388.723 178.22529 
L 388.722876 180.88641 
L 388.722695 183.54753 
L 388.722554 186.20865 
L 388.722531 188.86977 
L 388.722638 191.53089 
L 388.722816 194.19201 
L 388.72297 196.85313 
L 388.723016 199.51425 
L 388.722928 202.17537 
L 388.722755 204.83649 
L 388.722591 207.49761 
L 388.722523 210.15873 
L 388.72259 212.81985 
L 388.722754 215.48097 
L 388.722927 218.14209 
L 388.723013 220.80321 
L 388.722945 223.90785 
L 388.722772 226.56897 
L 388.722582 229.23009 
L 388.722458 231.89121 
L 388.722428 234.55233 
L 388.722433 237.21345 
L 388.722323 239.87457 
L 388.721885 242.53569 
L 388.720859 245.19681 
L 388.71892 247.85793 
L 388.7156 250.51905 
L 388.710148 253.18017 
L 388.701341 255.84129 
L 388.687288 258.50241 
L 388.665236 261.16353 
L 388.631384 263.82465 
L 388.570178 266.92929 
L 388.491534 269.59041 
L 388.379805 272.25153 
L 388.224323 274.91265 
L 388.011779 277.57377 
L 387.753713 279.980542 
L 387.728338 280.23489 
L 387.385271 282.89601 
L 386.933343 285.55713 
L 386.341949 288.21825 
" clip-path="url(#p41d166cb45)" style="fill: none; stroke: #c6dbef; stroke-width: 1.5"/>
   </g>
   <g id="PathCollection_4">
    <path d="M 204.107077 288.21825 
L 203.355763 285.55713 
L 202.944113 283.664815 
L 202.782036 282.89601 
L 202.343135 280.23489 
L 202.015181 277.57377 
L 201.773198 274.91265 
L 201.597384 272.25153 
L 201.471966 269.59041 
L 201.384373 266.92929 
L 201.316797 263.82465 
L 201.279752 261.16353 
L 201.255798 258.50241 
L 201.240623 255.84129 
L 201.23115 253.18017 
L 201.225309 250.51905 
L 201.221783 247.85793 
L 201.219767 245.19681 
L 201.218749 242.53569 
L 201.218357 239.87457 
L 201.218288 237.21345 
L 201.218296 234.55233 
L 201.218228 231.89121 
L 201.218042 229.23009 
L 201.217801 226.56897 
L 201.217616 223.90785 
L 201.217589 220.80321 
L 201.217737 218.14209 
L 201.21796 215.48097 
L 201.218137 212.81985 
L 201.218171 210.15873 
L 201.218044 207.49761 
L 201.217824 204.83649 
L 201.217631 202.17537 
L 201.217569 199.51425 
L 201.217672 196.85313 
L 201.217884 194.19201 
L 201.21809 191.53089 
L 201.218179 188.86977 
L 201.218102 186.20865 
L 201.217901 183.54753 
L 201.217685 180.88641 
L 201.217571 178.22529 
L 201.217645 175.12065 
L 201.217846 172.45953 
L 201.218062 169.79841 
L 201.218175 167.13729 
L 201.218125 164.47617 
L 201.217939 161.81505 
L 201.217717 159.15393 
L 201.21758 156.49281 
L 201.217602 153.83169 
L 201.217771 151.17057 
L 201.217996 148.50945 
L 201.218154 145.84833 
L 201.21816 143.18721 
L 201.218011 140.52609 
L 201.217787 137.86497 
L 201.21761 135.20385 
L 201.217586 132.09921 
L 201.217736 129.43809 
L 201.21796 126.77697 
L 201.218137 124.11585 
L 201.218171 121.45473 
L 201.218044 118.79361 
L 201.217824 116.13249 
L 201.217631 113.47137 
L 201.217569 110.81025 
L 201.217672 108.14913 
L 201.217884 105.48801 
L 201.21809 102.82689 
L 201.218179 100.16577 
L 201.218102 97.50465 
L 201.217901 94.84353 
L 201.217686 92.18241 
L 201.217574 89.52129 
L 201.217653 86.41665 
L 201.217863 83.75553 
L 201.2181 81.09441 
L 201.218257 78.43329 
L 201.218297 75.77217 
L 201.21829 73.11105 
L 201.218417 70.44993 
L 201.218941 67.78881 
L 201.220181 65.12769 
L 201.222534 62.46657 
L 201.226572 59.80545 
L 201.233209 57.14433 
L 201.243935 54.48321 
L 201.261055 51.82209 
L 201.287937 49.16097 
L 201.329235 46.49985 
L 201.403962 43.39521 
L 201.50005 40.73409 
L 201.636637 38.07297 
L 201.826791 35.41185 
L 202.086798 32.75073 
L 202.43698 30.08961 
L 202.902838 27.42849 
L 202.944113 27.240849 
L 203.504287 24.76737 
L 204.289888 22.10625 
" clip-path="url(#p41d166cb45)" style="fill: none; stroke: #9dcae1; stroke-width: 1.5"/>
    <path d="M 382.197086 22.10625 
L 382.396913 22.77871 
L 382.951651 24.76737 
L 383.524831 27.42849 
L 383.957225 30.08961 
L 384.182513 31.928085 
L 384.283716 32.75073 
L 384.530548 35.41185 
L 384.709908 38.07297 
L 384.837869 40.73409 
L 384.927246 43.39521 
L 384.996204 46.49985 
L 385.034008 49.16097 
L 385.058454 51.82209 
L 385.073942 54.48321 
L 385.08361 57.14433 
L 385.089572 59.80545 
L 385.09317 62.46657 
L 385.095228 65.12769 
L 385.096267 67.78881 
L 385.096667 70.44993 
L 385.096737 73.11105 
L 385.096729 75.77217 
L 385.096799 78.43329 
L 385.096989 81.09441 
L 385.097235 83.75553 
L 385.097423 86.41665 
L 385.097451 89.52129 
L 385.0973 92.18241 
L 385.097072 94.84353 
L 385.096891 97.50465 
L 385.096857 100.16577 
L 385.096986 102.82689 
L 385.097211 105.48801 
L 385.097408 108.14913 
L 385.097471 110.81025 
L 385.097366 113.47137 
L 385.09715 116.13249 
L 385.096939 118.79361 
L 385.096849 121.45473 
L 385.096928 124.11585 
L 385.097133 126.77697 
L 385.097353 129.43809 
L 385.097469 132.09921 
L 385.097394 135.20385 
L 385.097189 137.86497 
L 385.096968 140.52609 
L 385.096852 143.18721 
L 385.096903 145.84833 
L 385.097094 148.50945 
L 385.09732 151.17057 
L 385.09746 153.83169 
L 385.097438 156.49281 
L 385.097265 159.15393 
L 385.097036 161.81505 
L 385.096874 164.47617 
L 385.096868 167.13729 
L 385.09702 169.79841 
L 385.097249 172.45953 
L 385.09743 175.12065 
L 385.097454 178.22529 
L 385.097301 180.88641 
L 385.097072 183.54753 
L 385.096892 186.20865 
L 385.096857 188.86977 
L 385.096986 191.53089 
L 385.097211 194.19201 
L 385.097408 196.85313 
L 385.097471 199.51425 
L 385.097366 202.17537 
L 385.09715 204.83649 
L 385.096939 207.49761 
L 385.096849 210.15873 
L 385.096927 212.81985 
L 385.097132 215.48097 
L 385.097352 218.14209 
L 385.097466 220.80321 
L 385.097386 223.90785 
L 385.097171 226.56897 
L 385.09693 229.23009 
L 385.096769 231.89121 
L 385.096728 234.55233 
L 385.096735 237.21345 
L 385.096606 239.87457 
L 385.096071 242.53569 
L 385.094807 245.19681 
L 385.092406 247.85793 
L 385.088287 250.51905 
L 385.081515 253.18017 
L 385.070573 255.84129 
L 385.053106 258.50241 
L 385.025679 261.16353 
L 384.983543 263.82465 
L 384.907293 266.92929 
L 384.80924 269.59041 
L 384.669848 272.25153 
L 384.475768 274.91265 
L 384.210358 277.57377 
L 384.182513 277.787138 
L 383.864687 280.23489 
L 383.40627 282.89601 
L 382.802374 285.55713 
L 382.396913 286.964518 
L 382.013381 288.21825 
" clip-path="url(#p41d166cb45)" style="fill: none; stroke: #9dcae1; stroke-width: 1.5"/>
   </g>
   <g id="PathCollection_5">
    <path d="M 208.477981 288.21825 
L 208.300913 287.839388 
L 207.384168 285.55713 
L 206.564954 282.89601 
L 206.515313 282.69003 
L 205.975152 280.23489 
L 205.536284 277.57377 
L 205.212426 274.91265 
L 204.977068 272.25153 
L 204.809111 269.59041 
L 204.729713 267.795434 
L 204.692302 266.92929 
L 204.603009 263.82465 
L 204.55402 261.16353 
L 204.522321 258.50241 
L 204.502228 255.84129 
L 204.489681 253.18017 
L 204.481941 250.51905 
L 204.477264 247.85793 
L 204.474584 245.19681 
L 204.473224 242.53569 
L 204.472695 239.87457 
L 204.472597 237.21345 
L 204.472608 234.55233 
L 204.472523 231.89121 
L 204.472284 229.23009 
L 204.471969 226.56897 
L 204.471723 223.90785 
L 204.47168 220.80321 
L 204.471869 218.14209 
L 204.47216 215.48097 
L 204.472395 212.81985 
L 204.472446 210.15873 
L 204.472285 207.49761 
L 204.472 204.83649 
L 204.471744 202.17537 
L 204.471657 199.51425 
L 204.471786 196.85313 
L 204.472061 194.19201 
L 204.472332 191.53089 
L 204.472454 188.86977 
L 204.472359 186.20865 
L 204.4721 183.54753 
L 204.471816 180.88641 
L 204.471662 178.22529 
L 204.471751 175.12065 
L 204.472011 172.45953 
L 204.472294 169.79841 
L 204.472448 167.13729 
L 204.472389 164.47617 
L 204.472149 161.81505 
L 204.471858 159.15393 
L 204.471674 156.49281 
L 204.471697 153.83169 
L 204.471914 151.17057 
L 204.472207 148.50945 
L 204.472419 145.84833 
L 204.472433 143.18721 
L 204.472243 140.52609 
L 204.47195 137.86497 
L 204.471715 135.20385 
L 204.471677 132.09921 
L 204.471868 129.43809 
L 204.47216 126.77697 
L 204.472395 124.11585 
L 204.472446 121.45473 
L 204.472285 118.79361 
L 204.472 116.13249 
L 204.471744 113.47137 
L 204.471657 110.81025 
L 204.471786 108.14913 
L 204.472061 105.48801 
L 204.472333 102.82689 
L 204.472454 100.16577 
L 204.472359 97.50465 
L 204.4721 94.84353 
L 204.471818 92.18241 
L 204.471666 89.52129 
L 204.471761 86.41665 
L 204.472033 83.75553 
L 204.472343 81.09441 
L 204.472553 78.43329 
L 204.472609 75.77217 
L 204.472599 73.11105 
L 204.472756 70.44993 
L 204.47342 67.78881 
L 204.475006 65.12769 
L 204.47803 62.46657 
L 204.483227 59.80545 
L 204.491778 57.14433 
L 204.505599 54.48321 
L 204.52767 51.82209 
L 204.562345 49.16097 
L 204.61565 46.49985 
L 204.712184 43.39521 
L 204.729713 43.016741 
L 204.837926 40.73409 
L 205.017109 38.07297 
L 205.26665 35.41185 
L 205.607936 32.75073 
L 206.06763 30.08961 
L 206.515313 28.120807 
L 206.687269 27.42849 
L 207.532554 24.76737 
L 208.300913 22.88296 
L 208.667574 22.10625 
" clip-path="url(#p41d166cb45)" style="fill: none; stroke: #6aaed6; stroke-width: 1.5"/>
    <path d="M 377.815352 22.10625 
L 378.790001 24.386061 
L 378.93249 24.76737 
L 379.73011 27.42849 
L 380.331721 30.08961 
L 380.575601 31.512883 
L 380.774091 32.75073 
L 381.094389 35.41185 
L 381.327193 38.07297 
L 381.493348 40.73409 
L 381.60946 43.39521 
L 381.699104 46.49985 
L 381.748283 49.16097 
L 381.780103 51.82209 
L 381.800274 54.48321 
L 381.812868 57.14433 
L 381.820638 59.80545 
L 381.825332 62.46657 
L 381.828022 65.12769 
L 381.829388 67.78881 
L 381.829919 70.44993 
L 381.830017 73.11105 
L 381.830006 75.77217 
L 381.830092 78.43329 
L 381.830331 81.09441 
L 381.830647 83.75553 
L 381.830894 86.41665 
L 381.830937 89.52129 
L 381.830748 92.18241 
L 381.830455 94.84353 
L 381.83022 97.50465 
L 381.830168 100.16577 
L 381.83033 102.82689 
L 381.830617 105.48801 
L 381.830873 108.14913 
L 381.83096 110.81025 
L 381.830831 113.47137 
L 381.830555 116.13249 
L 381.830283 118.79361 
L 381.830161 121.45473 
L 381.830256 124.11585 
L 381.830516 126.77697 
L 381.830801 129.43809 
L 381.830955 132.09921 
L 381.830866 135.20385 
L 381.830606 137.86497 
L 381.830321 140.52609 
L 381.830166 143.18721 
L 381.830226 145.84833 
L 381.830467 148.50945 
L 381.830759 151.17057 
L 381.830944 153.83169 
L 381.830921 156.49281 
L 381.830703 159.15393 
L 381.830408 161.81505 
L 381.830196 164.47617 
L 381.830182 167.13729 
L 381.830373 169.79841 
L 381.830666 172.45953 
L 381.830902 175.12065 
L 381.83094 178.22529 
L 381.830749 180.88641 
L 381.830456 183.54753 
L 381.83022 186.20865 
L 381.830169 188.86977 
L 381.83033 191.53089 
L 381.830617 194.19201 
L 381.830873 196.85313 
L 381.83096 199.51425 
L 381.830831 202.17537 
L 381.830555 204.83649 
L 381.830283 207.49761 
L 381.830161 210.15873 
L 381.830256 212.81985 
L 381.830516 215.48097 
L 381.830799 218.14209 
L 381.830952 220.80321 
L 381.830856 223.90785 
L 381.830583 226.56897 
L 381.830272 229.23009 
L 381.830061 231.89121 
L 381.830005 234.55233 
L 381.830015 237.21345 
L 381.829858 239.87457 
L 381.829191 242.53569 
L 381.8276 245.19681 
L 381.824565 247.85793 
L 381.819349 250.51905 
L 381.810768 253.18017 
L 381.796897 255.84129 
L 381.774747 258.50241 
L 381.739949 261.16353 
L 381.686456 263.82465 
L 381.589589 266.92929 
L 381.464945 269.59041 
L 381.287667 272.25153 
L 381.040748 274.91265 
L 380.703 277.57377 
L 380.575601 278.335679 
L 380.236942 280.23489 
L 379.611359 282.89601 
L 378.790001 285.549102 
L 378.787204 285.55713 
L 377.63409 288.21825 
" clip-path="url(#p41d166cb45)" style="fill: none; stroke: #6aaed6; stroke-width: 1.5"/>
   </g>
   <g id="PathCollection_6">
    <path d="M 214.235368 288.21825 
L 213.693425 287.641607 
L 212.176437 285.55713 
L 211.907825 285.097684 
L 210.863844 282.89601 
L 210.122225 280.859864 
L 209.929079 280.23489 
L 209.294986 277.57377 
L 208.827045 274.91265 
L 208.486918 272.25153 
L 208.300913 270.219146 
L 208.24882 269.59041 
L 208.093112 266.92929 
L 207.972821 263.82465 
L 207.906782 261.16353 
L 207.864027 258.50241 
L 207.836914 255.84129 
L 207.819978 253.18017 
L 207.809526 250.51905 
L 207.803207 247.85793 
L 207.799577 245.19681 
L 207.797726 242.53569 
L 207.796999 239.87457 
L 207.796859 237.21345 
L 207.796874 234.55233 
L 207.796766 231.89121 
L 207.796452 229.23009 
L 207.796033 226.56897 
L 207.795701 223.90785 
L 207.795635 220.80321 
L 207.79588 218.14209 
L 207.796267 215.48097 
L 207.796584 212.81985 
L 207.79666 210.15873 
L 207.796452 207.49761 
L 207.796074 204.83649 
L 207.795729 202.17537 
L 207.795606 199.51425 
L 207.795771 196.85313 
L 207.796134 194.19201 
L 207.796499 191.53089 
L 207.796667 188.86977 
L 207.796549 186.20865 
L 207.796207 183.54753 
L 207.795827 180.88641 
L 207.795615 178.22529 
L 207.795725 175.12065 
L 207.796067 172.45953 
L 207.796447 169.79841 
L 207.796659 167.13729 
L 207.796588 164.47617 
L 207.796272 161.81505 
L 207.795884 159.15393 
L 207.795632 156.49281 
L 207.795655 153.83169 
L 207.795938 151.17057 
L 207.79633 148.50945 
L 207.796617 145.84833 
L 207.796644 143.18721 
L 207.796396 140.52609 
L 207.796008 137.86497 
L 207.79569 135.20385 
L 207.79563 132.09921 
L 207.795878 129.43809 
L 207.796266 126.77697 
L 207.796584 124.11585 
L 207.79666 121.45473 
L 207.796452 118.79361 
L 207.796074 116.13249 
L 207.795729 113.47137 
L 207.795606 110.81025 
L 207.795771 108.14913 
L 207.796134 105.48801 
L 207.796499 102.82689 
L 207.796667 100.16577 
L 207.796549 97.50465 
L 207.796208 94.84353 
L 207.795829 92.18241 
L 207.79562 89.52129 
L 207.795738 86.41665 
L 207.796096 83.75553 
L 207.79651 81.09441 
L 207.796795 78.43329 
L 207.796875 75.77217 
L 207.796861 73.11105 
L 207.797059 70.44993 
L 207.797919 67.78881 
L 207.799993 65.12769 
L 207.80396 62.46657 
L 207.810792 59.80545 
L 207.82204 57.14433 
L 207.840228 54.48321 
L 207.86928 51.82209 
L 207.914943 49.16097 
L 207.985179 46.49985 
L 208.112452 43.39521 
L 208.276321 40.73409 
L 208.300913 40.450264 
L 208.528159 38.07297 
L 208.882052 35.41185 
L 209.366133 32.75073 
L 210.018181 30.08961 
L 210.122225 29.759133 
L 210.983656 27.42849 
L 211.907825 25.493661 
L 212.333341 24.76737 
L 213.693425 22.891782 
L 214.424187 22.10625 
" clip-path="url(#p41d166cb45)" style="fill: none; stroke: #4191c6; stroke-width: 1.5"/>
    <path d="M 372.072979 22.10625 
L 373.397489 23.683412 
L 374.111585 24.76737 
L 375.218801 26.875821 
L 375.457611 27.42849 
L 376.361247 30.08961 
L 377.004401 32.621452 
L 377.033021 32.75073 
L 377.481194 35.41185 
L 377.807 38.07297 
L 378.039601 40.73409 
L 378.202217 43.39521 
L 378.327834 46.49985 
L 378.396792 49.16097 
L 378.441435 51.82209 
L 378.469746 54.48321 
L 378.487429 57.14433 
L 378.498341 59.80545 
L 378.504939 62.46657 
L 378.508729 65.12769 
L 378.510662 67.78881 
L 378.511421 70.44993 
L 378.511567 73.11105 
L 378.511551 75.77217 
L 378.511664 78.43329 
L 378.511992 81.09441 
L 378.512429 83.75553 
L 378.512776 86.41665 
L 378.512845 89.52129 
L 378.512589 92.18241 
L 378.512185 94.84353 
L 378.511854 97.50465 
L 378.511775 100.16577 
L 378.511992 102.82689 
L 378.512387 105.48801 
L 378.512746 108.14913 
L 378.512875 110.81025 
L 378.512703 113.47137 
L 378.512324 116.13249 
L 378.511943 118.79361 
L 378.511767 121.45473 
L 378.511891 124.11585 
L 378.512248 126.77697 
L 378.512644 129.43809 
L 378.512865 132.09921 
L 378.512751 135.20385 
L 378.512394 137.86497 
L 378.511997 140.52609 
L 378.511776 143.18721 
L 378.51185 145.84833 
L 378.51218 148.50945 
L 378.512585 151.17057 
L 378.512848 153.83169 
L 378.512824 156.49281 
L 378.512528 159.15393 
L 378.512119 161.81505 
L 378.51182 164.47617 
L 378.511792 167.13729 
L 378.51205 169.79841 
L 378.512456 172.45953 
L 378.512788 175.12065 
L 378.51285 178.22529 
L 378.512591 180.88641 
L 378.512186 183.54753 
L 378.511854 186.20865 
L 378.511775 188.86977 
L 378.511992 191.53089 
L 378.512387 194.19201 
L 378.512746 196.85313 
L 378.512875 199.51425 
L 378.512703 202.17537 
L 378.512324 204.83649 
L 378.511943 207.49761 
L 378.511767 210.15873 
L 378.511891 212.81985 
L 378.512247 215.48097 
L 378.512642 218.14209 
L 378.51286 220.80321 
L 378.512737 223.90785 
L 378.512364 226.56897 
L 378.511931 229.23009 
L 378.511633 231.89121 
L 378.51155 234.55233 
L 378.511565 237.21345 
L 378.511358 239.87457 
L 378.51046 242.53569 
L 378.508295 245.19681 
L 378.504152 247.85793 
L 378.497018 250.51905 
L 378.485273 253.18017 
L 378.466282 255.84129 
L 378.435947 258.50241 
L 378.38827 261.16353 
L 378.314939 263.82465 
L 378.182065 266.92929 
L 378.010998 269.59041 
L 377.767593 272.25153 
L 377.428475 274.91265 
L 377.004401 277.349954 
L 376.960164 277.57377 
L 376.266693 280.23489 
L 375.344501 282.89601 
L 375.218801 283.183986 
L 373.966193 285.55713 
L 373.397489 286.421351 
L 371.899856 288.21825 
" clip-path="url(#p41d166cb45)" style="fill: none; stroke: #4191c6; stroke-width: 1.5"/>
   </g>
   <g id="PathCollection_7">
    <path d="M 211.834173 261.16353 
L 211.770233 258.50241 
L 211.729666 255.84129 
L 211.704319 253.18017 
L 211.688671 250.51905 
L 211.679203 247.85793 
L 211.673753 245.19681 
L 211.670962 242.53569 
L 211.669853 239.87457 
L 211.669632 237.21345 
L 211.669654 234.55233 
L 211.669502 231.89121 
L 211.669046 229.23009 
L 211.668428 226.56897 
L 211.66793 223.90785 
L 211.667818 220.80321 
L 211.668172 218.14209 
L 211.668742 215.48097 
L 211.669217 212.81985 
L 211.66934 210.15873 
L 211.669043 207.49761 
L 211.668487 204.83649 
L 211.667973 202.17537 
L 211.66778 199.51425 
L 211.668013 196.85313 
L 211.668545 194.19201 
L 211.669087 191.53089 
L 211.669347 188.86977 
L 211.669182 186.20865 
L 211.668683 183.54753 
L 211.66812 180.88641 
L 211.667798 178.22529 
L 211.667947 175.12065 
L 211.668446 172.45953 
L 211.66901 169.79841 
L 211.669332 167.13729 
L 211.669238 164.47617 
L 211.66878 161.81505 
L 211.668204 159.15393 
L 211.667825 156.49281 
L 211.667846 153.83169 
L 211.668257 151.17057 
L 211.668835 148.50945 
L 211.669266 145.84833 
L 211.669318 143.18721 
L 211.668961 140.52609 
L 211.668389 137.86497 
L 211.667913 135.20385 
L 211.667812 132.09921 
L 211.668169 129.43809 
L 211.66874 126.77697 
L 211.669217 124.11585 
L 211.66934 121.45473 
L 211.669043 118.79361 
L 211.668487 116.13249 
L 211.667973 113.47137 
L 211.66778 110.81025 
L 211.668013 108.14913 
L 211.668545 105.48801 
L 211.669087 102.82689 
L 211.669347 100.16577 
L 211.669183 97.50465 
L 211.668684 94.84353 
L 211.668123 92.18241 
L 211.667805 89.52129 
L 211.667966 86.41665 
L 211.668488 83.75553 
L 211.669102 81.09441 
L 211.66953 78.43329 
L 211.669655 75.77217 
L 211.669634 73.11105 
L 211.669911 70.44993 
L 211.671148 67.78881 
L 211.674154 65.12769 
L 211.679929 62.46657 
L 211.689891 59.80545 
L 211.706305 57.14433 
L 211.732852 54.48321 
L 211.775271 51.82209 
L 211.841971 49.16097 
L 211.907825 47.451417 
L 211.950827 46.49985 
L 212.168332 43.39521 
L 212.448488 40.73409 
L 212.847239 38.07297 
L 213.402893 35.41185 
L 213.693425 34.380401 
L 214.260697 32.75073 
L 215.479025 30.127567 
L 215.501699 30.08961 
L 217.300337 27.745656 
L 217.624755 27.42849 
L 219.085937 26.273537 
L 220.871537 25.236232 
L 221.975081 24.76737 
L 222.657137 24.523341 
L 224.478449 24.049855 
L 226.264049 23.720235 
L 228.049649 23.492385 
L 229.835249 23.344041 
L 231.656561 23.256275 
L 233.442161 23.215901 
L 235.227761 23.204309 
L 237.013361 23.205841 
L 238.834673 23.207467 
L 240.620273 23.200935 
L 242.405873 23.184475 
L 244.191473 23.161916 
L 246.012785 23.14014 
L 247.798385 23.127526 
L 249.583985 23.128023 
L 251.369585 23.141244 
L 253.190897 23.1625 
L 254.976497 23.182824 
L 256.762097 23.194783 
L 258.547697 23.193784 
L 260.369009 23.179837 
L 262.154609 23.158813 
L 263.940209 23.138591 
L 265.725809 23.126881 
L 267.547121 23.128304 
L 269.332721 23.142267 
L 271.118321 23.163344 
L 272.903921 23.183491 
L 274.725233 23.195104 
L 276.510833 23.193291 
L 278.296433 23.179085 
L 280.082033 23.157931 
L 281.903345 23.137583 
L 283.688945 23.12657 
L 285.474545 23.128646 
L 287.260145 23.143022 
L 289.081457 23.164664 
L 290.867057 23.18449 
L 292.652657 23.195295 
L 294.438257 23.192938 
L 296.259569 23.177939 
L 298.045169 23.156614 
L 299.830769 23.136929 
L 301.616369 23.12639 
L 303.437681 23.129196 
L 305.223281 23.144175 
L 307.008881 23.165541 
L 308.794481 23.185138 
L 310.615793 23.195542 
L 312.401393 23.192371 
L 314.186993 23.177161 
L 315.972593 23.155738 
L 317.793905 23.135977 
L 319.579505 23.12616 
L 321.365105 23.129588 
L 323.150705 23.144958 
L 324.972017 23.166852 
L 326.757617 23.186082 
L 328.543217 23.195683 
L 330.328817 23.191977 
L 332.150129 23.175997 
L 333.935729 23.154483 
L 335.721329 23.135477 
L 337.506929 23.126285 
L 339.328241 23.130752 
L 341.113841 23.147269 
L 342.899441 23.169983 
L 344.685041 23.191147 
L 346.506353 23.204512 
L 348.291953 23.207539 
L 350.077553 23.204718 
L 351.863153 23.206066 
L 353.684465 23.226463 
L 355.470065 23.281476 
L 357.255665 23.38765 
L 359.041265 23.561685 
L 360.862577 23.828922 
L 362.648177 24.204646 
L 364.433777 24.729587 
L 364.528182 24.76737 
L 366.219377 25.574291 
L 368.040689 26.774034 
L 368.777029 27.42849 
L 369.826289 28.590193 
L 370.851503 30.08961 
L 371.611889 31.530394 
L 372.118374 32.75073 
L 372.947844 35.41185 
L 373.397489 37.387112 
L 373.525905 38.07297 
L 373.886609 40.73409 
L 374.138893 43.39521 
L 374.333888 46.49985 
L 374.441 49.16097 
L 374.510384 51.82209 
L 374.554403 54.48321 
L 374.581907 57.14433 
L 374.598885 59.80545 
L 374.60916 62.46657 
L 374.615073 65.12769 
L 374.618102 67.78881 
L 374.619304 70.44993 
L 374.619544 73.11105 
L 374.61952 75.77217 
L 374.619686 78.43329 
L 374.62018 81.09441 
L 374.620851 83.75553 
L 374.621391 86.41665 
L 374.621512 89.52129 
L 374.621129 92.18241 
L 374.620511 94.84353 
L 374.619995 97.50465 
L 374.619861 100.16577 
L 374.620184 102.82689 
L 374.620787 105.48801 
L 374.621344 108.14913 
L 374.621554 110.81025 
L 374.621301 113.47137 
L 374.620724 116.13249 
L 374.620135 118.79361 
L 374.619854 121.45473 
L 374.620032 124.11585 
L 374.620574 126.77697 
L 374.621185 129.43809 
L 374.621535 132.09921 
L 374.621372 135.20385 
L 374.620831 137.86497 
L 374.62022 140.52609 
L 374.61987 143.18721 
L 374.619971 145.84833 
L 374.620469 148.50945 
L 374.621093 151.17057 
L 374.621505 153.83169 
L 374.621482 156.49281 
L 374.621036 159.15393 
L 374.620409 161.81505 
L 374.619941 164.47617 
L 374.619886 167.13729 
L 374.620273 169.79841 
L 374.620893 172.45953 
L 374.621409 175.12065 
L 374.621519 178.22529 
L 374.621132 180.88641 
L 374.620512 183.54753 
L 374.619995 186.20865 
L 374.619862 188.86977 
L 374.620184 191.53089 
L 374.620787 194.19201 
L 374.621344 196.85313 
L 374.621554 199.51425 
L 374.621301 202.17537 
L 374.620724 204.83649 
L 374.620135 207.49761 
L 374.619854 210.15873 
L 374.620032 212.81985 
L 374.620572 215.48097 
L 374.621182 218.14209 
L 374.621527 220.80321 
L 374.621353 223.90785 
L 374.620786 226.56897 
L 374.62012 229.23009 
L 374.619655 231.89121 
L 374.619519 234.55233 
L 374.619542 237.21345 
L 374.619242 239.87457 
L 374.6179 242.53569 
L 374.614639 245.19681 
L 374.608373 247.85793 
L 374.597564 250.51905 
L 374.579756 253.18017 
L 374.550954 255.84129 
L 374.504933 258.50241 
L 374.43257 261.16353 
L 374.321211 263.82465 
L 374.119308 266.92929 
L 373.859231 269.59041 
L 373.489029 272.25153 
L 373.397489 272.730345 
L 372.891401 274.91265 
L 372.04978 277.57377 
L 371.611889 278.620848 
L 370.756924 280.23489 
L 369.826289 281.597784 
L 368.661066 282.89601 
L 368.040689 283.452896 
L 366.219377 284.67187 
L 364.433777 285.540451 
L 364.387028 285.55713 
L 362.648177 286.080706 
L 360.862577 286.466904 
L 359.041265 286.742822 
L 357.255665 286.923788 
L 355.470065 287.035488 
L 353.684465 287.094589 
L 351.863153 287.117598 
L 350.077553 287.120028 
L 348.291953 287.117092 
L 346.506353 287.119292 
L 344.685041 287.131693 
L 342.899441 287.152328 
L 341.113841 287.175229 
L 339.328241 287.192632 
L 337.506929 287.198406 
L 335.721329 287.190407 
L 333.935729 287.172056 
L 332.150129 287.150414 
L 330.328817 287.133551 
L 328.543217 287.128581 
L 326.757617 287.137007 
L 324.972017 287.1556 
L 323.150705 287.17765 
L 321.365105 287.193904 
L 319.579505 287.198602 
L 317.793905 287.189955 
L 315.972593 287.17082 
L 314.186993 287.149219 
L 312.401393 287.133112 
L 310.615793 287.128671 
L 308.794481 287.137894 
L 307.008881 287.156896 
L 305.223281 287.178456 
L 303.437681 287.194343 
L 301.616369 287.198451 
L 299.830769 287.189059 
L 298.045169 287.169953 
L 296.259569 287.148417 
L 294.438257 287.132475 
L 292.652657 287.128839 
L 290.867057 287.138505 
L 289.081457 287.157766 
L 287.260145 287.179645 
L 285.474545 287.194963 
L 283.688945 287.198322 
L 281.903345 287.188442 
L 280.082033 287.168646 
L 278.296433 287.147233 
L 276.510833 287.132075 
L 274.725233 287.128979 
L 272.903921 287.13945 
L 271.118321 287.159076 
L 269.332721 287.180426 
L 267.547121 287.195353 
L 265.725809 287.198088 
L 263.940209 287.187487 
L 262.154609 287.16777 
L 260.369009 287.146455 
L 258.547697 287.131509 
L 256.762097 287.129224 
L 254.976497 287.140085 
L 253.190897 287.159918 
L 251.369585 287.181496 
L 249.583985 287.195721 
L 247.798385 287.197523 
L 246.012785 287.186029 
L 244.191473 287.164786 
L 242.405873 287.141993 
L 240.620273 287.124718 
L 238.834673 287.117229 
L 237.013361 287.118341 
L 235.227761 287.120381 
L 233.442161 287.110672 
L 231.656561 287.073696 
L 229.835249 286.990917 
L 228.049649 286.84888 
L 226.264049 286.628802 
L 224.478449 286.308703 
L 222.657137 285.8472 
L 221.828478 285.55713 
L 220.871537 285.158672 
L 219.085937 284.139824 
L 217.494212 282.89601 
L 217.300337 282.708018 
L 215.479025 280.346152 
L 215.41301 280.23489 
L 214.185825 277.57377 
L 213.693425 276.142833 
L 213.35191 274.91265 
L 212.807635 272.25153 
L 212.418986 269.59041 
L 212.147181 266.92929 
L 211.937114 263.82465 
L 211.907825 263.151256 
L 211.834173 261.16353 
z
" clip-path="url(#p41d166cb45)" style="fill: none; stroke: #2070b4; stroke-width: 1.5"/>
   </g>
   <g id="PathCollection_8">
    <path d="M 218.857414 266.92929 
L 218.376874 263.82465 
L 218.112747 261.16353 
L 217.94156 258.50241 
L 217.832903 255.84129 
L 217.764991 253.18017 
L 217.723053 250.51905 
L 217.697654 247.85793 
L 217.683006 245.19681 
L 217.675466 242.53569 
L 217.672439 239.87457 
L 217.671811 237.21345 
L 217.671869 234.55233 
L 217.671486 231.89121 
L 217.670302 229.23009 
L 217.668673 226.56897 
L 217.667339 223.90785 
L 217.667008 220.80321 
L 217.667914 218.14209 
L 217.669413 215.48097 
L 217.670687 212.81985 
L 217.671042 210.15873 
L 217.670285 207.49761 
L 217.668827 204.83649 
L 217.667456 202.17537 
L 217.666917 199.51425 
L 217.667502 196.85313 
L 217.668893 194.19201 
L 217.670336 191.53089 
L 217.67105 188.86977 
L 217.670647 186.20865 
L 217.669345 183.54753 
L 217.667851 180.88641 
L 217.666974 178.22529 
L 217.667333 175.12065 
L 217.668634 172.45953 
L 217.670128 169.79841 
L 217.671005 167.13729 
L 217.67079 164.47617 
L 217.669599 161.81505 
L 217.668077 159.15393 
L 217.667051 156.49281 
L 217.667075 153.83169 
L 217.668137 151.17057 
L 217.669661 148.50945 
L 217.670822 145.84833 
L 217.670989 143.18721 
L 217.670072 140.52609 
L 217.668569 137.86497 
L 217.667294 135.20385 
L 217.666991 132.09921 
L 217.667907 129.43809 
L 217.66941 126.77697 
L 217.670686 124.11585 
L 217.671041 121.45473 
L 217.670285 118.79361 
L 217.668826 116.13249 
L 217.667456 113.47137 
L 217.666917 110.81025 
L 217.667502 108.14913 
L 217.668893 105.48801 
L 217.670336 102.82689 
L 217.67105 100.16577 
L 217.670648 97.50465 
L 217.669348 94.84353 
L 217.667859 92.18241 
L 217.666992 89.52129 
L 217.66738 86.41665 
L 217.668741 83.75553 
L 217.670366 81.09441 
L 217.671519 78.43329 
L 217.67187 75.77217 
L 217.671814 73.11105 
L 217.672506 70.44993 
L 217.675679 67.78881 
L 217.683463 65.12769 
L 217.69848 62.46657 
L 217.724437 59.80545 
L 217.767233 57.14433 
L 217.836474 54.48321 
L 217.94714 51.82209 
L 218.12122 49.16097 
L 218.389248 46.49985 
L 218.875472 43.39521 
L 219.085937 42.496343 
L 219.630338 40.73409 
L 220.797429 38.07297 
L 220.871537 37.94979 
L 222.657137 35.751043 
L 223.036384 35.41185 
L 224.478449 34.441513 
L 226.264049 33.58672 
L 228.049649 32.996366 
L 229.191675 32.75073 
L 229.835249 32.642805 
L 231.656561 32.465944 
L 233.442161 32.385186 
L 235.227761 32.362499 
L 237.013361 32.365909 
L 238.834673 32.368936 
L 240.620273 32.355011 
L 242.405873 32.320843 
L 244.191473 32.274518 
L 246.012785 32.230234 
L 247.798385 32.205038 
L 249.583985 32.206792 
L 251.369585 32.234433 
L 253.190897 32.278142 
L 254.976497 32.319482 
L 256.762097 32.343345 
L 258.547697 32.340568 
L 260.369009 32.311443 
L 262.154609 32.268231 
L 263.940209 32.227111 
L 265.725809 32.203761 
L 267.547121 32.207417 
L 269.332721 32.236554 
L 271.118321 32.279869 
L 272.903921 32.320829 
L 274.725233 32.343959 
L 276.510833 32.339516 
L 278.296433 32.309889 
L 280.082033 32.266429 
L 281.903345 32.225078 
L 283.688945 32.203168 
L 285.474545 32.208143 
L 287.260145 32.238115 
L 289.081457 32.282567 
L 290.867057 32.322845 
L 292.652657 32.344322 
L 294.438257 32.338767 
L 296.259569 32.30752 
L 298.045169 32.263737 
L 299.830769 32.22376 
L 301.616369 32.202829 
L 303.437681 32.20931 
L 305.223281 32.240497 
L 307.008881 32.284359 
L 308.794481 32.32415 
L 310.615793 32.344782 
L 312.401393 32.337566 
L 314.186993 32.305913 
L 315.972593 32.26195 
L 317.793905 32.221843 
L 319.579505 32.202403 
L 321.365105 32.210139 
L 323.150705 32.242112 
L 324.972017 32.287035 
L 326.757617 32.32605 
L 328.543217 32.345041 
L 330.328817 32.336734 
L 332.150129 32.303513 
L 333.935729 32.259391 
L 335.721329 32.220846 
L 337.506929 32.202699 
L 339.328241 32.212585 
L 341.113841 32.246908 
L 342.899441 32.293528 
L 344.685041 32.336567 
L 346.506353 32.363391 
L 348.291953 32.369122 
L 350.077553 32.363291 
L 351.863153 32.366685 
L 353.684465 32.409971 
L 355.470065 32.525024 
L 357.255665 32.745767 
L 357.280343 32.75073 
L 359.041265 33.205694 
L 360.862577 33.912996 
L 362.648177 34.906876 
L 363.302896 35.41185 
L 364.433777 36.575158 
L 365.498136 38.07297 
L 366.219377 39.473402 
L 366.702568 40.73409 
L 367.421309 43.39521 
L 367.977086 46.49985 
L 368.040689 47.052059 
L 368.226771 49.16097 
L 368.379093 51.82209 
L 368.475777 54.48321 
L 368.536207 57.14433 
L 368.573524 59.80545 
L 368.596125 62.46657 
L 368.609159 65.12769 
L 368.615868 67.78881 
L 368.618562 70.44993 
L 368.619121 73.11105 
L 368.61907 75.77217 
L 368.61941 78.43329 
L 368.620464 81.09441 
L 368.621914 83.75553 
L 368.6231 86.41665 
L 368.623395 89.52129 
L 368.622588 92.18241 
L 368.621255 94.84353 
L 368.620121 97.50465 
L 368.619805 100.16577 
L 368.620479 102.82689 
L 368.621777 105.48801 
L 368.622996 108.14913 
L 368.623475 110.81025 
L 368.622956 113.47137 
L 368.621718 116.13249 
L 368.620434 118.79361 
L 368.619798 121.45473 
L 368.620157 124.11585 
L 368.621315 126.77697 
L 368.622644 129.43809 
L 368.623425 132.09921 
L 368.623106 135.20385 
L 368.621948 137.86497 
L 368.620619 140.52609 
L 368.619838 143.18721 
L 368.62003 145.84833 
L 368.62109 148.50945 
L 368.622443 151.17057 
L 368.623357 153.83169 
L 368.623335 156.49281 
L 368.62239 159.15393 
L 368.621034 161.81505 
L 368.620002 164.47617 
L 368.619853 167.13729 
L 368.620668 169.79841 
L 368.622006 172.45953 
L 368.623141 175.12065 
L 368.62341 178.22529 
L 368.622595 180.88641 
L 368.621257 183.54753 
L 368.620122 186.20865 
L 368.619806 188.86977 
L 368.620479 191.53089 
L 368.621777 194.19201 
L 368.622996 196.85313 
L 368.623475 199.51425 
L 368.622956 202.17537 
L 368.621718 204.83649 
L 368.620433 207.49761 
L 368.619798 210.15873 
L 368.620156 212.81985 
L 368.621312 215.48097 
L 368.622638 218.14209 
L 368.623409 220.80321 
L 368.623064 223.90785 
L 368.621853 226.56897 
L 368.620407 229.23009 
L 368.619381 231.89121 
L 368.619069 234.55233 
L 368.619118 237.21345 
L 368.618503 239.87457 
L 368.615679 242.53569 
L 368.608753 245.19681 
L 368.59539 247.85793 
L 368.572294 250.51905 
L 368.534213 253.18017 
L 368.4726 255.84129 
L 368.374126 258.50241 
L 368.219221 261.16353 
L 368.040689 263.157299 
L 367.962743 263.82465 
L 367.400441 266.92929 
L 366.675822 269.59041 
L 366.219377 270.775636 
L 365.457211 272.25153 
L 364.433777 273.692169 
L 363.250931 274.91265 
L 362.648177 275.379941 
L 360.862577 276.381619 
L 359.041265 277.096874 
L 357.255665 277.565331 
L 357.203523 277.57377 
L 355.470065 277.792695 
L 353.684465 277.911398 
L 351.863153 277.957051 
L 350.077553 277.961429 
L 348.291953 277.955494 
L 346.506353 277.960476 
L 344.685041 277.986422 
L 342.899441 278.028974 
L 341.113841 278.075759 
L 339.328241 278.110891 
L 337.506929 278.121977 
L 335.721329 278.104923 
L 333.935729 278.066974 
L 332.150129 278.022729 
L 330.328817 277.988701 
L 328.543217 277.979245 
L 326.757617 277.997165 
L 324.972017 278.035596 
L 323.150705 278.080656 
L 321.365105 278.113436 
L 319.579505 278.122338 
L 317.793905 278.10397 
L 315.972593 278.064433 
L 314.186993 278.0203 
L 312.401393 277.987828 
L 310.615793 277.979456 
L 308.794481 277.999014 
L 307.008881 278.038258 
L 305.223281 278.082291 
L 303.437681 278.114308 
L 301.616369 278.121984 
L 299.830769 278.102105 
L 298.045169 278.062653 
L 296.259569 278.018672 
L 294.438257 277.986563 
L 292.652657 277.979846 
L 290.867057 278.000285 
L 289.081457 278.040043 
L 287.260145 278.084707 
L 285.474545 278.115539 
L 283.688945 278.121692 
L 281.903345 278.10082 
L 280.082033 278.05997 
L 278.296433 278.016268 
L 276.510833 277.985771 
L 274.725233 277.980162 
L 272.903921 278.002251 
L 271.118321 278.042731 
L 269.332721 278.086291 
L 267.547121 278.116309 
L 265.725809 278.12117 
L 263.940209 278.098835 
L 262.154609 278.058172 
L 260.369009 278.01469 
L 258.547697 277.984654 
L 256.762097 277.980706 
L 254.976497 278.003569 
L 253.190897 278.044457 
L 251.369585 278.088455 
L 249.583985 278.117014 
L 247.798385 278.119965 
L 246.012785 278.095796 
L 244.191473 278.051994 
L 242.405873 278.00545 
L 240.620273 277.970537 
L 238.834673 277.955743 
L 237.013361 277.958305 
L 235.227761 277.962178 
L 233.442161 277.941202 
L 231.656561 277.863503 
L 229.835249 277.69103 
L 229.123256 277.57377 
L 228.049649 277.346817 
L 226.264049 276.764027 
L 224.478449 275.917147 
L 222.976715 274.91265 
L 222.657137 274.627987 
L 220.871537 272.433049 
L 220.762445 272.25153 
L 219.600069 269.59041 
L 219.085937 267.913953 
L 218.857414 266.92929 
z
" clip-path="url(#p41d166cb45)" style="fill: none; stroke: #08509b; stroke-width: 1.5"/>
   </g>
   <g id="PathCollection_9"/>
   <g id="patch_3">
    <path d="M 34.240625 288.21825 
L 34.240625 22.10625 
" style="fill: none; stroke: #000000; stroke-width: 0.8; stroke-linejoin: miter; stroke-linecap: square"/>
   </g>
   <g id="patch_4">
    <path d="M 391.360625 288.21825 
L 391.360625 22.10625 
" style="fill: none; stroke: #000000; stroke-width: 0.8; stroke-linejoin: miter; stroke-linecap: square"/>
   </g>
   <g id="patch_5">
    <path d="M 34.240625 288.21825 
L 391.360625 288.21825 
" style="fill: none; stroke: #000000; stroke-width: 0.8; stroke-linejoin: miter; stroke-linecap: square"/>
   </g>
   <g id="patch_6">
    <path d="M 34.240625 22.10625 
L 391.360625 22.10625 
" style="fill: none; stroke: #000000; stroke-width: 0.8; stroke-linejoin: miter; stroke-linecap: square"/>
   </g>
   <g id="text_16">
    <!-- 8.2_cross_-43.0 -->
    <g transform="translate(166.181563 16.10625)scale(0.12 -0.12)">
     <defs>
      <path id="DejaVuSans-2e" d="M 684 794 
L 1344 794 
L 1344 0 
L 684 0 
L 684 794 
z
" transform="scale(0.015625)"/>
      <path id="DejaVuSans-5f" d="M 3263 -1063 
L 3263 -1509 
L -63 -1509 
L -63 -1063 
L 3263 -1063 
z
" transform="scale(0.015625)"/>
      <path id="DejaVuSans-63" d="M 3122 3366 
L 3122 2828 
Q 2878 2963 2633 3030 
Q 2388 3097 2138 3097 
Q 1578 3097 1268 2742 
Q 959 2388 959 1747 
Q 959 1106 1268 751 
Q 1578 397 2138 397 
Q 2388 397 2633 464 
Q 2878 531 3122 666 
L 3122 134 
Q 2881 22 2623 -34 
Q 2366 -91 2075 -91 
Q 1284 -91 818 406 
Q 353 903 353 1747 
Q 353 2603 823 3093 
Q 1294 3584 2113 3584 
Q 2378 3584 2631 3529 
Q 2884 3475 3122 3366 
z
" transform="scale(0.015625)"/>
      <path id="DejaVuSans-72" d="M 2631 2963 
Q 2534 3019 2420 3045 
Q 2306 3072 2169 3072 
Q 1681 3072 1420 2755 
Q 1159 2438 1159 1844 
L 1159 0 
L 581 0 
L 581 3500 
L 1159 3500 
L 1159 2956 
Q 1341 3275 1631 3429 
Q 1922 3584 2338 3584 
Q 2397 3584 2469 3576 
Q 2541 3569 2628 3553 
L 2631 2963 
z
" transform="scale(0.015625)"/>
      <path id="DejaVuSans-73" d="M 2834 3397 
L 2834 2853 
Q 2591 2978 2328 3040 
Q 2066 3103 1784 3103 
Q 1356 3103 1142 2972 
Q 928 2841 928 2578 
Q 928 2378 1081 2264 
Q 1234 2150 1697 2047 
L 1894 2003 
Q 2506 1872 2764 1633 
Q 3022 1394 3022 966 
Q 3022 478 2636 193 
Q 2250 -91 1575 -91 
Q 1294 -91 989 -36 
Q 684 19 347 128 
L 347 722 
Q 666 556 975 473 
Q 1284 391 1588 391 
Q 1994 391 2212 530 
Q 2431 669 2431 922 
Q 2431 1156 2273 1281 
Q 2116 1406 1581 1522 
L 1381 1569 
Q 847 1681 609 1914 
Q 372 2147 372 2553 
Q 372 3047 722 3315 
Q 1072 3584 1716 3584 
Q 2034 3584 2315 3537 
Q 2597 3491 2834 3397 
z
" transform="scale(0.015625)"/>
      <path id="DejaVuSans-2d" d="M 313 2009 
L 1997 2009 
L 1997 1497 
L 313 1497 
L 313 2009 
z
" transform="scale(0.015625)"/>
     </defs>
     <use xlink:href="#DejaVuSans-38"/>
     <use xlink:href="#DejaVuSans-2e" x="63.623047"/>
     <use xlink:href="#DejaVuSans-32" x="95.410156"/>
     <use xlink:href="#DejaVuSans-5f" x="159.033203"/>
     <use xlink:href="#DejaVuSans-63" x="209.033203"/>
     <use xlink:href="#DejaVuSans-72" x="264.013672"/>
     <use xlink:href="#DejaVuSans-6f" x="302.876953"/>
     <use xlink:href="#DejaVuSans-73" x="364.058594"/>
     <use xlink:href="#DejaVuSans-73" x="416.158203"/>
     <use xlink:href="#DejaVuSans-5f" x="468.257812"/>
     <use xlink:href="#DejaVuSans-2d" x="518.257812"/>
     <use xlink:href="#DejaVuSans-34" x="554.341797"/>
     <use xlink:href="#DejaVuSans-33" x="617.964844"/>
     <use xlink:href="#DejaVuSans-2e" x="681.587891"/>
     <use xlink:href="#DejaVuSans-30" x="713.375"/>
    </g>
   </g>
  </g>
 </g>
 <defs>
  <clipPath id="p41d166cb45">
   <rect x="34.240625" y="22.10625" width="357.12" height="266.112"/>
  </clipPath>
 </defs>
</svg>
