<?xml version="1.0" encoding="utf-8" standalone="no"?>
<!DOCTYPE svg PUBLIC "-//W3C//DTD SVG 1.1//EN"
  "http://www.w3.org/Graphics/SVG/1.1/DTD/svg11.dtd">
<svg xmlns:xlink="http://www.w3.org/1999/xlink" width="408.104375pt" height="325.7745pt" viewBox="0 0 408.104375 325.7745" xmlns="http://www.w3.org/2000/svg" version="1.1">
 <metadata>
  <rdf:RDF xmlns:dc="http://purl.org/dc/elements/1.1/" xmlns:cc="http://creativecommons.org/ns#" xmlns:rdf="http://www.w3.org/1999/02/22-rdf-syntax-ns#">
   <cc:Work>
    <dc:type rdf:resource="http://purl.org/dc/dcmitype/StillImage"/>
    <dc:date>2024-07-12T12:14:55.922273</dc:date>
    <dc:format>image/svg+xml</dc:format>
    <dc:creator>
     <cc:Agent>
      <dc:title>Matplotlib v3.5.3, https://matplotlib.org/</dc:title>
     </cc:Agent>
    </dc:creator>
   </cc:Work>
  </rdf:RDF>
 </metadata>
 <defs>
  <style type="text/css">*{stroke-linejoin: round; stroke-linecap: butt}</style>
 </defs>
 <g id="figure_1">
  <g id="patch_1">
   <path d="M 0 325.7745 
L 408.104375 325.7745 
L 408.104375 0 
L 0 0 
z
" style="fill: #ffffff"/>
  </g>
  <g id="axes_1">
   <g id="patch_2">
    <path d="M 34.240625 288.21825 
L 391.360625 288.21825 
L 391.360625 22.10625 
L 34.240625 22.10625 
z
" style="fill: #ffffff"/>
   </g>
   <g id="matplotlib.axis_1">
    <g id="xtick_1">
     <g id="line2d_1">
      <defs>
       <path id="m14a4f72e4e" d="M 0 0 
L 0 3.5 
" style="stroke: #000000; stroke-width: 0.8"/>
      </defs>
      <g>
       <use xlink:href="#m14a4f72e4e" x="34.240625" y="288.21825" style="stroke: #000000; stroke-width: 0.8"/>
      </g>
     </g>
     <g id="text_1">
      <!-- 0 -->
      <g transform="translate(31.059375 302.816687)scale(0.1 -0.1)">
       <defs>
        <path id="DejaVuSans-30" d="M 2034 4250 
Q 1547 4250 1301 3770 
Q 1056 3291 1056 2328 
Q 1056 1369 1301 889 
Q 1547 409 2034 409 
Q 2525 409 2770 889 
Q 3016 1369 3016 2328 
Q 3016 3291 2770 3770 
Q 2525 4250 2034 4250 
z
M 2034 4750 
Q 2819 4750 3233 4129 
Q 3647 3509 3647 2328 
Q 3647 1150 3233 529 
Q 2819 -91 2034 -91 
Q 1250 -91 836 529 
Q 422 1150 422 2328 
Q 422 3509 836 4129 
Q 1250 4750 2034 4750 
z
" transform="scale(0.015625)"/>
       </defs>
       <use xlink:href="#DejaVuSans-30"/>
      </g>
     </g>
    </g>
    <g id="xtick_2">
     <g id="line2d_2">
      <g>
       <use xlink:href="#m14a4f72e4e" x="105.664625" y="288.21825" style="stroke: #000000; stroke-width: 0.8"/>
      </g>
     </g>
     <g id="text_2">
      <!-- 20 -->
      <g transform="translate(99.302125 302.816687)scale(0.1 -0.1)">
       <defs>
        <path id="DejaVuSans-32" d="M 1228 531 
L 3431 531 
L 3431 0 
L 469 0 
L 469 531 
Q 828 903 1448 1529 
Q 2069 2156 2228 2338 
Q 2531 2678 2651 2914 
Q 2772 3150 2772 3378 
Q 2772 3750 2511 3984 
Q 2250 4219 1831 4219 
Q 1534 4219 1204 4116 
Q 875 4013 500 3803 
L 500 4441 
Q 881 4594 1212 4672 
Q 1544 4750 1819 4750 
Q 2544 4750 2975 4387 
Q 3406 4025 3406 3419 
Q 3406 3131 3298 2873 
Q 3191 2616 2906 2266 
Q 2828 2175 2409 1742 
Q 1991 1309 1228 531 
z
" transform="scale(0.015625)"/>
       </defs>
       <use xlink:href="#DejaVuSans-32"/>
       <use xlink:href="#DejaVuSans-30" x="63.623047"/>
      </g>
     </g>
    </g>
    <g id="xtick_3">
     <g id="line2d_3">
      <g>
       <use xlink:href="#m14a4f72e4e" x="177.088625" y="288.21825" style="stroke: #000000; stroke-width: 0.8"/>
      </g>
     </g>
     <g id="text_3">
      <!-- 40 -->
      <g transform="translate(170.726125 302.816687)scale(0.1 -0.1)">
       <defs>
        <path id="DejaVuSans-34" d="M 2419 4116 
L 825 1625 
L 2419 1625 
L 2419 4116 
z
M 2253 4666 
L 3047 4666 
L 3047 1625 
L 3713 1625 
L 3713 1100 
L 3047 1100 
L 3047 0 
L 2419 0 
L 2419 1100 
L 313 1100 
L 313 1709 
L 2253 4666 
z
" transform="scale(0.015625)"/>
       </defs>
       <use xlink:href="#DejaVuSans-34"/>
       <use xlink:href="#DejaVuSans-30" x="63.623047"/>
      </g>
     </g>
    </g>
    <g id="xtick_4">
     <g id="line2d_4">
      <g>
       <use xlink:href="#m14a4f72e4e" x="248.512625" y="288.21825" style="stroke: #000000; stroke-width: 0.8"/>
      </g>
     </g>
     <g id="text_4">
      <!-- 60 -->
      <g transform="translate(242.150125 302.816687)scale(0.1 -0.1)">
       <defs>
        <path id="DejaVuSans-36" d="M 2113 2584 
Q 1688 2584 1439 2293 
Q 1191 2003 1191 1497 
Q 1191 994 1439 701 
Q 1688 409 2113 409 
Q 2538 409 2786 701 
Q 3034 994 3034 1497 
Q 3034 2003 2786 2293 
Q 2538 2584 2113 2584 
z
M 3366 4563 
L 3366 3988 
Q 3128 4100 2886 4159 
Q 2644 4219 2406 4219 
Q 1781 4219 1451 3797 
Q 1122 3375 1075 2522 
Q 1259 2794 1537 2939 
Q 1816 3084 2150 3084 
Q 2853 3084 3261 2657 
Q 3669 2231 3669 1497 
Q 3669 778 3244 343 
Q 2819 -91 2113 -91 
Q 1303 -91 875 529 
Q 447 1150 447 2328 
Q 447 3434 972 4092 
Q 1497 4750 2381 4750 
Q 2619 4750 2861 4703 
Q 3103 4656 3366 4563 
z
" transform="scale(0.015625)"/>
       </defs>
       <use xlink:href="#DejaVuSans-36"/>
       <use xlink:href="#DejaVuSans-30" x="63.623047"/>
      </g>
     </g>
    </g>
    <g id="xtick_5">
     <g id="line2d_5">
      <g>
       <use xlink:href="#m14a4f72e4e" x="319.936625" y="288.21825" style="stroke: #000000; stroke-width: 0.8"/>
      </g>
     </g>
     <g id="text_5">
      <!-- 80 -->
      <g transform="translate(313.574125 302.816687)scale(0.1 -0.1)">
       <defs>
        <path id="DejaVuSans-38" d="M 2034 2216 
Q 1584 2216 1326 1975 
Q 1069 1734 1069 1313 
Q 1069 891 1326 650 
Q 1584 409 2034 409 
Q 2484 409 2743 651 
Q 3003 894 3003 1313 
Q 3003 1734 2745 1975 
Q 2488 2216 2034 2216 
z
M 1403 2484 
Q 997 2584 770 2862 
Q 544 3141 544 3541 
Q 544 4100 942 4425 
Q 1341 4750 2034 4750 
Q 2731 4750 3128 4425 
Q 3525 4100 3525 3541 
Q 3525 3141 3298 2862 
Q 3072 2584 2669 2484 
Q 3125 2378 3379 2068 
Q 3634 1759 3634 1313 
Q 3634 634 3220 271 
Q 2806 -91 2034 -91 
Q 1263 -91 848 271 
Q 434 634 434 1313 
Q 434 1759 690 2068 
Q 947 2378 1403 2484 
z
M 1172 3481 
Q 1172 3119 1398 2916 
Q 1625 2713 2034 2713 
Q 2441 2713 2670 2916 
Q 2900 3119 2900 3481 
Q 2900 3844 2670 4047 
Q 2441 4250 2034 4250 
Q 1625 4250 1398 4047 
Q 1172 3844 1172 3481 
z
" transform="scale(0.015625)"/>
       </defs>
       <use xlink:href="#DejaVuSans-38"/>
       <use xlink:href="#DejaVuSans-30" x="63.623047"/>
      </g>
     </g>
    </g>
    <g id="xtick_6">
     <g id="line2d_6">
      <g>
       <use xlink:href="#m14a4f72e4e" x="391.360625" y="288.21825" style="stroke: #000000; stroke-width: 0.8"/>
      </g>
     </g>
     <g id="text_6">
      <!-- 100 -->
      <g transform="translate(381.816875 302.816687)scale(0.1 -0.1)">
       <defs>
        <path id="DejaVuSans-31" d="M 794 531 
L 1825 531 
L 1825 4091 
L 703 3866 
L 703 4441 
L 1819 4666 
L 2450 4666 
L 2450 531 
L 3481 531 
L 3481 0 
L 794 0 
L 794 531 
z
" transform="scale(0.015625)"/>
       </defs>
       <use xlink:href="#DejaVuSans-31"/>
       <use xlink:href="#DejaVuSans-30" x="63.623047"/>
       <use xlink:href="#DejaVuSans-30" x="127.246094"/>
      </g>
     </g>
    </g>
    <g id="text_7">
     <!-- axialRotation -->
     <g transform="translate(180.024844 316.494812)scale(0.1 -0.1)">
      <defs>
       <path id="DejaVuSans-61" d="M 2194 1759 
Q 1497 1759 1228 1600 
Q 959 1441 959 1056 
Q 959 750 1161 570 
Q 1363 391 1709 391 
Q 2188 391 2477 730 
Q 2766 1069 2766 1631 
L 2766 1759 
L 2194 1759 
z
M 3341 1997 
L 3341 0 
L 2766 0 
L 2766 531 
Q 2569 213 2275 61 
Q 1981 -91 1556 -91 
Q 1019 -91 701 211 
Q 384 513 384 1019 
Q 384 1609 779 1909 
Q 1175 2209 1959 2209 
L 2766 2209 
L 2766 2266 
Q 2766 2663 2505 2880 
Q 2244 3097 1772 3097 
Q 1472 3097 1187 3025 
Q 903 2953 641 2809 
L 641 3341 
Q 956 3463 1253 3523 
Q 1550 3584 1831 3584 
Q 2591 3584 2966 3190 
Q 3341 2797 3341 1997 
z
" transform="scale(0.015625)"/>
       <path id="DejaVuSans-78" d="M 3513 3500 
L 2247 1797 
L 3578 0 
L 2900 0 
L 1881 1375 
L 863 0 
L 184 0 
L 1544 1831 
L 300 3500 
L 978 3500 
L 1906 2253 
L 2834 3500 
L 3513 3500 
z
" transform="scale(0.015625)"/>
       <path id="DejaVuSans-69" d="M 603 3500 
L 1178 3500 
L 1178 0 
L 603 0 
L 603 3500 
z
M 603 4863 
L 1178 4863 
L 1178 4134 
L 603 4134 
L 603 4863 
z
" transform="scale(0.015625)"/>
       <path id="DejaVuSans-6c" d="M 603 4863 
L 1178 4863 
L 1178 0 
L 603 0 
L 603 4863 
z
" transform="scale(0.015625)"/>
       <path id="DejaVuSans-52" d="M 2841 2188 
Q 3044 2119 3236 1894 
Q 3428 1669 3622 1275 
L 4263 0 
L 3584 0 
L 2988 1197 
Q 2756 1666 2539 1819 
Q 2322 1972 1947 1972 
L 1259 1972 
L 1259 0 
L 628 0 
L 628 4666 
L 2053 4666 
Q 2853 4666 3247 4331 
Q 3641 3997 3641 3322 
Q 3641 2881 3436 2590 
Q 3231 2300 2841 2188 
z
M 1259 4147 
L 1259 2491 
L 2053 2491 
Q 2509 2491 2742 2702 
Q 2975 2913 2975 3322 
Q 2975 3731 2742 3939 
Q 2509 4147 2053 4147 
L 1259 4147 
z
" transform="scale(0.015625)"/>
       <path id="DejaVuSans-6f" d="M 1959 3097 
Q 1497 3097 1228 2736 
Q 959 2375 959 1747 
Q 959 1119 1226 758 
Q 1494 397 1959 397 
Q 2419 397 2687 759 
Q 2956 1122 2956 1747 
Q 2956 2369 2687 2733 
Q 2419 3097 1959 3097 
z
M 1959 3584 
Q 2709 3584 3137 3096 
Q 3566 2609 3566 1747 
Q 3566 888 3137 398 
Q 2709 -91 1959 -91 
Q 1206 -91 779 398 
Q 353 888 353 1747 
Q 353 2609 779 3096 
Q 1206 3584 1959 3584 
z
" transform="scale(0.015625)"/>
       <path id="DejaVuSans-74" d="M 1172 4494 
L 1172 3500 
L 2356 3500 
L 2356 3053 
L 1172 3053 
L 1172 1153 
Q 1172 725 1289 603 
Q 1406 481 1766 481 
L 2356 481 
L 2356 0 
L 1766 0 
Q 1100 0 847 248 
Q 594 497 594 1153 
L 594 3053 
L 172 3053 
L 172 3500 
L 594 3500 
L 594 4494 
L 1172 4494 
z
" transform="scale(0.015625)"/>
       <path id="DejaVuSans-6e" d="M 3513 2113 
L 3513 0 
L 2938 0 
L 2938 2094 
Q 2938 2591 2744 2837 
Q 2550 3084 2163 3084 
Q 1697 3084 1428 2787 
Q 1159 2491 1159 1978 
L 1159 0 
L 581 0 
L 581 3500 
L 1159 3500 
L 1159 2956 
Q 1366 3272 1645 3428 
Q 1925 3584 2291 3584 
Q 2894 3584 3203 3211 
Q 3513 2838 3513 2113 
z
" transform="scale(0.015625)"/>
      </defs>
      <use xlink:href="#DejaVuSans-61"/>
      <use xlink:href="#DejaVuSans-78" x="61.279297"/>
      <use xlink:href="#DejaVuSans-69" x="120.458984"/>
      <use xlink:href="#DejaVuSans-61" x="148.242188"/>
      <use xlink:href="#DejaVuSans-6c" x="209.521484"/>
      <use xlink:href="#DejaVuSans-52" x="237.304688"/>
      <use xlink:href="#DejaVuSans-6f" x="302.287109"/>
      <use xlink:href="#DejaVuSans-74" x="363.46875"/>
      <use xlink:href="#DejaVuSans-61" x="402.677734"/>
      <use xlink:href="#DejaVuSans-74" x="463.957031"/>
      <use xlink:href="#DejaVuSans-69" x="503.166016"/>
      <use xlink:href="#DejaVuSans-6f" x="530.949219"/>
      <use xlink:href="#DejaVuSans-6e" x="592.130859"/>
     </g>
    </g>
   </g>
   <g id="matplotlib.axis_2">
    <g id="ytick_1">
     <g id="line2d_7">
      <defs>
       <path id="m80e4d55714" d="M 0 0 
L -3.5 0 
" style="stroke: #000000; stroke-width: 0.8"/>
      </defs>
      <g>
       <use xlink:href="#m80e4d55714" x="34.240625" y="288.21825" style="stroke: #000000; stroke-width: 0.8"/>
      </g>
     </g>
     <g id="text_8">
      <!-- 0 -->
      <g transform="translate(20.878125 292.017469)scale(0.1 -0.1)">
       <use xlink:href="#DejaVuSans-30"/>
      </g>
     </g>
    </g>
    <g id="ytick_2">
     <g id="line2d_8">
      <g>
       <use xlink:href="#m80e4d55714" x="34.240625" y="243.86625" style="stroke: #000000; stroke-width: 0.8"/>
      </g>
     </g>
     <g id="text_9">
      <!-- 1 -->
      <g transform="translate(20.878125 247.665469)scale(0.1 -0.1)">
       <use xlink:href="#DejaVuSans-31"/>
      </g>
     </g>
    </g>
    <g id="ytick_3">
     <g id="line2d_9">
      <g>
       <use xlink:href="#m80e4d55714" x="34.240625" y="199.51425" style="stroke: #000000; stroke-width: 0.8"/>
      </g>
     </g>
     <g id="text_10">
      <!-- 2 -->
      <g transform="translate(20.878125 203.313469)scale(0.1 -0.1)">
       <use xlink:href="#DejaVuSans-32"/>
      </g>
     </g>
    </g>
    <g id="ytick_4">
     <g id="line2d_10">
      <g>
       <use xlink:href="#m80e4d55714" x="34.240625" y="155.16225" style="stroke: #000000; stroke-width: 0.8"/>
      </g>
     </g>
     <g id="text_11">
      <!-- 3 -->
      <g transform="translate(20.878125 158.961469)scale(0.1 -0.1)">
       <defs>
        <path id="DejaVuSans-33" d="M 2597 2516 
Q 3050 2419 3304 2112 
Q 3559 1806 3559 1356 
Q 3559 666 3084 287 
Q 2609 -91 1734 -91 
Q 1441 -91 1130 -33 
Q 819 25 488 141 
L 488 750 
Q 750 597 1062 519 
Q 1375 441 1716 441 
Q 2309 441 2620 675 
Q 2931 909 2931 1356 
Q 2931 1769 2642 2001 
Q 2353 2234 1838 2234 
L 1294 2234 
L 1294 2753 
L 1863 2753 
Q 2328 2753 2575 2939 
Q 2822 3125 2822 3475 
Q 2822 3834 2567 4026 
Q 2313 4219 1838 4219 
Q 1578 4219 1281 4162 
Q 984 4106 628 3988 
L 628 4550 
Q 988 4650 1302 4700 
Q 1616 4750 1894 4750 
Q 2613 4750 3031 4423 
Q 3450 4097 3450 3541 
Q 3450 3153 3228 2886 
Q 3006 2619 2597 2516 
z
" transform="scale(0.015625)"/>
       </defs>
       <use xlink:href="#DejaVuSans-33"/>
      </g>
     </g>
    </g>
    <g id="ytick_5">
     <g id="line2d_11">
      <g>
       <use xlink:href="#m80e4d55714" x="34.240625" y="110.81025" style="stroke: #000000; stroke-width: 0.8"/>
      </g>
     </g>
     <g id="text_12">
      <!-- 4 -->
      <g transform="translate(20.878125 114.609469)scale(0.1 -0.1)">
       <use xlink:href="#DejaVuSans-34"/>
      </g>
     </g>
    </g>
    <g id="ytick_6">
     <g id="line2d_12">
      <g>
       <use xlink:href="#m80e4d55714" x="34.240625" y="66.45825" style="stroke: #000000; stroke-width: 0.8"/>
      </g>
     </g>
     <g id="text_13">
      <!-- 5 -->
      <g transform="translate(20.878125 70.257469)scale(0.1 -0.1)">
       <defs>
        <path id="DejaVuSans-35" d="M 691 4666 
L 3169 4666 
L 3169 4134 
L 1269 4134 
L 1269 2991 
Q 1406 3038 1543 3061 
Q 1681 3084 1819 3084 
Q 2600 3084 3056 2656 
Q 3513 2228 3513 1497 
Q 3513 744 3044 326 
Q 2575 -91 1722 -91 
Q 1428 -91 1123 -41 
Q 819 9 494 109 
L 494 744 
Q 775 591 1075 516 
Q 1375 441 1709 441 
Q 2250 441 2565 725 
Q 2881 1009 2881 1497 
Q 2881 1984 2565 2268 
Q 2250 2553 1709 2553 
Q 1456 2553 1204 2497 
Q 953 2441 691 2322 
L 691 4666 
z
" transform="scale(0.015625)"/>
       </defs>
       <use xlink:href="#DejaVuSans-35"/>
      </g>
     </g>
    </g>
    <g id="ytick_7">
     <g id="line2d_13">
      <g>
       <use xlink:href="#m80e4d55714" x="34.240625" y="22.10625" style="stroke: #000000; stroke-width: 0.8"/>
      </g>
     </g>
     <g id="text_14">
      <!-- 6 -->
      <g transform="translate(20.878125 25.905469)scale(0.1 -0.1)">
       <use xlink:href="#DejaVuSans-36"/>
      </g>
     </g>
    </g>
    <g id="text_15">
     <!-- zShift -->
     <g transform="translate(14.798438 169.151312)rotate(-90)scale(0.1 -0.1)">
      <defs>
       <path id="DejaVuSans-7a" d="M 353 3500 
L 3084 3500 
L 3084 2975 
L 922 459 
L 3084 459 
L 3084 0 
L 275 0 
L 275 525 
L 2438 3041 
L 353 3041 
L 353 3500 
z
" transform="scale(0.015625)"/>
       <path id="DejaVuSans-53" d="M 3425 4513 
L 3425 3897 
Q 3066 4069 2747 4153 
Q 2428 4238 2131 4238 
Q 1616 4238 1336 4038 
Q 1056 3838 1056 3469 
Q 1056 3159 1242 3001 
Q 1428 2844 1947 2747 
L 2328 2669 
Q 3034 2534 3370 2195 
Q 3706 1856 3706 1288 
Q 3706 609 3251 259 
Q 2797 -91 1919 -91 
Q 1588 -91 1214 -16 
Q 841 59 441 206 
L 441 856 
Q 825 641 1194 531 
Q 1563 422 1919 422 
Q 2459 422 2753 634 
Q 3047 847 3047 1241 
Q 3047 1584 2836 1778 
Q 2625 1972 2144 2069 
L 1759 2144 
Q 1053 2284 737 2584 
Q 422 2884 422 3419 
Q 422 4038 858 4394 
Q 1294 4750 2059 4750 
Q 2388 4750 2728 4690 
Q 3069 4631 3425 4513 
z
" transform="scale(0.015625)"/>
       <path id="DejaVuSans-68" d="M 3513 2113 
L 3513 0 
L 2938 0 
L 2938 2094 
Q 2938 2591 2744 2837 
Q 2550 3084 2163 3084 
Q 1697 3084 1428 2787 
Q 1159 2491 1159 1978 
L 1159 0 
L 581 0 
L 581 4863 
L 1159 4863 
L 1159 2956 
Q 1366 3272 1645 3428 
Q 1925 3584 2291 3584 
Q 2894 3584 3203 3211 
Q 3513 2838 3513 2113 
z
" transform="scale(0.015625)"/>
       <path id="DejaVuSans-66" d="M 2375 4863 
L 2375 4384 
L 1825 4384 
Q 1516 4384 1395 4259 
Q 1275 4134 1275 3809 
L 1275 3500 
L 2222 3500 
L 2222 3053 
L 1275 3053 
L 1275 0 
L 697 0 
L 697 3053 
L 147 3053 
L 147 3500 
L 697 3500 
L 697 3744 
Q 697 4328 969 4595 
Q 1241 4863 1831 4863 
L 2375 4863 
z
" transform="scale(0.015625)"/>
      </defs>
      <use xlink:href="#DejaVuSans-7a"/>
      <use xlink:href="#DejaVuSans-53" x="52.490234"/>
      <use xlink:href="#DejaVuSans-68" x="115.966797"/>
      <use xlink:href="#DejaVuSans-69" x="179.345703"/>
      <use xlink:href="#DejaVuSans-66" x="207.128906"/>
      <use xlink:href="#DejaVuSans-74" x="240.583984"/>
     </g>
    </g>
   </g>
   <g id="PathCollection_1"/>
   <g id="PathCollection_2">
    <path d="M 195.637706 288.21825 
L 195.22695 285.55713 
L 194.911903 282.89601 
L 194.671732 280.23489 
L 194.490248 277.57377 
L 194.354683 274.91265 
L 194.254852 272.25153 
L 194.182572 269.59041 
L 194.131257 266.92929 
L 194.090896 263.82465 
L 194.068296 261.16353 
L 194.053397 258.50241 
L 194.043791 255.84129 
L 194.037714 253.18017 
L 194.03393 250.51905 
L 194.031617 247.85793 
L 194.030252 245.19681 
L 194.029503 242.53569 
L 194.029146 239.87457 
L 194.029014 237.21345 
L 194.028976 234.55233 
L 194.028945 231.89121 
L 194.028878 229.23009 
L 194.028782 226.56897 
L 194.028694 223.90785 
L 194.028654 220.80321 
L 194.028691 218.14209 
L 194.028772 215.48097 
L 194.028854 212.81985 
L 194.02889 210.15873 
L 194.028863 207.49761 
L 194.028785 204.83649 
L 194.028701 202.17537 
L 194.028654 199.51425 
L 194.028671 196.85313 
L 194.028742 194.19201 
L 194.028829 191.53089 
L 194.028885 188.86977 
L 194.028879 186.20865 
L 194.028814 183.54753 
L 194.028727 180.88641 
L 194.028663 178.22529 
L 194.028664 175.12065 
L 194.028728 172.45953 
L 194.028816 169.79841 
L 194.028879 167.13729 
L 194.028884 164.47617 
L 194.028828 161.81505 
L 194.028741 159.15393 
L 194.02867 156.49281 
L 194.028654 153.83169 
L 194.028702 151.17057 
L 194.028787 148.50945 
L 194.028864 145.84833 
L 194.02889 143.18721 
L 194.028852 140.52609 
L 194.02877 137.86497 
L 194.028689 135.20385 
L 194.028652 132.09921 
L 194.02869 129.43809 
L 194.028772 126.77697 
L 194.028853 124.11585 
L 194.02889 121.45473 
L 194.028863 118.79361 
L 194.028785 116.13249 
L 194.028701 113.47137 
L 194.028654 110.81025 
L 194.028671 108.14913 
L 194.028742 105.48801 
L 194.028829 102.82689 
L 194.028885 100.16577 
L 194.028879 97.50465 
L 194.028815 94.84353 
L 194.028727 92.18241 
L 194.028664 89.52129 
L 194.028667 86.41665 
L 194.028736 83.75553 
L 194.028834 81.09441 
L 194.028918 78.43329 
L 194.028964 75.77217 
L 194.02899 73.11105 
L 194.029063 70.44993 
L 194.029293 67.78881 
L 194.029829 65.12769 
L 194.030864 62.46657 
L 194.032669 59.80545 
L 194.035663 57.14433 
L 194.04051 54.48321 
L 194.048233 51.82209 
L 194.060331 49.16097 
L 194.078894 46.49985 
L 194.112497 43.39521 
L 194.155777 40.73409 
L 194.217437 38.07297 
L 194.303495 35.41185 
L 194.421468 32.75073 
L 194.580746 30.08961 
L 194.79312 27.42849 
L 195.073526 24.76737 
L 195.441137 22.10625 
" clip-path="url(#p797c13c88a)" style="fill: none; stroke: #deebf7; stroke-width: 1.5"/>
    <path d="M 391.360625 283.886843 
L 391.20078 285.55713 
L 390.872769 288.21825 
" clip-path="url(#p797c13c88a)" style="fill: none; stroke: #deebf7; stroke-width: 1.5"/>
    <path d="M 391.360625 62.207326 
L 391.339095 62.46657 
L 391.058382 65.12769 
L 390.691417 67.78881 
L 390.214326 70.44993 
L 389.595565 73.11105 
L 389.575025 73.186826 
L 388.924415 75.77217 
L 388.059356 78.43329 
L 387.753713 79.234138 
L 387.051947 81.09441 
L 385.968113 83.453385 
L 385.825399 83.75553 
L 384.422762 86.41665 
L 384.182513 86.839018 
L 382.552487 89.52129 
L 382.396913 89.770799 
L 380.87952 92.18241 
L 380.575601 92.67851 
L 379.317244 94.84353 
L 378.790001 95.842352 
L 378.015107 97.50465 
L 377.004401 100.0701 
L 376.972915 100.16577 
L 376.308188 102.82689 
L 375.838346 105.48801 
L 375.558501 108.14913 
L 375.463111 110.81025 
L 375.549084 113.47137 
L 375.816815 116.13249 
L 376.268982 118.79361 
L 376.907465 121.45473 
L 377.004401 121.761862 
L 377.88934 124.11585 
L 378.790001 126.153093 
L 379.10235 126.77697 
L 380.565158 129.43809 
L 380.575601 129.455665 
L 382.184899 132.09921 
L 382.396913 132.445937 
L 384.010018 135.20385 
L 384.182513 135.516456 
L 385.43517 137.86497 
L 385.968113 139.001342 
L 386.671143 140.52609 
L 387.695844 143.18721 
L 387.753713 143.358782 
L 388.619684 145.84833 
L 389.343976 148.50945 
L 389.575025 149.540256 
L 389.975474 151.17057 
L 390.502175 153.83169 
L 390.909945 156.49281 
L 391.224643 159.15393 
L 391.360625 160.622245 
" clip-path="url(#p797c13c88a)" style="fill: none; stroke: #deebf7; stroke-width: 1.5"/>
    <path d="M 390.696628 22.10625 
L 391.061553 24.76737 
L 391.340818 27.42849 
L 391.360625 27.668181 
" clip-path="url(#p797c13c88a)" style="fill: none; stroke: #deebf7; stroke-width: 1.5"/>
   </g>
   <g id="PathCollection_3">
    <path d="M 200.293335 288.21825 
L 199.794175 285.55713 
L 199.411116 282.89601 
L 199.337201 282.243177 
L 199.091094 280.23489 
L 198.842221 277.57377 
L 198.65643 274.91265 
L 198.519714 272.25153 
L 198.420819 269.59041 
L 198.350683 266.92929 
L 198.295587 263.82465 
L 198.264779 261.16353 
L 198.244493 258.50241 
L 198.231428 255.84129 
L 198.22317 253.18017 
L 198.218032 250.51905 
L 198.214895 247.85793 
L 198.213049 245.19681 
L 198.212041 242.53569 
L 198.211566 239.87457 
L 198.211392 237.21345 
L 198.211344 234.55233 
L 198.211298 231.89121 
L 198.211202 229.23009 
L 198.211068 226.56897 
L 198.210948 223.90785 
L 198.210897 220.80321 
L 198.210953 218.14209 
L 198.211068 215.48097 
L 198.211179 212.81985 
L 198.211226 210.15873 
L 198.211183 207.49761 
L 198.211073 204.83649 
L 198.210956 202.17537 
L 198.210895 199.51425 
L 198.210924 196.85313 
L 198.211026 194.19201 
L 198.211146 191.53089 
L 198.21122 188.86977 
L 198.211206 186.20865 
L 198.211114 183.54753 
L 198.210992 180.88641 
L 198.210906 178.22529 
L 198.210913 175.12065 
L 198.211006 172.45953 
L 198.211128 169.79841 
L 198.211213 167.13729 
L 198.211215 164.47617 
L 198.211133 161.81505 
L 198.211011 159.15393 
L 198.210916 156.49281 
L 198.210898 153.83169 
L 198.210968 151.17057 
L 198.211088 148.50945 
L 198.211192 145.84833 
L 198.211225 143.18721 
L 198.211168 140.52609 
L 198.211052 137.86497 
L 198.210941 135.20385 
L 198.210895 132.09921 
L 198.210952 129.43809 
L 198.211067 126.77697 
L 198.211179 124.11585 
L 198.211226 121.45473 
L 198.211183 118.79361 
L 198.211073 116.13249 
L 198.210956 113.47137 
L 198.210895 110.81025 
L 198.210924 108.14913 
L 198.211026 105.48801 
L 198.211146 102.82689 
L 198.21122 100.16577 
L 198.211207 97.50465 
L 198.211114 94.84353 
L 198.210992 92.18241 
L 198.210908 89.52129 
L 198.210918 86.41665 
L 198.211018 83.75553 
L 198.211154 81.09441 
L 198.211268 78.43329 
L 198.21133 75.77217 
L 198.211367 73.11105 
L 198.211475 70.44993 
L 198.211813 67.78881 
L 198.212589 65.12769 
L 198.214076 62.46657 
L 198.216659 59.80545 
L 198.220937 57.14433 
L 198.227856 54.48321 
L 198.238872 51.82209 
L 198.256111 49.16097 
L 198.282532 46.49985 
L 198.330293 43.39521 
L 198.391729 40.73409 
L 198.479159 38.07297 
L 198.601067 35.41185 
L 198.768049 32.75073 
L 198.993349 30.08961 
L 199.293601 27.42849 
L 199.337201 27.122491 
L 199.650789 24.76737 
L 200.112931 22.10625 
" clip-path="url(#p797c13c88a)" style="fill: none; stroke: #c6dbef; stroke-width: 1.5"/>
    <path d="M 385.988972 22.10625 
L 386.511559 24.76737 
L 386.911376 27.42849 
L 387.214417 30.08961 
L 387.440558 32.75073 
L 387.604986 35.41185 
L 387.719123 38.07297 
L 387.753713 39.343189 
L 387.7968 40.73409 
L 387.837467 43.39521 
L 387.835597 46.49985 
L 387.791607 49.16097 
L 387.753713 50.334315 
L 387.71142 51.82209 
L 387.593602 54.48321 
L 387.424816 57.14433 
L 387.193489 59.80545 
L 386.884373 62.46657 
L 386.477753 65.12769 
L 385.968113 67.694993 
L 385.950148 67.78881 
L 385.331566 70.44993 
L 384.537579 73.11105 
L 384.182513 74.104321 
L 383.567528 75.77217 
L 382.396913 78.38373 
L 382.373247 78.43329 
L 380.959499 81.09441 
L 380.575601 81.74697 
L 379.317823 83.75553 
L 378.790001 84.566908 
L 377.553962 86.41665 
L 377.004401 87.268065 
L 375.594685 89.52129 
L 375.218801 90.187109 
L 374.210893 92.18241 
L 373.397489 94.067447 
L 373.10985 94.84353 
L 372.315199 97.50465 
L 371.702917 100.16577 
L 371.611889 100.702211 
L 371.30683 102.82689 
L 371.049535 105.48801 
L 370.902793 108.14913 
L 370.85715 110.81025 
L 370.909303 113.47137 
L 371.062177 116.13249 
L 371.324625 118.79361 
L 371.611889 120.777834 
L 371.727011 121.45473 
L 372.336009 124.11585 
L 373.118516 126.77697 
L 373.397489 127.546164 
L 374.189265 129.43809 
L 375.218801 131.554625 
L 375.513162 132.09921 
L 377.004401 134.598459 
L 377.377477 135.20385 
L 378.790001 137.420061 
L 379.06852 137.86497 
L 380.575601 140.361985 
L 380.669826 140.52609 
L 382.088788 143.18721 
L 382.396913 143.840185 
L 383.296502 145.84833 
L 384.182513 148.232024 
L 384.283332 148.50945 
L 385.11889 151.17057 
L 385.774834 153.83169 
L 385.968113 154.794546 
L 386.322794 156.49281 
L 386.76401 159.15393 
L 387.103542 161.81505 
L 387.362476 164.47617 
L 387.557695 167.13729 
L 387.702838 169.79841 
L 387.753713 171.063802 
L 387.81729 172.45953 
L 387.904854 175.12065 
L 387.974523 178.22529 
L 388.01401 180.88641 
L 388.040327 183.54753 
L 388.05746 186.20865 
L 388.068386 188.86977 
L 388.075239 191.53089 
L 388.079468 194.19201 
L 388.082012 196.85313 
L 388.083464 199.51425 
L 388.084208 202.17537 
L 388.084519 204.83649 
L 388.084613 207.49761 
L 388.08465 210.15873 
L 388.084722 212.81985 
L 388.084849 215.48097 
L 388.084992 218.14209 
L 388.085088 220.80321 
L 388.085081 223.90785 
L 388.084976 226.56897 
L 388.084831 229.23009 
L 388.084708 231.89121 
L 388.084642 234.55233 
L 388.084603 237.21345 
L 388.084487 239.87457 
L 388.084127 242.53569 
L 388.083297 245.19681 
L 388.081707 247.85793 
L 388.078945 250.51905 
L 388.074371 253.18017 
L 388.066973 255.84129 
L 388.055196 258.50241 
L 388.036764 261.16353 
L 388.008517 263.82465 
L 387.957456 266.92929 
L 387.89178 269.59041 
L 387.798322 272.25153 
L 387.753713 273.173102 
L 387.679097 274.91265 
L 387.52366 277.57377 
L 387.313885 280.23489 
L 387.034239 282.89601 
L 386.665019 285.55713 
L 386.180896 288.21825 
" clip-path="url(#p797c13c88a)" style="fill: none; stroke: #c6dbef; stroke-width: 1.5"/>
   </g>
   <g id="PathCollection_4">
    <path d="M 203.978332 288.21825 
L 203.315726 285.55713 
L 202.944113 283.640116 
L 202.802302 282.89601 
L 202.401052 280.23489 
L 202.097981 277.57377 
L 201.871761 274.91265 
L 201.705345 272.25153 
L 201.585019 269.59041 
L 201.499733 266.92929 
L 201.432787 263.82465 
L 201.395385 261.16353 
L 201.370775 258.50241 
L 201.354937 255.84129 
L 201.344932 253.18017 
L 201.33871 250.51905 
L 201.334915 247.85793 
L 201.332686 245.19681 
L 201.331473 242.53569 
L 201.330905 239.87457 
L 201.330701 237.21345 
L 201.330643 234.55233 
L 201.330585 231.89121 
L 201.330465 229.23009 
L 201.330299 226.56897 
L 201.330153 223.90785 
L 201.330095 220.80321 
L 201.330167 218.14209 
L 201.33031 215.48097 
L 201.330445 212.81985 
L 201.330499 210.15873 
L 201.330442 207.49761 
L 201.330305 204.83649 
L 201.330163 202.17537 
L 201.330092 199.51425 
L 201.330131 196.85313 
L 201.330259 194.19201 
L 201.330406 191.53089 
L 201.330493 188.86977 
L 201.330473 186.20865 
L 201.330356 183.54753 
L 201.330206 180.88641 
L 201.330104 178.22529 
L 201.330117 175.12065 
L 201.330234 172.45953 
L 201.330384 169.79841 
L 201.330486 167.13729 
L 201.330484 164.47617 
L 201.33038 161.81505 
L 201.330229 159.15393 
L 201.330114 156.49281 
L 201.330097 153.83169 
L 201.330187 151.17057 
L 201.330335 148.50945 
L 201.330461 145.84833 
L 201.330497 143.18721 
L 201.330423 140.52609 
L 201.33028 137.86497 
L 201.330144 135.20385 
L 201.330092 132.09921 
L 201.330166 129.43809 
L 201.33031 126.77697 
L 201.330445 124.11585 
L 201.330499 121.45473 
L 201.330442 118.79361 
L 201.330305 116.13249 
L 201.330163 113.47137 
L 201.330092 110.81025 
L 201.330131 108.14913 
L 201.330259 105.48801 
L 201.330406 102.82689 
L 201.330493 100.16577 
L 201.330473 97.50465 
L 201.330356 94.84353 
L 201.330207 92.18241 
L 201.330106 89.52129 
L 201.330123 86.41665 
L 201.330249 83.75553 
L 201.330417 81.09441 
L 201.330556 78.43329 
L 201.33063 75.77217 
L 201.330676 73.11105 
L 201.330816 70.44993 
L 201.331246 67.78881 
L 201.332228 65.12769 
L 201.334101 62.46657 
L 201.337345 59.80545 
L 201.342712 57.14433 
L 201.351388 54.48321 
L 201.365192 51.82209 
L 201.386781 49.16097 
L 201.419844 46.49985 
L 201.479559 43.39521 
L 201.556312 40.73409 
L 201.665473 38.07297 
L 201.817608 35.41185 
L 202.025924 32.75073 
L 202.306943 30.08961 
L 202.681444 27.42849 
L 202.944113 25.981166 
L 203.168826 24.76737 
L 203.797817 22.10625 
" clip-path="url(#p797c13c88a)" style="fill: none; stroke: #9dcae1; stroke-width: 1.5"/>
    <path d="M 382.321871 22.10625 
L 382.396913 22.391693 
L 382.988849 24.76737 
L 383.499822 27.42849 
L 383.887149 30.08961 
L 384.176133 32.75073 
L 384.182513 32.829789 
L 384.397233 35.41185 
L 384.550681 38.07297 
L 384.64724 40.73409 
L 384.694156 43.39521 
L 384.690808 46.49985 
L 384.63799 49.16097 
L 384.535094 51.82209 
L 384.374646 54.48321 
L 384.182513 56.722219 
L 384.147364 57.14433 
L 383.85081 59.80545 
L 383.45638 62.46657 
L 382.940571 65.12769 
L 382.396913 67.32166 
L 382.276364 67.78881 
L 381.443472 70.44993 
L 380.575601 72.680229 
L 380.393418 73.11105 
L 379.093527 75.77217 
L 378.790001 76.323714 
L 377.523315 78.43329 
L 377.004401 79.240687 
L 375.744441 81.09441 
L 375.218801 81.863749 
L 373.935547 83.75553 
L 373.397489 84.595795 
L 372.318172 86.41665 
L 371.611889 87.775084 
L 370.812994 89.52129 
L 369.826289 92.153468 
L 369.816797 92.18241 
L 369.104287 94.84353 
L 368.556695 97.50465 
L 368.147433 100.16577 
L 368.040689 101.125237 
L 367.870154 102.82689 
L 367.692306 105.48801 
L 367.592557 108.14913 
L 367.563538 110.81025 
L 367.602921 113.47137 
L 367.713401 116.13249 
L 367.902607 118.79361 
L 368.040689 120.114583 
L 368.195563 121.45473 
L 368.616539 124.11585 
L 369.17384 126.77697 
L 369.826289 129.201297 
L 369.898716 129.43809 
L 370.886757 132.09921 
L 371.611889 133.716241 
L 372.361491 135.20385 
L 373.397489 137.017164 
L 373.917285 137.86497 
L 375.218801 139.874238 
L 375.644619 140.52609 
L 377.004401 142.618111 
L 377.357205 143.18721 
L 378.790001 145.653637 
L 378.894905 145.84833 
L 380.191072 148.50945 
L 380.575601 149.425317 
L 381.256981 151.17057 
L 382.112507 153.83169 
L 382.396913 154.908431 
L 382.801407 156.49281 
L 383.345724 159.15393 
L 383.767395 161.81505 
L 384.090594 164.47617 
L 384.182513 165.460909 
L 384.343905 167.13729 
L 384.536323 169.79841 
L 384.677053 172.45953 
L 384.778007 175.12065 
L 384.858327 178.22529 
L 384.903831 180.88641 
L 384.934141 183.54753 
L 384.953861 186.20865 
L 384.966429 188.86977 
L 384.974309 191.53089 
L 384.97917 194.19201 
L 384.982092 196.85313 
L 384.983754 199.51425 
L 384.9846 202.17537 
L 384.984949 204.83649 
L 384.985052 207.49761 
L 384.985093 210.15873 
L 384.98518 212.81985 
L 384.985332 215.48097 
L 384.985502 218.14209 
L 384.985612 220.80321 
L 384.985598 223.90785 
L 384.98547 226.56897 
L 384.985298 229.23009 
L 384.985155 231.89121 
L 384.985078 234.55233 
L 384.985031 237.21345 
L 384.984887 239.87457 
L 384.984444 242.53569 
L 384.983432 245.19681 
L 384.981505 247.85793 
L 384.978164 250.51905 
L 384.972638 253.18017 
L 384.963706 255.84129 
L 384.949494 258.50241 
L 384.927267 261.16353 
L 384.89323 263.82465 
L 384.83176 266.92929 
L 384.752758 269.59041 
L 384.640411 272.25153 
L 384.483858 274.91265 
L 384.269525 277.57377 
L 384.182513 278.392319 
L 383.990537 280.23489 
L 383.624445 282.89601 
L 383.141006 285.55713 
L 382.506921 288.21825 
" clip-path="url(#p797c13c88a)" style="fill: none; stroke: #9dcae1; stroke-width: 1.5"/>
   </g>
   <g id="PathCollection_5">
    <path d="M 207.608397 288.21825 
L 206.665586 285.55713 
L 206.515313 285.026641 
L 205.975256 282.89601 
L 205.455578 280.23489 
L 205.062958 277.57377 
L 204.769866 274.91265 
L 204.729713 274.424233 
L 204.556663 272.25153 
L 204.402985 269.59041 
L 204.294132 266.92929 
L 204.208751 263.82465 
L 204.161089 261.16353 
L 204.129752 258.50241 
L 204.109597 255.84129 
L 204.096871 253.18017 
L 204.088961 250.51905 
L 204.08414 247.85793 
L 204.081313 245.19681 
L 204.079781 242.53569 
L 204.079067 239.87457 
L 204.078813 237.21345 
L 204.078741 234.55233 
L 204.078664 231.89121 
L 204.078506 229.23009 
L 204.078291 226.56897 
L 204.078105 223.90785 
L 204.078036 220.80321 
L 204.078133 218.14209 
L 204.078319 215.48097 
L 204.078491 212.81985 
L 204.078556 210.15873 
L 204.078478 207.49761 
L 204.0783 204.83649 
L 204.078117 202.17537 
L 204.07803 199.51425 
L 204.078084 196.85313 
L 204.078252 194.19201 
L 204.078441 191.53089 
L 204.07855 188.86977 
L 204.078519 186.20865 
L 204.078365 183.54753 
L 204.078172 180.88641 
L 204.078044 178.22529 
L 204.078066 175.12065 
L 204.07822 172.45953 
L 204.078413 169.79841 
L 204.078541 167.13729 
L 204.078534 164.47617 
L 204.078396 161.81505 
L 204.078202 159.15393 
L 204.078057 156.49281 
L 204.078039 153.83169 
L 204.078159 151.17057 
L 204.078351 148.50945 
L 204.078511 145.84833 
L 204.078553 143.18721 
L 204.078454 140.52609 
L 204.078267 137.86497 
L 204.078094 135.20385 
L 204.078032 132.09921 
L 204.078131 129.43809 
L 204.078318 126.77697 
L 204.078491 124.11585 
L 204.078556 121.45473 
L 204.078478 118.79361 
L 204.0783 116.13249 
L 204.078117 113.47137 
L 204.07803 110.81025 
L 204.078084 108.14913 
L 204.078252 105.48801 
L 204.078442 102.82689 
L 204.07855 100.16577 
L 204.078519 97.50465 
L 204.078366 94.84353 
L 204.078173 92.18241 
L 204.078047 89.52129 
L 204.078075 86.41665 
L 204.07824 83.75553 
L 204.078457 81.09441 
L 204.078634 78.43329 
L 204.078727 75.77217 
L 204.078788 73.11105 
L 204.078976 70.44993 
L 204.079548 67.78881 
L 204.080845 65.12769 
L 204.083307 62.46657 
L 204.087565 59.80545 
L 204.094601 57.14433 
L 204.105968 54.48321 
L 204.124046 51.82209 
L 204.152301 49.16097 
L 204.195542 46.49985 
L 204.273575 43.39521 
L 204.373792 40.73409 
L 204.516228 38.07297 
L 204.71462 35.41185 
L 204.729713 35.260522 
L 204.990073 32.75073 
L 205.361996 30.08961 
L 205.857758 27.42849 
L 206.512451 24.76737 
L 206.515313 24.757925 
L 207.428865 22.10625 
" clip-path="url(#p797c13c88a)" style="fill: none; stroke: #6aaed6; stroke-width: 1.5"/>
    <path d="M 378.707702 22.10625 
L 378.790001 22.314322 
L 379.624954 24.76737 
L 380.322022 27.42849 
L 380.575601 28.678808 
L 380.839895 30.08961 
L 381.218794 32.75073 
L 381.493952 35.41185 
L 381.684503 38.07297 
L 381.804235 40.73409 
L 381.862163 43.39521 
L 381.857478 46.49985 
L 381.791432 49.16097 
L 381.663415 51.82209 
L 381.464547 54.48321 
L 381.181597 57.14433 
L 380.796755 59.80545 
L 380.575601 60.985451 
L 380.278623 62.46657 
L 379.600473 65.12769 
L 378.790001 67.63829 
L 378.735826 67.78881 
L 377.604519 70.44993 
L 377.004401 71.65452 
L 376.191396 73.11105 
L 375.218801 74.69063 
L 374.49459 75.77217 
L 373.397489 77.35395 
L 372.635296 78.43329 
L 371.611889 79.924146 
L 370.852874 81.09441 
L 369.826289 82.828225 
L 369.332524 83.75553 
L 368.113413 86.41665 
L 368.040689 86.605372 
L 367.050201 89.52129 
L 366.350935 92.18241 
L 366.219377 92.810222 
L 365.826569 94.84353 
L 365.433398 97.50465 
L 365.142894 100.16577 
L 364.936706 102.82689 
L 364.800869 105.48801 
L 364.725559 108.14913 
L 364.705017 110.81025 
L 364.737532 113.47137 
L 364.825427 116.13249 
L 364.975008 118.79361 
L 365.196504 121.45473 
L 365.504076 124.11585 
L 365.915993 126.77697 
L 366.219377 128.300257 
L 366.463682 129.43809 
L 367.178972 132.09921 
L 368.040689 134.625064 
L 368.262281 135.20385 
L 369.471648 137.86497 
L 369.826289 138.545346 
L 370.960802 140.52609 
L 371.611889 141.567935 
L 372.67482 143.18721 
L 373.397489 144.258633 
L 374.451459 145.84833 
L 375.218801 147.045081 
L 376.089494 148.50945 
L 377.004401 150.198969 
L 377.479396 151.17057 
L 378.604359 153.83169 
L 378.790001 154.348707 
L 379.487085 156.49281 
L 380.182763 159.15393 
L 380.575601 161.047169 
L 380.725345 161.81505 
L 381.135542 164.47617 
L 381.44686 167.13729 
L 381.679393 169.79841 
L 381.849958 172.45953 
L 381.972545 175.12065 
L 382.070185 178.22529 
L 382.125526 180.88641 
L 382.162386 183.54753 
L 382.186361 186.20865 
L 382.201639 188.86977 
L 382.211216 191.53089 
L 382.217123 194.19201 
L 382.220671 196.85313 
L 382.222684 199.51425 
L 382.223702 202.17537 
L 382.224116 204.83649 
L 382.224233 207.49761 
L 382.224283 210.15873 
L 382.224393 212.81985 
L 382.224586 215.48097 
L 382.224797 218.14209 
L 382.224932 220.80321 
L 382.224909 223.90785 
L 382.224745 226.56897 
L 382.224528 229.23009 
L 382.224351 231.89121 
L 382.224257 234.55233 
L 382.224197 237.21345 
L 382.224009 239.87457 
L 382.223435 242.53569 
L 382.222136 245.19681 
L 382.21967 247.85793 
L 382.215403 250.51905 
L 382.208354 253.18017 
L 382.196965 255.84129 
L 382.178852 258.50241 
L 382.15054 261.16353 
L 382.10721 263.82465 
L 382.029008 266.92929 
L 381.928563 269.59041 
L 381.785783 272.25153 
L 381.586878 274.91265 
L 381.314599 277.57377 
L 380.947355 280.23489 
L 380.575601 282.275877 
L 380.452825 282.89601 
L 379.778199 285.55713 
L 378.892805 288.21825 
" clip-path="url(#p797c13c88a)" style="fill: none; stroke: #6aaed6; stroke-width: 1.5"/>
   </g>
   <g id="PathCollection_6">
    <path d="M 212.109724 288.21825 
L 211.907825 287.953436 
L 210.52558 285.55713 
L 210.122225 284.682471 
L 209.458311 282.89601 
L 208.691083 280.23489 
L 208.300913 278.462507 
L 208.13157 277.57377 
L 207.745217 274.91265 
L 207.461141 272.25153 
L 207.255894 269.59041 
L 207.110558 266.92929 
L 206.996617 263.82465 
L 206.93305 261.16353 
L 206.891276 258.50241 
L 206.864423 255.84129 
L 206.847474 253.18017 
L 206.836944 250.51905 
L 206.830532 247.85793 
L 206.826776 245.19681 
L 206.824748 242.53569 
L 206.823809 239.87457 
L 206.823477 237.21345 
L 206.823382 234.55233 
L 206.823276 231.89121 
L 206.823059 229.23009 
L 206.822768 226.56897 
L 206.82252 223.90785 
L 206.822434 220.80321 
L 206.82257 218.14209 
L 206.822822 215.48097 
L 206.823052 212.81985 
L 206.823135 210.15873 
L 206.823024 207.49761 
L 206.822781 204.83649 
L 206.822537 202.17537 
L 206.822424 199.51425 
L 206.822503 196.85313 
L 206.822732 194.19201 
L 206.822986 191.53089 
L 206.823128 188.86977 
L 206.823081 186.20865 
L 206.82287 183.54753 
L 206.822609 180.88641 
L 206.822441 178.22529 
L 206.822477 175.12065 
L 206.822688 172.45953 
L 206.822948 169.79841 
L 206.823117 167.13729 
L 206.823102 164.47617 
L 206.822912 161.81505 
L 206.82265 159.15393 
L 206.822458 156.49281 
L 206.82244 153.83169 
L 206.822605 151.17057 
L 206.822865 148.50945 
L 206.823078 145.84833 
L 206.823129 143.18721 
L 206.82299 140.52609 
L 206.822737 137.86497 
L 206.822506 135.20385 
L 206.822429 132.09921 
L 206.822568 129.43809 
L 206.822821 126.77697 
L 206.823052 124.11585 
L 206.823134 121.45473 
L 206.823024 118.79361 
L 206.822781 116.13249 
L 206.822537 113.47137 
L 206.822424 110.81025 
L 206.822503 108.14913 
L 206.822732 105.48801 
L 206.822986 102.82689 
L 206.823128 100.16577 
L 206.823081 97.50465 
L 206.822871 94.84353 
L 206.822611 92.18241 
L 206.822446 89.52129 
L 206.822489 86.41665 
L 206.822716 83.75553 
L 206.823009 81.09441 
L 206.823245 78.43329 
L 206.823368 75.77217 
L 206.823451 73.11105 
L 206.823714 70.44993 
L 206.824509 67.78881 
L 206.826296 65.12769 
L 206.829676 62.46657 
L 206.835511 59.80545 
L 206.845144 57.14433 
L 206.860701 54.48321 
L 206.885431 51.82209 
L 206.924067 49.16097 
L 206.983158 46.49985 
L 207.089732 43.39521 
L 207.226536 40.73409 
L 207.420905 38.07297 
L 207.691581 35.41185 
L 208.062015 32.75073 
L 208.300913 31.456832 
L 208.593661 30.08961 
L 209.341693 27.42849 
L 210.122225 25.304367 
L 210.368743 24.76737 
L 211.907825 22.107222 
L 211.908575 22.10625 
" clip-path="url(#p797c13c88a)" style="fill: none; stroke: #4191c6; stroke-width: 1.5"/>
    <path d="M 374.158437 22.10625 
L 375.218801 23.702852 
L 375.76582 24.76737 
L 376.853402 27.42849 
L 377.004401 27.900131 
L 377.589973 30.08961 
L 378.124727 32.75073 
L 378.513151 35.41185 
L 378.782162 38.07297 
L 378.790001 38.195153 
L 378.937432 40.73409 
L 379.01242 43.39521 
L 379.007076 46.49985 
L 378.923147 49.16097 
L 378.790001 51.341721 
L 378.757732 51.82209 
L 378.483493 54.48321 
L 378.096626 57.14433 
L 377.576565 59.80545 
L 377.004401 62.061731 
L 376.886083 62.46657 
L 375.930524 65.12769 
L 375.218801 66.768632 
L 374.706547 67.78881 
L 373.397489 70.081155 
L 373.161683 70.44993 
L 371.611889 72.721386 
L 371.335397 73.11105 
L 369.826289 75.233864 
L 369.459864 75.77217 
L 368.040689 77.988391 
L 367.782104 78.43329 
L 366.402704 81.09441 
L 366.219377 81.50207 
L 365.305511 83.75553 
L 364.437677 86.41665 
L 364.433777 86.431082 
L 363.654958 89.52129 
L 363.145412 92.18241 
L 362.754441 94.84353 
L 362.648177 95.781839 
L 362.45089 97.50465 
L 362.223957 100.16577 
L 362.063549 102.82689 
L 361.958456 105.48801 
L 361.900855 108.14913 
L 361.886211 110.81025 
L 361.913276 113.47137 
L 361.98408 116.13249 
L 362.103913 118.79361 
L 362.281309 121.45473 
L 362.528117 124.11585 
L 362.648177 125.099893 
L 362.850019 126.77697 
L 363.265168 129.43809 
L 363.80159 132.09921 
L 364.433777 134.540615 
L 364.616667 135.20385 
L 365.507636 137.86497 
L 366.219377 139.617004 
L 366.624309 140.52609 
L 367.999139 143.18721 
L 368.040689 143.260344 
L 369.639749 145.84833 
L 369.826289 146.133027 
L 371.438586 148.50945 
L 371.611889 148.765232 
L 373.17908 151.17057 
L 373.397489 151.526961 
L 374.66878 153.83169 
L 375.218801 154.957613 
L 375.873527 156.49281 
L 376.824683 159.15393 
L 377.004401 159.764539 
L 377.532307 161.81505 
L 378.071995 164.47617 
L 378.486983 167.13729 
L 378.790001 169.712259 
L 378.799205 169.79841 
L 379.011404 172.45953 
L 379.164132 175.12065 
L 379.285868 178.22529 
L 379.354874 180.88641 
L 379.400824 183.54753 
L 379.430699 186.20865 
L 379.449731 188.86977 
L 379.461661 191.53089 
L 379.46902 194.19201 
L 379.473438 196.85313 
L 379.475937 199.51425 
L 379.477191 202.17537 
L 379.47769 204.83649 
L 379.477825 207.49761 
L 379.477884 210.15873 
L 379.478028 212.81985 
L 379.478279 215.48097 
L 379.478553 218.14209 
L 379.478724 220.80321 
L 379.478686 223.90785 
L 379.478469 226.56897 
L 379.478187 229.23009 
L 379.477959 231.89121 
L 379.47784 234.55233 
L 379.47776 237.21345 
L 379.477505 239.87457 
L 379.476736 242.53569 
L 379.475009 245.19681 
L 379.47174 247.85793 
L 379.466097 250.51905 
L 379.456782 253.18017 
L 379.441738 255.84129 
L 379.417824 258.50241 
L 379.380466 261.16353 
L 379.323331 263.82465 
L 379.220293 266.92929 
L 379.088041 269.59041 
L 378.900161 272.25153 
L 378.790001 273.384056 
L 378.624063 274.91265 
L 378.231704 277.57377 
L 377.702393 280.23489 
L 377.004401 282.86839 
L 376.995588 282.89601 
L 375.918469 285.55713 
L 375.218801 286.916111 
L 374.344658 288.21825 
" clip-path="url(#p797c13c88a)" style="fill: none; stroke: #4191c6; stroke-width: 1.5"/>
   </g>
   <g id="PathCollection_7">
    <path d="M 227.824947 288.21825 
L 226.264049 288.050017 
L 224.478449 287.788841 
L 222.657137 287.449486 
L 220.871537 287.018382 
L 219.085937 286.427615 
L 217.300337 285.575463 
L 217.273631 285.55713 
L 215.479025 284.080657 
L 214.480816 282.89601 
L 213.693425 281.730949 
L 212.951452 280.23489 
L 211.936251 277.57377 
L 211.907825 277.476184 
L 211.321996 274.91265 
L 210.874441 272.25153 
L 210.551117 269.59041 
L 210.322233 266.92929 
L 210.142869 263.82465 
L 210.122225 263.277053 
L 210.055138 261.16353 
L 209.999618 258.50241 
L 209.963947 255.84129 
L 209.941444 253.18017 
L 209.927469 250.51905 
L 209.918965 247.85793 
L 209.913993 245.19681 
L 209.911316 242.53569 
L 209.910084 239.87457 
L 209.909652 237.21345 
L 209.909527 234.55233 
L 209.909381 231.89121 
L 209.909085 229.23009 
L 209.908693 226.56897 
L 209.908364 223.90785 
L 209.908257 220.80321 
L 209.908446 218.14209 
L 209.908788 215.48097 
L 209.909093 212.81985 
L 209.909197 210.15873 
L 209.909041 207.49761 
L 209.908712 204.83649 
L 209.908386 202.17537 
L 209.908241 199.51425 
L 209.908355 196.85313 
L 209.908666 194.19201 
L 209.909006 191.53089 
L 209.909191 188.86977 
L 209.909119 186.20865 
L 209.908831 183.54753 
L 209.908482 180.88641 
L 209.908261 178.22529 
L 209.908319 175.12065 
L 209.908607 172.45953 
L 209.908956 169.79841 
L 209.909177 167.13729 
L 209.909149 164.47617 
L 209.908888 161.81505 
L 209.908536 159.15393 
L 209.908282 156.49281 
L 209.908266 153.83169 
L 209.908495 151.17057 
L 209.908845 148.50945 
L 209.909127 145.84833 
L 209.909188 143.18721 
L 209.908994 140.52609 
L 209.908652 137.86497 
L 209.908345 135.20385 
L 209.90825 132.09921 
L 209.908443 129.43809 
L 209.908786 126.77697 
L 209.909093 124.11585 
L 209.909196 121.45473 
L 209.909041 118.79361 
L 209.908711 116.13249 
L 209.908386 113.47137 
L 209.908241 110.81025 
L 209.908355 108.14913 
L 209.908666 105.48801 
L 209.909007 102.82689 
L 209.909191 100.16577 
L 209.90912 97.50465 
L 209.908832 94.84353 
L 209.908484 92.18241 
L 209.908268 89.52129 
L 209.908335 86.41665 
L 209.908645 83.75553 
L 209.909039 81.09441 
L 209.909353 78.43329 
L 209.909515 75.77217 
L 209.909628 73.11105 
L 209.909997 70.44993 
L 209.911096 67.78881 
L 209.913551 65.12769 
L 209.918178 62.46657 
L 209.926152 59.80545 
L 209.939304 57.14433 
L 209.960532 54.48321 
L 209.994265 51.82209 
L 210.046932 49.16097 
L 210.122225 46.671261 
L 210.128386 46.49985 
L 210.300096 43.39521 
L 210.520408 40.73409 
L 210.833336 38.07297 
L 211.269061 35.41185 
L 211.865407 32.75073 
L 211.907825 32.605986 
L 212.859196 30.08961 
L 213.693425 28.406407 
L 214.358372 27.42849 
L 215.479025 26.113608 
L 217.147232 24.76737 
L 217.300337 24.664643 
L 219.085937 23.835399 
L 220.871537 23.260469 
L 222.657137 22.839388 
L 224.478449 22.506964 
L 226.264049 22.251966 
L 227.667225 22.10625 
" clip-path="url(#p797c13c88a)" style="fill: none; stroke: #2070b4; stroke-width: 1.5"/>
    <path d="M 236.562555 22.10625 
L 237.013361 22.126149 
L 238.834673 22.172059 
L 240.620273 22.163396 
L 242.32973 22.10625 
" clip-path="url(#p797c13c88a)" style="fill: none; stroke: #2070b4; stroke-width: 1.5"/>
    <path d="M 242.51504 288.21825 
L 242.405873 288.21294 
L 240.620273 288.157697 
L 238.834673 288.154688 
L 237.013361 288.205306 
L 236.726138 288.21825 
" clip-path="url(#p797c13c88a)" style="fill: none; stroke: #2070b4; stroke-width: 1.5"/>
    <path d="M 254.561411 22.10625 
L 254.976497 22.125453 
L 256.762097 22.170601 
L 258.547697 22.160896 
L 260.142039 22.10625 
" clip-path="url(#p797c13c88a)" style="fill: none; stroke: #2070b4; stroke-width: 1.5"/>
    <path d="M 260.373712 288.21825 
L 260.369009 288.21802 
L 258.547697 288.160066 
L 256.762097 288.156102 
L 254.976497 288.206156 
L 254.721912 288.21825 
" clip-path="url(#p797c13c88a)" style="fill: none; stroke: #2070b4; stroke-width: 1.5"/>
    <path d="M 272.424984 22.10625 
L 272.903921 22.128152 
L 274.725233 22.171637 
L 276.510833 22.158538 
L 277.985594 22.10625 
" clip-path="url(#p797c13c88a)" style="fill: none; stroke: #2070b4; stroke-width: 1.5"/>
    <path d="M 278.208963 288.21825 
L 276.510833 288.162102 
L 274.725233 288.154723 
L 272.903921 288.203302 
L 272.586211 288.21825 
" clip-path="url(#p797c13c88a)" style="fill: none; stroke: #2070b4; stroke-width: 1.5"/>
    <path d="M 290.291441 22.10625 
L 290.867057 22.132083 
L 292.652657 22.172213 
L 294.438257 22.156861 
L 295.822862 22.10625 
" clip-path="url(#p797c13c88a)" style="fill: none; stroke: #2070b4; stroke-width: 1.5"/>
    <path d="M 296.035638 288.21825 
L 294.438257 288.163567 
L 292.652657 288.153917 
L 290.867057 288.199132 
L 290.454195 288.21825 
" clip-path="url(#p797c13c88a)" style="fill: none; stroke: #2070b4; stroke-width: 1.5"/>
    <path d="M 308.153681 22.10625 
L 308.794481 22.134621 
L 310.615793 22.172906 
L 312.401393 22.154193 
L 313.674359 22.10625 
" clip-path="url(#p797c13c88a)" style="fill: none; stroke: #2070b4; stroke-width: 1.5"/>
    <path d="M 313.879067 288.21825 
L 312.401393 288.165922 
L 310.615793 288.152877 
L 308.794481 288.196429 
L 308.317764 288.21825 
" clip-path="url(#p797c13c88a)" style="fill: none; stroke: #2070b4; stroke-width: 1.5"/>
    <path d="M 326.017665 22.10625 
L 326.757617 22.138301 
L 328.543217 22.173253 
L 330.328817 22.152316 
L 331.519627 22.10625 
" clip-path="url(#p797c13c88a)" style="fill: none; stroke: #2070b4; stroke-width: 1.5"/>
    <path d="M 331.716232 288.21825 
L 330.328817 288.167595 
L 328.543217 288.152299 
L 326.757617 288.192494 
L 326.184247 288.21825 
" clip-path="url(#p797c13c88a)" style="fill: none; stroke: #2070b4; stroke-width: 1.5"/>
    <path d="M 343.862313 22.10625 
L 344.685041 22.14155 
L 346.506353 22.175489 
L 348.291953 22.153242 
L 349.544902 22.10625 
" clip-path="url(#p797c13c88a)" style="fill: none; stroke: #2070b4; stroke-width: 1.5"/>
    <path d="M 349.727554 288.21825 
L 348.291953 288.167051 
L 346.506353 288.150115 
L 344.685041 288.189297 
L 344.034758 288.21825 
" clip-path="url(#p797c13c88a)" style="fill: none; stroke: #2070b4; stroke-width: 1.5"/>
    <path d="M 358.396184 22.10625 
L 360.862577 22.390679 
L 364.433777 23.057337 
L 366.219377 23.550886 
L 368.040689 24.261213 
L 369.826289 25.369462 
L 371.832072 27.42849 
L 373.397489 30.156333 
L 374.26723 32.75073 
L 374.916206 35.41185 
L 375.339991 38.07297 
L 375.573495 40.73409 
L 375.68871 43.39521 
L 375.686354 46.49985 
L 375.568992 49.16097 
L 375.218801 52.732206 
L 374.939107 54.48321 
L 374.352105 57.14433 
L 373.397489 60.326555 
L 372.472219 62.46657 
L 371.045131 65.12769 
L 369.298113 67.78881 
L 366.219377 72.293702 
L 364.433777 75.46401 
L 364.279931 75.77217 
L 362.648177 79.614932 
L 362.121157 81.09441 
L 361.338803 83.75553 
L 360.71157 86.41665 
L 360.109757 89.52129 
L 359.421419 94.84353 
L 359.030577 100.16577 
L 358.808573 105.48801 
L 358.774744 113.47137 
L 359.041265 120.556769 
L 359.270498 124.11585 
L 359.843132 129.43809 
L 360.26506 132.09921 
L 361.556369 137.86497 
L 362.648177 141.270105 
L 363.371724 143.18721 
L 364.586522 145.84833 
L 366.219377 148.819978 
L 371.611889 157.300215 
L 372.523158 159.15393 
L 373.610714 161.81505 
L 374.383902 164.47617 
L 375.218801 168.385167 
L 375.722043 172.45953 
L 376.106253 178.22529 
L 376.310518 186.20865 
L 376.376242 202.17537 
L 376.284803 258.50241 
L 376.139816 263.82465 
L 375.779184 269.59041 
L 375.218801 274.072611 
L 375.062488 274.91265 
L 374.393321 277.57377 
L 373.397489 280.448233 
L 371.611889 283.373728 
L 369.826289 285.088096 
L 368.040689 286.146875 
L 366.219377 286.834984 
L 364.433777 287.314076 
L 360.862577 287.963554 
L 358.63085 288.21825 
L 358.63085 288.21825 
" clip-path="url(#p797c13c88a)" style="fill: none; stroke: #2070b4; stroke-width: 1.5"/>
   </g>
   <g id="PathCollection_8">
    <path d="M 215.18948 266.92929 
L 214.851283 263.82465 
L 214.662831 261.16353 
L 214.539128 258.50241 
L 214.459687 255.84129 
L 214.40959 253.18017 
L 214.378493 250.51905 
L 214.359585 247.85793 
L 214.348549 245.19681 
L 214.342627 242.53569 
L 214.339919 239.87457 
L 214.33898 237.21345 
L 214.338704 234.55233 
L 214.338365 231.89121 
L 214.337686 229.23009 
L 214.336799 226.56897 
L 214.336066 223.90785 
L 214.335847 220.80321 
L 214.336291 218.14209 
L 214.337065 215.48097 
L 214.337745 212.81985 
L 214.33796 210.15873 
L 214.337593 207.49761 
L 214.336842 204.83649 
L 214.336114 202.17537 
L 214.335804 199.51425 
L 214.33608 196.85313 
L 214.336792 194.19201 
L 214.337554 191.53089 
L 214.337954 188.86977 
L 214.337774 186.20865 
L 214.337112 183.54753 
L 214.336327 180.88641 
L 214.335844 178.22529 
L 214.335996 175.12065 
L 214.336658 172.45953 
L 214.337443 169.79841 
L 214.337925 167.13729 
L 214.337844 164.47617 
L 214.337242 161.81505 
L 214.336447 159.15393 
L 214.335889 156.49281 
L 214.335871 153.83169 
L 214.336402 151.17057 
L 214.337195 148.50945 
L 214.33782 145.84833 
L 214.337938 143.18721 
L 214.337485 140.52609 
L 214.336707 137.86497 
L 214.336025 135.20385 
L 214.335832 132.09921 
L 214.336285 129.43809 
L 214.337063 126.77697 
L 214.337744 124.11585 
L 214.33796 121.45473 
L 214.337593 118.79361 
L 214.336842 116.13249 
L 214.336114 113.47137 
L 214.335804 110.81025 
L 214.33608 108.14913 
L 214.336792 105.48801 
L 214.337554 102.82689 
L 214.337954 100.16577 
L 214.337775 97.50465 
L 214.337114 94.84353 
L 214.336333 92.18241 
L 214.335859 89.52129 
L 214.336035 86.41665 
L 214.336746 83.75553 
L 214.337634 81.09441 
L 214.338333 78.43329 
L 214.33869 75.77217 
L 214.338953 73.11105 
L 214.339822 70.44993 
L 214.342383 67.78881 
L 214.348059 65.12769 
L 214.358713 62.46657 
L 214.377037 59.80545 
L 214.407235 57.14433 
L 214.455953 54.48321 
L 214.533333 51.82209 
L 214.654087 49.16097 
L 214.838555 46.49985 
L 215.170828 43.39521 
L 215.479025 41.464877 
L 215.641283 40.73409 
L 216.474127 38.07297 
L 217.300337 36.166501 
L 217.771183 35.41185 
L 219.085937 33.834426 
L 220.378625 32.75073 
L 220.871537 32.430468 
L 222.657137 31.573449 
L 224.478449 30.897791 
L 226.264049 30.379283 
L 227.631507 30.08961 
L 228.049649 30.018286 
L 229.835249 29.83889 
L 231.656561 29.789468 
L 233.442161 29.851518 
L 235.227761 29.977299 
L 236.779921 30.08961 
L 237.013361 30.110524 
L 238.834673 30.205533 
L 240.620273 30.190817 
L 242.1466 30.08961 
L 242.405873 30.075715 
L 244.191473 29.932183 
L 246.012785 29.793292 
L 247.798385 29.716838 
L 249.583985 29.728476 
L 251.369585 29.823747 
L 253.190897 29.969708 
L 254.769845 30.08961 
L 254.976497 30.109042 
L 256.762097 30.202609 
L 258.547697 30.185832 
L 259.961985 30.08961 
L 260.369009 30.06723 
L 262.154609 29.922909 
L 263.940209 29.788679 
L 265.725809 29.715477 
L 267.547121 29.732036 
L 269.332721 29.831461 
L 271.118321 29.975664 
L 272.635549 30.08961 
L 272.903921 30.114568 
L 274.725233 30.204869 
L 276.510833 30.181227 
L 277.811258 30.08961 
L 278.296433 30.061987 
L 280.082033 29.916963 
L 281.903345 29.782148 
L 283.688945 29.713789 
L 285.474545 29.734594 
L 287.260145 29.836702 
L 289.081457 29.98457 
L 290.505609 30.08961 
L 290.867057 30.12262 
L 292.652657 30.206147 
L 294.438257 30.177945 
L 295.653251 30.08961 
L 296.259569 30.053989 
L 298.045169 29.908084 
L 299.830769 29.777925 
L 301.616369 29.712848 
L 303.437681 29.738681 
L 305.223281 29.844696 
L 307.008881 29.990481 
L 308.370537 30.08961 
L 308.794481 30.127825 
L 310.615793 30.207716 
L 312.401393 30.172711 
L 313.509683 30.08961 
L 314.186993 30.048573 
L 315.972593 29.902197 
L 317.793905 29.771792 
L 319.579505 29.711714 
L 321.365105 29.741571 
L 323.150705 29.850109 
L 324.972017 29.999298 
L 326.238997 30.08961 
L 326.757617 30.135383 
L 328.543217 30.208535 
L 330.328817 30.169029 
L 331.359206 30.08961 
L 332.150129 30.040354 
L 333.935729 29.893466 
L 335.721329 29.767929 
L 337.506929 29.711313 
L 339.328241 29.746489 
L 341.113841 29.859009 
L 342.899441 30.006436 
L 344.072866 30.08961 
L 344.685041 30.143353 
L 346.506353 30.215404 
L 348.291953 30.174375 
L 349.438797 30.08961 
L 350.077553 30.051473 
L 351.863153 29.918272 
L 353.684465 29.818593 
L 355.470065 29.812289 
L 357.255665 29.930174 
L 358.398502 30.08961 
L 359.041265 30.201365 
L 360.862577 30.672902 
L 362.648177 31.277763 
L 364.433777 32.046435 
L 365.676718 32.75073 
L 366.219377 33.154485 
L 368.040689 35.050209 
L 368.282607 35.41185 
L 369.550131 38.07297 
L 369.826289 38.969961 
L 370.212406 40.73409 
L 370.519126 43.39521 
L 370.565426 46.49985 
L 370.35737 49.16097 
L 369.928749 51.82209 
L 369.826289 52.237843 
L 369.124636 54.48321 
L 368.063376 57.14433 
L 368.040689 57.190436 
L 366.590753 59.80545 
L 366.219377 60.410846 
L 364.948621 62.46657 
L 364.433777 63.271095 
L 363.321483 65.12769 
L 362.648177 66.286399 
L 361.839855 67.78881 
L 360.862577 69.785103 
L 360.550281 70.44993 
L 359.42707 73.11105 
L 359.041265 74.180941 
L 358.452317 75.77217 
L 357.637855 78.43329 
L 357.255665 79.965291 
L 356.943338 81.09441 
L 356.335229 83.75553 
L 355.864954 86.41665 
L 355.470065 89.358368 
L 355.44386 89.52129 
L 355.09805 92.18241 
L 354.835785 94.84353 
L 354.639831 97.50465 
L 354.497083 100.16577 
L 354.397496 102.82689 
L 354.333487 105.48801 
L 354.299721 108.14913 
L 354.293117 110.81025 
L 354.312948 113.47137 
L 354.360896 116.13249 
L 354.441011 118.79361 
L 354.559636 121.45473 
L 354.725428 124.11585 
L 354.949638 126.77697 
L 355.246798 129.43809 
L 355.470065 131.004431 
L 355.597354 132.09921 
L 356.058481 135.20385 
L 356.577749 137.86497 
L 357.246177 140.52609 
L 357.255665 140.559001 
L 357.935964 143.18721 
L 358.813983 145.84833 
L 359.041265 146.451713 
L 359.790585 148.50945 
L 360.862577 150.950299 
L 360.961822 151.17057 
L 362.261773 153.83169 
L 362.648177 154.561742 
L 363.737366 156.49281 
L 364.433777 157.686605 
L 365.335703 159.15393 
L 366.219377 160.62812 
L 366.91876 161.81505 
L 368.040689 163.880882 
L 368.327136 164.47617 
L 369.416834 167.13729 
L 369.826289 168.339389 
L 370.219589 169.79841 
L 370.776149 172.45953 
L 371.196128 175.12065 
L 371.542959 178.22529 
L 371.611889 179.140124 
L 371.710879 180.88641 
L 371.811918 183.54753 
L 371.877863 186.20865 
L 371.920002 188.86977 
L 371.946517 191.53089 
L 371.962947 194.19201 
L 371.972829 196.85313 
L 371.978374 199.51425 
L 371.981058 202.17537 
L 371.982014 204.83649 
L 371.982176 207.49761 
L 371.982251 210.15873 
L 371.982624 212.81985 
L 371.98331 215.48097 
L 371.984048 218.14209 
L 371.984489 220.80321 
L 371.984345 223.90785 
L 371.983723 226.56897 
L 371.982941 229.23009 
L 371.982325 231.89121 
L 371.982011 234.55233 
L 371.981779 237.21345 
L 371.981012 239.87457 
L 371.978754 242.53569 
L 371.97375 245.19681 
L 371.964356 247.85793 
L 371.948199 250.51905 
L 371.921572 253.18017 
L 371.878617 255.84129 
L 371.810392 258.50241 
L 371.703927 261.16353 
L 371.611889 262.672472 
L 371.516738 263.82465 
L 371.121875 266.92929 
L 370.615492 269.59041 
L 369.896437 272.25153 
L 369.826289 272.441384 
L 368.526519 274.91265 
L 368.040689 275.601418 
L 366.219377 277.387403 
L 365.95397 277.57377 
L 364.433777 278.403138 
L 362.648177 279.141967 
L 360.862577 279.723514 
L 359.041265 280.175093 
L 358.67689 280.23489 
L 357.255665 280.422887 
L 355.470065 280.528754 
L 353.684465 280.512706 
L 351.863153 280.406681 
L 350.077553 280.2713 
L 349.46001 280.23489 
L 348.291953 280.149643 
L 346.506353 280.11276 
L 344.685041 280.189265 
L 344.173184 280.23489 
L 342.899441 280.3266 
L 341.113841 280.47331 
L 339.328241 280.582409 
L 337.506929 280.612516 
L 335.721329 280.551294 
L 333.935729 280.423287 
L 332.150129 280.276945 
L 331.454112 280.23489 
L 330.328817 280.150719 
L 328.543217 280.117059 
L 326.757617 280.195666 
L 326.321603 280.23489 
L 324.972017 280.332959 
L 323.150705 280.481625 
L 321.365105 280.586807 
L 319.579505 280.611776 
L 317.793905 280.54721 
L 315.972593 280.414464 
L 314.186993 280.268835 
L 313.608381 280.23489 
L 312.401393 280.147239 
L 310.615793 280.118114 
L 308.794481 280.203489 
L 308.452184 280.23489 
L 307.008881 280.341834 
L 305.223281 280.486952 
L 303.437681 280.589519 
L 301.616369 280.610341 
L 299.830769 280.540863 
L 298.045169 280.408547 
L 296.259569 280.263511 
L 295.75542 280.23489 
L 294.438257 280.142331 
L 292.652657 280.120042 
L 290.867057 280.208868 
L 290.586788 280.23489 
L 289.081457 280.347777 
L 287.260145 280.494809 
L 285.474545 280.593336 
L 283.688945 280.6092 
L 281.903345 280.536501 
L 280.082033 280.399633 
L 278.296433 280.255658 
L 277.918123 280.23489 
L 276.510833 280.13927 
L 274.725233 280.121558 
L 272.903921 280.217173 
L 272.716246 280.23489 
L 271.118321 280.356724 
L 269.332721 280.499954 
L 267.547121 280.595709 
L 265.725809 280.607215 
L 263.940209 280.52977 
L 262.154609 280.39367 
L 260.369009 280.250516 
L 260.073567 280.23489 
L 258.547697 280.135 
L 256.762097 280.124173 
L 254.976497 280.222861 
L 254.850358 280.23489 
L 253.190897 280.3627 
L 251.369585 280.507514 
L 249.583985 280.598989 
L 247.798385 280.605654 
L 246.012785 280.525022 
L 244.191473 280.384365 
L 242.405873 280.242159 
L 242.26464 280.23489 
L 240.620273 280.130151 
L 238.834673 280.121294 
L 237.013361 280.221217 
L 236.862428 280.23489 
L 235.227761 280.354492 
L 233.442161 280.478413 
L 231.656561 280.535568 
L 229.835249 280.479335 
L 228.049649 280.293159 
L 227.714371 280.23489 
L 226.264049 279.922097 
L 224.478449 279.398071 
L 222.657137 278.716872 
L 220.871537 277.852569 
L 220.446265 277.57377 
L 219.085937 276.425599 
L 217.830599 274.91265 
L 217.300337 274.061988 
L 216.514118 272.25153 
L 215.674741 269.59041 
L 215.479025 268.718817 
L 215.18948 266.92929 
z
" clip-path="url(#p797c13c88a)" style="fill: none; stroke: #08509b; stroke-width: 1.5"/>
   </g>
   <g id="PathCollection_9"/>
   <g id="patch_3">
    <path d="M 34.240625 288.21825 
L 34.240625 22.10625 
" style="fill: none; stroke: #000000; stroke-width: 0.8; stroke-linejoin: miter; stroke-linecap: square"/>
   </g>
   <g id="patch_4">
    <path d="M 391.360625 288.21825 
L 391.360625 22.10625 
" style="fill: none; stroke: #000000; stroke-width: 0.8; stroke-linejoin: miter; stroke-linecap: square"/>
   </g>
   <g id="patch_5">
    <path d="M 34.240625 288.21825 
L 391.360625 288.21825 
" style="fill: none; stroke: #000000; stroke-width: 0.8; stroke-linejoin: miter; stroke-linecap: square"/>
   </g>
   <g id="patch_6">
    <path d="M 34.240625 22.10625 
L 391.360625 22.10625 
" style="fill: none; stroke: #000000; stroke-width: 0.8; stroke-linejoin: miter; stroke-linecap: square"/>
   </g>
   <g id="text_16">
    <!-- 8.2_cross_-39.0 -->
    <g transform="translate(166.181563 16.10625)scale(0.12 -0.12)">
     <defs>
      <path id="DejaVuSans-2e" d="M 684 794 
L 1344 794 
L 1344 0 
L 684 0 
L 684 794 
z
" transform="scale(0.015625)"/>
      <path id="DejaVuSans-5f" d="M 3263 -1063 
L 3263 -1509 
L -63 -1509 
L -63 -1063 
L 3263 -1063 
z
" transform="scale(0.015625)"/>
      <path id="DejaVuSans-63" d="M 3122 3366 
L 3122 2828 
Q 2878 2963 2633 3030 
Q 2388 3097 2138 3097 
Q 1578 3097 1268 2742 
Q 959 2388 959 1747 
Q 959 1106 1268 751 
Q 1578 397 2138 397 
Q 2388 397 2633 464 
Q 2878 531 3122 666 
L 3122 134 
Q 2881 22 2623 -34 
Q 2366 -91 2075 -91 
Q 1284 -91 818 406 
Q 353 903 353 1747 
Q 353 2603 823 3093 
Q 1294 3584 2113 3584 
Q 2378 3584 2631 3529 
Q 2884 3475 3122 3366 
z
" transform="scale(0.015625)"/>
      <path id="DejaVuSans-72" d="M 2631 2963 
Q 2534 3019 2420 3045 
Q 2306 3072 2169 3072 
Q 1681 3072 1420 2755 
Q 1159 2438 1159 1844 
L 1159 0 
L 581 0 
L 581 3500 
L 1159 3500 
L 1159 2956 
Q 1341 3275 1631 3429 
Q 1922 3584 2338 3584 
Q 2397 3584 2469 3576 
Q 2541 3569 2628 3553 
L 2631 2963 
z
" transform="scale(0.015625)"/>
      <path id="DejaVuSans-73" d="M 2834 3397 
L 2834 2853 
Q 2591 2978 2328 3040 
Q 2066 3103 1784 3103 
Q 1356 3103 1142 2972 
Q 928 2841 928 2578 
Q 928 2378 1081 2264 
Q 1234 2150 1697 2047 
L 1894 2003 
Q 2506 1872 2764 1633 
Q 3022 1394 3022 966 
Q 3022 478 2636 193 
Q 2250 -91 1575 -91 
Q 1294 -91 989 -36 
Q 684 19 347 128 
L 347 722 
Q 666 556 975 473 
Q 1284 391 1588 391 
Q 1994 391 2212 530 
Q 2431 669 2431 922 
Q 2431 1156 2273 1281 
Q 2116 1406 1581 1522 
L 1381 1569 
Q 847 1681 609 1914 
Q 372 2147 372 2553 
Q 372 3047 722 3315 
Q 1072 3584 1716 3584 
Q 2034 3584 2315 3537 
Q 2597 3491 2834 3397 
z
" transform="scale(0.015625)"/>
      <path id="DejaVuSans-2d" d="M 313 2009 
L 1997 2009 
L 1997 1497 
L 313 1497 
L 313 2009 
z
" transform="scale(0.015625)"/>
      <path id="DejaVuSans-39" d="M 703 97 
L 703 672 
Q 941 559 1184 500 
Q 1428 441 1663 441 
Q 2288 441 2617 861 
Q 2947 1281 2994 2138 
Q 2813 1869 2534 1725 
Q 2256 1581 1919 1581 
Q 1219 1581 811 2004 
Q 403 2428 403 3163 
Q 403 3881 828 4315 
Q 1253 4750 1959 4750 
Q 2769 4750 3195 4129 
Q 3622 3509 3622 2328 
Q 3622 1225 3098 567 
Q 2575 -91 1691 -91 
Q 1453 -91 1209 -44 
Q 966 3 703 97 
z
M 1959 2075 
Q 2384 2075 2632 2365 
Q 2881 2656 2881 3163 
Q 2881 3666 2632 3958 
Q 2384 4250 1959 4250 
Q 1534 4250 1286 3958 
Q 1038 3666 1038 3163 
Q 1038 2656 1286 2365 
Q 1534 2075 1959 2075 
z
" transform="scale(0.015625)"/>
     </defs>
     <use xlink:href="#DejaVuSans-38"/>
     <use xlink:href="#DejaVuSans-2e" x="63.623047"/>
     <use xlink:href="#DejaVuSans-32" x="95.410156"/>
     <use xlink:href="#DejaVuSans-5f" x="159.033203"/>
     <use xlink:href="#DejaVuSans-63" x="209.033203"/>
     <use xlink:href="#DejaVuSans-72" x="264.013672"/>
     <use xlink:href="#DejaVuSans-6f" x="302.876953"/>
     <use xlink:href="#DejaVuSans-73" x="364.058594"/>
     <use xlink:href="#DejaVuSans-73" x="416.158203"/>
     <use xlink:href="#DejaVuSans-5f" x="468.257812"/>
     <use xlink:href="#DejaVuSans-2d" x="518.257812"/>
     <use xlink:href="#DejaVuSans-33" x="554.341797"/>
     <use xlink:href="#DejaVuSans-39" x="617.964844"/>
     <use xlink:href="#DejaVuSans-2e" x="681.587891"/>
     <use xlink:href="#DejaVuSans-30" x="713.375"/>
    </g>
   </g>
  </g>
 </g>
 <defs>
  <clipPath id="p797c13c88a">
   <rect x="34.240625" y="22.10625" width="357.12" height="266.112"/>
  </clipPath>
 </defs>
</svg>
