<?xml version="1.0" encoding="utf-8" standalone="no"?>
<!DOCTYPE svg PUBLIC "-//W3C//DTD SVG 1.1//EN"
  "http://www.w3.org/Graphics/SVG/1.1/DTD/svg11.dtd">
<svg xmlns:xlink="http://www.w3.org/1999/xlink" width="408.104375pt" height="325.7745pt" viewBox="0 0 408.104375 325.7745" xmlns="http://www.w3.org/2000/svg" version="1.1">
 <metadata>
  <rdf:RDF xmlns:dc="http://purl.org/dc/elements/1.1/" xmlns:cc="http://creativecommons.org/ns#" xmlns:rdf="http://www.w3.org/1999/02/22-rdf-syntax-ns#">
   <cc:Work>
    <dc:type rdf:resource="http://purl.org/dc/dcmitype/StillImage"/>
    <dc:date>2024-07-12T12:16:05.222478</dc:date>
    <dc:format>image/svg+xml</dc:format>
    <dc:creator>
     <cc:Agent>
      <dc:title>Matplotlib v3.5.3, https://matplotlib.org/</dc:title>
     </cc:Agent>
    </dc:creator>
   </cc:Work>
  </rdf:RDF>
 </metadata>
 <defs>
  <style type="text/css">*{stroke-linejoin: round; stroke-linecap: butt}</style>
 </defs>
 <g id="figure_1">
  <g id="patch_1">
   <path d="M 0 325.7745 
L 408.104375 325.7745 
L 408.104375 0 
L 0 0 
z
" style="fill: #ffffff"/>
  </g>
  <g id="axes_1">
   <g id="patch_2">
    <path d="M 34.240625 288.21825 
L 391.360625 288.21825 
L 391.360625 22.10625 
L 34.240625 22.10625 
z
" style="fill: #ffffff"/>
   </g>
   <g id="matplotlib.axis_1">
    <g id="xtick_1">
     <g id="line2d_1">
      <defs>
       <path id="md3bb44675f" d="M 0 0 
L 0 3.5 
" style="stroke: #000000; stroke-width: 0.8"/>
      </defs>
      <g>
       <use xlink:href="#md3bb44675f" x="34.240625" y="288.21825" style="stroke: #000000; stroke-width: 0.8"/>
      </g>
     </g>
     <g id="text_1">
      <!-- 0 -->
      <g transform="translate(31.059375 302.816687)scale(0.1 -0.1)">
       <defs>
        <path id="DejaVuSans-30" d="M 2034 4250 
Q 1547 4250 1301 3770 
Q 1056 3291 1056 2328 
Q 1056 1369 1301 889 
Q 1547 409 2034 409 
Q 2525 409 2770 889 
Q 3016 1369 3016 2328 
Q 3016 3291 2770 3770 
Q 2525 4250 2034 4250 
z
M 2034 4750 
Q 2819 4750 3233 4129 
Q 3647 3509 3647 2328 
Q 3647 1150 3233 529 
Q 2819 -91 2034 -91 
Q 1250 -91 836 529 
Q 422 1150 422 2328 
Q 422 3509 836 4129 
Q 1250 4750 2034 4750 
z
" transform="scale(0.015625)"/>
       </defs>
       <use xlink:href="#DejaVuSans-30"/>
      </g>
     </g>
    </g>
    <g id="xtick_2">
     <g id="line2d_2">
      <g>
       <use xlink:href="#md3bb44675f" x="105.664625" y="288.21825" style="stroke: #000000; stroke-width: 0.8"/>
      </g>
     </g>
     <g id="text_2">
      <!-- 20 -->
      <g transform="translate(99.302125 302.816687)scale(0.1 -0.1)">
       <defs>
        <path id="DejaVuSans-32" d="M 1228 531 
L 3431 531 
L 3431 0 
L 469 0 
L 469 531 
Q 828 903 1448 1529 
Q 2069 2156 2228 2338 
Q 2531 2678 2651 2914 
Q 2772 3150 2772 3378 
Q 2772 3750 2511 3984 
Q 2250 4219 1831 4219 
Q 1534 4219 1204 4116 
Q 875 4013 500 3803 
L 500 4441 
Q 881 4594 1212 4672 
Q 1544 4750 1819 4750 
Q 2544 4750 2975 4387 
Q 3406 4025 3406 3419 
Q 3406 3131 3298 2873 
Q 3191 2616 2906 2266 
Q 2828 2175 2409 1742 
Q 1991 1309 1228 531 
z
" transform="scale(0.015625)"/>
       </defs>
       <use xlink:href="#DejaVuSans-32"/>
       <use xlink:href="#DejaVuSans-30" x="63.623047"/>
      </g>
     </g>
    </g>
    <g id="xtick_3">
     <g id="line2d_3">
      <g>
       <use xlink:href="#md3bb44675f" x="177.088625" y="288.21825" style="stroke: #000000; stroke-width: 0.8"/>
      </g>
     </g>
     <g id="text_3">
      <!-- 40 -->
      <g transform="translate(170.726125 302.816687)scale(0.1 -0.1)">
       <defs>
        <path id="DejaVuSans-34" d="M 2419 4116 
L 825 1625 
L 2419 1625 
L 2419 4116 
z
M 2253 4666 
L 3047 4666 
L 3047 1625 
L 3713 1625 
L 3713 1100 
L 3047 1100 
L 3047 0 
L 2419 0 
L 2419 1100 
L 313 1100 
L 313 1709 
L 2253 4666 
z
" transform="scale(0.015625)"/>
       </defs>
       <use xlink:href="#DejaVuSans-34"/>
       <use xlink:href="#DejaVuSans-30" x="63.623047"/>
      </g>
     </g>
    </g>
    <g id="xtick_4">
     <g id="line2d_4">
      <g>
       <use xlink:href="#md3bb44675f" x="248.512625" y="288.21825" style="stroke: #000000; stroke-width: 0.8"/>
      </g>
     </g>
     <g id="text_4">
      <!-- 60 -->
      <g transform="translate(242.150125 302.816687)scale(0.1 -0.1)">
       <defs>
        <path id="DejaVuSans-36" d="M 2113 2584 
Q 1688 2584 1439 2293 
Q 1191 2003 1191 1497 
Q 1191 994 1439 701 
Q 1688 409 2113 409 
Q 2538 409 2786 701 
Q 3034 994 3034 1497 
Q 3034 2003 2786 2293 
Q 2538 2584 2113 2584 
z
M 3366 4563 
L 3366 3988 
Q 3128 4100 2886 4159 
Q 2644 4219 2406 4219 
Q 1781 4219 1451 3797 
Q 1122 3375 1075 2522 
Q 1259 2794 1537 2939 
Q 1816 3084 2150 3084 
Q 2853 3084 3261 2657 
Q 3669 2231 3669 1497 
Q 3669 778 3244 343 
Q 2819 -91 2113 -91 
Q 1303 -91 875 529 
Q 447 1150 447 2328 
Q 447 3434 972 4092 
Q 1497 4750 2381 4750 
Q 2619 4750 2861 4703 
Q 3103 4656 3366 4563 
z
" transform="scale(0.015625)"/>
       </defs>
       <use xlink:href="#DejaVuSans-36"/>
       <use xlink:href="#DejaVuSans-30" x="63.623047"/>
      </g>
     </g>
    </g>
    <g id="xtick_5">
     <g id="line2d_5">
      <g>
       <use xlink:href="#md3bb44675f" x="319.936625" y="288.21825" style="stroke: #000000; stroke-width: 0.8"/>
      </g>
     </g>
     <g id="text_5">
      <!-- 80 -->
      <g transform="translate(313.574125 302.816687)scale(0.1 -0.1)">
       <defs>
        <path id="DejaVuSans-38" d="M 2034 2216 
Q 1584 2216 1326 1975 
Q 1069 1734 1069 1313 
Q 1069 891 1326 650 
Q 1584 409 2034 409 
Q 2484 409 2743 651 
Q 3003 894 3003 1313 
Q 3003 1734 2745 1975 
Q 2488 2216 2034 2216 
z
M 1403 2484 
Q 997 2584 770 2862 
Q 544 3141 544 3541 
Q 544 4100 942 4425 
Q 1341 4750 2034 4750 
Q 2731 4750 3128 4425 
Q 3525 4100 3525 3541 
Q 3525 3141 3298 2862 
Q 3072 2584 2669 2484 
Q 3125 2378 3379 2068 
Q 3634 1759 3634 1313 
Q 3634 634 3220 271 
Q 2806 -91 2034 -91 
Q 1263 -91 848 271 
Q 434 634 434 1313 
Q 434 1759 690 2068 
Q 947 2378 1403 2484 
z
M 1172 3481 
Q 1172 3119 1398 2916 
Q 1625 2713 2034 2713 
Q 2441 2713 2670 2916 
Q 2900 3119 2900 3481 
Q 2900 3844 2670 4047 
Q 2441 4250 2034 4250 
Q 1625 4250 1398 4047 
Q 1172 3844 1172 3481 
z
" transform="scale(0.015625)"/>
       </defs>
       <use xlink:href="#DejaVuSans-38"/>
       <use xlink:href="#DejaVuSans-30" x="63.623047"/>
      </g>
     </g>
    </g>
    <g id="xtick_6">
     <g id="line2d_6">
      <g>
       <use xlink:href="#md3bb44675f" x="391.360625" y="288.21825" style="stroke: #000000; stroke-width: 0.8"/>
      </g>
     </g>
     <g id="text_6">
      <!-- 100 -->
      <g transform="translate(381.816875 302.816687)scale(0.1 -0.1)">
       <defs>
        <path id="DejaVuSans-31" d="M 794 531 
L 1825 531 
L 1825 4091 
L 703 3866 
L 703 4441 
L 1819 4666 
L 2450 4666 
L 2450 531 
L 3481 531 
L 3481 0 
L 794 0 
L 794 531 
z
" transform="scale(0.015625)"/>
       </defs>
       <use xlink:href="#DejaVuSans-31"/>
       <use xlink:href="#DejaVuSans-30" x="63.623047"/>
       <use xlink:href="#DejaVuSans-30" x="127.246094"/>
      </g>
     </g>
    </g>
    <g id="text_7">
     <!-- axialRotation -->
     <g transform="translate(180.024844 316.494812)scale(0.1 -0.1)">
      <defs>
       <path id="DejaVuSans-61" d="M 2194 1759 
Q 1497 1759 1228 1600 
Q 959 1441 959 1056 
Q 959 750 1161 570 
Q 1363 391 1709 391 
Q 2188 391 2477 730 
Q 2766 1069 2766 1631 
L 2766 1759 
L 2194 1759 
z
M 3341 1997 
L 3341 0 
L 2766 0 
L 2766 531 
Q 2569 213 2275 61 
Q 1981 -91 1556 -91 
Q 1019 -91 701 211 
Q 384 513 384 1019 
Q 384 1609 779 1909 
Q 1175 2209 1959 2209 
L 2766 2209 
L 2766 2266 
Q 2766 2663 2505 2880 
Q 2244 3097 1772 3097 
Q 1472 3097 1187 3025 
Q 903 2953 641 2809 
L 641 3341 
Q 956 3463 1253 3523 
Q 1550 3584 1831 3584 
Q 2591 3584 2966 3190 
Q 3341 2797 3341 1997 
z
" transform="scale(0.015625)"/>
       <path id="DejaVuSans-78" d="M 3513 3500 
L 2247 1797 
L 3578 0 
L 2900 0 
L 1881 1375 
L 863 0 
L 184 0 
L 1544 1831 
L 300 3500 
L 978 3500 
L 1906 2253 
L 2834 3500 
L 3513 3500 
z
" transform="scale(0.015625)"/>
       <path id="DejaVuSans-69" d="M 603 3500 
L 1178 3500 
L 1178 0 
L 603 0 
L 603 3500 
z
M 603 4863 
L 1178 4863 
L 1178 4134 
L 603 4134 
L 603 4863 
z
" transform="scale(0.015625)"/>
       <path id="DejaVuSans-6c" d="M 603 4863 
L 1178 4863 
L 1178 0 
L 603 0 
L 603 4863 
z
" transform="scale(0.015625)"/>
       <path id="DejaVuSans-52" d="M 2841 2188 
Q 3044 2119 3236 1894 
Q 3428 1669 3622 1275 
L 4263 0 
L 3584 0 
L 2988 1197 
Q 2756 1666 2539 1819 
Q 2322 1972 1947 1972 
L 1259 1972 
L 1259 0 
L 628 0 
L 628 4666 
L 2053 4666 
Q 2853 4666 3247 4331 
Q 3641 3997 3641 3322 
Q 3641 2881 3436 2590 
Q 3231 2300 2841 2188 
z
M 1259 4147 
L 1259 2491 
L 2053 2491 
Q 2509 2491 2742 2702 
Q 2975 2913 2975 3322 
Q 2975 3731 2742 3939 
Q 2509 4147 2053 4147 
L 1259 4147 
z
" transform="scale(0.015625)"/>
       <path id="DejaVuSans-6f" d="M 1959 3097 
Q 1497 3097 1228 2736 
Q 959 2375 959 1747 
Q 959 1119 1226 758 
Q 1494 397 1959 397 
Q 2419 397 2687 759 
Q 2956 1122 2956 1747 
Q 2956 2369 2687 2733 
Q 2419 3097 1959 3097 
z
M 1959 3584 
Q 2709 3584 3137 3096 
Q 3566 2609 3566 1747 
Q 3566 888 3137 398 
Q 2709 -91 1959 -91 
Q 1206 -91 779 398 
Q 353 888 353 1747 
Q 353 2609 779 3096 
Q 1206 3584 1959 3584 
z
" transform="scale(0.015625)"/>
       <path id="DejaVuSans-74" d="M 1172 4494 
L 1172 3500 
L 2356 3500 
L 2356 3053 
L 1172 3053 
L 1172 1153 
Q 1172 725 1289 603 
Q 1406 481 1766 481 
L 2356 481 
L 2356 0 
L 1766 0 
Q 1100 0 847 248 
Q 594 497 594 1153 
L 594 3053 
L 172 3053 
L 172 3500 
L 594 3500 
L 594 4494 
L 1172 4494 
z
" transform="scale(0.015625)"/>
       <path id="DejaVuSans-6e" d="M 3513 2113 
L 3513 0 
L 2938 0 
L 2938 2094 
Q 2938 2591 2744 2837 
Q 2550 3084 2163 3084 
Q 1697 3084 1428 2787 
Q 1159 2491 1159 1978 
L 1159 0 
L 581 0 
L 581 3500 
L 1159 3500 
L 1159 2956 
Q 1366 3272 1645 3428 
Q 1925 3584 2291 3584 
Q 2894 3584 3203 3211 
Q 3513 2838 3513 2113 
z
" transform="scale(0.015625)"/>
      </defs>
      <use xlink:href="#DejaVuSans-61"/>
      <use xlink:href="#DejaVuSans-78" x="61.279297"/>
      <use xlink:href="#DejaVuSans-69" x="120.458984"/>
      <use xlink:href="#DejaVuSans-61" x="148.242188"/>
      <use xlink:href="#DejaVuSans-6c" x="209.521484"/>
      <use xlink:href="#DejaVuSans-52" x="237.304688"/>
      <use xlink:href="#DejaVuSans-6f" x="302.287109"/>
      <use xlink:href="#DejaVuSans-74" x="363.46875"/>
      <use xlink:href="#DejaVuSans-61" x="402.677734"/>
      <use xlink:href="#DejaVuSans-74" x="463.957031"/>
      <use xlink:href="#DejaVuSans-69" x="503.166016"/>
      <use xlink:href="#DejaVuSans-6f" x="530.949219"/>
      <use xlink:href="#DejaVuSans-6e" x="592.130859"/>
     </g>
    </g>
   </g>
   <g id="matplotlib.axis_2">
    <g id="ytick_1">
     <g id="line2d_7">
      <defs>
       <path id="m211b3e066a" d="M 0 0 
L -3.5 0 
" style="stroke: #000000; stroke-width: 0.8"/>
      </defs>
      <g>
       <use xlink:href="#m211b3e066a" x="34.240625" y="288.21825" style="stroke: #000000; stroke-width: 0.8"/>
      </g>
     </g>
     <g id="text_8">
      <!-- 0 -->
      <g transform="translate(20.878125 292.017469)scale(0.1 -0.1)">
       <use xlink:href="#DejaVuSans-30"/>
      </g>
     </g>
    </g>
    <g id="ytick_2">
     <g id="line2d_8">
      <g>
       <use xlink:href="#m211b3e066a" x="34.240625" y="243.86625" style="stroke: #000000; stroke-width: 0.8"/>
      </g>
     </g>
     <g id="text_9">
      <!-- 1 -->
      <g transform="translate(20.878125 247.665469)scale(0.1 -0.1)">
       <use xlink:href="#DejaVuSans-31"/>
      </g>
     </g>
    </g>
    <g id="ytick_3">
     <g id="line2d_9">
      <g>
       <use xlink:href="#m211b3e066a" x="34.240625" y="199.51425" style="stroke: #000000; stroke-width: 0.8"/>
      </g>
     </g>
     <g id="text_10">
      <!-- 2 -->
      <g transform="translate(20.878125 203.313469)scale(0.1 -0.1)">
       <use xlink:href="#DejaVuSans-32"/>
      </g>
     </g>
    </g>
    <g id="ytick_4">
     <g id="line2d_10">
      <g>
       <use xlink:href="#m211b3e066a" x="34.240625" y="155.16225" style="stroke: #000000; stroke-width: 0.8"/>
      </g>
     </g>
     <g id="text_11">
      <!-- 3 -->
      <g transform="translate(20.878125 158.961469)scale(0.1 -0.1)">
       <defs>
        <path id="DejaVuSans-33" d="M 2597 2516 
Q 3050 2419 3304 2112 
Q 3559 1806 3559 1356 
Q 3559 666 3084 287 
Q 2609 -91 1734 -91 
Q 1441 -91 1130 -33 
Q 819 25 488 141 
L 488 750 
Q 750 597 1062 519 
Q 1375 441 1716 441 
Q 2309 441 2620 675 
Q 2931 909 2931 1356 
Q 2931 1769 2642 2001 
Q 2353 2234 1838 2234 
L 1294 2234 
L 1294 2753 
L 1863 2753 
Q 2328 2753 2575 2939 
Q 2822 3125 2822 3475 
Q 2822 3834 2567 4026 
Q 2313 4219 1838 4219 
Q 1578 4219 1281 4162 
Q 984 4106 628 3988 
L 628 4550 
Q 988 4650 1302 4700 
Q 1616 4750 1894 4750 
Q 2613 4750 3031 4423 
Q 3450 4097 3450 3541 
Q 3450 3153 3228 2886 
Q 3006 2619 2597 2516 
z
" transform="scale(0.015625)"/>
       </defs>
       <use xlink:href="#DejaVuSans-33"/>
      </g>
     </g>
    </g>
    <g id="ytick_5">
     <g id="line2d_11">
      <g>
       <use xlink:href="#m211b3e066a" x="34.240625" y="110.81025" style="stroke: #000000; stroke-width: 0.8"/>
      </g>
     </g>
     <g id="text_12">
      <!-- 4 -->
      <g transform="translate(20.878125 114.609469)scale(0.1 -0.1)">
       <use xlink:href="#DejaVuSans-34"/>
      </g>
     </g>
    </g>
    <g id="ytick_6">
     <g id="line2d_12">
      <g>
       <use xlink:href="#m211b3e066a" x="34.240625" y="66.45825" style="stroke: #000000; stroke-width: 0.8"/>
      </g>
     </g>
     <g id="text_13">
      <!-- 5 -->
      <g transform="translate(20.878125 70.257469)scale(0.1 -0.1)">
       <defs>
        <path id="DejaVuSans-35" d="M 691 4666 
L 3169 4666 
L 3169 4134 
L 1269 4134 
L 1269 2991 
Q 1406 3038 1543 3061 
Q 1681 3084 1819 3084 
Q 2600 3084 3056 2656 
Q 3513 2228 3513 1497 
Q 3513 744 3044 326 
Q 2575 -91 1722 -91 
Q 1428 -91 1123 -41 
Q 819 9 494 109 
L 494 744 
Q 775 591 1075 516 
Q 1375 441 1709 441 
Q 2250 441 2565 725 
Q 2881 1009 2881 1497 
Q 2881 1984 2565 2268 
Q 2250 2553 1709 2553 
Q 1456 2553 1204 2497 
Q 953 2441 691 2322 
L 691 4666 
z
" transform="scale(0.015625)"/>
       </defs>
       <use xlink:href="#DejaVuSans-35"/>
      </g>
     </g>
    </g>
    <g id="ytick_7">
     <g id="line2d_13">
      <g>
       <use xlink:href="#m211b3e066a" x="34.240625" y="22.10625" style="stroke: #000000; stroke-width: 0.8"/>
      </g>
     </g>
     <g id="text_14">
      <!-- 6 -->
      <g transform="translate(20.878125 25.905469)scale(0.1 -0.1)">
       <use xlink:href="#DejaVuSans-36"/>
      </g>
     </g>
    </g>
    <g id="text_15">
     <!-- zShift -->
     <g transform="translate(14.798438 169.151312)rotate(-90)scale(0.1 -0.1)">
      <defs>
       <path id="DejaVuSans-7a" d="M 353 3500 
L 3084 3500 
L 3084 2975 
L 922 459 
L 3084 459 
L 3084 0 
L 275 0 
L 275 525 
L 2438 3041 
L 353 3041 
L 353 3500 
z
" transform="scale(0.015625)"/>
       <path id="DejaVuSans-53" d="M 3425 4513 
L 3425 3897 
Q 3066 4069 2747 4153 
Q 2428 4238 2131 4238 
Q 1616 4238 1336 4038 
Q 1056 3838 1056 3469 
Q 1056 3159 1242 3001 
Q 1428 2844 1947 2747 
L 2328 2669 
Q 3034 2534 3370 2195 
Q 3706 1856 3706 1288 
Q 3706 609 3251 259 
Q 2797 -91 1919 -91 
Q 1588 -91 1214 -16 
Q 841 59 441 206 
L 441 856 
Q 825 641 1194 531 
Q 1563 422 1919 422 
Q 2459 422 2753 634 
Q 3047 847 3047 1241 
Q 3047 1584 2836 1778 
Q 2625 1972 2144 2069 
L 1759 2144 
Q 1053 2284 737 2584 
Q 422 2884 422 3419 
Q 422 4038 858 4394 
Q 1294 4750 2059 4750 
Q 2388 4750 2728 4690 
Q 3069 4631 3425 4513 
z
" transform="scale(0.015625)"/>
       <path id="DejaVuSans-68" d="M 3513 2113 
L 3513 0 
L 2938 0 
L 2938 2094 
Q 2938 2591 2744 2837 
Q 2550 3084 2163 3084 
Q 1697 3084 1428 2787 
Q 1159 2491 1159 1978 
L 1159 0 
L 581 0 
L 581 4863 
L 1159 4863 
L 1159 2956 
Q 1366 3272 1645 3428 
Q 1925 3584 2291 3584 
Q 2894 3584 3203 3211 
Q 3513 2838 3513 2113 
z
" transform="scale(0.015625)"/>
       <path id="DejaVuSans-66" d="M 2375 4863 
L 2375 4384 
L 1825 4384 
Q 1516 4384 1395 4259 
Q 1275 4134 1275 3809 
L 1275 3500 
L 2222 3500 
L 2222 3053 
L 1275 3053 
L 1275 0 
L 697 0 
L 697 3053 
L 147 3053 
L 147 3500 
L 697 3500 
L 697 3744 
Q 697 4328 969 4595 
Q 1241 4863 1831 4863 
L 2375 4863 
z
" transform="scale(0.015625)"/>
      </defs>
      <use xlink:href="#DejaVuSans-7a"/>
      <use xlink:href="#DejaVuSans-53" x="52.490234"/>
      <use xlink:href="#DejaVuSans-68" x="115.966797"/>
      <use xlink:href="#DejaVuSans-69" x="179.345703"/>
      <use xlink:href="#DejaVuSans-66" x="207.128906"/>
      <use xlink:href="#DejaVuSans-74" x="240.583984"/>
     </g>
    </g>
   </g>
   <g id="PathCollection_1"/>
   <g id="PathCollection_2">
    <path d="M 54.021999 22.10625 
L 55.062931 24.76737 
L 55.774961 27.144766 
L 55.858639 27.42849 
L 56.479757 30.08961 
L 56.944701 32.75073 
L 57.288354 35.41185 
L 57.538427 38.07297 
L 57.560561 38.399085 
L 57.725319 40.73409 
L 57.856741 43.39521 
L 57.95809 46.49985 
L 58.013534 49.16097 
L 58.049255 51.82209 
L 58.071779 54.48321 
L 58.085789 57.14433 
L 58.094441 59.80545 
L 58.099714 62.46657 
L 58.10278 65.12769 
L 58.104348 67.78881 
L 58.104925 70.44993 
L 58.104956 73.11105 
L 58.104834 75.77217 
L 58.104842 78.43329 
L 58.105087 81.09441 
L 58.105492 83.75553 
L 58.105864 86.41665 
L 58.106011 89.52129 
L 58.105818 92.18241 
L 58.105438 94.84353 
L 58.105077 97.50465 
L 58.104931 100.16577 
L 58.10508 102.82689 
L 58.105443 105.48801 
L 58.105823 108.14913 
L 58.106014 110.81025 
L 58.105913 113.47137 
L 58.105574 116.13249 
L 58.105181 118.79361 
L 58.104947 121.45473 
L 58.104999 124.11585 
L 58.105309 126.77697 
L 58.105708 129.43809 
L 58.105981 132.09921 
L 58.10595 135.20385 
L 58.105641 137.86497 
L 58.105241 140.52609 
L 58.104968 143.18721 
L 58.10497 145.84833 
L 58.105245 148.50945 
L 58.105645 151.17057 
L 58.105952 153.83169 
L 58.106001 156.49281 
L 58.105764 159.15393 
L 58.105371 161.81505 
L 58.105034 164.47617 
L 58.104936 167.13729 
L 58.10513 169.79841 
L 58.105511 172.45953 
L 58.105872 175.12065 
L 58.106014 178.22529 
L 58.10582 180.88641 
L 58.105438 183.54753 
L 58.105077 186.20865 
L 58.104931 188.86977 
L 58.10508 191.53089 
L 58.105443 194.19201 
L 58.105823 196.85313 
L 58.106014 199.51425 
L 58.105913 202.17537 
L 58.105574 204.83649 
L 58.105181 207.49761 
L 58.104947 210.15873 
L 58.104999 212.81985 
L 58.105308 215.48097 
L 58.105707 218.14209 
L 58.105979 220.80321 
L 58.105944 223.90785 
L 58.105626 226.56897 
L 58.105208 229.23009 
L 58.104895 231.89121 
L 58.104813 234.55233 
L 58.104916 237.21345 
L 58.104974 239.87457 
L 58.10462 242.53569 
L 58.103423 245.19681 
L 58.100904 247.85793 
L 58.096441 250.51905 
L 58.089047 253.18017 
L 58.077043 255.84129 
L 58.057687 258.50241 
L 58.026817 261.16353 
L 57.978516 263.82465 
L 57.889331 266.92929 
L 57.772531 269.59041 
L 57.603921 272.25153 
L 57.560561 272.743006 
L 57.375559 274.91265 
L 57.062233 277.57377 
L 56.635154 280.23489 
L 56.060612 282.89601 
L 55.774961 283.920918 
L 55.311352 285.55713 
L 54.333126 288.21825 
" clip-path="url(#p13e49c6bd0)" style="fill: none; stroke: #dbe9f6; stroke-width: 1.5"/>
    <path d="M 172.480292 288.21825 
L 172.410353 287.991951 
L 171.643784 285.55713 
L 171.002557 282.89601 
L 170.624753 280.840612 
L 170.507547 280.23489 
L 170.109712 277.57377 
L 169.815678 274.91265 
L 169.601687 272.25153 
L 169.448795 269.59041 
L 169.341887 266.92929 
L 169.259379 263.82465 
L 169.214203 261.16353 
L 169.185077 258.50241 
L 169.1667 255.84129 
L 169.155267 253.18017 
L 169.148205 250.51905 
L 169.143897 247.85793 
L 169.141387 245.19681 
L 169.140096 242.53569 
L 169.139613 239.87457 
L 169.139579 237.21345 
L 169.139677 234.55233 
L 169.139676 231.89121 
L 169.139484 229.23009 
L 169.139161 226.56897 
L 169.138858 223.90785 
L 169.138732 220.80321 
L 169.13888 218.14209 
L 169.139184 215.48097 
L 169.139477 212.81985 
L 169.139601 210.15873 
L 169.139488 207.49761 
L 169.1392 204.83649 
L 169.138892 202.17537 
L 169.138732 199.51425 
L 169.138806 196.85313 
L 169.139074 194.19201 
L 169.139391 191.53089 
L 169.139585 188.86977 
L 169.139551 186.20865 
L 169.139307 183.54753 
L 169.138986 180.88641 
L 169.138761 178.22529 
L 169.138777 175.12065 
L 169.139021 172.45953 
L 169.139343 169.79841 
L 169.139567 167.13729 
L 169.139573 164.47617 
L 169.139358 161.81505 
L 169.139037 159.15393 
L 169.138785 156.49281 
L 169.138739 153.83169 
L 169.138923 151.17057 
L 169.139238 148.50945 
L 169.139513 145.84833 
L 169.139599 143.18721 
L 169.139449 140.52609 
L 169.139145 137.86497 
L 169.138851 135.20385 
L 169.13873 132.09921 
L 169.138879 129.43809 
L 169.139183 126.77697 
L 169.139477 124.11585 
L 169.139601 121.45473 
L 169.139488 118.79361 
L 169.1392 116.13249 
L 169.138892 113.47137 
L 169.138732 110.81025 
L 169.138806 108.14913 
L 169.139074 105.48801 
L 169.139391 102.82689 
L 169.139585 100.16577 
L 169.139551 97.50465 
L 169.139307 94.84353 
L 169.138986 92.18241 
L 169.138763 89.52129 
L 169.138782 86.41665 
L 169.139033 83.75553 
L 169.139369 81.09441 
L 169.139625 78.43329 
L 169.139697 75.77217 
L 169.139616 73.11105 
L 169.139565 70.44993 
L 169.139835 67.78881 
L 169.140771 65.12769 
L 169.142758 62.46657 
L 169.146289 59.80545 
L 169.152145 57.14433 
L 169.161657 54.48321 
L 169.176996 51.82209 
L 169.201469 49.16097 
L 169.239785 46.49985 
L 169.31059 43.39521 
L 169.403389 40.73409 
L 169.537433 38.07297 
L 169.726755 35.41185 
L 169.989027 32.75073 
L 170.346503 30.08961 
L 170.624753 28.524561 
L 170.809646 27.42849 
L 171.39393 24.76737 
L 172.165956 22.10625 
" clip-path="url(#p13e49c6bd0)" style="fill: none; stroke: #dbe9f6; stroke-width: 1.5"/>
   </g>
   <g id="PathCollection_3">
    <path d="M 34.240625 25.916451 
L 36.026225 26.205026 
L 37.847537 27.032442 
L 38.378213 27.42849 
L 39.633137 28.588535 
L 40.794876 30.08961 
L 41.418737 31.12761 
L 42.188641 32.75073 
L 43.133421 35.41185 
L 43.204337 35.682284 
L 43.734681 38.07297 
L 44.156721 40.73409 
L 44.451324 43.39521 
L 44.678131 46.49985 
L 44.801958 49.16097 
L 44.881594 51.82209 
L 44.931744 54.48321 
L 44.962917 57.14433 
L 44.982159 59.80545 
L 44.993861 62.46657 
L 45.000616 65.12769 
L 45.004008 67.78881 
L 45.005195 70.44993 
L 45.005201 73.11105 
L 45.004923 75.77217 
L 45.004987 78.43329 
L 45.005602 81.09441 
L 45.006556 83.75553 
L 45.00739 86.41665 
L 45.00766 89.52129 
L 45.00716 92.18241 
L 45.00626 94.84353 
L 45.005449 97.50465 
L 45.005169 100.16577 
L 45.005572 102.82689 
L 45.006439 105.48801 
L 45.0073 108.14913 
L 45.007689 110.81025 
L 45.007395 113.47137 
L 45.006577 116.13249 
L 45.005679 118.79361 
L 45.005187 121.45473 
L 45.005368 124.11585 
L 45.006125 126.77697 
L 45.007046 129.43809 
L 45.007632 132.09921 
L 45.007489 135.20385 
L 45.006733 137.86497 
L 45.005812 140.52609 
L 45.005225 143.18721 
L 45.005291 145.84833 
L 45.005973 148.50945 
L 45.006903 151.17057 
L 45.007575 153.83169 
L 45.007626 156.49281 
L 45.007028 159.15393 
L 45.006105 161.81505 
L 45.005358 164.47617 
L 45.005191 167.13729 
L 45.005695 169.79841 
L 45.006597 172.45953 
L 45.007408 175.12065 
L 45.007667 178.22529 
L 45.007163 180.88641 
L 45.006261 183.54753 
L 45.00545 186.20865 
L 45.00517 188.86977 
L 45.005572 191.53089 
L 45.006439 194.19201 
L 45.0073 196.85313 
L 45.007689 199.51425 
L 45.007395 202.17537 
L 45.006577 204.83649 
L 45.005679 207.49761 
L 45.005187 210.15873 
L 45.005368 212.81985 
L 45.006124 215.48097 
L 45.007043 218.14209 
L 45.007627 220.80321 
L 45.007474 223.90785 
L 45.006697 226.56897 
L 45.005729 229.23009 
L 45.005043 231.89121 
L 45.004901 234.55233 
L 45.005159 237.21345 
L 45.005247 239.87457 
L 45.004293 242.53569 
L 45.001289 245.19681 
L 44.995107 247.85793 
L 44.984252 250.51905 
L 44.966323 253.18017 
L 44.937232 255.84129 
L 44.890352 258.50241 
L 44.815669 261.16353 
L 44.699009 263.82465 
L 44.484035 266.92929 
L 44.202978 269.59041 
L 43.797725 272.25153 
L 43.225989 274.91265 
L 43.204337 274.987173 
L 42.306222 277.57377 
L 41.418737 279.466024 
L 40.957258 280.23489 
L 39.633137 281.934625 
L 38.565418 282.89601 
L 37.847537 283.414493 
L 36.026225 284.183514 
L 34.240625 284.408049 
" clip-path="url(#p13e49c6bd0)" style="fill: none; stroke: #bad6eb; stroke-width: 1.5"/>
    <path d="M 183.076002 288.21825 
L 181.882678 285.55713 
L 181.409777 284.205688 
L 180.96164 282.89601 
L 180.255219 280.23489 
L 179.726607 277.57377 
L 179.588465 276.646813 
L 179.326015 274.91265 
L 179.030679 272.25153 
L 178.81986 269.59041 
L 178.672608 266.92929 
L 178.559115 263.82465 
L 178.497064 261.16353 
L 178.457106 258.50241 
L 178.431918 255.84129 
L 178.416254 253.18017 
L 178.406582 250.51905 
L 178.40069 247.85793 
L 178.39727 245.19681 
L 178.395528 242.53569 
L 178.394894 239.87457 
L 178.394867 237.21345 
L 178.395003 234.55233 
L 178.394989 231.89121 
L 178.394707 229.23009 
L 178.394248 226.56897 
L 178.393831 223.90785 
L 178.393674 220.80321 
L 178.393898 218.14209 
L 178.394329 215.48097 
L 178.394733 212.81985 
L 178.394891 210.15873 
L 178.394716 207.49761 
L 178.394304 204.83649 
L 178.393877 202.17537 
L 178.393668 199.51425 
L 178.393789 196.85313 
L 178.394175 194.19201 
L 178.394617 191.53089 
L 178.394875 188.86977 
L 178.394809 186.20865 
L 178.394455 183.54753 
L 178.394005 180.88641 
L 178.393703 178.22529 
L 178.393746 175.12065 
L 178.3941 172.45953 
L 178.39455 169.79841 
L 178.394852 167.13729 
L 178.394843 164.47617 
L 178.394528 161.81505 
L 178.394076 159.15393 
L 178.393734 156.49281 
L 178.393687 153.83169 
L 178.393959 151.17057 
L 178.394405 148.50945 
L 178.394781 145.84833 
L 178.394884 143.18721 
L 178.394659 140.52609 
L 178.394227 137.86497 
L 178.393822 135.20385 
L 178.393671 132.09921 
L 178.393896 129.43809 
L 178.394328 126.77697 
L 178.394733 124.11585 
L 178.394891 121.45473 
L 178.394716 118.79361 
L 178.394304 116.13249 
L 178.393877 113.47137 
L 178.393668 110.81025 
L 178.393789 108.14913 
L 178.394175 105.48801 
L 178.394617 102.82689 
L 178.394875 100.16577 
L 178.394809 97.50465 
L 178.394456 94.84353 
L 178.394007 92.18241 
L 178.393706 89.52129 
L 178.393753 86.41665 
L 178.394117 83.75553 
L 178.394588 81.09441 
L 178.394936 78.43329 
L 178.395024 75.77217 
L 178.394905 73.11105 
L 178.394845 70.44993 
L 178.395261 67.78881 
L 178.396639 65.12769 
L 178.399523 62.46657 
L 178.404619 59.80545 
L 178.413057 57.14433 
L 178.426753 54.48321 
L 178.448833 51.82209 
L 178.484035 49.16097 
L 178.539084 46.49985 
L 178.640663 43.39521 
L 178.77361 40.73409 
L 178.965424 38.07297 
L 179.236077 35.41185 
L 179.588465 32.905483 
L 179.60989 32.75073 
L 180.101089 30.08961 
L 180.761633 27.42849 
L 181.409777 25.441287 
L 181.634686 24.76737 
L 182.765522 22.10625 
" clip-path="url(#p13e49c6bd0)" style="fill: none; stroke: #bad6eb; stroke-width: 1.5"/>
    <path d="M 385.378747 22.10625 
L 385.968113 23.391246 
L 386.573737 24.76737 
L 387.495967 27.42849 
L 387.753713 28.381573 
L 388.21215 30.08961 
L 388.76194 32.75073 
L 389.180268 35.41185 
L 389.503766 38.07297 
L 389.575025 38.793889 
L 389.772645 40.73409 
L 390.009242 43.39521 
L 390.278614 46.49985 
L 390.535353 49.16097 
L 390.844338 51.82209 
L 391.231326 54.48321 
L 391.360625 55.187135 
" clip-path="url(#p13e49c6bd0)" style="fill: none; stroke: #bad6eb; stroke-width: 1.5"/>
    <path d="M 391.360625 287.95964 
L 391.128337 288.21825 
" clip-path="url(#p13e49c6bd0)" style="fill: none; stroke: #bad6eb; stroke-width: 1.5"/>
   </g>
   <g id="PathCollection_4">
    <path d="M 192.545643 288.21825 
L 192.159089 287.696037 
L 190.723894 285.55713 
L 190.373489 284.904969 
L 189.372613 282.89601 
L 188.587889 280.8569 
L 188.36123 280.23489 
L 187.613207 277.57377 
L 187.060718 274.91265 
L 186.766577 272.972959 
L 186.659511 272.25153 
L 186.3742 269.59041 
L 186.175064 266.92929 
L 186.021726 263.82465 
L 185.937973 261.16353 
L 185.884086 258.50241 
L 185.850139 255.84129 
L 185.829034 253.18017 
L 185.816006 250.51905 
L 185.808077 247.85793 
L 185.803488 245.19681 
L 185.801169 242.53569 
L 185.800341 239.87457 
L 185.800322 237.21345 
L 185.800508 234.55233 
L 185.800475 231.89121 
L 185.800076 229.23009 
L 185.799443 226.56897 
L 185.79888 223.90785 
L 185.798684 220.80321 
L 185.799006 218.14209 
L 185.799602 215.48097 
L 185.800148 212.81985 
L 185.800348 210.15873 
L 185.800092 207.49761 
L 185.79952 204.83649 
L 185.798941 202.17537 
L 185.79867 199.51425 
L 185.798852 196.85313 
L 185.79939 194.19201 
L 185.799992 191.53089 
L 185.800331 188.86977 
L 185.800224 186.20865 
L 185.799729 183.54753 
L 185.799114 180.88641 
L 185.798712 178.22529 
L 185.798791 175.12065 
L 185.799287 172.45953 
L 185.799902 169.79841 
L 185.800304 167.13729 
L 185.800274 164.47617 
L 185.799829 161.81505 
L 185.79921 159.15393 
L 185.798752 156.49281 
L 185.798705 153.83169 
L 185.799092 151.17057 
L 185.799705 148.50945 
L 185.800211 145.84833 
L 185.800336 143.18721 
L 185.800012 140.52609 
L 185.799415 137.86497 
L 185.798868 135.20385 
L 185.79868 132.09921 
L 185.799004 129.43809 
L 185.799601 126.77697 
L 185.800148 124.11585 
L 185.800348 121.45473 
L 185.800092 118.79361 
L 185.79952 116.13249 
L 185.798941 113.47137 
L 185.79867 110.81025 
L 185.798852 108.14913 
L 185.79939 105.48801 
L 185.799992 102.82689 
L 185.800331 100.16577 
L 185.800224 97.50465 
L 185.799729 94.84353 
L 185.799115 92.18241 
L 185.798716 89.52129 
L 185.798802 86.41665 
L 185.799311 83.75553 
L 185.799956 81.09441 
L 185.800422 78.43329 
L 185.800528 75.77217 
L 185.800361 73.11105 
L 185.800293 70.44993 
L 185.8009 67.78881 
L 185.802853 65.12769 
L 185.806901 62.46657 
L 185.81403 59.80545 
L 185.825816 57.14433 
L 185.844942 54.48321 
L 185.875766 51.82209 
L 185.924882 49.16097 
L 186.001626 46.49985 
L 186.143091 43.39521 
L 186.328063 40.73409 
L 186.594726 38.07297 
L 186.766577 36.845395 
L 186.971745 35.41185 
L 187.494601 32.75073 
L 188.206719 30.08961 
L 188.587889 29.004575 
L 189.173464 27.42849 
L 190.373489 24.953938 
L 190.471267 24.76737 
L 192.159089 22.20716 
L 192.232688 22.10625 
" clip-path="url(#p13e49c6bd0)" style="fill: none; stroke: #89bedc; stroke-width: 1.5"/>
    <path d="M 375.904375 22.10625 
L 377.004401 23.650543 
L 377.728618 24.76737 
L 378.790001 26.812459 
L 379.087735 27.42849 
L 380.102165 30.08961 
L 380.575601 31.716193 
L 380.864571 32.75073 
L 381.434295 35.41185 
L 381.864971 38.07297 
L 382.197798 40.73409 
L 382.396913 42.685778 
L 382.468722 43.39521 
L 382.749499 46.49985 
L 382.994337 49.16097 
L 383.273022 51.82209 
L 383.612717 54.48321 
L 384.039276 57.14433 
L 384.182513 57.859341 
L 384.577327 59.80545 
L 385.245099 62.46657 
L 385.968113 64.838426 
L 386.057901 65.12769 
L 387.023451 67.78881 
L 387.753713 69.547109 
L 388.134937 70.44993 
L 389.371372 73.11105 
L 389.575025 73.522335 
L 390.69729 75.77217 
L 391.360625 77.068017 
" clip-path="url(#p13e49c6bd0)" style="fill: none; stroke: #89bedc; stroke-width: 1.5"/>
    <path d="M 391.360625 275.904385 
L 390.201584 277.57377 
L 389.575025 278.412633 
L 388.170314 280.23489 
L 387.753713 280.743595 
L 385.968113 282.847826 
L 385.925838 282.89601 
L 384.182513 284.774545 
L 383.421043 285.55713 
L 382.396913 286.553236 
L 380.575786 288.21825 
" clip-path="url(#p13e49c6bd0)" style="fill: none; stroke: #89bedc; stroke-width: 1.5"/>
   </g>
   <g id="PathCollection_5">
    <path d="M 204.72759 288.21825 
L 202.944113 287.029097 
L 201.122801 285.602089 
L 201.072101 285.55713 
L 199.337201 283.683709 
L 198.695546 282.89601 
L 197.551601 281.125792 
L 197.034485 280.23489 
L 195.848015 277.57377 
L 195.766001 277.329816 
L 195.016787 274.91265 
L 194.416032 272.25153 
L 193.987604 269.59041 
L 193.944689 269.211092 
L 193.700672 266.92929 
L 193.481437 263.82465 
L 193.361791 261.16353 
L 193.284863 258.50241 
L 193.236425 255.84129 
L 193.206319 253.18017 
L 193.187738 250.51905 
L 193.176439 247.85793 
L 193.169917 245.19681 
L 193.166643 242.53569 
L 193.165496 239.87457 
L 193.16549 237.21345 
L 193.165756 234.55233 
L 193.165692 231.89121 
L 193.165098 229.23009 
L 193.164178 226.56897 
L 193.163374 223.90785 
L 193.163115 220.80321 
L 193.163599 218.14209 
L 193.164467 215.48097 
L 193.165248 212.81985 
L 193.165516 210.15873 
L 193.165127 207.49761 
L 193.164291 204.83649 
L 193.163461 202.17537 
L 193.163087 199.51425 
L 193.163372 196.85313 
L 193.164161 194.19201 
L 193.165027 191.53089 
L 193.1655 188.86977 
L 193.165324 186.20865 
L 193.164594 183.54753 
L 193.163706 180.88641 
L 193.163141 178.22529 
L 193.163281 175.12065 
L 193.164011 172.45953 
L 193.164898 169.79841 
L 193.165463 167.13729 
L 193.165398 164.47617 
L 193.164739 161.81505 
L 193.163843 159.15393 
L 193.163196 156.49281 
L 193.163148 153.83169 
L 193.163726 151.17057 
L 193.164616 148.50945 
L 193.165336 145.84833 
L 193.165495 143.18721 
L 193.165008 140.52609 
L 193.164138 137.86497 
L 193.163357 135.20385 
L 193.163109 132.09921 
L 193.163596 129.43809 
L 193.164466 126.77697 
L 193.165247 124.11585 
L 193.165516 121.45473 
L 193.165127 118.79361 
L 193.164291 116.13249 
L 193.163461 113.47137 
L 193.163087 110.81025 
L 193.163372 108.14913 
L 193.164161 105.48801 
L 193.165027 102.82689 
L 193.1655 100.16577 
L 193.165324 97.50465 
L 193.164595 94.84353 
L 193.163708 92.18241 
L 193.163147 89.52129 
L 193.163296 86.41665 
L 193.164046 83.75553 
L 193.164979 81.09441 
L 193.165639 78.43329 
L 193.165776 75.77217 
L 193.165528 73.11105 
L 193.165448 70.44993 
L 193.166374 67.78881 
L 193.169284 65.12769 
L 193.175267 62.46657 
L 193.185767 59.80545 
L 193.203111 57.14433 
L 193.231249 54.48321 
L 193.276586 51.82209 
L 193.34879 49.16097 
L 193.461533 46.49985 
L 193.669174 43.39521 
L 193.940457 40.73409 
L 193.944689 40.704915 
L 194.350349 38.07297 
L 194.928422 35.41185 
L 195.728069 32.75073 
L 195.766001 32.655183 
L 196.881037 30.08961 
L 197.551601 28.914349 
L 198.498041 27.42849 
L 199.337201 26.389003 
L 200.830832 24.76737 
L 201.122801 24.508255 
L 202.944113 23.091704 
L 204.432826 22.10625 
" clip-path="url(#p13e49c6bd0)" style="fill: none; stroke: #539ecd; stroke-width: 1.5"/>
    <path d="M 363.699936 22.10625 
L 364.433777 22.556622 
L 366.219377 23.825155 
L 367.363876 24.76737 
L 368.040689 25.444063 
L 369.774373 27.42849 
L 369.826289 27.503053 
L 371.434236 30.08961 
L 371.611889 30.459622 
L 372.613349 32.75073 
L 373.397489 35.138011 
L 373.48083 35.41185 
L 374.095445 38.07297 
L 374.55583 40.73409 
L 374.910498 43.39521 
L 375.218801 46.244127 
L 375.245232 46.49985 
L 375.497125 49.16097 
L 375.76093 51.82209 
L 376.066111 54.48321 
L 376.440353 57.14433 
L 376.909993 59.80545 
L 377.004401 60.239906 
L 377.480405 62.46657 
L 378.183053 65.12769 
L 378.790001 67.027928 
L 379.031979 67.78881 
L 380.019044 70.44993 
L 380.575601 71.761066 
L 381.14903 73.11105 
L 382.396913 75.755896 
L 382.404599 75.77217 
L 383.729341 78.43329 
L 384.182513 79.314795 
L 385.089813 81.09441 
L 385.968113 82.831987 
L 386.427825 83.75553 
L 387.687265 86.41665 
L 387.753713 86.57152 
L 388.983029 89.52129 
L 389.575025 91.149223 
L 389.937435 92.18241 
L 390.726084 94.84353 
L 391.360625 97.450781 
" clip-path="url(#p13e49c6bd0)" style="fill: none; stroke: #539ecd; stroke-width: 1.5"/>
    <path d="M 391.360625 256.970601 
L 391.010123 258.50241 
L 390.244172 261.16353 
L 389.575025 263.058427 
L 389.291713 263.82465 
L 387.907864 266.92929 
L 387.753713 267.224179 
L 386.466781 269.59041 
L 385.968113 270.404007 
L 384.793719 272.25153 
L 384.182513 273.122853 
L 382.88317 274.91265 
L 382.396913 275.528575 
L 380.724342 277.57377 
L 380.575601 277.742367 
L 378.790001 279.683162 
L 378.260409 280.23489 
L 377.004401 281.443392 
L 375.413123 282.89601 
L 375.218801 283.059435 
L 373.397489 284.490907 
L 371.935624 285.55713 
L 371.611889 285.772886 
L 369.826289 286.863045 
L 368.040689 287.849451 
L 367.299524 288.21825 
" clip-path="url(#p13e49c6bd0)" style="fill: none; stroke: #539ecd; stroke-width: 1.5"/>
   </g>
   <g id="PathCollection_6">
    <path d="M 202.770514 263.82465 
L 202.561942 261.16353 
L 202.427921 258.50241 
L 202.343571 255.84129 
L 202.291155 253.18017 
L 202.258811 250.51905 
L 202.239161 247.85793 
L 202.227849 245.19681 
L 202.222206 242.53569 
L 202.220266 239.87457 
L 202.220288 237.21345 
L 202.220752 234.55233 
L 202.220612 231.89121 
L 202.219536 229.23009 
L 202.217905 226.56897 
L 202.216506 223.90785 
L 202.21609 220.80321 
L 202.216975 218.14209 
L 202.218516 215.48097 
L 202.219876 212.81985 
L 202.220315 210.15873 
L 202.219594 207.49761 
L 202.218105 204.83649 
L 202.216654 202.17537 
L 202.216028 199.51425 
L 202.216566 196.85313 
L 202.217976 194.19201 
L 202.219495 191.53089 
L 202.220299 188.86977 
L 202.219951 186.20865 
L 202.218641 183.54753 
L 202.217079 180.88641 
L 202.216111 178.22529 
L 202.2164 175.12065 
L 202.21771 172.45953 
L 202.219272 169.79841 
L 202.22024 167.13729 
L 202.220089 164.47617 
L 202.218901 161.81505 
L 202.217319 159.15393 
L 202.216202 156.49281 
L 202.216155 153.83169 
L 202.217203 151.17057 
L 202.218778 148.50945 
L 202.220027 145.84833 
L 202.220272 143.18721 
L 202.219381 140.52609 
L 202.217836 137.86497 
L 202.216476 135.20385 
L 202.216079 132.09921 
L 202.21697 129.43809 
L 202.218515 126.77697 
L 202.219875 124.11585 
L 202.220315 121.45473 
L 202.219594 118.79361 
L 202.218105 116.13249 
L 202.216654 113.47137 
L 202.216028 110.81025 
L 202.216566 108.14913 
L 202.217976 105.48801 
L 202.219495 102.82689 
L 202.220299 100.16577 
L 202.219952 97.50465 
L 202.218643 94.84353 
L 202.217083 92.18241 
L 202.216121 89.52129 
L 202.216428 86.41665 
L 202.217774 83.75553 
L 202.219417 81.09441 
L 202.220559 78.43329 
L 202.220772 75.77217 
L 202.220327 73.11105 
L 202.220217 70.44993 
L 202.221939 67.78881 
L 202.22722 65.12769 
L 202.237997 62.46657 
L 202.256856 59.80545 
L 202.287977 57.14433 
L 202.338453 54.48321 
L 202.419764 51.82209 
L 202.549201 49.16097 
L 202.751177 46.49985 
L 202.944113 44.882806 
L 203.142059 43.39521 
L 203.679469 40.73409 
L 204.453412 38.07297 
L 204.729713 37.389679 
L 205.640293 35.41185 
L 206.515313 34.015405 
L 207.433044 32.75073 
L 208.300913 31.842418 
L 210.122225 30.226133 
L 210.303969 30.08961 
L 211.907825 29.141263 
L 213.693425 28.26203 
L 215.479025 27.535333 
L 215.796725 27.42849 
L 217.300337 27.015617 
L 219.085937 26.615867 
L 220.871537 26.292232 
L 222.657137 26.03226 
L 224.478449 25.821463 
L 226.264049 25.658629 
L 228.049649 25.531154 
L 229.835249 25.432267 
L 231.656561 25.354949 
L 233.442161 25.297417 
L 235.227761 25.254052 
L 237.013361 25.221685 
L 238.834673 25.197356 
L 240.620273 25.179964 
L 242.405873 25.167368 
L 244.191473 25.158337 
L 246.012785 25.15182 
L 247.798385 25.147349 
L 249.583985 25.14424 
L 251.369585 25.1421 
L 253.190897 25.140618 
L 254.976497 25.139642 
L 256.762097 25.138991 
L 258.547697 25.13856 
L 260.369009 25.138274 
L 262.154609 25.138094 
L 263.940209 25.137978 
L 265.725809 25.137904 
L 267.547121 25.137857 
L 269.332721 25.137829 
L 271.118321 25.137812 
L 272.903921 25.137801 
L 274.725233 25.137794 
L 276.510833 25.137791 
L 278.296433 25.137788 
L 280.082033 25.137787 
L 281.903345 25.137786 
L 283.688945 25.137786 
L 285.474545 25.137786 
L 287.260145 25.137787 
L 289.081457 25.137788 
L 290.867057 25.137789 
L 292.652657 25.137792 
L 294.438257 25.137797 
L 296.259569 25.137806 
L 298.045169 25.13782 
L 299.830769 25.137842 
L 301.616369 25.137879 
L 303.437681 25.137939 
L 305.223281 25.138033 
L 307.008881 25.13818 
L 308.794481 25.138409 
L 310.615793 25.138768 
L 312.401393 25.139306 
L 314.186993 25.140115 
L 315.972593 25.141321 
L 317.793905 25.143143 
L 319.579505 25.145759 
L 321.365105 25.149539 
L 323.150705 25.154946 
L 324.972017 25.162782 
L 326.757617 25.173581 
L 328.543217 25.188562 
L 330.328817 25.209132 
L 332.150129 25.237746 
L 333.935729 25.275603 
L 335.721329 25.326043 
L 337.506929 25.39259 
L 339.328241 25.481522 
L 341.113841 25.594624 
L 342.899441 25.73961 
L 344.685041 25.923779 
L 346.506353 26.160846 
L 348.291953 26.451563 
L 350.077553 26.811441 
L 351.863153 27.253464 
L 352.445722 27.42849 
L 353.684465 27.883727 
L 355.470065 28.677038 
L 357.255665 29.631038 
L 357.98042 30.08961 
L 359.041265 30.939698 
L 360.862577 32.666227 
L 360.93938 32.75073 
L 362.648177 35.209192 
L 362.770767 35.41185 
L 363.977351 38.07297 
L 364.433777 39.445014 
L 364.81537 40.73409 
L 365.395921 43.39521 
L 365.896265 46.49985 
L 366.219377 49.017917 
L 366.236093 49.16097 
L 366.518094 51.82209 
L 366.809606 54.48321 
L 367.143342 57.14433 
L 367.549016 59.80545 
L 368.040689 62.394444 
L 368.053601 62.46657 
L 368.630852 65.12769 
L 369.349175 67.78881 
L 369.826289 69.258558 
L 370.200847 70.44993 
L 371.18652 73.11105 
L 371.611889 74.113659 
L 372.302844 75.77217 
L 373.397489 78.101187 
L 373.55134 78.43329 
L 374.865476 81.09441 
L 375.218801 81.780753 
L 376.215495 83.75553 
L 377.004401 85.308016 
L 377.553121 86.41665 
L 378.790001 89.03017 
L 379.015795 89.52129 
L 380.115656 92.18241 
L 380.575601 93.434758 
L 381.062705 94.84353 
L 381.843416 97.50465 
L 382.396913 99.789247 
L 382.481458 100.16577 
L 382.948109 102.82689 
L 383.304667 105.48801 
L 383.567419 108.14913 
L 383.753946 110.81025 
L 383.881401 113.47137 
L 383.965366 116.13249 
L 384.019088 118.79361 
L 384.053009 121.45473 
L 384.074598 124.11585 
L 384.088569 126.77697 
L 384.097476 129.43809 
L 384.102567 132.09921 
L 384.104733 135.20385 
L 384.104406 137.86497 
L 384.103299 140.52609 
L 384.102547 143.18721 
L 384.102839 145.84833 
L 384.104155 148.50945 
L 384.105853 151.17057 
L 384.107045 153.83169 
L 384.107101 156.49281 
L 384.105997 159.15393 
L 384.104335 161.81505 
L 384.103017 164.47617 
L 384.102759 167.13729 
L 384.103699 169.79841 
L 384.10533 172.45953 
L 384.106766 175.12065 
L 384.107185 178.22529 
L 384.106244 180.88641 
L 384.104614 183.54753 
L 384.103177 186.20865 
L 384.102714 188.86977 
L 384.103474 191.53089 
L 384.105045 194.19201 
L 384.106575 196.85313 
L 384.107232 199.51425 
L 384.106655 202.17537 
L 384.105145 204.83649 
L 384.103496 207.49761 
L 384.10255 210.15873 
L 384.102713 212.81985 
L 384.103684 215.48097 
L 384.104521 218.14209 
L 384.103988 220.80321 
L 384.100105 223.90785 
L 384.09293 226.56897 
L 384.081109 229.23009 
L 384.062717 231.89121 
L 384.034038 234.55233 
L 383.988752 237.21345 
L 383.917439 239.87457 
L 383.807464 242.53569 
L 383.643175 245.19681 
L 383.406355 247.85793 
L 383.076896 250.51905 
L 382.633831 253.18017 
L 382.396913 254.265504 
L 382.023288 255.84129 
L 381.228049 258.50241 
L 380.575601 260.287079 
L 380.231702 261.16353 
L 378.991335 263.82465 
L 378.790001 264.188672 
L 377.202944 266.92929 
L 377.004401 267.227299 
L 375.358731 269.59041 
L 375.218801 269.769872 
L 373.397489 272.00116 
L 373.183625 272.25153 
L 371.611889 273.894012 
L 370.594899 274.91265 
L 369.826289 275.597772 
L 368.040689 277.097382 
L 367.432916 277.57377 
L 366.219377 278.407439 
L 364.433777 279.53694 
L 363.22677 280.23489 
L 362.648177 280.524099 
L 360.862577 281.318151 
L 359.041265 282.03601 
L 357.255665 282.653169 
L 356.443178 282.89601 
L 355.470065 283.14356 
L 353.684465 283.52962 
L 351.863153 283.860779 
L 350.077553 284.130909 
L 348.291953 284.35372 
L 346.506353 284.535575 
L 344.685041 284.685065 
L 342.899441 284.801902 
L 341.113841 284.894279 
L 339.328241 284.966558 
L 337.506929 285.0235 
L 335.721329 285.066156 
L 333.935729 285.098501 
L 332.150129 285.122776 
L 330.328817 285.141115 
L 328.543217 285.154291 
L 326.757617 285.163878 
L 324.972017 285.170783 
L 323.150705 285.175788 
L 321.365105 285.179237 
L 319.579505 285.181647 
L 317.793905 285.183313 
L 315.972593 285.184471 
L 314.186993 285.185238 
L 312.401393 285.185751 
L 310.615793 285.186093 
L 308.794481 285.18632 
L 307.008881 285.186465 
L 305.223281 285.186558 
L 303.437681 285.186618 
L 301.616369 285.186656 
L 299.830769 285.186679 
L 298.045169 285.186693 
L 296.259569 285.186702 
L 294.438257 285.186707 
L 292.652657 285.18671 
L 290.867057 285.186712 
L 289.081457 285.186713 
L 287.260145 285.186714 
L 285.474545 285.186714 
L 283.688945 285.186714 
L 281.903345 285.186714 
L 280.082033 285.186713 
L 278.296433 285.186711 
L 276.510833 285.186709 
L 274.725233 285.186705 
L 272.903921 285.186698 
L 271.118321 285.186687 
L 269.332721 285.186668 
L 267.547121 285.186638 
L 265.725809 285.186588 
L 263.940209 285.18651 
L 262.154609 285.186386 
L 260.369009 285.186194 
L 258.547697 285.185891 
L 256.762097 285.185436 
L 254.976497 285.184747 
L 253.190897 285.183717 
L 251.369585 285.182155 
L 249.583985 285.179902 
L 247.798385 285.176634 
L 246.012785 285.171941 
L 244.191473 285.16511 
L 242.405873 285.155658 
L 240.620273 285.142493 
L 238.834673 285.124342 
L 237.013361 285.098992 
L 235.227761 285.065317 
L 233.442161 285.020271 
L 231.656561 284.960608 
L 229.835249 284.880562 
L 228.049649 284.778368 
L 226.264049 284.646875 
L 224.478449 284.479234 
L 222.657137 284.262667 
L 220.871537 283.996168 
L 219.085937 283.665179 
L 217.300337 283.257357 
L 216.005813 282.89601 
L 215.479025 282.716193 
L 213.693425 281.979576 
L 211.907825 281.091272 
L 210.467469 280.23489 
L 210.122225 279.974784 
L 208.300913 278.356035 
L 207.551049 277.57377 
L 206.515313 276.156166 
L 205.728705 274.91265 
L 204.729713 272.772411 
L 204.515754 272.25153 
L 203.72602 269.59041 
L 203.175359 266.92929 
L 202.944113 265.238799 
L 202.770514 263.82465 
z
" clip-path="url(#p13e49c6bd0)" style="fill: none; stroke: #2b7bba; stroke-width: 1.5"/>
   </g>
   <g id="PathCollection_7">
    <path d="M 227.988201 255.84129 
L 227.31499 253.18017 
L 226.899649 250.51905 
L 226.64757 247.85793 
L 226.502919 245.19681 
L 226.431309 242.53569 
L 226.407222 239.87457 
L 226.408001 237.21345 
L 226.413929 234.55233 
L 226.411649 231.89121 
L 226.397207 229.23009 
L 226.375848 226.56897 
L 226.357898 223.90785 
L 226.353125 220.80321 
L 226.365132 218.14209 
L 226.385363 215.48097 
L 226.402805 212.81985 
L 226.407984 210.15873 
L 226.398084 207.49761 
L 226.37847 204.83649 
L 226.359772 202.17537 
L 226.352125 199.51425 
L 226.359673 196.85313 
L 226.378326 194.19201 
L 226.397972 191.53089 
L 226.407963 188.86977 
L 226.40288 186.20865 
L 226.385481 183.54753 
L 226.365197 180.88641 
L 226.353023 178.22529 
L 226.357436 175.12065 
L 226.374834 172.45953 
L 226.395119 169.79841 
L 226.407294 167.13729 
L 226.404759 164.47617 
L 226.388889 161.81505 
L 226.368287 159.15393 
L 226.35412 156.49281 
L 226.354067 153.83169 
L 226.368157 151.17057 
L 226.388753 148.50945 
L 226.40469 145.84833 
L 226.40733 143.18721 
L 226.39524 140.52609 
L 226.374975 137.86497 
L 226.357521 135.20385 
L 226.352988 132.09921 
L 226.365076 129.43809 
L 226.38534 126.77697 
L 226.402796 124.11585 
L 226.407981 121.45473 
L 226.398083 118.79361 
L 226.378469 116.13249 
L 226.359772 113.47137 
L 226.352125 110.81025 
L 226.359673 108.14913 
L 226.378326 105.48801 
L 226.397974 102.82689 
L 226.407966 100.16577 
L 226.402889 97.50465 
L 226.385503 94.84353 
L 226.365253 92.18241 
L 226.35316 89.52129 
L 226.357811 86.41665 
L 226.375702 83.75553 
L 226.397076 81.09441 
L 226.411591 78.43329 
L 226.413951 75.77217 
L 226.408042 73.11105 
L 226.407166 70.44993 
L 226.43101 67.78881 
L 226.502221 65.12769 
L 226.646303 62.46657 
L 226.897587 59.80545 
L 227.311813 57.14433 
L 227.98355 54.48321 
L 228.049649 54.320368 
L 229.352147 51.82209 
L 229.835249 51.238466 
L 231.656561 49.548451 
L 232.20601 49.16097 
L 233.442161 48.598852 
L 235.227761 47.986262 
L 237.013361 47.528773 
L 238.834673 47.184714 
L 240.620273 46.938594 
L 242.405873 46.76023 
L 244.191473 46.632266 
L 246.012785 46.53987 
L 247.139152 46.49985 
L 247.798385 46.484818 
L 249.583985 46.456485 
L 251.369585 46.436971 
L 253.190897 46.423449 
L 254.976497 46.41454 
L 256.762097 46.408589 
L 258.547697 46.404653 
L 260.369009 46.402035 
L 262.154609 46.400379 
L 263.940209 46.399317 
L 265.725809 46.398643 
L 267.547121 46.398213 
L 269.332721 46.397953 
L 271.118321 46.397793 
L 272.903921 46.397696 
L 274.725233 46.397636 
L 276.510833 46.397601 
L 278.296433 46.39758 
L 280.082033 46.397568 
L 281.903345 46.397561 
L 283.688945 46.397558 
L 285.474545 46.397558 
L 287.260145 46.397563 
L 289.081457 46.397572 
L 290.867057 46.397587 
L 292.652657 46.397612 
L 294.438257 46.397654 
L 296.259569 46.397725 
L 298.045169 46.397841 
L 299.830769 46.398032 
L 301.616369 46.398341 
L 303.437681 46.398849 
L 305.223281 46.399642 
L 307.008881 46.400887 
L 308.794481 46.402819 
L 310.615793 46.405861 
L 312.401393 46.410416 
L 314.186993 46.417277 
L 315.972593 46.427505 
L 317.793905 46.442965 
L 319.579505 46.465184 
L 321.365105 46.497305 
L 321.463958 46.49985 
L 323.150705 46.567461 
L 324.972017 46.671192 
L 326.757617 46.814105 
L 328.543217 47.012186 
L 330.328817 47.283824 
L 332.150129 47.660886 
L 333.935729 48.158243 
L 335.721329 48.818089 
L 336.427584 49.16097 
L 337.506929 49.957454 
L 339.328241 51.692873 
L 339.434031 51.82209 
L 340.900937 54.48321 
L 341.113841 55.028644 
L 341.777538 57.14433 
L 342.442457 59.80545 
L 342.899441 61.8437 
L 343.014799 62.46657 
L 343.498727 65.12769 
L 344.035219 67.78881 
L 344.669285 70.44993 
L 344.685041 70.508614 
L 345.295117 73.11105 
L 346.087268 75.77217 
L 346.506353 76.943842 
L 346.988344 78.43329 
L 348.040242 81.09441 
L 348.291953 81.657658 
L 349.167342 83.75553 
L 350.077553 85.645851 
L 350.428344 86.41665 
L 351.863153 89.309452 
L 351.965455 89.52129 
L 353.246719 92.18241 
L 353.684465 93.076168 
L 354.493201 94.84353 
L 355.470065 96.987718 
L 355.686566 97.50465 
L 356.702779 100.16577 
L 357.255665 101.741554 
L 357.58924 102.82689 
L 358.276522 105.48801 
L 358.842159 108.14913 
L 359.041265 109.410427 
L 359.222532 110.81025 
L 359.456413 113.47137 
L 359.605637 116.13249 
L 359.697404 118.79361 
L 359.757734 121.45473 
L 359.804691 124.11585 
L 359.845459 126.77697 
L 359.878165 129.43809 
L 359.897222 132.09921 
L 359.898198 135.20385 
L 359.88469 137.86497 
L 359.867565 140.52609 
L 359.857174 143.18721 
L 359.859705 145.84833 
L 359.874064 148.50945 
L 359.892603 151.17057 
L 359.905337 153.83169 
L 359.905396 156.49281 
L 359.89276 159.15393 
L 359.874284 161.81505 
L 359.859986 164.47617 
L 359.857619 167.13729 
L 359.868465 169.79841 
L 359.886645 172.45953 
L 359.902305 175.12065 
L 359.906372 178.22529 
L 359.895526 180.88641 
L 359.877346 183.54753 
L 359.861686 186.20865 
L 359.857034 188.86977 
L 359.865914 191.53089 
L 359.883508 194.19201 
L 359.900278 196.85313 
L 359.907128 199.51425 
L 359.900333 202.17537 
L 359.883546 204.83649 
L 359.865805 207.49761 
L 359.856598 210.15873 
L 359.860649 212.81985 
L 359.87523 215.48097 
L 359.891402 218.14209 
L 359.898448 220.80321 
L 359.885605 223.90785 
L 359.855671 226.56897 
L 359.812403 229.23009 
L 359.758768 231.89121 
L 359.690258 234.55233 
L 359.590689 237.21345 
L 359.432326 239.87457 
L 359.18056 242.53569 
L 359.041265 243.492843 
L 358.738098 245.19681 
L 358.069583 247.85793 
L 357.255665 250.334939 
L 357.184552 250.51905 
L 355.850709 253.18017 
L 355.470065 253.783255 
L 354.017114 255.84129 
L 353.684465 256.211205 
L 351.863153 258.017346 
L 351.317127 258.50241 
L 350.077553 259.329168 
L 348.291953 260.389762 
L 346.816298 261.16353 
L 346.506353 261.280657 
L 344.685041 261.846655 
L 342.899441 262.31068 
L 341.113841 262.691966 
L 339.328241 262.999543 
L 337.506929 263.247662 
L 335.721329 263.436837 
L 333.935729 263.582087 
L 332.150129 263.692035 
L 330.328817 263.775563 
L 328.871747 263.82465 
L 328.543217 263.831806 
L 326.757617 263.860018 
L 324.972017 263.880316 
L 323.150705 263.895008 
L 321.365105 263.905118 
L 319.579505 263.912167 
L 317.793905 263.917034 
L 315.972593 263.920414 
L 314.186993 263.922647 
L 312.401393 263.924144 
L 310.615793 263.925137 
L 308.794481 263.9258 
L 307.008881 263.926221 
L 305.223281 263.926493 
L 303.437681 263.926667 
L 301.616369 263.926778 
L 299.830769 263.926845 
L 298.045169 263.926886 
L 296.259569 263.92691 
L 294.438257 263.926926 
L 292.652657 263.926935 
L 290.867057 263.92694 
L 289.081457 263.926944 
L 287.260145 263.926946 
L 285.474545 263.926947 
L 283.688945 263.926945 
L 281.903345 263.926941 
L 280.082033 263.926933 
L 278.296433 263.92692 
L 276.510833 263.926899 
L 274.725233 263.926863 
L 272.903921 263.926803 
L 271.118321 263.926706 
L 269.332721 263.926545 
L 267.547121 263.926283 
L 265.725809 263.925851 
L 263.940209 263.925173 
L 262.154609 263.924105 
L 260.369009 263.922441 
L 258.547697 263.91981 
L 256.762097 263.915856 
L 254.976497 263.909877 
L 253.190897 263.900927 
L 251.369585 263.887345 
L 249.583985 263.867747 
L 247.798385 263.839297 
L 247.158576 263.82465 
L 246.012785 263.783779 
L 244.191473 263.691037 
L 242.405873 263.562621 
L 240.620273 263.383676 
L 238.834673 263.136829 
L 237.013361 262.791885 
L 235.227761 262.333427 
L 233.442161 261.719879 
L 232.219907 261.16353 
L 231.656561 260.76602 
L 229.835249 259.076083 
L 229.360049 258.50241 
L 228.049649 255.992395 
L 227.988201 255.84129 
z
" clip-path="url(#p13e49c6bd0)" style="fill: none; stroke: #0b559f; stroke-width: 1.5"/>
   </g>
   <g id="PathCollection_8"/>
   <g id="patch_3">
    <path d="M 34.240625 288.21825 
L 34.240625 22.10625 
" style="fill: none; stroke: #000000; stroke-width: 0.8; stroke-linejoin: miter; stroke-linecap: square"/>
   </g>
   <g id="patch_4">
    <path d="M 391.360625 288.21825 
L 391.360625 22.10625 
" style="fill: none; stroke: #000000; stroke-width: 0.8; stroke-linejoin: miter; stroke-linecap: square"/>
   </g>
   <g id="patch_5">
    <path d="M 34.240625 288.21825 
L 391.360625 288.21825 
" style="fill: none; stroke: #000000; stroke-width: 0.8; stroke-linejoin: miter; stroke-linecap: square"/>
   </g>
   <g id="patch_6">
    <path d="M 34.240625 22.10625 
L 391.360625 22.10625 
" style="fill: none; stroke: #000000; stroke-width: 0.8; stroke-linejoin: miter; stroke-linecap: square"/>
   </g>
   <g id="text_16">
    <!-- 8.4_cross_-45.0 -->
    <g transform="translate(166.181563 16.10625)scale(0.12 -0.12)">
     <defs>
      <path id="DejaVuSans-2e" d="M 684 794 
L 1344 794 
L 1344 0 
L 684 0 
L 684 794 
z
" transform="scale(0.015625)"/>
      <path id="DejaVuSans-5f" d="M 3263 -1063 
L 3263 -1509 
L -63 -1509 
L -63 -1063 
L 3263 -1063 
z
" transform="scale(0.015625)"/>
      <path id="DejaVuSans-63" d="M 3122 3366 
L 3122 2828 
Q 2878 2963 2633 3030 
Q 2388 3097 2138 3097 
Q 1578 3097 1268 2742 
Q 959 2388 959 1747 
Q 959 1106 1268 751 
Q 1578 397 2138 397 
Q 2388 397 2633 464 
Q 2878 531 3122 666 
L 3122 134 
Q 2881 22 2623 -34 
Q 2366 -91 2075 -91 
Q 1284 -91 818 406 
Q 353 903 353 1747 
Q 353 2603 823 3093 
Q 1294 3584 2113 3584 
Q 2378 3584 2631 3529 
Q 2884 3475 3122 3366 
z
" transform="scale(0.015625)"/>
      <path id="DejaVuSans-72" d="M 2631 2963 
Q 2534 3019 2420 3045 
Q 2306 3072 2169 3072 
Q 1681 3072 1420 2755 
Q 1159 2438 1159 1844 
L 1159 0 
L 581 0 
L 581 3500 
L 1159 3500 
L 1159 2956 
Q 1341 3275 1631 3429 
Q 1922 3584 2338 3584 
Q 2397 3584 2469 3576 
Q 2541 3569 2628 3553 
L 2631 2963 
z
" transform="scale(0.015625)"/>
      <path id="DejaVuSans-73" d="M 2834 3397 
L 2834 2853 
Q 2591 2978 2328 3040 
Q 2066 3103 1784 3103 
Q 1356 3103 1142 2972 
Q 928 2841 928 2578 
Q 928 2378 1081 2264 
Q 1234 2150 1697 2047 
L 1894 2003 
Q 2506 1872 2764 1633 
Q 3022 1394 3022 966 
Q 3022 478 2636 193 
Q 2250 -91 1575 -91 
Q 1294 -91 989 -36 
Q 684 19 347 128 
L 347 722 
Q 666 556 975 473 
Q 1284 391 1588 391 
Q 1994 391 2212 530 
Q 2431 669 2431 922 
Q 2431 1156 2273 1281 
Q 2116 1406 1581 1522 
L 1381 1569 
Q 847 1681 609 1914 
Q 372 2147 372 2553 
Q 372 3047 722 3315 
Q 1072 3584 1716 3584 
Q 2034 3584 2315 3537 
Q 2597 3491 2834 3397 
z
" transform="scale(0.015625)"/>
      <path id="DejaVuSans-2d" d="M 313 2009 
L 1997 2009 
L 1997 1497 
L 313 1497 
L 313 2009 
z
" transform="scale(0.015625)"/>
     </defs>
     <use xlink:href="#DejaVuSans-38"/>
     <use xlink:href="#DejaVuSans-2e" x="63.623047"/>
     <use xlink:href="#DejaVuSans-34" x="95.410156"/>
     <use xlink:href="#DejaVuSans-5f" x="159.033203"/>
     <use xlink:href="#DejaVuSans-63" x="209.033203"/>
     <use xlink:href="#DejaVuSans-72" x="264.013672"/>
     <use xlink:href="#DejaVuSans-6f" x="302.876953"/>
     <use xlink:href="#DejaVuSans-73" x="364.058594"/>
     <use xlink:href="#DejaVuSans-73" x="416.158203"/>
     <use xlink:href="#DejaVuSans-5f" x="468.257812"/>
     <use xlink:href="#DejaVuSans-2d" x="518.257812"/>
     <use xlink:href="#DejaVuSans-34" x="554.341797"/>
     <use xlink:href="#DejaVuSans-35" x="617.964844"/>
     <use xlink:href="#DejaVuSans-2e" x="681.587891"/>
     <use xlink:href="#DejaVuSans-30" x="713.375"/>
    </g>
   </g>
  </g>
 </g>
 <defs>
  <clipPath id="p13e49c6bd0">
   <rect x="34.240625" y="22.10625" width="357.12" height="266.112"/>
  </clipPath>
 </defs>
</svg>
