<?xml version="1.0" encoding="utf-8" standalone="no"?>
<!DOCTYPE svg PUBLIC "-//W3C//DTD SVG 1.1//EN"
  "http://www.w3.org/Graphics/SVG/1.1/DTD/svg11.dtd">
<svg xmlns:xlink="http://www.w3.org/1999/xlink" width="408.104375pt" height="325.7745pt" viewBox="0 0 408.104375 325.7745" xmlns="http://www.w3.org/2000/svg" version="1.1">
 <metadata>
  <rdf:RDF xmlns:dc="http://purl.org/dc/elements/1.1/" xmlns:cc="http://creativecommons.org/ns#" xmlns:rdf="http://www.w3.org/1999/02/22-rdf-syntax-ns#">
   <cc:Work>
    <dc:type rdf:resource="http://purl.org/dc/dcmitype/StillImage"/>
    <dc:date>2024-07-12T12:17:29.889291</dc:date>
    <dc:format>image/svg+xml</dc:format>
    <dc:creator>
     <cc:Agent>
      <dc:title>Matplotlib v3.5.3, https://matplotlib.org/</dc:title>
     </cc:Agent>
    </dc:creator>
   </cc:Work>
  </rdf:RDF>
 </metadata>
 <defs>
  <style type="text/css">*{stroke-linejoin: round; stroke-linecap: butt}</style>
 </defs>
 <g id="figure_1">
  <g id="patch_1">
   <path d="M 0 325.7745 
L 408.104375 325.7745 
L 408.104375 0 
L 0 0 
z
" style="fill: #ffffff"/>
  </g>
  <g id="axes_1">
   <g id="patch_2">
    <path d="M 34.240625 288.21825 
L 391.360625 288.21825 
L 391.360625 22.10625 
L 34.240625 22.10625 
z
" style="fill: #ffffff"/>
   </g>
   <g id="matplotlib.axis_1">
    <g id="xtick_1">
     <g id="line2d_1">
      <defs>
       <path id="m860879fbd6" d="M 0 0 
L 0 3.5 
" style="stroke: #000000; stroke-width: 0.8"/>
      </defs>
      <g>
       <use xlink:href="#m860879fbd6" x="34.240625" y="288.21825" style="stroke: #000000; stroke-width: 0.8"/>
      </g>
     </g>
     <g id="text_1">
      <!-- 0 -->
      <g transform="translate(31.059375 302.816687)scale(0.1 -0.1)">
       <defs>
        <path id="DejaVuSans-30" d="M 2034 4250 
Q 1547 4250 1301 3770 
Q 1056 3291 1056 2328 
Q 1056 1369 1301 889 
Q 1547 409 2034 409 
Q 2525 409 2770 889 
Q 3016 1369 3016 2328 
Q 3016 3291 2770 3770 
Q 2525 4250 2034 4250 
z
M 2034 4750 
Q 2819 4750 3233 4129 
Q 3647 3509 3647 2328 
Q 3647 1150 3233 529 
Q 2819 -91 2034 -91 
Q 1250 -91 836 529 
Q 422 1150 422 2328 
Q 422 3509 836 4129 
Q 1250 4750 2034 4750 
z
" transform="scale(0.015625)"/>
       </defs>
       <use xlink:href="#DejaVuSans-30"/>
      </g>
     </g>
    </g>
    <g id="xtick_2">
     <g id="line2d_2">
      <g>
       <use xlink:href="#m860879fbd6" x="105.664625" y="288.21825" style="stroke: #000000; stroke-width: 0.8"/>
      </g>
     </g>
     <g id="text_2">
      <!-- 20 -->
      <g transform="translate(99.302125 302.816687)scale(0.1 -0.1)">
       <defs>
        <path id="DejaVuSans-32" d="M 1228 531 
L 3431 531 
L 3431 0 
L 469 0 
L 469 531 
Q 828 903 1448 1529 
Q 2069 2156 2228 2338 
Q 2531 2678 2651 2914 
Q 2772 3150 2772 3378 
Q 2772 3750 2511 3984 
Q 2250 4219 1831 4219 
Q 1534 4219 1204 4116 
Q 875 4013 500 3803 
L 500 4441 
Q 881 4594 1212 4672 
Q 1544 4750 1819 4750 
Q 2544 4750 2975 4387 
Q 3406 4025 3406 3419 
Q 3406 3131 3298 2873 
Q 3191 2616 2906 2266 
Q 2828 2175 2409 1742 
Q 1991 1309 1228 531 
z
" transform="scale(0.015625)"/>
       </defs>
       <use xlink:href="#DejaVuSans-32"/>
       <use xlink:href="#DejaVuSans-30" x="63.623047"/>
      </g>
     </g>
    </g>
    <g id="xtick_3">
     <g id="line2d_3">
      <g>
       <use xlink:href="#m860879fbd6" x="177.088625" y="288.21825" style="stroke: #000000; stroke-width: 0.8"/>
      </g>
     </g>
     <g id="text_3">
      <!-- 40 -->
      <g transform="translate(170.726125 302.816687)scale(0.1 -0.1)">
       <defs>
        <path id="DejaVuSans-34" d="M 2419 4116 
L 825 1625 
L 2419 1625 
L 2419 4116 
z
M 2253 4666 
L 3047 4666 
L 3047 1625 
L 3713 1625 
L 3713 1100 
L 3047 1100 
L 3047 0 
L 2419 0 
L 2419 1100 
L 313 1100 
L 313 1709 
L 2253 4666 
z
" transform="scale(0.015625)"/>
       </defs>
       <use xlink:href="#DejaVuSans-34"/>
       <use xlink:href="#DejaVuSans-30" x="63.623047"/>
      </g>
     </g>
    </g>
    <g id="xtick_4">
     <g id="line2d_4">
      <g>
       <use xlink:href="#m860879fbd6" x="248.512625" y="288.21825" style="stroke: #000000; stroke-width: 0.8"/>
      </g>
     </g>
     <g id="text_4">
      <!-- 60 -->
      <g transform="translate(242.150125 302.816687)scale(0.1 -0.1)">
       <defs>
        <path id="DejaVuSans-36" d="M 2113 2584 
Q 1688 2584 1439 2293 
Q 1191 2003 1191 1497 
Q 1191 994 1439 701 
Q 1688 409 2113 409 
Q 2538 409 2786 701 
Q 3034 994 3034 1497 
Q 3034 2003 2786 2293 
Q 2538 2584 2113 2584 
z
M 3366 4563 
L 3366 3988 
Q 3128 4100 2886 4159 
Q 2644 4219 2406 4219 
Q 1781 4219 1451 3797 
Q 1122 3375 1075 2522 
Q 1259 2794 1537 2939 
Q 1816 3084 2150 3084 
Q 2853 3084 3261 2657 
Q 3669 2231 3669 1497 
Q 3669 778 3244 343 
Q 2819 -91 2113 -91 
Q 1303 -91 875 529 
Q 447 1150 447 2328 
Q 447 3434 972 4092 
Q 1497 4750 2381 4750 
Q 2619 4750 2861 4703 
Q 3103 4656 3366 4563 
z
" transform="scale(0.015625)"/>
       </defs>
       <use xlink:href="#DejaVuSans-36"/>
       <use xlink:href="#DejaVuSans-30" x="63.623047"/>
      </g>
     </g>
    </g>
    <g id="xtick_5">
     <g id="line2d_5">
      <g>
       <use xlink:href="#m860879fbd6" x="319.936625" y="288.21825" style="stroke: #000000; stroke-width: 0.8"/>
      </g>
     </g>
     <g id="text_5">
      <!-- 80 -->
      <g transform="translate(313.574125 302.816687)scale(0.1 -0.1)">
       <defs>
        <path id="DejaVuSans-38" d="M 2034 2216 
Q 1584 2216 1326 1975 
Q 1069 1734 1069 1313 
Q 1069 891 1326 650 
Q 1584 409 2034 409 
Q 2484 409 2743 651 
Q 3003 894 3003 1313 
Q 3003 1734 2745 1975 
Q 2488 2216 2034 2216 
z
M 1403 2484 
Q 997 2584 770 2862 
Q 544 3141 544 3541 
Q 544 4100 942 4425 
Q 1341 4750 2034 4750 
Q 2731 4750 3128 4425 
Q 3525 4100 3525 3541 
Q 3525 3141 3298 2862 
Q 3072 2584 2669 2484 
Q 3125 2378 3379 2068 
Q 3634 1759 3634 1313 
Q 3634 634 3220 271 
Q 2806 -91 2034 -91 
Q 1263 -91 848 271 
Q 434 634 434 1313 
Q 434 1759 690 2068 
Q 947 2378 1403 2484 
z
M 1172 3481 
Q 1172 3119 1398 2916 
Q 1625 2713 2034 2713 
Q 2441 2713 2670 2916 
Q 2900 3119 2900 3481 
Q 2900 3844 2670 4047 
Q 2441 4250 2034 4250 
Q 1625 4250 1398 4047 
Q 1172 3844 1172 3481 
z
" transform="scale(0.015625)"/>
       </defs>
       <use xlink:href="#DejaVuSans-38"/>
       <use xlink:href="#DejaVuSans-30" x="63.623047"/>
      </g>
     </g>
    </g>
    <g id="xtick_6">
     <g id="line2d_6">
      <g>
       <use xlink:href="#m860879fbd6" x="391.360625" y="288.21825" style="stroke: #000000; stroke-width: 0.8"/>
      </g>
     </g>
     <g id="text_6">
      <!-- 100 -->
      <g transform="translate(381.816875 302.816687)scale(0.1 -0.1)">
       <defs>
        <path id="DejaVuSans-31" d="M 794 531 
L 1825 531 
L 1825 4091 
L 703 3866 
L 703 4441 
L 1819 4666 
L 2450 4666 
L 2450 531 
L 3481 531 
L 3481 0 
L 794 0 
L 794 531 
z
" transform="scale(0.015625)"/>
       </defs>
       <use xlink:href="#DejaVuSans-31"/>
       <use xlink:href="#DejaVuSans-30" x="63.623047"/>
       <use xlink:href="#DejaVuSans-30" x="127.246094"/>
      </g>
     </g>
    </g>
    <g id="text_7">
     <!-- axialRotation -->
     <g transform="translate(180.024844 316.494812)scale(0.1 -0.1)">
      <defs>
       <path id="DejaVuSans-61" d="M 2194 1759 
Q 1497 1759 1228 1600 
Q 959 1441 959 1056 
Q 959 750 1161 570 
Q 1363 391 1709 391 
Q 2188 391 2477 730 
Q 2766 1069 2766 1631 
L 2766 1759 
L 2194 1759 
z
M 3341 1997 
L 3341 0 
L 2766 0 
L 2766 531 
Q 2569 213 2275 61 
Q 1981 -91 1556 -91 
Q 1019 -91 701 211 
Q 384 513 384 1019 
Q 384 1609 779 1909 
Q 1175 2209 1959 2209 
L 2766 2209 
L 2766 2266 
Q 2766 2663 2505 2880 
Q 2244 3097 1772 3097 
Q 1472 3097 1187 3025 
Q 903 2953 641 2809 
L 641 3341 
Q 956 3463 1253 3523 
Q 1550 3584 1831 3584 
Q 2591 3584 2966 3190 
Q 3341 2797 3341 1997 
z
" transform="scale(0.015625)"/>
       <path id="DejaVuSans-78" d="M 3513 3500 
L 2247 1797 
L 3578 0 
L 2900 0 
L 1881 1375 
L 863 0 
L 184 0 
L 1544 1831 
L 300 3500 
L 978 3500 
L 1906 2253 
L 2834 3500 
L 3513 3500 
z
" transform="scale(0.015625)"/>
       <path id="DejaVuSans-69" d="M 603 3500 
L 1178 3500 
L 1178 0 
L 603 0 
L 603 3500 
z
M 603 4863 
L 1178 4863 
L 1178 4134 
L 603 4134 
L 603 4863 
z
" transform="scale(0.015625)"/>
       <path id="DejaVuSans-6c" d="M 603 4863 
L 1178 4863 
L 1178 0 
L 603 0 
L 603 4863 
z
" transform="scale(0.015625)"/>
       <path id="DejaVuSans-52" d="M 2841 2188 
Q 3044 2119 3236 1894 
Q 3428 1669 3622 1275 
L 4263 0 
L 3584 0 
L 2988 1197 
Q 2756 1666 2539 1819 
Q 2322 1972 1947 1972 
L 1259 1972 
L 1259 0 
L 628 0 
L 628 4666 
L 2053 4666 
Q 2853 4666 3247 4331 
Q 3641 3997 3641 3322 
Q 3641 2881 3436 2590 
Q 3231 2300 2841 2188 
z
M 1259 4147 
L 1259 2491 
L 2053 2491 
Q 2509 2491 2742 2702 
Q 2975 2913 2975 3322 
Q 2975 3731 2742 3939 
Q 2509 4147 2053 4147 
L 1259 4147 
z
" transform="scale(0.015625)"/>
       <path id="DejaVuSans-6f" d="M 1959 3097 
Q 1497 3097 1228 2736 
Q 959 2375 959 1747 
Q 959 1119 1226 758 
Q 1494 397 1959 397 
Q 2419 397 2687 759 
Q 2956 1122 2956 1747 
Q 2956 2369 2687 2733 
Q 2419 3097 1959 3097 
z
M 1959 3584 
Q 2709 3584 3137 3096 
Q 3566 2609 3566 1747 
Q 3566 888 3137 398 
Q 2709 -91 1959 -91 
Q 1206 -91 779 398 
Q 353 888 353 1747 
Q 353 2609 779 3096 
Q 1206 3584 1959 3584 
z
" transform="scale(0.015625)"/>
       <path id="DejaVuSans-74" d="M 1172 4494 
L 1172 3500 
L 2356 3500 
L 2356 3053 
L 1172 3053 
L 1172 1153 
Q 1172 725 1289 603 
Q 1406 481 1766 481 
L 2356 481 
L 2356 0 
L 1766 0 
Q 1100 0 847 248 
Q 594 497 594 1153 
L 594 3053 
L 172 3053 
L 172 3500 
L 594 3500 
L 594 4494 
L 1172 4494 
z
" transform="scale(0.015625)"/>
       <path id="DejaVuSans-6e" d="M 3513 2113 
L 3513 0 
L 2938 0 
L 2938 2094 
Q 2938 2591 2744 2837 
Q 2550 3084 2163 3084 
Q 1697 3084 1428 2787 
Q 1159 2491 1159 1978 
L 1159 0 
L 581 0 
L 581 3500 
L 1159 3500 
L 1159 2956 
Q 1366 3272 1645 3428 
Q 1925 3584 2291 3584 
Q 2894 3584 3203 3211 
Q 3513 2838 3513 2113 
z
" transform="scale(0.015625)"/>
      </defs>
      <use xlink:href="#DejaVuSans-61"/>
      <use xlink:href="#DejaVuSans-78" x="61.279297"/>
      <use xlink:href="#DejaVuSans-69" x="120.458984"/>
      <use xlink:href="#DejaVuSans-61" x="148.242188"/>
      <use xlink:href="#DejaVuSans-6c" x="209.521484"/>
      <use xlink:href="#DejaVuSans-52" x="237.304688"/>
      <use xlink:href="#DejaVuSans-6f" x="302.287109"/>
      <use xlink:href="#DejaVuSans-74" x="363.46875"/>
      <use xlink:href="#DejaVuSans-61" x="402.677734"/>
      <use xlink:href="#DejaVuSans-74" x="463.957031"/>
      <use xlink:href="#DejaVuSans-69" x="503.166016"/>
      <use xlink:href="#DejaVuSans-6f" x="530.949219"/>
      <use xlink:href="#DejaVuSans-6e" x="592.130859"/>
     </g>
    </g>
   </g>
   <g id="matplotlib.axis_2">
    <g id="ytick_1">
     <g id="line2d_7">
      <defs>
       <path id="mfdf8642243" d="M 0 0 
L -3.5 0 
" style="stroke: #000000; stroke-width: 0.8"/>
      </defs>
      <g>
       <use xlink:href="#mfdf8642243" x="34.240625" y="288.21825" style="stroke: #000000; stroke-width: 0.8"/>
      </g>
     </g>
     <g id="text_8">
      <!-- 0 -->
      <g transform="translate(20.878125 292.017469)scale(0.1 -0.1)">
       <use xlink:href="#DejaVuSans-30"/>
      </g>
     </g>
    </g>
    <g id="ytick_2">
     <g id="line2d_8">
      <g>
       <use xlink:href="#mfdf8642243" x="34.240625" y="243.86625" style="stroke: #000000; stroke-width: 0.8"/>
      </g>
     </g>
     <g id="text_9">
      <!-- 1 -->
      <g transform="translate(20.878125 247.665469)scale(0.1 -0.1)">
       <use xlink:href="#DejaVuSans-31"/>
      </g>
     </g>
    </g>
    <g id="ytick_3">
     <g id="line2d_9">
      <g>
       <use xlink:href="#mfdf8642243" x="34.240625" y="199.51425" style="stroke: #000000; stroke-width: 0.8"/>
      </g>
     </g>
     <g id="text_10">
      <!-- 2 -->
      <g transform="translate(20.878125 203.313469)scale(0.1 -0.1)">
       <use xlink:href="#DejaVuSans-32"/>
      </g>
     </g>
    </g>
    <g id="ytick_4">
     <g id="line2d_10">
      <g>
       <use xlink:href="#mfdf8642243" x="34.240625" y="155.16225" style="stroke: #000000; stroke-width: 0.8"/>
      </g>
     </g>
     <g id="text_11">
      <!-- 3 -->
      <g transform="translate(20.878125 158.961469)scale(0.1 -0.1)">
       <defs>
        <path id="DejaVuSans-33" d="M 2597 2516 
Q 3050 2419 3304 2112 
Q 3559 1806 3559 1356 
Q 3559 666 3084 287 
Q 2609 -91 1734 -91 
Q 1441 -91 1130 -33 
Q 819 25 488 141 
L 488 750 
Q 750 597 1062 519 
Q 1375 441 1716 441 
Q 2309 441 2620 675 
Q 2931 909 2931 1356 
Q 2931 1769 2642 2001 
Q 2353 2234 1838 2234 
L 1294 2234 
L 1294 2753 
L 1863 2753 
Q 2328 2753 2575 2939 
Q 2822 3125 2822 3475 
Q 2822 3834 2567 4026 
Q 2313 4219 1838 4219 
Q 1578 4219 1281 4162 
Q 984 4106 628 3988 
L 628 4550 
Q 988 4650 1302 4700 
Q 1616 4750 1894 4750 
Q 2613 4750 3031 4423 
Q 3450 4097 3450 3541 
Q 3450 3153 3228 2886 
Q 3006 2619 2597 2516 
z
" transform="scale(0.015625)"/>
       </defs>
       <use xlink:href="#DejaVuSans-33"/>
      </g>
     </g>
    </g>
    <g id="ytick_5">
     <g id="line2d_11">
      <g>
       <use xlink:href="#mfdf8642243" x="34.240625" y="110.81025" style="stroke: #000000; stroke-width: 0.8"/>
      </g>
     </g>
     <g id="text_12">
      <!-- 4 -->
      <g transform="translate(20.878125 114.609469)scale(0.1 -0.1)">
       <use xlink:href="#DejaVuSans-34"/>
      </g>
     </g>
    </g>
    <g id="ytick_6">
     <g id="line2d_12">
      <g>
       <use xlink:href="#mfdf8642243" x="34.240625" y="66.45825" style="stroke: #000000; stroke-width: 0.8"/>
      </g>
     </g>
     <g id="text_13">
      <!-- 5 -->
      <g transform="translate(20.878125 70.257469)scale(0.1 -0.1)">
       <defs>
        <path id="DejaVuSans-35" d="M 691 4666 
L 3169 4666 
L 3169 4134 
L 1269 4134 
L 1269 2991 
Q 1406 3038 1543 3061 
Q 1681 3084 1819 3084 
Q 2600 3084 3056 2656 
Q 3513 2228 3513 1497 
Q 3513 744 3044 326 
Q 2575 -91 1722 -91 
Q 1428 -91 1123 -41 
Q 819 9 494 109 
L 494 744 
Q 775 591 1075 516 
Q 1375 441 1709 441 
Q 2250 441 2565 725 
Q 2881 1009 2881 1497 
Q 2881 1984 2565 2268 
Q 2250 2553 1709 2553 
Q 1456 2553 1204 2497 
Q 953 2441 691 2322 
L 691 4666 
z
" transform="scale(0.015625)"/>
       </defs>
       <use xlink:href="#DejaVuSans-35"/>
      </g>
     </g>
    </g>
    <g id="ytick_7">
     <g id="line2d_13">
      <g>
       <use xlink:href="#mfdf8642243" x="34.240625" y="22.10625" style="stroke: #000000; stroke-width: 0.8"/>
      </g>
     </g>
     <g id="text_14">
      <!-- 6 -->
      <g transform="translate(20.878125 25.905469)scale(0.1 -0.1)">
       <use xlink:href="#DejaVuSans-36"/>
      </g>
     </g>
    </g>
    <g id="text_15">
     <!-- zShift -->
     <g transform="translate(14.798438 169.151312)rotate(-90)scale(0.1 -0.1)">
      <defs>
       <path id="DejaVuSans-7a" d="M 353 3500 
L 3084 3500 
L 3084 2975 
L 922 459 
L 3084 459 
L 3084 0 
L 275 0 
L 275 525 
L 2438 3041 
L 353 3041 
L 353 3500 
z
" transform="scale(0.015625)"/>
       <path id="DejaVuSans-53" d="M 3425 4513 
L 3425 3897 
Q 3066 4069 2747 4153 
Q 2428 4238 2131 4238 
Q 1616 4238 1336 4038 
Q 1056 3838 1056 3469 
Q 1056 3159 1242 3001 
Q 1428 2844 1947 2747 
L 2328 2669 
Q 3034 2534 3370 2195 
Q 3706 1856 3706 1288 
Q 3706 609 3251 259 
Q 2797 -91 1919 -91 
Q 1588 -91 1214 -16 
Q 841 59 441 206 
L 441 856 
Q 825 641 1194 531 
Q 1563 422 1919 422 
Q 2459 422 2753 634 
Q 3047 847 3047 1241 
Q 3047 1584 2836 1778 
Q 2625 1972 2144 2069 
L 1759 2144 
Q 1053 2284 737 2584 
Q 422 2884 422 3419 
Q 422 4038 858 4394 
Q 1294 4750 2059 4750 
Q 2388 4750 2728 4690 
Q 3069 4631 3425 4513 
z
" transform="scale(0.015625)"/>
       <path id="DejaVuSans-68" d="M 3513 2113 
L 3513 0 
L 2938 0 
L 2938 2094 
Q 2938 2591 2744 2837 
Q 2550 3084 2163 3084 
Q 1697 3084 1428 2787 
Q 1159 2491 1159 1978 
L 1159 0 
L 581 0 
L 581 4863 
L 1159 4863 
L 1159 2956 
Q 1366 3272 1645 3428 
Q 1925 3584 2291 3584 
Q 2894 3584 3203 3211 
Q 3513 2838 3513 2113 
z
" transform="scale(0.015625)"/>
       <path id="DejaVuSans-66" d="M 2375 4863 
L 2375 4384 
L 1825 4384 
Q 1516 4384 1395 4259 
Q 1275 4134 1275 3809 
L 1275 3500 
L 2222 3500 
L 2222 3053 
L 1275 3053 
L 1275 0 
L 697 0 
L 697 3053 
L 147 3053 
L 147 3500 
L 697 3500 
L 697 3744 
Q 697 4328 969 4595 
Q 1241 4863 1831 4863 
L 2375 4863 
z
" transform="scale(0.015625)"/>
      </defs>
      <use xlink:href="#DejaVuSans-7a"/>
      <use xlink:href="#DejaVuSans-53" x="52.490234"/>
      <use xlink:href="#DejaVuSans-68" x="115.966797"/>
      <use xlink:href="#DejaVuSans-69" x="179.345703"/>
      <use xlink:href="#DejaVuSans-66" x="207.128906"/>
      <use xlink:href="#DejaVuSans-74" x="240.583984"/>
     </g>
    </g>
   </g>
   <g id="PathCollection_1"/>
   <g id="PathCollection_2">
    <path d="M 58.46463 22.10625 
L 59.381873 24.637822 
L 59.427989 24.76737 
L 60.189589 27.42849 
L 60.762291 30.08961 
L 61.167473 32.614851 
L 61.189879 32.75073 
L 61.521896 35.41185 
L 61.762287 38.07297 
L 61.933459 40.73409 
L 62.053455 43.39521 
L 62.148234 46.49985 
L 62.204503 49.16097 
L 62.248668 51.82209 
L 62.290253 54.48321 
L 62.338845 57.14433 
L 62.405033 59.80545 
L 62.501379 62.46657 
L 62.64327 65.12769 
L 62.849353 67.78881 
L 62.953073 68.730024 
L 63.153999 70.44993 
L 63.58063 73.11105 
L 64.143732 75.77217 
L 64.738673 77.977896 
L 64.867504 78.43329 
L 65.797518 81.09441 
L 66.559985 82.956261 
L 66.897942 83.75553 
L 68.170877 86.41665 
L 68.345585 86.743945 
L 69.829034 89.52129 
L 70.131185 90.058193 
L 71.329941 92.18241 
L 71.916785 93.221346 
L 72.832634 94.84353 
L 73.738097 96.514624 
L 74.274234 97.50465 
L 75.523697 100.002958 
L 75.605356 100.16577 
L 76.827189 102.82689 
L 77.309297 104.04344 
L 77.891134 105.48801 
L 78.794392 108.14913 
L 79.094897 109.215992 
L 79.561329 110.81025 
L 80.19106 113.47137 
L 80.682623 116.13249 
L 80.916209 117.757414 
L 81.075631 118.79361 
L 81.391124 121.45473 
L 81.625735 124.11585 
L 81.796879 126.77697 
L 81.919045 129.43809 
L 82.004146 132.09921 
L 82.069385 135.20385 
L 82.104798 137.86497 
L 82.127457 140.52609 
L 82.141685 143.18721 
L 82.150541 145.84833 
L 82.156034 148.50945 
L 82.159382 151.17057 
L 82.161284 153.83169 
L 82.162178 156.49281 
L 82.16241 159.15393 
L 82.162309 161.81505 
L 82.162164 164.47617 
L 82.162154 167.13729 
L 82.16229 169.79841 
L 82.162414 172.45953 
L 82.162247 175.12065 
L 82.16125 178.22529 
L 82.159315 180.88641 
L 82.155926 183.54753 
L 82.150371 186.20865 
L 82.141419 188.86977 
L 82.127035 191.53089 
L 82.104134 194.19201 
L 82.068363 196.85313 
L 82.013917 199.51425 
L 81.933342 202.17537 
L 81.817298 204.83649 
L 81.654279 207.49761 
L 81.430297 210.15873 
L 81.128548 212.81985 
L 80.916209 214.253271 
L 80.746617 215.48097 
L 80.275449 218.14209 
L 79.671431 220.80321 
L 79.094897 222.816718 
L 78.792151 223.90785 
L 77.894166 226.56897 
L 77.309297 228.030705 
L 76.838002 229.23009 
L 75.628193 231.89121 
L 75.523697 232.101397 
L 74.310785 234.55233 
L 73.738097 235.619939 
L 72.884031 237.21345 
L 71.916785 238.942296 
L 71.395384 239.87457 
L 70.131185 242.131193 
L 69.905226 242.53569 
L 68.481375 245.19681 
L 68.345585 245.471216 
L 67.187831 247.85793 
L 66.559985 249.296022 
L 66.04084 250.51905 
L 65.070651 253.18017 
L 64.738673 254.276358 
L 64.284891 255.84129 
L 63.664499 258.50241 
L 63.170183 261.16353 
L 62.953073 262.63655 
L 62.786973 263.82465 
L 62.434933 266.92929 
L 62.163843 269.59041 
L 61.886619 272.25153 
L 61.570499 274.91265 
L 61.181634 277.57377 
L 61.167473 277.651783 
L 60.710787 280.23489 
L 60.098476 282.89601 
L 59.381873 285.288255 
L 59.300909 285.55713 
L 58.299542 288.21825 
" clip-path="url(#p0833c9ca87)" style="fill: none; stroke: #deebf7; stroke-width: 1.5"/>
    <path d="M 167.868588 288.21825 
L 167.108307 285.55713 
L 167.053553 285.315326 
L 166.480409 282.89601 
L 166.004107 280.23489 
L 165.649579 277.57377 
L 165.38914 274.91265 
L 165.232241 272.701105 
L 165.197434 272.25153 
L 165.04927 269.59041 
L 164.946522 266.92929 
L 164.867983 263.82465 
L 164.825409 261.16353 
L 164.798187 258.50241 
L 164.781116 255.84129 
L 164.770528 253.18017 
L 164.764002 250.51905 
L 164.760055 247.85793 
L 164.757815 245.19681 
L 164.75674 242.53569 
L 164.756415 239.87457 
L 164.756465 237.21345 
L 164.756566 234.55233 
L 164.756508 231.89121 
L 164.756243 229.23009 
L 164.755876 226.56897 
L 164.755586 223.90785 
L 164.755538 220.80321 
L 164.755766 218.14209 
L 164.756116 215.48097 
L 164.756398 212.81985 
L 164.756458 210.15873 
L 164.756264 207.49761 
L 164.755921 204.83649 
L 164.755615 202.17537 
L 164.755511 199.51425 
L 164.755666 196.85313 
L 164.755997 194.19201 
L 164.756322 191.53089 
L 164.756468 188.86977 
L 164.756353 186.20865 
L 164.756041 183.54753 
L 164.755701 180.88641 
L 164.755517 178.22529 
L 164.755625 175.12065 
L 164.755936 172.45953 
L 164.756277 169.79841 
L 164.756461 167.13729 
L 164.756389 164.47617 
L 164.7561 161.81505 
L 164.755751 159.15393 
L 164.755531 156.49281 
L 164.755559 153.83169 
L 164.75582 151.17057 
L 164.756172 148.50945 
L 164.756426 145.84833 
L 164.756442 143.18721 
L 164.756213 140.52609 
L 164.755862 137.86497 
L 164.75558 135.20385 
L 164.755535 132.09921 
L 164.755765 129.43809 
L 164.756116 126.77697 
L 164.756398 124.11585 
L 164.756458 121.45473 
L 164.756264 118.79361 
L 164.755921 116.13249 
L 164.755615 113.47137 
L 164.755512 110.81025 
L 164.755667 108.14913 
L 164.755997 105.48801 
L 164.756323 102.82689 
L 164.756469 100.16577 
L 164.756355 97.50465 
L 164.756043 94.84353 
L 164.755703 92.18241 
L 164.755521 89.52129 
L 164.755633 86.41665 
L 164.755954 83.75553 
L 164.756314 81.09441 
L 164.75654 78.43329 
L 164.756555 75.77217 
L 164.756442 73.11105 
L 164.756441 70.44993 
L 164.756891 67.78881 
L 164.758173 65.12769 
L 164.760719 62.46657 
L 164.765119 59.80545 
L 164.772347 57.14433 
L 164.784055 54.48321 
L 164.802901 51.82209 
L 164.832847 49.16097 
L 164.879442 46.49985 
L 164.964856 43.39521 
L 165.075909 40.73409 
L 165.232241 38.121668 
L 165.2349 38.07297 
L 165.436267 35.41185 
L 165.7136 32.75073 
L 166.089627 30.08961 
L 166.593029 27.42849 
L 167.053553 25.56307 
L 167.241481 24.76737 
L 168.03969 22.10625 
" clip-path="url(#p0833c9ca87)" style="fill: none; stroke: #deebf7; stroke-width: 1.5"/>
   </g>
   <g id="PathCollection_3">
    <path d="M 41.132986 22.10625 
L 41.418737 22.297821 
L 43.204337 23.85545 
L 44.042023 24.76737 
L 45.025649 26.089901 
L 45.865371 27.42849 
L 47.12463 30.08961 
L 48.004317 32.75073 
L 48.647649 35.41185 
L 49.088841 38.07297 
L 49.621644 43.39521 
L 49.889896 49.16097 
L 50.402776 65.12769 
L 50.910004 70.44993 
L 51.32836 73.11105 
L 52.203761 76.844583 
L 52.643194 78.43329 
L 53.989361 82.016812 
L 54.735278 83.75553 
L 56.089821 86.41665 
L 59.556716 92.18241 
L 62.972396 97.50465 
L 64.738673 100.437629 
L 66.559985 103.825645 
L 67.371385 105.48801 
L 68.496436 108.14913 
L 69.452205 110.81025 
L 70.229415 113.47137 
L 70.867047 116.13249 
L 71.363397 118.79361 
L 72.032291 124.11585 
L 72.406973 129.43809 
L 72.645862 137.86497 
L 72.718917 153.83169 
L 72.647185 194.19201 
L 72.432695 202.17537 
L 72.083221 207.49761 
L 71.452227 212.81985 
L 70.984073 215.48097 
L 70.131185 219.035588 
L 69.638899 220.80321 
L 68.345585 224.432481 
L 66.559985 228.431544 
L 66.16777 229.23009 
L 64.71601 231.89121 
L 61.167473 237.682324 
L 57.560561 243.461152 
L 55.774961 246.653764 
L 55.131941 247.85793 
L 53.92034 250.51905 
L 52.901894 253.18017 
L 52.080105 255.84129 
L 51.417295 258.50241 
L 50.469566 263.82465 
L 49.219475 272.25153 
L 48.596849 275.335898 
L 48.001549 277.57377 
L 46.811249 280.83611 
L 45.778746 282.89601 
L 45.025649 284.081541 
L 43.204337 286.334741 
L 40.960321 288.21825 
L 40.960321 288.21825 
" clip-path="url(#p0833c9ca87)" style="fill: none; stroke: #c6dbef; stroke-width: 1.5"/>
    <path d="M 178.169651 288.21825 
L 177.802865 287.324288 
L 177.093631 285.55713 
L 176.266964 282.89601 
L 176.017265 281.852332 
L 175.626391 280.23489 
L 175.140065 277.57377 
L 174.782704 274.91265 
L 174.524285 272.25153 
L 174.340952 269.59041 
L 174.231665 267.306838 
L 174.212658 266.92929 
L 174.109429 263.82465 
L 174.053433 261.16353 
L 174.017608 258.50241 
L 173.995134 255.84129 
L 173.981192 253.18017 
L 173.972599 250.51905 
L 173.967396 247.85793 
L 173.964436 245.19681 
L 173.963007 242.53569 
L 173.962567 239.87457 
L 173.962625 237.21345 
L 173.962759 234.55233 
L 173.962691 231.89121 
L 173.962352 229.23009 
L 173.961875 226.56897 
L 173.961493 223.90785 
L 173.96142 220.80321 
L 173.961711 218.14209 
L 173.962165 215.48097 
L 173.962537 212.81985 
L 173.962624 210.15873 
L 173.962379 207.49761 
L 173.961934 204.83649 
L 173.961532 202.17537 
L 173.961389 199.51425 
L 173.961583 196.85313 
L 173.96201 194.19201 
L 173.962437 191.53089 
L 173.962633 188.86977 
L 173.962492 186.20865 
L 173.962091 183.54753 
L 173.961646 180.88641 
L 173.961399 178.22529 
L 173.96153 175.12065 
L 173.961932 172.45953 
L 173.962376 169.79841 
L 173.962623 167.13729 
L 173.962538 164.47617 
L 173.962168 161.81505 
L 173.961712 159.15393 
L 173.961418 156.49281 
L 173.961446 153.83169 
L 173.96178 151.17057 
L 173.962239 148.50945 
L 173.962575 145.84833 
L 173.962605 143.18721 
L 173.962313 140.52609 
L 173.961857 137.86497 
L 173.961485 135.20385 
L 173.961418 132.09921 
L 173.961709 129.43809 
L 173.962165 126.77697 
L 173.962537 124.11585 
L 173.962624 121.45473 
L 173.962379 118.79361 
L 173.961934 116.13249 
L 173.961532 113.47137 
L 173.961389 110.81025 
L 173.961583 108.14913 
L 173.96201 105.48801 
L 173.962437 102.82689 
L 173.962634 100.16577 
L 173.962493 97.50465 
L 173.962091 94.84353 
L 173.961647 92.18241 
L 173.961402 89.52129 
L 173.961538 86.41665 
L 173.961951 83.75553 
L 173.962421 81.09441 
L 173.962721 78.43329 
L 173.962747 75.77217 
L 173.962601 73.11105 
L 173.962592 70.44993 
L 173.963157 67.78881 
L 173.964793 65.12769 
L 173.968057 62.46657 
L 173.973711 59.80545 
L 173.983005 57.14433 
L 173.998062 54.48321 
L 174.022304 51.82209 
L 174.060839 49.16097 
L 174.120834 46.49985 
L 174.230885 43.39521 
L 174.231665 43.380591 
L 174.36586 40.73409 
L 174.559485 38.07297 
L 174.831312 35.41185 
L 175.20582 32.75073 
L 175.713741 30.08961 
L 176.017265 28.875485 
L 176.375461 27.42849 
L 177.233002 24.76737 
L 177.802865 23.381656 
L 178.339048 22.10625 
" clip-path="url(#p0833c9ca87)" style="fill: none; stroke: #c6dbef; stroke-width: 1.5"/>
   </g>
   <g id="PathCollection_4">
    <path d="M 34.240625 82.875397 
L 36.026225 82.556488 
L 37.847537 83.10577 
L 38.770861 83.75553 
L 39.633137 84.227393 
L 41.418737 85.687033 
L 42.111066 86.41665 
L 43.204337 87.34561 
L 45.025649 89.194285 
L 45.303848 89.52129 
L 46.811249 91.027709 
L 47.842909 92.18241 
L 48.596849 92.937626 
L 50.316543 94.84353 
L 50.382449 94.911561 
L 52.203761 96.981171 
L 52.629264 97.50465 
L 53.989361 99.14107 
L 54.779007 100.16577 
L 55.774961 101.481887 
L 56.721948 102.82689 
L 57.560561 104.090031 
L 58.428486 105.48801 
L 59.381873 107.185104 
L 59.892371 108.14913 
L 61.118998 110.81025 
L 61.167473 110.933727 
L 62.117187 113.47137 
L 62.924446 116.13249 
L 62.953073 116.249665 
L 63.55502 118.79361 
L 64.041816 121.45473 
L 64.409741 124.11585 
L 64.681509 126.77697 
L 64.738673 127.550231 
L 64.876787 129.43809 
L 65.013518 132.09921 
L 65.118812 135.20385 
L 65.176133 137.86497 
L 65.212869 140.52609 
L 65.235982 143.18721 
L 65.250428 145.84833 
L 65.259458 148.50945 
L 65.265017 151.17057 
L 65.268201 153.83169 
L 65.269686 156.49281 
L 65.27003 159.15393 
L 65.269794 161.81505 
L 65.269492 164.47617 
L 65.269457 167.13729 
L 65.269724 169.79841 
L 65.270023 172.45953 
L 65.269868 175.12065 
L 65.268376 178.22529 
L 65.265344 180.88641 
L 65.260014 183.54753 
L 65.251341 186.20865 
L 65.237465 188.86977 
L 65.215254 191.53089 
L 65.179905 194.19201 
L 65.124643 196.85313 
L 65.040494 199.51425 
L 64.916091 202.17537 
L 64.738673 204.818824 
L 64.737476 204.83649 
L 64.487215 207.49761 
L 64.146735 210.15873 
L 63.694275 212.81985 
L 63.10618 215.48097 
L 62.953073 216.034884 
L 62.35157 218.14209 
L 61.413477 220.80321 
L 61.167473 221.385335 
L 60.045724 223.90785 
L 59.381873 225.189317 
L 58.62496 226.56897 
L 57.560561 228.318926 
L 56.968661 229.23009 
L 55.774961 230.955993 
L 55.080164 231.89121 
L 53.989361 233.326276 
L 52.983967 234.55233 
L 52.203761 235.519922 
L 50.723794 237.21345 
L 50.382449 237.626716 
L 48.596849 239.608359 
L 48.33018 239.87457 
L 46.811249 241.556221 
L 45.817526 242.53569 
L 45.025649 243.435224 
L 43.242754 245.19681 
L 43.204337 245.242266 
L 41.418737 246.977723 
L 40.261526 247.85793 
L 39.633137 248.455406 
L 37.847537 249.593871 
L 36.026225 250.117413 
L 34.240625 249.851683 
" clip-path="url(#p0833c9ca87)" style="fill: none; stroke: #9dcae1; stroke-width: 1.5"/>
    <path d="M 186.489596 288.21825 
L 185.022791 285.55713 
L 184.980977 285.461737 
L 183.906514 282.89601 
L 183.195377 280.656084 
L 183.065078 280.23489 
L 182.431247 277.57377 
L 181.965425 274.91265 
L 181.6285 272.25153 
L 181.409777 269.819759 
L 181.388924 269.59041 
L 181.219081 266.92929 
L 181.089113 263.82465 
L 181.018579 261.16353 
L 180.973437 258.50241 
L 180.94511 255.84129 
L 180.927536 253.18017 
L 180.916701 250.51905 
L 180.910138 247.85793 
L 180.906398 245.19681 
L 180.904585 242.53569 
L 180.904018 239.87457 
L 180.904086 237.21345 
L 180.904255 234.55233 
L 180.904175 231.89121 
L 180.903756 229.23009 
L 180.903161 226.56897 
L 180.902679 223.90785 
L 180.90258 220.80321 
L 180.902937 218.14209 
L 180.903504 215.48097 
L 180.903973 212.81985 
L 180.904089 210.15873 
L 180.903789 207.49761 
L 180.903235 204.83649 
L 180.902728 202.17537 
L 180.902542 199.51425 
L 180.902779 196.85313 
L 180.903309 194.19201 
L 180.903846 191.53089 
L 180.904098 188.86977 
L 180.903929 186.20865 
L 180.903431 183.54753 
L 180.902872 180.88641 
L 180.902558 178.22529 
L 180.902713 175.12065 
L 180.903212 172.45953 
L 180.90377 169.79841 
L 180.904085 167.13729 
L 180.903986 164.47617 
L 180.903526 161.81505 
L 180.902956 159.15393 
L 180.902583 156.49281 
L 180.902611 153.83169 
L 180.903023 151.17057 
L 180.903597 148.50945 
L 180.904021 145.84833 
L 180.904066 143.18721 
L 180.903707 140.52609 
L 180.903139 137.86497 
L 180.902669 135.20385 
L 180.902576 132.09921 
L 180.902935 129.43809 
L 180.903503 126.77697 
L 180.903973 124.11585 
L 180.904089 121.45473 
L 180.903789 118.79361 
L 180.903235 116.13249 
L 180.902728 113.47137 
L 180.902542 110.81025 
L 180.902779 108.14913 
L 180.903309 105.48801 
L 180.903846 102.82689 
L 180.904098 100.16577 
L 180.903929 97.50465 
L 180.903431 94.84353 
L 180.902874 92.18241 
L 180.902561 89.52129 
L 180.902723 86.41665 
L 180.903236 83.75553 
L 180.903824 81.09441 
L 180.904205 78.43329 
L 180.904243 75.77217 
L 180.904062 73.11105 
L 180.904043 70.44993 
L 180.904732 67.78881 
L 180.906749 65.12769 
L 180.910789 62.46657 
L 180.917795 59.80545 
L 180.929318 57.14433 
L 180.947989 54.48321 
L 180.978051 51.82209 
L 181.025854 49.16097 
L 181.100304 46.49985 
L 181.236938 43.39521 
L 181.409777 40.808292 
L 181.414663 40.73409 
L 181.664082 38.07297 
L 182.014336 35.41185 
L 182.497 32.75073 
L 183.151701 30.08961 
L 183.195377 29.951916 
L 184.016564 27.42849 
L 184.980977 25.170692 
L 185.161204 24.76737 
L 186.660563 22.10625 
" clip-path="url(#p0833c9ca87)" style="fill: none; stroke: #9dcae1; stroke-width: 1.5"/>
   </g>
   <g id="PathCollection_5">
    <path d="M 34.240625 106.834236 
L 35.462899 105.48801 
L 36.026225 104.951361 
L 37.847537 103.865241 
L 39.633137 103.398881 
L 41.418737 103.424703 
L 43.204337 103.867549 
L 45.025649 104.691711 
L 46.26882 105.48801 
L 46.811249 105.84967 
L 48.596849 107.383822 
L 49.33383 108.14913 
L 50.382449 109.339356 
L 51.484575 110.81025 
L 52.203761 111.902226 
L 53.103138 113.47137 
L 53.989361 115.301466 
L 54.347661 116.13249 
L 55.283781 118.79361 
L 55.774961 120.558536 
L 56.001366 121.45473 
L 56.518874 124.11585 
L 56.904901 126.77697 
L 57.185136 129.43809 
L 57.382768 132.09921 
L 57.53562 135.20385 
L 57.560561 135.998794 
L 57.614913 137.86497 
L 57.664652 140.52609 
L 57.695986 143.18721 
L 57.715628 145.84833 
L 57.727975 148.50945 
L 57.73563 151.17057 
L 57.740035 153.83169 
L 57.742071 156.49281 
L 57.742494 159.15393 
L 57.742093 161.81505 
L 57.741614 164.47617 
L 57.741549 167.13729 
L 57.741961 169.79841 
L 57.742461 172.45953 
L 57.742352 175.12065 
L 57.74041 178.22529 
L 57.736338 180.88641 
L 57.729168 183.54753 
L 57.717567 186.20865 
L 57.699116 188.86977 
L 57.669674 191.53089 
L 57.622851 194.19201 
L 57.560561 196.456518 
L 57.548812 196.85313 
L 57.428966 199.51425 
L 57.252221 202.17537 
L 56.999593 204.83649 
L 56.649072 207.49761 
L 56.176083 210.15873 
L 55.774961 211.880035 
L 55.534018 212.81985 
L 54.667251 215.48097 
L 53.989361 217.163016 
L 53.546706 218.14209 
L 52.203761 220.631505 
L 52.097377 220.80321 
L 50.382449 223.189949 
L 49.777202 223.90785 
L 48.596849 225.169522 
L 47.022617 226.56897 
L 46.811249 226.747008 
L 45.025649 227.92387 
L 43.204337 228.789036 
L 41.555434 229.23009 
L 41.418737 229.266738 
L 39.633137 229.32146 
L 39.228601 229.23009 
L 37.847537 228.883474 
L 36.026225 227.812414 
L 34.758903 226.56897 
L 34.240625 225.97538 
" clip-path="url(#p0833c9ca87)" style="fill: none; stroke: #6aaed6; stroke-width: 1.5"/>
    <path d="M 194.928938 288.21825 
L 193.944689 287.065131 
L 192.784186 285.55713 
L 192.159089 284.546183 
L 191.21875 282.89601 
L 190.373489 280.983079 
L 190.062733 280.23489 
L 189.215691 277.57377 
L 188.593133 274.91265 
L 188.587889 274.882185 
L 188.148511 272.25153 
L 187.832953 269.59041 
L 187.613862 266.92929 
L 187.446151 263.82465 
L 187.355101 261.16353 
L 187.296809 258.50241 
L 187.260223 255.84129 
L 187.237523 253.18017 
L 187.223527 250.51905 
L 187.215045 247.85793 
L 187.210205 245.19681 
L 187.20785 242.53569 
L 187.207107 239.87457 
L 187.207187 237.21345 
L 187.207406 234.55233 
L 187.207309 231.89121 
L 187.206778 229.23009 
L 187.206014 226.56897 
L 187.205391 223.90785 
L 187.205255 220.80321 
L 187.205707 218.14209 
L 187.206433 215.48097 
L 187.20704 212.81985 
L 187.207196 210.15873 
L 187.206818 207.49761 
L 187.206109 204.83649 
L 187.205455 202.17537 
L 187.20521 199.51425 
L 187.205506 196.85313 
L 187.206183 194.19201 
L 187.206875 191.53089 
L 187.207205 188.86977 
L 187.206996 186.20865 
L 187.20636 183.54753 
L 187.205642 180.88641 
L 187.205232 178.22529 
L 187.205422 175.12065 
L 187.206058 172.45953 
L 187.206776 169.79841 
L 187.207186 167.13729 
L 187.207067 164.47617 
L 187.206483 161.81505 
L 187.20575 159.15393 
L 187.205266 156.49281 
L 187.205294 153.83169 
L 187.205817 151.17057 
L 187.206553 148.50945 
L 187.207103 145.84833 
L 187.207168 143.18721 
L 187.206713 140.52609 
L 187.205986 137.86497 
L 187.205379 135.20385 
L 187.20525 132.09921 
L 187.205705 129.43809 
L 187.206433 126.77697 
L 187.207039 124.11585 
L 187.207196 121.45473 
L 187.206818 118.79361 
L 187.206109 116.13249 
L 187.205455 113.47137 
L 187.20521 110.81025 
L 187.205506 108.14913 
L 187.206183 105.48801 
L 187.206875 102.82689 
L 187.207205 100.16577 
L 187.206996 97.50465 
L 187.206361 94.84353 
L 187.205644 92.18241 
L 187.205237 89.52129 
L 187.205436 86.41665 
L 187.206089 83.75553 
L 187.206845 81.09441 
L 187.207339 78.43329 
L 187.207393 75.77217 
L 187.207163 73.11105 
L 187.207131 70.44993 
L 187.207997 67.78881 
L 187.210555 65.12769 
L 187.215693 62.46657 
L 187.224617 59.80545 
L 187.239297 57.14433 
L 187.263088 54.48321 
L 187.301398 51.82209 
L 187.362327 49.16097 
L 187.457252 46.49985 
L 187.631524 43.39521 
L 187.858431 40.73409 
L 188.184254 38.07297 
L 188.587889 35.721284 
L 188.642612 35.41185 
L 189.281482 32.75073 
L 190.14812 30.08961 
L 190.373489 29.55609 
L 191.328869 27.42849 
L 192.159089 25.989373 
L 192.923195 24.76737 
L 193.944689 23.450336 
L 195.099212 22.10625 
" clip-path="url(#p0833c9ca87)" style="fill: none; stroke: #6aaed6; stroke-width: 1.5"/>
    <path d="M 391.360625 288.054648 
L 391.212387 288.21825 
" clip-path="url(#p0833c9ca87)" style="fill: none; stroke: #6aaed6; stroke-width: 1.5"/>
   </g>
   <g id="PathCollection_6">
    <path d="M 205.838164 288.21825 
L 204.729713 287.552005 
L 202.944113 286.31824 
L 201.979479 285.55713 
L 201.122801 284.733782 
L 199.439332 282.89601 
L 199.337201 282.755543 
L 197.690094 280.23489 
L 197.551601 279.958605 
L 196.457595 277.57377 
L 195.766001 275.540509 
L 195.567391 274.91265 
L 194.947295 272.25153 
L 194.507058 269.59041 
L 194.201336 266.92929 
L 193.96724 263.82465 
L 193.944689 263.354067 
L 193.844201 261.16353 
L 193.765972 258.50241 
L 193.716863 255.84129 
L 193.686391 253.18017 
L 193.6676 250.51905 
L 193.656208 247.85793 
L 193.6497 245.19681 
L 193.646523 242.53569 
L 193.64551 239.87457 
L 193.645609 237.21345 
L 193.645903 234.55233 
L 193.645782 231.89121 
L 193.645079 229.23009 
L 193.644061 226.56897 
L 193.643225 223.90785 
L 193.643032 220.80321 
L 193.643628 218.14209 
L 193.644595 215.48097 
L 193.645409 212.81985 
L 193.645627 210.15873 
L 193.645131 207.49761 
L 193.644189 204.83649 
L 193.643312 202.17537 
L 193.642975 199.51425 
L 193.643362 196.85313 
L 193.644261 194.19201 
L 193.645187 191.53089 
L 193.645636 188.86977 
L 193.645366 186.20865 
L 193.644523 183.54753 
L 193.643563 180.88641 
L 193.643008 178.22529 
L 193.643251 175.12065 
L 193.644095 172.45953 
L 193.645054 169.79841 
L 193.645609 167.13729 
L 193.64546 164.47617 
L 193.644686 161.81505 
L 193.643708 159.15393 
L 193.643056 156.49281 
L 193.643082 153.83169 
L 193.643774 151.17057 
L 193.644756 148.50945 
L 193.645495 145.84833 
L 193.645591 143.18721 
L 193.644992 140.52609 
L 193.644023 137.86497 
L 193.643209 135.20385 
L 193.643026 132.09921 
L 193.643625 129.43809 
L 193.644594 126.77697 
L 193.645409 124.11585 
L 193.645627 121.45473 
L 193.645131 118.79361 
L 193.644189 116.13249 
L 193.643312 113.47137 
L 193.642975 110.81025 
L 193.643362 108.14913 
L 193.644261 105.48801 
L 193.645187 102.82689 
L 193.645636 100.16577 
L 193.645367 97.50465 
L 193.644524 94.84353 
L 193.643566 92.18241 
L 193.643015 89.52129 
L 193.643269 86.41665 
L 193.644135 83.75553 
L 193.645146 81.09441 
L 193.645811 78.43329 
L 193.645891 75.77217 
L 193.645585 73.11105 
L 193.645534 70.44993 
L 193.646668 67.78881 
L 193.650044 65.12769 
L 193.656847 62.46657 
L 193.668675 59.80545 
L 193.688139 57.14433 
L 193.719686 54.48321 
L 193.770489 51.82209 
L 193.851305 49.16097 
L 193.944689 47.185939 
L 193.978572 46.49985 
L 194.219278 43.39521 
L 194.532772 40.73409 
L 194.983028 38.07297 
L 195.615576 35.41185 
L 195.766001 34.943933 
L 196.52358 32.75073 
L 197.551601 30.536588 
L 197.778141 30.08961 
L 199.337201 27.72291 
L 199.552708 27.42849 
L 201.122801 25.721555 
L 202.117914 24.76737 
L 202.944113 24.115547 
L 204.729713 22.87652 
L 206.006422 22.10625 
" clip-path="url(#p0833c9ca87)" style="fill: none; stroke: #4191c6; stroke-width: 1.5"/>
    <path d="M 380.483596 22.10625 
L 380.575601 22.157745 
L 382.396913 23.31737 
L 384.182513 24.637905 
L 384.33861 24.76737 
L 385.968113 26.415376 
L 386.85423 27.42849 
L 387.753713 28.726488 
L 388.605511 30.08961 
L 389.575025 32.117846 
L 389.852854 32.75073 
L 390.732155 35.41185 
L 391.360625 38.04023 
" clip-path="url(#p0833c9ca87)" style="fill: none; stroke: #4191c6; stroke-width: 1.5"/>
    <path d="M 391.360625 272.086334 
L 391.331621 272.25153 
L 390.682755 274.91265 
L 389.788363 277.57377 
L 389.575025 278.053536 
L 388.519866 280.23489 
L 387.753713 281.450222 
L 386.744317 282.89601 
L 385.968113 283.779216 
L 384.204805 285.55713 
L 384.182513 285.575605 
L 382.396913 286.900451 
L 380.575601 288.0664 
L 380.305542 288.21825 
" clip-path="url(#p0833c9ca87)" style="fill: none; stroke: #4191c6; stroke-width: 1.5"/>
   </g>
   <g id="PathCollection_7">
    <path d="M 202.491899 269.59041 
L 202.019198 266.92929 
L 201.657139 263.82465 
L 201.460449 261.16353 
L 201.334458 258.50241 
L 201.255352 255.84129 
L 201.206262 253.18017 
L 201.17599 250.51905 
L 201.157629 247.85793 
L 201.147127 245.19681 
L 201.141985 242.53569 
L 201.14033 239.87457 
L 201.140476 237.21345 
L 201.140951 234.55233 
L 201.140768 231.89121 
L 201.139653 229.23009 
L 201.138025 226.56897 
L 201.136678 223.90785 
L 201.136352 220.80321 
L 201.137293 218.14209 
L 201.13884 215.48097 
L 201.140152 212.81985 
L 201.140515 210.15873 
L 201.139732 207.49761 
L 201.138228 204.83649 
L 201.136818 202.17537 
L 201.136266 199.51425 
L 201.136871 196.85313 
L 201.138305 194.19201 
L 201.139792 191.53089 
L 201.140524 188.86977 
L 201.140106 186.20865 
L 201.138763 183.54753 
L 201.137224 180.88641 
L 201.136323 178.22529 
L 201.136696 175.12065 
L 201.138038 172.45953 
L 201.139577 169.79841 
L 201.140479 167.13729 
L 201.140254 164.47617 
L 201.139024 161.81505 
L 201.137457 159.15393 
L 201.136401 156.49281 
L 201.13643 153.83169 
L 201.137526 151.17057 
L 201.139097 148.50945 
L 201.140291 145.84833 
L 201.14046 143.18721 
L 201.139513 140.52609 
L 201.137963 137.86497 
L 201.136651 135.20385 
L 201.136342 132.09921 
L 201.137289 129.43809 
L 201.138839 126.77697 
L 201.140151 124.11585 
L 201.140515 121.45473 
L 201.139732 118.79361 
L 201.138228 116.13249 
L 201.136818 113.47137 
L 201.136266 110.81025 
L 201.136871 108.14913 
L 201.138305 105.48801 
L 201.139792 102.82689 
L 201.140524 100.16577 
L 201.140106 97.50465 
L 201.138765 94.84353 
L 201.137228 92.18241 
L 201.136333 89.52129 
L 201.136724 86.41665 
L 201.138103 83.75553 
L 201.139723 81.09441 
L 201.140798 78.43329 
L 201.140938 75.77217 
L 201.140451 73.11105 
L 201.140355 70.44993 
L 201.142138 67.78881 
L 201.147489 65.12769 
L 201.158301 62.46657 
L 201.177119 59.80545 
L 201.208099 57.14433 
L 201.258312 54.48321 
L 201.339184 51.82209 
L 201.467853 49.16097 
L 201.668418 46.49985 
L 202.036871 43.39521 
L 202.516876 40.73409 
L 202.944113 39.077675 
L 203.229668 38.07297 
L 204.28433 35.41185 
L 204.729713 34.583627 
L 205.836294 32.75073 
L 206.515313 31.89833 
L 208.159254 30.08961 
L 208.300913 29.967596 
L 210.122225 28.594779 
L 211.907825 27.4452 
L 211.937848 27.42849 
L 213.693425 26.634436 
L 215.479025 25.949163 
L 217.300337 25.360089 
L 219.085937 24.876024 
L 219.563307 24.76737 
L 220.871537 24.516207 
L 222.657137 24.231149 
L 224.478449 23.991868 
L 226.264049 23.800151 
L 228.049649 23.64425 
L 229.835249 23.518391 
L 231.656561 23.41575 
L 233.442161 23.335934 
L 235.227761 23.272976 
L 237.013361 23.223712 
L 238.834673 23.184806 
L 240.620273 23.155528 
L 242.405873 23.133179 
L 244.191473 23.116264 
L 246.012785 23.10335 
L 247.798385 23.093958 
L 249.583985 23.087028 
L 251.369585 23.081959 
L 253.190897 23.078221 
L 254.976497 23.075595 
L 256.762097 23.073723 
L 258.547697 23.0724 
L 260.369009 23.071457 
L 262.154609 23.070818 
L 263.940209 23.070378 
L 265.725809 23.070077 
L 267.547121 23.06987 
L 269.332721 23.069735 
L 271.118321 23.069644 
L 272.903921 23.069585 
L 274.725233 23.069545 
L 276.510833 23.06952 
L 278.296433 23.069504 
L 280.082033 23.069494 
L 281.903345 23.069487 
L 283.688945 23.069483 
L 285.474545 23.069481 
L 287.260145 23.069479 
L 289.081457 23.069478 
L 290.867057 23.069478 
L 292.652657 23.069478 
L 294.438257 23.069478 
L 296.259569 23.069478 
L 298.045169 23.069479 
L 299.830769 23.06948 
L 301.616369 23.069482 
L 303.437681 23.069485 
L 305.223281 23.069489 
L 307.008881 23.069497 
L 308.794481 23.069509 
L 310.615793 23.069528 
L 312.401393 23.069558 
L 314.186993 23.069603 
L 315.972593 23.069672 
L 317.793905 23.069779 
L 319.579505 23.069936 
L 321.365105 23.07017 
L 323.150705 23.070514 
L 324.972017 23.071028 
L 326.757617 23.071761 
L 328.543217 23.072812 
L 330.328817 23.074308 
L 332.150129 23.076469 
L 333.935729 23.07944 
L 335.721329 23.083559 
L 337.506929 23.089222 
L 339.328241 23.09712 
L 341.113841 23.107613 
L 342.899441 23.12167 
L 344.685041 23.140346 
L 346.506353 23.165512 
L 348.291953 23.197822 
L 350.077553 23.239679 
L 351.863153 23.29346 
L 353.684465 23.363554 
L 355.470065 23.450638 
L 357.255665 23.559892 
L 359.041265 23.695925 
L 360.862577 23.867793 
L 362.648177 24.07497 
L 364.433777 24.327462 
L 366.219377 24.63318 
L 366.873173 24.76737 
L 368.040689 25.051883 
L 369.826289 25.571706 
L 371.611889 26.190197 
L 373.397489 26.922404 
L 374.450451 27.42849 
L 375.218801 27.884109 
L 377.004401 29.11681 
L 378.217905 30.08961 
L 378.790001 30.675538 
L 380.554323 32.75073 
L 380.575601 32.783764 
L 382.07283 35.41185 
L 382.396913 36.188196 
L 383.103491 38.07297 
L 383.815489 40.73409 
L 384.182513 42.704493 
L 384.30021 43.39521 
L 384.649826 46.49985 
L 384.839758 49.16097 
L 384.961422 51.82209 
L 385.03781 54.48321 
L 385.085215 57.14433 
L 385.114448 59.80545 
L 385.132178 62.46657 
L 385.14232 65.12769 
L 385.147284 67.78881 
L 385.148883 70.44993 
L 385.148742 73.11105 
L 385.148284 75.77217 
L 385.14846 78.43329 
L 385.149537 81.09441 
L 385.151109 83.75553 
L 385.15241 86.41665 
L 385.152725 89.52129 
L 385.151816 92.18241 
L 385.150322 94.84353 
L 385.149055 97.50465 
L 385.148705 100.16577 
L 385.14946 102.82689 
L 385.150912 105.48801 
L 385.152274 108.14913 
L 385.152808 110.81025 
L 385.152224 113.47137 
L 385.150838 116.13249 
L 385.149403 118.79361 
L 385.148695 121.45473 
L 385.149099 124.11585 
L 385.150396 126.77697 
L 385.151882 129.43809 
L 385.152752 132.09921 
L 385.152392 135.20385 
L 385.151096 137.86497 
L 385.14961 140.52609 
L 385.148739 143.18721 
L 385.148957 145.84833 
L 385.150144 148.50945 
L 385.151657 151.17057 
L 385.152677 153.83169 
L 385.152649 156.49281 
L 385.15159 159.15393 
L 385.150074 161.81505 
L 385.148921 164.47617 
L 385.148758 167.13729 
L 385.149672 169.79841 
L 385.151169 172.45953 
L 385.152436 175.12065 
L 385.152734 178.22529 
L 385.15182 180.88641 
L 385.150323 183.54753 
L 385.149056 186.20865 
L 385.148705 188.86977 
L 385.14946 191.53089 
L 385.150912 194.19201 
L 385.152274 196.85313 
L 385.152808 199.51425 
L 385.152224 202.17537 
L 385.150838 204.83649 
L 385.149403 207.49761 
L 385.148695 210.15873 
L 385.149099 212.81985 
L 385.150394 215.48097 
L 385.151878 218.14209 
L 385.152743 220.80321 
L 385.152365 223.90785 
L 385.151034 226.56897 
L 385.149469 229.23009 
L 385.148431 231.89121 
L 385.148296 234.55233 
L 385.148766 237.21345 
L 385.148858 239.87457 
L 385.147138 242.53569 
L 385.14197 245.19681 
L 385.13153 247.85793 
L 385.113358 250.51905 
L 385.083443 253.18017 
L 385.034954 255.84129 
L 384.956861 258.50241 
L 384.832611 261.16353 
L 384.638933 263.82465 
L 384.283129 266.92929 
L 384.182513 267.5108 
L 383.789354 269.59041 
L 383.067989 272.25153 
L 382.396913 274.023509 
L 382.022281 274.91265 
L 380.575601 277.43463 
L 380.485467 277.57377 
L 378.790001 279.560745 
L 378.130424 280.23489 
L 377.004401 281.137276 
L 375.218801 282.373003 
L 374.339474 282.89601 
L 373.397489 283.350717 
L 371.611889 284.087863 
L 369.826289 284.71151 
L 368.040689 285.236456 
L 366.738524 285.55713 
L 366.219377 285.664883 
L 364.433777 285.974564 
L 362.648177 286.230634 
L 360.862577 286.440985 
L 359.041265 286.615678 
L 357.255665 286.754094 
L 355.470065 286.865372 
L 353.684465 286.954156 
L 351.863153 287.025684 
L 350.077553 287.080617 
L 348.291953 287.123408 
L 346.506353 287.156467 
L 344.685041 287.182238 
L 342.899441 287.201379 
L 341.113841 287.215799 
L 339.328241 287.22657 
L 337.506929 287.234684 
L 335.721329 287.240507 
L 333.935729 287.244746 
L 332.150129 287.247805 
L 330.328817 287.250032 
L 328.543217 287.251575 
L 326.757617 287.25266 
L 324.972017 287.253417 
L 323.150705 287.253949 
L 321.365105 287.254305 
L 319.579505 287.254547 
L 317.793905 287.25471 
L 315.972593 287.25482 
L 314.186993 287.254892 
L 312.401393 287.254939 
L 310.615793 287.254969 
L 308.794481 287.25499 
L 307.008881 287.255002 
L 305.223281 287.25501 
L 303.437681 287.255015 
L 301.616369 287.255018 
L 299.830769 287.25502 
L 298.045169 287.255021 
L 296.259569 287.255022 
L 294.438257 287.255022 
L 292.652657 287.255022 
L 290.867057 287.255022 
L 289.081457 287.255022 
L 287.260145 287.255021 
L 285.474545 287.255019 
L 283.688945 287.255017 
L 281.903345 287.255013 
L 280.082033 287.255007 
L 278.296433 287.254997 
L 276.510833 287.254981 
L 274.725233 287.254957 
L 272.903921 287.254919 
L 271.118321 287.254862 
L 269.332721 287.254775 
L 267.547121 287.254644 
L 265.725809 287.254444 
L 263.940209 287.254154 
L 262.154609 287.253728 
L 260.369009 287.253109 
L 258.547697 287.252197 
L 256.762097 287.250914 
L 254.976497 287.249099 
L 253.190897 287.24655 
L 251.369585 287.242918 
L 249.583985 287.23799 
L 247.798385 287.231247 
L 246.012785 287.222102 
L 244.191473 287.209516 
L 242.405873 287.193018 
L 240.620273 287.171202 
L 238.834673 287.142598 
L 237.013361 287.104556 
L 235.227761 287.056343 
L 233.442161 286.994674 
L 231.656561 286.91642 
L 229.835249 286.815691 
L 228.049649 286.692053 
L 226.264049 286.538746 
L 224.478449 286.350017 
L 222.657137 286.114202 
L 220.871537 285.832941 
L 219.418139 285.55713 
L 219.085937 285.482343 
L 217.300337 285.003322 
L 215.479025 284.419518 
L 213.693425 283.739315 
L 211.907825 282.936158 
L 211.830608 282.89601 
L 210.122225 281.798986 
L 208.300913 280.42803 
L 208.076899 280.23489 
L 206.515313 278.511909 
L 205.771248 277.57377 
L 204.729713 275.837328 
L 204.236259 274.91265 
L 203.192705 272.25153 
L 202.944113 271.366201 
L 202.491899 269.59041 
z
" clip-path="url(#p0833c9ca87)" style="fill: none; stroke: #2070b4; stroke-width: 1.5"/>
   </g>
   <g id="PathCollection_8">
    <path d="M 213.683758 263.82465 
L 213.245424 261.16353 
L 212.964572 258.50241 
L 212.788203 255.84129 
L 212.678746 253.18017 
L 212.611241 250.51905 
L 212.570282 247.85793 
L 212.546825 245.19681 
L 212.535305 242.53569 
L 212.53156 239.87457 
L 212.531851 237.21345 
L 212.53291 234.55233 
L 212.532531 231.89121 
L 212.530085 229.23009 
L 212.526485 226.56897 
L 212.52348 223.90785 
L 212.522719 220.80321 
L 212.524776 218.14209 
L 212.528196 215.48097 
L 212.53112 212.81985 
L 212.531958 210.15873 
L 212.530256 207.49761 
L 212.526935 204.83649 
L 212.523796 202.17537 
L 212.52254 199.51425 
L 212.523847 196.85313 
L 212.52701 194.19201 
L 212.530313 191.53089 
L 212.531967 188.86977 
L 212.531074 186.20865 
L 212.528119 183.54753 
L 212.524703 180.88641 
L 212.522679 178.22529 
L 212.523465 175.12065 
L 212.52642 172.45953 
L 212.529836 169.79841 
L 212.53186 167.13729 
L 212.531396 164.47617 
L 212.528695 161.81505 
L 212.525221 159.15393 
L 212.522858 156.49281 
L 212.522886 153.83169 
L 212.52529 151.17057 
L 212.528767 148.50945 
L 212.531433 145.84833 
L 212.531842 143.18721 
L 212.529772 140.52609 
L 212.526346 137.86497 
L 212.523421 135.20385 
L 212.522697 132.09921 
L 212.524767 129.43809 
L 212.528193 126.77697 
L 212.531118 124.11585 
L 212.531957 121.45473 
L 212.530255 118.79361 
L 212.526935 116.13249 
L 212.523796 113.47137 
L 212.52254 110.81025 
L 212.523847 108.14913 
L 212.52701 105.48801 
L 212.530314 102.82689 
L 212.531967 100.16577 
L 212.531075 97.50465 
L 212.528122 94.84353 
L 212.524712 92.18241 
L 212.522701 89.52129 
L 212.523526 86.41665 
L 212.526561 83.75553 
L 212.530154 81.09441 
L 212.532561 78.43329 
L 212.532897 75.77217 
L 212.531826 73.11105 
L 212.531584 70.44993 
L 212.535455 67.78881 
L 212.54718 65.12769 
L 212.570941 62.46657 
L 212.612346 59.80545 
L 212.680535 57.14433 
L 212.79107 54.48321 
L 212.969104 51.82209 
L 213.252412 49.16097 
L 213.693425 46.504091 
L 213.694235 46.49985 
L 214.625443 43.39521 
L 215.479025 41.518539 
L 215.896074 40.73409 
L 217.300337 38.87791 
L 218.021139 38.07297 
L 219.085937 37.209879 
L 220.871537 35.99708 
L 221.907109 35.41185 
L 222.657137 35.094057 
L 224.478449 34.456671 
L 226.264049 33.946017 
L 228.049649 33.530798 
L 229.835249 33.195627 
L 231.656561 32.922322 
L 233.097934 32.75073 
L 233.442161 32.718947 
L 235.227761 32.588733 
L 237.013361 32.486859 
L 238.834673 32.406421 
L 240.620273 32.345898 
L 242.405873 32.299709 
L 244.191473 32.264756 
L 246.012785 32.238076 
L 247.798385 32.218676 
L 249.583985 32.204367 
L 251.369585 32.193901 
L 253.190897 32.186184 
L 254.976497 32.180764 
L 256.762097 32.176901 
L 258.547697 32.174172 
L 260.369009 32.172228 
L 262.154609 32.17091 
L 263.940209 32.170002 
L 265.725809 32.169382 
L 267.547121 32.168956 
L 269.332721 32.168676 
L 271.118321 32.168491 
L 272.903921 32.168368 
L 274.725233 32.168287 
L 276.510833 32.168235 
L 278.296433 32.168202 
L 280.082033 32.168181 
L 281.903345 32.168167 
L 283.688945 32.168159 
L 285.474545 32.168154 
L 287.260145 32.168151 
L 289.081457 32.168149 
L 290.867057 32.168148 
L 292.652657 32.168148 
L 294.438257 32.168148 
L 296.259569 32.168148 
L 298.045169 32.16815 
L 299.830769 32.168152 
L 301.616369 32.168156 
L 303.437681 32.168162 
L 305.223281 32.168172 
L 307.008881 32.168188 
L 308.794481 32.168213 
L 310.615793 32.168254 
L 312.401393 32.168316 
L 314.186993 32.168411 
L 315.972593 32.168556 
L 317.793905 32.16878 
L 319.579505 32.169111 
L 321.365105 32.169602 
L 323.150705 32.170325 
L 324.972017 32.171406 
L 326.757617 32.172945 
L 328.543217 32.175152 
L 330.328817 32.178293 
L 332.150129 32.182826 
L 333.935729 32.189061 
L 335.721329 32.197702 
L 337.506929 32.209579 
L 339.328241 32.22614 
L 341.113841 32.248138 
L 342.899441 32.277604 
L 344.685041 32.31674 
L 346.506353 32.369465 
L 348.291953 32.437147 
L 350.077553 32.524808 
L 351.863153 32.637422 
L 353.270035 32.75073 
L 353.684465 32.793766 
L 355.470065 33.028392 
L 357.255665 33.322706 
L 359.041265 33.689117 
L 360.862577 34.152 
L 362.648177 34.709934 
L 364.433777 35.389862 
L 364.481811 35.41185 
L 366.219377 36.474096 
L 368.040689 37.81624 
L 368.333934 38.07297 
L 369.826289 39.876305 
L 370.428741 40.73409 
L 371.611889 43.135971 
L 371.721645 43.39521 
L 372.591858 46.49985 
L 373.06474 49.16097 
L 373.367726 51.82209 
L 373.397489 52.237812 
L 373.53775 54.48321 
L 373.640939 57.14433 
L 373.704578 59.80545 
L 373.743192 62.46657 
L 373.765307 65.12769 
L 373.776166 67.78881 
L 373.779697 70.44993 
L 373.779423 73.11105 
L 373.778424 75.77217 
L 373.778782 78.43329 
L 373.781087 81.09441 
L 373.784482 83.75553 
L 373.787314 86.41665 
L 373.788032 89.52129 
L 373.786093 92.18241 
L 373.782868 94.84353 
L 373.780112 97.50465 
L 373.779322 100.16577 
L 373.780927 102.82689 
L 373.784057 105.48801 
L 373.787017 108.14913 
L 373.788201 110.81025 
L 373.786968 113.47137 
L 373.783987 116.13249 
L 373.780872 118.79361 
L 373.779313 121.45473 
L 373.780155 124.11585 
L 373.782941 126.77697 
L 373.786161 129.43809 
L 373.78807 132.09921 
L 373.787329 135.20385 
L 373.784543 137.86497 
L 373.781323 140.52609 
L 373.779414 143.18721 
L 373.779851 145.84833 
L 373.782398 148.50945 
L 373.785673 151.17057 
L 373.787901 153.83169 
L 373.787875 156.49281 
L 373.785609 159.15393 
L 373.78233 161.81505 
L 373.779817 164.47617 
L 373.779432 167.13729 
L 373.781383 169.79841 
L 373.784613 172.45953 
L 373.78737 175.12065 
L 373.788052 178.22529 
L 373.786101 180.88641 
L 373.782872 183.54753 
L 373.780114 186.20865 
L 373.779322 188.86977 
L 373.780927 191.53089 
L 373.784058 194.19201 
L 373.787017 196.85313 
L 373.788201 199.51425 
L 373.786968 202.17537 
L 373.783987 204.83649 
L 373.780872 207.49761 
L 373.779313 210.15873 
L 373.780154 212.81985 
L 373.782938 215.48097 
L 373.786153 218.14209 
L 373.788049 220.80321 
L 373.787271 223.90785 
L 373.78441 226.56897 
L 373.781022 229.23009 
L 373.778753 231.89121 
L 373.778436 234.55233 
L 373.779446 237.21345 
L 373.779674 239.87457 
L 373.776025 242.53569 
L 373.764971 245.19681 
L 373.742571 247.85793 
L 373.703537 250.51905 
L 373.639251 253.18017 
L 373.535045 255.84129 
L 373.397489 258.022784 
L 373.362832 258.50241 
L 373.057201 261.16353 
L 372.580679 263.82465 
L 371.705036 266.92929 
L 371.611889 267.148217 
L 370.403827 269.59041 
L 369.826289 270.410418 
L 368.299957 272.25153 
L 368.040689 272.478367 
L 366.219377 273.821103 
L 364.436746 274.91265 
L 364.433777 274.914012 
L 362.648177 275.596136 
L 360.862577 276.156443 
L 359.041265 276.62173 
L 357.255665 276.990357 
L 355.470065 277.286678 
L 353.684465 277.523068 
L 353.20008 277.57377 
L 351.863153 277.682326 
L 350.077553 277.795932 
L 348.291953 277.884409 
L 346.506353 277.952754 
L 344.685041 278.006021 
L 342.899441 278.045575 
L 341.113841 278.075368 
L 339.328241 278.097619 
L 337.506929 278.114377 
L 335.721329 278.1264 
L 333.935729 278.135151 
L 332.150129 278.141467 
L 330.328817 278.146061 
L 328.543217 278.149244 
L 326.757617 278.151483 
L 324.972017 278.153044 
L 323.150705 278.154141 
L 321.365105 278.154874 
L 319.579505 278.155373 
L 317.793905 278.155709 
L 315.972593 278.155937 
L 314.186993 278.156084 
L 312.401393 278.156181 
L 310.615793 278.156244 
L 308.794481 278.156285 
L 307.008881 278.156311 
L 305.223281 278.156327 
L 303.437681 278.156338 
L 301.616369 278.156344 
L 299.830769 278.156348 
L 298.045169 278.15635 
L 296.259569 278.156352 
L 294.438257 278.156352 
L 292.652657 278.156352 
L 290.867057 278.156352 
L 289.081457 278.156351 
L 287.260145 278.156349 
L 285.474545 278.156346 
L 283.688945 278.156341 
L 281.903345 278.156333 
L 280.082033 278.15632 
L 278.296433 278.156299 
L 276.510833 278.156267 
L 274.725233 278.156216 
L 272.903921 278.156136 
L 271.118321 278.156015 
L 269.332721 278.155832 
L 267.547121 278.155558 
L 265.725809 278.155138 
L 263.940209 278.154527 
L 262.154609 278.153633 
L 260.369009 278.152333 
L 258.547697 278.150417 
L 256.762097 278.147725 
L 254.976497 278.143913 
L 253.190897 278.138564 
L 251.369585 278.130945 
L 249.583985 278.120608 
L 247.798385 278.106468 
L 246.012785 278.087293 
L 244.191473 278.060911 
L 242.405873 278.026334 
L 240.620273 277.980624 
L 238.834673 277.920701 
L 237.013361 277.841022 
L 235.227761 277.74006 
L 233.442161 277.610942 
L 233.036369 277.57377 
L 231.656561 277.410766 
L 229.835249 277.139399 
L 228.049649 276.806358 
L 226.264049 276.393445 
L 224.478449 275.885176 
L 222.657137 275.25014 
L 221.858481 274.91265 
L 220.871537 274.355987 
L 219.085937 273.144472 
L 217.984622 272.25153 
L 217.300337 271.486342 
L 215.86943 269.59041 
L 215.479025 268.853342 
L 214.607794 266.92929 
L 213.693425 263.862117 
L 213.683758 263.82465 
z
" clip-path="url(#p0833c9ca87)" style="fill: none; stroke: #08509b; stroke-width: 1.5"/>
   </g>
   <g id="PathCollection_9"/>
   <g id="patch_3">
    <path d="M 34.240625 288.21825 
L 34.240625 22.10625 
" style="fill: none; stroke: #000000; stroke-width: 0.8; stroke-linejoin: miter; stroke-linecap: square"/>
   </g>
   <g id="patch_4">
    <path d="M 391.360625 288.21825 
L 391.360625 22.10625 
" style="fill: none; stroke: #000000; stroke-width: 0.8; stroke-linejoin: miter; stroke-linecap: square"/>
   </g>
   <g id="patch_5">
    <path d="M 34.240625 288.21825 
L 391.360625 288.21825 
" style="fill: none; stroke: #000000; stroke-width: 0.8; stroke-linejoin: miter; stroke-linecap: square"/>
   </g>
   <g id="patch_6">
    <path d="M 34.240625 22.10625 
L 391.360625 22.10625 
" style="fill: none; stroke: #000000; stroke-width: 0.8; stroke-linejoin: miter; stroke-linecap: square"/>
   </g>
   <g id="text_16">
    <!-- 8.8_cross_-43.0 -->
    <g transform="translate(166.181563 16.10625)scale(0.12 -0.12)">
     <defs>
      <path id="DejaVuSans-2e" d="M 684 794 
L 1344 794 
L 1344 0 
L 684 0 
L 684 794 
z
" transform="scale(0.015625)"/>
      <path id="DejaVuSans-5f" d="M 3263 -1063 
L 3263 -1509 
L -63 -1509 
L -63 -1063 
L 3263 -1063 
z
" transform="scale(0.015625)"/>
      <path id="DejaVuSans-63" d="M 3122 3366 
L 3122 2828 
Q 2878 2963 2633 3030 
Q 2388 3097 2138 3097 
Q 1578 3097 1268 2742 
Q 959 2388 959 1747 
Q 959 1106 1268 751 
Q 1578 397 2138 397 
Q 2388 397 2633 464 
Q 2878 531 3122 666 
L 3122 134 
Q 2881 22 2623 -34 
Q 2366 -91 2075 -91 
Q 1284 -91 818 406 
Q 353 903 353 1747 
Q 353 2603 823 3093 
Q 1294 3584 2113 3584 
Q 2378 3584 2631 3529 
Q 2884 3475 3122 3366 
z
" transform="scale(0.015625)"/>
      <path id="DejaVuSans-72" d="M 2631 2963 
Q 2534 3019 2420 3045 
Q 2306 3072 2169 3072 
Q 1681 3072 1420 2755 
Q 1159 2438 1159 1844 
L 1159 0 
L 581 0 
L 581 3500 
L 1159 3500 
L 1159 2956 
Q 1341 3275 1631 3429 
Q 1922 3584 2338 3584 
Q 2397 3584 2469 3576 
Q 2541 3569 2628 3553 
L 2631 2963 
z
" transform="scale(0.015625)"/>
      <path id="DejaVuSans-73" d="M 2834 3397 
L 2834 2853 
Q 2591 2978 2328 3040 
Q 2066 3103 1784 3103 
Q 1356 3103 1142 2972 
Q 928 2841 928 2578 
Q 928 2378 1081 2264 
Q 1234 2150 1697 2047 
L 1894 2003 
Q 2506 1872 2764 1633 
Q 3022 1394 3022 966 
Q 3022 478 2636 193 
Q 2250 -91 1575 -91 
Q 1294 -91 989 -36 
Q 684 19 347 128 
L 347 722 
Q 666 556 975 473 
Q 1284 391 1588 391 
Q 1994 391 2212 530 
Q 2431 669 2431 922 
Q 2431 1156 2273 1281 
Q 2116 1406 1581 1522 
L 1381 1569 
Q 847 1681 609 1914 
Q 372 2147 372 2553 
Q 372 3047 722 3315 
Q 1072 3584 1716 3584 
Q 2034 3584 2315 3537 
Q 2597 3491 2834 3397 
z
" transform="scale(0.015625)"/>
      <path id="DejaVuSans-2d" d="M 313 2009 
L 1997 2009 
L 1997 1497 
L 313 1497 
L 313 2009 
z
" transform="scale(0.015625)"/>
     </defs>
     <use xlink:href="#DejaVuSans-38"/>
     <use xlink:href="#DejaVuSans-2e" x="63.623047"/>
     <use xlink:href="#DejaVuSans-38" x="95.410156"/>
     <use xlink:href="#DejaVuSans-5f" x="159.033203"/>
     <use xlink:href="#DejaVuSans-63" x="209.033203"/>
     <use xlink:href="#DejaVuSans-72" x="264.013672"/>
     <use xlink:href="#DejaVuSans-6f" x="302.876953"/>
     <use xlink:href="#DejaVuSans-73" x="364.058594"/>
     <use xlink:href="#DejaVuSans-73" x="416.158203"/>
     <use xlink:href="#DejaVuSans-5f" x="468.257812"/>
     <use xlink:href="#DejaVuSans-2d" x="518.257812"/>
     <use xlink:href="#DejaVuSans-34" x="554.341797"/>
     <use xlink:href="#DejaVuSans-33" x="617.964844"/>
     <use xlink:href="#DejaVuSans-2e" x="681.587891"/>
     <use xlink:href="#DejaVuSans-30" x="713.375"/>
    </g>
   </g>
  </g>
 </g>
 <defs>
  <clipPath id="p0833c9ca87">
   <rect x="34.240625" y="22.10625" width="357.12" height="266.112"/>
  </clipPath>
 </defs>
</svg>
