<?xml version="1.0" encoding="utf-8" standalone="no"?>
<!DOCTYPE svg PUBLIC "-//W3C//DTD SVG 1.1//EN"
  "http://www.w3.org/Graphics/SVG/1.1/DTD/svg11.dtd">
<svg xmlns:xlink="http://www.w3.org/1999/xlink" width="408.104375pt" height="325.7745pt" viewBox="0 0 408.104375 325.7745" xmlns="http://www.w3.org/2000/svg" version="1.1">
 <metadata>
  <rdf:RDF xmlns:dc="http://purl.org/dc/elements/1.1/" xmlns:cc="http://creativecommons.org/ns#" xmlns:rdf="http://www.w3.org/1999/02/22-rdf-syntax-ns#">
   <cc:Work>
    <dc:type rdf:resource="http://purl.org/dc/dcmitype/StillImage"/>
    <dc:date>2024-07-12T12:09:44.954096</dc:date>
    <dc:format>image/svg+xml</dc:format>
    <dc:creator>
     <cc:Agent>
      <dc:title>Matplotlib v3.5.3, https://matplotlib.org/</dc:title>
     </cc:Agent>
    </dc:creator>
   </cc:Work>
  </rdf:RDF>
 </metadata>
 <defs>
  <style type="text/css">*{stroke-linejoin: round; stroke-linecap: butt}</style>
 </defs>
 <g id="figure_1">
  <g id="patch_1">
   <path d="M 0 325.7745 
L 408.104375 325.7745 
L 408.104375 0 
L 0 0 
z
" style="fill: #ffffff"/>
  </g>
  <g id="axes_1">
   <g id="patch_2">
    <path d="M 34.240625 288.21825 
L 391.360625 288.21825 
L 391.360625 22.10625 
L 34.240625 22.10625 
z
" style="fill: #ffffff"/>
   </g>
   <g id="matplotlib.axis_1">
    <g id="xtick_1">
     <g id="line2d_1">
      <defs>
       <path id="mf905a5ffe0" d="M 0 0 
L 0 3.5 
" style="stroke: #000000; stroke-width: 0.8"/>
      </defs>
      <g>
       <use xlink:href="#mf905a5ffe0" x="34.240625" y="288.21825" style="stroke: #000000; stroke-width: 0.8"/>
      </g>
     </g>
     <g id="text_1">
      <!-- 0 -->
      <g transform="translate(31.059375 302.816687)scale(0.1 -0.1)">
       <defs>
        <path id="DejaVuSans-30" d="M 2034 4250 
Q 1547 4250 1301 3770 
Q 1056 3291 1056 2328 
Q 1056 1369 1301 889 
Q 1547 409 2034 409 
Q 2525 409 2770 889 
Q 3016 1369 3016 2328 
Q 3016 3291 2770 3770 
Q 2525 4250 2034 4250 
z
M 2034 4750 
Q 2819 4750 3233 4129 
Q 3647 3509 3647 2328 
Q 3647 1150 3233 529 
Q 2819 -91 2034 -91 
Q 1250 -91 836 529 
Q 422 1150 422 2328 
Q 422 3509 836 4129 
Q 1250 4750 2034 4750 
z
" transform="scale(0.015625)"/>
       </defs>
       <use xlink:href="#DejaVuSans-30"/>
      </g>
     </g>
    </g>
    <g id="xtick_2">
     <g id="line2d_2">
      <g>
       <use xlink:href="#mf905a5ffe0" x="105.664625" y="288.21825" style="stroke: #000000; stroke-width: 0.8"/>
      </g>
     </g>
     <g id="text_2">
      <!-- 20 -->
      <g transform="translate(99.302125 302.816687)scale(0.1 -0.1)">
       <defs>
        <path id="DejaVuSans-32" d="M 1228 531 
L 3431 531 
L 3431 0 
L 469 0 
L 469 531 
Q 828 903 1448 1529 
Q 2069 2156 2228 2338 
Q 2531 2678 2651 2914 
Q 2772 3150 2772 3378 
Q 2772 3750 2511 3984 
Q 2250 4219 1831 4219 
Q 1534 4219 1204 4116 
Q 875 4013 500 3803 
L 500 4441 
Q 881 4594 1212 4672 
Q 1544 4750 1819 4750 
Q 2544 4750 2975 4387 
Q 3406 4025 3406 3419 
Q 3406 3131 3298 2873 
Q 3191 2616 2906 2266 
Q 2828 2175 2409 1742 
Q 1991 1309 1228 531 
z
" transform="scale(0.015625)"/>
       </defs>
       <use xlink:href="#DejaVuSans-32"/>
       <use xlink:href="#DejaVuSans-30" x="63.623047"/>
      </g>
     </g>
    </g>
    <g id="xtick_3">
     <g id="line2d_3">
      <g>
       <use xlink:href="#mf905a5ffe0" x="177.088625" y="288.21825" style="stroke: #000000; stroke-width: 0.8"/>
      </g>
     </g>
     <g id="text_3">
      <!-- 40 -->
      <g transform="translate(170.726125 302.816687)scale(0.1 -0.1)">
       <defs>
        <path id="DejaVuSans-34" d="M 2419 4116 
L 825 1625 
L 2419 1625 
L 2419 4116 
z
M 2253 4666 
L 3047 4666 
L 3047 1625 
L 3713 1625 
L 3713 1100 
L 3047 1100 
L 3047 0 
L 2419 0 
L 2419 1100 
L 313 1100 
L 313 1709 
L 2253 4666 
z
" transform="scale(0.015625)"/>
       </defs>
       <use xlink:href="#DejaVuSans-34"/>
       <use xlink:href="#DejaVuSans-30" x="63.623047"/>
      </g>
     </g>
    </g>
    <g id="xtick_4">
     <g id="line2d_4">
      <g>
       <use xlink:href="#mf905a5ffe0" x="248.512625" y="288.21825" style="stroke: #000000; stroke-width: 0.8"/>
      </g>
     </g>
     <g id="text_4">
      <!-- 60 -->
      <g transform="translate(242.150125 302.816687)scale(0.1 -0.1)">
       <defs>
        <path id="DejaVuSans-36" d="M 2113 2584 
Q 1688 2584 1439 2293 
Q 1191 2003 1191 1497 
Q 1191 994 1439 701 
Q 1688 409 2113 409 
Q 2538 409 2786 701 
Q 3034 994 3034 1497 
Q 3034 2003 2786 2293 
Q 2538 2584 2113 2584 
z
M 3366 4563 
L 3366 3988 
Q 3128 4100 2886 4159 
Q 2644 4219 2406 4219 
Q 1781 4219 1451 3797 
Q 1122 3375 1075 2522 
Q 1259 2794 1537 2939 
Q 1816 3084 2150 3084 
Q 2853 3084 3261 2657 
Q 3669 2231 3669 1497 
Q 3669 778 3244 343 
Q 2819 -91 2113 -91 
Q 1303 -91 875 529 
Q 447 1150 447 2328 
Q 447 3434 972 4092 
Q 1497 4750 2381 4750 
Q 2619 4750 2861 4703 
Q 3103 4656 3366 4563 
z
" transform="scale(0.015625)"/>
       </defs>
       <use xlink:href="#DejaVuSans-36"/>
       <use xlink:href="#DejaVuSans-30" x="63.623047"/>
      </g>
     </g>
    </g>
    <g id="xtick_5">
     <g id="line2d_5">
      <g>
       <use xlink:href="#mf905a5ffe0" x="319.936625" y="288.21825" style="stroke: #000000; stroke-width: 0.8"/>
      </g>
     </g>
     <g id="text_5">
      <!-- 80 -->
      <g transform="translate(313.574125 302.816687)scale(0.1 -0.1)">
       <defs>
        <path id="DejaVuSans-38" d="M 2034 2216 
Q 1584 2216 1326 1975 
Q 1069 1734 1069 1313 
Q 1069 891 1326 650 
Q 1584 409 2034 409 
Q 2484 409 2743 651 
Q 3003 894 3003 1313 
Q 3003 1734 2745 1975 
Q 2488 2216 2034 2216 
z
M 1403 2484 
Q 997 2584 770 2862 
Q 544 3141 544 3541 
Q 544 4100 942 4425 
Q 1341 4750 2034 4750 
Q 2731 4750 3128 4425 
Q 3525 4100 3525 3541 
Q 3525 3141 3298 2862 
Q 3072 2584 2669 2484 
Q 3125 2378 3379 2068 
Q 3634 1759 3634 1313 
Q 3634 634 3220 271 
Q 2806 -91 2034 -91 
Q 1263 -91 848 271 
Q 434 634 434 1313 
Q 434 1759 690 2068 
Q 947 2378 1403 2484 
z
M 1172 3481 
Q 1172 3119 1398 2916 
Q 1625 2713 2034 2713 
Q 2441 2713 2670 2916 
Q 2900 3119 2900 3481 
Q 2900 3844 2670 4047 
Q 2441 4250 2034 4250 
Q 1625 4250 1398 4047 
Q 1172 3844 1172 3481 
z
" transform="scale(0.015625)"/>
       </defs>
       <use xlink:href="#DejaVuSans-38"/>
       <use xlink:href="#DejaVuSans-30" x="63.623047"/>
      </g>
     </g>
    </g>
    <g id="xtick_6">
     <g id="line2d_6">
      <g>
       <use xlink:href="#mf905a5ffe0" x="391.360625" y="288.21825" style="stroke: #000000; stroke-width: 0.8"/>
      </g>
     </g>
     <g id="text_6">
      <!-- 100 -->
      <g transform="translate(381.816875 302.816687)scale(0.1 -0.1)">
       <defs>
        <path id="DejaVuSans-31" d="M 794 531 
L 1825 531 
L 1825 4091 
L 703 3866 
L 703 4441 
L 1819 4666 
L 2450 4666 
L 2450 531 
L 3481 531 
L 3481 0 
L 794 0 
L 794 531 
z
" transform="scale(0.015625)"/>
       </defs>
       <use xlink:href="#DejaVuSans-31"/>
       <use xlink:href="#DejaVuSans-30" x="63.623047"/>
       <use xlink:href="#DejaVuSans-30" x="127.246094"/>
      </g>
     </g>
    </g>
    <g id="text_7">
     <!-- axialRotation -->
     <g transform="translate(180.024844 316.494812)scale(0.1 -0.1)">
      <defs>
       <path id="DejaVuSans-61" d="M 2194 1759 
Q 1497 1759 1228 1600 
Q 959 1441 959 1056 
Q 959 750 1161 570 
Q 1363 391 1709 391 
Q 2188 391 2477 730 
Q 2766 1069 2766 1631 
L 2766 1759 
L 2194 1759 
z
M 3341 1997 
L 3341 0 
L 2766 0 
L 2766 531 
Q 2569 213 2275 61 
Q 1981 -91 1556 -91 
Q 1019 -91 701 211 
Q 384 513 384 1019 
Q 384 1609 779 1909 
Q 1175 2209 1959 2209 
L 2766 2209 
L 2766 2266 
Q 2766 2663 2505 2880 
Q 2244 3097 1772 3097 
Q 1472 3097 1187 3025 
Q 903 2953 641 2809 
L 641 3341 
Q 956 3463 1253 3523 
Q 1550 3584 1831 3584 
Q 2591 3584 2966 3190 
Q 3341 2797 3341 1997 
z
" transform="scale(0.015625)"/>
       <path id="DejaVuSans-78" d="M 3513 3500 
L 2247 1797 
L 3578 0 
L 2900 0 
L 1881 1375 
L 863 0 
L 184 0 
L 1544 1831 
L 300 3500 
L 978 3500 
L 1906 2253 
L 2834 3500 
L 3513 3500 
z
" transform="scale(0.015625)"/>
       <path id="DejaVuSans-69" d="M 603 3500 
L 1178 3500 
L 1178 0 
L 603 0 
L 603 3500 
z
M 603 4863 
L 1178 4863 
L 1178 4134 
L 603 4134 
L 603 4863 
z
" transform="scale(0.015625)"/>
       <path id="DejaVuSans-6c" d="M 603 4863 
L 1178 4863 
L 1178 0 
L 603 0 
L 603 4863 
z
" transform="scale(0.015625)"/>
       <path id="DejaVuSans-52" d="M 2841 2188 
Q 3044 2119 3236 1894 
Q 3428 1669 3622 1275 
L 4263 0 
L 3584 0 
L 2988 1197 
Q 2756 1666 2539 1819 
Q 2322 1972 1947 1972 
L 1259 1972 
L 1259 0 
L 628 0 
L 628 4666 
L 2053 4666 
Q 2853 4666 3247 4331 
Q 3641 3997 3641 3322 
Q 3641 2881 3436 2590 
Q 3231 2300 2841 2188 
z
M 1259 4147 
L 1259 2491 
L 2053 2491 
Q 2509 2491 2742 2702 
Q 2975 2913 2975 3322 
Q 2975 3731 2742 3939 
Q 2509 4147 2053 4147 
L 1259 4147 
z
" transform="scale(0.015625)"/>
       <path id="DejaVuSans-6f" d="M 1959 3097 
Q 1497 3097 1228 2736 
Q 959 2375 959 1747 
Q 959 1119 1226 758 
Q 1494 397 1959 397 
Q 2419 397 2687 759 
Q 2956 1122 2956 1747 
Q 2956 2369 2687 2733 
Q 2419 3097 1959 3097 
z
M 1959 3584 
Q 2709 3584 3137 3096 
Q 3566 2609 3566 1747 
Q 3566 888 3137 398 
Q 2709 -91 1959 -91 
Q 1206 -91 779 398 
Q 353 888 353 1747 
Q 353 2609 779 3096 
Q 1206 3584 1959 3584 
z
" transform="scale(0.015625)"/>
       <path id="DejaVuSans-74" d="M 1172 4494 
L 1172 3500 
L 2356 3500 
L 2356 3053 
L 1172 3053 
L 1172 1153 
Q 1172 725 1289 603 
Q 1406 481 1766 481 
L 2356 481 
L 2356 0 
L 1766 0 
Q 1100 0 847 248 
Q 594 497 594 1153 
L 594 3053 
L 172 3053 
L 172 3500 
L 594 3500 
L 594 4494 
L 1172 4494 
z
" transform="scale(0.015625)"/>
       <path id="DejaVuSans-6e" d="M 3513 2113 
L 3513 0 
L 2938 0 
L 2938 2094 
Q 2938 2591 2744 2837 
Q 2550 3084 2163 3084 
Q 1697 3084 1428 2787 
Q 1159 2491 1159 1978 
L 1159 0 
L 581 0 
L 581 3500 
L 1159 3500 
L 1159 2956 
Q 1366 3272 1645 3428 
Q 1925 3584 2291 3584 
Q 2894 3584 3203 3211 
Q 3513 2838 3513 2113 
z
" transform="scale(0.015625)"/>
      </defs>
      <use xlink:href="#DejaVuSans-61"/>
      <use xlink:href="#DejaVuSans-78" x="61.279297"/>
      <use xlink:href="#DejaVuSans-69" x="120.458984"/>
      <use xlink:href="#DejaVuSans-61" x="148.242188"/>
      <use xlink:href="#DejaVuSans-6c" x="209.521484"/>
      <use xlink:href="#DejaVuSans-52" x="237.304688"/>
      <use xlink:href="#DejaVuSans-6f" x="302.287109"/>
      <use xlink:href="#DejaVuSans-74" x="363.46875"/>
      <use xlink:href="#DejaVuSans-61" x="402.677734"/>
      <use xlink:href="#DejaVuSans-74" x="463.957031"/>
      <use xlink:href="#DejaVuSans-69" x="503.166016"/>
      <use xlink:href="#DejaVuSans-6f" x="530.949219"/>
      <use xlink:href="#DejaVuSans-6e" x="592.130859"/>
     </g>
    </g>
   </g>
   <g id="matplotlib.axis_2">
    <g id="ytick_1">
     <g id="line2d_7">
      <defs>
       <path id="mf29515e410" d="M 0 0 
L -3.5 0 
" style="stroke: #000000; stroke-width: 0.8"/>
      </defs>
      <g>
       <use xlink:href="#mf29515e410" x="34.240625" y="288.21825" style="stroke: #000000; stroke-width: 0.8"/>
      </g>
     </g>
     <g id="text_8">
      <!-- 0 -->
      <g transform="translate(20.878125 292.017469)scale(0.1 -0.1)">
       <use xlink:href="#DejaVuSans-30"/>
      </g>
     </g>
    </g>
    <g id="ytick_2">
     <g id="line2d_8">
      <g>
       <use xlink:href="#mf29515e410" x="34.240625" y="243.86625" style="stroke: #000000; stroke-width: 0.8"/>
      </g>
     </g>
     <g id="text_9">
      <!-- 1 -->
      <g transform="translate(20.878125 247.665469)scale(0.1 -0.1)">
       <use xlink:href="#DejaVuSans-31"/>
      </g>
     </g>
    </g>
    <g id="ytick_3">
     <g id="line2d_9">
      <g>
       <use xlink:href="#mf29515e410" x="34.240625" y="199.51425" style="stroke: #000000; stroke-width: 0.8"/>
      </g>
     </g>
     <g id="text_10">
      <!-- 2 -->
      <g transform="translate(20.878125 203.313469)scale(0.1 -0.1)">
       <use xlink:href="#DejaVuSans-32"/>
      </g>
     </g>
    </g>
    <g id="ytick_4">
     <g id="line2d_10">
      <g>
       <use xlink:href="#mf29515e410" x="34.240625" y="155.16225" style="stroke: #000000; stroke-width: 0.8"/>
      </g>
     </g>
     <g id="text_11">
      <!-- 3 -->
      <g transform="translate(20.878125 158.961469)scale(0.1 -0.1)">
       <defs>
        <path id="DejaVuSans-33" d="M 2597 2516 
Q 3050 2419 3304 2112 
Q 3559 1806 3559 1356 
Q 3559 666 3084 287 
Q 2609 -91 1734 -91 
Q 1441 -91 1130 -33 
Q 819 25 488 141 
L 488 750 
Q 750 597 1062 519 
Q 1375 441 1716 441 
Q 2309 441 2620 675 
Q 2931 909 2931 1356 
Q 2931 1769 2642 2001 
Q 2353 2234 1838 2234 
L 1294 2234 
L 1294 2753 
L 1863 2753 
Q 2328 2753 2575 2939 
Q 2822 3125 2822 3475 
Q 2822 3834 2567 4026 
Q 2313 4219 1838 4219 
Q 1578 4219 1281 4162 
Q 984 4106 628 3988 
L 628 4550 
Q 988 4650 1302 4700 
Q 1616 4750 1894 4750 
Q 2613 4750 3031 4423 
Q 3450 4097 3450 3541 
Q 3450 3153 3228 2886 
Q 3006 2619 2597 2516 
z
" transform="scale(0.015625)"/>
       </defs>
       <use xlink:href="#DejaVuSans-33"/>
      </g>
     </g>
    </g>
    <g id="ytick_5">
     <g id="line2d_11">
      <g>
       <use xlink:href="#mf29515e410" x="34.240625" y="110.81025" style="stroke: #000000; stroke-width: 0.8"/>
      </g>
     </g>
     <g id="text_12">
      <!-- 4 -->
      <g transform="translate(20.878125 114.609469)scale(0.1 -0.1)">
       <use xlink:href="#DejaVuSans-34"/>
      </g>
     </g>
    </g>
    <g id="ytick_6">
     <g id="line2d_12">
      <g>
       <use xlink:href="#mf29515e410" x="34.240625" y="66.45825" style="stroke: #000000; stroke-width: 0.8"/>
      </g>
     </g>
     <g id="text_13">
      <!-- 5 -->
      <g transform="translate(20.878125 70.257469)scale(0.1 -0.1)">
       <defs>
        <path id="DejaVuSans-35" d="M 691 4666 
L 3169 4666 
L 3169 4134 
L 1269 4134 
L 1269 2991 
Q 1406 3038 1543 3061 
Q 1681 3084 1819 3084 
Q 2600 3084 3056 2656 
Q 3513 2228 3513 1497 
Q 3513 744 3044 326 
Q 2575 -91 1722 -91 
Q 1428 -91 1123 -41 
Q 819 9 494 109 
L 494 744 
Q 775 591 1075 516 
Q 1375 441 1709 441 
Q 2250 441 2565 725 
Q 2881 1009 2881 1497 
Q 2881 1984 2565 2268 
Q 2250 2553 1709 2553 
Q 1456 2553 1204 2497 
Q 953 2441 691 2322 
L 691 4666 
z
" transform="scale(0.015625)"/>
       </defs>
       <use xlink:href="#DejaVuSans-35"/>
      </g>
     </g>
    </g>
    <g id="ytick_7">
     <g id="line2d_13">
      <g>
       <use xlink:href="#mf29515e410" x="34.240625" y="22.10625" style="stroke: #000000; stroke-width: 0.8"/>
      </g>
     </g>
     <g id="text_14">
      <!-- 6 -->
      <g transform="translate(20.878125 25.905469)scale(0.1 -0.1)">
       <use xlink:href="#DejaVuSans-36"/>
      </g>
     </g>
    </g>
    <g id="text_15">
     <!-- zShift -->
     <g transform="translate(14.798438 169.151312)rotate(-90)scale(0.1 -0.1)">
      <defs>
       <path id="DejaVuSans-7a" d="M 353 3500 
L 3084 3500 
L 3084 2975 
L 922 459 
L 3084 459 
L 3084 0 
L 275 0 
L 275 525 
L 2438 3041 
L 353 3041 
L 353 3500 
z
" transform="scale(0.015625)"/>
       <path id="DejaVuSans-53" d="M 3425 4513 
L 3425 3897 
Q 3066 4069 2747 4153 
Q 2428 4238 2131 4238 
Q 1616 4238 1336 4038 
Q 1056 3838 1056 3469 
Q 1056 3159 1242 3001 
Q 1428 2844 1947 2747 
L 2328 2669 
Q 3034 2534 3370 2195 
Q 3706 1856 3706 1288 
Q 3706 609 3251 259 
Q 2797 -91 1919 -91 
Q 1588 -91 1214 -16 
Q 841 59 441 206 
L 441 856 
Q 825 641 1194 531 
Q 1563 422 1919 422 
Q 2459 422 2753 634 
Q 3047 847 3047 1241 
Q 3047 1584 2836 1778 
Q 2625 1972 2144 2069 
L 1759 2144 
Q 1053 2284 737 2584 
Q 422 2884 422 3419 
Q 422 4038 858 4394 
Q 1294 4750 2059 4750 
Q 2388 4750 2728 4690 
Q 3069 4631 3425 4513 
z
" transform="scale(0.015625)"/>
       <path id="DejaVuSans-68" d="M 3513 2113 
L 3513 0 
L 2938 0 
L 2938 2094 
Q 2938 2591 2744 2837 
Q 2550 3084 2163 3084 
Q 1697 3084 1428 2787 
Q 1159 2491 1159 1978 
L 1159 0 
L 581 0 
L 581 4863 
L 1159 4863 
L 1159 2956 
Q 1366 3272 1645 3428 
Q 1925 3584 2291 3584 
Q 2894 3584 3203 3211 
Q 3513 2838 3513 2113 
z
" transform="scale(0.015625)"/>
       <path id="DejaVuSans-66" d="M 2375 4863 
L 2375 4384 
L 1825 4384 
Q 1516 4384 1395 4259 
Q 1275 4134 1275 3809 
L 1275 3500 
L 2222 3500 
L 2222 3053 
L 1275 3053 
L 1275 0 
L 697 0 
L 697 3053 
L 147 3053 
L 147 3500 
L 697 3500 
L 697 3744 
Q 697 4328 969 4595 
Q 1241 4863 1831 4863 
L 2375 4863 
z
" transform="scale(0.015625)"/>
      </defs>
      <use xlink:href="#DejaVuSans-7a"/>
      <use xlink:href="#DejaVuSans-53" x="52.490234"/>
      <use xlink:href="#DejaVuSans-68" x="115.966797"/>
      <use xlink:href="#DejaVuSans-69" x="179.345703"/>
      <use xlink:href="#DejaVuSans-66" x="207.128906"/>
      <use xlink:href="#DejaVuSans-74" x="240.583984"/>
     </g>
    </g>
   </g>
   <g id="PathCollection_1"/>
   <g id="PathCollection_2">
    <path d="M 34.240625 181.020042 
L 34.317496 180.88641 
L 36.000977 178.22529 
L 36.026225 178.187778 
L 37.847537 175.510054 
L 38.117277 175.12065 
L 39.633137 173.013189 
L 40.035463 172.45953 
L 41.418737 170.599723 
L 42.0215 169.79841 
L 43.204337 168.246401 
L 44.059794 167.13729 
L 45.025649 165.894207 
L 46.142038 164.47617 
L 46.811249 163.626624 
L 48.259307 161.81505 
L 48.596849 161.390909 
L 50.382449 159.178638 
L 50.402416 159.15393 
L 52.203761 156.90891 
L 52.54156 156.49281 
L 53.989361 154.688021 
L 54.684151 153.83169 
L 55.774961 152.468315 
L 56.824498 151.17057 
L 57.560561 150.247379 
L 58.960517 148.50945 
L 59.381873 147.980154 
L 61.097932 145.84833 
L 61.167473 145.760948 
L 62.953073 143.525069 
L 63.225454 143.18721 
L 64.738673 141.294295 
L 65.360478 140.52609 
L 66.559985 139.032288 
L 67.509584 137.86497 
L 68.345585 136.825756 
L 69.667946 135.20385 
L 70.131185 134.624075 
L 71.916785 132.425883 
L 72.183774 132.09921 
L 73.738097 130.161002 
L 74.323454 129.43809 
L 75.523697 127.934266 
L 76.456967 126.77697 
L 77.309297 125.706075 
L 78.589211 124.11585 
L 79.094897 123.480352 
L 80.726029 121.45473 
L 80.916209 121.216416 
L 82.701809 118.995369 
L 82.864986 118.79361 
L 84.487409 116.769411 
L 85.004494 116.13249 
L 86.273009 114.552252 
L 87.15093 113.47137 
L 88.094321 112.294438 
L 89.296412 110.81025 
L 89.879921 110.077063 
L 91.428375 108.14913 
L 91.665521 107.847855 
L 93.451121 105.58932 
L 93.530955 105.48801 
L 95.272433 103.232503 
L 95.586157 102.82689 
L 97.058033 100.876556 
L 97.594015 100.16577 
L 98.843633 98.458232 
L 99.53764 97.50465 
L 100.629233 95.945608 
L 101.390877 94.84353 
L 102.450545 93.231324 
L 103.124962 92.18241 
L 104.236145 90.335048 
L 104.710475 89.52129 
L 106.021745 87.050205 
L 106.345907 86.41665 
L 107.560511 83.75553 
L 107.807345 83.154401 
L 108.606972 81.09441 
L 109.55138 78.43329 
L 109.628657 78.196504 
L 110.375174 75.77217 
L 111.174281 73.11105 
L 111.414257 72.315652 
L 111.951073 70.44993 
L 112.770408 67.78881 
L 113.199857 66.522378 
L 113.658913 65.12769 
L 114.653555 62.46657 
L 114.985457 61.680677 
L 115.769049 59.80545 
L 116.806769 57.646699 
L 117.048649 57.14433 
L 118.48145 54.48321 
L 118.592369 54.294184 
L 120.064723 51.82209 
L 120.377969 51.333892 
L 121.799761 49.16097 
L 122.163569 48.632461 
L 123.66232 46.49985 
L 123.984881 46.05306 
L 125.770481 43.644774 
L 125.959272 43.39521 
L 127.556081 41.296017 
L 127.991486 40.73409 
L 129.341681 38.992958 
L 130.066961 38.07297 
L 131.162993 36.679113 
L 132.175699 35.41185 
L 132.948593 34.439189 
L 134.314106 32.75073 
L 134.734193 32.228111 
L 136.486804 30.08961 
L 136.519793 30.0491 
L 138.341105 27.832169 
L 138.679287 27.42849 
L 140.126705 25.692276 
L 140.917074 24.76737 
L 141.912305 23.596844 
L 143.217774 22.10625 
" clip-path="url(#p1d23801418)" style="fill: none; stroke: #deebf7; stroke-width: 1.5"/>
    <path d="M 130.205099 288.21825 
L 129.341681 284.068712 
L 129.135918 282.89601 
L 128.839158 280.23489 
L 128.703549 277.57377 
L 128.71857 274.91265 
L 128.881984 272.25153 
L 129.341681 268.7871 
L 129.646077 266.92929 
L 130.360278 263.82465 
L 131.180128 261.16353 
L 132.118724 258.50241 
L 133.259692 255.84129 
L 134.734193 252.870189 
L 136.519793 249.68313 
L 138.341105 246.758533 
L 141.224011 242.53569 
L 145.519217 236.754658 
L 154.482929 225.351369 
L 171.006022 204.83649 
L 183.195377 189.766226 
L 199.390085 169.79841 
L 204.729713 162.767068 
L 207.282012 159.15393 
L 210.122225 154.640393 
L 212.011765 151.17057 
L 213.693425 147.413243 
L 215.272692 143.18721 
L 216.118104 140.52609 
L 219.624753 129.43809 
L 221.776733 124.11585 
L 223.060876 121.45473 
L 226.055147 116.13249 
L 228.049649 113.025192 
L 231.656561 107.895096 
L 237.527976 100.16577 
L 244.191473 91.793396 
L 280.910868 46.49985 
L 290.867057 34.152652 
L 300.754935 22.10625 
L 300.754935 22.10625 
" clip-path="url(#p1d23801418)" style="fill: none; stroke: #deebf7; stroke-width: 1.5"/>
    <path d="M 200.247719 22.10625 
L 200.321929 24.76737 
L 200.08073 27.42849 
L 199.337201 30.736059 
L 198.731112 32.75073 
L 197.551601 35.622604 
L 195.766001 39.137269 
L 193.944689 42.212641 
L 192.159089 44.957354 
L 188.587889 50.047157 
L 181.409777 60.123079 
L 179.588465 62.947495 
L 177.802865 66.002543 
L 176.017265 69.508097 
L 175.581066 70.44993 
L 174.231665 73.749429 
L 172.410353 79.174906 
L 170.259937 86.41665 
L 168.277697 92.18241 
L 167.053553 95.091845 
L 165.232241 98.843556 
L 163.446641 102.020297 
L 161.661041 104.86443 
L 159.411752 108.14913 
L 155.452722 113.47137 
L 150.876017 119.321954 
L 129.341681 146.089 
L 89.879921 194.949085 
L 83.641501 202.17537 
L 80.916209 205.139257 
L 77.309297 208.820994 
L 72.91314 212.81985 
L 70.131185 215.156981 
L 66.361802 218.14209 
L 62.953073 220.990221 
L 60.085211 223.90785 
L 58.413677 226.56897 
L 57.549008 229.23009 
L 57.226158 231.89121 
L 57.236417 237.21345 
L 57.227254 239.87457 
L 57.060507 242.53569 
L 56.656438 245.19681 
L 55.774961 248.273212 
L 54.848988 250.51905 
L 53.275301 253.18017 
L 51.06624 255.84129 
L 50.382449 256.498125 
L 47.898163 258.50241 
L 46.811249 259.215596 
L 45.025649 260.199815 
L 42.771615 261.16353 
L 41.418737 261.638833 
L 39.633137 262.117858 
L 37.847537 262.455106 
L 36.026225 262.661951 
L 34.240625 262.735359 
L 34.240625 262.735359 
" clip-path="url(#p1d23801418)" style="fill: none; stroke: #deebf7; stroke-width: 1.5"/>
    <path d="M 308.788667 288.21825 
L 308.135026 285.55713 
L 307.682765 282.89601 
L 307.402034 280.23489 
L 307.273824 277.57377 
L 307.288061 274.91265 
L 307.44246 272.25153 
L 307.741911 269.59041 
L 308.198311 266.92929 
L 308.794481 264.454209 
L 308.93795 263.82465 
L 309.715407 261.16353 
L 310.615793 258.732502 
L 310.698049 258.50241 
L 311.812233 255.84129 
L 312.401393 254.64104 
L 313.11006 253.18017 
L 314.186993 251.229204 
L 314.578488 250.51905 
L 315.972593 248.224296 
L 316.196402 247.85793 
L 317.793905 245.423386 
L 317.944204 245.19681 
L 319.579505 242.842028 
L 319.795473 242.53569 
L 321.365105 240.368813 
L 321.729223 239.87457 
L 323.150705 237.969973 
L 323.725036 237.21345 
L 324.972017 235.579117 
L 325.769661 234.55233 
L 326.757617 233.27579 
L 327.850794 231.89121 
L 328.543217 231.006908 
L 329.964057 229.23009 
L 330.328817 228.768553 
L 332.104001 226.56897 
L 332.150129 226.51108 
L 333.935729 224.279131 
L 334.238497 223.90785 
L 335.721329 222.040386 
L 336.745599 220.80321 
L 337.506929 219.856002 
L 338.914556 218.14209 
L 339.328241 217.628677 
L 341.098 215.48097 
L 341.113841 215.461333 
L 342.899441 213.257081 
L 343.262249 212.81985 
L 344.685041 211.07219 
L 345.449024 210.15873 
L 346.506353 208.873853 
L 347.674405 207.49761 
L 348.291953 206.756856 
L 349.952427 204.83649 
L 350.077553 204.689062 
L 351.863153 202.625175 
L 352.266629 202.17537 
L 353.684465 200.566761 
L 354.659162 199.51425 
L 355.470065 198.619324 
L 357.16617 196.85313 
L 357.255665 196.757657 
L 359.041265 194.907409 
L 359.779346 194.19201 
L 360.862577 193.116617 
L 362.601121 191.53089 
L 362.648177 191.486728 
L 364.433777 189.879886 
L 365.682711 188.86977 
L 366.219377 188.421206 
L 368.040689 187.01485 
L 369.211924 186.20865 
L 369.826289 185.767746 
L 371.611889 184.603101 
L 373.397489 183.600397 
L 373.501207 183.54753 
L 375.218801 182.619563 
L 377.004401 181.800477 
L 378.790001 181.111928 
L 379.476858 180.88641 
L 380.575601 180.492931 
L 382.396913 179.957 
L 384.182513 179.545854 
L 385.968113 179.239871 
L 387.753713 179.033607 
L 389.575025 178.922699 
L 391.360625 178.910562 
" clip-path="url(#p1d23801418)" style="fill: none; stroke: #deebf7; stroke-width: 1.5"/>
    <path d="M 381.175008 22.10625 
L 381.1916 24.76737 
L 380.928381 27.42849 
L 380.403982 30.08961 
L 379.651696 32.75073 
L 378.636336 35.41185 
L 377.004401 38.864873 
L 375.218801 42.073401 
L 373.397489 44.995015 
L 370.544781 49.16097 
L 366.219377 54.976043 
L 357.255665 66.349924 
L 349.781975 75.77217 
L 344.685041 82.650675 
L 342.136048 86.41665 
L 339.328241 91.209617 
L 337.506929 94.909363 
L 335.473219 100.16577 
L 330.285275 116.13249 
L 328.543217 120.220279 
L 327.977222 121.45473 
L 326.591175 124.11585 
L 323.422617 129.43809 
L 321.365105 132.505894 
L 317.485381 137.86497 
L 312.401393 144.490429 
L 301.616369 157.940774 
L 285.130104 178.22529 
L 276.510833 189.104538 
L 272.78483 194.19201 
L 270.989018 196.85313 
L 269.327236 199.51425 
L 267.547121 202.762315 
L 265.725809 206.660643 
L 264.365932 210.15873 
L 263.467624 212.81985 
L 260.008457 223.90785 
L 257.975809 229.23009 
L 255.415825 234.55233 
L 253.190897 238.417232 
L 250.537106 242.53569 
L 246.732204 247.85793 
L 242.405873 253.524343 
L 233.442161 264.829446 
L 227.440933 272.25153 
L 218.824884 282.89601 
L 214.404719 288.21825 
L 214.404719 288.21825 
" clip-path="url(#p1d23801418)" style="fill: none; stroke: #deebf7; stroke-width: 1.5"/>
   </g>
   <g id="PathCollection_3">
    <path d="M 139.480773 288.21825 
L 138.341105 284.343949 
L 138.001578 282.89601 
L 137.595245 280.23489 
L 137.391274 277.57377 
L 137.373021 274.91265 
L 137.53349 272.25153 
L 137.874056 269.59041 
L 138.399483 266.92929 
L 139.216638 263.82465 
L 140.143218 261.16353 
L 141.912305 257.086284 
L 142.512539 255.84129 
L 143.975416 253.18017 
L 147.304817 247.929148 
L 149.214626 245.19681 
L 154.482929 238.154646 
L 161.661041 229.091041 
L 186.766577 198.005824 
L 208.300913 171.703945 
L 211.907825 167.00987 
L 215.584777 161.81505 
L 217.300337 159.131743 
L 219.085937 155.995667 
L 220.871537 152.348506 
L 222.444128 148.50945 
L 223.3569 145.84833 
L 224.973768 140.52609 
L 226.560817 135.20385 
L 228.587808 129.43809 
L 229.835249 126.545045 
L 231.656561 122.8656 
L 233.442161 119.712896 
L 235.701159 116.13249 
L 239.442944 110.81025 
L 244.191473 104.547581 
L 251.918784 94.84353 
L 263.940209 80.100113 
L 282.843734 57.14433 
L 303.437681 31.714747 
L 309.31031 24.76737 
L 311.677859 22.10625 
L 311.677859 22.10625 
" clip-path="url(#p1d23801418)" style="fill: none; stroke: #c6dbef; stroke-width: 1.5"/>
    <path d="M 186.17316 22.10625 
L 186.82538 24.76737 
L 186.880769 27.42849 
L 186.46613 30.08961 
L 185.662905 32.75073 
L 184.538046 35.41185 
L 183.154793 38.07297 
L 181.409777 40.976028 
L 177.71439 46.49985 
L 172.170736 54.48321 
L 170.444701 57.14433 
L 168.839153 59.825188 
L 167.053553 63.211184 
L 166.15407 65.12769 
L 165.05829 67.78881 
L 163.268234 73.11105 
L 159.354175 86.41665 
L 158.054129 89.773858 
L 156.268529 93.565646 
L 154.482929 96.759613 
L 152.697329 99.558317 
L 150.383283 102.82689 
L 146.262197 108.14913 
L 137.649119 118.79361 
L 123.984881 135.634828 
L 113.199857 149.006297 
L 79.094897 191.012602 
L 75.523697 194.950378 
L 71.916785 198.587332 
L 70.131185 200.22784 
L 66.559985 203.104843 
L 63.946594 204.83649 
L 62.953073 205.425128 
L 61.167473 206.335911 
L 58.189963 207.49761 
L 57.560561 207.708555 
L 55.774961 208.123624 
L 53.989361 208.349223 
L 52.203761 208.359888 
L 50.382449 208.110517 
L 48.476225 207.49761 
L 46.811249 206.5604 
L 44.857427 204.83649 
L 43.135155 202.17537 
L 42.252006 199.51425 
L 41.915598 196.85313 
L 42.04255 194.19201 
L 42.564854 191.53089 
L 43.433076 188.86977 
L 45.025649 185.419816 
L 46.811249 182.25864 
L 48.596849 179.458188 
L 50.382449 176.867711 
L 53.989361 171.953225 
L 59.381873 165.09595 
L 97.058033 118.268389 
L 104.236145 109.213339 
L 108.981321 102.82689 
L 111.414257 99.280327 
L 113.199857 96.447598 
L 114.985457 93.276859 
L 115.554744 92.18241 
L 116.806769 89.481615 
L 118.592369 84.776953 
L 119.744651 81.09441 
L 122.798833 70.44993 
L 123.984881 67.10786 
L 124.776586 65.12769 
L 125.997991 62.46657 
L 127.556081 59.540465 
L 129.341681 56.614055 
L 131.162993 53.930639 
L 134.736826 49.16097 
L 141.912305 40.25585 
L 148.197638 32.75073 
L 152.963695 27.42849 
L 156.268529 24.070896 
L 158.400247 22.10625 
L 158.400247 22.10625 
" clip-path="url(#p1d23801418)" style="fill: none; stroke: #c6dbef; stroke-width: 1.5"/>
    <path d="M 318.046071 288.21825 
L 317.793905 287.450431 
L 317.176148 285.55713 
L 316.558184 282.89601 
L 316.164248 280.23489 
L 315.972593 277.653358 
L 315.966395 277.57377 
L 315.947797 274.91265 
L 315.972593 274.515003 
L 316.105018 272.25153 
L 316.434417 269.59041 
L 316.945599 266.92929 
L 317.791502 263.82465 
L 317.793905 263.817672 
L 318.689014 261.16353 
L 319.579505 259.027306 
L 319.796453 258.50241 
L 321.077376 255.84129 
L 321.365105 255.312264 
L 322.530129 253.18017 
L 323.150705 252.152292 
L 324.145664 250.51905 
L 324.972017 249.258036 
L 325.900334 247.85793 
L 326.757617 246.625743 
L 327.765297 245.19681 
L 328.543217 244.126305 
L 329.715179 242.53569 
L 330.328817 241.716651 
L 331.727453 239.87457 
L 332.150129 239.32285 
L 333.788378 237.21345 
L 333.935729 237.024032 
L 335.721329 234.749544 
L 335.877537 234.55233 
L 337.506929 232.491476 
L 337.988379 231.89121 
L 339.328241 230.214569 
L 340.126921 229.23009 
L 341.113841 228.003967 
L 342.287878 226.56897 
L 342.899441 225.813452 
L 344.468361 223.90785 
L 344.685041 223.639475 
L 346.506353 221.412188 
L 347.01541 220.80321 
L 348.291953 219.246847 
L 349.216627 218.14209 
L 350.077553 217.100369 
L 351.447855 215.48097 
L 351.863153 214.984383 
L 353.684465 212.862822 
L 353.721912 212.81985 
L 355.470065 210.795039 
L 356.039277 210.15873 
L 357.255665 208.785896 
L 358.446227 207.49761 
L 359.041265 206.846635 
L 360.862577 204.943055 
L 360.96797 204.83649 
L 362.648177 203.116309 
L 363.626494 202.17537 
L 364.433777 201.3871 
L 366.219377 199.753691 
L 366.495816 199.51425 
L 368.040689 198.154719 
L 369.666632 196.85313 
L 369.826289 196.722819 
L 371.611889 195.362431 
L 373.342927 194.19201 
L 373.397489 194.154279 
L 375.218801 193.003926 
L 377.004401 192.028408 
L 378.054055 191.53089 
L 378.790001 191.171402 
L 380.575601 190.428816 
L 382.396913 189.814414 
L 384.182513 189.346012 
L 385.968113 189.006642 
L 387.124319 188.86977 
L 387.753713 188.791282 
L 389.575025 188.705261 
L 391.360625 188.762402 
" clip-path="url(#p1d23801418)" style="fill: none; stroke: #c6dbef; stroke-width: 1.5"/>
    <path d="M 371.080987 22.10625 
L 371.244983 24.76737 
L 371.060651 27.42849 
L 370.554051 30.08961 
L 369.742912 32.75073 
L 368.681705 35.41185 
L 367.376916 38.07297 
L 365.86678 40.73409 
L 362.648177 45.679398 
L 360.170085 49.16097 
L 355.470065 55.341184 
L 339.328241 75.856982 
L 335.586267 81.09441 
L 333.846332 83.75553 
L 332.150129 86.609219 
L 330.328817 90.119725 
L 328.543217 94.255138 
L 327.381163 97.50465 
L 325.751156 102.82689 
L 323.150705 111.231119 
L 322.353874 113.47137 
L 320.044097 118.79361 
L 317.793905 122.990074 
L 315.972593 125.991746 
L 313.686564 129.43809 
L 309.500446 135.20385 
L 305.223281 140.74519 
L 296.259569 151.932906 
L 269.332721 184.951848 
L 265.725809 189.790767 
L 262.724787 194.19201 
L 260.369009 198.170266 
L 258.547697 201.758149 
L 258.351871 202.17537 
L 256.762097 206.092018 
L 255.383728 210.15873 
L 251.090802 223.90785 
L 249.583985 227.564761 
L 248.837265 229.23009 
L 247.482116 231.89121 
L 245.974162 234.55233 
L 242.562284 239.87457 
L 238.732543 245.19681 
L 232.590999 253.18017 
L 224.478449 263.304318 
L 208.300913 283.152151 
L 203.867542 288.21825 
L 203.867542 288.21825 
" clip-path="url(#p1d23801418)" style="fill: none; stroke: #c6dbef; stroke-width: 1.5"/>
    <path d="M 391.360625 277.704094 
L 389.575025 279.894689 
L 389.293195 280.23489 
L 387.753713 282.094069 
L 387.073817 282.89601 
L 385.968113 284.203288 
L 384.789218 285.55713 
L 384.182513 286.255456 
L 382.414878 288.21825 
" clip-path="url(#p1d23801418)" style="fill: none; stroke: #c6dbef; stroke-width: 1.5"/>
   </g>
   <g id="PathCollection_4">
    <path d="M 146.755499 288.21825 
L 145.519217 285.372211 
L 144.739278 282.89601 
L 144.190065 280.23489 
L 143.893206 277.57377 
L 143.82314 274.91265 
L 143.965424 272.25153 
L 144.31461 269.59041 
L 144.872587 266.92929 
L 145.788498 263.82465 
L 147.304817 260.024088 
L 147.995384 258.50241 
L 149.395335 255.84129 
L 150.968936 253.18017 
L 154.531596 247.85793 
L 158.458612 242.53569 
L 165.232241 233.87648 
L 186.766577 207.195225 
L 199.772764 191.53089 
L 213.693425 174.916451 
L 217.662835 169.79841 
L 221.444656 164.47617 
L 223.144936 161.81505 
L 224.686722 159.15393 
L 226.264049 156.033279 
L 228.049649 151.779612 
L 229.180431 148.50945 
L 230.737917 143.18721 
L 233.062752 135.20385 
L 234.149904 132.09921 
L 235.230075 129.43809 
L 237.013361 125.6763 
L 238.834673 122.362323 
L 240.620273 119.459343 
L 242.849329 116.13249 
L 246.727044 110.81025 
L 251.369585 104.802588 
L 259.402217 94.84353 
L 269.332721 82.856167 
L 288.70999 59.80545 
L 313.011537 30.08961 
L 315.972593 26.748571 
L 319.579505 22.962555 
L 320.452578 22.10625 
L 320.452578 22.10625 
" clip-path="url(#p1d23801418)" style="fill: none; stroke: #9dcae1; stroke-width: 1.5"/>
    <path d="M 325.316348 288.21825 
L 324.972017 287.472391 
L 324.136707 285.55713 
L 323.302773 282.89601 
L 323.150705 282.171158 
L 322.750175 280.23489 
L 322.449231 277.57377 
L 322.377861 274.91265 
L 322.522107 272.25153 
L 322.877312 269.59041 
L 323.150705 268.300045 
L 323.436089 266.92929 
L 324.344892 263.82465 
L 324.972017 262.167842 
L 325.351844 261.16353 
L 326.559301 258.50241 
L 326.757617 258.120863 
L 327.952842 255.84129 
L 328.543217 254.833701 
L 329.523413 253.18017 
L 330.328817 251.926477 
L 331.244114 250.51905 
L 332.150129 249.20249 
L 333.086434 247.85793 
L 333.935729 246.68207 
L 335.020724 245.19681 
L 335.721329 244.25929 
L 337.02317 242.53569 
L 337.506929 241.903738 
L 339.076099 239.87457 
L 339.328241 239.551196 
L 341.113841 237.28245 
L 341.168411 237.21345 
L 342.899441 235.034137 
L 343.28628 234.55233 
L 344.685041 232.8125 
L 345.434178 231.89121 
L 346.506353 230.571494 
L 347.609617 229.23009 
L 348.291953 228.396814 
L 349.809542 226.56897 
L 350.077553 226.244003 
L 351.863153 224.105514 
L 352.029951 223.90785 
L 353.684465 221.929104 
L 354.651087 220.80321 
L 355.470065 219.840033 
L 356.949531 218.14209 
L 357.255665 217.788829 
L 359.041265 215.779086 
L 359.31339 215.48097 
L 360.862577 213.780061 
L 361.773379 212.81985 
L 362.648177 211.894584 
L 364.371795 210.15873 
L 364.433777 210.096003 
L 366.219377 208.362125 
L 367.167802 207.49761 
L 368.040689 206.697154 
L 369.826289 205.170345 
L 370.245175 204.83649 
L 371.611889 203.737504 
L 373.397489 202.432337 
L 373.78416 202.17537 
L 375.218801 201.211875 
L 377.004401 200.154103 
L 378.246946 199.51425 
L 378.790001 199.2309 
L 380.575601 198.442759 
L 382.396913 197.795833 
L 384.182513 197.316685 
L 385.968113 196.995311 
L 387.594647 196.85313 
L 387.753713 196.838961 
L 388.956492 196.85313 
L 389.575025 196.860572 
L 391.360625 197.073645 
" clip-path="url(#p1d23801418)" style="fill: none; stroke: #9dcae1; stroke-width: 1.5"/>
    <path d="M 362.783209 22.10625 
L 363.227627 24.76737 
L 363.203179 27.42849 
L 362.648177 30.515925 
L 361.994331 32.75073 
L 360.862577 35.507344 
L 359.041265 38.98972 
L 357.255665 41.934698 
L 355.470065 44.617221 
L 351.863153 49.621469 
L 346.015655 57.14433 
L 335.507313 70.44993 
L 331.561103 75.77217 
L 328.543217 80.211698 
L 326.389627 83.75553 
L 324.967338 86.41665 
L 323.150705 90.462528 
L 321.55092 94.84353 
L 319.975644 100.16577 
L 317.670418 108.14913 
L 315.972593 112.869416 
L 315.73986 113.47137 
L 314.186993 116.907507 
L 312.401393 120.312928 
L 310.615793 123.322746 
L 308.35755 126.77697 
L 304.531859 132.09921 
L 299.830769 138.218673 
L 291.554151 148.50945 
L 281.903345 160.175042 
L 265.725809 179.45675 
L 262.154609 184.023939 
L 258.547697 188.983789 
L 256.762097 191.676836 
L 254.976497 194.648958 
L 253.190897 198.05764 
L 252.502579 199.51425 
L 251.369585 202.217508 
L 249.56864 207.49761 
L 245.658335 220.80321 
L 244.191473 224.621608 
L 242.405873 228.510308 
L 242.05158 229.23009 
L 240.588248 231.89121 
L 238.834673 234.775295 
L 235.227761 240.082001 
L 229.835249 247.279212 
L 224.478449 254.081522 
L 206.515313 276.283777 
L 200.830645 282.89601 
L 197.551601 286.442941 
L 195.788089 288.21825 
L 195.788089 288.21825 
" clip-path="url(#p1d23801418)" style="fill: none; stroke: #9dcae1; stroke-width: 1.5"/>
    <path d="M 391.360625 268.367612 
L 390.411893 269.59041 
L 389.575025 270.65869 
L 388.312218 272.25153 
L 387.753713 272.950679 
L 386.164549 274.91265 
L 385.968113 275.153893 
L 384.182513 277.319803 
L 383.970445 277.57377 
L 382.396913 279.446039 
L 381.719919 280.23489 
L 380.575601 281.558525 
L 379.38807 282.89601 
L 378.790001 283.564542 
L 377.004401 285.49469 
L 376.945241 285.55713 
L 375.218801 287.355707 
L 374.349006 288.21825 
" clip-path="url(#p1d23801418)" style="fill: none; stroke: #9dcae1; stroke-width: 1.5"/>
    <path d="M 126.876222 105.48801 
L 126.737455 102.82689 
L 127.197245 100.16577 
L 127.556081 98.429147 
L 127.73811 97.50465 
L 128.304173 94.84353 
L 128.790162 92.18241 
L 129.229116 89.52129 
L 129.341681 88.874767 
L 129.772396 86.41665 
L 130.241489 83.75553 
L 130.732796 81.09441 
L 131.162993 79.018101 
L 131.293652 78.43329 
L 132.000112 75.77217 
L 132.813489 73.11105 
L 132.948593 72.741136 
L 133.871939 70.44993 
L 134.734193 68.582554 
L 135.145134 67.78881 
L 136.519793 65.422363 
L 136.713649 65.12769 
L 138.341105 62.847823 
L 138.648379 62.46657 
L 140.126705 60.718333 
L 140.982101 59.80545 
L 141.912305 58.827367 
L 143.63714 57.14433 
L 143.697905 57.084311 
L 145.519217 55.518102 
L 146.783506 54.48321 
L 147.304817 54.035269 
L 149.090417 52.684936 
L 150.314747 51.82209 
L 150.876017 51.39804 
L 152.697329 50.326883 
L 154.482929 49.510988 
L 156.029135 51.82209 
L 155.577822 54.48321 
L 155.05873 57.14433 
L 154.568281 59.80545 
L 154.482929 60.233826 
L 154.043011 62.46657 
L 153.569014 65.12769 
L 153.131405 67.78881 
L 152.701224 70.44993 
L 152.697329 70.471279 
L 152.189859 73.11105 
L 151.639379 75.77217 
L 151.017969 78.43329 
L 150.876017 78.940142 
L 150.216692 81.09441 
L 149.272808 83.75553 
L 149.090417 84.191183 
L 148.057619 86.41665 
L 147.304817 87.827625 
L 146.302972 89.52129 
L 145.519217 90.710471 
L 144.433499 92.18241 
L 143.697905 93.123059 
L 142.209684 94.84353 
L 141.912305 95.178173 
L 140.126705 96.981499 
L 139.548833 97.50465 
L 138.341105 98.619744 
L 136.581984 100.16577 
L 136.519793 100.222787 
L 134.734193 101.611332 
L 133.165943 102.82689 
L 132.948593 103.006685 
L 131.162993 104.186955 
L 129.341681 105.380999 
L 128.955004 105.48801 
L 127.556081 105.925973 
L 126.876222 105.48801 
z
" clip-path="url(#p1d23801418)" style="fill: none; stroke: #9dcae1; stroke-width: 1.5"/>
   </g>
   <g id="PathCollection_5">
    <path d="M 153.951197 288.21825 
L 152.202831 285.55713 
L 150.876017 282.504385 
L 150.211206 280.23489 
L 149.757231 277.57377 
L 149.593504 274.91265 
L 149.693499 272.25153 
L 150.041204 269.59041 
L 150.876017 266.139766 
L 151.608257 263.82465 
L 152.697329 261.15484 
L 154.482929 257.615358 
L 156.268529 254.573828 
L 158.942767 250.51905 
L 163.446641 244.379954 
L 169.035817 237.21345 
L 184.980977 217.398825 
L 193.944689 206.494579 
L 202.944113 195.942784 
L 219.085937 177.480903 
L 223.054905 172.45953 
L 226.264049 168.005118 
L 228.545751 164.47617 
L 230.064922 161.81505 
L 231.656561 158.587168 
L 232.563374 156.49281 
L 233.556486 153.83169 
L 235.227761 148.293378 
L 237.97098 137.86497 
L 238.834673 135.145882 
L 240.620273 130.542971 
L 241.097741 129.43809 
L 242.405873 126.776005 
L 244.191473 123.597655 
L 246.012785 120.684572 
L 249.145457 116.13249 
L 253.190897 110.722284 
L 259.433271 102.82689 
L 266.021669 94.84353 
L 273.19644 86.41665 
L 280.247868 78.43329 
L 289.634462 67.78881 
L 298.524773 57.14433 
L 308.794481 44.546278 
L 314.186993 37.925703 
L 319.579505 31.716519 
L 323.150705 27.971139 
L 324.972017 26.233723 
L 326.757617 24.634308 
L 330.043838 22.10625 
L 330.043838 22.10625 
" clip-path="url(#p1d23801418)" style="fill: none; stroke: #6aaed6; stroke-width: 1.5"/>
    <path d="M 332.509589 288.21825 
L 332.150129 287.722411 
L 330.763109 285.55713 
L 330.328817 284.648873 
L 329.561956 282.89601 
L 328.77013 280.23489 
L 328.543217 278.934744 
L 328.315788 277.57377 
L 328.152757 274.91265 
L 328.252888 272.25153 
L 328.543217 270.036872 
L 328.60158 269.59041 
L 329.188772 266.92929 
L 330.168503 263.82465 
L 330.328817 263.427402 
L 331.252461 261.16353 
L 332.150129 259.315969 
L 332.551001 258.50241 
L 333.935729 256.032321 
L 334.044405 255.84129 
L 335.706652 253.18017 
L 335.721329 253.158213 
L 337.50671 250.51905 
L 337.506929 250.518742 
L 339.328241 247.974216 
L 339.412231 247.85793 
L 341.113841 245.571994 
L 341.395209 245.19681 
L 342.899441 243.23138 
L 343.435478 242.53569 
L 344.685041 240.936878 
L 345.520966 239.87457 
L 346.506353 238.635546 
L 347.645841 237.21345 
L 348.291953 236.413104 
L 349.807195 234.55233 
L 350.077553 234.221865 
L 351.863153 232.059326 
L 352.003129 231.89121 
L 353.684465 229.878719 
L 354.232968 229.23009 
L 355.470065 227.768527 
L 356.501002 226.56897 
L 357.255665 225.69048 
L 358.817305 223.90785 
L 359.041265 223.65168 
L 360.862577 221.618265 
L 361.614442 220.80321 
L 362.648177 219.684552 
L 364.127657 218.14209 
L 364.433777 217.823806 
L 366.219377 216.045718 
L 366.816503 215.48097 
L 368.040689 214.328109 
L 369.749246 212.81985 
L 369.826289 212.751982 
L 371.611889 211.287708 
L 373.114559 210.15873 
L 373.397489 209.946162 
L 375.218801 208.713242 
L 377.004401 207.6452 
L 377.292073 207.49761 
L 378.790001 206.727637 
L 380.575601 205.971526 
L 382.396913 205.375012 
L 384.182513 204.97454 
L 385.42471 204.83649 
L 385.968113 204.775915 
L 387.753713 204.798199 
L 388.019063 204.83649 
L 389.575025 205.079252 
L 391.360625 205.646274 
" clip-path="url(#p1d23801418)" style="fill: none; stroke: #6aaed6; stroke-width: 1.5"/>
    <path d="M 353.513076 22.10625 
L 353.684465 22.410048 
L 354.767565 24.76737 
L 355.198897 27.42849 
L 355.0171 30.08961 
L 354.369804 32.75073 
L 353.35399 35.41185 
L 351.863153 38.381081 
L 350.077553 41.377454 
L 348.291953 44.078289 
L 344.630473 49.16097 
L 338.370476 57.14433 
L 332.063126 65.12769 
L 326.757617 72.186184 
L 324.260796 75.77217 
L 321.365105 80.440721 
L 320.990172 81.09441 
L 319.579505 83.807905 
L 317.793905 87.926444 
L 317.187651 89.52129 
L 315.541807 94.84353 
L 312.401393 106.621234 
L 311.928199 108.14913 
L 310.615793 111.715528 
L 309.894495 113.47137 
L 308.642367 116.13249 
L 307.008881 119.161313 
L 305.223281 122.114093 
L 302.08308 126.77697 
L 298.045169 132.235067 
L 291.518898 140.52609 
L 284.943094 148.50945 
L 278.165301 156.49281 
L 271.118321 164.506261 
L 262.154609 174.706423 
L 258.547697 179.094466 
L 254.976497 183.74974 
L 251.452573 188.86977 
L 249.583985 192.000313 
L 247.798385 195.477105 
L 247.163205 196.85313 
L 246.012785 199.735145 
L 245.167499 202.17537 
L 243.646327 207.49761 
L 241.581536 215.48097 
L 239.890159 220.80321 
L 238.662517 223.90785 
L 237.013361 227.392237 
L 235.227761 230.646767 
L 233.442161 233.549839 
L 230.975267 237.21345 
L 226.264049 243.595155 
L 220.853779 250.51905 
L 206.515313 268.309525 
L 201.052865 274.91265 
L 196.367008 280.23489 
L 193.839238 282.89601 
L 190.373489 286.211931 
L 187.991868 288.21825 
L 187.991868 288.21825 
" clip-path="url(#p1d23801418)" style="fill: none; stroke: #6aaed6; stroke-width: 1.5"/>
    <path d="M 391.360625 259.807982 
L 390.395613 261.16353 
L 389.575025 262.27817 
L 388.426325 263.82465 
L 387.753713 264.709162 
L 386.046634 266.92929 
L 385.968113 267.029751 
L 384.182513 269.297307 
L 383.949871 269.59041 
L 382.396913 271.518677 
L 381.800452 272.25153 
L 380.575601 273.735519 
L 379.590624 274.91265 
L 378.790001 275.85634 
L 377.306143 277.57377 
L 377.004401 277.917999 
L 375.218801 279.910983 
L 374.921602 280.23489 
L 373.397489 281.862773 
L 372.394456 282.89601 
L 371.611889 283.683954 
L 369.826289 285.398796 
L 369.653626 285.55713 
L 368.040689 286.991218 
L 366.555121 288.21825 
" clip-path="url(#p1d23801418)" style="fill: none; stroke: #6aaed6; stroke-width: 1.5"/>
   </g>
   <g id="PathCollection_6">
    <path d="M 163.907611 288.21825 
L 163.446641 288.001977 
L 161.661041 286.887829 
L 159.875441 285.411145 
L 157.888388 282.89601 
L 156.581214 280.23489 
L 155.812283 277.57377 
L 155.45985 274.91265 
L 155.453059 272.25153 
L 155.754956 269.59041 
L 156.340793 266.92929 
L 157.374203 263.82465 
L 158.525529 261.16353 
L 159.898862 258.50241 
L 161.661041 255.55402 
L 165.071899 250.51905 
L 169.037376 245.19681 
L 176.017265 236.342896 
L 192.159089 216.389803 
L 197.551601 209.959213 
L 204.407304 202.17537 
L 208.300913 197.98023 
L 215.479025 190.66224 
L 222.657137 183.352759 
L 226.264049 179.370758 
L 228.049649 177.249663 
L 231.677311 172.45953 
L 233.460182 169.79841 
L 235.227761 166.814199 
L 237.013361 163.205144 
L 237.616096 161.81505 
L 238.834673 158.376805 
L 239.414695 156.49281 
L 240.69178 151.17057 
L 242.94642 140.52609 
L 244.191473 136.185374 
L 244.506341 135.20385 
L 246.012785 131.381249 
L 247.798385 127.69818 
L 248.28327 126.77697 
L 249.83791 124.11585 
L 253.379834 118.79361 
L 257.316078 113.47137 
L 262.154609 107.313504 
L 268.061494 100.16577 
L 274.725233 92.517172 
L 280.379494 86.41665 
L 285.595292 81.09441 
L 294.438257 72.199076 
L 299.830769 66.368869 
L 305.517909 59.80545 
L 310.615793 53.745397 
L 321.365105 40.662696 
L 324.972017 36.760503 
L 326.757617 34.945002 
L 329.176269 32.75073 
L 332.150129 30.494589 
L 333.935729 29.436572 
L 335.721329 28.62802 
L 337.506929 28.050067 
L 339.328241 27.80739 
L 341.113841 28.096164 
L 342.899441 29.245349 
L 343.557426 30.08961 
L 344.044448 32.75073 
L 343.562933 35.41185 
L 342.54651 38.07297 
L 341.113841 40.832755 
L 339.328241 43.673094 
L 335.721329 48.71748 
L 333.325598 51.82209 
L 326.757617 60.162057 
L 321.078592 67.78881 
L 317.793905 72.670801 
L 315.952548 75.77217 
L 314.186993 79.176246 
L 313.315409 81.09441 
L 312.301414 83.75553 
L 311.426396 86.41665 
L 309.984958 92.18241 
L 307.754938 102.82689 
L 307.008881 105.669246 
L 306.235535 108.14913 
L 305.223281 110.913986 
L 303.437681 114.845857 
L 301.616369 118.224861 
L 299.830769 121.140118 
L 297.83663 124.11585 
L 293.95205 129.43809 
L 289.081457 135.68502 
L 282.906329 143.18721 
L 276.510833 150.559594 
L 271.065617 156.49281 
L 265.725809 161.982118 
L 256.762097 171.047921 
L 253.077107 175.12065 
L 249.583985 179.362416 
L 247.798385 181.763787 
L 246.012785 184.385449 
L 244.191473 187.399729 
L 243.385617 188.86977 
L 242.12145 191.53089 
L 240.620273 195.430314 
L 240.146782 196.85313 
L 238.834673 201.88736 
L 238.191541 204.83649 
L 236.542234 212.81985 
L 235.10675 218.14209 
L 233.442161 222.600666 
L 232.895826 223.90785 
L 231.605693 226.56897 
L 229.835249 229.717622 
L 228.049649 232.566306 
L 224.84149 237.21345 
L 220.86067 242.53569 
L 213.693425 251.610911 
L 201.122801 267.14276 
L 195.766001 273.470714 
L 192.015803 277.57377 
L 188.587889 280.930878 
L 186.331343 282.89601 
L 183.195377 285.243489 
L 181.409777 286.355322 
L 179.588465 287.327088 
L 177.566729 288.21825 
L 177.566729 288.21825 
" clip-path="url(#p1d23801418)" style="fill: none; stroke: #4191c6; stroke-width: 1.5"/>
    <path d="M 342.465191 288.21825 
L 341.113841 287.484712 
L 339.328241 286.206497 
L 338.598106 285.55713 
L 337.506929 284.321614 
L 336.4617 282.89601 
L 335.721329 281.490634 
L 335.145122 280.23489 
L 334.372775 277.57377 
L 334.011427 274.91265 
L 334.005666 272.25153 
L 334.314456 269.59041 
L 334.906969 266.92929 
L 335.721329 264.451417 
L 335.931354 263.82465 
L 337.085083 261.16353 
L 337.506929 260.339923 
L 338.465978 258.50241 
L 339.328241 257.035586 
L 340.041587 255.84129 
L 341.113841 254.19214 
L 341.779709 253.18017 
L 342.899441 251.576511 
L 343.64395 250.51905 
L 344.685041 249.100093 
L 345.601715 247.85793 
L 346.506353 246.667029 
L 347.627909 245.19681 
L 348.291953 244.345257 
L 349.708347 242.53569 
L 350.077553 242.072267 
L 351.836241 239.87457 
L 351.863153 239.841434 
L 353.684465 237.61934 
L 354.019208 237.21345 
L 355.470065 235.47925 
L 356.251858 234.55233 
L 357.255665 233.375942 
L 358.537174 231.89121 
L 359.041265 231.312475 
L 360.862577 229.255707 
L 360.885819 229.23009 
L 362.648177 227.30743 
L 363.342762 226.56897 
L 364.433777 225.420206 
L 365.920744 223.90785 
L 366.219377 223.607613 
L 368.040689 221.870068 
L 369.2197 220.80321 
L 369.826289 220.262718 
L 371.611889 218.788369 
L 372.46751 218.14209 
L 373.397489 217.449377 
L 375.218801 216.241767 
L 376.539111 215.48097 
L 377.004401 215.216248 
L 378.790001 214.386592 
L 380.575601 213.746451 
L 382.396913 213.314887 
L 384.182513 213.142445 
L 385.968113 213.260733 
L 387.753713 213.722897 
L 389.575025 214.617148 
L 390.727115 215.48097 
L 391.360625 216.050885 
" clip-path="url(#p1d23801418)" style="fill: none; stroke: #4191c6; stroke-width: 1.5"/>
    <path d="M 391.360625 250.359696 
L 391.27744 250.51905 
L 389.72257 253.18017 
L 389.575025 253.411926 
L 388.006542 255.84129 
L 387.753713 256.209535 
L 386.162941 258.50241 
L 385.968113 258.771176 
L 384.22102 261.16353 
L 384.182513 261.214617 
L 382.396913 263.565617 
L 382.199111 263.82465 
L 380.575601 265.890806 
L 379.758176 266.92929 
L 378.790001 268.12778 
L 377.599827 269.59041 
L 377.004401 270.306279 
L 375.368986 272.25153 
L 375.218801 272.42617 
L 373.397489 274.50528 
L 373.033884 274.91265 
L 371.611889 276.460755 
L 370.56312 277.57377 
L 369.826289 278.331538 
L 368.040689 280.100774 
L 367.898904 280.23489 
L 366.219377 281.759535 
L 364.890399 282.89601 
L 364.433777 283.269235 
L 362.648177 284.61486 
L 361.274228 285.55713 
L 360.862577 285.824746 
L 359.041265 286.869138 
L 357.255665 287.748309 
L 356.103526 288.21825 
" clip-path="url(#p1d23801418)" style="fill: none; stroke: #4191c6; stroke-width: 1.5"/>
   </g>
   <g id="PathCollection_7">
    <path d="M 162.518203 274.91265 
L 162.161082 272.25153 
L 162.284093 269.59041 
L 162.794756 266.92929 
L 163.446641 264.91952 
L 163.810665 263.82465 
L 164.997952 261.16353 
L 165.232241 260.724983 
L 166.444166 258.50241 
L 167.053553 257.505811 
L 168.085275 255.84129 
L 168.839153 254.719752 
L 169.880727 253.18017 
L 170.624753 252.141319 
L 171.788017 250.51905 
L 172.410353 249.686048 
L 173.773554 247.85793 
L 174.231665 247.261759 
L 175.811539 245.19681 
L 176.017265 244.934645 
L 177.802865 242.651563 
L 177.893333 242.53569 
L 179.588465 240.415557 
L 180.016936 239.87457 
L 181.409777 238.149094 
L 182.157274 237.21345 
L 183.195377 235.935591 
L 184.30621 234.55233 
L 184.980977 233.72316 
L 186.454597 231.89121 
L 186.766577 231.507533 
L 188.587889 229.245288 
L 188.600113 229.23009 
L 190.373489 227.053824 
L 190.764146 226.56897 
L 192.159089 224.862311 
L 192.932531 223.90785 
L 193.944689 222.686911 
L 195.480985 220.80321 
L 195.766001 220.461853 
L 197.551601 218.332805 
L 197.712918 218.14209 
L 199.337201 216.264746 
L 200.017366 215.48097 
L 201.122801 214.233271 
L 202.385724 212.81985 
L 202.944113 212.20489 
L 204.729713 210.271115 
L 204.837281 210.15873 
L 206.515313 208.432573 
L 207.444961 207.49761 
L 208.300913 206.645012 
L 210.122225 204.887155 
L 210.178636 204.83649 
L 211.907825 203.289338 
L 213.205136 202.17537 
L 213.693425 201.753986 
L 215.479025 200.341038 
L 216.611841 199.51425 
L 217.300337 199.000692 
L 219.085937 197.829685 
L 220.747708 196.85313 
L 220.871537 196.777097 
L 222.657137 195.954493 
L 224.478449 195.364554 
L 226.264049 195.19736 
L 228.049649 195.839375 
L 228.90358 196.85313 
L 229.835249 198.96545 
L 229.967797 199.51425 
L 230.335926 202.17537 
L 230.468199 204.83649 
L 230.431326 207.49761 
L 230.246329 210.15873 
L 229.913882 212.81985 
L 229.835249 213.228217 
L 229.387126 215.48097 
L 228.686506 218.14209 
L 228.049649 220.061928 
L 227.795929 220.80321 
L 226.484889 223.90785 
L 226.264049 224.349254 
L 225.127892 226.56897 
L 224.478449 227.702256 
L 223.58697 229.23009 
L 222.657137 230.691998 
L 221.885414 231.89121 
L 220.871537 233.366686 
L 220.052708 234.55233 
L 219.085937 235.885871 
L 218.123311 237.21345 
L 217.300337 238.307724 
L 216.125015 239.87457 
L 215.479025 240.712224 
L 214.079592 242.53569 
L 213.693425 243.026808 
L 211.998694 245.19681 
L 211.907825 245.31074 
L 210.122225 247.548469 
L 209.876909 247.85793 
L 208.300913 249.808542 
L 207.732909 250.51905 
L 206.515313 252.016426 
L 205.580009 253.18017 
L 204.729713 254.223574 
L 203.426547 255.84129 
L 202.944113 256.433122 
L 201.274088 258.50241 
L 201.122801 258.687886 
L 199.337201 260.877676 
L 199.105218 261.16353 
L 197.551601 263.043544 
L 196.91022 263.82465 
L 195.766001 265.177863 
L 194.302825 266.92929 
L 193.944689 267.343755 
L 192.159089 269.38633 
L 191.977348 269.59041 
L 190.373489 271.320382 
L 189.495883 272.25153 
L 188.587889 273.172085 
L 186.819813 274.91265 
L 186.766577 274.962513 
L 184.980977 276.521704 
L 183.707326 277.57377 
L 183.195377 277.970014 
L 181.409777 279.212834 
L 179.766255 280.23489 
L 179.588465 280.33712 
L 177.802865 281.177836 
L 176.017265 281.836149 
L 174.231665 282.285736 
L 172.410353 282.495848 
L 170.624753 282.41886 
L 168.839153 282.015445 
L 167.053553 281.231566 
L 165.591717 280.23489 
L 165.232241 279.892963 
L 163.478916 277.57377 
L 163.446641 277.502275 
L 162.518203 274.91265 
z
" clip-path="url(#p1d23801418)" style="fill: none; stroke: #2070b4; stroke-width: 1.5"/>
    <path d="M 249.558041 156.49281 
L 248.992108 153.83169 
L 248.746904 151.17057 
L 248.702406 148.50945 
L 248.816091 145.84833 
L 249.077655 143.18721 
L 249.491074 140.52609 
L 249.583985 140.114851 
L 250.108701 137.86497 
L 250.903534 135.20385 
L 251.369585 133.976675 
L 252.098131 132.09921 
L 253.190897 129.738009 
L 253.333449 129.43809 
L 254.782915 126.77697 
L 254.976497 126.457017 
L 256.414433 124.11585 
L 256.762097 123.591444 
L 258.192024 121.45473 
L 258.547697 120.952762 
L 260.085625 118.79361 
L 260.369009 118.41204 
L 262.065241 116.13249 
L 262.154609 116.016353 
L 263.940209 113.709156 
L 264.124504 113.47137 
L 265.725809 111.468286 
L 266.251621 110.81025 
L 267.547121 109.232022 
L 268.437098 108.14913 
L 269.332721 107.087016 
L 270.685263 105.48801 
L 271.118321 104.987458 
L 272.903921 102.94333 
L 273.008082 102.82689 
L 274.725233 100.94651 
L 275.448238 100.16577 
L 276.510833 99.037188 
L 277.980742 97.50465 
L 278.296433 97.179083 
L 280.082033 95.414985 
L 280.686104 94.84353 
L 281.903345 93.697675 
L 283.573976 92.18241 
L 283.688945 92.077991 
L 285.474545 90.593058 
L 286.833939 89.52129 
L 287.260145 89.182531 
L 289.081457 87.895265 
L 290.867057 86.723863 
L 291.436345 86.41665 
L 292.652657 85.73537 
L 294.438257 84.946846 
L 296.259569 84.418002 
L 298.045169 84.371505 
L 299.830769 85.29984 
L 300.573985 86.41665 
L 301.565725 89.52129 
L 301.616369 89.874309 
L 301.840994 92.18241 
L 301.908881 94.84353 
L 301.822277 97.50465 
L 301.616369 99.860342 
L 301.588819 100.16577 
L 301.172448 102.82689 
L 300.595398 105.48801 
L 299.850176 108.14913 
L 299.830769 108.203062 
L 298.86463 110.81025 
L 298.045169 112.68628 
L 297.692792 113.47137 
L 296.318436 116.13249 
L 296.259569 116.23346 
L 294.740423 118.79361 
L 294.438257 119.262412 
L 293.008322 121.45473 
L 292.652657 121.966724 
L 291.150658 124.11585 
L 290.867057 124.502987 
L 289.197477 126.77697 
L 289.081457 126.929382 
L 287.260145 129.312681 
L 287.163985 129.43809 
L 285.474545 131.571462 
L 285.057242 132.09921 
L 283.688945 133.768505 
L 282.526395 135.20385 
L 281.903345 135.948292 
L 280.29391 137.86497 
L 280.082033 138.111937 
L 278.296433 140.159907 
L 277.972652 140.52609 
L 276.510833 142.143352 
L 275.556285 143.18721 
L 274.725233 144.080796 
L 273.051888 145.84833 
L 272.903921 146.003018 
L 271.118321 147.785377 
L 270.368296 148.50945 
L 269.332721 149.502033 
L 267.547121 151.156072 
L 267.530022 151.17057 
L 265.725809 152.703757 
L 264.333637 153.83169 
L 263.940209 154.153954 
L 262.154609 155.466117 
L 260.643106 156.49281 
L 260.369009 156.684539 
L 258.547697 157.741602 
L 256.762097 158.624004 
L 255.274369 159.15393 
L 254.976497 159.268403 
L 253.190897 159.509827 
L 251.675168 159.15393 
L 251.369585 159.045281 
L 249.583985 156.568497 
L 249.558041 156.49281 
z
" clip-path="url(#p1d23801418)" style="fill: none; stroke: #2070b4; stroke-width: 1.5"/>
    <path d="M 341.053992 274.91265 
L 340.717948 272.25153 
L 340.83593 269.59041 
L 341.113841 268.117223 
L 341.34685 266.92929 
L 342.374673 263.82465 
L 342.899441 262.637899 
L 343.568955 261.16353 
L 344.685041 259.084546 
L 345.004141 258.50241 
L 346.506353 256.061294 
L 346.643619 255.84129 
L 348.291953 253.40838 
L 348.447627 253.18017 
L 350.077553 250.927385 
L 350.373673 250.51905 
L 351.863153 248.553284 
L 352.390349 247.85793 
L 353.684465 246.208016 
L 354.4777 245.19681 
L 355.470065 243.969919 
L 356.630906 242.53569 
L 357.255665 241.78513 
L 358.851216 239.87457 
L 359.041265 239.652813 
L 360.862577 237.563454 
L 361.172576 237.21345 
L 362.648177 235.593574 
L 363.611507 234.55233 
L 364.433777 233.685968 
L 366.178589 231.89121 
L 366.219377 231.850223 
L 368.040689 230.129389 
L 369.038587 229.23009 
L 369.826289 228.539358 
L 371.611889 227.093539 
L 372.332726 226.56897 
L 373.397489 225.818378 
L 375.218801 224.710155 
L 376.81584 223.90785 
L 377.004401 223.817021 
L 378.790001 223.220732 
L 380.575601 222.901851 
L 382.396913 222.931433 
L 384.182513 223.396958 
L 385.121808 223.90785 
L 385.968113 224.511754 
L 387.714047 226.56897 
L 387.753713 226.636921 
L 388.856937 229.23009 
L 389.473626 231.89121 
L 389.575025 233.184814 
L 389.663683 234.55233 
L 389.575025 236.332537 
L 389.528869 237.21345 
L 389.085262 239.87457 
L 388.380577 242.53569 
L 387.753713 244.293716 
L 387.420134 245.19681 
L 386.209632 247.85793 
L 385.968113 248.311123 
L 384.765237 250.51905 
L 384.182513 251.478779 
L 383.133317 253.18017 
L 382.396913 254.282672 
L 381.345288 255.84129 
L 380.575601 256.918105 
L 379.4371 258.50241 
L 378.790001 259.363435 
L 377.434376 261.16353 
L 377.004401 261.713846 
L 375.35245 263.82465 
L 375.218801 263.988694 
L 373.397489 266.196899 
L 372.79567 266.92929 
L 371.611889 268.304471 
L 370.494945 269.59041 
L 369.826289 270.329593 
L 368.058966 272.25153 
L 368.040689 272.270555 
L 366.219377 274.078832 
L 365.350511 274.91265 
L 364.433777 275.744271 
L 362.648177 277.274069 
L 362.267457 277.57377 
L 360.862577 278.604164 
L 359.041265 279.809106 
L 358.293655 280.23489 
L 357.255665 280.778126 
L 355.470065 281.530806 
L 353.684465 282.08855 
L 351.863153 282.426334 
L 350.077553 282.494908 
L 348.291953 282.260967 
L 346.506353 281.674636 
L 344.685041 280.652869 
L 344.160467 280.23489 
L 342.899441 278.816054 
L 342.071707 277.57377 
L 341.113841 275.102408 
L 341.053992 274.91265 
z
" clip-path="url(#p1d23801418)" style="fill: none; stroke: #2070b4; stroke-width: 1.5"/>
   </g>
   <g id="PathCollection_8">
    <path d="M 173.219909 266.92929 
L 173.542939 263.82465 
L 174.231665 261.831112 
L 174.470398 261.16353 
L 175.815009 258.50241 
L 176.017265 258.171814 
L 177.443697 255.84129 
L 177.802865 255.314725 
L 179.243736 253.18017 
L 179.588465 252.708099 
L 181.161442 250.51905 
L 181.409777 250.192912 
L 183.150804 247.85793 
L 183.195377 247.80118 
L 184.980977 245.52586 
L 185.231856 245.19681 
L 186.766577 243.293375 
L 187.357498 242.53569 
L 188.587889 241.029524 
L 189.50016 239.87457 
L 190.373489 238.817191 
L 191.652746 237.21345 
L 192.159089 236.603101 
L 193.805203 234.55233 
L 193.944689 234.38459 
L 195.766001 232.18182 
L 196.001774 231.89121 
L 197.551601 230.064712 
L 198.237993 229.23009 
L 199.337201 227.954635 
L 200.502987 226.56897 
L 201.122801 225.868641 
L 202.834627 223.90785 
L 202.944113 223.790726 
L 204.729713 221.990469 
L 205.864662 220.80321 
L 206.515313 220.181385 
L 208.300913 218.565123 
L 208.821557 218.14209 
L 210.122225 217.166945 
L 211.907825 215.98947 
L 212.95489 215.48097 
L 213.693425 215.154737 
L 215.479025 214.890447 
L 217.146421 215.48097 
L 217.300337 215.623648 
L 218.126287 218.14209 
L 217.911656 220.80321 
L 217.300337 222.825067 
L 216.971744 223.90785 
L 215.752542 226.56897 
L 215.479025 227.053635 
L 214.238211 229.23009 
L 213.693425 230.077642 
L 212.53246 231.89121 
L 211.907825 232.783416 
L 210.686075 234.55233 
L 210.122225 235.313996 
L 208.7415 237.21345 
L 208.300913 237.787978 
L 206.736333 239.87457 
L 206.515313 240.154894 
L 204.729713 242.468906 
L 204.678658 242.53569 
L 202.944113 244.681356 
L 202.541517 245.19681 
L 201.122801 246.929896 
L 200.38887 247.85793 
L 199.337201 249.128121 
L 198.225644 250.51905 
L 197.551601 251.328587 
L 196.060197 253.18017 
L 195.766001 253.531774 
L 193.944689 255.754529 
L 193.873609 255.84129 
L 192.159089 257.830181 
L 191.596329 258.50241 
L 190.373489 259.883444 
L 189.262438 261.16353 
L 188.587889 261.892104 
L 186.809533 263.82465 
L 186.766577 263.867316 
L 184.980977 265.478769 
L 183.416636 266.92929 
L 183.195377 267.109883 
L 181.409777 268.332643 
L 179.588465 269.435634 
L 179.183912 269.59041 
L 177.802865 270.030853 
L 176.017265 270.133731 
L 174.477072 269.59041 
L 174.231665 269.378804 
L 173.219909 266.92929 
z
" clip-path="url(#p1d23801418)" style="fill: none; stroke: #08509b; stroke-width: 1.5"/>
    <path d="M 261.299908 137.86497 
L 261.068064 135.20385 
L 261.731559 132.09921 
L 262.154609 131.029239 
L 262.8034 129.43809 
L 263.940209 127.205602 
L 264.161936 126.77697 
L 265.725809 124.203857 
L 265.779563 124.11585 
L 267.547121 121.538281 
L 267.604149 121.45473 
L 269.332721 119.152156 
L 269.598675 118.79361 
L 271.118321 116.903408 
L 271.730429 116.13249 
L 272.903921 114.759117 
L 273.996862 113.47137 
L 274.725233 112.668462 
L 276.410861 110.81025 
L 276.510833 110.70722 
L 278.296433 109.016373 
L 279.236272 108.14913 
L 280.082033 107.428485 
L 281.903345 106.023989 
L 282.736207 105.48801 
L 283.688945 104.927872 
L 285.474545 104.236883 
L 287.260145 104.100476 
L 289.081457 105.2754 
L 289.203285 105.48801 
L 289.56805 108.14913 
L 289.16077 110.81025 
L 289.081457 111.032466 
L 288.177103 113.47137 
L 287.260145 115.415452 
L 286.914036 116.13249 
L 285.474545 118.626873 
L 285.377683 118.79361 
L 283.688945 121.340991 
L 283.613863 121.45473 
L 281.903345 123.79508 
L 281.670863 124.11585 
L 280.082033 126.140004 
L 279.587257 126.77697 
L 278.296433 128.318593 
L 277.368892 129.43809 
L 276.510833 130.402928 
L 275.00962 132.09921 
L 274.725233 132.393987 
L 272.903921 134.173778 
L 271.854231 135.20385 
L 271.118321 135.857043 
L 269.332721 137.307149 
L 268.539322 137.86497 
L 267.547121 138.503562 
L 265.725809 139.364801 
L 263.940209 139.762692 
L 262.154609 139.151844 
L 261.299908 137.86497 
z
" clip-path="url(#p1d23801418)" style="fill: none; stroke: #08509b; stroke-width: 1.5"/>
    <path d="M 351.732203 266.92929 
L 351.863153 265.76797 
L 352.087641 263.82465 
L 353.078637 261.16353 
L 353.684465 259.971629 
L 354.445244 258.50241 
L 355.470065 256.842901 
L 356.09043 255.84129 
L 357.255665 254.177923 
L 357.950597 253.18017 
L 359.041265 251.754453 
L 359.979473 250.51905 
L 360.862577 249.440479 
L 362.150117 247.85793 
L 362.648177 247.288664 
L 364.433777 245.250059 
L 364.483147 245.19681 
L 366.219377 243.484973 
L 367.196257 242.53569 
L 368.040689 241.781005 
L 369.826289 240.308807 
L 370.445477 239.87457 
L 371.611889 239.14042 
L 373.397489 238.306243 
L 375.218801 237.908141 
L 377.004401 238.446608 
L 378.081649 239.87457 
L 378.35533 242.53569 
L 377.786624 245.19681 
L 377.004401 247.281021 
L 376.780138 247.85793 
L 375.398271 250.51905 
L 375.218801 250.808568 
L 373.736264 253.18017 
L 373.397489 253.667941 
L 371.888434 255.84129 
L 371.611889 256.206437 
L 369.883841 258.50241 
L 369.826289 258.573292 
L 368.040689 260.709566 
L 367.660549 261.16353 
L 366.219377 262.739238 
L 365.223436 263.82465 
L 364.433777 264.590637 
L 362.648177 266.259626 
L 361.886884 266.92929 
L 360.862577 267.704732 
L 359.041265 268.896641 
L 357.699777 269.59041 
L 357.255665 269.785634 
L 355.470065 270.142249 
L 353.684465 269.920557 
L 353.126651 269.59041 
L 351.863153 267.417313 
L 351.732203 266.92929 
z
" clip-path="url(#p1d23801418)" style="fill: none; stroke: #08509b; stroke-width: 1.5"/>
   </g>
   <g id="PathCollection_9"/>
   <g id="patch_3">
    <path d="M 34.240625 288.21825 
L 34.240625 22.10625 
" style="fill: none; stroke: #000000; stroke-width: 0.8; stroke-linejoin: miter; stroke-linecap: square"/>
   </g>
   <g id="patch_4">
    <path d="M 391.360625 288.21825 
L 391.360625 22.10625 
" style="fill: none; stroke: #000000; stroke-width: 0.8; stroke-linejoin: miter; stroke-linecap: square"/>
   </g>
   <g id="patch_5">
    <path d="M 34.240625 288.21825 
L 391.360625 288.21825 
" style="fill: none; stroke: #000000; stroke-width: 0.8; stroke-linejoin: miter; stroke-linecap: square"/>
   </g>
   <g id="patch_6">
    <path d="M 34.240625 22.10625 
L 391.360625 22.10625 
" style="fill: none; stroke: #000000; stroke-width: 0.8; stroke-linejoin: miter; stroke-linecap: square"/>
   </g>
   <g id="text_16">
    <!-- 8.5_cross_18.0 -->
    <g transform="translate(168.34625 16.10625)scale(0.12 -0.12)">
     <defs>
      <path id="DejaVuSans-2e" d="M 684 794 
L 1344 794 
L 1344 0 
L 684 0 
L 684 794 
z
" transform="scale(0.015625)"/>
      <path id="DejaVuSans-5f" d="M 3263 -1063 
L 3263 -1509 
L -63 -1509 
L -63 -1063 
L 3263 -1063 
z
" transform="scale(0.015625)"/>
      <path id="DejaVuSans-63" d="M 3122 3366 
L 3122 2828 
Q 2878 2963 2633 3030 
Q 2388 3097 2138 3097 
Q 1578 3097 1268 2742 
Q 959 2388 959 1747 
Q 959 1106 1268 751 
Q 1578 397 2138 397 
Q 2388 397 2633 464 
Q 2878 531 3122 666 
L 3122 134 
Q 2881 22 2623 -34 
Q 2366 -91 2075 -91 
Q 1284 -91 818 406 
Q 353 903 353 1747 
Q 353 2603 823 3093 
Q 1294 3584 2113 3584 
Q 2378 3584 2631 3529 
Q 2884 3475 3122 3366 
z
" transform="scale(0.015625)"/>
      <path id="DejaVuSans-72" d="M 2631 2963 
Q 2534 3019 2420 3045 
Q 2306 3072 2169 3072 
Q 1681 3072 1420 2755 
Q 1159 2438 1159 1844 
L 1159 0 
L 581 0 
L 581 3500 
L 1159 3500 
L 1159 2956 
Q 1341 3275 1631 3429 
Q 1922 3584 2338 3584 
Q 2397 3584 2469 3576 
Q 2541 3569 2628 3553 
L 2631 2963 
z
" transform="scale(0.015625)"/>
      <path id="DejaVuSans-73" d="M 2834 3397 
L 2834 2853 
Q 2591 2978 2328 3040 
Q 2066 3103 1784 3103 
Q 1356 3103 1142 2972 
Q 928 2841 928 2578 
Q 928 2378 1081 2264 
Q 1234 2150 1697 2047 
L 1894 2003 
Q 2506 1872 2764 1633 
Q 3022 1394 3022 966 
Q 3022 478 2636 193 
Q 2250 -91 1575 -91 
Q 1294 -91 989 -36 
Q 684 19 347 128 
L 347 722 
Q 666 556 975 473 
Q 1284 391 1588 391 
Q 1994 391 2212 530 
Q 2431 669 2431 922 
Q 2431 1156 2273 1281 
Q 2116 1406 1581 1522 
L 1381 1569 
Q 847 1681 609 1914 
Q 372 2147 372 2553 
Q 372 3047 722 3315 
Q 1072 3584 1716 3584 
Q 2034 3584 2315 3537 
Q 2597 3491 2834 3397 
z
" transform="scale(0.015625)"/>
     </defs>
     <use xlink:href="#DejaVuSans-38"/>
     <use xlink:href="#DejaVuSans-2e" x="63.623047"/>
     <use xlink:href="#DejaVuSans-35" x="95.410156"/>
     <use xlink:href="#DejaVuSans-5f" x="159.033203"/>
     <use xlink:href="#DejaVuSans-63" x="209.033203"/>
     <use xlink:href="#DejaVuSans-72" x="264.013672"/>
     <use xlink:href="#DejaVuSans-6f" x="302.876953"/>
     <use xlink:href="#DejaVuSans-73" x="364.058594"/>
     <use xlink:href="#DejaVuSans-73" x="416.158203"/>
     <use xlink:href="#DejaVuSans-5f" x="468.257812"/>
     <use xlink:href="#DejaVuSans-31" x="518.257812"/>
     <use xlink:href="#DejaVuSans-38" x="581.880859"/>
     <use xlink:href="#DejaVuSans-2e" x="645.503906"/>
     <use xlink:href="#DejaVuSans-30" x="677.291016"/>
    </g>
   </g>
  </g>
 </g>
 <defs>
  <clipPath id="p1d23801418">
   <rect x="34.240625" y="22.10625" width="357.12" height="266.112"/>
  </clipPath>
 </defs>
</svg>
