<?xml version="1.0" encoding="utf-8" standalone="no"?>
<!DOCTYPE svg PUBLIC "-//W3C//DTD SVG 1.1//EN"
  "http://www.w3.org/Graphics/SVG/1.1/DTD/svg11.dtd">
<svg xmlns:xlink="http://www.w3.org/1999/xlink" width="408.104375pt" height="325.7745pt" viewBox="0 0 408.104375 325.7745" xmlns="http://www.w3.org/2000/svg" version="1.1">
 <metadata>
  <rdf:RDF xmlns:dc="http://purl.org/dc/elements/1.1/" xmlns:cc="http://creativecommons.org/ns#" xmlns:rdf="http://www.w3.org/1999/02/22-rdf-syntax-ns#">
   <cc:Work>
    <dc:type rdf:resource="http://purl.org/dc/dcmitype/StillImage"/>
    <dc:date>2024-07-12T12:12:04.510834</dc:date>
    <dc:format>image/svg+xml</dc:format>
    <dc:creator>
     <cc:Agent>
      <dc:title>Matplotlib v3.5.3, https://matplotlib.org/</dc:title>
     </cc:Agent>
    </dc:creator>
   </cc:Work>
  </rdf:RDF>
 </metadata>
 <defs>
  <style type="text/css">*{stroke-linejoin: round; stroke-linecap: butt}</style>
 </defs>
 <g id="figure_1">
  <g id="patch_1">
   <path d="M 0 325.7745 
L 408.104375 325.7745 
L 408.104375 0 
L 0 0 
z
" style="fill: #ffffff"/>
  </g>
  <g id="axes_1">
   <g id="patch_2">
    <path d="M 34.240625 288.21825 
L 391.360625 288.21825 
L 391.360625 22.10625 
L 34.240625 22.10625 
z
" style="fill: #ffffff"/>
   </g>
   <g id="matplotlib.axis_1">
    <g id="xtick_1">
     <g id="line2d_1">
      <defs>
       <path id="m986978031f" d="M 0 0 
L 0 3.5 
" style="stroke: #000000; stroke-width: 0.8"/>
      </defs>
      <g>
       <use xlink:href="#m986978031f" x="34.240625" y="288.21825" style="stroke: #000000; stroke-width: 0.8"/>
      </g>
     </g>
     <g id="text_1">
      <!-- 0 -->
      <g transform="translate(31.059375 302.816687)scale(0.1 -0.1)">
       <defs>
        <path id="DejaVuSans-30" d="M 2034 4250 
Q 1547 4250 1301 3770 
Q 1056 3291 1056 2328 
Q 1056 1369 1301 889 
Q 1547 409 2034 409 
Q 2525 409 2770 889 
Q 3016 1369 3016 2328 
Q 3016 3291 2770 3770 
Q 2525 4250 2034 4250 
z
M 2034 4750 
Q 2819 4750 3233 4129 
Q 3647 3509 3647 2328 
Q 3647 1150 3233 529 
Q 2819 -91 2034 -91 
Q 1250 -91 836 529 
Q 422 1150 422 2328 
Q 422 3509 836 4129 
Q 1250 4750 2034 4750 
z
" transform="scale(0.015625)"/>
       </defs>
       <use xlink:href="#DejaVuSans-30"/>
      </g>
     </g>
    </g>
    <g id="xtick_2">
     <g id="line2d_2">
      <g>
       <use xlink:href="#m986978031f" x="105.664625" y="288.21825" style="stroke: #000000; stroke-width: 0.8"/>
      </g>
     </g>
     <g id="text_2">
      <!-- 20 -->
      <g transform="translate(99.302125 302.816687)scale(0.1 -0.1)">
       <defs>
        <path id="DejaVuSans-32" d="M 1228 531 
L 3431 531 
L 3431 0 
L 469 0 
L 469 531 
Q 828 903 1448 1529 
Q 2069 2156 2228 2338 
Q 2531 2678 2651 2914 
Q 2772 3150 2772 3378 
Q 2772 3750 2511 3984 
Q 2250 4219 1831 4219 
Q 1534 4219 1204 4116 
Q 875 4013 500 3803 
L 500 4441 
Q 881 4594 1212 4672 
Q 1544 4750 1819 4750 
Q 2544 4750 2975 4387 
Q 3406 4025 3406 3419 
Q 3406 3131 3298 2873 
Q 3191 2616 2906 2266 
Q 2828 2175 2409 1742 
Q 1991 1309 1228 531 
z
" transform="scale(0.015625)"/>
       </defs>
       <use xlink:href="#DejaVuSans-32"/>
       <use xlink:href="#DejaVuSans-30" x="63.623047"/>
      </g>
     </g>
    </g>
    <g id="xtick_3">
     <g id="line2d_3">
      <g>
       <use xlink:href="#m986978031f" x="177.088625" y="288.21825" style="stroke: #000000; stroke-width: 0.8"/>
      </g>
     </g>
     <g id="text_3">
      <!-- 40 -->
      <g transform="translate(170.726125 302.816687)scale(0.1 -0.1)">
       <defs>
        <path id="DejaVuSans-34" d="M 2419 4116 
L 825 1625 
L 2419 1625 
L 2419 4116 
z
M 2253 4666 
L 3047 4666 
L 3047 1625 
L 3713 1625 
L 3713 1100 
L 3047 1100 
L 3047 0 
L 2419 0 
L 2419 1100 
L 313 1100 
L 313 1709 
L 2253 4666 
z
" transform="scale(0.015625)"/>
       </defs>
       <use xlink:href="#DejaVuSans-34"/>
       <use xlink:href="#DejaVuSans-30" x="63.623047"/>
      </g>
     </g>
    </g>
    <g id="xtick_4">
     <g id="line2d_4">
      <g>
       <use xlink:href="#m986978031f" x="248.512625" y="288.21825" style="stroke: #000000; stroke-width: 0.8"/>
      </g>
     </g>
     <g id="text_4">
      <!-- 60 -->
      <g transform="translate(242.150125 302.816687)scale(0.1 -0.1)">
       <defs>
        <path id="DejaVuSans-36" d="M 2113 2584 
Q 1688 2584 1439 2293 
Q 1191 2003 1191 1497 
Q 1191 994 1439 701 
Q 1688 409 2113 409 
Q 2538 409 2786 701 
Q 3034 994 3034 1497 
Q 3034 2003 2786 2293 
Q 2538 2584 2113 2584 
z
M 3366 4563 
L 3366 3988 
Q 3128 4100 2886 4159 
Q 2644 4219 2406 4219 
Q 1781 4219 1451 3797 
Q 1122 3375 1075 2522 
Q 1259 2794 1537 2939 
Q 1816 3084 2150 3084 
Q 2853 3084 3261 2657 
Q 3669 2231 3669 1497 
Q 3669 778 3244 343 
Q 2819 -91 2113 -91 
Q 1303 -91 875 529 
Q 447 1150 447 2328 
Q 447 3434 972 4092 
Q 1497 4750 2381 4750 
Q 2619 4750 2861 4703 
Q 3103 4656 3366 4563 
z
" transform="scale(0.015625)"/>
       </defs>
       <use xlink:href="#DejaVuSans-36"/>
       <use xlink:href="#DejaVuSans-30" x="63.623047"/>
      </g>
     </g>
    </g>
    <g id="xtick_5">
     <g id="line2d_5">
      <g>
       <use xlink:href="#m986978031f" x="319.936625" y="288.21825" style="stroke: #000000; stroke-width: 0.8"/>
      </g>
     </g>
     <g id="text_5">
      <!-- 80 -->
      <g transform="translate(313.574125 302.816687)scale(0.1 -0.1)">
       <defs>
        <path id="DejaVuSans-38" d="M 2034 2216 
Q 1584 2216 1326 1975 
Q 1069 1734 1069 1313 
Q 1069 891 1326 650 
Q 1584 409 2034 409 
Q 2484 409 2743 651 
Q 3003 894 3003 1313 
Q 3003 1734 2745 1975 
Q 2488 2216 2034 2216 
z
M 1403 2484 
Q 997 2584 770 2862 
Q 544 3141 544 3541 
Q 544 4100 942 4425 
Q 1341 4750 2034 4750 
Q 2731 4750 3128 4425 
Q 3525 4100 3525 3541 
Q 3525 3141 3298 2862 
Q 3072 2584 2669 2484 
Q 3125 2378 3379 2068 
Q 3634 1759 3634 1313 
Q 3634 634 3220 271 
Q 2806 -91 2034 -91 
Q 1263 -91 848 271 
Q 434 634 434 1313 
Q 434 1759 690 2068 
Q 947 2378 1403 2484 
z
M 1172 3481 
Q 1172 3119 1398 2916 
Q 1625 2713 2034 2713 
Q 2441 2713 2670 2916 
Q 2900 3119 2900 3481 
Q 2900 3844 2670 4047 
Q 2441 4250 2034 4250 
Q 1625 4250 1398 4047 
Q 1172 3844 1172 3481 
z
" transform="scale(0.015625)"/>
       </defs>
       <use xlink:href="#DejaVuSans-38"/>
       <use xlink:href="#DejaVuSans-30" x="63.623047"/>
      </g>
     </g>
    </g>
    <g id="xtick_6">
     <g id="line2d_6">
      <g>
       <use xlink:href="#m986978031f" x="391.360625" y="288.21825" style="stroke: #000000; stroke-width: 0.8"/>
      </g>
     </g>
     <g id="text_6">
      <!-- 100 -->
      <g transform="translate(381.816875 302.816687)scale(0.1 -0.1)">
       <defs>
        <path id="DejaVuSans-31" d="M 794 531 
L 1825 531 
L 1825 4091 
L 703 3866 
L 703 4441 
L 1819 4666 
L 2450 4666 
L 2450 531 
L 3481 531 
L 3481 0 
L 794 0 
L 794 531 
z
" transform="scale(0.015625)"/>
       </defs>
       <use xlink:href="#DejaVuSans-31"/>
       <use xlink:href="#DejaVuSans-30" x="63.623047"/>
       <use xlink:href="#DejaVuSans-30" x="127.246094"/>
      </g>
     </g>
    </g>
    <g id="text_7">
     <!-- axialRotation -->
     <g transform="translate(180.024844 316.494812)scale(0.1 -0.1)">
      <defs>
       <path id="DejaVuSans-61" d="M 2194 1759 
Q 1497 1759 1228 1600 
Q 959 1441 959 1056 
Q 959 750 1161 570 
Q 1363 391 1709 391 
Q 2188 391 2477 730 
Q 2766 1069 2766 1631 
L 2766 1759 
L 2194 1759 
z
M 3341 1997 
L 3341 0 
L 2766 0 
L 2766 531 
Q 2569 213 2275 61 
Q 1981 -91 1556 -91 
Q 1019 -91 701 211 
Q 384 513 384 1019 
Q 384 1609 779 1909 
Q 1175 2209 1959 2209 
L 2766 2209 
L 2766 2266 
Q 2766 2663 2505 2880 
Q 2244 3097 1772 3097 
Q 1472 3097 1187 3025 
Q 903 2953 641 2809 
L 641 3341 
Q 956 3463 1253 3523 
Q 1550 3584 1831 3584 
Q 2591 3584 2966 3190 
Q 3341 2797 3341 1997 
z
" transform="scale(0.015625)"/>
       <path id="DejaVuSans-78" d="M 3513 3500 
L 2247 1797 
L 3578 0 
L 2900 0 
L 1881 1375 
L 863 0 
L 184 0 
L 1544 1831 
L 300 3500 
L 978 3500 
L 1906 2253 
L 2834 3500 
L 3513 3500 
z
" transform="scale(0.015625)"/>
       <path id="DejaVuSans-69" d="M 603 3500 
L 1178 3500 
L 1178 0 
L 603 0 
L 603 3500 
z
M 603 4863 
L 1178 4863 
L 1178 4134 
L 603 4134 
L 603 4863 
z
" transform="scale(0.015625)"/>
       <path id="DejaVuSans-6c" d="M 603 4863 
L 1178 4863 
L 1178 0 
L 603 0 
L 603 4863 
z
" transform="scale(0.015625)"/>
       <path id="DejaVuSans-52" d="M 2841 2188 
Q 3044 2119 3236 1894 
Q 3428 1669 3622 1275 
L 4263 0 
L 3584 0 
L 2988 1197 
Q 2756 1666 2539 1819 
Q 2322 1972 1947 1972 
L 1259 1972 
L 1259 0 
L 628 0 
L 628 4666 
L 2053 4666 
Q 2853 4666 3247 4331 
Q 3641 3997 3641 3322 
Q 3641 2881 3436 2590 
Q 3231 2300 2841 2188 
z
M 1259 4147 
L 1259 2491 
L 2053 2491 
Q 2509 2491 2742 2702 
Q 2975 2913 2975 3322 
Q 2975 3731 2742 3939 
Q 2509 4147 2053 4147 
L 1259 4147 
z
" transform="scale(0.015625)"/>
       <path id="DejaVuSans-6f" d="M 1959 3097 
Q 1497 3097 1228 2736 
Q 959 2375 959 1747 
Q 959 1119 1226 758 
Q 1494 397 1959 397 
Q 2419 397 2687 759 
Q 2956 1122 2956 1747 
Q 2956 2369 2687 2733 
Q 2419 3097 1959 3097 
z
M 1959 3584 
Q 2709 3584 3137 3096 
Q 3566 2609 3566 1747 
Q 3566 888 3137 398 
Q 2709 -91 1959 -91 
Q 1206 -91 779 398 
Q 353 888 353 1747 
Q 353 2609 779 3096 
Q 1206 3584 1959 3584 
z
" transform="scale(0.015625)"/>
       <path id="DejaVuSans-74" d="M 1172 4494 
L 1172 3500 
L 2356 3500 
L 2356 3053 
L 1172 3053 
L 1172 1153 
Q 1172 725 1289 603 
Q 1406 481 1766 481 
L 2356 481 
L 2356 0 
L 1766 0 
Q 1100 0 847 248 
Q 594 497 594 1153 
L 594 3053 
L 172 3053 
L 172 3500 
L 594 3500 
L 594 4494 
L 1172 4494 
z
" transform="scale(0.015625)"/>
       <path id="DejaVuSans-6e" d="M 3513 2113 
L 3513 0 
L 2938 0 
L 2938 2094 
Q 2938 2591 2744 2837 
Q 2550 3084 2163 3084 
Q 1697 3084 1428 2787 
Q 1159 2491 1159 1978 
L 1159 0 
L 581 0 
L 581 3500 
L 1159 3500 
L 1159 2956 
Q 1366 3272 1645 3428 
Q 1925 3584 2291 3584 
Q 2894 3584 3203 3211 
Q 3513 2838 3513 2113 
z
" transform="scale(0.015625)"/>
      </defs>
      <use xlink:href="#DejaVuSans-61"/>
      <use xlink:href="#DejaVuSans-78" x="61.279297"/>
      <use xlink:href="#DejaVuSans-69" x="120.458984"/>
      <use xlink:href="#DejaVuSans-61" x="148.242188"/>
      <use xlink:href="#DejaVuSans-6c" x="209.521484"/>
      <use xlink:href="#DejaVuSans-52" x="237.304688"/>
      <use xlink:href="#DejaVuSans-6f" x="302.287109"/>
      <use xlink:href="#DejaVuSans-74" x="363.46875"/>
      <use xlink:href="#DejaVuSans-61" x="402.677734"/>
      <use xlink:href="#DejaVuSans-74" x="463.957031"/>
      <use xlink:href="#DejaVuSans-69" x="503.166016"/>
      <use xlink:href="#DejaVuSans-6f" x="530.949219"/>
      <use xlink:href="#DejaVuSans-6e" x="592.130859"/>
     </g>
    </g>
   </g>
   <g id="matplotlib.axis_2">
    <g id="ytick_1">
     <g id="line2d_7">
      <defs>
       <path id="m9654f3dce3" d="M 0 0 
L -3.5 0 
" style="stroke: #000000; stroke-width: 0.8"/>
      </defs>
      <g>
       <use xlink:href="#m9654f3dce3" x="34.240625" y="288.21825" style="stroke: #000000; stroke-width: 0.8"/>
      </g>
     </g>
     <g id="text_8">
      <!-- 0 -->
      <g transform="translate(20.878125 292.017469)scale(0.1 -0.1)">
       <use xlink:href="#DejaVuSans-30"/>
      </g>
     </g>
    </g>
    <g id="ytick_2">
     <g id="line2d_8">
      <g>
       <use xlink:href="#m9654f3dce3" x="34.240625" y="243.86625" style="stroke: #000000; stroke-width: 0.8"/>
      </g>
     </g>
     <g id="text_9">
      <!-- 1 -->
      <g transform="translate(20.878125 247.665469)scale(0.1 -0.1)">
       <use xlink:href="#DejaVuSans-31"/>
      </g>
     </g>
    </g>
    <g id="ytick_3">
     <g id="line2d_9">
      <g>
       <use xlink:href="#m9654f3dce3" x="34.240625" y="199.51425" style="stroke: #000000; stroke-width: 0.8"/>
      </g>
     </g>
     <g id="text_10">
      <!-- 2 -->
      <g transform="translate(20.878125 203.313469)scale(0.1 -0.1)">
       <use xlink:href="#DejaVuSans-32"/>
      </g>
     </g>
    </g>
    <g id="ytick_4">
     <g id="line2d_10">
      <g>
       <use xlink:href="#m9654f3dce3" x="34.240625" y="155.16225" style="stroke: #000000; stroke-width: 0.8"/>
      </g>
     </g>
     <g id="text_11">
      <!-- 3 -->
      <g transform="translate(20.878125 158.961469)scale(0.1 -0.1)">
       <defs>
        <path id="DejaVuSans-33" d="M 2597 2516 
Q 3050 2419 3304 2112 
Q 3559 1806 3559 1356 
Q 3559 666 3084 287 
Q 2609 -91 1734 -91 
Q 1441 -91 1130 -33 
Q 819 25 488 141 
L 488 750 
Q 750 597 1062 519 
Q 1375 441 1716 441 
Q 2309 441 2620 675 
Q 2931 909 2931 1356 
Q 2931 1769 2642 2001 
Q 2353 2234 1838 2234 
L 1294 2234 
L 1294 2753 
L 1863 2753 
Q 2328 2753 2575 2939 
Q 2822 3125 2822 3475 
Q 2822 3834 2567 4026 
Q 2313 4219 1838 4219 
Q 1578 4219 1281 4162 
Q 984 4106 628 3988 
L 628 4550 
Q 988 4650 1302 4700 
Q 1616 4750 1894 4750 
Q 2613 4750 3031 4423 
Q 3450 4097 3450 3541 
Q 3450 3153 3228 2886 
Q 3006 2619 2597 2516 
z
" transform="scale(0.015625)"/>
       </defs>
       <use xlink:href="#DejaVuSans-33"/>
      </g>
     </g>
    </g>
    <g id="ytick_5">
     <g id="line2d_11">
      <g>
       <use xlink:href="#m9654f3dce3" x="34.240625" y="110.81025" style="stroke: #000000; stroke-width: 0.8"/>
      </g>
     </g>
     <g id="text_12">
      <!-- 4 -->
      <g transform="translate(20.878125 114.609469)scale(0.1 -0.1)">
       <use xlink:href="#DejaVuSans-34"/>
      </g>
     </g>
    </g>
    <g id="ytick_6">
     <g id="line2d_12">
      <g>
       <use xlink:href="#m9654f3dce3" x="34.240625" y="66.45825" style="stroke: #000000; stroke-width: 0.8"/>
      </g>
     </g>
     <g id="text_13">
      <!-- 5 -->
      <g transform="translate(20.878125 70.257469)scale(0.1 -0.1)">
       <defs>
        <path id="DejaVuSans-35" d="M 691 4666 
L 3169 4666 
L 3169 4134 
L 1269 4134 
L 1269 2991 
Q 1406 3038 1543 3061 
Q 1681 3084 1819 3084 
Q 2600 3084 3056 2656 
Q 3513 2228 3513 1497 
Q 3513 744 3044 326 
Q 2575 -91 1722 -91 
Q 1428 -91 1123 -41 
Q 819 9 494 109 
L 494 744 
Q 775 591 1075 516 
Q 1375 441 1709 441 
Q 2250 441 2565 725 
Q 2881 1009 2881 1497 
Q 2881 1984 2565 2268 
Q 2250 2553 1709 2553 
Q 1456 2553 1204 2497 
Q 953 2441 691 2322 
L 691 4666 
z
" transform="scale(0.015625)"/>
       </defs>
       <use xlink:href="#DejaVuSans-35"/>
      </g>
     </g>
    </g>
    <g id="ytick_7">
     <g id="line2d_13">
      <g>
       <use xlink:href="#m9654f3dce3" x="34.240625" y="22.10625" style="stroke: #000000; stroke-width: 0.8"/>
      </g>
     </g>
     <g id="text_14">
      <!-- 6 -->
      <g transform="translate(20.878125 25.905469)scale(0.1 -0.1)">
       <use xlink:href="#DejaVuSans-36"/>
      </g>
     </g>
    </g>
    <g id="text_15">
     <!-- zShift -->
     <g transform="translate(14.798438 169.151312)rotate(-90)scale(0.1 -0.1)">
      <defs>
       <path id="DejaVuSans-7a" d="M 353 3500 
L 3084 3500 
L 3084 2975 
L 922 459 
L 3084 459 
L 3084 0 
L 275 0 
L 275 525 
L 2438 3041 
L 353 3041 
L 353 3500 
z
" transform="scale(0.015625)"/>
       <path id="DejaVuSans-53" d="M 3425 4513 
L 3425 3897 
Q 3066 4069 2747 4153 
Q 2428 4238 2131 4238 
Q 1616 4238 1336 4038 
Q 1056 3838 1056 3469 
Q 1056 3159 1242 3001 
Q 1428 2844 1947 2747 
L 2328 2669 
Q 3034 2534 3370 2195 
Q 3706 1856 3706 1288 
Q 3706 609 3251 259 
Q 2797 -91 1919 -91 
Q 1588 -91 1214 -16 
Q 841 59 441 206 
L 441 856 
Q 825 641 1194 531 
Q 1563 422 1919 422 
Q 2459 422 2753 634 
Q 3047 847 3047 1241 
Q 3047 1584 2836 1778 
Q 2625 1972 2144 2069 
L 1759 2144 
Q 1053 2284 737 2584 
Q 422 2884 422 3419 
Q 422 4038 858 4394 
Q 1294 4750 2059 4750 
Q 2388 4750 2728 4690 
Q 3069 4631 3425 4513 
z
" transform="scale(0.015625)"/>
       <path id="DejaVuSans-68" d="M 3513 2113 
L 3513 0 
L 2938 0 
L 2938 2094 
Q 2938 2591 2744 2837 
Q 2550 3084 2163 3084 
Q 1697 3084 1428 2787 
Q 1159 2491 1159 1978 
L 1159 0 
L 581 0 
L 581 4863 
L 1159 4863 
L 1159 2956 
Q 1366 3272 1645 3428 
Q 1925 3584 2291 3584 
Q 2894 3584 3203 3211 
Q 3513 2838 3513 2113 
z
" transform="scale(0.015625)"/>
       <path id="DejaVuSans-66" d="M 2375 4863 
L 2375 4384 
L 1825 4384 
Q 1516 4384 1395 4259 
Q 1275 4134 1275 3809 
L 1275 3500 
L 2222 3500 
L 2222 3053 
L 1275 3053 
L 1275 0 
L 697 0 
L 697 3053 
L 147 3053 
L 147 3500 
L 697 3500 
L 697 3744 
Q 697 4328 969 4595 
Q 1241 4863 1831 4863 
L 2375 4863 
z
" transform="scale(0.015625)"/>
      </defs>
      <use xlink:href="#DejaVuSans-7a"/>
      <use xlink:href="#DejaVuSans-53" x="52.490234"/>
      <use xlink:href="#DejaVuSans-68" x="115.966797"/>
      <use xlink:href="#DejaVuSans-69" x="179.345703"/>
      <use xlink:href="#DejaVuSans-66" x="207.128906"/>
      <use xlink:href="#DejaVuSans-74" x="240.583984"/>
     </g>
    </g>
   </g>
   <g id="PathCollection_1"/>
   <g id="PathCollection_2">
    <path d="M 34.240625 132.672259 
L 34.709118 132.09921 
L 36.026225 130.449349 
L 36.845217 129.43809 
L 37.847537 128.18199 
L 38.985065 126.77697 
L 39.633137 125.963642 
L 41.128763 124.11585 
L 41.418737 123.752076 
L 43.204337 121.541077 
L 43.274224 121.45473 
L 45.025649 119.263999 
L 45.407398 118.79361 
L 46.811249 117.038985 
L 47.548254 116.13249 
L 48.596849 114.822959 
L 49.696654 113.47137 
L 50.382449 112.614631 
L 51.848817 110.81025 
L 52.203761 110.366583 
L 53.989361 108.166417 
L 54.003387 108.14913 
L 55.774961 105.929362 
L 56.132437 105.48801 
L 57.560561 103.696429 
L 58.263696 102.82689 
L 59.381873 101.425041 
L 60.401313 100.16577 
L 61.167473 99.205254 
L 62.545947 97.50465 
L 62.953073 96.994758 
L 64.699004 94.84353 
L 64.738673 94.793857 
L 66.559985 92.519751 
L 66.833578 92.18241 
L 68.345585 90.285714 
L 68.963792 89.52129 
L 70.131185 88.037478 
L 71.443598 86.41665 
L 71.916785 85.814235 
L 73.55176 83.75553 
L 73.738097 83.515405 
L 75.523697 81.224426 
L 75.625104 81.09441 
L 77.309297 78.873526 
L 77.644961 78.43329 
L 79.094897 76.466397 
L 79.60684 75.77217 
L 80.916209 73.923521 
L 81.488528 73.11105 
L 82.701809 71.296047 
L 83.260676 70.44993 
L 84.487409 68.468205 
L 84.899494 67.78881 
L 86.273009 65.341221 
L 86.389321 65.12769 
L 87.69873 62.46657 
L 88.094321 61.582809 
L 88.855202 59.80545 
L 89.879921 57.196121 
L 89.899314 57.14433 
L 90.800526 54.48321 
L 91.665521 51.845682 
L 91.672882 51.82209 
L 92.480443 49.16097 
L 93.337498 46.49985 
L 93.451121 46.168982 
L 94.374964 43.39521 
L 95.272433 41.053257 
L 95.391275 40.73409 
L 96.500259 38.07297 
L 97.058033 36.900515 
L 97.758258 35.41185 
L 98.843633 33.375706 
L 99.176231 32.75073 
L 100.629233 30.295865 
L 100.752106 30.08961 
L 102.450545 27.479881 
L 102.484486 27.42849 
L 104.236145 24.95066 
L 104.368784 24.76737 
L 106.021745 22.599077 
L 106.409526 22.10625 
" clip-path="url(#p06a14d110c)" style="fill: none; stroke: #dbe9f6; stroke-width: 1.5"/>
    <path d="M 117.054813 288.21825 
L 116.944201 285.55713 
L 117.141499 282.89601 
L 117.631948 280.23489 
L 118.592369 277.113325 
L 119.422466 274.91265 
L 120.675846 272.25153 
L 122.163569 269.529848 
L 123.984881 266.537401 
L 127.654507 261.16353 
L 132.948593 254.10513 
L 140.126705 245.086682 
L 165.905901 212.81985 
L 170.624753 206.350755 
L 173.36835 202.17537 
L 174.929658 199.51425 
L 176.335696 196.85313 
L 177.802865 193.652246 
L 179.638286 188.86977 
L 184.104435 175.12065 
L 186.325269 169.79841 
L 188.587889 165.384849 
L 190.373489 162.322162 
L 192.396506 159.15393 
L 196.130323 153.83169 
L 201.122801 147.228729 
L 210.122225 135.909645 
L 228.198182 113.47137 
L 256.762097 77.642175 
L 260.369009 72.617774 
L 262.154609 69.899941 
L 263.940209 66.916174 
L 265.725809 63.53805 
L 267.419549 59.80545 
L 268.430427 57.14433 
L 270.202294 51.82209 
L 272.940276 43.39521 
L 274.725233 38.854684 
L 275.052026 38.07297 
L 276.510833 35.044687 
L 278.296433 31.770997 
L 280.082033 28.863195 
L 281.903345 26.172092 
L 283.688945 23.740007 
L 284.96351 22.10625 
L 284.96351 22.10625 
" clip-path="url(#p06a14d110c)" style="fill: none; stroke: #dbe9f6; stroke-width: 1.5"/>
    <path d="M 219.34565 22.10625 
L 219.500155 24.76737 
L 219.350295 27.42849 
L 218.93554 30.08961 
L 218.307183 32.75073 
L 216.511028 38.07297 
L 211.907825 49.62964 
L 210.122225 54.882948 
L 206.515313 66.531925 
L 205.089033 70.44993 
L 202.700665 75.77217 
L 201.122801 78.73137 
L 199.337201 81.765663 
L 196.292392 86.41665 
L 193.944689 89.697969 
L 188.027927 97.50465 
L 181.409777 105.830072 
L 136.298526 161.81505 
L 116.806769 186.240107 
L 112.911713 191.53089 
L 109.372201 196.85313 
L 107.801719 199.51425 
L 106.021745 202.999491 
L 104.077263 207.49761 
L 102.230195 212.81985 
L 99.718921 220.80321 
L 97.568423 226.56897 
L 95.272433 231.470842 
L 95.063803 231.89121 
L 93.451121 234.793138 
L 91.665521 237.714153 
L 88.378998 242.53569 
L 86.273009 245.371869 
L 82.221185 250.51905 
L 77.718667 255.84129 
L 73.738097 260.252232 
L 70.131185 263.942087 
L 66.559985 267.339588 
L 62.953073 270.444307 
L 59.381873 273.148386 
L 55.774961 275.484337 
L 52.203761 277.397922 
L 48.596849 278.975278 
L 45.025649 280.112206 
L 41.418737 280.935454 
L 37.847537 281.377242 
L 34.240625 281.452018 
L 34.240625 281.452018 
" clip-path="url(#p06a14d110c)" style="fill: none; stroke: #dbe9f6; stroke-width: 1.5"/>
    <path d="M 295.60641 288.21825 
L 295.491249 285.55713 
L 295.695971 282.89601 
L 296.206726 280.23489 
L 296.259569 280.056313 
L 296.962176 277.57377 
L 297.997869 274.91265 
L 298.045169 274.81228 
L 299.229078 272.25153 
L 299.830769 271.146071 
L 300.669525 269.59041 
L 301.616369 268.027072 
L 302.279299 266.92929 
L 303.437681 265.159772 
L 304.326738 263.82465 
L 305.223281 262.543563 
L 306.196938 261.16353 
L 307.008881 260.049424 
L 308.148978 258.50241 
L 308.794481 257.642641 
L 310.164171 255.84129 
L 310.615793 255.253202 
L 312.230868 253.18017 
L 312.401393 252.961323 
L 314.186993 250.691884 
L 314.324017 250.51905 
L 315.972593 248.427224 
L 316.427941 247.85793 
L 317.793905 246.133339 
L 318.546545 245.19681 
L 319.579505 243.89078 
L 320.667072 242.53569 
L 321.365105 241.648561 
L 322.779975 239.87457 
L 323.150705 239.398799 
L 324.872553 237.21345 
L 324.972017 237.083966 
L 326.757617 234.762227 
L 326.919704 234.55233 
L 328.543217 232.381705 
L 328.911912 231.89121 
L 330.328817 229.930411 
L 330.834558 229.23009 
L 332.150129 227.318887 
L 332.662752 226.56897 
L 333.935729 224.588186 
L 334.367026 223.90785 
L 335.721329 221.575807 
L 336.164656 220.80321 
L 337.506929 218.214266 
L 337.5432 218.14209 
L 338.73271 215.48097 
L 339.328241 214.022384 
L 339.798727 212.81985 
L 340.751231 210.15873 
L 341.113841 209.080325 
L 341.622957 207.49761 
L 342.467776 204.83649 
L 342.899441 203.520399 
L 343.324644 202.17537 
L 344.23783 199.51425 
L 344.685041 198.349929 
L 345.247169 196.85313 
L 346.405132 194.19201 
L 346.506353 193.984978 
L 347.702112 191.53089 
L 348.291953 190.474082 
L 349.196627 188.86977 
L 350.077553 187.476103 
L 350.897052 186.20865 
L 351.863153 184.84381 
L 352.81233 183.54753 
L 353.684465 182.436167 
L 354.95721 180.88641 
L 355.470065 180.290178 
L 357.255665 178.322348 
L 357.34724 178.22529 
L 359.041265 176.465578 
L 360.465715 175.12065 
L 360.862577 174.747925 
L 362.648177 173.16327 
L 363.508292 172.45953 
L 364.433777 171.698608 
L 366.219377 170.352545 
L 367.021661 169.79841 
L 368.040689 169.083153 
L 369.826289 167.949534 
L 371.267491 167.13729 
L 371.611889 166.937066 
L 373.397489 165.991415 
L 375.218801 165.156953 
L 376.94541 164.47617 
L 377.004401 164.451708 
L 378.790001 163.798765 
L 380.575601 163.254395 
L 382.396913 162.802866 
L 384.182513 162.455897 
L 385.968113 162.19952 
L 387.753713 162.031222 
L 389.575025 161.949297 
L 391.360625 161.957538 
" clip-path="url(#p06a14d110c)" style="fill: none; stroke: #dbe9f6; stroke-width: 1.5"/>
    <path d="M 391.360625 47.243288 
L 389.575025 52.12417 
L 387.184644 59.80545 
L 385.538717 65.12769 
L 383.621246 70.44993 
L 381.226435 75.77217 
L 378.790001 80.196758 
L 376.583481 83.75553 
L 372.582732 89.52129 
L 368.040689 95.548033 
L 359.041265 106.915777 
L 340.928226 129.43809 
L 330.328817 142.944624 
L 328.188867 145.84833 
L 324.548313 151.17057 
L 322.913372 153.83169 
L 321.365105 156.629352 
L 319.579505 160.421763 
L 317.967942 164.47617 
L 317.078751 167.13729 
L 313.593904 178.22529 
L 311.512948 183.54753 
L 310.261737 186.20865 
L 308.794481 188.978317 
L 307.008881 192.031511 
L 303.845735 196.85313 
L 299.830769 202.357433 
L 292.652657 211.605637 
L 258.547697 253.989884 
L 232.793753 285.55713 
L 230.471272 288.21825 
L 230.471272 288.21825 
" clip-path="url(#p06a14d110c)" style="fill: none; stroke: #dbe9f6; stroke-width: 1.5"/>
   </g>
   <g id="PathCollection_3">
    <path d="M 34.240625 147.966093 
L 35.922006 145.84833 
L 36.026225 145.716942 
L 37.847537 143.432154 
L 38.044031 143.18721 
L 39.633137 141.199162 
L 40.176015 140.52609 
L 41.418737 138.975545 
L 42.316617 137.86497 
L 43.204337 136.75765 
L 44.460017 135.20385 
L 45.025649 134.494552 
L 46.811249 132.284999 
L 46.961717 132.09921 
L 48.596849 130.054505 
L 49.093661 129.43809 
L 50.382449 127.826181 
L 51.228018 126.77697 
L 52.203761 125.558428 
L 53.368714 124.11585 
L 53.989361 123.341826 
L 55.516646 121.45473 
L 55.774961 121.1331 
L 57.560561 118.925037 
L 57.667044 118.79361 
L 59.381873 116.661825 
L 59.811003 116.13249 
L 61.167473 114.443749 
L 61.954836 113.47137 
L 62.953073 112.226197 
L 64.097367 110.81025 
L 64.738673 110.008759 
L 66.238321 108.14913 
L 66.559985 107.746885 
L 68.345585 105.530488 
L 68.379816 105.48801 
L 70.131185 103.298953 
L 70.511992 102.82689 
L 71.916785 101.073304 
L 72.649807 100.16577 
L 73.738097 98.809297 
L 74.793478 97.50465 
L 75.523697 96.593734 
L 76.93852 94.84353 
L 77.309297 94.379704 
L 79.079476 92.18241 
L 79.094897 92.163007 
L 80.916209 89.871007 
L 81.195471 89.52129 
L 82.701809 87.596526 
L 83.636726 86.41665 
L 84.487409 85.317574 
L 85.700189 83.75553 
L 86.273009 83.000619 
L 87.720169 81.09441 
L 88.094321 80.587383 
L 89.679782 78.43329 
L 89.879921 78.150782 
L 91.554469 75.77217 
L 91.665521 75.60633 
L 93.31753 73.11105 
L 93.451121 72.895887 
L 94.943505 70.44993 
L 95.272433 69.866754 
L 96.418026 67.78881 
L 97.058033 66.515014 
L 97.736791 65.12769 
L 98.843633 62.624147 
L 98.911301 62.46657 
L 99.933414 59.80545 
L 100.629233 57.830783 
L 100.863654 57.14433 
L 101.712111 54.48321 
L 102.450545 52.132062 
L 102.545324 51.82209 
L 103.372623 49.16097 
L 104.236145 46.601571 
L 104.269889 46.49985 
L 105.410405 43.39521 
L 106.021745 41.943976 
L 106.529085 40.73409 
L 107.801566 38.07297 
L 107.807345 38.062079 
L 109.222951 35.41185 
L 109.628657 34.730395 
L 110.822954 32.75073 
L 111.414257 31.854864 
L 112.602805 30.08961 
L 113.199857 29.265912 
L 114.567241 27.42849 
L 114.985457 26.899344 
L 116.727654 24.76737 
L 116.806769 24.675355 
L 118.592369 22.652747 
L 119.095723 22.10625 
" clip-path="url(#p06a14d110c)" style="fill: none; stroke: #bad6eb; stroke-width: 1.5"/>
    <path d="M 129.543808 288.21825 
L 129.17537 285.55713 
L 129.341681 282.168679 
L 129.640557 280.23489 
L 130.382026 277.57377 
L 131.41918 274.91265 
L 132.948593 271.804211 
L 134.734193 268.7001 
L 136.519793 265.908292 
L 140.126705 260.780501 
L 145.519217 253.72945 
L 154.482929 242.50634 
L 176.017265 215.462762 
L 179.90607 210.15873 
L 183.428201 204.83649 
L 184.987973 202.17537 
L 186.766577 198.696929 
L 188.719266 194.19201 
L 190.574761 188.86977 
L 193.07593 180.88641 
L 195.19993 175.12065 
L 196.368742 172.45953 
L 197.686725 169.79841 
L 199.337201 166.815974 
L 202.474915 161.81505 
L 206.243249 156.49281 
L 210.27747 151.17057 
L 217.300337 142.28259 
L 259.747503 89.52129 
L 266.276226 81.09441 
L 270.105485 75.77217 
L 272.903921 71.433009 
L 274.981887 67.78881 
L 276.510833 64.659134 
L 278.49878 59.80545 
L 280.277919 54.48321 
L 282.819062 46.49985 
L 283.973167 43.39521 
L 285.474545 39.920426 
L 287.260145 36.376303 
L 287.781052 35.41185 
L 289.38529 32.75073 
L 291.165297 30.08961 
L 294.438257 25.786707 
L 296.259569 23.642814 
L 297.65607 22.10625 
L 297.65607 22.10625 
" clip-path="url(#p06a14d110c)" style="fill: none; stroke: #bad6eb; stroke-width: 1.5"/>
    <path d="M 206.931295 22.10625 
L 207.368124 24.76737 
L 207.417606 27.42849 
L 207.142063 30.08961 
L 206.515313 33.032947 
L 205.860283 35.41185 
L 204.018187 40.73409 
L 200.994557 49.16097 
L 198.550369 57.14433 
L 196.93313 62.46657 
L 195.041056 67.78881 
L 193.910857 70.44993 
L 192.159089 74.052744 
L 190.373489 77.270971 
L 187.999126 81.09441 
L 184.291971 86.41665 
L 179.588465 92.646743 
L 170.624753 103.94507 
L 141.181842 140.52609 
L 106.021745 184.529679 
L 102.450545 189.439557 
L 99.318263 194.19201 
L 97.058033 198.169499 
L 95.272433 201.809474 
L 95.10415 202.17537 
L 93.026778 207.49761 
L 90.465899 215.48097 
L 88.669122 220.80321 
L 87.447266 223.90785 
L 86.247371 226.56897 
L 84.487409 229.986485 
L 82.701809 233.036687 
L 80.916209 235.790688 
L 77.992846 239.87457 
L 75.523697 243.031842 
L 71.442507 247.85793 
L 68.345585 251.248458 
L 63.720014 255.84129 
L 60.738935 258.50241 
L 57.4204 261.16353 
L 53.989361 263.557301 
L 50.382449 265.650267 
L 46.811249 267.246702 
L 45.025649 267.876445 
L 43.204337 268.389464 
L 41.418737 268.765952 
L 39.633137 269.015486 
L 37.847537 269.134269 
L 36.026225 269.114549 
L 34.240625 268.948669 
L 34.240625 268.948669 
" clip-path="url(#p06a14d110c)" style="fill: none; stroke: #bad6eb; stroke-width: 1.5"/>
    <path d="M 308.100389 288.21825 
L 307.731251 285.55713 
L 307.779272 282.89601 
L 308.197707 280.23489 
L 308.794481 278.130973 
L 308.948112 277.57377 
L 309.974938 274.91265 
L 310.615793 273.58779 
L 311.254437 272.25153 
L 312.401393 270.203775 
L 312.74297 269.59041 
L 314.186993 267.270414 
L 314.399023 266.92929 
L 315.972593 264.590044 
L 316.492051 263.82465 
L 317.793905 262.005553 
L 318.399238 261.16353 
L 319.579505 259.575797 
L 320.382881 258.50241 
L 321.365105 257.217224 
L 322.425253 255.84129 
L 323.150705 254.91016 
L 324.509942 253.18017 
L 324.972017 252.594467 
L 326.623504 250.51905 
L 326.757617 250.349961 
L 328.543217 248.107634 
L 328.742999 247.85793 
L 330.328817 245.859916 
L 330.858865 245.19681 
L 332.150129 243.562866 
L 332.967222 242.53569 
L 333.935729 241.298464 
L 335.057374 239.87457 
L 335.721329 239.014326 
L 337.118443 237.21345 
L 337.506929 236.699351 
L 339.133992 234.55233 
L 339.328241 234.287198 
L 341.083744 231.89121 
L 341.113841 231.848211 
L 342.899441 229.286879 
L 342.938888 229.23009 
L 344.676843 226.56897 
L 344.685041 226.555438 
L 346.269689 223.90785 
L 346.506353 223.471428 
L 347.936602 220.80321 
L 348.291953 220.062409 
L 349.197306 218.14209 
L 350.077553 216.075904 
L 350.326891 215.48097 
L 351.338016 212.81985 
L 351.863153 211.344213 
L 352.279505 210.15873 
L 353.188262 207.49761 
L 353.684465 206.075975 
L 354.115828 204.83649 
L 355.106811 202.17537 
L 355.470065 201.290323 
L 356.208134 199.51425 
L 357.255665 197.295002 
L 357.469417 196.85313 
L 358.926113 194.19201 
L 359.041265 194.004003 
L 360.620186 191.53089 
L 360.862577 191.188509 
L 362.594071 188.86977 
L 362.648177 188.803018 
L 364.433777 186.713801 
L 364.89728 186.20865 
L 366.219377 184.849635 
L 367.598165 183.54753 
L 368.040689 183.146487 
L 369.826289 181.651213 
L 370.833609 180.88641 
L 371.611889 180.30885 
L 373.397489 179.112479 
L 374.896785 178.22529 
L 375.218801 178.03612 
L 377.004401 177.109714 
L 378.790001 176.320528 
L 380.575601 175.6632 
L 382.396913 175.125531 
L 382.418871 175.12065 
L 384.182513 174.725095 
L 385.968113 174.458682 
L 387.753713 174.328345 
L 389.575025 174.340065 
L 391.360625 174.500256 
" clip-path="url(#p06a14d110c)" style="fill: none; stroke: #bad6eb; stroke-width: 1.5"/>
    <path d="M 385.49099 22.10625 
L 385.921211 24.76737 
L 385.968113 27.437822 
L 385.697731 30.08961 
L 385.162455 32.75073 
L 384.182513 36.100059 
L 382.571368 40.73409 
L 380.46409 46.49985 
L 378.696796 51.82209 
L 374.594374 65.12769 
L 372.476495 70.44993 
L 371.210723 73.11105 
L 369.793679 75.77217 
L 368.040689 78.749519 
L 364.74289 83.75553 
L 360.534512 89.52129 
L 354.329995 97.50465 
L 342.899441 111.745758 
L 324.113125 135.20385 
L 318.072821 143.18721 
L 314.437195 148.50945 
L 312.401393 151.897925 
L 310.615793 155.269351 
L 310.018553 156.49281 
L 308.794481 159.283382 
L 306.895961 164.47617 
L 303.437681 175.329739 
L 301.616369 180.074858 
L 301.280792 180.88641 
L 299.830769 183.949772 
L 298.045169 187.273177 
L 296.259569 190.248336 
L 293.658222 194.19201 
L 289.805103 199.51425 
L 285.474545 205.148346 
L 275.091774 218.14209 
L 244.191473 256.52796 
L 224.478449 280.648577 
L 220.095702 285.55713 
L 217.536706 288.21825 
L 217.536706 288.21825 
" clip-path="url(#p06a14d110c)" style="fill: none; stroke: #bad6eb; stroke-width: 1.5"/>
   </g>
   <g id="PathCollection_4">
    <path d="M 34.240625 160.145282 
L 34.955687 159.15393 
L 36.026225 157.711236 
L 36.936723 156.49281 
L 37.847537 155.29738 
L 38.971076 153.83169 
L 39.633137 152.978901 
L 41.045023 151.17057 
L 41.418737 150.695842 
L 43.149125 148.50945 
L 43.204337 148.440016 
L 45.025649 146.155802 
L 45.271614 145.84833 
L 46.811249 143.927815 
L 47.40703 143.18721 
L 48.596849 141.707158 
L 49.54921 140.52609 
L 50.382449 139.489742 
L 51.692223 137.86497 
L 52.203761 137.227956 
L 53.833353 135.20385 
L 53.989361 135.008875 
L 55.774961 132.781962 
L 56.324152 132.09921 
L 57.560561 130.556663 
L 58.45952 129.43809 
L 59.381873 128.288958 
L 60.599307 126.77697 
L 61.167473 126.070442 
L 62.745048 124.11585 
L 62.953073 123.857631 
L 64.738673 121.64675 
L 64.893884 121.45473 
L 66.559985 119.38941 
L 67.041723 118.79361 
L 68.345585 117.17518 
L 69.187544 116.13249 
L 70.131185 114.958626 
L 71.329568 113.47137 
L 71.916785 112.739326 
L 73.468094 110.81025 
L 73.738097 110.47334 
L 75.523697 108.250498 
L 75.605131 108.14913 
L 77.309297 106.024604 
L 77.740868 105.48801 
L 79.094897 103.802556 
L 79.880976 102.82689 
L 80.916209 101.540091 
L 82.025044 100.16577 
L 82.701809 99.324162 
L 84.168956 97.50465 
L 84.487409 97.107493 
L 86.273009 94.885001 
L 86.30628 94.84353 
L 88.094321 92.598506 
L 88.425788 92.18241 
L 89.879921 90.338535 
L 90.5242 89.52129 
L 91.665521 88.051203 
L 92.935919 86.41665 
L 93.451121 85.740425 
L 94.959266 83.75553 
L 95.272433 83.3334 
L 96.92558 81.09441 
L 97.058033 80.908924 
L 98.812963 78.43329 
L 98.843633 78.387995 
L 100.596204 75.77217 
L 100.629233 75.719773 
L 102.250497 73.11105 
L 102.450545 72.763202 
L 103.758331 70.44993 
L 104.236145 69.521649 
L 105.111573 67.78881 
L 106.021745 65.785219 
L 106.314859 65.12769 
L 107.376946 62.46657 
L 107.807345 61.272149 
L 108.326753 59.80545 
L 109.196267 57.14433 
L 109.628657 55.762379 
L 110.024286 54.48321 
L 110.849721 51.82209 
L 111.414257 50.093996 
L 111.718145 49.16097 
L 112.663945 46.49985 
L 113.199857 45.164771 
L 113.916978 43.39521 
L 114.985457 41.091533 
L 115.153203 40.73409 
L 116.557768 38.07297 
L 116.806769 37.649839 
L 118.148681 35.41185 
L 118.592369 34.740189 
L 119.937721 32.75073 
L 120.377969 32.151494 
L 121.936551 30.08961 
L 122.163569 29.809953 
L 123.984881 27.636075 
L 124.164547 27.42849 
L 125.770481 25.688585 
L 126.660414 24.76737 
L 127.556081 23.893165 
L 129.341681 22.242833 
L 129.496028 22.10625 
" clip-path="url(#p06a14d110c)" style="fill: none; stroke: #89bedc; stroke-width: 1.5"/>
    <path d="M 139.972533 288.21825 
L 139.165007 285.55713 
L 138.927405 282.89601 
L 139.164038 280.23489 
L 139.800314 277.57377 
L 140.771003 274.91265 
L 142.021166 272.25153 
L 143.697905 269.264669 
L 145.519217 266.382679 
L 149.177438 261.16353 
L 154.482929 254.245881 
L 165.232241 240.773455 
L 181.409777 220.517157 
L 185.230821 215.48097 
L 188.996745 210.15873 
L 192.159089 205.08404 
L 192.30451 204.83649 
L 193.944689 201.745677 
L 195.766001 197.744771 
L 197.141395 194.19201 
L 198.886135 188.86977 
L 201.434896 180.88641 
L 202.944113 176.97222 
L 204.729713 173.022898 
L 205.001836 172.45953 
L 206.515313 169.651371 
L 208.300913 166.669596 
L 211.537959 161.81505 
L 215.479025 156.444171 
L 221.658237 148.50945 
L 235.227761 131.645775 
L 269.332721 89.202346 
L 274.725233 82.123925 
L 277.369378 78.43329 
L 280.082033 74.287621 
L 281.903345 71.190803 
L 282.318796 70.44993 
L 283.688945 67.759193 
L 285.474545 63.635455 
L 286.887012 59.80545 
L 289.410874 51.82209 
L 291.224786 46.49985 
L 292.652657 43.015822 
L 294.438257 39.347068 
L 296.259569 36.152147 
L 298.045169 33.412049 
L 299.830769 30.958397 
L 301.616369 28.727599 
L 303.437681 26.643105 
L 305.223281 24.764091 
L 308.057038 22.10625 
L 308.057038 22.10625 
" clip-path="url(#p06a14d110c)" style="fill: none; stroke: #89bedc; stroke-width: 1.5"/>
    <path d="M 196.594243 22.10625 
L 197.551601 25.128823 
L 197.872956 27.42849 
L 197.831979 30.08961 
L 197.469535 32.75073 
L 196.874947 35.41185 
L 195.282163 40.73409 
L 192.159089 50.571568 
L 188.579188 62.46657 
L 186.766577 67.230688 
L 186.538147 67.78881 
L 184.980977 71.100736 
L 183.195377 74.413666 
L 181.409777 77.374112 
L 178.947771 81.09441 
L 175.08832 86.41665 
L 170.624753 92.21029 
L 161.661041 103.42488 
L 108.235527 169.79841 
L 100.629233 179.438139 
L 97.058033 184.175527 
L 93.451121 189.306148 
L 91.665521 192.094162 
L 89.879921 195.162119 
L 88.094321 198.639651 
L 87.673963 199.51425 
L 86.273009 202.832414 
L 84.487409 207.792894 
L 80.916209 218.612405 
L 79.094897 223.033288 
L 78.704279 223.90785 
L 77.309297 226.658079 
L 75.523697 229.732734 
L 73.738097 232.466949 
L 71.916785 235.001425 
L 68.345585 239.445183 
L 65.574323 242.53569 
L 62.953073 245.22966 
L 59.381873 248.52882 
L 55.774961 251.416883 
L 52.203761 253.803817 
L 50.382449 254.825671 
L 48.236805 255.84129 
L 46.811249 256.420827 
L 45.025649 256.996893 
L 43.204337 257.423021 
L 41.418737 257.670964 
L 39.633137 257.735729 
L 37.847537 257.598399 
L 36.026225 257.225846 
L 34.240625 256.603652 
L 34.240625 256.603652 
" clip-path="url(#p06a14d110c)" style="fill: none; stroke: #89bedc; stroke-width: 1.5"/>
    <path d="M 318.534515 288.21825 
L 317.793905 285.799795 
L 317.724072 285.55713 
L 317.487203 282.89601 
L 317.724859 280.23489 
L 317.793905 279.951265 
L 318.360434 277.57377 
L 319.332022 274.91265 
L 319.579505 274.388934 
L 320.579843 272.25153 
L 321.365105 270.838484 
L 322.054822 269.59041 
L 323.150705 267.830299 
L 323.710231 266.92929 
L 324.972017 265.068982 
L 325.817674 263.82465 
L 326.757617 262.522106 
L 327.740002 261.16353 
L 328.543217 260.093814 
L 329.74206 258.50241 
L 330.328817 257.74236 
L 331.802108 255.84129 
L 332.150129 255.39865 
L 333.901656 253.18017 
L 333.935729 253.137263 
L 335.721329 250.893241 
L 336.020096 250.51905 
L 337.506929 248.656697 
L 338.147054 247.85793 
L 339.328241 246.376677 
L 340.272923 245.19681 
L 341.113841 244.136393 
L 342.388957 242.53569 
L 342.899441 241.885619 
L 344.486104 239.87457 
L 344.685041 239.617207 
L 346.506353 237.270696 
L 346.550958 237.21345 
L 348.291953 234.910932 
L 348.564371 234.55233 
L 350.077553 232.474224 
L 350.503741 231.89121 
L 351.863153 229.921536 
L 352.341906 229.23009 
L 353.684465 227.141385 
L 354.053562 226.56897 
L 355.470065 224.162431 
L 355.620576 223.90785 
L 357.255665 220.809178 
L 357.258836 220.80321 
L 358.51334 218.14209 
L 359.041265 216.898469 
L 359.651148 215.48097 
L 360.704364 212.81985 
L 360.862577 212.400243 
L 361.728836 210.15873 
L 362.648177 207.783716 
L 362.763078 207.49761 
L 363.88194 204.83649 
L 364.433777 203.633798 
L 365.139661 202.17537 
L 366.219377 200.179797 
L 366.60502 199.51425 
L 368.040689 197.311489 
L 368.365516 196.85313 
L 369.826289 195.006879 
L 370.537727 194.19201 
L 371.611889 193.073767 
L 373.273194 191.53089 
L 373.397489 191.424059 
L 375.218801 190.043168 
L 377.004401 188.882827 
L 377.028505 188.86977 
L 378.790001 187.965195 
L 380.575601 187.233743 
L 382.396913 186.683058 
L 384.182513 186.343257 
L 385.968113 186.21447 
L 387.753713 186.314319 
L 389.575025 186.675469 
L 391.360625 187.313101 
" clip-path="url(#p06a14d110c)" style="fill: none; stroke: #89bedc; stroke-width: 1.5"/>
    <path d="M 375.156187 22.10625 
L 376.057935 24.76737 
L 376.432656 27.42849 
L 376.392078 30.08961 
L 376.031231 32.75073 
L 375.218801 36.158572 
L 373.842266 40.73409 
L 371.14216 49.16097 
L 367.14241 62.46657 
L 365.099413 67.78881 
L 363.874572 70.44993 
L 362.496188 73.11105 
L 360.862577 75.941019 
L 357.505555 81.09441 
L 353.644234 86.41665 
L 347.106111 94.84353 
L 333.935729 111.237291 
L 314.810512 135.20385 
L 310.615793 140.814027 
L 307.008881 146.074715 
L 305.223281 148.985893 
L 303.437681 152.243603 
L 301.616369 156.081159 
L 301.433211 156.49281 
L 299.424177 161.81505 
L 294.438257 176.839754 
L 293.886868 178.22529 
L 292.652657 180.947774 
L 290.867057 184.383395 
L 289.081457 187.432004 
L 286.416626 191.53089 
L 282.588176 196.85313 
L 278.296433 202.453216 
L 269.332721 213.680546 
L 217.524733 277.57377 
L 213.693425 281.801717 
L 209.961177 285.55713 
L 206.99695 288.21825 
L 206.99695 288.21825 
" clip-path="url(#p06a14d110c)" style="fill: none; stroke: #89bedc; stroke-width: 1.5"/>
    <path d="M 391.360625 282.08722 
L 390.67051 282.89601 
L 389.575025 284.096835 
L 388.182399 285.55713 
L 387.753713 285.980074 
L 385.968113 287.664301 
L 385.350295 288.21825 
" clip-path="url(#p06a14d110c)" style="fill: none; stroke: #89bedc; stroke-width: 1.5"/>
   </g>
   <g id="PathCollection_5">
    <path d="M 34.240625 173.461259 
L 34.742211 172.45953 
L 36.026225 170.165205 
L 36.234996 169.79841 
L 37.847537 167.198716 
L 37.886162 167.13729 
L 39.633137 164.53267 
L 39.671412 164.47617 
L 41.418737 162.015403 
L 41.561956 161.81505 
L 43.204337 159.593988 
L 43.531118 159.15393 
L 45.025649 157.189695 
L 45.557104 156.49281 
L 46.811249 154.878242 
L 47.62489 153.83169 
L 48.596849 152.599063 
L 49.723304 151.17057 
L 50.382449 150.343678 
L 51.843901 148.50945 
L 52.203761 148.061177 
L 53.978231 145.84833 
L 53.989361 145.834517 
L 55.774961 143.620516 
L 56.123377 143.18721 
L 57.560561 141.405501 
L 58.267665 140.52609 
L 59.381873 139.142342 
L 60.40716 137.86497 
L 61.167473 136.919133 
L 62.542237 135.20385 
L 62.953073 134.692938 
L 64.738673 132.467606 
L 65.033275 132.09921 
L 66.559985 130.201864 
L 67.172967 129.43809 
L 68.345585 127.984324 
L 69.317074 126.77697 
L 70.131185 125.769714 
L 71.464738 124.11585 
L 71.916785 123.556967 
L 73.613153 121.45473 
L 73.738097 121.300091 
L 75.523697 119.088842 
L 75.761409 118.79361 
L 77.309297 116.874033 
L 77.905001 116.13249 
L 79.094897 114.653307 
L 80.042624 113.47137 
L 80.916209 112.38388 
L 82.176922 110.81025 
L 82.701809 110.157161 
L 84.312042 108.14913 
L 84.487409 107.931272 
L 86.273009 105.712059 
L 86.453008 105.48801 
L 88.094321 103.453738 
L 88.598592 102.82689 
L 89.879921 101.238765 
L 90.74273 100.16577 
L 91.665521 99.018705 
L 92.87898 97.50465 
L 93.451121 96.789127 
L 95.000562 94.84353 
L 95.272433 94.50032 
L 97.058033 92.236963 
L 97.10093 92.18241 
L 98.843633 89.949493 
L 99.175765 89.52129 
L 100.629233 87.625971 
L 101.547239 86.41665 
L 102.450545 85.204153 
L 103.521497 83.75553 
L 104.236145 82.761008 
L 105.422672 81.09441 
L 106.021745 80.217408 
L 107.227214 78.43329 
L 107.807345 77.523888 
L 108.911251 75.77217 
L 109.628657 74.543575 
L 110.454468 73.11105 
L 111.414257 71.281629 
L 111.845272 70.44993 
L 113.083052 67.78881 
L 113.199857 67.508607 
L 114.183399 65.12769 
L 114.985457 62.945074 
L 115.160545 62.46657 
L 116.050369 59.80545 
L 116.806769 57.384256 
L 116.882005 57.14433 
L 117.703606 54.48321 
L 118.547604 51.82209 
L 118.592369 51.690769 
L 119.466519 49.16097 
L 120.377969 46.784148 
L 120.489044 46.49985 
L 121.869691 43.39521 
L 122.163569 42.816171 
L 123.245142 40.73409 
L 123.984881 39.466378 
L 124.819453 38.07297 
L 125.770481 36.643456 
L 126.613687 35.41185 
L 127.556081 34.158793 
L 128.649736 32.75073 
L 129.341681 31.932396 
L 130.959775 30.08961 
L 131.162993 29.875744 
L 132.948593 28.072631 
L 133.616825 27.42849 
L 134.734193 26.432413 
L 136.519793 24.930348 
L 136.724573 24.76737 
L 138.341105 23.578786 
L 140.126705 22.362222 
L 140.529908 22.10625 
" clip-path="url(#p06a14d110c)" style="fill: none; stroke: #539ecd; stroke-width: 1.5"/>
    <path d="M 151.251864 288.21825 
L 150.876017 287.718434 
L 149.462743 285.55713 
L 148.626962 282.89601 
L 148.484375 280.23489 
L 148.873068 277.57377 
L 149.690009 274.91265 
L 150.876017 272.177079 
L 152.697329 268.864642 
L 154.482929 266.030811 
L 157.883685 261.16353 
L 163.446641 253.937543 
L 172.528659 242.53569 
L 188.587889 222.40595 
L 192.159089 217.681242 
L 195.766001 212.594844 
L 198.979292 207.49761 
L 201.122801 203.476398 
L 201.76124 202.17537 
L 202.944113 199.463117 
L 204.884413 194.19201 
L 209.182184 180.88641 
L 210.240558 178.22529 
L 211.907825 174.629067 
L 213.693425 171.312444 
L 215.479025 168.352358 
L 218.051956 164.47617 
L 221.928169 159.15393 
L 228.142019 151.17057 
L 246.012785 129.048854 
L 274.725233 93.373927 
L 280.104205 86.41665 
L 283.981956 81.09441 
L 287.46997 75.77217 
L 289.081457 72.980241 
L 290.867057 69.465272 
L 291.645103 67.78881 
L 293.72186 62.46657 
L 295.444289 57.14433 
L 297.110377 51.82209 
L 299.051335 46.49985 
L 300.431199 43.39521 
L 301.803018 40.73409 
L 303.437681 37.978714 
L 305.223281 35.339441 
L 307.207121 32.75073 
L 309.523582 30.08961 
L 312.401393 27.219968 
L 315.972593 24.249592 
L 319.090787 22.10625 
L 319.090787 22.10625 
" clip-path="url(#p06a14d110c)" style="fill: none; stroke: #539ecd; stroke-width: 1.5"/>
    <path d="M 185.485954 22.10625 
L 187.392878 24.76737 
L 188.4119 27.42849 
L 188.807141 30.08961 
L 188.762013 32.75073 
L 188.40748 35.41185 
L 187.847806 38.07297 
L 186.43797 43.39521 
L 181.744998 59.80545 
L 180.827007 62.46657 
L 179.588465 65.598531 
L 177.802865 69.424299 
L 176.017265 72.718436 
L 174.231665 75.648228 
L 172.381765 78.43329 
L 168.536797 83.75553 
L 163.446641 90.343553 
L 154.482929 101.516291 
L 97.058033 172.913063 
L 90.912778 180.88641 
L 87.088367 186.20865 
L 84.487409 190.211162 
L 82.701809 193.252805 
L 82.17444 194.19201 
L 80.823651 196.85313 
L 79.094897 200.790478 
L 77.558988 204.83649 
L 73.738097 216.076472 
L 71.916785 220.442526 
L 71.752559 220.80321 
L 70.131185 223.953104 
L 68.345585 226.892151 
L 66.559985 229.461717 
L 64.656714 231.89121 
L 61.167473 235.715142 
L 59.381873 237.440553 
L 55.774961 240.436488 
L 52.627035 242.53569 
L 52.203761 242.794219 
L 50.382449 243.73056 
L 48.596849 244.478184 
L 45.961009 245.19681 
L 45.025649 245.370121 
L 43.204337 245.457341 
L 41.156547 245.19681 
L 39.633137 244.728533 
L 37.847537 243.778331 
L 36.026225 242.288376 
L 34.240625 240.048142 
L 34.240625 240.048142 
" clip-path="url(#p06a14d110c)" style="fill: none; stroke: #539ecd; stroke-width: 1.5"/>
    <path d="M 329.813992 288.21825 
L 328.543217 286.402692 
L 328.024666 285.55713 
L 327.1877 282.89601 
L 327.043252 280.23489 
L 327.437502 277.57377 
L 328.25011 274.91265 
L 328.543217 274.240836 
L 329.403336 272.25153 
L 330.328817 270.515936 
L 330.819374 269.59041 
L 332.150129 267.411242 
L 332.443297 266.92929 
L 333.935729 264.725241 
L 334.542061 263.82465 
L 335.721329 262.197945 
L 336.470498 261.16353 
L 337.506929 259.795761 
L 338.48701 258.50241 
L 339.328241 257.42496 
L 340.565516 255.84129 
L 341.113841 255.152378 
L 342.685405 253.18017 
L 342.899441 252.914173 
L 344.685041 250.702226 
L 344.833521 250.51905 
L 346.506353 248.462926 
L 347.000511 247.85793 
L 348.291953 246.274477 
L 349.17583 245.19681 
L 350.077553 244.08976 
L 351.353092 242.53569 
L 351.863153 241.905749 
L 353.524145 239.87457 
L 353.684465 239.673958 
L 355.470065 237.470331 
L 355.681608 237.21345 
L 357.255665 235.231154 
L 357.803925 234.55233 
L 359.041265 232.93776 
L 359.860012 231.89121 
L 360.862577 230.51495 
L 361.822296 229.23009 
L 362.648177 228.020705 
L 363.670645 226.56897 
L 364.433777 225.363588 
L 365.392969 223.90785 
L 366.219377 222.48648 
L 367.246139 220.80321 
L 368.040689 219.32483 
L 368.722591 218.14209 
L 369.826289 216.019111 
L 370.132524 215.48097 
L 371.545282 212.81985 
L 371.611889 212.691577 
L 373.09119 210.15873 
L 373.397489 209.646415 
L 374.891373 207.49761 
L 375.218801 207.056906 
L 377.004401 205.076887 
L 377.285188 204.83649 
L 378.790001 203.664276 
L 380.575601 202.693159 
L 382.379883 202.17537 
L 382.396913 202.170952 
L 384.182513 202.169661 
L 384.204002 202.17537 
L 385.968113 202.740479 
L 387.753713 203.96965 
L 388.5543 204.83649 
L 389.575025 206.207178 
L 390.279131 207.49761 
L 391.360625 209.975792 
" clip-path="url(#p06a14d110c)" style="fill: none; stroke: #539ecd; stroke-width: 1.5"/>
    <path d="M 364.047349 22.10625 
L 364.433777 22.587222 
L 365.956827 24.76737 
L 366.967201 27.42849 
L 367.363523 30.08961 
L 367.318492 32.75073 
L 366.964981 35.41185 
L 366.219377 38.814026 
L 364.997497 43.39521 
L 360.303712 59.80545 
L 359.041265 63.367017 
L 358.351913 65.12769 
L 357.178055 67.78881 
L 355.470065 71.126334 
L 353.684465 74.204082 
L 350.938515 78.43329 
L 347.095801 83.75553 
L 341.113841 91.471405 
L 331.988393 102.82689 
L 310.615793 129.475003 
L 305.223281 136.512869 
L 301.616369 141.561033 
L 298.835023 145.84833 
L 296.259569 150.481014 
L 295.902719 151.17057 
L 294.438257 154.378671 
L 292.652657 158.992159 
L 291.7068 161.81505 
L 288.329544 172.45953 
L 287.260145 175.292626 
L 285.474545 179.311494 
L 283.688945 182.738309 
L 281.903345 185.7659 
L 279.890171 188.86977 
L 276.094081 194.19201 
L 271.118321 200.677205 
L 263.523226 210.15873 
L 233.442161 247.40809 
L 217.300337 267.347041 
L 211.907825 273.723798 
L 208.300913 277.705311 
L 204.729713 281.27155 
L 202.944113 282.915073 
L 199.337201 285.835251 
L 195.821677 288.21825 
L 195.821677 288.21825 
" clip-path="url(#p06a14d110c)" style="fill: none; stroke: #539ecd; stroke-width: 1.5"/>
    <path d="M 391.360625 269.55747 
L 391.344488 269.59041 
L 389.836305 272.25153 
L 389.575025 272.658675 
L 388.08835 274.91265 
L 387.753713 275.368912 
L 386.086286 277.57377 
L 385.968113 277.716205 
L 384.182513 279.796587 
L 383.792268 280.23489 
L 382.396913 281.671498 
L 381.152054 282.89601 
L 380.575601 283.418297 
L 378.790001 284.952918 
L 378.046387 285.55713 
L 377.004401 286.337043 
L 375.218801 287.584088 
L 374.242268 288.21825 
" clip-path="url(#p06a14d110c)" style="fill: none; stroke: #539ecd; stroke-width: 1.5"/>
   </g>
   <g id="PathCollection_6">
    <path d="M 37.74609 212.81985 
L 37.497689 210.15873 
L 37.315325 207.49761 
L 37.190375 204.83649 
L 37.120037 202.17537 
L 37.106985 199.51425 
L 37.158873 196.85313 
L 37.287679 194.19201 
L 37.50883 191.53089 
L 37.84002 188.86977 
L 37.847537 188.826862 
L 38.329683 186.20865 
L 38.968658 183.54753 
L 39.633137 181.3425 
L 39.776505 180.88641 
L 40.795287 178.22529 
L 41.418737 176.853981 
L 42.227037 175.12065 
L 43.204337 173.29036 
L 43.658918 172.45953 
L 45.025649 170.185747 
L 45.26262 169.79841 
L 46.811249 167.444938 
L 47.015829 167.13729 
L 48.596849 164.88655 
L 48.886517 164.47617 
L 50.382449 162.442297 
L 50.844237 161.81505 
L 52.203761 160.024085 
L 52.862788 159.15393 
L 53.989361 157.703878 
L 54.925575 156.49281 
L 55.774961 155.417377 
L 57.019308 153.83169 
L 57.560561 153.154499 
L 59.135213 151.17057 
L 59.381873 150.864244 
L 61.167473 148.635678 
L 61.268325 148.50945 
L 62.953073 146.429284 
L 63.418569 145.84833 
L 64.738673 144.218601 
L 65.565486 143.18721 
L 66.559985 141.956535 
L 67.704133 140.52609 
L 68.345585 139.730967 
L 69.835581 137.86497 
L 70.131185 137.498156 
L 71.916785 135.26417 
L 71.964918 135.20385 
L 73.738097 133.018587 
L 74.468698 132.09921 
L 75.523697 130.795897 
L 76.611904 129.43809 
L 77.309297 128.578559 
L 78.756663 126.77697 
L 79.094897 126.360499 
L 80.900753 124.11585 
L 80.916209 124.096792 
L 82.701809 121.896414 
L 83.056225 121.45473 
L 84.487409 119.687134 
L 85.202691 118.79361 
L 86.273009 117.467979 
L 87.34026 116.13249 
L 88.094321 115.196573 
L 89.470982 113.47137 
L 89.879921 112.96417 
L 91.600143 110.81025 
L 91.665521 110.729297 
L 93.451121 108.516655 
L 93.745258 108.14913 
L 95.272433 106.262701 
L 95.893202 105.48801 
L 97.058033 104.049997 
L 98.038015 102.82689 
L 98.843633 101.82944 
L 100.172462 100.16577 
L 100.629233 99.596632 
L 102.290203 97.50465 
L 102.450545 97.302809 
L 104.236145 95.041092 
L 104.390885 94.84353 
L 106.021745 92.759218 
L 106.467335 92.18241 
L 107.807345 90.438371 
L 108.503449 89.52129 
L 109.628657 88.024395 
L 110.809853 86.41665 
L 111.414257 85.577834 
L 112.710453 83.75553 
L 113.199857 83.041708 
L 114.517693 81.09441 
L 114.985457 80.364737 
L 116.208882 78.43329 
L 116.806769 77.415152 
L 117.761661 75.77217 
L 118.592369 74.199255 
L 119.162712 73.11105 
L 120.377969 70.508214 
L 120.405106 70.44993 
L 121.523855 67.78881 
L 122.163569 66.054817 
L 122.508381 65.12769 
L 123.402997 62.46657 
L 123.984881 60.58208 
L 124.229409 59.80545 
L 125.042362 57.14433 
L 125.770481 54.770195 
L 125.861063 54.48321 
L 126.759064 51.82209 
L 127.556081 49.663123 
L 127.74795 49.16097 
L 128.894266 46.49985 
L 129.341681 45.594734 
L 130.466163 43.39521 
L 131.162993 42.202306 
L 132.052996 40.73409 
L 132.948593 39.417605 
L 133.898357 38.07297 
L 134.734193 37.010615 
L 136.042838 35.41185 
L 136.519793 34.885683 
L 138.341105 32.966587 
L 138.556819 32.75073 
L 140.126705 31.333797 
L 141.58227 30.08961 
L 141.912305 29.834949 
L 143.697905 28.553995 
L 145.386567 27.42849 
L 145.519217 27.348993 
L 147.304817 26.378346 
L 149.090417 25.502096 
L 150.768757 24.76737 
L 150.876017 24.725378 
L 152.697329 24.111093 
L 154.482929 23.603108 
L 156.268529 23.188828 
L 158.054129 22.869596 
L 159.875441 22.64442 
L 161.661041 22.525902 
L 163.446641 22.513863 
L 165.232241 22.615323 
L 167.053553 22.845266 
L 168.839153 23.206673 
L 170.624753 23.717765 
L 172.410353 24.397327 
L 173.18666 24.76737 
L 174.231665 25.442682 
L 176.017265 26.90049 
L 176.550499 27.42849 
L 177.802865 29.41145 
L 178.160176 30.08961 
L 178.858003 32.75073 
L 179.014776 35.41185 
L 178.824342 38.07297 
L 178.424503 40.73409 
L 177.907741 43.39521 
L 177.802865 43.859243 
L 177.203398 46.49985 
L 176.565657 49.16097 
L 176.017265 51.365368 
L 175.901113 51.82209 
L 175.179222 54.48321 
L 174.408517 57.14433 
L 174.231665 57.69482 
L 173.532428 59.80545 
L 172.551235 62.46657 
L 172.410353 62.804007 
L 171.409633 65.12769 
L 170.624753 66.759349 
L 170.11465 67.78881 
L 168.839153 70.120509 
L 168.654077 70.44993 
L 167.053553 73.073156 
L 167.0299 73.11105 
L 165.258023 75.77217 
L 165.232241 75.80896 
L 163.446641 78.322124 
L 163.366694 78.43329 
L 161.661041 80.72321 
L 161.382678 81.09441 
L 159.875441 83.054041 
L 159.334112 83.75553 
L 158.054129 85.384429 
L 157.242893 86.41665 
L 156.268529 87.63178 
L 154.771021 89.52129 
L 154.482929 89.878467 
L 152.697329 92.098731 
L 152.629875 92.18241 
L 150.876017 94.336664 
L 150.466342 94.84353 
L 149.090417 96.530374 
L 148.302818 97.50465 
L 147.304817 98.730046 
L 146.146774 100.16577 
L 145.519217 100.938868 
L 144.000927 102.82689 
L 143.697905 103.201683 
L 141.912305 105.427482 
L 141.863851 105.48801 
L 140.126705 107.638404 
L 139.718547 108.14913 
L 138.341105 109.854326 
L 137.576354 110.81025 
L 136.519793 112.11661 
L 135.43429 113.47137 
L 134.734193 114.334587 
L 133.290177 116.13249 
L 132.948593 116.553082 
L 131.162993 118.772185 
L 131.145765 118.79361 
L 129.341681 121.015394 
L 128.98887 121.45473 
L 127.556081 123.222482 
L 126.840197 124.11585 
L 125.770481 125.439521 
L 124.701346 126.77697 
L 123.984881 127.665389 
L 122.569097 129.43809 
L 122.163569 129.941341 
L 120.440402 132.09921 
L 120.377969 132.176165 
L 118.592369 134.376469 
L 117.93404 135.20385 
L 116.806769 136.594389 
L 115.786613 137.86497 
L 114.985457 138.852006 
L 113.639728 140.52609 
L 113.199857 141.067769 
L 111.496258 143.18721 
L 111.414257 143.288379 
L 109.628657 145.495761 
L 109.345954 145.84833 
L 107.807345 147.752324 
L 107.202113 148.50945 
L 106.021745 149.972734 
L 105.065801 151.17057 
L 104.236145 152.199775 
L 102.933743 153.83169 
L 102.450545 154.430444 
L 100.801056 156.49281 
L 100.629233 156.705395 
L 98.843633 158.922205 
L 98.65807 159.15393 
L 97.058033 161.127848 
L 96.507088 161.81505 
L 95.272433 163.339995 
L 94.362219 164.47617 
L 93.451121 165.606931 
L 92.231129 167.13729 
L 91.665521 167.844199 
L 90.119046 169.79841 
L 89.879921 170.100404 
L 88.094321 172.375018 
L 88.028234 172.45953 
L 86.273009 174.710895 
L 85.95693 175.12065 
L 84.487409 177.031298 
L 83.58815 178.22529 
L 82.701809 179.415654 
L 81.616537 180.88641 
L 80.916209 181.861124 
L 79.713114 183.54753 
L 79.094897 184.451836 
L 77.899773 186.20865 
L 77.309297 187.129719 
L 76.19593 188.86977 
L 75.523697 190.006721 
L 74.6194 191.53089 
L 73.738097 193.169684 
L 73.181817 194.19201 
L 71.916785 196.802068 
L 71.891488 196.85313 
L 70.700426 199.51425 
L 70.131185 200.947987 
L 69.625254 202.17537 
L 68.627563 204.83649 
L 68.345585 205.633528 
L 67.649033 207.49761 
L 66.679314 210.15873 
L 66.559985 210.475028 
L 65.610413 212.81985 
L 64.738673 214.844867 
L 64.440677 215.48097 
L 63.073257 218.14209 
L 62.953073 218.352043 
L 61.416329 220.80321 
L 61.167473 221.157802 
L 59.381873 223.457573 
L 58.98694 223.90785 
L 57.560561 225.382892 
L 56.244463 226.56897 
L 55.774961 226.962501 
L 53.989361 228.203462 
L 52.203761 229.197508 
L 52.115926 229.23009 
L 50.382449 229.840363 
L 48.596849 230.144833 
L 46.811249 230.064038 
L 45.025649 229.514209 
L 44.551056 229.23009 
L 43.204337 228.243012 
L 41.764559 226.56897 
L 41.418737 226.062745 
L 40.32307 223.90785 
L 39.633137 222.121974 
L 39.222897 220.80321 
L 38.586016 218.14209 
L 38.101534 215.48097 
L 37.847537 213.652949 
L 37.74609 212.81985 
z
" clip-path="url(#p06a14d110c)" style="fill: none; stroke: #2b7bba; stroke-width: 1.5"/>
    <path d="M 159.669415 280.23489 
L 159.382895 277.57377 
L 159.767618 274.91265 
L 159.875441 274.594988 
L 160.664355 272.25153 
L 161.661041 270.12242 
L 161.908101 269.59041 
L 163.425702 266.92929 
L 163.446641 266.897668 
L 165.232241 264.177972 
L 165.460112 263.82465 
L 167.053553 261.589308 
L 167.354647 261.16353 
L 168.839153 259.185384 
L 169.34696 258.50241 
L 170.624753 256.852067 
L 171.399667 255.84129 
L 172.410353 254.558803 
L 173.486392 253.18017 
L 174.231665 252.24264 
L 175.588722 250.51905 
L 176.017265 249.982826 
L 177.699065 247.85793 
L 177.802865 247.728486 
L 179.588465 245.496514 
L 179.826538 245.19681 
L 181.409777 243.230045 
L 181.963253 242.53569 
L 183.195377 241.01093 
L 184.104295 239.87457 
L 184.980977 238.791646 
L 186.245491 237.21345 
L 186.766577 236.569232 
L 188.381678 234.55233 
L 188.587889 234.296179 
L 190.373489 232.064203 
L 190.511025 231.89121 
L 192.159089 229.826509 
L 192.629214 229.23009 
L 193.944689 227.562198 
L 194.718786 226.56897 
L 195.766001 225.219509 
L 196.771897 223.90785 
L 197.551601 222.886136 
L 199.105587 220.80321 
L 199.337201 220.488475 
L 201.042441 218.14209 
L 201.122801 218.028258 
L 202.898953 215.48097 
L 202.944113 215.413178 
L 204.650367 212.81985 
L 204.729713 212.69137 
L 206.275042 210.15873 
L 206.515313 209.730331 
L 207.755055 207.49761 
L 208.300913 206.405317 
L 209.080248 204.83649 
L 210.122225 202.459052 
L 210.246458 202.17537 
L 211.292639 199.51425 
L 211.907825 197.738999 
L 212.217547 196.85313 
L 213.067545 194.19201 
L 213.693425 192.089712 
L 213.862992 191.53089 
L 214.66382 188.86977 
L 215.479025 186.218105 
L 215.482011 186.20865 
L 216.394081 183.54753 
L 217.300337 181.135711 
L 217.396741 180.88641 
L 218.551825 178.22529 
L 219.085937 177.13395 
L 220.09214 175.12065 
L 220.871537 173.719085 
L 221.586426 172.45953 
L 222.657137 170.719218 
L 223.233092 169.79841 
L 224.478449 167.929965 
L 225.013103 167.13729 
L 226.264049 165.371557 
L 226.903039 164.47617 
L 228.049649 162.927774 
L 228.876947 161.81505 
L 229.835249 160.561733 
L 230.913962 159.15393 
L 231.656561 158.205098 
L 232.997515 156.49281 
L 233.442161 155.934943 
L 235.117331 153.83169 
L 235.227761 153.694988 
L 237.013361 151.493089 
L 237.275129 151.17057 
L 238.834673 149.268427 
L 239.455537 148.50945 
L 240.620273 147.096031 
L 241.644852 145.84833 
L 242.405873 144.925417 
L 243.833162 143.18721 
L 244.191473 142.751706 
L 246.012785 140.528661 
L 246.0149 140.52609 
L 247.798385 138.361201 
L 248.204823 137.86497 
L 249.583985 136.185049 
L 250.384593 135.20385 
L 251.369585 134.006674 
L 252.915241 132.09921 
L 253.190897 131.762167 
L 254.976497 129.571392 
L 255.085089 129.43809 
L 256.762097 127.394241 
L 257.264072 126.77697 
L 258.547697 125.209399 
L 259.435112 124.11585 
L 260.369009 122.970919 
L 261.594074 121.45473 
L 262.154609 120.764892 
L 263.740432 118.79361 
L 263.940209 118.546737 
L 265.725809 116.328734 
L 265.883049 116.13249 
L 267.547121 114.071432 
L 268.026677 113.47137 
L 269.332721 111.854067 
L 270.167078 110.81025 
L 271.118321 109.633828 
L 272.307031 108.14913 
L 272.903921 107.412072 
L 274.447639 105.48801 
L 274.725233 105.145098 
L 276.510833 102.923222 
L 276.587986 102.82689 
L 278.296433 100.711856 
L 278.732259 100.16577 
L 280.082033 98.483378 
L 280.858212 97.50465 
L 281.903345 96.187938 
L 282.958168 94.84353 
L 283.688945 93.910811 
L 285.026988 92.18241 
L 285.474545 91.601034 
L 287.056528 89.52129 
L 287.260145 89.251236 
L 289.081457 86.805583 
L 289.366031 86.41665 
L 290.867057 84.324356 
L 291.269682 83.75553 
L 292.652657 81.726177 
L 293.077492 81.09441 
L 294.438257 78.954642 
L 294.765859 78.43329 
L 296.259569 75.863472 
L 296.312113 75.77217 
L 297.719416 73.11105 
L 298.045169 72.422754 
L 298.97517 70.44993 
L 299.830769 68.387047 
L 300.079414 67.78881 
L 301.070282 65.12769 
L 301.616369 63.486545 
L 301.960482 62.46657 
L 302.794244 59.80545 
L 303.437681 57.658465 
L 303.595625 57.14433 
L 304.429554 54.48321 
L 305.223281 52.077741 
L 305.310396 51.82209 
L 306.314003 49.16097 
L 307.008881 47.517302 
L 307.454566 46.49985 
L 308.794481 43.829648 
L 309.020241 43.39521 
L 310.601329 40.73409 
L 310.615793 40.712432 
L 312.401393 38.136288 
L 312.44703 38.07297 
L 314.186993 35.90779 
L 314.602199 35.41185 
L 315.972593 33.936068 
L 317.124895 32.75073 
L 317.793905 32.128425 
L 319.579505 30.559009 
L 320.147311 30.08961 
L 321.365105 29.183252 
L 323.150705 27.946958 
L 323.963626 27.42849 
L 324.972017 26.851813 
L 326.757617 25.928464 
L 328.543217 25.099229 
L 329.354817 24.76737 
L 330.328817 24.412115 
L 332.150129 23.845433 
L 333.935729 23.384195 
L 335.721329 23.017207 
L 337.506929 22.746334 
L 339.328241 22.572216 
L 341.113841 22.50618 
L 342.899441 22.549888 
L 344.685041 22.711387 
L 346.506353 23.008276 
L 348.291953 23.442433 
L 350.077553 24.035144 
L 351.774217 24.76737 
L 351.863153 24.81883 
L 353.684465 26.126293 
L 355.114727 27.42849 
L 355.470065 27.935413 
L 356.716247 30.08961 
L 357.255665 32.029201 
L 357.427695 32.75073 
L 357.578914 35.41185 
L 357.393305 38.07297 
L 357.255665 38.979876 
L 356.988979 40.73409 
L 356.458794 43.39521 
L 355.767459 46.49985 
L 355.470065 47.748272 
L 355.127856 49.16097 
L 354.453247 51.82209 
L 353.748599 54.48321 
L 353.684465 54.70571 
L 352.961344 57.14433 
L 352.098291 59.80545 
L 351.863153 60.449874 
L 351.103611 62.46657 
L 350.077553 64.899065 
L 349.977961 65.12769 
L 348.676477 67.78881 
L 348.291953 68.498926 
L 347.207819 70.44993 
L 346.506353 71.610477 
L 345.578953 73.11105 
L 344.685041 74.465363 
L 343.807459 75.77217 
L 342.899441 77.05849 
L 341.917576 78.43329 
L 341.113841 79.51862 
L 339.938685 81.09441 
L 339.328241 81.891838 
L 337.896326 83.75553 
L 337.506929 84.252964 
L 335.812121 86.41665 
L 335.721329 86.530267 
L 333.935729 88.754283 
L 333.326549 89.52129 
L 332.150129 90.976227 
L 331.179616 92.18241 
L 330.328817 93.229434 
L 329.025672 94.84353 
L 328.543217 95.435813 
L 326.87163 97.50465 
L 326.757617 97.644765 
L 324.972017 99.842564 
L 324.711169 100.16577 
L 323.150705 102.088081 
L 322.557059 102.82689 
L 321.365105 104.299907 
L 320.413733 105.48801 
L 319.579505 106.521372 
L 318.278465 108.14913 
L 317.793905 108.749549 
L 316.145646 110.81025 
L 315.972593 111.024499 
L 314.186993 113.242748 
L 314.004005 113.47137 
L 312.401393 115.449105 
L 311.853593 116.13249 
L 310.615793 117.660247 
L 309.707086 118.79361 
L 308.794481 119.92399 
L 307.571828 121.45473 
L 307.008881 122.156163 
L 305.453869 124.11585 
L 305.223281 124.405994 
L 303.437681 126.672882 
L 303.356118 126.77697 
L 301.616369 129.002043 
L 301.279609 129.43809 
L 299.830769 131.324274 
L 299.243089 132.09921 
L 298.045169 133.69244 
L 296.935208 135.20385 
L 296.259569 136.141976 
L 295.034097 137.86497 
L 294.438257 138.735302 
L 293.22768 140.52609 
L 292.652657 141.424384 
L 291.538392 143.18721 
L 290.867057 144.331889 
L 289.987472 145.84833 
L 289.081457 147.568486 
L 288.589563 148.50945 
L 287.348972 151.17057 
L 287.260145 151.383019 
L 286.236064 153.83169 
L 285.474545 155.913531 
L 285.261289 156.49281 
L 284.372807 159.15393 
L 283.688945 161.400027 
L 283.560434 161.81505 
L 282.760388 164.47617 
L 281.96314 167.13729 
L 281.903345 167.324843 
L 281.093858 169.79841 
L 280.150609 172.45953 
L 280.082033 172.632012 
L 279.065397 175.12065 
L 278.296433 176.789997 
L 277.620224 178.22529 
L 276.510833 180.328754 
L 276.210023 180.88641 
L 274.725233 183.40702 
L 274.640892 183.54753 
L 272.925319 186.20865 
L 272.903921 186.239955 
L 271.118321 188.824661 
L 271.086861 188.86977 
L 269.332721 191.280859 
L 269.149846 191.53089 
L 267.547121 193.653374 
L 267.139174 194.19201 
L 265.725809 196.014128 
L 265.07429 196.85313 
L 263.940209 198.285159 
L 262.967289 199.51425 
L 262.154609 200.524694 
L 260.828687 202.17537 
L 260.369009 202.740501 
L 258.666805 204.83649 
L 258.547697 204.981931 
L 256.762097 207.15427 
L 256.480051 207.49761 
L 254.976497 209.317654 
L 254.284475 210.15873 
L 253.190897 211.484048 
L 252.093282 212.81985 
L 251.369585 213.700067 
L 249.912179 215.48097 
L 249.583985 215.881385 
L 247.798385 218.06838 
L 247.73806 218.14209 
L 246.012785 220.24324 
L 245.555772 220.80321 
L 244.191473 222.460451 
L 243.019159 223.90785 
L 242.405873 224.65669 
L 240.851475 226.56897 
L 240.620273 226.851511 
L 238.834673 229.042216 
L 238.681931 229.23009 
L 237.013361 231.270722 
L 236.510951 231.89121 
L 235.227761 233.466271 
L 234.352239 234.55233 
L 233.442161 235.674428 
L 232.206806 237.21345 
L 231.656561 237.894233 
L 230.07089 239.87457 
L 229.835249 240.166665 
L 228.049649 242.392326 
L 227.935072 242.53569 
L 226.264049 244.601707 
L 225.787718 245.19681 
L 224.478449 246.811814 
L 223.638484 247.85793 
L 222.657137 249.066299 
L 221.488548 250.51905 
L 220.871537 251.277545 
L 219.339204 253.18017 
L 219.085937 253.491551 
L 217.300337 255.70108 
L 217.187386 255.84129 
L 215.479025 257.940325 
L 215.026101 258.50241 
L 213.693425 260.135146 
L 212.86165 261.16353 
L 211.907825 262.323781 
L 210.682723 263.82465 
L 210.122225 264.492979 
L 208.300913 266.680857 
L 208.094079 266.92929 
L 206.515313 268.752027 
L 205.789927 269.59041 
L 204.729713 270.767114 
L 203.387142 272.25153 
L 202.944113 272.717923 
L 201.122801 274.60312 
L 200.817456 274.91265 
L 199.337201 276.316745 
L 197.985009 277.57377 
L 197.551601 277.947039 
L 195.766001 279.416499 
L 194.729076 280.23489 
L 193.944689 280.798556 
L 192.159089 282.000544 
L 190.740979 282.89601 
L 190.373489 283.104428 
L 188.587889 284.023979 
L 186.766577 284.87324 
L 185.123338 285.55713 
L 184.980977 285.609691 
L 183.195377 286.173222 
L 181.409777 286.644841 
L 179.588465 287.029427 
L 177.802865 287.309089 
L 176.017265 287.488304 
L 174.231665 287.561601 
L 172.410353 287.519732 
L 170.624753 287.354788 
L 168.839153 287.055098 
L 167.053553 286.605501 
L 165.232241 285.972754 
L 164.30156 285.55713 
L 163.446641 285.012242 
L 161.661041 283.552584 
L 161.013254 282.89601 
L 159.875441 280.714357 
L 159.669415 280.23489 
z
" clip-path="url(#p06a14d110c)" style="fill: none; stroke: #2b7bba; stroke-width: 1.5"/>
    <path d="M 338.248766 280.23489 
L 337.952143 277.57377 
L 338.352857 274.91265 
L 339.233028 272.25153 
L 339.328241 272.053086 
L 340.503139 269.59041 
L 341.113841 268.538976 
L 342.044169 266.92929 
L 342.899441 265.650488 
L 344.103722 263.82465 
L 344.685041 263.026783 
L 346.039873 261.16353 
L 346.506353 260.558354 
L 348.090021 258.50241 
L 348.291953 258.250729 
L 350.077553 256.036225 
L 350.235932 255.84129 
L 351.863153 253.89746 
L 352.466941 253.18017 
L 353.684465 251.760357 
L 354.759209 250.51905 
L 355.470065 249.707526 
L 357.112686 247.85793 
L 357.255665 247.697659 
L 359.041265 245.761149 
L 359.577638 245.19681 
L 360.862577 243.840185 
L 362.140201 242.53569 
L 362.648177 242.00998 
L 364.433777 240.255273 
L 364.849074 239.87457 
L 366.219377 238.58187 
L 367.769384 237.21345 
L 368.040689 236.962071 
L 369.826289 235.495787 
L 371.122844 234.55233 
L 371.611889 234.170436 
L 373.397489 233.040006 
L 375.218801 232.159181 
L 376.201674 231.89121 
L 377.004401 231.649593 
L 378.790001 231.617407 
L 379.640424 231.89121 
L 380.575601 232.220793 
L 382.396913 233.707259 
L 383.022262 234.55233 
L 384.182513 236.363534 
L 384.574727 237.21345 
L 385.608426 239.87457 
L 385.968113 241.042345 
L 386.341656 242.53569 
L 386.841314 245.19681 
L 387.159743 247.85793 
L 387.296383 250.51905 
L 387.248092 253.18017 
L 387.009452 255.84129 
L 386.57363 258.50241 
L 385.968113 261.016337 
L 385.931114 261.16353 
L 385.027187 263.82465 
L 384.182513 265.781867 
L 383.671035 266.92929 
L 382.396913 269.273337 
L 382.21816 269.59041 
L 380.575601 272.090525 
L 380.465961 272.25153 
L 378.790001 274.399497 
L 378.374829 274.91265 
L 377.004401 276.408285 
L 375.892688 277.57377 
L 375.218801 278.201894 
L 373.397489 279.810499 
L 372.887428 280.23489 
L 371.611889 281.175234 
L 369.826289 282.40282 
L 369.048703 282.89601 
L 368.040689 283.460805 
L 366.219377 284.381653 
L 364.433777 285.190835 
L 363.512004 285.55713 
L 362.648177 285.858881 
L 360.862577 286.385995 
L 359.041265 286.826 
L 357.255665 287.159843 
L 355.470065 287.394108 
L 353.684465 287.524383 
L 351.863153 287.543819 
L 350.077553 287.443431 
L 348.291953 287.214217 
L 346.506353 286.842779 
L 344.685041 286.299845 
L 342.899441 285.58515 
L 342.842618 285.55713 
L 341.113841 284.324089 
L 339.570799 282.89601 
L 339.328241 282.484738 
L 338.248766 280.23489 
z
" clip-path="url(#p06a14d110c)" style="fill: none; stroke: #2b7bba; stroke-width: 1.5"/>
   </g>
   <g id="PathCollection_7">
    <path d="M 53.543878 191.53089 
L 52.657646 188.86977 
L 52.511466 186.20865 
L 52.830205 183.54753 
L 53.465994 180.88641 
L 53.989361 179.368866 
L 54.41227 178.22529 
L 55.774961 175.269287 
L 55.844221 175.12065 
L 57.364298 172.45953 
L 57.560561 172.150972 
L 59.070256 169.79841 
L 59.381873 169.347885 
L 60.905142 167.13729 
L 61.167473 166.780014 
L 62.834183 164.47617 
L 62.953073 164.320353 
L 64.738673 161.955843 
L 64.843748 161.81505 
L 66.559985 159.629142 
L 66.921856 159.15393 
L 68.345585 157.377786 
L 69.030578 156.49281 
L 70.131185 155.137497 
L 71.154071 153.83169 
L 71.916785 152.899981 
L 73.284701 151.17057 
L 73.738097 150.617542 
L 75.4086 148.50945 
L 75.523697 148.369201 
L 77.309297 146.173396 
L 77.565939 145.84833 
L 79.094897 143.986232 
L 79.725838 143.18721 
L 80.916209 141.728902 
L 81.862267 140.52609 
L 82.701809 139.497615 
L 83.985861 137.86497 
L 84.487409 137.250993 
L 86.101082 135.20385 
L 86.273009 134.997554 
L 88.094321 132.782931 
L 88.622453 132.09921 
L 89.879921 130.574364 
L 90.780148 129.43809 
L 91.665521 128.364899 
L 92.925911 126.77697 
L 93.451121 126.138907 
L 95.058721 124.11585 
L 95.272433 123.8547 
L 97.058033 121.629193 
L 97.195481 121.45473 
L 98.843633 119.442969 
L 99.354009 118.79361 
L 100.629233 117.23256 
L 101.494915 116.13249 
L 102.450545 114.960239 
L 103.621543 113.47137 
L 104.236145 112.720173 
L 105.742746 110.81025 
L 106.021745 110.469765 
L 107.807345 108.225553 
L 107.867623 108.14913 
L 109.628657 106.000705 
L 110.032063 105.48801 
L 111.414257 103.794447 
L 112.17198 102.82689 
L 113.199857 101.552562 
L 114.27524 100.16577 
L 114.985457 99.270308 
L 116.336894 97.50465 
L 116.806769 96.897996 
L 118.345216 94.84353 
L 118.592369 94.516069 
L 120.295542 92.18241 
L 120.377969 92.069202 
L 122.163569 89.542273 
L 122.178021 89.52129 
L 123.984881 86.880192 
L 124.280712 86.41665 
L 125.770481 84.015338 
L 125.927267 83.75553 
L 127.439991 81.09441 
L 127.556081 80.873441 
L 128.823115 78.43329 
L 129.341681 77.295419 
L 130.035434 75.77217 
L 131.070565 73.11105 
L 131.162993 72.849404 
L 132.027375 70.44993 
L 132.833916 67.78881 
L 132.948593 67.383105 
L 133.611515 65.12769 
L 134.325867 62.46657 
L 134.734193 60.920598 
L 135.046023 59.80545 
L 135.824264 57.14433 
L 136.519793 54.920538 
L 136.666438 54.48321 
L 137.684195 51.82209 
L 138.341105 50.308729 
L 138.876389 49.16097 
L 140.126705 46.823477 
L 140.312937 46.49985 
L 141.912305 44.12875 
L 142.438568 43.39521 
L 143.697905 41.892436 
L 144.743813 40.73409 
L 145.519217 39.984083 
L 147.304817 38.403179 
L 147.724514 38.07297 
L 149.090417 37.142629 
L 150.876017 36.07355 
L 152.192592 35.41185 
L 152.697329 35.194719 
L 154.482929 34.623031 
L 156.268529 34.247016 
L 158.054129 34.102958 
L 159.875441 34.246319 
L 161.661041 34.741537 
L 162.959495 35.41185 
L 163.446641 35.813562 
L 165.150876 38.07297 
L 165.232241 38.29585 
L 165.879466 40.73409 
L 166.06192 43.39521 
L 165.888386 46.49985 
L 165.537224 49.16097 
L 165.232241 50.812101 
L 165.033265 51.82209 
L 164.372737 54.48321 
L 163.602706 57.14433 
L 163.446641 57.596382 
L 162.632879 59.80545 
L 161.661041 62.137065 
L 161.514375 62.46657 
L 160.167232 65.12769 
L 159.875441 65.646086 
L 158.605482 67.78881 
L 158.054129 68.648722 
L 156.847555 70.44993 
L 156.268529 71.263866 
L 154.910415 73.11105 
L 154.482929 73.668798 
L 152.833643 75.77217 
L 152.697329 75.941454 
L 150.876017 78.140171 
L 150.627087 78.43329 
L 149.090417 80.223576 
L 148.340094 81.09441 
L 147.304817 82.288757 
L 146.039776 83.75553 
L 145.519217 84.355717 
L 143.750594 86.41665 
L 143.697905 86.477007 
L 141.912305 88.472608 
L 141.022386 89.52129 
L 140.126705 90.551727 
L 138.746917 92.18241 
L 138.341105 92.655701 
L 136.519793 94.838734 
L 136.515756 94.84353 
L 134.734193 96.922966 
L 134.254397 97.50465 
L 132.948593 99.055232 
L 132.047803 100.16577 
L 131.162993 101.230739 
L 129.881873 102.82689 
L 129.341681 103.483893 
L 127.74794 105.48801 
L 127.556081 105.721816 
L 125.770481 107.935451 
L 125.601498 108.14913 
L 123.984881 110.10958 
L 123.429203 110.81025 
L 122.163569 112.346443 
L 121.271213 113.47137 
L 120.377969 114.5531 
L 119.123104 116.13249 
L 118.592369 116.776426 
L 116.990284 118.79361 
L 116.806769 119.017128 
L 114.985457 121.279807 
L 114.847425 121.45473 
L 113.199857 123.462857 
L 112.685952 124.11585 
L 111.414257 125.671398 
L 110.545336 126.77697 
L 109.628657 127.899154 
L 108.41559 129.43809 
L 107.807345 130.182691 
L 106.294759 132.09921 
L 106.021745 132.426037 
L 104.236145 134.613194 
L 103.779281 135.20385 
L 102.450545 136.813103 
L 101.61496 137.86497 
L 100.629233 139.06225 
L 99.468057 140.52609 
L 98.843633 141.285671 
L 97.337747 143.18721 
L 97.058033 143.528996 
L 95.272433 145.776697 
L 95.215986 145.84833 
L 93.451121 148.009213 
L 93.05845 148.50945 
L 91.665521 150.213678 
L 90.913889 151.17057 
L 89.879921 152.434077 
L 88.778944 153.83169 
L 88.094321 154.666283 
L 86.647387 156.49281 
L 86.273009 156.949313 
L 84.525022 159.15393 
L 84.487409 159.19977 
L 82.701809 161.374966 
L 82.35384 161.81505 
L 80.916209 163.567873 
L 80.198231 164.47617 
L 79.094897 165.835125 
L 78.072417 167.13729 
L 77.309297 168.084596 
L 75.970897 169.79841 
L 75.523697 170.359322 
L 73.891881 172.45953 
L 73.738097 172.654531 
L 71.916785 174.97911 
L 71.805863 175.12065 
L 70.131185 177.191765 
L 69.335273 178.22529 
L 68.345585 179.491657 
L 67.248051 180.88641 
L 66.559985 181.779384 
L 65.157838 183.54753 
L 64.738673 184.101038 
L 63.052151 186.20865 
L 62.953073 186.34082 
L 61.167473 188.445894 
L 60.745442 188.86977 
L 59.381873 190.356216 
L 58.001749 191.53089 
L 57.560561 191.946857 
L 55.774961 192.749782 
L 53.989361 192.211729 
L 53.543878 191.53089 
z
" clip-path="url(#p06a14d110c)" style="fill: none; stroke: #0b559f; stroke-width: 1.5"/>
    <path d="M 178.907513 272.25153 
L 177.953809 269.59041 
L 178.634772 266.92929 
L 179.588465 265.017603 
L 180.14369 263.82465 
L 181.409777 261.802256 
L 181.797669 261.16353 
L 183.195377 259.185595 
L 183.661287 258.50241 
L 184.980977 256.752617 
L 185.643494 255.84129 
L 186.766577 254.403176 
L 187.689025 253.18017 
L 188.587889 252.048313 
L 189.761433 250.51905 
L 190.373489 249.758371 
L 191.84954 247.85793 
L 192.159089 247.476186 
L 193.944689 245.196905 
L 193.944763 245.19681 
L 195.766001 242.966522 
L 196.103965 242.53569 
L 197.551601 240.770622 
L 198.256914 239.87457 
L 199.337201 238.5539 
L 200.390951 237.21345 
L 201.122801 236.311433 
L 202.499101 234.55233 
L 202.944113 233.995362 
L 204.567852 231.89121 
L 204.729713 231.685218 
L 206.515313 229.355116 
L 206.608956 229.23009 
L 208.300913 227.004291 
L 208.619425 226.56897 
L 210.122225 224.51531 
L 210.55111 223.90785 
L 211.907825 221.998987 
L 212.699556 220.80321 
L 213.693425 219.278566 
L 214.412602 218.14209 
L 215.479025 216.355319 
L 215.989044 215.48097 
L 217.300337 213.005483 
L 217.39709 212.81985 
L 218.685169 210.15873 
L 219.085937 209.208829 
L 219.807699 207.49761 
L 220.75527 204.83649 
L 220.871537 204.474727 
L 221.623913 202.17537 
L 222.364203 199.51425 
L 222.657137 198.368423 
L 223.058661 196.85313 
L 223.728112 194.19201 
L 224.381145 191.53089 
L 224.478449 191.165102 
L 225.118771 188.86977 
L 225.919687 186.20865 
L 226.264049 185.201949 
L 226.856246 183.54753 
L 227.92614 180.88641 
L 228.049649 180.619197 
L 229.196499 178.22529 
L 229.835249 177.041611 
L 230.892095 175.12065 
L 231.656561 173.864538 
L 232.530634 172.45953 
L 233.442161 171.096154 
L 234.322332 169.79841 
L 235.227761 168.537333 
L 236.241883 167.13729 
L 237.013361 166.118554 
L 238.26442 164.47617 
L 238.834673 163.752265 
L 240.366005 161.81505 
L 240.620273 161.502392 
L 242.405873 159.322326 
L 242.545798 159.15393 
L 244.191473 157.219751 
L 244.811862 156.49281 
L 246.012785 155.109287 
L 247.124365 153.83169 
L 247.798385 153.067129 
L 249.470533 151.17057 
L 249.583985 151.042836 
L 251.369585 149.079165 
L 251.891586 148.50945 
L 253.190897 147.087343 
L 254.321405 145.84833 
L 254.976497 145.126633 
L 256.726934 143.18721 
L 256.762097 143.147986 
L 258.547697 141.214052 
L 259.179381 140.52609 
L 260.369009 139.215114 
L 261.579267 137.86497 
L 262.154609 137.22011 
L 263.921992 135.20385 
L 263.940209 135.183329 
L 265.725809 133.222381 
L 266.691467 132.09921 
L 267.547121 131.120429 
L 268.979137 129.43809 
L 269.332721 129.02727 
L 271.118321 126.910723 
L 271.231192 126.77697 
L 272.903921 124.826943 
L 273.492356 124.11585 
L 274.725233 122.649781 
L 275.695187 121.45473 
L 276.510833 120.473047 
L 277.856593 118.79361 
L 278.296433 118.259408 
L 279.987689 116.13249 
L 280.082033 116.01742 
L 281.903345 113.778361 
L 282.145946 113.47137 
L 283.688945 111.596644 
L 284.310326 110.81025 
L 285.474545 109.395084 
L 286.459818 108.14913 
L 287.260145 107.174056 
L 288.594441 105.48801 
L 289.081457 104.889902 
L 290.702988 102.82689 
L 290.867057 102.623548 
L 292.652657 100.366132 
L 292.807364 100.16577 
L 294.438257 98.106461 
L 294.896403 97.50465 
L 296.259569 95.738139 
L 296.924627 94.84353 
L 298.045169 93.350135 
L 298.889549 92.18241 
L 299.830769 90.878232 
L 300.776913 89.52129 
L 301.616369 88.313541 
L 302.854246 86.41665 
L 303.437681 85.494183 
L 304.511163 83.75553 
L 305.223281 82.518598 
L 306.02713 81.09441 
L 307.008881 79.165929 
L 307.377531 78.43329 
L 308.576923 75.77217 
L 308.794481 75.232234 
L 309.65711 73.11105 
L 310.560751 70.44993 
L 310.615793 70.273765 
L 311.415874 67.78881 
L 312.158227 65.12769 
L 312.401393 64.212629 
L 312.888524 62.46657 
L 313.613832 59.80545 
L 314.186993 57.754285 
L 314.368655 57.14433 
L 315.244024 54.48321 
L 315.972593 52.4846 
L 316.232092 51.82209 
L 317.431263 49.16097 
L 317.793905 48.463994 
L 318.88952 46.49985 
L 319.579505 45.441369 
L 320.992921 43.39521 
L 321.365105 42.932603 
L 323.150705 40.867186 
L 323.277211 40.73409 
L 324.972017 39.181426 
L 326.286808 38.07297 
L 326.757617 37.728024 
L 328.543217 36.590357 
L 330.328817 35.594978 
L 330.745609 35.41185 
L 332.150129 34.886287 
L 333.935729 34.408551 
L 335.721329 34.14327 
L 337.506929 34.132696 
L 339.328241 34.444657 
L 341.113841 35.150264 
L 341.525824 35.41185 
L 342.899441 36.845914 
L 343.674842 38.07297 
L 344.457776 40.73409 
L 344.65283 43.39521 
L 344.463723 46.49985 
L 344.088273 49.16097 
L 343.578441 51.82209 
L 342.956357 54.48321 
L 342.899441 54.681531 
L 342.144991 57.14433 
L 341.21392 59.80545 
L 341.113841 60.04883 
L 340.056441 62.46657 
L 339.328241 63.952501 
L 338.716446 65.12769 
L 337.506929 67.237371 
L 337.172958 67.78881 
L 335.721329 70.00508 
L 335.416504 70.44993 
L 333.935729 72.489867 
L 333.468788 73.11105 
L 332.150129 74.798515 
L 331.369603 75.77217 
L 330.328817 77.042733 
L 329.172547 78.43329 
L 328.543217 79.179933 
L 326.923099 81.09441 
L 326.757617 81.288306 
L 324.972017 83.338312 
L 324.605366 83.75553 
L 323.150705 85.409858 
L 322.276231 86.41665 
L 321.365105 87.445446 
L 319.619201 89.52129 
L 319.579505 89.567397 
L 317.793905 91.606498 
L 317.301755 92.18241 
L 315.972593 93.722256 
L 315.034324 94.84353 
L 314.186993 95.839589 
L 312.8178 97.50465 
L 312.401393 98.001569 
L 310.647955 100.16577 
L 310.615793 100.204618 
L 308.794481 102.400495 
L 308.453011 102.82689 
L 307.008881 104.575305 
L 306.284099 105.48801 
L 305.223281 106.778471 
L 304.138441 108.14913 
L 303.437681 109.002531 
L 302.004221 110.81025 
L 301.616369 111.283448 
L 299.883203 113.47137 
L 299.830769 113.535344 
L 298.045169 115.719623 
L 297.720006 116.13249 
L 296.259569 117.920718 
L 295.574416 118.79361 
L 294.438257 120.204614 
L 293.469112 121.45473 
L 292.652657 122.484248 
L 291.406825 124.11585 
L 290.867057 124.811714 
L 289.396368 126.77697 
L 289.081457 127.194486 
L 287.442856 129.43809 
L 287.260145 129.689835 
L 285.563632 132.09921 
L 285.474545 132.22627 
L 283.688945 134.867948 
L 283.475411 135.20385 
L 281.903345 137.750785 
L 281.83473 137.86497 
L 280.315127 140.52609 
L 280.082033 140.975244 
L 278.947642 143.18721 
L 278.296433 144.642152 
L 277.759113 145.84833 
L 276.732509 148.50945 
L 276.510833 149.156662 
L 275.811605 151.17057 
L 275.02706 153.83169 
L 274.725233 154.965306 
L 274.305188 156.49281 
L 273.627357 159.15393 
L 272.984939 161.81505 
L 272.903921 162.131744 
L 272.27552 164.47617 
L 271.521029 167.13729 
L 271.118321 168.404701 
L 270.654301 169.79841 
L 269.654473 172.45953 
L 269.332721 173.207859 
L 268.477672 175.12065 
L 267.547121 176.957599 
L 266.889918 178.22529 
L 265.725809 180.238053 
L 265.341083 180.88641 
L 263.940209 183.065464 
L 263.624808 183.54753 
L 262.154609 185.65478 
L 261.763762 186.20865 
L 260.369009 188.088022 
L 259.784373 188.86977 
L 258.547697 190.461788 
L 257.713324 191.53089 
L 256.762097 192.711762 
L 255.567234 194.19201 
L 254.976497 194.905146 
L 253.360927 196.85313 
L 253.190897 197.053862 
L 251.369585 199.173663 
L 251.073541 199.51425 
L 249.583985 201.20118 
L 248.722647 202.17537 
L 247.798385 203.210519 
L 246.346878 204.83649 
L 246.012785 205.209285 
L 244.191473 207.217398 
L 243.932192 207.49761 
L 242.405873 209.154508 
L 241.484427 210.15873 
L 240.620273 211.107625 
L 239.072351 212.81985 
L 238.834673 213.084741 
L 237.013361 215.086736 
L 236.65205 215.48097 
L 235.227761 217.048321 
L 234.250323 218.14209 
L 233.442161 219.048922 
L 231.910624 220.80321 
L 231.656561 221.089668 
L 229.835249 223.141095 
L 229.181549 223.90785 
L 228.049649 225.204668 
L 226.895643 226.56897 
L 226.264049 227.305883 
L 224.667533 229.23009 
L 224.478449 229.454336 
L 222.657137 231.639038 
L 222.450483 231.89121 
L 220.871537 233.773825 
L 220.243825 234.55233 
L 219.085937 235.949913 
L 218.078004 237.21345 
L 217.300337 238.158348 
L 215.935798 239.87457 
L 215.479025 240.431501 
L 213.809969 242.53569 
L 213.693425 242.677344 
L 211.907825 244.865383 
L 211.645086 245.19681 
L 210.122225 247.033684 
L 209.465042 247.85793 
L 208.300913 249.262617 
L 207.29777 250.51905 
L 206.515313 251.460176 
L 205.137185 253.18017 
L 204.729713 253.668744 
L 202.978582 255.84129 
L 202.944113 255.882258 
L 201.122801 258.029258 
L 200.734108 258.50241 
L 199.337201 260.09897 
L 198.436306 261.16353 
L 197.551601 262.133546 
L 196.051144 263.82465 
L 195.766001 264.11255 
L 193.944689 265.892452 
L 192.923916 266.92929 
L 192.159089 267.596159 
L 190.373489 269.100261 
L 189.754053 269.59041 
L 188.587889 270.365031 
L 186.766577 271.45697 
L 185.259176 272.25153 
L 184.980977 272.368875 
L 183.195377 272.843896 
L 181.409777 273.007787 
L 179.588465 272.659114 
L 178.907513 272.25153 
z
" clip-path="url(#p06a14d110c)" style="fill: none; stroke: #0b559f; stroke-width: 1.5"/>
    <path d="M 357.446701 269.59041 
L 358.266212 266.92929 
L 359.041265 265.756112 
L 360.289895 263.82465 
L 360.862577 263.193093 
L 362.648177 261.353536 
L 362.871091 261.16353 
L 364.433777 260.115966 
L 366.219377 259.222605 
L 368.040689 258.993347 
L 369.826289 260.786965 
L 369.950728 261.16353 
L 369.826289 262.339459 
L 369.650174 263.82465 
L 368.156843 266.92929 
L 368.040689 267.07777 
L 366.219377 269.152459 
L 365.789666 269.59041 
L 364.433777 270.529674 
L 362.648177 271.527688 
L 360.862577 272.184806 
L 359.041265 272.046937 
L 357.446701 269.59041 
z
" clip-path="url(#p06a14d110c)" style="fill: none; stroke: #0b559f; stroke-width: 1.5"/>
   </g>
   <g id="PathCollection_8"/>
   <g id="patch_3">
    <path d="M 34.240625 288.21825 
L 34.240625 22.10625 
" style="fill: none; stroke: #000000; stroke-width: 0.8; stroke-linejoin: miter; stroke-linecap: square"/>
   </g>
   <g id="patch_4">
    <path d="M 391.360625 288.21825 
L 391.360625 22.10625 
" style="fill: none; stroke: #000000; stroke-width: 0.8; stroke-linejoin: miter; stroke-linecap: square"/>
   </g>
   <g id="patch_5">
    <path d="M 34.240625 288.21825 
L 391.360625 288.21825 
" style="fill: none; stroke: #000000; stroke-width: 0.8; stroke-linejoin: miter; stroke-linecap: square"/>
   </g>
   <g id="patch_6">
    <path d="M 34.240625 22.10625 
L 391.360625 22.10625 
" style="fill: none; stroke: #000000; stroke-width: 0.8; stroke-linejoin: miter; stroke-linecap: square"/>
   </g>
   <g id="text_16">
    <!-- 9.1_cross_18.0 -->
    <g transform="translate(168.34625 16.10625)scale(0.12 -0.12)">
     <defs>
      <path id="DejaVuSans-39" d="M 703 97 
L 703 672 
Q 941 559 1184 500 
Q 1428 441 1663 441 
Q 2288 441 2617 861 
Q 2947 1281 2994 2138 
Q 2813 1869 2534 1725 
Q 2256 1581 1919 1581 
Q 1219 1581 811 2004 
Q 403 2428 403 3163 
Q 403 3881 828 4315 
Q 1253 4750 1959 4750 
Q 2769 4750 3195 4129 
Q 3622 3509 3622 2328 
Q 3622 1225 3098 567 
Q 2575 -91 1691 -91 
Q 1453 -91 1209 -44 
Q 966 3 703 97 
z
M 1959 2075 
Q 2384 2075 2632 2365 
Q 2881 2656 2881 3163 
Q 2881 3666 2632 3958 
Q 2384 4250 1959 4250 
Q 1534 4250 1286 3958 
Q 1038 3666 1038 3163 
Q 1038 2656 1286 2365 
Q 1534 2075 1959 2075 
z
" transform="scale(0.015625)"/>
      <path id="DejaVuSans-2e" d="M 684 794 
L 1344 794 
L 1344 0 
L 684 0 
L 684 794 
z
" transform="scale(0.015625)"/>
      <path id="DejaVuSans-5f" d="M 3263 -1063 
L 3263 -1509 
L -63 -1509 
L -63 -1063 
L 3263 -1063 
z
" transform="scale(0.015625)"/>
      <path id="DejaVuSans-63" d="M 3122 3366 
L 3122 2828 
Q 2878 2963 2633 3030 
Q 2388 3097 2138 3097 
Q 1578 3097 1268 2742 
Q 959 2388 959 1747 
Q 959 1106 1268 751 
Q 1578 397 2138 397 
Q 2388 397 2633 464 
Q 2878 531 3122 666 
L 3122 134 
Q 2881 22 2623 -34 
Q 2366 -91 2075 -91 
Q 1284 -91 818 406 
Q 353 903 353 1747 
Q 353 2603 823 3093 
Q 1294 3584 2113 3584 
Q 2378 3584 2631 3529 
Q 2884 3475 3122 3366 
z
" transform="scale(0.015625)"/>
      <path id="DejaVuSans-72" d="M 2631 2963 
Q 2534 3019 2420 3045 
Q 2306 3072 2169 3072 
Q 1681 3072 1420 2755 
Q 1159 2438 1159 1844 
L 1159 0 
L 581 0 
L 581 3500 
L 1159 3500 
L 1159 2956 
Q 1341 3275 1631 3429 
Q 1922 3584 2338 3584 
Q 2397 3584 2469 3576 
Q 2541 3569 2628 3553 
L 2631 2963 
z
" transform="scale(0.015625)"/>
      <path id="DejaVuSans-73" d="M 2834 3397 
L 2834 2853 
Q 2591 2978 2328 3040 
Q 2066 3103 1784 3103 
Q 1356 3103 1142 2972 
Q 928 2841 928 2578 
Q 928 2378 1081 2264 
Q 1234 2150 1697 2047 
L 1894 2003 
Q 2506 1872 2764 1633 
Q 3022 1394 3022 966 
Q 3022 478 2636 193 
Q 2250 -91 1575 -91 
Q 1294 -91 989 -36 
Q 684 19 347 128 
L 347 722 
Q 666 556 975 473 
Q 1284 391 1588 391 
Q 1994 391 2212 530 
Q 2431 669 2431 922 
Q 2431 1156 2273 1281 
Q 2116 1406 1581 1522 
L 1381 1569 
Q 847 1681 609 1914 
Q 372 2147 372 2553 
Q 372 3047 722 3315 
Q 1072 3584 1716 3584 
Q 2034 3584 2315 3537 
Q 2597 3491 2834 3397 
z
" transform="scale(0.015625)"/>
     </defs>
     <use xlink:href="#DejaVuSans-39"/>
     <use xlink:href="#DejaVuSans-2e" x="63.623047"/>
     <use xlink:href="#DejaVuSans-31" x="95.410156"/>
     <use xlink:href="#DejaVuSans-5f" x="159.033203"/>
     <use xlink:href="#DejaVuSans-63" x="209.033203"/>
     <use xlink:href="#DejaVuSans-72" x="264.013672"/>
     <use xlink:href="#DejaVuSans-6f" x="302.876953"/>
     <use xlink:href="#DejaVuSans-73" x="364.058594"/>
     <use xlink:href="#DejaVuSans-73" x="416.158203"/>
     <use xlink:href="#DejaVuSans-5f" x="468.257812"/>
     <use xlink:href="#DejaVuSans-31" x="518.257812"/>
     <use xlink:href="#DejaVuSans-38" x="581.880859"/>
     <use xlink:href="#DejaVuSans-2e" x="645.503906"/>
     <use xlink:href="#DejaVuSans-30" x="677.291016"/>
    </g>
   </g>
  </g>
 </g>
 <defs>
  <clipPath id="p06a14d110c">
   <rect x="34.240625" y="22.10625" width="357.12" height="266.112"/>
  </clipPath>
 </defs>
</svg>
