<?xml version="1.0" encoding="utf-8" standalone="no"?>
<!DOCTYPE svg PUBLIC "-//W3C//DTD SVG 1.1//EN"
  "http://www.w3.org/Graphics/SVG/1.1/DTD/svg11.dtd">
<svg xmlns:xlink="http://www.w3.org/1999/xlink" width="408.104375pt" height="325.7745pt" viewBox="0 0 408.104375 325.7745" xmlns="http://www.w3.org/2000/svg" version="1.1">
 <metadata>
  <rdf:RDF xmlns:dc="http://purl.org/dc/elements/1.1/" xmlns:cc="http://creativecommons.org/ns#" xmlns:rdf="http://www.w3.org/1999/02/22-rdf-syntax-ns#">
   <cc:Work>
    <dc:type rdf:resource="http://purl.org/dc/dcmitype/StillImage"/>
    <dc:date>2024-07-12T12:13:14.385921</dc:date>
    <dc:format>image/svg+xml</dc:format>
    <dc:creator>
     <cc:Agent>
      <dc:title>Matplotlib v3.5.3, https://matplotlib.org/</dc:title>
     </cc:Agent>
    </dc:creator>
   </cc:Work>
  </rdf:RDF>
 </metadata>
 <defs>
  <style type="text/css">*{stroke-linejoin: round; stroke-linecap: butt}</style>
 </defs>
 <g id="figure_1">
  <g id="patch_1">
   <path d="M 0 325.7745 
L 408.104375 325.7745 
L 408.104375 0 
L 0 0 
z
" style="fill: #ffffff"/>
  </g>
  <g id="axes_1">
   <g id="patch_2">
    <path d="M 34.240625 288.21825 
L 391.360625 288.21825 
L 391.360625 22.10625 
L 34.240625 22.10625 
z
" style="fill: #ffffff"/>
   </g>
   <g id="matplotlib.axis_1">
    <g id="xtick_1">
     <g id="line2d_1">
      <defs>
       <path id="me26d868e1c" d="M 0 0 
L 0 3.5 
" style="stroke: #000000; stroke-width: 0.8"/>
      </defs>
      <g>
       <use xlink:href="#me26d868e1c" x="34.240625" y="288.21825" style="stroke: #000000; stroke-width: 0.8"/>
      </g>
     </g>
     <g id="text_1">
      <!-- 0 -->
      <g transform="translate(31.059375 302.816687)scale(0.1 -0.1)">
       <defs>
        <path id="DejaVuSans-30" d="M 2034 4250 
Q 1547 4250 1301 3770 
Q 1056 3291 1056 2328 
Q 1056 1369 1301 889 
Q 1547 409 2034 409 
Q 2525 409 2770 889 
Q 3016 1369 3016 2328 
Q 3016 3291 2770 3770 
Q 2525 4250 2034 4250 
z
M 2034 4750 
Q 2819 4750 3233 4129 
Q 3647 3509 3647 2328 
Q 3647 1150 3233 529 
Q 2819 -91 2034 -91 
Q 1250 -91 836 529 
Q 422 1150 422 2328 
Q 422 3509 836 4129 
Q 1250 4750 2034 4750 
z
" transform="scale(0.015625)"/>
       </defs>
       <use xlink:href="#DejaVuSans-30"/>
      </g>
     </g>
    </g>
    <g id="xtick_2">
     <g id="line2d_2">
      <g>
       <use xlink:href="#me26d868e1c" x="105.664625" y="288.21825" style="stroke: #000000; stroke-width: 0.8"/>
      </g>
     </g>
     <g id="text_2">
      <!-- 20 -->
      <g transform="translate(99.302125 302.816687)scale(0.1 -0.1)">
       <defs>
        <path id="DejaVuSans-32" d="M 1228 531 
L 3431 531 
L 3431 0 
L 469 0 
L 469 531 
Q 828 903 1448 1529 
Q 2069 2156 2228 2338 
Q 2531 2678 2651 2914 
Q 2772 3150 2772 3378 
Q 2772 3750 2511 3984 
Q 2250 4219 1831 4219 
Q 1534 4219 1204 4116 
Q 875 4013 500 3803 
L 500 4441 
Q 881 4594 1212 4672 
Q 1544 4750 1819 4750 
Q 2544 4750 2975 4387 
Q 3406 4025 3406 3419 
Q 3406 3131 3298 2873 
Q 3191 2616 2906 2266 
Q 2828 2175 2409 1742 
Q 1991 1309 1228 531 
z
" transform="scale(0.015625)"/>
       </defs>
       <use xlink:href="#DejaVuSans-32"/>
       <use xlink:href="#DejaVuSans-30" x="63.623047"/>
      </g>
     </g>
    </g>
    <g id="xtick_3">
     <g id="line2d_3">
      <g>
       <use xlink:href="#me26d868e1c" x="177.088625" y="288.21825" style="stroke: #000000; stroke-width: 0.8"/>
      </g>
     </g>
     <g id="text_3">
      <!-- 40 -->
      <g transform="translate(170.726125 302.816687)scale(0.1 -0.1)">
       <defs>
        <path id="DejaVuSans-34" d="M 2419 4116 
L 825 1625 
L 2419 1625 
L 2419 4116 
z
M 2253 4666 
L 3047 4666 
L 3047 1625 
L 3713 1625 
L 3713 1100 
L 3047 1100 
L 3047 0 
L 2419 0 
L 2419 1100 
L 313 1100 
L 313 1709 
L 2253 4666 
z
" transform="scale(0.015625)"/>
       </defs>
       <use xlink:href="#DejaVuSans-34"/>
       <use xlink:href="#DejaVuSans-30" x="63.623047"/>
      </g>
     </g>
    </g>
    <g id="xtick_4">
     <g id="line2d_4">
      <g>
       <use xlink:href="#me26d868e1c" x="248.512625" y="288.21825" style="stroke: #000000; stroke-width: 0.8"/>
      </g>
     </g>
     <g id="text_4">
      <!-- 60 -->
      <g transform="translate(242.150125 302.816687)scale(0.1 -0.1)">
       <defs>
        <path id="DejaVuSans-36" d="M 2113 2584 
Q 1688 2584 1439 2293 
Q 1191 2003 1191 1497 
Q 1191 994 1439 701 
Q 1688 409 2113 409 
Q 2538 409 2786 701 
Q 3034 994 3034 1497 
Q 3034 2003 2786 2293 
Q 2538 2584 2113 2584 
z
M 3366 4563 
L 3366 3988 
Q 3128 4100 2886 4159 
Q 2644 4219 2406 4219 
Q 1781 4219 1451 3797 
Q 1122 3375 1075 2522 
Q 1259 2794 1537 2939 
Q 1816 3084 2150 3084 
Q 2853 3084 3261 2657 
Q 3669 2231 3669 1497 
Q 3669 778 3244 343 
Q 2819 -91 2113 -91 
Q 1303 -91 875 529 
Q 447 1150 447 2328 
Q 447 3434 972 4092 
Q 1497 4750 2381 4750 
Q 2619 4750 2861 4703 
Q 3103 4656 3366 4563 
z
" transform="scale(0.015625)"/>
       </defs>
       <use xlink:href="#DejaVuSans-36"/>
       <use xlink:href="#DejaVuSans-30" x="63.623047"/>
      </g>
     </g>
    </g>
    <g id="xtick_5">
     <g id="line2d_5">
      <g>
       <use xlink:href="#me26d868e1c" x="319.936625" y="288.21825" style="stroke: #000000; stroke-width: 0.8"/>
      </g>
     </g>
     <g id="text_5">
      <!-- 80 -->
      <g transform="translate(313.574125 302.816687)scale(0.1 -0.1)">
       <defs>
        <path id="DejaVuSans-38" d="M 2034 2216 
Q 1584 2216 1326 1975 
Q 1069 1734 1069 1313 
Q 1069 891 1326 650 
Q 1584 409 2034 409 
Q 2484 409 2743 651 
Q 3003 894 3003 1313 
Q 3003 1734 2745 1975 
Q 2488 2216 2034 2216 
z
M 1403 2484 
Q 997 2584 770 2862 
Q 544 3141 544 3541 
Q 544 4100 942 4425 
Q 1341 4750 2034 4750 
Q 2731 4750 3128 4425 
Q 3525 4100 3525 3541 
Q 3525 3141 3298 2862 
Q 3072 2584 2669 2484 
Q 3125 2378 3379 2068 
Q 3634 1759 3634 1313 
Q 3634 634 3220 271 
Q 2806 -91 2034 -91 
Q 1263 -91 848 271 
Q 434 634 434 1313 
Q 434 1759 690 2068 
Q 947 2378 1403 2484 
z
M 1172 3481 
Q 1172 3119 1398 2916 
Q 1625 2713 2034 2713 
Q 2441 2713 2670 2916 
Q 2900 3119 2900 3481 
Q 2900 3844 2670 4047 
Q 2441 4250 2034 4250 
Q 1625 4250 1398 4047 
Q 1172 3844 1172 3481 
z
" transform="scale(0.015625)"/>
       </defs>
       <use xlink:href="#DejaVuSans-38"/>
       <use xlink:href="#DejaVuSans-30" x="63.623047"/>
      </g>
     </g>
    </g>
    <g id="xtick_6">
     <g id="line2d_6">
      <g>
       <use xlink:href="#me26d868e1c" x="391.360625" y="288.21825" style="stroke: #000000; stroke-width: 0.8"/>
      </g>
     </g>
     <g id="text_6">
      <!-- 100 -->
      <g transform="translate(381.816875 302.816687)scale(0.1 -0.1)">
       <defs>
        <path id="DejaVuSans-31" d="M 794 531 
L 1825 531 
L 1825 4091 
L 703 3866 
L 703 4441 
L 1819 4666 
L 2450 4666 
L 2450 531 
L 3481 531 
L 3481 0 
L 794 0 
L 794 531 
z
" transform="scale(0.015625)"/>
       </defs>
       <use xlink:href="#DejaVuSans-31"/>
       <use xlink:href="#DejaVuSans-30" x="63.623047"/>
       <use xlink:href="#DejaVuSans-30" x="127.246094"/>
      </g>
     </g>
    </g>
    <g id="text_7">
     <!-- axialRotation -->
     <g transform="translate(180.024844 316.494812)scale(0.1 -0.1)">
      <defs>
       <path id="DejaVuSans-61" d="M 2194 1759 
Q 1497 1759 1228 1600 
Q 959 1441 959 1056 
Q 959 750 1161 570 
Q 1363 391 1709 391 
Q 2188 391 2477 730 
Q 2766 1069 2766 1631 
L 2766 1759 
L 2194 1759 
z
M 3341 1997 
L 3341 0 
L 2766 0 
L 2766 531 
Q 2569 213 2275 61 
Q 1981 -91 1556 -91 
Q 1019 -91 701 211 
Q 384 513 384 1019 
Q 384 1609 779 1909 
Q 1175 2209 1959 2209 
L 2766 2209 
L 2766 2266 
Q 2766 2663 2505 2880 
Q 2244 3097 1772 3097 
Q 1472 3097 1187 3025 
Q 903 2953 641 2809 
L 641 3341 
Q 956 3463 1253 3523 
Q 1550 3584 1831 3584 
Q 2591 3584 2966 3190 
Q 3341 2797 3341 1997 
z
" transform="scale(0.015625)"/>
       <path id="DejaVuSans-78" d="M 3513 3500 
L 2247 1797 
L 3578 0 
L 2900 0 
L 1881 1375 
L 863 0 
L 184 0 
L 1544 1831 
L 300 3500 
L 978 3500 
L 1906 2253 
L 2834 3500 
L 3513 3500 
z
" transform="scale(0.015625)"/>
       <path id="DejaVuSans-69" d="M 603 3500 
L 1178 3500 
L 1178 0 
L 603 0 
L 603 3500 
z
M 603 4863 
L 1178 4863 
L 1178 4134 
L 603 4134 
L 603 4863 
z
" transform="scale(0.015625)"/>
       <path id="DejaVuSans-6c" d="M 603 4863 
L 1178 4863 
L 1178 0 
L 603 0 
L 603 4863 
z
" transform="scale(0.015625)"/>
       <path id="DejaVuSans-52" d="M 2841 2188 
Q 3044 2119 3236 1894 
Q 3428 1669 3622 1275 
L 4263 0 
L 3584 0 
L 2988 1197 
Q 2756 1666 2539 1819 
Q 2322 1972 1947 1972 
L 1259 1972 
L 1259 0 
L 628 0 
L 628 4666 
L 2053 4666 
Q 2853 4666 3247 4331 
Q 3641 3997 3641 3322 
Q 3641 2881 3436 2590 
Q 3231 2300 2841 2188 
z
M 1259 4147 
L 1259 2491 
L 2053 2491 
Q 2509 2491 2742 2702 
Q 2975 2913 2975 3322 
Q 2975 3731 2742 3939 
Q 2509 4147 2053 4147 
L 1259 4147 
z
" transform="scale(0.015625)"/>
       <path id="DejaVuSans-6f" d="M 1959 3097 
Q 1497 3097 1228 2736 
Q 959 2375 959 1747 
Q 959 1119 1226 758 
Q 1494 397 1959 397 
Q 2419 397 2687 759 
Q 2956 1122 2956 1747 
Q 2956 2369 2687 2733 
Q 2419 3097 1959 3097 
z
M 1959 3584 
Q 2709 3584 3137 3096 
Q 3566 2609 3566 1747 
Q 3566 888 3137 398 
Q 2709 -91 1959 -91 
Q 1206 -91 779 398 
Q 353 888 353 1747 
Q 353 2609 779 3096 
Q 1206 3584 1959 3584 
z
" transform="scale(0.015625)"/>
       <path id="DejaVuSans-74" d="M 1172 4494 
L 1172 3500 
L 2356 3500 
L 2356 3053 
L 1172 3053 
L 1172 1153 
Q 1172 725 1289 603 
Q 1406 481 1766 481 
L 2356 481 
L 2356 0 
L 1766 0 
Q 1100 0 847 248 
Q 594 497 594 1153 
L 594 3053 
L 172 3053 
L 172 3500 
L 594 3500 
L 594 4494 
L 1172 4494 
z
" transform="scale(0.015625)"/>
       <path id="DejaVuSans-6e" d="M 3513 2113 
L 3513 0 
L 2938 0 
L 2938 2094 
Q 2938 2591 2744 2837 
Q 2550 3084 2163 3084 
Q 1697 3084 1428 2787 
Q 1159 2491 1159 1978 
L 1159 0 
L 581 0 
L 581 3500 
L 1159 3500 
L 1159 2956 
Q 1366 3272 1645 3428 
Q 1925 3584 2291 3584 
Q 2894 3584 3203 3211 
Q 3513 2838 3513 2113 
z
" transform="scale(0.015625)"/>
      </defs>
      <use xlink:href="#DejaVuSans-61"/>
      <use xlink:href="#DejaVuSans-78" x="61.279297"/>
      <use xlink:href="#DejaVuSans-69" x="120.458984"/>
      <use xlink:href="#DejaVuSans-61" x="148.242188"/>
      <use xlink:href="#DejaVuSans-6c" x="209.521484"/>
      <use xlink:href="#DejaVuSans-52" x="237.304688"/>
      <use xlink:href="#DejaVuSans-6f" x="302.287109"/>
      <use xlink:href="#DejaVuSans-74" x="363.46875"/>
      <use xlink:href="#DejaVuSans-61" x="402.677734"/>
      <use xlink:href="#DejaVuSans-74" x="463.957031"/>
      <use xlink:href="#DejaVuSans-69" x="503.166016"/>
      <use xlink:href="#DejaVuSans-6f" x="530.949219"/>
      <use xlink:href="#DejaVuSans-6e" x="592.130859"/>
     </g>
    </g>
   </g>
   <g id="matplotlib.axis_2">
    <g id="ytick_1">
     <g id="line2d_7">
      <defs>
       <path id="mcdcfc390df" d="M 0 0 
L -3.5 0 
" style="stroke: #000000; stroke-width: 0.8"/>
      </defs>
      <g>
       <use xlink:href="#mcdcfc390df" x="34.240625" y="288.21825" style="stroke: #000000; stroke-width: 0.8"/>
      </g>
     </g>
     <g id="text_8">
      <!-- 0 -->
      <g transform="translate(20.878125 292.017469)scale(0.1 -0.1)">
       <use xlink:href="#DejaVuSans-30"/>
      </g>
     </g>
    </g>
    <g id="ytick_2">
     <g id="line2d_8">
      <g>
       <use xlink:href="#mcdcfc390df" x="34.240625" y="243.86625" style="stroke: #000000; stroke-width: 0.8"/>
      </g>
     </g>
     <g id="text_9">
      <!-- 1 -->
      <g transform="translate(20.878125 247.665469)scale(0.1 -0.1)">
       <use xlink:href="#DejaVuSans-31"/>
      </g>
     </g>
    </g>
    <g id="ytick_3">
     <g id="line2d_9">
      <g>
       <use xlink:href="#mcdcfc390df" x="34.240625" y="199.51425" style="stroke: #000000; stroke-width: 0.8"/>
      </g>
     </g>
     <g id="text_10">
      <!-- 2 -->
      <g transform="translate(20.878125 203.313469)scale(0.1 -0.1)">
       <use xlink:href="#DejaVuSans-32"/>
      </g>
     </g>
    </g>
    <g id="ytick_4">
     <g id="line2d_10">
      <g>
       <use xlink:href="#mcdcfc390df" x="34.240625" y="155.16225" style="stroke: #000000; stroke-width: 0.8"/>
      </g>
     </g>
     <g id="text_11">
      <!-- 3 -->
      <g transform="translate(20.878125 158.961469)scale(0.1 -0.1)">
       <defs>
        <path id="DejaVuSans-33" d="M 2597 2516 
Q 3050 2419 3304 2112 
Q 3559 1806 3559 1356 
Q 3559 666 3084 287 
Q 2609 -91 1734 -91 
Q 1441 -91 1130 -33 
Q 819 25 488 141 
L 488 750 
Q 750 597 1062 519 
Q 1375 441 1716 441 
Q 2309 441 2620 675 
Q 2931 909 2931 1356 
Q 2931 1769 2642 2001 
Q 2353 2234 1838 2234 
L 1294 2234 
L 1294 2753 
L 1863 2753 
Q 2328 2753 2575 2939 
Q 2822 3125 2822 3475 
Q 2822 3834 2567 4026 
Q 2313 4219 1838 4219 
Q 1578 4219 1281 4162 
Q 984 4106 628 3988 
L 628 4550 
Q 988 4650 1302 4700 
Q 1616 4750 1894 4750 
Q 2613 4750 3031 4423 
Q 3450 4097 3450 3541 
Q 3450 3153 3228 2886 
Q 3006 2619 2597 2516 
z
" transform="scale(0.015625)"/>
       </defs>
       <use xlink:href="#DejaVuSans-33"/>
      </g>
     </g>
    </g>
    <g id="ytick_5">
     <g id="line2d_11">
      <g>
       <use xlink:href="#mcdcfc390df" x="34.240625" y="110.81025" style="stroke: #000000; stroke-width: 0.8"/>
      </g>
     </g>
     <g id="text_12">
      <!-- 4 -->
      <g transform="translate(20.878125 114.609469)scale(0.1 -0.1)">
       <use xlink:href="#DejaVuSans-34"/>
      </g>
     </g>
    </g>
    <g id="ytick_6">
     <g id="line2d_12">
      <g>
       <use xlink:href="#mcdcfc390df" x="34.240625" y="66.45825" style="stroke: #000000; stroke-width: 0.8"/>
      </g>
     </g>
     <g id="text_13">
      <!-- 5 -->
      <g transform="translate(20.878125 70.257469)scale(0.1 -0.1)">
       <defs>
        <path id="DejaVuSans-35" d="M 691 4666 
L 3169 4666 
L 3169 4134 
L 1269 4134 
L 1269 2991 
Q 1406 3038 1543 3061 
Q 1681 3084 1819 3084 
Q 2600 3084 3056 2656 
Q 3513 2228 3513 1497 
Q 3513 744 3044 326 
Q 2575 -91 1722 -91 
Q 1428 -91 1123 -41 
Q 819 9 494 109 
L 494 744 
Q 775 591 1075 516 
Q 1375 441 1709 441 
Q 2250 441 2565 725 
Q 2881 1009 2881 1497 
Q 2881 1984 2565 2268 
Q 2250 2553 1709 2553 
Q 1456 2553 1204 2497 
Q 953 2441 691 2322 
L 691 4666 
z
" transform="scale(0.015625)"/>
       </defs>
       <use xlink:href="#DejaVuSans-35"/>
      </g>
     </g>
    </g>
    <g id="ytick_7">
     <g id="line2d_13">
      <g>
       <use xlink:href="#mcdcfc390df" x="34.240625" y="22.10625" style="stroke: #000000; stroke-width: 0.8"/>
      </g>
     </g>
     <g id="text_14">
      <!-- 6 -->
      <g transform="translate(20.878125 25.905469)scale(0.1 -0.1)">
       <use xlink:href="#DejaVuSans-36"/>
      </g>
     </g>
    </g>
    <g id="text_15">
     <!-- zShift -->
     <g transform="translate(14.798438 169.151312)rotate(-90)scale(0.1 -0.1)">
      <defs>
       <path id="DejaVuSans-7a" d="M 353 3500 
L 3084 3500 
L 3084 2975 
L 922 459 
L 3084 459 
L 3084 0 
L 275 0 
L 275 525 
L 2438 3041 
L 353 3041 
L 353 3500 
z
" transform="scale(0.015625)"/>
       <path id="DejaVuSans-53" d="M 3425 4513 
L 3425 3897 
Q 3066 4069 2747 4153 
Q 2428 4238 2131 4238 
Q 1616 4238 1336 4038 
Q 1056 3838 1056 3469 
Q 1056 3159 1242 3001 
Q 1428 2844 1947 2747 
L 2328 2669 
Q 3034 2534 3370 2195 
Q 3706 1856 3706 1288 
Q 3706 609 3251 259 
Q 2797 -91 1919 -91 
Q 1588 -91 1214 -16 
Q 841 59 441 206 
L 441 856 
Q 825 641 1194 531 
Q 1563 422 1919 422 
Q 2459 422 2753 634 
Q 3047 847 3047 1241 
Q 3047 1584 2836 1778 
Q 2625 1972 2144 2069 
L 1759 2144 
Q 1053 2284 737 2584 
Q 422 2884 422 3419 
Q 422 4038 858 4394 
Q 1294 4750 2059 4750 
Q 2388 4750 2728 4690 
Q 3069 4631 3425 4513 
z
" transform="scale(0.015625)"/>
       <path id="DejaVuSans-68" d="M 3513 2113 
L 3513 0 
L 2938 0 
L 2938 2094 
Q 2938 2591 2744 2837 
Q 2550 3084 2163 3084 
Q 1697 3084 1428 2787 
Q 1159 2491 1159 1978 
L 1159 0 
L 581 0 
L 581 4863 
L 1159 4863 
L 1159 2956 
Q 1366 3272 1645 3428 
Q 1925 3584 2291 3584 
Q 2894 3584 3203 3211 
Q 3513 2838 3513 2113 
z
" transform="scale(0.015625)"/>
       <path id="DejaVuSans-66" d="M 2375 4863 
L 2375 4384 
L 1825 4384 
Q 1516 4384 1395 4259 
Q 1275 4134 1275 3809 
L 1275 3500 
L 2222 3500 
L 2222 3053 
L 1275 3053 
L 1275 0 
L 697 0 
L 697 3053 
L 147 3053 
L 147 3500 
L 697 3500 
L 697 3744 
Q 697 4328 969 4595 
Q 1241 4863 1831 4863 
L 2375 4863 
z
" transform="scale(0.015625)"/>
      </defs>
      <use xlink:href="#DejaVuSans-7a"/>
      <use xlink:href="#DejaVuSans-53" x="52.490234"/>
      <use xlink:href="#DejaVuSans-68" x="115.966797"/>
      <use xlink:href="#DejaVuSans-69" x="179.345703"/>
      <use xlink:href="#DejaVuSans-66" x="207.128906"/>
      <use xlink:href="#DejaVuSans-74" x="240.583984"/>
     </g>
    </g>
   </g>
   <g id="PathCollection_1"/>
   <g id="PathCollection_2">
    <path d="M 34.240625 135.494565 
L 34.474167 135.20385 
L 36.026225 133.22178 
L 36.929495 132.09921 
L 37.847537 130.926147 
L 39.024446 129.43809 
L 39.633137 128.649187 
L 41.090959 126.77697 
L 41.418737 126.343607 
L 43.114031 124.11585 
L 43.204337 123.992984 
L 45.025649 121.513041 
L 45.068313 121.45473 
L 46.811249 118.968113 
L 46.932986 118.79361 
L 48.596849 116.279583 
L 48.693113 116.13249 
L 50.323579 113.47137 
L 50.382449 113.36763 
L 51.79539 110.81025 
L 52.203761 110.009739 
L 53.121198 108.14913 
L 53.989361 106.233407 
L 54.314274 105.48801 
L 55.369915 102.82689 
L 55.774961 101.728149 
L 56.324797 100.16577 
L 57.222302 97.50465 
L 57.560561 96.489073 
L 58.083709 94.84353 
L 58.963479 92.18241 
L 59.381873 91.001537 
L 59.886651 89.52129 
L 61.077508 86.41665 
L 61.167473 86.205553 
L 62.187067 83.75553 
L 62.953073 82.134908 
L 63.437381 81.09441 
L 64.738673 78.602153 
L 64.826096 78.43329 
L 66.330837 75.77217 
L 66.559985 75.397779 
L 67.962215 73.11105 
L 68.345585 72.524168 
L 69.710192 70.44993 
L 70.131185 69.838754 
L 71.557828 67.78881 
L 71.916785 67.288787 
L 73.486455 65.12769 
L 73.738097 64.788274 
L 75.482378 62.46657 
L 75.523697 62.412079 
L 77.309297 60.070179 
L 77.513724 59.80545 
L 79.094897 57.761762 
L 79.579572 57.14433 
L 80.916209 55.438687 
L 81.676317 54.48321 
L 82.701809 53.184697 
L 83.795474 51.82209 
L 84.487409 50.950909 
L 85.932577 49.16097 
L 86.273009 48.733816 
L 88.081642 46.49985 
L 88.094321 46.483855 
L 89.879921 44.233756 
L 90.565963 43.39521 
L 91.665521 42.020919 
L 92.712 40.73409 
L 93.451121 39.811961 
L 94.867973 38.07297 
L 95.272433 37.570545 
L 97.041287 35.41185 
L 97.058033 35.391157 
L 98.843633 33.192639 
L 99.209484 32.75073 
L 100.629233 31.01956 
L 101.408836 30.08961 
L 102.450545 28.838893 
L 103.655868 27.42849 
L 104.236145 26.744828 
L 105.968139 24.76737 
L 106.021745 24.705821 
L 107.807345 22.682155 
L 108.333817 22.10625 
" clip-path="url(#p592b9856c2)" style="fill: none; stroke: #dbe9f6; stroke-width: 1.5"/>
    <path d="M 118.264979 288.21825 
L 118.306258 285.55713 
L 118.653805 282.89601 
L 119.255465 280.23489 
L 120.377969 276.99087 
L 121.22431 274.91265 
L 122.537453 272.25153 
L 124.036107 269.59041 
L 125.770481 266.784302 
L 129.624679 261.16353 
L 134.734193 254.358386 
L 150.876017 233.61235 
L 153.967528 229.23009 
L 156.268529 225.600426 
L 158.054129 222.429143 
L 159.875441 218.748877 
L 160.151053 218.14209 
L 161.661041 214.251337 
L 162.974734 210.15873 
L 164.41287 204.83649 
L 166.626049 196.85313 
L 168.506682 191.53089 
L 169.629493 188.86977 
L 170.942993 186.20865 
L 172.436507 183.54753 
L 174.231665 180.65512 
L 177.802865 175.669809 
L 180.377737 172.45953 
L 185.03957 167.13729 
L 203.83 145.84833 
L 215.479025 131.704083 
L 228.053088 116.13249 
L 256.762097 80.067867 
L 260.369009 75.067864 
L 263.368995 70.44993 
L 265.725809 66.202082 
L 267.496711 62.46657 
L 268.531756 59.80545 
L 269.475068 57.14433 
L 271.800858 49.16097 
L 273.578783 43.39521 
L 274.725233 40.426 
L 275.722054 38.07297 
L 277.069496 35.41185 
L 278.62617 32.75073 
L 280.382055 30.08961 
L 283.688945 25.718236 
L 285.474545 23.574743 
L 286.757119 22.10625 
L 286.757119 22.10625 
" clip-path="url(#p592b9856c2)" style="fill: none; stroke: #dbe9f6; stroke-width: 1.5"/>
    <path d="M 254.451369 22.10625 
L 254.548264 24.76737 
L 254.333654 27.42849 
L 253.802989 30.08961 
L 252.958246 32.75073 
L 251.369585 36.325488 
L 250.480767 38.07297 
L 247.798385 42.350258 
L 246.012785 44.923414 
L 242.405873 49.732292 
L 234.388854 59.80545 
L 188.587889 116.873004 
L 184.980977 121.67695 
L 181.409777 126.859301 
L 179.588465 129.833886 
L 177.802865 133.126825 
L 176.017265 136.925381 
L 175.618746 137.86497 
L 174.231665 141.672431 
L 172.970084 145.84833 
L 168.839153 160.366979 
L 168.336591 161.81505 
L 166.06638 167.13729 
L 164.676995 169.79841 
L 163.106604 172.45953 
L 159.875441 177.232277 
L 157.038965 180.88641 
L 152.477281 186.20865 
L 145.519217 193.920383 
L 135.879099 204.83649 
L 126.959184 215.48097 
L 100.629233 248.001729 
L 89.879921 261.178325 
L 82.701809 269.7467 
L 77.309297 275.967875 
L 71.916785 281.81724 
L 66.559985 287.128861 
L 65.354533 288.21825 
L 65.354533 288.21825 
" clip-path="url(#p592b9856c2)" style="fill: none; stroke: #dbe9f6; stroke-width: 1.5"/>
    <path d="M 296.155072 288.21825 
L 296.052266 285.55713 
L 296.259569 283.179191 
L 296.282297 282.89601 
L 296.792275 280.23489 
L 297.627567 277.57377 
L 298.045169 276.600729 
L 298.738404 274.91265 
L 299.830769 272.831705 
L 300.125684 272.25153 
L 301.616369 269.784238 
L 301.730719 269.59041 
L 303.437681 267.034274 
L 303.506666 266.92929 
L 305.223281 264.520934 
L 305.724091 263.82465 
L 307.008881 262.126165 
L 307.734769 261.16353 
L 308.794481 259.802737 
L 309.807397 258.50241 
L 310.615793 257.48376 
L 311.924806 255.84129 
L 312.401393 255.246207 
L 314.070491 253.18017 
L 314.186993 253.035349 
L 315.972593 250.812379 
L 316.209339 250.51905 
L 317.793905 248.539625 
L 318.346213 247.85793 
L 319.579505 246.311879 
L 320.481335 245.19681 
L 321.365105 244.081719 
L 322.607557 242.53569 
L 323.150705 241.843055 
L 324.713447 239.87457 
L 324.972017 239.539955 
L 326.757617 237.250496 
L 326.786444 237.21345 
L 328.543217 234.880434 
L 328.79219 234.55233 
L 330.328817 232.445283 
L 330.734099 231.89121 
L 332.150129 229.862525 
L 332.590618 229.23009 
L 333.935729 227.180617 
L 334.334147 226.56897 
L 335.721329 224.281291 
L 335.944492 223.90785 
L 337.506929 221.022685 
L 337.624464 220.80321 
L 338.87311 218.14209 
L 339.328241 217.06606 
L 339.974527 215.48097 
L 340.955522 212.81985 
L 341.113841 212.336372 
L 341.797633 210.15873 
L 342.588214 207.49761 
L 342.899441 206.404554 
L 343.329073 204.83649 
L 344.071531 202.17537 
L 344.685041 200.159352 
L 344.876233 199.51425 
L 345.728827 196.85313 
L 346.506353 194.803741 
L 346.737131 194.19201 
L 347.875593 191.53089 
L 348.291953 190.686488 
L 349.20818 188.86977 
L 350.077553 187.377588 
L 350.785565 186.20865 
L 351.863153 184.622124 
L 352.63326 183.54753 
L 353.684465 182.209538 
L 354.799544 180.88641 
L 355.470065 180.141355 
L 357.255665 178.311317 
L 357.342014 178.22529 
L 359.041265 176.582934 
L 360.786313 175.12065 
L 360.862577 175.057875 
L 362.648177 173.609517 
L 364.24548 172.45953 
L 364.433777 172.324813 
L 366.219377 171.082975 
L 368.040689 169.960593 
L 368.316685 169.79841 
L 369.826289 168.89902 
L 371.611889 167.943174 
L 373.298601 167.13729 
L 373.397489 167.08857 
L 375.218801 166.248075 
L 377.004401 165.527149 
L 378.790001 164.899479 
L 380.177433 164.47617 
L 380.575601 164.347655 
L 382.396913 163.839928 
L 384.182513 163.43402 
L 385.968113 163.11616 
L 387.753713 162.885008 
L 389.575025 162.738687 
L 391.360625 162.684539 
" clip-path="url(#p592b9856c2)" style="fill: none; stroke: #dbe9f6; stroke-width: 1.5"/>
    <path d="M 391.360625 86.0935 
L 373.397489 108.451303 
L 367.352704 116.13249 
L 362.648177 122.446886 
L 359.67863 126.77697 
L 357.255665 130.77432 
L 355.470065 134.155684 
L 354.949096 135.20385 
L 353.684465 138.086258 
L 351.851389 143.18721 
L 349.605801 151.17057 
L 348.106486 156.49281 
L 346.506353 161.358948 
L 345.320843 164.47617 
L 344.139344 167.13729 
L 342.786096 169.79841 
L 341.113841 172.751985 
L 339.328241 175.568389 
L 335.422631 180.88641 
L 332.150129 184.862042 
L 326.757617 190.946177 
L 314.186993 205.115147 
L 307.008881 213.691166 
L 301.203383 220.80321 
L 292.59785 231.89121 
L 288.892548 237.21345 
L 287.208024 239.87457 
L 285.474545 242.934628 
L 283.688945 246.570233 
L 282.044435 250.51905 
L 281.136447 253.18017 
L 279.538685 258.50241 
L 278.004245 263.82465 
L 276.510833 268.244298 
L 276.018355 269.59041 
L 274.725233 272.494546 
L 272.903921 275.971843 
L 271.118321 278.873081 
L 269.332721 281.449053 
L 267.547121 283.801868 
L 265.725809 286.031104 
L 263.823505 288.21825 
L 263.823505 288.21825 
" clip-path="url(#p592b9856c2)" style="fill: none; stroke: #dbe9f6; stroke-width: 1.5"/>
   </g>
   <g id="PathCollection_3">
    <path d="M 34.240625 150.768418 
L 36.008865 148.50945 
L 36.026225 148.48733 
L 37.847537 146.173674 
L 38.10564 145.84833 
L 39.633137 143.920646 
L 40.21913 143.18721 
L 41.418737 141.678575 
L 42.342342 140.52609 
L 43.204337 139.441711 
L 44.466251 137.86497 
L 45.025649 137.158647 
L 46.582999 135.20385 
L 46.811249 134.911748 
L 48.596849 132.635814 
L 49.020445 132.09921 
L 50.382449 130.334415 
L 51.075696 129.43809 
L 52.203761 127.946473 
L 53.088323 126.77697 
L 53.989361 125.549772 
L 55.039885 124.11585 
L 55.774961 123.073268 
L 56.909693 121.45473 
L 57.560561 120.479542 
L 58.674425 118.79361 
L 59.381873 117.655368 
L 60.314716 116.13249 
L 61.167473 114.632133 
L 61.8153 113.47137 
L 62.953073 111.248383 
L 63.172543 110.81025 
L 64.378891 108.14913 
L 64.738673 107.275529 
L 65.455327 105.48801 
L 66.437549 102.82689 
L 66.559985 102.471368 
L 67.332776 100.16577 
L 68.205382 97.50465 
L 68.345585 97.079416 
L 69.066745 94.84353 
L 69.979889 92.18241 
L 70.131185 91.773707 
L 70.953339 89.52129 
L 71.916785 87.179315 
L 72.229703 86.41665 
L 73.454266 83.75553 
L 73.738097 83.19869 
L 74.810446 81.09441 
L 75.523697 79.824044 
L 76.307731 78.43329 
L 77.309297 76.79323 
L 77.937057 75.77217 
L 79.094897 74.003537 
L 79.683823 73.11105 
L 80.916209 71.330708 
L 81.531237 70.44993 
L 82.701809 68.828514 
L 83.459516 67.78881 
L 84.487409 66.409607 
L 85.45192 65.12769 
L 86.273009 64.051557 
L 87.493473 62.46657 
L 88.094321 61.692904 
L 89.573685 59.80545 
L 89.879921 59.415864 
L 91.665521 57.165211 
L 91.682115 57.14433 
L 93.451121 54.917597 
L 93.799055 54.48321 
L 95.272433 52.639219 
L 95.930641 51.82209 
L 97.058033 50.414885 
L 98.071185 49.16097 
L 98.843633 48.198448 
L 100.21871 46.49985 
L 100.629233 45.986919 
L 102.450545 43.73668 
L 102.72871 43.39521 
L 104.236145 41.52858 
L 104.884035 40.73409 
L 106.021745 39.333974 
L 107.058278 38.07297 
L 107.807345 37.160299 
L 109.261946 35.41185 
L 109.628657 34.971776 
L 111.414257 32.8598 
L 111.507233 32.75073 
L 113.199857 30.776283 
L 113.80127 30.08961 
L 114.985457 28.748824 
L 116.183557 27.42849 
L 116.806769 26.749973 
L 118.592369 24.867557 
L 118.689308 24.76737 
L 120.377969 23.051678 
L 121.352691 22.10625 
" clip-path="url(#p592b9856c2)" style="fill: none; stroke: #bad6eb; stroke-width: 1.5"/>
    <path d="M 131.067477 288.21825 
L 130.816672 285.55713 
L 130.978436 282.89601 
L 131.493257 280.23489 
L 132.317799 277.57377 
L 133.416397 274.91265 
L 134.750633 272.25153 
L 136.519793 269.191493 
L 138.341105 266.345659 
L 141.985127 261.16353 
L 147.304817 254.177921 
L 160.511227 237.21345 
L 164.298927 231.89121 
L 167.053553 227.57304 
L 169.131641 223.90785 
L 170.663596 220.80321 
L 172.840809 215.48097 
L 174.640089 210.15873 
L 177.224792 202.17537 
L 179.291633 196.85313 
L 181.409777 192.403347 
L 181.854835 191.53089 
L 183.353798 188.86977 
L 186.766577 183.511266 
L 190.54754 178.22529 
L 195.766001 171.466536 
L 205.743231 159.15393 
L 231.92966 126.77697 
L 266.315967 83.75553 
L 270.210901 78.43329 
L 273.731536 73.11105 
L 275.301086 70.44993 
L 276.727089 67.78881 
L 278.296433 64.438202 
L 280.149909 59.80545 
L 282.77699 51.82209 
L 284.578739 46.49985 
L 285.793502 43.39521 
L 287.260145 40.152167 
L 289.081457 36.673933 
L 290.867057 33.705141 
L 292.652657 31.057184 
L 294.438257 28.65206 
L 296.259569 26.39916 
L 298.045169 24.358682 
L 300.183918 22.10625 
L 300.183918 22.10625 
" clip-path="url(#p592b9856c2)" style="fill: none; stroke: #bad6eb; stroke-width: 1.5"/>
    <path d="M 241.05097 22.10625 
L 241.320367 24.76737 
L 241.175457 27.42849 
L 240.620273 30.222659 
L 239.845093 32.75073 
L 238.735584 35.41185 
L 237.013361 38.740778 
L 235.227761 41.733783 
L 233.442161 44.456836 
L 229.835249 49.506631 
L 223.949344 57.14433 
L 211.907825 72.199879 
L 181.409777 110.172598 
L 176.807909 116.13249 
L 172.410353 122.225975 
L 169.454136 126.77697 
L 167.053553 131.058077 
L 166.513748 132.09921 
L 165.066137 135.20385 
L 163.004217 140.52609 
L 159.875441 150.166242 
L 158.61965 153.83169 
L 156.437531 159.15393 
L 154.482929 163.08907 
L 152.697329 166.252693 
L 150.478674 169.79841 
L 146.763579 175.12065 
L 141.912305 181.487977 
L 132.948593 192.620108 
L 116.543578 212.81985 
L 86.050728 250.51905 
L 79.094897 258.879935 
L 71.916785 267.127848 
L 67.142105 272.25153 
L 64.488749 274.91265 
L 61.167473 278.023893 
L 57.560561 281.064638 
L 53.989361 283.688024 
L 50.382449 285.90956 
L 46.811249 287.661892 
L 45.379048 288.21825 
L 45.379048 288.21825 
" clip-path="url(#p592b9856c2)" style="fill: none; stroke: #bad6eb; stroke-width: 1.5"/>
    <path d="M 309.541504 288.21825 
L 309.274624 285.55713 
L 309.417928 282.89601 
L 309.9237 280.23489 
L 310.615793 278.031316 
L 310.755173 277.57377 
L 311.852148 274.91265 
L 312.401393 273.830036 
L 313.190438 272.25153 
L 314.186993 270.53308 
L 314.728813 269.59041 
L 315.972593 267.643317 
L 316.42656 266.92929 
L 317.793905 264.937123 
L 318.562166 263.82465 
L 319.579505 262.423588 
L 320.496834 261.16353 
L 321.365105 260.008254 
L 322.502216 258.50241 
L 323.150705 257.660094 
L 324.559207 255.84129 
L 324.972017 255.313789 
L 326.653233 253.18017 
L 326.757617 253.047943 
L 328.543217 250.792153 
L 328.760403 250.51905 
L 330.328817 248.539455 
L 330.872453 247.85793 
L 332.150129 246.243044 
L 332.983367 245.19681 
L 333.935729 243.984604 
L 335.08156 242.53569 
L 335.721329 241.711708 
L 337.156022 239.87457 
L 337.506929 239.41435 
L 339.191932 237.21345 
L 339.328241 237.029943 
L 341.113841 234.628313 
L 341.170313 234.55233 
L 342.899441 232.128397 
L 343.068668 231.89121 
L 344.685041 229.503025 
L 344.869254 229.23009 
L 346.506353 226.640636 
L 346.551418 226.56897 
L 348.09154 223.90785 
L 348.291953 223.524915 
L 349.706533 220.80321 
L 350.077553 220.008574 
L 350.938832 218.14209 
L 351.863153 215.943566 
L 352.055701 215.48097 
L 353.069129 212.81985 
L 353.684465 211.120225 
L 354.030536 210.15873 
L 354.970604 207.49761 
L 355.470065 206.125047 
L 355.940934 204.83649 
L 356.98495 202.17537 
L 357.255665 201.545601 
L 358.144946 199.51425 
L 359.041265 197.698524 
L 359.471173 196.85313 
L 360.862577 194.425658 
L 361.002206 194.19201 
L 362.648177 191.718756 
L 362.780122 191.53089 
L 364.433777 189.382736 
L 364.855583 188.86977 
L 366.219377 187.329328 
L 367.292588 186.20865 
L 368.040689 185.470784 
L 369.826289 183.851274 
L 370.189918 183.54753 
L 371.611889 182.403237 
L 373.397489 181.115814 
L 373.749646 180.88641 
L 375.218801 179.949972 
L 377.004401 178.951956 
L 378.505802 178.22529 
L 378.790001 178.088533 
L 380.575601 177.355303 
L 382.396913 176.747465 
L 384.182513 176.287339 
L 385.968113 175.963151 
L 387.753713 175.779261 
L 389.575025 175.743782 
L 391.360625 175.868659 
" clip-path="url(#p592b9856c2)" style="fill: none; stroke: #bad6eb; stroke-width: 1.5"/>
    <path d="M 391.360625 70.847641 
L 382.396913 82.150296 
L 359.420565 110.81025 
L 353.347089 118.79361 
L 349.649561 124.11585 
L 347.966815 126.77697 
L 346.418546 129.43809 
L 344.685041 132.823277 
L 342.899441 136.858793 
L 341.513966 140.52609 
L 339.328241 147.226142 
L 337.506929 152.737427 
L 336.100213 156.49281 
L 333.935729 161.282775 
L 333.67895 161.81505 
L 332.150129 164.664116 
L 330.328817 167.738023 
L 327.214558 172.45953 
L 322.987394 178.22529 
L 317.793905 184.863974 
L 305.223281 200.33382 
L 290.844207 218.14209 
L 283.688945 227.358991 
L 280.082033 232.322795 
L 276.858208 237.21345 
L 274.725233 240.925045 
L 272.903921 244.542025 
L 271.462359 247.85793 
L 269.523802 253.18017 
L 265.725809 264.553377 
L 263.940209 268.873795 
L 263.622893 269.59041 
L 262.154609 272.494151 
L 260.369009 275.596154 
L 258.547697 278.399035 
L 256.762097 280.880542 
L 254.976497 283.152456 
L 251.369585 287.231062 
L 250.411768 288.21825 
L 250.411768 288.21825 
" clip-path="url(#p592b9856c2)" style="fill: none; stroke: #bad6eb; stroke-width: 1.5"/>
   </g>
   <g id="PathCollection_4">
    <path d="M 34.240625 163.385586 
L 35.315465 161.81505 
L 36.026225 160.818682 
L 37.222643 159.15393 
L 37.847537 158.309877 
L 39.20139 156.49281 
L 39.633137 155.925006 
L 41.233853 153.83169 
L 41.418737 153.593184 
L 43.204337 151.299675 
L 43.305121 151.17057 
L 45.025649 148.986384 
L 45.402587 148.50945 
L 46.811249 146.735675 
L 47.517962 145.84833 
L 48.596849 144.495304 
L 49.642308 143.18721 
L 50.382449 142.259067 
L 51.766581 140.52609 
L 52.203761 139.975827 
L 53.882287 137.86497 
L 53.989361 137.729135 
L 55.774961 135.462225 
L 55.978191 135.20385 
L 57.560561 133.164117 
L 58.386258 132.09921 
L 59.381873 130.790562 
L 60.407761 129.43809 
L 61.167473 128.412189 
L 62.373056 126.77697 
L 62.953073 125.964007 
L 64.263257 124.11585 
L 64.738673 123.41501 
L 66.056839 121.45473 
L 66.559985 120.662271 
L 67.733461 118.79361 
L 68.345585 117.745949 
L 69.276462 116.13249 
L 70.131185 114.517345 
L 70.677258 113.47137 
L 71.916785 110.852881 
L 71.936698 110.81025 
L 73.058844 108.14913 
L 73.738097 106.372337 
L 74.072109 105.48801 
L 74.998068 102.82689 
L 75.523697 101.235874 
L 75.874452 100.16577 
L 76.734823 97.50465 
L 77.309297 95.781124 
L 77.621113 94.84353 
L 78.56567 92.18241 
L 79.094897 90.823664 
L 79.603819 89.52129 
L 80.916209 86.528991 
L 80.965936 86.41665 
L 82.277624 83.75553 
L 82.701809 82.97456 
L 83.732277 81.09441 
L 84.487409 79.826495 
L 85.325162 78.43329 
L 86.273009 76.959374 
L 87.043529 75.77217 
L 88.094321 74.235546 
L 88.869688 73.11105 
L 89.879921 71.701418 
L 90.78339 70.44993 
L 91.665521 69.261555 
L 92.765643 67.78881 
L 93.451121 66.888952 
L 94.800053 65.12769 
L 95.272433 64.519315 
L 96.873983 62.46657 
L 97.058033 62.232733 
L 98.843633 59.972417 
L 98.97583 59.80545 
L 100.629233 57.729013 
L 101.096201 57.14433 
L 102.450545 55.453694 
L 103.230105 54.48321 
L 104.236145 53.231578 
L 105.372171 51.82209 
L 106.021745 51.015584 
L 107.519866 49.16097 
L 107.807345 48.804734 
L 109.628657 46.554901 
L 109.67326 46.49985 
L 111.414257 44.352896 
L 112.195465 43.39521 
L 113.199857 42.167955 
L 114.380435 40.73409 
L 114.985457 40.004178 
L 116.599918 38.07297 
L 116.806769 37.828094 
L 118.592369 35.734452 
L 118.870295 35.41185 
L 120.377969 33.691162 
L 121.215777 32.75073 
L 122.163569 31.709197 
L 123.671475 30.08961 
L 123.984881 29.761682 
L 125.770481 27.939298 
L 126.285348 27.42849 
L 127.556081 26.210293 
L 129.127226 24.76737 
L 129.341681 24.577596 
L 131.162993 23.028462 
L 132.308913 22.10625 
" clip-path="url(#p592b9856c2)" style="fill: none; stroke: #89bedc; stroke-width: 1.5"/>
    <path d="M 142.009051 288.21825 
L 141.221785 285.55713 
L 141.022321 282.89601 
L 141.300598 280.23489 
L 141.974479 277.57377 
L 142.97474 274.91265 
L 144.245425 272.25153 
L 145.735475 269.59041 
L 147.400117 266.92929 
L 151.432489 261.16353 
L 157.550706 253.18017 
L 167.870062 239.87457 
L 171.696046 234.55233 
L 174.231665 230.674465 
L 176.644115 226.56897 
L 178.020193 223.90785 
L 179.588465 220.453645 
L 181.50399 215.48097 
L 186.766577 200.213039 
L 188.23668 196.85313 
L 190.373489 192.721657 
L 192.159089 189.667699 
L 194.379657 186.20865 
L 198.148802 180.88641 
L 202.944113 174.602254 
L 211.907825 163.380583 
L 262.823198 100.16577 
L 271.28086 89.52129 
L 276.510833 82.590273 
L 279.4371 78.43329 
L 281.903345 74.574683 
L 283.688945 71.483729 
L 285.474545 68.011643 
L 285.584424 67.78881 
L 287.260145 63.909666 
L 288.79761 59.80545 
L 293.344086 46.49985 
L 294.665294 43.39521 
L 296.259569 40.179994 
L 298.045169 37.062453 
L 299.830769 34.324409 
L 301.616369 31.875917 
L 303.437681 29.615161 
L 305.377351 27.42849 
L 308.794481 24.069017 
L 311.082304 22.10625 
L 311.082304 22.10625 
" clip-path="url(#p592b9856c2)" style="fill: none; stroke: #89bedc; stroke-width: 1.5"/>
    <path d="M 230.038225 22.10625 
L 230.830673 24.76737 
L 231.034344 27.42849 
L 230.758414 30.08961 
L 229.835249 33.406812 
L 229.083677 35.41185 
L 227.809781 38.07297 
L 226.264049 40.817033 
L 224.478449 43.644111 
L 220.605395 49.16097 
L 215.479025 55.853132 
L 205.97283 67.78881 
L 169.45553 113.47137 
L 165.232241 119.255703 
L 162.00667 124.11585 
L 159.875441 127.768307 
L 158.054129 131.304141 
L 157.668301 132.09921 
L 156.268529 135.336195 
L 154.35939 140.52609 
L 150.831004 151.17057 
L 148.695725 156.49281 
L 147.304817 159.408029 
L 145.519217 162.718704 
L 142.824228 167.13729 
L 139.146654 172.45953 
L 134.734193 178.328538 
L 127.556081 187.396067 
L 86.273009 238.498066 
L 76.267799 250.51905 
L 71.621294 255.84129 
L 66.559985 261.325834 
L 62.953073 264.956216 
L 59.381873 268.243142 
L 55.774961 271.183323 
L 52.203761 273.649949 
L 50.00264 274.91265 
L 48.596849 275.626997 
L 46.811249 276.389862 
L 45.025649 277.001872 
L 42.40795 277.57377 
L 41.418737 277.717673 
L 39.633137 277.776981 
L 37.654013 277.57377 
L 36.026225 277.176441 
L 34.240625 276.433788 
L 34.240625 276.433788 
" clip-path="url(#p592b9856c2)" style="fill: none; stroke: #89bedc; stroke-width: 1.5"/>
    <path d="M 320.561777 288.21825 
L 319.764725 285.55713 
L 319.579505 283.147682 
L 319.561186 282.89601 
L 319.579505 282.725282 
L 319.838501 280.23489 
L 320.511533 277.57377 
L 321.365105 275.316475 
L 321.515219 274.91265 
L 322.788909 272.25153 
L 323.150705 271.611045 
L 324.283259 269.59041 
L 324.972017 268.496399 
L 325.954233 266.92929 
L 326.757617 265.754118 
L 328.076402 263.82465 
L 328.543217 263.181064 
L 330.007524 261.16353 
L 330.328817 260.736915 
L 332.014951 258.50241 
L 332.150129 258.32753 
L 333.935729 256.022409 
L 334.076264 255.84129 
L 335.721329 253.751623 
L 336.172578 253.18017 
L 337.506929 251.500832 
L 338.289755 250.51905 
L 339.328241 249.216315 
L 340.415313 247.85793 
L 341.113841 246.979804 
L 342.538383 245.19681 
L 342.899441 244.739759 
L 344.648817 242.53569 
L 344.685041 242.489259 
L 346.506353 240.164032 
L 346.734296 239.87457 
L 348.291953 237.84657 
L 348.781058 237.21345 
L 350.077553 235.475704 
L 350.770579 234.55233 
L 351.863153 233.026467 
L 352.681153 231.89121 
L 353.684465 230.410861 
L 354.490315 229.23009 
L 355.470065 227.680751 
L 356.179076 226.56897 
L 357.255665 224.721018 
L 357.734818 223.90785 
L 359.041265 221.434926 
L 359.380132 220.80321 
L 360.656162 218.14209 
L 360.862577 217.669136 
L 361.840058 215.48097 
L 362.648177 213.53489 
L 362.955045 212.81985 
L 364.054909 210.15873 
L 364.433777 209.246457 
L 365.194324 207.49761 
L 366.219377 205.25216 
L 366.420915 204.83649 
L 367.818834 202.17537 
L 368.040689 201.793176 
L 369.468116 199.51425 
L 369.826289 199.00006 
L 371.463405 196.85313 
L 371.611889 196.677057 
L 373.397489 194.768703 
L 374.009448 194.19201 
L 375.218801 193.145956 
L 377.004401 191.813018 
L 377.456027 191.53089 
L 378.790001 190.752156 
L 380.575601 189.917058 
L 382.396913 189.28466 
L 384.182513 188.892773 
L 384.469561 188.86977 
L 385.968113 188.755076 
L 387.753713 188.869724 
L 387.753931 188.86977 
L 389.575025 189.309736 
L 391.360625 190.091681 
" clip-path="url(#p592b9856c2)" style="fill: none; stroke: #89bedc; stroke-width: 1.5"/>
    <path d="M 391.360625 58.176726 
L 388.361801 62.46657 
L 384.182513 68.019212 
L 375.941724 78.43329 
L 350.039071 110.81025 
L 344.685041 117.979488 
L 342.273634 121.45473 
L 339.328241 126.167534 
L 337.506929 129.462866 
L 335.721329 133.23618 
L 333.843782 137.86497 
L 332.031923 143.18721 
L 329.382878 151.17057 
L 327.247349 156.49281 
L 324.972017 161.097049 
L 323.150705 164.304929 
L 321.365105 167.155963 
L 317.702136 172.45953 
L 312.401393 179.478368 
L 304.928245 188.86977 
L 279.317154 220.80321 
L 274.725233 226.851564 
L 271.118321 231.948213 
L 267.808986 237.21345 
L 265.725809 241.094635 
L 263.940209 244.92951 
L 262.760612 247.85793 
L 260.901509 253.18017 
L 258.249682 261.16353 
L 256.762097 264.977827 
L 254.976497 268.894582 
L 254.635009 269.59041 
L 253.167882 272.25153 
L 251.369585 275.12051 
L 249.583985 277.658958 
L 247.560529 280.23489 
L 244.191473 283.954299 
L 242.405873 285.703328 
L 239.510996 288.21825 
L 239.510996 288.21825 
" clip-path="url(#p592b9856c2)" style="fill: none; stroke: #89bedc; stroke-width: 1.5"/>
   </g>
   <g id="PathCollection_5">
    <path d="M 34.240625 179.102444 
L 34.560317 178.22529 
L 35.89928 175.12065 
L 36.026225 174.865233 
L 37.242583 172.45953 
L 37.847537 171.381713 
L 38.749751 169.79841 
L 39.633137 168.370597 
L 40.405518 167.13729 
L 41.418737 165.618441 
L 42.187733 164.47617 
L 43.204337 163.036092 
L 44.071916 161.81505 
L 45.025649 160.518834 
L 46.033966 159.15393 
L 46.811249 158.128855 
L 48.054238 156.49281 
L 48.596849 155.79237 
L 50.116602 153.83169 
L 50.382449 153.49364 
L 52.203761 151.17713 
L 52.208925 151.17057 
L 53.989361 148.933173 
L 54.325703 148.50945 
L 55.774961 146.696886 
L 56.451257 145.84833 
L 57.560561 144.461679 
L 58.57641 143.18721 
L 59.381873 142.176644 
L 60.691908 140.52609 
L 61.167473 139.925077 
L 62.789742 137.86497 
L 62.953073 137.65617 
L 64.738673 135.364754 
L 64.86354 135.20385 
L 66.559985 132.994041 
L 67.239564 132.09921 
L 68.345585 130.617224 
L 69.219304 129.43809 
L 70.131185 128.173581 
L 71.130453 126.77697 
L 71.916785 125.634651 
L 72.953612 124.11585 
L 73.738097 122.903891 
L 74.668024 121.45473 
L 75.523697 120.026732 
L 76.256346 118.79361 
L 77.309297 116.86461 
L 77.706063 116.13249 
L 79.013611 113.47137 
L 79.094897 113.288461 
L 80.192278 110.81025 
L 80.916209 108.983011 
L 81.24677 108.14913 
L 82.207172 105.48801 
L 82.701809 104.011105 
L 83.1011 102.82689 
L 83.964492 100.16577 
L 84.487409 98.557059 
L 84.833824 97.50465 
L 85.748978 94.84353 
L 86.273009 93.430769 
L 86.743684 92.18241 
L 87.846227 89.52129 
L 88.094321 88.985945 
L 89.303981 86.41665 
L 89.879921 85.315662 
L 90.708808 83.75553 
L 91.665521 82.101846 
L 92.256464 81.09441 
L 93.451121 79.197356 
L 93.937878 78.43329 
L 95.272433 76.453283 
L 95.735535 75.77217 
L 97.058033 73.910339 
L 97.629093 73.11105 
L 98.843633 71.466597 
L 99.59715 70.44993 
L 100.629233 69.091923 
L 101.621505 67.78881 
L 102.450545 66.720357 
L 103.687067 65.12769 
L 104.236145 64.430773 
L 105.78289 62.46657 
L 106.021745 62.166622 
L 107.807345 59.92373 
L 107.90153 59.80545 
L 109.628657 57.655088 
L 110.037813 57.14433 
L 111.414257 55.437815 
L 112.181914 54.48321 
L 113.199857 53.224369 
L 114.330592 51.82209 
L 114.985457 51.01436 
L 116.485074 49.16097 
L 116.806769 48.765919 
L 118.592369 46.572476 
L 118.651567 46.49985 
L 120.377969 44.411394 
L 121.215369 43.39521 
L 122.163569 42.2657 
L 123.453843 40.73409 
L 123.984881 40.116616 
L 125.754977 38.07297 
L 125.770481 38.055537 
L 127.556081 36.076527 
L 128.162986 35.41185 
L 129.341681 34.16798 
L 130.710096 32.75073 
L 131.162993 32.301774 
L 132.948593 30.580227 
L 133.472274 30.08961 
L 134.734193 28.971652 
L 136.519793 27.45105 
L 136.54739 27.42849 
L 138.341105 26.056412 
L 140.123665 24.76737 
L 140.126705 24.765314 
L 141.912305 23.626601 
L 143.697905 22.567041 
L 144.531436 22.10625 
" clip-path="url(#p592b9856c2)" style="fill: none; stroke: #539ecd; stroke-width: 1.5"/>
    <path d="M 154.460128 288.21825 
L 152.388953 285.55713 
L 151.407427 282.89601 
L 151.180366 280.23489 
L 151.525931 277.57377 
L 152.305987 274.91265 
L 153.433816 272.25153 
L 154.827937 269.59041 
L 156.432136 266.92929 
L 160.410804 261.16353 
L 166.498873 253.18017 
L 174.714544 242.53569 
L 178.576826 237.21345 
L 182.075715 231.89121 
L 183.640558 229.23009 
L 185.064962 226.56897 
L 186.766577 222.950548 
L 188.587889 218.448879 
L 189.641466 215.48097 
L 193.192866 204.83649 
L 194.216564 202.17537 
L 195.766001 198.663093 
L 197.551601 195.146411 
L 199.337201 192.032699 
L 201.336925 188.86977 
L 205.059836 183.54753 
L 210.122225 176.884236 
L 217.300337 167.845551 
L 251.369585 125.528979 
L 278.296433 91.943476 
L 283.688945 84.820393 
L 286.333345 81.09441 
L 289.755026 75.77217 
L 291.273187 73.11105 
L 292.652657 70.442026 
L 294.438257 66.484275 
L 296.007566 62.46657 
L 298.678293 54.48321 
L 300.548094 49.16097 
L 301.624237 46.49985 
L 303.437681 42.708455 
L 305.223281 39.558876 
L 307.008881 36.834885 
L 308.794481 34.434857 
L 310.615793 32.246854 
L 312.625747 30.08961 
L 315.972593 27.033893 
L 319.579505 24.326742 
L 323.221901 22.10625 
L 323.221901 22.10625 
" clip-path="url(#p592b9856c2)" style="fill: none; stroke: #539ecd; stroke-width: 1.5"/>
    <path d="M 217.568808 22.10625 
L 219.644512 24.76737 
L 220.633916 27.42849 
L 220.862506 30.08961 
L 220.514843 32.75073 
L 219.731094 35.41185 
L 218.604855 38.07297 
L 217.210971 40.73409 
L 215.479025 43.580289 
L 211.62027 49.16097 
L 206.515313 55.843859 
L 199.153524 65.12769 
L 162.62013 110.81025 
L 158.054129 117.033908 
L 155.078465 121.45473 
L 152.697329 125.441661 
L 150.876017 128.882268 
L 150.594388 129.43809 
L 149.090417 132.797963 
L 147.139937 137.86497 
L 141.912305 152.945852 
L 140.339637 156.49281 
L 138.341105 160.305465 
L 136.519793 163.392511 
L 134.087737 167.13729 
L 130.277923 172.45953 
L 125.770481 178.353103 
L 116.806769 189.583605 
L 86.939114 226.56897 
L 77.309297 238.152368 
L 71.17584 245.19681 
L 66.559985 250.162231 
L 62.953073 253.734706 
L 59.381873 256.933285 
L 55.774961 259.738523 
L 53.615524 261.16353 
L 52.203761 261.985612 
L 50.382449 262.88281 
L 47.716226 263.82465 
L 46.811249 264.066532 
L 45.025649 264.298292 
L 43.204337 264.248911 
L 41.315178 263.82465 
L 39.633137 263.015631 
L 37.426548 261.16353 
L 35.546641 258.50241 
L 34.240625 255.71451 
L 34.240625 255.71451 
" clip-path="url(#p592b9856c2)" style="fill: none; stroke: #539ecd; stroke-width: 1.5"/>
    <path d="M 333.084698 288.21825 
L 332.150129 287.136738 
L 330.983377 285.55713 
L 330.328817 283.886623 
L 329.986663 282.89601 
L 329.761278 280.23489 
L 330.10153 277.57377 
L 330.328817 276.81506 
L 330.890058 274.91265 
L 332.018463 272.25153 
L 332.150129 272.004526 
L 333.42666 269.59041 
L 333.935729 268.757196 
L 335.046319 266.92929 
L 335.721329 265.933649 
L 337.140517 263.82465 
L 337.506929 263.319782 
L 339.070009 261.16353 
L 339.328241 260.82313 
L 341.089023 258.50241 
L 341.113841 258.470681 
L 342.899441 256.197458 
L 343.179639 255.84129 
L 344.685041 253.965311 
L 345.316907 253.18017 
L 346.506353 251.716856 
L 347.484235 250.51905 
L 348.291953 249.532546 
L 349.671032 247.85793 
L 350.077553 247.362498 
L 351.863153 245.203246 
L 351.868559 245.19681 
L 353.684465 243.011637 
L 354.085114 242.53569 
L 355.470065 240.859927 
L 356.297039 239.87457 
L 357.255665 238.69917 
L 358.490163 237.21345 
L 359.041265 236.522226 
L 360.648569 234.55233 
L 360.862577 234.2747 
L 362.648177 232.027174 
L 362.760584 231.89121 
L 364.433777 229.709333 
L 364.817792 229.23009 
L 366.219377 227.312905 
L 366.794769 226.56897 
L 368.040689 224.776624 
L 368.689438 223.90785 
L 369.826289 222.191162 
L 370.824004 220.80321 
L 371.611889 219.56976 
L 372.635906 218.14209 
L 373.397489 216.972544 
L 374.52836 215.48097 
L 375.218801 214.506913 
L 376.678864 212.81985 
L 377.004401 212.434225 
L 378.790001 210.845356 
L 379.975806 210.15873 
L 380.575601 209.818577 
L 382.396913 209.440958 
L 384.182513 209.793933 
L 384.746195 210.15873 
L 385.968113 211.09191 
L 387.23099 212.81985 
L 387.753713 213.654792 
L 388.552977 215.48097 
L 389.561343 218.14209 
L 389.575025 218.18114 
L 390.299975 220.80321 
L 391.077455 223.90785 
L 391.360625 225.116396 
" clip-path="url(#p592b9856c2)" style="fill: none; stroke: #539ecd; stroke-width: 1.5"/>
    <path d="M 384.680445 22.10625 
L 385.968113 23.222321 
L 387.530228 24.76737 
L 387.753713 25.055792 
L 389.400324 27.42849 
L 389.575025 27.789208 
L 390.594169 30.08961 
L 391.291932 32.75073 
L 391.360625 33.381999 
" clip-path="url(#p592b9856c2)" style="fill: none; stroke: #539ecd; stroke-width: 1.5"/>
    <path d="M 391.360625 279.093837 
L 390.803177 280.23489 
L 389.575025 282.189009 
L 389.093318 282.89601 
L 387.753713 284.474239 
L 386.740378 285.55713 
L 385.968113 286.242058 
L 384.182513 287.669885 
L 383.418174 288.21825 
" clip-path="url(#p592b9856c2)" style="fill: none; stroke: #539ecd; stroke-width: 1.5"/>
    <path d="M 391.360625 39.002656 
L 391.106745 40.73409 
L 390.431845 43.39521 
L 389.320939 46.49985 
L 387.753713 49.836953 
L 385.968113 53.034954 
L 384.182513 55.881549 
L 381.492199 59.80545 
L 377.004401 65.811982 
L 371.263723 73.11105 
L 342.899441 108.556227 
L 337.506929 115.756306 
L 335.38094 118.79361 
L 332.00014 124.11585 
L 330.328817 127.119115 
L 328.543217 130.755052 
L 327.929363 132.09921 
L 325.693729 137.86497 
L 321.189013 151.17057 
L 319.579505 154.999592 
L 317.793905 158.669232 
L 317.544503 159.15393 
L 315.972593 161.938769 
L 312.649185 167.13729 
L 308.794481 172.522039 
L 303.437681 179.482498 
L 295.943489 188.86977 
L 272.903921 217.616268 
L 267.547121 224.642498 
L 263.940209 229.7234 
L 260.845909 234.55233 
L 258.547697 238.707613 
L 257.944808 239.87457 
L 255.590581 245.19681 
L 253.661654 250.51905 
L 251.017496 258.50241 
L 248.964705 263.82465 
L 247.51997 266.92929 
L 246.012785 269.716126 
L 244.191473 272.622259 
L 242.405873 275.126354 
L 240.429725 277.57377 
L 237.013361 281.149375 
L 235.101956 282.89601 
L 231.656561 285.569375 
L 228.049649 287.834693 
L 227.365589 288.21825 
L 227.365589 288.21825 
" clip-path="url(#p592b9856c2)" style="fill: none; stroke: #539ecd; stroke-width: 1.5"/>
   </g>
   <g id="PathCollection_6">
    <path d="M 181.798426 288.21825 
L 179.588465 287.966752 
L 176.017265 287.386293 
L 172.410353 286.521977 
L 169.548854 285.55713 
L 168.839153 285.198231 
L 167.053553 284.116372 
L 165.232241 282.667473 
L 163.610136 280.23489 
L 163.034576 277.57377 
L 163.234807 274.91265 
L 163.994668 272.25153 
L 165.232241 269.423421 
L 167.053553 266.214498 
L 168.839153 263.414554 
L 172.410353 258.403796 
L 186.766577 239.301273 
L 189.918241 234.55233 
L 192.159089 230.733223 
L 193.944689 227.305519 
L 194.312538 226.56897 
L 195.766001 223.258362 
L 197.710837 218.14209 
L 202.248658 204.83649 
L 203.346593 202.17537 
L 204.729713 199.217175 
L 206.515313 195.892464 
L 209.175036 191.53089 
L 212.858945 186.20865 
L 217.300337 180.308 
L 223.496801 172.45953 
L 285.921875 94.84353 
L 290.867057 88.364544 
L 294.438257 83.356835 
L 297.636615 78.43329 
L 299.830769 74.567117 
L 301.616369 70.994268 
L 301.877824 70.44993 
L 304.070298 65.12769 
L 305.912525 59.80545 
L 308.615539 51.82209 
L 309.679949 49.16097 
L 310.876726 46.49985 
L 312.519482 43.39521 
L 314.186993 40.726519 
L 316.135354 38.07297 
L 318.440354 35.41185 
L 321.365105 32.591221 
L 324.972017 29.813984 
L 328.964568 27.42849 
L 332.150129 25.992725 
L 335.721329 24.67516 
L 339.328241 23.737976 
L 342.899441 23.039878 
L 346.506353 22.544035 
L 350.077553 22.242968 
L 353.684465 22.120804 
L 357.255665 22.180425 
L 360.862577 22.436447 
L 364.433777 22.912395 
L 368.040689 23.665105 
L 371.663095 24.76737 
L 373.397489 25.581688 
L 376.504705 27.42849 
L 377.004401 27.85695 
L 379.195712 30.08961 
L 380.74995 32.75073 
L 381.534872 35.41185 
L 381.770953 38.07297 
L 381.5524 40.73409 
L 380.959293 43.39521 
L 379.84816 46.49985 
L 378.607622 49.16097 
L 377.004401 52.027804 
L 375.218801 54.850955 
L 371.611889 59.989376 
L 366.219377 67.014361 
L 359.228368 75.77217 
L 339.328241 100.504056 
L 332.150129 109.740621 
L 328.543217 114.693353 
L 325.766409 118.79361 
L 323.150705 123.123372 
L 321.365105 126.45506 
L 321.197406 126.77697 
L 319.579505 130.286887 
L 318.805346 132.09921 
L 316.702009 137.86497 
L 314.093846 145.84833 
L 312.101644 151.17057 
L 310.615793 154.49169 
L 308.794481 158.016575 
L 306.56163 161.81505 
L 302.981254 167.13729 
L 298.045169 173.758942 
L 292.45522 180.88641 
L 263.940209 216.495659 
L 258.361843 223.90785 
L 254.678162 229.23009 
L 251.442158 234.55233 
L 249.583985 238.106267 
L 247.798385 242.032417 
L 246.533256 245.19681 
L 243.816268 253.18017 
L 241.973925 258.50241 
L 240.620273 261.840825 
L 238.834673 265.501064 
L 238.064351 266.92929 
L 236.400396 269.59041 
L 234.450078 272.25153 
L 231.656561 275.42028 
L 229.413584 277.57377 
L 226.042736 280.23489 
L 222.657137 282.333232 
L 220.871537 283.27527 
L 217.300337 284.807577 
L 215.252069 285.55713 
L 211.907825 286.478658 
L 208.300913 287.251755 
L 204.729713 287.824142 
L 201.282923 288.21825 
L 201.282923 288.21825 
" clip-path="url(#p592b9856c2)" style="fill: none; stroke: #2b7bba; stroke-width: 1.5"/>
    <path d="M 190.257573 22.10625 
L 192.159089 22.32058 
L 195.766001 22.889538 
L 199.337201 23.72149 
L 202.489147 24.76737 
L 202.944113 24.992016 
L 204.729713 26.042343 
L 206.618943 27.42849 
L 208.42491 30.08961 
L 208.995208 32.75073 
L 208.793405 35.41185 
L 208.043486 38.07297 
L 206.515313 41.408846 
L 204.729713 44.494291 
L 202.944113 47.255368 
L 199.674647 51.82209 
L 192.159089 61.475889 
L 182.841734 73.11105 
L 165.232241 95.006012 
L 156.268529 106.308863 
L 150.876017 113.518313 
L 147.258651 118.79361 
L 144.054279 124.11585 
L 141.912305 128.345067 
L 141.393185 129.43809 
L 140.126705 132.465891 
L 138.155282 137.86497 
L 134.588101 148.50945 
L 132.37245 153.83169 
L 131.071743 156.49281 
L 129.341681 159.602971 
L 126.266423 164.47617 
L 122.163569 170.234948 
L 118.446249 175.12065 
L 105.33592 191.53089 
L 82.701809 219.383139 
L 76.621632 226.56897 
L 71.905176 231.89121 
L 66.559985 237.455712 
L 62.953073 240.795232 
L 60.860029 242.53569 
L 57.560561 244.880661 
L 55.774961 245.884383 
L 53.989361 246.6734 
L 52.203761 247.216343 
L 50.382449 247.440798 
L 48.596849 247.240382 
L 46.811249 246.497869 
L 45.025649 245.032089 
L 43.204337 242.232586 
L 42.267762 239.87457 
L 41.418737 237.02493 
L 40.91544 234.55233 
L 40.157644 229.23009 
L 39.633137 222.883489 
L 39.336078 215.48097 
L 39.236467 207.49761 
L 39.393337 199.51425 
L 39.762094 194.19201 
L 40.504583 188.86977 
L 41.418737 184.803369 
L 41.759334 183.54753 
L 43.204337 179.440144 
L 43.696509 178.22529 
L 45.159628 175.12065 
L 46.811249 172.131542 
L 48.596849 169.24158 
L 51.850595 164.47617 
L 55.806561 159.15393 
L 64.202526 148.50945 
L 72.627174 137.86497 
L 77.309297 131.661601 
L 80.916209 126.534092 
L 84.123214 121.45473 
L 86.273009 117.499331 
L 86.968766 116.13249 
L 89.279309 110.81025 
L 91.184726 105.48801 
L 93.810688 97.50465 
L 95.83581 92.18241 
L 97.058033 89.436917 
L 98.843633 85.967369 
L 100.629233 82.903012 
L 103.531572 78.43329 
L 107.807345 72.523985 
L 113.535315 65.12769 
L 126.435782 49.16097 
L 131.2946 43.39521 
L 136.188476 38.07297 
L 138.926115 35.41185 
L 141.984315 32.75073 
L 145.591574 30.08961 
L 149.090417 28.003181 
L 150.876017 27.081111 
L 154.482929 25.554111 
L 158.054129 24.358135 
L 161.661041 23.471665 
L 165.232241 22.79904 
L 168.839153 22.299566 
L 170.684651 22.10625 
L 170.684651 22.10625 
" clip-path="url(#p592b9856c2)" style="fill: none; stroke: #2b7bba; stroke-width: 1.5"/>
    <path d="M 342.444607 280.23489 
L 341.819878 277.57377 
L 342.017722 274.91265 
L 342.776447 272.25153 
L 342.899441 271.980493 
L 343.977785 269.59041 
L 344.685041 268.344444 
L 345.486743 266.92929 
L 346.506353 265.403061 
L 347.549831 263.82465 
L 348.291953 262.820048 
L 349.519501 261.16353 
L 350.077553 260.457658 
L 351.632628 258.50241 
L 351.863153 258.224804 
L 353.684465 256.065949 
L 353.878213 255.84129 
L 355.470065 254.048965 
L 356.255607 253.18017 
L 357.255665 252.092738 
L 358.736796 250.51905 
L 359.041265 250.197857 
L 360.862577 248.363767 
L 361.391526 247.85793 
L 362.648177 246.654448 
L 364.245887 245.19681 
L 364.433777 245.023447 
L 366.219377 243.534303 
L 367.530897 242.53569 
L 368.040689 242.1376 
L 369.826289 240.955795 
L 371.611889 239.969386 
L 371.864566 239.87457 
L 373.397489 239.274629 
L 375.218801 238.929862 
L 377.004401 239.064023 
L 378.790001 239.823016 
L 378.854151 239.87457 
L 380.575601 241.510293 
L 381.257662 242.53569 
L 382.396913 244.642401 
L 382.620545 245.19681 
L 383.506616 247.85793 
L 384.182513 250.49754 
L 384.187093 250.51905 
L 384.64187 253.18017 
L 384.973146 255.84129 
L 385.187021 258.50241 
L 385.280902 261.16353 
L 385.243024 263.82465 
L 385.003033 266.92929 
L 384.591785 269.59041 
L 384.182513 271.269366 
L 383.923343 272.25153 
L 382.903459 274.91265 
L 382.396913 275.871946 
L 381.406741 277.57377 
L 380.575601 278.651788 
L 379.211066 280.23489 
L 378.790001 280.617365 
L 377.004401 282.056581 
L 375.81536 282.89601 
L 375.218801 283.237445 
L 373.397489 284.142195 
L 371.611889 284.898979 
L 369.826289 285.537422 
L 369.759682 285.55713 
L 368.040689 285.983633 
L 366.219377 286.343909 
L 364.433777 286.612273 
L 362.648177 286.800169 
L 360.862577 286.909653 
L 359.041265 286.941065 
L 357.255665 286.891977 
L 355.470065 286.760745 
L 353.684465 286.542261 
L 351.863153 286.221765 
L 350.077553 285.801425 
L 349.25412 285.55713 
L 348.291953 285.17411 
L 346.506353 284.278378 
L 344.685041 283.115132 
L 344.398961 282.89601 
L 342.899441 280.95872 
L 342.444607 280.23489 
z
" clip-path="url(#p592b9856c2)" style="fill: none; stroke: #2b7bba; stroke-width: 1.5"/>
   </g>
   <g id="PathCollection_7">
    <path d="M 52.184484 202.17537 
L 52.161149 199.51425 
L 52.203761 197.942019 
L 52.236515 196.85313 
L 52.433885 194.19201 
L 52.757983 191.53089 
L 53.219555 188.86977 
L 53.826617 186.20865 
L 53.989361 185.653252 
L 54.648886 183.54753 
L 55.638091 180.88641 
L 55.774961 180.57664 
L 56.861797 178.22529 
L 57.560561 176.900208 
L 58.519669 175.12065 
L 59.381873 173.679799 
L 60.128259 172.45953 
L 61.167473 170.878638 
L 61.88533 169.79841 
L 62.953073 168.280588 
L 63.759389 167.13729 
L 64.738673 165.810345 
L 65.720383 164.47617 
L 66.559985 163.374722 
L 67.739708 161.81505 
L 68.345585 161.039083 
L 69.799818 159.15393 
L 70.131185 158.736225 
L 71.885471 156.49281 
L 71.916785 156.453747 
L 73.738097 154.180242 
L 74.013296 153.83169 
L 75.523697 151.961281 
L 76.150761 151.17057 
L 77.309297 149.736792 
L 78.283033 148.50945 
L 79.094897 147.500885 
L 80.402668 145.84833 
L 80.916209 145.204628 
L 82.499622 143.18721 
L 82.701809 142.930957 
L 84.487409 140.641955 
L 84.577385 140.52609 
L 86.273009 138.341516 
L 86.637866 137.86497 
L 88.094321 135.943123 
L 88.648121 135.20385 
L 89.879921 133.54004 
L 90.915947 132.09921 
L 91.665521 131.027832 
L 92.770736 129.43809 
L 93.451121 128.407392 
L 94.526525 126.77697 
L 95.272433 125.558324 
L 96.159718 124.11585 
L 97.058033 122.509846 
L 97.654685 121.45473 
L 98.843633 119.089518 
L 98.995274 118.79361 
L 100.221475 116.13249 
L 100.629233 115.120471 
L 101.317259 113.47137 
L 102.283153 110.81025 
L 102.450545 110.30595 
L 103.201874 108.14913 
L 104.042294 105.48801 
L 104.236145 104.860595 
L 104.900242 102.82689 
L 105.760725 100.16577 
L 106.021745 99.403735 
L 106.708845 97.50465 
L 107.728878 94.84353 
L 107.807345 94.66052 
L 108.919575 92.18241 
L 109.628657 90.727182 
L 110.239218 89.52129 
L 111.414257 87.415899 
L 111.979974 86.41665 
L 113.199857 84.442265 
L 113.631594 83.75553 
L 114.985457 81.732043 
L 115.416199 81.09441 
L 116.806769 79.135542 
L 117.306317 78.43329 
L 118.592369 76.700667 
L 119.278153 75.77217 
L 120.377969 74.33562 
L 121.306727 73.11105 
L 122.163569 72.016289 
L 123.375386 70.44993 
L 123.984881 69.68282 
L 125.469112 67.78881 
L 125.770481 67.414254 
L 127.556081 65.161949 
L 127.583225 65.12769 
L 129.341681 62.965151 
L 129.740089 62.46657 
L 131.162993 60.726112 
L 131.902594 59.80545 
L 132.948593 58.535266 
L 134.073613 57.14433 
L 134.734193 56.349193 
L 136.258592 54.48321 
L 136.519793 54.173412 
L 138.341105 51.99864 
L 138.488859 51.82209 
L 140.126705 49.950852 
L 140.809116 49.16097 
L 141.912305 47.955087 
L 143.231257 46.49985 
L 143.697905 46.026985 
L 145.519217 44.201634 
L 146.322844 43.39521 
L 147.304817 42.51552 
L 149.090417 40.933875 
L 149.325486 40.73409 
L 150.876017 39.57532 
L 152.697329 38.242942 
L 152.945178 38.07297 
L 154.482929 37.169791 
L 156.268529 36.178841 
L 157.745598 35.41185 
L 158.054129 35.277186 
L 159.875441 34.56856 
L 161.661041 33.942717 
L 163.446641 33.386675 
L 165.232241 32.901598 
L 165.896257 32.75073 
L 167.053553 32.537052 
L 168.839153 32.272501 
L 170.624753 32.069742 
L 172.410353 31.928648 
L 174.231665 31.848887 
L 176.017265 31.835261 
L 177.802865 31.888633 
L 179.588465 32.013863 
L 181.409777 32.223079 
L 183.195377 32.518405 
L 184.24993 32.75073 
L 184.980977 32.988457 
L 186.766577 33.755825 
L 188.587889 34.812726 
L 189.38853 35.41185 
L 190.373489 37.014171 
L 190.865902 38.07297 
L 190.92078 40.73409 
L 190.373489 42.747339 
L 190.20098 43.39521 
L 188.735672 46.49985 
L 188.587889 46.74139 
L 187.13461 49.16097 
L 186.766577 49.699765 
L 185.343357 51.82209 
L 184.980977 52.317442 
L 183.426737 54.48321 
L 183.195377 54.786796 
L 181.432332 57.14433 
L 181.409777 57.173198 
L 179.588465 59.517197 
L 179.368361 59.80545 
L 177.802865 61.780458 
L 177.269533 62.46657 
L 176.017265 64.028247 
L 175.152558 65.12769 
L 174.231665 66.267311 
L 173.024534 67.78881 
L 172.410353 68.546082 
L 170.894284 70.44993 
L 170.624753 70.781291 
L 168.839153 73.009522 
L 168.758208 73.11105 
L 167.053553 75.206174 
L 166.601835 75.77217 
L 165.232241 77.459674 
L 164.456805 78.43329 
L 163.446641 79.678583 
L 162.320162 81.09441 
L 161.661041 81.907467 
L 160.190929 83.75553 
L 159.875441 84.144512 
L 158.064796 86.41665 
L 158.054129 86.429677 
L 156.268529 88.605979 
L 155.546187 89.52129 
L 154.482929 90.829389 
L 153.404061 92.18241 
L 152.697329 93.053575 
L 151.270981 94.84353 
L 150.876017 95.333252 
L 149.154902 97.50465 
L 149.090417 97.58519 
L 147.304817 99.822422 
L 147.034688 100.16577 
L 145.519217 102.080487 
L 144.937678 102.82689 
L 143.697905 104.42059 
L 142.879171 105.48801 
L 141.912305 106.756858 
L 140.865296 108.14913 
L 140.126705 109.147223 
L 138.909287 110.81025 
L 138.341105 111.609133 
L 137.025484 113.47137 
L 136.519793 114.221884 
L 135.235864 116.13249 
L 134.734193 116.928995 
L 133.558059 118.79361 
L 132.948593 119.847353 
L 132.01145 121.45473 
L 131.162993 123.078271 
L 130.611441 124.11585 
L 129.370817 126.77697 
L 129.341681 126.846364 
L 128.219087 129.43809 
L 127.556081 131.214108 
L 127.212333 132.09921 
L 126.137936 135.20385 
L 125.770481 136.368945 
L 125.27346 137.86497 
L 124.431341 140.52609 
L 123.984881 141.940562 
L 123.567934 143.18721 
L 122.642531 145.84833 
L 122.163569 147.132647 
L 121.622141 148.50945 
L 120.489807 151.17057 
L 120.377969 151.405621 
L 119.178381 153.83169 
L 118.592369 154.921735 
L 117.722126 156.49281 
L 116.806769 158.023437 
L 116.115922 159.15393 
L 114.985457 160.888718 
L 114.37417 161.81505 
L 113.199857 163.49927 
L 112.516282 164.47617 
L 111.414257 165.981306 
L 110.570325 167.13729 
L 109.628657 168.379282 
L 108.560016 169.79841 
L 107.807345 170.767719 
L 106.507245 172.45953 
L 106.021745 173.073181 
L 104.424153 175.12065 
L 104.236145 175.352987 
L 102.450545 177.575955 
L 101.941865 178.22529 
L 100.629233 179.846363 
L 99.801028 180.88641 
L 98.843633 182.062206 
L 97.655712 183.54753 
L 97.058033 184.279989 
L 95.511827 186.20865 
L 95.272433 186.501775 
L 93.451121 188.757192 
L 93.360465 188.86977 
L 91.665521 190.933927 
L 91.183217 191.53089 
L 89.879921 193.112183 
L 89.002887 194.19201 
L 88.094321 195.287653 
L 86.811529 196.85313 
L 86.273009 197.49764 
L 84.604905 199.51425 
L 84.487409 199.653309 
L 82.701809 201.746612 
L 82.336113 202.17537 
L 80.916209 203.804405 
L 80.018748 204.83649 
L 79.094897 205.879834 
L 77.660176 207.49761 
L 77.309297 207.885967 
L 75.523697 209.821204 
L 75.201729 210.15873 
L 73.738097 211.663959 
L 72.589886 212.81985 
L 71.916785 213.485823 
L 70.131185 215.170467 
L 69.771395 215.48097 
L 68.345585 216.685431 
L 66.559985 218.10095 
L 66.496423 218.14209 
L 64.738673 219.255853 
L 62.953073 220.177436 
L 61.167473 220.782853 
L 60.856584 220.80321 
L 59.381873 220.896168 
L 59.010371 220.80321 
L 57.560561 220.318841 
L 55.774961 218.702297 
L 55.412622 218.14209 
L 54.14471 215.48097 
L 53.989361 215.035675 
L 53.413648 212.81985 
L 52.908412 210.15873 
L 52.550174 207.49761 
L 52.31224 204.83649 
L 52.203761 202.637663 
L 52.184484 202.17537 
z
" clip-path="url(#p592b9856c2)" style="fill: none; stroke: #0b559f; stroke-width: 1.5"/>
    <path d="M 181.161652 272.25153 
L 181.106911 269.59041 
L 181.409777 268.504349 
L 181.840736 266.92929 
L 183.195377 264.035888 
L 183.290295 263.82465 
L 184.876538 261.16353 
L 184.980977 261.009984 
L 186.655639 258.50241 
L 186.766577 258.349011 
L 188.550051 255.84129 
L 188.587889 255.790569 
L 190.373489 253.378974 
L 190.518532 253.18017 
L 192.159089 251.002235 
L 192.517383 250.51905 
L 193.944689 248.621741 
L 194.511929 247.85793 
L 195.766001 246.164064 
L 196.4745 245.19681 
L 197.551601 243.701846 
L 198.384279 242.53569 
L 199.337201 241.155178 
L 200.216403 239.87457 
L 201.122801 238.481605 
L 201.948319 237.21345 
L 202.944113 235.559521 
L 203.55445 234.55233 
L 204.729713 232.410801 
L 205.01851 231.89121 
L 206.344702 229.23009 
L 206.515313 228.846171 
L 207.554327 226.56897 
L 208.300913 224.673041 
L 208.613628 223.90785 
L 209.736242 220.80321 
L 210.122225 219.610222 
L 210.621968 218.14209 
L 211.467901 215.48097 
L 211.907825 214.062442 
L 212.315571 212.81985 
L 213.20685 210.15873 
L 213.693425 208.783542 
L 214.1737 207.49761 
L 215.24571 204.83649 
L 215.479025 204.315069 
L 216.478991 202.17537 
L 217.300337 200.557405 
L 217.849011 199.51425 
L 219.085937 197.344652 
L 219.373297 196.85313 
L 220.871537 194.466965 
L 221.046911 194.19201 
L 222.657137 191.815244 
L 222.851345 191.53089 
L 224.478449 189.259876 
L 224.758157 188.86977 
L 226.264049 186.854317 
L 226.743577 186.20865 
L 228.049649 184.510527 
L 228.782754 183.54753 
L 229.835249 182.206903 
L 230.859258 180.88641 
L 231.656561 179.884603 
L 232.958229 178.22529 
L 233.442161 177.629836 
L 235.227761 175.377279 
L 235.428972 175.12065 
L 237.013361 173.167349 
L 237.577213 172.45953 
L 238.834673 170.910968 
L 239.721627 169.79841 
L 240.620273 168.692602 
L 241.86002 167.13729 
L 242.405873 166.464768 
L 243.989514 164.47617 
L 244.191473 164.227094 
L 246.012785 161.954049 
L 246.123346 161.81505 
L 247.798385 159.751228 
L 248.273779 159.15393 
L 249.583985 157.542003 
L 250.420532 156.49281 
L 251.369585 155.327653 
L 252.566279 153.83169 
L 253.190897 153.065488 
L 254.708324 151.17057 
L 254.976497 150.842181 
L 256.762097 148.625648 
L 256.855308 148.50945 
L 258.547697 146.440336 
L 259.023321 145.84833 
L 260.369009 144.200559 
L 261.182568 143.18721 
L 262.154609 141.998111 
L 263.337427 140.52609 
L 263.940209 139.789608 
L 265.489943 137.86497 
L 265.725809 137.57755 
L 267.547121 135.338222 
L 267.656284 135.20385 
L 269.332721 133.201664 
L 270.223306 132.09921 
L 271.118321 131.022564 
L 272.41578 129.43809 
L 272.903921 128.851933 
L 274.607943 126.77697 
L 274.725233 126.635958 
L 276.510833 124.496159 
L 276.825677 124.11585 
L 278.296433 122.361748 
L 279.045245 121.45473 
L 280.082033 120.213897 
L 281.251287 118.79361 
L 281.903345 118.009684 
L 283.440667 116.13249 
L 283.688945 115.833447 
L 285.474545 113.665707 
L 285.634319 113.47137 
L 287.260145 111.522671 
L 287.843351 110.81025 
L 289.081457 109.317276 
L 290.030791 108.14913 
L 290.867057 107.135309 
L 292.19575 105.48801 
L 292.652657 104.928961 
L 294.331852 102.82689 
L 294.438257 102.695091 
L 296.259569 100.421271 
L 296.460987 100.16577 
L 298.045169 98.171913 
L 298.562308 97.50465 
L 299.830769 95.873724 
L 300.613191 94.84353 
L 301.616369 93.519495 
L 302.608476 92.18241 
L 303.437681 91.049606 
L 304.535583 89.52129 
L 305.223281 88.550546 
L 306.675257 86.41665 
L 307.008881 85.910574 
L 308.41239 83.75553 
L 308.794481 83.132503 
L 310.037662 81.09441 
L 310.615793 80.062497 
L 311.530071 78.43329 
L 312.401393 76.708486 
L 312.87865 75.77217 
L 314.084805 73.11105 
L 314.186993 72.862374 
L 315.204234 70.44993 
L 315.972593 68.344492 
L 316.18309 67.78881 
L 317.111064 65.12769 
L 317.793905 62.960225 
L 317.957678 62.46657 
L 318.824155 59.80545 
L 319.579505 57.447971 
L 319.682659 57.14433 
L 320.655388 54.48321 
L 321.365105 52.692382 
L 321.730748 51.82209 
L 322.995374 49.16097 
L 323.150705 48.880001 
L 324.538475 46.49985 
L 324.972017 45.872194 
L 326.752363 43.39521 
L 326.757617 43.389095 
L 328.543217 41.442148 
L 329.225366 40.73409 
L 330.328817 39.772304 
L 332.150129 38.272895 
L 332.414021 38.07297 
L 333.935729 37.116184 
L 335.721329 36.078639 
L 336.981792 35.41185 
L 337.506929 35.18287 
L 339.328241 34.48762 
L 341.113841 33.891738 
L 342.899441 33.382481 
L 344.685041 32.961797 
L 345.840801 32.75073 
L 346.506353 32.652648 
L 348.291953 32.470135 
L 350.077553 32.366577 
L 351.863153 32.344714 
L 353.684465 32.410816 
L 355.470065 32.568141 
L 356.746607 32.75073 
L 357.255665 32.849178 
L 359.041265 33.341046 
L 360.862577 34.024236 
L 362.648177 34.901818 
L 363.477126 35.41185 
L 364.433777 36.355703 
L 365.805251 38.07297 
L 366.219377 39.260022 
L 366.635283 40.73409 
L 366.596226 43.39521 
L 366.219377 44.878145 
L 365.801217 46.49985 
L 364.66336 49.16097 
L 364.433777 49.581157 
L 363.197051 51.82209 
L 362.648177 52.689322 
L 361.509368 54.48321 
L 360.862577 55.412303 
L 359.65856 57.14433 
L 359.041265 57.978225 
L 357.696038 59.80545 
L 357.255665 60.375646 
L 355.655769 62.46657 
L 355.470065 62.700435 
L 353.684465 64.958571 
L 353.550684 65.12769 
L 351.863153 67.200653 
L 351.389897 67.78881 
L 350.077553 69.379772 
L 349.206738 70.44993 
L 348.291953 71.551819 
L 347.015782 73.11105 
L 346.506353 73.72342 
L 344.825065 75.77217 
L 344.685041 75.940797 
L 342.899441 78.086642 
L 342.612871 78.43329 
L 341.113841 80.224342 
L 340.397309 81.09441 
L 339.328241 82.376076 
L 338.195715 83.75553 
L 337.506929 84.584725 
L 336.010739 86.41665 
L 335.721329 86.761981 
L 333.935729 88.916525 
L 333.447542 89.52129 
L 332.150129 91.085801 
L 331.259469 92.18241 
L 330.328817 93.314584 
L 329.098906 94.84353 
L 328.543217 95.525767 
L 326.968358 97.50465 
L 326.757617 97.766919 
L 324.972017 100.023394 
L 324.860246 100.16577 
L 323.150705 102.335079 
L 322.772143 102.82689 
L 321.365105 104.65153 
L 320.735122 105.48801 
L 319.579505 107.02996 
L 318.758843 108.14913 
L 317.793905 109.484215 
L 316.852684 110.81025 
L 315.972593 112.088413 
L 315.034278 113.47137 
L 314.186993 114.777023 
L 313.317396 116.13249 
L 312.401393 117.655994 
L 311.721117 118.79361 
L 310.615793 120.811274 
L 310.262096 121.45473 
L 308.939902 124.11585 
L 308.794481 124.439322 
L 307.722894 126.77697 
L 307.008881 128.571137 
L 306.65391 129.43809 
L 305.675894 132.09921 
L 305.223281 133.471797 
L 304.633346 135.20385 
L 303.798829 137.86497 
L 303.437681 139.054813 
L 302.965523 140.52609 
L 302.109973 143.18721 
L 301.616369 144.660262 
L 301.195191 145.84833 
L 300.181302 148.50945 
L 299.830769 149.344389 
L 299.02809 151.17057 
L 298.045169 153.225968 
L 297.74408 153.83169 
L 296.302125 156.49281 
L 296.259569 156.564412 
L 294.686432 159.15393 
L 294.438257 159.536766 
L 292.941879 161.81505 
L 292.652657 162.231635 
L 291.087711 164.47617 
L 290.867057 164.778559 
L 289.149623 167.13729 
L 289.081457 167.227437 
L 287.260145 169.6358 
L 287.137646 169.79841 
L 285.474545 171.934798 
L 285.071066 172.45953 
L 283.688945 174.204874 
L 282.974441 175.12065 
L 281.903345 176.443442 
L 280.509652 178.22529 
L 280.082033 178.754745 
L 278.38881 180.88641 
L 278.296433 181.000237 
L 276.510833 183.209566 
L 276.241588 183.54753 
L 274.725233 185.412566 
L 274.090008 186.20865 
L 272.903921 187.670345 
L 271.948547 188.86977 
L 271.118321 189.893315 
L 269.815256 191.53089 
L 269.332721 192.126215 
L 267.689422 194.19201 
L 267.547121 194.367511 
L 265.725809 196.63245 
L 265.550222 196.85313 
L 263.940209 198.834819 
L 263.398881 199.51425 
L 262.154609 201.044806 
L 261.253091 202.17537 
L 260.369009 203.264084 
L 259.114996 204.83649 
L 258.547697 205.538475 
L 256.992063 207.49761 
L 256.762097 207.783929 
L 254.976497 210.035449 
L 254.879229 210.15873 
L 253.190897 212.282296 
L 252.770398 212.81985 
L 251.369585 214.609862 
L 250.697816 215.48097 
L 249.583985 216.931097 
L 248.666646 218.14209 
L 247.798385 219.302866 
L 246.689111 220.80321 
L 246.012785 221.73487 
L 244.476433 223.90785 
L 244.191473 224.326382 
L 242.670169 226.56897 
L 242.405873 226.982981 
L 240.971086 229.23009 
L 240.620273 229.826577 
L 239.398174 231.89121 
L 238.834673 232.948217 
L 237.966452 234.55233 
L 237.013361 236.555027 
L 236.692399 237.21345 
L 235.540603 239.87457 
L 235.227761 240.691739 
L 234.494846 242.53569 
L 233.568192 245.19681 
L 233.442161 245.583964 
L 232.663676 247.85793 
L 231.815206 250.51905 
L 231.656561 251.008367 
L 230.909759 253.18017 
L 229.967772 255.84129 
L 229.835249 256.177325 
L 228.863007 258.50241 
L 228.049649 260.242867 
L 227.594583 261.16353 
L 226.264049 263.504955 
L 226.072446 263.82465 
L 224.478449 266.054824 
L 223.828183 266.92929 
L 222.657137 268.240377 
L 221.391368 269.59041 
L 220.871537 270.057647 
L 219.085937 271.55879 
L 218.208325 272.25153 
L 217.300337 272.848578 
L 215.479025 273.950266 
L 213.762481 274.91265 
L 213.693425 274.944658 
L 211.907825 275.675644 
L 210.122225 276.328869 
L 208.300913 276.915156 
L 206.515313 277.411828 
L 205.816234 277.57377 
L 204.729713 277.777049 
L 202.944113 278.043855 
L 201.122801 278.250023 
L 199.337201 278.387979 
L 197.551601 278.462038 
L 195.766001 278.470674 
L 193.944689 278.408927 
L 192.159089 278.274155 
L 190.373489 278.0584 
L 188.587889 277.751117 
L 187.808933 277.57377 
L 186.766577 277.221811 
L 184.980977 276.417912 
L 183.195377 275.336023 
L 182.64577 274.91265 
L 181.409777 272.809047 
L 181.161652 272.25153 
z
" clip-path="url(#p592b9856c2)" style="fill: none; stroke: #0b559f; stroke-width: 1.5"/>
   </g>
   <g id="PathCollection_8"/>
   <g id="patch_3">
    <path d="M 34.240625 288.21825 
L 34.240625 22.10625 
" style="fill: none; stroke: #000000; stroke-width: 0.8; stroke-linejoin: miter; stroke-linecap: square"/>
   </g>
   <g id="patch_4">
    <path d="M 391.360625 288.21825 
L 391.360625 22.10625 
" style="fill: none; stroke: #000000; stroke-width: 0.8; stroke-linejoin: miter; stroke-linecap: square"/>
   </g>
   <g id="patch_5">
    <path d="M 34.240625 288.21825 
L 391.360625 288.21825 
" style="fill: none; stroke: #000000; stroke-width: 0.8; stroke-linejoin: miter; stroke-linecap: square"/>
   </g>
   <g id="patch_6">
    <path d="M 34.240625 22.10625 
L 391.360625 22.10625 
" style="fill: none; stroke: #000000; stroke-width: 0.8; stroke-linejoin: miter; stroke-linecap: square"/>
   </g>
   <g id="text_16">
    <!-- 9.3_cross_24.0 -->
    <g transform="translate(168.34625 16.10625)scale(0.12 -0.12)">
     <defs>
      <path id="DejaVuSans-39" d="M 703 97 
L 703 672 
Q 941 559 1184 500 
Q 1428 441 1663 441 
Q 2288 441 2617 861 
Q 2947 1281 2994 2138 
Q 2813 1869 2534 1725 
Q 2256 1581 1919 1581 
Q 1219 1581 811 2004 
Q 403 2428 403 3163 
Q 403 3881 828 4315 
Q 1253 4750 1959 4750 
Q 2769 4750 3195 4129 
Q 3622 3509 3622 2328 
Q 3622 1225 3098 567 
Q 2575 -91 1691 -91 
Q 1453 -91 1209 -44 
Q 966 3 703 97 
z
M 1959 2075 
Q 2384 2075 2632 2365 
Q 2881 2656 2881 3163 
Q 2881 3666 2632 3958 
Q 2384 4250 1959 4250 
Q 1534 4250 1286 3958 
Q 1038 3666 1038 3163 
Q 1038 2656 1286 2365 
Q 1534 2075 1959 2075 
z
" transform="scale(0.015625)"/>
      <path id="DejaVuSans-2e" d="M 684 794 
L 1344 794 
L 1344 0 
L 684 0 
L 684 794 
z
" transform="scale(0.015625)"/>
      <path id="DejaVuSans-5f" d="M 3263 -1063 
L 3263 -1509 
L -63 -1509 
L -63 -1063 
L 3263 -1063 
z
" transform="scale(0.015625)"/>
      <path id="DejaVuSans-63" d="M 3122 3366 
L 3122 2828 
Q 2878 2963 2633 3030 
Q 2388 3097 2138 3097 
Q 1578 3097 1268 2742 
Q 959 2388 959 1747 
Q 959 1106 1268 751 
Q 1578 397 2138 397 
Q 2388 397 2633 464 
Q 2878 531 3122 666 
L 3122 134 
Q 2881 22 2623 -34 
Q 2366 -91 2075 -91 
Q 1284 -91 818 406 
Q 353 903 353 1747 
Q 353 2603 823 3093 
Q 1294 3584 2113 3584 
Q 2378 3584 2631 3529 
Q 2884 3475 3122 3366 
z
" transform="scale(0.015625)"/>
      <path id="DejaVuSans-72" d="M 2631 2963 
Q 2534 3019 2420 3045 
Q 2306 3072 2169 3072 
Q 1681 3072 1420 2755 
Q 1159 2438 1159 1844 
L 1159 0 
L 581 0 
L 581 3500 
L 1159 3500 
L 1159 2956 
Q 1341 3275 1631 3429 
Q 1922 3584 2338 3584 
Q 2397 3584 2469 3576 
Q 2541 3569 2628 3553 
L 2631 2963 
z
" transform="scale(0.015625)"/>
      <path id="DejaVuSans-73" d="M 2834 3397 
L 2834 2853 
Q 2591 2978 2328 3040 
Q 2066 3103 1784 3103 
Q 1356 3103 1142 2972 
Q 928 2841 928 2578 
Q 928 2378 1081 2264 
Q 1234 2150 1697 2047 
L 1894 2003 
Q 2506 1872 2764 1633 
Q 3022 1394 3022 966 
Q 3022 478 2636 193 
Q 2250 -91 1575 -91 
Q 1294 -91 989 -36 
Q 684 19 347 128 
L 347 722 
Q 666 556 975 473 
Q 1284 391 1588 391 
Q 1994 391 2212 530 
Q 2431 669 2431 922 
Q 2431 1156 2273 1281 
Q 2116 1406 1581 1522 
L 1381 1569 
Q 847 1681 609 1914 
Q 372 2147 372 2553 
Q 372 3047 722 3315 
Q 1072 3584 1716 3584 
Q 2034 3584 2315 3537 
Q 2597 3491 2834 3397 
z
" transform="scale(0.015625)"/>
     </defs>
     <use xlink:href="#DejaVuSans-39"/>
     <use xlink:href="#DejaVuSans-2e" x="63.623047"/>
     <use xlink:href="#DejaVuSans-33" x="95.410156"/>
     <use xlink:href="#DejaVuSans-5f" x="159.033203"/>
     <use xlink:href="#DejaVuSans-63" x="209.033203"/>
     <use xlink:href="#DejaVuSans-72" x="264.013672"/>
     <use xlink:href="#DejaVuSans-6f" x="302.876953"/>
     <use xlink:href="#DejaVuSans-73" x="364.058594"/>
     <use xlink:href="#DejaVuSans-73" x="416.158203"/>
     <use xlink:href="#DejaVuSans-5f" x="468.257812"/>
     <use xlink:href="#DejaVuSans-32" x="518.257812"/>
     <use xlink:href="#DejaVuSans-34" x="581.880859"/>
     <use xlink:href="#DejaVuSans-2e" x="645.503906"/>
     <use xlink:href="#DejaVuSans-30" x="677.291016"/>
    </g>
   </g>
  </g>
 </g>
 <defs>
  <clipPath id="p592b9856c2">
   <rect x="34.240625" y="22.10625" width="357.12" height="266.112"/>
  </clipPath>
 </defs>
</svg>
