<?xml version="1.0" encoding="utf-8" standalone="no"?>
<!DOCTYPE svg PUBLIC "-//W3C//DTD SVG 1.1//EN"
  "http://www.w3.org/Graphics/SVG/1.1/DTD/svg11.dtd">
<svg xmlns:xlink="http://www.w3.org/1999/xlink" width="408.104375pt" height="325.7745pt" viewBox="0 0 408.104375 325.7745" xmlns="http://www.w3.org/2000/svg" version="1.1">
 <metadata>
  <rdf:RDF xmlns:dc="http://purl.org/dc/elements/1.1/" xmlns:cc="http://creativecommons.org/ns#" xmlns:rdf="http://www.w3.org/1999/02/22-rdf-syntax-ns#">
   <cc:Work>
    <dc:type rdf:resource="http://purl.org/dc/dcmitype/StillImage"/>
    <dc:date>2024-07-12T12:11:18.084429</dc:date>
    <dc:format>image/svg+xml</dc:format>
    <dc:creator>
     <cc:Agent>
      <dc:title>Matplotlib v3.5.3, https://matplotlib.org/</dc:title>
     </cc:Agent>
    </dc:creator>
   </cc:Work>
  </rdf:RDF>
 </metadata>
 <defs>
  <style type="text/css">*{stroke-linejoin: round; stroke-linecap: butt}</style>
 </defs>
 <g id="figure_1">
  <g id="patch_1">
   <path d="M 0 325.7745 
L 408.104375 325.7745 
L 408.104375 0 
L 0 0 
z
" style="fill: #ffffff"/>
  </g>
  <g id="axes_1">
   <g id="patch_2">
    <path d="M 34.240625 288.21825 
L 391.360625 288.21825 
L 391.360625 22.10625 
L 34.240625 22.10625 
z
" style="fill: #ffffff"/>
   </g>
   <g id="matplotlib.axis_1">
    <g id="xtick_1">
     <g id="line2d_1">
      <defs>
       <path id="mc8058f2b4d" d="M 0 0 
L 0 3.5 
" style="stroke: #000000; stroke-width: 0.8"/>
      </defs>
      <g>
       <use xlink:href="#mc8058f2b4d" x="34.240625" y="288.21825" style="stroke: #000000; stroke-width: 0.8"/>
      </g>
     </g>
     <g id="text_1">
      <!-- 0 -->
      <g transform="translate(31.059375 302.816687)scale(0.1 -0.1)">
       <defs>
        <path id="DejaVuSans-30" d="M 2034 4250 
Q 1547 4250 1301 3770 
Q 1056 3291 1056 2328 
Q 1056 1369 1301 889 
Q 1547 409 2034 409 
Q 2525 409 2770 889 
Q 3016 1369 3016 2328 
Q 3016 3291 2770 3770 
Q 2525 4250 2034 4250 
z
M 2034 4750 
Q 2819 4750 3233 4129 
Q 3647 3509 3647 2328 
Q 3647 1150 3233 529 
Q 2819 -91 2034 -91 
Q 1250 -91 836 529 
Q 422 1150 422 2328 
Q 422 3509 836 4129 
Q 1250 4750 2034 4750 
z
" transform="scale(0.015625)"/>
       </defs>
       <use xlink:href="#DejaVuSans-30"/>
      </g>
     </g>
    </g>
    <g id="xtick_2">
     <g id="line2d_2">
      <g>
       <use xlink:href="#mc8058f2b4d" x="105.664625" y="288.21825" style="stroke: #000000; stroke-width: 0.8"/>
      </g>
     </g>
     <g id="text_2">
      <!-- 20 -->
      <g transform="translate(99.302125 302.816687)scale(0.1 -0.1)">
       <defs>
        <path id="DejaVuSans-32" d="M 1228 531 
L 3431 531 
L 3431 0 
L 469 0 
L 469 531 
Q 828 903 1448 1529 
Q 2069 2156 2228 2338 
Q 2531 2678 2651 2914 
Q 2772 3150 2772 3378 
Q 2772 3750 2511 3984 
Q 2250 4219 1831 4219 
Q 1534 4219 1204 4116 
Q 875 4013 500 3803 
L 500 4441 
Q 881 4594 1212 4672 
Q 1544 4750 1819 4750 
Q 2544 4750 2975 4387 
Q 3406 4025 3406 3419 
Q 3406 3131 3298 2873 
Q 3191 2616 2906 2266 
Q 2828 2175 2409 1742 
Q 1991 1309 1228 531 
z
" transform="scale(0.015625)"/>
       </defs>
       <use xlink:href="#DejaVuSans-32"/>
       <use xlink:href="#DejaVuSans-30" x="63.623047"/>
      </g>
     </g>
    </g>
    <g id="xtick_3">
     <g id="line2d_3">
      <g>
       <use xlink:href="#mc8058f2b4d" x="177.088625" y="288.21825" style="stroke: #000000; stroke-width: 0.8"/>
      </g>
     </g>
     <g id="text_3">
      <!-- 40 -->
      <g transform="translate(170.726125 302.816687)scale(0.1 -0.1)">
       <defs>
        <path id="DejaVuSans-34" d="M 2419 4116 
L 825 1625 
L 2419 1625 
L 2419 4116 
z
M 2253 4666 
L 3047 4666 
L 3047 1625 
L 3713 1625 
L 3713 1100 
L 3047 1100 
L 3047 0 
L 2419 0 
L 2419 1100 
L 313 1100 
L 313 1709 
L 2253 4666 
z
" transform="scale(0.015625)"/>
       </defs>
       <use xlink:href="#DejaVuSans-34"/>
       <use xlink:href="#DejaVuSans-30" x="63.623047"/>
      </g>
     </g>
    </g>
    <g id="xtick_4">
     <g id="line2d_4">
      <g>
       <use xlink:href="#mc8058f2b4d" x="248.512625" y="288.21825" style="stroke: #000000; stroke-width: 0.8"/>
      </g>
     </g>
     <g id="text_4">
      <!-- 60 -->
      <g transform="translate(242.150125 302.816687)scale(0.1 -0.1)">
       <defs>
        <path id="DejaVuSans-36" d="M 2113 2584 
Q 1688 2584 1439 2293 
Q 1191 2003 1191 1497 
Q 1191 994 1439 701 
Q 1688 409 2113 409 
Q 2538 409 2786 701 
Q 3034 994 3034 1497 
Q 3034 2003 2786 2293 
Q 2538 2584 2113 2584 
z
M 3366 4563 
L 3366 3988 
Q 3128 4100 2886 4159 
Q 2644 4219 2406 4219 
Q 1781 4219 1451 3797 
Q 1122 3375 1075 2522 
Q 1259 2794 1537 2939 
Q 1816 3084 2150 3084 
Q 2853 3084 3261 2657 
Q 3669 2231 3669 1497 
Q 3669 778 3244 343 
Q 2819 -91 2113 -91 
Q 1303 -91 875 529 
Q 447 1150 447 2328 
Q 447 3434 972 4092 
Q 1497 4750 2381 4750 
Q 2619 4750 2861 4703 
Q 3103 4656 3366 4563 
z
" transform="scale(0.015625)"/>
       </defs>
       <use xlink:href="#DejaVuSans-36"/>
       <use xlink:href="#DejaVuSans-30" x="63.623047"/>
      </g>
     </g>
    </g>
    <g id="xtick_5">
     <g id="line2d_5">
      <g>
       <use xlink:href="#mc8058f2b4d" x="319.936625" y="288.21825" style="stroke: #000000; stroke-width: 0.8"/>
      </g>
     </g>
     <g id="text_5">
      <!-- 80 -->
      <g transform="translate(313.574125 302.816687)scale(0.1 -0.1)">
       <defs>
        <path id="DejaVuSans-38" d="M 2034 2216 
Q 1584 2216 1326 1975 
Q 1069 1734 1069 1313 
Q 1069 891 1326 650 
Q 1584 409 2034 409 
Q 2484 409 2743 651 
Q 3003 894 3003 1313 
Q 3003 1734 2745 1975 
Q 2488 2216 2034 2216 
z
M 1403 2484 
Q 997 2584 770 2862 
Q 544 3141 544 3541 
Q 544 4100 942 4425 
Q 1341 4750 2034 4750 
Q 2731 4750 3128 4425 
Q 3525 4100 3525 3541 
Q 3525 3141 3298 2862 
Q 3072 2584 2669 2484 
Q 3125 2378 3379 2068 
Q 3634 1759 3634 1313 
Q 3634 634 3220 271 
Q 2806 -91 2034 -91 
Q 1263 -91 848 271 
Q 434 634 434 1313 
Q 434 1759 690 2068 
Q 947 2378 1403 2484 
z
M 1172 3481 
Q 1172 3119 1398 2916 
Q 1625 2713 2034 2713 
Q 2441 2713 2670 2916 
Q 2900 3119 2900 3481 
Q 2900 3844 2670 4047 
Q 2441 4250 2034 4250 
Q 1625 4250 1398 4047 
Q 1172 3844 1172 3481 
z
" transform="scale(0.015625)"/>
       </defs>
       <use xlink:href="#DejaVuSans-38"/>
       <use xlink:href="#DejaVuSans-30" x="63.623047"/>
      </g>
     </g>
    </g>
    <g id="xtick_6">
     <g id="line2d_6">
      <g>
       <use xlink:href="#mc8058f2b4d" x="391.360625" y="288.21825" style="stroke: #000000; stroke-width: 0.8"/>
      </g>
     </g>
     <g id="text_6">
      <!-- 100 -->
      <g transform="translate(381.816875 302.816687)scale(0.1 -0.1)">
       <defs>
        <path id="DejaVuSans-31" d="M 794 531 
L 1825 531 
L 1825 4091 
L 703 3866 
L 703 4441 
L 1819 4666 
L 2450 4666 
L 2450 531 
L 3481 531 
L 3481 0 
L 794 0 
L 794 531 
z
" transform="scale(0.015625)"/>
       </defs>
       <use xlink:href="#DejaVuSans-31"/>
       <use xlink:href="#DejaVuSans-30" x="63.623047"/>
       <use xlink:href="#DejaVuSans-30" x="127.246094"/>
      </g>
     </g>
    </g>
    <g id="text_7">
     <!-- axialRotation -->
     <g transform="translate(180.024844 316.494812)scale(0.1 -0.1)">
      <defs>
       <path id="DejaVuSans-61" d="M 2194 1759 
Q 1497 1759 1228 1600 
Q 959 1441 959 1056 
Q 959 750 1161 570 
Q 1363 391 1709 391 
Q 2188 391 2477 730 
Q 2766 1069 2766 1631 
L 2766 1759 
L 2194 1759 
z
M 3341 1997 
L 3341 0 
L 2766 0 
L 2766 531 
Q 2569 213 2275 61 
Q 1981 -91 1556 -91 
Q 1019 -91 701 211 
Q 384 513 384 1019 
Q 384 1609 779 1909 
Q 1175 2209 1959 2209 
L 2766 2209 
L 2766 2266 
Q 2766 2663 2505 2880 
Q 2244 3097 1772 3097 
Q 1472 3097 1187 3025 
Q 903 2953 641 2809 
L 641 3341 
Q 956 3463 1253 3523 
Q 1550 3584 1831 3584 
Q 2591 3584 2966 3190 
Q 3341 2797 3341 1997 
z
" transform="scale(0.015625)"/>
       <path id="DejaVuSans-78" d="M 3513 3500 
L 2247 1797 
L 3578 0 
L 2900 0 
L 1881 1375 
L 863 0 
L 184 0 
L 1544 1831 
L 300 3500 
L 978 3500 
L 1906 2253 
L 2834 3500 
L 3513 3500 
z
" transform="scale(0.015625)"/>
       <path id="DejaVuSans-69" d="M 603 3500 
L 1178 3500 
L 1178 0 
L 603 0 
L 603 3500 
z
M 603 4863 
L 1178 4863 
L 1178 4134 
L 603 4134 
L 603 4863 
z
" transform="scale(0.015625)"/>
       <path id="DejaVuSans-6c" d="M 603 4863 
L 1178 4863 
L 1178 0 
L 603 0 
L 603 4863 
z
" transform="scale(0.015625)"/>
       <path id="DejaVuSans-52" d="M 2841 2188 
Q 3044 2119 3236 1894 
Q 3428 1669 3622 1275 
L 4263 0 
L 3584 0 
L 2988 1197 
Q 2756 1666 2539 1819 
Q 2322 1972 1947 1972 
L 1259 1972 
L 1259 0 
L 628 0 
L 628 4666 
L 2053 4666 
Q 2853 4666 3247 4331 
Q 3641 3997 3641 3322 
Q 3641 2881 3436 2590 
Q 3231 2300 2841 2188 
z
M 1259 4147 
L 1259 2491 
L 2053 2491 
Q 2509 2491 2742 2702 
Q 2975 2913 2975 3322 
Q 2975 3731 2742 3939 
Q 2509 4147 2053 4147 
L 1259 4147 
z
" transform="scale(0.015625)"/>
       <path id="DejaVuSans-6f" d="M 1959 3097 
Q 1497 3097 1228 2736 
Q 959 2375 959 1747 
Q 959 1119 1226 758 
Q 1494 397 1959 397 
Q 2419 397 2687 759 
Q 2956 1122 2956 1747 
Q 2956 2369 2687 2733 
Q 2419 3097 1959 3097 
z
M 1959 3584 
Q 2709 3584 3137 3096 
Q 3566 2609 3566 1747 
Q 3566 888 3137 398 
Q 2709 -91 1959 -91 
Q 1206 -91 779 398 
Q 353 888 353 1747 
Q 353 2609 779 3096 
Q 1206 3584 1959 3584 
z
" transform="scale(0.015625)"/>
       <path id="DejaVuSans-74" d="M 1172 4494 
L 1172 3500 
L 2356 3500 
L 2356 3053 
L 1172 3053 
L 1172 1153 
Q 1172 725 1289 603 
Q 1406 481 1766 481 
L 2356 481 
L 2356 0 
L 1766 0 
Q 1100 0 847 248 
Q 594 497 594 1153 
L 594 3053 
L 172 3053 
L 172 3500 
L 594 3500 
L 594 4494 
L 1172 4494 
z
" transform="scale(0.015625)"/>
       <path id="DejaVuSans-6e" d="M 3513 2113 
L 3513 0 
L 2938 0 
L 2938 2094 
Q 2938 2591 2744 2837 
Q 2550 3084 2163 3084 
Q 1697 3084 1428 2787 
Q 1159 2491 1159 1978 
L 1159 0 
L 581 0 
L 581 3500 
L 1159 3500 
L 1159 2956 
Q 1366 3272 1645 3428 
Q 1925 3584 2291 3584 
Q 2894 3584 3203 3211 
Q 3513 2838 3513 2113 
z
" transform="scale(0.015625)"/>
      </defs>
      <use xlink:href="#DejaVuSans-61"/>
      <use xlink:href="#DejaVuSans-78" x="61.279297"/>
      <use xlink:href="#DejaVuSans-69" x="120.458984"/>
      <use xlink:href="#DejaVuSans-61" x="148.242188"/>
      <use xlink:href="#DejaVuSans-6c" x="209.521484"/>
      <use xlink:href="#DejaVuSans-52" x="237.304688"/>
      <use xlink:href="#DejaVuSans-6f" x="302.287109"/>
      <use xlink:href="#DejaVuSans-74" x="363.46875"/>
      <use xlink:href="#DejaVuSans-61" x="402.677734"/>
      <use xlink:href="#DejaVuSans-74" x="463.957031"/>
      <use xlink:href="#DejaVuSans-69" x="503.166016"/>
      <use xlink:href="#DejaVuSans-6f" x="530.949219"/>
      <use xlink:href="#DejaVuSans-6e" x="592.130859"/>
     </g>
    </g>
   </g>
   <g id="matplotlib.axis_2">
    <g id="ytick_1">
     <g id="line2d_7">
      <defs>
       <path id="m95e13de490" d="M 0 0 
L -3.5 0 
" style="stroke: #000000; stroke-width: 0.8"/>
      </defs>
      <g>
       <use xlink:href="#m95e13de490" x="34.240625" y="288.21825" style="stroke: #000000; stroke-width: 0.8"/>
      </g>
     </g>
     <g id="text_8">
      <!-- 0 -->
      <g transform="translate(20.878125 292.017469)scale(0.1 -0.1)">
       <use xlink:href="#DejaVuSans-30"/>
      </g>
     </g>
    </g>
    <g id="ytick_2">
     <g id="line2d_8">
      <g>
       <use xlink:href="#m95e13de490" x="34.240625" y="243.86625" style="stroke: #000000; stroke-width: 0.8"/>
      </g>
     </g>
     <g id="text_9">
      <!-- 1 -->
      <g transform="translate(20.878125 247.665469)scale(0.1 -0.1)">
       <use xlink:href="#DejaVuSans-31"/>
      </g>
     </g>
    </g>
    <g id="ytick_3">
     <g id="line2d_9">
      <g>
       <use xlink:href="#m95e13de490" x="34.240625" y="199.51425" style="stroke: #000000; stroke-width: 0.8"/>
      </g>
     </g>
     <g id="text_10">
      <!-- 2 -->
      <g transform="translate(20.878125 203.313469)scale(0.1 -0.1)">
       <use xlink:href="#DejaVuSans-32"/>
      </g>
     </g>
    </g>
    <g id="ytick_4">
     <g id="line2d_10">
      <g>
       <use xlink:href="#m95e13de490" x="34.240625" y="155.16225" style="stroke: #000000; stroke-width: 0.8"/>
      </g>
     </g>
     <g id="text_11">
      <!-- 3 -->
      <g transform="translate(20.878125 158.961469)scale(0.1 -0.1)">
       <defs>
        <path id="DejaVuSans-33" d="M 2597 2516 
Q 3050 2419 3304 2112 
Q 3559 1806 3559 1356 
Q 3559 666 3084 287 
Q 2609 -91 1734 -91 
Q 1441 -91 1130 -33 
Q 819 25 488 141 
L 488 750 
Q 750 597 1062 519 
Q 1375 441 1716 441 
Q 2309 441 2620 675 
Q 2931 909 2931 1356 
Q 2931 1769 2642 2001 
Q 2353 2234 1838 2234 
L 1294 2234 
L 1294 2753 
L 1863 2753 
Q 2328 2753 2575 2939 
Q 2822 3125 2822 3475 
Q 2822 3834 2567 4026 
Q 2313 4219 1838 4219 
Q 1578 4219 1281 4162 
Q 984 4106 628 3988 
L 628 4550 
Q 988 4650 1302 4700 
Q 1616 4750 1894 4750 
Q 2613 4750 3031 4423 
Q 3450 4097 3450 3541 
Q 3450 3153 3228 2886 
Q 3006 2619 2597 2516 
z
" transform="scale(0.015625)"/>
       </defs>
       <use xlink:href="#DejaVuSans-33"/>
      </g>
     </g>
    </g>
    <g id="ytick_5">
     <g id="line2d_11">
      <g>
       <use xlink:href="#m95e13de490" x="34.240625" y="110.81025" style="stroke: #000000; stroke-width: 0.8"/>
      </g>
     </g>
     <g id="text_12">
      <!-- 4 -->
      <g transform="translate(20.878125 114.609469)scale(0.1 -0.1)">
       <use xlink:href="#DejaVuSans-34"/>
      </g>
     </g>
    </g>
    <g id="ytick_6">
     <g id="line2d_12">
      <g>
       <use xlink:href="#m95e13de490" x="34.240625" y="66.45825" style="stroke: #000000; stroke-width: 0.8"/>
      </g>
     </g>
     <g id="text_13">
      <!-- 5 -->
      <g transform="translate(20.878125 70.257469)scale(0.1 -0.1)">
       <defs>
        <path id="DejaVuSans-35" d="M 691 4666 
L 3169 4666 
L 3169 4134 
L 1269 4134 
L 1269 2991 
Q 1406 3038 1543 3061 
Q 1681 3084 1819 3084 
Q 2600 3084 3056 2656 
Q 3513 2228 3513 1497 
Q 3513 744 3044 326 
Q 2575 -91 1722 -91 
Q 1428 -91 1123 -41 
Q 819 9 494 109 
L 494 744 
Q 775 591 1075 516 
Q 1375 441 1709 441 
Q 2250 441 2565 725 
Q 2881 1009 2881 1497 
Q 2881 1984 2565 2268 
Q 2250 2553 1709 2553 
Q 1456 2553 1204 2497 
Q 953 2441 691 2322 
L 691 4666 
z
" transform="scale(0.015625)"/>
       </defs>
       <use xlink:href="#DejaVuSans-35"/>
      </g>
     </g>
    </g>
    <g id="ytick_7">
     <g id="line2d_13">
      <g>
       <use xlink:href="#m95e13de490" x="34.240625" y="22.10625" style="stroke: #000000; stroke-width: 0.8"/>
      </g>
     </g>
     <g id="text_14">
      <!-- 6 -->
      <g transform="translate(20.878125 25.905469)scale(0.1 -0.1)">
       <use xlink:href="#DejaVuSans-36"/>
      </g>
     </g>
    </g>
    <g id="text_15">
     <!-- zShift -->
     <g transform="translate(14.798438 169.151312)rotate(-90)scale(0.1 -0.1)">
      <defs>
       <path id="DejaVuSans-7a" d="M 353 3500 
L 3084 3500 
L 3084 2975 
L 922 459 
L 3084 459 
L 3084 0 
L 275 0 
L 275 525 
L 2438 3041 
L 353 3041 
L 353 3500 
z
" transform="scale(0.015625)"/>
       <path id="DejaVuSans-53" d="M 3425 4513 
L 3425 3897 
Q 3066 4069 2747 4153 
Q 2428 4238 2131 4238 
Q 1616 4238 1336 4038 
Q 1056 3838 1056 3469 
Q 1056 3159 1242 3001 
Q 1428 2844 1947 2747 
L 2328 2669 
Q 3034 2534 3370 2195 
Q 3706 1856 3706 1288 
Q 3706 609 3251 259 
Q 2797 -91 1919 -91 
Q 1588 -91 1214 -16 
Q 841 59 441 206 
L 441 856 
Q 825 641 1194 531 
Q 1563 422 1919 422 
Q 2459 422 2753 634 
Q 3047 847 3047 1241 
Q 3047 1584 2836 1778 
Q 2625 1972 2144 2069 
L 1759 2144 
Q 1053 2284 737 2584 
Q 422 2884 422 3419 
Q 422 4038 858 4394 
Q 1294 4750 2059 4750 
Q 2388 4750 2728 4690 
Q 3069 4631 3425 4513 
z
" transform="scale(0.015625)"/>
       <path id="DejaVuSans-68" d="M 3513 2113 
L 3513 0 
L 2938 0 
L 2938 2094 
Q 2938 2591 2744 2837 
Q 2550 3084 2163 3084 
Q 1697 3084 1428 2787 
Q 1159 2491 1159 1978 
L 1159 0 
L 581 0 
L 581 4863 
L 1159 4863 
L 1159 2956 
Q 1366 3272 1645 3428 
Q 1925 3584 2291 3584 
Q 2894 3584 3203 3211 
Q 3513 2838 3513 2113 
z
" transform="scale(0.015625)"/>
       <path id="DejaVuSans-66" d="M 2375 4863 
L 2375 4384 
L 1825 4384 
Q 1516 4384 1395 4259 
Q 1275 4134 1275 3809 
L 1275 3500 
L 2222 3500 
L 2222 3053 
L 1275 3053 
L 1275 0 
L 697 0 
L 697 3053 
L 147 3053 
L 147 3500 
L 697 3500 
L 697 3744 
Q 697 4328 969 4595 
Q 1241 4863 1831 4863 
L 2375 4863 
z
" transform="scale(0.015625)"/>
      </defs>
      <use xlink:href="#DejaVuSans-7a"/>
      <use xlink:href="#DejaVuSans-53" x="52.490234"/>
      <use xlink:href="#DejaVuSans-68" x="115.966797"/>
      <use xlink:href="#DejaVuSans-69" x="179.345703"/>
      <use xlink:href="#DejaVuSans-66" x="207.128906"/>
      <use xlink:href="#DejaVuSans-74" x="240.583984"/>
     </g>
    </g>
   </g>
   <g id="PathCollection_1"/>
   <g id="PathCollection_2">
    <path d="M 34.240625 128.951203 
L 35.877651 126.77697 
L 36.026225 126.581068 
L 37.847537 124.209563 
L 37.920135 124.11585 
L 39.633137 121.90368 
L 39.986914 121.45473 
L 41.418737 119.627932 
L 42.08462 118.79361 
L 43.204337 117.377675 
L 44.206581 116.13249 
L 45.025649 115.103953 
L 46.34909 113.47137 
L 46.811249 112.892522 
L 48.504833 110.81025 
L 48.596849 110.69513 
L 50.382449 108.472539 
L 50.645428 108.14913 
L 52.203761 106.201128 
L 52.783495 105.48801 
L 53.989361 103.977313 
L 54.923369 102.82689 
L 55.774961 101.759049 
L 57.067722 100.16577 
L 57.560561 99.547813 
L 59.217759 97.50465 
L 59.381873 97.299249 
L 61.167473 95.081538 
L 61.360964 94.84353 
L 62.953073 92.85357 
L 63.499495 92.18241 
L 64.738673 90.63458 
L 65.644844 89.52129 
L 66.559985 88.368843 
L 68.163283 86.41665 
L 68.345585 86.188469 
L 70.131185 83.972413 
L 70.307298 83.75553 
L 71.916785 81.73773 
L 72.437855 81.09441 
L 73.738097 79.463771 
L 74.572763 78.43329 
L 75.523697 77.239538 
L 76.71265 75.77217 
L 77.309297 75.023694 
L 78.860831 73.11105 
L 79.094897 72.817661 
L 80.916209 70.562543 
L 81.007614 70.44993 
L 82.701809 68.32687 
L 83.138203 67.78881 
L 84.487409 66.093619 
L 85.268144 65.12769 
L 86.273009 63.858083 
L 87.389089 62.46657 
L 88.094321 61.568085 
L 89.493819 59.80545 
L 89.879921 59.306376 
L 91.569189 57.14433 
L 91.665521 57.01735 
L 93.451121 54.663317 
L 93.587711 54.48321 
L 95.272433 52.186517 
L 95.539521 51.82209 
L 97.058033 49.660231 
L 97.406428 49.16097 
L 98.843633 46.99122 
L 99.164403 46.49985 
L 100.629233 44.081974 
L 101.039585 43.39521 
L 102.450545 40.825582 
L 102.49909 40.73409 
L 103.780087 38.07297 
L 104.236145 37.050057 
L 104.933767 35.41185 
L 106.002354 32.75073 
L 106.021745 32.699303 
L 106.959701 30.08961 
L 107.807345 27.770077 
L 107.92698 27.42849 
L 108.885248 24.76737 
L 109.628657 22.906087 
L 109.940671 22.10625 
" clip-path="url(#p55b5c9fe5d)" style="fill: none; stroke: #deebf7; stroke-width: 1.5"/>
    <path d="M 114.743821 288.21825 
L 114.583726 285.55713 
L 114.723778 282.89601 
L 115.139504 280.23489 
L 115.798485 277.57377 
L 116.806769 274.73978 
L 117.857147 272.25153 
L 119.201651 269.59041 
L 122.163569 264.639391 
L 124.492268 261.16353 
L 128.36483 255.84129 
L 132.948593 249.906872 
L 152.697329 225.278014 
L 167.06165 207.49761 
L 181.846466 188.86977 
L 185.747172 183.54753 
L 188.587889 179.279561 
L 190.373489 176.276668 
L 192.159089 172.926329 
L 192.390333 172.45953 
L 193.944689 168.913058 
L 195.766001 163.975527 
L 199.337201 153.043728 
L 200.003083 151.17057 
L 202.257389 145.84833 
L 204.729713 141.105372 
L 206.515313 138.088567 
L 208.37195 135.20385 
L 212.422895 129.43809 
L 217.300337 123.009943 
L 227.016027 110.81025 
L 242.405873 91.706035 
L 253.190897 78.354383 
L 271.118321 55.806766 
L 274.725233 50.914368 
L 277.713096 46.49985 
L 280.082033 42.513861 
L 282.336739 38.07297 
L 283.688945 34.95311 
L 285.535626 30.08961 
L 287.455785 24.76737 
L 288.492501 22.10625 
L 288.492501 22.10625 
" clip-path="url(#p55b5c9fe5d)" style="fill: none; stroke: #deebf7; stroke-width: 1.5"/>
    <path d="M 221.58717 22.10625 
L 221.743952 24.76737 
L 221.60715 27.42849 
L 221.187236 30.08961 
L 220.515434 32.75073 
L 219.085937 36.600898 
L 218.462459 38.07297 
L 217.108595 40.73409 
L 215.479025 43.564237 
L 211.812655 49.16097 
L 207.94132 54.48321 
L 202.944113 60.95032 
L 184.622389 83.75553 
L 152.697329 123.821992 
L 150.565878 126.77697 
L 147.062953 132.09921 
L 145.283395 135.20385 
L 143.697905 138.368637 
L 141.6767 143.18721 
L 139.853328 148.50945 
L 137.284675 156.49281 
L 135.248774 161.81505 
L 132.729803 167.13729 
L 129.676535 172.45953 
L 127.556081 175.715162 
L 123.883087 180.88641 
L 118.592369 187.852979 
L 109.275225 199.51425 
L 93.451121 219.113299 
L 80.585292 234.55233 
L 77.309297 238.289488 
L 71.916785 244.027321 
L 67.927266 247.85793 
L 64.738673 250.654509 
L 61.167473 253.450526 
L 59.381873 254.722168 
L 55.774961 256.949335 
L 52.203761 258.737429 
L 48.596849 260.200753 
L 45.025649 261.229862 
L 41.418737 261.969524 
L 37.847537 262.331928 
L 34.240625 262.342909 
L 34.240625 262.342909 
" clip-path="url(#p55b5c9fe5d)" style="fill: none; stroke: #deebf7; stroke-width: 1.5"/>
    <path d="M 293.286086 288.21825 
L 293.130608 285.55713 
L 293.263134 282.89601 
L 293.67321 280.23489 
L 294.362364 277.57377 
L 294.438257 277.35746 
L 295.262921 274.91265 
L 296.259569 272.62835 
L 296.419835 272.25153 
L 297.761516 269.59041 
L 298.045169 269.095151 
L 299.277888 266.92929 
L 299.830769 266.046576 
L 301.245046 263.82465 
L 301.616369 263.276628 
L 303.056261 261.16353 
L 303.437681 260.627659 
L 304.964769 258.50241 
L 305.223281 258.151651 
L 306.948814 255.84129 
L 307.008881 255.761919 
L 308.794481 253.416721 
L 308.976637 253.18017 
L 310.615793 251.063921 
L 311.044519 250.51905 
L 312.401393 248.78953 
L 313.145182 247.85793 
L 314.186993 246.541878 
L 315.271048 245.19681 
L 315.972593 244.315073 
L 317.412798 242.53569 
L 317.793905 242.058116 
L 319.566366 239.87457 
L 319.579505 239.858096 
L 321.365105 237.622124 
L 321.696858 237.21345 
L 323.150705 235.391559 
L 323.831575 234.55233 
L 324.972017 233.125222 
L 325.975269 231.89121 
L 326.757617 230.912939 
L 328.129072 229.23009 
L 328.543217 228.713427 
L 330.296277 226.56897 
L 330.328817 226.528468 
L 332.150129 224.271477 
L 332.448648 223.90785 
L 333.935729 222.047468 
L 334.967985 220.80321 
L 335.721329 219.868201 
L 337.140578 218.14209 
L 337.506929 217.686289 
L 339.314375 215.48097 
L 339.328241 215.463648 
L 341.113841 213.238856 
L 341.456723 212.81985 
L 342.899441 211.00607 
L 343.586684 210.15873 
L 344.685041 208.758193 
L 345.690711 207.49761 
L 346.506353 206.434118 
L 347.749111 204.83649 
L 348.291953 204.102306 
L 349.731566 202.17537 
L 350.077553 201.682552 
L 351.606726 199.51425 
L 351.863153 199.122774 
L 353.345947 196.85313 
L 353.684465 196.290807 
L 354.937503 194.19201 
L 355.470065 193.219203 
L 356.38404 191.53089 
L 357.255665 189.78758 
L 357.709284 188.86977 
L 358.945809 186.20865 
L 359.041265 185.993809 
L 360.120132 183.54753 
L 360.862577 181.902448 
L 361.323159 180.88641 
L 362.610489 178.22529 
L 362.648177 178.153073 
L 364.304012 175.12065 
L 364.433777 174.910201 
L 366.032155 172.45953 
L 366.219377 172.204843 
L 368.040689 169.911985 
L 368.138904 169.79841 
L 369.826289 168.032978 
L 370.796771 167.13729 
L 371.611889 166.439916 
L 373.397489 165.090407 
L 374.332513 164.47617 
L 375.218801 163.91724 
L 377.004401 162.940988 
L 378.790001 162.128629 
L 379.608745 161.81505 
L 380.575601 161.44198 
L 382.396913 160.864737 
L 384.182513 160.423286 
L 385.968113 160.09519 
L 387.753713 159.873232 
L 389.575025 159.751109 
L 391.360625 159.730832 
" clip-path="url(#p55b5c9fe5d)" style="fill: none; stroke: #deebf7; stroke-width: 1.5"/>
    <path d="M 391.360625 47.722034 
L 388.474299 51.82209 
L 384.182513 57.498783 
L 375.218801 68.799426 
L 358.542534 89.52129 
L 350.077553 100.334982 
L 346.353381 105.48801 
L 344.577839 108.14913 
L 342.899441 110.874383 
L 341.113841 114.15515 
L 339.328241 117.953083 
L 337.9344 121.45473 
L 337.004042 124.11585 
L 332.411308 137.86497 
L 330.089743 143.18721 
L 328.543217 146.174531 
L 326.757617 149.287635 
L 323.843821 153.83169 
L 320.035767 159.15393 
L 315.963263 164.47617 
L 308.794481 173.54147 
L 283.539466 204.83649 
L 259.950601 234.55233 
L 256.193354 239.87457 
L 253.190897 244.716868 
L 251.504406 247.85793 
L 250.273373 250.51905 
L 249.1684 253.18017 
L 247.29581 258.50241 
L 244.191473 267.993185 
L 243.629916 269.59041 
L 241.398162 274.91265 
L 238.834673 279.810554 
L 238.599245 280.23489 
L 236.969004 282.89601 
L 233.442161 287.983686 
L 233.26849 288.21825 
L 233.26849 288.21825 
" clip-path="url(#p55b5c9fe5d)" style="fill: none; stroke: #deebf7; stroke-width: 1.5"/>
   </g>
   <g id="PathCollection_3">
    <path d="M 34.240625 145.91391 
L 34.273613 145.84833 
L 35.74077 143.18721 
L 36.026225 142.712008 
L 37.349328 140.52609 
L 37.847537 139.757564 
L 39.086999 137.86497 
L 39.633137 137.070796 
L 40.932627 135.20385 
L 41.418737 134.526084 
L 43.201622 132.09921 
L 43.204337 132.095573 
L 45.025649 129.672464 
L 45.203948 129.43809 
L 46.811249 127.345387 
L 47.253449 126.77697 
L 48.596849 125.056329 
L 49.340787 124.11585 
L 50.382449 122.797891 
L 51.457661 121.45473 
L 52.203761 120.51957 
L 53.598479 118.79361 
L 53.989361 118.306192 
L 55.7555 116.13249 
L 55.774961 116.108288 
L 57.560561 113.892835 
L 57.903882 113.47137 
L 59.381873 111.636974 
L 60.055152 110.81025 
L 61.167473 109.42671 
L 62.205937 108.14913 
L 62.953073 107.218105 
L 64.356818 105.48801 
L 64.738673 105.011666 
L 66.509009 102.82689 
L 66.559985 102.763341 
L 68.345585 100.542065 
L 68.650874 100.16577 
L 70.131185 98.323385 
L 70.796194 97.50465 
L 71.916785 96.11115 
L 72.946739 94.84353 
L 73.738097 93.859945 
L 75.101484 92.18241 
L 75.523697 91.65675 
L 77.256779 89.52129 
L 77.309297 89.455409 
L 79.094897 87.220298 
L 79.747845 86.41665 
L 80.916209 84.956605 
L 81.886069 83.75553 
L 82.701809 82.73466 
L 84.02567 81.09441 
L 84.487409 80.516717 
L 86.170318 78.43329 
L 86.273009 78.304944 
L 88.094321 76.038091 
L 88.309366 75.77217 
L 89.879921 73.812153 
L 90.447222 73.11105 
L 91.665521 71.589075 
L 92.585913 70.44993 
L 93.451121 69.365156 
L 94.718516 67.78881 
L 95.272433 67.089968 
L 96.838508 65.12769 
L 97.058033 64.847697 
L 98.843633 62.578307 
L 98.931448 62.46657 
L 100.629233 60.261686 
L 100.981307 59.80545 
L 102.450545 57.855371 
L 102.985941 57.14433 
L 104.236145 55.431169 
L 104.925238 54.48321 
L 106.021745 52.912895 
L 106.776715 51.82209 
L 107.807345 50.254428 
L 108.515371 49.16097 
L 109.628657 47.329545 
L 110.12241 46.49985 
L 111.414257 44.135353 
L 111.810083 43.39521 
L 113.103397 40.73409 
L 113.199857 40.516948 
L 114.250528 38.07297 
L 114.985457 36.247073 
L 115.311186 35.41185 
L 116.301549 32.75073 
L 116.806769 31.391801 
L 117.280248 30.08961 
L 118.297234 27.42849 
L 118.592369 26.717569 
L 119.400738 24.76737 
L 120.377969 22.711158 
L 120.669945 22.10625 
" clip-path="url(#p55b5c9fe5d)" style="fill: none; stroke: #c6dbef; stroke-width: 1.5"/>
    <path d="M 126.079969 288.21825 
L 125.74908 285.55713 
L 125.783191 282.89601 
L 126.146331 280.23489 
L 126.818223 277.57377 
L 127.775463 274.91265 
L 129.341681 271.545861 
L 131.162993 268.258181 
L 132.948593 265.394333 
L 135.837321 261.16353 
L 140.126705 255.411699 
L 148.197082 245.19681 
L 161.661041 228.496011 
L 176.496988 210.15873 
L 190.373489 192.697869 
L 193.944689 187.8876 
L 196.933492 183.54753 
L 199.337201 179.609689 
L 201.122801 176.263543 
L 201.692608 175.12065 
L 202.944113 172.315313 
L 204.872237 167.13729 
L 209.239144 153.83169 
L 211.494515 148.50945 
L 213.693425 144.267343 
L 215.479025 141.226368 
L 217.643394 137.86497 
L 221.736266 132.09921 
L 226.264049 126.16319 
L 236.385822 113.47137 
L 253.592318 92.18241 
L 278.296433 61.408379 
L 281.903345 56.657882 
L 285.474545 51.625752 
L 287.260145 48.871237 
L 289.081457 45.777689 
L 290.867057 42.381028 
L 292.818637 38.07297 
L 294.862702 32.75073 
L 296.853311 27.42849 
L 298.045169 24.605701 
L 299.226054 22.10625 
L 299.226054 22.10625 
" clip-path="url(#p55b5c9fe5d)" style="fill: none; stroke: #c6dbef; stroke-width: 1.5"/>
    <path d="M 210.236999 22.10625 
L 210.577525 24.76737 
L 210.543313 27.42849 
L 210.122225 30.260087 
L 209.499169 32.75073 
L 208.300913 35.944248 
L 207.351137 38.07297 
L 205.94157 40.73409 
L 202.944113 45.559791 
L 200.46125 49.16097 
L 195.766001 55.421257 
L 188.043886 65.12769 
L 161.661041 97.859798 
L 149.090417 113.549894 
L 143.078836 121.45473 
L 139.388395 126.77697 
L 136.519793 131.526015 
L 136.198192 132.09921 
L 134.619986 135.20385 
L 132.948593 139.099526 
L 131.452491 143.18721 
L 129.341681 149.797822 
L 128.035906 153.83169 
L 126.01179 159.15393 
L 123.984881 163.502192 
L 123.497657 164.47617 
L 122.018331 167.13729 
L 118.666908 172.45953 
L 114.985457 177.661091 
L 110.51176 183.54753 
L 104.157145 191.53089 
L 88.094321 211.367048 
L 79.094897 222.211233 
L 71.916785 230.39438 
L 66.559985 235.959552 
L 62.318559 239.87457 
L 59.381873 242.31678 
L 55.774961 244.95102 
L 52.203761 247.145425 
L 48.596849 248.909783 
L 46.811249 249.609814 
L 43.204337 250.669159 
L 41.418737 251.029602 
L 39.633137 251.269269 
L 37.847537 251.387899 
L 36.026225 251.38193 
L 34.240625 251.247316 
L 34.240625 251.247316 
" clip-path="url(#p55b5c9fe5d)" style="fill: none; stroke: #c6dbef; stroke-width: 1.5"/>
    <path d="M 304.637757 288.21825 
L 304.300621 285.55713 
L 304.334124 282.89601 
L 304.705905 280.23489 
L 305.223281 278.231766 
L 305.387708 277.57377 
L 306.333093 274.91265 
L 307.008881 273.421058 
L 307.531351 272.25153 
L 308.794481 269.876481 
L 308.945503 269.59041 
L 310.532922 266.92929 
L 310.615793 266.801646 
L 312.401393 264.069612 
L 312.562946 263.82465 
L 314.186993 261.502285 
L 314.425366 261.16353 
L 315.972593 259.047051 
L 316.373989 258.50241 
L 317.793905 256.623832 
L 318.391253 255.84129 
L 319.579505 254.305508 
L 320.460304 253.18017 
L 321.365105 252.030031 
L 322.568291 250.51905 
L 323.150705 249.786516 
L 324.702177 247.85793 
L 324.972017 247.520673 
L 326.757617 245.308749 
L 326.848302 245.19681 
L 328.543217 243.085201 
L 328.989249 242.53569 
L 330.328817 240.86761 
L 331.135044 239.87457 
L 332.150129 238.611972 
L 333.287489 237.21345 
L 333.935729 236.408129 
L 335.448935 234.55233 
L 335.721329 234.214982 
L 337.506929 232.027088 
L 337.618414 231.89121 
L 339.328241 229.790898 
L 339.791279 229.23009 
L 341.113841 227.612491 
L 341.980565 226.56897 
L 342.899441 225.449907 
L 344.187266 223.90785 
L 344.685041 223.300282 
L 346.506353 221.123562 
L 346.778274 220.80321 
L 348.291953 218.982801 
L 349.00556 218.14209 
L 350.077553 216.855492 
L 351.248746 215.48097 
L 351.863153 214.743267 
L 353.503204 212.81985 
L 353.684465 212.601224 
L 355.470065 210.483966 
L 355.750437 210.15873 
L 357.255665 208.34325 
L 357.975623 207.49761 
L 359.041265 206.180452 
L 360.156391 204.83649 
L 360.862577 203.929027 
L 362.259851 202.17537 
L 362.648177 201.647928 
L 364.254579 199.51425 
L 364.433777 199.253614 
L 366.121222 196.85313 
L 366.219377 196.699345 
L 367.859406 194.19201 
L 368.040689 193.88838 
L 369.491734 191.53089 
L 369.826289 190.946422 
L 371.064182 188.86977 
L 371.611889 187.915387 
L 372.647128 186.20865 
L 373.397489 184.979899 
L 374.341001 183.54753 
L 375.218801 182.282016 
L 376.28997 180.88641 
L 377.004401 180.030009 
L 378.722273 178.22529 
L 378.790001 178.161132 
L 380.575601 176.691684 
L 382.396913 175.470391 
L 383.046547 175.12065 
L 384.182513 174.563639 
L 385.968113 173.900489 
L 387.753713 173.446304 
L 389.575025 173.189855 
L 391.360625 173.136938 
" clip-path="url(#p55b5c9fe5d)" style="fill: none; stroke: #c6dbef; stroke-width: 1.5"/>
    <path d="M 388.803676 22.10625 
L 389.137078 24.76737 
L 389.103617 27.42849 
L 388.736066 30.08961 
L 387.753713 33.582235 
L 387.106374 35.41185 
L 385.900724 38.07297 
L 384.182513 41.263104 
L 382.396913 44.192209 
L 379.014727 49.16097 
L 375.04309 54.48321 
L 368.040689 63.347046 
L 346.506353 90.11932 
L 340.80032 97.50465 
L 336.985583 102.82689 
L 333.935729 107.604824 
L 332.135222 110.81025 
L 330.328817 114.613993 
L 328.641296 118.79361 
L 326.857006 124.11585 
L 324.303802 132.09921 
L 322.058096 137.86497 
L 320.823209 140.52609 
L 319.44072 143.18721 
L 317.793905 146.056031 
L 314.497406 151.17057 
L 310.615793 156.560609 
L 304.523344 164.47617 
L 295.989783 175.12065 
L 282.749807 191.53089 
L 254.564731 226.56897 
L 249.583985 233.219727 
L 246.816088 237.21345 
L 244.191473 241.469983 
L 242.405873 244.768586 
L 242.18704 245.19681 
L 240.620273 248.662169 
L 238.834673 253.333347 
L 234.373194 266.92929 
L 232.135909 272.25153 
L 229.835249 276.650039 
L 228.049649 279.606784 
L 226.264049 282.266201 
L 224.478449 284.700781 
L 222.657137 286.996609 
L 221.631484 288.21825 
L 221.631484 288.21825 
" clip-path="url(#p55b5c9fe5d)" style="fill: none; stroke: #c6dbef; stroke-width: 1.5"/>
   </g>
   <g id="PathCollection_4">
    <path d="M 34.240625 165.844972 
L 34.652631 164.47617 
L 35.462301 161.81505 
L 36.026225 160.060056 
L 36.313752 159.15393 
L 37.232107 156.49281 
L 37.847537 154.8975 
L 38.25758 153.83169 
L 39.40914 151.17057 
L 39.633137 150.706083 
L 40.698445 148.50945 
L 41.418737 147.173609 
L 42.139996 145.84833 
L 43.204337 144.057621 
L 43.727451 143.18721 
L 45.025649 141.173215 
L 45.447736 140.52609 
L 46.811249 138.540519 
L 47.28072 137.86497 
L 48.596849 136.03867 
L 49.205346 135.20385 
L 50.382449 133.625529 
L 51.540067 132.09921 
L 52.203761 131.236094 
L 53.600643 129.43809 
L 53.989361 128.941732 
L 55.70259 126.77697 
L 55.774961 126.685834 
L 57.560561 124.450526 
L 57.830176 124.11585 
L 59.381873 122.190155 
L 59.980039 121.45473 
L 61.167473 119.98942 
L 62.145358 118.79361 
L 62.953073 117.7993 
L 64.318527 116.13249 
L 64.738673 115.61505 
L 66.492395 113.47137 
L 66.559985 113.387966 
L 68.345585 111.190385 
L 68.656125 110.81025 
L 70.131185 108.987842 
L 70.814229 108.14913 
L 71.916785 106.7842 
L 72.970104 105.48801 
L 73.738097 104.536857 
L 75.127201 102.82689 
L 75.523697 102.335842 
L 77.287086 100.16577 
L 77.309297 100.138272 
L 79.094897 97.931276 
L 79.441608 97.50465 
L 80.916209 95.680385 
L 81.595624 94.84353 
L 82.701809 93.472019 
L 83.746419 92.18241 
L 84.487409 91.261197 
L 85.892866 89.52129 
L 86.273009 89.046218 
L 88.094321 86.782961 
L 88.38979 86.41665 
L 89.879921 84.557271 
L 90.525063 83.75553 
L 91.665521 82.333011 
L 92.663114 81.09441 
L 93.451121 80.112687 
L 94.805515 78.43329 
L 95.272433 77.852241 
L 96.951765 75.77217 
L 97.058033 75.639795 
L 98.843633 73.418822 
L 99.091536 73.11105 
L 100.629233 71.188204 
L 101.220974 70.44993 
L 102.450545 68.901434 
L 103.335229 67.78881 
L 104.236145 66.641564 
L 105.425625 65.12769 
L 106.021745 64.357039 
L 107.482864 62.46657 
L 107.807345 62.03826 
L 109.493736 59.80545 
L 109.628657 59.622113 
L 111.414257 57.180879 
L 111.440773 57.14433 
L 113.199857 54.628719 
L 113.300551 54.48321 
L 114.985457 51.925764 
L 115.05277 51.82209 
L 116.673788 49.16097 
L 116.806769 48.925836 
L 118.14952 46.49985 
L 118.592369 45.621918 
L 119.691051 43.39521 
L 120.377969 41.863625 
L 120.873253 40.73409 
L 121.953915 38.07297 
L 122.163569 37.527985 
L 122.964395 35.41185 
L 123.967258 32.75073 
L 123.984881 32.705223 
L 124.997027 30.08961 
L 125.770481 28.272694 
L 126.134856 27.42849 
L 127.443881 24.76737 
L 127.556081 24.56859 
L 129.006613 22.10625 
" clip-path="url(#p55b5c9fe5d)" style="fill: none; stroke: #9dcae1; stroke-width: 1.5"/>
    <path d="M 135.004273 288.21825 
L 134.396841 285.55713 
L 134.256311 282.89601 
L 134.524138 280.23489 
L 135.144836 277.57377 
L 136.519793 273.930252 
L 137.270684 272.25153 
L 138.691938 269.59041 
L 140.295111 266.92929 
L 144.223231 261.16353 
L 149.090417 254.721461 
L 156.672137 245.19681 
L 168.839153 230.195742 
L 182.980395 212.81985 
L 195.766001 196.819471 
L 199.750843 191.53089 
L 203.458819 186.20865 
L 205.140474 183.54753 
L 206.679932 180.88641 
L 208.300913 177.710522 
L 210.122225 173.525965 
L 211.493457 169.79841 
L 213.693425 162.854902 
L 215.479025 157.390564 
L 216.812938 153.83169 
L 217.962669 151.17057 
L 219.25808 148.50945 
L 220.871537 145.552655 
L 222.657137 142.595504 
L 225.820887 137.86497 
L 230.061141 132.09921 
L 236.289228 124.11585 
L 247.798385 109.829779 
L 283.984654 65.12769 
L 289.081457 58.397826 
L 291.855635 54.48321 
L 294.438257 50.470925 
L 296.709712 46.49985 
L 298.254707 43.39521 
L 300.51073 38.07297 
L 304.693604 27.42849 
L 306.00143 24.76737 
L 307.566468 22.10625 
L 307.566468 22.10625 
" clip-path="url(#p55b5c9fe5d)" style="fill: none; stroke: #9dcae1; stroke-width: 1.5"/>
    <path d="M 201.310127 22.10625 
L 201.918057 24.76737 
L 202.057275 27.42849 
L 201.789392 30.08961 
L 201.122801 32.857745 
L 200.230406 35.41185 
L 199.026242 38.07297 
L 197.551601 40.809802 
L 195.766001 43.730907 
L 192.024426 49.16097 
L 186.766577 56.037458 
L 177.802865 67.165789 
L 155.44785 94.84353 
L 140.126705 114.066681 
L 136.519793 118.858561 
L 132.858619 124.11585 
L 131.162993 126.800234 
L 129.341681 130.008193 
L 127.556081 133.627058 
L 126.84509 135.20385 
L 125.770481 137.874259 
L 123.952862 143.18721 
L 121.457181 151.17057 
L 119.50766 156.49281 
L 118.352994 159.15393 
L 116.806769 162.28756 
L 114.985457 165.55016 
L 112.315512 169.79841 
L 108.556878 175.12065 
L 104.15747 180.88641 
L 97.058033 189.76208 
L 77.309297 213.783847 
L 71.203339 220.80321 
L 68.345585 223.924782 
L 64.738673 227.648416 
L 61.167473 231.012536 
L 57.560561 234.033101 
L 53.989361 236.606119 
L 50.382449 238.73936 
L 47.947032 239.87457 
L 46.811249 240.347531 
L 45.025649 240.953371 
L 43.204337 241.425934 
L 41.418737 241.742083 
L 39.633137 241.905513 
L 37.847537 241.906646 
L 36.026225 241.727743 
L 34.240625 241.360026 
L 34.240625 241.360026 
" clip-path="url(#p55b5c9fe5d)" style="fill: none; stroke: #9dcae1; stroke-width: 1.5"/>
    <path d="M 313.570181 288.21825 
L 312.963729 285.55713 
L 312.825158 282.89601 
L 313.091976 280.23489 
L 313.716793 277.57377 
L 314.186993 276.246528 
L 314.652064 274.91265 
L 315.856506 272.25153 
L 315.972593 272.035411 
L 317.279461 269.59041 
L 317.793905 268.740928 
L 318.890149 266.92929 
L 319.579505 265.888758 
L 320.95779 263.82465 
L 321.365105 263.250881 
L 322.85521 261.16353 
L 323.150705 260.765449 
L 324.842558 258.50241 
L 324.972017 258.333643 
L 326.757617 256.019748 
L 326.896163 255.84129 
L 328.543217 253.750068 
L 328.995881 253.18017 
L 330.328817 251.511788 
L 331.128432 250.51905 
L 332.150129 249.250633 
L 333.280745 247.85793 
L 333.935729 247.047374 
L 335.442956 245.19681 
L 335.721329 244.852738 
L 337.506929 242.660342 
L 337.608802 242.53569 
L 339.328241 240.420038 
L 339.775073 239.87457 
L 341.113841 238.231876 
L 341.951534 237.21345 
L 342.899441 236.056182 
L 344.144407 234.55233 
L 344.685041 233.896737 
L 346.358957 231.89121 
L 346.506353 231.713924 
L 348.291953 229.586909 
L 348.595209 229.23009 
L 350.077553 227.477781 
L 350.859295 226.56897 
L 351.863153 225.394206 
L 353.158152 223.90785 
L 353.684465 223.296774 
L 355.470065 221.27068 
L 355.891423 220.80321 
L 357.255665 219.268275 
L 358.285993 218.14209 
L 359.041265 217.302924 
L 360.735819 215.48097 
L 360.862577 215.341538 
L 362.648177 213.435935 
L 363.24838 212.81985 
L 364.433777 211.560962 
L 365.81264 210.15873 
L 366.219377 209.725078 
L 368.040689 207.867268 
L 368.421818 207.49761 
L 369.826289 206.043313 
L 371.058234 204.83649 
L 371.611889 204.247875 
L 373.397489 202.460628 
L 373.703935 202.17537 
L 375.218801 200.618061 
L 376.383431 199.51425 
L 377.004401 198.85908 
L 378.790001 197.149731 
L 379.140268 196.85313 
L 380.575601 195.502667 
L 382.19116 194.19201 
L 382.396913 194.009933 
L 384.182513 192.728671 
L 385.968113 191.746953 
L 386.570539 191.53089 
L 387.753713 191.086699 
L 389.575025 190.798565 
L 391.360625 190.934475 
" clip-path="url(#p55b5c9fe5d)" style="fill: none; stroke: #9dcae1; stroke-width: 1.5"/>
    <path d="M 379.870804 22.10625 
L 380.475577 24.76737 
L 380.575601 27.797905 
L 380.346802 30.08961 
L 379.725145 32.75073 
L 378.785121 35.41185 
L 377.004401 39.159437 
L 375.218801 42.291719 
L 373.397489 45.134105 
L 370.588392 49.16097 
L 366.219377 54.901487 
L 357.255665 66.065719 
L 340.827989 86.41665 
L 333.935729 95.334684 
L 330.328817 100.370487 
L 327.067067 105.48801 
L 324.972017 109.355061 
L 323.150705 113.283732 
L 322.030907 116.13249 
L 320.235705 121.45473 
L 317.720808 129.43809 
L 315.972593 134.156094 
L 315.555864 135.20385 
L 314.186993 138.207216 
L 312.401393 141.640257 
L 310.615793 144.692064 
L 308.148186 148.50945 
L 304.347314 153.83169 
L 299.830769 159.744516 
L 290.867057 170.983773 
L 247.798385 224.251765 
L 244.029671 229.23009 
L 240.29005 234.55233 
L 238.586168 237.21345 
L 237.013361 239.88892 
L 235.227761 243.349007 
L 233.442161 247.395723 
L 232.270988 250.51905 
L 230.540417 255.84129 
L 227.969089 263.82465 
L 226.264049 268.169697 
L 225.650883 269.59041 
L 224.347974 272.25153 
L 222.657137 275.281423 
L 220.871537 278.112591 
L 219.085937 280.658944 
L 217.300337 282.980908 
L 213.693425 287.117669 
L 212.631884 288.21825 
L 212.631884 288.21825 
" clip-path="url(#p55b5c9fe5d)" style="fill: none; stroke: #9dcae1; stroke-width: 1.5"/>
    <path d="M 391.360625 276.278958 
L 390.887813 277.57377 
L 389.864945 280.23489 
L 389.575025 280.926318 
L 388.738858 282.89601 
L 387.753713 284.918089 
L 387.433205 285.55713 
L 385.968113 288.059815 
L 385.870788 288.21825 
" clip-path="url(#p55b5c9fe5d)" style="fill: none; stroke: #9dcae1; stroke-width: 1.5"/>
   </g>
   <g id="PathCollection_5">
    <path d="M 34.240625 183.980044 
L 34.441088 183.54753 
L 35.628199 180.88641 
L 36.026225 179.936714 
L 36.732821 178.22529 
L 37.847537 175.267423 
L 37.901883 175.12065 
L 38.806715 172.45953 
L 39.633137 169.830112 
L 39.642984 169.79841 
L 40.435828 167.13729 
L 41.22097 164.47617 
L 41.418737 163.829183 
L 42.033044 161.81505 
L 42.908131 159.15393 
L 43.204337 158.338781 
L 43.879111 156.49281 
L 44.973817 153.83169 
L 45.025649 153.718921 
L 46.210499 151.17057 
L 46.811249 150.012056 
L 47.601271 148.50945 
L 48.596849 146.784466 
L 49.14503 145.84833 
L 50.382449 143.888243 
L 50.831232 143.18721 
L 52.203761 141.163783 
L 52.641834 140.52609 
L 53.989361 138.645414 
L 54.55489 137.86497 
L 55.774961 136.230391 
L 56.548941 135.20385 
L 57.560561 133.889405 
L 58.953846 132.09921 
L 59.381873 131.556481 
L 61.067411 129.43809 
L 61.167473 129.313267 
L 62.953073 127.10263 
L 63.218207 126.77697 
L 64.738673 124.915385 
L 65.396831 124.11585 
L 66.559985 122.702056 
L 67.593381 121.45473 
L 68.345585 120.54308 
L 69.79769 118.79361 
L 70.131185 118.389084 
L 71.916785 116.233774 
L 72.001047 116.13249 
L 73.738097 114.027 
L 74.197936 113.47137 
L 75.523697 111.856499 
L 76.384712 110.81025 
L 77.309297 109.679271 
L 78.562759 108.14913 
L 79.094897 107.496421 
L 80.735359 105.48801 
L 80.916209 105.265874 
L 82.701809 103.077322 
L 82.906265 102.82689 
L 84.487409 100.887043 
L 85.075127 100.16577 
L 86.273009 98.693138 
L 87.23908 97.50465 
L 88.094321 96.450047 
L 89.39569 94.84353 
L 89.879921 94.244275 
L 91.543921 92.18241 
L 91.665521 92.031413 
L 93.451121 89.813998 
L 93.686394 89.52129 
L 95.272433 87.549964 
L 96.181168 86.41665 
L 97.058033 85.32584 
L 98.319104 83.75553 
L 98.843633 83.103788 
L 100.459833 81.09441 
L 100.629233 80.884151 
L 102.450545 78.623803 
L 102.603846 78.43329 
L 104.236145 76.407167 
L 104.746457 75.77217 
L 106.021745 74.183106 
L 106.879545 73.11105 
L 107.807345 71.946606 
L 108.995638 70.44993 
L 109.628657 69.646775 
L 111.08675 67.78881 
L 111.414257 67.367097 
L 113.144315 65.12769 
L 113.199857 65.054721 
L 114.985457 62.696033 
L 115.157853 62.46657 
L 116.806769 60.222578 
L 117.110293 59.80545 
L 118.592369 57.702785 
L 118.981234 57.14433 
L 120.377969 55.046566 
L 120.747587 54.48321 
L 122.163569 52.191466 
L 122.387987 51.82209 
L 123.887778 49.16097 
L 123.984881 48.973692 
L 125.244061 46.49985 
L 125.770481 45.358277 
L 126.658894 43.39521 
L 127.556081 41.222838 
L 127.7557 40.73409 
L 128.78362 38.07297 
L 129.341681 36.598384 
L 129.791758 35.41185 
L 130.835621 32.75073 
L 131.162993 31.980393 
L 131.985467 30.08961 
L 132.948593 28.147064 
L 133.319351 27.42849 
L 134.734193 25.086121 
L 134.938328 24.76737 
L 136.519793 22.670687 
L 136.980719 22.10625 
" clip-path="url(#p55b5c9fe5d)" style="fill: none; stroke: #6aaed6; stroke-width: 1.5"/>
    <path d="M 143.582975 288.21825 
L 142.519349 285.55713 
L 142.080294 282.89601 
L 142.155782 280.23489 
L 142.658006 277.57377 
L 143.697905 274.499353 
L 144.67307 272.25153 
L 146.072752 269.59041 
L 147.668562 266.92929 
L 151.614951 261.16353 
L 156.268529 255.040862 
L 164.145434 245.19681 
L 174.231665 232.915713 
L 186.766577 217.718808 
L 199.337201 202.14801 
L 205.419849 194.19201 
L 209.14954 188.86977 
L 211.907825 184.406288 
L 213.693425 181.105682 
L 213.806911 180.88641 
L 215.479025 177.205153 
L 216.327429 175.12065 
L 218.155001 169.79841 
L 221.461484 159.15393 
L 222.657137 155.944564 
L 224.478449 151.776652 
L 224.762541 151.17057 
L 226.264049 148.308409 
L 228.049649 145.26647 
L 231.161266 140.52609 
L 235.227761 134.939361 
L 241.575126 126.77697 
L 252.326761 113.47137 
L 263.940209 99.342829 
L 276.788088 83.75553 
L 289.081457 68.502147 
L 293.716445 62.46657 
L 297.540436 57.14433 
L 299.830769 53.643332 
L 301.616369 50.647929 
L 303.437681 47.228796 
L 303.804454 46.49985 
L 306.315348 40.73409 
L 310.543924 30.08961 
L 311.879353 27.42849 
L 313.500235 24.76737 
L 315.539928 22.10625 
L 315.539928 22.10625 
" clip-path="url(#p55b5c9fe5d)" style="fill: none; stroke: #6aaed6; stroke-width: 1.5"/>
    <path d="M 192.706 22.10625 
L 193.775845 24.76737 
L 194.210955 27.42849 
L 194.131721 30.08961 
L 193.62208 32.75073 
L 192.752628 35.41185 
L 191.581737 38.07297 
L 190.162759 40.73409 
L 188.541762 43.39521 
L 184.980977 48.524022 
L 182.491231 51.82209 
L 176.017265 59.893457 
L 152.697329 88.56308 
L 134.734193 111.053538 
L 130.900458 116.13249 
L 127.171431 121.45473 
L 125.47412 124.11585 
L 123.917552 126.77697 
L 122.163569 130.175601 
L 120.377969 134.25131 
L 119.034568 137.86497 
L 117.352521 143.18721 
L 114.857021 151.17057 
L 113.199857 155.500828 
L 112.788798 156.49281 
L 111.414257 159.418591 
L 109.628657 162.740245 
L 107.807345 165.762577 
L 105.119795 169.79841 
L 101.212452 175.12065 
L 96.693155 180.88641 
L 89.879921 189.214173 
L 73.738097 208.533889 
L 68.345585 214.620179 
L 64.738673 218.432192 
L 61.167473 221.907668 
L 57.560561 225.038819 
L 53.989361 227.682744 
L 51.460533 229.23009 
L 50.382449 229.826389 
L 48.596849 230.666334 
L 46.811249 231.355527 
L 44.979549 231.89121 
L 43.204337 232.22437 
L 41.418737 232.36407 
L 39.633137 232.290497 
L 37.567596 231.89121 
L 36.026225 231.352846 
L 34.240625 230.396927 
L 34.240625 230.396927 
" clip-path="url(#p55b5c9fe5d)" style="fill: none; stroke: #6aaed6; stroke-width: 1.5"/>
    <path d="M 322.17624 288.21825 
L 321.365105 286.241896 
L 321.10567 285.55713 
L 320.671442 282.89601 
L 320.750339 280.23489 
L 321.258551 277.57377 
L 321.365105 277.251216 
L 322.12886 274.91265 
L 323.150705 272.591471 
L 323.299442 272.25153 
L 324.718216 269.59041 
L 324.972017 269.173561 
L 326.339355 266.92929 
L 326.757617 266.307045 
L 328.433705 263.82465 
L 328.543217 263.672949 
L 330.328817 261.212826 
L 330.364793 261.16353 
L 332.150129 258.817395 
L 332.391414 258.50241 
L 333.935729 256.538939 
L 334.488172 255.84129 
L 335.721329 254.306557 
L 336.632204 253.18017 
L 337.506929 252.10478 
L 338.804372 250.51905 
L 339.328241 249.878814 
L 340.990746 247.85793 
L 341.113841 247.707847 
L 342.899441 245.542654 
L 343.186057 245.19681 
L 344.685041 243.382852 
L 345.389029 242.53569 
L 346.506353 241.188912 
L 347.604243 239.87457 
L 348.291953 239.051413 
L 349.840696 237.21345 
L 350.077553 236.932766 
L 351.863153 234.840294 
L 352.111839 234.55233 
L 353.684465 232.737431 
L 354.428656 231.89121 
L 355.470065 230.710227 
L 356.799563 229.23009 
L 357.255665 228.722874 
L 359.041265 226.782935 
L 359.243616 226.56897 
L 360.862577 224.857987 
L 361.791111 223.90785 
L 362.648177 223.028242 
L 364.433777 221.266579 
L 364.92501 220.80321 
L 366.219377 219.573675 
L 367.808174 218.14209 
L 368.040689 217.929295 
L 369.826289 216.399879 
L 370.977741 215.48097 
L 371.611889 214.960909 
L 373.397489 213.619601 
L 374.574635 212.81985 
L 375.218801 212.362297 
L 377.004401 211.248051 
L 378.790001 210.282614 
L 379.075455 210.15873 
L 380.575601 209.462022 
L 382.396913 208.826905 
L 384.182513 208.43716 
L 385.968113 208.317664 
L 387.753713 208.518794 
L 389.575025 209.120326 
L 391.327237 210.15873 
L 391.360625 210.17974 
" clip-path="url(#p55b5c9fe5d)" style="fill: none; stroke: #6aaed6; stroke-width: 1.5"/>
    <path d="M 371.266929 22.10625 
L 372.333683 24.76737 
L 372.769641 27.42849 
L 372.690561 30.08961 
L 372.182146 32.75073 
L 371.312429 35.41185 
L 369.826289 38.663973 
L 368.040689 41.854632 
L 366.219377 44.706824 
L 363.077254 49.16097 
L 358.956591 54.48321 
L 348.119355 67.78881 
L 333.935729 85.321229 
L 328.543217 92.305718 
L 324.787728 97.50465 
L 321.3552 102.82689 
L 319.579505 106.009544 
L 317.793905 109.699509 
L 317.299877 110.81025 
L 315.300453 116.13249 
L 312.838999 124.11585 
L 311.121607 129.43809 
L 310.13081 132.09921 
L 308.794481 135.246348 
L 307.008881 138.838438 
L 305.223281 141.993663 
L 302.787014 145.84833 
L 299.031545 151.17057 
L 294.438257 157.212349 
L 286.530176 167.13729 
L 272.903921 183.848482 
L 251.25614 210.15873 
L 242.405873 221.248535 
L 237.013361 228.428888 
L 234.602892 231.89121 
L 231.656561 236.608943 
L 231.302445 237.21345 
L 229.835249 239.95275 
L 228.049649 243.824007 
L 226.477922 247.85793 
L 224.753613 253.18017 
L 222.281914 261.16353 
L 220.871537 264.97062 
L 220.071426 266.92929 
L 218.824358 269.59041 
L 217.300337 272.424737 
L 215.479025 275.380257 
L 213.693425 277.952992 
L 211.907825 280.275766 
L 209.660349 282.89601 
L 206.515313 286.095599 
L 204.12034 288.21825 
L 204.12034 288.21825 
" clip-path="url(#p55b5c9fe5d)" style="fill: none; stroke: #6aaed6; stroke-width: 1.5"/>
    <path d="M 391.360625 259.338603 
L 390.513322 261.16353 
L 389.575025 263.275502 
L 389.333671 263.82465 
L 388.049908 266.92929 
L 387.753713 267.69074 
L 387.021293 269.59041 
L 386.035781 272.25153 
L 385.968113 272.435283 
L 385.05365 274.91265 
L 384.182513 277.171097 
L 384.024989 277.57377 
L 382.884955 280.23489 
L 382.396913 281.235253 
L 381.554856 282.89601 
L 380.575601 284.543335 
L 379.937555 285.55713 
L 378.790001 287.104662 
L 377.897801 288.21825 
" clip-path="url(#p55b5c9fe5d)" style="fill: none; stroke: #6aaed6; stroke-width: 1.5"/>
   </g>
   <g id="PathCollection_6">
    <path d="M 34.240625 204.109401 
L 34.539941 202.17537 
L 35.177329 199.51425 
L 36.026225 196.773643 
L 38.1045 191.53089 
L 41.589708 183.54753 
L 43.633807 178.22529 
L 45.458498 172.45953 
L 48.596849 161.559827 
L 50.437388 156.49281 
L 52.203761 152.629064 
L 53.989361 149.282412 
L 55.774961 146.323865 
L 57.858839 143.18721 
L 61.764105 137.86497 
L 66.559985 131.830346 
L 73.738097 123.304793 
L 86.569235 108.14913 
L 97.058033 95.369332 
L 117.029349 70.44993 
L 122.163569 63.67948 
L 124.907813 59.80545 
L 127.556081 55.70866 
L 129.79202 51.82209 
L 132.352814 46.49985 
L 134.734193 40.481965 
L 136.677818 35.41185 
L 138.341105 31.738768 
L 139.204801 30.08961 
L 140.905056 27.42849 
L 143.121581 24.76737 
L 143.697905 24.208766 
L 146.176238 22.10625 
L 146.176238 22.10625 
" clip-path="url(#p55b5c9fe5d)" style="fill: none; stroke: #4191c6; stroke-width: 1.5"/>
    <path d="M 153.374169 288.21825 
L 152.697329 287.428651 
L 151.313623 285.55713 
L 150.285399 282.89601 
L 149.989062 280.23489 
L 150.251125 277.57377 
L 150.952777 274.91265 
L 152.016492 272.25153 
L 153.357801 269.59041 
L 154.921633 266.92929 
L 158.054129 262.297588 
L 160.85265 258.50241 
L 167.169685 250.51905 
L 176.017265 239.85094 
L 196.640747 215.48097 
L 204.729713 205.500104 
L 210.122225 198.515797 
L 213.693425 193.560274 
L 216.760307 188.86977 
L 219.085937 184.737049 
L 219.701907 183.54753 
L 220.930121 180.88641 
L 222.657137 176.445098 
L 223.961256 172.45953 
L 227.065443 161.81505 
L 228.049649 158.927595 
L 229.835249 154.546433 
L 230.151735 153.83169 
L 231.656561 150.830621 
L 233.442161 147.698416 
L 236.339027 143.18721 
L 240.156233 137.86497 
L 244.578156 132.09921 
L 253.190897 121.37737 
L 264.150225 108.14913 
L 287.260145 80.788723 
L 295.580786 70.44993 
L 299.830769 64.879284 
L 303.457847 59.80545 
L 306.854767 54.48321 
L 308.794481 50.95726 
L 310.615793 47.15394 
L 310.91059 46.49985 
L 313.206269 40.73409 
L 315.242762 35.41185 
L 316.396936 32.75073 
L 317.793905 30.025708 
L 319.579505 27.267258 
L 321.677762 24.76737 
L 323.150705 23.40379 
L 324.727755 22.10625 
L 324.727755 22.10625 
" clip-path="url(#p55b5c9fe5d)" style="fill: none; stroke: #4191c6; stroke-width: 1.5"/>
    <path d="M 182.800695 22.10625 
L 183.195377 22.547972 
L 184.980977 24.965718 
L 185.92165 27.42849 
L 186.214369 30.08961 
L 185.93465 32.75073 
L 184.980977 35.958297 
L 184.106849 38.07297 
L 182.716993 40.73409 
L 181.089532 43.39521 
L 177.802865 48.038804 
L 174.864454 51.82209 
L 168.839153 59.101194 
L 156.268529 74.195357 
L 143.697905 89.711248 
L 128.977807 108.14913 
L 123.984881 114.828833 
L 121.249003 118.79361 
L 118.592369 123.105693 
L 116.806769 126.420056 
L 116.623408 126.77697 
L 114.985457 130.412292 
L 114.299851 132.09921 
L 112.35797 137.86497 
L 109.252687 148.50945 
L 107.807345 152.583192 
L 107.321595 153.83169 
L 106.021745 156.764525 
L 104.236145 160.214575 
L 102.450545 163.251741 
L 99.900427 167.13729 
L 95.996853 172.45953 
L 91.419724 178.22529 
L 84.487409 186.470808 
L 70.131185 203.055234 
L 66.075016 207.49761 
L 62.953073 210.7018 
L 59.381873 214.031409 
L 57.560561 215.582836 
L 53.989361 218.196465 
L 52.203761 219.254564 
L 50.382449 220.178828 
L 48.596849 220.900107 
L 46.811249 221.37519 
L 45.025649 221.615513 
L 43.204337 221.576863 
L 41.418737 221.209332 
L 39.633137 220.399651 
L 37.847537 218.968702 
L 37.119337 218.14209 
L 36.026225 216.480879 
L 35.517021 215.48097 
L 34.601363 212.81985 
L 34.240625 210.916792 
L 34.240625 210.916792 
" clip-path="url(#p55b5c9fe5d)" style="fill: none; stroke: #4191c6; stroke-width: 1.5"/>
    <path d="M 332.071872 288.21825 
L 330.328817 286.043378 
L 329.99103 285.55713 
L 328.956867 282.89601 
L 328.661602 280.23489 
L 328.944512 277.57377 
L 329.677506 274.91265 
L 330.328817 273.33141 
L 330.773179 272.25153 
L 332.150129 269.607911 
L 332.159269 269.59041 
L 333.789867 266.92929 
L 333.935729 266.716485 
L 335.721329 264.12472 
L 335.928942 263.82465 
L 337.506929 261.714188 
L 337.922015 261.16353 
L 339.328241 259.37771 
L 340.022969 258.50241 
L 341.113841 257.163808 
L 342.198795 255.84129 
L 342.899441 254.998577 
L 344.419472 253.18017 
L 344.685041 252.863934 
L 346.506353 250.711018 
L 346.670244 250.51905 
L 348.291953 248.618829 
L 348.943589 247.85793 
L 350.077553 246.532512 
L 351.224703 245.19681 
L 351.863153 244.454191 
L 353.522021 242.53569 
L 353.684465 242.348512 
L 355.470065 240.323301 
L 355.870443 239.87457 
L 357.255665 238.337498 
L 358.281536 237.21345 
L 359.041265 236.391215 
L 360.77201 234.55233 
L 360.862577 234.45729 
L 362.648177 232.655179 
L 363.428641 231.89121 
L 364.433777 230.922591 
L 366.219377 229.266866 
L 366.261904 229.23009 
L 368.040689 227.716547 
L 369.472318 226.56897 
L 369.826289 226.288828 
L 371.611889 225.015416 
L 373.326681 223.90785 
L 373.397489 223.862668 
L 375.218801 222.89291 
L 377.004401 222.117235 
L 378.790001 221.546663 
L 380.575601 221.222963 
L 382.396913 221.203608 
L 384.182513 221.560946 
L 385.968113 222.382044 
L 387.753713 223.783144 
L 387.867494 223.90785 
L 389.575025 226.327282 
L 389.704571 226.56897 
L 390.752364 229.23009 
L 391.360625 231.795088 
" clip-path="url(#p55b5c9fe5d)" style="fill: none; stroke: #4191c6; stroke-width: 1.5"/>
    <path d="M 361.359149 22.10625 
L 363.445409 24.76737 
L 364.490611 27.42849 
L 364.776736 30.08961 
L 364.433777 32.992869 
L 363.763477 35.41185 
L 362.648177 38.120778 
L 360.862577 41.414228 
L 359.041265 44.279007 
L 357.255665 46.847233 
L 353.427335 51.82209 
L 346.506353 60.167726 
L 333.551389 75.77217 
L 326.757617 84.237181 
L 321.365105 91.32357 
L 318.861194 94.84353 
L 315.972593 99.299298 
L 313.949709 102.82689 
L 312.401393 105.951013 
L 310.615793 110.219387 
L 309.467734 113.47137 
L 307.873989 118.79361 
L 305.531 126.77697 
L 304.608138 129.43809 
L 303.437681 132.391547 
L 301.616369 136.272905 
L 299.830769 139.541494 
L 298.045169 142.463211 
L 295.787022 145.84833 
L 291.914881 151.17057 
L 285.474545 159.441002 
L 276.510833 170.471114 
L 267.547121 181.229251 
L 246.012785 206.700314 
L 238.834673 215.579018 
L 233.442161 222.539625 
L 229.835249 227.539243 
L 226.968408 231.89121 
L 224.478449 236.260909 
L 223.976824 237.21345 
L 222.657137 240.027234 
L 220.871537 244.544435 
L 219.764382 247.85793 
L 215.479025 261.956523 
L 214.770388 263.82465 
L 213.411953 266.92929 
L 211.907825 269.839754 
L 210.122225 272.800295 
L 208.300913 275.438268 
L 206.515313 277.743114 
L 204.330692 280.23489 
L 201.122801 283.365651 
L 198.475481 285.55713 
L 195.766001 287.44862 
L 194.542232 288.21825 
L 194.542232 288.21825 
" clip-path="url(#p55b5c9fe5d)" style="fill: none; stroke: #4191c6; stroke-width: 1.5"/>
    <path d="M 391.360625 239.445652 
L 391.313436 239.87457 
L 390.77411 242.53569 
L 390.036326 245.19681 
L 389.575025 246.53914 
L 389.114229 247.85793 
L 388.055004 250.51905 
L 387.753713 251.214018 
L 386.896284 253.18017 
L 385.968113 255.259041 
L 385.707934 255.84129 
L 384.522971 258.50241 
L 384.182513 259.292617 
L 383.380076 261.16353 
L 382.396913 263.609516 
L 382.310658 263.82465 
L 381.127936 266.92929 
L 380.575601 268.456094 
L 380.162451 269.59041 
L 379.196391 272.25153 
L 378.790001 273.324279 
L 378.173607 274.91265 
L 377.036517 277.57377 
L 377.004401 277.639425 
L 375.671386 280.23489 
L 375.218801 280.979972 
L 373.973332 282.89601 
L 373.397489 283.63637 
L 371.765465 285.55713 
L 371.611889 285.709284 
L 369.826289 287.318695 
L 368.704153 288.21825 
" clip-path="url(#p55b5c9fe5d)" style="fill: none; stroke: #4191c6; stroke-width: 1.5"/>
   </g>
   <g id="PathCollection_7">
    <path d="M 45.993777 202.17537 
L 45.849436 199.51425 
L 46.192049 196.85313 
L 46.798153 194.19201 
L 46.811249 194.149783 
L 47.632887 191.53089 
L 48.483229 188.86977 
L 48.596849 188.531792 
L 49.378578 186.20865 
L 50.194036 183.54753 
L 50.382449 182.901081 
L 50.971338 180.88641 
L 51.664697 178.22529 
L 52.203761 175.933095 
L 52.394608 175.12065 
L 53.002455 172.45953 
L 53.590964 169.79841 
L 53.989361 168.074544 
L 54.211373 167.13729 
L 54.908578 164.47617 
L 55.684347 161.81505 
L 55.774961 161.548644 
L 56.614182 159.15393 
L 57.560561 156.779534 
L 57.67852 156.49281 
L 58.934102 153.83169 
L 59.381873 152.985153 
L 60.367532 151.17057 
L 61.167473 149.831809 
L 61.975981 148.50945 
L 62.953073 147.030082 
L 63.749087 145.84833 
L 64.738673 144.464934 
L 65.668677 143.18721 
L 66.559985 142.016123 
L 67.711487 140.52609 
L 68.345585 139.732771 
L 69.858725 137.86497 
L 70.131185 137.536775 
L 71.916785 135.423292 
L 72.106475 135.20385 
L 73.738097 133.354909 
L 74.850192 132.09921 
L 75.523697 131.349092 
L 77.26091 129.43809 
L 77.309297 129.384943 
L 79.094897 127.483294 
L 79.767555 126.77697 
L 80.916209 125.55966 
L 82.290406 124.11585 
L 82.701809 123.677579 
L 84.487409 121.80756 
L 84.831688 121.45473 
L 86.273009 119.945246 
L 87.371336 118.79361 
L 88.094321 118.017449 
L 89.839808 116.13249 
L 89.879921 116.088367 
L 91.665521 114.172838 
L 92.311621 113.47137 
L 93.451121 112.215698 
L 94.705692 110.81025 
L 95.272433 110.169492 
L 97.025778 108.14913 
L 97.058033 108.111971 
L 98.843633 106.082525 
L 99.353573 105.48801 
L 100.629233 104.010501 
L 101.623557 102.82689 
L 102.450545 101.850018 
L 103.837476 100.16577 
L 104.236145 99.688098 
L 106.007046 97.50465 
L 106.021745 97.486817 
L 107.807345 95.327511 
L 108.195321 94.84353 
L 109.628657 93.093302 
L 110.352025 92.18241 
L 111.414257 90.881957 
L 112.492109 89.52129 
L 113.199857 88.667014 
L 114.959741 86.41665 
L 114.985457 86.385169 
L 116.806769 84.154411 
L 117.122846 83.75553 
L 118.592369 81.959521 
L 119.277111 81.09441 
L 120.377969 79.740051 
L 121.4061 78.43329 
L 122.163569 77.489992 
L 123.501584 75.77217 
L 123.984881 75.158623 
L 125.550267 73.11105 
L 125.770481 72.825306 
L 127.546 70.44993 
L 127.556081 70.436452 
L 129.341681 68.010304 
L 129.499362 67.78881 
L 131.162993 65.419365 
L 131.361098 65.12769 
L 132.948593 62.726057 
L 133.114496 62.46657 
L 134.733035 59.80545 
L 134.734193 59.803444 
L 136.231262 57.14433 
L 136.519793 56.580835 
L 137.572584 54.48321 
L 138.341105 52.745611 
L 138.744057 51.82209 
L 139.79039 49.16097 
L 140.126705 48.224788 
L 140.747879 46.49985 
L 141.777221 43.39521 
L 141.912305 42.994191 
L 142.693647 40.73409 
L 143.657069 38.07297 
L 143.697905 37.975268 
L 144.828288 35.41185 
L 145.519217 34.093491 
L 146.276561 32.75073 
L 147.304817 31.274883 
L 148.212393 30.08961 
L 149.090417 29.169016 
L 150.876017 27.506742 
L 150.972469 27.42849 
L 152.697329 26.299268 
L 154.482929 25.310228 
L 155.669518 24.76737 
L 156.268529 24.541073 
L 158.054129 24.011664 
L 159.875441 23.61747 
L 161.661041 23.372276 
L 163.446641 23.268007 
L 165.232241 23.30862 
L 167.053553 23.506739 
L 168.839153 23.865559 
L 170.624753 24.402354 
L 171.529007 24.76737 
L 172.410353 25.270957 
L 174.231665 26.641609 
L 175.056224 27.42849 
L 176.017265 29.121371 
L 176.464653 30.08961 
L 176.780545 32.75073 
L 176.38677 35.41185 
L 176.017265 36.470356 
L 175.450479 38.07297 
L 174.231665 40.510599 
L 174.11798 40.73409 
L 172.450355 43.39521 
L 172.410353 43.450623 
L 170.624753 45.874239 
L 170.16092 46.49985 
L 168.839153 48.128597 
L 167.988499 49.16097 
L 167.053553 50.247225 
L 165.680714 51.82209 
L 165.232241 52.326859 
L 163.446641 54.307246 
L 163.283429 54.48321 
L 161.661041 56.230512 
L 160.811023 57.14433 
L 159.875441 58.158771 
L 158.360563 59.80545 
L 158.054129 60.143181 
L 156.268529 62.087912 
L 155.918178 62.46657 
L 154.482929 64.038537 
L 153.504087 65.12769 
L 152.697329 66.032234 
L 151.157811 67.78881 
L 150.876017 68.111522 
L 149.090417 70.161477 
L 148.840311 70.44993 
L 147.304817 72.212346 
L 146.543786 73.11105 
L 145.519217 74.309778 
L 144.303197 75.77217 
L 143.697905 76.493237 
L 142.113486 78.43329 
L 141.912305 78.675986 
L 140.126705 80.858083 
L 139.936466 81.09441 
L 138.341105 83.031692 
L 137.763529 83.75553 
L 136.519793 85.278356 
L 135.617504 86.41665 
L 134.734193 87.482721 
L 133.141728 89.52129 
L 132.948593 89.757808 
L 131.162993 91.976081 
L 130.999319 92.18241 
L 129.341681 94.208815 
L 128.838759 94.84353 
L 127.556081 96.415347 
L 126.695905 97.50465 
L 125.770481 98.64936 
L 124.583493 100.16577 
L 123.984881 100.91742 
L 122.509377 102.82689 
L 122.163569 103.270796 
L 120.48667 105.48801 
L 120.377969 105.631111 
L 118.592369 108.037005 
L 118.511277 108.14913 
L 116.806769 110.515813 
L 116.601772 110.81025 
L 114.985457 113.185425 
L 114.797162 113.47137 
L 113.199857 115.996782 
L 113.116804 116.13249 
L 111.569627 118.79361 
L 111.414257 119.083205 
L 110.173218 121.45473 
L 109.628657 122.632854 
L 108.956447 124.11585 
L 107.923467 126.77697 
L 107.807345 127.110514 
L 107.003189 129.43809 
L 106.234166 132.09921 
L 106.021745 132.911611 
L 105.426688 135.20385 
L 104.80161 137.86497 
L 104.236145 140.382706 
L 104.203304 140.52609 
L 103.554847 143.18721 
L 102.864267 145.84833 
L 102.450545 147.260084 
L 102.073218 148.50945 
L 101.151293 151.17057 
L 100.629233 152.482251 
L 100.075342 153.83169 
L 98.843633 156.480299 
L 98.837641 156.49281 
L 97.399038 159.15393 
L 97.058033 159.727294 
L 95.787842 161.81505 
L 95.272433 162.599191 
L 94.013746 164.47617 
L 93.451121 165.266743 
L 92.096954 167.13729 
L 91.665521 167.706688 
L 90.057645 169.79841 
L 89.879921 170.021937 
L 88.094321 172.228363 
L 87.903457 172.45953 
L 86.273009 174.388314 
L 85.644578 175.12065 
L 84.487409 176.440014 
L 82.916719 178.22529 
L 82.701809 178.466107 
L 80.916209 180.418042 
L 80.478197 180.88641 
L 79.094897 182.366143 
L 77.975851 183.54753 
L 77.309297 184.255194 
L 75.523697 186.127817 
L 75.443666 186.20865 
L 73.738097 187.95499 
L 72.837093 188.86977 
L 71.916785 189.82021 
L 70.250731 191.53089 
L 70.131185 191.655277 
L 68.345585 193.442543 
L 67.588795 194.19201 
L 66.559985 195.218157 
L 64.908956 196.85313 
L 64.738673 197.021402 
L 62.953073 198.684508 
L 62.039979 199.51425 
L 61.167473 200.290274 
L 59.381873 201.801716 
L 58.893986 202.17537 
L 57.560561 203.15566 
L 55.774961 204.341306 
L 54.868376 204.83649 
L 53.989361 205.285848 
L 52.203761 205.907897 
L 50.382449 206.165178 
L 48.596849 205.835467 
L 47.151337 204.83649 
L 46.811249 204.361047 
L 45.993777 202.17537 
z
" clip-path="url(#p55b5c9fe5d)" style="fill: none; stroke: #2070b4; stroke-width: 1.5"/>
    <path d="M 159.309041 280.23489 
L 158.994504 277.57377 
L 159.340923 274.91265 
L 159.875441 273.209747 
L 160.174498 272.25153 
L 161.380341 269.59041 
L 161.661041 269.091941 
L 162.873719 266.92929 
L 163.446641 266.050103 
L 164.878717 263.82465 
L 165.232241 263.328842 
L 166.772666 261.16353 
L 167.053553 260.792011 
L 168.781736 258.50241 
L 168.839153 258.429534 
L 170.624753 256.176087 
L 170.890211 255.84129 
L 172.410353 253.983983 
L 173.069158 253.18017 
L 174.231665 251.791475 
L 175.300604 250.51905 
L 176.017265 249.679216 
L 177.579567 247.85793 
L 177.802865 247.60049 
L 179.588465 245.574646 
L 179.926984 245.19681 
L 181.409777 243.552574 
L 182.337093 242.53569 
L 183.195377 241.597094 
L 184.786601 239.87457 
L 184.980977 239.663614 
L 186.766577 237.775019 
L 187.307055 237.21345 
L 188.587889 235.866236 
L 189.846213 234.55233 
L 190.373489 233.992896 
L 192.159089 232.119705 
L 192.382719 231.89121 
L 193.944689 230.258105 
L 194.925534 229.23009 
L 195.766001 228.327689 
L 197.392515 226.56897 
L 197.551601 226.39379 
L 199.337201 224.460726 
L 199.845121 223.90785 
L 201.122801 222.510068 
L 202.615669 220.80321 
L 202.944113 220.428333 
L 204.729713 218.37892 
L 204.935855 218.14209 
L 206.515313 216.329172 
L 207.233417 215.48097 
L 208.300913 214.226237 
L 209.464302 212.81985 
L 210.122225 212.027125 
L 211.629205 210.15873 
L 211.907825 209.815185 
L 213.693425 207.555014 
L 213.738299 207.49761 
L 215.479025 205.282244 
L 215.817474 204.83649 
L 217.300337 202.877935 
L 217.814793 202.17537 
L 219.085937 200.426714 
L 219.727065 199.51425 
L 220.871537 197.852122 
L 221.537065 196.85313 
L 222.657137 195.104001 
L 223.22367 194.19201 
L 224.478449 192.025581 
L 224.756937 191.53089 
L 226.13238 188.86977 
L 226.264049 188.590367 
L 227.363505 186.20865 
L 228.049649 184.467285 
L 228.406749 183.54753 
L 229.313505 180.88641 
L 229.835249 179.093479 
L 230.087899 178.22529 
L 230.894453 175.12065 
L 231.506776 172.45953 
L 231.656561 171.805231 
L 232.124649 169.79841 
L 232.758487 167.13729 
L 233.435331 164.47617 
L 233.442161 164.452821 
L 234.235065 161.81505 
L 235.135376 159.15393 
L 235.227761 158.919189 
L 236.209131 156.49281 
L 237.013361 154.733147 
L 237.436329 153.83169 
L 238.829248 151.17057 
L 238.834673 151.161222 
L 240.401138 148.50945 
L 240.620273 148.165577 
L 242.115406 145.84833 
L 242.405873 145.423972 
L 243.948619 143.18721 
L 244.191473 142.850629 
L 245.875514 140.52609 
L 246.012785 140.342881 
L 247.798385 137.966706 
L 247.875045 137.86497 
L 249.583985 135.659431 
L 249.93602 135.20385 
L 251.369585 133.401683 
L 252.392897 132.09921 
L 253.190897 131.107939 
L 254.530754 129.43809 
L 254.976497 128.891741 
L 256.695793 126.77697 
L 256.762097 126.696535 
L 258.547697 124.543549 
L 258.902149 124.11585 
L 260.369009 122.366636 
L 261.133062 121.45473 
L 262.154609 120.248149 
L 263.386983 118.79361 
L 263.940209 118.14625 
L 265.666592 116.13249 
L 265.725809 116.06391 
L 267.547121 113.992055 
L 268.009267 113.47137 
L 269.332721 111.989805 
L 270.396051 110.81025 
L 271.118321 110.011807 
L 272.819888 108.14913 
L 272.903921 108.057092 
L 274.725233 106.117252 
L 275.324586 105.48801 
L 276.510833 104.232991 
L 277.850413 102.82689 
L 278.296433 102.352579 
L 280.082033 100.484275 
L 280.39413 100.16577 
L 281.903345 98.590292 
L 282.943651 97.50465 
L 283.688945 96.709529 
L 285.428345 94.84353 
L 285.474545 94.79298 
L 287.260145 92.889053 
L 287.917248 92.18241 
L 289.081457 90.90553 
L 290.324618 89.52129 
L 290.867057 88.916893 
L 292.652657 86.894719 
L 293.06875 86.41665 
L 294.438257 84.857163 
L 295.382084 83.75553 
L 296.259569 82.73169 
L 297.626613 81.09441 
L 298.045169 80.595864 
L 299.810106 78.43329 
L 299.830769 78.408114 
L 301.616369 76.233989 
L 301.983858 75.77217 
L 303.437681 73.950214 
L 304.085573 73.11105 
L 305.223281 71.641848 
L 306.115713 70.44993 
L 307.008881 69.253919 
L 308.067776 67.78881 
L 308.794481 66.771216 
L 309.932998 65.12769 
L 310.615793 64.112212 
L 311.690111 62.46657 
L 312.401393 61.324737 
L 313.320527 59.80545 
L 314.186993 58.26509 
L 314.801021 57.14433 
L 315.972593 54.774989 
L 316.11397 54.48321 
L 317.306264 51.82209 
L 317.793905 50.590459 
L 318.356652 49.16097 
L 319.299108 46.49985 
L 319.579505 45.673093 
L 320.352226 43.39521 
L 321.238565 40.73409 
L 321.365105 40.384857 
L 322.235902 38.07297 
L 323.150705 35.916265 
L 323.377448 35.41185 
L 324.821296 32.75073 
L 324.972017 32.524584 
L 326.747353 30.08961 
L 326.757617 30.078243 
L 328.543217 28.312375 
L 329.556794 27.42849 
L 330.328817 26.883393 
L 332.150129 25.783034 
L 333.935729 24.879941 
L 334.211064 24.76737 
L 335.721329 24.25847 
L 337.506929 23.800204 
L 339.328241 23.477389 
L 341.113841 23.302349 
L 342.899441 23.269835 
L 344.685041 23.385358 
L 346.506353 23.664939 
L 348.291953 24.110598 
L 350.077553 24.743444 
L 350.130279 24.76737 
L 351.863153 25.893407 
L 353.641611 27.42849 
L 353.684465 27.494911 
L 355.024296 30.08961 
L 355.355046 32.75073 
L 354.94308 35.41185 
L 354.015668 38.07297 
L 353.684465 38.732271 
L 352.663833 40.73409 
L 351.863153 42.02042 
L 350.992947 43.39521 
L 350.077553 44.649838 
L 348.722189 46.49985 
L 348.291953 47.03716 
L 346.567497 49.16097 
L 346.506353 49.233037 
L 344.685041 51.320956 
L 344.24077 51.82209 
L 342.899441 53.306362 
L 341.82793 54.48321 
L 341.113841 55.265266 
L 339.394468 57.14433 
L 339.328241 57.217197 
L 337.506929 59.167967 
L 336.911618 59.80545 
L 335.721329 61.097909 
L 334.473236 62.46657 
L 333.935729 63.063118 
L 332.150129 65.065465 
L 332.093457 65.12769 
L 330.328817 67.088005 
L 329.710612 67.78881 
L 328.543217 69.115426 
L 327.396903 70.44993 
L 326.757617 71.192236 
L 325.147106 73.11105 
L 324.972017 73.318567 
L 323.150705 75.49436 
L 322.921963 75.77217 
L 321.365105 77.649052 
L 320.736119 78.43329 
L 319.579505 79.866248 
L 318.620597 81.09441 
L 317.793905 82.149244 
L 316.573542 83.75553 
L 315.972593 84.549667 
L 314.60215 86.41665 
L 314.186993 86.980781 
L 312.422742 89.52129 
L 312.401393 89.552402 
L 310.649355 92.18241 
L 310.615793 92.235007 
L 308.996501 94.84353 
L 308.794481 95.193424 
L 307.49413 97.50465 
L 307.008881 98.459596 
L 306.162387 100.16577 
L 305.223281 102.343904 
L 305.018934 102.82689 
L 304.009426 105.48801 
L 303.437681 107.269881 
L 303.156862 108.14913 
L 302.401158 110.81025 
L 301.749526 113.47137 
L 301.616369 114.04053 
L 301.119937 116.13249 
L 300.507525 118.79361 
L 299.881626 121.45473 
L 299.830769 121.648079 
L 299.164685 124.11585 
L 298.365773 126.77697 
L 298.045169 127.701717 
L 297.425806 129.43809 
L 296.345745 132.09921 
L 296.259569 132.281813 
L 294.853022 135.20385 
L 294.438257 135.970372 
L 293.391439 137.86497 
L 292.652657 139.090136 
L 291.773216 140.52609 
L 290.867057 141.906138 
L 290.017114 143.18721 
L 289.081457 144.523618 
L 288.148225 145.84833 
L 287.260145 147.059296 
L 286.194101 148.50945 
L 285.474545 149.457611 
L 284.175531 151.17057 
L 283.688945 151.796013 
L 282.108862 153.83169 
L 281.903345 154.09086 
L 280.082033 156.388799 
L 279.999447 156.49281 
L 278.296433 158.595533 
L 277.846117 159.15393 
L 276.510833 160.781704 
L 275.666368 161.81505 
L 274.725233 162.95042 
L 273.463318 164.47617 
L 272.903921 165.145366 
L 271.240015 167.13729 
L 271.118321 167.281627 
L 269.332721 169.378831 
L 268.973722 169.79841 
L 267.547121 171.450451 
L 266.671376 172.45953 
L 265.725809 173.541817 
L 264.336145 175.12065 
L 263.940209 175.566071 
L 262.154609 177.545232 
L 261.535077 178.22529 
L 260.369009 179.496396 
L 259.079467 180.88641 
L 258.547697 181.46177 
L 256.762097 183.363936 
L 256.584579 183.54753 
L 254.976497 185.228575 
L 254.032414 186.20865 
L 253.190897 187.096235 
L 251.502985 188.86977 
L 251.369585 189.012844 
L 249.583985 190.875965 
L 248.953984 191.53089 
L 247.798385 192.760422 
L 246.463429 194.19201 
L 246.012785 194.684778 
L 244.191473 196.678838 
L 244.029785 196.85313 
L 242.405873 198.631864 
L 241.615704 199.51425 
L 240.620273 200.634552 
L 239.280796 202.17537 
L 238.834673 202.689059 
L 237.013361 204.833065 
L 237.010426 204.83649 
L 235.227761 206.908184 
L 234.73625 207.49761 
L 233.442161 209.039531 
L 232.532282 210.15873 
L 231.656561 211.229049 
L 230.393788 212.81985 
L 229.835249 213.522263 
L 228.323674 215.48097 
L 228.049649 215.835551 
L 226.321058 218.14209 
L 226.264049 218.218496 
L 224.478449 220.663497 
L 224.379324 220.80321 
L 222.657137 223.246496 
L 222.219951 223.90785 
L 220.871537 225.995301 
L 220.512861 226.56897 
L 219.085937 228.998509 
L 218.954026 229.23009 
L 217.538664 231.89121 
L 217.300337 232.387674 
L 216.282137 234.55233 
L 215.479025 236.553083 
L 215.217809 237.21345 
L 214.283132 239.87457 
L 213.693425 241.86017 
L 213.493193 242.53569 
L 212.778786 245.19681 
L 212.148822 247.85793 
L 211.907825 248.906824 
L 211.531087 250.51905 
L 210.900695 253.18017 
L 210.235748 255.84129 
L 210.122225 256.239554 
L 209.458065 258.50241 
L 208.570497 261.16353 
L 208.300913 261.8541 
L 207.506188 263.82465 
L 206.515313 265.922004 
L 206.025841 266.92929 
L 204.729713 269.219972 
L 204.512964 269.59041 
L 202.944113 271.949011 
L 202.735762 272.25153 
L 201.122801 274.331276 
L 200.655026 274.91265 
L 199.337201 276.376058 
L 198.213996 277.57377 
L 197.551601 278.207544 
L 195.766001 279.828225 
L 195.290584 280.23489 
L 193.944689 281.263544 
L 192.159089 282.537046 
L 191.613443 282.89601 
L 190.373489 283.621788 
L 188.587889 284.569379 
L 186.766577 285.438394 
L 186.482408 285.55713 
L 184.980977 286.112204 
L 183.195377 286.675715 
L 181.409777 287.143101 
L 179.588465 287.519597 
L 177.802865 287.788113 
L 176.017265 287.953409 
L 174.231665 288.010363 
L 172.410353 287.949646 
L 170.624753 287.764372 
L 168.839153 287.442797 
L 167.053553 286.970069 
L 165.232241 286.312856 
L 163.6178 285.55713 
L 163.446641 285.444136 
L 161.661041 283.979606 
L 160.607274 282.89601 
L 159.875441 281.518595 
L 159.309041 280.23489 
z
" clip-path="url(#p55b5c9fe5d)" style="fill: none; stroke: #2070b4; stroke-width: 1.5"/>
    <path d="M 338.423499 280.23489 
L 338.099896 277.57377 
L 338.502027 274.91265 
L 339.328241 272.51176 
L 339.419171 272.25153 
L 340.771236 269.59041 
L 341.113841 269.039549 
L 342.446329 266.92929 
L 342.899441 266.305742 
L 344.685041 263.861276 
L 344.71246 263.82465 
L 346.506353 261.635725 
L 346.900342 261.16353 
L 348.291953 259.568698 
L 349.235364 258.50241 
L 350.077553 257.571288 
L 351.658371 255.84129 
L 351.863153 255.618793 
L 353.684465 253.696145 
L 354.182643 253.18017 
L 355.470065 251.843415 
L 356.752231 250.51905 
L 357.255665 249.997652 
L 359.041265 248.188081 
L 359.379634 247.85793 
L 360.862577 246.413915 
L 362.126103 245.19681 
L 362.648177 244.701288 
L 364.433777 243.089903 
L 365.084403 242.53569 
L 366.219377 241.600106 
L 368.040689 240.18934 
L 368.510183 239.87457 
L 369.826289 239.038501 
L 371.611889 238.092066 
L 373.397489 237.385042 
L 374.443891 237.21345 
L 375.218801 237.097393 
L 376.066017 237.21345 
L 377.004401 237.417741 
L 378.790001 239.00667 
L 379.263494 239.87457 
L 379.767933 242.53569 
L 379.621925 245.19681 
L 379.117615 247.85793 
L 378.790001 249.030647 
L 378.366963 250.51905 
L 377.498227 253.18017 
L 377.004401 254.627954 
L 376.588569 255.84129 
L 375.6824 258.50241 
L 375.218801 259.92071 
L 374.809618 261.16353 
L 373.965993 263.82465 
L 373.397489 265.663864 
L 373.003269 266.92929 
L 372.13725 269.59041 
L 371.611889 271.078251 
L 371.179561 272.25153 
L 370.047068 274.91265 
L 369.826289 275.342957 
L 368.597919 277.57377 
L 368.040689 278.394577 
L 366.6696 280.23489 
L 366.219377 280.720898 
L 364.433777 282.434498 
L 363.885667 282.89601 
L 362.648177 283.737829 
L 360.862577 284.77282 
L 359.235208 285.55713 
L 359.041265 285.634378 
L 357.255665 286.198428 
L 355.470065 286.620108 
L 353.684465 286.901724 
L 351.863153 287.044314 
L 350.077553 287.039031 
L 348.291953 286.883731 
L 346.506353 286.568576 
L 344.685041 286.068091 
L 343.340712 285.55713 
L 342.899441 285.320997 
L 341.113841 284.070354 
L 339.819815 282.89601 
L 339.328241 282.085001 
L 338.423499 280.23489 
z
" clip-path="url(#p55b5c9fe5d)" style="fill: none; stroke: #2070b4; stroke-width: 1.5"/>
   </g>
   <g id="PathCollection_8">
    <path d="M 66.281598 172.45953 
L 65.399615 169.79841 
L 65.198909 167.13729 
L 65.407831 164.47617 
L 65.913013 161.81505 
L 66.559985 159.532436 
L 66.674035 159.15393 
L 67.760921 156.49281 
L 68.345585 155.302039 
L 69.101801 153.83169 
L 70.131185 152.099969 
L 70.7076 151.17057 
L 71.916785 149.437185 
L 72.591154 148.50945 
L 73.738097 147.0687 
L 74.749223 145.84833 
L 75.523697 144.978846 
L 77.182666 143.18721 
L 77.309297 143.057697 
L 79.094897 141.398237 
L 80.098867 140.52609 
L 80.916209 139.842848 
L 82.701809 138.519887 
L 83.743797 137.86497 
L 84.487409 137.407974 
L 86.273009 136.610217 
L 88.094321 136.171012 
L 89.879921 136.404167 
L 91.555764 137.86497 
L 91.665521 138.056715 
L 92.381601 140.52609 
L 92.561405 143.18721 
L 92.359406 145.84833 
L 91.872482 148.50945 
L 91.665521 149.22007 
L 91.064029 151.17057 
L 90.021981 153.83169 
L 89.879921 154.121412 
L 88.663723 156.49281 
L 88.094321 157.457062 
L 87.048749 159.15393 
L 86.273009 160.278914 
L 85.171147 161.81505 
L 84.487409 162.685003 
L 83.027659 164.47617 
L 82.701809 164.848608 
L 80.916209 166.777578 
L 80.557799 167.13729 
L 79.094897 168.526091 
L 77.680835 169.79841 
L 77.309297 170.119371 
L 75.523697 171.462832 
L 74.040472 172.45953 
L 73.738097 172.657923 
L 71.916785 173.529617 
L 70.131185 174.058853 
L 68.345585 174.023817 
L 66.559985 172.883698 
L 66.281598 172.45953 
z
" clip-path="url(#p55b5c9fe5d)" style="fill: none; stroke: #08509b; stroke-width: 1.5"/>
    <path d="M 172.155845 274.91265 
L 171.915115 272.25153 
L 172.410353 270.171343 
L 172.549398 269.59041 
L 173.778097 266.92929 
L 174.231665 266.200272 
L 175.678381 263.82465 
L 176.017265 263.359672 
L 177.620893 261.16353 
L 177.802865 260.938742 
L 179.588465 258.775651 
L 179.819772 258.50241 
L 181.409777 256.768802 
L 182.275538 255.84129 
L 183.195377 254.912271 
L 184.949643 253.18017 
L 184.980977 253.150493 
L 186.766577 251.629765 
L 188.136165 250.51905 
L 188.587889 250.162701 
L 190.373489 248.963847 
L 192.159089 247.911938 
L 192.301107 247.85793 
L 193.944689 247.238811 
L 195.766001 246.979916 
L 197.551601 247.473801 
L 197.979267 247.85793 
L 199.337201 250.265213 
L 199.410728 250.51905 
L 199.714271 253.18017 
L 199.612491 255.84129 
L 199.337201 257.573527 
L 199.179937 258.50241 
L 198.408045 261.16353 
L 197.551601 263.382211 
L 197.371332 263.82465 
L 195.766001 266.82093 
L 195.706074 266.92929 
L 193.944689 269.434439 
L 193.82948 269.59041 
L 192.159089 271.448771 
L 191.401866 272.25153 
L 190.373489 273.157688 
L 188.587889 274.627141 
L 188.198261 274.91265 
L 186.766577 275.775841 
L 184.980977 276.715392 
L 183.195377 277.512307 
L 183.004617 277.57377 
L 181.409777 277.983067 
L 179.588465 278.252633 
L 177.802865 278.288154 
L 176.017265 278.045394 
L 174.574776 277.57377 
L 174.231665 277.367106 
L 172.410353 275.354389 
L 172.155845 274.91265 
z
" clip-path="url(#p55b5c9fe5d)" style="fill: none; stroke: #08509b; stroke-width: 1.5"/>
    <path d="M 243.847436 169.79841 
L 243.671762 167.13729 
L 243.84907 164.47617 
L 244.191473 162.486818 
L 244.313941 161.81505 
L 245.083034 159.15393 
L 246.012785 156.56684 
L 246.040511 156.49281 
L 247.29065 153.83169 
L 247.798385 152.88533 
L 248.737302 151.17057 
L 249.583985 149.77876 
L 250.364635 148.50945 
L 251.369585 147.006002 
L 252.146459 145.84833 
L 253.190897 144.387489 
L 254.046888 143.18721 
L 254.976497 141.95133 
L 256.039971 140.52609 
L 256.762097 139.600891 
L 258.103168 137.86497 
L 258.547697 137.312077 
L 260.22647 135.20385 
L 260.369009 135.032904 
L 262.154609 132.912698 
L 262.821833 132.09921 
L 263.940209 130.804265 
L 265.111019 129.43809 
L 265.725809 128.745523 
L 267.469593 126.77697 
L 267.547121 126.692008 
L 269.332721 124.8132 
L 270.00272 124.11585 
L 271.118321 122.99284 
L 272.666979 121.45473 
L 272.903921 121.225911 
L 274.725233 119.594406 
L 275.667199 118.79361 
L 276.510833 118.094183 
L 278.296433 116.746536 
L 279.229402 116.13249 
L 280.082033 115.579811 
L 281.903345 114.650708 
L 283.688945 114.024778 
L 285.474545 113.89651 
L 287.260145 114.744885 
L 288.210096 116.13249 
L 288.977652 118.79361 
L 289.081457 121.013363 
L 289.095106 121.45473 
L 289.081457 121.601564 
L 288.832642 124.11585 
L 288.289001 126.77697 
L 287.524526 129.43809 
L 287.260145 130.130248 
L 286.478319 132.09921 
L 285.474545 134.197604 
L 284.989343 135.20385 
L 283.688945 137.523558 
L 283.494342 137.86497 
L 281.903345 140.390368 
L 281.817108 140.52609 
L 280.082033 143.056327 
L 279.992231 143.18721 
L 278.296433 145.507968 
L 278.049343 145.84833 
L 276.510833 147.860597 
L 276.01967 148.50945 
L 274.725233 150.144587 
L 273.921261 151.17057 
L 272.903921 152.42013 
L 271.766256 153.83169 
L 271.118321 154.605842 
L 269.554551 156.49281 
L 269.332721 156.751258 
L 267.547121 158.810232 
L 267.246158 159.15393 
L 265.725809 160.829263 
L 264.831274 161.81505 
L 263.940209 162.763935 
L 262.324637 164.47617 
L 262.154609 164.651061 
L 260.369009 166.388383 
L 259.573445 167.13729 
L 258.547697 168.076811 
L 256.762097 169.646354 
L 256.566339 169.79841 
L 254.976497 171.002635 
L 253.190897 172.259699 
L 252.828713 172.45953 
L 251.369585 173.257152 
L 249.583985 173.963949 
L 247.798385 174.261972 
L 246.012785 173.801222 
L 244.746493 172.45953 
L 244.191473 171.218475 
L 243.847436 169.79841 
z
" clip-path="url(#p55b5c9fe5d)" style="fill: none; stroke: #08509b; stroke-width: 1.5"/>
   </g>
   <g id="PathCollection_9"/>
   <g id="patch_3">
    <path d="M 34.240625 288.21825 
L 34.240625 22.10625 
" style="fill: none; stroke: #000000; stroke-width: 0.8; stroke-linejoin: miter; stroke-linecap: square"/>
   </g>
   <g id="patch_4">
    <path d="M 391.360625 288.21825 
L 391.360625 22.10625 
" style="fill: none; stroke: #000000; stroke-width: 0.8; stroke-linejoin: miter; stroke-linecap: square"/>
   </g>
   <g id="patch_5">
    <path d="M 34.240625 288.21825 
L 391.360625 288.21825 
" style="fill: none; stroke: #000000; stroke-width: 0.8; stroke-linejoin: miter; stroke-linecap: square"/>
   </g>
   <g id="patch_6">
    <path d="M 34.240625 22.10625 
L 391.360625 22.10625 
" style="fill: none; stroke: #000000; stroke-width: 0.8; stroke-linejoin: miter; stroke-linecap: square"/>
   </g>
   <g id="text_16">
    <!-- 8.9_cross_18.0 -->
    <g transform="translate(168.34625 16.10625)scale(0.12 -0.12)">
     <defs>
      <path id="DejaVuSans-2e" d="M 684 794 
L 1344 794 
L 1344 0 
L 684 0 
L 684 794 
z
" transform="scale(0.015625)"/>
      <path id="DejaVuSans-39" d="M 703 97 
L 703 672 
Q 941 559 1184 500 
Q 1428 441 1663 441 
Q 2288 441 2617 861 
Q 2947 1281 2994 2138 
Q 2813 1869 2534 1725 
Q 2256 1581 1919 1581 
Q 1219 1581 811 2004 
Q 403 2428 403 3163 
Q 403 3881 828 4315 
Q 1253 4750 1959 4750 
Q 2769 4750 3195 4129 
Q 3622 3509 3622 2328 
Q 3622 1225 3098 567 
Q 2575 -91 1691 -91 
Q 1453 -91 1209 -44 
Q 966 3 703 97 
z
M 1959 2075 
Q 2384 2075 2632 2365 
Q 2881 2656 2881 3163 
Q 2881 3666 2632 3958 
Q 2384 4250 1959 4250 
Q 1534 4250 1286 3958 
Q 1038 3666 1038 3163 
Q 1038 2656 1286 2365 
Q 1534 2075 1959 2075 
z
" transform="scale(0.015625)"/>
      <path id="DejaVuSans-5f" d="M 3263 -1063 
L 3263 -1509 
L -63 -1509 
L -63 -1063 
L 3263 -1063 
z
" transform="scale(0.015625)"/>
      <path id="DejaVuSans-63" d="M 3122 3366 
L 3122 2828 
Q 2878 2963 2633 3030 
Q 2388 3097 2138 3097 
Q 1578 3097 1268 2742 
Q 959 2388 959 1747 
Q 959 1106 1268 751 
Q 1578 397 2138 397 
Q 2388 397 2633 464 
Q 2878 531 3122 666 
L 3122 134 
Q 2881 22 2623 -34 
Q 2366 -91 2075 -91 
Q 1284 -91 818 406 
Q 353 903 353 1747 
Q 353 2603 823 3093 
Q 1294 3584 2113 3584 
Q 2378 3584 2631 3529 
Q 2884 3475 3122 3366 
z
" transform="scale(0.015625)"/>
      <path id="DejaVuSans-72" d="M 2631 2963 
Q 2534 3019 2420 3045 
Q 2306 3072 2169 3072 
Q 1681 3072 1420 2755 
Q 1159 2438 1159 1844 
L 1159 0 
L 581 0 
L 581 3500 
L 1159 3500 
L 1159 2956 
Q 1341 3275 1631 3429 
Q 1922 3584 2338 3584 
Q 2397 3584 2469 3576 
Q 2541 3569 2628 3553 
L 2631 2963 
z
" transform="scale(0.015625)"/>
      <path id="DejaVuSans-73" d="M 2834 3397 
L 2834 2853 
Q 2591 2978 2328 3040 
Q 2066 3103 1784 3103 
Q 1356 3103 1142 2972 
Q 928 2841 928 2578 
Q 928 2378 1081 2264 
Q 1234 2150 1697 2047 
L 1894 2003 
Q 2506 1872 2764 1633 
Q 3022 1394 3022 966 
Q 3022 478 2636 193 
Q 2250 -91 1575 -91 
Q 1294 -91 989 -36 
Q 684 19 347 128 
L 347 722 
Q 666 556 975 473 
Q 1284 391 1588 391 
Q 1994 391 2212 530 
Q 2431 669 2431 922 
Q 2431 1156 2273 1281 
Q 2116 1406 1581 1522 
L 1381 1569 
Q 847 1681 609 1914 
Q 372 2147 372 2553 
Q 372 3047 722 3315 
Q 1072 3584 1716 3584 
Q 2034 3584 2315 3537 
Q 2597 3491 2834 3397 
z
" transform="scale(0.015625)"/>
     </defs>
     <use xlink:href="#DejaVuSans-38"/>
     <use xlink:href="#DejaVuSans-2e" x="63.623047"/>
     <use xlink:href="#DejaVuSans-39" x="95.410156"/>
     <use xlink:href="#DejaVuSans-5f" x="159.033203"/>
     <use xlink:href="#DejaVuSans-63" x="209.033203"/>
     <use xlink:href="#DejaVuSans-72" x="264.013672"/>
     <use xlink:href="#DejaVuSans-6f" x="302.876953"/>
     <use xlink:href="#DejaVuSans-73" x="364.058594"/>
     <use xlink:href="#DejaVuSans-73" x="416.158203"/>
     <use xlink:href="#DejaVuSans-5f" x="468.257812"/>
     <use xlink:href="#DejaVuSans-31" x="518.257812"/>
     <use xlink:href="#DejaVuSans-38" x="581.880859"/>
     <use xlink:href="#DejaVuSans-2e" x="645.503906"/>
     <use xlink:href="#DejaVuSans-30" x="677.291016"/>
    </g>
   </g>
  </g>
 </g>
 <defs>
  <clipPath id="p55b5c9fe5d">
   <rect x="34.240625" y="22.10625" width="357.12" height="266.112"/>
  </clipPath>
 </defs>
</svg>
