<?xml version="1.0" encoding="utf-8" standalone="no"?>
<!DOCTYPE svg PUBLIC "-//W3C//DTD SVG 1.1//EN"
  "http://www.w3.org/Graphics/SVG/1.1/DTD/svg11.dtd">
<svg xmlns:xlink="http://www.w3.org/1999/xlink" width="408.104375pt" height="325.7745pt" viewBox="0 0 408.104375 325.7745" xmlns="http://www.w3.org/2000/svg" version="1.1">
 <metadata>
  <rdf:RDF xmlns:dc="http://purl.org/dc/elements/1.1/" xmlns:cc="http://creativecommons.org/ns#" xmlns:rdf="http://www.w3.org/1999/02/22-rdf-syntax-ns#">
   <cc:Work>
    <dc:type rdf:resource="http://purl.org/dc/dcmitype/StillImage"/>
    <dc:date>2024-07-12T12:11:33.486482</dc:date>
    <dc:format>image/svg+xml</dc:format>
    <dc:creator>
     <cc:Agent>
      <dc:title>Matplotlib v3.5.3, https://matplotlib.org/</dc:title>
     </cc:Agent>
    </dc:creator>
   </cc:Work>
  </rdf:RDF>
 </metadata>
 <defs>
  <style type="text/css">*{stroke-linejoin: round; stroke-linecap: butt}</style>
 </defs>
 <g id="figure_1">
  <g id="patch_1">
   <path d="M 0 325.7745 
L 408.104375 325.7745 
L 408.104375 0 
L 0 0 
z
" style="fill: #ffffff"/>
  </g>
  <g id="axes_1">
   <g id="patch_2">
    <path d="M 34.240625 288.21825 
L 391.360625 288.21825 
L 391.360625 22.10625 
L 34.240625 22.10625 
z
" style="fill: #ffffff"/>
   </g>
   <g id="matplotlib.axis_1">
    <g id="xtick_1">
     <g id="line2d_1">
      <defs>
       <path id="ma15ce6499c" d="M 0 0 
L 0 3.5 
" style="stroke: #000000; stroke-width: 0.8"/>
      </defs>
      <g>
       <use xlink:href="#ma15ce6499c" x="34.240625" y="288.21825" style="stroke: #000000; stroke-width: 0.8"/>
      </g>
     </g>
     <g id="text_1">
      <!-- 0 -->
      <g transform="translate(31.059375 302.816687)scale(0.1 -0.1)">
       <defs>
        <path id="DejaVuSans-30" d="M 2034 4250 
Q 1547 4250 1301 3770 
Q 1056 3291 1056 2328 
Q 1056 1369 1301 889 
Q 1547 409 2034 409 
Q 2525 409 2770 889 
Q 3016 1369 3016 2328 
Q 3016 3291 2770 3770 
Q 2525 4250 2034 4250 
z
M 2034 4750 
Q 2819 4750 3233 4129 
Q 3647 3509 3647 2328 
Q 3647 1150 3233 529 
Q 2819 -91 2034 -91 
Q 1250 -91 836 529 
Q 422 1150 422 2328 
Q 422 3509 836 4129 
Q 1250 4750 2034 4750 
z
" transform="scale(0.015625)"/>
       </defs>
       <use xlink:href="#DejaVuSans-30"/>
      </g>
     </g>
    </g>
    <g id="xtick_2">
     <g id="line2d_2">
      <g>
       <use xlink:href="#ma15ce6499c" x="105.664625" y="288.21825" style="stroke: #000000; stroke-width: 0.8"/>
      </g>
     </g>
     <g id="text_2">
      <!-- 20 -->
      <g transform="translate(99.302125 302.816687)scale(0.1 -0.1)">
       <defs>
        <path id="DejaVuSans-32" d="M 1228 531 
L 3431 531 
L 3431 0 
L 469 0 
L 469 531 
Q 828 903 1448 1529 
Q 2069 2156 2228 2338 
Q 2531 2678 2651 2914 
Q 2772 3150 2772 3378 
Q 2772 3750 2511 3984 
Q 2250 4219 1831 4219 
Q 1534 4219 1204 4116 
Q 875 4013 500 3803 
L 500 4441 
Q 881 4594 1212 4672 
Q 1544 4750 1819 4750 
Q 2544 4750 2975 4387 
Q 3406 4025 3406 3419 
Q 3406 3131 3298 2873 
Q 3191 2616 2906 2266 
Q 2828 2175 2409 1742 
Q 1991 1309 1228 531 
z
" transform="scale(0.015625)"/>
       </defs>
       <use xlink:href="#DejaVuSans-32"/>
       <use xlink:href="#DejaVuSans-30" x="63.623047"/>
      </g>
     </g>
    </g>
    <g id="xtick_3">
     <g id="line2d_3">
      <g>
       <use xlink:href="#ma15ce6499c" x="177.088625" y="288.21825" style="stroke: #000000; stroke-width: 0.8"/>
      </g>
     </g>
     <g id="text_3">
      <!-- 40 -->
      <g transform="translate(170.726125 302.816687)scale(0.1 -0.1)">
       <defs>
        <path id="DejaVuSans-34" d="M 2419 4116 
L 825 1625 
L 2419 1625 
L 2419 4116 
z
M 2253 4666 
L 3047 4666 
L 3047 1625 
L 3713 1625 
L 3713 1100 
L 3047 1100 
L 3047 0 
L 2419 0 
L 2419 1100 
L 313 1100 
L 313 1709 
L 2253 4666 
z
" transform="scale(0.015625)"/>
       </defs>
       <use xlink:href="#DejaVuSans-34"/>
       <use xlink:href="#DejaVuSans-30" x="63.623047"/>
      </g>
     </g>
    </g>
    <g id="xtick_4">
     <g id="line2d_4">
      <g>
       <use xlink:href="#ma15ce6499c" x="248.512625" y="288.21825" style="stroke: #000000; stroke-width: 0.8"/>
      </g>
     </g>
     <g id="text_4">
      <!-- 60 -->
      <g transform="translate(242.150125 302.816687)scale(0.1 -0.1)">
       <defs>
        <path id="DejaVuSans-36" d="M 2113 2584 
Q 1688 2584 1439 2293 
Q 1191 2003 1191 1497 
Q 1191 994 1439 701 
Q 1688 409 2113 409 
Q 2538 409 2786 701 
Q 3034 994 3034 1497 
Q 3034 2003 2786 2293 
Q 2538 2584 2113 2584 
z
M 3366 4563 
L 3366 3988 
Q 3128 4100 2886 4159 
Q 2644 4219 2406 4219 
Q 1781 4219 1451 3797 
Q 1122 3375 1075 2522 
Q 1259 2794 1537 2939 
Q 1816 3084 2150 3084 
Q 2853 3084 3261 2657 
Q 3669 2231 3669 1497 
Q 3669 778 3244 343 
Q 2819 -91 2113 -91 
Q 1303 -91 875 529 
Q 447 1150 447 2328 
Q 447 3434 972 4092 
Q 1497 4750 2381 4750 
Q 2619 4750 2861 4703 
Q 3103 4656 3366 4563 
z
" transform="scale(0.015625)"/>
       </defs>
       <use xlink:href="#DejaVuSans-36"/>
       <use xlink:href="#DejaVuSans-30" x="63.623047"/>
      </g>
     </g>
    </g>
    <g id="xtick_5">
     <g id="line2d_5">
      <g>
       <use xlink:href="#ma15ce6499c" x="319.936625" y="288.21825" style="stroke: #000000; stroke-width: 0.8"/>
      </g>
     </g>
     <g id="text_5">
      <!-- 80 -->
      <g transform="translate(313.574125 302.816687)scale(0.1 -0.1)">
       <defs>
        <path id="DejaVuSans-38" d="M 2034 2216 
Q 1584 2216 1326 1975 
Q 1069 1734 1069 1313 
Q 1069 891 1326 650 
Q 1584 409 2034 409 
Q 2484 409 2743 651 
Q 3003 894 3003 1313 
Q 3003 1734 2745 1975 
Q 2488 2216 2034 2216 
z
M 1403 2484 
Q 997 2584 770 2862 
Q 544 3141 544 3541 
Q 544 4100 942 4425 
Q 1341 4750 2034 4750 
Q 2731 4750 3128 4425 
Q 3525 4100 3525 3541 
Q 3525 3141 3298 2862 
Q 3072 2584 2669 2484 
Q 3125 2378 3379 2068 
Q 3634 1759 3634 1313 
Q 3634 634 3220 271 
Q 2806 -91 2034 -91 
Q 1263 -91 848 271 
Q 434 634 434 1313 
Q 434 1759 690 2068 
Q 947 2378 1403 2484 
z
M 1172 3481 
Q 1172 3119 1398 2916 
Q 1625 2713 2034 2713 
Q 2441 2713 2670 2916 
Q 2900 3119 2900 3481 
Q 2900 3844 2670 4047 
Q 2441 4250 2034 4250 
Q 1625 4250 1398 4047 
Q 1172 3844 1172 3481 
z
" transform="scale(0.015625)"/>
       </defs>
       <use xlink:href="#DejaVuSans-38"/>
       <use xlink:href="#DejaVuSans-30" x="63.623047"/>
      </g>
     </g>
    </g>
    <g id="xtick_6">
     <g id="line2d_6">
      <g>
       <use xlink:href="#ma15ce6499c" x="391.360625" y="288.21825" style="stroke: #000000; stroke-width: 0.8"/>
      </g>
     </g>
     <g id="text_6">
      <!-- 100 -->
      <g transform="translate(381.816875 302.816687)scale(0.1 -0.1)">
       <defs>
        <path id="DejaVuSans-31" d="M 794 531 
L 1825 531 
L 1825 4091 
L 703 3866 
L 703 4441 
L 1819 4666 
L 2450 4666 
L 2450 531 
L 3481 531 
L 3481 0 
L 794 0 
L 794 531 
z
" transform="scale(0.015625)"/>
       </defs>
       <use xlink:href="#DejaVuSans-31"/>
       <use xlink:href="#DejaVuSans-30" x="63.623047"/>
       <use xlink:href="#DejaVuSans-30" x="127.246094"/>
      </g>
     </g>
    </g>
    <g id="text_7">
     <!-- axialRotation -->
     <g transform="translate(180.024844 316.494812)scale(0.1 -0.1)">
      <defs>
       <path id="DejaVuSans-61" d="M 2194 1759 
Q 1497 1759 1228 1600 
Q 959 1441 959 1056 
Q 959 750 1161 570 
Q 1363 391 1709 391 
Q 2188 391 2477 730 
Q 2766 1069 2766 1631 
L 2766 1759 
L 2194 1759 
z
M 3341 1997 
L 3341 0 
L 2766 0 
L 2766 531 
Q 2569 213 2275 61 
Q 1981 -91 1556 -91 
Q 1019 -91 701 211 
Q 384 513 384 1019 
Q 384 1609 779 1909 
Q 1175 2209 1959 2209 
L 2766 2209 
L 2766 2266 
Q 2766 2663 2505 2880 
Q 2244 3097 1772 3097 
Q 1472 3097 1187 3025 
Q 903 2953 641 2809 
L 641 3341 
Q 956 3463 1253 3523 
Q 1550 3584 1831 3584 
Q 2591 3584 2966 3190 
Q 3341 2797 3341 1997 
z
" transform="scale(0.015625)"/>
       <path id="DejaVuSans-78" d="M 3513 3500 
L 2247 1797 
L 3578 0 
L 2900 0 
L 1881 1375 
L 863 0 
L 184 0 
L 1544 1831 
L 300 3500 
L 978 3500 
L 1906 2253 
L 2834 3500 
L 3513 3500 
z
" transform="scale(0.015625)"/>
       <path id="DejaVuSans-69" d="M 603 3500 
L 1178 3500 
L 1178 0 
L 603 0 
L 603 3500 
z
M 603 4863 
L 1178 4863 
L 1178 4134 
L 603 4134 
L 603 4863 
z
" transform="scale(0.015625)"/>
       <path id="DejaVuSans-6c" d="M 603 4863 
L 1178 4863 
L 1178 0 
L 603 0 
L 603 4863 
z
" transform="scale(0.015625)"/>
       <path id="DejaVuSans-52" d="M 2841 2188 
Q 3044 2119 3236 1894 
Q 3428 1669 3622 1275 
L 4263 0 
L 3584 0 
L 2988 1197 
Q 2756 1666 2539 1819 
Q 2322 1972 1947 1972 
L 1259 1972 
L 1259 0 
L 628 0 
L 628 4666 
L 2053 4666 
Q 2853 4666 3247 4331 
Q 3641 3997 3641 3322 
Q 3641 2881 3436 2590 
Q 3231 2300 2841 2188 
z
M 1259 4147 
L 1259 2491 
L 2053 2491 
Q 2509 2491 2742 2702 
Q 2975 2913 2975 3322 
Q 2975 3731 2742 3939 
Q 2509 4147 2053 4147 
L 1259 4147 
z
" transform="scale(0.015625)"/>
       <path id="DejaVuSans-6f" d="M 1959 3097 
Q 1497 3097 1228 2736 
Q 959 2375 959 1747 
Q 959 1119 1226 758 
Q 1494 397 1959 397 
Q 2419 397 2687 759 
Q 2956 1122 2956 1747 
Q 2956 2369 2687 2733 
Q 2419 3097 1959 3097 
z
M 1959 3584 
Q 2709 3584 3137 3096 
Q 3566 2609 3566 1747 
Q 3566 888 3137 398 
Q 2709 -91 1959 -91 
Q 1206 -91 779 398 
Q 353 888 353 1747 
Q 353 2609 779 3096 
Q 1206 3584 1959 3584 
z
" transform="scale(0.015625)"/>
       <path id="DejaVuSans-74" d="M 1172 4494 
L 1172 3500 
L 2356 3500 
L 2356 3053 
L 1172 3053 
L 1172 1153 
Q 1172 725 1289 603 
Q 1406 481 1766 481 
L 2356 481 
L 2356 0 
L 1766 0 
Q 1100 0 847 248 
Q 594 497 594 1153 
L 594 3053 
L 172 3053 
L 172 3500 
L 594 3500 
L 594 4494 
L 1172 4494 
z
" transform="scale(0.015625)"/>
       <path id="DejaVuSans-6e" d="M 3513 2113 
L 3513 0 
L 2938 0 
L 2938 2094 
Q 2938 2591 2744 2837 
Q 2550 3084 2163 3084 
Q 1697 3084 1428 2787 
Q 1159 2491 1159 1978 
L 1159 0 
L 581 0 
L 581 3500 
L 1159 3500 
L 1159 2956 
Q 1366 3272 1645 3428 
Q 1925 3584 2291 3584 
Q 2894 3584 3203 3211 
Q 3513 2838 3513 2113 
z
" transform="scale(0.015625)"/>
      </defs>
      <use xlink:href="#DejaVuSans-61"/>
      <use xlink:href="#DejaVuSans-78" x="61.279297"/>
      <use xlink:href="#DejaVuSans-69" x="120.458984"/>
      <use xlink:href="#DejaVuSans-61" x="148.242188"/>
      <use xlink:href="#DejaVuSans-6c" x="209.521484"/>
      <use xlink:href="#DejaVuSans-52" x="237.304688"/>
      <use xlink:href="#DejaVuSans-6f" x="302.287109"/>
      <use xlink:href="#DejaVuSans-74" x="363.46875"/>
      <use xlink:href="#DejaVuSans-61" x="402.677734"/>
      <use xlink:href="#DejaVuSans-74" x="463.957031"/>
      <use xlink:href="#DejaVuSans-69" x="503.166016"/>
      <use xlink:href="#DejaVuSans-6f" x="530.949219"/>
      <use xlink:href="#DejaVuSans-6e" x="592.130859"/>
     </g>
    </g>
   </g>
   <g id="matplotlib.axis_2">
    <g id="ytick_1">
     <g id="line2d_7">
      <defs>
       <path id="m45fce5d6e0" d="M 0 0 
L -3.5 0 
" style="stroke: #000000; stroke-width: 0.8"/>
      </defs>
      <g>
       <use xlink:href="#m45fce5d6e0" x="34.240625" y="288.21825" style="stroke: #000000; stroke-width: 0.8"/>
      </g>
     </g>
     <g id="text_8">
      <!-- 0 -->
      <g transform="translate(20.878125 292.017469)scale(0.1 -0.1)">
       <use xlink:href="#DejaVuSans-30"/>
      </g>
     </g>
    </g>
    <g id="ytick_2">
     <g id="line2d_8">
      <g>
       <use xlink:href="#m45fce5d6e0" x="34.240625" y="243.86625" style="stroke: #000000; stroke-width: 0.8"/>
      </g>
     </g>
     <g id="text_9">
      <!-- 1 -->
      <g transform="translate(20.878125 247.665469)scale(0.1 -0.1)">
       <use xlink:href="#DejaVuSans-31"/>
      </g>
     </g>
    </g>
    <g id="ytick_3">
     <g id="line2d_9">
      <g>
       <use xlink:href="#m45fce5d6e0" x="34.240625" y="199.51425" style="stroke: #000000; stroke-width: 0.8"/>
      </g>
     </g>
     <g id="text_10">
      <!-- 2 -->
      <g transform="translate(20.878125 203.313469)scale(0.1 -0.1)">
       <use xlink:href="#DejaVuSans-32"/>
      </g>
     </g>
    </g>
    <g id="ytick_4">
     <g id="line2d_10">
      <g>
       <use xlink:href="#m45fce5d6e0" x="34.240625" y="155.16225" style="stroke: #000000; stroke-width: 0.8"/>
      </g>
     </g>
     <g id="text_11">
      <!-- 3 -->
      <g transform="translate(20.878125 158.961469)scale(0.1 -0.1)">
       <defs>
        <path id="DejaVuSans-33" d="M 2597 2516 
Q 3050 2419 3304 2112 
Q 3559 1806 3559 1356 
Q 3559 666 3084 287 
Q 2609 -91 1734 -91 
Q 1441 -91 1130 -33 
Q 819 25 488 141 
L 488 750 
Q 750 597 1062 519 
Q 1375 441 1716 441 
Q 2309 441 2620 675 
Q 2931 909 2931 1356 
Q 2931 1769 2642 2001 
Q 2353 2234 1838 2234 
L 1294 2234 
L 1294 2753 
L 1863 2753 
Q 2328 2753 2575 2939 
Q 2822 3125 2822 3475 
Q 2822 3834 2567 4026 
Q 2313 4219 1838 4219 
Q 1578 4219 1281 4162 
Q 984 4106 628 3988 
L 628 4550 
Q 988 4650 1302 4700 
Q 1616 4750 1894 4750 
Q 2613 4750 3031 4423 
Q 3450 4097 3450 3541 
Q 3450 3153 3228 2886 
Q 3006 2619 2597 2516 
z
" transform="scale(0.015625)"/>
       </defs>
       <use xlink:href="#DejaVuSans-33"/>
      </g>
     </g>
    </g>
    <g id="ytick_5">
     <g id="line2d_11">
      <g>
       <use xlink:href="#m45fce5d6e0" x="34.240625" y="110.81025" style="stroke: #000000; stroke-width: 0.8"/>
      </g>
     </g>
     <g id="text_12">
      <!-- 4 -->
      <g transform="translate(20.878125 114.609469)scale(0.1 -0.1)">
       <use xlink:href="#DejaVuSans-34"/>
      </g>
     </g>
    </g>
    <g id="ytick_6">
     <g id="line2d_12">
      <g>
       <use xlink:href="#m45fce5d6e0" x="34.240625" y="66.45825" style="stroke: #000000; stroke-width: 0.8"/>
      </g>
     </g>
     <g id="text_13">
      <!-- 5 -->
      <g transform="translate(20.878125 70.257469)scale(0.1 -0.1)">
       <defs>
        <path id="DejaVuSans-35" d="M 691 4666 
L 3169 4666 
L 3169 4134 
L 1269 4134 
L 1269 2991 
Q 1406 3038 1543 3061 
Q 1681 3084 1819 3084 
Q 2600 3084 3056 2656 
Q 3513 2228 3513 1497 
Q 3513 744 3044 326 
Q 2575 -91 1722 -91 
Q 1428 -91 1123 -41 
Q 819 9 494 109 
L 494 744 
Q 775 591 1075 516 
Q 1375 441 1709 441 
Q 2250 441 2565 725 
Q 2881 1009 2881 1497 
Q 2881 1984 2565 2268 
Q 2250 2553 1709 2553 
Q 1456 2553 1204 2497 
Q 953 2441 691 2322 
L 691 4666 
z
" transform="scale(0.015625)"/>
       </defs>
       <use xlink:href="#DejaVuSans-35"/>
      </g>
     </g>
    </g>
    <g id="ytick_7">
     <g id="line2d_13">
      <g>
       <use xlink:href="#m45fce5d6e0" x="34.240625" y="22.10625" style="stroke: #000000; stroke-width: 0.8"/>
      </g>
     </g>
     <g id="text_14">
      <!-- 6 -->
      <g transform="translate(20.878125 25.905469)scale(0.1 -0.1)">
       <use xlink:href="#DejaVuSans-36"/>
      </g>
     </g>
    </g>
    <g id="text_15">
     <!-- zShift -->
     <g transform="translate(14.798438 169.151312)rotate(-90)scale(0.1 -0.1)">
      <defs>
       <path id="DejaVuSans-7a" d="M 353 3500 
L 3084 3500 
L 3084 2975 
L 922 459 
L 3084 459 
L 3084 0 
L 275 0 
L 275 525 
L 2438 3041 
L 353 3041 
L 353 3500 
z
" transform="scale(0.015625)"/>
       <path id="DejaVuSans-53" d="M 3425 4513 
L 3425 3897 
Q 3066 4069 2747 4153 
Q 2428 4238 2131 4238 
Q 1616 4238 1336 4038 
Q 1056 3838 1056 3469 
Q 1056 3159 1242 3001 
Q 1428 2844 1947 2747 
L 2328 2669 
Q 3034 2534 3370 2195 
Q 3706 1856 3706 1288 
Q 3706 609 3251 259 
Q 2797 -91 1919 -91 
Q 1588 -91 1214 -16 
Q 841 59 441 206 
L 441 856 
Q 825 641 1194 531 
Q 1563 422 1919 422 
Q 2459 422 2753 634 
Q 3047 847 3047 1241 
Q 3047 1584 2836 1778 
Q 2625 1972 2144 2069 
L 1759 2144 
Q 1053 2284 737 2584 
Q 422 2884 422 3419 
Q 422 4038 858 4394 
Q 1294 4750 2059 4750 
Q 2388 4750 2728 4690 
Q 3069 4631 3425 4513 
z
" transform="scale(0.015625)"/>
       <path id="DejaVuSans-68" d="M 3513 2113 
L 3513 0 
L 2938 0 
L 2938 2094 
Q 2938 2591 2744 2837 
Q 2550 3084 2163 3084 
Q 1697 3084 1428 2787 
Q 1159 2491 1159 1978 
L 1159 0 
L 581 0 
L 581 4863 
L 1159 4863 
L 1159 2956 
Q 1366 3272 1645 3428 
Q 1925 3584 2291 3584 
Q 2894 3584 3203 3211 
Q 3513 2838 3513 2113 
z
" transform="scale(0.015625)"/>
       <path id="DejaVuSans-66" d="M 2375 4863 
L 2375 4384 
L 1825 4384 
Q 1516 4384 1395 4259 
Q 1275 4134 1275 3809 
L 1275 3500 
L 2222 3500 
L 2222 3053 
L 1275 3053 
L 1275 0 
L 697 0 
L 697 3053 
L 147 3053 
L 147 3500 
L 697 3500 
L 697 3744 
Q 697 4328 969 4595 
Q 1241 4863 1831 4863 
L 2375 4863 
z
" transform="scale(0.015625)"/>
      </defs>
      <use xlink:href="#DejaVuSans-7a"/>
      <use xlink:href="#DejaVuSans-53" x="52.490234"/>
      <use xlink:href="#DejaVuSans-68" x="115.966797"/>
      <use xlink:href="#DejaVuSans-69" x="179.345703"/>
      <use xlink:href="#DejaVuSans-66" x="207.128906"/>
      <use xlink:href="#DejaVuSans-74" x="240.583984"/>
     </g>
    </g>
   </g>
   <g id="PathCollection_1"/>
   <g id="PathCollection_2">
    <path d="M 34.240625 145.180481 
L 34.943172 143.18721 
L 35.835651 140.52609 
L 36.026225 139.936743 
L 36.657063 137.86497 
L 37.495383 135.20385 
L 37.847537 134.150173 
L 38.505812 132.09921 
L 39.470625 129.43809 
L 39.633137 129.032673 
L 40.509202 126.77697 
L 41.418737 124.748235 
L 41.69646 124.11585 
L 43.012476 121.45473 
L 43.204337 121.102528 
L 44.455101 118.79361 
L 45.025649 117.836775 
L 46.043911 116.13249 
L 46.811249 114.93686 
L 47.759844 113.47137 
L 48.596849 112.242582 
L 49.58466 110.81025 
L 50.382449 109.691295 
L 51.49741 108.14913 
L 52.203761 107.192329 
L 53.48167 105.48801 
L 53.989361 104.816308 
L 55.519725 102.82689 
L 55.774961 102.495143 
L 57.560561 100.212366 
L 57.597156 100.16577 
L 59.381873 97.88521 
L 59.685025 97.50465 
L 61.167473 95.626309 
L 61.797243 94.84353 
L 62.953073 93.388685 
L 63.930256 92.18241 
L 64.738673 91.168884 
L 66.077351 89.52129 
L 66.559985 88.912038 
L 68.345585 86.711857 
L 68.588035 86.41665 
L 70.131185 84.484442 
L 70.723809 83.75553 
L 71.916785 82.259468 
L 72.861683 81.09441 
L 73.738097 79.995088 
L 75.004847 78.43329 
L 75.523697 77.78179 
L 77.154239 75.77217 
L 77.309297 75.577617 
L 79.094897 73.356206 
L 79.293852 73.11105 
L 80.916209 71.080853 
L 81.429164 70.44993 
L 82.701809 68.855399 
L 83.568361 67.78881 
L 84.487409 66.634352 
L 85.707326 65.12769 
L 86.273009 64.413172 
L 87.8369 62.46657 
L 88.094321 62.138752 
L 89.879921 59.886294 
L 89.944008 59.80545 
L 91.665521 57.575038 
L 92.001206 57.14433 
L 93.451121 55.226695 
L 94.016188 54.48321 
L 95.272433 52.77321 
L 95.971208 51.82209 
L 97.058033 50.277337 
L 97.838831 49.16097 
L 98.843633 47.646009 
L 99.592891 46.49985 
L 100.629233 44.78829 
L 101.461338 43.39521 
L 102.450545 41.588945 
L 102.902129 40.73409 
L 104.196743 38.07297 
L 104.236145 37.983661 
L 105.316198 35.41185 
L 106.021745 33.630073 
L 106.352591 32.75073 
L 107.305269 30.08961 
L 107.807345 28.688851 
L 108.238303 27.42849 
L 109.194446 24.76737 
L 109.628657 23.661721 
L 110.222692 22.10625 
" clip-path="url(#pddde943696)" style="fill: none; stroke: #deebf7; stroke-width: 1.5"/>
    <path d="M 114.493041 288.21825 
L 114.423936 285.55713 
L 114.647425 282.89601 
L 115.142203 280.23489 
L 115.871466 277.57377 
L 116.872269 274.91265 
L 118.592369 271.240564 
L 120.377969 268.021915 
L 122.163569 265.143452 
L 124.863335 261.16353 
L 129.341681 255.107849 
L 137.138952 245.19681 
L 152.104469 226.56897 
L 172.410353 201.353586 
L 179.588465 192.346397 
L 183.195377 187.641368 
L 186.766577 182.70352 
L 189.680727 178.22529 
L 192.159089 173.738822 
L 193.987618 169.79841 
L 195.950882 164.47617 
L 199.367433 153.83169 
L 201.122801 149.194081 
L 201.395345 148.50945 
L 202.944113 145.150441 
L 204.729713 141.735783 
L 206.515313 138.689809 
L 208.755521 135.20385 
L 211.907825 130.717717 
L 215.479025 125.949483 
L 223.206319 116.13249 
L 237.013361 98.965126 
L 257.843665 73.11105 
L 271.118321 56.636967 
L 299.197922 22.10625 
L 299.197922 22.10625 
" clip-path="url(#pddde943696)" style="fill: none; stroke: #deebf7; stroke-width: 1.5"/>
    <path d="M 221.832087 22.10625 
L 221.899692 24.76737 
L 221.681604 27.42849 
L 220.871537 31.179383 
L 220.443277 32.75073 
L 219.085937 36.230659 
L 218.265214 38.07297 
L 216.863346 40.73409 
L 213.693425 45.881612 
L 211.450141 49.16097 
L 206.515313 55.820661 
L 201.122801 62.668906 
L 170.624753 100.971059 
L 167.053553 105.948519 
L 165.232241 108.729288 
L 163.446641 111.727125 
L 161.661041 115.127901 
L 160.011358 118.79361 
L 159.010303 121.45473 
L 157.243395 126.77697 
L 154.482929 135.242111 
L 152.697329 139.80225 
L 152.397881 140.52609 
L 150.876017 143.718086 
L 149.090417 147.047766 
L 147.304817 150.036955 
L 144.822616 153.83169 
L 141.000503 159.15393 
L 136.519793 165.010165 
L 125.770481 178.465111 
L 84.487409 229.487738 
L 77.309297 237.920387 
L 71.916785 243.79299 
L 66.559985 249.042713 
L 62.953073 252.166255 
L 59.381873 254.883352 
L 55.774961 257.228253 
L 52.203761 259.135408 
L 48.596849 260.671333 
L 45.025649 261.827793 
L 41.418737 262.633691 
L 37.847537 263.062369 
L 34.240625 263.14577 
L 34.240625 263.14577 
" clip-path="url(#pddde943696)" style="fill: none; stroke: #deebf7; stroke-width: 1.5"/>
    <path d="M 307.466183 288.21825 
L 307.008881 286.485903 
L 306.754749 285.55713 
L 306.22598 282.89601 
L 305.88992 280.23489 
L 305.724055 277.57377 
L 305.715717 274.91265 
L 305.860691 272.25153 
L 306.162405 269.59041 
L 306.631574 266.92929 
L 307.008881 265.39259 
L 307.375308 263.82465 
L 308.188199 261.16353 
L 308.794481 259.559848 
L 309.181455 258.50241 
L 310.345526 255.84129 
L 310.615793 255.301241 
L 311.664269 253.18017 
L 312.401393 251.863107 
L 313.152098 250.51905 
L 314.186993 248.831663 
L 314.787189 247.85793 
L 315.972593 246.0598 
L 316.546673 245.19681 
L 317.793905 243.408402 
L 318.410062 242.53569 
L 319.579505 240.924415 
L 320.353204 239.87457 
L 321.365105 238.520928 
L 322.35897 237.21345 
L 323.150705 236.176658 
L 324.412328 234.55233 
L 324.972017 233.831556 
L 326.5062 231.89121 
L 326.757617 231.571013 
L 328.543217 229.332178 
L 328.62519 229.23009 
L 330.328817 227.086765 
L 330.748442 226.56897 
L 332.150129 224.819572 
L 332.895522 223.90785 
L 333.935729 222.60352 
L 335.430941 220.80321 
L 335.721329 220.443857 
L 337.506929 218.272247 
L 337.614761 218.14209 
L 339.328241 216.039835 
L 339.794629 215.48097 
L 341.113841 213.871419 
L 341.999341 212.81985 
L 342.899441 211.732065 
L 344.241631 210.15873 
L 344.685041 209.630023 
L 346.506353 207.527964 
L 346.533006 207.49761 
L 348.291953 205.462099 
L 348.855418 204.83649 
L 350.077553 203.456118 
L 351.266835 202.17537 
L 351.863153 201.520906 
L 353.684465 199.617849 
L 353.786447 199.51425 
L 355.470065 197.768532 
L 356.41395 196.85313 
L 357.255665 196.017939 
L 359.041265 194.364348 
L 359.235515 194.19201 
L 360.862577 192.714259 
L 362.297971 191.53089 
L 362.648177 191.233745 
L 364.433777 189.807611 
L 365.74015 188.86977 
L 366.219377 188.513507 
L 368.040689 187.262021 
L 369.793112 186.20865 
L 369.826289 186.187776 
L 371.611889 185.145396 
L 373.397489 184.243641 
L 374.988852 183.54753 
L 375.218801 183.44034 
L 377.004401 182.698239 
L 378.790001 182.072826 
L 380.575601 181.553182 
L 382.396913 181.123156 
L 383.669024 180.88641 
L 384.182513 180.780778 
L 385.968113 180.505254 
L 387.753713 180.323553 
L 389.575025 180.232374 
L 391.360625 180.234687 
" clip-path="url(#pddde943696)" style="fill: none; stroke: #deebf7; stroke-width: 1.5"/>
    <path d="M 391.360625 47.175556 
L 387.753713 52.223113 
L 381.936522 59.80545 
L 375.218801 68.219422 
L 353.684465 94.967087 
L 332.585735 121.45473 
L 328.543217 126.963405 
L 325.180998 132.09921 
L 323.150705 135.713563 
L 321.365105 139.451762 
L 319.854895 143.18721 
L 318.933392 145.84833 
L 314.186993 160.036582 
L 313.481975 161.81505 
L 310.939862 167.13729 
L 308.794481 170.918578 
L 306.124899 175.12065 
L 303.437681 178.957149 
L 299.830769 183.796273 
L 291.680923 194.19201 
L 278.296433 211.146504 
L 274.725233 216.058145 
L 271.629545 220.80321 
L 269.332721 224.934118 
L 267.333481 229.23009 
L 265.368702 234.55233 
L 260.999077 247.85793 
L 258.713767 253.18017 
L 255.911953 258.50241 
L 252.558684 263.82465 
L 249.583985 268.059044 
L 246.012785 272.828184 
L 238.834673 281.91293 
L 233.556801 288.21825 
L 233.556801 288.21825 
" clip-path="url(#pddde943696)" style="fill: none; stroke: #deebf7; stroke-width: 1.5"/>
   </g>
   <g id="PathCollection_3">
    <path d="M 34.240625 164.128932 
L 35.810954 161.81505 
L 36.026225 161.480426 
L 37.497568 159.15393 
L 37.847537 158.561748 
L 39.040669 156.49281 
L 39.633137 155.376295 
L 40.428084 153.83169 
L 41.418737 151.717251 
L 41.665893 151.17057 
L 42.746542 148.50945 
L 43.204337 147.272963 
L 43.710113 145.84833 
L 44.588714 143.18721 
L 45.025649 141.813916 
L 45.419491 140.52609 
L 46.238697 137.86497 
L 46.811249 136.109042 
L 47.097792 135.20385 
L 48.180151 132.09921 
L 48.596849 131.041398 
L 49.218456 129.43809 
L 50.382449 126.811951 
L 50.397828 126.77697 
L 51.695366 124.11585 
L 52.203761 123.183091 
L 53.148123 121.45473 
L 53.989361 120.047871 
L 54.7451 118.79361 
L 55.774961 117.199008 
L 56.471042 116.13249 
L 57.560561 114.544871 
L 58.305781 113.47137 
L 59.381873 111.974703 
L 60.229375 110.81025 
L 61.167473 109.547826 
L 62.220539 108.14913 
L 62.953073 107.186977 
L 64.264021 105.48801 
L 64.738673 104.875551 
L 66.347437 102.82689 
L 66.559985 102.556428 
L 68.345585 100.306254 
L 68.457783 100.16577 
L 70.131185 98.062154 
L 70.5807 97.50465 
L 71.916785 95.835615 
L 72.72121 94.84353 
L 73.738097 93.578138 
L 74.873752 92.18241 
L 75.523697 91.373633 
L 77.031068 89.52129 
L 77.309297 89.172479 
L 79.094897 86.956122 
L 79.53514 86.41665 
L 80.916209 84.693951 
L 81.676698 83.75553 
L 82.701809 82.474623 
L 83.81937 81.09441 
L 84.487409 80.259706 
L 85.966947 78.43329 
L 86.273009 78.051203 
L 88.094321 75.80242 
L 88.118855 75.77217 
L 89.879921 73.577219 
L 90.258112 73.11105 
L 91.665521 71.35477 
L 92.398309 70.44993 
L 93.451121 69.131172 
L 94.532566 67.78881 
L 95.272433 66.856169 
L 96.654505 65.12769 
L 97.058033 64.61344 
L 98.754504 62.46657 
L 98.843633 62.351326 
L 100.629233 60.041294 
L 100.811632 59.80545 
L 102.450545 57.634194 
L 102.820424 57.14433 
L 104.236145 55.20914 
L 104.765603 54.48321 
L 106.021745 52.689653 
L 106.624393 51.82209 
L 107.807345 50.028224 
L 108.370746 49.16097 
L 109.628657 47.096522 
L 109.984481 46.49985 
L 111.414257 43.882742 
L 111.674925 43.39521 
L 112.959336 40.73409 
L 113.199857 40.188692 
L 114.100957 38.07297 
L 114.985457 35.849062 
L 115.153527 35.41185 
L 116.121119 32.75073 
L 116.806769 30.871363 
L 117.084885 30.08961 
L 118.071461 27.42849 
L 118.592369 26.149266 
L 119.152639 24.76737 
L 120.377969 22.142292 
L 120.395014 22.10625 
" clip-path="url(#pddde943696)" style="fill: none; stroke: #c6dbef; stroke-width: 1.5"/>
    <path d="M 125.221137 288.21825 
L 124.990654 285.55713 
L 125.120179 282.89601 
L 125.770481 279.579732 
L 126.328587 277.57377 
L 127.556081 274.48582 
L 129.341681 270.904703 
L 131.162993 267.786025 
L 132.948593 265.020905 
L 135.633575 261.16353 
L 140.126705 255.189959 
L 149.090417 243.887488 
L 189.037883 194.19201 
L 193.944689 187.646212 
L 196.778723 183.54753 
L 199.337201 179.363843 
L 201.122801 175.996977 
L 201.559696 175.12065 
L 202.944113 171.965472 
L 204.729713 167.124041 
L 209.044217 153.83169 
L 211.296499 148.50945 
L 213.693425 143.934717 
L 215.479025 140.940553 
L 217.480602 137.86497 
L 221.59023 132.09921 
L 226.264049 125.995575 
L 236.294422 113.47137 
L 287.260145 50.215809 
L 305.861368 27.42849 
L 308.794481 24.069007 
L 310.591214 22.10625 
L 310.591214 22.10625 
" clip-path="url(#pddde943696)" style="fill: none; stroke: #c6dbef; stroke-width: 1.5"/>
    <path d="M 211.100456 22.10625 
L 211.328248 24.76737 
L 211.200045 27.42849 
L 210.744031 30.08961 
L 209.983698 32.75073 
L 208.971944 35.41185 
L 207.714597 38.07297 
L 206.250956 40.73409 
L 202.944113 45.922375 
L 200.66947 49.16097 
L 195.766001 55.653694 
L 188.211515 65.12769 
L 162.413992 97.50465 
L 158.580325 102.82689 
L 156.268529 106.375979 
L 154.482929 109.416441 
L 152.697329 112.867356 
L 152.406358 113.47137 
L 150.876017 117.091166 
L 149.090417 122.131785 
L 145.519217 133.20902 
L 144.792634 135.20385 
L 142.451886 140.52609 
L 140.126705 144.836621 
L 138.341105 147.775236 
L 136.094802 151.17057 
L 132.25574 156.49281 
L 127.556081 162.608841 
L 116.806769 176.018917 
L 106.021745 189.383244 
L 77.309297 224.608211 
L 70.915019 231.89121 
L 68.345585 234.633796 
L 64.738673 238.274633 
L 61.167473 241.546276 
L 57.560561 244.483717 
L 53.989361 246.993602 
L 50.382449 249.088954 
L 46.811249 250.694016 
L 45.025649 251.34143 
L 43.204337 251.873727 
L 41.418737 252.274211 
L 39.633137 252.55658 
L 37.847537 252.720869 
L 36.026225 252.764733 
L 34.240625 252.682287 
L 34.240625 252.682287 
" clip-path="url(#pddde943696)" style="fill: none; stroke: #c6dbef; stroke-width: 1.5"/>
    <path d="M 317.841306 288.21825 
L 317.793905 288.095545 
L 316.83339 285.55713 
L 316.119758 282.89601 
L 315.972593 282.073435 
L 315.637564 280.23489 
L 315.374512 277.57377 
L 315.31755 274.91265 
L 315.45632 272.25153 
L 315.789322 269.59041 
L 315.972593 268.662017 
L 316.301925 266.92929 
L 317.138636 263.82465 
L 317.793905 261.966569 
L 318.072348 261.16353 
L 319.187226 258.50241 
L 319.579505 257.698586 
L 320.484238 255.84129 
L 321.365105 254.249205 
L 321.959118 253.18017 
L 323.150705 251.230835 
L 323.589197 250.51905 
L 324.972017 248.426256 
L 325.351337 247.85793 
L 326.757617 245.84786 
L 327.218473 245.19681 
L 328.543217 243.381259 
L 329.167798 242.53569 
L 330.328817 240.991938 
L 331.179396 239.87457 
L 332.150129 238.612795 
L 333.2404 237.21345 
L 333.935729 236.324157 
L 335.340617 234.55233 
L 335.721329 234.071866 
L 337.475239 231.89121 
L 337.506929 231.85165 
L 339.328241 229.590906 
L 339.622979 229.23009 
L 341.113841 227.393618 
L 341.794463 226.56897 
L 342.899441 225.218453 
L 343.99122 223.90785 
L 344.685041 223.061266 
L 346.506353 220.902325 
L 346.590779 220.80321 
L 348.291953 218.775014 
L 348.835628 218.14209 
L 350.077553 216.681716 
L 351.127684 215.48097 
L 351.863153 214.632016 
L 353.485285 212.81985 
L 353.684465 212.595542 
L 355.470065 210.633821 
L 355.918127 210.15873 
L 357.255665 208.728319 
L 358.464178 207.49761 
L 359.041265 206.903912 
L 360.862577 205.118431 
L 361.16313 204.83649 
L 362.648177 203.42697 
L 364.064444 202.17537 
L 364.433777 201.844275 
L 366.219377 200.331631 
L 367.264513 199.51425 
L 368.040689 198.897765 
L 369.826289 197.589914 
L 370.932789 196.85313 
L 371.611889 196.392226 
L 373.397489 195.292194 
L 375.218801 194.306863 
L 375.457201 194.19201 
L 377.004401 193.428302 
L 378.790001 192.674234 
L 380.575601 192.043874 
L 382.369137 191.53089 
L 382.396913 191.522662 
L 384.182513 191.110963 
L 385.968113 190.821746 
L 387.753713 190.654158 
L 389.575025 190.609834 
L 391.360625 190.694023 
" clip-path="url(#pddde943696)" style="fill: none; stroke: #c6dbef; stroke-width: 1.5"/>
    <path d="M 391.360625 278.317121 
L 389.755743 280.23489 
L 389.575025 280.450714 
L 387.753713 282.590483 
L 387.488376 282.89601 
L 385.968113 284.642184 
L 385.144994 285.55713 
L 384.182513 286.623484 
L 382.682683 288.21825 
" clip-path="url(#pddde943696)" style="fill: none; stroke: #c6dbef; stroke-width: 1.5"/>
    <path d="M 389.594982 22.10625 
L 389.832043 24.76737 
L 389.575025 28.149983 
L 389.24952 30.08961 
L 388.500152 32.75073 
L 387.471721 35.41185 
L 385.968113 38.515707 
L 384.182513 41.667338 
L 382.396913 44.493365 
L 379.15942 49.16097 
L 375.156634 54.48321 
L 368.040689 63.501649 
L 327.897971 113.47137 
L 321.800301 121.45473 
L 318.090803 126.77697 
L 315.972593 130.206168 
L 314.186993 133.480856 
L 312.401393 137.252257 
L 311.098046 140.52609 
L 309.310024 145.84833 
L 306.780029 153.83169 
L 304.771547 159.15393 
L 303.437681 162.090607 
L 301.616369 165.621252 
L 299.830769 168.690305 
L 297.407324 172.45953 
L 293.290385 178.22529 
L 289.081457 183.723614 
L 280.082033 195.02539 
L 272.276903 204.83649 
L 267.547121 211.132398 
L 264.533257 215.48097 
L 262.154609 219.353455 
L 260.369009 222.681045 
L 259.756039 223.90785 
L 258.547697 226.60473 
L 256.592801 231.89121 
L 252.269821 245.19681 
L 250.015016 250.51905 
L 247.798385 254.778162 
L 246.012785 257.803587 
L 243.83835 261.16353 
L 239.725915 266.92929 
L 235.227761 272.790103 
L 228.049649 281.635652 
L 222.657137 287.79886 
L 222.270059 288.21825 
L 222.270059 288.21825 
" clip-path="url(#pddde943696)" style="fill: none; stroke: #c6dbef; stroke-width: 1.5"/>
   </g>
   <g id="PathCollection_4">
    <path d="M 34.240625 174.991181 
L 36.026225 172.584534 
L 36.118931 172.45953 
L 37.847537 170.104737 
L 38.071945 169.79841 
L 39.633137 167.618955 
L 39.976245 167.13729 
L 41.418737 165.038248 
L 41.801111 164.47617 
L 43.204337 162.304629 
L 43.515847 161.81505 
L 45.025649 159.274802 
L 45.096042 159.15393 
L 46.515889 156.49281 
L 46.811249 155.883005 
L 47.777726 153.83169 
L 48.596849 151.901268 
L 48.898101 151.17057 
L 49.885011 148.50945 
L 50.382449 147.04622 
L 50.778327 145.84833 
L 51.60794 143.18721 
L 52.203761 141.253713 
L 52.423151 140.52609 
L 53.248977 137.86497 
L 53.989361 135.664697 
L 54.142662 135.20385 
L 55.293112 132.09921 
L 55.774961 130.956101 
L 56.41434 129.43809 
L 57.560561 127.032648 
L 57.682948 126.77697 
L 59.094395 124.11585 
L 59.381873 123.621659 
L 60.65455 121.45473 
L 61.167473 120.644462 
L 62.352608 118.79361 
L 62.953073 117.906849 
L 64.168839 116.13249 
L 64.738673 115.332938 
L 66.080345 113.47137 
L 66.559985 112.823519 
L 68.066631 110.81025 
L 68.345585 110.443467 
L 70.109521 108.14913 
L 70.131185 108.121208 
L 71.916785 105.831922 
L 72.187579 105.48801 
L 73.738097 103.528497 
L 74.298785 102.82689 
L 75.523697 101.294901 
L 76.435688 100.16577 
L 77.309297 99.081043 
L 78.591401 97.50465 
L 79.094897 96.881852 
L 80.757601 94.84353 
L 80.916209 94.647544 
L 82.701809 92.450971 
L 82.921191 92.18241 
L 84.487409 90.246382 
L 85.078189 89.52129 
L 86.273009 88.035251 
L 87.591117 86.41665 
L 88.094321 85.791455 
L 89.744442 83.75553 
L 89.879921 83.58705 
L 91.665521 81.374863 
L 91.892859 81.09441 
L 93.451121 79.160331 
L 94.040567 78.43329 
L 95.272433 76.905015 
L 96.191036 75.77217 
L 97.058033 74.694774 
L 98.339751 73.11105 
L 98.843633 72.482446 
L 100.480839 70.44993 
L 100.629233 70.263522 
L 102.450545 67.978619 
L 102.601839 67.78881 
L 104.236145 65.710702 
L 104.695269 65.12769 
L 106.021745 63.415724 
L 106.757171 62.46657 
L 107.807345 61.083486 
L 108.775593 59.80545 
L 109.628657 58.649899 
L 110.734501 57.14433 
L 111.414257 56.185571 
L 112.611019 54.48321 
L 113.199857 53.605158 
L 114.380226 51.82209 
L 114.985457 50.850254 
L 116.018839 49.16097 
L 116.806769 47.772663 
L 117.513577 46.49985 
L 118.592369 44.362963 
L 119.070207 43.39521 
L 120.259159 40.73409 
L 120.377969 40.444577 
L 121.328689 38.07297 
L 122.163569 35.876217 
L 122.336917 35.41185 
L 123.310191 32.75073 
L 123.984881 30.975288 
L 124.320602 30.08961 
L 125.418599 27.42849 
L 125.770481 26.671644 
L 126.675899 24.76737 
L 127.556081 23.179563 
L 128.176232 22.10625 
" clip-path="url(#pddde943696)" style="fill: none; stroke: #9dcae1; stroke-width: 1.5"/>
    <path d="M 133.551884 288.21825 
L 133.090332 285.55713 
L 133.071851 282.89601 
L 133.438919 280.23489 
L 134.148906 277.57377 
L 135.1577 274.91265 
L 136.519793 272.075383 
L 138.341105 268.861978 
L 140.126705 266.044847 
L 143.697905 260.937702 
L 149.090417 253.872592 
L 158.136329 242.53569 
L 174.231665 222.549716 
L 193.944689 198.136582 
L 199.017365 191.53089 
L 202.774861 186.20865 
L 204.729713 183.125327 
L 206.515313 179.987537 
L 208.300913 176.368969 
L 208.868505 175.12065 
L 210.122225 171.973946 
L 211.907825 166.68727 
L 214.24176 159.15393 
L 216.173401 153.83169 
L 217.324914 151.17057 
L 219.085937 147.619468 
L 220.871537 144.455128 
L 223.351106 140.52609 
L 227.109212 135.20385 
L 231.656561 129.238903 
L 238.834673 120.242595 
L 262.154609 91.450687 
L 311.863041 30.08961 
L 315.972593 25.520817 
L 319.324288 22.10625 
L 319.324288 22.10625 
" clip-path="url(#pddde943696)" style="fill: none; stroke: #9dcae1; stroke-width: 1.5"/>
    <path d="M 202.763887 22.10625 
L 203.227931 24.76737 
L 203.246244 27.42849 
L 202.872833 30.08961 
L 202.165264 32.75073 
L 201.122801 35.467388 
L 199.337201 39.066471 
L 197.551601 42.123008 
L 195.766001 44.875413 
L 192.747636 49.16097 
L 188.587889 54.610844 
L 179.588465 65.844624 
L 161.661041 88.121177 
L 156.268529 95.089205 
L 152.592049 100.16577 
L 149.153081 105.48801 
L 147.304817 108.825216 
L 145.519217 112.558606 
L 144.068031 116.13249 
L 142.274074 121.45473 
L 138.858506 132.09921 
L 137.637509 135.20385 
L 136.44024 137.86497 
L 134.734193 141.195411 
L 132.948593 144.287085 
L 130.227036 148.50945 
L 126.409535 153.83169 
L 122.163569 159.366433 
L 113.801504 169.79841 
L 77.309297 214.724551 
L 70.131185 223.043665 
L 66.559985 226.918099 
L 62.953073 230.572734 
L 59.381873 233.850543 
L 55.774961 236.771877 
L 52.203761 239.235734 
L 48.596849 241.24447 
L 45.493656 242.53569 
L 45.025649 242.712359 
L 43.204337 243.254641 
L 41.418737 243.639126 
L 39.633137 243.873335 
L 37.847537 243.95007 
L 36.026225 243.855705 
L 34.240625 243.580572 
L 34.240625 243.580572 
" clip-path="url(#pddde943696)" style="fill: none; stroke: #9dcae1; stroke-width: 1.5"/>
    <path d="M 326.187419 288.21825 
L 324.972017 285.956566 
L 324.771257 285.55713 
L 323.761333 282.89601 
L 323.150705 280.495297 
L 323.086143 280.23489 
L 322.692358 277.57377 
L 322.555822 274.91265 
L 322.656998 272.25153 
L 322.986297 269.59041 
L 323.150705 268.796042 
L 323.531147 266.92929 
L 324.440271 263.82465 
L 324.972017 262.425195 
L 325.450923 261.16353 
L 326.667825 258.50241 
L 326.757617 258.330719 
L 328.068854 255.84129 
L 328.543217 255.034643 
L 329.644318 253.18017 
L 330.328817 252.116401 
L 331.367275 250.51905 
L 332.150129 249.381998 
L 333.210186 247.85793 
L 333.935729 246.854011 
L 335.145506 245.19681 
L 335.721329 244.427501 
L 337.151261 242.53569 
L 337.506929 242.07253 
L 339.211152 239.87457 
L 339.328241 239.725122 
L 341.113841 237.461477 
L 341.311047 237.21345 
L 342.899441 235.22833 
L 343.446355 234.55233 
L 344.685041 233.026112 
L 345.61747 231.89121 
L 346.506353 230.810269 
L 347.823978 229.23009 
L 348.291953 228.667579 
L 350.066572 226.56897 
L 350.077553 226.555929 
L 351.863153 224.458528 
L 352.341327 223.90785 
L 353.684465 222.351659 
L 355.062855 220.80321 
L 355.470065 220.342688 
L 357.255665 218.376557 
L 357.47426 218.14209 
L 359.041265 216.458281 
L 359.98789 215.48097 
L 360.862577 214.576835 
L 362.645877 212.81985 
L 362.648177 212.817578 
L 364.433777 211.123679 
L 365.51624 210.15873 
L 366.219377 209.529729 
L 368.040689 208.003347 
L 368.688716 207.49761 
L 369.826289 206.604956 
L 371.611889 205.320548 
L 372.34971 204.83649 
L 373.397489 204.143685 
L 375.218801 203.067298 
L 376.940039 202.17537 
L 377.004401 202.141674 
L 378.790001 201.334478 
L 380.575601 200.665701 
L 382.396913 200.12694 
L 384.182513 199.742658 
L 385.912165 199.51425 
L 385.968113 199.506761 
L 387.753713 199.428346 
L 389.450782 199.51425 
L 389.575025 199.520753 
L 391.360625 199.796974 
" clip-path="url(#pddde943696)" style="fill: none; stroke: #9dcae1; stroke-width: 1.5"/>
    <path d="M 381.14922 22.10625 
L 381.632925 24.76737 
L 381.661868 27.42849 
L 381.295538 30.08961 
L 380.575601 32.756977 
L 379.570165 35.41185 
L 378.299965 38.07297 
L 376.815542 40.73409 
L 375.159503 43.39521 
L 371.149683 49.16097 
L 366.219377 55.623961 
L 355.470065 69.096819 
L 319.579505 113.845683 
L 315.833725 118.79361 
L 312.095428 124.11585 
L 310.394575 126.77697 
L 308.794481 129.515858 
L 307.008881 133.023437 
L 305.223281 137.14081 
L 303.986308 140.52609 
L 302.299186 145.84833 
L 299.719055 153.83169 
L 298.045169 158.030972 
L 297.5615 159.15393 
L 296.259569 161.829923 
L 294.438257 165.145395 
L 292.652657 168.067606 
L 289.6962 172.45953 
L 285.433189 178.22529 
L 279.171384 186.20865 
L 263.940209 205.310229 
L 260.36451 210.15873 
L 256.832233 215.48097 
L 254.976497 218.702312 
L 253.190897 222.272949 
L 252.445756 223.90785 
L 251.365401 226.56897 
L 249.54445 231.89121 
L 247.072902 239.87457 
L 245.141365 245.19681 
L 243.992284 247.85793 
L 242.405873 251.079085 
L 240.620273 254.279729 
L 237.969626 258.50241 
L 234.216243 263.82465 
L 229.821456 269.59041 
L 224.478449 276.250023 
L 220.871537 280.514963 
L 216.32853 285.55713 
L 213.715943 288.21825 
L 213.715943 288.21825 
" clip-path="url(#pddde943696)" style="fill: none; stroke: #9dcae1; stroke-width: 1.5"/>
    <path d="M 391.360625 268.188646 
L 390.267658 269.59041 
L 389.575025 270.467348 
L 388.148304 272.25153 
L 387.753713 272.73965 
L 385.97086 274.91265 
L 385.968113 274.915968 
L 384.182513 277.050936 
L 383.736846 277.57377 
L 382.396913 279.128632 
L 381.420245 280.23489 
L 380.575601 281.179802 
L 378.992844 282.89601 
L 378.790001 283.113061 
L 377.004401 284.969396 
L 376.416259 285.55713 
L 375.218801 286.731554 
L 373.614227 288.21825 
" clip-path="url(#pddde943696)" style="fill: none; stroke: #9dcae1; stroke-width: 1.5"/>
   </g>
   <g id="PathCollection_5">
    <path d="M 34.240625 184.70119 
L 35.029386 183.54753 
L 36.026225 182.144297 
L 36.924504 180.88641 
L 37.847537 179.622896 
L 38.871097 178.22529 
L 39.633137 177.194866 
L 41.167483 175.12065 
L 41.418737 174.780009 
L 43.125205 172.45953 
L 43.204337 172.350324 
L 45.025649 169.821453 
L 45.042122 169.79841 
L 46.811249 167.247889 
L 46.887126 167.13729 
L 48.596849 164.526614 
L 48.629409 164.47617 
L 50.240809 161.81505 
L 50.382449 161.56175 
L 51.702 159.15393 
L 52.203761 158.144065 
L 53.00673 156.49281 
L 53.989361 154.234051 
L 54.160786 153.83169 
L 55.176969 151.17057 
L 55.774961 149.433496 
L 56.087552 148.50945 
L 56.921581 145.84833 
L 57.560561 143.729376 
L 57.72239 143.18721 
L 58.523837 140.52609 
L 59.3732 137.86497 
L 59.381873 137.840007 
L 60.29874 135.20385 
L 61.167473 132.999815 
L 61.525897 132.09921 
L 62.727069 129.43809 
L 62.953073 128.989182 
L 64.080121 126.77697 
L 64.738673 125.606704 
L 65.588881 124.11585 
L 66.559985 122.545851 
L 67.243961 121.45473 
L 68.345585 119.802991 
L 69.027262 118.79361 
L 70.131185 117.231346 
L 70.91637 116.13249 
L 71.916785 114.775983 
L 72.888449 113.47137 
L 73.738097 112.354961 
L 74.924294 110.81025 
L 75.523697 110.040481 
L 77.00922 108.14913 
L 77.309297 107.770381 
L 79.094897 105.53503 
L 79.13268 105.48801 
L 80.916209 103.279209 
L 81.284231 102.82689 
L 82.701809 101.086332 
L 83.456889 100.16577 
L 84.487409 98.906226 
L 85.64136 97.50465 
L 86.273009 96.733194 
L 87.828464 94.84353 
L 88.094321 94.518157 
L 89.879921 92.341708 
L 90.010972 92.18241 
L 91.665521 90.155472 
L 92.184751 89.52129 
L 93.451121 87.96252 
L 94.711552 86.41665 
L 95.272433 85.724806 
L 96.873507 83.75553 
L 97.058033 83.527731 
L 98.843633 81.328991 
L 99.034365 81.09441 
L 100.629233 79.128283 
L 101.193591 78.43329 
L 102.450545 76.88053 
L 103.348073 75.77217 
L 104.236145 74.670189 
L 105.492086 73.11105 
L 106.021745 72.448948 
L 107.618878 70.44993 
L 107.807345 70.211862 
L 109.628657 67.906483 
L 109.721295 67.78881 
L 111.414257 65.614158 
L 111.791254 65.12769 
L 113.199857 63.282562 
L 113.819209 62.46657 
L 114.985457 60.897463 
L 115.790934 59.80545 
L 116.806769 58.386253 
L 117.68671 57.14433 
L 118.592369 55.81115 
L 119.482736 54.48321 
L 120.377969 53.069794 
L 121.15573 51.82209 
L 122.163569 50.083085 
L 122.688428 49.16097 
L 123.984881 46.675106 
L 124.074612 46.49985 
L 125.513762 43.39521 
L 125.770481 42.78534 
L 126.62128 40.73409 
L 127.556081 38.320062 
L 127.651004 38.07297 
L 128.644361 35.41185 
L 129.341681 33.582738 
L 129.661504 32.75073 
L 130.764129 30.08961 
L 131.162993 29.233117 
L 132.031049 27.42849 
L 132.948593 25.792306 
L 133.55332 24.76737 
L 134.734193 23.067082 
L 135.450775 22.10625 
" clip-path="url(#pddde943696)" style="fill: none; stroke: #6aaed6; stroke-width: 1.5"/>
    <path d="M 141.387527 288.21825 
L 140.545781 285.55713 
L 140.282209 282.89601 
L 140.497134 280.23489 
L 141.112183 277.57377 
L 142.065079 274.91265 
L 143.697905 271.520416 
L 145.519217 268.351476 
L 147.304817 265.579553 
L 150.401732 261.16353 
L 154.482929 255.797274 
L 165.032188 242.53569 
L 180.081456 223.90785 
L 193.944689 206.930697 
L 201.122801 197.986227 
L 204.729713 193.246416 
L 207.845349 188.86977 
L 210.122225 185.325754 
L 211.907825 182.225979 
L 213.693425 178.68249 
L 213.910104 178.22529 
L 215.479025 174.413487 
L 217.075716 169.79841 
L 220.871537 157.77515 
L 221.336213 156.49281 
L 222.657137 153.311987 
L 224.478449 149.555577 
L 226.264049 146.355738 
L 228.237895 143.18721 
L 231.944814 137.86497 
L 237.013361 131.21267 
L 244.191473 122.302446 
L 262.264117 100.16577 
L 284.090043 73.11105 
L 314.186993 35.937285 
L 317.793905 31.777877 
L 321.853757 27.42849 
L 324.972017 24.420874 
L 327.662992 22.10625 
L 327.662992 22.10625 
" clip-path="url(#pddde943696)" style="fill: none; stroke: #6aaed6; stroke-width: 1.5"/>
    <path d="M 194.917029 22.10625 
L 195.766001 24.808749 
L 196.022248 27.42849 
L 195.766001 30.252459 
L 195.184343 32.75073 
L 193.944689 36.011146 
L 192.985256 38.07297 
L 190.373489 42.562533 
L 188.587889 45.253265 
L 185.793706 49.16097 
L 181.409777 54.817647 
L 168.74039 70.44993 
L 154.482929 88.194308 
L 149.432345 94.84353 
L 145.714251 100.16577 
L 143.697905 103.387945 
L 141.912305 106.576834 
L 140.126705 110.248722 
L 139.871643 110.81025 
L 138.341105 114.702358 
L 136.962134 118.79361 
L 133.650655 129.43809 
L 132.669078 132.09921 
L 131.162993 135.629686 
L 129.341681 139.263652 
L 127.556081 142.384487 
L 125.351887 145.84833 
L 121.579542 151.17057 
L 116.806769 157.389594 
L 109.628657 166.281819 
L 91.665521 188.285139 
L 73.738097 210.210943 
L 68.345585 216.389079 
L 64.221396 220.80321 
L 61.093917 223.90785 
L 57.560561 227.07253 
L 53.989361 229.834351 
L 50.382449 232.11703 
L 48.596849 233.035018 
L 46.811249 233.806747 
L 44.506187 234.55233 
L 43.204337 234.8734 
L 41.418737 235.127356 
L 39.633137 235.182548 
L 37.847537 235.018085 
L 35.90566 234.55233 
L 34.240625 233.864527 
L 34.240625 233.864527 
" clip-path="url(#pddde943696)" style="fill: none; stroke: #6aaed6; stroke-width: 1.5"/>
    <path d="M 335.032869 288.21825 
L 333.935729 287.068542 
L 332.69505 285.55713 
L 332.150129 284.698027 
L 331.130816 282.89601 
L 330.328817 280.881243 
L 330.091767 280.23489 
L 329.470894 277.57377 
L 329.188048 274.91265 
L 329.205954 272.25153 
L 329.499316 269.59041 
L 330.051592 266.92929 
L 330.328817 266.026959 
L 331.010556 263.82465 
L 332.084848 261.16353 
L 332.150129 261.027804 
L 333.378716 258.50241 
L 333.935729 257.500066 
L 334.86876 255.84129 
L 335.721329 254.466124 
L 336.527675 253.18017 
L 337.506929 251.723582 
L 338.324732 250.51905 
L 339.328241 249.111599 
L 340.229487 247.85793 
L 341.113841 246.668672 
L 342.216191 245.19681 
L 342.899441 244.305905 
L 344.266372 242.53569 
L 344.685041 242.002746 
L 346.369231 239.87457 
L 346.506353 239.703553 
L 348.291953 237.49423 
L 348.520691 237.21345 
L 350.077553 235.323827 
L 350.719776 234.55233 
L 351.863153 233.190444 
L 352.968219 231.89121 
L 353.684465 231.054156 
L 355.270915 229.23009 
L 355.470065 229.001969 
L 357.255665 226.995905 
L 357.644133 226.56897 
L 359.041265 225.040379 
L 360.106662 223.90785 
L 360.862577 223.107392 
L 362.648177 221.285236 
L 363.139546 220.80321 
L 364.433777 219.54195 
L 365.94482 218.14209 
L 366.219377 217.889169 
L 368.040689 216.309294 
L 369.064592 215.48097 
L 369.826289 214.868451 
L 371.611889 213.547332 
L 372.693696 212.81985 
L 373.397489 212.348709 
L 375.218801 211.266496 
L 377.004401 210.342589 
L 377.429646 210.15873 
L 378.790001 209.572174 
L 380.575601 208.961757 
L 382.396913 208.51215 
L 384.182513 208.255401 
L 385.968113 208.199459 
L 387.753713 208.36759 
L 389.575025 208.799723 
L 391.360625 209.514536 
" clip-path="url(#pddde943696)" style="fill: none; stroke: #6aaed6; stroke-width: 1.5"/>
    <path d="M 372.95057 22.10625 
L 373.885998 24.76737 
L 374.196943 27.42849 
L 374.006297 30.08961 
L 373.397489 32.756572 
L 372.442947 35.41185 
L 371.201825 38.07297 
L 369.729338 40.73409 
L 368.040689 43.442133 
L 364.033 49.16097 
L 359.041265 55.655444 
L 348.291953 69.121583 
L 312.401393 113.984749 
L 308.794481 118.878209 
L 305.223281 124.205809 
L 303.437681 127.229731 
L 301.616369 130.738872 
L 300.968917 132.09921 
L 299.663756 135.20385 
L 297.804717 140.52609 
L 294.438257 151.358342 
L 292.652657 156.025485 
L 292.460873 156.49281 
L 290.867057 159.871696 
L 289.081457 163.168165 
L 287.260145 166.168821 
L 284.841794 169.79841 
L 280.953598 175.12065 
L 276.464209 180.88641 
L 267.547121 191.871199 
L 260.369009 200.813397 
L 256.762097 205.539414 
L 253.190897 210.576842 
L 251.369585 213.407526 
L 249.583985 216.473966 
L 247.798385 219.972471 
L 247.403653 220.80321 
L 246.012785 224.133831 
L 244.191473 229.375749 
L 240.620273 240.762838 
L 239.97944 242.53569 
L 238.834673 245.330778 
L 237.013361 249.139955 
L 235.227761 252.381589 
L 233.091009 255.84129 
L 229.39879 261.16353 
L 224.478449 267.649505 
L 219.085937 274.323702 
L 215.479025 278.536939 
L 211.472295 282.89601 
L 208.300913 286.025526 
L 205.842626 288.21825 
L 205.842626 288.21825 
" clip-path="url(#pddde943696)" style="fill: none; stroke: #6aaed6; stroke-width: 1.5"/>
    <path d="M 391.360625 258.643682 
L 389.575025 261.163078 
L 389.574702 261.16353 
L 387.753713 263.619089 
L 387.600073 263.82465 
L 385.968113 265.94625 
L 385.205389 266.92929 
L 384.182513 268.217977 
L 383.082765 269.59041 
L 382.396913 270.430528 
L 380.891943 272.25153 
L 380.575601 272.62738 
L 378.790001 274.715945 
L 378.619135 274.91265 
L 377.004401 276.731393 
L 376.238742 277.57377 
L 375.218801 278.669836 
L 373.715034 280.23489 
L 373.397489 280.556854 
L 371.611889 282.299041 
L 370.971965 282.89601 
L 369.826289 283.929881 
L 368.040689 285.444781 
L 367.899859 285.55713 
L 366.219377 286.844914 
L 364.433777 288.094923 
L 364.241252 288.21825 
" clip-path="url(#pddde943696)" style="fill: none; stroke: #6aaed6; stroke-width: 1.5"/>
   </g>
   <g id="PathCollection_6">
    <path d="M 34.240625 196.551045 
L 35.346685 194.19201 
L 36.026225 192.926984 
L 36.788336 191.53089 
L 37.847537 189.776831 
L 38.401963 188.86977 
L 39.633137 186.997897 
L 40.156071 186.20865 
L 41.418737 184.397096 
L 42.012708 183.54753 
L 43.204337 181.898075 
L 43.934947 180.88641 
L 45.025649 179.40275 
L 45.888138 178.22529 
L 46.811249 176.975945 
L 48.164415 175.12065 
L 48.596849 174.524817 
L 50.081581 172.45953 
L 50.382449 172.031818 
L 51.934891 169.79841 
L 52.203761 169.396236 
L 53.692132 167.13729 
L 53.989361 166.65951 
L 55.324894 164.47617 
L 55.774961 163.680163 
L 56.81079 161.81505 
L 57.560561 160.322579 
L 58.137695 159.15393 
L 59.305346 156.49281 
L 59.381873 156.298297 
L 60.339508 153.83169 
L 61.167473 151.410449 
L 61.248828 151.17057 
L 62.079154 148.50945 
L 62.85339 145.84833 
L 62.953073 145.503147 
L 63.62413 143.18721 
L 64.42019 140.52609 
L 64.738673 139.542721 
L 65.288516 137.86497 
L 66.257724 135.20385 
L 66.559985 134.474436 
L 67.561167 132.09921 
L 68.345585 130.459536 
L 68.843304 129.43809 
L 70.131185 127.057646 
L 70.285845 126.77697 
L 71.88626 124.11585 
L 71.916785 124.068605 
L 73.630367 121.45473 
L 73.738097 121.299086 
L 75.493863 118.79361 
L 75.523697 118.752683 
L 77.309297 116.329263 
L 77.455764 116.13249 
L 79.094897 113.988948 
L 79.494221 113.47137 
L 80.916209 111.662551 
L 81.591689 110.81025 
L 82.701809 109.427864 
L 83.736402 108.14913 
L 84.487409 107.228832 
L 85.918031 105.48801 
L 86.273009 105.057959 
L 88.094321 102.866373 
L 88.127435 102.82689 
L 89.879921 100.736843 
L 90.361035 100.16577 
L 91.665521 98.611129 
L 92.596951 97.50465 
L 93.451121 96.483126 
L 94.82488 94.84353 
L 95.272433 94.305003 
L 97.037833 92.18241 
L 97.058033 92.157951 
L 98.843633 90.006937 
L 99.246275 89.52129 
L 100.629233 87.848764 
L 101.80463 86.41665 
L 102.450545 85.629524 
L 103.984693 83.75553 
L 104.236145 83.44834 
L 106.021745 81.264717 
L 106.16088 81.09441 
L 107.807345 79.080965 
L 108.333962 78.43329 
L 109.628657 76.839771 
L 110.490333 75.77217 
L 111.414257 74.625293 
L 112.624801 73.11105 
L 113.199857 72.388836 
L 114.731 70.44993 
L 114.985457 70.125622 
L 116.80343 67.78881 
L 116.806769 67.784473 
L 118.592369 65.45518 
L 118.840604 65.12769 
L 120.377969 63.068315 
L 120.821687 62.46657 
L 122.163569 60.602087 
L 122.729295 59.80545 
L 123.984881 57.969173 
L 124.540481 57.14433 
L 125.770481 55.218767 
L 126.232626 54.48321 
L 127.556081 52.221542 
L 127.785939 51.82209 
L 129.193623 49.16097 
L 129.341681 48.854491 
L 130.464088 46.49985 
L 131.162993 44.870781 
L 131.787857 43.39521 
L 132.82411 40.73409 
L 132.948593 40.402381 
L 133.828183 38.07297 
L 134.734193 35.687062 
L 134.840662 35.41185 
L 135.946326 32.75073 
L 136.519793 31.523271 
L 137.219293 30.08961 
L 138.341105 28.126818 
L 138.765668 27.42849 
L 140.126705 25.548015 
L 140.739797 24.76737 
L 141.912305 23.509129 
L 143.362429 22.10625 
" clip-path="url(#pddde943696)" style="fill: none; stroke: #4191c6; stroke-width: 1.5"/>
    <path d="M 149.897714 288.21825 
L 148.334151 285.55713 
L 147.623527 282.89601 
L 147.554467 280.23489 
L 147.990149 277.57377 
L 149.090417 274.303638 
L 149.98285 272.25153 
L 151.397008 269.59041 
L 153.013284 266.92929 
L 157.010093 261.16353 
L 161.661041 255.080078 
L 171.644594 242.53569 
L 184.980977 226.104613 
L 195.984391 212.81985 
L 204.803142 202.17537 
L 210.122225 195.339247 
L 212.862651 191.53089 
L 215.479025 187.497829 
L 217.300337 184.336146 
L 217.730432 183.54753 
L 219.085937 180.770042 
L 220.871537 176.423938 
L 222.237225 172.45953 
L 226.299805 159.15393 
L 228.049649 154.785167 
L 228.467119 153.83169 
L 229.835249 151.058193 
L 231.656561 147.831761 
L 233.442161 144.983998 
L 236.521046 140.52609 
L 240.620273 135.103418 
L 247.357271 126.77697 
L 274.725233 93.617098 
L 312.698496 46.49985 
L 319.676794 38.07297 
L 324.464908 32.75073 
L 327.095557 30.08961 
L 330.328817 27.161702 
L 333.935729 24.401254 
L 337.689754 22.10625 
L 337.689754 22.10625 
" clip-path="url(#pddde943696)" style="fill: none; stroke: #4191c6; stroke-width: 1.5"/>
    <path d="M 186.35724 22.10625 
L 186.766577 22.734868 
L 187.927169 24.76737 
L 188.642518 27.42849 
L 188.704203 30.08961 
L 188.257268 32.75073 
L 187.403854 35.41185 
L 186.222339 38.07297 
L 184.777166 40.73409 
L 183.118642 43.39521 
L 179.588465 48.357916 
L 176.913924 51.82209 
L 170.400727 59.80545 
L 155.123996 78.43329 
L 148.777618 86.41665 
L 143.697905 93.151502 
L 140.660276 97.50465 
L 138.341105 101.196938 
L 136.519793 104.459053 
L 135.981445 105.48801 
L 134.734193 108.154809 
L 132.948593 112.68898 
L 131.799587 116.13249 
L 127.716749 129.43809 
L 126.680085 132.09921 
L 125.291354 135.20385 
L 123.930584 137.86497 
L 122.163569 140.915242 
L 118.923212 145.84833 
L 114.985457 151.200592 
L 109.628657 157.955179 
L 101.994681 167.13729 
L 89.879921 181.730667 
L 70.131185 205.718793 
L 66.190882 210.15873 
L 62.953073 213.572137 
L 59.381873 217.018914 
L 55.774961 220.073355 
L 53.989361 221.391542 
L 52.203761 222.553829 
L 49.730638 223.90785 
L 48.596849 224.431722 
L 46.811249 225.067598 
L 45.025649 225.498687 
L 43.204337 225.694844 
L 41.418737 225.60791 
L 39.633137 225.194397 
L 37.847537 224.392615 
L 37.136066 223.90785 
L 36.026225 222.977049 
L 34.240625 220.838185 
L 34.240625 220.838185 
" clip-path="url(#pddde943696)" style="fill: none; stroke: #4191c6; stroke-width: 1.5"/>
    <path d="M 362.964713 22.10625 
L 364.433777 23.786614 
L 365.138823 24.76737 
L 366.13275 27.42849 
L 366.335235 30.08961 
L 365.964313 32.75073 
L 365.151566 35.41185 
L 363.999192 38.07297 
L 362.579697 40.73409 
L 360.862577 43.51678 
L 356.902926 49.16097 
L 350.713918 57.14433 
L 326.757617 86.975668 
L 307.008881 111.807324 
L 303.437681 116.672748 
L 300.2132 121.45473 
L 298.045169 125.111869 
L 296.259569 128.560968 
L 295.835662 129.43809 
L 294.438257 132.759276 
L 293.522053 135.20385 
L 291.835357 140.52609 
L 289.081457 149.689831 
L 287.567609 153.83169 
L 286.413274 156.49281 
L 285.104997 159.15393 
L 283.635918 161.81505 
L 281.903345 164.637943 
L 278.296433 169.888349 
L 274.337703 175.12065 
L 269.332721 181.359852 
L 252.32486 202.17537 
L 248.451116 207.49761 
L 246.012785 211.239762 
L 244.191473 214.366469 
L 243.582011 215.48097 
L 242.277638 218.14209 
L 240.620273 222.130237 
L 239.077474 226.56897 
L 235.015959 239.87457 
L 233.442161 243.848388 
L 232.854636 245.19681 
L 231.55226 247.85793 
L 229.835249 250.938967 
L 228.049649 253.824952 
L 224.856156 258.50241 
L 220.871537 263.843146 
L 215.479025 270.596801 
L 211.82405 274.91265 
L 208.300913 278.783158 
L 204.729713 282.358675 
L 202.944113 283.976211 
L 201.078956 285.55713 
L 197.450536 288.21825 
L 197.450536 288.21825 
" clip-path="url(#pddde943696)" style="fill: none; stroke: #4191c6; stroke-width: 1.5"/>
    <path d="M 391.360625 246.780657 
L 390.896957 247.85793 
L 389.575025 250.482019 
L 389.556018 250.51905 
L 388.011361 253.18017 
L 387.753713 253.585876 
L 386.304232 255.84129 
L 385.968113 256.330623 
L 384.463521 258.50241 
L 384.182513 258.888557 
L 382.516338 261.16353 
L 382.396913 261.320581 
L 380.575601 263.69798 
L 380.477855 263.82465 
L 378.790001 265.930321 
L 377.988676 266.92929 
L 377.004401 268.113496 
L 375.764576 269.59041 
L 375.218801 270.220832 
L 373.433291 272.25153 
L 373.397489 272.290962 
L 371.611889 274.200359 
L 370.928588 274.91265 
L 369.826289 276.016137 
L 368.213363 277.57377 
L 368.040689 277.733406 
L 366.219377 279.322591 
L 365.10937 280.23489 
L 364.433777 280.76124 
L 362.648177 282.038972 
L 361.330032 282.89601 
L 360.862577 283.181732 
L 359.041265 284.154614 
L 357.255665 284.967905 
L 355.671748 285.55713 
L 355.470065 285.627024 
L 353.684465 286.086254 
L 351.863153 286.385745 
L 350.077553 286.503247 
L 348.291953 286.433683 
L 346.506353 286.161952 
L 344.685041 285.657952 
L 344.433417 285.55713 
L 342.899441 284.816845 
L 341.113841 283.63428 
L 340.239983 282.89601 
L 339.328241 281.885267 
L 338.118143 280.23489 
L 337.506929 279.006917 
L 336.895983 277.57377 
L 336.257369 274.91265 
L 336.061182 272.25153 
L 336.242509 269.59041 
L 336.75071 266.92929 
L 337.506929 264.477053 
L 337.711592 263.82465 
L 338.833475 261.16353 
L 339.328241 260.183513 
L 340.1914 258.50241 
L 341.113841 256.920105 
L 341.751298 255.84129 
L 342.899441 254.067348 
L 343.479401 253.18017 
L 344.685041 251.451999 
L 345.340621 250.51905 
L 346.506353 248.935071 
L 347.30308 247.85793 
L 348.291953 246.566866 
L 349.345381 245.19681 
L 350.077553 244.270481 
L 351.454725 242.53569 
L 351.863153 242.033002 
L 353.628111 239.87457 
L 353.684465 239.807003 
L 355.470065 237.697654 
L 355.884179 237.21345 
L 357.255665 235.642484 
L 358.220514 234.55233 
L 359.041265 233.641498 
L 360.649617 231.89121 
L 360.862577 231.662929 
L 362.648177 229.81204 
L 363.228504 229.23009 
L 364.433777 228.041867 
L 365.987944 226.56897 
L 366.219377 226.353069 
L 368.040689 224.759075 
L 369.07819 223.90785 
L 369.826289 223.307106 
L 371.611889 221.997578 
L 373.397489 220.804611 
L 373.399936 220.80321 
L 375.218801 219.789134 
L 377.004401 218.953855 
L 378.790001 218.29797 
L 379.428013 218.14209 
L 380.575601 217.868128 
L 382.396913 217.6773 
L 384.182513 217.760001 
L 385.915002 218.14209 
L 385.968113 218.155667 
L 387.753713 218.998979 
L 389.575025 220.375204 
L 389.98917 220.80321 
L 391.360625 222.616932 
" clip-path="url(#pddde943696)" style="fill: none; stroke: #4191c6; stroke-width: 1.5"/>
   </g>
   <g id="PathCollection_7">
    <path d="M 161.71359 288.21825 
L 161.661041 288.191561 
L 159.875441 287.090712 
L 157.921716 285.55713 
L 156.13953 282.89601 
L 155.464877 280.23489 
L 155.517552 277.57377 
L 156.268529 274.483355 
L 157.114865 272.25153 
L 158.430197 269.59041 
L 159.986075 266.92929 
L 163.940245 261.16353 
L 168.839153 254.756956 
L 176.426805 245.19681 
L 187.271174 231.89121 
L 196.616205 220.80321 
L 204.729713 211.570023 
L 210.580211 204.83649 
L 214.92536 199.51425 
L 217.300337 196.375487 
L 220.634921 191.53089 
L 222.657137 188.134307 
L 224.478449 184.575161 
L 224.961951 183.54753 
L 226.264049 180.318336 
L 227.021667 178.22529 
L 228.730242 172.45953 
L 230.86186 164.47617 
L 231.661371 161.81505 
L 233.442161 157.011517 
L 233.653025 156.49281 
L 235.227761 153.164056 
L 237.013361 149.923776 
L 238.834673 146.992318 
L 241.451703 143.18721 
L 245.504401 137.86497 
L 250.252628 132.09921 
L 257.216914 124.11585 
L 267.547121 112.332474 
L 276.510833 101.657556 
L 289.081457 86.110465 
L 321.087952 46.49985 
L 326.757617 39.906146 
L 328.543217 37.948131 
L 332.150129 34.429264 
L 334.028725 32.75073 
L 337.633502 30.08961 
L 341.113841 28.210538 
L 342.899441 27.427021 
L 344.685041 26.921213 
L 346.506353 26.579046 
L 348.291953 26.44083 
L 350.077553 26.533096 
L 351.863153 26.902009 
L 353.684465 27.728452 
L 355.470065 29.564152 
L 355.82487 30.08961 
L 356.430804 32.75073 
L 356.151529 35.41185 
L 355.315488 38.07297 
L 353.684465 41.377023 
L 351.863153 44.369563 
L 350.077553 47.042319 
L 346.506353 51.888314 
L 337.506929 63.253586 
L 329.589997 73.11105 
L 319.579505 85.531469 
L 309.959784 97.50465 
L 303.645609 105.48801 
L 299.615845 110.81025 
L 295.859589 116.13249 
L 294.14803 118.79361 
L 292.580319 121.45473 
L 290.867057 124.721616 
L 289.897848 126.77697 
L 288.811768 129.43809 
L 287.260145 134.015239 
L 286.150145 137.86497 
L 283.688945 146.961143 
L 282.290059 151.17057 
L 281.22234 153.83169 
L 280.003829 156.49281 
L 278.296433 159.676109 
L 276.510833 162.618483 
L 273.431267 167.13729 
L 269.332721 172.525157 
L 263.940209 179.037245 
L 256.762097 187.249269 
L 249.583985 195.562876 
L 246.012785 200.005634 
L 242.405873 204.912027 
L 240.620273 207.600327 
L 238.834673 210.576084 
L 237.013361 214.076554 
L 236.349249 215.48097 
L 234.291913 220.80321 
L 232.583899 226.56897 
L 230.458027 234.55233 
L 229.656176 237.21345 
L 228.049649 241.610605 
L 227.676648 242.53569 
L 226.264049 245.583304 
L 224.478449 248.887641 
L 222.657137 251.882144 
L 219.999847 255.84129 
L 215.479025 261.931664 
L 211.515085 266.92929 
L 206.515313 272.789909 
L 202.944113 276.590661 
L 201.122801 278.377329 
L 199.09764 280.23489 
L 195.766001 282.909867 
L 191.669679 285.55713 
L 188.587889 287.098164 
L 185.872192 288.21825 
L 185.872192 288.21825 
" clip-path="url(#pddde943696)" style="fill: none; stroke: #2070b4; stroke-width: 1.5"/>
    <path d="M 173.947273 22.10625 
L 174.231665 22.235165 
L 176.017265 23.250425 
L 178.066957 24.76737 
L 179.91915 27.42849 
L 180.61024 30.08961 
L 180.540731 32.75073 
L 179.914346 35.41185 
L 178.845187 38.07297 
L 177.446729 40.73409 
L 175.778425 43.39521 
L 172.410353 47.98083 
L 168.839153 52.378088 
L 161.661041 60.716459 
L 152.697329 71.278466 
L 143.697905 82.348288 
L 140.126705 86.997952 
L 136.374671 92.18241 
L 132.948593 97.444012 
L 131.381726 100.16577 
L 129.341681 104.306845 
L 128.814789 105.48801 
L 127.556081 108.791067 
L 126.861001 110.81025 
L 125.329946 116.13249 
L 123.186305 124.11585 
L 122.163569 127.356773 
L 121.415732 129.43809 
L 120.334953 132.09921 
L 118.592369 135.680737 
L 116.806769 138.827724 
L 114.985457 141.698493 
L 112.077789 145.84833 
L 107.807345 151.371266 
L 102.450545 157.772223 
L 95.272433 165.932825 
L 87.224132 175.12065 
L 80.099167 183.54753 
L 64.738673 201.720675 
L 61.75715 204.83649 
L 58.946916 207.49761 
L 55.703827 210.15873 
L 53.989361 211.295403 
L 52.203761 212.334597 
L 50.382449 213.148643 
L 48.596849 213.638842 
L 46.811249 213.805704 
L 45.025649 213.545654 
L 43.204337 212.653485 
L 41.25224 210.15873 
L 40.472091 207.49761 
L 40.295368 204.83649 
L 40.5727 202.17537 
L 41.418737 198.904352 
L 42.176157 196.85313 
L 43.39871 194.19201 
L 45.025649 191.270735 
L 48.305585 186.20865 
L 59.768802 169.79841 
L 61.355855 167.13729 
L 62.953073 164.154076 
L 64.738673 160.257351 
L 65.198445 159.15393 
L 67.022717 153.83169 
L 68.487518 148.50945 
L 70.686017 140.52609 
L 71.916785 136.928432 
L 72.582851 135.20385 
L 73.959907 132.09921 
L 75.523697 129.098565 
L 77.309297 126.092238 
L 79.094897 123.366612 
L 82.386455 118.79361 
L 86.586512 113.47137 
L 91.665521 107.451875 
L 100.629233 97.287459 
L 107.807345 89.019552 
L 114.985457 80.447369 
L 122.980639 70.44993 
L 126.962749 65.12769 
L 129.341681 61.735456 
L 132.28776 57.14433 
L 133.805088 54.48321 
L 135.166576 51.82209 
L 137.489608 46.49985 
L 141.912305 34.933759 
L 143.697905 31.537632 
L 144.612581 30.08961 
L 146.773928 27.42849 
L 147.304817 26.912992 
L 149.876814 24.76737 
L 150.876017 24.132394 
L 152.697329 23.135284 
L 155.012209 22.10625 
L 155.012209 22.10625 
" clip-path="url(#pddde943696)" style="fill: none; stroke: #2070b4; stroke-width: 1.5"/>
    <path d="M 345.277157 272.25153 
L 344.847298 269.59041 
L 345.059384 266.92929 
L 345.870364 263.82465 
L 346.506353 262.232289 
L 346.945272 261.16353 
L 348.291953 258.51632 
L 348.299163 258.50241 
L 349.911684 255.84129 
L 350.077553 255.593142 
L 351.70031 253.18017 
L 351.863153 252.954718 
L 353.628059 250.51905 
L 353.684465 250.445255 
L 355.470065 248.136148 
L 355.685792 247.85793 
L 357.255665 245.934442 
L 357.858494 245.19681 
L 359.041265 243.815757 
L 360.144532 242.53569 
L 360.862577 241.737519 
L 362.55926 239.87457 
L 362.648177 239.780981 
L 364.433777 237.992862 
L 365.234816 237.21345 
L 366.219377 236.29961 
L 368.040689 234.683319 
L 368.203706 234.55233 
L 369.826289 233.315007 
L 371.611889 232.057761 
L 371.895749 231.89121 
L 373.397489 231.058795 
L 375.218801 230.259048 
L 377.004401 229.732 
L 378.790001 229.547488 
L 380.575601 229.831139 
L 382.396913 230.791113 
L 383.504157 231.89121 
L 384.182513 232.995737 
L 384.825069 234.55233 
L 385.280272 237.21345 
L 385.213583 239.87457 
L 384.748134 242.53569 
L 384.182513 244.433241 
L 383.946489 245.19681 
L 382.828109 247.85793 
L 382.396913 248.70181 
L 381.448376 250.51905 
L 380.575601 251.988453 
L 379.857695 253.18017 
L 378.790001 254.787408 
L 378.084944 255.84129 
L 377.004401 257.340113 
L 376.16386 258.50241 
L 375.218801 259.732496 
L 374.116226 261.16353 
L 373.397489 262.049217 
L 371.950356 263.82465 
L 371.611889 264.214929 
L 369.826289 266.236396 
L 369.209921 266.92929 
L 368.040689 268.1501 
L 366.631668 269.59041 
L 366.219377 269.985636 
L 364.433777 271.597848 
L 363.666068 272.25153 
L 362.648177 273.050437 
L 360.862577 274.331461 
L 359.943661 274.91265 
L 359.041265 275.430896 
L 357.255665 276.267499 
L 355.470065 276.90648 
L 353.684465 277.299992 
L 351.863153 277.382663 
L 350.077553 277.066445 
L 348.291953 276.247146 
L 346.651753 274.91265 
L 346.506353 274.713186 
L 345.277157 272.25153 
z
" clip-path="url(#pddde943696)" style="fill: none; stroke: #2070b4; stroke-width: 1.5"/>
   </g>
   <g id="PathCollection_8">
    <path d="M 75.37877 164.47617 
L 75.356393 161.81505 
L 75.501207 159.15393 
L 75.523697 158.909612 
L 75.750156 156.49281 
L 76.034409 153.83169 
L 76.3511 151.17057 
L 76.715035 148.50945 
L 77.146559 145.84833 
L 77.309297 145.055623 
L 77.710126 143.18721 
L 78.404167 140.52609 
L 79.094897 138.31063 
L 79.240326 137.86497 
L 80.292182 135.20385 
L 80.916209 133.863333 
L 81.760273 132.09921 
L 82.701809 130.385128 
L 83.23899 129.43809 
L 84.487409 127.447142 
L 84.919369 126.77697 
L 86.273009 124.838926 
L 86.790629 124.11585 
L 88.094321 122.402212 
L 88.831107 121.45473 
L 89.879921 120.168368 
L 91.022915 118.79361 
L 91.665521 118.047438 
L 93.346678 116.13249 
L 93.451121 116.016486 
L 95.272433 114.081427 
L 95.864554 113.47137 
L 97.058033 112.260442 
L 98.521317 110.81025 
L 98.843633 110.49253 
L 100.629233 108.831003 
L 101.398323 108.14913 
L 102.450545 107.204916 
L 104.236145 105.657687 
L 104.454225 105.48801 
L 106.021745 104.230833 
L 107.799559 102.82689 
L 107.807345 102.820487 
L 109.628657 101.550747 
L 111.414257 100.348259 
L 111.775597 100.16577 
L 113.199857 99.380247 
L 114.985457 98.686099 
L 116.806769 98.714239 
L 117.796695 100.16577 
L 118.109029 102.82689 
L 118.019889 105.48801 
L 117.818944 108.14913 
L 117.571903 110.81025 
L 117.290715 113.47137 
L 116.967846 116.13249 
L 116.806769 117.203293 
L 116.557274 118.79361 
L 116.046534 121.45473 
L 115.436142 124.11585 
L 114.985457 125.719198 
L 114.674206 126.77697 
L 113.726738 129.43809 
L 113.199857 130.69498 
L 112.587615 132.09921 
L 111.414257 134.413677 
L 111.003925 135.20385 
L 109.628657 137.533312 
L 109.426654 137.86497 
L 107.807345 140.297457 
L 107.651009 140.52609 
L 106.021745 142.744805 
L 105.689512 143.18721 
L 104.236145 145.019501 
L 103.565116 145.84833 
L 102.450545 147.169559 
L 101.296235 148.50945 
L 100.629233 149.261867 
L 98.901214 151.17057 
L 98.843633 151.23287 
L 97.058033 153.067963 
L 96.293945 153.83169 
L 95.272433 154.842488 
L 93.562612 156.49281 
L 93.451121 156.60064 
L 91.665521 158.200236 
L 90.565959 159.15393 
L 89.879921 159.758984 
L 88.094321 161.238281 
L 87.338411 161.81505 
L 86.273009 162.661667 
L 84.487409 163.988433 
L 83.736315 164.47617 
L 82.701809 165.191604 
L 80.916209 166.253961 
L 79.138967 167.13729 
L 79.094897 167.161474 
L 77.309297 167.471946 
L 76.57487 167.13729 
L 75.523697 165.391915 
L 75.37877 164.47617 
z
" clip-path="url(#pddde943696)" style="fill: none; stroke: #08509b; stroke-width: 1.5"/>
    <path d="M 147.26876 54.48321 
L 147.152399 51.82209 
L 147.304817 49.934731 
L 147.368235 49.16097 
L 147.793039 46.49985 
L 148.423393 43.39521 
L 149.090417 40.805606 
L 149.110102 40.73409 
L 150.132777 38.07297 
L 150.876017 36.582235 
L 151.523984 35.41185 
L 152.697329 33.838912 
L 153.626886 32.75073 
L 154.482929 32.006527 
L 156.268529 30.72326 
L 157.388274 30.08961 
L 158.054129 29.807581 
L 159.875441 29.2874 
L 161.661041 29.025902 
L 163.446641 29.034597 
L 165.232241 29.350326 
L 167.053553 30.045207 
L 167.129043 30.08961 
L 168.839153 32.11461 
L 169.198074 32.75073 
L 169.413262 35.41185 
L 168.839153 37.662653 
L 168.729585 38.07297 
L 167.372566 40.73409 
L 167.053553 41.210641 
L 165.535285 43.39521 
L 165.232241 43.763638 
L 163.446641 45.833991 
L 162.850572 46.49985 
L 161.661041 47.701283 
L 160.16707 49.16097 
L 159.875441 49.436442 
L 158.054129 50.99735 
L 157.029335 51.82209 
L 156.268529 52.438562 
L 154.482929 53.733294 
L 153.309772 54.48321 
L 152.697329 54.893158 
L 150.876017 55.771353 
L 149.090417 56.184298 
L 147.304817 54.61435 
L 147.26876 54.48321 
z
" clip-path="url(#pddde943696)" style="fill: none; stroke: #08509b; stroke-width: 1.5"/>
    <path d="M 166.743296 280.23489 
L 165.435472 277.57377 
L 165.303838 274.91265 
L 165.903966 272.25153 
L 166.952532 269.59041 
L 167.053553 269.402336 
L 168.371195 266.92929 
L 168.839153 266.197001 
L 170.317307 263.82465 
L 170.624753 263.387127 
L 172.16946 261.16353 
L 172.410353 260.839975 
L 174.130256 258.50241 
L 174.231665 258.370796 
L 176.017265 256.03995 
L 176.167884 255.84129 
L 177.802865 253.763046 
L 178.254504 253.18017 
L 179.588465 251.50629 
L 180.364569 250.51905 
L 181.409777 249.218556 
L 182.48974 247.85793 
L 183.195377 246.988291 
L 184.631871 245.19681 
L 184.980977 244.770651 
L 186.766577 242.571004 
L 186.795401 242.53569 
L 188.587889 240.387718 
L 189.012499 239.87457 
L 190.373489 238.265677 
L 191.257444 237.21345 
L 192.159089 236.160984 
L 193.531759 234.55233 
L 193.944689 234.076521 
L 195.766001 231.985957 
L 195.850339 231.89121 
L 197.551601 230.012422 
L 198.264409 229.23009 
L 199.337201 228.069278 
L 200.738224 226.56897 
L 201.122801 226.16159 
L 202.944113 224.291361 
L 203.332642 223.90785 
L 204.729713 222.546808 
L 206.51406 220.80321 
L 206.515313 220.801991 
L 208.300913 219.192304 
L 209.494786 218.14209 
L 210.122225 217.579191 
L 211.907825 216.074377 
L 212.663999 215.48097 
L 213.693425 214.641137 
L 215.479025 213.263587 
L 216.132765 212.81985 
L 217.300337 211.968494 
L 219.085937 210.789085 
L 220.23358 210.15873 
L 220.871537 209.76766 
L 222.657137 209.102647 
L 224.478449 209.342004 
L 224.959812 210.15873 
L 225.314322 212.81985 
L 225.243374 215.48097 
L 225.056162 218.14209 
L 224.823325 220.80321 
L 224.512833 223.90785 
L 224.478449 224.180416 
L 224.166193 226.56897 
L 223.765498 229.23009 
L 223.29322 231.89121 
L 222.726021 234.55233 
L 222.657137 234.807177 
L 221.978678 237.21345 
L 221.096833 239.87457 
L 220.871537 240.440006 
L 220.006963 242.53569 
L 219.085937 244.493459 
L 218.745157 245.19681 
L 217.300337 247.857123 
L 217.299888 247.85793 
L 215.663373 250.51905 
L 215.479025 250.79781 
L 213.888274 253.18017 
L 213.693425 253.455444 
L 211.99937 255.84129 
L 211.907825 255.964327 
L 210.122225 258.35565 
L 210.012418 258.50241 
L 208.300913 260.69826 
L 207.939834 261.16353 
L 206.515313 262.925478 
L 205.792384 263.82465 
L 204.729713 265.078752 
L 203.190434 266.92929 
L 202.944113 267.208941 
L 201.122801 269.253861 
L 200.820268 269.59041 
L 199.337201 271.139301 
L 198.267399 272.25153 
L 197.551601 272.943295 
L 195.766001 274.631344 
L 195.456619 274.91265 
L 193.944689 276.163356 
L 192.191277 277.57377 
L 192.159089 277.597059 
L 190.373489 278.782221 
L 188.587889 279.897733 
L 187.990574 280.23489 
L 186.766577 280.837554 
L 184.980977 281.609082 
L 183.195377 282.275095 
L 181.409777 282.826609 
L 181.106697 282.89601 
L 179.588465 283.189727 
L 177.802865 283.408502 
L 176.017265 283.493253 
L 174.231665 283.430926 
L 172.410353 283.198338 
L 171.096331 282.89601 
L 170.624753 282.740332 
L 168.839153 281.847921 
L 167.053553 280.533941 
L 166.743296 280.23489 
z
" clip-path="url(#pddde943696)" style="fill: none; stroke: #08509b; stroke-width: 1.5"/>
    <path d="M 236.377561 188.86977 
L 235.999673 186.20865 
L 236.073325 183.54753 
L 236.265009 180.88641 
L 236.502096 178.22529 
L 236.81748 175.12065 
L 237.013361 173.509708 
L 237.145901 172.45953 
L 237.556931 169.79841 
L 238.040226 167.13729 
L 238.619932 164.47617 
L 238.834673 163.689451 
L 239.369974 161.81505 
L 240.275563 159.15393 
L 240.620273 158.30633 
L 241.387605 156.49281 
L 242.405873 154.390848 
L 242.686791 153.83169 
L 244.191272 151.17057 
L 244.191473 151.170251 
L 245.910703 148.50945 
L 246.012785 148.362824 
L 247.798385 145.855524 
L 247.803655 145.84833 
L 249.583985 143.559877 
L 249.880173 143.18721 
L 251.369585 141.396579 
L 252.109481 140.52609 
L 253.190897 139.294005 
L 254.472601 137.86497 
L 254.976497 137.31631 
L 256.762097 135.42911 
L 256.986416 135.20385 
L 258.547697 133.668863 
L 260.149513 132.09921 
L 260.369009 131.885814 
L 262.154609 130.265258 
L 263.103035 129.43809 
L 263.940209 128.697238 
L 265.725809 127.195003 
L 266.272085 126.77697 
L 267.547121 125.763094 
L 269.332721 124.407317 
L 269.781912 124.11585 
L 271.118321 123.193987 
L 272.903921 122.082488 
L 274.172221 121.45473 
L 274.725233 121.15277 
L 276.510833 120.708836 
L 278.264933 121.45473 
L 278.296433 121.498009 
L 278.786205 124.11585 
L 278.775471 126.77697 
L 278.61504 129.43809 
L 278.394873 132.09921 
L 278.296433 133.006696 
L 278.05693 135.20385 
L 277.714591 137.86497 
L 277.320261 140.52609 
L 276.851644 143.18721 
L 276.510833 144.747976 
L 276.259519 145.84833 
L 275.507948 148.50945 
L 274.725233 150.852797 
L 274.614208 151.17057 
L 273.495359 153.83169 
L 272.903921 155.057083 
L 272.185048 156.49281 
L 271.118321 158.387996 
L 270.673444 159.15393 
L 269.332721 161.248893 
L 268.960527 161.81505 
L 267.547121 163.805279 
L 267.059029 164.47617 
L 265.725809 166.205149 
L 264.991267 167.13729 
L 263.940209 168.412211 
L 262.774873 169.79841 
L 262.154609 170.512015 
L 260.428807 172.45953 
L 260.369009 172.525439 
L 258.547697 174.439389 
L 257.880506 175.12065 
L 256.762097 176.238937 
L 254.976497 178.002402 
L 254.735418 178.22529 
L 253.190897 179.644096 
L 251.802941 180.88641 
L 251.369585 181.280823 
L 249.583985 182.789718 
L 248.635503 183.54753 
L 247.798385 184.241209 
L 246.012785 185.620909 
L 245.167308 186.20865 
L 244.191473 186.935372 
L 242.405873 188.120963 
L 241.097857 188.86977 
L 240.620273 189.173611 
L 238.834673 189.87866 
L 237.013361 189.805658 
L 236.377561 188.86977 
z
" clip-path="url(#pddde943696)" style="fill: none; stroke: #08509b; stroke-width: 1.5"/>
   </g>
   <g id="PathCollection_9"/>
   <g id="patch_3">
    <path d="M 34.240625 288.21825 
L 34.240625 22.10625 
" style="fill: none; stroke: #000000; stroke-width: 0.8; stroke-linejoin: miter; stroke-linecap: square"/>
   </g>
   <g id="patch_4">
    <path d="M 391.360625 288.21825 
L 391.360625 22.10625 
" style="fill: none; stroke: #000000; stroke-width: 0.8; stroke-linejoin: miter; stroke-linecap: square"/>
   </g>
   <g id="patch_5">
    <path d="M 34.240625 288.21825 
L 391.360625 288.21825 
" style="fill: none; stroke: #000000; stroke-width: 0.8; stroke-linejoin: miter; stroke-linecap: square"/>
   </g>
   <g id="patch_6">
    <path d="M 34.240625 22.10625 
L 391.360625 22.10625 
" style="fill: none; stroke: #000000; stroke-width: 0.8; stroke-linejoin: miter; stroke-linecap: square"/>
   </g>
   <g id="text_16">
    <!-- 8.9_cross_22.0 -->
    <g transform="translate(168.34625 16.10625)scale(0.12 -0.12)">
     <defs>
      <path id="DejaVuSans-2e" d="M 684 794 
L 1344 794 
L 1344 0 
L 684 0 
L 684 794 
z
" transform="scale(0.015625)"/>
      <path id="DejaVuSans-39" d="M 703 97 
L 703 672 
Q 941 559 1184 500 
Q 1428 441 1663 441 
Q 2288 441 2617 861 
Q 2947 1281 2994 2138 
Q 2813 1869 2534 1725 
Q 2256 1581 1919 1581 
Q 1219 1581 811 2004 
Q 403 2428 403 3163 
Q 403 3881 828 4315 
Q 1253 4750 1959 4750 
Q 2769 4750 3195 4129 
Q 3622 3509 3622 2328 
Q 3622 1225 3098 567 
Q 2575 -91 1691 -91 
Q 1453 -91 1209 -44 
Q 966 3 703 97 
z
M 1959 2075 
Q 2384 2075 2632 2365 
Q 2881 2656 2881 3163 
Q 2881 3666 2632 3958 
Q 2384 4250 1959 4250 
Q 1534 4250 1286 3958 
Q 1038 3666 1038 3163 
Q 1038 2656 1286 2365 
Q 1534 2075 1959 2075 
z
" transform="scale(0.015625)"/>
      <path id="DejaVuSans-5f" d="M 3263 -1063 
L 3263 -1509 
L -63 -1509 
L -63 -1063 
L 3263 -1063 
z
" transform="scale(0.015625)"/>
      <path id="DejaVuSans-63" d="M 3122 3366 
L 3122 2828 
Q 2878 2963 2633 3030 
Q 2388 3097 2138 3097 
Q 1578 3097 1268 2742 
Q 959 2388 959 1747 
Q 959 1106 1268 751 
Q 1578 397 2138 397 
Q 2388 397 2633 464 
Q 2878 531 3122 666 
L 3122 134 
Q 2881 22 2623 -34 
Q 2366 -91 2075 -91 
Q 1284 -91 818 406 
Q 353 903 353 1747 
Q 353 2603 823 3093 
Q 1294 3584 2113 3584 
Q 2378 3584 2631 3529 
Q 2884 3475 3122 3366 
z
" transform="scale(0.015625)"/>
      <path id="DejaVuSans-72" d="M 2631 2963 
Q 2534 3019 2420 3045 
Q 2306 3072 2169 3072 
Q 1681 3072 1420 2755 
Q 1159 2438 1159 1844 
L 1159 0 
L 581 0 
L 581 3500 
L 1159 3500 
L 1159 2956 
Q 1341 3275 1631 3429 
Q 1922 3584 2338 3584 
Q 2397 3584 2469 3576 
Q 2541 3569 2628 3553 
L 2631 2963 
z
" transform="scale(0.015625)"/>
      <path id="DejaVuSans-73" d="M 2834 3397 
L 2834 2853 
Q 2591 2978 2328 3040 
Q 2066 3103 1784 3103 
Q 1356 3103 1142 2972 
Q 928 2841 928 2578 
Q 928 2378 1081 2264 
Q 1234 2150 1697 2047 
L 1894 2003 
Q 2506 1872 2764 1633 
Q 3022 1394 3022 966 
Q 3022 478 2636 193 
Q 2250 -91 1575 -91 
Q 1294 -91 989 -36 
Q 684 19 347 128 
L 347 722 
Q 666 556 975 473 
Q 1284 391 1588 391 
Q 1994 391 2212 530 
Q 2431 669 2431 922 
Q 2431 1156 2273 1281 
Q 2116 1406 1581 1522 
L 1381 1569 
Q 847 1681 609 1914 
Q 372 2147 372 2553 
Q 372 3047 722 3315 
Q 1072 3584 1716 3584 
Q 2034 3584 2315 3537 
Q 2597 3491 2834 3397 
z
" transform="scale(0.015625)"/>
     </defs>
     <use xlink:href="#DejaVuSans-38"/>
     <use xlink:href="#DejaVuSans-2e" x="63.623047"/>
     <use xlink:href="#DejaVuSans-39" x="95.410156"/>
     <use xlink:href="#DejaVuSans-5f" x="159.033203"/>
     <use xlink:href="#DejaVuSans-63" x="209.033203"/>
     <use xlink:href="#DejaVuSans-72" x="264.013672"/>
     <use xlink:href="#DejaVuSans-6f" x="302.876953"/>
     <use xlink:href="#DejaVuSans-73" x="364.058594"/>
     <use xlink:href="#DejaVuSans-73" x="416.158203"/>
     <use xlink:href="#DejaVuSans-5f" x="468.257812"/>
     <use xlink:href="#DejaVuSans-32" x="518.257812"/>
     <use xlink:href="#DejaVuSans-32" x="581.880859"/>
     <use xlink:href="#DejaVuSans-2e" x="645.503906"/>
     <use xlink:href="#DejaVuSans-30" x="677.291016"/>
    </g>
   </g>
  </g>
 </g>
 <defs>
  <clipPath id="pddde943696">
   <rect x="34.240625" y="22.10625" width="357.12" height="266.112"/>
  </clipPath>
 </defs>
</svg>
