<?xml version="1.0" encoding="utf-8" standalone="no"?>
<!DOCTYPE svg PUBLIC "-//W3C//DTD SVG 1.1//EN"
  "http://www.w3.org/Graphics/SVG/1.1/DTD/svg11.dtd">
<svg xmlns:xlink="http://www.w3.org/1999/xlink" width="408.104375pt" height="325.7745pt" viewBox="0 0 408.104375 325.7745" xmlns="http://www.w3.org/2000/svg" version="1.1">
 <metadata>
  <rdf:RDF xmlns:dc="http://purl.org/dc/elements/1.1/" xmlns:cc="http://creativecommons.org/ns#" xmlns:rdf="http://www.w3.org/1999/02/22-rdf-syntax-ns#">
   <cc:Work>
    <dc:type rdf:resource="http://purl.org/dc/dcmitype/StillImage"/>
    <dc:date>2024-07-12T12:14:01.145718</dc:date>
    <dc:format>image/svg+xml</dc:format>
    <dc:creator>
     <cc:Agent>
      <dc:title>Matplotlib v3.5.3, https://matplotlib.org/</dc:title>
     </cc:Agent>
    </dc:creator>
   </cc:Work>
  </rdf:RDF>
 </metadata>
 <defs>
  <style type="text/css">*{stroke-linejoin: round; stroke-linecap: butt}</style>
 </defs>
 <g id="figure_1">
  <g id="patch_1">
   <path d="M 0 325.7745 
L 408.104375 325.7745 
L 408.104375 0 
L 0 0 
z
" style="fill: #ffffff"/>
  </g>
  <g id="axes_1">
   <g id="patch_2">
    <path d="M 34.240625 288.21825 
L 391.360625 288.21825 
L 391.360625 22.10625 
L 34.240625 22.10625 
z
" style="fill: #ffffff"/>
   </g>
   <g id="matplotlib.axis_1">
    <g id="xtick_1">
     <g id="line2d_1">
      <defs>
       <path id="m80e61aa86f" d="M 0 0 
L 0 3.5 
" style="stroke: #000000; stroke-width: 0.8"/>
      </defs>
      <g>
       <use xlink:href="#m80e61aa86f" x="34.240625" y="288.21825" style="stroke: #000000; stroke-width: 0.8"/>
      </g>
     </g>
     <g id="text_1">
      <!-- 0 -->
      <g transform="translate(31.059375 302.816687)scale(0.1 -0.1)">
       <defs>
        <path id="DejaVuSans-30" d="M 2034 4250 
Q 1547 4250 1301 3770 
Q 1056 3291 1056 2328 
Q 1056 1369 1301 889 
Q 1547 409 2034 409 
Q 2525 409 2770 889 
Q 3016 1369 3016 2328 
Q 3016 3291 2770 3770 
Q 2525 4250 2034 4250 
z
M 2034 4750 
Q 2819 4750 3233 4129 
Q 3647 3509 3647 2328 
Q 3647 1150 3233 529 
Q 2819 -91 2034 -91 
Q 1250 -91 836 529 
Q 422 1150 422 2328 
Q 422 3509 836 4129 
Q 1250 4750 2034 4750 
z
" transform="scale(0.015625)"/>
       </defs>
       <use xlink:href="#DejaVuSans-30"/>
      </g>
     </g>
    </g>
    <g id="xtick_2">
     <g id="line2d_2">
      <g>
       <use xlink:href="#m80e61aa86f" x="105.664625" y="288.21825" style="stroke: #000000; stroke-width: 0.8"/>
      </g>
     </g>
     <g id="text_2">
      <!-- 20 -->
      <g transform="translate(99.302125 302.816687)scale(0.1 -0.1)">
       <defs>
        <path id="DejaVuSans-32" d="M 1228 531 
L 3431 531 
L 3431 0 
L 469 0 
L 469 531 
Q 828 903 1448 1529 
Q 2069 2156 2228 2338 
Q 2531 2678 2651 2914 
Q 2772 3150 2772 3378 
Q 2772 3750 2511 3984 
Q 2250 4219 1831 4219 
Q 1534 4219 1204 4116 
Q 875 4013 500 3803 
L 500 4441 
Q 881 4594 1212 4672 
Q 1544 4750 1819 4750 
Q 2544 4750 2975 4387 
Q 3406 4025 3406 3419 
Q 3406 3131 3298 2873 
Q 3191 2616 2906 2266 
Q 2828 2175 2409 1742 
Q 1991 1309 1228 531 
z
" transform="scale(0.015625)"/>
       </defs>
       <use xlink:href="#DejaVuSans-32"/>
       <use xlink:href="#DejaVuSans-30" x="63.623047"/>
      </g>
     </g>
    </g>
    <g id="xtick_3">
     <g id="line2d_3">
      <g>
       <use xlink:href="#m80e61aa86f" x="177.088625" y="288.21825" style="stroke: #000000; stroke-width: 0.8"/>
      </g>
     </g>
     <g id="text_3">
      <!-- 40 -->
      <g transform="translate(170.726125 302.816687)scale(0.1 -0.1)">
       <defs>
        <path id="DejaVuSans-34" d="M 2419 4116 
L 825 1625 
L 2419 1625 
L 2419 4116 
z
M 2253 4666 
L 3047 4666 
L 3047 1625 
L 3713 1625 
L 3713 1100 
L 3047 1100 
L 3047 0 
L 2419 0 
L 2419 1100 
L 313 1100 
L 313 1709 
L 2253 4666 
z
" transform="scale(0.015625)"/>
       </defs>
       <use xlink:href="#DejaVuSans-34"/>
       <use xlink:href="#DejaVuSans-30" x="63.623047"/>
      </g>
     </g>
    </g>
    <g id="xtick_4">
     <g id="line2d_4">
      <g>
       <use xlink:href="#m80e61aa86f" x="248.512625" y="288.21825" style="stroke: #000000; stroke-width: 0.8"/>
      </g>
     </g>
     <g id="text_4">
      <!-- 60 -->
      <g transform="translate(242.150125 302.816687)scale(0.1 -0.1)">
       <defs>
        <path id="DejaVuSans-36" d="M 2113 2584 
Q 1688 2584 1439 2293 
Q 1191 2003 1191 1497 
Q 1191 994 1439 701 
Q 1688 409 2113 409 
Q 2538 409 2786 701 
Q 3034 994 3034 1497 
Q 3034 2003 2786 2293 
Q 2538 2584 2113 2584 
z
M 3366 4563 
L 3366 3988 
Q 3128 4100 2886 4159 
Q 2644 4219 2406 4219 
Q 1781 4219 1451 3797 
Q 1122 3375 1075 2522 
Q 1259 2794 1537 2939 
Q 1816 3084 2150 3084 
Q 2853 3084 3261 2657 
Q 3669 2231 3669 1497 
Q 3669 778 3244 343 
Q 2819 -91 2113 -91 
Q 1303 -91 875 529 
Q 447 1150 447 2328 
Q 447 3434 972 4092 
Q 1497 4750 2381 4750 
Q 2619 4750 2861 4703 
Q 3103 4656 3366 4563 
z
" transform="scale(0.015625)"/>
       </defs>
       <use xlink:href="#DejaVuSans-36"/>
       <use xlink:href="#DejaVuSans-30" x="63.623047"/>
      </g>
     </g>
    </g>
    <g id="xtick_5">
     <g id="line2d_5">
      <g>
       <use xlink:href="#m80e61aa86f" x="319.936625" y="288.21825" style="stroke: #000000; stroke-width: 0.8"/>
      </g>
     </g>
     <g id="text_5">
      <!-- 80 -->
      <g transform="translate(313.574125 302.816687)scale(0.1 -0.1)">
       <defs>
        <path id="DejaVuSans-38" d="M 2034 2216 
Q 1584 2216 1326 1975 
Q 1069 1734 1069 1313 
Q 1069 891 1326 650 
Q 1584 409 2034 409 
Q 2484 409 2743 651 
Q 3003 894 3003 1313 
Q 3003 1734 2745 1975 
Q 2488 2216 2034 2216 
z
M 1403 2484 
Q 997 2584 770 2862 
Q 544 3141 544 3541 
Q 544 4100 942 4425 
Q 1341 4750 2034 4750 
Q 2731 4750 3128 4425 
Q 3525 4100 3525 3541 
Q 3525 3141 3298 2862 
Q 3072 2584 2669 2484 
Q 3125 2378 3379 2068 
Q 3634 1759 3634 1313 
Q 3634 634 3220 271 
Q 2806 -91 2034 -91 
Q 1263 -91 848 271 
Q 434 634 434 1313 
Q 434 1759 690 2068 
Q 947 2378 1403 2484 
z
M 1172 3481 
Q 1172 3119 1398 2916 
Q 1625 2713 2034 2713 
Q 2441 2713 2670 2916 
Q 2900 3119 2900 3481 
Q 2900 3844 2670 4047 
Q 2441 4250 2034 4250 
Q 1625 4250 1398 4047 
Q 1172 3844 1172 3481 
z
" transform="scale(0.015625)"/>
       </defs>
       <use xlink:href="#DejaVuSans-38"/>
       <use xlink:href="#DejaVuSans-30" x="63.623047"/>
      </g>
     </g>
    </g>
    <g id="xtick_6">
     <g id="line2d_6">
      <g>
       <use xlink:href="#m80e61aa86f" x="391.360625" y="288.21825" style="stroke: #000000; stroke-width: 0.8"/>
      </g>
     </g>
     <g id="text_6">
      <!-- 100 -->
      <g transform="translate(381.816875 302.816687)scale(0.1 -0.1)">
       <defs>
        <path id="DejaVuSans-31" d="M 794 531 
L 1825 531 
L 1825 4091 
L 703 3866 
L 703 4441 
L 1819 4666 
L 2450 4666 
L 2450 531 
L 3481 531 
L 3481 0 
L 794 0 
L 794 531 
z
" transform="scale(0.015625)"/>
       </defs>
       <use xlink:href="#DejaVuSans-31"/>
       <use xlink:href="#DejaVuSans-30" x="63.623047"/>
       <use xlink:href="#DejaVuSans-30" x="127.246094"/>
      </g>
     </g>
    </g>
    <g id="text_7">
     <!-- axialRotation -->
     <g transform="translate(180.024844 316.494812)scale(0.1 -0.1)">
      <defs>
       <path id="DejaVuSans-61" d="M 2194 1759 
Q 1497 1759 1228 1600 
Q 959 1441 959 1056 
Q 959 750 1161 570 
Q 1363 391 1709 391 
Q 2188 391 2477 730 
Q 2766 1069 2766 1631 
L 2766 1759 
L 2194 1759 
z
M 3341 1997 
L 3341 0 
L 2766 0 
L 2766 531 
Q 2569 213 2275 61 
Q 1981 -91 1556 -91 
Q 1019 -91 701 211 
Q 384 513 384 1019 
Q 384 1609 779 1909 
Q 1175 2209 1959 2209 
L 2766 2209 
L 2766 2266 
Q 2766 2663 2505 2880 
Q 2244 3097 1772 3097 
Q 1472 3097 1187 3025 
Q 903 2953 641 2809 
L 641 3341 
Q 956 3463 1253 3523 
Q 1550 3584 1831 3584 
Q 2591 3584 2966 3190 
Q 3341 2797 3341 1997 
z
" transform="scale(0.015625)"/>
       <path id="DejaVuSans-78" d="M 3513 3500 
L 2247 1797 
L 3578 0 
L 2900 0 
L 1881 1375 
L 863 0 
L 184 0 
L 1544 1831 
L 300 3500 
L 978 3500 
L 1906 2253 
L 2834 3500 
L 3513 3500 
z
" transform="scale(0.015625)"/>
       <path id="DejaVuSans-69" d="M 603 3500 
L 1178 3500 
L 1178 0 
L 603 0 
L 603 3500 
z
M 603 4863 
L 1178 4863 
L 1178 4134 
L 603 4134 
L 603 4863 
z
" transform="scale(0.015625)"/>
       <path id="DejaVuSans-6c" d="M 603 4863 
L 1178 4863 
L 1178 0 
L 603 0 
L 603 4863 
z
" transform="scale(0.015625)"/>
       <path id="DejaVuSans-52" d="M 2841 2188 
Q 3044 2119 3236 1894 
Q 3428 1669 3622 1275 
L 4263 0 
L 3584 0 
L 2988 1197 
Q 2756 1666 2539 1819 
Q 2322 1972 1947 1972 
L 1259 1972 
L 1259 0 
L 628 0 
L 628 4666 
L 2053 4666 
Q 2853 4666 3247 4331 
Q 3641 3997 3641 3322 
Q 3641 2881 3436 2590 
Q 3231 2300 2841 2188 
z
M 1259 4147 
L 1259 2491 
L 2053 2491 
Q 2509 2491 2742 2702 
Q 2975 2913 2975 3322 
Q 2975 3731 2742 3939 
Q 2509 4147 2053 4147 
L 1259 4147 
z
" transform="scale(0.015625)"/>
       <path id="DejaVuSans-6f" d="M 1959 3097 
Q 1497 3097 1228 2736 
Q 959 2375 959 1747 
Q 959 1119 1226 758 
Q 1494 397 1959 397 
Q 2419 397 2687 759 
Q 2956 1122 2956 1747 
Q 2956 2369 2687 2733 
Q 2419 3097 1959 3097 
z
M 1959 3584 
Q 2709 3584 3137 3096 
Q 3566 2609 3566 1747 
Q 3566 888 3137 398 
Q 2709 -91 1959 -91 
Q 1206 -91 779 398 
Q 353 888 353 1747 
Q 353 2609 779 3096 
Q 1206 3584 1959 3584 
z
" transform="scale(0.015625)"/>
       <path id="DejaVuSans-74" d="M 1172 4494 
L 1172 3500 
L 2356 3500 
L 2356 3053 
L 1172 3053 
L 1172 1153 
Q 1172 725 1289 603 
Q 1406 481 1766 481 
L 2356 481 
L 2356 0 
L 1766 0 
Q 1100 0 847 248 
Q 594 497 594 1153 
L 594 3053 
L 172 3053 
L 172 3500 
L 594 3500 
L 594 4494 
L 1172 4494 
z
" transform="scale(0.015625)"/>
       <path id="DejaVuSans-6e" d="M 3513 2113 
L 3513 0 
L 2938 0 
L 2938 2094 
Q 2938 2591 2744 2837 
Q 2550 3084 2163 3084 
Q 1697 3084 1428 2787 
Q 1159 2491 1159 1978 
L 1159 0 
L 581 0 
L 581 3500 
L 1159 3500 
L 1159 2956 
Q 1366 3272 1645 3428 
Q 1925 3584 2291 3584 
Q 2894 3584 3203 3211 
Q 3513 2838 3513 2113 
z
" transform="scale(0.015625)"/>
      </defs>
      <use xlink:href="#DejaVuSans-61"/>
      <use xlink:href="#DejaVuSans-78" x="61.279297"/>
      <use xlink:href="#DejaVuSans-69" x="120.458984"/>
      <use xlink:href="#DejaVuSans-61" x="148.242188"/>
      <use xlink:href="#DejaVuSans-6c" x="209.521484"/>
      <use xlink:href="#DejaVuSans-52" x="237.304688"/>
      <use xlink:href="#DejaVuSans-6f" x="302.287109"/>
      <use xlink:href="#DejaVuSans-74" x="363.46875"/>
      <use xlink:href="#DejaVuSans-61" x="402.677734"/>
      <use xlink:href="#DejaVuSans-74" x="463.957031"/>
      <use xlink:href="#DejaVuSans-69" x="503.166016"/>
      <use xlink:href="#DejaVuSans-6f" x="530.949219"/>
      <use xlink:href="#DejaVuSans-6e" x="592.130859"/>
     </g>
    </g>
   </g>
   <g id="matplotlib.axis_2">
    <g id="ytick_1">
     <g id="line2d_7">
      <defs>
       <path id="m5ce452eee9" d="M 0 0 
L -3.5 0 
" style="stroke: #000000; stroke-width: 0.8"/>
      </defs>
      <g>
       <use xlink:href="#m5ce452eee9" x="34.240625" y="288.21825" style="stroke: #000000; stroke-width: 0.8"/>
      </g>
     </g>
     <g id="text_8">
      <!-- 0 -->
      <g transform="translate(20.878125 292.017469)scale(0.1 -0.1)">
       <use xlink:href="#DejaVuSans-30"/>
      </g>
     </g>
    </g>
    <g id="ytick_2">
     <g id="line2d_8">
      <g>
       <use xlink:href="#m5ce452eee9" x="34.240625" y="243.86625" style="stroke: #000000; stroke-width: 0.8"/>
      </g>
     </g>
     <g id="text_9">
      <!-- 1 -->
      <g transform="translate(20.878125 247.665469)scale(0.1 -0.1)">
       <use xlink:href="#DejaVuSans-31"/>
      </g>
     </g>
    </g>
    <g id="ytick_3">
     <g id="line2d_9">
      <g>
       <use xlink:href="#m5ce452eee9" x="34.240625" y="199.51425" style="stroke: #000000; stroke-width: 0.8"/>
      </g>
     </g>
     <g id="text_10">
      <!-- 2 -->
      <g transform="translate(20.878125 203.313469)scale(0.1 -0.1)">
       <use xlink:href="#DejaVuSans-32"/>
      </g>
     </g>
    </g>
    <g id="ytick_4">
     <g id="line2d_10">
      <g>
       <use xlink:href="#m5ce452eee9" x="34.240625" y="155.16225" style="stroke: #000000; stroke-width: 0.8"/>
      </g>
     </g>
     <g id="text_11">
      <!-- 3 -->
      <g transform="translate(20.878125 158.961469)scale(0.1 -0.1)">
       <defs>
        <path id="DejaVuSans-33" d="M 2597 2516 
Q 3050 2419 3304 2112 
Q 3559 1806 3559 1356 
Q 3559 666 3084 287 
Q 2609 -91 1734 -91 
Q 1441 -91 1130 -33 
Q 819 25 488 141 
L 488 750 
Q 750 597 1062 519 
Q 1375 441 1716 441 
Q 2309 441 2620 675 
Q 2931 909 2931 1356 
Q 2931 1769 2642 2001 
Q 2353 2234 1838 2234 
L 1294 2234 
L 1294 2753 
L 1863 2753 
Q 2328 2753 2575 2939 
Q 2822 3125 2822 3475 
Q 2822 3834 2567 4026 
Q 2313 4219 1838 4219 
Q 1578 4219 1281 4162 
Q 984 4106 628 3988 
L 628 4550 
Q 988 4650 1302 4700 
Q 1616 4750 1894 4750 
Q 2613 4750 3031 4423 
Q 3450 4097 3450 3541 
Q 3450 3153 3228 2886 
Q 3006 2619 2597 2516 
z
" transform="scale(0.015625)"/>
       </defs>
       <use xlink:href="#DejaVuSans-33"/>
      </g>
     </g>
    </g>
    <g id="ytick_5">
     <g id="line2d_11">
      <g>
       <use xlink:href="#m5ce452eee9" x="34.240625" y="110.81025" style="stroke: #000000; stroke-width: 0.8"/>
      </g>
     </g>
     <g id="text_12">
      <!-- 4 -->
      <g transform="translate(20.878125 114.609469)scale(0.1 -0.1)">
       <use xlink:href="#DejaVuSans-34"/>
      </g>
     </g>
    </g>
    <g id="ytick_6">
     <g id="line2d_12">
      <g>
       <use xlink:href="#m5ce452eee9" x="34.240625" y="66.45825" style="stroke: #000000; stroke-width: 0.8"/>
      </g>
     </g>
     <g id="text_13">
      <!-- 5 -->
      <g transform="translate(20.878125 70.257469)scale(0.1 -0.1)">
       <defs>
        <path id="DejaVuSans-35" d="M 691 4666 
L 3169 4666 
L 3169 4134 
L 1269 4134 
L 1269 2991 
Q 1406 3038 1543 3061 
Q 1681 3084 1819 3084 
Q 2600 3084 3056 2656 
Q 3513 2228 3513 1497 
Q 3513 744 3044 326 
Q 2575 -91 1722 -91 
Q 1428 -91 1123 -41 
Q 819 9 494 109 
L 494 744 
Q 775 591 1075 516 
Q 1375 441 1709 441 
Q 2250 441 2565 725 
Q 2881 1009 2881 1497 
Q 2881 1984 2565 2268 
Q 2250 2553 1709 2553 
Q 1456 2553 1204 2497 
Q 953 2441 691 2322 
L 691 4666 
z
" transform="scale(0.015625)"/>
       </defs>
       <use xlink:href="#DejaVuSans-35"/>
      </g>
     </g>
    </g>
    <g id="ytick_7">
     <g id="line2d_13">
      <g>
       <use xlink:href="#m5ce452eee9" x="34.240625" y="22.10625" style="stroke: #000000; stroke-width: 0.8"/>
      </g>
     </g>
     <g id="text_14">
      <!-- 6 -->
      <g transform="translate(20.878125 25.905469)scale(0.1 -0.1)">
       <use xlink:href="#DejaVuSans-36"/>
      </g>
     </g>
    </g>
    <g id="text_15">
     <!-- zShift -->
     <g transform="translate(14.798438 169.151312)rotate(-90)scale(0.1 -0.1)">
      <defs>
       <path id="DejaVuSans-7a" d="M 353 3500 
L 3084 3500 
L 3084 2975 
L 922 459 
L 3084 459 
L 3084 0 
L 275 0 
L 275 525 
L 2438 3041 
L 353 3041 
L 353 3500 
z
" transform="scale(0.015625)"/>
       <path id="DejaVuSans-53" d="M 3425 4513 
L 3425 3897 
Q 3066 4069 2747 4153 
Q 2428 4238 2131 4238 
Q 1616 4238 1336 4038 
Q 1056 3838 1056 3469 
Q 1056 3159 1242 3001 
Q 1428 2844 1947 2747 
L 2328 2669 
Q 3034 2534 3370 2195 
Q 3706 1856 3706 1288 
Q 3706 609 3251 259 
Q 2797 -91 1919 -91 
Q 1588 -91 1214 -16 
Q 841 59 441 206 
L 441 856 
Q 825 641 1194 531 
Q 1563 422 1919 422 
Q 2459 422 2753 634 
Q 3047 847 3047 1241 
Q 3047 1584 2836 1778 
Q 2625 1972 2144 2069 
L 1759 2144 
Q 1053 2284 737 2584 
Q 422 2884 422 3419 
Q 422 4038 858 4394 
Q 1294 4750 2059 4750 
Q 2388 4750 2728 4690 
Q 3069 4631 3425 4513 
z
" transform="scale(0.015625)"/>
       <path id="DejaVuSans-68" d="M 3513 2113 
L 3513 0 
L 2938 0 
L 2938 2094 
Q 2938 2591 2744 2837 
Q 2550 3084 2163 3084 
Q 1697 3084 1428 2787 
Q 1159 2491 1159 1978 
L 1159 0 
L 581 0 
L 581 4863 
L 1159 4863 
L 1159 2956 
Q 1366 3272 1645 3428 
Q 1925 3584 2291 3584 
Q 2894 3584 3203 3211 
Q 3513 2838 3513 2113 
z
" transform="scale(0.015625)"/>
       <path id="DejaVuSans-66" d="M 2375 4863 
L 2375 4384 
L 1825 4384 
Q 1516 4384 1395 4259 
Q 1275 4134 1275 3809 
L 1275 3500 
L 2222 3500 
L 2222 3053 
L 1275 3053 
L 1275 0 
L 697 0 
L 697 3053 
L 147 3053 
L 147 3500 
L 697 3500 
L 697 3744 
Q 697 4328 969 4595 
Q 1241 4863 1831 4863 
L 2375 4863 
z
" transform="scale(0.015625)"/>
      </defs>
      <use xlink:href="#DejaVuSans-7a"/>
      <use xlink:href="#DejaVuSans-53" x="52.490234"/>
      <use xlink:href="#DejaVuSans-68" x="115.966797"/>
      <use xlink:href="#DejaVuSans-69" x="179.345703"/>
      <use xlink:href="#DejaVuSans-66" x="207.128906"/>
      <use xlink:href="#DejaVuSans-74" x="240.583984"/>
     </g>
    </g>
   </g>
   <g id="PathCollection_1"/>
   <g id="PathCollection_2">
    <path d="M 34.240625 112.98105 
L 35.796487 110.81025 
L 36.026225 110.496898 
L 37.769964 108.14913 
L 37.847537 108.046109 
L 39.633137 105.690166 
L 39.788064 105.48801 
L 41.418737 103.36756 
L 41.841162 102.82689 
L 43.204337 101.077798 
L 43.926442 100.16577 
L 45.025649 98.770042 
L 46.038616 97.50465 
L 46.811249 96.52913 
L 48.169867 94.84353 
L 48.596849 94.30655 
L 50.315971 92.18241 
L 50.382449 92.098965 
L 52.203761 89.823396 
L 52.448626 89.52129 
L 53.989361 87.573124 
L 54.935053 86.41665 
L 55.774961 85.362991 
L 57.078181 83.75553 
L 57.560561 83.150276 
L 59.226082 81.09441 
L 59.381873 80.899164 
L 61.167473 78.676868 
L 61.365024 78.43329 
L 62.953073 76.444243 
L 63.498796 75.77217 
L 64.738673 74.220451 
L 65.639719 73.11105 
L 66.559985 71.960768 
L 67.788775 70.44993 
L 68.345585 69.753187 
L 69.942941 67.78881 
L 70.131185 67.55307 
L 71.916785 65.337016 
L 72.086595 65.12769 
L 73.738097 63.059967 
L 74.219459 62.46657 
L 75.523697 60.831199 
L 76.355484 59.80545 
L 77.309297 58.609428 
L 78.497803 57.14433 
L 79.094897 56.396033 
L 80.646807 54.48321 
L 80.916209 54.146174 
L 82.701809 51.939538 
L 82.797262 51.82209 
L 84.487409 49.708927 
L 84.933168 49.16097 
L 86.273009 47.486231 
L 87.075105 46.49985 
L 88.094321 45.215986 
L 89.589538 43.39521 
L 89.879921 43.032259 
L 91.665521 40.83183 
L 91.74513 40.73409 
L 93.451121 38.607022 
L 93.886875 38.07297 
L 95.272433 36.35327 
L 96.045221 35.41185 
L 97.058033 34.161852 
L 98.226345 32.75073 
L 98.843633 31.996319 
L 100.442308 30.08961 
L 100.629233 29.864284 
L 102.450545 27.7023 
L 102.685455 27.42849 
L 104.236145 25.607416 
L 104.975504 24.76737 
L 106.021745 23.570978 
L 107.354661 22.10625 
" clip-path="url(#pdd54a9a4a7)" style="fill: none; stroke: #deebf7; stroke-width: 1.5"/>
    <path d="M 115.401151 288.21825 
L 115.221557 285.55713 
L 115.254664 282.89601 
L 115.463532 280.23489 
L 115.813483 277.57377 
L 116.26533 274.91265 
L 116.763282 272.25153 
L 116.806769 271.91337 
L 117.088183 269.59041 
L 117.105265 266.92929 
L 116.806769 265.835091 
L 114.985457 264.105292 
L 113.199857 264.446234 
L 111.414257 265.347148 
L 109.628657 266.46573 
L 109.024816 266.92929 
L 107.807345 267.892839 
L 106.021745 269.37949 
L 105.794662 269.59041 
L 104.236145 271.04383 
L 102.945087 272.25153 
L 102.450545 272.711025 
L 100.629233 274.48295 
L 100.202605 274.91265 
L 98.843633 276.268437 
L 97.530384 277.57377 
L 97.058033 278.036718 
L 95.272433 279.83206 
L 94.88027 280.23489 
L 93.451121 281.684484 
L 92.245155 282.89601 
L 91.665521 283.472598 
L 89.879921 285.255284 
L 89.580784 285.55713 
L 88.094321 287.049131 
L 86.899534 288.21825 
" clip-path="url(#pdd54a9a4a7)" style="fill: none; stroke: #deebf7; stroke-width: 1.5"/>
    <path d="M 289.839939 288.21825 
L 289.081457 286.371936 
L 288.329752 285.55713 
L 287.260145 284.185032 
L 285.474545 284.536507 
L 284.348557 285.55713 
L 283.688945 285.940371 
L 281.903345 287.642265 
L 281.434916 288.21825 
" clip-path="url(#pdd54a9a4a7)" style="fill: none; stroke: #deebf7; stroke-width: 1.5"/>
    <path d="M 391.360625 110.054718 
L 390.794952 110.81025 
L 389.575025 112.540092 
L 388.903133 113.47137 
L 387.753713 115.18729 
L 387.103295 116.13249 
L 385.968113 117.94916 
L 385.422354 118.79361 
L 384.182513 120.958537 
L 383.886225 121.45473 
L 382.538579 124.11585 
L 382.396913 124.486967 
L 381.459789 126.77697 
L 380.688963 129.43809 
L 380.575601 130.978032 
L 380.482059 132.09921 
L 380.575601 132.457638 
L 381.796202 135.20385 
L 382.396913 135.677906 
L 384.182513 136.614791 
L 385.968113 137.212756 
L 387.753713 137.644385 
L 388.830713 137.86497 
L 389.575025 137.985106 
L 391.360625 138.272907 
" clip-path="url(#pdd54a9a4a7)" style="fill: none; stroke: #deebf7; stroke-width: 1.5"/>
    <path d="M 204.634564 129.43809 
L 204.729713 131.680432 
L 205.214087 132.09921 
L 206.515313 132.155237 
L 206.62046 132.09921 
L 208.300913 130.990731 
L 210.122225 129.669555 
L 210.373935 129.43809 
L 211.907825 127.83801 
L 212.948992 126.77697 
L 213.693425 125.90074 
L 215.258368 124.11585 
L 215.479025 123.817457 
L 217.275503 121.45473 
L 217.300337 121.414828 
L 218.967254 118.79361 
L 219.085937 118.546005 
L 220.257774 116.13249 
L 220.871537 114.200593 
L 221.101194 113.47137 
L 220.871537 112.47963 
L 219.085937 111.864847 
L 217.300337 112.765218 
L 216.345129 113.47137 
L 215.479025 114.216607 
L 213.693425 115.855894 
L 213.425008 116.13249 
L 211.907825 117.897055 
L 211.116778 118.79361 
L 210.122225 120.089384 
L 209.04901 121.45473 
L 208.300913 122.569234 
L 207.241972 124.11585 
L 206.515313 125.426574 
L 205.756257 126.77697 
L 204.729713 129.211676 
L 204.634564 129.43809 
z
" clip-path="url(#pdd54a9a4a7)" style="fill: none; stroke: #deebf7; stroke-width: 1.5"/>
   </g>
   <g id="PathCollection_3">
    <path d="M 34.240625 132.043897 
L 35.363946 129.43809 
L 36.026225 128.076029 
L 36.654647 126.77697 
L 37.847537 124.564187 
L 38.08918 124.11585 
L 39.633137 121.497802 
L 39.65864 121.45473 
L 41.347982 118.79361 
L 41.418737 118.688213 
L 43.148177 116.13249 
L 43.204337 116.052837 
L 45.025649 113.491128 
L 45.039795 113.47137 
L 46.811249 111.062927 
L 46.998882 110.81025 
L 48.596849 108.695024 
L 49.013347 108.14913 
L 50.382449 106.372131 
L 51.070261 105.48801 
L 52.203761 104.038487 
L 53.160614 102.82689 
L 53.989361 101.777331 
L 55.275294 100.16577 
L 55.774961 99.537269 
L 57.408023 97.50465 
L 57.560561 97.313547 
L 59.381873 95.044356 
L 59.543836 94.84353 
L 61.167473 92.81449 
L 61.677921 92.18241 
L 62.953073 90.588963 
L 63.81537 89.52129 
L 64.738673 88.361343 
L 66.315838 86.41665 
L 66.559985 86.111493 
L 68.345585 83.893987 
L 68.457351 83.75553 
L 70.131185 81.664822 
L 70.592098 81.09441 
L 71.916785 79.441437 
L 72.732123 78.43329 
L 73.738097 77.179778 
L 74.878327 75.77217 
L 75.523697 74.967902 
L 77.028537 73.11105 
L 77.309297 72.761022 
L 79.094897 70.552016 
L 79.177501 70.44993 
L 80.916209 68.281892 
L 81.31496 67.78881 
L 82.701809 66.056748 
L 83.452435 65.12769 
L 84.487409 63.834244 
L 85.592081 62.46657 
L 86.273009 61.615685 
L 87.735233 59.80545 
L 88.094321 59.35732 
L 89.879921 57.150213 
L 89.884679 57.14433 
L 91.665521 54.924995 
L 92.023361 54.48321 
L 93.451121 52.705325 
L 94.166928 51.82209 
L 95.272433 50.446576 
L 96.315326 49.16097 
L 97.058033 48.236464 
L 98.467277 46.49985 
L 98.843633 46.029225 
L 100.629233 43.82187 
L 100.977299 43.39521 
L 102.450545 41.569905 
L 103.132348 40.73409 
L 104.236145 39.373348 
L 105.304548 38.07297 
L 106.021745 37.196862 
L 107.505274 35.41185 
L 107.807345 35.047817 
L 109.628657 32.884615 
L 109.742414 32.75073 
L 111.414257 30.788978 
L 112.023687 30.08961 
L 113.199857 28.747141 
L 114.387965 27.42849 
L 114.985457 26.770502 
L 116.806769 24.830356 
L 116.866979 24.76737 
L 118.592369 22.986116 
L 119.48495 22.10625 
" clip-path="url(#pdd54a9a4a7)" style="fill: none; stroke: #c6dbef; stroke-width: 1.5"/>
    <path d="M 128.121015 288.21825 
L 127.909015 285.55713 
L 128.034019 282.89601 
L 128.437507 280.23489 
L 129.341681 276.67586 
L 129.854746 274.91265 
L 134.734193 260.106832 
L 135.817319 255.84129 
L 138.901823 242.53569 
L 140.126705 238.592744 
L 140.59585 237.21345 
L 141.912305 233.956802 
L 143.697905 230.185794 
L 145.519217 226.913381 
L 147.381771 223.90785 
L 150.876017 218.741208 
L 155.291308 212.81985 
L 158.054129 209.269687 
L 179.588465 182.816016 
L 188.848595 172.45953 
L 193.944689 167.116581 
L 209.067153 151.17057 
L 215.479025 143.894592 
L 220.871537 137.488191 
L 226.264049 130.76975 
L 229.835249 126.10616 
L 233.442161 121.048248 
L 235.227761 118.302581 
L 237.013361 115.281742 
L 238.834673 111.774586 
L 239.29874 110.81025 
L 240.620273 107.638266 
L 242.232782 102.82689 
L 243.590061 97.50465 
L 246.291147 86.41665 
L 247.798385 81.844466 
L 248.071566 81.09441 
L 249.583985 77.515676 
L 251.369585 73.944377 
L 253.190897 70.790333 
L 255.102037 67.78881 
L 258.823606 62.46657 
L 262.896494 57.14433 
L 265.725809 53.673816 
L 272.903921 45.434544 
L 282.546949 35.41185 
L 289.081457 29.101137 
L 296.259569 22.562768 
L 296.780217 22.10625 
L 296.780217 22.10625 
" clip-path="url(#pdd54a9a4a7)" style="fill: none; stroke: #c6dbef; stroke-width: 1.5"/>
    <path d="M 262.908043 22.10625 
L 263.406335 24.76737 
L 263.554875 27.42849 
L 263.395987 30.08961 
L 262.947383 32.75073 
L 262.154609 35.522504 
L 261.254631 38.07297 
L 260.039904 40.73409 
L 258.547697 43.517801 
L 256.749537 46.49985 
L 253.112888 51.82209 
L 249.067892 57.14433 
L 246.012785 60.899401 
L 238.834673 69.099689 
L 231.656561 76.710262 
L 222.281065 86.41665 
L 214.543957 94.84353 
L 208.300913 102.040125 
L 202.944113 108.491006 
L 197.551601 115.326624 
L 194.948742 118.79361 
L 191.251949 124.11585 
L 188.587889 128.516339 
L 188.067611 129.43809 
L 186.704694 132.09921 
L 184.980977 136.179983 
L 184.360965 137.86497 
L 183.195377 141.618225 
L 182.116444 145.84833 
L 179.54925 156.49281 
L 178.786557 159.15393 
L 176.832885 164.47617 
L 175.621791 167.13729 
L 172.755237 172.45953 
L 170.624753 175.899794 
L 167.053553 180.980883 
L 161.091309 188.86977 
L 156.268529 194.941575 
L 150.428487 202.17537 
L 145.519217 208.264973 
L 134.734193 220.923504 
L 131.162993 224.923972 
L 121.974828 234.55233 
L 111.414257 245.628026 
L 106.021745 251.617304 
L 100.050404 258.50241 
L 82.701809 278.875244 
L 78.976187 282.89601 
L 75.523697 286.390426 
L 73.569496 288.21825 
L 73.569496 288.21825 
" clip-path="url(#pdd54a9a4a7)" style="fill: none; stroke: #c6dbef; stroke-width: 1.5"/>
    <path d="M 306.332904 288.21825 
L 306.103359 285.55713 
L 306.237813 282.89601 
L 306.676574 280.23489 
L 307.008881 278.946913 
L 307.344462 277.57377 
L 308.174134 274.91265 
L 308.794481 273.184834 
L 309.115394 272.25153 
L 310.086935 269.59041 
L 310.615793 268.160165 
L 311.053477 266.92929 
L 312.115412 263.82465 
L 312.401393 262.919761 
L 312.935824 261.16353 
L 313.679263 258.50241 
L 314.186993 256.532097 
L 314.358754 255.84129 
L 314.961172 253.18017 
L 315.554595 250.51905 
L 315.972593 248.68237 
L 316.154964 247.85793 
L 316.766242 245.19681 
L 317.473162 242.53569 
L 317.793905 241.461857 
L 318.263108 239.87457 
L 319.18578 237.21345 
L 319.579505 236.221923 
L 320.247452 234.55233 
L 321.365105 232.195881 
L 321.511827 231.89121 
L 322.930752 229.23009 
L 323.150705 228.855756 
L 324.532265 226.56897 
L 324.972017 225.907297 
L 326.343026 223.90785 
L 326.757617 223.335436 
L 328.543217 221.011691 
L 328.706367 220.80321 
L 330.328817 218.80184 
L 330.878259 218.14209 
L 332.150129 216.681184 
L 333.22118 215.48097 
L 333.935729 214.710388 
L 335.721329 212.827463 
L 335.72831 212.81985 
L 337.506929 210.934499 
L 338.249142 210.15873 
L 339.328241 209.061891 
L 340.882111 207.49761 
L 341.113841 207.269219 
L 342.899441 205.45616 
L 343.507369 204.83649 
L 344.685041 203.648101 
L 346.150802 202.17537 
L 346.506353 201.819971 
L 348.291953 200.001237 
L 348.766808 199.51425 
L 350.077553 198.160787 
L 351.354207 196.85313 
L 351.863153 196.323915 
L 353.684465 194.43088 
L 353.913423 194.19201 
L 355.470065 192.525716 
L 356.41491 191.53089 
L 357.255665 190.612305 
L 358.881382 188.86977 
L 359.041265 188.689532 
L 360.862577 186.655269 
L 361.271296 186.20865 
L 362.648177 184.601548 
L 363.578188 183.54753 
L 364.433777 182.494846 
L 365.783863 180.88641 
L 366.219377 180.314301 
L 367.867211 178.22529 
L 368.040689 177.976716 
L 369.826289 175.523055 
L 370.134751 175.12065 
L 371.611889 172.934774 
L 371.952273 172.45953 
L 373.397489 170.222735 
L 373.691903 169.79841 
L 375.218801 167.425355 
L 375.42137 167.13729 
L 377.004401 164.807656 
L 377.256239 164.47617 
L 378.790001 162.487219 
L 379.387297 161.81505 
L 380.575601 160.553991 
L 382.159725 159.15393 
L 382.396913 158.961918 
L 384.182513 157.771424 
L 385.968113 156.863113 
L 386.981957 156.49281 
L 387.753713 156.234619 
L 389.575025 155.864911 
L 391.360625 155.740982 
" clip-path="url(#pdd54a9a4a7)" style="fill: none; stroke: #c6dbef; stroke-width: 1.5"/>
    <path d="M 391.360625 95.282311 
L 377.004401 113.609668 
L 371.156621 121.45473 
L 359.041265 138.20714 
L 353.684465 144.99226 
L 348.394596 151.17057 
L 342.899441 157.552309 
L 339.328241 161.843936 
L 335.313624 167.13729 
L 333.490606 169.79841 
L 331.826267 172.45953 
L 330.328817 175.12349 
L 328.543217 178.924302 
L 327.746071 180.88641 
L 326.757617 183.654511 
L 325.292651 188.86977 
L 322.027596 202.17537 
L 320.180564 207.49761 
L 319.028471 210.15873 
L 317.677483 212.81985 
L 315.972593 215.797565 
L 314.186993 218.549987 
L 310.615793 223.339467 
L 307.915506 226.56897 
L 303.04641 231.89121 
L 290.51059 245.19681 
L 285.474545 251.067642 
L 281.769424 255.84129 
L 279.905155 258.50241 
L 278.193004 261.16353 
L 276.510833 264.083394 
L 274.725233 267.615009 
L 272.700691 272.25153 
L 269.332721 280.63957 
L 267.547121 284.382712 
L 266.93341 285.55713 
L 265.291166 288.21825 
L 265.291166 288.21825 
" clip-path="url(#pdd54a9a4a7)" style="fill: none; stroke: #c6dbef; stroke-width: 1.5"/>
   </g>
   <g id="PathCollection_4">
    <path d="M 34.240625 154.750028 
L 34.615814 153.83169 
L 35.619001 151.17057 
L 36.026225 150.006398 
L 36.542371 148.50945 
L 37.408289 145.84833 
L 37.847537 144.463368 
L 38.247556 143.18721 
L 39.092797 140.52609 
L 39.633137 138.91718 
L 39.984263 137.86497 
L 40.951217 135.20385 
L 41.418737 134.054387 
L 42.216143 132.09921 
L 43.204337 129.955544 
L 43.443642 129.43809 
L 44.809832 126.77697 
L 45.025649 126.393801 
L 46.316758 124.11585 
L 46.811249 123.310183 
L 47.958811 121.45473 
L 48.596849 120.485888 
L 49.720222 118.79361 
L 50.382449 117.842182 
L 51.581477 116.13249 
L 52.203761 115.275572 
L 53.523248 113.47137 
L 53.989361 112.849147 
L 55.527169 110.81025 
L 55.774961 110.486983 
L 57.560561 108.172063 
L 57.578294 108.14913 
L 59.381873 105.84205 
L 59.660041 105.48801 
L 61.167473 103.581423 
L 61.766996 102.82689 
L 62.953073 101.338263 
L 63.891682 100.16577 
L 64.738673 99.107535 
L 66.027126 97.50465 
L 66.559985 96.840373 
L 68.168365 94.84353 
L 68.345585 94.622617 
L 70.131185 92.402111 
L 70.308071 92.18241 
L 71.916785 90.177039 
L 72.44446 89.52129 
L 73.738097 87.905364 
L 74.938594 86.41665 
L 75.523697 85.687341 
L 77.080131 83.75553 
L 77.309297 83.470181 
L 79.094897 81.254002 
L 79.223595 81.09441 
L 80.916209 78.99127 
L 81.36683 78.43329 
L 82.701809 76.775056 
L 83.512203 75.77217 
L 84.487409 74.560348 
L 85.658113 73.11105 
L 86.273009 72.346104 
L 87.802795 70.44993 
L 88.094321 70.086865 
L 89.879921 67.870038 
L 89.94534 67.78881 
L 91.665521 65.645119 
L 92.082071 65.12769 
L 93.451121 63.421733 
L 94.22034 62.46657 
L 95.272433 61.157025 
L 96.362517 59.80545 
L 97.058033 58.940668 
L 98.509138 57.14433 
L 98.843633 56.728876 
L 100.629233 54.52062 
L 100.659477 54.48321 
L 102.450545 52.262027 
L 102.806512 51.82209 
L 104.236145 50.049223 
L 104.955257 49.16097 
L 106.021745 47.839413 
L 107.107721 46.49985 
L 107.807345 45.633282 
L 109.628657 43.39969 
L 109.632313 43.39521 
L 111.414257 41.212652 
L 111.807684 40.73409 
L 113.199857 39.04837 
L 114.012983 38.07297 
L 114.985457 36.915322 
L 116.264286 35.41185 
L 116.806769 34.781358 
L 118.583441 32.75073 
L 118.592369 32.740673 
L 120.377969 30.755908 
L 120.991165 30.08961 
L 122.163569 28.843312 
L 123.535703 27.42849 
L 123.984881 26.977347 
L 125.770481 25.240172 
L 126.273272 24.76737 
L 127.556081 23.599695 
L 129.288608 22.10625 
" clip-path="url(#pdd54a9a4a7)" style="fill: none; stroke: #9dcae1; stroke-width: 1.5"/>
    <path d="M 137.905699 288.21825 
L 137.291116 285.55713 
L 137.146347 282.89601 
L 137.36593 280.23489 
L 137.862849 277.57377 
L 139.374914 272.25153 
L 142.991142 261.16353 
L 145.519217 252.290138 
L 146.837039 247.85793 
L 148.749578 242.53569 
L 149.892775 239.87457 
L 151.190352 237.21345 
L 152.697329 234.452621 
L 154.482929 231.482493 
L 157.765334 226.56897 
L 161.999896 220.80321 
L 168.228976 212.81985 
L 179.588465 198.662015 
L 198.747501 175.12065 
L 210.122225 161.575939 
L 222.657137 146.53328 
L 231.822014 135.20385 
L 238.265535 126.77697 
L 241.983543 121.45473 
L 244.191473 117.918537 
L 246.012785 114.664036 
L 247.798385 111.023811 
L 247.898092 110.81025 
L 249.583985 106.588743 
L 250.867513 102.82689 
L 255.028494 89.52129 
L 256.762097 85.262515 
L 258.547697 81.570512 
L 258.791069 81.09441 
L 260.369009 78.298908 
L 263.673771 73.11105 
L 267.547121 67.697302 
L 273.62477 59.80545 
L 280.082033 51.808347 
L 287.260145 43.124897 
L 293.935527 35.41185 
L 298.897926 30.08961 
L 301.616369 27.383755 
L 305.223281 24.059893 
L 307.545126 22.10625 
L 307.545126 22.10625 
" clip-path="url(#pdd54a9a4a7)" style="fill: none; stroke: #9dcae1; stroke-width: 1.5"/>
    <path d="M 252.08276 22.10625 
L 252.704466 24.76737 
L 252.812589 27.42849 
L 252.492818 30.08961 
L 251.803613 32.75073 
L 250.804105 35.41185 
L 249.53455 38.07297 
L 247.798385 41.153915 
L 246.012785 43.979252 
L 242.371456 49.16097 
L 237.013361 56.143215 
L 229.755832 65.12769 
L 220.871537 75.828527 
L 202.742719 97.50465 
L 193.944689 108.385438 
L 187.988491 116.13249 
L 184.210547 121.45473 
L 181.409777 125.877634 
L 179.588465 129.110932 
L 179.410957 129.43809 
L 177.802865 132.800778 
L 176.017265 137.198771 
L 174.875688 140.52609 
L 170.624753 154.123187 
L 168.839153 158.537989 
L 168.570808 159.15393 
L 167.053553 162.228716 
L 165.232241 165.495312 
L 162.531287 169.79841 
L 158.79012 175.12065 
L 154.416353 180.88641 
L 147.304817 189.880845 
L 119.717695 223.90785 
L 109.628657 235.934166 
L 95.201493 253.18017 
L 80.916209 270.364065 
L 75.523697 276.447719 
L 71.8756 280.23489 
L 68.345585 283.560059 
L 64.738673 286.54012 
L 62.406591 288.21825 
L 62.406591 288.21825 
" clip-path="url(#pdd54a9a4a7)" style="fill: none; stroke: #9dcae1; stroke-width: 1.5"/>
    <path d="M 316.389695 288.21825 
L 315.972593 286.465014 
L 315.768216 285.55713 
L 315.623369 282.89601 
L 315.850951 280.23489 
L 315.972593 279.612072 
L 316.356063 277.57377 
L 317.059546 274.91265 
L 317.793905 272.581326 
L 317.894945 272.25153 
L 318.783645 269.59041 
L 319.579505 267.267691 
L 319.692904 266.92929 
L 320.711938 263.82465 
L 321.365105 261.748772 
L 321.545929 261.16353 
L 322.326436 258.50241 
L 323.085178 255.84129 
L 323.150705 255.607644 
L 323.822992 253.18017 
L 324.588701 250.51905 
L 324.972017 249.274718 
L 325.406127 247.85793 
L 326.308099 245.19681 
L 326.757617 244.017775 
L 327.324164 242.53569 
L 328.483575 239.87457 
L 328.543217 239.751082 
L 329.780054 237.21345 
L 330.328817 236.203929 
L 331.23709 234.55233 
L 332.150129 233.035266 
L 332.84792 231.89121 
L 333.935729 230.227567 
L 334.597542 229.23009 
L 335.721329 227.623595 
L 336.47005 226.56897 
L 337.506929 225.165124 
L 338.448831 223.90785 
L 339.328241 222.766737 
L 340.878566 220.80321 
L 341.113841 220.51113 
L 342.899441 218.317377 
L 343.043219 218.14209 
L 344.685041 216.173028 
L 345.269908 215.48097 
L 346.506353 214.037793 
L 347.564098 212.81985 
L 348.291953 211.989736 
L 349.920468 210.15873 
L 350.077553 209.983182 
L 351.863153 208.00061 
L 352.322313 207.49761 
L 353.684465 206.008112 
L 354.77526 204.83649 
L 355.470065 204.088124 
L 357.255665 202.203091 
L 357.282316 202.17537 
L 359.041265 200.331518 
L 359.842422 199.51425 
L 360.862577 198.460217 
L 362.467707 196.85313 
L 362.648177 196.668793 
L 364.433777 194.899777 
L 365.177505 194.19201 
L 366.219377 193.170686 
L 367.973554 191.53089 
L 368.040689 191.465495 
L 369.826289 189.812039 
L 370.908005 188.86977 
L 371.611889 188.22076 
L 373.397489 186.685473 
L 374.000163 186.20865 
L 375.218801 185.169522 
L 377.004401 183.784818 
L 377.349493 183.54753 
L 378.790001 182.460344 
L 380.575601 181.285089 
L 381.306224 180.88641 
L 382.396913 180.222215 
L 384.182513 179.375177 
L 385.968113 178.781955 
L 387.753713 178.478729 
L 389.575025 178.517502 
L 391.360625 178.958801 
" clip-path="url(#pdd54a9a4a7)" style="fill: none; stroke: #9dcae1; stroke-width: 1.5"/>
    <path d="M 391.360625 84.011607 
L 385.968113 91.187455 
L 378.790001 100.274364 
L 364.170395 118.79361 
L 349.261728 137.86497 
L 341.113841 147.868066 
L 333.935729 156.715292 
L 330.014749 161.81505 
L 326.261695 167.13729 
L 324.565818 169.79841 
L 323.013167 172.45953 
L 321.365105 175.667972 
L 319.579505 179.732523 
L 318.168437 183.54753 
L 316.510306 188.86977 
L 314.04898 196.85313 
L 312.401393 201.214465 
L 312.008275 202.17537 
L 310.615793 205.159236 
L 308.794481 208.578311 
L 307.008881 211.560922 
L 304.417089 215.48097 
L 300.517518 220.80321 
L 295.961684 226.56897 
L 289.081457 234.879079 
L 280.588205 245.19681 
L 276.457043 250.51905 
L 272.676397 255.84129 
L 270.959036 258.50241 
L 269.332721 261.242847 
L 267.547121 264.616362 
L 265.234037 269.59041 
L 260.689278 280.23489 
L 259.295579 282.89601 
L 257.63639 285.55713 
L 255.605836 288.21825 
L 255.605836 288.21825 
" clip-path="url(#pdd54a9a4a7)" style="fill: none; stroke: #9dcae1; stroke-width: 1.5"/>
   </g>
   <g id="PathCollection_5">
    <path d="M 34.240625 170.505946 
L 34.569711 169.79841 
L 35.859904 167.13729 
L 36.026225 166.79895 
L 37.169501 164.47617 
L 37.847537 163.072794 
L 38.454899 161.81505 
L 39.633137 159.258569 
L 39.681293 159.15393 
L 40.829316 156.49281 
L 41.418737 155.009634 
L 41.885818 153.83169 
L 42.854452 151.17057 
L 43.204337 150.134228 
L 43.753094 148.50945 
L 44.604343 145.84833 
L 45.025649 144.508341 
L 45.44297 143.18721 
L 46.303464 140.52609 
L 46.811249 139.051134 
L 47.22319 137.86497 
L 48.234403 135.20385 
L 48.596849 134.352882 
L 49.567902 132.09921 
L 50.382449 130.415079 
L 50.860799 129.43809 
L 52.203761 126.951073 
L 52.298929 126.77697 
L 53.880634 124.11585 
L 53.989361 123.945346 
L 55.592215 121.45473 
L 55.774961 121.186 
L 57.414185 118.79361 
L 57.560561 118.588709 
L 59.325648 116.13249 
L 59.381873 116.056627 
L 61.167473 113.658645 
L 61.30743 113.47137 
L 62.953073 111.318154 
L 63.342129 110.81025 
L 64.738673 109.017154 
L 65.415714 108.14913 
L 66.559985 106.699714 
L 67.517323 105.48801 
L 68.345585 104.448678 
L 69.638269 102.82689 
L 70.131185 102.211898 
L 71.770828 100.16577 
L 71.916785 99.984169 
L 73.738097 97.718607 
L 73.909915 97.50465 
L 75.523697 95.499239 
L 76.050398 94.84353 
L 77.309297 93.278162 
L 78.18904 92.18241 
L 79.094897 91.055408 
L 80.32638 89.52129 
L 80.916209 88.787891 
L 82.701809 86.564832 
L 82.820645 86.41665 
L 84.487409 84.34717 
L 84.963185 83.75553 
L 86.273009 82.131404 
L 87.108292 81.09441 
L 88.094321 79.872724 
L 89.254723 78.43329 
L 89.879921 77.658621 
L 91.400541 75.77217 
L 91.665521 75.443493 
L 93.451121 73.227023 
L 93.544447 73.11105 
L 95.272433 70.965057 
L 95.686376 70.44993 
L 97.058033 68.744693 
L 97.825571 67.78881 
L 98.843633 66.522917 
L 99.964227 65.12769 
L 100.629233 64.301468 
L 102.104867 62.46657 
L 102.450545 62.037686 
L 104.236145 59.821193 
L 104.248823 59.80545 
L 106.021745 57.61093 
L 106.398119 57.14433 
L 107.807345 55.401488 
L 108.548901 54.48321 
L 109.628657 53.148381 
L 110.700443 51.82209 
L 111.414257 50.940459 
L 112.854371 49.16097 
L 113.199857 48.735339 
L 114.985457 46.53703 
L 115.015689 46.49985 
L 116.806769 44.315366 
L 117.561413 43.39521 
L 118.592369 42.153536 
L 119.775874 40.73409 
L 120.377969 40.022767 
L 122.040596 38.07297 
L 122.163569 37.931563 
L 123.984881 35.861359 
L 124.38496 35.41185 
L 125.770481 33.899258 
L 126.840941 32.75073 
L 127.556081 32.009396 
L 129.341681 30.203441 
L 129.456955 30.08961 
L 131.162993 28.479522 
L 132.317658 27.42849 
L 132.948593 26.882011 
L 134.734193 25.400758 
L 135.533626 24.76737 
L 136.519793 24.029093 
L 138.341105 22.743494 
L 139.300276 22.10625 
" clip-path="url(#pdd54a9a4a7)" style="fill: none; stroke: #6aaed6; stroke-width: 1.5"/>
    <path d="M 147.926954 288.21825 
L 146.511754 285.55713 
L 145.839621 282.89601 
L 145.697914 280.23489 
L 145.937821 277.57377 
L 146.440537 274.91265 
L 147.882501 269.59041 
L 151.961167 255.84129 
L 153.563363 250.51905 
L 155.465548 245.19681 
L 156.598124 242.53569 
L 158.054129 239.535874 
L 159.875441 236.234547 
L 162.579057 231.89121 
L 166.304988 226.56897 
L 170.661709 220.80321 
L 179.105294 210.15873 
L 204.871277 178.22529 
L 240.620273 134.119524 
L 244.191473 129.417703 
L 247.970897 124.11585 
L 251.369585 118.757217 
L 253.190897 115.437583 
L 254.976497 111.711857 
L 255.381429 110.81025 
L 257.410776 105.48801 
L 262.771182 89.52129 
L 264.138533 86.41665 
L 265.725809 83.284825 
L 267.547121 80.097199 
L 270.309404 75.77217 
L 274.09492 70.44993 
L 278.296433 64.934031 
L 286.62779 54.48321 
L 296.259569 42.739595 
L 301.616369 36.55205 
L 305.223281 32.670107 
L 308.794481 29.16861 
L 312.401393 26.019577 
L 314.186993 24.60655 
L 317.775765 22.10625 
L 317.775765 22.10625 
" clip-path="url(#pdd54a9a4a7)" style="fill: none; stroke: #6aaed6; stroke-width: 1.5"/>
    <path d="M 241.690662 22.10625 
L 243.02557 24.76737 
L 243.560549 27.42849 
L 243.494157 30.08961 
L 242.955181 32.75073 
L 242.036486 35.41185 
L 240.620273 38.423613 
L 238.834673 41.56039 
L 237.013361 44.395679 
L 233.651155 49.16097 
L 228.049649 56.424101 
L 220.871537 65.381941 
L 204.729713 85.128378 
L 188.261267 105.48801 
L 182.085124 113.47137 
L 177.802865 119.437983 
L 174.779365 124.11585 
L 172.410353 128.363982 
L 171.851259 129.43809 
L 170.605336 132.09921 
L 168.839153 136.514667 
L 167.453961 140.52609 
L 164.023572 151.17057 
L 163.010379 153.83169 
L 161.661041 156.939193 
L 159.875441 160.500654 
L 158.054129 163.700527 
L 155.886081 167.13729 
L 152.159879 172.45953 
L 147.304817 178.867164 
L 139.359901 188.86977 
L 113.199857 221.287912 
L 91.441516 247.85793 
L 79.094897 262.749969 
L 73.738097 268.908681 
L 70.131185 272.780208 
L 66.559985 276.279774 
L 62.953073 279.39914 
L 61.167473 280.767383 
L 57.560561 283.134267 
L 53.989361 284.916783 
L 52.203761 285.613852 
L 50.382449 286.149724 
L 48.596849 286.530993 
L 46.811249 286.761307 
L 45.025649 286.830029 
L 43.204337 286.719909 
L 41.418737 286.418833 
L 38.777002 285.55713 
L 37.847537 285.112832 
L 36.026225 283.947242 
L 34.240625 282.383867 
L 34.240625 282.383867 
" clip-path="url(#pdd54a9a4a7)" style="fill: none; stroke: #6aaed6; stroke-width: 1.5"/>
    <path d="M 326.479556 288.21825 
L 325.054898 285.55713 
L 324.972017 285.254413 
L 324.387023 282.89601 
L 324.246571 280.23489 
L 324.486214 277.57377 
L 324.972017 275.010062 
L 324.990081 274.91265 
L 325.669577 272.25153 
L 326.442034 269.59041 
L 326.757617 268.565566 
L 327.256233 266.92929 
L 328.205423 263.82465 
L 328.543217 262.695536 
L 329.000114 261.16353 
L 329.773889 258.50241 
L 330.328817 256.574808 
L 330.540802 255.84129 
L 331.323929 253.18017 
L 332.150129 250.521565 
L 332.150918 250.51905 
L 333.056177 247.85793 
L 333.935729 245.537739 
L 334.066821 245.19681 
L 335.209245 242.53569 
L 335.721329 241.470206 
L 336.500572 239.87457 
L 337.506929 238.014344 
L 337.947562 237.21345 
L 339.328241 234.912543 
L 339.548027 234.55233 
L 341.113841 232.159172 
L 341.291978 231.89121 
L 342.899441 229.601347 
L 343.164005 229.23009 
L 344.685041 227.182486 
L 345.147415 226.56897 
L 346.506353 224.821899 
L 347.22752 223.90785 
L 348.291953 222.592411 
L 349.762452 220.80321 
L 350.077553 220.427238 
L 351.863153 218.329027 
L 352.024943 218.14209 
L 353.684465 216.251214 
L 354.373431 215.48097 
L 355.470065 214.267726 
L 356.806736 212.81985 
L 357.255665 212.336933 
L 359.041265 210.463499 
L 359.340522 210.15873 
L 360.862577 208.613501 
L 361.998012 207.49761 
L 362.648177 206.858447 
L 364.433777 205.171216 
L 364.805645 204.83649 
L 366.219377 203.558798 
L 367.83089 202.17537 
L 368.040689 201.993656 
L 369.826289 200.556477 
L 371.218545 199.51425 
L 371.611889 199.21543 
L 373.397489 197.993661 
L 375.218801 196.874679 
L 375.260573 196.85313 
L 377.004401 195.931173 
L 378.790001 195.155283 
L 380.575601 194.572373 
L 382.396913 194.212004 
L 382.872094 194.19201 
L 384.182513 194.134572 
L 384.620391 194.19201 
L 385.968113 194.384426 
L 387.753713 195.037246 
L 389.575025 196.212051 
L 390.258273 196.85313 
L 391.360625 198.045647 
" clip-path="url(#pdd54a9a4a7)" style="fill: none; stroke: #6aaed6; stroke-width: 1.5"/>
    <path d="M 391.360625 285.256824 
L 391.122321 285.55713 
L 389.575025 287.166717 
L 388.458211 288.21825 
" clip-path="url(#pdd54a9a4a7)" style="fill: none; stroke: #6aaed6; stroke-width: 1.5"/>
    <path d="M 391.360625 72.120326 
L 389.575025 75.237647 
L 387.54402 78.43329 
L 383.798102 83.75553 
L 378.790001 90.3386 
L 369.826289 101.616468 
L 326.021871 156.49281 
L 322.068101 161.81505 
L 318.473414 167.13729 
L 315.972593 171.399843 
L 314.186993 174.879888 
L 314.068208 175.12065 
L 312.401393 179.00436 
L 310.741792 183.54753 
L 306.378377 196.85313 
L 305.223281 199.697708 
L 303.437681 203.478525 
L 301.616369 206.83063 
L 299.588471 210.15873 
L 295.939619 215.48097 
L 290.867057 222.191347 
L 285.253171 229.23009 
L 274.53036 242.53569 
L 269.332721 249.370683 
L 266.633969 253.18017 
L 263.940209 257.359435 
L 261.732416 261.16353 
L 260.34992 263.82465 
L 257.691297 269.59041 
L 254.976497 275.762952 
L 253.190897 279.28978 
L 252.664576 280.23489 
L 250.934647 282.89601 
L 248.772248 285.55713 
L 246.012785 288.189117 
L 245.978641 288.21825 
L 245.978641 288.21825 
" clip-path="url(#pdd54a9a4a7)" style="fill: none; stroke: #6aaed6; stroke-width: 1.5"/>
    <path d="M 390.60294 22.10625 
L 391.360625 22.938395 
" clip-path="url(#pdd54a9a4a7)" style="fill: none; stroke: #6aaed6; stroke-width: 1.5"/>
   </g>
   <g id="PathCollection_6">
    <path d="M 161.466707 288.21825 
L 159.875441 287.221834 
L 157.73493 285.55713 
L 155.814882 282.89601 
L 154.902966 280.23489 
L 154.625586 277.57377 
L 154.774442 274.91265 
L 155.194444 272.25153 
L 156.441339 266.92929 
L 159.875441 254.597844 
L 161.169312 250.51905 
L 162.128985 247.85793 
L 163.446641 244.670035 
L 165.232241 240.980191 
L 167.053553 237.69611 
L 168.998541 234.55233 
L 172.673841 229.23009 
L 177.802865 222.443528 
L 183.292053 215.48097 
L 224.478449 164.437851 
L 242.405873 142.219251 
L 249.583985 133.0092 
L 253.190897 128.094095 
L 255.919824 124.11585 
L 258.547697 119.843145 
L 260.369009 116.513983 
L 260.571158 116.13249 
L 262.154609 112.754648 
L 263.940209 108.330678 
L 264.94822 105.48801 
L 268.422366 94.84353 
L 269.410849 92.18241 
L 271.118321 88.270581 
L 272.903921 84.734532 
L 274.725233 81.56855 
L 276.718108 78.43329 
L 280.458212 73.11105 
L 285.474545 66.520731 
L 292.652657 57.498182 
L 301.616369 46.493384 
L 307.008881 40.197038 
L 310.615793 36.300635 
L 312.401393 34.500773 
L 314.218447 32.75073 
L 317.793905 29.697711 
L 321.365105 27.09802 
L 325.262588 24.76737 
L 328.543217 23.213407 
L 331.28083 22.10625 
L 331.28083 22.10625 
" clip-path="url(#pdd54a9a4a7)" style="fill: none; stroke: #4191c6; stroke-width: 1.5"/>
    <path d="M 227.843453 22.10625 
L 228.049649 22.225207 
L 229.835249 23.427641 
L 231.656561 25.015225 
L 233.202739 27.42849 
L 233.840172 30.08961 
L 233.741017 32.75073 
L 233.101419 35.41185 
L 231.656561 38.857203 
L 230.705503 40.73409 
L 228.049649 44.996497 
L 226.264049 47.601828 
L 222.657137 52.468829 
L 216.905692 59.80545 
L 201.122801 79.347735 
L 179.588465 106.149218 
L 174.021084 113.47137 
L 170.272293 118.79361 
L 166.951341 124.11585 
L 165.232241 127.287214 
L 163.446641 131.046786 
L 162.977434 132.09921 
L 160.803104 137.86497 
L 156.268529 151.405988 
L 154.482929 155.541844 
L 154.038085 156.49281 
L 152.664807 159.15393 
L 150.876017 162.230677 
L 147.677518 167.13729 
L 143.697905 172.633854 
L 137.289805 180.88641 
L 116.806769 206.37515 
L 93.451121 235.200879 
L 80.860365 250.51905 
L 73.738097 258.81147 
L 69.140411 263.82465 
L 66.062347 266.92929 
L 62.953073 269.777568 
L 59.381873 272.56662 
L 55.774961 274.784528 
L 53.989361 275.601802 
L 52.203761 276.23784 
L 50.382449 276.68411 
L 48.596849 276.890638 
L 46.811249 276.829549 
L 45.025649 276.454629 
L 43.204337 275.692106 
L 41.418737 274.435307 
L 39.515373 272.25153 
L 37.847537 269.005256 
L 37.137842 266.92929 
L 36.365258 263.82465 
L 35.89766 261.16353 
L 35.313019 255.84129 
L 34.972769 250.51905 
L 34.708693 242.53569 
L 34.557054 229.23009 
L 34.554315 210.15873 
L 34.679502 202.17537 
L 34.917341 196.85313 
L 35.39718 191.53089 
L 36.026225 187.435541 
L 36.254837 186.20865 
L 36.876545 183.54753 
L 37.847537 180.234394 
L 38.536919 178.22529 
L 39.758195 175.12065 
L 42.201443 169.79841 
L 46.811249 160.144069 
L 48.361196 156.49281 
L 50.382449 150.963109 
L 54.72874 137.86497 
L 55.785329 135.20385 
L 57.560561 131.390281 
L 59.381873 128.006001 
L 61.744816 124.11585 
L 65.403814 118.79361 
L 70.131185 112.500315 
L 75.645141 105.48801 
L 121.034958 49.16097 
L 128.103379 40.73409 
L 133.004493 35.41185 
L 136.519793 32.055391 
L 140.126705 29.056195 
L 142.343224 27.42849 
L 145.519217 25.449926 
L 147.304817 24.466708 
L 150.876017 22.828835 
L 152.67638 22.10625 
L 152.67638 22.10625 
" clip-path="url(#pdd54a9a4a7)" style="fill: none; stroke: #4191c6; stroke-width: 1.5"/>
    <path d="M 340.271252 288.21825 
L 339.328241 287.688185 
L 337.506929 286.45789 
L 336.395687 285.55713 
L 335.721329 284.7444 
L 334.432809 282.89601 
L 333.935729 281.563994 
L 333.506136 280.23489 
L 333.23118 277.57377 
L 333.375539 274.91265 
L 333.788496 272.25153 
L 333.935729 271.587191 
L 334.377968 269.59041 
L 335.056055 266.92929 
L 335.721329 264.457988 
L 335.892773 263.82465 
L 336.636614 261.16353 
L 337.377837 258.50241 
L 337.506929 258.050298 
L 338.152095 255.84129 
L 338.958376 253.18017 
L 339.328241 252.043859 
L 339.838566 250.51905 
L 340.814065 247.85793 
L 341.113841 247.124637 
L 341.924663 245.19681 
L 342.899441 243.112874 
L 343.177384 242.53569 
L 344.595023 239.87457 
L 344.685041 239.720643 
L 346.188148 237.21345 
L 346.506353 236.721101 
L 347.940996 234.55233 
L 348.291953 234.052996 
L 349.844077 231.89121 
L 350.077553 231.581093 
L 351.863153 229.257756 
L 351.885004 229.23009 
L 353.684465 227.030899 
L 354.071577 226.56897 
L 355.470065 224.947005 
L 356.388461 223.90785 
L 357.255665 222.952966 
L 359.041265 221.033508 
L 359.264729 220.80321 
L 360.862577 219.193426 
L 361.946426 218.14209 
L 362.648177 217.471489 
L 364.433777 215.850672 
L 364.870467 215.48097 
L 366.219377 214.352337 
L 368.040689 212.925781 
L 368.193001 212.81985 
L 369.826289 211.693489 
L 371.611889 210.592528 
L 372.454932 210.15873 
L 373.397489 209.676185 
L 375.218801 208.96171 
L 377.004401 208.497665 
L 378.790001 208.325702 
L 380.575601 208.520716 
L 382.396913 209.197754 
L 383.788674 210.15873 
L 384.182513 210.487846 
L 385.968113 212.724978 
L 386.024589 212.81985 
L 387.315898 215.48097 
L 387.753713 216.637371 
L 388.224094 218.14209 
L 388.883882 220.80321 
L 389.468151 223.90785 
L 389.575025 224.638368 
L 389.827838 226.56897 
L 390.10368 229.23009 
L 390.320308 231.89121 
L 390.490127 234.55233 
L 390.622413 237.21345 
L 390.724011 239.87457 
L 390.800004 242.53569 
L 390.85421 245.19681 
L 390.889311 247.85793 
L 390.906552 250.51905 
L 390.905043 253.18017 
L 390.880827 255.84129 
L 390.825928 258.50241 
L 390.727488 261.16353 
L 390.567028 263.82465 
L 390.267941 266.92929 
L 389.878355 269.59041 
L 389.575025 271.048058 
L 389.310008 272.25153 
L 388.499097 274.91265 
L 387.753713 276.719618 
L 387.374711 277.57377 
L 385.968113 279.980944 
L 385.806391 280.23489 
L 384.182513 282.232845 
L 383.586286 282.89601 
L 382.396913 283.965845 
L 380.575601 285.424747 
L 380.391121 285.55713 
L 378.790001 286.518271 
L 377.004401 287.460426 
L 375.361935 288.21825 
" clip-path="url(#pdd54a9a4a7)" style="fill: none; stroke: #4191c6; stroke-width: 1.5"/>
    <path d="M 377.725666 22.10625 
L 378.790001 22.63804 
L 380.575601 23.664896 
L 382.396913 24.903069 
L 385.026671 27.42849 
L 386.912979 30.08961 
L 388.215945 32.75073 
L 389.11257 35.41185 
L 389.723228 38.07297 
L 390.104679 40.73409 
L 390.318454 43.39521 
L 390.390965 46.49985 
L 390.317776 49.16097 
L 390.124185 51.82209 
L 389.575025 55.848884 
L 389.348068 57.14433 
L 388.733138 59.80545 
L 387.753713 63.054925 
L 387.001112 65.12769 
L 385.866519 67.78881 
L 384.182513 71.089716 
L 382.396913 74.153029 
L 379.605932 78.43329 
L 375.218801 84.467456 
L 369.222412 92.18241 
L 330.459057 140.52609 
L 321.365105 151.930299 
L 315.923692 159.15393 
L 312.256627 164.47617 
L 309.053421 169.79841 
L 307.008881 173.834954 
L 306.402893 175.12065 
L 304.114771 180.88641 
L 301.513577 188.86977 
L 299.712386 194.19201 
L 298.045169 198.316331 
L 296.259569 202.094176 
L 296.219133 202.17537 
L 294.438257 205.377365 
L 291.423843 210.15873 
L 287.647507 215.48097 
L 283.59498 220.80321 
L 263.940209 245.695096 
L 260.369009 250.655492 
L 256.975316 255.84129 
L 253.947512 261.16353 
L 251.134845 266.92929 
L 247.798385 273.987355 
L 247.317607 274.91265 
L 245.770536 277.57377 
L 243.877017 280.23489 
L 241.430491 282.89601 
L 238.834673 285.021884 
L 237.013361 286.216963 
L 233.442161 288.065005 
L 233.088653 288.21825 
L 233.088653 288.21825 
" clip-path="url(#pdd54a9a4a7)" style="fill: none; stroke: #4191c6; stroke-width: 1.5"/>
   </g>
   <g id="PathCollection_7">
    <path d="M 45.008881 250.51905 
L 44.578134 247.85793 
L 44.248221 245.19681 
L 43.99567 242.53569 
L 43.802469 239.87457 
L 43.654391 237.21345 
L 43.540259 234.55233 
L 43.451668 231.89121 
L 43.382744 229.23009 
L 43.329684 226.56897 
L 43.290056 223.90785 
L 43.25843 220.80321 
L 43.242 218.14209 
L 43.233945 215.48097 
L 43.233628 212.81985 
L 43.241964 210.15873 
L 43.26217 207.49761 
L 43.300204 204.83649 
L 43.364829 202.17537 
L 43.467371 199.51425 
L 43.621324 196.85313 
L 43.841847 194.19201 
L 44.145026 191.53089 
L 44.546633 188.86977 
L 45.025649 186.390383 
L 45.062858 186.20865 
L 45.743768 183.54753 
L 46.550523 180.88641 
L 46.811249 180.149738 
L 47.51989 178.22529 
L 48.596849 175.605263 
L 48.80149 175.12065 
L 50.024173 172.45953 
L 50.382449 171.707924 
L 51.313192 169.79841 
L 52.203761 167.960741 
L 52.610652 167.13729 
L 53.884 164.47617 
L 53.989361 164.24585 
L 55.120512 161.81505 
L 55.774961 160.281633 
L 56.266111 159.15393 
L 57.321217 156.49281 
L 57.560561 155.832479 
L 58.306594 153.83169 
L 59.203131 151.17057 
L 59.381873 150.607788 
L 60.072956 148.50945 
L 60.909834 145.84833 
L 61.167473 145.038375 
L 61.780298 143.18721 
L 62.694348 140.52609 
L 62.953073 139.833001 
L 63.716074 137.86497 
L 64.738673 135.438995 
L 64.841437 135.20385 
L 66.355789 132.09921 
L 66.559985 131.721648 
L 67.824744 129.43809 
L 68.345585 128.568954 
L 69.437757 126.77697 
L 70.131185 125.71197 
L 71.181524 124.11585 
L 71.916785 123.056758 
L 73.035198 121.45473 
L 73.738097 120.488842 
L 74.972733 118.79361 
L 75.523697 118.062733 
L 76.973595 116.13249 
L 77.309297 115.698145 
L 79.019572 113.47137 
L 79.094897 113.375653 
L 80.916209 111.059577 
L 81.1111 110.81025 
L 82.701809 108.818981 
L 83.231109 108.14913 
L 84.487409 106.588944 
L 85.36346 105.48801 
L 86.273009 104.363241 
L 87.500823 102.82689 
L 88.094321 102.093423 
L 89.635386 100.16577 
L 89.879921 99.863576 
L 91.665521 97.637295 
L 91.771433 97.50465 
L 93.451121 95.427459 
L 93.917251 94.84353 
L 95.272433 93.165716 
L 96.05674 92.18241 
L 97.058033 90.944473 
L 98.194397 89.52129 
L 98.843633 88.725153 
L 100.629233 86.483544 
L 100.682403 86.41665 
L 102.450545 84.238467 
L 102.837526 83.75553 
L 104.236145 82.034725 
L 104.990082 81.09441 
L 106.021745 79.824075 
L 107.136094 78.43329 
L 107.807345 77.605266 
L 109.274767 75.77217 
L 109.628657 75.334523 
L 111.404705 73.11105 
L 111.414257 73.099233 
L 113.199857 70.890475 
L 113.551324 70.44993 
L 114.985457 68.677512 
L 115.695599 67.78881 
L 116.806769 66.417072 
L 117.838515 65.12769 
L 118.592369 64.199818 
L 119.98277 62.46657 
L 120.377969 61.981166 
L 122.127339 59.80545 
L 122.163569 59.761026 
L 123.984881 57.526428 
L 124.292825 57.14433 
L 125.770481 55.33964 
L 126.462943 54.48321 
L 127.556081 53.154759 
L 128.640252 51.82209 
L 129.341681 50.9781 
L 130.838319 49.16097 
L 131.162993 48.776941 
L 132.948593 46.660185 
L 133.084312 46.49985 
L 134.734193 44.643194 
L 135.824893 43.39521 
L 136.519793 42.646042 
L 138.295809 40.73409 
L 138.341105 40.688231 
L 140.126705 38.930982 
L 141.005822 38.07297 
L 141.912305 37.257959 
L 143.697905 35.687167 
L 144.022766 35.41185 
L 145.519217 34.266291 
L 147.304817 32.942753 
L 147.578561 32.75073 
L 149.090417 31.810083 
L 150.876017 30.759282 
L 152.090336 30.08961 
L 152.697329 29.79587 
L 154.482929 29.004603 
L 156.268529 28.277293 
L 158.054129 27.612998 
L 158.606148 27.42849 
L 159.875441 27.061467 
L 161.661041 26.602871 
L 163.446641 26.197111 
L 165.232241 25.840764 
L 167.053553 25.524487 
L 168.839153 25.256955 
L 170.624753 25.027822 
L 172.410353 24.833438 
L 173.136447 24.76737 
L 174.231665 24.681721 
L 176.017265 24.566691 
L 177.802865 24.47307 
L 179.588465 24.398359 
L 181.409777 24.339399 
L 183.195377 24.296674 
L 184.980977 24.267443 
L 186.766577 24.250666 
L 188.587889 24.245711 
L 190.373489 24.252523 
L 192.159089 24.271056 
L 193.944689 24.301904 
L 195.766001 24.347132 
L 197.551601 24.406501 
L 199.337201 24.482782 
L 201.122801 24.578548 
L 202.944113 24.699613 
L 203.780014 24.76737 
L 204.729713 24.861614 
L 206.515313 25.077457 
L 208.300913 25.341132 
L 210.122225 25.669436 
L 211.907825 26.061621 
L 213.693425 26.538215 
L 215.479025 27.117394 
L 216.283603 27.42849 
L 217.300337 27.997732 
L 219.085937 29.236539 
L 220.081107 30.08961 
L 220.871537 31.39822 
L 221.531676 32.75073 
L 221.777867 35.41185 
L 221.282096 38.07297 
L 220.871537 39.142362 
L 220.270442 40.73409 
L 219.085937 43.050154 
L 218.912156 43.39521 
L 217.300337 45.996193 
L 216.996843 46.49985 
L 215.479025 48.706088 
L 215.170253 49.16097 
L 213.693425 51.174214 
L 213.224749 51.82209 
L 211.907825 53.547988 
L 211.203976 54.48321 
L 210.122225 55.867721 
L 209.137546 57.14433 
L 208.300913 58.20087 
L 207.046196 59.80545 
L 206.515313 60.469558 
L 204.939331 62.46657 
L 204.729713 62.727142 
L 202.944113 64.96456 
L 202.814595 65.12769 
L 201.122801 67.221089 
L 200.669899 67.78881 
L 199.337201 69.430198 
L 198.520448 70.44993 
L 197.551601 71.640453 
L 196.371087 73.11105 
L 195.766001 73.854291 
L 194.224868 75.77217 
L 193.944689 76.116949 
L 192.159089 78.33671 
L 192.081709 78.43329 
L 190.373489 80.538537 
L 189.928862 81.09441 
L 188.587889 82.749694 
L 187.783751 83.75553 
L 186.766577 85.012607 
L 185.644957 86.41665 
L 184.980977 87.230997 
L 183.195377 89.475288 
L 183.158875 89.52129 
L 181.409777 91.678183 
L 181.00625 92.18241 
L 179.588465 93.933096 
L 178.860819 94.84353 
L 177.802865 96.153013 
L 176.725842 97.50465 
L 176.017265 98.387004 
L 174.608233 100.16577 
L 174.231665 100.639036 
L 172.512915 102.82689 
L 172.410353 102.957507 
L 170.624753 105.24371 
L 170.435815 105.48801 
L 168.839153 107.559637 
L 168.390767 108.14913 
L 167.053553 109.924374 
L 166.393981 110.81025 
L 165.232241 112.402151 
L 164.460069 113.47137 
L 163.446641 114.918185 
L 162.604065 116.13249 
L 161.661041 117.555045 
L 160.845675 118.79361 
L 159.875441 120.363807 
L 159.203188 121.45473 
L 158.054129 123.483021 
L 157.694875 124.11585 
L 156.326239 126.77697 
L 156.268529 126.900903 
L 155.07311 129.43809 
L 154.482929 130.859401 
L 153.95816 132.09921 
L 152.80151 135.20385 
L 152.697329 135.511968 
L 151.876122 137.86497 
L 151.023108 140.52609 
L 150.876017 140.994278 
L 150.159654 143.18721 
L 149.288771 145.84833 
L 149.090417 146.417974 
L 148.333028 148.50945 
L 147.304817 151.158476 
L 147.29994 151.17057 
L 146.106695 153.83169 
L 145.519217 155.025995 
L 144.776209 156.49281 
L 143.697905 158.446266 
L 143.298006 159.15393 
L 141.912305 161.426247 
L 141.671331 161.81505 
L 140.126705 164.154297 
L 139.912081 164.47617 
L 138.341105 166.714857 
L 138.043256 167.13729 
L 136.519793 169.214157 
L 136.091202 169.79841 
L 134.734193 171.588057 
L 134.076171 172.45953 
L 132.948593 173.912171 
L 132.0169 175.12065 
L 131.162993 176.194807 
L 129.580928 178.22529 
L 129.341681 178.524562 
L 127.556081 180.771955 
L 127.465371 180.88641 
L 125.770481 182.987107 
L 125.323756 183.54753 
L 123.984881 185.201883 
L 123.179744 186.20865 
L 122.163569 187.46452 
L 121.040166 188.86977 
L 120.377969 189.688442 
L 118.906282 191.53089 
L 118.592369 191.919385 
L 116.806769 194.154044 
L 116.776464 194.19201 
L 114.985457 196.408737 
L 114.630832 196.85313 
L 113.199857 198.620812 
L 112.485765 199.51425 
L 111.414257 200.835262 
L 110.340836 202.17537 
L 109.628657 203.051829 
L 108.195599 204.83649 
L 107.807345 205.314228 
L 106.053791 207.49761 
L 106.021745 207.537036 
L 104.236145 209.73481 
L 103.895919 210.15873 
L 102.450545 211.937917 
L 101.742924 212.81985 
L 100.629233 214.192982 
L 99.597016 215.48097 
L 98.843633 216.409038 
L 97.453647 218.14209 
L 97.058033 218.628541 
L 95.309712 220.80321 
L 95.272433 220.848621 
L 93.451121 223.064764 
L 92.774012 223.90785 
L 91.665521 225.257529 
L 90.600184 226.56897 
L 89.879921 227.442916 
L 88.422167 229.23009 
L 88.094321 229.626818 
L 86.273009 231.847374 
L 86.236904 231.89121 
L 84.487409 233.988139 
L 84.020279 234.55233 
L 82.701809 236.124938 
L 81.794394 237.21345 
L 80.916209 238.253311 
L 79.550561 239.87457 
L 79.094897 240.408763 
L 77.309297 242.499622 
L 77.277869 242.53569 
L 75.523697 244.517007 
L 74.918527 245.19681 
L 73.738097 246.501697 
L 72.498344 247.85793 
L 71.916785 248.48518 
L 70.131185 250.372433 
L 69.986019 250.51905 
L 68.345585 252.149446 
L 67.27945 253.18017 
L 66.559985 253.864684 
L 64.738673 255.510313 
L 64.339744 255.84129 
L 62.953073 256.969797 
L 61.167473 258.319291 
L 60.882501 258.50241 
L 59.381873 259.442523 
L 57.560561 260.392451 
L 55.774961 261.084866 
L 55.367463 261.16353 
L 53.989361 261.419549 
L 52.203761 261.359271 
L 51.553574 261.16353 
L 50.382449 260.715312 
L 48.596849 259.263821 
L 48.008312 258.50241 
L 46.811249 256.455903 
L 46.54725 255.84129 
L 45.661788 253.18017 
L 45.025649 250.601521 
L 45.008881 250.51905 
z
" clip-path="url(#pdd54a9a4a7)" style="fill: none; stroke: #2070b4; stroke-width: 1.5"/>
    <path d="M 165.228953 272.25153 
L 165.232241 272.202739 
L 165.410923 269.59041 
L 165.81522 266.92929 
L 166.43955 263.82465 
L 167.04487 261.16353 
L 167.053553 261.128977 
L 167.738064 258.50241 
L 168.469551 255.84129 
L 168.839153 254.600986 
L 169.279935 253.18017 
L 170.183719 250.51905 
L 170.624753 249.350766 
L 171.209797 247.85793 
L 172.362852 245.19681 
L 172.410353 245.099272 
L 173.695562 242.53569 
L 174.231665 241.557919 
L 175.176428 239.87457 
L 176.017265 238.489098 
L 176.804174 237.21345 
L 177.802865 235.695669 
L 178.56274 234.55233 
L 179.588465 233.086851 
L 180.429552 231.89121 
L 181.409777 230.552383 
L 182.378265 229.23009 
L 183.195377 228.15093 
L 184.388619 226.56897 
L 184.980977 225.805016 
L 186.442613 223.90785 
L 186.766577 223.499909 
L 188.587889 221.185553 
L 188.885742 220.80321 
L 190.373489 218.945945 
L 191.010443 218.14209 
L 192.159089 216.717778 
L 193.144918 215.48097 
L 193.944689 214.492427 
L 195.282345 212.81985 
L 195.766001 212.221981 
L 197.415652 210.15873 
L 197.551601 209.990624 
L 199.337201 207.772643 
L 199.556766 207.49761 
L 201.122801 205.560099 
L 201.700439 204.83649 
L 202.944113 203.296735 
L 203.838954 202.17537 
L 204.729713 201.074559 
L 205.976661 199.51425 
L 206.515313 198.849833 
L 208.11429 196.85313 
L 208.300913 196.623321 
L 210.122225 194.365284 
L 210.261156 194.19201 
L 211.907825 192.166933 
L 212.418063 191.53089 
L 213.693425 189.961164 
L 214.568311 188.86977 
L 215.479025 187.747033 
L 216.711271 186.20865 
L 217.300337 185.480905 
L 218.846138 183.54753 
L 219.085937 183.251324 
L 220.871537 181.026544 
L 220.983473 180.88641 
L 222.657137 178.821829 
L 223.134566 178.22529 
L 224.478449 176.580829 
L 225.641482 175.12065 
L 226.264049 174.355916 
L 227.787635 172.45953 
L 228.049649 172.137975 
L 229.835249 169.925406 
L 229.937346 169.79841 
L 231.656561 167.686015 
L 232.097083 167.13729 
L 233.442161 165.482624 
L 234.248819 164.47617 
L 235.227761 163.269404 
L 236.391407 161.81505 
L 237.013361 161.047292 
L 238.527803 159.15393 
L 238.834673 158.77479 
L 240.620273 156.544657 
L 240.661692 156.49281 
L 242.405873 154.341437 
L 242.813487 153.83169 
L 244.191473 152.132807 
L 244.961875 151.17057 
L 246.012785 149.872765 
L 247.102479 148.50945 
L 247.798385 147.647608 
L 249.231567 145.84833 
L 249.583985 145.409024 
L 251.34247 143.18721 
L 251.369585 143.15308 
L 253.190897 140.853423 
L 253.446929 140.52609 
L 254.976497 138.571425 
L 255.521793 137.86497 
L 256.762097 136.251105 
L 257.556546 135.20385 
L 258.547697 133.888748 
L 259.863976 132.09921 
L 260.369009 131.39968 
L 261.771132 129.43809 
L 262.154609 128.882624 
L 263.595507 126.77697 
L 263.940209 126.247073 
L 265.318041 124.11585 
L 265.725809 123.440178 
L 266.921922 121.45473 
L 267.547121 120.319665 
L 268.390437 118.79361 
L 269.332721 116.897016 
L 269.715939 116.13249 
L 270.909143 113.47137 
L 271.118321 112.950252 
L 271.995163 110.81025 
L 272.903921 108.292196 
L 272.957069 108.14913 
L 273.873411 105.48801 
L 274.716793 102.82689 
L 274.725233 102.800062 
L 275.586964 100.16577 
L 276.460836 97.50465 
L 276.510833 97.363112 
L 277.435979 94.84353 
L 278.296433 92.666079 
L 278.494846 92.18241 
L 279.702391 89.52129 
L 280.082033 88.772375 
L 281.301318 86.41665 
L 281.903345 85.35917 
L 282.835915 83.75553 
L 283.688945 82.391353 
L 284.511508 81.09441 
L 285.474545 79.663846 
L 286.309636 78.43329 
L 287.260145 77.097989 
L 288.20712 75.77217 
L 289.081457 74.592493 
L 290.178481 73.11105 
L 290.867057 72.20972 
L 292.2051 70.44993 
L 292.652657 69.876568 
L 294.270902 67.78881 
L 294.438257 67.577756 
L 296.259569 65.271315 
L 296.372618 65.12769 
L 298.045169 63.046546 
L 298.506134 62.46657 
L 299.830769 60.830483 
L 300.651001 59.80545 
L 301.616369 58.619073 
L 302.802961 57.14433 
L 303.437681 56.367146 
L 304.959531 54.48321 
L 305.223281 54.162327 
L 307.008881 51.975938 
L 307.134265 51.82209 
L 308.794481 49.832174 
L 309.349292 49.16097 
L 310.615793 47.672035 
L 311.605924 46.49985 
L 312.401393 45.600888 
L 314.186993 43.559657 
L 314.332056 43.39521 
L 315.972593 41.650322 
L 316.835149 40.73409 
L 317.793905 39.780491 
L 319.523493 38.07297 
L 319.579505 38.021849 
L 321.365105 36.453281 
L 322.570966 35.41185 
L 323.150705 34.957962 
L 324.972017 33.595029 
L 326.145482 32.75073 
L 326.757617 32.358389 
L 328.543217 31.28566 
L 330.328817 30.271652 
L 330.676105 30.08961 
L 332.150129 29.414244 
L 333.935729 28.665128 
L 335.721329 27.982201 
L 337.325921 27.42849 
L 337.506929 27.374287 
L 339.328241 26.895658 
L 341.113841 26.486384 
L 342.899441 26.13443 
L 344.685041 25.837848 
L 346.506353 25.590537 
L 348.291953 25.400681 
L 350.077553 25.26181 
L 351.863153 25.173348 
L 353.684465 25.135119 
L 355.470065 25.14946 
L 357.255665 25.216815 
L 359.041265 25.339856 
L 360.862577 25.526616 
L 362.648177 25.774783 
L 364.433777 26.093627 
L 366.219377 26.490749 
L 368.040689 26.985905 
L 369.397167 27.42849 
L 369.826289 27.601462 
L 371.611889 28.448999 
L 373.397489 29.451237 
L 374.373843 30.08961 
L 375.218801 30.801334 
L 377.004401 32.545269 
L 377.189208 32.75073 
L 378.790001 35.143023 
L 378.949197 35.41185 
L 380.079087 38.07297 
L 380.575601 39.814651 
L 380.81241 40.73409 
L 381.236252 43.39521 
L 381.459273 46.49985 
L 381.455681 49.16097 
L 381.291602 51.82209 
L 380.974131 54.48321 
L 380.575601 56.730783 
L 380.49792 57.14433 
L 379.825472 59.80545 
L 378.989652 62.46657 
L 378.790001 62.988967 
L 377.939679 65.12769 
L 377.004401 67.168012 
L 376.710269 67.78881 
L 375.291755 70.44993 
L 375.218801 70.573332 
L 373.690422 73.11105 
L 373.397489 73.563305 
L 371.949916 75.77217 
L 371.611889 76.259314 
L 370.095784 78.43329 
L 369.826289 78.802996 
L 368.155738 81.09441 
L 368.040689 81.246802 
L 366.219377 83.660313 
L 366.14751 83.75553 
L 364.433777 85.961928 
L 364.083229 86.41665 
L 362.648177 88.219897 
L 361.635294 89.52129 
L 360.862577 90.486831 
L 359.519138 92.18241 
L 359.041265 92.77584 
L 357.394193 94.84353 
L 357.255665 95.014901 
L 355.470065 97.233134 
L 355.253237 97.50465 
L 353.684465 99.443111 
L 353.106957 100.16577 
L 351.863153 101.705728 
L 350.968784 102.82689 
L 350.077553 103.93113 
L 348.836827 105.48801 
L 348.291953 106.163448 
L 346.709528 108.14913 
L 346.506353 108.400818 
L 344.685041 110.673409 
L 344.57588 110.81025 
L 342.899441 112.881267 
L 342.42783 113.47137 
L 341.113841 115.092443 
L 340.281394 116.13249 
L 339.328241 117.308002 
L 338.137871 118.79361 
L 337.506929 119.572913 
L 336.00118 121.45473 
L 335.721329 121.800725 
L 333.935729 124.029926 
L 333.867099 124.11585 
L 332.150129 126.239991 
L 331.721448 126.77697 
L 330.328817 128.501755 
L 329.581939 129.43809 
L 328.543217 130.722603 
L 327.444003 132.09921 
L 326.757617 132.941211 
L 324.972017 135.186372 
L 324.958129 135.20385 
L 323.150705 137.433067 
L 322.805096 137.86497 
L 321.365105 139.641953 
L 320.6586 140.52609 
L 319.579505 141.863214 
L 318.525953 143.18721 
L 317.793905 144.101045 
L 316.412787 145.84833 
L 315.972593 146.404184 
L 314.327101 148.50945 
L 314.186993 148.688849 
L 312.401393 150.993999 
L 312.265776 151.17057 
L 310.615793 153.331863 
L 310.238987 153.83169 
L 308.794481 155.77692 
L 308.268971 156.49281 
L 307.008881 158.251287 
L 306.368974 159.15393 
L 305.223281 160.832257 
L 304.558127 161.81505 
L 303.437681 163.563103 
L 302.855245 164.47617 
L 301.616369 166.56894 
L 301.280098 167.13729 
L 299.843834 169.79841 
L 299.830769 169.824975 
L 298.524091 172.45953 
L 298.045169 173.550285 
L 297.34483 175.12065 
L 296.259569 177.900489 
L 296.13069 178.22529 
L 295.171118 180.88641 
L 294.438257 183.133836 
L 294.298494 183.54753 
L 293.433579 186.20865 
L 292.652657 188.667394 
L 292.585723 188.86977 
L 291.663883 191.53089 
L 290.867057 193.702864 
L 290.68042 194.19201 
L 289.562897 196.85313 
L 289.081457 197.893031 
L 288.306543 199.51425 
L 287.260145 201.515974 
L 286.906174 202.17537 
L 285.474545 204.632207 
L 285.353171 204.83649 
L 283.688945 207.448467 
L 283.657231 207.49761 
L 281.903345 210.064295 
L 281.838346 210.15873 
L 280.082033 212.598912 
L 279.922711 212.81985 
L 278.296433 214.993005 
L 277.932365 215.48097 
L 276.510833 217.328774 
L 275.889001 218.14209 
L 274.725233 219.625062 
L 273.80791 220.80321 
L 272.903921 221.932008 
L 271.355958 223.90785 
L 271.118321 224.203552 
L 269.332721 226.443111 
L 269.232754 226.56897 
L 267.547121 228.658737 
L 267.092122 229.23009 
L 265.725809 230.928345 
L 264.961345 231.89121 
L 263.940209 233.1675 
L 262.847637 234.55233 
L 262.154609 235.427382 
L 260.759434 237.21345 
L 260.369009 237.71343 
L 258.702687 239.87457 
L 258.547697 240.076956 
L 256.762097 242.429681 
L 256.682204 242.53569 
L 254.976497 244.828146 
L 254.705481 245.19681 
L 253.190897 247.304116 
L 252.796706 247.85793 
L 251.369585 249.937046 
L 250.972997 250.51905 
L 249.583985 252.659093 
L 249.247275 253.18017 
L 247.798385 255.566263 
L 247.631299 255.84129 
L 246.120264 258.50241 
L 246.012785 258.705277 
L 244.693119 261.16353 
L 244.191473 262.164639 
L 243.340716 263.82465 
L 242.405873 265.719641 
L 241.793152 266.92929 
L 240.620273 269.214677 
L 240.418299 269.59041 
L 238.885112 272.25153 
L 238.834673 272.32964 
L 237.046023 274.91265 
L 237.013361 274.953057 
L 235.227761 276.979746 
L 234.654976 277.57377 
L 233.442161 278.618304 
L 231.656561 280.001257 
L 231.319197 280.23489 
L 229.835249 281.083171 
L 228.049649 281.982822 
L 226.264049 282.771884 
L 225.942893 282.89601 
L 224.478449 283.367951 
L 222.657137 283.874541 
L 220.871537 284.300237 
L 219.085937 284.663393 
L 217.300337 284.971102 
L 215.479025 285.234604 
L 213.693425 285.449603 
L 212.611986 285.55713 
L 211.907825 285.616753 
L 210.122225 285.739986 
L 208.300913 285.840494 
L 206.515313 285.91748 
L 204.729713 285.975712 
L 202.944113 286.017241 
L 201.122801 286.043991 
L 199.337201 286.055963 
L 197.551601 286.054359 
L 195.766001 286.039205 
L 193.944689 286.009285 
L 192.159089 285.964746 
L 190.373489 285.903584 
L 188.587889 285.823664 
L 186.766577 285.719958 
L 184.980977 285.593031 
L 184.567337 285.55713 
L 183.195377 285.413012 
L 181.409777 285.18339 
L 179.588465 284.896778 
L 177.802865 284.55428 
L 176.017265 284.138649 
L 174.231665 283.635027 
L 172.410353 283.011751 
L 172.123193 282.89601 
L 170.624753 282.070221 
L 168.839153 280.854573 
L 168.084874 280.23489 
L 167.053553 278.887472 
L 166.230086 277.57377 
L 165.423871 274.91265 
L 165.232241 272.30393 
L 165.228953 272.25153 
z
" clip-path="url(#pdd54a9a4a7)" style="fill: none; stroke: #2070b4; stroke-width: 1.5"/>
    <path d="M 344.332587 274.91265 
L 344.113896 272.25153 
L 344.277197 269.59041 
L 344.66586 266.92929 
L 344.685041 266.836766 
L 345.329251 263.82465 
L 345.974076 261.16353 
L 346.506353 259.120124 
L 346.676103 258.50241 
L 347.469098 255.84129 
L 348.291953 253.243703 
L 348.313337 253.18017 
L 349.308869 250.51905 
L 350.077553 248.644232 
L 350.420291 247.85793 
L 351.707466 245.19681 
L 351.863153 244.908296 
L 353.217205 242.53569 
L 353.684465 241.786471 
L 354.945035 239.87457 
L 355.470065 239.137671 
L 356.917087 237.21345 
L 357.255665 236.791151 
L 359.041265 234.690302 
L 359.168676 234.55233 
L 360.862577 232.80584 
L 361.817369 231.89121 
L 362.648177 231.127044 
L 364.433777 229.638303 
L 365.001852 229.23009 
L 366.219377 228.383844 
L 368.040689 227.332786 
L 369.788108 226.56897 
L 369.826289 226.552756 
L 371.611889 226.158949 
L 373.397489 226.174925 
L 374.671331 226.56897 
L 375.218801 226.783497 
L 377.004401 228.295825 
L 377.678432 229.23009 
L 378.790001 231.260529 
L 379.042684 231.89121 
L 379.873862 234.55233 
L 380.491091 237.21345 
L 380.575601 237.6863 
L 380.90339 239.87457 
L 381.205631 242.53569 
L 381.429513 245.19681 
L 381.590001 247.85793 
L 381.697319 250.51905 
L 381.75655 253.18017 
L 381.766584 255.84129 
L 381.718839 258.50241 
L 381.596062 261.16353 
L 381.371337 263.82465 
L 380.929678 266.92929 
L 380.575601 268.528377 
L 380.316118 269.59041 
L 379.380159 272.25153 
L 378.790001 273.457901 
L 377.994494 274.91265 
L 377.004401 276.256306 
L 375.904415 277.57377 
L 375.218801 278.202689 
L 373.397489 279.656659 
L 372.554224 280.23489 
L 371.611889 280.745715 
L 369.826289 281.564247 
L 368.040689 282.241813 
L 366.219377 282.796739 
L 365.792093 282.89601 
L 364.433777 283.153359 
L 362.648177 283.390655 
L 360.862577 283.529325 
L 359.041265 283.569181 
L 357.255665 283.506328 
L 355.470065 283.337594 
L 353.684465 283.054988 
L 352.979157 282.89601 
L 351.863153 282.560759 
L 350.077553 281.832215 
L 348.291953 280.866295 
L 347.369531 280.23489 
L 346.506353 279.313546 
L 345.227642 277.57377 
L 344.685041 276.090883 
L 344.332587 274.91265 
z
" clip-path="url(#pdd54a9a4a7)" style="fill: none; stroke: #2070b4; stroke-width: 1.5"/>
   </g>
   <g id="PathCollection_8">
    <path d="M 58.968823 220.80321 
L 58.600955 218.14209 
L 58.335424 215.48097 
L 58.14465 212.81985 
L 58.01081 210.15873 
L 57.924842 207.49761 
L 57.885511 204.83649 
L 57.89797 202.17537 
L 57.971887 199.51425 
L 58.119516 196.85313 
L 58.35402 194.19201 
L 58.687917 191.53089 
L 59.13124 188.86977 
L 59.381873 187.699701 
L 59.732815 186.20865 
L 60.492752 183.54753 
L 61.167473 181.497266 
L 61.383182 180.88641 
L 62.446638 178.22529 
L 62.953073 177.062984 
L 63.828615 175.12065 
L 64.738673 173.167357 
L 65.082191 172.45953 
L 66.369138 169.79841 
L 66.559985 169.394281 
L 67.663154 167.13729 
L 68.345585 165.630076 
L 68.887081 164.47617 
L 70.02262 161.81505 
L 70.131185 161.539219 
L 71.113735 159.15393 
L 71.916785 156.929659 
L 72.083461 156.49281 
L 73.0238 153.83169 
L 73.738097 151.581731 
L 73.877718 151.17057 
L 74.754091 148.50945 
L 75.523697 146.072291 
L 75.599604 145.84833 
L 76.543631 143.18721 
L 77.309297 141.103576 
L 77.53552 140.52609 
L 78.674244 137.86497 
L 79.094897 136.967197 
L 79.961414 135.20385 
L 80.916209 133.437813 
L 81.654635 132.09921 
L 82.701809 130.366622 
L 83.27538 129.43809 
L 84.487409 127.601053 
L 85.037068 126.77697 
L 86.273009 125.023321 
L 86.914328 124.11585 
L 88.094321 122.516936 
L 88.874524 121.45473 
L 89.879921 120.137968 
L 90.894564 118.79361 
L 91.665521 117.806758 
L 92.953251 116.13249 
L 93.451121 115.505621 
L 95.039139 113.47137 
L 95.272433 113.180801 
L 97.058033 110.926978 
L 97.15003 110.81025 
L 98.843633 108.723929 
L 99.299695 108.14913 
L 100.629233 106.518264 
L 101.450642 105.48801 
L 102.450545 104.261197 
L 103.593644 102.82689 
L 104.236145 102.03846 
L 105.726778 100.16577 
L 106.021745 99.803022 
L 107.807345 97.562072 
L 107.852997 97.50465 
L 109.628657 95.316389 
L 110.003673 94.84353 
L 111.414257 93.107794 
L 112.148486 92.18241 
L 113.199857 90.891119 
L 114.288854 89.52129 
L 114.985457 88.678145 
L 116.769451 86.41665 
L 116.806769 86.370947 
L 118.592369 84.182725 
L 118.93332 83.75553 
L 120.377969 81.989005 
L 121.091816 81.09441 
L 122.163569 79.781113 
L 123.238513 78.43329 
L 123.984881 77.515219 
L 125.370382 75.77217 
L 125.770481 75.279785 
L 127.492144 73.11105 
L 127.556081 73.032383 
L 129.341681 70.826918 
L 129.641314 70.44993 
L 131.162993 68.581544 
L 131.794069 67.78881 
L 132.948593 66.378943 
L 133.949113 65.12769 
L 134.734193 64.173825 
L 136.10679 62.46657 
L 136.519793 61.967744 
L 138.271809 59.80545 
L 138.341105 59.722354 
L 140.126705 57.584979 
L 140.48831 57.14433 
L 141.912305 55.476254 
L 142.742545 54.48321 
L 143.697905 53.39556 
L 145.056417 51.82209 
L 145.519217 51.318297 
L 147.304817 49.367231 
L 147.495958 49.16097 
L 149.090417 47.59372 
L 150.19102 46.49985 
L 150.876017 45.904217 
L 152.697329 44.353097 
L 153.829152 43.39521 
L 154.482929 42.928794 
L 156.268529 41.719303 
L 157.767616 40.73409 
L 158.054129 40.57754 
L 159.875441 39.671475 
L 161.661041 38.839239 
L 163.435716 38.07297 
L 163.446641 38.06918 
L 165.232241 37.528964 
L 167.053553 37.040957 
L 168.839153 36.623542 
L 170.624753 36.264995 
L 172.410353 35.963172 
L 174.231665 35.711163 
L 176.017265 35.516256 
L 177.30393 35.41185 
L 177.802865 35.380857 
L 179.588465 35.307663 
L 181.409777 35.269736 
L 183.195377 35.268303 
L 184.980977 35.30308 
L 186.766577 35.376131 
L 187.32554 35.41185 
L 188.587889 35.525354 
L 190.373489 35.754973 
L 192.159089 36.068455 
L 193.944689 36.485923 
L 195.766001 37.048401 
L 197.551601 37.7752 
L 198.129614 38.07297 
L 199.337201 39.324773 
L 200.316822 40.73409 
L 200.54075 43.39521 
L 199.638809 46.49985 
L 199.337201 47.082227 
L 198.28724 49.16097 
L 197.551601 50.332786 
L 196.639521 51.82209 
L 195.766001 53.071383 
L 194.801483 54.48321 
L 193.944689 55.636388 
L 192.849571 57.14433 
L 192.159089 58.039001 
L 190.827698 59.80545 
L 190.373489 60.380789 
L 188.765011 62.46657 
L 188.587889 62.687635 
L 186.766577 64.996444 
L 186.664134 65.12769 
L 184.980977 67.208738 
L 184.523228 67.78881 
L 183.195377 69.419985 
L 182.377299 70.44993 
L 181.409777 71.635366 
L 180.232977 73.11105 
L 179.588465 73.902 
L 178.098976 75.77217 
L 177.802865 76.13588 
L 176.017265 78.374914 
L 175.970885 78.43329 
L 174.231665 80.57345 
L 173.818005 81.09441 
L 172.410353 82.830416 
L 171.67717 83.75553 
L 170.624753 85.051151 
L 169.541772 86.41665 
L 168.839153 87.270193 
L 167.071782 89.52129 
L 167.053553 89.543704 
L 165.232241 91.788224 
L 164.919381 92.18241 
L 163.446641 93.998466 
L 162.777798 94.84353 
L 161.661041 96.230534 
L 160.659195 97.50465 
L 159.875441 98.489259 
L 158.56941 100.16577 
L 158.054129 100.824061 
L 156.517881 102.82689 
L 156.268529 103.151411 
L 154.508381 105.48801 
L 154.482929 105.52197 
L 152.697329 107.91969 
L 152.528975 108.14913 
L 150.876017 110.44256 
L 150.614532 110.81025 
L 149.090417 113.015541 
L 148.778592 113.47137 
L 147.304817 115.726567 
L 147.04072 116.13249 
L 145.519217 118.63133 
L 145.419996 118.79361 
L 143.909725 121.45473 
L 143.697905 121.868606 
L 142.523883 124.11585 
L 141.912305 125.445702 
L 141.281384 126.77697 
L 140.181841 129.43809 
L 140.126705 129.585274 
L 139.138122 132.09921 
L 138.341105 134.428556 
L 138.0627 135.20385 
L 137.170027 137.86497 
L 136.519793 139.937008 
L 136.321454 140.52609 
L 135.417896 143.18721 
L 134.734193 145.170452 
L 134.484279 145.84833 
L 133.428933 148.50945 
L 132.948593 149.625486 
L 132.247366 151.17057 
L 131.162993 153.378749 
L 130.930495 153.83169 
L 129.443952 156.49281 
L 129.341681 156.660705 
L 127.789622 159.15393 
L 127.556081 159.505616 
L 126.007098 161.81505 
L 125.770481 162.14934 
L 124.121846 164.47617 
L 123.984881 164.661047 
L 122.163569 167.130914 
L 122.158852 167.13729 
L 120.377969 169.455348 
L 120.117779 169.79841 
L 118.592369 171.742318 
L 118.038861 172.45953 
L 116.806769 174.005697 
L 115.934212 175.12065 
L 114.985457 176.284752 
L 113.47066 178.22529 
L 113.199857 178.558582 
L 111.414257 180.79473 
L 111.341354 180.88641 
L 109.628657 182.983956 
L 109.17866 183.54753 
L 107.807345 185.228534 
L 107.025404 186.20865 
L 106.021745 187.439238 
L 104.88169 188.86977 
L 104.236145 189.662467 
L 102.748585 191.53089 
L 102.450545 191.896906 
L 100.629233 194.179387 
L 100.619164 194.19201 
L 98.843633 196.362236 
L 98.450825 196.85313 
L 97.058033 198.548023 
L 96.280913 199.51425 
L 95.272433 200.735198 
L 94.105781 202.17537 
L 93.451121 202.965146 
L 91.928109 204.83649 
L 91.665521 205.151675 
L 89.879921 207.313436 
L 89.727519 207.49761 
L 88.094321 209.426905 
L 87.482894 210.15873 
L 86.273009 211.578795 
L 85.226391 212.81985 
L 84.487409 213.676541 
L 82.943898 215.48097 
L 82.701809 215.757257 
L 80.916209 217.76123 
L 80.569418 218.14209 
L 79.094897 219.722569 
L 78.076791 220.80321 
L 77.309297 221.586058 
L 75.523697 223.371866 
L 74.956174 223.90785 
L 73.738097 225.013306 
L 71.944147 226.56897 
L 71.916785 226.592168 
L 70.131185 227.850251 
L 68.345585 228.938656 
L 67.621938 229.23009 
L 66.559985 229.647141 
L 64.738673 229.871157 
L 62.953073 229.390568 
L 62.740727 229.23009 
L 61.167473 227.570323 
L 60.638631 226.56897 
L 59.637319 223.90785 
L 59.381873 222.936268 
L 58.968823 220.80321 
z
" clip-path="url(#pdd54a9a4a7)" style="fill: none; stroke: #08509b; stroke-width: 1.5"/>
    <path d="M 182.678021 266.92929 
L 182.303587 263.82465 
L 182.442403 261.16353 
L 182.840296 258.50241 
L 183.195377 256.886033 
L 183.441706 255.84129 
L 184.234941 253.18017 
L 184.980977 251.013856 
L 185.162298 250.51905 
L 186.293685 247.85793 
L 186.766577 246.866021 
L 187.598406 245.19681 
L 188.587889 243.383033 
L 189.065609 242.53569 
L 190.373489 240.395098 
L 190.697918 239.87457 
L 192.159089 237.682458 
L 192.474562 237.21345 
L 193.944689 235.144609 
L 194.36605 234.55233 
L 195.766001 232.666798 
L 196.338378 231.89121 
L 197.551601 230.309059 
L 198.368569 229.23009 
L 199.337201 227.993979 
L 200.435628 226.56897 
L 201.122801 225.705648 
L 202.528387 223.90785 
L 202.944113 223.397185 
L 204.729713 221.146894 
L 204.997725 220.80321 
L 206.515313 218.936305 
L 207.146118 218.14209 
L 208.300913 216.725974 
L 209.293664 215.48097 
L 210.122225 214.463804 
L 211.431656 212.81985 
L 211.907825 212.234967 
L 213.559063 210.15873 
L 213.693425 209.993359 
L 215.479025 207.775853 
L 215.700063 207.49761 
L 217.300337 205.524959 
L 217.846267 204.83649 
L 219.085937 203.31172 
L 219.988054 202.17537 
L 220.871537 201.091217 
L 222.126458 199.51425 
L 222.657137 198.864608 
L 224.263687 196.85313 
L 224.478449 196.590245 
L 226.264049 194.375841 
L 226.410874 194.19201 
L 228.049649 192.189267 
L 228.575388 191.53089 
L 229.835249 189.9881 
L 230.727966 188.86977 
L 231.656561 187.728665 
L 232.866347 186.20865 
L 233.442161 185.501069 
L 234.99585 183.54753 
L 235.227761 183.262735 
L 237.013361 181.036908 
L 237.133396 180.88641 
L 238.834673 178.803307 
L 239.296436 178.22529 
L 240.620273 176.631375 
L 241.816898 175.12065 
L 242.405873 174.404035 
L 243.967871 172.45953 
L 244.191473 172.187447 
L 246.012785 169.939608 
L 246.126513 169.79841 
L 247.798385 167.766565 
L 248.304347 167.13729 
L 249.583985 165.57755 
L 250.467141 164.47617 
L 251.369585 163.373433 
L 252.617772 161.81505 
L 253.190897 161.113055 
L 254.756255 159.15393 
L 254.976497 158.884529 
L 256.762097 156.670659 
L 256.904448 156.49281 
L 258.547697 154.488498 
L 259.073778 153.83169 
L 260.369009 152.246874 
L 261.228173 151.17057 
L 262.154609 150.032783 
L 263.364556 148.50945 
L 263.940209 147.79604 
L 265.473937 145.84833 
L 265.725809 145.532046 
L 267.547121 143.194243 
L 267.55258 143.18721 
L 269.332721 140.908595 
L 269.624556 140.52609 
L 271.118321 138.569925 
L 271.645057 137.86497 
L 272.903921 136.169259 
L 273.607963 135.20385 
L 274.725233 133.656515 
L 275.807192 132.09921 
L 276.510833 131.06228 
L 277.601953 129.43809 
L 278.296433 128.349263 
L 279.295513 126.77697 
L 280.082033 125.444585 
L 280.870676 124.11585 
L 281.903345 122.192981 
L 282.305779 121.45473 
L 283.602784 118.79361 
L 283.688945 118.597817 
L 284.809607 116.13249 
L 285.474545 114.43906 
L 285.871522 113.47137 
L 286.84731 110.81025 
L 287.260145 109.559103 
L 287.754976 108.14913 
L 288.618889 105.48801 
L 289.081457 103.999819 
L 289.472652 102.82689 
L 290.364154 100.16577 
L 290.867057 98.718531 
L 291.317718 97.50465 
L 292.373049 94.84353 
L 292.652657 94.204911 
L 293.584757 92.18241 
L 294.438257 90.473967 
L 294.934736 89.52129 
L 296.259569 87.208306 
L 296.718931 86.41665 
L 298.045169 84.321883 
L 298.409512 83.75553 
L 299.830769 81.676588 
L 300.231045 81.09441 
L 301.616369 79.178697 
L 302.154566 78.43329 
L 303.437681 76.725632 
L 304.148353 75.77217 
L 305.223281 74.382141 
L 306.192524 73.11105 
L 307.008881 72.076077 
L 308.269491 70.44993 
L 308.794481 69.794251 
L 310.37099 67.78881 
L 310.615793 67.486297 
L 312.401393 65.249565 
L 312.498201 65.12769 
L 314.186993 63.068705 
L 314.669796 62.46657 
L 315.972593 60.892656 
L 316.853632 59.80545 
L 317.793905 58.680517 
L 319.052211 57.14433 
L 319.579505 56.52456 
L 321.282288 54.48321 
L 321.365105 54.388478 
L 323.150705 52.365903 
L 323.625549 51.82209 
L 324.972017 50.378963 
L 326.094168 49.16097 
L 326.757617 48.501599 
L 328.543217 46.731121 
L 328.783147 46.49985 
L 330.328817 45.20572 
L 332.150129 43.667617 
L 332.489463 43.39521 
L 333.935729 42.423969 
L 335.721329 41.27121 
L 336.614363 40.73409 
L 337.506929 40.290661 
L 339.328241 39.476804 
L 341.113841 38.759131 
L 342.899441 38.131867 
L 343.105684 38.07297 
L 344.685041 37.715999 
L 346.506353 37.399417 
L 348.291953 37.18685 
L 350.077553 37.077351 
L 351.863153 37.077903 
L 353.684465 37.200328 
L 355.470065 37.449805 
L 357.255665 37.839448 
L 358.028648 38.07297 
L 359.041265 38.497656 
L 360.862577 39.504436 
L 362.601332 40.73409 
L 362.648177 40.782753 
L 364.433777 43.066483 
L 364.64601 43.39521 
L 365.835823 46.49985 
L 366.219377 48.671607 
L 366.292182 49.16097 
L 366.359599 51.82209 
L 366.219377 53.617576 
L 366.144377 54.48321 
L 365.647865 57.14433 
L 364.93276 59.80545 
L 364.433777 61.246558 
L 363.982249 62.46657 
L 362.811917 65.12769 
L 362.648177 65.446691 
L 361.399718 67.78881 
L 360.862577 68.70091 
L 359.806146 70.44993 
L 359.041265 71.62376 
L 358.059349 73.11105 
L 357.255665 74.25617 
L 356.189857 75.77217 
L 355.470065 76.747454 
L 354.233416 78.43329 
L 353.684465 79.152157 
L 352.216944 81.09441 
L 351.863153 81.547504 
L 350.164053 83.75553 
L 350.077553 83.864354 
L 348.291953 86.119417 
L 348.059844 86.41665 
L 346.506353 88.319976 
L 345.568473 89.52129 
L 344.685041 90.609884 
L 343.435958 92.18241 
L 342.899441 92.840485 
L 341.30359 94.84353 
L 341.113841 95.076196 
L 339.328241 97.292637 
L 339.159048 97.50465 
L 337.506929 99.533767 
L 337.003817 100.16577 
L 335.721329 101.741779 
L 334.858658 102.82689 
L 333.935729 103.961651 
L 332.722376 105.48801 
L 332.150129 106.190683 
L 330.588923 108.14913 
L 330.328817 108.46805 
L 328.543217 110.690648 
L 328.447581 110.81025 
L 326.757617 112.868835 
L 326.274274 113.47137 
L 324.972017 115.055018 
L 324.105008 116.13249 
L 323.150705 117.294807 
L 321.946238 118.79361 
L 321.365105 119.502009 
L 319.798712 121.45473 
L 319.579505 121.722665 
L 317.793905 123.932876 
L 317.646911 124.11585 
L 315.972593 126.162546 
L 315.480749 126.77697 
L 314.186993 128.357808 
L 313.323189 129.43809 
L 312.401393 130.5642 
L 311.174137 132.09921 
L 310.615793 132.772842 
L 308.794481 135.05943 
L 308.68042 135.20385 
L 307.008881 137.247235 
L 306.516208 137.86497 
L 305.223281 139.455875 
L 304.375165 140.52609 
L 303.437681 141.692063 
L 302.263281 143.18721 
L 301.616369 144.004908 
L 300.190232 145.84833 
L 299.830769 146.310733 
L 298.159132 148.50945 
L 298.045169 148.659508 
L 296.259569 151.042467 
L 296.164601 151.17057 
L 294.438257 153.52849 
L 294.220008 153.83169 
L 292.652657 156.055854 
L 292.349123 156.49281 
L 290.867057 158.706494 
L 290.570188 159.15393 
L 289.081457 161.528065 
L 288.901647 161.81505 
L 287.353066 164.47617 
L 287.260145 164.650465 
L 285.914007 167.13729 
L 285.474545 168.053136 
L 284.616347 169.79841 
L 283.688945 171.964741 
L 283.469404 172.45953 
L 282.405372 175.12065 
L 281.903345 176.548254 
L 281.287852 178.22529 
L 280.408997 180.88641 
L 280.082033 181.936028 
L 279.544481 183.54753 
L 278.685575 186.20865 
L 278.296433 187.39194 
L 277.776042 188.86977 
L 276.796971 191.53089 
L 276.510833 192.241934 
L 275.679876 194.19201 
L 274.725233 196.270512 
L 274.444043 196.85313 
L 273.041041 199.51425 
L 272.903921 199.750977 
L 271.461056 202.17537 
L 271.118321 202.712157 
L 269.741789 204.83649 
L 269.332721 205.43134 
L 267.90483 207.49761 
L 267.547121 207.99038 
L 265.976275 210.15873 
L 265.725809 210.491283 
L 263.986427 212.81985 
L 263.940209 212.879549 
L 262.154609 215.185489 
L 261.928594 215.48097 
L 260.369009 217.453706 
L 259.83422 218.14209 
L 258.547697 219.751452 
L 257.723237 220.80321 
L 256.762097 221.980057 
L 255.25798 223.90785 
L 254.976497 224.255684 
L 253.190897 226.505657 
L 253.140788 226.56897 
L 251.369585 228.766315 
L 251.00413 229.23009 
L 249.583985 231.004453 
L 248.890625 231.89121 
L 247.798385 233.273708 
L 246.810505 234.55233 
L 246.012785 235.579504 
L 244.768541 237.21345 
L 244.191473 237.973567 
L 242.773509 239.87457 
L 242.405873 240.371319 
L 240.829733 242.53569 
L 240.620273 242.828367 
L 238.946298 245.19681 
L 238.834673 245.359445 
L 237.130679 247.85793 
L 237.013361 248.037858 
L 235.395175 250.51905 
L 235.227761 250.789953 
L 233.739749 253.18017 
L 233.442161 253.687058 
L 232.155065 255.84129 
L 231.656561 256.718429 
L 230.610975 258.50241 
L 229.835249 259.856879 
L 229.052878 261.16353 
L 228.049649 262.78778 
L 227.370916 263.82465 
L 226.264049 265.331452 
L 225.012731 266.92929 
L 224.478449 267.496067 
L 222.657137 269.242012 
L 222.250449 269.59041 
L 220.871537 270.527873 
L 219.085937 271.595896 
L 217.824388 272.25153 
L 217.300337 272.462059 
L 215.479025 273.078626 
L 213.693425 273.584244 
L 211.907825 274.000801 
L 210.122225 274.336471 
L 208.300913 274.603087 
L 206.515313 274.796435 
L 204.927032 274.91265 
L 204.729713 274.923633 
L 202.944113 274.977282 
L 201.122801 274.986698 
L 199.337201 274.951293 
L 198.486898 274.91265 
L 197.551601 274.85514 
L 195.766001 274.677898 
L 193.944689 274.41749 
L 192.159089 274.070813 
L 190.373489 273.615497 
L 188.587889 273.027073 
L 186.766577 272.255443 
L 186.759085 272.25153 
L 184.980977 270.791977 
L 183.857074 269.59041 
L 183.195377 268.253727 
L 182.678021 266.92929 
z
" clip-path="url(#pdd54a9a4a7)" style="fill: none; stroke: #08509b; stroke-width: 1.5"/>
   </g>
   <g id="PathCollection_9"/>
   <g id="patch_3">
    <path d="M 34.240625 288.21825 
L 34.240625 22.10625 
" style="fill: none; stroke: #000000; stroke-width: 0.8; stroke-linejoin: miter; stroke-linecap: square"/>
   </g>
   <g id="patch_4">
    <path d="M 391.360625 288.21825 
L 391.360625 22.10625 
" style="fill: none; stroke: #000000; stroke-width: 0.8; stroke-linejoin: miter; stroke-linecap: square"/>
   </g>
   <g id="patch_5">
    <path d="M 34.240625 288.21825 
L 391.360625 288.21825 
" style="fill: none; stroke: #000000; stroke-width: 0.8; stroke-linejoin: miter; stroke-linecap: square"/>
   </g>
   <g id="patch_6">
    <path d="M 34.240625 22.10625 
L 391.360625 22.10625 
" style="fill: none; stroke: #000000; stroke-width: 0.8; stroke-linejoin: miter; stroke-linecap: square"/>
   </g>
   <g id="text_16">
    <!-- 9.5_cross_24.0 -->
    <g transform="translate(168.34625 16.10625)scale(0.12 -0.12)">
     <defs>
      <path id="DejaVuSans-39" d="M 703 97 
L 703 672 
Q 941 559 1184 500 
Q 1428 441 1663 441 
Q 2288 441 2617 861 
Q 2947 1281 2994 2138 
Q 2813 1869 2534 1725 
Q 2256 1581 1919 1581 
Q 1219 1581 811 2004 
Q 403 2428 403 3163 
Q 403 3881 828 4315 
Q 1253 4750 1959 4750 
Q 2769 4750 3195 4129 
Q 3622 3509 3622 2328 
Q 3622 1225 3098 567 
Q 2575 -91 1691 -91 
Q 1453 -91 1209 -44 
Q 966 3 703 97 
z
M 1959 2075 
Q 2384 2075 2632 2365 
Q 2881 2656 2881 3163 
Q 2881 3666 2632 3958 
Q 2384 4250 1959 4250 
Q 1534 4250 1286 3958 
Q 1038 3666 1038 3163 
Q 1038 2656 1286 2365 
Q 1534 2075 1959 2075 
z
" transform="scale(0.015625)"/>
      <path id="DejaVuSans-2e" d="M 684 794 
L 1344 794 
L 1344 0 
L 684 0 
L 684 794 
z
" transform="scale(0.015625)"/>
      <path id="DejaVuSans-5f" d="M 3263 -1063 
L 3263 -1509 
L -63 -1509 
L -63 -1063 
L 3263 -1063 
z
" transform="scale(0.015625)"/>
      <path id="DejaVuSans-63" d="M 3122 3366 
L 3122 2828 
Q 2878 2963 2633 3030 
Q 2388 3097 2138 3097 
Q 1578 3097 1268 2742 
Q 959 2388 959 1747 
Q 959 1106 1268 751 
Q 1578 397 2138 397 
Q 2388 397 2633 464 
Q 2878 531 3122 666 
L 3122 134 
Q 2881 22 2623 -34 
Q 2366 -91 2075 -91 
Q 1284 -91 818 406 
Q 353 903 353 1747 
Q 353 2603 823 3093 
Q 1294 3584 2113 3584 
Q 2378 3584 2631 3529 
Q 2884 3475 3122 3366 
z
" transform="scale(0.015625)"/>
      <path id="DejaVuSans-72" d="M 2631 2963 
Q 2534 3019 2420 3045 
Q 2306 3072 2169 3072 
Q 1681 3072 1420 2755 
Q 1159 2438 1159 1844 
L 1159 0 
L 581 0 
L 581 3500 
L 1159 3500 
L 1159 2956 
Q 1341 3275 1631 3429 
Q 1922 3584 2338 3584 
Q 2397 3584 2469 3576 
Q 2541 3569 2628 3553 
L 2631 2963 
z
" transform="scale(0.015625)"/>
      <path id="DejaVuSans-73" d="M 2834 3397 
L 2834 2853 
Q 2591 2978 2328 3040 
Q 2066 3103 1784 3103 
Q 1356 3103 1142 2972 
Q 928 2841 928 2578 
Q 928 2378 1081 2264 
Q 1234 2150 1697 2047 
L 1894 2003 
Q 2506 1872 2764 1633 
Q 3022 1394 3022 966 
Q 3022 478 2636 193 
Q 2250 -91 1575 -91 
Q 1294 -91 989 -36 
Q 684 19 347 128 
L 347 722 
Q 666 556 975 473 
Q 1284 391 1588 391 
Q 1994 391 2212 530 
Q 2431 669 2431 922 
Q 2431 1156 2273 1281 
Q 2116 1406 1581 1522 
L 1381 1569 
Q 847 1681 609 1914 
Q 372 2147 372 2553 
Q 372 3047 722 3315 
Q 1072 3584 1716 3584 
Q 2034 3584 2315 3537 
Q 2597 3491 2834 3397 
z
" transform="scale(0.015625)"/>
     </defs>
     <use xlink:href="#DejaVuSans-39"/>
     <use xlink:href="#DejaVuSans-2e" x="63.623047"/>
     <use xlink:href="#DejaVuSans-35" x="95.410156"/>
     <use xlink:href="#DejaVuSans-5f" x="159.033203"/>
     <use xlink:href="#DejaVuSans-63" x="209.033203"/>
     <use xlink:href="#DejaVuSans-72" x="264.013672"/>
     <use xlink:href="#DejaVuSans-6f" x="302.876953"/>
     <use xlink:href="#DejaVuSans-73" x="364.058594"/>
     <use xlink:href="#DejaVuSans-73" x="416.158203"/>
     <use xlink:href="#DejaVuSans-5f" x="468.257812"/>
     <use xlink:href="#DejaVuSans-32" x="518.257812"/>
     <use xlink:href="#DejaVuSans-34" x="581.880859"/>
     <use xlink:href="#DejaVuSans-2e" x="645.503906"/>
     <use xlink:href="#DejaVuSans-30" x="677.291016"/>
    </g>
   </g>
  </g>
 </g>
 <defs>
  <clipPath id="pdd54a9a4a7">
   <rect x="34.240625" y="22.10625" width="357.12" height="266.112"/>
  </clipPath>
 </defs>
</svg>
