<?xml version="1.0" encoding="utf-8" standalone="no"?>
<!DOCTYPE svg PUBLIC "-//W3C//DTD SVG 1.1//EN"
  "http://www.w3.org/Graphics/SVG/1.1/DTD/svg11.dtd">
<svg xmlns:xlink="http://www.w3.org/1999/xlink" width="408.104375pt" height="325.7745pt" viewBox="0 0 408.104375 325.7745" xmlns="http://www.w3.org/2000/svg" version="1.1">
 <metadata>
  <rdf:RDF xmlns:dc="http://purl.org/dc/elements/1.1/" xmlns:cc="http://creativecommons.org/ns#" xmlns:rdf="http://www.w3.org/1999/02/22-rdf-syntax-ns#">
   <cc:Work>
    <dc:type rdf:resource="http://purl.org/dc/dcmitype/StillImage"/>
    <dc:date>2024-07-12T12:10:15.999483</dc:date>
    <dc:format>image/svg+xml</dc:format>
    <dc:creator>
     <cc:Agent>
      <dc:title>Matplotlib v3.5.3, https://matplotlib.org/</dc:title>
     </cc:Agent>
    </dc:creator>
   </cc:Work>
  </rdf:RDF>
 </metadata>
 <defs>
  <style type="text/css">*{stroke-linejoin: round; stroke-linecap: butt}</style>
 </defs>
 <g id="figure_1">
  <g id="patch_1">
   <path d="M 0 325.7745 
L 408.104375 325.7745 
L 408.104375 0 
L 0 0 
z
" style="fill: #ffffff"/>
  </g>
  <g id="axes_1">
   <g id="patch_2">
    <path d="M 34.240625 288.21825 
L 391.360625 288.21825 
L 391.360625 22.10625 
L 34.240625 22.10625 
z
" style="fill: #ffffff"/>
   </g>
   <g id="matplotlib.axis_1">
    <g id="xtick_1">
     <g id="line2d_1">
      <defs>
       <path id="m0d6d7fc887" d="M 0 0 
L 0 3.5 
" style="stroke: #000000; stroke-width: 0.8"/>
      </defs>
      <g>
       <use xlink:href="#m0d6d7fc887" x="34.240625" y="288.21825" style="stroke: #000000; stroke-width: 0.8"/>
      </g>
     </g>
     <g id="text_1">
      <!-- 0 -->
      <g transform="translate(31.059375 302.816687)scale(0.1 -0.1)">
       <defs>
        <path id="DejaVuSans-30" d="M 2034 4250 
Q 1547 4250 1301 3770 
Q 1056 3291 1056 2328 
Q 1056 1369 1301 889 
Q 1547 409 2034 409 
Q 2525 409 2770 889 
Q 3016 1369 3016 2328 
Q 3016 3291 2770 3770 
Q 2525 4250 2034 4250 
z
M 2034 4750 
Q 2819 4750 3233 4129 
Q 3647 3509 3647 2328 
Q 3647 1150 3233 529 
Q 2819 -91 2034 -91 
Q 1250 -91 836 529 
Q 422 1150 422 2328 
Q 422 3509 836 4129 
Q 1250 4750 2034 4750 
z
" transform="scale(0.015625)"/>
       </defs>
       <use xlink:href="#DejaVuSans-30"/>
      </g>
     </g>
    </g>
    <g id="xtick_2">
     <g id="line2d_2">
      <g>
       <use xlink:href="#m0d6d7fc887" x="105.664625" y="288.21825" style="stroke: #000000; stroke-width: 0.8"/>
      </g>
     </g>
     <g id="text_2">
      <!-- 20 -->
      <g transform="translate(99.302125 302.816687)scale(0.1 -0.1)">
       <defs>
        <path id="DejaVuSans-32" d="M 1228 531 
L 3431 531 
L 3431 0 
L 469 0 
L 469 531 
Q 828 903 1448 1529 
Q 2069 2156 2228 2338 
Q 2531 2678 2651 2914 
Q 2772 3150 2772 3378 
Q 2772 3750 2511 3984 
Q 2250 4219 1831 4219 
Q 1534 4219 1204 4116 
Q 875 4013 500 3803 
L 500 4441 
Q 881 4594 1212 4672 
Q 1544 4750 1819 4750 
Q 2544 4750 2975 4387 
Q 3406 4025 3406 3419 
Q 3406 3131 3298 2873 
Q 3191 2616 2906 2266 
Q 2828 2175 2409 1742 
Q 1991 1309 1228 531 
z
" transform="scale(0.015625)"/>
       </defs>
       <use xlink:href="#DejaVuSans-32"/>
       <use xlink:href="#DejaVuSans-30" x="63.623047"/>
      </g>
     </g>
    </g>
    <g id="xtick_3">
     <g id="line2d_3">
      <g>
       <use xlink:href="#m0d6d7fc887" x="177.088625" y="288.21825" style="stroke: #000000; stroke-width: 0.8"/>
      </g>
     </g>
     <g id="text_3">
      <!-- 40 -->
      <g transform="translate(170.726125 302.816687)scale(0.1 -0.1)">
       <defs>
        <path id="DejaVuSans-34" d="M 2419 4116 
L 825 1625 
L 2419 1625 
L 2419 4116 
z
M 2253 4666 
L 3047 4666 
L 3047 1625 
L 3713 1625 
L 3713 1100 
L 3047 1100 
L 3047 0 
L 2419 0 
L 2419 1100 
L 313 1100 
L 313 1709 
L 2253 4666 
z
" transform="scale(0.015625)"/>
       </defs>
       <use xlink:href="#DejaVuSans-34"/>
       <use xlink:href="#DejaVuSans-30" x="63.623047"/>
      </g>
     </g>
    </g>
    <g id="xtick_4">
     <g id="line2d_4">
      <g>
       <use xlink:href="#m0d6d7fc887" x="248.512625" y="288.21825" style="stroke: #000000; stroke-width: 0.8"/>
      </g>
     </g>
     <g id="text_4">
      <!-- 60 -->
      <g transform="translate(242.150125 302.816687)scale(0.1 -0.1)">
       <defs>
        <path id="DejaVuSans-36" d="M 2113 2584 
Q 1688 2584 1439 2293 
Q 1191 2003 1191 1497 
Q 1191 994 1439 701 
Q 1688 409 2113 409 
Q 2538 409 2786 701 
Q 3034 994 3034 1497 
Q 3034 2003 2786 2293 
Q 2538 2584 2113 2584 
z
M 3366 4563 
L 3366 3988 
Q 3128 4100 2886 4159 
Q 2644 4219 2406 4219 
Q 1781 4219 1451 3797 
Q 1122 3375 1075 2522 
Q 1259 2794 1537 2939 
Q 1816 3084 2150 3084 
Q 2853 3084 3261 2657 
Q 3669 2231 3669 1497 
Q 3669 778 3244 343 
Q 2819 -91 2113 -91 
Q 1303 -91 875 529 
Q 447 1150 447 2328 
Q 447 3434 972 4092 
Q 1497 4750 2381 4750 
Q 2619 4750 2861 4703 
Q 3103 4656 3366 4563 
z
" transform="scale(0.015625)"/>
       </defs>
       <use xlink:href="#DejaVuSans-36"/>
       <use xlink:href="#DejaVuSans-30" x="63.623047"/>
      </g>
     </g>
    </g>
    <g id="xtick_5">
     <g id="line2d_5">
      <g>
       <use xlink:href="#m0d6d7fc887" x="319.936625" y="288.21825" style="stroke: #000000; stroke-width: 0.8"/>
      </g>
     </g>
     <g id="text_5">
      <!-- 80 -->
      <g transform="translate(313.574125 302.816687)scale(0.1 -0.1)">
       <defs>
        <path id="DejaVuSans-38" d="M 2034 2216 
Q 1584 2216 1326 1975 
Q 1069 1734 1069 1313 
Q 1069 891 1326 650 
Q 1584 409 2034 409 
Q 2484 409 2743 651 
Q 3003 894 3003 1313 
Q 3003 1734 2745 1975 
Q 2488 2216 2034 2216 
z
M 1403 2484 
Q 997 2584 770 2862 
Q 544 3141 544 3541 
Q 544 4100 942 4425 
Q 1341 4750 2034 4750 
Q 2731 4750 3128 4425 
Q 3525 4100 3525 3541 
Q 3525 3141 3298 2862 
Q 3072 2584 2669 2484 
Q 3125 2378 3379 2068 
Q 3634 1759 3634 1313 
Q 3634 634 3220 271 
Q 2806 -91 2034 -91 
Q 1263 -91 848 271 
Q 434 634 434 1313 
Q 434 1759 690 2068 
Q 947 2378 1403 2484 
z
M 1172 3481 
Q 1172 3119 1398 2916 
Q 1625 2713 2034 2713 
Q 2441 2713 2670 2916 
Q 2900 3119 2900 3481 
Q 2900 3844 2670 4047 
Q 2441 4250 2034 4250 
Q 1625 4250 1398 4047 
Q 1172 3844 1172 3481 
z
" transform="scale(0.015625)"/>
       </defs>
       <use xlink:href="#DejaVuSans-38"/>
       <use xlink:href="#DejaVuSans-30" x="63.623047"/>
      </g>
     </g>
    </g>
    <g id="xtick_6">
     <g id="line2d_6">
      <g>
       <use xlink:href="#m0d6d7fc887" x="391.360625" y="288.21825" style="stroke: #000000; stroke-width: 0.8"/>
      </g>
     </g>
     <g id="text_6">
      <!-- 100 -->
      <g transform="translate(381.816875 302.816687)scale(0.1 -0.1)">
       <defs>
        <path id="DejaVuSans-31" d="M 794 531 
L 1825 531 
L 1825 4091 
L 703 3866 
L 703 4441 
L 1819 4666 
L 2450 4666 
L 2450 531 
L 3481 531 
L 3481 0 
L 794 0 
L 794 531 
z
" transform="scale(0.015625)"/>
       </defs>
       <use xlink:href="#DejaVuSans-31"/>
       <use xlink:href="#DejaVuSans-30" x="63.623047"/>
       <use xlink:href="#DejaVuSans-30" x="127.246094"/>
      </g>
     </g>
    </g>
    <g id="text_7">
     <!-- axialRotation -->
     <g transform="translate(180.024844 316.494812)scale(0.1 -0.1)">
      <defs>
       <path id="DejaVuSans-61" d="M 2194 1759 
Q 1497 1759 1228 1600 
Q 959 1441 959 1056 
Q 959 750 1161 570 
Q 1363 391 1709 391 
Q 2188 391 2477 730 
Q 2766 1069 2766 1631 
L 2766 1759 
L 2194 1759 
z
M 3341 1997 
L 3341 0 
L 2766 0 
L 2766 531 
Q 2569 213 2275 61 
Q 1981 -91 1556 -91 
Q 1019 -91 701 211 
Q 384 513 384 1019 
Q 384 1609 779 1909 
Q 1175 2209 1959 2209 
L 2766 2209 
L 2766 2266 
Q 2766 2663 2505 2880 
Q 2244 3097 1772 3097 
Q 1472 3097 1187 3025 
Q 903 2953 641 2809 
L 641 3341 
Q 956 3463 1253 3523 
Q 1550 3584 1831 3584 
Q 2591 3584 2966 3190 
Q 3341 2797 3341 1997 
z
" transform="scale(0.015625)"/>
       <path id="DejaVuSans-78" d="M 3513 3500 
L 2247 1797 
L 3578 0 
L 2900 0 
L 1881 1375 
L 863 0 
L 184 0 
L 1544 1831 
L 300 3500 
L 978 3500 
L 1906 2253 
L 2834 3500 
L 3513 3500 
z
" transform="scale(0.015625)"/>
       <path id="DejaVuSans-69" d="M 603 3500 
L 1178 3500 
L 1178 0 
L 603 0 
L 603 3500 
z
M 603 4863 
L 1178 4863 
L 1178 4134 
L 603 4134 
L 603 4863 
z
" transform="scale(0.015625)"/>
       <path id="DejaVuSans-6c" d="M 603 4863 
L 1178 4863 
L 1178 0 
L 603 0 
L 603 4863 
z
" transform="scale(0.015625)"/>
       <path id="DejaVuSans-52" d="M 2841 2188 
Q 3044 2119 3236 1894 
Q 3428 1669 3622 1275 
L 4263 0 
L 3584 0 
L 2988 1197 
Q 2756 1666 2539 1819 
Q 2322 1972 1947 1972 
L 1259 1972 
L 1259 0 
L 628 0 
L 628 4666 
L 2053 4666 
Q 2853 4666 3247 4331 
Q 3641 3997 3641 3322 
Q 3641 2881 3436 2590 
Q 3231 2300 2841 2188 
z
M 1259 4147 
L 1259 2491 
L 2053 2491 
Q 2509 2491 2742 2702 
Q 2975 2913 2975 3322 
Q 2975 3731 2742 3939 
Q 2509 4147 2053 4147 
L 1259 4147 
z
" transform="scale(0.015625)"/>
       <path id="DejaVuSans-6f" d="M 1959 3097 
Q 1497 3097 1228 2736 
Q 959 2375 959 1747 
Q 959 1119 1226 758 
Q 1494 397 1959 397 
Q 2419 397 2687 759 
Q 2956 1122 2956 1747 
Q 2956 2369 2687 2733 
Q 2419 3097 1959 3097 
z
M 1959 3584 
Q 2709 3584 3137 3096 
Q 3566 2609 3566 1747 
Q 3566 888 3137 398 
Q 2709 -91 1959 -91 
Q 1206 -91 779 398 
Q 353 888 353 1747 
Q 353 2609 779 3096 
Q 1206 3584 1959 3584 
z
" transform="scale(0.015625)"/>
       <path id="DejaVuSans-74" d="M 1172 4494 
L 1172 3500 
L 2356 3500 
L 2356 3053 
L 1172 3053 
L 1172 1153 
Q 1172 725 1289 603 
Q 1406 481 1766 481 
L 2356 481 
L 2356 0 
L 1766 0 
Q 1100 0 847 248 
Q 594 497 594 1153 
L 594 3053 
L 172 3053 
L 172 3500 
L 594 3500 
L 594 4494 
L 1172 4494 
z
" transform="scale(0.015625)"/>
       <path id="DejaVuSans-6e" d="M 3513 2113 
L 3513 0 
L 2938 0 
L 2938 2094 
Q 2938 2591 2744 2837 
Q 2550 3084 2163 3084 
Q 1697 3084 1428 2787 
Q 1159 2491 1159 1978 
L 1159 0 
L 581 0 
L 581 3500 
L 1159 3500 
L 1159 2956 
Q 1366 3272 1645 3428 
Q 1925 3584 2291 3584 
Q 2894 3584 3203 3211 
Q 3513 2838 3513 2113 
z
" transform="scale(0.015625)"/>
      </defs>
      <use xlink:href="#DejaVuSans-61"/>
      <use xlink:href="#DejaVuSans-78" x="61.279297"/>
      <use xlink:href="#DejaVuSans-69" x="120.458984"/>
      <use xlink:href="#DejaVuSans-61" x="148.242188"/>
      <use xlink:href="#DejaVuSans-6c" x="209.521484"/>
      <use xlink:href="#DejaVuSans-52" x="237.304688"/>
      <use xlink:href="#DejaVuSans-6f" x="302.287109"/>
      <use xlink:href="#DejaVuSans-74" x="363.46875"/>
      <use xlink:href="#DejaVuSans-61" x="402.677734"/>
      <use xlink:href="#DejaVuSans-74" x="463.957031"/>
      <use xlink:href="#DejaVuSans-69" x="503.166016"/>
      <use xlink:href="#DejaVuSans-6f" x="530.949219"/>
      <use xlink:href="#DejaVuSans-6e" x="592.130859"/>
     </g>
    </g>
   </g>
   <g id="matplotlib.axis_2">
    <g id="ytick_1">
     <g id="line2d_7">
      <defs>
       <path id="m31a1e7b04a" d="M 0 0 
L -3.5 0 
" style="stroke: #000000; stroke-width: 0.8"/>
      </defs>
      <g>
       <use xlink:href="#m31a1e7b04a" x="34.240625" y="288.21825" style="stroke: #000000; stroke-width: 0.8"/>
      </g>
     </g>
     <g id="text_8">
      <!-- 0 -->
      <g transform="translate(20.878125 292.017469)scale(0.1 -0.1)">
       <use xlink:href="#DejaVuSans-30"/>
      </g>
     </g>
    </g>
    <g id="ytick_2">
     <g id="line2d_8">
      <g>
       <use xlink:href="#m31a1e7b04a" x="34.240625" y="243.86625" style="stroke: #000000; stroke-width: 0.8"/>
      </g>
     </g>
     <g id="text_9">
      <!-- 1 -->
      <g transform="translate(20.878125 247.665469)scale(0.1 -0.1)">
       <use xlink:href="#DejaVuSans-31"/>
      </g>
     </g>
    </g>
    <g id="ytick_3">
     <g id="line2d_9">
      <g>
       <use xlink:href="#m31a1e7b04a" x="34.240625" y="199.51425" style="stroke: #000000; stroke-width: 0.8"/>
      </g>
     </g>
     <g id="text_10">
      <!-- 2 -->
      <g transform="translate(20.878125 203.313469)scale(0.1 -0.1)">
       <use xlink:href="#DejaVuSans-32"/>
      </g>
     </g>
    </g>
    <g id="ytick_4">
     <g id="line2d_10">
      <g>
       <use xlink:href="#m31a1e7b04a" x="34.240625" y="155.16225" style="stroke: #000000; stroke-width: 0.8"/>
      </g>
     </g>
     <g id="text_11">
      <!-- 3 -->
      <g transform="translate(20.878125 158.961469)scale(0.1 -0.1)">
       <defs>
        <path id="DejaVuSans-33" d="M 2597 2516 
Q 3050 2419 3304 2112 
Q 3559 1806 3559 1356 
Q 3559 666 3084 287 
Q 2609 -91 1734 -91 
Q 1441 -91 1130 -33 
Q 819 25 488 141 
L 488 750 
Q 750 597 1062 519 
Q 1375 441 1716 441 
Q 2309 441 2620 675 
Q 2931 909 2931 1356 
Q 2931 1769 2642 2001 
Q 2353 2234 1838 2234 
L 1294 2234 
L 1294 2753 
L 1863 2753 
Q 2328 2753 2575 2939 
Q 2822 3125 2822 3475 
Q 2822 3834 2567 4026 
Q 2313 4219 1838 4219 
Q 1578 4219 1281 4162 
Q 984 4106 628 3988 
L 628 4550 
Q 988 4650 1302 4700 
Q 1616 4750 1894 4750 
Q 2613 4750 3031 4423 
Q 3450 4097 3450 3541 
Q 3450 3153 3228 2886 
Q 3006 2619 2597 2516 
z
" transform="scale(0.015625)"/>
       </defs>
       <use xlink:href="#DejaVuSans-33"/>
      </g>
     </g>
    </g>
    <g id="ytick_5">
     <g id="line2d_11">
      <g>
       <use xlink:href="#m31a1e7b04a" x="34.240625" y="110.81025" style="stroke: #000000; stroke-width: 0.8"/>
      </g>
     </g>
     <g id="text_12">
      <!-- 4 -->
      <g transform="translate(20.878125 114.609469)scale(0.1 -0.1)">
       <use xlink:href="#DejaVuSans-34"/>
      </g>
     </g>
    </g>
    <g id="ytick_6">
     <g id="line2d_12">
      <g>
       <use xlink:href="#m31a1e7b04a" x="34.240625" y="66.45825" style="stroke: #000000; stroke-width: 0.8"/>
      </g>
     </g>
     <g id="text_13">
      <!-- 5 -->
      <g transform="translate(20.878125 70.257469)scale(0.1 -0.1)">
       <defs>
        <path id="DejaVuSans-35" d="M 691 4666 
L 3169 4666 
L 3169 4134 
L 1269 4134 
L 1269 2991 
Q 1406 3038 1543 3061 
Q 1681 3084 1819 3084 
Q 2600 3084 3056 2656 
Q 3513 2228 3513 1497 
Q 3513 744 3044 326 
Q 2575 -91 1722 -91 
Q 1428 -91 1123 -41 
Q 819 9 494 109 
L 494 744 
Q 775 591 1075 516 
Q 1375 441 1709 441 
Q 2250 441 2565 725 
Q 2881 1009 2881 1497 
Q 2881 1984 2565 2268 
Q 2250 2553 1709 2553 
Q 1456 2553 1204 2497 
Q 953 2441 691 2322 
L 691 4666 
z
" transform="scale(0.015625)"/>
       </defs>
       <use xlink:href="#DejaVuSans-35"/>
      </g>
     </g>
    </g>
    <g id="ytick_7">
     <g id="line2d_13">
      <g>
       <use xlink:href="#m31a1e7b04a" x="34.240625" y="22.10625" style="stroke: #000000; stroke-width: 0.8"/>
      </g>
     </g>
     <g id="text_14">
      <!-- 6 -->
      <g transform="translate(20.878125 25.905469)scale(0.1 -0.1)">
       <use xlink:href="#DejaVuSans-36"/>
      </g>
     </g>
    </g>
    <g id="text_15">
     <!-- zShift -->
     <g transform="translate(14.798438 169.151312)rotate(-90)scale(0.1 -0.1)">
      <defs>
       <path id="DejaVuSans-7a" d="M 353 3500 
L 3084 3500 
L 3084 2975 
L 922 459 
L 3084 459 
L 3084 0 
L 275 0 
L 275 525 
L 2438 3041 
L 353 3041 
L 353 3500 
z
" transform="scale(0.015625)"/>
       <path id="DejaVuSans-53" d="M 3425 4513 
L 3425 3897 
Q 3066 4069 2747 4153 
Q 2428 4238 2131 4238 
Q 1616 4238 1336 4038 
Q 1056 3838 1056 3469 
Q 1056 3159 1242 3001 
Q 1428 2844 1947 2747 
L 2328 2669 
Q 3034 2534 3370 2195 
Q 3706 1856 3706 1288 
Q 3706 609 3251 259 
Q 2797 -91 1919 -91 
Q 1588 -91 1214 -16 
Q 841 59 441 206 
L 441 856 
Q 825 641 1194 531 
Q 1563 422 1919 422 
Q 2459 422 2753 634 
Q 3047 847 3047 1241 
Q 3047 1584 2836 1778 
Q 2625 1972 2144 2069 
L 1759 2144 
Q 1053 2284 737 2584 
Q 422 2884 422 3419 
Q 422 4038 858 4394 
Q 1294 4750 2059 4750 
Q 2388 4750 2728 4690 
Q 3069 4631 3425 4513 
z
" transform="scale(0.015625)"/>
       <path id="DejaVuSans-68" d="M 3513 2113 
L 3513 0 
L 2938 0 
L 2938 2094 
Q 2938 2591 2744 2837 
Q 2550 3084 2163 3084 
Q 1697 3084 1428 2787 
Q 1159 2491 1159 1978 
L 1159 0 
L 581 0 
L 581 4863 
L 1159 4863 
L 1159 2956 
Q 1366 3272 1645 3428 
Q 1925 3584 2291 3584 
Q 2894 3584 3203 3211 
Q 3513 2838 3513 2113 
z
" transform="scale(0.015625)"/>
       <path id="DejaVuSans-66" d="M 2375 4863 
L 2375 4384 
L 1825 4384 
Q 1516 4384 1395 4259 
Q 1275 4134 1275 3809 
L 1275 3500 
L 2222 3500 
L 2222 3053 
L 1275 3053 
L 1275 0 
L 697 0 
L 697 3053 
L 147 3053 
L 147 3500 
L 697 3500 
L 697 3744 
Q 697 4328 969 4595 
Q 1241 4863 1831 4863 
L 2375 4863 
z
" transform="scale(0.015625)"/>
      </defs>
      <use xlink:href="#DejaVuSans-7a"/>
      <use xlink:href="#DejaVuSans-53" x="52.490234"/>
      <use xlink:href="#DejaVuSans-68" x="115.966797"/>
      <use xlink:href="#DejaVuSans-69" x="179.345703"/>
      <use xlink:href="#DejaVuSans-66" x="207.128906"/>
      <use xlink:href="#DejaVuSans-74" x="240.583984"/>
     </g>
    </g>
   </g>
   <g id="PathCollection_1"/>
   <g id="PathCollection_2">
    <path d="M 130.687948 288.21825 
L 130.341157 285.55713 
L 130.219667 282.89601 
L 130.31585 280.23489 
L 130.63267 277.57377 
L 131.180927 274.91265 
L 131.904152 272.25153 
L 132.948593 269.44348 
L 134.734193 265.587266 
L 136.519793 262.395889 
L 138.341105 259.538047 
L 140.956731 255.84129 
L 145.086074 250.51905 
L 151.251492 242.53569 
L 153.053459 239.87457 
L 154.650171 237.21345 
L 156.268529 233.990423 
L 158.054129 229.522333 
L 158.984256 226.56897 
L 160.59542 220.80321 
L 162.099532 215.48097 
L 163.879955 210.15873 
L 166.1196 204.83649 
L 167.460571 202.17537 
L 168.949799 199.51425 
L 172.313664 194.19201 
L 174.231665 191.440839 
L 179.588465 184.244918 
L 186.807198 175.12065 
L 197.554977 161.81505 
L 204.729713 153.029851 
L 213.693425 142.62746 
L 233.442161 120.580928 
L 239.370573 113.47137 
L 263.397689 83.75553 
L 271.118321 73.90805 
L 273.655381 70.44993 
L 276.510833 66.233944 
L 278.770183 62.46657 
L 280.164202 59.80545 
L 281.903345 55.776657 
L 283.285342 51.82209 
L 284.079249 49.16097 
L 287.260145 37.627444 
L 287.936874 35.41185 
L 289.933747 30.08961 
L 291.140947 27.42849 
L 292.652657 24.473155 
L 293.976498 22.10625 
L 293.976498 22.10625 
" clip-path="url(#p1aa4dbe11c)" style="fill: none; stroke: #deebf7; stroke-width: 1.5"/>
    <path d="M 205.638213 22.10625 
L 205.975566 24.76737 
L 206.093796 27.42849 
L 206.000225 30.08961 
L 205.691963 32.75073 
L 205.156631 35.41185 
L 204.408281 38.07297 
L 202.944113 41.882322 
L 202.28246 43.39521 
L 200.650931 46.49985 
L 199.044193 49.16097 
L 195.766001 53.92785 
L 192.159089 58.64965 
L 186.766577 65.442493 
L 184.980977 67.81431 
L 183.158421 70.44993 
L 181.409777 73.301629 
L 179.588465 76.826515 
L 177.770981 81.09441 
L 175.957152 86.41665 
L 173.263625 94.84353 
L 171.194405 100.16577 
L 169.975132 102.82689 
L 168.5978 105.48801 
L 167.053553 108.167313 
L 165.232241 111.046092 
L 161.627415 116.13249 
L 156.268529 123.077998 
L 141.912305 140.855736 
L 118.592369 169.803743 
L 111.414257 178.649542 
L 104.918372 186.20865 
L 102.450545 188.874604 
L 98.843633 192.503866 
L 95.272433 195.599208 
L 91.665521 198.176631 
L 88.094321 200.172095 
L 86.273009 200.999299 
L 84.487409 201.663238 
L 80.916209 202.659901 
L 79.094897 203.003173 
L 75.523697 203.333062 
L 71.916785 203.230497 
L 68.345585 202.693681 
L 64.738673 201.72046 
L 62.953073 201.081449 
L 61.167473 200.300831 
L 57.560561 198.31892 
L 55.467404 196.85313 
L 53.989361 195.699435 
L 52.203761 194.073407 
L 49.841573 191.53089 
L 47.844693 188.86977 
L 46.241263 186.20865 
L 44.982074 183.54753 
L 43.992996 180.88641 
L 43.204337 177.586665 
L 42.799325 175.12065 
L 42.63682 172.45953 
L 42.718208 169.79841 
L 43.204337 166.371979 
L 43.58743 164.47617 
L 44.364826 161.81505 
L 45.379326 159.15393 
L 46.811249 156.109264 
L 48.596849 152.872821 
L 50.382449 150.004547 
L 53.227862 145.84833 
L 57.560561 140.025666 
L 64.738673 130.909156 
L 80.916209 110.80786 
L 91.665521 97.290095 
L 95.447149 92.18241 
L 98.843633 87.100295 
L 100.825714 83.75553 
L 102.450545 80.573754 
L 104.483803 75.77217 
L 106.292638 70.44993 
L 109.628657 59.789985 
L 111.414257 54.988215 
L 112.748372 51.82209 
L 115.298714 46.49985 
L 118.592369 39.888503 
L 120.58565 35.41185 
L 122.520739 30.08961 
L 124.880771 22.10625 
L 124.880771 22.10625 
" clip-path="url(#p1aa4dbe11c)" style="fill: none; stroke: #deebf7; stroke-width: 1.5"/>
    <path d="M 309.224147 288.21825 
L 308.89207 285.55713 
L 308.794481 283.408408 
L 308.768606 282.89601 
L 308.794481 282.14741 
L 308.854142 280.23489 
L 309.141901 277.57377 
L 309.644779 274.91265 
L 310.38122 272.25153 
L 310.615793 271.589034 
L 311.2988 269.59041 
L 312.401393 267.038507 
L 312.447712 266.92929 
L 313.996344 263.82465 
L 314.186993 263.488033 
L 315.504987 261.16353 
L 315.972593 260.410705 
L 317.165878 258.50241 
L 317.793905 257.560535 
L 318.953055 255.84129 
L 319.579505 254.948035 
L 320.838083 253.18017 
L 321.365105 252.456511 
L 322.800558 250.51905 
L 323.150705 250.051464 
L 324.823125 247.85793 
L 324.972017 247.663447 
L 326.757617 245.358729 
L 326.884555 245.19681 
L 328.543217 243.071142 
L 328.969914 242.53569 
L 330.328817 240.813704 
L 331.085267 239.87457 
L 332.150129 238.536497 
L 333.224721 237.21345 
L 333.935729 236.322623 
L 335.378774 234.55233 
L 335.721329 234.123732 
L 337.506929 231.931969 
L 337.540168 231.89121 
L 339.328241 229.66024 
L 339.680061 229.23009 
L 341.113841 227.444284 
L 341.833303 226.56897 
L 342.899441 225.249243 
L 344.012557 223.90785 
L 344.685041 223.076048 
L 346.506353 220.923746 
L 346.609912 220.80321 
L 348.291953 218.796922 
L 348.862566 218.14209 
L 350.077553 216.724866 
L 351.193314 215.48097 
L 351.863153 214.720442 
L 353.627286 212.81985 
L 353.684465 212.757095 
L 355.470065 210.84479 
L 356.15362 210.15873 
L 357.255665 209.027627 
L 358.873946 207.49761 
L 359.041265 207.335315 
L 360.862577 205.652787 
L 361.838306 204.83649 
L 362.648177 204.137821 
L 364.433777 202.735928 
L 365.224712 202.17537 
L 366.219377 201.441163 
L 368.040689 200.248268 
L 369.332721 199.51425 
L 369.826289 199.217328 
L 371.611889 198.259663 
L 373.397489 197.458007 
L 375.01715 196.85313 
L 375.218801 196.771095 
L 377.004401 196.15017 
L 378.790001 195.656842 
L 380.575601 195.279256 
L 382.396913 195.003892 
L 384.182513 194.834758 
L 385.968113 194.761009 
L 387.753713 194.780383 
L 389.575025 194.895936 
L 391.360625 195.105215 
" clip-path="url(#p1aa4dbe11c)" style="fill: none; stroke: #deebf7; stroke-width: 1.5"/>
    <path d="M 384.199382 22.10625 
L 384.560394 24.76737 
L 384.691503 27.42849 
L 384.601526 30.08961 
L 384.182513 33.285736 
L 383.787817 35.41185 
L 383.071036 38.07297 
L 382.131704 40.73409 
L 380.575601 44.263181 
L 378.790001 47.667517 
L 377.004401 50.654666 
L 374.47753 54.48321 
L 370.610575 59.80545 
L 366.219377 65.43003 
L 359.863497 73.11105 
L 355.229171 78.43329 
L 350.077553 84.204516 
L 337.506929 98.127127 
L 333.484421 102.82689 
L 317.793905 122.008901 
L 300.811237 143.18721 
L 296.259569 149.147898 
L 292.652657 154.273776 
L 290.867057 157.099031 
L 289.081457 160.273859 
L 287.260145 164.074614 
L 286.065598 167.13729 
L 285.161195 169.79841 
L 283.626689 175.12065 
L 281.903345 181.547885 
L 280.509326 186.20865 
L 278.509956 191.53089 
L 276.510833 195.827816 
L 275.997546 196.85313 
L 274.510325 199.51425 
L 271.118321 204.865493 
L 267.357475 210.15873 
L 262.154609 216.996694 
L 251.369585 230.487977 
L 234.898055 250.51905 
L 221.16253 266.92929 
L 219.085937 269.910385 
L 217.300337 272.870154 
L 215.479025 276.511766 
L 215.014911 277.57377 
L 213.693425 281.03111 
L 211.907825 286.686747 
L 211.469526 288.21825 
L 211.469526 288.21825 
" clip-path="url(#p1aa4dbe11c)" style="fill: none; stroke: #deebf7; stroke-width: 1.5"/>
   </g>
   <g id="PathCollection_3">
    <path d="M 139.572828 288.21825 
L 139.177591 285.55713 
L 139.059945 282.89601 
L 139.208982 280.23489 
L 139.624382 277.57377 
L 140.303684 274.91265 
L 141.225133 272.25153 
L 142.408083 269.59041 
L 143.836739 266.92929 
L 145.779736 263.82465 
L 149.090417 259.294853 
L 152.697329 254.880987 
L 158.054129 248.460894 
L 159.875441 246.047884 
L 160.491468 245.19681 
L 162.192658 242.53569 
L 163.625004 239.87457 
L 165.232241 236.028695 
L 165.743771 234.55233 
L 167.233037 229.23009 
L 169.226673 220.80321 
L 170.757744 215.48097 
L 172.410353 210.998438 
L 172.745563 210.15873 
L 174.231665 206.973306 
L 176.017265 203.631474 
L 177.802865 200.659247 
L 180.321511 196.85313 
L 184.183863 191.53089 
L 188.587889 185.8076 
L 199.337201 172.405094 
L 208.300913 161.407072 
L 215.479025 153.05079 
L 222.657137 145.3181 
L 231.656561 136.223473 
L 235.751544 132.09921 
L 240.718856 126.77697 
L 246.012785 120.651903 
L 254.184468 110.81025 
L 264.882256 97.50465 
L 278.296433 80.656533 
L 281.903345 75.715434 
L 283.688945 73.078323 
L 285.474545 70.207738 
L 287.260145 66.943956 
L 289.081457 62.930094 
L 289.267221 62.46657 
L 290.867057 57.678728 
L 291.701956 54.48321 
L 294.946848 40.73409 
L 296.259569 36.640128 
L 296.684158 35.41185 
L 298.045169 32.124408 
L 299.830769 28.458969 
L 301.616369 25.311796 
L 303.437681 22.463107 
L 303.675121 22.10625 
L 303.675121 22.10625 
" clip-path="url(#p1aa4dbe11c)" style="fill: none; stroke: #c6dbef; stroke-width: 1.5"/>
    <path d="M 196.750024 22.10625 
L 197.139497 24.76737 
L 197.255406 27.42849 
L 197.108518 30.08961 
L 196.699325 32.75073 
L 195.766001 36.138499 
L 195.096099 38.07297 
L 193.904316 40.73409 
L 192.159089 43.936815 
L 190.373489 46.740396 
L 188.587889 49.243186 
L 184.40936 54.48321 
L 176.017265 64.67857 
L 175.68095 65.12769 
L 173.893949 67.78881 
L 172.352671 70.44993 
L 170.624753 74.135496 
L 169.005394 78.43329 
L 167.34619 83.75553 
L 165.232241 90.401582 
L 164.603158 92.18241 
L 163.446641 95.044008 
L 161.661041 98.822959 
L 159.875441 102.031422 
L 158.054129 104.903168 
L 155.763484 108.14913 
L 151.630273 113.47137 
L 143.697905 123.222261 
L 129.341681 140.863544 
L 113.199857 160.885436 
L 103.795431 172.45953 
L 98.776084 178.22529 
L 95.272433 181.938145 
L 91.665521 185.322319 
L 89.879921 186.790833 
L 86.913653 188.86977 
L 86.273009 189.275209 
L 84.487409 190.258861 
L 81.476795 191.53089 
L 80.916209 191.736123 
L 79.094897 192.248685 
L 77.309297 192.593226 
L 75.523697 192.784956 
L 73.738097 192.825241 
L 71.916785 192.709306 
L 70.131185 192.438123 
L 68.345585 192.004565 
L 66.559985 191.3974 
L 64.738673 190.578226 
L 61.929118 188.86977 
L 61.167473 188.295562 
L 58.882978 186.20865 
L 56.759247 183.54753 
L 55.24416 180.88641 
L 54.205334 178.22529 
L 53.496193 175.12065 
L 53.273781 172.45953 
L 53.380328 169.79841 
L 53.989361 166.426315 
L 54.511765 164.47617 
L 55.774961 161.224731 
L 57.560561 157.659079 
L 59.381873 154.5853 
L 61.63682 151.17057 
L 65.493042 145.84833 
L 70.131185 139.859646 
L 101.737025 100.16577 
L 105.46411 94.84353 
L 107.807345 91.075842 
L 109.628657 87.717327 
L 110.272203 86.41665 
L 111.455187 83.75553 
L 113.37965 78.43329 
L 115.71222 70.44993 
L 117.325573 65.12769 
L 119.257678 59.80545 
L 121.631344 54.48321 
L 127.556081 42.550075 
L 129.341681 38.048275 
L 130.960203 32.75073 
L 133.759381 22.10625 
L 133.759381 22.10625 
" clip-path="url(#p1aa4dbe11c)" style="fill: none; stroke: #c6dbef; stroke-width: 1.5"/>
    <path d="M 318.060834 288.21825 
L 317.793905 286.430561 
L 317.658069 285.55713 
L 317.518525 282.89601 
L 317.64667 280.23489 
L 317.793905 279.222387 
L 318.022676 277.57377 
L 318.638398 274.91265 
L 319.513007 272.25153 
L 319.579505 272.088535 
L 320.587741 269.59041 
L 321.365105 267.997929 
L 321.885963 266.92929 
L 323.150705 264.669608 
L 323.631151 263.82465 
L 324.972017 261.681421 
L 325.298668 261.16353 
L 326.757617 258.990031 
L 327.088535 258.50241 
L 328.543217 256.445126 
L 328.975541 255.84129 
L 330.328817 253.999352 
L 330.938611 253.18017 
L 332.150129 251.578999 
L 332.963596 250.51905 
L 333.935729 249.260996 
L 335.036998 247.85793 
L 335.721329 246.986461 
L 337.149285 245.19681 
L 337.506929 244.746398 
L 339.289124 242.53569 
L 339.328241 242.486789 
L 341.113841 240.260715 
L 341.427579 239.87457 
L 342.899441 238.042155 
L 343.57476 237.21345 
L 344.685041 235.83385 
L 345.7319 234.55233 
L 346.506353 233.594092 
L 347.906681 231.89121 
L 348.291953 231.41772 
L 350.077553 229.267751 
L 350.109094 229.23009 
L 351.863153 227.121353 
L 352.335446 226.56897 
L 353.684465 224.983696 
L 354.631722 223.90785 
L 355.470065 222.943217 
L 357.255665 220.991905 
L 357.433398 220.80321 
L 359.041265 219.073688 
L 359.957477 218.14209 
L 360.862577 217.214157 
L 362.648177 215.503749 
L 362.672977 215.48097 
L 364.433777 213.845336 
L 365.645561 212.81985 
L 366.219377 212.326972 
L 368.040689 210.884582 
L 369.060142 210.15873 
L 369.826289 209.602144 
L 371.611889 208.438203 
L 373.285509 207.49761 
L 373.397489 207.432739 
L 375.218801 206.497495 
L 377.004401 205.737095 
L 378.790001 205.11944 
L 379.820197 204.83649 
L 380.575601 204.617165 
L 382.396913 204.221477 
L 384.182513 203.966392 
L 385.968113 203.83836 
L 387.753713 203.835358 
L 389.575025 203.961555 
L 391.360625 204.215077 
" clip-path="url(#p1aa4dbe11c)" style="fill: none; stroke: #c6dbef; stroke-width: 1.5"/>
    <path d="M 375.377925 22.10625 
L 375.791626 24.76737 
L 375.928769 27.42849 
L 375.802851 30.08961 
L 375.218801 33.584043 
L 374.797702 35.41185 
L 373.397489 39.385077 
L 372.848166 40.73409 
L 371.539762 43.39521 
L 369.788652 46.49985 
L 368.040689 49.275512 
L 364.400627 54.48321 
L 360.325425 59.80545 
L 355.931814 65.12769 
L 351.863153 69.779671 
L 344.685041 77.453476 
L 330.165084 92.18241 
L 324.972017 97.991239 
L 318.655141 105.48801 
L 307.819653 118.79361 
L 288.498109 143.18721 
L 284.788779 148.50945 
L 283.121839 151.17057 
L 281.619439 153.83169 
L 280.082033 156.998347 
L 279.190582 159.15393 
L 278.229905 161.81505 
L 276.738776 167.13729 
L 275.539908 172.45953 
L 274.212011 178.22529 
L 272.694701 183.54753 
L 271.118321 187.846522 
L 270.710745 188.86977 
L 269.332721 191.838416 
L 267.547121 195.207755 
L 265.725809 198.255416 
L 263.135368 202.17537 
L 259.273324 207.49761 
L 254.976497 213.079944 
L 246.012785 224.297403 
L 231.656561 241.780272 
L 224.478449 249.880053 
L 216.589114 258.50241 
L 213.693425 261.94292 
L 211.907825 264.27548 
L 210.110279 266.92929 
L 208.300913 270.242244 
L 207.386092 272.25153 
L 206.35719 274.91265 
L 204.729713 280.275464 
L 202.572817 288.21825 
L 202.572817 288.21825 
" clip-path="url(#p1aa4dbe11c)" style="fill: none; stroke: #c6dbef; stroke-width: 1.5"/>
    <path d="M 391.360625 287.599369 
L 390.841915 288.21825 
" clip-path="url(#p1aa4dbe11c)" style="fill: none; stroke: #c6dbef; stroke-width: 1.5"/>
   </g>
   <g id="PathCollection_4">
    <path d="M 146.324504 288.21825 
L 145.847811 285.55713 
L 145.709705 282.89601 
L 145.892424 280.23489 
L 146.388056 277.57377 
L 147.304817 274.645526 
L 148.297226 272.25153 
L 149.694425 269.59041 
L 151.370422 266.92929 
L 153.651611 263.82465 
L 156.268529 260.679225 
L 161.661041 254.783773 
L 163.446641 252.833164 
L 165.43524 250.51905 
L 167.432586 247.85793 
L 169.075256 245.19681 
L 170.624753 241.887501 
L 171.364822 239.87457 
L 172.410353 236.093312 
L 173.276281 231.89121 
L 174.771655 223.90785 
L 176.017265 218.876242 
L 176.21625 218.14209 
L 177.802865 213.566378 
L 178.087487 212.81985 
L 179.588465 209.508138 
L 181.409777 206.070661 
L 183.195377 203.098423 
L 185.568128 199.51425 
L 189.428515 194.19201 
L 193.944689 188.325927 
L 202.944113 177.08921 
L 215.479025 161.955821 
L 220.402492 156.49281 
L 222.949423 153.83169 
L 226.264049 150.514067 
L 231.656561 145.494834 
L 238.834673 139.202217 
L 243.336448 135.20385 
L 247.798385 130.838219 
L 251.592571 126.77697 
L 256.762097 120.843811 
L 263.940209 112.223969 
L 283.688945 87.523695 
L 287.260145 82.656546 
L 290.102352 78.43329 
L 291.714216 75.77217 
L 293.146406 73.11105 
L 294.438257 70.303652 
L 295.405137 67.78881 
L 296.259569 65.093055 
L 296.930507 62.46657 
L 298.045169 56.763309 
L 299.803281 46.49985 
L 301.222642 40.73409 
L 302.084432 38.07297 
L 303.437681 34.664068 
L 305.223281 30.945652 
L 305.670856 30.08961 
L 307.23361 27.42849 
L 308.980446 24.76737 
L 310.911092 22.10625 
L 310.911092 22.10625 
" clip-path="url(#p1aa4dbe11c)" style="fill: none; stroke: #9dcae1; stroke-width: 1.5"/>
    <path d="M 189.995097 22.10625 
L 190.471879 24.76737 
L 190.612484 27.42849 
L 190.373489 30.371393 
L 189.931477 32.75073 
L 189.128057 35.41185 
L 188.02295 38.07297 
L 186.624188 40.73409 
L 184.947934 43.39521 
L 182.665325 46.49985 
L 179.588465 50.162219 
L 170.624753 59.919121 
L 168.597387 62.46657 
L 166.796486 65.12769 
L 165.232241 67.964253 
L 164.107707 70.44993 
L 163.108335 73.11105 
L 161.473299 78.43329 
L 159.875441 83.956548 
L 159.084764 86.41665 
L 157.94683 89.52129 
L 156.268529 93.271671 
L 154.482929 96.559748 
L 152.697329 99.357981 
L 150.876017 101.884485 
L 147.987552 105.48801 
L 143.411053 110.81025 
L 134.332405 121.45473 
L 125.770481 131.795499 
L 98.843633 165.158847 
L 94.818746 169.79841 
L 91.665521 173.151823 
L 89.667009 175.12065 
L 86.046795 178.22529 
L 84.487409 179.329944 
L 81.849521 180.88641 
L 80.916209 181.336415 
L 79.094897 182.011639 
L 77.309297 182.461782 
L 75.523697 182.685104 
L 73.738097 182.662451 
L 71.916785 182.363893 
L 70.131185 181.777268 
L 68.345585 180.870496 
L 66.559985 179.322312 
L 65.583771 178.22529 
L 64.738673 176.772872 
L 63.949473 175.12065 
L 63.346412 172.45953 
L 63.292876 169.79841 
L 63.697105 167.13729 
L 64.738673 163.839189 
L 65.595999 161.81505 
L 66.974296 159.15393 
L 68.563104 156.49281 
L 72.1848 151.17057 
L 76.197828 145.84833 
L 84.756089 135.20385 
L 102.450545 113.144728 
L 107.807345 106.123064 
L 110.150059 102.82689 
L 113.199857 98.148779 
L 115.088374 94.84353 
L 116.806769 91.305407 
L 117.564953 89.52129 
L 118.704495 86.41665 
L 120.377969 80.754712 
L 123.096153 70.44993 
L 123.984881 67.625557 
L 125.770481 62.904406 
L 127.168783 59.80545 
L 129.341681 55.56276 
L 132.702918 49.16097 
L 133.917219 46.49985 
L 135.112533 43.39521 
L 136.519793 38.595923 
L 137.247765 35.41185 
L 138.928845 27.42849 
L 140.126705 23.055235 
L 140.417822 22.10625 
L 140.417822 22.10625 
" clip-path="url(#p1aa4dbe11c)" style="fill: none; stroke: #9dcae1; stroke-width: 1.5"/>
    <path d="M 324.701788 288.21825 
L 324.194841 285.55713 
L 324.017308 282.89601 
L 324.146535 280.23489 
L 324.569025 277.57377 
L 324.972017 276.044798 
L 325.26652 274.91265 
L 326.217486 272.25153 
L 326.757617 271.042593 
L 327.407244 269.59041 
L 328.543217 267.434054 
L 328.810676 266.92929 
L 330.328817 264.382861 
L 330.66673 263.82465 
L 332.150129 261.563298 
L 332.414778 261.16353 
L 333.935729 258.981401 
L 334.273014 258.50241 
L 335.721329 256.515653 
L 336.218277 255.84129 
L 337.506929 254.13168 
L 338.232053 253.18017 
L 339.328241 251.762498 
L 340.300513 250.51905 
L 341.113841 249.485714 
L 342.409765 247.85793 
L 342.899441 247.243347 
L 344.54809 245.19681 
L 344.685041 245.026169 
L 346.506353 242.770171 
L 346.696805 242.53569 
L 348.291953 240.560703 
L 348.851782 239.87457 
L 350.077553 238.362892 
L 351.020997 237.21345 
L 351.863153 236.182127 
L 353.214575 234.55233 
L 353.684465 233.984389 
L 355.451901 231.89121 
L 355.470065 231.869675 
L 357.255665 229.784142 
L 357.743984 229.23009 
L 359.041265 227.762022 
L 360.135989 226.56897 
L 360.862577 225.779572 
L 362.648177 223.928753 
L 362.669055 223.90785 
L 364.433777 222.139042 
L 365.874211 220.80321 
L 366.219377 220.481711 
L 368.040689 218.887418 
L 368.967588 218.14209 
L 369.826289 217.449733 
L 371.611889 216.141385 
L 372.619213 215.48097 
L 373.397489 214.96735 
L 375.218801 213.908755 
L 377.004401 213.029612 
L 377.509825 212.81985 
L 378.790001 212.280236 
L 380.575601 211.679077 
L 382.396913 211.222644 
L 384.182513 210.925509 
L 385.968113 210.77605 
L 387.753713 210.775243 
L 389.575025 210.93096 
L 391.360625 211.243009 
" clip-path="url(#p1aa4dbe11c)" style="fill: none; stroke: #9dcae1; stroke-width: 1.5"/>
    <path d="M 368.741288 22.10625 
L 369.244447 24.76737 
L 369.420245 27.42849 
L 369.291463 30.08961 
L 368.871987 32.75073 
L 368.040689 35.769719 
L 367.218949 38.07297 
L 366.019208 40.73409 
L 364.433777 43.695312 
L 362.648177 46.636502 
L 359.041265 51.860215 
L 354.957532 57.14433 
L 351.863153 60.844999 
L 348.014954 65.12769 
L 344.685041 68.619521 
L 339.328241 73.815574 
L 333.935729 78.649036 
L 324.972017 86.558213 
L 321.365105 90.052348 
L 316.851798 94.84353 
L 310.615793 102.03454 
L 305.223281 108.524778 
L 285.474545 133.164924 
L 281.903345 137.969946 
L 278.296433 143.273776 
L 276.510833 146.250154 
L 274.725233 149.716074 
L 274.071511 151.17057 
L 272.903921 154.243977 
L 272.202772 156.49281 
L 271.118321 160.991188 
L 270.475274 164.47617 
L 268.656309 175.12065 
L 267.547121 179.71749 
L 267.233597 180.88641 
L 265.725809 185.266715 
L 265.367899 186.20865 
L 263.940209 189.373652 
L 262.154609 192.768067 
L 260.369009 195.759529 
L 257.889437 199.51425 
L 254.028729 204.83649 
L 249.583985 210.610296 
L 240.620273 221.80615 
L 228.049649 236.995706 
L 222.657137 242.988652 
L 217.300337 248.517962 
L 209.92944 255.84129 
L 206.515313 259.645526 
L 204.729713 261.959152 
L 202.944113 264.783995 
L 201.82895 266.92929 
L 200.748576 269.59041 
L 199.337201 274.384886 
L 198.60529 277.57377 
L 197.416156 282.89601 
L 196.734073 285.55713 
L 195.911529 288.21825 
L 195.911529 288.21825 
" clip-path="url(#p1aa4dbe11c)" style="fill: none; stroke: #9dcae1; stroke-width: 1.5"/>
    <path d="M 391.360625 278.459595 
L 389.930445 280.23489 
L 389.575025 280.674734 
L 387.753713 282.891872 
L 387.750287 282.89601 
L 385.968113 285.040366 
L 385.52986 285.55713 
L 384.182513 287.140342 
L 383.241761 288.21825 
" clip-path="url(#p1aa4dbe11c)" style="fill: none; stroke: #9dcae1; stroke-width: 1.5"/>
   </g>
   <g id="PathCollection_5">
    <path d="M 152.613292 288.21825 
L 151.984117 285.55713 
L 151.787326 282.89601 
L 151.99282 280.23489 
L 152.697329 277.239819 
L 153.547006 274.91265 
L 154.8768 272.25153 
L 156.569544 269.59041 
L 158.622837 266.92929 
L 161.661041 263.595797 
L 165.232241 260.19104 
L 170.624753 255.278964 
L 172.686753 253.18017 
L 174.776103 250.51905 
L 176.267678 247.85793 
L 177.281514 245.19681 
L 177.944838 242.53569 
L 178.393343 239.87457 
L 178.962362 234.55233 
L 179.588465 228.47035 
L 180.278891 223.90785 
L 181.409777 219.182471 
L 181.700262 218.14209 
L 183.195377 214.048159 
L 183.702546 212.81985 
L 184.980977 210.157519 
L 186.766577 206.946576 
L 188.587889 204.024557 
L 191.690523 199.51425 
L 195.766001 194.058202 
L 202.944113 184.954338 
L 213.693425 171.78163 
L 219.085937 165.479517 
L 222.657137 161.60063 
L 226.264049 157.970459 
L 230.836439 153.83169 
L 233.442161 151.663318 
L 238.834673 147.654986 
L 244.191473 144.161649 
L 258.906051 135.20385 
L 265.725809 130.810837 
L 267.547121 129.770995 
L 269.333419 129.43809 
L 269.332721 132.218146 
L 266.874136 140.52609 
L 266.249028 143.18721 
L 265.345596 148.50945 
L 264.829343 153.83169 
L 263.899146 169.79841 
L 263.154116 175.12065 
L 262.154609 179.426249 
L 261.750175 180.88641 
L 260.369009 184.711723 
L 259.752916 186.20865 
L 258.476067 188.86977 
L 256.762097 191.962253 
L 254.976497 194.840345 
L 251.766527 199.51425 
L 247.79344 204.83649 
L 240.620273 213.941108 
L 229.835249 227.160996 
L 224.478449 233.431932 
L 220.871537 237.363264 
L 217.300337 240.986787 
L 212.744698 245.19681 
L 209.653738 247.85793 
L 200.326648 255.84129 
L 197.949844 258.50241 
L 196.194119 261.16353 
L 194.979609 263.82465 
L 193.944689 267.477029 
L 193.523903 269.59041 
L 191.424602 282.89601 
L 190.373489 286.494893 
L 189.738463 288.21825 
L 189.738463 288.21825 
" clip-path="url(#p1aa4dbe11c)" style="fill: none; stroke: #6aaed6; stroke-width: 1.5"/>
    <path d="M 183.704212 22.10625 
L 184.336912 24.76737 
L 184.534618 27.42849 
L 184.328037 30.08961 
L 183.738757 32.75073 
L 183.195377 34.276925 
L 182.774743 35.41185 
L 181.447524 38.07297 
L 181.409777 38.135488 
L 179.751698 40.73409 
L 179.588465 40.958633 
L 177.802865 43.270159 
L 177.699571 43.39521 
L 176.017265 45.286816 
L 174.858306 46.49985 
L 174.231665 47.137695 
L 172.410353 48.876921 
L 172.092123 49.16097 
L 170.624753 50.497406 
L 169.095462 51.82209 
L 168.839153 52.056601 
L 167.053553 53.614931 
L 166.029923 54.48321 
L 165.232241 55.235745 
L 163.446641 56.913729 
L 163.197216 57.14433 
L 161.661041 58.825193 
L 160.799146 59.80545 
L 159.875441 61.109711 
L 158.958518 62.46657 
L 158.054129 64.218171 
L 157.603904 65.12769 
L 156.596705 67.78881 
L 156.268529 68.881029 
L 155.803072 70.44993 
L 155.131066 73.11105 
L 154.515629 75.77217 
L 154.482929 75.906216 
L 153.842426 78.43329 
L 153.108263 81.09441 
L 152.697329 82.389841 
L 152.230317 83.75553 
L 151.172446 86.41665 
L 150.876017 87.052499 
L 149.609034 89.52129 
L 149.090417 90.406733 
L 147.93224 92.18241 
L 147.304817 93.062518 
L 145.890048 94.84353 
L 145.519217 95.285668 
L 143.697905 97.240691 
L 143.420881 97.50465 
L 141.912305 98.933705 
L 140.511728 100.16577 
L 140.126705 100.511993 
L 138.341105 101.970653 
L 137.231337 102.82689 
L 136.519793 103.408569 
L 134.734193 104.772824 
L 133.756972 105.48801 
L 132.948593 106.123605 
L 131.162993 107.464148 
L 130.214474 108.14913 
L 129.341681 108.825823 
L 127.556081 110.145646 
L 126.607364 110.81025 
L 125.770481 111.419287 
L 123.984881 112.532021 
L 122.347467 113.47137 
L 122.163569 113.577812 
L 121.691081 113.47137 
L 121.340765 110.81025 
L 122.074143 108.14913 
L 122.163569 107.92584 
L 123.051008 105.48801 
L 123.863962 102.82689 
L 123.984881 102.453358 
L 124.670646 100.16577 
L 125.330823 97.50465 
L 125.770481 95.446188 
L 125.892058 94.84353 
L 126.407777 92.18241 
L 126.848449 89.52129 
L 127.314715 86.41665 
L 127.556081 84.829993 
L 127.720254 83.75553 
L 128.16559 81.09441 
L 128.656579 78.43329 
L 129.220943 75.77217 
L 129.341681 75.296578 
L 129.930977 73.11105 
L 130.771851 70.44993 
L 131.162993 69.388231 
L 131.802672 67.78881 
L 132.948593 65.243011 
L 133.005469 65.12769 
L 134.431129 62.46657 
L 134.734193 61.924769 
L 136.00064 59.80545 
L 136.519793 58.922142 
L 137.610272 57.14433 
L 138.341105 55.841836 
L 139.110502 54.48321 
L 140.126705 52.344868 
L 140.368905 51.82209 
L 141.359425 49.16097 
L 141.912305 47.13325 
L 142.075416 46.49985 
L 142.674391 43.39521 
L 143.042306 40.73409 
L 143.345298 38.07297 
L 143.636692 35.41185 
L 143.697905 34.929382 
L 143.967476 32.75073 
L 144.377854 30.08961 
L 144.913089 27.42849 
L 145.519217 25.156464 
L 145.625782 24.76737 
L 146.587845 22.10625 
" clip-path="url(#p1aa4dbe11c)" style="fill: none; stroke: #6aaed6; stroke-width: 1.5"/>
    <path d="M 330.751947 288.21825 
L 330.328817 286.579347 
L 330.076324 285.55713 
L 329.808018 282.89601 
L 329.904779 280.23489 
L 330.328817 277.626946 
L 330.337426 277.57377 
L 331.074471 274.91265 
L 332.092428 272.25153 
L 332.150129 272.128916 
L 333.352981 269.59041 
L 333.935729 268.531635 
L 334.825259 266.92929 
L 335.721329 265.481596 
L 336.759638 263.82465 
L 337.506929 262.717082 
L 338.564207 261.16353 
L 339.328241 260.093502 
L 340.474 258.50241 
L 341.113841 257.642682 
L 342.466004 255.84129 
L 342.899441 255.276567 
L 344.521937 253.18017 
L 344.685041 252.97235 
L 346.506353 250.667019 
L 346.623815 250.51905 
L 348.291953 248.433961 
L 348.755461 247.85793 
L 350.077553 246.219667 
L 350.90767 245.19681 
L 351.863153 244.01953 
L 353.075231 242.53569 
L 353.684465 241.789653 
L 355.262321 239.87457 
L 355.470065 239.622611 
L 357.255665 237.480854 
L 357.481378 237.21345 
L 359.041265 235.377775 
L 359.757806 234.55233 
L 360.862577 233.292111 
L 362.127936 231.89121 
L 362.648177 231.321577 
L 364.433777 229.438597 
L 364.639309 229.23009 
L 366.219377 227.64978 
L 367.365475 226.56897 
L 368.040689 225.940325 
L 369.826289 224.387151 
L 370.421103 223.90785 
L 371.611889 222.95855 
L 373.397489 221.67349 
L 374.759269 220.80321 
L 375.218801 220.512075 
L 377.004401 219.52614 
L 378.790001 218.70162 
L 380.296061 218.14209 
L 380.575601 218.038643 
L 382.396913 217.534142 
L 384.182513 217.214248 
L 385.968113 217.070896 
L 387.753713 217.109878 
L 389.575025 217.346051 
L 391.360625 217.781407 
" clip-path="url(#p1aa4dbe11c)" style="fill: none; stroke: #6aaed6; stroke-width: 1.5"/>
    <path d="M 362.690013 22.10625 
L 363.362076 24.76737 
L 363.629935 27.42849 
L 363.532142 30.08961 
L 363.098618 32.75073 
L 362.648177 34.365199 
L 362.355588 35.41185 
L 361.333498 38.07297 
L 360.862577 39.063029 
L 360.060201 40.73409 
L 359.041265 42.55825 
L 358.568075 43.39521 
L 357.255665 45.472643 
L 356.595033 46.49985 
L 355.470065 48.118954 
L 354.733698 49.16097 
L 353.684465 50.570663 
L 352.733849 51.82209 
L 351.863153 52.924964 
L 350.602001 54.48321 
L 350.077553 55.113485 
L 348.336098 57.14433 
L 348.291953 57.194847 
L 346.506353 59.180569 
L 345.922452 59.80545 
L 344.685041 61.1148 
L 343.349071 62.46657 
L 342.899441 62.920674 
L 341.113841 64.643804 
L 340.586558 65.12769 
L 339.328241 66.291974 
L 337.612472 67.78881 
L 337.506929 67.882565 
L 335.721329 69.380444 
L 334.361808 70.44993 
L 333.935729 70.795711 
L 332.150129 72.151563 
L 330.799354 73.11105 
L 330.328817 73.461289 
L 328.543217 74.696683 
L 326.895496 75.77217 
L 326.757617 75.868121 
L 324.972017 77.01462 
L 323.150705 78.133552 
L 322.623058 78.43329 
L 321.365105 79.215833 
L 319.579505 80.278775 
L 318.168942 81.09441 
L 317.793905 81.335347 
L 315.972593 82.421005 
L 314.186993 83.503863 
L 313.737817 83.75553 
L 312.401393 84.599385 
L 310.615793 85.731504 
L 309.516515 86.41665 
L 308.794481 86.912589 
L 307.008881 88.053716 
L 305.223281 89.309255 
L 304.862475 89.52129 
L 303.437681 90.398108 
L 301.616369 91.44412 
L 299.997877 92.18241 
L 299.830769 92.260636 
L 299.610882 92.18241 
L 299.182934 89.52129 
L 299.830769 87.159114 
L 299.985451 86.41665 
L 300.838719 83.75553 
L 301.540015 81.09441 
L 301.616369 80.815044 
L 302.202753 78.43329 
L 302.714403 75.77217 
L 303.102074 73.11105 
L 303.392005 70.44993 
L 303.437681 69.937637 
L 303.613809 67.78881 
L 303.776339 65.12769 
L 303.903314 62.46657 
L 304.019892 59.80545 
L 304.150643 57.14433 
L 304.319928 54.48321 
L 304.552078 51.82209 
L 304.871523 49.16097 
L 305.223281 46.996234 
L 305.302457 46.49985 
L 305.9726 43.39521 
L 306.717543 40.73409 
L 307.008881 39.88792 
L 307.638285 38.07297 
L 308.750887 35.41185 
L 308.794481 35.321728 
L 310.062805 32.75073 
L 310.615793 31.766895 
L 311.583051 30.08961 
L 312.401393 28.809955 
L 313.312355 27.42849 
L 314.186993 26.205987 
L 315.253846 24.76737 
L 315.972593 23.859116 
L 317.420636 22.10625 
" clip-path="url(#p1aa4dbe11c)" style="fill: none; stroke: #6aaed6; stroke-width: 1.5"/>
    <path d="M 391.360625 270.405018 
L 389.941674 272.25153 
L 389.575025 272.722151 
L 387.852072 274.91265 
L 387.753713 275.036322 
L 385.968113 277.262829 
L 385.716367 277.57377 
L 384.182513 279.447532 
L 383.529462 280.23489 
L 382.396913 281.58602 
L 381.280209 282.89601 
L 380.575601 283.713268 
L 378.95012 285.55713 
L 378.790001 285.736522 
L 377.004401 287.689694 
L 376.506017 288.21825 
" clip-path="url(#p1aa4dbe11c)" style="fill: none; stroke: #6aaed6; stroke-width: 1.5"/>
   </g>
   <g id="PathCollection_6">
    <path d="M 159.690003 288.21825 
L 158.677996 285.55713 
L 158.311534 282.89601 
L 158.525838 280.23489 
L 159.261902 277.57377 
L 159.875441 276.213342 
L 160.516568 274.91265 
L 161.661041 273.158258 
L 162.315256 272.25153 
L 163.446641 270.928897 
L 164.721881 269.59041 
L 165.232241 269.104045 
L 167.053553 267.563312 
L 167.91044 266.92929 
L 168.839153 266.264196 
L 170.624753 265.157057 
L 172.410353 264.200324 
L 173.293091 263.82465 
L 174.231665 263.399987 
L 176.017265 262.803656 
L 177.802865 262.432607 
L 179.588465 262.386052 
L 181.409777 262.900909 
L 182.553133 263.82465 
L 183.195377 264.506035 
L 184.388613 266.92929 
L 184.980977 268.786471 
L 185.164075 269.59041 
L 185.5876 272.25153 
L 185.790685 274.91265 
L 185.777943 277.57377 
L 185.532982 280.23489 
L 185.023204 282.89601 
L 184.980977 283.032122 
L 184.131926 285.55713 
L 183.195377 287.47638 
L 182.7862 288.21825 
" clip-path="url(#p1aa4dbe11c)" style="fill: none; stroke: #4191c6; stroke-width: 1.5"/>
    <path d="M 176.618365 22.10625 
L 177.656276 24.76737 
L 177.802865 25.793516 
L 178.012005 27.42849 
L 177.809764 30.08961 
L 177.802865 30.115884 
L 177.056944 32.75073 
L 176.017265 35.008462 
L 175.813502 35.41185 
L 174.231665 37.779092 
L 174.013147 38.07297 
L 172.410353 39.893037 
L 171.579752 40.73409 
L 170.624753 41.612797 
L 168.839153 43.071059 
L 168.378333 43.39521 
L 167.053553 44.29672 
L 165.232241 45.362864 
L 163.446641 46.244074 
L 162.760546 46.49985 
L 161.661041 46.932528 
L 159.875441 47.405503 
L 158.054129 47.606589 
L 156.268529 47.399652 
L 154.482929 46.53001 
L 154.449993 46.49985 
L 152.697329 44.381713 
L 152.233523 43.39521 
L 151.342073 40.73409 
L 150.876017 38.457938 
L 150.814508 38.07297 
L 150.579357 35.41185 
L 150.569049 32.75073 
L 150.795512 30.08961 
L 150.876017 29.662417 
L 151.323061 27.42849 
L 152.191582 24.76737 
L 152.697329 23.699276 
L 153.545509 22.10625 
" clip-path="url(#p1aa4dbe11c)" style="fill: none; stroke: #4191c6; stroke-width: 1.5"/>
    <path d="M 337.116198 288.21825 
L 336.084584 285.55713 
L 335.721329 283.563263 
L 335.609354 282.89601 
L 335.603152 280.23489 
L 335.721329 279.43559 
L 335.999571 277.57377 
L 336.746202 274.91265 
L 337.506929 272.973167 
L 337.793579 272.25153 
L 339.101229 269.59041 
L 339.328241 269.190804 
L 340.625665 266.92929 
L 341.113841 266.164025 
L 342.616519 263.82465 
L 342.899441 263.415439 
L 344.467095 261.16353 
L 344.685041 260.864839 
L 346.419292 258.50241 
L 346.506353 258.387718 
L 348.291953 256.049679 
L 348.451745 255.84129 
L 350.077553 253.771843 
L 350.543487 253.18017 
L 351.863153 251.531547 
L 352.674996 250.51905 
L 353.684465 249.272945 
L 354.832504 247.85793 
L 355.470065 247.077693 
L 357.010997 245.19681 
L 357.255665 244.900062 
L 359.041265 242.749272 
L 359.220027 242.53569 
L 360.862577 240.59621 
L 361.481595 239.87457 
L 362.648177 238.536156 
L 363.825674 237.21345 
L 364.433777 236.543714 
L 366.219377 234.639093 
L 366.30402 234.55233 
L 368.040689 232.820081 
L 369.02206 231.89121 
L 369.826289 231.150635 
L 371.611889 229.616899 
L 372.10096 229.23009 
L 373.397489 228.234849 
L 375.218801 226.980564 
L 375.901275 226.56897 
L 377.004401 225.923129 
L 378.790001 225.044796 
L 380.575601 224.342591 
L 382.094806 223.90785 
L 382.396913 223.824071 
L 384.182513 223.534096 
L 385.968113 223.457247 
L 387.753713 223.608571 
L 389.098572 223.90785 
L 389.575025 224.02555 
L 391.360625 224.756568 
" clip-path="url(#p1aa4dbe11c)" style="fill: none; stroke: #4191c6; stroke-width: 1.5"/>
    <path d="M 356.314118 22.10625 
L 357.255665 24.487605 
L 357.355425 24.76737 
L 357.817508 27.42849 
L 357.821273 30.08961 
L 357.425335 32.75073 
L 357.255665 33.352562 
L 356.666994 35.41185 
L 355.604673 38.07297 
L 355.470065 38.343981 
L 354.264389 40.73409 
L 353.684465 41.726824 
L 352.693086 43.39521 
L 351.863153 44.644507 
L 350.607971 46.49985 
L 350.077553 47.22308 
L 348.624136 49.16097 
L 348.291953 49.580078 
L 346.506353 51.771953 
L 346.464174 51.82209 
L 344.685041 53.844293 
L 344.101042 54.48321 
L 342.899441 55.753792 
L 341.523404 57.14433 
L 341.113841 57.548609 
L 339.328241 59.216419 
L 338.657039 59.80545 
L 337.506929 60.801894 
L 335.721329 62.24361 
L 335.420186 62.46657 
L 333.935729 63.565976 
L 332.150129 64.775698 
L 331.565819 65.12769 
L 330.328817 65.886371 
L 328.543217 66.848726 
L 326.757617 67.683677 
L 326.474716 67.78881 
L 324.972017 68.373389 
L 323.150705 68.910278 
L 321.365105 69.245643 
L 319.579505 69.344957 
L 317.793905 69.129965 
L 315.972593 68.44601 
L 315.043353 67.78881 
L 314.186993 67.038616 
L 312.843612 65.12769 
L 312.401393 64.282249 
L 311.702724 62.46657 
L 310.987893 59.80545 
L 310.615793 57.653805 
L 310.541646 57.14433 
L 310.317192 54.48321 
L 310.271973 51.82209 
L 310.404044 49.16097 
L 310.615793 47.386641 
L 310.722149 46.49985 
L 311.347581 43.39521 
L 312.101997 40.73409 
L 312.401393 39.910059 
L 313.084511 38.07297 
L 314.186993 35.633898 
L 314.290346 35.41185 
L 315.739656 32.75073 
L 315.972593 32.373376 
L 317.432009 30.08961 
L 317.793905 29.577433 
L 319.373015 27.42849 
L 319.579505 27.169564 
L 321.365105 25.029106 
L 321.594552 24.76737 
L 323.150705 23.117422 
L 324.166921 22.10625 
" clip-path="url(#p1aa4dbe11c)" style="fill: none; stroke: #4191c6; stroke-width: 1.5"/>
    <path d="M 391.360625 262.334961 
L 390.321157 263.82465 
L 389.575025 264.847803 
L 388.047195 266.92929 
L 387.753713 267.316974 
L 386.022169 269.59041 
L 385.968113 269.659911 
L 384.182513 271.938973 
L 383.936386 272.25153 
L 382.396913 274.167714 
L 381.79446 274.91265 
L 380.575601 276.391408 
L 379.591869 277.57377 
L 378.790001 278.519098 
L 377.315056 280.23489 
L 377.004401 280.589 
L 375.218801 282.583431 
L 374.932569 282.89601 
L 373.397489 284.526258 
L 372.395253 285.55713 
L 371.611889 286.336963 
L 369.826289 288.034126 
L 369.622017 288.21825 
" clip-path="url(#p1aa4dbe11c)" style="fill: none; stroke: #4191c6; stroke-width: 1.5"/>
    <path d="M 186.190938 239.87457 
L 185.699748 237.21345 
L 185.379098 234.55233 
L 185.216539 231.89121 
L 185.21161 229.23009 
L 185.370005 226.56897 
L 185.700494 223.90785 
L 186.316913 220.80321 
L 186.766577 219.18774 
L 187.062214 218.14209 
L 188.017363 215.48097 
L 188.587889 214.163073 
L 189.181736 212.81985 
L 190.373489 210.489234 
L 190.546077 210.15873 
L 192.097956 207.49761 
L 192.159089 207.401204 
L 193.810679 204.83649 
L 193.944689 204.640373 
L 195.648774 202.17537 
L 195.766001 202.0126 
L 197.551601 199.553445 
L 197.58025 199.51425 
L 199.337201 197.177094 
L 199.581583 196.85313 
L 201.122801 194.851978 
L 201.632293 194.19201 
L 202.944113 192.51965 
L 203.721098 191.53089 
L 204.729713 190.263936 
L 205.841111 188.86977 
L 206.515313 188.032401 
L 207.985271 186.20865 
L 208.300913 185.819711 
L 210.122225 183.578102 
L 210.147111 183.54753 
L 211.907825 181.397199 
L 212.32594 180.88641 
L 213.693425 179.223841 
L 214.516095 178.22529 
L 215.479025 177.0645 
L 217.09733 175.12065 
L 217.300337 174.879054 
L 219.085937 172.781785 
L 219.364248 172.45953 
L 220.871537 170.740325 
L 221.714813 169.79841 
L 222.657137 168.763396 
L 224.182646 167.13729 
L 224.478449 166.826998 
L 226.264049 165.028555 
L 226.837652 164.47617 
L 228.049649 163.326234 
L 229.729163 161.81505 
L 229.835249 161.720302 
L 231.656561 160.20196 
L 233.006209 159.15393 
L 233.442161 158.81459 
L 235.227761 157.545237 
L 236.848946 156.49281 
L 237.013361 156.384264 
L 238.834673 155.328583 
L 240.620273 154.418003 
L 241.978975 153.83169 
L 242.405873 153.639558 
L 244.191473 153.013118 
L 246.012785 152.54953 
L 247.798385 152.301893 
L 249.583985 152.316656 
L 251.369585 152.690748 
L 253.190897 153.620491 
L 253.441501 153.83169 
L 254.976497 155.461799 
L 255.602081 156.49281 
L 256.762097 159.127645 
L 256.770808 159.15393 
L 257.458636 161.81505 
L 257.898552 164.47617 
L 258.133587 167.13729 
L 258.182516 169.79841 
L 258.050763 172.45953 
L 257.736341 175.12065 
L 257.130702 178.22529 
L 256.762097 179.557604 
L 256.388805 180.88641 
L 255.437679 183.54753 
L 254.976497 184.615107 
L 254.273685 186.20865 
L 253.190897 188.329792 
L 252.909326 188.86977 
L 251.369585 191.513645 
L 251.359352 191.53089 
L 249.646959 194.19201 
L 249.583985 194.284221 
L 247.809203 196.85313 
L 247.798385 196.868157 
L 246.012785 199.32702 
L 245.875953 199.51425 
L 244.191473 201.756047 
L 243.875216 202.17537 
L 242.405873 204.083611 
L 241.824855 204.83649 
L 240.620273 206.372326 
L 239.736171 207.49761 
L 238.834673 208.630322 
L 237.616266 210.15873 
L 237.013361 210.907772 
L 235.472358 212.81985 
L 235.227761 213.121291 
L 233.442161 215.317598 
L 233.309195 215.48097 
L 231.656561 217.499831 
L 231.130814 218.14209 
L 229.835249 219.717882 
L 228.941287 220.80321 
L 228.049649 221.878506 
L 226.361164 223.90785 
L 226.264049 224.023509 
L 224.478449 226.121853 
L 224.092692 226.56897 
L 222.657137 228.209016 
L 221.744455 229.23009 
L 220.871537 230.190867 
L 219.28113 231.89121 
L 219.085937 232.096717 
L 217.300337 233.903653 
L 216.630537 234.55233 
L 215.479025 235.652922 
L 213.759652 237.21345 
L 213.693425 237.273266 
L 211.907825 238.783638 
L 210.530924 239.87457 
L 210.122225 240.200881 
L 208.300913 241.537032 
L 206.822495 242.53569 
L 206.515313 242.748992 
L 204.729713 243.85807 
L 202.944113 244.863259 
L 202.255215 245.19681 
L 201.122801 245.78438 
L 199.337201 246.572784 
L 197.551601 247.231396 
L 195.766001 247.734595 
L 194.959732 247.85793 
L 193.944689 248.044674 
L 192.159089 248.036742 
L 191.488355 247.85793 
L 190.373489 247.507968 
L 188.587889 245.979846 
L 188.115545 245.19681 
L 186.908601 242.53569 
L 186.766577 242.127906 
L 186.190938 239.87457 
z
" clip-path="url(#p1aa4dbe11c)" style="fill: none; stroke: #4191c6; stroke-width: 1.5"/>
   </g>
   <g id="PathCollection_7">
    <path d="M 345.970038 288.21825 
L 344.685041 287.011069 
L 343.519285 285.55713 
L 342.899441 284.216525 
L 342.401458 282.89601 
L 342.064452 280.23489 
L 342.283125 277.57377 
L 342.899441 275.055692 
L 342.93531 274.91265 
L 343.975102 272.25153 
L 344.685041 270.807012 
L 345.291443 269.59041 
L 346.506353 267.49142 
L 346.834846 266.92929 
L 348.291953 264.710914 
L 348.871144 263.82465 
L 350.077553 262.12686 
L 350.76336 261.16353 
L 351.863153 259.697731 
L 352.760161 258.50241 
L 353.684465 257.316492 
L 354.832174 255.84129 
L 355.470065 255.044541 
L 356.957294 253.18017 
L 357.255665 252.813986 
L 359.041265 250.619593 
L 359.123453 250.51905 
L 360.862577 248.432077 
L 361.340012 247.85793 
L 362.648177 246.316943 
L 363.601602 245.19681 
L 364.433777 244.242377 
L 365.938376 242.53569 
L 366.219377 242.226161 
L 368.040689 240.2833 
L 368.438063 239.87457 
L 369.826289 238.507046 
L 371.200327 237.21345 
L 371.611889 236.843583 
L 373.397489 235.367797 
L 374.480041 234.55233 
L 375.218801 234.025266 
L 377.004401 232.922915 
L 378.790001 231.99264 
L 379.048082 231.89121 
L 380.575601 231.329777 
L 382.396913 230.901764 
L 384.182513 230.751001 
L 385.968113 230.90837 
L 387.753713 231.423276 
L 388.672919 231.89121 
L 389.575025 232.477845 
L 391.360625 234.234912 
" clip-path="url(#p1aa4dbe11c)" style="fill: none; stroke: #2070b4; stroke-width: 1.5"/>
    <path d="M 347.417805 22.10625 
L 348.291953 22.86749 
L 349.907377 24.76737 
L 350.077553 25.11175 
L 350.999591 27.42849 
L 351.336406 30.08961 
L 351.096321 32.75073 
L 350.409513 35.41185 
L 350.077553 36.244471 
L 349.328951 38.07297 
L 348.291953 40.070635 
L 347.938368 40.73409 
L 346.506353 43.017736 
L 346.262776 43.39521 
L 344.685041 45.541275 
L 343.963468 46.49985 
L 342.899441 47.778393 
L 341.703282 49.16097 
L 341.113841 49.796234 
L 339.328241 51.622661 
L 339.118424 51.82209 
L 337.506929 53.264823 
L 336.044803 54.48321 
L 335.721329 54.740719 
L 333.935729 56.002437 
L 332.150129 57.129805 
L 332.12177 57.14433 
L 330.328817 58.032982 
L 328.543217 58.726279 
L 326.757617 59.192917 
L 324.972017 59.377884 
L 323.150705 59.191839 
L 321.365105 58.516958 
L 319.579505 57.161407 
L 319.56445 57.14433 
L 317.908286 54.48321 
L 317.793905 54.177459 
L 317.127839 51.82209 
L 316.81411 49.16097 
L 316.86896 46.49985 
L 317.334463 43.39521 
L 317.793905 41.692427 
L 318.063394 40.73409 
L 319.100125 38.07297 
L 319.579505 37.092847 
L 320.437318 35.41185 
L 321.365105 33.877764 
L 322.078274 32.75073 
L 323.150705 31.271889 
L 324.052594 30.08961 
L 324.972017 29.013323 
L 326.408209 27.42849 
L 326.757617 27.07965 
L 328.543217 25.438339 
L 329.342226 24.76737 
L 330.328817 24.018753 
L 332.150129 22.801465 
L 333.364536 22.10625 
" clip-path="url(#p1aa4dbe11c)" style="fill: none; stroke: #2070b4; stroke-width: 1.5"/>
    <path d="M 391.360625 252.046121 
L 390.844501 253.18017 
L 389.575025 255.550996 
L 389.415744 255.84129 
L 387.781958 258.50241 
L 387.753713 258.544765 
L 385.98798 261.16353 
L 385.968113 261.191404 
L 384.182513 263.676039 
L 384.075352 263.82465 
L 382.396913 266.039062 
L 381.728962 266.92929 
L 380.575601 268.405172 
L 379.649102 269.59041 
L 378.790001 270.65568 
L 377.501334 272.25153 
L 377.004401 272.848284 
L 375.277649 274.91265 
L 375.218801 274.980823 
L 373.397489 277.046764 
L 372.927143 277.57377 
L 371.611889 278.989246 
L 370.432576 280.23489 
L 369.826289 280.847294 
L 368.040689 282.583907 
L 367.702682 282.89601 
L 366.219377 284.185327 
L 364.544485 285.55713 
L 364.433777 285.641838 
L 362.648177 286.864588 
L 360.862577 287.955218 
L 360.351509 288.21825 
" clip-path="url(#p1aa4dbe11c)" style="fill: none; stroke: #2070b4; stroke-width: 1.5"/>
    <path d="M 162.095525 30.08961 
L 163.11852 27.42849 
L 163.446641 27.196997 
L 165.232241 27.01385 
L 165.964182 27.42849 
L 166.338129 30.08961 
L 165.232241 31.231626 
L 163.446641 31.580031 
L 162.095525 30.08961 
z
" clip-path="url(#p1aa4dbe11c)" style="fill: none; stroke: #2070b4; stroke-width: 1.5"/>
    <path d="M 170.248401 282.89601 
L 169.955703 280.23489 
L 170.624753 279.412234 
L 172.410353 278.617571 
L 174.231665 279.965494 
L 174.344446 280.23489 
L 174.231665 280.661127 
L 173.116561 282.89601 
L 172.410353 283.290025 
L 170.624753 283.174919 
L 170.248401 282.89601 
z
" clip-path="url(#p1aa4dbe11c)" style="fill: none; stroke: #2070b4; stroke-width: 1.5"/>
    <path d="M 192.03429 229.23009 
L 191.750787 226.56897 
L 191.805975 223.90785 
L 192.159089 221.435676 
L 192.25159 220.80321 
L 192.962628 218.14209 
L 193.911931 215.48097 
L 193.944689 215.408166 
L 195.141914 212.81985 
L 195.766001 211.653626 
L 196.584368 210.15873 
L 197.551601 208.571145 
L 198.215797 207.49761 
L 199.337201 205.818545 
L 199.998722 204.83649 
L 201.122801 203.256276 
L 201.894389 202.17537 
L 202.944113 200.760774 
L 203.86868 199.51425 
L 204.729713 198.388792 
L 205.900817 196.85313 
L 206.515313 196.067775 
L 207.976891 194.19201 
L 208.300913 193.785237 
L 210.089346 191.53089 
L 210.122225 191.490178 
L 211.907825 189.290806 
L 212.247446 188.86977 
L 213.693425 187.109014 
L 214.42745 186.20865 
L 215.479025 184.938062 
L 216.623487 183.54753 
L 217.300337 182.735671 
L 218.837676 180.88641 
L 219.085937 180.592247 
L 220.871537 178.492956 
L 221.101437 178.22529 
L 222.657137 176.468545 
L 223.852604 175.12065 
L 224.478449 174.43871 
L 226.264049 172.541985 
L 226.345282 172.45953 
L 228.049649 170.794934 
L 229.113978 169.79841 
L 229.835249 169.147659 
L 231.656561 167.616587 
L 232.280319 167.13729 
L 233.442161 166.276194 
L 235.227761 165.089733 
L 236.294213 164.47617 
L 237.013361 164.073488 
L 238.834673 163.254389 
L 240.620273 162.653039 
L 242.405873 162.295612 
L 244.191473 162.246616 
L 246.012785 162.613818 
L 247.798385 163.531393 
L 248.84876 164.47617 
L 249.583985 165.395524 
L 250.530546 167.13729 
L 251.369585 169.786612 
L 251.372479 169.79841 
L 251.677431 172.45953 
L 251.636047 175.12065 
L 251.369585 177.009795 
L 251.193827 178.22529 
L 250.489918 180.88641 
L 249.583985 183.434533 
L 249.542508 183.54753 
L 248.315994 186.20865 
L 247.798385 187.176364 
L 246.872343 188.86977 
L 246.012785 190.281874 
L 245.240094 191.53089 
L 244.191473 193.102723 
L 243.457989 194.19201 
L 242.405873 195.671568 
L 241.563156 196.85313 
L 240.620273 198.123482 
L 239.588944 199.51425 
L 238.834673 200.500485 
L 237.556897 202.17537 
L 237.013361 202.870554 
L 235.481702 204.83649 
L 235.227761 205.155354 
L 233.442161 207.402578 
L 233.366586 207.49761 
L 231.656561 209.602573 
L 231.207755 210.15873 
L 229.835249 211.831453 
L 229.029587 212.81985 
L 228.049649 214.004223 
L 226.835243 215.48097 
L 226.264049 216.166094 
L 224.622227 218.14209 
L 224.478449 218.312594 
L 222.657137 220.450355 
L 222.354334 220.80321 
L 220.871537 222.479791 
L 219.607723 223.90785 
L 219.085937 224.477471 
L 217.300337 226.375144 
L 217.109962 226.56897 
L 215.479025 228.169502 
L 214.351465 229.23009 
L 213.693425 229.827168 
L 211.907825 231.337901 
L 211.19616 231.89121 
L 210.122225 232.698308 
L 208.300913 233.927311 
L 207.236525 234.55233 
L 206.515313 234.966231 
L 204.729713 235.800427 
L 202.944113 236.442317 
L 201.122801 236.854244 
L 199.337201 236.954355 
L 197.551601 236.654758 
L 195.766001 235.801293 
L 194.379331 234.55233 
L 193.944689 234.006535 
L 192.81772 231.89121 
L 192.159089 229.755067 
L 192.03429 229.23009 
z
" clip-path="url(#p1aa4dbe11c)" style="fill: none; stroke: #2070b4; stroke-width: 1.5"/>
   </g>
   <g id="PathCollection_8">
    <path d="M 202.77615 223.90785 
L 201.281648 220.80321 
L 201.41438 218.14209 
L 202.142366 215.48097 
L 202.944113 213.516361 
L 203.238066 212.81985 
L 204.646553 210.15873 
L 204.729713 210.024709 
L 206.30447 207.49761 
L 206.515313 207.188482 
L 208.110095 204.83649 
L 208.300913 204.573551 
L 210.022302 202.17537 
L 210.122225 202.043259 
L 211.907825 199.671297 
L 212.024585 199.51425 
L 213.693425 197.395383 
L 214.110618 196.85313 
L 215.479025 195.164734 
L 216.250355 194.19201 
L 217.300337 192.924258 
L 218.429795 191.53089 
L 219.085937 190.754294 
L 220.644064 188.86977 
L 220.871537 188.604816 
L 222.657137 186.532427 
L 222.936477 186.20865 
L 224.478449 184.500415 
L 225.329264 183.54753 
L 226.264049 182.555037 
L 227.836345 180.88641 
L 228.049649 180.673414 
L 229.835249 179.023832 
L 230.745348 178.22529 
L 231.656561 177.504129 
L 233.442161 176.267945 
L 235.227761 175.18937 
L 235.41014 175.12065 
L 237.013361 174.607075 
L 238.834673 174.481599 
L 240.620273 175.071275 
L 240.680313 175.12065 
L 242.155524 178.22529 
L 242.032879 180.88641 
L 241.316352 183.54753 
L 240.620273 185.243571 
L 240.211483 186.20865 
L 238.834673 188.833831 
L 238.815506 188.86977 
L 237.156951 191.53089 
L 237.013361 191.741746 
L 235.351618 194.19201 
L 235.227761 194.362695 
L 233.442576 196.85313 
L 233.442161 196.853679 
L 231.656561 199.20296 
L 231.42466 199.51425 
L 229.835249 201.536436 
L 229.343689 202.17537 
L 228.049649 203.772716 
L 227.207694 204.83649 
L 226.264049 205.974919 
L 225.030348 207.49761 
L 224.478449 208.151468 
L 222.817394 210.15873 
L 222.657137 210.345829 
L 220.871537 212.407672 
L 220.517026 212.81985 
L 219.085937 214.406096 
L 218.128568 215.48097 
L 217.300337 216.363382 
L 215.62722 218.14209 
L 215.479025 218.290864 
L 213.693425 219.939605 
L 212.71807 220.80321 
L 211.907825 221.449643 
L 210.122225 222.695592 
L 208.300913 223.809984 
L 208.049778 223.90785 
L 206.515313 224.417609 
L 204.729713 224.573237 
L 202.944113 224.041267 
L 202.77615 223.90785 
z
" clip-path="url(#p1aa4dbe11c)" style="fill: none; stroke: #08509b; stroke-width: 1.5"/>
    <path d="M 326.77209 43.39521 
L 327.046678 40.73409 
L 328.053097 38.07297 
L 328.543217 37.243332 
L 329.730057 35.41185 
L 330.328817 34.714721 
L 332.150129 32.819851 
L 332.233233 32.75073 
L 333.935729 31.667851 
L 335.721329 30.838354 
L 337.506929 30.478105 
L 339.328241 30.947743 
L 340.945387 32.75073 
L 341.057848 35.41185 
L 340.144113 38.07297 
L 339.328241 39.531294 
L 338.599652 40.73409 
L 337.506929 42.084238 
L 336.342658 43.39521 
L 335.721329 43.946964 
L 333.935729 45.247856 
L 332.150129 46.286764 
L 331.362676 46.49985 
L 330.328817 46.717311 
L 328.872438 46.49985 
L 328.543217 46.392633 
L 326.77209 43.39521 
z
" clip-path="url(#p1aa4dbe11c)" style="fill: none; stroke: #08509b; stroke-width: 1.5"/>
    <path d="M 351.760037 274.91265 
L 351.863153 274.503219 
L 352.448177 272.25153 
L 353.555347 269.59041 
L 353.684465 269.358295 
L 355.044003 266.92929 
L 355.470065 266.286587 
L 357.053369 263.82465 
L 357.255665 263.546099 
L 358.970599 261.16353 
L 359.041265 261.07231 
L 360.862577 258.728402 
L 361.036579 258.50241 
L 362.648177 256.543741 
L 363.215156 255.84129 
L 364.433777 254.411681 
L 365.465699 253.18017 
L 366.219377 252.324366 
L 367.794989 250.51905 
L 368.040689 250.250952 
L 369.826289 248.376153 
L 370.33344 247.85793 
L 371.611889 246.648552 
L 373.189129 245.19681 
L 373.397489 245.020965 
L 375.218801 243.712882 
L 377.004401 242.573737 
L 377.09377 242.53569 
L 378.790001 241.914171 
L 380.575601 241.656671 
L 382.396913 242.015307 
L 383.176456 242.53569 
L 384.182513 244.087365 
L 384.555225 245.19681 
L 384.53712 247.85793 
L 384.182513 249.311175 
L 383.871017 250.51905 
L 382.758454 253.18017 
L 382.396913 253.855024 
L 381.311781 255.84129 
L 380.575601 257.021149 
L 379.646363 258.50241 
L 378.790001 259.741112 
L 377.812682 261.16353 
L 377.004401 262.254319 
L 375.85371 263.82465 
L 375.218801 264.622327 
L 373.451107 266.92929 
L 373.397489 266.994222 
L 371.611889 269.1059 
L 371.204774 269.59041 
L 369.826289 271.111453 
L 368.797085 272.25153 
L 368.040689 273.026309 
L 366.219377 274.870103 
L 366.173864 274.91265 
L 364.433777 276.377321 
L 362.967647 277.57377 
L 362.648177 277.806922 
L 360.862577 278.888287 
L 359.041265 279.808754 
L 357.761941 280.23489 
L 357.255665 280.375447 
L 355.470065 280.472596 
L 354.405195 280.23489 
L 353.684465 279.930565 
L 351.867045 277.57377 
L 351.863153 277.514419 
L 351.760037 274.91265 
z
" clip-path="url(#p1aa4dbe11c)" style="fill: none; stroke: #08509b; stroke-width: 1.5"/>
   </g>
   <g id="PathCollection_9"/>
   <g id="patch_3">
    <path d="M 34.240625 288.21825 
L 34.240625 22.10625 
" style="fill: none; stroke: #000000; stroke-width: 0.8; stroke-linejoin: miter; stroke-linecap: square"/>
   </g>
   <g id="patch_4">
    <path d="M 391.360625 288.21825 
L 391.360625 22.10625 
" style="fill: none; stroke: #000000; stroke-width: 0.8; stroke-linejoin: miter; stroke-linecap: square"/>
   </g>
   <g id="patch_5">
    <path d="M 34.240625 288.21825 
L 391.360625 288.21825 
" style="fill: none; stroke: #000000; stroke-width: 0.8; stroke-linejoin: miter; stroke-linecap: square"/>
   </g>
   <g id="patch_6">
    <path d="M 34.240625 22.10625 
L 391.360625 22.10625 
" style="fill: none; stroke: #000000; stroke-width: 0.8; stroke-linejoin: miter; stroke-linecap: square"/>
   </g>
   <g id="text_16">
    <!-- 8.5_cross_26.0 -->
    <g transform="translate(168.34625 16.10625)scale(0.12 -0.12)">
     <defs>
      <path id="DejaVuSans-2e" d="M 684 794 
L 1344 794 
L 1344 0 
L 684 0 
L 684 794 
z
" transform="scale(0.015625)"/>
      <path id="DejaVuSans-5f" d="M 3263 -1063 
L 3263 -1509 
L -63 -1509 
L -63 -1063 
L 3263 -1063 
z
" transform="scale(0.015625)"/>
      <path id="DejaVuSans-63" d="M 3122 3366 
L 3122 2828 
Q 2878 2963 2633 3030 
Q 2388 3097 2138 3097 
Q 1578 3097 1268 2742 
Q 959 2388 959 1747 
Q 959 1106 1268 751 
Q 1578 397 2138 397 
Q 2388 397 2633 464 
Q 2878 531 3122 666 
L 3122 134 
Q 2881 22 2623 -34 
Q 2366 -91 2075 -91 
Q 1284 -91 818 406 
Q 353 903 353 1747 
Q 353 2603 823 3093 
Q 1294 3584 2113 3584 
Q 2378 3584 2631 3529 
Q 2884 3475 3122 3366 
z
" transform="scale(0.015625)"/>
      <path id="DejaVuSans-72" d="M 2631 2963 
Q 2534 3019 2420 3045 
Q 2306 3072 2169 3072 
Q 1681 3072 1420 2755 
Q 1159 2438 1159 1844 
L 1159 0 
L 581 0 
L 581 3500 
L 1159 3500 
L 1159 2956 
Q 1341 3275 1631 3429 
Q 1922 3584 2338 3584 
Q 2397 3584 2469 3576 
Q 2541 3569 2628 3553 
L 2631 2963 
z
" transform="scale(0.015625)"/>
      <path id="DejaVuSans-73" d="M 2834 3397 
L 2834 2853 
Q 2591 2978 2328 3040 
Q 2066 3103 1784 3103 
Q 1356 3103 1142 2972 
Q 928 2841 928 2578 
Q 928 2378 1081 2264 
Q 1234 2150 1697 2047 
L 1894 2003 
Q 2506 1872 2764 1633 
Q 3022 1394 3022 966 
Q 3022 478 2636 193 
Q 2250 -91 1575 -91 
Q 1294 -91 989 -36 
Q 684 19 347 128 
L 347 722 
Q 666 556 975 473 
Q 1284 391 1588 391 
Q 1994 391 2212 530 
Q 2431 669 2431 922 
Q 2431 1156 2273 1281 
Q 2116 1406 1581 1522 
L 1381 1569 
Q 847 1681 609 1914 
Q 372 2147 372 2553 
Q 372 3047 722 3315 
Q 1072 3584 1716 3584 
Q 2034 3584 2315 3537 
Q 2597 3491 2834 3397 
z
" transform="scale(0.015625)"/>
     </defs>
     <use xlink:href="#DejaVuSans-38"/>
     <use xlink:href="#DejaVuSans-2e" x="63.623047"/>
     <use xlink:href="#DejaVuSans-35" x="95.410156"/>
     <use xlink:href="#DejaVuSans-5f" x="159.033203"/>
     <use xlink:href="#DejaVuSans-63" x="209.033203"/>
     <use xlink:href="#DejaVuSans-72" x="264.013672"/>
     <use xlink:href="#DejaVuSans-6f" x="302.876953"/>
     <use xlink:href="#DejaVuSans-73" x="364.058594"/>
     <use xlink:href="#DejaVuSans-73" x="416.158203"/>
     <use xlink:href="#DejaVuSans-5f" x="468.257812"/>
     <use xlink:href="#DejaVuSans-32" x="518.257812"/>
     <use xlink:href="#DejaVuSans-36" x="581.880859"/>
     <use xlink:href="#DejaVuSans-2e" x="645.503906"/>
     <use xlink:href="#DejaVuSans-30" x="677.291016"/>
    </g>
   </g>
  </g>
 </g>
 <defs>
  <clipPath id="p1aa4dbe11c">
   <rect x="34.240625" y="22.10625" width="357.12" height="266.112"/>
  </clipPath>
 </defs>
</svg>
