<?xml version="1.0" encoding="utf-8" standalone="no"?>
<!DOCTYPE svg PUBLIC "-//W3C//DTD SVG 1.1//EN"
  "http://www.w3.org/Graphics/SVG/1.1/DTD/svg11.dtd">
<svg xmlns:xlink="http://www.w3.org/1999/xlink" width="408.104375pt" height="325.7745pt" viewBox="0 0 408.104375 325.7745" xmlns="http://www.w3.org/2000/svg" version="1.1">
 <metadata>
  <rdf:RDF xmlns:dc="http://purl.org/dc/elements/1.1/" xmlns:cc="http://creativecommons.org/ns#" xmlns:rdf="http://www.w3.org/1999/02/22-rdf-syntax-ns#">
   <cc:Work>
    <dc:type rdf:resource="http://purl.org/dc/dcmitype/StillImage"/>
    <dc:date>2024-07-12T12:13:22.157653</dc:date>
    <dc:format>image/svg+xml</dc:format>
    <dc:creator>
     <cc:Agent>
      <dc:title>Matplotlib v3.5.3, https://matplotlib.org/</dc:title>
     </cc:Agent>
    </dc:creator>
   </cc:Work>
  </rdf:RDF>
 </metadata>
 <defs>
  <style type="text/css">*{stroke-linejoin: round; stroke-linecap: butt}</style>
 </defs>
 <g id="figure_1">
  <g id="patch_1">
   <path d="M 0 325.7745 
L 408.104375 325.7745 
L 408.104375 0 
L 0 0 
z
" style="fill: #ffffff"/>
  </g>
  <g id="axes_1">
   <g id="patch_2">
    <path d="M 34.240625 288.21825 
L 391.360625 288.21825 
L 391.360625 22.10625 
L 34.240625 22.10625 
z
" style="fill: #ffffff"/>
   </g>
   <g id="matplotlib.axis_1">
    <g id="xtick_1">
     <g id="line2d_1">
      <defs>
       <path id="mac30b9e84f" d="M 0 0 
L 0 3.5 
" style="stroke: #000000; stroke-width: 0.8"/>
      </defs>
      <g>
       <use xlink:href="#mac30b9e84f" x="34.240625" y="288.21825" style="stroke: #000000; stroke-width: 0.8"/>
      </g>
     </g>
     <g id="text_1">
      <!-- 0 -->
      <g transform="translate(31.059375 302.816687)scale(0.1 -0.1)">
       <defs>
        <path id="DejaVuSans-30" d="M 2034 4250 
Q 1547 4250 1301 3770 
Q 1056 3291 1056 2328 
Q 1056 1369 1301 889 
Q 1547 409 2034 409 
Q 2525 409 2770 889 
Q 3016 1369 3016 2328 
Q 3016 3291 2770 3770 
Q 2525 4250 2034 4250 
z
M 2034 4750 
Q 2819 4750 3233 4129 
Q 3647 3509 3647 2328 
Q 3647 1150 3233 529 
Q 2819 -91 2034 -91 
Q 1250 -91 836 529 
Q 422 1150 422 2328 
Q 422 3509 836 4129 
Q 1250 4750 2034 4750 
z
" transform="scale(0.015625)"/>
       </defs>
       <use xlink:href="#DejaVuSans-30"/>
      </g>
     </g>
    </g>
    <g id="xtick_2">
     <g id="line2d_2">
      <g>
       <use xlink:href="#mac30b9e84f" x="105.664625" y="288.21825" style="stroke: #000000; stroke-width: 0.8"/>
      </g>
     </g>
     <g id="text_2">
      <!-- 20 -->
      <g transform="translate(99.302125 302.816687)scale(0.1 -0.1)">
       <defs>
        <path id="DejaVuSans-32" d="M 1228 531 
L 3431 531 
L 3431 0 
L 469 0 
L 469 531 
Q 828 903 1448 1529 
Q 2069 2156 2228 2338 
Q 2531 2678 2651 2914 
Q 2772 3150 2772 3378 
Q 2772 3750 2511 3984 
Q 2250 4219 1831 4219 
Q 1534 4219 1204 4116 
Q 875 4013 500 3803 
L 500 4441 
Q 881 4594 1212 4672 
Q 1544 4750 1819 4750 
Q 2544 4750 2975 4387 
Q 3406 4025 3406 3419 
Q 3406 3131 3298 2873 
Q 3191 2616 2906 2266 
Q 2828 2175 2409 1742 
Q 1991 1309 1228 531 
z
" transform="scale(0.015625)"/>
       </defs>
       <use xlink:href="#DejaVuSans-32"/>
       <use xlink:href="#DejaVuSans-30" x="63.623047"/>
      </g>
     </g>
    </g>
    <g id="xtick_3">
     <g id="line2d_3">
      <g>
       <use xlink:href="#mac30b9e84f" x="177.088625" y="288.21825" style="stroke: #000000; stroke-width: 0.8"/>
      </g>
     </g>
     <g id="text_3">
      <!-- 40 -->
      <g transform="translate(170.726125 302.816687)scale(0.1 -0.1)">
       <defs>
        <path id="DejaVuSans-34" d="M 2419 4116 
L 825 1625 
L 2419 1625 
L 2419 4116 
z
M 2253 4666 
L 3047 4666 
L 3047 1625 
L 3713 1625 
L 3713 1100 
L 3047 1100 
L 3047 0 
L 2419 0 
L 2419 1100 
L 313 1100 
L 313 1709 
L 2253 4666 
z
" transform="scale(0.015625)"/>
       </defs>
       <use xlink:href="#DejaVuSans-34"/>
       <use xlink:href="#DejaVuSans-30" x="63.623047"/>
      </g>
     </g>
    </g>
    <g id="xtick_4">
     <g id="line2d_4">
      <g>
       <use xlink:href="#mac30b9e84f" x="248.512625" y="288.21825" style="stroke: #000000; stroke-width: 0.8"/>
      </g>
     </g>
     <g id="text_4">
      <!-- 60 -->
      <g transform="translate(242.150125 302.816687)scale(0.1 -0.1)">
       <defs>
        <path id="DejaVuSans-36" d="M 2113 2584 
Q 1688 2584 1439 2293 
Q 1191 2003 1191 1497 
Q 1191 994 1439 701 
Q 1688 409 2113 409 
Q 2538 409 2786 701 
Q 3034 994 3034 1497 
Q 3034 2003 2786 2293 
Q 2538 2584 2113 2584 
z
M 3366 4563 
L 3366 3988 
Q 3128 4100 2886 4159 
Q 2644 4219 2406 4219 
Q 1781 4219 1451 3797 
Q 1122 3375 1075 2522 
Q 1259 2794 1537 2939 
Q 1816 3084 2150 3084 
Q 2853 3084 3261 2657 
Q 3669 2231 3669 1497 
Q 3669 778 3244 343 
Q 2819 -91 2113 -91 
Q 1303 -91 875 529 
Q 447 1150 447 2328 
Q 447 3434 972 4092 
Q 1497 4750 2381 4750 
Q 2619 4750 2861 4703 
Q 3103 4656 3366 4563 
z
" transform="scale(0.015625)"/>
       </defs>
       <use xlink:href="#DejaVuSans-36"/>
       <use xlink:href="#DejaVuSans-30" x="63.623047"/>
      </g>
     </g>
    </g>
    <g id="xtick_5">
     <g id="line2d_5">
      <g>
       <use xlink:href="#mac30b9e84f" x="319.936625" y="288.21825" style="stroke: #000000; stroke-width: 0.8"/>
      </g>
     </g>
     <g id="text_5">
      <!-- 80 -->
      <g transform="translate(313.574125 302.816687)scale(0.1 -0.1)">
       <defs>
        <path id="DejaVuSans-38" d="M 2034 2216 
Q 1584 2216 1326 1975 
Q 1069 1734 1069 1313 
Q 1069 891 1326 650 
Q 1584 409 2034 409 
Q 2484 409 2743 651 
Q 3003 894 3003 1313 
Q 3003 1734 2745 1975 
Q 2488 2216 2034 2216 
z
M 1403 2484 
Q 997 2584 770 2862 
Q 544 3141 544 3541 
Q 544 4100 942 4425 
Q 1341 4750 2034 4750 
Q 2731 4750 3128 4425 
Q 3525 4100 3525 3541 
Q 3525 3141 3298 2862 
Q 3072 2584 2669 2484 
Q 3125 2378 3379 2068 
Q 3634 1759 3634 1313 
Q 3634 634 3220 271 
Q 2806 -91 2034 -91 
Q 1263 -91 848 271 
Q 434 634 434 1313 
Q 434 1759 690 2068 
Q 947 2378 1403 2484 
z
M 1172 3481 
Q 1172 3119 1398 2916 
Q 1625 2713 2034 2713 
Q 2441 2713 2670 2916 
Q 2900 3119 2900 3481 
Q 2900 3844 2670 4047 
Q 2441 4250 2034 4250 
Q 1625 4250 1398 4047 
Q 1172 3844 1172 3481 
z
" transform="scale(0.015625)"/>
       </defs>
       <use xlink:href="#DejaVuSans-38"/>
       <use xlink:href="#DejaVuSans-30" x="63.623047"/>
      </g>
     </g>
    </g>
    <g id="xtick_6">
     <g id="line2d_6">
      <g>
       <use xlink:href="#mac30b9e84f" x="391.360625" y="288.21825" style="stroke: #000000; stroke-width: 0.8"/>
      </g>
     </g>
     <g id="text_6">
      <!-- 100 -->
      <g transform="translate(381.816875 302.816687)scale(0.1 -0.1)">
       <defs>
        <path id="DejaVuSans-31" d="M 794 531 
L 1825 531 
L 1825 4091 
L 703 3866 
L 703 4441 
L 1819 4666 
L 2450 4666 
L 2450 531 
L 3481 531 
L 3481 0 
L 794 0 
L 794 531 
z
" transform="scale(0.015625)"/>
       </defs>
       <use xlink:href="#DejaVuSans-31"/>
       <use xlink:href="#DejaVuSans-30" x="63.623047"/>
       <use xlink:href="#DejaVuSans-30" x="127.246094"/>
      </g>
     </g>
    </g>
    <g id="text_7">
     <!-- axialRotation -->
     <g transform="translate(180.024844 316.494812)scale(0.1 -0.1)">
      <defs>
       <path id="DejaVuSans-61" d="M 2194 1759 
Q 1497 1759 1228 1600 
Q 959 1441 959 1056 
Q 959 750 1161 570 
Q 1363 391 1709 391 
Q 2188 391 2477 730 
Q 2766 1069 2766 1631 
L 2766 1759 
L 2194 1759 
z
M 3341 1997 
L 3341 0 
L 2766 0 
L 2766 531 
Q 2569 213 2275 61 
Q 1981 -91 1556 -91 
Q 1019 -91 701 211 
Q 384 513 384 1019 
Q 384 1609 779 1909 
Q 1175 2209 1959 2209 
L 2766 2209 
L 2766 2266 
Q 2766 2663 2505 2880 
Q 2244 3097 1772 3097 
Q 1472 3097 1187 3025 
Q 903 2953 641 2809 
L 641 3341 
Q 956 3463 1253 3523 
Q 1550 3584 1831 3584 
Q 2591 3584 2966 3190 
Q 3341 2797 3341 1997 
z
" transform="scale(0.015625)"/>
       <path id="DejaVuSans-78" d="M 3513 3500 
L 2247 1797 
L 3578 0 
L 2900 0 
L 1881 1375 
L 863 0 
L 184 0 
L 1544 1831 
L 300 3500 
L 978 3500 
L 1906 2253 
L 2834 3500 
L 3513 3500 
z
" transform="scale(0.015625)"/>
       <path id="DejaVuSans-69" d="M 603 3500 
L 1178 3500 
L 1178 0 
L 603 0 
L 603 3500 
z
M 603 4863 
L 1178 4863 
L 1178 4134 
L 603 4134 
L 603 4863 
z
" transform="scale(0.015625)"/>
       <path id="DejaVuSans-6c" d="M 603 4863 
L 1178 4863 
L 1178 0 
L 603 0 
L 603 4863 
z
" transform="scale(0.015625)"/>
       <path id="DejaVuSans-52" d="M 2841 2188 
Q 3044 2119 3236 1894 
Q 3428 1669 3622 1275 
L 4263 0 
L 3584 0 
L 2988 1197 
Q 2756 1666 2539 1819 
Q 2322 1972 1947 1972 
L 1259 1972 
L 1259 0 
L 628 0 
L 628 4666 
L 2053 4666 
Q 2853 4666 3247 4331 
Q 3641 3997 3641 3322 
Q 3641 2881 3436 2590 
Q 3231 2300 2841 2188 
z
M 1259 4147 
L 1259 2491 
L 2053 2491 
Q 2509 2491 2742 2702 
Q 2975 2913 2975 3322 
Q 2975 3731 2742 3939 
Q 2509 4147 2053 4147 
L 1259 4147 
z
" transform="scale(0.015625)"/>
       <path id="DejaVuSans-6f" d="M 1959 3097 
Q 1497 3097 1228 2736 
Q 959 2375 959 1747 
Q 959 1119 1226 758 
Q 1494 397 1959 397 
Q 2419 397 2687 759 
Q 2956 1122 2956 1747 
Q 2956 2369 2687 2733 
Q 2419 3097 1959 3097 
z
M 1959 3584 
Q 2709 3584 3137 3096 
Q 3566 2609 3566 1747 
Q 3566 888 3137 398 
Q 2709 -91 1959 -91 
Q 1206 -91 779 398 
Q 353 888 353 1747 
Q 353 2609 779 3096 
Q 1206 3584 1959 3584 
z
" transform="scale(0.015625)"/>
       <path id="DejaVuSans-74" d="M 1172 4494 
L 1172 3500 
L 2356 3500 
L 2356 3053 
L 1172 3053 
L 1172 1153 
Q 1172 725 1289 603 
Q 1406 481 1766 481 
L 2356 481 
L 2356 0 
L 1766 0 
Q 1100 0 847 248 
Q 594 497 594 1153 
L 594 3053 
L 172 3053 
L 172 3500 
L 594 3500 
L 594 4494 
L 1172 4494 
z
" transform="scale(0.015625)"/>
       <path id="DejaVuSans-6e" d="M 3513 2113 
L 3513 0 
L 2938 0 
L 2938 2094 
Q 2938 2591 2744 2837 
Q 2550 3084 2163 3084 
Q 1697 3084 1428 2787 
Q 1159 2491 1159 1978 
L 1159 0 
L 581 0 
L 581 3500 
L 1159 3500 
L 1159 2956 
Q 1366 3272 1645 3428 
Q 1925 3584 2291 3584 
Q 2894 3584 3203 3211 
Q 3513 2838 3513 2113 
z
" transform="scale(0.015625)"/>
      </defs>
      <use xlink:href="#DejaVuSans-61"/>
      <use xlink:href="#DejaVuSans-78" x="61.279297"/>
      <use xlink:href="#DejaVuSans-69" x="120.458984"/>
      <use xlink:href="#DejaVuSans-61" x="148.242188"/>
      <use xlink:href="#DejaVuSans-6c" x="209.521484"/>
      <use xlink:href="#DejaVuSans-52" x="237.304688"/>
      <use xlink:href="#DejaVuSans-6f" x="302.287109"/>
      <use xlink:href="#DejaVuSans-74" x="363.46875"/>
      <use xlink:href="#DejaVuSans-61" x="402.677734"/>
      <use xlink:href="#DejaVuSans-74" x="463.957031"/>
      <use xlink:href="#DejaVuSans-69" x="503.166016"/>
      <use xlink:href="#DejaVuSans-6f" x="530.949219"/>
      <use xlink:href="#DejaVuSans-6e" x="592.130859"/>
     </g>
    </g>
   </g>
   <g id="matplotlib.axis_2">
    <g id="ytick_1">
     <g id="line2d_7">
      <defs>
       <path id="m717639c99e" d="M 0 0 
L -3.5 0 
" style="stroke: #000000; stroke-width: 0.8"/>
      </defs>
      <g>
       <use xlink:href="#m717639c99e" x="34.240625" y="288.21825" style="stroke: #000000; stroke-width: 0.8"/>
      </g>
     </g>
     <g id="text_8">
      <!-- 0 -->
      <g transform="translate(20.878125 292.017469)scale(0.1 -0.1)">
       <use xlink:href="#DejaVuSans-30"/>
      </g>
     </g>
    </g>
    <g id="ytick_2">
     <g id="line2d_8">
      <g>
       <use xlink:href="#m717639c99e" x="34.240625" y="243.86625" style="stroke: #000000; stroke-width: 0.8"/>
      </g>
     </g>
     <g id="text_9">
      <!-- 1 -->
      <g transform="translate(20.878125 247.665469)scale(0.1 -0.1)">
       <use xlink:href="#DejaVuSans-31"/>
      </g>
     </g>
    </g>
    <g id="ytick_3">
     <g id="line2d_9">
      <g>
       <use xlink:href="#m717639c99e" x="34.240625" y="199.51425" style="stroke: #000000; stroke-width: 0.8"/>
      </g>
     </g>
     <g id="text_10">
      <!-- 2 -->
      <g transform="translate(20.878125 203.313469)scale(0.1 -0.1)">
       <use xlink:href="#DejaVuSans-32"/>
      </g>
     </g>
    </g>
    <g id="ytick_4">
     <g id="line2d_10">
      <g>
       <use xlink:href="#m717639c99e" x="34.240625" y="155.16225" style="stroke: #000000; stroke-width: 0.8"/>
      </g>
     </g>
     <g id="text_11">
      <!-- 3 -->
      <g transform="translate(20.878125 158.961469)scale(0.1 -0.1)">
       <defs>
        <path id="DejaVuSans-33" d="M 2597 2516 
Q 3050 2419 3304 2112 
Q 3559 1806 3559 1356 
Q 3559 666 3084 287 
Q 2609 -91 1734 -91 
Q 1441 -91 1130 -33 
Q 819 25 488 141 
L 488 750 
Q 750 597 1062 519 
Q 1375 441 1716 441 
Q 2309 441 2620 675 
Q 2931 909 2931 1356 
Q 2931 1769 2642 2001 
Q 2353 2234 1838 2234 
L 1294 2234 
L 1294 2753 
L 1863 2753 
Q 2328 2753 2575 2939 
Q 2822 3125 2822 3475 
Q 2822 3834 2567 4026 
Q 2313 4219 1838 4219 
Q 1578 4219 1281 4162 
Q 984 4106 628 3988 
L 628 4550 
Q 988 4650 1302 4700 
Q 1616 4750 1894 4750 
Q 2613 4750 3031 4423 
Q 3450 4097 3450 3541 
Q 3450 3153 3228 2886 
Q 3006 2619 2597 2516 
z
" transform="scale(0.015625)"/>
       </defs>
       <use xlink:href="#DejaVuSans-33"/>
      </g>
     </g>
    </g>
    <g id="ytick_5">
     <g id="line2d_11">
      <g>
       <use xlink:href="#m717639c99e" x="34.240625" y="110.81025" style="stroke: #000000; stroke-width: 0.8"/>
      </g>
     </g>
     <g id="text_12">
      <!-- 4 -->
      <g transform="translate(20.878125 114.609469)scale(0.1 -0.1)">
       <use xlink:href="#DejaVuSans-34"/>
      </g>
     </g>
    </g>
    <g id="ytick_6">
     <g id="line2d_12">
      <g>
       <use xlink:href="#m717639c99e" x="34.240625" y="66.45825" style="stroke: #000000; stroke-width: 0.8"/>
      </g>
     </g>
     <g id="text_13">
      <!-- 5 -->
      <g transform="translate(20.878125 70.257469)scale(0.1 -0.1)">
       <defs>
        <path id="DejaVuSans-35" d="M 691 4666 
L 3169 4666 
L 3169 4134 
L 1269 4134 
L 1269 2991 
Q 1406 3038 1543 3061 
Q 1681 3084 1819 3084 
Q 2600 3084 3056 2656 
Q 3513 2228 3513 1497 
Q 3513 744 3044 326 
Q 2575 -91 1722 -91 
Q 1428 -91 1123 -41 
Q 819 9 494 109 
L 494 744 
Q 775 591 1075 516 
Q 1375 441 1709 441 
Q 2250 441 2565 725 
Q 2881 1009 2881 1497 
Q 2881 1984 2565 2268 
Q 2250 2553 1709 2553 
Q 1456 2553 1204 2497 
Q 953 2441 691 2322 
L 691 4666 
z
" transform="scale(0.015625)"/>
       </defs>
       <use xlink:href="#DejaVuSans-35"/>
      </g>
     </g>
    </g>
    <g id="ytick_7">
     <g id="line2d_13">
      <g>
       <use xlink:href="#m717639c99e" x="34.240625" y="22.10625" style="stroke: #000000; stroke-width: 0.8"/>
      </g>
     </g>
     <g id="text_14">
      <!-- 6 -->
      <g transform="translate(20.878125 25.905469)scale(0.1 -0.1)">
       <use xlink:href="#DejaVuSans-36"/>
      </g>
     </g>
    </g>
    <g id="text_15">
     <!-- zShift -->
     <g transform="translate(14.798438 169.151312)rotate(-90)scale(0.1 -0.1)">
      <defs>
       <path id="DejaVuSans-7a" d="M 353 3500 
L 3084 3500 
L 3084 2975 
L 922 459 
L 3084 459 
L 3084 0 
L 275 0 
L 275 525 
L 2438 3041 
L 353 3041 
L 353 3500 
z
" transform="scale(0.015625)"/>
       <path id="DejaVuSans-53" d="M 3425 4513 
L 3425 3897 
Q 3066 4069 2747 4153 
Q 2428 4238 2131 4238 
Q 1616 4238 1336 4038 
Q 1056 3838 1056 3469 
Q 1056 3159 1242 3001 
Q 1428 2844 1947 2747 
L 2328 2669 
Q 3034 2534 3370 2195 
Q 3706 1856 3706 1288 
Q 3706 609 3251 259 
Q 2797 -91 1919 -91 
Q 1588 -91 1214 -16 
Q 841 59 441 206 
L 441 856 
Q 825 641 1194 531 
Q 1563 422 1919 422 
Q 2459 422 2753 634 
Q 3047 847 3047 1241 
Q 3047 1584 2836 1778 
Q 2625 1972 2144 2069 
L 1759 2144 
Q 1053 2284 737 2584 
Q 422 2884 422 3419 
Q 422 4038 858 4394 
Q 1294 4750 2059 4750 
Q 2388 4750 2728 4690 
Q 3069 4631 3425 4513 
z
" transform="scale(0.015625)"/>
       <path id="DejaVuSans-68" d="M 3513 2113 
L 3513 0 
L 2938 0 
L 2938 2094 
Q 2938 2591 2744 2837 
Q 2550 3084 2163 3084 
Q 1697 3084 1428 2787 
Q 1159 2491 1159 1978 
L 1159 0 
L 581 0 
L 581 4863 
L 1159 4863 
L 1159 2956 
Q 1366 3272 1645 3428 
Q 1925 3584 2291 3584 
Q 2894 3584 3203 3211 
Q 3513 2838 3513 2113 
z
" transform="scale(0.015625)"/>
       <path id="DejaVuSans-66" d="M 2375 4863 
L 2375 4384 
L 1825 4384 
Q 1516 4384 1395 4259 
Q 1275 4134 1275 3809 
L 1275 3500 
L 2222 3500 
L 2222 3053 
L 1275 3053 
L 1275 0 
L 697 0 
L 697 3053 
L 147 3053 
L 147 3500 
L 697 3500 
L 697 3744 
Q 697 4328 969 4595 
Q 1241 4863 1831 4863 
L 2375 4863 
z
" transform="scale(0.015625)"/>
      </defs>
      <use xlink:href="#DejaVuSans-7a"/>
      <use xlink:href="#DejaVuSans-53" x="52.490234"/>
      <use xlink:href="#DejaVuSans-68" x="115.966797"/>
      <use xlink:href="#DejaVuSans-69" x="179.345703"/>
      <use xlink:href="#DejaVuSans-66" x="207.128906"/>
      <use xlink:href="#DejaVuSans-74" x="240.583984"/>
     </g>
    </g>
   </g>
   <g id="PathCollection_1"/>
   <g id="PathCollection_2">
    <path d="M 34.240625 132.171303 
L 34.279628 132.09921 
L 35.563214 129.43809 
L 36.026225 128.39033 
L 36.709261 126.77697 
L 37.748152 124.11585 
L 37.847537 123.838761 
L 38.660999 121.45473 
L 39.545856 118.79361 
L 39.633137 118.526653 
L 40.379917 116.13249 
L 41.261582 113.47137 
L 41.418737 113.026637 
L 42.173194 110.81025 
L 43.20192 108.14913 
L 43.204337 108.14343 
L 44.303448 105.48801 
L 45.025649 103.960437 
L 45.553371 102.82689 
L 46.811249 100.423904 
L 46.945479 100.16577 
L 48.46284 97.50465 
L 48.596849 97.286595 
L 50.104076 94.84353 
L 50.382449 94.419726 
L 51.862833 92.18241 
L 52.203761 91.690598 
L 53.723186 89.52129 
L 53.989361 89.150233 
L 55.774961 86.707023 
L 55.990528 86.41665 
L 57.560561 84.322141 
L 57.991083 83.75553 
L 59.381873 81.939252 
L 60.038169 81.09441 
L 61.167473 79.640443 
L 62.120033 78.43329 
L 62.953073 77.372423 
L 64.230364 75.77217 
L 64.738673 75.129808 
L 66.361653 73.11105 
L 66.559985 72.861852 
L 68.345585 70.638257 
L 68.497895 70.44993 
L 70.131185 68.40303 
L 70.628952 67.78881 
L 71.916785 66.175487 
L 72.765527 65.12769 
L 73.738097 63.909628 
L 74.907355 62.46657 
L 75.523697 61.69357 
L 77.053012 59.80545 
L 77.309297 59.483996 
L 79.094897 57.269945 
L 79.196552 57.14433 
L 80.916209 54.992067 
L 81.328841 54.48321 
L 82.701809 52.765574 
L 83.468087 51.82209 
L 84.487409 50.548193 
L 85.615516 49.16097 
L 86.273009 48.339643 
L 87.768802 46.49985 
L 88.094321 46.090163 
L 89.879921 43.874486 
L 90.272669 43.39521 
L 91.665521 41.655268 
L 92.414746 40.73409 
L 93.451121 39.440369 
L 94.564068 38.07297 
L 95.272433 37.191726 
L 96.727946 35.41185 
L 97.058033 35.003048 
L 98.843633 32.828688 
L 98.907974 32.75073 
L 100.629233 30.645095 
L 101.09305 30.08961 
L 102.450545 28.452937 
L 103.321547 27.42849 
L 104.236145 26.345201 
L 105.609107 24.76737 
L 106.021745 24.290417 
L 107.807345 22.284958 
L 107.969314 22.10625 
" clip-path="url(#p65e4fecb13)" style="fill: none; stroke: #dbe9f6; stroke-width: 1.5"/>
    <path d="M 118.20411 288.21825 
L 118.195023 285.55713 
L 118.592369 282.47689 
L 119.064543 280.23489 
L 120.377969 276.402657 
L 120.969827 274.91265 
L 122.267828 272.25153 
L 123.984881 269.178907 
L 125.770481 266.300468 
L 129.341681 261.126246 
L 134.734193 253.944265 
L 151.862271 231.89121 
L 155.469642 226.56897 
L 157.07488 223.90785 
L 158.74488 220.80321 
L 160.009393 218.14209 
L 161.661041 213.860781 
L 162.825222 210.15873 
L 164.223016 204.83649 
L 166.29647 196.85313 
L 168.037438 191.53089 
L 170.294708 186.20865 
L 172.410353 182.103276 
L 174.231665 179.02096 
L 176.77517 175.12065 
L 179.588465 171.168957 
L 183.195377 166.506513 
L 190.373489 157.909366 
L 198.938106 148.50945 
L 206.515313 140.446184 
L 215.479025 130.530443 
L 221.011258 124.11585 
L 233.442161 108.987704 
L 244.849476 94.84353 
L 274.939866 57.14433 
L 278.773522 51.82209 
L 281.903345 46.975101 
L 282.192755 46.49985 
L 283.927558 43.39521 
L 285.474545 40.253977 
L 287.528896 35.41185 
L 291.656514 24.76737 
L 292.907969 22.10625 
L 292.907969 22.10625 
" clip-path="url(#p65e4fecb13)" style="fill: none; stroke: #dbe9f6; stroke-width: 1.5"/>
    <path d="M 253.988796 22.10625 
L 253.999492 24.76737 
L 253.692665 27.42849 
L 253.088133 30.08961 
L 252.248045 32.75073 
L 251.140211 35.41185 
L 249.583985 38.517669 
L 247.798385 41.629221 
L 246.012785 44.44892 
L 242.405873 49.617749 
L 236.693949 57.14433 
L 229.835249 65.787261 
L 213.261947 86.41665 
L 202.625772 100.16577 
L 198.981718 105.48801 
L 197.345935 108.14913 
L 195.766001 111.014932 
L 193.944689 114.929986 
L 193.441466 116.13249 
L 192.159089 119.691869 
L 190.857462 124.11585 
L 186.766577 139.121542 
L 186.293702 140.52609 
L 184.108945 145.84833 
L 182.782872 148.50945 
L 179.695167 153.83169 
L 177.802865 156.742313 
L 174.163342 161.81505 
L 170.062069 167.13729 
L 167.053553 170.808167 
L 159.875441 178.972956 
L 143.259693 196.85313 
L 136.193951 204.83649 
L 127.270096 215.48097 
L 98.843633 250.608366 
L 89.879921 261.595376 
L 79.094897 274.339911 
L 73.738097 280.276392 
L 70.131185 284.074039 
L 65.829876 288.21825 
L 65.829876 288.21825 
" clip-path="url(#p65e4fecb13)" style="fill: none; stroke: #dbe9f6; stroke-width: 1.5"/>
    <path d="M 296.07135 288.21825 
L 295.909999 285.55713 
L 296.085273 282.89601 
L 296.259569 281.973668 
L 296.565277 280.23489 
L 297.349691 277.57377 
L 298.045169 275.917818 
L 298.448748 274.91265 
L 299.82925 272.25153 
L 299.830769 272.249038 
L 301.405944 269.59041 
L 301.616369 269.279687 
L 303.174924 266.92929 
L 303.437681 266.567128 
L 305.223281 264.091609 
L 305.414781 263.82465 
L 307.008881 261.712618 
L 307.422041 261.16353 
L 308.794481 259.397393 
L 309.490317 258.50241 
L 310.615793 257.081504 
L 311.602754 255.84129 
L 312.401393 254.842836 
L 313.743821 253.18017 
L 314.186993 252.629279 
L 315.905712 250.51905 
L 315.972593 250.436086 
L 317.793905 248.175542 
L 318.052368 247.85793 
L 319.579505 245.95611 
L 320.198864 245.19681 
L 321.365105 243.74318 
L 322.350365 242.53569 
L 323.150705 241.536538 
L 324.50483 239.87457 
L 324.972017 239.291122 
L 326.666186 237.21345 
L 326.757617 237.099116 
L 328.543217 234.878996 
L 328.809738 234.55233 
L 330.328817 232.657766 
L 330.955441 231.89121 
L 332.150129 230.406155 
L 333.11584 229.23009 
L 333.935729 228.212543 
L 335.290131 226.56897 
L 335.721329 226.034839 
L 337.478943 223.90785 
L 337.506929 223.872851 
L 339.328241 221.610316 
L 340.00366 220.80321 
L 341.113841 219.431489 
L 342.18231 218.14209 
L 342.899441 217.253086 
L 344.363529 215.48097 
L 344.685041 215.079748 
L 346.506353 212.854814 
L 346.535179 212.81985 
L 348.291953 210.612762 
L 348.661601 210.15873 
L 350.077553 208.343804 
L 350.751439 207.49761 
L 351.863153 206.026843 
L 352.777801 204.83649 
L 353.684465 203.581435 
L 354.712339 202.17537 
L 355.470065 201.058408 
L 356.525493 199.51425 
L 357.255665 198.352253 
L 358.200345 196.85313 
L 359.041265 195.39589 
L 359.735396 194.19201 
L 360.862577 192.072458 
L 361.15029 191.53089 
L 362.467262 188.86977 
L 362.648177 188.488303 
L 363.730911 186.20865 
L 364.433777 184.749845 
L 365.020143 183.54753 
L 366.219377 181.229271 
L 366.401557 180.88641 
L 367.950366 178.22529 
L 368.040689 178.086325 
L 369.826289 175.496588 
L 370.106994 175.12065 
L 371.611889 173.326427 
L 372.413325 172.45953 
L 373.397489 171.495963 
L 375.218801 169.917545 
L 375.371328 169.79841 
L 377.004401 168.611367 
L 378.790001 167.50477 
L 379.474702 167.13729 
L 380.575601 166.568507 
L 382.396913 165.775491 
L 384.182513 165.144623 
L 385.968113 164.647035 
L 386.778345 164.47617 
L 387.753713 164.268231 
L 389.575025 164.003583 
L 391.360625 163.864841 
" clip-path="url(#p65e4fecb13)" style="fill: none; stroke: #dbe9f6; stroke-width: 1.5"/>
    <path d="M 391.360625 85.425512 
L 388.458879 89.52129 
L 384.182513 95.179551 
L 375.218801 106.519538 
L 358.952153 126.77697 
L 348.187627 140.52609 
L 344.314291 145.84833 
L 340.799078 151.17057 
L 339.230224 153.83169 
L 337.506929 157.163638 
L 335.46477 161.81505 
L 333.583721 167.13729 
L 330.328817 177.100653 
L 329.93747 178.22529 
L 327.73311 183.54753 
L 326.426842 186.20865 
L 323.425864 191.53089 
L 319.94348 196.85313 
L 315.972593 202.334512 
L 309.955599 210.15873 
L 299.830769 222.89625 
L 296.259569 227.443247 
L 292.652657 232.197055 
L 289.081457 237.2671 
L 287.260145 240.142475 
L 285.474545 243.282738 
L 283.688945 246.899329 
L 283.256329 247.85793 
L 281.903345 251.31412 
L 280.445291 255.84129 
L 277.264606 266.92929 
L 276.288228 269.59041 
L 274.725233 273.144302 
L 273.861406 274.91265 
L 271.118321 279.405932 
L 269.332721 281.942584 
L 267.547121 284.269873 
L 265.725809 286.485269 
L 264.222879 288.21825 
L 264.222879 288.21825 
" clip-path="url(#p65e4fecb13)" style="fill: none; stroke: #dbe9f6; stroke-width: 1.5"/>
   </g>
   <g id="PathCollection_3">
    <path d="M 34.240625 150.038202 
L 35.364255 148.50945 
L 36.026225 147.591166 
L 37.280464 145.84833 
L 37.847537 145.035488 
L 39.129542 143.18721 
L 39.633137 142.42733 
L 40.880572 140.52609 
L 41.418737 139.654838 
L 42.507889 137.86497 
L 43.204337 136.631042 
L 43.993886 135.20385 
L 45.025649 133.147248 
L 45.540752 132.09921 
L 46.713873 129.43809 
L 46.811249 129.19341 
L 47.74573 126.77697 
L 48.596849 124.395027 
L 48.693907 124.11585 
L 49.560066 121.45473 
L 50.382449 118.901193 
L 50.416272 118.79361 
L 51.265375 116.13249 
L 52.183501 113.47137 
L 52.203761 113.417201 
L 53.165566 110.81025 
L 53.989361 108.831922 
L 54.271781 108.14913 
L 55.502888 105.48801 
L 55.774961 104.957907 
L 56.870229 102.82689 
L 57.560561 101.608541 
L 58.382038 100.16577 
L 59.381873 98.545442 
L 60.028864 97.50465 
L 61.167473 95.781854 
L 61.793333 94.84353 
L 62.953073 93.181154 
L 63.656654 92.18241 
L 64.738673 90.693638 
L 65.598823 89.52129 
L 66.559985 88.235486 
L 67.944229 86.41665 
L 68.345585 85.893937 
L 70.003978 83.75553 
L 70.131185 83.592406 
L 71.916785 81.315853 
L 72.091466 81.09441 
L 73.738097 79.011937 
L 74.199603 78.43329 
L 75.523697 76.770112 
L 76.325281 75.77217 
L 77.309297 74.541372 
L 78.462825 73.11105 
L 79.094897 72.321835 
L 80.606257 70.44993 
L 80.916209 70.063091 
L 82.701809 67.849758 
L 82.750999 67.78881 
L 84.487409 65.619867 
L 84.884367 65.12769 
L 86.273009 63.392255 
L 87.019204 62.46657 
L 88.094321 61.123951 
L 89.158418 59.80545 
L 89.879921 58.905063 
L 91.303143 57.14433 
L 91.665521 56.692747 
L 93.451121 54.487365 
L 93.454483 54.48321 
L 95.272433 52.222903 
L 95.597268 51.82209 
L 97.058033 50.00563 
L 97.742813 49.16097 
L 98.843633 47.791728 
L 99.890927 46.49985 
L 100.629233 45.577604 
L 102.406429 43.39521 
L 102.450545 43.34045 
L 104.236145 41.128676 
L 104.557357 40.73409 
L 106.021745 38.927858 
L 106.722532 38.07297 
L 107.807345 36.747095 
L 108.91412 35.41185 
L 109.628657 34.550905 
L 111.14691 32.75073 
L 111.414257 32.434601 
L 113.199857 30.354022 
L 113.429964 30.08961 
L 114.985457 28.316271 
L 115.784652 27.42849 
L 116.806769 26.306347 
L 118.256293 24.76737 
L 118.592369 24.415397 
L 120.377969 22.600007 
L 120.881337 22.10625 
" clip-path="url(#p65e4fecb13)" style="fill: none; stroke: #bad6eb; stroke-width: 1.5"/>
    <path d="M 130.866951 288.21825 
L 130.58624 285.55713 
L 130.719654 282.89601 
L 131.217724 280.23489 
L 132.019788 277.57377 
L 133.109367 274.91265 
L 134.734193 271.71213 
L 136.519793 268.668628 
L 138.341105 265.856424 
L 141.912305 260.812411 
L 147.762262 253.18017 
L 160.226262 237.21345 
L 164.04239 231.89121 
L 167.053553 227.201124 
L 168.927434 223.90785 
L 170.624753 220.44128 
L 172.649128 215.48097 
L 174.428307 210.15873 
L 176.948477 202.17537 
L 178.966957 196.85313 
L 180.159261 194.19201 
L 181.50072 191.53089 
L 183.195377 188.502752 
L 186.325003 183.54753 
L 190.100178 178.22529 
L 194.479694 172.45953 
L 201.122801 164.103905 
L 222.657137 137.732295 
L 242.405873 113.375349 
L 283.688945 61.826256 
L 287.260145 57.032901 
L 290.867057 51.7577 
L 292.652657 48.844554 
L 294.438257 45.604522 
L 296.259569 41.882643 
L 298.045169 37.714028 
L 301.616369 28.77117 
L 302.202761 27.42849 
L 303.528061 24.76737 
L 305.082052 22.10625 
L 305.082052 22.10625 
" clip-path="url(#p65e4fecb13)" style="fill: none; stroke: #bad6eb; stroke-width: 1.5"/>
    <path d="M 241.181882 22.10625 
L 241.462178 24.76737 
L 241.328864 27.42849 
L 240.620273 30.76672 
L 240.022537 32.75073 
L 238.834673 35.60361 
L 237.013361 39.12538 
L 235.227761 42.114888 
L 233.442161 44.838851 
L 230.385823 49.16097 
L 226.264049 54.582311 
L 217.300337 65.880864 
L 197.551601 90.586447 
L 193.944689 95.303773 
L 190.373489 100.253068 
L 187.00054 105.48801 
L 184.980977 109.141718 
L 183.195377 112.869866 
L 182.926903 113.47137 
L 180.906629 118.79361 
L 176.017265 133.603467 
L 175.395706 135.20385 
L 172.916713 140.52609 
L 170.624753 144.597087 
L 168.152117 148.50945 
L 164.409264 153.83169 
L 159.875441 159.812574 
L 151.926793 169.79841 
L 138.548189 186.20865 
L 116.806769 212.891261 
L 82.701809 255.003543 
L 75.218449 263.82465 
L 71.916785 267.576126 
L 66.559985 273.320167 
L 62.175402 277.57377 
L 59.151263 280.23489 
L 55.774961 282.896625 
L 52.203761 285.317911 
L 48.596849 287.317637 
L 46.563246 288.21825 
L 46.563246 288.21825 
" clip-path="url(#p65e4fecb13)" style="fill: none; stroke: #bad6eb; stroke-width: 1.5"/>
    <path d="M 309.339694 288.21825 
L 309.043277 285.55713 
L 309.158782 282.89601 
L 309.638802 280.23489 
L 310.452248 277.57377 
L 310.615793 277.179779 
L 311.536011 274.91265 
L 312.401393 273.194974 
L 312.869922 272.25153 
L 314.186993 269.972417 
L 314.405872 269.59041 
L 315.972593 267.13359 
L 316.102301 266.92929 
L 317.793905 264.462895 
L 318.234454 263.82465 
L 319.579505 261.972028 
L 320.168178 261.16353 
L 321.365105 259.571725 
L 322.173236 258.50241 
L 323.150705 257.234492 
L 324.231543 255.84129 
L 324.972017 254.897587 
L 326.329668 253.18017 
L 326.757617 252.640572 
L 328.454913 250.51905 
L 328.543217 250.408439 
L 330.328817 248.178553 
L 330.587113 247.85793 
L 332.150129 245.91011 
L 332.727541 245.19681 
L 333.935729 243.694239 
L 334.876681 242.53569 
L 335.721329 241.487873 
L 337.036412 239.87457 
L 337.506929 239.292897 
L 339.209488 237.21345 
L 339.328241 237.0674 
L 341.113841 234.886367 
L 341.390321 234.55233 
L 342.899441 232.715721 
L 343.587403 231.89121 
L 344.685041 230.564272 
L 345.807161 229.23009 
L 346.506353 228.390642 
L 348.05162 226.56897 
L 348.291953 226.281998 
L 350.077553 224.181765 
L 350.314144 223.90785 
L 351.863153 222.07965 
L 352.97923 220.80321 
L 353.684465 219.978684 
L 355.296347 218.14209 
L 355.470065 217.93963 
L 357.255665 215.901232 
L 357.633895 215.48097 
L 359.041265 213.871199 
L 359.991051 212.81985 
L 360.862577 211.818452 
L 362.357796 210.15873 
L 362.648177 209.820066 
L 364.433777 207.802518 
L 364.713459 207.49761 
L 366.219377 205.745568 
L 367.034264 204.83649 
L 368.040689 203.62118 
L 369.292137 202.17537 
L 369.826289 201.498369 
L 371.468105 199.51425 
L 371.611889 199.322036 
L 373.397489 197.057298 
L 373.569184 196.85313 
L 375.218801 194.681471 
L 375.620537 194.19201 
L 377.004401 192.351713 
L 377.682252 191.53089 
L 378.790001 190.108917 
L 379.874695 188.86977 
L 380.575601 188.054942 
L 382.396913 186.230074 
L 382.422603 186.20865 
L 384.182513 184.780841 
L 385.968113 183.641994 
L 386.173156 183.54753 
L 387.753713 182.862851 
L 389.575025 182.389344 
L 391.360625 182.241788 
" clip-path="url(#p65e4fecb13)" style="fill: none; stroke: #bad6eb; stroke-width: 1.5"/>
    <path d="M 391.360625 63.47707 
L 389.742385 67.78881 
L 387.753713 72.15487 
L 387.286193 73.11105 
L 385.840199 75.77217 
L 382.553789 81.09441 
L 378.790001 86.470286 
L 373.397489 93.593002 
L 366.057766 102.82689 
L 338.112505 137.86497 
L 333.935729 143.554498 
L 330.636573 148.50945 
L 328.543217 152.102988 
L 326.757617 155.592656 
L 325.182956 159.15393 
L 324.170246 161.81505 
L 322.380555 167.13729 
L 319.579505 175.557989 
L 317.793905 180.01384 
L 317.419448 180.88641 
L 315.972593 183.859178 
L 314.186993 187.127974 
L 311.477642 191.53089 
L 307.785032 196.85313 
L 303.437681 202.642136 
L 294.438257 214.040748 
L 286.618 223.90785 
L 281.903345 230.159067 
L 278.814519 234.55233 
L 276.510833 238.184359 
L 274.725233 241.317784 
L 272.903921 244.94975 
L 272.786878 245.19681 
L 270.645615 250.51905 
L 268.879265 255.84129 
L 266.291109 263.82465 
L 265.107135 266.92929 
L 263.940209 269.594049 
L 262.154609 273.130303 
L 260.369009 276.191593 
L 258.547697 278.960078 
L 256.762097 281.416275 
L 254.976497 283.671311 
L 253.190897 285.755759 
L 250.899443 288.21825 
L 250.899443 288.21825 
" clip-path="url(#p65e4fecb13)" style="fill: none; stroke: #bad6eb; stroke-width: 1.5"/>
   </g>
   <g id="PathCollection_4">
    <path d="M 34.240625 162.761327 
L 34.885757 161.81505 
L 36.026225 160.20163 
L 36.771367 159.15393 
L 37.847537 157.673383 
L 38.709109 156.49281 
L 39.633137 155.237902 
L 40.670597 153.83169 
L 41.418737 152.815036 
L 42.628455 151.17057 
L 43.204337 150.37661 
L 44.554565 148.50945 
L 45.025649 147.840504 
L 46.420357 145.84833 
L 46.811249 145.26669 
L 48.196645 143.18721 
L 48.596849 142.551546 
L 49.857406 140.52609 
L 50.382449 139.618568 
L 51.382961 137.86497 
L 52.203761 136.293004 
L 52.763933 135.20385 
L 53.989361 132.546086 
L 54.192271 132.09921 
L 55.270588 129.43809 
L 55.774961 128.065823 
L 56.242472 126.77697 
L 57.135785 124.11585 
L 57.560561 122.794751 
L 57.987817 121.45473 
L 58.835726 118.79361 
L 59.381873 117.15362 
L 59.721296 116.13249 
L 60.677225 113.47137 
L 61.167473 112.238172 
L 61.737633 110.81025 
L 62.926803 108.14913 
L 62.953073 108.096029 
L 64.254163 105.48801 
L 64.738673 104.607838 
L 65.728827 102.82689 
L 66.559985 101.450688 
L 67.344054 100.16577 
L 68.345585 98.628254 
L 69.084736 97.50465 
L 70.131185 95.99078 
L 70.931173 94.84353 
L 71.916785 93.480203 
L 72.862004 92.18241 
L 73.738097 91.010206 
L 74.857943 89.52129 
L 75.523697 88.651376 
L 77.248819 86.41665 
L 77.309297 86.339172 
L 79.094897 84.059439 
L 79.3338 83.75553 
L 80.916209 81.757765 
L 81.44355 81.09441 
L 82.701809 79.518067 
L 83.570578 78.43329 
L 84.487409 77.289879 
L 85.707982 75.77217 
L 86.273009 75.068774 
L 87.849666 73.11105 
L 88.094321 72.806498 
L 89.879921 70.58765 
L 89.990745 70.44993 
L 91.665521 68.363666 
L 92.127738 67.78881 
L 93.451121 66.139296 
L 94.264262 65.12769 
L 95.272433 63.871695 
L 96.402942 62.46657 
L 97.058033 61.651397 
L 98.545742 59.80545 
L 98.843633 59.43537 
L 100.629233 57.223166 
L 100.692874 57.14433 
L 102.450545 54.965575 
L 102.840471 54.48321 
L 104.236145 52.753667 
L 104.989562 51.82209 
L 106.021745 50.542819 
L 107.139483 49.16097 
L 107.807345 48.333475 
L 109.2917 46.49985 
L 109.628657 46.082736 
L 111.414257 43.882385 
L 111.81087 43.39521 
L 113.199857 41.693434 
L 113.987295 40.73409 
L 114.985457 39.525473 
L 116.194738 38.07297 
L 116.806769 37.345029 
L 118.450642 35.41185 
L 118.592369 35.247352 
L 120.377969 33.199345 
L 120.774802 32.75073 
L 122.163569 31.212617 
L 123.20005 30.08961 
L 123.984881 29.26073 
L 125.770481 27.430565 
L 125.772551 27.42849 
L 127.556081 25.700133 
L 128.559947 24.76737 
L 129.341681 24.067953 
L 131.162993 22.515226 
L 131.665381 22.10625 
" clip-path="url(#p65e4fecb13)" style="fill: none; stroke: #89bedc; stroke-width: 1.5"/>
    <path d="M 141.629977 288.21825 
L 140.841783 285.55713 
L 140.63789 282.89601 
L 140.911693 280.23489 
L 141.912305 276.702644 
L 142.580882 274.91265 
L 143.852304 272.25153 
L 145.519217 269.309177 
L 147.304817 266.493864 
L 151.047606 261.16353 
L 157.175592 253.18017 
L 167.52597 239.87457 
L 171.374859 234.55233 
L 174.231665 230.192986 
L 176.359969 226.56897 
L 177.802865 223.776989 
L 179.588465 219.767381 
L 181.211627 215.48097 
L 183.786221 207.49761 
L 185.609132 202.17537 
L 186.766577 199.272724 
L 188.587889 195.327932 
L 190.373489 191.974686 
L 192.159089 188.98164 
L 193.961 186.20865 
L 197.727793 180.88641 
L 202.944113 174.047784 
L 210.575034 164.47617 
L 290.867057 64.641539 
L 294.487883 59.80545 
L 298.175461 54.48321 
L 299.856515 51.82209 
L 301.616369 48.769821 
L 303.437681 45.226469 
L 305.484576 40.73409 
L 310.002313 30.08961 
L 311.406331 27.42849 
L 313.090714 24.76737 
L 315.181231 22.10625 
L 315.181231 22.10625 
" clip-path="url(#p65e4fecb13)" style="fill: none; stroke: #89bedc; stroke-width: 1.5"/>
    <path d="M 230.403757 22.10625 
L 231.193837 24.76737 
L 231.397717 27.42849 
L 231.123313 30.08961 
L 230.453321 32.75073 
L 229.453092 35.41185 
L 228.049649 38.30752 
L 226.264049 41.415301 
L 224.478449 44.198184 
L 220.871537 49.310294 
L 215.479025 56.332178 
L 206.347219 67.78881 
L 188.587889 90.084499 
L 184.980977 94.885952 
L 181.303078 100.16577 
L 179.588465 102.869609 
L 177.802865 105.97403 
L 176.017265 109.495052 
L 175.400452 110.81025 
L 174.231665 113.594684 
L 172.36579 118.79361 
L 168.839153 129.577371 
L 167.053553 134.033915 
L 166.547363 135.20385 
L 165.232241 137.90004 
L 163.446641 141.145959 
L 160.51617 145.84833 
L 156.777587 151.17057 
L 152.697329 156.568806 
L 145.519217 165.644048 
L 97.058033 225.691376 
L 82.701809 243.324824 
L 74.404242 253.18017 
L 69.677866 258.50241 
L 66.559985 261.852239 
L 62.953073 265.497835 
L 59.381873 268.800596 
L 55.774961 271.754709 
L 52.203761 274.231328 
L 50.382449 275.303735 
L 48.596849 276.21384 
L 46.811249 276.982679 
L 45.025649 277.601006 
L 43.204337 278.051759 
L 41.418737 278.312902 
L 39.633137 278.377387 
L 37.847537 278.222779 
L 35.392963 277.57377 
L 34.240625 277.093216 
L 34.240625 277.093216 
" clip-path="url(#p65e4fecb13)" style="fill: none; stroke: #89bedc; stroke-width: 1.5"/>
    <path d="M 320.179296 288.21825 
L 319.579505 286.25192 
L 319.382453 285.55713 
L 319.175335 282.89601 
L 319.447262 280.23489 
L 319.579505 279.719395 
L 320.117403 277.57377 
L 321.119052 274.91265 
L 321.365105 274.403384 
L 322.392908 272.25153 
L 323.150705 270.908574 
L 323.889045 269.59041 
L 324.972017 267.870277 
L 325.562008 266.92929 
L 326.757617 265.181487 
L 327.685906 263.82465 
L 328.543217 262.644146 
L 329.619483 261.16353 
L 330.328817 260.223532 
L 331.630578 258.50241 
L 332.150129 257.832337 
L 333.699047 255.84129 
L 333.935729 255.541535 
L 335.721329 253.288454 
L 335.807333 253.18017 
L 337.506929 251.058619 
L 337.941083 250.51905 
L 339.328241 248.801759 
L 340.09472 247.85793 
L 341.113841 246.604013 
L 342.265289 245.19681 
L 342.899441 244.421387 
L 344.454627 242.53569 
L 344.685041 242.256033 
L 346.506353 240.066081 
L 346.667146 239.87457 
L 348.291953 237.939303 
L 348.909518 237.21345 
L 350.077553 235.839448 
L 351.189176 234.55233 
L 351.863153 233.770133 
L 353.512435 231.89121 
L 353.684465 231.694411 
L 355.470065 229.691016 
L 355.890305 229.23009 
L 357.255665 227.723344 
L 358.330575 226.56897 
L 359.041265 225.79898 
L 360.842812 223.90785 
L 360.862577 223.886815 
L 362.648177 222.051498 
L 363.913472 220.80321 
L 364.433777 220.280561 
L 366.219377 218.567894 
L 366.687577 218.14209 
L 368.040689 216.881632 
L 369.636651 215.48097 
L 369.826289 215.308841 
L 371.611889 213.799202 
L 372.863029 212.81985 
L 373.397489 212.380901 
L 375.218801 211.022819 
L 376.510102 210.15873 
L 377.004401 209.805382 
L 378.790001 208.698389 
L 380.575601 207.756291 
L 381.203009 207.49761 
L 382.396913 206.959205 
L 384.182513 206.393253 
L 385.968113 206.089494 
L 387.753713 206.093174 
L 389.575025 206.473625 
L 391.360625 207.290241 
" clip-path="url(#p65e4fecb13)" style="fill: none; stroke: #89bedc; stroke-width: 1.5"/>
    <path d="M 391.360625 36.361164 
L 390.053014 40.73409 
L 387.360721 49.16097 
L 383.244456 62.46657 
L 381.133737 67.78881 
L 378.790001 72.523542 
L 378.478145 73.11105 
L 376.931858 75.77217 
L 373.397489 81.17774 
L 369.59979 86.41665 
L 363.068627 94.84353 
L 350.077553 111.035282 
L 332.150129 133.502939 
L 328.543217 138.26025 
L 324.972017 143.280248 
L 321.66193 148.50945 
L 319.579505 152.365262 
L 317.793905 156.190161 
L 316.603044 159.15393 
L 314.763868 164.47617 
L 312.169016 172.45953 
L 310.615793 176.548279 
L 309.926135 178.22529 
L 308.690487 180.88641 
L 307.008881 184.08419 
L 305.223281 187.125538 
L 302.353918 191.53089 
L 298.045169 197.486077 
L 292.361527 204.83649 
L 275.273217 226.56897 
L 271.118321 232.427702 
L 268.101347 237.21345 
L 265.725809 241.654901 
L 265.289287 242.53569 
L 263.940209 245.597184 
L 262.088257 250.51905 
L 257.630205 263.82465 
L 256.331213 266.92929 
L 254.976497 269.735935 
L 253.190897 272.936829 
L 251.369585 275.791393 
L 249.583985 278.28817 
L 247.798385 280.550406 
L 245.754821 282.89601 
L 242.405873 286.2547 
L 240.17082 288.21825 
L 240.17082 288.21825 
" clip-path="url(#p65e4fecb13)" style="fill: none; stroke: #89bedc; stroke-width: 1.5"/>
   </g>
   <g id="PathCollection_5">
    <path d="M 34.240625 177.731779 
L 35.3717 175.12065 
L 36.026225 173.809571 
L 36.712627 172.45953 
L 37.847537 170.44718 
L 38.219265 169.79841 
L 39.633137 167.520627 
L 39.874042 167.13729 
L 41.418737 164.820774 
L 41.650546 164.47617 
L 43.204337 162.260409 
L 43.518356 161.81505 
L 45.025649 159.733126 
L 45.445955 159.15393 
L 46.811249 157.29893 
L 47.40424 156.49281 
L 48.596849 154.875953 
L 49.364927 153.83169 
L 50.382449 152.436095 
L 51.300805 151.17057 
L 52.203761 149.898798 
L 53.183726 148.50945 
L 53.989361 147.325516 
L 54.986265 145.84833 
L 55.774961 144.616976 
L 56.682302 143.18721 
L 57.560561 141.703056 
L 58.250675 140.52609 
L 59.381873 138.418986 
L 59.676907 137.86497 
L 60.960004 135.20385 
L 61.167473 134.722233 
L 62.288502 132.09921 
L 62.953073 130.347318 
L 63.297961 129.43809 
L 64.219524 126.77697 
L 64.738673 125.1742 
L 65.083915 124.11585 
L 65.930356 121.45473 
L 66.559985 119.507524 
L 66.793944 118.79361 
L 67.71915 116.13249 
L 68.345585 114.480976 
L 68.735066 113.47137 
L 69.87199 110.81025 
L 70.131185 110.264595 
L 71.153178 108.14913 
L 71.916785 106.715741 
L 72.581631 105.48801 
L 73.738097 103.525172 
L 74.155478 102.82689 
L 75.523697 100.690475 
L 75.863601 100.16577 
L 77.309297 98.051332 
L 77.686247 97.50465 
L 79.094897 95.54363 
L 79.600752 94.84353 
L 80.916209 93.077256 
L 81.585022 92.18241 
L 82.701809 90.722024 
L 83.621557 89.52129 
L 84.487409 88.412963 
L 86.043615 86.41665 
L 86.273009 86.126818 
L 88.094321 83.826331 
L 88.150412 83.75553 
L 89.879921 81.59426 
L 90.279027 81.09441 
L 91.665521 79.370339 
L 92.417019 78.43329 
L 93.451121 77.149917 
L 94.558007 75.77217 
L 95.272433 74.885262 
L 96.697191 73.11105 
L 97.058033 72.662666 
L 98.833267 70.44993 
L 98.843633 70.437038 
L 100.629233 68.217172 
L 100.972594 67.78881 
L 102.450545 65.951926 
L 103.111627 65.12769 
L 104.236145 63.732304 
L 105.25317 62.46657 
L 106.021745 61.51466 
L 107.398026 59.80545 
L 107.807345 59.299283 
L 109.545711 57.14433 
L 109.628657 57.041823 
L 111.414257 54.835528 
L 111.698572 54.48321 
L 113.199857 52.62992 
L 113.852094 51.82209 
L 114.985457 50.42408 
L 116.007003 49.16097 
L 116.806769 48.177314 
L 118.168989 46.49985 
L 118.592369 45.98377 
L 120.377969 43.809315 
L 120.718022 43.39521 
L 122.163569 41.665711 
L 122.944688 40.73409 
L 123.984881 39.517841 
L 125.228833 38.07297 
L 125.770481 37.459697 
L 127.556081 35.460676 
L 127.600305 35.41185 
L 129.341681 33.557449 
L 130.113051 32.75073 
L 131.162993 31.698898 
L 132.812713 30.08961 
L 132.948593 29.963502 
L 134.734193 28.363265 
L 135.81852 27.42849 
L 136.519793 26.859746 
L 138.341105 25.454573 
L 139.280634 24.76737 
L 140.126705 24.189676 
L 141.912305 23.046565 
L 143.489781 22.10625 
" clip-path="url(#p65e4fecb13)" style="fill: none; stroke: #539ecd; stroke-width: 1.5"/>
    <path d="M 153.710378 288.21825 
L 152.697329 286.952639 
L 151.732626 285.55713 
L 150.79397 282.89601 
L 150.605392 280.23489 
L 150.969154 277.57377 
L 151.772777 274.91265 
L 152.908731 272.25153 
L 154.482929 269.31462 
L 156.268529 266.427268 
L 159.919254 261.16353 
L 166.028921 253.18017 
L 174.264097 242.53569 
L 178.146452 237.21345 
L 181.664744 231.89121 
L 183.235312 229.23009 
L 184.980977 225.921416 
L 186.766577 222.006492 
L 187.278264 220.80321 
L 189.207609 215.48097 
L 192.696787 204.83649 
L 193.944689 201.614138 
L 195.766001 197.581551 
L 196.119272 196.85313 
L 197.551601 194.174832 
L 199.337201 191.180957 
L 202.64215 186.20865 
L 206.53574 180.88641 
L 213.106796 172.45953 
L 234.523836 145.84833 
L 262.755817 110.81025 
L 296.259569 69.047052 
L 301.243937 62.46657 
L 304.978239 57.14433 
L 307.008881 53.963547 
L 309.759297 49.16097 
L 312.401393 43.697219 
L 314.186993 39.598724 
L 316.027506 35.41185 
L 317.793905 31.921612 
L 319.579505 29.022797 
L 321.365105 26.679131 
L 323.150705 24.747514 
L 326.397005 22.10625 
L 326.397005 22.10625 
" clip-path="url(#p65e4fecb13)" style="fill: none; stroke: #539ecd; stroke-width: 1.5"/>
    <path d="M 218.323045 22.10625 
L 219.085937 23.040421 
L 220.302601 24.76737 
L 221.235496 27.42849 
L 221.425596 30.08961 
L 220.871537 33.379375 
L 220.261248 35.41185 
L 219.085937 38.148455 
L 217.300337 41.416685 
L 215.479025 44.317743 
L 212.108962 49.16097 
L 205.975198 57.14433 
L 190.373489 76.648357 
L 181.409777 88.005702 
L 177.802865 92.82159 
L 174.231665 97.93729 
L 171.194681 102.82689 
L 168.839153 107.318571 
L 168.433019 108.14913 
L 166.216907 113.47137 
L 164.392312 118.79361 
L 161.661041 127.158634 
L 159.729001 132.09921 
L 158.054129 135.643925 
L 156.268529 138.92652 
L 153.647204 143.18721 
L 149.945671 148.50945 
L 145.519217 154.38155 
L 138.341105 163.44989 
L 109.29289 199.51425 
L 84.487409 230.153546 
L 75.523697 240.865073 
L 70.131185 246.999931 
L 66.559985 250.826404 
L 62.953073 254.416145 
L 59.381873 257.645878 
L 55.774961 260.486237 
L 53.989361 261.703441 
L 52.203761 262.767561 
L 50.073725 263.82465 
L 48.596849 264.408679 
L 46.811249 264.910991 
L 45.025649 265.181569 
L 43.204337 265.17599 
L 41.418737 264.841764 
L 39.17204 263.82465 
L 37.847537 262.825081 
L 36.026225 260.761688 
L 34.240625 257.50421 
L 34.240625 257.50421 
" clip-path="url(#p65e4fecb13)" style="fill: none; stroke: #539ecd; stroke-width: 1.5"/>
    <path d="M 332.299024 288.21825 
L 332.150129 288.046366 
L 330.328817 285.595453 
L 330.303962 285.55713 
L 329.376995 282.89601 
L 329.182198 280.23489 
L 329.548189 277.57377 
L 330.328817 274.964874 
L 330.344215 274.91265 
L 331.493924 272.25153 
L 332.150129 271.022375 
L 332.908758 269.59041 
L 333.935729 267.912726 
L 334.534561 266.92929 
L 335.721329 265.182546 
L 336.637362 263.82465 
L 337.506929 262.629668 
L 338.572828 261.16353 
L 339.328241 260.171183 
L 340.599088 258.50241 
L 341.113841 257.847452 
L 342.69278 255.84129 
L 342.899441 255.584075 
L 344.685041 253.371121 
L 344.83997 253.18017 
L 346.506353 251.154773 
L 347.032126 250.51905 
L 348.291953 249.010321 
L 349.261235 247.85793 
L 350.077553 246.894254 
L 351.529956 245.19681 
L 351.863153 244.809721 
L 353.684465 242.726081 
L 353.854209 242.53569 
L 355.470065 240.735294 
L 356.257968 239.87457 
L 357.255665 238.790793 
L 358.743076 237.21345 
L 359.041265 236.898491 
L 360.862577 235.040899 
L 361.360367 234.55233 
L 362.648177 233.291482 
L 364.136766 231.89121 
L 364.433777 231.611741 
L 366.219377 230.028903 
L 367.17797 229.23009 
L 368.040689 228.508818 
L 369.826289 227.129637 
L 370.626219 226.56897 
L 371.611889 225.874095 
L 373.397489 224.759134 
L 374.975347 223.90785 
L 375.218801 223.775255 
L 377.004401 223.009465 
L 378.790001 222.446256 
L 380.575601 222.122875 
L 382.396913 222.089966 
L 384.182513 222.411138 
L 385.968113 223.160251 
L 387.049401 223.90785 
L 387.753713 224.475962 
L 389.540863 226.56897 
L 389.575025 226.616924 
L 391.019069 229.23009 
L 391.360625 229.991394 
" clip-path="url(#p65e4fecb13)" style="fill: none; stroke: #539ecd; stroke-width: 1.5"/>
    <path d="M 379.469512 22.10625 
L 380.575601 23.392961 
L 381.593824 24.76737 
L 382.729012 27.42849 
L 383.191294 30.08961 
L 383.193048 32.75073 
L 382.87487 35.41185 
L 382.346393 38.07297 
L 380.575601 44.743777 
L 377.004401 57.175576 
L 375.209784 62.46657 
L 373.397489 66.790962 
L 372.942604 67.78881 
L 371.596232 70.44993 
L 369.826289 73.548239 
L 366.681539 78.43329 
L 362.648177 84.037966 
L 357.255665 91.028452 
L 348.291953 102.234573 
L 324.441331 132.09921 
L 319.579505 138.642691 
L 316.472982 143.18721 
L 314.186993 146.933102 
L 312.401393 150.213282 
L 311.907711 151.17057 
L 310.615793 153.97025 
L 308.575276 159.15393 
L 305.961286 167.13729 
L 304.15296 172.45953 
L 303.119392 175.12065 
L 301.616369 178.504013 
L 299.830769 181.961752 
L 298.045169 185.031919 
L 295.574044 188.86977 
L 291.779508 194.19201 
L 285.644407 202.17537 
L 268.531156 223.90785 
L 264.694831 229.23009 
L 262.154609 233.100134 
L 259.726113 237.21345 
L 258.346914 239.87457 
L 256.762097 243.366817 
L 255.011579 247.85793 
L 252.386363 255.84129 
L 250.552435 261.16353 
L 249.492376 263.82465 
L 247.798385 267.437472 
L 246.012785 270.645106 
L 244.191473 273.467272 
L 242.405873 275.902233 
L 240.620273 278.0834 
L 238.657209 280.23489 
L 235.227761 283.432512 
L 231.656561 286.172182 
L 228.415777 288.21825 
L 228.415777 288.21825 
" clip-path="url(#p65e4fecb13)" style="fill: none; stroke: #539ecd; stroke-width: 1.5"/>
    <path d="M 391.360625 280.590777 
L 389.944605 282.89601 
L 389.575025 283.375406 
L 387.753713 285.530288 
L 387.728845 285.55713 
L 385.968113 287.127098 
L 384.590901 288.21825 
" clip-path="url(#p65e4fecb13)" style="fill: none; stroke: #539ecd; stroke-width: 1.5"/>
   </g>
   <g id="PathCollection_6">
    <path d="M 176.854618 288.21825 
L 174.231665 287.698015 
L 170.624753 286.691774 
L 167.728442 285.55713 
L 167.053553 285.152692 
L 165.232241 283.842779 
L 164.14613 282.89601 
L 163.446641 281.837377 
L 162.564409 280.23489 
L 162.101065 277.57377 
L 162.384141 274.91265 
L 163.446641 271.669224 
L 164.377499 269.59041 
L 165.851081 266.92929 
L 169.691502 261.16353 
L 176.017265 252.779795 
L 183.809681 242.53569 
L 187.560665 237.21345 
L 190.373489 232.753352 
L 192.159089 229.582317 
L 192.352188 229.23009 
L 193.944689 225.970064 
L 194.870555 223.90785 
L 197.04551 218.14209 
L 201.50432 204.83649 
L 202.944113 201.418532 
L 204.729713 197.784524 
L 206.515313 194.604436 
L 208.435766 191.53089 
L 212.140157 186.20865 
L 217.300337 179.413691 
L 222.797071 172.45953 
L 301.616369 74.573206 
L 307.008881 67.592612 
L 310.771033 62.46657 
L 314.356453 57.14433 
L 317.500242 51.82209 
L 320.206093 46.49985 
L 324.198558 38.07297 
L 325.677806 35.41185 
L 327.471194 32.75073 
L 329.794934 30.08961 
L 330.328817 29.599331 
L 333.059419 27.42849 
L 333.935729 26.888283 
L 335.721329 25.919358 
L 338.272223 24.76737 
L 341.113841 23.878606 
L 344.685041 23.094444 
L 348.291953 22.62194 
L 351.863153 22.445971 
L 355.470065 22.560058 
L 359.041265 22.984565 
L 362.648177 23.78343 
L 365.536404 24.76737 
L 366.219377 25.110647 
L 368.040689 26.224996 
L 369.826289 27.649275 
L 371.611889 30.104653 
L 372.502471 32.75073 
L 372.78886 35.41185 
L 372.678154 38.07297 
L 372.321992 40.73409 
L 371.611889 44.336657 
L 370.464902 49.16097 
L 369.02772 54.48321 
L 367.324879 59.80545 
L 366.219377 62.711504 
L 364.433777 66.638342 
L 362.648177 70.017219 
L 360.800297 73.11105 
L 357.201519 78.43329 
L 353.247626 83.75553 
L 346.506353 92.352881 
L 315.972593 130.575112 
L 312.401393 135.384902 
L 308.794481 140.606779 
L 305.603243 145.84833 
L 303.437681 150.079503 
L 302.915555 151.17057 
L 300.751433 156.49281 
L 298.949158 161.81505 
L 296.259569 170.034817 
L 294.22785 175.12065 
L 292.652657 178.400303 
L 290.867057 181.621077 
L 287.984564 186.20865 
L 284.220611 191.53089 
L 278.296433 199.265858 
L 271.735568 207.49761 
L 263.940209 217.357108 
L 259.009203 223.90785 
L 255.314021 229.23009 
L 253.190897 232.624954 
L 251.369585 235.847621 
L 249.583985 239.427242 
L 249.369504 239.87457 
L 247.191567 245.19681 
L 245.377533 250.51905 
L 242.722357 258.50241 
L 241.679032 261.16353 
L 240.502163 263.82465 
L 238.834673 267.008817 
L 237.013361 269.915928 
L 235.227761 272.380986 
L 233.089163 274.91265 
L 229.835249 278.096632 
L 227.205557 280.23489 
L 224.478449 282.052508 
L 222.657137 283.127349 
L 219.085937 284.816719 
L 217.284862 285.55713 
L 213.693425 286.671797 
L 210.122225 287.540836 
L 206.445541 288.21825 
L 206.445541 288.21825 
" clip-path="url(#p65e4fecb13)" style="fill: none; stroke: #2b7bba; stroke-width: 1.5"/>
    <path d="M 195.182368 22.10625 
L 197.551601 22.569702 
L 201.122801 23.538664 
L 204.309957 24.76737 
L 204.729713 25.013326 
L 206.515313 26.256729 
L 207.891766 27.42849 
L 208.300913 28.028233 
L 209.469508 30.08961 
L 209.937383 32.75073 
L 209.651102 35.41185 
L 208.845764 38.07297 
L 207.65573 40.73409 
L 206.184145 43.39521 
L 202.944113 48.284275 
L 200.370987 51.82209 
L 192.159089 62.355247 
L 183.536879 73.11105 
L 175.08582 83.75553 
L 170.624753 89.647647 
L 166.936967 94.84353 
L 163.566776 100.16577 
L 161.661041 103.639215 
L 159.875441 107.361871 
L 159.517205 108.14913 
L 157.452892 113.47137 
L 151.960154 129.43809 
L 150.782721 132.09921 
L 149.090417 135.41497 
L 147.304817 138.488214 
L 144.244306 143.18721 
L 140.126705 148.866767 
L 134.20727 156.49281 
L 109.628657 187.049918 
L 88.094321 213.686635 
L 79.655315 223.90785 
L 73.738097 230.753028 
L 70.131185 234.735716 
L 66.559985 238.420275 
L 62.953073 241.829241 
L 59.381873 244.752181 
L 57.560561 246.011041 
L 55.774961 247.074871 
L 53.989361 247.951927 
L 52.203761 248.548895 
L 50.382449 248.865766 
L 48.596849 248.810218 
L 46.811249 248.289616 
L 46.082475 247.85793 
L 45.025649 247.089075 
L 43.204337 244.865325 
L 42.057803 242.53569 
L 41.119935 239.87457 
L 40.467497 237.21345 
L 39.633137 232.357291 
L 39.28847 229.23009 
L 38.88857 223.90785 
L 38.559255 215.48097 
L 38.470575 207.49761 
L 38.634081 199.51425 
L 39.002204 194.19201 
L 39.723555 188.86977 
L 40.28497 186.20865 
L 41.418737 182.217153 
L 41.866373 180.88641 
L 43.204337 177.628355 
L 45.025649 173.977133 
L 46.811249 170.896191 
L 49.236316 167.13729 
L 53.989361 160.475945 
L 61.167473 150.56231 
L 64.287926 145.84833 
L 66.559985 141.968317 
L 68.345585 138.520705 
L 68.670952 137.86497 
L 70.131185 134.51156 
L 71.916785 129.763671 
L 72.924975 126.77697 
L 75.523697 118.780137 
L 77.605164 113.47137 
L 79.094897 110.314551 
L 80.916209 106.958092 
L 83.456445 102.82689 
L 87.161166 97.50465 
L 91.665521 91.540875 
L 97.820569 83.75553 
L 129.341681 44.845458 
L 132.948593 40.677995 
L 136.519793 36.922045 
L 138.341105 35.13135 
L 141.912305 32.027041 
L 145.519217 29.385101 
L 149.090417 27.238049 
L 152.697329 25.554665 
L 154.640153 24.76737 
L 158.054129 23.707795 
L 161.661041 22.82317 
L 165.553648 22.10625 
L 165.553648 22.10625 
" clip-path="url(#p65e4fecb13)" style="fill: none; stroke: #2b7bba; stroke-width: 1.5"/>
    <path d="M 340.826329 277.57377 
L 341.097688 274.91265 
L 341.113841 274.861623 
L 341.932726 272.25153 
L 342.899441 270.135678 
L 343.147181 269.59041 
L 344.666878 266.92929 
L 344.685041 266.902261 
L 346.506353 264.185807 
L 346.746184 263.82465 
L 348.291953 261.74095 
L 348.72165 261.16353 
L 350.077553 259.456799 
L 350.840315 258.50241 
L 351.863153 257.278877 
L 353.077032 255.84129 
L 353.684465 255.143213 
L 355.416566 253.18017 
L 355.470065 253.120868 
L 357.255665 251.211304 
L 357.919616 250.51905 
L 359.041265 249.371188 
L 360.567103 247.85793 
L 360.862577 247.56918 
L 362.648177 245.929542 
L 363.4949 245.19681 
L 364.433777 244.396834 
L 366.219377 242.989824 
L 366.867468 242.53569 
L 368.040689 241.724783 
L 369.826289 240.655862 
L 371.406113 239.87457 
L 371.611889 239.77416 
L 373.397489 239.172622 
L 375.218801 238.85196 
L 377.004401 238.905655 
L 378.790001 239.427809 
L 379.538962 239.87457 
L 380.575601 240.634313 
L 382.170885 242.53569 
L 382.396913 242.877901 
L 383.525513 245.19681 
L 384.182513 246.967402 
L 384.449909 247.85793 
L 385.0779 250.51905 
L 385.54555 253.18017 
L 385.878972 255.84129 
L 385.968113 256.939446 
L 386.081124 258.50241 
L 386.167731 261.16353 
L 386.136746 263.82465 
L 385.968113 266.296249 
L 385.921985 266.92929 
L 385.528226 269.59041 
L 384.905078 272.25153 
L 384.182513 274.3646 
L 383.978495 274.91265 
L 382.604325 277.57377 
L 382.396913 277.875829 
L 380.596451 280.23489 
L 380.575601 280.256156 
L 378.790001 281.88444 
L 377.527066 282.89601 
L 377.004401 283.233852 
L 375.218801 284.244821 
L 373.397489 285.131071 
L 372.371564 285.55713 
L 371.611889 285.820918 
L 369.826289 286.342316 
L 368.040689 286.770098 
L 366.219377 287.116734 
L 364.433777 287.3738 
L 362.648177 287.552589 
L 360.862577 287.655282 
L 359.041265 287.682285 
L 357.255665 287.631477 
L 355.470065 287.501258 
L 353.684465 287.286705 
L 351.863153 286.973469 
L 350.077553 286.563745 
L 348.291953 286.039264 
L 346.967388 285.55713 
L 346.506353 285.327162 
L 344.685041 284.21155 
L 342.982833 282.89601 
L 342.899441 282.786861 
L 341.311524 280.23489 
L 341.113841 279.258617 
L 340.826329 277.57377 
z
" clip-path="url(#p65e4fecb13)" style="fill: none; stroke: #2b7bba; stroke-width: 1.5"/>
   </g>
   <g id="PathCollection_7">
    <path d="M 51.840078 215.48097 
L 51.354116 212.81985 
L 50.998378 210.15873 
L 50.747017 207.49761 
L 50.58621 204.83649 
L 50.511363 202.17537 
L 50.524909 199.51425 
L 50.634455 196.85313 
L 50.851135 194.19201 
L 51.187893 191.53089 
L 51.657423 188.86977 
L 52.203761 186.503024 
L 52.277054 186.20865 
L 53.11685 183.54753 
L 53.989361 181.209967 
L 54.117034 180.88641 
L 55.347149 178.22529 
L 55.774961 177.417461 
L 57.017456 175.12065 
L 57.560561 174.215055 
L 58.636351 172.45953 
L 59.381873 171.320322 
L 60.389697 169.79841 
L 61.167473 168.680778 
L 62.244624 167.13729 
L 62.953073 166.156734 
L 64.163263 164.47617 
L 64.738673 163.694506 
L 66.113058 161.81505 
L 66.559985 161.209205 
L 68.062216 159.15393 
L 68.345585 158.765867 
L 69.986782 156.49281 
L 70.131185 156.289998 
L 71.86226 153.83169 
L 71.916785 153.751947 
L 73.666809 151.17057 
L 73.738097 151.060066 
L 75.37475 148.50945 
L 75.523697 148.260944 
L 76.96773 145.84833 
L 77.309297 145.224026 
L 78.429445 143.18721 
L 79.094897 141.835614 
L 79.748889 140.52609 
L 80.91555 137.86497 
L 80.916209 137.863311 
L 82.004786 135.20385 
L 82.701809 133.248907 
L 83.123676 132.09921 
L 84.014386 129.43809 
L 84.487409 127.927932 
L 84.866739 126.77697 
L 85.727776 124.11585 
L 86.273009 122.455488 
L 86.620458 121.45473 
L 87.601067 118.79361 
L 88.094321 117.558567 
L 88.692811 116.13249 
L 89.879921 113.526588 
L 89.906175 113.47137 
L 91.307424 110.81025 
L 91.665521 110.184056 
L 92.859625 108.14913 
L 93.451121 107.210218 
L 94.5556 105.48801 
L 95.272433 104.432505 
L 96.373348 102.82689 
L 97.058033 101.874827 
L 98.289133 100.16577 
L 98.843633 99.425164 
L 100.276043 97.50465 
L 100.629233 97.046108 
L 102.313928 94.84353 
L 102.450545 94.66955 
L 104.236145 92.390522 
L 104.398382 92.18241 
L 106.021745 90.152743 
L 106.519665 89.52129 
L 107.807345 87.941177 
L 109.009763 86.41665 
L 109.628657 85.653804 
L 111.144651 83.75553 
L 111.414257 83.424087 
L 113.199857 81.200194 
L 113.284448 81.09441 
L 114.985457 79.003733 
L 115.441527 78.43329 
L 116.806769 76.750358 
L 117.586713 75.77217 
L 118.592369 74.531776 
L 119.723861 73.11105 
L 120.377969 72.304213 
L 121.855171 70.44993 
L 122.163569 70.07011 
L 123.984881 67.790027 
L 123.985852 67.78881 
L 125.770481 65.599186 
L 126.147713 65.12769 
L 127.556081 63.404419 
L 128.308587 62.46657 
L 129.341681 61.205548 
L 130.469249 59.80545 
L 131.162993 58.960279 
L 132.629358 57.14433 
L 132.948593 56.757744 
L 134.734193 54.567673 
L 134.803033 54.48321 
L 136.519793 52.438516 
L 137.030095 51.82209 
L 138.341105 50.294354 
L 139.302584 49.16097 
L 140.126705 48.235624 
L 141.658723 46.49985 
L 141.912305 46.232977 
L 143.697905 44.383154 
L 144.642229 43.39521 
L 145.519217 42.563671 
L 147.304817 40.886628 
L 147.473216 40.73409 
L 149.090417 39.428318 
L 150.790462 38.07297 
L 150.876017 38.013065 
L 152.697329 36.826336 
L 154.482929 35.708329 
L 154.993182 35.41185 
L 156.268529 34.782586 
L 158.054129 33.973218 
L 159.875441 33.216964 
L 161.125706 32.75073 
L 161.661041 32.584732 
L 163.446641 32.104301 
L 165.232241 31.689303 
L 167.053553 31.332317 
L 168.839153 31.046219 
L 170.624753 30.822418 
L 172.410353 30.660356 
L 174.231665 30.558778 
L 176.017265 30.522784 
L 177.802865 30.552207 
L 179.588465 30.651233 
L 181.409777 30.830613 
L 183.195377 31.092769 
L 184.980977 31.453438 
L 186.766577 31.930408 
L 188.587889 32.561782 
L 189.028309 32.75073 
L 190.373489 33.698841 
L 192.159089 35.391596 
L 192.176241 35.41185 
L 193.018218 38.07297 
L 192.784674 40.73409 
L 192.159089 42.595615 
L 191.895534 43.39521 
L 190.373489 46.394255 
L 190.321961 46.49985 
L 188.666588 49.16097 
L 188.587889 49.273467 
L 186.835423 51.82209 
L 186.766577 51.915046 
L 184.980977 54.35494 
L 184.888502 54.48321 
L 183.195377 56.699346 
L 182.861721 57.14433 
L 181.409777 59.000506 
L 180.790992 59.80545 
L 179.588465 61.32151 
L 178.695609 62.46657 
L 177.802865 63.579977 
L 176.583883 65.12769 
L 176.017265 65.829923 
L 174.464701 67.78881 
L 174.231665 68.076796 
L 172.410353 70.358067 
L 172.337435 70.44993 
L 170.624753 72.568915 
L 170.194939 73.11105 
L 168.839153 74.797694 
L 168.070588 75.77217 
L 167.053553 77.049532 
L 165.971017 78.43329 
L 165.232241 79.374636 
L 163.905119 81.09441 
L 163.446641 81.688497 
L 161.878069 83.75553 
L 161.661041 84.043355 
L 159.899295 86.41665 
L 159.875441 86.449086 
L 158.054129 88.946301 
L 157.647168 89.52129 
L 156.268529 91.517961 
L 155.814833 92.18241 
L 154.482929 94.229583 
L 154.08635 94.84353 
L 152.697329 97.145489 
L 152.480781 97.50465 
L 151.004866 100.16577 
L 150.876017 100.42155 
L 149.649837 102.82689 
L 149.090417 104.070037 
L 148.43943 105.48801 
L 147.369235 108.14913 
L 147.304817 108.325694 
L 146.365531 110.81025 
L 145.519217 113.351291 
L 145.477355 113.47137 
L 144.593832 116.13249 
L 143.76191 118.79361 
L 143.697905 118.993035 
L 142.863407 121.45473 
L 141.938416 124.11585 
L 141.912305 124.184066 
L 140.869353 126.77697 
L 140.126705 128.484225 
L 139.692751 129.43809 
L 138.372089 132.09921 
L 138.341105 132.154786 
L 136.61021 135.20385 
L 136.519793 135.350178 
L 134.935283 137.86497 
L 134.734193 138.165112 
L 133.136086 140.52609 
L 132.948593 140.789628 
L 131.237596 143.18721 
L 131.162993 143.287632 
L 129.341681 145.73393 
L 129.256437 145.84833 
L 127.556081 148.056471 
L 127.21012 148.50945 
L 125.770481 150.341184 
L 125.125954 151.17057 
L 123.984881 152.601375 
L 123.015996 153.83169 
L 122.163569 154.890644 
L 120.892085 156.49281 
L 120.377969 157.12688 
L 118.760858 159.15393 
L 118.592369 159.361143 
L 116.806769 161.573582 
L 116.613491 161.81505 
L 114.985457 163.816975 
L 114.45861 164.47617 
L 113.199857 166.025386 
L 112.312678 167.13729 
L 111.414257 168.245039 
L 110.176654 169.79841 
L 109.628657 170.474523 
L 108.046177 172.45953 
L 107.807345 172.754183 
L 106.021745 174.981056 
L 105.910443 175.12065 
L 104.236145 177.15826 
L 103.391063 178.22529 
L 102.450545 179.378352 
L 101.241283 180.88641 
L 100.629233 181.636766 
L 99.096721 183.54753 
L 98.843633 183.857658 
L 97.058033 186.071901 
L 96.94827 186.20865 
L 95.272433 188.260315 
L 94.782695 188.86977 
L 93.451121 190.501475 
L 92.623719 191.53089 
L 91.665521 192.701746 
L 90.463907 194.19201 
L 89.879921 194.902543 
L 88.298255 196.85313 
L 88.094321 197.099658 
L 86.273009 199.307923 
L 86.102752 199.51425 
L 84.487409 201.430317 
L 83.865221 202.17537 
L 82.701809 203.540605 
L 81.605393 204.83649 
L 80.916209 205.63612 
L 79.316988 207.49761 
L 79.094897 207.752232 
L 77.309297 209.764244 
L 76.953443 210.15873 
L 75.523697 211.716232 
L 74.500912 212.81985 
L 73.738097 213.628488 
L 71.960184 215.48097 
L 71.916785 215.525434 
L 70.131185 217.229292 
L 69.136094 218.14209 
L 68.345585 218.852235 
L 66.559985 220.337485 
L 65.922862 220.80321 
L 64.738673 221.64291 
L 62.953073 222.71534 
L 61.167473 223.552883 
L 59.817528 223.90785 
L 59.381873 224.018556 
L 57.560561 223.97722 
L 57.362543 223.90785 
L 55.774961 223.172878 
L 53.989361 221.26519 
L 53.720846 220.80321 
L 52.569569 218.14209 
L 52.203761 216.987326 
L 51.840078 215.48097 
z
" clip-path="url(#p65e4fecb13)" style="fill: none; stroke: #0b559f; stroke-width: 1.5"/>
    <path d="M 179.012573 272.25153 
L 179.241554 269.59041 
L 179.588465 268.57864 
L 180.143903 266.92929 
L 181.409777 264.4457 
L 181.714656 263.82465 
L 183.195377 261.429288 
L 183.356624 261.16353 
L 184.980977 258.793059 
L 185.176517 258.50241 
L 186.766577 256.314504 
L 187.104741 255.84129 
L 188.587889 253.859338 
L 189.088077 253.18017 
L 190.373489 251.483064 
L 191.092219 250.51905 
L 192.159089 249.106005 
L 193.087968 247.85793 
L 193.944689 246.705476 
L 195.053201 245.19681 
L 195.766001 244.209513 
L 196.963112 242.53569 
L 197.551601 241.685947 
L 198.796838 239.87457 
L 199.337201 239.046951 
L 200.530406 237.21345 
L 201.122801 236.233795 
L 202.142875 234.55233 
L 202.944113 233.093997 
L 203.611771 231.89121 
L 204.729713 229.620816 
L 204.925526 229.23009 
L 206.119351 226.56897 
L 206.515313 225.560783 
L 207.185814 223.90785 
L 208.272741 220.80321 
L 208.300913 220.715565 
L 209.168346 218.14209 
L 209.987263 215.48097 
L 210.122225 215.041258 
L 210.842696 212.81985 
L 211.710876 210.15873 
L 211.907825 209.599053 
L 212.687285 207.49761 
L 213.693425 204.962856 
L 213.746116 204.83649 
L 214.984045 202.17537 
L 215.479025 201.20338 
L 216.369974 199.51425 
L 217.300337 197.887224 
L 217.907312 196.85313 
L 219.085937 194.984443 
L 219.593753 194.19201 
L 220.871537 192.313815 
L 221.408147 191.53089 
L 222.657137 189.794987 
L 223.323685 188.86977 
L 224.478449 187.326326 
L 225.311132 186.20865 
L 226.264049 184.971426 
L 227.350706 183.54753 
L 228.049649 182.657992 
L 229.425033 180.88641 
L 229.835249 180.371799 
L 231.524106 178.22529 
L 231.656561 178.062169 
L 233.442161 175.855903 
L 234.020637 175.12065 
L 235.227761 173.634463 
L 236.165736 172.45953 
L 237.013361 171.418436 
L 238.310731 169.79841 
L 238.834673 169.154396 
L 240.449244 167.13729 
L 240.620273 166.927095 
L 242.405873 164.716992 
L 242.59885 164.47617 
L 244.191473 162.523342 
L 244.760199 161.81505 
L 246.012785 160.280492 
L 246.91885 159.15393 
L 247.798385 158.080941 
L 249.080596 156.49281 
L 249.583985 155.881062 
L 251.245551 153.83169 
L 251.369585 153.681433 
L 253.190897 151.471886 
L 253.437524 151.17057 
L 254.976497 149.321075 
L 255.641917 148.50945 
L 256.762097 147.162372 
L 257.838737 145.84833 
L 258.547697 144.993802 
L 260.025967 143.18721 
L 260.369009 142.772194 
L 262.154609 140.587466 
L 262.205019 140.52609 
L 263.940209 138.439923 
L 264.410774 137.86497 
L 265.725809 136.280837 
L 266.60576 135.20385 
L 267.547121 134.078778 
L 269.141132 132.09921 
L 269.332721 131.867496 
L 271.118321 129.693389 
L 271.326258 129.43809 
L 272.903921 127.533501 
L 273.517943 126.77697 
L 274.725233 125.310624 
L 275.688689 124.11585 
L 276.510833 123.113139 
L 277.84113 121.45473 
L 278.296433 120.896923 
L 279.976595 118.79361 
L 280.082033 118.66409 
L 281.903345 116.412679 
L 282.126573 116.13249 
L 283.688945 114.216164 
L 284.282119 113.47137 
L 285.474545 112.010177 
L 286.431306 110.81025 
L 287.260145 109.795899 
L 288.576582 108.14913 
L 289.081457 107.5308 
L 290.71353 105.48801 
L 290.867057 105.299982 
L 292.652657 103.092691 
L 292.864558 102.82689 
L 294.438257 100.897092 
L 295.020885 100.16577 
L 296.259569 98.640831 
L 297.16192 97.50465 
L 298.045169 96.41669 
L 299.2934 94.84353 
L 299.830769 94.181489 
L 301.417657 92.18241 
L 301.616369 91.937845 
L 303.437681 89.665542 
L 303.552196 89.52129 
L 305.223281 87.494279 
L 306.069841 86.41665 
L 307.008881 85.262156 
L 308.205766 83.75553 
L 308.794481 83.028723 
L 310.327176 81.09441 
L 310.615793 80.734936 
L 312.401393 78.466847 
L 312.427693 78.43329 
L 314.186993 76.217286 
L 314.532153 75.77217 
L 315.972593 73.929427 
L 316.599245 73.11105 
L 317.793905 71.550621 
L 318.621108 70.44993 
L 319.579505 69.168042 
L 320.593244 67.78881 
L 321.365105 66.722495 
L 322.504084 65.12769 
L 323.150705 64.196336 
L 324.342869 62.46657 
L 324.972017 61.510743 
L 326.093855 59.80545 
L 326.757617 58.734981 
L 327.751066 57.14433 
L 328.543217 55.781589 
L 329.312173 54.48321 
L 330.328817 52.630798 
L 330.788065 51.82209 
L 332.150129 49.255619 
L 332.202991 49.16097 
L 333.6654 46.49985 
L 333.935729 46.017874 
L 335.505633 43.39521 
L 335.721329 43.066126 
L 337.408103 40.73409 
L 337.506929 40.615932 
L 339.328241 38.719942 
L 340.050179 38.07297 
L 341.113841 37.297707 
L 342.899441 36.233837 
L 344.666674 35.41185 
L 344.685041 35.405099 
L 346.506353 34.960979 
L 348.291953 34.741702 
L 350.077553 34.752168 
L 351.863153 35.01653 
L 353.147842 35.41185 
L 353.684465 35.661229 
L 355.470065 37.006251 
L 356.427537 38.07297 
L 357.255665 39.849265 
L 357.560972 40.73409 
L 357.884835 43.39521 
L 357.775598 46.49985 
L 357.435903 49.16097 
L 357.255665 50.115369 
L 356.908461 51.82209 
L 356.241142 54.48321 
L 355.47865 57.14433 
L 355.470065 57.169415 
L 354.510941 59.80545 
L 353.684465 61.857826 
L 353.425109 62.46657 
L 352.150506 65.12769 
L 351.863153 65.666945 
L 350.692801 67.78881 
L 350.077553 68.817173 
L 349.078731 70.44993 
L 348.291953 71.650839 
L 347.324063 73.11105 
L 346.506353 74.277048 
L 345.453952 75.77217 
L 344.685041 76.8175 
L 343.500836 78.43329 
L 342.899441 79.22257 
L 341.487703 81.09441 
L 341.113841 81.573534 
L 339.434937 83.75553 
L 339.328241 83.889975 
L 337.506929 86.1963 
L 337.334804 86.41665 
L 335.721329 88.394755 
L 334.842613 89.52129 
L 333.935729 90.638398 
L 332.709393 92.18241 
L 332.150129 92.869176 
L 330.575953 94.84353 
L 330.328817 95.147299 
L 328.543217 97.37441 
L 328.439607 97.50465 
L 326.757617 99.570717 
L 326.284857 100.16577 
L 324.972017 101.781743 
L 324.141771 102.82689 
L 323.150705 104.049455 
L 322.00967 105.48801 
L 321.365105 106.281877 
L 319.882645 108.14913 
L 319.579505 108.522035 
L 317.793905 110.762337 
L 317.755815 110.81025 
L 315.972593 113.002494 
L 315.60006 113.47137 
L 314.186993 115.209595 
L 313.45486 116.13249 
L 312.401393 117.435097 
L 311.328741 118.79361 
L 310.615793 119.683097 
L 309.22685 121.45473 
L 308.794481 122.00174 
L 307.158516 124.11585 
L 307.008881 124.308152 
L 305.223281 126.63592 
L 305.116445 126.77697 
L 303.437681 128.993532 
L 303.107836 129.43809 
L 301.616369 131.471748 
L 301.164667 132.09921 
L 299.830769 133.97674 
L 298.992408 135.20385 
L 298.045169 136.634727 
L 297.240965 137.86497 
L 296.259569 139.459284 
L 295.606996 140.52609 
L 294.438257 142.607663 
L 294.112683 143.18721 
L 292.757534 145.84833 
L 292.652657 146.075641 
L 291.51325 148.50945 
L 290.867057 150.096756 
L 290.419042 151.17057 
L 289.433844 153.83169 
L 289.081457 154.891282 
L 288.526185 156.49281 
L 287.684796 159.15393 
L 287.260145 160.567407 
L 286.864914 161.81505 
L 286.026126 164.47617 
L 285.474545 166.176946 
L 285.145561 167.13729 
L 284.165038 169.79841 
L 283.688945 170.979484 
L 283.063307 172.45953 
L 281.903345 174.976208 
L 281.833903 175.12065 
L 280.175375 178.22529 
L 280.082033 178.384097 
L 278.57658 180.88641 
L 278.296433 181.321131 
L 276.842141 183.54753 
L 276.510833 184.026877 
L 274.994391 186.20865 
L 274.725233 186.578625 
L 273.058391 188.86977 
L 272.903921 189.074689 
L 271.118321 191.448154 
L 271.056034 191.53089 
L 269.332721 193.748605 
L 268.991939 194.19201 
L 267.547121 196.019789 
L 266.896609 196.85313 
L 265.725809 198.318042 
L 264.783338 199.51425 
L 263.940209 200.560418 
L 262.659817 202.17537 
L 262.154609 202.800397 
L 260.536586 204.83649 
L 260.369009 205.044135 
L 258.547697 207.322157 
L 258.408565 207.49761 
L 256.762097 209.549392 
L 256.281724 210.15873 
L 254.976497 211.80211 
L 254.181682 212.81985 
L 253.190897 214.0852 
L 252.113974 215.48097 
L 251.369585 216.450764 
L 250.088505 218.14209 
L 249.583985 218.81575 
L 248.113981 220.80321 
L 247.798385 221.237197 
L 246.012785 223.745291 
L 245.897982 223.90785 
L 244.191473 226.419187 
L 244.090108 226.56897 
L 242.405873 229.218258 
L 242.398352 229.23009 
L 240.823681 231.89121 
L 240.620273 232.271959 
L 239.389125 234.55233 
L 238.834673 235.715199 
L 238.105758 237.21345 
L 237.013361 239.807176 
L 236.984118 239.87457 
L 235.9371 242.53569 
L 235.227761 244.608471 
L 235.017489 245.19681 
L 234.132418 247.85793 
L 233.442161 250.080474 
L 233.298345 250.51905 
L 232.411519 253.18017 
L 231.656561 255.376833 
L 231.487194 255.84129 
L 230.413865 258.50241 
L 229.835249 259.782834 
L 229.175828 261.16353 
L 228.049649 263.227338 
L 227.706495 263.82465 
L 226.264049 265.950724 
L 225.574712 266.92929 
L 224.478449 268.238382 
L 223.292553 269.59041 
L 222.657137 270.208302 
L 220.871537 271.848872 
L 220.404572 272.25153 
L 219.085937 273.209078 
L 217.300337 274.425137 
L 216.523568 274.91265 
L 215.479025 275.459852 
L 213.693425 276.307404 
L 211.907825 277.077128 
L 210.616953 277.57377 
L 210.122225 277.730728 
L 208.300913 278.228758 
L 206.515313 278.647245 
L 204.729713 278.9985 
L 202.944113 279.284251 
L 201.122801 279.50971 
L 199.337201 279.666939 
L 197.551601 279.761075 
L 195.766001 279.7911 
L 193.944689 279.753119 
L 192.159089 279.644219 
L 190.373489 279.457624 
L 188.587889 279.18364 
L 186.766577 278.800091 
L 184.980977 278.303135 
L 183.195377 277.66105 
L 182.997251 277.57377 
L 181.409777 276.417863 
L 179.87222 274.91265 
L 179.588465 274.178569 
L 179.012573 272.25153 
z
" clip-path="url(#p65e4fecb13)" style="fill: none; stroke: #0b559f; stroke-width: 1.5"/>
   </g>
   <g id="PathCollection_8"/>
   <g id="patch_3">
    <path d="M 34.240625 288.21825 
L 34.240625 22.10625 
" style="fill: none; stroke: #000000; stroke-width: 0.8; stroke-linejoin: miter; stroke-linecap: square"/>
   </g>
   <g id="patch_4">
    <path d="M 391.360625 288.21825 
L 391.360625 22.10625 
" style="fill: none; stroke: #000000; stroke-width: 0.8; stroke-linejoin: miter; stroke-linecap: square"/>
   </g>
   <g id="patch_5">
    <path d="M 34.240625 288.21825 
L 391.360625 288.21825 
" style="fill: none; stroke: #000000; stroke-width: 0.8; stroke-linejoin: miter; stroke-linecap: square"/>
   </g>
   <g id="patch_6">
    <path d="M 34.240625 22.10625 
L 391.360625 22.10625 
" style="fill: none; stroke: #000000; stroke-width: 0.8; stroke-linejoin: miter; stroke-linecap: square"/>
   </g>
   <g id="text_16">
    <!-- 9.3_cross_26.0 -->
    <g transform="translate(168.34625 16.10625)scale(0.12 -0.12)">
     <defs>
      <path id="DejaVuSans-39" d="M 703 97 
L 703 672 
Q 941 559 1184 500 
Q 1428 441 1663 441 
Q 2288 441 2617 861 
Q 2947 1281 2994 2138 
Q 2813 1869 2534 1725 
Q 2256 1581 1919 1581 
Q 1219 1581 811 2004 
Q 403 2428 403 3163 
Q 403 3881 828 4315 
Q 1253 4750 1959 4750 
Q 2769 4750 3195 4129 
Q 3622 3509 3622 2328 
Q 3622 1225 3098 567 
Q 2575 -91 1691 -91 
Q 1453 -91 1209 -44 
Q 966 3 703 97 
z
M 1959 2075 
Q 2384 2075 2632 2365 
Q 2881 2656 2881 3163 
Q 2881 3666 2632 3958 
Q 2384 4250 1959 4250 
Q 1534 4250 1286 3958 
Q 1038 3666 1038 3163 
Q 1038 2656 1286 2365 
Q 1534 2075 1959 2075 
z
" transform="scale(0.015625)"/>
      <path id="DejaVuSans-2e" d="M 684 794 
L 1344 794 
L 1344 0 
L 684 0 
L 684 794 
z
" transform="scale(0.015625)"/>
      <path id="DejaVuSans-5f" d="M 3263 -1063 
L 3263 -1509 
L -63 -1509 
L -63 -1063 
L 3263 -1063 
z
" transform="scale(0.015625)"/>
      <path id="DejaVuSans-63" d="M 3122 3366 
L 3122 2828 
Q 2878 2963 2633 3030 
Q 2388 3097 2138 3097 
Q 1578 3097 1268 2742 
Q 959 2388 959 1747 
Q 959 1106 1268 751 
Q 1578 397 2138 397 
Q 2388 397 2633 464 
Q 2878 531 3122 666 
L 3122 134 
Q 2881 22 2623 -34 
Q 2366 -91 2075 -91 
Q 1284 -91 818 406 
Q 353 903 353 1747 
Q 353 2603 823 3093 
Q 1294 3584 2113 3584 
Q 2378 3584 2631 3529 
Q 2884 3475 3122 3366 
z
" transform="scale(0.015625)"/>
      <path id="DejaVuSans-72" d="M 2631 2963 
Q 2534 3019 2420 3045 
Q 2306 3072 2169 3072 
Q 1681 3072 1420 2755 
Q 1159 2438 1159 1844 
L 1159 0 
L 581 0 
L 581 3500 
L 1159 3500 
L 1159 2956 
Q 1341 3275 1631 3429 
Q 1922 3584 2338 3584 
Q 2397 3584 2469 3576 
Q 2541 3569 2628 3553 
L 2631 2963 
z
" transform="scale(0.015625)"/>
      <path id="DejaVuSans-73" d="M 2834 3397 
L 2834 2853 
Q 2591 2978 2328 3040 
Q 2066 3103 1784 3103 
Q 1356 3103 1142 2972 
Q 928 2841 928 2578 
Q 928 2378 1081 2264 
Q 1234 2150 1697 2047 
L 1894 2003 
Q 2506 1872 2764 1633 
Q 3022 1394 3022 966 
Q 3022 478 2636 193 
Q 2250 -91 1575 -91 
Q 1294 -91 989 -36 
Q 684 19 347 128 
L 347 722 
Q 666 556 975 473 
Q 1284 391 1588 391 
Q 1994 391 2212 530 
Q 2431 669 2431 922 
Q 2431 1156 2273 1281 
Q 2116 1406 1581 1522 
L 1381 1569 
Q 847 1681 609 1914 
Q 372 2147 372 2553 
Q 372 3047 722 3315 
Q 1072 3584 1716 3584 
Q 2034 3584 2315 3537 
Q 2597 3491 2834 3397 
z
" transform="scale(0.015625)"/>
     </defs>
     <use xlink:href="#DejaVuSans-39"/>
     <use xlink:href="#DejaVuSans-2e" x="63.623047"/>
     <use xlink:href="#DejaVuSans-33" x="95.410156"/>
     <use xlink:href="#DejaVuSans-5f" x="159.033203"/>
     <use xlink:href="#DejaVuSans-63" x="209.033203"/>
     <use xlink:href="#DejaVuSans-72" x="264.013672"/>
     <use xlink:href="#DejaVuSans-6f" x="302.876953"/>
     <use xlink:href="#DejaVuSans-73" x="364.058594"/>
     <use xlink:href="#DejaVuSans-73" x="416.158203"/>
     <use xlink:href="#DejaVuSans-5f" x="468.257812"/>
     <use xlink:href="#DejaVuSans-32" x="518.257812"/>
     <use xlink:href="#DejaVuSans-36" x="581.880859"/>
     <use xlink:href="#DejaVuSans-2e" x="645.503906"/>
     <use xlink:href="#DejaVuSans-30" x="677.291016"/>
    </g>
   </g>
  </g>
 </g>
 <defs>
  <clipPath id="p65e4fecb13">
   <rect x="34.240625" y="22.10625" width="357.12" height="266.112"/>
  </clipPath>
 </defs>
</svg>
