<?xml version="1.0" encoding="utf-8" standalone="no"?>
<!DOCTYPE svg PUBLIC "-//W3C//DTD SVG 1.1//EN"
  "http://www.w3.org/Graphics/SVG/1.1/DTD/svg11.dtd">
<svg xmlns:xlink="http://www.w3.org/1999/xlink" width="408.104375pt" height="325.7745pt" viewBox="0 0 408.104375 325.7745" xmlns="http://www.w3.org/2000/svg" version="1.1">
 <metadata>
  <rdf:RDF xmlns:dc="http://purl.org/dc/elements/1.1/" xmlns:cc="http://creativecommons.org/ns#" xmlns:rdf="http://www.w3.org/1999/02/22-rdf-syntax-ns#">
   <cc:Work>
    <dc:type rdf:resource="http://purl.org/dc/dcmitype/StillImage"/>
    <dc:date>2024-07-12T12:11:10.348781</dc:date>
    <dc:format>image/svg+xml</dc:format>
    <dc:creator>
     <cc:Agent>
      <dc:title>Matplotlib v3.5.3, https://matplotlib.org/</dc:title>
     </cc:Agent>
    </dc:creator>
   </cc:Work>
  </rdf:RDF>
 </metadata>
 <defs>
  <style type="text/css">*{stroke-linejoin: round; stroke-linecap: butt}</style>
 </defs>
 <g id="figure_1">
  <g id="patch_1">
   <path d="M 0 325.7745 
L 408.104375 325.7745 
L 408.104375 0 
L 0 0 
z
" style="fill: #ffffff"/>
  </g>
  <g id="axes_1">
   <g id="patch_2">
    <path d="M 34.240625 288.21825 
L 391.360625 288.21825 
L 391.360625 22.10625 
L 34.240625 22.10625 
z
" style="fill: #ffffff"/>
   </g>
   <g id="matplotlib.axis_1">
    <g id="xtick_1">
     <g id="line2d_1">
      <defs>
       <path id="mf574528fcb" d="M 0 0 
L 0 3.5 
" style="stroke: #000000; stroke-width: 0.8"/>
      </defs>
      <g>
       <use xlink:href="#mf574528fcb" x="34.240625" y="288.21825" style="stroke: #000000; stroke-width: 0.8"/>
      </g>
     </g>
     <g id="text_1">
      <!-- 0 -->
      <g transform="translate(31.059375 302.816687)scale(0.1 -0.1)">
       <defs>
        <path id="DejaVuSans-30" d="M 2034 4250 
Q 1547 4250 1301 3770 
Q 1056 3291 1056 2328 
Q 1056 1369 1301 889 
Q 1547 409 2034 409 
Q 2525 409 2770 889 
Q 3016 1369 3016 2328 
Q 3016 3291 2770 3770 
Q 2525 4250 2034 4250 
z
M 2034 4750 
Q 2819 4750 3233 4129 
Q 3647 3509 3647 2328 
Q 3647 1150 3233 529 
Q 2819 -91 2034 -91 
Q 1250 -91 836 529 
Q 422 1150 422 2328 
Q 422 3509 836 4129 
Q 1250 4750 2034 4750 
z
" transform="scale(0.015625)"/>
       </defs>
       <use xlink:href="#DejaVuSans-30"/>
      </g>
     </g>
    </g>
    <g id="xtick_2">
     <g id="line2d_2">
      <g>
       <use xlink:href="#mf574528fcb" x="105.664625" y="288.21825" style="stroke: #000000; stroke-width: 0.8"/>
      </g>
     </g>
     <g id="text_2">
      <!-- 20 -->
      <g transform="translate(99.302125 302.816687)scale(0.1 -0.1)">
       <defs>
        <path id="DejaVuSans-32" d="M 1228 531 
L 3431 531 
L 3431 0 
L 469 0 
L 469 531 
Q 828 903 1448 1529 
Q 2069 2156 2228 2338 
Q 2531 2678 2651 2914 
Q 2772 3150 2772 3378 
Q 2772 3750 2511 3984 
Q 2250 4219 1831 4219 
Q 1534 4219 1204 4116 
Q 875 4013 500 3803 
L 500 4441 
Q 881 4594 1212 4672 
Q 1544 4750 1819 4750 
Q 2544 4750 2975 4387 
Q 3406 4025 3406 3419 
Q 3406 3131 3298 2873 
Q 3191 2616 2906 2266 
Q 2828 2175 2409 1742 
Q 1991 1309 1228 531 
z
" transform="scale(0.015625)"/>
       </defs>
       <use xlink:href="#DejaVuSans-32"/>
       <use xlink:href="#DejaVuSans-30" x="63.623047"/>
      </g>
     </g>
    </g>
    <g id="xtick_3">
     <g id="line2d_3">
      <g>
       <use xlink:href="#mf574528fcb" x="177.088625" y="288.21825" style="stroke: #000000; stroke-width: 0.8"/>
      </g>
     </g>
     <g id="text_3">
      <!-- 40 -->
      <g transform="translate(170.726125 302.816687)scale(0.1 -0.1)">
       <defs>
        <path id="DejaVuSans-34" d="M 2419 4116 
L 825 1625 
L 2419 1625 
L 2419 4116 
z
M 2253 4666 
L 3047 4666 
L 3047 1625 
L 3713 1625 
L 3713 1100 
L 3047 1100 
L 3047 0 
L 2419 0 
L 2419 1100 
L 313 1100 
L 313 1709 
L 2253 4666 
z
" transform="scale(0.015625)"/>
       </defs>
       <use xlink:href="#DejaVuSans-34"/>
       <use xlink:href="#DejaVuSans-30" x="63.623047"/>
      </g>
     </g>
    </g>
    <g id="xtick_4">
     <g id="line2d_4">
      <g>
       <use xlink:href="#mf574528fcb" x="248.512625" y="288.21825" style="stroke: #000000; stroke-width: 0.8"/>
      </g>
     </g>
     <g id="text_4">
      <!-- 60 -->
      <g transform="translate(242.150125 302.816687)scale(0.1 -0.1)">
       <defs>
        <path id="DejaVuSans-36" d="M 2113 2584 
Q 1688 2584 1439 2293 
Q 1191 2003 1191 1497 
Q 1191 994 1439 701 
Q 1688 409 2113 409 
Q 2538 409 2786 701 
Q 3034 994 3034 1497 
Q 3034 2003 2786 2293 
Q 2538 2584 2113 2584 
z
M 3366 4563 
L 3366 3988 
Q 3128 4100 2886 4159 
Q 2644 4219 2406 4219 
Q 1781 4219 1451 3797 
Q 1122 3375 1075 2522 
Q 1259 2794 1537 2939 
Q 1816 3084 2150 3084 
Q 2853 3084 3261 2657 
Q 3669 2231 3669 1497 
Q 3669 778 3244 343 
Q 2819 -91 2113 -91 
Q 1303 -91 875 529 
Q 447 1150 447 2328 
Q 447 3434 972 4092 
Q 1497 4750 2381 4750 
Q 2619 4750 2861 4703 
Q 3103 4656 3366 4563 
z
" transform="scale(0.015625)"/>
       </defs>
       <use xlink:href="#DejaVuSans-36"/>
       <use xlink:href="#DejaVuSans-30" x="63.623047"/>
      </g>
     </g>
    </g>
    <g id="xtick_5">
     <g id="line2d_5">
      <g>
       <use xlink:href="#mf574528fcb" x="319.936625" y="288.21825" style="stroke: #000000; stroke-width: 0.8"/>
      </g>
     </g>
     <g id="text_5">
      <!-- 80 -->
      <g transform="translate(313.574125 302.816687)scale(0.1 -0.1)">
       <defs>
        <path id="DejaVuSans-38" d="M 2034 2216 
Q 1584 2216 1326 1975 
Q 1069 1734 1069 1313 
Q 1069 891 1326 650 
Q 1584 409 2034 409 
Q 2484 409 2743 651 
Q 3003 894 3003 1313 
Q 3003 1734 2745 1975 
Q 2488 2216 2034 2216 
z
M 1403 2484 
Q 997 2584 770 2862 
Q 544 3141 544 3541 
Q 544 4100 942 4425 
Q 1341 4750 2034 4750 
Q 2731 4750 3128 4425 
Q 3525 4100 3525 3541 
Q 3525 3141 3298 2862 
Q 3072 2584 2669 2484 
Q 3125 2378 3379 2068 
Q 3634 1759 3634 1313 
Q 3634 634 3220 271 
Q 2806 -91 2034 -91 
Q 1263 -91 848 271 
Q 434 634 434 1313 
Q 434 1759 690 2068 
Q 947 2378 1403 2484 
z
M 1172 3481 
Q 1172 3119 1398 2916 
Q 1625 2713 2034 2713 
Q 2441 2713 2670 2916 
Q 2900 3119 2900 3481 
Q 2900 3844 2670 4047 
Q 2441 4250 2034 4250 
Q 1625 4250 1398 4047 
Q 1172 3844 1172 3481 
z
" transform="scale(0.015625)"/>
       </defs>
       <use xlink:href="#DejaVuSans-38"/>
       <use xlink:href="#DejaVuSans-30" x="63.623047"/>
      </g>
     </g>
    </g>
    <g id="xtick_6">
     <g id="line2d_6">
      <g>
       <use xlink:href="#mf574528fcb" x="391.360625" y="288.21825" style="stroke: #000000; stroke-width: 0.8"/>
      </g>
     </g>
     <g id="text_6">
      <!-- 100 -->
      <g transform="translate(381.816875 302.816687)scale(0.1 -0.1)">
       <defs>
        <path id="DejaVuSans-31" d="M 794 531 
L 1825 531 
L 1825 4091 
L 703 3866 
L 703 4441 
L 1819 4666 
L 2450 4666 
L 2450 531 
L 3481 531 
L 3481 0 
L 794 0 
L 794 531 
z
" transform="scale(0.015625)"/>
       </defs>
       <use xlink:href="#DejaVuSans-31"/>
       <use xlink:href="#DejaVuSans-30" x="63.623047"/>
       <use xlink:href="#DejaVuSans-30" x="127.246094"/>
      </g>
     </g>
    </g>
    <g id="text_7">
     <!-- axialRotation -->
     <g transform="translate(180.024844 316.494812)scale(0.1 -0.1)">
      <defs>
       <path id="DejaVuSans-61" d="M 2194 1759 
Q 1497 1759 1228 1600 
Q 959 1441 959 1056 
Q 959 750 1161 570 
Q 1363 391 1709 391 
Q 2188 391 2477 730 
Q 2766 1069 2766 1631 
L 2766 1759 
L 2194 1759 
z
M 3341 1997 
L 3341 0 
L 2766 0 
L 2766 531 
Q 2569 213 2275 61 
Q 1981 -91 1556 -91 
Q 1019 -91 701 211 
Q 384 513 384 1019 
Q 384 1609 779 1909 
Q 1175 2209 1959 2209 
L 2766 2209 
L 2766 2266 
Q 2766 2663 2505 2880 
Q 2244 3097 1772 3097 
Q 1472 3097 1187 3025 
Q 903 2953 641 2809 
L 641 3341 
Q 956 3463 1253 3523 
Q 1550 3584 1831 3584 
Q 2591 3584 2966 3190 
Q 3341 2797 3341 1997 
z
" transform="scale(0.015625)"/>
       <path id="DejaVuSans-78" d="M 3513 3500 
L 2247 1797 
L 3578 0 
L 2900 0 
L 1881 1375 
L 863 0 
L 184 0 
L 1544 1831 
L 300 3500 
L 978 3500 
L 1906 2253 
L 2834 3500 
L 3513 3500 
z
" transform="scale(0.015625)"/>
       <path id="DejaVuSans-69" d="M 603 3500 
L 1178 3500 
L 1178 0 
L 603 0 
L 603 3500 
z
M 603 4863 
L 1178 4863 
L 1178 4134 
L 603 4134 
L 603 4863 
z
" transform="scale(0.015625)"/>
       <path id="DejaVuSans-6c" d="M 603 4863 
L 1178 4863 
L 1178 0 
L 603 0 
L 603 4863 
z
" transform="scale(0.015625)"/>
       <path id="DejaVuSans-52" d="M 2841 2188 
Q 3044 2119 3236 1894 
Q 3428 1669 3622 1275 
L 4263 0 
L 3584 0 
L 2988 1197 
Q 2756 1666 2539 1819 
Q 2322 1972 1947 1972 
L 1259 1972 
L 1259 0 
L 628 0 
L 628 4666 
L 2053 4666 
Q 2853 4666 3247 4331 
Q 3641 3997 3641 3322 
Q 3641 2881 3436 2590 
Q 3231 2300 2841 2188 
z
M 1259 4147 
L 1259 2491 
L 2053 2491 
Q 2509 2491 2742 2702 
Q 2975 2913 2975 3322 
Q 2975 3731 2742 3939 
Q 2509 4147 2053 4147 
L 1259 4147 
z
" transform="scale(0.015625)"/>
       <path id="DejaVuSans-6f" d="M 1959 3097 
Q 1497 3097 1228 2736 
Q 959 2375 959 1747 
Q 959 1119 1226 758 
Q 1494 397 1959 397 
Q 2419 397 2687 759 
Q 2956 1122 2956 1747 
Q 2956 2369 2687 2733 
Q 2419 3097 1959 3097 
z
M 1959 3584 
Q 2709 3584 3137 3096 
Q 3566 2609 3566 1747 
Q 3566 888 3137 398 
Q 2709 -91 1959 -91 
Q 1206 -91 779 398 
Q 353 888 353 1747 
Q 353 2609 779 3096 
Q 1206 3584 1959 3584 
z
" transform="scale(0.015625)"/>
       <path id="DejaVuSans-74" d="M 1172 4494 
L 1172 3500 
L 2356 3500 
L 2356 3053 
L 1172 3053 
L 1172 1153 
Q 1172 725 1289 603 
Q 1406 481 1766 481 
L 2356 481 
L 2356 0 
L 1766 0 
Q 1100 0 847 248 
Q 594 497 594 1153 
L 594 3053 
L 172 3053 
L 172 3500 
L 594 3500 
L 594 4494 
L 1172 4494 
z
" transform="scale(0.015625)"/>
       <path id="DejaVuSans-6e" d="M 3513 2113 
L 3513 0 
L 2938 0 
L 2938 2094 
Q 2938 2591 2744 2837 
Q 2550 3084 2163 3084 
Q 1697 3084 1428 2787 
Q 1159 2491 1159 1978 
L 1159 0 
L 581 0 
L 581 3500 
L 1159 3500 
L 1159 2956 
Q 1366 3272 1645 3428 
Q 1925 3584 2291 3584 
Q 2894 3584 3203 3211 
Q 3513 2838 3513 2113 
z
" transform="scale(0.015625)"/>
      </defs>
      <use xlink:href="#DejaVuSans-61"/>
      <use xlink:href="#DejaVuSans-78" x="61.279297"/>
      <use xlink:href="#DejaVuSans-69" x="120.458984"/>
      <use xlink:href="#DejaVuSans-61" x="148.242188"/>
      <use xlink:href="#DejaVuSans-6c" x="209.521484"/>
      <use xlink:href="#DejaVuSans-52" x="237.304688"/>
      <use xlink:href="#DejaVuSans-6f" x="302.287109"/>
      <use xlink:href="#DejaVuSans-74" x="363.46875"/>
      <use xlink:href="#DejaVuSans-61" x="402.677734"/>
      <use xlink:href="#DejaVuSans-74" x="463.957031"/>
      <use xlink:href="#DejaVuSans-69" x="503.166016"/>
      <use xlink:href="#DejaVuSans-6f" x="530.949219"/>
      <use xlink:href="#DejaVuSans-6e" x="592.130859"/>
     </g>
    </g>
   </g>
   <g id="matplotlib.axis_2">
    <g id="ytick_1">
     <g id="line2d_7">
      <defs>
       <path id="m626219e1f3" d="M 0 0 
L -3.5 0 
" style="stroke: #000000; stroke-width: 0.8"/>
      </defs>
      <g>
       <use xlink:href="#m626219e1f3" x="34.240625" y="288.21825" style="stroke: #000000; stroke-width: 0.8"/>
      </g>
     </g>
     <g id="text_8">
      <!-- 0 -->
      <g transform="translate(20.878125 292.017469)scale(0.1 -0.1)">
       <use xlink:href="#DejaVuSans-30"/>
      </g>
     </g>
    </g>
    <g id="ytick_2">
     <g id="line2d_8">
      <g>
       <use xlink:href="#m626219e1f3" x="34.240625" y="243.86625" style="stroke: #000000; stroke-width: 0.8"/>
      </g>
     </g>
     <g id="text_9">
      <!-- 1 -->
      <g transform="translate(20.878125 247.665469)scale(0.1 -0.1)">
       <use xlink:href="#DejaVuSans-31"/>
      </g>
     </g>
    </g>
    <g id="ytick_3">
     <g id="line2d_9">
      <g>
       <use xlink:href="#m626219e1f3" x="34.240625" y="199.51425" style="stroke: #000000; stroke-width: 0.8"/>
      </g>
     </g>
     <g id="text_10">
      <!-- 2 -->
      <g transform="translate(20.878125 203.313469)scale(0.1 -0.1)">
       <use xlink:href="#DejaVuSans-32"/>
      </g>
     </g>
    </g>
    <g id="ytick_4">
     <g id="line2d_10">
      <g>
       <use xlink:href="#m626219e1f3" x="34.240625" y="155.16225" style="stroke: #000000; stroke-width: 0.8"/>
      </g>
     </g>
     <g id="text_11">
      <!-- 3 -->
      <g transform="translate(20.878125 158.961469)scale(0.1 -0.1)">
       <defs>
        <path id="DejaVuSans-33" d="M 2597 2516 
Q 3050 2419 3304 2112 
Q 3559 1806 3559 1356 
Q 3559 666 3084 287 
Q 2609 -91 1734 -91 
Q 1441 -91 1130 -33 
Q 819 25 488 141 
L 488 750 
Q 750 597 1062 519 
Q 1375 441 1716 441 
Q 2309 441 2620 675 
Q 2931 909 2931 1356 
Q 2931 1769 2642 2001 
Q 2353 2234 1838 2234 
L 1294 2234 
L 1294 2753 
L 1863 2753 
Q 2328 2753 2575 2939 
Q 2822 3125 2822 3475 
Q 2822 3834 2567 4026 
Q 2313 4219 1838 4219 
Q 1578 4219 1281 4162 
Q 984 4106 628 3988 
L 628 4550 
Q 988 4650 1302 4700 
Q 1616 4750 1894 4750 
Q 2613 4750 3031 4423 
Q 3450 4097 3450 3541 
Q 3450 3153 3228 2886 
Q 3006 2619 2597 2516 
z
" transform="scale(0.015625)"/>
       </defs>
       <use xlink:href="#DejaVuSans-33"/>
      </g>
     </g>
    </g>
    <g id="ytick_5">
     <g id="line2d_11">
      <g>
       <use xlink:href="#m626219e1f3" x="34.240625" y="110.81025" style="stroke: #000000; stroke-width: 0.8"/>
      </g>
     </g>
     <g id="text_12">
      <!-- 4 -->
      <g transform="translate(20.878125 114.609469)scale(0.1 -0.1)">
       <use xlink:href="#DejaVuSans-34"/>
      </g>
     </g>
    </g>
    <g id="ytick_6">
     <g id="line2d_12">
      <g>
       <use xlink:href="#m626219e1f3" x="34.240625" y="66.45825" style="stroke: #000000; stroke-width: 0.8"/>
      </g>
     </g>
     <g id="text_13">
      <!-- 5 -->
      <g transform="translate(20.878125 70.257469)scale(0.1 -0.1)">
       <defs>
        <path id="DejaVuSans-35" d="M 691 4666 
L 3169 4666 
L 3169 4134 
L 1269 4134 
L 1269 2991 
Q 1406 3038 1543 3061 
Q 1681 3084 1819 3084 
Q 2600 3084 3056 2656 
Q 3513 2228 3513 1497 
Q 3513 744 3044 326 
Q 2575 -91 1722 -91 
Q 1428 -91 1123 -41 
Q 819 9 494 109 
L 494 744 
Q 775 591 1075 516 
Q 1375 441 1709 441 
Q 2250 441 2565 725 
Q 2881 1009 2881 1497 
Q 2881 1984 2565 2268 
Q 2250 2553 1709 2553 
Q 1456 2553 1204 2497 
Q 953 2441 691 2322 
L 691 4666 
z
" transform="scale(0.015625)"/>
       </defs>
       <use xlink:href="#DejaVuSans-35"/>
      </g>
     </g>
    </g>
    <g id="ytick_7">
     <g id="line2d_13">
      <g>
       <use xlink:href="#m626219e1f3" x="34.240625" y="22.10625" style="stroke: #000000; stroke-width: 0.8"/>
      </g>
     </g>
     <g id="text_14">
      <!-- 6 -->
      <g transform="translate(20.878125 25.905469)scale(0.1 -0.1)">
       <use xlink:href="#DejaVuSans-36"/>
      </g>
     </g>
    </g>
    <g id="text_15">
     <!-- zShift -->
     <g transform="translate(14.798438 169.151312)rotate(-90)scale(0.1 -0.1)">
      <defs>
       <path id="DejaVuSans-7a" d="M 353 3500 
L 3084 3500 
L 3084 2975 
L 922 459 
L 3084 459 
L 3084 0 
L 275 0 
L 275 525 
L 2438 3041 
L 353 3041 
L 353 3500 
z
" transform="scale(0.015625)"/>
       <path id="DejaVuSans-53" d="M 3425 4513 
L 3425 3897 
Q 3066 4069 2747 4153 
Q 2428 4238 2131 4238 
Q 1616 4238 1336 4038 
Q 1056 3838 1056 3469 
Q 1056 3159 1242 3001 
Q 1428 2844 1947 2747 
L 2328 2669 
Q 3034 2534 3370 2195 
Q 3706 1856 3706 1288 
Q 3706 609 3251 259 
Q 2797 -91 1919 -91 
Q 1588 -91 1214 -16 
Q 841 59 441 206 
L 441 856 
Q 825 641 1194 531 
Q 1563 422 1919 422 
Q 2459 422 2753 634 
Q 3047 847 3047 1241 
Q 3047 1584 2836 1778 
Q 2625 1972 2144 2069 
L 1759 2144 
Q 1053 2284 737 2584 
Q 422 2884 422 3419 
Q 422 4038 858 4394 
Q 1294 4750 2059 4750 
Q 2388 4750 2728 4690 
Q 3069 4631 3425 4513 
z
" transform="scale(0.015625)"/>
       <path id="DejaVuSans-68" d="M 3513 2113 
L 3513 0 
L 2938 0 
L 2938 2094 
Q 2938 2591 2744 2837 
Q 2550 3084 2163 3084 
Q 1697 3084 1428 2787 
Q 1159 2491 1159 1978 
L 1159 0 
L 581 0 
L 581 4863 
L 1159 4863 
L 1159 2956 
Q 1366 3272 1645 3428 
Q 1925 3584 2291 3584 
Q 2894 3584 3203 3211 
Q 3513 2838 3513 2113 
z
" transform="scale(0.015625)"/>
       <path id="DejaVuSans-66" d="M 2375 4863 
L 2375 4384 
L 1825 4384 
Q 1516 4384 1395 4259 
Q 1275 4134 1275 3809 
L 1275 3500 
L 2222 3500 
L 2222 3053 
L 1275 3053 
L 1275 0 
L 697 0 
L 697 3053 
L 147 3053 
L 147 3500 
L 697 3500 
L 697 3744 
Q 697 4328 969 4595 
Q 1241 4863 1831 4863 
L 2375 4863 
z
" transform="scale(0.015625)"/>
      </defs>
      <use xlink:href="#DejaVuSans-7a"/>
      <use xlink:href="#DejaVuSans-53" x="52.490234"/>
      <use xlink:href="#DejaVuSans-68" x="115.966797"/>
      <use xlink:href="#DejaVuSans-69" x="179.345703"/>
      <use xlink:href="#DejaVuSans-66" x="207.128906"/>
      <use xlink:href="#DejaVuSans-74" x="240.583984"/>
     </g>
    </g>
   </g>
   <g id="PathCollection_1"/>
   <g id="PathCollection_2">
    <path d="M 34.240625 174.520861 
L 35.892282 172.45953 
L 36.026225 172.288702 
L 37.847537 169.974877 
L 37.98684 169.79841 
L 39.633137 167.661308 
L 40.039339 167.13729 
L 41.418737 165.306664 
L 42.045885 164.47617 
L 43.204337 162.88963 
L 43.985657 161.81505 
L 45.025649 160.327212 
L 45.836353 159.15393 
L 46.811249 157.670483 
L 47.570201 156.49281 
L 48.596849 154.800033 
L 49.167151 153.83169 
L 50.382449 151.616374 
L 50.617462 151.17057 
L 51.902324 148.50945 
L 52.203761 147.829801 
L 53.036094 145.84833 
L 53.989361 143.419031 
L 54.075347 143.18721 
L 54.988605 140.52609 
L 55.774961 138.196597 
L 55.88087 137.86497 
L 56.72124 135.20385 
L 57.560561 132.710339 
L 57.758769 132.09921 
L 58.683626 129.43809 
L 59.381873 127.649814 
L 59.713048 126.77697 
L 60.842209 124.11585 
L 61.167473 123.426315 
L 62.087788 121.45473 
L 62.953073 119.800345 
L 63.479123 118.79361 
L 64.738673 116.600923 
L 65.009316 116.13249 
L 66.559985 113.644634 
L 66.66918 113.47137 
L 68.345585 110.949439 
L 68.439487 110.81025 
L 70.131185 108.387775 
L 70.300468 108.14913 
L 71.916785 105.911547 
L 72.22704 105.48801 
L 73.738097 103.437606 
L 74.193466 102.82689 
L 75.523697 101.029689 
L 76.16887 100.16577 
L 77.309297 98.611431 
L 78.124568 97.50465 
L 79.094897 96.150352 
L 80.027977 94.84353 
L 80.916209 93.552887 
L 81.848347 92.18241 
L 82.701809 90.863514 
L 83.552605 89.52129 
L 84.487409 87.934847 
L 85.362607 86.41665 
L 86.273009 84.697023 
L 86.750234 83.75553 
L 87.9927 81.09441 
L 88.094321 80.855415 
L 89.066316 78.43329 
L 89.879921 76.272619 
L 90.057496 75.77217 
L 90.940652 73.11105 
L 91.665521 70.90862 
L 91.80803 70.44993 
L 92.637574 67.78881 
L 93.451121 65.369211 
L 93.528554 65.12769 
L 94.442007 62.46657 
L 95.272433 60.339771 
L 95.474643 59.80545 
L 96.594616 57.14433 
L 97.058033 56.164051 
L 97.842183 54.48321 
L 98.843633 52.570055 
L 99.2336 51.82209 
L 100.629233 49.390661 
L 100.761418 49.16097 
L 102.41355 46.49985 
L 102.450545 46.443142 
L 104.236145 43.745431 
L 104.474345 43.39521 
L 106.021745 41.193004 
L 106.349187 40.73409 
L 107.807345 38.736203 
L 108.299157 38.07297 
L 109.628657 36.304232 
L 110.310924 35.41185 
L 111.414257 33.974247 
L 112.371324 32.75073 
L 113.199857 31.689873 
L 114.475607 30.08961 
L 114.985457 29.446761 
L 116.621178 27.42849 
L 116.806769 27.198184 
L 118.592369 25.01236 
L 118.795709 24.76737 
L 120.377969 22.845899 
L 121.00465 22.10625 
" clip-path="url(#p6f0c7999d7)" style="fill: none; stroke: #dbe9f6; stroke-width: 1.5"/>
    <path d="M 130.889838 288.21825 
L 130.129063 285.55713 
L 129.341681 281.207392 
L 129.194991 280.23489 
L 128.961721 277.57377 
L 128.890782 274.91265 
L 128.976124 272.25153 
L 129.341681 268.770705 
L 129.598169 266.92929 
L 130.230975 263.82465 
L 131.162993 260.592028 
L 131.844517 258.50241 
L 132.948593 255.767174 
L 134.734193 251.982368 
L 136.519793 248.727899 
L 138.341105 245.75338 
L 140.479765 242.53569 
L 144.319375 237.21345 
L 149.090417 231.003786 
L 159.875441 217.572712 
L 188.587889 182.384806 
L 201.122801 166.88545 
L 238.834673 120.195623 
L 246.818047 110.81025 
L 251.584964 105.48801 
L 256.762097 99.880585 
L 269.332721 86.320759 
L 273.753988 81.09441 
L 277.850877 75.77217 
L 280.082033 72.533811 
L 281.903345 69.593678 
L 283.688945 66.289005 
L 284.254397 65.12769 
L 285.474545 62.311339 
L 287.260145 57.068342 
L 289.289477 49.16097 
L 290.867057 43.134735 
L 291.572744 40.73409 
L 293.519215 35.41185 
L 294.710561 32.75073 
L 296.259569 29.714206 
L 298.045169 26.611277 
L 299.830769 23.829852 
L 301.019065 22.10625 
L 301.019065 22.10625 
" clip-path="url(#p6f0c7999d7)" style="fill: none; stroke: #dbe9f6; stroke-width: 1.5"/>
    <path d="M 219.634772 22.10625 
L 219.818097 24.76737 
L 219.730945 27.42849 
L 219.381856 30.08961 
L 218.795491 32.75073 
L 217.984316 35.41185 
L 216.94037 38.07297 
L 215.479025 41.136764 
L 213.693425 44.38273 
L 211.907825 47.284549 
L 208.838133 51.82209 
L 204.729713 57.379352 
L 197.551601 66.562471 
L 165.232241 106.510788 
L 157.372673 116.13249 
L 150.876017 124.47438 
L 147.304817 129.495034 
L 145.519217 132.275591 
L 143.697905 135.396472 
L 141.912305 138.92975 
L 140.067278 143.18721 
L 138.175459 148.50945 
L 135.577166 156.49281 
L 133.588593 161.81505 
L 131.162993 167.104127 
L 129.748995 169.79841 
L 127.556081 173.494913 
L 125.770481 176.255692 
L 122.163569 181.352986 
L 116.417967 188.86977 
L 109.628657 197.391136 
L 92.916691 218.14209 
L 82.701809 230.730626 
L 75.000604 239.87457 
L 71.916785 243.333988 
L 66.559985 248.859803 
L 62.953073 252.160431 
L 59.381873 255.031574 
L 55.774961 257.506327 
L 52.203761 259.515646 
L 50.382449 260.369326 
L 46.811249 261.72625 
L 43.204337 262.69628 
L 39.633137 263.233407 
L 36.026225 263.381156 
L 34.240625 263.309149 
L 34.240625 263.309149 
" clip-path="url(#p6f0c7999d7)" style="fill: none; stroke: #dbe9f6; stroke-width: 1.5"/>
    <path d="M 313.34832 288.21825 
L 313.160751 285.55713 
L 313.245756 282.89601 
L 313.593707 280.23489 
L 314.186993 277.653352 
L 314.204402 277.57377 
L 315.019036 274.91265 
L 315.972593 272.54482 
L 316.087956 272.25153 
L 317.33934 269.59041 
L 317.793905 268.754791 
L 318.781528 266.92929 
L 319.579505 265.605043 
L 320.670119 263.82465 
L 321.365105 262.769152 
L 322.430304 261.16353 
L 323.150705 260.128981 
L 324.294707 258.50241 
L 324.972017 257.570043 
L 326.243462 255.84129 
L 326.757617 255.154284 
L 328.257361 253.18017 
L 328.543217 252.806783 
L 330.323654 250.51905 
L 330.328817 250.512418 
L 332.150129 248.183148 
L 332.408415 247.85793 
L 333.935729 245.925161 
L 334.521229 245.19681 
L 335.721329 243.68992 
L 336.656812 242.53569 
L 337.506929 241.473649 
L 338.809133 239.87457 
L 339.328241 239.228991 
L 340.978554 237.21345 
L 341.113841 237.045744 
L 342.899441 234.852279 
L 343.147157 234.55233 
L 344.685041 232.666217 
L 345.331408 231.89121 
L 346.506353 230.467922 
L 347.555887 229.23009 
L 348.291953 228.352181 
L 349.836626 226.56897 
L 350.077553 226.287668 
L 351.863153 224.252767 
L 352.174792 223.90785 
L 353.684465 222.208248 
L 355.018735 220.80321 
L 355.470065 220.317735 
L 357.255665 218.479079 
L 357.597211 218.14209 
L 359.041265 216.695641 
L 360.347937 215.48097 
L 360.862577 214.994407 
L 362.648177 213.404711 
L 363.355905 212.81985 
L 364.433777 211.908811 
L 366.219377 210.536766 
L 366.752501 210.15873 
L 368.040689 209.21906 
L 369.826289 208.059367 
L 370.793471 207.49761 
L 371.611889 207.002218 
L 373.397489 206.039423 
L 375.218801 205.200077 
L 376.130692 204.83649 
L 377.004401 204.465983 
L 378.790001 203.820296 
L 380.575601 203.293092 
L 382.396913 202.868098 
L 384.182513 202.555107 
L 385.968113 202.339983 
L 387.753713 202.219876 
L 389.575025 202.194194 
L 391.360625 202.264773 
" clip-path="url(#p6f0c7999d7)" style="fill: none; stroke: #dbe9f6; stroke-width: 1.5"/>
    <path d="M 380.088997 22.10625 
L 380.27261 24.76737 
L 380.188972 27.42849 
L 379.847873 30.08961 
L 379.248528 32.75073 
L 378.413517 35.41185 
L 377.004401 38.810435 
L 375.218801 42.343607 
L 374.646208 43.39521 
L 371.611889 48.211595 
L 369.089047 51.82209 
L 365.047964 57.14433 
L 360.711554 62.46657 
L 355.470065 68.567092 
L 346.407112 78.43329 
L 333.75001 92.18241 
L 329.340378 97.50465 
L 325.36439 102.82689 
L 323.150705 106.190993 
L 321.365105 109.262072 
L 319.579505 112.858489 
L 319.304867 113.47137 
L 317.793905 117.416671 
L 316.559785 121.45473 
L 315.206649 126.77697 
L 313.871444 132.09921 
L 312.148295 137.86497 
L 310.615793 141.902226 
L 310.091089 143.18721 
L 307.456195 148.50945 
L 305.223281 152.297158 
L 302.475134 156.49281 
L 298.635641 161.81505 
L 294.438257 167.288187 
L 285.474545 178.554974 
L 264.377109 204.83649 
L 258.229631 212.81985 
L 254.475535 218.14209 
L 252.765178 220.80321 
L 250.952738 223.90785 
L 249.555212 226.56897 
L 247.798385 230.523578 
L 246.012785 235.298987 
L 240.970542 250.51905 
L 238.760847 255.84129 
L 236.277097 261.16353 
L 232.197054 269.59041 
L 229.895588 274.91265 
L 228.049649 279.811509 
L 224.998492 288.21825 
L 224.998492 288.21825 
" clip-path="url(#p6f0c7999d7)" style="fill: none; stroke: #dbe9f6; stroke-width: 1.5"/>
   </g>
   <g id="PathCollection_3">
    <path d="M 34.240625 189.557398 
L 34.781886 188.86977 
L 36.026225 187.292981 
L 36.889057 186.20865 
L 37.847537 185.003356 
L 39.01426 183.54753 
L 39.633137 182.771347 
L 41.146998 180.88641 
L 41.418737 180.545093 
L 43.204337 178.312716 
L 43.274179 178.22529 
L 45.025649 175.999877 
L 45.723454 175.12065 
L 46.811249 173.723285 
L 47.795609 172.45953 
L 48.596849 171.410611 
L 49.825927 169.79841 
L 50.382449 169.050268 
L 51.797141 167.13729 
L 52.203761 166.570129 
L 53.689212 164.47617 
L 53.989361 164.035227 
L 55.47665 161.81505 
L 55.774961 161.345315 
L 57.135483 159.15393 
L 57.560561 158.421797 
L 58.647744 156.49281 
L 59.381873 155.081939 
L 60.009909 153.83169 
L 61.167473 151.310378 
L 61.229265 151.17057 
L 62.295735 148.50945 
L 62.953073 146.729672 
L 63.266018 145.84833 
L 64.150166 143.18721 
L 64.738673 141.364345 
L 65.000435 140.52609 
L 65.834745 137.86497 
L 66.559985 135.675943 
L 66.71317 135.20385 
L 67.806039 132.09921 
L 68.345585 130.732037 
L 68.853669 129.43809 
L 70.028172 126.77697 
L 70.131185 126.564858 
L 71.329444 124.11585 
L 71.916785 123.031945 
L 72.782882 121.45473 
L 73.738097 119.856083 
L 74.3839 118.79361 
L 75.523697 117.03274 
L 76.11751 116.13249 
L 77.309297 114.40259 
L 77.962537 113.47137 
L 79.094897 111.898841 
L 79.890886 110.81025 
L 80.916209 109.425232 
L 81.872157 108.14913 
L 82.701809 107.040766 
L 83.873522 105.48801 
L 84.487409 104.665345 
L 85.863864 102.82689 
L 86.273009 102.268853 
L 87.810989 100.16577 
L 88.094321 99.766287 
L 89.683925 97.50465 
L 89.879921 97.213499 
L 91.450088 94.84353 
L 91.665521 94.499406 
L 93.081948 92.18241 
L 93.451121 91.533979 
L 94.561091 89.52129 
L 95.272433 88.10508 
L 96.090135 86.41665 
L 97.058033 84.199269 
L 97.24371 83.75553 
L 98.251711 81.09441 
L 98.843633 79.399303 
L 99.166406 78.43329 
L 100.003191 75.77217 
L 100.629233 73.745234 
L 100.817686 73.11105 
L 101.62036 70.44993 
L 102.450545 67.887811 
L 102.481771 67.78881 
L 103.389797 65.12769 
L 104.236145 62.935648 
L 104.414977 62.46657 
L 105.546541 59.80545 
L 106.021745 58.809337 
L 106.815732 57.14433 
L 107.807345 55.277982 
L 108.231769 54.48321 
L 109.628657 52.095187 
L 109.789881 51.82209 
L 111.414257 49.257779 
L 111.476323 49.16097 
L 113.199857 46.609877 
L 113.275167 46.49985 
L 114.985457 44.08529 
L 115.485644 43.39521 
L 116.806769 41.611657 
L 117.465237 40.73409 
L 118.592369 39.252615 
L 119.502244 38.07297 
L 120.377969 36.946478 
L 121.588436 35.41185 
L 122.163569 34.685631 
L 123.719819 32.75073 
L 123.984881 32.422131 
L 125.770481 30.23883 
L 125.893736 30.08961 
L 127.556081 28.081373 
L 128.108071 27.42849 
L 129.341681 25.972592 
L 130.389114 24.76737 
L 131.162993 23.880662 
L 132.761618 22.10625 
" clip-path="url(#p6f0c7999d7)" style="fill: none; stroke: #bad6eb; stroke-width: 1.5"/>
    <path d="M 140.986838 288.21825 
L 140.001436 285.55713 
L 139.255938 282.89601 
L 138.751735 280.23489 
L 138.459996 277.57377 
L 138.362316 274.91265 
L 138.448805 272.25153 
L 138.716756 269.59041 
L 139.169695 266.92929 
L 140.126705 263.261414 
L 140.795361 261.16353 
L 141.912305 258.363214 
L 143.697905 254.633731 
L 145.519217 251.379734 
L 147.304817 248.521219 
L 149.557738 245.19681 
L 153.465889 239.87457 
L 158.054129 233.975985 
L 167.053553 222.839864 
L 203.991942 178.22529 
L 235.227761 139.446776 
L 246.012785 126.297917 
L 251.369585 120.066276 
L 256.762097 114.234311 
L 262.154609 108.866744 
L 269.332721 102.29899 
L 278.296433 94.337365 
L 281.903345 90.864209 
L 283.688945 89.019938 
L 287.260145 84.953651 
L 289.081457 82.625167 
L 290.867057 80.104493 
L 292.652657 77.241909 
L 293.47758 75.77217 
L 294.770977 73.11105 
L 296.259569 69.216963 
L 296.712673 67.78881 
L 297.409055 65.12769 
L 298.438238 59.80545 
L 300.125528 49.16097 
L 300.675276 46.49985 
L 301.616369 42.929618 
L 302.294489 40.73409 
L 303.437681 37.730439 
L 305.223281 33.878799 
L 305.79885 32.75073 
L 307.340525 30.08961 
L 309.073707 27.42849 
L 311.002553 24.76737 
L 313.138773 22.10625 
L 313.138773 22.10625 
" clip-path="url(#p6f0c7999d7)" style="fill: none; stroke: #bad6eb; stroke-width: 1.5"/>
    <path d="M 208.693452 22.10625 
L 209.043624 24.76737 
L 209.047743 27.42849 
L 208.733442 30.08961 
L 208.12573 32.75073 
L 207.262027 35.41185 
L 206.146276 38.07297 
L 204.729713 40.885061 
L 202.944113 43.981969 
L 199.546038 49.16097 
L 195.661084 54.48321 
L 189.448439 62.46657 
L 177.802865 76.991618 
L 163.180906 94.84353 
L 152.697329 107.37305 
L 147.304817 113.898218 
L 143.436679 118.79361 
L 139.535976 124.11585 
L 136.519793 128.741686 
L 134.592066 132.09921 
L 132.948593 135.410711 
L 130.84251 140.52609 
L 129.03484 145.84833 
L 126.464477 153.83169 
L 124.433325 159.15393 
L 122.163569 163.968646 
L 121.906311 164.47617 
L 120.377969 167.211089 
L 118.592369 170.115194 
L 114.985457 175.364407 
L 110.826132 180.88641 
L 104.236145 189.194078 
L 73.738097 226.812898 
L 68.345585 233.094426 
L 64.511301 237.21345 
L 61.167473 240.51273 
L 57.560561 243.676999 
L 53.989361 246.358955 
L 50.382449 248.573171 
L 48.596849 249.480375 
L 45.025649 250.899441 
L 43.204337 251.428075 
L 41.418737 251.808455 
L 39.633137 252.053217 
L 37.847537 252.161066 
L 36.026225 252.126332 
L 34.240625 251.944309 
L 34.240625 251.944309 
" clip-path="url(#p6f0c7999d7)" style="fill: none; stroke: #bad6eb; stroke-width: 1.5"/>
    <path d="M 324.854316 288.21825 
L 324.455771 285.55713 
L 324.429368 282.89601 
L 324.741435 280.23489 
L 324.972017 279.25158 
L 325.356782 277.57377 
L 326.251208 274.91265 
L 326.757617 273.740885 
L 327.397355 272.25153 
L 328.543217 270.025874 
L 328.76732 269.59041 
L 330.323358 266.92929 
L 330.328817 266.92074 
L 332.150129 264.092034 
L 332.324229 263.82465 
L 333.935729 261.498835 
L 334.169716 261.16353 
L 335.721329 259.027567 
L 336.105938 258.50241 
L 337.506929 256.639659 
L 338.112588 255.84129 
L 339.328241 254.266385 
L 340.174398 253.18017 
L 341.113841 251.984986 
L 342.277562 250.51905 
L 342.899441 249.738103 
L 344.41203 247.85793 
L 344.685041 247.518158 
L 346.506353 245.272058 
L 346.567613 245.19681 
L 348.291953 243.073476 
L 348.73359 242.53569 
L 350.077553 240.893999 
L 350.923591 239.87457 
L 351.863153 238.739744 
L 353.148704 237.21345 
L 353.684465 236.577322 
L 355.428403 234.55233 
L 355.470065 234.503985 
L 357.255665 232.46729 
L 357.776185 231.89121 
L 359.041265 230.496719 
L 360.236547 229.23009 
L 360.862577 228.569473 
L 362.648177 226.767681 
L 362.853045 226.56897 
L 364.433777 225.041391 
L 365.687152 223.90785 
L 366.219377 223.424983 
L 368.040689 221.877085 
L 369.421824 220.80321 
L 369.826289 220.48695 
L 371.611889 219.198336 
L 373.251324 218.14209 
L 373.397489 218.047238 
L 375.218801 216.981249 
L 377.004401 216.079472 
L 378.392347 215.48097 
L 378.790001 215.306883 
L 380.575601 214.652942 
L 382.396913 214.127887 
L 384.182513 213.749541 
L 385.968113 213.5057 
L 387.753713 213.397967 
L 389.575025 213.432283 
L 391.360625 213.613631 
" clip-path="url(#p6f0c7999d7)" style="fill: none; stroke: #bad6eb; stroke-width: 1.5"/>
    <path d="M 368.587397 22.10625 
L 368.983296 24.76737 
L 369.008546 27.42849 
L 368.697251 30.08961 
L 368.040689 32.842734 
L 367.177958 35.41185 
L 366.018525 38.07297 
L 364.433777 41.083763 
L 362.648177 44.039411 
L 360.862577 46.721623 
L 357.091003 51.82209 
L 352.714934 57.14433 
L 350.077553 60.120156 
L 345.316208 65.12769 
L 342.619451 67.78881 
L 339.328241 70.908219 
L 332.150129 77.330984 
L 327.861718 81.09441 
L 322.224193 86.41665 
L 319.290749 89.52129 
L 315.972593 93.475775 
L 314.186993 95.869164 
L 312.401393 98.542766 
L 310.615793 101.645854 
L 310.007774 102.82689 
L 308.794481 105.578838 
L 307.859523 108.14913 
L 307.008881 111.101743 
L 305.948519 116.13249 
L 303.437681 130.922468 
L 303.175223 132.09921 
L 302.319006 135.20385 
L 301.419182 137.86497 
L 299.830769 141.693753 
L 299.144318 143.18721 
L 297.750858 145.84833 
L 296.199509 148.50945 
L 292.652657 153.900058 
L 288.824691 159.15393 
L 282.629815 167.13729 
L 271.118321 181.477029 
L 253.190897 203.911543 
L 249.583985 208.675536 
L 246.012785 213.731625 
L 243.2324 218.14209 
L 241.752878 220.80321 
L 240.224643 223.90785 
L 238.834673 227.192575 
L 237.013361 232.33651 
L 233.015414 245.19681 
L 231.000982 250.51905 
L 228.049649 257.04135 
L 222.126097 269.59041 
L 220.008517 274.91265 
L 215.980715 285.55713 
L 214.775275 288.21825 
L 214.775275 288.21825 
" clip-path="url(#p6f0c7999d7)" style="fill: none; stroke: #bad6eb; stroke-width: 1.5"/>
    <path d="M 391.360625 275.926503 
L 390.03243 277.57377 
L 389.575025 278.13729 
L 387.844615 280.23489 
L 387.753713 280.344382 
L 385.968113 282.470576 
L 385.60425 282.89601 
L 384.182513 284.545291 
L 383.287425 285.55713 
L 382.396913 286.554815 
L 380.86195 288.21825 
" clip-path="url(#p6f0c7999d7)" style="fill: none; stroke: #bad6eb; stroke-width: 1.5"/>
   </g>
   <g id="PathCollection_4">
    <path d="M 34.240625 202.102403 
L 38.112707 196.85313 
L 45.025649 188.031055 
L 55.774961 174.394801 
L 59.381873 169.491646 
L 62.953073 164.153837 
L 64.738673 161.135619 
L 66.559985 157.648224 
L 67.115195 156.49281 
L 68.345585 153.635631 
L 70.209306 148.50945 
L 74.455416 135.20385 
L 75.668716 132.09921 
L 77.309297 128.51468 
L 79.094897 125.155024 
L 80.916209 122.135105 
L 83.150777 118.79361 
L 87.064111 113.47137 
L 95.272433 102.578095 
L 98.677641 97.50465 
L 100.629233 94.162585 
L 102.450545 90.558321 
L 102.92863 89.52129 
L 104.236145 86.306945 
L 106.021745 80.952217 
L 109.908474 67.78881 
L 111.414257 63.823785 
L 111.974734 62.46657 
L 113.217174 59.80545 
L 114.985457 56.47465 
L 116.806769 53.411383 
L 119.605183 49.16097 
L 123.806722 43.39521 
L 127.941784 38.07297 
L 132.948593 31.947986 
L 136.869854 27.42849 
L 140.126705 23.922993 
L 141.937036 22.10625 
L 141.937036 22.10625 
" clip-path="url(#p6f0c7999d7)" style="fill: none; stroke: #89bedc; stroke-width: 1.5"/>
    <path d="M 148.950941 288.21825 
L 147.304817 284.646915 
L 146.678979 282.89601 
L 146.019935 280.23489 
L 145.629654 277.57377 
L 145.519217 273.669619 
L 145.561362 272.25153 
L 145.858626 269.59041 
L 146.371505 266.92929 
L 147.304817 263.660991 
L 148.211839 261.16353 
L 149.388438 258.50241 
L 150.876017 255.631795 
L 152.697329 252.54535 
L 155.821528 247.85793 
L 159.875441 242.380532 
L 166.057057 234.55233 
L 172.625044 226.56897 
L 179.748506 218.14209 
L 186.766577 210.084656 
L 198.276192 196.85313 
L 208.300913 184.761856 
L 219.085937 171.415397 
L 244.191473 140.308407 
L 251.369585 131.676115 
L 255.666842 126.77697 
L 258.547697 123.691908 
L 262.154609 120.130719 
L 265.725809 116.950957 
L 269.332721 114.10029 
L 272.903921 111.639499 
L 276.510833 109.533829 
L 280.082033 107.871241 
L 281.903345 107.214863 
L 283.688945 106.731474 
L 285.474545 106.448735 
L 287.260145 106.439768 
L 289.081457 106.849616 
L 291.089569 108.14913 
L 292.652657 110.254929 
L 292.917361 110.81025 
L 293.888603 113.47137 
L 294.52255 116.13249 
L 294.904281 118.79361 
L 295.115809 121.45473 
L 295.165077 124.11585 
L 295.049715 126.77697 
L 294.76194 129.43809 
L 294.288028 132.09921 
L 293.483699 135.20385 
L 292.579978 137.86497 
L 290.867057 141.748946 
L 289.081457 145.106612 
L 287.260145 148.107356 
L 285.220969 151.17057 
L 281.360865 156.49281 
L 275.163788 164.47617 
L 255.573657 188.86977 
L 246.012785 200.916478 
L 242.405873 205.730519 
L 238.834673 210.887626 
L 236.037792 215.48097 
L 234.630255 218.14209 
L 233.38326 220.80321 
L 231.656561 225.212346 
L 230.350276 229.23009 
L 225.589034 245.19681 
L 223.468805 250.51905 
L 220.871537 256.121317 
L 217.181862 263.82465 
L 214.710655 269.59041 
L 211.683144 277.57377 
L 209.53927 282.89601 
L 208.264461 285.55713 
L 206.763377 288.21825 
L 206.763377 288.21825 
" clip-path="url(#p6f0c7999d7)" style="fill: none; stroke: #89bedc; stroke-width: 1.5"/>
    <path d="M 199.880817 22.10625 
L 200.506672 24.76737 
L 200.684816 27.42849 
L 200.473159 30.08961 
L 199.916099 32.75073 
L 199.052717 35.41185 
L 197.551601 38.807615 
L 195.766001 42.123606 
L 193.944689 45.084281 
L 191.188224 49.16097 
L 186.766577 55.098506 
L 178.840832 65.12769 
L 167.053553 79.69567 
L 158.054129 90.454034 
L 149.090417 100.781558 
L 141.912305 109.042557 
L 138.242771 113.47137 
L 134.143614 118.79361 
L 131.162993 123.098489 
L 128.895429 126.77697 
L 127.450365 129.43809 
L 125.770481 133.018804 
L 123.984881 137.546582 
L 122.978988 140.52609 
L 119.643881 151.17057 
L 117.617429 156.49281 
L 116.407358 159.15393 
L 114.985457 161.916602 
L 113.199857 164.981174 
L 111.414257 167.745382 
L 107.807345 172.772124 
L 102.450545 179.604375 
L 75.523697 212.83846 
L 68.345585 221.503325 
L 63.93124 226.56897 
L 61.167473 229.532528 
L 57.560561 233.038204 
L 53.989361 236.038134 
L 52.203761 237.346296 
L 50.382449 238.521686 
L 47.896034 239.87457 
L 46.811249 240.389323 
L 45.025649 241.079509 
L 43.204337 241.615487 
L 41.418737 241.966884 
L 39.633137 242.133336 
L 37.847537 242.098777 
L 36.026225 241.835739 
L 34.240625 241.329783 
L 34.240625 241.329783 
" clip-path="url(#p6f0c7999d7)" style="fill: none; stroke: #89bedc; stroke-width: 1.5"/>
    <path d="M 335.167202 288.21825 
L 334.263336 285.55713 
L 333.935729 282.923435 
L 333.932576 282.89601 
L 333.935729 282.838534 
L 334.077666 280.23489 
L 334.620136 277.57377 
L 335.496544 274.91265 
L 335.721329 274.400054 
L 336.665945 272.25153 
L 337.506929 270.658868 
L 338.073392 269.59041 
L 339.328241 267.504081 
L 339.675408 266.92929 
L 341.113841 264.763733 
L 341.739072 263.82465 
L 342.899441 262.193534 
L 343.634884 261.16353 
L 344.685041 259.753364 
L 345.620036 258.50241 
L 346.506353 257.351201 
L 347.672906 255.84129 
L 348.291953 255.056323 
L 349.77661 253.18017 
L 350.077553 252.805033 
L 351.863153 250.587981 
L 351.91888 250.51905 
L 353.684465 248.35838 
L 354.095001 247.85793 
L 355.470065 246.19667 
L 356.30297 245.19681 
L 357.255665 244.06367 
L 358.55405 242.53569 
L 359.041265 241.968707 
L 360.862577 239.88461 
L 360.871525 239.87457 
L 362.648177 237.917761 
L 363.305382 237.21345 
L 364.433777 236.029067 
L 365.895222 234.55233 
L 366.219377 234.231759 
L 368.040689 232.517683 
L 368.745479 231.89121 
L 369.826289 230.953854 
L 371.611889 229.514474 
L 371.99531 229.23009 
L 373.397489 228.215719 
L 375.218801 227.03233 
L 376.027881 226.56897 
L 377.004401 226.02232 
L 378.790001 225.1715 
L 380.575601 224.474749 
L 382.396913 223.930446 
L 382.511215 223.90785 
L 384.182513 223.585537 
L 385.968113 223.424126 
L 387.753713 223.457785 
L 389.575025 223.709532 
L 390.327524 223.90785 
L 391.360625 224.212371 
" clip-path="url(#p6f0c7999d7)" style="fill: none; stroke: #89bedc; stroke-width: 1.5"/>
    <path d="M 358.261119 22.10625 
L 359.041265 24.359673 
L 359.168525 24.76737 
L 359.486809 27.42849 
L 359.338917 30.08961 
L 359.041265 31.528229 
L 358.78821 32.75073 
L 357.889887 35.41185 
L 357.255665 36.827169 
L 356.69316 38.07297 
L 355.470065 40.317416 
L 355.240488 40.73409 
L 353.684465 43.208252 
L 353.565169 43.39521 
L 351.863153 45.80311 
L 351.3619 46.49985 
L 350.077553 48.156791 
L 349.280859 49.16097 
L 348.291953 50.346131 
L 347.024206 51.82209 
L 346.506353 52.402956 
L 344.685041 54.374475 
L 344.580533 54.48321 
L 342.899441 56.184978 
L 341.907321 57.14433 
L 341.113841 57.899858 
L 339.328241 59.512516 
L 338.983617 59.80545 
L 337.506929 61.056912 
L 335.735602 62.46657 
L 335.721329 62.478046 
L 333.935729 63.804379 
L 332.150129 65.038382 
L 332.006501 65.12769 
L 330.328817 66.202819 
L 328.543217 67.244779 
L 327.491983 67.78881 
L 326.757617 68.188619 
L 324.972017 69.023138 
L 323.150705 69.747542 
L 321.365105 70.314558 
L 320.70764 70.44993 
L 319.579505 70.706317 
L 317.793905 70.864822 
L 315.972593 70.686253 
L 315.289462 70.44993 
L 314.186993 69.98956 
L 312.401393 68.39602 
L 311.994497 67.78881 
L 310.684591 65.12769 
L 310.615793 64.939448 
L 309.932787 62.46657 
L 309.435744 59.80545 
L 309.13248 57.14433 
L 309.002063 54.48321 
L 309.039925 51.82209 
L 309.250227 49.16097 
L 309.641733 46.49985 
L 310.342444 43.39521 
L 310.615793 42.517612 
L 311.176058 40.73409 
L 312.226675 38.07297 
L 312.401393 37.705705 
L 313.513382 35.41185 
L 314.186993 34.217644 
L 315.035194 32.75073 
L 315.972593 31.318309 
L 316.80189 30.08961 
L 317.793905 28.762063 
L 318.828745 27.42849 
L 319.579505 26.539841 
L 321.148313 24.76737 
L 321.365105 24.539689 
L 323.150705 22.762943 
L 323.853958 22.10625 
" clip-path="url(#p6f0c7999d7)" style="fill: none; stroke: #89bedc; stroke-width: 1.5"/>
    <path d="M 391.360625 263.433725 
L 391.086209 263.82465 
L 389.575025 265.882444 
L 388.802326 266.92929 
L 387.753713 268.30383 
L 386.766471 269.59041 
L 385.968113 270.606801 
L 384.667723 272.25153 
L 384.182513 272.852967 
L 382.50663 274.91265 
L 382.396913 275.044974 
L 380.575601 277.215176 
L 380.27109 277.57377 
L 378.790001 279.278757 
L 377.945417 280.23489 
L 377.004401 281.274428 
L 375.500812 282.89601 
L 375.218801 283.191937 
L 373.397489 285.041268 
L 372.870507 285.55713 
L 371.611889 286.744204 
L 369.965719 288.21825 
" clip-path="url(#p6f0c7999d7)" style="fill: none; stroke: #89bedc; stroke-width: 1.5"/>
   </g>
   <g id="PathCollection_5">
    <path d="M 156.755679 288.21825 
L 154.913416 285.55713 
L 153.602889 282.89601 
L 152.697329 280.188091 
L 152.168957 277.57377 
L 151.937888 274.91265 
L 151.988013 272.25153 
L 152.301921 269.59041 
L 152.868853 266.92929 
L 153.837542 263.82465 
L 154.9202 261.16353 
L 156.268529 258.41585 
L 158.054129 255.30695 
L 159.875441 252.475946 
L 163.446641 247.472258 
L 168.839153 240.567834 
L 174.231665 234.013033 
L 181.409777 225.659997 
L 186.766577 219.723164 
L 193.944689 212.176871 
L 203.536357 202.17537 
L 208.30286 196.85313 
L 213.693425 190.591783 
L 222.657137 179.688614 
L 237.053834 161.81505 
L 254.438884 140.52609 
L 259.148293 135.20385 
L 262.154609 132.067529 
L 265.725809 128.835366 
L 268.424307 126.77697 
L 269.332721 126.161984 
L 271.118321 125.117539 
L 273.23839 124.11585 
L 274.725233 123.620968 
L 276.510833 123.297765 
L 278.296433 123.316619 
L 280.082033 123.801038 
L 280.619966 124.11585 
L 281.903345 125.231603 
L 282.923914 126.77697 
L 283.743501 129.43809 
L 283.856957 132.09921 
L 283.42673 135.20385 
L 282.660876 137.86497 
L 281.609801 140.52609 
L 280.082033 143.550742 
L 278.296433 146.548292 
L 275.193818 151.17057 
L 271.118321 156.673567 
L 264.95426 164.47617 
L 253.190897 179.117746 
L 237.013361 199.629329 
L 233.339323 204.83649 
L 231.625498 207.49761 
L 229.835249 210.545276 
L 228.049649 214.041692 
L 227.389482 215.48097 
L 226.264049 218.313825 
L 225.397164 220.80321 
L 223.796682 226.56897 
L 220.548305 239.87457 
L 218.790957 245.19681 
L 216.610776 250.51905 
L 209.166547 266.92929 
L 203.905677 280.23489 
L 202.572761 282.89601 
L 200.965685 285.55713 
L 198.940372 288.21825 
L 198.940372 288.21825 
" clip-path="url(#p6f0c7999d7)" style="fill: none; stroke: #539ecd; stroke-width: 1.5"/>
    <path d="M 190.930995 22.10625 
L 192.159089 24.865975 
L 192.666798 27.42849 
L 192.676512 30.08961 
L 192.159089 33.072599 
L 191.4651 35.41185 
L 190.373489 38.078803 
L 188.587889 41.493946 
L 186.766577 44.494588 
L 184.980977 47.192124 
L 181.409777 52.126886 
L 175.43018 59.80545 
L 164.694517 73.11105 
L 157.995386 81.09441 
L 152.697329 87.140212 
L 147.304817 93.009118 
L 132.948593 108.163267 
L 129.341681 112.412124 
L 126.480162 116.13249 
L 123.984881 119.801338 
L 122.163569 122.840823 
L 121.457671 124.11585 
L 120.146064 126.77697 
L 118.592369 130.483808 
L 117.985621 132.09921 
L 116.170231 137.86497 
L 113.079184 148.50945 
L 111.414257 152.951954 
L 111.046417 153.83169 
L 109.628657 156.823552 
L 107.807345 160.07639 
L 106.021745 162.862659 
L 102.90614 167.13729 
L 100.629233 169.996437 
L 93.451121 178.498153 
L 84.487409 189.161634 
L 75.523697 200.181933 
L 68.345585 208.991085 
L 62.879016 215.48097 
L 57.997421 220.80321 
L 55.774961 222.954794 
L 53.989361 224.564277 
L 51.409006 226.56897 
L 50.382449 227.260943 
L 48.596849 228.294971 
L 46.591287 229.23009 
L 45.025649 229.711574 
L 43.204337 230.001565 
L 41.418737 229.965398 
L 39.633137 229.534581 
L 39.012685 229.23009 
L 37.847537 228.406059 
L 36.310399 226.56897 
L 36.026225 225.920703 
L 35.38905 223.90785 
L 35.237729 220.80321 
L 35.643251 218.14209 
L 36.45295 215.48097 
L 37.847537 212.302218 
L 39.633137 209.076207 
L 41.418737 206.247985 
L 44.241311 202.17537 
L 48.596849 196.394142 
L 54.556221 188.86977 
L 60.846059 180.88641 
L 64.738673 175.686484 
L 67.001043 172.45953 
L 70.131185 167.543656 
L 71.916785 164.32941 
L 73.738097 160.518402 
L 74.325133 159.15393 
L 76.240181 153.83169 
L 78.540629 145.84833 
L 80.111877 140.52609 
L 81.009433 137.86497 
L 82.701809 133.732851 
L 84.487409 130.118115 
L 86.273009 127.064346 
L 88.240138 124.11585 
L 91.665521 119.569579 
L 100.797138 108.14913 
L 104.236145 103.295795 
L 106.176656 100.16577 
L 107.807345 97.140271 
L 109.628657 93.074252 
L 109.983863 92.18241 
L 111.414257 87.868911 
L 112.528609 83.75553 
L 115.09458 73.11105 
L 116.74422 67.78881 
L 117.764646 65.12769 
L 118.934085 62.46657 
L 120.377969 59.599271 
L 122.163569 56.476151 
L 125.16544 51.82209 
L 129.003543 46.49985 
L 133.477186 40.73409 
L 138.341105 34.83232 
L 142.54323 30.08961 
L 145.519217 27.007788 
L 149.090417 23.708113 
L 151.034022 22.10625 
L 151.034022 22.10625 
" clip-path="url(#p6f0c7999d7)" style="fill: none; stroke: #539ecd; stroke-width: 1.5"/>
    <path d="M 320.840341 49.16097 
L 320.459205 46.49985 
L 320.699134 43.39521 
L 321.352634 40.73409 
L 321.365105 40.70259 
L 322.449849 38.07297 
L 323.150705 36.765165 
L 323.910444 35.41185 
L 324.972017 33.868118 
L 325.781359 32.75073 
L 326.757617 31.610702 
L 328.139889 30.08961 
L 328.543217 29.705021 
L 330.328817 28.158982 
L 331.26363 27.42849 
L 332.150129 26.826152 
L 333.935729 25.792393 
L 335.721329 24.932668 
L 336.192848 24.76737 
L 337.506929 24.373034 
L 339.328241 24.060303 
L 341.113841 24.012079 
L 342.899441 24.264159 
L 344.391047 24.76737 
L 344.685041 24.916485 
L 346.506353 26.485635 
L 347.233888 27.42849 
L 348.089184 30.08961 
L 348.011874 32.75073 
L 347.317764 35.41185 
L 346.506353 37.317405 
L 346.174791 38.07297 
L 344.685041 40.661045 
L 344.641595 40.73409 
L 342.899441 43.160314 
L 342.724471 43.39521 
L 341.113841 45.24692 
L 339.992358 46.49985 
L 339.328241 47.159491 
L 337.506929 48.847621 
L 337.133539 49.16097 
L 335.721329 50.246712 
L 333.935729 51.485438 
L 333.356177 51.82209 
L 332.150129 52.474048 
L 330.328817 53.24086 
L 328.543217 53.747547 
L 326.757617 53.933702 
L 324.972017 53.678957 
L 323.150705 52.765824 
L 322.173452 51.82209 
L 321.365105 50.483168 
L 320.840341 49.16097 
z
" clip-path="url(#p6f0c7999d7)" style="fill: none; stroke: #539ecd; stroke-width: 1.5"/>
    <path d="M 346.039182 282.89601 
L 345.200803 280.23489 
L 345.231537 277.57377 
L 345.837151 274.91265 
L 346.506353 273.155105 
L 346.854084 272.25153 
L 348.187081 269.59041 
L 348.291953 269.414765 
L 349.777938 266.92929 
L 350.077553 266.485462 
L 351.847027 263.82465 
L 351.863153 263.802435 
L 353.684465 261.297726 
L 353.781663 261.16353 
L 355.470065 258.967696 
L 355.825323 258.50241 
L 357.255665 256.713084 
L 357.947432 255.84129 
L 359.041265 254.512221 
L 360.131578 253.18017 
L 360.862577 252.313315 
L 362.371659 250.51905 
L 362.648177 250.200002 
L 364.433777 248.165247 
L 364.707403 247.85793 
L 366.219377 246.227126 
L 367.187574 245.19681 
L 368.040689 244.328277 
L 369.826289 242.559524 
L 369.852036 242.53569 
L 371.611889 241.004675 
L 372.980386 239.87457 
L 373.397489 239.551568 
L 375.218801 238.306174 
L 377.004401 237.219818 
L 377.017697 237.21345 
L 378.790001 236.434903 
L 380.575601 235.867571 
L 382.396913 235.563502 
L 384.182513 235.603075 
L 385.968113 236.068186 
L 387.753713 237.080051 
L 387.905272 237.21345 
L 389.575025 239.570854 
L 389.7251 239.87457 
L 390.337009 242.53569 
L 390.325347 245.19681 
L 389.851572 247.85793 
L 389.575025 248.714499 
L 388.97512 250.51905 
L 387.812865 253.18017 
L 387.753713 253.290366 
L 386.363239 255.84129 
L 385.968113 256.484163 
L 384.717625 258.50241 
L 384.182513 259.294651 
L 382.916897 261.16353 
L 382.396913 261.883423 
L 380.994977 263.82465 
L 380.575601 264.371751 
L 378.790001 266.720307 
L 378.631438 266.92929 
L 377.004401 268.946632 
L 376.486754 269.59041 
L 375.218801 271.094292 
L 374.241849 272.25153 
L 373.397489 273.205943 
L 371.877498 274.91265 
L 371.611889 275.196105 
L 369.826289 277.043365 
L 369.300458 277.57377 
L 368.040689 278.763588 
L 366.436386 280.23489 
L 366.219377 280.420306 
L 364.433777 281.823005 
L 362.980979 282.89601 
L 362.648177 283.120422 
L 360.862577 284.168165 
L 359.041265 285.095955 
L 357.913041 285.55713 
L 357.255665 285.794858 
L 355.470065 286.235179 
L 353.684465 286.455752 
L 351.863153 286.415056 
L 350.077553 286.065475 
L 348.788362 285.55713 
L 348.291953 285.262696 
L 346.506353 283.543986 
L 346.039182 282.89601 
z
" clip-path="url(#p6f0c7999d7)" style="fill: none; stroke: #539ecd; stroke-width: 1.5"/>
   </g>
   <g id="PathCollection_6">
    <path d="M 166.565093 288.21825 
L 165.232241 287.266785 
L 163.446641 285.744572 
L 163.25459 285.55713 
L 161.661041 283.585396 
L 161.170863 282.89601 
L 159.875441 280.388307 
L 159.803851 280.23489 
L 158.990857 277.57377 
L 158.594462 274.91265 
L 158.568861 272.25153 
L 158.876881 269.59041 
L 159.486637 266.92929 
L 159.875441 265.787131 
L 160.565998 263.82465 
L 161.661041 261.395404 
L 161.769254 261.16353 
L 163.220191 258.50241 
L 163.446641 258.130817 
L 164.880515 255.84129 
L 165.232241 255.320685 
L 166.712836 253.18017 
L 167.053553 252.711678 
L 168.678688 250.51905 
L 168.839153 250.309513 
L 170.624753 248.015547 
L 170.749534 247.85793 
L 172.410353 245.800154 
L 172.902995 245.19681 
L 174.231665 243.589823 
L 175.111659 242.53569 
L 176.017265 241.461902 
L 177.36739 239.87457 
L 177.802865 239.367076 
L 179.588465 237.30844 
L 179.672524 237.21345 
L 181.409777 235.266662 
L 182.055287 234.55233 
L 183.195377 233.301012 
L 184.499319 231.89121 
L 184.980977 231.373809 
L 186.766577 229.50269 
L 187.03608 229.23009 
L 188.587889 227.667315 
L 189.709278 226.56897 
L 190.373489 225.919217 
L 192.159089 224.2412 
L 192.534334 223.90785 
L 193.944689 222.653456 
L 195.766001 221.087004 
L 196.122582 220.80321 
L 197.551601 219.651569 
L 199.337201 218.277671 
L 199.534882 218.14209 
L 201.122801 217.014908 
L 202.944113 215.798938 
L 203.495908 215.48097 
L 204.729713 214.728039 
L 206.515313 213.77851 
L 208.300913 212.971501 
L 208.85211 212.81985 
L 210.122225 212.428497 
L 211.907825 212.329351 
L 213.105569 212.81985 
L 213.693425 213.240099 
L 214.723551 215.48097 
L 215.191253 218.14209 
L 215.350467 220.80321 
L 215.349715 223.90785 
L 215.244462 226.56897 
L 215.054622 229.23009 
L 214.776202 231.89121 
L 214.399251 234.55233 
L 213.912499 237.21345 
L 213.693425 238.149276 
L 213.28137 239.87457 
L 212.515841 242.53569 
L 211.907825 244.354458 
L 211.621015 245.19681 
L 210.596945 247.85793 
L 210.122225 248.991995 
L 209.476093 250.51905 
L 208.306405 253.18017 
L 208.300913 253.192265 
L 207.096936 255.84129 
L 206.515313 257.146174 
L 205.912181 258.50241 
L 204.779023 261.16353 
L 204.729713 261.283478 
L 203.687562 263.82465 
L 202.944113 265.749088 
L 202.488927 266.92929 
L 201.492984 269.59041 
L 201.122801 270.578134 
L 200.482366 272.25153 
L 199.419405 274.91265 
L 199.337201 275.101245 
L 198.209001 277.57377 
L 197.551601 278.841354 
L 196.779074 280.23489 
L 195.766001 281.798329 
L 194.986624 282.89601 
L 193.944689 284.140395 
L 192.608228 285.55713 
L 192.159089 285.964149 
L 190.373489 287.379965 
L 189.128718 288.21825 
" clip-path="url(#p6f0c7999d7)" style="fill: none; stroke: #2b7bba; stroke-width: 1.5"/>
    <path d="M 177.719961 22.10625 
L 177.802865 22.140748 
L 179.588465 23.1571 
L 181.409777 24.572848 
L 181.611966 24.76737 
L 183.195377 27.232598 
L 183.2983 27.42849 
L 183.922518 30.08961 
L 183.872626 32.75073 
L 183.32018 35.41185 
L 183.195377 35.754935 
L 182.351811 38.07297 
L 181.409777 40.053972 
L 181.086095 40.73409 
L 179.588465 43.375744 
L 179.57743 43.39521 
L 177.802865 46.131042 
L 177.566397 46.49985 
L 176.017265 48.699569 
L 175.693461 49.16097 
L 174.231665 51.128665 
L 173.718803 51.82209 
L 172.410353 53.523268 
L 171.676219 54.48321 
L 170.624753 55.819771 
L 169.589853 57.14433 
L 168.839153 58.085843 
L 167.477327 59.80545 
L 167.053553 60.332275 
L 165.346065 62.46657 
L 165.232241 62.607055 
L 163.446641 64.805185 
L 163.185262 65.12769 
L 161.661041 66.978247 
L 160.99517 67.78881 
L 159.875441 69.129726 
L 158.771915 70.44993 
L 158.054129 71.29555 
L 156.506377 73.11105 
L 156.268529 73.385848 
L 154.482929 75.418928 
L 154.168068 75.77217 
L 152.697329 77.396195 
L 151.744537 78.43329 
L 150.876017 79.367728 
L 149.240087 81.09441 
L 149.090417 81.251068 
L 147.304817 83.04705 
L 146.577941 83.75553 
L 145.519217 84.78291 
L 143.780002 86.41665 
L 143.697905 86.493765 
L 141.912305 88.06026 
L 140.206152 89.52129 
L 140.126705 89.589965 
L 138.341105 91.003622 
L 136.783291 92.18241 
L 136.519793 92.388074 
L 134.734193 93.634275 
L 132.948593 94.818428 
L 132.902967 94.84353 
L 131.162993 95.863111 
L 129.341681 96.818011 
L 127.745134 97.50465 
L 127.556081 97.594318 
L 125.770481 98.069374 
L 123.984881 98.058775 
L 122.994365 97.50465 
L 122.163569 96.624614 
L 121.533624 94.84353 
L 121.128036 92.18241 
L 120.988243 89.52129 
L 120.99595 86.41665 
L 121.104078 83.75553 
L 121.298245 81.09441 
L 121.585464 78.43329 
L 121.979141 75.77217 
L 122.163569 74.850943 
L 122.519698 73.11105 
L 123.211425 70.44993 
L 123.984881 68.004556 
L 124.054931 67.78881 
L 125.103972 65.12769 
L 125.770481 63.664688 
L 126.328904 62.46657 
L 127.556081 60.132624 
L 127.73155 59.80545 
L 129.306847 57.14433 
L 129.341681 57.09007 
L 131.03591 54.48321 
L 131.162993 54.298783 
L 132.883565 51.82209 
L 132.948593 51.732649 
L 134.734193 49.293153 
L 134.831364 49.16097 
L 136.519793 46.948109 
L 136.862255 46.49985 
L 138.341105 44.635002 
L 139.316681 43.39521 
L 140.126705 42.402113 
L 141.489531 40.73409 
L 141.912305 40.23204 
L 143.697905 38.1228 
L 143.74069 38.07297 
L 145.519217 36.077486 
L 146.118114 35.41185 
L 147.304817 34.148576 
L 148.639544 32.75073 
L 149.090417 32.301231 
L 150.876017 30.581216 
L 151.405908 30.08961 
L 152.697329 28.966054 
L 154.482929 27.482711 
L 154.552864 27.42849 
L 156.268529 26.200823 
L 158.054129 25.015599 
L 158.468685 24.76737 
L 159.875441 23.998077 
L 161.661041 23.139797 
L 163.446641 22.40014 
L 164.310475 22.10625 
" clip-path="url(#p6f0c7999d7)" style="fill: none; stroke: #2b7bba; stroke-width: 1.5"/>
    <path d="M 87.387169 159.15393 
L 87.083443 156.49281 
L 87.113438 153.83169 
L 87.32949 151.17057 
L 87.684892 148.50945 
L 88.094321 146.289393 
L 88.184858 145.84833 
L 88.916832 143.18721 
L 89.787725 140.52609 
L 89.879921 140.297211 
L 90.98607 137.86497 
L 91.665521 136.558378 
L 92.473543 135.20385 
L 93.451121 133.756334 
L 94.720516 132.09921 
L 95.272433 131.436314 
L 97.058033 129.586613 
L 97.239274 129.43809 
L 98.843633 128.145766 
L 100.629233 126.946527 
L 101.064623 126.77697 
L 102.450545 126.206154 
L 104.236145 126.148222 
L 105.11748 126.77697 
L 106.021745 128.34839 
L 106.261634 129.43809 
L 106.439389 132.09921 
L 106.336607 135.20385 
L 106.082183 137.86497 
L 106.021745 138.25398 
L 105.634585 140.52609 
L 105.043038 143.18721 
L 104.316043 145.84833 
L 104.236145 146.079455 
L 103.291832 148.50945 
L 102.450545 150.378082 
L 102.040028 151.17057 
L 100.629233 153.572625 
L 100.451335 153.83169 
L 98.843633 155.958803 
L 98.370055 156.49281 
L 97.058033 157.886942 
L 95.669407 159.15393 
L 95.272433 159.507772 
L 93.451121 160.762202 
L 91.665521 161.692933 
L 90.973552 161.81505 
L 89.879921 162.021775 
L 89.265541 161.81505 
L 88.094321 161.019326 
L 87.387169 159.15393 
z
" clip-path="url(#p6f0c7999d7)" style="fill: none; stroke: #2b7bba; stroke-width: 1.5"/>
   </g>
   <g id="PathCollection_7">
    <path d="M 134.432481 70.44993 
L 134.71968 67.78881 
L 134.734193 67.739106 
L 135.527878 65.12769 
L 136.519793 62.644837 
L 136.593234 62.46657 
L 137.989864 59.80545 
L 138.341105 59.219396 
L 139.59585 57.14433 
L 140.126705 56.34937 
L 141.371186 54.48321 
L 141.912305 53.733459 
L 143.281377 51.82209 
L 143.697905 51.278038 
L 145.303209 49.16097 
L 145.519217 48.892115 
L 147.304817 46.669446 
L 147.441468 46.49985 
L 149.090417 44.631025 
L 150.13248 43.39521 
L 150.876017 42.591645 
L 152.58516 40.73409 
L 152.697329 40.621464 
L 154.482929 38.934264 
L 155.403706 38.07297 
L 156.268529 37.348516 
L 158.054129 35.938064 
L 158.785725 35.41185 
L 159.875441 34.73201 
L 161.661041 33.783886 
L 163.446641 33.006576 
L 164.390202 32.75073 
L 165.232241 32.566026 
L 167.053553 32.510233 
L 168.207409 32.75073 
L 168.839153 33.007465 
L 170.624753 35.098404 
L 170.768419 35.41185 
L 170.807783 38.07297 
L 170.624753 38.691986 
L 170.019418 40.73409 
L 168.839153 43.327305 
L 168.808442 43.39521 
L 167.053553 46.324735 
L 166.953383 46.49985 
L 165.232241 49.025197 
L 165.141349 49.16097 
L 163.446641 51.44936 
L 163.176859 51.82209 
L 161.661041 53.76724 
L 161.116247 54.48321 
L 159.875441 56.022724 
L 158.990256 57.14433 
L 158.054129 58.277493 
L 156.814419 59.80545 
L 156.268529 60.448547 
L 154.580946 62.46657 
L 154.482929 62.578678 
L 152.697329 64.564297 
L 152.189776 65.12769 
L 150.876017 66.509856 
L 149.657089 67.78881 
L 149.090417 68.351039 
L 147.304817 70.048345 
L 146.850491 70.44993 
L 145.519217 71.550918 
L 143.697905 72.978277 
L 143.488809 73.11105 
L 141.912305 74.0405 
L 140.126705 74.857456 
L 138.341105 75.292359 
L 136.519793 74.975504 
L 134.807111 73.11105 
L 134.734193 72.807422 
L 134.432481 70.44993 
z
" clip-path="url(#p6f0c7999d7)" style="fill: none; stroke: #0b559f; stroke-width: 1.5"/>
    <path d="M 166.815643 274.91265 
L 166.541269 272.25153 
L 166.752602 269.59041 
L 167.053553 268.308563 
L 167.400938 266.92929 
L 168.627174 263.82465 
L 168.839153 263.411394 
L 170.056809 261.16353 
L 170.624753 260.252167 
L 171.768498 258.50241 
L 172.410353 257.604211 
L 173.721877 255.84129 
L 174.231665 255.19171 
L 175.860319 253.18017 
L 176.017265 252.992525 
L 177.802865 250.937531 
L 178.178169 250.51905 
L 179.588465 248.972378 
L 180.623471 247.85793 
L 181.409777 247.019843 
L 183.145448 245.19681 
L 183.195377 245.14502 
L 184.980977 243.402088 
L 185.885636 242.53569 
L 186.766577 241.70722 
L 188.587889 240.052093 
L 188.803419 239.87457 
L 190.373489 238.617314 
L 192.159089 237.246593 
L 192.212052 237.21345 
L 193.944689 236.170341 
L 195.766001 235.269253 
L 197.551601 234.695961 
L 199.337201 234.675717 
L 201.122801 235.765372 
L 201.976507 237.21345 
L 202.468582 239.87457 
L 202.323973 242.53569 
L 201.836466 245.19681 
L 201.157245 247.85793 
L 201.122801 247.963027 
L 200.270988 250.51905 
L 199.37029 253.18017 
L 199.337201 253.270795 
L 198.392094 255.84129 
L 197.551601 258.276416 
L 197.472845 258.50241 
L 196.535761 261.16353 
L 195.766001 263.494745 
L 195.654446 263.82465 
L 194.577889 266.92929 
L 193.944689 268.709938 
L 193.6155 269.59041 
L 192.51728 272.25153 
L 192.159089 273.008513 
L 191.17913 274.91265 
L 190.373489 276.228375 
L 189.449406 277.57377 
L 188.587889 278.602949 
L 186.993187 280.23489 
L 186.766577 280.424958 
L 184.980977 281.64931 
L 183.195377 282.59887 
L 182.408085 282.89601 
L 181.409777 283.207282 
L 179.588465 283.53521 
L 177.802865 283.620563 
L 176.017265 283.468352 
L 174.231665 283.071317 
L 173.747721 282.89601 
L 172.410353 282.274995 
L 170.624753 281.093624 
L 169.631809 280.23489 
L 168.839153 279.25136 
L 167.752784 277.57377 
L 167.053553 275.678881 
L 166.815643 274.91265 
z
" clip-path="url(#p6f0c7999d7)" style="fill: none; stroke: #0b559f; stroke-width: 1.5"/>
   </g>
   <g id="PathCollection_8"/>
   <g id="patch_3">
    <path d="M 34.240625 288.21825 
L 34.240625 22.10625 
" style="fill: none; stroke: #000000; stroke-width: 0.8; stroke-linejoin: miter; stroke-linecap: square"/>
   </g>
   <g id="patch_4">
    <path d="M 391.360625 288.21825 
L 391.360625 22.10625 
" style="fill: none; stroke: #000000; stroke-width: 0.8; stroke-linejoin: miter; stroke-linecap: square"/>
   </g>
   <g id="patch_5">
    <path d="M 34.240625 288.21825 
L 391.360625 288.21825 
" style="fill: none; stroke: #000000; stroke-width: 0.8; stroke-linejoin: miter; stroke-linecap: square"/>
   </g>
   <g id="patch_6">
    <path d="M 34.240625 22.10625 
L 391.360625 22.10625 
" style="fill: none; stroke: #000000; stroke-width: 0.8; stroke-linejoin: miter; stroke-linecap: square"/>
   </g>
   <g id="text_16">
    <!-- 8.7_cross_28.0 -->
    <g transform="translate(168.34625 16.10625)scale(0.12 -0.12)">
     <defs>
      <path id="DejaVuSans-2e" d="M 684 794 
L 1344 794 
L 1344 0 
L 684 0 
L 684 794 
z
" transform="scale(0.015625)"/>
      <path id="DejaVuSans-37" d="M 525 4666 
L 3525 4666 
L 3525 4397 
L 1831 0 
L 1172 0 
L 2766 4134 
L 525 4134 
L 525 4666 
z
" transform="scale(0.015625)"/>
      <path id="DejaVuSans-5f" d="M 3263 -1063 
L 3263 -1509 
L -63 -1509 
L -63 -1063 
L 3263 -1063 
z
" transform="scale(0.015625)"/>
      <path id="DejaVuSans-63" d="M 3122 3366 
L 3122 2828 
Q 2878 2963 2633 3030 
Q 2388 3097 2138 3097 
Q 1578 3097 1268 2742 
Q 959 2388 959 1747 
Q 959 1106 1268 751 
Q 1578 397 2138 397 
Q 2388 397 2633 464 
Q 2878 531 3122 666 
L 3122 134 
Q 2881 22 2623 -34 
Q 2366 -91 2075 -91 
Q 1284 -91 818 406 
Q 353 903 353 1747 
Q 353 2603 823 3093 
Q 1294 3584 2113 3584 
Q 2378 3584 2631 3529 
Q 2884 3475 3122 3366 
z
" transform="scale(0.015625)"/>
      <path id="DejaVuSans-72" d="M 2631 2963 
Q 2534 3019 2420 3045 
Q 2306 3072 2169 3072 
Q 1681 3072 1420 2755 
Q 1159 2438 1159 1844 
L 1159 0 
L 581 0 
L 581 3500 
L 1159 3500 
L 1159 2956 
Q 1341 3275 1631 3429 
Q 1922 3584 2338 3584 
Q 2397 3584 2469 3576 
Q 2541 3569 2628 3553 
L 2631 2963 
z
" transform="scale(0.015625)"/>
      <path id="DejaVuSans-73" d="M 2834 3397 
L 2834 2853 
Q 2591 2978 2328 3040 
Q 2066 3103 1784 3103 
Q 1356 3103 1142 2972 
Q 928 2841 928 2578 
Q 928 2378 1081 2264 
Q 1234 2150 1697 2047 
L 1894 2003 
Q 2506 1872 2764 1633 
Q 3022 1394 3022 966 
Q 3022 478 2636 193 
Q 2250 -91 1575 -91 
Q 1294 -91 989 -36 
Q 684 19 347 128 
L 347 722 
Q 666 556 975 473 
Q 1284 391 1588 391 
Q 1994 391 2212 530 
Q 2431 669 2431 922 
Q 2431 1156 2273 1281 
Q 2116 1406 1581 1522 
L 1381 1569 
Q 847 1681 609 1914 
Q 372 2147 372 2553 
Q 372 3047 722 3315 
Q 1072 3584 1716 3584 
Q 2034 3584 2315 3537 
Q 2597 3491 2834 3397 
z
" transform="scale(0.015625)"/>
     </defs>
     <use xlink:href="#DejaVuSans-38"/>
     <use xlink:href="#DejaVuSans-2e" x="63.623047"/>
     <use xlink:href="#DejaVuSans-37" x="95.410156"/>
     <use xlink:href="#DejaVuSans-5f" x="159.033203"/>
     <use xlink:href="#DejaVuSans-63" x="209.033203"/>
     <use xlink:href="#DejaVuSans-72" x="264.013672"/>
     <use xlink:href="#DejaVuSans-6f" x="302.876953"/>
     <use xlink:href="#DejaVuSans-73" x="364.058594"/>
     <use xlink:href="#DejaVuSans-73" x="416.158203"/>
     <use xlink:href="#DejaVuSans-5f" x="468.257812"/>
     <use xlink:href="#DejaVuSans-32" x="518.257812"/>
     <use xlink:href="#DejaVuSans-38" x="581.880859"/>
     <use xlink:href="#DejaVuSans-2e" x="645.503906"/>
     <use xlink:href="#DejaVuSans-30" x="677.291016"/>
    </g>
   </g>
  </g>
 </g>
 <defs>
  <clipPath id="p6f0c7999d7">
   <rect x="34.240625" y="22.10625" width="357.12" height="266.112"/>
  </clipPath>
 </defs>
</svg>
