<?xml version="1.0" encoding="utf-8" standalone="no"?>
<!DOCTYPE svg PUBLIC "-//W3C//DTD SVG 1.1//EN"
  "http://www.w3.org/Graphics/SVG/1.1/DTD/svg11.dtd">
<svg xmlns:xlink="http://www.w3.org/1999/xlink" width="408.104375pt" height="325.7745pt" viewBox="0 0 408.104375 325.7745" xmlns="http://www.w3.org/2000/svg" version="1.1">
 <metadata>
  <rdf:RDF xmlns:dc="http://purl.org/dc/elements/1.1/" xmlns:cc="http://creativecommons.org/ns#" xmlns:rdf="http://www.w3.org/1999/02/22-rdf-syntax-ns#">
   <cc:Work>
    <dc:type rdf:resource="http://purl.org/dc/dcmitype/StillImage"/>
    <dc:date>2024-07-12T12:13:06.651094</dc:date>
    <dc:format>image/svg+xml</dc:format>
    <dc:creator>
     <cc:Agent>
      <dc:title>Matplotlib v3.5.3, https://matplotlib.org/</dc:title>
     </cc:Agent>
    </dc:creator>
   </cc:Work>
  </rdf:RDF>
 </metadata>
 <defs>
  <style type="text/css">*{stroke-linejoin: round; stroke-linecap: butt}</style>
 </defs>
 <g id="figure_1">
  <g id="patch_1">
   <path d="M 0 325.7745 
L 408.104375 325.7745 
L 408.104375 0 
L 0 0 
z
" style="fill: #ffffff"/>
  </g>
  <g id="axes_1">
   <g id="patch_2">
    <path d="M 34.240625 288.21825 
L 391.360625 288.21825 
L 391.360625 22.10625 
L 34.240625 22.10625 
z
" style="fill: #ffffff"/>
   </g>
   <g id="matplotlib.axis_1">
    <g id="xtick_1">
     <g id="line2d_1">
      <defs>
       <path id="m86ee49bef6" d="M 0 0 
L 0 3.5 
" style="stroke: #000000; stroke-width: 0.8"/>
      </defs>
      <g>
       <use xlink:href="#m86ee49bef6" x="34.240625" y="288.21825" style="stroke: #000000; stroke-width: 0.8"/>
      </g>
     </g>
     <g id="text_1">
      <!-- 0 -->
      <g transform="translate(31.059375 302.816687)scale(0.1 -0.1)">
       <defs>
        <path id="DejaVuSans-30" d="M 2034 4250 
Q 1547 4250 1301 3770 
Q 1056 3291 1056 2328 
Q 1056 1369 1301 889 
Q 1547 409 2034 409 
Q 2525 409 2770 889 
Q 3016 1369 3016 2328 
Q 3016 3291 2770 3770 
Q 2525 4250 2034 4250 
z
M 2034 4750 
Q 2819 4750 3233 4129 
Q 3647 3509 3647 2328 
Q 3647 1150 3233 529 
Q 2819 -91 2034 -91 
Q 1250 -91 836 529 
Q 422 1150 422 2328 
Q 422 3509 836 4129 
Q 1250 4750 2034 4750 
z
" transform="scale(0.015625)"/>
       </defs>
       <use xlink:href="#DejaVuSans-30"/>
      </g>
     </g>
    </g>
    <g id="xtick_2">
     <g id="line2d_2">
      <g>
       <use xlink:href="#m86ee49bef6" x="105.664625" y="288.21825" style="stroke: #000000; stroke-width: 0.8"/>
      </g>
     </g>
     <g id="text_2">
      <!-- 20 -->
      <g transform="translate(99.302125 302.816687)scale(0.1 -0.1)">
       <defs>
        <path id="DejaVuSans-32" d="M 1228 531 
L 3431 531 
L 3431 0 
L 469 0 
L 469 531 
Q 828 903 1448 1529 
Q 2069 2156 2228 2338 
Q 2531 2678 2651 2914 
Q 2772 3150 2772 3378 
Q 2772 3750 2511 3984 
Q 2250 4219 1831 4219 
Q 1534 4219 1204 4116 
Q 875 4013 500 3803 
L 500 4441 
Q 881 4594 1212 4672 
Q 1544 4750 1819 4750 
Q 2544 4750 2975 4387 
Q 3406 4025 3406 3419 
Q 3406 3131 3298 2873 
Q 3191 2616 2906 2266 
Q 2828 2175 2409 1742 
Q 1991 1309 1228 531 
z
" transform="scale(0.015625)"/>
       </defs>
       <use xlink:href="#DejaVuSans-32"/>
       <use xlink:href="#DejaVuSans-30" x="63.623047"/>
      </g>
     </g>
    </g>
    <g id="xtick_3">
     <g id="line2d_3">
      <g>
       <use xlink:href="#m86ee49bef6" x="177.088625" y="288.21825" style="stroke: #000000; stroke-width: 0.8"/>
      </g>
     </g>
     <g id="text_3">
      <!-- 40 -->
      <g transform="translate(170.726125 302.816687)scale(0.1 -0.1)">
       <defs>
        <path id="DejaVuSans-34" d="M 2419 4116 
L 825 1625 
L 2419 1625 
L 2419 4116 
z
M 2253 4666 
L 3047 4666 
L 3047 1625 
L 3713 1625 
L 3713 1100 
L 3047 1100 
L 3047 0 
L 2419 0 
L 2419 1100 
L 313 1100 
L 313 1709 
L 2253 4666 
z
" transform="scale(0.015625)"/>
       </defs>
       <use xlink:href="#DejaVuSans-34"/>
       <use xlink:href="#DejaVuSans-30" x="63.623047"/>
      </g>
     </g>
    </g>
    <g id="xtick_4">
     <g id="line2d_4">
      <g>
       <use xlink:href="#m86ee49bef6" x="248.512625" y="288.21825" style="stroke: #000000; stroke-width: 0.8"/>
      </g>
     </g>
     <g id="text_4">
      <!-- 60 -->
      <g transform="translate(242.150125 302.816687)scale(0.1 -0.1)">
       <defs>
        <path id="DejaVuSans-36" d="M 2113 2584 
Q 1688 2584 1439 2293 
Q 1191 2003 1191 1497 
Q 1191 994 1439 701 
Q 1688 409 2113 409 
Q 2538 409 2786 701 
Q 3034 994 3034 1497 
Q 3034 2003 2786 2293 
Q 2538 2584 2113 2584 
z
M 3366 4563 
L 3366 3988 
Q 3128 4100 2886 4159 
Q 2644 4219 2406 4219 
Q 1781 4219 1451 3797 
Q 1122 3375 1075 2522 
Q 1259 2794 1537 2939 
Q 1816 3084 2150 3084 
Q 2853 3084 3261 2657 
Q 3669 2231 3669 1497 
Q 3669 778 3244 343 
Q 2819 -91 2113 -91 
Q 1303 -91 875 529 
Q 447 1150 447 2328 
Q 447 3434 972 4092 
Q 1497 4750 2381 4750 
Q 2619 4750 2861 4703 
Q 3103 4656 3366 4563 
z
" transform="scale(0.015625)"/>
       </defs>
       <use xlink:href="#DejaVuSans-36"/>
       <use xlink:href="#DejaVuSans-30" x="63.623047"/>
      </g>
     </g>
    </g>
    <g id="xtick_5">
     <g id="line2d_5">
      <g>
       <use xlink:href="#m86ee49bef6" x="319.936625" y="288.21825" style="stroke: #000000; stroke-width: 0.8"/>
      </g>
     </g>
     <g id="text_5">
      <!-- 80 -->
      <g transform="translate(313.574125 302.816687)scale(0.1 -0.1)">
       <defs>
        <path id="DejaVuSans-38" d="M 2034 2216 
Q 1584 2216 1326 1975 
Q 1069 1734 1069 1313 
Q 1069 891 1326 650 
Q 1584 409 2034 409 
Q 2484 409 2743 651 
Q 3003 894 3003 1313 
Q 3003 1734 2745 1975 
Q 2488 2216 2034 2216 
z
M 1403 2484 
Q 997 2584 770 2862 
Q 544 3141 544 3541 
Q 544 4100 942 4425 
Q 1341 4750 2034 4750 
Q 2731 4750 3128 4425 
Q 3525 4100 3525 3541 
Q 3525 3141 3298 2862 
Q 3072 2584 2669 2484 
Q 3125 2378 3379 2068 
Q 3634 1759 3634 1313 
Q 3634 634 3220 271 
Q 2806 -91 2034 -91 
Q 1263 -91 848 271 
Q 434 634 434 1313 
Q 434 1759 690 2068 
Q 947 2378 1403 2484 
z
M 1172 3481 
Q 1172 3119 1398 2916 
Q 1625 2713 2034 2713 
Q 2441 2713 2670 2916 
Q 2900 3119 2900 3481 
Q 2900 3844 2670 4047 
Q 2441 4250 2034 4250 
Q 1625 4250 1398 4047 
Q 1172 3844 1172 3481 
z
" transform="scale(0.015625)"/>
       </defs>
       <use xlink:href="#DejaVuSans-38"/>
       <use xlink:href="#DejaVuSans-30" x="63.623047"/>
      </g>
     </g>
    </g>
    <g id="xtick_6">
     <g id="line2d_6">
      <g>
       <use xlink:href="#m86ee49bef6" x="391.360625" y="288.21825" style="stroke: #000000; stroke-width: 0.8"/>
      </g>
     </g>
     <g id="text_6">
      <!-- 100 -->
      <g transform="translate(381.816875 302.816687)scale(0.1 -0.1)">
       <defs>
        <path id="DejaVuSans-31" d="M 794 531 
L 1825 531 
L 1825 4091 
L 703 3866 
L 703 4441 
L 1819 4666 
L 2450 4666 
L 2450 531 
L 3481 531 
L 3481 0 
L 794 0 
L 794 531 
z
" transform="scale(0.015625)"/>
       </defs>
       <use xlink:href="#DejaVuSans-31"/>
       <use xlink:href="#DejaVuSans-30" x="63.623047"/>
       <use xlink:href="#DejaVuSans-30" x="127.246094"/>
      </g>
     </g>
    </g>
    <g id="text_7">
     <!-- axialRotation -->
     <g transform="translate(180.024844 316.494812)scale(0.1 -0.1)">
      <defs>
       <path id="DejaVuSans-61" d="M 2194 1759 
Q 1497 1759 1228 1600 
Q 959 1441 959 1056 
Q 959 750 1161 570 
Q 1363 391 1709 391 
Q 2188 391 2477 730 
Q 2766 1069 2766 1631 
L 2766 1759 
L 2194 1759 
z
M 3341 1997 
L 3341 0 
L 2766 0 
L 2766 531 
Q 2569 213 2275 61 
Q 1981 -91 1556 -91 
Q 1019 -91 701 211 
Q 384 513 384 1019 
Q 384 1609 779 1909 
Q 1175 2209 1959 2209 
L 2766 2209 
L 2766 2266 
Q 2766 2663 2505 2880 
Q 2244 3097 1772 3097 
Q 1472 3097 1187 3025 
Q 903 2953 641 2809 
L 641 3341 
Q 956 3463 1253 3523 
Q 1550 3584 1831 3584 
Q 2591 3584 2966 3190 
Q 3341 2797 3341 1997 
z
" transform="scale(0.015625)"/>
       <path id="DejaVuSans-78" d="M 3513 3500 
L 2247 1797 
L 3578 0 
L 2900 0 
L 1881 1375 
L 863 0 
L 184 0 
L 1544 1831 
L 300 3500 
L 978 3500 
L 1906 2253 
L 2834 3500 
L 3513 3500 
z
" transform="scale(0.015625)"/>
       <path id="DejaVuSans-69" d="M 603 3500 
L 1178 3500 
L 1178 0 
L 603 0 
L 603 3500 
z
M 603 4863 
L 1178 4863 
L 1178 4134 
L 603 4134 
L 603 4863 
z
" transform="scale(0.015625)"/>
       <path id="DejaVuSans-6c" d="M 603 4863 
L 1178 4863 
L 1178 0 
L 603 0 
L 603 4863 
z
" transform="scale(0.015625)"/>
       <path id="DejaVuSans-52" d="M 2841 2188 
Q 3044 2119 3236 1894 
Q 3428 1669 3622 1275 
L 4263 0 
L 3584 0 
L 2988 1197 
Q 2756 1666 2539 1819 
Q 2322 1972 1947 1972 
L 1259 1972 
L 1259 0 
L 628 0 
L 628 4666 
L 2053 4666 
Q 2853 4666 3247 4331 
Q 3641 3997 3641 3322 
Q 3641 2881 3436 2590 
Q 3231 2300 2841 2188 
z
M 1259 4147 
L 1259 2491 
L 2053 2491 
Q 2509 2491 2742 2702 
Q 2975 2913 2975 3322 
Q 2975 3731 2742 3939 
Q 2509 4147 2053 4147 
L 1259 4147 
z
" transform="scale(0.015625)"/>
       <path id="DejaVuSans-6f" d="M 1959 3097 
Q 1497 3097 1228 2736 
Q 959 2375 959 1747 
Q 959 1119 1226 758 
Q 1494 397 1959 397 
Q 2419 397 2687 759 
Q 2956 1122 2956 1747 
Q 2956 2369 2687 2733 
Q 2419 3097 1959 3097 
z
M 1959 3584 
Q 2709 3584 3137 3096 
Q 3566 2609 3566 1747 
Q 3566 888 3137 398 
Q 2709 -91 1959 -91 
Q 1206 -91 779 398 
Q 353 888 353 1747 
Q 353 2609 779 3096 
Q 1206 3584 1959 3584 
z
" transform="scale(0.015625)"/>
       <path id="DejaVuSans-74" d="M 1172 4494 
L 1172 3500 
L 2356 3500 
L 2356 3053 
L 1172 3053 
L 1172 1153 
Q 1172 725 1289 603 
Q 1406 481 1766 481 
L 2356 481 
L 2356 0 
L 1766 0 
Q 1100 0 847 248 
Q 594 497 594 1153 
L 594 3053 
L 172 3053 
L 172 3500 
L 594 3500 
L 594 4494 
L 1172 4494 
z
" transform="scale(0.015625)"/>
       <path id="DejaVuSans-6e" d="M 3513 2113 
L 3513 0 
L 2938 0 
L 2938 2094 
Q 2938 2591 2744 2837 
Q 2550 3084 2163 3084 
Q 1697 3084 1428 2787 
Q 1159 2491 1159 1978 
L 1159 0 
L 581 0 
L 581 3500 
L 1159 3500 
L 1159 2956 
Q 1366 3272 1645 3428 
Q 1925 3584 2291 3584 
Q 2894 3584 3203 3211 
Q 3513 2838 3513 2113 
z
" transform="scale(0.015625)"/>
      </defs>
      <use xlink:href="#DejaVuSans-61"/>
      <use xlink:href="#DejaVuSans-78" x="61.279297"/>
      <use xlink:href="#DejaVuSans-69" x="120.458984"/>
      <use xlink:href="#DejaVuSans-61" x="148.242188"/>
      <use xlink:href="#DejaVuSans-6c" x="209.521484"/>
      <use xlink:href="#DejaVuSans-52" x="237.304688"/>
      <use xlink:href="#DejaVuSans-6f" x="302.287109"/>
      <use xlink:href="#DejaVuSans-74" x="363.46875"/>
      <use xlink:href="#DejaVuSans-61" x="402.677734"/>
      <use xlink:href="#DejaVuSans-74" x="463.957031"/>
      <use xlink:href="#DejaVuSans-69" x="503.166016"/>
      <use xlink:href="#DejaVuSans-6f" x="530.949219"/>
      <use xlink:href="#DejaVuSans-6e" x="592.130859"/>
     </g>
    </g>
   </g>
   <g id="matplotlib.axis_2">
    <g id="ytick_1">
     <g id="line2d_7">
      <defs>
       <path id="m0db7b3c967" d="M 0 0 
L -3.5 0 
" style="stroke: #000000; stroke-width: 0.8"/>
      </defs>
      <g>
       <use xlink:href="#m0db7b3c967" x="34.240625" y="288.21825" style="stroke: #000000; stroke-width: 0.8"/>
      </g>
     </g>
     <g id="text_8">
      <!-- 0 -->
      <g transform="translate(20.878125 292.017469)scale(0.1 -0.1)">
       <use xlink:href="#DejaVuSans-30"/>
      </g>
     </g>
    </g>
    <g id="ytick_2">
     <g id="line2d_8">
      <g>
       <use xlink:href="#m0db7b3c967" x="34.240625" y="243.86625" style="stroke: #000000; stroke-width: 0.8"/>
      </g>
     </g>
     <g id="text_9">
      <!-- 1 -->
      <g transform="translate(20.878125 247.665469)scale(0.1 -0.1)">
       <use xlink:href="#DejaVuSans-31"/>
      </g>
     </g>
    </g>
    <g id="ytick_3">
     <g id="line2d_9">
      <g>
       <use xlink:href="#m0db7b3c967" x="34.240625" y="199.51425" style="stroke: #000000; stroke-width: 0.8"/>
      </g>
     </g>
     <g id="text_10">
      <!-- 2 -->
      <g transform="translate(20.878125 203.313469)scale(0.1 -0.1)">
       <use xlink:href="#DejaVuSans-32"/>
      </g>
     </g>
    </g>
    <g id="ytick_4">
     <g id="line2d_10">
      <g>
       <use xlink:href="#m0db7b3c967" x="34.240625" y="155.16225" style="stroke: #000000; stroke-width: 0.8"/>
      </g>
     </g>
     <g id="text_11">
      <!-- 3 -->
      <g transform="translate(20.878125 158.961469)scale(0.1 -0.1)">
       <defs>
        <path id="DejaVuSans-33" d="M 2597 2516 
Q 3050 2419 3304 2112 
Q 3559 1806 3559 1356 
Q 3559 666 3084 287 
Q 2609 -91 1734 -91 
Q 1441 -91 1130 -33 
Q 819 25 488 141 
L 488 750 
Q 750 597 1062 519 
Q 1375 441 1716 441 
Q 2309 441 2620 675 
Q 2931 909 2931 1356 
Q 2931 1769 2642 2001 
Q 2353 2234 1838 2234 
L 1294 2234 
L 1294 2753 
L 1863 2753 
Q 2328 2753 2575 2939 
Q 2822 3125 2822 3475 
Q 2822 3834 2567 4026 
Q 2313 4219 1838 4219 
Q 1578 4219 1281 4162 
Q 984 4106 628 3988 
L 628 4550 
Q 988 4650 1302 4700 
Q 1616 4750 1894 4750 
Q 2613 4750 3031 4423 
Q 3450 4097 3450 3541 
Q 3450 3153 3228 2886 
Q 3006 2619 2597 2516 
z
" transform="scale(0.015625)"/>
       </defs>
       <use xlink:href="#DejaVuSans-33"/>
      </g>
     </g>
    </g>
    <g id="ytick_5">
     <g id="line2d_11">
      <g>
       <use xlink:href="#m0db7b3c967" x="34.240625" y="110.81025" style="stroke: #000000; stroke-width: 0.8"/>
      </g>
     </g>
     <g id="text_12">
      <!-- 4 -->
      <g transform="translate(20.878125 114.609469)scale(0.1 -0.1)">
       <use xlink:href="#DejaVuSans-34"/>
      </g>
     </g>
    </g>
    <g id="ytick_6">
     <g id="line2d_12">
      <g>
       <use xlink:href="#m0db7b3c967" x="34.240625" y="66.45825" style="stroke: #000000; stroke-width: 0.8"/>
      </g>
     </g>
     <g id="text_13">
      <!-- 5 -->
      <g transform="translate(20.878125 70.257469)scale(0.1 -0.1)">
       <defs>
        <path id="DejaVuSans-35" d="M 691 4666 
L 3169 4666 
L 3169 4134 
L 1269 4134 
L 1269 2991 
Q 1406 3038 1543 3061 
Q 1681 3084 1819 3084 
Q 2600 3084 3056 2656 
Q 3513 2228 3513 1497 
Q 3513 744 3044 326 
Q 2575 -91 1722 -91 
Q 1428 -91 1123 -41 
Q 819 9 494 109 
L 494 744 
Q 775 591 1075 516 
Q 1375 441 1709 441 
Q 2250 441 2565 725 
Q 2881 1009 2881 1497 
Q 2881 1984 2565 2268 
Q 2250 2553 1709 2553 
Q 1456 2553 1204 2497 
Q 953 2441 691 2322 
L 691 4666 
z
" transform="scale(0.015625)"/>
       </defs>
       <use xlink:href="#DejaVuSans-35"/>
      </g>
     </g>
    </g>
    <g id="ytick_7">
     <g id="line2d_13">
      <g>
       <use xlink:href="#m0db7b3c967" x="34.240625" y="22.10625" style="stroke: #000000; stroke-width: 0.8"/>
      </g>
     </g>
     <g id="text_14">
      <!-- 6 -->
      <g transform="translate(20.878125 25.905469)scale(0.1 -0.1)">
       <use xlink:href="#DejaVuSans-36"/>
      </g>
     </g>
    </g>
    <g id="text_15">
     <!-- zShift -->
     <g transform="translate(14.798438 169.151312)rotate(-90)scale(0.1 -0.1)">
      <defs>
       <path id="DejaVuSans-7a" d="M 353 3500 
L 3084 3500 
L 3084 2975 
L 922 459 
L 3084 459 
L 3084 0 
L 275 0 
L 275 525 
L 2438 3041 
L 353 3041 
L 353 3500 
z
" transform="scale(0.015625)"/>
       <path id="DejaVuSans-53" d="M 3425 4513 
L 3425 3897 
Q 3066 4069 2747 4153 
Q 2428 4238 2131 4238 
Q 1616 4238 1336 4038 
Q 1056 3838 1056 3469 
Q 1056 3159 1242 3001 
Q 1428 2844 1947 2747 
L 2328 2669 
Q 3034 2534 3370 2195 
Q 3706 1856 3706 1288 
Q 3706 609 3251 259 
Q 2797 -91 1919 -91 
Q 1588 -91 1214 -16 
Q 841 59 441 206 
L 441 856 
Q 825 641 1194 531 
Q 1563 422 1919 422 
Q 2459 422 2753 634 
Q 3047 847 3047 1241 
Q 3047 1584 2836 1778 
Q 2625 1972 2144 2069 
L 1759 2144 
Q 1053 2284 737 2584 
Q 422 2884 422 3419 
Q 422 4038 858 4394 
Q 1294 4750 2059 4750 
Q 2388 4750 2728 4690 
Q 3069 4631 3425 4513 
z
" transform="scale(0.015625)"/>
       <path id="DejaVuSans-68" d="M 3513 2113 
L 3513 0 
L 2938 0 
L 2938 2094 
Q 2938 2591 2744 2837 
Q 2550 3084 2163 3084 
Q 1697 3084 1428 2787 
Q 1159 2491 1159 1978 
L 1159 0 
L 581 0 
L 581 4863 
L 1159 4863 
L 1159 2956 
Q 1366 3272 1645 3428 
Q 1925 3584 2291 3584 
Q 2894 3584 3203 3211 
Q 3513 2838 3513 2113 
z
" transform="scale(0.015625)"/>
       <path id="DejaVuSans-66" d="M 2375 4863 
L 2375 4384 
L 1825 4384 
Q 1516 4384 1395 4259 
Q 1275 4134 1275 3809 
L 1275 3500 
L 2222 3500 
L 2222 3053 
L 1275 3053 
L 1275 0 
L 697 0 
L 697 3053 
L 147 3053 
L 147 3500 
L 697 3500 
L 697 3744 
Q 697 4328 969 4595 
Q 1241 4863 1831 4863 
L 2375 4863 
z
" transform="scale(0.015625)"/>
      </defs>
      <use xlink:href="#DejaVuSans-7a"/>
      <use xlink:href="#DejaVuSans-53" x="52.490234"/>
      <use xlink:href="#DejaVuSans-68" x="115.966797"/>
      <use xlink:href="#DejaVuSans-69" x="179.345703"/>
      <use xlink:href="#DejaVuSans-66" x="207.128906"/>
      <use xlink:href="#DejaVuSans-74" x="240.583984"/>
     </g>
    </g>
   </g>
   <g id="PathCollection_1"/>
   <g id="PathCollection_2">
    <path d="M 34.240625 135.308143 
L 34.324371 135.20385 
L 36.026225 133.029827 
L 36.774695 132.09921 
L 37.847537 130.727832 
L 38.867109 129.43809 
L 39.633137 128.444812 
L 40.931058 126.77697 
L 41.418737 126.131811 
L 42.951711 124.11585 
L 43.204337 123.771875 
L 44.907695 121.45473 
L 45.025649 121.287612 
L 46.777938 118.79361 
L 46.811249 118.743698 
L 48.535894 116.13249 
L 48.596849 116.034317 
L 50.159774 113.47137 
L 50.382449 113.078883 
L 51.635686 110.81025 
L 52.203761 109.697373 
L 52.9678 108.14913 
L 53.989361 105.898983 
L 54.168876 105.48801 
L 55.221752 102.82689 
L 55.774961 101.332768 
L 56.187615 100.16577 
L 57.084474 97.50465 
L 57.560561 96.082991 
L 57.956908 94.84353 
L 58.835514 92.18241 
L 59.381873 90.646244 
L 59.767066 89.52129 
L 60.953055 86.41665 
L 61.167473 85.914036 
L 62.066737 83.75553 
L 62.953073 81.880143 
L 63.318765 81.09441 
L 64.704537 78.43329 
L 64.738673 78.372786 
L 66.200025 75.77217 
L 66.559985 75.183069 
L 67.828277 73.11105 
L 68.345585 72.317764 
L 69.572137 70.44993 
L 70.131185 69.637032 
L 71.415239 67.78881 
L 71.916785 67.0892 
L 73.339402 65.12769 
L 73.738097 64.589331 
L 75.331026 62.46657 
L 75.523697 62.212262 
L 77.309297 59.884142 
L 77.370011 59.80545 
L 79.094897 57.574675 
L 79.432488 57.14433 
L 80.916209 55.250136 
L 81.526001 54.48321 
L 82.701809 52.993845 
L 83.641897 51.82209 
L 84.487409 50.757273 
L 85.775818 49.16097 
L 86.273009 48.537022 
L 87.921956 46.49985 
L 88.094321 46.282392 
L 89.879921 44.047619 
L 90.413627 43.39521 
L 91.665521 41.830662 
L 92.557336 40.73409 
L 93.451121 39.619208 
L 94.711138 38.07297 
L 95.272433 37.3759 
L 96.882174 35.41185 
L 97.058033 35.19461 
L 98.843633 33.011865 
L 99.059892 32.75073 
L 100.629233 30.837877 
L 101.256763 30.08961 
L 102.450545 28.656942 
L 103.500853 27.42849 
L 104.236145 26.562659 
L 105.809464 24.76737 
L 106.021745 24.52379 
L 107.807345 22.515913 
L 108.182118 22.10625 
" clip-path="url(#pa734338111)" style="fill: none; stroke: #dbe9f6; stroke-width: 1.5"/>
    <path d="M 118.166843 288.21825 
L 118.206343 285.55713 
L 118.592369 282.732152 
L 119.150623 280.23489 
L 120.377969 276.708609 
L 121.104769 274.91265 
L 122.413207 272.25153 
L 123.984881 269.450116 
L 125.770481 266.557669 
L 129.4746 261.16353 
L 134.734193 254.147657 
L 150.876017 233.369465 
L 153.788764 229.23009 
L 156.268529 225.302627 
L 158.054129 222.101542 
L 158.736612 220.80321 
L 159.989623 218.14209 
L 162.00666 212.81985 
L 163.621475 207.49761 
L 165.232241 201.794341 
L 165.90123 199.51425 
L 167.847101 194.19201 
L 169.072714 191.53089 
L 170.624753 188.611818 
L 172.410353 185.651625 
L 174.231665 182.937303 
L 177.802865 178.124015 
L 183.195377 171.344953 
L 203.928826 145.84833 
L 215.479025 131.51763 
L 232.15621 110.81025 
L 256.762097 79.832097 
L 259.710094 75.77217 
L 262.154609 72.100838 
L 263.940209 69.158143 
L 265.725809 65.862713 
L 266.098356 65.12769 
L 267.547121 61.892025 
L 269.332721 57.077356 
L 273.418412 43.39521 
L 274.725233 40.028853 
L 275.555179 38.07297 
L 276.907068 35.41185 
L 278.465813 32.75073 
L 280.222005 30.08961 
L 283.688945 25.514576 
L 285.474545 23.382855 
L 286.589225 22.10625 
L 286.589225 22.10625 
" clip-path="url(#pa734338111)" style="fill: none; stroke: #dbe9f6; stroke-width: 1.5"/>
    <path d="M 254.566108 22.10625 
L 254.667385 24.76737 
L 254.461265 27.42849 
L 253.943624 30.08961 
L 253.097625 32.75073 
L 252.010022 35.41185 
L 249.583985 39.822312 
L 249.04624 40.73409 
L 246.012785 45.160708 
L 243.030779 49.16097 
L 235.227761 58.982545 
L 206.296596 94.84353 
L 192.159089 112.42217 
L 178.47334 129.43809 
L 169.775975 140.52609 
L 165.232241 146.817221 
L 162.412616 151.17057 
L 160.88244 153.83169 
L 159.504454 156.49281 
L 158.054129 159.736586 
L 156.268529 164.569427 
L 153.994265 172.45953 
L 152.268366 178.22529 
L 150.876017 181.956092 
L 150.233025 183.54753 
L 148.944118 186.20865 
L 147.304817 189.168119 
L 145.519217 192.024099 
L 143.697905 194.670869 
L 140.052395 199.51425 
L 133.644826 207.49761 
L 111.414257 234.865993 
L 86.273009 265.753952 
L 76.014335 277.57377 
L 71.916785 281.984826 
L 66.559985 287.282834 
L 65.523255 288.21825 
L 65.523255 288.21825 
" clip-path="url(#pa734338111)" style="fill: none; stroke: #dbe9f6; stroke-width: 1.5"/>
    <path d="M 296.032578 288.21825 
L 295.924349 285.55713 
L 296.147158 282.89601 
L 296.259569 282.341819 
L 296.657756 280.23489 
L 297.476167 277.57377 
L 298.045169 276.239731 
L 298.586561 274.91265 
L 299.830769 272.53054 
L 299.97183 272.25153 
L 301.56819 269.59041 
L 301.616369 269.519297 
L 303.334564 266.92929 
L 303.437681 266.78716 
L 305.223281 264.289689 
L 305.556806 263.82465 
L 307.008881 261.901278 
L 307.563999 261.16353 
L 308.794481 259.581176 
L 309.633458 258.50241 
L 310.615793 257.263293 
L 311.747744 255.84129 
L 312.401393 255.024509 
L 313.890051 253.18017 
L 314.186993 252.810843 
L 315.972593 250.6064 
L 316.043043 250.51905 
L 317.793905 248.330891 
L 318.176876 247.85793 
L 319.579505 246.098943 
L 320.308767 245.19681 
L 321.365105 243.863532 
L 322.431741 242.53569 
L 323.150705 241.618519 
L 324.534546 239.87457 
L 324.972017 239.308181 
L 326.60732 237.21345 
L 326.757617 237.01425 
L 328.543217 234.658872 
L 328.624002 234.55233 
L 330.328817 232.212757 
L 330.563797 231.89121 
L 332.150129 229.616386 
L 332.418904 229.23009 
L 333.935729 226.91682 
L 334.162094 226.56897 
L 335.721329 223.99578 
L 335.773841 223.90785 
L 337.450155 220.80321 
L 337.506929 220.685277 
L 338.69342 218.14209 
L 339.328241 216.64443 
L 339.803817 215.48097 
L 340.776698 212.81985 
L 341.113841 211.79526 
L 341.63049 210.15873 
L 342.41343 207.49761 
L 342.899441 205.80048 
L 343.165221 204.83649 
L 343.896773 202.17537 
L 344.685041 199.59396 
L 344.708756 199.51425 
L 345.543064 196.85313 
L 346.506353 194.315097 
L 346.552818 194.19201 
L 347.660308 191.53089 
L 348.291953 190.248366 
L 348.986502 188.86977 
L 350.077553 186.995122 
L 350.553465 186.20865 
L 351.863153 184.279208 
L 352.38725 183.54753 
L 353.684465 181.896489 
L 354.535892 180.88641 
L 355.470065 179.84927 
L 357.069254 178.22529 
L 357.255665 178.042904 
L 359.041265 176.345739 
L 360.50603 175.12065 
L 360.862577 174.827873 
L 362.648177 173.409584 
L 363.971081 172.45953 
L 364.433777 172.12941 
L 366.219377 170.909738 
L 368.040689 169.805093 
L 368.052093 169.79841 
L 369.826289 168.74437 
L 371.611889 167.801994 
L 373.00712 167.13729 
L 373.397489 166.945523 
L 375.218801 166.115832 
L 377.004401 165.403427 
L 378.790001 164.782604 
L 379.797269 164.47617 
L 380.575601 164.225692 
L 382.396913 163.723373 
L 384.182513 163.321552 
L 385.968113 163.006738 
L 387.753713 162.777709 
L 389.575025 162.632692 
L 391.360625 162.579037 
" clip-path="url(#pa734338111)" style="fill: none; stroke: #dbe9f6; stroke-width: 1.5"/>
    <path d="M 391.360625 86.278089 
L 373.397489 108.652628 
L 367.507498 116.13249 
L 362.648177 122.672416 
L 359.840809 126.77697 
L 357.255665 131.057301 
L 356.671244 132.09921 
L 355.105209 135.20385 
L 353.684465 138.503009 
L 352.009503 143.18721 
L 350.469168 148.50945 
L 347.454665 159.15393 
L 345.512473 164.47617 
L 344.336852 167.13729 
L 342.899441 170.000694 
L 341.113841 173.170887 
L 339.328241 175.969002 
L 337.506929 178.503683 
L 333.521309 183.54753 
L 328.866477 188.86977 
L 319.579505 199.159016 
L 312.33796 207.49761 
L 301.372695 220.80321 
L 292.652657 232.062992 
L 289.06184 237.21345 
L 287.260145 240.095418 
L 285.474545 243.285411 
L 283.688945 246.954255 
L 283.285561 247.85793 
L 281.903345 251.417974 
L 280.468851 255.84129 
L 277.177758 266.92929 
L 276.177712 269.59041 
L 274.725233 272.839311 
L 272.903921 276.261753 
L 272.146419 277.57377 
L 269.332721 281.677538 
L 267.547121 284.012815 
L 265.725809 286.229319 
L 263.985293 288.21825 
L 263.985293 288.21825 
" clip-path="url(#pa734338111)" style="fill: none; stroke: #dbe9f6; stroke-width: 1.5"/>
   </g>
   <g id="PathCollection_3">
    <path d="M 34.240625 150.561375 
L 35.845774 148.50945 
L 36.026225 148.279409 
L 37.847537 145.973278 
L 37.946611 145.84833 
L 39.633137 143.719069 
L 40.057885 143.18721 
L 41.418737 141.475143 
L 42.178992 140.52609 
L 43.204337 139.235759 
L 44.300985 137.86497 
L 45.025649 136.949652 
L 46.415939 135.20385 
L 46.811249 134.697767 
L 48.596849 132.428991 
L 48.857053 132.09921 
L 50.382449 130.121658 
L 50.910821 129.43809 
L 52.203761 127.727234 
L 52.921911 126.77697 
L 53.989361 125.321759 
L 54.871911 124.11585 
L 55.774961 122.833581 
L 56.740465 121.45473 
L 57.560561 120.224517 
L 58.504737 118.79361 
L 59.381873 117.380852 
L 60.145737 116.13249 
L 61.167473 114.333698 
L 61.648461 113.47137 
L 62.953073 110.922777 
L 63.009454 110.81025 
L 64.214148 108.14913 
L 64.738673 106.878682 
L 65.297728 105.48801 
L 66.280906 102.82689 
L 66.559985 102.020518 
L 67.184884 100.16577 
L 68.059349 97.50465 
L 68.345585 96.64113 
L 68.928595 94.84353 
L 69.842274 92.18241 
L 70.131185 91.404486 
L 70.820864 89.52129 
L 71.916785 86.861871 
L 72.099775 86.41665 
L 73.319799 83.75553 
L 73.738097 82.934456 
L 74.675261 81.09441 
L 75.523697 79.581501 
L 76.170201 78.43329 
L 77.309297 76.565203 
L 77.796096 75.77217 
L 79.094897 73.785043 
L 79.538915 73.11105 
L 80.916209 71.1184 
L 81.38228 70.44993 
L 82.701809 68.619867 
L 83.306687 67.78881 
L 84.487409 66.202949 
L 85.295616 65.12769 
L 86.273009 63.845722 
L 87.33416 62.46657 
L 88.094321 61.487204 
L 89.41168 59.80545 
L 89.879921 59.209501 
L 91.51823 57.14433 
L 91.665521 56.958522 
L 93.451121 54.717677 
L 93.638856 54.48321 
L 95.272433 52.438217 
L 95.768599 51.82209 
L 97.058033 50.212402 
L 97.907454 49.16097 
L 98.843633 47.994413 
L 100.053523 46.49985 
L 100.629233 45.780628 
L 102.450545 43.538933 
L 102.567643 43.39521 
L 104.236145 41.329719 
L 104.722016 40.73409 
L 106.021745 39.135183 
L 106.89522 38.07297 
L 107.807345 36.962125 
L 109.097698 35.41185 
L 109.628657 34.775002 
L 111.344953 32.75073 
L 111.414257 32.669249 
L 113.199857 30.591378 
L 113.639661 30.08961 
L 114.985457 28.567109 
L 116.019619 27.42849 
L 116.806769 26.572312 
L 118.525037 24.76737 
L 118.592369 24.697601 
L 120.377969 22.888804 
L 121.185721 22.10625 
" clip-path="url(#pa734338111)" style="fill: none; stroke: #bad6eb; stroke-width: 1.5"/>
    <path d="M 130.958919 288.21825 
L 130.709643 285.55713 
L 130.869184 282.89601 
L 131.382502 280.23489 
L 132.199662 277.57377 
L 133.293406 274.91265 
L 134.734193 272.04748 
L 136.519793 268.968226 
L 138.341105 266.129272 
L 141.912305 261.053713 
L 147.924329 253.18017 
L 160.34308 237.21345 
L 164.127961 231.89121 
L 167.053553 227.290727 
L 168.964011 223.90785 
L 170.624753 220.507771 
L 172.685191 215.48097 
L 174.499268 210.15873 
L 177.116983 202.17537 
L 179.221896 196.85313 
L 181.409777 192.356404 
L 181.838701 191.53089 
L 183.365996 188.86977 
L 186.806058 183.54753 
L 190.639773 178.22529 
L 195.766001 171.566072 
L 207.841963 156.49281 
L 237.013361 120.249459 
L 257.454977 94.84353 
L 266.14845 83.75553 
L 270.040297 78.43329 
L 273.559956 73.11105 
L 275.130887 70.44993 
L 276.559776 67.78881 
L 278.296433 64.045832 
L 280.082033 59.542014 
L 282.630896 51.82209 
L 284.439132 46.49985 
L 285.657708 43.39521 
L 287.260145 39.871191 
L 289.081457 36.425672 
L 290.867057 33.48065 
L 292.652657 30.850662 
L 294.438257 28.459547 
L 296.259569 26.218084 
L 298.045169 24.186791 
L 300.025004 22.10625 
L 300.025004 22.10625 
" clip-path="url(#pa734338111)" style="fill: none; stroke: #bad6eb; stroke-width: 1.5"/>
    <path d="M 241.162131 22.10625 
L 241.430378 24.76737 
L 241.288059 27.42849 
L 240.620273 30.601256 
L 239.966688 32.75073 
L 238.834673 35.467485 
L 237.013361 38.980139 
L 235.227761 41.960357 
L 233.442161 44.674987 
L 229.835249 49.718176 
L 224.110886 57.14433 
L 211.907825 72.404379 
L 166.023429 129.43809 
L 159.453052 137.86497 
L 155.561133 143.18721 
L 152.041458 148.50945 
L 150.470573 151.17057 
L 149.041798 153.83169 
L 147.304817 157.576448 
L 145.519217 162.084256 
L 142.980097 169.79841 
L 141.189031 175.12065 
L 138.847913 180.88641 
L 136.519793 185.491807 
L 134.734193 188.577587 
L 132.858553 191.53089 
L 129.138058 196.85313 
L 123.984881 203.646322 
L 116.685926 212.81985 
L 92.723881 242.53569 
L 82.701809 254.787263 
L 75.013045 263.82465 
L 70.131185 269.275679 
L 66.559985 273.036619 
L 61.842063 277.57377 
L 59.381873 279.734734 
L 55.315953 282.89601 
L 52.203761 284.987095 
L 48.596849 286.984713 
L 45.717879 288.21825 
L 45.717879 288.21825 
" clip-path="url(#pa734338111)" style="fill: none; stroke: #bad6eb; stroke-width: 1.5"/>
    <path d="M 309.431338 288.21825 
L 309.165779 285.55713 
L 309.306714 282.89601 
L 309.806973 280.23489 
L 310.615793 277.63829 
L 310.635281 277.57377 
L 311.722681 274.91265 
L 312.401393 273.567797 
L 313.055762 272.25153 
L 314.186993 270.2925 
L 314.58874 269.59041 
L 315.972593 267.416646 
L 316.281345 266.92929 
L 317.793905 264.719838 
L 318.410412 263.82465 
L 319.579505 262.211439 
L 320.340811 261.16353 
L 321.365105 259.798611 
L 322.342342 258.50241 
L 323.150705 257.45122 
L 324.3959 255.84129 
L 324.972017 255.104447 
L 326.486795 253.18017 
L 326.757617 252.836869 
L 328.543217 250.588058 
L 328.598054 250.51905 
L 330.328817 248.333338 
L 330.707813 247.85793 
L 332.150129 246.034127 
L 332.816656 245.19681 
L 333.935729 243.771807 
L 334.912821 242.53569 
L 335.721329 241.493889 
L 336.985249 239.87457 
L 337.506929 239.189967 
L 339.019141 237.21345 
L 339.328241 236.797003 
L 340.997777 234.55233 
L 341.113841 234.389871 
L 342.89882 231.89121 
L 342.899441 231.890295 
L 344.685041 229.249886 
L 344.698391 229.23009 
L 346.375796 226.56897 
L 346.506353 226.345343 
L 347.915945 223.90785 
L 348.291953 223.190013 
L 349.533788 220.80321 
L 350.077553 219.641144 
L 350.770993 218.14209 
L 351.863153 215.553873 
L 351.893619 215.48097 
L 352.908809 212.81985 
L 353.684465 210.6902 
L 353.876972 210.15873 
L 354.819106 207.49761 
L 355.470065 205.719336 
L 355.794702 204.83649 
L 356.838767 202.17537 
L 357.255665 201.209114 
L 358.000557 199.51425 
L 359.041265 197.411225 
L 359.325827 196.85313 
L 360.852898 194.19201 
L 360.862577 194.176774 
L 362.624068 191.53089 
L 362.648177 191.497962 
L 364.433777 189.18133 
L 364.690136 188.86977 
L 366.219377 187.143258 
L 367.114992 186.20865 
L 368.040689 185.296246 
L 369.826289 183.685105 
L 369.99117 183.54753 
L 371.611889 182.244915 
L 373.397489 180.964149 
L 373.517036 180.88641 
L 375.218801 179.803756 
L 377.004401 178.81097 
L 378.21756 178.22529 
L 378.790001 177.950545 
L 380.575601 177.221255 
L 382.396913 176.616334 
L 384.182513 176.158034 
L 385.968113 175.834663 
L 387.753713 175.650565 
L 389.575025 175.61377 
L 391.360625 175.73619 
" clip-path="url(#pa734338111)" style="fill: none; stroke: #bad6eb; stroke-width: 1.5"/>
    <path d="M 391.360625 71.054531 
L 382.396913 82.3544 
L 359.587975 110.81025 
L 353.512491 118.79361 
L 349.817126 124.11585 
L 348.134268 126.77697 
L 346.506353 129.591256 
L 344.685041 133.183465 
L 342.899441 137.253165 
L 341.67255 140.52609 
L 339.328241 147.684359 
L 337.506929 153.134278 
L 336.2416 156.49281 
L 335.101033 159.15393 
L 333.820475 161.81505 
L 332.150129 164.926542 
L 330.328817 167.986414 
L 327.379268 172.45953 
L 324.972017 175.809181 
L 319.015232 183.54753 
L 310.389035 194.19201 
L 290.867057 218.328497 
L 284.448849 226.56897 
L 280.082033 232.575574 
L 277.032605 237.21345 
L 274.725233 241.245873 
L 272.76026 245.19681 
L 270.610967 250.51905 
L 268.813441 255.84129 
L 266.151836 263.82465 
L 263.940209 269.180942 
L 263.758623 269.59041 
L 262.154609 272.748184 
L 260.369009 275.825249 
L 258.547697 278.609348 
L 256.762097 281.07663 
L 254.976497 283.337269 
L 251.369585 287.39652 
L 250.572079 288.21825 
L 250.572079 288.21825 
" clip-path="url(#pa734338111)" style="fill: none; stroke: #bad6eb; stroke-width: 1.5"/>
   </g>
   <g id="PathCollection_4">
    <path d="M 34.240625 163.135681 
L 35.14296 161.81505 
L 36.026225 160.575136 
L 37.046243 159.15393 
L 37.847537 158.070439 
L 39.021781 156.49281 
L 39.633137 155.688145 
L 41.051646 153.83169 
L 41.418737 153.357845 
L 43.121807 151.17057 
L 43.204337 151.065487 
L 45.025649 148.753611 
L 45.218536 148.50945 
L 46.811249 146.503132 
L 47.33256 145.84833 
L 48.596849 144.262226 
L 49.455729 143.18721 
L 50.382449 142.02471 
L 51.579014 140.52609 
L 52.203761 139.739491 
L 53.69388 137.86497 
L 53.989361 137.489987 
L 55.774961 135.224344 
L 55.791076 135.20385 
L 57.560561 132.921869 
L 58.198097 132.09921 
L 59.381873 130.542156 
L 60.218706 129.43809 
L 61.167473 128.155658 
L 62.182869 126.77697 
L 62.953073 125.696116 
L 64.071888 124.11585 
L 64.738673 123.131529 
L 65.864576 121.45473 
L 66.559985 120.35794 
L 67.540961 118.79361 
L 68.345585 117.414959 
L 69.084687 116.13249 
L 70.131185 114.153954 
L 70.487376 113.47137 
L 71.747823 110.81025 
L 71.916785 110.41596 
L 72.874328 108.14913 
L 73.738097 105.896474 
L 73.892853 105.48801 
L 74.822679 102.82689 
L 75.523697 100.716132 
L 75.705055 100.16577 
L 76.569345 97.50465 
L 77.309297 95.295977 
L 77.46054 94.84353 
L 78.407268 92.18241 
L 79.094897 90.421761 
L 79.447711 89.52129 
L 80.809021 86.41665 
L 80.916209 86.197494 
L 82.119077 83.75553 
L 82.701809 82.681807 
L 83.571087 81.09441 
L 84.487409 79.553862 
L 85.160332 78.43329 
L 86.273009 76.700491 
L 86.874611 75.77217 
L 88.094321 73.985955 
L 88.696732 73.11105 
L 89.879921 71.458014 
L 90.60679 70.44993 
L 91.665521 69.022216 
L 92.585977 67.78881 
L 93.451121 66.65223 
L 94.617903 65.12769 
L 95.272433 64.284238 
L 96.689792 62.46657 
L 97.058033 61.998504 
L 98.791215 59.80545 
L 98.843633 59.739468 
L 100.629233 57.497016 
L 100.910817 57.14433 
L 102.450545 55.221769 
L 103.043658 54.48321 
L 104.236145 52.999391 
L 105.184908 51.82209 
L 106.021745 50.783071 
L 107.332076 49.16097 
L 107.807345 48.572117 
L 109.485657 46.49985 
L 109.628657 46.323106 
L 111.414257 44.124089 
L 112.009058 43.39521 
L 113.199857 41.940881 
L 114.194004 40.73409 
L 114.985457 39.779821 
L 116.41329 38.07297 
L 116.806769 37.607483 
L 118.592369 35.518695 
L 118.684497 35.41185 
L 120.377969 33.480889 
L 121.029126 32.75073 
L 122.163569 31.505445 
L 123.483395 30.08961 
L 123.984881 29.565543 
L 125.770481 27.749771 
L 126.094799 27.42849 
L 127.556081 26.029598 
L 128.932588 24.76737 
L 129.341681 24.405845 
L 131.162993 22.863453 
L 132.105228 22.10625 
" clip-path="url(#pa734338111)" style="fill: none; stroke: #89bedc; stroke-width: 1.5"/>
    <path d="M 141.861491 288.21825 
L 141.083055 285.55713 
L 140.885545 282.89601 
L 141.161979 280.23489 
L 141.912305 277.360489 
L 142.825888 274.91265 
L 144.090505 272.25153 
L 145.574572 269.59041 
L 147.304817 266.823595 
L 151.25597 261.16353 
L 157.365018 253.18017 
L 167.679251 239.87457 
L 171.502745 234.55233 
L 174.231665 230.362299 
L 176.451218 226.56897 
L 177.82962 223.90785 
L 179.588465 219.995652 
L 181.409777 215.23503 
L 185.833696 202.17537 
L 186.907565 199.51425 
L 188.587889 195.878472 
L 190.373489 192.496655 
L 192.159089 189.471983 
L 194.265058 186.20865 
L 198.036462 180.88641 
L 202.944113 174.448113 
L 211.907825 163.191027 
L 271.118321 89.486349 
L 276.510833 82.325366 
L 279.243318 78.43329 
L 281.903345 74.253914 
L 284.063556 70.44993 
L 285.474545 67.609775 
L 287.650302 62.46657 
L 289.518637 57.14433 
L 292.181808 49.16097 
L 293.186044 46.49985 
L 294.508728 43.39521 
L 296.259569 39.889574 
L 298.045169 36.80243 
L 299.830769 34.088047 
L 301.616369 31.658605 
L 303.437681 29.413838 
L 305.223281 27.402978 
L 308.794481 23.899591 
L 310.88406 22.10625 
L 310.88406 22.10625 
" clip-path="url(#pa734338111)" style="fill: none; stroke: #89bedc; stroke-width: 1.5"/>
    <path d="M 230.185148 22.10625 
L 230.97051 24.76737 
L 231.172237 27.42849 
L 230.898154 30.08961 
L 230.229904 32.75073 
L 229.233505 35.41185 
L 227.96554 38.07297 
L 226.264049 41.077049 
L 224.478449 43.892119 
L 220.782016 49.16097 
L 215.479025 56.087732 
L 206.159773 67.78881 
L 170.624753 111.934256 
L 154.482929 132.135959 
L 149.090417 139.296307 
L 146.358496 143.18721 
L 143.697905 147.367228 
L 141.538043 151.17057 
L 140.126705 154.011832 
L 137.952422 159.15393 
L 136.087575 164.47617 
L 132.948593 173.802876 
L 132.459882 175.12065 
L 131.162993 178.247199 
L 129.341681 182.034159 
L 127.556081 185.294301 
L 125.37194 188.86977 
L 121.722682 194.19201 
L 116.806769 200.748218 
L 111.414257 207.599139 
L 93.451121 229.915138 
L 79.094897 247.409012 
L 73.738097 253.671848 
L 68.345585 259.655657 
L 64.31074 263.82465 
L 61.07346 266.92929 
L 57.560561 269.977835 
L 53.989361 272.668167 
L 50.369701 274.91265 
L 48.596849 275.810391 
L 46.811249 276.573313 
L 45.025649 277.186627 
L 43.204337 277.643332 
L 41.418737 277.902932 
L 39.633137 277.966887 
L 37.847537 277.812972 
L 36.026225 277.393247 
L 34.240625 276.664332 
L 34.240625 276.664332 
" clip-path="url(#pa734338111)" style="fill: none; stroke: #89bedc; stroke-width: 1.5"/>
    <path d="M 320.413996 288.21825 
L 319.624336 285.55713 
L 319.579505 284.987432 
L 319.423644 282.89601 
L 319.579505 281.408686 
L 319.698709 280.23489 
L 320.367384 277.57377 
L 321.365105 274.913931 
L 321.365577 274.91265 
L 322.632427 272.25153 
L 323.150705 271.329692 
L 324.12088 269.59041 
L 324.972017 268.233501 
L 325.786392 266.92929 
L 326.757617 265.504661 
L 327.902633 263.82465 
L 328.543217 262.939648 
L 329.829549 261.16353 
L 330.328817 260.499534 
L 331.83334 258.50241 
L 332.150129 258.092074 
L 333.892766 255.84129 
L 333.935729 255.786565 
L 335.721329 253.516839 
L 335.986932 253.18017 
L 337.506929 251.265888 
L 338.102023 250.51905 
L 339.328241 248.980057 
L 340.225818 247.85793 
L 341.113841 246.741155 
L 342.347253 245.19681 
L 342.899441 244.497547 
L 344.455989 242.53569 
L 344.685041 242.24196 
L 346.506353 239.917345 
L 346.540022 239.87457 
L 348.291953 237.592279 
L 348.584441 237.21345 
L 350.077553 235.210747 
L 350.571385 234.55233 
L 351.863153 232.746996 
L 352.479388 231.89121 
L 353.684465 230.112274 
L 354.286304 229.23009 
L 355.470065 227.358131 
L 355.973413 226.56897 
L 357.255665 224.369818 
L 357.528157 223.90785 
L 359.041265 221.049714 
L 359.173803 220.80321 
L 360.455322 218.14209 
L 360.862577 217.213554 
L 361.640566 215.48097 
L 362.648177 213.069768 
L 362.756135 212.81985 
L 363.863548 210.15873 
L 364.433777 208.795377 
L 365.002268 207.49761 
L 366.219377 204.848616 
L 366.225295 204.83649 
L 367.628766 202.17537 
L 368.040689 201.468574 
L 369.269841 199.51425 
L 369.826289 198.717692 
L 371.252303 196.85313 
L 371.611889 196.427577 
L 373.397489 194.525006 
L 373.751633 194.19201 
L 375.218801 192.924972 
L 377.004401 191.593881 
L 377.105433 191.53089 
L 378.790001 190.54909 
L 380.575601 189.713219 
L 382.396913 189.078446 
L 383.348977 188.86977 
L 384.182513 188.695602 
L 385.968113 188.55478 
L 387.753713 188.662704 
L 388.72837 188.86977 
L 389.575025 189.073854 
L 391.360625 189.84142 
" clip-path="url(#pa734338111)" style="fill: none; stroke: #89bedc; stroke-width: 1.5"/>
    <path d="M 391.360625 58.427246 
L 388.537598 62.46657 
L 384.182513 68.254568 
L 376.128521 78.43329 
L 350.077553 111.008126 
L 346.208481 116.13249 
L 342.466358 121.45473 
L 339.328241 126.492949 
L 337.71268 129.43809 
L 335.721329 133.669042 
L 334.025625 137.86497 
L 332.150129 143.352395 
L 329.543303 151.17057 
L 327.406683 156.49281 
L 326.151387 159.15393 
L 324.754657 161.81505 
L 323.150705 164.584484 
L 319.765411 169.79841 
L 315.921095 175.12065 
L 310.615793 181.992957 
L 300.825133 194.19201 
L 279.50694 220.80321 
L 274.725233 227.116147 
L 271.118321 232.244231 
L 268.003902 237.21345 
L 265.725809 241.479368 
L 265.202372 242.53569 
L 263.940209 245.368275 
L 261.974026 250.51905 
L 257.40778 263.82465 
L 256.086431 266.92929 
L 254.792331 269.59041 
L 253.190897 272.476487 
L 251.369585 275.359231 
L 249.583985 277.878527 
L 247.73251 280.23489 
L 244.191473 284.137687 
L 242.405873 285.874931 
L 239.708086 288.21825 
L 239.708086 288.21825 
" clip-path="url(#pa734338111)" style="fill: none; stroke: #89bedc; stroke-width: 1.5"/>
   </g>
   <g id="PathCollection_5">
    <path d="M 34.240625 178.563901 
L 34.36408 178.22529 
L 35.70265 175.12065 
L 36.026225 174.468786 
L 37.040802 172.45953 
L 37.847537 171.019861 
L 38.542418 169.79841 
L 39.633137 168.032425 
L 40.192785 167.13729 
L 41.418737 165.296575 
L 41.970202 164.47617 
L 43.204337 162.72558 
L 43.850487 161.81505 
L 45.025649 160.216241 
L 45.809714 159.15393 
L 46.811249 157.832145 
L 47.82819 156.49281 
L 48.596849 155.500071 
L 49.889529 153.83169 
L 50.382449 153.204671 
L 51.981233 151.17057 
L 52.203761 150.890301 
L 53.989361 148.641233 
L 54.093961 148.50945 
L 55.774961 146.40675 
L 56.220011 145.84833 
L 57.560561 144.172441 
L 58.345878 143.18721 
L 59.381873 141.887299 
L 60.462281 140.52609 
L 61.167473 139.634777 
L 62.561095 137.86497 
L 62.953073 137.363757 
L 64.633492 135.20385 
L 64.738673 135.067133 
L 66.559985 132.690784 
L 67.009041 132.09921 
L 68.345585 130.306798 
L 68.988702 129.43809 
L 70.131185 127.851797 
L 70.899188 126.77697 
L 71.916785 125.296296 
L 72.72126 124.11585 
L 73.738097 122.542064 
L 74.434513 121.45473 
L 75.523697 119.633799 
L 76.021963 118.79361 
L 77.309297 116.431846 
L 77.471288 116.13249 
L 78.783404 113.47137 
L 79.094897 112.770739 
L 79.963347 110.81025 
L 80.916209 108.409284 
L 81.019507 108.14913 
L 81.986594 105.48801 
L 82.701809 103.361974 
L 82.883015 102.82689 
L 83.753227 100.16577 
L 84.487409 97.919203 
L 84.624581 97.50465 
L 85.545359 94.84353 
L 86.273009 92.888809 
L 86.540259 92.18241 
L 87.645988 89.52129 
L 88.094321 88.554648 
L 89.10163 86.41665 
L 89.879921 84.928377 
L 90.502805 83.75553 
L 91.665521 81.743785 
L 92.046044 81.09441 
L 93.451121 78.860277 
L 93.722783 78.43329 
L 95.272433 76.131016 
L 95.5161 75.77217 
L 97.058033 73.598756 
L 97.406081 73.11105 
L 98.843633 71.162715 
L 99.371446 70.44993 
L 100.629233 68.793694 
L 101.393896 67.78881 
L 102.450545 66.426244 
L 103.45821 65.12769 
L 104.236145 64.139855 
L 105.553271 62.46657 
L 106.021745 61.878054 
L 107.669728 59.80545 
L 107.807345 59.633808 
L 109.628657 57.362614 
L 109.803478 57.14433 
L 111.414257 55.14696 
L 111.947961 54.48321 
L 113.199857 52.935046 
L 114.097348 51.82209 
L 114.985457 50.726874 
L 116.252786 49.16097 
L 116.806769 48.48092 
L 118.419303 46.49985 
L 118.592369 46.289602 
L 120.377969 44.127849 
L 120.982147 43.39521 
L 122.163569 41.988988 
L 123.221672 40.73409 
L 123.984881 39.847494 
L 125.523526 38.07297 
L 125.770481 37.795604 
L 127.556081 35.816944 
L 127.926486 35.41185 
L 129.341681 33.920565 
L 130.473055 32.75073 
L 131.162993 32.06791 
L 132.948593 30.349061 
L 133.226068 30.08961 
L 134.734193 28.755936 
L 136.296089 27.42849 
L 136.519793 27.249457 
L 138.341105 25.859978 
L 139.854786 24.76737 
L 140.126705 24.583739 
L 141.912305 23.448361 
L 143.697905 22.391617 
L 144.214739 22.10625 
" clip-path="url(#pa734338111)" style="fill: none; stroke: #539ecd; stroke-width: 1.5"/>
    <path d="M 154.20199 288.21825 
L 152.168445 285.55713 
L 151.200108 282.89601 
L 150.979691 280.23489 
L 151.327669 277.57377 
L 152.107534 274.91265 
L 153.229105 272.25153 
L 154.617214 269.59041 
L 156.268529 266.852584 
L 160.18628 261.16353 
L 166.267713 253.18017 
L 174.477019 242.53569 
L 178.337931 237.21345 
L 181.835458 231.89121 
L 183.400286 229.23009 
L 184.980977 226.255391 
L 186.766577 222.41115 
L 187.457932 220.80321 
L 189.420943 215.48097 
L 192.992067 204.83649 
L 194.017081 202.17537 
L 195.766001 198.257017 
L 197.551601 194.78263 
L 199.437829 191.53089 
L 202.948595 186.20865 
L 206.832517 180.88641 
L 213.693425 172.075838 
L 231.656561 149.715238 
L 278.296433 91.641188 
L 283.688945 84.493838 
L 286.09414 81.09441 
L 289.514765 75.77217 
L 291.033124 73.11105 
L 292.652657 69.942052 
L 294.438257 65.930336 
L 295.783602 62.46657 
L 298.46716 54.48321 
L 300.344372 49.16097 
L 301.616369 46.081066 
L 303.437681 42.331518 
L 305.223281 39.225308 
L 307.008881 36.536439 
L 308.794481 34.165552 
L 310.615793 32.002416 
L 312.401393 30.081309 
L 315.972593 26.833765 
L 319.579505 24.146723 
L 322.917035 22.10625 
L 322.917035 22.10625 
" clip-path="url(#pa734338111)" style="fill: none; stroke: #539ecd; stroke-width: 1.5"/>
    <path d="M 217.829318 22.10625 
L 219.866874 24.76737 
L 220.871537 27.753387 
L 221.058041 30.08961 
L 220.714339 32.75073 
L 219.93063 35.41185 
L 218.810549 38.07297 
L 217.300337 40.931345 
L 215.479025 43.897462 
L 211.845377 49.16097 
L 206.515313 56.138574 
L 199.337201 65.190585 
L 156.201381 118.79361 
L 147.304817 129.986872 
L 141.912305 137.131451 
L 139.50951 140.52609 
L 136.087734 145.84833 
L 134.569063 148.50945 
L 132.948593 151.680295 
L 131.162993 155.69364 
L 129.82059 159.15393 
L 127.151668 167.13729 
L 125.309459 172.45953 
L 123.984881 175.759105 
L 122.163569 179.686168 
L 120.377969 183.027132 
L 118.474475 186.20865 
L 114.889664 191.53089 
L 110.959232 196.85313 
L 104.236145 205.44179 
L 89.879921 223.247328 
L 80.581445 234.55233 
L 73.738097 242.594813 
L 68.345585 248.564541 
L 63.807035 253.18017 
L 60.956868 255.84129 
L 57.560561 258.689119 
L 53.989361 261.218732 
L 52.203761 262.256836 
L 50.382449 263.161663 
L 48.596849 263.871521 
L 46.811249 264.348223 
L 45.025649 264.592156 
L 43.204337 264.558484 
L 41.418737 264.195933 
L 39.633137 263.404204 
L 37.847537 262.044825 
L 37.030427 261.16353 
L 36.026225 259.846349 
L 35.23244 258.50241 
L 34.240625 256.408798 
L 34.240625 256.408798 
" clip-path="url(#pa734338111)" style="fill: none; stroke: #539ecd; stroke-width: 1.5"/>
    <path d="M 332.817062 288.21825 
L 332.150129 287.445432 
L 330.756478 285.55713 
L 330.328817 284.469647 
L 329.783087 282.89601 
L 329.563609 280.23489 
L 329.905704 277.57377 
L 330.328817 276.145109 
L 330.688255 274.91265 
L 331.815569 272.25153 
L 332.150129 271.620391 
L 333.217549 269.59041 
L 333.935729 268.409974 
L 334.831562 266.92929 
L 335.721329 265.612777 
L 336.920853 263.82465 
L 337.506929 263.015251 
L 338.846176 261.16353 
L 339.328241 260.526978 
L 340.861714 258.50241 
L 341.113841 258.179661 
L 342.899441 255.897613 
L 342.943697 255.84129 
L 344.685041 253.669468 
L 345.078519 253.18017 
L 346.506353 251.422686 
L 347.243767 250.51905 
L 348.291953 249.238491 
L 349.428654 247.85793 
L 350.077553 247.066971 
L 351.623841 245.19681 
L 351.863153 244.904369 
L 353.684465 242.705431 
L 353.827348 242.53569 
L 355.470065 240.54761 
L 356.034859 239.87457 
L 357.255665 238.377228 
L 358.222466 237.21345 
L 359.041265 236.186126 
L 360.374092 234.55233 
L 360.862577 233.918527 
L 362.469954 231.89121 
L 362.648177 231.649554 
L 364.433777 229.313128 
L 364.500366 229.23009 
L 366.219377 226.881842 
L 366.461755 226.56897 
L 368.040689 224.303227 
L 368.336753 223.90785 
L 369.826289 221.66771 
L 370.450409 220.80321 
L 371.611889 218.995453 
L 372.227675 218.14209 
L 373.397489 216.358926 
L 374.068184 215.48097 
L 375.218801 213.871667 
L 376.13703 212.81985 
L 377.004401 211.801708 
L 378.790001 210.19649 
L 378.855842 210.15873 
L 380.575601 209.192436 
L 382.396913 208.783788 
L 384.182513 209.093897 
L 385.840984 210.15873 
L 385.968113 210.254966 
L 387.753713 212.66518 
L 387.831917 212.81985 
L 389.002408 215.48097 
L 389.575025 216.980121 
L 389.920728 218.14209 
L 390.646385 220.80321 
L 391.360625 223.69467 
" clip-path="url(#pa734338111)" style="fill: none; stroke: #539ecd; stroke-width: 1.5"/>
    <path d="M 384.949563 22.10625 
L 385.968113 22.989819 
L 387.753713 24.756571 
L 387.763595 24.76737 
L 389.575025 27.374305 
L 389.609056 27.42849 
L 390.788502 30.08961 
L 391.360625 32.271375 
" clip-path="url(#pa734338111)" style="fill: none; stroke: #539ecd; stroke-width: 1.5"/>
    <path d="M 391.360625 279.506075 
L 391.002788 280.23489 
L 389.575025 282.499099 
L 389.303714 282.89601 
L 387.753713 284.718901 
L 386.968043 285.55713 
L 385.968113 286.443658 
L 384.182513 287.865396 
L 383.690719 288.21825 
" clip-path="url(#pa734338111)" style="fill: none; stroke: #539ecd; stroke-width: 1.5"/>
    <path d="M 391.360625 40.26718 
L 391.292723 40.73409 
L 390.618928 43.39521 
L 389.514877 46.49985 
L 387.753713 50.212061 
L 385.968113 53.380276 
L 384.182513 56.20735 
L 381.712638 59.80545 
L 377.004401 66.105367 
L 371.497344 73.11105 
L 341.405072 110.81025 
L 337.474874 116.13249 
L 333.870758 121.45473 
L 332.150129 124.274175 
L 330.328817 127.580949 
L 328.543217 131.26788 
L 328.163308 132.09921 
L 325.917114 137.86497 
L 321.365105 151.241652 
L 319.579505 155.44578 
L 317.793905 159.072694 
L 317.752111 159.15393 
L 315.972593 162.280993 
L 312.866191 167.13729 
L 308.794481 172.820318 
L 303.437681 179.776475 
L 296.17946 188.86977 
L 274.725233 215.600929 
L 268.323957 223.90785 
L 264.508671 229.23009 
L 262.154609 232.824957 
L 259.563028 237.21345 
L 258.182419 239.87457 
L 256.762097 242.957055 
L 254.812836 247.85793 
L 252.125556 255.84129 
L 250.248828 261.16353 
L 249.167043 263.82465 
L 247.723426 266.92929 
L 246.012785 270.050829 
L 244.191473 272.921536 
L 242.405873 275.396557 
L 240.620273 277.609391 
L 238.193695 280.23489 
L 235.227761 282.99546 
L 231.656561 285.750592 
L 227.678281 288.21825 
L 227.678281 288.21825 
" clip-path="url(#pa734338111)" style="fill: none; stroke: #539ecd; stroke-width: 1.5"/>
   </g>
   <g id="PathCollection_6">
    <path d="M 179.747883 288.21825 
L 177.802865 287.940918 
L 174.231665 287.241341 
L 170.624753 286.210136 
L 168.839153 285.53494 
L 167.053553 284.469223 
L 164.972673 282.89601 
L 163.237208 280.23489 
L 162.696889 277.57377 
L 162.913781 274.91265 
L 163.668245 272.25153 
L 165.232241 268.851562 
L 167.053553 265.711504 
L 168.839153 262.95259 
L 172.01068 258.50241 
L 186.034198 239.87457 
L 189.58072 234.55233 
L 192.159089 230.117999 
L 192.647935 229.23009 
L 195.180137 223.90785 
L 197.390962 218.14209 
L 201.950227 204.83649 
L 203.042267 202.17537 
L 204.729713 198.643065 
L 206.515313 195.365102 
L 208.86294 191.53089 
L 212.539031 186.20865 
L 217.300337 179.892553 
L 223.16275 172.45953 
L 287.260145 92.677661 
L 291.950228 86.41665 
L 295.620487 81.09441 
L 298.045169 77.156537 
L 299.830769 73.928757 
L 300.265242 73.11105 
L 302.704047 67.78881 
L 304.69963 62.46657 
L 308.319426 51.82209 
L 309.378397 49.16097 
L 310.615793 46.413177 
L 312.401393 43.090408 
L 314.186993 40.297041 
L 315.972593 37.880299 
L 318.099167 35.41185 
L 321.365105 32.292556 
L 324.169615 30.08961 
L 326.757617 28.431493 
L 328.543217 27.394584 
L 332.150129 25.759183 
L 335.721329 24.467904 
L 339.328241 23.529904 
L 342.899441 22.83046 
L 346.506353 22.332939 
L 349.021906 22.10625 
L 349.021906 22.10625 
" clip-path="url(#pa734338111)" style="fill: none; stroke: #2b7bba; stroke-width: 1.5"/>
    <path d="M 192.289038 22.10625 
L 195.766001 22.651489 
L 199.337201 23.475689 
L 202.944113 24.682959 
L 203.143329 24.76737 
L 204.729713 25.69194 
L 207.054362 27.42849 
L 208.789985 30.08961 
L 209.336387 32.75073 
L 209.11745 35.41185 
L 208.300913 38.226595 
L 207.203718 40.73409 
L 205.754966 43.39521 
L 201.950014 49.16097 
L 197.551601 55.036859 
L 191.715427 62.46657 
L 154.965665 108.14913 
L 140.056918 126.77697 
L 134.734193 133.742625 
L 131.162993 138.778818 
L 128.308418 143.18721 
L 125.770481 147.697906 
L 125.338892 148.50945 
L 122.89982 153.83169 
L 120.908439 159.15393 
L 116.806769 171.252552 
L 115.223292 175.12065 
L 113.199857 179.235008 
L 111.414257 182.398568 
L 109.016761 186.20865 
L 105.274812 191.53089 
L 100.629233 197.640188 
L 94.920494 204.83649 
L 81.869604 220.80321 
L 74.653994 229.23009 
L 69.805224 234.55233 
L 66.559985 237.866984 
L 62.953073 241.21866 
L 61.167473 242.73311 
L 57.560561 245.331962 
L 55.774961 246.336759 
L 53.989361 247.154984 
L 52.203761 247.732511 
L 50.382449 247.986183 
L 48.596849 247.848381 
L 46.811249 247.166088 
L 45.025649 245.79332 
L 44.520894 245.19681 
L 42.863742 242.53569 
L 41.418737 238.537365 
L 41.086312 237.21345 
L 40.553973 234.55233 
L 39.812536 229.23009 
L 39.379647 223.90785 
L 39.033973 215.48097 
L 38.939343 207.49761 
L 39.103212 199.51425 
L 39.471501 194.19201 
L 39.784366 191.53089 
L 40.214304 188.86977 
L 40.768609 186.20865 
L 41.463929 183.54753 
L 42.349277 180.88641 
L 43.397258 178.22529 
L 45.025649 174.813134 
L 46.811249 171.629852 
L 49.673816 167.13729 
L 53.478631 161.81505 
L 59.636734 153.83169 
L 74.364947 135.20385 
L 78.614171 129.43809 
L 82.194243 124.11585 
L 84.487409 120.252469 
L 86.273009 116.872942 
L 86.648328 116.13249 
L 88.963935 110.81025 
L 90.875559 105.48801 
L 93.502372 97.50465 
L 95.532144 92.18241 
L 97.058033 88.846885 
L 98.843633 85.431439 
L 100.629233 82.402881 
L 103.213299 78.43329 
L 107.03835 73.11105 
L 113.199857 65.121802 
L 126.095074 49.16097 
L 131.162993 43.162307 
L 135.845112 38.07297 
L 138.562026 35.41185 
L 141.912305 32.514362 
L 145.519217 29.872355 
L 149.671393 27.42849 
L 152.697329 26.0428 
L 156.268529 24.675138 
L 159.875441 23.674462 
L 163.446641 22.901825 
L 167.053553 22.314233 
L 168.687432 22.10625 
L 168.687432 22.10625 
" clip-path="url(#pa734338111)" style="fill: none; stroke: #2b7bba; stroke-width: 1.5"/>
    <path d="M 359.553077 22.10625 
L 362.648177 22.423888 
L 366.219377 23.023578 
L 369.826289 23.931529 
L 372.265418 24.76737 
L 373.397489 25.299711 
L 375.218801 26.304947 
L 377.004401 27.477303 
L 379.544496 30.08961 
L 381.060522 32.75073 
L 381.837032 35.41185 
L 382.066654 38.07297 
L 381.842949 40.73409 
L 381.245559 43.39521 
L 380.146037 46.49985 
L 378.790001 49.380377 
L 377.004401 52.51739 
L 375.218801 55.311887 
L 372.069124 59.80545 
L 368.040689 65.130648 
L 359.041265 76.414364 
L 333.699945 108.14913 
L 329.74816 113.47137 
L 326.10865 118.79361 
L 323.150705 123.724069 
L 322.926759 124.11585 
L 321.365105 127.13303 
L 319.579505 131.063577 
L 319.136637 132.09921 
L 317.01916 137.86497 
L 313.439495 148.50945 
L 312.401393 151.18645 
L 310.615793 155.103863 
L 308.794481 158.577506 
L 306.879518 161.81505 
L 303.309274 167.13729 
L 299.379279 172.45953 
L 292.652657 181.059296 
L 262.154609 219.258324 
L 258.547697 224.124015 
L 254.976497 229.303969 
L 251.77448 234.55233 
L 249.583985 238.798065 
L 249.062479 239.87457 
L 246.855369 245.19681 
L 244.131575 253.18017 
L 242.281165 258.50241 
L 240.620273 262.503658 
L 240.012566 263.82465 
L 238.371606 266.92929 
L 236.715758 269.59041 
L 234.774058 272.25153 
L 232.489754 274.91265 
L 229.782111 277.57377 
L 226.264049 280.357758 
L 222.119369 282.89601 
L 219.085937 284.310944 
L 215.479025 285.698125 
L 211.907825 286.687031 
L 208.300913 287.461642 
L 204.729713 288.035948 
L 203.274383 288.21825 
L 203.274383 288.21825 
" clip-path="url(#pa734338111)" style="fill: none; stroke: #2b7bba; stroke-width: 1.5"/>
    <path d="M 342.059542 280.23489 
L 341.461632 277.57377 
L 341.67908 274.91265 
L 342.453058 272.25153 
L 342.899441 271.25994 
L 343.646735 269.59041 
L 344.685041 267.750991 
L 345.147991 266.92929 
L 346.506353 264.888054 
L 347.206725 263.82465 
L 348.291953 262.351666 
L 349.170174 261.16353 
L 350.077553 260.013725 
L 351.27756 258.50241 
L 351.863153 257.796446 
L 353.501414 255.84129 
L 353.684465 255.628609 
L 355.470065 253.605249 
L 355.854331 253.18017 
L 357.255665 251.6565 
L 358.326501 250.51905 
L 359.041265 249.7653 
L 360.862577 247.905321 
L 360.912171 247.85793 
L 362.648177 246.196525 
L 363.744973 245.19681 
L 364.433777 244.561718 
L 366.219377 243.042759 
L 366.88618 242.53569 
L 368.040689 241.635056 
L 369.826289 240.416924 
L 370.80279 239.87457 
L 371.611889 239.406672 
L 373.397489 238.670227 
L 375.218801 238.271055 
L 377.004401 238.342042 
L 378.790001 239.025754 
L 379.84638 239.87457 
L 380.575601 240.566862 
L 381.887058 242.53569 
L 382.396913 243.476355 
L 383.092588 245.19681 
L 383.95127 247.85793 
L 384.182513 248.757825 
L 384.558879 250.51905 
L 385.000973 253.18017 
L 385.321245 255.84129 
L 385.525287 258.50241 
L 385.610142 261.16353 
L 385.56381 263.82465 
L 385.314539 266.92929 
L 384.895868 269.59041 
L 384.240375 272.25153 
L 384.182513 272.414441 
L 383.218436 274.91265 
L 382.396913 276.459319 
L 381.744735 277.57377 
L 380.575601 279.084205 
L 379.579994 280.23489 
L 378.790001 280.950919 
L 377.004401 282.383392 
L 376.276966 282.89601 
L 375.218801 283.501411 
L 373.397489 284.403778 
L 371.611889 285.159226 
L 370.499129 285.55713 
L 369.826289 285.759208 
L 368.040689 286.202394 
L 366.219377 286.563275 
L 364.433777 286.832677 
L 362.648177 287.022032 
L 360.862577 287.133386 
L 359.041265 287.167133 
L 357.255665 287.120772 
L 355.470065 286.992732 
L 353.684465 286.777954 
L 351.863153 286.461835 
L 350.077553 286.046462 
L 348.434687 285.55713 
L 348.291953 285.500169 
L 346.506353 284.619434 
L 344.685041 283.474661 
L 343.930325 282.89601 
L 342.899441 281.567431 
L 342.059542 280.23489 
z
" clip-path="url(#pa734338111)" style="fill: none; stroke: #2b7bba; stroke-width: 1.5"/>
   </g>
   <g id="PathCollection_7">
    <path d="M 52.087895 210.15873 
L 51.806966 207.49761 
L 51.621053 204.83649 
L 51.523593 202.17537 
L 51.5151 199.51425 
L 51.601369 196.85313 
L 51.791901 194.19201 
L 52.098261 191.53089 
L 52.203761 190.897036 
L 52.570457 188.86977 
L 53.202839 186.20865 
L 53.984844 183.54753 
L 53.989361 183.535126 
L 55.008877 180.88641 
L 55.774961 179.153956 
L 56.204654 178.22529 
L 57.560561 175.655428 
L 57.849126 175.12065 
L 59.381873 172.561684 
L 59.444476 172.45953 
L 61.167473 169.843512 
L 61.197544 169.79841 
L 62.953073 167.311382 
L 63.07649 167.13729 
L 64.738673 164.896804 
L 65.050504 164.47617 
L 66.559985 162.510391 
L 67.091206 161.81505 
L 68.345585 160.223598 
L 69.181048 159.15393 
L 70.131185 157.969753 
L 71.303123 156.49281 
L 71.916785 155.737171 
L 73.446587 153.83169 
L 73.738097 153.474882 
L 75.523697 151.271373 
L 75.605638 151.17057 
L 77.309297 149.105568 
L 77.794181 148.50945 
L 79.094897 146.926118 
L 79.968444 145.84833 
L 80.916209 144.682242 
L 82.114762 143.18721 
L 82.701809 142.454721 
L 84.224618 140.52609 
L 84.487409 140.191273 
L 86.273009 137.884494 
L 86.288176 137.86497 
L 88.094321 135.49793 
L 88.315725 135.20385 
L 89.879921 133.089388 
L 90.586754 132.09921 
L 91.665521 130.539113 
L 92.418711 129.43809 
L 93.451121 127.84173 
L 94.135791 126.77697 
L 95.272433 124.865136 
L 95.717782 124.11585 
L 97.058033 121.63082 
L 97.15354 121.45473 
L 98.476155 118.79361 
L 98.843633 117.957682 
L 99.662836 116.13249 
L 100.629233 113.648992 
L 100.70058 113.47137 
L 101.683588 110.81025 
L 102.450545 108.448548 
L 102.55239 108.14913 
L 103.419187 105.48801 
L 104.234628 102.82689 
L 104.236145 102.822123 
L 105.127837 100.16577 
L 106.021745 97.554495 
L 106.039753 97.50465 
L 107.097841 94.84353 
L 107.807345 93.189877 
L 108.259601 92.18241 
L 109.560917 89.52129 
L 109.628657 89.398112 
L 111.295824 86.41665 
L 111.414257 86.222582 
L 112.947472 83.75553 
L 113.199857 83.374219 
L 114.723846 81.09441 
L 114.985457 80.72294 
L 116.603759 78.43329 
L 116.806769 78.157629 
L 118.559521 75.77217 
L 118.592369 75.729039 
L 120.377969 73.391113 
L 120.590278 73.11105 
L 122.163569 71.10006 
L 122.666397 70.44993 
L 123.984881 68.789974 
L 124.769286 67.78881 
L 125.770481 66.544147 
L 126.891681 65.12769 
L 127.556081 64.30865 
L 129.025361 62.46657 
L 129.341681 62.079076 
L 131.162993 59.812257 
L 131.168462 59.80545 
L 132.948593 57.644286 
L 133.353118 57.14433 
L 134.734193 55.482941 
L 135.551527 54.48321 
L 136.519793 53.335995 
L 137.780007 51.82209 
L 138.341105 51.173243 
L 140.061813 49.16097 
L 140.126705 49.088841 
L 141.912305 47.135284 
L 142.489605 46.49985 
L 143.697905 45.278547 
L 145.519217 43.400528 
L 145.524533 43.39521 
L 147.304817 41.805416 
L 148.509116 40.73409 
L 149.090417 40.273741 
L 150.876017 38.919909 
L 152.030682 38.07297 
L 152.697329 37.648324 
L 154.482929 36.586382 
L 156.268529 35.576253 
L 156.586436 35.41185 
L 158.054129 34.773276 
L 159.875441 34.052792 
L 161.661041 33.415203 
L 163.446641 32.847239 
L 163.80043 32.75073 
L 165.232241 32.430328 
L 167.053553 32.089183 
L 168.839153 31.817568 
L 170.624753 31.607497 
L 172.410353 31.458734 
L 174.231665 31.37064 
L 176.017265 31.348173 
L 177.802865 31.391828 
L 179.588465 31.506211 
L 181.409777 31.702871 
L 183.195377 31.984031 
L 184.980977 32.366255 
L 186.3612 32.75073 
L 186.766577 32.921575 
L 188.587889 33.916358 
L 190.373489 35.236089 
L 190.56378 35.41185 
L 191.789203 38.07297 
L 191.741441 40.73409 
L 190.954584 43.39521 
L 190.373489 44.570613 
L 189.456627 46.49985 
L 188.587889 47.928116 
L 187.851678 49.16097 
L 186.766577 50.756057 
L 186.054557 51.82209 
L 184.980977 53.293682 
L 184.12961 54.48321 
L 183.195377 55.711271 
L 182.125501 57.14433 
L 181.409777 58.061343 
L 180.07214 59.80545 
L 179.588465 60.41579 
L 177.991032 62.46657 
L 177.802865 62.70126 
L 176.017265 64.952684 
L 175.879677 65.12769 
L 174.231665 67.167878 
L 173.739177 67.78881 
L 172.410353 69.427763 
L 171.596593 70.44993 
L 170.624753 71.64504 
L 169.455174 73.11105 
L 168.839153 73.868678 
L 167.320331 75.77217 
L 167.053553 76.100696 
L 165.232241 78.378148 
L 165.188317 78.43329 
L 163.446641 80.579676 
L 163.036938 81.09441 
L 161.661041 82.790588 
L 160.892901 83.75553 
L 159.875441 85.008694 
L 158.752173 86.41665 
L 158.054129 87.267585 
L 156.270197 89.52129 
L 156.268529 89.523337 
L 154.482929 91.711938 
L 154.106295 92.18241 
L 152.697329 93.907597 
L 151.946395 94.84353 
L 150.876017 96.155545 
L 149.794205 97.50465 
L 149.090417 98.367157 
L 147.648296 100.16577 
L 147.304817 100.586961 
L 145.519217 102.812204 
L 145.5074 102.82689 
L 143.697905 105.039166 
L 143.336423 105.48801 
L 141.912305 107.223631 
L 141.164805 108.14913 
L 140.126705 109.410945 
L 138.992964 110.81025 
L 138.341105 111.601066 
L 136.820909 113.47137 
L 136.519793 113.837085 
L 134.734193 116.026199 
L 134.64728 116.13249 
L 132.948593 118.187094 
L 132.45461 118.79361 
L 131.162993 120.369062 
L 130.285246 121.45473 
L 129.341681 122.622164 
L 128.151168 124.11585 
L 127.556081 124.865033 
L 126.059991 126.77697 
L 125.770481 127.150494 
L 124.023217 129.43809 
L 123.984881 129.489164 
L 122.163569 131.927413 
L 122.036557 132.09921 
L 120.377969 134.397709 
L 119.816121 135.20385 
L 118.592369 137.03218 
L 118.03996 137.86497 
L 116.806769 139.851182 
L 116.389044 140.52609 
L 114.985457 143.00667 
L 114.882969 143.18721 
L 113.494039 145.84833 
L 113.199857 146.480207 
L 112.239484 148.50945 
L 111.414257 150.51107 
L 111.135207 151.17057 
L 110.120921 153.83169 
L 109.628657 155.283405 
L 109.200802 156.49281 
L 108.33385 159.15393 
L 107.807345 160.870589 
L 107.50188 161.81505 
L 106.643537 164.47617 
L 106.021745 166.369956 
L 105.755696 167.13729 
L 104.765653 169.79841 
L 104.236145 171.111337 
L 103.666059 172.45953 
L 102.450545 175.109662 
L 102.445287 175.12065 
L 100.793201 178.22529 
L 100.629233 178.506611 
L 99.208276 180.88641 
L 98.843633 181.456547 
L 97.486339 183.54753 
L 97.058033 184.170382 
L 95.646056 186.20865 
L 95.272433 186.722955 
L 93.709292 188.86977 
L 93.451121 189.211245 
L 91.701177 191.53089 
L 91.665521 191.576596 
L 89.879921 193.849452 
L 89.611964 194.19201 
L 88.094321 196.074354 
L 87.470497 196.85313 
L 86.273009 198.310293 
L 85.290166 199.51425 
L 84.487409 200.473362 
L 83.072738 202.17537 
L 82.701809 202.611739 
L 80.916209 204.712544 
L 80.808782 204.83649 
L 79.094897 206.776104 
L 78.455855 207.49761 
L 77.309297 208.76738 
L 76.046119 210.15873 
L 75.523697 210.72376 
L 73.738097 212.615819 
L 73.535207 212.81985 
L 71.916785 214.419122 
L 70.809132 215.48097 
L 70.131185 216.117988 
L 68.345585 217.689897 
L 67.775554 218.14209 
L 66.559985 219.085457 
L 64.738673 220.341766 
L 63.901213 220.80321 
L 62.953073 221.308201 
L 61.167473 221.949825 
L 59.381873 222.19931 
L 57.560561 221.86657 
L 55.897043 220.80321 
L 55.774961 220.697963 
L 54.113265 218.14209 
L 53.989361 217.880144 
L 53.181529 215.48097 
L 52.53295 212.81985 
L 52.203761 210.96645 
L 52.087895 210.15873 
z
" clip-path="url(#pa734338111)" style="fill: none; stroke: #0b559f; stroke-width: 1.5"/>
    <path d="M 180.253899 272.25153 
L 180.298921 269.59041 
L 181.071445 266.92929 
L 181.409777 266.248 
L 182.568725 263.82465 
L 183.195377 262.793596 
L 184.167871 261.16353 
L 184.980977 259.962856 
L 185.952162 258.50241 
L 186.766577 257.372668 
L 187.852314 255.84129 
L 188.587889 254.852925 
L 189.813359 253.18017 
L 190.373489 252.437834 
L 191.798979 250.51905 
L 192.159089 250.040712 
L 193.7794 247.85793 
L 193.944689 247.635033 
L 195.732464 245.19681 
L 195.766001 245.150259 
L 197.551601 242.662108 
L 197.64171 242.53569 
L 199.337201 240.074355 
L 199.474105 239.87457 
L 201.122801 237.335523 
L 201.202114 237.21345 
L 202.815296 234.55233 
L 202.944113 234.31973 
L 204.303259 231.89121 
L 204.729713 231.03678 
L 205.647295 229.23009 
L 206.515313 227.277403 
L 206.838639 226.56897 
L 207.919163 223.90785 
L 208.300913 222.846637 
L 209.058549 220.80321 
L 209.935291 218.14209 
L 210.122225 217.545918 
L 210.80459 215.48097 
L 211.649083 212.81985 
L 211.907825 212.02806 
L 212.552755 210.15873 
L 213.508957 207.49761 
L 213.693425 207.030858 
L 214.603152 204.83649 
L 215.479025 202.88293 
L 215.810245 202.17537 
L 217.171258 199.51425 
L 217.300337 199.28475 
L 218.704602 196.85313 
L 219.085937 196.238571 
L 220.377188 194.19201 
L 220.871537 193.454786 
L 222.172551 191.53089 
L 222.657137 190.849458 
L 224.068221 188.86977 
L 224.478449 188.316612 
L 226.036528 186.20865 
L 226.264049 185.911369 
L 228.049649 183.559346 
L 228.05864 183.54753 
L 229.835249 181.283558 
L 230.143132 180.88641 
L 231.656561 178.984066 
L 232.251636 178.22529 
L 233.442161 176.759777 
L 234.727557 175.12065 
L 235.227761 174.502911 
L 236.853705 172.45953 
L 237.013361 172.262849 
L 238.834673 169.999287 
L 238.994782 169.79841 
L 240.620273 167.797805 
L 241.146723 167.13729 
L 242.405873 165.585869 
L 243.289628 164.47617 
L 244.191473 163.363994 
L 245.425578 161.81505 
L 246.012785 161.090306 
L 247.554881 159.15393 
L 247.798385 158.85405 
L 249.583985 156.627551 
L 249.69143 156.49281 
L 251.369585 154.432419 
L 251.850144 153.83169 
L 253.190897 152.186791 
L 254.004624 151.17057 
L 254.976497 149.980273 
L 256.155518 148.50945 
L 256.762097 147.766319 
L 258.299887 145.84833 
L 258.547697 145.544485 
L 260.369009 143.283544 
L 260.446361 143.18721 
L 262.154609 141.097867 
L 262.614167 140.52609 
L 263.940209 138.9063 
L 264.77895 137.86497 
L 265.725809 136.711383 
L 266.945272 135.20385 
L 267.547121 134.479256 
L 269.332721 132.273469 
L 269.473524 132.09921 
L 271.118321 130.120642 
L 271.677292 129.43809 
L 272.903921 127.965125 
L 273.879745 126.77697 
L 274.725233 125.76051 
L 276.074336 124.11585 
L 276.510833 123.590634 
L 278.259259 121.45473 
L 278.296433 121.409876 
L 280.082033 119.268679 
L 280.473304 118.79361 
L 281.903345 117.075053 
L 282.675633 116.13249 
L 283.688945 114.912418 
L 284.864992 113.47137 
L 285.474545 112.735321 
L 287.039567 110.81025 
L 287.260145 110.542965 
L 289.081457 108.313523 
L 289.21508 108.14913 
L 290.867057 106.146156 
L 291.397902 105.48801 
L 292.652657 103.952335 
L 293.551544 102.82689 
L 294.438257 101.728138 
L 295.672271 100.16577 
L 296.259569 99.42565 
L 297.752112 97.50465 
L 298.045169 97.128543 
L 299.787922 94.84353 
L 299.830769 94.787192 
L 301.616369 92.420232 
L 301.792653 92.18241 
L 303.437681 89.931655 
L 303.732056 89.52129 
L 305.223281 87.412032 
L 305.899312 86.41665 
L 307.008881 84.729545 
L 307.64181 83.75553 
L 308.794481 81.871297 
L 309.267239 81.09441 
L 310.615793 78.68167 
L 310.754866 78.43329 
L 312.128575 75.77217 
L 312.401393 75.183021 
L 313.376247 73.11105 
L 314.186993 71.138395 
L 314.477316 70.44993 
L 315.490895 67.78881 
L 315.972593 66.374812 
L 316.415925 65.12769 
L 317.29177 62.46657 
L 317.793905 60.86567 
L 318.144913 59.80545 
L 319.034075 57.14433 
L 319.579505 55.583073 
L 319.986367 54.48321 
L 321.063814 51.82209 
L 321.365105 51.166592 
L 322.338234 49.16097 
L 323.150705 47.69777 
L 323.852146 46.49985 
L 324.972017 44.884377 
L 326.046325 43.39521 
L 326.757617 42.569921 
L 328.41672 40.73409 
L 328.543217 40.615381 
L 330.328817 39.058731 
L 331.523495 38.07297 
L 332.150129 37.638943 
L 333.935729 36.505192 
L 335.721329 35.450928 
L 335.795466 35.41185 
L 337.506929 34.667506 
L 339.328241 33.961848 
L 341.113841 33.355661 
L 342.899441 32.835957 
L 343.258603 32.75073 
L 344.685041 32.475342 
L 346.506353 32.203446 
L 348.291953 32.014828 
L 350.077553 31.905013 
L 351.863153 31.876662 
L 353.684465 31.935806 
L 355.470065 32.08585 
L 357.255665 32.334704 
L 359.041265 32.692328 
L 359.262466 32.75073 
L 360.862577 33.33422 
L 362.648177 34.187508 
L 364.433777 35.280307 
L 364.610528 35.41185 
L 366.219377 37.389222 
L 366.666673 38.07297 
L 367.39451 40.73409 
L 367.308102 43.39521 
L 366.503425 46.49985 
L 366.219377 47.161495 
L 365.344372 49.16097 
L 364.433777 50.837073 
L 363.893192 51.82209 
L 362.648177 53.797163 
L 362.214332 54.48321 
L 360.862577 56.430297 
L 360.367491 57.14433 
L 359.041265 58.939111 
L 358.404486 59.80545 
L 357.255665 61.294631 
L 356.359816 62.46657 
L 355.470065 63.587889 
L 354.261716 65.12769 
L 353.684465 65.841651 
L 352.127987 67.78881 
L 351.863153 68.112781 
L 350.077553 70.311298 
L 349.96477 70.44993 
L 348.291953 72.465353 
L 347.763527 73.11105 
L 346.506353 74.62236 
L 345.562719 75.77217 
L 344.685041 76.829011 
L 343.371174 78.43329 
L 342.899441 79.001933 
L 341.190279 81.09441 
L 341.113841 81.186775 
L 339.328241 83.337019 
L 338.984475 83.75553 
L 337.506929 85.533656 
L 336.785444 86.41665 
L 335.721329 87.6862 
L 334.246201 89.52129 
L 333.935729 89.897835 
L 332.150129 92.097656 
L 332.081284 92.18241 
L 330.328817 94.314726 
L 329.903466 94.84353 
L 328.543217 96.514069 
L 327.755044 97.50465 
L 326.757617 98.746477 
L 325.643465 100.16577 
L 324.972017 101.016134 
L 323.572072 102.82689 
L 323.150705 103.372587 
L 321.549727 105.48801 
L 321.365105 105.73323 
L 319.581855 108.14913 
L 319.579505 108.152359 
L 317.793905 110.627556 
L 317.664435 110.81025 
L 315.972593 113.272596 
L 315.838 113.47137 
L 314.186993 116.021832 
L 314.116166 116.13249 
L 312.506253 118.79361 
L 312.401393 118.980845 
L 311.014703 121.45473 
L 310.615793 122.244539 
L 309.661027 124.11585 
L 308.794481 126.045038 
L 308.459253 126.77697 
L 307.366559 129.43809 
L 307.008881 130.415808 
L 306.371414 132.09921 
L 305.335023 135.20385 
L 305.223281 135.560413 
L 304.465439 137.86497 
L 303.641488 140.52609 
L 303.437681 141.172588 
L 302.766737 143.18721 
L 301.857247 145.84833 
L 301.616369 146.49606 
L 300.828362 148.50945 
L 299.830769 150.879653 
L 299.702623 151.17057 
L 298.403903 153.83169 
L 298.045169 154.503526 
L 296.950932 156.49281 
L 296.259569 157.656845 
L 295.350729 159.15393 
L 294.438257 160.563012 
L 293.616734 161.81505 
L 292.652657 163.205223 
L 291.767393 164.47617 
L 290.867057 165.711186 
L 289.829515 167.13729 
L 289.081457 168.127267 
L 287.826247 169.79841 
L 287.260145 170.52938 
L 285.779675 172.45953 
L 285.474545 172.846089 
L 283.702594 175.12065 
L 283.688945 175.137561 
L 281.903345 177.345218 
L 281.21512 178.22529 
L 280.082033 179.628695 
L 279.083246 180.88641 
L 278.296433 181.856229 
L 276.948884 183.54753 
L 276.510833 184.086881 
L 274.818757 186.20865 
L 274.725233 186.323879 
L 272.903921 188.580256 
L 272.673316 188.86977 
L 271.118321 190.786774 
L 270.526142 191.53089 
L 269.332721 193.00312 
L 268.386832 194.19201 
L 267.547121 195.227568 
L 266.251774 196.85313 
L 265.725809 197.501778 
L 264.121849 199.51425 
L 263.940209 199.737937 
L 262.154609 201.957112 
L 261.980596 202.17537 
L 260.369009 204.160702 
L 259.830213 204.83649 
L 258.547697 206.424202 
L 257.695669 207.49761 
L 256.762097 208.660526 
L 255.580514 210.15873 
L 254.976497 210.919195 
L 253.491926 212.81985 
L 253.190897 213.204402 
L 251.43452 215.48097 
L 251.369585 215.565627 
L 249.583985 217.901299 
L 249.40173 218.14209 
L 247.798385 220.288247 
L 247.418072 220.80321 
L 246.012785 222.742214 
L 245.189828 223.90785 
L 244.191473 225.376927 
L 243.384211 226.56897 
L 242.405873 228.104472 
L 241.688426 229.23009 
L 240.620273 231.049381 
L 240.122752 231.89121 
L 238.834673 234.310203 
L 238.703761 234.55233 
L 237.400995 237.21345 
L 237.013361 238.11417 
L 236.233449 239.87457 
L 235.227761 242.495992 
L 235.211951 242.53569 
L 234.234003 245.19681 
L 233.442161 247.617329 
L 233.359413 247.85793 
L 232.46677 250.51905 
L 231.656561 253.00126 
L 231.594651 253.18017 
L 230.611101 255.84129 
L 229.835249 257.796407 
L 229.538297 258.50241 
L 228.275376 261.16353 
L 228.049649 261.57553 
L 226.752845 263.82465 
L 226.264049 264.542578 
L 224.576022 266.92929 
L 224.478449 267.0452 
L 222.657137 269.083832 
L 222.180538 269.59041 
L 220.871537 270.763552 
L 219.129511 272.25153 
L 219.085937 272.282856 
L 217.300337 273.454785 
L 215.479025 274.573839 
L 214.872701 274.91265 
L 213.693425 275.457975 
L 211.907825 276.199577 
L 210.122225 276.863629 
L 208.300913 277.461246 
L 207.898215 277.57377 
L 206.515313 277.888626 
L 204.729713 278.227214 
L 202.944113 278.500865 
L 201.122801 278.714325 
L 199.337201 278.859844 
L 197.551601 278.942016 
L 195.766001 278.959483 
L 193.944689 278.907705 
L 192.159089 278.783911 
L 190.373489 278.580654 
L 188.587889 278.287785 
L 186.766577 277.882176 
L 185.695278 277.57377 
L 184.980977 277.261176 
L 183.195377 276.242314 
L 181.465208 274.91265 
L 181.409777 274.819288 
L 180.253899 272.25153 
z
" clip-path="url(#pa734338111)" style="fill: none; stroke: #0b559f; stroke-width: 1.5"/>
   </g>
   <g id="PathCollection_8"/>
   <g id="patch_3">
    <path d="M 34.240625 288.21825 
L 34.240625 22.10625 
" style="fill: none; stroke: #000000; stroke-width: 0.8; stroke-linejoin: miter; stroke-linecap: square"/>
   </g>
   <g id="patch_4">
    <path d="M 391.360625 288.21825 
L 391.360625 22.10625 
" style="fill: none; stroke: #000000; stroke-width: 0.8; stroke-linejoin: miter; stroke-linecap: square"/>
   </g>
   <g id="patch_5">
    <path d="M 34.240625 288.21825 
L 391.360625 288.21825 
" style="fill: none; stroke: #000000; stroke-width: 0.8; stroke-linejoin: miter; stroke-linecap: square"/>
   </g>
   <g id="patch_6">
    <path d="M 34.240625 22.10625 
L 391.360625 22.10625 
" style="fill: none; stroke: #000000; stroke-width: 0.8; stroke-linejoin: miter; stroke-linecap: square"/>
   </g>
   <g id="text_16">
    <!-- 9.3_cross_22.0 -->
    <g transform="translate(168.34625 16.10625)scale(0.12 -0.12)">
     <defs>
      <path id="DejaVuSans-39" d="M 703 97 
L 703 672 
Q 941 559 1184 500 
Q 1428 441 1663 441 
Q 2288 441 2617 861 
Q 2947 1281 2994 2138 
Q 2813 1869 2534 1725 
Q 2256 1581 1919 1581 
Q 1219 1581 811 2004 
Q 403 2428 403 3163 
Q 403 3881 828 4315 
Q 1253 4750 1959 4750 
Q 2769 4750 3195 4129 
Q 3622 3509 3622 2328 
Q 3622 1225 3098 567 
Q 2575 -91 1691 -91 
Q 1453 -91 1209 -44 
Q 966 3 703 97 
z
M 1959 2075 
Q 2384 2075 2632 2365 
Q 2881 2656 2881 3163 
Q 2881 3666 2632 3958 
Q 2384 4250 1959 4250 
Q 1534 4250 1286 3958 
Q 1038 3666 1038 3163 
Q 1038 2656 1286 2365 
Q 1534 2075 1959 2075 
z
" transform="scale(0.015625)"/>
      <path id="DejaVuSans-2e" d="M 684 794 
L 1344 794 
L 1344 0 
L 684 0 
L 684 794 
z
" transform="scale(0.015625)"/>
      <path id="DejaVuSans-5f" d="M 3263 -1063 
L 3263 -1509 
L -63 -1509 
L -63 -1063 
L 3263 -1063 
z
" transform="scale(0.015625)"/>
      <path id="DejaVuSans-63" d="M 3122 3366 
L 3122 2828 
Q 2878 2963 2633 3030 
Q 2388 3097 2138 3097 
Q 1578 3097 1268 2742 
Q 959 2388 959 1747 
Q 959 1106 1268 751 
Q 1578 397 2138 397 
Q 2388 397 2633 464 
Q 2878 531 3122 666 
L 3122 134 
Q 2881 22 2623 -34 
Q 2366 -91 2075 -91 
Q 1284 -91 818 406 
Q 353 903 353 1747 
Q 353 2603 823 3093 
Q 1294 3584 2113 3584 
Q 2378 3584 2631 3529 
Q 2884 3475 3122 3366 
z
" transform="scale(0.015625)"/>
      <path id="DejaVuSans-72" d="M 2631 2963 
Q 2534 3019 2420 3045 
Q 2306 3072 2169 3072 
Q 1681 3072 1420 2755 
Q 1159 2438 1159 1844 
L 1159 0 
L 581 0 
L 581 3500 
L 1159 3500 
L 1159 2956 
Q 1341 3275 1631 3429 
Q 1922 3584 2338 3584 
Q 2397 3584 2469 3576 
Q 2541 3569 2628 3553 
L 2631 2963 
z
" transform="scale(0.015625)"/>
      <path id="DejaVuSans-73" d="M 2834 3397 
L 2834 2853 
Q 2591 2978 2328 3040 
Q 2066 3103 1784 3103 
Q 1356 3103 1142 2972 
Q 928 2841 928 2578 
Q 928 2378 1081 2264 
Q 1234 2150 1697 2047 
L 1894 2003 
Q 2506 1872 2764 1633 
Q 3022 1394 3022 966 
Q 3022 478 2636 193 
Q 2250 -91 1575 -91 
Q 1294 -91 989 -36 
Q 684 19 347 128 
L 347 722 
Q 666 556 975 473 
Q 1284 391 1588 391 
Q 1994 391 2212 530 
Q 2431 669 2431 922 
Q 2431 1156 2273 1281 
Q 2116 1406 1581 1522 
L 1381 1569 
Q 847 1681 609 1914 
Q 372 2147 372 2553 
Q 372 3047 722 3315 
Q 1072 3584 1716 3584 
Q 2034 3584 2315 3537 
Q 2597 3491 2834 3397 
z
" transform="scale(0.015625)"/>
     </defs>
     <use xlink:href="#DejaVuSans-39"/>
     <use xlink:href="#DejaVuSans-2e" x="63.623047"/>
     <use xlink:href="#DejaVuSans-33" x="95.410156"/>
     <use xlink:href="#DejaVuSans-5f" x="159.033203"/>
     <use xlink:href="#DejaVuSans-63" x="209.033203"/>
     <use xlink:href="#DejaVuSans-72" x="264.013672"/>
     <use xlink:href="#DejaVuSans-6f" x="302.876953"/>
     <use xlink:href="#DejaVuSans-73" x="364.058594"/>
     <use xlink:href="#DejaVuSans-73" x="416.158203"/>
     <use xlink:href="#DejaVuSans-5f" x="468.257812"/>
     <use xlink:href="#DejaVuSans-32" x="518.257812"/>
     <use xlink:href="#DejaVuSans-32" x="581.880859"/>
     <use xlink:href="#DejaVuSans-2e" x="645.503906"/>
     <use xlink:href="#DejaVuSans-30" x="677.291016"/>
    </g>
   </g>
  </g>
 </g>
 <defs>
  <clipPath id="pa734338111">
   <rect x="34.240625" y="22.10625" width="357.12" height="266.112"/>
  </clipPath>
 </defs>
</svg>
