<?xml version="1.0" encoding="utf-8" standalone="no"?>
<!DOCTYPE svg PUBLIC "-//W3C//DTD SVG 1.1//EN"
  "http://www.w3.org/Graphics/SVG/1.1/DTD/svg11.dtd">
<svg xmlns:xlink="http://www.w3.org/1999/xlink" width="408.104375pt" height="325.7745pt" viewBox="0 0 408.104375 325.7745" xmlns="http://www.w3.org/2000/svg" version="1.1">
 <metadata>
  <rdf:RDF xmlns:dc="http://purl.org/dc/elements/1.1/" xmlns:cc="http://creativecommons.org/ns#" xmlns:rdf="http://www.w3.org/1999/02/22-rdf-syntax-ns#">
   <cc:Work>
    <dc:type rdf:resource="http://purl.org/dc/dcmitype/StillImage"/>
    <dc:date>2024-07-12T12:12:27.753037</dc:date>
    <dc:format>image/svg+xml</dc:format>
    <dc:creator>
     <cc:Agent>
      <dc:title>Matplotlib v3.5.3, https://matplotlib.org/</dc:title>
     </cc:Agent>
    </dc:creator>
   </cc:Work>
  </rdf:RDF>
 </metadata>
 <defs>
  <style type="text/css">*{stroke-linejoin: round; stroke-linecap: butt}</style>
 </defs>
 <g id="figure_1">
  <g id="patch_1">
   <path d="M 0 325.7745 
L 408.104375 325.7745 
L 408.104375 0 
L 0 0 
z
" style="fill: #ffffff"/>
  </g>
  <g id="axes_1">
   <g id="patch_2">
    <path d="M 34.240625 288.21825 
L 391.360625 288.21825 
L 391.360625 22.10625 
L 34.240625 22.10625 
z
" style="fill: #ffffff"/>
   </g>
   <g id="matplotlib.axis_1">
    <g id="xtick_1">
     <g id="line2d_1">
      <defs>
       <path id="m75793dc827" d="M 0 0 
L 0 3.5 
" style="stroke: #000000; stroke-width: 0.8"/>
      </defs>
      <g>
       <use xlink:href="#m75793dc827" x="34.240625" y="288.21825" style="stroke: #000000; stroke-width: 0.8"/>
      </g>
     </g>
     <g id="text_1">
      <!-- 0 -->
      <g transform="translate(31.059375 302.816687)scale(0.1 -0.1)">
       <defs>
        <path id="DejaVuSans-30" d="M 2034 4250 
Q 1547 4250 1301 3770 
Q 1056 3291 1056 2328 
Q 1056 1369 1301 889 
Q 1547 409 2034 409 
Q 2525 409 2770 889 
Q 3016 1369 3016 2328 
Q 3016 3291 2770 3770 
Q 2525 4250 2034 4250 
z
M 2034 4750 
Q 2819 4750 3233 4129 
Q 3647 3509 3647 2328 
Q 3647 1150 3233 529 
Q 2819 -91 2034 -91 
Q 1250 -91 836 529 
Q 422 1150 422 2328 
Q 422 3509 836 4129 
Q 1250 4750 2034 4750 
z
" transform="scale(0.015625)"/>
       </defs>
       <use xlink:href="#DejaVuSans-30"/>
      </g>
     </g>
    </g>
    <g id="xtick_2">
     <g id="line2d_2">
      <g>
       <use xlink:href="#m75793dc827" x="105.664625" y="288.21825" style="stroke: #000000; stroke-width: 0.8"/>
      </g>
     </g>
     <g id="text_2">
      <!-- 20 -->
      <g transform="translate(99.302125 302.816687)scale(0.1 -0.1)">
       <defs>
        <path id="DejaVuSans-32" d="M 1228 531 
L 3431 531 
L 3431 0 
L 469 0 
L 469 531 
Q 828 903 1448 1529 
Q 2069 2156 2228 2338 
Q 2531 2678 2651 2914 
Q 2772 3150 2772 3378 
Q 2772 3750 2511 3984 
Q 2250 4219 1831 4219 
Q 1534 4219 1204 4116 
Q 875 4013 500 3803 
L 500 4441 
Q 881 4594 1212 4672 
Q 1544 4750 1819 4750 
Q 2544 4750 2975 4387 
Q 3406 4025 3406 3419 
Q 3406 3131 3298 2873 
Q 3191 2616 2906 2266 
Q 2828 2175 2409 1742 
Q 1991 1309 1228 531 
z
" transform="scale(0.015625)"/>
       </defs>
       <use xlink:href="#DejaVuSans-32"/>
       <use xlink:href="#DejaVuSans-30" x="63.623047"/>
      </g>
     </g>
    </g>
    <g id="xtick_3">
     <g id="line2d_3">
      <g>
       <use xlink:href="#m75793dc827" x="177.088625" y="288.21825" style="stroke: #000000; stroke-width: 0.8"/>
      </g>
     </g>
     <g id="text_3">
      <!-- 40 -->
      <g transform="translate(170.726125 302.816687)scale(0.1 -0.1)">
       <defs>
        <path id="DejaVuSans-34" d="M 2419 4116 
L 825 1625 
L 2419 1625 
L 2419 4116 
z
M 2253 4666 
L 3047 4666 
L 3047 1625 
L 3713 1625 
L 3713 1100 
L 3047 1100 
L 3047 0 
L 2419 0 
L 2419 1100 
L 313 1100 
L 313 1709 
L 2253 4666 
z
" transform="scale(0.015625)"/>
       </defs>
       <use xlink:href="#DejaVuSans-34"/>
       <use xlink:href="#DejaVuSans-30" x="63.623047"/>
      </g>
     </g>
    </g>
    <g id="xtick_4">
     <g id="line2d_4">
      <g>
       <use xlink:href="#m75793dc827" x="248.512625" y="288.21825" style="stroke: #000000; stroke-width: 0.8"/>
      </g>
     </g>
     <g id="text_4">
      <!-- 60 -->
      <g transform="translate(242.150125 302.816687)scale(0.1 -0.1)">
       <defs>
        <path id="DejaVuSans-36" d="M 2113 2584 
Q 1688 2584 1439 2293 
Q 1191 2003 1191 1497 
Q 1191 994 1439 701 
Q 1688 409 2113 409 
Q 2538 409 2786 701 
Q 3034 994 3034 1497 
Q 3034 2003 2786 2293 
Q 2538 2584 2113 2584 
z
M 3366 4563 
L 3366 3988 
Q 3128 4100 2886 4159 
Q 2644 4219 2406 4219 
Q 1781 4219 1451 3797 
Q 1122 3375 1075 2522 
Q 1259 2794 1537 2939 
Q 1816 3084 2150 3084 
Q 2853 3084 3261 2657 
Q 3669 2231 3669 1497 
Q 3669 778 3244 343 
Q 2819 -91 2113 -91 
Q 1303 -91 875 529 
Q 447 1150 447 2328 
Q 447 3434 972 4092 
Q 1497 4750 2381 4750 
Q 2619 4750 2861 4703 
Q 3103 4656 3366 4563 
z
" transform="scale(0.015625)"/>
       </defs>
       <use xlink:href="#DejaVuSans-36"/>
       <use xlink:href="#DejaVuSans-30" x="63.623047"/>
      </g>
     </g>
    </g>
    <g id="xtick_5">
     <g id="line2d_5">
      <g>
       <use xlink:href="#m75793dc827" x="319.936625" y="288.21825" style="stroke: #000000; stroke-width: 0.8"/>
      </g>
     </g>
     <g id="text_5">
      <!-- 80 -->
      <g transform="translate(313.574125 302.816687)scale(0.1 -0.1)">
       <defs>
        <path id="DejaVuSans-38" d="M 2034 2216 
Q 1584 2216 1326 1975 
Q 1069 1734 1069 1313 
Q 1069 891 1326 650 
Q 1584 409 2034 409 
Q 2484 409 2743 651 
Q 3003 894 3003 1313 
Q 3003 1734 2745 1975 
Q 2488 2216 2034 2216 
z
M 1403 2484 
Q 997 2584 770 2862 
Q 544 3141 544 3541 
Q 544 4100 942 4425 
Q 1341 4750 2034 4750 
Q 2731 4750 3128 4425 
Q 3525 4100 3525 3541 
Q 3525 3141 3298 2862 
Q 3072 2584 2669 2484 
Q 3125 2378 3379 2068 
Q 3634 1759 3634 1313 
Q 3634 634 3220 271 
Q 2806 -91 2034 -91 
Q 1263 -91 848 271 
Q 434 634 434 1313 
Q 434 1759 690 2068 
Q 947 2378 1403 2484 
z
M 1172 3481 
Q 1172 3119 1398 2916 
Q 1625 2713 2034 2713 
Q 2441 2713 2670 2916 
Q 2900 3119 2900 3481 
Q 2900 3844 2670 4047 
Q 2441 4250 2034 4250 
Q 1625 4250 1398 4047 
Q 1172 3844 1172 3481 
z
" transform="scale(0.015625)"/>
       </defs>
       <use xlink:href="#DejaVuSans-38"/>
       <use xlink:href="#DejaVuSans-30" x="63.623047"/>
      </g>
     </g>
    </g>
    <g id="xtick_6">
     <g id="line2d_6">
      <g>
       <use xlink:href="#m75793dc827" x="391.360625" y="288.21825" style="stroke: #000000; stroke-width: 0.8"/>
      </g>
     </g>
     <g id="text_6">
      <!-- 100 -->
      <g transform="translate(381.816875 302.816687)scale(0.1 -0.1)">
       <defs>
        <path id="DejaVuSans-31" d="M 794 531 
L 1825 531 
L 1825 4091 
L 703 3866 
L 703 4441 
L 1819 4666 
L 2450 4666 
L 2450 531 
L 3481 531 
L 3481 0 
L 794 0 
L 794 531 
z
" transform="scale(0.015625)"/>
       </defs>
       <use xlink:href="#DejaVuSans-31"/>
       <use xlink:href="#DejaVuSans-30" x="63.623047"/>
       <use xlink:href="#DejaVuSans-30" x="127.246094"/>
      </g>
     </g>
    </g>
    <g id="text_7">
     <!-- axialRotation -->
     <g transform="translate(180.024844 316.494812)scale(0.1 -0.1)">
      <defs>
       <path id="DejaVuSans-61" d="M 2194 1759 
Q 1497 1759 1228 1600 
Q 959 1441 959 1056 
Q 959 750 1161 570 
Q 1363 391 1709 391 
Q 2188 391 2477 730 
Q 2766 1069 2766 1631 
L 2766 1759 
L 2194 1759 
z
M 3341 1997 
L 3341 0 
L 2766 0 
L 2766 531 
Q 2569 213 2275 61 
Q 1981 -91 1556 -91 
Q 1019 -91 701 211 
Q 384 513 384 1019 
Q 384 1609 779 1909 
Q 1175 2209 1959 2209 
L 2766 2209 
L 2766 2266 
Q 2766 2663 2505 2880 
Q 2244 3097 1772 3097 
Q 1472 3097 1187 3025 
Q 903 2953 641 2809 
L 641 3341 
Q 956 3463 1253 3523 
Q 1550 3584 1831 3584 
Q 2591 3584 2966 3190 
Q 3341 2797 3341 1997 
z
" transform="scale(0.015625)"/>
       <path id="DejaVuSans-78" d="M 3513 3500 
L 2247 1797 
L 3578 0 
L 2900 0 
L 1881 1375 
L 863 0 
L 184 0 
L 1544 1831 
L 300 3500 
L 978 3500 
L 1906 2253 
L 2834 3500 
L 3513 3500 
z
" transform="scale(0.015625)"/>
       <path id="DejaVuSans-69" d="M 603 3500 
L 1178 3500 
L 1178 0 
L 603 0 
L 603 3500 
z
M 603 4863 
L 1178 4863 
L 1178 4134 
L 603 4134 
L 603 4863 
z
" transform="scale(0.015625)"/>
       <path id="DejaVuSans-6c" d="M 603 4863 
L 1178 4863 
L 1178 0 
L 603 0 
L 603 4863 
z
" transform="scale(0.015625)"/>
       <path id="DejaVuSans-52" d="M 2841 2188 
Q 3044 2119 3236 1894 
Q 3428 1669 3622 1275 
L 4263 0 
L 3584 0 
L 2988 1197 
Q 2756 1666 2539 1819 
Q 2322 1972 1947 1972 
L 1259 1972 
L 1259 0 
L 628 0 
L 628 4666 
L 2053 4666 
Q 2853 4666 3247 4331 
Q 3641 3997 3641 3322 
Q 3641 2881 3436 2590 
Q 3231 2300 2841 2188 
z
M 1259 4147 
L 1259 2491 
L 2053 2491 
Q 2509 2491 2742 2702 
Q 2975 2913 2975 3322 
Q 2975 3731 2742 3939 
Q 2509 4147 2053 4147 
L 1259 4147 
z
" transform="scale(0.015625)"/>
       <path id="DejaVuSans-6f" d="M 1959 3097 
Q 1497 3097 1228 2736 
Q 959 2375 959 1747 
Q 959 1119 1226 758 
Q 1494 397 1959 397 
Q 2419 397 2687 759 
Q 2956 1122 2956 1747 
Q 2956 2369 2687 2733 
Q 2419 3097 1959 3097 
z
M 1959 3584 
Q 2709 3584 3137 3096 
Q 3566 2609 3566 1747 
Q 3566 888 3137 398 
Q 2709 -91 1959 -91 
Q 1206 -91 779 398 
Q 353 888 353 1747 
Q 353 2609 779 3096 
Q 1206 3584 1959 3584 
z
" transform="scale(0.015625)"/>
       <path id="DejaVuSans-74" d="M 1172 4494 
L 1172 3500 
L 2356 3500 
L 2356 3053 
L 1172 3053 
L 1172 1153 
Q 1172 725 1289 603 
Q 1406 481 1766 481 
L 2356 481 
L 2356 0 
L 1766 0 
Q 1100 0 847 248 
Q 594 497 594 1153 
L 594 3053 
L 172 3053 
L 172 3500 
L 594 3500 
L 594 4494 
L 1172 4494 
z
" transform="scale(0.015625)"/>
       <path id="DejaVuSans-6e" d="M 3513 2113 
L 3513 0 
L 2938 0 
L 2938 2094 
Q 2938 2591 2744 2837 
Q 2550 3084 2163 3084 
Q 1697 3084 1428 2787 
Q 1159 2491 1159 1978 
L 1159 0 
L 581 0 
L 581 3500 
L 1159 3500 
L 1159 2956 
Q 1366 3272 1645 3428 
Q 1925 3584 2291 3584 
Q 2894 3584 3203 3211 
Q 3513 2838 3513 2113 
z
" transform="scale(0.015625)"/>
      </defs>
      <use xlink:href="#DejaVuSans-61"/>
      <use xlink:href="#DejaVuSans-78" x="61.279297"/>
      <use xlink:href="#DejaVuSans-69" x="120.458984"/>
      <use xlink:href="#DejaVuSans-61" x="148.242188"/>
      <use xlink:href="#DejaVuSans-6c" x="209.521484"/>
      <use xlink:href="#DejaVuSans-52" x="237.304688"/>
      <use xlink:href="#DejaVuSans-6f" x="302.287109"/>
      <use xlink:href="#DejaVuSans-74" x="363.46875"/>
      <use xlink:href="#DejaVuSans-61" x="402.677734"/>
      <use xlink:href="#DejaVuSans-74" x="463.957031"/>
      <use xlink:href="#DejaVuSans-69" x="503.166016"/>
      <use xlink:href="#DejaVuSans-6f" x="530.949219"/>
      <use xlink:href="#DejaVuSans-6e" x="592.130859"/>
     </g>
    </g>
   </g>
   <g id="matplotlib.axis_2">
    <g id="ytick_1">
     <g id="line2d_7">
      <defs>
       <path id="m155e732365" d="M 0 0 
L -3.5 0 
" style="stroke: #000000; stroke-width: 0.8"/>
      </defs>
      <g>
       <use xlink:href="#m155e732365" x="34.240625" y="288.21825" style="stroke: #000000; stroke-width: 0.8"/>
      </g>
     </g>
     <g id="text_8">
      <!-- 0 -->
      <g transform="translate(20.878125 292.017469)scale(0.1 -0.1)">
       <use xlink:href="#DejaVuSans-30"/>
      </g>
     </g>
    </g>
    <g id="ytick_2">
     <g id="line2d_8">
      <g>
       <use xlink:href="#m155e732365" x="34.240625" y="243.86625" style="stroke: #000000; stroke-width: 0.8"/>
      </g>
     </g>
     <g id="text_9">
      <!-- 1 -->
      <g transform="translate(20.878125 247.665469)scale(0.1 -0.1)">
       <use xlink:href="#DejaVuSans-31"/>
      </g>
     </g>
    </g>
    <g id="ytick_3">
     <g id="line2d_9">
      <g>
       <use xlink:href="#m155e732365" x="34.240625" y="199.51425" style="stroke: #000000; stroke-width: 0.8"/>
      </g>
     </g>
     <g id="text_10">
      <!-- 2 -->
      <g transform="translate(20.878125 203.313469)scale(0.1 -0.1)">
       <use xlink:href="#DejaVuSans-32"/>
      </g>
     </g>
    </g>
    <g id="ytick_4">
     <g id="line2d_10">
      <g>
       <use xlink:href="#m155e732365" x="34.240625" y="155.16225" style="stroke: #000000; stroke-width: 0.8"/>
      </g>
     </g>
     <g id="text_11">
      <!-- 3 -->
      <g transform="translate(20.878125 158.961469)scale(0.1 -0.1)">
       <defs>
        <path id="DejaVuSans-33" d="M 2597 2516 
Q 3050 2419 3304 2112 
Q 3559 1806 3559 1356 
Q 3559 666 3084 287 
Q 2609 -91 1734 -91 
Q 1441 -91 1130 -33 
Q 819 25 488 141 
L 488 750 
Q 750 597 1062 519 
Q 1375 441 1716 441 
Q 2309 441 2620 675 
Q 2931 909 2931 1356 
Q 2931 1769 2642 2001 
Q 2353 2234 1838 2234 
L 1294 2234 
L 1294 2753 
L 1863 2753 
Q 2328 2753 2575 2939 
Q 2822 3125 2822 3475 
Q 2822 3834 2567 4026 
Q 2313 4219 1838 4219 
Q 1578 4219 1281 4162 
Q 984 4106 628 3988 
L 628 4550 
Q 988 4650 1302 4700 
Q 1616 4750 1894 4750 
Q 2613 4750 3031 4423 
Q 3450 4097 3450 3541 
Q 3450 3153 3228 2886 
Q 3006 2619 2597 2516 
z
" transform="scale(0.015625)"/>
       </defs>
       <use xlink:href="#DejaVuSans-33"/>
      </g>
     </g>
    </g>
    <g id="ytick_5">
     <g id="line2d_11">
      <g>
       <use xlink:href="#m155e732365" x="34.240625" y="110.81025" style="stroke: #000000; stroke-width: 0.8"/>
      </g>
     </g>
     <g id="text_12">
      <!-- 4 -->
      <g transform="translate(20.878125 114.609469)scale(0.1 -0.1)">
       <use xlink:href="#DejaVuSans-34"/>
      </g>
     </g>
    </g>
    <g id="ytick_6">
     <g id="line2d_12">
      <g>
       <use xlink:href="#m155e732365" x="34.240625" y="66.45825" style="stroke: #000000; stroke-width: 0.8"/>
      </g>
     </g>
     <g id="text_13">
      <!-- 5 -->
      <g transform="translate(20.878125 70.257469)scale(0.1 -0.1)">
       <defs>
        <path id="DejaVuSans-35" d="M 691 4666 
L 3169 4666 
L 3169 4134 
L 1269 4134 
L 1269 2991 
Q 1406 3038 1543 3061 
Q 1681 3084 1819 3084 
Q 2600 3084 3056 2656 
Q 3513 2228 3513 1497 
Q 3513 744 3044 326 
Q 2575 -91 1722 -91 
Q 1428 -91 1123 -41 
Q 819 9 494 109 
L 494 744 
Q 775 591 1075 516 
Q 1375 441 1709 441 
Q 2250 441 2565 725 
Q 2881 1009 2881 1497 
Q 2881 1984 2565 2268 
Q 2250 2553 1709 2553 
Q 1456 2553 1204 2497 
Q 953 2441 691 2322 
L 691 4666 
z
" transform="scale(0.015625)"/>
       </defs>
       <use xlink:href="#DejaVuSans-35"/>
      </g>
     </g>
    </g>
    <g id="ytick_7">
     <g id="line2d_13">
      <g>
       <use xlink:href="#m155e732365" x="34.240625" y="22.10625" style="stroke: #000000; stroke-width: 0.8"/>
      </g>
     </g>
     <g id="text_14">
      <!-- 6 -->
      <g transform="translate(20.878125 25.905469)scale(0.1 -0.1)">
       <use xlink:href="#DejaVuSans-36"/>
      </g>
     </g>
    </g>
    <g id="text_15">
     <!-- zShift -->
     <g transform="translate(14.798438 169.151312)rotate(-90)scale(0.1 -0.1)">
      <defs>
       <path id="DejaVuSans-7a" d="M 353 3500 
L 3084 3500 
L 3084 2975 
L 922 459 
L 3084 459 
L 3084 0 
L 275 0 
L 275 525 
L 2438 3041 
L 353 3041 
L 353 3500 
z
" transform="scale(0.015625)"/>
       <path id="DejaVuSans-53" d="M 3425 4513 
L 3425 3897 
Q 3066 4069 2747 4153 
Q 2428 4238 2131 4238 
Q 1616 4238 1336 4038 
Q 1056 3838 1056 3469 
Q 1056 3159 1242 3001 
Q 1428 2844 1947 2747 
L 2328 2669 
Q 3034 2534 3370 2195 
Q 3706 1856 3706 1288 
Q 3706 609 3251 259 
Q 2797 -91 1919 -91 
Q 1588 -91 1214 -16 
Q 841 59 441 206 
L 441 856 
Q 825 641 1194 531 
Q 1563 422 1919 422 
Q 2459 422 2753 634 
Q 3047 847 3047 1241 
Q 3047 1584 2836 1778 
Q 2625 1972 2144 2069 
L 1759 2144 
Q 1053 2284 737 2584 
Q 422 2884 422 3419 
Q 422 4038 858 4394 
Q 1294 4750 2059 4750 
Q 2388 4750 2728 4690 
Q 3069 4631 3425 4513 
z
" transform="scale(0.015625)"/>
       <path id="DejaVuSans-68" d="M 3513 2113 
L 3513 0 
L 2938 0 
L 2938 2094 
Q 2938 2591 2744 2837 
Q 2550 3084 2163 3084 
Q 1697 3084 1428 2787 
Q 1159 2491 1159 1978 
L 1159 0 
L 581 0 
L 581 4863 
L 1159 4863 
L 1159 2956 
Q 1366 3272 1645 3428 
Q 1925 3584 2291 3584 
Q 2894 3584 3203 3211 
Q 3513 2838 3513 2113 
z
" transform="scale(0.015625)"/>
       <path id="DejaVuSans-66" d="M 2375 4863 
L 2375 4384 
L 1825 4384 
Q 1516 4384 1395 4259 
Q 1275 4134 1275 3809 
L 1275 3500 
L 2222 3500 
L 2222 3053 
L 1275 3053 
L 1275 0 
L 697 0 
L 697 3053 
L 147 3053 
L 147 3500 
L 697 3500 
L 697 3744 
Q 697 4328 969 4595 
Q 1241 4863 1831 4863 
L 2375 4863 
z
" transform="scale(0.015625)"/>
      </defs>
      <use xlink:href="#DejaVuSans-7a"/>
      <use xlink:href="#DejaVuSans-53" x="52.490234"/>
      <use xlink:href="#DejaVuSans-68" x="115.966797"/>
      <use xlink:href="#DejaVuSans-69" x="179.345703"/>
      <use xlink:href="#DejaVuSans-66" x="207.128906"/>
      <use xlink:href="#DejaVuSans-74" x="240.583984"/>
     </g>
    </g>
   </g>
   <g id="PathCollection_1"/>
   <g id="PathCollection_2">
    <path d="M 34.240625 134.279216 
L 35.798269 132.09921 
L 36.026225 131.786516 
L 37.762356 129.43809 
L 37.847537 129.324558 
L 39.633137 126.963413 
L 39.775733 126.77697 
L 41.418737 124.637036 
L 41.825285 124.11585 
L 43.204337 122.344721 
L 43.908236 121.45473 
L 45.025649 120.035706 
L 46.019623 118.79361 
L 46.811249 117.795014 
L 48.152002 116.13249 
L 48.596849 115.574009 
L 50.300618 113.47137 
L 50.382449 113.368865 
L 52.203761 111.099036 
L 52.438133 110.81025 
L 53.989361 108.868157 
L 54.572635 108.14913 
L 55.774961 106.641982 
L 56.709883 105.48801 
L 57.560561 104.420385 
L 58.849317 102.82689 
L 59.381873 102.158809 
L 60.99524 100.16577 
L 61.167473 99.94966 
L 62.953073 97.727646 
L 63.133751 97.50465 
L 64.738673 95.494654 
L 65.266546 94.84353 
L 66.559985 93.225502 
L 67.40649 92.18241 
L 68.345585 91.004969 
L 69.547149 89.52129 
L 70.131185 88.779711 
L 71.916785 86.568023 
L 72.039253 86.41665 
L 73.738097 84.257005 
L 74.136745 83.75553 
L 75.523697 81.968145 
L 76.207937 81.09441 
L 77.309297 79.64872 
L 78.240983 78.43329 
L 79.094897 77.282482 
L 80.216776 75.77217 
L 80.916209 74.793943 
L 82.113714 73.11105 
L 82.701809 72.242805 
L 83.902348 70.44993 
L 84.487409 69.521326 
L 85.557116 67.78881 
L 86.273009 66.541276 
L 87.06 65.12769 
L 88.094321 63.110236 
L 88.411805 62.46657 
L 89.599903 59.80545 
L 89.879921 59.114638 
L 90.639542 57.14433 
L 91.596955 54.48321 
L 91.665521 54.279089 
L 92.448028 51.82209 
L 93.298298 49.16097 
L 93.451121 48.690512 
L 94.129787 46.49985 
L 95.192817 43.39521 
L 95.272433 43.183527 
L 96.164315 40.73409 
L 97.058033 38.603182 
L 97.275819 38.07297 
L 98.505814 35.41185 
L 98.843633 34.759567 
L 99.879854 32.75073 
L 100.629233 31.448313 
L 101.414555 30.08961 
L 102.450545 28.453858 
L 103.10849 27.42849 
L 104.236145 25.790515 
L 104.95605 24.76737 
L 106.021745 23.331761 
L 106.959021 22.10625 
" clip-path="url(#p7a498257ff)" style="fill: none; stroke: #dbe9f6; stroke-width: 1.5"/>
    <path d="M 117.906697 288.21825 
L 117.797417 285.55713 
L 117.994953 282.89601 
L 118.592369 279.869388 
L 119.221582 277.57377 
L 120.377969 274.579432 
L 122.163569 270.872954 
L 122.840487 269.59041 
L 125.770481 264.848737 
L 128.293709 261.16353 
L 132.948593 254.899482 
L 140.60872 245.19681 
L 154.482929 227.923153 
L 168.839153 210.154345 
L 185.707371 188.86977 
L 189.550207 183.54753 
L 192.159089 179.530245 
L 193.944689 176.435236 
L 195.766001 172.869594 
L 195.95968 172.45953 
L 197.551601 168.60967 
L 199.337201 163.483661 
L 202.450193 153.83169 
L 204.56568 148.50945 
L 206.515313 144.458099 
L 208.300913 141.215512 
L 210.122225 138.233128 
L 212.123181 135.20385 
L 216.258356 129.43809 
L 220.871537 123.421643 
L 233.442161 107.702956 
L 254.976497 80.962758 
L 280.082033 49.77942 
L 301.616369 23.460064 
L 302.805988 22.10625 
L 302.805988 22.10625 
" clip-path="url(#p7a498257ff)" style="fill: none; stroke: #dbe9f6; stroke-width: 1.5"/>
    <path d="M 236.271136 22.10625 
L 236.378793 24.76737 
L 236.184343 27.42849 
L 235.699884 30.08961 
L 234.948857 32.75073 
L 233.442161 36.539661 
L 232.749123 38.07297 
L 231.330233 40.73409 
L 228.049649 46.009898 
L 225.8782 49.16097 
L 220.871537 55.891734 
L 213.693425 64.962498 
L 137.896562 159.15393 
L 131.764281 167.13729 
L 128.009585 172.45953 
L 125.770481 176.036466 
L 123.984881 179.219137 
L 121.918168 183.54753 
L 119.900127 188.86977 
L 114.985457 203.528777 
L 114.475774 204.83649 
L 111.995497 210.15873 
L 109.628657 214.36287 
L 107.244004 218.14209 
L 103.184702 223.90785 
L 98.843633 229.6191 
L 89.879921 240.852458 
L 79.094897 253.809408 
L 72.533239 261.16353 
L 69.980307 263.82465 
L 66.559985 267.19532 
L 62.953073 270.447381 
L 59.381873 273.294095 
L 55.774961 275.766134 
L 52.203761 277.78811 
L 50.382449 278.691658 
L 46.811249 280.093625 
L 43.204337 281.157743 
L 39.633137 281.80322 
L 36.026225 282.061883 
L 34.240625 282.045812 
L 34.240625 282.045812 
" clip-path="url(#p7a498257ff)" style="fill: none; stroke: #dbe9f6; stroke-width: 1.5"/>
    <path d="M 310.518281 288.21825 
L 309.735694 285.55713 
L 309.186269 282.89601 
L 308.834185 280.23489 
L 308.794481 279.648844 
L 308.642455 277.57377 
L 308.62246 274.91265 
L 308.77331 272.25153 
L 308.794481 272.074674 
L 309.070799 269.59041 
L 309.534897 266.92929 
L 310.313763 263.82465 
L 310.615793 262.89692 
L 311.159071 261.16353 
L 312.199548 258.50241 
L 312.401393 258.060586 
L 313.397978 255.84129 
L 314.186993 254.331631 
L 314.784364 253.18017 
L 315.972593 251.141106 
L 316.334854 250.51905 
L 317.793905 248.224467 
L 318.028132 247.85793 
L 319.579505 245.572733 
L 319.837178 245.19681 
L 321.365105 243.054791 
L 321.739907 242.53569 
L 323.150705 240.627602 
L 323.714795 239.87457 
L 324.972017 238.218792 
L 325.746484 237.21345 
L 326.757617 235.905194 
L 327.82074 234.55233 
L 328.543217 233.630486 
L 329.930987 231.89121 
L 330.328817 231.389086 
L 332.071006 229.23009 
L 332.150129 229.131168 
L 333.935729 226.911637 
L 334.215871 226.56897 
L 335.721329 224.703621 
L 336.376972 223.90785 
L 337.506929 222.503683 
L 338.928356 220.80321 
L 339.328241 220.313213 
L 341.113841 218.171869 
L 341.138813 218.14209 
L 342.899441 216.007278 
L 343.34487 215.48097 
L 344.685041 213.871358 
L 345.585811 212.81985 
L 346.506353 211.729992 
L 347.87762 210.15873 
L 348.291953 209.676584 
L 350.077553 207.663287 
L 350.227709 207.49761 
L 351.863153 205.66629 
L 352.638843 204.83649 
L 353.684465 203.701541 
L 355.166914 202.17537 
L 355.470065 201.85759 
L 357.255665 200.054918 
L 357.819936 199.51425 
L 359.041265 198.320844 
L 360.661238 196.85313 
L 360.862577 196.666934 
L 362.648177 195.088702 
L 363.75421 194.19201 
L 364.433777 193.627364 
L 366.219377 192.250632 
L 367.243522 191.53089 
L 368.040689 190.954766 
L 369.826289 189.776874 
L 371.379684 188.86977 
L 371.611889 188.728961 
L 373.397489 187.738429 
L 375.218801 186.865238 
L 376.80699 186.20865 
L 377.004401 186.122544 
L 378.790001 185.438212 
L 380.575601 184.868942 
L 382.396913 184.39807 
L 384.182513 184.037618 
L 385.968113 183.772889 
L 387.753713 183.601224 
L 388.97337 183.54753 
L 389.575025 183.518461 
L 391.360625 183.535096 
" clip-path="url(#p7a498257ff)" style="fill: none; stroke: #dbe9f6; stroke-width: 1.5"/>
    <path d="M 391.360625 45.274817 
L 389.575025 49.897829 
L 387.753713 55.241795 
L 383.817075 67.78881 
L 381.719589 73.11105 
L 379.088539 78.43329 
L 377.004401 82.012208 
L 374.147482 86.41665 
L 371.611889 89.984639 
L 365.91786 97.50465 
L 359.041265 106.192225 
L 351.120165 116.13249 
L 345.056555 124.11585 
L 341.406734 129.43809 
L 339.328241 132.905681 
L 337.506929 136.34731 
L 335.631911 140.52609 
L 333.717492 145.84833 
L 330.265938 156.49281 
L 328.543217 160.913698 
L 328.170633 161.81505 
L 326.757617 164.801117 
L 324.972017 168.166213 
L 323.150705 171.238714 
L 320.620964 175.12065 
L 317.793905 179.101529 
L 314.186993 183.897012 
L 305.223281 195.278725 
L 297.598962 204.83649 
L 291.545449 212.81985 
L 287.901134 218.14209 
L 285.474545 222.241461 
L 283.688945 225.700708 
L 282.143476 229.23009 
L 281.155585 231.89121 
L 279.413246 237.21345 
L 276.84158 245.19681 
L 274.724685 250.51905 
L 272.903921 254.307852 
L 271.118321 257.54576 
L 269.332721 260.461605 
L 267.097319 263.82465 
L 262.908568 269.59041 
L 258.547697 275.216563 
L 251.369585 284.071577 
L 247.800433 288.21825 
L 247.800433 288.21825 
" clip-path="url(#p7a498257ff)" style="fill: none; stroke: #dbe9f6; stroke-width: 1.5"/>
   </g>
   <g id="PathCollection_3">
    <path d="M 34.240625 154.794856 
L 34.599273 153.83169 
L 35.712247 151.17057 
L 36.026225 150.499649 
L 36.956705 148.50945 
L 37.847537 146.809824 
L 38.353693 145.84833 
L 39.633137 143.63812 
L 39.896368 143.18721 
L 41.418737 140.76862 
L 41.572999 140.52609 
L 43.204337 138.101981 
L 43.36557 137.86497 
L 45.025649 135.522242 
L 45.253705 135.20385 
L 46.811249 133.08076 
L 47.545627 132.09921 
L 48.596849 130.712145 
L 49.572782 129.43809 
L 50.382449 128.389684 
L 51.640663 126.77697 
L 52.203761 126.058282 
L 53.741285 124.11585 
L 53.989361 123.802319 
L 55.774961 121.564539 
L 55.862886 121.45473 
L 57.560561 119.328021 
L 57.991004 118.79361 
L 59.381873 117.058139 
L 60.13012 116.13249 
L 61.167473 114.838714 
L 62.27337 113.47137 
L 62.953073 112.622877 
L 64.417548 110.81025 
L 64.738673 110.40876 
L 66.559985 108.15021 
L 66.560856 108.14913 
L 68.345585 105.916349 
L 68.690737 105.48801 
L 70.131185 103.686583 
L 70.824562 102.82689 
L 71.916785 101.462675 
L 72.964114 100.16577 
L 73.738097 99.200674 
L 75.110168 97.50465 
L 75.523697 96.988771 
L 77.25867 94.84353 
L 77.309297 94.780227 
L 79.094897 92.549649 
L 79.390446 92.18241 
L 80.916209 90.26351 
L 81.509664 89.52129 
L 82.701809 87.99977 
L 83.958554 86.41665 
L 84.487409 85.734618 
L 86.027092 83.75553 
L 86.273009 83.432233 
L 88.052361 81.09441 
L 88.094321 81.037747 
L 89.879921 78.612931 
L 90.011641 78.43329 
L 91.665521 76.090617 
L 91.888628 75.77217 
L 93.451121 73.428255 
L 93.659795 73.11105 
L 95.272433 70.4998 
L 95.302659 70.44993 
L 96.786687 67.78881 
L 97.058033 67.256655 
L 98.113331 65.12769 
L 98.843633 63.503296 
L 99.295447 62.46657 
L 100.34271 59.80545 
L 100.629233 59.007745 
L 101.276361 57.14433 
L 102.14659 54.48321 
L 102.450545 53.52741 
L 102.977332 51.82209 
L 103.81922 49.16097 
L 104.236145 47.922772 
L 104.706404 46.49985 
L 105.852955 43.39521 
L 106.021745 42.98835 
L 106.951599 40.73409 
L 107.807345 38.91186 
L 108.201978 38.07297 
L 109.614115 35.41185 
L 109.628657 35.386896 
L 111.184505 32.75073 
L 111.414257 32.395002 
L 112.93247 30.08961 
L 113.199857 29.712423 
L 114.861093 27.42849 
L 114.985457 27.267394 
L 116.806769 24.970649 
L 116.972899 24.76737 
L 118.592369 22.880137 
L 119.285967 22.10625 
" clip-path="url(#p7a498257ff)" style="fill: none; stroke: #bad6eb; stroke-width: 1.5"/>
    <path d="M 130.010851 288.21825 
L 129.664596 285.55713 
L 129.716918 282.89601 
L 130.124553 280.23489 
L 131.162993 276.779448 
L 131.866275 274.91265 
L 133.127909 272.25153 
L 134.734193 269.357477 
L 136.519793 266.480389 
L 140.192509 261.16353 
L 145.519217 254.129849 
L 152.697329 245.111615 
L 176.522862 215.48097 
L 193.944689 193.599016 
L 197.551601 188.746944 
L 201.122801 183.479055 
L 202.944113 180.435309 
L 204.729713 177.051052 
L 206.515313 173.130274 
L 207.797525 169.79841 
L 209.555874 164.47617 
L 212.146102 156.49281 
L 213.693425 152.509013 
L 214.252066 151.17057 
L 215.509385 148.50945 
L 217.300337 145.146918 
L 219.085937 142.145752 
L 221.901605 137.86497 
L 226.093828 132.09921 
L 231.656561 124.902882 
L 242.962869 110.81025 
L 267.547121 80.261316 
L 307.008881 31.542824 
L 312.401393 25.396164 
L 315.521781 22.10625 
L 315.521781 22.10625 
" clip-path="url(#p7a498257ff)" style="fill: none; stroke: #bad6eb; stroke-width: 1.5"/>
    <path d="M 224.164103 22.10625 
L 224.509086 24.76737 
L 224.455614 27.42849 
L 224.050353 30.08961 
L 223.322815 32.75073 
L 222.307975 35.41185 
L 220.871537 38.395914 
L 219.085937 41.556744 
L 217.300337 44.38647 
L 213.98888 49.16097 
L 209.983063 54.48321 
L 202.944113 63.397505 
L 123.944219 161.81505 
L 120.055645 167.13729 
L 116.556684 172.45953 
L 114.985457 175.166749 
L 113.199857 178.684231 
L 111.140107 183.54753 
L 109.310978 188.86977 
L 106.772151 196.85313 
L 104.770835 202.17537 
L 103.59156 204.83649 
L 102.264201 207.49761 
L 100.629233 210.435782 
L 97.448971 215.48097 
L 93.662485 220.80321 
L 89.258305 226.56897 
L 84.487409 232.536701 
L 76.140474 242.53569 
L 71.487889 247.85793 
L 68.345585 251.297848 
L 63.864694 255.84129 
L 60.996113 258.50241 
L 57.560561 261.392716 
L 53.989361 263.999347 
L 52.203761 265.153499 
L 48.596849 267.093128 
L 46.811249 267.885473 
L 45.025649 268.545731 
L 43.204337 269.085456 
L 40.698338 269.59041 
L 39.633137 269.752173 
L 37.847537 269.882555 
L 36.026225 269.865887 
L 34.240625 269.695449 
L 34.240625 269.695449 
" clip-path="url(#p7a498257ff)" style="fill: none; stroke: #bad6eb; stroke-width: 1.5"/>
    <path d="M 321.879246 288.21825 
L 321.365105 286.98076 
L 320.789301 285.55713 
L 320.008283 282.89601 
L 319.579505 280.659388 
L 319.497328 280.23489 
L 319.21578 277.57377 
L 319.158374 274.91265 
L 319.312915 272.25153 
L 319.579505 270.292459 
L 319.671817 269.59041 
L 320.220451 266.92929 
L 321.12688 263.82465 
L 321.365105 263.184287 
L 322.110413 261.16353 
L 323.150705 258.837409 
L 323.300364 258.50241 
L 324.666195 255.84129 
L 324.972017 255.30873 
L 326.202754 253.18017 
L 326.757617 252.299649 
L 327.890926 250.51905 
L 328.543217 249.555044 
L 329.704619 247.85793 
L 330.328817 246.982895 
L 331.61756 245.19681 
L 332.150129 244.478801 
L 333.608438 242.53569 
L 333.935729 242.106428 
L 335.65911 239.87457 
L 335.721329 239.794662 
L 337.506929 237.517388 
L 337.747915 237.21345 
L 339.328241 235.228855 
L 339.874425 234.55233 
L 341.113841 233.016639 
L 342.036204 231.89121 
L 342.899441 230.834169 
L 344.23143 229.23009 
L 344.685041 228.680299 
L 346.458272 226.56897 
L 346.506353 226.511274 
L 348.291953 224.388842 
L 348.704601 223.90785 
L 350.077553 222.285679 
L 351.374259 220.80321 
L 351.863153 220.236495 
L 353.684465 218.181246 
L 353.719807 218.14209 
L 355.470065 216.188017 
L 356.126176 215.48097 
L 357.255665 214.255195 
L 358.634715 212.81985 
L 359.041265 212.393721 
L 360.862577 210.559546 
L 361.278501 210.15873 
L 362.648177 208.829509 
L 364.108542 207.49761 
L 364.433777 207.198337 
L 366.219377 205.640799 
L 367.210437 204.83649 
L 368.040689 204.155952 
L 369.826289 202.801516 
L 370.725407 202.17537 
L 371.611889 201.550215 
L 373.397489 200.407815 
L 374.968114 199.51425 
L 375.218801 199.369532 
L 377.004401 198.454709 
L 378.790001 197.67168 
L 380.575601 197.016718 
L 381.128756 196.85313 
L 382.396913 196.470681 
L 384.182513 196.067414 
L 385.968113 195.800061 
L 387.753713 195.671607 
L 389.575025 195.689239 
L 391.360625 195.860304 
" clip-path="url(#p7a498257ff)" style="fill: none; stroke: #bad6eb; stroke-width: 1.5"/>
    <path d="M 384.908319 22.10625 
L 385.333937 24.76737 
L 385.384076 27.42849 
L 385.118798 30.08961 
L 384.590645 32.75073 
L 382.999658 38.07297 
L 378.790001 49.990258 
L 376.61649 57.14433 
L 375.003258 62.46657 
L 373.128207 67.78881 
L 371.611889 71.330781 
L 369.826289 74.934698 
L 368.040689 78.097011 
L 366.168097 81.09441 
L 362.48946 86.41665 
L 357.255665 93.369546 
L 349.76004 102.82689 
L 339.230726 116.13249 
L 335.274957 121.45473 
L 331.662759 126.77697 
L 330.044735 129.43809 
L 328.543217 132.166786 
L 326.757617 135.93417 
L 324.930964 140.52609 
L 322.352126 148.50945 
L 320.596216 153.83169 
L 318.485705 159.15393 
L 317.235512 161.81505 
L 315.834984 164.47617 
L 314.186993 167.311021 
L 310.830049 172.45953 
L 306.646214 178.22529 
L 300.458644 186.20865 
L 283.657698 207.49761 
L 279.848751 212.81985 
L 278.097154 215.48097 
L 276.47844 218.14209 
L 274.725233 221.401505 
L 272.903921 225.328311 
L 271.376803 229.23009 
L 269.620663 234.55233 
L 267.04212 242.53569 
L 264.933937 247.85793 
L 263.678451 250.51905 
L 262.154609 253.398364 
L 260.369009 256.437834 
L 257.269517 261.16353 
L 253.065447 266.92929 
L 247.798385 273.696351 
L 242.405873 280.23545 
L 237.739172 285.55713 
L 235.223632 288.21825 
L 235.223632 288.21825 
" clip-path="url(#p7a498257ff)" style="fill: none; stroke: #bad6eb; stroke-width: 1.5"/>
   </g>
   <g id="PathCollection_4">
    <path d="M 34.240625 178.354329 
L 34.29773 178.22529 
L 35.558683 175.12065 
L 36.026225 173.858552 
L 36.536212 172.45953 
L 37.431767 169.79841 
L 37.847537 168.490077 
L 38.27202 167.13729 
L 39.088219 164.47617 
L 39.633137 162.737236 
L 39.920573 161.81505 
L 40.800798 159.15393 
L 41.418737 157.454512 
L 41.769359 156.49281 
L 42.851111 153.83169 
L 43.204337 153.055047 
L 44.068919 151.17057 
L 45.025649 149.303907 
L 45.437557 148.50945 
L 46.811249 146.099435 
L 46.956217 145.84833 
L 48.596849 143.216309 
L 48.615215 143.18721 
L 50.382449 140.54709 
L 50.396662 140.52609 
L 52.203761 137.969402 
L 52.278269 137.86497 
L 53.989361 135.537843 
L 54.236888 135.20385 
L 55.774961 133.170344 
L 56.593234 132.09921 
L 57.560561 130.849406 
L 58.659355 129.43809 
L 59.381873 128.518282 
L 60.757148 126.77697 
L 61.167473 126.260071 
L 62.878556 124.11585 
L 62.953073 124.02266 
L 64.738673 121.794964 
L 65.012153 121.45473 
L 66.559985 119.529229 
L 67.153064 118.79361 
L 68.345585 117.310781 
L 69.295778 116.13249 
L 70.131185 115.092433 
L 71.436713 113.47137 
L 71.916785 112.872658 
L 73.575005 110.81025 
L 73.738097 110.606682 
L 75.523697 108.381558 
L 75.710395 108.14913 
L 77.309297 106.155164 
L 77.845808 105.48801 
L 79.094897 103.932652 
L 79.985692 102.82689 
L 80.916209 101.669987 
L 82.129855 100.16577 
L 82.701809 99.454479 
L 84.274335 97.50465 
L 84.487409 97.238975 
L 86.273009 95.015508 
L 86.411025 94.84353 
L 88.094321 92.730825 
L 88.531372 92.18241 
L 89.879921 90.473208 
L 90.630687 89.52129 
L 91.665521 88.188948 
L 93.043642 86.41665 
L 93.451121 85.882153 
L 95.067575 83.75553 
L 95.272433 83.479629 
L 97.034349 81.09441 
L 97.058033 81.061285 
L 98.843633 78.54317 
L 98.920852 78.43329 
L 100.629233 75.886158 
L 100.704753 75.77217 
L 102.361539 73.11105 
L 102.450545 72.956883 
L 103.871295 70.44993 
L 104.236145 69.744707 
L 105.227707 67.78881 
L 106.021745 66.052099 
L 106.435801 65.12769 
L 107.506184 62.46657 
L 107.807345 61.639692 
L 108.462846 59.80545 
L 109.342404 57.14433 
L 109.628657 56.239453 
L 110.177183 54.48321 
L 111.01055 51.82209 
L 111.414257 50.591162 
L 111.881606 49.16097 
L 112.828872 46.49985 
L 113.199857 45.569583 
L 114.07535 43.39521 
L 114.985457 41.412764 
L 115.300737 40.73409 
L 116.690998 38.07297 
L 116.806769 37.873184 
L 118.26022 35.41185 
L 118.592369 34.900479 
L 120.021792 32.75073 
L 120.377969 32.256867 
L 121.985743 30.08961 
L 122.163569 29.865984 
L 123.984881 27.644973 
L 124.16829 27.42849 
L 125.770481 25.651091 
L 126.603396 24.76737 
L 127.556081 23.812009 
L 129.341681 22.118408 
L 129.35503 22.10625 
" clip-path="url(#p7a498257ff)" style="fill: none; stroke: #89bedc; stroke-width: 1.5"/>
    <path d="M 140.125221 288.21825 
L 139.362144 285.55713 
L 139.144595 282.89601 
L 139.384565 280.23489 
L 140.126705 277.26295 
L 140.968189 274.91265 
L 142.199122 272.25153 
L 143.697905 269.519933 
L 145.519217 266.585019 
L 149.279616 261.16353 
L 154.482929 254.342165 
L 163.88353 242.53569 
L 187.79866 212.81985 
L 199.337201 198.359042 
L 202.944113 193.621426 
L 206.515313 188.630762 
L 209.755081 183.54753 
L 211.907825 179.56932 
L 212.574262 178.22529 
L 213.94276 175.12065 
L 215.898254 169.79841 
L 220.278517 156.49281 
L 221.363227 153.83169 
L 222.657137 151.028945 
L 224.478449 147.577336 
L 226.264049 144.564038 
L 228.908905 140.52609 
L 232.751148 135.20385 
L 237.179928 129.43809 
L 246.012785 118.382453 
L 291.053189 62.46657 
L 307.008881 42.78122 
L 314.186993 34.225891 
L 317.888584 30.08961 
L 321.365105 26.479919 
L 324.972017 23.113426 
L 326.15363 22.10625 
L 326.15363 22.10625 
" clip-path="url(#p7a498257ff)" style="fill: none; stroke: #89bedc; stroke-width: 1.5"/>
    <path d="M 214.050701 22.10625 
L 214.814966 24.76737 
L 215.032464 27.42849 
L 214.792485 30.08961 
L 214.164576 32.75073 
L 213.208454 35.41185 
L 211.907825 38.199485 
L 210.122225 41.387904 
L 208.300913 44.273686 
L 204.729713 49.386415 
L 199.337201 56.43594 
L 190.288852 67.78881 
L 168.492237 94.84353 
L 118.592369 156.982207 
L 114.938384 161.81505 
L 111.196802 167.13729 
L 109.490002 169.79841 
L 107.807345 172.673379 
L 106.021745 176.147189 
L 104.236145 180.194482 
L 102.977589 183.54753 
L 100.629233 190.841739 
L 98.843633 196.250195 
L 97.611454 199.51425 
L 96.46075 202.17537 
L 95.164144 204.83649 
L 93.451121 207.949328 
L 91.665521 210.87175 
L 88.547833 215.48097 
L 84.487409 220.934188 
L 79.094897 227.70577 
L 73.314124 234.55233 
L 68.345585 240.124952 
L 63.475635 245.19681 
L 60.694154 247.85793 
L 57.560561 250.602056 
L 53.989361 253.323114 
L 50.382449 255.581072 
L 48.596849 256.498319 
L 46.811249 257.270521 
L 45.025649 257.892299 
L 42.318741 258.50241 
L 41.418737 258.645439 
L 39.633137 258.739372 
L 37.160934 258.50241 
L 36.026225 258.275742 
L 34.240625 257.654084 
L 34.240625 257.654084 
" clip-path="url(#p7a498257ff)" style="fill: none; stroke: #89bedc; stroke-width: 1.5"/>
    <path d="M 331.373046 288.21825 
L 330.328817 286.513376 
L 329.784726 285.55713 
L 328.662225 282.89601 
L 328.543217 282.484215 
L 327.916523 280.23489 
L 327.492182 277.57377 
L 327.352456 274.91265 
L 327.473498 272.25153 
L 327.841142 269.59041 
L 328.448355 266.92929 
L 328.543217 266.631772 
L 329.442591 263.82465 
L 330.328817 261.667891 
L 330.53774 261.16353 
L 331.838345 258.50241 
L 332.150129 257.940684 
L 333.329036 255.84129 
L 333.935729 254.859642 
L 334.98667 253.18017 
L 335.721329 252.084171 
L 336.783189 250.51905 
L 337.506929 249.502187 
L 338.690527 247.85793 
L 339.328241 247.000646 
L 340.684751 245.19681 
L 341.113841 244.638366 
L 342.747556 242.53569 
L 342.899441 242.342945 
L 344.685041 240.099646 
L 344.866089 239.87457 
L 346.506353 237.855194 
L 347.034658 237.21345 
L 348.291953 235.694892 
L 349.25248 234.55233 
L 350.077553 233.573263 
L 351.519834 231.89121 
L 351.863153 231.490592 
L 353.684465 229.404487 
L 353.839618 229.23009 
L 355.470065 227.393479 
L 356.220679 226.56897 
L 357.255665 225.428181 
L 358.676633 223.90785 
L 359.041265 223.515655 
L 360.862577 221.621945 
L 361.68205 220.80321 
L 362.648177 219.835321 
L 364.421068 218.14209 
L 364.433777 218.129938 
L 366.219377 216.506286 
L 367.421593 215.48097 
L 368.040689 214.952994 
L 369.826289 213.536769 
L 370.808109 212.81985 
L 371.611889 212.232646 
L 373.397489 211.050357 
L 374.90774 210.15873 
L 375.218801 209.974699 
L 377.004401 209.058666 
L 378.790001 208.285693 
L 380.575601 207.661969 
L 381.218058 207.49761 
L 382.396913 207.194961 
L 384.182513 206.914331 
L 385.968113 206.820987 
L 387.753713 206.932505 
L 389.575025 207.280135 
L 390.242768 207.49761 
L 391.360625 207.896507 
" clip-path="url(#p7a498257ff)" style="fill: none; stroke: #89bedc; stroke-width: 1.5"/>
    <path d="M 374.534058 22.10625 
L 375.480508 24.76737 
L 375.882388 27.42849 
L 375.867324 30.08961 
L 375.531663 32.75073 
L 374.961234 35.41185 
L 373.397489 40.812666 
L 370.033291 51.82209 
L 366.88266 62.46657 
L 365.933058 65.12769 
L 364.433777 68.743109 
L 362.648177 72.424013 
L 362.293511 73.11105 
L 360.779161 75.77217 
L 357.344803 81.09441 
L 353.506335 86.41665 
L 348.291953 93.193788 
L 328.543217 118.389117 
L 326.377101 121.45473 
L 323.150705 126.491441 
L 321.49123 129.43809 
L 319.579505 133.4073 
L 318.796225 135.20385 
L 316.840295 140.52609 
L 312.401393 153.966165 
L 310.615793 158.152702 
L 310.153877 159.15393 
L 308.783301 161.81505 
L 307.008881 164.894796 
L 303.827461 169.79841 
L 299.830769 175.32421 
L 293.462756 183.54753 
L 276.510833 205.018869 
L 272.814461 210.15873 
L 269.412977 215.48097 
L 267.547121 218.892133 
L 265.725809 222.765507 
L 265.229282 223.90785 
L 263.273769 229.23009 
L 258.893 242.53569 
L 257.809839 245.19681 
L 256.587478 247.85793 
L 254.976497 250.949499 
L 253.190897 254.006744 
L 250.259241 258.50241 
L 246.012785 264.345163 
L 240.620273 271.242114 
L 237.013361 275.622178 
L 233.00589 280.23489 
L 229.835249 283.63293 
L 226.264049 287.111453 
L 225.027824 288.21825 
L 225.027824 288.21825 
" clip-path="url(#p7a498257ff)" style="fill: none; stroke: #89bedc; stroke-width: 1.5"/>
    <path d="M 391.360625 282.004813 
L 390.608893 282.89601 
L 389.575025 284.045784 
L 388.151095 285.55713 
L 387.753713 285.955275 
L 385.968113 287.661161 
L 385.352078 288.21825 
" clip-path="url(#p7a498257ff)" style="fill: none; stroke: #89bedc; stroke-width: 1.5"/>
   </g>
   <g id="PathCollection_5">
    <path d="M 34.240625 194.640286 
L 34.438874 194.19201 
L 35.702753 191.53089 
L 36.026225 190.876151 
L 37.023708 188.86977 
L 37.847537 187.2158 
L 38.350539 186.20865 
L 39.633137 183.55788 
L 39.638145 183.54753 
L 40.859094 180.88641 
L 41.418737 179.564355 
L 41.984058 178.22529 
L 43.167693 175.12065 
L 43.204337 175.01513 
L 44.092029 172.45953 
L 44.943521 169.79841 
L 45.025649 169.531173 
L 45.766254 167.13729 
L 46.583896 164.47617 
L 46.811249 163.766394 
L 47.444657 161.81505 
L 48.376433 159.15393 
L 48.596849 158.584856 
L 49.421557 156.49281 
L 50.382449 154.308514 
L 50.596416 153.83169 
L 51.923961 151.17057 
L 52.203761 150.661645 
L 53.40774 148.50945 
L 53.989361 147.550886 
L 55.038034 145.84833 
L 55.774961 144.726365 
L 56.798092 143.18721 
L 57.560561 142.094595 
L 58.664968 140.52609 
L 59.381873 139.543416 
L 60.61386 137.86497 
L 61.167473 137.129991 
L 62.623837 135.20385 
L 62.953073 134.777443 
L 64.738673 132.470872 
L 65.026552 132.09921 
L 66.559985 130.152118 
L 67.122478 129.43809 
L 68.345585 127.902488 
L 69.241511 126.77697 
L 70.131185 125.66831 
L 71.375412 124.11585 
L 71.916785 123.443896 
L 73.516624 121.45473 
L 73.738097 121.180056 
L 75.523697 118.963112 
L 75.659963 118.79361 
L 77.309297 116.746347 
L 77.802039 116.13249 
L 79.094897 114.524603 
L 79.939121 113.47137 
L 80.916209 112.254777 
L 82.073344 110.81025 
L 82.701809 110.028184 
L 84.208574 108.14913 
L 84.487409 107.802695 
L 86.273009 105.581606 
L 86.348205 105.48801 
L 88.094321 103.323716 
L 88.493983 102.82689 
L 89.879921 101.10897 
L 90.63828 100.16577 
L 91.665521 98.888744 
L 92.774618 97.50465 
L 93.451121 96.6585 
L 94.896136 94.84353 
L 95.272433 94.368391 
L 96.995592 92.18241 
L 97.058033 92.102566 
L 98.843633 89.811894 
L 99.068824 89.52129 
L 100.629233 87.484493 
L 101.438683 86.41665 
L 102.450545 85.056402 
L 103.410277 83.75553 
L 104.236145 82.603824 
L 105.307705 81.09441 
L 106.021745 80.046249 
L 107.107553 78.43329 
L 107.807345 77.332663 
L 108.786369 75.77217 
L 109.628657 74.32427 
L 110.324556 73.11105 
L 111.414257 71.026002 
L 111.711287 70.44993 
L 112.948135 67.78881 
L 113.199857 67.184681 
L 114.048275 65.12769 
L 114.985457 62.580931 
L 115.027326 62.46657 
L 115.922725 59.80545 
L 116.760192 57.14433 
L 116.806769 56.993925 
L 117.588536 54.48321 
L 118.438865 51.82209 
L 118.592369 51.373874 
L 119.360584 49.16097 
L 120.377969 46.51096 
L 120.382315 46.49985 
L 121.75786 43.39521 
L 122.163569 42.59009 
L 123.120818 40.73409 
L 123.984881 39.238021 
L 124.675361 38.07297 
L 125.770481 36.404851 
L 126.440972 35.41185 
L 127.556081 33.904744 
L 128.437121 32.75073 
L 129.341681 31.659853 
L 130.692207 30.08961 
L 131.162993 29.58265 
L 132.948593 27.738877 
L 133.26229 27.42849 
L 134.734193 26.078869 
L 136.24921 24.76737 
L 136.519793 24.549617 
L 138.341105 23.167486 
L 139.846697 22.10625 
" clip-path="url(#p7a498257ff)" style="fill: none; stroke: #539ecd; stroke-width: 1.5"/>
    <path d="M 150.912368 288.21825 
L 150.876017 288.166325 
L 149.271321 285.55713 
L 148.507219 282.89601 
L 148.393154 280.23489 
L 148.788499 277.57377 
L 149.596112 274.91265 
L 150.876017 271.97111 
L 152.697329 268.641394 
L 154.482929 265.795724 
L 157.693694 261.16353 
L 163.446641 253.651086 
L 170.624753 244.618552 
L 190.373489 220.085767 
L 206.842394 199.51425 
L 210.842378 194.19201 
L 214.520052 188.86977 
L 217.300337 184.250425 
L 217.696731 183.54753 
L 219.085937 180.828602 
L 220.871537 176.749337 
L 222.467803 172.45953 
L 226.794838 159.15393 
L 228.049649 156.011095 
L 229.835249 152.187647 
L 231.656561 148.817741 
L 233.460609 145.84833 
L 237.089851 140.52609 
L 241.055997 135.20385 
L 247.798385 126.638745 
L 307.008881 53.314916 
L 315.972593 42.508816 
L 319.834095 38.07297 
L 323.150705 34.4808 
L 326.757617 30.875249 
L 328.543217 29.237877 
L 332.150129 26.283217 
L 334.273318 24.76737 
L 337.506929 22.842088 
L 338.943712 22.10625 
L 338.943712 22.10625 
" clip-path="url(#p7a498257ff)" style="fill: none; stroke: #539ecd; stroke-width: 1.5"/>
    <path d="M 203.259515 22.10625 
L 204.90619 24.76737 
L 205.669075 27.42849 
L 205.783846 30.08961 
L 205.38697 32.75073 
L 204.583156 35.41185 
L 202.944113 39.028569 
L 201.122801 42.275819 
L 199.337201 45.063687 
L 197.551601 47.662951 
L 193.944689 52.535447 
L 188.251555 59.80545 
L 173.263222 78.43329 
L 143.697905 115.05637 
L 111.414257 155.369081 
L 107.807345 160.182869 
L 104.236145 165.307656 
L 101.445996 169.79841 
L 99.991158 172.45953 
L 98.689361 175.12065 
L 97.058033 178.989929 
L 95.424255 183.54753 
L 91.665521 195.119665 
L 89.879921 199.576233 
L 88.094321 203.231183 
L 86.273009 206.477719 
L 83.947652 210.15873 
L 80.147535 215.48097 
L 75.523697 221.363104 
L 71.118814 226.56897 
L 66.559985 231.589063 
L 62.953073 235.254392 
L 59.381873 238.562079 
L 55.774961 241.493639 
L 53.989361 242.7663 
L 52.203761 243.883895 
L 49.665661 245.19681 
L 48.596849 245.669399 
L 46.811249 246.266661 
L 45.025649 246.656435 
L 43.204337 246.808344 
L 41.418737 246.677237 
L 39.633137 246.220852 
L 37.579926 245.19681 
L 36.026225 243.947969 
L 34.240625 241.836472 
L 34.240625 241.836472 
" clip-path="url(#p7a498257ff)" style="fill: none; stroke: #539ecd; stroke-width: 1.5"/>
    <path d="M 341.997054 288.21825 
L 341.113841 287.46067 
L 339.328241 285.684207 
L 339.214368 285.55713 
L 337.506929 283.077892 
L 337.394365 282.89601 
L 336.215803 280.23489 
L 335.721329 278.408706 
L 335.510276 277.57377 
L 335.20657 274.91265 
L 335.242607 272.25153 
L 335.58571 269.59041 
L 335.721329 269.015224 
L 336.220702 266.92929 
L 337.292974 263.82465 
L 337.506929 263.339515 
L 338.48399 261.16353 
L 339.328241 259.558747 
L 339.893988 258.50241 
L 341.113841 256.471226 
L 341.498374 255.84129 
L 342.899441 253.727007 
L 343.267082 253.18017 
L 344.685041 251.190286 
L 345.169661 250.51905 
L 346.506353 248.741712 
L 347.179267 247.85793 
L 348.291953 246.438682 
L 349.277721 245.19681 
L 350.077553 244.210528 
L 351.454486 242.53569 
L 351.863153 242.046541 
L 353.684465 239.901591 
L 353.707892 239.87457 
L 355.470065 237.868144 
L 356.057289 237.21345 
L 357.255665 235.889806 
L 358.497026 234.55233 
L 359.041265 233.969482 
L 360.862577 232.079058 
L 361.050835 231.89121 
L 362.648177 230.304159 
L 363.774074 229.23009 
L 364.433777 228.602456 
L 366.219377 226.991494 
L 366.719374 226.56897 
L 368.040689 225.455983 
L 369.826289 224.056244 
L 370.035655 223.90785 
L 371.611889 222.799465 
L 373.397489 221.674111 
L 374.984521 220.80321 
L 375.218801 220.675894 
L 377.004401 219.891578 
L 378.790001 219.290368 
L 380.575601 218.897177 
L 382.396913 218.743354 
L 384.182513 218.875343 
L 385.968113 219.336823 
L 387.753713 220.18815 
L 388.617125 220.80321 
L 389.575025 221.610154 
L 391.360625 223.704453 
" clip-path="url(#p7a498257ff)" style="fill: none; stroke: #539ecd; stroke-width: 1.5"/>
    <path d="M 361.838959 22.10625 
L 362.648177 22.785561 
L 364.510676 24.76737 
L 365.839553 27.42849 
L 366.422252 30.08961 
L 366.499043 32.75073 
L 366.219377 35.557089 
L 365.766749 38.07297 
L 364.433777 43.698284 
L 360.862577 57.40091 
L 359.256783 62.46657 
L 358.244536 65.12769 
L 357.093725 67.78881 
L 355.470065 71.021679 
L 353.684465 74.147205 
L 350.93466 78.43329 
L 347.126128 83.75553 
L 341.113841 91.559689 
L 332.116198 102.82689 
L 324.972017 111.960683 
L 321.365105 116.84019 
L 318.205627 121.45473 
L 315.972593 125.119855 
L 314.186993 128.425304 
L 313.672996 129.43809 
L 312.401393 132.247946 
L 310.615793 136.884947 
L 309.397638 140.52609 
L 306.881793 148.50945 
L 304.897494 153.83169 
L 303.437681 157.062819 
L 301.616369 160.549604 
L 299.830769 163.576655 
L 297.513484 167.13729 
L 293.694284 172.45953 
L 289.081457 178.47288 
L 280.082033 189.722079 
L 272.325989 199.51425 
L 267.547121 205.92831 
L 264.649609 210.15873 
L 262.154609 214.274416 
L 260.369009 217.629202 
L 260.109019 218.14209 
L 258.547697 221.659909 
L 256.702237 226.56897 
L 252.374775 239.87457 
L 251.332062 242.53569 
L 249.583985 246.342441 
L 247.798385 249.702261 
L 246.012785 252.687412 
L 243.945408 255.84129 
L 240.116685 261.16353 
L 235.227761 267.460876 
L 231.291782 272.25153 
L 226.599621 277.57377 
L 224.046017 280.23489 
L 220.871537 283.250034 
L 217.300337 286.200034 
L 214.446887 288.21825 
L 214.446887 288.21825 
" clip-path="url(#p7a498257ff)" style="fill: none; stroke: #539ecd; stroke-width: 1.5"/>
    <path d="M 391.360625 269.738022 
L 389.934853 272.25153 
L 389.575025 272.813651 
L 388.189273 274.91265 
L 387.753713 275.507978 
L 386.189075 277.57377 
L 385.968113 277.84064 
L 384.182513 279.914984 
L 383.895331 280.23489 
L 382.396913 281.771221 
L 381.240208 282.89601 
L 380.575601 283.493887 
L 378.790001 285.003393 
L 378.089487 285.55713 
L 377.004401 286.351232 
L 375.218801 287.553146 
L 374.135727 288.21825 
" clip-path="url(#p7a498257ff)" style="fill: none; stroke: #539ecd; stroke-width: 1.5"/>
   </g>
   <g id="PathCollection_6">
    <path d="M 167.062431 288.21825 
L 167.053553 288.214846 
L 165.232241 287.39241 
L 163.446641 286.411497 
L 162.14354 285.55713 
L 161.661041 285.090109 
L 159.785877 282.89601 
L 158.778679 280.23489 
L 158.61444 277.57377 
L 159.06226 274.91265 
L 159.953172 272.25153 
L 161.661041 268.786508 
L 163.446641 265.799654 
L 165.232241 263.090698 
L 168.839153 258.129842 
L 174.762804 250.51905 
L 190.373489 231.088042 
L 205.199066 212.81985 
L 211.907825 204.513151 
L 217.789347 196.85313 
L 221.495398 191.53089 
L 223.166453 188.86977 
L 224.688981 186.20865 
L 226.264049 183.11319 
L 228.049649 179.021282 
L 228.373474 178.22529 
L 230.363445 172.45953 
L 233.725085 161.81505 
L 235.227761 157.981789 
L 237.013361 154.123395 
L 237.157574 153.83169 
L 238.834673 150.7903 
L 240.620273 147.885105 
L 243.81546 143.18721 
L 247.798385 137.831604 
L 254.449605 129.43809 
L 317.793905 51.676653 
L 323.150705 45.63955 
L 326.757617 41.851159 
L 330.328817 38.418996 
L 332.150129 36.84826 
L 333.935729 35.381034 
L 337.794459 32.75073 
L 339.328241 31.921218 
L 341.113841 31.091516 
L 342.899441 30.411059 
L 344.685041 29.9403 
L 346.506353 29.71524 
L 348.291953 29.735445 
L 350.202019 30.08961 
L 351.863153 30.933823 
L 353.803634 32.75073 
L 354.919291 35.41185 
L 355.314301 38.07297 
L 355.309701 40.73409 
L 355.087044 43.39521 
L 354.254156 49.16097 
L 353.196742 54.48321 
L 351.784407 59.80545 
L 350.077553 64.468948 
L 349.809939 65.12769 
L 348.291953 68.328525 
L 346.506353 71.561175 
L 344.685041 74.504372 
L 342.019167 78.43329 
L 337.506929 84.509592 
L 331.485838 92.18241 
L 320.893989 105.48801 
L 315.972593 111.954089 
L 312.401393 116.993851 
L 309.543315 121.45473 
L 307.008881 126.096622 
L 306.662198 126.77697 
L 305.223281 129.98085 
L 304.356573 132.09921 
L 302.371662 137.86497 
L 299.830769 146.11253 
L 298.010741 151.17057 
L 296.259569 155.095643 
L 294.438257 158.591649 
L 292.652657 161.60748 
L 290.783709 164.47617 
L 286.97551 169.79841 
L 281.903345 176.361855 
L 276.132916 183.54753 
L 267.520777 194.19201 
L 262.154609 201.129481 
L 259.47219 204.83649 
L 256.762097 208.939758 
L 254.976497 211.94073 
L 254.476174 212.81985 
L 253.108745 215.48097 
L 251.369585 219.391048 
L 250.792966 220.80321 
L 248.804763 226.56897 
L 245.441085 237.21345 
L 244.191473 240.465109 
L 242.405873 244.392103 
L 242.009532 245.19681 
L 240.565931 247.85793 
L 238.834673 250.7141 
L 235.227761 256.023009 
L 231.380815 261.16353 
L 226.264049 267.527432 
L 222.17071 272.25153 
L 219.085937 275.505539 
L 215.479025 278.901073 
L 213.693425 280.423196 
L 210.122225 283.040248 
L 206.515313 285.163488 
L 204.729713 286.043279 
L 201.122801 287.506897 
L 199.011102 288.21825 
L 199.011102 288.21825 
" clip-path="url(#p7a498257ff)" style="fill: none; stroke: #2b7bba; stroke-width: 1.5"/>
    <path d="M 187.098251 22.10625 
L 188.587889 22.757799 
L 190.373489 23.701642 
L 192.159089 24.875138 
L 194.382376 27.42849 
L 195.402868 30.08961 
L 195.568419 32.75073 
L 195.115409 35.41185 
L 193.944689 38.655599 
L 192.971504 40.73409 
L 191.465425 43.39521 
L 187.586559 49.16097 
L 183.195377 54.971862 
L 176.017265 64.020664 
L 167.053553 75.037838 
L 143.697905 103.669125 
L 102.450545 155.257942 
L 98.843633 160.206688 
L 95.963173 164.47617 
L 93.451121 168.697114 
L 92.833558 169.79841 
L 91.493804 172.45953 
L 89.879921 176.148812 
L 89.049261 178.22529 
L 87.242988 183.54753 
L 84.487409 192.217169 
L 82.701809 196.860601 
L 80.916209 200.5916 
L 79.094897 203.866819 
L 77.309297 206.707503 
L 74.902979 210.15873 
L 71.916785 214.020884 
L 68.345585 218.259084 
L 64.738673 222.090264 
L 62.914398 223.90785 
L 59.381873 227.020132 
L 55.774961 229.655229 
L 53.989361 230.697178 
L 52.203761 231.563996 
L 50.382449 232.19663 
L 48.596849 232.528305 
L 46.811249 232.533027 
L 45.025649 232.130145 
L 44.532526 231.89121 
L 43.204337 231.110461 
L 41.34088 229.23009 
L 39.633137 226.120907 
L 38.879333 223.90785 
L 38.160411 220.80321 
L 37.802229 218.14209 
L 37.659934 215.48097 
L 37.693758 212.81985 
L 37.904893 210.15873 
L 38.310426 207.49761 
L 38.891632 204.83649 
L 39.639624 202.17537 
L 41.418737 197.470973 
L 42.892988 194.19201 
L 49.225132 180.88641 
L 51.399986 175.12065 
L 56.637957 159.15393 
L 57.763648 156.49281 
L 59.381873 153.215644 
L 61.167473 150.056206 
L 63.847031 145.84833 
L 67.642057 140.52609 
L 73.738097 132.614328 
L 79.094897 125.913828 
L 106.074768 92.18241 
L 110.417235 86.41665 
L 114.111361 81.09441 
L 116.806769 76.684926 
L 118.592369 73.353579 
L 118.71781 73.11105 
L 120.377969 69.459608 
L 121.073219 67.78881 
L 122.950787 62.46657 
L 126.312851 51.82209 
L 127.556081 48.550353 
L 129.341681 44.664663 
L 129.985305 43.39521 
L 131.534282 40.73409 
L 133.326301 38.07297 
L 135.395846 35.41185 
L 138.341105 32.206146 
L 140.6117 30.08961 
L 144.050173 27.42849 
L 147.304817 25.43322 
L 149.090417 24.493473 
L 152.697329 22.976421 
L 155.234113 22.10625 
L 155.234113 22.10625 
" clip-path="url(#p7a498257ff)" style="fill: none; stroke: #2b7bba; stroke-width: 1.5"/>
    <path d="M 344.285972 274.91265 
L 344.054266 272.25153 
L 344.265665 269.59041 
L 344.685041 267.691731 
L 344.859552 266.92929 
L 345.988521 263.82465 
L 346.506353 262.731322 
L 347.270044 261.16353 
L 348.291953 259.371901 
L 348.800051 258.50241 
L 350.077553 256.545688 
L 350.547314 255.84129 
L 351.863153 254.017962 
L 352.480061 253.18017 
L 353.684465 251.634034 
L 354.570591 250.51905 
L 355.470065 249.434571 
L 356.805561 247.85793 
L 357.255665 247.343905 
L 359.041265 245.361043 
L 359.195624 245.19681 
L 360.862577 243.471821 
L 361.801318 242.53569 
L 362.648177 241.710923 
L 364.433777 240.053837 
L 364.642812 239.87457 
L 366.219377 238.550314 
L 367.92176 237.21345 
L 368.040689 237.121479 
L 369.826289 235.914009 
L 371.611889 234.84687 
L 372.225625 234.55233 
L 373.397489 233.998709 
L 375.218801 233.376159 
L 377.004401 233.036452 
L 378.790001 233.032191 
L 380.575601 233.449306 
L 382.396913 234.422312 
L 382.551157 234.55233 
L 384.182513 236.256461 
L 384.822655 237.21345 
L 385.968113 239.441221 
L 386.142497 239.87457 
L 386.957672 242.53569 
L 387.507745 245.19681 
L 387.753713 247.216404 
L 387.821337 247.85793 
L 387.923847 250.51905 
L 387.844231 253.18017 
L 387.753713 254.079587 
L 387.567446 255.84129 
L 387.084341 258.50241 
L 386.398553 261.16353 
L 385.968113 262.43261 
L 385.475031 263.82465 
L 384.182513 266.728698 
L 384.089724 266.92929 
L 382.595585 269.59041 
L 382.396913 269.896224 
L 380.801849 272.25153 
L 380.575601 272.546093 
L 378.790001 274.765755 
L 378.665611 274.91265 
L 377.004401 276.653608 
L 376.076358 277.57377 
L 375.218801 278.333684 
L 373.397489 279.833867 
L 372.866603 280.23489 
L 371.611889 281.080103 
L 369.826289 282.161982 
L 368.455509 282.89601 
L 368.040689 283.09396 
L 366.219377 283.826882 
L 364.433777 284.411388 
L 362.648177 284.856856 
L 360.862577 285.155535 
L 359.041265 285.299345 
L 357.255665 285.271569 
L 355.470065 285.063934 
L 353.684465 284.661757 
L 351.863153 284.033503 
L 350.077553 283.18381 
L 349.599944 282.89601 
L 348.291953 281.863626 
L 346.648746 280.23489 
L 346.506353 280.029506 
L 345.083291 277.57377 
L 344.685041 276.337815 
L 344.285972 274.91265 
z
" clip-path="url(#p7a498257ff)" style="fill: none; stroke: #2b7bba; stroke-width: 1.5"/>
   </g>
   <g id="PathCollection_7">
    <path d="M 52.583985 207.49761 
L 52.312207 204.83649 
L 52.706937 202.17537 
L 53.448862 199.51425 
L 53.989361 198.043846 
L 54.457667 196.85313 
L 55.632421 194.19201 
L 55.774961 193.893312 
L 56.969162 191.53089 
L 57.560561 190.322883 
L 58.323162 188.86977 
L 59.381873 186.662739 
L 59.619398 186.20865 
L 60.87537 183.54753 
L 61.167473 182.831928 
L 62.044573 180.88641 
L 62.953073 178.363804 
L 63.009621 178.22529 
L 64.081805 175.12065 
L 64.738673 172.686023 
L 64.808552 172.45953 
L 65.573367 169.79841 
L 66.263835 167.13729 
L 66.559985 166.06735 
L 67.047842 164.47617 
L 67.924813 161.81505 
L 68.345585 160.691966 
L 68.964736 159.15393 
L 70.131185 156.501124 
L 70.13506 156.49281 
L 71.558441 153.83169 
L 71.916785 153.218236 
L 73.144683 151.17057 
L 73.738097 150.251119 
L 74.875997 148.50945 
L 75.523697 147.580456 
L 76.729823 145.84833 
L 77.309297 145.060319 
L 78.67273 143.18721 
L 79.094897 142.633742 
L 80.678784 140.52609 
L 80.916209 140.222137 
L 82.701809 137.896927 
L 82.726283 137.86497 
L 84.487409 135.665269 
L 84.846002 135.20385 
L 86.273009 133.473422 
L 87.337237 132.09921 
L 88.094321 131.170551 
L 89.465714 129.43809 
L 89.879921 128.93221 
L 91.590713 126.77697 
L 91.665521 126.685539 
L 93.451121 124.493601 
L 93.750517 124.11585 
L 95.272433 122.252525 
L 95.902645 121.45473 
L 97.058033 120.03839 
L 98.040138 118.79361 
L 98.843633 117.807218 
L 100.165151 116.13249 
L 100.629233 115.563068 
L 102.285155 113.47137 
L 102.450545 113.268472 
L 104.236145 111.051924 
L 104.426993 110.81025 
L 106.021745 108.864544 
L 106.587466 108.14913 
L 107.807345 106.657443 
L 108.732354 105.48801 
L 109.628657 104.383364 
L 110.85134 102.82689 
L 111.414257 102.126912 
L 112.940668 100.16577 
L 113.199857 99.838654 
L 114.985457 97.515359 
L 114.993617 97.50465 
L 116.806769 95.152231 
L 117.036797 94.84353 
L 118.592369 92.769755 
L 119.01834 92.18241 
L 120.377969 90.298708 
L 120.921569 89.52129 
L 122.163569 87.73125 
L 123.024041 86.41665 
L 123.984881 84.896609 
L 124.689783 83.75553 
L 125.770481 81.877464 
L 126.212484 81.09441 
L 127.556081 78.45746 
L 127.568249 78.43329 
L 128.816124 75.77217 
L 129.341681 74.470084 
L 129.893876 73.11105 
L 130.832134 70.44993 
L 131.162993 69.392137 
L 131.676949 67.78881 
L 132.438856 65.12769 
L 132.948593 63.193758 
L 133.14794 62.46657 
L 133.875629 59.80545 
L 134.606314 57.14433 
L 134.734193 56.72211 
L 135.44663 54.48321 
L 136.377036 51.82209 
L 136.519793 51.47002 
L 137.503483 49.16097 
L 138.341105 47.435825 
L 138.81785 46.49985 
L 140.126705 44.301897 
L 140.685726 43.39521 
L 141.912305 41.691265 
L 142.630477 40.73409 
L 143.697905 39.494038 
L 144.974004 38.07297 
L 145.519217 37.5432 
L 147.304817 35.903985 
L 147.87368 35.41185 
L 149.090417 34.503456 
L 150.876017 33.256952 
L 151.663964 32.75073 
L 152.697329 32.183057 
L 154.482929 31.299859 
L 156.268529 30.505585 
L 157.336109 30.08961 
L 158.054129 29.85364 
L 159.875441 29.351805 
L 161.661041 28.949516 
L 163.446641 28.637298 
L 165.232241 28.417292 
L 167.053553 28.291375 
L 168.839153 28.269592 
L 170.624753 28.355734 
L 172.410353 28.559899 
L 174.231665 28.904115 
L 176.017265 29.393987 
L 177.802865 30.060181 
L 177.865881 30.08961 
L 179.588465 31.369786 
L 180.968073 32.75073 
L 181.409777 33.793924 
L 181.946822 35.41185 
L 181.862555 38.07297 
L 181.409777 39.675642 
L 181.114271 40.73409 
L 179.908869 43.39521 
L 179.588465 43.935821 
L 178.109926 46.49985 
L 177.802865 46.955403 
L 176.334549 49.16097 
L 176.017265 49.597122 
L 174.418316 51.82209 
L 174.231665 52.066586 
L 172.410353 54.477522 
L 172.406063 54.48321 
L 170.624753 56.737573 
L 170.306587 57.14433 
L 168.839153 58.957197 
L 168.158192 59.80545 
L 167.053553 61.14488 
L 165.969552 62.46657 
L 165.232241 63.347194 
L 163.747553 65.12769 
L 163.446641 65.482007 
L 161.661041 67.576477 
L 161.477852 67.78881 
L 159.875441 69.620135 
L 159.150469 70.44993 
L 158.054129 71.695877 
L 156.811573 73.11105 
L 156.268529 73.727058 
L 154.482929 75.760626 
L 154.472508 75.77217 
L 152.697329 77.743128 
L 152.078335 78.43329 
L 150.876017 79.781928 
L 149.713948 81.09441 
L 149.090417 81.800807 
L 147.384034 83.75553 
L 147.304817 83.846305 
L 145.519217 85.856462 
L 145.026143 86.41665 
L 143.697905 87.910296 
L 142.332027 89.52129 
L 141.912305 90.007599 
L 140.126705 92.115364 
L 140.069406 92.18241 
L 138.341105 94.18524 
L 137.788908 94.84353 
L 136.519793 96.341529 
L 135.562683 97.50465 
L 134.734193 98.495319 
L 133.379199 100.16577 
L 132.948593 100.686461 
L 131.230201 102.82689 
L 131.162993 102.908728 
L 129.341681 105.133314 
L 129.058879 105.48801 
L 127.556081 107.314818 
L 126.892629 108.14913 
L 125.770481 109.514014 
L 124.739463 110.81025 
L 123.984881 111.727652 
L 122.594187 113.47137 
L 122.163569 113.995897 
L 120.461727 116.13249 
L 120.377969 116.234566 
L 118.592369 118.422144 
L 118.297792 118.79361 
L 116.806769 120.612195 
L 116.138897 121.45473 
L 114.985457 122.869329 
L 114.001017 124.11585 
L 113.199857 125.099017 
L 111.875467 126.77697 
L 111.414257 127.343055 
L 109.758686 129.43809 
L 109.628657 129.597448 
L 107.807345 131.855035 
L 107.61451 132.09921 
L 106.021745 134.007615 
L 105.090265 135.20385 
L 104.236145 136.246616 
L 102.953676 137.86497 
L 102.450545 138.481687 
L 100.832344 140.52609 
L 100.629233 140.777299 
L 98.843633 143.024436 
L 98.716226 143.18721 
L 97.058033 145.253713 
L 96.596281 145.84833 
L 95.272433 147.520345 
L 94.510421 148.50945 
L 93.451121 149.871085 
L 92.463346 151.17057 
L 91.665521 152.214964 
L 90.454705 153.83169 
L 89.879921 154.604402 
L 88.493877 156.49281 
L 88.094321 157.049876 
L 86.590043 159.15393 
L 86.273009 159.618978 
L 84.763999 161.81505 
L 84.487409 162.246924 
L 83.030146 164.47617 
L 82.701809 165.031897 
L 81.409132 167.13729 
L 80.916209 168.057408 
L 79.923213 169.79841 
L 79.094897 171.538452 
L 78.61549 172.45953 
L 77.480992 175.12065 
L 77.309297 175.60066 
L 76.286123 178.22529 
L 75.523697 180.769053 
L 75.483535 180.88641 
L 74.661285 183.54753 
L 73.95076 186.20865 
L 73.738097 186.973042 
L 73.146048 188.86977 
L 72.283344 191.53089 
L 71.916785 192.52294 
L 71.237735 194.19201 
L 70.131185 196.658649 
L 70.03569 196.85313 
L 68.536042 199.51425 
L 68.345585 199.814413 
L 66.746918 202.17537 
L 66.559985 202.424377 
L 64.738673 204.673677 
L 64.592138 204.83649 
L 62.953073 206.474743 
L 61.831274 207.49761 
L 61.167473 208.047937 
L 59.381873 209.243367 
L 57.569031 210.15873 
L 57.560561 210.162606 
L 55.774961 210.41998 
L 54.733438 210.15873 
L 53.989361 209.813614 
L 52.583985 207.49761 
z
" clip-path="url(#p7a498257ff)" style="fill: none; stroke: #0b559f; stroke-width: 1.5"/>
    <path d="M 172.214287 274.91265 
L 172.296926 272.25153 
L 172.410353 271.860972 
L 173.061563 269.59041 
L 174.231665 266.956721 
L 174.243697 266.92929 
L 176.017265 263.856019 
L 176.034803 263.82465 
L 177.796695 261.16353 
L 177.802865 261.154993 
L 179.588465 258.661968 
L 179.701087 258.50241 
L 181.409777 256.227662 
L 181.695633 255.84129 
L 183.195377 253.903314 
L 183.746233 253.18017 
L 184.980977 251.612644 
L 185.829344 250.51905 
L 186.766577 249.343265 
L 187.934207 247.85793 
L 188.587889 247.044624 
L 190.053161 245.19681 
L 190.373489 244.801473 
L 192.159089 242.569375 
L 192.186024 242.53569 
L 193.944689 240.382684 
L 194.353911 239.87457 
L 195.766001 238.151099 
L 196.523913 237.21345 
L 197.551601 235.962846 
L 198.69535 234.55233 
L 199.337201 233.772419 
L 200.867209 231.89121 
L 201.122801 231.581356 
L 202.944113 229.363487 
L 203.054004 229.23009 
L 204.729713 227.228279 
L 205.277516 226.56897 
L 206.515313 225.102729 
L 207.518358 223.90785 
L 208.300913 222.996442 
L 210.122225 220.834484 
L 210.14903 220.80321 
L 211.907825 218.791801 
L 212.474297 218.14209 
L 213.693425 216.752954 
L 214.805808 215.48097 
L 215.479025 214.71172 
L 217.128653 212.81985 
L 217.300337 212.621567 
L 219.085937 210.58925 
L 219.465881 210.15873 
L 220.871537 208.54232 
L 221.772172 207.49761 
L 222.657137 206.450086 
L 224.006428 204.83649 
L 224.478449 204.255612 
L 226.146947 202.17537 
L 226.264049 202.024306 
L 228.049649 199.708041 
L 228.19773 199.51425 
L 229.835249 197.251895 
L 230.118663 196.85313 
L 231.656561 194.520236 
L 231.869263 194.19201 
L 233.437921 191.53089 
L 233.442161 191.523034 
L 234.861052 188.86977 
L 235.227761 188.084032 
L 236.10168 186.20865 
L 237.013361 183.900411 
L 237.154064 183.54753 
L 238.110088 180.88641 
L 238.834673 178.493063 
L 238.917976 178.22529 
L 239.813005 175.12065 
L 240.504412 172.45953 
L 240.620273 172.01985 
L 241.232223 169.79841 
L 241.980889 167.13729 
L 242.405873 165.744979 
L 242.812408 164.47617 
L 243.759497 161.81505 
L 244.191473 160.738181 
L 244.855674 159.15393 
L 246.012785 156.665068 
L 246.096065 156.49281 
L 247.533459 153.83169 
L 247.798385 153.383632 
L 249.137793 151.17057 
L 249.583985 150.484758 
L 250.889725 148.50945 
L 251.369585 147.824313 
L 252.767879 145.84833 
L 253.190897 145.276294 
L 254.744126 143.18721 
L 254.976497 142.885741 
L 256.762097 140.575872 
L 256.801041 140.52609 
L 258.547697 138.359318 
L 258.94652 137.86497 
L 260.369009 136.142901 
L 261.144734 135.20385 
L 262.154609 134.016442 
L 263.755823 132.09921 
L 263.940209 131.88366 
L 265.725809 129.821793 
L 266.061168 129.43809 
L 267.547121 127.751688 
L 268.405081 126.77697 
L 269.332721 125.728015 
L 270.753155 124.11585 
L 271.118321 123.701674 
L 272.903921 121.68737 
L 273.113977 121.45473 
L 274.725233 119.658653 
L 275.496372 118.79361 
L 276.510833 117.651222 
L 277.845049 116.13249 
L 278.296433 115.61803 
L 280.082033 113.565597 
L 280.165612 113.47137 
L 281.903345 111.507022 
L 282.508239 110.81025 
L 283.688945 109.456584 
L 284.802722 108.14913 
L 285.474545 107.367148 
L 287.047831 105.48801 
L 287.260145 105.237276 
L 289.081457 103.06565 
L 289.27947 102.82689 
L 290.867057 100.943 
L 291.500927 100.16577 
L 292.652657 98.780757 
L 293.680475 97.50465 
L 294.438257 96.585233 
L 295.832411 94.84353 
L 296.259569 94.322207 
L 297.963882 92.18241 
L 298.045169 92.083275 
L 299.830769 89.89824 
L 300.13045 89.52129 
L 301.616369 87.749253 
L 302.661805 86.41665 
L 303.437681 85.473634 
L 304.808333 83.75553 
L 305.223281 83.251651 
L 306.9454 81.09441 
L 307.008881 81.017213 
L 308.794481 78.84361 
L 309.12267 78.43329 
L 310.615793 76.625295 
L 311.299559 75.77217 
L 312.401393 74.446181 
L 313.480097 73.11105 
L 314.186993 72.268588 
L 315.676649 70.44993 
L 315.972593 70.102724 
L 317.793905 67.951832 
L 317.933234 67.78881 
L 319.579505 65.958996 
L 320.315872 65.12769 
L 321.365105 64.001815 
L 322.784945 62.46657 
L 323.150705 62.089824 
L 324.972017 60.29309 
L 325.491016 59.80545 
L 326.757617 58.681313 
L 328.531245 57.14433 
L 328.543217 57.134477 
L 330.328817 55.935614 
L 332.150129 54.874262 
L 333.206954 54.48321 
L 333.935729 54.232148 
L 335.721329 54.206093 
L 336.314852 54.48321 
L 337.506929 55.705431 
L 338.031824 57.14433 
L 338.13358 59.80545 
L 337.706992 62.46657 
L 337.506929 63.101019 
L 336.836721 65.12769 
L 335.725948 67.78881 
L 335.721329 67.797518 
L 334.288458 70.44993 
L 333.935729 71.030129 
L 332.662859 73.11105 
L 332.150129 73.875684 
L 330.881528 75.77217 
L 330.328817 76.543638 
L 328.989051 78.43329 
L 328.543217 79.02662 
L 327.016738 81.09441 
L 326.757617 81.428698 
L 324.992297 83.75553 
L 324.972017 83.781142 
L 323.150705 86.081361 
L 322.892185 86.41665 
L 321.365105 88.277354 
L 320.409015 89.52129 
L 319.579505 90.542424 
L 318.288743 92.18241 
L 317.793905 92.791216 
L 316.175234 94.84353 
L 315.972593 95.094524 
L 314.186993 97.348325 
L 314.06522 97.50465 
L 312.401393 99.587019 
L 311.955395 100.16577 
L 310.615793 101.8718 
L 309.890003 102.82689 
L 308.794481 104.256891 
L 307.880278 105.48801 
L 307.008881 106.658216 
L 305.93277 108.14913 
L 305.223281 109.141231 
L 304.064246 110.81025 
L 303.437681 111.735988 
L 302.292607 113.47137 
L 301.616369 114.549799 
L 300.645381 116.13249 
L 299.830769 117.562569 
L 299.142036 118.79361 
L 298.045169 120.972429 
L 297.804938 121.45473 
L 296.602376 124.11585 
L 296.259569 124.978045 
L 295.538703 126.77697 
L 294.629963 129.43809 
L 294.438257 130.059495 
L 293.79275 132.09921 
L 292.932453 135.20385 
L 292.652657 136.273382 
L 292.219203 137.86497 
L 291.503908 140.52609 
L 290.867057 142.842241 
L 290.767486 143.18721 
L 289.918262 145.84833 
L 289.081457 148.256171 
L 288.989048 148.50945 
L 287.882204 151.17057 
L 287.260145 152.514041 
L 286.625942 153.83169 
L 285.474545 155.998327 
L 285.203506 156.49281 
L 283.688945 159.026529 
L 283.61101 159.15393 
L 281.903345 161.751902 
L 281.861151 161.81505 
L 280.082033 164.33282 
L 279.979725 164.47617 
L 278.296433 166.729955 
L 277.990893 167.13729 
L 276.510833 169.040216 
L 275.92036 169.79841 
L 274.725233 171.288145 
L 273.78497 172.45953 
L 272.903921 173.53194 
L 271.599115 175.12065 
L 271.118321 175.6897 
L 269.332721 177.809067 
L 268.980631 178.22529 
L 267.547121 179.881277 
L 266.677602 180.88641 
L 265.725809 181.979334 
L 264.36266 183.54753 
L 263.940209 184.032585 
L 262.154609 186.080529 
L 262.040586 186.20865 
L 260.369009 188.101327 
L 259.693381 188.86977 
L 258.547697 190.193798 
L 257.399086 191.53089 
L 256.762097 192.286926 
L 255.175243 194.19201 
L 254.976497 194.436724 
L 253.190897 196.640526 
L 253.018411 196.85313 
L 251.369585 198.975676 
L 250.958223 199.51425 
L 249.583985 201.410982 
L 249.040832 202.17537 
L 247.798385 204.050666 
L 247.287224 204.83649 
L 246.012785 206.986253 
L 245.71364 207.49761 
L 244.31969 210.15873 
L 244.191473 210.43154 
L 243.069619 212.81985 
L 242.405873 214.482158 
L 242.003993 215.48097 
L 241.066051 218.14209 
L 240.620273 219.592531 
L 240.238693 220.80321 
L 239.360767 223.90785 
L 238.834673 225.934276 
L 238.662817 226.56897 
L 237.935124 229.23009 
L 237.198158 231.89121 
L 237.013361 232.496874 
L 236.35496 234.55233 
L 235.421962 237.21345 
L 235.227761 237.699142 
L 234.320322 239.87457 
L 233.442161 241.771137 
L 233.074792 242.53569 
L 231.663011 245.19681 
L 231.656561 245.207788 
L 230.063685 247.85793 
L 229.835249 248.211831 
L 228.323789 250.51905 
L 228.049649 250.913543 
L 226.463586 253.18017 
L 226.264049 253.451946 
L 224.507169 255.84129 
L 224.478449 255.878778 
L 222.657137 258.239698 
L 222.454762 258.50241 
L 220.871537 260.475214 
L 220.321898 261.16353 
L 219.085937 262.645616 
L 218.10722 263.82465 
L 217.300337 264.740853 
L 215.479025 266.835001 
L 215.395819 266.92929 
L 213.693425 268.716415 
L 212.858923 269.59041 
L 211.907825 270.512281 
L 210.122225 272.225312 
L 210.093713 272.25153 
L 208.300913 273.742832 
L 206.863197 274.91265 
L 206.515313 275.16521 
L 204.729713 276.375756 
L 202.944113 277.530934 
L 202.871551 277.57377 
L 201.122801 278.466343 
L 199.337201 279.297871 
L 197.551601 280.047859 
L 197.038684 280.23489 
L 195.766001 280.627785 
L 193.944689 281.099747 
L 192.159089 281.475278 
L 190.373489 281.762482 
L 188.587889 281.958523 
L 186.766577 282.060384 
L 184.980977 282.058266 
L 183.195377 281.947164 
L 181.409777 281.716135 
L 179.588465 281.341511 
L 177.802865 280.817612 
L 176.317054 280.23489 
L 176.017265 280.053387 
L 174.231665 278.641342 
L 173.210477 277.57377 
L 172.410353 275.543974 
L 172.214287 274.91265 
z
" clip-path="url(#p7a498257ff)" style="fill: none; stroke: #0b559f; stroke-width: 1.5"/>
    <path d="M 360.783495 269.59041 
L 359.774032 266.92929 
L 360.435045 263.82465 
L 360.862577 263.009952 
L 361.928339 261.16353 
L 362.648177 260.247636 
L 364.164309 258.50241 
L 364.433777 258.248675 
L 366.219377 256.933796 
L 368.040689 255.914141 
L 368.505672 255.84129 
L 369.826289 255.674105 
L 370.346415 255.84129 
L 371.611889 256.789923 
L 372.317275 258.50241 
L 372.208918 261.16353 
L 371.611889 263.002198 
L 371.307798 263.82465 
L 369.826289 266.06797 
L 369.199575 266.92929 
L 368.040689 267.996191 
L 366.219377 269.388936 
L 365.808532 269.59041 
L 364.433777 270.070237 
L 362.648177 270.213399 
L 360.862577 269.653466 
L 360.783495 269.59041 
z
" clip-path="url(#p7a498257ff)" style="fill: none; stroke: #0b559f; stroke-width: 1.5"/>
   </g>
   <g id="PathCollection_8"/>
   <g id="patch_3">
    <path d="M 34.240625 288.21825 
L 34.240625 22.10625 
" style="fill: none; stroke: #000000; stroke-width: 0.8; stroke-linejoin: miter; stroke-linecap: square"/>
   </g>
   <g id="patch_4">
    <path d="M 391.360625 288.21825 
L 391.360625 22.10625 
" style="fill: none; stroke: #000000; stroke-width: 0.8; stroke-linejoin: miter; stroke-linecap: square"/>
   </g>
   <g id="patch_5">
    <path d="M 34.240625 288.21825 
L 391.360625 288.21825 
" style="fill: none; stroke: #000000; stroke-width: 0.8; stroke-linejoin: miter; stroke-linecap: square"/>
   </g>
   <g id="patch_6">
    <path d="M 34.240625 22.10625 
L 391.360625 22.10625 
" style="fill: none; stroke: #000000; stroke-width: 0.8; stroke-linejoin: miter; stroke-linecap: square"/>
   </g>
   <g id="text_16">
    <!-- 9.1_cross_24.0 -->
    <g transform="translate(168.34625 16.10625)scale(0.12 -0.12)">
     <defs>
      <path id="DejaVuSans-39" d="M 703 97 
L 703 672 
Q 941 559 1184 500 
Q 1428 441 1663 441 
Q 2288 441 2617 861 
Q 2947 1281 2994 2138 
Q 2813 1869 2534 1725 
Q 2256 1581 1919 1581 
Q 1219 1581 811 2004 
Q 403 2428 403 3163 
Q 403 3881 828 4315 
Q 1253 4750 1959 4750 
Q 2769 4750 3195 4129 
Q 3622 3509 3622 2328 
Q 3622 1225 3098 567 
Q 2575 -91 1691 -91 
Q 1453 -91 1209 -44 
Q 966 3 703 97 
z
M 1959 2075 
Q 2384 2075 2632 2365 
Q 2881 2656 2881 3163 
Q 2881 3666 2632 3958 
Q 2384 4250 1959 4250 
Q 1534 4250 1286 3958 
Q 1038 3666 1038 3163 
Q 1038 2656 1286 2365 
Q 1534 2075 1959 2075 
z
" transform="scale(0.015625)"/>
      <path id="DejaVuSans-2e" d="M 684 794 
L 1344 794 
L 1344 0 
L 684 0 
L 684 794 
z
" transform="scale(0.015625)"/>
      <path id="DejaVuSans-5f" d="M 3263 -1063 
L 3263 -1509 
L -63 -1509 
L -63 -1063 
L 3263 -1063 
z
" transform="scale(0.015625)"/>
      <path id="DejaVuSans-63" d="M 3122 3366 
L 3122 2828 
Q 2878 2963 2633 3030 
Q 2388 3097 2138 3097 
Q 1578 3097 1268 2742 
Q 959 2388 959 1747 
Q 959 1106 1268 751 
Q 1578 397 2138 397 
Q 2388 397 2633 464 
Q 2878 531 3122 666 
L 3122 134 
Q 2881 22 2623 -34 
Q 2366 -91 2075 -91 
Q 1284 -91 818 406 
Q 353 903 353 1747 
Q 353 2603 823 3093 
Q 1294 3584 2113 3584 
Q 2378 3584 2631 3529 
Q 2884 3475 3122 3366 
z
" transform="scale(0.015625)"/>
      <path id="DejaVuSans-72" d="M 2631 2963 
Q 2534 3019 2420 3045 
Q 2306 3072 2169 3072 
Q 1681 3072 1420 2755 
Q 1159 2438 1159 1844 
L 1159 0 
L 581 0 
L 581 3500 
L 1159 3500 
L 1159 2956 
Q 1341 3275 1631 3429 
Q 1922 3584 2338 3584 
Q 2397 3584 2469 3576 
Q 2541 3569 2628 3553 
L 2631 2963 
z
" transform="scale(0.015625)"/>
      <path id="DejaVuSans-73" d="M 2834 3397 
L 2834 2853 
Q 2591 2978 2328 3040 
Q 2066 3103 1784 3103 
Q 1356 3103 1142 2972 
Q 928 2841 928 2578 
Q 928 2378 1081 2264 
Q 1234 2150 1697 2047 
L 1894 2003 
Q 2506 1872 2764 1633 
Q 3022 1394 3022 966 
Q 3022 478 2636 193 
Q 2250 -91 1575 -91 
Q 1294 -91 989 -36 
Q 684 19 347 128 
L 347 722 
Q 666 556 975 473 
Q 1284 391 1588 391 
Q 1994 391 2212 530 
Q 2431 669 2431 922 
Q 2431 1156 2273 1281 
Q 2116 1406 1581 1522 
L 1381 1569 
Q 847 1681 609 1914 
Q 372 2147 372 2553 
Q 372 3047 722 3315 
Q 1072 3584 1716 3584 
Q 2034 3584 2315 3537 
Q 2597 3491 2834 3397 
z
" transform="scale(0.015625)"/>
     </defs>
     <use xlink:href="#DejaVuSans-39"/>
     <use xlink:href="#DejaVuSans-2e" x="63.623047"/>
     <use xlink:href="#DejaVuSans-31" x="95.410156"/>
     <use xlink:href="#DejaVuSans-5f" x="159.033203"/>
     <use xlink:href="#DejaVuSans-63" x="209.033203"/>
     <use xlink:href="#DejaVuSans-72" x="264.013672"/>
     <use xlink:href="#DejaVuSans-6f" x="302.876953"/>
     <use xlink:href="#DejaVuSans-73" x="364.058594"/>
     <use xlink:href="#DejaVuSans-73" x="416.158203"/>
     <use xlink:href="#DejaVuSans-5f" x="468.257812"/>
     <use xlink:href="#DejaVuSans-32" x="518.257812"/>
     <use xlink:href="#DejaVuSans-34" x="581.880859"/>
     <use xlink:href="#DejaVuSans-2e" x="645.503906"/>
     <use xlink:href="#DejaVuSans-30" x="677.291016"/>
    </g>
   </g>
  </g>
 </g>
 <defs>
  <clipPath id="p7a498257ff">
   <rect x="34.240625" y="22.10625" width="357.12" height="266.112"/>
  </clipPath>
 </defs>
</svg>
