<?xml version="1.0" encoding="utf-8" standalone="no"?>
<!DOCTYPE svg PUBLIC "-//W3C//DTD SVG 1.1//EN"
  "http://www.w3.org/Graphics/SVG/1.1/DTD/svg11.dtd">
<svg xmlns:xlink="http://www.w3.org/1999/xlink" width="408.104375pt" height="325.7745pt" viewBox="0 0 408.104375 325.7745" xmlns="http://www.w3.org/2000/svg" version="1.1">
 <metadata>
  <rdf:RDF xmlns:dc="http://purl.org/dc/elements/1.1/" xmlns:cc="http://creativecommons.org/ns#" xmlns:rdf="http://www.w3.org/1999/02/22-rdf-syntax-ns#">
   <cc:Work>
    <dc:type rdf:resource="http://purl.org/dc/dcmitype/StillImage"/>
    <dc:date>2024-07-12T12:12:12.327420</dc:date>
    <dc:format>image/svg+xml</dc:format>
    <dc:creator>
     <cc:Agent>
      <dc:title>Matplotlib v3.5.3, https://matplotlib.org/</dc:title>
     </cc:Agent>
    </dc:creator>
   </cc:Work>
  </rdf:RDF>
 </metadata>
 <defs>
  <style type="text/css">*{stroke-linejoin: round; stroke-linecap: butt}</style>
 </defs>
 <g id="figure_1">
  <g id="patch_1">
   <path d="M 0 325.7745 
L 408.104375 325.7745 
L 408.104375 0 
L 0 0 
z
" style="fill: #ffffff"/>
  </g>
  <g id="axes_1">
   <g id="patch_2">
    <path d="M 34.240625 288.21825 
L 391.360625 288.21825 
L 391.360625 22.10625 
L 34.240625 22.10625 
z
" style="fill: #ffffff"/>
   </g>
   <g id="matplotlib.axis_1">
    <g id="xtick_1">
     <g id="line2d_1">
      <defs>
       <path id="ma8686769b2" d="M 0 0 
L 0 3.5 
" style="stroke: #000000; stroke-width: 0.8"/>
      </defs>
      <g>
       <use xlink:href="#ma8686769b2" x="34.240625" y="288.21825" style="stroke: #000000; stroke-width: 0.8"/>
      </g>
     </g>
     <g id="text_1">
      <!-- 0 -->
      <g transform="translate(31.059375 302.816687)scale(0.1 -0.1)">
       <defs>
        <path id="DejaVuSans-30" d="M 2034 4250 
Q 1547 4250 1301 3770 
Q 1056 3291 1056 2328 
Q 1056 1369 1301 889 
Q 1547 409 2034 409 
Q 2525 409 2770 889 
Q 3016 1369 3016 2328 
Q 3016 3291 2770 3770 
Q 2525 4250 2034 4250 
z
M 2034 4750 
Q 2819 4750 3233 4129 
Q 3647 3509 3647 2328 
Q 3647 1150 3233 529 
Q 2819 -91 2034 -91 
Q 1250 -91 836 529 
Q 422 1150 422 2328 
Q 422 3509 836 4129 
Q 1250 4750 2034 4750 
z
" transform="scale(0.015625)"/>
       </defs>
       <use xlink:href="#DejaVuSans-30"/>
      </g>
     </g>
    </g>
    <g id="xtick_2">
     <g id="line2d_2">
      <g>
       <use xlink:href="#ma8686769b2" x="105.664625" y="288.21825" style="stroke: #000000; stroke-width: 0.8"/>
      </g>
     </g>
     <g id="text_2">
      <!-- 20 -->
      <g transform="translate(99.302125 302.816687)scale(0.1 -0.1)">
       <defs>
        <path id="DejaVuSans-32" d="M 1228 531 
L 3431 531 
L 3431 0 
L 469 0 
L 469 531 
Q 828 903 1448 1529 
Q 2069 2156 2228 2338 
Q 2531 2678 2651 2914 
Q 2772 3150 2772 3378 
Q 2772 3750 2511 3984 
Q 2250 4219 1831 4219 
Q 1534 4219 1204 4116 
Q 875 4013 500 3803 
L 500 4441 
Q 881 4594 1212 4672 
Q 1544 4750 1819 4750 
Q 2544 4750 2975 4387 
Q 3406 4025 3406 3419 
Q 3406 3131 3298 2873 
Q 3191 2616 2906 2266 
Q 2828 2175 2409 1742 
Q 1991 1309 1228 531 
z
" transform="scale(0.015625)"/>
       </defs>
       <use xlink:href="#DejaVuSans-32"/>
       <use xlink:href="#DejaVuSans-30" x="63.623047"/>
      </g>
     </g>
    </g>
    <g id="xtick_3">
     <g id="line2d_3">
      <g>
       <use xlink:href="#ma8686769b2" x="177.088625" y="288.21825" style="stroke: #000000; stroke-width: 0.8"/>
      </g>
     </g>
     <g id="text_3">
      <!-- 40 -->
      <g transform="translate(170.726125 302.816687)scale(0.1 -0.1)">
       <defs>
        <path id="DejaVuSans-34" d="M 2419 4116 
L 825 1625 
L 2419 1625 
L 2419 4116 
z
M 2253 4666 
L 3047 4666 
L 3047 1625 
L 3713 1625 
L 3713 1100 
L 3047 1100 
L 3047 0 
L 2419 0 
L 2419 1100 
L 313 1100 
L 313 1709 
L 2253 4666 
z
" transform="scale(0.015625)"/>
       </defs>
       <use xlink:href="#DejaVuSans-34"/>
       <use xlink:href="#DejaVuSans-30" x="63.623047"/>
      </g>
     </g>
    </g>
    <g id="xtick_4">
     <g id="line2d_4">
      <g>
       <use xlink:href="#ma8686769b2" x="248.512625" y="288.21825" style="stroke: #000000; stroke-width: 0.8"/>
      </g>
     </g>
     <g id="text_4">
      <!-- 60 -->
      <g transform="translate(242.150125 302.816687)scale(0.1 -0.1)">
       <defs>
        <path id="DejaVuSans-36" d="M 2113 2584 
Q 1688 2584 1439 2293 
Q 1191 2003 1191 1497 
Q 1191 994 1439 701 
Q 1688 409 2113 409 
Q 2538 409 2786 701 
Q 3034 994 3034 1497 
Q 3034 2003 2786 2293 
Q 2538 2584 2113 2584 
z
M 3366 4563 
L 3366 3988 
Q 3128 4100 2886 4159 
Q 2644 4219 2406 4219 
Q 1781 4219 1451 3797 
Q 1122 3375 1075 2522 
Q 1259 2794 1537 2939 
Q 1816 3084 2150 3084 
Q 2853 3084 3261 2657 
Q 3669 2231 3669 1497 
Q 3669 778 3244 343 
Q 2819 -91 2113 -91 
Q 1303 -91 875 529 
Q 447 1150 447 2328 
Q 447 3434 972 4092 
Q 1497 4750 2381 4750 
Q 2619 4750 2861 4703 
Q 3103 4656 3366 4563 
z
" transform="scale(0.015625)"/>
       </defs>
       <use xlink:href="#DejaVuSans-36"/>
       <use xlink:href="#DejaVuSans-30" x="63.623047"/>
      </g>
     </g>
    </g>
    <g id="xtick_5">
     <g id="line2d_5">
      <g>
       <use xlink:href="#ma8686769b2" x="319.936625" y="288.21825" style="stroke: #000000; stroke-width: 0.8"/>
      </g>
     </g>
     <g id="text_5">
      <!-- 80 -->
      <g transform="translate(313.574125 302.816687)scale(0.1 -0.1)">
       <defs>
        <path id="DejaVuSans-38" d="M 2034 2216 
Q 1584 2216 1326 1975 
Q 1069 1734 1069 1313 
Q 1069 891 1326 650 
Q 1584 409 2034 409 
Q 2484 409 2743 651 
Q 3003 894 3003 1313 
Q 3003 1734 2745 1975 
Q 2488 2216 2034 2216 
z
M 1403 2484 
Q 997 2584 770 2862 
Q 544 3141 544 3541 
Q 544 4100 942 4425 
Q 1341 4750 2034 4750 
Q 2731 4750 3128 4425 
Q 3525 4100 3525 3541 
Q 3525 3141 3298 2862 
Q 3072 2584 2669 2484 
Q 3125 2378 3379 2068 
Q 3634 1759 3634 1313 
Q 3634 634 3220 271 
Q 2806 -91 2034 -91 
Q 1263 -91 848 271 
Q 434 634 434 1313 
Q 434 1759 690 2068 
Q 947 2378 1403 2484 
z
M 1172 3481 
Q 1172 3119 1398 2916 
Q 1625 2713 2034 2713 
Q 2441 2713 2670 2916 
Q 2900 3119 2900 3481 
Q 2900 3844 2670 4047 
Q 2441 4250 2034 4250 
Q 1625 4250 1398 4047 
Q 1172 3844 1172 3481 
z
" transform="scale(0.015625)"/>
       </defs>
       <use xlink:href="#DejaVuSans-38"/>
       <use xlink:href="#DejaVuSans-30" x="63.623047"/>
      </g>
     </g>
    </g>
    <g id="xtick_6">
     <g id="line2d_6">
      <g>
       <use xlink:href="#ma8686769b2" x="391.360625" y="288.21825" style="stroke: #000000; stroke-width: 0.8"/>
      </g>
     </g>
     <g id="text_6">
      <!-- 100 -->
      <g transform="translate(381.816875 302.816687)scale(0.1 -0.1)">
       <defs>
        <path id="DejaVuSans-31" d="M 794 531 
L 1825 531 
L 1825 4091 
L 703 3866 
L 703 4441 
L 1819 4666 
L 2450 4666 
L 2450 531 
L 3481 531 
L 3481 0 
L 794 0 
L 794 531 
z
" transform="scale(0.015625)"/>
       </defs>
       <use xlink:href="#DejaVuSans-31"/>
       <use xlink:href="#DejaVuSans-30" x="63.623047"/>
       <use xlink:href="#DejaVuSans-30" x="127.246094"/>
      </g>
     </g>
    </g>
    <g id="text_7">
     <!-- axialRotation -->
     <g transform="translate(180.024844 316.494812)scale(0.1 -0.1)">
      <defs>
       <path id="DejaVuSans-61" d="M 2194 1759 
Q 1497 1759 1228 1600 
Q 959 1441 959 1056 
Q 959 750 1161 570 
Q 1363 391 1709 391 
Q 2188 391 2477 730 
Q 2766 1069 2766 1631 
L 2766 1759 
L 2194 1759 
z
M 3341 1997 
L 3341 0 
L 2766 0 
L 2766 531 
Q 2569 213 2275 61 
Q 1981 -91 1556 -91 
Q 1019 -91 701 211 
Q 384 513 384 1019 
Q 384 1609 779 1909 
Q 1175 2209 1959 2209 
L 2766 2209 
L 2766 2266 
Q 2766 2663 2505 2880 
Q 2244 3097 1772 3097 
Q 1472 3097 1187 3025 
Q 903 2953 641 2809 
L 641 3341 
Q 956 3463 1253 3523 
Q 1550 3584 1831 3584 
Q 2591 3584 2966 3190 
Q 3341 2797 3341 1997 
z
" transform="scale(0.015625)"/>
       <path id="DejaVuSans-78" d="M 3513 3500 
L 2247 1797 
L 3578 0 
L 2900 0 
L 1881 1375 
L 863 0 
L 184 0 
L 1544 1831 
L 300 3500 
L 978 3500 
L 1906 2253 
L 2834 3500 
L 3513 3500 
z
" transform="scale(0.015625)"/>
       <path id="DejaVuSans-69" d="M 603 3500 
L 1178 3500 
L 1178 0 
L 603 0 
L 603 3500 
z
M 603 4863 
L 1178 4863 
L 1178 4134 
L 603 4134 
L 603 4863 
z
" transform="scale(0.015625)"/>
       <path id="DejaVuSans-6c" d="M 603 4863 
L 1178 4863 
L 1178 0 
L 603 0 
L 603 4863 
z
" transform="scale(0.015625)"/>
       <path id="DejaVuSans-52" d="M 2841 2188 
Q 3044 2119 3236 1894 
Q 3428 1669 3622 1275 
L 4263 0 
L 3584 0 
L 2988 1197 
Q 2756 1666 2539 1819 
Q 2322 1972 1947 1972 
L 1259 1972 
L 1259 0 
L 628 0 
L 628 4666 
L 2053 4666 
Q 2853 4666 3247 4331 
Q 3641 3997 3641 3322 
Q 3641 2881 3436 2590 
Q 3231 2300 2841 2188 
z
M 1259 4147 
L 1259 2491 
L 2053 2491 
Q 2509 2491 2742 2702 
Q 2975 2913 2975 3322 
Q 2975 3731 2742 3939 
Q 2509 4147 2053 4147 
L 1259 4147 
z
" transform="scale(0.015625)"/>
       <path id="DejaVuSans-6f" d="M 1959 3097 
Q 1497 3097 1228 2736 
Q 959 2375 959 1747 
Q 959 1119 1226 758 
Q 1494 397 1959 397 
Q 2419 397 2687 759 
Q 2956 1122 2956 1747 
Q 2956 2369 2687 2733 
Q 2419 3097 1959 3097 
z
M 1959 3584 
Q 2709 3584 3137 3096 
Q 3566 2609 3566 1747 
Q 3566 888 3137 398 
Q 2709 -91 1959 -91 
Q 1206 -91 779 398 
Q 353 888 353 1747 
Q 353 2609 779 3096 
Q 1206 3584 1959 3584 
z
" transform="scale(0.015625)"/>
       <path id="DejaVuSans-74" d="M 1172 4494 
L 1172 3500 
L 2356 3500 
L 2356 3053 
L 1172 3053 
L 1172 1153 
Q 1172 725 1289 603 
Q 1406 481 1766 481 
L 2356 481 
L 2356 0 
L 1766 0 
Q 1100 0 847 248 
Q 594 497 594 1153 
L 594 3053 
L 172 3053 
L 172 3500 
L 594 3500 
L 594 4494 
L 1172 4494 
z
" transform="scale(0.015625)"/>
       <path id="DejaVuSans-6e" d="M 3513 2113 
L 3513 0 
L 2938 0 
L 2938 2094 
Q 2938 2591 2744 2837 
Q 2550 3084 2163 3084 
Q 1697 3084 1428 2787 
Q 1159 2491 1159 1978 
L 1159 0 
L 581 0 
L 581 3500 
L 1159 3500 
L 1159 2956 
Q 1366 3272 1645 3428 
Q 1925 3584 2291 3584 
Q 2894 3584 3203 3211 
Q 3513 2838 3513 2113 
z
" transform="scale(0.015625)"/>
      </defs>
      <use xlink:href="#DejaVuSans-61"/>
      <use xlink:href="#DejaVuSans-78" x="61.279297"/>
      <use xlink:href="#DejaVuSans-69" x="120.458984"/>
      <use xlink:href="#DejaVuSans-61" x="148.242188"/>
      <use xlink:href="#DejaVuSans-6c" x="209.521484"/>
      <use xlink:href="#DejaVuSans-52" x="237.304688"/>
      <use xlink:href="#DejaVuSans-6f" x="302.287109"/>
      <use xlink:href="#DejaVuSans-74" x="363.46875"/>
      <use xlink:href="#DejaVuSans-61" x="402.677734"/>
      <use xlink:href="#DejaVuSans-74" x="463.957031"/>
      <use xlink:href="#DejaVuSans-69" x="503.166016"/>
      <use xlink:href="#DejaVuSans-6f" x="530.949219"/>
      <use xlink:href="#DejaVuSans-6e" x="592.130859"/>
     </g>
    </g>
   </g>
   <g id="matplotlib.axis_2">
    <g id="ytick_1">
     <g id="line2d_7">
      <defs>
       <path id="m9399c5aee0" d="M 0 0 
L -3.5 0 
" style="stroke: #000000; stroke-width: 0.8"/>
      </defs>
      <g>
       <use xlink:href="#m9399c5aee0" x="34.240625" y="288.21825" style="stroke: #000000; stroke-width: 0.8"/>
      </g>
     </g>
     <g id="text_8">
      <!-- 0 -->
      <g transform="translate(20.878125 292.017469)scale(0.1 -0.1)">
       <use xlink:href="#DejaVuSans-30"/>
      </g>
     </g>
    </g>
    <g id="ytick_2">
     <g id="line2d_8">
      <g>
       <use xlink:href="#m9399c5aee0" x="34.240625" y="243.86625" style="stroke: #000000; stroke-width: 0.8"/>
      </g>
     </g>
     <g id="text_9">
      <!-- 1 -->
      <g transform="translate(20.878125 247.665469)scale(0.1 -0.1)">
       <use xlink:href="#DejaVuSans-31"/>
      </g>
     </g>
    </g>
    <g id="ytick_3">
     <g id="line2d_9">
      <g>
       <use xlink:href="#m9399c5aee0" x="34.240625" y="199.51425" style="stroke: #000000; stroke-width: 0.8"/>
      </g>
     </g>
     <g id="text_10">
      <!-- 2 -->
      <g transform="translate(20.878125 203.313469)scale(0.1 -0.1)">
       <use xlink:href="#DejaVuSans-32"/>
      </g>
     </g>
    </g>
    <g id="ytick_4">
     <g id="line2d_10">
      <g>
       <use xlink:href="#m9399c5aee0" x="34.240625" y="155.16225" style="stroke: #000000; stroke-width: 0.8"/>
      </g>
     </g>
     <g id="text_11">
      <!-- 3 -->
      <g transform="translate(20.878125 158.961469)scale(0.1 -0.1)">
       <defs>
        <path id="DejaVuSans-33" d="M 2597 2516 
Q 3050 2419 3304 2112 
Q 3559 1806 3559 1356 
Q 3559 666 3084 287 
Q 2609 -91 1734 -91 
Q 1441 -91 1130 -33 
Q 819 25 488 141 
L 488 750 
Q 750 597 1062 519 
Q 1375 441 1716 441 
Q 2309 441 2620 675 
Q 2931 909 2931 1356 
Q 2931 1769 2642 2001 
Q 2353 2234 1838 2234 
L 1294 2234 
L 1294 2753 
L 1863 2753 
Q 2328 2753 2575 2939 
Q 2822 3125 2822 3475 
Q 2822 3834 2567 4026 
Q 2313 4219 1838 4219 
Q 1578 4219 1281 4162 
Q 984 4106 628 3988 
L 628 4550 
Q 988 4650 1302 4700 
Q 1616 4750 1894 4750 
Q 2613 4750 3031 4423 
Q 3450 4097 3450 3541 
Q 3450 3153 3228 2886 
Q 3006 2619 2597 2516 
z
" transform="scale(0.015625)"/>
       </defs>
       <use xlink:href="#DejaVuSans-33"/>
      </g>
     </g>
    </g>
    <g id="ytick_5">
     <g id="line2d_11">
      <g>
       <use xlink:href="#m9399c5aee0" x="34.240625" y="110.81025" style="stroke: #000000; stroke-width: 0.8"/>
      </g>
     </g>
     <g id="text_12">
      <!-- 4 -->
      <g transform="translate(20.878125 114.609469)scale(0.1 -0.1)">
       <use xlink:href="#DejaVuSans-34"/>
      </g>
     </g>
    </g>
    <g id="ytick_6">
     <g id="line2d_12">
      <g>
       <use xlink:href="#m9399c5aee0" x="34.240625" y="66.45825" style="stroke: #000000; stroke-width: 0.8"/>
      </g>
     </g>
     <g id="text_13">
      <!-- 5 -->
      <g transform="translate(20.878125 70.257469)scale(0.1 -0.1)">
       <defs>
        <path id="DejaVuSans-35" d="M 691 4666 
L 3169 4666 
L 3169 4134 
L 1269 4134 
L 1269 2991 
Q 1406 3038 1543 3061 
Q 1681 3084 1819 3084 
Q 2600 3084 3056 2656 
Q 3513 2228 3513 1497 
Q 3513 744 3044 326 
Q 2575 -91 1722 -91 
Q 1428 -91 1123 -41 
Q 819 9 494 109 
L 494 744 
Q 775 591 1075 516 
Q 1375 441 1709 441 
Q 2250 441 2565 725 
Q 2881 1009 2881 1497 
Q 2881 1984 2565 2268 
Q 2250 2553 1709 2553 
Q 1456 2553 1204 2497 
Q 953 2441 691 2322 
L 691 4666 
z
" transform="scale(0.015625)"/>
       </defs>
       <use xlink:href="#DejaVuSans-35"/>
      </g>
     </g>
    </g>
    <g id="ytick_7">
     <g id="line2d_13">
      <g>
       <use xlink:href="#m9399c5aee0" x="34.240625" y="22.10625" style="stroke: #000000; stroke-width: 0.8"/>
      </g>
     </g>
     <g id="text_14">
      <!-- 6 -->
      <g transform="translate(20.878125 25.905469)scale(0.1 -0.1)">
       <use xlink:href="#DejaVuSans-36"/>
      </g>
     </g>
    </g>
    <g id="text_15">
     <!-- zShift -->
     <g transform="translate(14.798438 169.151312)rotate(-90)scale(0.1 -0.1)">
      <defs>
       <path id="DejaVuSans-7a" d="M 353 3500 
L 3084 3500 
L 3084 2975 
L 922 459 
L 3084 459 
L 3084 0 
L 275 0 
L 275 525 
L 2438 3041 
L 353 3041 
L 353 3500 
z
" transform="scale(0.015625)"/>
       <path id="DejaVuSans-53" d="M 3425 4513 
L 3425 3897 
Q 3066 4069 2747 4153 
Q 2428 4238 2131 4238 
Q 1616 4238 1336 4038 
Q 1056 3838 1056 3469 
Q 1056 3159 1242 3001 
Q 1428 2844 1947 2747 
L 2328 2669 
Q 3034 2534 3370 2195 
Q 3706 1856 3706 1288 
Q 3706 609 3251 259 
Q 2797 -91 1919 -91 
Q 1588 -91 1214 -16 
Q 841 59 441 206 
L 441 856 
Q 825 641 1194 531 
Q 1563 422 1919 422 
Q 2459 422 2753 634 
Q 3047 847 3047 1241 
Q 3047 1584 2836 1778 
Q 2625 1972 2144 2069 
L 1759 2144 
Q 1053 2284 737 2584 
Q 422 2884 422 3419 
Q 422 4038 858 4394 
Q 1294 4750 2059 4750 
Q 2388 4750 2728 4690 
Q 3069 4631 3425 4513 
z
" transform="scale(0.015625)"/>
       <path id="DejaVuSans-68" d="M 3513 2113 
L 3513 0 
L 2938 0 
L 2938 2094 
Q 2938 2591 2744 2837 
Q 2550 3084 2163 3084 
Q 1697 3084 1428 2787 
Q 1159 2491 1159 1978 
L 1159 0 
L 581 0 
L 581 4863 
L 1159 4863 
L 1159 2956 
Q 1366 3272 1645 3428 
Q 1925 3584 2291 3584 
Q 2894 3584 3203 3211 
Q 3513 2838 3513 2113 
z
" transform="scale(0.015625)"/>
       <path id="DejaVuSans-66" d="M 2375 4863 
L 2375 4384 
L 1825 4384 
Q 1516 4384 1395 4259 
Q 1275 4134 1275 3809 
L 1275 3500 
L 2222 3500 
L 2222 3053 
L 1275 3053 
L 1275 0 
L 697 0 
L 697 3053 
L 147 3053 
L 147 3500 
L 697 3500 
L 697 3744 
Q 697 4328 969 4595 
Q 1241 4863 1831 4863 
L 2375 4863 
z
" transform="scale(0.015625)"/>
      </defs>
      <use xlink:href="#DejaVuSans-7a"/>
      <use xlink:href="#DejaVuSans-53" x="52.490234"/>
      <use xlink:href="#DejaVuSans-68" x="115.966797"/>
      <use xlink:href="#DejaVuSans-69" x="179.345703"/>
      <use xlink:href="#DejaVuSans-66" x="207.128906"/>
      <use xlink:href="#DejaVuSans-74" x="240.583984"/>
     </g>
    </g>
   </g>
   <g id="PathCollection_1"/>
   <g id="PathCollection_2">
    <path d="M 34.240625 133.376095 
L 35.284703 132.09921 
L 36.026225 131.17026 
L 37.429497 129.43809 
L 37.847537 128.914252 
L 39.578719 126.77697 
L 39.633137 126.708679 
L 41.418737 124.474045 
L 41.70862 124.11585 
L 43.204337 122.240476 
L 43.840363 121.45473 
L 45.025649 119.971594 
L 45.98157 118.79361 
L 46.811249 117.7561 
L 48.131061 116.13249 
L 48.596849 115.550527 
L 50.288546 113.47137 
L 50.382449 113.354028 
L 52.203761 111.089805 
L 52.430987 110.81025 
L 53.989361 108.86111 
L 54.567245 108.14913 
L 55.774961 106.636086 
L 56.705344 105.48801 
L 57.560561 104.415265 
L 58.845543 102.82689 
L 59.381873 102.154468 
L 60.992227 100.16577 
L 61.167473 99.946002 
L 62.953073 97.725049 
L 63.131672 97.50465 
L 64.738673 95.492453 
L 65.264638 94.84353 
L 66.559985 93.222636 
L 67.403492 92.18241 
L 68.345585 91.000216 
L 69.541638 89.52129 
L 70.131185 88.771753 
L 71.916785 86.556388 
L 72.029591 86.41665 
L 73.738097 84.239926 
L 74.122126 83.75553 
L 75.523697 81.943844 
L 76.186521 81.09441 
L 77.309297 79.614314 
L 78.210162 78.43329 
L 79.094897 77.233692 
L 80.173187 75.77217 
L 80.916209 74.724153 
L 82.053552 73.11105 
L 82.701809 72.14321 
L 83.822351 70.44993 
L 84.487409 69.379525 
L 85.45569 67.78881 
L 86.273009 66.341313 
L 86.938016 65.12769 
L 88.094321 62.83312 
L 88.27219 62.46657 
L 89.433907 59.80545 
L 89.879921 58.688028 
L 90.467071 57.14433 
L 91.407418 54.48321 
L 91.665521 53.710906 
L 92.265527 51.82209 
L 93.11089 49.16097 
L 93.451121 48.123294 
L 93.960113 46.49985 
L 95.030297 43.39521 
L 95.272433 42.763317 
L 96.026897 40.73409 
L 97.058033 38.323014 
L 97.162943 38.07297 
L 98.410483 35.41185 
L 98.843633 34.590714 
L 99.811465 32.75073 
L 100.629233 31.352952 
L 101.372379 30.08961 
L 102.450545 28.412983 
L 103.092458 27.42849 
L 104.236145 25.791119 
L 104.967614 24.76737 
L 106.021745 23.367909 
L 107.001957 22.10625 
" clip-path="url(#pb5f885571e)" style="fill: none; stroke: #dbe9f6; stroke-width: 1.5"/>
    <path d="M 117.715905 288.21825 
L 117.617651 285.55713 
L 117.829012 282.89601 
L 118.592369 279.367416 
L 119.098092 277.57377 
L 120.377969 274.353348 
L 121.342133 272.25153 
L 123.984881 267.578337 
L 125.770481 264.783542 
L 128.26527 261.16353 
L 132.948593 254.887706 
L 140.61901 245.19681 
L 156.268529 225.737872 
L 163.446641 216.730428 
L 167.053553 212.058414 
L 170.624753 207.189832 
L 173.940944 202.17537 
L 176.017265 198.54147 
L 177.802865 194.940106 
L 179.242735 191.53089 
L 180.214801 188.86977 
L 181.953994 183.54753 
L 183.662826 178.22529 
L 185.80874 172.45953 
L 188.293711 167.13729 
L 190.373489 163.394476 
L 193.020129 159.15393 
L 196.740995 153.83169 
L 201.122801 148.020834 
L 210.122225 136.641735 
L 230.923327 110.81025 
L 256.762097 78.400255 
L 260.576814 73.11105 
L 263.940209 67.871783 
L 263.99036 67.78881 
L 265.725809 64.618315 
L 267.547121 60.758553 
L 268.995235 57.14433 
L 270.796351 51.82209 
L 273.552117 43.39521 
L 275.686456 38.07297 
L 276.952381 35.41185 
L 278.372623 32.75073 
L 280.082033 29.858767 
L 281.903345 27.067898 
L 283.688945 24.560617 
L 285.572617 22.10625 
L 285.572617 22.10625 
" clip-path="url(#pb5f885571e)" style="fill: none; stroke: #dbe9f6; stroke-width: 1.5"/>
    <path d="M 222.501572 22.10625 
L 223.279163 24.76737 
L 223.828159 27.42849 
L 224.172019 30.08961 
L 224.334451 32.75073 
L 224.328942 35.41185 
L 224.160356 38.07297 
L 223.825971 40.73409 
L 223.316067 43.39521 
L 222.492457 46.49985 
L 221.621481 49.16097 
L 220.555579 51.82209 
L 219.085937 54.934663 
L 217.300337 58.234798 
L 215.479025 61.238784 
L 212.893016 65.12769 
L 209.025344 70.44993 
L 204.729713 76.02451 
L 195.766001 87.289493 
L 187.54191 97.50465 
L 174.231665 114.022232 
L 150.739608 143.18721 
L 134.734193 163.050117 
L 120.377969 180.903473 
L 114.275033 188.86977 
L 110.523618 194.19201 
L 107.807345 198.55925 
L 105.842847 202.17537 
L 104.236145 205.703735 
L 102.450545 210.340338 
L 97.971757 223.90785 
L 95.734334 229.23009 
L 93.451121 233.660137 
L 91.665521 236.702882 
L 89.620475 239.87457 
L 85.814891 245.19681 
L 81.647206 250.51905 
L 79.094897 253.595429 
L 73.738097 259.686323 
L 68.345585 265.243131 
L 63.525618 269.59041 
L 61.167473 271.526387 
L 57.560561 274.141709 
L 53.989361 276.340898 
L 50.382449 278.144716 
L 46.811249 279.549224 
L 43.204337 280.570087 
L 39.633137 281.230483 
L 36.026225 281.506877 
L 34.240625 281.500794 
L 34.240625 281.500794 
" clip-path="url(#pb5f885571e)" style="fill: none; stroke: #dbe9f6; stroke-width: 1.5"/>
    <path d="M 296.28268 288.21825 
L 296.259569 287.575029 
L 296.182781 285.55713 
L 296.259569 284.631741 
L 296.393106 282.89601 
L 296.882671 280.23489 
L 297.655 277.57377 
L 298.045169 276.565504 
L 298.665259 274.91265 
L 299.830769 272.43274 
L 299.914333 272.25153 
L 301.33905 269.59041 
L 301.616369 269.128187 
L 302.930659 266.92929 
L 303.437681 266.148416 
L 304.972018 263.82465 
L 305.223281 263.463251 
L 306.834755 261.16353 
L 307.008881 260.923351 
L 308.783541 258.50241 
L 308.794481 258.48778 
L 310.615793 256.062876 
L 310.784152 255.84129 
L 312.401393 253.733012 
L 312.831676 253.18017 
L 314.186993 251.441567 
L 314.917507 250.51905 
L 315.972593 249.180356 
L 317.031184 247.85793 
L 317.793905 246.897466 
L 319.165969 245.19681 
L 319.579505 244.677386 
L 321.313464 242.53569 
L 321.365105 242.470904 
L 323.150705 240.237598 
L 323.444696 239.87457 
L 324.972017 237.962342 
L 325.579555 237.21345 
L 326.757617 235.73866 
L 327.721667 234.55233 
L 328.543217 233.525787 
L 329.875344 231.89121 
L 330.328817 231.326146 
L 332.042051 229.23009 
L 332.150129 229.095936 
L 333.935729 226.894 
L 334.203155 226.56897 
L 335.721329 224.692748 
L 336.369255 223.90785 
L 337.506929 222.491815 
L 338.913662 220.80321 
L 339.328241 220.291263 
L 341.104372 218.14209 
L 341.113841 218.130353 
L 342.899441 215.92704 
L 343.268573 215.48097 
L 344.685041 213.723002 
L 345.427987 212.81985 
L 346.506353 211.469298 
L 347.574126 210.15873 
L 348.291953 209.24352 
L 349.68796 207.49761 
L 350.077553 206.986848 
L 351.744664 204.83649 
L 351.863153 204.67446 
L 353.684465 202.209203 
L 353.709668 202.17537 
L 355.470065 199.633542 
L 355.55342 199.51425 
L 357.255665 196.863228 
L 357.26218 196.85313 
L 358.815958 194.19201 
L 359.041265 193.769775 
L 360.231391 191.53089 
L 360.862577 190.251045 
L 361.542826 188.86977 
L 362.648177 186.517495 
L 362.794125 186.20865 
L 364.025498 183.54753 
L 364.433777 182.695766 
L 365.320199 180.88641 
L 366.219377 179.199431 
L 366.759631 178.22529 
L 368.040689 176.167596 
L 368.744164 175.12065 
L 369.826289 173.695454 
L 370.852886 172.45953 
L 371.611889 171.640622 
L 373.397489 169.920812 
L 373.538183 169.79841 
L 375.218801 168.454749 
L 377.004401 167.242508 
L 377.180335 167.13729 
L 378.790001 166.220645 
L 380.575601 165.371157 
L 382.396913 164.66365 
L 382.990556 164.47617 
L 384.182513 164.10121 
L 385.968113 163.666387 
L 387.753713 163.355839 
L 389.575025 163.160989 
L 391.360625 163.086039 
" clip-path="url(#pb5f885571e)" style="fill: none; stroke: #dbe9f6; stroke-width: 1.5"/>
    <path d="M 391.360625 45.71396 
L 389.575025 50.437343 
L 387.753713 55.888192 
L 384.903319 65.12769 
L 382.97062 70.44993 
L 381.840217 73.11105 
L 379.1706 78.43329 
L 377.004401 82.101915 
L 374.180355 86.41665 
L 371.611889 90.014225 
L 365.925519 97.50465 
L 359.041265 106.197103 
L 351.139437 116.13249 
L 345.113641 124.11585 
L 341.50971 129.43809 
L 339.328241 133.161296 
L 337.506929 136.712585 
L 335.847731 140.52609 
L 334.877218 143.18721 
L 333.14936 148.50945 
L 330.559701 156.49281 
L 328.425619 161.81505 
L 326.757617 165.260775 
L 324.972017 168.507765 
L 323.150705 171.488837 
L 320.734048 175.12065 
L 316.536244 180.88641 
L 310.615793 188.515236 
L 296.259569 206.426461 
L 267.185653 242.53569 
L 258.547697 253.544686 
L 254.910526 258.50241 
L 251.369585 263.882941 
L 249.583985 266.982901 
L 247.798385 270.55987 
L 245.912967 274.91265 
L 240.797582 288.21825 
L 240.797582 288.21825 
" clip-path="url(#pb5f885571e)" style="fill: none; stroke: #dbe9f6; stroke-width: 1.5"/>
   </g>
   <g id="PathCollection_3">
    <path d="M 34.240625 148.65366 
L 34.353703 148.50945 
L 36.026225 146.383172 
L 36.450809 145.84833 
L 37.847537 144.089574 
L 38.57068 143.18721 
L 39.633137 141.856701 
L 40.705564 140.52609 
L 41.418737 139.635657 
L 42.84971 137.86497 
L 43.204337 137.42247 
L 44.997159 135.20385 
L 45.025649 135.168119 
L 46.811249 132.931002 
L 47.48516 132.09921 
L 48.596849 130.70929 
L 49.621788 129.43809 
L 50.382449 128.486811 
L 51.760804 126.77697 
L 52.203761 126.223741 
L 53.90611 124.11585 
L 53.989361 124.011994 
L 55.774961 121.790842 
L 56.046913 121.45473 
L 57.560561 119.570853 
L 58.190141 118.79361 
L 59.381873 117.311611 
L 60.337662 116.13249 
L 61.167473 115.099253 
L 62.485735 113.47137 
L 62.953073 112.888462 
L 64.633099 110.81025 
L 64.738673 110.678331 
L 66.559985 108.409412 
L 66.769882 108.14913 
L 68.345585 106.178965 
L 68.902577 105.48801 
L 70.131185 103.952302 
L 71.039147 102.82689 
L 71.916785 101.73104 
L 73.180891 100.16577 
L 73.738097 99.470943 
L 75.32824 97.50465 
L 75.523697 97.260704 
L 77.309297 95.042669 
L 77.470071 94.84353 
L 79.094897 92.809497 
L 79.598987 92.18241 
L 80.916209 90.523751 
L 81.716601 89.52129 
L 82.701809 88.262019 
L 84.163982 86.41665 
L 84.487409 85.998648 
L 86.228379 83.75553 
L 86.273009 83.696679 
L 88.094321 81.288131 
L 88.240557 81.09441 
L 89.879921 78.856816 
L 90.18913 78.43329 
L 91.665521 76.33017 
L 92.054265 75.77217 
L 93.451121 73.661749 
L 93.810933 73.11105 
L 95.272433 70.724811 
L 95.437766 70.44993 
L 96.911948 67.78881 
L 97.058033 67.499486 
L 98.223691 65.12769 
L 98.843633 63.736759 
L 99.393267 62.46657 
L 100.435676 59.80545 
L 100.629233 59.26418 
L 101.363468 57.14433 
L 102.235543 54.48321 
L 102.450545 53.809617 
L 103.067737 51.82209 
L 103.91919 49.16097 
L 104.236145 48.230041 
L 104.814919 46.49985 
L 105.981755 43.39521 
L 106.021745 43.300158 
L 107.095623 40.73409 
L 107.807345 39.23863 
L 108.363134 38.07297 
L 109.628657 35.718517 
L 109.79494 35.41185 
L 111.394457 32.75073 
L 111.414257 32.720433 
L 113.167497 30.08961 
L 113.199857 30.044504 
L 114.985457 27.608747 
L 115.121134 27.42849 
L 116.806769 25.321407 
L 117.26574 24.76737 
L 118.592369 23.243997 
L 119.628294 22.10625 
" clip-path="url(#pb5f885571e)" style="fill: none; stroke: #bad6eb; stroke-width: 1.5"/>
    <path d="M 130.156335 288.21825 
L 129.800065 285.55713 
L 129.851981 282.89601 
L 130.265932 280.23489 
L 131.162993 277.17943 
L 132.025662 274.91265 
L 133.295035 272.25153 
L 134.771911 269.59041 
L 136.519793 266.767118 
L 140.3909 261.16353 
L 145.519217 254.402693 
L 154.482929 243.149708 
L 174.479226 218.14209 
L 179.588465 211.305625 
L 182.224183 207.49761 
L 184.980977 203.023652 
L 186.766577 199.716974 
L 186.870945 199.51425 
L 188.587889 195.707515 
L 190.192575 191.53089 
L 192.159089 185.492916 
L 193.944689 179.993116 
L 194.55738 178.22529 
L 196.940526 172.45953 
L 199.337201 167.818202 
L 201.122801 164.78953 
L 203.039355 161.81505 
L 206.790311 156.49281 
L 211.907825 149.755582 
L 219.249765 140.52609 
L 251.369585 100.617336 
L 262.715973 86.41665 
L 267.547121 80.062578 
L 271.118321 75.005897 
L 273.9866 70.44993 
L 275.461139 67.78881 
L 276.784483 65.12769 
L 278.296433 61.599354 
L 280.082033 56.678688 
L 283.688945 45.66385 
L 285.474545 41.176383 
L 285.661758 40.73409 
L 287.260145 37.446304 
L 289.081457 34.186381 
L 290.867057 31.361276 
L 292.652657 28.80966 
L 294.438257 26.472177 
L 296.259569 24.27272 
L 298.202889 22.10625 
L 298.202889 22.10625 
" clip-path="url(#pb5f885571e)" style="fill: none; stroke: #bad6eb; stroke-width: 1.5"/>
    <path d="M 210.825577 22.10625 
L 211.917644 24.76737 
L 212.711183 27.42849 
L 213.222877 30.08961 
L 213.4894 32.75073 
L 213.534139 35.41185 
L 213.369913 38.07297 
L 213.001019 40.73409 
L 212.424831 43.39521 
L 211.49861 46.49985 
L 210.122225 49.979434 
L 209.294167 51.82209 
L 207.908122 54.48321 
L 206.355662 57.14433 
L 202.845937 62.46657 
L 198.960231 67.78881 
L 192.754452 75.77217 
L 181.709771 89.52129 
L 159.875441 116.646409 
L 112.811222 175.12065 
L 106.021745 183.830213 
L 102.332126 188.86977 
L 98.817897 194.19201 
L 97.058033 197.244858 
L 95.272433 200.776176 
L 93.511381 204.83649 
L 92.532926 207.49761 
L 90.77922 212.81985 
L 88.094321 220.840534 
L 86.273009 225.278938 
L 85.693686 226.56897 
L 84.347183 229.23009 
L 82.701809 232.134551 
L 80.916209 234.979395 
L 77.464746 239.87457 
L 75.407059 242.53569 
L 71.916785 246.760892 
L 68.345585 250.741702 
L 64.738673 254.454497 
L 61.167473 257.778932 
L 57.560561 260.762945 
L 53.989361 263.31929 
L 50.382449 265.467158 
L 46.811249 267.109804 
L 45.025649 267.760855 
L 43.204337 268.291648 
L 41.418737 268.681622 
L 39.633137 268.940552 
L 37.847537 269.064321 
L 36.026225 269.044659 
L 34.240625 268.873265 
L 34.240625 268.873265 
" clip-path="url(#pb5f885571e)" style="fill: none; stroke: #bad6eb; stroke-width: 1.5"/>
    <path d="M 308.728262 288.21825 
L 308.366294 285.55713 
L 308.418809 282.89601 
L 308.794481 280.528402 
L 308.839273 280.23489 
L 309.570333 277.57377 
L 310.600602 274.91265 
L 310.615793 274.880948 
L 311.860093 272.25153 
L 312.401393 271.276326 
L 313.331502 269.59041 
L 314.186993 268.204971 
L 314.973459 266.92929 
L 315.972593 265.434096 
L 317.057714 263.82465 
L 317.793905 262.790607 
L 318.957522 261.16353 
L 319.579505 260.323414 
L 320.936982 258.50241 
L 321.365105 257.940575 
L 322.978066 255.84129 
L 323.150705 255.61933 
L 324.972017 253.292976 
L 325.060666 253.18017 
L 326.757617 251.032064 
L 327.166415 250.51905 
L 328.543217 248.790355 
L 329.292506 247.85793 
L 330.328817 246.562488 
L 331.431043 245.19681 
L 332.150129 244.300505 
L 333.579429 242.53569 
L 333.935729 242.092327 
L 335.721329 239.893494 
L 335.736729 239.87457 
L 337.506929 237.684968 
L 337.892477 237.21345 
L 339.328241 235.447593 
L 340.065577 234.55233 
L 341.113841 233.270725 
L 342.259013 231.89121 
L 342.899441 231.113448 
L 344.475717 229.23009 
L 344.685041 228.977477 
L 346.506353 226.807164 
L 346.708868 226.56897 
L 348.291953 224.685265 
L 348.958469 223.90785 
L 350.077553 222.577822 
L 351.617096 220.80321 
L 351.863153 220.51329 
L 353.684465 218.407672 
L 353.918944 218.14209 
L 355.470065 216.348303 
L 356.241706 215.48097 
L 357.255665 214.310742 
L 358.587491 212.81985 
L 359.041265 212.294032 
L 360.862577 210.246705 
L 360.942989 210.15873 
L 362.648177 208.203171 
L 363.286075 207.49761 
L 364.433777 206.148333 
L 365.591362 204.83649 
L 366.219377 204.068564 
L 367.82689 202.17537 
L 368.040689 201.899919 
L 369.826289 199.685726 
L 369.970948 199.51425 
L 371.611889 197.358805 
L 372.017713 196.85313 
L 373.397489 194.946066 
L 373.978464 194.19201 
L 375.218801 192.428154 
L 375.900527 191.53089 
L 377.004401 189.982617 
L 377.878536 188.86977 
L 378.790001 187.683323 
L 380.072168 186.20865 
L 380.575601 185.64324 
L 382.396913 183.896736 
L 382.839849 183.54753 
L 384.182513 182.5544 
L 385.968113 181.533899 
L 387.571561 180.88641 
L 387.753713 180.818764 
L 389.575025 180.427643 
L 391.360625 180.328456 
" clip-path="url(#pb5f885571e)" style="fill: none; stroke: #bad6eb; stroke-width: 1.5"/>
    <path d="M 384.881724 22.10625 
L 385.309706 24.76737 
L 385.359662 27.42849 
L 385.093249 30.08961 
L 384.182513 34.124722 
L 383.837785 35.41185 
L 382.031326 40.73409 
L 378.790001 49.930856 
L 376.577054 57.14433 
L 374.937354 62.46657 
L 373.028173 67.78881 
L 371.611889 71.062173 
L 369.826289 74.654261 
L 368.040689 77.815456 
L 365.990148 81.09441 
L 362.295813 86.41665 
L 357.255665 93.101127 
L 348.291953 104.402896 
L 341.086248 113.47137 
L 335.721329 120.597675 
L 333.250337 124.11585 
L 330.328817 128.738759 
L 328.46089 132.09921 
L 326.757617 135.701924 
L 324.850534 140.52609 
L 322.272299 148.50945 
L 320.501102 153.83169 
L 318.363097 159.15393 
L 315.972593 163.936308 
L 315.684742 164.47617 
L 314.127142 167.13729 
L 310.615793 172.490657 
L 306.446594 178.22529 
L 300.245643 186.20865 
L 289.569022 199.51425 
L 267.547121 226.863004 
L 251.369585 247.110778 
L 247.798385 251.808747 
L 244.191473 256.853451 
L 241.40138 261.16353 
L 239.86118 263.82465 
L 238.247232 266.92929 
L 237.003803 269.59041 
L 234.85098 274.91265 
L 231.730308 282.89601 
L 229.835249 286.81345 
L 229.06282 288.21825 
L 229.06282 288.21825 
" clip-path="url(#pb5f885571e)" style="fill: none; stroke: #bad6eb; stroke-width: 1.5"/>
   </g>
   <g id="PathCollection_4">
    <path d="M 34.240625 160.898105 
L 35.493898 159.15393 
L 36.026225 158.434271 
L 37.473019 156.49281 
L 37.847537 156.000153 
L 39.506624 153.83169 
L 39.633137 153.668465 
L 41.418737 151.375227 
L 41.578703 151.17057 
L 43.204337 149.108678 
L 43.67884 148.50945 
L 45.025649 146.817878 
L 45.800613 145.84833 
L 46.811249 144.586626 
L 47.93624 143.18721 
L 48.596849 142.364955 
L 50.078948 140.52609 
L 50.382449 140.148489 
L 52.203761 137.888499 
L 52.222714 137.86497 
L 53.989361 135.665173 
L 54.360495 135.20385 
L 55.774961 133.43788 
L 56.852171 132.09921 
L 57.560561 131.2156 
L 58.9895 129.43809 
L 59.381873 128.949261 
L 61.131156 126.77697 
L 61.167473 126.7318 
L 62.953073 124.513742 
L 63.274129 124.11585 
L 64.738673 122.298872 
L 65.420806 121.45473 
L 66.559985 120.042115 
L 67.569233 118.79361 
L 68.345585 117.829786 
L 69.716063 116.13249 
L 70.131185 115.616115 
L 71.859674 113.47137 
L 71.916785 113.400189 
L 73.738097 111.131862 
L 73.99663 110.81025 
L 75.523697 108.905791 
L 76.131754 108.14913 
L 77.309297 106.681242 
L 78.26912 105.48801 
L 79.094897 104.459926 
L 80.410433 102.82689 
L 80.916209 102.197954 
L 82.555237 100.16577 
L 82.701809 99.983399 
L 84.487409 97.764595 
L 84.696706 97.50465 
L 86.273009 95.537107 
L 86.829171 94.84353 
L 88.094321 93.254255 
L 88.947758 92.18241 
L 89.879921 90.999783 
L 91.044845 89.52129 
L 91.665521 88.721185 
L 93.451121 86.421768 
L 93.455077 86.41665 
L 95.272433 84.018782 
L 95.471154 83.75553 
L 97.058033 81.59993 
L 97.427986 81.09441 
L 98.843633 79.091371 
L 99.304774 78.43329 
L 100.629233 76.451009 
L 101.077526 75.77217 
L 102.450545 73.558265 
L 102.723869 73.11105 
L 104.226408 70.44993 
L 104.236145 70.431032 
L 105.571891 67.78881 
L 106.021745 66.80226 
L 106.770801 65.12769 
L 107.807345 62.548363 
L 107.839639 62.46657 
L 108.791906 59.80545 
L 109.628657 57.283456 
L 109.674204 57.14433 
L 110.50973 54.48321 
L 111.35167 51.82209 
L 111.414257 51.632719 
L 112.228304 49.16097 
L 113.189662 46.49985 
L 113.199857 46.474516 
L 114.45035 43.39521 
L 114.985457 42.239384 
L 115.69024 40.73409 
L 116.806769 38.618586 
L 117.099419 38.07297 
L 118.592369 35.574347 
L 118.691479 35.41185 
L 120.377969 32.896464 
L 120.478138 32.75073 
L 122.163569 30.491683 
L 122.472635 30.08961 
L 123.984881 28.259329 
L 124.696805 27.42849 
L 125.770481 26.252912 
L 127.190074 24.76737 
L 127.556081 24.405916 
L 129.341681 22.719008 
L 130.025436 22.10625 
" clip-path="url(#pb5f885571e)" style="fill: none; stroke: #89bedc; stroke-width: 1.5"/>
    <path d="M 140.60724 288.21825 
L 139.799228 285.55713 
L 139.557757 282.89601 
L 139.785436 280.23489 
L 140.408672 277.57377 
L 141.362975 274.91265 
L 142.594637 272.25153 
L 144.053325 269.59041 
L 145.693739 266.92929 
L 149.694906 261.16353 
L 154.482929 254.889305 
L 164.3321 242.53569 
L 183.746847 218.14209 
L 187.65644 212.81985 
L 191.196378 207.49761 
L 192.771547 204.83649 
L 194.197954 202.17537 
L 195.766001 198.826128 
L 197.608313 194.19201 
L 199.372883 188.86977 
L 201.956448 180.88641 
L 202.956898 178.22529 
L 204.729713 174.158217 
L 206.515313 170.653138 
L 208.300913 167.558591 
L 210.260697 164.47617 
L 213.993437 159.15393 
L 219.085937 152.444378 
L 226.443596 143.18721 
L 272.903921 85.240251 
L 276.510833 80.355049 
L 279.636606 75.77217 
L 281.903345 72.019694 
L 283.688945 68.673625 
L 284.132268 67.78881 
L 285.474545 64.780657 
L 287.356519 59.80545 
L 291.752691 46.49985 
L 293.019128 43.39521 
L 294.438257 40.395702 
L 296.259569 37.077252 
L 298.045169 34.236114 
L 299.830769 31.700472 
L 301.616369 29.402473 
L 303.437681 27.260771 
L 307.008881 23.587379 
L 308.633462 22.10625 
L 308.633462 22.10625 
" clip-path="url(#pb5f885571e)" style="fill: none; stroke: #89bedc; stroke-width: 1.5"/>
    <path d="M 201.122686 22.10625 
L 202.708786 24.76737 
L 203.832057 27.42849 
L 204.574719 30.08961 
L 204.994068 32.75073 
L 205.125569 35.41185 
L 204.992362 38.07297 
L 204.610148 40.73409 
L 203.992705 43.39521 
L 202.944113 46.580913 
L 201.122801 50.692246 
L 200.56311 51.82209 
L 199.065603 54.48321 
L 195.766001 59.586563 
L 193.723932 62.46657 
L 188.587889 69.25338 
L 181.285459 78.43329 
L 100.629233 178.764608 
L 97.007252 183.54753 
L 93.249647 188.86977 
L 91.529445 191.53089 
L 89.879921 194.309045 
L 88.094321 197.701051 
L 86.273009 201.710661 
L 85.053468 204.83649 
L 83.251991 210.15873 
L 80.588791 218.14209 
L 79.094897 221.856031 
L 77.309297 225.642578 
L 76.833675 226.56897 
L 75.314379 229.23009 
L 73.61755 231.89121 
L 70.131185 236.665536 
L 67.48401 239.87457 
L 64.738673 242.923069 
L 61.167473 246.500491 
L 57.560561 249.677495 
L 53.989361 252.363965 
L 52.203761 253.524841 
L 50.382449 254.572107 
L 47.692873 255.84129 
L 46.811249 256.210189 
L 45.025649 256.801482 
L 43.204337 257.238509 
L 41.418737 257.491901 
L 39.633137 257.556003 
L 37.847537 257.410706 
L 36.026225 257.020936 
L 34.240625 256.371028 
L 34.240625 256.371028 
" clip-path="url(#pb5f885571e)" style="fill: none; stroke: #89bedc; stroke-width: 1.5"/>
    <path d="M 319.210179 288.21825 
L 318.395308 285.55713 
L 318.149172 282.89601 
L 318.374838 280.23489 
L 318.996772 277.57377 
L 319.579505 275.961638 
L 319.953113 274.91265 
L 321.186486 272.25153 
L 321.365105 271.927335 
L 322.645266 269.59041 
L 323.150705 268.77253 
L 324.286698 266.92929 
L 324.972017 265.912671 
L 326.382363 263.82465 
L 326.757617 263.302126 
L 328.296564 261.16353 
L 328.543217 260.833834 
L 330.293176 258.50241 
L 330.328817 258.456133 
L 332.150129 256.09713 
L 332.348237 255.84129 
L 333.935729 253.824853 
L 334.445225 253.18017 
L 335.721329 251.579844 
L 336.570895 250.51905 
L 337.506929 249.354552 
L 338.715921 247.85793 
L 339.328241 247.100531 
L 340.876655 245.19681 
L 341.113841 244.904936 
L 342.899441 242.722059 
L 343.052813 242.53569 
L 344.685041 240.552629 
L 345.248701 239.87457 
L 346.506353 238.362141 
L 347.473329 237.21345 
L 348.291953 236.240459 
L 349.733387 234.55233 
L 350.077553 234.148472 
L 351.863153 232.086566 
L 352.035109 231.89121 
L 353.684465 230.01155 
L 354.38523 229.23009 
L 355.470065 228.013132 
L 356.789993 226.56897 
L 357.255665 226.055052 
L 359.041265 224.138202 
L 359.262369 223.90785 
L 360.862577 222.219342 
L 362.257818 220.80321 
L 362.648177 220.400103 
L 364.433777 218.629727 
L 364.948959 218.14209 
L 366.219377 216.912838 
L 367.780741 215.48097 
L 368.040689 215.235064 
L 369.826289 213.645372 
L 370.818524 212.81985 
L 371.611889 212.129319 
L 373.397489 210.691516 
L 374.123675 210.15873 
L 375.218801 209.302509 
L 377.004401 208.047144 
L 377.895517 207.49761 
L 378.790001 206.897774 
L 380.575601 205.882306 
L 382.396913 205.038784 
L 383.003595 204.83649 
L 384.182513 204.399019 
L 385.968113 204.011278 
L 387.753713 203.933733 
L 389.575025 204.232422 
L 391.059185 204.83649 
L 391.360625 204.960892 
" clip-path="url(#pb5f885571e)" style="fill: none; stroke: #89bedc; stroke-width: 1.5"/>
    <path d="M 374.50099 22.10625 
L 375.417539 24.76737 
L 375.806587 27.42849 
L 375.784741 30.08961 
L 375.218801 33.783309 
L 374.872335 35.41185 
L 373.322846 40.73409 
L 369.826289 51.945273 
L 367.495575 59.80545 
L 365.648294 65.12769 
L 364.433777 68.056324 
L 362.648177 71.770309 
L 360.862577 75.009471 
L 358.752305 78.43329 
L 355.075278 83.75553 
L 350.077553 90.38542 
L 342.32442 100.16577 
L 331.808851 113.47137 
L 327.855615 118.79361 
L 324.241442 124.11585 
L 322.618603 126.77697 
L 321.141606 129.43809 
L 319.579505 132.639157 
L 317.793905 136.927467 
L 316.512305 140.52609 
L 312.103012 153.83169 
L 310.615793 157.348211 
L 308.794481 161.058263 
L 307.008881 164.238827 
L 305.205135 167.13729 
L 301.534342 172.45953 
L 296.259569 179.45987 
L 288.794917 188.86977 
L 241.519033 247.85793 
L 237.013361 254.075632 
L 234.113214 258.50241 
L 231.656561 262.812692 
L 231.119092 263.82465 
L 229.622691 266.92929 
L 227.38762 272.25153 
L 224.133212 280.23489 
L 222.657137 283.200267 
L 220.871537 286.14315 
L 219.354717 288.21825 
L 219.354717 288.21825 
" clip-path="url(#pb5f885571e)" style="fill: none; stroke: #89bedc; stroke-width: 1.5"/>
    <path d="M 391.360625 281.416162 
L 390.107319 282.89601 
L 389.575025 283.48439 
L 387.753713 285.414194 
L 387.613637 285.55713 
L 385.968113 287.135863 
L 384.77148 288.21825 
" clip-path="url(#pb5f885571e)" style="fill: none; stroke: #89bedc; stroke-width: 1.5"/>
   </g>
   <g id="PathCollection_5">
    <path d="M 34.240625 174.620881 
L 35.320941 172.45953 
L 36.026225 171.194977 
L 36.8188 169.79841 
L 37.847537 168.133543 
L 38.471936 167.13729 
L 39.633137 165.399746 
L 40.256867 164.47617 
L 41.418737 162.835 
L 42.146011 161.81505 
L 43.204337 160.380664 
L 44.113671 159.15393 
L 45.025649 157.953536 
L 46.138329 156.49281 
L 46.811249 155.62562 
L 48.204856 153.83169 
L 48.596849 153.334176 
L 50.301908 151.17057 
L 50.382449 151.069458 
L 52.203761 148.78634 
L 52.424418 148.50945 
L 53.989361 146.562128 
L 54.561543 145.84833 
L 55.774961 144.343056 
L 56.703885 143.18721 
L 57.560561 142.124807 
L 58.845678 140.52609 
L 59.381873 139.860159 
L 60.983364 137.86497 
L 61.167473 137.635987 
L 62.953073 135.412162 
L 63.119938 135.20385 
L 64.738673 133.193982 
L 65.614457 132.09921 
L 66.559985 130.924361 
L 67.753038 129.43809 
L 68.345585 128.70343 
L 69.895584 126.77697 
L 70.131185 126.485391 
L 71.916785 124.272829 
L 72.043301 124.11585 
L 73.738097 122.020795 
L 74.194336 121.45473 
L 75.523697 119.809761 
L 76.341698 118.79361 
L 77.309297 117.593658 
L 78.483146 116.13249 
L 79.094897 115.372182 
L 80.619456 113.47137 
L 80.916209 113.102075 
L 82.701809 110.875145 
L 82.753784 110.81025 
L 84.487409 108.655441 
L 84.89335 108.14913 
L 86.273009 106.436763 
L 87.035161 105.48801 
L 88.094321 104.1748 
L 89.178221 102.82689 
L 89.879921 101.956667 
L 91.319104 100.16577 
L 91.665521 99.734864 
L 93.451121 97.505344 
L 93.451676 97.50465 
L 95.272433 95.223257 
L 95.573857 94.84353 
L 97.058033 92.965439 
L 97.673167 92.18241 
L 98.843633 90.680975 
L 99.741955 89.52129 
L 100.629233 88.362252 
L 102.103184 86.41665 
L 102.450545 85.949164 
L 104.067521 83.75553 
L 104.236145 83.520044 
L 105.956439 81.09441 
L 106.021745 80.998406 
L 107.747097 78.43329 
L 107.807345 78.338429 
L 109.416976 75.77217 
L 109.628657 75.408222 
L 110.947365 73.11105 
L 111.414257 72.218764 
L 112.328308 70.44993 
L 113.199857 68.571361 
L 113.559213 67.78881 
L 114.653765 65.12769 
L 114.985457 64.230725 
L 115.634833 62.46657 
L 116.526595 59.80545 
L 116.806769 58.919729 
L 117.37017 57.14433 
L 118.199205 54.48321 
L 118.592369 53.258245 
L 119.058494 51.82209 
L 119.985714 49.16097 
L 120.377969 48.142966 
L 121.022374 46.49985 
L 122.163569 43.936837 
L 122.410177 43.39521 
L 123.788051 40.73409 
L 123.984881 40.394625 
L 125.365156 38.07297 
L 125.770481 37.458541 
L 127.158501 35.41185 
L 127.556081 34.877971 
L 129.190552 32.75073 
L 129.341681 32.570043 
L 131.162993 30.46727 
L 131.502717 30.08961 
L 132.948593 28.608202 
L 134.155232 27.42849 
L 134.734193 26.904816 
L 136.519793 25.372894 
L 137.267253 24.76737 
L 138.341105 23.96292 
L 140.126705 22.716104 
L 141.065407 22.10625 
" clip-path="url(#pb5f885571e)" style="fill: none; stroke: #539ecd; stroke-width: 1.5"/>
    <path d="M 151.904997 288.21825 
L 150.124131 285.55713 
L 149.272783 282.89601 
L 149.109642 280.23489 
L 149.483047 277.57377 
L 150.274203 274.91265 
L 151.400684 272.25153 
L 152.791599 269.59041 
L 154.482929 266.798572 
L 158.382458 261.16353 
L 163.446641 254.5668 
L 172.410353 243.354237 
L 188.587889 223.133393 
L 193.944689 215.979789 
L 196.147284 212.81985 
L 199.337201 207.737402 
L 200.93497 204.83649 
L 202.944113 200.57107 
L 203.402556 199.51425 
L 205.368133 194.19201 
L 209.72829 180.88641 
L 210.802936 178.22529 
L 212.228661 175.12065 
L 213.693425 172.319952 
L 215.479025 169.277165 
L 218.632716 164.47617 
L 222.657137 158.947854 
L 228.698303 151.17057 
L 246.012785 129.635793 
L 278.296433 89.520603 
L 282.629052 83.75553 
L 286.309944 78.43329 
L 289.081457 73.861105 
L 289.508564 73.11105 
L 290.887178 70.44993 
L 292.652657 66.506747 
L 294.198738 62.46657 
L 296.259569 56.116827 
L 298.045169 50.639296 
L 299.605244 46.49985 
L 301.616369 42.202226 
L 303.437681 38.95826 
L 305.223281 36.215576 
L 307.008881 33.795591 
L 308.794481 31.62432 
L 310.615793 29.617335 
L 312.842418 27.42849 
L 315.993367 24.76737 
L 319.883743 22.10625 
L 319.883743 22.10625 
" clip-path="url(#pb5f885571e)" style="fill: none; stroke: #539ecd; stroke-width: 1.5"/>
    <path d="M 190.699218 22.10625 
L 193.264036 24.76737 
L 195.003769 27.42849 
L 196.149903 30.08961 
L 196.823664 32.75073 
L 197.111266 35.41185 
L 197.057544 38.07297 
L 196.696089 40.73409 
L 195.766001 44.224004 
L 194.965871 46.49985 
L 193.776141 49.16097 
L 192.159089 52.17506 
L 190.373489 55.097786 
L 187.16176 59.80545 
L 183.188729 65.12769 
L 176.017265 74.187399 
L 94.756472 175.12065 
L 89.879921 181.543431 
L 86.273009 186.646166 
L 83.181792 191.53089 
L 80.916209 195.72957 
L 80.351086 196.85313 
L 78.070787 202.17537 
L 76.181702 207.49761 
L 73.456228 215.48097 
L 71.916785 219.257374 
L 70.131185 222.923665 
L 69.606253 223.90785 
L 68.006831 226.56897 
L 66.175322 229.23009 
L 64.092062 231.89121 
L 61.167473 235.151063 
L 59.052294 237.21345 
L 55.774961 239.988565 
L 53.989361 241.261581 
L 51.941151 242.53569 
L 50.382449 243.353346 
L 48.596849 244.11191 
L 46.811249 244.676467 
L 45.025649 245.019312 
L 43.204337 245.103961 
L 41.418737 244.882084 
L 39.633137 244.303155 
L 37.847537 243.299751 
L 36.026225 241.673305 
L 34.240625 239.237194 
L 34.240625 239.237194 
" clip-path="url(#pb5f885571e)" style="fill: none; stroke: #539ecd; stroke-width: 1.5"/>
    <path d="M 330.750982 288.21825 
L 330.328817 287.685526 
L 328.873774 285.55713 
L 328.543217 284.636331 
L 327.98629 282.89601 
L 327.804335 280.23489 
L 328.161391 277.57377 
L 328.543217 276.291322 
L 328.948564 274.91265 
L 330.073589 272.25153 
L 330.328817 271.768159 
L 331.471596 269.59041 
L 332.150129 268.46999 
L 333.079408 266.92929 
L 333.935729 265.656134 
L 335.160364 263.82465 
L 335.721329 263.046777 
L 337.077967 261.16353 
L 337.506929 260.595247 
L 339.08664 258.50241 
L 339.328241 258.192313 
L 341.113841 255.903084 
L 341.162154 255.84129 
L 342.899441 253.668792 
L 343.290634 253.18017 
L 344.685041 251.46418 
L 345.455314 250.51905 
L 346.506353 249.242001 
L 347.651246 247.85793 
L 348.291953 247.08931 
L 349.881475 245.19681 
L 350.077553 244.964921 
L 351.863153 242.880728 
L 352.16307 242.53569 
L 353.684465 240.798658 
L 354.507598 239.87457 
L 355.470065 238.801513 
L 356.924247 237.21345 
L 357.255665 236.853358 
L 359.041265 234.967829 
L 359.447881 234.55233 
L 360.862577 233.111167 
L 362.103179 231.89121 
L 362.648177 231.355451 
L 364.433777 229.679171 
L 364.938995 229.23009 
L 366.219377 228.089444 
L 368.026982 226.56897 
L 368.040689 226.55737 
L 369.826289 225.174555 
L 371.597434 223.90785 
L 371.611889 223.897422 
L 373.397489 222.768104 
L 375.218801 221.76298 
L 377.004401 220.941279 
L 377.40819 220.80321 
L 378.790001 220.322702 
L 380.575601 219.929059 
L 382.396913 219.796148 
L 384.182513 219.97957 
L 385.968113 220.536533 
L 386.465292 220.80321 
L 387.753713 221.586848 
L 389.575025 223.283378 
L 390.07007 223.90785 
L 391.360625 225.838758 
" clip-path="url(#pb5f885571e)" style="fill: none; stroke: #539ecd; stroke-width: 1.5"/>
    <path d="M 363.157188 22.10625 
L 365.154488 24.76737 
L 366.237628 27.42849 
L 366.67616 30.08961 
L 366.673852 32.75073 
L 366.219377 36.119747 
L 365.835354 38.07297 
L 364.433777 43.544509 
L 360.612045 57.14433 
L 358.84312 62.46657 
L 357.255665 66.348995 
L 355.470065 70.05915 
L 355.270412 70.44993 
L 353.684465 73.261491 
L 350.359159 78.43329 
L 346.506353 83.772772 
L 339.973133 92.18241 
L 324.972017 111.08596 
L 321.213433 116.13249 
L 317.56597 121.45473 
L 315.920264 124.11585 
L 314.186993 127.218916 
L 312.401393 130.878676 
L 311.850505 132.09921 
L 309.662693 137.86497 
L 305.223281 151.424004 
L 303.437681 155.703001 
L 303.08138 156.49281 
L 301.616369 159.391052 
L 299.830769 162.516365 
L 296.860501 167.13729 
L 292.652657 172.979419 
L 287.260145 179.965438 
L 280.082033 188.943109 
L 236.926672 242.53569 
L 231.656561 249.572109 
L 229.145302 253.18017 
L 226.264049 257.76964 
L 224.370117 261.16353 
L 222.657137 264.665097 
L 220.512598 269.59041 
L 218.31242 274.91265 
L 217.107164 277.57377 
L 215.479025 280.622716 
L 213.693425 283.325642 
L 211.866423 285.55713 
L 208.985859 288.21825 
L 208.985859 288.21825 
" clip-path="url(#pb5f885571e)" style="fill: none; stroke: #539ecd; stroke-width: 1.5"/>
    <path d="M 391.360625 268.342069 
L 390.749289 269.59041 
L 389.575025 271.666481 
L 389.234789 272.25153 
L 387.753713 274.504868 
L 387.477571 274.91265 
L 385.968113 276.918297 
L 385.458372 277.57377 
L 384.182513 279.067773 
L 383.147191 280.23489 
L 382.396913 281.011221 
L 380.575601 282.810877 
L 380.485389 282.89601 
L 378.790001 284.3659 
L 377.3303 285.55713 
L 377.004401 285.802615 
L 375.218801 287.063223 
L 373.4491 288.21825 
" clip-path="url(#pb5f885571e)" style="fill: none; stroke: #539ecd; stroke-width: 1.5"/>
   </g>
   <g id="PathCollection_6">
    <path d="M 170.266275 288.21825 
L 168.839153 287.771045 
L 167.053553 287.083341 
L 164.052873 285.55713 
L 163.446641 285.063169 
L 161.304027 282.89601 
L 160.092487 280.23489 
L 159.875441 277.226174 
L 160.219707 274.91265 
L 161.093932 272.25153 
L 162.330099 269.59041 
L 163.839675 266.92929 
L 167.053553 262.167955 
L 169.776281 258.50241 
L 176.108722 250.51905 
L 193.944689 228.478689 
L 199.818405 220.80321 
L 203.586541 215.48097 
L 206.515313 210.829284 
L 208.300913 207.614259 
L 209.677794 204.83649 
L 210.843043 202.17537 
L 212.804933 196.85313 
L 217.300337 182.850715 
L 219.227114 178.22529 
L 220.871537 174.955889 
L 222.657137 171.857383 
L 225.72075 167.13729 
L 229.835249 161.458808 
L 235.755052 153.83169 
L 251.369585 134.474099 
L 262.154609 121.323746 
L 278.296433 101.596475 
L 285.744749 92.18241 
L 290.073763 86.41665 
L 293.74806 81.09441 
L 296.259569 76.975568 
L 298.045169 73.657502 
L 298.326893 73.11105 
L 299.830769 69.805618 
L 300.669946 67.78881 
L 302.549179 62.46657 
L 305.959532 51.82209 
L 307.008881 49.059593 
L 308.794481 45.203637 
L 310.615793 41.922745 
L 312.401393 39.21972 
L 314.186993 36.879185 
L 315.972593 34.810883 
L 317.988386 32.75073 
L 321.365105 29.902936 
L 325.121581 27.42849 
L 328.543217 25.764969 
L 331.115211 24.76737 
L 333.935729 23.993888 
L 337.506929 23.377927 
L 341.113841 23.169156 
L 342.899441 23.232182 
L 344.685041 23.415856 
L 346.506353 23.738745 
L 348.291953 24.202305 
L 350.077553 24.845161 
L 351.863153 25.884374 
L 353.865088 27.42849 
L 355.696338 30.08961 
L 356.52273 32.75073 
L 356.772098 35.41185 
L 356.648369 38.07297 
L 356.295778 40.73409 
L 355.139585 46.49985 
L 353.684465 52.4229 
L 352.331157 57.14433 
L 351.448338 59.80545 
L 350.077553 63.331872 
L 348.291953 67.177913 
L 347.985001 67.78881 
L 346.506353 70.463804 
L 344.685041 73.398383 
L 341.113841 78.555359 
L 337.166915 83.75553 
L 328.295864 94.84353 
L 321.365105 103.477897 
L 315.724401 110.81025 
L 311.898231 116.13249 
L 308.794481 120.950465 
L 306.987243 124.11585 
L 305.223281 127.653242 
L 304.410263 129.43809 
L 303.344767 132.09921 
L 301.368178 137.86497 
L 298.01065 148.50945 
L 296.259569 152.901659 
L 295.85424 153.83169 
L 294.438257 156.732433 
L 292.652657 159.922882 
L 289.765715 164.47617 
L 285.975457 169.79841 
L 280.082033 177.45153 
L 274.725233 184.16264 
L 260.13582 202.17537 
L 235.227761 232.592115 
L 227.437049 242.53569 
L 223.533524 247.85793 
L 219.982492 253.18017 
L 217.300337 257.809818 
L 215.585947 261.16353 
L 212.998667 266.92929 
L 210.693218 272.25153 
L 209.380586 274.91265 
L 207.822245 277.57377 
L 205.837306 280.23489 
L 203.164083 282.89601 
L 202.944113 283.071081 
L 201.122801 284.370392 
L 199.214286 285.55713 
L 195.766001 287.05909 
L 192.114222 288.21825 
L 192.114222 288.21825 
" clip-path="url(#pb5f885571e)" style="fill: none; stroke: #2b7bba; stroke-width: 1.5"/>
    <path d="M 172.08986 22.10625 
L 174.231665 22.541465 
L 176.017265 23.033473 
L 177.802865 23.647885 
L 180.338521 24.76737 
L 181.409777 25.425638 
L 184.042227 27.42849 
L 184.980977 28.484061 
L 186.225174 30.08961 
L 187.506841 32.75073 
L 188.159616 35.41185 
L 188.313717 38.07297 
L 188.044724 40.73409 
L 187.417921 43.39521 
L 186.290004 46.49985 
L 184.980977 49.253952 
L 183.195377 52.360702 
L 181.409777 55.128409 
L 177.802865 60.186122 
L 174.002041 65.12769 
L 165.232241 75.94564 
L 147.304817 97.833091 
L 120.377969 131.227508 
L 104.236145 151.285246 
L 86.273009 173.762256 
L 80.916209 180.907182 
L 77.252396 186.20865 
L 74.012912 191.53089 
L 71.295866 196.85313 
L 69.048207 202.17537 
L 64.983984 212.81985 
L 63.759217 215.48097 
L 62.34494 218.14209 
L 60.642258 220.80321 
L 58.119634 223.90785 
L 57.560561 224.497987 
L 55.187723 226.56897 
L 53.989361 227.413594 
L 52.203761 228.400007 
L 50.382449 229.095731 
L 48.596849 229.38997 
L 46.687584 229.23009 
L 45.025649 228.584976 
L 43.204337 227.168196 
L 42.701029 226.56897 
L 41.056572 223.90785 
L 39.633137 219.950145 
L 39.20399 218.14209 
L 38.716608 215.48097 
L 38.071228 210.15873 
L 37.746355 204.83649 
L 37.671898 199.51425 
L 37.867717 194.19201 
L 38.114427 191.53089 
L 38.476722 188.86977 
L 38.971262 186.20865 
L 39.633137 183.480669 
L 40.461975 180.88641 
L 41.476264 178.22529 
L 43.204337 174.606249 
L 45.025649 171.387216 
L 46.811249 168.561129 
L 49.630129 164.47617 
L 53.989361 158.657252 
L 59.888721 151.17057 
L 102.450545 98.245676 
L 109.219278 89.52129 
L 113.199857 84.032228 
L 115.181156 81.09441 
L 116.844642 78.43329 
L 118.592369 75.363239 
L 120.377969 71.790856 
L 120.998836 70.44993 
L 123.074751 65.12769 
L 125.595217 57.14433 
L 127.322828 51.82209 
L 128.328854 49.16097 
L 129.465704 46.49985 
L 131.162993 43.168485 
L 132.948593 40.234538 
L 134.734193 37.69752 
L 136.564608 35.41185 
L 139.063525 32.75073 
L 142.026744 30.08961 
L 145.742206 27.42849 
L 149.090417 25.587461 
L 150.876017 24.739371 
L 154.482929 23.456439 
L 158.054129 22.521735 
L 160.321165 22.10625 
L 160.321165 22.10625 
" clip-path="url(#pb5f885571e)" style="fill: none; stroke: #2b7bba; stroke-width: 1.5"/>
    <path d="M 338.995202 277.57377 
L 339.299873 274.91265 
L 339.328241 274.824251 
L 340.148137 272.25153 
L 341.113841 270.132086 
L 341.359126 269.59041 
L 342.862605 266.92929 
L 342.899441 266.8737 
L 344.685041 264.162436 
L 344.904466 263.82465 
L 346.506353 261.612589 
L 346.830872 261.16353 
L 348.291953 259.271413 
L 348.885151 258.50241 
L 350.077553 257.027897 
L 351.038449 255.84129 
L 351.863153 254.857213 
L 353.276278 253.18017 
L 353.684465 252.707762 
L 355.470065 250.669142 
L 355.604871 250.51905 
L 357.255665 248.725816 
L 358.069964 247.85793 
L 359.041265 246.845068 
L 360.665692 245.19681 
L 360.862577 245.000783 
L 362.648177 243.322772 
L 363.528548 242.53569 
L 364.433777 241.742533 
L 366.219377 240.282002 
L 366.771403 239.87457 
L 368.040689 238.954167 
L 369.826289 237.801958 
L 370.904102 237.21345 
L 371.611889 236.833067 
L 373.397489 236.09692 
L 375.218801 235.593916 
L 377.004401 235.407812 
L 378.790001 235.608196 
L 380.575601 236.300949 
L 381.838263 237.21345 
L 382.396913 237.717556 
L 383.976836 239.87457 
L 384.182513 240.245849 
L 385.148718 242.53569 
L 385.922656 245.19681 
L 385.968113 245.437656 
L 386.351751 247.85793 
L 386.550821 250.51905 
L 386.538463 253.18017 
L 386.3199 255.84129 
L 385.968113 258.034434 
L 385.889378 258.50241 
L 385.211163 261.16353 
L 384.317676 263.82465 
L 384.182513 264.135631 
L 382.927111 266.92929 
L 382.396913 267.900822 
L 381.43958 269.59041 
L 380.575601 270.902634 
L 379.654006 272.25153 
L 378.790001 273.357694 
L 377.529056 274.91265 
L 377.004401 275.484977 
L 375.218801 277.347634 
L 374.990203 277.57377 
L 373.397489 278.96746 
L 371.870181 280.23489 
L 371.611889 280.425194 
L 369.826289 281.638282 
L 368.040689 282.764466 
L 367.809811 282.89601 
L 366.219377 283.692354 
L 364.433777 284.488133 
L 362.648177 285.187142 
L 361.538707 285.55713 
L 360.862577 285.754523 
L 359.041265 286.182408 
L 357.255665 286.501762 
L 355.470065 286.718869 
L 353.684465 286.829163 
L 351.863153 286.825059 
L 350.077553 286.69813 
L 348.291953 286.438442 
L 346.506353 286.031901 
L 345.015731 285.55713 
L 344.685041 285.41245 
L 342.899441 284.384655 
L 341.113841 283.016157 
L 340.985075 282.89601 
L 339.408413 280.23489 
L 339.328241 279.791043 
L 338.995202 277.57377 
z
" clip-path="url(#pb5f885571e)" style="fill: none; stroke: #2b7bba; stroke-width: 1.5"/>
   </g>
   <g id="PathCollection_7">
    <path d="M 55.476551 186.20865 
L 55.250437 183.54753 
L 55.63389 180.88641 
L 55.774961 180.44566 
L 56.54766 178.22529 
L 57.560561 175.963264 
L 57.940257 175.12065 
L 59.381873 172.479512 
L 59.393044 172.45953 
L 61.097604 169.79841 
L 61.167473 169.698276 
L 62.934682 167.13729 
L 62.953073 167.112429 
L 64.738673 164.698645 
L 64.898975 164.47617 
L 66.559985 162.321005 
L 66.935667 161.81505 
L 68.345585 160.03915 
L 69.017823 159.15393 
L 70.131185 157.776487 
L 71.121703 156.49281 
L 71.916785 155.520658 
L 73.238082 153.83169 
L 73.738097 153.222917 
L 75.351065 151.17057 
L 75.523697 150.961298 
L 77.309297 148.752186 
L 77.499455 148.50945 
L 79.094897 146.58551 
L 79.674372 145.84833 
L 80.916209 144.340216 
L 81.819041 143.18721 
L 82.701809 142.113918 
L 83.944234 140.52609 
L 84.487409 139.864532 
L 86.053461 137.86497 
L 86.273009 137.597757 
L 88.094321 135.308674 
L 88.176022 135.20385 
L 89.879921 133.206702 
L 90.725423 132.09921 
L 91.665521 130.965833 
L 92.869121 129.43809 
L 93.451121 128.735865 
L 95.00071 126.77697 
L 95.272433 126.447369 
L 97.058033 124.203941 
L 97.127026 124.11585 
L 98.843633 122.043231 
L 99.303926 121.45473 
L 100.629233 119.846645 
L 101.454042 118.79361 
L 102.450545 117.578059 
L 103.579973 116.13249 
L 104.236145 115.333856 
L 105.694285 113.47137 
L 106.021745 113.073152 
L 107.798329 110.81025 
L 107.807345 110.799286 
L 109.628657 108.588499 
L 109.971411 108.14913 
L 111.414257 106.39769 
L 112.122936 105.48801 
L 113.199857 104.168318 
L 114.238275 102.82689 
L 114.985457 101.897412 
L 116.313272 100.16577 
L 116.806769 99.537525 
L 118.334237 97.50465 
L 118.592369 97.167956 
L 120.297882 94.84353 
L 120.377969 94.735439 
L 122.163569 92.237518 
L 122.201557 92.18241 
L 123.984881 89.572098 
L 124.018051 89.52129 
L 125.770481 86.828701 
L 126.015716 86.41665 
L 127.545846 83.75553 
L 127.556081 83.73689 
L 128.976672 81.09441 
L 129.341681 80.331589 
L 130.24028 78.43329 
L 131.162993 76.133577 
L 131.307976 75.77217 
L 132.288946 73.11105 
L 132.948593 70.960005 
L 133.108037 70.44993 
L 133.876649 67.78881 
L 134.542858 65.12769 
L 134.734193 64.342163 
L 135.210905 62.46657 
L 135.878718 59.80545 
L 136.519793 57.326989 
L 136.569645 57.14433 
L 137.395478 54.48321 
L 138.30855 51.82209 
L 138.341105 51.742175 
L 139.448325 49.16097 
L 140.126705 47.790276 
L 140.797656 46.49985 
L 141.912305 44.690353 
L 142.73991 43.39521 
L 143.697905 42.128549 
L 144.803594 40.73409 
L 145.519217 39.956527 
L 147.304817 38.111602 
L 147.345079 38.07297 
L 149.090417 36.646139 
L 150.693385 35.41185 
L 150.876017 35.291956 
L 152.697329 34.228529 
L 154.482929 33.292835 
L 155.676719 32.75073 
L 156.268529 32.525632 
L 158.054129 31.97437 
L 159.875441 31.541737 
L 161.661041 31.254378 
L 163.446641 31.113747 
L 165.232241 31.133077 
L 167.053553 31.333817 
L 168.839153 31.726972 
L 170.624753 32.336762 
L 171.507236 32.75073 
L 172.410353 33.371757 
L 174.231665 35.048807 
L 174.544295 35.41185 
L 175.76471 38.07297 
L 176.017265 40.326489 
L 176.054895 40.73409 
L 176.017265 41.011398 
L 175.679977 43.39521 
L 174.652049 46.49985 
L 174.231665 47.38416 
L 173.366428 49.16097 
L 172.410353 50.8043 
L 171.808159 51.82209 
L 170.624753 53.598865 
L 170.029839 54.48321 
L 168.839153 56.116021 
L 168.084855 57.14433 
L 167.053553 58.472665 
L 166.014153 59.80545 
L 165.232241 60.769096 
L 163.850548 62.46657 
L 163.446641 62.947702 
L 161.661041 65.066745 
L 161.608384 65.12769 
L 159.875441 67.088368 
L 159.253882 67.78881 
L 158.054129 69.123578 
L 156.8587 70.44993 
L 156.268529 71.099876 
L 154.482929 73.062453 
L 154.436944 73.11105 
L 152.697329 74.953811 
L 151.924591 75.77217 
L 150.876017 76.893281 
L 149.440829 78.43329 
L 149.090417 78.812666 
L 147.304817 80.715644 
L 146.942503 81.09441 
L 145.519217 82.601522 
L 144.444611 83.75553 
L 143.697905 84.566313 
L 142.026459 86.41665 
L 141.912305 86.541479 
L 140.126705 88.440421 
L 139.173957 89.52129 
L 138.341105 90.446806 
L 136.83076 92.18241 
L 136.519793 92.537252 
L 134.734193 94.600222 
L 134.524842 94.84353 
L 132.948593 96.640985 
L 132.227605 97.50465 
L 131.162993 98.748633 
L 130.004056 100.16577 
L 129.341681 100.955422 
L 127.839129 102.82689 
L 127.556081 103.16732 
L 125.770481 105.389926 
L 125.692686 105.48801 
L 123.984881 107.534502 
L 123.498552 108.14913 
L 122.163569 109.75775 
L 121.33353 110.81025 
L 120.377969 111.959636 
L 119.18409 113.47137 
L 118.592369 114.184152 
L 117.052232 116.13249 
L 116.806769 116.429088 
L 114.985457 118.709506 
L 114.919465 118.79361 
L 113.199857 120.865978 
L 112.738601 121.45473 
L 111.414257 123.059395 
L 110.587897 124.11585 
L 109.628657 125.282115 
L 108.456681 126.77697 
L 107.807345 127.568869 
L 106.342946 129.43809 
L 106.021745 129.828255 
L 104.236272 132.09921 
L 104.236145 132.09936 
L 102.450545 134.187194 
L 101.671695 135.20385 
L 100.629233 136.462551 
L 99.524199 137.86497 
L 98.843633 138.686301 
L 97.393003 140.52609 
L 97.058033 140.931984 
L 95.28196 143.18721 
L 95.272433 143.198806 
L 93.451121 145.410541 
L 93.109368 145.84833 
L 91.665521 147.600802 
L 90.956429 148.50945 
L 89.879921 149.817911 
L 88.822615 151.17057 
L 88.094321 152.055071 
L 86.697689 153.83169 
L 86.273009 154.347888 
L 84.585012 156.49281 
L 84.487409 156.611153 
L 82.701809 158.793598 
L 82.419267 159.15393 
L 80.916209 160.968298 
L 80.249853 161.81505 
L 79.094897 163.22219 
L 78.112671 164.47617 
L 77.309297 165.461234 
L 76.001158 167.13729 
L 75.523697 167.728708 
L 73.914539 169.79841 
L 73.738097 170.019222 
L 71.916785 172.333284 
L 71.81778 172.45953 
L 70.131185 174.541774 
L 69.67308 175.12065 
L 68.345585 176.726257 
L 67.176248 178.22529 
L 66.559985 178.996649 
L 65.018669 180.88641 
L 64.738673 181.237893 
L 62.953073 183.3143 
L 62.721105 183.54753 
L 61.167473 185.156035 
L 59.965356 186.20865 
L 59.381873 186.747568 
L 57.560561 187.633218 
L 55.774961 186.898522 
L 55.476551 186.20865 
z
" clip-path="url(#pb5f885571e)" style="fill: none; stroke: #0b559f; stroke-width: 1.5"/>
    <path d="M 175.616888 274.91265 
L 175.337403 272.25153 
L 175.945183 269.59041 
L 176.017265 269.435111 
L 177.189064 266.92929 
L 177.802865 265.951321 
L 179.117917 263.82465 
L 179.588465 263.182349 
L 181.076118 261.16353 
L 181.409777 260.746771 
L 183.195377 258.526327 
L 183.21521 258.50241 
L 184.980977 256.477821 
L 185.53636 255.84129 
L 186.766577 254.466722 
L 187.914508 253.18017 
L 188.587889 252.431907 
L 190.294925 250.51905 
L 190.373489 250.431466 
L 192.159089 248.504282 
L 192.751468 247.85793 
L 193.944689 246.556983 
L 195.164414 245.19681 
L 195.766001 244.526006 
L 197.502682 242.53569 
L 197.551601 242.480023 
L 199.337201 240.494014 
L 199.874405 239.87457 
L 201.122801 238.449125 
L 202.16083 237.21345 
L 202.944113 236.287898 
L 204.352528 234.55233 
L 204.729713 234.093065 
L 206.461383 231.89121 
L 206.515313 231.823319 
L 208.300913 229.551607 
L 208.543129 229.23009 
L 210.122225 227.139023 
L 210.532525 226.56897 
L 211.907825 224.655318 
L 212.420336 223.90785 
L 213.693425 222.058448 
L 214.484937 220.80321 
L 215.479025 219.192195 
L 216.106215 218.14209 
L 217.300337 215.975915 
L 217.566291 215.48097 
L 218.888049 212.81985 
L 219.085937 212.382106 
L 220.083352 210.15873 
L 220.871537 208.0678 
L 221.087191 207.49761 
L 221.999911 204.83649 
L 222.657137 202.543959 
L 222.765533 202.17537 
L 223.499775 199.51425 
L 224.148541 196.85313 
L 224.478449 195.464024 
L 224.794852 194.19201 
L 225.473597 191.53089 
L 226.178937 188.86977 
L 226.264049 188.58784 
L 227.01847 186.20865 
L 227.947077 183.54753 
L 228.049649 183.294071 
L 229.065469 180.88641 
L 229.835249 179.247162 
L 230.332937 178.22529 
L 231.656561 175.798522 
L 232.031904 175.12065 
L 233.442161 172.813192 
L 233.662005 172.45953 
L 235.227761 170.10737 
L 235.435186 169.79841 
L 237.013361 167.572738 
L 237.322852 167.13729 
L 238.834673 165.097354 
L 239.293581 164.47617 
L 240.620273 162.743523 
L 241.32555 161.81505 
L 242.405873 160.435916 
L 243.399568 159.15393 
L 244.191473 158.159982 
L 245.504889 156.49281 
L 246.012785 155.86296 
L 247.630905 153.83169 
L 247.798385 153.626123 
L 249.583985 151.426206 
L 249.790211 151.17057 
L 251.369585 149.254735 
L 251.976035 148.50945 
L 253.190897 147.042181 
L 254.167875 145.84833 
L 254.976497 144.877111 
L 256.368441 143.18721 
L 256.762097 142.716978 
L 258.547697 140.569401 
L 258.58421 140.52609 
L 260.369009 138.442282 
L 260.861595 137.86497 
L 262.154609 136.374824 
L 263.167784 135.20385 
L 263.940209 134.331818 
L 265.725809 132.290271 
L 265.896726 132.09921 
L 267.547121 130.286781 
L 268.321361 129.43809 
L 269.332721 128.335317 
L 270.760924 126.77697 
L 271.118321 126.387036 
L 272.903921 124.470619 
L 273.242773 124.11585 
L 274.725233 122.547163 
L 275.754522 121.45473 
L 276.510833 120.643797 
L 278.22112 118.79361 
L 278.296433 118.711394 
L 280.082033 116.830571 
L 280.740283 116.13249 
L 281.903345 114.882265 
L 283.190743 113.47137 
L 283.688945 112.923153 
L 285.474545 110.926038 
L 285.580623 110.81025 
L 287.260145 108.975511 
L 287.990006 108.14913 
L 289.081457 106.915084 
L 290.29594 105.48801 
L 290.867057 104.823322 
L 292.512293 102.82689 
L 292.652657 102.658428 
L 294.438257 100.49525 
L 294.702296 100.16577 
L 296.259569 98.237828 
L 296.82353 97.50465 
L 298.045169 95.932668 
L 298.851265 94.84353 
L 299.830769 93.524756 
L 300.783303 92.18241 
L 301.616369 90.998978 
L 302.61611 89.52129 
L 303.437681 88.291913 
L 304.598381 86.41665 
L 305.223281 85.371686 
L 306.161948 83.75553 
L 307.008881 82.166665 
L 307.56859 81.09441 
L 308.794481 78.433839 
L 308.794732 78.43329 
L 309.948362 75.77217 
L 310.615793 73.924853 
L 310.914348 73.11105 
L 311.794565 70.44993 
L 312.401393 68.316895 
L 312.557343 67.78881 
L 313.305684 65.12769 
L 313.991578 62.46657 
L 314.186993 61.727079 
L 314.727419 59.80545 
L 315.505325 57.14433 
L 315.972593 55.68813 
L 316.38922 54.48321 
L 317.427318 51.82209 
L 317.793905 51.00713 
L 318.690199 49.16097 
L 319.579505 47.563428 
L 320.219478 46.49985 
L 321.365105 44.876342 
L 322.48101 43.39521 
L 323.150705 42.635374 
L 324.967179 40.73409 
L 324.972017 40.729677 
L 326.757617 39.30498 
L 328.46305 38.07297 
L 328.543217 38.023028 
L 330.328817 37.121495 
L 332.150129 36.3906 
L 333.935729 35.896834 
L 335.721329 35.676084 
L 337.506929 35.80284 
L 339.328241 36.404176 
L 341.113841 37.628264 
L 341.528421 38.07297 
L 342.842835 40.73409 
L 342.899441 41.025437 
L 343.239458 43.39521 
L 343.206345 46.49985 
L 342.92417 49.16097 
L 342.899441 49.301281 
L 342.423489 51.82209 
L 341.782626 54.48321 
L 341.113841 56.797723 
L 341.005904 57.14433 
L 340.010386 59.80545 
L 339.328241 61.40761 
L 338.844382 62.46657 
L 337.506929 65.091205 
L 337.487032 65.12769 
L 335.879789 67.78881 
L 335.721329 68.03162 
L 334.071647 70.44993 
L 333.935729 70.638157 
L 332.150129 73.018098 
L 332.076817 73.11105 
L 330.328817 75.260499 
L 329.900463 75.77217 
L 328.543217 77.363847 
L 327.617305 78.43329 
L 326.757617 79.417443 
L 325.286666 81.09441 
L 324.972017 81.451559 
L 323.150705 83.487485 
L 322.904971 83.75553 
L 321.365105 85.438224 
L 320.48567 86.41665 
L 319.579505 87.407587 
L 317.793905 89.483434 
L 317.760401 89.52129 
L 315.972593 91.504229 
L 315.383234 92.18241 
L 314.186993 93.546286 
L 313.096186 94.84353 
L 312.401393 95.660239 
L 310.898292 97.50465 
L 310.615793 97.847179 
L 308.794481 100.140355 
L 308.774462 100.16577 
L 307.008881 102.376974 
L 306.668204 102.82689 
L 305.223281 104.717948 
L 304.663577 105.48801 
L 303.437681 107.174037 
L 302.759283 108.14913 
L 301.616369 109.824197 
L 300.970115 110.81025 
L 299.830769 112.610637 
L 299.306122 113.47137 
L 298.045169 115.676977 
L 297.792644 116.13249 
L 296.420953 118.79361 
L 296.259569 119.134363 
L 295.17068 121.45473 
L 294.438257 123.300374 
L 294.114196 124.11585 
L 293.170157 126.77697 
L 292.652657 128.485399 
L 292.358155 129.43809 
L 291.612746 132.09921 
L 290.867057 135.168024 
L 290.858155 135.20385 
L 290.184856 137.86497 
L 289.528259 140.52609 
L 289.081457 142.237979 
L 288.820556 143.18721 
L 288.006663 145.84833 
L 287.260145 148.056826 
L 287.09943 148.50945 
L 286.013929 151.17057 
L 285.474545 152.34792 
L 284.769449 153.83169 
L 283.688945 155.88644 
L 283.36079 156.49281 
L 281.903345 158.957612 
L 281.784817 159.15393 
L 280.082033 161.779227 
L 280.058516 161.81505 
L 278.296433 164.345369 
L 278.205034 164.47617 
L 276.510833 166.789432 
L 276.256738 167.13729 
L 274.725233 169.155466 
L 274.240288 169.79841 
L 272.903921 171.516935 
L 272.177548 172.45953 
L 271.118321 173.79532 
L 270.079775 175.12065 
L 269.332721 176.041196 
L 267.612025 178.22529 
L 267.547121 178.305092 
L 265.725809 180.543479 
L 265.449644 180.88641 
L 263.940209 182.720054 
L 263.268553 183.54753 
L 262.154609 184.893585 
L 261.080237 186.20865 
L 260.369009 187.064265 
L 258.883363 188.86977 
L 258.547697 189.271838 
L 256.762097 191.41847 
L 256.667722 191.53089 
L 254.976497 193.510304 
L 254.397223 194.19201 
L 253.190897 195.587887 
L 252.099871 196.85313 
L 251.369585 197.688611 
L 249.775108 199.51425 
L 249.583985 199.730364 
L 247.798385 201.711159 
L 247.375027 202.17537 
L 246.012785 203.658741 
L 244.929684 204.83649 
L 244.191473 205.639641 
L 242.484461 207.49761 
L 242.405873 207.583414 
L 240.620273 209.466527 
L 239.962401 210.15873 
L 238.834673 211.357572 
L 237.467015 212.81985 
L 237.013361 213.311145 
L 235.227761 215.230854 
L 234.988756 215.48097 
L 233.442161 217.12007 
L 232.496849 218.14209 
L 231.656561 219.05655 
L 230.088183 220.80321 
L 229.835249 221.081785 
L 228.049649 223.026595 
L 227.283588 223.90785 
L 226.264049 225.054758 
L 224.970319 226.56897 
L 224.478449 227.139465 
L 222.744167 229.23009 
L 222.657137 229.334307 
L 220.871537 231.467682 
L 220.530872 231.89121 
L 219.085937 233.663758 
L 218.397425 234.55233 
L 217.300337 235.952867 
L 216.356949 237.21345 
L 215.479025 238.386584 
L 214.412279 239.87457 
L 213.693425 240.882093 
L 212.56206 242.53569 
L 211.907825 243.511319 
L 210.819334 245.19681 
L 210.122225 246.321622 
L 209.198102 247.85793 
L 208.300913 249.462462 
L 207.723167 250.51905 
L 206.515313 252.952236 
L 206.403788 253.18017 
L 205.162608 255.84129 
L 204.729713 256.870454 
L 204.036641 258.50241 
L 203.012965 261.16353 
L 202.944113 261.340267 
L 201.93983 263.82465 
L 201.122801 265.814263 
L 200.646975 266.92929 
L 199.359975 269.59041 
L 199.337201 269.629592 
L 197.678472 272.25153 
L 197.551601 272.41352 
L 195.766001 274.44179 
L 195.29576 274.91265 
L 193.944689 275.956471 
L 192.159089 277.130411 
L 191.333635 277.57377 
L 190.373489 277.968764 
L 188.587889 278.523253 
L 186.766577 278.907815 
L 184.980977 279.100405 
L 183.195377 279.097439 
L 181.409777 278.878034 
L 179.588465 278.398223 
L 177.802865 277.628768 
L 177.710351 277.57377 
L 176.017265 275.582059 
L 175.616888 274.91265 
z
" clip-path="url(#pb5f885571e)" style="fill: none; stroke: #0b559f; stroke-width: 1.5"/>
   </g>
   <g id="PathCollection_8"/>
   <g id="patch_3">
    <path d="M 34.240625 288.21825 
L 34.240625 22.10625 
" style="fill: none; stroke: #000000; stroke-width: 0.8; stroke-linejoin: miter; stroke-linecap: square"/>
   </g>
   <g id="patch_4">
    <path d="M 391.360625 288.21825 
L 391.360625 22.10625 
" style="fill: none; stroke: #000000; stroke-width: 0.8; stroke-linejoin: miter; stroke-linecap: square"/>
   </g>
   <g id="patch_5">
    <path d="M 34.240625 288.21825 
L 391.360625 288.21825 
" style="fill: none; stroke: #000000; stroke-width: 0.8; stroke-linejoin: miter; stroke-linecap: square"/>
   </g>
   <g id="patch_6">
    <path d="M 34.240625 22.10625 
L 391.360625 22.10625 
" style="fill: none; stroke: #000000; stroke-width: 0.8; stroke-linejoin: miter; stroke-linecap: square"/>
   </g>
   <g id="text_16">
    <!-- 9.1_cross_20.0 -->
    <g transform="translate(168.34625 16.10625)scale(0.12 -0.12)">
     <defs>
      <path id="DejaVuSans-39" d="M 703 97 
L 703 672 
Q 941 559 1184 500 
Q 1428 441 1663 441 
Q 2288 441 2617 861 
Q 2947 1281 2994 2138 
Q 2813 1869 2534 1725 
Q 2256 1581 1919 1581 
Q 1219 1581 811 2004 
Q 403 2428 403 3163 
Q 403 3881 828 4315 
Q 1253 4750 1959 4750 
Q 2769 4750 3195 4129 
Q 3622 3509 3622 2328 
Q 3622 1225 3098 567 
Q 2575 -91 1691 -91 
Q 1453 -91 1209 -44 
Q 966 3 703 97 
z
M 1959 2075 
Q 2384 2075 2632 2365 
Q 2881 2656 2881 3163 
Q 2881 3666 2632 3958 
Q 2384 4250 1959 4250 
Q 1534 4250 1286 3958 
Q 1038 3666 1038 3163 
Q 1038 2656 1286 2365 
Q 1534 2075 1959 2075 
z
" transform="scale(0.015625)"/>
      <path id="DejaVuSans-2e" d="M 684 794 
L 1344 794 
L 1344 0 
L 684 0 
L 684 794 
z
" transform="scale(0.015625)"/>
      <path id="DejaVuSans-5f" d="M 3263 -1063 
L 3263 -1509 
L -63 -1509 
L -63 -1063 
L 3263 -1063 
z
" transform="scale(0.015625)"/>
      <path id="DejaVuSans-63" d="M 3122 3366 
L 3122 2828 
Q 2878 2963 2633 3030 
Q 2388 3097 2138 3097 
Q 1578 3097 1268 2742 
Q 959 2388 959 1747 
Q 959 1106 1268 751 
Q 1578 397 2138 397 
Q 2388 397 2633 464 
Q 2878 531 3122 666 
L 3122 134 
Q 2881 22 2623 -34 
Q 2366 -91 2075 -91 
Q 1284 -91 818 406 
Q 353 903 353 1747 
Q 353 2603 823 3093 
Q 1294 3584 2113 3584 
Q 2378 3584 2631 3529 
Q 2884 3475 3122 3366 
z
" transform="scale(0.015625)"/>
      <path id="DejaVuSans-72" d="M 2631 2963 
Q 2534 3019 2420 3045 
Q 2306 3072 2169 3072 
Q 1681 3072 1420 2755 
Q 1159 2438 1159 1844 
L 1159 0 
L 581 0 
L 581 3500 
L 1159 3500 
L 1159 2956 
Q 1341 3275 1631 3429 
Q 1922 3584 2338 3584 
Q 2397 3584 2469 3576 
Q 2541 3569 2628 3553 
L 2631 2963 
z
" transform="scale(0.015625)"/>
      <path id="DejaVuSans-73" d="M 2834 3397 
L 2834 2853 
Q 2591 2978 2328 3040 
Q 2066 3103 1784 3103 
Q 1356 3103 1142 2972 
Q 928 2841 928 2578 
Q 928 2378 1081 2264 
Q 1234 2150 1697 2047 
L 1894 2003 
Q 2506 1872 2764 1633 
Q 3022 1394 3022 966 
Q 3022 478 2636 193 
Q 2250 -91 1575 -91 
Q 1294 -91 989 -36 
Q 684 19 347 128 
L 347 722 
Q 666 556 975 473 
Q 1284 391 1588 391 
Q 1994 391 2212 530 
Q 2431 669 2431 922 
Q 2431 1156 2273 1281 
Q 2116 1406 1581 1522 
L 1381 1569 
Q 847 1681 609 1914 
Q 372 2147 372 2553 
Q 372 3047 722 3315 
Q 1072 3584 1716 3584 
Q 2034 3584 2315 3537 
Q 2597 3491 2834 3397 
z
" transform="scale(0.015625)"/>
     </defs>
     <use xlink:href="#DejaVuSans-39"/>
     <use xlink:href="#DejaVuSans-2e" x="63.623047"/>
     <use xlink:href="#DejaVuSans-31" x="95.410156"/>
     <use xlink:href="#DejaVuSans-5f" x="159.033203"/>
     <use xlink:href="#DejaVuSans-63" x="209.033203"/>
     <use xlink:href="#DejaVuSans-72" x="264.013672"/>
     <use xlink:href="#DejaVuSans-6f" x="302.876953"/>
     <use xlink:href="#DejaVuSans-73" x="364.058594"/>
     <use xlink:href="#DejaVuSans-73" x="416.158203"/>
     <use xlink:href="#DejaVuSans-5f" x="468.257812"/>
     <use xlink:href="#DejaVuSans-32" x="518.257812"/>
     <use xlink:href="#DejaVuSans-30" x="581.880859"/>
     <use xlink:href="#DejaVuSans-2e" x="645.503906"/>
     <use xlink:href="#DejaVuSans-30" x="677.291016"/>
    </g>
   </g>
  </g>
 </g>
 <defs>
  <clipPath id="pb5f885571e">
   <rect x="34.240625" y="22.10625" width="357.12" height="266.112"/>
  </clipPath>
 </defs>
</svg>
