<?xml version="1.0" encoding="utf-8" standalone="no"?>
<!DOCTYPE svg PUBLIC "-//W3C//DTD SVG 1.1//EN"
  "http://www.w3.org/Graphics/SVG/1.1/DTD/svg11.dtd">
<svg xmlns:xlink="http://www.w3.org/1999/xlink" width="408.104375pt" height="325.7745pt" viewBox="0 0 408.104375 325.7745" xmlns="http://www.w3.org/2000/svg" version="1.1">
 <metadata>
  <rdf:RDF xmlns:dc="http://purl.org/dc/elements/1.1/" xmlns:cc="http://creativecommons.org/ns#" xmlns:rdf="http://www.w3.org/1999/02/22-rdf-syntax-ns#">
   <cc:Work>
    <dc:type rdf:resource="http://purl.org/dc/dcmitype/StillImage"/>
    <dc:date>2024-07-12T12:11:02.551019</dc:date>
    <dc:format>image/svg+xml</dc:format>
    <dc:creator>
     <cc:Agent>
      <dc:title>Matplotlib v3.5.3, https://matplotlib.org/</dc:title>
     </cc:Agent>
    </dc:creator>
   </cc:Work>
  </rdf:RDF>
 </metadata>
 <defs>
  <style type="text/css">*{stroke-linejoin: round; stroke-linecap: butt}</style>
 </defs>
 <g id="figure_1">
  <g id="patch_1">
   <path d="M 0 325.7745 
L 408.104375 325.7745 
L 408.104375 0 
L 0 0 
z
" style="fill: #ffffff"/>
  </g>
  <g id="axes_1">
   <g id="patch_2">
    <path d="M 34.240625 288.21825 
L 391.360625 288.21825 
L 391.360625 22.10625 
L 34.240625 22.10625 
z
" style="fill: #ffffff"/>
   </g>
   <g id="matplotlib.axis_1">
    <g id="xtick_1">
     <g id="line2d_1">
      <defs>
       <path id="m083b457e23" d="M 0 0 
L 0 3.5 
" style="stroke: #000000; stroke-width: 0.8"/>
      </defs>
      <g>
       <use xlink:href="#m083b457e23" x="34.240625" y="288.21825" style="stroke: #000000; stroke-width: 0.8"/>
      </g>
     </g>
     <g id="text_1">
      <!-- 0 -->
      <g transform="translate(31.059375 302.816687)scale(0.1 -0.1)">
       <defs>
        <path id="DejaVuSans-30" d="M 2034 4250 
Q 1547 4250 1301 3770 
Q 1056 3291 1056 2328 
Q 1056 1369 1301 889 
Q 1547 409 2034 409 
Q 2525 409 2770 889 
Q 3016 1369 3016 2328 
Q 3016 3291 2770 3770 
Q 2525 4250 2034 4250 
z
M 2034 4750 
Q 2819 4750 3233 4129 
Q 3647 3509 3647 2328 
Q 3647 1150 3233 529 
Q 2819 -91 2034 -91 
Q 1250 -91 836 529 
Q 422 1150 422 2328 
Q 422 3509 836 4129 
Q 1250 4750 2034 4750 
z
" transform="scale(0.015625)"/>
       </defs>
       <use xlink:href="#DejaVuSans-30"/>
      </g>
     </g>
    </g>
    <g id="xtick_2">
     <g id="line2d_2">
      <g>
       <use xlink:href="#m083b457e23" x="105.664625" y="288.21825" style="stroke: #000000; stroke-width: 0.8"/>
      </g>
     </g>
     <g id="text_2">
      <!-- 20 -->
      <g transform="translate(99.302125 302.816687)scale(0.1 -0.1)">
       <defs>
        <path id="DejaVuSans-32" d="M 1228 531 
L 3431 531 
L 3431 0 
L 469 0 
L 469 531 
Q 828 903 1448 1529 
Q 2069 2156 2228 2338 
Q 2531 2678 2651 2914 
Q 2772 3150 2772 3378 
Q 2772 3750 2511 3984 
Q 2250 4219 1831 4219 
Q 1534 4219 1204 4116 
Q 875 4013 500 3803 
L 500 4441 
Q 881 4594 1212 4672 
Q 1544 4750 1819 4750 
Q 2544 4750 2975 4387 
Q 3406 4025 3406 3419 
Q 3406 3131 3298 2873 
Q 3191 2616 2906 2266 
Q 2828 2175 2409 1742 
Q 1991 1309 1228 531 
z
" transform="scale(0.015625)"/>
       </defs>
       <use xlink:href="#DejaVuSans-32"/>
       <use xlink:href="#DejaVuSans-30" x="63.623047"/>
      </g>
     </g>
    </g>
    <g id="xtick_3">
     <g id="line2d_3">
      <g>
       <use xlink:href="#m083b457e23" x="177.088625" y="288.21825" style="stroke: #000000; stroke-width: 0.8"/>
      </g>
     </g>
     <g id="text_3">
      <!-- 40 -->
      <g transform="translate(170.726125 302.816687)scale(0.1 -0.1)">
       <defs>
        <path id="DejaVuSans-34" d="M 2419 4116 
L 825 1625 
L 2419 1625 
L 2419 4116 
z
M 2253 4666 
L 3047 4666 
L 3047 1625 
L 3713 1625 
L 3713 1100 
L 3047 1100 
L 3047 0 
L 2419 0 
L 2419 1100 
L 313 1100 
L 313 1709 
L 2253 4666 
z
" transform="scale(0.015625)"/>
       </defs>
       <use xlink:href="#DejaVuSans-34"/>
       <use xlink:href="#DejaVuSans-30" x="63.623047"/>
      </g>
     </g>
    </g>
    <g id="xtick_4">
     <g id="line2d_4">
      <g>
       <use xlink:href="#m083b457e23" x="248.512625" y="288.21825" style="stroke: #000000; stroke-width: 0.8"/>
      </g>
     </g>
     <g id="text_4">
      <!-- 60 -->
      <g transform="translate(242.150125 302.816687)scale(0.1 -0.1)">
       <defs>
        <path id="DejaVuSans-36" d="M 2113 2584 
Q 1688 2584 1439 2293 
Q 1191 2003 1191 1497 
Q 1191 994 1439 701 
Q 1688 409 2113 409 
Q 2538 409 2786 701 
Q 3034 994 3034 1497 
Q 3034 2003 2786 2293 
Q 2538 2584 2113 2584 
z
M 3366 4563 
L 3366 3988 
Q 3128 4100 2886 4159 
Q 2644 4219 2406 4219 
Q 1781 4219 1451 3797 
Q 1122 3375 1075 2522 
Q 1259 2794 1537 2939 
Q 1816 3084 2150 3084 
Q 2853 3084 3261 2657 
Q 3669 2231 3669 1497 
Q 3669 778 3244 343 
Q 2819 -91 2113 -91 
Q 1303 -91 875 529 
Q 447 1150 447 2328 
Q 447 3434 972 4092 
Q 1497 4750 2381 4750 
Q 2619 4750 2861 4703 
Q 3103 4656 3366 4563 
z
" transform="scale(0.015625)"/>
       </defs>
       <use xlink:href="#DejaVuSans-36"/>
       <use xlink:href="#DejaVuSans-30" x="63.623047"/>
      </g>
     </g>
    </g>
    <g id="xtick_5">
     <g id="line2d_5">
      <g>
       <use xlink:href="#m083b457e23" x="319.936625" y="288.21825" style="stroke: #000000; stroke-width: 0.8"/>
      </g>
     </g>
     <g id="text_5">
      <!-- 80 -->
      <g transform="translate(313.574125 302.816687)scale(0.1 -0.1)">
       <defs>
        <path id="DejaVuSans-38" d="M 2034 2216 
Q 1584 2216 1326 1975 
Q 1069 1734 1069 1313 
Q 1069 891 1326 650 
Q 1584 409 2034 409 
Q 2484 409 2743 651 
Q 3003 894 3003 1313 
Q 3003 1734 2745 1975 
Q 2488 2216 2034 2216 
z
M 1403 2484 
Q 997 2584 770 2862 
Q 544 3141 544 3541 
Q 544 4100 942 4425 
Q 1341 4750 2034 4750 
Q 2731 4750 3128 4425 
Q 3525 4100 3525 3541 
Q 3525 3141 3298 2862 
Q 3072 2584 2669 2484 
Q 3125 2378 3379 2068 
Q 3634 1759 3634 1313 
Q 3634 634 3220 271 
Q 2806 -91 2034 -91 
Q 1263 -91 848 271 
Q 434 634 434 1313 
Q 434 1759 690 2068 
Q 947 2378 1403 2484 
z
M 1172 3481 
Q 1172 3119 1398 2916 
Q 1625 2713 2034 2713 
Q 2441 2713 2670 2916 
Q 2900 3119 2900 3481 
Q 2900 3844 2670 4047 
Q 2441 4250 2034 4250 
Q 1625 4250 1398 4047 
Q 1172 3844 1172 3481 
z
" transform="scale(0.015625)"/>
       </defs>
       <use xlink:href="#DejaVuSans-38"/>
       <use xlink:href="#DejaVuSans-30" x="63.623047"/>
      </g>
     </g>
    </g>
    <g id="xtick_6">
     <g id="line2d_6">
      <g>
       <use xlink:href="#m083b457e23" x="391.360625" y="288.21825" style="stroke: #000000; stroke-width: 0.8"/>
      </g>
     </g>
     <g id="text_6">
      <!-- 100 -->
      <g transform="translate(381.816875 302.816687)scale(0.1 -0.1)">
       <defs>
        <path id="DejaVuSans-31" d="M 794 531 
L 1825 531 
L 1825 4091 
L 703 3866 
L 703 4441 
L 1819 4666 
L 2450 4666 
L 2450 531 
L 3481 531 
L 3481 0 
L 794 0 
L 794 531 
z
" transform="scale(0.015625)"/>
       </defs>
       <use xlink:href="#DejaVuSans-31"/>
       <use xlink:href="#DejaVuSans-30" x="63.623047"/>
       <use xlink:href="#DejaVuSans-30" x="127.246094"/>
      </g>
     </g>
    </g>
    <g id="text_7">
     <!-- axialRotation -->
     <g transform="translate(180.024844 316.494812)scale(0.1 -0.1)">
      <defs>
       <path id="DejaVuSans-61" d="M 2194 1759 
Q 1497 1759 1228 1600 
Q 959 1441 959 1056 
Q 959 750 1161 570 
Q 1363 391 1709 391 
Q 2188 391 2477 730 
Q 2766 1069 2766 1631 
L 2766 1759 
L 2194 1759 
z
M 3341 1997 
L 3341 0 
L 2766 0 
L 2766 531 
Q 2569 213 2275 61 
Q 1981 -91 1556 -91 
Q 1019 -91 701 211 
Q 384 513 384 1019 
Q 384 1609 779 1909 
Q 1175 2209 1959 2209 
L 2766 2209 
L 2766 2266 
Q 2766 2663 2505 2880 
Q 2244 3097 1772 3097 
Q 1472 3097 1187 3025 
Q 903 2953 641 2809 
L 641 3341 
Q 956 3463 1253 3523 
Q 1550 3584 1831 3584 
Q 2591 3584 2966 3190 
Q 3341 2797 3341 1997 
z
" transform="scale(0.015625)"/>
       <path id="DejaVuSans-78" d="M 3513 3500 
L 2247 1797 
L 3578 0 
L 2900 0 
L 1881 1375 
L 863 0 
L 184 0 
L 1544 1831 
L 300 3500 
L 978 3500 
L 1906 2253 
L 2834 3500 
L 3513 3500 
z
" transform="scale(0.015625)"/>
       <path id="DejaVuSans-69" d="M 603 3500 
L 1178 3500 
L 1178 0 
L 603 0 
L 603 3500 
z
M 603 4863 
L 1178 4863 
L 1178 4134 
L 603 4134 
L 603 4863 
z
" transform="scale(0.015625)"/>
       <path id="DejaVuSans-6c" d="M 603 4863 
L 1178 4863 
L 1178 0 
L 603 0 
L 603 4863 
z
" transform="scale(0.015625)"/>
       <path id="DejaVuSans-52" d="M 2841 2188 
Q 3044 2119 3236 1894 
Q 3428 1669 3622 1275 
L 4263 0 
L 3584 0 
L 2988 1197 
Q 2756 1666 2539 1819 
Q 2322 1972 1947 1972 
L 1259 1972 
L 1259 0 
L 628 0 
L 628 4666 
L 2053 4666 
Q 2853 4666 3247 4331 
Q 3641 3997 3641 3322 
Q 3641 2881 3436 2590 
Q 3231 2300 2841 2188 
z
M 1259 4147 
L 1259 2491 
L 2053 2491 
Q 2509 2491 2742 2702 
Q 2975 2913 2975 3322 
Q 2975 3731 2742 3939 
Q 2509 4147 2053 4147 
L 1259 4147 
z
" transform="scale(0.015625)"/>
       <path id="DejaVuSans-6f" d="M 1959 3097 
Q 1497 3097 1228 2736 
Q 959 2375 959 1747 
Q 959 1119 1226 758 
Q 1494 397 1959 397 
Q 2419 397 2687 759 
Q 2956 1122 2956 1747 
Q 2956 2369 2687 2733 
Q 2419 3097 1959 3097 
z
M 1959 3584 
Q 2709 3584 3137 3096 
Q 3566 2609 3566 1747 
Q 3566 888 3137 398 
Q 2709 -91 1959 -91 
Q 1206 -91 779 398 
Q 353 888 353 1747 
Q 353 2609 779 3096 
Q 1206 3584 1959 3584 
z
" transform="scale(0.015625)"/>
       <path id="DejaVuSans-74" d="M 1172 4494 
L 1172 3500 
L 2356 3500 
L 2356 3053 
L 1172 3053 
L 1172 1153 
Q 1172 725 1289 603 
Q 1406 481 1766 481 
L 2356 481 
L 2356 0 
L 1766 0 
Q 1100 0 847 248 
Q 594 497 594 1153 
L 594 3053 
L 172 3053 
L 172 3500 
L 594 3500 
L 594 4494 
L 1172 4494 
z
" transform="scale(0.015625)"/>
       <path id="DejaVuSans-6e" d="M 3513 2113 
L 3513 0 
L 2938 0 
L 2938 2094 
Q 2938 2591 2744 2837 
Q 2550 3084 2163 3084 
Q 1697 3084 1428 2787 
Q 1159 2491 1159 1978 
L 1159 0 
L 581 0 
L 581 3500 
L 1159 3500 
L 1159 2956 
Q 1366 3272 1645 3428 
Q 1925 3584 2291 3584 
Q 2894 3584 3203 3211 
Q 3513 2838 3513 2113 
z
" transform="scale(0.015625)"/>
      </defs>
      <use xlink:href="#DejaVuSans-61"/>
      <use xlink:href="#DejaVuSans-78" x="61.279297"/>
      <use xlink:href="#DejaVuSans-69" x="120.458984"/>
      <use xlink:href="#DejaVuSans-61" x="148.242188"/>
      <use xlink:href="#DejaVuSans-6c" x="209.521484"/>
      <use xlink:href="#DejaVuSans-52" x="237.304688"/>
      <use xlink:href="#DejaVuSans-6f" x="302.287109"/>
      <use xlink:href="#DejaVuSans-74" x="363.46875"/>
      <use xlink:href="#DejaVuSans-61" x="402.677734"/>
      <use xlink:href="#DejaVuSans-74" x="463.957031"/>
      <use xlink:href="#DejaVuSans-69" x="503.166016"/>
      <use xlink:href="#DejaVuSans-6f" x="530.949219"/>
      <use xlink:href="#DejaVuSans-6e" x="592.130859"/>
     </g>
    </g>
   </g>
   <g id="matplotlib.axis_2">
    <g id="ytick_1">
     <g id="line2d_7">
      <defs>
       <path id="maea4507b46" d="M 0 0 
L -3.5 0 
" style="stroke: #000000; stroke-width: 0.8"/>
      </defs>
      <g>
       <use xlink:href="#maea4507b46" x="34.240625" y="288.21825" style="stroke: #000000; stroke-width: 0.8"/>
      </g>
     </g>
     <g id="text_8">
      <!-- 0 -->
      <g transform="translate(20.878125 292.017469)scale(0.1 -0.1)">
       <use xlink:href="#DejaVuSans-30"/>
      </g>
     </g>
    </g>
    <g id="ytick_2">
     <g id="line2d_8">
      <g>
       <use xlink:href="#maea4507b46" x="34.240625" y="243.86625" style="stroke: #000000; stroke-width: 0.8"/>
      </g>
     </g>
     <g id="text_9">
      <!-- 1 -->
      <g transform="translate(20.878125 247.665469)scale(0.1 -0.1)">
       <use xlink:href="#DejaVuSans-31"/>
      </g>
     </g>
    </g>
    <g id="ytick_3">
     <g id="line2d_9">
      <g>
       <use xlink:href="#maea4507b46" x="34.240625" y="199.51425" style="stroke: #000000; stroke-width: 0.8"/>
      </g>
     </g>
     <g id="text_10">
      <!-- 2 -->
      <g transform="translate(20.878125 203.313469)scale(0.1 -0.1)">
       <use xlink:href="#DejaVuSans-32"/>
      </g>
     </g>
    </g>
    <g id="ytick_4">
     <g id="line2d_10">
      <g>
       <use xlink:href="#maea4507b46" x="34.240625" y="155.16225" style="stroke: #000000; stroke-width: 0.8"/>
      </g>
     </g>
     <g id="text_11">
      <!-- 3 -->
      <g transform="translate(20.878125 158.961469)scale(0.1 -0.1)">
       <defs>
        <path id="DejaVuSans-33" d="M 2597 2516 
Q 3050 2419 3304 2112 
Q 3559 1806 3559 1356 
Q 3559 666 3084 287 
Q 2609 -91 1734 -91 
Q 1441 -91 1130 -33 
Q 819 25 488 141 
L 488 750 
Q 750 597 1062 519 
Q 1375 441 1716 441 
Q 2309 441 2620 675 
Q 2931 909 2931 1356 
Q 2931 1769 2642 2001 
Q 2353 2234 1838 2234 
L 1294 2234 
L 1294 2753 
L 1863 2753 
Q 2328 2753 2575 2939 
Q 2822 3125 2822 3475 
Q 2822 3834 2567 4026 
Q 2313 4219 1838 4219 
Q 1578 4219 1281 4162 
Q 984 4106 628 3988 
L 628 4550 
Q 988 4650 1302 4700 
Q 1616 4750 1894 4750 
Q 2613 4750 3031 4423 
Q 3450 4097 3450 3541 
Q 3450 3153 3228 2886 
Q 3006 2619 2597 2516 
z
" transform="scale(0.015625)"/>
       </defs>
       <use xlink:href="#DejaVuSans-33"/>
      </g>
     </g>
    </g>
    <g id="ytick_5">
     <g id="line2d_11">
      <g>
       <use xlink:href="#maea4507b46" x="34.240625" y="110.81025" style="stroke: #000000; stroke-width: 0.8"/>
      </g>
     </g>
     <g id="text_12">
      <!-- 4 -->
      <g transform="translate(20.878125 114.609469)scale(0.1 -0.1)">
       <use xlink:href="#DejaVuSans-34"/>
      </g>
     </g>
    </g>
    <g id="ytick_6">
     <g id="line2d_12">
      <g>
       <use xlink:href="#maea4507b46" x="34.240625" y="66.45825" style="stroke: #000000; stroke-width: 0.8"/>
      </g>
     </g>
     <g id="text_13">
      <!-- 5 -->
      <g transform="translate(20.878125 70.257469)scale(0.1 -0.1)">
       <defs>
        <path id="DejaVuSans-35" d="M 691 4666 
L 3169 4666 
L 3169 4134 
L 1269 4134 
L 1269 2991 
Q 1406 3038 1543 3061 
Q 1681 3084 1819 3084 
Q 2600 3084 3056 2656 
Q 3513 2228 3513 1497 
Q 3513 744 3044 326 
Q 2575 -91 1722 -91 
Q 1428 -91 1123 -41 
Q 819 9 494 109 
L 494 744 
Q 775 591 1075 516 
Q 1375 441 1709 441 
Q 2250 441 2565 725 
Q 2881 1009 2881 1497 
Q 2881 1984 2565 2268 
Q 2250 2553 1709 2553 
Q 1456 2553 1204 2497 
Q 953 2441 691 2322 
L 691 4666 
z
" transform="scale(0.015625)"/>
       </defs>
       <use xlink:href="#DejaVuSans-35"/>
      </g>
     </g>
    </g>
    <g id="ytick_7">
     <g id="line2d_13">
      <g>
       <use xlink:href="#maea4507b46" x="34.240625" y="22.10625" style="stroke: #000000; stroke-width: 0.8"/>
      </g>
     </g>
     <g id="text_14">
      <!-- 6 -->
      <g transform="translate(20.878125 25.905469)scale(0.1 -0.1)">
       <use xlink:href="#DejaVuSans-36"/>
      </g>
     </g>
    </g>
    <g id="text_15">
     <!-- zShift -->
     <g transform="translate(14.798438 169.151312)rotate(-90)scale(0.1 -0.1)">
      <defs>
       <path id="DejaVuSans-7a" d="M 353 3500 
L 3084 3500 
L 3084 2975 
L 922 459 
L 3084 459 
L 3084 0 
L 275 0 
L 275 525 
L 2438 3041 
L 353 3041 
L 353 3500 
z
" transform="scale(0.015625)"/>
       <path id="DejaVuSans-53" d="M 3425 4513 
L 3425 3897 
Q 3066 4069 2747 4153 
Q 2428 4238 2131 4238 
Q 1616 4238 1336 4038 
Q 1056 3838 1056 3469 
Q 1056 3159 1242 3001 
Q 1428 2844 1947 2747 
L 2328 2669 
Q 3034 2534 3370 2195 
Q 3706 1856 3706 1288 
Q 3706 609 3251 259 
Q 2797 -91 1919 -91 
Q 1588 -91 1214 -16 
Q 841 59 441 206 
L 441 856 
Q 825 641 1194 531 
Q 1563 422 1919 422 
Q 2459 422 2753 634 
Q 3047 847 3047 1241 
Q 3047 1584 2836 1778 
Q 2625 1972 2144 2069 
L 1759 2144 
Q 1053 2284 737 2584 
Q 422 2884 422 3419 
Q 422 4038 858 4394 
Q 1294 4750 2059 4750 
Q 2388 4750 2728 4690 
Q 3069 4631 3425 4513 
z
" transform="scale(0.015625)"/>
       <path id="DejaVuSans-68" d="M 3513 2113 
L 3513 0 
L 2938 0 
L 2938 2094 
Q 2938 2591 2744 2837 
Q 2550 3084 2163 3084 
Q 1697 3084 1428 2787 
Q 1159 2491 1159 1978 
L 1159 0 
L 581 0 
L 581 4863 
L 1159 4863 
L 1159 2956 
Q 1366 3272 1645 3428 
Q 1925 3584 2291 3584 
Q 2894 3584 3203 3211 
Q 3513 2838 3513 2113 
z
" transform="scale(0.015625)"/>
       <path id="DejaVuSans-66" d="M 2375 4863 
L 2375 4384 
L 1825 4384 
Q 1516 4384 1395 4259 
Q 1275 4134 1275 3809 
L 1275 3500 
L 2222 3500 
L 2222 3053 
L 1275 3053 
L 1275 0 
L 697 0 
L 697 3053 
L 147 3053 
L 147 3500 
L 697 3500 
L 697 3744 
Q 697 4328 969 4595 
Q 1241 4863 1831 4863 
L 2375 4863 
z
" transform="scale(0.015625)"/>
      </defs>
      <use xlink:href="#DejaVuSans-7a"/>
      <use xlink:href="#DejaVuSans-53" x="52.490234"/>
      <use xlink:href="#DejaVuSans-68" x="115.966797"/>
      <use xlink:href="#DejaVuSans-69" x="179.345703"/>
      <use xlink:href="#DejaVuSans-66" x="207.128906"/>
      <use xlink:href="#DejaVuSans-74" x="240.583984"/>
     </g>
    </g>
   </g>
   <g id="PathCollection_1"/>
   <g id="PathCollection_2">
    <path d="M 34.240625 171.579453 
L 35.035913 169.79841 
L 36.026225 167.411366 
L 36.1339 167.13729 
L 37.092983 164.47617 
L 37.847537 162.310079 
L 38.010504 161.81505 
L 38.862598 159.15393 
L 39.633137 156.842693 
L 39.744354 156.49281 
L 40.628491 153.83169 
L 41.418737 151.69585 
L 41.606776 151.17057 
L 42.65477 148.50945 
L 43.204337 147.270011 
L 43.824163 145.84833 
L 45.025649 143.413593 
L 45.136629 143.18721 
L 46.566244 140.52609 
L 46.811249 140.106853 
L 48.130376 137.86497 
L 48.596849 137.12644 
L 49.826101 135.20385 
L 50.382449 134.373374 
L 51.954359 132.09921 
L 52.203761 131.748887 
L 53.876753 129.43809 
L 53.989361 129.285352 
L 55.774961 126.896571 
L 55.865502 126.77697 
L 57.560561 124.550893 
L 57.897567 124.11585 
L 59.381873 122.200677 
L 59.969949 121.45473 
L 61.167473 119.926554 
L 62.071183 118.79361 
L 62.953073 117.67739 
L 64.195316 116.13249 
L 64.738673 115.448244 
L 66.334429 113.47137 
L 66.559985 113.188111 
L 68.345585 110.967447 
L 68.472649 110.81025 
L 70.131185 108.722068 
L 70.59241 108.14913 
L 71.916785 106.470378 
L 72.700191 105.48801 
L 73.738097 104.158328 
L 74.786032 102.82689 
L 75.523697 101.864892 
L 76.834171 100.16577 
L 77.309297 99.530859 
L 78.827573 97.50465 
L 79.094897 97.134872 
L 80.742094 94.84353 
L 80.916209 94.590938 
L 82.554225 92.18241 
L 82.701809 91.953582 
L 84.236523 89.52129 
L 84.487409 89.092694 
L 86.018828 86.41665 
L 86.273009 85.93265 
L 87.367142 83.75553 
L 88.094321 82.191658 
L 88.578817 81.09441 
L 89.659529 78.43329 
L 89.879921 77.845636 
L 90.612782 75.77217 
L 91.518255 73.11105 
L 91.665521 72.665313 
L 92.356606 70.44993 
L 93.218837 67.78881 
L 93.451121 67.105383 
L 94.092146 65.12769 
L 95.051341 62.46657 
L 95.272433 61.907506 
L 96.078118 59.80545 
L 97.058033 57.569153 
L 97.24058 57.14433 
L 98.510481 54.48321 
L 98.843633 53.852287 
L 99.911081 51.82209 
L 100.629233 50.579226 
L 101.450576 49.16097 
L 102.450545 47.561258 
L 103.119235 46.49985 
L 104.236145 44.814045 
L 105.204101 43.39521 
L 106.021745 42.233844 
L 107.093856 40.73409 
L 107.807345 39.757738 
L 109.058298 38.07297 
L 109.628657 37.314862 
L 111.085175 35.41185 
L 111.414257 34.983385 
L 113.162532 32.75073 
L 113.199857 32.702974 
L 114.985457 30.433358 
L 115.26077 30.08961 
L 116.806769 28.15324 
L 117.39817 27.42849 
L 118.592369 25.954804 
L 119.579413 24.76737 
L 120.377969 23.798732 
L 121.814613 22.10625 
" clip-path="url(#pd39f24a0c0)" style="fill: none; stroke: #dbe9f6; stroke-width: 1.5"/>
    <path d="M 131.211744 288.21825 
L 130.465046 285.55713 
L 129.927464 282.89601 
L 129.57291 280.23489 
L 129.380877 277.57377 
L 129.341681 274.849592 
L 129.443003 272.25153 
L 129.693567 269.59041 
L 130.098359 266.92929 
L 131.162993 262.516403 
L 131.537795 261.16353 
L 132.948593 257.289881 
L 133.53027 255.84129 
L 134.790203 253.18017 
L 136.519793 249.93817 
L 138.341105 246.886182 
L 141.216547 242.53569 
L 145.084815 237.21345 
L 149.18344 231.89121 
L 156.268529 222.947636 
L 164.433637 212.81985 
L 176.017265 198.464025 
L 205.930289 161.81505 
L 228.049649 134.389405 
L 246.012785 112.638596 
L 260.369009 96.185689 
L 262.154609 93.904427 
L 263.940209 91.411919 
L 265.725809 88.551964 
L 267.547121 85.057149 
L 268.131819 83.75553 
L 269.332721 80.60918 
L 270.784644 75.77217 
L 274.431689 62.46657 
L 276.510833 57.050486 
L 278.296433 53.269507 
L 280.082033 49.983241 
L 281.903345 46.974229 
L 284.261835 43.39521 
L 288.095451 38.07297 
L 292.652657 32.151389 
L 299.830769 23.31373 
L 300.861746 22.10625 
L 300.861746 22.10625 
" clip-path="url(#pd39f24a0c0)" style="fill: none; stroke: #dbe9f6; stroke-width: 1.5"/>
    <path d="M 219.220971 22.10625 
L 219.370663 24.76737 
L 219.085937 28.486564 
L 218.864562 30.08961 
L 218.251322 32.75073 
L 217.300337 35.605852 
L 216.323572 38.07297 
L 215.045529 40.73409 
L 213.584753 43.39521 
L 211.701217 46.49985 
L 208.08809 51.82209 
L 202.944113 58.73088 
L 197.551601 65.575823 
L 165.232241 105.516994 
L 138.341105 138.681878 
L 132.948593 145.680733 
L 130.900448 148.50945 
L 127.355671 153.83169 
L 125.770481 156.505907 
L 123.984881 159.951093 
L 121.978965 164.47617 
L 120.052252 169.79841 
L 116.331297 180.88641 
L 114.144095 186.20865 
L 112.860133 188.86977 
L 109.90002 194.19201 
L 107.807345 197.483745 
L 104.236145 202.594752 
L 98.485518 210.15873 
L 91.665521 218.729298 
L 76.493026 237.21345 
L 73.738097 240.382365 
L 68.345585 246.201772 
L 63.831704 250.51905 
L 61.167473 252.814894 
L 57.560561 255.547853 
L 53.989361 257.836941 
L 50.382449 259.70604 
L 48.596849 260.458177 
L 45.025649 261.659787 
L 41.418737 262.480248 
L 37.847537 262.874408 
L 34.240625 262.869967 
L 34.240625 262.869967 
" clip-path="url(#pd39f24a0c0)" style="fill: none; stroke: #dbe9f6; stroke-width: 1.5"/>
    <path d="M 313.764557 288.21825 
L 313.60941 285.55713 
L 313.734064 282.89601 
L 314.129446 280.23489 
L 314.186993 279.998458 
L 314.748967 277.57377 
L 315.621572 274.91265 
L 315.972593 274.063397 
L 316.704111 272.25153 
L 317.793905 270.028576 
L 318.006097 269.59041 
L 319.48207 266.92929 
L 319.579505 266.769048 
L 321.365105 263.876272 
L 321.397348 263.82465 
L 323.150705 261.199313 
L 323.174773 261.16353 
L 324.972017 258.612526 
L 325.050377 258.50241 
L 326.757617 256.169765 
L 327.001158 255.84129 
L 328.543217 253.794075 
L 329.012454 253.18017 
L 330.328817 251.469432 
L 331.071262 250.51905 
L 332.150129 249.139886 
L 333.169167 247.85793 
L 333.935729 246.888095 
L 335.296022 245.19681 
L 335.721329 244.662769 
L 337.445873 242.53569 
L 337.506929 242.459406 
L 339.328241 240.196397 
L 339.590942 239.87457 
L 341.113841 237.983769 
L 341.746029 237.21345 
L 342.899441 235.788677 
L 343.921409 234.55233 
L 344.685041 233.61629 
L 346.125389 231.89121 
L 346.506353 231.43003 
L 348.291953 229.319245 
L 348.368297 229.23009 
L 350.077553 227.213901 
L 350.643468 226.56897 
L 351.863153 225.164384 
L 352.999343 223.90785 
L 353.684465 223.136365 
L 355.470065 221.222453 
L 355.877099 220.80321 
L 357.255665 219.353881 
L 358.483367 218.14209 
L 359.041265 217.582549 
L 360.862577 215.85708 
L 361.282506 215.48097 
L 362.648177 214.234692 
L 364.35572 212.81985 
L 364.433777 212.753625 
L 366.219377 211.317291 
L 367.844409 210.15873 
L 368.040689 210.014591 
L 369.826289 208.795639 
L 371.611889 207.7338 
L 372.051302 207.49761 
L 373.397489 206.741015 
L 375.218801 205.852326 
L 377.004401 205.112579 
L 377.780551 204.83649 
L 378.790001 204.45279 
L 380.575601 203.885583 
L 382.396913 203.424548 
L 384.182513 203.080281 
L 385.968113 202.837428 
L 387.753713 202.692782 
L 389.575025 202.645083 
L 391.360625 202.696845 
" clip-path="url(#pd39f24a0c0)" style="fill: none; stroke: #dbe9f6; stroke-width: 1.5"/>
    <path d="M 379.681289 22.10625 
L 379.833423 24.76737 
L 379.711417 27.42849 
L 379.324658 30.08961 
L 378.680815 32.75073 
L 377.82614 35.41185 
L 376.728479 38.07297 
L 375.218801 41.125887 
L 373.397489 44.335795 
L 370.278841 49.16097 
L 366.219377 54.776258 
L 359.041265 64.020619 
L 346.506353 79.461015 
L 339.328241 87.933382 
L 328.490228 100.16577 
L 324.171704 105.48801 
L 321.365105 109.578783 
L 320.606539 110.81025 
L 319.179358 113.47137 
L 317.793905 116.610802 
L 316.138294 121.45473 
L 315.406596 124.11585 
L 313.349741 132.09921 
L 311.577916 137.86497 
L 309.46237 143.18721 
L 307.008881 148.063003 
L 306.770725 148.50945 
L 303.524209 153.83169 
L 301.616369 156.64907 
L 297.872348 161.81505 
L 291.715288 169.79841 
L 274.694124 191.53089 
L 271.043174 196.85313 
L 269.332721 199.637618 
L 267.547121 202.909205 
L 265.406521 207.49761 
L 263.408948 212.81985 
L 258.547697 227.167772 
L 257.729642 229.23009 
L 255.211169 234.55233 
L 253.190897 238.190703 
L 250.491403 242.53569 
L 246.811356 247.85793 
L 235.413961 263.82465 
L 233.442161 267.039649 
L 231.656561 270.328202 
L 229.495638 274.91265 
L 227.39313 280.23489 
L 224.373943 288.21825 
L 224.373943 288.21825 
" clip-path="url(#pd39f24a0c0)" style="fill: none; stroke: #dbe9f6; stroke-width: 1.5"/>
   </g>
   <g id="PathCollection_3">
    <path d="M 34.240625 190.078524 
L 35.098997 188.86977 
L 36.026225 187.528737 
L 36.928465 186.20865 
L 37.847537 184.808958 
L 38.661105 183.54753 
L 39.633137 181.95425 
L 40.269112 180.88641 
L 41.418737 178.81467 
L 41.73612 178.22529 
L 43.204337 175.235048 
L 43.258653 175.12065 
L 44.395962 172.45953 
L 45.025649 170.852096 
L 45.422722 169.79841 
L 46.350741 167.13729 
L 46.811249 165.749826 
L 47.21987 164.47617 
L 48.061118 161.81505 
L 48.596849 160.167111 
L 48.91866 159.15393 
L 49.816275 156.49281 
L 50.382449 154.963224 
L 50.797203 153.83169 
L 51.882844 151.17057 
L 52.203761 150.4623 
L 53.091558 148.50945 
L 53.989361 146.741032 
L 54.447617 145.84833 
L 55.774961 143.495713 
L 55.951852 143.18721 
L 57.560561 140.585826 
L 57.598196 140.52609 
L 59.373539 137.86497 
L 59.381873 137.853006 
L 61.167473 135.329199 
L 61.257813 135.20385 
L 62.953073 132.903135 
L 63.560342 132.09921 
L 64.738673 130.555037 
L 65.603449 129.43809 
L 66.559985 128.209394 
L 67.689524 126.77697 
L 68.345585 125.944878 
L 69.804996 124.11585 
L 70.131185 123.705725 
L 71.916785 121.484124 
L 71.940476 121.45473 
L 73.738097 119.21415 
L 74.078272 118.79361 
L 75.523697 116.99361 
L 76.220305 116.13249 
L 77.309297 114.773297 
L 78.358729 113.47137 
L 79.094897 112.546932 
L 80.483622 110.81025 
L 80.916209 110.261601 
L 82.585618 108.14913 
L 82.701809 107.999476 
L 84.487409 105.694368 
L 84.646713 105.48801 
L 86.273009 103.335564 
L 86.655538 102.82689 
L 88.094321 100.861485 
L 88.599232 100.16577 
L 89.879921 98.336756 
L 90.454818 97.50465 
L 91.665521 95.668019 
L 92.198503 94.84353 
L 93.451121 92.785052 
L 93.808202 92.18241 
L 95.271351 89.52129 
L 95.272433 89.519124 
L 96.767043 86.41665 
L 97.058033 85.747603 
L 97.888977 83.75553 
L 98.843633 81.2467 
L 98.899167 81.09441 
L 99.790485 78.43329 
L 100.629233 75.805918 
L 100.639583 75.77217 
L 101.436678 73.11105 
L 102.261665 70.44993 
L 102.450545 69.873485 
L 103.115423 67.78881 
L 104.056175 65.12769 
L 104.236145 64.666541 
L 105.083611 62.46657 
L 106.021745 60.321468 
L 106.246339 59.80545 
L 107.536592 57.14433 
L 107.807345 56.637762 
L 108.964109 54.48321 
L 109.628657 53.351821 
L 110.534968 51.82209 
L 111.414257 50.43763 
L 112.234523 49.16097 
L 113.199857 47.734307 
L 114.045838 46.49985 
L 114.985457 45.174294 
L 116.276016 43.39521 
L 116.806769 42.679059 
L 118.266956 40.73409 
L 118.592369 40.306571 
L 120.316234 38.07297 
L 120.377969 37.993599 
L 122.163569 35.71485 
L 122.403839 35.41185 
L 123.984881 33.429336 
L 124.534435 32.75073 
L 125.770481 31.228716 
L 126.712593 30.08961 
L 127.556081 29.071783 
L 128.947724 27.42849 
L 129.341681 26.964242 
L 131.162993 24.867342 
L 131.251129 24.76737 
L 132.948593 22.852612 
L 133.633303 22.10625 
" clip-path="url(#pd39f24a0c0)" style="fill: none; stroke: #bad6eb; stroke-width: 1.5"/>
    <path d="M 141.437598 288.21825 
L 140.457136 285.55713 
L 139.733507 282.89601 
L 139.239769 280.23489 
L 138.963199 277.57377 
L 138.885234 274.91265 
L 138.99606 272.25153 
L 139.293246 269.59041 
L 140.126705 265.593975 
L 140.576803 263.82465 
L 141.912305 260.043366 
L 142.529334 258.50241 
L 143.788193 255.84129 
L 145.519217 252.648388 
L 147.304817 249.706777 
L 150.339856 245.19681 
L 154.482929 239.591048 
L 161.661041 230.433195 
L 184.980977 201.589293 
L 201.122801 182.206787 
L 209.276229 172.45953 
L 228.049649 149.364713 
L 244.24059 129.43809 
L 249.583985 123.090625 
L 254.976497 117.064104 
L 260.369009 111.470833 
L 271.118321 100.814213 
L 272.903921 98.839742 
L 274.725233 96.618065 
L 276.510833 94.057784 
L 277.620293 92.18241 
L 278.859606 89.52129 
L 280.082033 85.878767 
L 280.625035 83.75553 
L 281.636945 78.43329 
L 283.043461 70.44993 
L 284.37396 65.12769 
L 285.474545 61.866473 
L 286.26306 59.80545 
L 287.456678 57.14433 
L 289.081457 54.006494 
L 290.867057 50.949024 
L 293.772046 46.49985 
L 296.259569 43.022816 
L 301.616369 36.01528 
L 306.429845 30.08961 
L 311.027935 24.76737 
L 313.478768 22.10625 
L 313.478768 22.10625 
" clip-path="url(#pd39f24a0c0)" style="fill: none; stroke: #bad6eb; stroke-width: 1.5"/>
    <path d="M 208.155591 22.10625 
L 208.480551 24.76737 
L 208.456534 27.42849 
L 208.115225 30.08961 
L 207.48834 32.75073 
L 206.515313 35.562477 
L 204.729713 39.487737 
L 204.09958 40.73409 
L 202.566759 43.39521 
L 199.337201 48.341435 
L 196.861062 51.82209 
L 192.159089 58.00899 
L 181.409777 71.501955 
L 165.232241 91.378794 
L 133.691488 129.43809 
L 127.027024 137.86497 
L 122.163569 144.432538 
L 119.40188 148.50945 
L 116.806769 152.852634 
L 114.918634 156.49281 
L 113.199857 160.462756 
L 111.709687 164.47617 
L 109.628657 170.88312 
L 107.807345 176.35224 
L 107.136175 178.22529 
L 104.880875 183.54753 
L 102.450545 188.197062 
L 100.629233 191.240135 
L 98.694115 194.19201 
L 94.868677 199.51425 
L 89.879921 205.967814 
L 80.057988 218.14209 
L 71.916785 227.987865 
L 66.559985 234.082781 
L 62.953073 237.851584 
L 59.381873 241.224924 
L 55.774961 244.206041 
L 52.203761 246.693834 
L 48.596849 248.700868 
L 46.811249 249.500624 
L 43.833061 250.51905 
L 43.204337 250.709685 
L 41.418737 251.114361 
L 39.633137 251.379893 
L 37.847537 251.505066 
L 36.026225 251.484394 
L 34.240625 251.312423 
L 34.240625 251.312423 
" clip-path="url(#pd39f24a0c0)" style="fill: none; stroke: #bad6eb; stroke-width: 1.5"/>
    <path d="M 325.430234 288.21825 
L 325.053545 285.55713 
L 325.05104 282.89601 
L 325.384254 280.23489 
L 326.026273 277.57377 
L 326.757617 275.479573 
L 326.953204 274.91265 
L 328.122085 272.25153 
L 328.543217 271.443665 
L 329.508376 269.59041 
L 330.328817 268.199099 
L 331.079475 266.92929 
L 332.150129 265.275144 
L 333.099579 263.82465 
L 333.935729 262.622189 
L 334.957167 261.16353 
L 335.721329 260.114118 
L 336.904519 258.50241 
L 337.506929 257.7027 
L 338.921277 255.84129 
L 339.328241 255.314546 
L 340.992572 253.18017 
L 341.113841 253.025953 
L 342.899441 250.768855 
L 343.098352 250.51905 
L 344.685041 248.533357 
L 345.229642 247.85793 
L 346.506353 246.27492 
L 347.384395 245.19681 
L 348.291953 244.079493 
L 349.560561 242.53569 
L 350.077553 241.904476 
L 351.763838 239.87457 
L 351.863153 239.754705 
L 353.684465 237.581 
L 353.997496 237.21345 
L 355.470065 235.487091 
L 356.287075 234.55233 
L 357.255665 233.4473 
L 358.663197 231.89121 
L 359.041265 231.474596 
L 360.862577 229.533439 
L 361.157281 229.23009 
L 362.648177 227.703079 
L 363.816682 226.56897 
L 364.433777 225.971674 
L 366.219377 224.337646 
L 366.71775 223.90785 
L 368.040689 222.765722 
L 369.826289 221.352712 
L 370.579956 220.80321 
L 371.611889 220.04722 
L 373.397489 218.865279 
L 374.624459 218.14209 
L 375.218801 217.78931 
L 377.004401 216.854609 
L 378.790001 216.058999 
L 380.347394 215.48097 
L 380.575601 215.394841 
L 382.396913 214.842052 
L 384.182513 214.440166 
L 385.968113 214.176193 
L 387.753713 214.05168 
L 389.575025 214.072409 
L 391.360625 214.244115 
" clip-path="url(#pd39f24a0c0)" style="fill: none; stroke: #bad6eb; stroke-width: 1.5"/>
    <path d="M 368.009025 22.10625 
L 368.390132 24.76737 
L 368.393071 27.42849 
L 368.040689 30.140409 
L 367.414507 32.75073 
L 366.219377 36.023608 
L 365.320903 38.07297 
L 363.931331 40.73409 
L 362.35833 43.39521 
L 359.041265 48.364809 
L 356.537054 51.82209 
L 351.863153 57.894696 
L 342.899441 68.999702 
L 335.721329 77.50204 
L 330.328817 83.441888 
L 324.365102 89.52129 
L 313.754053 100.16577 
L 311.549172 102.82689 
L 309.70468 105.48801 
L 308.234714 108.14913 
L 307.008881 111.085504 
L 306.241595 113.47137 
L 305.223281 117.895622 
L 304.595858 121.45473 
L 303.437681 128.039717 
L 302.544944 132.09921 
L 301.616369 135.310803 
L 300.742606 137.86497 
L 299.65983 140.52609 
L 298.045169 143.892761 
L 296.259569 147.126891 
L 294.438257 150.084033 
L 291.918514 153.83169 
L 287.260145 160.160634 
L 281.813349 167.13729 
L 268.854716 183.54753 
L 264.949203 188.86977 
L 262.154609 193.040793 
L 259.867939 196.85313 
L 258.457153 199.51425 
L 256.762097 203.241577 
L 255.124111 207.49761 
L 253.406837 212.81985 
L 250.910082 220.80321 
L 248.723173 226.56897 
L 247.518174 229.23009 
L 246.012785 232.193999 
L 244.191473 235.411829 
L 241.369662 239.87457 
L 237.013361 246.064711 
L 229.835249 255.914424 
L 226.264049 261.263134 
L 224.478449 264.264036 
L 222.657137 267.665585 
L 220.5339 272.25153 
L 218.428336 277.57377 
L 215.277132 285.55713 
L 214.03219 288.21825 
L 214.03219 288.21825 
" clip-path="url(#pd39f24a0c0)" style="fill: none; stroke: #bad6eb; stroke-width: 1.5"/>
    <path d="M 391.360625 274.887781 
L 391.340902 274.91265 
L 389.575025 277.116783 
L 389.203941 277.57377 
L 387.753713 279.343824 
L 387.011589 280.23489 
L 385.968113 281.478471 
L 384.753669 282.89601 
L 384.182513 283.557613 
L 382.410044 285.55713 
L 382.396913 285.571815 
L 380.575601 287.568858 
L 379.961935 288.21825 
" clip-path="url(#pd39f24a0c0)" style="fill: none; stroke: #bad6eb; stroke-width: 1.5"/>
   </g>
   <g id="PathCollection_4">
    <path d="M 34.240625 203.363969 
L 37.847537 198.226651 
L 43.204337 190.624473 
L 46.057086 186.20865 
L 48.596849 181.685313 
L 50.262405 178.22529 
L 51.545969 175.12065 
L 53.403276 169.79841 
L 56.761236 159.15393 
L 57.734707 156.49281 
L 59.381873 152.613028 
L 61.167473 149.029598 
L 61.444907 148.50945 
L 62.99501 145.84833 
L 64.738673 143.134147 
L 68.513039 137.86497 
L 73.738097 131.194958 
L 92.195133 108.14913 
L 96.084661 102.82689 
L 98.843633 98.67915 
L 101.117775 94.84353 
L 102.500417 92.18241 
L 104.236145 88.259469 
L 105.884933 83.75553 
L 107.481295 78.43329 
L 109.781954 70.44993 
L 111.646794 65.12769 
L 113.199857 61.528256 
L 114.985457 57.964529 
L 116.806769 54.770585 
L 118.664732 51.82209 
L 122.370334 46.49985 
L 127.556081 39.68366 
L 133.190403 32.75073 
L 137.820065 27.42849 
L 140.304996 24.76737 
L 142.970324 22.10625 
L 142.970324 22.10625 
" clip-path="url(#pd39f24a0c0)" style="fill: none; stroke: #89bedc; stroke-width: 1.5"/>
    <path d="M 149.585955 288.21825 
L 148.262214 285.55713 
L 147.303893 282.89601 
L 146.647815 280.23489 
L 146.266833 277.57377 
L 146.134101 274.91265 
L 146.232845 272.25153 
L 146.554222 269.59041 
L 147.304817 266.202689 
L 147.990729 263.82465 
L 149.090417 260.937184 
L 150.876017 257.166104 
L 152.697329 253.916538 
L 154.482929 251.07848 
L 156.68399 247.85793 
L 160.62254 242.53569 
L 167.053553 234.358932 
L 186.766577 209.988247 
L 195.766001 199.208326 
L 204.734492 188.86977 
L 216.717938 175.12065 
L 227.742667 161.81505 
L 253.190897 130.725132 
L 256.762097 126.717159 
L 260.369009 122.964261 
L 263.940209 119.573837 
L 268.020106 116.13249 
L 271.118321 113.794216 
L 275.738658 110.81025 
L 278.296433 109.351992 
L 281.903345 107.66843 
L 283.688945 107.010037 
L 285.474545 106.535078 
L 287.260145 106.33782 
L 289.081457 106.639741 
L 290.977248 108.14913 
L 292.652657 111.516444 
L 293.179913 113.47137 
L 293.722642 116.13249 
L 294.091526 118.79361 
L 294.299211 121.45473 
L 294.345538 124.11585 
L 294.224397 126.77697 
L 293.927216 129.43809 
L 293.44491 132.09921 
L 292.636553 135.20385 
L 291.710557 137.86497 
L 290.585377 140.52609 
L 289.081457 143.507023 
L 287.260145 146.638856 
L 284.289589 151.17057 
L 280.082033 156.937132 
L 274.215959 164.47617 
L 262.154609 179.766029 
L 258.547697 184.678453 
L 255.707961 188.86977 
L 253.190897 193.082453 
L 251.369585 196.610256 
L 250.082484 199.51425 
L 249.055628 202.17537 
L 247.3328 207.49761 
L 244.191473 218.329483 
L 243.362557 220.80321 
L 242.174961 223.90785 
L 240.620273 227.382921 
L 238.834673 230.84504 
L 237.013361 233.97606 
L 234.946172 237.21345 
L 231.233676 242.53569 
L 221.674235 255.84129 
L 219.085937 259.915083 
L 216.866925 263.82465 
L 215.317572 266.92929 
L 213.025854 272.25153 
L 208.731766 282.89601 
L 207.409529 285.55713 
L 205.841263 288.21825 
L 205.841263 288.21825 
" clip-path="url(#pd39f24a0c0)" style="fill: none; stroke: #89bedc; stroke-width: 1.5"/>
    <path d="M 199.153466 22.10625 
L 199.782793 24.76737 
L 199.952706 27.42849 
L 199.724662 30.08961 
L 199.147166 32.75073 
L 198.267445 35.41185 
L 197.119741 38.07297 
L 195.744976 40.73409 
L 193.944689 43.770131 
L 190.319627 49.16097 
L 186.361873 54.48321 
L 179.588465 63.085146 
L 167.053553 78.593385 
L 157.913796 89.52129 
L 150.876017 97.652949 
L 137.084998 113.47137 
L 127.556081 124.985788 
L 120.377969 134.018085 
L 116.806769 138.777454 
L 113.199857 143.972368 
L 110.412904 148.50945 
L 108.979754 151.17057 
L 107.699611 153.83169 
L 106.021745 157.908295 
L 104.645198 161.81505 
L 100.362506 175.12065 
L 98.843633 178.861894 
L 97.058033 182.588236 
L 95.272433 185.804287 
L 93.352987 188.86977 
L 89.580908 194.19201 
L 84.487409 200.723129 
L 74.619623 212.81985 
L 66.559985 222.434128 
L 62.895026 226.56897 
L 59.381873 230.210044 
L 55.774961 233.526831 
L 53.989361 234.98743 
L 50.382449 237.510427 
L 48.596849 238.530132 
L 45.641959 239.87457 
L 45.025649 240.116551 
L 43.204337 240.656742 
L 41.418737 241.008203 
L 39.633137 241.170401 
L 37.847537 241.126706 
L 36.026225 240.848398 
L 34.240625 240.320349 
L 34.240625 240.320349 
" clip-path="url(#pd39f24a0c0)" style="fill: none; stroke: #89bedc; stroke-width: 1.5"/>
    <path d="M 336.115426 288.21825 
L 335.721329 287.201874 
L 335.157239 285.55713 
L 334.81021 282.89601 
L 334.948906 280.23489 
L 335.491564 277.57377 
L 335.721329 276.888956 
L 336.384774 274.91265 
L 337.506929 272.373961 
L 337.561216 272.25153 
L 338.982789 269.59041 
L 339.328241 269.019352 
L 340.597188 266.92929 
L 341.113841 266.15427 
L 342.670085 263.82465 
L 342.899441 263.502988 
L 344.573359 261.16353 
L 344.685041 261.013774 
L 346.506353 258.580971 
L 346.565342 258.50241 
L 348.291953 256.272331 
L 348.626345 255.84129 
L 350.077553 254.010634 
L 350.737257 253.18017 
L 351.863153 251.784017 
L 352.886145 250.51905 
L 353.684465 249.542351 
L 355.067064 247.85793 
L 355.470065 247.37133 
L 357.255665 245.230248 
L 357.283804 245.19681 
L 359.041265 243.135066 
L 359.558388 242.53569 
L 360.862577 241.046669 
L 361.908918 239.87457 
L 362.648177 239.061251 
L 364.374683 237.21345 
L 364.433777 237.151459 
L 366.219377 235.348678 
L 367.043285 234.55233 
L 368.040689 233.612249 
L 369.826289 232.023504 
L 369.985215 231.89121 
L 371.611889 230.574326 
L 373.397489 229.244286 
L 373.418597 229.23009 
L 375.218801 228.052407 
L 377.004401 227.02279 
L 377.921995 226.56897 
L 378.790001 226.150208 
L 380.575601 225.448205 
L 382.396913 224.902557 
L 384.182513 224.545637 
L 385.968113 224.379629 
L 387.753713 224.423159 
L 389.575025 224.707436 
L 391.360625 225.250055 
" clip-path="url(#pd39f24a0c0)" style="fill: none; stroke: #89bedc; stroke-width: 1.5"/>
    <path d="M 357.333848 22.10625 
L 358.282355 24.76737 
L 358.633137 27.42849 
L 358.492804 30.08961 
L 357.946831 32.75073 
L 357.255665 34.822841 
L 357.058971 35.41185 
L 355.878019 38.07297 
L 355.470065 38.838683 
L 354.456982 40.73409 
L 353.684465 42.010244 
L 352.843023 43.39521 
L 351.863153 44.863562 
L 350.769497 46.49985 
L 350.077553 47.469207 
L 348.866073 49.16097 
L 348.291953 49.929949 
L 346.874919 51.82209 
L 346.506353 52.299938 
L 344.817103 54.48321 
L 344.685041 54.650474 
L 342.899441 56.902552 
L 342.707296 57.14433 
L 341.113841 59.119004 
L 340.558765 59.80545 
L 339.328241 61.310701 
L 338.379946 62.46657 
L 337.506929 63.521608 
L 336.169946 65.12769 
L 335.721329 65.662017 
L 333.935729 67.768162 
L 333.918001 67.78881 
L 332.150129 69.820783 
L 331.593756 70.44993 
L 330.328817 71.860202 
L 329.180617 73.11105 
L 328.543217 73.795847 
L 326.757617 75.656542 
L 326.642593 75.77217 
L 324.972017 77.428527 
L 323.915519 78.43329 
L 323.150705 79.155713 
L 321.365105 80.759625 
L 320.970358 81.09441 
L 319.579505 82.277144 
L 317.793905 83.710501 
L 317.733139 83.75553 
L 315.972593 85.085163 
L 314.186993 86.347828 
L 314.079182 86.41665 
L 312.401393 87.53498 
L 310.615793 88.633901 
L 309.034735 89.52129 
L 308.794481 89.667394 
L 307.008881 90.602202 
L 305.223281 91.431438 
L 303.437681 92.137769 
L 303.273038 92.18241 
L 301.616369 92.722209 
L 299.830769 93.06522 
L 298.045169 93.027904 
L 296.259569 92.242283 
L 296.199869 92.18241 
L 294.438257 89.891709 
L 294.28656 89.52129 
L 293.240873 86.41665 
L 292.652657 83.837996 
L 292.638295 83.75553 
L 292.262832 81.09441 
L 292.037061 78.43329 
L 291.964311 75.77217 
L 292.053064 73.11105 
L 292.314054 70.44993 
L 292.652657 68.438422 
L 292.761766 67.78881 
L 293.413368 65.12769 
L 294.261343 62.46657 
L 294.438257 62.020188 
L 295.324017 59.80545 
L 296.259569 57.822652 
L 296.583367 57.14433 
L 298.03076 54.48321 
L 298.045169 54.459276 
L 299.649705 51.82209 
L 299.830769 51.545963 
L 301.408977 49.16097 
L 301.616369 48.864271 
L 303.28161 46.49985 
L 303.437681 46.287501 
L 305.223281 43.875905 
L 305.580315 43.39521 
L 307.008881 41.535673 
L 307.627683 40.73409 
L 308.794481 39.259097 
L 309.73855 38.07297 
L 310.615793 36.994477 
L 311.913954 35.41185 
L 312.401393 34.829981 
L 314.163959 32.75073 
L 314.186993 32.724136 
L 315.972593 30.698981 
L 316.519581 30.08961 
L 317.793905 28.709118 
L 319.007089 27.42849 
L 319.579505 26.842918 
L 321.365105 25.081708 
L 321.696729 24.76737 
L 323.150705 23.445347 
L 324.709137 22.10625 
" clip-path="url(#pd39f24a0c0)" style="fill: none; stroke: #89bedc; stroke-width: 1.5"/>
    <path d="M 391.360625 262.098246 
L 390.148192 263.82465 
L 389.575025 264.604863 
L 387.85841 266.92929 
L 387.753713 267.066454 
L 385.968113 269.390191 
L 385.813467 269.59041 
L 384.182513 271.648925 
L 383.702309 272.25153 
L 382.396913 273.85272 
L 381.525558 274.91265 
L 380.575601 276.043166 
L 379.273953 277.57377 
L 378.790001 278.130127 
L 377.004401 280.147614 
L 376.925664 280.23489 
L 375.218801 282.071991 
L 374.43268 282.89601 
L 373.397489 283.946026 
L 371.748082 285.55713 
L 371.611889 285.68537 
L 369.826289 287.286597 
L 368.726365 288.21825 
" clip-path="url(#pd39f24a0c0)" style="fill: none; stroke: #89bedc; stroke-width: 1.5"/>
   </g>
   <g id="PathCollection_5">
    <path d="M 157.724804 288.21825 
L 155.805431 285.55713 
L 154.449669 282.89601 
L 153.54416 280.23489 
L 152.997965 277.57377 
L 152.770701 274.91265 
L 152.83353 272.25153 
L 153.16589 269.59041 
L 153.752926 266.92929 
L 154.746915 263.82465 
L 156.268529 260.31476 
L 158.054129 256.953059 
L 159.875441 253.977641 
L 162.222118 250.51905 
L 166.183874 245.19681 
L 172.509428 237.21345 
L 192.375145 212.81985 
L 199.337201 204.686756 
L 204.729713 198.708608 
L 210.122225 193.029046 
L 222.657137 180.119332 
L 228.049649 174.149837 
L 235.227761 165.735344 
L 246.012785 152.473465 
L 251.411873 145.84833 
L 258.547697 137.583897 
L 262.154609 133.841389 
L 263.940209 132.078385 
L 267.547121 129.095722 
L 271.118321 126.821084 
L 272.903921 126.053904 
L 274.725233 125.524267 
L 276.510833 125.333087 
L 278.296433 125.603254 
L 280.306567 126.77697 
L 281.81455 129.43809 
L 281.903345 129.927205 
L 282.17774 132.09921 
L 281.903345 135.218724 
L 281.180177 137.86497 
L 280.082033 140.711235 
L 278.296433 144.149586 
L 276.510833 147.100716 
L 273.766565 151.17057 
L 269.332721 157.128609 
L 263.550295 164.47617 
L 257.243049 172.45953 
L 253.190897 177.870328 
L 249.583985 183.125243 
L 247.691163 186.20865 
L 246.012785 189.273432 
L 244.191473 193.196834 
L 243.778292 194.19201 
L 242.405873 198.108149 
L 241.241899 202.17537 
L 238.045185 215.48097 
L 237.013361 218.856865 
L 236.34249 220.80321 
L 235.100386 223.90785 
L 233.442161 227.376106 
L 231.656561 230.624208 
L 229.227302 234.55233 
L 225.553621 239.87457 
L 216.025334 253.18017 
L 213.693425 256.830578 
L 211.213703 261.16353 
L 209.870573 263.82465 
L 207.341312 269.59041 
L 204.142237 277.57377 
L 202.940428 280.23489 
L 201.122801 283.58208 
L 199.337201 286.223429 
L 197.689367 288.21825 
L 197.689367 288.21825 
" clip-path="url(#pd39f24a0c0)" style="fill: none; stroke: #539ecd; stroke-width: 1.5"/>
    <path d="M 189.804986 22.10625 
L 191.096007 24.76737 
L 191.675178 27.42849 
L 191.702345 30.08961 
L 191.280963 32.75073 
L 190.373489 35.699694 
L 189.390576 38.07297 
L 188.037325 40.73409 
L 186.478685 43.39521 
L 183.195377 48.287352 
L 180.614946 51.82209 
L 174.231665 60.014577 
L 163.446641 73.347951 
L 156.268529 81.825889 
L 150.876017 87.883966 
L 145.519217 93.60318 
L 131.162993 108.42028 
L 125.770481 114.41153 
L 118.592369 122.89499 
L 113.199857 129.704837 
L 109.129356 135.20385 
L 106.021745 139.829416 
L 104.005645 143.18721 
L 102.450545 146.10837 
L 100.629233 150.084904 
L 100.179468 151.17057 
L 98.322643 156.49281 
L 96.047751 164.47617 
L 94.458641 169.79841 
L 93.451121 172.69824 
L 91.665521 176.891622 
L 89.879921 180.371771 
L 88.094321 183.32696 
L 86.116178 186.20865 
L 82.701809 190.62539 
L 77.309297 197.041402 
L 61.167473 215.721938 
L 57.560561 219.528607 
L 55.774961 221.282825 
L 52.203761 224.328015 
L 48.749777 226.56897 
L 48.596849 226.654435 
L 46.811249 227.40993 
L 45.025649 227.925884 
L 43.204337 228.133488 
L 41.418737 227.923942 
L 39.633137 227.163207 
L 38.880955 226.56897 
L 37.847537 225.151414 
L 37.264615 223.90785 
L 36.852425 220.80321 
L 37.161583 218.14209 
L 37.887574 215.48097 
L 39.633137 211.589955 
L 40.372507 210.15873 
L 43.204337 205.523815 
L 45.433909 202.17537 
L 50.824966 194.19201 
L 52.484459 191.53089 
L 54.01638 188.86977 
L 55.774961 185.465639 
L 56.667161 183.54753 
L 57.751713 180.88641 
L 59.381873 176.156986 
L 60.483837 172.45953 
L 62.953073 163.786434 
L 64.556737 159.15393 
L 65.677893 156.49281 
L 66.957765 153.83169 
L 68.425443 151.17057 
L 70.131185 148.460311 
L 71.964355 145.84833 
L 75.523697 141.303241 
L 80.916209 134.916266 
L 88.094321 126.49096 
L 95.272433 117.76801 
L 98.843633 113.151721 
L 102.480269 108.14913 
L 105.957191 102.82689 
L 107.807345 99.563484 
L 109.628657 95.788695 
L 110.040031 94.84353 
L 111.414257 91.138576 
L 111.943666 89.52129 
L 113.479015 83.75553 
L 116.010111 73.11105 
L 116.806769 70.366592 
L 118.592369 65.405574 
L 118.700953 65.12769 
L 120.377969 61.489423 
L 122.163569 58.155716 
L 123.984881 55.13409 
L 126.17334 51.82209 
L 130.029779 46.49985 
L 134.734193 40.467161 
L 140.126705 34.016437 
L 143.697905 30.058832 
L 147.304817 26.449969 
L 150.876017 23.32644 
L 152.440486 22.10625 
L 152.440486 22.10625 
" clip-path="url(#pd39f24a0c0)" style="fill: none; stroke: #539ecd; stroke-width: 1.5"/>
    <path d="M 304.669319 70.44993 
L 304.162387 67.78881 
L 304.28569 65.12769 
L 304.843945 62.46657 
L 305.223281 61.368191 
L 305.776307 59.80545 
L 306.977965 57.14433 
L 307.008881 57.088141 
L 308.45839 54.48321 
L 308.794481 53.944157 
L 310.125616 51.82209 
L 310.615793 51.102691 
L 311.939975 49.16097 
L 312.401393 48.527382 
L 313.873069 46.49985 
L 314.186993 46.09473 
L 315.972593 43.778083 
L 316.265246 43.39521 
L 317.793905 41.523361 
L 318.436285 40.73409 
L 319.579505 39.402717 
L 320.720834 38.07297 
L 321.365105 37.362443 
L 323.144173 35.41185 
L 323.150705 35.405092 
L 324.972017 33.612472 
L 325.863952 32.75073 
L 326.757617 31.950116 
L 328.543217 30.423951 
L 328.966548 30.08961 
L 330.328817 29.113289 
L 332.150129 27.923125 
L 333.024375 27.42849 
L 333.935729 26.970689 
L 335.721329 26.26359 
L 337.506929 25.759147 
L 339.328241 25.504102 
L 341.113841 25.578144 
L 342.899441 26.069506 
L 344.685041 27.112625 
L 345.031797 27.42849 
L 346.444111 30.08961 
L 346.506353 30.90185 
L 346.610693 32.75073 
L 346.506353 33.287257 
L 346.085755 35.41185 
L 345.112062 38.07297 
L 344.685041 38.934707 
L 343.789242 40.73409 
L 342.899441 42.240541 
L 342.218018 43.39521 
L 341.113841 45.028112 
L 340.140866 46.49985 
L 339.328241 47.613782 
L 338.205848 49.16097 
L 337.506929 50.069259 
L 336.167506 51.82209 
L 335.721329 52.379248 
L 334.050201 54.48321 
L 333.935729 54.622045 
L 332.150129 56.770278 
L 331.839773 57.14433 
L 330.328817 58.900131 
L 329.552972 59.80545 
L 328.543217 60.940426 
L 327.183937 62.46657 
L 326.757617 62.926831 
L 324.972017 64.809288 
L 324.658654 65.12769 
L 323.150705 66.584052 
L 321.867552 67.78881 
L 321.365105 68.235933 
L 319.579505 69.70345 
L 318.596277 70.44993 
L 317.793905 71.023225 
L 315.972593 72.152951 
L 314.186993 73.10643 
L 314.17465 73.11105 
L 312.401393 73.730576 
L 310.615793 74.076403 
L 308.794481 74.036294 
L 307.008881 73.443965 
L 306.536566 73.11105 
L 305.223281 71.56526 
L 304.669319 70.44993 
z
" clip-path="url(#pd39f24a0c0)" style="fill: none; stroke: #539ecd; stroke-width: 1.5"/>
    <path d="M 347.025595 280.23489 
L 346.844056 277.57377 
L 347.362588 274.91265 
L 348.291953 272.305343 
L 348.311317 272.25153 
L 349.645196 269.59041 
L 350.077553 268.86117 
L 351.222365 266.92929 
L 351.863153 265.982053 
L 353.293776 263.82465 
L 353.684465 263.288316 
L 355.22452 261.16353 
L 355.470065 260.844319 
L 357.255665 258.5068 
L 357.259033 258.50241 
L 359.041265 256.296526 
L 359.405869 255.84129 
L 360.862577 254.094734 
L 361.620041 253.18017 
L 362.648177 251.984999 
L 363.904218 250.51905 
L 364.433777 249.923756 
L 366.219377 247.928168 
L 366.284393 247.85793 
L 368.040689 246.051912 
L 368.887269 245.19681 
L 369.826289 244.300583 
L 371.611889 242.660185 
L 371.760131 242.53569 
L 373.397489 241.259745 
L 375.218801 239.940364 
L 375.327578 239.87457 
L 377.004401 238.94801 
L 378.790001 238.153518 
L 380.575601 237.601523 
L 382.396913 237.37132 
L 384.182513 237.591824 
L 385.968113 238.429872 
L 387.501214 239.87457 
L 387.753713 240.331744 
L 388.557127 242.53569 
L 388.727289 245.19681 
L 388.335096 247.85793 
L 387.753713 249.787003 
L 387.526086 250.51905 
L 386.361244 253.18017 
L 385.968113 253.915835 
L 384.925649 255.84129 
L 384.182513 257.050569 
L 383.285115 258.50241 
L 382.396913 259.8134 
L 381.48119 261.16353 
L 380.575601 262.411064 
L 379.552097 263.82465 
L 378.790001 264.80696 
L 377.178674 266.92929 
L 377.004401 267.145177 
L 375.218801 269.342071 
L 375.015809 269.59041 
L 373.397489 271.465576 
L 372.718866 272.25153 
L 371.611889 273.461709 
L 370.276832 274.91265 
L 369.826289 275.373365 
L 368.040689 277.139525 
L 367.583677 277.57377 
L 366.219377 278.7733 
L 364.498304 280.23489 
L 364.433777 280.285211 
L 362.648177 281.524511 
L 360.862577 282.665239 
L 360.431758 282.89601 
L 359.041265 283.555009 
L 357.255665 284.213242 
L 355.470065 284.657683 
L 353.684465 284.835031 
L 351.863153 284.663391 
L 350.077553 284.043393 
L 348.381534 282.89601 
L 348.291953 282.780615 
L 347.025595 280.23489 
z
" clip-path="url(#pd39f24a0c0)" style="fill: none; stroke: #539ecd; stroke-width: 1.5"/>
   </g>
   <g id="PathCollection_6">
    <path d="M 168.747767 288.21825 
L 167.053553 287.216769 
L 164.840464 285.55713 
L 162.521315 282.89601 
L 161.047161 280.23489 
L 160.160518 277.57377 
L 159.736393 274.91265 
L 159.70515 272.25153 
L 160.017627 269.59041 
L 160.653105 266.92929 
L 161.7458 263.82465 
L 163.446641 260.313963 
L 165.232241 257.263361 
L 167.053553 254.513676 
L 169.966072 250.51905 
L 174.231665 245.098905 
L 192.159089 223.253277 
L 197.551601 216.844854 
L 201.122801 212.77946 
L 206.515313 207.120494 
L 210.122225 203.704066 
L 213.693425 200.65162 
L 217.300337 197.958814 
L 219.085937 196.773481 
L 220.871537 195.75673 
L 222.657137 194.876569 
L 224.478449 194.179197 
L 226.264049 193.844174 
L 228.049649 194.028327 
L 228.352138 194.19201 
L 229.835249 195.491997 
L 230.47452 196.85313 
L 231.128148 199.51425 
L 231.406399 202.17537 
L 231.467808 204.83649 
L 231.370627 207.49761 
L 231.133599 210.15873 
L 230.758141 212.81985 
L 229.835249 217.044736 
L 229.544513 218.14209 
L 228.049649 222.313334 
L 227.393765 223.90785 
L 226.1121 226.56897 
L 224.478449 229.500876 
L 221.257761 234.55233 
L 217.300337 240.165171 
L 211.798848 247.85793 
L 208.300913 253.180364 
L 206.515313 256.207247 
L 204.729713 259.57672 
L 202.752754 263.82465 
L 196.945224 277.57377 
L 195.417605 280.23489 
L 193.464434 282.89601 
L 192.159089 284.288323 
L 190.373489 285.898029 
L 188.587889 287.129489 
L 186.663624 288.21825 
L 186.663624 288.21825 
" clip-path="url(#pd39f24a0c0)" style="fill: none; stroke: #2b7bba; stroke-width: 1.5"/>
    <path d="M 72.485319 175.12065 
L 72.296265 172.45953 
L 72.534835 169.79841 
L 73.04339 167.13729 
L 73.738097 164.574481 
L 73.770411 164.47617 
L 74.939717 161.81505 
L 75.523697 160.685315 
L 76.49196 159.15393 
L 77.309297 158.014243 
L 78.683644 156.49281 
L 79.094897 156.074142 
L 80.916209 154.818623 
L 82.701809 154.251961 
L 84.487409 155.184334 
L 85.070078 156.49281 
L 85.437328 159.15393 
L 85.329294 161.81505 
L 84.932931 164.47617 
L 84.487409 166.343585 
L 84.2611 167.13729 
L 83.237098 169.79841 
L 82.701809 170.94413 
L 81.840838 172.45953 
L 80.916209 173.875689 
L 79.890167 175.12065 
L 79.094897 175.980961 
L 77.309297 177.404609 
L 75.568039 178.22529 
L 75.523697 178.245122 
L 75.358099 178.22529 
L 73.738097 177.841232 
L 72.485319 175.12065 
z
" clip-path="url(#pd39f24a0c0)" style="fill: none; stroke: #2b7bba; stroke-width: 1.5"/>
    <path d="M 123.213553 89.52129 
L 122.81513 86.41665 
L 122.723332 83.75553 
L 122.791929 81.09441 
L 122.999897 78.43329 
L 123.344854 75.77217 
L 123.832665 73.11105 
L 123.984881 72.500684 
L 124.510212 70.44993 
L 125.355802 67.78881 
L 125.770481 66.713908 
L 126.398118 65.12769 
L 127.556081 62.598048 
L 127.617689 62.46657 
L 129.041812 59.80545 
L 129.341681 59.29808 
L 130.634637 57.14433 
L 131.162993 56.328485 
L 132.371106 54.48321 
L 132.948593 53.652251 
L 134.228152 51.82209 
L 134.734193 51.131227 
L 136.181313 49.16097 
L 136.519793 48.717151 
L 138.213153 46.49985 
L 138.341105 46.338503 
L 140.126705 44.1039 
L 140.688317 43.39521 
L 141.912305 41.913015 
L 142.886529 40.73409 
L 143.697905 39.7861 
L 145.170846 38.07297 
L 145.519217 37.682752 
L 147.304817 35.714707 
L 147.584622 35.41185 
L 149.090417 33.862858 
L 150.191043 32.75073 
L 150.876017 32.097373 
L 152.697329 30.423232 
L 153.077996 30.08961 
L 154.482929 28.9467 
L 156.268529 27.568453 
L 156.4653 27.42849 
L 158.054129 26.395464 
L 159.875441 25.316759 
L 160.919149 24.76737 
L 161.661041 24.413856 
L 163.446641 23.693078 
L 165.232241 23.101146 
L 167.053553 22.639238 
L 168.839153 22.337409 
L 170.624753 22.200441 
L 172.410353 22.247774 
L 174.231665 22.511411 
L 176.017265 23.01242 
L 177.802865 23.792532 
L 179.385863 24.76737 
L 179.588465 24.954579 
L 181.409777 27.192991 
L 181.561198 27.42849 
L 182.381927 30.08961 
L 182.429634 32.75073 
L 181.921923 35.41185 
L 181.409777 36.875992 
L 180.990571 38.07297 
L 179.738993 40.73409 
L 179.588465 40.998026 
L 178.222387 43.39521 
L 177.802865 44.039688 
L 176.22078 46.49985 
L 176.017265 46.788272 
L 174.349505 49.16097 
L 174.231665 49.319432 
L 172.410353 51.777462 
L 172.37737 51.82209 
L 170.624753 54.094697 
L 170.327592 54.48321 
L 168.839153 56.370713 
L 168.234385 57.14433 
L 167.053553 58.620954 
L 166.113647 59.80545 
L 165.232241 60.8973 
L 163.973745 62.46657 
L 163.446641 63.113152 
L 161.812774 65.12769 
L 161.661041 65.311803 
L 159.875441 67.467673 
L 159.608843 67.78881 
L 158.054129 69.626956 
L 157.357147 70.44993 
L 156.268529 71.710673 
L 155.053753 73.11105 
L 154.482929 73.757417 
L 152.697329 75.760825 
L 152.686918 75.77217 
L 150.876017 77.711337 
L 150.189973 78.43329 
L 149.090417 79.573822 
L 147.591966 81.09441 
L 147.304817 81.383071 
L 145.519217 83.096097 
L 144.801465 83.75553 
L 143.697905 84.766397 
L 141.912305 86.336478 
L 141.812727 86.41665 
L 140.126705 87.775026 
L 138.341105 89.155453 
L 137.813362 89.52129 
L 136.519793 90.434579 
L 134.734193 91.579957 
L 133.651619 92.18241 
L 132.948593 92.591666 
L 131.162993 93.418462 
L 129.341681 94.044236 
L 127.556081 94.313566 
L 125.770481 93.944916 
L 124.033146 92.18241 
L 123.984881 92.095909 
L 123.213553 89.52129 
z
" clip-path="url(#pd39f24a0c0)" style="fill: none; stroke: #2b7bba; stroke-width: 1.5"/>
   </g>
   <g id="PathCollection_7">
    <path d="M 139.05403 67.78881 
L 139.082793 65.12769 
L 139.84621 62.46657 
L 140.126705 61.865147 
L 141.100476 59.80545 
L 141.912305 58.383476 
L 142.61911 57.14433 
L 143.697905 55.503017 
L 144.361715 54.48321 
L 145.519217 52.886836 
L 146.277912 51.82209 
L 147.304817 50.515025 
L 148.34395 49.16097 
L 149.090417 48.273042 
L 150.546972 46.49985 
L 150.876017 46.142625 
L 152.697329 44.204273 
L 153.432322 43.39521 
L 154.482929 42.400034 
L 156.217273 40.73409 
L 156.268529 40.690797 
L 158.054129 39.404269 
L 159.875441 38.116628 
L 159.960825 38.07297 
L 161.661041 37.380798 
L 163.446641 36.997888 
L 165.232241 37.277062 
L 166.158769 38.07297 
L 166.381685 40.73409 
L 165.518921 43.39521 
L 165.232241 43.900243 
L 163.845349 46.49985 
L 163.446641 47.095812 
L 162.100966 49.16097 
L 161.661041 49.757708 
L 160.183411 51.82209 
L 159.875441 52.215202 
L 158.14717 54.48321 
L 158.054129 54.597382 
L 156.268529 56.768776 
L 155.966322 57.14433 
L 154.482929 58.845907 
L 153.669902 59.80545 
L 152.697329 60.870516 
L 151.263925 62.46657 
L 150.876017 62.869545 
L 149.090417 64.637769 
L 148.569403 65.12769 
L 147.304817 66.206486 
L 145.519217 67.686319 
L 145.356556 67.78881 
L 143.697905 68.714853 
L 141.912305 69.364202 
L 140.126705 69.193779 
L 139.05403 67.78881 
z
" clip-path="url(#pd39f24a0c0)" style="fill: none; stroke: #0b559f; stroke-width: 1.5"/>
    <path d="M 168.511131 272.25153 
L 168.668743 269.59041 
L 168.839153 268.857263 
L 169.324437 266.92929 
L 170.571132 263.82465 
L 170.624753 263.723096 
L 172.058836 261.16353 
L 172.410353 260.615965 
L 173.839136 258.50241 
L 174.231665 257.96733 
L 175.855502 255.84129 
L 176.017265 255.639451 
L 177.802865 253.501283 
L 178.081575 253.18017 
L 179.588465 251.476686 
L 180.449154 250.51905 
L 181.409777 249.453817 
L 182.853928 247.85793 
L 183.195377 247.480661 
L 184.980977 245.537608 
L 185.299451 245.19681 
L 186.766577 243.620813 
L 187.756485 242.53569 
L 188.587889 241.621867 
L 190.137535 239.87457 
L 190.373489 239.610191 
L 192.159089 237.618144 
L 192.517537 237.21345 
L 193.944689 235.627558 
L 194.878128 234.55233 
L 195.766001 233.549782 
L 197.188062 231.89121 
L 197.551601 231.480535 
L 199.337201 229.445901 
L 199.529074 229.23009 
L 201.122801 227.532432 
L 202.006557 226.56897 
L 202.944113 225.604777 
L 204.576045 223.90785 
L 204.729713 223.761673 
L 206.515313 222.25006 
L 208.163165 220.80321 
L 208.300913 220.695356 
L 210.122225 219.612958 
L 211.907825 218.821982 
L 213.693425 218.722151 
L 215.299118 220.80321 
L 214.931616 223.90785 
L 214.01087 226.56897 
L 213.693425 227.21198 
L 212.690485 229.23009 
L 211.907825 230.584058 
L 211.158309 231.89121 
L 210.122225 233.51771 
L 209.474709 234.55233 
L 208.300913 236.30895 
L 207.712505 237.21345 
L 206.515313 238.975357 
L 205.925443 239.87457 
L 204.729713 241.663349 
L 204.16863 242.53569 
L 202.944113 244.45091 
L 202.484718 245.19681 
L 201.122801 247.495191 
L 200.915457 247.85793 
L 199.460593 250.51905 
L 199.337201 250.757058 
L 198.111274 253.18017 
L 197.551601 254.411131 
L 196.911591 255.84129 
L 195.851113 258.50241 
L 195.766001 258.724925 
L 194.826258 261.16353 
L 193.944689 263.710846 
L 193.904292 263.82465 
L 192.768124 266.92929 
L 192.159089 268.54475 
L 191.740669 269.59041 
L 190.552436 272.25153 
L 190.373489 272.593423 
L 189.031134 274.91265 
L 188.587889 275.547425 
L 186.961772 277.57377 
L 186.766577 277.771633 
L 184.980977 279.263214 
L 183.506771 280.23489 
L 183.195377 280.401007 
L 181.409777 281.073567 
L 179.588465 281.469176 
L 177.802865 281.56458 
L 176.017265 281.358378 
L 174.231665 280.833854 
L 172.989547 280.23489 
L 172.410353 279.846676 
L 170.624753 278.140018 
L 170.171696 277.57377 
L 168.915611 274.91265 
L 168.839153 274.487137 
L 168.511131 272.25153 
z
" clip-path="url(#pd39f24a0c0)" style="fill: none; stroke: #0b559f; stroke-width: 1.5"/>
   </g>
   <g id="PathCollection_8"/>
   <g id="patch_3">
    <path d="M 34.240625 288.21825 
L 34.240625 22.10625 
" style="fill: none; stroke: #000000; stroke-width: 0.8; stroke-linejoin: miter; stroke-linecap: square"/>
   </g>
   <g id="patch_4">
    <path d="M 391.360625 288.21825 
L 391.360625 22.10625 
" style="fill: none; stroke: #000000; stroke-width: 0.8; stroke-linejoin: miter; stroke-linecap: square"/>
   </g>
   <g id="patch_5">
    <path d="M 34.240625 288.21825 
L 391.360625 288.21825 
" style="fill: none; stroke: #000000; stroke-width: 0.8; stroke-linejoin: miter; stroke-linecap: square"/>
   </g>
   <g id="patch_6">
    <path d="M 34.240625 22.10625 
L 391.360625 22.10625 
" style="fill: none; stroke: #000000; stroke-width: 0.8; stroke-linejoin: miter; stroke-linecap: square"/>
   </g>
   <g id="text_16">
    <!-- 8.7_cross_26.0 -->
    <g transform="translate(168.34625 16.10625)scale(0.12 -0.12)">
     <defs>
      <path id="DejaVuSans-2e" d="M 684 794 
L 1344 794 
L 1344 0 
L 684 0 
L 684 794 
z
" transform="scale(0.015625)"/>
      <path id="DejaVuSans-37" d="M 525 4666 
L 3525 4666 
L 3525 4397 
L 1831 0 
L 1172 0 
L 2766 4134 
L 525 4134 
L 525 4666 
z
" transform="scale(0.015625)"/>
      <path id="DejaVuSans-5f" d="M 3263 -1063 
L 3263 -1509 
L -63 -1509 
L -63 -1063 
L 3263 -1063 
z
" transform="scale(0.015625)"/>
      <path id="DejaVuSans-63" d="M 3122 3366 
L 3122 2828 
Q 2878 2963 2633 3030 
Q 2388 3097 2138 3097 
Q 1578 3097 1268 2742 
Q 959 2388 959 1747 
Q 959 1106 1268 751 
Q 1578 397 2138 397 
Q 2388 397 2633 464 
Q 2878 531 3122 666 
L 3122 134 
Q 2881 22 2623 -34 
Q 2366 -91 2075 -91 
Q 1284 -91 818 406 
Q 353 903 353 1747 
Q 353 2603 823 3093 
Q 1294 3584 2113 3584 
Q 2378 3584 2631 3529 
Q 2884 3475 3122 3366 
z
" transform="scale(0.015625)"/>
      <path id="DejaVuSans-72" d="M 2631 2963 
Q 2534 3019 2420 3045 
Q 2306 3072 2169 3072 
Q 1681 3072 1420 2755 
Q 1159 2438 1159 1844 
L 1159 0 
L 581 0 
L 581 3500 
L 1159 3500 
L 1159 2956 
Q 1341 3275 1631 3429 
Q 1922 3584 2338 3584 
Q 2397 3584 2469 3576 
Q 2541 3569 2628 3553 
L 2631 2963 
z
" transform="scale(0.015625)"/>
      <path id="DejaVuSans-73" d="M 2834 3397 
L 2834 2853 
Q 2591 2978 2328 3040 
Q 2066 3103 1784 3103 
Q 1356 3103 1142 2972 
Q 928 2841 928 2578 
Q 928 2378 1081 2264 
Q 1234 2150 1697 2047 
L 1894 2003 
Q 2506 1872 2764 1633 
Q 3022 1394 3022 966 
Q 3022 478 2636 193 
Q 2250 -91 1575 -91 
Q 1294 -91 989 -36 
Q 684 19 347 128 
L 347 722 
Q 666 556 975 473 
Q 1284 391 1588 391 
Q 1994 391 2212 530 
Q 2431 669 2431 922 
Q 2431 1156 2273 1281 
Q 2116 1406 1581 1522 
L 1381 1569 
Q 847 1681 609 1914 
Q 372 2147 372 2553 
Q 372 3047 722 3315 
Q 1072 3584 1716 3584 
Q 2034 3584 2315 3537 
Q 2597 3491 2834 3397 
z
" transform="scale(0.015625)"/>
     </defs>
     <use xlink:href="#DejaVuSans-38"/>
     <use xlink:href="#DejaVuSans-2e" x="63.623047"/>
     <use xlink:href="#DejaVuSans-37" x="95.410156"/>
     <use xlink:href="#DejaVuSans-5f" x="159.033203"/>
     <use xlink:href="#DejaVuSans-63" x="209.033203"/>
     <use xlink:href="#DejaVuSans-72" x="264.013672"/>
     <use xlink:href="#DejaVuSans-6f" x="302.876953"/>
     <use xlink:href="#DejaVuSans-73" x="364.058594"/>
     <use xlink:href="#DejaVuSans-73" x="416.158203"/>
     <use xlink:href="#DejaVuSans-5f" x="468.257812"/>
     <use xlink:href="#DejaVuSans-32" x="518.257812"/>
     <use xlink:href="#DejaVuSans-36" x="581.880859"/>
     <use xlink:href="#DejaVuSans-2e" x="645.503906"/>
     <use xlink:href="#DejaVuSans-30" x="677.291016"/>
    </g>
   </g>
  </g>
 </g>
 <defs>
  <clipPath id="pd39f24a0c0">
   <rect x="34.240625" y="22.10625" width="357.12" height="266.112"/>
  </clipPath>
 </defs>
</svg>
