<?xml version="1.0" encoding="utf-8" standalone="no"?>
<!DOCTYPE svg PUBLIC "-//W3C//DTD SVG 1.1//EN"
  "http://www.w3.org/Graphics/SVG/1.1/DTD/svg11.dtd">
<svg xmlns:xlink="http://www.w3.org/1999/xlink" width="408.104375pt" height="325.7745pt" viewBox="0 0 408.104375 325.7745" xmlns="http://www.w3.org/2000/svg" version="1.1">
 <metadata>
  <rdf:RDF xmlns:dc="http://purl.org/dc/elements/1.1/" xmlns:cc="http://creativecommons.org/ns#" xmlns:rdf="http://www.w3.org/1999/02/22-rdf-syntax-ns#">
   <cc:Work>
    <dc:type rdf:resource="http://purl.org/dc/dcmitype/StillImage"/>
    <dc:date>2024-07-12T12:13:29.904292</dc:date>
    <dc:format>image/svg+xml</dc:format>
    <dc:creator>
     <cc:Agent>
      <dc:title>Matplotlib v3.5.3, https://matplotlib.org/</dc:title>
     </cc:Agent>
    </dc:creator>
   </cc:Work>
  </rdf:RDF>
 </metadata>
 <defs>
  <style type="text/css">*{stroke-linejoin: round; stroke-linecap: butt}</style>
 </defs>
 <g id="figure_1">
  <g id="patch_1">
   <path d="M 0 325.7745 
L 408.104375 325.7745 
L 408.104375 0 
L 0 0 
z
" style="fill: #ffffff"/>
  </g>
  <g id="axes_1">
   <g id="patch_2">
    <path d="M 34.240625 288.21825 
L 391.360625 288.21825 
L 391.360625 22.10625 
L 34.240625 22.10625 
z
" style="fill: #ffffff"/>
   </g>
   <g id="matplotlib.axis_1">
    <g id="xtick_1">
     <g id="line2d_1">
      <defs>
       <path id="m9bc4f5caf6" d="M 0 0 
L 0 3.5 
" style="stroke: #000000; stroke-width: 0.8"/>
      </defs>
      <g>
       <use xlink:href="#m9bc4f5caf6" x="34.240625" y="288.21825" style="stroke: #000000; stroke-width: 0.8"/>
      </g>
     </g>
     <g id="text_1">
      <!-- 0 -->
      <g transform="translate(31.059375 302.816687)scale(0.1 -0.1)">
       <defs>
        <path id="DejaVuSans-30" d="M 2034 4250 
Q 1547 4250 1301 3770 
Q 1056 3291 1056 2328 
Q 1056 1369 1301 889 
Q 1547 409 2034 409 
Q 2525 409 2770 889 
Q 3016 1369 3016 2328 
Q 3016 3291 2770 3770 
Q 2525 4250 2034 4250 
z
M 2034 4750 
Q 2819 4750 3233 4129 
Q 3647 3509 3647 2328 
Q 3647 1150 3233 529 
Q 2819 -91 2034 -91 
Q 1250 -91 836 529 
Q 422 1150 422 2328 
Q 422 3509 836 4129 
Q 1250 4750 2034 4750 
z
" transform="scale(0.015625)"/>
       </defs>
       <use xlink:href="#DejaVuSans-30"/>
      </g>
     </g>
    </g>
    <g id="xtick_2">
     <g id="line2d_2">
      <g>
       <use xlink:href="#m9bc4f5caf6" x="105.664625" y="288.21825" style="stroke: #000000; stroke-width: 0.8"/>
      </g>
     </g>
     <g id="text_2">
      <!-- 20 -->
      <g transform="translate(99.302125 302.816687)scale(0.1 -0.1)">
       <defs>
        <path id="DejaVuSans-32" d="M 1228 531 
L 3431 531 
L 3431 0 
L 469 0 
L 469 531 
Q 828 903 1448 1529 
Q 2069 2156 2228 2338 
Q 2531 2678 2651 2914 
Q 2772 3150 2772 3378 
Q 2772 3750 2511 3984 
Q 2250 4219 1831 4219 
Q 1534 4219 1204 4116 
Q 875 4013 500 3803 
L 500 4441 
Q 881 4594 1212 4672 
Q 1544 4750 1819 4750 
Q 2544 4750 2975 4387 
Q 3406 4025 3406 3419 
Q 3406 3131 3298 2873 
Q 3191 2616 2906 2266 
Q 2828 2175 2409 1742 
Q 1991 1309 1228 531 
z
" transform="scale(0.015625)"/>
       </defs>
       <use xlink:href="#DejaVuSans-32"/>
       <use xlink:href="#DejaVuSans-30" x="63.623047"/>
      </g>
     </g>
    </g>
    <g id="xtick_3">
     <g id="line2d_3">
      <g>
       <use xlink:href="#m9bc4f5caf6" x="177.088625" y="288.21825" style="stroke: #000000; stroke-width: 0.8"/>
      </g>
     </g>
     <g id="text_3">
      <!-- 40 -->
      <g transform="translate(170.726125 302.816687)scale(0.1 -0.1)">
       <defs>
        <path id="DejaVuSans-34" d="M 2419 4116 
L 825 1625 
L 2419 1625 
L 2419 4116 
z
M 2253 4666 
L 3047 4666 
L 3047 1625 
L 3713 1625 
L 3713 1100 
L 3047 1100 
L 3047 0 
L 2419 0 
L 2419 1100 
L 313 1100 
L 313 1709 
L 2253 4666 
z
" transform="scale(0.015625)"/>
       </defs>
       <use xlink:href="#DejaVuSans-34"/>
       <use xlink:href="#DejaVuSans-30" x="63.623047"/>
      </g>
     </g>
    </g>
    <g id="xtick_4">
     <g id="line2d_4">
      <g>
       <use xlink:href="#m9bc4f5caf6" x="248.512625" y="288.21825" style="stroke: #000000; stroke-width: 0.8"/>
      </g>
     </g>
     <g id="text_4">
      <!-- 60 -->
      <g transform="translate(242.150125 302.816687)scale(0.1 -0.1)">
       <defs>
        <path id="DejaVuSans-36" d="M 2113 2584 
Q 1688 2584 1439 2293 
Q 1191 2003 1191 1497 
Q 1191 994 1439 701 
Q 1688 409 2113 409 
Q 2538 409 2786 701 
Q 3034 994 3034 1497 
Q 3034 2003 2786 2293 
Q 2538 2584 2113 2584 
z
M 3366 4563 
L 3366 3988 
Q 3128 4100 2886 4159 
Q 2644 4219 2406 4219 
Q 1781 4219 1451 3797 
Q 1122 3375 1075 2522 
Q 1259 2794 1537 2939 
Q 1816 3084 2150 3084 
Q 2853 3084 3261 2657 
Q 3669 2231 3669 1497 
Q 3669 778 3244 343 
Q 2819 -91 2113 -91 
Q 1303 -91 875 529 
Q 447 1150 447 2328 
Q 447 3434 972 4092 
Q 1497 4750 2381 4750 
Q 2619 4750 2861 4703 
Q 3103 4656 3366 4563 
z
" transform="scale(0.015625)"/>
       </defs>
       <use xlink:href="#DejaVuSans-36"/>
       <use xlink:href="#DejaVuSans-30" x="63.623047"/>
      </g>
     </g>
    </g>
    <g id="xtick_5">
     <g id="line2d_5">
      <g>
       <use xlink:href="#m9bc4f5caf6" x="319.936625" y="288.21825" style="stroke: #000000; stroke-width: 0.8"/>
      </g>
     </g>
     <g id="text_5">
      <!-- 80 -->
      <g transform="translate(313.574125 302.816687)scale(0.1 -0.1)">
       <defs>
        <path id="DejaVuSans-38" d="M 2034 2216 
Q 1584 2216 1326 1975 
Q 1069 1734 1069 1313 
Q 1069 891 1326 650 
Q 1584 409 2034 409 
Q 2484 409 2743 651 
Q 3003 894 3003 1313 
Q 3003 1734 2745 1975 
Q 2488 2216 2034 2216 
z
M 1403 2484 
Q 997 2584 770 2862 
Q 544 3141 544 3541 
Q 544 4100 942 4425 
Q 1341 4750 2034 4750 
Q 2731 4750 3128 4425 
Q 3525 4100 3525 3541 
Q 3525 3141 3298 2862 
Q 3072 2584 2669 2484 
Q 3125 2378 3379 2068 
Q 3634 1759 3634 1313 
Q 3634 634 3220 271 
Q 2806 -91 2034 -91 
Q 1263 -91 848 271 
Q 434 634 434 1313 
Q 434 1759 690 2068 
Q 947 2378 1403 2484 
z
M 1172 3481 
Q 1172 3119 1398 2916 
Q 1625 2713 2034 2713 
Q 2441 2713 2670 2916 
Q 2900 3119 2900 3481 
Q 2900 3844 2670 4047 
Q 2441 4250 2034 4250 
Q 1625 4250 1398 4047 
Q 1172 3844 1172 3481 
z
" transform="scale(0.015625)"/>
       </defs>
       <use xlink:href="#DejaVuSans-38"/>
       <use xlink:href="#DejaVuSans-30" x="63.623047"/>
      </g>
     </g>
    </g>
    <g id="xtick_6">
     <g id="line2d_6">
      <g>
       <use xlink:href="#m9bc4f5caf6" x="391.360625" y="288.21825" style="stroke: #000000; stroke-width: 0.8"/>
      </g>
     </g>
     <g id="text_6">
      <!-- 100 -->
      <g transform="translate(381.816875 302.816687)scale(0.1 -0.1)">
       <defs>
        <path id="DejaVuSans-31" d="M 794 531 
L 1825 531 
L 1825 4091 
L 703 3866 
L 703 4441 
L 1819 4666 
L 2450 4666 
L 2450 531 
L 3481 531 
L 3481 0 
L 794 0 
L 794 531 
z
" transform="scale(0.015625)"/>
       </defs>
       <use xlink:href="#DejaVuSans-31"/>
       <use xlink:href="#DejaVuSans-30" x="63.623047"/>
       <use xlink:href="#DejaVuSans-30" x="127.246094"/>
      </g>
     </g>
    </g>
    <g id="text_7">
     <!-- axialRotation -->
     <g transform="translate(180.024844 316.494812)scale(0.1 -0.1)">
      <defs>
       <path id="DejaVuSans-61" d="M 2194 1759 
Q 1497 1759 1228 1600 
Q 959 1441 959 1056 
Q 959 750 1161 570 
Q 1363 391 1709 391 
Q 2188 391 2477 730 
Q 2766 1069 2766 1631 
L 2766 1759 
L 2194 1759 
z
M 3341 1997 
L 3341 0 
L 2766 0 
L 2766 531 
Q 2569 213 2275 61 
Q 1981 -91 1556 -91 
Q 1019 -91 701 211 
Q 384 513 384 1019 
Q 384 1609 779 1909 
Q 1175 2209 1959 2209 
L 2766 2209 
L 2766 2266 
Q 2766 2663 2505 2880 
Q 2244 3097 1772 3097 
Q 1472 3097 1187 3025 
Q 903 2953 641 2809 
L 641 3341 
Q 956 3463 1253 3523 
Q 1550 3584 1831 3584 
Q 2591 3584 2966 3190 
Q 3341 2797 3341 1997 
z
" transform="scale(0.015625)"/>
       <path id="DejaVuSans-78" d="M 3513 3500 
L 2247 1797 
L 3578 0 
L 2900 0 
L 1881 1375 
L 863 0 
L 184 0 
L 1544 1831 
L 300 3500 
L 978 3500 
L 1906 2253 
L 2834 3500 
L 3513 3500 
z
" transform="scale(0.015625)"/>
       <path id="DejaVuSans-69" d="M 603 3500 
L 1178 3500 
L 1178 0 
L 603 0 
L 603 3500 
z
M 603 4863 
L 1178 4863 
L 1178 4134 
L 603 4134 
L 603 4863 
z
" transform="scale(0.015625)"/>
       <path id="DejaVuSans-6c" d="M 603 4863 
L 1178 4863 
L 1178 0 
L 603 0 
L 603 4863 
z
" transform="scale(0.015625)"/>
       <path id="DejaVuSans-52" d="M 2841 2188 
Q 3044 2119 3236 1894 
Q 3428 1669 3622 1275 
L 4263 0 
L 3584 0 
L 2988 1197 
Q 2756 1666 2539 1819 
Q 2322 1972 1947 1972 
L 1259 1972 
L 1259 0 
L 628 0 
L 628 4666 
L 2053 4666 
Q 2853 4666 3247 4331 
Q 3641 3997 3641 3322 
Q 3641 2881 3436 2590 
Q 3231 2300 2841 2188 
z
M 1259 4147 
L 1259 2491 
L 2053 2491 
Q 2509 2491 2742 2702 
Q 2975 2913 2975 3322 
Q 2975 3731 2742 3939 
Q 2509 4147 2053 4147 
L 1259 4147 
z
" transform="scale(0.015625)"/>
       <path id="DejaVuSans-6f" d="M 1959 3097 
Q 1497 3097 1228 2736 
Q 959 2375 959 1747 
Q 959 1119 1226 758 
Q 1494 397 1959 397 
Q 2419 397 2687 759 
Q 2956 1122 2956 1747 
Q 2956 2369 2687 2733 
Q 2419 3097 1959 3097 
z
M 1959 3584 
Q 2709 3584 3137 3096 
Q 3566 2609 3566 1747 
Q 3566 888 3137 398 
Q 2709 -91 1959 -91 
Q 1206 -91 779 398 
Q 353 888 353 1747 
Q 353 2609 779 3096 
Q 1206 3584 1959 3584 
z
" transform="scale(0.015625)"/>
       <path id="DejaVuSans-74" d="M 1172 4494 
L 1172 3500 
L 2356 3500 
L 2356 3053 
L 1172 3053 
L 1172 1153 
Q 1172 725 1289 603 
Q 1406 481 1766 481 
L 2356 481 
L 2356 0 
L 1766 0 
Q 1100 0 847 248 
Q 594 497 594 1153 
L 594 3053 
L 172 3053 
L 172 3500 
L 594 3500 
L 594 4494 
L 1172 4494 
z
" transform="scale(0.015625)"/>
       <path id="DejaVuSans-6e" d="M 3513 2113 
L 3513 0 
L 2938 0 
L 2938 2094 
Q 2938 2591 2744 2837 
Q 2550 3084 2163 3084 
Q 1697 3084 1428 2787 
Q 1159 2491 1159 1978 
L 1159 0 
L 581 0 
L 581 3500 
L 1159 3500 
L 1159 2956 
Q 1366 3272 1645 3428 
Q 1925 3584 2291 3584 
Q 2894 3584 3203 3211 
Q 3513 2838 3513 2113 
z
" transform="scale(0.015625)"/>
      </defs>
      <use xlink:href="#DejaVuSans-61"/>
      <use xlink:href="#DejaVuSans-78" x="61.279297"/>
      <use xlink:href="#DejaVuSans-69" x="120.458984"/>
      <use xlink:href="#DejaVuSans-61" x="148.242188"/>
      <use xlink:href="#DejaVuSans-6c" x="209.521484"/>
      <use xlink:href="#DejaVuSans-52" x="237.304688"/>
      <use xlink:href="#DejaVuSans-6f" x="302.287109"/>
      <use xlink:href="#DejaVuSans-74" x="363.46875"/>
      <use xlink:href="#DejaVuSans-61" x="402.677734"/>
      <use xlink:href="#DejaVuSans-74" x="463.957031"/>
      <use xlink:href="#DejaVuSans-69" x="503.166016"/>
      <use xlink:href="#DejaVuSans-6f" x="530.949219"/>
      <use xlink:href="#DejaVuSans-6e" x="592.130859"/>
     </g>
    </g>
   </g>
   <g id="matplotlib.axis_2">
    <g id="ytick_1">
     <g id="line2d_7">
      <defs>
       <path id="m4e056f6416" d="M 0 0 
L -3.5 0 
" style="stroke: #000000; stroke-width: 0.8"/>
      </defs>
      <g>
       <use xlink:href="#m4e056f6416" x="34.240625" y="288.21825" style="stroke: #000000; stroke-width: 0.8"/>
      </g>
     </g>
     <g id="text_8">
      <!-- 0 -->
      <g transform="translate(20.878125 292.017469)scale(0.1 -0.1)">
       <use xlink:href="#DejaVuSans-30"/>
      </g>
     </g>
    </g>
    <g id="ytick_2">
     <g id="line2d_8">
      <g>
       <use xlink:href="#m4e056f6416" x="34.240625" y="243.86625" style="stroke: #000000; stroke-width: 0.8"/>
      </g>
     </g>
     <g id="text_9">
      <!-- 1 -->
      <g transform="translate(20.878125 247.665469)scale(0.1 -0.1)">
       <use xlink:href="#DejaVuSans-31"/>
      </g>
     </g>
    </g>
    <g id="ytick_3">
     <g id="line2d_9">
      <g>
       <use xlink:href="#m4e056f6416" x="34.240625" y="199.51425" style="stroke: #000000; stroke-width: 0.8"/>
      </g>
     </g>
     <g id="text_10">
      <!-- 2 -->
      <g transform="translate(20.878125 203.313469)scale(0.1 -0.1)">
       <use xlink:href="#DejaVuSans-32"/>
      </g>
     </g>
    </g>
    <g id="ytick_4">
     <g id="line2d_10">
      <g>
       <use xlink:href="#m4e056f6416" x="34.240625" y="155.16225" style="stroke: #000000; stroke-width: 0.8"/>
      </g>
     </g>
     <g id="text_11">
      <!-- 3 -->
      <g transform="translate(20.878125 158.961469)scale(0.1 -0.1)">
       <defs>
        <path id="DejaVuSans-33" d="M 2597 2516 
Q 3050 2419 3304 2112 
Q 3559 1806 3559 1356 
Q 3559 666 3084 287 
Q 2609 -91 1734 -91 
Q 1441 -91 1130 -33 
Q 819 25 488 141 
L 488 750 
Q 750 597 1062 519 
Q 1375 441 1716 441 
Q 2309 441 2620 675 
Q 2931 909 2931 1356 
Q 2931 1769 2642 2001 
Q 2353 2234 1838 2234 
L 1294 2234 
L 1294 2753 
L 1863 2753 
Q 2328 2753 2575 2939 
Q 2822 3125 2822 3475 
Q 2822 3834 2567 4026 
Q 2313 4219 1838 4219 
Q 1578 4219 1281 4162 
Q 984 4106 628 3988 
L 628 4550 
Q 988 4650 1302 4700 
Q 1616 4750 1894 4750 
Q 2613 4750 3031 4423 
Q 3450 4097 3450 3541 
Q 3450 3153 3228 2886 
Q 3006 2619 2597 2516 
z
" transform="scale(0.015625)"/>
       </defs>
       <use xlink:href="#DejaVuSans-33"/>
      </g>
     </g>
    </g>
    <g id="ytick_5">
     <g id="line2d_11">
      <g>
       <use xlink:href="#m4e056f6416" x="34.240625" y="110.81025" style="stroke: #000000; stroke-width: 0.8"/>
      </g>
     </g>
     <g id="text_12">
      <!-- 4 -->
      <g transform="translate(20.878125 114.609469)scale(0.1 -0.1)">
       <use xlink:href="#DejaVuSans-34"/>
      </g>
     </g>
    </g>
    <g id="ytick_6">
     <g id="line2d_12">
      <g>
       <use xlink:href="#m4e056f6416" x="34.240625" y="66.45825" style="stroke: #000000; stroke-width: 0.8"/>
      </g>
     </g>
     <g id="text_13">
      <!-- 5 -->
      <g transform="translate(20.878125 70.257469)scale(0.1 -0.1)">
       <defs>
        <path id="DejaVuSans-35" d="M 691 4666 
L 3169 4666 
L 3169 4134 
L 1269 4134 
L 1269 2991 
Q 1406 3038 1543 3061 
Q 1681 3084 1819 3084 
Q 2600 3084 3056 2656 
Q 3513 2228 3513 1497 
Q 3513 744 3044 326 
Q 2575 -91 1722 -91 
Q 1428 -91 1123 -41 
Q 819 9 494 109 
L 494 744 
Q 775 591 1075 516 
Q 1375 441 1709 441 
Q 2250 441 2565 725 
Q 2881 1009 2881 1497 
Q 2881 1984 2565 2268 
Q 2250 2553 1709 2553 
Q 1456 2553 1204 2497 
Q 953 2441 691 2322 
L 691 4666 
z
" transform="scale(0.015625)"/>
       </defs>
       <use xlink:href="#DejaVuSans-35"/>
      </g>
     </g>
    </g>
    <g id="ytick_7">
     <g id="line2d_13">
      <g>
       <use xlink:href="#m4e056f6416" x="34.240625" y="22.10625" style="stroke: #000000; stroke-width: 0.8"/>
      </g>
     </g>
     <g id="text_14">
      <!-- 6 -->
      <g transform="translate(20.878125 25.905469)scale(0.1 -0.1)">
       <use xlink:href="#DejaVuSans-36"/>
      </g>
     </g>
    </g>
    <g id="text_15">
     <!-- zShift -->
     <g transform="translate(14.798438 169.151312)rotate(-90)scale(0.1 -0.1)">
      <defs>
       <path id="DejaVuSans-7a" d="M 353 3500 
L 3084 3500 
L 3084 2975 
L 922 459 
L 3084 459 
L 3084 0 
L 275 0 
L 275 525 
L 2438 3041 
L 353 3041 
L 353 3500 
z
" transform="scale(0.015625)"/>
       <path id="DejaVuSans-53" d="M 3425 4513 
L 3425 3897 
Q 3066 4069 2747 4153 
Q 2428 4238 2131 4238 
Q 1616 4238 1336 4038 
Q 1056 3838 1056 3469 
Q 1056 3159 1242 3001 
Q 1428 2844 1947 2747 
L 2328 2669 
Q 3034 2534 3370 2195 
Q 3706 1856 3706 1288 
Q 3706 609 3251 259 
Q 2797 -91 1919 -91 
Q 1588 -91 1214 -16 
Q 841 59 441 206 
L 441 856 
Q 825 641 1194 531 
Q 1563 422 1919 422 
Q 2459 422 2753 634 
Q 3047 847 3047 1241 
Q 3047 1584 2836 1778 
Q 2625 1972 2144 2069 
L 1759 2144 
Q 1053 2284 737 2584 
Q 422 2884 422 3419 
Q 422 4038 858 4394 
Q 1294 4750 2059 4750 
Q 2388 4750 2728 4690 
Q 3069 4631 3425 4513 
z
" transform="scale(0.015625)"/>
       <path id="DejaVuSans-68" d="M 3513 2113 
L 3513 0 
L 2938 0 
L 2938 2094 
Q 2938 2591 2744 2837 
Q 2550 3084 2163 3084 
Q 1697 3084 1428 2787 
Q 1159 2491 1159 1978 
L 1159 0 
L 581 0 
L 581 4863 
L 1159 4863 
L 1159 2956 
Q 1366 3272 1645 3428 
Q 1925 3584 2291 3584 
Q 2894 3584 3203 3211 
Q 3513 2838 3513 2113 
z
" transform="scale(0.015625)"/>
       <path id="DejaVuSans-66" d="M 2375 4863 
L 2375 4384 
L 1825 4384 
Q 1516 4384 1395 4259 
Q 1275 4134 1275 3809 
L 1275 3500 
L 2222 3500 
L 2222 3053 
L 1275 3053 
L 1275 0 
L 697 0 
L 697 3053 
L 147 3053 
L 147 3500 
L 697 3500 
L 697 3744 
Q 697 4328 969 4595 
Q 1241 4863 1831 4863 
L 2375 4863 
z
" transform="scale(0.015625)"/>
      </defs>
      <use xlink:href="#DejaVuSans-7a"/>
      <use xlink:href="#DejaVuSans-53" x="52.490234"/>
      <use xlink:href="#DejaVuSans-68" x="115.966797"/>
      <use xlink:href="#DejaVuSans-69" x="179.345703"/>
      <use xlink:href="#DejaVuSans-66" x="207.128906"/>
      <use xlink:href="#DejaVuSans-74" x="240.583984"/>
     </g>
    </g>
   </g>
   <g id="PathCollection_1"/>
   <g id="PathCollection_2">
    <path d="M 34.240625 113.737872 
L 34.42341 113.47137 
L 36.026225 111.217945 
L 36.319527 110.81025 
L 37.847537 108.736831 
L 38.286223 108.14913 
L 39.633137 106.365713 
L 40.305761 105.48801 
L 41.418737 104.041295 
L 42.367512 102.82689 
L 43.204337 101.75379 
L 44.46182 100.16577 
L 45.025649 99.450488 
L 46.583938 97.50465 
L 46.811249 97.21804 
L 48.596849 94.99207 
L 48.716723 94.84353 
L 50.382449 92.754438 
L 50.845456 92.18241 
L 52.203761 90.482664 
L 52.983521 89.52129 
L 53.989361 88.251314 
L 55.488957 86.41665 
L 55.774961 86.057983 
L 57.560561 83.846494 
L 57.634141 83.75553 
L 59.381873 81.565015 
L 59.762769 81.09441 
L 61.167473 79.333127 
L 61.896421 78.43329 
L 62.953073 77.109918 
L 64.038542 75.77217 
L 64.738673 74.896491 
L 66.188683 73.11105 
L 66.559985 72.647426 
L 68.345585 70.452457 
L 68.34764 70.44993 
L 70.131185 68.221943 
L 70.483261 67.78881 
L 71.916785 65.995893 
L 72.621056 65.12769 
L 73.738097 63.729535 
L 74.761873 62.46657 
L 75.523697 61.511177 
L 76.905202 59.80545 
L 77.309297 59.29856 
L 79.054487 57.14433 
L 79.094897 57.093678 
L 80.916209 54.818278 
L 81.187935 54.48321 
L 82.701809 52.589831 
L 83.32554 51.82209 
L 84.487409 50.370624 
L 85.471501 49.16097 
L 86.273009 48.160074 
L 87.623175 46.49985 
L 88.094321 45.906939 
L 89.879921 43.705036 
L 90.133773 43.39521 
L 91.665521 41.481165 
L 92.272855 40.73409 
L 93.451121 39.262512 
L 94.41868 38.07297 
L 95.272433 37.010332 
L 96.578812 35.41185 
L 97.058033 34.818175 
L 98.760237 32.75073 
L 98.843633 32.648324 
L 100.629233 30.471948 
L 100.948458 30.08961 
L 102.450545 28.27917 
L 103.173989 27.42849 
L 104.236145 26.171194 
L 105.458381 24.76737 
L 106.021745 24.11684 
L 107.807345 22.126882 
L 107.826062 22.10625 
" clip-path="url(#p8add83f16b)" style="fill: none; stroke: #dbe9f6; stroke-width: 1.5"/>
    <path d="M 117.850607 288.21825 
L 117.834631 285.55713 
L 118.134515 282.89601 
L 118.727936 280.23489 
L 119.563696 277.57377 
L 120.663654 274.91265 
L 122.163569 271.912592 
L 123.984881 268.739472 
L 125.770481 265.928792 
L 129.341681 260.832269 
L 135.162003 253.18017 
L 141.912305 244.697955 
L 156.485931 226.56897 
L 167.303352 212.81985 
L 171.147169 207.49761 
L 174.231665 202.712497 
L 176.017265 199.560112 
L 176.042222 199.51425 
L 177.802865 195.736943 
L 178.441448 194.19201 
L 179.588465 190.994186 
L 180.955177 186.20865 
L 184.457485 172.45953 
L 186.356695 167.13729 
L 187.497835 164.47617 
L 188.829972 161.81505 
L 191.888231 156.49281 
L 193.944689 153.339492 
L 197.551601 148.353688 
L 202.944113 141.450961 
L 208.350537 135.20385 
L 211.907825 131.184591 
L 229.835249 112.031301 
L 235.64377 105.48801 
L 244.59425 94.84353 
L 264.343621 70.44993 
L 280.082033 50.943263 
L 299.830769 27.034103 
L 304.173183 22.10625 
L 304.173183 22.10625 
" clip-path="url(#p8add83f16b)" style="fill: none; stroke: #dbe9f6; stroke-width: 1.5"/>
    <path d="M 254.183178 22.10625 
L 254.199026 24.76737 
L 253.902667 27.42849 
L 253.190897 30.440172 
L 252.469858 32.75073 
L 251.35959 35.41185 
L 249.583985 38.934493 
L 247.798385 41.992335 
L 246.012785 44.773318 
L 242.405873 49.892032 
L 236.865356 57.14433 
L 220.305545 78.43329 
L 216.689527 83.75553 
L 215.076735 86.41665 
L 213.406427 89.52129 
L 211.907825 92.814818 
L 210.176288 97.50465 
L 209.411678 100.16577 
L 208.057755 105.48801 
L 206.515313 111.795105 
L 205.294075 116.13249 
L 203.350139 121.45473 
L 202.185081 124.11585 
L 200.83065 126.77697 
L 197.551601 132.35802 
L 193.769007 137.86497 
L 189.763574 143.18721 
L 186.766577 146.919242 
L 179.588465 155.203675 
L 170.624753 164.802692 
L 159.875441 176.325158 
L 155.790758 180.88641 
L 148.964241 188.86977 
L 135.916234 204.83649 
L 122.163569 221.92313 
L 114.985457 230.837093 
L 84.487409 268.247781 
L 76.36666 277.57377 
L 73.738097 280.428003 
L 70.131185 284.198618 
L 65.935062 288.21825 
L 65.935062 288.21825 
" clip-path="url(#p8add83f16b)" style="fill: none; stroke: #dbe9f6; stroke-width: 1.5"/>
    <path d="M 310.2228 288.21825 
L 309.477919 285.55713 
L 308.965305 282.89601 
L 308.794481 281.465803 
L 308.63596 280.23489 
L 308.482934 277.57377 
L 308.51289 274.91265 
L 308.726198 272.25153 
L 308.794481 271.792322 
L 309.097734 269.59041 
L 309.648919 266.92929 
L 310.558446 263.82465 
L 310.615793 263.668723 
L 311.498398 261.16353 
L 312.401393 259.093486 
L 312.65219 258.50241 
L 313.968689 255.84129 
L 314.186993 255.448846 
L 315.436876 253.18017 
L 315.972593 252.301106 
L 317.056651 250.51905 
L 317.793905 249.394705 
L 318.806517 247.85793 
L 319.579505 246.741672 
L 320.660762 245.19681 
L 321.365105 244.221268 
L 322.599363 242.53569 
L 323.150705 241.795224 
L 324.603353 239.87457 
L 324.972017 239.391053 
L 326.66195 237.21345 
L 326.757617 237.089964 
L 328.543217 234.805709 
L 328.744114 234.55233 
L 330.328817 232.540776 
L 330.85074 231.89121 
L 332.150129 230.259672 
L 332.987465 229.23009 
L 333.935729 228.047052 
L 335.147921 226.56897 
L 335.721329 225.857061 
L 337.328999 223.90785 
L 337.506929 223.68522 
L 339.328241 221.439651 
L 339.860998 220.80321 
L 341.113841 219.256631 
L 342.038682 218.14209 
L 342.899441 217.076868 
L 344.221001 215.48097 
L 344.685041 214.903371 
L 346.398893 212.81985 
L 346.506353 212.684749 
L 348.291953 210.46187 
L 348.539979 210.15873 
L 350.077553 208.197245 
L 350.637981 207.49761 
L 351.863153 205.884779 
L 352.673514 204.83649 
L 353.684465 203.443005 
L 354.615908 202.17537 
L 355.470065 200.919031 
L 356.4329 199.51425 
L 357.255665 198.203142 
L 358.105406 196.85313 
L 359.041265 195.221222 
L 359.63089 194.19201 
L 360.862577 191.848457 
L 361.029229 191.53089 
L 362.315907 188.86977 
L 362.648177 188.155208 
L 363.553999 186.20865 
L 364.433777 184.348139 
L 364.816765 183.54753 
L 366.171031 180.88641 
L 366.219377 180.799022 
L 367.692561 178.22529 
L 368.040689 177.690235 
L 369.826289 175.136157 
L 369.837894 175.12065 
L 371.611889 173.025466 
L 372.140818 172.45953 
L 373.397489 171.248426 
L 375.110128 169.79841 
L 375.218801 169.713614 
L 377.004401 168.448562 
L 378.790001 167.375896 
L 379.246222 167.13729 
L 380.575601 166.468894 
L 382.396913 165.702475 
L 384.182513 165.093463 
L 385.968113 164.614033 
L 386.647999 164.47617 
L 387.753713 164.24946 
L 389.575025 163.996946 
L 391.360625 163.866923 
" clip-path="url(#p8add83f16b)" style="fill: none; stroke: #dbe9f6; stroke-width: 1.5"/>
    <path d="M 391.360625 85.713095 
L 388.64033 89.52129 
L 384.182513 95.394321 
L 373.397489 108.961588 
L 359.041265 126.838512 
L 350.077553 138.227006 
L 346.341998 143.18721 
L 342.617524 148.50945 
L 340.913789 151.17057 
L 339.328241 153.864998 
L 337.506929 157.440607 
L 335.611493 161.81505 
L 333.773166 167.13729 
L 331.303469 175.12065 
L 329.179133 180.88641 
L 326.757617 186.073568 
L 326.691717 186.20865 
L 324.972017 189.348356 
L 323.150705 192.362782 
L 320.165477 196.85313 
L 315.972593 202.596646 
L 308.014087 212.81985 
L 292.652657 232.369927 
L 289.081457 237.409554 
L 287.260145 240.253788 
L 285.474545 243.345437 
L 283.688945 246.880859 
L 282.1245 250.51905 
L 281.160331 253.18017 
L 279.435969 258.50241 
L 277.73311 263.82465 
L 275.543514 269.59041 
L 274.323045 272.25153 
L 272.903921 274.984284 
L 271.118321 278.075271 
L 269.332721 280.856879 
L 267.547121 283.407317 
L 263.940209 288.037838 
L 263.791784 288.21825 
L 263.791784 288.21825 
" clip-path="url(#p8add83f16b)" style="fill: none; stroke: #dbe9f6; stroke-width: 1.5"/>
   </g>
   <g id="PathCollection_3">
    <path d="M 34.240625 135.282283 
L 34.267034 135.20385 
L 35.43004 132.09921 
L 36.026225 130.708174 
L 36.567311 129.43809 
L 37.847537 126.786741 
L 37.852253 126.77697 
L 39.26985 124.11585 
L 39.633137 123.495262 
L 40.834951 121.45473 
L 41.418737 120.534889 
L 42.533083 118.79361 
L 43.204337 117.801806 
L 44.344374 116.13249 
L 45.025649 115.174647 
L 46.248576 113.47137 
L 46.811249 112.708162 
L 48.224414 110.81025 
L 48.596849 110.318257 
L 50.255268 108.14913 
L 50.382449 107.984328 
L 52.203761 105.639943 
L 52.322472 105.48801 
L 53.989361 103.364004 
L 54.414775 102.82689 
L 55.774961 101.11057 
L 56.53064 100.16577 
L 57.560561 98.874631 
L 58.662902 97.50465 
L 59.381873 96.606911 
L 60.806062 94.84353 
L 61.167473 94.392535 
L 62.953073 92.183439 
L 62.953904 92.18241 
L 64.738673 89.954637 
L 65.08829 89.52129 
L 66.559985 87.675319 
L 67.578942 86.41665 
L 68.345585 85.457993 
L 69.718367 83.75553 
L 70.131185 83.239665 
L 71.863087 81.09441 
L 71.916785 81.027407 
L 73.738097 78.760545 
L 74.002749 78.43329 
L 75.523697 76.540006 
L 76.145678 75.77217 
L 77.309297 74.324541 
L 78.292847 73.11105 
L 79.094897 72.112616 
L 80.440998 70.44993 
L 80.916209 69.857695 
L 82.58919 67.78881 
L 82.701809 67.64815 
L 84.487409 65.424118 
L 84.726528 65.12769 
L 86.273009 63.194794 
L 86.859919 62.46657 
L 88.094321 60.924811 
L 88.997557 59.80545 
L 89.879921 58.704383 
L 91.141038 57.14433 
L 91.665521 56.490935 
L 93.291759 54.48321 
L 93.451121 54.28492 
L 95.272433 52.029526 
L 95.440617 51.82209 
L 97.058033 49.811388 
L 97.585444 49.16097 
L 98.843633 47.595895 
L 99.732003 46.49985 
L 100.629233 45.378589 
L 102.243325 43.39521 
L 102.450545 43.1378 
L 104.236145 40.932423 
L 104.397439 40.73409 
L 106.021745 38.728887 
L 106.558887 38.07297 
L 107.807345 36.54598 
L 108.746602 35.41185 
L 109.628657 34.348505 
L 110.975276 32.75073 
L 111.414257 32.23147 
L 113.199857 30.158678 
L 113.25992 30.08961 
L 114.985457 28.121706 
L 115.609108 27.42849 
L 116.806769 26.113475 
L 118.074186 24.76737 
L 118.592369 24.224932 
L 120.377969 22.419351 
L 120.697238 22.10625 
" clip-path="url(#p8add83f16b)" style="fill: none; stroke: #bad6eb; stroke-width: 1.5"/>
    <path d="M 130.486063 288.21825 
L 130.207541 285.55713 
L 130.348941 282.89601 
L 130.860854 280.23489 
L 131.688842 277.57377 
L 132.948593 274.622018 
L 134.734193 271.226643 
L 136.519793 268.271876 
L 138.341105 265.519088 
L 141.912305 260.542227 
L 147.598923 253.18017 
L 160.372856 237.21345 
L 176.017265 217.563959 
L 179.588465 212.812782 
L 183.264644 207.49761 
L 184.980977 204.742723 
L 186.766577 201.535717 
L 188.587889 197.759502 
L 188.990542 196.85313 
L 190.373489 193.282986 
L 192.159089 187.830268 
L 194.284215 180.88641 
L 195.766001 176.727158 
L 196.383447 175.12065 
L 197.558733 172.45953 
L 199.337201 168.922547 
L 201.122801 165.792614 
L 203.650784 161.81505 
L 207.414932 156.49281 
L 211.907825 150.584403 
L 220.871537 139.350256 
L 268.220806 81.09441 
L 294.438257 48.570529 
L 307.381435 32.75073 
L 312.401393 27.013948 
L 315.972593 23.240324 
L 317.118831 22.10625 
L 317.118831 22.10625 
" clip-path="url(#p8add83f16b)" style="fill: none; stroke: #bad6eb; stroke-width: 1.5"/>
    <path d="M 241.547205 22.10625 
L 241.824592 24.76737 
L 241.683729 27.42849 
L 241.174582 30.08961 
L 240.341878 32.75073 
L 238.834673 36.201509 
L 237.013361 39.591916 
L 235.227761 42.49899 
L 233.442161 45.168624 
L 230.589711 49.16097 
L 226.264049 54.823029 
L 211.907825 73.15922 
L 208.110582 78.43329 
L 204.699091 83.75553 
L 202.944113 86.957967 
L 201.122801 90.801569 
L 199.514446 94.84353 
L 197.775928 100.16577 
L 195.313621 108.14913 
L 193.321415 113.47137 
L 192.123207 116.13249 
L 190.373489 119.556347 
L 188.587889 122.651727 
L 185.939435 126.77697 
L 182.146127 132.09921 
L 177.738363 137.86497 
L 170.624753 146.811995 
L 110.583677 220.80321 
L 98.843633 235.380121 
L 79.094897 259.493705 
L 71.916785 267.745673 
L 66.559985 273.471024 
L 62.317434 277.57377 
L 59.290108 280.23489 
L 55.774961 282.995937 
L 52.203761 285.397836 
L 48.596849 287.3838 
L 46.718419 288.21825 
L 46.718419 288.21825 
" clip-path="url(#p8add83f16b)" style="fill: none; stroke: #bad6eb; stroke-width: 1.5"/>
    <path d="M 322.21486 288.21825 
L 321.365105 286.088715 
L 321.158455 285.55713 
L 320.413939 282.89601 
L 319.952138 280.23489 
L 319.735872 277.57377 
L 319.742135 274.91265 
L 319.959105 272.25153 
L 320.383861 269.59041 
L 321.020595 266.92929 
L 321.365105 265.859612 
L 322.01321 263.82465 
L 323.090156 261.16353 
L 323.150705 261.035318 
L 324.343046 258.50241 
L 324.972017 257.338382 
L 325.782995 255.84129 
L 326.757617 254.218415 
L 327.385418 253.18017 
L 328.543217 251.404706 
L 329.126114 250.51905 
L 330.328817 248.786313 
L 330.979808 247.85793 
L 332.150129 246.249068 
L 332.924024 245.19681 
L 333.935729 243.852061 
L 334.938148 242.53569 
L 335.721329 241.520853 
L 337.008354 239.87457 
L 337.506929 239.241101 
L 339.124567 237.21345 
L 339.328241 236.95886 
L 341.113841 234.750508 
L 341.275686 234.55233 
L 342.899441 232.560852 
L 343.454379 231.89121 
L 344.685041 230.398401 
L 345.665003 229.23009 
L 346.506353 228.2192 
L 347.905889 226.56897 
L 348.291953 226.10836 
L 350.077553 224.017519 
L 350.172439 223.90785 
L 351.863153 221.916945 
L 352.839734 220.80321 
L 353.684465 219.818925 
L 355.162075 218.14209 
L 355.470065 217.784789 
L 357.255665 215.76234 
L 357.510398 215.48097 
L 359.041265 213.741315 
L 359.879957 212.81985 
L 360.862577 211.699577 
L 362.262988 210.15873 
L 362.648177 209.713327 
L 364.433777 207.717071 
L 364.637111 207.49761 
L 366.219377 205.672984 
L 366.976418 204.83649 
L 368.040689 203.560629 
L 369.249003 202.17537 
L 369.826289 201.446705 
L 371.432169 199.51425 
L 371.611889 199.273865 
L 373.397489 197.008135 
L 373.52773 196.85313 
L 375.218801 194.6124 
L 375.561486 194.19201 
L 377.004401 192.249522 
L 377.59039 191.53089 
L 378.790001 189.965664 
L 379.733479 188.86977 
L 380.575601 187.873885 
L 382.209447 186.20865 
L 382.396913 186.023133 
L 384.182513 184.555828 
L 385.743078 183.54753 
L 385.968113 183.411649 
L 387.753713 182.63335 
L 389.575025 182.156192 
L 391.360625 182.005736 
" clip-path="url(#p8add83f16b)" style="fill: none; stroke: #bad6eb; stroke-width: 1.5"/>
    <path d="M 391.360625 64.113869 
L 389.984066 67.78881 
L 387.753713 72.642675 
L 387.52394 73.11105 
L 385.968113 75.951777 
L 384.182513 78.909795 
L 380.941933 83.75553 
L 376.704421 89.52129 
L 370.483854 97.50465 
L 357.664645 113.47137 
L 337.506929 138.862235 
L 333.935729 143.741385 
L 330.750713 148.50945 
L 328.543217 152.300479 
L 326.757617 155.817122 
L 326.43699 156.49281 
L 324.972017 160.019496 
L 323.150705 165.224634 
L 319.978649 175.12065 
L 317.793905 180.577176 
L 317.661491 180.88641 
L 315.972593 184.324167 
L 314.186993 187.531166 
L 311.695604 191.53089 
L 307.980231 196.85313 
L 303.437681 202.875335 
L 294.438257 214.241885 
L 286.76548 223.90785 
L 281.903345 230.342102 
L 278.930776 234.55233 
L 276.510833 238.353246 
L 274.725233 241.487091 
L 274.164491 242.53569 
L 272.872148 245.19681 
L 270.737462 250.51905 
L 268.981952 255.84129 
L 266.396466 263.82465 
L 265.204131 266.92929 
L 263.940209 269.785544 
L 262.154609 273.285249 
L 260.369009 276.329529 
L 258.547697 279.093252 
L 256.762097 281.551532 
L 254.976497 283.811591 
L 253.190897 285.901458 
L 251.042973 288.21825 
L 251.042973 288.21825 
" clip-path="url(#p8add83f16b)" style="fill: none; stroke: #bad6eb; stroke-width: 1.5"/>
   </g>
   <g id="PathCollection_4">
    <path d="M 34.240625 159.239999 
L 34.281482 159.15393 
L 35.467339 156.49281 
L 36.026225 155.13651 
L 36.557097 153.83169 
L 37.547632 151.17057 
L 37.847537 150.294587 
L 38.451177 148.50945 
L 39.294855 145.84833 
L 39.633137 144.748601 
L 40.109659 143.18721 
L 40.933155 140.52609 
L 41.418737 139.044816 
L 41.804938 137.86497 
L 42.758622 135.20385 
L 43.204337 134.098891 
L 44.016969 132.09921 
L 45.025649 129.913969 
L 45.247117 129.43809 
L 46.625485 126.77697 
L 46.811249 126.450441 
L 48.152754 124.11585 
L 48.596849 123.40165 
L 49.819776 121.45473 
L 50.382449 120.611873 
L 51.607597 118.79361 
L 52.203761 117.947983 
L 53.494098 116.13249 
L 53.989361 115.457464 
L 55.456909 113.47137 
L 55.774961 113.050279 
L 57.477364 110.81025 
L 57.560561 110.702397 
L 59.381873 108.351263 
L 59.539061 108.14913 
L 61.167473 106.076363 
L 61.631633 105.48801 
L 62.953073 103.823912 
L 63.74784 102.82689 
L 64.738673 101.588023 
L 65.880015 100.16577 
L 66.559985 99.319005 
L 68.021276 97.50465 
L 68.345585 97.101178 
L 70.131185 94.885494 
L 70.16499 94.84353 
L 71.916785 92.663199 
L 72.303656 92.18241 
L 73.738097 90.394793 
L 74.440215 89.52129 
L 75.523697 88.168275 
L 76.933157 86.41665 
L 77.309297 85.947847 
L 79.073625 83.75553 
L 79.094897 83.729062 
L 80.916209 81.465568 
L 81.215477 81.09441 
L 82.701809 79.249921 
L 83.361481 78.43329 
L 84.487409 77.037049 
L 85.509864 75.77217 
L 86.273009 74.825178 
L 87.657395 73.11105 
L 88.094321 72.567994 
L 89.802152 70.44993 
L 89.879921 70.353065 
L 91.665521 68.130596 
L 91.940381 67.78881 
L 93.451121 65.905449 
L 94.076141 65.12769 
L 95.272433 63.636977 
L 96.213873 62.46657 
L 97.058033 61.416106 
L 98.356145 59.80545 
L 98.843633 59.199994 
L 100.504068 57.14433 
L 100.629233 56.989101 
L 102.450545 54.734348 
L 102.653646 54.48321 
L 104.236145 52.522749 
L 104.802942 51.82209 
L 106.021745 50.311405 
L 106.952108 49.16097 
L 107.807345 48.100711 
L 109.102325 46.49985 
L 109.628657 45.847665 
L 111.414257 43.647579 
L 111.619439 43.39521 
L 113.199857 41.456278 
L 113.791724 40.73409 
L 114.985457 39.286689 
L 115.994341 38.07297 
L 116.806769 37.105401 
L 118.24458 35.41185 
L 118.592369 35.007649 
L 120.377969 32.960495 
L 120.563154 32.75073 
L 122.163569 30.975223 
L 122.979185 30.08961 
L 123.984881 29.025692 
L 125.539862 27.42849 
L 125.770481 27.198741 
L 127.556081 25.471324 
L 128.312133 24.76737 
L 129.341681 23.845693 
L 131.162993 22.297701 
L 131.397921 22.10625 
" clip-path="url(#p8add83f16b)" style="fill: none; stroke: #89bedc; stroke-width: 1.5"/>
    <path d="M 141.166213 288.21825 
L 140.391968 285.55713 
L 140.209912 282.89601 
L 140.510258 280.23489 
L 141.208628 277.57377 
L 142.238373 274.91265 
L 143.697905 271.972459 
L 145.519217 268.8591 
L 147.304817 266.112509 
L 150.876017 261.091724 
L 156.993573 253.18017 
L 172.410353 233.930672 
L 181.409777 222.63954 
L 186.865346 215.48097 
L 190.595801 210.15873 
L 192.295934 207.49761 
L 193.944689 204.672477 
L 195.766001 201.120513 
L 197.551601 197.05139 
L 198.619255 194.19201 
L 200.349724 188.86977 
L 202.944113 180.800093 
L 204.729713 176.291535 
L 205.232698 175.12065 
L 206.526948 172.45953 
L 208.300913 169.23724 
L 211.280468 164.47617 
L 215.037272 159.15393 
L 219.085937 153.811672 
L 226.264049 144.746794 
L 310.213707 40.73409 
L 315.972593 33.914873 
L 319.579505 29.92191 
L 323.150705 26.292753 
L 326.757617 23.03219 
L 327.879665 22.10625 
L 327.879665 22.10625 
" clip-path="url(#p8add83f16b)" style="fill: none; stroke: #89bedc; stroke-width: 1.5"/>
    <path d="M 230.86673 22.10625 
L 231.656561 24.966983 
L 231.823434 27.42849 
L 231.522969 30.08961 
L 230.824573 32.75073 
L 229.7943 35.41185 
L 228.049649 38.852894 
L 226.264049 41.859616 
L 224.478449 44.576216 
L 221.214481 49.16097 
L 215.053258 57.14433 
L 204.671751 70.44993 
L 200.803202 75.77217 
L 197.325342 81.09441 
L 195.766001 83.797608 
L 193.944689 87.416192 
L 192.159089 91.570553 
L 190.963753 94.84353 
L 188.44456 102.82689 
L 186.657428 108.14913 
L 184.980977 112.273351 
L 184.451919 113.47137 
L 183.132681 116.13249 
L 181.409777 119.219086 
L 178.310129 124.11585 
L 174.231665 129.82939 
L 168.839153 136.85552 
L 161.651082 145.84833 
L 89.879921 234.775004 
L 79.094897 247.890208 
L 72.254789 255.84129 
L 68.345585 260.151848 
L 64.738673 263.910179 
L 61.167473 267.366367 
L 57.560561 270.508091 
L 53.989361 273.202954 
L 50.382449 275.441566 
L 48.596849 276.347679 
L 45.476262 277.57377 
L 45.025649 277.728977 
L 43.204337 278.180367 
L 41.418737 278.444456 
L 39.633137 278.514544 
L 37.847537 278.368635 
L 36.026225 277.968803 
L 34.240625 277.279314 
L 34.240625 277.279314 
" clip-path="url(#p8add83f16b)" style="fill: none; stroke: #89bedc; stroke-width: 1.5"/>
    <path d="M 332.25067 288.21825 
L 332.150129 288.062076 
L 330.659149 285.55713 
L 330.328817 284.790935 
L 329.555735 282.89601 
L 328.845949 280.23489 
L 328.543217 278.112306 
L 328.468015 277.57377 
L 328.381685 274.91265 
L 328.543217 272.541279 
L 328.56268 272.25153 
L 328.992173 269.59041 
L 329.661957 266.92929 
L 330.328817 264.998647 
L 330.736435 263.82465 
L 331.894685 261.16353 
L 332.150129 260.66057 
L 333.256159 258.50241 
L 333.935729 257.32566 
L 334.802422 255.84129 
L 335.721329 254.399708 
L 336.507757 253.18017 
L 337.506929 251.725123 
L 338.344663 250.51905 
L 339.328241 249.164164 
L 340.28719 247.85793 
L 341.113841 246.764971 
L 342.313448 245.19681 
L 342.899441 244.445935 
L 344.408058 242.53569 
L 344.685041 242.189563 
L 346.506353 239.941847 
L 346.561498 239.87457 
L 348.291953 237.781696 
L 348.768983 237.21345 
L 350.077553 235.66211 
L 351.029867 234.55233 
L 351.863153 233.582338 
L 353.344566 231.89121 
L 353.684465 231.502339 
L 355.470065 229.501758 
L 355.718053 229.23009 
L 357.255665 227.536864 
L 358.159365 226.56897 
L 359.041265 225.616595 
L 360.675281 223.90785 
L 360.862577 223.709397 
L 362.648177 221.883964 
L 363.749803 220.80321 
L 364.433777 220.120549 
L 366.219377 218.419981 
L 366.52733 218.14209 
L 368.040689 216.744644 
L 369.494472 215.48097 
L 369.826289 215.182909 
L 371.611889 213.688997 
L 372.735559 212.81985 
L 373.397489 212.282824 
L 375.218801 210.940579 
L 376.402944 210.15873 
L 377.004401 209.734254 
L 378.790001 208.639941 
L 380.575601 207.70848 
L 381.093518 207.49761 
L 382.396913 206.916083 
L 384.182513 206.353419 
L 385.968113 206.048657 
L 387.753713 206.045854 
L 389.575025 206.412455 
L 391.360625 207.206408 
" clip-path="url(#p8add83f16b)" style="fill: none; stroke: #89bedc; stroke-width: 1.5"/>
    <path d="M 391.360625 37.153643 
L 390.236302 40.73409 
L 387.512251 49.16097 
L 383.468573 62.46657 
L 382.396913 65.341481 
L 380.575601 69.505135 
L 380.128948 70.44993 
L 378.725381 73.11105 
L 377.004401 76.042873 
L 373.681127 81.09441 
L 369.806586 86.41665 
L 363.263681 94.84353 
L 348.291953 113.491728 
L 332.150129 133.726245 
L 328.543217 138.479816 
L 324.972017 143.49269 
L 321.782811 148.50945 
L 319.579505 152.592475 
L 318.963761 153.83169 
L 317.777438 156.49281 
L 315.787987 161.81505 
L 311.434098 175.12065 
L 310.17279 178.22529 
L 308.794481 181.174384 
L 307.008881 184.521322 
L 305.223281 187.512506 
L 302.580428 191.53089 
L 298.045169 197.761363 
L 292.556231 204.83649 
L 275.433893 226.56897 
L 271.61325 231.89121 
L 269.332721 235.389576 
L 267.547121 238.404693 
L 265.725809 241.871156 
L 265.396314 242.53569 
L 263.940209 245.879052 
L 262.154609 250.714758 
L 257.834478 263.82465 
L 256.544964 266.92929 
L 254.976497 270.147222 
L 253.190897 273.303236 
L 251.369585 276.120639 
L 249.583985 278.588782 
L 247.798385 280.829022 
L 245.997816 282.89601 
L 242.405873 286.493359 
L 240.444563 288.21825 
L 240.444563 288.21825 
" clip-path="url(#p8add83f16b)" style="fill: none; stroke: #89bedc; stroke-width: 1.5"/>
   </g>
   <g id="PathCollection_5">
    <path d="M 34.240625 176.486982 
L 34.778031 175.12065 
L 35.95054 172.45953 
L 36.026225 172.299968 
L 37.224569 169.79841 
L 37.847537 168.543265 
L 38.549945 167.13729 
L 39.633137 164.970371 
L 39.880971 164.47617 
L 41.176887 161.81505 
L 41.418737 161.291046 
L 42.403575 159.15393 
L 43.204337 157.269269 
L 43.534021 156.49281 
L 44.566201 153.83169 
L 45.025649 152.530085 
L 45.506616 151.17057 
L 46.373867 148.50945 
L 46.811249 147.092786 
L 47.19849 145.84833 
L 48.015308 143.18721 
L 48.596849 141.348923 
L 48.860719 140.52609 
L 49.777124 137.86497 
L 50.382449 136.271497 
L 50.79505 135.20385 
L 52.147229 132.09921 
L 52.203761 131.984016 
L 53.473978 129.43809 
L 53.989361 128.501944 
L 54.953675 126.77697 
L 55.774961 125.42423 
L 56.579797 124.11585 
L 57.560561 122.622698 
L 58.335795 121.45473 
L 59.381873 119.955234 
L 60.198341 118.79361 
L 61.167473 117.464893 
L 62.143909 116.13249 
L 62.953073 115.058023 
L 64.151241 113.47137 
L 64.738673 112.709153 
L 66.204344 110.81025 
L 66.559985 110.3565 
L 68.290987 108.14913 
L 68.345585 108.080335 
L 70.131185 105.834628 
L 70.4065 105.48801 
L 71.916785 103.604391 
L 72.538986 102.82689 
L 73.738097 101.337667 
L 74.67936 100.16577 
L 75.523697 99.118645 
L 76.821242 97.50465 
L 77.309297 96.898861 
L 78.960102 94.84353 
L 79.094897 94.675949 
L 80.916209 92.409114 
L 81.09789 92.18241 
L 82.701809 90.187175 
L 83.235226 89.52129 
L 84.487409 87.966922 
L 85.728812 86.41665 
L 86.273009 85.741357 
L 87.869748 83.75553 
L 88.094321 83.477393 
L 89.879921 81.263826 
L 90.016386 81.09441 
L 91.665521 79.056024 
L 92.167582 78.43329 
L 93.451121 76.84582 
L 94.316267 75.77217 
L 95.272433 74.587168 
L 96.45947 73.11105 
L 97.058033 72.367661 
L 98.59712 70.44993 
L 98.843633 70.143302 
L 100.629233 67.91812 
L 100.732854 67.78881 
L 102.450545 65.653207 
L 102.871898 65.12769 
L 104.236145 63.434606 
L 105.013917 62.46657 
L 106.021745 61.218607 
L 107.159963 59.80545 
L 107.807345 59.005251 
L 109.30923 57.14433 
L 109.628657 56.749727 
L 111.414257 54.539437 
L 111.459645 54.48321 
L 113.199857 52.334775 
L 113.613708 51.82209 
L 114.985457 50.1288 
L 115.767495 49.16097 
L 116.806769 47.880999 
L 117.926619 46.49985 
L 118.592369 45.686845 
L 120.377969 43.503508 
L 120.466695 43.39521 
L 122.163569 41.360215 
L 122.687151 40.73409 
L 123.984881 39.212797 
L 124.963299 38.07297 
L 125.770481 37.156443 
L 127.323269 35.41185 
L 127.556081 35.158424 
L 129.341681 33.248731 
L 129.815747 32.75073 
L 131.162993 31.395544 
L 132.495265 30.08961 
L 132.948593 29.667189 
L 134.734193 28.060588 
L 135.463452 27.42849 
L 136.519793 26.568491 
L 138.341105 25.159249 
L 138.874174 24.76737 
L 140.126705 23.90986 
L 141.912305 22.766203 
L 143.015601 22.10625 
" clip-path="url(#p8add83f16b)" style="fill: none; stroke: #539ecd; stroke-width: 1.5"/>
    <path d="M 153.004608 288.21825 
L 152.697329 287.837936 
L 151.105721 285.55713 
L 150.238928 282.89601 
L 150.098624 280.23489 
L 150.508072 277.57377 
L 151.350104 274.91265 
L 152.697329 271.934698 
L 154.482929 268.755525 
L 156.268529 265.960926 
L 159.643421 261.16353 
L 165.810283 253.18017 
L 193.944689 217.628505 
L 197.551601 212.511592 
L 200.693529 207.49761 
L 202.944113 203.240207 
L 203.4661 202.17537 
L 204.729713 199.258135 
L 206.598367 194.19201 
L 210.956092 180.88641 
L 212.031536 178.22529 
L 213.693425 174.688274 
L 215.479025 171.404352 
L 217.300337 168.406309 
L 219.922095 164.47617 
L 224.478449 158.270975 
L 230.011387 151.17057 
L 249.634463 126.77697 
L 277.525647 92.18241 
L 314.369481 46.49985 
L 321.436546 38.07297 
L 326.331454 32.75073 
L 329.043544 30.08961 
L 332.150129 27.347415 
L 335.721329 24.645053 
L 339.328241 22.400045 
L 339.858284 22.10625 
L 339.858284 22.10625 
" clip-path="url(#p8add83f16b)" style="fill: none; stroke: #539ecd; stroke-width: 1.5"/>
    <path d="M 219.034547 22.10625 
L 219.085937 22.168602 
L 220.931027 24.76737 
L 221.793551 27.42849 
L 221.934662 30.08961 
L 221.52352 32.75073 
L 220.685493 35.41185 
L 219.085937 38.846727 
L 217.300337 41.973218 
L 215.479025 44.78386 
L 212.391895 49.16097 
L 206.25001 57.14433 
L 197.551601 68.363282 
L 193.944689 73.307308 
L 190.373489 78.701182 
L 188.587889 81.759917 
L 186.766577 85.292757 
L 186.225462 86.41665 
L 184.906335 89.52129 
L 183.000648 94.84353 
L 179.588465 105.494169 
L 177.802865 110.024641 
L 177.467451 110.81025 
L 176.017265 113.815642 
L 174.231665 117.054986 
L 171.484216 121.45473 
L 167.737638 126.77697 
L 163.446641 132.438359 
L 154.903306 143.18721 
L 80.916209 234.754189 
L 73.738097 243.211962 
L 68.345585 249.203305 
L 64.4837 253.18017 
L 61.167473 256.32259 
L 57.560561 259.372664 
L 53.989361 261.929426 
L 52.203761 262.996318 
L 50.382449 263.929053 
L 48.596849 264.635453 
L 46.811249 265.144987 
L 45.025649 265.425726 
L 43.204337 265.434252 
L 41.418737 265.118404 
L 39.633137 264.417743 
L 37.847537 263.192351 
L 35.987176 261.16353 
L 34.240625 258.108089 
L 34.240625 258.108089 
" clip-path="url(#p8add83f16b)" style="fill: none; stroke: #539ecd; stroke-width: 1.5"/>
    <path d="M 343.432089 288.21825 
L 342.899441 287.765908 
L 341.113841 286.048299 
L 340.658219 285.55713 
L 339.328241 283.667943 
L 338.837699 282.89601 
L 337.66634 280.23489 
L 337.506929 279.631423 
L 336.999623 277.57377 
L 336.736625 274.91265 
L 336.822339 272.25153 
L 337.220401 269.59041 
L 337.506929 268.477177 
L 337.911908 266.92929 
L 339.054509 263.82465 
L 339.328241 263.233564 
L 340.304564 261.16353 
L 341.113841 259.684593 
L 341.772603 258.50241 
L 342.899441 256.686274 
L 343.432849 255.84129 
L 344.685041 254.004555 
L 345.256313 253.18017 
L 346.506353 251.47137 
L 347.213802 250.51905 
L 348.291953 249.122246 
L 349.282486 247.85793 
L 350.077553 246.870406 
L 351.446171 245.19681 
L 351.863153 244.696955 
L 353.684465 242.551952 
L 353.69861 242.53569 
L 355.470065 240.529932 
L 356.062044 239.87457 
L 357.255665 238.567919 
L 358.525498 237.21345 
L 359.041265 236.667392 
L 360.862577 234.802508 
L 361.117459 234.55233 
L 362.648177 233.056201 
L 363.889841 231.89121 
L 364.433777 231.381194 
L 366.219377 229.798953 
L 366.905291 229.23009 
L 368.040689 228.285878 
L 369.826289 226.907914 
L 370.313016 226.56897 
L 371.611889 225.659788 
L 373.397489 224.545613 
L 374.589525 223.90785 
L 375.218801 223.568349 
L 377.004401 222.801578 
L 378.790001 222.234591 
L 380.575601 221.903675 
L 382.396913 221.857873 
L 384.182513 222.159567 
L 385.968113 222.880169 
L 387.474043 223.90785 
L 387.753713 224.130583 
L 389.575025 226.205544 
L 389.816729 226.56897 
L 391.285725 229.23009 
L 391.360625 229.39499 
" clip-path="url(#p8add83f16b)" style="fill: none; stroke: #539ecd; stroke-width: 1.5"/>
    <path d="M 379.785292 22.10625 
L 380.575601 22.977876 
L 381.953318 24.76737 
L 383.070125 27.42849 
L 383.504005 30.08961 
L 383.46696 32.75073 
L 383.108895 35.41185 
L 382.396913 38.647007 
L 380.575601 45.294212 
L 376.383248 59.80545 
L 375.218801 63.078603 
L 373.397489 67.394338 
L 373.218709 67.78881 
L 371.611889 70.917545 
L 369.826289 73.9959 
L 366.947133 78.43329 
L 362.648177 84.371463 
L 356.591562 92.18241 
L 337.364914 116.13249 
L 326.730961 129.43809 
L 321.365105 136.459909 
L 317.793905 141.476559 
L 314.970243 145.84833 
L 312.401393 150.491798 
L 312.050335 151.17057 
L 310.615793 154.309761 
L 308.794481 158.990437 
L 307.83813 161.81505 
L 304.404453 172.45953 
L 303.388403 175.12065 
L 301.616369 179.065731 
L 299.830769 182.468854 
L 298.045169 185.487148 
L 295.844242 188.86977 
L 292.035141 194.19201 
L 285.886549 202.17537 
L 268.734245 223.90785 
L 264.873326 229.23009 
L 262.154609 233.352499 
L 259.868667 237.21345 
L 258.484781 239.87457 
L 256.762097 243.7013 
L 255.164229 247.85793 
L 252.594565 255.84129 
L 250.800647 261.16353 
L 249.583985 264.210971 
L 247.798385 267.975172 
L 246.012785 271.132195 
L 244.191473 273.907459 
L 242.405873 276.302798 
L 240.620273 278.451462 
L 238.834673 280.40234 
L 235.227761 283.749526 
L 232.955129 285.55713 
L 229.835249 287.651915 
L 228.90036 288.21825 
L 228.90036 288.21825 
" clip-path="url(#p8add83f16b)" style="fill: none; stroke: #539ecd; stroke-width: 1.5"/>
    <path d="M 391.360625 281.21396 
L 390.328966 282.89601 
L 389.575025 283.869417 
L 388.1368 285.55713 
L 387.753713 285.925314 
L 385.968113 287.479135 
L 385.013881 288.21825 
" clip-path="url(#p8add83f16b)" style="fill: none; stroke: #539ecd; stroke-width: 1.5"/>
   </g>
   <g id="PathCollection_6">
    <path d="M 174.117955 288.21825 
L 170.624753 287.276497 
L 168.839153 286.645856 
L 166.383234 285.55713 
L 165.232241 284.742951 
L 163.14499 282.89601 
L 161.735487 280.23489 
L 161.39782 277.57377 
L 161.759437 274.91265 
L 162.639184 272.25153 
L 163.877047 269.59041 
L 165.388615 266.92929 
L 168.839153 261.820232 
L 171.28555 258.50241 
L 179.619155 247.85793 
L 199.337201 223.093252 
L 202.999787 218.14209 
L 206.630525 212.81985 
L 208.300913 210.099752 
L 210.122225 206.810788 
L 211.907825 203.110411 
L 212.332429 202.17537 
L 214.375103 196.85313 
L 219.737696 180.88641 
L 220.900133 178.22529 
L 222.657137 174.781624 
L 224.478449 171.659445 
L 227.433545 167.13729 
L 231.656561 161.333027 
L 237.488268 153.83169 
L 260.369009 125.4416 
L 321.932292 49.16097 
L 326.805152 43.39521 
L 331.712624 38.07297 
L 334.448881 35.41185 
L 337.50909 32.75073 
L 341.164303 30.08961 
L 344.685041 28.079138 
L 346.506353 27.199884 
L 350.077553 25.906921 
L 353.684465 24.997366 
L 355.470065 24.715576 
L 359.041265 24.527177 
L 362.337188 24.76737 
L 362.648177 24.811008 
L 364.433777 25.227708 
L 366.219377 25.845673 
L 368.040689 26.719563 
L 369.174497 27.42849 
L 369.826289 28.034964 
L 371.611889 30.265147 
L 372.530863 32.75073 
L 372.849255 35.41185 
L 372.747711 38.07297 
L 372.397786 40.73409 
L 371.234738 46.49985 
L 369.238011 54.48321 
L 367.605209 59.80545 
L 366.219377 63.434685 
L 364.433777 67.337436 
L 364.211792 67.78881 
L 362.648177 70.642203 
L 360.862577 73.55612 
L 357.550171 78.43329 
L 353.603981 83.75553 
L 346.506353 92.776297 
L 314.186993 133.35436 
L 310.615793 138.309059 
L 307.404504 143.18721 
L 305.223281 146.986113 
L 303.437681 150.539268 
L 303.134939 151.17057 
L 300.975391 156.49281 
L 299.201301 161.81505 
L 296.654146 169.79841 
L 295.672735 172.45953 
L 294.438257 175.420138 
L 292.652657 179.06623 
L 290.867057 182.230508 
L 288.345633 186.20865 
L 284.570031 191.53089 
L 278.296433 199.699243 
L 260.369009 222.417737 
L 256.762097 227.439768 
L 253.839211 231.89121 
L 251.369585 236.229587 
L 250.843868 237.21345 
L 248.424349 242.53569 
L 246.48567 247.85793 
L 243.03695 258.50241 
L 242.025562 261.16353 
L 240.620273 264.313623 
L 238.834673 267.65732 
L 237.013361 270.508149 
L 235.227761 272.920784 
L 233.442161 275.050764 
L 230.960825 277.57377 
L 227.826846 280.23489 
L 223.841814 282.89601 
L 220.871537 284.429593 
L 218.336735 285.55713 
L 215.479025 286.541457 
L 211.907825 287.53554 
L 208.776472 288.21825 
L 208.776472 288.21825 
" clip-path="url(#p8add83f16b)" style="fill: none; stroke: #2b7bba; stroke-width: 1.5"/>
    <path d="M 197.903608 22.10625 
L 201.122801 22.957348 
L 202.944113 23.583243 
L 205.649457 24.76737 
L 206.515313 25.364915 
L 208.882149 27.42849 
L 210.294905 30.08961 
L 210.631173 32.75073 
L 210.122225 35.862589 
L 209.394275 38.07297 
L 208.162065 40.73409 
L 206.515313 43.594436 
L 204.627638 46.49985 
L 200.764381 51.82209 
L 186.609979 70.44993 
L 183.017886 75.77217 
L 181.403572 78.43329 
L 179.588465 81.755309 
L 177.802865 85.514114 
L 177.399174 86.41665 
L 175.23279 92.18241 
L 170.868979 105.48801 
L 169.783129 108.14913 
L 168.56514 110.81025 
L 167.053553 113.706294 
L 165.232241 116.790606 
L 162.153504 121.45473 
L 158.054129 127.065112 
L 152.697329 133.941073 
L 145.299408 143.18721 
L 107.807345 189.726186 
L 89.879921 211.911024 
L 80.002192 223.90785 
L 73.738097 231.15875 
L 68.345585 237.014241 
L 64.738673 240.586327 
L 61.167473 243.741135 
L 59.324728 245.19681 
L 57.560561 246.403025 
L 55.008547 247.85793 
L 53.989361 248.348043 
L 52.203761 248.965762 
L 50.382449 249.309094 
L 48.596849 249.286131 
L 46.811249 248.806567 
L 45.025649 247.727658 
L 42.94131 245.19681 
L 41.418737 241.940822 
L 40.781461 239.87457 
L 40.141042 237.21345 
L 39.633137 234.47762 
L 39.010883 229.23009 
L 38.616146 223.90785 
L 38.291393 215.48097 
L 38.199008 207.49761 
L 38.344609 199.51425 
L 38.689719 194.19201 
L 39.367171 188.86977 
L 39.88304 186.20865 
L 40.544198 183.54753 
L 41.418737 180.664183 
L 43.204337 176.059184 
L 44.832677 172.45953 
L 51.207512 159.15393 
L 53.249598 153.83169 
L 55.792043 145.84833 
L 57.560561 140.391552 
L 59.596086 135.20385 
L 61.167473 131.908974 
L 62.953073 128.682899 
L 64.738673 125.783222 
L 67.669007 121.45473 
L 71.916785 115.716019 
L 77.842972 108.14913 
L 125.3816 49.16097 
L 131.162993 42.280687 
L 134.954941 38.07297 
L 138.341105 34.708318 
L 140.497506 32.75073 
L 143.852302 30.08961 
L 147.985607 27.42849 
L 150.876017 25.960039 
L 154.482929 24.437517 
L 158.054129 23.315383 
L 161.661041 22.419377 
L 163.196879 22.10625 
L 163.196879 22.10625 
" clip-path="url(#p8add83f16b)" style="fill: none; stroke: #2b7bba; stroke-width: 1.5"/>
    <path d="M 346.498151 274.91265 
L 346.332787 272.25153 
L 346.506353 270.590002 
L 346.615236 269.59041 
L 347.303145 266.92929 
L 348.291953 264.387157 
L 348.518051 263.82465 
L 349.894821 261.16353 
L 350.077553 260.860444 
L 351.544201 258.50241 
L 351.863153 258.039546 
L 353.424605 255.84129 
L 353.684465 255.500478 
L 355.470065 253.229258 
L 355.510292 253.18017 
L 357.255665 251.155331 
L 357.824048 250.51905 
L 359.041265 249.20578 
L 360.341455 247.85793 
L 360.862577 247.332211 
L 362.648177 245.632116 
L 363.139637 245.19681 
L 364.433777 244.076769 
L 366.219377 242.632992 
L 366.356916 242.53569 
L 368.040689 241.366125 
L 369.826289 240.271229 
L 370.628125 239.87457 
L 371.611889 239.395639 
L 373.397489 238.770132 
L 375.218801 238.420744 
L 377.004401 238.440292 
L 378.790001 238.920085 
L 380.397229 239.87457 
L 380.575601 240.004733 
L 382.396913 242.123304 
L 382.647747 242.53569 
L 383.930154 245.19681 
L 384.182513 245.873131 
L 384.78198 247.85793 
L 385.398454 250.51905 
L 385.857562 253.18017 
L 385.968113 254.057054 
L 386.166212 255.84129 
L 386.360201 258.50241 
L 386.449679 261.16353 
L 386.424727 263.82465 
L 386.22424 266.92929 
L 385.968113 268.853248 
L 385.862551 269.59041 
L 385.252101 272.25153 
L 384.352604 274.91265 
L 384.182513 275.274866 
L 382.993391 277.57377 
L 382.396913 278.433527 
L 380.994021 280.23489 
L 380.575601 280.650804 
L 378.790001 282.211034 
L 377.88327 282.89601 
L 377.004401 283.429858 
L 375.218801 284.35354 
L 373.397489 285.13338 
L 372.170097 285.55713 
L 371.611889 285.71818 
L 369.826289 286.116593 
L 368.040689 286.400178 
L 366.219377 286.574312 
L 364.433777 286.633517 
L 362.648177 286.581893 
L 360.862577 286.417239 
L 359.041265 286.128633 
L 357.255665 285.721262 
L 356.705186 285.55713 
L 355.470065 285.102422 
L 353.684465 284.272389 
L 351.863153 283.225218 
L 351.380639 282.89601 
L 350.077553 281.703966 
L 348.723476 280.23489 
L 348.291953 279.533688 
L 347.246487 277.57377 
L 346.506353 274.945483 
L 346.498151 274.91265 
z
" clip-path="url(#p8add83f16b)" style="fill: none; stroke: #2b7bba; stroke-width: 1.5"/>
   </g>
   <g id="PathCollection_7">
    <path d="M 50.354693 210.15873 
L 50.146966 207.49761 
L 50.011484 204.83649 
L 49.946799 202.17537 
L 49.956869 199.51425 
L 50.049559 196.85313 
L 50.235278 194.19201 
L 50.382449 192.855832 
L 50.541707 191.53089 
L 50.990732 188.86977 
L 51.57193 186.20865 
L 52.203761 183.860513 
L 52.293792 183.54753 
L 53.212836 180.88641 
L 53.989361 178.88371 
L 54.256989 178.22529 
L 55.64361 175.12065 
L 55.774961 174.844633 
L 56.943111 172.45953 
L 57.560561 171.200793 
L 58.265718 169.79841 
L 59.381873 167.496319 
L 59.559957 167.13729 
L 60.819235 164.47617 
L 61.167473 163.677056 
L 61.999037 161.81505 
L 62.953073 159.416717 
L 63.060855 159.15393 
L 64.061934 156.49281 
L 64.738673 154.461525 
L 64.95782 153.83169 
L 65.820325 151.17057 
L 66.559985 148.714933 
L 66.625274 148.50945 
L 67.476197 145.84833 
L 68.334595 143.18721 
L 68.345585 143.156018 
L 69.32111 140.52609 
L 70.131185 138.500512 
L 70.397839 137.86497 
L 71.634403 135.20385 
L 71.916785 134.663361 
L 73.287826 132.09921 
L 73.738097 131.333224 
L 74.878646 129.43809 
L 75.523697 128.438847 
L 76.611338 126.77697 
L 77.309297 125.769359 
L 78.461303 124.11585 
L 79.094897 123.246523 
L 80.401046 121.45473 
L 80.916209 120.772084 
L 82.402244 118.79361 
L 82.701809 118.406764 
L 84.44703 116.13249 
L 84.487409 116.081275 
L 86.273009 113.818512 
L 86.544226 113.47137 
L 88.094321 111.533864 
L 88.665359 110.81025 
L 89.879921 109.306758 
L 90.800412 108.14913 
L 91.665521 107.083586 
L 92.939662 105.48801 
L 93.451121 104.858981 
L 95.077054 102.82689 
L 95.272433 102.586113 
L 97.058033 100.36675 
L 97.21843 100.16577 
L 98.843633 98.160876 
L 99.366324 97.50465 
L 100.629233 95.944184 
L 101.505702 94.84353 
L 102.450545 93.675317 
L 103.639082 92.18241 
L 104.236145 91.446331 
L 105.772156 89.52129 
L 106.021745 89.21707 
L 107.807345 87.017079 
L 108.284126 86.41665 
L 109.628657 84.767634 
L 110.440345 83.75553 
L 111.414257 82.562005 
L 112.591197 81.09441 
L 113.199857 80.347028 
L 114.731961 78.43329 
L 114.985457 78.121143 
L 116.806769 75.849276 
L 116.868351 75.77217 
L 118.592369 73.646806 
L 119.019587 73.11105 
L 120.377969 71.43606 
L 121.164446 70.44993 
L 122.163569 69.220109 
L 123.308308 67.78881 
L 123.984881 66.957765 
L 125.451603 65.12769 
L 125.770481 64.737486 
L 127.556081 62.520401 
L 127.599373 62.46657 
L 129.341681 60.342725 
L 129.775119 59.80545 
L 131.162993 58.115229 
L 131.947394 57.14433 
L 132.948593 55.930382 
L 134.123135 54.48321 
L 134.734193 53.748474 
L 136.313418 51.82209 
L 136.519793 51.578111 
L 138.341105 49.4216 
L 138.560814 49.16097 
L 140.126705 47.388348 
L 140.904135 46.49985 
L 141.912305 45.427976 
L 143.697905 43.495972 
L 143.79301 43.39521 
L 145.519217 41.735567 
L 146.563785 40.73409 
L 147.304817 40.093107 
L 149.090417 38.590729 
L 149.727391 38.07297 
L 150.876017 37.253133 
L 152.697329 36.00809 
L 153.618197 35.41185 
L 154.482929 34.931753 
L 156.268529 34.015248 
L 158.054129 33.161966 
L 159.001099 32.75073 
L 159.875441 32.43303 
L 161.661041 31.858404 
L 163.446641 31.350442 
L 165.232241 30.908457 
L 167.053553 30.524604 
L 168.839153 30.212839 
L 169.731378 30.08961 
L 170.624753 29.989255 
L 172.410353 29.841801 
L 174.231665 29.743949 
L 176.017265 29.699294 
L 177.802865 29.706085 
L 179.588465 29.766118 
L 181.409777 29.88547 
L 183.195377 30.064329 
L 183.381829 30.08961 
L 184.980977 30.386659 
L 186.766577 30.830818 
L 188.587889 31.425377 
L 190.373489 32.179796 
L 191.449749 32.75073 
L 192.159089 33.413582 
L 193.779378 35.41185 
L 193.944689 36.133073 
L 194.293359 38.07297 
L 193.944689 40.274627 
L 193.873255 40.73409 
L 192.833306 43.39521 
L 192.159089 44.616748 
L 191.157293 46.49985 
L 190.373489 47.711923 
L 189.4534 49.16097 
L 188.587889 50.388864 
L 187.595076 51.82209 
L 186.766577 52.943439 
L 185.648358 54.48321 
L 184.980977 55.36486 
L 183.657552 57.14433 
L 183.195377 57.750879 
L 181.656175 59.80545 
L 181.409777 60.130624 
L 179.66647 62.46657 
L 179.588465 62.571288 
L 177.802865 64.989961 
L 177.70232 65.12769 
L 176.017265 67.46634 
L 175.788092 67.78881 
L 174.231665 70.042946 
L 173.953506 70.44993 
L 172.410353 72.823064 
L 172.224272 73.11105 
L 170.624753 75.764483 
L 170.620128 75.77217 
L 169.133312 78.43329 
L 168.839153 79.021342 
L 167.790769 81.09441 
L 167.053553 82.754226 
L 166.599355 83.75553 
L 165.533877 86.41665 
L 165.232241 87.265427 
L 164.408013 89.52129 
L 163.54802 92.18241 
L 163.446641 92.512431 
L 162.694525 94.84353 
L 161.87164 97.50465 
L 161.661041 98.164919 
L 160.987742 100.16577 
L 160.049598 102.82689 
L 159.875441 103.27374 
L 158.969105 105.48801 
L 158.054129 107.53889 
L 157.769787 108.14913 
L 156.403344 110.81025 
L 156.268529 111.048194 
L 154.859889 113.47137 
L 154.482929 114.073118 
L 153.171056 116.13249 
L 152.697329 116.831928 
L 151.356224 118.79361 
L 150.876017 119.463632 
L 149.445655 121.45473 
L 149.090417 121.930348 
L 147.464509 124.11585 
L 147.304817 124.323715 
L 145.519217 126.656547 
L 145.427084 126.77697 
L 143.697905 128.977815 
L 143.340262 129.43809 
L 141.912305 131.228581 
L 141.22756 132.09921 
L 140.126705 133.453351 
L 138.748729 135.20385 
L 138.341105 135.706376 
L 136.616685 137.86497 
L 136.519793 137.98426 
L 134.734193 140.189725 
L 134.465347 140.52609 
L 132.948593 142.392313 
L 132.313878 143.18721 
L 131.162993 144.606521 
L 130.172496 145.84833 
L 129.341681 146.875695 
L 128.041461 148.50945 
L 127.556081 149.109241 
L 125.91513 151.17057 
L 125.770481 151.349009 
L 123.984881 153.565621 
L 123.772487 153.83169 
L 122.163569 155.810545 
L 121.617843 156.49281 
L 120.377969 158.012856 
L 119.463174 159.15393 
L 118.592369 160.220857 
L 117.313519 161.81505 
L 116.806769 162.436803 
L 115.17141 164.47617 
L 114.985457 164.705128 
L 113.199857 166.920789 
L 113.026803 167.13729 
L 111.414257 169.12434 
L 110.87652 169.79841 
L 109.628657 171.337553 
L 108.73326 172.45953 
L 107.807345 173.601348 
L 106.594299 175.12065 
L 106.021745 175.818199 
L 104.236145 178.052805 
L 104.099202 178.22529 
L 102.450545 180.242693 
L 101.933042 180.88641 
L 100.629233 182.481577 
L 99.772111 183.54753 
L 98.843633 184.683315 
L 97.617652 186.20865 
L 97.058033 186.894472 
L 95.472251 188.86977 
L 95.272433 189.115008 
L 93.451121 191.368865 
L 93.320776 191.53089 
L 91.665521 193.553424 
L 91.150415 194.19201 
L 89.879921 195.737674 
L 88.975019 196.85313 
L 88.094321 197.917116 
L 86.786572 199.51425 
L 86.273009 200.129915 
L 84.582726 202.17537 
L 84.487409 202.288525 
L 82.701809 204.38924 
L 82.32237 204.83649 
L 80.916209 206.463735 
L 80.025398 207.49761 
L 79.094897 208.561795 
L 77.697659 210.15873 
L 77.309297 210.595763 
L 75.523697 212.576726 
L 75.29766 212.81985 
L 73.738097 214.468779 
L 72.763543 215.48097 
L 71.916785 216.345905 
L 70.131185 218.122735 
L 70.109982 218.14209 
L 68.345585 219.718995 
L 67.071379 220.80321 
L 66.559985 221.225047 
L 64.738673 222.548543 
L 62.953073 223.705039 
L 62.53265 223.90785 
L 61.167473 224.545122 
L 59.381873 225.057219 
L 57.560561 225.128272 
L 55.774961 224.566417 
L 54.906482 223.90785 
L 53.989361 222.977179 
L 52.725158 220.80321 
L 52.203761 219.561053 
L 51.766043 218.14209 
L 51.14448 215.48097 
L 50.686088 212.81985 
L 50.382449 210.42138 
L 50.354693 210.15873 
z
" clip-path="url(#p8add83f16b)" style="fill: none; stroke: #0b559f; stroke-width: 1.5"/>
    <path d="M 177.731162 272.25153 
L 177.802865 271.828919 
L 178.175464 269.59041 
L 179.201569 266.92929 
L 179.588465 266.235697 
L 180.886953 263.82465 
L 181.409777 263.022717 
L 182.601884 261.16353 
L 183.195377 260.33096 
L 184.476387 258.50241 
L 184.980977 257.831076 
L 186.451395 255.84129 
L 186.766577 255.434937 
L 188.488703 253.18017 
L 188.587889 253.054604 
L 190.373489 250.783991 
L 190.579602 250.51905 
L 192.159089 248.550092 
L 192.705895 247.85793 
L 193.944689 246.330255 
L 194.851179 245.19681 
L 195.766001 244.076709 
L 197.007644 242.53569 
L 197.551601 241.87347 
L 199.169946 239.87457 
L 199.337201 239.671076 
L 201.122801 237.491257 
L 201.349305 237.21345 
L 202.944113 235.273476 
L 203.528826 234.55233 
L 204.729713 233.078888 
L 205.683435 231.89121 
L 206.515313 230.855828 
L 207.802329 229.23009 
L 208.300913 228.597671 
L 209.878602 226.56897 
L 210.122225 226.251936 
L 211.899594 223.90785 
L 211.907825 223.896867 
L 213.693425 221.508266 
L 214.202667 220.80321 
L 215.479025 218.986395 
L 216.065703 218.14209 
L 217.300337 216.265088 
L 217.81212 215.48097 
L 219.085937 213.380167 
L 219.424355 212.81985 
L 220.871537 210.178922 
L 220.882634 210.15873 
L 222.223118 207.49761 
L 222.657137 206.511826 
L 223.409102 204.83649 
L 224.437232 202.17537 
L 224.478449 202.057623 
L 225.401041 199.51425 
L 226.241389 196.85313 
L 226.264049 196.777713 
L 227.079085 194.19201 
L 227.869827 191.53089 
L 228.049649 190.941817 
L 228.717209 188.86977 
L 229.609495 186.20865 
L 229.835249 185.598245 
L 230.633329 183.54753 
L 231.656561 181.132423 
L 231.765715 180.88641 
L 233.085329 178.22529 
L 233.442161 177.580501 
L 234.826649 175.12065 
L 235.227761 174.470497 
L 236.491454 172.45953 
L 237.013361 171.680943 
L 238.289183 169.79841 
L 238.834673 169.032724 
L 240.190305 167.13729 
L 240.620273 166.560291 
L 242.169561 164.47617 
L 242.405873 164.168779 
L 244.191473 161.833016 
L 244.205289 161.81505 
L 246.012785 159.528058 
L 246.305917 159.15393 
L 247.798385 157.298677 
L 248.439392 156.49281 
L 249.583985 155.087828 
L 250.594685 153.83169 
L 251.369585 152.888645 
L 252.764086 151.17057 
L 253.190897 150.653022 
L 254.936092 148.50945 
L 254.976497 148.460534 
L 256.762097 146.308678 
L 257.139454 145.84833 
L 258.547697 144.151039 
L 259.336564 143.18721 
L 260.369009 141.937661 
L 261.51925 140.52609 
L 262.154609 139.755909 
L 263.690871 137.86497 
L 263.940209 137.562369 
L 265.725809 135.377427 
L 265.867513 135.20385 
L 267.547121 133.195806 
L 268.429739 132.09921 
L 269.332721 131.007376 
L 270.606152 129.43809 
L 271.118321 128.817362 
L 272.769037 126.77697 
L 272.903921 126.612842 
L 274.725233 124.382041 
L 274.939883 124.11585 
L 276.510833 122.199288 
L 277.107791 121.45473 
L 278.296433 119.997178 
L 279.256913 118.79361 
L 280.082033 117.778799 
L 281.394016 116.13249 
L 281.903345 115.505185 
L 283.522437 113.47137 
L 283.688945 113.266854 
L 285.474545 111.053646 
L 285.668529 110.81025 
L 287.260145 108.8629 
L 287.830898 108.14913 
L 289.081457 106.618752 
L 289.985545 105.48801 
L 290.867057 104.409309 
L 292.131343 102.82689 
L 292.652657 102.187184 
L 294.264143 100.16577 
L 294.438257 99.951421 
L 296.259569 97.682808 
L 296.401036 97.50465 
L 298.045169 95.478324 
L 298.548608 94.84353 
L 299.830769 93.263384 
L 300.688692 92.18241 
L 301.616369 91.041417 
L 302.827092 89.52129 
L 303.437681 88.779751 
L 305.223281 86.531196 
L 305.313547 86.41665 
L 307.008881 84.344471 
L 307.479536 83.75553 
L 308.794481 82.147663 
L 309.637178 81.09441 
L 310.615793 79.893891 
L 311.781383 78.43329 
L 312.401393 77.67152 
L 313.914556 75.77217 
L 314.186993 75.436944 
L 315.972593 73.204734 
L 316.047291 73.11105 
L 317.793905 70.967868 
L 318.207675 70.44993 
L 319.579505 68.776714 
L 320.373581 67.78881 
L 321.365105 66.588038 
L 322.54896 65.12769 
L 323.150705 64.404979 
L 324.739588 62.46657 
L 324.972017 62.189608 
L 326.757617 60.058828 
L 326.969991 59.80545 
L 328.543217 57.980555 
L 329.256067 57.14433 
L 330.328817 55.921071 
L 331.582675 54.48321 
L 332.150129 53.850946 
L 333.935729 51.864237 
L 333.975088 51.82209 
L 335.721329 50.028155 
L 336.572428 49.16097 
L 337.506929 48.255291 
L 339.328241 46.521502 
L 339.353046 46.49985 
L 341.113841 45.086863 
L 342.899441 43.684851 
L 343.318472 43.39521 
L 344.685041 42.549466 
L 346.506353 41.574521 
L 348.291953 40.799214 
L 348.544255 40.73409 
L 350.077553 40.390043 
L 351.863153 40.310683 
L 353.684465 40.688836 
L 353.77416 40.73409 
L 355.470065 42.211699 
L 356.185086 43.39521 
L 356.923884 46.49985 
L 356.977329 49.16097 
L 356.734322 51.82209 
L 356.291473 54.48321 
L 355.689855 57.14433 
L 355.470065 57.889489 
L 354.872807 59.80545 
L 353.893105 62.46657 
L 353.684465 62.941294 
L 352.683841 65.12769 
L 351.863153 66.727428 
L 351.301663 67.78881 
L 350.077553 69.883437 
L 349.740174 70.44993 
L 348.291953 72.691421 
L 348.018422 73.11105 
L 346.506353 75.284873 
L 346.166908 75.77217 
L 344.685041 77.797061 
L 344.221902 78.43329 
L 342.899441 80.174892 
L 342.209132 81.09441 
L 341.113841 82.501467 
L 340.151957 83.75553 
L 339.328241 84.794999 
L 338.063535 86.41665 
L 337.506929 87.102955 
L 335.721329 89.375504 
L 335.607727 89.52129 
L 333.935729 91.580138 
L 333.457288 92.18241 
L 332.150129 93.786251 
L 331.306578 94.84353 
L 330.328817 96.044476 
L 329.164972 97.50465 
L 328.543217 98.269143 
L 327.034052 100.16577 
L 326.757617 100.506559 
L 324.972017 102.746288 
L 324.908021 102.82689 
L 323.150705 104.996581 
L 322.761223 105.48801 
L 321.365105 107.208719 
L 320.618928 108.14913 
L 319.579505 109.427827 
L 318.480223 110.81025 
L 317.793905 111.653243 
L 316.344158 113.47137 
L 315.972593 113.928501 
L 314.217917 116.13249 
L 314.186993 116.170647 
L 312.401393 118.378025 
L 312.072525 118.79361 
L 310.615793 120.606555 
L 309.949219 121.45473 
L 308.794481 122.911704 
L 307.860197 124.11585 
L 307.008881 125.206327 
L 305.808474 126.77697 
L 305.223281 127.542118 
L 303.801844 129.43809 
L 303.437681 129.927166 
L 301.848191 132.09921 
L 301.616369 132.420092 
L 299.830769 134.951399 
L 299.656765 135.20385 
L 298.045169 137.610983 
L 297.877369 137.86497 
L 296.259569 140.461185 
L 296.219413 140.52609 
L 294.679037 143.18721 
L 294.438257 143.647675 
L 293.280894 145.84833 
L 292.652657 147.202133 
L 292.037606 148.50945 
L 290.946757 151.17057 
L 290.867057 151.386469 
L 289.93648 153.83169 
L 289.081457 156.434915 
L 289.061635 156.49281 
L 288.20419 159.15393 
L 287.415383 161.81505 
L 287.260145 162.335872 
L 286.586585 164.47617 
L 285.732781 167.13729 
L 285.474545 167.87824 
L 284.769677 169.79841 
L 283.712625 172.45953 
L 283.688945 172.512144 
L 282.46599 175.12065 
L 281.903345 176.197706 
L 280.819923 178.22529 
L 280.082033 179.479235 
L 279.234163 180.88641 
L 278.296433 182.335888 
L 277.501651 183.54753 
L 276.510833 184.97352 
L 275.647445 186.20865 
L 274.725233 187.46893 
L 273.699442 188.86977 
L 272.903921 189.918678 
L 271.685911 191.53089 
L 271.118321 192.259354 
L 269.624403 194.19201 
L 269.332721 194.559279 
L 267.547121 196.828224 
L 267.527415 196.85313 
L 265.725809 199.078583 
L 265.377015 199.51425 
L 263.940209 201.270444 
L 263.209465 202.17537 
L 262.154609 203.458747 
L 261.037672 204.83649 
L 260.369009 205.650631 
L 258.872053 207.49761 
L 258.547697 207.895309 
L 256.762097 210.109989 
L 256.722659 210.15873 
L 254.976497 212.311564 
L 254.570287 212.81985 
L 253.190897 214.549803 
L 252.458582 215.48097 
L 251.369585 216.879009 
L 250.399064 218.14209 
L 249.583985 219.218399 
L 248.40086 220.80321 
L 247.798385 221.625169 
L 246.179003 223.90785 
L 246.012785 224.15034 
L 244.370901 226.56897 
L 244.191473 226.8502 
L 242.682151 229.23009 
L 242.405873 229.702851 
L 241.129033 231.89121 
L 240.620273 232.86002 
L 239.726504 234.55233 
L 238.834673 236.471449 
L 238.484401 237.21345 
L 237.370795 239.87457 
L 237.013361 240.844589 
L 236.369716 242.53569 
L 235.477894 245.19681 
L 235.227761 246.004706 
L 234.626886 247.85793 
L 233.814432 250.51905 
L 233.442161 251.736029 
L 232.975407 253.18017 
L 232.074271 255.84129 
L 231.656561 256.963247 
L 231.050156 258.50241 
L 229.87734 261.16353 
L 229.835249 261.245392 
L 228.440847 263.82465 
L 228.049649 264.439592 
L 226.407225 266.92929 
L 226.264049 267.11286 
L 224.478449 269.292005 
L 224.221591 269.59041 
L 222.657137 271.138029 
L 221.480104 272.25153 
L 220.871537 272.740099 
L 219.085937 274.079681 
L 217.905106 274.91265 
L 217.300337 275.270998 
L 215.479025 276.255582 
L 213.693425 277.144476 
L 212.738508 277.57377 
L 211.907825 277.882962 
L 210.122225 278.469051 
L 208.300913 278.993634 
L 206.515313 279.437795 
L 204.729713 279.814258 
L 202.944113 280.124717 
L 202.134146 280.23489 
L 201.122801 280.3465 
L 199.337201 280.489256 
L 197.551601 280.580312 
L 195.766001 280.619953 
L 193.944689 280.606699 
L 192.159089 280.539162 
L 190.373489 280.414305 
L 188.660509 280.23489 
L 188.587889 280.224595 
L 186.766577 279.87197 
L 184.980977 279.408143 
L 183.195377 278.802524 
L 181.409777 278.02136 
L 180.589008 277.57377 
L 179.588465 276.602545 
L 178.267379 274.91265 
L 177.802865 272.68796 
L 177.731162 272.25153 
z
" clip-path="url(#p8add83f16b)" style="fill: none; stroke: #0b559f; stroke-width: 1.5"/>
   </g>
   <g id="PathCollection_8"/>
   <g id="patch_3">
    <path d="M 34.240625 288.21825 
L 34.240625 22.10625 
" style="fill: none; stroke: #000000; stroke-width: 0.8; stroke-linejoin: miter; stroke-linecap: square"/>
   </g>
   <g id="patch_4">
    <path d="M 391.360625 288.21825 
L 391.360625 22.10625 
" style="fill: none; stroke: #000000; stroke-width: 0.8; stroke-linejoin: miter; stroke-linecap: square"/>
   </g>
   <g id="patch_5">
    <path d="M 34.240625 288.21825 
L 391.360625 288.21825 
" style="fill: none; stroke: #000000; stroke-width: 0.8; stroke-linejoin: miter; stroke-linecap: square"/>
   </g>
   <g id="patch_6">
    <path d="M 34.240625 22.10625 
L 391.360625 22.10625 
" style="fill: none; stroke: #000000; stroke-width: 0.8; stroke-linejoin: miter; stroke-linecap: square"/>
   </g>
   <g id="text_16">
    <!-- 9.3_cross_28.0 -->
    <g transform="translate(168.34625 16.10625)scale(0.12 -0.12)">
     <defs>
      <path id="DejaVuSans-39" d="M 703 97 
L 703 672 
Q 941 559 1184 500 
Q 1428 441 1663 441 
Q 2288 441 2617 861 
Q 2947 1281 2994 2138 
Q 2813 1869 2534 1725 
Q 2256 1581 1919 1581 
Q 1219 1581 811 2004 
Q 403 2428 403 3163 
Q 403 3881 828 4315 
Q 1253 4750 1959 4750 
Q 2769 4750 3195 4129 
Q 3622 3509 3622 2328 
Q 3622 1225 3098 567 
Q 2575 -91 1691 -91 
Q 1453 -91 1209 -44 
Q 966 3 703 97 
z
M 1959 2075 
Q 2384 2075 2632 2365 
Q 2881 2656 2881 3163 
Q 2881 3666 2632 3958 
Q 2384 4250 1959 4250 
Q 1534 4250 1286 3958 
Q 1038 3666 1038 3163 
Q 1038 2656 1286 2365 
Q 1534 2075 1959 2075 
z
" transform="scale(0.015625)"/>
      <path id="DejaVuSans-2e" d="M 684 794 
L 1344 794 
L 1344 0 
L 684 0 
L 684 794 
z
" transform="scale(0.015625)"/>
      <path id="DejaVuSans-5f" d="M 3263 -1063 
L 3263 -1509 
L -63 -1509 
L -63 -1063 
L 3263 -1063 
z
" transform="scale(0.015625)"/>
      <path id="DejaVuSans-63" d="M 3122 3366 
L 3122 2828 
Q 2878 2963 2633 3030 
Q 2388 3097 2138 3097 
Q 1578 3097 1268 2742 
Q 959 2388 959 1747 
Q 959 1106 1268 751 
Q 1578 397 2138 397 
Q 2388 397 2633 464 
Q 2878 531 3122 666 
L 3122 134 
Q 2881 22 2623 -34 
Q 2366 -91 2075 -91 
Q 1284 -91 818 406 
Q 353 903 353 1747 
Q 353 2603 823 3093 
Q 1294 3584 2113 3584 
Q 2378 3584 2631 3529 
Q 2884 3475 3122 3366 
z
" transform="scale(0.015625)"/>
      <path id="DejaVuSans-72" d="M 2631 2963 
Q 2534 3019 2420 3045 
Q 2306 3072 2169 3072 
Q 1681 3072 1420 2755 
Q 1159 2438 1159 1844 
L 1159 0 
L 581 0 
L 581 3500 
L 1159 3500 
L 1159 2956 
Q 1341 3275 1631 3429 
Q 1922 3584 2338 3584 
Q 2397 3584 2469 3576 
Q 2541 3569 2628 3553 
L 2631 2963 
z
" transform="scale(0.015625)"/>
      <path id="DejaVuSans-73" d="M 2834 3397 
L 2834 2853 
Q 2591 2978 2328 3040 
Q 2066 3103 1784 3103 
Q 1356 3103 1142 2972 
Q 928 2841 928 2578 
Q 928 2378 1081 2264 
Q 1234 2150 1697 2047 
L 1894 2003 
Q 2506 1872 2764 1633 
Q 3022 1394 3022 966 
Q 3022 478 2636 193 
Q 2250 -91 1575 -91 
Q 1294 -91 989 -36 
Q 684 19 347 128 
L 347 722 
Q 666 556 975 473 
Q 1284 391 1588 391 
Q 1994 391 2212 530 
Q 2431 669 2431 922 
Q 2431 1156 2273 1281 
Q 2116 1406 1581 1522 
L 1381 1569 
Q 847 1681 609 1914 
Q 372 2147 372 2553 
Q 372 3047 722 3315 
Q 1072 3584 1716 3584 
Q 2034 3584 2315 3537 
Q 2597 3491 2834 3397 
z
" transform="scale(0.015625)"/>
     </defs>
     <use xlink:href="#DejaVuSans-39"/>
     <use xlink:href="#DejaVuSans-2e" x="63.623047"/>
     <use xlink:href="#DejaVuSans-33" x="95.410156"/>
     <use xlink:href="#DejaVuSans-5f" x="159.033203"/>
     <use xlink:href="#DejaVuSans-63" x="209.033203"/>
     <use xlink:href="#DejaVuSans-72" x="264.013672"/>
     <use xlink:href="#DejaVuSans-6f" x="302.876953"/>
     <use xlink:href="#DejaVuSans-73" x="364.058594"/>
     <use xlink:href="#DejaVuSans-73" x="416.158203"/>
     <use xlink:href="#DejaVuSans-5f" x="468.257812"/>
     <use xlink:href="#DejaVuSans-32" x="518.257812"/>
     <use xlink:href="#DejaVuSans-38" x="581.880859"/>
     <use xlink:href="#DejaVuSans-2e" x="645.503906"/>
     <use xlink:href="#DejaVuSans-30" x="677.291016"/>
    </g>
   </g>
  </g>
 </g>
 <defs>
  <clipPath id="p8add83f16b">
   <rect x="34.240625" y="22.10625" width="357.12" height="266.112"/>
  </clipPath>
 </defs>
</svg>
