<?xml version="1.0" encoding="utf-8" standalone="no"?>
<!DOCTYPE svg PUBLIC "-//W3C//DTD SVG 1.1//EN"
  "http://www.w3.org/Graphics/SVG/1.1/DTD/svg11.dtd">
<svg xmlns:xlink="http://www.w3.org/1999/xlink" width="408.104375pt" height="325.7745pt" viewBox="0 0 408.104375 325.7745" xmlns="http://www.w3.org/2000/svg" version="1.1">
 <metadata>
  <rdf:RDF xmlns:dc="http://purl.org/dc/elements/1.1/" xmlns:cc="http://creativecommons.org/ns#" xmlns:rdf="http://www.w3.org/1999/02/22-rdf-syntax-ns#">
   <cc:Work>
    <dc:type rdf:resource="http://purl.org/dc/dcmitype/StillImage"/>
    <dc:date>2024-07-12T12:13:53.236128</dc:date>
    <dc:format>image/svg+xml</dc:format>
    <dc:creator>
     <cc:Agent>
      <dc:title>Matplotlib v3.5.3, https://matplotlib.org/</dc:title>
     </cc:Agent>
    </dc:creator>
   </cc:Work>
  </rdf:RDF>
 </metadata>
 <defs>
  <style type="text/css">*{stroke-linejoin: round; stroke-linecap: butt}</style>
 </defs>
 <g id="figure_1">
  <g id="patch_1">
   <path d="M 0 325.7745 
L 408.104375 325.7745 
L 408.104375 0 
L 0 0 
z
" style="fill: #ffffff"/>
  </g>
  <g id="axes_1">
   <g id="patch_2">
    <path d="M 34.240625 288.21825 
L 391.360625 288.21825 
L 391.360625 22.10625 
L 34.240625 22.10625 
z
" style="fill: #ffffff"/>
   </g>
   <g id="matplotlib.axis_1">
    <g id="xtick_1">
     <g id="line2d_1">
      <defs>
       <path id="mc158895e4e" d="M 0 0 
L 0 3.5 
" style="stroke: #000000; stroke-width: 0.8"/>
      </defs>
      <g>
       <use xlink:href="#mc158895e4e" x="34.240625" y="288.21825" style="stroke: #000000; stroke-width: 0.8"/>
      </g>
     </g>
     <g id="text_1">
      <!-- 0 -->
      <g transform="translate(31.059375 302.816687)scale(0.1 -0.1)">
       <defs>
        <path id="DejaVuSans-30" d="M 2034 4250 
Q 1547 4250 1301 3770 
Q 1056 3291 1056 2328 
Q 1056 1369 1301 889 
Q 1547 409 2034 409 
Q 2525 409 2770 889 
Q 3016 1369 3016 2328 
Q 3016 3291 2770 3770 
Q 2525 4250 2034 4250 
z
M 2034 4750 
Q 2819 4750 3233 4129 
Q 3647 3509 3647 2328 
Q 3647 1150 3233 529 
Q 2819 -91 2034 -91 
Q 1250 -91 836 529 
Q 422 1150 422 2328 
Q 422 3509 836 4129 
Q 1250 4750 2034 4750 
z
" transform="scale(0.015625)"/>
       </defs>
       <use xlink:href="#DejaVuSans-30"/>
      </g>
     </g>
    </g>
    <g id="xtick_2">
     <g id="line2d_2">
      <g>
       <use xlink:href="#mc158895e4e" x="105.664625" y="288.21825" style="stroke: #000000; stroke-width: 0.8"/>
      </g>
     </g>
     <g id="text_2">
      <!-- 20 -->
      <g transform="translate(99.302125 302.816687)scale(0.1 -0.1)">
       <defs>
        <path id="DejaVuSans-32" d="M 1228 531 
L 3431 531 
L 3431 0 
L 469 0 
L 469 531 
Q 828 903 1448 1529 
Q 2069 2156 2228 2338 
Q 2531 2678 2651 2914 
Q 2772 3150 2772 3378 
Q 2772 3750 2511 3984 
Q 2250 4219 1831 4219 
Q 1534 4219 1204 4116 
Q 875 4013 500 3803 
L 500 4441 
Q 881 4594 1212 4672 
Q 1544 4750 1819 4750 
Q 2544 4750 2975 4387 
Q 3406 4025 3406 3419 
Q 3406 3131 3298 2873 
Q 3191 2616 2906 2266 
Q 2828 2175 2409 1742 
Q 1991 1309 1228 531 
z
" transform="scale(0.015625)"/>
       </defs>
       <use xlink:href="#DejaVuSans-32"/>
       <use xlink:href="#DejaVuSans-30" x="63.623047"/>
      </g>
     </g>
    </g>
    <g id="xtick_3">
     <g id="line2d_3">
      <g>
       <use xlink:href="#mc158895e4e" x="177.088625" y="288.21825" style="stroke: #000000; stroke-width: 0.8"/>
      </g>
     </g>
     <g id="text_3">
      <!-- 40 -->
      <g transform="translate(170.726125 302.816687)scale(0.1 -0.1)">
       <defs>
        <path id="DejaVuSans-34" d="M 2419 4116 
L 825 1625 
L 2419 1625 
L 2419 4116 
z
M 2253 4666 
L 3047 4666 
L 3047 1625 
L 3713 1625 
L 3713 1100 
L 3047 1100 
L 3047 0 
L 2419 0 
L 2419 1100 
L 313 1100 
L 313 1709 
L 2253 4666 
z
" transform="scale(0.015625)"/>
       </defs>
       <use xlink:href="#DejaVuSans-34"/>
       <use xlink:href="#DejaVuSans-30" x="63.623047"/>
      </g>
     </g>
    </g>
    <g id="xtick_4">
     <g id="line2d_4">
      <g>
       <use xlink:href="#mc158895e4e" x="248.512625" y="288.21825" style="stroke: #000000; stroke-width: 0.8"/>
      </g>
     </g>
     <g id="text_4">
      <!-- 60 -->
      <g transform="translate(242.150125 302.816687)scale(0.1 -0.1)">
       <defs>
        <path id="DejaVuSans-36" d="M 2113 2584 
Q 1688 2584 1439 2293 
Q 1191 2003 1191 1497 
Q 1191 994 1439 701 
Q 1688 409 2113 409 
Q 2538 409 2786 701 
Q 3034 994 3034 1497 
Q 3034 2003 2786 2293 
Q 2538 2584 2113 2584 
z
M 3366 4563 
L 3366 3988 
Q 3128 4100 2886 4159 
Q 2644 4219 2406 4219 
Q 1781 4219 1451 3797 
Q 1122 3375 1075 2522 
Q 1259 2794 1537 2939 
Q 1816 3084 2150 3084 
Q 2853 3084 3261 2657 
Q 3669 2231 3669 1497 
Q 3669 778 3244 343 
Q 2819 -91 2113 -91 
Q 1303 -91 875 529 
Q 447 1150 447 2328 
Q 447 3434 972 4092 
Q 1497 4750 2381 4750 
Q 2619 4750 2861 4703 
Q 3103 4656 3366 4563 
z
" transform="scale(0.015625)"/>
       </defs>
       <use xlink:href="#DejaVuSans-36"/>
       <use xlink:href="#DejaVuSans-30" x="63.623047"/>
      </g>
     </g>
    </g>
    <g id="xtick_5">
     <g id="line2d_5">
      <g>
       <use xlink:href="#mc158895e4e" x="319.936625" y="288.21825" style="stroke: #000000; stroke-width: 0.8"/>
      </g>
     </g>
     <g id="text_5">
      <!-- 80 -->
      <g transform="translate(313.574125 302.816687)scale(0.1 -0.1)">
       <defs>
        <path id="DejaVuSans-38" d="M 2034 2216 
Q 1584 2216 1326 1975 
Q 1069 1734 1069 1313 
Q 1069 891 1326 650 
Q 1584 409 2034 409 
Q 2484 409 2743 651 
Q 3003 894 3003 1313 
Q 3003 1734 2745 1975 
Q 2488 2216 2034 2216 
z
M 1403 2484 
Q 997 2584 770 2862 
Q 544 3141 544 3541 
Q 544 4100 942 4425 
Q 1341 4750 2034 4750 
Q 2731 4750 3128 4425 
Q 3525 4100 3525 3541 
Q 3525 3141 3298 2862 
Q 3072 2584 2669 2484 
Q 3125 2378 3379 2068 
Q 3634 1759 3634 1313 
Q 3634 634 3220 271 
Q 2806 -91 2034 -91 
Q 1263 -91 848 271 
Q 434 634 434 1313 
Q 434 1759 690 2068 
Q 947 2378 1403 2484 
z
M 1172 3481 
Q 1172 3119 1398 2916 
Q 1625 2713 2034 2713 
Q 2441 2713 2670 2916 
Q 2900 3119 2900 3481 
Q 2900 3844 2670 4047 
Q 2441 4250 2034 4250 
Q 1625 4250 1398 4047 
Q 1172 3844 1172 3481 
z
" transform="scale(0.015625)"/>
       </defs>
       <use xlink:href="#DejaVuSans-38"/>
       <use xlink:href="#DejaVuSans-30" x="63.623047"/>
      </g>
     </g>
    </g>
    <g id="xtick_6">
     <g id="line2d_6">
      <g>
       <use xlink:href="#mc158895e4e" x="391.360625" y="288.21825" style="stroke: #000000; stroke-width: 0.8"/>
      </g>
     </g>
     <g id="text_6">
      <!-- 100 -->
      <g transform="translate(381.816875 302.816687)scale(0.1 -0.1)">
       <defs>
        <path id="DejaVuSans-31" d="M 794 531 
L 1825 531 
L 1825 4091 
L 703 3866 
L 703 4441 
L 1819 4666 
L 2450 4666 
L 2450 531 
L 3481 531 
L 3481 0 
L 794 0 
L 794 531 
z
" transform="scale(0.015625)"/>
       </defs>
       <use xlink:href="#DejaVuSans-31"/>
       <use xlink:href="#DejaVuSans-30" x="63.623047"/>
       <use xlink:href="#DejaVuSans-30" x="127.246094"/>
      </g>
     </g>
    </g>
    <g id="text_7">
     <!-- axialRotation -->
     <g transform="translate(180.024844 316.494812)scale(0.1 -0.1)">
      <defs>
       <path id="DejaVuSans-61" d="M 2194 1759 
Q 1497 1759 1228 1600 
Q 959 1441 959 1056 
Q 959 750 1161 570 
Q 1363 391 1709 391 
Q 2188 391 2477 730 
Q 2766 1069 2766 1631 
L 2766 1759 
L 2194 1759 
z
M 3341 1997 
L 3341 0 
L 2766 0 
L 2766 531 
Q 2569 213 2275 61 
Q 1981 -91 1556 -91 
Q 1019 -91 701 211 
Q 384 513 384 1019 
Q 384 1609 779 1909 
Q 1175 2209 1959 2209 
L 2766 2209 
L 2766 2266 
Q 2766 2663 2505 2880 
Q 2244 3097 1772 3097 
Q 1472 3097 1187 3025 
Q 903 2953 641 2809 
L 641 3341 
Q 956 3463 1253 3523 
Q 1550 3584 1831 3584 
Q 2591 3584 2966 3190 
Q 3341 2797 3341 1997 
z
" transform="scale(0.015625)"/>
       <path id="DejaVuSans-78" d="M 3513 3500 
L 2247 1797 
L 3578 0 
L 2900 0 
L 1881 1375 
L 863 0 
L 184 0 
L 1544 1831 
L 300 3500 
L 978 3500 
L 1906 2253 
L 2834 3500 
L 3513 3500 
z
" transform="scale(0.015625)"/>
       <path id="DejaVuSans-69" d="M 603 3500 
L 1178 3500 
L 1178 0 
L 603 0 
L 603 3500 
z
M 603 4863 
L 1178 4863 
L 1178 4134 
L 603 4134 
L 603 4863 
z
" transform="scale(0.015625)"/>
       <path id="DejaVuSans-6c" d="M 603 4863 
L 1178 4863 
L 1178 0 
L 603 0 
L 603 4863 
z
" transform="scale(0.015625)"/>
       <path id="DejaVuSans-52" d="M 2841 2188 
Q 3044 2119 3236 1894 
Q 3428 1669 3622 1275 
L 4263 0 
L 3584 0 
L 2988 1197 
Q 2756 1666 2539 1819 
Q 2322 1972 1947 1972 
L 1259 1972 
L 1259 0 
L 628 0 
L 628 4666 
L 2053 4666 
Q 2853 4666 3247 4331 
Q 3641 3997 3641 3322 
Q 3641 2881 3436 2590 
Q 3231 2300 2841 2188 
z
M 1259 4147 
L 1259 2491 
L 2053 2491 
Q 2509 2491 2742 2702 
Q 2975 2913 2975 3322 
Q 2975 3731 2742 3939 
Q 2509 4147 2053 4147 
L 1259 4147 
z
" transform="scale(0.015625)"/>
       <path id="DejaVuSans-6f" d="M 1959 3097 
Q 1497 3097 1228 2736 
Q 959 2375 959 1747 
Q 959 1119 1226 758 
Q 1494 397 1959 397 
Q 2419 397 2687 759 
Q 2956 1122 2956 1747 
Q 2956 2369 2687 2733 
Q 2419 3097 1959 3097 
z
M 1959 3584 
Q 2709 3584 3137 3096 
Q 3566 2609 3566 1747 
Q 3566 888 3137 398 
Q 2709 -91 1959 -91 
Q 1206 -91 779 398 
Q 353 888 353 1747 
Q 353 2609 779 3096 
Q 1206 3584 1959 3584 
z
" transform="scale(0.015625)"/>
       <path id="DejaVuSans-74" d="M 1172 4494 
L 1172 3500 
L 2356 3500 
L 2356 3053 
L 1172 3053 
L 1172 1153 
Q 1172 725 1289 603 
Q 1406 481 1766 481 
L 2356 481 
L 2356 0 
L 1766 0 
Q 1100 0 847 248 
Q 594 497 594 1153 
L 594 3053 
L 172 3053 
L 172 3500 
L 594 3500 
L 594 4494 
L 1172 4494 
z
" transform="scale(0.015625)"/>
       <path id="DejaVuSans-6e" d="M 3513 2113 
L 3513 0 
L 2938 0 
L 2938 2094 
Q 2938 2591 2744 2837 
Q 2550 3084 2163 3084 
Q 1697 3084 1428 2787 
Q 1159 2491 1159 1978 
L 1159 0 
L 581 0 
L 581 3500 
L 1159 3500 
L 1159 2956 
Q 1366 3272 1645 3428 
Q 1925 3584 2291 3584 
Q 2894 3584 3203 3211 
Q 3513 2838 3513 2113 
z
" transform="scale(0.015625)"/>
      </defs>
      <use xlink:href="#DejaVuSans-61"/>
      <use xlink:href="#DejaVuSans-78" x="61.279297"/>
      <use xlink:href="#DejaVuSans-69" x="120.458984"/>
      <use xlink:href="#DejaVuSans-61" x="148.242188"/>
      <use xlink:href="#DejaVuSans-6c" x="209.521484"/>
      <use xlink:href="#DejaVuSans-52" x="237.304688"/>
      <use xlink:href="#DejaVuSans-6f" x="302.287109"/>
      <use xlink:href="#DejaVuSans-74" x="363.46875"/>
      <use xlink:href="#DejaVuSans-61" x="402.677734"/>
      <use xlink:href="#DejaVuSans-74" x="463.957031"/>
      <use xlink:href="#DejaVuSans-69" x="503.166016"/>
      <use xlink:href="#DejaVuSans-6f" x="530.949219"/>
      <use xlink:href="#DejaVuSans-6e" x="592.130859"/>
     </g>
    </g>
   </g>
   <g id="matplotlib.axis_2">
    <g id="ytick_1">
     <g id="line2d_7">
      <defs>
       <path id="m248a48a50e" d="M 0 0 
L -3.5 0 
" style="stroke: #000000; stroke-width: 0.8"/>
      </defs>
      <g>
       <use xlink:href="#m248a48a50e" x="34.240625" y="288.21825" style="stroke: #000000; stroke-width: 0.8"/>
      </g>
     </g>
     <g id="text_8">
      <!-- 0 -->
      <g transform="translate(20.878125 292.017469)scale(0.1 -0.1)">
       <use xlink:href="#DejaVuSans-30"/>
      </g>
     </g>
    </g>
    <g id="ytick_2">
     <g id="line2d_8">
      <g>
       <use xlink:href="#m248a48a50e" x="34.240625" y="243.86625" style="stroke: #000000; stroke-width: 0.8"/>
      </g>
     </g>
     <g id="text_9">
      <!-- 1 -->
      <g transform="translate(20.878125 247.665469)scale(0.1 -0.1)">
       <use xlink:href="#DejaVuSans-31"/>
      </g>
     </g>
    </g>
    <g id="ytick_3">
     <g id="line2d_9">
      <g>
       <use xlink:href="#m248a48a50e" x="34.240625" y="199.51425" style="stroke: #000000; stroke-width: 0.8"/>
      </g>
     </g>
     <g id="text_10">
      <!-- 2 -->
      <g transform="translate(20.878125 203.313469)scale(0.1 -0.1)">
       <use xlink:href="#DejaVuSans-32"/>
      </g>
     </g>
    </g>
    <g id="ytick_4">
     <g id="line2d_10">
      <g>
       <use xlink:href="#m248a48a50e" x="34.240625" y="155.16225" style="stroke: #000000; stroke-width: 0.8"/>
      </g>
     </g>
     <g id="text_11">
      <!-- 3 -->
      <g transform="translate(20.878125 158.961469)scale(0.1 -0.1)">
       <defs>
        <path id="DejaVuSans-33" d="M 2597 2516 
Q 3050 2419 3304 2112 
Q 3559 1806 3559 1356 
Q 3559 666 3084 287 
Q 2609 -91 1734 -91 
Q 1441 -91 1130 -33 
Q 819 25 488 141 
L 488 750 
Q 750 597 1062 519 
Q 1375 441 1716 441 
Q 2309 441 2620 675 
Q 2931 909 2931 1356 
Q 2931 1769 2642 2001 
Q 2353 2234 1838 2234 
L 1294 2234 
L 1294 2753 
L 1863 2753 
Q 2328 2753 2575 2939 
Q 2822 3125 2822 3475 
Q 2822 3834 2567 4026 
Q 2313 4219 1838 4219 
Q 1578 4219 1281 4162 
Q 984 4106 628 3988 
L 628 4550 
Q 988 4650 1302 4700 
Q 1616 4750 1894 4750 
Q 2613 4750 3031 4423 
Q 3450 4097 3450 3541 
Q 3450 3153 3228 2886 
Q 3006 2619 2597 2516 
z
" transform="scale(0.015625)"/>
       </defs>
       <use xlink:href="#DejaVuSans-33"/>
      </g>
     </g>
    </g>
    <g id="ytick_5">
     <g id="line2d_11">
      <g>
       <use xlink:href="#m248a48a50e" x="34.240625" y="110.81025" style="stroke: #000000; stroke-width: 0.8"/>
      </g>
     </g>
     <g id="text_12">
      <!-- 4 -->
      <g transform="translate(20.878125 114.609469)scale(0.1 -0.1)">
       <use xlink:href="#DejaVuSans-34"/>
      </g>
     </g>
    </g>
    <g id="ytick_6">
     <g id="line2d_12">
      <g>
       <use xlink:href="#m248a48a50e" x="34.240625" y="66.45825" style="stroke: #000000; stroke-width: 0.8"/>
      </g>
     </g>
     <g id="text_13">
      <!-- 5 -->
      <g transform="translate(20.878125 70.257469)scale(0.1 -0.1)">
       <defs>
        <path id="DejaVuSans-35" d="M 691 4666 
L 3169 4666 
L 3169 4134 
L 1269 4134 
L 1269 2991 
Q 1406 3038 1543 3061 
Q 1681 3084 1819 3084 
Q 2600 3084 3056 2656 
Q 3513 2228 3513 1497 
Q 3513 744 3044 326 
Q 2575 -91 1722 -91 
Q 1428 -91 1123 -41 
Q 819 9 494 109 
L 494 744 
Q 775 591 1075 516 
Q 1375 441 1709 441 
Q 2250 441 2565 725 
Q 2881 1009 2881 1497 
Q 2881 1984 2565 2268 
Q 2250 2553 1709 2553 
Q 1456 2553 1204 2497 
Q 953 2441 691 2322 
L 691 4666 
z
" transform="scale(0.015625)"/>
       </defs>
       <use xlink:href="#DejaVuSans-35"/>
      </g>
     </g>
    </g>
    <g id="ytick_7">
     <g id="line2d_13">
      <g>
       <use xlink:href="#m248a48a50e" x="34.240625" y="22.10625" style="stroke: #000000; stroke-width: 0.8"/>
      </g>
     </g>
     <g id="text_14">
      <!-- 6 -->
      <g transform="translate(20.878125 25.905469)scale(0.1 -0.1)">
       <use xlink:href="#DejaVuSans-36"/>
      </g>
     </g>
    </g>
    <g id="text_15">
     <!-- zShift -->
     <g transform="translate(14.798438 169.151312)rotate(-90)scale(0.1 -0.1)">
      <defs>
       <path id="DejaVuSans-7a" d="M 353 3500 
L 3084 3500 
L 3084 2975 
L 922 459 
L 3084 459 
L 3084 0 
L 275 0 
L 275 525 
L 2438 3041 
L 353 3041 
L 353 3500 
z
" transform="scale(0.015625)"/>
       <path id="DejaVuSans-53" d="M 3425 4513 
L 3425 3897 
Q 3066 4069 2747 4153 
Q 2428 4238 2131 4238 
Q 1616 4238 1336 4038 
Q 1056 3838 1056 3469 
Q 1056 3159 1242 3001 
Q 1428 2844 1947 2747 
L 2328 2669 
Q 3034 2534 3370 2195 
Q 3706 1856 3706 1288 
Q 3706 609 3251 259 
Q 2797 -91 1919 -91 
Q 1588 -91 1214 -16 
Q 841 59 441 206 
L 441 856 
Q 825 641 1194 531 
Q 1563 422 1919 422 
Q 2459 422 2753 634 
Q 3047 847 3047 1241 
Q 3047 1584 2836 1778 
Q 2625 1972 2144 2069 
L 1759 2144 
Q 1053 2284 737 2584 
Q 422 2884 422 3419 
Q 422 4038 858 4394 
Q 1294 4750 2059 4750 
Q 2388 4750 2728 4690 
Q 3069 4631 3425 4513 
z
" transform="scale(0.015625)"/>
       <path id="DejaVuSans-68" d="M 3513 2113 
L 3513 0 
L 2938 0 
L 2938 2094 
Q 2938 2591 2744 2837 
Q 2550 3084 2163 3084 
Q 1697 3084 1428 2787 
Q 1159 2491 1159 1978 
L 1159 0 
L 581 0 
L 581 4863 
L 1159 4863 
L 1159 2956 
Q 1366 3272 1645 3428 
Q 1925 3584 2291 3584 
Q 2894 3584 3203 3211 
Q 3513 2838 3513 2113 
z
" transform="scale(0.015625)"/>
       <path id="DejaVuSans-66" d="M 2375 4863 
L 2375 4384 
L 1825 4384 
Q 1516 4384 1395 4259 
Q 1275 4134 1275 3809 
L 1275 3500 
L 2222 3500 
L 2222 3053 
L 1275 3053 
L 1275 0 
L 697 0 
L 697 3053 
L 147 3053 
L 147 3500 
L 697 3500 
L 697 3744 
Q 697 4328 969 4595 
Q 1241 4863 1831 4863 
L 2375 4863 
z
" transform="scale(0.015625)"/>
      </defs>
      <use xlink:href="#DejaVuSans-7a"/>
      <use xlink:href="#DejaVuSans-53" x="52.490234"/>
      <use xlink:href="#DejaVuSans-68" x="115.966797"/>
      <use xlink:href="#DejaVuSans-69" x="179.345703"/>
      <use xlink:href="#DejaVuSans-66" x="207.128906"/>
      <use xlink:href="#DejaVuSans-74" x="240.583984"/>
     </g>
    </g>
   </g>
   <g id="PathCollection_1"/>
   <g id="PathCollection_2">
    <path d="M 34.240625 112.611282 
L 35.536321 110.81025 
L 36.026225 110.143972 
L 37.512247 108.14913 
L 37.847537 107.704833 
L 39.545053 105.48801 
L 39.633137 105.373322 
L 41.418737 103.064765 
L 41.604884 102.82689 
L 43.204337 100.777051 
L 43.688907 100.16577 
L 45.025649 98.469949 
L 45.799097 97.50465 
L 46.811249 96.227566 
L 47.927563 94.84353 
L 48.596849 94.002208 
L 50.070335 92.18241 
L 50.382449 91.790735 
L 52.203761 89.541403 
L 52.220067 89.52129 
L 53.989361 87.284231 
L 54.698838 86.41665 
L 55.774961 85.066591 
L 56.837813 83.75553 
L 57.560561 82.848617 
L 58.981606 81.09441 
L 59.381873 80.592762 
L 61.134073 78.43329 
L 61.167473 78.391427 
L 62.953073 76.158552 
L 63.266843 75.77217 
L 64.738673 73.93036 
L 65.404199 73.11105 
L 66.559985 71.66653 
L 67.54958 70.44993 
L 68.345585 69.453923 
L 69.699648 67.78881 
L 70.131185 67.24837 
L 71.85426 65.12769 
L 71.916785 65.049303 
L 73.738097 62.775308 
L 73.988514 62.46657 
L 75.523697 60.5414 
L 76.120417 59.80545 
L 77.309297 58.314577 
L 78.258573 57.14433 
L 79.094897 56.096241 
L 80.40364 54.48321 
L 80.916209 53.842015 
L 82.558654 51.82209 
L 82.701809 51.642991 
L 84.487409 49.425485 
L 84.702616 49.16097 
L 86.273009 47.198167 
L 86.840893 46.49985 
L 88.094321 44.920917 
L 89.347185 43.39521 
L 89.879921 42.72928 
L 91.505192 40.73409 
L 91.665521 40.533923 
L 93.451121 38.323931 
L 93.65587 38.07297 
L 95.272433 36.066533 
L 95.809849 35.41185 
L 97.058033 33.871576 
L 97.986185 32.75073 
L 98.843633 31.703164 
L 100.197063 30.08961 
L 100.629233 29.56895 
L 102.450545 27.433453 
L 102.454806 27.42849 
L 104.236145 25.338329 
L 104.739168 24.76737 
L 106.021745 23.302491 
L 107.111883 22.10625 
" clip-path="url(#pa6926aa3d6)" style="fill: none; stroke: #deebf7; stroke-width: 1.5"/>
    <path d="M 114.989753 288.21825 
L 114.985457 288.153792 
L 114.783038 285.55713 
L 114.808349 282.89601 
L 114.985457 280.751783 
L 115.024981 280.23489 
L 115.343575 277.57377 
L 115.742308 274.91265 
L 116.148697 272.25153 
L 116.41771 269.59041 
L 116.135375 266.92929 
L 114.985457 265.505375 
L 113.199857 265.399086 
L 111.414257 266.065591 
L 109.875139 266.92929 
L 109.628657 267.073777 
L 107.807345 268.486383 
L 106.44224 269.59041 
L 106.021745 269.931448 
L 104.236145 271.541369 
L 103.477426 272.25153 
L 102.450545 273.206499 
L 100.629233 274.908411 
L 100.625026 274.91265 
L 98.843633 276.689918 
L 97.954002 277.57377 
L 97.058033 278.451053 
L 95.272433 280.196973 
L 95.235476 280.23489 
L 93.451121 282.041566 
L 92.598847 282.89601 
L 91.665521 283.821946 
L 89.89028 285.55713 
L 89.879921 285.56717 
L 88.094321 287.352934 
L 87.207085 288.21825 
" clip-path="url(#pa6926aa3d6)" style="fill: none; stroke: #deebf7; stroke-width: 1.5"/>
    <path d="M 261.953772 22.10625 
L 262.154609 22.534378 
L 263.393258 24.76737 
L 263.940209 25.779914 
L 265.118434 27.42849 
L 265.725809 28.22291 
L 267.547121 29.690999 
L 268.680863 30.08961 
L 269.332721 30.284118 
L 271.118321 30.263567 
L 271.778774 30.08961 
L 272.903921 29.801734 
L 274.725233 28.989586 
L 276.510833 27.977596 
L 277.322996 27.42849 
L 278.296433 26.774454 
L 280.082033 25.434873 
L 280.905605 24.76737 
L 281.903345 23.95954 
L 283.688945 22.452296 
L 284.080208 22.10625 
" clip-path="url(#pa6926aa3d6)" style="fill: none; stroke: #deebf7; stroke-width: 1.5"/>
    <path d="M 293.522207 288.21825 
L 293.325839 285.55713 
L 293.346884 282.89601 
L 293.547904 280.23489 
L 293.893696 277.57377 
L 294.343494 274.91265 
L 294.438257 274.29232 
L 294.732421 272.25153 
L 294.963816 269.59041 
L 294.742726 266.92929 
L 294.438257 266.289557 
L 292.652657 265.304568 
L 290.867057 265.681374 
L 289.081457 266.533505 
L 288.498796 266.92929 
L 287.260145 267.800673 
L 285.474545 269.189817 
L 285.018012 269.59041 
L 283.688945 270.761158 
L 282.009831 272.25153 
L 281.903345 272.345173 
L 280.082033 274.109043 
L 279.260547 274.91265 
L 278.296433 275.843863 
L 276.510833 277.569406 
L 276.506585 277.57377 
L 274.725233 279.381883 
L 273.881907 280.23489 
L 272.903921 281.208082 
L 271.199835 282.89601 
L 271.118321 282.975666 
L 269.332721 284.791342 
L 268.571691 285.55713 
L 267.547121 286.579718 
L 265.873381 288.21825 
" clip-path="url(#pa6926aa3d6)" style="fill: none; stroke: #deebf7; stroke-width: 1.5"/>
    <path d="M 391.360625 109.805575 
L 390.546611 110.81025 
L 389.575025 112.031076 
L 388.410011 113.47137 
L 387.753713 114.296807 
L 386.269863 116.13249 
L 385.968113 116.513269 
L 384.182513 118.732089 
L 384.132873 118.79361 
L 382.396913 120.987195 
L 382.020735 121.45473 
L 380.575601 123.286572 
L 379.909968 124.11585 
L 378.790001 125.546052 
L 377.807663 126.77697 
L 377.004401 127.813531 
L 375.720342 129.43809 
L 375.218801 130.095593 
L 373.659887 132.09921 
L 373.397489 132.455073 
L 371.611889 134.820667 
L 371.315786 135.20385 
L 369.826289 137.250997 
L 369.370207 137.86497 
L 368.040689 139.763387 
L 367.495607 140.52609 
L 366.219377 142.439684 
L 365.71076 143.18721 
L 364.433777 145.234536 
L 364.043389 145.84833 
L 362.648177 148.288518 
L 362.51977 148.50945 
L 361.20476 151.17057 
L 360.862577 152.020876 
L 360.126388 153.83169 
L 359.307822 156.49281 
L 359.041265 158.082178 
L 358.861482 159.15393 
L 358.928128 161.81505 
L 359.041265 162.239869 
L 360.074565 164.47617 
L 360.862577 165.196616 
L 362.648177 165.92279 
L 364.433777 166.069245 
L 366.219377 165.908179 
L 368.040689 165.571933 
L 369.826289 165.153302 
L 371.611889 164.693652 
L 372.400343 164.47617 
L 373.397489 164.180692 
L 375.218801 163.640835 
L 377.004401 163.145941 
L 378.790001 162.692393 
L 380.575601 162.285189 
L 382.396913 161.921417 
L 383.011256 161.81505 
L 384.182513 161.592552 
L 385.968113 161.316405 
L 387.753713 161.109146 
L 389.575025 160.970731 
L 391.360625 160.909426 
" clip-path="url(#pa6926aa3d6)" style="fill: none; stroke: #deebf7; stroke-width: 1.5"/>
    <path d="M 188.000331 151.17057 
L 188.587889 152.442115 
L 190.373489 152.192342 
L 192.159089 151.215454 
L 192.212145 151.17057 
L 193.944689 149.515178 
L 195.042284 148.50945 
L 195.766001 147.762144 
L 197.551601 145.974357 
L 197.668125 145.84833 
L 199.337201 143.881957 
L 199.962301 143.18721 
L 201.122801 141.777971 
L 202.222555 140.52609 
L 202.944113 139.631204 
L 204.477661 137.86497 
L 204.729713 137.543455 
L 206.515313 135.376509 
L 206.659419 135.20385 
L 208.300913 133.003676 
L 209.070221 132.09921 
L 210.122225 130.703236 
L 211.13956 129.43809 
L 211.907825 128.377605 
L 213.150361 126.77697 
L 213.693425 125.98568 
L 215.064871 124.11585 
L 215.479025 123.458397 
L 216.811585 121.45473 
L 217.300337 120.570173 
L 218.322581 118.79361 
L 219.085937 117.046158 
L 219.495467 116.13249 
L 219.478341 113.47137 
L 219.085937 113.201079 
L 217.866509 113.47137 
L 217.300337 113.634959 
L 215.479025 115.027314 
L 214.057138 116.13249 
L 213.693425 116.463154 
L 211.907825 118.254973 
L 211.379162 118.79361 
L 210.122225 120.21127 
L 208.954298 121.45473 
L 208.300913 122.221132 
L 206.565467 124.11585 
L 206.515313 124.177054 
L 204.729713 126.367758 
L 204.378768 126.77697 
L 202.944113 128.586088 
L 202.224724 129.43809 
L 201.122801 130.848721 
L 200.077453 132.09921 
L 199.337201 133.117198 
L 197.551601 135.198199 
L 197.546877 135.20385 
L 195.766001 137.587885 
L 195.547924 137.86497 
L 193.944689 140.082532 
L 193.607635 140.52609 
L 192.159089 142.651216 
L 191.775711 143.18721 
L 190.373489 145.429738 
L 190.101339 145.84833 
L 188.694504 148.50945 
L 188.587889 148.923906 
L 188.000331 151.17057 
z
" clip-path="url(#pa6926aa3d6)" style="fill: none; stroke: #deebf7; stroke-width: 1.5"/>
   </g>
   <g id="PathCollection_3">
    <path d="M 34.240625 131.246589 
L 35.020676 129.43809 
L 36.026225 127.374722 
L 36.316063 126.77697 
L 37.750755 124.11585 
L 37.847537 123.950819 
L 39.314663 121.45473 
L 39.633137 120.951704 
L 41.007552 118.79361 
L 41.418737 118.183353 
L 42.811642 116.13249 
L 43.204337 115.57726 
L 44.706849 113.47137 
L 45.025649 113.037115 
L 46.676092 110.81025 
L 46.811249 110.63099 
L 48.596849 108.28063 
L 48.697351 108.14913 
L 50.382449 105.964914 
L 50.753941 105.48801 
L 52.203761 103.635866 
L 52.84328 102.82689 
L 53.989361 101.376596 
L 54.956283 100.16577 
L 55.774961 99.136629 
L 57.08692 97.50465 
L 57.560561 96.911511 
L 59.228441 94.84353 
L 59.381873 94.651791 
L 61.167473 92.429915 
L 61.367387 92.18241 
L 62.953073 90.201001 
L 63.502046 89.52129 
L 64.738673 87.967608 
L 65.996415 86.41665 
L 66.559985 85.712189 
L 68.140184 83.75553 
L 68.345585 83.49878 
L 70.131185 81.280591 
L 70.281625 81.09441 
L 71.916785 79.054148 
L 72.418946 78.43329 
L 73.738097 76.789736 
L 74.56249 75.77217 
L 75.523697 74.574443 
L 76.709818 73.11105 
L 77.309297 72.363711 
L 78.859786 70.44993 
L 79.094897 70.156507 
L 80.916209 67.899403 
L 81.005639 67.78881 
L 82.701809 65.670182 
L 83.140055 65.12769 
L 84.487409 63.443636 
L 85.276486 62.46657 
L 86.273009 61.221227 
L 87.416537 59.80545 
L 88.094321 58.95961 
L 89.563164 57.14433 
L 89.879921 56.749286 
L 91.665521 54.542851 
L 91.713835 54.48321 
L 93.451121 52.32014 
L 93.854808 51.82209 
L 95.272433 50.05833 
L 96.000414 49.16097 
L 97.058033 47.844421 
L 98.149074 46.49985 
L 98.843633 45.631204 
L 100.629233 43.442045 
L 100.667434 43.39521 
L 102.450545 41.18559 
L 102.818772 40.73409 
L 104.236145 38.986552 
L 104.986643 38.07297 
L 106.021745 36.808507 
L 107.182493 35.41185 
L 107.807345 34.658943 
L 109.419442 32.75073 
L 109.628657 32.503534 
L 111.414257 30.421601 
L 111.703646 30.08961 
L 113.199857 28.382768 
L 114.060142 27.42849 
L 114.985457 26.410344 
L 116.531986 24.76737 
L 116.806769 24.478765 
L 118.592369 22.653519 
L 119.148322 22.10625 
" clip-path="url(#pa6926aa3d6)" style="fill: none; stroke: #c6dbef; stroke-width: 1.5"/>
    <path d="M 127.660945 288.21825 
L 127.46329 285.55713 
L 127.6077 282.89601 
L 128.02328 280.23489 
L 128.664673 277.57377 
L 130.371927 272.25153 
L 132.948593 264.862333 
L 134.082811 261.16353 
L 135.443247 255.84129 
L 138.422267 242.53569 
L 139.149083 239.87457 
L 141.027601 234.55233 
L 142.208812 231.89121 
L 144.991757 226.56897 
L 147.304817 222.78684 
L 150.876017 217.690181 
L 156.683883 210.15873 
L 159.875441 206.253514 
L 167.053553 198.087364 
L 173.240008 191.53089 
L 188.587889 175.742088 
L 194.005465 169.79841 
L 201.122801 161.545482 
L 208.300913 152.839031 
L 219.085937 139.486789 
L 224.959214 132.09921 
L 230.983296 124.11585 
L 234.604587 118.79361 
L 237.013361 114.702153 
L 238.834673 111.124491 
L 238.985481 110.81025 
L 240.620273 106.716025 
L 241.056356 105.48801 
L 242.585004 100.16577 
L 246.012785 85.669867 
L 246.57718 83.75553 
L 247.798385 80.39646 
L 248.58933 78.43329 
L 249.871224 75.77217 
L 251.369585 73.075564 
L 253.190897 70.145719 
L 254.976497 67.616888 
L 258.547697 63.1121 
L 261.466391 59.80545 
L 267.547121 53.471461 
L 276.510833 44.307846 
L 284.839772 35.41185 
L 294.829758 24.76737 
L 297.530146 22.10625 
L 297.530146 22.10625 
" clip-path="url(#pa6926aa3d6)" style="fill: none; stroke: #c6dbef; stroke-width: 1.5"/>
    <path d="M 249.048426 22.10625 
L 250.035567 24.76737 
L 250.767551 27.42849 
L 251.369585 30.914488 
L 251.604591 32.75073 
L 251.770269 35.41185 
L 251.775575 38.07297 
L 251.623784 40.73409 
L 251.314013 43.39521 
L 250.786614 46.49985 
L 250.136965 49.16097 
L 249.298526 51.82209 
L 247.798385 55.587128 
L 247.087497 57.14433 
L 245.65396 59.80545 
L 244.009176 62.46657 
L 242.174988 65.12769 
L 238.834673 69.40317 
L 237.013361 71.513834 
L 231.656561 77.268272 
L 215.479025 94.242099 
L 210.122225 100.313494 
L 202.944113 108.85534 
L 194.852577 118.79361 
L 181.409777 135.647152 
L 177.71614 140.52609 
L 173.995172 145.84833 
L 172.301821 148.50945 
L 170.624753 151.430995 
L 168.839153 155.040989 
L 168.189517 156.49281 
L 167.053553 159.407968 
L 165.504191 164.47617 
L 164.254874 169.79841 
L 162.333531 178.22529 
L 160.746969 183.54753 
L 158.620937 188.86977 
L 157.329729 191.53089 
L 155.865552 194.19201 
L 152.697329 199.250372 
L 150.678161 202.17537 
L 146.745879 207.49761 
L 143.697905 211.373061 
L 136.519793 219.819033 
L 130.342652 226.56897 
L 123.984881 233.123037 
L 114.766962 242.53569 
L 107.389602 250.51905 
L 100.406279 258.50241 
L 82.701809 279.256835 
L 79.094897 283.137611 
L 75.523697 286.732429 
L 73.928153 288.21825 
L 73.928153 288.21825 
" clip-path="url(#pa6926aa3d6)" style="fill: none; stroke: #c6dbef; stroke-width: 1.5"/>
    <path d="M 306.214357 288.21825 
L 306.015647 285.55713 
L 306.157802 282.89601 
L 306.583748 280.23489 
L 307.008881 278.514944 
L 307.231933 277.57377 
L 308.028876 274.91265 
L 308.794481 272.69653 
L 308.943175 272.25153 
L 309.878169 269.59041 
L 310.615793 267.530016 
L 310.824103 266.92929 
L 311.844773 263.82465 
L 312.401393 262.009316 
L 312.652233 261.16353 
L 313.360502 258.50241 
L 314.016901 255.84129 
L 314.186993 255.080477 
L 314.597679 253.18017 
L 315.149362 250.51905 
L 315.721788 247.85793 
L 315.972593 246.744101 
L 316.312636 245.19681 
L 316.959536 242.53569 
L 317.741726 239.87457 
L 317.793905 239.710262 
L 318.584485 237.21345 
L 319.579505 234.679566 
L 319.629886 234.55233 
L 320.762793 231.89121 
L 321.365105 230.660611 
L 322.083968 229.23009 
L 323.150705 227.311346 
L 323.576458 226.56897 
L 324.972017 224.297193 
L 325.220103 223.90785 
L 326.757617 221.524459 
L 327.267347 220.80321 
L 328.543217 218.975697 
L 329.155973 218.14209 
L 330.328817 216.535755 
L 331.141827 215.48097 
L 332.150129 214.157559 
L 333.231734 212.81985 
L 333.935729 211.927726 
L 335.430035 210.15873 
L 335.721329 209.80402 
L 337.506929 207.718106 
L 337.698556 207.49761 
L 339.328241 205.590681 
L 340.011391 204.83649 
L 341.113841 203.59619 
L 342.461879 202.17537 
L 342.899441 201.708394 
L 344.685041 199.852367 
L 345.012835 199.51425 
L 346.506353 197.975567 
L 347.661707 196.85313 
L 348.291953 196.245326 
L 350.077553 194.565703 
L 350.476233 194.19201 
L 351.863153 192.908585 
L 353.443007 191.53089 
L 353.684465 191.324868 
L 355.470065 189.774701 
L 356.561246 188.86977 
L 357.255665 188.303309 
L 359.041265 186.870771 
L 359.889705 186.20865 
L 360.862577 185.459306 
L 362.648177 184.129837 
L 363.4553 183.54753 
L 364.433777 182.84496 
L 366.219377 181.616339 
L 367.3364 180.88641 
L 368.040689 180.425746 
L 369.826289 179.310381 
L 371.611889 178.283994 
L 371.719408 178.22529 
L 373.397489 177.295681 
L 375.218801 176.384747 
L 377.004401 175.585924 
L 378.170427 175.12065 
L 378.790001 174.867967 
L 380.575601 174.231395 
L 382.396913 173.688618 
L 384.182513 173.261696 
L 385.968113 172.941577 
L 387.753713 172.732786 
L 389.575025 172.641311 
L 391.360625 172.679694 
" clip-path="url(#pa6926aa3d6)" style="fill: none; stroke: #c6dbef; stroke-width: 1.5"/>
    <path d="M 391.360625 95.672828 
L 378.790001 111.377924 
L 364.325052 129.43809 
L 357.255665 138.645057 
L 353.684465 143.638616 
L 350.547311 148.50945 
L 348.291953 152.620469 
L 347.679926 153.83169 
L 346.481335 156.49281 
L 344.685041 161.514166 
L 344.58695 161.81505 
L 343.189847 167.13729 
L 340.687554 178.22529 
L 339.328241 182.851939 
L 338.145855 186.20865 
L 337.018363 188.86977 
L 334.304987 194.19201 
L 332.150129 197.803456 
L 329.211833 202.17537 
L 326.757617 205.5588 
L 321.016082 212.81985 
L 317.793905 216.703772 
L 310.615793 224.732264 
L 298.506679 237.21345 
L 294.438257 241.389716 
L 288.36819 247.85793 
L 281.903345 255.115274 
L 274.484753 263.82465 
L 265.19791 274.91265 
L 260.369009 280.4609 
L 255.65501 285.55713 
L 252.991699 288.21825 
L 252.991699 288.21825 
" clip-path="url(#pa6926aa3d6)" style="fill: none; stroke: #c6dbef; stroke-width: 1.5"/>
   </g>
   <g id="PathCollection_4">
    <path d="M 34.240625 153.863644 
L 34.253681 153.83169 
L 35.251711 151.17057 
L 36.026225 148.944299 
L 36.175338 148.50945 
L 37.031609 145.84833 
L 37.847537 143.252168 
L 37.867713 143.18721 
L 38.701157 140.52609 
L 39.587571 137.86497 
L 39.633137 137.738845 
L 40.544126 135.20385 
L 41.418737 133.048579 
L 41.805022 132.09921 
L 43.027809 129.43809 
L 43.204337 129.09199 
L 44.38983 126.77697 
L 45.025649 125.651184 
L 45.898176 124.11585 
L 46.811249 122.632814 
L 47.542077 121.45473 
L 48.596849 119.857972 
L 49.305474 118.79361 
L 50.382449 117.250479 
L 51.168521 116.13249 
L 52.203761 114.710041 
L 53.111521 113.47137 
L 53.989361 112.301512 
L 55.115897 110.81025 
L 55.774961 109.951538 
L 57.167179 108.14913 
L 57.560561 107.644952 
L 59.253595 105.48801 
L 59.381873 105.32558 
L 61.167473 103.072282 
L 61.362585 102.82689 
L 62.953073 100.831851 
L 63.486582 100.16577 
L 64.738673 98.602079 
L 65.621184 97.50465 
L 66.559985 96.33462 
L 67.761283 94.84353 
L 68.345585 94.115234 
L 69.902879 92.18241 
L 70.131185 91.897663 
L 71.916785 89.677285 
L 72.042301 89.52129 
L 73.738097 87.402774 
L 74.533211 86.41665 
L 75.523697 85.181964 
L 76.67289 83.75553 
L 77.309297 82.963121 
L 78.817084 81.09441 
L 79.094897 80.748912 
L 80.916209 78.493138 
L 80.964549 78.43329 
L 82.701809 76.275677 
L 83.108736 75.77217 
L 84.487409 74.059145 
L 85.253321 73.11105 
L 86.273009 71.842525 
L 87.396496 70.44993 
L 88.094321 69.580775 
L 89.538519 67.78881 
L 89.879921 67.363089 
L 91.665521 65.145832 
L 91.680123 65.12769 
L 93.451121 62.920629 
L 93.81675 62.46657 
L 95.272433 60.654645 
L 95.957332 59.80545 
L 97.058033 58.43698 
L 98.10235 57.14433 
L 98.843633 56.223744 
L 100.251659 54.48321 
L 100.629233 54.014551 
L 102.403686 51.82209 
L 102.450545 51.763947 
L 104.236145 49.550768 
L 104.551697 49.16097 
L 106.021745 47.339029 
L 106.70192 46.49985 
L 107.807345 45.130289 
L 109.221772 43.39521 
L 109.628657 42.895317 
L 111.400844 40.73409 
L 111.414257 40.717772 
L 113.199857 38.555494 
L 113.601979 38.07297 
L 114.985457 36.425805 
L 115.847722 35.41185 
L 116.806769 34.297181 
L 118.159671 32.75073 
L 118.592369 32.263376 
L 120.377969 30.291385 
L 120.56365 30.08961 
L 122.163569 28.389257 
L 123.095485 27.42849 
L 123.984881 26.535718 
L 125.770481 24.812675 
L 125.81868 24.76737 
L 127.556081 23.187506 
L 128.811731 22.10625 
" clip-path="url(#pa6926aa3d6)" style="fill: none; stroke: #9dcae1; stroke-width: 1.5"/>
    <path d="M 137.309791 288.21825 
L 136.730992 285.55713 
L 136.618245 282.89601 
L 136.865954 280.23489 
L 137.386836 277.57377 
L 138.341105 274.181586 
L 140.126705 268.77545 
L 142.598346 261.16353 
L 147.304817 245.170835 
L 149.090417 240.660612 
L 149.428878 239.87457 
L 150.876017 236.918152 
L 152.697329 233.628678 
L 155.451663 229.23009 
L 159.194069 223.90785 
L 163.571804 218.14209 
L 170.624753 209.262493 
L 183.195377 193.95827 
L 210.122225 161.712035 
L 228.049649 139.466703 
L 233.857986 132.09921 
L 238.834673 125.438324 
L 241.597456 121.45473 
L 244.191473 117.274352 
L 246.012785 113.961021 
L 246.26986 113.47137 
L 247.798385 110.158469 
L 249.61242 105.48801 
L 251.369585 99.883953 
L 253.662289 92.18241 
L 254.976497 88.486187 
L 255.785959 86.41665 
L 256.983165 83.75553 
L 258.547697 80.697803 
L 260.369009 77.538891 
L 263.240859 73.11105 
L 267.113629 67.78881 
L 271.297936 62.46657 
L 277.910767 54.48321 
L 294.438257 35.129554 
L 299.830769 29.217482 
L 304.322353 24.76737 
L 307.337368 22.10625 
L 307.337368 22.10625 
" clip-path="url(#pa6926aa3d6)" style="fill: none; stroke: #9dcae1; stroke-width: 1.5"/>
    <path d="M 239.697599 22.10625 
L 241.026834 24.76737 
L 241.951561 27.42849 
L 242.546178 30.08961 
L 242.864982 32.75073 
L 242.933717 35.41185 
L 242.77138 38.07297 
L 242.385875 40.73409 
L 241.798141 43.39521 
L 240.620273 47.044008 
L 239.789991 49.16097 
L 238.536863 51.82209 
L 237.013361 54.62401 
L 235.227761 57.556692 
L 231.870863 62.46657 
L 227.844974 67.78881 
L 222.657137 74.21188 
L 210.122225 89.12536 
L 198.796271 102.82689 
L 181.409777 124.357209 
L 174.231665 133.442171 
L 170.624753 138.175739 
L 167.036375 143.18721 
L 163.647305 148.50945 
L 161.661041 152.165632 
L 159.875441 155.976213 
L 159.648561 156.49281 
L 157.689361 161.81505 
L 155.306989 169.79841 
L 153.642526 175.12065 
L 152.497724 178.22529 
L 150.876017 181.966504 
L 149.090417 185.492633 
L 147.304817 188.592638 
L 145.442316 191.53089 
L 141.732117 196.85313 
L 136.519793 203.740205 
L 129.261287 212.81985 
L 120.190132 223.90785 
L 111.256231 234.55233 
L 95.272433 253.613493 
L 79.094897 272.960434 
L 74.913302 277.57377 
L 71.916785 280.651294 
L 68.345585 283.992442 
L 64.738673 286.946857 
L 62.987015 288.21825 
L 62.987015 288.21825 
" clip-path="url(#pa6926aa3d6)" style="fill: none; stroke: #9dcae1; stroke-width: 1.5"/>
    <path d="M 315.870868 288.21825 
L 315.291557 285.55713 
L 315.177623 282.89601 
L 315.426288 280.23489 
L 315.952522 277.57377 
L 315.972593 277.501026 
L 316.666198 274.91265 
L 317.508152 272.25153 
L 317.793905 271.417949 
L 318.405969 269.59041 
L 319.315903 266.92929 
L 319.579505 266.138245 
L 320.336421 263.82465 
L 321.166139 261.16353 
L 321.365105 260.488728 
L 321.940972 258.50241 
L 322.684081 255.84129 
L 323.150705 254.156935 
L 323.418057 253.18017 
L 324.164403 250.51905 
L 324.972017 247.873371 
L 324.976706 247.85793 
L 325.857164 245.19681 
L 326.757617 242.826271 
L 326.868302 242.53569 
L 328.002936 239.87457 
L 328.543217 238.75446 
L 329.293502 237.21345 
L 330.328817 235.305359 
L 330.742323 234.55233 
L 332.150129 232.204686 
L 332.340741 231.89121 
L 333.935729 229.435541 
L 334.071258 229.23009 
L 335.721329 226.84525 
L 335.915617 226.56897 
L 337.506929 224.378973 
L 337.854946 223.90785 
L 339.328241 221.950102 
L 340.216244 220.80321 
L 341.113841 219.653289 
L 342.316627 218.14209 
L 342.899441 217.413818 
L 344.479249 215.48097 
L 344.685041 215.229454 
L 346.506353 213.040399 
L 346.692715 212.81985 
L 348.291953 210.925387 
L 348.955192 210.15873 
L 350.077553 208.857067 
L 351.282134 207.49761 
L 351.863153 206.838901 
L 353.683411 204.83649 
L 353.684465 204.835327 
L 355.470065 202.894882 
L 356.155816 202.17537 
L 357.255665 201.019122 
L 358.745741 199.51425 
L 359.041265 199.215853 
L 360.862577 197.435444 
L 361.483798 196.85313 
L 362.648177 195.764864 
L 364.427314 194.19201 
L 364.433777 194.186321 
L 366.219377 192.676533 
L 367.670753 191.53089 
L 368.040689 191.240233 
L 369.826289 189.921182 
L 371.370332 188.86977 
L 371.611889 188.705687 
L 373.397489 187.588574 
L 375.218801 186.564626 
L 375.932234 186.20865 
L 377.004401 185.673514 
L 378.790001 184.905022 
L 380.575601 184.26417 
L 382.396913 183.748835 
L 383.407161 183.54753 
L 384.182513 183.392533 
L 385.968113 183.198003 
L 387.753713 183.177338 
L 389.575025 183.354851 
L 390.469372 183.54753 
L 391.360625 183.756864 
" clip-path="url(#pa6926aa3d6)" style="fill: none; stroke: #9dcae1; stroke-width: 1.5"/>
    <path d="M 391.360625 84.57896 
L 387.657096 89.52129 
L 380.575601 98.525259 
L 351.863153 134.481093 
L 348.291953 139.253815 
L 345.509914 143.18721 
L 342.899441 147.251316 
L 341.113841 150.339446 
L 340.655031 151.17057 
L 339.324563 153.83169 
L 337.506929 158.149564 
L 336.202875 161.81505 
L 334.595209 167.13729 
L 332.150129 175.155469 
L 330.328817 179.917153 
L 329.921097 180.88641 
L 328.543217 183.76675 
L 326.757617 187.062134 
L 324.003726 191.53089 
L 320.295192 196.85313 
L 315.972593 202.582265 
L 307.831333 212.81985 
L 298.045169 224.766829 
L 283.688945 241.805811 
L 271.118321 256.944862 
L 256.268204 274.91265 
L 251.369585 280.400794 
L 247.798385 284.071806 
L 244.191473 287.407817 
L 243.242404 288.21825 
L 243.242404 288.21825 
" clip-path="url(#pa6926aa3d6)" style="fill: none; stroke: #9dcae1; stroke-width: 1.5"/>
   </g>
   <g id="PathCollection_5">
    <path d="M 34.240625 169.440423 
L 35.365522 167.13729 
L 36.026225 165.801762 
L 36.682808 164.47617 
L 37.847537 162.078915 
L 37.975663 161.81505 
L 39.210905 159.15393 
L 39.633137 158.181355 
L 40.363576 156.49281 
L 41.418737 153.837491 
L 41.421037 153.83169 
L 42.390733 151.17057 
L 43.204337 148.746966 
L 43.284099 148.50945 
L 44.130887 145.84833 
L 44.959931 143.18721 
L 45.025649 142.981265 
L 45.812914 140.52609 
L 46.721948 137.86497 
L 46.811249 137.626522 
L 47.726329 135.20385 
L 48.596849 133.154627 
L 49.050378 132.09921 
L 50.336716 129.43809 
L 50.382449 129.35249 
L 51.773362 126.77697 
L 52.203761 126.046679 
L 53.353484 124.11585 
L 53.989361 123.12106 
L 55.064126 121.45473 
L 55.774961 120.411846 
L 56.8861 118.79361 
L 57.560561 117.851344 
L 58.797972 116.13249 
L 59.381873 115.345863 
L 60.77922 113.47137 
L 61.167473 112.962048 
L 62.812902 110.81025 
L 62.953073 110.629897 
L 64.738673 108.338488 
L 64.886474 108.14913 
L 66.559985 106.030735 
L 66.989035 105.48801 
L 68.345585 103.786726 
L 69.111046 102.82689 
L 70.131185 101.554692 
L 71.244665 100.16577 
L 71.916785 99.329784 
L 73.38349 97.50465 
L 73.738097 97.063783 
L 75.522845 94.84353 
L 75.523697 94.84247 
L 77.309297 92.622092 
L 77.662281 92.18241 
L 79.094897 90.39982 
L 79.800017 89.52129 
L 80.916209 88.133236 
L 82.294118 86.41665 
L 82.701809 85.910026 
L 84.434958 83.75553 
L 84.487409 83.690443 
L 86.273009 81.476285 
L 86.580639 81.09441 
L 88.094321 79.219275 
L 88.728053 78.43329 
L 89.879921 77.006245 
L 90.874818 75.77217 
L 91.665521 74.791444 
L 93.01877 73.11105 
L 93.451121 72.573934 
L 95.159265 70.44993 
L 95.272433 70.309156 
L 97.058033 68.088197 
L 97.298388 67.78881 
L 98.843633 65.867094 
L 99.437401 65.12769 
L 100.629233 63.64681 
L 101.578326 62.46657 
L 102.450545 61.384441 
L 103.722571 59.80545 
L 104.236145 59.169243 
L 105.870162 57.14433 
L 106.021745 56.95672 
L 107.807345 54.747675 
L 108.020933 54.48321 
L 109.628657 52.495682 
L 110.17297 51.82209 
L 111.414257 50.288712 
L 112.326715 49.16097 
L 113.199857 48.084912 
L 114.486674 46.49985 
L 114.985457 45.888939 
L 116.806769 43.663919 
L 117.02701 43.39521 
L 118.592369 41.508867 
L 119.237943 40.73409 
L 120.377969 39.386537 
L 121.497347 38.07297 
L 122.163569 37.306507 
L 123.829533 35.41185 
L 123.984881 35.239523 
L 125.770481 33.289781 
L 126.272497 32.75073 
L 127.556081 31.419467 
L 128.87042 30.08961 
L 129.341681 29.631616 
L 131.162993 27.916631 
L 131.69887 27.42849 
L 132.948593 26.345943 
L 134.734193 24.870806 
L 134.864676 24.76737 
L 136.519793 23.528691 
L 138.341105 22.250716 
L 138.558541 22.10625 
" clip-path="url(#pa6926aa3d6)" style="fill: none; stroke: #6aaed6; stroke-width: 1.5"/>
    <path d="M 147.064432 288.21825 
L 145.740607 285.55713 
L 145.137815 282.89601 
L 145.048915 280.23489 
L 145.519217 276.645112 
L 145.86736 274.91265 
L 147.361498 269.59041 
L 150.876017 257.920576 
L 153.053866 250.51905 
L 154.935553 245.19681 
L 156.268529 242.09071 
L 158.054129 238.5062 
L 159.875441 235.29744 
L 162.021667 231.89121 
L 165.746204 226.56897 
L 170.624753 220.13262 
L 178.562432 210.15873 
L 195.766001 189.013499 
L 220.871537 158.186055 
L 239.265558 135.20385 
L 244.191473 128.722586 
L 247.798385 123.627811 
L 250.868859 118.79361 
L 253.190897 114.506992 
L 253.71301 113.47137 
L 254.976497 110.65757 
L 256.939888 105.48801 
L 259.453854 97.50465 
L 261.219354 92.18241 
L 262.241445 89.52129 
L 263.940209 85.723954 
L 265.725809 82.29912 
L 267.547121 79.202764 
L 269.770406 75.77217 
L 273.578755 70.44993 
L 278.296433 64.337491 
L 285.474545 55.466207 
L 296.259569 42.424141 
L 301.616369 36.209401 
L 305.223281 32.296502 
L 308.794481 28.758956 
L 310.615793 27.096391 
L 314.186993 24.179243 
L 317.117632 22.10625 
L 317.117632 22.10625 
" clip-path="url(#pa6926aa3d6)" style="fill: none; stroke: #6aaed6; stroke-width: 1.5"/>
    <path d="M 230.350027 22.10625 
L 232.390265 24.76737 
L 233.769495 27.42849 
L 234.649593 30.08961 
L 235.138232 32.75073 
L 235.291429 35.41185 
L 235.149726 38.07297 
L 234.737807 40.73409 
L 234.07357 43.39521 
L 232.99517 46.49985 
L 231.656561 49.49745 
L 229.835249 52.893402 
L 228.049649 55.819073 
L 225.360818 59.80545 
L 220.871537 65.833516 
L 215.097418 73.11105 
L 174.231665 123.505272 
L 167.053553 132.612545 
L 163.097455 137.86497 
L 159.377136 143.18721 
L 156.268529 148.238773 
L 156.110354 148.50945 
L 154.482929 151.596466 
L 152.697329 155.509658 
L 152.280039 156.49281 
L 150.360469 161.81505 
L 146.030859 175.12065 
L 144.753535 178.22529 
L 143.505915 180.88641 
L 141.912305 183.889039 
L 140.126705 186.904654 
L 137.081722 191.53089 
L 132.948593 197.208179 
L 127.023033 204.83649 
L 114.985457 219.775635 
L 102.450545 235.093859 
L 78.734087 263.82465 
L 73.701569 269.59041 
L 70.131185 273.399221 
L 66.559985 276.884284 
L 64.738673 278.504668 
L 61.167473 281.332528 
L 58.857623 282.89601 
L 55.774961 284.632244 
L 53.75886 285.55713 
L 52.203761 286.138121 
L 50.382449 286.680241 
L 48.596849 287.070691 
L 46.811249 287.313373 
L 45.025649 287.397853 
L 43.204337 287.307559 
L 41.418737 287.029914 
L 39.633137 286.545813 
L 37.324469 285.55713 
L 36.026225 284.747311 
L 34.240625 283.305877 
L 34.240625 283.305877 
" clip-path="url(#pa6926aa3d6)" style="fill: none; stroke: #6aaed6; stroke-width: 1.5"/>
    <path d="M 325.640969 288.21825 
L 324.972017 286.956654 
L 324.312701 285.55713 
L 323.706656 282.89601 
L 323.616401 280.23489 
L 323.897865 277.57377 
L 324.435422 274.91265 
L 324.972017 272.888502 
L 325.138042 272.25153 
L 325.932658 269.59041 
L 326.757617 266.93489 
L 326.75934 266.92929 
L 327.719959 263.82465 
L 328.515878 261.16353 
L 328.543217 261.069515 
L 329.288751 258.50241 
L 330.049259 255.84129 
L 330.328817 254.87784 
L 330.823939 253.18017 
L 331.640739 250.51905 
L 332.150129 248.995045 
L 332.534238 247.85793 
L 333.533394 245.19681 
L 333.935729 244.242453 
L 334.66548 242.53569 
L 335.721329 240.336405 
L 335.946641 239.87457 
L 337.383945 237.21345 
L 337.506929 237.004749 
L 338.97508 234.55233 
L 339.328241 234.003434 
L 340.70856 231.89121 
L 341.113841 231.304064 
L 342.567317 229.23009 
L 342.899441 228.774905 
L 344.533232 226.56897 
L 344.685041 226.369836 
L 346.506353 224.015575 
L 346.590927 223.90785 
L 348.291953 221.786257 
L 349.094546 220.80321 
L 350.077553 219.616758 
L 351.322174 218.14209 
L 351.863153 217.507211 
L 353.626365 215.48097 
L 353.684465 215.414625 
L 355.470065 213.420249 
L 356.02155 212.81985 
L 357.255665 211.482016 
L 358.513217 210.15873 
L 359.041265 209.604323 
L 360.862577 207.75744 
L 361.128963 207.49761 
L 362.648177 206.019129 
L 363.919018 204.83649 
L 364.433777 204.35858 
L 366.219377 202.788429 
L 366.961052 202.17537 
L 368.040689 201.286701 
L 369.826289 199.921258 
L 370.407678 199.51425 
L 371.611889 198.676699 
L 373.397489 197.558475 
L 374.677068 196.85313 
L 375.218801 196.556725 
L 377.004401 195.738743 
L 378.790001 195.079619 
L 380.575601 194.598363 
L 382.396913 194.317371 
L 384.182513 194.281599 
L 385.968113 194.525829 
L 387.753713 195.103141 
L 389.575025 196.103532 
L 390.520552 196.85313 
L 391.360625 197.644254 
" clip-path="url(#pa6926aa3d6)" style="fill: none; stroke: #6aaed6; stroke-width: 1.5"/>
    <path d="M 391.360625 286.042965 
L 389.575025 287.877417 
L 389.212339 288.21825 
" clip-path="url(#pa6926aa3d6)" style="fill: none; stroke: #6aaed6; stroke-width: 1.5"/>
    <path d="M 391.360625 73.111742 
L 389.575025 76.10444 
L 386.246329 81.09441 
L 382.339462 86.41665 
L 375.218801 95.524521 
L 342.899441 136.143917 
L 339.328241 141.101661 
L 336.213852 145.84833 
L 333.935729 149.840651 
L 332.150129 153.424591 
L 331.956584 153.83169 
L 330.328817 157.799902 
L 328.907974 161.81505 
L 324.582868 175.12065 
L 323.150705 178.563789 
L 321.365105 182.222316 
L 319.579505 185.423654 
L 317.438073 188.86977 
L 313.745464 194.19201 
L 308.794481 200.749267 
L 301.616369 209.7912 
L 287.260145 227.492301 
L 249.583985 273.373746 
L 245.77988 277.57377 
L 242.405873 280.978496 
L 238.834673 284.196426 
L 237.013361 285.682618 
L 233.481497 288.21825 
L 233.481497 288.21825 
" clip-path="url(#pa6926aa3d6)" style="fill: none; stroke: #6aaed6; stroke-width: 1.5"/>
   </g>
   <g id="PathCollection_6">
    <path d="M 34.240625 197.489006 
L 34.47351 194.19201 
L 35.117747 188.86977 
L 36.026225 184.30728 
L 36.203334 183.54753 
L 36.960872 180.88641 
L 37.852025 178.22529 
L 39.633137 173.872538 
L 41.524869 169.79841 
L 45.418854 161.81505 
L 47.734998 156.49281 
L 49.692728 151.17057 
L 54.052598 137.86497 
L 55.774961 133.718966 
L 57.560561 130.032054 
L 57.86788 129.43809 
L 59.381873 126.764587 
L 62.804608 121.45473 
L 66.636961 116.13249 
L 72.812766 108.14913 
L 91.665521 84.661718 
L 120.377969 49.069334 
L 127.556081 40.498478 
L 132.218342 35.41185 
L 134.907573 32.75073 
L 138.341105 29.731438 
L 141.912305 27.043827 
L 145.543883 24.76737 
L 149.090417 23.00061 
L 151.147974 22.10625 
L 151.147974 22.10625 
" clip-path="url(#pa6926aa3d6)" style="fill: none; stroke: #4191c6; stroke-width: 1.5"/>
    <path d="M 159.783963 288.21825 
L 158.054129 286.964286 
L 156.268529 285.30792 
L 154.736981 282.89601 
L 153.955572 280.23489 
L 153.771975 277.57377 
L 153.981489 274.91265 
L 154.482929 272.073609 
L 155.76296 266.92929 
L 159.640707 253.18017 
L 161.443072 247.85793 
L 162.517533 245.19681 
L 163.727263 242.53569 
L 165.232241 239.625325 
L 167.053553 236.503059 
L 170.05965 231.89121 
L 174.231665 226.135565 
L 179.588465 219.221213 
L 188.587889 207.993182 
L 206.515313 185.848996 
L 242.405873 141.322199 
L 247.798385 134.426568 
L 251.533316 129.43809 
L 255.242608 124.11585 
L 256.937751 121.45473 
L 258.547697 118.709361 
L 260.369009 115.227575 
L 262.154609 111.283099 
L 263.38634 108.14913 
L 265.177996 102.82689 
L 267.747735 94.84353 
L 269.835 89.52129 
L 271.29714 86.41665 
L 272.903921 83.437572 
L 274.725233 80.413797 
L 277.823942 75.77217 
L 281.903345 70.223601 
L 287.986436 62.46657 
L 300.989476 46.49985 
L 307.008881 39.465001 
L 310.755719 35.41185 
L 314.186993 32.087903 
L 317.793905 29.02572 
L 319.908114 27.42849 
L 323.150705 25.339302 
L 324.972017 24.312039 
L 328.543217 22.608045 
L 329.739954 22.10625 
L 329.739954 22.10625 
" clip-path="url(#pa6926aa3d6)" style="fill: none; stroke: #4191c6; stroke-width: 1.5"/>
    <path d="M 218.223771 22.10625 
L 219.085937 22.600843 
L 222.177068 24.76737 
L 222.657137 25.237251 
L 224.605831 27.42849 
L 226.264049 30.51748 
L 226.981096 32.75073 
L 227.369843 35.41185 
L 227.358852 38.07297 
L 227.002518 40.73409 
L 226.264049 43.617889 
L 225.212607 46.49985 
L 223.980976 49.16097 
L 222.537787 51.82209 
L 220.871537 54.542384 
L 217.248282 59.80545 
L 211.907825 66.82273 
L 206.515313 73.588348 
L 161.578809 129.43809 
L 156.268529 136.458155 
L 153.391787 140.52609 
L 150.876017 144.422379 
L 149.090417 147.469222 
L 147.304817 150.879541 
L 147.157326 151.17057 
L 145.519217 154.872441 
L 143.88794 159.15393 
L 138.482206 175.12065 
L 136.519793 179.38417 
L 134.734193 182.712384 
L 132.621521 186.20865 
L 128.987016 191.53089 
L 123.984881 198.195317 
L 118.592369 205.045175 
L 99.060612 229.23009 
L 79.094897 253.501855 
L 72.429584 261.16353 
L 69.993263 263.82465 
L 66.559985 267.336122 
L 62.953073 270.638473 
L 60.988641 272.25153 
L 57.560561 274.636745 
L 55.774961 275.639272 
L 53.989361 276.475824 
L 52.203761 277.147254 
L 50.382449 277.629273 
L 48.596849 277.855009 
L 46.811249 277.846237 
L 45.025649 277.568351 
L 43.204337 276.875856 
L 41.418737 275.766899 
L 40.441928 274.91265 
L 39.633137 274.015681 
L 38.409367 272.25153 
L 37.847537 271.19018 
L 37.147409 269.59041 
L 36.026225 265.896471 
L 35.586586 263.82465 
L 34.857435 258.50241 
L 34.440869 253.18017 
L 34.240625 248.944971 
L 34.240625 248.944971 
" clip-path="url(#pa6926aa3d6)" style="fill: none; stroke: #4191c6; stroke-width: 1.5"/>
    <path d="M 338.524857 288.21825 
L 337.506929 287.54836 
L 335.721329 286.135701 
L 335.099796 285.55713 
L 333.935729 283.881957 
L 333.352665 282.89601 
L 332.555184 280.23489 
L 332.364074 277.57377 
L 332.578366 274.91265 
L 333.048122 272.25153 
L 333.664898 269.59041 
L 333.935729 268.565639 
L 334.369642 266.92929 
L 335.230295 263.82465 
L 335.721329 262.058927 
L 335.973843 261.16353 
L 336.726642 258.50241 
L 337.482552 255.84129 
L 337.506929 255.759242 
L 338.291337 253.18017 
L 339.152717 250.51905 
L 339.328241 250.027103 
L 340.123211 247.85793 
L 341.113841 245.423827 
L 341.208906 245.19681 
L 342.455835 242.53569 
L 342.899441 241.683238 
L 343.865083 239.87457 
L 344.685041 238.472772 
L 345.440255 237.21345 
L 346.506353 235.564838 
L 347.176599 234.55233 
L 348.291953 232.965929 
L 349.064014 231.89121 
L 350.077553 230.544457 
L 351.08743 229.23009 
L 351.863153 228.255618 
L 353.234814 226.56897 
L 353.684465 226.030608 
L 355.470065 223.941516 
L 355.499804 223.90785 
L 357.255665 221.97023 
L 358.336393 220.80321 
L 359.041265 220.057822 
L 360.862577 218.196623 
L 360.918866 218.14209 
L 362.648177 216.490398 
L 363.753795 215.48097 
L 364.433777 214.867144 
L 366.219377 213.357339 
L 366.909018 212.81985 
L 368.040689 211.945743 
L 369.826289 210.691519 
L 370.688314 210.15873 
L 371.611889 209.593124 
L 373.397489 208.674486 
L 375.218801 207.925836 
L 376.737465 207.49761 
L 377.004401 207.423163 
L 378.790001 207.210452 
L 380.575601 207.318848 
L 381.234167 207.49761 
L 382.396913 207.871095 
L 384.182513 208.985965 
L 385.374537 210.15873 
L 385.968113 210.878227 
L 387.145681 212.81985 
L 387.753713 214.091356 
L 388.289414 215.48097 
L 389.100255 218.14209 
L 389.575025 220.146871 
L 389.710246 220.80321 
L 390.21579 223.90785 
L 390.547396 226.56897 
L 390.806849 229.23009 
L 391.010013 231.89121 
L 391.168935 234.55233 
L 391.292497 237.21345 
L 391.360625 239.122879 
" clip-path="url(#pa6926aa3d6)" style="fill: none; stroke: #4191c6; stroke-width: 1.5"/>
    <path d="M 379.265777 22.10625 
L 380.575601 22.849025 
L 383.372089 24.76737 
L 384.182513 25.51377 
L 386.0083 27.42849 
L 387.784987 30.08961 
L 389.00478 32.75073 
L 389.857716 35.41185 
L 390.425442 38.07297 
L 390.790377 40.73409 
L 390.992308 43.39521 
L 391.055837 46.49985 
L 390.978218 49.16097 
L 390.782422 51.82209 
L 390.464165 54.48321 
L 389.575025 59.107328 
L 389.414213 59.80545 
L 388.640043 62.46657 
L 387.699608 65.12769 
L 385.968113 68.996031 
L 384.182513 72.348122 
L 382.396913 75.302948 
L 380.325605 78.43329 
L 376.47793 83.75553 
L 369.826289 92.332818 
L 346.441653 121.45473 
L 339.328241 130.462242 
L 335.721329 135.231148 
L 331.946397 140.52609 
L 328.543217 145.88313 
L 326.757617 149.108315 
L 324.972017 152.787575 
L 324.496015 153.83169 
L 322.439457 159.15393 
L 317.035012 175.12065 
L 315.659253 178.22529 
L 314.186993 181.123101 
L 312.401393 184.232896 
L 309.413976 188.86977 
L 305.223281 194.687393 
L 299.43458 202.17537 
L 284.460696 220.80321 
L 244.191473 270.155726 
L 239.820327 274.91265 
L 237.013361 277.682779 
L 233.442161 280.793202 
L 229.835249 283.470853 
L 226.264049 285.67802 
L 222.657137 287.452814 
L 220.890657 288.21825 
L 220.890657 288.21825 
" clip-path="url(#pa6926aa3d6)" style="fill: none; stroke: #4191c6; stroke-width: 1.5"/>
    <path d="M 391.360625 261.557351 
L 391.229495 263.82465 
L 390.941238 266.92929 
L 390.564099 269.59041 
L 390.023737 272.25153 
L 389.575025 273.842533 
L 389.25458 274.91265 
L 388.174841 277.57377 
L 387.753713 278.361405 
L 386.670149 280.23489 
L 385.968113 281.180967 
L 384.57151 282.89601 
L 384.182513 283.280456 
L 382.396913 284.879543 
L 381.550992 285.55713 
L 380.575601 286.207655 
L 378.790001 287.266797 
L 377.004401 288.196847 
L 376.958065 288.21825 
" clip-path="url(#pa6926aa3d6)" style="fill: none; stroke: #4191c6; stroke-width: 1.5"/>
   </g>
   <g id="PathCollection_7">
    <path d="M 43.110749 245.19681 
L 42.906548 242.53569 
L 42.74985 239.87457 
L 42.629461 237.21345 
L 42.536368 234.55233 
L 42.46375 231.89121 
L 42.406926 229.23009 
L 42.363014 226.56897 
L 42.330285 223.90785 
L 42.30454 220.80321 
L 42.291663 218.14209 
L 42.285959 215.48097 
L 42.286827 212.81985 
L 42.295119 210.15873 
L 42.313905 207.49761 
L 42.348907 204.83649 
L 42.408548 202.17537 
L 42.503722 199.51425 
L 42.647442 196.85313 
L 42.854457 194.19201 
L 43.14069 191.53089 
L 43.204337 191.090933 
L 43.544904 188.86977 
L 44.069301 186.20865 
L 44.718756 183.54753 
L 45.025649 182.510133 
L 45.527898 180.88641 
L 46.480008 178.22529 
L 46.811249 177.414849 
L 47.773156 175.12065 
L 48.596849 173.30341 
L 48.989313 172.45953 
L 50.271012 169.79841 
L 50.382449 169.570501 
L 51.593121 167.13729 
L 52.203761 165.869008 
L 52.885414 164.47617 
L 53.989361 162.076633 
L 54.111739 161.81505 
L 55.27715 159.15393 
L 55.774961 157.900072 
L 56.345942 156.49281 
L 57.320058 153.83169 
L 57.560561 153.115925 
L 58.234441 151.17057 
L 59.084306 148.50945 
L 59.381873 147.544672 
L 59.924921 145.84833 
L 60.774674 143.18721 
L 61.167473 142.012222 
L 61.683658 140.52609 
L 62.677288 137.86497 
L 62.953073 137.198343 
L 63.806208 135.20385 
L 64.738673 133.246495 
L 65.298032 132.09921 
L 66.559985 129.762046 
L 66.739112 129.43809 
L 68.333988 126.77697 
L 68.345585 126.759 
L 70.070175 124.11585 
L 70.131185 124.027368 
L 71.914976 121.45473 
L 71.916785 121.452233 
L 73.738097 118.951014 
L 73.85279 118.79361 
L 75.523697 116.578155 
L 75.858566 116.13249 
L 77.309297 114.256093 
L 77.912127 113.47137 
L 79.094897 111.968834 
L 79.999947 110.81025 
L 80.916209 109.660475 
L 82.109772 108.14913 
L 82.701809 107.412994 
L 84.233643 105.48801 
L 84.487409 105.173965 
L 86.273009 102.946522 
L 86.368651 102.82689 
L 88.094321 100.69487 
L 88.517416 100.16577 
L 89.879921 98.482159 
L 90.660983 97.50465 
L 91.665521 96.261665 
L 92.797408 94.84353 
L 93.451121 94.03408 
L 94.929472 92.18241 
L 95.272433 91.757741 
L 97.058033 89.52202 
L 97.058616 89.52129 
L 98.843633 87.332275 
L 99.571555 86.41665 
L 100.629233 85.113681 
L 101.71882 83.75553 
L 102.450545 82.854294 
L 103.862707 81.09441 
L 104.236145 80.634447 
L 106.001373 78.43329 
L 106.021745 78.408153 
L 107.807345 76.204066 
L 108.1531 75.77217 
L 109.628657 73.947166 
L 110.296427 73.11105 
L 111.414257 71.727748 
L 112.434058 70.44993 
L 113.199857 69.502567 
L 114.568601 67.78881 
L 114.985457 67.273991 
L 116.704161 65.12769 
L 116.806769 65.00119 
L 118.592369 62.795389 
L 118.856152 62.46657 
L 120.377969 60.597607 
L 121.014956 59.80545 
L 122.163569 58.397129 
L 123.173563 57.14433 
L 123.984881 56.150735 
L 125.331583 54.48321 
L 125.770481 53.947965 
L 127.495312 51.82209 
L 127.556081 51.748557 
L 129.341681 49.593064 
L 129.697096 49.16097 
L 131.162993 47.424314 
L 131.937997 46.49985 
L 132.948593 45.34495 
L 134.628526 43.39521 
L 134.734193 43.278886 
L 136.519793 41.343008 
L 137.083741 40.73409 
L 138.341105 39.457343 
L 139.714036 38.07297 
L 140.126705 37.686525 
L 141.912305 36.060771 
L 142.642049 35.41185 
L 143.697905 34.5568 
L 145.519217 33.130577 
L 146.026883 32.75073 
L 147.304817 31.895558 
L 149.090417 30.761068 
L 150.210186 30.08961 
L 150.876017 29.736949 
L 152.697329 28.846395 
L 154.482929 28.038127 
L 155.948509 27.42849 
L 156.268529 27.312153 
L 158.054129 26.728504 
L 159.875441 26.194223 
L 161.661041 25.727394 
L 163.446641 25.313937 
L 165.232241 24.950647 
L 166.270394 24.76737 
L 167.053553 24.647531 
L 168.839153 24.413873 
L 170.624753 24.21548 
L 172.410353 24.049078 
L 174.231665 23.909172 
L 176.017265 23.798488 
L 177.802865 23.711647 
L 179.588465 23.646701 
L 181.409777 23.601458 
L 183.195377 23.576666 
L 184.980977 23.570754 
L 186.766577 23.583791 
L 188.587889 23.617284 
L 190.373489 23.67121 
L 192.159089 23.74794 
L 193.944689 23.850065 
L 195.766001 23.983828 
L 197.551601 24.148124 
L 199.337201 24.350176 
L 201.122801 24.595759 
L 202.161425 24.76737 
L 202.944113 24.923753 
L 204.729713 25.349905 
L 206.515313 25.858922 
L 208.300913 26.464147 
L 210.122225 27.196581 
L 210.618309 27.42849 
L 211.907825 28.214379 
L 213.693425 29.498695 
L 214.400441 30.08961 
L 215.479025 31.387788 
L 216.451601 32.75073 
L 217.300337 34.794173 
L 217.524678 35.41185 
L 217.897491 38.07297 
L 217.760752 40.73409 
L 217.300337 42.961873 
L 217.208028 43.39521 
L 216.098066 46.49985 
L 215.479025 47.822882 
L 214.84062 49.16097 
L 213.693425 51.215605 
L 213.350336 51.82209 
L 211.907825 54.109229 
L 211.670209 54.48321 
L 210.122225 56.739791 
L 209.843907 57.14433 
L 208.300913 59.269149 
L 207.911962 59.80545 
L 206.515313 61.653318 
L 205.903775 62.46657 
L 204.729713 63.978236 
L 203.843592 65.12769 
L 202.944113 66.26408 
L 201.747524 67.78881 
L 201.122801 68.568438 
L 199.629897 70.44993 
L 199.337201 70.812108 
L 197.551601 73.04269 
L 197.497001 73.11105 
L 195.766001 75.244114 
L 195.342773 75.77217 
L 193.944689 77.495433 
L 193.193352 78.43329 
L 192.159089 79.708809 
L 191.050203 81.09441 
L 190.373489 81.93002 
L 188.913867 83.75553 
L 188.587889 84.158173 
L 186.780792 86.41665 
L 186.766577 86.434099 
L 184.980977 88.623606 
L 184.267139 89.52129 
L 183.195377 90.840961 
L 182.119609 92.18241 
L 181.409777 93.055439 
L 179.973167 94.84353 
L 179.588465 95.317034 
L 177.832061 97.50465 
L 177.802865 97.540619 
L 176.017265 99.742151 
L 175.677906 100.16577 
L 174.231665 101.951221 
L 173.531132 102.82689 
L 172.410353 104.214152 
L 171.393494 105.48801 
L 170.624753 106.439698 
L 169.260667 108.14913 
L 168.839153 108.67069 
L 167.130346 110.81025 
L 167.053553 110.90516 
L 165.232241 113.162216 
L 164.985121 113.47137 
L 163.446641 115.370575 
L 162.837315 116.13249 
L 161.661041 117.58682 
L 160.697466 118.79361 
L 159.875441 119.814437 
L 158.570666 121.45473 
L 158.054129 122.101461 
L 156.464657 124.11585 
L 156.268529 124.363924 
L 154.482929 126.642308 
L 154.378039 126.77697 
L 152.697329 128.938081 
L 152.313191 129.43809 
L 150.876017 131.324059 
L 150.292103 132.09921 
L 149.090417 133.711229 
L 148.003546 135.20385 
L 147.304817 136.185311 
L 146.120601 137.86497 
L 145.519217 138.753572 
L 144.328185 140.52609 
L 143.697905 141.521583 
L 142.64785 143.18721 
L 141.912305 144.447556 
L 141.095497 145.84833 
L 140.126705 147.678195 
L 139.684632 148.50945 
L 138.417766 151.17057 
L 138.341105 151.349635 
L 137.261445 153.83169 
L 136.519793 155.776691 
L 136.24026 156.49281 
L 135.299899 159.15393 
L 134.734193 160.908356 
L 134.432036 161.81505 
L 133.582688 164.47617 
L 132.948593 166.486789 
L 132.735391 167.13729 
L 131.822309 169.79841 
L 131.162993 171.592931 
L 130.832282 172.45953 
L 129.715028 175.12065 
L 129.341681 175.912147 
L 128.224359 178.22529 
L 127.556081 179.47236 
L 126.780369 180.88641 
L 125.770481 182.583881 
L 125.18713 183.54753 
L 123.984881 185.403561 
L 123.457169 186.20865 
L 122.163569 188.079759 
L 121.614011 188.86977 
L 120.377969 190.571672 
L 119.680753 191.53089 
L 118.592369 192.977574 
L 117.681297 194.19201 
L 116.806769 195.325181 
L 115.633313 196.85313 
L 114.985457 197.677607 
L 113.552044 199.51425 
L 113.199857 199.956241 
L 111.446985 202.17537 
L 111.414257 202.216073 
L 109.628657 204.435342 
L 109.308865 204.83649 
L 107.807345 206.69279 
L 107.163443 207.49761 
L 106.021745 208.905724 
L 105.017766 210.15873 
L 104.236145 211.122877 
L 102.87655 212.81985 
L 102.450545 213.345651 
L 100.739255 215.48097 
L 100.629233 215.616812 
L 98.843633 217.826124 
L 98.590329 218.14209 
L 97.058033 220.026832 
L 96.43402 220.80321 
L 95.272433 222.218225 
L 93.916274 223.90785 
L 93.451121 224.476079 
L 91.754613 226.56897 
L 91.665521 226.677396 
L 89.879921 228.849744 
L 89.569509 229.23009 
L 88.094321 231.014246 
L 87.375533 231.89121 
L 86.273009 233.222283 
L 85.179623 234.55233 
L 84.487409 235.384904 
L 82.977213 237.21345 
L 82.701809 237.543027 
L 80.916209 239.677942 
L 80.750493 239.87457 
L 79.094897 241.814394 
L 78.479188 242.53569 
L 77.309297 243.886102 
L 76.171235 245.19681 
L 75.523697 245.93151 
L 73.816537 247.85793 
L 73.738097 247.945181 
L 71.916785 249.912358 
L 71.344783 250.51905 
L 70.131185 251.787429 
L 68.772536 253.18017 
L 68.345585 253.611603 
L 66.559985 255.337315 
L 66.009041 255.84129 
L 64.738673 256.985339 
L 62.972372 258.50241 
L 62.953073 258.518656 
L 61.167473 259.84961 
L 59.381873 261.069767 
L 59.212374 261.16353 
L 57.560561 262.05071 
L 55.774961 262.793801 
L 53.989361 263.261314 
L 52.203761 263.364133 
L 50.382449 262.972862 
L 48.596849 261.950518 
L 47.791915 261.16353 
L 46.811249 259.911736 
L 46.039687 258.50241 
L 45.025649 256.020322 
L 44.968297 255.84129 
L 44.293845 253.18017 
L 43.783861 250.51905 
L 43.395989 247.85793 
L 43.204337 246.149246 
L 43.110749 245.19681 
z
" clip-path="url(#pa6926aa3d6)" style="fill: none; stroke: #2070b4; stroke-width: 1.5"/>
    <path d="M 164.663007 277.57377 
L 164.073351 274.91265 
L 164.013605 272.25153 
L 164.277553 269.59041 
L 164.728009 266.92929 
L 165.232241 264.545387 
L 165.387462 263.82465 
L 166.039105 261.16353 
L 166.719813 258.50241 
L 167.053553 257.27373 
L 167.457596 255.84129 
L 168.262471 253.18017 
L 168.839153 251.429493 
L 169.150785 250.51905 
L 170.163329 247.85793 
L 170.624753 246.772156 
L 171.316455 245.19681 
L 172.410353 242.944192 
L 172.614568 242.53569 
L 174.078638 239.87457 
L 174.231665 239.619384 
L 175.699212 237.21345 
L 176.017265 236.725766 
L 177.449718 234.55233 
L 177.802865 234.044332 
L 179.307412 231.89121 
L 179.588465 231.505546 
L 181.248885 229.23009 
L 181.409777 229.016621 
L 183.195377 226.646825 
L 183.254122 226.56897 
L 184.980977 224.342801 
L 185.316172 223.90785 
L 186.766577 222.082371 
L 187.763345 220.80321 
L 188.587889 219.771857 
L 189.879164 218.14209 
L 190.373489 217.528751 
L 192.006724 215.48097 
L 192.159089 215.292647 
L 193.944689 213.076126 
L 194.149818 212.81985 
L 195.766001 210.824202 
L 196.298536 210.15873 
L 197.551601 208.611125 
L 198.44198 207.49761 
L 199.337201 206.390992 
L 200.579398 204.83649 
L 201.122801 204.164869 
L 202.714229 202.17537 
L 202.944113 201.891507 
L 204.729713 199.671018 
L 204.855161 199.51425 
L 206.515313 197.471173 
L 207.011076 196.85313 
L 208.300913 195.269055 
L 209.167133 194.19201 
L 210.122225 193.019305 
L 211.31943 191.53089 
L 211.907825 190.808324 
L 213.465939 188.86977 
L 213.693425 188.589873 
L 215.479025 186.37442 
L 215.611945 186.20865 
L 217.300337 184.125026 
L 217.76228 183.54753 
L 219.085937 181.913137 
L 219.906642 180.88641 
L 220.871537 179.695275 
L 222.047341 178.22529 
L 222.657137 177.47812 
L 224.478449 175.197932 
L 224.539936 175.12065 
L 226.264049 172.999813 
L 226.697545 172.45953 
L 228.049649 170.79713 
L 228.851441 169.79841 
L 229.835249 168.587674 
L 230.999419 167.13729 
L 231.656561 166.326401 
L 233.138048 164.47617 
L 233.442161 164.100273 
L 235.227761 161.869317 
L 235.271093 161.81505 
L 237.013361 159.659094 
L 237.416622 159.15393 
L 238.834673 157.398043 
L 239.557114 156.49281 
L 240.620273 155.178559 
L 241.696574 153.83169 
L 242.405873 152.955786 
L 243.834102 151.17057 
L 244.191473 150.729142 
L 245.967872 148.50945 
L 246.012785 148.453792 
L 247.798385 146.238827 
L 248.109507 145.84833 
L 249.583985 144.0109 
L 250.236255 143.18721 
L 251.369585 141.761534 
L 252.339602 140.52609 
L 253.190897 139.440761 
L 254.412153 137.86497 
L 254.976497 137.133807 
L 256.448243 135.20385 
L 256.762097 134.789723 
L 258.547697 132.397816 
L 258.767923 132.09921 
L 260.369009 129.889065 
L 260.692488 129.43809 
L 262.154609 127.329028 
L 262.53397 126.77697 
L 263.940209 124.625343 
L 264.27113 124.11585 
L 265.725809 121.717049 
L 265.884588 121.45473 
L 267.368509 118.79361 
L 267.547121 118.439902 
L 268.720406 116.13249 
L 269.332721 114.774725 
L 269.928204 113.47137 
L 271.00171 110.81025 
L 271.118321 110.489801 
L 271.991126 108.14913 
L 272.876428 105.48801 
L 272.903921 105.400876 
L 273.744444 102.82689 
L 274.577591 100.16577 
L 274.725233 99.70742 
L 275.462602 97.50465 
L 276.396938 94.84353 
L 276.510833 94.549452 
L 277.460358 92.18241 
L 278.296433 90.281664 
L 278.641872 89.52129 
L 280.082033 86.673253 
L 280.214514 86.41665 
L 281.736428 83.75553 
L 281.903345 83.485745 
L 283.405162 81.09441 
L 283.688945 80.669754 
L 285.196296 78.43329 
L 285.474545 78.0404 
L 287.086374 75.77217 
L 287.260145 75.537071 
L 289.052918 73.11105 
L 289.081457 73.073603 
L 290.867057 70.73883 
L 291.087055 70.44993 
L 292.652657 68.448808 
L 293.165091 67.78881 
L 294.438257 66.187353 
L 295.273398 65.12769 
L 296.259569 63.900801 
L 297.401025 62.46657 
L 298.045169 61.671955 
L 299.541247 59.80545 
L 299.830769 59.450073 
L 301.616369 57.238325 
L 301.692112 57.14433 
L 303.437681 55.010706 
L 303.864194 54.48321 
L 305.223281 52.831235 
L 306.044027 51.82209 
L 307.008881 50.659804 
L 308.240814 49.16097 
L 308.794481 48.504558 
L 310.473486 46.49985 
L 310.615793 46.336535 
L 312.401393 44.303949 
L 313.190032 43.39521 
L 314.186993 42.309332 
L 315.63346 40.73409 
L 315.972593 40.385908 
L 317.793905 38.548845 
L 318.273155 38.07297 
L 319.579505 36.873236 
L 321.193839 35.41185 
L 321.365105 35.270037 
L 323.150705 33.858408 
L 324.594283 32.75073 
L 324.972017 32.490179 
L 326.757617 31.332298 
L 328.543217 30.229836 
L 328.787338 30.08961 
L 330.328817 29.310563 
L 332.150129 28.459664 
L 333.935729 27.69221 
L 334.612787 27.42849 
L 335.721329 27.052199 
L 337.506929 26.511219 
L 339.328241 26.022842 
L 341.113841 25.604224 
L 342.899441 25.243223 
L 344.685041 24.937949 
L 345.902488 24.76737 
L 346.506353 24.694064 
L 348.291953 24.524521 
L 350.077553 24.399698 
L 351.863153 24.318669 
L 353.684465 24.280813 
L 355.470065 24.288004 
L 357.255665 24.340225 
L 359.041265 24.43948 
L 360.862577 24.592204 
L 362.396283 24.76737 
L 362.648177 24.801586 
L 364.433777 25.11214 
L 366.219377 25.500064 
L 368.040689 25.98465 
L 369.826289 26.557574 
L 371.611889 27.239762 
L 372.036295 27.42849 
L 373.397489 28.182965 
L 375.218801 29.366488 
L 376.17931 30.08961 
L 377.004401 30.895193 
L 378.657045 32.75073 
L 378.790001 32.952095 
L 380.2284 35.41185 
L 380.575601 36.251603 
L 381.252654 38.07297 
L 381.913628 40.73409 
L 382.312585 43.39521 
L 382.396913 44.686224 
L 382.505465 46.49985 
L 382.488728 49.16097 
L 382.396913 50.641701 
L 382.319176 51.82209 
L 381.989905 54.48321 
L 381.506529 57.14433 
L 380.865125 59.80545 
L 380.575601 60.752492 
L 380.027512 62.46657 
L 379.007126 65.12769 
L 378.790001 65.608987 
L 377.775103 67.78881 
L 377.004401 69.257579 
L 376.363008 70.44993 
L 375.218801 72.383657 
L 374.780417 73.11105 
L 373.397489 75.243543 
L 373.050713 75.77217 
L 371.611889 77.843273 
L 371.200028 78.43329 
L 369.826289 80.316073 
L 369.258431 81.09441 
L 368.040689 82.706314 
L 367.250487 83.75553 
L 366.219377 85.087782 
L 365.19678 86.41665 
L 364.433777 87.378012 
L 362.76623 89.52129 
L 362.648177 89.668996 
L 360.862577 91.908033 
L 360.64506 92.18241 
L 359.041265 94.17228 
L 358.506164 94.84353 
L 357.255665 96.388886 
L 356.363681 97.50465 
L 355.470065 98.608427 
L 354.224672 100.16577 
L 353.684465 100.833764 
L 352.091208 102.82689 
L 351.863153 103.109434 
L 350.077553 105.337687 
L 349.957668 105.48801 
L 348.291953 107.550337 
L 347.814407 108.14913 
L 346.506353 109.767374 
L 345.673212 110.81025 
L 344.685041 112.031933 
L 343.534166 113.47137 
L 342.899441 114.255138 
L 341.397528 116.13249 
L 341.113841 116.48327 
L 339.328241 118.713451 
L 339.264219 118.79361 
L 337.506929 120.977422 
L 337.127715 121.45473 
L 335.721329 123.215114 
L 335.011178 124.11585 
L 333.935729 125.477027 
L 332.921797 126.77697 
L 332.150129 127.76807 
L 330.865057 129.43809 
L 330.328817 130.140685 
L 328.850606 132.09921 
L 328.543217 132.510811 
L 326.757617 134.939302 
L 326.565483 135.20385 
L 324.972017 137.448821 
L 324.679305 137.86497 
L 323.150705 140.134379 
L 322.888683 140.52609 
L 321.365105 142.942993 
L 321.211837 143.18721 
L 319.662452 145.84833 
L 319.579505 146.004061 
L 318.240385 148.50945 
L 317.793905 149.444566 
L 316.961214 151.17057 
L 315.972593 153.498632 
L 315.82865 153.83169 
L 314.792194 156.49281 
L 314.186993 158.240472 
L 313.861597 159.15393 
L 312.985531 161.81505 
L 312.401393 163.690485 
L 312.147576 164.47617 
L 311.286452 167.13729 
L 310.615793 169.144364 
L 310.388438 169.79841 
L 309.387215 172.45953 
L 308.794481 173.897016 
L 308.272061 175.12065 
L 307.008881 177.778124 
L 306.791322 178.22529 
L 305.350572 180.88641 
L 305.223281 181.101648 
L 303.751373 183.54753 
L 303.437681 184.034248 
L 302.019189 186.20865 
L 301.616369 186.793647 
L 300.177316 188.86977 
L 299.830769 189.348443 
L 298.248575 191.53089 
L 298.045169 191.801922 
L 296.259569 194.186172 
L 296.255179 194.19201 
L 294.438257 196.543596 
L 294.200427 196.85313 
L 292.652657 198.819138 
L 292.109848 199.51425 
L 290.867057 201.072488 
L 289.995746 202.17537 
L 289.081457 203.311794 
L 287.866823 204.83649 
L 287.260145 205.58731 
L 285.732765 207.49761 
L 285.474545 207.816431 
L 283.688945 210.039521 
L 283.593554 210.15873 
L 281.903345 212.245356 
L 281.443611 212.81985 
L 280.082033 214.503533 
L 279.301003 215.48097 
L 278.296433 216.722751 
L 277.162274 218.14209 
L 276.510833 218.946484 
L 275.02519 220.80321 
L 274.725233 221.170593 
L 272.903921 223.42373 
L 272.518307 223.90785 
L 271.118321 225.627659 
L 270.361945 226.56897 
L 269.332721 227.831959 
L 268.208158 229.23009 
L 267.547121 230.041671 
L 266.059346 231.89121 
L 265.725809 232.301676 
L 263.940209 234.524771 
L 263.918119 234.55233 
L 262.154609 236.726483 
L 261.764968 237.21345 
L 260.369009 238.936753 
L 259.618798 239.87457 
L 258.547697 241.197494 
L 257.477262 242.53569 
L 256.762097 243.41717 
L 255.335941 245.19681 
L 254.976497 245.638932 
L 253.194093 247.85793 
L 253.190897 247.861854 
L 251.369585 250.097692 
L 251.030512 250.51905 
L 249.583985 252.29085 
L 248.867018 253.18017 
L 247.798385 254.486918 
L 246.703942 255.84129 
L 246.012785 256.683418 
L 244.535075 258.50241 
L 244.191473 258.917972 
L 242.405873 261.092113 
L 242.347111 261.16353 
L 240.620273 263.205084 
L 240.100201 263.82465 
L 238.834673 265.267891 
L 237.399606 266.92929 
L 237.013361 267.353437 
L 235.227761 269.298116 
L 234.956298 269.59041 
L 233.442161 271.120492 
L 232.315772 272.25153 
L 231.656561 272.865576 
L 229.835249 274.522837 
L 229.393824 274.91265 
L 228.049649 275.992097 
L 226.264049 277.384704 
L 226.009173 277.57377 
L 224.478449 278.588046 
L 222.657137 279.735756 
L 221.813834 280.23489 
L 220.871537 280.726898 
L 219.085937 281.588816 
L 217.300337 282.386222 
L 216.05247 282.89601 
L 215.479025 283.100599 
L 213.693425 283.671857 
L 211.907825 284.183551 
L 210.122225 284.638341 
L 208.300913 285.046527 
L 206.515313 285.395094 
L 205.549524 285.55713 
L 204.729713 285.676268 
L 202.944113 285.895062 
L 201.122801 286.079909 
L 199.337201 286.226312 
L 197.551601 286.340608 
L 195.766001 286.424728 
L 193.944689 286.480939 
L 192.159089 286.507941 
L 190.373489 286.507397 
L 188.587889 286.478909 
L 186.766577 286.419888 
L 184.980977 286.330671 
L 183.195377 286.207557 
L 181.409777 286.046723 
L 179.588465 285.838694 
L 177.802865 285.585324 
L 177.637714 285.55713 
L 176.017265 285.212175 
L 174.231665 284.746573 
L 172.410353 284.165012 
L 170.624753 283.468586 
L 169.404013 282.89601 
L 168.839153 282.524626 
L 167.053553 281.101179 
L 166.164614 280.23489 
L 165.232241 278.703377 
L 164.663007 277.57377 
z
" clip-path="url(#pa6926aa3d6)" style="fill: none; stroke: #2070b4; stroke-width: 1.5"/>
    <path d="M 342.880531 274.91265 
L 342.806134 272.25153 
L 342.899441 271.296835 
L 343.069891 269.59041 
L 343.543568 266.92929 
L 344.22744 263.82465 
L 344.685041 261.950137 
L 344.88559 261.16353 
L 345.614128 258.50241 
L 346.372965 255.84129 
L 346.506353 255.410496 
L 347.234865 253.18017 
L 348.172822 250.51905 
L 348.291953 250.217696 
L 349.276064 247.85793 
L 350.077553 246.120267 
L 350.527593 245.19681 
L 351.863153 242.717118 
L 351.966532 242.53569 
L 353.629005 239.87457 
L 353.684465 239.79282 
L 355.470065 237.28486 
L 355.523845 237.21345 
L 357.255665 235.05757 
L 357.684241 234.55233 
L 359.041265 233.032944 
L 360.121645 231.89121 
L 360.862577 231.138661 
L 362.648177 229.448408 
L 362.905885 229.23009 
L 364.433777 227.977814 
L 366.219377 226.645829 
L 366.346023 226.56897 
L 368.040689 225.567831 
L 369.826289 224.732402 
L 371.611889 224.181353 
L 373.397489 224.012867 
L 375.218801 224.372393 
L 377.004401 225.425635 
L 378.081599 226.56897 
L 378.790001 227.544314 
L 379.642306 229.23009 
L 380.575601 231.693589 
L 380.634216 231.89121 
L 381.263264 234.55233 
L 381.740426 237.21345 
L 382.101664 239.87457 
L 382.372538 242.53569 
L 382.396913 242.855277 
L 382.554596 245.19681 
L 382.683152 247.85793 
L 382.768462 250.51905 
L 382.814232 253.18017 
L 382.8189 255.84129 
L 382.774295 258.50241 
L 382.66444 261.16353 
L 382.464583 263.82465 
L 382.396913 264.358882 
L 382.041862 266.92929 
L 381.468543 269.59041 
L 380.638915 272.25153 
L 380.575601 272.39746 
L 379.367532 274.91265 
L 378.790001 275.800843 
L 377.498226 277.57377 
L 377.004401 278.090566 
L 375.218801 279.738917 
L 374.602231 280.23489 
L 373.397489 280.997932 
L 371.611889 281.968955 
L 369.826289 282.791473 
L 369.553503 282.89601 
L 368.040689 283.367553 
L 366.219377 283.824216 
L 364.433777 284.168801 
L 362.648177 284.415387 
L 360.862577 284.566215 
L 359.041265 284.621648 
L 357.255665 284.577465 
L 355.470065 284.431128 
L 353.684465 284.17509 
L 351.863153 283.789424 
L 350.077553 283.273647 
L 349.059312 282.89601 
L 348.291953 282.501498 
L 346.506353 281.331016 
L 345.197062 280.23489 
L 344.685041 279.529741 
L 343.545651 277.57377 
L 342.899441 275.002947 
L 342.880531 274.91265 
z
" clip-path="url(#pa6926aa3d6)" style="fill: none; stroke: #2070b4; stroke-width: 1.5"/>
   </g>
   <g id="PathCollection_8">
    <path d="M 55.705131 218.14209 
L 55.570207 215.48097 
L 55.473712 212.81985 
L 55.407927 210.15873 
L 55.370186 207.49761 
L 55.363044 204.83649 
L 55.393661 202.17537 
L 55.47261 199.51425 
L 55.612551 196.85313 
L 55.774961 194.846072 
L 55.834003 194.19201 
L 56.175863 191.53089 
L 56.628617 188.86977 
L 57.199966 186.20865 
L 57.560561 184.845799 
L 57.932116 183.54753 
L 58.826514 180.88641 
L 59.381873 179.420783 
L 59.861469 178.22529 
L 61.167473 175.220862 
L 61.212503 175.12065 
L 62.496491 172.45953 
L 62.953073 171.512225 
L 63.805789 169.79841 
L 64.738673 167.849733 
L 65.090753 167.13729 
L 66.332838 164.47617 
L 66.559985 163.952048 
L 67.520176 161.81505 
L 68.345585 159.749282 
L 68.593624 159.15393 
L 69.605574 156.49281 
L 70.131185 154.944308 
L 70.529995 153.83169 
L 71.408421 151.17057 
L 71.916785 149.523633 
L 72.250955 148.50945 
L 73.114099 145.84833 
L 73.738097 143.936698 
L 73.999458 143.18721 
L 74.988424 140.52609 
L 75.523697 139.192105 
L 76.085951 137.86497 
L 77.30666 135.20385 
L 77.309297 135.198816 
L 78.968151 132.09921 
L 79.094897 131.883817 
L 80.569526 129.43809 
L 80.916209 128.90053 
L 82.305259 126.77697 
L 82.701809 126.2047 
L 84.155064 124.11585 
L 84.487409 123.660178 
L 86.090627 121.45473 
L 86.273009 121.213512 
L 88.088455 118.79361 
L 88.094321 118.786038 
L 89.879921 116.49057 
L 90.154594 116.13249 
L 91.665521 114.224386 
L 92.251638 113.47137 
L 93.451121 111.975868 
L 94.369347 110.81025 
L 95.272433 109.693066 
L 96.496712 108.14913 
L 97.058033 107.459029 
L 98.627841 105.48801 
L 98.843633 105.223117 
L 100.629233 103.002379 
L 100.769296 102.82689 
L 102.450545 100.759982 
L 102.923703 100.16577 
L 104.236145 98.550403 
L 105.06721 97.50465 
L 106.021745 96.327926 
L 107.199945 94.84353 
L 107.807345 94.094859 
L 109.327583 92.18241 
L 109.628657 91.8116 
L 111.414257 89.572791 
L 111.45521 89.52129 
L 113.199857 87.406715 
L 113.980833 86.41665 
L 114.985457 85.187157 
L 116.130684 83.75553 
L 116.806769 82.926995 
L 118.271022 81.09441 
L 118.592369 80.700243 
L 120.377969 78.465036 
L 120.403277 78.43329 
L 122.163569 76.269274 
L 122.559357 75.77217 
L 123.984881 74.014228 
L 124.702064 73.11105 
L 125.770481 71.794956 
L 126.838879 70.44993 
L 127.556081 69.568364 
L 128.973017 67.78881 
L 129.341681 67.337296 
L 131.109619 65.12769 
L 131.162993 65.062521 
L 132.948593 62.880987 
L 133.281456 62.46657 
L 134.734193 60.706421 
L 135.4618 59.80545 
L 136.519793 58.531601 
L 137.649504 57.14433 
L 138.341105 56.319502 
L 139.85298 54.48321 
L 140.126705 54.163249 
L 141.912305 52.063135 
L 142.116963 51.82209 
L 143.697905 50.061037 
L 144.494776 49.16097 
L 145.519217 48.082861 
L 147.008508 46.49985 
L 147.304817 46.216956 
L 149.090417 44.55555 
L 150.322105 43.39521 
L 150.876017 42.941913 
L 152.697329 41.506074 
L 153.702556 40.73409 
L 154.482929 40.221861 
L 156.268529 39.115651 
L 158.017494 38.07297 
L 158.054129 38.054776 
L 159.875441 37.240317 
L 161.661041 36.502396 
L 163.446641 35.827513 
L 164.674879 35.41185 
L 165.232241 35.260182 
L 167.053553 34.831491 
L 168.839153 34.46813 
L 170.624753 34.158994 
L 172.410353 33.901709 
L 174.231665 33.690202 
L 176.017265 33.530528 
L 177.802865 33.416296 
L 179.588465 33.34643 
L 181.409777 33.320696 
L 183.195377 33.341085 
L 184.980977 33.408975 
L 186.766577 33.528269 
L 188.587889 33.708863 
L 190.373489 33.951683 
L 192.159089 34.270048 
L 193.944689 34.677234 
L 195.766001 35.201432 
L 196.36015 35.41185 
L 197.551601 36.042693 
L 199.337201 37.235761 
L 200.339908 38.07297 
L 201.122801 39.330957 
L 201.815332 40.73409 
L 202.083808 43.39521 
L 201.475772 46.49985 
L 201.122801 47.379435 
L 200.395114 49.16097 
L 199.337201 51.15735 
L 198.982521 51.82209 
L 197.551601 54.112943 
L 197.320624 54.48321 
L 195.766001 56.732556 
L 195.483268 57.14433 
L 193.944689 59.23639 
L 193.530886 59.80545 
L 192.159089 61.594802 
L 191.501256 62.46657 
L 190.373489 63.899342 
L 189.424051 65.12769 
L 188.587889 66.171872 
L 187.317038 67.78881 
L 186.766577 68.469792 
L 185.197142 70.44993 
L 184.980977 70.715698 
L 183.195377 72.940388 
L 183.059555 73.11105 
L 181.409777 75.136157 
L 180.902625 75.77217 
L 179.588465 77.38957 
L 178.758203 78.43329 
L 177.802865 79.609991 
L 176.62386 81.09441 
L 176.017265 81.842102 
L 174.498105 83.75553 
L 174.231665 84.083598 
L 172.410353 86.366888 
L 172.370822 86.41665 
L 170.624753 88.535386 
L 169.847909 89.52129 
L 168.839153 90.756482 
L 167.700286 92.18241 
L 167.053553 92.973778 
L 165.557403 94.84353 
L 165.232241 95.242353 
L 163.446641 97.475477 
L 163.42336 97.50465 
L 161.661041 99.668499 
L 161.265131 100.16577 
L 159.875441 101.876901 
L 159.120042 102.82689 
L 158.054129 104.142834 
L 156.986904 105.48801 
L 156.268529 106.373672 
L 154.859209 108.14913 
L 154.482929 108.612372 
L 152.735602 110.81025 
L 152.697329 110.857316 
L 150.876017 113.104156 
L 150.583967 113.47137 
L 149.090417 115.309346 
L 148.436434 116.13249 
L 147.304817 117.531699 
L 146.306626 118.79361 
L 145.519217 119.775824 
L 144.200552 121.45473 
L 143.697905 122.090473 
L 142.127518 124.11585 
L 141.912305 124.392264 
L 140.126705 126.724904 
L 140.087074 126.77697 
L 138.341105 129.07445 
L 138.069453 129.43809 
L 136.519793 131.537002 
L 136.110764 132.09921 
L 134.734193 134.015941 
L 133.908861 135.20385 
L 132.948593 136.628434 
L 132.121232 137.86497 
L 131.162993 139.381234 
L 130.43968 140.52609 
L 129.341681 142.411274 
L 128.886432 143.18721 
L 127.556081 145.696748 
L 127.474495 145.84833 
L 126.168177 148.50945 
L 125.770481 149.431997 
L 124.995939 151.17057 
L 123.984881 153.793606 
L 123.969527 153.83169 
L 122.983592 156.49281 
L 122.163569 159.013066 
L 122.114903 159.15393 
L 121.231544 161.81505 
L 120.396827 164.47617 
L 120.377969 164.5338 
L 119.47035 167.13729 
L 118.592369 169.587525 
L 118.512034 169.79841 
L 117.395421 172.45953 
L 116.806769 173.749698 
L 116.151169 175.12065 
L 114.985457 177.329574 
L 114.502189 178.22529 
L 113.199857 180.421998 
L 112.918087 180.88641 
L 111.414257 183.200661 
L 111.18598 183.54753 
L 109.628657 185.782673 
L 109.330455 186.20865 
L 107.807345 188.289457 
L 107.383663 188.86977 
L 106.021745 190.663538 
L 105.369244 191.53089 
L 104.236145 192.986237 
L 103.309533 194.19201 
L 102.450545 195.275034 
L 101.216952 196.85313 
L 100.629233 197.584556 
L 99.103511 199.51425 
L 98.843633 199.833966 
L 97.058033 202.058813 
L 96.964671 202.17537 
L 95.272433 204.233467 
L 94.785244 204.83649 
L 93.451121 206.453371 
L 92.603962 207.49761 
L 91.665521 208.630389 
L 90.420678 210.15873 
L 89.879921 210.809594 
L 88.235279 212.81985 
L 88.094321 212.988698 
L 86.273009 215.163648 
L 86.007515 215.48097 
L 84.487409 217.256819 
L 83.736231 218.14209 
L 82.701809 219.331861 
L 81.429819 220.80321 
L 80.916209 221.376199 
L 79.094897 223.404767 
L 78.636565 223.90785 
L 77.309297 225.312545 
L 76.110193 226.56897 
L 75.523697 227.169607 
L 73.738097 228.935458 
L 73.416121 229.23009 
L 71.916785 230.575557 
L 70.378058 231.89121 
L 70.131185 232.097943 
L 68.345585 233.370611 
L 66.559985 234.479196 
L 66.380017 234.55233 
L 64.738673 235.205609 
L 62.953073 235.494263 
L 61.167473 235.153479 
L 60.269047 234.55233 
L 59.381873 233.737537 
L 58.29446 231.89121 
L 57.560561 230.131255 
L 57.296011 229.23009 
L 56.703411 226.56897 
L 56.270457 223.90785 
L 55.910747 220.80321 
L 55.774961 219.15674 
L 55.705131 218.14209 
z
" clip-path="url(#pa6926aa3d6)" style="fill: none; stroke: #08509b; stroke-width: 1.5"/>
    <path d="M 179.453449 266.92929 
L 179.410991 263.82465 
L 179.588465 262.144983 
L 179.698981 261.16353 
L 180.208518 258.50241 
L 180.852189 255.84129 
L 181.409777 253.890262 
L 181.626362 253.18017 
L 182.574757 250.51905 
L 183.195377 248.973455 
L 183.667069 247.85793 
L 184.918814 245.19681 
L 184.980977 245.079785 
L 186.376382 242.53569 
L 186.766577 241.881061 
L 187.989869 239.87457 
L 188.587889 238.957946 
L 189.740328 237.21345 
L 190.373489 236.30808 
L 191.604505 234.55233 
L 192.159089 233.79711 
L 193.552414 231.89121 
L 193.944689 231.374931 
L 195.560286 229.23009 
L 195.766001 228.965496 
L 197.551601 226.648161 
L 197.612511 226.56897 
L 199.337201 224.396494 
L 199.718327 223.90785 
L 201.122801 222.180516 
L 202.198628 220.80321 
L 202.944113 219.882938 
L 204.327186 218.14209 
L 204.729713 217.647683 
L 206.456955 215.48097 
L 206.515313 215.409335 
L 208.300913 213.211044 
L 208.613129 212.81985 
L 210.122225 210.963633 
L 210.762904 210.15873 
L 211.907825 208.749038 
L 212.90212 207.49761 
L 213.693425 206.522356 
L 215.032001 204.83649 
L 215.479025 204.286036 
L 217.158496 202.17537 
L 217.300337 202.00093 
L 219.085937 199.788424 
L 219.304252 199.51425 
L 220.871537 197.595107 
L 221.463904 196.85313 
L 222.657137 195.394034 
L 223.619224 194.19201 
L 224.478449 193.139554 
L 225.764069 191.53089 
L 226.264049 190.917749 
L 227.897595 188.86977 
L 228.049649 188.682777 
L 229.835249 186.465787 
L 230.039934 186.20865 
L 231.656561 184.215168 
L 232.186619 183.54753 
L 233.442161 182.001075 
L 234.327409 180.88641 
L 235.227761 179.779442 
L 236.464483 178.22529 
L 237.013361 177.559623 
L 238.834673 175.271585 
L 238.953726 175.12065 
L 240.620273 173.082339 
L 241.118047 172.45953 
L 242.405873 170.883991 
L 243.273482 169.79841 
L 244.191473 168.673025 
L 245.418148 167.13729 
L 246.012785 166.405486 
L 247.548641 164.47617 
L 247.798385 164.168509 
L 249.583985 161.934416 
L 249.678831 161.81505 
L 251.369585 159.733183 
L 251.830401 159.15393 
L 253.190897 157.479089 
L 253.975888 156.49281 
L 254.976497 155.264642 
L 256.119225 153.83169 
L 256.762097 153.043014 
L 258.256237 151.17057 
L 258.547697 150.812134 
L 260.369009 148.529238 
L 260.384773 148.50945 
L 262.154609 146.321003 
L 262.528763 145.84833 
L 263.940209 144.083537 
L 264.642393 143.18721 
L 265.725809 141.811897 
L 266.720107 140.52609 
L 267.547121 139.454579 
L 268.753094 137.86497 
L 269.332721 137.096319 
L 270.736349 135.20385 
L 271.118321 134.685143 
L 272.903921 132.183556 
L 272.963651 132.09921 
L 274.725233 129.54662 
L 274.799504 129.43809 
L 276.510833 126.810028 
L 276.532267 126.77697 
L 278.157141 124.11585 
L 278.296433 123.866667 
L 279.656901 121.45473 
L 280.082033 120.611834 
L 281.017176 118.79361 
L 281.903345 116.823773 
L 282.223806 116.13249 
L 283.323181 113.47137 
L 283.688945 112.470262 
L 284.324322 110.81025 
L 285.228128 108.14913 
L 285.474545 107.369286 
L 286.10571 105.48801 
L 286.946932 102.82689 
L 287.260145 101.838878 
L 287.826531 100.16577 
L 288.752043 97.50465 
L 289.081457 96.628658 
L 289.793249 94.84353 
L 290.867057 92.337666 
L 290.937034 92.18241 
L 292.27186 89.52129 
L 292.652657 88.837047 
L 294.020111 86.41665 
L 294.438257 85.740279 
L 295.688924 83.75553 
L 296.259569 82.904044 
L 297.483757 81.09441 
L 298.045169 80.30685 
L 299.380732 78.43329 
L 299.830769 77.828625 
L 301.351494 75.77217 
L 301.616369 75.426919 
L 303.375163 73.11105 
L 303.437681 73.031235 
L 305.223281 70.751635 
L 305.456782 70.44993 
L 307.008881 68.507111 
L 307.572313 67.78881 
L 308.794481 66.277458 
L 309.707079 65.12769 
L 310.615793 64.013236 
L 311.852738 62.46657 
L 312.401393 61.799435 
L 314.007913 59.80545 
L 314.186993 59.589298 
L 315.972593 57.418578 
L 316.196303 57.14433 
L 317.793905 55.246269 
L 318.424558 54.48321 
L 319.579505 53.141795 
L 320.696381 51.82209 
L 321.365105 51.072498 
L 323.046388 49.16097 
L 323.150705 49.050209 
L 324.972017 47.155756 
L 325.600594 46.49985 
L 326.757617 45.421872 
L 328.543217 43.743626 
L 328.925008 43.39521 
L 330.328817 42.28999 
L 332.150129 40.87568 
L 332.344545 40.73409 
L 333.935729 39.750062 
L 335.721329 38.697812 
L 336.86178 38.07297 
L 337.506929 37.780178 
L 339.328241 37.044351 
L 341.113841 36.400285 
L 342.899441 35.839369 
L 344.522807 35.41185 
L 344.685041 35.377595 
L 346.506353 35.081462 
L 348.291953 34.873603 
L 350.077553 34.750635 
L 351.863153 34.716461 
L 353.684465 34.77815 
L 355.470065 34.939572 
L 357.255665 35.208788 
L 358.19909 35.41185 
L 359.041265 35.655555 
L 360.862577 36.358561 
L 362.648177 37.24533 
L 363.988963 38.07297 
L 364.433777 38.46047 
L 366.219377 40.350524 
L 366.5224 40.73409 
L 367.914853 43.39521 
L 368.040689 43.814281 
L 368.72562 46.49985 
L 369.004529 49.16097 
L 368.99051 51.82209 
L 368.731579 54.48321 
L 368.25942 57.14433 
L 368.040689 57.998137 
L 367.540595 59.80545 
L 366.611856 62.46657 
L 366.219377 63.397403 
L 365.450677 65.12769 
L 364.433777 67.140054 
L 364.093281 67.78881 
L 362.648177 70.274843 
L 362.543842 70.44993 
L 360.862577 73.05403 
L 360.82524 73.11105 
L 359.041265 75.676148 
L 358.974201 75.77217 
L 357.255665 78.114696 
L 357.023033 78.43329 
L 355.470065 80.476218 
L 355.004987 81.09441 
L 353.684465 82.78948 
L 352.941794 83.75553 
L 351.863153 85.117559 
L 350.850698 86.41665 
L 350.077553 87.368491 
L 348.398133 89.52129 
L 348.291953 89.652301 
L 346.506353 91.867353 
L 346.255753 92.18241 
L 344.685041 94.112337 
L 344.10216 94.84353 
L 342.899441 96.318939 
L 341.953851 97.50465 
L 341.113841 98.536827 
L 339.816617 100.16577 
L 339.328241 100.767144 
L 337.689 102.82689 
L 337.506929 103.051577 
L 335.721329 105.277082 
L 335.553788 105.48801 
L 333.935729 107.479402 
L 333.40322 108.14913 
L 332.150129 109.688514 
L 331.255438 110.81025 
L 330.328817 111.94822 
L 329.113446 113.47137 
L 328.543217 114.171427 
L 326.979421 116.13249 
L 326.757617 116.405977 
L 324.972017 118.63763 
L 324.847947 118.79361 
L 323.150705 120.9053 
L 322.717834 121.45473 
L 321.365105 123.15816 
L 320.619832 124.11585 
L 319.579505 125.44862 
L 318.562228 126.77697 
L 317.793905 127.782857 
L 316.550164 129.43809 
L 315.972593 130.216492 
L 314.595451 132.09921 
L 314.186993 132.665277 
L 312.415125 135.20385 
L 312.401393 135.224135 
L 310.627502 137.86497 
L 310.615793 137.883426 
L 308.940947 140.52609 
L 308.794481 140.776737 
L 307.377238 143.18721 
L 307.008881 143.880447 
L 305.948847 145.84833 
L 305.223281 147.3705 
L 304.667411 148.50945 
L 303.528904 151.17057 
L 303.437681 151.407386 
L 302.463079 153.83169 
L 301.616369 156.270845 
L 301.535128 156.49281 
L 300.626028 159.15393 
L 299.830769 161.714594 
L 299.797532 161.81505 
L 298.916398 164.47617 
L 298.046407 167.13729 
L 298.045169 167.140771 
L 297.042011 169.79841 
L 296.259569 171.748787 
L 295.958131 172.45953 
L 294.717646 175.12065 
L 294.438257 175.654143 
L 293.061367 178.22529 
L 292.652657 178.919326 
L 291.467088 180.88641 
L 290.867057 181.815217 
L 289.733377 183.54753 
L 289.081457 184.487852 
L 287.882446 186.20865 
L 287.260145 187.062379 
L 285.945764 188.86977 
L 285.474545 189.492741 
L 283.946734 191.53089 
L 283.688945 191.863203 
L 281.905813 194.19201 
L 281.903345 194.195134 
L 280.082033 196.497648 
L 279.805317 196.85313 
L 278.296433 198.73392 
L 277.682343 199.51425 
L 276.510833 200.961535 
L 275.548215 202.17537 
L 274.725233 203.186899 
L 273.409839 204.83649 
L 272.903921 205.45801 
L 271.27716 207.49761 
L 271.118321 207.69273 
L 269.332721 209.907421 
L 269.132579 210.15873 
L 267.547121 212.109407 
L 266.981798 212.81985 
L 265.725809 214.369222 
L 264.843182 215.48097 
L 263.940209 216.59332 
L 262.710006 218.14209 
L 262.154609 218.824917 
L 260.57995 220.80321 
L 260.369009 221.059027 
L 258.547697 223.297596 
L 258.066175 223.90785 
L 256.762097 225.502607 
L 255.909628 226.56897 
L 254.976497 227.710386 
L 253.761716 229.23009 
L 253.190897 229.929753 
L 251.624011 231.89121 
L 251.369585 232.204269 
L 249.583985 234.434827 
L 249.49051 234.55233 
L 247.798385 236.63557 
L 247.339396 237.21345 
L 246.012785 238.846768 
L 245.195276 239.87457 
L 244.191473 241.109165 
L 243.05535 242.53569 
L 242.405873 243.330697 
L 240.913918 245.19681 
L 240.620273 245.554761 
L 238.834673 247.769018 
L 238.763144 247.85793 
L 237.013361 249.978671 
L 236.576648 250.51905 
L 235.227761 252.141333 
L 234.381809 253.18017 
L 233.442161 254.297939 
L 232.169537 255.84129 
L 231.656561 256.43965 
L 229.916287 258.50241 
L 229.835249 258.593932 
L 228.049649 260.583778 
L 227.534546 261.16353 
L 226.264049 262.491785 
L 225.002553 263.82465 
L 224.478449 264.321307 
L 222.657137 266.01882 
L 221.679963 266.92929 
L 220.871537 267.582347 
L 219.085937 268.981247 
L 218.279331 269.59041 
L 217.300337 270.221383 
L 215.479025 271.33023 
L 213.889576 272.25153 
L 213.693425 272.346093 
L 211.907825 273.117812 
L 210.122225 273.823838 
L 208.300913 274.471868 
L 206.888694 274.91265 
L 206.515313 275.006262 
L 204.729713 275.380177 
L 202.944113 275.688045 
L 201.122801 275.933822 
L 199.337201 276.107361 
L 197.551601 276.213004 
L 195.766001 276.248589 
L 193.944689 276.208944 
L 192.159089 276.089922 
L 190.373489 275.883287 
L 188.587889 275.577502 
L 186.766577 275.146995 
L 186.005959 274.91265 
L 184.980977 274.451084 
L 183.195377 273.398984 
L 181.710624 272.25153 
L 181.409777 271.854812 
L 180.077868 269.59041 
L 179.588465 267.610807 
L 179.453449 266.92929 
z
" clip-path="url(#pa6926aa3d6)" style="fill: none; stroke: #08509b; stroke-width: 1.5"/>
   </g>
   <g id="PathCollection_9"/>
   <g id="patch_3">
    <path d="M 34.240625 288.21825 
L 34.240625 22.10625 
" style="fill: none; stroke: #000000; stroke-width: 0.8; stroke-linejoin: miter; stroke-linecap: square"/>
   </g>
   <g id="patch_4">
    <path d="M 391.360625 288.21825 
L 391.360625 22.10625 
" style="fill: none; stroke: #000000; stroke-width: 0.8; stroke-linejoin: miter; stroke-linecap: square"/>
   </g>
   <g id="patch_5">
    <path d="M 34.240625 288.21825 
L 391.360625 288.21825 
" style="fill: none; stroke: #000000; stroke-width: 0.8; stroke-linejoin: miter; stroke-linecap: square"/>
   </g>
   <g id="patch_6">
    <path d="M 34.240625 22.10625 
L 391.360625 22.10625 
" style="fill: none; stroke: #000000; stroke-width: 0.8; stroke-linejoin: miter; stroke-linecap: square"/>
   </g>
   <g id="text_16">
    <!-- 9.5_cross_22.0 -->
    <g transform="translate(168.34625 16.10625)scale(0.12 -0.12)">
     <defs>
      <path id="DejaVuSans-39" d="M 703 97 
L 703 672 
Q 941 559 1184 500 
Q 1428 441 1663 441 
Q 2288 441 2617 861 
Q 2947 1281 2994 2138 
Q 2813 1869 2534 1725 
Q 2256 1581 1919 1581 
Q 1219 1581 811 2004 
Q 403 2428 403 3163 
Q 403 3881 828 4315 
Q 1253 4750 1959 4750 
Q 2769 4750 3195 4129 
Q 3622 3509 3622 2328 
Q 3622 1225 3098 567 
Q 2575 -91 1691 -91 
Q 1453 -91 1209 -44 
Q 966 3 703 97 
z
M 1959 2075 
Q 2384 2075 2632 2365 
Q 2881 2656 2881 3163 
Q 2881 3666 2632 3958 
Q 2384 4250 1959 4250 
Q 1534 4250 1286 3958 
Q 1038 3666 1038 3163 
Q 1038 2656 1286 2365 
Q 1534 2075 1959 2075 
z
" transform="scale(0.015625)"/>
      <path id="DejaVuSans-2e" d="M 684 794 
L 1344 794 
L 1344 0 
L 684 0 
L 684 794 
z
" transform="scale(0.015625)"/>
      <path id="DejaVuSans-5f" d="M 3263 -1063 
L 3263 -1509 
L -63 -1509 
L -63 -1063 
L 3263 -1063 
z
" transform="scale(0.015625)"/>
      <path id="DejaVuSans-63" d="M 3122 3366 
L 3122 2828 
Q 2878 2963 2633 3030 
Q 2388 3097 2138 3097 
Q 1578 3097 1268 2742 
Q 959 2388 959 1747 
Q 959 1106 1268 751 
Q 1578 397 2138 397 
Q 2388 397 2633 464 
Q 2878 531 3122 666 
L 3122 134 
Q 2881 22 2623 -34 
Q 2366 -91 2075 -91 
Q 1284 -91 818 406 
Q 353 903 353 1747 
Q 353 2603 823 3093 
Q 1294 3584 2113 3584 
Q 2378 3584 2631 3529 
Q 2884 3475 3122 3366 
z
" transform="scale(0.015625)"/>
      <path id="DejaVuSans-72" d="M 2631 2963 
Q 2534 3019 2420 3045 
Q 2306 3072 2169 3072 
Q 1681 3072 1420 2755 
Q 1159 2438 1159 1844 
L 1159 0 
L 581 0 
L 581 3500 
L 1159 3500 
L 1159 2956 
Q 1341 3275 1631 3429 
Q 1922 3584 2338 3584 
Q 2397 3584 2469 3576 
Q 2541 3569 2628 3553 
L 2631 2963 
z
" transform="scale(0.015625)"/>
      <path id="DejaVuSans-73" d="M 2834 3397 
L 2834 2853 
Q 2591 2978 2328 3040 
Q 2066 3103 1784 3103 
Q 1356 3103 1142 2972 
Q 928 2841 928 2578 
Q 928 2378 1081 2264 
Q 1234 2150 1697 2047 
L 1894 2003 
Q 2506 1872 2764 1633 
Q 3022 1394 3022 966 
Q 3022 478 2636 193 
Q 2250 -91 1575 -91 
Q 1294 -91 989 -36 
Q 684 19 347 128 
L 347 722 
Q 666 556 975 473 
Q 1284 391 1588 391 
Q 1994 391 2212 530 
Q 2431 669 2431 922 
Q 2431 1156 2273 1281 
Q 2116 1406 1581 1522 
L 1381 1569 
Q 847 1681 609 1914 
Q 372 2147 372 2553 
Q 372 3047 722 3315 
Q 1072 3584 1716 3584 
Q 2034 3584 2315 3537 
Q 2597 3491 2834 3397 
z
" transform="scale(0.015625)"/>
     </defs>
     <use xlink:href="#DejaVuSans-39"/>
     <use xlink:href="#DejaVuSans-2e" x="63.623047"/>
     <use xlink:href="#DejaVuSans-35" x="95.410156"/>
     <use xlink:href="#DejaVuSans-5f" x="159.033203"/>
     <use xlink:href="#DejaVuSans-63" x="209.033203"/>
     <use xlink:href="#DejaVuSans-72" x="264.013672"/>
     <use xlink:href="#DejaVuSans-6f" x="302.876953"/>
     <use xlink:href="#DejaVuSans-73" x="364.058594"/>
     <use xlink:href="#DejaVuSans-73" x="416.158203"/>
     <use xlink:href="#DejaVuSans-5f" x="468.257812"/>
     <use xlink:href="#DejaVuSans-32" x="518.257812"/>
     <use xlink:href="#DejaVuSans-32" x="581.880859"/>
     <use xlink:href="#DejaVuSans-2e" x="645.503906"/>
     <use xlink:href="#DejaVuSans-30" x="677.291016"/>
    </g>
   </g>
  </g>
 </g>
 <defs>
  <clipPath id="pa6926aa3d6">
   <rect x="34.240625" y="22.10625" width="357.12" height="266.112"/>
  </clipPath>
 </defs>
</svg>
