<?xml version="1.0" encoding="utf-8" standalone="no"?>
<!DOCTYPE svg PUBLIC "-//W3C//DTD SVG 1.1//EN"
  "http://www.w3.org/Graphics/SVG/1.1/DTD/svg11.dtd">
<svg xmlns:xlink="http://www.w3.org/1999/xlink" width="408.104375pt" height="325.7745pt" viewBox="0 0 408.104375 325.7745" xmlns="http://www.w3.org/2000/svg" version="1.1">
 <metadata>
  <rdf:RDF xmlns:dc="http://purl.org/dc/elements/1.1/" xmlns:cc="http://creativecommons.org/ns#" xmlns:rdf="http://www.w3.org/1999/02/22-rdf-syntax-ns#">
   <cc:Work>
    <dc:type rdf:resource="http://purl.org/dc/dcmitype/StillImage"/>
    <dc:date>2024-07-12T12:10:39.253490</dc:date>
    <dc:format>image/svg+xml</dc:format>
    <dc:creator>
     <cc:Agent>
      <dc:title>Matplotlib v3.5.3, https://matplotlib.org/</dc:title>
     </cc:Agent>
    </dc:creator>
   </cc:Work>
  </rdf:RDF>
 </metadata>
 <defs>
  <style type="text/css">*{stroke-linejoin: round; stroke-linecap: butt}</style>
 </defs>
 <g id="figure_1">
  <g id="patch_1">
   <path d="M 0 325.7745 
L 408.104375 325.7745 
L 408.104375 0 
L 0 0 
z
" style="fill: #ffffff"/>
  </g>
  <g id="axes_1">
   <g id="patch_2">
    <path d="M 34.240625 288.21825 
L 391.360625 288.21825 
L 391.360625 22.10625 
L 34.240625 22.10625 
z
" style="fill: #ffffff"/>
   </g>
   <g id="matplotlib.axis_1">
    <g id="xtick_1">
     <g id="line2d_1">
      <defs>
       <path id="m458242e3ef" d="M 0 0 
L 0 3.5 
" style="stroke: #000000; stroke-width: 0.8"/>
      </defs>
      <g>
       <use xlink:href="#m458242e3ef" x="34.240625" y="288.21825" style="stroke: #000000; stroke-width: 0.8"/>
      </g>
     </g>
     <g id="text_1">
      <!-- 0 -->
      <g transform="translate(31.059375 302.816687)scale(0.1 -0.1)">
       <defs>
        <path id="DejaVuSans-30" d="M 2034 4250 
Q 1547 4250 1301 3770 
Q 1056 3291 1056 2328 
Q 1056 1369 1301 889 
Q 1547 409 2034 409 
Q 2525 409 2770 889 
Q 3016 1369 3016 2328 
Q 3016 3291 2770 3770 
Q 2525 4250 2034 4250 
z
M 2034 4750 
Q 2819 4750 3233 4129 
Q 3647 3509 3647 2328 
Q 3647 1150 3233 529 
Q 2819 -91 2034 -91 
Q 1250 -91 836 529 
Q 422 1150 422 2328 
Q 422 3509 836 4129 
Q 1250 4750 2034 4750 
z
" transform="scale(0.015625)"/>
       </defs>
       <use xlink:href="#DejaVuSans-30"/>
      </g>
     </g>
    </g>
    <g id="xtick_2">
     <g id="line2d_2">
      <g>
       <use xlink:href="#m458242e3ef" x="105.664625" y="288.21825" style="stroke: #000000; stroke-width: 0.8"/>
      </g>
     </g>
     <g id="text_2">
      <!-- 20 -->
      <g transform="translate(99.302125 302.816687)scale(0.1 -0.1)">
       <defs>
        <path id="DejaVuSans-32" d="M 1228 531 
L 3431 531 
L 3431 0 
L 469 0 
L 469 531 
Q 828 903 1448 1529 
Q 2069 2156 2228 2338 
Q 2531 2678 2651 2914 
Q 2772 3150 2772 3378 
Q 2772 3750 2511 3984 
Q 2250 4219 1831 4219 
Q 1534 4219 1204 4116 
Q 875 4013 500 3803 
L 500 4441 
Q 881 4594 1212 4672 
Q 1544 4750 1819 4750 
Q 2544 4750 2975 4387 
Q 3406 4025 3406 3419 
Q 3406 3131 3298 2873 
Q 3191 2616 2906 2266 
Q 2828 2175 2409 1742 
Q 1991 1309 1228 531 
z
" transform="scale(0.015625)"/>
       </defs>
       <use xlink:href="#DejaVuSans-32"/>
       <use xlink:href="#DejaVuSans-30" x="63.623047"/>
      </g>
     </g>
    </g>
    <g id="xtick_3">
     <g id="line2d_3">
      <g>
       <use xlink:href="#m458242e3ef" x="177.088625" y="288.21825" style="stroke: #000000; stroke-width: 0.8"/>
      </g>
     </g>
     <g id="text_3">
      <!-- 40 -->
      <g transform="translate(170.726125 302.816687)scale(0.1 -0.1)">
       <defs>
        <path id="DejaVuSans-34" d="M 2419 4116 
L 825 1625 
L 2419 1625 
L 2419 4116 
z
M 2253 4666 
L 3047 4666 
L 3047 1625 
L 3713 1625 
L 3713 1100 
L 3047 1100 
L 3047 0 
L 2419 0 
L 2419 1100 
L 313 1100 
L 313 1709 
L 2253 4666 
z
" transform="scale(0.015625)"/>
       </defs>
       <use xlink:href="#DejaVuSans-34"/>
       <use xlink:href="#DejaVuSans-30" x="63.623047"/>
      </g>
     </g>
    </g>
    <g id="xtick_4">
     <g id="line2d_4">
      <g>
       <use xlink:href="#m458242e3ef" x="248.512625" y="288.21825" style="stroke: #000000; stroke-width: 0.8"/>
      </g>
     </g>
     <g id="text_4">
      <!-- 60 -->
      <g transform="translate(242.150125 302.816687)scale(0.1 -0.1)">
       <defs>
        <path id="DejaVuSans-36" d="M 2113 2584 
Q 1688 2584 1439 2293 
Q 1191 2003 1191 1497 
Q 1191 994 1439 701 
Q 1688 409 2113 409 
Q 2538 409 2786 701 
Q 3034 994 3034 1497 
Q 3034 2003 2786 2293 
Q 2538 2584 2113 2584 
z
M 3366 4563 
L 3366 3988 
Q 3128 4100 2886 4159 
Q 2644 4219 2406 4219 
Q 1781 4219 1451 3797 
Q 1122 3375 1075 2522 
Q 1259 2794 1537 2939 
Q 1816 3084 2150 3084 
Q 2853 3084 3261 2657 
Q 3669 2231 3669 1497 
Q 3669 778 3244 343 
Q 2819 -91 2113 -91 
Q 1303 -91 875 529 
Q 447 1150 447 2328 
Q 447 3434 972 4092 
Q 1497 4750 2381 4750 
Q 2619 4750 2861 4703 
Q 3103 4656 3366 4563 
z
" transform="scale(0.015625)"/>
       </defs>
       <use xlink:href="#DejaVuSans-36"/>
       <use xlink:href="#DejaVuSans-30" x="63.623047"/>
      </g>
     </g>
    </g>
    <g id="xtick_5">
     <g id="line2d_5">
      <g>
       <use xlink:href="#m458242e3ef" x="319.936625" y="288.21825" style="stroke: #000000; stroke-width: 0.8"/>
      </g>
     </g>
     <g id="text_5">
      <!-- 80 -->
      <g transform="translate(313.574125 302.816687)scale(0.1 -0.1)">
       <defs>
        <path id="DejaVuSans-38" d="M 2034 2216 
Q 1584 2216 1326 1975 
Q 1069 1734 1069 1313 
Q 1069 891 1326 650 
Q 1584 409 2034 409 
Q 2484 409 2743 651 
Q 3003 894 3003 1313 
Q 3003 1734 2745 1975 
Q 2488 2216 2034 2216 
z
M 1403 2484 
Q 997 2584 770 2862 
Q 544 3141 544 3541 
Q 544 4100 942 4425 
Q 1341 4750 2034 4750 
Q 2731 4750 3128 4425 
Q 3525 4100 3525 3541 
Q 3525 3141 3298 2862 
Q 3072 2584 2669 2484 
Q 3125 2378 3379 2068 
Q 3634 1759 3634 1313 
Q 3634 634 3220 271 
Q 2806 -91 2034 -91 
Q 1263 -91 848 271 
Q 434 634 434 1313 
Q 434 1759 690 2068 
Q 947 2378 1403 2484 
z
M 1172 3481 
Q 1172 3119 1398 2916 
Q 1625 2713 2034 2713 
Q 2441 2713 2670 2916 
Q 2900 3119 2900 3481 
Q 2900 3844 2670 4047 
Q 2441 4250 2034 4250 
Q 1625 4250 1398 4047 
Q 1172 3844 1172 3481 
z
" transform="scale(0.015625)"/>
       </defs>
       <use xlink:href="#DejaVuSans-38"/>
       <use xlink:href="#DejaVuSans-30" x="63.623047"/>
      </g>
     </g>
    </g>
    <g id="xtick_6">
     <g id="line2d_6">
      <g>
       <use xlink:href="#m458242e3ef" x="391.360625" y="288.21825" style="stroke: #000000; stroke-width: 0.8"/>
      </g>
     </g>
     <g id="text_6">
      <!-- 100 -->
      <g transform="translate(381.816875 302.816687)scale(0.1 -0.1)">
       <defs>
        <path id="DejaVuSans-31" d="M 794 531 
L 1825 531 
L 1825 4091 
L 703 3866 
L 703 4441 
L 1819 4666 
L 2450 4666 
L 2450 531 
L 3481 531 
L 3481 0 
L 794 0 
L 794 531 
z
" transform="scale(0.015625)"/>
       </defs>
       <use xlink:href="#DejaVuSans-31"/>
       <use xlink:href="#DejaVuSans-30" x="63.623047"/>
       <use xlink:href="#DejaVuSans-30" x="127.246094"/>
      </g>
     </g>
    </g>
    <g id="text_7">
     <!-- axialRotation -->
     <g transform="translate(180.024844 316.494812)scale(0.1 -0.1)">
      <defs>
       <path id="DejaVuSans-61" d="M 2194 1759 
Q 1497 1759 1228 1600 
Q 959 1441 959 1056 
Q 959 750 1161 570 
Q 1363 391 1709 391 
Q 2188 391 2477 730 
Q 2766 1069 2766 1631 
L 2766 1759 
L 2194 1759 
z
M 3341 1997 
L 3341 0 
L 2766 0 
L 2766 531 
Q 2569 213 2275 61 
Q 1981 -91 1556 -91 
Q 1019 -91 701 211 
Q 384 513 384 1019 
Q 384 1609 779 1909 
Q 1175 2209 1959 2209 
L 2766 2209 
L 2766 2266 
Q 2766 2663 2505 2880 
Q 2244 3097 1772 3097 
Q 1472 3097 1187 3025 
Q 903 2953 641 2809 
L 641 3341 
Q 956 3463 1253 3523 
Q 1550 3584 1831 3584 
Q 2591 3584 2966 3190 
Q 3341 2797 3341 1997 
z
" transform="scale(0.015625)"/>
       <path id="DejaVuSans-78" d="M 3513 3500 
L 2247 1797 
L 3578 0 
L 2900 0 
L 1881 1375 
L 863 0 
L 184 0 
L 1544 1831 
L 300 3500 
L 978 3500 
L 1906 2253 
L 2834 3500 
L 3513 3500 
z
" transform="scale(0.015625)"/>
       <path id="DejaVuSans-69" d="M 603 3500 
L 1178 3500 
L 1178 0 
L 603 0 
L 603 3500 
z
M 603 4863 
L 1178 4863 
L 1178 4134 
L 603 4134 
L 603 4863 
z
" transform="scale(0.015625)"/>
       <path id="DejaVuSans-6c" d="M 603 4863 
L 1178 4863 
L 1178 0 
L 603 0 
L 603 4863 
z
" transform="scale(0.015625)"/>
       <path id="DejaVuSans-52" d="M 2841 2188 
Q 3044 2119 3236 1894 
Q 3428 1669 3622 1275 
L 4263 0 
L 3584 0 
L 2988 1197 
Q 2756 1666 2539 1819 
Q 2322 1972 1947 1972 
L 1259 1972 
L 1259 0 
L 628 0 
L 628 4666 
L 2053 4666 
Q 2853 4666 3247 4331 
Q 3641 3997 3641 3322 
Q 3641 2881 3436 2590 
Q 3231 2300 2841 2188 
z
M 1259 4147 
L 1259 2491 
L 2053 2491 
Q 2509 2491 2742 2702 
Q 2975 2913 2975 3322 
Q 2975 3731 2742 3939 
Q 2509 4147 2053 4147 
L 1259 4147 
z
" transform="scale(0.015625)"/>
       <path id="DejaVuSans-6f" d="M 1959 3097 
Q 1497 3097 1228 2736 
Q 959 2375 959 1747 
Q 959 1119 1226 758 
Q 1494 397 1959 397 
Q 2419 397 2687 759 
Q 2956 1122 2956 1747 
Q 2956 2369 2687 2733 
Q 2419 3097 1959 3097 
z
M 1959 3584 
Q 2709 3584 3137 3096 
Q 3566 2609 3566 1747 
Q 3566 888 3137 398 
Q 2709 -91 1959 -91 
Q 1206 -91 779 398 
Q 353 888 353 1747 
Q 353 2609 779 3096 
Q 1206 3584 1959 3584 
z
" transform="scale(0.015625)"/>
       <path id="DejaVuSans-74" d="M 1172 4494 
L 1172 3500 
L 2356 3500 
L 2356 3053 
L 1172 3053 
L 1172 1153 
Q 1172 725 1289 603 
Q 1406 481 1766 481 
L 2356 481 
L 2356 0 
L 1766 0 
Q 1100 0 847 248 
Q 594 497 594 1153 
L 594 3053 
L 172 3053 
L 172 3500 
L 594 3500 
L 594 4494 
L 1172 4494 
z
" transform="scale(0.015625)"/>
       <path id="DejaVuSans-6e" d="M 3513 2113 
L 3513 0 
L 2938 0 
L 2938 2094 
Q 2938 2591 2744 2837 
Q 2550 3084 2163 3084 
Q 1697 3084 1428 2787 
Q 1159 2491 1159 1978 
L 1159 0 
L 581 0 
L 581 3500 
L 1159 3500 
L 1159 2956 
Q 1366 3272 1645 3428 
Q 1925 3584 2291 3584 
Q 2894 3584 3203 3211 
Q 3513 2838 3513 2113 
z
" transform="scale(0.015625)"/>
      </defs>
      <use xlink:href="#DejaVuSans-61"/>
      <use xlink:href="#DejaVuSans-78" x="61.279297"/>
      <use xlink:href="#DejaVuSans-69" x="120.458984"/>
      <use xlink:href="#DejaVuSans-61" x="148.242188"/>
      <use xlink:href="#DejaVuSans-6c" x="209.521484"/>
      <use xlink:href="#DejaVuSans-52" x="237.304688"/>
      <use xlink:href="#DejaVuSans-6f" x="302.287109"/>
      <use xlink:href="#DejaVuSans-74" x="363.46875"/>
      <use xlink:href="#DejaVuSans-61" x="402.677734"/>
      <use xlink:href="#DejaVuSans-74" x="463.957031"/>
      <use xlink:href="#DejaVuSans-69" x="503.166016"/>
      <use xlink:href="#DejaVuSans-6f" x="530.949219"/>
      <use xlink:href="#DejaVuSans-6e" x="592.130859"/>
     </g>
    </g>
   </g>
   <g id="matplotlib.axis_2">
    <g id="ytick_1">
     <g id="line2d_7">
      <defs>
       <path id="m4d1506c17c" d="M 0 0 
L -3.5 0 
" style="stroke: #000000; stroke-width: 0.8"/>
      </defs>
      <g>
       <use xlink:href="#m4d1506c17c" x="34.240625" y="288.21825" style="stroke: #000000; stroke-width: 0.8"/>
      </g>
     </g>
     <g id="text_8">
      <!-- 0 -->
      <g transform="translate(20.878125 292.017469)scale(0.1 -0.1)">
       <use xlink:href="#DejaVuSans-30"/>
      </g>
     </g>
    </g>
    <g id="ytick_2">
     <g id="line2d_8">
      <g>
       <use xlink:href="#m4d1506c17c" x="34.240625" y="243.86625" style="stroke: #000000; stroke-width: 0.8"/>
      </g>
     </g>
     <g id="text_9">
      <!-- 1 -->
      <g transform="translate(20.878125 247.665469)scale(0.1 -0.1)">
       <use xlink:href="#DejaVuSans-31"/>
      </g>
     </g>
    </g>
    <g id="ytick_3">
     <g id="line2d_9">
      <g>
       <use xlink:href="#m4d1506c17c" x="34.240625" y="199.51425" style="stroke: #000000; stroke-width: 0.8"/>
      </g>
     </g>
     <g id="text_10">
      <!-- 2 -->
      <g transform="translate(20.878125 203.313469)scale(0.1 -0.1)">
       <use xlink:href="#DejaVuSans-32"/>
      </g>
     </g>
    </g>
    <g id="ytick_4">
     <g id="line2d_10">
      <g>
       <use xlink:href="#m4d1506c17c" x="34.240625" y="155.16225" style="stroke: #000000; stroke-width: 0.8"/>
      </g>
     </g>
     <g id="text_11">
      <!-- 3 -->
      <g transform="translate(20.878125 158.961469)scale(0.1 -0.1)">
       <defs>
        <path id="DejaVuSans-33" d="M 2597 2516 
Q 3050 2419 3304 2112 
Q 3559 1806 3559 1356 
Q 3559 666 3084 287 
Q 2609 -91 1734 -91 
Q 1441 -91 1130 -33 
Q 819 25 488 141 
L 488 750 
Q 750 597 1062 519 
Q 1375 441 1716 441 
Q 2309 441 2620 675 
Q 2931 909 2931 1356 
Q 2931 1769 2642 2001 
Q 2353 2234 1838 2234 
L 1294 2234 
L 1294 2753 
L 1863 2753 
Q 2328 2753 2575 2939 
Q 2822 3125 2822 3475 
Q 2822 3834 2567 4026 
Q 2313 4219 1838 4219 
Q 1578 4219 1281 4162 
Q 984 4106 628 3988 
L 628 4550 
Q 988 4650 1302 4700 
Q 1616 4750 1894 4750 
Q 2613 4750 3031 4423 
Q 3450 4097 3450 3541 
Q 3450 3153 3228 2886 
Q 3006 2619 2597 2516 
z
" transform="scale(0.015625)"/>
       </defs>
       <use xlink:href="#DejaVuSans-33"/>
      </g>
     </g>
    </g>
    <g id="ytick_5">
     <g id="line2d_11">
      <g>
       <use xlink:href="#m4d1506c17c" x="34.240625" y="110.81025" style="stroke: #000000; stroke-width: 0.8"/>
      </g>
     </g>
     <g id="text_12">
      <!-- 4 -->
      <g transform="translate(20.878125 114.609469)scale(0.1 -0.1)">
       <use xlink:href="#DejaVuSans-34"/>
      </g>
     </g>
    </g>
    <g id="ytick_6">
     <g id="line2d_12">
      <g>
       <use xlink:href="#m4d1506c17c" x="34.240625" y="66.45825" style="stroke: #000000; stroke-width: 0.8"/>
      </g>
     </g>
     <g id="text_13">
      <!-- 5 -->
      <g transform="translate(20.878125 70.257469)scale(0.1 -0.1)">
       <defs>
        <path id="DejaVuSans-35" d="M 691 4666 
L 3169 4666 
L 3169 4134 
L 1269 4134 
L 1269 2991 
Q 1406 3038 1543 3061 
Q 1681 3084 1819 3084 
Q 2600 3084 3056 2656 
Q 3513 2228 3513 1497 
Q 3513 744 3044 326 
Q 2575 -91 1722 -91 
Q 1428 -91 1123 -41 
Q 819 9 494 109 
L 494 744 
Q 775 591 1075 516 
Q 1375 441 1709 441 
Q 2250 441 2565 725 
Q 2881 1009 2881 1497 
Q 2881 1984 2565 2268 
Q 2250 2553 1709 2553 
Q 1456 2553 1204 2497 
Q 953 2441 691 2322 
L 691 4666 
z
" transform="scale(0.015625)"/>
       </defs>
       <use xlink:href="#DejaVuSans-35"/>
      </g>
     </g>
    </g>
    <g id="ytick_7">
     <g id="line2d_13">
      <g>
       <use xlink:href="#m4d1506c17c" x="34.240625" y="22.10625" style="stroke: #000000; stroke-width: 0.8"/>
      </g>
     </g>
     <g id="text_14">
      <!-- 6 -->
      <g transform="translate(20.878125 25.905469)scale(0.1 -0.1)">
       <use xlink:href="#DejaVuSans-36"/>
      </g>
     </g>
    </g>
    <g id="text_15">
     <!-- zShift -->
     <g transform="translate(14.798438 169.151312)rotate(-90)scale(0.1 -0.1)">
      <defs>
       <path id="DejaVuSans-7a" d="M 353 3500 
L 3084 3500 
L 3084 2975 
L 922 459 
L 3084 459 
L 3084 0 
L 275 0 
L 275 525 
L 2438 3041 
L 353 3041 
L 353 3500 
z
" transform="scale(0.015625)"/>
       <path id="DejaVuSans-53" d="M 3425 4513 
L 3425 3897 
Q 3066 4069 2747 4153 
Q 2428 4238 2131 4238 
Q 1616 4238 1336 4038 
Q 1056 3838 1056 3469 
Q 1056 3159 1242 3001 
Q 1428 2844 1947 2747 
L 2328 2669 
Q 3034 2534 3370 2195 
Q 3706 1856 3706 1288 
Q 3706 609 3251 259 
Q 2797 -91 1919 -91 
Q 1588 -91 1214 -16 
Q 841 59 441 206 
L 441 856 
Q 825 641 1194 531 
Q 1563 422 1919 422 
Q 2459 422 2753 634 
Q 3047 847 3047 1241 
Q 3047 1584 2836 1778 
Q 2625 1972 2144 2069 
L 1759 2144 
Q 1053 2284 737 2584 
Q 422 2884 422 3419 
Q 422 4038 858 4394 
Q 1294 4750 2059 4750 
Q 2388 4750 2728 4690 
Q 3069 4631 3425 4513 
z
" transform="scale(0.015625)"/>
       <path id="DejaVuSans-68" d="M 3513 2113 
L 3513 0 
L 2938 0 
L 2938 2094 
Q 2938 2591 2744 2837 
Q 2550 3084 2163 3084 
Q 1697 3084 1428 2787 
Q 1159 2491 1159 1978 
L 1159 0 
L 581 0 
L 581 4863 
L 1159 4863 
L 1159 2956 
Q 1366 3272 1645 3428 
Q 1925 3584 2291 3584 
Q 2894 3584 3203 3211 
Q 3513 2838 3513 2113 
z
" transform="scale(0.015625)"/>
       <path id="DejaVuSans-66" d="M 2375 4863 
L 2375 4384 
L 1825 4384 
Q 1516 4384 1395 4259 
Q 1275 4134 1275 3809 
L 1275 3500 
L 2222 3500 
L 2222 3053 
L 1275 3053 
L 1275 0 
L 697 0 
L 697 3053 
L 147 3053 
L 147 3500 
L 697 3500 
L 697 3744 
Q 697 4328 969 4595 
Q 1241 4863 1831 4863 
L 2375 4863 
z
" transform="scale(0.015625)"/>
      </defs>
      <use xlink:href="#DejaVuSans-7a"/>
      <use xlink:href="#DejaVuSans-53" x="52.490234"/>
      <use xlink:href="#DejaVuSans-68" x="115.966797"/>
      <use xlink:href="#DejaVuSans-69" x="179.345703"/>
      <use xlink:href="#DejaVuSans-66" x="207.128906"/>
      <use xlink:href="#DejaVuSans-74" x="240.583984"/>
     </g>
    </g>
   </g>
   <g id="PathCollection_1"/>
   <g id="PathCollection_2">
    <path d="M 34.240625 150.993714 
L 36.026225 148.647451 
L 36.132327 148.50945 
L 37.847537 146.284278 
L 38.189232 145.84833 
L 39.633137 143.997681 
L 40.276805 143.18721 
L 41.418737 141.737544 
L 42.390426 140.52609 
L 43.204337 139.500087 
L 44.524174 137.86497 
L 45.025649 137.236115 
L 46.674172 135.20385 
L 46.811249 135.030494 
L 48.596849 132.788733 
L 49.160283 132.09921 
L 50.382449 130.560898 
L 51.286549 129.43809 
L 52.203761 128.275064 
L 53.398952 126.77697 
L 53.989361 126.018335 
L 55.484961 124.11585 
L 55.774961 123.736599 
L 57.531952 121.45473 
L 57.560561 121.416367 
L 59.381873 118.963409 
L 59.507753 118.79361 
L 61.167473 116.464122 
L 61.402314 116.13249 
L 62.953073 113.829747 
L 63.190872 113.47137 
L 64.738673 110.986156 
L 64.845413 110.81025 
L 66.328497 108.14913 
L 66.559985 107.694784 
L 67.63334 105.48801 
L 68.345585 103.879653 
L 68.787257 102.82689 
L 69.794635 100.16577 
L 70.131185 99.194416 
L 70.680722 97.50465 
L 71.502891 94.84353 
L 71.916785 93.488208 
L 72.291764 92.18241 
L 73.085149 89.52129 
L 73.738097 87.532248 
L 74.090232 86.41665 
L 75.035852 83.75553 
L 75.523697 82.551453 
L 76.097632 81.09441 
L 77.309297 78.44212 
L 77.313264 78.43329 
L 78.638878 75.77217 
L 79.094897 74.954801 
L 80.121561 73.11105 
L 80.916209 71.809254 
L 81.750158 70.44993 
L 82.701809 68.998409 
L 83.503436 67.78881 
L 84.487409 66.370136 
L 85.361127 65.12769 
L 86.273009 63.866873 
L 87.300733 62.46657 
L 88.094321 61.402913 
L 89.305096 59.80545 
L 89.879921 59.050591 
L 91.357162 57.14433 
L 91.665521 56.745608 
L 93.447556 54.48321 
L 93.451121 54.478654 
L 95.272433 52.159611 
L 95.54212 51.82209 
L 97.058033 49.906202 
L 97.658857 49.16097 
L 98.843633 47.672431 
L 99.79476 46.49985 
L 100.629233 45.445443 
L 102.311618 43.39521 
L 102.450545 43.221517 
L 104.236145 41.003028 
L 104.454947 40.73409 
L 106.021745 38.772372 
L 106.590219 38.07297 
L 107.807345 36.548059 
L 108.730002 35.41185 
L 109.628657 34.288319 
L 110.881521 32.75073 
L 111.414257 32.086818 
L 113.051521 30.08961 
L 113.199857 29.906116 
L 114.985457 27.721535 
L 115.228739 27.42849 
L 116.806769 25.509 
L 117.432718 24.76737 
L 118.592369 23.378 
L 119.687848 22.10625 
" clip-path="url(#p7f4ebbd76e)" style="fill: none; stroke: #dbe9f6; stroke-width: 1.5"/>
    <path d="M 114.21943 288.21825 
L 114.053508 285.55713 
L 114.179777 282.89601 
L 114.58937 280.23489 
L 115.259282 277.57377 
L 116.165411 274.91265 
L 117.31217 272.25153 
L 118.676056 269.59041 
L 120.377969 266.652332 
L 124.007696 261.16353 
L 127.891823 255.84129 
L 132.948593 249.305778 
L 156.268529 220.294987 
L 167.053553 206.880979 
L 181.58179 188.86977 
L 193.944689 173.531397 
L 199.337201 166.755747 
L 203.085833 161.81505 
L 206.739015 156.49281 
L 208.354307 153.83169 
L 210.122225 150.458612 
L 211.907825 146.400814 
L 213.071787 143.18721 
L 214.731199 137.86497 
L 217.404766 129.43809 
L 219.085937 125.16075 
L 219.524482 124.11585 
L 222.206667 118.79361 
L 224.478449 114.998497 
L 227.260645 110.81025 
L 231.13764 105.48801 
L 235.242813 100.16577 
L 242.405873 91.125357 
L 256.917472 73.11105 
L 274.725233 50.993257 
L 296.259569 24.760809 
L 298.528213 22.10625 
L 298.528213 22.10625 
" clip-path="url(#p7f4ebbd76e)" style="fill: none; stroke: #dbe9f6; stroke-width: 1.5"/>
    <path d="M 207.496069 22.10625 
L 208.300913 24.941926 
L 208.864003 27.42849 
L 209.266419 30.08961 
L 209.49232 32.75073 
L 209.556946 35.41185 
L 209.466786 38.07297 
L 209.220504 40.73409 
L 208.80941 43.39521 
L 208.119351 46.49985 
L 207.36905 49.16097 
L 206.414914 51.82209 
L 204.729713 55.694597 
L 204.033816 57.14433 
L 202.576373 59.80545 
L 199.337201 64.956423 
L 197.377268 67.78881 
L 193.452906 73.11105 
L 188.587889 79.385405 
L 168.839153 103.977096 
L 123.961316 159.15393 
L 117.768205 167.13729 
L 113.915069 172.45953 
L 111.414257 176.313259 
L 109.628657 179.370945 
L 107.807345 182.983948 
L 107.546659 183.54753 
L 106.021745 187.323835 
L 104.236145 192.647869 
L 102.13965 199.51425 
L 100.264118 204.83649 
L 98.843633 208.164977 
L 97.058033 211.801389 
L 95.272433 214.975337 
L 93.451121 217.890561 
L 91.483252 220.80321 
L 87.250227 226.56897 
L 82.701809 232.320795 
L 77.309297 238.761023 
L 71.916785 244.673248 
L 68.345585 248.249005 
L 64.738673 251.543855 
L 61.167473 254.412186 
L 57.560561 256.891208 
L 53.989361 258.913449 
L 52.203761 259.796303 
L 48.596849 261.209017 
L 45.025649 262.298429 
L 41.418737 262.991204 
L 37.847537 263.319864 
L 34.240625 263.309633 
L 34.240625 263.309633 
" clip-path="url(#p7f4ebbd76e)" style="fill: none; stroke: #dbe9f6; stroke-width: 1.5"/>
    <path d="M 307.391665 288.21825 
L 307.008881 286.902142 
L 306.60481 285.55713 
L 306.015038 282.89601 
L 305.62245 280.23489 
L 305.402114 277.57377 
L 305.339141 274.91265 
L 305.427155 272.25153 
L 305.667374 269.59041 
L 306.068132 266.92929 
L 306.759442 263.82465 
L 307.008881 262.97419 
L 307.516233 261.16353 
L 308.457767 258.50241 
L 308.794481 257.70294 
L 309.560912 255.84129 
L 310.615793 253.681056 
L 310.857737 253.18017 
L 312.31535 250.51905 
L 312.401393 250.375127 
L 313.913331 247.85793 
L 314.186993 247.43522 
L 315.650912 245.19681 
L 315.972593 244.729302 
L 317.501252 242.53569 
L 317.793905 242.129502 
L 319.442744 239.87457 
L 319.579505 239.690586 
L 321.365105 237.31839 
L 321.444847 237.21345 
L 323.150705 234.979731 
L 323.482547 234.55233 
L 324.972017 232.634425 
L 325.559402 231.89121 
L 326.757617 230.365866 
L 327.6673 229.23009 
L 328.543217 228.125987 
L 329.803843 226.56897 
L 330.328817 225.912336 
L 331.964085 223.90785 
L 332.150129 223.674557 
L 333.935729 221.460365 
L 334.481761 220.80321 
L 335.721329 219.271644 
L 336.655992 218.14209 
L 337.506929 217.09434 
L 338.847275 215.48097 
L 339.328241 214.892145 
L 341.063606 212.81985 
L 341.113841 212.758767 
L 342.899441 210.607099 
L 343.281783 210.15873 
L 344.685041 208.486722 
L 345.543277 207.49761 
L 346.506353 206.372012 
L 347.871788 204.83649 
L 348.291953 204.35605 
L 350.077553 202.385266 
L 350.272917 202.17537 
L 351.863153 200.436223 
L 352.752872 199.51425 
L 353.684465 198.530968 
L 355.376611 196.85313 
L 355.470065 196.758359 
L 357.255665 195.004324 
L 358.145655 194.19201 
L 359.041265 193.354461 
L 360.862577 191.77884 
L 361.165896 191.53089 
L 362.648177 190.28601 
L 364.433777 188.94463 
L 364.539517 188.86977 
L 366.219377 187.64124 
L 368.040689 186.472055 
L 368.489219 186.20865 
L 369.826289 185.389197 
L 371.611889 184.425528 
L 373.397489 183.594044 
L 373.508753 183.54753 
L 375.218801 182.78779 
L 377.004401 182.115727 
L 378.790001 181.55413 
L 380.575601 181.093262 
L 381.570137 180.88641 
L 382.396913 180.697517 
L 384.182513 180.383727 
L 385.968113 180.164179 
L 387.753713 180.035338 
L 389.575025 179.995531 
L 391.360625 180.046278 
" clip-path="url(#p7f4ebbd76e)" style="fill: none; stroke: #dbe9f6; stroke-width: 1.5"/>
    <path d="M 382.586789 22.10625 
L 382.791701 24.76737 
L 382.7054 27.42849 
L 382.351878 30.08961 
L 381.789614 32.75073 
L 380.575601 36.600878 
L 380.065684 38.07297 
L 374.554474 51.82209 
L 372.814192 57.14433 
L 369.646461 67.78881 
L 368.040689 72.262197 
L 367.719818 73.11105 
L 366.219377 76.493502 
L 364.433777 80.005159 
L 362.648177 83.103397 
L 360.543042 86.41665 
L 356.483841 92.18241 
L 351.863153 98.264764 
L 341.113841 111.764285 
L 326.877685 129.43809 
L 308.794481 151.897538 
L 300.790548 161.81505 
L 294.438257 170.011047 
L 290.85015 175.12065 
L 288.931375 178.22529 
L 287.260145 181.309174 
L 285.474545 185.2294 
L 284.100292 188.86977 
L 283.230449 191.53089 
L 279.932855 202.17537 
L 278.296433 206.490833 
L 277.890856 207.49761 
L 276.510833 210.454385 
L 274.725233 213.849432 
L 272.903921 216.930532 
L 270.377915 220.80321 
L 267.547121 224.77848 
L 263.940209 229.561388 
L 254.976497 240.925129 
L 238.6735 261.16353 
L 222.657137 281.020348 
L 216.671474 288.21825 
L 216.671474 288.21825 
" clip-path="url(#p7f4ebbd76e)" style="fill: none; stroke: #dbe9f6; stroke-width: 1.5"/>
   </g>
   <g id="PathCollection_3">
    <path d="M 34.240625 167.54949 
L 34.460785 167.13729 
L 36.026225 164.477457 
L 36.026994 164.47617 
L 37.734067 161.81505 
L 37.847537 161.648096 
L 39.571319 159.15393 
L 39.633137 159.067726 
L 41.418737 156.612398 
L 41.506992 156.49281 
L 43.204337 154.234961 
L 43.511904 153.83169 
L 45.025649 151.865196 
L 45.56727 151.17057 
L 46.811249 149.578449 
L 47.656776 148.50945 
L 48.596849 147.319148 
L 49.772139 145.84833 
L 50.382449 145.081711 
L 51.907293 143.18721 
L 52.203761 142.817068 
L 53.989361 140.607473 
L 54.055296 140.52609 
L 55.774961 138.386904 
L 56.198135 137.86497 
L 57.560561 136.166486 
L 58.338076 135.20385 
L 59.381873 133.888719 
L 60.821508 132.09921 
L 61.167473 131.659972 
L 62.925078 129.43809 
L 62.953073 129.402021 
L 64.738673 127.094418 
L 64.984246 126.77697 
L 66.559985 124.695805 
L 66.998085 124.11585 
L 68.345585 122.280847 
L 68.948775 121.45473 
L 70.131185 119.772919 
L 70.812083 118.79361 
L 71.916785 117.121478 
L 72.558197 116.13249 
L 73.738097 114.187066 
L 74.160911 113.47137 
L 75.523697 110.958244 
L 75.601323 110.81025 
L 76.854797 108.14913 
L 77.309297 107.07255 
L 77.949439 105.48801 
L 78.911496 102.82689 
L 79.094897 102.266525 
L 79.750448 100.16577 
L 80.531269 97.50465 
L 80.916209 96.1688 
L 81.282441 94.84353 
L 82.04347 92.18241 
L 82.701809 90.076468 
L 82.870408 89.52129 
L 83.9329 86.41665 
L 84.487409 85.017417 
L 84.980852 83.75553 
L 86.177045 81.09441 
L 86.273009 80.902915 
L 87.509461 78.43329 
L 88.094321 77.388523 
L 89.003651 75.77217 
L 89.879921 74.344436 
L 90.644046 73.11105 
L 91.665521 71.565656 
L 92.411491 70.44993 
L 93.451121 68.963467 
L 94.282352 67.78881 
L 95.272433 66.431294 
L 96.234499 65.12769 
L 97.058033 64.030431 
L 98.246364 62.46657 
L 98.843633 61.687134 
L 100.303671 59.80545 
L 100.629233 59.387027 
L 102.395721 57.14433 
L 102.450545 57.074728 
L 104.236145 54.816445 
L 104.502396 54.48321 
L 106.021745 52.57422 
L 106.627736 51.82209 
L 107.807345 50.347895 
L 108.768094 49.16097 
L 109.628657 48.088736 
L 110.918201 46.49985 
L 111.414257 45.877844 
L 113.199857 43.674462 
L 113.427513 43.39521 
L 114.985457 41.451935 
L 115.56705 40.73409 
L 116.806769 39.189434 
L 117.713355 38.07297 
L 118.592369 36.981035 
L 119.873557 35.41185 
L 120.377969 34.789968 
L 122.0599 32.75073 
L 122.163569 32.624431 
L 123.984881 30.427523 
L 124.269616 30.08961 
L 125.770481 28.305772 
L 126.526923 27.42849 
L 127.556081 26.234517 
L 128.859617 24.76737 
L 129.341681 24.225379 
L 131.162993 22.244406 
L 131.293043 22.10625 
" clip-path="url(#p7f4ebbd76e)" style="fill: none; stroke: #bad6eb; stroke-width: 1.5"/>
    <path d="M 124.981905 288.21825 
L 124.665956 285.55713 
L 124.714939 282.89601 
L 125.099738 280.23489 
L 125.801925 277.57377 
L 126.761139 274.91265 
L 127.981413 272.25153 
L 129.41773 269.59041 
L 131.162993 266.714588 
L 134.948066 261.16353 
L 140.126705 254.283763 
L 147.363406 245.19681 
L 165.232241 222.960542 
L 176.017265 209.552474 
L 208.300913 169.638492 
L 212.262514 164.47617 
L 215.479025 159.847957 
L 217.300337 156.893758 
L 217.536831 156.49281 
L 219.085937 153.545472 
L 220.871537 149.432033 
L 222.14717 145.84833 
L 223.736079 140.52609 
L 225.286039 135.20385 
L 227.284482 129.43809 
L 228.405529 126.77697 
L 229.835249 123.811004 
L 231.656561 120.481578 
L 233.442161 117.557225 
L 236.182688 113.47137 
L 240.620273 107.440358 
L 247.798385 98.263647 
L 283.688945 53.693783 
L 298.783046 35.41185 
L 303.437681 29.983637 
L 308.794481 23.994411 
L 310.58884 22.10625 
L 310.58884 22.10625 
" clip-path="url(#p7f4ebbd76e)" style="fill: none; stroke: #bad6eb; stroke-width: 1.5"/>
    <path d="M 197.171326 22.10625 
L 198.234948 24.76737 
L 199.01174 27.42849 
L 199.545335 30.08961 
L 199.865036 32.75073 
L 199.975633 35.41185 
L 199.888913 38.07297 
L 199.337201 42.244056 
L 199.138755 43.39521 
L 198.359364 46.49985 
L 197.463734 49.16097 
L 195.766001 53.139247 
L 195.125868 54.48321 
L 193.672364 57.14433 
L 192.058372 59.80545 
L 188.44947 65.12769 
L 183.195377 72.154915 
L 176.118158 81.09441 
L 159.875441 101.270283 
L 143.697905 120.895306 
L 131.162993 135.87676 
L 120.866426 148.50945 
L 111.414257 160.370889 
L 107.807345 165.130193 
L 104.236145 170.185028 
L 102.450545 172.972266 
L 100.629233 176.145266 
L 98.843633 179.716814 
L 98.31633 180.88641 
L 97.058033 184.049294 
L 95.272433 189.440208 
L 93.046253 196.85313 
L 91.167 202.17537 
L 89.879921 205.172659 
L 88.094321 208.765517 
L 86.273009 211.949985 
L 84.005906 215.48097 
L 80.165646 220.80321 
L 77.309297 224.471034 
L 71.916785 230.978855 
L 68.345585 234.966731 
L 64.738673 238.697363 
L 60.571756 242.53569 
L 57.560561 244.990113 
L 53.989361 247.496022 
L 50.382449 249.562987 
L 46.811249 251.125058 
L 45.025649 251.732678 
L 43.204337 252.225015 
L 41.418737 252.586317 
L 39.633137 252.829035 
L 37.847537 252.952881 
L 36.026225 252.954468 
L 34.240625 252.829474 
L 34.240625 252.829474 
" clip-path="url(#p7f4ebbd76e)" style="fill: none; stroke: #bad6eb; stroke-width: 1.5"/>
    <path d="M 317.714151 288.21825 
L 316.646287 285.55713 
L 315.972593 283.23578 
L 315.873685 282.89601 
L 315.329706 280.23489 
L 315.014312 277.57377 
L 314.905221 274.91265 
L 314.990677 272.25153 
L 315.267827 269.59041 
L 315.741561 266.92929 
L 315.972593 266.026778 
L 316.523537 263.82465 
L 317.410834 261.16353 
L 317.793905 260.221648 
L 318.486721 258.50241 
L 319.579505 256.22367 
L 319.762854 255.84129 
L 321.211539 253.18017 
L 321.365105 252.923873 
L 322.818439 250.51905 
L 323.150705 250.008891 
L 324.566632 247.85793 
L 324.972017 247.273563 
L 326.429847 245.19681 
L 326.757617 244.744839 
L 328.380373 242.53569 
L 328.543217 242.31817 
L 330.328817 239.958792 
L 330.392976 239.87457 
L 332.150129 237.591799 
L 332.444965 237.21345 
L 333.935729 235.30751 
L 334.534483 234.55233 
L 335.721329 233.055226 
L 336.657634 231.89121 
L 337.506929 230.831907 
L 338.81061 229.23009 
L 339.328241 228.590859 
L 340.99192 226.56897 
L 341.113841 226.419463 
L 342.899441 224.248464 
L 343.183456 223.90785 
L 344.685041 222.078526 
L 345.764306 220.80321 
L 346.506353 219.912495 
L 348.014068 218.14209 
L 348.291953 217.812157 
L 350.077553 215.732676 
L 350.29785 215.48097 
L 351.863153 213.676887 
L 352.631424 212.81985 
L 353.684465 211.636871 
L 355.052397 210.15873 
L 355.470065 209.703573 
L 357.255665 207.827112 
L 357.580915 207.49761 
L 359.041265 206.004634 
L 360.251617 204.83649 
L 360.862577 204.240605 
L 362.648177 202.590579 
L 363.122792 202.17537 
L 364.433777 201.012657 
L 366.219377 199.555495 
L 366.272862 199.51425 
L 368.040689 198.130627 
L 369.826289 196.875234 
L 369.860157 196.85313 
L 371.611889 195.689094 
L 373.397489 194.640715 
L 374.25575 194.19201 
L 375.218801 193.677506 
L 377.004401 192.844645 
L 378.790001 192.139387 
L 380.575601 191.555283 
L 380.667878 191.53089 
L 382.396913 191.058434 
L 384.182513 190.694232 
L 385.968113 190.450375 
L 387.753713 190.326283 
L 389.575025 190.324537 
L 391.360625 190.448709 
" clip-path="url(#p7f4ebbd76e)" style="fill: none; stroke: #bad6eb; stroke-width: 1.5"/>
    <path d="M 371.373907 22.10625 
L 371.782651 24.76737 
L 371.828503 27.42849 
L 371.555818 30.08961 
L 371.027718 32.75073 
L 369.826289 36.741208 
L 368.402254 40.73409 
L 366.219377 46.575499 
L 364.433777 52.010058 
L 359.84132 67.78881 
L 357.698555 73.11105 
L 355.470065 77.508552 
L 353.684465 80.573578 
L 351.640943 83.75553 
L 347.552297 89.52129 
L 342.899441 95.619456 
L 333.935729 106.873881 
L 313.615267 132.09921 
L 301.616369 146.988243 
L 289.081457 162.423755 
L 285.41746 167.13729 
L 281.658392 172.45953 
L 279.997635 175.12065 
L 278.293515 178.22529 
L 276.510833 182.177418 
L 275.020049 186.20865 
L 273.413212 191.53089 
L 271.017358 199.51425 
L 269.332721 204.024232 
L 269.007171 204.83649 
L 267.547121 207.976227 
L 265.725809 211.396708 
L 263.940209 214.378666 
L 261.460825 218.14209 
L 257.276799 223.90785 
L 253.175067 229.23009 
L 244.693256 239.87457 
L 215.479025 276.13332 
L 208.300913 284.720506 
L 205.190973 288.21825 
L 205.190973 288.21825 
" clip-path="url(#p7f4ebbd76e)" style="fill: none; stroke: #bad6eb; stroke-width: 1.5"/>
    <path d="M 391.360625 279.319903 
L 390.596902 280.23489 
L 389.575025 281.457838 
L 388.343753 282.89601 
L 387.753713 283.583772 
L 386.009568 285.55713 
L 385.968113 285.603966 
L 384.182513 287.586699 
L 383.591571 288.21825 
" clip-path="url(#p7f4ebbd76e)" style="fill: none; stroke: #bad6eb; stroke-width: 1.5"/>
   </g>
   <g id="PathCollection_4">
    <path d="M 34.240625 187.716727 
L 34.6625 186.20865 
L 35.433008 183.54753 
L 36.026225 181.656046 
L 36.267439 180.88641 
L 37.195252 178.22529 
L 37.847537 176.592982 
L 38.44571 175.12065 
L 39.633137 172.5737 
L 39.687443 172.45953 
L 41.096997 169.79841 
L 41.418737 169.247174 
L 42.679306 167.13729 
L 43.204337 166.322062 
L 44.421194 164.47617 
L 45.025649 163.606821 
L 46.298023 161.81505 
L 46.811249 161.116111 
L 48.277746 159.15393 
L 48.596849 158.73488 
L 50.3281 156.49281 
L 50.382449 156.42304 
L 52.203761 154.106713 
L 52.42197 153.83169 
L 53.989361 151.860799 
L 54.542137 151.17057 
L 55.774961 149.632261 
L 56.679828 148.50945 
L 57.560561 147.416655 
L 58.830358 145.84833 
L 59.381873 145.16661 
L 60.988977 143.18721 
L 61.167473 142.966727 
L 62.953073 140.765877 
L 63.147644 140.52609 
L 64.738673 138.555441 
L 65.295597 137.86497 
L 66.559985 136.284962 
L 67.42306 135.20385 
L 68.345585 134.034748 
L 69.867845 132.09921 
L 70.131185 131.759538 
L 71.916785 129.44528 
L 71.922297 129.43809 
L 73.738097 127.028648 
L 73.926124 126.77697 
L 75.523697 124.586641 
L 75.863132 124.11585 
L 77.309297 122.037821 
L 77.708749 121.45473 
L 79.094897 119.324456 
L 79.433117 118.79361 
L 80.916209 116.291534 
L 81.007999 116.13249 
L 82.409511 113.47137 
L 82.701809 112.852574 
L 83.633651 110.81025 
L 84.487409 108.683853 
L 84.694438 108.14913 
L 85.604511 105.48801 
L 86.273009 103.290013 
L 86.409037 102.82689 
L 87.131971 100.16577 
L 87.830289 97.50465 
L 88.094321 96.522389 
L 88.535092 94.84353 
L 89.290065 92.18241 
L 89.879921 90.333635 
L 90.136307 89.52129 
L 91.270254 86.41665 
L 91.665521 85.48405 
L 92.398884 83.75553 
L 93.451121 81.586476 
L 93.691317 81.09441 
L 95.14374 78.43329 
L 95.272433 78.217676 
L 96.747318 75.77217 
L 97.058033 75.292823 
L 98.488436 73.11105 
L 98.843633 72.59666 
L 100.342306 70.44993 
L 100.629233 70.053141 
L 102.282708 67.78881 
L 102.450545 67.56426 
L 104.236145 65.194378 
L 104.286658 65.12769 
L 106.021745 62.86778 
L 106.332198 62.46657 
L 107.807345 60.575917 
L 108.412969 59.80545 
L 109.628657 58.266905 
L 110.522239 57.14433 
L 111.414257 56.025424 
L 112.653077 54.48321 
L 113.199857 53.801494 
L 114.799058 51.82209 
L 114.985457 51.590365 
L 116.806769 49.33591 
L 116.948433 49.16097 
L 118.592369 47.119533 
L 119.094168 46.49985 
L 120.377969 44.899836 
L 121.599799 43.39521 
L 122.163569 42.695252 
L 123.755113 40.73409 
L 123.984881 40.450236 
L 125.770481 38.259934 
L 125.923794 38.07297 
L 127.556081 36.085883 
L 128.116969 35.41185 
L 129.341681 33.946322 
L 130.357718 32.75073 
L 131.162993 31.80976 
L 132.667663 30.08961 
L 132.948593 29.77109 
L 134.734193 27.791047 
L 135.069448 27.42849 
L 136.519793 25.881381 
L 137.60691 24.76737 
L 138.341105 24.027928 
L 140.126705 22.314063 
L 140.352453 22.10625 
" clip-path="url(#p7f4ebbd76e)" style="fill: none; stroke: #89bedc; stroke-width: 1.5"/>
    <path d="M 133.395222 288.21825 
L 132.847417 285.55713 
L 132.7558 282.89601 
L 133.067056 280.23489 
L 133.727338 277.57377 
L 134.734193 274.850818 
L 136.519793 271.192034 
L 138.341105 268.054106 
L 140.126705 265.295081 
L 143.022099 261.16353 
L 147.304817 255.521275 
L 157.652978 242.53569 
L 176.017265 219.713342 
L 203.095591 186.20865 
L 219.085937 166.646523 
L 220.871537 164.227133 
L 222.657137 161.607628 
L 224.478449 158.590841 
L 226.264049 155.091273 
L 226.838727 153.83169 
L 228.049649 150.710738 
L 229.577594 145.84833 
L 232.540745 135.20385 
L 233.6089 132.09921 
L 235.227761 128.189294 
L 235.870689 126.77697 
L 237.244644 124.11585 
L 238.834673 121.361755 
L 242.25258 116.13249 
L 246.125904 110.81025 
L 252.311643 102.82689 
L 263.940209 88.345141 
L 295.69606 49.16097 
L 302.839432 40.73409 
L 307.506922 35.41185 
L 312.401393 30.072718 
L 315.972593 26.389735 
L 319.579505 22.959578 
L 320.547282 22.10625 
L 320.547282 22.10625 
" clip-path="url(#p7f4ebbd76e)" style="fill: none; stroke: #89bedc; stroke-width: 1.5"/>
    <path d="M 188.912057 22.10625 
L 190.373489 24.777593 
L 191.426391 27.42849 
L 192.159089 30.15773 
L 192.588892 32.75073 
L 192.771536 35.41185 
L 192.715178 38.07297 
L 192.42954 40.73409 
L 191.923019 43.39521 
L 191.059092 46.49985 
L 190.078894 49.16097 
L 188.587889 52.411955 
L 186.766577 55.756356 
L 184.980977 58.650802 
L 182.394484 62.46657 
L 177.802865 68.656892 
L 172.226679 75.77217 
L 156.875025 94.84353 
L 149.090417 104.345229 
L 138.341105 117.042677 
L 123.984881 133.646717 
L 116.806769 142.322214 
L 107.49152 153.83169 
L 101.3592 161.81505 
L 97.594865 167.13729 
L 95.272433 170.818194 
L 93.451121 174.085135 
L 92.915346 175.12065 
L 91.492709 178.22529 
L 89.879921 182.493731 
L 88.691256 186.20865 
L 85.489841 196.85313 
L 84.487409 199.581415 
L 82.701809 203.665194 
L 82.135987 204.83649 
L 80.691189 207.49761 
L 79.073103 210.15873 
L 75.523697 215.276273 
L 73.336643 218.14209 
L 68.614684 223.90785 
L 66.289783 226.56897 
L 62.953073 230.158357 
L 59.381873 233.633458 
L 55.774961 236.702184 
L 53.989361 238.042537 
L 50.382449 240.360126 
L 48.596849 241.303759 
L 45.677847 242.53569 
L 45.025649 242.777126 
L 43.204337 243.299967 
L 41.418737 243.659384 
L 39.633137 243.861177 
L 37.847537 243.896802 
L 36.026225 243.750187 
L 34.240625 243.412414 
L 34.240625 243.412414 
" clip-path="url(#p7f4ebbd76e)" style="fill: none; stroke: #89bedc; stroke-width: 1.5"/>
    <path d="M 325.969996 288.21825 
L 324.972017 286.435879 
L 324.511057 285.55713 
L 323.455996 282.89601 
L 323.150705 281.792346 
L 322.730698 280.23489 
L 322.291355 277.57377 
L 322.109634 274.91265 
L 322.165599 272.25153 
L 322.449216 269.59041 
L 322.958358 266.92929 
L 323.150705 266.240452 
L 323.822359 263.82465 
L 324.803384 261.16353 
L 324.972017 260.78296 
L 325.986862 258.50241 
L 326.757617 257.016148 
L 327.37237 255.84129 
L 328.543217 253.844399 
L 328.937034 253.18017 
L 330.328817 251.017965 
L 330.65362 250.51905 
L 332.150129 248.349487 
L 332.492852 247.85793 
L 333.935729 245.865665 
L 334.425083 245.19681 
L 335.721329 243.46781 
L 336.426888 242.53569 
L 337.506929 241.130577 
L 338.481436 239.87457 
L 339.328241 238.794288 
L 340.579783 237.21345 
L 341.113841 236.54279 
L 342.716784 234.55233 
L 342.899441 234.32615 
L 344.685041 232.134878 
L 344.885362 231.89121 
L 346.506353 229.92243 
L 347.084213 229.23009 
L 348.291953 227.780543 
L 349.317652 226.56897 
L 350.077553 225.667863 
L 351.589847 223.90785 
L 351.863153 223.587111 
L 353.684465 221.490484 
L 354.297031 220.80321 
L 355.470065 219.479174 
L 356.691112 218.14209 
L 357.255665 217.522186 
L 359.041265 215.628326 
L 359.184591 215.48097 
L 360.862577 213.755592 
L 361.818288 212.81985 
L 362.648177 212.006101 
L 364.433777 210.348807 
L 364.649251 210.15873 
L 366.219377 208.77013 
L 367.770549 207.49761 
L 368.040689 207.27488 
L 369.826289 205.901569 
L 371.346188 204.83649 
L 371.611889 204.648791 
L 373.397489 203.498318 
L 375.218801 202.459162 
L 375.784897 202.17537 
L 377.004401 201.557958 
L 378.790001 200.787933 
L 380.575601 200.154596 
L 382.396913 199.650662 
L 383.094139 199.51425 
L 384.182513 199.298625 
L 385.968113 199.096261 
L 387.753713 199.050657 
L 389.575025 199.174294 
L 391.360625 199.473647 
" clip-path="url(#p7f4ebbd76e)" style="fill: none; stroke: #89bedc; stroke-width: 1.5"/>
    <path d="M 361.894983 22.10625 
L 362.725688 24.76737 
L 363.041089 27.42849 
L 362.956335 30.08961 
L 362.558106 32.75073 
L 361.932262 35.41185 
L 360.311854 40.73409 
L 358.494834 46.49985 
L 357.019969 51.82209 
L 354.282816 62.46657 
L 352.527708 67.78881 
L 351.448479 70.44993 
L 350.077553 73.369266 
L 348.291953 76.67883 
L 346.506353 79.626866 
L 343.746129 83.75553 
L 339.328241 89.759247 
L 332.150129 98.933817 
L 299.830769 139.067107 
L 289.081457 152.152594 
L 281.101905 161.81505 
L 276.510833 167.785977 
L 274.725233 170.359722 
L 272.903921 173.292393 
L 271.118321 176.668496 
L 270.379122 178.22529 
L 269.296796 180.88641 
L 267.547121 186.292932 
L 264.623778 196.85313 
L 262.732238 202.17537 
L 261.575152 204.83649 
L 260.254447 207.49761 
L 258.547697 210.538169 
L 256.762097 213.410054 
L 253.190897 218.590894 
L 247.798385 225.74402 
L 240.809324 234.55233 
L 210.122225 272.631275 
L 203.78777 280.23489 
L 199.337201 285.22042 
L 196.436922 288.21825 
L 196.436922 288.21825 
" clip-path="url(#p7f4ebbd76e)" style="fill: none; stroke: #89bedc; stroke-width: 1.5"/>
    <path d="M 391.360625 269.123326 
L 390.996535 269.59041 
L 389.575025 271.391476 
L 388.888185 272.25153 
L 387.753713 273.656917 
L 386.725593 274.91265 
L 385.968113 275.829407 
L 384.500864 277.57377 
L 384.182513 277.948886 
L 382.396913 280.013741 
L 382.20234 280.23489 
L 380.575601 282.06046 
L 379.808196 282.89601 
L 378.790001 283.989493 
L 377.271204 285.55713 
L 377.004401 285.828117 
L 375.218801 287.57531 
L 374.527713 288.21825 
" clip-path="url(#p7f4ebbd76e)" style="fill: none; stroke: #89bedc; stroke-width: 1.5"/>
   </g>
   <g id="PathCollection_5">
    <path d="M 34.240625 209.539881 
L 37.068151 202.17537 
L 38.783719 196.85313 
L 43.362206 180.88641 
L 45.025649 176.863583 
L 46.811249 173.307387 
L 48.596849 170.298303 
L 50.729789 167.13729 
L 53.989361 162.811146 
L 59.381873 156.135681 
L 75.523697 136.341536 
L 79.094897 131.683646 
L 82.701809 126.709898 
L 86.124777 121.45473 
L 88.094321 117.883057 
L 88.954957 116.13249 
L 90.08647 113.47137 
L 91.665521 108.810076 
L 92.566007 105.48801 
L 95.786161 92.18241 
L 97.058033 88.447376 
L 97.841284 86.41665 
L 99.044627 83.75553 
L 100.629233 80.731547 
L 102.450545 77.663503 
L 105.475723 73.11105 
L 109.628657 67.455752 
L 115.591221 59.80545 
L 128.834378 43.39521 
L 134.734193 36.305638 
L 138.341105 32.234203 
L 141.912305 28.526442 
L 143.697905 26.821297 
L 147.304817 23.750541 
L 149.557348 22.10625 
L 149.557348 22.10625 
" clip-path="url(#p7f4ebbd76e)" style="fill: none; stroke: #539ecd; stroke-width: 1.5"/>
    <path d="M 141.48836 288.21825 
L 140.522499 285.55713 
L 140.170735 282.89601 
L 140.326095 280.23489 
L 140.902176 277.57377 
L 141.912305 274.732711 
L 143.697905 271.06938 
L 145.519217 267.95287 
L 147.304817 265.225347 
L 150.175447 261.16353 
L 154.482929 255.534426 
L 167.053553 239.785335 
L 202.944113 195.282719 
L 210.475876 186.20865 
L 219.085937 176.204901 
L 222.657137 172.05574 
L 226.666431 167.13729 
L 228.612078 164.47617 
L 230.336828 161.81505 
L 231.813347 159.15393 
L 233.442161 155.49207 
L 234.073451 153.83169 
L 235.227761 150.038058 
L 236.282104 145.84833 
L 238.239129 137.86497 
L 239.041725 135.20385 
L 240.620273 130.970205 
L 241.26794 129.43809 
L 242.558589 126.77697 
L 244.191473 123.832049 
L 246.012785 120.888814 
L 249.270304 116.13249 
L 253.235827 110.81025 
L 260.369009 101.741186 
L 292.652657 61.701519 
L 299.830769 53.078067 
L 307.008881 44.85748 
L 313.320851 38.07297 
L 317.793905 33.575471 
L 321.529869 30.08961 
L 324.972017 27.168123 
L 328.543217 24.546382 
L 332.150129 22.429353 
L 332.820193 22.10625 
L 332.820193 22.10625 
" clip-path="url(#p7f4ebbd76e)" style="fill: none; stroke: #539ecd; stroke-width: 1.5"/>
    <path d="M 180.299502 22.10625 
L 181.409777 23.297236 
L 182.601433 24.76737 
L 184.172537 27.42849 
L 185.233292 30.08961 
L 185.884414 32.75073 
L 186.200226 35.41185 
L 186.21592 38.07297 
L 185.955194 40.73409 
L 185.433298 43.39521 
L 184.506051 46.49985 
L 183.195377 49.702505 
L 181.409777 53.206207 
L 179.588465 56.270484 
L 177.247412 59.80545 
L 173.370192 65.12769 
L 167.053553 73.246337 
L 151.788106 92.18241 
L 145.191816 100.16577 
L 138.315972 108.14913 
L 131.095198 116.13249 
L 116.806769 131.636272 
L 113.199857 135.830531 
L 104.236145 146.62914 
L 98.523626 153.83169 
L 94.520403 159.15393 
L 90.828939 164.47617 
L 89.162933 167.13729 
L 87.654146 169.79841 
L 86.273009 172.564401 
L 84.487409 176.850956 
L 83.978667 178.22529 
L 82.338987 183.54753 
L 80.13435 191.53089 
L 79.094897 194.79559 
L 78.352736 196.85313 
L 77.258395 199.51425 
L 75.523697 203.005952 
L 73.738097 206.058477 
L 71.916785 208.798171 
L 68.910147 212.81985 
L 66.559985 215.699781 
L 62.031704 220.80321 
L 59.021208 223.90785 
L 55.774961 226.9071 
L 52.203761 229.685 
L 50.382449 230.855463 
L 48.552628 231.89121 
L 46.811249 232.661207 
L 45.025649 233.276622 
L 43.204337 233.702734 
L 41.418737 233.89334 
L 39.633137 233.821543 
L 37.847537 233.440351 
L 36.026225 232.672045 
L 34.240625 231.369752 
L 34.240625 231.369752 
" clip-path="url(#p7f4ebbd76e)" style="fill: none; stroke: #539ecd; stroke-width: 1.5"/>
    <path d="M 334.581076 288.21825 
L 333.935729 287.5493 
L 332.272458 285.55713 
L 332.150129 285.369482 
L 330.706539 282.89601 
L 330.328817 281.99214 
L 329.650674 280.23489 
L 328.996172 277.57377 
L 328.67931 274.91265 
L 328.664063 272.25153 
L 328.925878 269.59041 
L 329.448596 266.92929 
L 330.328817 263.977194 
L 330.374765 263.82465 
L 331.429323 261.16353 
L 332.150129 259.654316 
L 332.70775 258.50241 
L 333.935729 256.29027 
L 334.188407 255.84129 
L 335.721329 253.374191 
L 335.843388 253.18017 
L 337.506929 250.714364 
L 337.640071 250.51905 
L 339.328241 248.159268 
L 339.545615 247.85793 
L 341.113841 245.75422 
L 341.532255 245.19681 
L 342.899441 243.416636 
L 343.580431 242.53569 
L 344.685041 241.130536 
L 345.679337 239.87457 
L 346.506353 238.843572 
L 347.824761 237.21345 
L 348.291953 236.641694 
L 350.016357 234.55233 
L 350.077553 234.478742 
L 351.863153 232.354693 
L 352.257712 231.89121 
L 353.684465 230.226258 
L 354.551946 229.23009 
L 355.470065 228.180245 
L 356.907956 226.56897 
L 357.255665 226.180432 
L 359.041265 224.233676 
L 359.34855 223.90785 
L 360.862577 222.309895 
L 362.345994 220.80321 
L 362.648177 220.497753 
L 364.433777 218.769849 
L 365.116352 218.14209 
L 366.219377 217.134616 
L 368.040689 215.573353 
L 368.156363 215.48097 
L 369.826289 214.156891 
L 371.611889 212.857384 
L 371.668874 212.81985 
L 373.397489 211.687429 
L 375.218801 210.629703 
L 376.156931 210.15873 
L 377.004401 209.734241 
L 378.790001 208.991239 
L 380.575601 208.404283 
L 382.396913 207.976939 
L 384.182513 207.740031 
L 385.968113 207.701289 
L 387.753713 207.882907 
L 389.575025 208.323349 
L 391.360625 209.038756 
" clip-path="url(#p7f4ebbd76e)" style="fill: none; stroke: #539ecd; stroke-width: 1.5"/>
    <path d="M 349.985435 22.10625 
L 350.077553 22.176987 
L 351.863153 23.977902 
L 352.474539 24.76737 
L 353.684465 27.476122 
L 354.111927 30.08961 
L 354.091166 32.75073 
L 353.684465 35.852037 
L 352.662333 40.73409 
L 350.781093 49.16097 
L 348.504573 59.80545 
L 347.789958 62.46657 
L 346.506353 66.354434 
L 345.975957 67.78881 
L 344.685041 70.74938 
L 342.899441 74.216297 
L 341.113841 77.251994 
L 338.599131 81.09441 
L 334.750636 86.41665 
L 328.543217 94.433585 
L 319.579505 105.59419 
L 290.867057 141.137269 
L 283.688945 149.648456 
L 272.903921 162.192495 
L 269.332721 166.749713 
L 269.041033 167.13729 
L 267.238338 169.79841 
L 265.678891 172.45953 
L 263.940209 176.138474 
L 263.108255 178.22529 
L 262.154609 181.187907 
L 260.847931 186.20865 
L 258.909446 194.19201 
L 258.125437 196.85313 
L 256.762097 200.650082 
L 256.149211 202.17537 
L 254.916437 204.83649 
L 253.190897 208.044996 
L 251.369585 211.050477 
L 248.38855 215.48097 
L 244.191473 221.162306 
L 237.013361 230.313499 
L 206.515313 268.168724 
L 200.960739 274.91265 
L 195.766001 280.837143 
L 192.159089 284.576622 
L 190.373489 286.277865 
L 188.168575 288.21825 
L 188.168575 288.21825 
" clip-path="url(#p7f4ebbd76e)" style="fill: none; stroke: #539ecd; stroke-width: 1.5"/>
    <path d="M 391.360625 259.616839 
L 390.260668 261.16353 
L 389.575025 262.093293 
L 388.28761 263.82465 
L 387.753713 264.523633 
L 385.968113 266.839113 
L 385.898143 266.92929 
L 384.182513 269.092285 
L 383.783881 269.59041 
L 382.396913 271.292164 
L 381.605848 272.25153 
L 380.575601 273.478403 
L 379.352222 274.91265 
L 378.790001 275.559522 
L 377.004401 277.57103 
L 377.00192 277.57377 
L 375.218801 279.496513 
L 374.512234 280.23489 
L 373.397489 281.369218 
L 371.83201 282.89601 
L 371.611889 283.104448 
L 369.826289 284.716581 
L 368.836927 285.55713 
L 368.040689 286.20893 
L 366.219377 287.591647 
L 365.320349 288.21825 
" clip-path="url(#p7f4ebbd76e)" style="fill: none; stroke: #539ecd; stroke-width: 1.5"/>
   </g>
   <g id="PathCollection_6">
    <path d="M 151.098672 288.21825 
L 150.876017 287.977227 
L 149.040873 285.55713 
L 148.108142 282.89601 
L 147.907863 280.23489 
L 148.270951 277.57377 
L 149.090417 274.851956 
L 150.218535 272.25153 
L 151.638162 269.59041 
L 154.482929 265.140829 
L 156.268529 262.589755 
L 159.875441 257.78818 
L 167.053553 248.725921 
L 180.582237 231.89121 
L 213.693425 191.180805 
L 219.085937 185.128424 
L 224.478449 179.416231 
L 233.785889 169.79841 
L 236.038323 167.13729 
L 237.933917 164.47617 
L 239.428964 161.81505 
L 240.620273 158.909909 
L 241.390963 156.49281 
L 242.002526 153.83169 
L 242.899902 148.50945 
L 243.733524 143.18721 
L 244.239951 140.52609 
L 244.878559 137.86497 
L 246.012785 134.200842 
L 246.780578 132.09921 
L 247.943889 129.43809 
L 249.583985 126.290727 
L 251.369585 123.29168 
L 254.370532 118.79361 
L 258.547697 113.123797 
L 264.517676 105.48801 
L 294.914514 67.78881 
L 301.616369 59.707301 
L 307.008881 53.592612 
L 311.174317 49.16097 
L 314.186993 46.129959 
L 317.793905 42.74827 
L 321.365105 39.684664 
L 324.972017 36.916455 
L 327.186435 35.41185 
L 330.328817 33.588775 
L 332.150129 32.719571 
L 333.935729 32.111822 
L 335.721329 31.725359 
L 337.506929 31.634594 
L 339.328241 31.969363 
L 341.113841 32.969334 
L 342.728596 35.41185 
L 342.899441 35.943406 
L 343.371345 38.07297 
L 343.587572 40.73409 
L 343.599072 43.39521 
L 343.298469 49.16097 
L 342.749235 54.48321 
L 341.823043 59.80545 
L 341.113841 62.661968 
L 340.343037 65.12769 
L 339.328241 67.828955 
L 337.506929 71.673076 
L 335.721329 74.866865 
L 333.935729 77.708334 
L 331.620103 81.09441 
L 326.757617 87.613303 
L 321.081276 94.84353 
L 287.260145 136.678036 
L 281.703092 143.18721 
L 276.510833 148.921093 
L 271.118321 154.552178 
L 263.940209 161.949707 
L 261.706442 164.47617 
L 259.680958 167.13729 
L 258.054457 169.79841 
L 256.762097 172.633389 
L 255.883098 175.12065 
L 254.976497 178.981901 
L 254.189226 183.54753 
L 253.190897 189.845119 
L 252.260551 194.19201 
L 251.369585 197.2853 
L 250.59182 199.51425 
L 249.4935 202.17537 
L 247.798385 205.551398 
L 246.012785 208.628808 
L 243.274336 212.81985 
L 238.834673 218.900351 
L 232.860949 226.56897 
L 202.859696 263.82465 
L 195.766001 272.428899 
L 191.191067 277.57377 
L 188.587889 280.269276 
L 184.980977 283.582575 
L 182.52052 285.55713 
L 179.588465 287.549463 
L 178.479793 288.21825 
L 178.479793 288.21825 
" clip-path="url(#p7f4ebbd76e)" style="fill: none; stroke: #2b7bba; stroke-width: 1.5"/>
    <path d="M 391.360625 248.329431 
L 390.248037 250.51905 
L 389.575025 251.691401 
L 388.706356 253.18017 
L 387.753713 254.672441 
L 386.998182 255.84129 
L 385.968113 257.333482 
L 385.154255 258.50241 
L 384.182513 259.833009 
L 383.204948 261.16353 
L 382.396913 262.224414 
L 381.171495 263.82465 
L 380.575601 264.577517 
L 378.790001 266.826153 
L 378.707401 266.92929 
L 377.004401 268.982797 
L 376.495813 269.59041 
L 375.218801 271.070019 
L 374.183802 272.25153 
L 373.397489 273.120647 
L 371.740101 274.91265 
L 371.611889 275.046476 
L 369.826289 276.842985 
L 369.072817 277.57377 
L 368.040689 278.531345 
L 366.219377 280.136225 
L 366.099656 280.23489 
L 364.433777 281.534314 
L 362.648177 282.819684 
L 362.530467 282.89601 
L 360.862577 283.91011 
L 359.041265 284.879674 
L 357.54305 285.55713 
L 357.255665 285.678412 
L 355.470065 286.280372 
L 353.684465 286.725888 
L 351.863153 287.010999 
L 350.077553 287.114707 
L 348.291953 287.032706 
L 346.506353 286.75135 
L 344.685041 286.24242 
L 343.017699 285.55713 
L 342.899441 285.498793 
L 341.113841 284.33814 
L 339.403718 282.89601 
L 339.328241 282.813097 
L 337.506929 280.37811 
L 337.415999 280.23489 
L 336.247095 277.57377 
L 335.721329 275.433046 
L 335.606809 274.91265 
L 335.411364 272.25153 
L 335.574839 269.59041 
L 335.721329 268.79439 
L 336.072199 266.92929 
L 337.025511 263.82465 
L 337.506929 262.659647 
L 338.138177 261.16353 
L 339.328241 258.809187 
L 339.486223 258.50241 
L 341.046268 255.84129 
L 341.113841 255.736389 
L 342.778935 253.18017 
L 342.899441 253.00676 
L 344.641788 250.51905 
L 344.685041 250.460033 
L 346.506353 247.9925 
L 346.606211 247.85793 
L 348.291953 245.661315 
L 348.649636 245.19681 
L 350.077553 243.391544 
L 350.757162 242.53569 
L 351.863153 241.174669 
L 352.926022 239.87457 
L 353.684465 238.965394 
L 355.15875 237.21345 
L 355.470065 236.850247 
L 357.255665 234.797493 
L 357.472722 234.55233 
L 359.041265 232.813763 
L 359.88993 231.89121 
L 360.862577 230.850586 
L 362.417436 229.23009 
L 362.648177 228.993066 
L 364.433777 227.233662 
L 365.13795 226.56897 
L 366.219377 225.565246 
L 368.040689 223.962616 
L 368.107984 223.90785 
L 369.826289 222.541288 
L 371.611889 221.228802 
L 372.259097 220.80321 
L 373.397489 220.072992 
L 375.218801 219.06014 
L 377.004401 218.225992 
L 377.240139 218.14209 
L 378.790001 217.602526 
L 380.575601 217.183703 
L 382.396913 216.990725 
L 384.182513 217.065366 
L 385.968113 217.443174 
L 387.677152 218.14209 
L 387.753713 218.178719 
L 389.575025 219.489947 
L 390.858959 220.80321 
L 391.360625 221.453951 
" clip-path="url(#p7f4ebbd76e)" style="fill: none; stroke: #2b7bba; stroke-width: 1.5"/>
    <path d="M 45.947157 215.48097 
L 45.134523 212.81985 
L 45.193843 210.15873 
L 45.535418 207.49761 
L 45.963674 204.83649 
L 46.408138 202.17537 
L 46.811249 199.76132 
L 46.853451 199.51425 
L 47.344339 196.85313 
L 47.837833 194.19201 
L 48.361017 191.53089 
L 48.596849 190.48224 
L 48.982103 188.86977 
L 49.717406 186.20865 
L 50.382449 184.139923 
L 50.588977 183.54753 
L 51.680857 180.88641 
L 52.203761 179.779232 
L 53.003571 178.22529 
L 53.989361 176.539972 
L 54.885788 175.12065 
L 55.774961 173.841396 
L 56.813655 172.45953 
L 57.560561 171.516429 
L 59.015149 169.79841 
L 59.381873 169.374916 
L 61.167473 167.439777 
L 61.467906 167.13729 
L 62.953073 165.625554 
L 64.111882 164.47617 
L 64.738673 163.839386 
L 66.559985 162.034458 
L 66.79585 161.81505 
L 68.345585 160.317102 
L 69.524367 159.15393 
L 70.131185 158.538336 
L 71.916785 156.716247 
L 72.145903 156.49281 
L 73.738097 154.907575 
L 74.765287 153.83169 
L 75.523697 153.040822 
L 77.219783 151.17057 
L 77.309297 151.073445 
L 79.094897 149.212716 
L 79.72815 148.50945 
L 80.916209 147.215225 
L 82.072575 145.84833 
L 82.701809 145.122315 
L 84.246111 143.18721 
L 84.487409 142.890874 
L 86.268888 140.52609 
L 86.273009 140.520712 
L 88.094321 138.034208 
L 88.206274 137.86497 
L 89.879921 135.392171 
L 89.995715 135.20385 
L 91.665521 132.615152 
L 91.949155 132.09921 
L 93.429642 129.43809 
L 93.451121 129.399169 
L 94.820517 126.77697 
L 95.272433 125.788125 
L 95.995671 124.11585 
L 96.94386 121.45473 
L 97.058033 121.100568 
L 97.769132 118.79361 
L 98.402947 116.13249 
L 98.843633 113.790068 
L 98.901834 113.47137 
L 99.335057 110.81025 
L 99.692659 108.14913 
L 100.015879 105.48801 
L 100.341431 102.82689 
L 100.629233 100.738325 
L 100.708496 100.16577 
L 101.16265 97.50465 
L 101.716626 94.84353 
L 102.399307 92.18241 
L 102.450545 92.022174 
L 103.26414 89.52129 
L 104.236145 87.054388 
L 104.491288 86.41665 
L 105.755071 83.75553 
L 106.021745 83.261276 
L 107.209769 81.09441 
L 107.807345 80.10612 
L 108.83249 78.43329 
L 109.628657 77.226287 
L 110.597091 75.77217 
L 111.414257 74.60976 
L 112.473745 73.11105 
L 113.199857 72.122999 
L 114.432543 70.44993 
L 114.985457 69.720343 
L 116.450389 67.78881 
L 116.806769 67.328659 
L 118.510469 65.12769 
L 118.592369 65.023689 
L 120.377969 62.760826 
L 120.609694 62.46657 
L 122.163569 60.523609 
L 122.735901 59.80545 
L 123.984881 58.256525 
L 124.878093 57.14433 
L 125.770481 56.043302 
L 127.029103 54.48321 
L 127.556081 53.834229 
L 129.182628 51.82209 
L 129.341681 51.626336 
L 131.162993 49.383695 
L 131.343519 49.16097 
L 132.948593 47.197188 
L 133.51702 46.49985 
L 134.734193 45.02838 
L 136.07924 43.39521 
L 136.519793 42.870559 
L 138.325005 40.73409 
L 138.341105 40.71542 
L 140.126705 38.681571 
L 140.66812 38.07297 
L 141.912305 36.716052 
L 143.13377 35.41185 
L 143.697905 34.829939 
L 145.519217 33.014726 
L 145.795509 32.75073 
L 147.304817 31.372286 
L 148.783655 30.08961 
L 149.090417 29.836333 
L 150.876017 28.470317 
L 152.35873 27.42849 
L 152.697329 27.204196 
L 154.482929 26.153259 
L 156.268529 25.237234 
L 157.357938 24.76737 
L 158.054129 24.487481 
L 159.875441 23.912799 
L 161.661041 23.509216 
L 163.446641 23.272239 
L 165.232241 23.21199 
L 167.053553 23.345112 
L 168.839153 23.680822 
L 170.624753 24.236424 
L 171.830809 24.76737 
L 172.410353 25.074444 
L 174.231665 26.343574 
L 175.457068 27.42849 
L 176.017265 28.076983 
L 177.455688 30.08961 
L 177.802865 30.798306 
L 178.631867 32.75073 
L 179.269242 35.41185 
L 179.473561 38.07297 
L 179.303698 40.73409 
L 178.806282 43.39521 
L 177.8624 46.49985 
L 177.802865 46.644305 
L 176.744923 49.16097 
L 176.017265 50.605546 
L 175.393483 51.82209 
L 174.231665 53.814767 
L 173.836241 54.48321 
L 172.410353 56.686071 
L 172.110712 57.14433 
L 170.624753 59.278005 
L 170.255356 59.80545 
L 168.839153 61.740923 
L 168.306968 62.46657 
L 167.053553 64.123274 
L 166.293363 65.12769 
L 165.232241 66.498232 
L 164.234085 67.78881 
L 163.446641 68.788348 
L 162.140447 70.44993 
L 161.661041 71.050762 
L 160.02159 73.11105 
L 159.875441 73.292603 
L 158.054129 75.555638 
L 157.880291 75.77217 
L 156.268529 77.76064 
L 155.726322 78.43329 
L 154.482929 79.965592 
L 153.571968 81.09441 
L 152.697329 82.172868 
L 151.419574 83.75553 
L 150.876017 84.425851 
L 149.266806 86.41665 
L 149.090417 86.632955 
L 147.304817 88.816346 
L 146.731415 89.52129 
L 145.519217 90.989685 
L 144.532832 92.18241 
L 143.697905 93.179873 
L 142.298555 94.84353 
L 141.912305 95.297093 
L 140.126705 97.374514 
L 140.01325 97.50465 
L 138.341105 99.398456 
L 137.654995 100.16577 
L 136.519793 101.42471 
L 135.234645 102.82689 
L 134.734193 103.370451 
L 132.948593 105.266495 
L 132.733535 105.48801 
L 131.162993 107.104372 
L 130.120676 108.14913 
L 129.341681 108.933978 
L 127.556081 110.677789 
L 127.413786 110.81025 
L 125.770481 112.358294 
L 124.552046 113.47137 
L 123.984881 113.999727 
L 122.163569 115.623601 
L 121.564943 116.13249 
L 120.377969 117.175303 
L 118.592369 118.706277 
L 118.483087 118.79361 
L 116.806769 120.200556 
L 115.298711 121.45473 
L 114.985457 121.73052 
L 113.199857 123.217029 
L 112.10952 124.11585 
L 111.414257 124.727482 
L 109.628657 126.263823 
L 109.012769 126.77697 
L 107.807345 127.853897 
L 106.09651 129.43809 
L 106.021745 129.510724 
L 104.236145 131.141117 
L 103.234771 132.09921 
L 102.450545 132.858222 
L 100.629233 134.695409 
L 100.134745 135.20385 
L 98.843633 136.502209 
L 97.581807 137.86497 
L 97.058033 138.423434 
L 95.272433 140.435509 
L 95.190211 140.52609 
L 93.451121 142.409516 
L 92.799975 143.18721 
L 91.665521 144.50934 
L 90.620894 145.84833 
L 89.879921 146.77721 
L 88.613131 148.50945 
L 88.094321 149.204502 
L 86.732924 151.17057 
L 86.273009 151.829233 
L 84.966504 153.83169 
L 84.487409 154.563365 
L 83.303476 156.49281 
L 82.701809 157.49592 
L 81.765536 159.15393 
L 80.916209 160.761766 
L 80.388724 161.81505 
L 79.199932 164.47617 
L 79.094897 164.725801 
L 78.114581 167.13729 
L 77.309297 169.63447 
L 77.257744 169.79841 
L 76.470942 172.45953 
L 75.836465 175.12065 
L 75.523697 176.566912 
L 75.166549 178.22529 
L 74.622753 180.88641 
L 74.094444 183.54753 
L 73.738097 185.229277 
L 73.51884 186.20865 
L 72.84301 188.86977 
L 72.077041 191.53089 
L 71.916785 192.000197 
L 71.108035 194.19201 
L 70.131185 196.491425 
L 69.963236 196.85313 
L 68.547198 199.51425 
L 68.345585 199.851713 
L 66.839049 202.17537 
L 66.559985 202.571014 
L 64.831232 204.83649 
L 64.738673 204.951204 
L 62.953073 206.978336 
L 62.456796 207.49761 
L 61.167473 208.813202 
L 59.765628 210.15873 
L 59.381873 210.52294 
L 57.560561 212.087469 
L 56.630601 212.81985 
L 55.774961 213.489508 
L 53.989361 214.72115 
L 52.709736 215.48097 
L 52.203761 215.773294 
L 50.382449 216.486824 
L 48.596849 216.789659 
L 46.811249 216.34035 
L 45.947157 215.48097 
z
" clip-path="url(#p7f4ebbd76e)" style="fill: none; stroke: #2b7bba; stroke-width: 1.5"/>
   </g>
   <g id="PathCollection_7">
    <path d="M 110.711071 102.82689 
L 110.046752 100.16577 
L 109.861172 97.50465 
L 110.031459 94.84353 
L 110.493322 92.18241 
L 111.206309 89.52129 
L 111.414257 88.973992 
L 112.401255 86.41665 
L 113.199857 84.732908 
L 113.673766 83.75553 
L 114.985457 81.400355 
L 115.158585 81.09441 
L 116.806769 78.465536 
L 116.827154 78.43329 
L 118.592369 75.848943 
L 118.644832 75.77217 
L 120.377969 73.377315 
L 120.569719 73.11105 
L 122.163569 70.992936 
L 122.569045 70.44993 
L 123.984881 68.617247 
L 124.61849 67.78881 
L 125.770481 66.328532 
L 126.706278 65.12769 
L 127.556081 64.066813 
L 128.821374 62.46657 
L 129.341681 61.824252 
L 130.956462 59.80545 
L 131.162993 59.552131 
L 132.948593 57.350277 
L 133.114515 57.14433 
L 134.734193 55.175298 
L 135.294672 54.48321 
L 136.519793 52.999468 
L 137.479755 51.82209 
L 138.341105 50.785668 
L 139.678934 49.16097 
L 140.126705 48.63059 
L 141.912305 46.504998 
L 141.916697 46.49985 
L 143.697905 44.511832 
L 144.685628 43.39521 
L 145.519217 42.503649 
L 147.198093 40.73409 
L 147.304817 40.627527 
L 149.090417 38.941171 
L 150.044111 38.07297 
L 150.876017 37.367684 
L 152.697329 35.933233 
L 153.427926 35.41185 
L 154.482929 34.722815 
L 156.268529 33.713174 
L 158.054129 32.867363 
L 158.395883 32.75073 
L 159.875441 32.301298 
L 161.661041 31.994786 
L 163.446641 31.958278 
L 165.232241 32.240685 
L 166.624007 32.75073 
L 167.053553 32.970705 
L 168.839153 34.486799 
L 169.584811 35.41185 
L 170.624753 37.767729 
L 170.727785 38.07297 
L 171.010021 40.73409 
L 170.764915 43.39521 
L 170.624753 43.913421 
L 169.908346 46.49985 
L 168.839153 49.14285 
L 168.831619 49.16097 
L 167.435146 51.82209 
L 167.053553 52.457559 
L 165.822959 54.48321 
L 165.232241 55.370941 
L 164.047055 57.14433 
L 163.446641 57.986148 
L 162.151987 59.80545 
L 161.661041 60.463494 
L 160.175944 62.46657 
L 159.875441 62.85732 
L 158.143278 65.12769 
L 158.054129 65.241214 
L 156.268529 67.514944 
L 156.055403 67.78881 
L 154.482929 69.750757 
L 153.930493 70.44993 
L 152.697329 71.971187 
L 151.786087 73.11105 
L 150.876017 74.226938 
L 149.633432 75.77217 
L 149.090417 76.435376 
L 147.478025 78.43329 
L 147.304817 78.644564 
L 145.519217 80.830255 
L 145.304717 81.09441 
L 143.697905 83.038097 
L 143.111628 83.75553 
L 141.912305 85.191078 
L 140.897062 86.41665 
L 140.126705 87.31568 
L 138.341105 89.432286 
L 138.264843 89.52129 
L 136.519793 91.472992 
L 135.882377 92.18241 
L 134.734193 93.417279 
L 133.393853 94.84353 
L 132.948593 95.302648 
L 131.162993 97.081448 
L 130.71887 97.50465 
L 129.341681 98.778623 
L 127.791165 100.16577 
L 127.556081 100.371362 
L 125.770481 101.795934 
L 124.393206 102.82689 
L 123.984881 103.128048 
L 122.163569 104.288417 
L 120.377969 105.288656 
L 119.900467 105.48801 
L 118.592369 106.034913 
L 116.806769 106.500406 
L 114.985457 106.581606 
L 113.199857 106.058112 
L 112.44825 105.48801 
L 111.414257 104.292633 
L 110.711071 102.82689 
z
" clip-path="url(#p7f4ebbd76e)" style="fill: none; stroke: #0b559f; stroke-width: 1.5"/>
    <path d="M 157.8674 280.23489 
L 157.453153 277.57377 
L 157.807342 274.91265 
L 158.054129 274.187752 
L 158.714427 272.25153 
L 159.875441 269.797123 
L 159.973086 269.59041 
L 161.527294 266.92929 
L 161.661041 266.731099 
L 163.446641 264.049655 
L 163.593716 263.82465 
L 165.232241 261.567618 
L 165.522635 261.16353 
L 167.053553 259.155118 
L 167.54495 258.50241 
L 168.839153 256.854671 
L 169.623304 255.84129 
L 170.624753 254.584755 
L 171.726597 253.18017 
L 172.410353 252.327101 
L 173.83774 250.51905 
L 174.231665 250.028008 
L 175.947099 247.85793 
L 176.017265 247.770647 
L 177.802865 245.544703 
L 178.077991 245.19681 
L 179.588465 243.326526 
L 180.217112 242.53569 
L 181.409777 241.064424 
L 182.359643 239.87457 
L 183.195377 238.848682 
L 184.506437 237.21345 
L 184.980977 236.631999 
L 186.651453 234.55233 
L 186.766577 234.411096 
L 188.587889 232.165303 
L 188.807384 231.89121 
L 190.373489 229.964677 
L 190.959631 229.23009 
L 192.159089 227.747989 
L 193.096594 226.56897 
L 193.944689 225.518327 
L 195.22461 223.90785 
L 195.766001 223.242242 
L 197.551601 220.99681 
L 197.704036 220.80321 
L 199.337201 218.7933 
L 199.857557 218.14209 
L 201.122801 216.592189 
L 202.016185 215.48097 
L 202.944113 214.347245 
L 204.17582 212.81985 
L 204.729713 212.144603 
L 206.334558 210.15873 
L 206.515313 209.938418 
L 208.300913 207.752761 
L 208.508076 207.49761 
L 210.122225 205.543404 
L 210.69906 204.83649 
L 211.907825 203.386215 
L 212.907732 202.17537 
L 213.693425 201.246995 
L 215.153135 199.51425 
L 215.479025 199.137893 
L 217.300337 197.052963 
L 217.47801 196.85313 
L 219.085937 195.106497 
L 219.934928 194.19201 
L 220.871537 193.215288 
L 222.51188 191.53089 
L 222.657137 191.385681 
L 224.478449 189.664176 
L 225.350645 188.86977 
L 226.264049 188.056089 
L 228.049649 186.549618 
L 228.494151 186.20865 
L 229.835249 185.191424 
L 231.656561 183.922489 
L 232.290625 183.54753 
L 233.442161 182.860203 
L 235.227761 181.995707 
L 237.013361 181.36645 
L 238.834673 181.09113 
L 240.620273 181.40759 
L 242.405873 182.766128 
L 242.907124 183.54753 
L 243.927321 186.20865 
L 244.191473 187.771094 
L 244.323342 188.86977 
L 244.338945 191.53089 
L 244.191473 192.952823 
L 244.057547 194.19201 
L 243.482324 196.85313 
L 242.671794 199.51425 
L 242.405873 200.176762 
L 241.581854 202.17537 
L 240.620273 204.141673 
L 240.273303 204.83649 
L 238.834673 207.360796 
L 238.755554 207.49761 
L 237.055505 210.15873 
L 237.013361 210.220042 
L 235.227761 212.810027 
L 235.220978 212.81985 
L 233.442161 215.258998 
L 233.281213 215.48097 
L 231.656561 217.62888 
L 231.271588 218.14209 
L 229.835249 219.994727 
L 229.215005 220.80321 
L 228.049649 222.263596 
L 226.774769 223.90785 
L 226.264049 224.543906 
L 224.659351 226.56897 
L 224.478449 226.792323 
L 222.657137 229.056549 
L 222.518603 229.23009 
L 220.871537 231.25147 
L 220.359449 231.89121 
L 219.085937 233.456045 
L 218.209454 234.55233 
L 217.300337 235.673541 
L 216.07206 237.21345 
L 215.479025 237.948127 
L 213.948003 239.87457 
L 213.693425 240.190211 
L 211.907825 242.429319 
L 211.823479 242.53569 
L 210.122225 244.638329 
L 209.677671 245.19681 
L 208.300913 246.893204 
L 207.530145 247.85793 
L 206.515313 249.102407 
L 205.378658 250.51905 
L 204.729713 251.3132 
L 203.228384 253.18017 
L 202.944113 253.528205 
L 201.122801 255.787124 
L 201.079302 255.84129 
L 199.337201 257.974013 
L 198.913274 258.50241 
L 197.551601 260.170089 
L 196.753486 261.16353 
L 195.766001 262.367514 
L 194.586143 263.82465 
L 193.944689 264.59118 
L 192.159089 266.765137 
L 192.024302 266.92929 
L 190.373489 268.842007 
L 189.732216 269.59041 
L 188.587889 270.864762 
L 187.343286 272.25153 
L 186.766577 272.860653 
L 184.980977 274.72095 
L 184.791455 274.91265 
L 183.195377 276.4104 
L 181.933156 277.57377 
L 181.409777 278.016863 
L 179.588465 279.466934 
L 178.567862 280.23489 
L 177.802865 280.751379 
L 176.017265 281.839846 
L 174.231665 282.827543 
L 174.083532 282.89601 
L 172.410353 283.566862 
L 170.624753 284.136064 
L 168.839153 284.543682 
L 167.053553 284.76568 
L 165.232241 284.768314 
L 163.446641 284.509835 
L 161.661041 283.939056 
L 159.875441 282.985895 
L 159.754101 282.89601 
L 158.054129 280.584434 
L 157.8674 280.23489 
z
" clip-path="url(#p7f4ebbd76e)" style="fill: none; stroke: #0b559f; stroke-width: 1.5"/>
    <path d="M 252.996157 145.84833 
L 252.696696 143.18721 
L 252.728683 140.52609 
L 253.042404 137.86497 
L 253.190897 137.204 
L 253.656955 135.20385 
L 254.686097 132.09921 
L 254.976497 131.426716 
L 255.856916 129.43809 
L 256.762097 127.688744 
L 257.242746 126.77697 
L 258.547697 124.580746 
L 258.827326 124.11585 
L 260.369009 121.767521 
L 260.57537 121.45473 
L 262.154609 119.214123 
L 262.450356 118.79361 
L 263.940209 116.777623 
L 264.413797 116.13249 
L 265.725809 114.413461 
L 266.438572 113.47137 
L 267.547121 112.05073 
L 268.504848 110.81025 
L 269.332721 109.768195 
L 270.602885 108.14913 
L 271.118321 107.508404 
L 272.721956 105.48801 
L 272.903921 105.263584 
L 274.725233 103.001409 
L 274.864654 102.82689 
L 276.510833 100.806877 
L 277.024012 100.16577 
L 278.296433 98.601581 
L 279.172995 97.50465 
L 280.082033 96.382848 
L 281.30914 94.84353 
L 281.903345 94.107149 
L 283.432674 92.18241 
L 283.688945 91.864741 
L 285.474545 89.626385 
L 285.557929 89.52129 
L 287.260145 87.43859 
L 288.06799 86.41665 
L 289.081457 85.170421 
L 290.215188 83.75553 
L 290.867057 82.957953 
L 292.367255 81.09441 
L 292.652657 80.746042 
L 294.438257 78.543288 
L 294.527188 78.43329 
L 296.259569 76.325999 
L 296.707911 75.77217 
L 298.045169 74.149077 
L 298.888427 73.11105 
L 299.830769 71.972544 
L 301.07738 70.44993 
L 301.616369 69.805638 
L 303.293614 67.78881 
L 303.437681 67.6196 
L 305.223281 65.551279 
L 305.590776 65.12769 
L 307.008881 63.547017 
L 307.982829 62.46657 
L 308.794481 61.595704 
L 310.48433 59.80545 
L 310.615793 59.670173 
L 312.401393 57.922248 
L 313.220216 57.14433 
L 314.186993 56.253148 
L 315.972593 54.674986 
L 316.210443 54.48321 
L 317.793905 53.237805 
L 319.579505 51.918024 
L 319.732064 51.82209 
L 321.365105 50.814229 
L 323.150705 49.867771 
L 324.860499 49.16097 
L 324.972017 49.115053 
L 326.757617 48.719914 
L 328.543217 48.713295 
L 329.972358 49.16097 
L 330.328817 49.317293 
L 332.150129 51.261889 
L 332.445594 51.82209 
L 333.262503 54.48321 
L 333.549454 57.14433 
L 333.453204 59.80545 
L 333.04985 62.46657 
L 332.385438 65.12769 
L 332.150129 65.795589 
L 331.425959 67.78881 
L 330.328817 70.270313 
L 330.247349 70.44993 
L 328.815348 73.11105 
L 328.543217 73.56125 
L 327.192106 75.77217 
L 326.757617 76.426234 
L 325.418625 78.43329 
L 324.972017 79.062802 
L 323.531377 81.09441 
L 323.150705 81.607938 
L 321.566165 83.75553 
L 321.365105 84.01839 
L 319.579505 86.368074 
L 319.542639 86.41665 
L 317.793905 88.624008 
L 317.103431 89.52129 
L 315.972593 90.938206 
L 314.992214 92.18241 
L 314.186993 93.179525 
L 312.862446 94.84353 
L 312.401393 95.410983 
L 310.72564 97.50465 
L 310.615793 97.63966 
L 308.794481 99.888276 
L 308.5725 100.16577 
L 307.008881 102.089686 
L 306.420675 102.82689 
L 305.223281 104.306181 
L 304.283362 105.48801 
L 303.437681 106.535677 
L 302.155497 108.14913 
L 301.616369 108.817498 
L 300.032114 110.81025 
L 299.830769 111.058942 
L 298.045169 113.280895 
L 297.89326 113.47137 
L 296.259569 115.474803 
L 295.731695 116.13249 
L 294.438257 117.713612 
L 293.56828 118.79361 
L 292.652657 119.909632 
L 291.404642 121.45473 
L 290.867057 122.10968 
L 289.243951 124.11585 
L 289.081457 124.313665 
L 287.260145 126.537356 
L 287.064991 126.77697 
L 285.474545 128.689277 
L 284.858466 129.43809 
L 283.688945 130.825689 
L 282.622306 132.09921 
L 281.903345 132.927489 
L 280.082033 135.045716 
L 279.943902 135.20385 
L 278.296433 137.007118 
L 277.507036 137.86497 
L 276.510833 138.912622 
L 274.954763 140.52609 
L 274.725233 140.757563 
L 272.903921 142.504855 
L 272.164256 143.18721 
L 271.118321 144.129331 
L 269.332721 145.667664 
L 269.101047 145.84833 
L 267.547121 147.043424 
L 265.725809 148.352295 
L 265.465809 148.50945 
L 263.940209 149.436445 
L 262.154609 150.351433 
L 260.369009 151.047821 
L 259.702769 151.17057 
L 258.547697 151.395236 
L 256.762097 151.237132 
L 256.61487 151.17057 
L 254.976497 150.126438 
L 253.891664 148.50945 
L 253.190897 146.646424 
L 252.996157 145.84833 
z
" clip-path="url(#p7f4ebbd76e)" style="fill: none; stroke: #0b559f; stroke-width: 1.5"/>
    <path d="M 344.175526 272.25153 
L 343.882288 269.59041 
L 344.133512 266.92929 
L 344.685041 264.859186 
L 344.967787 263.82465 
L 346.073735 261.16353 
L 346.506353 260.325915 
L 347.467662 258.50241 
L 348.291953 257.139353 
L 349.086441 255.84129 
L 350.077553 254.370118 
L 350.883821 253.18017 
L 351.863153 251.831442 
L 352.818487 250.51905 
L 353.684465 249.389019 
L 354.858717 247.85793 
L 355.470065 247.095408 
L 356.993318 245.19681 
L 357.255665 244.882751 
L 359.041265 242.770137 
L 359.242909 242.53569 
L 360.862577 240.732583 
L 361.642409 239.87457 
L 362.648177 238.815024 
L 364.19719 237.21345 
L 364.433777 236.97866 
L 366.219377 235.305337 
L 367.062885 234.55233 
L 368.040689 233.717019 
L 369.826289 232.299778 
L 370.402927 231.89121 
L 371.611889 231.076222 
L 373.397489 230.036665 
L 375.089601 229.23009 
L 375.218801 229.171639 
L 377.004401 228.64328 
L 378.790001 228.408534 
L 380.575601 228.548717 
L 382.396913 229.190677 
L 382.457963 229.23009 
L 384.182513 230.796246 
L 384.937251 231.89121 
L 385.968113 234.509343 
L 385.98065 234.55233 
L 386.292914 237.21345 
L 386.1714 239.87457 
L 385.968113 240.965465 
L 385.662311 242.53569 
L 384.820001 245.19681 
L 384.182513 246.721912 
L 383.693796 247.85793 
L 382.396913 250.37433 
L 382.320662 250.51905 
L 380.713527 253.18017 
L 380.575601 253.387974 
L 378.9328 255.84129 
L 378.790001 256.040379 
L 377.017571 258.50241 
L 377.004401 258.519746 
L 375.218801 260.841419 
L 374.970468 261.16353 
L 373.397489 263.104452 
L 372.811856 263.82465 
L 371.611889 265.213164 
L 370.140592 266.92929 
L 369.826289 267.273664 
L 368.040689 269.172886 
L 367.634908 269.59041 
L 366.219377 270.95554 
L 364.829424 272.25153 
L 364.433777 272.595297 
L 362.648177 274.023963 
L 361.448511 274.91265 
L 360.862577 275.31084 
L 359.041265 276.379154 
L 357.255665 277.268435 
L 356.447106 277.57377 
L 355.470065 277.902899 
L 353.684465 278.273013 
L 351.863153 278.38358 
L 350.077553 278.182804 
L 348.291953 277.619592 
L 348.204467 277.57377 
L 346.506353 276.30278 
L 345.295663 274.91265 
L 344.685041 273.652132 
L 344.175526 272.25153 
z
" clip-path="url(#p7f4ebbd76e)" style="fill: none; stroke: #0b559f; stroke-width: 1.5"/>
   </g>
   <g id="PathCollection_8"/>
   <g id="patch_3">
    <path d="M 34.240625 288.21825 
L 34.240625 22.10625 
" style="fill: none; stroke: #000000; stroke-width: 0.8; stroke-linejoin: miter; stroke-linecap: square"/>
   </g>
   <g id="patch_4">
    <path d="M 391.360625 288.21825 
L 391.360625 22.10625 
" style="fill: none; stroke: #000000; stroke-width: 0.8; stroke-linejoin: miter; stroke-linecap: square"/>
   </g>
   <g id="patch_5">
    <path d="M 34.240625 288.21825 
L 391.360625 288.21825 
" style="fill: none; stroke: #000000; stroke-width: 0.8; stroke-linejoin: miter; stroke-linecap: square"/>
   </g>
   <g id="patch_6">
    <path d="M 34.240625 22.10625 
L 391.360625 22.10625 
" style="fill: none; stroke: #000000; stroke-width: 0.8; stroke-linejoin: miter; stroke-linecap: square"/>
   </g>
   <g id="text_16">
    <!-- 8.7_cross_20.0 -->
    <g transform="translate(168.34625 16.10625)scale(0.12 -0.12)">
     <defs>
      <path id="DejaVuSans-2e" d="M 684 794 
L 1344 794 
L 1344 0 
L 684 0 
L 684 794 
z
" transform="scale(0.015625)"/>
      <path id="DejaVuSans-37" d="M 525 4666 
L 3525 4666 
L 3525 4397 
L 1831 0 
L 1172 0 
L 2766 4134 
L 525 4134 
L 525 4666 
z
" transform="scale(0.015625)"/>
      <path id="DejaVuSans-5f" d="M 3263 -1063 
L 3263 -1509 
L -63 -1509 
L -63 -1063 
L 3263 -1063 
z
" transform="scale(0.015625)"/>
      <path id="DejaVuSans-63" d="M 3122 3366 
L 3122 2828 
Q 2878 2963 2633 3030 
Q 2388 3097 2138 3097 
Q 1578 3097 1268 2742 
Q 959 2388 959 1747 
Q 959 1106 1268 751 
Q 1578 397 2138 397 
Q 2388 397 2633 464 
Q 2878 531 3122 666 
L 3122 134 
Q 2881 22 2623 -34 
Q 2366 -91 2075 -91 
Q 1284 -91 818 406 
Q 353 903 353 1747 
Q 353 2603 823 3093 
Q 1294 3584 2113 3584 
Q 2378 3584 2631 3529 
Q 2884 3475 3122 3366 
z
" transform="scale(0.015625)"/>
      <path id="DejaVuSans-72" d="M 2631 2963 
Q 2534 3019 2420 3045 
Q 2306 3072 2169 3072 
Q 1681 3072 1420 2755 
Q 1159 2438 1159 1844 
L 1159 0 
L 581 0 
L 581 3500 
L 1159 3500 
L 1159 2956 
Q 1341 3275 1631 3429 
Q 1922 3584 2338 3584 
Q 2397 3584 2469 3576 
Q 2541 3569 2628 3553 
L 2631 2963 
z
" transform="scale(0.015625)"/>
      <path id="DejaVuSans-73" d="M 2834 3397 
L 2834 2853 
Q 2591 2978 2328 3040 
Q 2066 3103 1784 3103 
Q 1356 3103 1142 2972 
Q 928 2841 928 2578 
Q 928 2378 1081 2264 
Q 1234 2150 1697 2047 
L 1894 2003 
Q 2506 1872 2764 1633 
Q 3022 1394 3022 966 
Q 3022 478 2636 193 
Q 2250 -91 1575 -91 
Q 1294 -91 989 -36 
Q 684 19 347 128 
L 347 722 
Q 666 556 975 473 
Q 1284 391 1588 391 
Q 1994 391 2212 530 
Q 2431 669 2431 922 
Q 2431 1156 2273 1281 
Q 2116 1406 1581 1522 
L 1381 1569 
Q 847 1681 609 1914 
Q 372 2147 372 2553 
Q 372 3047 722 3315 
Q 1072 3584 1716 3584 
Q 2034 3584 2315 3537 
Q 2597 3491 2834 3397 
z
" transform="scale(0.015625)"/>
     </defs>
     <use xlink:href="#DejaVuSans-38"/>
     <use xlink:href="#DejaVuSans-2e" x="63.623047"/>
     <use xlink:href="#DejaVuSans-37" x="95.410156"/>
     <use xlink:href="#DejaVuSans-5f" x="159.033203"/>
     <use xlink:href="#DejaVuSans-63" x="209.033203"/>
     <use xlink:href="#DejaVuSans-72" x="264.013672"/>
     <use xlink:href="#DejaVuSans-6f" x="302.876953"/>
     <use xlink:href="#DejaVuSans-73" x="364.058594"/>
     <use xlink:href="#DejaVuSans-73" x="416.158203"/>
     <use xlink:href="#DejaVuSans-5f" x="468.257812"/>
     <use xlink:href="#DejaVuSans-32" x="518.257812"/>
     <use xlink:href="#DejaVuSans-30" x="581.880859"/>
     <use xlink:href="#DejaVuSans-2e" x="645.503906"/>
     <use xlink:href="#DejaVuSans-30" x="677.291016"/>
    </g>
   </g>
  </g>
 </g>
 <defs>
  <clipPath id="p7f4ebbd76e">
   <rect x="34.240625" y="22.10625" width="357.12" height="266.112"/>
  </clipPath>
 </defs>
</svg>
