<?xml version="1.0" encoding="utf-8" standalone="no"?>
<!DOCTYPE svg PUBLIC "-//W3C//DTD SVG 1.1//EN"
  "http://www.w3.org/Graphics/SVG/1.1/DTD/svg11.dtd">
<svg xmlns:xlink="http://www.w3.org/1999/xlink" width="408.104375pt" height="325.7745pt" viewBox="0 0 408.104375 325.7745" xmlns="http://www.w3.org/2000/svg" version="1.1">
 <metadata>
  <rdf:RDF xmlns:dc="http://purl.org/dc/elements/1.1/" xmlns:cc="http://creativecommons.org/ns#" xmlns:rdf="http://www.w3.org/1999/02/22-rdf-syntax-ns#">
   <cc:Work>
    <dc:type rdf:resource="http://purl.org/dc/dcmitype/StillImage"/>
    <dc:date>2024-07-12T12:09:52.718056</dc:date>
    <dc:format>image/svg+xml</dc:format>
    <dc:creator>
     <cc:Agent>
      <dc:title>Matplotlib v3.5.3, https://matplotlib.org/</dc:title>
     </cc:Agent>
    </dc:creator>
   </cc:Work>
  </rdf:RDF>
 </metadata>
 <defs>
  <style type="text/css">*{stroke-linejoin: round; stroke-linecap: butt}</style>
 </defs>
 <g id="figure_1">
  <g id="patch_1">
   <path d="M 0 325.7745 
L 408.104375 325.7745 
L 408.104375 0 
L 0 0 
z
" style="fill: #ffffff"/>
  </g>
  <g id="axes_1">
   <g id="patch_2">
    <path d="M 34.240625 288.21825 
L 391.360625 288.21825 
L 391.360625 22.10625 
L 34.240625 22.10625 
z
" style="fill: #ffffff"/>
   </g>
   <g id="matplotlib.axis_1">
    <g id="xtick_1">
     <g id="line2d_1">
      <defs>
       <path id="m5859c7d820" d="M 0 0 
L 0 3.5 
" style="stroke: #000000; stroke-width: 0.8"/>
      </defs>
      <g>
       <use xlink:href="#m5859c7d820" x="34.240625" y="288.21825" style="stroke: #000000; stroke-width: 0.8"/>
      </g>
     </g>
     <g id="text_1">
      <!-- 0 -->
      <g transform="translate(31.059375 302.816687)scale(0.1 -0.1)">
       <defs>
        <path id="DejaVuSans-30" d="M 2034 4250 
Q 1547 4250 1301 3770 
Q 1056 3291 1056 2328 
Q 1056 1369 1301 889 
Q 1547 409 2034 409 
Q 2525 409 2770 889 
Q 3016 1369 3016 2328 
Q 3016 3291 2770 3770 
Q 2525 4250 2034 4250 
z
M 2034 4750 
Q 2819 4750 3233 4129 
Q 3647 3509 3647 2328 
Q 3647 1150 3233 529 
Q 2819 -91 2034 -91 
Q 1250 -91 836 529 
Q 422 1150 422 2328 
Q 422 3509 836 4129 
Q 1250 4750 2034 4750 
z
" transform="scale(0.015625)"/>
       </defs>
       <use xlink:href="#DejaVuSans-30"/>
      </g>
     </g>
    </g>
    <g id="xtick_2">
     <g id="line2d_2">
      <g>
       <use xlink:href="#m5859c7d820" x="105.664625" y="288.21825" style="stroke: #000000; stroke-width: 0.8"/>
      </g>
     </g>
     <g id="text_2">
      <!-- 20 -->
      <g transform="translate(99.302125 302.816687)scale(0.1 -0.1)">
       <defs>
        <path id="DejaVuSans-32" d="M 1228 531 
L 3431 531 
L 3431 0 
L 469 0 
L 469 531 
Q 828 903 1448 1529 
Q 2069 2156 2228 2338 
Q 2531 2678 2651 2914 
Q 2772 3150 2772 3378 
Q 2772 3750 2511 3984 
Q 2250 4219 1831 4219 
Q 1534 4219 1204 4116 
Q 875 4013 500 3803 
L 500 4441 
Q 881 4594 1212 4672 
Q 1544 4750 1819 4750 
Q 2544 4750 2975 4387 
Q 3406 4025 3406 3419 
Q 3406 3131 3298 2873 
Q 3191 2616 2906 2266 
Q 2828 2175 2409 1742 
Q 1991 1309 1228 531 
z
" transform="scale(0.015625)"/>
       </defs>
       <use xlink:href="#DejaVuSans-32"/>
       <use xlink:href="#DejaVuSans-30" x="63.623047"/>
      </g>
     </g>
    </g>
    <g id="xtick_3">
     <g id="line2d_3">
      <g>
       <use xlink:href="#m5859c7d820" x="177.088625" y="288.21825" style="stroke: #000000; stroke-width: 0.8"/>
      </g>
     </g>
     <g id="text_3">
      <!-- 40 -->
      <g transform="translate(170.726125 302.816687)scale(0.1 -0.1)">
       <defs>
        <path id="DejaVuSans-34" d="M 2419 4116 
L 825 1625 
L 2419 1625 
L 2419 4116 
z
M 2253 4666 
L 3047 4666 
L 3047 1625 
L 3713 1625 
L 3713 1100 
L 3047 1100 
L 3047 0 
L 2419 0 
L 2419 1100 
L 313 1100 
L 313 1709 
L 2253 4666 
z
" transform="scale(0.015625)"/>
       </defs>
       <use xlink:href="#DejaVuSans-34"/>
       <use xlink:href="#DejaVuSans-30" x="63.623047"/>
      </g>
     </g>
    </g>
    <g id="xtick_4">
     <g id="line2d_4">
      <g>
       <use xlink:href="#m5859c7d820" x="248.512625" y="288.21825" style="stroke: #000000; stroke-width: 0.8"/>
      </g>
     </g>
     <g id="text_4">
      <!-- 60 -->
      <g transform="translate(242.150125 302.816687)scale(0.1 -0.1)">
       <defs>
        <path id="DejaVuSans-36" d="M 2113 2584 
Q 1688 2584 1439 2293 
Q 1191 2003 1191 1497 
Q 1191 994 1439 701 
Q 1688 409 2113 409 
Q 2538 409 2786 701 
Q 3034 994 3034 1497 
Q 3034 2003 2786 2293 
Q 2538 2584 2113 2584 
z
M 3366 4563 
L 3366 3988 
Q 3128 4100 2886 4159 
Q 2644 4219 2406 4219 
Q 1781 4219 1451 3797 
Q 1122 3375 1075 2522 
Q 1259 2794 1537 2939 
Q 1816 3084 2150 3084 
Q 2853 3084 3261 2657 
Q 3669 2231 3669 1497 
Q 3669 778 3244 343 
Q 2819 -91 2113 -91 
Q 1303 -91 875 529 
Q 447 1150 447 2328 
Q 447 3434 972 4092 
Q 1497 4750 2381 4750 
Q 2619 4750 2861 4703 
Q 3103 4656 3366 4563 
z
" transform="scale(0.015625)"/>
       </defs>
       <use xlink:href="#DejaVuSans-36"/>
       <use xlink:href="#DejaVuSans-30" x="63.623047"/>
      </g>
     </g>
    </g>
    <g id="xtick_5">
     <g id="line2d_5">
      <g>
       <use xlink:href="#m5859c7d820" x="319.936625" y="288.21825" style="stroke: #000000; stroke-width: 0.8"/>
      </g>
     </g>
     <g id="text_5">
      <!-- 80 -->
      <g transform="translate(313.574125 302.816687)scale(0.1 -0.1)">
       <defs>
        <path id="DejaVuSans-38" d="M 2034 2216 
Q 1584 2216 1326 1975 
Q 1069 1734 1069 1313 
Q 1069 891 1326 650 
Q 1584 409 2034 409 
Q 2484 409 2743 651 
Q 3003 894 3003 1313 
Q 3003 1734 2745 1975 
Q 2488 2216 2034 2216 
z
M 1403 2484 
Q 997 2584 770 2862 
Q 544 3141 544 3541 
Q 544 4100 942 4425 
Q 1341 4750 2034 4750 
Q 2731 4750 3128 4425 
Q 3525 4100 3525 3541 
Q 3525 3141 3298 2862 
Q 3072 2584 2669 2484 
Q 3125 2378 3379 2068 
Q 3634 1759 3634 1313 
Q 3634 634 3220 271 
Q 2806 -91 2034 -91 
Q 1263 -91 848 271 
Q 434 634 434 1313 
Q 434 1759 690 2068 
Q 947 2378 1403 2484 
z
M 1172 3481 
Q 1172 3119 1398 2916 
Q 1625 2713 2034 2713 
Q 2441 2713 2670 2916 
Q 2900 3119 2900 3481 
Q 2900 3844 2670 4047 
Q 2441 4250 2034 4250 
Q 1625 4250 1398 4047 
Q 1172 3844 1172 3481 
z
" transform="scale(0.015625)"/>
       </defs>
       <use xlink:href="#DejaVuSans-38"/>
       <use xlink:href="#DejaVuSans-30" x="63.623047"/>
      </g>
     </g>
    </g>
    <g id="xtick_6">
     <g id="line2d_6">
      <g>
       <use xlink:href="#m5859c7d820" x="391.360625" y="288.21825" style="stroke: #000000; stroke-width: 0.8"/>
      </g>
     </g>
     <g id="text_6">
      <!-- 100 -->
      <g transform="translate(381.816875 302.816687)scale(0.1 -0.1)">
       <defs>
        <path id="DejaVuSans-31" d="M 794 531 
L 1825 531 
L 1825 4091 
L 703 3866 
L 703 4441 
L 1819 4666 
L 2450 4666 
L 2450 531 
L 3481 531 
L 3481 0 
L 794 0 
L 794 531 
z
" transform="scale(0.015625)"/>
       </defs>
       <use xlink:href="#DejaVuSans-31"/>
       <use xlink:href="#DejaVuSans-30" x="63.623047"/>
       <use xlink:href="#DejaVuSans-30" x="127.246094"/>
      </g>
     </g>
    </g>
    <g id="text_7">
     <!-- axialRotation -->
     <g transform="translate(180.024844 316.494812)scale(0.1 -0.1)">
      <defs>
       <path id="DejaVuSans-61" d="M 2194 1759 
Q 1497 1759 1228 1600 
Q 959 1441 959 1056 
Q 959 750 1161 570 
Q 1363 391 1709 391 
Q 2188 391 2477 730 
Q 2766 1069 2766 1631 
L 2766 1759 
L 2194 1759 
z
M 3341 1997 
L 3341 0 
L 2766 0 
L 2766 531 
Q 2569 213 2275 61 
Q 1981 -91 1556 -91 
Q 1019 -91 701 211 
Q 384 513 384 1019 
Q 384 1609 779 1909 
Q 1175 2209 1959 2209 
L 2766 2209 
L 2766 2266 
Q 2766 2663 2505 2880 
Q 2244 3097 1772 3097 
Q 1472 3097 1187 3025 
Q 903 2953 641 2809 
L 641 3341 
Q 956 3463 1253 3523 
Q 1550 3584 1831 3584 
Q 2591 3584 2966 3190 
Q 3341 2797 3341 1997 
z
" transform="scale(0.015625)"/>
       <path id="DejaVuSans-78" d="M 3513 3500 
L 2247 1797 
L 3578 0 
L 2900 0 
L 1881 1375 
L 863 0 
L 184 0 
L 1544 1831 
L 300 3500 
L 978 3500 
L 1906 2253 
L 2834 3500 
L 3513 3500 
z
" transform="scale(0.015625)"/>
       <path id="DejaVuSans-69" d="M 603 3500 
L 1178 3500 
L 1178 0 
L 603 0 
L 603 3500 
z
M 603 4863 
L 1178 4863 
L 1178 4134 
L 603 4134 
L 603 4863 
z
" transform="scale(0.015625)"/>
       <path id="DejaVuSans-6c" d="M 603 4863 
L 1178 4863 
L 1178 0 
L 603 0 
L 603 4863 
z
" transform="scale(0.015625)"/>
       <path id="DejaVuSans-52" d="M 2841 2188 
Q 3044 2119 3236 1894 
Q 3428 1669 3622 1275 
L 4263 0 
L 3584 0 
L 2988 1197 
Q 2756 1666 2539 1819 
Q 2322 1972 1947 1972 
L 1259 1972 
L 1259 0 
L 628 0 
L 628 4666 
L 2053 4666 
Q 2853 4666 3247 4331 
Q 3641 3997 3641 3322 
Q 3641 2881 3436 2590 
Q 3231 2300 2841 2188 
z
M 1259 4147 
L 1259 2491 
L 2053 2491 
Q 2509 2491 2742 2702 
Q 2975 2913 2975 3322 
Q 2975 3731 2742 3939 
Q 2509 4147 2053 4147 
L 1259 4147 
z
" transform="scale(0.015625)"/>
       <path id="DejaVuSans-6f" d="M 1959 3097 
Q 1497 3097 1228 2736 
Q 959 2375 959 1747 
Q 959 1119 1226 758 
Q 1494 397 1959 397 
Q 2419 397 2687 759 
Q 2956 1122 2956 1747 
Q 2956 2369 2687 2733 
Q 2419 3097 1959 3097 
z
M 1959 3584 
Q 2709 3584 3137 3096 
Q 3566 2609 3566 1747 
Q 3566 888 3137 398 
Q 2709 -91 1959 -91 
Q 1206 -91 779 398 
Q 353 888 353 1747 
Q 353 2609 779 3096 
Q 1206 3584 1959 3584 
z
" transform="scale(0.015625)"/>
       <path id="DejaVuSans-74" d="M 1172 4494 
L 1172 3500 
L 2356 3500 
L 2356 3053 
L 1172 3053 
L 1172 1153 
Q 1172 725 1289 603 
Q 1406 481 1766 481 
L 2356 481 
L 2356 0 
L 1766 0 
Q 1100 0 847 248 
Q 594 497 594 1153 
L 594 3053 
L 172 3053 
L 172 3500 
L 594 3500 
L 594 4494 
L 1172 4494 
z
" transform="scale(0.015625)"/>
       <path id="DejaVuSans-6e" d="M 3513 2113 
L 3513 0 
L 2938 0 
L 2938 2094 
Q 2938 2591 2744 2837 
Q 2550 3084 2163 3084 
Q 1697 3084 1428 2787 
Q 1159 2491 1159 1978 
L 1159 0 
L 581 0 
L 581 3500 
L 1159 3500 
L 1159 2956 
Q 1366 3272 1645 3428 
Q 1925 3584 2291 3584 
Q 2894 3584 3203 3211 
Q 3513 2838 3513 2113 
z
" transform="scale(0.015625)"/>
      </defs>
      <use xlink:href="#DejaVuSans-61"/>
      <use xlink:href="#DejaVuSans-78" x="61.279297"/>
      <use xlink:href="#DejaVuSans-69" x="120.458984"/>
      <use xlink:href="#DejaVuSans-61" x="148.242188"/>
      <use xlink:href="#DejaVuSans-6c" x="209.521484"/>
      <use xlink:href="#DejaVuSans-52" x="237.304688"/>
      <use xlink:href="#DejaVuSans-6f" x="302.287109"/>
      <use xlink:href="#DejaVuSans-74" x="363.46875"/>
      <use xlink:href="#DejaVuSans-61" x="402.677734"/>
      <use xlink:href="#DejaVuSans-74" x="463.957031"/>
      <use xlink:href="#DejaVuSans-69" x="503.166016"/>
      <use xlink:href="#DejaVuSans-6f" x="530.949219"/>
      <use xlink:href="#DejaVuSans-6e" x="592.130859"/>
     </g>
    </g>
   </g>
   <g id="matplotlib.axis_2">
    <g id="ytick_1">
     <g id="line2d_7">
      <defs>
       <path id="ma673a60e9c" d="M 0 0 
L -3.5 0 
" style="stroke: #000000; stroke-width: 0.8"/>
      </defs>
      <g>
       <use xlink:href="#ma673a60e9c" x="34.240625" y="288.21825" style="stroke: #000000; stroke-width: 0.8"/>
      </g>
     </g>
     <g id="text_8">
      <!-- 0 -->
      <g transform="translate(20.878125 292.017469)scale(0.1 -0.1)">
       <use xlink:href="#DejaVuSans-30"/>
      </g>
     </g>
    </g>
    <g id="ytick_2">
     <g id="line2d_8">
      <g>
       <use xlink:href="#ma673a60e9c" x="34.240625" y="243.86625" style="stroke: #000000; stroke-width: 0.8"/>
      </g>
     </g>
     <g id="text_9">
      <!-- 1 -->
      <g transform="translate(20.878125 247.665469)scale(0.1 -0.1)">
       <use xlink:href="#DejaVuSans-31"/>
      </g>
     </g>
    </g>
    <g id="ytick_3">
     <g id="line2d_9">
      <g>
       <use xlink:href="#ma673a60e9c" x="34.240625" y="199.51425" style="stroke: #000000; stroke-width: 0.8"/>
      </g>
     </g>
     <g id="text_10">
      <!-- 2 -->
      <g transform="translate(20.878125 203.313469)scale(0.1 -0.1)">
       <use xlink:href="#DejaVuSans-32"/>
      </g>
     </g>
    </g>
    <g id="ytick_4">
     <g id="line2d_10">
      <g>
       <use xlink:href="#ma673a60e9c" x="34.240625" y="155.16225" style="stroke: #000000; stroke-width: 0.8"/>
      </g>
     </g>
     <g id="text_11">
      <!-- 3 -->
      <g transform="translate(20.878125 158.961469)scale(0.1 -0.1)">
       <defs>
        <path id="DejaVuSans-33" d="M 2597 2516 
Q 3050 2419 3304 2112 
Q 3559 1806 3559 1356 
Q 3559 666 3084 287 
Q 2609 -91 1734 -91 
Q 1441 -91 1130 -33 
Q 819 25 488 141 
L 488 750 
Q 750 597 1062 519 
Q 1375 441 1716 441 
Q 2309 441 2620 675 
Q 2931 909 2931 1356 
Q 2931 1769 2642 2001 
Q 2353 2234 1838 2234 
L 1294 2234 
L 1294 2753 
L 1863 2753 
Q 2328 2753 2575 2939 
Q 2822 3125 2822 3475 
Q 2822 3834 2567 4026 
Q 2313 4219 1838 4219 
Q 1578 4219 1281 4162 
Q 984 4106 628 3988 
L 628 4550 
Q 988 4650 1302 4700 
Q 1616 4750 1894 4750 
Q 2613 4750 3031 4423 
Q 3450 4097 3450 3541 
Q 3450 3153 3228 2886 
Q 3006 2619 2597 2516 
z
" transform="scale(0.015625)"/>
       </defs>
       <use xlink:href="#DejaVuSans-33"/>
      </g>
     </g>
    </g>
    <g id="ytick_5">
     <g id="line2d_11">
      <g>
       <use xlink:href="#ma673a60e9c" x="34.240625" y="110.81025" style="stroke: #000000; stroke-width: 0.8"/>
      </g>
     </g>
     <g id="text_12">
      <!-- 4 -->
      <g transform="translate(20.878125 114.609469)scale(0.1 -0.1)">
       <use xlink:href="#DejaVuSans-34"/>
      </g>
     </g>
    </g>
    <g id="ytick_6">
     <g id="line2d_12">
      <g>
       <use xlink:href="#ma673a60e9c" x="34.240625" y="66.45825" style="stroke: #000000; stroke-width: 0.8"/>
      </g>
     </g>
     <g id="text_13">
      <!-- 5 -->
      <g transform="translate(20.878125 70.257469)scale(0.1 -0.1)">
       <defs>
        <path id="DejaVuSans-35" d="M 691 4666 
L 3169 4666 
L 3169 4134 
L 1269 4134 
L 1269 2991 
Q 1406 3038 1543 3061 
Q 1681 3084 1819 3084 
Q 2600 3084 3056 2656 
Q 3513 2228 3513 1497 
Q 3513 744 3044 326 
Q 2575 -91 1722 -91 
Q 1428 -91 1123 -41 
Q 819 9 494 109 
L 494 744 
Q 775 591 1075 516 
Q 1375 441 1709 441 
Q 2250 441 2565 725 
Q 2881 1009 2881 1497 
Q 2881 1984 2565 2268 
Q 2250 2553 1709 2553 
Q 1456 2553 1204 2497 
Q 953 2441 691 2322 
L 691 4666 
z
" transform="scale(0.015625)"/>
       </defs>
       <use xlink:href="#DejaVuSans-35"/>
      </g>
     </g>
    </g>
    <g id="ytick_7">
     <g id="line2d_13">
      <g>
       <use xlink:href="#ma673a60e9c" x="34.240625" y="22.10625" style="stroke: #000000; stroke-width: 0.8"/>
      </g>
     </g>
     <g id="text_14">
      <!-- 6 -->
      <g transform="translate(20.878125 25.905469)scale(0.1 -0.1)">
       <use xlink:href="#DejaVuSans-36"/>
      </g>
     </g>
    </g>
    <g id="text_15">
     <!-- zShift -->
     <g transform="translate(14.798438 169.151312)rotate(-90)scale(0.1 -0.1)">
      <defs>
       <path id="DejaVuSans-7a" d="M 353 3500 
L 3084 3500 
L 3084 2975 
L 922 459 
L 3084 459 
L 3084 0 
L 275 0 
L 275 525 
L 2438 3041 
L 353 3041 
L 353 3500 
z
" transform="scale(0.015625)"/>
       <path id="DejaVuSans-53" d="M 3425 4513 
L 3425 3897 
Q 3066 4069 2747 4153 
Q 2428 4238 2131 4238 
Q 1616 4238 1336 4038 
Q 1056 3838 1056 3469 
Q 1056 3159 1242 3001 
Q 1428 2844 1947 2747 
L 2328 2669 
Q 3034 2534 3370 2195 
Q 3706 1856 3706 1288 
Q 3706 609 3251 259 
Q 2797 -91 1919 -91 
Q 1588 -91 1214 -16 
Q 841 59 441 206 
L 441 856 
Q 825 641 1194 531 
Q 1563 422 1919 422 
Q 2459 422 2753 634 
Q 3047 847 3047 1241 
Q 3047 1584 2836 1778 
Q 2625 1972 2144 2069 
L 1759 2144 
Q 1053 2284 737 2584 
Q 422 2884 422 3419 
Q 422 4038 858 4394 
Q 1294 4750 2059 4750 
Q 2388 4750 2728 4690 
Q 3069 4631 3425 4513 
z
" transform="scale(0.015625)"/>
       <path id="DejaVuSans-68" d="M 3513 2113 
L 3513 0 
L 2938 0 
L 2938 2094 
Q 2938 2591 2744 2837 
Q 2550 3084 2163 3084 
Q 1697 3084 1428 2787 
Q 1159 2491 1159 1978 
L 1159 0 
L 581 0 
L 581 4863 
L 1159 4863 
L 1159 2956 
Q 1366 3272 1645 3428 
Q 1925 3584 2291 3584 
Q 2894 3584 3203 3211 
Q 3513 2838 3513 2113 
z
" transform="scale(0.015625)"/>
       <path id="DejaVuSans-66" d="M 2375 4863 
L 2375 4384 
L 1825 4384 
Q 1516 4384 1395 4259 
Q 1275 4134 1275 3809 
L 1275 3500 
L 2222 3500 
L 2222 3053 
L 1275 3053 
L 1275 0 
L 697 0 
L 697 3053 
L 147 3053 
L 147 3500 
L 697 3500 
L 697 3744 
Q 697 4328 969 4595 
Q 1241 4863 1831 4863 
L 2375 4863 
z
" transform="scale(0.015625)"/>
      </defs>
      <use xlink:href="#DejaVuSans-7a"/>
      <use xlink:href="#DejaVuSans-53" x="52.490234"/>
      <use xlink:href="#DejaVuSans-68" x="115.966797"/>
      <use xlink:href="#DejaVuSans-69" x="179.345703"/>
      <use xlink:href="#DejaVuSans-66" x="207.128906"/>
      <use xlink:href="#DejaVuSans-74" x="240.583984"/>
     </g>
    </g>
   </g>
   <g id="PathCollection_1"/>
   <g id="PathCollection_2">
    <path d="M 34.240625 179.401161 
L 34.976661 178.22529 
L 36.026225 176.656633 
L 37.07422 175.12065 
L 37.847537 174.034438 
L 38.979773 172.45953 
L 39.633137 171.574091 
L 40.959089 169.79841 
L 41.418737 169.191784 
L 42.996164 167.13729 
L 43.204337 166.867897 
L 45.025649 164.538686 
L 45.07478 164.47617 
L 46.811249 162.268855 
L 47.173205 161.81505 
L 48.596849 160.022822 
L 49.296711 159.15393 
L 50.382449 157.794519 
L 51.435635 156.49281 
L 52.203761 155.533352 
L 53.583003 153.83169 
L 53.989361 153.323299 
L 55.731882 151.17057 
L 55.774961 151.116565 
L 57.560561 148.881752 
L 57.860692 148.50945 
L 59.381873 146.601604 
L 59.989204 145.84833 
L 61.167473 144.370421 
L 62.122954 143.18721 
L 62.953073 142.148129 
L 64.266912 140.52609 
L 64.738673 139.937092 
L 66.421275 137.86497 
L 66.559985 137.692222 
L 68.345585 135.480525 
L 68.570701 135.20385 
L 70.131185 133.248318 
L 71.071136 132.09921 
L 71.916785 131.043408 
L 73.217407 129.43809 
L 73.738097 128.786554 
L 75.362658 126.77697 
L 75.523697 126.574893 
L 77.309297 124.347395 
L 77.495954 124.11585 
L 79.094897 122.110004 
L 79.623333 121.45473 
L 80.916209 119.836355 
L 81.759673 118.79361 
L 82.701809 117.615762 
L 83.904389 116.13249 
L 84.487409 115.40406 
L 86.054905 113.47137 
L 86.273009 113.198289 
L 88.094321 110.935814 
L 88.195611 110.81025 
L 89.879921 108.68607 
L 90.309271 108.14913 
L 91.665521 106.418944 
L 92.39989 105.48801 
L 93.451121 104.124805 
L 94.455053 102.82689 
L 95.272433 101.743246 
L 96.461643 100.16577 
L 97.058033 99.34904 
L 98.398309 97.50465 
L 98.843633 96.866784 
L 100.239793 94.84353 
L 100.629233 94.249585 
L 101.956553 92.18241 
L 102.450545 91.362844 
L 103.527169 89.52129 
L 104.236145 88.195664 
L 105.156669 86.41665 
L 106.021745 84.567925 
L 106.384289 83.75553 
L 107.458385 81.09441 
L 107.807345 80.149372 
L 108.406686 78.43329 
L 109.280004 75.77217 
L 109.628657 74.674423 
L 110.099895 73.11105 
L 110.915294 70.44993 
L 111.414257 68.916308 
L 111.76715 67.78881 
L 112.679378 65.12769 
L 113.199857 63.776382 
L 113.693797 62.46657 
L 114.837836 59.80545 
L 114.985457 59.495923 
L 116.102072 57.14433 
L 116.806769 55.825012 
L 117.527316 54.48321 
L 118.592369 52.677364 
L 119.103493 51.82209 
L 120.377969 49.835434 
L 120.818326 49.16097 
L 122.163569 47.199847 
L 122.652898 46.49985 
L 123.984881 44.646438 
L 124.914118 43.39521 
L 125.770481 42.253821 
L 126.932442 40.73409 
L 127.556081 39.922237 
L 129.002708 38.07297 
L 129.341681 37.639009 
L 131.111965 35.41185 
L 131.162993 35.347438 
L 132.948593 33.108829 
L 133.238844 32.75073 
L 134.734193 30.89624 
L 135.397561 30.08961 
L 136.519793 28.717267 
L 137.59686 27.42849 
L 138.341105 26.533855 
L 139.84835 24.76737 
L 140.126705 24.439186 
L 141.912305 22.379137 
L 142.153891 22.10625 
" clip-path="url(#p9124fc0bce)" style="fill: none; stroke: #deebf7; stroke-width: 1.5"/>
    <path d="M 128.970524 288.21825 
L 128.366413 285.55713 
L 127.954562 282.89601 
L 127.707865 280.23489 
L 127.609294 277.57377 
L 127.650178 274.91265 
L 127.82915 272.25153 
L 128.151598 269.59041 
L 128.629542 266.92929 
L 129.402041 263.82465 
L 130.194271 261.16353 
L 132.313285 255.84129 
L 134.734193 251.147042 
L 135.078904 250.51905 
L 138.421165 245.19681 
L 142.175368 239.87457 
L 147.304817 233.112466 
L 157.136971 220.80321 
L 168.839153 206.348586 
L 181.409777 190.916608 
L 194.183768 175.12065 
L 219.614648 143.18721 
L 223.435137 137.86497 
L 226.264049 133.42277 
L 228.049649 130.263535 
L 229.75594 126.77697 
L 230.844949 124.11585 
L 231.846108 121.45473 
L 237.182906 105.48801 
L 238.834673 101.662049 
L 239.526193 100.16577 
L 240.915034 97.50465 
L 244.089239 92.18241 
L 246.012785 89.291988 
L 249.998116 83.75553 
L 254.976497 77.291491 
L 267.547121 61.737141 
L 277.719481 49.16097 
L 292.652657 30.669905 
L 299.754292 22.10625 
L 299.754292 22.10625 
" clip-path="url(#p9124fc0bce)" style="fill: none; stroke: #deebf7; stroke-width: 1.5"/>
    <path d="M 201.282782 22.10625 
L 201.317602 24.76737 
L 201.043915 27.42849 
L 200.500153 30.08961 
L 199.337201 33.595394 
L 198.618736 35.41185 
L 197.326432 38.07297 
L 195.766001 40.862774 
L 193.944689 43.801162 
L 190.282362 49.16097 
L 182.768957 59.80545 
L 179.588465 64.896663 
L 178.023599 67.78881 
L 176.761846 70.44993 
L 175.637216 73.11105 
L 173.7581 78.43329 
L 170.229929 89.52129 
L 168.124996 94.84353 
L 166.864114 97.50465 
L 165.232241 100.572622 
L 163.446641 103.584194 
L 160.415274 108.14913 
L 156.496607 113.47137 
L 150.876017 120.688442 
L 129.341681 147.464659 
L 109.201888 172.45953 
L 93.451121 191.93776 
L 86.273009 200.428091 
L 80.916209 206.268276 
L 76.967116 210.15873 
L 73.738097 213.113165 
L 68.345585 217.715159 
L 67.806831 218.14209 
L 64.738673 220.867738 
L 61.909466 223.90785 
L 60.225183 226.56897 
L 59.242661 229.23009 
L 58.76845 231.89121 
L 58.492566 237.21345 
L 58.366608 239.87457 
L 58.098406 242.53569 
L 57.560561 245.346415 
L 56.82867 247.85793 
L 55.68061 250.51905 
L 53.989361 253.303866 
L 51.885192 255.84129 
L 50.382449 257.250703 
L 48.596849 258.667334 
L 46.811249 259.818798 
L 44.136968 261.16353 
L 43.204337 261.565037 
L 41.418737 262.189999 
L 39.633137 262.670389 
L 37.847537 263.017673 
L 36.026225 263.242947 
L 34.240625 263.342082 
L 34.240625 263.342082 
" clip-path="url(#p9124fc0bce)" style="fill: none; stroke: #deebf7; stroke-width: 1.5"/>
    <path d="M 311.129025 288.21825 
L 311.124739 285.55713 
L 311.365799 282.89601 
L 311.840433 280.23489 
L 312.401393 278.092769 
L 312.528982 277.57377 
L 313.360707 274.91265 
L 314.186993 272.72947 
L 314.359582 272.25153 
L 315.424091 269.59041 
L 315.972593 268.316297 
L 316.54252 266.92929 
L 317.793905 263.986948 
L 317.86016 263.82465 
L 318.905778 261.16353 
L 319.579505 259.413824 
L 319.909791 258.50241 
L 320.825541 255.84129 
L 321.365105 254.220816 
L 321.689024 253.18017 
L 322.495833 250.51905 
L 323.150705 248.413902 
L 323.312697 247.85793 
L 324.115839 245.19681 
L 324.972017 242.657717 
L 325.011045 242.53569 
L 325.938944 239.87457 
L 326.757617 237.848165 
L 327.005551 237.21345 
L 328.177606 234.55233 
L 328.543217 233.812909 
L 329.479533 231.89121 
L 330.328817 230.337321 
L 330.930641 229.23009 
L 332.150129 227.190274 
L 332.522669 226.56897 
L 333.935729 224.373221 
L 334.238377 223.90785 
L 335.721329 221.726278 
L 336.370927 220.80321 
L 337.506929 219.228334 
L 338.305078 218.14209 
L 339.328241 216.775404 
L 340.318347 215.48097 
L 341.113841 214.447153 
L 342.398185 212.81985 
L 342.899441 212.183663 
L 344.541238 210.15873 
L 344.685041 209.980083 
L 346.506353 207.758825 
L 346.725855 207.49761 
L 348.291953 205.613207 
L 348.962531 204.83649 
L 350.077553 203.52607 
L 351.278011 202.17537 
L 351.863153 201.505146 
L 353.684465 199.518521 
L 353.688461 199.51425 
L 355.470065 197.570411 
L 356.168502 196.85313 
L 357.255665 195.710263 
L 358.805552 194.19201 
L 359.041265 193.95497 
L 360.862577 192.201833 
L 361.61432 191.53089 
L 362.648177 190.580674 
L 364.433777 189.083097 
L 364.703935 188.86977 
L 366.219377 187.630707 
L 368.040689 186.31632 
L 368.20075 186.20865 
L 369.826289 185.065474 
L 371.611889 183.971132 
L 372.382693 183.54753 
L 373.397489 182.955653 
L 375.218801 182.020285 
L 377.004401 181.240165 
L 377.940124 180.88641 
L 378.790001 180.536865 
L 380.575601 179.909608 
L 382.396913 179.387706 
L 384.182513 178.981684 
L 385.968113 178.672928 
L 387.753713 178.456392 
L 389.575025 178.327444 
L 391.360625 178.290133 
" clip-path="url(#p9124fc0bce)" style="fill: none; stroke: #deebf7; stroke-width: 1.5"/>
    <path d="M 382.235684 22.10625 
L 382.209381 24.76737 
L 381.925988 27.42849 
L 381.386785 30.08961 
L 380.575601 32.765169 
L 379.593531 35.41185 
L 378.369647 38.07297 
L 376.949278 40.73409 
L 375.218801 43.648315 
L 371.522922 49.16097 
L 367.612002 54.48321 
L 362.648177 60.884912 
L 350.858496 75.77217 
L 346.506353 81.613577 
L 343.253421 86.41665 
L 341.113841 90.018801 
L 339.328241 93.508614 
L 337.506929 97.70112 
L 335.700779 102.82689 
L 333.199427 110.81025 
L 331.283095 116.13249 
L 328.915942 121.45473 
L 326.757617 125.494439 
L 324.972017 128.480529 
L 322.606394 132.09921 
L 319.579505 136.354983 
L 315.972593 141.12004 
L 307.008881 152.382214 
L 295.028119 167.13729 
L 278.296433 187.890707 
L 264.69664 204.83649 
L 258.547697 212.820444 
L 254.82587 218.14209 
L 253.137333 220.80321 
L 251.362501 223.90785 
L 249.583985 227.560954 
L 247.792646 231.89121 
L 245.996216 237.21345 
L 243.472549 245.19681 
L 241.462081 250.51905 
L 238.95929 255.84129 
L 235.948253 261.16353 
L 233.442161 265.014543 
L 229.835249 270.072134 
L 224.089734 277.57377 
L 219.085937 283.814769 
L 215.393396 288.21825 
L 215.393396 288.21825 
" clip-path="url(#p9124fc0bce)" style="fill: none; stroke: #deebf7; stroke-width: 1.5"/>
   </g>
   <g id="PathCollection_3">
    <path d="M 34.240625 242.208987 
L 35.607009 242.53569 
L 34.240625 242.975163 
" clip-path="url(#p9124fc0bce)" style="fill: none; stroke: #c6dbef; stroke-width: 1.5"/>
    <path d="M 138.252289 288.21825 
L 137.421451 285.55713 
L 136.845829 282.89601 
L 136.484395 280.23489 
L 136.304161 277.57377 
L 136.311776 274.91265 
L 136.519793 272.116689 
L 136.849468 269.59041 
L 137.374565 266.92929 
L 138.341105 263.508958 
L 139.137712 261.16353 
L 140.246933 258.50241 
L 141.912305 255.104772 
L 143.697905 251.934768 
L 145.519217 249.023553 
L 148.125326 245.19681 
L 152.697329 239.029304 
L 159.875441 229.910934 
L 174.231665 212.290003 
L 190.373489 192.679831 
L 204.729713 174.972543 
L 225.845873 148.50945 
L 229.835249 143.13718 
L 233.442161 137.754013 
L 235.227761 134.701057 
L 237.013361 131.232175 
L 238.934011 126.77697 
L 240.768208 121.45473 
L 244.10964 110.81025 
L 246.183634 105.48801 
L 247.798385 102.071704 
L 249.583985 98.75562 
L 251.369585 95.786898 
L 253.747452 92.18241 
L 257.948356 86.41665 
L 262.154609 81.038284 
L 269.332721 72.200082 
L 279.514509 59.80545 
L 301.616369 32.535174 
L 308.164336 24.76737 
L 310.548034 22.10625 
L 310.548034 22.10625 
" clip-path="url(#p9124fc0bce)" style="fill: none; stroke: #c6dbef; stroke-width: 1.5"/>
    <path d="M 187.583978 22.10625 
L 188.136187 24.76737 
L 188.152559 27.42849 
L 187.731304 30.08961 
L 186.766577 33.188674 
L 185.846565 35.41185 
L 184.494874 38.07297 
L 182.944341 40.73409 
L 179.148637 46.49985 
L 173.647895 54.48321 
L 170.624753 59.296112 
L 168.839153 62.531167 
L 167.053553 66.340004 
L 166.444256 67.78881 
L 164.558877 73.11105 
L 160.463832 86.41665 
L 159.26423 89.52129 
L 158.054129 92.234794 
L 156.268529 95.668955 
L 154.482929 98.665191 
L 151.673238 102.82689 
L 149.090417 106.303663 
L 143.430312 113.47137 
L 86.273009 184.259085 
L 80.916209 190.629958 
L 77.309297 194.657804 
L 73.738097 198.327466 
L 70.131185 201.624211 
L 68.345585 203.074018 
L 64.738673 205.607701 
L 61.323069 207.49761 
L 61.167473 207.578297 
L 59.381873 208.356397 
L 57.560561 209.000339 
L 55.774961 209.476276 
L 53.989361 209.783209 
L 52.203761 209.897623 
L 50.382449 209.779919 
L 48.596849 209.383506 
L 46.811249 208.635738 
L 45.025649 207.426865 
L 42.783495 204.83649 
L 41.418737 202.050208 
L 40.770244 199.51425 
L 40.547909 196.85313 
L 40.730221 194.19201 
L 41.418737 191.077373 
L 42.140752 188.86977 
L 43.286996 186.20865 
L 45.025649 182.965772 
L 46.811249 180.056083 
L 48.596849 177.391638 
L 52.203761 172.399814 
L 58.395443 164.47617 
L 103.545874 108.14913 
L 107.807345 102.367943 
L 111.068706 97.50465 
L 113.199857 93.867632 
L 114.985457 90.343503 
L 115.36927 89.52129 
L 116.806769 86.005008 
L 118.592369 80.702086 
L 122.163569 69.063197 
L 123.675196 65.12769 
L 124.886075 62.46657 
L 126.264539 59.80545 
L 127.81606 57.14433 
L 129.534672 54.48321 
L 133.38272 49.16097 
L 138.341105 42.863847 
L 145.519217 34.15473 
L 149.090417 30.031355 
L 152.697329 26.128424 
L 156.268529 22.621849 
L 156.839254 22.10625 
L 156.839254 22.10625 
" clip-path="url(#p9124fc0bce)" style="fill: none; stroke: #c6dbef; stroke-width: 1.5"/>
    <path d="M 321.124171 288.21825 
L 320.945024 285.55713 
L 321.081698 282.89601 
L 321.365105 281.07874 
L 321.490064 280.23489 
L 322.113549 277.57377 
L 322.932747 274.91265 
L 323.150705 274.308682 
L 323.865829 272.25153 
L 324.890155 269.59041 
L 324.972017 269.385026 
L 325.912136 266.92929 
L 326.757617 264.72978 
L 327.092217 263.82465 
L 328.03676 261.16353 
L 328.543217 259.673333 
L 328.922323 258.50241 
L 329.743612 255.84129 
L 330.328817 253.902665 
L 330.536642 253.18017 
L 331.299832 250.51905 
L 332.107225 247.85793 
L 332.150129 247.724888 
L 332.936533 245.19681 
L 333.874888 242.53569 
L 333.935729 242.379821 
L 334.893977 239.87457 
L 335.721329 237.993226 
L 336.060669 237.21345 
L 337.367851 234.55233 
L 337.506929 234.295184 
L 338.809557 231.89121 
L 339.328241 231.02036 
L 340.403255 229.23009 
L 341.113841 228.128642 
L 342.133659 226.56897 
L 342.899441 225.457392 
L 343.985065 223.90785 
L 344.685041 222.93952 
L 346.280731 220.80321 
L 346.506353 220.506508 
L 348.291953 218.204607 
L 348.341164 218.14209 
L 350.077553 215.957958 
L 350.467015 215.48097 
L 351.863153 213.777015 
L 352.671541 212.81985 
L 353.684465 211.620621 
L 354.963633 210.15873 
L 355.470065 209.577014 
L 357.255665 207.60274 
L 357.353269 207.49761 
L 359.041265 205.664793 
L 359.844324 204.83649 
L 360.862577 203.775468 
L 362.493066 202.17537 
L 362.648177 202.020903 
L 364.433777 200.314626 
L 365.332707 199.51425 
L 366.219377 198.711181 
L 368.040689 197.1839 
L 368.463437 196.85313 
L 369.826289 195.765541 
L 371.611889 194.481045 
L 372.049978 194.19201 
L 373.397489 193.281448 
L 375.218801 192.192972 
L 376.481225 191.53089 
L 377.004401 191.247734 
L 378.790001 190.400204 
L 380.575601 189.688696 
L 382.396913 189.094568 
L 383.265199 188.86977 
L 384.182513 188.620467 
L 385.968113 188.261101 
L 387.753713 188.029028 
L 389.575025 187.923171 
L 391.360625 187.950046 
" clip-path="url(#p9124fc0bce)" style="fill: none; stroke: #c6dbef; stroke-width: 1.5"/>
    <path d="M 372.197968 22.10625 
L 372.321917 24.76737 
L 372.105768 27.42849 
L 371.574045 30.08961 
L 370.778055 32.75073 
L 369.706768 35.41185 
L 368.040689 38.754317 
L 366.219377 41.893049 
L 364.433777 44.671859 
L 360.862577 49.740926 
L 355.470065 56.802082 
L 339.328241 77.511809 
L 336.813593 81.09441 
L 333.935729 85.667836 
L 332.150129 88.93646 
L 331.846832 89.52129 
L 330.328817 92.848016 
L 328.543217 97.520006 
L 323.150705 113.985031 
L 321.365105 118.087757 
L 321.038576 118.79361 
L 319.579505 121.591857 
L 317.793905 124.680854 
L 314.701433 129.43809 
L 312.401393 132.658479 
L 307.008881 139.700428 
L 299.830769 148.531758 
L 276.510833 177.156464 
L 267.081868 188.86977 
L 253.190897 206.353059 
L 249.583985 211.215008 
L 246.65296 215.48097 
L 244.191473 219.5398 
L 242.405873 222.93901 
L 241.93152 223.90785 
L 240.620273 226.931316 
L 238.824005 231.89121 
L 234.598722 245.19681 
L 232.407142 250.51905 
L 231.107502 253.18017 
L 229.65763 255.84129 
L 226.360986 261.16353 
L 222.657137 266.447919 
L 218.266042 272.25153 
L 213.693425 277.995862 
L 207.346805 285.55713 
L 204.968322 288.21825 
L 204.968322 288.21825 
" clip-path="url(#p9124fc0bce)" style="fill: none; stroke: #c6dbef; stroke-width: 1.5"/>
    <path d="M 391.360625 278.772919 
L 390.121823 280.23489 
L 389.575025 280.885129 
L 387.836287 282.89601 
L 387.753713 282.992195 
L 385.968113 285.040923 
L 385.504458 285.55713 
L 384.182513 287.038439 
L 383.087823 288.21825 
" clip-path="url(#p9124fc0bce)" style="fill: none; stroke: #c6dbef; stroke-width: 1.5"/>
   </g>
   <g id="PathCollection_4">
    <path d="M 145.425672 288.21825 
L 144.310615 285.55713 
L 143.525063 282.89601 
L 143.009382 280.23489 
L 142.740326 277.57377 
L 142.693988 274.91265 
L 142.857177 272.25153 
L 143.225464 269.59041 
L 143.797688 266.92929 
L 144.704034 263.82465 
L 145.707312 261.16353 
L 147.304817 257.70482 
L 149.090417 254.417817 
L 150.876017 251.500784 
L 153.319408 247.85793 
L 157.213644 242.53569 
L 161.661041 236.800237 
L 170.624753 225.710271 
L 184.980977 208.523144 
L 192.57777 199.51425 
L 206.515313 182.478675 
L 222.657137 162.431871 
L 229.835249 153.396823 
L 233.559916 148.50945 
L 237.343749 143.18721 
L 239.075526 140.52609 
L 240.667194 137.86497 
L 242.405873 134.559733 
L 244.191473 130.566153 
L 245.599275 126.77697 
L 247.24884 121.45473 
L 249.649931 113.47137 
L 251.369585 108.77185 
L 251.613082 108.14913 
L 253.190897 104.675831 
L 254.976497 101.270116 
L 256.762097 98.256453 
L 258.995803 94.84353 
L 262.863516 89.52129 
L 267.547121 83.584215 
L 274.725233 74.940317 
L 283.688945 64.242241 
L 294.438257 51.096891 
L 311.652881 30.08961 
L 315.972593 25.27924 
L 319.081603 22.10625 
L 319.081603 22.10625 
" clip-path="url(#p9124fc0bce)" style="fill: none; stroke: #9dcae1; stroke-width: 1.5"/>
    <path d="M 329.144191 288.21825 
L 328.678753 285.55713 
L 328.619509 282.89601 
L 328.887815 280.23489 
L 329.415405 277.57377 
L 330.140528 274.91265 
L 330.328817 274.334742 
L 330.987375 272.25153 
L 331.903268 269.59041 
L 332.150129 268.895349 
L 332.825048 266.92929 
L 333.8723 263.82465 
L 333.935729 263.628785 
L 334.70493 261.16353 
L 335.496341 258.50241 
L 335.721329 257.719093 
L 336.242224 255.84129 
L 336.974945 253.18017 
L 337.506929 251.309809 
L 337.725866 250.51905 
L 338.513097 247.85793 
L 339.328241 245.389432 
L 339.3909 245.19681 
L 340.358981 242.53569 
L 341.113841 240.724321 
L 341.467153 239.87457 
L 342.720349 237.21345 
L 342.899441 236.871355 
L 344.122987 234.55233 
L 344.685041 233.586888 
L 345.684481 231.89121 
L 346.506353 230.602723 
L 347.395906 229.23009 
L 348.291953 227.926033 
L 349.242142 226.56897 
L 350.077553 225.424549 
L 351.208339 223.90785 
L 351.863153 223.051957 
L 353.640572 220.80321 
L 353.684465 220.748532 
L 355.470065 218.564792 
L 355.825614 218.14209 
L 357.255665 216.458286 
L 358.114629 215.48097 
L 359.041265 214.43177 
L 360.523211 212.81985 
L 360.862577 212.451369 
L 362.648177 210.585308 
L 363.074829 210.15873 
L 364.433777 208.797193 
L 365.811872 207.49761 
L 366.219377 207.111119 
L 368.040689 205.479934 
L 368.811504 204.83649 
L 369.826289 203.982091 
L 371.611889 202.598481 
L 372.206358 202.17537 
L 373.397489 201.318021 
L 375.218801 200.142208 
L 376.315806 199.51425 
L 377.004401 199.114459 
L 378.790001 198.210918 
L 380.575601 197.449983 
L 382.297413 196.85313 
L 382.396913 196.817979 
L 384.182513 196.334638 
L 385.968113 196.003721 
L 387.753713 195.829037 
L 389.575025 195.81893 
L 391.360625 195.984126 
" clip-path="url(#p9124fc0bce)" style="fill: none; stroke: #9dcae1; stroke-width: 1.5"/>
    <path d="M 364.087682 22.10625 
L 364.473161 24.76737 
L 364.413535 27.42849 
L 363.972195 30.08961 
L 363.196326 32.75073 
L 362.128036 35.41185 
L 360.809619 38.07297 
L 359.041265 41.12451 
L 357.255665 43.899649 
L 353.533185 49.16097 
L 348.291953 55.985636 
L 334.892119 73.11105 
L 331.107859 78.43329 
L 328.543217 82.473991 
L 326.757617 85.652528 
L 326.355016 86.41665 
L 324.88889 89.52129 
L 323.150705 93.983046 
L 321.99468 97.50465 
L 317.793905 111.015855 
L 315.972593 115.428103 
L 315.659844 116.13249 
L 314.186993 119.054625 
L 312.401393 122.198817 
L 310.615793 125.038732 
L 307.568508 129.43809 
L 303.437681 134.86814 
L 298.045169 141.525705 
L 278.296433 165.264122 
L 265.643747 180.88641 
L 247.798385 203.274765 
L 244.191473 208.112712 
L 240.944147 212.81985 
L 238.834673 216.254548 
L 237.013361 219.617553 
L 236.422927 220.80321 
L 235.048984 223.90785 
L 233.130654 229.23009 
L 229.085195 242.53569 
L 227.008313 247.85793 
L 225.763751 250.51905 
L 224.366433 253.18017 
L 222.657137 256.113265 
L 219.352393 261.16353 
L 215.148417 266.92929 
L 210.122225 273.370268 
L 204.424907 280.23489 
L 201.122801 283.979495 
L 197.057969 288.21825 
L 197.057969 288.21825 
" clip-path="url(#p9124fc0bce)" style="fill: none; stroke: #9dcae1; stroke-width: 1.5"/>
    <path d="M 391.360625 269.599567 
L 389.575025 271.796529 
L 389.19744 272.25153 
L 387.753713 273.987637 
L 386.966942 274.91265 
L 385.968113 276.089054 
L 384.675929 277.57377 
L 384.182513 278.14269 
L 382.396913 280.148988 
L 382.319018 280.23489 
L 380.575601 282.161252 
L 379.889008 282.89601 
L 378.790001 284.072769 
L 377.349827 285.55713 
L 377.004401 285.912094 
L 375.218801 287.680884 
L 374.65223 288.21825 
" clip-path="url(#p9124fc0bce)" style="fill: none; stroke: #9dcae1; stroke-width: 1.5"/>
    <path d="M 61.249108 186.20865 
L 61.547185 183.54753 
L 62.634947 180.88641 
L 62.953073 180.344213 
L 64.165214 178.22529 
L 64.738673 177.414125 
L 66.235055 175.12065 
L 66.559985 174.691209 
L 68.195087 172.45953 
L 68.345585 172.271282 
L 70.131185 169.999873 
L 70.284884 169.79841 
L 71.916785 167.832592 
L 72.460701 167.13729 
L 73.738097 165.59434 
L 74.609233 164.47617 
L 75.523697 163.361398 
L 76.71671 161.81505 
L 77.309297 161.083436 
L 78.786977 159.15393 
L 79.094897 158.771932 
L 80.847542 156.49281 
L 80.916209 156.407878 
L 82.701809 154.194616 
L 82.980764 153.83169 
L 84.487409 152.018599 
L 85.153924 151.17057 
L 86.273009 149.842956 
L 87.341292 148.50945 
L 88.094321 147.618102 
L 89.514731 145.84833 
L 89.879921 145.414324 
L 91.655331 143.18721 
L 91.665521 143.174919 
L 93.451121 141.030578 
L 93.843343 140.52609 
L 95.272433 138.771377 
L 95.964877 137.86497 
L 97.058033 136.512494 
L 98.055169 135.20385 
L 98.843633 134.256453 
L 100.465014 132.09921 
L 100.629233 131.898728 
L 102.450545 129.630213 
L 102.600468 129.43809 
L 104.236145 127.494622 
L 104.80525 126.77697 
L 106.021745 125.33481 
L 106.990525 124.11585 
L 107.807345 123.135106 
L 109.128761 121.45473 
L 109.628657 120.837005 
L 111.190283 118.79361 
L 111.414257 118.507805 
L 113.17179 116.13249 
L 113.199857 116.095265 
L 114.985457 113.640238 
L 115.100714 113.47137 
L 116.806769 111.003287 
L 116.932087 110.81025 
L 118.592369 108.261894 
L 118.661499 108.14913 
L 120.283246 105.48801 
L 120.377969 105.326611 
L 121.780345 102.82689 
L 122.163569 102.080426 
L 123.107053 100.16577 
L 123.984881 98.101294 
L 124.229835 97.50465 
L 125.226198 94.84353 
L 125.770481 93.130092 
L 126.066985 92.18241 
L 126.818723 89.52129 
L 127.556081 86.464262 
L 127.567521 86.41665 
L 128.210677 83.75553 
L 128.827266 81.09441 
L 129.341681 78.947451 
L 129.471451 78.43329 
L 130.218123 75.77217 
L 131.04208 73.11105 
L 131.162993 72.772984 
L 132.056946 70.44993 
L 132.948593 68.395433 
L 133.235306 67.78881 
L 134.642594 65.12769 
L 134.734193 64.971423 
L 136.320797 62.46657 
L 136.519793 62.173764 
L 138.251429 59.80545 
L 138.341105 59.687958 
L 140.126705 57.514433 
L 140.452595 57.14433 
L 141.912305 55.500977 
L 142.85619 54.48321 
L 143.697905 53.568505 
L 145.343231 51.82209 
L 145.519217 51.631915 
L 147.304817 49.800012 
L 147.935827 49.16097 
L 149.090417 47.969176 
L 150.4933 46.49985 
L 150.876017 46.10293 
L 152.697329 44.261213 
L 153.526196 43.39521 
L 154.482929 42.437623 
L 156.144581 40.73409 
L 156.268529 40.612646 
L 158.054129 39.014432 
L 159.101142 38.07297 
L 159.875441 37.431369 
L 161.661041 36.091135 
L 162.687629 35.41185 
L 163.446641 34.977248 
L 165.232241 34.357387 
L 167.053553 34.452782 
L 167.958034 35.41185 
L 167.864734 38.07297 
L 167.053553 40.528127 
L 166.987131 40.73409 
L 165.664578 43.39521 
L 165.232241 44.146135 
L 163.980404 46.49985 
L 163.446641 47.437302 
L 162.504172 49.16097 
L 161.661041 50.734334 
L 161.10288 51.82209 
L 159.875441 54.412488 
L 159.84327 54.48321 
L 158.664268 57.14433 
L 158.054129 58.768144 
L 157.674412 59.80545 
L 156.806799 62.46657 
L 156.268529 64.391876 
L 156.063636 65.12769 
L 155.37383 67.78881 
L 154.757714 70.44993 
L 154.482929 71.651453 
L 154.137966 73.11105 
L 153.490809 75.77217 
L 152.807805 78.43329 
L 152.697329 78.812566 
L 151.989105 81.09441 
L 151.063767 83.75553 
L 150.876017 84.224197 
L 149.926938 86.41665 
L 149.090417 88.115472 
L 148.341591 89.52129 
L 147.304817 91.26849 
L 146.714042 92.18241 
L 145.519217 93.907425 
L 144.816357 94.84353 
L 143.697905 96.274215 
L 142.669699 97.50465 
L 141.912305 98.395502 
L 140.336558 100.16577 
L 140.126705 100.401869 
L 138.341105 102.301802 
L 137.82768 102.82689 
L 136.519793 104.199116 
L 135.287388 105.48801 
L 134.734193 106.079479 
L 132.948593 107.986818 
L 132.790933 108.14913 
L 131.162993 109.854881 
L 130.278118 110.81025 
L 129.341681 111.827325 
L 127.877978 113.47137 
L 127.556081 113.828918 
L 125.770481 115.823825 
L 125.496226 116.13249 
L 123.984881 117.791317 
L 123.119761 118.79361 
L 122.163569 119.877124 
L 120.845749 121.45473 
L 120.377969 121.99962 
L 118.661256 124.11585 
L 118.592369 124.19838 
L 116.806769 126.349046 
L 116.471735 126.77697 
L 114.985457 128.596072 
L 114.339475 129.43809 
L 113.199857 130.840639 
L 112.234153 132.09921 
L 111.414257 133.075611 
L 109.798329 135.20385 
L 109.628657 135.408821 
L 107.807345 137.646536 
L 107.634475 137.86497 
L 106.021745 139.758757 
L 105.406838 140.52609 
L 104.236145 141.902137 
L 103.207104 143.18721 
L 102.450545 144.087491 
L 101.052659 145.84833 
L 100.629233 146.362597 
L 98.955038 148.50945 
L 98.843633 148.646525 
L 97.058033 150.888477 
L 96.844456 151.17057 
L 95.272433 153.114139 
L 94.725414 153.83169 
L 93.451121 155.399529 
L 92.607424 156.49281 
L 91.665521 157.630928 
L 90.466565 159.15393 
L 89.879921 159.85308 
L 88.310974 161.81505 
L 88.094321 162.071721 
L 86.273009 164.280688 
L 86.116072 164.47617 
L 84.487409 166.385957 
L 83.889101 167.13729 
L 82.701809 168.552557 
L 81.721682 169.79841 
L 80.916209 170.770935 
L 79.591781 172.45953 
L 79.094897 173.060964 
L 77.469184 175.12065 
L 77.309297 175.305553 
L 75.523697 177.34301 
L 74.815978 178.22529 
L 73.738097 179.399553 
L 72.415589 180.88641 
L 71.916785 181.394457 
L 70.131185 183.155371 
L 69.708819 183.54753 
L 68.345585 184.641049 
L 66.559985 186.05182 
L 66.286193 186.20865 
L 64.738673 186.933539 
L 62.953073 187.270538 
L 61.249108 186.20865 
z
" clip-path="url(#p9124fc0bce)" style="fill: none; stroke: #9dcae1; stroke-width: 1.5"/>
   </g>
   <g id="PathCollection_5">
    <path d="M 152.337518 288.21825 
L 150.727576 285.55713 
L 149.617664 282.89601 
L 148.886419 280.23489 
L 148.475115 277.57377 
L 148.341042 274.91265 
L 148.460246 272.25153 
L 149.090417 268.364778 
L 149.407345 266.92929 
L 150.876017 262.567576 
L 151.439662 261.16353 
L 152.711322 258.50241 
L 154.482929 255.321914 
L 156.268529 252.459008 
L 159.436016 247.85793 
L 163.446641 242.505924 
L 169.753498 234.55233 
L 176.350659 226.56897 
L 183.523225 218.14209 
L 192.864397 207.49761 
L 201.992457 196.85313 
L 213.693425 182.617003 
L 233.442161 158.017443 
L 238.834673 150.961959 
L 242.4552 145.84833 
L 244.191473 143.168484 
L 246.012785 140.070132 
L 247.798385 136.583454 
L 248.438761 135.20385 
L 249.698603 132.09921 
L 251.451928 126.77697 
L 255.262242 113.47137 
L 256.762097 109.50059 
L 257.322675 108.14913 
L 258.579103 105.48801 
L 260.369009 102.193769 
L 262.154609 99.274681 
L 265.190694 94.84353 
L 267.547121 91.707958 
L 271.801213 86.41665 
L 276.510833 80.879804 
L 290.867057 64.277749 
L 301.616369 51.235424 
L 314.57252 35.41185 
L 319.579505 29.795246 
L 323.150705 26.210481 
L 324.972017 24.539595 
L 327.981608 22.10625 
L 327.981608 22.10625 
" clip-path="url(#p9124fc0bce)" style="fill: none; stroke: #6aaed6; stroke-width: 1.5"/>
    <path d="M 337.534695 288.21825 
L 337.506929 288.162441 
L 336.411656 285.55713 
L 335.924937 282.89601 
L 335.908219 280.23489 
L 336.227626 277.57377 
L 336.773891 274.91265 
L 337.459446 272.25153 
L 337.506929 272.089344 
L 338.220401 269.59041 
L 338.992367 266.92929 
L 339.328241 265.762618 
L 339.868928 263.82465 
L 340.580987 261.16353 
L 341.113841 259.096335 
L 341.263539 258.50241 
L 341.930102 255.84129 
L 342.609006 253.18017 
L 342.899441 252.113669 
L 343.329008 250.51905 
L 344.12062 247.85793 
L 344.685041 246.182319 
L 345.017067 245.19681 
L 346.041223 242.53569 
L 346.506353 241.476866 
L 347.217018 239.87457 
L 348.291953 237.734631 
L 348.557673 237.21345 
L 350.066771 234.55233 
L 350.077553 234.534859 
L 351.740433 231.89121 
L 351.863153 231.709178 
L 353.570306 229.23009 
L 353.684465 229.072734 
L 355.470065 226.665902 
L 355.543716 226.56897 
L 357.255665 224.395559 
L 357.650852 223.90785 
L 359.041265 222.234865 
L 360.275619 220.80321 
L 360.862577 220.134114 
L 362.648177 218.174747 
L 362.679058 218.14209 
L 364.433777 216.308879 
L 365.267253 215.48097 
L 366.219377 214.542666 
L 368.040689 212.851874 
L 368.077347 212.81985 
L 369.826289 211.299299 
L 371.246123 210.15873 
L 371.611889 209.865113 
L 373.397489 208.550837 
L 374.987553 207.49761 
L 375.218801 207.344064 
L 377.004401 206.296877 
L 378.790001 205.395272 
L 380.119782 204.83649 
L 380.575601 204.64401 
L 382.396913 204.047049 
L 384.182513 203.636372 
L 385.968113 203.410393 
L 387.753713 203.385123 
L 389.575025 203.587612 
L 391.360625 204.036427 
" clip-path="url(#p9124fc0bce)" style="fill: none; stroke: #6aaed6; stroke-width: 1.5"/>
    <path d="M 355.497592 22.10625 
L 356.51578 24.76737 
L 356.834465 27.42849 
L 356.607253 30.08961 
L 355.951866 32.75073 
L 354.94158 35.41185 
L 353.65207 38.07297 
L 351.863153 41.147779 
L 350.077553 43.898752 
L 346.321565 49.16097 
L 340.111488 57.14433 
L 331.762463 67.78881 
L 327.832171 73.11105 
L 324.972017 77.33007 
L 322.684532 81.09441 
L 321.264769 83.75553 
L 319.579505 87.454669 
L 318.750575 89.52129 
L 316.998051 94.84353 
L 313.188297 108.14913 
L 312.225025 110.81025 
L 310.615793 114.562414 
L 308.794481 118.158396 
L 308.451427 118.79361 
L 306.867885 121.45473 
L 303.437681 126.52582 
L 301.267743 129.43809 
L 296.648726 135.20385 
L 292.120803 140.52609 
L 274.725233 160.773859 
L 263.940209 173.95695 
L 243.503793 199.51425 
L 238.834673 205.777095 
L 235.832908 210.15873 
L 233.442161 214.101683 
L 231.656561 217.490961 
L 231.336808 218.14209 
L 229.835249 221.656032 
L 228.991277 223.90785 
L 227.338878 229.23009 
L 224.357736 239.87457 
L 222.657137 244.642676 
L 222.444146 245.19681 
L 220.871537 248.695529 
L 219.085937 252.115774 
L 217.300337 255.14061 
L 215.115077 258.50241 
L 211.30118 263.82465 
L 206.515313 270.008784 
L 201.122801 276.535736 
L 197.551601 280.559702 
L 193.944689 284.294345 
L 190.373489 287.569594 
L 189.590875 288.21825 
L 189.590875 288.21825 
" clip-path="url(#p9124fc0bce)" style="fill: none; stroke: #6aaed6; stroke-width: 1.5"/>
    <path d="M 391.360625 261.403208 
L 389.575025 263.728631 
L 389.499878 263.82465 
L 387.753713 266.008522 
L 386.999286 266.92929 
L 385.968113 268.173632 
L 384.767401 269.59041 
L 384.182513 270.27699 
L 382.460091 272.25153 
L 382.396913 272.323861 
L 380.575601 274.362582 
L 380.07111 274.91265 
L 378.790001 276.310202 
L 377.598171 277.57377 
L 377.004401 278.203413 
L 375.218801 280.038295 
L 375.021111 280.23489 
L 373.397489 281.842065 
L 372.289371 282.89601 
L 371.611889 283.533514 
L 369.826289 285.134338 
L 369.329364 285.55713 
L 368.040689 286.62862 
L 366.219377 288.042437 
L 365.975027 288.21825 
" clip-path="url(#p9124fc0bce)" style="fill: none; stroke: #6aaed6; stroke-width: 1.5"/>
   </g>
   <g id="PathCollection_6">
    <path d="M 160.883895 288.21825 
L 159.875441 287.459281 
L 157.88356 285.55713 
L 156.062974 282.89601 
L 154.914393 280.23489 
L 154.233377 277.57377 
L 153.937541 274.91265 
L 153.962064 272.25153 
L 154.482929 268.646614 
L 154.864564 266.92929 
L 156.268529 262.869448 
L 156.991683 261.16353 
L 158.328238 258.50241 
L 159.875441 255.813148 
L 163.380165 250.51905 
L 167.314183 245.19681 
L 172.410353 238.738001 
L 178.080969 231.89121 
L 185.022591 223.90785 
L 192.159089 216.165163 
L 202.916048 204.83649 
L 210.122225 196.721069 
L 217.300337 188.205734 
L 231.656561 170.433002 
L 242.652463 156.49281 
L 246.51021 151.17057 
L 249.583985 146.447888 
L 251.438897 143.18721 
L 253.190897 139.583923 
L 253.928818 137.86497 
L 254.976497 134.983693 
L 255.886113 132.09921 
L 257.243673 126.77697 
L 259.130213 118.79361 
L 260.721449 113.47137 
L 262.154609 109.796131 
L 262.878943 108.14913 
L 264.215492 105.48801 
L 265.733942 102.82689 
L 267.547121 100.000532 
L 271.118321 95.09 
L 273.451647 92.18241 
L 276.510833 88.590273 
L 281.903345 82.667458 
L 294.438257 69.334803 
L 300.443058 62.46657 
L 307.121049 54.48321 
L 321.365105 37.394428 
L 323.169775 35.41185 
L 326.757617 31.910337 
L 328.830357 30.08961 
L 332.150129 27.682362 
L 333.935729 26.679366 
L 335.721329 25.865904 
L 337.506929 25.233382 
L 339.328241 24.822683 
L 341.430143 24.76737 
L 342.899441 25.01479 
L 344.685041 25.859377 
L 346.506353 27.625202 
L 347.28735 30.08961 
L 347.191955 32.75073 
L 346.506353 35.429134 
L 345.364513 38.07297 
L 343.935336 40.73409 
L 341.113841 45.07165 
L 339.328241 47.602486 
L 335.721329 52.368847 
L 323.82107 67.78881 
L 321.365105 71.287995 
L 318.496969 75.77217 
L 316.996528 78.43329 
L 315.676792 81.09441 
L 314.186993 84.648954 
L 313.535269 86.41665 
L 311.849045 92.18241 
L 308.582309 105.48801 
L 307.008881 110.079683 
L 306.732724 110.81025 
L 305.223281 114.175382 
L 303.437681 117.536454 
L 301.616369 120.521304 
L 299.830769 123.154587 
L 297.136015 126.77697 
L 294.438257 130.113971 
L 289.99802 135.20385 
L 285.054352 140.52609 
L 274.725233 151.504071 
L 269.332721 157.602891 
L 260.369009 168.284648 
L 242.405873 190.5837 
L 237.013361 197.513839 
L 233.442161 202.400389 
L 229.835249 207.826911 
L 228.049649 210.895429 
L 226.264049 214.45582 
L 225.797257 215.48097 
L 224.478449 218.875481 
L 223.819225 220.80321 
L 222.246897 226.56897 
L 219.706553 237.21345 
L 218.927402 239.87457 
L 217.300337 244.360301 
L 216.96626 245.19681 
L 215.479025 248.385942 
L 213.693425 251.682701 
L 211.907825 254.617561 
L 209.305108 258.50241 
L 205.384563 263.82465 
L 200.817718 269.59041 
L 195.766001 275.49216 
L 192.159089 279.314655 
L 190.373489 281.055367 
L 186.766577 284.191182 
L 184.973966 285.55713 
L 181.409777 287.798708 
L 180.599976 288.21825 
L 180.599976 288.21825 
" clip-path="url(#p9124fc0bce)" style="fill: none; stroke: #4191c6; stroke-width: 1.5"/>
    <path d="M 391.360625 252.771727 
L 391.113539 253.18017 
L 389.575025 255.510312 
L 389.350705 255.84129 
L 387.753713 258.052418 
L 387.420173 258.50241 
L 385.968113 260.376183 
L 385.342171 261.16353 
L 384.182513 262.579752 
L 383.136392 263.82465 
L 382.396913 264.687135 
L 380.575601 266.756883 
L 380.419026 266.92929 
L 378.790001 268.702818 
L 377.950061 269.59041 
L 377.004401 270.586227 
L 375.373687 272.25153 
L 375.218801 272.409577 
L 373.397489 274.190945 
L 372.631324 274.91265 
L 371.611889 275.871636 
L 369.826289 277.487486 
L 369.724954 277.57377 
L 368.040689 278.996162 
L 366.502591 280.23489 
L 366.219377 280.458993 
L 364.433777 281.752386 
L 362.738851 282.89601 
L 362.648177 282.954919 
L 360.862577 283.964287 
L 359.041265 284.86051 
L 357.33583 285.55713 
L 357.255665 285.587651 
L 355.470065 286.070953 
L 353.684465 286.355499 
L 351.863153 286.406369 
L 350.077553 286.176005 
L 348.291953 285.60826 
L 348.19176 285.55713 
L 346.506353 284.304889 
L 345.293153 282.89601 
L 344.685041 281.581513 
L 344.221236 280.23489 
L 343.910037 277.57377 
L 344.004603 274.91265 
L 344.330326 272.25153 
L 344.685041 270.160655 
L 344.780442 269.59041 
L 345.299259 266.92929 
L 345.910092 263.82465 
L 346.428201 261.16353 
L 346.506353 260.777743 
L 346.963929 258.50241 
L 347.517552 255.84129 
L 348.113248 253.18017 
L 348.291953 252.477414 
L 348.792768 250.51905 
L 349.57441 247.85793 
L 350.077553 246.387559 
L 350.491147 245.19681 
L 351.564946 242.53569 
L 351.863153 241.892904 
L 352.819598 239.87457 
L 353.684465 238.258694 
L 354.257839 237.21345 
L 355.470065 235.217764 
L 355.885199 234.55233 
L 357.255665 232.527832 
L 357.699139 231.89121 
L 359.041265 230.082509 
L 359.69392 229.23009 
L 360.862577 227.774752 
L 361.865049 226.56897 
L 362.648177 225.660035 
L 364.218315 223.90785 
L 364.433777 223.674193 
L 366.219377 221.829223 
L 367.265598 220.80321 
L 368.040689 220.060557 
L 369.826289 218.458241 
L 370.207184 218.14209 
L 371.611889 216.995885 
L 373.397489 215.663464 
L 373.672809 215.48097 
L 375.218801 214.469702 
L 377.004401 213.452791 
L 378.329145 212.81985 
L 378.790001 212.601778 
L 380.575601 211.947549 
L 382.396913 211.483004 
L 384.182513 211.250413 
L 385.968113 211.269291 
L 387.753713 211.578322 
L 389.575025 212.242366 
L 390.581777 212.81985 
L 391.360625 213.340424 
" clip-path="url(#p9124fc0bce)" style="fill: none; stroke: #4191c6; stroke-width: 1.5"/>
   </g>
   <g id="PathCollection_7">
    <path d="M 391.360625 238.072897 
L 391.021565 239.87457 
L 390.269795 242.53569 
L 389.575025 244.409198 
L 389.271098 245.19681 
L 388.014054 247.85793 
L 387.753713 248.329825 
L 386.501423 250.51905 
L 385.968113 251.351668 
L 384.754892 253.18017 
L 384.182513 253.973258 
L 382.786538 255.84129 
L 382.396913 256.332065 
L 380.611443 258.50241 
L 380.575601 258.54423 
L 378.790001 260.527803 
L 378.193462 261.16353 
L 377.004401 262.397623 
L 375.571088 263.82465 
L 375.218801 264.168565 
L 373.397489 265.834813 
L 372.145409 266.92929 
L 371.611889 267.390988 
L 369.826289 268.81361 
L 368.770226 269.59041 
L 368.040689 270.128106 
L 366.219377 271.319199 
L 364.623192 272.25153 
L 364.433777 272.362361 
L 362.648177 273.171647 
L 360.862577 273.768446 
L 359.041265 274.063937 
L 357.255665 273.876982 
L 355.470065 272.887675 
L 354.922496 272.25153 
L 353.707956 269.59041 
L 353.684465 269.482229 
L 353.305745 266.92929 
L 353.183791 263.82465 
L 353.254877 261.16353 
L 353.444619 258.50241 
L 353.684465 256.3944 
L 353.748804 255.84129 
L 354.194979 253.18017 
L 354.770294 250.51905 
L 355.470065 247.938818 
L 355.4927 247.85793 
L 356.430432 245.19681 
L 357.255665 243.222292 
L 357.552905 242.53569 
L 358.89884 239.87457 
L 359.041265 239.627965 
L 360.487534 237.21345 
L 360.862577 236.648447 
L 362.309003 234.55233 
L 362.648177 234.099769 
L 364.372918 231.89121 
L 364.433777 231.818163 
L 366.219377 229.788917 
L 366.739474 229.23009 
L 368.040689 227.902875 
L 369.434431 226.56897 
L 369.826289 226.209381 
L 371.611889 224.716628 
L 372.681663 223.90785 
L 373.397489 223.3891 
L 375.218801 222.251598 
L 377.004401 221.312671 
L 378.266131 220.80321 
L 378.790001 220.600312 
L 380.575601 220.168599 
L 382.396913 220.021145 
L 384.182513 220.222655 
L 385.864227 220.80321 
L 385.968113 220.847636 
L 387.753713 222.173043 
L 389.240213 223.90785 
L 389.575025 224.451502 
L 390.561178 226.56897 
L 391.33873 229.23009 
L 391.360625 229.372707 
" clip-path="url(#p9124fc0bce)" style="fill: none; stroke: #2070b4; stroke-width: 1.5"/>
    <path d="M 161.00259 277.57377 
L 160.268812 274.91265 
L 160.040058 272.25153 
L 160.226945 269.59041 
L 160.759885 266.92929 
L 161.661041 264.10269 
L 161.75154 263.82465 
L 162.914213 261.16353 
L 163.446641 260.135397 
L 164.308269 258.50241 
L 165.232241 256.948955 
L 165.900796 255.84129 
L 167.053553 254.087109 
L 167.655497 253.18017 
L 168.839153 251.503709 
L 169.538207 250.51905 
L 170.624753 249.056263 
L 171.517473 247.85793 
L 172.410353 246.699901 
L 173.571969 245.19681 
L 174.231665 244.365739 
L 175.687867 242.53569 
L 176.017265 242.131199 
L 177.802865 239.948499 
L 177.864024 239.87457 
L 179.588465 237.836006 
L 180.118289 237.21345 
L 181.409777 235.72242 
L 182.432544 234.55233 
L 183.195377 233.691961 
L 184.81123 231.89121 
L 184.980977 231.703853 
L 186.766577 229.787455 
L 187.298587 229.23009 
L 188.587889 227.886595 
L 189.882968 226.56897 
L 190.373489 226.070317 
L 192.159089 224.323096 
L 192.603706 223.90785 
L 193.944689 222.652645 
L 195.766001 220.988956 
L 195.984359 220.80321 
L 197.551601 219.452072 
L 199.121943 218.14209 
L 199.337201 217.957442 
L 201.122801 216.555874 
L 202.551176 215.48097 
L 202.944113 215.170887 
L 204.729713 213.908044 
L 206.336491 212.81985 
L 206.515313 212.690499 
L 208.300913 211.612619 
L 210.122225 210.606008 
L 211.207613 210.15873 
L 211.907825 209.834944 
L 213.693425 209.499828 
L 215.269762 210.15873 
L 215.479025 210.393943 
L 216.06061 212.81985 
L 216.143186 215.48097 
L 216.055628 218.14209 
L 215.904054 220.80321 
L 215.683755 223.90785 
L 215.479025 226.298171 
L 215.455676 226.56897 
L 215.15673 229.23009 
L 214.794351 231.89121 
L 214.345196 234.55233 
L 213.785882 237.21345 
L 213.693425 237.557595 
L 213.056798 239.87457 
L 212.178242 242.53569 
L 211.907825 243.216855 
L 211.103682 245.19681 
L 210.122225 247.294888 
L 209.852924 247.85793 
L 208.415494 250.51905 
L 208.300913 250.710573 
L 206.801106 253.18017 
L 206.515313 253.616591 
L 205.042898 255.84129 
L 204.729713 256.28788 
L 203.165525 258.50241 
L 202.944113 258.802205 
L 201.190769 261.16353 
L 201.122801 261.251913 
L 199.337201 263.551976 
L 199.12445 263.82465 
L 197.551601 265.761107 
L 196.60586 266.92929 
L 195.766001 267.927176 
L 194.352261 269.59041 
L 193.944689 270.054398 
L 192.159089 272.048218 
L 191.972199 272.25153 
L 190.373489 273.91912 
L 189.394812 274.91265 
L 188.587889 275.695443 
L 186.766577 277.38602 
L 186.551117 277.57377 
L 184.980977 278.865908 
L 183.201621 280.23489 
L 183.195377 280.239413 
L 181.409777 281.390074 
L 179.588465 282.425745 
L 178.605827 282.89601 
L 177.802865 283.251879 
L 176.017265 283.868332 
L 174.231665 284.301728 
L 172.410353 284.535602 
L 170.624753 284.537614 
L 168.839153 284.287357 
L 167.053553 283.752956 
L 165.271191 282.89601 
L 165.232241 282.872036 
L 163.446641 281.351551 
L 162.459903 280.23489 
L 161.661041 278.913888 
L 161.00259 277.57377 
z
" clip-path="url(#p9124fc0bce)" style="fill: none; stroke: #2070b4; stroke-width: 1.5"/>
    <path d="M 263.340224 143.18721 
L 263.041495 140.52609 
L 263.067672 137.86497 
L 263.198208 135.20385 
L 263.406081 132.09921 
L 263.619616 129.43809 
L 263.873998 126.77697 
L 263.940209 126.245061 
L 264.209268 124.11585 
L 264.628991 121.45473 
L 265.150642 118.79361 
L 265.725809 116.441571 
L 265.80365 116.13249 
L 266.648983 113.47137 
L 267.547121 111.095347 
L 267.658636 110.81025 
L 268.895729 108.14913 
L 269.332721 107.329319 
L 270.347515 105.48801 
L 271.118321 104.235945 
L 272.015773 102.82689 
L 272.903921 101.548883 
L 273.899171 100.16577 
L 274.725233 99.089594 
L 275.984887 97.50465 
L 276.510833 96.872757 
L 278.258347 94.84353 
L 278.296433 94.800607 
L 280.082033 92.88656 
L 280.766638 92.18241 
L 281.903345 91.028852 
L 283.448559 89.52129 
L 283.688945 89.288081 
L 285.474545 87.665341 
L 286.890361 86.41665 
L 287.260145 86.086978 
L 289.081457 84.581881 
L 290.139697 83.75553 
L 290.867057 83.167369 
L 292.652657 81.832076 
L 293.716162 81.09441 
L 294.438257 80.564353 
L 296.259569 79.369366 
L 297.798952 78.43329 
L 298.045169 78.271052 
L 299.830769 77.369005 
L 301.616369 76.675601 
L 303.437681 76.490594 
L 305.197241 78.43329 
L 305.223281 78.563132 
L 305.444593 81.09441 
L 305.411551 83.75553 
L 305.283006 86.41665 
L 305.223281 87.221632 
L 305.057994 89.52129 
L 304.826131 92.18241 
L 304.556481 94.84353 
L 304.230575 97.50465 
L 303.825876 100.16577 
L 303.437681 102.175291 
L 303.308528 102.82689 
L 302.631609 105.48801 
L 301.810637 108.14913 
L 301.616369 108.663407 
L 300.779074 110.81025 
L 299.830769 112.889714 
L 299.556223 113.47137 
L 298.114638 116.13249 
L 298.045169 116.246633 
L 296.443909 118.79361 
L 296.259569 119.062396 
L 294.563417 121.45473 
L 294.438257 121.6202 
L 292.652657 123.89541 
L 292.472647 124.11585 
L 290.867057 125.993644 
L 290.172089 126.77697 
L 289.081457 127.970692 
L 287.688914 129.43809 
L 287.260145 129.883523 
L 285.474545 131.647085 
L 284.99043 132.09921 
L 283.688945 133.309638 
L 281.903345 134.916989 
L 281.558674 135.20385 
L 280.082033 136.451965 
L 278.349331 137.86497 
L 278.296433 137.909493 
L 276.510833 139.257958 
L 274.786167 140.52609 
L 274.725233 140.573271 
L 272.903921 141.788802 
L 271.118321 142.928465 
L 270.613752 143.18721 
L 269.332721 143.908686 
L 267.547121 144.703254 
L 265.725809 145.163305 
L 263.940209 144.508817 
L 263.340224 143.18721 
z
" clip-path="url(#p9124fc0bce)" style="fill: none; stroke: #2070b4; stroke-width: 1.5"/>
   </g>
   <g id="PathCollection_8">
    <path d="M 168.367564 269.59041 
L 168.494412 266.92929 
L 168.839153 265.569665 
L 169.292014 263.82465 
L 170.375289 261.16353 
L 170.624753 260.683128 
L 171.779097 258.50241 
L 172.410353 257.463818 
L 173.408155 255.84129 
L 174.231665 254.624901 
L 175.214411 253.18017 
L 176.017265 252.083251 
L 177.161098 250.51905 
L 177.802865 249.690577 
L 179.218757 247.85793 
L 179.588465 247.40207 
L 181.375608 245.19681 
L 181.409777 245.15635 
L 183.195377 243.101838 
L 183.689201 242.53569 
L 184.980977 241.122048 
L 186.129126 239.87457 
L 186.766577 239.210282 
L 188.587889 237.356933 
L 188.738326 237.21345 
L 190.373489 235.719754 
L 191.692038 234.55233 
L 192.159089 234.152637 
L 193.944689 232.780347 
L 195.221936 231.89121 
L 195.766001 231.521988 
L 197.551601 230.558077 
L 199.337201 229.832942 
L 201.122801 229.493301 
L 202.944113 229.846637 
L 204.729713 231.543312 
L 204.910442 231.89121 
L 205.573385 234.55233 
L 205.629869 237.21345 
L 205.285745 239.87457 
L 204.729713 242.14951 
L 204.631221 242.53569 
L 203.64127 245.19681 
L 202.944113 246.732954 
L 202.419339 247.85793 
L 201.122801 250.260207 
L 200.980405 250.51905 
L 199.337201 253.177238 
L 199.335371 253.18017 
L 197.551601 255.788414 
L 197.51532 255.84129 
L 195.766001 258.209409 
L 195.549353 258.50241 
L 193.944689 260.544139 
L 193.45771 261.16353 
L 192.159089 262.7204 
L 191.236362 263.82465 
L 190.373489 264.785529 
L 188.587889 266.785011 
L 188.453713 266.92929 
L 186.766577 268.592923 
L 185.728259 269.59041 
L 184.980977 270.2545 
L 183.195377 271.733033 
L 182.504027 272.25153 
L 181.409777 272.995549 
L 179.588465 274.05824 
L 177.804298 274.91265 
L 177.802865 274.91326 
L 176.017265 275.383502 
L 174.231665 275.544665 
L 172.410353 275.296611 
L 171.479912 274.91265 
L 170.624753 274.349144 
L 168.969023 272.25153 
L 168.839153 271.829181 
L 168.367564 269.59041 
z
" clip-path="url(#p9124fc0bce)" style="fill: none; stroke: #08509b; stroke-width: 1.5"/>
    <path d="M 274.172209 121.45473 
L 273.856564 118.79361 
L 274.073381 116.13249 
L 274.664307 113.47137 
L 274.725233 113.303562 
L 275.694898 110.81025 
L 276.510833 109.15748 
L 277.045228 108.14913 
L 278.296433 106.193753 
L 278.782986 105.48801 
L 280.082033 103.858533 
L 280.973964 102.82689 
L 281.903345 101.860158 
L 283.679359 100.16577 
L 283.688945 100.157301 
L 285.474545 98.86676 
L 287.260145 97.768362 
L 287.92214 97.50465 
L 289.081457 97.066052 
L 290.867057 96.87201 
L 292.652657 97.428972 
L 292.74043 97.50465 
L 294.323714 100.16577 
L 294.438257 100.880315 
L 294.629066 102.82689 
L 294.438257 105.263898 
L 294.419196 105.48801 
L 293.749025 108.14913 
L 292.784918 110.81025 
L 292.652657 111.080673 
L 291.404519 113.47137 
L 290.867057 114.331816 
L 289.662944 116.13249 
L 289.081457 116.888871 
L 287.505514 118.79361 
L 287.260145 119.061245 
L 285.474545 120.790901 
L 284.701427 121.45473 
L 283.688945 122.256787 
L 281.903345 123.440955 
L 280.555196 124.11585 
L 280.082033 124.341058 
L 278.296433 124.73911 
L 276.510833 124.534672 
L 275.833647 124.11585 
L 274.725233 122.83868 
L 274.172209 121.45473 
z
" clip-path="url(#p9124fc0bce)" style="fill: none; stroke: #08509b; stroke-width: 1.5"/>
    <path d="M 364.080978 255.84129 
L 363.271593 253.18017 
L 363.227595 250.51905 
L 363.662598 247.85793 
L 364.433777 245.232436 
L 364.445107 245.19681 
L 365.685567 242.53569 
L 366.219377 241.611925 
L 367.304884 239.87457 
L 368.040689 238.88106 
L 369.387951 237.21345 
L 369.826289 236.740986 
L 371.611889 235.044807 
L 372.224504 234.55233 
L 373.397489 233.719498 
L 375.218801 232.718185 
L 377.004401 232.088925 
L 378.790001 231.982329 
L 380.575601 232.693036 
L 382.214295 234.55233 
L 382.396913 235.049576 
L 382.884573 237.21345 
L 382.819752 239.87457 
L 382.396913 241.881545 
L 382.245917 242.53569 
L 381.184029 245.19681 
L 380.575601 246.354597 
L 379.721658 247.85793 
L 378.790001 249.214985 
L 377.822087 250.51905 
L 377.004401 251.478754 
L 375.431968 253.18017 
L 375.218801 253.389065 
L 373.397489 254.919346 
L 372.133142 255.84129 
L 371.611889 256.194379 
L 369.826289 257.075939 
L 368.040689 257.599591 
L 366.219377 257.525441 
L 364.433777 256.363965 
L 364.080978 255.84129 
z
" clip-path="url(#p9124fc0bce)" style="fill: none; stroke: #08509b; stroke-width: 1.5"/>
   </g>
   <g id="PathCollection_9"/>
   <g id="patch_3">
    <path d="M 34.240625 288.21825 
L 34.240625 22.10625 
" style="fill: none; stroke: #000000; stroke-width: 0.8; stroke-linejoin: miter; stroke-linecap: square"/>
   </g>
   <g id="patch_4">
    <path d="M 391.360625 288.21825 
L 391.360625 22.10625 
" style="fill: none; stroke: #000000; stroke-width: 0.8; stroke-linejoin: miter; stroke-linecap: square"/>
   </g>
   <g id="patch_5">
    <path d="M 34.240625 288.21825 
L 391.360625 288.21825 
" style="fill: none; stroke: #000000; stroke-width: 0.8; stroke-linejoin: miter; stroke-linecap: square"/>
   </g>
   <g id="patch_6">
    <path d="M 34.240625 22.10625 
L 391.360625 22.10625 
" style="fill: none; stroke: #000000; stroke-width: 0.8; stroke-linejoin: miter; stroke-linecap: square"/>
   </g>
   <g id="text_16">
    <!-- 8.5_cross_20.0 -->
    <g transform="translate(168.34625 16.10625)scale(0.12 -0.12)">
     <defs>
      <path id="DejaVuSans-2e" d="M 684 794 
L 1344 794 
L 1344 0 
L 684 0 
L 684 794 
z
" transform="scale(0.015625)"/>
      <path id="DejaVuSans-5f" d="M 3263 -1063 
L 3263 -1509 
L -63 -1509 
L -63 -1063 
L 3263 -1063 
z
" transform="scale(0.015625)"/>
      <path id="DejaVuSans-63" d="M 3122 3366 
L 3122 2828 
Q 2878 2963 2633 3030 
Q 2388 3097 2138 3097 
Q 1578 3097 1268 2742 
Q 959 2388 959 1747 
Q 959 1106 1268 751 
Q 1578 397 2138 397 
Q 2388 397 2633 464 
Q 2878 531 3122 666 
L 3122 134 
Q 2881 22 2623 -34 
Q 2366 -91 2075 -91 
Q 1284 -91 818 406 
Q 353 903 353 1747 
Q 353 2603 823 3093 
Q 1294 3584 2113 3584 
Q 2378 3584 2631 3529 
Q 2884 3475 3122 3366 
z
" transform="scale(0.015625)"/>
      <path id="DejaVuSans-72" d="M 2631 2963 
Q 2534 3019 2420 3045 
Q 2306 3072 2169 3072 
Q 1681 3072 1420 2755 
Q 1159 2438 1159 1844 
L 1159 0 
L 581 0 
L 581 3500 
L 1159 3500 
L 1159 2956 
Q 1341 3275 1631 3429 
Q 1922 3584 2338 3584 
Q 2397 3584 2469 3576 
Q 2541 3569 2628 3553 
L 2631 2963 
z
" transform="scale(0.015625)"/>
      <path id="DejaVuSans-73" d="M 2834 3397 
L 2834 2853 
Q 2591 2978 2328 3040 
Q 2066 3103 1784 3103 
Q 1356 3103 1142 2972 
Q 928 2841 928 2578 
Q 928 2378 1081 2264 
Q 1234 2150 1697 2047 
L 1894 2003 
Q 2506 1872 2764 1633 
Q 3022 1394 3022 966 
Q 3022 478 2636 193 
Q 2250 -91 1575 -91 
Q 1294 -91 989 -36 
Q 684 19 347 128 
L 347 722 
Q 666 556 975 473 
Q 1284 391 1588 391 
Q 1994 391 2212 530 
Q 2431 669 2431 922 
Q 2431 1156 2273 1281 
Q 2116 1406 1581 1522 
L 1381 1569 
Q 847 1681 609 1914 
Q 372 2147 372 2553 
Q 372 3047 722 3315 
Q 1072 3584 1716 3584 
Q 2034 3584 2315 3537 
Q 2597 3491 2834 3397 
z
" transform="scale(0.015625)"/>
     </defs>
     <use xlink:href="#DejaVuSans-38"/>
     <use xlink:href="#DejaVuSans-2e" x="63.623047"/>
     <use xlink:href="#DejaVuSans-35" x="95.410156"/>
     <use xlink:href="#DejaVuSans-5f" x="159.033203"/>
     <use xlink:href="#DejaVuSans-63" x="209.033203"/>
     <use xlink:href="#DejaVuSans-72" x="264.013672"/>
     <use xlink:href="#DejaVuSans-6f" x="302.876953"/>
     <use xlink:href="#DejaVuSans-73" x="364.058594"/>
     <use xlink:href="#DejaVuSans-73" x="416.158203"/>
     <use xlink:href="#DejaVuSans-5f" x="468.257812"/>
     <use xlink:href="#DejaVuSans-32" x="518.257812"/>
     <use xlink:href="#DejaVuSans-30" x="581.880859"/>
     <use xlink:href="#DejaVuSans-2e" x="645.503906"/>
     <use xlink:href="#DejaVuSans-30" x="677.291016"/>
    </g>
   </g>
  </g>
 </g>
 <defs>
  <clipPath id="p9124fc0bce">
   <rect x="34.240625" y="22.10625" width="357.12" height="266.112"/>
  </clipPath>
 </defs>
</svg>
