<?xml version="1.0" encoding="utf-8" standalone="no"?>
<!DOCTYPE svg PUBLIC "-//W3C//DTD SVG 1.1//EN"
  "http://www.w3.org/Graphics/SVG/1.1/DTD/svg11.dtd">
<svg xmlns:xlink="http://www.w3.org/1999/xlink" width="408.104375pt" height="325.7745pt" viewBox="0 0 408.104375 325.7745" xmlns="http://www.w3.org/2000/svg" version="1.1">
 <metadata>
  <rdf:RDF xmlns:dc="http://purl.org/dc/elements/1.1/" xmlns:cc="http://creativecommons.org/ns#" xmlns:rdf="http://www.w3.org/1999/02/22-rdf-syntax-ns#">
   <cc:Work>
    <dc:type rdf:resource="http://purl.org/dc/dcmitype/StillImage"/>
    <dc:date>2024-07-12T12:14:08.889453</dc:date>
    <dc:format>image/svg+xml</dc:format>
    <dc:creator>
     <cc:Agent>
      <dc:title>Matplotlib v3.5.3, https://matplotlib.org/</dc:title>
     </cc:Agent>
    </dc:creator>
   </cc:Work>
  </rdf:RDF>
 </metadata>
 <defs>
  <style type="text/css">*{stroke-linejoin: round; stroke-linecap: butt}</style>
 </defs>
 <g id="figure_1">
  <g id="patch_1">
   <path d="M 0 325.7745 
L 408.104375 325.7745 
L 408.104375 0 
L 0 0 
z
" style="fill: #ffffff"/>
  </g>
  <g id="axes_1">
   <g id="patch_2">
    <path d="M 34.240625 288.21825 
L 391.360625 288.21825 
L 391.360625 22.10625 
L 34.240625 22.10625 
z
" style="fill: #ffffff"/>
   </g>
   <g id="matplotlib.axis_1">
    <g id="xtick_1">
     <g id="line2d_1">
      <defs>
       <path id="mf2b0b4b171" d="M 0 0 
L 0 3.5 
" style="stroke: #000000; stroke-width: 0.8"/>
      </defs>
      <g>
       <use xlink:href="#mf2b0b4b171" x="34.240625" y="288.21825" style="stroke: #000000; stroke-width: 0.8"/>
      </g>
     </g>
     <g id="text_1">
      <!-- 0 -->
      <g transform="translate(31.059375 302.816687)scale(0.1 -0.1)">
       <defs>
        <path id="DejaVuSans-30" d="M 2034 4250 
Q 1547 4250 1301 3770 
Q 1056 3291 1056 2328 
Q 1056 1369 1301 889 
Q 1547 409 2034 409 
Q 2525 409 2770 889 
Q 3016 1369 3016 2328 
Q 3016 3291 2770 3770 
Q 2525 4250 2034 4250 
z
M 2034 4750 
Q 2819 4750 3233 4129 
Q 3647 3509 3647 2328 
Q 3647 1150 3233 529 
Q 2819 -91 2034 -91 
Q 1250 -91 836 529 
Q 422 1150 422 2328 
Q 422 3509 836 4129 
Q 1250 4750 2034 4750 
z
" transform="scale(0.015625)"/>
       </defs>
       <use xlink:href="#DejaVuSans-30"/>
      </g>
     </g>
    </g>
    <g id="xtick_2">
     <g id="line2d_2">
      <g>
       <use xlink:href="#mf2b0b4b171" x="105.664625" y="288.21825" style="stroke: #000000; stroke-width: 0.8"/>
      </g>
     </g>
     <g id="text_2">
      <!-- 20 -->
      <g transform="translate(99.302125 302.816687)scale(0.1 -0.1)">
       <defs>
        <path id="DejaVuSans-32" d="M 1228 531 
L 3431 531 
L 3431 0 
L 469 0 
L 469 531 
Q 828 903 1448 1529 
Q 2069 2156 2228 2338 
Q 2531 2678 2651 2914 
Q 2772 3150 2772 3378 
Q 2772 3750 2511 3984 
Q 2250 4219 1831 4219 
Q 1534 4219 1204 4116 
Q 875 4013 500 3803 
L 500 4441 
Q 881 4594 1212 4672 
Q 1544 4750 1819 4750 
Q 2544 4750 2975 4387 
Q 3406 4025 3406 3419 
Q 3406 3131 3298 2873 
Q 3191 2616 2906 2266 
Q 2828 2175 2409 1742 
Q 1991 1309 1228 531 
z
" transform="scale(0.015625)"/>
       </defs>
       <use xlink:href="#DejaVuSans-32"/>
       <use xlink:href="#DejaVuSans-30" x="63.623047"/>
      </g>
     </g>
    </g>
    <g id="xtick_3">
     <g id="line2d_3">
      <g>
       <use xlink:href="#mf2b0b4b171" x="177.088625" y="288.21825" style="stroke: #000000; stroke-width: 0.8"/>
      </g>
     </g>
     <g id="text_3">
      <!-- 40 -->
      <g transform="translate(170.726125 302.816687)scale(0.1 -0.1)">
       <defs>
        <path id="DejaVuSans-34" d="M 2419 4116 
L 825 1625 
L 2419 1625 
L 2419 4116 
z
M 2253 4666 
L 3047 4666 
L 3047 1625 
L 3713 1625 
L 3713 1100 
L 3047 1100 
L 3047 0 
L 2419 0 
L 2419 1100 
L 313 1100 
L 313 1709 
L 2253 4666 
z
" transform="scale(0.015625)"/>
       </defs>
       <use xlink:href="#DejaVuSans-34"/>
       <use xlink:href="#DejaVuSans-30" x="63.623047"/>
      </g>
     </g>
    </g>
    <g id="xtick_4">
     <g id="line2d_4">
      <g>
       <use xlink:href="#mf2b0b4b171" x="248.512625" y="288.21825" style="stroke: #000000; stroke-width: 0.8"/>
      </g>
     </g>
     <g id="text_4">
      <!-- 60 -->
      <g transform="translate(242.150125 302.816687)scale(0.1 -0.1)">
       <defs>
        <path id="DejaVuSans-36" d="M 2113 2584 
Q 1688 2584 1439 2293 
Q 1191 2003 1191 1497 
Q 1191 994 1439 701 
Q 1688 409 2113 409 
Q 2538 409 2786 701 
Q 3034 994 3034 1497 
Q 3034 2003 2786 2293 
Q 2538 2584 2113 2584 
z
M 3366 4563 
L 3366 3988 
Q 3128 4100 2886 4159 
Q 2644 4219 2406 4219 
Q 1781 4219 1451 3797 
Q 1122 3375 1075 2522 
Q 1259 2794 1537 2939 
Q 1816 3084 2150 3084 
Q 2853 3084 3261 2657 
Q 3669 2231 3669 1497 
Q 3669 778 3244 343 
Q 2819 -91 2113 -91 
Q 1303 -91 875 529 
Q 447 1150 447 2328 
Q 447 3434 972 4092 
Q 1497 4750 2381 4750 
Q 2619 4750 2861 4703 
Q 3103 4656 3366 4563 
z
" transform="scale(0.015625)"/>
       </defs>
       <use xlink:href="#DejaVuSans-36"/>
       <use xlink:href="#DejaVuSans-30" x="63.623047"/>
      </g>
     </g>
    </g>
    <g id="xtick_5">
     <g id="line2d_5">
      <g>
       <use xlink:href="#mf2b0b4b171" x="319.936625" y="288.21825" style="stroke: #000000; stroke-width: 0.8"/>
      </g>
     </g>
     <g id="text_5">
      <!-- 80 -->
      <g transform="translate(313.574125 302.816687)scale(0.1 -0.1)">
       <defs>
        <path id="DejaVuSans-38" d="M 2034 2216 
Q 1584 2216 1326 1975 
Q 1069 1734 1069 1313 
Q 1069 891 1326 650 
Q 1584 409 2034 409 
Q 2484 409 2743 651 
Q 3003 894 3003 1313 
Q 3003 1734 2745 1975 
Q 2488 2216 2034 2216 
z
M 1403 2484 
Q 997 2584 770 2862 
Q 544 3141 544 3541 
Q 544 4100 942 4425 
Q 1341 4750 2034 4750 
Q 2731 4750 3128 4425 
Q 3525 4100 3525 3541 
Q 3525 3141 3298 2862 
Q 3072 2584 2669 2484 
Q 3125 2378 3379 2068 
Q 3634 1759 3634 1313 
Q 3634 634 3220 271 
Q 2806 -91 2034 -91 
Q 1263 -91 848 271 
Q 434 634 434 1313 
Q 434 1759 690 2068 
Q 947 2378 1403 2484 
z
M 1172 3481 
Q 1172 3119 1398 2916 
Q 1625 2713 2034 2713 
Q 2441 2713 2670 2916 
Q 2900 3119 2900 3481 
Q 2900 3844 2670 4047 
Q 2441 4250 2034 4250 
Q 1625 4250 1398 4047 
Q 1172 3844 1172 3481 
z
" transform="scale(0.015625)"/>
       </defs>
       <use xlink:href="#DejaVuSans-38"/>
       <use xlink:href="#DejaVuSans-30" x="63.623047"/>
      </g>
     </g>
    </g>
    <g id="xtick_6">
     <g id="line2d_6">
      <g>
       <use xlink:href="#mf2b0b4b171" x="391.360625" y="288.21825" style="stroke: #000000; stroke-width: 0.8"/>
      </g>
     </g>
     <g id="text_6">
      <!-- 100 -->
      <g transform="translate(381.816875 302.816687)scale(0.1 -0.1)">
       <defs>
        <path id="DejaVuSans-31" d="M 794 531 
L 1825 531 
L 1825 4091 
L 703 3866 
L 703 4441 
L 1819 4666 
L 2450 4666 
L 2450 531 
L 3481 531 
L 3481 0 
L 794 0 
L 794 531 
z
" transform="scale(0.015625)"/>
       </defs>
       <use xlink:href="#DejaVuSans-31"/>
       <use xlink:href="#DejaVuSans-30" x="63.623047"/>
       <use xlink:href="#DejaVuSans-30" x="127.246094"/>
      </g>
     </g>
    </g>
    <g id="text_7">
     <!-- axialRotation -->
     <g transform="translate(180.024844 316.494812)scale(0.1 -0.1)">
      <defs>
       <path id="DejaVuSans-61" d="M 2194 1759 
Q 1497 1759 1228 1600 
Q 959 1441 959 1056 
Q 959 750 1161 570 
Q 1363 391 1709 391 
Q 2188 391 2477 730 
Q 2766 1069 2766 1631 
L 2766 1759 
L 2194 1759 
z
M 3341 1997 
L 3341 0 
L 2766 0 
L 2766 531 
Q 2569 213 2275 61 
Q 1981 -91 1556 -91 
Q 1019 -91 701 211 
Q 384 513 384 1019 
Q 384 1609 779 1909 
Q 1175 2209 1959 2209 
L 2766 2209 
L 2766 2266 
Q 2766 2663 2505 2880 
Q 2244 3097 1772 3097 
Q 1472 3097 1187 3025 
Q 903 2953 641 2809 
L 641 3341 
Q 956 3463 1253 3523 
Q 1550 3584 1831 3584 
Q 2591 3584 2966 3190 
Q 3341 2797 3341 1997 
z
" transform="scale(0.015625)"/>
       <path id="DejaVuSans-78" d="M 3513 3500 
L 2247 1797 
L 3578 0 
L 2900 0 
L 1881 1375 
L 863 0 
L 184 0 
L 1544 1831 
L 300 3500 
L 978 3500 
L 1906 2253 
L 2834 3500 
L 3513 3500 
z
" transform="scale(0.015625)"/>
       <path id="DejaVuSans-69" d="M 603 3500 
L 1178 3500 
L 1178 0 
L 603 0 
L 603 3500 
z
M 603 4863 
L 1178 4863 
L 1178 4134 
L 603 4134 
L 603 4863 
z
" transform="scale(0.015625)"/>
       <path id="DejaVuSans-6c" d="M 603 4863 
L 1178 4863 
L 1178 0 
L 603 0 
L 603 4863 
z
" transform="scale(0.015625)"/>
       <path id="DejaVuSans-52" d="M 2841 2188 
Q 3044 2119 3236 1894 
Q 3428 1669 3622 1275 
L 4263 0 
L 3584 0 
L 2988 1197 
Q 2756 1666 2539 1819 
Q 2322 1972 1947 1972 
L 1259 1972 
L 1259 0 
L 628 0 
L 628 4666 
L 2053 4666 
Q 2853 4666 3247 4331 
Q 3641 3997 3641 3322 
Q 3641 2881 3436 2590 
Q 3231 2300 2841 2188 
z
M 1259 4147 
L 1259 2491 
L 2053 2491 
Q 2509 2491 2742 2702 
Q 2975 2913 2975 3322 
Q 2975 3731 2742 3939 
Q 2509 4147 2053 4147 
L 1259 4147 
z
" transform="scale(0.015625)"/>
       <path id="DejaVuSans-6f" d="M 1959 3097 
Q 1497 3097 1228 2736 
Q 959 2375 959 1747 
Q 959 1119 1226 758 
Q 1494 397 1959 397 
Q 2419 397 2687 759 
Q 2956 1122 2956 1747 
Q 2956 2369 2687 2733 
Q 2419 3097 1959 3097 
z
M 1959 3584 
Q 2709 3584 3137 3096 
Q 3566 2609 3566 1747 
Q 3566 888 3137 398 
Q 2709 -91 1959 -91 
Q 1206 -91 779 398 
Q 353 888 353 1747 
Q 353 2609 779 3096 
Q 1206 3584 1959 3584 
z
" transform="scale(0.015625)"/>
       <path id="DejaVuSans-74" d="M 1172 4494 
L 1172 3500 
L 2356 3500 
L 2356 3053 
L 1172 3053 
L 1172 1153 
Q 1172 725 1289 603 
Q 1406 481 1766 481 
L 2356 481 
L 2356 0 
L 1766 0 
Q 1100 0 847 248 
Q 594 497 594 1153 
L 594 3053 
L 172 3053 
L 172 3500 
L 594 3500 
L 594 4494 
L 1172 4494 
z
" transform="scale(0.015625)"/>
       <path id="DejaVuSans-6e" d="M 3513 2113 
L 3513 0 
L 2938 0 
L 2938 2094 
Q 2938 2591 2744 2837 
Q 2550 3084 2163 3084 
Q 1697 3084 1428 2787 
Q 1159 2491 1159 1978 
L 1159 0 
L 581 0 
L 581 3500 
L 1159 3500 
L 1159 2956 
Q 1366 3272 1645 3428 
Q 1925 3584 2291 3584 
Q 2894 3584 3203 3211 
Q 3513 2838 3513 2113 
z
" transform="scale(0.015625)"/>
      </defs>
      <use xlink:href="#DejaVuSans-61"/>
      <use xlink:href="#DejaVuSans-78" x="61.279297"/>
      <use xlink:href="#DejaVuSans-69" x="120.458984"/>
      <use xlink:href="#DejaVuSans-61" x="148.242188"/>
      <use xlink:href="#DejaVuSans-6c" x="209.521484"/>
      <use xlink:href="#DejaVuSans-52" x="237.304688"/>
      <use xlink:href="#DejaVuSans-6f" x="302.287109"/>
      <use xlink:href="#DejaVuSans-74" x="363.46875"/>
      <use xlink:href="#DejaVuSans-61" x="402.677734"/>
      <use xlink:href="#DejaVuSans-74" x="463.957031"/>
      <use xlink:href="#DejaVuSans-69" x="503.166016"/>
      <use xlink:href="#DejaVuSans-6f" x="530.949219"/>
      <use xlink:href="#DejaVuSans-6e" x="592.130859"/>
     </g>
    </g>
   </g>
   <g id="matplotlib.axis_2">
    <g id="ytick_1">
     <g id="line2d_7">
      <defs>
       <path id="m4fa0833abb" d="M 0 0 
L -3.5 0 
" style="stroke: #000000; stroke-width: 0.8"/>
      </defs>
      <g>
       <use xlink:href="#m4fa0833abb" x="34.240625" y="288.21825" style="stroke: #000000; stroke-width: 0.8"/>
      </g>
     </g>
     <g id="text_8">
      <!-- 0 -->
      <g transform="translate(20.878125 292.017469)scale(0.1 -0.1)">
       <use xlink:href="#DejaVuSans-30"/>
      </g>
     </g>
    </g>
    <g id="ytick_2">
     <g id="line2d_8">
      <g>
       <use xlink:href="#m4fa0833abb" x="34.240625" y="243.86625" style="stroke: #000000; stroke-width: 0.8"/>
      </g>
     </g>
     <g id="text_9">
      <!-- 1 -->
      <g transform="translate(20.878125 247.665469)scale(0.1 -0.1)">
       <use xlink:href="#DejaVuSans-31"/>
      </g>
     </g>
    </g>
    <g id="ytick_3">
     <g id="line2d_9">
      <g>
       <use xlink:href="#m4fa0833abb" x="34.240625" y="199.51425" style="stroke: #000000; stroke-width: 0.8"/>
      </g>
     </g>
     <g id="text_10">
      <!-- 2 -->
      <g transform="translate(20.878125 203.313469)scale(0.1 -0.1)">
       <use xlink:href="#DejaVuSans-32"/>
      </g>
     </g>
    </g>
    <g id="ytick_4">
     <g id="line2d_10">
      <g>
       <use xlink:href="#m4fa0833abb" x="34.240625" y="155.16225" style="stroke: #000000; stroke-width: 0.8"/>
      </g>
     </g>
     <g id="text_11">
      <!-- 3 -->
      <g transform="translate(20.878125 158.961469)scale(0.1 -0.1)">
       <defs>
        <path id="DejaVuSans-33" d="M 2597 2516 
Q 3050 2419 3304 2112 
Q 3559 1806 3559 1356 
Q 3559 666 3084 287 
Q 2609 -91 1734 -91 
Q 1441 -91 1130 -33 
Q 819 25 488 141 
L 488 750 
Q 750 597 1062 519 
Q 1375 441 1716 441 
Q 2309 441 2620 675 
Q 2931 909 2931 1356 
Q 2931 1769 2642 2001 
Q 2353 2234 1838 2234 
L 1294 2234 
L 1294 2753 
L 1863 2753 
Q 2328 2753 2575 2939 
Q 2822 3125 2822 3475 
Q 2822 3834 2567 4026 
Q 2313 4219 1838 4219 
Q 1578 4219 1281 4162 
Q 984 4106 628 3988 
L 628 4550 
Q 988 4650 1302 4700 
Q 1616 4750 1894 4750 
Q 2613 4750 3031 4423 
Q 3450 4097 3450 3541 
Q 3450 3153 3228 2886 
Q 3006 2619 2597 2516 
z
" transform="scale(0.015625)"/>
       </defs>
       <use xlink:href="#DejaVuSans-33"/>
      </g>
     </g>
    </g>
    <g id="ytick_5">
     <g id="line2d_11">
      <g>
       <use xlink:href="#m4fa0833abb" x="34.240625" y="110.81025" style="stroke: #000000; stroke-width: 0.8"/>
      </g>
     </g>
     <g id="text_12">
      <!-- 4 -->
      <g transform="translate(20.878125 114.609469)scale(0.1 -0.1)">
       <use xlink:href="#DejaVuSans-34"/>
      </g>
     </g>
    </g>
    <g id="ytick_6">
     <g id="line2d_12">
      <g>
       <use xlink:href="#m4fa0833abb" x="34.240625" y="66.45825" style="stroke: #000000; stroke-width: 0.8"/>
      </g>
     </g>
     <g id="text_13">
      <!-- 5 -->
      <g transform="translate(20.878125 70.257469)scale(0.1 -0.1)">
       <defs>
        <path id="DejaVuSans-35" d="M 691 4666 
L 3169 4666 
L 3169 4134 
L 1269 4134 
L 1269 2991 
Q 1406 3038 1543 3061 
Q 1681 3084 1819 3084 
Q 2600 3084 3056 2656 
Q 3513 2228 3513 1497 
Q 3513 744 3044 326 
Q 2575 -91 1722 -91 
Q 1428 -91 1123 -41 
Q 819 9 494 109 
L 494 744 
Q 775 591 1075 516 
Q 1375 441 1709 441 
Q 2250 441 2565 725 
Q 2881 1009 2881 1497 
Q 2881 1984 2565 2268 
Q 2250 2553 1709 2553 
Q 1456 2553 1204 2497 
Q 953 2441 691 2322 
L 691 4666 
z
" transform="scale(0.015625)"/>
       </defs>
       <use xlink:href="#DejaVuSans-35"/>
      </g>
     </g>
    </g>
    <g id="ytick_7">
     <g id="line2d_13">
      <g>
       <use xlink:href="#m4fa0833abb" x="34.240625" y="22.10625" style="stroke: #000000; stroke-width: 0.8"/>
      </g>
     </g>
     <g id="text_14">
      <!-- 6 -->
      <g transform="translate(20.878125 25.905469)scale(0.1 -0.1)">
       <use xlink:href="#DejaVuSans-36"/>
      </g>
     </g>
    </g>
    <g id="text_15">
     <!-- zShift -->
     <g transform="translate(14.798438 169.151312)rotate(-90)scale(0.1 -0.1)">
      <defs>
       <path id="DejaVuSans-7a" d="M 353 3500 
L 3084 3500 
L 3084 2975 
L 922 459 
L 3084 459 
L 3084 0 
L 275 0 
L 275 525 
L 2438 3041 
L 353 3041 
L 353 3500 
z
" transform="scale(0.015625)"/>
       <path id="DejaVuSans-53" d="M 3425 4513 
L 3425 3897 
Q 3066 4069 2747 4153 
Q 2428 4238 2131 4238 
Q 1616 4238 1336 4038 
Q 1056 3838 1056 3469 
Q 1056 3159 1242 3001 
Q 1428 2844 1947 2747 
L 2328 2669 
Q 3034 2534 3370 2195 
Q 3706 1856 3706 1288 
Q 3706 609 3251 259 
Q 2797 -91 1919 -91 
Q 1588 -91 1214 -16 
Q 841 59 441 206 
L 441 856 
Q 825 641 1194 531 
Q 1563 422 1919 422 
Q 2459 422 2753 634 
Q 3047 847 3047 1241 
Q 3047 1584 2836 1778 
Q 2625 1972 2144 2069 
L 1759 2144 
Q 1053 2284 737 2584 
Q 422 2884 422 3419 
Q 422 4038 858 4394 
Q 1294 4750 2059 4750 
Q 2388 4750 2728 4690 
Q 3069 4631 3425 4513 
z
" transform="scale(0.015625)"/>
       <path id="DejaVuSans-68" d="M 3513 2113 
L 3513 0 
L 2938 0 
L 2938 2094 
Q 2938 2591 2744 2837 
Q 2550 3084 2163 3084 
Q 1697 3084 1428 2787 
Q 1159 2491 1159 1978 
L 1159 0 
L 581 0 
L 581 4863 
L 1159 4863 
L 1159 2956 
Q 1366 3272 1645 3428 
Q 1925 3584 2291 3584 
Q 2894 3584 3203 3211 
Q 3513 2838 3513 2113 
z
" transform="scale(0.015625)"/>
       <path id="DejaVuSans-66" d="M 2375 4863 
L 2375 4384 
L 1825 4384 
Q 1516 4384 1395 4259 
Q 1275 4134 1275 3809 
L 1275 3500 
L 2222 3500 
L 2222 3053 
L 1275 3053 
L 1275 0 
L 697 0 
L 697 3053 
L 147 3053 
L 147 3500 
L 697 3500 
L 697 3744 
Q 697 4328 969 4595 
Q 1241 4863 1831 4863 
L 2375 4863 
z
" transform="scale(0.015625)"/>
      </defs>
      <use xlink:href="#DejaVuSans-7a"/>
      <use xlink:href="#DejaVuSans-53" x="52.490234"/>
      <use xlink:href="#DejaVuSans-68" x="115.966797"/>
      <use xlink:href="#DejaVuSans-69" x="179.345703"/>
      <use xlink:href="#DejaVuSans-66" x="207.128906"/>
      <use xlink:href="#DejaVuSans-74" x="240.583984"/>
     </g>
    </g>
   </g>
   <g id="PathCollection_1"/>
   <g id="PathCollection_2">
    <path d="M 34.240625 111.970562 
L 35.181696 110.81025 
L 36.026225 109.75114 
L 37.324217 108.14913 
L 37.847537 107.49307 
L 39.472951 105.48801 
L 39.633137 105.286981 
L 41.418737 103.063731 
L 41.61066 102.82689 
L 43.204337 100.829099 
L 43.741946 100.16577 
L 45.025649 98.559445 
L 45.882403 97.50465 
L 46.811249 96.342429 
L 48.030137 94.84353 
L 48.596849 94.134681 
L 50.185157 92.18241 
L 50.382449 91.935538 
L 52.203761 89.679798 
L 52.332569 89.52129 
L 53.989361 87.429518 
L 54.818534 86.41665 
L 55.774961 85.21753 
L 56.960692 83.75553 
L 57.560561 83.00302 
L 59.106834 81.09441 
L 59.381873 80.74975 
L 61.167473 78.53964 
L 61.253723 78.43329 
L 62.953073 76.305202 
L 63.38592 75.77217 
L 64.738673 74.079642 
L 65.525487 73.11105 
L 66.559985 71.81837 
L 67.673158 70.44993 
L 68.345585 69.608716 
L 69.825582 67.78881 
L 70.131185 67.406139 
L 71.916785 65.201913 
L 71.97699 65.12769 
L 73.738097 62.922551 
L 74.107888 62.46657 
L 75.523697 60.691042 
L 76.241597 59.80545 
L 77.309297 58.466482 
L 78.381571 57.14433 
L 79.094897 56.250388 
L 80.528509 54.48321 
L 80.916209 53.998255 
L 82.685587 51.82209 
L 82.701809 51.801798 
L 84.487409 49.571521 
L 84.821433 49.16097 
L 86.273009 47.346941 
L 86.961872 46.49985 
L 88.094321 45.073504 
L 89.472179 43.39521 
L 89.879921 42.885482 
L 91.631879 40.73409 
L 91.665521 40.692078 
L 93.451121 38.468333 
L 93.77351 38.07297 
L 95.272433 36.21172 
L 95.928566 35.41185 
L 97.058033 34.017295 
L 98.105955 32.75073 
L 98.843633 31.848879 
L 100.317792 30.08961 
L 100.629233 29.714091 
L 102.450545 27.563971 
L 102.566708 27.42849 
L 104.236145 25.467526 
L 104.85205 24.76737 
L 106.021745 23.429731 
L 107.225692 22.10625 
" clip-path="url(#p6044928390)" style="fill: none; stroke: #deebf7; stroke-width: 1.5"/>
    <path d="M 115.221777 288.21825 
L 115.013726 285.55713 
L 115.019799 282.89601 
L 115.200591 280.23489 
L 115.517951 277.57377 
L 115.926764 274.91265 
L 116.359387 272.25153 
L 116.682618 269.59041 
L 116.518924 266.92929 
L 114.985457 265.058662 
L 113.199857 265.103029 
L 111.414257 265.845516 
L 109.628657 266.865665 
L 109.54572 266.92929 
L 107.807345 268.305603 
L 106.218014 269.59041 
L 106.021745 269.749337 
L 104.236145 271.387117 
L 103.311271 272.25153 
L 102.450545 273.049826 
L 100.629233 274.770735 
L 100.488105 274.91265 
L 98.843633 276.548515 
L 97.80931 277.57377 
L 97.058033 278.306932 
L 95.272433 280.065319 
L 95.106833 280.23489 
L 93.451121 281.906881 
L 92.462732 282.89601 
L 91.665521 283.68505 
L 89.879921 285.440305 
L 89.763739 285.55713 
L 88.094321 287.225383 
L 87.075841 288.21825 
" clip-path="url(#p6044928390)" style="fill: none; stroke: #deebf7; stroke-width: 1.5"/>
    <path d="M 289.423382 288.21825 
L 289.081457 287.360436 
L 287.397402 285.55713 
L 287.260145 285.371724 
L 285.474545 285.51173 
L 285.430461 285.55713 
L 283.688945 286.643435 
L 282.004902 288.21825 
" clip-path="url(#p6044928390)" style="fill: none; stroke: #deebf7; stroke-width: 1.5"/>
    <path d="M 391.360625 109.374018 
L 390.416212 110.81025 
L 389.575025 112.11773 
L 388.687283 113.47137 
L 387.753713 114.963525 
L 387.004241 116.13249 
L 385.968113 117.882176 
L 385.410879 118.79361 
L 384.182513 121.046076 
L 383.950479 121.45473 
L 382.700213 124.11585 
L 382.396913 125.002074 
L 381.746664 126.77697 
L 381.231756 129.43809 
L 381.516852 132.09921 
L 382.396913 133.399428 
L 384.182513 135.022804 
L 384.467258 135.20385 
L 385.968113 135.774244 
L 387.753713 136.306245 
L 389.575025 136.762442 
L 391.360625 137.173059 
" clip-path="url(#p6044928390)" style="fill: none; stroke: #deebf7; stroke-width: 1.5"/>
    <path d="M 223.583837 108.14913 
L 224.478449 108.690848 
L 226.249685 108.14913 
L 226.264049 108.143302 
L 228.049649 106.575722 
L 229.317278 105.48801 
L 229.835249 104.953423 
L 231.656561 103.026686 
L 231.832219 102.82689 
L 233.442161 100.728456 
L 233.886549 100.16577 
L 235.227761 98.166361 
L 235.683025 97.50465 
L 237.013361 95.124855 
L 237.17222 94.84353 
L 237.857413 92.18241 
L 237.013361 90.906578 
L 235.227761 91.396884 
L 234.005371 92.18241 
L 233.442161 92.628495 
L 231.656561 94.308498 
L 231.129322 94.84353 
L 229.835249 96.353354 
L 228.820132 97.50465 
L 228.049649 98.544121 
L 226.803837 100.16577 
L 226.264049 101.039104 
L 225.125357 102.82689 
L 224.478449 104.192483 
L 223.858851 105.48801 
L 223.583837 108.14913 
" clip-path="url(#p6044928390)" style="fill: none; stroke: #deebf7; stroke-width: 1.5"/>
    <path d="M 291.148116 269.59041 
L 292.652657 270.904555 
L 294.438257 269.658781 
L 294.49367 269.59041 
L 296.259569 267.661918 
L 296.864481 266.92929 
L 298.045169 265.506362 
L 299.508856 263.82465 
L 299.830769 263.432497 
L 301.616369 261.21074 
L 301.651973 261.16353 
L 303.437681 258.730898 
L 303.606582 258.50241 
L 305.223281 256.167842 
L 305.453384 255.84129 
L 307.008881 253.401592 
L 307.15251 253.18017 
L 308.547158 250.51905 
L 308.794481 249.746818 
L 309.398412 247.85793 
L 308.794481 245.953718 
L 307.008881 246.359744 
L 305.223281 247.450763 
L 304.740942 247.85793 
L 303.437681 249.122789 
L 301.967298 250.51905 
L 301.616369 250.903128 
L 299.830769 252.926494 
L 299.615311 253.18017 
L 298.045169 255.240415 
L 297.57779 255.84129 
L 296.259569 257.746271 
L 295.733012 258.50241 
L 294.438257 260.593974 
L 294.089506 261.16353 
L 292.670183 263.82465 
L 292.652657 263.878525 
L 291.645461 266.92929 
L 291.148116 269.59041 
z
" clip-path="url(#p6044928390)" style="fill: none; stroke: #deebf7; stroke-width: 1.5"/>
   </g>
   <g id="PathCollection_3">
    <path d="M 34.240625 126.265905 
L 35.946253 124.11585 
L 36.026225 124.014867 
L 37.847537 121.725105 
L 38.064147 121.45473 
L 39.633137 119.48773 
L 40.192203 118.79361 
L 41.418737 117.260106 
L 42.32932 116.13249 
L 43.204337 115.039257 
L 44.47065 113.47137 
L 45.025649 112.778019 
L 46.615095 110.81025 
L 46.811249 110.564926 
L 48.596849 108.344061 
L 48.754137 108.14913 
L 50.382449 106.113598 
L 50.88721 105.48801 
L 52.203761 103.84423 
L 53.025959 102.82689 
L 53.989361 101.624887 
L 55.17041 100.16577 
L 55.774961 99.412249 
L 57.320898 97.50465 
L 57.560561 97.206021 
L 59.381873 94.952964 
L 59.470536 94.84353 
L 61.167473 92.728785 
L 61.609814 92.18241 
L 62.953073 90.506216 
L 63.749476 89.52129 
L 64.738673 88.279299 
L 66.249781 86.41665 
L 66.559985 86.02898 
L 68.345585 83.815313 
L 68.393843 83.75553 
L 70.131185 81.585598 
L 70.528073 81.09441 
L 71.916785 79.361809 
L 72.667806 78.43329 
L 73.738097 77.099992 
L 74.813938 75.77217 
L 75.523697 74.887934 
L 76.964073 73.11105 
L 77.309297 72.680752 
L 79.094897 70.475705 
L 79.115755 70.44993 
L 80.916209 68.204942 
L 81.252697 67.78881 
L 82.701809 65.978725 
L 83.389213 65.12769 
L 84.487409 63.754935 
L 85.527687 62.46657 
L 86.273009 61.53507 
L 87.66979 59.80545 
L 88.094321 59.275643 
L 89.818714 57.14433 
L 89.879921 57.068001 
L 91.665521 54.846697 
L 91.95998 54.48321 
L 93.451121 52.626856 
L 94.103448 51.82209 
L 95.272433 50.367827 
L 96.251494 49.16097 
L 97.058033 48.156969 
L 98.402502 46.49985 
L 98.843633 45.948079 
L 100.629233 43.743494 
L 100.913183 43.39521 
L 102.450545 41.489275 
L 103.066065 40.73409 
L 104.236145 39.290569 
L 105.235581 38.07297 
L 106.021745 37.111876 
L 107.43323 35.41185 
L 107.807345 34.960654 
L 109.628657 32.799729 
L 109.670243 32.75073 
L 111.414257 30.702517 
L 111.947713 30.08961 
L 113.199857 28.659177 
L 114.307351 27.42849 
L 114.985457 26.681146 
L 116.783241 24.76737 
L 116.806769 24.742616 
L 118.592369 22.899593 
L 119.396537 22.10625 
" clip-path="url(#p6044928390)" style="fill: none; stroke: #c6dbef; stroke-width: 1.5"/>
    <path d="M 128.02206 288.21825 
L 127.796568 285.55713 
L 127.915167 282.89601 
L 128.318009 280.23489 
L 129.341681 276.307686 
L 130.651831 272.25153 
L 132.948593 265.694233 
L 134.363931 261.16353 
L 135.717165 255.84129 
L 138.68649 242.53569 
L 139.434824 239.87457 
L 141.341305 234.55233 
L 142.52004 231.89121 
L 143.883797 229.23009 
L 147.014141 223.90785 
L 147.304817 223.439162 
L 150.982351 218.14209 
L 156.268529 211.076148 
L 192.159089 166.504173 
L 203.124216 153.83169 
L 206.515313 150.126822 
L 219.085937 137.196552 
L 224.478449 131.520848 
L 229.835249 125.605177 
L 235.730341 118.79361 
L 242.405873 110.68303 
L 247.798385 103.687868 
L 250.348744 100.16577 
L 253.190897 95.857676 
L 254.976497 92.839503 
L 255.348447 92.18241 
L 256.762097 89.400718 
L 258.547697 85.104943 
L 259.039426 83.75553 
L 260.603812 78.43329 
L 264.447473 62.46657 
L 265.725809 58.857262 
L 266.401786 57.14433 
L 267.670944 54.48321 
L 269.332721 51.445726 
L 271.118321 48.627578 
L 272.903921 46.136907 
L 276.510833 41.696153 
L 278.296433 39.70224 
L 282.397182 35.41185 
L 287.850625 30.08961 
L 294.438257 24.033312 
L 296.640154 22.10625 
L 296.640154 22.10625 
" clip-path="url(#p6044928390)" style="fill: none; stroke: #c6dbef; stroke-width: 1.5"/>
    <path d="M 263.074438 22.10625 
L 263.601399 24.76737 
L 263.771984 27.42849 
L 263.6286 30.08961 
L 263.186963 32.75073 
L 262.154609 36.121437 
L 261.41383 38.07297 
L 260.092514 40.73409 
L 258.504212 43.39521 
L 256.383995 46.49985 
L 253.190897 50.485328 
L 251.369585 52.556737 
L 244.191473 60.162156 
L 236.939961 67.78881 
L 229.759358 75.77217 
L 222.657137 84.153319 
L 217.300337 90.81488 
L 213.693425 95.513345 
L 210.122225 100.496673 
L 208.300913 103.28425 
L 206.515313 106.291597 
L 204.729713 109.717436 
L 204.204215 110.81025 
L 202.944113 113.826367 
L 201.300396 118.79361 
L 199.985557 124.11585 
L 197.390735 135.20385 
L 196.612189 137.86497 
L 194.609079 143.18721 
L 193.371544 145.84833 
L 191.956051 148.50945 
L 188.587889 154.031895 
L 184.980977 159.191211 
L 179.588465 166.360443 
L 141.912305 213.004764 
L 136.519793 219.350337 
L 129.341681 227.20602 
L 109.500149 247.85793 
L 102.419381 255.84129 
L 89.879921 270.687896 
L 82.701809 278.968663 
L 79.057009 282.89601 
L 75.523697 286.468362 
L 73.647738 288.21825 
L 73.647738 288.21825 
" clip-path="url(#p6044928390)" style="fill: none; stroke: #c6dbef; stroke-width: 1.5"/>
    <path d="M 306.399313 288.21825 
L 306.239079 285.55713 
L 306.493491 282.89601 
L 307.008881 280.713034 
L 307.116099 280.23489 
L 308.031701 277.57377 
L 308.794481 275.893405 
L 309.226924 274.91265 
L 310.615793 272.310228 
L 310.646524 272.25153 
L 312.224125 269.59041 
L 312.401393 269.316062 
L 313.934071 266.92929 
L 314.186993 266.55538 
L 315.972593 263.934173 
L 316.047085 263.82465 
L 317.793905 261.322074 
L 317.904472 261.16353 
L 319.579505 258.772958 
L 319.769003 258.50241 
L 321.365105 256.189637 
L 321.605008 255.84129 
L 323.150705 253.519314 
L 323.375151 253.18017 
L 324.972017 250.637839 
L 325.045885 250.51905 
L 326.573821 247.85793 
L 326.757617 247.505695 
L 327.939497 245.19681 
L 328.543217 243.881071 
L 329.146228 242.53569 
L 330.197947 239.87457 
L 330.328817 239.488004 
L 331.07521 237.21345 
L 331.847304 234.55233 
L 332.150129 233.372155 
L 332.517928 231.89121 
L 333.127721 229.23009 
L 333.746043 226.56897 
L 333.935729 225.778256 
L 334.372696 223.90785 
L 335.20315 220.80321 
L 335.721329 219.1803 
L 336.046528 218.14209 
L 337.019362 215.48097 
L 337.506929 214.345744 
L 338.149555 212.81985 
L 339.328241 210.4171 
L 339.452394 210.15873 
L 340.834765 207.49761 
L 341.113841 206.994769 
L 342.268968 204.83649 
L 342.899441 203.696002 
L 343.704633 202.17537 
L 344.685041 200.312468 
L 345.084809 199.51425 
L 346.361269 196.85313 
L 346.506353 196.527979 
L 347.483336 194.19201 
L 348.291953 192.144317 
L 348.520519 191.53089 
L 349.42822 188.86977 
L 350.077553 186.903968 
L 350.295609 186.20865 
L 351.104755 183.54753 
L 351.863153 181.208802 
L 351.964199 180.88641 
L 352.839384 178.22529 
L 353.684465 176.021767 
L 354.035055 175.12065 
L 355.226044 172.45953 
L 355.470065 171.978881 
L 356.615213 169.79841 
L 357.255665 168.743026 
L 358.288146 167.13729 
L 359.041265 166.091925 
L 360.303958 164.47617 
L 360.862577 163.820779 
L 362.648177 161.922312 
L 362.755138 161.81505 
L 364.433777 160.212993 
L 365.706036 159.15393 
L 366.219377 158.738057 
L 368.040689 157.378287 
L 369.395522 156.49281 
L 369.826289 156.213248 
L 371.611889 155.141883 
L 373.397489 154.221447 
L 374.239665 153.83169 
L 375.218801 153.375372 
L 377.004401 152.645895 
L 378.790001 152.031755 
L 380.575601 151.522171 
L 382.102067 151.17057 
L 382.396913 151.101165 
L 384.182513 150.778203 
L 385.968113 150.564007 
L 387.753713 150.460114 
L 389.575025 150.472544 
L 391.360625 150.608376 
" clip-path="url(#p6044928390)" style="fill: none; stroke: #c6dbef; stroke-width: 1.5"/>
    <path d="M 391.360625 89.832 
L 389.575025 93.7916 
L 389.068306 94.84353 
L 387.639894 97.50465 
L 384.414401 102.82689 
L 380.575601 108.464765 
L 365.652535 129.43809 
L 353.684465 147.311667 
L 348.291953 154.670715 
L 341.113841 163.645699 
L 337.506929 168.160783 
L 334.343853 172.45953 
L 332.614718 175.12065 
L 330.845238 178.22529 
L 329.543435 180.88641 
L 328.395047 183.54753 
L 326.555018 188.86977 
L 324.194888 196.85313 
L 322.314691 202.17537 
L 321.129574 204.83649 
L 319.579505 207.794042 
L 317.793905 210.719534 
L 315.972593 213.343153 
L 312.401393 217.906319 
L 309.984485 220.80321 
L 294.438257 238.951568 
L 289.081457 245.570124 
L 285.260723 250.51905 
L 281.435148 255.84129 
L 278.296433 260.736048 
L 276.510833 263.885728 
L 274.725233 267.530425 
L 272.725232 272.25153 
L 269.332721 280.916458 
L 268.462317 282.89601 
L 267.092215 285.55713 
L 265.463289 288.21825 
L 265.463289 288.21825 
" clip-path="url(#p6044928390)" style="fill: none; stroke: #c6dbef; stroke-width: 1.5"/>
   </g>
   <g id="PathCollection_4">
    <path d="M 34.240625 137.542766 
L 35.961222 135.20385 
L 36.026225 135.11742 
L 37.847537 132.709266 
L 38.312989 132.09921 
L 39.633137 130.393036 
L 40.37626 129.43809 
L 41.418737 128.110241 
L 42.471223 126.77697 
L 43.204337 125.852694 
L 44.588991 124.11585 
L 45.025649 123.569119 
L 46.722533 121.45473 
L 46.811249 121.344025 
L 48.596849 119.12017 
L 48.859748 118.79361 
L 50.382449 116.896948 
L 50.998204 116.13249 
L 52.203761 114.630404 
L 53.137052 113.47137 
L 53.989361 112.408392 
L 55.275542 110.81025 
L 55.774961 110.187243 
L 57.415498 108.14913 
L 57.560561 107.968285 
L 59.381873 105.703322 
L 59.555306 105.48801 
L 61.167473 103.482451 
L 61.696423 102.82689 
L 62.953073 101.265506 
L 63.841662 100.16577 
L 64.738673 99.051735 
L 65.989104 97.50465 
L 66.559985 96.795389 
L 68.136936 94.84353 
L 68.345585 94.583897 
L 70.131185 92.367465 
L 70.280373 92.18241 
L 71.916785 90.143764 
L 72.417912 89.52129 
L 73.738097 87.872425 
L 74.912035 86.41665 
L 75.523697 85.654229 
L 77.053378 83.75553 
L 77.309297 83.436896 
L 79.094897 81.221524 
L 79.197416 81.09441 
L 80.916209 78.959288 
L 81.341113 78.43329 
L 82.701809 76.74366 
L 83.487073 75.77217 
L 84.487409 74.529434 
L 85.633373 73.11105 
L 86.273009 72.315382 
L 87.778001 70.44993 
L 88.094321 70.055934 
L 89.879921 67.839207 
L 89.9205 67.78881 
L 91.665521 65.613549 
L 92.056527 65.12769 
L 93.451121 63.389484 
L 94.194176 62.46657 
L 95.272433 61.124353 
L 96.336082 59.80545 
L 97.058033 58.907904 
L 98.482833 57.14433 
L 98.843633 56.696308 
L 100.629233 54.489093 
L 100.63399 54.48321 
L 102.450545 52.230766 
L 102.781246 51.82209 
L 104.236145 50.017743 
L 104.929635 49.16097 
L 106.021745 47.807108 
L 107.080938 46.49985 
L 107.807345 45.599464 
L 109.603112 43.39521 
L 109.628657 43.363803 
L 111.414257 41.175039 
L 111.7763 40.73409 
L 113.199857 39.00827 
L 113.978437 38.07297 
L 114.985457 36.87263 
L 116.226026 35.41185 
L 116.806769 34.735936 
L 118.54069 32.75073 
L 118.592369 32.692428 
L 120.377969 30.705464 
L 120.943531 30.08961 
L 122.163569 28.790363 
L 123.48146 27.42849 
L 123.984881 26.922079 
L 125.770481 25.183411 
L 126.211976 24.76737 
L 127.556081 23.542642 
L 129.220365 22.10625 
" clip-path="url(#p6044928390)" style="fill: none; stroke: #9dcae1; stroke-width: 1.5"/>
    <path d="M 137.834724 288.21825 
L 137.2106 285.55713 
L 137.064976 282.89601 
L 137.290338 280.23489 
L 137.797608 277.57377 
L 139.336566 272.25153 
L 142.972033 261.16353 
L 145.519217 252.087949 
L 146.755453 247.85793 
L 148.64451 242.53569 
L 149.78293 239.87457 
L 151.079412 237.21345 
L 152.697329 234.260071 
L 154.482929 231.313759 
L 157.668232 226.56897 
L 161.916291 220.80321 
L 168.151928 212.81985 
L 181.409777 196.30407 
L 219.085937 149.868231 
L 247.17298 116.13249 
L 253.450546 108.14913 
L 257.393999 102.82689 
L 260.987494 97.50465 
L 262.597329 94.84353 
L 264.060513 92.18241 
L 265.725809 88.679183 
L 267.547121 84.134933 
L 268.566114 81.09441 
L 272.903921 67.059564 
L 273.63367 65.12769 
L 274.787977 62.46657 
L 276.510833 59.012488 
L 278.296433 55.877146 
L 280.082033 53.048592 
L 282.766028 49.16097 
L 285.474545 45.553026 
L 289.335262 40.73409 
L 294.438257 34.810788 
L 298.830274 30.08961 
L 301.616369 27.312053 
L 305.223281 23.990988 
L 307.463574 22.10625 
L 307.463574 22.10625 
" clip-path="url(#p6044928390)" style="fill: none; stroke: #9dcae1; stroke-width: 1.5"/>
    <path d="M 252.186523 22.10625 
L 252.825064 24.76737 
L 252.940811 27.42849 
L 252.620545 30.08961 
L 251.923143 32.75073 
L 250.902874 35.41185 
L 249.583985 38.110008 
L 247.798385 41.191928 
L 246.012785 43.931776 
L 242.208769 49.16097 
L 237.013361 55.649737 
L 210.122225 88.386623 
L 206.515313 93.085559 
L 202.944113 98.007822 
L 199.773168 102.82689 
L 197.551601 106.729551 
L 195.766001 110.344892 
L 195.549085 110.81025 
L 193.944689 114.837661 
L 192.606878 118.79361 
L 188.523621 132.09921 
L 186.766577 136.44066 
L 186.126945 137.86497 
L 184.778011 140.52609 
L 183.195377 143.326828 
L 179.884678 148.50945 
L 176.017265 153.902219 
L 169.929393 161.81505 
L 159.875441 174.369051 
L 118.592369 225.354936 
L 107.807345 238.155647 
L 95.237773 253.18017 
L 80.916209 270.401137 
L 75.523697 276.482513 
L 71.90813 280.23489 
L 68.345585 283.588091 
L 64.738673 286.561569 
L 62.430283 288.21825 
L 62.430283 288.21825 
" clip-path="url(#p6044928390)" style="fill: none; stroke: #9dcae1; stroke-width: 1.5"/>
    <path d="M 316.567544 288.21825 
L 316.040411 285.55713 
L 316.044575 282.89601 
L 316.485332 280.23489 
L 317.292293 277.57377 
L 317.793905 276.382346 
L 318.400447 274.91265 
L 319.579505 272.598105 
L 319.753673 272.25153 
L 321.294316 269.59041 
L 321.365105 269.478812 
L 322.972966 266.92929 
L 323.150705 266.663888 
L 324.972017 263.941855 
L 325.05015 263.82465 
L 326.757617 261.341905 
L 326.879867 261.16353 
L 328.543217 258.749502 
L 328.7128 258.50241 
L 330.328817 256.10964 
L 330.509064 255.84129 
L 332.150129 253.306842 
L 332.231552 253.18017 
L 333.844744 250.51905 
L 333.935729 250.356947 
L 335.322334 247.85793 
L 335.721329 247.067857 
L 336.654318 245.19681 
L 337.506929 243.292459 
L 337.841448 242.53569 
L 338.88629 239.87457 
L 339.328241 238.616905 
L 339.8155 237.21345 
L 340.656845 234.55233 
L 341.113841 233.022419 
L 341.449142 231.89121 
L 342.226305 229.23009 
L 342.899441 227.02855 
L 343.039742 226.56897 
L 343.909363 223.90785 
L 344.685041 221.799962 
L 345.055392 220.80321 
L 346.161801 218.14209 
L 346.506353 217.390821 
L 347.38744 215.48097 
L 348.291953 213.677796 
L 348.725421 212.81985 
L 350.077553 210.282028 
L 350.143692 210.15873 
L 351.592887 207.49761 
L 351.863153 206.99894 
L 353.034298 204.83649 
L 353.684465 203.596035 
L 354.428084 202.17537 
L 355.470065 200.064333 
L 355.741583 199.51425 
L 356.95382 196.85313 
L 357.255665 196.13339 
L 358.070066 194.19201 
L 359.041265 191.706764 
L 359.11054 191.53089 
L 360.100439 188.86977 
L 360.862577 186.809017 
L 361.088864 186.20865 
L 362.121361 183.54753 
L 362.648177 182.290654 
L 363.25777 180.88641 
L 364.433777 178.461526 
L 364.554211 178.22529 
L 366.219377 175.352189 
L 366.363679 175.12065 
L 368.040689 172.745615 
L 368.260081 172.45953 
L 369.826289 170.618246 
L 370.596177 169.79841 
L 371.611889 168.805438 
L 373.397489 167.249155 
L 373.541613 167.13729 
L 375.218801 165.915961 
L 377.004401 164.798778 
L 377.61134 164.47617 
L 378.790001 163.876367 
L 380.575601 163.13651 
L 382.396913 162.558483 
L 384.182513 162.169399 
L 385.968113 161.966173 
L 387.753713 161.964302 
L 389.575025 162.191949 
L 391.360625 162.668379 
" clip-path="url(#p6044928390)" style="fill: none; stroke: #9dcae1; stroke-width: 1.5"/>
    <path d="M 391.360625 66.848734 
L 389.97821 70.44993 
L 388.20753 75.77217 
L 385.668691 83.75553 
L 384.182513 87.729883 
L 383.456804 89.52129 
L 382.233953 92.18241 
L 380.575601 95.36997 
L 378.790001 98.445684 
L 375.972727 102.82689 
L 371.611889 108.955611 
L 364.433777 118.448903 
L 335.721329 155.474462 
L 330.328817 162.48126 
L 326.757617 167.479307 
L 324.972017 170.225354 
L 323.150705 173.319365 
L 321.365105 176.786986 
L 320.681646 178.22529 
L 319.553599 180.88641 
L 317.664321 186.20865 
L 314.186993 196.967131 
L 312.401393 201.38853 
L 312.059629 202.17537 
L 310.615793 205.074938 
L 308.794481 208.288192 
L 307.008881 211.111663 
L 303.960083 215.48097 
L 299.830769 220.873125 
L 292.652657 229.791904 
L 282.385069 242.53569 
L 276.510833 250.224911 
L 274.389341 253.18017 
L 270.883798 258.50241 
L 269.317417 261.16353 
L 267.547121 264.53841 
L 265.22842 269.59041 
L 260.774232 280.23489 
L 259.402725 282.89601 
L 257.763317 285.55713 
L 255.748307 288.21825 
L 255.748307 288.21825 
" clip-path="url(#p6044928390)" style="fill: none; stroke: #9dcae1; stroke-width: 1.5"/>
   </g>
   <g id="PathCollection_5">
    <path d="M 34.240625 149.419393 
L 34.730758 148.50945 
L 36.026225 146.324821 
L 36.312037 145.84833 
L 37.847537 143.470994 
L 38.032565 143.18721 
L 39.633137 140.86469 
L 39.868147 140.52609 
L 41.418737 138.381003 
L 41.793651 137.86497 
L 43.204337 135.97978 
L 43.787022 135.20385 
L 45.025649 133.592207 
L 46.174695 132.09921 
L 46.811249 131.286015 
L 48.259944 129.43809 
L 48.596849 129.012932 
L 50.370373 126.77697 
L 50.382449 126.761855 
L 52.203761 124.485693 
L 52.49952 124.11585 
L 53.989361 122.262048 
L 54.637453 121.45473 
L 55.774961 120.041388 
L 56.777865 118.79361 
L 57.560561 117.820784 
L 58.917118 116.13249 
L 59.381873 115.554259 
L 61.054073 113.47137 
L 61.167473 113.330212 
L 62.953073 111.107736 
L 63.191721 110.81025 
L 64.738673 108.886821 
L 65.331127 108.14913 
L 66.559985 106.623283 
L 67.473266 105.48801 
L 68.345585 104.406598 
L 69.618585 102.82689 
L 70.131185 102.191956 
L 71.765446 100.16577 
L 71.916785 99.978258 
L 73.738097 97.721175 
L 73.912561 97.50465 
L 75.523697 95.506469 
L 76.057111 94.84353 
L 77.309297 93.287794 
L 78.197364 92.18241 
L 79.094897 91.065969 
L 80.334987 89.52129 
L 80.916209 88.798546 
L 82.701809 86.575401 
L 82.829112 86.41665 
L 84.487409 84.357705 
L 84.971683 83.75553 
L 86.273009 82.142264 
L 87.117247 81.09441 
L 88.094321 79.884219 
L 89.264407 78.43329 
L 89.879921 77.670855 
L 91.41087 75.77217 
L 91.665521 75.456348 
L 93.451121 73.240213 
L 93.55507 73.11105 
L 95.272433 70.977944 
L 95.696659 70.44993 
L 97.058033 68.756939 
L 97.83515 67.78881 
L 98.843633 66.534408 
L 99.973097 65.12769 
L 100.629233 64.312331 
L 102.113374 62.46657 
L 102.450545 62.04825 
L 104.236145 59.831982 
L 104.257515 59.80545 
L 106.021745 57.622125 
L 106.407236 57.14433 
L 107.807345 55.413068 
L 108.558369 54.48321 
L 109.628657 53.160016 
L 110.709713 51.82209 
L 111.414257 50.951532 
L 112.862548 49.16097 
L 113.199857 48.745057 
L 114.985457 46.544614 
L 115.021815 46.49985 
L 116.806769 44.319804 
L 117.56387 43.39521 
L 118.592369 42.154409 
L 119.774377 40.73409 
L 120.377969 40.01964 
L 122.034359 38.07297 
L 122.163569 37.924073 
L 123.984881 35.848837 
L 124.37274 35.41185 
L 125.770481 33.881763 
L 126.821335 32.75073 
L 127.556081 31.986827 
L 129.341681 30.174874 
L 129.427697 30.08961 
L 131.162993 28.446532 
L 132.277253 27.42849 
L 132.948593 26.845412 
L 134.734193 25.360077 
L 135.479757 24.76737 
L 136.519793 23.987323 
L 138.341105 22.699788 
L 139.23258 22.10625 
" clip-path="url(#p6044928390)" style="fill: none; stroke: #6aaed6; stroke-width: 1.5"/>
    <path d="M 147.862784 288.21825 
L 146.445927 285.55713 
L 145.778588 282.89601 
L 145.648138 280.23489 
L 145.903042 277.57377 
L 146.421908 274.91265 
L 147.890816 269.59041 
L 151.206373 258.50241 
L 153.537472 250.51905 
L 155.419736 245.19681 
L 156.546833 242.53569 
L 158.054129 239.436565 
L 159.875441 236.150911 
L 162.53905 231.89121 
L 166.277667 226.56897 
L 170.643534 220.80321 
L 179.096183 210.15873 
L 220.871537 158.326571 
L 235.423871 140.52609 
L 251.369585 120.931486 
L 259.372345 110.81025 
L 263.940209 104.679802 
L 267.050534 100.16577 
L 269.332721 96.464156 
L 271.118321 93.222692 
L 271.659982 92.18241 
L 272.903921 89.519342 
L 274.725233 84.916865 
L 276.024137 81.09441 
L 279.399438 70.44993 
L 280.403667 67.78881 
L 281.903345 64.356715 
L 283.688945 60.838877 
L 285.474545 57.74474 
L 287.558265 54.48321 
L 291.34209 49.16097 
L 296.259569 42.865617 
L 300.278761 38.07297 
L 305.123793 32.75073 
L 308.794481 29.133633 
L 312.401393 25.976957 
L 314.186993 24.562588 
L 317.705926 22.10625 
L 317.705926 22.10625 
" clip-path="url(#p6044928390)" style="fill: none; stroke: #6aaed6; stroke-width: 1.5"/>
    <path d="M 241.782958 22.10625 
L 243.125082 24.76737 
L 243.661089 27.42849 
L 243.587966 30.08961 
L 243.036176 32.75073 
L 242.10005 35.41185 
L 240.620273 38.490891 
L 238.834673 41.5697 
L 237.013361 44.355823 
L 233.561357 49.16097 
L 227.277712 57.14433 
L 203.660093 86.41665 
L 199.255476 92.18241 
L 195.447761 97.50465 
L 192.057276 102.82689 
L 190.373489 105.866329 
L 188.587889 109.556861 
L 188.026342 110.81025 
L 186.015198 116.13249 
L 183.195377 125.135068 
L 181.755404 129.43809 
L 180.732016 132.09921 
L 179.370431 135.20385 
L 177.802865 138.300441 
L 176.017265 141.425767 
L 173.185949 145.84833 
L 169.388956 151.17057 
L 165.232241 156.62236 
L 156.268529 167.883999 
L 108.905995 226.56897 
L 79.094897 262.733908 
L 73.738097 268.89273 
L 70.131185 272.764265 
L 66.559985 276.262969 
L 62.953073 279.380823 
L 61.167473 280.748293 
L 57.560561 283.111651 
L 53.989361 284.887063 
L 52.203761 285.581898 
L 50.382449 286.112962 
L 48.596849 286.489369 
L 46.811249 286.714806 
L 45.025649 286.778817 
L 43.204337 286.664315 
L 41.418737 286.359679 
L 38.926279 285.55713 
L 37.847537 285.042199 
L 36.026225 283.87645 
L 34.240625 282.304575 
L 34.240625 282.304575 
" clip-path="url(#p6044928390)" style="fill: none; stroke: #6aaed6; stroke-width: 1.5"/>
    <path d="M 326.76968 288.21825 
L 326.757617 288.196323 
L 325.475901 285.55713 
L 324.981718 282.89601 
L 325.101614 280.23489 
L 325.694555 277.57377 
L 326.653562 274.91265 
L 326.757617 274.694208 
L 327.906224 272.25153 
L 328.543217 271.1054 
L 329.377155 269.59041 
L 330.328817 268.041262 
L 331.007014 266.92929 
L 332.150129 265.187678 
L 333.037572 263.82465 
L 333.935729 262.496206 
L 334.832241 261.16353 
L 335.721329 259.849245 
L 336.627981 258.50241 
L 337.506929 257.172079 
L 338.381875 255.84129 
L 339.328241 254.339708 
L 340.055519 253.18017 
L 341.113841 251.380487 
L 341.618323 250.51905 
L 342.899441 248.136596 
L 343.048941 247.85793 
L 344.341229 245.19681 
L 344.685041 244.405274 
L 345.498162 242.53569 
L 346.506353 239.932422 
L 346.528905 239.87457 
L 347.468172 237.21345 
L 348.291953 234.688067 
L 348.33684 234.55233 
L 349.184438 231.89121 
L 350.038771 229.23009 
L 350.077553 229.114929 
L 350.953104 226.56897 
L 351.863153 224.129926 
L 351.948271 223.90785 
L 353.26054 220.80321 
L 353.684465 219.893906 
L 354.524677 218.14209 
L 355.470065 216.309977 
L 355.911077 215.48097 
L 357.255665 213.071067 
L 357.400396 212.81985 
L 358.962312 210.15873 
L 359.041265 210.023428 
L 360.558218 207.49761 
L 360.862577 206.972299 
L 362.14 204.83649 
L 362.648177 203.932158 
L 363.672154 202.17537 
L 364.433777 200.755278 
L 365.129729 199.51425 
L 366.219377 197.377424 
L 366.502376 196.85313 
L 367.813036 194.19201 
L 368.040689 193.694925 
L 369.105594 191.53089 
L 369.826289 190.00215 
L 370.410612 188.86977 
L 371.611889 186.544638 
L 371.806321 186.20865 
L 373.397489 183.582732 
L 373.422092 183.54753 
L 375.218801 181.175574 
L 375.480308 180.88641 
L 377.004401 179.361484 
L 378.417521 178.22529 
L 378.790001 177.958211 
L 380.575601 177.022761 
L 382.396913 176.433104 
L 384.182513 176.250365 
L 385.968113 176.51089 
L 387.753713 177.282265 
L 389.002197 178.22529 
L 389.575025 178.770152 
L 391.10667 180.88641 
L 391.360625 181.331424 
" clip-path="url(#p6044928390)" style="fill: none; stroke: #6aaed6; stroke-width: 1.5"/>
    <path d="M 391.360625 285.42467 
L 391.256037 285.55713 
L 389.575025 287.305886 
L 388.605934 288.21825 
" clip-path="url(#p6044928390)" style="fill: none; stroke: #6aaed6; stroke-width: 1.5"/>
    <path d="M 391.360625 50.873984 
L 389.575025 54.688029 
L 385.870772 62.46657 
L 383.672487 67.78881 
L 381.821955 73.11105 
L 378.400517 83.75553 
L 377.004401 87.346024 
L 375.218801 91.287267 
L 374.781088 92.18241 
L 373.342793 94.84353 
L 370.046294 100.16577 
L 366.219377 105.623123 
L 360.277449 113.47137 
L 347.719363 129.43809 
L 333.935729 146.785057 
L 326.304414 156.49281 
L 321.365105 163.182795 
L 318.692246 167.13729 
L 315.972593 171.717074 
L 315.559469 172.45953 
L 314.186993 175.18514 
L 312.401393 179.322884 
L 310.850757 183.54753 
L 306.438989 196.85313 
L 305.223281 199.775678 
L 303.437681 203.459234 
L 301.616369 206.727183 
L 299.830769 209.599098 
L 297.655214 212.81985 
L 293.741588 218.14209 
L 287.126867 226.56897 
L 274.391659 242.53569 
L 269.332721 249.245792 
L 266.555496 253.18017 
L 263.940209 257.245474 
L 261.670077 261.16353 
L 260.295971 263.82465 
L 257.668191 269.59041 
L 254.976497 275.822726 
L 253.190897 279.404123 
L 252.735993 280.23489 
L 251.0323 282.89601 
L 248.893733 285.55713 
L 246.119544 288.21825 
L 246.119544 288.21825 
" clip-path="url(#p6044928390)" style="fill: none; stroke: #6aaed6; stroke-width: 1.5"/>
    <path d="M 390.277681 22.10625 
L 391.360625 23.393333 
" clip-path="url(#p6044928390)" style="fill: none; stroke: #6aaed6; stroke-width: 1.5"/>
   </g>
   <g id="PathCollection_6">
    <path d="M 161.339879 288.21825 
L 159.875441 287.298025 
L 157.646672 285.55713 
L 155.751586 282.89601 
L 154.861728 280.23489 
L 154.607479 277.57377 
L 154.777973 274.91265 
L 155.216138 272.25153 
L 156.486116 266.92929 
L 160.324201 253.18017 
L 162.128977 247.85793 
L 163.446641 244.656287 
L 165.232241 240.966041 
L 167.053553 237.690948 
L 169.002987 234.55233 
L 172.692032 229.23009 
L 177.802865 222.480513 
L 183.327852 215.48097 
L 246.012785 137.773379 
L 263.406054 116.13249 
L 267.547121 110.762509 
L 271.42645 105.48801 
L 274.994483 100.16577 
L 276.596577 97.50465 
L 278.296433 94.375714 
L 280.082033 90.612977 
L 280.566941 89.52129 
L 282.720105 83.75553 
L 287.09756 70.44993 
L 288.188953 67.78881 
L 289.413247 65.12769 
L 290.867057 62.333614 
L 292.652657 59.290151 
L 295.818024 54.48321 
L 299.830769 49.028962 
L 304.338008 43.39521 
L 308.962529 38.07297 
L 312.401393 34.50864 
L 314.213083 32.75073 
L 317.793905 29.674721 
L 321.365105 27.062364 
L 325.174585 24.76737 
L 328.543217 23.16406 
L 331.140125 22.10625 
L 331.140125 22.10625 
" clip-path="url(#p6044928390)" style="fill: none; stroke: #4191c6; stroke-width: 1.5"/>
    <path d="M 228.015891 22.10625 
L 228.049649 22.125745 
L 229.835249 23.321941 
L 231.656561 24.841536 
L 233.311748 27.42849 
L 233.925961 30.08961 
L 233.806598 32.75073 
L 233.146998 35.41185 
L 231.656561 38.887542 
L 230.705637 40.73409 
L 228.049649 44.941512 
L 226.264049 47.520541 
L 222.657137 52.343842 
L 216.76397 59.80545 
L 195.494267 86.41665 
L 190.373489 93.278883 
L 187.457361 97.50465 
L 184.980977 101.502789 
L 183.195377 104.728267 
L 182.792058 105.48801 
L 181.409777 108.414219 
L 179.588465 112.900609 
L 178.446198 116.13249 
L 175.024625 126.77697 
L 174.043803 129.43809 
L 172.410353 133.212856 
L 170.624753 136.764446 
L 168.839153 139.872949 
L 166.731041 143.18721 
L 162.978999 148.50945 
L 158.054129 154.973569 
L 150.498266 164.47617 
L 86.273009 243.924125 
L 78.549905 253.18017 
L 71.916785 260.769195 
L 68.345585 264.573198 
L 64.738673 268.096663 
L 62.953073 269.701389 
L 59.381873 272.488591 
L 55.774961 274.697749 
L 53.989361 275.518152 
L 52.203761 276.149404 
L 50.382449 276.590139 
L 48.596849 276.790666 
L 46.811249 276.723131 
L 45.025649 276.34152 
L 43.204337 275.572244 
L 41.418737 274.287381 
L 39.623169 272.25153 
L 37.847537 268.7703 
L 37.215874 266.92929 
L 36.435922 263.82465 
L 35.958148 261.16353 
L 35.365404 255.84129 
L 35.018021 250.51905 
L 34.746278 242.53569 
L 34.588676 229.23009 
L 34.543704 199.51425 
L 34.624476 183.54753 
L 34.758144 178.22529 
L 35.097236 172.45953 
L 35.723334 167.13729 
L 36.204129 164.47617 
L 36.832719 161.81505 
L 37.847537 158.491479 
L 38.577607 156.49281 
L 39.717729 153.83169 
L 41.418737 150.517268 
L 43.204337 147.471198 
L 46.011956 143.18721 
L 50.382449 137.194384 
L 56.421949 129.43809 
L 86.3759 92.18241 
L 123.984881 45.629852 
L 128.128877 40.73409 
L 133.010757 35.41185 
L 136.519793 32.044185 
L 140.126705 29.028821 
L 142.290001 27.42849 
L 145.519217 25.404766 
L 147.304817 24.420727 
L 150.876017 22.776105 
L 152.537389 22.10625 
L 152.537389 22.10625 
" clip-path="url(#p6044928390)" style="fill: none; stroke: #4191c6; stroke-width: 1.5"/>
    <path d="M 340.720089 288.21825 
L 339.328241 287.364922 
L 337.506929 285.99885 
L 337.007128 285.55713 
L 335.721329 283.678184 
L 335.270012 282.89601 
L 334.653694 280.23489 
L 334.779828 277.57377 
L 335.434413 274.91265 
L 335.721329 274.196445 
L 336.490786 272.25153 
L 337.506929 270.23079 
L 337.826039 269.59041 
L 339.328241 266.990419 
L 339.363326 266.92929 
L 341.113841 264.170256 
L 341.330247 263.82465 
L 342.899441 261.444692 
L 343.084295 261.16353 
L 344.685041 258.747851 
L 344.847654 258.50241 
L 346.506353 255.940897 
L 346.571027 255.84129 
L 348.218953 253.18017 
L 348.291953 253.053636 
L 349.764803 250.51905 
L 350.077553 249.927583 
L 351.186487 247.85793 
L 351.863153 246.445722 
L 352.47468 245.19681 
L 353.628876 242.53569 
L 353.684465 242.393415 
L 354.702069 239.87457 
L 355.470065 237.762451 
L 355.678653 237.21345 
L 356.630381 234.55233 
L 357.255665 232.751532 
L 357.571561 231.89121 
L 358.567721 229.23009 
L 359.041265 228.031137 
L 359.657605 226.56897 
L 360.860071 223.90785 
L 360.862577 223.902815 
L 362.50726 220.80321 
L 362.648177 220.557165 
L 364.135558 218.14209 
L 364.433777 217.680204 
L 365.970439 215.48097 
L 366.219377 215.131998 
L 368.02082 212.81985 
L 368.040689 212.794102 
L 369.826289 210.727204 
L 370.383822 210.15873 
L 371.611889 208.850919 
L 373.090227 207.49761 
L 373.397489 207.195604 
L 375.218801 205.784475 
L 376.89048 204.83649 
L 377.004401 204.765198 
L 378.790001 204.206912 
L 380.575601 204.278128 
L 381.723862 204.83649 
L 382.396913 205.191398 
L 384.182513 207.15495 
L 384.382976 207.49761 
L 385.780276 210.15873 
L 385.968113 210.567865 
L 386.755087 212.81985 
L 387.540786 215.48097 
L 387.753713 216.32853 
L 388.133809 218.14209 
L 388.599719 220.80321 
L 389.033489 223.90785 
L 389.326565 226.56897 
L 389.561791 229.23009 
L 389.575025 229.41179 
L 389.738355 231.89121 
L 389.884299 234.55233 
L 390.008789 237.21345 
L 390.117737 239.87457 
L 390.215033 242.53569 
L 390.302813 245.19681 
L 390.381572 247.85793 
L 390.449976 250.51905 
L 390.504352 253.18017 
L 390.538003 255.84129 
L 390.540517 258.50241 
L 390.497145 261.16353 
L 390.388212 263.82465 
L 390.144167 266.92929 
L 389.797576 269.59041 
L 389.575025 270.741036 
L 389.266184 272.25153 
L 388.49267 274.91265 
L 387.753713 276.760219 
L 387.404072 277.57377 
L 385.968113 280.079635 
L 385.871252 280.23489 
L 384.182513 282.33524 
L 383.684209 282.89601 
L 382.396913 284.058572 
L 380.575601 285.522039 
L 380.526918 285.55713 
L 378.790001 286.597696 
L 377.004401 287.536594 
L 375.523856 288.21825 
" clip-path="url(#p6044928390)" style="fill: none; stroke: #4191c6; stroke-width: 1.5"/>
    <path d="M 377.439535 22.10625 
L 378.790001 22.824641 
L 381.756991 24.76737 
L 382.396913 25.351756 
L 384.36066 27.42849 
L 385.971532 30.08961 
L 386.896057 32.75073 
L 387.332518 35.41185 
L 387.362304 38.07297 
L 387.051621 40.73409 
L 386.458406 43.39521 
L 385.463416 46.49985 
L 384.182513 49.67927 
L 381.965511 54.48321 
L 378.252099 62.46657 
L 376.139677 67.78881 
L 374.345563 73.11105 
L 371.611889 81.675072 
L 369.814165 86.41665 
L 368.040689 90.234765 
L 366.219377 93.615424 
L 363.851129 97.50465 
L 360.185846 102.82689 
L 355.470065 109.114888 
L 348.291953 118.243556 
L 317.793905 156.687853 
L 314.078489 161.81505 
L 310.601004 167.13729 
L 308.794481 170.282837 
L 307.008881 173.80522 
L 306.386923 175.12065 
L 304.09981 180.88641 
L 301.51373 188.86977 
L 299.717722 194.19201 
L 298.045169 198.310152 
L 297.511116 199.51425 
L 296.199033 202.17537 
L 294.438257 205.306918 
L 291.341738 210.15873 
L 287.260145 215.833683 
L 281.903345 222.755286 
L 274.61919 231.89121 
L 267.547121 240.829809 
L 262.154609 248.006122 
L 258.547697 253.222542 
L 255.312125 258.50241 
L 252.524204 263.82465 
L 247.329031 274.91265 
L 245.814039 277.57377 
L 243.955691 280.23489 
L 241.545456 282.89601 
L 238.834673 285.134518 
L 237.013361 286.317062 
L 233.318744 288.21825 
L 233.318744 288.21825 
" clip-path="url(#p6044928390)" style="fill: none; stroke: #4191c6; stroke-width: 1.5"/>
   </g>
   <g id="PathCollection_7">
    <path d="M 44.683383 247.85793 
L 44.344493 245.19681 
L 44.084721 242.53569 
L 43.885799 239.87457 
L 43.733137 237.21345 
L 43.615172 234.55233 
L 43.523194 231.89121 
L 43.451155 229.23009 
L 43.395182 226.56897 
L 43.352768 223.90785 
L 43.317698 220.80321 
L 43.297408 218.14209 
L 43.283382 215.48097 
L 43.273042 212.81985 
L 43.264451 210.15873 
L 43.256746 207.49761 
L 43.250157 204.83649 
L 43.24558 202.17537 
L 43.243947 199.51425 
L 43.245736 196.85313 
L 43.250957 194.19201 
L 43.25969 191.53089 
L 43.273 188.86977 
L 43.293907 186.20865 
L 43.328068 183.54753 
L 43.384023 180.88641 
L 43.473068 178.22529 
L 43.637248 175.12065 
L 43.848019 172.45953 
L 44.142297 169.79841 
L 44.538929 167.13729 
L 45.025649 164.635743 
L 45.05858 164.47617 
L 45.76001 161.81505 
L 46.613173 159.15393 
L 46.811249 158.641531 
L 47.675562 156.49281 
L 48.596849 154.500402 
L 48.91646 153.83169 
L 50.344078 151.17057 
L 50.382449 151.106089 
L 51.956216 148.50945 
L 52.203761 148.129458 
L 53.706802 145.84833 
L 53.989361 145.443013 
L 55.56931 143.18721 
L 55.774961 142.906065 
L 57.515558 140.52609 
L 57.560561 140.466624 
L 59.381873 138.064902 
L 59.533085 137.86497 
L 61.167473 135.76409 
L 61.599995 135.20385 
L 62.953073 133.505733 
L 64.049172 132.09921 
L 64.738673 131.238765 
L 66.167153 129.43809 
L 66.559985 128.950939 
L 68.293989 126.77697 
L 68.345585 126.713231 
L 70.131185 124.505195 
L 70.442483 124.11585 
L 71.916785 122.296261 
L 72.589976 121.45473 
L 73.738097 120.034726 
L 74.728987 118.79361 
L 75.523697 117.809994 
L 76.861605 116.13249 
L 77.309297 115.578245 
L 78.989928 113.47137 
L 79.094897 113.341571 
L 80.916209 111.080719 
L 81.132202 110.81025 
L 82.701809 108.875081 
L 83.282876 108.14913 
L 84.487409 106.666715 
L 85.432588 105.48801 
L 86.273009 104.454207 
L 87.579409 102.82689 
L 88.094321 102.192394 
L 89.718568 100.16577 
L 89.879921 99.966642 
L 91.665521 97.750126 
L 91.861724 97.50465 
L 93.451121 95.539596 
L 94.006889 94.84353 
L 95.272433 93.276361 
L 96.144869 92.18241 
L 97.058033 91.053116 
L 98.280964 89.52129 
L 98.843633 88.831234 
L 100.629233 86.597246 
L 100.772806 86.41665 
L 102.450545 84.350442 
L 102.927457 83.75553 
L 104.236145 82.146046 
L 105.079782 81.09441 
L 106.021745 79.934892 
L 107.225361 78.43329 
L 107.807345 77.715401 
L 109.363078 75.77217 
L 109.628657 75.443637 
L 111.414257 73.214367 
L 111.496702 73.11105 
L 113.199857 71.003907 
L 113.64164 70.44993 
L 114.985457 68.78831 
L 115.783855 67.78881 
L 116.806769 66.525699 
L 117.925309 65.12769 
L 118.592369 64.306649 
L 120.068653 62.46657 
L 120.377969 62.086695 
L 122.163569 59.870483 
L 122.215904 59.80545 
L 123.984881 57.637686 
L 124.382435 57.14433 
L 125.770481 55.447829 
L 126.549821 54.48321 
L 127.556081 53.258435 
L 128.722699 51.82209 
L 129.341681 51.075464 
L 130.914443 49.16097 
L 131.162993 48.86599 
L 132.948593 46.746741 
L 133.15674 46.49985 
L 134.734193 44.71602 
L 135.882715 43.39521 
L 136.519793 42.704395 
L 138.338761 40.73409 
L 138.341105 40.731701 
L 140.126705 38.962939 
L 141.031146 38.07297 
L 141.912305 37.273916 
L 143.697905 35.688676 
L 144.021208 35.41185 
L 145.519217 34.253358 
L 147.304817 32.914542 
L 147.53556 32.75073 
L 149.090417 31.772513 
L 150.876017 30.708181 
L 151.983413 30.08961 
L 152.697329 29.740281 
L 154.482929 28.938718 
L 156.268529 28.201145 
L 158.054129 27.526698 
L 158.343671 27.42849 
L 159.875441 26.980187 
L 161.661041 26.515066 
L 163.446641 26.10308 
L 165.232241 25.740837 
L 167.053553 25.418921 
L 168.839153 25.14625 
L 170.624753 24.912387 
L 171.929508 24.76737 
L 172.410353 24.721479 
L 174.231665 24.576424 
L 176.017265 24.458992 
L 177.802865 24.363261 
L 179.588465 24.286731 
L 181.409777 24.226205 
L 183.195377 24.18222 
L 184.980977 24.15199 
L 186.766577 24.134463 
L 188.587889 24.128984 
L 190.373489 24.135505 
L 192.159089 24.153954 
L 193.944689 24.184911 
L 195.766001 24.230434 
L 197.551601 24.29026 
L 199.337201 24.367147 
L 201.122801 24.463654 
L 202.944113 24.585594 
L 204.729713 24.732118 
L 205.087066 24.76737 
L 206.515313 24.941752 
L 208.300913 25.207015 
L 210.122225 25.537123 
L 211.907825 25.931246 
L 213.693425 26.409928 
L 215.479025 26.991312 
L 216.598497 27.42849 
L 217.300337 27.828051 
L 219.085937 29.075121 
L 220.252883 30.08961 
L 220.871537 31.145319 
L 221.633111 32.75073 
L 221.835013 35.41185 
L 221.303262 38.07297 
L 220.871537 39.165955 
L 220.262318 40.73409 
L 219.085937 42.989414 
L 218.87754 43.39521 
L 217.300337 45.903835 
L 216.936075 46.49985 
L 215.479025 48.594405 
L 215.090333 49.16097 
L 213.693425 51.048793 
L 213.129451 51.82209 
L 211.907825 53.41262 
L 211.097288 54.48321 
L 210.122225 55.725446 
L 209.023424 57.14433 
L 208.300913 58.054196 
L 206.928376 59.80545 
L 206.515313 60.321523 
L 204.821052 62.46657 
L 204.729713 62.580118 
L 202.944113 64.808173 
L 202.690523 65.12769 
L 201.122801 67.07022 
L 200.55032 67.78881 
L 199.337201 69.286961 
L 198.408127 70.44993 
L 197.551601 71.507371 
L 196.270031 73.11105 
L 195.766001 73.735031 
L 194.141456 75.77217 
L 193.944689 76.017423 
L 192.159089 78.260331 
L 192.022331 78.43329 
L 190.373489 80.509442 
L 189.915401 81.09441 
L 188.587889 82.788469 
L 187.839751 83.75553 
L 186.766577 85.150016 
L 185.803616 86.41665 
L 184.980977 87.505006 
L 183.494121 89.52129 
L 183.195377 89.93309 
L 181.580876 92.18241 
L 181.409777 92.429012 
L 179.74846 94.84353 
L 179.588465 95.088386 
L 178.018827 97.50465 
L 177.802865 97.860846 
L 176.409384 100.16577 
L 176.017265 100.874693 
L 174.93524 102.82689 
L 174.231665 104.241179 
L 173.605796 105.48801 
L 172.426703 108.14913 
L 172.410353 108.190109 
L 171.342957 110.81025 
L 170.624753 112.818724 
L 170.384765 113.47137 
L 169.487726 116.13249 
L 168.839153 118.209136 
L 168.649625 118.79361 
L 167.798936 121.45473 
L 167.053553 123.762166 
L 166.934392 124.11585 
L 165.971777 126.77697 
L 165.232241 128.663872 
L 164.916939 129.43809 
L 163.717875 132.09921 
L 163.446641 132.634357 
L 162.117549 135.20385 
L 161.661041 136.003475 
L 160.576277 137.86497 
L 159.875441 138.982115 
L 158.892498 140.52609 
L 158.054129 141.767823 
L 157.087642 143.18721 
L 156.268529 144.334402 
L 155.184856 145.84833 
L 154.482929 146.792756 
L 153.209209 148.50945 
L 152.697329 149.178609 
L 151.179938 151.17057 
L 150.876017 151.559885 
L 149.113915 153.83169 
L 149.090417 153.861319 
L 147.304817 156.109226 
L 147.002895 156.49281 
L 145.519217 158.340414 
L 144.872734 159.15393 
L 143.697905 160.609076 
L 142.735127 161.81505 
L 141.912305 162.831069 
L 140.596302 164.47617 
L 140.126705 165.056153 
L 138.462396 167.13729 
L 138.341105 167.287316 
L 136.519793 169.550709 
L 136.322112 169.79841 
L 134.734193 171.764088 
L 134.179665 172.45953 
L 132.948593 173.983355 
L 132.041304 175.12065 
L 131.162993 176.1993 
L 129.552489 178.22529 
L 129.341681 178.485389 
L 127.556081 180.702245 
L 127.408552 180.88641 
L 125.770481 182.901533 
L 125.252247 183.54753 
L 123.984881 185.106789 
L 123.100429 186.20865 
L 122.163569 187.363869 
L 120.957336 188.86977 
L 120.377969 189.585378 
L 118.822696 191.53089 
L 118.592369 191.815911 
L 116.806769 194.043441 
L 116.688173 194.19201 
L 114.985457 196.300077 
L 114.544199 196.85313 
L 113.199857 198.514186 
L 112.400603 199.51425 
L 111.414257 200.730224 
L 110.256463 202.17537 
L 109.628657 202.94775 
L 108.111328 204.83649 
L 107.807345 205.210372 
L 106.021745 207.428097 
L 105.965901 207.49761 
L 104.236145 209.623461 
L 103.806372 210.15873 
L 102.450545 211.827659 
L 101.654359 212.81985 
L 100.629233 214.084115 
L 99.509914 215.48097 
L 98.843633 216.30205 
L 97.368144 218.14209 
L 97.058033 218.523494 
L 95.272433 220.740694 
L 95.222073 220.80321 
L 93.451121 222.954759 
L 92.685278 223.90785 
L 91.665521 225.148678 
L 90.510789 226.56897 
L 89.879921 227.333762 
L 88.331504 229.23009 
L 88.094321 229.516846 
L 86.273009 231.727341 
L 86.137885 231.89121 
L 84.487409 233.867889 
L 83.920169 234.55233 
L 82.701809 236.004686 
L 81.693354 237.21345 
L 80.916209 238.133191 
L 79.44825 239.87457 
L 79.094897 240.288526 
L 77.309297 242.368774 
L 77.16367 242.53569 
L 75.523697 244.385509 
L 74.800221 245.19681 
L 73.738097 246.36875 
L 72.373808 247.85793 
L 71.916785 248.349772 
L 70.131185 250.222181 
L 69.836399 250.51905 
L 68.345585 251.996899 
L 67.118062 253.18017 
L 66.559985 253.709879 
L 64.738673 255.338941 
L 64.13136 255.84129 
L 62.953073 256.798082 
L 61.167473 258.130233 
L 60.586641 258.50241 
L 59.381873 259.255688 
L 57.560561 260.187605 
L 55.774961 260.860074 
L 54.20006 261.16353 
L 53.989361 261.202635 
L 53.066233 261.16353 
L 52.203761 261.117904 
L 50.382449 260.420385 
L 48.596849 258.945249 
L 48.252576 258.50241 
L 46.811249 256.058836 
L 46.717059 255.84129 
L 45.811766 253.18017 
L 45.139811 250.51905 
L 45.025649 249.936746 
L 44.683383 247.85793 
z
" clip-path="url(#p6044928390)" style="fill: none; stroke: #2070b4; stroke-width: 1.5"/>
    <path d="M 166.185097 277.57377 
L 165.422482 274.91265 
L 165.259727 272.25153 
L 165.464058 269.59041 
L 165.881345 266.92929 
L 166.511395 263.82465 
L 167.053553 261.445907 
L 167.120136 261.16353 
L 167.807677 258.50241 
L 168.530487 255.84129 
L 168.839153 254.794761 
L 169.335101 253.18017 
L 170.229434 250.51905 
L 170.624753 249.465488 
L 171.251161 247.85793 
L 172.399973 245.19681 
L 172.410353 245.175501 
L 173.734299 242.53569 
L 174.231665 241.630929 
L 175.219965 239.87457 
L 176.017265 238.565896 
L 176.85465 237.21345 
L 177.802865 235.77832 
L 178.620837 234.55233 
L 179.588465 233.174932 
L 180.494574 231.89121 
L 181.409777 230.644766 
L 182.44862 229.23009 
L 183.195377 228.245837 
L 184.462516 226.56897 
L 184.980977 225.901255 
L 186.518746 223.90785 
L 186.766577 223.596096 
L 188.587889 221.290536 
L 188.967925 220.80321 
L 190.373489 219.050208 
L 191.093763 218.14209 
L 192.159089 216.822284 
L 193.229225 215.48097 
L 193.944689 214.597269 
L 195.367265 212.81985 
L 195.766001 212.32714 
L 197.500453 210.15873 
L 197.551601 210.09548 
L 199.337201 207.884241 
L 199.645847 207.49761 
L 201.122801 205.669459 
L 201.787506 204.83649 
L 202.944113 203.403676 
L 203.923864 202.17537 
L 204.729713 201.178985 
L 206.059702 199.51425 
L 206.515313 198.952098 
L 208.196053 196.85313 
L 208.300913 196.723987 
L 210.122225 194.472739 
L 210.347347 194.19201 
L 211.907825 192.272673 
L 212.50294 191.53089 
L 213.693425 190.06489 
L 214.65122 188.86977 
L 215.479025 187.848114 
L 216.791204 186.20865 
L 217.300337 185.578551 
L 218.922055 183.54753 
L 219.085937 183.344632 
L 220.871537 181.12176 
L 221.059242 180.88641 
L 222.657137 178.91082 
L 223.2049 178.22529 
L 224.478449 176.663163 
L 225.705397 175.12065 
L 226.264049 174.432945 
L 227.847454 172.45953 
L 228.049649 172.210876 
L 229.835249 170.00016 
L 229.997311 169.79841 
L 231.656561 167.756529 
L 232.153297 167.13729 
L 233.442161 165.549298 
L 234.301553 164.47617 
L 235.227761 163.332817 
L 236.441294 161.81505 
L 237.013361 161.10826 
L 238.57615 159.15393 
L 238.834673 158.834573 
L 240.620273 156.609879 
L 240.713868 156.49281 
L 242.405873 154.409516 
L 242.86889 153.83169 
L 244.191473 152.207151 
L 245.024598 151.17057 
L 246.012785 149.957762 
L 247.177612 148.50945 
L 247.798385 147.747917 
L 249.325769 145.84833 
L 249.583985 145.531013 
L 251.369585 143.31481 
L 251.471963 143.18721 
L 253.190897 141.067819 
L 253.624286 140.52609 
L 254.976497 138.856751 
L 255.768755 137.86497 
L 256.762097 136.637934 
L 257.907519 135.20385 
L 258.547697 134.41874 
L 260.369009 132.130181 
L 260.393585 132.09921 
L 262.154609 129.928739 
L 262.547196 129.43809 
L 263.940209 127.720623 
L 264.695029 126.77697 
L 265.725809 125.502456 
L 266.832521 124.11585 
L 267.547121 123.226371 
L 268.951896 121.45473 
L 269.332721 120.976627 
L 271.048286 118.79361 
L 271.118321 118.704586 
L 272.903921 116.424296 
L 273.130033 116.13249 
L 274.725233 114.064872 
L 275.177395 113.47137 
L 276.510833 111.705382 
L 277.178367 110.81025 
L 278.296433 109.284247 
L 279.118753 108.14913 
L 280.082033 106.779301 
L 280.981921 105.48801 
L 281.903345 104.102565 
L 282.746148 102.82689 
L 283.688945 101.306172 
L 284.393253 100.16577 
L 285.474545 98.262423 
L 285.905436 97.50465 
L 287.260145 94.862935 
L 287.270173 94.84353 
L 288.520443 92.18241 
L 289.081457 90.821447 
L 289.628077 89.52129 
L 290.771973 86.41665 
L 290.867057 86.131524 
L 291.684531 83.75553 
L 292.523964 81.09441 
L 292.652657 80.678284 
L 293.374405 78.43329 
L 294.232719 75.77217 
L 294.438257 75.175045 
L 295.178052 73.11105 
L 296.205165 70.44993 
L 296.259569 70.324145 
L 297.394365 67.78881 
L 298.045169 66.468207 
L 298.725185 65.12769 
L 299.830769 63.136289 
L 300.21121 62.46657 
L 301.616369 60.180591 
L 301.850936 59.80545 
L 303.437681 57.427316 
L 303.628542 57.14433 
L 305.223281 54.905969 
L 305.525916 54.48321 
L 307.008881 52.506298 
L 307.522575 51.82209 
L 308.794481 50.199044 
L 309.607358 49.16097 
L 310.615793 47.925995 
L 311.778678 46.49985 
L 312.401393 45.77736 
L 314.186993 43.69664 
L 314.447253 43.39521 
L 315.972593 41.745484 
L 316.910411 40.73409 
L 317.793905 39.844088 
L 319.566288 38.07297 
L 319.579505 38.060777 
L 321.365105 36.475828 
L 322.583106 35.41185 
L 323.150705 34.962809 
L 324.972017 33.58474 
L 326.117777 32.75073 
L 326.757617 32.336392 
L 328.543217 31.251378 
L 330.328817 30.224648 
L 330.58332 30.08961 
L 332.150129 29.364596 
L 333.935729 28.607084 
L 335.721329 27.916092 
L 337.119288 27.42849 
L 337.506929 27.311527 
L 339.328241 26.82913 
L 341.113841 26.416984 
L 342.899441 26.063111 
L 344.685041 25.765715 
L 346.506353 25.518898 
L 348.291953 25.331032 
L 350.077553 25.195886 
L 351.863153 25.113174 
L 353.684465 25.083254 
L 355.470065 25.108565 
L 357.255665 25.190208 
L 359.041265 25.331495 
L 360.862577 25.541768 
L 362.648177 25.818803 
L 364.433777 26.173519 
L 366.219377 26.615059 
L 368.040689 27.166321 
L 368.766435 27.42849 
L 369.826289 27.920881 
L 371.611889 28.911116 
L 373.386562 30.08961 
L 373.397489 30.099777 
L 375.218801 32.084999 
L 375.738896 32.75073 
L 376.994794 35.41185 
L 377.004401 35.457419 
L 377.486095 38.07297 
L 377.461182 40.73409 
L 377.040423 43.39521 
L 377.004401 43.520329 
L 376.130097 46.49985 
L 375.218801 48.940661 
L 375.134574 49.16097 
L 373.971437 51.82209 
L 373.397489 53.080968 
L 372.747183 54.48321 
L 371.611889 56.956783 
L 371.524412 57.14433 
L 370.317288 59.80545 
L 369.826289 60.972856 
L 369.18584 62.46657 
L 368.150319 65.12769 
L 368.040689 65.433812 
L 367.173497 67.78881 
L 366.293562 70.44993 
L 366.219377 70.687104 
L 365.43317 73.11105 
L 364.612431 75.77217 
L 364.433777 76.34248 
L 363.751936 78.43329 
L 362.851222 81.09441 
L 362.648177 81.643262 
L 361.836301 83.75553 
L 360.862577 86.076517 
L 360.714586 86.41665 
L 359.203598 89.52129 
L 359.041265 89.820912 
L 357.730871 92.18241 
L 357.255665 92.972848 
L 356.111856 94.84353 
L 355.470065 95.825748 
L 354.361406 97.50465 
L 353.684465 98.47683 
L 352.501912 100.16577 
L 351.863153 101.041825 
L 350.560524 102.82689 
L 350.077553 103.467112 
L 348.558168 105.48801 
L 348.291953 105.832577 
L 346.512683 108.14913 
L 346.506353 108.157183 
L 344.685041 110.469094 
L 344.418436 110.81025 
L 342.899441 112.714159 
L 342.301457 113.47137 
L 341.113841 114.948691 
L 340.172641 116.13249 
L 339.328241 117.178849 
L 338.039269 118.79361 
L 337.506929 119.453167 
L 335.909291 121.45473 
L 335.721329 121.687724 
L 333.935729 123.914366 
L 333.77511 124.11585 
L 332.150129 126.131177 
L 331.635637 126.77697 
L 330.328817 128.399801 
L 329.502407 129.43809 
L 328.543217 130.627494 
L 327.370543 132.09921 
L 326.757617 132.853154 
L 324.972017 135.096575 
L 324.886905 135.20385 
L 323.150705 137.349265 
L 322.73853 137.86497 
L 321.365105 139.562477 
L 320.595733 140.52609 
L 319.579505 141.786941 
L 318.465865 143.18721 
L 317.793905 144.026846 
L 316.354501 145.84833 
L 315.972593 146.330783 
L 314.269328 148.50945 
L 314.186993 148.614828 
L 312.401393 150.912674 
L 312.203072 151.17057 
L 310.615793 153.245574 
L 310.172941 153.83169 
L 308.794481 155.681573 
L 308.196902 156.49281 
L 307.008881 158.142729 
L 306.288706 159.15393 
L 305.223281 160.705607 
L 304.468403 161.81505 
L 303.437681 163.413305 
L 302.756055 164.47617 
L 301.616369 166.390787 
L 301.172676 167.13729 
L 299.830769 169.615438 
L 299.731365 169.79841 
L 298.415965 172.45953 
L 298.045169 173.304935 
L 297.237132 175.12065 
L 296.259569 177.637394 
L 296.027662 178.22529 
L 295.080807 180.88641 
L 294.438257 182.879082 
L 294.215079 183.54753 
L 293.363871 186.20865 
L 292.652657 188.474955 
L 292.52368 188.86977 
L 291.612646 191.53089 
L 290.867057 193.574804 
L 290.632967 194.19201 
L 289.518896 196.85313 
L 289.081457 197.7956 
L 288.258334 199.51425 
L 287.260145 201.41364 
L 286.849345 202.17537 
L 285.474545 204.518492 
L 285.284464 204.83649 
L 283.688945 207.322475 
L 283.575209 207.49761 
L 281.903345 209.927943 
L 281.743592 210.15873 
L 280.082033 212.454702 
L 279.817534 212.81985 
L 278.296433 214.844404 
L 277.819993 215.48097 
L 276.510833 217.178372 
L 275.772573 218.14209 
L 274.725233 219.474844 
L 273.689877 220.80321 
L 272.903921 221.784107 
L 271.239513 223.90785 
L 271.118321 224.058683 
L 269.332721 226.288631 
L 269.110028 226.56897 
L 267.547121 228.507347 
L 266.971616 229.23009 
L 265.725809 230.779657 
L 264.843556 231.89121 
L 263.940209 233.021323 
L 262.732832 234.55233 
L 262.154609 235.283093 
L 260.647287 237.21345 
L 260.369009 237.570015 
L 258.592121 239.87457 
L 258.547697 239.932569 
L 256.762097 242.27332 
L 256.564153 242.53569 
L 254.976497 244.666045 
L 254.58557 245.19681 
L 253.190897 247.132454 
L 252.673167 247.85793 
L 251.369585 249.751529 
L 250.845087 250.51905 
L 249.583985 252.457184 
L 249.115759 253.18017 
L 247.798385 255.347725 
L 247.498389 255.84129 
L 246.012785 258.475291 
L 245.997378 258.50241 
L 244.578429 261.16353 
L 244.191473 261.944204 
L 243.238718 263.82465 
L 242.405873 265.541859 
L 241.715282 266.92929 
L 240.620273 269.11055 
L 240.368069 269.59041 
L 238.872206 272.25153 
L 238.834673 272.311027 
L 237.075199 274.91265 
L 237.013361 274.990749 
L 235.227761 277.060621 
L 234.743326 277.57377 
L 233.442161 278.713306 
L 231.656561 280.119341 
L 231.492528 280.23489 
L 229.835249 281.193942 
L 228.049649 282.104187 
L 226.278855 282.89601 
L 226.264049 282.901514 
L 224.478449 283.481852 
L 222.657137 283.992405 
L 220.871537 284.421596 
L 219.085937 284.787899 
L 217.300337 285.098437 
L 215.479025 285.364514 
L 213.896047 285.55713 
L 213.693425 285.578057 
L 211.907825 285.730458 
L 210.122225 285.85463 
L 208.300913 285.955948 
L 206.515313 286.033569 
L 204.729713 286.092267 
L 202.944113 286.134084 
L 201.122801 286.160936 
L 199.337201 286.172812 
L 197.551601 286.170913 
L 195.766001 286.155258 
L 193.944689 286.124612 
L 192.159089 286.079148 
L 190.373489 286.016846 
L 188.587889 285.935572 
L 186.766577 285.830265 
L 184.980977 285.701554 
L 183.349016 285.55713 
L 183.195377 285.540607 
L 181.409777 285.307894 
L 179.588465 285.017693 
L 177.802865 284.671206 
L 176.017265 284.251069 
L 174.231665 283.742363 
L 172.410353 283.113232 
L 171.878541 282.89601 
L 170.624753 282.191105 
L 168.839153 280.958847 
L 167.97318 280.23489 
L 167.053553 278.997773 
L 166.185097 277.57377 
z
" clip-path="url(#p6044928390)" style="fill: none; stroke: #2070b4; stroke-width: 1.5"/>
    <path d="M 347.424862 277.57377 
L 347.105285 274.91265 
L 347.59562 272.25153 
L 348.291953 270.407442 
L 348.600948 269.59041 
L 349.96296 266.92929 
L 350.077553 266.742329 
L 351.852141 263.82465 
L 351.863153 263.807966 
L 353.633274 261.16353 
L 353.684465 261.088234 
L 355.470065 258.51921 
L 355.482128 258.50241 
L 357.255665 255.980819 
L 357.357999 255.84129 
L 359.041265 253.414202 
L 359.213537 253.18017 
L 360.862577 250.734293 
L 361.019974 250.51905 
L 362.648177 248.033101 
L 362.775988 247.85793 
L 364.433777 245.278526 
L 364.494597 245.19681 
L 366.219377 242.548983 
L 366.230016 242.53569 
L 368.040689 239.962809 
L 368.124206 239.87457 
L 369.826289 237.877398 
L 370.724824 237.21345 
L 371.611889 236.510427 
L 373.397489 236.129826 
L 375.218801 237.120103 
L 375.284732 237.21345 
L 376.880096 239.87457 
L 377.004401 240.115235 
L 377.792332 242.53569 
L 378.547297 245.19681 
L 378.790001 246.143067 
L 379.121447 247.85793 
L 379.586517 250.51905 
L 379.987685 253.18017 
L 380.312925 255.84129 
L 380.544596 258.50241 
L 380.575601 259.206598 
L 380.648981 261.16353 
L 380.619793 263.82465 
L 380.575601 264.368275 
L 380.346911 266.92929 
L 379.845615 269.59041 
L 379.034696 272.25153 
L 378.790001 272.792357 
L 377.72087 274.91265 
L 377.004401 275.928192 
L 375.693245 277.57377 
L 375.218801 278.01803 
L 373.397489 279.502809 
L 372.353139 280.23489 
L 371.611889 280.637056 
L 369.826289 281.452628 
L 368.040689 282.124595 
L 366.219377 282.670037 
L 365.211111 282.89601 
L 364.433777 283.035059 
L 362.648177 283.247987 
L 360.862577 283.356656 
L 359.041265 283.358513 
L 357.255665 283.249144 
L 355.470065 283.022154 
L 354.82494 282.89601 
L 353.684465 282.583065 
L 351.863153 281.866171 
L 350.077553 280.893186 
L 349.149006 280.23489 
L 348.291953 279.089379 
L 347.424862 277.57377 
z
" clip-path="url(#p6044928390)" style="fill: none; stroke: #2070b4; stroke-width: 1.5"/>
   </g>
   <g id="PathCollection_8">
    <path d="M 59.136245 220.80321 
L 58.751336 218.14209 
L 58.469601 215.48097 
L 58.260139 212.81985 
L 58.101035 210.15873 
L 57.978018 207.49761 
L 57.88297 204.83649 
L 57.811807 202.17537 
L 57.76206 199.51425 
L 57.730954 196.85313 
L 57.71473 194.19201 
L 57.709432 191.53089 
L 57.712749 188.86977 
L 57.726014 186.20865 
L 57.755434 183.54753 
L 57.812099 180.88641 
L 57.910894 178.22529 
L 58.10232 175.12065 
L 58.35227 172.45953 
L 58.700179 169.79841 
L 59.16218 167.13729 
L 59.381873 166.167005 
L 59.802238 164.47617 
L 60.618861 161.81505 
L 61.167473 160.324038 
L 61.627664 159.15393 
L 62.834172 156.49281 
L 62.953073 156.265405 
L 64.273991 153.83169 
L 64.738673 153.052486 
L 65.889129 151.17057 
L 66.559985 150.150209 
L 67.652371 148.50945 
L 68.345585 147.527844 
L 69.533194 145.84833 
L 70.131185 145.041318 
L 71.496336 143.18721 
L 71.916785 142.637887 
L 73.51585 140.52609 
L 73.738097 140.24181 
L 75.523697 137.93158 
L 75.575092 137.86497 
L 77.309297 135.689409 
L 77.688738 135.20385 
L 79.094897 133.481622 
L 80.175088 132.09921 
L 80.916209 131.186583 
L 82.306132 129.43809 
L 82.701809 128.953034 
L 84.436596 126.77697 
L 84.487409 126.714674 
L 86.273009 124.519648 
L 86.595182 124.11585 
L 88.094321 122.272899 
L 88.744948 121.45473 
L 89.879921 120.057559 
L 90.882817 118.79361 
L 91.665521 117.829014 
L 93.010566 116.13249 
L 93.451121 115.590122 
L 95.134898 113.47137 
L 95.272433 113.302299 
L 97.058033 111.090131 
L 97.280686 110.81025 
L 98.843633 108.898144 
L 99.441247 108.14913 
L 100.629233 106.697846 
L 101.597161 105.48801 
L 102.450545 104.443415 
L 103.741631 102.82689 
L 104.236145 102.220712 
L 105.873748 100.16577 
L 106.021745 99.983796 
L 107.807345 97.766675 
L 108.01577 97.50465 
L 109.628657 95.516387 
L 110.162357 94.84353 
L 111.414257 93.302508 
L 112.303079 92.18241 
L 113.199857 91.080947 
L 114.440265 89.52129 
L 114.985457 88.861605 
L 116.806769 86.572923 
L 116.929916 86.41665 
L 118.592369 84.386589 
L 119.096677 83.75553 
L 120.377969 82.190057 
L 121.253254 81.09441 
L 122.163569 79.979395 
L 123.397512 78.43329 
L 123.984881 77.710698 
L 125.525982 75.77217 
L 125.770481 75.471097 
L 127.556081 73.235176 
L 127.654528 73.11105 
L 129.341681 71.035065 
L 129.80653 70.44993 
L 131.162993 68.783385 
L 131.954454 67.78881 
L 132.948593 66.574337 
L 134.105125 65.12769 
L 134.734193 64.363103 
L 136.258596 62.46657 
L 136.519793 62.150831 
L 138.341105 59.913448 
L 138.428632 59.80545 
L 140.126705 57.777647 
L 140.645162 57.14433 
L 141.912305 55.653495 
L 142.886403 54.48321 
L 143.697905 53.553074 
L 145.182133 51.82209 
L 145.519217 51.451706 
L 147.304817 49.494068 
L 147.61008 49.16097 
L 149.090417 47.685833 
L 150.267003 46.49985 
L 150.876017 45.961574 
L 152.697329 44.386437 
L 153.8464 43.39521 
L 154.482929 42.931647 
L 156.268529 41.694299 
L 157.695174 40.73409 
L 158.054129 40.533152 
L 159.875441 39.600544 
L 161.661041 38.740782 
L 163.161888 38.07297 
L 163.446641 37.971292 
L 165.232241 37.411204 
L 167.053553 36.903525 
L 168.839153 36.467723 
L 170.624753 36.091953 
L 172.410353 35.774285 
L 174.231665 35.5077 
L 175.064362 35.41185 
L 176.017265 35.327728 
L 177.802865 35.210955 
L 179.588465 35.132261 
L 181.409777 35.090022 
L 183.195377 35.08562 
L 184.980977 35.118667 
L 186.766577 35.191239 
L 188.587889 35.30971 
L 189.699092 35.41185 
L 190.373489 35.500921 
L 192.159089 35.819126 
L 193.944689 36.244796 
L 195.766001 36.820535 
L 197.551601 37.567238 
L 198.49246 38.07297 
L 199.337201 39.015035 
L 200.450595 40.73409 
L 200.56703 43.39521 
L 199.593669 46.49985 
L 199.337201 46.979773 
L 198.200333 49.16097 
L 197.551601 50.174881 
L 196.52341 51.82209 
L 195.766001 52.892769 
L 194.666662 54.48321 
L 193.944689 55.448379 
L 192.70455 57.14433 
L 192.159089 57.848704 
L 190.679021 59.80545 
L 190.373489 60.192021 
L 188.617067 62.46657 
L 188.587889 62.503002 
L 186.766577 64.788066 
L 186.501514 65.12769 
L 184.980977 67.011447 
L 184.368588 67.78881 
L 183.195377 69.236216 
L 182.23511 70.44993 
L 181.409777 71.469339 
L 180.110437 73.11105 
L 179.588465 73.760768 
L 178.0078 75.77217 
L 177.802865 76.029877 
L 176.017265 78.312022 
L 175.923182 78.43329 
L 174.231665 80.599025 
L 173.852646 81.09441 
L 172.410353 82.982238 
L 171.830545 83.75553 
L 170.624753 85.373287 
L 169.860651 86.41665 
L 168.839153 87.821566 
L 167.64765 89.52129 
L 167.053553 90.38883 
L 165.835144 92.18241 
L 165.232241 93.118491 
L 164.12346 94.84353 
L 163.446641 95.975895 
L 162.528954 97.50465 
L 161.661041 99.096602 
L 161.070237 100.16577 
L 159.875441 102.601426 
L 159.76201 102.82689 
L 158.550324 105.48801 
L 158.054129 106.743136 
L 157.472863 108.14913 
L 156.506388 110.81025 
L 156.268529 111.530394 
L 155.587648 113.47137 
L 154.73797 116.13249 
L 154.482929 116.955773 
L 153.872773 118.79361 
L 152.999408 121.45473 
L 152.697329 122.329219 
L 152.036944 124.11585 
L 150.99817 126.77697 
L 150.876017 127.0568 
L 149.780295 129.43809 
L 149.090417 130.817336 
L 148.422433 132.09921 
L 147.304817 134.042238 
L 146.628655 135.20385 
L 145.519217 136.949074 
L 144.92702 137.86497 
L 143.697905 139.657708 
L 143.098538 140.52609 
L 141.912305 142.16119 
L 141.170155 143.18721 
L 140.126705 144.571541 
L 139.173293 145.84833 
L 138.341105 146.923722 
L 137.129643 148.50945 
L 136.519793 149.28378 
L 135.057487 151.17057 
L 134.734193 151.574893 
L 132.964508 153.83169 
L 132.948593 153.851391 
L 131.162993 156.060835 
L 130.820802 156.49281 
L 129.341681 158.311699 
L 128.671631 159.15393 
L 127.556081 160.520577 
L 126.523935 161.81505 
L 125.770481 162.738705 
L 124.38593 164.47617 
L 123.984881 164.969015 
L 122.258734 167.13729 
L 122.163569 167.254649 
L 120.377969 169.467765 
L 120.115739 169.79841 
L 118.592369 171.675347 
L 117.97073 172.45953 
L 116.806769 173.891532 
L 115.829692 175.12065 
L 114.985457 176.144984 
L 113.347164 178.22529 
L 113.199857 178.405456 
L 111.414257 180.609604 
L 111.19312 180.88641 
L 109.628657 182.796003 
L 109.026829 183.54753 
L 107.807345 185.039631 
L 106.873011 186.20865 
L 106.021745 187.251604 
L 104.73094 188.86977 
L 104.236145 189.477352 
L 102.600654 191.53089 
L 102.450545 191.715296 
L 100.629233 193.974272 
L 100.45551 194.19201 
L 98.843633 196.162404 
L 98.290678 196.85313 
L 97.058033 198.352607 
L 96.122933 199.51425 
L 95.272433 200.543041 
L 93.948376 202.17537 
L 93.451121 202.774537 
L 91.770292 204.83649 
L 91.665521 204.962102 
L 89.879921 207.096508 
L 89.547376 207.49761 
L 88.094321 209.212229 
L 87.302307 210.15873 
L 86.273009 211.366003 
L 85.045511 212.81985 
L 84.487409 213.466552 
L 82.762627 215.48097 
L 82.701809 215.550336 
L 80.916209 217.525763 
L 80.354205 218.14209 
L 79.094897 219.489924 
L 77.855175 220.80321 
L 77.309297 221.358856 
L 75.523697 223.109864 
L 74.676125 223.90785 
L 73.738097 224.756517 
L 71.916785 226.297436 
L 71.53909 226.56897 
L 70.131185 227.555186 
L 68.345585 228.598008 
L 66.773428 229.23009 
L 66.559985 229.313827 
L 64.738673 229.491435 
L 63.790848 229.23009 
L 62.953073 228.912786 
L 61.167473 227.010936 
L 60.930225 226.56897 
L 59.883416 223.90785 
L 59.381873 222.043667 
L 59.136245 220.80321 
z
" clip-path="url(#p6044928390)" style="fill: none; stroke: #08509b; stroke-width: 1.5"/>
    <path d="M 182.691613 266.92929 
L 182.369205 263.82465 
L 182.530128 261.16353 
L 182.936774 258.50241 
L 183.195377 257.337544 
L 183.552092 255.84129 
L 184.339971 253.18017 
L 184.980977 251.318492 
L 185.273993 250.51905 
L 186.397418 247.85793 
L 186.766577 247.08502 
L 187.709259 245.19681 
L 188.587889 243.592038 
L 189.185462 242.53569 
L 190.373489 240.600146 
L 190.827623 239.87457 
L 192.159089 237.886282 
L 192.613559 237.21345 
L 193.944689 235.34754 
L 194.512393 234.55233 
L 195.766001 232.868625 
L 196.4891 231.89121 
L 197.551601 230.50793 
L 198.520569 229.23009 
L 199.337201 228.188885 
L 200.586876 226.56897 
L 201.122801 225.896061 
L 202.678156 223.90785 
L 202.944113 223.581345 
L 204.729713 221.355931 
L 205.161067 220.80321 
L 206.515313 219.138625 
L 207.307533 218.14209 
L 208.300913 216.924916 
L 209.45335 215.48097 
L 210.122225 214.660272 
L 211.589093 212.81985 
L 211.907825 212.428349 
L 213.693425 210.186712 
L 213.715671 210.15873 
L 215.479025 207.988468 
L 215.868837 207.49761 
L 217.300337 205.731615 
L 218.009749 204.83649 
L 219.085937 203.511898 
L 220.146518 202.17537 
L 220.871537 201.285423 
L 222.280945 199.51425 
L 222.657137 199.053801 
L 224.415446 196.85313 
L 224.478449 196.776041 
L 226.264049 194.58635 
L 226.579215 194.19201 
L 228.049649 192.395599 
L 228.740537 191.53089 
L 229.835249 190.190203 
L 230.889459 188.86977 
L 231.656561 187.926528 
L 233.023401 186.20865 
L 233.442161 185.693548 
L 235.147873 183.54753 
L 235.227761 183.449324 
L 237.013361 181.245463 
L 237.299586 180.88641 
L 238.834673 179.005775 
L 239.458105 178.22529 
L 240.620273 176.825857 
L 241.971671 175.12065 
L 242.405873 174.592571 
L 244.120716 172.45953 
L 244.191473 172.373475 
L 246.012785 170.151994 
L 246.297898 169.79841 
L 247.798385 167.975777 
L 248.473158 167.13729 
L 249.583985 165.783572 
L 250.632928 164.47617 
L 251.369585 163.576112 
L 252.780728 161.81505 
L 253.190897 161.31293 
L 254.917389 159.15393 
L 254.976497 159.081748 
L 256.762097 156.89874 
L 257.087676 156.49281 
L 258.547697 154.718817 
L 259.26102 153.83169 
L 260.369009 152.485039 
L 261.425217 151.17057 
L 262.154609 150.284354 
L 263.579129 148.50945 
L 263.940209 148.069377 
L 265.717478 145.84833 
L 265.725809 145.838134 
L 267.547121 143.608363 
L 267.882787 143.18721 
L 269.332721 141.408378 
L 270.033275 140.52609 
L 271.118321 139.19213 
L 272.170241 137.86497 
L 272.903921 136.963147 
L 274.300691 135.20385 
L 274.725233 134.688819 
L 276.510833 132.456892 
L 276.790807 132.09921 
L 278.296433 130.253201 
L 278.943491 129.43809 
L 280.082033 128.037824 
L 281.08161 126.77697 
L 281.903345 125.75744 
L 283.194373 124.11585 
L 283.688945 123.495704 
L 285.276788 121.45473 
L 285.474545 121.202766 
L 287.260145 118.885618 
L 287.330508 118.79361 
L 289.081457 116.506045 
L 289.361287 116.13249 
L 290.867057 114.115783 
L 291.338517 113.47137 
L 292.652657 111.65159 
L 293.250015 110.81025 
L 294.438257 109.091317 
L 295.082373 108.14913 
L 296.259569 106.342863 
L 296.813859 105.48801 
L 298.045169 103.457499 
L 298.428 102.82689 
L 299.830769 100.295057 
L 299.903148 100.16577 
L 301.271793 97.50465 
L 301.616369 96.744116 
L 302.504522 94.84353 
L 303.437681 92.521072 
L 303.579719 92.18241 
L 304.592391 89.52129 
L 305.223281 87.62838 
L 305.646832 86.41665 
L 306.507728 83.75553 
L 307.008881 82.121836 
L 307.347185 81.09441 
L 308.226044 78.43329 
L 308.794481 76.760182 
L 309.154693 75.77217 
L 310.196739 73.11105 
L 310.615793 72.134709 
L 311.380827 70.44993 
L 312.401393 68.382935 
L 312.708278 67.78881 
L 314.186993 65.158791 
L 314.205079 65.12769 
L 315.888768 62.46657 
L 315.972593 62.343197 
L 317.720065 59.80545 
L 317.793905 59.704451 
L 319.579505 57.290333 
L 319.688414 57.14433 
L 321.365105 55.027677 
L 321.795303 54.48321 
L 323.150705 52.874182 
L 324.032877 51.82209 
L 324.972017 50.780691 
L 326.424684 49.16097 
L 326.757617 48.82227 
L 328.543217 47.046372 
L 329.100855 46.49985 
L 330.328817 45.457019 
L 332.150129 43.918088 
L 332.794019 43.39521 
L 333.935729 42.622233 
L 335.721329 41.474782 
L 336.948412 40.73409 
L 337.506929 40.457014 
L 339.328241 39.66073 
L 341.113841 38.966818 
L 342.899441 38.37216 
L 344.030963 38.07297 
L 344.685041 37.938011 
L 346.506353 37.67934 
L 348.291953 37.542863 
L 350.077553 37.534599 
L 351.863153 37.669618 
L 353.684465 37.974836 
L 354.054084 38.07297 
L 355.470065 38.660853 
L 357.255665 39.774428 
L 358.352664 40.73409 
L 359.041265 42.036331 
L 359.572174 43.39521 
L 359.638189 46.49985 
L 359.114858 49.16097 
L 359.041265 49.390772 
L 358.235907 51.82209 
L 357.260602 54.48321 
L 357.255665 54.495721 
L 356.17431 57.14433 
L 355.470065 58.981334 
L 355.141134 59.80545 
L 354.1388 62.46657 
L 353.684465 63.790925 
L 353.199771 65.12769 
L 352.316852 67.78881 
L 351.863153 69.268077 
L 351.475018 70.44993 
L 350.636911 73.11105 
L 350.077553 74.924917 
L 349.796642 75.77217 
L 348.880146 78.43329 
L 348.291953 80.052671 
L 347.887794 81.09441 
L 346.766855 83.75553 
L 346.506353 84.311644 
L 345.470461 86.41665 
L 344.685041 87.862537 
L 343.764354 89.52129 
L 342.899441 90.940977 
L 342.125257 92.18241 
L 341.113841 93.700714 
L 340.343078 94.84353 
L 339.328241 96.269152 
L 338.445059 97.50465 
L 337.506929 98.763921 
L 336.466129 100.16577 
L 335.721329 101.133067 
L 334.43072 102.82689 
L 333.935729 103.455914 
L 332.360021 105.48801 
L 332.150129 105.750627 
L 330.328817 108.056402 
L 330.255727 108.14913 
L 328.543217 110.258457 
L 328.104761 110.81025 
L 326.757617 112.458249 
L 325.948353 113.47137 
L 324.972017 114.662048 
L 323.7934 116.13249 
L 323.150705 116.917596 
L 321.650142 118.79361 
L 321.365105 119.142362 
L 319.579505 121.370914 
L 319.512629 121.45473 
L 317.793905 123.561724 
L 317.352943 124.11585 
L 315.972593 125.815271 
L 315.210354 126.77697 
L 314.186993 128.036046 
L 313.07628 129.43809 
L 312.401393 130.267473 
L 310.948436 132.09921 
L 310.615793 132.502204 
L 308.794481 134.765086 
L 308.450914 135.20385 
L 307.008881 136.973924 
L 306.302229 137.86497 
L 305.223281 139.196159 
L 304.173338 140.52609 
L 303.437681 141.442534 
L 302.070552 143.18721 
L 301.616369 143.761727 
L 300.004155 145.84833 
L 299.830769 146.071327 
L 298.045169 148.407414 
L 297.96796 148.50945 
L 296.259569 150.765914 
L 295.959412 151.17057 
L 294.438257 153.242901 
L 294.013578 153.83169 
L 292.652657 155.755255 
L 292.138596 156.49281 
L 290.867057 158.382666 
L 290.353181 159.15393 
L 289.081457 161.171665 
L 288.676629 161.81505 
L 287.260145 164.258943 
L 287.133381 164.47617 
L 285.704812 167.13729 
L 285.474545 167.61741 
L 284.403399 169.79841 
L 283.688945 171.474371 
L 283.253901 172.45953 
L 282.216276 175.12065 
L 281.903345 176.020654 
L 281.103273 178.22529 
L 280.248525 180.88641 
L 280.082033 181.429008 
L 279.385772 183.54753 
L 278.548624 186.20865 
L 278.296433 186.985548 
L 277.641283 188.86977 
L 276.679853 191.53089 
L 276.510833 191.953315 
L 275.562219 194.19201 
L 274.725233 196.017365 
L 274.322569 196.85313 
L 272.927979 199.51425 
L 272.903921 199.555623 
L 271.33953 202.17537 
L 271.118321 202.520164 
L 269.611066 204.83649 
L 269.332721 205.239376 
L 267.765897 207.49761 
L 267.547121 207.797872 
L 265.831392 210.15873 
L 265.725809 210.298564 
L 263.940209 212.66699 
L 263.825422 212.81985 
L 262.154609 214.967802 
L 261.761666 215.48097 
L 260.369009 217.241354 
L 259.668821 218.14209 
L 258.547697 219.543725 
L 257.559794 220.80321 
L 256.762097 221.779222 
L 255.099646 223.90785 
L 254.976497 224.059865 
L 253.190897 226.281931 
L 252.96342 226.56897 
L 251.369585 228.543632 
L 250.827863 229.23009 
L 249.583985 230.78222 
L 248.715625 231.89121 
L 247.798385 233.050767 
L 246.636687 234.55233 
L 246.012785 235.354576 
L 244.595217 237.21345 
L 244.191473 237.744269 
L 242.599566 239.87457 
L 242.405873 240.135614 
L 240.653883 242.53569 
L 240.620273 242.582502 
L 238.834673 245.088796 
L 238.758394 245.19681 
L 237.013361 247.748656 
L 236.939082 247.85793 
L 235.227761 250.487215 
L 235.207045 250.51905 
L 233.554675 253.18017 
L 233.442161 253.372818 
L 231.976131 255.84129 
L 231.656561 256.41042 
L 230.446101 258.50241 
L 229.835249 259.591046 
L 228.913397 261.16353 
L 228.049649 262.602637 
L 227.272738 263.82465 
L 226.264049 265.246387 
L 224.991398 266.92929 
L 224.478449 267.49374 
L 222.657137 269.307805 
L 222.339774 269.59041 
L 220.871537 270.625817 
L 219.085937 271.736552 
L 218.131872 272.25153 
L 217.300337 272.597077 
L 215.479025 273.236688 
L 213.693425 273.761861 
L 211.907825 274.195098 
L 210.122225 274.544709 
L 208.300913 274.822859 
L 207.504506 274.91265 
L 206.515313 274.997278 
L 204.729713 275.100057 
L 202.944113 275.155964 
L 201.122801 275.166106 
L 199.337201 275.129856 
L 197.551601 275.045915 
L 195.794966 274.91265 
L 195.766001 274.909641 
L 193.944689 274.64051 
L 192.159089 274.281833 
L 190.373489 273.810387 
L 188.587889 273.200652 
L 186.766577 272.400348 
L 186.493461 272.25153 
L 184.980977 270.94081 
L 183.781176 269.59041 
L 183.195377 268.315203 
L 182.691613 266.92929 
z
" clip-path="url(#p6044928390)" style="fill: none; stroke: #08509b; stroke-width: 1.5"/>
   </g>
   <g id="PathCollection_9"/>
   <g id="patch_3">
    <path d="M 34.240625 288.21825 
L 34.240625 22.10625 
" style="fill: none; stroke: #000000; stroke-width: 0.8; stroke-linejoin: miter; stroke-linecap: square"/>
   </g>
   <g id="patch_4">
    <path d="M 391.360625 288.21825 
L 391.360625 22.10625 
" style="fill: none; stroke: #000000; stroke-width: 0.8; stroke-linejoin: miter; stroke-linecap: square"/>
   </g>
   <g id="patch_5">
    <path d="M 34.240625 288.21825 
L 391.360625 288.21825 
" style="fill: none; stroke: #000000; stroke-width: 0.8; stroke-linejoin: miter; stroke-linecap: square"/>
   </g>
   <g id="patch_6">
    <path d="M 34.240625 22.10625 
L 391.360625 22.10625 
" style="fill: none; stroke: #000000; stroke-width: 0.8; stroke-linejoin: miter; stroke-linecap: square"/>
   </g>
   <g id="text_16">
    <!-- 9.5_cross_26.0 -->
    <g transform="translate(168.34625 16.10625)scale(0.12 -0.12)">
     <defs>
      <path id="DejaVuSans-39" d="M 703 97 
L 703 672 
Q 941 559 1184 500 
Q 1428 441 1663 441 
Q 2288 441 2617 861 
Q 2947 1281 2994 2138 
Q 2813 1869 2534 1725 
Q 2256 1581 1919 1581 
Q 1219 1581 811 2004 
Q 403 2428 403 3163 
Q 403 3881 828 4315 
Q 1253 4750 1959 4750 
Q 2769 4750 3195 4129 
Q 3622 3509 3622 2328 
Q 3622 1225 3098 567 
Q 2575 -91 1691 -91 
Q 1453 -91 1209 -44 
Q 966 3 703 97 
z
M 1959 2075 
Q 2384 2075 2632 2365 
Q 2881 2656 2881 3163 
Q 2881 3666 2632 3958 
Q 2384 4250 1959 4250 
Q 1534 4250 1286 3958 
Q 1038 3666 1038 3163 
Q 1038 2656 1286 2365 
Q 1534 2075 1959 2075 
z
" transform="scale(0.015625)"/>
      <path id="DejaVuSans-2e" d="M 684 794 
L 1344 794 
L 1344 0 
L 684 0 
L 684 794 
z
" transform="scale(0.015625)"/>
      <path id="DejaVuSans-5f" d="M 3263 -1063 
L 3263 -1509 
L -63 -1509 
L -63 -1063 
L 3263 -1063 
z
" transform="scale(0.015625)"/>
      <path id="DejaVuSans-63" d="M 3122 3366 
L 3122 2828 
Q 2878 2963 2633 3030 
Q 2388 3097 2138 3097 
Q 1578 3097 1268 2742 
Q 959 2388 959 1747 
Q 959 1106 1268 751 
Q 1578 397 2138 397 
Q 2388 397 2633 464 
Q 2878 531 3122 666 
L 3122 134 
Q 2881 22 2623 -34 
Q 2366 -91 2075 -91 
Q 1284 -91 818 406 
Q 353 903 353 1747 
Q 353 2603 823 3093 
Q 1294 3584 2113 3584 
Q 2378 3584 2631 3529 
Q 2884 3475 3122 3366 
z
" transform="scale(0.015625)"/>
      <path id="DejaVuSans-72" d="M 2631 2963 
Q 2534 3019 2420 3045 
Q 2306 3072 2169 3072 
Q 1681 3072 1420 2755 
Q 1159 2438 1159 1844 
L 1159 0 
L 581 0 
L 581 3500 
L 1159 3500 
L 1159 2956 
Q 1341 3275 1631 3429 
Q 1922 3584 2338 3584 
Q 2397 3584 2469 3576 
Q 2541 3569 2628 3553 
L 2631 2963 
z
" transform="scale(0.015625)"/>
      <path id="DejaVuSans-73" d="M 2834 3397 
L 2834 2853 
Q 2591 2978 2328 3040 
Q 2066 3103 1784 3103 
Q 1356 3103 1142 2972 
Q 928 2841 928 2578 
Q 928 2378 1081 2264 
Q 1234 2150 1697 2047 
L 1894 2003 
Q 2506 1872 2764 1633 
Q 3022 1394 3022 966 
Q 3022 478 2636 193 
Q 2250 -91 1575 -91 
Q 1294 -91 989 -36 
Q 684 19 347 128 
L 347 722 
Q 666 556 975 473 
Q 1284 391 1588 391 
Q 1994 391 2212 530 
Q 2431 669 2431 922 
Q 2431 1156 2273 1281 
Q 2116 1406 1581 1522 
L 1381 1569 
Q 847 1681 609 1914 
Q 372 2147 372 2553 
Q 372 3047 722 3315 
Q 1072 3584 1716 3584 
Q 2034 3584 2315 3537 
Q 2597 3491 2834 3397 
z
" transform="scale(0.015625)"/>
     </defs>
     <use xlink:href="#DejaVuSans-39"/>
     <use xlink:href="#DejaVuSans-2e" x="63.623047"/>
     <use xlink:href="#DejaVuSans-35" x="95.410156"/>
     <use xlink:href="#DejaVuSans-5f" x="159.033203"/>
     <use xlink:href="#DejaVuSans-63" x="209.033203"/>
     <use xlink:href="#DejaVuSans-72" x="264.013672"/>
     <use xlink:href="#DejaVuSans-6f" x="302.876953"/>
     <use xlink:href="#DejaVuSans-73" x="364.058594"/>
     <use xlink:href="#DejaVuSans-73" x="416.158203"/>
     <use xlink:href="#DejaVuSans-5f" x="468.257812"/>
     <use xlink:href="#DejaVuSans-32" x="518.257812"/>
     <use xlink:href="#DejaVuSans-36" x="581.880859"/>
     <use xlink:href="#DejaVuSans-2e" x="645.503906"/>
     <use xlink:href="#DejaVuSans-30" x="677.291016"/>
    </g>
   </g>
  </g>
 </g>
 <defs>
  <clipPath id="p6044928390">
   <rect x="34.240625" y="22.10625" width="357.12" height="266.112"/>
  </clipPath>
 </defs>
</svg>
