<?xml version="1.0" encoding="utf-8" standalone="no"?>
<!DOCTYPE svg PUBLIC "-//W3C//DTD SVG 1.1//EN"
  "http://www.w3.org/Graphics/SVG/1.1/DTD/svg11.dtd">
<svg xmlns:xlink="http://www.w3.org/1999/xlink" width="408.104375pt" height="325.7745pt" viewBox="0 0 408.104375 325.7745" xmlns="http://www.w3.org/2000/svg" version="1.1">
 <metadata>
  <rdf:RDF xmlns:dc="http://purl.org/dc/elements/1.1/" xmlns:cc="http://creativecommons.org/ns#" xmlns:rdf="http://www.w3.org/1999/02/22-rdf-syntax-ns#">
   <cc:Work>
    <dc:type rdf:resource="http://purl.org/dc/dcmitype/StillImage"/>
    <dc:date>2024-07-12T12:12:58.915438</dc:date>
    <dc:format>image/svg+xml</dc:format>
    <dc:creator>
     <cc:Agent>
      <dc:title>Matplotlib v3.5.3, https://matplotlib.org/</dc:title>
     </cc:Agent>
    </dc:creator>
   </cc:Work>
  </rdf:RDF>
 </metadata>
 <defs>
  <style type="text/css">*{stroke-linejoin: round; stroke-linecap: butt}</style>
 </defs>
 <g id="figure_1">
  <g id="patch_1">
   <path d="M 0 325.7745 
L 408.104375 325.7745 
L 408.104375 0 
L 0 0 
z
" style="fill: #ffffff"/>
  </g>
  <g id="axes_1">
   <g id="patch_2">
    <path d="M 34.240625 288.21825 
L 391.360625 288.21825 
L 391.360625 22.10625 
L 34.240625 22.10625 
z
" style="fill: #ffffff"/>
   </g>
   <g id="matplotlib.axis_1">
    <g id="xtick_1">
     <g id="line2d_1">
      <defs>
       <path id="m717f278f32" d="M 0 0 
L 0 3.5 
" style="stroke: #000000; stroke-width: 0.8"/>
      </defs>
      <g>
       <use xlink:href="#m717f278f32" x="34.240625" y="288.21825" style="stroke: #000000; stroke-width: 0.8"/>
      </g>
     </g>
     <g id="text_1">
      <!-- 0 -->
      <g transform="translate(31.059375 302.816687)scale(0.1 -0.1)">
       <defs>
        <path id="DejaVuSans-30" d="M 2034 4250 
Q 1547 4250 1301 3770 
Q 1056 3291 1056 2328 
Q 1056 1369 1301 889 
Q 1547 409 2034 409 
Q 2525 409 2770 889 
Q 3016 1369 3016 2328 
Q 3016 3291 2770 3770 
Q 2525 4250 2034 4250 
z
M 2034 4750 
Q 2819 4750 3233 4129 
Q 3647 3509 3647 2328 
Q 3647 1150 3233 529 
Q 2819 -91 2034 -91 
Q 1250 -91 836 529 
Q 422 1150 422 2328 
Q 422 3509 836 4129 
Q 1250 4750 2034 4750 
z
" transform="scale(0.015625)"/>
       </defs>
       <use xlink:href="#DejaVuSans-30"/>
      </g>
     </g>
    </g>
    <g id="xtick_2">
     <g id="line2d_2">
      <g>
       <use xlink:href="#m717f278f32" x="105.664625" y="288.21825" style="stroke: #000000; stroke-width: 0.8"/>
      </g>
     </g>
     <g id="text_2">
      <!-- 20 -->
      <g transform="translate(99.302125 302.816687)scale(0.1 -0.1)">
       <defs>
        <path id="DejaVuSans-32" d="M 1228 531 
L 3431 531 
L 3431 0 
L 469 0 
L 469 531 
Q 828 903 1448 1529 
Q 2069 2156 2228 2338 
Q 2531 2678 2651 2914 
Q 2772 3150 2772 3378 
Q 2772 3750 2511 3984 
Q 2250 4219 1831 4219 
Q 1534 4219 1204 4116 
Q 875 4013 500 3803 
L 500 4441 
Q 881 4594 1212 4672 
Q 1544 4750 1819 4750 
Q 2544 4750 2975 4387 
Q 3406 4025 3406 3419 
Q 3406 3131 3298 2873 
Q 3191 2616 2906 2266 
Q 2828 2175 2409 1742 
Q 1991 1309 1228 531 
z
" transform="scale(0.015625)"/>
       </defs>
       <use xlink:href="#DejaVuSans-32"/>
       <use xlink:href="#DejaVuSans-30" x="63.623047"/>
      </g>
     </g>
    </g>
    <g id="xtick_3">
     <g id="line2d_3">
      <g>
       <use xlink:href="#m717f278f32" x="177.088625" y="288.21825" style="stroke: #000000; stroke-width: 0.8"/>
      </g>
     </g>
     <g id="text_3">
      <!-- 40 -->
      <g transform="translate(170.726125 302.816687)scale(0.1 -0.1)">
       <defs>
        <path id="DejaVuSans-34" d="M 2419 4116 
L 825 1625 
L 2419 1625 
L 2419 4116 
z
M 2253 4666 
L 3047 4666 
L 3047 1625 
L 3713 1625 
L 3713 1100 
L 3047 1100 
L 3047 0 
L 2419 0 
L 2419 1100 
L 313 1100 
L 313 1709 
L 2253 4666 
z
" transform="scale(0.015625)"/>
       </defs>
       <use xlink:href="#DejaVuSans-34"/>
       <use xlink:href="#DejaVuSans-30" x="63.623047"/>
      </g>
     </g>
    </g>
    <g id="xtick_4">
     <g id="line2d_4">
      <g>
       <use xlink:href="#m717f278f32" x="248.512625" y="288.21825" style="stroke: #000000; stroke-width: 0.8"/>
      </g>
     </g>
     <g id="text_4">
      <!-- 60 -->
      <g transform="translate(242.150125 302.816687)scale(0.1 -0.1)">
       <defs>
        <path id="DejaVuSans-36" d="M 2113 2584 
Q 1688 2584 1439 2293 
Q 1191 2003 1191 1497 
Q 1191 994 1439 701 
Q 1688 409 2113 409 
Q 2538 409 2786 701 
Q 3034 994 3034 1497 
Q 3034 2003 2786 2293 
Q 2538 2584 2113 2584 
z
M 3366 4563 
L 3366 3988 
Q 3128 4100 2886 4159 
Q 2644 4219 2406 4219 
Q 1781 4219 1451 3797 
Q 1122 3375 1075 2522 
Q 1259 2794 1537 2939 
Q 1816 3084 2150 3084 
Q 2853 3084 3261 2657 
Q 3669 2231 3669 1497 
Q 3669 778 3244 343 
Q 2819 -91 2113 -91 
Q 1303 -91 875 529 
Q 447 1150 447 2328 
Q 447 3434 972 4092 
Q 1497 4750 2381 4750 
Q 2619 4750 2861 4703 
Q 3103 4656 3366 4563 
z
" transform="scale(0.015625)"/>
       </defs>
       <use xlink:href="#DejaVuSans-36"/>
       <use xlink:href="#DejaVuSans-30" x="63.623047"/>
      </g>
     </g>
    </g>
    <g id="xtick_5">
     <g id="line2d_5">
      <g>
       <use xlink:href="#m717f278f32" x="319.936625" y="288.21825" style="stroke: #000000; stroke-width: 0.8"/>
      </g>
     </g>
     <g id="text_5">
      <!-- 80 -->
      <g transform="translate(313.574125 302.816687)scale(0.1 -0.1)">
       <defs>
        <path id="DejaVuSans-38" d="M 2034 2216 
Q 1584 2216 1326 1975 
Q 1069 1734 1069 1313 
Q 1069 891 1326 650 
Q 1584 409 2034 409 
Q 2484 409 2743 651 
Q 3003 894 3003 1313 
Q 3003 1734 2745 1975 
Q 2488 2216 2034 2216 
z
M 1403 2484 
Q 997 2584 770 2862 
Q 544 3141 544 3541 
Q 544 4100 942 4425 
Q 1341 4750 2034 4750 
Q 2731 4750 3128 4425 
Q 3525 4100 3525 3541 
Q 3525 3141 3298 2862 
Q 3072 2584 2669 2484 
Q 3125 2378 3379 2068 
Q 3634 1759 3634 1313 
Q 3634 634 3220 271 
Q 2806 -91 2034 -91 
Q 1263 -91 848 271 
Q 434 634 434 1313 
Q 434 1759 690 2068 
Q 947 2378 1403 2484 
z
M 1172 3481 
Q 1172 3119 1398 2916 
Q 1625 2713 2034 2713 
Q 2441 2713 2670 2916 
Q 2900 3119 2900 3481 
Q 2900 3844 2670 4047 
Q 2441 4250 2034 4250 
Q 1625 4250 1398 4047 
Q 1172 3844 1172 3481 
z
" transform="scale(0.015625)"/>
       </defs>
       <use xlink:href="#DejaVuSans-38"/>
       <use xlink:href="#DejaVuSans-30" x="63.623047"/>
      </g>
     </g>
    </g>
    <g id="xtick_6">
     <g id="line2d_6">
      <g>
       <use xlink:href="#m717f278f32" x="391.360625" y="288.21825" style="stroke: #000000; stroke-width: 0.8"/>
      </g>
     </g>
     <g id="text_6">
      <!-- 100 -->
      <g transform="translate(381.816875 302.816687)scale(0.1 -0.1)">
       <defs>
        <path id="DejaVuSans-31" d="M 794 531 
L 1825 531 
L 1825 4091 
L 703 3866 
L 703 4441 
L 1819 4666 
L 2450 4666 
L 2450 531 
L 3481 531 
L 3481 0 
L 794 0 
L 794 531 
z
" transform="scale(0.015625)"/>
       </defs>
       <use xlink:href="#DejaVuSans-31"/>
       <use xlink:href="#DejaVuSans-30" x="63.623047"/>
       <use xlink:href="#DejaVuSans-30" x="127.246094"/>
      </g>
     </g>
    </g>
    <g id="text_7">
     <!-- axialRotation -->
     <g transform="translate(180.024844 316.494812)scale(0.1 -0.1)">
      <defs>
       <path id="DejaVuSans-61" d="M 2194 1759 
Q 1497 1759 1228 1600 
Q 959 1441 959 1056 
Q 959 750 1161 570 
Q 1363 391 1709 391 
Q 2188 391 2477 730 
Q 2766 1069 2766 1631 
L 2766 1759 
L 2194 1759 
z
M 3341 1997 
L 3341 0 
L 2766 0 
L 2766 531 
Q 2569 213 2275 61 
Q 1981 -91 1556 -91 
Q 1019 -91 701 211 
Q 384 513 384 1019 
Q 384 1609 779 1909 
Q 1175 2209 1959 2209 
L 2766 2209 
L 2766 2266 
Q 2766 2663 2505 2880 
Q 2244 3097 1772 3097 
Q 1472 3097 1187 3025 
Q 903 2953 641 2809 
L 641 3341 
Q 956 3463 1253 3523 
Q 1550 3584 1831 3584 
Q 2591 3584 2966 3190 
Q 3341 2797 3341 1997 
z
" transform="scale(0.015625)"/>
       <path id="DejaVuSans-78" d="M 3513 3500 
L 2247 1797 
L 3578 0 
L 2900 0 
L 1881 1375 
L 863 0 
L 184 0 
L 1544 1831 
L 300 3500 
L 978 3500 
L 1906 2253 
L 2834 3500 
L 3513 3500 
z
" transform="scale(0.015625)"/>
       <path id="DejaVuSans-69" d="M 603 3500 
L 1178 3500 
L 1178 0 
L 603 0 
L 603 3500 
z
M 603 4863 
L 1178 4863 
L 1178 4134 
L 603 4134 
L 603 4863 
z
" transform="scale(0.015625)"/>
       <path id="DejaVuSans-6c" d="M 603 4863 
L 1178 4863 
L 1178 0 
L 603 0 
L 603 4863 
z
" transform="scale(0.015625)"/>
       <path id="DejaVuSans-52" d="M 2841 2188 
Q 3044 2119 3236 1894 
Q 3428 1669 3622 1275 
L 4263 0 
L 3584 0 
L 2988 1197 
Q 2756 1666 2539 1819 
Q 2322 1972 1947 1972 
L 1259 1972 
L 1259 0 
L 628 0 
L 628 4666 
L 2053 4666 
Q 2853 4666 3247 4331 
Q 3641 3997 3641 3322 
Q 3641 2881 3436 2590 
Q 3231 2300 2841 2188 
z
M 1259 4147 
L 1259 2491 
L 2053 2491 
Q 2509 2491 2742 2702 
Q 2975 2913 2975 3322 
Q 2975 3731 2742 3939 
Q 2509 4147 2053 4147 
L 1259 4147 
z
" transform="scale(0.015625)"/>
       <path id="DejaVuSans-6f" d="M 1959 3097 
Q 1497 3097 1228 2736 
Q 959 2375 959 1747 
Q 959 1119 1226 758 
Q 1494 397 1959 397 
Q 2419 397 2687 759 
Q 2956 1122 2956 1747 
Q 2956 2369 2687 2733 
Q 2419 3097 1959 3097 
z
M 1959 3584 
Q 2709 3584 3137 3096 
Q 3566 2609 3566 1747 
Q 3566 888 3137 398 
Q 2709 -91 1959 -91 
Q 1206 -91 779 398 
Q 353 888 353 1747 
Q 353 2609 779 3096 
Q 1206 3584 1959 3584 
z
" transform="scale(0.015625)"/>
       <path id="DejaVuSans-74" d="M 1172 4494 
L 1172 3500 
L 2356 3500 
L 2356 3053 
L 1172 3053 
L 1172 1153 
Q 1172 725 1289 603 
Q 1406 481 1766 481 
L 2356 481 
L 2356 0 
L 1766 0 
Q 1100 0 847 248 
Q 594 497 594 1153 
L 594 3053 
L 172 3053 
L 172 3500 
L 594 3500 
L 594 4494 
L 1172 4494 
z
" transform="scale(0.015625)"/>
       <path id="DejaVuSans-6e" d="M 3513 2113 
L 3513 0 
L 2938 0 
L 2938 2094 
Q 2938 2591 2744 2837 
Q 2550 3084 2163 3084 
Q 1697 3084 1428 2787 
Q 1159 2491 1159 1978 
L 1159 0 
L 581 0 
L 581 3500 
L 1159 3500 
L 1159 2956 
Q 1366 3272 1645 3428 
Q 1925 3584 2291 3584 
Q 2894 3584 3203 3211 
Q 3513 2838 3513 2113 
z
" transform="scale(0.015625)"/>
      </defs>
      <use xlink:href="#DejaVuSans-61"/>
      <use xlink:href="#DejaVuSans-78" x="61.279297"/>
      <use xlink:href="#DejaVuSans-69" x="120.458984"/>
      <use xlink:href="#DejaVuSans-61" x="148.242188"/>
      <use xlink:href="#DejaVuSans-6c" x="209.521484"/>
      <use xlink:href="#DejaVuSans-52" x="237.304688"/>
      <use xlink:href="#DejaVuSans-6f" x="302.287109"/>
      <use xlink:href="#DejaVuSans-74" x="363.46875"/>
      <use xlink:href="#DejaVuSans-61" x="402.677734"/>
      <use xlink:href="#DejaVuSans-74" x="463.957031"/>
      <use xlink:href="#DejaVuSans-69" x="503.166016"/>
      <use xlink:href="#DejaVuSans-6f" x="530.949219"/>
      <use xlink:href="#DejaVuSans-6e" x="592.130859"/>
     </g>
    </g>
   </g>
   <g id="matplotlib.axis_2">
    <g id="ytick_1">
     <g id="line2d_7">
      <defs>
       <path id="m76421a8724" d="M 0 0 
L -3.5 0 
" style="stroke: #000000; stroke-width: 0.8"/>
      </defs>
      <g>
       <use xlink:href="#m76421a8724" x="34.240625" y="288.21825" style="stroke: #000000; stroke-width: 0.8"/>
      </g>
     </g>
     <g id="text_8">
      <!-- 0 -->
      <g transform="translate(20.878125 292.017469)scale(0.1 -0.1)">
       <use xlink:href="#DejaVuSans-30"/>
      </g>
     </g>
    </g>
    <g id="ytick_2">
     <g id="line2d_8">
      <g>
       <use xlink:href="#m76421a8724" x="34.240625" y="243.86625" style="stroke: #000000; stroke-width: 0.8"/>
      </g>
     </g>
     <g id="text_9">
      <!-- 1 -->
      <g transform="translate(20.878125 247.665469)scale(0.1 -0.1)">
       <use xlink:href="#DejaVuSans-31"/>
      </g>
     </g>
    </g>
    <g id="ytick_3">
     <g id="line2d_9">
      <g>
       <use xlink:href="#m76421a8724" x="34.240625" y="199.51425" style="stroke: #000000; stroke-width: 0.8"/>
      </g>
     </g>
     <g id="text_10">
      <!-- 2 -->
      <g transform="translate(20.878125 203.313469)scale(0.1 -0.1)">
       <use xlink:href="#DejaVuSans-32"/>
      </g>
     </g>
    </g>
    <g id="ytick_4">
     <g id="line2d_10">
      <g>
       <use xlink:href="#m76421a8724" x="34.240625" y="155.16225" style="stroke: #000000; stroke-width: 0.8"/>
      </g>
     </g>
     <g id="text_11">
      <!-- 3 -->
      <g transform="translate(20.878125 158.961469)scale(0.1 -0.1)">
       <defs>
        <path id="DejaVuSans-33" d="M 2597 2516 
Q 3050 2419 3304 2112 
Q 3559 1806 3559 1356 
Q 3559 666 3084 287 
Q 2609 -91 1734 -91 
Q 1441 -91 1130 -33 
Q 819 25 488 141 
L 488 750 
Q 750 597 1062 519 
Q 1375 441 1716 441 
Q 2309 441 2620 675 
Q 2931 909 2931 1356 
Q 2931 1769 2642 2001 
Q 2353 2234 1838 2234 
L 1294 2234 
L 1294 2753 
L 1863 2753 
Q 2328 2753 2575 2939 
Q 2822 3125 2822 3475 
Q 2822 3834 2567 4026 
Q 2313 4219 1838 4219 
Q 1578 4219 1281 4162 
Q 984 4106 628 3988 
L 628 4550 
Q 988 4650 1302 4700 
Q 1616 4750 1894 4750 
Q 2613 4750 3031 4423 
Q 3450 4097 3450 3541 
Q 3450 3153 3228 2886 
Q 3006 2619 2597 2516 
z
" transform="scale(0.015625)"/>
       </defs>
       <use xlink:href="#DejaVuSans-33"/>
      </g>
     </g>
    </g>
    <g id="ytick_5">
     <g id="line2d_11">
      <g>
       <use xlink:href="#m76421a8724" x="34.240625" y="110.81025" style="stroke: #000000; stroke-width: 0.8"/>
      </g>
     </g>
     <g id="text_12">
      <!-- 4 -->
      <g transform="translate(20.878125 114.609469)scale(0.1 -0.1)">
       <use xlink:href="#DejaVuSans-34"/>
      </g>
     </g>
    </g>
    <g id="ytick_6">
     <g id="line2d_12">
      <g>
       <use xlink:href="#m76421a8724" x="34.240625" y="66.45825" style="stroke: #000000; stroke-width: 0.8"/>
      </g>
     </g>
     <g id="text_13">
      <!-- 5 -->
      <g transform="translate(20.878125 70.257469)scale(0.1 -0.1)">
       <defs>
        <path id="DejaVuSans-35" d="M 691 4666 
L 3169 4666 
L 3169 4134 
L 1269 4134 
L 1269 2991 
Q 1406 3038 1543 3061 
Q 1681 3084 1819 3084 
Q 2600 3084 3056 2656 
Q 3513 2228 3513 1497 
Q 3513 744 3044 326 
Q 2575 -91 1722 -91 
Q 1428 -91 1123 -41 
Q 819 9 494 109 
L 494 744 
Q 775 591 1075 516 
Q 1375 441 1709 441 
Q 2250 441 2565 725 
Q 2881 1009 2881 1497 
Q 2881 1984 2565 2268 
Q 2250 2553 1709 2553 
Q 1456 2553 1204 2497 
Q 953 2441 691 2322 
L 691 4666 
z
" transform="scale(0.015625)"/>
       </defs>
       <use xlink:href="#DejaVuSans-35"/>
      </g>
     </g>
    </g>
    <g id="ytick_7">
     <g id="line2d_13">
      <g>
       <use xlink:href="#m76421a8724" x="34.240625" y="22.10625" style="stroke: #000000; stroke-width: 0.8"/>
      </g>
     </g>
     <g id="text_14">
      <!-- 6 -->
      <g transform="translate(20.878125 25.905469)scale(0.1 -0.1)">
       <use xlink:href="#DejaVuSans-36"/>
      </g>
     </g>
    </g>
    <g id="text_15">
     <!-- zShift -->
     <g transform="translate(14.798438 169.151312)rotate(-90)scale(0.1 -0.1)">
      <defs>
       <path id="DejaVuSans-7a" d="M 353 3500 
L 3084 3500 
L 3084 2975 
L 922 459 
L 3084 459 
L 3084 0 
L 275 0 
L 275 525 
L 2438 3041 
L 353 3041 
L 353 3500 
z
" transform="scale(0.015625)"/>
       <path id="DejaVuSans-53" d="M 3425 4513 
L 3425 3897 
Q 3066 4069 2747 4153 
Q 2428 4238 2131 4238 
Q 1616 4238 1336 4038 
Q 1056 3838 1056 3469 
Q 1056 3159 1242 3001 
Q 1428 2844 1947 2747 
L 2328 2669 
Q 3034 2534 3370 2195 
Q 3706 1856 3706 1288 
Q 3706 609 3251 259 
Q 2797 -91 1919 -91 
Q 1588 -91 1214 -16 
Q 841 59 441 206 
L 441 856 
Q 825 641 1194 531 
Q 1563 422 1919 422 
Q 2459 422 2753 634 
Q 3047 847 3047 1241 
Q 3047 1584 2836 1778 
Q 2625 1972 2144 2069 
L 1759 2144 
Q 1053 2284 737 2584 
Q 422 2884 422 3419 
Q 422 4038 858 4394 
Q 1294 4750 2059 4750 
Q 2388 4750 2728 4690 
Q 3069 4631 3425 4513 
z
" transform="scale(0.015625)"/>
       <path id="DejaVuSans-68" d="M 3513 2113 
L 3513 0 
L 2938 0 
L 2938 2094 
Q 2938 2591 2744 2837 
Q 2550 3084 2163 3084 
Q 1697 3084 1428 2787 
Q 1159 2491 1159 1978 
L 1159 0 
L 581 0 
L 581 4863 
L 1159 4863 
L 1159 2956 
Q 1366 3272 1645 3428 
Q 1925 3584 2291 3584 
Q 2894 3584 3203 3211 
Q 3513 2838 3513 2113 
z
" transform="scale(0.015625)"/>
       <path id="DejaVuSans-66" d="M 2375 4863 
L 2375 4384 
L 1825 4384 
Q 1516 4384 1395 4259 
Q 1275 4134 1275 3809 
L 1275 3500 
L 2222 3500 
L 2222 3053 
L 1275 3053 
L 1275 0 
L 697 0 
L 697 3053 
L 147 3053 
L 147 3500 
L 697 3500 
L 697 3744 
Q 697 4328 969 4595 
Q 1241 4863 1831 4863 
L 2375 4863 
z
" transform="scale(0.015625)"/>
      </defs>
      <use xlink:href="#DejaVuSans-7a"/>
      <use xlink:href="#DejaVuSans-53" x="52.490234"/>
      <use xlink:href="#DejaVuSans-68" x="115.966797"/>
      <use xlink:href="#DejaVuSans-69" x="179.345703"/>
      <use xlink:href="#DejaVuSans-66" x="207.128906"/>
      <use xlink:href="#DejaVuSans-74" x="240.583984"/>
     </g>
    </g>
   </g>
   <g id="PathCollection_1"/>
   <g id="PathCollection_2">
    <path d="M 34.240625 135.264272 
L 34.289167 135.20385 
L 36.026225 132.985701 
L 36.739437 132.09921 
L 37.847537 130.683105 
L 38.832001 129.43809 
L 39.633137 128.399495 
L 40.896102 126.77697 
L 41.418737 126.085696 
L 42.917051 124.11585 
L 43.204337 123.724733 
L 44.873456 121.45473 
L 45.025649 121.239085 
L 46.743925 118.79361 
L 46.811249 118.692677 
L 48.501405 116.13249 
L 48.596849 115.978542 
L 50.123598 113.47137 
L 50.382449 113.013813 
L 51.596266 110.81025 
L 52.203761 109.614506 
L 52.92346 108.14913 
L 53.989361 105.785006 
L 54.118184 105.48801 
L 55.159046 102.82689 
L 55.774961 101.145206 
L 56.117508 100.16577 
L 57.001062 97.50465 
L 57.560561 95.816113 
L 57.868291 94.84353 
L 58.735572 92.18241 
L 59.381873 90.355823 
L 59.6662 89.52129 
L 60.843731 86.41665 
L 61.167473 85.658831 
L 61.961797 83.75553 
L 62.953073 81.665342 
L 63.219812 81.09441 
L 64.605127 78.43329 
L 64.738673 78.197883 
L 66.109768 75.77217 
L 66.559985 75.039427 
L 67.747268 73.11105 
L 68.345585 72.198267 
L 69.499859 70.44993 
L 70.131185 69.536068 
L 71.350739 67.78881 
L 71.916785 67.00217 
L 73.281441 65.12769 
L 73.738097 64.512879 
L 75.278193 62.46657 
L 75.523697 62.14326 
L 77.309297 59.825348 
L 77.324681 59.80545 
L 79.094897 57.519694 
L 79.389816 57.14433 
L 80.916209 55.198016 
L 81.485227 54.48321 
L 82.701809 52.943621 
L 83.602395 51.82209 
L 84.487409 50.70828 
L 85.737054 49.16097 
L 86.273009 48.488677 
L 87.883441 46.49985 
L 88.094321 46.233869 
L 89.879921 44.003206 
L 90.377339 43.39521 
L 91.665521 41.785393 
L 92.520501 40.73409 
L 93.451121 39.573281 
L 94.673669 38.07297 
L 95.272433 37.329435 
L 96.844195 35.41185 
L 97.058033 35.147766 
L 98.843633 32.969203 
L 99.024615 32.75073 
L 100.629233 30.795963 
L 101.221964 30.08961 
L 102.450545 28.616469 
L 103.467217 27.42849 
L 104.236145 26.524202 
L 105.777925 24.76737 
L 106.021745 24.488096 
L 107.807345 22.486716 
L 108.156123 22.10625 
" clip-path="url(#p59bf301fff)" style="fill: none; stroke: #dbe9f6; stroke-width: 1.5"/>
    <path d="M 117.996474 288.21825 
L 118.035601 285.55713 
L 118.592369 282.022897 
L 118.996626 280.23489 
L 120.377969 276.354738 
L 120.966879 274.91265 
L 122.285399 272.25153 
L 123.984881 269.227831 
L 125.770481 266.334568 
L 129.341681 261.041338 
L 134.80981 253.18017 
L 138.207525 247.85793 
L 140.126705 244.386245 
L 141.912305 240.662882 
L 142.259783 239.87457 
L 143.697905 236.080301 
L 145.016969 231.89121 
L 148.174666 220.80321 
L 150.204059 215.48097 
L 151.474036 212.81985 
L 152.951084 210.15873 
L 154.610676 207.49761 
L 158.379858 202.17537 
L 163.446641 195.751543 
L 197.551601 153.749257 
L 224.478449 120.259558 
L 233.442161 109.05366 
L 238.264762 102.82689 
L 242.405873 97.09661 
L 244.191473 94.400036 
L 246.012785 91.389901 
L 247.798385 88.042375 
L 249.583985 84.175462 
L 249.7615 83.75553 
L 251.630571 78.43329 
L 255.468333 65.12769 
L 256.762097 61.709195 
L 257.549687 59.80545 
L 258.871544 57.14433 
L 260.39645 54.48321 
L 262.154609 51.734261 
L 265.951603 46.49985 
L 270.573499 40.73409 
L 280.082033 29.475266 
L 286.627962 22.10625 
L 286.627962 22.10625 
" clip-path="url(#p59bf301fff)" style="fill: none; stroke: #dbe9f6; stroke-width: 1.5"/>
    <path d="M 240.509654 22.10625 
L 241.243249 24.76737 
L 241.765963 27.42849 
L 242.104482 30.08961 
L 242.282544 32.75073 
L 242.313471 35.41185 
L 242.201001 38.07297 
L 241.938966 40.73409 
L 241.509455 43.39521 
L 240.620273 46.903663 
L 239.924104 49.16097 
L 238.830033 51.82209 
L 237.013361 55.45882 
L 235.227761 58.445746 
L 233.442161 61.104284 
L 230.484276 65.12769 
L 224.077386 73.11105 
L 195.623024 108.14913 
L 174.231665 134.731595 
L 167.053553 143.654547 
L 156.772376 156.49281 
L 150.622077 164.47617 
L 146.856953 169.79841 
L 143.697905 174.865496 
L 143.548379 175.12065 
L 141.90128 178.22529 
L 140.126705 182.267289 
L 138.685368 186.20865 
L 137.865529 188.86977 
L 134.734193 199.825689 
L 133.967803 202.17537 
L 131.721619 207.49761 
L 129.341681 211.796806 
L 128.734241 212.81985 
L 125.770481 217.137079 
L 123.022274 220.80321 
L 116.806769 228.512032 
L 84.487409 267.905763 
L 77.309297 276.178713 
L 71.916785 281.991768 
L 66.559985 287.265853 
L 65.498703 288.21825 
L 65.498703 288.21825 
" clip-path="url(#p59bf301fff)" style="fill: none; stroke: #dbe9f6; stroke-width: 1.5"/>
    <path d="M 296.389894 288.21825 
L 296.425548 285.55713 
L 296.765746 282.89601 
L 297.399333 280.23489 
L 298.045169 278.361327 
L 298.304356 277.57377 
L 299.428563 274.91265 
L 299.830769 274.117527 
L 300.753893 272.25153 
L 301.616369 270.734941 
L 302.258716 269.59041 
L 303.437681 267.689323 
L 303.906273 266.92929 
L 305.223281 264.920427 
L 305.953174 263.82465 
L 307.008881 262.290234 
L 307.78667 261.16353 
L 308.794481 259.724935 
L 309.65346 258.50241 
L 310.615793 257.130264 
L 311.521123 255.84129 
L 312.401393 254.561621 
L 313.350673 253.18017 
L 314.186993 251.916597 
L 315.106059 250.51905 
L 315.972593 249.128127 
L 316.752663 247.85793 
L 317.793905 246.042463 
L 318.268331 245.19681 
L 319.579505 242.653407 
L 319.638472 242.53569 
L 320.814662 239.87457 
L 321.365105 238.49434 
L 321.854827 237.21345 
L 322.760706 234.55233 
L 323.150705 233.27944 
L 323.55522 231.89121 
L 324.269057 229.23009 
L 324.972017 226.602026 
L 324.980447 226.56897 
L 325.63611 223.90785 
L 326.490095 220.80321 
L 326.757617 219.912425 
L 327.274191 218.14209 
L 328.170888 215.48097 
L 328.543217 214.496339 
L 329.171538 212.81985 
L 330.328817 210.215873 
L 330.354241 210.15873 
L 331.615098 207.49761 
L 332.150129 206.49683 
L 333.058396 204.83649 
L 333.935729 203.359552 
L 334.664263 202.17537 
L 335.721329 200.544742 
L 336.419517 199.51425 
L 337.506929 197.953863 
L 338.31377 196.85313 
L 339.328241 195.489613 
L 340.352594 194.19201 
L 341.113841 193.223737 
L 342.543318 191.53089 
L 342.899441 191.103435 
L 344.685041 189.074713 
L 344.869638 188.86977 
L 346.506353 187.033518 
L 347.300924 186.20865 
L 348.291953 185.161982 
L 349.968552 183.54753 
L 350.077553 183.440724 
L 351.863153 181.693744 
L 352.758112 180.88641 
L 353.684465 180.041376 
L 355.470065 178.52542 
L 355.83075 178.22529 
L 357.255665 177.007464 
L 359.041265 175.637767 
L 359.744566 175.12065 
L 360.862577 174.279356 
L 362.648177 173.030508 
L 363.512638 172.45953 
L 364.433777 171.840286 
L 366.219377 170.713347 
L 367.818288 169.79841 
L 368.040689 169.668183 
L 369.826289 168.65935 
L 371.611889 167.758566 
L 372.968488 167.13729 
L 373.397489 166.93309 
L 375.218801 166.12881 
L 377.004401 165.43651 
L 378.790001 164.831971 
L 379.99384 164.47617 
L 380.575601 164.293566 
L 382.396913 163.801248 
L 384.182513 163.407205 
L 385.968113 163.098433 
L 387.753713 162.873911 
L 389.575025 162.732051 
L 391.360625 162.680158 
" clip-path="url(#p59bf301fff)" style="fill: none; stroke: #dbe9f6; stroke-width: 1.5"/>
    <path d="M 391.360625 86.322676 
L 373.832692 108.14913 
L 365.514006 118.79361 
L 361.65565 124.11585 
L 359.041265 128.10116 
L 357.255665 131.115889 
L 356.705189 132.09921 
L 355.144472 135.20385 
L 353.684465 138.63558 
L 352.079822 143.18721 
L 350.562432 148.50945 
L 347.593277 159.15393 
L 345.694975 164.47617 
L 343.309134 169.79841 
L 341.113841 173.926426 
L 338.495057 178.22529 
L 335.721329 182.330821 
L 332.150129 187.158383 
L 326.444388 194.19201 
L 323.150705 198.071556 
L 314.186993 207.926629 
L 302.312673 220.80321 
L 294.939096 229.23009 
L 288.266689 237.21345 
L 279.682639 247.85793 
L 274.725233 254.389982 
L 271.804728 258.50241 
L 269.332721 262.348248 
L 267.547121 265.448122 
L 265.725809 268.965673 
L 264.245741 272.25153 
L 262.128802 277.57377 
L 260.074339 282.89601 
L 258.547697 286.338815 
L 257.640677 288.21825 
L 257.640677 288.21825 
" clip-path="url(#p59bf301fff)" style="fill: none; stroke: #dbe9f6; stroke-width: 1.5"/>
   </g>
   <g id="PathCollection_3">
    <path d="M 34.240625 150.527544 
L 35.821403 148.50945 
L 36.026225 148.248627 
L 37.847537 145.946099 
L 37.925137 145.84833 
L 39.633137 143.693769 
L 40.038006 143.18721 
L 41.418737 141.451333 
L 42.160413 140.52609 
L 43.204337 139.213117 
L 44.283465 137.86497 
L 45.025649 136.927958 
L 46.399313 135.20385 
L 46.811249 134.676719 
L 48.596849 132.409797 
L 48.842035 132.09921 
L 50.382449 130.103366 
L 50.897037 129.43809 
L 52.203761 127.710352 
L 52.909814 126.77697 
L 53.989361 125.306731 
L 54.861947 124.11585 
L 55.774961 122.820862 
L 56.73282 121.45473 
L 57.560561 120.214259 
L 58.499085 118.79361 
L 59.381873 117.372433 
L 60.141094 116.13249 
L 61.167473 114.324641 
L 61.643247 113.47137 
L 62.953073 110.907498 
L 63.001707 110.81025 
L 64.201409 108.14913 
L 64.738673 106.839535 
L 65.278567 105.48801 
L 66.252892 102.82689 
L 66.559985 101.930485 
L 67.148522 100.16577 
L 68.012902 97.50465 
L 68.345585 96.49136 
L 68.87494 94.84353 
L 69.780459 92.18241 
L 70.131185 91.23384 
L 70.755632 89.52129 
L 71.916785 86.699846 
L 72.033032 86.41665 
L 73.252059 83.75553 
L 73.738097 82.804205 
L 74.611492 81.09441 
L 75.523697 79.473936 
L 76.111889 78.43329 
L 77.309297 76.477623 
L 77.744119 75.77217 
L 79.094897 73.71369 
L 79.493464 73.11105 
L 80.916209 71.059826 
L 81.34289 70.44993 
L 82.701809 68.570669 
L 83.272456 67.78881 
L 84.487409 66.160661 
L 85.265494 65.12769 
L 86.273009 63.808488 
L 87.307182 62.46657 
L 88.094321 61.453766 
L 89.387065 59.80545 
L 89.879921 59.178803 
L 91.495397 57.14433 
L 91.665521 56.929885 
L 93.451121 54.691788 
L 93.618239 54.48321 
L 95.272433 52.413496 
L 95.748916 51.82209 
L 97.058033 50.188364 
L 97.888253 49.16097 
L 98.843633 47.970645 
L 100.034359 46.49985 
L 100.629233 45.75668 
L 102.450545 43.515733 
L 102.548727 43.39521 
L 104.236145 41.306078 
L 104.702654 40.73409 
L 106.021745 39.111293 
L 106.875499 38.07297 
L 107.807345 36.938233 
L 109.077912 35.41185 
L 109.628657 34.751491 
L 111.325548 32.75073 
L 111.414257 32.646498 
L 113.199857 30.570853 
L 113.621911 30.08961 
L 114.985457 28.548471 
L 116.003649 27.42849 
L 116.806769 26.556162 
L 118.512149 24.76737 
L 118.592369 24.684415 
L 120.377969 22.879932 
L 121.178298 22.10625 
" clip-path="url(#p59bf301fff)" style="fill: none; stroke: #bad6eb; stroke-width: 1.5"/>
    <path d="M 130.81858 288.21825 
L 130.569751 285.55713 
L 130.733091 282.89601 
L 131.256377 280.23489 
L 132.079427 277.57377 
L 133.180949 274.91265 
L 134.734193 271.845424 
L 136.519793 268.764032 
L 138.341105 265.887746 
L 141.912305 260.610702 
L 147.304817 252.612732 
L 150.156685 247.85793 
L 151.565068 245.19681 
L 152.836651 242.53569 
L 154.965106 237.21345 
L 156.738308 231.89121 
L 159.351164 223.90785 
L 160.536794 220.80321 
L 162.971029 215.48097 
L 165.232241 211.413439 
L 167.053553 208.478099 
L 169.506885 204.83649 
L 174.231665 198.435592 
L 179.641233 191.53089 
L 193.944689 173.713423 
L 242.418338 113.47137 
L 248.610385 105.48801 
L 252.484133 100.16577 
L 254.976497 96.420756 
L 257.513042 92.18241 
L 258.912152 89.52129 
L 260.369009 86.393921 
L 262.416477 81.09441 
L 267.859802 65.12769 
L 269.332721 61.850093 
L 271.118321 58.376742 
L 272.903921 55.299406 
L 275.12973 51.82209 
L 278.909418 46.49985 
L 283.688945 40.298657 
L 289.875525 32.75073 
L 294.561894 27.42849 
L 298.045169 23.760635 
L 299.738199 22.10625 
L 299.738199 22.10625 
" clip-path="url(#p59bf301fff)" style="fill: none; stroke: #bad6eb; stroke-width: 1.5"/>
    <path d="M 228.264501 22.10625 
L 229.299433 24.76737 
L 230.013173 27.42849 
L 230.463595 30.08961 
L 230.668972 32.75073 
L 230.651949 35.41185 
L 230.423794 38.07297 
L 229.835249 41.361273 
L 229.357752 43.39521 
L 228.049649 47.280996 
L 227.301953 49.16097 
L 226.038607 51.82209 
L 224.478449 54.685075 
L 222.657137 57.676096 
L 219.408799 62.46657 
L 215.450443 67.78881 
L 208.300913 76.893773 
L 142.284802 159.15393 
L 138.334176 164.47617 
L 134.734193 169.800719 
L 132.948593 172.772603 
L 131.162993 176.115877 
L 129.341681 180.032612 
L 127.950071 183.54753 
L 126.155181 188.86977 
L 123.558733 196.85313 
L 121.466599 202.17537 
L 120.221226 204.83649 
L 118.592369 207.930915 
L 116.806769 210.974285 
L 113.864433 215.48097 
L 109.628657 221.306798 
L 103.46593 229.23009 
L 93.451121 241.665019 
L 80.916209 256.937853 
L 73.738097 265.291406 
L 68.345585 271.175108 
L 64.639211 274.91265 
L 61.167473 278.15126 
L 57.560561 281.168952 
L 53.989361 283.771214 
L 50.382449 285.973944 
L 46.811249 287.709921 
L 45.491265 288.21825 
L 45.491265 288.21825 
" clip-path="url(#p59bf301fff)" style="fill: none; stroke: #bad6eb; stroke-width: 1.5"/>
    <path d="M 309.361465 288.21825 
L 309.11504 285.55713 
L 309.276757 282.89601 
L 309.795589 280.23489 
L 310.615793 277.638514 
L 310.635654 277.57377 
L 311.727949 274.91265 
L 312.401393 273.569723 
L 313.053519 272.25153 
L 314.186993 270.259911 
L 314.564894 269.59041 
L 315.972593 267.326161 
L 316.218098 266.92929 
L 317.793905 264.541556 
L 318.268657 263.82465 
L 319.579505 261.912243 
L 320.091831 261.16353 
L 321.365105 259.324349 
L 321.932721 258.50241 
L 323.150705 256.724719 
L 323.753019 255.84129 
L 324.972017 254.006565 
L 325.516723 253.18017 
L 326.757617 251.211204 
L 327.188975 250.51905 
L 328.543217 248.205814 
L 328.743853 247.85793 
L 330.158087 245.19681 
L 330.328817 244.844182 
L 331.421438 242.53569 
L 332.150129 240.843117 
L 332.5572 239.87457 
L 333.570174 237.21345 
L 333.935729 236.170074 
L 334.488746 234.55233 
L 335.352722 231.89121 
L 335.721329 230.738364 
L 336.193835 229.23009 
L 337.054629 226.56897 
L 337.506929 225.265031 
L 337.971851 223.90785 
L 339.161734 220.80321 
L 339.328241 220.414844 
L 340.301137 218.14209 
L 341.113841 216.461022 
L 341.59039 215.48097 
L 342.899441 213.065482 
L 343.034137 212.81985 
L 344.629111 210.15873 
L 344.685041 210.071765 
L 346.372424 207.49761 
L 346.506353 207.304978 
L 348.262849 204.83649 
L 348.291953 204.797241 
L 350.077553 202.438151 
L 350.28207 202.17537 
L 351.863153 200.197327 
L 352.427192 199.51425 
L 353.684465 198.018665 
L 354.701308 196.85313 
L 355.470065 195.980232 
L 357.113875 194.19201 
L 357.255665 194.038366 
L 359.041265 192.16346 
L 359.672989 191.53089 
L 360.862577 190.34112 
L 362.42351 188.86977 
L 362.648177 188.657318 
L 364.433777 187.043278 
L 365.420952 186.20865 
L 366.219377 185.529764 
L 368.040689 184.084983 
L 368.769219 183.54753 
L 369.826289 182.761421 
L 371.611889 181.543886 
L 372.669885 180.88641 
L 373.397489 180.429448 
L 375.218801 179.397352 
L 377.004401 178.506379 
L 377.647047 178.22529 
L 378.790001 177.717088 
L 380.575601 177.04405 
L 382.396913 176.484548 
L 384.182513 176.060893 
L 385.968113 175.76382 
L 387.753713 175.598802 
L 389.575025 175.57494 
L 391.360625 175.704314 
" clip-path="url(#p59bf301fff)" style="fill: none; stroke: #bad6eb; stroke-width: 1.5"/>
    <path d="M 391.360625 71.089301 
L 382.396913 82.37883 
L 359.604065 110.81025 
L 353.523215 118.79361 
L 349.823168 124.11585 
L 348.138803 126.77697 
L 346.506353 129.600137 
L 344.685041 133.200788 
L 342.899441 137.292505 
L 341.698471 140.52609 
L 339.328241 147.845382 
L 338.264582 151.17057 
L 336.315568 156.49281 
L 335.176738 159.15393 
L 333.897029 161.81505 
L 332.150129 165.068049 
L 330.328817 168.122326 
L 327.477332 172.45953 
L 323.292614 178.22529 
L 317.793905 185.342197 
L 308.524934 196.85313 
L 294.438257 214.10004 
L 281.903345 229.480755 
L 271.118321 242.91855 
L 265.26935 250.51905 
L 261.467874 255.84129 
L 258.547697 260.391703 
L 256.576081 263.82465 
L 254.976497 266.969707 
L 252.657715 272.25153 
L 249.428148 280.23489 
L 247.798385 283.740717 
L 246.012785 286.964451 
L 245.23399 288.21825 
L 245.23399 288.21825 
" clip-path="url(#p59bf301fff)" style="fill: none; stroke: #bad6eb; stroke-width: 1.5"/>
   </g>
   <g id="PathCollection_4">
    <path d="M 34.240625 163.098525 
L 35.120395 161.81505 
L 36.026225 160.546994 
L 37.028657 159.15393 
L 37.847537 158.049056 
L 39.008191 156.49281 
L 39.633137 155.671606 
L 41.041131 153.83169 
L 41.418737 153.344881 
L 43.113667 151.17057 
L 43.204337 151.055238 
L 45.025649 148.74565 
L 45.212411 148.50945 
L 46.811249 146.497037 
L 47.328099 145.84833 
L 48.596849 144.257745 
L 49.452718 143.18721 
L 50.382449 142.021645 
L 51.577264 140.52609 
L 52.203761 139.737718 
L 53.693269 137.86497 
L 53.989361 137.489421 
L 55.774961 135.22507 
L 55.791657 135.20385 
L 57.560561 132.924343 
L 58.200535 132.09921 
L 59.381873 130.547028 
L 60.223398 129.43809 
L 61.167473 128.163859 
L 62.190563 126.77697 
L 62.953073 125.708854 
L 64.083168 124.11585 
L 64.738673 123.150124 
L 65.879574 121.45473 
L 66.559985 120.383629 
L 67.559142 118.79361 
L 68.345585 117.447925 
L 69.104817 116.13249 
L 70.131185 114.192517 
L 70.507639 113.47137 
L 71.766298 110.81025 
L 71.916785 110.457795 
L 72.888519 108.14913 
L 73.738097 105.920029 
L 73.900795 105.48801 
L 74.822897 102.82689 
L 75.523697 100.695721 
L 75.696605 100.16577 
L 76.552009 97.50465 
L 77.309297 95.22339 
L 77.435115 94.84353 
L 78.374955 92.18241 
L 79.094897 90.331046 
L 79.410797 89.52129 
L 80.769306 86.41665 
L 80.916209 86.116518 
L 82.080023 83.75553 
L 82.701809 82.612285 
L 83.534723 81.09441 
L 84.487409 79.497297 
L 85.128116 78.43329 
L 86.273009 76.655743 
L 86.847268 75.77217 
L 88.094321 73.951082 
L 88.674257 73.11105 
L 89.879921 71.430656 
L 90.58863 70.44993 
L 91.665521 69.000482 
L 92.571317 67.78881 
L 93.451121 66.634635 
L 94.605934 65.12769 
L 95.272433 64.269751 
L 96.679877 62.46657 
L 97.058033 61.986312 
L 98.782917 59.80545 
L 98.843633 59.729074 
L 100.629233 57.488152 
L 100.903898 57.14433 
L 102.450545 55.214054 
L 103.037714 54.48321 
L 104.236145 52.99244 
L 105.179537 51.82209 
L 106.021745 50.776502 
L 107.326814 49.16097 
L 107.807345 48.565542 
L 109.480066 46.49985 
L 109.628657 46.316157 
L 111.414257 44.116633 
L 112.002771 43.39521 
L 113.199857 41.932788 
L 114.186986 40.73409 
L 114.985457 39.771163 
L 116.405647 38.07297 
L 116.806769 37.598412 
L 118.592369 35.509457 
L 118.676511 35.41185 
L 120.377969 33.471866 
L 121.021029 32.75073 
L 122.163569 31.496904 
L 123.47563 30.08961 
L 123.984881 29.557757 
L 125.770481 27.743049 
L 126.088126 27.42849 
L 127.556081 26.024626 
L 128.92844 24.76737 
L 129.341681 24.402815 
L 131.162993 22.86304 
L 132.106232 22.10625 
" clip-path="url(#p59bf301fff)" style="fill: none; stroke: #89bedc; stroke-width: 1.5"/>
    <path d="M 141.729972 288.21825 
L 140.95151 285.55713 
L 140.758953 282.89601 
L 141.042459 280.23489 
L 141.912305 277.062743 
L 142.715394 274.91265 
L 143.974552 272.25153 
L 145.519217 269.457903 
L 147.304817 266.543891 
L 152.697329 258.421723 
L 156.268529 252.869793 
L 159.113558 247.85793 
L 160.430837 245.19681 
L 161.661041 242.418534 
L 163.629906 237.21345 
L 168.111845 223.90785 
L 169.393007 220.80321 
L 170.635008 218.14209 
L 172.410353 214.78921 
L 174.231665 211.710348 
L 176.984517 207.49761 
L 181.409777 201.394603 
L 186.989436 194.19201 
L 201.122801 176.56321 
L 253.920047 110.81025 
L 258.547697 104.658385 
L 262.154609 99.464002 
L 265.008394 94.84353 
L 266.457575 92.18241 
L 267.76307 89.52129 
L 269.332721 85.841524 
L 271.118321 80.94089 
L 274.725233 70.084095 
L 276.510833 65.635941 
L 276.727671 65.12769 
L 278.296433 61.8846 
L 280.082033 58.625851 
L 282.634531 54.48321 
L 286.338368 49.16097 
L 290.867057 43.206798 
L 296.259569 36.588578 
L 299.830769 32.487411 
L 303.437681 28.644427 
L 307.008881 25.201497 
L 308.794481 23.63599 
L 310.663655 22.10625 
L 310.663655 22.10625 
" clip-path="url(#p59bf301fff)" style="fill: none; stroke: #89bedc; stroke-width: 1.5"/>
    <path d="M 217.973863 22.10625 
L 219.561564 24.76737 
L 220.871537 28.223088 
L 221.35722 30.08961 
L 221.725614 32.75073 
L 221.802575 35.41185 
L 221.614505 38.07297 
L 220.871537 41.942048 
L 220.50487 43.39521 
L 219.085937 47.312091 
L 218.287379 49.16097 
L 216.939919 51.82209 
L 215.414494 54.48321 
L 211.907825 59.841308 
L 208.053269 65.12769 
L 201.844506 73.11105 
L 186.533788 92.18241 
L 134.734193 156.76635 
L 130.970325 161.81505 
L 127.314752 167.13729 
L 125.656612 169.79841 
L 123.984881 172.74848 
L 122.163569 176.412971 
L 120.377969 180.576963 
L 119.280812 183.54753 
L 114.809023 196.85313 
L 113.199857 200.728266 
L 111.414257 204.43672 
L 111.212066 204.83649 
L 109.628657 207.668807 
L 106.370117 212.81985 
L 102.450545 218.320521 
L 97.058033 225.346066 
L 89.672344 234.55233 
L 79.094897 247.40244 
L 73.738097 253.655827 
L 68.345585 259.625992 
L 64.268609 263.82465 
L 61.015703 266.92929 
L 57.560561 269.91461 
L 53.989361 272.593022 
L 50.382449 274.818797 
L 48.596849 275.71867 
L 46.811249 276.476469 
L 45.025649 277.085026 
L 42.966516 277.57377 
L 41.418737 277.797238 
L 39.633137 277.859418 
L 37.245736 277.57377 
L 36.026225 277.280342 
L 34.240625 276.553892 
L 34.240625 276.553892 
" clip-path="url(#p59bf301fff)" style="fill: none; stroke: #89bedc; stroke-width: 1.5"/>
    <path d="M 320.294733 288.21825 
L 319.579505 285.80745 
L 319.510645 285.55713 
L 319.319184 282.89601 
L 319.579505 280.467976 
L 319.603728 280.23489 
L 320.280185 277.57377 
L 321.279721 274.91265 
L 321.365105 274.734298 
L 322.539002 272.25153 
L 323.150705 271.14642 
L 324.004395 269.59041 
L 324.972017 268.004511 
L 325.623811 266.92929 
L 326.757617 265.18886 
L 327.642479 263.82465 
L 328.543217 262.488515 
L 329.432271 261.16353 
L 330.328817 259.840503 
L 331.230705 258.50241 
L 332.150129 257.121365 
L 332.996712 255.84129 
L 333.935729 254.372854 
L 334.69236 253.18017 
L 335.721329 251.468092 
L 336.286468 250.51905 
L 337.506929 248.314045 
L 337.756909 247.85793 
L 339.090739 245.19681 
L 339.328241 244.674042 
L 340.289521 242.53569 
L 341.113841 240.50617 
L 341.368392 239.87457 
L 342.345615 237.21345 
L 342.899441 235.596701 
L 343.256045 234.55233 
L 344.132775 231.89121 
L 344.685041 230.229419 
L 345.018364 229.23009 
L 345.949764 226.56897 
L 346.506353 225.106243 
L 346.96758 223.90785 
L 348.291953 220.83468 
L 348.305792 220.80321 
L 349.612336 218.14209 
L 350.077553 217.28876 
L 351.086374 215.48097 
L 351.863153 214.210628 
L 352.737224 212.81985 
L 353.684465 211.42264 
L 354.568253 210.15873 
L 355.470065 208.943101 
L 356.579639 207.49761 
L 357.255665 206.6553 
L 358.771372 204.83649 
L 359.041265 204.522952 
L 360.862577 202.489726 
L 361.156953 202.17537 
L 362.648177 200.618293 
L 363.761689 199.51425 
L 364.433777 198.8583 
L 366.219377 197.212407 
L 366.634683 196.85313 
L 368.040689 195.650253 
L 369.826289 194.2333 
L 369.882884 194.19201 
L 371.611889 192.940141 
L 373.397489 191.767582 
L 373.803272 191.53089 
L 375.218801 190.708907 
L 377.004401 189.809204 
L 378.790001 189.048922 
L 379.321104 188.86977 
L 380.575601 188.447573 
L 382.396913 188.006191 
L 384.182513 187.752647 
L 385.968113 187.694921 
L 387.753713 187.856447 
L 389.575025 188.277486 
L 391.096087 188.86977 
L 391.360625 188.985394 
" clip-path="url(#p59bf301fff)" style="fill: none; stroke: #89bedc; stroke-width: 1.5"/>
    <path d="M 391.360625 58.470792 
L 388.558019 62.46657 
L 384.182513 68.270669 
L 376.135041 78.43329 
L 350.077553 111.00882 
L 346.203608 116.13249 
L 342.453571 121.45473 
L 339.328241 126.461071 
L 337.692244 129.43809 
L 335.721329 133.629657 
L 334.016369 137.86497 
L 332.150129 143.376282 
L 329.575406 151.17057 
L 327.448159 156.49281 
L 326.194202 159.15393 
L 324.797115 161.81505 
L 323.150705 164.651312 
L 319.804782 169.79841 
L 315.963516 175.12065 
L 310.615793 182.066359 
L 300.906023 194.19201 
L 259.936155 245.19681 
L 254.976497 251.906668 
L 252.291638 255.84129 
L 249.583985 260.27555 
L 247.65304 263.82465 
L 244.970914 269.59041 
L 240.620273 279.60861 
L 240.316105 280.23489 
L 238.834673 282.929956 
L 237.013361 285.674597 
L 234.928032 288.21825 
L 234.928032 288.21825 
" clip-path="url(#p59bf301fff)" style="fill: none; stroke: #89bedc; stroke-width: 1.5"/>
   </g>
   <g id="PathCollection_5">
    <path d="M 34.240625 178.508815 
L 34.343872 178.22529 
L 35.683564 175.12065 
L 36.026225 174.431856 
L 37.024261 172.45953 
L 37.847537 170.994534 
L 38.529884 169.79841 
L 39.633137 168.017601 
L 40.185138 167.13729 
L 41.418737 165.29048 
L 41.967627 164.47617 
L 43.204337 162.726346 
L 43.852575 161.81505 
L 45.025649 160.22232 
L 45.815704 159.15393 
L 46.811249 157.842114 
L 47.837256 156.49281 
L 48.596849 155.512971 
L 49.900983 153.83169 
L 50.382449 153.219841 
L 51.994604 151.17057 
L 52.203761 150.907361 
L 53.989361 148.660354 
L 54.109224 148.50945 
L 55.774961 146.427338 
L 56.236696 145.84833 
L 57.560561 144.194315 
L 58.363704 143.18721 
L 59.381873 141.910336 
L 60.481004 140.52609 
L 61.167473 139.658889 
L 62.580657 137.86497 
L 62.953073 137.389077 
L 64.654167 135.20385 
L 64.738673 135.094116 
L 66.559985 132.720744 
L 67.032227 132.09921 
L 68.345585 130.340663 
L 69.014829 129.43809 
L 70.131185 127.891423 
L 70.92926 126.77697 
L 71.916785 125.343878 
L 72.755968 124.11585 
L 73.738097 122.600221 
L 74.473945 121.45473 
L 75.523697 119.704597 
L 76.065469 118.79361 
L 77.309297 116.516496 
L 77.517536 116.13249 
L 78.829622 113.47137 
L 79.094897 112.874059 
L 80.00813 110.81025 
L 80.916209 108.51426 
L 81.06069 108.14913 
L 82.021288 105.48801 
L 82.701809 103.447907 
L 82.910341 102.82689 
L 83.771597 100.16577 
L 84.487409 97.9527 
L 84.634142 97.50465 
L 85.546435 94.84353 
L 86.273009 92.877856 
L 86.534253 92.18241 
L 87.634999 89.52129 
L 88.094321 88.529073 
L 89.087599 86.41665 
L 89.879921 84.901704 
L 90.488624 83.75553 
L 91.665521 81.721886 
L 92.033626 81.09441 
L 93.451121 78.844797 
L 93.713377 78.43329 
L 95.272433 76.121689 
L 95.510189 75.77217 
L 97.058033 73.59436 
L 97.403488 73.11105 
L 98.843633 71.162035 
L 99.371602 70.44993 
L 100.629233 68.795714 
L 101.396149 67.78881 
L 102.450545 66.430267 
L 103.462044 65.12769 
L 104.236145 64.145366 
L 105.55837 62.46657 
L 106.021745 61.884781 
L 107.675903 59.80545 
L 107.807345 59.641584 
L 109.628657 57.371466 
L 109.810636 57.14433 
L 111.414257 55.15636 
L 111.955637 54.48321 
L 113.199857 52.944613 
L 114.105055 51.82209 
L 114.985457 50.736166 
L 116.259968 49.16097 
L 116.806769 48.489459 
L 118.425455 46.49985 
L 118.592369 46.296964 
L 120.377969 44.133901 
L 120.986678 43.39521 
L 122.163569 41.993394 
L 123.224504 40.73409 
L 123.984881 39.850173 
L 125.524536 38.07297 
L 125.770481 37.796561 
L 127.556081 35.816247 
L 127.925456 35.41185 
L 129.341681 33.918332 
L 130.469731 32.75073 
L 131.162993 32.064203 
L 132.948593 30.343826 
L 133.220148 30.08961 
L 134.734193 28.749978 
L 136.287799 27.42849 
L 136.519793 27.24283 
L 138.341105 25.853096 
L 139.844569 24.76737 
L 140.126705 24.576959 
L 141.912305 23.44212 
L 143.697905 22.385749 
L 144.204194 22.10625 
" clip-path="url(#p59bf301fff)" style="fill: none; stroke: #539ecd; stroke-width: 1.5"/>
    <path d="M 154.045261 288.21825 
L 152.020752 285.55713 
L 151.059726 282.89601 
L 150.876017 280.041754 
L 151.204153 277.57377 
L 151.984295 274.91265 
L 153.090444 272.25153 
L 154.482929 269.5231 
L 156.268529 266.473263 
L 159.875441 260.797791 
L 163.446641 255.168026 
L 166.128289 250.51905 
L 167.490102 247.85793 
L 169.829666 242.53569 
L 171.747401 237.21345 
L 175.297165 226.56897 
L 176.335946 223.90785 
L 177.802865 220.6031 
L 179.588465 217.134373 
L 181.409777 213.991376 
L 183.868443 210.15873 
L 187.651793 204.83649 
L 192.159089 198.92404 
L 200.154368 188.86977 
L 258.635268 116.13249 
L 264.770508 108.14913 
L 268.56911 102.82689 
L 271.118321 98.883157 
L 273.462743 94.84353 
L 274.81898 92.18241 
L 276.510833 88.371321 
L 278.296433 83.688371 
L 282.768192 70.44993 
L 283.844026 67.78881 
L 285.474545 64.292786 
L 287.260145 60.94616 
L 289.54852 57.14433 
L 293.189317 51.82209 
L 297.191212 46.49985 
L 301.84386 40.73409 
L 306.503571 35.41185 
L 309.03577 32.75073 
L 312.401393 29.53559 
L 315.972593 26.552964 
L 319.579505 23.9999 
L 322.762288 22.10625 
L 322.762288 22.10625 
" clip-path="url(#p59bf301fff)" style="fill: none; stroke: #539ecd; stroke-width: 1.5"/>
    <path d="M 206.477198 22.10625 
L 206.515313 22.137443 
L 209.265639 24.76737 
L 211.112728 27.42849 
L 212.301043 30.08961 
L 212.981658 32.75073 
L 213.256932 35.41185 
L 213.179847 38.07297 
L 212.790497 40.73409 
L 211.907825 43.991919 
L 211.003616 46.49985 
L 209.794704 49.16097 
L 208.300913 51.951098 
L 206.515313 54.886371 
L 203.171293 59.80545 
L 199.208898 65.12769 
L 192.159089 74.078066 
L 168.839153 103.06634 
L 129.341681 152.272872 
L 123.984881 159.368626 
L 120.377969 164.5555 
L 117.159744 169.79841 
L 114.985457 173.991052 
L 114.440343 175.12065 
L 112.086105 180.88641 
L 109.628657 188.242021 
L 107.619566 194.19201 
L 105.452907 199.51425 
L 104.17595 202.17537 
L 102.450545 205.342948 
L 99.467029 210.15873 
L 95.731909 215.48097 
L 91.665521 220.845459 
L 84.487409 229.799572 
L 77.309297 238.407339 
L 71.394481 245.19681 
L 66.430867 250.51905 
L 62.953073 253.941571 
L 59.381873 257.125424 
L 55.774961 259.915792 
L 53.911423 261.16353 
L 52.203761 262.149495 
L 50.382449 263.045086 
L 48.312528 263.82465 
L 46.811249 264.22149 
L 45.025649 264.457794 
L 43.204337 264.416953 
L 40.866878 263.82465 
L 39.633137 263.237224 
L 37.847537 261.874463 
L 37.183627 261.16353 
L 36.026225 259.657098 
L 35.339172 258.50241 
L 34.240625 256.202215 
L 34.240625 256.202215 
" clip-path="url(#p59bf301fff)" style="fill: none; stroke: #539ecd; stroke-width: 1.5"/>
    <path d="M 332.658009 288.21825 
L 332.150129 287.633395 
L 330.608741 285.55713 
L 330.328817 284.847449 
L 329.650356 282.89601 
L 329.440674 280.23489 
L 329.789921 277.57377 
L 330.328817 275.742344 
L 330.569114 274.91265 
L 331.68367 272.25153 
L 332.150129 271.348155 
L 333.049205 269.59041 
L 333.935729 268.070042 
L 334.595829 266.92929 
L 335.721329 265.150286 
L 336.550824 263.82465 
L 337.506929 262.367218 
L 338.292582 261.16353 
L 339.328241 259.591098 
L 340.042097 258.50241 
L 341.113841 256.839839 
L 341.755028 255.84129 
L 342.899441 253.983083 
L 343.392667 253.18017 
L 344.685041 250.935788 
L 344.925033 250.51905 
L 346.335966 247.85793 
L 346.506353 247.504496 
L 347.623828 245.19681 
L 348.291953 243.659404 
L 348.785204 242.53569 
L 349.83877 239.87457 
L 350.077553 239.218308 
L 350.820709 237.21345 
L 351.747143 234.55233 
L 351.863153 234.213858 
L 352.682021 231.89121 
L 353.639069 229.23009 
L 353.684465 229.11176 
L 354.696029 226.56897 
L 355.470065 224.784516 
L 355.86699 223.90785 
L 357.255665 221.15711 
L 357.443012 220.80321 
L 359.012901 218.14209 
L 359.041265 218.098273 
L 360.823985 215.48097 
L 360.862577 215.428575 
L 362.648177 213.138148 
L 362.912556 212.81985 
L 364.433777 211.097846 
L 365.32163 210.15873 
L 366.219377 209.253826 
L 368.040689 207.551474 
L 368.104499 207.49761 
L 369.826289 206.09557 
L 371.530457 204.83649 
L 371.611889 204.77797 
L 373.397489 203.673623 
L 375.218801 202.715991 
L 376.519167 202.17537 
L 377.004401 201.977993 
L 378.790001 201.480368 
L 380.575601 201.224794 
L 382.396913 201.256864 
L 384.182513 201.629175 
L 385.4627 202.17537 
L 385.968113 202.428841 
L 387.753713 203.829011 
L 388.657093 204.83649 
L 389.575025 206.091232 
L 390.375499 207.49761 
L 391.360625 209.675675 
" clip-path="url(#p59bf301fff)" style="fill: none; stroke: #539ecd; stroke-width: 1.5"/>
    <path d="M 385.023571 22.10625 
L 385.968113 22.922921 
L 387.753713 24.679466 
L 387.834506 24.76737 
L 389.575025 27.264842 
L 389.678158 27.42849 
L 390.856507 30.08961 
L 391.360625 32.012968 
" clip-path="url(#p59bf301fff)" style="fill: none; stroke: #539ecd; stroke-width: 1.5"/>
    <path d="M 391.360625 279.596875 
L 391.048539 280.23489 
L 389.575025 282.574796 
L 389.355853 282.89601 
L 387.753713 284.779014 
L 387.024263 285.55713 
L 385.968113 286.491237 
L 384.182513 287.908855 
L 383.750676 288.21825 
" clip-path="url(#p59bf301fff)" style="fill: none; stroke: #539ecd; stroke-width: 1.5"/>
    <path d="M 391.360625 40.628584 
L 391.345121 40.73409 
L 390.665617 43.39521 
L 389.554843 46.49985 
L 387.753713 50.268016 
L 385.968113 53.415795 
L 384.182513 56.229057 
L 381.719404 59.80545 
L 377.004401 66.104333 
L 371.493377 73.11105 
L 341.392356 110.81025 
L 337.451993 116.13249 
L 333.835719 121.45473 
L 332.150129 124.20387 
L 330.328817 127.494591 
L 328.543217 131.168527 
L 328.117937 132.09921 
L 325.881323 137.86497 
L 321.365105 151.255114 
L 319.579505 155.474663 
L 319.113691 156.49281 
L 317.768106 159.15393 
L 315.972593 162.305494 
L 312.87769 167.13729 
L 308.794481 172.831979 
L 303.437681 179.789852 
L 296.193234 188.86977 
L 254.976497 240.168781 
L 249.135333 247.85793 
L 245.408779 253.18017 
L 242.09957 258.50241 
L 239.269241 263.82465 
L 236.621279 269.59041 
L 234.218453 274.91265 
L 232.863317 277.57377 
L 231.279702 280.23489 
L 229.33063 282.89601 
L 226.825088 285.55713 
L 224.478449 287.469595 
L 223.436414 288.21825 
L 223.436414 288.21825 
" clip-path="url(#p59bf301fff)" style="fill: none; stroke: #539ecd; stroke-width: 1.5"/>
   </g>
   <g id="PathCollection_6">
    <path d="M 179.261344 288.21825 
L 176.017265 287.707671 
L 172.410353 286.868057 
L 168.839153 285.656584 
L 168.607668 285.55713 
L 167.053553 284.634546 
L 164.763347 282.89601 
L 163.060157 280.23489 
L 162.531019 277.57377 
L 162.74743 274.91265 
L 163.472174 272.25153 
L 165.232241 268.324757 
L 165.938021 266.92929 
L 170.624753 259.006909 
L 172.497313 255.84129 
L 175.381795 250.51905 
L 176.64595 247.85793 
L 178.824351 242.53569 
L 180.654495 237.21345 
L 183.284751 229.23009 
L 185.407231 223.90785 
L 186.878794 220.80321 
L 188.587889 217.668799 
L 191.602608 212.81985 
L 195.344499 207.49761 
L 199.364672 202.17537 
L 208.300913 190.933671 
L 238.154736 153.83169 
L 264.214298 121.45473 
L 271.118321 112.628169 
L 274.725233 107.745562 
L 278.296433 102.509866 
L 281.306808 97.50465 
L 283.688945 92.762158 
L 283.963789 92.18241 
L 285.474545 88.530863 
L 287.197105 83.75553 
L 290.744527 73.11105 
L 291.789127 70.44993 
L 292.943924 67.78881 
L 294.438257 64.770587 
L 296.259569 61.540233 
L 299.050409 57.14433 
L 302.858373 51.82209 
L 307.008881 46.498034 
L 312.401393 40.230319 
L 315.972593 36.54049 
L 317.793905 34.814543 
L 321.365105 31.823103 
L 323.726998 30.08961 
L 326.757617 28.227115 
L 328.543217 27.246642 
L 332.150129 25.65054 
L 335.721329 24.389277 
L 339.328241 23.459407 
L 342.899441 22.762688 
L 346.506353 22.265093 
L 348.129956 22.10625 
L 348.129956 22.10625 
" clip-path="url(#p59bf301fff)" style="fill: none; stroke: #2b7bba; stroke-width: 1.5"/>
    <path d="M 181.831945 22.10625 
L 184.980977 22.479418 
L 188.587889 23.156615 
L 192.159089 24.143766 
L 193.944689 24.783821 
L 195.766001 25.709861 
L 198.484183 27.42849 
L 199.337201 28.21469 
L 201.122801 30.142878 
L 202.57421 32.75073 
L 203.339788 35.41185 
L 203.553056 38.07297 
L 203.327704 40.73409 
L 202.726031 43.39521 
L 201.122801 47.546424 
L 200.357794 49.16097 
L 198.882594 51.82209 
L 195.766001 56.630268 
L 193.50165 59.80545 
L 188.587889 66.239962 
L 181.000206 75.77217 
L 127.556081 142.107595 
L 120.377969 151.223327 
L 116.400237 156.49281 
L 112.656021 161.81505 
L 109.333492 167.13729 
L 106.533689 172.45953 
L 105.33635 175.12065 
L 103.131891 180.88641 
L 98.62663 194.19201 
L 97.058033 197.873429 
L 95.272433 201.481285 
L 93.373257 204.83649 
L 89.879921 210.163407 
L 85.955167 215.48097 
L 80.916209 221.795764 
L 76.915279 226.56897 
L 71.916785 232.216935 
L 67.132671 237.21345 
L 64.354986 239.87457 
L 61.167473 242.63046 
L 57.560561 245.209964 
L 55.774961 246.199549 
L 53.989361 247.000911 
L 52.203761 247.56006 
L 50.382449 247.806619 
L 48.596849 247.635504 
L 46.811249 246.932792 
L 44.733397 245.19681 
L 43.014171 242.53569 
L 41.958471 239.87457 
L 41.193721 237.21345 
L 40.653485 234.55233 
L 39.900095 229.23009 
L 39.452978 223.90785 
L 39.100659 215.48097 
L 39.000332 207.49761 
L 39.154654 199.51425 
L 39.51374 194.19201 
L 39.82337 191.53089 
L 40.247424 188.86977 
L 40.796121 186.20865 
L 41.487934 183.54753 
L 42.369749 180.88641 
L 43.417113 178.22529 
L 45.025649 174.852036 
L 46.811249 171.67301 
L 49.710117 167.13729 
L 53.527197 161.81505 
L 59.699631 153.83169 
L 73.738097 136.102656 
L 77.309297 131.330304 
L 80.916209 126.172507 
L 83.885714 121.45473 
L 86.273009 117.026567 
L 86.727158 116.13249 
L 89.039781 110.81025 
L 90.940544 105.48801 
L 93.54203 97.50465 
L 95.554411 92.18241 
L 97.058033 88.876905 
L 98.843633 85.452305 
L 100.629233 82.421623 
L 103.226884 78.43329 
L 107.055432 73.11105 
L 113.215516 65.12769 
L 126.114618 49.16097 
L 131.162993 43.175898 
L 135.847476 38.07297 
L 138.556919 35.41185 
L 141.912305 32.50217 
L 145.519217 29.853665 
L 149.624595 27.42849 
L 152.697329 26.019397 
L 156.268529 24.657045 
L 159.875441 23.66751 
L 163.446641 22.917093 
L 167.053553 22.369909 
L 169.613456 22.10625 
L 169.613456 22.10625 
" clip-path="url(#p59bf301fff)" style="fill: none; stroke: #2b7bba; stroke-width: 1.5"/>
    <path d="M 360.387109 22.10625 
L 362.648177 22.353743 
L 366.219377 22.954454 
L 369.826289 23.863253 
L 372.442443 24.76737 
L 373.397489 25.218181 
L 375.218801 26.224088 
L 377.062416 27.42849 
L 379.631666 30.08961 
L 381.129981 32.75073 
L 381.896114 35.41185 
L 382.115913 38.07297 
L 381.882845 40.73409 
L 381.276379 43.39521 
L 380.1678 46.49985 
L 378.790001 49.402942 
L 377.004401 52.523742 
L 375.218801 55.308223 
L 372.059872 59.80545 
L 366.219377 67.431873 
L 360.862577 74.141098 
L 332.150129 110.175337 
L 328.543217 115.129954 
L 326.057965 118.79361 
L 323.150705 123.606721 
L 322.858032 124.11585 
L 321.365105 126.982154 
L 319.579505 130.885802 
L 319.060379 132.09921 
L 316.952926 137.86497 
L 313.4085 148.50945 
L 312.385086 151.17057 
L 310.615793 155.073918 
L 308.794481 158.557053 
L 306.868645 161.81505 
L 303.295829 167.13729 
L 299.363936 172.45953 
L 292.652657 181.039867 
L 258.164197 223.90785 
L 247.535374 237.21345 
L 242.405873 243.894648 
L 238.834673 248.836291 
L 235.92533 253.18017 
L 232.76549 258.50241 
L 229.835249 264.243968 
L 225.925648 272.25153 
L 224.397886 274.91265 
L 222.537735 277.57377 
L 220.119531 280.23489 
L 219.085937 281.130973 
L 216.773361 282.89601 
L 213.693425 284.594277 
L 211.559208 285.55713 
L 208.300913 286.603287 
L 204.729713 287.459942 
L 201.122801 288.078354 
L 200.030488 288.21825 
L 200.030488 288.21825 
" clip-path="url(#p59bf301fff)" style="fill: none; stroke: #2b7bba; stroke-width: 1.5"/>
    <path d="M 341.873055 280.23489 
L 341.287696 277.57377 
L 341.505159 274.91265 
L 342.259569 272.25153 
L 342.899441 270.750652 
L 343.391025 269.59041 
L 344.685041 267.118761 
L 344.784009 266.92929 
L 346.506353 264.052391 
L 346.641255 263.82465 
L 348.291953 261.231519 
L 348.335411 261.16353 
L 350.063835 258.50241 
L 350.077553 258.4809 
L 351.776913 255.84129 
L 351.863153 255.700562 
L 353.433412 253.18017 
L 353.684465 252.745119 
L 355.001609 250.51905 
L 355.470065 249.64672 
L 356.464938 247.85793 
L 357.255665 246.26727 
L 357.814225 245.19681 
L 359.041265 242.549755 
L 359.04823 242.53569 
L 360.25376 239.87457 
L 360.862577 238.401119 
L 361.39763 237.21345 
L 362.535556 234.55233 
L 362.648177 234.289904 
L 363.790347 231.89121 
L 364.433777 230.57856 
L 365.182724 229.23009 
L 366.219377 227.477723 
L 366.844674 226.56897 
L 368.040689 224.967723 
L 368.989135 223.90785 
L 369.826289 223.063035 
L 371.611889 221.631696 
L 373.051703 220.80321 
L 373.397489 220.622354 
L 375.218801 220.147535 
L 377.004401 220.207647 
L 378.51564 220.80321 
L 378.790001 220.942903 
L 380.575601 222.784848 
L 381.257568 223.90785 
L 382.396913 226.434572 
L 382.442251 226.56897 
L 383.153868 229.23009 
L 383.701272 231.89121 
L 384.133805 234.55233 
L 384.182513 234.910591 
L 384.446863 237.21345 
L 384.708565 239.87457 
L 384.938717 242.53569 
L 385.145112 245.19681 
L 385.330984 247.85793 
L 385.495425 250.51905 
L 385.633418 253.18017 
L 385.735606 255.84129 
L 385.787891 258.50241 
L 385.770938 261.16353 
L 385.659552 263.82465 
L 385.367241 266.92929 
L 384.931112 269.59041 
L 384.270168 272.25153 
L 384.182513 272.499045 
L 383.25388 274.91265 
L 382.396913 276.535152 
L 381.792739 277.57377 
L 380.575601 279.155003 
L 379.646958 280.23489 
L 378.790001 281.015035 
L 377.004401 282.45402 
L 376.38084 282.89601 
L 375.218801 283.563307 
L 373.397489 284.469302 
L 371.611889 285.22862 
L 370.699348 285.55713 
L 369.826289 285.820551 
L 368.040689 286.26628 
L 366.219377 286.630059 
L 364.433777 286.90256 
L 362.648177 287.095249 
L 360.862577 287.210167 
L 359.041265 287.247804 
L 357.255665 287.205539 
L 355.470065 287.081933 
L 353.684465 286.872009 
L 351.863153 286.561389 
L 350.077553 286.152089 
L 348.291953 285.625806 
L 348.100188 285.55713 
L 346.506353 284.776786 
L 344.685041 283.645395 
L 343.704601 282.89601 
L 342.899441 281.860549 
L 341.873055 280.23489 
z
" clip-path="url(#p59bf301fff)" style="fill: none; stroke: #2b7bba; stroke-width: 1.5"/>
   </g>
   <g id="PathCollection_7">
    <path d="M 51.970775 207.49761 
L 51.782361 204.83649 
L 51.682906 202.17537 
L 51.672721 199.51425 
L 51.757381 196.85313 
L 51.946162 194.19201 
L 52.203761 191.947409 
L 52.256363 191.53089 
L 52.739756 188.86977 
L 53.370885 186.20865 
L 53.989361 184.119682 
L 54.171469 183.54753 
L 55.199351 180.88641 
L 55.774961 179.600449 
L 56.422866 178.22529 
L 57.560561 176.104237 
L 58.10326 175.12065 
L 59.381873 173.026692 
L 59.738367 172.45953 
L 61.167473 170.335118 
L 61.534917 169.79841 
L 62.953073 167.831621 
L 63.458011 167.13729 
L 64.738673 165.444769 
L 65.473169 164.47617 
L 66.559985 163.084188 
L 67.547067 161.81505 
L 68.345585 160.814755 
L 69.658516 159.15393 
L 70.131185 158.56957 
L 71.788656 156.49281 
L 71.916785 156.335561 
L 73.738097 154.095364 
L 73.950728 153.83169 
L 75.523697 151.916914 
L 76.124515 151.17057 
L 77.309297 149.722346 
L 78.280354 148.50945 
L 79.094897 147.505308 
L 80.411076 145.84833 
L 80.916209 145.217031 
L 82.50662 143.18721 
L 82.701809 142.939536 
L 84.487409 140.637465 
L 84.572985 140.52609 
L 86.273009 138.316487 
L 86.613009 137.86497 
L 88.094321 135.881487 
L 88.590485 135.20385 
L 89.879921 133.431751 
L 90.809715 132.09921 
L 91.665521 130.845788 
L 92.61284 129.43809 
L 93.451121 128.130135 
L 94.310919 126.77697 
L 95.272433 125.149912 
L 95.881964 124.11585 
L 97.058033 121.926953 
L 97.312734 121.45473 
L 98.616677 118.79361 
L 98.843633 118.276826 
L 99.804216 116.13249 
L 100.629233 114.007552 
L 100.843961 113.47137 
L 101.812266 110.81025 
L 102.450545 108.831903 
L 102.681195 108.14913 
L 103.53225 105.48801 
L 104.236145 103.163363 
L 104.343683 102.82689 
L 105.219839 100.16577 
L 106.021745 97.792808 
L 106.124533 97.50465 
L 107.166349 94.84353 
L 107.807345 93.336219 
L 108.320808 92.18241 
L 109.610547 89.52129 
L 109.628657 89.488239 
L 111.340232 86.41665 
L 111.414257 86.295144 
L 112.989862 83.75553 
L 113.199857 83.438064 
L 114.765429 81.09441 
L 114.985457 80.781946 
L 116.645091 78.43329 
L 116.806769 78.213752 
L 118.592369 75.78441 
L 118.601401 75.77217 
L 120.377969 73.449803 
L 120.634709 73.11105 
L 122.163569 71.156438 
L 122.709869 70.44993 
L 123.984881 68.844471 
L 124.811857 67.78881 
L 125.770481 66.597048 
L 126.933534 65.12769 
L 127.556081 64.360296 
L 129.066641 62.46657 
L 129.341681 62.12964 
L 131.162993 59.867771 
L 131.213056 59.80545 
L 132.948593 57.697429 
L 133.395875 57.14433 
L 134.734193 55.532594 
L 135.591094 54.48321 
L 136.519793 53.380782 
L 137.814672 51.82209 
L 138.341105 51.211662 
L 140.089623 49.16097 
L 140.126705 49.119607 
L 141.912305 47.160784 
L 142.510298 46.49985 
L 143.697905 45.293835 
L 145.519217 43.407254 
L 145.531195 43.39521 
L 147.304817 41.802603 
L 148.499469 40.73409 
L 149.090417 40.263543 
L 150.876017 38.901927 
L 152.001095 38.07297 
L 152.697329 37.627647 
L 154.482929 36.562054 
L 156.268529 35.550867 
L 156.538494 35.41185 
L 158.054129 34.755861 
L 159.875441 34.04371 
L 161.661041 33.420677 
L 163.446641 32.875618 
L 163.936491 32.75073 
L 165.232241 32.48006 
L 167.053553 32.176685 
L 168.839153 31.954484 
L 170.624753 31.808691 
L 172.410353 31.742011 
L 174.231665 31.759416 
L 176.017265 31.865476 
L 177.802865 32.066585 
L 179.588465 32.371724 
L 181.196592 32.75073 
L 181.409777 32.819977 
L 183.195377 33.575604 
L 184.980977 34.553795 
L 186.229026 35.41185 
L 186.766577 36.016192 
L 188.225241 38.07297 
L 188.587889 39.332988 
L 188.917633 40.73409 
L 188.809823 43.39521 
L 188.587889 44.215679 
L 187.961096 46.49985 
L 186.819166 49.16097 
L 186.766577 49.256851 
L 185.344967 51.82209 
L 184.980977 52.397813 
L 183.659717 54.48321 
L 183.195377 55.153546 
L 181.821493 57.14433 
L 181.409777 57.704442 
L 179.876537 59.80545 
L 179.588465 60.182782 
L 177.863086 62.46657 
L 177.802865 62.543388 
L 176.017265 64.825256 
L 175.783397 65.12769 
L 174.231665 67.071534 
L 173.66805 67.78881 
L 172.410353 69.349999 
L 171.539007 70.44993 
L 170.624753 71.57792 
L 169.404633 73.11105 
L 168.839153 73.807665 
L 167.273521 75.77217 
L 167.053553 76.043299 
L 165.232241 78.316613 
L 165.139353 78.43329 
L 163.446641 80.520611 
L 162.990138 81.09441 
L 161.661041 82.733749 
L 160.847988 83.75553 
L 159.875441 84.95382 
L 158.708711 86.41665 
L 158.054129 87.214703 
L 156.268529 89.465383 
L 156.224306 89.52129 
L 154.482929 91.654966 
L 154.060546 92.18241 
L 152.697329 93.850852 
L 151.900459 94.84353 
L 150.876017 96.098637 
L 149.747946 97.50465 
L 149.090417 98.31014 
L 147.601843 100.16577 
L 147.304817 100.529875 
L 145.519217 102.748311 
L 145.455952 102.82689 
L 143.697905 104.974944 
L 143.284369 105.48801 
L 141.912305 107.158292 
L 141.110947 108.14913 
L 140.126705 109.342896 
L 138.934972 110.81025 
L 138.341105 111.527951 
L 136.755029 113.47137 
L 136.519793 113.755241 
L 134.734193 115.919986 
L 134.559127 116.13249 
L 132.948593 118.05802 
L 132.342442 118.79361 
L 131.162993 120.206289 
L 130.13519 121.45473 
L 129.341681 122.409046 
L 127.942733 124.11585 
L 127.556081 124.581925 
L 125.770481 126.768009 
L 125.763104 126.77697 
L 123.984881 128.909498 
L 123.551316 129.43809 
L 122.163569 131.109683 
L 121.356407 132.09921 
L 120.377969 133.26779 
L 118.824834 135.20385 
L 118.592369 135.486322 
L 116.806769 137.680571 
L 116.657499 137.86497 
L 114.985457 139.907278 
L 114.489902 140.52609 
L 113.199857 142.118811 
L 112.35451 143.18721 
L 111.414257 144.365871 
L 110.25849 145.84833 
L 109.628657 146.652765 
L 108.20502 148.50945 
L 107.807345 149.029862 
L 106.203361 151.17057 
L 106.021745 151.414977 
L 104.259898 153.83169 
L 104.236145 153.864887 
L 102.450545 156.389615 
L 102.378639 156.49281 
L 100.629233 159.09961 
L 100.593242 159.15393 
L 98.912467 161.81505 
L 98.843633 161.931741 
L 97.346836 164.47617 
L 97.058033 165.015031 
L 95.915066 167.13729 
L 95.272433 168.475881 
L 94.627818 169.79841 
L 93.492399 172.45953 
L 93.451121 172.56575 
L 92.425769 175.12065 
L 91.665521 177.301952 
L 91.334024 178.22529 
L 90.451383 180.88641 
L 89.879921 182.735149 
L 89.614403 183.54753 
L 88.750476 186.20865 
L 88.094321 188.210428 
L 87.864263 188.86977 
L 86.86963 191.53089 
L 86.273009 193.010564 
L 85.767972 194.19201 
L 84.529403 196.85313 
L 84.487409 196.93382 
L 83.08245 199.51425 
L 82.701809 200.157625 
L 81.459904 202.17537 
L 80.916209 202.996238 
L 79.653584 204.83649 
L 79.094897 205.603389 
L 77.671667 207.49761 
L 77.309297 207.956129 
L 75.523697 210.155229 
L 75.520694 210.15873 
L 73.738097 212.152715 
L 73.118818 212.81985 
L 71.916785 214.072899 
L 70.508726 215.48097 
L 70.131185 215.84716 
L 68.345585 217.435406 
L 67.473633 218.14209 
L 66.559985 218.861863 
L 64.738673 220.107428 
L 63.483704 220.80321 
L 62.953073 221.086465 
L 61.167473 221.701392 
L 59.381873 221.916177 
L 57.560561 221.539716 
L 56.41516 220.80321 
L 55.774961 220.247532 
L 54.410549 218.14209 
L 53.989361 217.247904 
L 53.396054 215.48097 
L 52.73742 212.81985 
L 52.264065 210.15873 
L 52.203761 209.691291 
L 51.970775 207.49761 
z
" clip-path="url(#p59bf301fff)" style="fill: none; stroke: #0b559f; stroke-width: 1.5"/>
    <path d="M 181.306203 274.91265 
L 180.017499 272.25153 
L 179.97609 269.59041 
L 180.630766 266.92929 
L 181.409777 264.994347 
L 181.869047 263.82465 
L 183.142826 261.16353 
L 183.195377 261.062609 
L 184.52906 258.50241 
L 184.980977 257.623693 
L 185.903557 255.84129 
L 186.766577 254.072339 
L 187.208385 253.18017 
L 188.418075 250.51905 
L 188.587889 250.110107 
L 189.550152 247.85793 
L 190.373489 245.651346 
L 190.549447 245.19681 
L 191.493884 242.53569 
L 192.159089 240.444048 
L 192.349349 239.87457 
L 193.203816 237.21345 
L 193.944689 234.816141 
L 194.030979 234.55233 
L 194.942325 231.89121 
L 195.766001 229.579796 
L 195.897519 229.23009 
L 197.001058 226.56897 
L 197.551601 225.354685 
L 198.234932 223.90785 
L 199.337201 221.798147 
L 199.867561 220.80321 
L 201.122801 218.659326 
L 201.432761 218.14209 
L 202.944113 215.783994 
L 203.141101 215.48097 
L 204.729713 213.173955 
L 204.974776 212.81985 
L 206.515313 210.696468 
L 206.904785 210.15873 
L 208.300913 208.304935 
L 208.905347 207.49761 
L 210.122225 205.922563 
L 210.953218 204.83649 
L 211.907825 203.625133 
L 213.035141 202.17537 
L 213.693425 201.351148 
L 215.138346 199.51425 
L 215.479025 199.091554 
L 217.255274 196.85313 
L 217.300337 196.797465 
L 219.085937 194.591178 
L 219.403794 194.19201 
L 220.871537 192.3861 
L 221.553542 191.53089 
L 222.657137 190.172375 
L 223.696483 188.86977 
L 224.478449 187.904921 
L 225.829122 186.20865 
L 226.264049 185.67195 
L 227.95453 183.54753 
L 228.049649 183.430168 
L 229.835249 181.217022 
L 230.098549 180.88641 
L 231.656561 178.966373 
L 232.247147 178.22529 
L 233.442161 176.770897 
L 234.747919 175.12065 
L 235.227761 174.531748 
L 236.885032 172.45953 
L 237.013361 172.302002 
L 238.834673 170.049671 
L 239.03547 169.79841 
L 240.620273 167.851224 
L 241.190096 167.13729 
L 242.405873 165.640406 
L 243.333606 164.47617 
L 244.191473 163.418367 
L 245.469009 161.81505 
L 246.012785 161.143812 
L 247.597295 159.15393 
L 247.798385 158.906247 
L 249.583985 156.684665 
L 249.73696 156.49281 
L 251.369585 154.48842 
L 251.895008 153.83169 
L 253.190897 152.242281 
L 254.049362 151.17057 
L 254.976497 150.035527 
L 256.200391 148.50945 
L 256.762097 147.821543 
L 258.344846 145.84833 
L 258.547697 145.599651 
L 260.369009 143.344887 
L 260.495657 143.18721 
L 262.154609 141.15804 
L 262.662561 140.52609 
L 263.940209 138.964855 
L 264.825919 137.86497 
L 265.725809 136.767834 
L 266.990223 135.20385 
L 267.547121 134.532456 
L 269.332721 132.329044 
L 269.518199 132.09921 
L 271.118321 130.168771 
L 271.715026 129.43809 
L 272.903921 128.002334 
L 273.904683 126.77697 
L 274.725233 125.780144 
L 276.076345 124.11585 
L 276.510833 123.583527 
L 278.222505 121.45473 
L 278.296433 121.362854 
L 280.082033 119.145899 
L 280.363135 118.79361 
L 281.903345 116.84694 
L 282.460744 116.13249 
L 283.688945 114.538071 
L 284.498506 113.47137 
L 285.474545 112.157532 
L 286.461588 110.81025 
L 287.260145 109.683562 
L 288.335943 108.14913 
L 289.081457 107.030197 
L 290.101097 105.48801 
L 290.867057 104.248972 
L 291.742537 102.82689 
L 292.652657 101.211807 
L 293.243451 100.16577 
L 294.438257 97.802761 
L 294.590738 97.50465 
L 295.825885 94.84353 
L 296.259569 93.778114 
L 296.92721 92.18241 
L 297.899384 89.52129 
L 298.045169 89.085741 
L 298.966134 86.41665 
L 299.787667 83.75553 
L 299.830769 83.613925 
L 300.638656 81.09441 
L 301.472221 78.43329 
L 301.616369 78.000324 
L 302.399637 75.77217 
L 303.384396 73.11105 
L 303.437681 72.982593 
L 304.537683 70.44993 
L 305.223281 69.00178 
L 305.819991 67.78881 
L 307.008881 65.572627 
L 307.254844 65.12769 
L 308.794481 62.556768 
L 308.849701 62.46657 
L 310.596399 59.80545 
L 310.615793 59.77768 
L 312.401393 57.248147 
L 312.475125 57.14433 
L 314.186993 54.862806 
L 314.471702 54.48321 
L 315.972593 52.584889 
L 316.574034 51.82209 
L 317.793905 50.355709 
L 318.783812 49.16097 
L 319.579505 48.258818 
L 321.124377 46.49985 
L 321.365105 46.248356 
L 323.150705 44.420599 
L 324.144985 43.39521 
L 324.972017 42.630305 
L 326.757617 41.005408 
L 327.066875 40.73409 
L 328.543217 39.58947 
L 330.328817 38.233391 
L 330.553845 38.07297 
L 332.150129 37.09174 
L 333.935729 36.051492 
L 335.114105 35.41185 
L 335.721329 35.133324 
L 337.506929 34.398227 
L 339.328241 33.723294 
L 341.113841 33.138624 
L 342.493633 32.75073 
L 342.899441 32.656871 
L 344.685041 32.32195 
L 346.506353 32.056304 
L 348.291953 31.871989 
L 350.077553 31.765329 
L 351.863153 31.739523 
L 353.684465 31.801084 
L 355.470065 31.953676 
L 357.255665 32.205528 
L 359.041265 32.566807 
L 359.72784 32.75073 
L 360.862577 33.172255 
L 362.648177 34.034561 
L 364.433777 35.139072 
L 364.794995 35.41185 
L 366.219377 37.201116 
L 366.778309 38.07297 
L 367.46991 40.73409 
L 367.356258 43.39521 
L 366.528802 46.49985 
L 366.219377 47.213014 
L 365.358589 49.16097 
L 364.433777 50.854202 
L 363.900426 51.82209 
L 362.648177 53.806155 
L 362.2202 54.48321 
L 360.862577 56.443293 
L 360.37866 57.14433 
L 359.041265 58.964324 
L 358.428011 59.80545 
L 357.255665 61.337982 
L 356.402646 62.46657 
L 355.470065 63.654612 
L 354.330069 65.12769 
L 353.684465 65.936343 
L 352.227166 67.78881 
L 351.863153 68.240367 
L 350.109601 70.44993 
L 350.077553 70.489419 
L 348.291953 72.689498 
L 347.955355 73.11105 
L 346.506353 74.888959 
L 345.798592 75.77217 
L 344.685041 77.138987 
L 343.647665 78.43329 
L 342.899441 79.350579 
L 341.500406 81.09441 
L 341.113841 81.56784 
L 339.355601 83.75553 
L 339.328241 83.788967 
L 337.506929 86.009382 
L 337.177172 86.41665 
L 335.721329 88.164415 
L 334.629614 89.52129 
L 333.935729 90.361357 
L 332.453724 92.18241 
L 332.150129 92.55031 
L 330.328817 94.782183 
L 330.278554 94.84353 
L 328.543217 96.941404 
L 328.084218 97.50465 
L 326.757617 99.124626 
L 325.917771 100.16577 
L 324.972017 101.338156 
L 323.787771 102.82689 
L 323.150705 103.633659 
L 321.706658 105.48801 
L 321.365105 105.931696 
L 319.682947 108.14913 
L 319.579505 108.288236 
L 317.793905 110.711512 
L 317.721551 110.81025 
L 315.972593 113.288487 
L 315.844925 113.47137 
L 314.186993 115.970066 
L 314.080161 116.13249 
L 312.442745 118.79361 
L 312.401393 118.866265 
L 310.92593 121.45473 
L 310.615793 122.060385 
L 309.552325 124.11585 
L 308.794481 125.784822 
L 308.335148 126.77697 
L 307.246157 129.43809 
L 307.008881 130.085174 
L 306.244604 132.09921 
L 305.223281 135.194203 
L 305.219994 135.20385 
L 304.351143 137.86497 
L 303.541574 140.52609 
L 303.437681 140.859716 
L 302.671916 143.18721 
L 301.778382 145.84833 
L 301.616369 146.288994 
L 300.757031 148.50945 
L 299.830769 150.730814 
L 299.638821 151.17057 
L 298.352469 153.83169 
L 298.045169 154.409616 
L 296.903966 156.49281 
L 296.259569 157.580256 
L 295.306398 159.15393 
L 294.438257 160.495909 
L 293.573611 161.81505 
L 292.652657 163.143495 
L 291.724776 164.47617 
L 290.867057 165.652869 
L 289.787296 167.13729 
L 289.081457 168.071523 
L 287.784629 169.79841 
L 287.260145 170.475771 
L 285.738878 172.45953 
L 285.474545 172.794458 
L 283.688945 175.083537 
L 283.660001 175.12065 
L 281.903345 177.290962 
L 281.172646 178.22529 
L 280.082033 179.575778 
L 279.040948 180.88641 
L 278.296433 181.803778 
L 276.906578 183.54753 
L 276.510833 184.03464 
L 274.776526 186.20865 
L 274.725233 186.271837 
L 272.903921 188.522618 
L 272.627369 188.86977 
L 271.118321 190.730203 
L 270.481153 191.53089 
L 269.332721 192.947692 
L 268.342805 194.19201 
L 267.547121 195.173024 
L 266.208044 196.85313 
L 265.725809 197.447255 
L 264.076936 199.51425 
L 263.940209 199.682241 
L 262.154609 201.89087 
L 261.927358 202.17537 
L 260.369009 204.08674 
L 259.768979 204.83649 
L 258.547697 206.336687 
L 257.619831 207.49761 
L 256.762097 208.552071 
L 255.479791 210.15873 
L 254.976497 210.778776 
L 253.350192 212.81985 
L 253.190897 213.016394 
L 251.369585 215.284354 
L 251.213188 215.48097 
L 249.583985 217.49014 
L 249.065246 218.14209 
L 247.798385 219.702936 
L 246.921843 220.80321 
L 246.012785 221.911524 
L 244.433392 223.90785 
L 244.191473 224.20601 
L 242.405873 226.432307 
L 242.296888 226.56897 
L 240.620273 228.637932 
L 240.149295 229.23009 
L 238.834673 230.862673 
L 238.020405 231.89121 
L 237.013361 233.15527 
L 235.917996 234.55233 
L 235.227761 235.429468 
L 233.845714 237.21345 
L 233.442161 237.735323 
L 231.811064 239.87457 
L 231.656561 240.079036 
L 229.835249 242.514419 
L 229.819364 242.53569 
L 228.049649 244.95305 
L 227.872742 245.19681 
L 226.264049 247.48722 
L 226.004965 247.85793 
L 224.478449 250.148458 
L 224.231196 250.51905 
L 222.657137 253.035593 
L 222.566014 253.18017 
L 220.994784 255.84129 
L 220.871537 256.065187 
L 219.502177 258.50241 
L 219.085937 259.29297 
L 218.069557 261.16353 
L 217.300337 262.627602 
L 216.642252 263.82465 
L 215.479025 265.878102 
L 214.853325 266.92929 
L 213.693425 268.682361 
L 213.045757 269.59041 
L 211.907825 270.954155 
L 210.721528 272.25153 
L 210.122225 272.788678 
L 208.300913 274.236543 
L 207.335192 274.91265 
L 206.515313 275.369596 
L 204.729713 276.220866 
L 202.944113 276.941 
L 201.122801 277.546875 
L 201.019514 277.57377 
L 199.337201 277.917507 
L 197.551601 278.186896 
L 195.766001 278.363929 
L 193.944689 278.450383 
L 192.159089 278.441567 
L 190.373489 278.336064 
L 188.587889 278.126528 
L 186.766577 277.793691 
L 185.897474 277.57377 
L 184.980977 277.223999 
L 183.195377 276.292721 
L 181.409777 275.006996 
L 181.306203 274.91265 
z
" clip-path="url(#p59bf301fff)" style="fill: none; stroke: #0b559f; stroke-width: 1.5"/>
   </g>
   <g id="PathCollection_8"/>
   <g id="patch_3">
    <path d="M 34.240625 288.21825 
L 34.240625 22.10625 
" style="fill: none; stroke: #000000; stroke-width: 0.8; stroke-linejoin: miter; stroke-linecap: square"/>
   </g>
   <g id="patch_4">
    <path d="M 391.360625 288.21825 
L 391.360625 22.10625 
" style="fill: none; stroke: #000000; stroke-width: 0.8; stroke-linejoin: miter; stroke-linecap: square"/>
   </g>
   <g id="patch_5">
    <path d="M 34.240625 288.21825 
L 391.360625 288.21825 
" style="fill: none; stroke: #000000; stroke-width: 0.8; stroke-linejoin: miter; stroke-linecap: square"/>
   </g>
   <g id="patch_6">
    <path d="M 34.240625 22.10625 
L 391.360625 22.10625 
" style="fill: none; stroke: #000000; stroke-width: 0.8; stroke-linejoin: miter; stroke-linecap: square"/>
   </g>
   <g id="text_16">
    <!-- 9.3_cross_20.0 -->
    <g transform="translate(168.34625 16.10625)scale(0.12 -0.12)">
     <defs>
      <path id="DejaVuSans-39" d="M 703 97 
L 703 672 
Q 941 559 1184 500 
Q 1428 441 1663 441 
Q 2288 441 2617 861 
Q 2947 1281 2994 2138 
Q 2813 1869 2534 1725 
Q 2256 1581 1919 1581 
Q 1219 1581 811 2004 
Q 403 2428 403 3163 
Q 403 3881 828 4315 
Q 1253 4750 1959 4750 
Q 2769 4750 3195 4129 
Q 3622 3509 3622 2328 
Q 3622 1225 3098 567 
Q 2575 -91 1691 -91 
Q 1453 -91 1209 -44 
Q 966 3 703 97 
z
M 1959 2075 
Q 2384 2075 2632 2365 
Q 2881 2656 2881 3163 
Q 2881 3666 2632 3958 
Q 2384 4250 1959 4250 
Q 1534 4250 1286 3958 
Q 1038 3666 1038 3163 
Q 1038 2656 1286 2365 
Q 1534 2075 1959 2075 
z
" transform="scale(0.015625)"/>
      <path id="DejaVuSans-2e" d="M 684 794 
L 1344 794 
L 1344 0 
L 684 0 
L 684 794 
z
" transform="scale(0.015625)"/>
      <path id="DejaVuSans-5f" d="M 3263 -1063 
L 3263 -1509 
L -63 -1509 
L -63 -1063 
L 3263 -1063 
z
" transform="scale(0.015625)"/>
      <path id="DejaVuSans-63" d="M 3122 3366 
L 3122 2828 
Q 2878 2963 2633 3030 
Q 2388 3097 2138 3097 
Q 1578 3097 1268 2742 
Q 959 2388 959 1747 
Q 959 1106 1268 751 
Q 1578 397 2138 397 
Q 2388 397 2633 464 
Q 2878 531 3122 666 
L 3122 134 
Q 2881 22 2623 -34 
Q 2366 -91 2075 -91 
Q 1284 -91 818 406 
Q 353 903 353 1747 
Q 353 2603 823 3093 
Q 1294 3584 2113 3584 
Q 2378 3584 2631 3529 
Q 2884 3475 3122 3366 
z
" transform="scale(0.015625)"/>
      <path id="DejaVuSans-72" d="M 2631 2963 
Q 2534 3019 2420 3045 
Q 2306 3072 2169 3072 
Q 1681 3072 1420 2755 
Q 1159 2438 1159 1844 
L 1159 0 
L 581 0 
L 581 3500 
L 1159 3500 
L 1159 2956 
Q 1341 3275 1631 3429 
Q 1922 3584 2338 3584 
Q 2397 3584 2469 3576 
Q 2541 3569 2628 3553 
L 2631 2963 
z
" transform="scale(0.015625)"/>
      <path id="DejaVuSans-73" d="M 2834 3397 
L 2834 2853 
Q 2591 2978 2328 3040 
Q 2066 3103 1784 3103 
Q 1356 3103 1142 2972 
Q 928 2841 928 2578 
Q 928 2378 1081 2264 
Q 1234 2150 1697 2047 
L 1894 2003 
Q 2506 1872 2764 1633 
Q 3022 1394 3022 966 
Q 3022 478 2636 193 
Q 2250 -91 1575 -91 
Q 1294 -91 989 -36 
Q 684 19 347 128 
L 347 722 
Q 666 556 975 473 
Q 1284 391 1588 391 
Q 1994 391 2212 530 
Q 2431 669 2431 922 
Q 2431 1156 2273 1281 
Q 2116 1406 1581 1522 
L 1381 1569 
Q 847 1681 609 1914 
Q 372 2147 372 2553 
Q 372 3047 722 3315 
Q 1072 3584 1716 3584 
Q 2034 3584 2315 3537 
Q 2597 3491 2834 3397 
z
" transform="scale(0.015625)"/>
     </defs>
     <use xlink:href="#DejaVuSans-39"/>
     <use xlink:href="#DejaVuSans-2e" x="63.623047"/>
     <use xlink:href="#DejaVuSans-33" x="95.410156"/>
     <use xlink:href="#DejaVuSans-5f" x="159.033203"/>
     <use xlink:href="#DejaVuSans-63" x="209.033203"/>
     <use xlink:href="#DejaVuSans-72" x="264.013672"/>
     <use xlink:href="#DejaVuSans-6f" x="302.876953"/>
     <use xlink:href="#DejaVuSans-73" x="364.058594"/>
     <use xlink:href="#DejaVuSans-73" x="416.158203"/>
     <use xlink:href="#DejaVuSans-5f" x="468.257812"/>
     <use xlink:href="#DejaVuSans-32" x="518.257812"/>
     <use xlink:href="#DejaVuSans-30" x="581.880859"/>
     <use xlink:href="#DejaVuSans-2e" x="645.503906"/>
     <use xlink:href="#DejaVuSans-30" x="677.291016"/>
    </g>
   </g>
  </g>
 </g>
 <defs>
  <clipPath id="p59bf301fff">
   <rect x="34.240625" y="22.10625" width="357.12" height="266.112"/>
  </clipPath>
 </defs>
</svg>
